<?xml version="1.0" encoding="utf-8" standalone="no"?>
<!DOCTYPE svg PUBLIC "-//W3C//DTD SVG 1.1//EN"
  "http://www.w3.org/Graphics/SVG/1.1/DTD/svg11.dtd">
<!-- Created with matplotlib (https://matplotlib.org/) -->
<svg height="345.6pt" version="1.1" viewBox="0 0 460.8 345.6" width="460.8pt" xmlns="http://www.w3.org/2000/svg" xmlns:xlink="http://www.w3.org/1999/xlink">
 <defs>
  <style type="text/css">
*{stroke-linecap:butt;stroke-linejoin:round;}
  </style>
 </defs>
 <g id="figure_1">
  <g id="patch_1">
   <path d="M 0 345.6 
L 460.8 345.6 
L 460.8 0 
L 0 0 
z
" style="fill:#ffffff;"/>
  </g>
  <g id="axes_1">
   <g id="patch_2">
    <path d="M 55.490865 137.71551 
L 228.27701 137.71551 
L 228.27701 18.118365 
L 55.490865 18.118365 
z
" style="fill:#ffffff;"/>
   </g>
   <g id="patch_3">
    <path clip-path="url(#p0aaf87d6ef)" d="M 63.344781 137.71551 
L 64.543852 137.71551 
L 64.543852 137.71142 
L 63.344781 137.71142 
z
" style="fill:#1f77b4;"/>
   </g>
   <g id="patch_4">
    <path clip-path="url(#p0aaf87d6ef)" d="M 64.84362 137.71551 
L 66.042691 137.71551 
L 66.042691 137.71142 
L 64.84362 137.71142 
z
" style="fill:#1f77b4;"/>
   </g>
   <g id="patch_5">
    <path clip-path="url(#p0aaf87d6ef)" d="M 66.342458 137.71551 
L 67.54153 137.71551 
L 67.54153 137.71142 
L 66.342458 137.71142 
z
" style="fill:#1f77b4;"/>
   </g>
   <g id="patch_6">
    <path clip-path="url(#p0aaf87d6ef)" d="M 67.841297 137.71551 
L 69.040368 137.71551 
L 69.040368 137.71142 
L 67.841297 137.71142 
z
" style="fill:#1f77b4;"/>
   </g>
   <g id="patch_7">
    <path clip-path="url(#p0aaf87d6ef)" d="M 69.340136 137.71551 
L 70.539207 137.71551 
L 70.539207 137.707331 
L 69.340136 137.707331 
z
" style="fill:#1f77b4;"/>
   </g>
   <g id="patch_8">
    <path clip-path="url(#p0aaf87d6ef)" d="M 70.838975 137.71551 
L 72.038046 137.71551 
L 72.038046 137.707331 
L 70.838975 137.707331 
z
" style="fill:#1f77b4;"/>
   </g>
   <g id="patch_9">
    <path clip-path="url(#p0aaf87d6ef)" d="M 72.337814 137.71551 
L 73.536885 137.71551 
L 73.536885 137.707331 
L 72.337814 137.707331 
z
" style="fill:#1f77b4;"/>
   </g>
   <g id="patch_10">
    <path clip-path="url(#p0aaf87d6ef)" d="M 73.836653 137.71551 
L 75.035724 137.71551 
L 75.035724 137.695062 
L 73.836653 137.695062 
z
" style="fill:#1f77b4;"/>
   </g>
   <g id="patch_11">
    <path clip-path="url(#p0aaf87d6ef)" d="M 75.335492 137.71551 
L 76.534563 137.71551 
L 76.534563 137.686882 
L 75.335492 137.686882 
z
" style="fill:#1f77b4;"/>
   </g>
   <g id="patch_12">
    <path clip-path="url(#p0aaf87d6ef)" d="M 76.834331 137.71551 
L 78.033402 137.71551 
L 78.033402 137.654165 
L 76.834331 137.654165 
z
" style="fill:#1f77b4;"/>
   </g>
   <g id="patch_13">
    <path clip-path="url(#p0aaf87d6ef)" d="M 78.333169 137.71551 
L 79.53224 137.71551 
L 79.53224 137.59691 
L 78.333169 137.59691 
z
" style="fill:#1f77b4;"/>
   </g>
   <g id="patch_14">
    <path clip-path="url(#p0aaf87d6ef)" d="M 79.832008 137.71551 
L 81.031079 137.71551 
L 81.031079 137.572372 
L 79.832008 137.572372 
z
" style="fill:#1f77b4;"/>
   </g>
   <g id="patch_15">
    <path clip-path="url(#p0aaf87d6ef)" d="M 81.330847 137.71551 
L 82.529918 137.71551 
L 82.529918 137.560103 
L 81.330847 137.560103 
z
" style="fill:#1f77b4;"/>
   </g>
   <g id="patch_16">
    <path clip-path="url(#p0aaf87d6ef)" d="M 82.829686 137.71551 
L 84.028757 137.71551 
L 84.028757 137.376067 
L 82.829686 137.376067 
z
" style="fill:#1f77b4;"/>
   </g>
   <g id="patch_17">
    <path clip-path="url(#p0aaf87d6ef)" d="M 84.328525 137.71551 
L 85.527596 137.71551 
L 85.527596 137.192032 
L 84.328525 137.192032 
z
" style="fill:#1f77b4;"/>
   </g>
   <g id="patch_18">
    <path clip-path="url(#p0aaf87d6ef)" d="M 85.827364 137.71551 
L 87.026435 137.71551 
L 87.026435 137.183853 
L 85.827364 137.183853 
z
" style="fill:#1f77b4;"/>
   </g>
   <g id="patch_19">
    <path clip-path="url(#p0aaf87d6ef)" d="M 87.326203 137.71551 
L 88.525274 137.71551 
L 88.525274 137.171584 
L 87.326203 137.171584 
z
" style="fill:#1f77b4;"/>
   </g>
   <g id="patch_20">
    <path clip-path="url(#p0aaf87d6ef)" d="M 88.825041 137.71551 
L 90.024113 137.71551 
L 90.024113 137.089791 
L 88.825041 137.089791 
z
" style="fill:#1f77b4;"/>
   </g>
   <g id="patch_21">
    <path clip-path="url(#p0aaf87d6ef)" d="M 90.32388 137.71551 
L 91.522951 137.71551 
L 91.522951 136.942563 
L 90.32388 136.942563 
z
" style="fill:#1f77b4;"/>
   </g>
   <g id="patch_22">
    <path clip-path="url(#p0aaf87d6ef)" d="M 91.822719 137.71551 
L 93.02179 137.71551 
L 93.02179 136.877128 
L 91.822719 136.877128 
z
" style="fill:#1f77b4;"/>
   </g>
   <g id="patch_23">
    <path clip-path="url(#p0aaf87d6ef)" d="M 93.321558 137.71551 
L 94.520629 137.71551 
L 94.520629 136.770797 
L 93.321558 136.770797 
z
" style="fill:#1f77b4;"/>
   </g>
   <g id="patch_24">
    <path clip-path="url(#p0aaf87d6ef)" d="M 94.820397 137.71551 
L 96.019468 137.71551 
L 96.019468 136.648106 
L 94.820397 136.648106 
z
" style="fill:#1f77b4;"/>
   </g>
   <g id="patch_25">
    <path clip-path="url(#p0aaf87d6ef)" d="M 96.319236 137.71551 
L 97.518307 137.71551 
L 97.518307 136.590851 
L 96.319236 136.590851 
z
" style="fill:#1f77b4;"/>
   </g>
   <g id="patch_26">
    <path clip-path="url(#p0aaf87d6ef)" d="M 97.818075 137.71551 
L 99.017146 137.71551 
L 99.017146 136.431354 
L 97.818075 136.431354 
z
" style="fill:#1f77b4;"/>
   </g>
   <g id="patch_27">
    <path clip-path="url(#p0aaf87d6ef)" d="M 99.316914 137.71551 
L 100.515985 137.71551 
L 100.515985 136.202333 
L 99.316914 136.202333 
z
" style="fill:#1f77b4;"/>
   </g>
   <g id="patch_28">
    <path clip-path="url(#p0aaf87d6ef)" d="M 100.815752 137.71551 
L 102.014824 137.71551 
L 102.014824 136.091911 
L 100.815752 136.091911 
z
" style="fill:#1f77b4;"/>
   </g>
   <g id="patch_29">
    <path clip-path="url(#p0aaf87d6ef)" d="M 102.314591 137.71551 
L 103.513662 137.71551 
L 103.513662 135.956952 
L 102.314591 135.956952 
z
" style="fill:#1f77b4;"/>
   </g>
   <g id="patch_30">
    <path clip-path="url(#p0aaf87d6ef)" d="M 103.81343 137.71551 
L 105.012501 137.71551 
L 105.012501 135.678855 
L 103.81343 135.678855 
z
" style="fill:#1f77b4;"/>
   </g>
   <g id="patch_31">
    <path clip-path="url(#p0aaf87d6ef)" d="M 105.312269 137.71551 
L 106.51134 137.71551 
L 106.51134 135.568434 
L 105.312269 135.568434 
z
" style="fill:#1f77b4;"/>
   </g>
   <g id="patch_32">
    <path clip-path="url(#p0aaf87d6ef)" d="M 106.811108 137.71551 
L 108.010179 137.71551 
L 108.010179 135.429385 
L 106.811108 135.429385 
z
" style="fill:#1f77b4;"/>
   </g>
   <g id="patch_33">
    <path clip-path="url(#p0aaf87d6ef)" d="M 108.309947 137.71551 
L 109.509018 137.71551 
L 109.509018 135.204453 
L 108.309947 135.204453 
z
" style="fill:#1f77b4;"/>
   </g>
   <g id="patch_34">
    <path clip-path="url(#p0aaf87d6ef)" d="M 109.808786 137.71551 
L 111.007857 137.71551 
L 111.007857 135.036777 
L 109.808786 135.036777 
z
" style="fill:#1f77b4;"/>
   </g>
   <g id="patch_35">
    <path clip-path="url(#p0aaf87d6ef)" d="M 111.307625 137.71551 
L 112.506696 137.71551 
L 112.506696 134.860921 
L 111.307625 134.860921 
z
" style="fill:#1f77b4;"/>
   </g>
   <g id="patch_36">
    <path clip-path="url(#p0aaf87d6ef)" d="M 112.806463 137.71551 
L 114.005535 137.71551 
L 114.005535 134.648258 
L 112.806463 134.648258 
z
" style="fill:#1f77b4;"/>
   </g>
   <g id="patch_37">
    <path clip-path="url(#p0aaf87d6ef)" d="M 114.305302 137.71551 
L 115.504373 137.71551 
L 115.504373 134.419237 
L 114.305302 134.419237 
z
" style="fill:#1f77b4;"/>
   </g>
   <g id="patch_38">
    <path clip-path="url(#p0aaf87d6ef)" d="M 115.804141 137.71551 
L 117.003212 137.71551 
L 117.003212 134.38243 
L 115.804141 134.38243 
z
" style="fill:#1f77b4;"/>
   </g>
   <g id="patch_39">
    <path clip-path="url(#p0aaf87d6ef)" d="M 117.30298 137.71551 
L 118.502051 137.71551 
L 118.502051 134.100243 
L 117.30298 134.100243 
z
" style="fill:#1f77b4;"/>
   </g>
   <g id="patch_40">
    <path clip-path="url(#p0aaf87d6ef)" d="M 118.801819 137.71551 
L 120.00089 137.71551 
L 120.00089 134.022539 
L 118.801819 134.022539 
z
" style="fill:#1f77b4;"/>
   </g>
   <g id="patch_41">
    <path clip-path="url(#p0aaf87d6ef)" d="M 120.300658 137.71551 
L 121.499729 137.71551 
L 121.499729 133.797607 
L 120.300658 133.797607 
z
" style="fill:#1f77b4;"/>
   </g>
   <g id="patch_42">
    <path clip-path="url(#p0aaf87d6ef)" d="M 121.799497 137.71551 
L 122.998568 137.71551 
L 122.998568 133.539958 
L 121.799497 133.539958 
z
" style="fill:#1f77b4;"/>
   </g>
   <g id="patch_43">
    <path clip-path="url(#p0aaf87d6ef)" d="M 123.298336 137.71551 
L 124.497407 137.71551 
L 124.497407 133.310937 
L 123.298336 133.310937 
z
" style="fill:#1f77b4;"/>
   </g>
   <g id="patch_44">
    <path clip-path="url(#p0aaf87d6ef)" d="M 124.797174 137.71551 
L 125.996245 137.71551 
L 125.996245 132.996032 
L 124.797174 132.996032 
z
" style="fill:#1f77b4;"/>
   </g>
   <g id="patch_45">
    <path clip-path="url(#p0aaf87d6ef)" d="M 126.296013 137.71551 
L 127.495084 137.71551 
L 127.495084 132.852894 
L 126.296013 132.852894 
z
" style="fill:#1f77b4;"/>
   </g>
   <g id="patch_46">
    <path clip-path="url(#p0aaf87d6ef)" d="M 127.794852 137.71551 
L 128.993923 137.71551 
L 128.993923 132.685217 
L 127.794852 132.685217 
z
" style="fill:#1f77b4;"/>
   </g>
   <g id="patch_47">
    <path clip-path="url(#p0aaf87d6ef)" d="M 129.293691 137.71551 
L 130.492762 137.71551 
L 130.492762 132.468465 
L 129.293691 132.468465 
z
" style="fill:#1f77b4;"/>
   </g>
   <g id="patch_48">
    <path clip-path="url(#p0aaf87d6ef)" d="M 130.79253 137.71551 
L 131.991601 137.71551 
L 131.991601 132.366223 
L 130.79253 132.366223 
z
" style="fill:#1f77b4;"/>
   </g>
   <g id="patch_49">
    <path clip-path="url(#p0aaf87d6ef)" d="M 132.291369 137.71551 
L 133.49044 137.71551 
L 133.49044 131.91227 
L 132.291369 131.91227 
z
" style="fill:#1f77b4;"/>
   </g>
   <g id="patch_50">
    <path clip-path="url(#p0aaf87d6ef)" d="M 133.790208 137.71551 
L 134.989279 137.71551 
L 134.989279 131.658711 
L 133.790208 131.658711 
z
" style="fill:#1f77b4;"/>
   </g>
   <g id="patch_51">
    <path clip-path="url(#p0aaf87d6ef)" d="M 135.289046 137.71551 
L 136.488118 137.71551 
L 136.488118 131.384703 
L 135.289046 131.384703 
z
" style="fill:#1f77b4;"/>
   </g>
   <g id="patch_52">
    <path clip-path="url(#p0aaf87d6ef)" d="M 136.787885 137.71551 
L 137.986956 137.71551 
L 137.986956 131.229295 
L 136.787885 131.229295 
z
" style="fill:#1f77b4;"/>
   </g>
   <g id="patch_53">
    <path clip-path="url(#p0aaf87d6ef)" d="M 138.286724 137.71551 
L 139.485795 137.71551 
L 139.485795 130.971646 
L 138.286724 130.971646 
z
" style="fill:#1f77b4;"/>
   </g>
   <g id="patch_54">
    <path clip-path="url(#p0aaf87d6ef)" d="M 139.785563 137.71551 
L 140.984634 137.71551 
L 140.984634 130.525872 
L 139.785563 130.525872 
z
" style="fill:#1f77b4;"/>
   </g>
   <g id="patch_55">
    <path clip-path="url(#p0aaf87d6ef)" d="M 141.284402 137.71551 
L 142.483473 137.71551 
L 142.483473 130.243685 
L 141.284402 130.243685 
z
" style="fill:#1f77b4;"/>
   </g>
   <g id="patch_56">
    <path clip-path="url(#p0aaf87d6ef)" d="M 142.783241 137.71551 
L 143.982312 137.71551 
L 143.982312 129.802001 
L 142.783241 129.802001 
z
" style="fill:#1f77b4;"/>
   </g>
   <g id="patch_57">
    <path clip-path="url(#p0aaf87d6ef)" d="M 144.28208 137.71551 
L 145.481151 137.71551 
L 145.481151 129.44211 
L 144.28208 129.44211 
z
" style="fill:#1f77b4;"/>
   </g>
   <g id="patch_58">
    <path clip-path="url(#p0aaf87d6ef)" d="M 145.780919 137.71551 
L 146.97999 137.71551 
L 146.97999 129.053592 
L 145.780919 129.053592 
z
" style="fill:#1f77b4;"/>
   </g>
   <g id="patch_59">
    <path clip-path="url(#p0aaf87d6ef)" d="M 147.279757 137.71551 
L 148.478829 137.71551 
L 148.478829 128.117057 
L 147.279757 128.117057 
z
" style="fill:#1f77b4;"/>
   </g>
   <g id="patch_60">
    <path clip-path="url(#p0aaf87d6ef)" d="M 148.778596 137.71551 
L 149.977667 137.71551 
L 149.977667 127.687642 
L 148.778596 127.687642 
z
" style="fill:#1f77b4;"/>
   </g>
   <g id="patch_61">
    <path clip-path="url(#p0aaf87d6ef)" d="M 150.277435 137.71551 
L 151.476506 137.71551 
L 151.476506 127.061923 
L 150.277435 127.061923 
z
" style="fill:#1f77b4;"/>
   </g>
   <g id="patch_62">
    <path clip-path="url(#p0aaf87d6ef)" d="M 151.776274 137.71551 
L 152.975345 137.71551 
L 152.975345 126.387128 
L 151.776274 126.387128 
z
" style="fill:#1f77b4;"/>
   </g>
   <g id="patch_63">
    <path clip-path="url(#p0aaf87d6ef)" d="M 153.275113 137.71551 
L 154.474184 137.71551 
L 154.474184 125.679615 
L 153.275113 125.679615 
z
" style="fill:#1f77b4;"/>
   </g>
   <g id="patch_64">
    <path clip-path="url(#p0aaf87d6ef)" d="M 154.773952 137.71551 
L 155.973023 137.71551 
L 155.973023 124.943474 
L 154.773952 124.943474 
z
" style="fill:#1f77b4;"/>
   </g>
   <g id="patch_65">
    <path clip-path="url(#p0aaf87d6ef)" d="M 156.272791 137.71551 
L 157.471862 137.71551 
L 157.471862 124.477252 
L 156.272791 124.477252 
z
" style="fill:#1f77b4;"/>
   </g>
   <g id="patch_66">
    <path clip-path="url(#p0aaf87d6ef)" d="M 157.77163 137.71551 
L 158.970701 137.71551 
L 158.970701 124.13781 
L 157.77163 124.13781 
z
" style="fill:#1f77b4;"/>
   </g>
   <g id="patch_67">
    <path clip-path="url(#p0aaf87d6ef)" d="M 159.270468 137.71551 
L 160.469539 137.71551 
L 160.469539 123.667498 
L 159.270468 123.667498 
z
" style="fill:#1f77b4;"/>
   </g>
   <g id="patch_68">
    <path clip-path="url(#p0aaf87d6ef)" d="M 160.769307 137.71551 
L 161.968378 137.71551 
L 161.968378 122.448776 
L 160.769307 122.448776 
z
" style="fill:#1f77b4;"/>
   </g>
   <g id="patch_69">
    <path clip-path="url(#p0aaf87d6ef)" d="M 162.268146 137.71551 
L 163.467217 137.71551 
L 163.467217 121.561318 
L 162.268146 121.561318 
z
" style="fill:#1f77b4;"/>
   </g>
   <g id="patch_70">
    <path clip-path="url(#p0aaf87d6ef)" d="M 163.766985 137.71551 
L 164.966056 137.71551 
L 164.966056 120.55526 
L 163.766985 120.55526 
z
" style="fill:#1f77b4;"/>
   </g>
   <g id="patch_71">
    <path clip-path="url(#p0aaf87d6ef)" d="M 165.265824 137.71551 
L 166.464895 137.71551 
L 166.464895 119.418332 
L 165.265824 119.418332 
z
" style="fill:#1f77b4;"/>
   </g>
   <g id="patch_72">
    <path clip-path="url(#p0aaf87d6ef)" d="M 166.764663 137.71551 
L 167.963734 137.71551 
L 167.963734 118.858047 
L 166.764663 118.858047 
z
" style="fill:#1f77b4;"/>
   </g>
   <g id="patch_73">
    <path clip-path="url(#p0aaf87d6ef)" d="M 168.263502 137.71551 
L 169.462573 137.71551 
L 169.462573 118.514515 
L 168.263502 118.514515 
z
" style="fill:#1f77b4;"/>
   </g>
   <g id="patch_74">
    <path clip-path="url(#p0aaf87d6ef)" d="M 169.76234 137.71551 
L 170.961412 137.71551 
L 170.961412 117.361229 
L 169.76234 117.361229 
z
" style="fill:#1f77b4;"/>
   </g>
   <g id="patch_75">
    <path clip-path="url(#p0aaf87d6ef)" d="M 171.261179 137.71551 
L 172.46025 137.71551 
L 172.46025 116.097521 
L 171.261179 116.097521 
z
" style="fill:#1f77b4;"/>
   </g>
   <g id="patch_76">
    <path clip-path="url(#p0aaf87d6ef)" d="M 172.760018 137.71551 
L 173.959089 137.71551 
L 173.959089 114.829724 
L 172.760018 114.829724 
z
" style="fill:#1f77b4;"/>
   </g>
   <g id="patch_77">
    <path clip-path="url(#p0aaf87d6ef)" d="M 174.258857 137.71551 
L 175.457928 137.71551 
L 175.457928 113.197946 
L 174.258857 113.197946 
z
" style="fill:#1f77b4;"/>
   </g>
   <g id="patch_78">
    <path clip-path="url(#p0aaf87d6ef)" d="M 175.757696 137.71551 
L 176.956767 137.71551 
L 176.956767 111.795189 
L 175.757696 111.795189 
z
" style="fill:#1f77b4;"/>
   </g>
   <g id="patch_79">
    <path clip-path="url(#p0aaf87d6ef)" d="M 177.256535 137.71551 
L 178.455606 137.71551 
L 178.455606 110.445599 
L 177.256535 110.445599 
z
" style="fill:#1f77b4;"/>
   </g>
   <g id="patch_80">
    <path clip-path="url(#p0aaf87d6ef)" d="M 178.755374 137.71551 
L 179.954445 137.71551 
L 179.954445 109.243236 
L 178.755374 109.243236 
z
" style="fill:#1f77b4;"/>
   </g>
   <g id="patch_81">
    <path clip-path="url(#p0aaf87d6ef)" d="M 180.254213 137.71551 
L 181.453284 137.71551 
L 181.453284 106.97756 
L 180.254213 106.97756 
z
" style="fill:#1f77b4;"/>
   </g>
   <g id="patch_82">
    <path clip-path="url(#p0aaf87d6ef)" d="M 181.753051 137.71551 
L 182.952123 137.71551 
L 182.952123 104.953173 
L 181.753051 104.953173 
z
" style="fill:#1f77b4;"/>
   </g>
   <g id="patch_83">
    <path clip-path="url(#p0aaf87d6ef)" d="M 183.25189 137.71551 
L 184.450961 137.71551 
L 184.450961 102.192647 
L 183.25189 102.192647 
z
" style="fill:#1f77b4;"/>
   </g>
   <g id="patch_84">
    <path clip-path="url(#p0aaf87d6ef)" d="M 184.750729 137.71551 
L 185.9498 137.71551 
L 185.9498 99.959688 
L 184.750729 99.959688 
z
" style="fill:#1f77b4;"/>
   </g>
   <g id="patch_85">
    <path clip-path="url(#p0aaf87d6ef)" d="M 186.249568 137.71551 
L 187.448639 137.71551 
L 187.448639 98.332 
L 186.249568 98.332 
z
" style="fill:#1f77b4;"/>
   </g>
   <g id="patch_86">
    <path clip-path="url(#p0aaf87d6ef)" d="M 187.748407 137.71551 
L 188.947478 137.71551 
L 188.947478 94.921216 
L 187.748407 94.921216 
z
" style="fill:#1f77b4;"/>
   </g>
   <g id="patch_87">
    <path clip-path="url(#p0aaf87d6ef)" d="M 189.247246 137.71551 
L 190.446317 137.71551 
L 190.446317 94.078744 
L 189.247246 94.078744 
z
" style="fill:#1f77b4;"/>
   </g>
   <g id="patch_88">
    <path clip-path="url(#p0aaf87d6ef)" d="M 190.746085 137.71551 
L 191.945156 137.71551 
L 191.945156 92.978623 
L 190.746085 92.978623 
z
" style="fill:#1f77b4;"/>
   </g>
   <g id="patch_89">
    <path clip-path="url(#p0aaf87d6ef)" d="M 192.244924 137.71551 
L 193.443995 137.71551 
L 193.443995 88.598588 
L 192.244924 88.598588 
z
" style="fill:#1f77b4;"/>
   </g>
   <g id="patch_90">
    <path clip-path="url(#p0aaf87d6ef)" d="M 193.743762 137.71551 
L 194.942834 137.71551 
L 194.942834 84.410767 
L 193.743762 84.410767 
z
" style="fill:#1f77b4;"/>
   </g>
   <g id="patch_91">
    <path clip-path="url(#p0aaf87d6ef)" d="M 195.242601 137.71551 
L 196.441672 137.71551 
L 196.441672 80.480596 
L 195.242601 80.480596 
z
" style="fill:#1f77b4;"/>
   </g>
   <g id="patch_92">
    <path clip-path="url(#p0aaf87d6ef)" d="M 196.74144 137.71551 
L 197.940511 137.71551 
L 197.940511 76.619948 
L 196.74144 76.619948 
z
" style="fill:#1f77b4;"/>
   </g>
   <g id="patch_93">
    <path clip-path="url(#p0aaf87d6ef)" d="M 198.240279 137.71551 
L 199.43935 137.71551 
L 199.43935 73.495441 
L 198.240279 73.495441 
z
" style="fill:#1f77b4;"/>
   </g>
   <g id="patch_94">
    <path clip-path="url(#p0aaf87d6ef)" d="M 199.739118 137.71551 
L 200.938189 137.71551 
L 200.938189 72.759301 
L 199.739118 72.759301 
z
" style="fill:#1f77b4;"/>
   </g>
   <g id="patch_95">
    <path clip-path="url(#p0aaf87d6ef)" d="M 201.237957 137.71551 
L 202.437028 137.71551 
L 202.437028 71.863663 
L 201.237957 71.863663 
z
" style="fill:#1f77b4;"/>
   </g>
   <g id="patch_96">
    <path clip-path="url(#p0aaf87d6ef)" d="M 202.736796 137.71551 
L 203.935867 137.71551 
L 203.935867 66.142217 
L 202.736796 66.142217 
z
" style="fill:#1f77b4;"/>
   </g>
   <g id="patch_97">
    <path clip-path="url(#p0aaf87d6ef)" d="M 204.235635 137.71551 
L 205.434706 137.71551 
L 205.434706 62.269301 
L 204.235635 62.269301 
z
" style="fill:#1f77b4;"/>
   </g>
   <g id="patch_98">
    <path clip-path="url(#p0aaf87d6ef)" d="M 205.734473 137.71551 
L 206.933544 137.71551 
L 206.933544 55.48863 
L 205.734473 55.48863 
z
" style="fill:#1f77b4;"/>
   </g>
   <g id="patch_99">
    <path clip-path="url(#p0aaf87d6ef)" d="M 207.233312 137.71551 
L 208.432383 137.71551 
L 208.432383 53.411078 
L 207.233312 53.411078 
z
" style="fill:#1f77b4;"/>
   </g>
   <g id="patch_100">
    <path clip-path="url(#p0aaf87d6ef)" d="M 208.732151 137.71551 
L 209.931222 137.71551 
L 209.931222 50.274302 
L 208.732151 50.274302 
z
" style="fill:#1f77b4;"/>
   </g>
   <g id="patch_101">
    <path clip-path="url(#p0aaf87d6ef)" d="M 210.23099 137.71551 
L 211.430061 137.71551 
L 211.430061 48.855187 
L 210.23099 48.855187 
z
" style="fill:#1f77b4;"/>
   </g>
   <g id="patch_102">
    <path clip-path="url(#p0aaf87d6ef)" d="M 211.729829 137.71551 
L 212.9289 137.71551 
L 212.9289 47.644645 
L 211.729829 47.644645 
z
" style="fill:#1f77b4;"/>
   </g>
   <g id="patch_103">
    <path clip-path="url(#p0aaf87d6ef)" d="M 213.228668 137.71551 
L 214.427739 137.71551 
L 214.427739 42.234013 
L 213.228668 42.234013 
z
" style="fill:#1f77b4;"/>
   </g>
   <g id="patch_104">
    <path clip-path="url(#p0aaf87d6ef)" d="M 214.727507 137.71551 
L 215.926578 137.71551 
L 215.926578 35.85822 
L 214.727507 35.85822 
z
" style="fill:#1f77b4;"/>
   </g>
   <g id="patch_105">
    <path clip-path="url(#p0aaf87d6ef)" d="M 216.226345 137.71551 
L 217.425417 137.71551 
L 217.425417 31.171459 
L 216.226345 31.171459 
z
" style="fill:#1f77b4;"/>
   </g>
   <g id="patch_106">
    <path clip-path="url(#p0aaf87d6ef)" d="M 217.725184 137.71551 
L 218.924255 137.71551 
L 218.924255 26.047104 
L 217.725184 26.047104 
z
" style="fill:#1f77b4;"/>
   </g>
   <g id="patch_107">
    <path clip-path="url(#p0aaf87d6ef)" d="M 219.224023 137.71551 
L 220.423094 137.71551 
L 220.423094 24.672976 
L 219.224023 24.672976 
z
" style="fill:#1f77b4;"/>
   </g>
   <g id="matplotlib.axis_1">
    <g id="xtick_1">
     <g id="line2d_1">
      <defs>
       <path d="M 0 0 
L 0 3.5 
" id="m76372f1584" style="stroke:#000000;stroke-width:0.8;"/>
      </defs>
      <g>
       <use style="stroke:#000000;stroke-width:0.8;" x="63.944316" xlink:href="#m76372f1584" y="137.71551"/>
      </g>
     </g>
     <g id="text_1">
      <!-- 0 -->
      <defs>
       <path d="M 31.78125 66.40625 
Q 24.171875 66.40625 20.328125 58.90625 
Q 16.5 51.421875 16.5 36.375 
Q 16.5 21.390625 20.328125 13.890625 
Q 24.171875 6.390625 31.78125 6.390625 
Q 39.453125 6.390625 43.28125 13.890625 
Q 47.125 21.390625 47.125 36.375 
Q 47.125 51.421875 43.28125 58.90625 
Q 39.453125 66.40625 31.78125 66.40625 
z
M 31.78125 74.21875 
Q 44.046875 74.21875 50.515625 64.515625 
Q 56.984375 54.828125 56.984375 36.375 
Q 56.984375 17.96875 50.515625 8.265625 
Q 44.046875 -1.421875 31.78125 -1.421875 
Q 19.53125 -1.421875 13.0625 8.265625 
Q 6.59375 17.96875 6.59375 36.375 
Q 6.59375 54.828125 13.0625 64.515625 
Q 19.53125 74.21875 31.78125 74.21875 
z
" id="DejaVuSans-48"/>
      </defs>
      <g transform="translate(60.763066 152.313947)scale(0.1 -0.1)">
       <use xlink:href="#DejaVuSans-48"/>
      </g>
     </g>
    </g>
    <g id="xtick_2">
     <g id="line2d_2">
      <g>
       <use style="stroke:#000000;stroke-width:0.8;" x="101.415288" xlink:href="#m76372f1584" y="137.71551"/>
      </g>
     </g>
     <g id="text_2">
      <!-- 25 -->
      <defs>
       <path d="M 19.1875 8.296875 
L 53.609375 8.296875 
L 53.609375 0 
L 7.328125 0 
L 7.328125 8.296875 
Q 12.9375 14.109375 22.625 23.890625 
Q 32.328125 33.6875 34.8125 36.53125 
Q 39.546875 41.84375 41.421875 45.53125 
Q 43.3125 49.21875 43.3125 52.78125 
Q 43.3125 58.59375 39.234375 62.25 
Q 35.15625 65.921875 28.609375 65.921875 
Q 23.96875 65.921875 18.8125 64.3125 
Q 13.671875 62.703125 7.8125 59.421875 
L 7.8125 69.390625 
Q 13.765625 71.78125 18.9375 73 
Q 24.125 74.21875 28.421875 74.21875 
Q 39.75 74.21875 46.484375 68.546875 
Q 53.21875 62.890625 53.21875 53.421875 
Q 53.21875 48.921875 51.53125 44.890625 
Q 49.859375 40.875 45.40625 35.40625 
Q 44.1875 33.984375 37.640625 27.21875 
Q 31.109375 20.453125 19.1875 8.296875 
z
" id="DejaVuSans-50"/>
       <path d="M 10.796875 72.90625 
L 49.515625 72.90625 
L 49.515625 64.59375 
L 19.828125 64.59375 
L 19.828125 46.734375 
Q 21.96875 47.46875 24.109375 47.828125 
Q 26.265625 48.1875 28.421875 48.1875 
Q 40.625 48.1875 47.75 41.5 
Q 54.890625 34.8125 54.890625 23.390625 
Q 54.890625 11.625 47.5625 5.09375 
Q 40.234375 -1.421875 26.90625 -1.421875 
Q 22.3125 -1.421875 17.546875 -0.640625 
Q 12.796875 0.140625 7.71875 1.703125 
L 7.71875 11.625 
Q 12.109375 9.234375 16.796875 8.0625 
Q 21.484375 6.890625 26.703125 6.890625 
Q 35.15625 6.890625 40.078125 11.328125 
Q 45.015625 15.765625 45.015625 23.390625 
Q 45.015625 31 40.078125 35.4375 
Q 35.15625 39.890625 26.703125 39.890625 
Q 22.75 39.890625 18.8125 39.015625 
Q 14.890625 38.140625 10.796875 36.28125 
z
" id="DejaVuSans-53"/>
      </defs>
      <g transform="translate(95.052788 152.313947)scale(0.1 -0.1)">
       <use xlink:href="#DejaVuSans-50"/>
       <use x="63.623047" xlink:href="#DejaVuSans-53"/>
      </g>
     </g>
    </g>
    <g id="xtick_3">
     <g id="line2d_3">
      <g>
       <use style="stroke:#000000;stroke-width:0.8;" x="138.88626" xlink:href="#m76372f1584" y="137.71551"/>
      </g>
     </g>
     <g id="text_3">
      <!-- 50 -->
      <g transform="translate(132.52376 152.313947)scale(0.1 -0.1)">
       <use xlink:href="#DejaVuSans-53"/>
       <use x="63.623047" xlink:href="#DejaVuSans-48"/>
      </g>
     </g>
    </g>
    <g id="xtick_4">
     <g id="line2d_4">
      <g>
       <use style="stroke:#000000;stroke-width:0.8;" x="176.357232" xlink:href="#m76372f1584" y="137.71551"/>
      </g>
     </g>
     <g id="text_4">
      <!-- 75 -->
      <defs>
       <path d="M 8.203125 72.90625 
L 55.078125 72.90625 
L 55.078125 68.703125 
L 28.609375 0 
L 18.3125 0 
L 43.21875 64.59375 
L 8.203125 64.59375 
z
" id="DejaVuSans-55"/>
      </defs>
      <g transform="translate(169.994732 152.313947)scale(0.1 -0.1)">
       <use xlink:href="#DejaVuSans-55"/>
       <use x="63.623047" xlink:href="#DejaVuSans-53"/>
      </g>
     </g>
    </g>
    <g id="xtick_5">
     <g id="line2d_5">
      <g>
       <use style="stroke:#000000;stroke-width:0.8;" x="213.828203" xlink:href="#m76372f1584" y="137.71551"/>
      </g>
     </g>
     <g id="text_5">
      <!-- 100 -->
      <defs>
       <path d="M 12.40625 8.296875 
L 28.515625 8.296875 
L 28.515625 63.921875 
L 10.984375 60.40625 
L 10.984375 69.390625 
L 28.421875 72.90625 
L 38.28125 72.90625 
L 38.28125 8.296875 
L 54.390625 8.296875 
L 54.390625 0 
L 12.40625 0 
z
" id="DejaVuSans-49"/>
      </defs>
      <g transform="translate(204.284453 152.313947)scale(0.1 -0.1)">
       <use xlink:href="#DejaVuSans-49"/>
       <use x="63.623047" xlink:href="#DejaVuSans-48"/>
       <use x="127.246094" xlink:href="#DejaVuSans-48"/>
      </g>
     </g>
    </g>
    <g id="text_6">
     <!-- Dias -->
     <defs>
      <path d="M 19.671875 64.796875 
L 19.671875 8.109375 
L 31.59375 8.109375 
Q 46.6875 8.109375 53.6875 14.9375 
Q 60.6875 21.78125 60.6875 36.53125 
Q 60.6875 51.171875 53.6875 57.984375 
Q 46.6875 64.796875 31.59375 64.796875 
z
M 9.8125 72.90625 
L 30.078125 72.90625 
Q 51.265625 72.90625 61.171875 64.09375 
Q 71.09375 55.28125 71.09375 36.53125 
Q 71.09375 17.671875 61.125 8.828125 
Q 51.171875 0 30.078125 0 
L 9.8125 0 
z
" id="DejaVuSans-68"/>
      <path d="M 9.421875 54.6875 
L 18.40625 54.6875 
L 18.40625 0 
L 9.421875 0 
z
M 9.421875 75.984375 
L 18.40625 75.984375 
L 18.40625 64.59375 
L 9.421875 64.59375 
z
" id="DejaVuSans-105"/>
      <path d="M 34.28125 27.484375 
Q 23.390625 27.484375 19.1875 25 
Q 14.984375 22.515625 14.984375 16.5 
Q 14.984375 11.71875 18.140625 8.90625 
Q 21.296875 6.109375 26.703125 6.109375 
Q 34.1875 6.109375 38.703125 11.40625 
Q 43.21875 16.703125 43.21875 25.484375 
L 43.21875 27.484375 
z
M 52.203125 31.203125 
L 52.203125 0 
L 43.21875 0 
L 43.21875 8.296875 
Q 40.140625 3.328125 35.546875 0.953125 
Q 30.953125 -1.421875 24.3125 -1.421875 
Q 15.921875 -1.421875 10.953125 3.296875 
Q 6 8.015625 6 15.921875 
Q 6 25.140625 12.171875 29.828125 
Q 18.359375 34.515625 30.609375 34.515625 
L 43.21875 34.515625 
L 43.21875 35.40625 
Q 43.21875 41.609375 39.140625 45 
Q 35.0625 48.390625 27.6875 48.390625 
Q 23 48.390625 18.546875 47.265625 
Q 14.109375 46.140625 10.015625 43.890625 
L 10.015625 52.203125 
Q 14.9375 54.109375 19.578125 55.046875 
Q 24.21875 56 28.609375 56 
Q 40.484375 56 46.34375 49.84375 
Q 52.203125 43.703125 52.203125 31.203125 
z
" id="DejaVuSans-97"/>
      <path d="M 44.28125 53.078125 
L 44.28125 44.578125 
Q 40.484375 46.53125 36.375 47.5 
Q 32.28125 48.484375 27.875 48.484375 
Q 21.1875 48.484375 17.84375 46.4375 
Q 14.5 44.390625 14.5 40.28125 
Q 14.5 37.15625 16.890625 35.375 
Q 19.28125 33.59375 26.515625 31.984375 
L 29.59375 31.296875 
Q 39.15625 29.25 43.1875 25.515625 
Q 47.21875 21.78125 47.21875 15.09375 
Q 47.21875 7.46875 41.1875 3.015625 
Q 35.15625 -1.421875 24.609375 -1.421875 
Q 20.21875 -1.421875 15.453125 -0.5625 
Q 10.6875 0.296875 5.421875 2 
L 5.421875 11.28125 
Q 10.40625 8.6875 15.234375 7.390625 
Q 20.0625 6.109375 24.8125 6.109375 
Q 31.15625 6.109375 34.5625 8.28125 
Q 37.984375 10.453125 37.984375 14.40625 
Q 37.984375 18.0625 35.515625 20.015625 
Q 33.0625 21.96875 24.703125 23.78125 
L 21.578125 24.515625 
Q 13.234375 26.265625 9.515625 29.90625 
Q 5.8125 33.546875 5.8125 39.890625 
Q 5.8125 47.609375 11.28125 51.796875 
Q 16.75 56 26.8125 56 
Q 31.78125 56 36.171875 55.265625 
Q 40.578125 54.546875 44.28125 53.078125 
z
" id="DejaVuSans-115"/>
     </defs>
     <g transform="translate(130.976125 165.992072)scale(0.1 -0.1)">
      <use xlink:href="#DejaVuSans-68"/>
      <use x="77.001953" xlink:href="#DejaVuSans-105"/>
      <use x="104.785156" xlink:href="#DejaVuSans-97"/>
      <use x="166.064453" xlink:href="#DejaVuSans-115"/>
     </g>
    </g>
   </g>
   <g id="matplotlib.axis_2">
    <g id="ytick_1">
     <g id="line2d_6">
      <defs>
       <path d="M 0 0 
L -3.5 0 
" id="mb5b23eac2b" style="stroke:#000000;stroke-width:0.8;"/>
      </defs>
      <g>
       <use style="stroke:#000000;stroke-width:0.8;" x="55.490865" xlink:href="#mb5b23eac2b" y="137.71551"/>
      </g>
     </g>
     <g id="text_7">
      <!-- 0 -->
      <g transform="translate(42.128365 141.514729)scale(0.1 -0.1)">
       <use xlink:href="#DejaVuSans-48"/>
      </g>
     </g>
    </g>
    <g id="ytick_2">
     <g id="line2d_7">
      <g>
       <use style="stroke:#000000;stroke-width:0.8;" x="55.490865" xlink:href="#mb5b23eac2b" y="96.818822"/>
      </g>
     </g>
     <g id="text_8">
      <!-- 10000 -->
      <g transform="translate(16.678365 100.618041)scale(0.1 -0.1)">
       <use xlink:href="#DejaVuSans-49"/>
       <use x="63.623047" xlink:href="#DejaVuSans-48"/>
       <use x="127.246094" xlink:href="#DejaVuSans-48"/>
       <use x="190.869141" xlink:href="#DejaVuSans-48"/>
       <use x="254.492188" xlink:href="#DejaVuSans-48"/>
      </g>
     </g>
    </g>
    <g id="ytick_3">
     <g id="line2d_8">
      <g>
       <use style="stroke:#000000;stroke-width:0.8;" x="55.490865" xlink:href="#mb5b23eac2b" y="55.922135"/>
      </g>
     </g>
     <g id="text_9">
      <!-- 20000 -->
      <g transform="translate(16.678365 59.721353)scale(0.1 -0.1)">
       <use xlink:href="#DejaVuSans-50"/>
       <use x="63.623047" xlink:href="#DejaVuSans-48"/>
       <use x="127.246094" xlink:href="#DejaVuSans-48"/>
       <use x="190.869141" xlink:href="#DejaVuSans-48"/>
       <use x="254.492188" xlink:href="#DejaVuSans-48"/>
      </g>
     </g>
    </g>
    <g id="text_10">
     <!-- Casos -->
     <defs>
      <path d="M 64.40625 67.28125 
L 64.40625 56.890625 
Q 59.421875 61.53125 53.78125 63.8125 
Q 48.140625 66.109375 41.796875 66.109375 
Q 29.296875 66.109375 22.65625 58.46875 
Q 16.015625 50.828125 16.015625 36.375 
Q 16.015625 21.96875 22.65625 14.328125 
Q 29.296875 6.6875 41.796875 6.6875 
Q 48.140625 6.6875 53.78125 8.984375 
Q 59.421875 11.28125 64.40625 15.921875 
L 64.40625 5.609375 
Q 59.234375 2.09375 53.4375 0.328125 
Q 47.65625 -1.421875 41.21875 -1.421875 
Q 24.65625 -1.421875 15.125 8.703125 
Q 5.609375 18.84375 5.609375 36.375 
Q 5.609375 53.953125 15.125 64.078125 
Q 24.65625 74.21875 41.21875 74.21875 
Q 47.75 74.21875 53.53125 72.484375 
Q 59.328125 70.75 64.40625 67.28125 
z
" id="DejaVuSans-67"/>
      <path d="M 30.609375 48.390625 
Q 23.390625 48.390625 19.1875 42.75 
Q 14.984375 37.109375 14.984375 27.296875 
Q 14.984375 17.484375 19.15625 11.84375 
Q 23.34375 6.203125 30.609375 6.203125 
Q 37.796875 6.203125 41.984375 11.859375 
Q 46.1875 17.53125 46.1875 27.296875 
Q 46.1875 37.015625 41.984375 42.703125 
Q 37.796875 48.390625 30.609375 48.390625 
z
M 30.609375 56 
Q 42.328125 56 49.015625 48.375 
Q 55.71875 40.765625 55.71875 27.296875 
Q 55.71875 13.875 49.015625 6.21875 
Q 42.328125 -1.421875 30.609375 -1.421875 
Q 18.84375 -1.421875 12.171875 6.21875 
Q 5.515625 13.875 5.515625 27.296875 
Q 5.515625 40.765625 12.171875 48.375 
Q 18.84375 56 30.609375 56 
z
" id="DejaVuSans-111"/>
     </defs>
     <g transform="translate(10.598678 92.741156)rotate(-90)scale(0.1 -0.1)">
      <use xlink:href="#DejaVuSans-67"/>
      <use x="69.824219" xlink:href="#DejaVuSans-97"/>
      <use x="131.103516" xlink:href="#DejaVuSans-115"/>
      <use x="183.203125" xlink:href="#DejaVuSans-111"/>
      <use x="244.384766" xlink:href="#DejaVuSans-115"/>
     </g>
    </g>
   </g>
   <g id="line2d_9">
    <path clip-path="url(#p0aaf87d6ef)" d="M 63.944316 137.709872 
L 65.443155 137.707632 
L 66.941994 137.703967 
L 68.440833 137.698228 
L 69.939672 137.689596 
L 71.438511 137.677177 
L 72.937349 137.659978 
L 74.436188 137.63689 
L 75.935027 137.606957 
L 77.433866 137.569609 
L 78.932705 137.524622 
L 80.431544 137.472002 
L 81.930383 137.411873 
L 83.429222 137.344629 
L 84.92806 137.270954 
L 86.426899 137.191419 
L 87.925738 137.106206 
L 89.424577 137.015133 
L 90.923416 136.917854 
L 92.422255 136.814063 
L 93.921094 136.703268 
L 95.419933 136.584796 
L 96.918771 136.45819 
L 98.41761 136.323381 
L 99.916449 136.180665 
L 101.415288 136.030655 
L 102.914127 135.874008 
L 104.412966 135.711565 
L 105.911805 135.544385 
L 107.410643 135.37339 
L 108.909482 135.199229 
L 110.408321 135.022416 
L 111.90716 134.84307 
L 113.405999 134.661176 
L 114.904838 134.476508 
L 116.403677 134.288569 
L 117.902516 134.096851 
L 119.401354 133.901052 
L 120.900193 133.700741 
L 122.399032 133.49566 
L 123.897871 133.285389 
L 125.39671 133.069525 
L 126.895549 132.847683 
L 128.394388 132.619265 
L 129.893227 132.382987 
L 131.392065 132.137127 
L 132.890904 131.879495 
L 134.389743 131.607676 
L 135.888582 131.318691 
L 137.387421 131.008949 
L 138.88626 130.674446 
L 140.385099 130.312017 
L 141.883938 129.919375 
L 143.382776 129.494858 
L 144.881615 129.03756 
L 146.380454 128.547629 
L 147.879293 128.026454 
L 149.378132 127.47656 
L 150.876971 126.899888 
L 152.37581 126.297386 
L 153.874648 125.669604 
L 155.373487 125.016382 
L 156.872326 124.336624 
L 158.371165 123.62827 
L 159.870004 122.888027 
L 161.368843 122.11209 
L 162.867682 121.296556 
L 164.366521 120.436494 
L 165.865359 119.525697 
L 167.364198 118.556952 
L 168.863037 117.521932 
L 170.361876 116.411242 
L 171.860715 115.215386 
L 173.359554 113.925806 
L 174.858393 112.535045 
L 176.357232 111.037625 
L 177.85607 109.429439 
L 179.354909 107.706938 
L 180.853748 105.868871 
L 182.352587 103.914817 
L 183.851426 101.842702 
L 185.350265 99.650256 
L 186.849104 97.335219 
L 188.347942 94.895784 
L 189.846781 92.333958 
L 191.34562 89.652956 
L 192.844459 86.857588 
L 194.343298 83.955794 
L 195.842137 80.95782 
L 197.340976 77.873623 
L 198.839815 74.715437 
L 200.338653 71.491572 
L 201.837492 68.208387 
L 203.336331 64.869763 
L 204.83517 61.475634 
L 206.334009 58.022589 
L 207.832848 54.507934 
L 209.331687 50.922589 
L 210.830526 47.259737 
L 212.329364 43.5179 
L 213.828203 39.695129 
L 215.327042 35.794744 
L 216.825881 31.845883 
L 218.32472 27.849531 
L 219.823559 23.813467 
" style="fill:none;stroke:#ff0000;stroke-linecap:square;stroke-width:1.5;"/>
   </g>
   <g id="patch_108">
    <path d="M 55.490865 137.71551 
L 55.490865 18.118365 
" style="fill:none;stroke:#000000;stroke-linecap:square;stroke-linejoin:miter;stroke-width:0.8;"/>
   </g>
   <g id="patch_109">
    <path d="M 228.27701 137.71551 
L 228.27701 18.118365 
" style="fill:none;stroke:#000000;stroke-linecap:square;stroke-linejoin:miter;stroke-width:0.8;"/>
   </g>
   <g id="patch_110">
    <path d="M 55.490865 137.71551 
L 228.27701 137.71551 
" style="fill:none;stroke:#000000;stroke-linecap:square;stroke-linejoin:miter;stroke-width:0.8;"/>
   </g>
   <g id="patch_111">
    <path d="M 55.490865 18.118365 
L 228.27701 18.118365 
" style="fill:none;stroke:#000000;stroke-linecap:square;stroke-linejoin:miter;stroke-width:0.8;"/>
   </g>
   <g id="text_11">
    <!-- Casos acumulados - MG -->
    <defs>
     <path id="DejaVuSans-32"/>
     <path d="M 48.78125 52.59375 
L 48.78125 44.1875 
Q 44.96875 46.296875 41.140625 47.34375 
Q 37.3125 48.390625 33.40625 48.390625 
Q 24.65625 48.390625 19.8125 42.84375 
Q 14.984375 37.3125 14.984375 27.296875 
Q 14.984375 17.28125 19.8125 11.734375 
Q 24.65625 6.203125 33.40625 6.203125 
Q 37.3125 6.203125 41.140625 7.25 
Q 44.96875 8.296875 48.78125 10.40625 
L 48.78125 2.09375 
Q 45.015625 0.34375 40.984375 -0.53125 
Q 36.96875 -1.421875 32.421875 -1.421875 
Q 20.0625 -1.421875 12.78125 6.34375 
Q 5.515625 14.109375 5.515625 27.296875 
Q 5.515625 40.671875 12.859375 48.328125 
Q 20.21875 56 33.015625 56 
Q 37.15625 56 41.109375 55.140625 
Q 45.0625 54.296875 48.78125 52.59375 
z
" id="DejaVuSans-99"/>
     <path d="M 8.5 21.578125 
L 8.5 54.6875 
L 17.484375 54.6875 
L 17.484375 21.921875 
Q 17.484375 14.15625 20.5 10.265625 
Q 23.53125 6.390625 29.59375 6.390625 
Q 36.859375 6.390625 41.078125 11.03125 
Q 45.3125 15.671875 45.3125 23.6875 
L 45.3125 54.6875 
L 54.296875 54.6875 
L 54.296875 0 
L 45.3125 0 
L 45.3125 8.40625 
Q 42.046875 3.421875 37.71875 1 
Q 33.40625 -1.421875 27.6875 -1.421875 
Q 18.265625 -1.421875 13.375 4.4375 
Q 8.5 10.296875 8.5 21.578125 
z
M 31.109375 56 
z
" id="DejaVuSans-117"/>
     <path d="M 52 44.1875 
Q 55.375 50.25 60.0625 53.125 
Q 64.75 56 71.09375 56 
Q 79.640625 56 84.28125 50.015625 
Q 88.921875 44.046875 88.921875 33.015625 
L 88.921875 0 
L 79.890625 0 
L 79.890625 32.71875 
Q 79.890625 40.578125 77.09375 44.375 
Q 74.3125 48.1875 68.609375 48.1875 
Q 61.625 48.1875 57.5625 43.546875 
Q 53.515625 38.921875 53.515625 30.90625 
L 53.515625 0 
L 44.484375 0 
L 44.484375 32.71875 
Q 44.484375 40.625 41.703125 44.40625 
Q 38.921875 48.1875 33.109375 48.1875 
Q 26.21875 48.1875 22.15625 43.53125 
Q 18.109375 38.875 18.109375 30.90625 
L 18.109375 0 
L 9.078125 0 
L 9.078125 54.6875 
L 18.109375 54.6875 
L 18.109375 46.1875 
Q 21.1875 51.21875 25.484375 53.609375 
Q 29.78125 56 35.6875 56 
Q 41.65625 56 45.828125 52.96875 
Q 50 49.953125 52 44.1875 
z
" id="DejaVuSans-109"/>
     <path d="M 9.421875 75.984375 
L 18.40625 75.984375 
L 18.40625 0 
L 9.421875 0 
z
" id="DejaVuSans-108"/>
     <path d="M 45.40625 46.390625 
L 45.40625 75.984375 
L 54.390625 75.984375 
L 54.390625 0 
L 45.40625 0 
L 45.40625 8.203125 
Q 42.578125 3.328125 38.25 0.953125 
Q 33.9375 -1.421875 27.875 -1.421875 
Q 17.96875 -1.421875 11.734375 6.484375 
Q 5.515625 14.40625 5.515625 27.296875 
Q 5.515625 40.1875 11.734375 48.09375 
Q 17.96875 56 27.875 56 
Q 33.9375 56 38.25 53.625 
Q 42.578125 51.265625 45.40625 46.390625 
z
M 14.796875 27.296875 
Q 14.796875 17.390625 18.875 11.75 
Q 22.953125 6.109375 30.078125 6.109375 
Q 37.203125 6.109375 41.296875 11.75 
Q 45.40625 17.390625 45.40625 27.296875 
Q 45.40625 37.203125 41.296875 42.84375 
Q 37.203125 48.484375 30.078125 48.484375 
Q 22.953125 48.484375 18.875 42.84375 
Q 14.796875 37.203125 14.796875 27.296875 
z
" id="DejaVuSans-100"/>
     <path d="M 4.890625 31.390625 
L 31.203125 31.390625 
L 31.203125 23.390625 
L 4.890625 23.390625 
z
" id="DejaVuSans-45"/>
     <path d="M 9.8125 72.90625 
L 24.515625 72.90625 
L 43.109375 23.296875 
L 61.8125 72.90625 
L 76.515625 72.90625 
L 76.515625 0 
L 66.890625 0 
L 66.890625 64.015625 
L 48.09375 14.015625 
L 38.1875 14.015625 
L 19.390625 64.015625 
L 19.390625 0 
L 9.8125 0 
z
" id="DejaVuSans-77"/>
     <path d="M 59.515625 10.40625 
L 59.515625 29.984375 
L 43.40625 29.984375 
L 43.40625 38.09375 
L 69.28125 38.09375 
L 69.28125 6.78125 
Q 63.578125 2.734375 56.6875 0.65625 
Q 49.8125 -1.421875 42 -1.421875 
Q 24.90625 -1.421875 15.25 8.5625 
Q 5.609375 18.5625 5.609375 36.375 
Q 5.609375 54.25 15.25 64.234375 
Q 24.90625 74.21875 42 74.21875 
Q 49.125 74.21875 55.546875 72.453125 
Q 61.96875 70.703125 67.390625 67.28125 
L 67.390625 56.78125 
Q 61.921875 61.421875 55.765625 63.765625 
Q 49.609375 66.109375 42.828125 66.109375 
Q 29.4375 66.109375 22.71875 58.640625 
Q 16.015625 51.171875 16.015625 36.375 
Q 16.015625 21.625 22.71875 14.15625 
Q 29.4375 6.6875 42.828125 6.6875 
Q 48.046875 6.6875 52.140625 7.59375 
Q 56.25 8.5 59.515625 10.40625 
z
" id="DejaVuSans-71"/>
    </defs>
    <g transform="translate(70.008625 12.118365)scale(0.12 -0.12)">
     <use xlink:href="#DejaVuSans-67"/>
     <use x="69.824219" xlink:href="#DejaVuSans-97"/>
     <use x="131.103516" xlink:href="#DejaVuSans-115"/>
     <use x="183.203125" xlink:href="#DejaVuSans-111"/>
     <use x="244.384766" xlink:href="#DejaVuSans-115"/>
     <use x="296.484375" xlink:href="#DejaVuSans-32"/>
     <use x="328.271484" xlink:href="#DejaVuSans-97"/>
     <use x="389.550781" xlink:href="#DejaVuSans-99"/>
     <use x="444.53125" xlink:href="#DejaVuSans-117"/>
     <use x="507.910156" xlink:href="#DejaVuSans-109"/>
     <use x="605.322266" xlink:href="#DejaVuSans-117"/>
     <use x="668.701172" xlink:href="#DejaVuSans-108"/>
     <use x="696.484375" xlink:href="#DejaVuSans-97"/>
     <use x="757.763672" xlink:href="#DejaVuSans-100"/>
     <use x="821.240234" xlink:href="#DejaVuSans-111"/>
     <use x="882.421875" xlink:href="#DejaVuSans-115"/>
     <use x="934.521484" xlink:href="#DejaVuSans-32"/>
     <use x="966.308594" xlink:href="#DejaVuSans-45"/>
     <use x="1002.392578" xlink:href="#DejaVuSans-32"/>
     <use x="1034.179688" xlink:href="#DejaVuSans-77"/>
     <use x="1120.458984" xlink:href="#DejaVuSans-71"/>
    </g>
   </g>
  </g>
  <g id="axes_2">
   <g id="patch_112">
    <path d="M 285.013615 137.71551 
L 457.79976 137.71551 
L 457.79976 18.118365 
L 285.013615 18.118365 
z
" style="fill:#ffffff;"/>
   </g>
   <g id="patch_113">
    <path clip-path="url(#p7db2a657e0)" d="M 292.867531 137.71551 
L 294.066602 137.71551 
L 294.066602 137.71551 
L 292.867531 137.71551 
z
" style="fill:#1f77b4;"/>
   </g>
   <g id="patch_114">
    <path clip-path="url(#p7db2a657e0)" d="M 294.36637 137.71551 
L 295.565441 137.71551 
L 295.565441 137.71551 
L 294.36637 137.71551 
z
" style="fill:#1f77b4;"/>
   </g>
   <g id="patch_115">
    <path clip-path="url(#p7db2a657e0)" d="M 295.865208 137.71551 
L 297.06428 137.71551 
L 297.06428 137.71551 
L 295.865208 137.71551 
z
" style="fill:#1f77b4;"/>
   </g>
   <g id="patch_116">
    <path clip-path="url(#p7db2a657e0)" d="M 297.364047 137.71551 
L 298.563118 137.71551 
L 298.563118 137.71551 
L 297.364047 137.71551 
z
" style="fill:#1f77b4;"/>
   </g>
   <g id="patch_117">
    <path clip-path="url(#p7db2a657e0)" d="M 298.862886 137.71551 
L 300.061957 137.71551 
L 300.061957 137.646812 
L 298.862886 137.646812 
z
" style="fill:#1f77b4;"/>
   </g>
   <g id="patch_118">
    <path clip-path="url(#p7db2a657e0)" d="M 300.361725 137.71551 
L 301.560796 137.71551 
L 301.560796 137.71551 
L 300.361725 137.71551 
z
" style="fill:#1f77b4;"/>
   </g>
   <g id="patch_119">
    <path clip-path="url(#p7db2a657e0)" d="M 301.860564 137.71551 
L 303.059635 137.71551 
L 303.059635 137.71551 
L 301.860564 137.71551 
z
" style="fill:#1f77b4;"/>
   </g>
   <g id="patch_120">
    <path clip-path="url(#p7db2a657e0)" d="M 303.359403 137.71551 
L 304.558474 137.71551 
L 304.558474 137.509415 
L 303.359403 137.509415 
z
" style="fill:#1f77b4;"/>
   </g>
   <g id="patch_121">
    <path clip-path="url(#p7db2a657e0)" d="M 304.858242 137.71551 
L 306.057313 137.71551 
L 306.057313 137.578113 
L 304.858242 137.578113 
z
" style="fill:#1f77b4;"/>
   </g>
   <g id="patch_122">
    <path clip-path="url(#p7db2a657e0)" d="M 306.357081 137.71551 
L 307.556152 137.71551 
L 307.556152 137.165922 
L 306.357081 137.165922 
z
" style="fill:#1f77b4;"/>
   </g>
   <g id="patch_123">
    <path clip-path="url(#p7db2a657e0)" d="M 307.855919 137.71551 
L 309.05499 137.71551 
L 309.05499 136.753732 
L 307.855919 136.753732 
z
" style="fill:#1f77b4;"/>
   </g>
   <g id="patch_124">
    <path clip-path="url(#p7db2a657e0)" d="M 309.354758 137.71551 
L 310.553829 137.71551 
L 310.553829 137.303319 
L 309.354758 137.303319 
z
" style="fill:#1f77b4;"/>
   </g>
   <g id="patch_125">
    <path clip-path="url(#p7db2a657e0)" d="M 310.853597 137.71551 
L 312.052668 137.71551 
L 312.052668 137.509415 
L 310.853597 137.509415 
z
" style="fill:#1f77b4;"/>
   </g>
   <g id="patch_126">
    <path clip-path="url(#p7db2a657e0)" d="M 312.352436 137.71551 
L 313.551507 137.71551 
L 313.551507 134.624079 
L 312.352436 134.624079 
z
" style="fill:#1f77b4;"/>
   </g>
   <g id="patch_127">
    <path clip-path="url(#p7db2a657e0)" d="M 313.851275 137.71551 
L 315.050346 137.71551 
L 315.050346 134.624079 
L 313.851275 134.624079 
z
" style="fill:#1f77b4;"/>
   </g>
   <g id="patch_128">
    <path clip-path="url(#p7db2a657e0)" d="M 315.350114 137.71551 
L 316.549185 137.71551 
L 316.549185 137.578113 
L 315.350114 137.578113 
z
" style="fill:#1f77b4;"/>
   </g>
   <g id="patch_129">
    <path clip-path="url(#p7db2a657e0)" d="M 316.848953 137.71551 
L 318.048024 137.71551 
L 318.048024 137.509415 
L 316.848953 137.509415 
z
" style="fill:#1f77b4;"/>
   </g>
   <g id="patch_130">
    <path clip-path="url(#p7db2a657e0)" d="M 318.347791 137.71551 
L 319.546863 137.71551 
L 319.546863 136.341541 
L 318.347791 136.341541 
z
" style="fill:#1f77b4;"/>
   </g>
   <g id="patch_131">
    <path clip-path="url(#p7db2a657e0)" d="M 319.84663 137.71551 
L 321.045701 137.71551 
L 321.045701 135.242366 
L 319.84663 135.242366 
z
" style="fill:#1f77b4;"/>
   </g>
   <g id="patch_132">
    <path clip-path="url(#p7db2a657e0)" d="M 321.345469 137.71551 
L 322.54454 137.71551 
L 322.54454 136.616335 
L 321.345469 136.616335 
z
" style="fill:#1f77b4;"/>
   </g>
   <g id="patch_133">
    <path clip-path="url(#p7db2a657e0)" d="M 322.844308 137.71551 
L 324.043379 137.71551 
L 324.043379 135.92935 
L 322.844308 135.92935 
z
" style="fill:#1f77b4;"/>
   </g>
   <g id="patch_134">
    <path clip-path="url(#p7db2a657e0)" d="M 324.343147 137.71551 
L 325.542218 137.71551 
L 325.542218 135.654556 
L 324.343147 135.654556 
z
" style="fill:#1f77b4;"/>
   </g>
   <g id="patch_135">
    <path clip-path="url(#p7db2a657e0)" d="M 325.841986 137.71551 
L 327.041057 137.71551 
L 327.041057 136.753732 
L 325.841986 136.753732 
z
" style="fill:#1f77b4;"/>
   </g>
   <g id="patch_136">
    <path clip-path="url(#p7db2a657e0)" d="M 327.340825 137.71551 
L 328.539896 137.71551 
L 328.539896 135.03627 
L 327.340825 135.03627 
z
" style="fill:#1f77b4;"/>
   </g>
   <g id="patch_137">
    <path clip-path="url(#p7db2a657e0)" d="M 328.839664 137.71551 
L 330.038735 137.71551 
L 330.038735 133.868396 
L 328.839664 133.868396 
z
" style="fill:#1f77b4;"/>
   </g>
   <g id="patch_138">
    <path clip-path="url(#p7db2a657e0)" d="M 330.338502 137.71551 
L 331.537574 137.71551 
L 331.537574 135.860652 
L 330.338502 135.860652 
z
" style="fill:#1f77b4;"/>
   </g>
   <g id="patch_139">
    <path clip-path="url(#p7db2a657e0)" d="M 331.837341 137.71551 
L 333.036412 137.71551 
L 333.036412 135.448461 
L 331.837341 135.448461 
z
" style="fill:#1f77b4;"/>
   </g>
   <g id="patch_140">
    <path clip-path="url(#p7db2a657e0)" d="M 333.33618 137.71551 
L 334.535251 137.71551 
L 334.535251 133.044015 
L 333.33618 133.044015 
z
" style="fill:#1f77b4;"/>
   </g>
   <g id="patch_141">
    <path clip-path="url(#p7db2a657e0)" d="M 334.835019 137.71551 
L 336.03409 137.71551 
L 336.03409 135.860652 
L 334.835019 135.860652 
z
" style="fill:#1f77b4;"/>
   </g>
   <g id="patch_142">
    <path clip-path="url(#p7db2a657e0)" d="M 336.333858 137.71551 
L 337.532929 137.71551 
L 337.532929 135.379762 
L 336.333858 135.379762 
z
" style="fill:#1f77b4;"/>
   </g>
   <g id="patch_143">
    <path clip-path="url(#p7db2a657e0)" d="M 337.832697 137.71551 
L 339.031768 137.71551 
L 339.031768 133.937095 
L 337.832697 133.937095 
z
" style="fill:#1f77b4;"/>
   </g>
   <g id="patch_144">
    <path clip-path="url(#p7db2a657e0)" d="M 339.331536 137.71551 
L 340.530607 137.71551 
L 340.530607 134.898873 
L 339.331536 134.898873 
z
" style="fill:#1f77b4;"/>
   </g>
   <g id="patch_145">
    <path clip-path="url(#p7db2a657e0)" d="M 340.830375 137.71551 
L 342.029446 137.71551 
L 342.029446 134.761476 
L 340.830375 134.761476 
z
" style="fill:#1f77b4;"/>
   </g>
   <g id="patch_146">
    <path clip-path="url(#p7db2a657e0)" d="M 342.329213 137.71551 
L 343.528285 137.71551 
L 343.528285 134.14319 
L 342.329213 134.14319 
z
" style="fill:#1f77b4;"/>
   </g>
   <g id="patch_147">
    <path clip-path="url(#p7db2a657e0)" d="M 343.828052 137.71551 
L 345.027123 137.71551 
L 345.027123 133.868396 
L 343.828052 133.868396 
z
" style="fill:#1f77b4;"/>
   </g>
   <g id="patch_148">
    <path clip-path="url(#p7db2a657e0)" d="M 345.326891 137.71551 
L 346.525962 137.71551 
L 346.525962 137.097224 
L 345.326891 137.097224 
z
" style="fill:#1f77b4;"/>
   </g>
   <g id="patch_149">
    <path clip-path="url(#p7db2a657e0)" d="M 346.82573 137.71551 
L 348.024801 137.71551 
L 348.024801 132.975316 
L 346.82573 132.975316 
z
" style="fill:#1f77b4;"/>
   </g>
   <g id="patch_150">
    <path clip-path="url(#p7db2a657e0)" d="M 348.324569 137.71551 
L 349.52364 137.71551 
L 349.52364 136.410239 
L 348.324569 136.410239 
z
" style="fill:#1f77b4;"/>
   </g>
   <g id="patch_151">
    <path clip-path="url(#p7db2a657e0)" d="M 349.823408 137.71551 
L 351.022479 137.71551 
L 351.022479 133.937095 
L 349.823408 133.937095 
z
" style="fill:#1f77b4;"/>
   </g>
   <g id="patch_152">
    <path clip-path="url(#p7db2a657e0)" d="M 351.322247 137.71551 
L 352.521318 137.71551 
L 352.521318 133.387507 
L 351.322247 133.387507 
z
" style="fill:#1f77b4;"/>
   </g>
   <g id="patch_153">
    <path clip-path="url(#p7db2a657e0)" d="M 352.821086 137.71551 
L 354.020157 137.71551 
L 354.020157 133.868396 
L 352.821086 133.868396 
z
" style="fill:#1f77b4;"/>
   </g>
   <g id="patch_154">
    <path clip-path="url(#p7db2a657e0)" d="M 354.319924 137.71551 
L 355.518995 137.71551 
L 355.518995 132.425729 
L 354.319924 132.425729 
z
" style="fill:#1f77b4;"/>
   </g>
   <g id="patch_155">
    <path clip-path="url(#p7db2a657e0)" d="M 355.818763 137.71551 
L 357.017834 137.71551 
L 357.017834 135.311064 
L 355.818763 135.311064 
z
" style="fill:#1f77b4;"/>
   </g>
   <g id="patch_156">
    <path clip-path="url(#p7db2a657e0)" d="M 357.317602 137.71551 
L 358.516673 137.71551 
L 358.516673 134.898873 
L 357.317602 134.898873 
z
" style="fill:#1f77b4;"/>
   </g>
   <g id="patch_157">
    <path clip-path="url(#p7db2a657e0)" d="M 358.816441 137.71551 
L 360.015512 137.71551 
L 360.015512 134.074492 
L 358.816441 134.074492 
z
" style="fill:#1f77b4;"/>
   </g>
   <g id="patch_158">
    <path clip-path="url(#p7db2a657e0)" d="M 360.31528 137.71551 
L 361.514351 137.71551 
L 361.514351 135.998049 
L 360.31528 135.998049 
z
" style="fill:#1f77b4;"/>
   </g>
   <g id="patch_159">
    <path clip-path="url(#p7db2a657e0)" d="M 361.814119 137.71551 
L 363.01319 137.71551 
L 363.01319 130.089981 
L 361.814119 130.089981 
z
" style="fill:#1f77b4;"/>
   </g>
   <g id="patch_160">
    <path clip-path="url(#p7db2a657e0)" d="M 363.312958 137.71551 
L 364.512029 137.71551 
L 364.512029 133.456206 
L 363.312958 133.456206 
z
" style="fill:#1f77b4;"/>
   </g>
   <g id="patch_161">
    <path clip-path="url(#p7db2a657e0)" d="M 364.811796 137.71551 
L 366.010868 137.71551 
L 366.010868 133.112713 
L 364.811796 133.112713 
z
" style="fill:#1f77b4;"/>
   </g>
   <g id="patch_162">
    <path clip-path="url(#p7db2a657e0)" d="M 366.310635 137.71551 
L 367.509706 137.71551 
L 367.509706 135.104969 
L 366.310635 135.104969 
z
" style="fill:#1f77b4;"/>
   </g>
   <g id="patch_163">
    <path clip-path="url(#p7db2a657e0)" d="M 367.809474 137.71551 
L 369.008545 137.71551 
L 369.008545 133.387507 
L 367.809474 133.387507 
z
" style="fill:#1f77b4;"/>
   </g>
   <g id="patch_164">
    <path clip-path="url(#p7db2a657e0)" d="M 369.308313 137.71551 
L 370.507384 137.71551 
L 370.507384 130.227378 
L 369.308313 130.227378 
z
" style="fill:#1f77b4;"/>
   </g>
   <g id="patch_165">
    <path clip-path="url(#p7db2a657e0)" d="M 370.807152 137.71551 
L 372.006223 137.71551 
L 372.006223 132.975316 
L 370.807152 132.975316 
z
" style="fill:#1f77b4;"/>
   </g>
   <g id="patch_166">
    <path clip-path="url(#p7db2a657e0)" d="M 372.305991 137.71551 
L 373.505062 137.71551 
L 373.505062 130.296077 
L 372.305991 130.296077 
z
" style="fill:#1f77b4;"/>
   </g>
   <g id="patch_167">
    <path clip-path="url(#p7db2a657e0)" d="M 373.80483 137.71551 
L 375.003901 137.71551 
L 375.003901 131.670046 
L 373.80483 131.670046 
z
" style="fill:#1f77b4;"/>
   </g>
   <g id="patch_168">
    <path clip-path="url(#p7db2a657e0)" d="M 375.303669 137.71551 
L 376.50274 137.71551 
L 376.50274 131.189157 
L 375.303669 131.189157 
z
" style="fill:#1f77b4;"/>
   </g>
   <g id="patch_169">
    <path clip-path="url(#p7db2a657e0)" d="M 376.802507 137.71551 
L 378.001579 137.71551 
L 378.001579 121.983563 
L 376.802507 121.983563 
z
" style="fill:#1f77b4;"/>
   </g>
   <g id="patch_170">
    <path clip-path="url(#p7db2a657e0)" d="M 378.301346 137.71551 
L 379.500417 137.71551 
L 379.500417 130.502172 
L 378.301346 130.502172 
z
" style="fill:#1f77b4;"/>
   </g>
   <g id="patch_171">
    <path clip-path="url(#p7db2a657e0)" d="M 379.800185 137.71551 
L 380.999256 137.71551 
L 380.999256 127.204646 
L 379.800185 127.204646 
z
" style="fill:#1f77b4;"/>
   </g>
   <g id="patch_172">
    <path clip-path="url(#p7db2a657e0)" d="M 381.299024 137.71551 
L 382.498095 137.71551 
L 382.498095 126.380264 
L 381.299024 126.380264 
z
" style="fill:#1f77b4;"/>
   </g>
   <g id="patch_173">
    <path clip-path="url(#p7db2a657e0)" d="M 382.797863 137.71551 
L 383.996934 137.71551 
L 383.996934 125.830677 
L 382.797863 125.830677 
z
" style="fill:#1f77b4;"/>
   </g>
   <g id="patch_174">
    <path clip-path="url(#p7db2a657e0)" d="M 384.296702 137.71551 
L 385.495773 137.71551 
L 385.495773 125.349788 
L 384.296702 125.349788 
z
" style="fill:#1f77b4;"/>
   </g>
   <g id="patch_175">
    <path clip-path="url(#p7db2a657e0)" d="M 385.795541 137.71551 
L 386.994612 137.71551 
L 386.994612 129.883886 
L 385.795541 129.883886 
z
" style="fill:#1f77b4;"/>
   </g>
   <g id="patch_176">
    <path clip-path="url(#p7db2a657e0)" d="M 387.29438 137.71551 
L 388.493451 137.71551 
L 388.493451 132.013538 
L 387.29438 132.013538 
z
" style="fill:#1f77b4;"/>
   </g>
   <g id="patch_177">
    <path clip-path="url(#p7db2a657e0)" d="M 388.793218 137.71551 
L 389.992289 137.71551 
L 389.992289 129.815187 
L 388.793218 129.815187 
z
" style="fill:#1f77b4;"/>
   </g>
   <g id="patch_178">
    <path clip-path="url(#p7db2a657e0)" d="M 390.292057 137.71551 
L 391.491128 137.71551 
L 391.491128 117.24337 
L 390.292057 117.24337 
z
" style="fill:#1f77b4;"/>
   </g>
   <g id="patch_179">
    <path clip-path="url(#p7db2a657e0)" d="M 391.790896 137.71551 
L 392.989967 137.71551 
L 392.989967 122.807945 
L 391.790896 122.807945 
z
" style="fill:#1f77b4;"/>
   </g>
   <g id="patch_180">
    <path clip-path="url(#p7db2a657e0)" d="M 393.289735 137.71551 
L 394.488806 137.71551 
L 394.488806 120.815689 
L 393.289735 120.815689 
z
" style="fill:#1f77b4;"/>
   </g>
   <g id="patch_181">
    <path clip-path="url(#p7db2a657e0)" d="M 394.788574 137.71551 
L 395.987645 137.71551 
L 395.987645 118.617339 
L 394.788574 118.617339 
z
" style="fill:#1f77b4;"/>
   </g>
   <g id="patch_182">
    <path clip-path="url(#p7db2a657e0)" d="M 396.287413 137.71551 
L 397.486484 137.71551 
L 397.486484 128.303821 
L 396.287413 128.303821 
z
" style="fill:#1f77b4;"/>
   </g>
   <g id="patch_183">
    <path clip-path="url(#p7db2a657e0)" d="M 397.786252 137.71551 
L 398.985323 137.71551 
L 398.985323 131.94484 
L 397.786252 131.94484 
z
" style="fill:#1f77b4;"/>
   </g>
   <g id="patch_184">
    <path clip-path="url(#p7db2a657e0)" d="M 399.28509 137.71551 
L 400.484162 137.71551 
L 400.484162 118.342545 
L 399.28509 118.342545 
z
" style="fill:#1f77b4;"/>
   </g>
   <g id="patch_185">
    <path clip-path="url(#p7db2a657e0)" d="M 400.783929 137.71551 
L 401.983 137.71551 
L 401.983 116.487687 
L 400.783929 116.487687 
z
" style="fill:#1f77b4;"/>
   </g>
   <g id="patch_186">
    <path clip-path="url(#p7db2a657e0)" d="M 402.282768 137.71551 
L 403.481839 137.71551 
L 403.481839 116.418988 
L 402.282768 116.418988 
z
" style="fill:#1f77b4;"/>
   </g>
   <g id="patch_187">
    <path clip-path="url(#p7db2a657e0)" d="M 403.781607 137.71551 
L 404.980678 137.71551 
L 404.980678 110.304825 
L 403.781607 110.304825 
z
" style="fill:#1f77b4;"/>
   </g>
   <g id="patch_188">
    <path clip-path="url(#p7db2a657e0)" d="M 405.280446 137.71551 
L 406.479517 137.71551 
L 406.479517 114.151939 
L 405.280446 114.151939 
z
" style="fill:#1f77b4;"/>
   </g>
   <g id="patch_189">
    <path clip-path="url(#p7db2a657e0)" d="M 406.779285 137.71551 
L 407.978356 137.71551 
L 407.978356 115.045019 
L 406.779285 115.045019 
z
" style="fill:#1f77b4;"/>
   </g>
   <g id="patch_190">
    <path clip-path="url(#p7db2a657e0)" d="M 408.278124 137.71551 
L 409.477195 137.71551 
L 409.477195 117.518163 
L 408.278124 117.518163 
z
" style="fill:#1f77b4;"/>
   </g>
   <g id="patch_191">
    <path clip-path="url(#p7db2a657e0)" d="M 409.776963 137.71551 
L 410.976034 137.71551 
L 410.976034 99.656564 
L 409.776963 99.656564 
z
" style="fill:#1f77b4;"/>
   </g>
   <g id="patch_192">
    <path clip-path="url(#p7db2a657e0)" d="M 411.275801 137.71551 
L 412.474873 137.71551 
L 412.474873 103.709773 
L 411.275801 103.709773 
z
" style="fill:#1f77b4;"/>
   </g>
   <g id="patch_193">
    <path clip-path="url(#p7db2a657e0)" d="M 412.77464 137.71551 
L 413.973711 137.71551 
L 413.973711 91.344051 
L 412.77464 91.344051 
z
" style="fill:#1f77b4;"/>
   </g>
   <g id="patch_194">
    <path clip-path="url(#p7db2a657e0)" d="M 414.273479 137.71551 
L 415.47255 137.71551 
L 415.47255 100.206152 
L 414.273479 100.206152 
z
" style="fill:#1f77b4;"/>
   </g>
   <g id="patch_195">
    <path clip-path="url(#p7db2a657e0)" d="M 415.772318 137.71551 
L 416.971389 137.71551 
L 416.971389 110.373524 
L 415.772318 110.373524 
z
" style="fill:#1f77b4;"/>
   </g>
   <g id="patch_196">
    <path clip-path="url(#p7db2a657e0)" d="M 417.271157 137.71551 
L 418.470228 137.71551 
L 418.470228 80.420996 
L 417.271157 80.420996 
z
" style="fill:#1f77b4;"/>
   </g>
   <g id="patch_197">
    <path clip-path="url(#p7db2a657e0)" d="M 418.769996 137.71551 
L 419.969067 137.71551 
L 419.969067 123.563628 
L 418.769996 123.563628 
z
" style="fill:#1f77b4;"/>
   </g>
   <g id="patch_198">
    <path clip-path="url(#p7db2a657e0)" d="M 420.268835 137.71551 
L 421.467906 137.71551 
L 421.467906 119.235625 
L 420.268835 119.235625 
z
" style="fill:#1f77b4;"/>
   </g>
   <g id="patch_199">
    <path clip-path="url(#p7db2a657e0)" d="M 421.767674 137.71551 
L 422.966745 137.71551 
L 422.966745 64.139462 
L 421.767674 64.139462 
z
" style="fill:#1f77b4;"/>
   </g>
   <g id="patch_200">
    <path clip-path="url(#p7db2a657e0)" d="M 423.266512 137.71551 
L 424.465584 137.71551 
L 424.465584 67.368289 
L 423.266512 67.368289 
z
" style="fill:#1f77b4;"/>
   </g>
   <g id="patch_201">
    <path clip-path="url(#p7db2a657e0)" d="M 424.765351 137.71551 
L 425.964422 137.71551 
L 425.964422 71.696292 
L 424.765351 71.696292 
z
" style="fill:#1f77b4;"/>
   </g>
   <g id="patch_202">
    <path clip-path="url(#p7db2a657e0)" d="M 426.26419 137.71551 
L 427.463261 137.71551 
L 427.463261 72.864166 
L 426.26419 72.864166 
z
" style="fill:#1f77b4;"/>
   </g>
   <g id="patch_203">
    <path clip-path="url(#p7db2a657e0)" d="M 427.763029 137.71551 
L 428.9621 137.71551 
L 428.9621 85.229888 
L 427.763029 85.229888 
z
" style="fill:#1f77b4;"/>
   </g>
   <g id="patch_204">
    <path clip-path="url(#p7db2a657e0)" d="M 429.261868 137.71551 
L 430.460939 137.71551 
L 430.460939 125.349788 
L 429.261868 125.349788 
z
" style="fill:#1f77b4;"/>
   </g>
   <g id="patch_205">
    <path clip-path="url(#p7db2a657e0)" d="M 430.760707 137.71551 
L 431.959778 137.71551 
L 431.959778 122.670548 
L 430.760707 122.670548 
z
" style="fill:#1f77b4;"/>
   </g>
   <g id="patch_206">
    <path clip-path="url(#p7db2a657e0)" d="M 432.259546 137.71551 
L 433.458617 137.71551 
L 433.458617 41.606368 
L 432.259546 41.606368 
z
" style="fill:#1f77b4;"/>
   </g>
   <g id="patch_207">
    <path clip-path="url(#p7db2a657e0)" d="M 433.758385 137.71551 
L 434.957456 137.71551 
L 434.957456 72.658071 
L 433.758385 72.658071 
z
" style="fill:#1f77b4;"/>
   </g>
   <g id="patch_208">
    <path clip-path="url(#p7db2a657e0)" d="M 435.257223 137.71551 
L 436.456294 137.71551 
L 436.456294 23.813467 
L 435.257223 23.813467 
z
" style="fill:#1f77b4;"/>
   </g>
   <g id="patch_209">
    <path clip-path="url(#p7db2a657e0)" d="M 436.756062 137.71551 
L 437.955133 137.71551 
L 437.955133 102.816693 
L 436.756062 102.816693 
z
" style="fill:#1f77b4;"/>
   </g>
   <g id="patch_210">
    <path clip-path="url(#p7db2a657e0)" d="M 438.254901 137.71551 
L 439.453972 137.71551 
L 439.453972 85.023793 
L 438.254901 85.023793 
z
" style="fill:#1f77b4;"/>
   </g>
   <g id="patch_211">
    <path clip-path="url(#p7db2a657e0)" d="M 439.75374 137.71551 
L 440.952811 137.71551 
L 440.952811 113.877145 
L 439.75374 113.877145 
z
" style="fill:#1f77b4;"/>
   </g>
   <g id="patch_212">
    <path clip-path="url(#p7db2a657e0)" d="M 441.252579 137.71551 
L 442.45165 137.71551 
L 442.45165 117.380767 
L 441.252579 117.380767 
z
" style="fill:#1f77b4;"/>
   </g>
   <g id="patch_213">
    <path clip-path="url(#p7db2a657e0)" d="M 442.751418 137.71551 
L 443.950489 137.71551 
L 443.950489 46.82745 
L 442.751418 46.82745 
z
" style="fill:#1f77b4;"/>
   </g>
   <g id="patch_214">
    <path clip-path="url(#p7db2a657e0)" d="M 444.250257 137.71551 
L 445.449328 137.71551 
L 445.449328 30.614614 
L 444.250257 30.614614 
z
" style="fill:#1f77b4;"/>
   </g>
   <g id="patch_215">
    <path clip-path="url(#p7db2a657e0)" d="M 445.749095 137.71551 
L 446.948167 137.71551 
L 446.948167 58.987077 
L 445.749095 58.987077 
z
" style="fill:#1f77b4;"/>
   </g>
   <g id="patch_216">
    <path clip-path="url(#p7db2a657e0)" d="M 447.247934 137.71551 
L 448.447005 137.71551 
L 448.447005 51.636343 
L 447.247934 51.636343 
z
" style="fill:#1f77b4;"/>
   </g>
   <g id="patch_217">
    <path clip-path="url(#p7db2a657e0)" d="M 448.746773 137.71551 
L 449.945844 137.71551 
L 449.945844 114.632828 
L 448.746773 114.632828 
z
" style="fill:#1f77b4;"/>
   </g>
   <g id="matplotlib.axis_3">
    <g id="xtick_6">
     <g id="line2d_10">
      <g>
       <use style="stroke:#000000;stroke-width:0.8;" x="293.467066" xlink:href="#m76372f1584" y="137.71551"/>
      </g>
     </g>
     <g id="text_12">
      <!-- 0 -->
      <g transform="translate(290.285816 152.313947)scale(0.1 -0.1)">
       <use xlink:href="#DejaVuSans-48"/>
      </g>
     </g>
    </g>
    <g id="xtick_7">
     <g id="line2d_11">
      <g>
       <use style="stroke:#000000;stroke-width:0.8;" x="330.938038" xlink:href="#m76372f1584" y="137.71551"/>
      </g>
     </g>
     <g id="text_13">
      <!-- 25 -->
      <g transform="translate(324.575538 152.313947)scale(0.1 -0.1)">
       <use xlink:href="#DejaVuSans-50"/>
       <use x="63.623047" xlink:href="#DejaVuSans-53"/>
      </g>
     </g>
    </g>
    <g id="xtick_8">
     <g id="line2d_12">
      <g>
       <use style="stroke:#000000;stroke-width:0.8;" x="368.40901" xlink:href="#m76372f1584" y="137.71551"/>
      </g>
     </g>
     <g id="text_14">
      <!-- 50 -->
      <g transform="translate(362.04651 152.313947)scale(0.1 -0.1)">
       <use xlink:href="#DejaVuSans-53"/>
       <use x="63.623047" xlink:href="#DejaVuSans-48"/>
      </g>
     </g>
    </g>
    <g id="xtick_9">
     <g id="line2d_13">
      <g>
       <use style="stroke:#000000;stroke-width:0.8;" x="405.879982" xlink:href="#m76372f1584" y="137.71551"/>
      </g>
     </g>
     <g id="text_15">
      <!-- 75 -->
      <g transform="translate(399.517482 152.313947)scale(0.1 -0.1)">
       <use xlink:href="#DejaVuSans-55"/>
       <use x="63.623047" xlink:href="#DejaVuSans-53"/>
      </g>
     </g>
    </g>
    <g id="xtick_10">
     <g id="line2d_14">
      <g>
       <use style="stroke:#000000;stroke-width:0.8;" x="443.350953" xlink:href="#m76372f1584" y="137.71551"/>
      </g>
     </g>
     <g id="text_16">
      <!-- 100 -->
      <g transform="translate(433.807203 152.313947)scale(0.1 -0.1)">
       <use xlink:href="#DejaVuSans-49"/>
       <use x="63.623047" xlink:href="#DejaVuSans-48"/>
       <use x="127.246094" xlink:href="#DejaVuSans-48"/>
      </g>
     </g>
    </g>
    <g id="text_17">
     <!-- Dias -->
     <g transform="translate(360.498875 165.992072)scale(0.1 -0.1)">
      <use xlink:href="#DejaVuSans-68"/>
      <use x="77.001953" xlink:href="#DejaVuSans-105"/>
      <use x="104.785156" xlink:href="#DejaVuSans-97"/>
      <use x="166.064453" xlink:href="#DejaVuSans-115"/>
     </g>
    </g>
   </g>
   <g id="matplotlib.axis_4">
    <g id="ytick_4">
     <g id="line2d_15">
      <g>
       <use style="stroke:#000000;stroke-width:0.8;" x="285.013615" xlink:href="#mb5b23eac2b" y="137.71551"/>
      </g>
     </g>
     <g id="text_18">
      <!-- 0 -->
      <g transform="translate(271.651115 141.514729)scale(0.1 -0.1)">
       <use xlink:href="#DejaVuSans-48"/>
      </g>
     </g>
    </g>
    <g id="ytick_5">
     <g id="line2d_16">
      <g>
       <use style="stroke:#000000;stroke-width:0.8;" x="285.013615" xlink:href="#mb5b23eac2b" y="103.366281"/>
      </g>
     </g>
     <g id="text_19">
      <!-- 500 -->
      <g transform="translate(258.926115 107.1655)scale(0.1 -0.1)">
       <use xlink:href="#DejaVuSans-53"/>
       <use x="63.623047" xlink:href="#DejaVuSans-48"/>
       <use x="127.246094" xlink:href="#DejaVuSans-48"/>
      </g>
     </g>
    </g>
    <g id="ytick_6">
     <g id="line2d_17">
      <g>
       <use style="stroke:#000000;stroke-width:0.8;" x="285.013615" xlink:href="#mb5b23eac2b" y="69.017052"/>
      </g>
     </g>
     <g id="text_20">
      <!-- 1000 -->
      <g transform="translate(252.563615 72.816271)scale(0.1 -0.1)">
       <use xlink:href="#DejaVuSans-49"/>
       <use x="63.623047" xlink:href="#DejaVuSans-48"/>
       <use x="127.246094" xlink:href="#DejaVuSans-48"/>
       <use x="190.869141" xlink:href="#DejaVuSans-48"/>
      </g>
     </g>
    </g>
    <g id="ytick_7">
     <g id="line2d_18">
      <g>
       <use style="stroke:#000000;stroke-width:0.8;" x="285.013615" xlink:href="#mb5b23eac2b" y="34.667823"/>
      </g>
     </g>
     <g id="text_21">
      <!-- 1500 -->
      <g transform="translate(252.563615 38.467042)scale(0.1 -0.1)">
       <use xlink:href="#DejaVuSans-49"/>
       <use x="63.623047" xlink:href="#DejaVuSans-53"/>
       <use x="127.246094" xlink:href="#DejaVuSans-48"/>
       <use x="190.869141" xlink:href="#DejaVuSans-48"/>
      </g>
     </g>
    </g>
    <g id="text_22">
     <!-- Novos casos -->
     <defs>
      <path d="M 9.8125 72.90625 
L 23.09375 72.90625 
L 55.421875 11.921875 
L 55.421875 72.90625 
L 64.984375 72.90625 
L 64.984375 0 
L 51.703125 0 
L 19.390625 60.984375 
L 19.390625 0 
L 9.8125 0 
z
" id="DejaVuSans-78"/>
      <path d="M 2.984375 54.6875 
L 12.5 54.6875 
L 29.59375 8.796875 
L 46.6875 54.6875 
L 56.203125 54.6875 
L 35.6875 0 
L 23.484375 0 
z
" id="DejaVuSans-118"/>
     </defs>
     <g transform="translate(246.483928 109.011469)rotate(-90)scale(0.1 -0.1)">
      <use xlink:href="#DejaVuSans-78"/>
      <use x="74.804688" xlink:href="#DejaVuSans-111"/>
      <use x="135.986328" xlink:href="#DejaVuSans-118"/>
      <use x="195.166016" xlink:href="#DejaVuSans-111"/>
      <use x="256.347656" xlink:href="#DejaVuSans-115"/>
      <use x="308.447266" xlink:href="#DejaVuSans-32"/>
      <use x="340.234375" xlink:href="#DejaVuSans-99"/>
      <use x="395.214844" xlink:href="#DejaVuSans-97"/>
      <use x="456.494141" xlink:href="#DejaVuSans-115"/>
      <use x="508.59375" xlink:href="#DejaVuSans-111"/>
      <use x="569.775391" xlink:href="#DejaVuSans-115"/>
     </g>
    </g>
   </g>
   <g id="line2d_19">
    <path clip-path="url(#p7db2a657e0)" d="M 293.467066 137.692963 
L 294.965905 137.677885 
L 296.464744 137.653936 
L 297.963583 137.619115 
L 299.462422 137.570502 
L 300.961261 137.506897 
L 302.460099 137.42661 
L 303.958938 137.327668 
L 305.457777 137.212704 
L 306.956616 137.088125 
L 308.455455 136.959827 
L 309.954294 136.831586 
L 311.453133 136.705462 
L 312.951972 136.585948 
L 314.45081 136.477908 
L 315.949649 136.379481 
L 317.448488 136.284087 
L 318.947327 136.18566 
L 320.446166 136.081425 
L 321.945005 135.972011 
L 323.443844 135.854386 
L 324.942683 135.725401 
L 326.441521 135.588776 
L 327.94036 135.450979 
L 329.439199 135.31816 
L 330.938038 135.195641 
L 332.436877 135.084139 
L 333.935716 134.986799 
L 335.434555 134.907199 
L 336.933393 134.843136 
L 338.432232 134.789946 
L 339.931071 134.745396 
L 341.42991 134.702849 
L 342.928749 134.660045 
L 344.427588 134.613436 
L 345.926427 134.5585 
L 347.425266 134.495037 
L 348.924104 134.426453 
L 350.422943 134.350688 
L 351.921782 134.270544 
L 353.420621 134.183362 
L 354.91946 134.089427 
L 356.418299 133.988998 
L 357.917138 133.878525 
L 359.415977 133.746507 
L 360.914815 133.585534 
L 362.413654 133.387793 
L 363.912493 133.14948 
L 365.411332 132.861124 
L 366.910171 132.512453 
L 368.40901 132.096514 
L 369.907849 131.627413 
L 371.406688 131.119886 
L 372.905526 130.584461 
L 374.404365 130.033786 
L 375.903204 129.485629 
L 377.402043 128.960791 
L 378.900882 128.478357 
L 380.399721 128.028541 
L 381.89856 127.594662 
L 383.397398 127.169996 
L 384.896237 126.742641 
L 386.395076 126.296916 
L 387.893915 125.816542 
L 389.392754 125.28086 
L 390.891593 124.681287 
L 392.390432 124.016133 
L 393.889271 123.268147 
L 395.388109 122.415897 
L 396.886948 121.442473 
L 398.385787 120.329192 
L 399.884626 119.058085 
L 401.383465 117.627463 
L 402.882304 116.053092 
L 404.381143 114.353428 
L 405.879982 112.561774 
L 407.37882 110.701136 
L 408.877659 108.780841 
L 410.376498 106.839573 
L 411.875337 104.89121 
L 413.374176 102.908024 
L 414.873015 100.886699 
L 416.371854 98.827405 
L 417.870692 96.737753 
L 419.369531 94.681835 
L 420.86837 92.679908 
L 422.367209 90.758784 
L 423.866048 88.971021 
L 425.364887 87.355392 
L 426.863726 85.90703 
L 428.362565 84.664135 
L 429.861403 83.560868 
L 431.360242 82.564411 
L 432.859081 81.633134 
L 434.35792 80.700769 
L 435.856759 79.711093 
L 437.355598 78.676153 
L 438.854437 77.488708 
L 440.353276 76.186756 
L 441.852114 74.859941 
L 443.350953 73.500421 
L 444.849792 72.196638 
L 446.348631 71.382357 
L 447.84747 70.584585 
L 449.346309 69.917514 
" style="fill:none;stroke:#ff0000;stroke-linecap:square;stroke-width:1.5;"/>
   </g>
   <g id="patch_218">
    <path d="M 285.013615 137.71551 
L 285.013615 18.118365 
" style="fill:none;stroke:#000000;stroke-linecap:square;stroke-linejoin:miter;stroke-width:0.8;"/>
   </g>
   <g id="patch_219">
    <path d="M 457.79976 137.71551 
L 457.79976 18.118365 
" style="fill:none;stroke:#000000;stroke-linecap:square;stroke-linejoin:miter;stroke-width:0.8;"/>
   </g>
   <g id="patch_220">
    <path d="M 285.013615 137.71551 
L 457.79976 137.71551 
" style="fill:none;stroke:#000000;stroke-linecap:square;stroke-linejoin:miter;stroke-width:0.8;"/>
   </g>
   <g id="patch_221">
    <path d="M 285.013615 18.118365 
L 457.79976 18.118365 
" style="fill:none;stroke:#000000;stroke-linecap:square;stroke-linejoin:miter;stroke-width:0.8;"/>
   </g>
   <g id="text_23">
    <!-- Casos novos - MG -->
    <defs>
     <path d="M 54.890625 33.015625 
L 54.890625 0 
L 45.90625 0 
L 45.90625 32.71875 
Q 45.90625 40.484375 42.875 44.328125 
Q 39.84375 48.1875 33.796875 48.1875 
Q 26.515625 48.1875 22.3125 43.546875 
Q 18.109375 38.921875 18.109375 30.90625 
L 18.109375 0 
L 9.078125 0 
L 9.078125 54.6875 
L 18.109375 54.6875 
L 18.109375 46.1875 
Q 21.34375 51.125 25.703125 53.5625 
Q 30.078125 56 35.796875 56 
Q 45.21875 56 50.046875 50.171875 
Q 54.890625 44.34375 54.890625 33.015625 
z
" id="DejaVuSans-110"/>
    </defs>
    <g transform="translate(318.0845 12.118365)scale(0.12 -0.12)">
     <use xlink:href="#DejaVuSans-67"/>
     <use x="69.824219" xlink:href="#DejaVuSans-97"/>
     <use x="131.103516" xlink:href="#DejaVuSans-115"/>
     <use x="183.203125" xlink:href="#DejaVuSans-111"/>
     <use x="244.384766" xlink:href="#DejaVuSans-115"/>
     <use x="296.484375" xlink:href="#DejaVuSans-32"/>
     <use x="328.271484" xlink:href="#DejaVuSans-110"/>
     <use x="391.650391" xlink:href="#DejaVuSans-111"/>
     <use x="452.832031" xlink:href="#DejaVuSans-118"/>
     <use x="512.011719" xlink:href="#DejaVuSans-111"/>
     <use x="573.193359" xlink:href="#DejaVuSans-115"/>
     <use x="625.292969" xlink:href="#DejaVuSans-32"/>
     <use x="657.080078" xlink:href="#DejaVuSans-45"/>
     <use x="693.164062" xlink:href="#DejaVuSans-32"/>
     <use x="724.951172" xlink:href="#DejaVuSans-77"/>
     <use x="811.230469" xlink:href="#DejaVuSans-71"/>
    </g>
   </g>
  </g>
  <g id="axes_3">
   <g id="patch_222">
    <path d="M 55.490865 312.24351 
L 457.79976 312.24351 
L 457.79976 192.646365 
L 55.490865 192.646365 
z
" style="fill:#ffffff;"/>
   </g>
   <g id="matplotlib.axis_5">
    <g id="xtick_11">
     <g id="line2d_20">
      <g>
       <use style="stroke:#000000;stroke-width:0.8;" x="73.777633" xlink:href="#m76372f1584" y="312.24351"/>
      </g>
     </g>
     <g id="text_24">
      <!-- 0 -->
      <g transform="translate(70.596383 326.841947)scale(0.1 -0.1)">
       <use xlink:href="#DejaVuSans-48"/>
      </g>
     </g>
    </g>
    <g id="xtick_12">
     <g id="line2d_21">
      <g>
       <use style="stroke:#000000;stroke-width:0.8;" x="144.111356" xlink:href="#m76372f1584" y="312.24351"/>
      </g>
     </g>
     <g id="text_25">
      <!-- 20 -->
      <g transform="translate(137.748856 326.841947)scale(0.1 -0.1)">
       <use xlink:href="#DejaVuSans-50"/>
       <use x="63.623047" xlink:href="#DejaVuSans-48"/>
      </g>
     </g>
    </g>
    <g id="xtick_13">
     <g id="line2d_22">
      <g>
       <use style="stroke:#000000;stroke-width:0.8;" x="214.445079" xlink:href="#m76372f1584" y="312.24351"/>
      </g>
     </g>
     <g id="text_26">
      <!-- 40 -->
      <defs>
       <path d="M 37.796875 64.3125 
L 12.890625 25.390625 
L 37.796875 25.390625 
z
M 35.203125 72.90625 
L 47.609375 72.90625 
L 47.609375 25.390625 
L 58.015625 25.390625 
L 58.015625 17.1875 
L 47.609375 17.1875 
L 47.609375 0 
L 37.796875 0 
L 37.796875 17.1875 
L 4.890625 17.1875 
L 4.890625 26.703125 
z
" id="DejaVuSans-52"/>
      </defs>
      <g transform="translate(208.082579 326.841947)scale(0.1 -0.1)">
       <use xlink:href="#DejaVuSans-52"/>
       <use x="63.623047" xlink:href="#DejaVuSans-48"/>
      </g>
     </g>
    </g>
    <g id="xtick_14">
     <g id="line2d_23">
      <g>
       <use style="stroke:#000000;stroke-width:0.8;" x="284.778802" xlink:href="#m76372f1584" y="312.24351"/>
      </g>
     </g>
     <g id="text_27">
      <!-- 60 -->
      <defs>
       <path d="M 33.015625 40.375 
Q 26.375 40.375 22.484375 35.828125 
Q 18.609375 31.296875 18.609375 23.390625 
Q 18.609375 15.53125 22.484375 10.953125 
Q 26.375 6.390625 33.015625 6.390625 
Q 39.65625 6.390625 43.53125 10.953125 
Q 47.40625 15.53125 47.40625 23.390625 
Q 47.40625 31.296875 43.53125 35.828125 
Q 39.65625 40.375 33.015625 40.375 
z
M 52.59375 71.296875 
L 52.59375 62.3125 
Q 48.875 64.0625 45.09375 64.984375 
Q 41.3125 65.921875 37.59375 65.921875 
Q 27.828125 65.921875 22.671875 59.328125 
Q 17.53125 52.734375 16.796875 39.40625 
Q 19.671875 43.65625 24.015625 45.921875 
Q 28.375 48.1875 33.59375 48.1875 
Q 44.578125 48.1875 50.953125 41.515625 
Q 57.328125 34.859375 57.328125 23.390625 
Q 57.328125 12.15625 50.6875 5.359375 
Q 44.046875 -1.421875 33.015625 -1.421875 
Q 20.359375 -1.421875 13.671875 8.265625 
Q 6.984375 17.96875 6.984375 36.375 
Q 6.984375 53.65625 15.1875 63.9375 
Q 23.390625 74.21875 37.203125 74.21875 
Q 40.921875 74.21875 44.703125 73.484375 
Q 48.484375 72.75 52.59375 71.296875 
z
" id="DejaVuSans-54"/>
      </defs>
      <g transform="translate(278.416302 326.841947)scale(0.1 -0.1)">
       <use xlink:href="#DejaVuSans-54"/>
       <use x="63.623047" xlink:href="#DejaVuSans-48"/>
      </g>
     </g>
    </g>
    <g id="xtick_15">
     <g id="line2d_24">
      <g>
       <use style="stroke:#000000;stroke-width:0.8;" x="355.112525" xlink:href="#m76372f1584" y="312.24351"/>
      </g>
     </g>
     <g id="text_28">
      <!-- 80 -->
      <defs>
       <path d="M 31.78125 34.625 
Q 24.75 34.625 20.71875 30.859375 
Q 16.703125 27.09375 16.703125 20.515625 
Q 16.703125 13.921875 20.71875 10.15625 
Q 24.75 6.390625 31.78125 6.390625 
Q 38.8125 6.390625 42.859375 10.171875 
Q 46.921875 13.96875 46.921875 20.515625 
Q 46.921875 27.09375 42.890625 30.859375 
Q 38.875 34.625 31.78125 34.625 
z
M 21.921875 38.8125 
Q 15.578125 40.375 12.03125 44.71875 
Q 8.5 49.078125 8.5 55.328125 
Q 8.5 64.0625 14.71875 69.140625 
Q 20.953125 74.21875 31.78125 74.21875 
Q 42.671875 74.21875 48.875 69.140625 
Q 55.078125 64.0625 55.078125 55.328125 
Q 55.078125 49.078125 51.53125 44.71875 
Q 48 40.375 41.703125 38.8125 
Q 48.828125 37.15625 52.796875 32.3125 
Q 56.78125 27.484375 56.78125 20.515625 
Q 56.78125 9.90625 50.3125 4.234375 
Q 43.84375 -1.421875 31.78125 -1.421875 
Q 19.734375 -1.421875 13.25 4.234375 
Q 6.78125 9.90625 6.78125 20.515625 
Q 6.78125 27.484375 10.78125 32.3125 
Q 14.796875 37.15625 21.921875 38.8125 
z
M 18.3125 54.390625 
Q 18.3125 48.734375 21.84375 45.5625 
Q 25.390625 42.390625 31.78125 42.390625 
Q 38.140625 42.390625 41.71875 45.5625 
Q 45.3125 48.734375 45.3125 54.390625 
Q 45.3125 60.0625 41.71875 63.234375 
Q 38.140625 66.40625 31.78125 66.40625 
Q 25.390625 66.40625 21.84375 63.234375 
Q 18.3125 60.0625 18.3125 54.390625 
z
" id="DejaVuSans-56"/>
      </defs>
      <g transform="translate(348.750025 326.841947)scale(0.1 -0.1)">
       <use xlink:href="#DejaVuSans-56"/>
       <use x="63.623047" xlink:href="#DejaVuSans-48"/>
      </g>
     </g>
    </g>
    <g id="xtick_16">
     <g id="line2d_25">
      <g>
       <use style="stroke:#000000;stroke-width:0.8;" x="425.446247" xlink:href="#m76372f1584" y="312.24351"/>
      </g>
     </g>
     <g id="text_29">
      <!-- 100 -->
      <g transform="translate(415.902497 326.841947)scale(0.1 -0.1)">
       <use xlink:href="#DejaVuSans-49"/>
       <use x="63.623047" xlink:href="#DejaVuSans-48"/>
       <use x="127.246094" xlink:href="#DejaVuSans-48"/>
      </g>
     </g>
    </g>
    <g id="text_30">
     <!-- Dias -->
     <g transform="translate(245.7375 340.520072)scale(0.1 -0.1)">
      <use xlink:href="#DejaVuSans-68"/>
      <use x="77.001953" xlink:href="#DejaVuSans-105"/>
      <use x="104.785156" xlink:href="#DejaVuSans-97"/>
      <use x="166.064453" xlink:href="#DejaVuSans-115"/>
     </g>
    </g>
   </g>
   <g id="matplotlib.axis_6">
    <g id="ytick_8">
     <g id="line2d_26">
      <g>
       <use style="stroke:#000000;stroke-width:0.8;" x="55.490865" xlink:href="#mb5b23eac2b" y="310.447567"/>
      </g>
     </g>
     <g id="text_31">
      <!-- 1 -->
      <g transform="translate(42.128365 314.246786)scale(0.1 -0.1)">
       <use xlink:href="#DejaVuSans-49"/>
      </g>
     </g>
    </g>
    <g id="ytick_9">
     <g id="line2d_27">
      <g>
       <use style="stroke:#000000;stroke-width:0.8;" x="55.490865" xlink:href="#mb5b23eac2b" y="273.110038"/>
      </g>
     </g>
     <g id="text_32">
      <!-- 2 -->
      <g transform="translate(42.128365 276.909257)scale(0.1 -0.1)">
       <use xlink:href="#DejaVuSans-50"/>
      </g>
     </g>
    </g>
    <g id="ytick_10">
     <g id="line2d_28">
      <g>
       <use style="stroke:#000000;stroke-width:0.8;" x="55.490865" xlink:href="#mb5b23eac2b" y="235.772509"/>
      </g>
     </g>
     <g id="text_33">
      <!-- 3 -->
      <defs>
       <path d="M 40.578125 39.3125 
Q 47.65625 37.796875 51.625 33 
Q 55.609375 28.21875 55.609375 21.1875 
Q 55.609375 10.40625 48.1875 4.484375 
Q 40.765625 -1.421875 27.09375 -1.421875 
Q 22.515625 -1.421875 17.65625 -0.515625 
Q 12.796875 0.390625 7.625 2.203125 
L 7.625 11.71875 
Q 11.71875 9.328125 16.59375 8.109375 
Q 21.484375 6.890625 26.8125 6.890625 
Q 36.078125 6.890625 40.9375 10.546875 
Q 45.796875 14.203125 45.796875 21.1875 
Q 45.796875 27.640625 41.28125 31.265625 
Q 36.765625 34.90625 28.71875 34.90625 
L 20.21875 34.90625 
L 20.21875 43.015625 
L 29.109375 43.015625 
Q 36.375 43.015625 40.234375 45.921875 
Q 44.09375 48.828125 44.09375 54.296875 
Q 44.09375 59.90625 40.109375 62.90625 
Q 36.140625 65.921875 28.71875 65.921875 
Q 24.65625 65.921875 20.015625 65.03125 
Q 15.375 64.15625 9.8125 62.3125 
L 9.8125 71.09375 
Q 15.4375 72.65625 20.34375 73.4375 
Q 25.25 74.21875 29.59375 74.21875 
Q 40.828125 74.21875 47.359375 69.109375 
Q 53.90625 64.015625 53.90625 55.328125 
Q 53.90625 49.265625 50.4375 45.09375 
Q 46.96875 40.921875 40.578125 39.3125 
z
" id="DejaVuSans-51"/>
      </defs>
      <g transform="translate(42.128365 239.571727)scale(0.1 -0.1)">
       <use xlink:href="#DejaVuSans-51"/>
      </g>
     </g>
    </g>
    <g id="ytick_11">
     <g id="line2d_29">
      <g>
       <use style="stroke:#000000;stroke-width:0.8;" x="55.490865" xlink:href="#mb5b23eac2b" y="198.434979"/>
      </g>
     </g>
     <g id="text_34">
      <!-- 4 -->
      <g transform="translate(42.128365 202.234198)scale(0.1 -0.1)">
       <use xlink:href="#DejaVuSans-52"/>
      </g>
     </g>
    </g>
    <g id="text_35">
     <!-- r0 -->
     <defs>
      <path d="M 41.109375 46.296875 
Q 39.59375 47.171875 37.8125 47.578125 
Q 36.03125 48 33.890625 48 
Q 26.265625 48 22.1875 43.046875 
Q 18.109375 38.09375 18.109375 28.8125 
L 18.109375 0 
L 9.078125 0 
L 9.078125 54.6875 
L 18.109375 54.6875 
L 18.109375 46.1875 
Q 20.953125 51.171875 25.484375 53.578125 
Q 30.03125 56 36.53125 56 
Q 37.453125 56 38.578125 55.875 
Q 39.703125 55.765625 41.0625 55.515625 
z
" id="DejaVuSans-114"/>
     </defs>
     <g transform="translate(36.048678 257.681656)rotate(-90)scale(0.1 -0.1)">
      <use xlink:href="#DejaVuSans-114"/>
      <use x="41.113281" xlink:href="#DejaVuSans-48"/>
     </g>
    </g>
   </g>
   <g id="line2d_30">
    <path clip-path="url(#p323041187b)" d="M 73.777633 198.082599 
L 77.294319 203.565504 
L 80.811005 206.717516 
L 84.327691 214.106114 
L 87.844378 221.038069 
L 91.361064 229.130098 
L 94.87775 236.327973 
L 98.394436 242.406457 
L 101.911122 249.462898 
L 105.427808 257.483699 
L 108.944494 265.161081 
L 112.461181 271.746683 
L 115.977867 277.136455 
L 119.494553 282.219856 
L 123.011239 287.15521 
L 126.527925 290.788937 
L 130.044611 292.662556 
L 133.561297 293.276201 
L 137.077984 293.421447 
L 140.59467 293.695518 
L 144.111356 293.575018 
L 147.628042 293.143454 
L 151.144728 293.294189 
L 154.661414 294.19712 
L 158.1781 295.648862 
L 161.694787 297.456482 
L 165.211473 299.121507 
L 168.728159 300.908172 
L 172.244845 302.862024 
L 175.761531 304.472624 
L 179.278217 305.571175 
L 182.794903 306.418954 
L 186.31159 306.651505 
L 189.828276 306.680388 
L 193.344962 306.407685 
L 196.861648 305.771996 
L 200.378334 305.155218 
L 203.89502 304.847574 
L 207.411706 304.40142 
L 210.928393 304.200223 
L 214.445079 303.819646 
L 217.961765 303.491226 
L 221.478451 303.210243 
L 224.995137 302.716424 
L 228.511823 301.520368 
L 232.028509 299.991821 
L 235.545196 298.195792 
L 239.061882 296.456378 
L 242.578568 294.527391 
L 246.095254 292.490029 
L 249.61194 290.612257 
L 253.128626 289.797608 
L 256.645312 289.819011 
L 260.161999 290.310952 
L 263.678685 291.211945 
L 267.195371 292.562817 
L 270.712057 294.335094 
L 274.228743 296.392461 
L 277.745429 297.93443 
L 281.262116 298.881075 
L 284.778802 299.56961 
L 288.295488 299.916583 
L 291.812174 299.885687 
L 295.32886 299.520561 
L 298.845546 298.787502 
L 302.362232 297.997048 
L 305.878919 297.303857 
L 309.395605 296.431328 
L 312.912291 295.367097 
L 316.428977 294.252252 
L 319.945663 293.108962 
L 323.462349 291.99507 
L 326.979035 291.149287 
L 330.495722 290.738325 
L 334.012408 290.69699 
L 337.529094 291.08383 
L 341.04578 291.691759 
L 344.562466 292.341021 
L 348.079152 293.254194 
L 351.595838 294.173122 
L 355.112525 294.786527 
L 358.629211 295.321215 
L 362.145897 295.811718 
L 365.662583 296.30949 
L 369.179269 297.146825 
L 372.695955 298.011955 
L 376.212641 298.936026 
L 379.729328 300.049183 
L 383.246014 301.260424 
L 386.7627 302.346178 
L 390.279386 303.542401 
L 393.796072 304.341294 
L 397.312758 304.937587 
L 400.829444 305.305911 
L 404.346131 305.345938 
L 407.862817 305.124226 
L 411.379503 304.967212 
L 414.896189 304.341374 
L 418.412875 303.915807 
L 421.929561 303.896135 
L 425.446247 303.844749 
L 428.962934 304.156937 
L 432.47962 306.205227 
L 435.996306 306.280118 
L 439.512992 306.807276 
" style="fill:none;stroke:#ff0000;stroke-linecap:square;stroke-width:1.5;"/>
   </g>
   <g id="patch_223">
    <path d="M 55.490865 312.24351 
L 55.490865 192.646365 
" style="fill:none;stroke:#000000;stroke-linecap:square;stroke-linejoin:miter;stroke-width:0.8;"/>
   </g>
   <g id="patch_224">
    <path d="M 457.79976 312.24351 
L 457.79976 192.646365 
" style="fill:none;stroke:#000000;stroke-linecap:square;stroke-linejoin:miter;stroke-width:0.8;"/>
   </g>
   <g id="patch_225">
    <path d="M 55.490865 312.24351 
L 457.79976 312.24351 
" style="fill:none;stroke:#000000;stroke-linecap:square;stroke-linejoin:miter;stroke-width:0.8;"/>
   </g>
   <g id="patch_226">
    <path d="M 55.490865 192.646365 
L 457.79976 192.646365 
" style="fill:none;stroke:#000000;stroke-linecap:square;stroke-linejoin:miter;stroke-width:0.8;"/>
   </g>
   <g id="text_36">
    <!-- r0 aproximado - MG -->
    <defs>
     <path d="M 18.109375 8.203125 
L 18.109375 -20.796875 
L 9.078125 -20.796875 
L 9.078125 54.6875 
L 18.109375 54.6875 
L 18.109375 46.390625 
Q 20.953125 51.265625 25.265625 53.625 
Q 29.59375 56 35.59375 56 
Q 45.5625 56 51.78125 48.09375 
Q 58.015625 40.1875 58.015625 27.296875 
Q 58.015625 14.40625 51.78125 6.484375 
Q 45.5625 -1.421875 35.59375 -1.421875 
Q 29.59375 -1.421875 25.265625 0.953125 
Q 20.953125 3.328125 18.109375 8.203125 
z
M 48.6875 27.296875 
Q 48.6875 37.203125 44.609375 42.84375 
Q 40.53125 48.484375 33.40625 48.484375 
Q 26.265625 48.484375 22.1875 42.84375 
Q 18.109375 37.203125 18.109375 27.296875 
Q 18.109375 17.390625 22.1875 11.75 
Q 26.265625 6.109375 33.40625 6.109375 
Q 40.53125 6.109375 44.609375 11.75 
Q 48.6875 17.390625 48.6875 27.296875 
z
" id="DejaVuSans-112"/>
     <path d="M 54.890625 54.6875 
L 35.109375 28.078125 
L 55.90625 0 
L 45.3125 0 
L 29.390625 21.484375 
L 13.484375 0 
L 2.875 0 
L 24.125 28.609375 
L 4.6875 54.6875 
L 15.28125 54.6875 
L 29.78125 35.203125 
L 44.28125 54.6875 
z
" id="DejaVuSans-120"/>
    </defs>
    <g transform="translate(197.129062 186.646365)scale(0.12 -0.12)">
     <use xlink:href="#DejaVuSans-114"/>
     <use x="41.113281" xlink:href="#DejaVuSans-48"/>
     <use x="104.736328" xlink:href="#DejaVuSans-32"/>
     <use x="136.523438" xlink:href="#DejaVuSans-97"/>
     <use x="197.802734" xlink:href="#DejaVuSans-112"/>
     <use x="261.279297" xlink:href="#DejaVuSans-114"/>
     <use x="300.142578" xlink:href="#DejaVuSans-111"/>
     <use x="358.199219" xlink:href="#DejaVuSans-120"/>
     <use x="417.378906" xlink:href="#DejaVuSans-105"/>
     <use x="445.162109" xlink:href="#DejaVuSans-109"/>
     <use x="542.574219" xlink:href="#DejaVuSans-97"/>
     <use x="603.853516" xlink:href="#DejaVuSans-100"/>
     <use x="667.330078" xlink:href="#DejaVuSans-111"/>
     <use x="728.511719" xlink:href="#DejaVuSans-32"/>
     <use x="760.298828" xlink:href="#DejaVuSans-45"/>
     <use x="796.382812" xlink:href="#DejaVuSans-32"/>
     <use x="828.169922" xlink:href="#DejaVuSans-77"/>
     <use x="914.449219" xlink:href="#DejaVuSans-71"/>
    </g>
   </g>
  </g>
 </g>
 <defs>
  <clipPath id="p0aaf87d6ef">
   <rect height="119.597145" width="172.786145" x="55.490865" y="18.118365"/>
  </clipPath>
  <clipPath id="p7db2a657e0">
   <rect height="119.597145" width="172.786145" x="285.013615" y="18.118365"/>
  </clipPath>
  <clipPath id="p323041187b">
   <rect height="119.597145" width="402.308895" x="55.490865" y="192.646365"/>
  </clipPath>
 </defs>
</svg>
