<?xml version="1.0" encoding="utf-8" standalone="no"?>
<!DOCTYPE svg PUBLIC "-//W3C//DTD SVG 1.1//EN"
  "http://www.w3.org/Graphics/SVG/1.1/DTD/svg11.dtd">
<!-- Created with matplotlib (https://matplotlib.org/) -->
<svg height="345.6pt" version="1.1" viewBox="0 0 460.8 345.6" width="460.8pt" xmlns="http://www.w3.org/2000/svg" xmlns:xlink="http://www.w3.org/1999/xlink">
 <defs>
  <style type="text/css">
*{stroke-linecap:butt;stroke-linejoin:round;}
  </style>
 </defs>
 <g id="figure_1">
  <g id="patch_1">
   <path d="M 0 345.6 
L 460.8 345.6 
L 460.8 0 
L 0 0 
z
" style="fill:#ffffff;"/>
  </g>
  <g id="axes_1">
   <g id="patch_2">
    <path d="M 55.490865 137.71551 
L 231.45826 137.71551 
L 231.45826 18.118365 
L 55.490865 18.118365 
z
" style="fill:#ffffff;"/>
   </g>
   <g id="patch_3">
    <path clip-path="url(#p12d4512246)" d="M 63.489383 137.71551 
L 64.853736 137.71551 
L 64.853736 137.645834 
L 63.489383 137.645834 
z
" style="fill:#1f77b4;"/>
   </g>
   <g id="patch_4">
    <path clip-path="url(#p12d4512246)" d="M 65.194824 137.71551 
L 66.559177 137.71551 
L 66.559177 137.625926 
L 65.194824 137.625926 
z
" style="fill:#1f77b4;"/>
   </g>
   <g id="patch_5">
    <path clip-path="url(#p12d4512246)" d="M 66.900265 137.71551 
L 68.264618 137.71551 
L 68.264618 137.606018 
L 66.900265 137.606018 
z
" style="fill:#1f77b4;"/>
   </g>
   <g id="patch_6">
    <path clip-path="url(#p12d4512246)" d="M 68.605706 137.71551 
L 69.970058 137.71551 
L 69.970058 137.606018 
L 68.605706 137.606018 
z
" style="fill:#1f77b4;"/>
   </g>
   <g id="patch_7">
    <path clip-path="url(#p12d4512246)" d="M 70.311147 137.71551 
L 71.675499 137.71551 
L 71.675499 137.546296 
L 70.311147 137.546296 
z
" style="fill:#1f77b4;"/>
   </g>
   <g id="patch_8">
    <path clip-path="url(#p12d4512246)" d="M 72.016588 137.71551 
L 73.38094 137.71551 
L 73.38094 137.486573 
L 72.016588 137.486573 
z
" style="fill:#1f77b4;"/>
   </g>
   <g id="patch_9">
    <path clip-path="url(#p12d4512246)" d="M 73.722029 137.71551 
L 75.086381 137.71551 
L 75.086381 137.476619 
L 73.722029 137.476619 
z
" style="fill:#1f77b4;"/>
   </g>
   <g id="patch_10">
    <path clip-path="url(#p12d4512246)" d="M 75.427469 137.71551 
L 76.791822 137.71551 
L 76.791822 137.466666 
L 75.427469 137.466666 
z
" style="fill:#1f77b4;"/>
   </g>
   <g id="patch_11">
    <path clip-path="url(#p12d4512246)" d="M 77.13291 137.71551 
L 78.497263 137.71551 
L 78.497263 137.466666 
L 77.13291 137.466666 
z
" style="fill:#1f77b4;"/>
   </g>
   <g id="patch_12">
    <path clip-path="url(#p12d4512246)" d="M 78.838351 137.71551 
L 80.202704 137.71551 
L 80.202704 137.377082 
L 78.838351 137.377082 
z
" style="fill:#1f77b4;"/>
   </g>
   <g id="patch_13">
    <path clip-path="url(#p12d4512246)" d="M 80.543792 137.71551 
L 81.908145 137.71551 
L 81.908145 137.297452 
L 80.543792 137.297452 
z
" style="fill:#1f77b4;"/>
   </g>
   <g id="patch_14">
    <path clip-path="url(#p12d4512246)" d="M 82.249233 137.71551 
L 83.613586 137.71551 
L 83.613586 137.297452 
L 82.249233 137.297452 
z
" style="fill:#1f77b4;"/>
   </g>
   <g id="patch_15">
    <path clip-path="url(#p12d4512246)" d="M 83.954674 137.71551 
L 85.319027 137.71551 
L 85.319027 137.287498 
L 83.954674 137.287498 
z
" style="fill:#1f77b4;"/>
   </g>
   <g id="patch_16">
    <path clip-path="url(#p12d4512246)" d="M 85.660115 137.71551 
L 87.024468 137.71551 
L 87.024468 137.287498 
L 85.660115 137.287498 
z
" style="fill:#1f77b4;"/>
   </g>
   <g id="patch_17">
    <path clip-path="url(#p12d4512246)" d="M 87.365556 137.71551 
L 88.729909 137.71551 
L 88.729909 137.257636 
L 87.365556 137.257636 
z
" style="fill:#1f77b4;"/>
   </g>
   <g id="patch_18">
    <path clip-path="url(#p12d4512246)" d="M 89.070997 137.71551 
L 90.43535 137.71551 
L 90.43535 137.257636 
L 89.070997 137.257636 
z
" style="fill:#1f77b4;"/>
   </g>
   <g id="patch_19">
    <path clip-path="url(#p12d4512246)" d="M 90.776438 137.71551 
L 92.140791 137.71551 
L 92.140791 137.237729 
L 90.776438 137.237729 
z
" style="fill:#1f77b4;"/>
   </g>
   <g id="patch_20">
    <path clip-path="url(#p12d4512246)" d="M 92.481879 137.71551 
L 93.846231 137.71551 
L 93.846231 137.217821 
L 92.481879 137.217821 
z
" style="fill:#1f77b4;"/>
   </g>
   <g id="patch_21">
    <path clip-path="url(#p12d4512246)" d="M 94.18732 137.71551 
L 95.551672 137.71551 
L 95.551672 137.217821 
L 94.18732 137.217821 
z
" style="fill:#1f77b4;"/>
   </g>
   <g id="patch_22">
    <path clip-path="url(#p12d4512246)" d="M 95.892761 137.71551 
L 97.257113 137.71551 
L 97.257113 137.178006 
L 95.892761 137.178006 
z
" style="fill:#1f77b4;"/>
   </g>
   <g id="patch_23">
    <path clip-path="url(#p12d4512246)" d="M 97.598202 137.71551 
L 98.962554 137.71551 
L 98.962554 137.098376 
L 97.598202 137.098376 
z
" style="fill:#1f77b4;"/>
   </g>
   <g id="patch_24">
    <path clip-path="url(#p12d4512246)" d="M 99.303642 137.71551 
L 100.667995 137.71551 
L 100.667995 137.018746 
L 99.303642 137.018746 
z
" style="fill:#1f77b4;"/>
   </g>
   <g id="patch_25">
    <path clip-path="url(#p12d4512246)" d="M 101.009083 137.71551 
L 102.373436 137.71551 
L 102.373436 136.998838 
L 101.009083 136.998838 
z
" style="fill:#1f77b4;"/>
   </g>
   <g id="patch_26">
    <path clip-path="url(#p12d4512246)" d="M 102.714524 137.71551 
L 104.078877 137.71551 
L 104.078877 136.949069 
L 102.714524 136.949069 
z
" style="fill:#1f77b4;"/>
   </g>
   <g id="patch_27">
    <path clip-path="url(#p12d4512246)" d="M 104.419965 137.71551 
L 105.784318 137.71551 
L 105.784318 136.81967 
L 104.419965 136.81967 
z
" style="fill:#1f77b4;"/>
   </g>
   <g id="patch_28">
    <path clip-path="url(#p12d4512246)" d="M 106.125406 137.71551 
L 107.489759 137.71551 
L 107.489759 136.730086 
L 106.125406 136.730086 
z
" style="fill:#1f77b4;"/>
   </g>
   <g id="patch_29">
    <path clip-path="url(#p12d4512246)" d="M 107.830847 137.71551 
L 109.1952 137.71551 
L 109.1952 136.710179 
L 107.830847 136.710179 
z
" style="fill:#1f77b4;"/>
   </g>
   <g id="patch_30">
    <path clip-path="url(#p12d4512246)" d="M 109.536288 137.71551 
L 110.900641 137.71551 
L 110.900641 136.620595 
L 109.536288 136.620595 
z
" style="fill:#1f77b4;"/>
   </g>
   <g id="patch_31">
    <path clip-path="url(#p12d4512246)" d="M 111.241729 137.71551 
L 112.606082 137.71551 
L 112.606082 136.371751 
L 111.241729 136.371751 
z
" style="fill:#1f77b4;"/>
   </g>
   <g id="patch_32">
    <path clip-path="url(#p12d4512246)" d="M 112.94717 137.71551 
L 114.311523 137.71551 
L 114.311523 136.302074 
L 112.94717 136.302074 
z
" style="fill:#1f77b4;"/>
   </g>
   <g id="patch_33">
    <path clip-path="url(#p12d4512246)" d="M 114.652611 137.71551 
L 116.016964 137.71551 
L 116.016964 136.093045 
L 114.652611 136.093045 
z
" style="fill:#1f77b4;"/>
   </g>
   <g id="patch_34">
    <path clip-path="url(#p12d4512246)" d="M 116.358052 137.71551 
L 117.722404 137.71551 
L 117.722404 135.963646 
L 116.358052 135.963646 
z
" style="fill:#1f77b4;"/>
   </g>
   <g id="patch_35">
    <path clip-path="url(#p12d4512246)" d="M 118.063493 137.71551 
L 119.427845 137.71551 
L 119.427845 135.774524 
L 118.063493 135.774524 
z
" style="fill:#1f77b4;"/>
   </g>
   <g id="patch_36">
    <path clip-path="url(#p12d4512246)" d="M 119.768934 137.71551 
L 121.133286 137.71551 
L 121.133286 135.585402 
L 119.768934 135.585402 
z
" style="fill:#1f77b4;"/>
   </g>
   <g id="patch_37">
    <path clip-path="url(#p12d4512246)" d="M 121.474375 137.71551 
L 122.838727 137.71551 
L 122.838727 135.456003 
L 121.474375 135.456003 
z
" style="fill:#1f77b4;"/>
   </g>
   <g id="patch_38">
    <path clip-path="url(#p12d4512246)" d="M 123.179815 137.71551 
L 124.544168 137.71551 
L 124.544168 135.386327 
L 123.179815 135.386327 
z
" style="fill:#1f77b4;"/>
   </g>
   <g id="patch_39">
    <path clip-path="url(#p12d4512246)" d="M 124.885256 137.71551 
L 126.249609 137.71551 
L 126.249609 135.147436 
L 124.885256 135.147436 
z
" style="fill:#1f77b4;"/>
   </g>
   <g id="patch_40">
    <path clip-path="url(#p12d4512246)" d="M 126.590697 137.71551 
L 127.95505 137.71551 
L 127.95505 134.938407 
L 126.590697 134.938407 
z
" style="fill:#1f77b4;"/>
   </g>
   <g id="patch_41">
    <path clip-path="url(#p12d4512246)" d="M 128.296138 137.71551 
L 129.660491 137.71551 
L 129.660491 134.938407 
L 128.296138 134.938407 
z
" style="fill:#1f77b4;"/>
   </g>
   <g id="patch_42">
    <path clip-path="url(#p12d4512246)" d="M 130.001579 137.71551 
L 131.365932 137.71551 
L 131.365932 134.619886 
L 130.001579 134.619886 
z
" style="fill:#1f77b4;"/>
   </g>
   <g id="patch_43">
    <path clip-path="url(#p12d4512246)" d="M 131.70702 137.71551 
L 133.071373 137.71551 
L 133.071373 134.191874 
L 131.70702 134.191874 
z
" style="fill:#1f77b4;"/>
   </g>
   <g id="patch_44">
    <path clip-path="url(#p12d4512246)" d="M 133.412461 137.71551 
L 134.776814 137.71551 
L 134.776814 133.694185 
L 133.412461 133.694185 
z
" style="fill:#1f77b4;"/>
   </g>
   <g id="patch_45">
    <path clip-path="url(#p12d4512246)" d="M 135.117902 137.71551 
L 136.482255 137.71551 
L 136.482255 132.877976 
L 135.117902 132.877976 
z
" style="fill:#1f77b4;"/>
   </g>
   <g id="patch_46">
    <path clip-path="url(#p12d4512246)" d="M 136.823343 137.71551 
L 138.187696 137.71551 
L 138.187696 132.211073 
L 136.823343 132.211073 
z
" style="fill:#1f77b4;"/>
   </g>
   <g id="patch_47">
    <path clip-path="url(#p12d4512246)" d="M 138.528784 137.71551 
L 139.893137 137.71551 
L 139.893137 131.175881 
L 138.528784 131.175881 
z
" style="fill:#1f77b4;"/>
   </g>
   <g id="patch_48">
    <path clip-path="url(#p12d4512246)" d="M 140.234225 137.71551 
L 141.598577 137.71551 
L 141.598577 130.419394 
L 140.234225 130.419394 
z
" style="fill:#1f77b4;"/>
   </g>
   <g id="patch_49">
    <path clip-path="url(#p12d4512246)" d="M 141.939666 137.71551 
L 143.304018 137.71551 
L 143.304018 129.583277 
L 141.939666 129.583277 
z
" style="fill:#1f77b4;"/>
   </g>
   <g id="patch_50">
    <path clip-path="url(#p12d4512246)" d="M 143.645107 137.71551 
L 145.009459 137.71551 
L 145.009459 128.329101 
L 143.645107 128.329101 
z
" style="fill:#1f77b4;"/>
   </g>
   <g id="patch_51">
    <path clip-path="url(#p12d4512246)" d="M 145.350548 137.71551 
L 146.7149 137.71551 
L 146.7149 127.622384 
L 145.350548 127.622384 
z
" style="fill:#1f77b4;"/>
   </g>
   <g id="patch_52">
    <path clip-path="url(#p12d4512246)" d="M 147.055988 137.71551 
L 148.420341 137.71551 
L 148.420341 125.999918 
L 147.055988 125.999918 
z
" style="fill:#1f77b4;"/>
   </g>
   <g id="patch_53">
    <path clip-path="url(#p12d4512246)" d="M 148.761429 137.71551 
L 150.125782 137.71551 
L 150.125782 124.427222 
L 148.761429 124.427222 
z
" style="fill:#1f77b4;"/>
   </g>
   <g id="patch_54">
    <path clip-path="url(#p12d4512246)" d="M 150.46687 137.71551 
L 151.831223 137.71551 
L 151.831223 123.3124 
L 150.46687 123.3124 
z
" style="fill:#1f77b4;"/>
   </g>
   <g id="patch_55">
    <path clip-path="url(#p12d4512246)" d="M 152.172311 137.71551 
L 153.536664 137.71551 
L 153.536664 123.183001 
L 152.172311 123.183001 
z
" style="fill:#1f77b4;"/>
   </g>
   <g id="patch_56">
    <path clip-path="url(#p12d4512246)" d="M 153.877752 137.71551 
L 155.242105 137.71551 
L 155.242105 121.88901 
L 153.877752 121.88901 
z
" style="fill:#1f77b4;"/>
   </g>
   <g id="patch_57">
    <path clip-path="url(#p12d4512246)" d="M 155.583193 137.71551 
L 156.947546 137.71551 
L 156.947546 120.853818 
L 155.583193 120.853818 
z
" style="fill:#1f77b4;"/>
   </g>
   <g id="patch_58">
    <path clip-path="url(#p12d4512246)" d="M 157.288634 137.71551 
L 158.652987 137.71551 
L 158.652987 120.395944 
L 157.288634 120.395944 
z
" style="fill:#1f77b4;"/>
   </g>
   <g id="patch_59">
    <path clip-path="url(#p12d4512246)" d="M 158.994075 137.71551 
L 160.358428 137.71551 
L 160.358428 119.948024 
L 158.994075 119.948024 
z
" style="fill:#1f77b4;"/>
   </g>
   <g id="patch_60">
    <path clip-path="url(#p12d4512246)" d="M 160.699516 137.71551 
L 162.063869 137.71551 
L 162.063869 119.131815 
L 160.699516 119.131815 
z
" style="fill:#1f77b4;"/>
   </g>
   <g id="patch_61">
    <path clip-path="url(#p12d4512246)" d="M 162.404957 137.71551 
L 163.76931 137.71551 
L 163.76931 117.837824 
L 162.404957 117.837824 
z
" style="fill:#1f77b4;"/>
   </g>
   <g id="patch_62">
    <path clip-path="url(#p12d4512246)" d="M 164.110398 137.71551 
L 165.47475 137.71551 
L 165.47475 115.47878 
L 164.110398 115.47878 
z
" style="fill:#1f77b4;"/>
   </g>
   <g id="patch_63">
    <path clip-path="url(#p12d4512246)" d="M 165.815839 137.71551 
L 167.180191 137.71551 
L 167.180191 113.010244 
L 165.815839 113.010244 
z
" style="fill:#1f77b4;"/>
   </g>
   <g id="patch_64">
    <path clip-path="url(#p12d4512246)" d="M 167.52128 137.71551 
L 168.885632 137.71551 
L 168.885632 109.67573 
L 167.52128 109.67573 
z
" style="fill:#1f77b4;"/>
   </g>
   <g id="patch_65">
    <path clip-path="url(#p12d4512246)" d="M 169.226721 137.71551 
L 170.591073 137.71551 
L 170.591073 106.828951 
L 169.226721 106.828951 
z
" style="fill:#1f77b4;"/>
   </g>
   <g id="patch_66">
    <path clip-path="url(#p12d4512246)" d="M 170.932161 137.71551 
L 172.296514 137.71551 
L 172.296514 104.440045 
L 170.932161 104.440045 
z
" style="fill:#1f77b4;"/>
   </g>
   <g id="patch_67">
    <path clip-path="url(#p12d4512246)" d="M 172.637602 137.71551 
L 174.001955 137.71551 
L 174.001955 99.224267 
L 172.637602 99.224267 
z
" style="fill:#1f77b4;"/>
   </g>
   <g id="patch_68">
    <path clip-path="url(#p12d4512246)" d="M 174.343043 137.71551 
L 175.707396 137.71551 
L 175.707396 96.307812 
L 174.343043 96.307812 
z
" style="fill:#1f77b4;"/>
   </g>
   <g id="patch_69">
    <path clip-path="url(#p12d4512246)" d="M 176.048484 137.71551 
L 177.412837 137.71551 
L 177.412837 92.913575 
L 176.048484 92.913575 
z
" style="fill:#1f77b4;"/>
   </g>
   <g id="patch_70">
    <path clip-path="url(#p12d4512246)" d="M 177.753925 137.71551 
L 179.118278 137.71551 
L 179.118278 90.126518 
L 177.753925 90.126518 
z
" style="fill:#1f77b4;"/>
   </g>
   <g id="patch_71">
    <path clip-path="url(#p12d4512246)" d="M 179.459366 137.71551 
L 180.823719 137.71551 
L 180.823719 85.448245 
L 179.459366 85.448245 
z
" style="fill:#1f77b4;"/>
   </g>
   <g id="patch_72">
    <path clip-path="url(#p12d4512246)" d="M 181.164807 137.71551 
L 182.52916 137.71551 
L 182.52916 81.974378 
L 181.164807 81.974378 
z
" style="fill:#1f77b4;"/>
   </g>
   <g id="patch_73">
    <path clip-path="url(#p12d4512246)" d="M 182.870248 137.71551 
L 184.234601 137.71551 
L 184.234601 79.575518 
L 182.870248 79.575518 
z
" style="fill:#1f77b4;"/>
   </g>
   <g id="patch_74">
    <path clip-path="url(#p12d4512246)" d="M 184.575689 137.71551 
L 185.940042 137.71551 
L 185.940042 77.276197 
L 184.575689 77.276197 
z
" style="fill:#1f77b4;"/>
   </g>
   <g id="patch_75">
    <path clip-path="url(#p12d4512246)" d="M 186.28113 137.71551 
L 187.645483 137.71551 
L 187.645483 75.812992 
L 186.28113 75.812992 
z
" style="fill:#1f77b4;"/>
   </g>
   <g id="patch_76">
    <path clip-path="url(#p12d4512246)" d="M 187.986571 137.71551 
L 189.350923 137.71551 
L 189.350923 74.747938 
L 187.986571 74.747938 
z
" style="fill:#1f77b4;"/>
   </g>
   <g id="patch_77">
    <path clip-path="url(#p12d4512246)" d="M 189.692012 137.71551 
L 191.056364 137.71551 
L 191.056364 73.364364 
L 189.692012 73.364364 
z
" style="fill:#1f77b4;"/>
   </g>
   <g id="patch_78">
    <path clip-path="url(#p12d4512246)" d="M 191.397453 137.71551 
L 192.761805 137.71551 
L 192.761805 71.234256 
L 191.397453 71.234256 
z
" style="fill:#1f77b4;"/>
   </g>
   <g id="patch_79">
    <path clip-path="url(#p12d4512246)" d="M 193.102894 137.71551 
L 194.467246 137.71551 
L 194.467246 67.830066 
L 193.102894 67.830066 
z
" style="fill:#1f77b4;"/>
   </g>
   <g id="patch_80">
    <path clip-path="url(#p12d4512246)" d="M 194.808334 137.71551 
L 196.172687 137.71551 
L 196.172687 65.212223 
L 194.808334 65.212223 
z
" style="fill:#1f77b4;"/>
   </g>
   <g id="patch_81">
    <path clip-path="url(#p12d4512246)" d="M 196.513775 137.71551 
L 197.878128 137.71551 
L 197.878128 62.813364 
L 196.513775 62.813364 
z
" style="fill:#1f77b4;"/>
   </g>
   <g id="patch_82">
    <path clip-path="url(#p12d4512246)" d="M 198.219216 137.71551 
L 199.583569 137.71551 
L 199.583569 58.254535 
L 198.219216 58.254535 
z
" style="fill:#1f77b4;"/>
   </g>
   <g id="patch_83">
    <path clip-path="url(#p12d4512246)" d="M 199.924657 137.71551 
L 201.28901 137.71551 
L 201.28901 56.811238 
L 199.924657 56.811238 
z
" style="fill:#1f77b4;"/>
   </g>
   <g id="patch_84">
    <path clip-path="url(#p12d4512246)" d="M 201.630098 137.71551 
L 202.994451 137.71551 
L 202.994451 53.536447 
L 201.630098 53.536447 
z
" style="fill:#1f77b4;"/>
   </g>
   <g id="patch_85">
    <path clip-path="url(#p12d4512246)" d="M 203.335539 137.71551 
L 204.699892 137.71551 
L 204.699892 50.659806 
L 203.335539 50.659806 
z
" style="fill:#1f77b4;"/>
   </g>
   <g id="patch_86">
    <path clip-path="url(#p12d4512246)" d="M 205.04098 137.71551 
L 206.405333 137.71551 
L 206.405333 47.225754 
L 205.04098 47.225754 
z
" style="fill:#1f77b4;"/>
   </g>
   <g id="patch_87">
    <path clip-path="url(#p12d4512246)" d="M 206.746421 137.71551 
L 208.110774 137.71551 
L 208.110774 45.195184 
L 206.746421 45.195184 
z
" style="fill:#1f77b4;"/>
   </g>
   <g id="patch_88">
    <path clip-path="url(#p12d4512246)" d="M 208.451862 137.71551 
L 209.816215 137.71551 
L 209.816215 42.816232 
L 208.451862 42.816232 
z
" style="fill:#1f77b4;"/>
   </g>
   <g id="patch_89">
    <path clip-path="url(#p12d4512246)" d="M 210.157303 137.71551 
L 211.521656 137.71551 
L 211.521656 41.741225 
L 210.157303 41.741225 
z
" style="fill:#1f77b4;"/>
   </g>
   <g id="patch_90">
    <path clip-path="url(#p12d4512246)" d="M 211.862744 137.71551 
L 213.227096 137.71551 
L 213.227096 40.457188 
L 211.862744 40.457188 
z
" style="fill:#1f77b4;"/>
   </g>
   <g id="patch_91">
    <path clip-path="url(#p12d4512246)" d="M 213.568185 137.71551 
L 214.932537 137.71551 
L 214.932537 38.147913 
L 213.568185 38.147913 
z
" style="fill:#1f77b4;"/>
   </g>
   <g id="patch_92">
    <path clip-path="url(#p12d4512246)" d="M 215.273626 137.71551 
L 216.637978 137.71551 
L 216.637978 34.803445 
L 215.273626 34.803445 
z
" style="fill:#1f77b4;"/>
   </g>
   <g id="patch_93">
    <path clip-path="url(#p12d4512246)" d="M 216.979067 137.71551 
L 218.343419 137.71551 
L 218.343419 31.568468 
L 216.979067 31.568468 
z
" style="fill:#1f77b4;"/>
   </g>
   <g id="patch_94">
    <path clip-path="url(#p12d4512246)" d="M 218.684507 137.71551 
L 220.04886 137.71551 
L 220.04886 28.353399 
L 218.684507 28.353399 
z
" style="fill:#1f77b4;"/>
   </g>
   <g id="patch_95">
    <path clip-path="url(#p12d4512246)" d="M 220.389948 137.71551 
L 221.754301 137.71551 
L 221.754301 25.606158 
L 220.389948 25.606158 
z
" style="fill:#1f77b4;"/>
   </g>
   <g id="patch_96">
    <path clip-path="url(#p12d4512246)" d="M 222.095389 137.71551 
L 223.459742 137.71551 
L 223.459742 24.431613 
L 222.095389 24.431613 
z
" style="fill:#1f77b4;"/>
   </g>
   <g id="matplotlib.axis_1">
    <g id="xtick_1">
     <g id="line2d_1">
      <defs>
       <path d="M 0 0 
L 0 3.5 
" id="m4ae945b697" style="stroke:#000000;stroke-width:0.8;"/>
      </defs>
      <g>
       <use style="stroke:#000000;stroke-width:0.8;" x="64.171559" xlink:href="#m4ae945b697" y="137.71551"/>
      </g>
     </g>
     <g id="text_1">
      <!-- 0 -->
      <defs>
       <path d="M 31.78125 66.40625 
Q 24.171875 66.40625 20.328125 58.90625 
Q 16.5 51.421875 16.5 36.375 
Q 16.5 21.390625 20.328125 13.890625 
Q 24.171875 6.390625 31.78125 6.390625 
Q 39.453125 6.390625 43.28125 13.890625 
Q 47.125 21.390625 47.125 36.375 
Q 47.125 51.421875 43.28125 58.90625 
Q 39.453125 66.40625 31.78125 66.40625 
z
M 31.78125 74.21875 
Q 44.046875 74.21875 50.515625 64.515625 
Q 56.984375 54.828125 56.984375 36.375 
Q 56.984375 17.96875 50.515625 8.265625 
Q 44.046875 -1.421875 31.78125 -1.421875 
Q 19.53125 -1.421875 13.0625 8.265625 
Q 6.59375 17.96875 6.59375 36.375 
Q 6.59375 54.828125 13.0625 64.515625 
Q 19.53125 74.21875 31.78125 74.21875 
z
" id="DejaVuSans-48"/>
      </defs>
      <g transform="translate(60.990309 152.313947)scale(0.1 -0.1)">
       <use xlink:href="#DejaVuSans-48"/>
      </g>
     </g>
    </g>
    <g id="xtick_2">
     <g id="line2d_2">
      <g>
       <use style="stroke:#000000;stroke-width:0.8;" x="106.807583" xlink:href="#m4ae945b697" y="137.71551"/>
      </g>
     </g>
     <g id="text_2">
      <!-- 25 -->
      <defs>
       <path d="M 19.1875 8.296875 
L 53.609375 8.296875 
L 53.609375 0 
L 7.328125 0 
L 7.328125 8.296875 
Q 12.9375 14.109375 22.625 23.890625 
Q 32.328125 33.6875 34.8125 36.53125 
Q 39.546875 41.84375 41.421875 45.53125 
Q 43.3125 49.21875 43.3125 52.78125 
Q 43.3125 58.59375 39.234375 62.25 
Q 35.15625 65.921875 28.609375 65.921875 
Q 23.96875 65.921875 18.8125 64.3125 
Q 13.671875 62.703125 7.8125 59.421875 
L 7.8125 69.390625 
Q 13.765625 71.78125 18.9375 73 
Q 24.125 74.21875 28.421875 74.21875 
Q 39.75 74.21875 46.484375 68.546875 
Q 53.21875 62.890625 53.21875 53.421875 
Q 53.21875 48.921875 51.53125 44.890625 
Q 49.859375 40.875 45.40625 35.40625 
Q 44.1875 33.984375 37.640625 27.21875 
Q 31.109375 20.453125 19.1875 8.296875 
z
" id="DejaVuSans-50"/>
       <path d="M 10.796875 72.90625 
L 49.515625 72.90625 
L 49.515625 64.59375 
L 19.828125 64.59375 
L 19.828125 46.734375 
Q 21.96875 47.46875 24.109375 47.828125 
Q 26.265625 48.1875 28.421875 48.1875 
Q 40.625 48.1875 47.75 41.5 
Q 54.890625 34.8125 54.890625 23.390625 
Q 54.890625 11.625 47.5625 5.09375 
Q 40.234375 -1.421875 26.90625 -1.421875 
Q 22.3125 -1.421875 17.546875 -0.640625 
Q 12.796875 0.140625 7.71875 1.703125 
L 7.71875 11.625 
Q 12.109375 9.234375 16.796875 8.0625 
Q 21.484375 6.890625 26.703125 6.890625 
Q 35.15625 6.890625 40.078125 11.328125 
Q 45.015625 15.765625 45.015625 23.390625 
Q 45.015625 31 40.078125 35.4375 
Q 35.15625 39.890625 26.703125 39.890625 
Q 22.75 39.890625 18.8125 39.015625 
Q 14.890625 38.140625 10.796875 36.28125 
z
" id="DejaVuSans-53"/>
      </defs>
      <g transform="translate(100.445083 152.313947)scale(0.1 -0.1)">
       <use xlink:href="#DejaVuSans-50"/>
       <use x="63.623047" xlink:href="#DejaVuSans-53"/>
      </g>
     </g>
    </g>
    <g id="xtick_3">
     <g id="line2d_3">
      <g>
       <use style="stroke:#000000;stroke-width:0.8;" x="149.443606" xlink:href="#m4ae945b697" y="137.71551"/>
      </g>
     </g>
     <g id="text_3">
      <!-- 50 -->
      <g transform="translate(143.081106 152.313947)scale(0.1 -0.1)">
       <use xlink:href="#DejaVuSans-53"/>
       <use x="63.623047" xlink:href="#DejaVuSans-48"/>
      </g>
     </g>
    </g>
    <g id="xtick_4">
     <g id="line2d_4">
      <g>
       <use style="stroke:#000000;stroke-width:0.8;" x="192.079629" xlink:href="#m4ae945b697" y="137.71551"/>
      </g>
     </g>
     <g id="text_4">
      <!-- 75 -->
      <defs>
       <path d="M 8.203125 72.90625 
L 55.078125 72.90625 
L 55.078125 68.703125 
L 28.609375 0 
L 18.3125 0 
L 43.21875 64.59375 
L 8.203125 64.59375 
z
" id="DejaVuSans-55"/>
      </defs>
      <g transform="translate(185.717129 152.313947)scale(0.1 -0.1)">
       <use xlink:href="#DejaVuSans-55"/>
       <use x="63.623047" xlink:href="#DejaVuSans-53"/>
      </g>
     </g>
    </g>
    <g id="text_5">
     <!-- Dias -->
     <defs>
      <path d="M 19.671875 64.796875 
L 19.671875 8.109375 
L 31.59375 8.109375 
Q 46.6875 8.109375 53.6875 14.9375 
Q 60.6875 21.78125 60.6875 36.53125 
Q 60.6875 51.171875 53.6875 57.984375 
Q 46.6875 64.796875 31.59375 64.796875 
z
M 9.8125 72.90625 
L 30.078125 72.90625 
Q 51.265625 72.90625 61.171875 64.09375 
Q 71.09375 55.28125 71.09375 36.53125 
Q 71.09375 17.671875 61.125 8.828125 
Q 51.171875 0 30.078125 0 
L 9.8125 0 
z
" id="DejaVuSans-68"/>
      <path d="M 9.421875 54.6875 
L 18.40625 54.6875 
L 18.40625 0 
L 9.421875 0 
z
M 9.421875 75.984375 
L 18.40625 75.984375 
L 18.40625 64.59375 
L 9.421875 64.59375 
z
" id="DejaVuSans-105"/>
      <path d="M 34.28125 27.484375 
Q 23.390625 27.484375 19.1875 25 
Q 14.984375 22.515625 14.984375 16.5 
Q 14.984375 11.71875 18.140625 8.90625 
Q 21.296875 6.109375 26.703125 6.109375 
Q 34.1875 6.109375 38.703125 11.40625 
Q 43.21875 16.703125 43.21875 25.484375 
L 43.21875 27.484375 
z
M 52.203125 31.203125 
L 52.203125 0 
L 43.21875 0 
L 43.21875 8.296875 
Q 40.140625 3.328125 35.546875 0.953125 
Q 30.953125 -1.421875 24.3125 -1.421875 
Q 15.921875 -1.421875 10.953125 3.296875 
Q 6 8.015625 6 15.921875 
Q 6 25.140625 12.171875 29.828125 
Q 18.359375 34.515625 30.609375 34.515625 
L 43.21875 34.515625 
L 43.21875 35.40625 
Q 43.21875 41.609375 39.140625 45 
Q 35.0625 48.390625 27.6875 48.390625 
Q 23 48.390625 18.546875 47.265625 
Q 14.109375 46.140625 10.015625 43.890625 
L 10.015625 52.203125 
Q 14.9375 54.109375 19.578125 55.046875 
Q 24.21875 56 28.609375 56 
Q 40.484375 56 46.34375 49.84375 
Q 52.203125 43.703125 52.203125 31.203125 
z
" id="DejaVuSans-97"/>
      <path d="M 44.28125 53.078125 
L 44.28125 44.578125 
Q 40.484375 46.53125 36.375 47.5 
Q 32.28125 48.484375 27.875 48.484375 
Q 21.1875 48.484375 17.84375 46.4375 
Q 14.5 44.390625 14.5 40.28125 
Q 14.5 37.15625 16.890625 35.375 
Q 19.28125 33.59375 26.515625 31.984375 
L 29.59375 31.296875 
Q 39.15625 29.25 43.1875 25.515625 
Q 47.21875 21.78125 47.21875 15.09375 
Q 47.21875 7.46875 41.1875 3.015625 
Q 35.15625 -1.421875 24.609375 -1.421875 
Q 20.21875 -1.421875 15.453125 -0.5625 
Q 10.6875 0.296875 5.421875 2 
L 5.421875 11.28125 
Q 10.40625 8.6875 15.234375 7.390625 
Q 20.0625 6.109375 24.8125 6.109375 
Q 31.15625 6.109375 34.5625 8.28125 
Q 37.984375 10.453125 37.984375 14.40625 
Q 37.984375 18.0625 35.515625 20.015625 
Q 33.0625 21.96875 24.703125 23.78125 
L 21.578125 24.515625 
Q 13.234375 26.265625 9.515625 29.90625 
Q 5.8125 33.546875 5.8125 39.890625 
Q 5.8125 47.609375 11.28125 51.796875 
Q 16.75 56 26.8125 56 
Q 31.78125 56 36.171875 55.265625 
Q 40.578125 54.546875 44.28125 53.078125 
z
" id="DejaVuSans-115"/>
     </defs>
     <g transform="translate(132.56675 165.992072)scale(0.1 -0.1)">
      <use xlink:href="#DejaVuSans-68"/>
      <use x="77.001953" xlink:href="#DejaVuSans-105"/>
      <use x="104.785156" xlink:href="#DejaVuSans-97"/>
      <use x="166.064453" xlink:href="#DejaVuSans-115"/>
     </g>
    </g>
   </g>
   <g id="matplotlib.axis_2">
    <g id="ytick_1">
     <g id="line2d_5">
      <defs>
       <path d="M 0 0 
L -3.5 0 
" id="mbd89b70130" style="stroke:#000000;stroke-width:0.8;"/>
      </defs>
      <g>
       <use style="stroke:#000000;stroke-width:0.8;" x="55.490865" xlink:href="#mbd89b70130" y="137.71551"/>
      </g>
     </g>
     <g id="text_6">
      <!-- 0 -->
      <g transform="translate(42.128365 141.514729)scale(0.1 -0.1)">
       <use xlink:href="#DejaVuSans-48"/>
      </g>
     </g>
    </g>
    <g id="ytick_2">
     <g id="line2d_6">
      <g>
       <use style="stroke:#000000;stroke-width:0.8;" x="55.490865" xlink:href="#mbd89b70130" y="112.831076"/>
      </g>
     </g>
     <g id="text_7">
      <!-- 2500 -->
      <g transform="translate(23.040865 116.630295)scale(0.1 -0.1)">
       <use xlink:href="#DejaVuSans-50"/>
       <use x="63.623047" xlink:href="#DejaVuSans-53"/>
       <use x="127.246094" xlink:href="#DejaVuSans-48"/>
       <use x="190.869141" xlink:href="#DejaVuSans-48"/>
      </g>
     </g>
    </g>
    <g id="ytick_3">
     <g id="line2d_7">
      <g>
       <use style="stroke:#000000;stroke-width:0.8;" x="55.490865" xlink:href="#mbd89b70130" y="87.946642"/>
      </g>
     </g>
     <g id="text_8">
      <!-- 5000 -->
      <g transform="translate(23.040865 91.745861)scale(0.1 -0.1)">
       <use xlink:href="#DejaVuSans-53"/>
       <use x="63.623047" xlink:href="#DejaVuSans-48"/>
       <use x="127.246094" xlink:href="#DejaVuSans-48"/>
       <use x="190.869141" xlink:href="#DejaVuSans-48"/>
      </g>
     </g>
    </g>
    <g id="ytick_4">
     <g id="line2d_8">
      <g>
       <use style="stroke:#000000;stroke-width:0.8;" x="55.490865" xlink:href="#mbd89b70130" y="63.062208"/>
      </g>
     </g>
     <g id="text_9">
      <!-- 7500 -->
      <g transform="translate(23.040865 66.861427)scale(0.1 -0.1)">
       <use xlink:href="#DejaVuSans-55"/>
       <use x="63.623047" xlink:href="#DejaVuSans-53"/>
       <use x="127.246094" xlink:href="#DejaVuSans-48"/>
       <use x="190.869141" xlink:href="#DejaVuSans-48"/>
      </g>
     </g>
    </g>
    <g id="ytick_5">
     <g id="line2d_9">
      <g>
       <use style="stroke:#000000;stroke-width:0.8;" x="55.490865" xlink:href="#mbd89b70130" y="38.177774"/>
      </g>
     </g>
     <g id="text_10">
      <!-- 10000 -->
      <defs>
       <path d="M 12.40625 8.296875 
L 28.515625 8.296875 
L 28.515625 63.921875 
L 10.984375 60.40625 
L 10.984375 69.390625 
L 28.421875 72.90625 
L 38.28125 72.90625 
L 38.28125 8.296875 
L 54.390625 8.296875 
L 54.390625 0 
L 12.40625 0 
z
" id="DejaVuSans-49"/>
      </defs>
      <g transform="translate(16.678365 41.976993)scale(0.1 -0.1)">
       <use xlink:href="#DejaVuSans-49"/>
       <use x="63.623047" xlink:href="#DejaVuSans-48"/>
       <use x="127.246094" xlink:href="#DejaVuSans-48"/>
       <use x="190.869141" xlink:href="#DejaVuSans-48"/>
       <use x="254.492188" xlink:href="#DejaVuSans-48"/>
      </g>
     </g>
    </g>
    <g id="text_11">
     <!-- Casos -->
     <defs>
      <path d="M 64.40625 67.28125 
L 64.40625 56.890625 
Q 59.421875 61.53125 53.78125 63.8125 
Q 48.140625 66.109375 41.796875 66.109375 
Q 29.296875 66.109375 22.65625 58.46875 
Q 16.015625 50.828125 16.015625 36.375 
Q 16.015625 21.96875 22.65625 14.328125 
Q 29.296875 6.6875 41.796875 6.6875 
Q 48.140625 6.6875 53.78125 8.984375 
Q 59.421875 11.28125 64.40625 15.921875 
L 64.40625 5.609375 
Q 59.234375 2.09375 53.4375 0.328125 
Q 47.65625 -1.421875 41.21875 -1.421875 
Q 24.65625 -1.421875 15.125 8.703125 
Q 5.609375 18.84375 5.609375 36.375 
Q 5.609375 53.953125 15.125 64.078125 
Q 24.65625 74.21875 41.21875 74.21875 
Q 47.75 74.21875 53.53125 72.484375 
Q 59.328125 70.75 64.40625 67.28125 
z
" id="DejaVuSans-67"/>
      <path d="M 30.609375 48.390625 
Q 23.390625 48.390625 19.1875 42.75 
Q 14.984375 37.109375 14.984375 27.296875 
Q 14.984375 17.484375 19.15625 11.84375 
Q 23.34375 6.203125 30.609375 6.203125 
Q 37.796875 6.203125 41.984375 11.859375 
Q 46.1875 17.53125 46.1875 27.296875 
Q 46.1875 37.015625 41.984375 42.703125 
Q 37.796875 48.390625 30.609375 48.390625 
z
M 30.609375 56 
Q 42.328125 56 49.015625 48.375 
Q 55.71875 40.765625 55.71875 27.296875 
Q 55.71875 13.875 49.015625 6.21875 
Q 42.328125 -1.421875 30.609375 -1.421875 
Q 18.84375 -1.421875 12.171875 6.21875 
Q 5.515625 13.875 5.515625 27.296875 
Q 5.515625 40.765625 12.171875 48.375 
Q 18.84375 56 30.609375 56 
z
" id="DejaVuSans-111"/>
     </defs>
     <g transform="translate(10.598678 92.741156)rotate(-90)scale(0.1 -0.1)">
      <use xlink:href="#DejaVuSans-67"/>
      <use x="69.824219" xlink:href="#DejaVuSans-97"/>
      <use x="131.103516" xlink:href="#DejaVuSans-115"/>
      <use x="183.203125" xlink:href="#DejaVuSans-111"/>
      <use x="244.384766" xlink:href="#DejaVuSans-115"/>
     </g>
    </g>
   </g>
   <g id="line2d_10">
    <path clip-path="url(#p12d4512246)" d="M 64.171559 137.626759 
L 65.877 137.609584 
L 67.582441 137.588209 
L 69.287882 137.563961 
L 70.993323 137.537283 
L 72.698764 137.508881 
L 74.404205 137.479596 
L 76.109646 137.450025 
L 77.815087 137.420661 
L 79.520528 137.391936 
L 81.225969 137.364234 
L 82.93141 137.337756 
L 84.63685 137.312293 
L 86.342291 137.287295 
L 88.047732 137.261998 
L 89.753173 137.235528 
L 91.458614 137.206852 
L 93.164055 137.174777 
L 94.869496 137.138034 
L 96.574937 137.095524 
L 98.280378 137.046364 
L 99.985819 136.989734 
L 101.69126 136.924767 
L 103.396701 136.850784 
L 105.102142 136.767257 
L 106.807583 136.673946 
L 108.513023 136.570789 
L 110.218464 136.45786 
L 111.923905 136.335521 
L 113.629346 136.204336 
L 115.334787 136.064344 
L 117.040228 135.915046 
L 118.745669 135.754865 
L 120.45111 135.580722 
L 122.156551 135.38789 
L 123.861992 135.169732 
L 125.567433 134.918027 
L 127.272874 134.623862 
L 128.978315 134.277598 
L 130.683756 133.869937 
L 132.389196 133.393288 
L 134.094637 132.842103 
L 135.800078 132.213776 
L 137.505519 131.508559 
L 139.21096 130.730054 
L 140.916401 129.886198 
L 142.621842 128.988248 
L 144.327283 128.048078 
L 146.032724 127.077666 
L 147.738165 126.086928 
L 149.443606 125.082306 
L 151.149047 124.063796 
L 152.854488 123.021215 
L 154.559929 121.933999 
L 156.265369 120.774648 
L 157.97081 119.50971 
L 159.676251 118.102712 
L 161.381692 116.51728 
L 163.087133 114.721364 
L 164.792574 112.695272 
L 166.498015 110.434111 
L 168.203456 107.947007 
L 169.908897 105.256806 
L 171.614338 102.399853 
L 173.319779 99.423716 
L 175.02522 96.384192 
L 176.730661 93.335808 
L 178.436102 90.326767 
L 180.141542 87.395511 
L 181.846983 84.568275 
L 183.552424 81.854866 
L 185.257865 79.248781 
L 186.963306 76.728515 
L 188.668747 74.263176 
L 190.374188 71.820289 
L 192.079629 69.369683 
L 193.78507 66.888138 
L 195.490511 64.363868 
L 197.195952 61.796988 
L 198.901393 59.198021 
L 200.606834 56.586377 
L 202.312275 53.981485 
L 204.017715 51.400353 
L 205.723156 48.853223 
L 207.428597 46.343073 
L 209.134038 43.864575 
L 210.839479 41.406221 
L 212.54492 38.951751 
L 214.250361 36.487311 
L 215.955802 34.000928 
L 217.661243 31.485928 
L 219.366684 28.95041 
L 221.072125 26.392245 
L 222.777566 23.813467 
" style="fill:none;stroke:#ff0000;stroke-linecap:square;stroke-width:1.5;"/>
   </g>
   <g id="patch_97">
    <path d="M 55.490865 137.71551 
L 55.490865 18.118365 
" style="fill:none;stroke:#000000;stroke-linecap:square;stroke-linejoin:miter;stroke-width:0.8;"/>
   </g>
   <g id="patch_98">
    <path d="M 231.45826 137.71551 
L 231.45826 18.118365 
" style="fill:none;stroke:#000000;stroke-linecap:square;stroke-linejoin:miter;stroke-width:0.8;"/>
   </g>
   <g id="patch_99">
    <path d="M 55.490865 137.71551 
L 231.45826 137.71551 
" style="fill:none;stroke:#000000;stroke-linecap:square;stroke-linejoin:miter;stroke-width:0.8;"/>
   </g>
   <g id="patch_100">
    <path d="M 55.490865 18.118365 
L 231.45826 18.118365 
" style="fill:none;stroke:#000000;stroke-linecap:square;stroke-linejoin:miter;stroke-width:0.8;"/>
   </g>
   <g id="text_12">
    <!-- Casos acumulados - AC -->
    <defs>
     <path id="DejaVuSans-32"/>
     <path d="M 48.78125 52.59375 
L 48.78125 44.1875 
Q 44.96875 46.296875 41.140625 47.34375 
Q 37.3125 48.390625 33.40625 48.390625 
Q 24.65625 48.390625 19.8125 42.84375 
Q 14.984375 37.3125 14.984375 27.296875 
Q 14.984375 17.28125 19.8125 11.734375 
Q 24.65625 6.203125 33.40625 6.203125 
Q 37.3125 6.203125 41.140625 7.25 
Q 44.96875 8.296875 48.78125 10.40625 
L 48.78125 2.09375 
Q 45.015625 0.34375 40.984375 -0.53125 
Q 36.96875 -1.421875 32.421875 -1.421875 
Q 20.0625 -1.421875 12.78125 6.34375 
Q 5.515625 14.109375 5.515625 27.296875 
Q 5.515625 40.671875 12.859375 48.328125 
Q 20.21875 56 33.015625 56 
Q 37.15625 56 41.109375 55.140625 
Q 45.0625 54.296875 48.78125 52.59375 
z
" id="DejaVuSans-99"/>
     <path d="M 8.5 21.578125 
L 8.5 54.6875 
L 17.484375 54.6875 
L 17.484375 21.921875 
Q 17.484375 14.15625 20.5 10.265625 
Q 23.53125 6.390625 29.59375 6.390625 
Q 36.859375 6.390625 41.078125 11.03125 
Q 45.3125 15.671875 45.3125 23.6875 
L 45.3125 54.6875 
L 54.296875 54.6875 
L 54.296875 0 
L 45.3125 0 
L 45.3125 8.40625 
Q 42.046875 3.421875 37.71875 1 
Q 33.40625 -1.421875 27.6875 -1.421875 
Q 18.265625 -1.421875 13.375 4.4375 
Q 8.5 10.296875 8.5 21.578125 
z
M 31.109375 56 
z
" id="DejaVuSans-117"/>
     <path d="M 52 44.1875 
Q 55.375 50.25 60.0625 53.125 
Q 64.75 56 71.09375 56 
Q 79.640625 56 84.28125 50.015625 
Q 88.921875 44.046875 88.921875 33.015625 
L 88.921875 0 
L 79.890625 0 
L 79.890625 32.71875 
Q 79.890625 40.578125 77.09375 44.375 
Q 74.3125 48.1875 68.609375 48.1875 
Q 61.625 48.1875 57.5625 43.546875 
Q 53.515625 38.921875 53.515625 30.90625 
L 53.515625 0 
L 44.484375 0 
L 44.484375 32.71875 
Q 44.484375 40.625 41.703125 44.40625 
Q 38.921875 48.1875 33.109375 48.1875 
Q 26.21875 48.1875 22.15625 43.53125 
Q 18.109375 38.875 18.109375 30.90625 
L 18.109375 0 
L 9.078125 0 
L 9.078125 54.6875 
L 18.109375 54.6875 
L 18.109375 46.1875 
Q 21.1875 51.21875 25.484375 53.609375 
Q 29.78125 56 35.6875 56 
Q 41.65625 56 45.828125 52.96875 
Q 50 49.953125 52 44.1875 
z
" id="DejaVuSans-109"/>
     <path d="M 9.421875 75.984375 
L 18.40625 75.984375 
L 18.40625 0 
L 9.421875 0 
z
" id="DejaVuSans-108"/>
     <path d="M 45.40625 46.390625 
L 45.40625 75.984375 
L 54.390625 75.984375 
L 54.390625 0 
L 45.40625 0 
L 45.40625 8.203125 
Q 42.578125 3.328125 38.25 0.953125 
Q 33.9375 -1.421875 27.875 -1.421875 
Q 17.96875 -1.421875 11.734375 6.484375 
Q 5.515625 14.40625 5.515625 27.296875 
Q 5.515625 40.1875 11.734375 48.09375 
Q 17.96875 56 27.875 56 
Q 33.9375 56 38.25 53.625 
Q 42.578125 51.265625 45.40625 46.390625 
z
M 14.796875 27.296875 
Q 14.796875 17.390625 18.875 11.75 
Q 22.953125 6.109375 30.078125 6.109375 
Q 37.203125 6.109375 41.296875 11.75 
Q 45.40625 17.390625 45.40625 27.296875 
Q 45.40625 37.203125 41.296875 42.84375 
Q 37.203125 48.484375 30.078125 48.484375 
Q 22.953125 48.484375 18.875 42.84375 
Q 14.796875 37.203125 14.796875 27.296875 
z
" id="DejaVuSans-100"/>
     <path d="M 4.890625 31.390625 
L 31.203125 31.390625 
L 31.203125 23.390625 
L 4.890625 23.390625 
z
" id="DejaVuSans-45"/>
     <path d="M 34.1875 63.1875 
L 20.796875 26.90625 
L 47.609375 26.90625 
z
M 28.609375 72.90625 
L 39.796875 72.90625 
L 67.578125 0 
L 57.328125 0 
L 50.6875 18.703125 
L 17.828125 18.703125 
L 11.1875 0 
L 0.78125 0 
z
" id="DejaVuSans-65"/>
    </defs>
    <g transform="translate(73.236125 12.118365)scale(0.12 -0.12)">
     <use xlink:href="#DejaVuSans-67"/>
     <use x="69.824219" xlink:href="#DejaVuSans-97"/>
     <use x="131.103516" xlink:href="#DejaVuSans-115"/>
     <use x="183.203125" xlink:href="#DejaVuSans-111"/>
     <use x="244.384766" xlink:href="#DejaVuSans-115"/>
     <use x="296.484375" xlink:href="#DejaVuSans-32"/>
     <use x="328.271484" xlink:href="#DejaVuSans-97"/>
     <use x="389.550781" xlink:href="#DejaVuSans-99"/>
     <use x="444.53125" xlink:href="#DejaVuSans-117"/>
     <use x="507.910156" xlink:href="#DejaVuSans-109"/>
     <use x="605.322266" xlink:href="#DejaVuSans-117"/>
     <use x="668.701172" xlink:href="#DejaVuSans-108"/>
     <use x="696.484375" xlink:href="#DejaVuSans-97"/>
     <use x="757.763672" xlink:href="#DejaVuSans-100"/>
     <use x="821.240234" xlink:href="#DejaVuSans-111"/>
     <use x="882.421875" xlink:href="#DejaVuSans-115"/>
     <use x="934.521484" xlink:href="#DejaVuSans-32"/>
     <use x="966.308594" xlink:href="#DejaVuSans-45"/>
     <use x="1002.392578" xlink:href="#DejaVuSans-32"/>
     <use x="1034.179688" xlink:href="#DejaVuSans-65"/>
     <use x="1100.837891" xlink:href="#DejaVuSans-67"/>
    </g>
   </g>
  </g>
  <g id="axes_2">
   <g id="patch_101">
    <path d="M 281.832365 137.71551 
L 457.79976 137.71551 
L 457.79976 18.118365 
L 281.832365 18.118365 
z
" style="fill:#ffffff;"/>
   </g>
   <g id="patch_102">
    <path clip-path="url(#pecffac9965)" d="M 289.830883 137.71551 
L 291.195236 137.71551 
L 291.195236 136.846029 
L 289.830883 136.846029 
z
" style="fill:#1f77b4;"/>
   </g>
   <g id="patch_103">
    <path clip-path="url(#pecffac9965)" d="M 291.536324 137.71551 
L 292.900677 137.71551 
L 292.900677 137.280769 
L 291.536324 137.280769 
z
" style="fill:#1f77b4;"/>
   </g>
   <g id="patch_104">
    <path clip-path="url(#pecffac9965)" d="M 293.241765 137.71551 
L 294.606118 137.71551 
L 294.606118 137.280769 
L 293.241765 137.280769 
z
" style="fill:#1f77b4;"/>
   </g>
   <g id="patch_105">
    <path clip-path="url(#pecffac9965)" d="M 294.947206 137.71551 
L 296.311558 137.71551 
L 296.311558 137.71551 
L 294.947206 137.71551 
z
" style="fill:#1f77b4;"/>
   </g>
   <g id="patch_106">
    <path clip-path="url(#pecffac9965)" d="M 296.652647 137.71551 
L 298.016999 137.71551 
L 298.016999 136.411288 
L 296.652647 136.411288 
z
" style="fill:#1f77b4;"/>
   </g>
   <g id="patch_107">
    <path clip-path="url(#pecffac9965)" d="M 298.358088 137.71551 
L 299.72244 137.71551 
L 299.72244 136.411288 
L 298.358088 136.411288 
z
" style="fill:#1f77b4;"/>
   </g>
   <g id="patch_108">
    <path clip-path="url(#pecffac9965)" d="M 300.063529 137.71551 
L 301.427881 137.71551 
L 301.427881 137.49814 
L 300.063529 137.49814 
z
" style="fill:#1f77b4;"/>
   </g>
   <g id="patch_109">
    <path clip-path="url(#pecffac9965)" d="M 301.768969 137.71551 
L 303.133322 137.71551 
L 303.133322 137.49814 
L 301.768969 137.49814 
z
" style="fill:#1f77b4;"/>
   </g>
   <g id="patch_110">
    <path clip-path="url(#pecffac9965)" d="M 303.47441 137.71551 
L 304.838763 137.71551 
L 304.838763 137.71551 
L 303.47441 137.71551 
z
" style="fill:#1f77b4;"/>
   </g>
   <g id="patch_111">
    <path clip-path="url(#pecffac9965)" d="M 305.179851 137.71551 
L 306.544204 137.71551 
L 306.544204 135.759177 
L 305.179851 135.759177 
z
" style="fill:#1f77b4;"/>
   </g>
   <g id="patch_112">
    <path clip-path="url(#pecffac9965)" d="M 306.885292 137.71551 
L 308.249645 137.71551 
L 308.249645 135.976548 
L 306.885292 135.976548 
z
" style="fill:#1f77b4;"/>
   </g>
   <g id="patch_113">
    <path clip-path="url(#pecffac9965)" d="M 308.590733 137.71551 
L 309.955086 137.71551 
L 309.955086 137.71551 
L 308.590733 137.71551 
z
" style="fill:#1f77b4;"/>
   </g>
   <g id="patch_114">
    <path clip-path="url(#pecffac9965)" d="M 310.296174 137.71551 
L 311.660527 137.71551 
L 311.660527 137.49814 
L 310.296174 137.49814 
z
" style="fill:#1f77b4;"/>
   </g>
   <g id="patch_115">
    <path clip-path="url(#pecffac9965)" d="M 312.001615 137.71551 
L 313.365968 137.71551 
L 313.365968 137.71551 
L 312.001615 137.71551 
z
" style="fill:#1f77b4;"/>
   </g>
   <g id="patch_116">
    <path clip-path="url(#pecffac9965)" d="M 313.707056 137.71551 
L 315.071409 137.71551 
L 315.071409 137.063399 
L 313.707056 137.063399 
z
" style="fill:#1f77b4;"/>
   </g>
   <g id="patch_117">
    <path clip-path="url(#pecffac9965)" d="M 315.412497 137.71551 
L 316.77685 137.71551 
L 316.77685 137.71551 
L 315.412497 137.71551 
z
" style="fill:#1f77b4;"/>
   </g>
   <g id="patch_118">
    <path clip-path="url(#pecffac9965)" d="M 317.117938 137.71551 
L 318.482291 137.71551 
L 318.482291 137.280769 
L 317.117938 137.280769 
z
" style="fill:#1f77b4;"/>
   </g>
   <g id="patch_119">
    <path clip-path="url(#pecffac9965)" d="M 318.823379 137.71551 
L 320.187731 137.71551 
L 320.187731 137.280769 
L 318.823379 137.280769 
z
" style="fill:#1f77b4;"/>
   </g>
   <g id="patch_120">
    <path clip-path="url(#pecffac9965)" d="M 320.52882 137.71551 
L 321.893172 137.71551 
L 321.893172 137.71551 
L 320.52882 137.71551 
z
" style="fill:#1f77b4;"/>
   </g>
   <g id="patch_121">
    <path clip-path="url(#pecffac9965)" d="M 322.234261 137.71551 
L 323.598613 137.71551 
L 323.598613 136.846029 
L 322.234261 136.846029 
z
" style="fill:#1f77b4;"/>
   </g>
   <g id="patch_122">
    <path clip-path="url(#pecffac9965)" d="M 323.939702 137.71551 
L 325.304054 137.71551 
L 325.304054 135.976548 
L 323.939702 135.976548 
z
" style="fill:#1f77b4;"/>
   </g>
   <g id="patch_123">
    <path clip-path="url(#pecffac9965)" d="M 325.645142 137.71551 
L 327.009495 137.71551 
L 327.009495 135.976548 
L 325.645142 135.976548 
z
" style="fill:#1f77b4;"/>
   </g>
   <g id="patch_124">
    <path clip-path="url(#pecffac9965)" d="M 327.350583 137.71551 
L 328.714936 137.71551 
L 328.714936 137.280769 
L 327.350583 137.280769 
z
" style="fill:#1f77b4;"/>
   </g>
   <g id="patch_125">
    <path clip-path="url(#pecffac9965)" d="M 329.056024 137.71551 
L 330.420377 137.71551 
L 330.420377 136.628658 
L 329.056024 136.628658 
z
" style="fill:#1f77b4;"/>
   </g>
   <g id="patch_126">
    <path clip-path="url(#pecffac9965)" d="M 330.761465 137.71551 
L 332.125818 137.71551 
L 332.125818 134.889696 
L 330.761465 134.889696 
z
" style="fill:#1f77b4;"/>
   </g>
   <g id="patch_127">
    <path clip-path="url(#pecffac9965)" d="M 332.466906 137.71551 
L 333.831259 137.71551 
L 333.831259 135.759177 
L 332.466906 135.759177 
z
" style="fill:#1f77b4;"/>
   </g>
   <g id="patch_128">
    <path clip-path="url(#pecffac9965)" d="M 334.172347 137.71551 
L 335.5367 137.71551 
L 335.5367 137.280769 
L 334.172347 137.280769 
z
" style="fill:#1f77b4;"/>
   </g>
   <g id="patch_129">
    <path clip-path="url(#pecffac9965)" d="M 335.877788 137.71551 
L 337.242141 137.71551 
L 337.242141 135.759177 
L 335.877788 135.759177 
z
" style="fill:#1f77b4;"/>
   </g>
   <g id="patch_130">
    <path clip-path="url(#pecffac9965)" d="M 337.583229 137.71551 
L 338.947582 137.71551 
L 338.947582 132.281252 
L 337.583229 132.281252 
z
" style="fill:#1f77b4;"/>
   </g>
   <g id="patch_131">
    <path clip-path="url(#pecffac9965)" d="M 339.28867 137.71551 
L 340.653023 137.71551 
L 340.653023 136.193918 
L 339.28867 136.193918 
z
" style="fill:#1f77b4;"/>
   </g>
   <g id="patch_132">
    <path clip-path="url(#pecffac9965)" d="M 340.994111 137.71551 
L 342.358464 137.71551 
L 342.358464 133.150733 
L 340.994111 133.150733 
z
" style="fill:#1f77b4;"/>
   </g>
   <g id="patch_133">
    <path clip-path="url(#pecffac9965)" d="M 342.699552 137.71551 
L 344.063904 137.71551 
L 344.063904 134.889696 
L 342.699552 134.889696 
z
" style="fill:#1f77b4;"/>
   </g>
   <g id="patch_134">
    <path clip-path="url(#pecffac9965)" d="M 344.404993 137.71551 
L 345.769345 137.71551 
L 345.769345 133.585474 
L 344.404993 133.585474 
z
" style="fill:#1f77b4;"/>
   </g>
   <g id="patch_135">
    <path clip-path="url(#pecffac9965)" d="M 346.110434 137.71551 
L 347.474786 137.71551 
L 347.474786 133.585474 
L 346.110434 133.585474 
z
" style="fill:#1f77b4;"/>
   </g>
   <g id="patch_136">
    <path clip-path="url(#pecffac9965)" d="M 347.815875 137.71551 
L 349.180227 137.71551 
L 349.180227 134.889696 
L 347.815875 134.889696 
z
" style="fill:#1f77b4;"/>
   </g>
   <g id="patch_137">
    <path clip-path="url(#pecffac9965)" d="M 349.521315 137.71551 
L 350.885668 137.71551 
L 350.885668 136.193918 
L 349.521315 136.193918 
z
" style="fill:#1f77b4;"/>
   </g>
   <g id="patch_138">
    <path clip-path="url(#pecffac9965)" d="M 351.226756 137.71551 
L 352.591109 137.71551 
L 352.591109 132.498623 
L 351.226756 132.498623 
z
" style="fill:#1f77b4;"/>
   </g>
   <g id="patch_139">
    <path clip-path="url(#pecffac9965)" d="M 352.932197 137.71551 
L 354.29655 137.71551 
L 354.29655 133.150733 
L 352.932197 133.150733 
z
" style="fill:#1f77b4;"/>
   </g>
   <g id="patch_140">
    <path clip-path="url(#pecffac9965)" d="M 354.637638 137.71551 
L 356.001991 137.71551 
L 356.001991 137.71551 
L 354.637638 137.71551 
z
" style="fill:#1f77b4;"/>
   </g>
   <g id="patch_141">
    <path clip-path="url(#pecffac9965)" d="M 356.343079 137.71551 
L 357.707432 137.71551 
L 357.707432 130.75966 
L 356.343079 130.75966 
z
" style="fill:#1f77b4;"/>
   </g>
   <g id="patch_142">
    <path clip-path="url(#pecffac9965)" d="M 358.04852 137.71551 
L 359.412873 137.71551 
L 359.412873 128.368587 
L 358.04852 128.368587 
z
" style="fill:#1f77b4;"/>
   </g>
   <g id="patch_143">
    <path clip-path="url(#pecffac9965)" d="M 359.753961 137.71551 
L 361.118314 137.71551 
L 361.118314 126.846994 
L 359.753961 126.846994 
z
" style="fill:#1f77b4;"/>
   </g>
   <g id="patch_144">
    <path clip-path="url(#pecffac9965)" d="M 361.459402 137.71551 
L 362.823755 137.71551 
L 362.823755 119.891145 
L 361.459402 119.891145 
z
" style="fill:#1f77b4;"/>
   </g>
   <g id="patch_145">
    <path clip-path="url(#pecffac9965)" d="M 363.164843 137.71551 
L 364.529196 137.71551 
L 364.529196 123.151699 
L 363.164843 123.151699 
z
" style="fill:#1f77b4;"/>
   </g>
   <g id="patch_146">
    <path clip-path="url(#pecffac9965)" d="M 364.870284 137.71551 
L 366.234637 137.71551 
L 366.234637 115.108998 
L 364.870284 115.108998 
z
" style="fill:#1f77b4;"/>
   </g>
   <g id="patch_147">
    <path clip-path="url(#pecffac9965)" d="M 366.575725 137.71551 
L 367.940077 137.71551 
L 367.940077 121.195366 
L 366.575725 121.195366 
z
" style="fill:#1f77b4;"/>
   </g>
   <g id="patch_148">
    <path clip-path="url(#pecffac9965)" d="M 368.281166 137.71551 
L 369.645518 137.71551 
L 369.645518 119.456404 
L 368.281166 119.456404 
z
" style="fill:#1f77b4;"/>
   </g>
   <g id="patch_149">
    <path clip-path="url(#pecffac9965)" d="M 369.986607 137.71551 
L 371.350959 137.71551 
L 371.350959 110.326851 
L 369.986607 110.326851 
z
" style="fill:#1f77b4;"/>
   </g>
   <g id="patch_150">
    <path clip-path="url(#pecffac9965)" d="M 371.692048 137.71551 
L 373.0564 137.71551 
L 373.0564 122.282218 
L 371.692048 122.282218 
z
" style="fill:#1f77b4;"/>
   </g>
   <g id="patch_151">
    <path clip-path="url(#pecffac9965)" d="M 373.397488 137.71551 
L 374.761841 137.71551 
L 374.761841 102.284149 
L 373.397488 102.284149 
z
" style="fill:#1f77b4;"/>
   </g>
   <g id="patch_152">
    <path clip-path="url(#pecffac9965)" d="M 375.102929 137.71551 
L 376.467282 137.71551 
L 376.467282 103.371001 
L 375.102929 103.371001 
z
" style="fill:#1f77b4;"/>
   </g>
   <g id="patch_153">
    <path clip-path="url(#pecffac9965)" d="M 376.80837 137.71551 
L 378.172723 137.71551 
L 378.172723 113.370035 
L 376.80837 113.370035 
z
" style="fill:#1f77b4;"/>
   </g>
   <g id="patch_154">
    <path clip-path="url(#pecffac9965)" d="M 378.513811 137.71551 
L 379.878164 137.71551 
L 379.878164 134.889696 
L 378.513811 134.889696 
z
" style="fill:#1f77b4;"/>
   </g>
   <g id="patch_155">
    <path clip-path="url(#pecffac9965)" d="M 380.219252 137.71551 
L 381.583605 137.71551 
L 381.583605 109.45737 
L 380.219252 109.45737 
z
" style="fill:#1f77b4;"/>
   </g>
   <g id="patch_156">
    <path clip-path="url(#pecffac9965)" d="M 381.924693 137.71551 
L 383.289046 137.71551 
L 383.289046 115.108998 
L 381.924693 115.108998 
z
" style="fill:#1f77b4;"/>
   </g>
   <g id="patch_157">
    <path clip-path="url(#pecffac9965)" d="M 383.630134 137.71551 
L 384.994487 137.71551 
L 384.994487 127.716476 
L 383.630134 127.716476 
z
" style="fill:#1f77b4;"/>
   </g>
   <g id="patch_158">
    <path clip-path="url(#pecffac9965)" d="M 385.335575 137.71551 
L 386.699928 137.71551 
L 386.699928 127.933846 
L 385.335575 127.933846 
z
" style="fill:#1f77b4;"/>
   </g>
   <g id="patch_159">
    <path clip-path="url(#pecffac9965)" d="M 387.041016 137.71551 
L 388.405369 137.71551 
L 388.405369 119.891145 
L 387.041016 119.891145 
z
" style="fill:#1f77b4;"/>
   </g>
   <g id="patch_160">
    <path clip-path="url(#pecffac9965)" d="M 388.746457 137.71551 
L 390.11081 137.71551 
L 390.11081 109.45737 
L 388.746457 109.45737 
z
" style="fill:#1f77b4;"/>
   </g>
   <g id="patch_161">
    <path clip-path="url(#pecffac9965)" d="M 390.451898 137.71551 
L 391.81625 137.71551 
L 391.81625 86.198746 
L 390.451898 86.198746 
z
" style="fill:#1f77b4;"/>
   </g>
   <g id="patch_162">
    <path clip-path="url(#pecffac9965)" d="M 392.157339 137.71551 
L 393.521691 137.71551 
L 393.521691 83.807673 
L 392.157339 83.807673 
z
" style="fill:#1f77b4;"/>
   </g>
   <g id="patch_163">
    <path clip-path="url(#pecffac9965)" d="M 393.86278 137.71551 
L 395.227132 137.71551 
L 395.227132 64.896456 
L 393.86278 64.896456 
z
" style="fill:#1f77b4;"/>
   </g>
   <g id="patch_164">
    <path clip-path="url(#pecffac9965)" d="M 395.568221 137.71551 
L 396.932573 137.71551 
L 396.932573 75.547601 
L 395.568221 75.547601 
z
" style="fill:#1f77b4;"/>
   </g>
   <g id="patch_165">
    <path clip-path="url(#pecffac9965)" d="M 397.273661 137.71551 
L 398.638014 137.71551 
L 398.638014 85.546635 
L 397.273661 85.546635 
z
" style="fill:#1f77b4;"/>
   </g>
   <g id="patch_166">
    <path clip-path="url(#pecffac9965)" d="M 398.979102 137.71551 
L 400.343455 137.71551 
L 400.343455 23.813467 
L 398.979102 23.813467 
z
" style="fill:#1f77b4;"/>
   </g>
   <g id="patch_167">
    <path clip-path="url(#pecffac9965)" d="M 400.684543 137.71551 
L 402.048896 137.71551 
L 402.048896 74.026009 
L 400.684543 74.026009 
z
" style="fill:#1f77b4;"/>
   </g>
   <g id="patch_168">
    <path clip-path="url(#pecffac9965)" d="M 402.389984 137.71551 
L 403.754337 137.71551 
L 403.754337 63.592234 
L 402.389984 63.592234 
z
" style="fill:#1f77b4;"/>
   </g>
   <g id="patch_169">
    <path clip-path="url(#pecffac9965)" d="M 404.095425 137.71551 
L 405.459778 137.71551 
L 405.459778 76.851823 
L 404.095425 76.851823 
z
" style="fill:#1f77b4;"/>
   </g>
   <g id="patch_170">
    <path clip-path="url(#pecffac9965)" d="M 405.800866 137.71551 
L 407.165219 137.71551 
L 407.165219 35.551464 
L 405.800866 35.551464 
z
" style="fill:#1f77b4;"/>
   </g>
   <g id="patch_171">
    <path clip-path="url(#pecffac9965)" d="M 407.506307 137.71551 
L 408.87066 137.71551 
L 408.87066 61.853272 
L 407.506307 61.853272 
z
" style="fill:#1f77b4;"/>
   </g>
   <g id="patch_172">
    <path clip-path="url(#pecffac9965)" d="M 409.211748 137.71551 
L 410.576101 137.71551 
L 410.576101 85.329265 
L 409.211748 85.329265 
z
" style="fill:#1f77b4;"/>
   </g>
   <g id="patch_173">
    <path clip-path="url(#pecffac9965)" d="M 410.917189 137.71551 
L 412.281542 137.71551 
L 412.281542 87.502968 
L 410.917189 87.502968 
z
" style="fill:#1f77b4;"/>
   </g>
   <g id="patch_174">
    <path clip-path="url(#pecffac9965)" d="M 412.62263 137.71551 
L 413.986983 137.71551 
L 413.986983 105.762074 
L 412.62263 105.762074 
z
" style="fill:#1f77b4;"/>
   </g>
   <g id="patch_175">
    <path clip-path="url(#pecffac9965)" d="M 414.328071 137.71551 
L 415.692423 137.71551 
L 415.692423 114.456887 
L 414.328071 114.456887 
z
" style="fill:#1f77b4;"/>
   </g>
   <g id="patch_176">
    <path clip-path="url(#pecffac9965)" d="M 416.033512 137.71551 
L 417.397864 137.71551 
L 417.397864 107.501037 
L 416.033512 107.501037 
z
" style="fill:#1f77b4;"/>
   </g>
   <g id="patch_177">
    <path clip-path="url(#pecffac9965)" d="M 417.738953 137.71551 
L 419.103305 137.71551 
L 419.103305 91.198263 
L 417.738953 91.198263 
z
" style="fill:#1f77b4;"/>
   </g>
   <g id="patch_178">
    <path clip-path="url(#pecffac9965)" d="M 419.444394 137.71551 
L 420.808746 137.71551 
L 420.808746 63.374864 
L 419.444394 63.374864 
z
" style="fill:#1f77b4;"/>
   </g>
   <g id="patch_179">
    <path clip-path="url(#pecffac9965)" d="M 421.149834 137.71551 
L 422.514187 137.71551 
L 422.514187 80.547118 
L 421.149834 80.547118 
z
" style="fill:#1f77b4;"/>
   </g>
   <g id="patch_180">
    <path clip-path="url(#pecffac9965)" d="M 422.855275 137.71551 
L 424.219628 137.71551 
L 424.219628 85.329265 
L 422.855275 85.329265 
z
" style="fill:#1f77b4;"/>
   </g>
   <g id="patch_181">
    <path clip-path="url(#pecffac9965)" d="M 424.560716 137.71551 
L 425.925069 137.71551 
L 425.925069 38.159908 
L 424.560716 38.159908 
z
" style="fill:#1f77b4;"/>
   </g>
   <g id="patch_182">
    <path clip-path="url(#pecffac9965)" d="M 426.266157 137.71551 
L 427.63051 137.71551 
L 427.63051 106.196815 
L 426.266157 106.196815 
z
" style="fill:#1f77b4;"/>
   </g>
   <g id="patch_183">
    <path clip-path="url(#pecffac9965)" d="M 427.971598 137.71551 
L 429.335951 137.71551 
L 429.335951 66.200678 
L 427.971598 66.200678 
z
" style="fill:#1f77b4;"/>
   </g>
   <g id="patch_184">
    <path clip-path="url(#pecffac9965)" d="M 429.677039 137.71551 
L 431.041392 137.71551 
L 431.041392 74.89549 
L 429.677039 74.89549 
z
" style="fill:#1f77b4;"/>
   </g>
   <g id="patch_185">
    <path clip-path="url(#pecffac9965)" d="M 431.38248 137.71551 
L 432.746833 137.71551 
L 432.746833 62.722753 
L 431.38248 62.722753 
z
" style="fill:#1f77b4;"/>
   </g>
   <g id="patch_186">
    <path clip-path="url(#pecffac9965)" d="M 433.087921 137.71551 
L 434.452274 137.71551 
L 434.452274 93.371967 
L 433.087921 93.371967 
z
" style="fill:#1f77b4;"/>
   </g>
   <g id="patch_187">
    <path clip-path="url(#pecffac9965)" d="M 434.793362 137.71551 
L 436.157715 137.71551 
L 436.157715 85.764006 
L 434.793362 85.764006 
z
" style="fill:#1f77b4;"/>
   </g>
   <g id="patch_188">
    <path clip-path="url(#pecffac9965)" d="M 436.498803 137.71551 
L 437.863156 137.71551 
L 437.863156 114.239516 
L 436.498803 114.239516 
z
" style="fill:#1f77b4;"/>
   </g>
   <g id="patch_189">
    <path clip-path="url(#pecffac9965)" d="M 438.204244 137.71551 
L 439.568596 137.71551 
L 439.568596 109.67474 
L 438.204244 109.67474 
z
" style="fill:#1f77b4;"/>
   </g>
   <g id="patch_190">
    <path clip-path="url(#pecffac9965)" d="M 439.909685 137.71551 
L 441.274037 137.71551 
L 441.274037 87.285598 
L 439.909685 87.285598 
z
" style="fill:#1f77b4;"/>
   </g>
   <g id="patch_191">
    <path clip-path="url(#pecffac9965)" d="M 441.615126 137.71551 
L 442.979478 137.71551 
L 442.979478 64.679086 
L 441.615126 64.679086 
z
" style="fill:#1f77b4;"/>
   </g>
   <g id="patch_192">
    <path clip-path="url(#pecffac9965)" d="M 443.320567 137.71551 
L 444.684919 137.71551 
L 444.684919 67.070159 
L 443.320567 67.070159 
z
" style="fill:#1f77b4;"/>
   </g>
   <g id="patch_193">
    <path clip-path="url(#pecffac9965)" d="M 445.026007 137.71551 
L 446.39036 137.71551 
L 446.39036 67.5049 
L 445.026007 67.5049 
z
" style="fill:#1f77b4;"/>
   </g>
   <g id="patch_194">
    <path clip-path="url(#pecffac9965)" d="M 446.731448 137.71551 
L 448.095801 137.71551 
L 448.095801 77.721304 
L 446.731448 77.721304 
z
" style="fill:#1f77b4;"/>
   </g>
   <g id="patch_195">
    <path clip-path="url(#pecffac9965)" d="M 448.436889 137.71551 
L 449.801242 137.71551 
L 449.801242 112.065813 
L 448.436889 112.065813 
z
" style="fill:#1f77b4;"/>
   </g>
   <g id="matplotlib.axis_3">
    <g id="xtick_5">
     <g id="line2d_11">
      <g>
       <use style="stroke:#000000;stroke-width:0.8;" x="290.513059" xlink:href="#m4ae945b697" y="137.71551"/>
      </g>
     </g>
     <g id="text_13">
      <!-- 0 -->
      <g transform="translate(287.331809 152.313947)scale(0.1 -0.1)">
       <use xlink:href="#DejaVuSans-48"/>
      </g>
     </g>
    </g>
    <g id="xtick_6">
     <g id="line2d_12">
      <g>
       <use style="stroke:#000000;stroke-width:0.8;" x="333.149083" xlink:href="#m4ae945b697" y="137.71551"/>
      </g>
     </g>
     <g id="text_14">
      <!-- 25 -->
      <g transform="translate(326.786583 152.313947)scale(0.1 -0.1)">
       <use xlink:href="#DejaVuSans-50"/>
       <use x="63.623047" xlink:href="#DejaVuSans-53"/>
      </g>
     </g>
    </g>
    <g id="xtick_7">
     <g id="line2d_13">
      <g>
       <use style="stroke:#000000;stroke-width:0.8;" x="375.785106" xlink:href="#m4ae945b697" y="137.71551"/>
      </g>
     </g>
     <g id="text_15">
      <!-- 50 -->
      <g transform="translate(369.422606 152.313947)scale(0.1 -0.1)">
       <use xlink:href="#DejaVuSans-53"/>
       <use x="63.623047" xlink:href="#DejaVuSans-48"/>
      </g>
     </g>
    </g>
    <g id="xtick_8">
     <g id="line2d_14">
      <g>
       <use style="stroke:#000000;stroke-width:0.8;" x="418.421129" xlink:href="#m4ae945b697" y="137.71551"/>
      </g>
     </g>
     <g id="text_16">
      <!-- 75 -->
      <g transform="translate(412.058629 152.313947)scale(0.1 -0.1)">
       <use xlink:href="#DejaVuSans-55"/>
       <use x="63.623047" xlink:href="#DejaVuSans-53"/>
      </g>
     </g>
    </g>
    <g id="text_17">
     <!-- Dias -->
     <g transform="translate(358.90825 165.992072)scale(0.1 -0.1)">
      <use xlink:href="#DejaVuSans-68"/>
      <use x="77.001953" xlink:href="#DejaVuSans-105"/>
      <use x="104.785156" xlink:href="#DejaVuSans-97"/>
      <use x="166.064453" xlink:href="#DejaVuSans-115"/>
     </g>
    </g>
   </g>
   <g id="matplotlib.axis_4">
    <g id="ytick_6">
     <g id="line2d_15">
      <g>
       <use style="stroke:#000000;stroke-width:0.8;" x="281.832365" xlink:href="#mbd89b70130" y="137.71551"/>
      </g>
     </g>
     <g id="text_18">
      <!-- 0 -->
      <g transform="translate(268.469865 141.514729)scale(0.1 -0.1)">
       <use xlink:href="#DejaVuSans-48"/>
      </g>
     </g>
    </g>
    <g id="ytick_7">
     <g id="line2d_16">
      <g>
       <use style="stroke:#000000;stroke-width:0.8;" x="281.832365" xlink:href="#mbd89b70130" y="94.241448"/>
      </g>
     </g>
     <g id="text_19">
      <!-- 200 -->
      <g transform="translate(255.744865 98.040667)scale(0.1 -0.1)">
       <use xlink:href="#DejaVuSans-50"/>
       <use x="63.623047" xlink:href="#DejaVuSans-48"/>
       <use x="127.246094" xlink:href="#DejaVuSans-48"/>
      </g>
     </g>
    </g>
    <g id="ytick_8">
     <g id="line2d_17">
      <g>
       <use style="stroke:#000000;stroke-width:0.8;" x="281.832365" xlink:href="#mbd89b70130" y="50.767386"/>
      </g>
     </g>
     <g id="text_20">
      <!-- 400 -->
      <defs>
       <path d="M 37.796875 64.3125 
L 12.890625 25.390625 
L 37.796875 25.390625 
z
M 35.203125 72.90625 
L 47.609375 72.90625 
L 47.609375 25.390625 
L 58.015625 25.390625 
L 58.015625 17.1875 
L 47.609375 17.1875 
L 47.609375 0 
L 37.796875 0 
L 37.796875 17.1875 
L 4.890625 17.1875 
L 4.890625 26.703125 
z
" id="DejaVuSans-52"/>
      </defs>
      <g transform="translate(255.744865 54.566604)scale(0.1 -0.1)">
       <use xlink:href="#DejaVuSans-52"/>
       <use x="63.623047" xlink:href="#DejaVuSans-48"/>
       <use x="127.246094" xlink:href="#DejaVuSans-48"/>
      </g>
     </g>
    </g>
    <g id="text_21">
     <!-- Novos casos -->
     <defs>
      <path d="M 9.8125 72.90625 
L 23.09375 72.90625 
L 55.421875 11.921875 
L 55.421875 72.90625 
L 64.984375 72.90625 
L 64.984375 0 
L 51.703125 0 
L 19.390625 60.984375 
L 19.390625 0 
L 9.8125 0 
z
" id="DejaVuSans-78"/>
      <path d="M 2.984375 54.6875 
L 12.5 54.6875 
L 29.59375 8.796875 
L 46.6875 54.6875 
L 56.203125 54.6875 
L 35.6875 0 
L 23.484375 0 
z
" id="DejaVuSans-118"/>
     </defs>
     <g transform="translate(249.665178 109.011469)rotate(-90)scale(0.1 -0.1)">
      <use xlink:href="#DejaVuSans-78"/>
      <use x="74.804688" xlink:href="#DejaVuSans-111"/>
      <use x="135.986328" xlink:href="#DejaVuSans-118"/>
      <use x="195.166016" xlink:href="#DejaVuSans-111"/>
      <use x="256.347656" xlink:href="#DejaVuSans-115"/>
      <use x="308.447266" xlink:href="#DejaVuSans-32"/>
      <use x="340.234375" xlink:href="#DejaVuSans-99"/>
      <use x="395.214844" xlink:href="#DejaVuSans-97"/>
      <use x="456.494141" xlink:href="#DejaVuSans-115"/>
      <use x="508.59375" xlink:href="#DejaVuSans-111"/>
      <use x="569.775391" xlink:href="#DejaVuSans-115"/>
     </g>
    </g>
   </g>
   <g id="line2d_18">
    <path clip-path="url(#pecffac9965)" d="M 290.513059 137.427252 
L 292.2185 137.340431 
L 293.923941 137.248721 
L 295.629382 137.185981 
L 297.334823 137.132929 
L 299.040264 137.095267 
L 300.745705 137.075983 
L 302.451146 137.069736 
L 304.156587 137.074263 
L 305.862028 137.088205 
L 307.567469 137.110567 
L 309.27291 137.137274 
L 310.97835 137.159455 
L 312.683791 137.169595 
L 314.389232 137.163076 
L 316.094673 137.137455 
L 317.800114 137.089292 
L 319.505555 137.015054 
L 321.210996 136.913114 
L 322.916437 136.787182 
L 324.621878 136.641967 
L 326.327319 136.478826 
L 328.03276 136.296764 
L 329.738201 136.099854 
L 331.443642 135.891446 
L 333.149083 135.677788 
L 334.854523 135.462771 
L 336.559964 135.249385 
L 338.265405 135.043874 
L 339.970846 134.850676 
L 341.676287 134.658384 
L 343.381728 134.455136 
L 345.087169 134.217487 
L 346.79261 133.912571 
L 348.498051 133.504447 
L 350.203492 132.951379 
L 351.908933 132.218784 
L 353.614374 131.291543 
L 355.319815 130.153812 
L 357.025256 128.813014 
L 358.730696 127.306451 
L 360.436137 125.678754 
L 362.141578 123.994111 
L 363.847019 122.314991 
L 365.55246 120.714544 
L 367.257901 119.287378 
L 368.963342 118.106101 
L 370.668783 117.18411 
L 372.374224 116.52367 
L 374.079665 116.079786 
L 375.785106 115.77659 
L 377.490547 115.473303 
L 379.195988 114.947667 
L 380.901429 113.972896 
L 382.606869 112.397618 
L 384.31231 110.091827 
L 386.017751 106.989524 
L 387.723192 103.092883 
L 389.428633 98.496329 
L 391.134074 93.469742 
L 392.839515 88.336327 
L 394.544956 83.402175 
L 396.250397 78.966951 
L 397.955838 75.325433 
L 399.661279 72.722692 
L 401.36672 71.338439 
L 403.072161 71.14497 
L 404.777602 72.00413 
L 406.483042 73.702805 
L 408.188483 75.974375 
L 409.893924 78.460146 
L 411.599365 80.803871 
L 413.304806 82.677999 
L 415.010247 83.877474 
L 416.715688 84.367802 
L 418.421129 84.199229 
L 420.12657 83.52358 
L 421.832011 82.590544 
L 423.537452 81.660043 
L 425.242893 80.959316 
L 426.948334 80.682465 
L 428.653775 80.829944 
L 430.359215 81.34879 
L 432.064656 82.091344 
L 433.770097 82.8989 
L 435.475538 83.590122 
L 437.180979 84.030023 
L 438.88642 84.114852 
L 440.591861 83.89712 
L 442.297302 83.417927 
L 444.002743 82.792976 
L 445.708184 82.344927 
L 447.413625 81.850344 
L 449.119066 81.400213 
" style="fill:none;stroke:#ff0000;stroke-linecap:square;stroke-width:1.5;"/>
   </g>
   <g id="patch_196">
    <path d="M 281.832365 137.71551 
L 281.832365 18.118365 
" style="fill:none;stroke:#000000;stroke-linecap:square;stroke-linejoin:miter;stroke-width:0.8;"/>
   </g>
   <g id="patch_197">
    <path d="M 457.79976 137.71551 
L 457.79976 18.118365 
" style="fill:none;stroke:#000000;stroke-linecap:square;stroke-linejoin:miter;stroke-width:0.8;"/>
   </g>
   <g id="patch_198">
    <path d="M 281.832365 137.71551 
L 457.79976 137.71551 
" style="fill:none;stroke:#000000;stroke-linecap:square;stroke-linejoin:miter;stroke-width:0.8;"/>
   </g>
   <g id="patch_199">
    <path d="M 281.832365 18.118365 
L 457.79976 18.118365 
" style="fill:none;stroke:#000000;stroke-linecap:square;stroke-linejoin:miter;stroke-width:0.8;"/>
   </g>
   <g id="text_22">
    <!-- Casos novos - AC -->
    <defs>
     <path d="M 54.890625 33.015625 
L 54.890625 0 
L 45.90625 0 
L 45.90625 32.71875 
Q 45.90625 40.484375 42.875 44.328125 
Q 39.84375 48.1875 33.796875 48.1875 
Q 26.515625 48.1875 22.3125 43.546875 
Q 18.109375 38.921875 18.109375 30.90625 
L 18.109375 0 
L 9.078125 0 
L 9.078125 54.6875 
L 18.109375 54.6875 
L 18.109375 46.1875 
Q 21.34375 51.125 25.703125 53.5625 
Q 30.078125 56 35.796875 56 
Q 45.21875 56 50.046875 50.171875 
Q 54.890625 44.34375 54.890625 33.015625 
z
" id="DejaVuSans-110"/>
    </defs>
    <g transform="translate(318.13075 12.118365)scale(0.12 -0.12)">
     <use xlink:href="#DejaVuSans-67"/>
     <use x="69.824219" xlink:href="#DejaVuSans-97"/>
     <use x="131.103516" xlink:href="#DejaVuSans-115"/>
     <use x="183.203125" xlink:href="#DejaVuSans-111"/>
     <use x="244.384766" xlink:href="#DejaVuSans-115"/>
     <use x="296.484375" xlink:href="#DejaVuSans-32"/>
     <use x="328.271484" xlink:href="#DejaVuSans-110"/>
     <use x="391.650391" xlink:href="#DejaVuSans-111"/>
     <use x="452.832031" xlink:href="#DejaVuSans-118"/>
     <use x="512.011719" xlink:href="#DejaVuSans-111"/>
     <use x="573.193359" xlink:href="#DejaVuSans-115"/>
     <use x="625.292969" xlink:href="#DejaVuSans-32"/>
     <use x="657.080078" xlink:href="#DejaVuSans-45"/>
     <use x="693.164062" xlink:href="#DejaVuSans-32"/>
     <use x="724.951172" xlink:href="#DejaVuSans-65"/>
     <use x="791.609375" xlink:href="#DejaVuSans-67"/>
    </g>
   </g>
  </g>
  <g id="axes_3">
   <g id="patch_200">
    <path d="M 55.490865 312.24351 
L 457.79976 312.24351 
L 457.79976 192.646365 
L 55.490865 192.646365 
z
" style="fill:#ffffff;"/>
   </g>
   <g id="matplotlib.axis_5">
    <g id="xtick_9">
     <g id="line2d_19">
      <g>
       <use style="stroke:#000000;stroke-width:0.8;" x="73.777633" xlink:href="#m4ae945b697" y="312.24351"/>
      </g>
     </g>
     <g id="text_23">
      <!-- 0 -->
      <g transform="translate(70.596383 326.841947)scale(0.1 -0.1)">
       <use xlink:href="#DejaVuSans-48"/>
      </g>
     </g>
    </g>
    <g id="xtick_10">
     <g id="line2d_20">
      <g>
       <use style="stroke:#000000;stroke-width:0.8;" x="152.430398" xlink:href="#m4ae945b697" y="312.24351"/>
      </g>
     </g>
     <g id="text_24">
      <!-- 20 -->
      <g transform="translate(146.067898 326.841947)scale(0.1 -0.1)">
       <use xlink:href="#DejaVuSans-50"/>
       <use x="63.623047" xlink:href="#DejaVuSans-48"/>
      </g>
     </g>
    </g>
    <g id="xtick_11">
     <g id="line2d_21">
      <g>
       <use style="stroke:#000000;stroke-width:0.8;" x="231.083164" xlink:href="#m4ae945b697" y="312.24351"/>
      </g>
     </g>
     <g id="text_25">
      <!-- 40 -->
      <g transform="translate(224.720664 326.841947)scale(0.1 -0.1)">
       <use xlink:href="#DejaVuSans-52"/>
       <use x="63.623047" xlink:href="#DejaVuSans-48"/>
      </g>
     </g>
    </g>
    <g id="xtick_12">
     <g id="line2d_22">
      <g>
       <use style="stroke:#000000;stroke-width:0.8;" x="309.735929" xlink:href="#m4ae945b697" y="312.24351"/>
      </g>
     </g>
     <g id="text_26">
      <!-- 60 -->
      <defs>
       <path d="M 33.015625 40.375 
Q 26.375 40.375 22.484375 35.828125 
Q 18.609375 31.296875 18.609375 23.390625 
Q 18.609375 15.53125 22.484375 10.953125 
Q 26.375 6.390625 33.015625 6.390625 
Q 39.65625 6.390625 43.53125 10.953125 
Q 47.40625 15.53125 47.40625 23.390625 
Q 47.40625 31.296875 43.53125 35.828125 
Q 39.65625 40.375 33.015625 40.375 
z
M 52.59375 71.296875 
L 52.59375 62.3125 
Q 48.875 64.0625 45.09375 64.984375 
Q 41.3125 65.921875 37.59375 65.921875 
Q 27.828125 65.921875 22.671875 59.328125 
Q 17.53125 52.734375 16.796875 39.40625 
Q 19.671875 43.65625 24.015625 45.921875 
Q 28.375 48.1875 33.59375 48.1875 
Q 44.578125 48.1875 50.953125 41.515625 
Q 57.328125 34.859375 57.328125 23.390625 
Q 57.328125 12.15625 50.6875 5.359375 
Q 44.046875 -1.421875 33.015625 -1.421875 
Q 20.359375 -1.421875 13.671875 8.265625 
Q 6.984375 17.96875 6.984375 36.375 
Q 6.984375 53.65625 15.1875 63.9375 
Q 23.390625 74.21875 37.203125 74.21875 
Q 40.921875 74.21875 44.703125 73.484375 
Q 48.484375 72.75 52.59375 71.296875 
z
" id="DejaVuSans-54"/>
      </defs>
      <g transform="translate(303.373429 326.841947)scale(0.1 -0.1)">
       <use xlink:href="#DejaVuSans-54"/>
       <use x="63.623047" xlink:href="#DejaVuSans-48"/>
      </g>
     </g>
    </g>
    <g id="xtick_13">
     <g id="line2d_23">
      <g>
       <use style="stroke:#000000;stroke-width:0.8;" x="388.388695" xlink:href="#m4ae945b697" y="312.24351"/>
      </g>
     </g>
     <g id="text_27">
      <!-- 80 -->
      <defs>
       <path d="M 31.78125 34.625 
Q 24.75 34.625 20.71875 30.859375 
Q 16.703125 27.09375 16.703125 20.515625 
Q 16.703125 13.921875 20.71875 10.15625 
Q 24.75 6.390625 31.78125 6.390625 
Q 38.8125 6.390625 42.859375 10.171875 
Q 46.921875 13.96875 46.921875 20.515625 
Q 46.921875 27.09375 42.890625 30.859375 
Q 38.875 34.625 31.78125 34.625 
z
M 21.921875 38.8125 
Q 15.578125 40.375 12.03125 44.71875 
Q 8.5 49.078125 8.5 55.328125 
Q 8.5 64.0625 14.71875 69.140625 
Q 20.953125 74.21875 31.78125 74.21875 
Q 42.671875 74.21875 48.875 69.140625 
Q 55.078125 64.0625 55.078125 55.328125 
Q 55.078125 49.078125 51.53125 44.71875 
Q 48 40.375 41.703125 38.8125 
Q 48.828125 37.15625 52.796875 32.3125 
Q 56.78125 27.484375 56.78125 20.515625 
Q 56.78125 9.90625 50.3125 4.234375 
Q 43.84375 -1.421875 31.78125 -1.421875 
Q 19.734375 -1.421875 13.25 4.234375 
Q 6.78125 9.90625 6.78125 20.515625 
Q 6.78125 27.484375 10.78125 32.3125 
Q 14.796875 37.15625 21.921875 38.8125 
z
M 18.3125 54.390625 
Q 18.3125 48.734375 21.84375 45.5625 
Q 25.390625 42.390625 31.78125 42.390625 
Q 38.140625 42.390625 41.71875 45.5625 
Q 45.3125 48.734375 45.3125 54.390625 
Q 45.3125 60.0625 41.71875 63.234375 
Q 38.140625 66.40625 31.78125 66.40625 
Q 25.390625 66.40625 21.84375 63.234375 
Q 18.3125 60.0625 18.3125 54.390625 
z
" id="DejaVuSans-56"/>
      </defs>
      <g transform="translate(382.026195 326.841947)scale(0.1 -0.1)">
       <use xlink:href="#DejaVuSans-56"/>
       <use x="63.623047" xlink:href="#DejaVuSans-48"/>
      </g>
     </g>
    </g>
    <g id="text_28">
     <!-- Dias -->
     <g transform="translate(245.7375 340.520072)scale(0.1 -0.1)">
      <use xlink:href="#DejaVuSans-68"/>
      <use x="77.001953" xlink:href="#DejaVuSans-105"/>
      <use x="104.785156" xlink:href="#DejaVuSans-97"/>
      <use x="166.064453" xlink:href="#DejaVuSans-115"/>
     </g>
    </g>
   </g>
   <g id="matplotlib.axis_6">
    <g id="ytick_9">
     <g id="line2d_24">
      <g>
       <use style="stroke:#000000;stroke-width:0.8;" x="55.490865" xlink:href="#mbd89b70130" y="291.421763"/>
      </g>
     </g>
     <g id="text_29">
      <!-- 1 -->
      <g transform="translate(42.128365 295.220982)scale(0.1 -0.1)">
       <use xlink:href="#DejaVuSans-49"/>
      </g>
     </g>
    </g>
    <g id="ytick_10">
     <g id="line2d_25">
      <g>
       <use style="stroke:#000000;stroke-width:0.8;" x="55.490865" xlink:href="#mbd89b70130" y="244.694417"/>
      </g>
     </g>
     <g id="text_30">
      <!-- 2 -->
      <g transform="translate(42.128365 248.493636)scale(0.1 -0.1)">
       <use xlink:href="#DejaVuSans-50"/>
      </g>
     </g>
    </g>
    <g id="ytick_11">
     <g id="line2d_26">
      <g>
       <use style="stroke:#000000;stroke-width:0.8;" x="55.490865" xlink:href="#mbd89b70130" y="197.967071"/>
      </g>
     </g>
     <g id="text_31">
      <!-- 3 -->
      <defs>
       <path d="M 40.578125 39.3125 
Q 47.65625 37.796875 51.625 33 
Q 55.609375 28.21875 55.609375 21.1875 
Q 55.609375 10.40625 48.1875 4.484375 
Q 40.765625 -1.421875 27.09375 -1.421875 
Q 22.515625 -1.421875 17.65625 -0.515625 
Q 12.796875 0.390625 7.625 2.203125 
L 7.625 11.71875 
Q 11.71875 9.328125 16.59375 8.109375 
Q 21.484375 6.890625 26.8125 6.890625 
Q 36.078125 6.890625 40.9375 10.546875 
Q 45.796875 14.203125 45.796875 21.1875 
Q 45.796875 27.640625 41.28125 31.265625 
Q 36.765625 34.90625 28.71875 34.90625 
L 20.21875 34.90625 
L 20.21875 43.015625 
L 29.109375 43.015625 
Q 36.375 43.015625 40.234375 45.921875 
Q 44.09375 48.828125 44.09375 54.296875 
Q 44.09375 59.90625 40.109375 62.90625 
Q 36.140625 65.921875 28.71875 65.921875 
Q 24.65625 65.921875 20.015625 65.03125 
Q 15.375 64.15625 9.8125 62.3125 
L 9.8125 71.09375 
Q 15.4375 72.65625 20.34375 73.4375 
Q 25.25 74.21875 29.59375 74.21875 
Q 40.828125 74.21875 47.359375 69.109375 
Q 53.90625 64.015625 53.90625 55.328125 
Q 53.90625 49.265625 50.4375 45.09375 
Q 46.96875 40.921875 40.578125 39.3125 
z
" id="DejaVuSans-51"/>
      </defs>
      <g transform="translate(42.128365 201.766289)scale(0.1 -0.1)">
       <use xlink:href="#DejaVuSans-51"/>
      </g>
     </g>
    </g>
    <g id="text_32">
     <!-- r0 -->
     <defs>
      <path d="M 41.109375 46.296875 
Q 39.59375 47.171875 37.8125 47.578125 
Q 36.03125 48 33.890625 48 
Q 26.265625 48 22.1875 43.046875 
Q 18.109375 38.09375 18.109375 28.8125 
L 18.109375 0 
L 9.078125 0 
L 9.078125 54.6875 
L 18.109375 54.6875 
L 18.109375 46.1875 
Q 20.953125 51.171875 25.484375 53.578125 
Q 30.03125 56 36.53125 56 
Q 37.453125 56 38.578125 55.875 
Q 39.703125 55.765625 41.0625 55.515625 
z
" id="DejaVuSans-114"/>
     </defs>
     <g transform="translate(36.048678 257.681656)rotate(-90)scale(0.1 -0.1)">
      <use xlink:href="#DejaVuSans-114"/>
      <use x="41.113281" xlink:href="#DejaVuSans-48"/>
     </g>
    </g>
   </g>
   <g id="line2d_27">
    <path clip-path="url(#pbf71480261)" d="M 73.777633 198.082599 
L 77.710271 214.114724 
L 81.642909 225.79281 
L 85.575548 251.828577 
L 89.508186 260.978832 
L 93.440824 271.108178 
L 97.373463 281.314503 
L 101.306101 288.152392 
L 105.238739 293.739581 
L 109.171377 298.804322 
L 113.104016 303.727143 
L 117.036654 306.807276 
L 120.969292 304.702039 
L 124.90193 297.579012 
L 128.834569 287.428542 
L 132.767207 276.557921 
L 136.699845 265.662726 
L 140.632484 255.939593 
L 144.565122 248.890235 
L 148.49776 245.999384 
L 152.430398 246.113542 
L 156.363037 247.21626 
L 160.295675 248.398263 
L 164.228313 250.534965 
L 168.160951 253.062732 
L 172.09359 256.186489 
L 176.026228 259.311274 
L 179.958866 262.274137 
L 183.891505 265.467369 
L 187.824143 268.6223 
L 191.756781 270.119579 
L 195.689419 270.282575 
L 199.622058 268.375839 
L 203.554696 264.233671 
L 207.487334 258.56992 
L 211.419972 252.070698 
L 215.352611 246.215342 
L 219.285249 242.395085 
L 223.217887 240.212972 
L 227.150525 240.018909 
L 231.083164 241.840313 
L 235.015802 244.880928 
L 238.94844 248.917518 
L 242.881079 253.399297 
L 246.813717 258.285167 
L 250.746355 263.808277 
L 254.678993 269.53513 
L 258.611632 274.650264 
L 262.54427 279.245566 
L 266.476908 282.798518 
L 270.409546 285.003231 
L 274.342185 284.960922 
L 278.274823 281.566113 
L 282.207461 275.173037 
L 286.1401 267.599109 
L 290.072738 259.899715 
L 294.005376 253.401516 
L 297.938014 248.863419 
L 301.870653 246.663386 
L 305.803291 247.325738 
L 309.735929 250.133558 
L 313.668567 254.216327 
L 317.601206 259.175962 
L 321.533844 264.883385 
L 325.466482 271.152636 
L 329.39912 277.882197 
L 333.331759 284.275831 
L 337.264397 290.039285 
L 341.197035 294.936206 
L 345.129674 298.676181 
L 349.062312 300.504099 
L 352.99495 300.066495 
L 356.927588 297.15882 
L 360.860227 292.409209 
L 364.792865 287.0829 
L 368.725503 281.972292 
L 372.658141 277.975143 
L 376.59078 275.843799 
L 380.523418 275.59148 
L 384.456056 276.91957 
L 388.388695 279.589004 
L 392.321333 282.288784 
L 396.253971 284.694412 
L 400.186609 286.123794 
L 404.119248 286.433719 
L 408.051886 285.358242 
L 411.984524 283.172924 
L 415.917162 280.096119 
L 419.849801 277.383942 
L 423.782439 274.983749 
L 427.715077 273.492395 
L 431.647716 274.497269 
L 435.580354 273.757251 
L 439.512992 273.711796 
" style="fill:none;stroke:#ff0000;stroke-linecap:square;stroke-width:1.5;"/>
   </g>
   <g id="patch_201">
    <path d="M 55.490865 312.24351 
L 55.490865 192.646365 
" style="fill:none;stroke:#000000;stroke-linecap:square;stroke-linejoin:miter;stroke-width:0.8;"/>
   </g>
   <g id="patch_202">
    <path d="M 457.79976 312.24351 
L 457.79976 192.646365 
" style="fill:none;stroke:#000000;stroke-linecap:square;stroke-linejoin:miter;stroke-width:0.8;"/>
   </g>
   <g id="patch_203">
    <path d="M 55.490865 312.24351 
L 457.79976 312.24351 
" style="fill:none;stroke:#000000;stroke-linecap:square;stroke-linejoin:miter;stroke-width:0.8;"/>
   </g>
   <g id="patch_204">
    <path d="M 55.490865 192.646365 
L 457.79976 192.646365 
" style="fill:none;stroke:#000000;stroke-linecap:square;stroke-linejoin:miter;stroke-width:0.8;"/>
   </g>
   <g id="text_33">
    <!-- r0 aproximado - AC -->
    <defs>
     <path d="M 18.109375 8.203125 
L 18.109375 -20.796875 
L 9.078125 -20.796875 
L 9.078125 54.6875 
L 18.109375 54.6875 
L 18.109375 46.390625 
Q 20.953125 51.265625 25.265625 53.625 
Q 29.59375 56 35.59375 56 
Q 45.5625 56 51.78125 48.09375 
Q 58.015625 40.1875 58.015625 27.296875 
Q 58.015625 14.40625 51.78125 6.484375 
Q 45.5625 -1.421875 35.59375 -1.421875 
Q 29.59375 -1.421875 25.265625 0.953125 
Q 20.953125 3.328125 18.109375 8.203125 
z
M 48.6875 27.296875 
Q 48.6875 37.203125 44.609375 42.84375 
Q 40.53125 48.484375 33.40625 48.484375 
Q 26.265625 48.484375 22.1875 42.84375 
Q 18.109375 37.203125 18.109375 27.296875 
Q 18.109375 17.390625 22.1875 11.75 
Q 26.265625 6.109375 33.40625 6.109375 
Q 40.53125 6.109375 44.609375 11.75 
Q 48.6875 17.390625 48.6875 27.296875 
z
" id="DejaVuSans-112"/>
     <path d="M 54.890625 54.6875 
L 35.109375 28.078125 
L 55.90625 0 
L 45.3125 0 
L 29.390625 21.484375 
L 13.484375 0 
L 2.875 0 
L 24.125 28.609375 
L 4.6875 54.6875 
L 15.28125 54.6875 
L 29.78125 35.203125 
L 44.28125 54.6875 
z
" id="DejaVuSans-120"/>
    </defs>
    <g transform="translate(198.765938 186.646365)scale(0.12 -0.12)">
     <use xlink:href="#DejaVuSans-114"/>
     <use x="41.113281" xlink:href="#DejaVuSans-48"/>
     <use x="104.736328" xlink:href="#DejaVuSans-32"/>
     <use x="136.523438" xlink:href="#DejaVuSans-97"/>
     <use x="197.802734" xlink:href="#DejaVuSans-112"/>
     <use x="261.279297" xlink:href="#DejaVuSans-114"/>
     <use x="300.142578" xlink:href="#DejaVuSans-111"/>
     <use x="358.199219" xlink:href="#DejaVuSans-120"/>
     <use x="417.378906" xlink:href="#DejaVuSans-105"/>
     <use x="445.162109" xlink:href="#DejaVuSans-109"/>
     <use x="542.574219" xlink:href="#DejaVuSans-97"/>
     <use x="603.853516" xlink:href="#DejaVuSans-100"/>
     <use x="667.330078" xlink:href="#DejaVuSans-111"/>
     <use x="728.511719" xlink:href="#DejaVuSans-32"/>
     <use x="760.298828" xlink:href="#DejaVuSans-45"/>
     <use x="796.382812" xlink:href="#DejaVuSans-32"/>
     <use x="828.169922" xlink:href="#DejaVuSans-65"/>
     <use x="894.828125" xlink:href="#DejaVuSans-67"/>
    </g>
   </g>
  </g>
 </g>
 <defs>
  <clipPath id="p12d4512246">
   <rect height="119.597145" width="175.967395" x="55.490865" y="18.118365"/>
  </clipPath>
  <clipPath id="pecffac9965">
   <rect height="119.597145" width="175.967395" x="281.832365" y="18.118365"/>
  </clipPath>
  <clipPath id="pbf71480261">
   <rect height="119.597145" width="402.308895" x="55.490865" y="192.646365"/>
  </clipPath>
 </defs>
</svg>
