<?xml version="1.0" encoding="utf-8" standalone="no"?>
<!DOCTYPE svg PUBLIC "-//W3C//DTD SVG 1.1//EN"
  "http://www.w3.org/Graphics/SVG/1.1/DTD/svg11.dtd">
<!-- Created with matplotlib (https://matplotlib.org/) -->
<svg height="345.6pt" version="1.1" viewBox="0 0 460.8 345.6" width="460.8pt" xmlns="http://www.w3.org/2000/svg" xmlns:xlink="http://www.w3.org/1999/xlink">
 <defs>
  <style type="text/css">
*{stroke-linecap:butt;stroke-linejoin:round;}
  </style>
 </defs>
 <g id="figure_1">
  <g id="patch_1">
   <path d="M 0 345.6 
L 460.8 345.6 
L 460.8 0 
L 0 0 
z
" style="fill:#ffffff;"/>
  </g>
  <g id="axes_1">
   <g id="patch_2">
    <path d="M 50.659198 325.921635 
L 137.399816 325.921635 
L 137.399816 18.118365 
L 50.659198 18.118365 
z
" style="fill:#ffffff;"/>
   </g>
   <g id="patch_3">
    <path clip-path="url(#p378f76e67a)" d="M 54.601953 325.921635 
L 55.274492 325.921635 
L 55.274492 325.742311 
L 54.601953 325.742311 
z
" style="fill:#1f77b4;"/>
   </g>
   <g id="patch_4">
    <path clip-path="url(#p378f76e67a)" d="M 55.442626 325.921635 
L 56.115164 325.921635 
L 56.115164 325.691076 
L 55.442626 325.691076 
z
" style="fill:#1f77b4;"/>
   </g>
   <g id="patch_5">
    <path clip-path="url(#p378f76e67a)" d="M 56.283299 325.921635 
L 56.955837 325.921635 
L 56.955837 325.63984 
L 56.283299 325.63984 
z
" style="fill:#1f77b4;"/>
   </g>
   <g id="patch_6">
    <path clip-path="url(#p378f76e67a)" d="M 57.123972 325.921635 
L 57.79651 325.921635 
L 57.79651 325.63984 
L 57.123972 325.63984 
z
" style="fill:#1f77b4;"/>
   </g>
   <g id="patch_7">
    <path clip-path="url(#p378f76e67a)" d="M 57.964645 325.921635 
L 58.637183 325.921635 
L 58.637183 325.486134 
L 57.964645 325.486134 
z
" style="fill:#1f77b4;"/>
   </g>
   <g id="patch_8">
    <path clip-path="url(#p378f76e67a)" d="M 58.805317 325.921635 
L 59.477856 325.921635 
L 59.477856 325.332428 
L 58.805317 325.332428 
z
" style="fill:#1f77b4;"/>
   </g>
   <g id="patch_9">
    <path clip-path="url(#p378f76e67a)" d="M 59.64599 325.921635 
L 60.318528 325.921635 
L 60.318528 325.30681 
L 59.64599 325.30681 
z
" style="fill:#1f77b4;"/>
   </g>
   <g id="patch_10">
    <path clip-path="url(#p378f76e67a)" d="M 60.486663 325.921635 
L 61.159201 325.921635 
L 61.159201 325.281192 
L 60.486663 325.281192 
z
" style="fill:#1f77b4;"/>
   </g>
   <g id="patch_11">
    <path clip-path="url(#p378f76e67a)" d="M 61.327336 325.921635 
L 61.999874 325.921635 
L 61.999874 325.281192 
L 61.327336 325.281192 
z
" style="fill:#1f77b4;"/>
   </g>
   <g id="patch_12">
    <path clip-path="url(#p378f76e67a)" d="M 62.168009 325.921635 
L 62.840547 325.921635 
L 62.840547 325.050633 
L 62.168009 325.050633 
z
" style="fill:#1f77b4;"/>
   </g>
   <g id="patch_13">
    <path clip-path="url(#p378f76e67a)" d="M 63.008681 325.921635 
L 63.68122 325.921635 
L 63.68122 324.845692 
L 63.008681 324.845692 
z
" style="fill:#1f77b4;"/>
   </g>
   <g id="patch_14">
    <path clip-path="url(#p378f76e67a)" d="M 63.849354 325.921635 
L 64.521892 325.921635 
L 64.521892 324.845692 
L 63.849354 324.845692 
z
" style="fill:#1f77b4;"/>
   </g>
   <g id="patch_15">
    <path clip-path="url(#p378f76e67a)" d="M 64.690027 325.921635 
L 65.362565 325.921635 
L 65.362565 324.820074 
L 64.690027 324.820074 
z
" style="fill:#1f77b4;"/>
   </g>
   <g id="patch_16">
    <path clip-path="url(#p378f76e67a)" d="M 65.5307 325.921635 
L 66.203238 325.921635 
L 66.203238 324.820074 
L 65.5307 324.820074 
z
" style="fill:#1f77b4;"/>
   </g>
   <g id="patch_17">
    <path clip-path="url(#p378f76e67a)" d="M 66.371372 325.921635 
L 67.043911 325.921635 
L 67.043911 324.743221 
L 66.371372 324.743221 
z
" style="fill:#1f77b4;"/>
   </g>
   <g id="patch_18">
    <path clip-path="url(#p378f76e67a)" d="M 67.212045 325.921635 
L 67.884583 325.921635 
L 67.884583 324.743221 
L 67.212045 324.743221 
z
" style="fill:#1f77b4;"/>
   </g>
   <g id="patch_19">
    <path clip-path="url(#p378f76e67a)" d="M 68.052718 325.921635 
L 68.725256 325.921635 
L 68.725256 324.691985 
L 68.052718 324.691985 
z
" style="fill:#1f77b4;"/>
   </g>
   <g id="patch_20">
    <path clip-path="url(#p378f76e67a)" d="M 68.893391 325.921635 
L 69.565929 325.921635 
L 69.565929 324.64075 
L 68.893391 324.64075 
z
" style="fill:#1f77b4;"/>
   </g>
   <g id="patch_21">
    <path clip-path="url(#p378f76e67a)" d="M 69.734064 325.921635 
L 70.406602 325.921635 
L 70.406602 324.64075 
L 69.734064 324.64075 
z
" style="fill:#1f77b4;"/>
   </g>
   <g id="patch_22">
    <path clip-path="url(#p378f76e67a)" d="M 70.574736 325.921635 
L 71.247275 325.921635 
L 71.247275 324.538279 
L 70.574736 324.538279 
z
" style="fill:#1f77b4;"/>
   </g>
   <g id="patch_23">
    <path clip-path="url(#p378f76e67a)" d="M 71.415409 325.921635 
L 72.087947 325.921635 
L 72.087947 324.333337 
L 71.415409 324.333337 
z
" style="fill:#1f77b4;"/>
   </g>
   <g id="patch_24">
    <path clip-path="url(#p378f76e67a)" d="M 72.256082 325.921635 
L 72.92862 325.921635 
L 72.92862 324.128396 
L 72.256082 324.128396 
z
" style="fill:#1f77b4;"/>
   </g>
   <g id="patch_25">
    <path clip-path="url(#p378f76e67a)" d="M 73.096755 325.921635 
L 73.769293 325.921635 
L 73.769293 324.07716 
L 73.096755 324.07716 
z
" style="fill:#1f77b4;"/>
   </g>
   <g id="patch_26">
    <path clip-path="url(#p378f76e67a)" d="M 73.937427 325.921635 
L 74.609966 325.921635 
L 74.609966 323.949072 
L 73.937427 323.949072 
z
" style="fill:#1f77b4;"/>
   </g>
   <g id="patch_27">
    <path clip-path="url(#p378f76e67a)" d="M 74.7781 325.921635 
L 75.450638 325.921635 
L 75.450638 323.616042 
L 74.7781 323.616042 
z
" style="fill:#1f77b4;"/>
   </g>
   <g id="patch_28">
    <path clip-path="url(#p378f76e67a)" d="M 75.618773 325.921635 
L 76.291311 325.921635 
L 76.291311 323.385482 
L 75.618773 323.385482 
z
" style="fill:#1f77b4;"/>
   </g>
   <g id="patch_29">
    <path clip-path="url(#p378f76e67a)" d="M 76.459446 325.921635 
L 77.131984 325.921635 
L 77.131984 323.334247 
L 76.459446 323.334247 
z
" style="fill:#1f77b4;"/>
   </g>
   <g id="patch_30">
    <path clip-path="url(#p378f76e67a)" d="M 77.300119 325.921635 
L 77.972657 325.921635 
L 77.972657 323.103688 
L 77.300119 323.103688 
z
" style="fill:#1f77b4;"/>
   </g>
   <g id="patch_31">
    <path clip-path="url(#p378f76e67a)" d="M 78.140791 325.921635 
L 78.81333 325.921635 
L 78.81333 322.463245 
L 78.140791 322.463245 
z
" style="fill:#1f77b4;"/>
   </g>
   <g id="patch_32">
    <path clip-path="url(#p378f76e67a)" d="M 78.981464 325.921635 
L 79.654002 325.921635 
L 79.654002 322.283921 
L 78.981464 322.283921 
z
" style="fill:#1f77b4;"/>
   </g>
   <g id="patch_33">
    <path clip-path="url(#p378f76e67a)" d="M 79.822137 325.921635 
L 80.494675 325.921635 
L 80.494675 321.74595 
L 79.822137 321.74595 
z
" style="fill:#1f77b4;"/>
   </g>
   <g id="patch_34">
    <path clip-path="url(#p378f76e67a)" d="M 80.66281 325.921635 
L 81.335348 325.921635 
L 81.335348 321.412919 
L 80.66281 321.412919 
z
" style="fill:#1f77b4;"/>
   </g>
   <g id="patch_35">
    <path clip-path="url(#p378f76e67a)" d="M 81.503482 325.921635 
L 82.176021 325.921635 
L 82.176021 320.926183 
L 81.503482 320.926183 
z
" style="fill:#1f77b4;"/>
   </g>
   <g id="patch_36">
    <path clip-path="url(#p378f76e67a)" d="M 82.344155 325.921635 
L 83.016693 325.921635 
L 83.016693 320.439447 
L 82.344155 320.439447 
z
" style="fill:#1f77b4;"/>
   </g>
   <g id="patch_37">
    <path clip-path="url(#p378f76e67a)" d="M 83.184828 325.921635 
L 83.857366 325.921635 
L 83.857366 320.106417 
L 83.184828 320.106417 
z
" style="fill:#1f77b4;"/>
   </g>
   <g id="patch_38">
    <path clip-path="url(#p378f76e67a)" d="M 84.025501 325.921635 
L 84.698039 325.921635 
L 84.698039 319.927093 
L 84.025501 319.927093 
z
" style="fill:#1f77b4;"/>
   </g>
   <g id="patch_39">
    <path clip-path="url(#p378f76e67a)" d="M 84.866174 325.921635 
L 85.538712 325.921635 
L 85.538712 319.312268 
L 84.866174 319.312268 
z
" style="fill:#1f77b4;"/>
   </g>
   <g id="patch_40">
    <path clip-path="url(#p378f76e67a)" d="M 85.706846 325.921635 
L 86.379385 325.921635 
L 86.379385 318.774296 
L 85.706846 318.774296 
z
" style="fill:#1f77b4;"/>
   </g>
   <g id="patch_41">
    <path clip-path="url(#p378f76e67a)" d="M 86.547519 325.921635 
L 87.220057 325.921635 
L 87.220057 318.774296 
L 86.547519 318.774296 
z
" style="fill:#1f77b4;"/>
   </g>
   <g id="patch_42">
    <path clip-path="url(#p378f76e67a)" d="M 87.388192 325.921635 
L 88.06073 325.921635 
L 88.06073 317.95453 
L 87.388192 317.95453 
z
" style="fill:#1f77b4;"/>
   </g>
   <g id="patch_43">
    <path clip-path="url(#p378f76e67a)" d="M 88.228865 325.921635 
L 88.901403 325.921635 
L 88.901403 316.852968 
L 88.228865 316.852968 
z
" style="fill:#1f77b4;"/>
   </g>
   <g id="patch_44">
    <path clip-path="url(#p378f76e67a)" d="M 89.069537 325.921635 
L 89.742076 325.921635 
L 89.742076 315.572083 
L 89.069537 315.572083 
z
" style="fill:#1f77b4;"/>
   </g>
   <g id="patch_45">
    <path clip-path="url(#p378f76e67a)" d="M 89.91021 325.921635 
L 90.582748 325.921635 
L 90.582748 313.471432 
L 89.91021 313.471432 
z
" style="fill:#1f77b4;"/>
   </g>
   <g id="patch_46">
    <path clip-path="url(#p378f76e67a)" d="M 90.750883 325.921635 
L 91.423421 325.921635 
L 91.423421 311.755046 
L 90.750883 311.755046 
z
" style="fill:#1f77b4;"/>
   </g>
   <g id="patch_47">
    <path clip-path="url(#p378f76e67a)" d="M 91.591556 325.921635 
L 92.264094 325.921635 
L 92.264094 309.090805 
L 91.591556 309.090805 
z
" style="fill:#1f77b4;"/>
   </g>
   <g id="patch_48">
    <path clip-path="url(#p378f76e67a)" d="M 92.432229 325.921635 
L 93.104767 325.921635 
L 93.104767 307.143859 
L 92.432229 307.143859 
z
" style="fill:#1f77b4;"/>
   </g>
   <g id="patch_49">
    <path clip-path="url(#p378f76e67a)" d="M 93.272901 325.921635 
L 93.94544 325.921635 
L 93.94544 304.991972 
L 93.272901 304.991972 
z
" style="fill:#1f77b4;"/>
   </g>
   <g id="patch_50">
    <path clip-path="url(#p378f76e67a)" d="M 94.113574 325.921635 
L 94.786112 325.921635 
L 94.786112 301.764142 
L 94.113574 301.764142 
z
" style="fill:#1f77b4;"/>
   </g>
   <g id="patch_51">
    <path clip-path="url(#p378f76e67a)" d="M 94.954247 325.921635 
L 95.626785 325.921635 
L 95.626785 299.945285 
L 94.954247 299.945285 
z
" style="fill:#1f77b4;"/>
   </g>
   <g id="patch_52">
    <path clip-path="url(#p378f76e67a)" d="M 95.79492 325.921635 
L 96.467458 325.921635 
L 96.467458 295.769599 
L 95.79492 295.769599 
z
" style="fill:#1f77b4;"/>
   </g>
   <g id="patch_53">
    <path clip-path="url(#p378f76e67a)" d="M 96.635592 325.921635 
L 97.308131 325.921635 
L 97.308131 291.722002 
L 96.635592 291.722002 
z
" style="fill:#1f77b4;"/>
   </g>
   <g id="patch_54">
    <path clip-path="url(#p378f76e67a)" d="M 97.476265 325.921635 
L 98.148804 325.921635 
L 98.148804 288.85282 
L 97.476265 288.85282 
z
" style="fill:#1f77b4;"/>
   </g>
   <g id="patch_55">
    <path clip-path="url(#p378f76e67a)" d="M 98.316938 325.921635 
L 98.989476 325.921635 
L 98.989476 288.51979 
L 98.316938 288.51979 
z
" style="fill:#1f77b4;"/>
   </g>
   <g id="patch_56">
    <path clip-path="url(#p378f76e67a)" d="M 99.157611 325.921635 
L 99.830149 325.921635 
L 99.830149 285.189488 
L 99.157611 285.189488 
z
" style="fill:#1f77b4;"/>
   </g>
   <g id="patch_57">
    <path clip-path="url(#p378f76e67a)" d="M 99.998284 325.921635 
L 100.670822 325.921635 
L 100.670822 282.525247 
L 99.998284 282.525247 
z
" style="fill:#1f77b4;"/>
   </g>
   <g id="patch_58">
    <path clip-path="url(#p378f76e67a)" d="M 100.838956 325.921635 
L 101.511495 325.921635 
L 101.511495 281.346833 
L 100.838956 281.346833 
z
" style="fill:#1f77b4;"/>
   </g>
   <g id="patch_59">
    <path clip-path="url(#p378f76e67a)" d="M 101.679629 325.921635 
L 102.352167 325.921635 
L 102.352167 280.194036 
L 101.679629 280.194036 
z
" style="fill:#1f77b4;"/>
   </g>
   <g id="patch_60">
    <path clip-path="url(#p378f76e67a)" d="M 102.520302 325.921635 
L 103.19284 325.921635 
L 103.19284 278.093385 
L 102.520302 278.093385 
z
" style="fill:#1f77b4;"/>
   </g>
   <g id="patch_61">
    <path clip-path="url(#p378f76e67a)" d="M 103.360975 325.921635 
L 104.033513 325.921635 
L 104.033513 274.763083 
L 103.360975 274.763083 
z
" style="fill:#1f77b4;"/>
   </g>
   <g id="patch_62">
    <path clip-path="url(#p378f76e67a)" d="M 104.201648 325.921635 
L 104.874186 325.921635 
L 104.874186 268.691688 
L 104.201648 268.691688 
z
" style="fill:#1f77b4;"/>
   </g>
   <g id="patch_63">
    <path clip-path="url(#p378f76e67a)" d="M 105.04232 325.921635 
L 105.714859 325.921635 
L 105.714859 262.338498 
L 105.04232 262.338498 
z
" style="fill:#1f77b4;"/>
   </g>
   <g id="patch_64">
    <path clip-path="url(#p378f76e67a)" d="M 105.882993 325.921635 
L 106.555531 325.921635 
L 106.555531 253.756567 
L 105.882993 253.756567 
z
" style="fill:#1f77b4;"/>
   </g>
   <g id="patch_65">
    <path clip-path="url(#p378f76e67a)" d="M 106.723666 325.921635 
L 107.396204 325.921635 
L 107.396204 246.429905 
L 106.723666 246.429905 
z
" style="fill:#1f77b4;"/>
   </g>
   <g id="patch_66">
    <path clip-path="url(#p378f76e67a)" d="M 107.564339 325.921635 
L 108.236877 325.921635 
L 108.236877 240.281656 
L 107.564339 240.281656 
z
" style="fill:#1f77b4;"/>
   </g>
   <g id="patch_67">
    <path clip-path="url(#p378f76e67a)" d="M 108.405011 325.921635 
L 109.07755 325.921635 
L 109.07755 226.85798 
L 108.405011 226.85798 
z
" style="fill:#1f77b4;"/>
   </g>
   <g id="patch_68">
    <path clip-path="url(#p378f76e67a)" d="M 109.245684 325.921635 
L 109.918222 325.921635 
L 109.918222 219.351993 
L 109.245684 219.351993 
z
" style="fill:#1f77b4;"/>
   </g>
   <g id="patch_69">
    <path clip-path="url(#p378f76e67a)" d="M 110.086357 325.921635 
L 110.758895 325.921635 
L 110.758895 210.616357 
L 110.086357 210.616357 
z
" style="fill:#1f77b4;"/>
   </g>
   <g id="patch_70">
    <path clip-path="url(#p378f76e67a)" d="M 110.92703 325.921635 
L 111.599568 325.921635 
L 111.599568 203.4434 
L 110.92703 203.4434 
z
" style="fill:#1f77b4;"/>
   </g>
   <g id="patch_71">
    <path clip-path="url(#p378f76e67a)" d="M 111.767703 325.921635 
L 112.440241 325.921635 
L 112.440241 191.40308 
L 111.767703 191.40308 
z
" style="fill:#1f77b4;"/>
   </g>
   <g id="patch_72">
    <path clip-path="url(#p378f76e67a)" d="M 112.608375 325.921635 
L 113.280914 325.921635 
L 113.280914 182.462502 
L 112.608375 182.462502 
z
" style="fill:#1f77b4;"/>
   </g>
   <g id="patch_73">
    <path clip-path="url(#p378f76e67a)" d="M 113.449048 325.921635 
L 114.121586 325.921635 
L 114.121586 176.288636 
L 113.449048 176.288636 
z
" style="fill:#1f77b4;"/>
   </g>
   <g id="patch_74">
    <path clip-path="url(#p378f76e67a)" d="M 114.289721 325.921635 
L 114.962259 325.921635 
L 114.962259 170.370946 
L 114.289721 170.370946 
z
" style="fill:#1f77b4;"/>
   </g>
   <g id="patch_75">
    <path clip-path="url(#p378f76e67a)" d="M 115.130394 325.921635 
L 115.802932 325.921635 
L 115.802932 166.605144 
L 115.130394 166.605144 
z
" style="fill:#1f77b4;"/>
   </g>
   <g id="patch_76">
    <path clip-path="url(#p378f76e67a)" d="M 115.971066 325.921635 
L 116.643605 325.921635 
L 116.643605 163.86405 
L 115.971066 163.86405 
z
" style="fill:#1f77b4;"/>
   </g>
   <g id="patch_77">
    <path clip-path="url(#p378f76e67a)" d="M 116.811739 325.921635 
L 117.484277 325.921635 
L 117.484277 160.303189 
L 116.811739 160.303189 
z
" style="fill:#1f77b4;"/>
   </g>
   <g id="patch_78">
    <path clip-path="url(#p378f76e67a)" d="M 117.652412 325.921635 
L 118.32495 325.921635 
L 118.32495 154.821001 
L 117.652412 154.821001 
z
" style="fill:#1f77b4;"/>
   </g>
   <g id="patch_79">
    <path clip-path="url(#p378f76e67a)" d="M 118.493085 325.921635 
L 119.165623 325.921635 
L 119.165623 146.059747 
L 118.493085 146.059747 
z
" style="fill:#1f77b4;"/>
   </g>
   <g id="patch_80">
    <path clip-path="url(#p378f76e67a)" d="M 119.333758 325.921635 
L 120.006296 325.921635 
L 120.006296 139.322291 
L 119.333758 139.322291 
z
" style="fill:#1f77b4;"/>
   </g>
   <g id="patch_81">
    <path clip-path="url(#p378f76e67a)" d="M 120.17443 325.921635 
L 120.846969 325.921635 
L 120.846969 133.148425 
L 120.17443 133.148425 
z
" style="fill:#1f77b4;"/>
   </g>
   <g id="patch_82">
    <path clip-path="url(#p378f76e67a)" d="M 121.015103 325.921635 
L 121.687641 325.921635 
L 121.687641 121.415517 
L 121.015103 121.415517 
z
" style="fill:#1f77b4;"/>
   </g>
   <g id="patch_83">
    <path clip-path="url(#p378f76e67a)" d="M 121.855776 325.921635 
L 122.528314 325.921635 
L 122.528314 117.70095 
L 121.855776 117.70095 
z
" style="fill:#1f77b4;"/>
   </g>
   <g id="patch_84">
    <path clip-path="url(#p378f76e67a)" d="M 122.696449 325.921635 
L 123.368987 325.921635 
L 123.368987 109.272726 
L 122.696449 109.272726 
z
" style="fill:#1f77b4;"/>
   </g>
   <g id="patch_85">
    <path clip-path="url(#p378f76e67a)" d="M 123.537121 325.921635 
L 124.20966 325.921635 
L 124.20966 101.86921 
L 123.537121 101.86921 
z
" style="fill:#1f77b4;"/>
   </g>
   <g id="patch_86">
    <path clip-path="url(#p378f76e67a)" d="M 124.377794 325.921635 
L 125.050332 325.921635 
L 125.050332 93.031103 
L 124.377794 93.031103 
z
" style="fill:#1f77b4;"/>
   </g>
   <g id="patch_87">
    <path clip-path="url(#p378f76e67a)" d="M 125.218467 325.921635 
L 125.891005 325.921635 
L 125.891005 87.805092 
L 125.218467 87.805092 
z
" style="fill:#1f77b4;"/>
   </g>
   <g id="patch_88">
    <path clip-path="url(#p378f76e67a)" d="M 126.05914 325.921635 
L 126.731678 325.921635 
L 126.731678 81.682461 
L 126.05914 81.682461 
z
" style="fill:#1f77b4;"/>
   </g>
   <g id="patch_89">
    <path clip-path="url(#p378f76e67a)" d="M 126.899813 325.921635 
L 127.572351 325.921635 
L 127.572351 78.915749 
L 126.899813 78.915749 
z
" style="fill:#1f77b4;"/>
   </g>
   <g id="patch_90">
    <path clip-path="url(#p378f76e67a)" d="M 127.740485 325.921635 
L 128.413024 325.921635 
L 128.413024 75.611065 
L 127.740485 75.611065 
z
" style="fill:#1f77b4;"/>
   </g>
   <g id="patch_91">
    <path clip-path="url(#p378f76e67a)" d="M 128.581158 325.921635 
L 129.253696 325.921635 
L 129.253696 69.667758 
L 128.581158 69.667758 
z
" style="fill:#1f77b4;"/>
   </g>
   <g id="patch_92">
    <path clip-path="url(#p378f76e67a)" d="M 129.421831 325.921635 
L 130.094369 325.921635 
L 130.094369 61.06021 
L 129.421831 61.06021 
z
" style="fill:#1f77b4;"/>
   </g>
   <g id="patch_93">
    <path clip-path="url(#p378f76e67a)" d="M 130.262504 325.921635 
L 130.935042 325.921635 
L 130.935042 52.734457 
L 130.262504 52.734457 
z
" style="fill:#1f77b4;"/>
   </g>
   <g id="patch_94">
    <path clip-path="url(#p378f76e67a)" d="M 131.103176 325.921635 
L 131.775715 325.921635 
L 131.775715 44.459939 
L 131.103176 44.459939 
z
" style="fill:#1f77b4;"/>
   </g>
   <g id="patch_95">
    <path clip-path="url(#p378f76e67a)" d="M 131.943849 325.921635 
L 132.616388 325.921635 
L 132.616388 37.389453 
L 131.943849 37.389453 
z
" style="fill:#1f77b4;"/>
   </g>
   <g id="patch_96">
    <path clip-path="url(#p378f76e67a)" d="M 132.784522 325.921635 
L 133.45706 325.921635 
L 133.45706 34.366564 
L 132.784522 34.366564 
z
" style="fill:#1f77b4;"/>
   </g>
   <g id="matplotlib.axis_1">
    <g id="xtick_1">
     <g id="line2d_1">
      <defs>
       <path d="M 0 0 
L 0 3.5 
" id="m888cccd6b2" style="stroke:#000000;stroke-width:0.8;"/>
      </defs>
      <g>
       <use style="stroke:#000000;stroke-width:0.8;" x="54.938223" xlink:href="#m888cccd6b2" y="325.921635"/>
      </g>
     </g>
     <g id="text_1">
      <!-- 0 -->
      <defs>
       <path d="M 31.78125 66.40625 
Q 24.171875 66.40625 20.328125 58.90625 
Q 16.5 51.421875 16.5 36.375 
Q 16.5 21.390625 20.328125 13.890625 
Q 24.171875 6.390625 31.78125 6.390625 
Q 39.453125 6.390625 43.28125 13.890625 
Q 47.125 21.390625 47.125 36.375 
Q 47.125 51.421875 43.28125 58.90625 
Q 39.453125 66.40625 31.78125 66.40625 
z
M 31.78125 74.21875 
Q 44.046875 74.21875 50.515625 64.515625 
Q 56.984375 54.828125 56.984375 36.375 
Q 56.984375 17.96875 50.515625 8.265625 
Q 44.046875 -1.421875 31.78125 -1.421875 
Q 19.53125 -1.421875 13.0625 8.265625 
Q 6.59375 17.96875 6.59375 36.375 
Q 6.59375 54.828125 13.0625 64.515625 
Q 19.53125 74.21875 31.78125 74.21875 
z
" id="DejaVuSans-48"/>
      </defs>
      <g transform="translate(51.756973 340.520072)scale(0.1 -0.1)">
       <use xlink:href="#DejaVuSans-48"/>
      </g>
     </g>
    </g>
    <g id="xtick_2">
     <g id="line2d_2">
      <g>
       <use style="stroke:#000000;stroke-width:0.8;" x="96.971862" xlink:href="#m888cccd6b2" y="325.921635"/>
      </g>
     </g>
     <g id="text_2">
      <!-- 50 -->
      <defs>
       <path d="M 10.796875 72.90625 
L 49.515625 72.90625 
L 49.515625 64.59375 
L 19.828125 64.59375 
L 19.828125 46.734375 
Q 21.96875 47.46875 24.109375 47.828125 
Q 26.265625 48.1875 28.421875 48.1875 
Q 40.625 48.1875 47.75 41.5 
Q 54.890625 34.8125 54.890625 23.390625 
Q 54.890625 11.625 47.5625 5.09375 
Q 40.234375 -1.421875 26.90625 -1.421875 
Q 22.3125 -1.421875 17.546875 -0.640625 
Q 12.796875 0.140625 7.71875 1.703125 
L 7.71875 11.625 
Q 12.109375 9.234375 16.796875 8.0625 
Q 21.484375 6.890625 26.703125 6.890625 
Q 35.15625 6.890625 40.078125 11.328125 
Q 45.015625 15.765625 45.015625 23.390625 
Q 45.015625 31 40.078125 35.4375 
Q 35.15625 39.890625 26.703125 39.890625 
Q 22.75 39.890625 18.8125 39.015625 
Q 14.890625 38.140625 10.796875 36.28125 
z
" id="DejaVuSans-53"/>
      </defs>
      <g transform="translate(90.609362 340.520072)scale(0.1 -0.1)">
       <use xlink:href="#DejaVuSans-53"/>
       <use x="63.623047" xlink:href="#DejaVuSans-48"/>
      </g>
     </g>
    </g>
   </g>
   <g id="matplotlib.axis_2">
    <g id="ytick_1">
     <g id="line2d_3">
      <defs>
       <path d="M 0 0 
L -3.5 0 
" id="ma8474ee0b1" style="stroke:#000000;stroke-width:0.8;"/>
      </defs>
      <g>
       <use style="stroke:#000000;stroke-width:0.8;" x="50.659198" xlink:href="#ma8474ee0b1" y="325.921635"/>
      </g>
     </g>
     <g id="text_3">
      <!-- 0 -->
      <g transform="translate(37.296698 329.720854)scale(0.1 -0.1)">
       <use xlink:href="#DejaVuSans-48"/>
      </g>
     </g>
    </g>
    <g id="ytick_2">
     <g id="line2d_4">
      <g>
       <use style="stroke:#000000;stroke-width:0.8;" x="50.659198" xlink:href="#ma8474ee0b1" y="274.68623"/>
      </g>
     </g>
     <g id="text_4">
      <!-- 2000 -->
      <defs>
       <path d="M 19.1875 8.296875 
L 53.609375 8.296875 
L 53.609375 0 
L 7.328125 0 
L 7.328125 8.296875 
Q 12.9375 14.109375 22.625 23.890625 
Q 32.328125 33.6875 34.8125 36.53125 
Q 39.546875 41.84375 41.421875 45.53125 
Q 43.3125 49.21875 43.3125 52.78125 
Q 43.3125 58.59375 39.234375 62.25 
Q 35.15625 65.921875 28.609375 65.921875 
Q 23.96875 65.921875 18.8125 64.3125 
Q 13.671875 62.703125 7.8125 59.421875 
L 7.8125 69.390625 
Q 13.765625 71.78125 18.9375 73 
Q 24.125 74.21875 28.421875 74.21875 
Q 39.75 74.21875 46.484375 68.546875 
Q 53.21875 62.890625 53.21875 53.421875 
Q 53.21875 48.921875 51.53125 44.890625 
Q 49.859375 40.875 45.40625 35.40625 
Q 44.1875 33.984375 37.640625 27.21875 
Q 31.109375 20.453125 19.1875 8.296875 
z
" id="DejaVuSans-50"/>
      </defs>
      <g transform="translate(18.209198 278.485449)scale(0.1 -0.1)">
       <use xlink:href="#DejaVuSans-50"/>
       <use x="63.623047" xlink:href="#DejaVuSans-48"/>
       <use x="127.246094" xlink:href="#DejaVuSans-48"/>
       <use x="190.869141" xlink:href="#DejaVuSans-48"/>
      </g>
     </g>
    </g>
    <g id="ytick_3">
     <g id="line2d_5">
      <g>
       <use style="stroke:#000000;stroke-width:0.8;" x="50.659198" xlink:href="#ma8474ee0b1" y="223.450826"/>
      </g>
     </g>
     <g id="text_5">
      <!-- 4000 -->
      <defs>
       <path d="M 37.796875 64.3125 
L 12.890625 25.390625 
L 37.796875 25.390625 
z
M 35.203125 72.90625 
L 47.609375 72.90625 
L 47.609375 25.390625 
L 58.015625 25.390625 
L 58.015625 17.1875 
L 47.609375 17.1875 
L 47.609375 0 
L 37.796875 0 
L 37.796875 17.1875 
L 4.890625 17.1875 
L 4.890625 26.703125 
z
" id="DejaVuSans-52"/>
      </defs>
      <g transform="translate(18.209198 227.250044)scale(0.1 -0.1)">
       <use xlink:href="#DejaVuSans-52"/>
       <use x="63.623047" xlink:href="#DejaVuSans-48"/>
       <use x="127.246094" xlink:href="#DejaVuSans-48"/>
       <use x="190.869141" xlink:href="#DejaVuSans-48"/>
      </g>
     </g>
    </g>
    <g id="ytick_4">
     <g id="line2d_6">
      <g>
       <use style="stroke:#000000;stroke-width:0.8;" x="50.659198" xlink:href="#ma8474ee0b1" y="172.215421"/>
      </g>
     </g>
     <g id="text_6">
      <!-- 6000 -->
      <defs>
       <path d="M 33.015625 40.375 
Q 26.375 40.375 22.484375 35.828125 
Q 18.609375 31.296875 18.609375 23.390625 
Q 18.609375 15.53125 22.484375 10.953125 
Q 26.375 6.390625 33.015625 6.390625 
Q 39.65625 6.390625 43.53125 10.953125 
Q 47.40625 15.53125 47.40625 23.390625 
Q 47.40625 31.296875 43.53125 35.828125 
Q 39.65625 40.375 33.015625 40.375 
z
M 52.59375 71.296875 
L 52.59375 62.3125 
Q 48.875 64.0625 45.09375 64.984375 
Q 41.3125 65.921875 37.59375 65.921875 
Q 27.828125 65.921875 22.671875 59.328125 
Q 17.53125 52.734375 16.796875 39.40625 
Q 19.671875 43.65625 24.015625 45.921875 
Q 28.375 48.1875 33.59375 48.1875 
Q 44.578125 48.1875 50.953125 41.515625 
Q 57.328125 34.859375 57.328125 23.390625 
Q 57.328125 12.15625 50.6875 5.359375 
Q 44.046875 -1.421875 33.015625 -1.421875 
Q 20.359375 -1.421875 13.671875 8.265625 
Q 6.984375 17.96875 6.984375 36.375 
Q 6.984375 53.65625 15.1875 63.9375 
Q 23.390625 74.21875 37.203125 74.21875 
Q 40.921875 74.21875 44.703125 73.484375 
Q 48.484375 72.75 52.59375 71.296875 
z
" id="DejaVuSans-54"/>
      </defs>
      <g transform="translate(18.209198 176.01464)scale(0.1 -0.1)">
       <use xlink:href="#DejaVuSans-54"/>
       <use x="63.623047" xlink:href="#DejaVuSans-48"/>
       <use x="127.246094" xlink:href="#DejaVuSans-48"/>
       <use x="190.869141" xlink:href="#DejaVuSans-48"/>
      </g>
     </g>
    </g>
    <g id="ytick_5">
     <g id="line2d_7">
      <g>
       <use style="stroke:#000000;stroke-width:0.8;" x="50.659198" xlink:href="#ma8474ee0b1" y="120.980016"/>
      </g>
     </g>
     <g id="text_7">
      <!-- 8000 -->
      <defs>
       <path d="M 31.78125 34.625 
Q 24.75 34.625 20.71875 30.859375 
Q 16.703125 27.09375 16.703125 20.515625 
Q 16.703125 13.921875 20.71875 10.15625 
Q 24.75 6.390625 31.78125 6.390625 
Q 38.8125 6.390625 42.859375 10.171875 
Q 46.921875 13.96875 46.921875 20.515625 
Q 46.921875 27.09375 42.890625 30.859375 
Q 38.875 34.625 31.78125 34.625 
z
M 21.921875 38.8125 
Q 15.578125 40.375 12.03125 44.71875 
Q 8.5 49.078125 8.5 55.328125 
Q 8.5 64.0625 14.71875 69.140625 
Q 20.953125 74.21875 31.78125 74.21875 
Q 42.671875 74.21875 48.875 69.140625 
Q 55.078125 64.0625 55.078125 55.328125 
Q 55.078125 49.078125 51.53125 44.71875 
Q 48 40.375 41.703125 38.8125 
Q 48.828125 37.15625 52.796875 32.3125 
Q 56.78125 27.484375 56.78125 20.515625 
Q 56.78125 9.90625 50.3125 4.234375 
Q 43.84375 -1.421875 31.78125 -1.421875 
Q 19.734375 -1.421875 13.25 4.234375 
Q 6.78125 9.90625 6.78125 20.515625 
Q 6.78125 27.484375 10.78125 32.3125 
Q 14.796875 37.15625 21.921875 38.8125 
z
M 18.3125 54.390625 
Q 18.3125 48.734375 21.84375 45.5625 
Q 25.390625 42.390625 31.78125 42.390625 
Q 38.140625 42.390625 41.71875 45.5625 
Q 45.3125 48.734375 45.3125 54.390625 
Q 45.3125 60.0625 41.71875 63.234375 
Q 38.140625 66.40625 31.78125 66.40625 
Q 25.390625 66.40625 21.84375 63.234375 
Q 18.3125 60.0625 18.3125 54.390625 
z
" id="DejaVuSans-56"/>
      </defs>
      <g transform="translate(18.209198 124.779235)scale(0.1 -0.1)">
       <use xlink:href="#DejaVuSans-56"/>
       <use x="63.623047" xlink:href="#DejaVuSans-48"/>
       <use x="127.246094" xlink:href="#DejaVuSans-48"/>
       <use x="190.869141" xlink:href="#DejaVuSans-48"/>
      </g>
     </g>
    </g>
    <g id="ytick_6">
     <g id="line2d_8">
      <g>
       <use style="stroke:#000000;stroke-width:0.8;" x="50.659198" xlink:href="#ma8474ee0b1" y="69.744611"/>
      </g>
     </g>
     <g id="text_8">
      <!-- 10000 -->
      <defs>
       <path d="M 12.40625 8.296875 
L 28.515625 8.296875 
L 28.515625 63.921875 
L 10.984375 60.40625 
L 10.984375 69.390625 
L 28.421875 72.90625 
L 38.28125 72.90625 
L 38.28125 8.296875 
L 54.390625 8.296875 
L 54.390625 0 
L 12.40625 0 
z
" id="DejaVuSans-49"/>
      </defs>
      <g transform="translate(11.846698 73.54383)scale(0.1 -0.1)">
       <use xlink:href="#DejaVuSans-49"/>
       <use x="63.623047" xlink:href="#DejaVuSans-48"/>
       <use x="127.246094" xlink:href="#DejaVuSans-48"/>
       <use x="190.869141" xlink:href="#DejaVuSans-48"/>
       <use x="254.492188" xlink:href="#DejaVuSans-48"/>
      </g>
     </g>
    </g>
    <g id="ytick_7">
     <g id="line2d_9">
      <g>
       <use style="stroke:#000000;stroke-width:0.8;" x="50.659198" xlink:href="#ma8474ee0b1" y="18.509207"/>
      </g>
     </g>
     <g id="text_9">
      <!-- 12000 -->
      <g transform="translate(11.846698 22.308425)scale(0.1 -0.1)">
       <use xlink:href="#DejaVuSans-49"/>
       <use x="63.623047" xlink:href="#DejaVuSans-50"/>
       <use x="127.246094" xlink:href="#DejaVuSans-48"/>
       <use x="190.869141" xlink:href="#DejaVuSans-48"/>
       <use x="254.492188" xlink:href="#DejaVuSans-48"/>
      </g>
     </g>
    </g>
   </g>
   <g id="line2d_10">
    <path clip-path="url(#p378f76e67a)" d="M 54.938223 325.69322 
L 55.778895 325.649016 
L 56.619568 325.594004 
L 57.460241 325.531597 
L 58.300914 325.462938 
L 59.141586 325.389841 
L 59.982259 325.314471 
L 60.822932 325.238365 
L 61.663605 325.162792 
L 62.504278 325.088862 
L 63.34495 325.017568 
L 64.185623 324.949421 
L 65.026296 324.883889 
L 65.866969 324.819551 
L 66.707642 324.754445 
L 67.548314 324.68632 
L 68.388987 324.612518 
L 69.22966 324.529967 
L 70.070333 324.435403 
L 70.911005 324.325997 
L 71.751678 324.199477 
L 72.592351 324.05373 
L 73.433024 323.886527 
L 74.273697 323.696117 
L 75.114369 323.481146 
L 75.955042 323.240995 
L 76.795715 322.975503 
L 77.636388 322.684863 
L 78.47706 322.370004 
L 79.317733 322.032375 
L 80.158406 321.672084 
L 80.999079 321.28784 
L 81.839752 320.875588 
L 82.680424 320.427401 
L 83.521097 319.931115 
L 84.36177 319.369649 
L 85.202443 318.721844 
L 86.043115 317.964762 
L 86.883788 317.073594 
L 87.724461 316.02441 
L 88.565134 314.797673 
L 89.405807 313.379108 
L 90.246479 311.762002 
L 91.087152 309.947008 
L 91.927825 307.943396 
L 92.768498 305.771589 
L 93.60917 303.460565 
L 94.449843 301.040882 
L 95.290516 298.543364 
L 96.131189 295.993533 
L 96.971862 293.407969 
L 97.812534 290.786663 
L 98.653207 288.103409 
L 99.49388 285.305275 
L 100.334553 282.32149 
L 101.175226 279.065961 
L 102.015898 275.444817 
L 102.856571 271.364443 
L 103.697244 266.742353 
L 104.537917 261.527864 
L 105.378589 255.708389 
L 106.219262 249.30741 
L 107.059935 242.383727 
L 107.900608 235.030881 
L 108.741281 227.371294 
L 109.581953 219.54857 
L 110.422626 211.703044 
L 111.263299 203.958774 
L 112.103972 196.414696 
L 112.944644 189.13833 
L 113.785317 182.154919 
L 114.62599 175.447722 
L 115.466663 168.961397 
L 116.307336 162.616433 
L 117.148008 156.329255 
L 117.988681 150.022211 
L 118.829354 143.63554 
L 119.670027 137.138907 
L 120.510699 130.532613 
L 121.351372 123.843736 
L 122.192045 117.122231 
L 123.032718 110.418107 
L 123.873391 103.775131 
L 124.714063 97.219667 
L 125.554736 90.759375 
L 126.395409 84.380546 
L 127.236082 78.05356 
L 128.076754 71.736572 
L 128.917427 65.393923 
L 129.7581 58.9948 
L 130.598773 52.522025 
L 131.439446 45.996447 
L 132.280118 39.41258 
L 133.120791 32.775664 
" style="fill:none;stroke:#ff0000;stroke-linecap:square;stroke-width:1.5;"/>
   </g>
   <g id="patch_97">
    <path d="M 50.659198 325.921635 
L 50.659198 18.118365 
" style="fill:none;stroke:#000000;stroke-linecap:square;stroke-linejoin:miter;stroke-width:0.8;"/>
   </g>
   <g id="patch_98">
    <path d="M 137.399816 325.921635 
L 137.399816 18.118365 
" style="fill:none;stroke:#000000;stroke-linecap:square;stroke-linejoin:miter;stroke-width:0.8;"/>
   </g>
   <g id="patch_99">
    <path d="M 50.659198 325.921635 
L 137.399816 325.921635 
" style="fill:none;stroke:#000000;stroke-linecap:square;stroke-linejoin:miter;stroke-width:0.8;"/>
   </g>
   <g id="patch_100">
    <path d="M 50.659198 18.118365 
L 137.399816 18.118365 
" style="fill:none;stroke:#000000;stroke-linecap:square;stroke-linejoin:miter;stroke-width:0.8;"/>
   </g>
   <g id="text_10">
    <!-- Casos acumulados - AC - (data) -->
    <defs>
     <path d="M 64.40625 67.28125 
L 64.40625 56.890625 
Q 59.421875 61.53125 53.78125 63.8125 
Q 48.140625 66.109375 41.796875 66.109375 
Q 29.296875 66.109375 22.65625 58.46875 
Q 16.015625 50.828125 16.015625 36.375 
Q 16.015625 21.96875 22.65625 14.328125 
Q 29.296875 6.6875 41.796875 6.6875 
Q 48.140625 6.6875 53.78125 8.984375 
Q 59.421875 11.28125 64.40625 15.921875 
L 64.40625 5.609375 
Q 59.234375 2.09375 53.4375 0.328125 
Q 47.65625 -1.421875 41.21875 -1.421875 
Q 24.65625 -1.421875 15.125 8.703125 
Q 5.609375 18.84375 5.609375 36.375 
Q 5.609375 53.953125 15.125 64.078125 
Q 24.65625 74.21875 41.21875 74.21875 
Q 47.75 74.21875 53.53125 72.484375 
Q 59.328125 70.75 64.40625 67.28125 
z
" id="DejaVuSans-67"/>
     <path d="M 34.28125 27.484375 
Q 23.390625 27.484375 19.1875 25 
Q 14.984375 22.515625 14.984375 16.5 
Q 14.984375 11.71875 18.140625 8.90625 
Q 21.296875 6.109375 26.703125 6.109375 
Q 34.1875 6.109375 38.703125 11.40625 
Q 43.21875 16.703125 43.21875 25.484375 
L 43.21875 27.484375 
z
M 52.203125 31.203125 
L 52.203125 0 
L 43.21875 0 
L 43.21875 8.296875 
Q 40.140625 3.328125 35.546875 0.953125 
Q 30.953125 -1.421875 24.3125 -1.421875 
Q 15.921875 -1.421875 10.953125 3.296875 
Q 6 8.015625 6 15.921875 
Q 6 25.140625 12.171875 29.828125 
Q 18.359375 34.515625 30.609375 34.515625 
L 43.21875 34.515625 
L 43.21875 35.40625 
Q 43.21875 41.609375 39.140625 45 
Q 35.0625 48.390625 27.6875 48.390625 
Q 23 48.390625 18.546875 47.265625 
Q 14.109375 46.140625 10.015625 43.890625 
L 10.015625 52.203125 
Q 14.9375 54.109375 19.578125 55.046875 
Q 24.21875 56 28.609375 56 
Q 40.484375 56 46.34375 49.84375 
Q 52.203125 43.703125 52.203125 31.203125 
z
" id="DejaVuSans-97"/>
     <path d="M 44.28125 53.078125 
L 44.28125 44.578125 
Q 40.484375 46.53125 36.375 47.5 
Q 32.28125 48.484375 27.875 48.484375 
Q 21.1875 48.484375 17.84375 46.4375 
Q 14.5 44.390625 14.5 40.28125 
Q 14.5 37.15625 16.890625 35.375 
Q 19.28125 33.59375 26.515625 31.984375 
L 29.59375 31.296875 
Q 39.15625 29.25 43.1875 25.515625 
Q 47.21875 21.78125 47.21875 15.09375 
Q 47.21875 7.46875 41.1875 3.015625 
Q 35.15625 -1.421875 24.609375 -1.421875 
Q 20.21875 -1.421875 15.453125 -0.5625 
Q 10.6875 0.296875 5.421875 2 
L 5.421875 11.28125 
Q 10.40625 8.6875 15.234375 7.390625 
Q 20.0625 6.109375 24.8125 6.109375 
Q 31.15625 6.109375 34.5625 8.28125 
Q 37.984375 10.453125 37.984375 14.40625 
Q 37.984375 18.0625 35.515625 20.015625 
Q 33.0625 21.96875 24.703125 23.78125 
L 21.578125 24.515625 
Q 13.234375 26.265625 9.515625 29.90625 
Q 5.8125 33.546875 5.8125 39.890625 
Q 5.8125 47.609375 11.28125 51.796875 
Q 16.75 56 26.8125 56 
Q 31.78125 56 36.171875 55.265625 
Q 40.578125 54.546875 44.28125 53.078125 
z
" id="DejaVuSans-115"/>
     <path d="M 30.609375 48.390625 
Q 23.390625 48.390625 19.1875 42.75 
Q 14.984375 37.109375 14.984375 27.296875 
Q 14.984375 17.484375 19.15625 11.84375 
Q 23.34375 6.203125 30.609375 6.203125 
Q 37.796875 6.203125 41.984375 11.859375 
Q 46.1875 17.53125 46.1875 27.296875 
Q 46.1875 37.015625 41.984375 42.703125 
Q 37.796875 48.390625 30.609375 48.390625 
z
M 30.609375 56 
Q 42.328125 56 49.015625 48.375 
Q 55.71875 40.765625 55.71875 27.296875 
Q 55.71875 13.875 49.015625 6.21875 
Q 42.328125 -1.421875 30.609375 -1.421875 
Q 18.84375 -1.421875 12.171875 6.21875 
Q 5.515625 13.875 5.515625 27.296875 
Q 5.515625 40.765625 12.171875 48.375 
Q 18.84375 56 30.609375 56 
z
" id="DejaVuSans-111"/>
     <path id="DejaVuSans-32"/>
     <path d="M 48.78125 52.59375 
L 48.78125 44.1875 
Q 44.96875 46.296875 41.140625 47.34375 
Q 37.3125 48.390625 33.40625 48.390625 
Q 24.65625 48.390625 19.8125 42.84375 
Q 14.984375 37.3125 14.984375 27.296875 
Q 14.984375 17.28125 19.8125 11.734375 
Q 24.65625 6.203125 33.40625 6.203125 
Q 37.3125 6.203125 41.140625 7.25 
Q 44.96875 8.296875 48.78125 10.40625 
L 48.78125 2.09375 
Q 45.015625 0.34375 40.984375 -0.53125 
Q 36.96875 -1.421875 32.421875 -1.421875 
Q 20.0625 -1.421875 12.78125 6.34375 
Q 5.515625 14.109375 5.515625 27.296875 
Q 5.515625 40.671875 12.859375 48.328125 
Q 20.21875 56 33.015625 56 
Q 37.15625 56 41.109375 55.140625 
Q 45.0625 54.296875 48.78125 52.59375 
z
" id="DejaVuSans-99"/>
     <path d="M 8.5 21.578125 
L 8.5 54.6875 
L 17.484375 54.6875 
L 17.484375 21.921875 
Q 17.484375 14.15625 20.5 10.265625 
Q 23.53125 6.390625 29.59375 6.390625 
Q 36.859375 6.390625 41.078125 11.03125 
Q 45.3125 15.671875 45.3125 23.6875 
L 45.3125 54.6875 
L 54.296875 54.6875 
L 54.296875 0 
L 45.3125 0 
L 45.3125 8.40625 
Q 42.046875 3.421875 37.71875 1 
Q 33.40625 -1.421875 27.6875 -1.421875 
Q 18.265625 -1.421875 13.375 4.4375 
Q 8.5 10.296875 8.5 21.578125 
z
M 31.109375 56 
z
" id="DejaVuSans-117"/>
     <path d="M 52 44.1875 
Q 55.375 50.25 60.0625 53.125 
Q 64.75 56 71.09375 56 
Q 79.640625 56 84.28125 50.015625 
Q 88.921875 44.046875 88.921875 33.015625 
L 88.921875 0 
L 79.890625 0 
L 79.890625 32.71875 
Q 79.890625 40.578125 77.09375 44.375 
Q 74.3125 48.1875 68.609375 48.1875 
Q 61.625 48.1875 57.5625 43.546875 
Q 53.515625 38.921875 53.515625 30.90625 
L 53.515625 0 
L 44.484375 0 
L 44.484375 32.71875 
Q 44.484375 40.625 41.703125 44.40625 
Q 38.921875 48.1875 33.109375 48.1875 
Q 26.21875 48.1875 22.15625 43.53125 
Q 18.109375 38.875 18.109375 30.90625 
L 18.109375 0 
L 9.078125 0 
L 9.078125 54.6875 
L 18.109375 54.6875 
L 18.109375 46.1875 
Q 21.1875 51.21875 25.484375 53.609375 
Q 29.78125 56 35.6875 56 
Q 41.65625 56 45.828125 52.96875 
Q 50 49.953125 52 44.1875 
z
" id="DejaVuSans-109"/>
     <path d="M 9.421875 75.984375 
L 18.40625 75.984375 
L 18.40625 0 
L 9.421875 0 
z
" id="DejaVuSans-108"/>
     <path d="M 45.40625 46.390625 
L 45.40625 75.984375 
L 54.390625 75.984375 
L 54.390625 0 
L 45.40625 0 
L 45.40625 8.203125 
Q 42.578125 3.328125 38.25 0.953125 
Q 33.9375 -1.421875 27.875 -1.421875 
Q 17.96875 -1.421875 11.734375 6.484375 
Q 5.515625 14.40625 5.515625 27.296875 
Q 5.515625 40.1875 11.734375 48.09375 
Q 17.96875 56 27.875 56 
Q 33.9375 56 38.25 53.625 
Q 42.578125 51.265625 45.40625 46.390625 
z
M 14.796875 27.296875 
Q 14.796875 17.390625 18.875 11.75 
Q 22.953125 6.109375 30.078125 6.109375 
Q 37.203125 6.109375 41.296875 11.75 
Q 45.40625 17.390625 45.40625 27.296875 
Q 45.40625 37.203125 41.296875 42.84375 
Q 37.203125 48.484375 30.078125 48.484375 
Q 22.953125 48.484375 18.875 42.84375 
Q 14.796875 37.203125 14.796875 27.296875 
z
" id="DejaVuSans-100"/>
     <path d="M 4.890625 31.390625 
L 31.203125 31.390625 
L 31.203125 23.390625 
L 4.890625 23.390625 
z
" id="DejaVuSans-45"/>
     <path d="M 34.1875 63.1875 
L 20.796875 26.90625 
L 47.609375 26.90625 
z
M 28.609375 72.90625 
L 39.796875 72.90625 
L 67.578125 0 
L 57.328125 0 
L 50.6875 18.703125 
L 17.828125 18.703125 
L 11.1875 0 
L 0.78125 0 
z
" id="DejaVuSans-65"/>
     <path d="M 31 75.875 
Q 24.46875 64.65625 21.28125 53.65625 
Q 18.109375 42.671875 18.109375 31.390625 
Q 18.109375 20.125 21.3125 9.0625 
Q 24.515625 -2 31 -13.1875 
L 23.1875 -13.1875 
Q 15.875 -1.703125 12.234375 9.375 
Q 8.59375 20.453125 8.59375 31.390625 
Q 8.59375 42.28125 12.203125 53.3125 
Q 15.828125 64.359375 23.1875 75.875 
z
" id="DejaVuSans-40"/>
     <path d="M 18.3125 70.21875 
L 18.3125 54.6875 
L 36.8125 54.6875 
L 36.8125 47.703125 
L 18.3125 47.703125 
L 18.3125 18.015625 
Q 18.3125 11.328125 20.140625 9.421875 
Q 21.96875 7.515625 27.59375 7.515625 
L 36.8125 7.515625 
L 36.8125 0 
L 27.59375 0 
Q 17.1875 0 13.234375 3.875 
Q 9.28125 7.765625 9.28125 18.015625 
L 9.28125 47.703125 
L 2.6875 47.703125 
L 2.6875 54.6875 
L 9.28125 54.6875 
L 9.28125 70.21875 
z
" id="DejaVuSans-116"/>
     <path d="M 8.015625 75.875 
L 15.828125 75.875 
Q 23.140625 64.359375 26.78125 53.3125 
Q 30.421875 42.28125 30.421875 31.390625 
Q 30.421875 20.453125 26.78125 9.375 
Q 23.140625 -1.703125 15.828125 -13.1875 
L 8.015625 -13.1875 
Q 14.5 -2 17.703125 9.0625 
Q 20.90625 20.125 20.90625 31.390625 
Q 20.90625 42.671875 17.703125 53.65625 
Q 14.5 64.65625 8.015625 75.875 
z
" id="DejaVuSans-41"/>
    </defs>
    <g transform="translate(-0.384243 12.118365)scale(0.12 -0.12)">
     <use xlink:href="#DejaVuSans-67"/>
     <use x="69.824219" xlink:href="#DejaVuSans-97"/>
     <use x="131.103516" xlink:href="#DejaVuSans-115"/>
     <use x="183.203125" xlink:href="#DejaVuSans-111"/>
     <use x="244.384766" xlink:href="#DejaVuSans-115"/>
     <use x="296.484375" xlink:href="#DejaVuSans-32"/>
     <use x="328.271484" xlink:href="#DejaVuSans-97"/>
     <use x="389.550781" xlink:href="#DejaVuSans-99"/>
     <use x="444.53125" xlink:href="#DejaVuSans-117"/>
     <use x="507.910156" xlink:href="#DejaVuSans-109"/>
     <use x="605.322266" xlink:href="#DejaVuSans-117"/>
     <use x="668.701172" xlink:href="#DejaVuSans-108"/>
     <use x="696.484375" xlink:href="#DejaVuSans-97"/>
     <use x="757.763672" xlink:href="#DejaVuSans-100"/>
     <use x="821.240234" xlink:href="#DejaVuSans-111"/>
     <use x="882.421875" xlink:href="#DejaVuSans-115"/>
     <use x="934.521484" xlink:href="#DejaVuSans-32"/>
     <use x="966.308594" xlink:href="#DejaVuSans-45"/>
     <use x="1002.392578" xlink:href="#DejaVuSans-32"/>
     <use x="1034.179688" xlink:href="#DejaVuSans-65"/>
     <use x="1100.837891" xlink:href="#DejaVuSans-67"/>
     <use x="1170.662109" xlink:href="#DejaVuSans-32"/>
     <use x="1202.449219" xlink:href="#DejaVuSans-45"/>
     <use x="1238.533203" xlink:href="#DejaVuSans-32"/>
     <use x="1270.320312" xlink:href="#DejaVuSans-40"/>
     <use x="1309.333984" xlink:href="#DejaVuSans-100"/>
     <use x="1372.810547" xlink:href="#DejaVuSans-97"/>
     <use x="1434.089844" xlink:href="#DejaVuSans-116"/>
     <use x="1473.298828" xlink:href="#DejaVuSans-97"/>
     <use x="1534.578125" xlink:href="#DejaVuSans-41"/>
    </g>
   </g>
  </g>
  <g id="axes_2">
   <g id="patch_101">
    <path d="M 223.237087 325.921635 
L 309.977704 325.921635 
L 309.977704 18.118365 
L 223.237087 18.118365 
z
" style="fill:#ffffff;"/>
   </g>
   <g id="patch_102">
    <path clip-path="url(#p3d6f3384bd)" d="M 227.179842 325.921635 
L 227.85238 325.921635 
L 227.85238 323.683879 
L 227.179842 323.683879 
z
" style="fill:#1f77b4;"/>
   </g>
   <g id="patch_103">
    <path clip-path="url(#p3d6f3384bd)" d="M 228.020515 325.921635 
L 228.693053 325.921635 
L 228.693053 324.802757 
L 228.020515 324.802757 
z
" style="fill:#1f77b4;"/>
   </g>
   <g id="patch_104">
    <path clip-path="url(#p3d6f3384bd)" d="M 228.861188 325.921635 
L 229.533726 325.921635 
L 229.533726 324.802757 
L 228.861188 324.802757 
z
" style="fill:#1f77b4;"/>
   </g>
   <g id="patch_105">
    <path clip-path="url(#p3d6f3384bd)" d="M 229.701861 325.921635 
L 230.374399 325.921635 
L 230.374399 325.921635 
L 229.701861 325.921635 
z
" style="fill:#1f77b4;"/>
   </g>
   <g id="patch_106">
    <path clip-path="url(#p3d6f3384bd)" d="M 230.542533 325.921635 
L 231.215072 325.921635 
L 231.215072 322.565002 
L 230.542533 322.565002 
z
" style="fill:#1f77b4;"/>
   </g>
   <g id="patch_107">
    <path clip-path="url(#p3d6f3384bd)" d="M 231.383206 325.921635 
L 232.055744 325.921635 
L 232.055744 322.565002 
L 231.383206 322.565002 
z
" style="fill:#1f77b4;"/>
   </g>
   <g id="patch_108">
    <path clip-path="url(#p3d6f3384bd)" d="M 232.223879 325.921635 
L 232.896417 325.921635 
L 232.896417 325.362196 
L 232.223879 325.362196 
z
" style="fill:#1f77b4;"/>
   </g>
   <g id="patch_109">
    <path clip-path="url(#p3d6f3384bd)" d="M 233.064552 325.921635 
L 233.73709 325.921635 
L 233.73709 325.362196 
L 233.064552 325.362196 
z
" style="fill:#1f77b4;"/>
   </g>
   <g id="patch_110">
    <path clip-path="url(#p3d6f3384bd)" d="M 233.905224 325.921635 
L 234.577763 325.921635 
L 234.577763 325.921635 
L 233.905224 325.921635 
z
" style="fill:#1f77b4;"/>
   </g>
   <g id="patch_111">
    <path clip-path="url(#p3d6f3384bd)" d="M 234.745897 325.921635 
L 235.418435 325.921635 
L 235.418435 320.886685 
L 234.745897 320.886685 
z
" style="fill:#1f77b4;"/>
   </g>
   <g id="patch_112">
    <path clip-path="url(#p3d6f3384bd)" d="M 235.58657 325.921635 
L 236.259108 325.921635 
L 236.259108 321.446124 
L 235.58657 321.446124 
z
" style="fill:#1f77b4;"/>
   </g>
   <g id="patch_113">
    <path clip-path="url(#p3d6f3384bd)" d="M 236.427243 325.921635 
L 237.099781 325.921635 
L 237.099781 325.921635 
L 236.427243 325.921635 
z
" style="fill:#1f77b4;"/>
   </g>
   <g id="patch_114">
    <path clip-path="url(#p3d6f3384bd)" d="M 237.267916 325.921635 
L 237.940454 325.921635 
L 237.940454 325.362196 
L 237.267916 325.362196 
z
" style="fill:#1f77b4;"/>
   </g>
   <g id="patch_115">
    <path clip-path="url(#p3d6f3384bd)" d="M 238.108588 325.921635 
L 238.781127 325.921635 
L 238.781127 325.921635 
L 238.108588 325.921635 
z
" style="fill:#1f77b4;"/>
   </g>
   <g id="patch_116">
    <path clip-path="url(#p3d6f3384bd)" d="M 238.949261 325.921635 
L 239.621799 325.921635 
L 239.621799 324.243318 
L 238.949261 324.243318 
z
" style="fill:#1f77b4;"/>
   </g>
   <g id="patch_117">
    <path clip-path="url(#p3d6f3384bd)" d="M 239.789934 325.921635 
L 240.462472 325.921635 
L 240.462472 325.921635 
L 239.789934 325.921635 
z
" style="fill:#1f77b4;"/>
   </g>
   <g id="patch_118">
    <path clip-path="url(#p3d6f3384bd)" d="M 240.630607 325.921635 
L 241.303145 325.921635 
L 241.303145 324.802757 
L 240.630607 324.802757 
z
" style="fill:#1f77b4;"/>
   </g>
   <g id="patch_119">
    <path clip-path="url(#p3d6f3384bd)" d="M 241.47128 325.921635 
L 242.143818 325.921635 
L 242.143818 324.802757 
L 241.47128 324.802757 
z
" style="fill:#1f77b4;"/>
   </g>
   <g id="patch_120">
    <path clip-path="url(#p3d6f3384bd)" d="M 242.311952 325.921635 
L 242.984491 325.921635 
L 242.984491 325.921635 
L 242.311952 325.921635 
z
" style="fill:#1f77b4;"/>
   </g>
   <g id="patch_121">
    <path clip-path="url(#p3d6f3384bd)" d="M 243.152625 325.921635 
L 243.825163 325.921635 
L 243.825163 323.683879 
L 243.152625 323.683879 
z
" style="fill:#1f77b4;"/>
   </g>
   <g id="patch_122">
    <path clip-path="url(#p3d6f3384bd)" d="M 243.993298 325.921635 
L 244.665836 325.921635 
L 244.665836 321.446124 
L 243.993298 321.446124 
z
" style="fill:#1f77b4;"/>
   </g>
   <g id="patch_123">
    <path clip-path="url(#p3d6f3384bd)" d="M 244.833971 325.921635 
L 245.506509 325.921635 
L 245.506509 321.446124 
L 244.833971 321.446124 
z
" style="fill:#1f77b4;"/>
   </g>
   <g id="patch_124">
    <path clip-path="url(#p3d6f3384bd)" d="M 245.674643 325.921635 
L 246.347182 325.921635 
L 246.347182 324.802757 
L 245.674643 324.802757 
z
" style="fill:#1f77b4;"/>
   </g>
   <g id="patch_125">
    <path clip-path="url(#p3d6f3384bd)" d="M 246.515316 325.921635 
L 247.187854 325.921635 
L 247.187854 323.124441 
L 246.515316 323.124441 
z
" style="fill:#1f77b4;"/>
   </g>
   <g id="patch_126">
    <path clip-path="url(#p3d6f3384bd)" d="M 247.355989 325.921635 
L 248.028527 325.921635 
L 248.028527 318.64893 
L 247.355989 318.64893 
z
" style="fill:#1f77b4;"/>
   </g>
   <g id="patch_127">
    <path clip-path="url(#p3d6f3384bd)" d="M 248.196662 325.921635 
L 248.8692 325.921635 
L 248.8692 320.886685 
L 248.196662 320.886685 
z
" style="fill:#1f77b4;"/>
   </g>
   <g id="patch_128">
    <path clip-path="url(#p3d6f3384bd)" d="M 249.037335 325.921635 
L 249.709873 325.921635 
L 249.709873 324.802757 
L 249.037335 324.802757 
z
" style="fill:#1f77b4;"/>
   </g>
   <g id="patch_129">
    <path clip-path="url(#p3d6f3384bd)" d="M 249.878007 325.921635 
L 250.550546 325.921635 
L 250.550546 320.886685 
L 249.878007 320.886685 
z
" style="fill:#1f77b4;"/>
   </g>
   <g id="patch_130">
    <path clip-path="url(#p3d6f3384bd)" d="M 250.71868 325.921635 
L 251.391218 325.921635 
L 251.391218 311.935663 
L 250.71868 311.935663 
z
" style="fill:#1f77b4;"/>
   </g>
   <g id="patch_131">
    <path clip-path="url(#p3d6f3384bd)" d="M 251.559353 325.921635 
L 252.231891 325.921635 
L 252.231891 322.005563 
L 251.559353 322.005563 
z
" style="fill:#1f77b4;"/>
   </g>
   <g id="patch_132">
    <path clip-path="url(#p3d6f3384bd)" d="M 252.400026 325.921635 
L 253.072564 325.921635 
L 253.072564 314.173419 
L 252.400026 314.173419 
z
" style="fill:#1f77b4;"/>
   </g>
   <g id="patch_133">
    <path clip-path="url(#p3d6f3384bd)" d="M 253.240698 325.921635 
L 253.913237 325.921635 
L 253.913237 318.64893 
L 253.240698 318.64893 
z
" style="fill:#1f77b4;"/>
   </g>
   <g id="patch_134">
    <path clip-path="url(#p3d6f3384bd)" d="M 254.081371 325.921635 
L 254.753909 325.921635 
L 254.753909 315.292296 
L 254.081371 315.292296 
z
" style="fill:#1f77b4;"/>
   </g>
   <g id="patch_135">
    <path clip-path="url(#p3d6f3384bd)" d="M 254.922044 325.921635 
L 255.594582 325.921635 
L 255.594582 315.292296 
L 254.922044 315.292296 
z
" style="fill:#1f77b4;"/>
   </g>
   <g id="patch_136">
    <path clip-path="url(#p3d6f3384bd)" d="M 255.762717 325.921635 
L 256.435255 325.921635 
L 256.435255 318.64893 
L 255.762717 318.64893 
z
" style="fill:#1f77b4;"/>
   </g>
   <g id="patch_137">
    <path clip-path="url(#p3d6f3384bd)" d="M 256.60339 325.921635 
L 257.275928 325.921635 
L 257.275928 322.005563 
L 256.60339 322.005563 
z
" style="fill:#1f77b4;"/>
   </g>
   <g id="patch_138">
    <path clip-path="url(#p3d6f3384bd)" d="M 257.444062 325.921635 
L 258.116601 325.921635 
L 258.116601 312.495102 
L 257.444062 312.495102 
z
" style="fill:#1f77b4;"/>
   </g>
   <g id="patch_139">
    <path clip-path="url(#p3d6f3384bd)" d="M 258.284735 325.921635 
L 258.957273 325.921635 
L 258.957273 314.173419 
L 258.284735 314.173419 
z
" style="fill:#1f77b4;"/>
   </g>
   <g id="patch_140">
    <path clip-path="url(#p3d6f3384bd)" d="M 259.125408 325.921635 
L 259.797946 325.921635 
L 259.797946 325.921635 
L 259.125408 325.921635 
z
" style="fill:#1f77b4;"/>
   </g>
   <g id="patch_141">
    <path clip-path="url(#p3d6f3384bd)" d="M 259.966081 325.921635 
L 260.638619 325.921635 
L 260.638619 308.019591 
L 259.966081 308.019591 
z
" style="fill:#1f77b4;"/>
   </g>
   <g id="patch_142">
    <path clip-path="url(#p3d6f3384bd)" d="M 260.806753 325.921635 
L 261.479292 325.921635 
L 261.479292 301.865763 
L 260.806753 301.865763 
z
" style="fill:#1f77b4;"/>
   </g>
   <g id="patch_143">
    <path clip-path="url(#p3d6f3384bd)" d="M 261.647426 325.921635 
L 262.319964 325.921635 
L 262.319964 297.949691 
L 261.647426 297.949691 
z
" style="fill:#1f77b4;"/>
   </g>
   <g id="patch_144">
    <path clip-path="url(#p3d6f3384bd)" d="M 262.488099 325.921635 
L 263.160637 325.921635 
L 263.160637 280.047647 
L 262.488099 280.047647 
z
" style="fill:#1f77b4;"/>
   </g>
   <g id="patch_145">
    <path clip-path="url(#p3d6f3384bd)" d="M 263.328772 325.921635 
L 264.00131 325.921635 
L 264.00131 288.43923 
L 263.328772 288.43923 
z
" style="fill:#1f77b4;"/>
   </g>
   <g id="patch_146">
    <path clip-path="url(#p3d6f3384bd)" d="M 264.169445 325.921635 
L 264.841983 325.921635 
L 264.841983 267.739992 
L 264.169445 267.739992 
z
" style="fill:#1f77b4;"/>
   </g>
   <g id="patch_147">
    <path clip-path="url(#p3d6f3384bd)" d="M 265.010117 325.921635 
L 265.682656 325.921635 
L 265.682656 283.40428 
L 265.010117 283.40428 
z
" style="fill:#1f77b4;"/>
   </g>
   <g id="patch_148">
    <path clip-path="url(#p3d6f3384bd)" d="M 265.85079 325.921635 
L 266.523328 325.921635 
L 266.523328 278.928769 
L 265.85079 278.928769 
z
" style="fill:#1f77b4;"/>
   </g>
   <g id="patch_149">
    <path clip-path="url(#p3d6f3384bd)" d="M 266.691463 325.921635 
L 267.364001 325.921635 
L 267.364001 255.432337 
L 266.691463 255.432337 
z
" style="fill:#1f77b4;"/>
   </g>
   <g id="patch_150">
    <path clip-path="url(#p3d6f3384bd)" d="M 267.532136 325.921635 
L 268.204674 325.921635 
L 268.204674 286.201475 
L 267.532136 286.201475 
z
" style="fill:#1f77b4;"/>
   </g>
   <g id="patch_151">
    <path clip-path="url(#p3d6f3384bd)" d="M 268.372808 325.921635 
L 269.045347 325.921635 
L 269.045347 234.733098 
L 268.372808 234.733098 
z
" style="fill:#1f77b4;"/>
   </g>
   <g id="patch_152">
    <path clip-path="url(#p3d6f3384bd)" d="M 269.213481 325.921635 
L 269.886019 325.921635 
L 269.886019 237.530292 
L 269.213481 237.530292 
z
" style="fill:#1f77b4;"/>
   </g>
   <g id="patch_153">
    <path clip-path="url(#p3d6f3384bd)" d="M 270.054154 325.921635 
L 270.726692 325.921635 
L 270.726692 263.264481 
L 270.054154 263.264481 
z
" style="fill:#1f77b4;"/>
   </g>
   <g id="patch_154">
    <path clip-path="url(#p3d6f3384bd)" d="M 270.894827 325.921635 
L 271.567365 325.921635 
L 271.567365 318.64893 
L 270.894827 318.64893 
z
" style="fill:#1f77b4;"/>
   </g>
   <g id="patch_155">
    <path clip-path="url(#p3d6f3384bd)" d="M 271.7355 325.921635 
L 272.408038 325.921635 
L 272.408038 253.194581 
L 271.7355 253.194581 
z
" style="fill:#1f77b4;"/>
   </g>
   <g id="patch_156">
    <path clip-path="url(#p3d6f3384bd)" d="M 272.576172 325.921635 
L 273.248711 325.921635 
L 273.248711 267.739992 
L 272.576172 267.739992 
z
" style="fill:#1f77b4;"/>
   </g>
   <g id="patch_157">
    <path clip-path="url(#p3d6f3384bd)" d="M 273.416845 325.921635 
L 274.089383 325.921635 
L 274.089383 300.187447 
L 273.416845 300.187447 
z
" style="fill:#1f77b4;"/>
   </g>
   <g id="patch_158">
    <path clip-path="url(#p3d6f3384bd)" d="M 274.257518 325.921635 
L 274.930056 325.921635 
L 274.930056 300.746886 
L 274.257518 300.746886 
z
" style="fill:#1f77b4;"/>
   </g>
   <g id="patch_159">
    <path clip-path="url(#p3d6f3384bd)" d="M 275.098191 325.921635 
L 275.770729 325.921635 
L 275.770729 280.047647 
L 275.098191 280.047647 
z
" style="fill:#1f77b4;"/>
   </g>
   <g id="patch_160">
    <path clip-path="url(#p3d6f3384bd)" d="M 275.938863 325.921635 
L 276.611402 325.921635 
L 276.611402 253.194581 
L 275.938863 253.194581 
z
" style="fill:#1f77b4;"/>
   </g>
   <g id="patch_161">
    <path clip-path="url(#p3d6f3384bd)" d="M 276.779536 325.921635 
L 277.452075 325.921635 
L 277.452075 193.334621 
L 276.779536 193.334621 
z
" style="fill:#1f77b4;"/>
   </g>
   <g id="patch_162">
    <path clip-path="url(#p3d6f3384bd)" d="M 277.620209 325.921635 
L 278.292747 325.921635 
L 278.292747 187.180794 
L 277.620209 187.180794 
z
" style="fill:#1f77b4;"/>
   </g>
   <g id="patch_163">
    <path clip-path="url(#p3d6f3384bd)" d="M 278.460882 325.921635 
L 279.13342 325.921635 
L 279.13342 138.509611 
L 278.460882 138.509611 
z
" style="fill:#1f77b4;"/>
   </g>
   <g id="patch_164">
    <path clip-path="url(#p3d6f3384bd)" d="M 279.301555 325.921635 
L 279.974093 325.921635 
L 279.974093 165.922116 
L 279.301555 165.922116 
z
" style="fill:#1f77b4;"/>
   </g>
   <g id="patch_165">
    <path clip-path="url(#p3d6f3384bd)" d="M 280.142227 325.921635 
L 280.814766 325.921635 
L 280.814766 191.656305 
L 280.142227 191.656305 
z
" style="fill:#1f77b4;"/>
   </g>
   <g id="patch_166">
    <path clip-path="url(#p3d6f3384bd)" d="M 280.9829 325.921635 
L 281.655438 325.921635 
L 281.655438 32.775664 
L 280.9829 32.775664 
z
" style="fill:#1f77b4;"/>
   </g>
   <g id="patch_167">
    <path clip-path="url(#p3d6f3384bd)" d="M 281.823573 325.921635 
L 282.496111 325.921635 
L 282.496111 162.006044 
L 281.823573 162.006044 
z
" style="fill:#1f77b4;"/>
   </g>
   <g id="patch_168">
    <path clip-path="url(#p3d6f3384bd)" d="M 282.664246 325.921635 
L 283.336784 325.921635 
L 283.336784 135.152978 
L 282.664246 135.152978 
z
" style="fill:#1f77b4;"/>
   </g>
   <g id="patch_169">
    <path clip-path="url(#p3d6f3384bd)" d="M 283.504919 325.921635 
L 284.177457 325.921635 
L 284.177457 169.27875 
L 283.504919 169.27875 
z
" style="fill:#1f77b4;"/>
   </g>
   <g id="patch_170">
    <path clip-path="url(#p3d6f3384bd)" d="M 284.345591 325.921635 
L 285.01813 325.921635 
L 285.01813 62.985363 
L 284.345591 62.985363 
z
" style="fill:#1f77b4;"/>
   </g>
   <g id="patch_171">
    <path clip-path="url(#p3d6f3384bd)" d="M 285.186264 325.921635 
L 285.858802 325.921635 
L 285.858802 130.677467 
L 285.186264 130.677467 
z
" style="fill:#1f77b4;"/>
   </g>
   <g id="patch_172">
    <path clip-path="url(#p3d6f3384bd)" d="M 286.026937 325.921635 
L 286.699475 325.921635 
L 286.699475 191.096866 
L 286.026937 191.096866 
z
" style="fill:#1f77b4;"/>
   </g>
   <g id="patch_173">
    <path clip-path="url(#p3d6f3384bd)" d="M 286.86761 325.921635 
L 287.540148 325.921635 
L 287.540148 196.691254 
L 286.86761 196.691254 
z
" style="fill:#1f77b4;"/>
   </g>
   <g id="patch_174">
    <path clip-path="url(#p3d6f3384bd)" d="M 287.708282 325.921635 
L 288.380821 325.921635 
L 288.380821 243.68412 
L 287.708282 243.68412 
z
" style="fill:#1f77b4;"/>
   </g>
   <g id="patch_175">
    <path clip-path="url(#p3d6f3384bd)" d="M 288.548955 325.921635 
L 289.221493 325.921635 
L 289.221493 266.061675 
L 288.548955 266.061675 
z
" style="fill:#1f77b4;"/>
   </g>
   <g id="patch_176">
    <path clip-path="url(#p3d6f3384bd)" d="M 289.389628 325.921635 
L 290.062166 325.921635 
L 290.062166 248.159631 
L 289.389628 248.159631 
z
" style="fill:#1f77b4;"/>
   </g>
   <g id="patch_177">
    <path clip-path="url(#p3d6f3384bd)" d="M 290.230301 325.921635 
L 290.902839 325.921635 
L 290.902839 206.201715 
L 290.230301 206.201715 
z
" style="fill:#1f77b4;"/>
   </g>
   <g id="patch_178">
    <path clip-path="url(#p3d6f3384bd)" d="M 291.070974 325.921635 
L 291.743512 325.921635 
L 291.743512 134.593539 
L 291.070974 134.593539 
z
" style="fill:#1f77b4;"/>
   </g>
   <g id="patch_179">
    <path clip-path="url(#p3d6f3384bd)" d="M 291.911646 325.921635 
L 292.584185 325.921635 
L 292.584185 178.78921 
L 291.911646 178.78921 
z
" style="fill:#1f77b4;"/>
   </g>
   <g id="patch_180">
    <path clip-path="url(#p3d6f3384bd)" d="M 292.752319 325.921635 
L 293.424857 325.921635 
L 293.424857 191.096866 
L 292.752319 191.096866 
z
" style="fill:#1f77b4;"/>
   </g>
   <g id="patch_181">
    <path clip-path="url(#p3d6f3384bd)" d="M 293.592992 325.921635 
L 294.26553 325.921635 
L 294.26553 69.698629 
L 293.592992 69.698629 
z
" style="fill:#1f77b4;"/>
   </g>
   <g id="patch_182">
    <path clip-path="url(#p3d6f3384bd)" d="M 294.433665 325.921635 
L 295.106203 325.921635 
L 295.106203 244.802998 
L 294.433665 244.802998 
z
" style="fill:#1f77b4;"/>
   </g>
   <g id="patch_183">
    <path clip-path="url(#p3d6f3384bd)" d="M 295.274337 325.921635 
L 295.946876 325.921635 
L 295.946876 141.866245 
L 295.274337 141.866245 
z
" style="fill:#1f77b4;"/>
   </g>
   <g id="patch_184">
    <path clip-path="url(#p3d6f3384bd)" d="M 296.11501 325.921635 
L 296.787548 325.921635 
L 296.787548 164.2438 
L 296.11501 164.2438 
z
" style="fill:#1f77b4;"/>
   </g>
   <g id="patch_185">
    <path clip-path="url(#p3d6f3384bd)" d="M 296.955683 325.921635 
L 297.628221 325.921635 
L 297.628221 132.915223 
L 296.955683 132.915223 
z
" style="fill:#1f77b4;"/>
   </g>
   <g id="patch_186">
    <path clip-path="url(#p3d6f3384bd)" d="M 297.796356 325.921635 
L 298.468894 325.921635 
L 298.468894 211.796104 
L 297.796356 211.796104 
z
" style="fill:#1f77b4;"/>
   </g>
   <g id="patch_187">
    <path clip-path="url(#p3d6f3384bd)" d="M 298.637029 325.921635 
L 299.309567 325.921635 
L 299.309567 192.215743 
L 298.637029 192.215743 
z
" style="fill:#1f77b4;"/>
   </g>
   <g id="patch_188">
    <path clip-path="url(#p3d6f3384bd)" d="M 299.477701 325.921635 
L 300.15024 325.921635 
L 300.15024 265.502236 
L 299.477701 265.502236 
z
" style="fill:#1f77b4;"/>
   </g>
   <g id="patch_189">
    <path clip-path="url(#p3d6f3384bd)" d="M 300.318374 325.921635 
L 300.990912 325.921635 
L 300.990912 253.75402 
L 300.318374 253.75402 
z
" style="fill:#1f77b4;"/>
   </g>
   <g id="patch_190">
    <path clip-path="url(#p3d6f3384bd)" d="M 301.159047 325.921635 
L 301.831585 325.921635 
L 301.831585 196.131816 
L 301.159047 196.131816 
z
" style="fill:#1f77b4;"/>
   </g>
   <g id="patch_191">
    <path clip-path="url(#p3d6f3384bd)" d="M 301.99972 325.921635 
L 302.672258 325.921635 
L 302.672258 137.950172 
L 301.99972 137.950172 
z
" style="fill:#1f77b4;"/>
   </g>
   <g id="patch_192">
    <path clip-path="url(#p3d6f3384bd)" d="M 302.840392 325.921635 
L 303.512931 325.921635 
L 303.512931 144.104 
L 302.840392 144.104 
z
" style="fill:#1f77b4;"/>
   </g>
   <g id="patch_193">
    <path clip-path="url(#p3d6f3384bd)" d="M 303.681065 325.921635 
L 304.353603 325.921635 
L 304.353603 145.222878 
L 303.681065 145.222878 
z
" style="fill:#1f77b4;"/>
   </g>
   <g id="patch_194">
    <path clip-path="url(#p3d6f3384bd)" d="M 304.521738 325.921635 
L 305.194276 325.921635 
L 305.194276 171.516505 
L 304.521738 171.516505 
z
" style="fill:#1f77b4;"/>
   </g>
   <g id="patch_195">
    <path clip-path="url(#p3d6f3384bd)" d="M 305.362411 325.921635 
L 306.034949 325.921635 
L 306.034949 259.907848 
L 305.362411 259.907848 
z
" style="fill:#1f77b4;"/>
   </g>
   <g id="matplotlib.axis_3">
    <g id="xtick_3">
     <g id="line2d_11">
      <g>
       <use style="stroke:#000000;stroke-width:0.8;" x="227.516111" xlink:href="#m888cccd6b2" y="325.921635"/>
      </g>
     </g>
     <g id="text_11">
      <!-- 0 -->
      <g transform="translate(224.334861 340.520072)scale(0.1 -0.1)">
       <use xlink:href="#DejaVuSans-48"/>
      </g>
     </g>
    </g>
    <g id="xtick_4">
     <g id="line2d_12">
      <g>
       <use style="stroke:#000000;stroke-width:0.8;" x="269.54975" xlink:href="#m888cccd6b2" y="325.921635"/>
      </g>
     </g>
     <g id="text_12">
      <!-- 50 -->
      <g transform="translate(263.18725 340.520072)scale(0.1 -0.1)">
       <use xlink:href="#DejaVuSans-53"/>
       <use x="63.623047" xlink:href="#DejaVuSans-48"/>
      </g>
     </g>
    </g>
   </g>
   <g id="matplotlib.axis_4">
    <g id="ytick_8">
     <g id="line2d_13">
      <g>
       <use style="stroke:#000000;stroke-width:0.8;" x="223.237087" xlink:href="#ma8474ee0b1" y="325.921635"/>
      </g>
     </g>
     <g id="text_13">
      <!-- 0 -->
      <g transform="translate(209.874587 329.720854)scale(0.1 -0.1)">
       <use xlink:href="#DejaVuSans-48"/>
      </g>
     </g>
    </g>
    <g id="ytick_9">
     <g id="line2d_14">
      <g>
       <use style="stroke:#000000;stroke-width:0.8;" x="223.237087" xlink:href="#ma8474ee0b1" y="269.977747"/>
      </g>
     </g>
     <g id="text_14">
      <!-- 100 -->
      <g transform="translate(197.149587 273.776966)scale(0.1 -0.1)">
       <use xlink:href="#DejaVuSans-49"/>
       <use x="63.623047" xlink:href="#DejaVuSans-48"/>
       <use x="127.246094" xlink:href="#DejaVuSans-48"/>
      </g>
     </g>
    </g>
    <g id="ytick_10">
     <g id="line2d_15">
      <g>
       <use style="stroke:#000000;stroke-width:0.8;" x="223.237087" xlink:href="#ma8474ee0b1" y="214.03386"/>
      </g>
     </g>
     <g id="text_15">
      <!-- 200 -->
      <g transform="translate(197.149587 217.833078)scale(0.1 -0.1)">
       <use xlink:href="#DejaVuSans-50"/>
       <use x="63.623047" xlink:href="#DejaVuSans-48"/>
       <use x="127.246094" xlink:href="#DejaVuSans-48"/>
      </g>
     </g>
    </g>
    <g id="ytick_11">
     <g id="line2d_16">
      <g>
       <use style="stroke:#000000;stroke-width:0.8;" x="223.237087" xlink:href="#ma8474ee0b1" y="158.089972"/>
      </g>
     </g>
     <g id="text_16">
      <!-- 300 -->
      <defs>
       <path d="M 40.578125 39.3125 
Q 47.65625 37.796875 51.625 33 
Q 55.609375 28.21875 55.609375 21.1875 
Q 55.609375 10.40625 48.1875 4.484375 
Q 40.765625 -1.421875 27.09375 -1.421875 
Q 22.515625 -1.421875 17.65625 -0.515625 
Q 12.796875 0.390625 7.625 2.203125 
L 7.625 11.71875 
Q 11.71875 9.328125 16.59375 8.109375 
Q 21.484375 6.890625 26.8125 6.890625 
Q 36.078125 6.890625 40.9375 10.546875 
Q 45.796875 14.203125 45.796875 21.1875 
Q 45.796875 27.640625 41.28125 31.265625 
Q 36.765625 34.90625 28.71875 34.90625 
L 20.21875 34.90625 
L 20.21875 43.015625 
L 29.109375 43.015625 
Q 36.375 43.015625 40.234375 45.921875 
Q 44.09375 48.828125 44.09375 54.296875 
Q 44.09375 59.90625 40.109375 62.90625 
Q 36.140625 65.921875 28.71875 65.921875 
Q 24.65625 65.921875 20.015625 65.03125 
Q 15.375 64.15625 9.8125 62.3125 
L 9.8125 71.09375 
Q 15.4375 72.65625 20.34375 73.4375 
Q 25.25 74.21875 29.59375 74.21875 
Q 40.828125 74.21875 47.359375 69.109375 
Q 53.90625 64.015625 53.90625 55.328125 
Q 53.90625 49.265625 50.4375 45.09375 
Q 46.96875 40.921875 40.578125 39.3125 
z
" id="DejaVuSans-51"/>
      </defs>
      <g transform="translate(197.149587 161.889191)scale(0.1 -0.1)">
       <use xlink:href="#DejaVuSans-51"/>
       <use x="63.623047" xlink:href="#DejaVuSans-48"/>
       <use x="127.246094" xlink:href="#DejaVuSans-48"/>
      </g>
     </g>
    </g>
    <g id="ytick_12">
     <g id="line2d_17">
      <g>
       <use style="stroke:#000000;stroke-width:0.8;" x="223.237087" xlink:href="#ma8474ee0b1" y="102.146084"/>
      </g>
     </g>
     <g id="text_17">
      <!-- 400 -->
      <g transform="translate(197.149587 105.945303)scale(0.1 -0.1)">
       <use xlink:href="#DejaVuSans-52"/>
       <use x="63.623047" xlink:href="#DejaVuSans-48"/>
       <use x="127.246094" xlink:href="#DejaVuSans-48"/>
      </g>
     </g>
    </g>
    <g id="ytick_13">
     <g id="line2d_18">
      <g>
       <use style="stroke:#000000;stroke-width:0.8;" x="223.237087" xlink:href="#ma8474ee0b1" y="46.202197"/>
      </g>
     </g>
     <g id="text_18">
      <!-- 500 -->
      <g transform="translate(197.149587 50.001415)scale(0.1 -0.1)">
       <use xlink:href="#DejaVuSans-53"/>
       <use x="63.623047" xlink:href="#DejaVuSans-48"/>
       <use x="127.246094" xlink:href="#DejaVuSans-48"/>
      </g>
     </g>
    </g>
   </g>
   <g id="line2d_19">
    <path clip-path="url(#p3d6f3384bd)" d="M 227.516111 325.179755 
L 228.356784 324.956306 
L 229.197457 324.720274 
L 230.03813 324.558804 
L 230.878802 324.422264 
L 231.719475 324.325335 
L 232.560148 324.275706 
L 233.400821 324.259629 
L 234.241494 324.271279 
L 235.082166 324.307161 
L 235.922839 324.364713 
L 236.763512 324.433448 
L 237.604185 324.490534 
L 238.444857 324.51663 
L 239.28553 324.499854 
L 240.126203 324.433914 
L 240.966876 324.309957 
L 241.807549 324.118895 
L 242.648221 323.856534 
L 243.488894 323.532428 
L 244.329567 323.158692 
L 245.17024 322.738822 
L 246.010913 322.270254 
L 246.851585 321.763473 
L 247.692258 321.227102 
L 248.532931 320.677216 
L 249.373604 320.123835 
L 250.214276 319.574648 
L 251.054949 319.045733 
L 251.895622 318.548506 
L 252.736295 318.053608 
L 253.576968 317.530518 
L 254.41764 316.918886 
L 255.258313 316.134134 
L 256.098986 315.083759 
L 256.939659 313.660347 
L 257.780331 311.774891 
L 258.621004 309.38848 
L 259.461677 306.460339 
L 260.30235 303.009572 
L 261.143023 299.132179 
L 261.983695 294.943028 
L 262.824368 290.607318 
L 263.665041 286.285822 
L 264.505714 282.166804 
L 265.346386 278.493754 
L 266.187059 275.453538 
L 267.027732 273.080641 
L 267.868405 271.380888 
L 268.709078 270.238477 
L 269.54975 269.458152 
L 270.390423 268.677594 
L 271.231096 267.324781 
L 272.071769 264.816044 
L 272.912441 260.761802 
L 273.753114 254.827462 
L 274.593787 246.843167 
L 275.43446 236.814509 
L 276.275133 224.984509 
L 277.115805 212.047747 
L 277.956478 198.836042 
L 278.797151 186.137176 
L 279.637824 174.722386 
L 280.478497 165.350328 
L 281.319169 158.651741 
L 282.159842 155.089133 
L 283.000515 154.591207 
L 283.841188 156.8024 
L 284.68186 161.174225 
L 285.522533 167.02049 
L 286.363206 173.418038 
L 287.203879 179.450005 
L 288.044552 184.273389 
L 288.885224 187.360438 
L 289.725897 188.62238 
L 290.56657 188.188529 
L 291.407243 186.449632 
L 292.247915 184.048309 
L 293.088588 181.653509 
L 293.929261 179.850071 
L 294.769934 179.137549 
L 295.610607 179.51711 
L 296.451279 180.852447 
L 297.291952 182.763533 
L 298.132625 184.841915 
L 298.973298 186.620889 
L 299.81397 187.753048 
L 300.654643 187.971371 
L 301.495316 187.411 
L 302.335989 186.177718 
L 303.176662 184.569302 
L 304.017334 183.416173 
L 304.858007 182.143281 
L 305.69868 180.984792 
" style="fill:none;stroke:#ff0000;stroke-linecap:square;stroke-width:1.5;"/>
   </g>
   <g id="patch_196">
    <path d="M 223.237087 325.921635 
L 223.237087 18.118365 
" style="fill:none;stroke:#000000;stroke-linecap:square;stroke-linejoin:miter;stroke-width:0.8;"/>
   </g>
   <g id="patch_197">
    <path d="M 309.977704 325.921635 
L 309.977704 18.118365 
" style="fill:none;stroke:#000000;stroke-linecap:square;stroke-linejoin:miter;stroke-width:0.8;"/>
   </g>
   <g id="patch_198">
    <path d="M 223.237087 325.921635 
L 309.977704 325.921635 
" style="fill:none;stroke:#000000;stroke-linecap:square;stroke-linejoin:miter;stroke-width:0.8;"/>
   </g>
   <g id="patch_199">
    <path d="M 223.237087 18.118365 
L 309.977704 18.118365 
" style="fill:none;stroke:#000000;stroke-linecap:square;stroke-linejoin:miter;stroke-width:0.8;"/>
   </g>
   <g id="text_19">
    <!-- Casos novos - AC - (data) -->
    <defs>
     <path d="M 54.890625 33.015625 
L 54.890625 0 
L 45.90625 0 
L 45.90625 32.71875 
Q 45.90625 40.484375 42.875 44.328125 
Q 39.84375 48.1875 33.796875 48.1875 
Q 26.515625 48.1875 22.3125 43.546875 
Q 18.109375 38.921875 18.109375 30.90625 
L 18.109375 0 
L 9.078125 0 
L 9.078125 54.6875 
L 18.109375 54.6875 
L 18.109375 46.1875 
Q 21.34375 51.125 25.703125 53.5625 
Q 30.078125 56 35.796875 56 
Q 45.21875 56 50.046875 50.171875 
Q 54.890625 44.34375 54.890625 33.015625 
z
" id="DejaVuSans-110"/>
     <path d="M 2.984375 54.6875 
L 12.5 54.6875 
L 29.59375 8.796875 
L 46.6875 54.6875 
L 56.203125 54.6875 
L 35.6875 0 
L 23.484375 0 
z
" id="DejaVuSans-118"/>
    </defs>
    <g transform="translate(190.746771 12.118365)scale(0.12 -0.12)">
     <use xlink:href="#DejaVuSans-67"/>
     <use x="69.824219" xlink:href="#DejaVuSans-97"/>
     <use x="131.103516" xlink:href="#DejaVuSans-115"/>
     <use x="183.203125" xlink:href="#DejaVuSans-111"/>
     <use x="244.384766" xlink:href="#DejaVuSans-115"/>
     <use x="296.484375" xlink:href="#DejaVuSans-32"/>
     <use x="328.271484" xlink:href="#DejaVuSans-110"/>
     <use x="391.650391" xlink:href="#DejaVuSans-111"/>
     <use x="452.832031" xlink:href="#DejaVuSans-118"/>
     <use x="512.011719" xlink:href="#DejaVuSans-111"/>
     <use x="573.193359" xlink:href="#DejaVuSans-115"/>
     <use x="625.292969" xlink:href="#DejaVuSans-32"/>
     <use x="657.080078" xlink:href="#DejaVuSans-45"/>
     <use x="693.164062" xlink:href="#DejaVuSans-32"/>
     <use x="724.951172" xlink:href="#DejaVuSans-65"/>
     <use x="791.609375" xlink:href="#DejaVuSans-67"/>
     <use x="861.433594" xlink:href="#DejaVuSans-32"/>
     <use x="893.220703" xlink:href="#DejaVuSans-45"/>
     <use x="929.304688" xlink:href="#DejaVuSans-32"/>
     <use x="961.091797" xlink:href="#DejaVuSans-40"/>
     <use x="1000.105469" xlink:href="#DejaVuSans-100"/>
     <use x="1063.582031" xlink:href="#DejaVuSans-97"/>
     <use x="1124.861328" xlink:href="#DejaVuSans-116"/>
     <use x="1164.070312" xlink:href="#DejaVuSans-97"/>
     <use x="1225.349609" xlink:href="#DejaVuSans-41"/>
    </g>
   </g>
  </g>
  <g id="axes_3">
   <g id="patch_200">
    <path d="M 371.059143 325.921635 
L 457.79976 325.921635 
L 457.79976 18.118365 
L 371.059143 18.118365 
z
" style="fill:#ffffff;"/>
   </g>
   <g id="matplotlib.axis_5">
    <g id="xtick_5">
     <g id="line2d_20">
      <g>
       <use style="stroke:#000000;stroke-width:0.8;" x="375.001898" xlink:href="#m888cccd6b2" y="325.921635"/>
      </g>
     </g>
     <g id="text_20">
      <!-- 0 -->
      <g transform="translate(371.820648 340.520072)scale(0.1 -0.1)">
       <use xlink:href="#DejaVuSans-48"/>
      </g>
     </g>
    </g>
    <g id="xtick_6">
     <g id="line2d_21">
      <g>
       <use style="stroke:#000000;stroke-width:0.8;" x="417.397117" xlink:href="#m888cccd6b2" y="325.921635"/>
      </g>
     </g>
     <g id="text_21">
      <!-- 50 -->
      <g transform="translate(411.034617 340.520072)scale(0.1 -0.1)">
       <use xlink:href="#DejaVuSans-53"/>
       <use x="63.623047" xlink:href="#DejaVuSans-48"/>
      </g>
     </g>
    </g>
   </g>
   <g id="matplotlib.axis_6">
    <g id="ytick_14">
     <g id="line2d_22">
      <g>
       <use style="stroke:#000000;stroke-width:0.8;" x="371.059143" xlink:href="#ma8474ee0b1" y="272.333385"/>
      </g>
     </g>
     <g id="text_22">
      <!-- 1.0 -->
      <defs>
       <path d="M 10.6875 12.40625 
L 21 12.40625 
L 21 0 
L 10.6875 0 
z
" id="DejaVuSans-46"/>
      </defs>
      <g transform="translate(348.156018 276.132604)scale(0.1 -0.1)">
       <use xlink:href="#DejaVuSans-49"/>
       <use x="63.623047" xlink:href="#DejaVuSans-46"/>
       <use x="95.410156" xlink:href="#DejaVuSans-48"/>
      </g>
     </g>
    </g>
    <g id="ytick_15">
     <g id="line2d_23">
      <g>
       <use style="stroke:#000000;stroke-width:0.8;" x="371.059143" xlink:href="#ma8474ee0b1" y="212.203062"/>
      </g>
     </g>
     <g id="text_23">
      <!-- 1.5 -->
      <g transform="translate(348.156018 216.00228)scale(0.1 -0.1)">
       <use xlink:href="#DejaVuSans-49"/>
       <use x="63.623047" xlink:href="#DejaVuSans-46"/>
       <use x="95.410156" xlink:href="#DejaVuSans-53"/>
      </g>
     </g>
    </g>
    <g id="ytick_16">
     <g id="line2d_24">
      <g>
       <use style="stroke:#000000;stroke-width:0.8;" x="371.059143" xlink:href="#ma8474ee0b1" y="152.072738"/>
      </g>
     </g>
     <g id="text_24">
      <!-- 2.0 -->
      <g transform="translate(348.156018 155.871957)scale(0.1 -0.1)">
       <use xlink:href="#DejaVuSans-50"/>
       <use x="63.623047" xlink:href="#DejaVuSans-46"/>
       <use x="95.410156" xlink:href="#DejaVuSans-48"/>
      </g>
     </g>
    </g>
    <g id="ytick_17">
     <g id="line2d_25">
      <g>
       <use style="stroke:#000000;stroke-width:0.8;" x="371.059143" xlink:href="#ma8474ee0b1" y="91.942415"/>
      </g>
     </g>
     <g id="text_25">
      <!-- 2.5 -->
      <g transform="translate(348.156018 95.741634)scale(0.1 -0.1)">
       <use xlink:href="#DejaVuSans-50"/>
       <use x="63.623047" xlink:href="#DejaVuSans-46"/>
       <use x="95.410156" xlink:href="#DejaVuSans-53"/>
      </g>
     </g>
    </g>
    <g id="ytick_18">
     <g id="line2d_26">
      <g>
       <use style="stroke:#000000;stroke-width:0.8;" x="371.059143" xlink:href="#ma8474ee0b1" y="31.812092"/>
      </g>
     </g>
     <g id="text_26">
      <!-- 3.0 -->
      <g transform="translate(348.156018 35.611311)scale(0.1 -0.1)">
       <use xlink:href="#DejaVuSans-51"/>
       <use x="63.623047" xlink:href="#DejaVuSans-46"/>
       <use x="95.410156" xlink:href="#DejaVuSans-48"/>
      </g>
     </g>
    </g>
   </g>
   <g id="line2d_27">
    <path clip-path="url(#p6ad3edeec2)" d="M 375.001898 32.109423 
L 375.849802 73.370781 
L 376.697707 103.426288 
L 377.545611 170.433694 
L 378.393515 193.983406 
L 379.24142 220.052973 
L 380.089324 246.32066 
L 380.937228 263.919111 
L 381.785133 278.298678 
L 382.633037 291.333635 
L 383.480942 304.003339 
L 384.328846 311.930577 
L 385.17675 306.512397 
L 386.024655 288.180094 
L 386.872559 262.05616 
L 387.720463 234.0788 
L 388.568368 206.038192 
L 389.416272 181.014081 
L 390.264177 162.871379 
L 391.112081 155.43129 
L 391.959985 155.725095 
L 392.80789 158.563124 
L 393.655794 161.605206 
L 394.503698 167.104366 
L 395.351603 173.609997 
L 396.199507 181.649509 
L 397.047412 189.691667 
L 397.895316 197.317089 
L 398.74322 205.535408 
L 399.591125 213.65515 
L 400.439029 217.508648 
L 401.286933 217.928144 
L 402.134838 213.020841 
L 402.982742 202.360279 
L 403.830647 187.783667 
L 404.678551 171.056833 
L 405.526455 155.987092 
L 406.37436 146.155022 
L 407.222264 140.53899 
L 408.070168 140.039535 
L 408.918073 144.727223 
L 409.765977 152.552754 
L 410.613882 162.941595 
L 411.461786 174.476203 
L 412.30969 187.050807 
L 413.157595 201.265455 
L 414.005499 216.00447 
L 414.853403 229.169123 
L 415.701308 240.995902 
L 416.549212 250.14002 
L 417.397117 255.814218 
L 418.245021 255.705328 
L 419.092925 246.96822 
L 419.94083 230.514569 
L 420.788734 211.021798 
L 421.636638 191.206118 
L 422.484543 174.481914 
L 423.332447 162.802362 
L 424.180352 157.140208 
L 425.028256 158.844884 
L 425.87616 166.071277 
L 426.724065 176.578968 
L 427.571969 189.343419 
L 428.419873 204.032426 
L 429.267778 220.167393 
L 430.115682 237.487046 
L 430.963587 253.942133 
L 431.811491 268.775345 
L 432.659395 281.378392 
L 433.5073 291.003843 
L 434.355204 295.708296 
L 435.203108 294.58205 
L 436.051013 287.09866 
L 436.898917 274.874741 
L 437.746822 261.166595 
L 438.594726 248.01359 
L 439.44263 237.726257 
L 440.290535 232.240887 
L 441.138439 231.5915 
L 441.986343 235.009563 
L 442.834248 241.879799 
L 443.682152 248.828135 
L 444.530057 255.01942 
L 445.377961 258.698174 
L 446.225865 259.495819 
L 447.07377 256.727897 
L 447.921674 251.103616 
L 448.769578 243.184944 
L 449.617483 236.204703 
L 450.465387 230.027404 
L 451.313292 226.189154 
L 452.161196 228.775367 
L 453.0091 226.870806 
L 453.857005 226.753819 
" style="fill:none;stroke:#ff0000;stroke-linecap:square;stroke-width:1.5;"/>
   </g>
   <g id="patch_201">
    <path d="M 371.059143 325.921635 
L 371.059143 18.118365 
" style="fill:none;stroke:#000000;stroke-linecap:square;stroke-linejoin:miter;stroke-width:0.8;"/>
   </g>
   <g id="patch_202">
    <path d="M 457.79976 325.921635 
L 457.79976 18.118365 
" style="fill:none;stroke:#000000;stroke-linecap:square;stroke-linejoin:miter;stroke-width:0.8;"/>
   </g>
   <g id="patch_203">
    <path d="M 371.059143 325.921635 
L 457.79976 325.921635 
" style="fill:none;stroke:#000000;stroke-linecap:square;stroke-linejoin:miter;stroke-width:0.8;"/>
   </g>
   <g id="patch_204">
    <path d="M 371.059143 18.118365 
L 457.79976 18.118365 
" style="fill:none;stroke:#000000;stroke-linecap:square;stroke-linejoin:miter;stroke-width:0.8;"/>
   </g>
   <g id="text_27">
    <!-- r0 - AC - (data) -->
    <defs>
     <path d="M 41.109375 46.296875 
Q 39.59375 47.171875 37.8125 47.578125 
Q 36.03125 48 33.890625 48 
Q 26.265625 48 22.1875 43.046875 
Q 18.109375 38.09375 18.109375 28.8125 
L 18.109375 0 
L 9.078125 0 
L 9.078125 54.6875 
L 18.109375 54.6875 
L 18.109375 46.1875 
Q 20.953125 51.171875 25.484375 53.578125 
Q 30.03125 56 36.53125 56 
Q 37.453125 56 38.578125 55.875 
Q 39.703125 55.765625 41.0625 55.515625 
z
" id="DejaVuSans-114"/>
    </defs>
    <g transform="translate(369.802576 12.118365)scale(0.12 -0.12)">
     <use xlink:href="#DejaVuSans-114"/>
     <use x="41.113281" xlink:href="#DejaVuSans-48"/>
     <use x="104.736328" xlink:href="#DejaVuSans-32"/>
     <use x="136.523438" xlink:href="#DejaVuSans-45"/>
     <use x="172.607422" xlink:href="#DejaVuSans-32"/>
     <use x="204.394531" xlink:href="#DejaVuSans-65"/>
     <use x="271.052734" xlink:href="#DejaVuSans-67"/>
     <use x="340.876953" xlink:href="#DejaVuSans-32"/>
     <use x="372.664062" xlink:href="#DejaVuSans-45"/>
     <use x="408.748047" xlink:href="#DejaVuSans-32"/>
     <use x="440.535156" xlink:href="#DejaVuSans-40"/>
     <use x="479.548828" xlink:href="#DejaVuSans-100"/>
     <use x="543.025391" xlink:href="#DejaVuSans-97"/>
     <use x="604.304688" xlink:href="#DejaVuSans-116"/>
     <use x="643.513672" xlink:href="#DejaVuSans-97"/>
     <use x="704.792969" xlink:href="#DejaVuSans-41"/>
    </g>
   </g>
  </g>
 </g>
 <defs>
  <clipPath id="p378f76e67a">
   <rect height="307.80327" width="86.740617" x="50.659198" y="18.118365"/>
  </clipPath>
  <clipPath id="p3d6f3384bd">
   <rect height="307.80327" width="86.740617" x="223.237087" y="18.118365"/>
  </clipPath>
  <clipPath id="p6ad3edeec2">
   <rect height="307.80327" width="86.740617" x="371.059143" y="18.118365"/>
  </clipPath>
 </defs>
</svg>
