<?xml version="1.0" encoding="utf-8" standalone="no"?>
<!DOCTYPE svg PUBLIC "-//W3C//DTD SVG 1.1//EN"
  "http://www.w3.org/Graphics/SVG/1.1/DTD/svg11.dtd">
<!-- Created with matplotlib (https://matplotlib.org/) -->
<svg height="345.6pt" version="1.1" viewBox="0 0 460.8 345.6" width="460.8pt" xmlns="http://www.w3.org/2000/svg" xmlns:xlink="http://www.w3.org/1999/xlink">
 <defs>
  <style type="text/css">
*{stroke-linecap:butt;stroke-linejoin:round;}
  </style>
 </defs>
 <g id="figure_1">
  <g id="patch_1">
   <path d="M 0 345.6 
L 460.8 345.6 
L 460.8 0 
L 0 0 
z
" style="fill:#ffffff;"/>
  </g>
  <g id="axes_1">
   <g id="patch_2">
    <path d="M 50.79008 325.921635 
L 135.563736 325.921635 
L 135.563736 18.118365 
L 50.79008 18.118365 
z
" style="fill:#ffffff;"/>
   </g>
   <g id="patch_3">
    <path clip-path="url(#pa43362e003)" d="M 54.643428 325.921635 
L 55.231726 325.921635 
L 55.231726 325.911439 
L 54.643428 325.911439 
z
" style="fill:#1f77b4;"/>
   </g>
   <g id="patch_4">
    <path clip-path="url(#pa43362e003)" d="M 55.3788 325.921635 
L 55.967097 325.921635 
L 55.967097 325.911439 
L 55.3788 325.911439 
z
" style="fill:#1f77b4;"/>
   </g>
   <g id="patch_5">
    <path clip-path="url(#pa43362e003)" d="M 56.114172 325.921635 
L 56.702469 325.921635 
L 56.702469 325.911439 
L 56.114172 325.911439 
z
" style="fill:#1f77b4;"/>
   </g>
   <g id="patch_6">
    <path clip-path="url(#pa43362e003)" d="M 56.849544 325.921635 
L 57.437841 325.921635 
L 57.437841 325.911439 
L 56.849544 325.911439 
z
" style="fill:#1f77b4;"/>
   </g>
   <g id="patch_7">
    <path clip-path="url(#pa43362e003)" d="M 57.584915 325.921635 
L 58.173213 325.921635 
L 58.173213 325.911439 
L 57.584915 325.911439 
z
" style="fill:#1f77b4;"/>
   </g>
   <g id="patch_8">
    <path clip-path="url(#pa43362e003)" d="M 58.320287 325.921635 
L 58.908584 325.921635 
L 58.908584 325.911439 
L 58.320287 325.911439 
z
" style="fill:#1f77b4;"/>
   </g>
   <g id="patch_9">
    <path clip-path="url(#pa43362e003)" d="M 59.055659 325.921635 
L 59.643956 325.921635 
L 59.643956 325.911439 
L 59.055659 325.911439 
z
" style="fill:#1f77b4;"/>
   </g>
   <g id="patch_10">
    <path clip-path="url(#pa43362e003)" d="M 59.791031 325.921635 
L 60.379328 325.921635 
L 60.379328 325.911439 
L 59.791031 325.911439 
z
" style="fill:#1f77b4;"/>
   </g>
   <g id="patch_11">
    <path clip-path="url(#pa43362e003)" d="M 60.526402 325.921635 
L 61.1147 325.921635 
L 61.1147 325.911439 
L 60.526402 325.911439 
z
" style="fill:#1f77b4;"/>
   </g>
   <g id="patch_12">
    <path clip-path="url(#pa43362e003)" d="M 61.261774 325.921635 
L 61.850072 325.921635 
L 61.850072 325.911439 
L 61.261774 325.911439 
z
" style="fill:#1f77b4;"/>
   </g>
   <g id="patch_13">
    <path clip-path="url(#pa43362e003)" d="M 61.997146 325.921635 
L 62.585443 325.921635 
L 62.585443 325.880849 
L 61.997146 325.880849 
z
" style="fill:#1f77b4;"/>
   </g>
   <g id="patch_14">
    <path clip-path="url(#pa43362e003)" d="M 62.732518 325.921635 
L 63.320815 325.921635 
L 63.320815 325.870653 
L 62.732518 325.870653 
z
" style="fill:#1f77b4;"/>
   </g>
   <g id="patch_15">
    <path clip-path="url(#pa43362e003)" d="M 63.467889 325.921635 
L 64.056187 325.921635 
L 64.056187 325.85026 
L 63.467889 325.85026 
z
" style="fill:#1f77b4;"/>
   </g>
   <g id="patch_16">
    <path clip-path="url(#pa43362e003)" d="M 64.203261 325.921635 
L 64.791559 325.921635 
L 64.791559 325.85026 
L 64.203261 325.85026 
z
" style="fill:#1f77b4;"/>
   </g>
   <g id="patch_17">
    <path clip-path="url(#pa43362e003)" d="M 64.938633 325.921635 
L 65.52693 325.921635 
L 65.52693 325.85026 
L 64.938633 325.85026 
z
" style="fill:#1f77b4;"/>
   </g>
   <g id="patch_18">
    <path clip-path="url(#pa43362e003)" d="M 65.674005 325.921635 
L 66.262302 325.921635 
L 66.262302 325.829867 
L 65.674005 325.829867 
z
" style="fill:#1f77b4;"/>
   </g>
   <g id="patch_19">
    <path clip-path="url(#pa43362e003)" d="M 66.409376 325.921635 
L 66.997674 325.921635 
L 66.997674 325.809474 
L 66.409376 325.809474 
z
" style="fill:#1f77b4;"/>
   </g>
   <g id="patch_20">
    <path clip-path="url(#pa43362e003)" d="M 67.144748 325.921635 
L 67.733046 325.921635 
L 67.733046 325.809474 
L 67.144748 325.809474 
z
" style="fill:#1f77b4;"/>
   </g>
   <g id="patch_21">
    <path clip-path="url(#pa43362e003)" d="M 67.88012 325.921635 
L 68.468417 325.921635 
L 68.468417 325.809474 
L 67.88012 325.809474 
z
" style="fill:#1f77b4;"/>
   </g>
   <g id="patch_22">
    <path clip-path="url(#pa43362e003)" d="M 68.615492 325.921635 
L 69.203789 325.921635 
L 69.203789 325.778884 
L 68.615492 325.778884 
z
" style="fill:#1f77b4;"/>
   </g>
   <g id="patch_23">
    <path clip-path="url(#pa43362e003)" d="M 69.350863 325.921635 
L 69.939161 325.921635 
L 69.939161 325.748295 
L 69.350863 325.748295 
z
" style="fill:#1f77b4;"/>
   </g>
   <g id="patch_24">
    <path clip-path="url(#pa43362e003)" d="M 70.086235 325.921635 
L 70.674533 325.921635 
L 70.674533 325.748295 
L 70.086235 325.748295 
z
" style="fill:#1f77b4;"/>
   </g>
   <g id="patch_25">
    <path clip-path="url(#pa43362e003)" d="M 70.821607 325.921635 
L 71.409904 325.921635 
L 71.409904 325.738098 
L 70.821607 325.738098 
z
" style="fill:#1f77b4;"/>
   </g>
   <g id="patch_26">
    <path clip-path="url(#pa43362e003)" d="M 71.556979 325.921635 
L 72.145276 325.921635 
L 72.145276 325.738098 
L 71.556979 325.738098 
z
" style="fill:#1f77b4;"/>
   </g>
   <g id="patch_27">
    <path clip-path="url(#pa43362e003)" d="M 72.29235 325.921635 
L 72.880648 325.921635 
L 72.880648 325.738098 
L 72.29235 325.738098 
z
" style="fill:#1f77b4;"/>
   </g>
   <g id="patch_28">
    <path clip-path="url(#pa43362e003)" d="M 73.027722 325.921635 
L 73.61602 325.921635 
L 73.61602 325.697312 
L 73.027722 325.697312 
z
" style="fill:#1f77b4;"/>
   </g>
   <g id="patch_29">
    <path clip-path="url(#pa43362e003)" d="M 73.763094 325.921635 
L 74.351391 325.921635 
L 74.351391 325.687116 
L 73.763094 325.687116 
z
" style="fill:#1f77b4;"/>
   </g>
   <g id="patch_30">
    <path clip-path="url(#pa43362e003)" d="M 74.498466 325.921635 
L 75.086763 325.921635 
L 75.086763 325.636134 
L 74.498466 325.636134 
z
" style="fill:#1f77b4;"/>
   </g>
   <g id="patch_31">
    <path clip-path="url(#pa43362e003)" d="M 75.233837 325.921635 
L 75.822135 325.921635 
L 75.822135 325.605544 
L 75.233837 325.605544 
z
" style="fill:#1f77b4;"/>
   </g>
   <g id="patch_32">
    <path clip-path="url(#pa43362e003)" d="M 75.969209 325.921635 
L 76.557507 325.921635 
L 76.557507 325.595348 
L 75.969209 325.595348 
z
" style="fill:#1f77b4;"/>
   </g>
   <g id="patch_33">
    <path clip-path="url(#pa43362e003)" d="M 76.704581 325.921635 
L 77.292878 325.921635 
L 77.292878 325.544365 
L 76.704581 325.544365 
z
" style="fill:#1f77b4;"/>
   </g>
   <g id="patch_34">
    <path clip-path="url(#pa43362e003)" d="M 77.439953 325.921635 
L 78.02825 325.921635 
L 78.02825 325.544365 
L 77.439953 325.544365 
z
" style="fill:#1f77b4;"/>
   </g>
   <g id="patch_35">
    <path clip-path="url(#pa43362e003)" d="M 78.175324 325.921635 
L 78.763622 325.921635 
L 78.763622 325.462794 
L 78.175324 325.462794 
z
" style="fill:#1f77b4;"/>
   </g>
   <g id="patch_36">
    <path clip-path="url(#pa43362e003)" d="M 78.910696 325.921635 
L 79.498994 325.921635 
L 79.498994 325.432204 
L 78.910696 325.432204 
z
" style="fill:#1f77b4;"/>
   </g>
   <g id="patch_37">
    <path clip-path="url(#pa43362e003)" d="M 79.646068 325.921635 
L 80.234365 325.921635 
L 80.234365 325.432204 
L 79.646068 325.432204 
z
" style="fill:#1f77b4;"/>
   </g>
   <g id="patch_38">
    <path clip-path="url(#pa43362e003)" d="M 80.38144 325.921635 
L 80.969737 325.921635 
L 80.969737 325.411811 
L 80.38144 325.411811 
z
" style="fill:#1f77b4;"/>
   </g>
   <g id="patch_39">
    <path clip-path="url(#pa43362e003)" d="M 81.116811 325.921635 
L 81.705109 325.921635 
L 81.705109 325.187489 
L 81.116811 325.187489 
z
" style="fill:#1f77b4;"/>
   </g>
   <g id="patch_40">
    <path clip-path="url(#pa43362e003)" d="M 81.852183 325.921635 
L 82.440481 325.921635 
L 82.440481 325.085524 
L 81.852183 325.085524 
z
" style="fill:#1f77b4;"/>
   </g>
   <g id="patch_41">
    <path clip-path="url(#pa43362e003)" d="M 82.587555 325.921635 
L 83.175852 325.921635 
L 83.175852 325.014149 
L 82.587555 325.014149 
z
" style="fill:#1f77b4;"/>
   </g>
   <g id="patch_42">
    <path clip-path="url(#pa43362e003)" d="M 83.322927 325.921635 
L 83.911224 325.921635 
L 83.911224 324.800022 
L 83.322927 324.800022 
z
" style="fill:#1f77b4;"/>
   </g>
   <g id="patch_43">
    <path clip-path="url(#pa43362e003)" d="M 84.058298 325.921635 
L 84.646596 325.921635 
L 84.646596 324.5757 
L 84.058298 324.5757 
z
" style="fill:#1f77b4;"/>
   </g>
   <g id="patch_44">
    <path clip-path="url(#pa43362e003)" d="M 84.79367 325.921635 
L 85.381968 325.921635 
L 85.381968 324.300395 
L 84.79367 324.300395 
z
" style="fill:#1f77b4;"/>
   </g>
   <g id="patch_45">
    <path clip-path="url(#pa43362e003)" d="M 85.529042 325.921635 
L 86.117339 325.921635 
L 86.117339 324.178037 
L 85.529042 324.178037 
z
" style="fill:#1f77b4;"/>
   </g>
   <g id="patch_46">
    <path clip-path="url(#pa43362e003)" d="M 86.264414 325.921635 
L 86.852711 325.921635 
L 86.852711 323.780375 
L 86.264414 323.780375 
z
" style="fill:#1f77b4;"/>
   </g>
   <g id="patch_47">
    <path clip-path="url(#pa43362e003)" d="M 86.999785 325.921635 
L 87.588083 325.921635 
L 87.588083 323.443891 
L 86.999785 323.443891 
z
" style="fill:#1f77b4;"/>
   </g>
   <g id="patch_48">
    <path clip-path="url(#pa43362e003)" d="M 87.735157 325.921635 
L 88.323455 325.921635 
L 88.323455 322.617976 
L 87.735157 322.617976 
z
" style="fill:#1f77b4;"/>
   </g>
   <g id="patch_49">
    <path clip-path="url(#pa43362e003)" d="M 88.470529 325.921635 
L 89.058826 325.921635 
L 89.058826 321.71049 
L 88.470529 321.71049 
z
" style="fill:#1f77b4;"/>
   </g>
   <g id="patch_50">
    <path clip-path="url(#pa43362e003)" d="M 89.205901 325.921635 
L 89.794198 325.921635 
L 89.794198 320.8132 
L 89.205901 320.8132 
z
" style="fill:#1f77b4;"/>
   </g>
   <g id="patch_51">
    <path clip-path="url(#pa43362e003)" d="M 89.941272 325.921635 
L 90.52957 325.921635 
L 90.52957 320.272786 
L 89.941272 320.272786 
z
" style="fill:#1f77b4;"/>
   </g>
   <g id="patch_52">
    <path clip-path="url(#pa43362e003)" d="M 90.676644 325.921635 
L 91.264942 325.921635 
L 91.264942 319.3653 
L 90.676644 319.3653 
z
" style="fill:#1f77b4;"/>
   </g>
   <g id="patch_53">
    <path clip-path="url(#pa43362e003)" d="M 91.412016 325.921635 
L 92.000313 325.921635 
L 92.000313 317.998972 
L 91.412016 317.998972 
z
" style="fill:#1f77b4;"/>
   </g>
   <g id="patch_54">
    <path clip-path="url(#pa43362e003)" d="M 92.147388 325.921635 
L 92.735685 325.921635 
L 92.735685 316.163606 
L 92.147388 316.163606 
z
" style="fill:#1f77b4;"/>
   </g>
   <g id="patch_55">
    <path clip-path="url(#pa43362e003)" d="M 92.88276 325.921635 
L 93.471057 325.921635 
L 93.471057 315.276513 
L 92.88276 315.276513 
z
" style="fill:#1f77b4;"/>
   </g>
   <g id="patch_56">
    <path clip-path="url(#pa43362e003)" d="M 93.618131 325.921635 
L 94.206429 325.921635 
L 94.206429 313.420754 
L 93.618131 313.420754 
z
" style="fill:#1f77b4;"/>
   </g>
   <g id="patch_57">
    <path clip-path="url(#pa43362e003)" d="M 94.353503 325.921635 
L 94.9418 325.921635 
L 94.9418 311.932068 
L 94.353503 311.932068 
z
" style="fill:#1f77b4;"/>
   </g>
   <g id="patch_58">
    <path clip-path="url(#pa43362e003)" d="M 95.088875 325.921635 
L 95.677172 325.921635 
L 95.677172 311.228511 
L 95.088875 311.228511 
z
" style="fill:#1f77b4;"/>
   </g>
   <g id="patch_59">
    <path clip-path="url(#pa43362e003)" d="M 95.824247 325.921635 
L 96.412544 325.921635 
L 96.412544 310.239453 
L 95.824247 310.239453 
z
" style="fill:#1f77b4;"/>
   </g>
   <g id="patch_60">
    <path clip-path="url(#pa43362e003)" d="M 96.559618 325.921635 
L 97.147916 325.921635 
L 97.147916 309.546092 
L 96.559618 309.546092 
z
" style="fill:#1f77b4;"/>
   </g>
   <g id="patch_61">
    <path clip-path="url(#pa43362e003)" d="M 97.29499 325.921635 
L 97.883287 325.921635 
L 97.883287 308.557034 
L 97.29499 308.557034 
z
" style="fill:#1f77b4;"/>
   </g>
   <g id="patch_62">
    <path clip-path="url(#pa43362e003)" d="M 98.030362 325.921635 
L 98.618659 325.921635 
L 98.618659 306.884812 
L 98.030362 306.884812 
z
" style="fill:#1f77b4;"/>
   </g>
   <g id="patch_63">
    <path clip-path="url(#pa43362e003)" d="M 98.765734 325.921635 
L 99.354031 325.921635 
L 99.354031 305.192196 
L 98.765734 305.192196 
z
" style="fill:#1f77b4;"/>
   </g>
   <g id="patch_64">
    <path clip-path="url(#pa43362e003)" d="M 99.501105 325.921635 
L 100.089403 325.921635 
L 100.089403 303.774886 
L 99.501105 303.774886 
z
" style="fill:#1f77b4;"/>
   </g>
   <g id="patch_65">
    <path clip-path="url(#pa43362e003)" d="M 100.236477 325.921635 
L 100.824774 325.921635 
L 100.824774 302.897989 
L 100.236477 302.897989 
z
" style="fill:#1f77b4;"/>
   </g>
   <g id="patch_66">
    <path clip-path="url(#pa43362e003)" d="M 100.971849 325.921635 
L 101.560146 325.921635 
L 101.560146 302.031288 
L 100.971849 302.031288 
z
" style="fill:#1f77b4;"/>
   </g>
   <g id="patch_67">
    <path clip-path="url(#pa43362e003)" d="M 101.707221 325.921635 
L 102.295518 325.921635 
L 102.295518 299.614723 
L 101.707221 299.614723 
z
" style="fill:#1f77b4;"/>
   </g>
   <g id="patch_68">
    <path clip-path="url(#pa43362e003)" d="M 102.442592 325.921635 
L 103.03089 325.921635 
L 103.03089 297.769161 
L 102.442592 297.769161 
z
" style="fill:#1f77b4;"/>
   </g>
   <g id="patch_69">
    <path clip-path="url(#pa43362e003)" d="M 103.177964 325.921635 
L 103.766261 325.921635 
L 103.766261 295.617704 
L 103.177964 295.617704 
z
" style="fill:#1f77b4;"/>
   </g>
   <g id="patch_70">
    <path clip-path="url(#pa43362e003)" d="M 103.913336 325.921635 
L 104.501633 325.921635 
L 104.501633 293.170549 
L 103.913336 293.170549 
z
" style="fill:#1f77b4;"/>
   </g>
   <g id="patch_71">
    <path clip-path="url(#pa43362e003)" d="M 104.648708 325.921635 
L 105.237005 325.921635 
L 105.237005 289.285691 
L 104.648708 289.285691 
z
" style="fill:#1f77b4;"/>
   </g>
   <g id="patch_72">
    <path clip-path="url(#pa43362e003)" d="M 105.384079 325.921635 
L 105.972377 325.921635 
L 105.972377 287.011877 
L 105.384079 287.011877 
z
" style="fill:#1f77b4;"/>
   </g>
   <g id="patch_73">
    <path clip-path="url(#pa43362e003)" d="M 106.119451 325.921635 
L 106.707748 325.921635 
L 106.707748 284.819634 
L 106.119451 284.819634 
z
" style="fill:#1f77b4;"/>
   </g>
   <g id="patch_74">
    <path clip-path="url(#pa43362e003)" d="M 106.854823 325.921635 
L 107.44312 325.921635 
L 107.44312 281.913638 
L 106.854823 281.913638 
z
" style="fill:#1f77b4;"/>
   </g>
   <g id="patch_75">
    <path clip-path="url(#pa43362e003)" d="M 107.590195 325.921635 
L 108.178492 325.921635 
L 108.178492 280.679864 
L 107.590195 280.679864 
z
" style="fill:#1f77b4;"/>
   </g>
   <g id="patch_76">
    <path clip-path="url(#pa43362e003)" d="M 108.325566 325.921635 
L 108.913864 325.921635 
L 108.913864 275.795752 
L 108.325566 275.795752 
z
" style="fill:#1f77b4;"/>
   </g>
   <g id="patch_77">
    <path clip-path="url(#pa43362e003)" d="M 109.060938 325.921635 
L 109.649235 325.921635 
L 109.649235 271.859911 
L 109.060938 271.859911 
z
" style="fill:#1f77b4;"/>
   </g>
   <g id="patch_78">
    <path clip-path="url(#pa43362e003)" d="M 109.79631 325.921635 
L 110.384607 325.921635 
L 110.384607 268.515467 
L 109.79631 268.515467 
z
" style="fill:#1f77b4;"/>
   </g>
   <g id="patch_79">
    <path clip-path="url(#pa43362e003)" d="M 110.531682 325.921635 
L 111.119979 325.921635 
L 111.119979 262.560724 
L 110.531682 262.560724 
z
" style="fill:#1f77b4;"/>
   </g>
   <g id="patch_80">
    <path clip-path="url(#pa43362e003)" d="M 111.267053 325.921635 
L 111.855351 325.921635 
L 111.855351 257.788772 
L 111.267053 257.788772 
z
" style="fill:#1f77b4;"/>
   </g>
   <g id="patch_81">
    <path clip-path="url(#pa43362e003)" d="M 112.002425 325.921635 
L 112.590722 325.921635 
L 112.590722 253.954897 
L 112.002425 253.954897 
z
" style="fill:#1f77b4;"/>
   </g>
   <g id="patch_82">
    <path clip-path="url(#pa43362e003)" d="M 112.737797 325.921635 
L 113.326094 325.921635 
L 113.326094 248.632336 
L 112.737797 248.632336 
z
" style="fill:#1f77b4;"/>
   </g>
   <g id="patch_83">
    <path clip-path="url(#pa43362e003)" d="M 113.473169 325.921635 
L 114.061466 325.921635 
L 114.061466 243.789009 
L 113.473169 243.789009 
z
" style="fill:#1f77b4;"/>
   </g>
   <g id="patch_84">
    <path clip-path="url(#pa43362e003)" d="M 114.20854 325.921635 
L 114.796838 325.921635 
L 114.796838 238.048392 
L 114.20854 238.048392 
z
" style="fill:#1f77b4;"/>
   </g>
   <g id="patch_85">
    <path clip-path="url(#pa43362e003)" d="M 114.943912 325.921635 
L 115.53221 325.921635 
L 115.53221 231.879523 
L 114.943912 231.879523 
z
" style="fill:#1f77b4;"/>
   </g>
   <g id="patch_86">
    <path clip-path="url(#pa43362e003)" d="M 115.679284 325.921635 
L 116.267581 325.921635 
L 116.267581 221.020275 
L 115.679284 221.020275 
z
" style="fill:#1f77b4;"/>
   </g>
   <g id="patch_87">
    <path clip-path="url(#pa43362e003)" d="M 116.414656 325.921635 
L 117.002953 325.921635 
L 117.002953 215.422409 
L 116.414656 215.422409 
z
" style="fill:#1f77b4;"/>
   </g>
   <g id="patch_88">
    <path clip-path="url(#pa43362e003)" d="M 117.150027 325.921635 
L 117.738325 325.921635 
L 117.738325 208.060552 
L 117.150027 208.060552 
z
" style="fill:#1f77b4;"/>
   </g>
   <g id="patch_89">
    <path clip-path="url(#pa43362e003)" d="M 117.885399 325.921635 
L 118.473697 325.921635 
L 118.473697 199.413939 
L 117.885399 199.413939 
z
" style="fill:#1f77b4;"/>
   </g>
   <g id="patch_90">
    <path clip-path="url(#pa43362e003)" d="M 118.620771 325.921635 
L 119.209068 325.921635 
L 119.209068 192.378369 
L 118.620771 192.378369 
z
" style="fill:#1f77b4;"/>
   </g>
   <g id="patch_91">
    <path clip-path="url(#pa43362e003)" d="M 119.356143 325.921635 
L 119.94444 325.921635 
L 119.94444 183.813328 
L 119.356143 183.813328 
z
" style="fill:#1f77b4;"/>
   </g>
   <g id="patch_92">
    <path clip-path="url(#pa43362e003)" d="M 120.091514 325.921635 
L 120.679812 325.921635 
L 120.679812 174.830232 
L 120.091514 174.830232 
z
" style="fill:#1f77b4;"/>
   </g>
   <g id="patch_93">
    <path clip-path="url(#pa43362e003)" d="M 120.826886 325.921635 
L 121.415184 325.921635 
L 121.415184 165.77576 
L 120.826886 165.77576 
z
" style="fill:#1f77b4;"/>
   </g>
   <g id="patch_94">
    <path clip-path="url(#pa43362e003)" d="M 121.562258 325.921635 
L 122.150555 325.921635 
L 122.150555 165.77576 
L 121.562258 165.77576 
z
" style="fill:#1f77b4;"/>
   </g>
   <g id="patch_95">
    <path clip-path="url(#pa43362e003)" d="M 122.29763 325.921635 
L 122.885927 325.921635 
L 122.885927 150.613598 
L 122.29763 150.613598 
z
" style="fill:#1f77b4;"/>
   </g>
   <g id="patch_96">
    <path clip-path="url(#pa43362e003)" d="M 123.033001 325.921635 
L 123.621299 325.921635 
L 123.621299 140.59046 
L 123.033001 140.59046 
z
" style="fill:#1f77b4;"/>
   </g>
   <g id="patch_97">
    <path clip-path="url(#pa43362e003)" d="M 123.768373 325.921635 
L 124.356671 325.921635 
L 124.356671 130.149267 
L 123.768373 130.149267 
z
" style="fill:#1f77b4;"/>
   </g>
   <g id="patch_98">
    <path clip-path="url(#pa43362e003)" d="M 124.503745 325.921635 
L 125.092042 325.921635 
L 125.092042 121.675995 
L 124.503745 121.675995 
z
" style="fill:#1f77b4;"/>
   </g>
   <g id="patch_99">
    <path clip-path="url(#pa43362e003)" d="M 125.239117 325.921635 
L 125.827414 325.921635 
L 125.827414 112.94781 
L 125.239117 112.94781 
z
" style="fill:#1f77b4;"/>
   </g>
   <g id="patch_100">
    <path clip-path="url(#pa43362e003)" d="M 125.974488 325.921635 
L 126.562786 325.921635 
L 126.562786 99.570031 
L 125.974488 99.570031 
z
" style="fill:#1f77b4;"/>
   </g>
   <g id="patch_101">
    <path clip-path="url(#pa43362e003)" d="M 126.70986 325.921635 
L 127.298158 325.921635 
L 127.298158 91.790119 
L 126.70986 91.790119 
z
" style="fill:#1f77b4;"/>
   </g>
   <g id="patch_102">
    <path clip-path="url(#pa43362e003)" d="M 127.445232 325.921635 
L 128.033529 325.921635 
L 128.033529 84.958479 
L 127.445232 84.958479 
z
" style="fill:#1f77b4;"/>
   </g>
   <g id="patch_103">
    <path clip-path="url(#pa43362e003)" d="M 128.180604 325.921635 
L 128.768901 325.921635 
L 128.768901 72.365829 
L 128.180604 72.365829 
z
" style="fill:#1f77b4;"/>
   </g>
   <g id="patch_104">
    <path clip-path="url(#pa43362e003)" d="M 128.915975 325.921635 
L 129.504273 325.921635 
L 129.504273 64.555328 
L 128.915975 64.555328 
z
" style="fill:#1f77b4;"/>
   </g>
   <g id="patch_105">
    <path clip-path="url(#pa43362e003)" d="M 129.651347 325.921635 
L 130.239645 325.921635 
L 130.239645 51.575212 
L 129.651347 51.575212 
z
" style="fill:#1f77b4;"/>
   </g>
   <g id="patch_106">
    <path clip-path="url(#pa43362e003)" d="M 130.386719 325.921635 
L 130.975016 325.921635 
L 130.975016 43.499602 
L 130.386719 43.499602 
z
" style="fill:#1f77b4;"/>
   </g>
   <g id="patch_107">
    <path clip-path="url(#pa43362e003)" d="M 131.122091 325.921635 
L 131.710388 325.921635 
L 131.710388 33.72118 
L 131.122091 33.72118 
z
" style="fill:#1f77b4;"/>
   </g>
   <g id="matplotlib.axis_1">
    <g id="xtick_1">
     <g id="line2d_1">
      <defs>
       <path d="M 0 0 
L 0 3.5 
" id="m39f5b5d49d" style="stroke:#000000;stroke-width:0.8;"/>
      </defs>
      <g>
       <use style="stroke:#000000;stroke-width:0.8;" x="54.937577" xlink:href="#m39f5b5d49d" y="325.921635"/>
      </g>
     </g>
     <g id="text_1">
      <!-- 0 -->
      <defs>
       <path d="M 31.78125 66.40625 
Q 24.171875 66.40625 20.328125 58.90625 
Q 16.5 51.421875 16.5 36.375 
Q 16.5 21.390625 20.328125 13.890625 
Q 24.171875 6.390625 31.78125 6.390625 
Q 39.453125 6.390625 43.28125 13.890625 
Q 47.125 21.390625 47.125 36.375 
Q 47.125 51.421875 43.28125 58.90625 
Q 39.453125 66.40625 31.78125 66.40625 
z
M 31.78125 74.21875 
Q 44.046875 74.21875 50.515625 64.515625 
Q 56.984375 54.828125 56.984375 36.375 
Q 56.984375 17.96875 50.515625 8.265625 
Q 44.046875 -1.421875 31.78125 -1.421875 
Q 19.53125 -1.421875 13.0625 8.265625 
Q 6.59375 17.96875 6.59375 36.375 
Q 6.59375 54.828125 13.0625 64.515625 
Q 19.53125 74.21875 31.78125 74.21875 
z
" id="DejaVuSans-48"/>
      </defs>
      <g transform="translate(51.756327 340.520072)scale(0.1 -0.1)">
       <use xlink:href="#DejaVuSans-48"/>
      </g>
     </g>
    </g>
    <g id="xtick_2">
     <g id="line2d_2">
      <g>
       <use style="stroke:#000000;stroke-width:0.8;" x="128.474752" xlink:href="#m39f5b5d49d" y="325.921635"/>
      </g>
     </g>
     <g id="text_2">
      <!-- 100 -->
      <defs>
       <path d="M 12.40625 8.296875 
L 28.515625 8.296875 
L 28.515625 63.921875 
L 10.984375 60.40625 
L 10.984375 69.390625 
L 28.421875 72.90625 
L 38.28125 72.90625 
L 38.28125 8.296875 
L 54.390625 8.296875 
L 54.390625 0 
L 12.40625 0 
z
" id="DejaVuSans-49"/>
      </defs>
      <g transform="translate(118.931002 340.520072)scale(0.1 -0.1)">
       <use xlink:href="#DejaVuSans-49"/>
       <use x="63.623047" xlink:href="#DejaVuSans-48"/>
       <use x="127.246094" xlink:href="#DejaVuSans-48"/>
      </g>
     </g>
    </g>
   </g>
   <g id="matplotlib.axis_2">
    <g id="ytick_1">
     <g id="line2d_3">
      <defs>
       <path d="M 0 0 
L -3.5 0 
" id="m61a95eaaea" style="stroke:#000000;stroke-width:0.8;"/>
      </defs>
      <g>
       <use style="stroke:#000000;stroke-width:0.8;" x="50.79008" xlink:href="#m61a95eaaea" y="325.921635"/>
      </g>
     </g>
     <g id="text_3">
      <!-- 0 -->
      <g transform="translate(37.42758 329.720854)scale(0.1 -0.1)">
       <use xlink:href="#DejaVuSans-48"/>
      </g>
     </g>
    </g>
    <g id="ytick_2">
     <g id="line2d_4">
      <g>
       <use style="stroke:#000000;stroke-width:0.8;" x="50.79008" xlink:href="#m61a95eaaea" y="274.939248"/>
      </g>
     </g>
     <g id="text_4">
      <!-- 5000 -->
      <defs>
       <path d="M 10.796875 72.90625 
L 49.515625 72.90625 
L 49.515625 64.59375 
L 19.828125 64.59375 
L 19.828125 46.734375 
Q 21.96875 47.46875 24.109375 47.828125 
Q 26.265625 48.1875 28.421875 48.1875 
Q 40.625 48.1875 47.75 41.5 
Q 54.890625 34.8125 54.890625 23.390625 
Q 54.890625 11.625 47.5625 5.09375 
Q 40.234375 -1.421875 26.90625 -1.421875 
Q 22.3125 -1.421875 17.546875 -0.640625 
Q 12.796875 0.140625 7.71875 1.703125 
L 7.71875 11.625 
Q 12.109375 9.234375 16.796875 8.0625 
Q 21.484375 6.890625 26.703125 6.890625 
Q 35.15625 6.890625 40.078125 11.328125 
Q 45.015625 15.765625 45.015625 23.390625 
Q 45.015625 31 40.078125 35.4375 
Q 35.15625 39.890625 26.703125 39.890625 
Q 22.75 39.890625 18.8125 39.015625 
Q 14.890625 38.140625 10.796875 36.28125 
z
" id="DejaVuSans-53"/>
      </defs>
      <g transform="translate(18.34008 278.738466)scale(0.1 -0.1)">
       <use xlink:href="#DejaVuSans-53"/>
       <use x="63.623047" xlink:href="#DejaVuSans-48"/>
       <use x="127.246094" xlink:href="#DejaVuSans-48"/>
       <use x="190.869141" xlink:href="#DejaVuSans-48"/>
      </g>
     </g>
    </g>
    <g id="ytick_3">
     <g id="line2d_5">
      <g>
       <use style="stroke:#000000;stroke-width:0.8;" x="50.79008" xlink:href="#m61a95eaaea" y="223.95686"/>
      </g>
     </g>
     <g id="text_5">
      <!-- 10000 -->
      <g transform="translate(11.97758 227.756079)scale(0.1 -0.1)">
       <use xlink:href="#DejaVuSans-49"/>
       <use x="63.623047" xlink:href="#DejaVuSans-48"/>
       <use x="127.246094" xlink:href="#DejaVuSans-48"/>
       <use x="190.869141" xlink:href="#DejaVuSans-48"/>
       <use x="254.492188" xlink:href="#DejaVuSans-48"/>
      </g>
     </g>
    </g>
    <g id="ytick_4">
     <g id="line2d_6">
      <g>
       <use style="stroke:#000000;stroke-width:0.8;" x="50.79008" xlink:href="#m61a95eaaea" y="172.974473"/>
      </g>
     </g>
     <g id="text_6">
      <!-- 15000 -->
      <g transform="translate(11.97758 176.773692)scale(0.1 -0.1)">
       <use xlink:href="#DejaVuSans-49"/>
       <use x="63.623047" xlink:href="#DejaVuSans-53"/>
       <use x="127.246094" xlink:href="#DejaVuSans-48"/>
       <use x="190.869141" xlink:href="#DejaVuSans-48"/>
       <use x="254.492188" xlink:href="#DejaVuSans-48"/>
      </g>
     </g>
    </g>
    <g id="ytick_5">
     <g id="line2d_7">
      <g>
       <use style="stroke:#000000;stroke-width:0.8;" x="50.79008" xlink:href="#m61a95eaaea" y="121.992085"/>
      </g>
     </g>
     <g id="text_7">
      <!-- 20000 -->
      <defs>
       <path d="M 19.1875 8.296875 
L 53.609375 8.296875 
L 53.609375 0 
L 7.328125 0 
L 7.328125 8.296875 
Q 12.9375 14.109375 22.625 23.890625 
Q 32.328125 33.6875 34.8125 36.53125 
Q 39.546875 41.84375 41.421875 45.53125 
Q 43.3125 49.21875 43.3125 52.78125 
Q 43.3125 58.59375 39.234375 62.25 
Q 35.15625 65.921875 28.609375 65.921875 
Q 23.96875 65.921875 18.8125 64.3125 
Q 13.671875 62.703125 7.8125 59.421875 
L 7.8125 69.390625 
Q 13.765625 71.78125 18.9375 73 
Q 24.125 74.21875 28.421875 74.21875 
Q 39.75 74.21875 46.484375 68.546875 
Q 53.21875 62.890625 53.21875 53.421875 
Q 53.21875 48.921875 51.53125 44.890625 
Q 49.859375 40.875 45.40625 35.40625 
Q 44.1875 33.984375 37.640625 27.21875 
Q 31.109375 20.453125 19.1875 8.296875 
z
" id="DejaVuSans-50"/>
      </defs>
      <g transform="translate(11.97758 125.791304)scale(0.1 -0.1)">
       <use xlink:href="#DejaVuSans-50"/>
       <use x="63.623047" xlink:href="#DejaVuSans-48"/>
       <use x="127.246094" xlink:href="#DejaVuSans-48"/>
       <use x="190.869141" xlink:href="#DejaVuSans-48"/>
       <use x="254.492188" xlink:href="#DejaVuSans-48"/>
      </g>
     </g>
    </g>
    <g id="ytick_6">
     <g id="line2d_8">
      <g>
       <use style="stroke:#000000;stroke-width:0.8;" x="50.79008" xlink:href="#m61a95eaaea" y="71.009698"/>
      </g>
     </g>
     <g id="text_8">
      <!-- 25000 -->
      <g transform="translate(11.97758 74.808917)scale(0.1 -0.1)">
       <use xlink:href="#DejaVuSans-50"/>
       <use x="63.623047" xlink:href="#DejaVuSans-53"/>
       <use x="127.246094" xlink:href="#DejaVuSans-48"/>
       <use x="190.869141" xlink:href="#DejaVuSans-48"/>
       <use x="254.492188" xlink:href="#DejaVuSans-48"/>
      </g>
     </g>
    </g>
    <g id="ytick_7">
     <g id="line2d_9">
      <g>
       <use style="stroke:#000000;stroke-width:0.8;" x="50.79008" xlink:href="#m61a95eaaea" y="20.027311"/>
      </g>
     </g>
     <g id="text_9">
      <!-- 30000 -->
      <defs>
       <path d="M 40.578125 39.3125 
Q 47.65625 37.796875 51.625 33 
Q 55.609375 28.21875 55.609375 21.1875 
Q 55.609375 10.40625 48.1875 4.484375 
Q 40.765625 -1.421875 27.09375 -1.421875 
Q 22.515625 -1.421875 17.65625 -0.515625 
Q 12.796875 0.390625 7.625 2.203125 
L 7.625 11.71875 
Q 11.71875 9.328125 16.59375 8.109375 
Q 21.484375 6.890625 26.8125 6.890625 
Q 36.078125 6.890625 40.9375 10.546875 
Q 45.796875 14.203125 45.796875 21.1875 
Q 45.796875 27.640625 41.28125 31.265625 
Q 36.765625 34.90625 28.71875 34.90625 
L 20.21875 34.90625 
L 20.21875 43.015625 
L 29.109375 43.015625 
Q 36.375 43.015625 40.234375 45.921875 
Q 44.09375 48.828125 44.09375 54.296875 
Q 44.09375 59.90625 40.109375 62.90625 
Q 36.140625 65.921875 28.71875 65.921875 
Q 24.65625 65.921875 20.015625 65.03125 
Q 15.375 64.15625 9.8125 62.3125 
L 9.8125 71.09375 
Q 15.4375 72.65625 20.34375 73.4375 
Q 25.25 74.21875 29.59375 74.21875 
Q 40.828125 74.21875 47.359375 69.109375 
Q 53.90625 64.015625 53.90625 55.328125 
Q 53.90625 49.265625 50.4375 45.09375 
Q 46.96875 40.921875 40.578125 39.3125 
z
" id="DejaVuSans-51"/>
      </defs>
      <g transform="translate(11.97758 23.826529)scale(0.1 -0.1)">
       <use xlink:href="#DejaVuSans-51"/>
       <use x="63.623047" xlink:href="#DejaVuSans-48"/>
       <use x="127.246094" xlink:href="#DejaVuSans-48"/>
       <use x="190.869141" xlink:href="#DejaVuSans-48"/>
       <use x="254.492188" xlink:href="#DejaVuSans-48"/>
      </g>
     </g>
    </g>
   </g>
   <g id="line2d_10">
    <path clip-path="url(#pa43362e003)" d="M 54.937577 325.913889 
L 55.672949 325.913091 
L 56.408321 325.911965 
L 57.143692 325.910458 
L 57.879064 325.908411 
L 58.614436 325.905667 
L 59.349808 325.902087 
L 60.085179 325.897552 
L 60.820551 325.891976 
L 61.555923 325.885308 
L 62.291295 325.877562 
L 63.026666 325.868852 
L 63.762038 325.859318 
L 64.49741 325.849083 
L 65.232782 325.83825 
L 65.968153 325.826924 
L 66.703525 325.815203 
L 67.438897 325.803138 
L 68.174269 325.790661 
L 68.90964 325.777636 
L 69.645012 325.76391 
L 70.380384 325.749276 
L 71.115756 325.733478 
L 71.851127 325.716257 
L 72.586499 325.697283 
L 73.321871 325.676227 
L 74.057243 325.652726 
L 74.792614 325.626315 
L 75.527986 325.596409 
L 76.263358 325.562108 
L 76.99873 325.522104 
L 77.734101 325.474871 
L 78.469473 325.418563 
L 79.204845 325.350785 
L 79.940217 325.268436 
L 80.675588 325.167639 
L 81.41096 325.044046 
L 82.146332 324.892661 
L 82.881704 324.707392 
L 83.617075 324.48067 
L 84.352447 324.204282 
L 85.087819 323.869693 
L 85.823191 323.468403 
L 86.558562 322.991853 
L 87.293934 322.432231 
L 88.029306 321.783844 
L 88.764678 321.045065 
L 89.500049 320.217171 
L 90.235421 319.304788 
L 90.970793 318.315895 
L 91.706165 317.261742 
L 92.441536 316.156064 
L 93.176908 315.012381 
L 93.91228 313.840814 
L 94.647652 312.6491 
L 95.383023 311.44118 
L 96.118395 310.215624 
L 96.853767 308.965169 
L 97.589139 307.676243 
L 98.32451 306.332155 
L 99.059882 304.916106 
L 99.795254 303.40969 
L 100.530626 301.793818 
L 101.265997 300.05236 
L 102.001369 298.172212 
L 102.736741 296.14406 
L 103.472113 293.960175 
L 104.207485 291.610522 
L 104.942856 289.085919 
L 105.678228 286.378137 
L 106.4136 283.474931 
L 107.148972 280.360928 
L 107.884343 277.018798 
L 108.619715 273.429048 
L 109.355087 269.574868 
L 110.090459 265.437957 
L 110.82583 260.998047 
L 111.561202 256.236971 
L 112.296574 251.141523 
L 113.031946 245.704146 
L 113.767317 239.923142 
L 114.502689 233.800886 
L 115.238061 227.346333 
L 115.973433 220.576955 
L 116.708804 213.518606 
L 117.444176 206.196873 
L 118.179548 198.626882 
L 118.91492 190.822496 
L 119.650291 182.794509 
L 120.385663 174.553245 
L 121.121035 166.103788 
L 121.856407 157.443594 
L 122.591778 148.573691 
L 123.32715 139.51357 
L 124.062522 130.281987 
L 124.797894 120.901003 
L 125.533265 111.388704 
L 126.268637 101.765608 
L 127.004009 92.056506 
L 127.739381 82.282254 
L 128.474752 72.450213 
L 129.210124 62.569839 
L 129.945496 52.661109 
L 130.680868 42.728207 
L 131.416239 32.775664 
" style="fill:none;stroke:#ff0000;stroke-linecap:square;stroke-width:1.5;"/>
   </g>
   <g id="patch_108">
    <path d="M 50.79008 325.921635 
L 50.79008 18.118365 
" style="fill:none;stroke:#000000;stroke-linecap:square;stroke-linejoin:miter;stroke-width:0.8;"/>
   </g>
   <g id="patch_109">
    <path d="M 135.563736 325.921635 
L 135.563736 18.118365 
" style="fill:none;stroke:#000000;stroke-linecap:square;stroke-linejoin:miter;stroke-width:0.8;"/>
   </g>
   <g id="patch_110">
    <path d="M 50.79008 325.921635 
L 135.563736 325.921635 
" style="fill:none;stroke:#000000;stroke-linecap:square;stroke-linejoin:miter;stroke-width:0.8;"/>
   </g>
   <g id="patch_111">
    <path d="M 50.79008 18.118365 
L 135.563736 18.118365 
" style="fill:none;stroke:#000000;stroke-linecap:square;stroke-linejoin:miter;stroke-width:0.8;"/>
   </g>
   <g id="text_10">
    <!-- Casos acumulados - AL - (data) -->
    <defs>
     <path d="M 64.40625 67.28125 
L 64.40625 56.890625 
Q 59.421875 61.53125 53.78125 63.8125 
Q 48.140625 66.109375 41.796875 66.109375 
Q 29.296875 66.109375 22.65625 58.46875 
Q 16.015625 50.828125 16.015625 36.375 
Q 16.015625 21.96875 22.65625 14.328125 
Q 29.296875 6.6875 41.796875 6.6875 
Q 48.140625 6.6875 53.78125 8.984375 
Q 59.421875 11.28125 64.40625 15.921875 
L 64.40625 5.609375 
Q 59.234375 2.09375 53.4375 0.328125 
Q 47.65625 -1.421875 41.21875 -1.421875 
Q 24.65625 -1.421875 15.125 8.703125 
Q 5.609375 18.84375 5.609375 36.375 
Q 5.609375 53.953125 15.125 64.078125 
Q 24.65625 74.21875 41.21875 74.21875 
Q 47.75 74.21875 53.53125 72.484375 
Q 59.328125 70.75 64.40625 67.28125 
z
" id="DejaVuSans-67"/>
     <path d="M 34.28125 27.484375 
Q 23.390625 27.484375 19.1875 25 
Q 14.984375 22.515625 14.984375 16.5 
Q 14.984375 11.71875 18.140625 8.90625 
Q 21.296875 6.109375 26.703125 6.109375 
Q 34.1875 6.109375 38.703125 11.40625 
Q 43.21875 16.703125 43.21875 25.484375 
L 43.21875 27.484375 
z
M 52.203125 31.203125 
L 52.203125 0 
L 43.21875 0 
L 43.21875 8.296875 
Q 40.140625 3.328125 35.546875 0.953125 
Q 30.953125 -1.421875 24.3125 -1.421875 
Q 15.921875 -1.421875 10.953125 3.296875 
Q 6 8.015625 6 15.921875 
Q 6 25.140625 12.171875 29.828125 
Q 18.359375 34.515625 30.609375 34.515625 
L 43.21875 34.515625 
L 43.21875 35.40625 
Q 43.21875 41.609375 39.140625 45 
Q 35.0625 48.390625 27.6875 48.390625 
Q 23 48.390625 18.546875 47.265625 
Q 14.109375 46.140625 10.015625 43.890625 
L 10.015625 52.203125 
Q 14.9375 54.109375 19.578125 55.046875 
Q 24.21875 56 28.609375 56 
Q 40.484375 56 46.34375 49.84375 
Q 52.203125 43.703125 52.203125 31.203125 
z
" id="DejaVuSans-97"/>
     <path d="M 44.28125 53.078125 
L 44.28125 44.578125 
Q 40.484375 46.53125 36.375 47.5 
Q 32.28125 48.484375 27.875 48.484375 
Q 21.1875 48.484375 17.84375 46.4375 
Q 14.5 44.390625 14.5 40.28125 
Q 14.5 37.15625 16.890625 35.375 
Q 19.28125 33.59375 26.515625 31.984375 
L 29.59375 31.296875 
Q 39.15625 29.25 43.1875 25.515625 
Q 47.21875 21.78125 47.21875 15.09375 
Q 47.21875 7.46875 41.1875 3.015625 
Q 35.15625 -1.421875 24.609375 -1.421875 
Q 20.21875 -1.421875 15.453125 -0.5625 
Q 10.6875 0.296875 5.421875 2 
L 5.421875 11.28125 
Q 10.40625 8.6875 15.234375 7.390625 
Q 20.0625 6.109375 24.8125 6.109375 
Q 31.15625 6.109375 34.5625 8.28125 
Q 37.984375 10.453125 37.984375 14.40625 
Q 37.984375 18.0625 35.515625 20.015625 
Q 33.0625 21.96875 24.703125 23.78125 
L 21.578125 24.515625 
Q 13.234375 26.265625 9.515625 29.90625 
Q 5.8125 33.546875 5.8125 39.890625 
Q 5.8125 47.609375 11.28125 51.796875 
Q 16.75 56 26.8125 56 
Q 31.78125 56 36.171875 55.265625 
Q 40.578125 54.546875 44.28125 53.078125 
z
" id="DejaVuSans-115"/>
     <path d="M 30.609375 48.390625 
Q 23.390625 48.390625 19.1875 42.75 
Q 14.984375 37.109375 14.984375 27.296875 
Q 14.984375 17.484375 19.15625 11.84375 
Q 23.34375 6.203125 30.609375 6.203125 
Q 37.796875 6.203125 41.984375 11.859375 
Q 46.1875 17.53125 46.1875 27.296875 
Q 46.1875 37.015625 41.984375 42.703125 
Q 37.796875 48.390625 30.609375 48.390625 
z
M 30.609375 56 
Q 42.328125 56 49.015625 48.375 
Q 55.71875 40.765625 55.71875 27.296875 
Q 55.71875 13.875 49.015625 6.21875 
Q 42.328125 -1.421875 30.609375 -1.421875 
Q 18.84375 -1.421875 12.171875 6.21875 
Q 5.515625 13.875 5.515625 27.296875 
Q 5.515625 40.765625 12.171875 48.375 
Q 18.84375 56 30.609375 56 
z
" id="DejaVuSans-111"/>
     <path id="DejaVuSans-32"/>
     <path d="M 48.78125 52.59375 
L 48.78125 44.1875 
Q 44.96875 46.296875 41.140625 47.34375 
Q 37.3125 48.390625 33.40625 48.390625 
Q 24.65625 48.390625 19.8125 42.84375 
Q 14.984375 37.3125 14.984375 27.296875 
Q 14.984375 17.28125 19.8125 11.734375 
Q 24.65625 6.203125 33.40625 6.203125 
Q 37.3125 6.203125 41.140625 7.25 
Q 44.96875 8.296875 48.78125 10.40625 
L 48.78125 2.09375 
Q 45.015625 0.34375 40.984375 -0.53125 
Q 36.96875 -1.421875 32.421875 -1.421875 
Q 20.0625 -1.421875 12.78125 6.34375 
Q 5.515625 14.109375 5.515625 27.296875 
Q 5.515625 40.671875 12.859375 48.328125 
Q 20.21875 56 33.015625 56 
Q 37.15625 56 41.109375 55.140625 
Q 45.0625 54.296875 48.78125 52.59375 
z
" id="DejaVuSans-99"/>
     <path d="M 8.5 21.578125 
L 8.5 54.6875 
L 17.484375 54.6875 
L 17.484375 21.921875 
Q 17.484375 14.15625 20.5 10.265625 
Q 23.53125 6.390625 29.59375 6.390625 
Q 36.859375 6.390625 41.078125 11.03125 
Q 45.3125 15.671875 45.3125 23.6875 
L 45.3125 54.6875 
L 54.296875 54.6875 
L 54.296875 0 
L 45.3125 0 
L 45.3125 8.40625 
Q 42.046875 3.421875 37.71875 1 
Q 33.40625 -1.421875 27.6875 -1.421875 
Q 18.265625 -1.421875 13.375 4.4375 
Q 8.5 10.296875 8.5 21.578125 
z
M 31.109375 56 
z
" id="DejaVuSans-117"/>
     <path d="M 52 44.1875 
Q 55.375 50.25 60.0625 53.125 
Q 64.75 56 71.09375 56 
Q 79.640625 56 84.28125 50.015625 
Q 88.921875 44.046875 88.921875 33.015625 
L 88.921875 0 
L 79.890625 0 
L 79.890625 32.71875 
Q 79.890625 40.578125 77.09375 44.375 
Q 74.3125 48.1875 68.609375 48.1875 
Q 61.625 48.1875 57.5625 43.546875 
Q 53.515625 38.921875 53.515625 30.90625 
L 53.515625 0 
L 44.484375 0 
L 44.484375 32.71875 
Q 44.484375 40.625 41.703125 44.40625 
Q 38.921875 48.1875 33.109375 48.1875 
Q 26.21875 48.1875 22.15625 43.53125 
Q 18.109375 38.875 18.109375 30.90625 
L 18.109375 0 
L 9.078125 0 
L 9.078125 54.6875 
L 18.109375 54.6875 
L 18.109375 46.1875 
Q 21.1875 51.21875 25.484375 53.609375 
Q 29.78125 56 35.6875 56 
Q 41.65625 56 45.828125 52.96875 
Q 50 49.953125 52 44.1875 
z
" id="DejaVuSans-109"/>
     <path d="M 9.421875 75.984375 
L 18.40625 75.984375 
L 18.40625 0 
L 9.421875 0 
z
" id="DejaVuSans-108"/>
     <path d="M 45.40625 46.390625 
L 45.40625 75.984375 
L 54.390625 75.984375 
L 54.390625 0 
L 45.40625 0 
L 45.40625 8.203125 
Q 42.578125 3.328125 38.25 0.953125 
Q 33.9375 -1.421875 27.875 -1.421875 
Q 17.96875 -1.421875 11.734375 6.484375 
Q 5.515625 14.40625 5.515625 27.296875 
Q 5.515625 40.1875 11.734375 48.09375 
Q 17.96875 56 27.875 56 
Q 33.9375 56 38.25 53.625 
Q 42.578125 51.265625 45.40625 46.390625 
z
M 14.796875 27.296875 
Q 14.796875 17.390625 18.875 11.75 
Q 22.953125 6.109375 30.078125 6.109375 
Q 37.203125 6.109375 41.296875 11.75 
Q 45.40625 17.390625 45.40625 27.296875 
Q 45.40625 37.203125 41.296875 42.84375 
Q 37.203125 48.484375 30.078125 48.484375 
Q 22.953125 48.484375 18.875 42.84375 
Q 14.796875 37.203125 14.796875 27.296875 
z
" id="DejaVuSans-100"/>
     <path d="M 4.890625 31.390625 
L 31.203125 31.390625 
L 31.203125 23.390625 
L 4.890625 23.390625 
z
" id="DejaVuSans-45"/>
     <path d="M 34.1875 63.1875 
L 20.796875 26.90625 
L 47.609375 26.90625 
z
M 28.609375 72.90625 
L 39.796875 72.90625 
L 67.578125 0 
L 57.328125 0 
L 50.6875 18.703125 
L 17.828125 18.703125 
L 11.1875 0 
L 0.78125 0 
z
" id="DejaVuSans-65"/>
     <path d="M 9.8125 72.90625 
L 19.671875 72.90625 
L 19.671875 8.296875 
L 55.171875 8.296875 
L 55.171875 0 
L 9.8125 0 
z
" id="DejaVuSans-76"/>
     <path d="M 31 75.875 
Q 24.46875 64.65625 21.28125 53.65625 
Q 18.109375 42.671875 18.109375 31.390625 
Q 18.109375 20.125 21.3125 9.0625 
Q 24.515625 -2 31 -13.1875 
L 23.1875 -13.1875 
Q 15.875 -1.703125 12.234375 9.375 
Q 8.59375 20.453125 8.59375 31.390625 
Q 8.59375 42.28125 12.203125 53.3125 
Q 15.828125 64.359375 23.1875 75.875 
z
" id="DejaVuSans-40"/>
     <path d="M 18.3125 70.21875 
L 18.3125 54.6875 
L 36.8125 54.6875 
L 36.8125 47.703125 
L 18.3125 47.703125 
L 18.3125 18.015625 
Q 18.3125 11.328125 20.140625 9.421875 
Q 21.96875 7.515625 27.59375 7.515625 
L 36.8125 7.515625 
L 36.8125 0 
L 27.59375 0 
Q 17.1875 0 13.234375 3.875 
Q 9.28125 7.765625 9.28125 18.015625 
L 9.28125 47.703125 
L 2.6875 47.703125 
L 2.6875 54.6875 
L 9.28125 54.6875 
L 9.28125 70.21875 
z
" id="DejaVuSans-116"/>
     <path d="M 8.015625 75.875 
L 15.828125 75.875 
Q 23.140625 64.359375 26.78125 53.3125 
Q 30.421875 42.28125 30.421875 31.390625 
Q 30.421875 20.453125 26.78125 9.375 
Q 23.140625 -1.703125 15.828125 -13.1875 
L 8.015625 -13.1875 
Q 14.5 -2 17.703125 9.0625 
Q 20.90625 20.125 20.90625 31.390625 
Q 20.90625 42.671875 17.703125 53.65625 
Q 14.5 64.65625 8.015625 75.875 
z
" id="DejaVuSans-41"/>
    </defs>
    <g transform="translate(-0.495279 12.118365)scale(0.12 -0.12)">
     <use xlink:href="#DejaVuSans-67"/>
     <use x="69.824219" xlink:href="#DejaVuSans-97"/>
     <use x="131.103516" xlink:href="#DejaVuSans-115"/>
     <use x="183.203125" xlink:href="#DejaVuSans-111"/>
     <use x="244.384766" xlink:href="#DejaVuSans-115"/>
     <use x="296.484375" xlink:href="#DejaVuSans-32"/>
     <use x="328.271484" xlink:href="#DejaVuSans-97"/>
     <use x="389.550781" xlink:href="#DejaVuSans-99"/>
     <use x="444.53125" xlink:href="#DejaVuSans-117"/>
     <use x="507.910156" xlink:href="#DejaVuSans-109"/>
     <use x="605.322266" xlink:href="#DejaVuSans-117"/>
     <use x="668.701172" xlink:href="#DejaVuSans-108"/>
     <use x="696.484375" xlink:href="#DejaVuSans-97"/>
     <use x="757.763672" xlink:href="#DejaVuSans-100"/>
     <use x="821.240234" xlink:href="#DejaVuSans-111"/>
     <use x="882.421875" xlink:href="#DejaVuSans-115"/>
     <use x="934.521484" xlink:href="#DejaVuSans-32"/>
     <use x="966.308594" xlink:href="#DejaVuSans-45"/>
     <use x="1002.392578" xlink:href="#DejaVuSans-32"/>
     <use x="1034.179688" xlink:href="#DejaVuSans-65"/>
     <use x="1102.587891" xlink:href="#DejaVuSans-76"/>
     <use x="1158.300781" xlink:href="#DejaVuSans-32"/>
     <use x="1190.087891" xlink:href="#DejaVuSans-45"/>
     <use x="1226.171875" xlink:href="#DejaVuSans-32"/>
     <use x="1257.958984" xlink:href="#DejaVuSans-40"/>
     <use x="1296.972656" xlink:href="#DejaVuSans-100"/>
     <use x="1360.449219" xlink:href="#DejaVuSans-97"/>
     <use x="1421.728516" xlink:href="#DejaVuSans-116"/>
     <use x="1460.9375" xlink:href="#DejaVuSans-97"/>
     <use x="1522.216797" xlink:href="#DejaVuSans-41"/>
    </g>
   </g>
  </g>
  <g id="axes_2">
   <g id="patch_112">
    <path d="M 224.876056 325.921635 
L 309.649712 325.921635 
L 309.649712 18.118365 
L 224.876056 18.118365 
z
" style="fill:#ffffff;"/>
   </g>
   <g id="patch_113">
    <path clip-path="url(#pe9610cdc21)" d="M 228.729404 325.921635 
L 229.317702 325.921635 
L 229.317702 325.921635 
L 228.729404 325.921635 
z
" style="fill:#1f77b4;"/>
   </g>
   <g id="patch_114">
    <path clip-path="url(#pe9610cdc21)" d="M 229.464776 325.921635 
L 230.053074 325.921635 
L 230.053074 325.921635 
L 229.464776 325.921635 
z
" style="fill:#1f77b4;"/>
   </g>
   <g id="patch_115">
    <path clip-path="url(#pe9610cdc21)" d="M 230.200148 325.921635 
L 230.788445 325.921635 
L 230.788445 325.921635 
L 230.200148 325.921635 
z
" style="fill:#1f77b4;"/>
   </g>
   <g id="patch_116">
    <path clip-path="url(#pe9610cdc21)" d="M 230.93552 325.921635 
L 231.523817 325.921635 
L 231.523817 325.921635 
L 230.93552 325.921635 
z
" style="fill:#1f77b4;"/>
   </g>
   <g id="patch_117">
    <path clip-path="url(#pe9610cdc21)" d="M 231.670891 325.921635 
L 232.259189 325.921635 
L 232.259189 325.921635 
L 231.670891 325.921635 
z
" style="fill:#1f77b4;"/>
   </g>
   <g id="patch_118">
    <path clip-path="url(#pe9610cdc21)" d="M 232.406263 325.921635 
L 232.994561 325.921635 
L 232.994561 325.921635 
L 232.406263 325.921635 
z
" style="fill:#1f77b4;"/>
   </g>
   <g id="patch_119">
    <path clip-path="url(#pe9610cdc21)" d="M 233.141635 325.921635 
L 233.729932 325.921635 
L 233.729932 325.921635 
L 233.141635 325.921635 
z
" style="fill:#1f77b4;"/>
   </g>
   <g id="patch_120">
    <path clip-path="url(#pe9610cdc21)" d="M 233.877007 325.921635 
L 234.465304 325.921635 
L 234.465304 325.921635 
L 233.877007 325.921635 
z
" style="fill:#1f77b4;"/>
   </g>
   <g id="patch_121">
    <path clip-path="url(#pe9610cdc21)" d="M 234.612378 325.921635 
L 235.200676 325.921635 
L 235.200676 325.921635 
L 234.612378 325.921635 
z
" style="fill:#1f77b4;"/>
   </g>
   <g id="patch_122">
    <path clip-path="url(#pe9610cdc21)" d="M 235.34775 325.921635 
L 235.936048 325.921635 
L 235.936048 325.921635 
L 235.34775 325.921635 
z
" style="fill:#1f77b4;"/>
   </g>
   <g id="patch_123">
    <path clip-path="url(#pe9610cdc21)" d="M 236.083122 325.921635 
L 236.671419 325.921635 
L 236.671419 325.330217 
L 236.083122 325.330217 
z
" style="fill:#1f77b4;"/>
   </g>
   <g id="patch_124">
    <path clip-path="url(#pe9610cdc21)" d="M 236.818494 325.921635 
L 237.406791 325.921635 
L 237.406791 325.724496 
L 236.818494 325.724496 
z
" style="fill:#1f77b4;"/>
   </g>
   <g id="patch_125">
    <path clip-path="url(#pe9610cdc21)" d="M 237.553865 325.921635 
L 238.142163 325.921635 
L 238.142163 325.527357 
L 237.553865 325.527357 
z
" style="fill:#1f77b4;"/>
   </g>
   <g id="patch_126">
    <path clip-path="url(#pe9610cdc21)" d="M 238.289237 325.921635 
L 238.877535 325.921635 
L 238.877535 325.921635 
L 238.289237 325.921635 
z
" style="fill:#1f77b4;"/>
   </g>
   <g id="patch_127">
    <path clip-path="url(#pe9610cdc21)" d="M 239.024609 325.921635 
L 239.612906 325.921635 
L 239.612906 325.921635 
L 239.024609 325.921635 
z
" style="fill:#1f77b4;"/>
   </g>
   <g id="patch_128">
    <path clip-path="url(#pe9610cdc21)" d="M 239.759981 325.921635 
L 240.348278 325.921635 
L 240.348278 325.527357 
L 239.759981 325.527357 
z
" style="fill:#1f77b4;"/>
   </g>
   <g id="patch_129">
    <path clip-path="url(#pe9610cdc21)" d="M 240.495352 325.921635 
L 241.08365 325.921635 
L 241.08365 325.527357 
L 240.495352 325.527357 
z
" style="fill:#1f77b4;"/>
   </g>
   <g id="patch_130">
    <path clip-path="url(#pe9610cdc21)" d="M 241.230724 325.921635 
L 241.819022 325.921635 
L 241.819022 325.921635 
L 241.230724 325.921635 
z
" style="fill:#1f77b4;"/>
   </g>
   <g id="patch_131">
    <path clip-path="url(#pe9610cdc21)" d="M 241.966096 325.921635 
L 242.554393 325.921635 
L 242.554393 325.921635 
L 241.966096 325.921635 
z
" style="fill:#1f77b4;"/>
   </g>
   <g id="patch_132">
    <path clip-path="url(#pe9610cdc21)" d="M 242.701468 325.921635 
L 243.289765 325.921635 
L 243.289765 325.330217 
L 242.701468 325.330217 
z
" style="fill:#1f77b4;"/>
   </g>
   <g id="patch_133">
    <path clip-path="url(#pe9610cdc21)" d="M 243.436839 325.921635 
L 244.025137 325.921635 
L 244.025137 325.330217 
L 243.436839 325.330217 
z
" style="fill:#1f77b4;"/>
   </g>
   <g id="patch_134">
    <path clip-path="url(#pe9610cdc21)" d="M 244.172211 325.921635 
L 244.760509 325.921635 
L 244.760509 325.921635 
L 244.172211 325.921635 
z
" style="fill:#1f77b4;"/>
   </g>
   <g id="patch_135">
    <path clip-path="url(#pe9610cdc21)" d="M 244.907583 325.921635 
L 245.49588 325.921635 
L 245.49588 325.724496 
L 244.907583 325.724496 
z
" style="fill:#1f77b4;"/>
   </g>
   <g id="patch_136">
    <path clip-path="url(#pe9610cdc21)" d="M 245.642955 325.921635 
L 246.231252 325.921635 
L 246.231252 325.921635 
L 245.642955 325.921635 
z
" style="fill:#1f77b4;"/>
   </g>
   <g id="patch_137">
    <path clip-path="url(#pe9610cdc21)" d="M 246.378326 325.921635 
L 246.966624 325.921635 
L 246.966624 325.921635 
L 246.378326 325.921635 
z
" style="fill:#1f77b4;"/>
   </g>
   <g id="patch_138">
    <path clip-path="url(#pe9610cdc21)" d="M 247.113698 325.921635 
L 247.701996 325.921635 
L 247.701996 325.133078 
L 247.113698 325.133078 
z
" style="fill:#1f77b4;"/>
   </g>
   <g id="patch_139">
    <path clip-path="url(#pe9610cdc21)" d="M 247.84907 325.921635 
L 248.437367 325.921635 
L 248.437367 325.724496 
L 247.84907 325.724496 
z
" style="fill:#1f77b4;"/>
   </g>
   <g id="patch_140">
    <path clip-path="url(#pe9610cdc21)" d="M 248.584442 325.921635 
L 249.172739 325.921635 
L 249.172739 324.935939 
L 248.584442 324.935939 
z
" style="fill:#1f77b4;"/>
   </g>
   <g id="patch_141">
    <path clip-path="url(#pe9610cdc21)" d="M 249.319813 325.921635 
L 249.908111 325.921635 
L 249.908111 325.330217 
L 249.319813 325.330217 
z
" style="fill:#1f77b4;"/>
   </g>
   <g id="patch_142">
    <path clip-path="url(#pe9610cdc21)" d="M 250.055185 325.921635 
L 250.643483 325.921635 
L 250.643483 325.724496 
L 250.055185 325.724496 
z
" style="fill:#1f77b4;"/>
   </g>
   <g id="patch_143">
    <path clip-path="url(#pe9610cdc21)" d="M 250.790557 325.921635 
L 251.378854 325.921635 
L 251.378854 324.935939 
L 250.790557 324.935939 
z
" style="fill:#1f77b4;"/>
   </g>
   <g id="patch_144">
    <path clip-path="url(#pe9610cdc21)" d="M 251.525929 325.921635 
L 252.114226 325.921635 
L 252.114226 325.921635 
L 251.525929 325.921635 
z
" style="fill:#1f77b4;"/>
   </g>
   <g id="patch_145">
    <path clip-path="url(#pe9610cdc21)" d="M 252.261301 325.921635 
L 252.849598 325.921635 
L 252.849598 324.344522 
L 252.261301 324.344522 
z
" style="fill:#1f77b4;"/>
   </g>
   <g id="patch_146">
    <path clip-path="url(#pe9610cdc21)" d="M 252.996672 325.921635 
L 253.58497 325.921635 
L 253.58497 325.330217 
L 252.996672 325.330217 
z
" style="fill:#1f77b4;"/>
   </g>
   <g id="patch_147">
    <path clip-path="url(#pe9610cdc21)" d="M 253.732044 325.921635 
L 254.320341 325.921635 
L 254.320341 325.921635 
L 253.732044 325.921635 
z
" style="fill:#1f77b4;"/>
   </g>
   <g id="patch_148">
    <path clip-path="url(#pe9610cdc21)" d="M 254.467416 325.921635 
L 255.055713 325.921635 
L 255.055713 325.527357 
L 254.467416 325.527357 
z
" style="fill:#1f77b4;"/>
   </g>
   <g id="patch_149">
    <path clip-path="url(#pe9610cdc21)" d="M 255.202788 325.921635 
L 255.791085 325.921635 
L 255.791085 321.584573 
L 255.202788 321.584573 
z
" style="fill:#1f77b4;"/>
   </g>
   <g id="patch_150">
    <path clip-path="url(#pe9610cdc21)" d="M 255.938159 325.921635 
L 256.526457 325.921635 
L 256.526457 323.950243 
L 255.938159 323.950243 
z
" style="fill:#1f77b4;"/>
   </g>
   <g id="patch_151">
    <path clip-path="url(#pe9610cdc21)" d="M 256.673531 325.921635 
L 257.261828 325.921635 
L 257.261828 324.541661 
L 256.673531 324.541661 
z
" style="fill:#1f77b4;"/>
   </g>
   <g id="patch_152">
    <path clip-path="url(#pe9610cdc21)" d="M 257.408903 325.921635 
L 257.9972 325.921635 
L 257.9972 321.781712 
L 257.408903 321.781712 
z
" style="fill:#1f77b4;"/>
   </g>
   <g id="patch_153">
    <path clip-path="url(#pe9610cdc21)" d="M 258.144275 325.921635 
L 258.732572 325.921635 
L 258.732572 321.584573 
L 258.144275 321.584573 
z
" style="fill:#1f77b4;"/>
   </g>
   <g id="patch_154">
    <path clip-path="url(#pe9610cdc21)" d="M 258.879646 325.921635 
L 259.467944 325.921635 
L 259.467944 320.598877 
L 258.879646 320.598877 
z
" style="fill:#1f77b4;"/>
   </g>
   <g id="patch_155">
    <path clip-path="url(#pe9610cdc21)" d="M 259.615018 325.921635 
L 260.203315 325.921635 
L 260.203315 323.555965 
L 259.615018 323.555965 
z
" style="fill:#1f77b4;"/>
   </g>
   <g id="patch_156">
    <path clip-path="url(#pe9610cdc21)" d="M 260.35039 325.921635 
L 260.938687 325.921635 
L 260.938687 318.233207 
L 260.35039 318.233207 
z
" style="fill:#1f77b4;"/>
   </g>
   <g id="patch_157">
    <path clip-path="url(#pe9610cdc21)" d="M 261.085762 325.921635 
L 261.674059 325.921635 
L 261.674059 319.416042 
L 261.085762 319.416042 
z
" style="fill:#1f77b4;"/>
   </g>
   <g id="patch_158">
    <path clip-path="url(#pe9610cdc21)" d="M 261.821133 325.921635 
L 262.409431 325.921635 
L 262.409431 309.953361 
L 261.821133 309.953361 
z
" style="fill:#1f77b4;"/>
   </g>
   <g id="patch_159">
    <path clip-path="url(#pe9610cdc21)" d="M 262.556505 325.921635 
L 263.144802 325.921635 
L 263.144802 308.376247 
L 262.556505 308.376247 
z
" style="fill:#1f77b4;"/>
   </g>
   <g id="patch_160">
    <path clip-path="url(#pe9610cdc21)" d="M 263.291877 325.921635 
L 263.880174 325.921635 
L 263.880174 308.573387 
L 263.291877 308.573387 
z
" style="fill:#1f77b4;"/>
   </g>
   <g id="patch_161">
    <path clip-path="url(#pe9610cdc21)" d="M 264.027249 325.921635 
L 264.615546 325.921635 
L 264.615546 315.473258 
L 264.027249 315.473258 
z
" style="fill:#1f77b4;"/>
   </g>
   <g id="patch_162">
    <path clip-path="url(#pe9610cdc21)" d="M 264.76262 325.921635 
L 265.350918 325.921635 
L 265.350918 308.376247 
L 264.76262 308.376247 
z
" style="fill:#1f77b4;"/>
   </g>
   <g id="patch_163">
    <path clip-path="url(#pe9610cdc21)" d="M 265.497992 325.921635 
L 266.086289 325.921635 
L 266.086289 299.504984 
L 265.497992 299.504984 
z
" style="fill:#1f77b4;"/>
   </g>
   <g id="patch_164">
    <path clip-path="url(#pe9610cdc21)" d="M 266.233364 325.921635 
L 266.821661 325.921635 
L 266.821661 290.436581 
L 266.233364 290.436581 
z
" style="fill:#1f77b4;"/>
   </g>
   <g id="patch_165">
    <path clip-path="url(#pe9610cdc21)" d="M 266.968736 325.921635 
L 267.557033 325.921635 
L 267.557033 308.770526 
L 266.968736 308.770526 
z
" style="fill:#1f77b4;"/>
   </g>
   <g id="patch_166">
    <path clip-path="url(#pe9610cdc21)" d="M 267.704107 325.921635 
L 268.292405 325.921635 
L 268.292405 290.042303 
L 267.704107 290.042303 
z
" style="fill:#1f77b4;"/>
   </g>
   <g id="patch_167">
    <path clip-path="url(#pe9610cdc21)" d="M 268.439479 325.921635 
L 269.027776 325.921635 
L 269.027776 297.139314 
L 268.439479 297.139314 
z
" style="fill:#1f77b4;"/>
   </g>
   <g id="patch_168">
    <path clip-path="url(#pe9610cdc21)" d="M 269.174851 325.921635 
L 269.763148 325.921635 
L 269.763148 312.319031 
L 269.174851 312.319031 
z
" style="fill:#1f77b4;"/>
   </g>
   <g id="patch_169">
    <path clip-path="url(#pe9610cdc21)" d="M 269.910223 325.921635 
L 270.49852 325.921635 
L 270.49852 306.799134 
L 269.910223 306.799134 
z
" style="fill:#1f77b4;"/>
   </g>
   <g id="patch_170">
    <path clip-path="url(#pe9610cdc21)" d="M 270.645594 325.921635 
L 271.233892 325.921635 
L 271.233892 312.51617 
L 270.645594 312.51617 
z
" style="fill:#1f77b4;"/>
   </g>
   <g id="patch_171">
    <path clip-path="url(#pe9610cdc21)" d="M 271.380966 325.921635 
L 271.969263 325.921635 
L 271.969263 306.799134 
L 271.380966 306.799134 
z
" style="fill:#1f77b4;"/>
   </g>
   <g id="patch_172">
    <path clip-path="url(#pe9610cdc21)" d="M 272.116338 325.921635 
L 272.704635 325.921635 
L 272.704635 293.590808 
L 272.116338 293.590808 
z
" style="fill:#1f77b4;"/>
   </g>
   <g id="patch_173">
    <path clip-path="url(#pe9610cdc21)" d="M 272.85171 325.921635 
L 273.440007 325.921635 
L 273.440007 293.19653 
L 272.85171 293.19653 
z
" style="fill:#1f77b4;"/>
   </g>
   <g id="patch_174">
    <path clip-path="url(#pe9610cdc21)" d="M 273.587081 325.921635 
L 274.175379 325.921635 
L 274.175379 298.519288 
L 273.587081 298.519288 
z
" style="fill:#1f77b4;"/>
   </g>
   <g id="patch_175">
    <path clip-path="url(#pe9610cdc21)" d="M 274.322453 325.921635 
L 274.910751 325.921635 
L 274.910751 308.967665 
L 274.322453 308.967665 
z
" style="fill:#1f77b4;"/>
   </g>
   <g id="patch_176">
    <path clip-path="url(#pe9610cdc21)" d="M 275.057825 325.921635 
L 275.646122 325.921635 
L 275.646122 309.164804 
L 275.057825 309.164804 
z
" style="fill:#1f77b4;"/>
   </g>
   <g id="patch_177">
    <path clip-path="url(#pe9610cdc21)" d="M 275.793197 325.921635 
L 276.381494 325.921635 
L 276.381494 279.199648 
L 275.793197 279.199648 
z
" style="fill:#1f77b4;"/>
   </g>
   <g id="patch_178">
    <path clip-path="url(#pe9610cdc21)" d="M 276.528568 325.921635 
L 277.116866 325.921635 
L 277.116866 290.239442 
L 276.528568 290.239442 
z
" style="fill:#1f77b4;"/>
   </g>
   <g id="patch_179">
    <path clip-path="url(#pe9610cdc21)" d="M 277.26394 325.921635 
L 277.852238 325.921635 
L 277.852238 284.325266 
L 277.26394 284.325266 
z
" style="fill:#1f77b4;"/>
   </g>
   <g id="patch_180">
    <path clip-path="url(#pe9610cdc21)" d="M 277.999312 325.921635 
L 278.587609 325.921635 
L 278.587609 278.60823 
L 277.999312 278.60823 
z
" style="fill:#1f77b4;"/>
   </g>
   <g id="patch_181">
    <path clip-path="url(#pe9610cdc21)" d="M 278.734684 325.921635 
L 279.322981 325.921635 
L 279.322981 250.811605 
L 278.734684 250.811605 
z
" style="fill:#1f77b4;"/>
   </g>
   <g id="patch_182">
    <path clip-path="url(#pe9610cdc21)" d="M 279.470055 325.921635 
L 280.058353 325.921635 
L 280.058353 281.959596 
L 279.470055 281.959596 
z
" style="fill:#1f77b4;"/>
   </g>
   <g id="patch_183">
    <path clip-path="url(#pe9610cdc21)" d="M 280.205427 325.921635 
L 280.793725 325.921635 
L 280.793725 283.53671 
L 280.205427 283.53671 
z
" style="fill:#1f77b4;"/>
   </g>
   <g id="patch_184">
    <path clip-path="url(#pe9610cdc21)" d="M 280.940799 325.921635 
L 281.529096 325.921635 
L 281.529096 269.736967 
L 280.940799 269.736967 
z
" style="fill:#1f77b4;"/>
   </g>
   <g id="patch_185">
    <path clip-path="url(#pe9610cdc21)" d="M 281.676171 325.921635 
L 282.264468 325.921635 
L 282.264468 302.067793 
L 281.676171 302.067793 
z
" style="fill:#1f77b4;"/>
   </g>
   <g id="patch_186">
    <path clip-path="url(#pe9610cdc21)" d="M 282.411542 325.921635 
L 282.99984 325.921635 
L 282.99984 231.491964 
L 282.411542 231.491964 
z
" style="fill:#1f77b4;"/>
   </g>
   <g id="patch_187">
    <path clip-path="url(#pe9610cdc21)" d="M 283.146914 325.921635 
L 283.735212 325.921635 
L 283.735212 249.825909 
L 283.146914 249.825909 
z
" style="fill:#1f77b4;"/>
   </g>
   <g id="patch_188">
    <path clip-path="url(#pe9610cdc21)" d="M 283.882286 325.921635 
L 284.470583 325.921635 
L 284.470583 261.259982 
L 283.882286 261.259982 
z
" style="fill:#1f77b4;"/>
   </g>
   <g id="patch_189">
    <path clip-path="url(#pe9610cdc21)" d="M 284.617658 325.921635 
L 285.205955 325.921635 
L 285.205955 210.79235 
L 284.617658 210.79235 
z
" style="fill:#1f77b4;"/>
   </g>
   <g id="patch_190">
    <path clip-path="url(#pe9610cdc21)" d="M 285.353029 325.921635 
L 285.941327 325.921635 
L 285.941327 233.660495 
L 285.353029 233.660495 
z
" style="fill:#1f77b4;"/>
   </g>
   <g id="patch_191">
    <path clip-path="url(#pe9610cdc21)" d="M 286.088401 325.921635 
L 286.676699 325.921635 
L 286.676699 251.797301 
L 286.088401 251.797301 
z
" style="fill:#1f77b4;"/>
   </g>
   <g id="patch_192">
    <path clip-path="url(#pe9610cdc21)" d="M 286.823773 325.921635 
L 287.41207 325.921635 
L 287.41207 223.014979 
L 286.823773 223.014979 
z
" style="fill:#1f77b4;"/>
   </g>
   <g id="patch_193">
    <path clip-path="url(#pe9610cdc21)" d="M 287.559145 325.921635 
L 288.147442 325.921635 
L 288.147442 232.280521 
L 287.559145 232.280521 
z
" style="fill:#1f77b4;"/>
   </g>
   <g id="patch_194">
    <path clip-path="url(#pe9610cdc21)" d="M 288.294516 325.921635 
L 288.882814 325.921635 
L 288.882814 214.932273 
L 288.294516 214.932273 
z
" style="fill:#1f77b4;"/>
   </g>
   <g id="patch_195">
    <path clip-path="url(#pe9610cdc21)" d="M 289.029888 325.921635 
L 289.618186 325.921635 
L 289.618186 206.652427 
L 289.029888 206.652427 
z
" style="fill:#1f77b4;"/>
   </g>
   <g id="patch_196">
    <path clip-path="url(#pe9610cdc21)" d="M 289.76526 325.921635 
L 290.353557 325.921635 
L 290.353557 115.968401 
L 289.76526 115.968401 
z
" style="fill:#1f77b4;"/>
   </g>
   <g id="patch_197">
    <path clip-path="url(#pe9610cdc21)" d="M 290.500632 325.921635 
L 291.088929 325.921635 
L 291.088929 217.692221 
L 290.500632 217.692221 
z
" style="fill:#1f77b4;"/>
   </g>
   <g id="patch_198">
    <path clip-path="url(#pe9610cdc21)" d="M 291.236003 325.921635 
L 291.824301 325.921635 
L 291.824301 183.587142 
L 291.236003 183.587142 
z
" style="fill:#1f77b4;"/>
   </g>
   <g id="patch_199">
    <path clip-path="url(#pe9610cdc21)" d="M 291.971375 325.921635 
L 292.559673 325.921635 
L 292.559673 158.747604 
L 291.971375 158.747604 
z
" style="fill:#1f77b4;"/>
   </g>
   <g id="patch_200">
    <path clip-path="url(#pe9610cdc21)" d="M 292.706747 325.921635 
L 293.295044 325.921635 
L 293.295044 189.895596 
L 292.706747 189.895596 
z
" style="fill:#1f77b4;"/>
   </g>
   <g id="patch_201">
    <path clip-path="url(#pe9610cdc21)" d="M 293.442119 325.921635 
L 294.030416 325.921635 
L 294.030416 160.324718 
L 293.442119 160.324718 
z
" style="fill:#1f77b4;"/>
   </g>
   <g id="patch_202">
    <path clip-path="url(#pe9610cdc21)" d="M 294.17749 325.921635 
L 294.765788 325.921635 
L 294.765788 152.242011 
L 294.17749 152.242011 
z
" style="fill:#1f77b4;"/>
   </g>
   <g id="patch_203">
    <path clip-path="url(#pe9610cdc21)" d="M 294.912862 325.921635 
L 295.50116 325.921635 
L 295.50116 150.862037 
L 294.912862 150.862037 
z
" style="fill:#1f77b4;"/>
   </g>
   <g id="patch_204">
    <path clip-path="url(#pe9610cdc21)" d="M 295.648234 325.921635 
L 296.236531 325.921635 
L 296.236531 325.921635 
L 295.648234 325.921635 
z
" style="fill:#1f77b4;"/>
   </g>
   <g id="patch_205">
    <path clip-path="url(#pe9610cdc21)" d="M 296.383606 325.921635 
L 296.971903 325.921635 
L 296.971903 32.775664 
L 296.383606 32.775664 
z
" style="fill:#1f77b4;"/>
   </g>
   <g id="patch_206">
    <path clip-path="url(#pe9610cdc21)" d="M 297.118977 325.921635 
L 297.707275 325.921635 
L 297.707275 132.133814 
L 297.118977 132.133814 
z
" style="fill:#1f77b4;"/>
   </g>
   <g id="patch_207">
    <path clip-path="url(#pe9610cdc21)" d="M 297.854349 325.921635 
L 298.442647 325.921635 
L 298.442647 124.051107 
L 297.854349 124.051107 
z
" style="fill:#1f77b4;"/>
   </g>
   <g id="patch_208">
    <path clip-path="url(#pe9610cdc21)" d="M 298.589721 325.921635 
L 299.178018 325.921635 
L 299.178018 162.09897 
L 298.589721 162.09897 
z
" style="fill:#1f77b4;"/>
   </g>
   <g id="patch_209">
    <path clip-path="url(#pe9610cdc21)" d="M 299.325093 325.921635 
L 299.91339 325.921635 
L 299.91339 157.170491 
L 299.325093 157.170491 
z
" style="fill:#1f77b4;"/>
   </g>
   <g id="patch_210">
    <path clip-path="url(#pe9610cdc21)" d="M 300.060464 325.921635 
L 300.648762 325.921635 
L 300.648762 67.275021 
L 300.060464 67.275021 
z
" style="fill:#1f77b4;"/>
   </g>
   <g id="patch_211">
    <path clip-path="url(#pe9610cdc21)" d="M 300.795836 325.921635 
L 301.384134 325.921635 
L 301.384134 175.504435 
L 300.795836 175.504435 
z
" style="fill:#1f77b4;"/>
   </g>
   <g id="patch_212">
    <path clip-path="url(#pe9610cdc21)" d="M 301.531208 325.921635 
L 302.119505 325.921635 
L 302.119505 193.83838 
L 301.531208 193.83838 
z
" style="fill:#1f77b4;"/>
   </g>
   <g id="patch_213">
    <path clip-path="url(#pe9610cdc21)" d="M 302.26658 325.921635 
L 302.854877 325.921635 
L 302.854877 82.454739 
L 302.26658 82.454739 
z
" style="fill:#1f77b4;"/>
   </g>
   <g id="patch_214">
    <path clip-path="url(#pe9610cdc21)" d="M 303.001951 325.921635 
L 303.590249 325.921635 
L 303.590249 174.913018 
L 303.001951 174.913018 
z
" style="fill:#1f77b4;"/>
   </g>
   <g id="patch_215">
    <path clip-path="url(#pe9610cdc21)" d="M 303.737323 325.921635 
L 304.325621 325.921635 
L 304.325621 74.96345 
L 303.737323 74.96345 
z
" style="fill:#1f77b4;"/>
   </g>
   <g id="patch_216">
    <path clip-path="url(#pe9610cdc21)" d="M 304.472695 325.921635 
L 305.060992 325.921635 
L 305.060992 169.787399 
L 304.472695 169.787399 
z
" style="fill:#1f77b4;"/>
   </g>
   <g id="patch_217">
    <path clip-path="url(#pe9610cdc21)" d="M 305.208067 325.921635 
L 305.796364 325.921635 
L 305.796364 136.865154 
L 305.208067 136.865154 
z
" style="fill:#1f77b4;"/>
   </g>
   <g id="matplotlib.axis_3">
    <g id="xtick_3">
     <g id="line2d_11">
      <g>
       <use style="stroke:#000000;stroke-width:0.8;" x="229.023553" xlink:href="#m39f5b5d49d" y="325.921635"/>
      </g>
     </g>
     <g id="text_11">
      <!-- 0 -->
      <g transform="translate(225.842303 340.520072)scale(0.1 -0.1)">
       <use xlink:href="#DejaVuSans-48"/>
      </g>
     </g>
    </g>
    <g id="xtick_4">
     <g id="line2d_12">
      <g>
       <use style="stroke:#000000;stroke-width:0.8;" x="302.560728" xlink:href="#m39f5b5d49d" y="325.921635"/>
      </g>
     </g>
     <g id="text_12">
      <!-- 100 -->
      <g transform="translate(293.016978 340.520072)scale(0.1 -0.1)">
       <use xlink:href="#DejaVuSans-49"/>
       <use x="63.623047" xlink:href="#DejaVuSans-48"/>
       <use x="127.246094" xlink:href="#DejaVuSans-48"/>
      </g>
     </g>
    </g>
   </g>
   <g id="matplotlib.axis_4">
    <g id="ytick_8">
     <g id="line2d_13">
      <g>
       <use style="stroke:#000000;stroke-width:0.8;" x="224.876056" xlink:href="#m61a95eaaea" y="325.921635"/>
      </g>
     </g>
     <g id="text_13">
      <!-- 0 -->
      <g transform="translate(211.513556 329.720854)scale(0.1 -0.1)">
       <use xlink:href="#DejaVuSans-48"/>
      </g>
     </g>
    </g>
    <g id="ytick_9">
     <g id="line2d_14">
      <g>
       <use style="stroke:#000000;stroke-width:0.8;" x="224.876056" xlink:href="#m61a95eaaea" y="286.493798"/>
      </g>
     </g>
     <g id="text_14">
      <!-- 200 -->
      <g transform="translate(198.788556 290.293016)scale(0.1 -0.1)">
       <use xlink:href="#DejaVuSans-50"/>
       <use x="63.623047" xlink:href="#DejaVuSans-48"/>
       <use x="127.246094" xlink:href="#DejaVuSans-48"/>
      </g>
     </g>
    </g>
    <g id="ytick_10">
     <g id="line2d_15">
      <g>
       <use style="stroke:#000000;stroke-width:0.8;" x="224.876056" xlink:href="#m61a95eaaea" y="247.06596"/>
      </g>
     </g>
     <g id="text_15">
      <!-- 400 -->
      <defs>
       <path d="M 37.796875 64.3125 
L 12.890625 25.390625 
L 37.796875 25.390625 
z
M 35.203125 72.90625 
L 47.609375 72.90625 
L 47.609375 25.390625 
L 58.015625 25.390625 
L 58.015625 17.1875 
L 47.609375 17.1875 
L 47.609375 0 
L 37.796875 0 
L 37.796875 17.1875 
L 4.890625 17.1875 
L 4.890625 26.703125 
z
" id="DejaVuSans-52"/>
      </defs>
      <g transform="translate(198.788556 250.865179)scale(0.1 -0.1)">
       <use xlink:href="#DejaVuSans-52"/>
       <use x="63.623047" xlink:href="#DejaVuSans-48"/>
       <use x="127.246094" xlink:href="#DejaVuSans-48"/>
      </g>
     </g>
    </g>
    <g id="ytick_11">
     <g id="line2d_16">
      <g>
       <use style="stroke:#000000;stroke-width:0.8;" x="224.876056" xlink:href="#m61a95eaaea" y="207.638123"/>
      </g>
     </g>
     <g id="text_16">
      <!-- 600 -->
      <defs>
       <path d="M 33.015625 40.375 
Q 26.375 40.375 22.484375 35.828125 
Q 18.609375 31.296875 18.609375 23.390625 
Q 18.609375 15.53125 22.484375 10.953125 
Q 26.375 6.390625 33.015625 6.390625 
Q 39.65625 6.390625 43.53125 10.953125 
Q 47.40625 15.53125 47.40625 23.390625 
Q 47.40625 31.296875 43.53125 35.828125 
Q 39.65625 40.375 33.015625 40.375 
z
M 52.59375 71.296875 
L 52.59375 62.3125 
Q 48.875 64.0625 45.09375 64.984375 
Q 41.3125 65.921875 37.59375 65.921875 
Q 27.828125 65.921875 22.671875 59.328125 
Q 17.53125 52.734375 16.796875 39.40625 
Q 19.671875 43.65625 24.015625 45.921875 
Q 28.375 48.1875 33.59375 48.1875 
Q 44.578125 48.1875 50.953125 41.515625 
Q 57.328125 34.859375 57.328125 23.390625 
Q 57.328125 12.15625 50.6875 5.359375 
Q 44.046875 -1.421875 33.015625 -1.421875 
Q 20.359375 -1.421875 13.671875 8.265625 
Q 6.984375 17.96875 6.984375 36.375 
Q 6.984375 53.65625 15.1875 63.9375 
Q 23.390625 74.21875 37.203125 74.21875 
Q 40.921875 74.21875 44.703125 73.484375 
Q 48.484375 72.75 52.59375 71.296875 
z
" id="DejaVuSans-54"/>
      </defs>
      <g transform="translate(198.788556 211.437341)scale(0.1 -0.1)">
       <use xlink:href="#DejaVuSans-54"/>
       <use x="63.623047" xlink:href="#DejaVuSans-48"/>
       <use x="127.246094" xlink:href="#DejaVuSans-48"/>
      </g>
     </g>
    </g>
    <g id="ytick_12">
     <g id="line2d_17">
      <g>
       <use style="stroke:#000000;stroke-width:0.8;" x="224.876056" xlink:href="#m61a95eaaea" y="168.210285"/>
      </g>
     </g>
     <g id="text_17">
      <!-- 800 -->
      <defs>
       <path d="M 31.78125 34.625 
Q 24.75 34.625 20.71875 30.859375 
Q 16.703125 27.09375 16.703125 20.515625 
Q 16.703125 13.921875 20.71875 10.15625 
Q 24.75 6.390625 31.78125 6.390625 
Q 38.8125 6.390625 42.859375 10.171875 
Q 46.921875 13.96875 46.921875 20.515625 
Q 46.921875 27.09375 42.890625 30.859375 
Q 38.875 34.625 31.78125 34.625 
z
M 21.921875 38.8125 
Q 15.578125 40.375 12.03125 44.71875 
Q 8.5 49.078125 8.5 55.328125 
Q 8.5 64.0625 14.71875 69.140625 
Q 20.953125 74.21875 31.78125 74.21875 
Q 42.671875 74.21875 48.875 69.140625 
Q 55.078125 64.0625 55.078125 55.328125 
Q 55.078125 49.078125 51.53125 44.71875 
Q 48 40.375 41.703125 38.8125 
Q 48.828125 37.15625 52.796875 32.3125 
Q 56.78125 27.484375 56.78125 20.515625 
Q 56.78125 9.90625 50.3125 4.234375 
Q 43.84375 -1.421875 31.78125 -1.421875 
Q 19.734375 -1.421875 13.25 4.234375 
Q 6.78125 9.90625 6.78125 20.515625 
Q 6.78125 27.484375 10.78125 32.3125 
Q 14.796875 37.15625 21.921875 38.8125 
z
M 18.3125 54.390625 
Q 18.3125 48.734375 21.84375 45.5625 
Q 25.390625 42.390625 31.78125 42.390625 
Q 38.140625 42.390625 41.71875 45.5625 
Q 45.3125 48.734375 45.3125 54.390625 
Q 45.3125 60.0625 41.71875 63.234375 
Q 38.140625 66.40625 31.78125 66.40625 
Q 25.390625 66.40625 21.84375 63.234375 
Q 18.3125 60.0625 18.3125 54.390625 
z
" id="DejaVuSans-56"/>
      </defs>
      <g transform="translate(198.788556 172.009504)scale(0.1 -0.1)">
       <use xlink:href="#DejaVuSans-56"/>
       <use x="63.623047" xlink:href="#DejaVuSans-48"/>
       <use x="127.246094" xlink:href="#DejaVuSans-48"/>
      </g>
     </g>
    </g>
    <g id="ytick_13">
     <g id="line2d_18">
      <g>
       <use style="stroke:#000000;stroke-width:0.8;" x="224.876056" xlink:href="#m61a95eaaea" y="128.782448"/>
      </g>
     </g>
     <g id="text_18">
      <!-- 1000 -->
      <g transform="translate(192.426056 132.581667)scale(0.1 -0.1)">
       <use xlink:href="#DejaVuSans-49"/>
       <use x="63.623047" xlink:href="#DejaVuSans-48"/>
       <use x="127.246094" xlink:href="#DejaVuSans-48"/>
       <use x="190.869141" xlink:href="#DejaVuSans-48"/>
      </g>
     </g>
    </g>
    <g id="ytick_14">
     <g id="line2d_19">
      <g>
       <use style="stroke:#000000;stroke-width:0.8;" x="224.876056" xlink:href="#m61a95eaaea" y="89.35461"/>
      </g>
     </g>
     <g id="text_19">
      <!-- 1200 -->
      <g transform="translate(192.426056 93.153829)scale(0.1 -0.1)">
       <use xlink:href="#DejaVuSans-49"/>
       <use x="63.623047" xlink:href="#DejaVuSans-50"/>
       <use x="127.246094" xlink:href="#DejaVuSans-48"/>
       <use x="190.869141" xlink:href="#DejaVuSans-48"/>
      </g>
     </g>
    </g>
    <g id="ytick_15">
     <g id="line2d_20">
      <g>
       <use style="stroke:#000000;stroke-width:0.8;" x="224.876056" xlink:href="#m61a95eaaea" y="49.926773"/>
      </g>
     </g>
     <g id="text_20">
      <!-- 1400 -->
      <g transform="translate(192.426056 53.725992)scale(0.1 -0.1)">
       <use xlink:href="#DejaVuSans-49"/>
       <use x="63.623047" xlink:href="#DejaVuSans-52"/>
       <use x="127.246094" xlink:href="#DejaVuSans-48"/>
       <use x="190.869141" xlink:href="#DejaVuSans-48"/>
      </g>
     </g>
    </g>
   </g>
   <g id="line2d_21">
    <path clip-path="url(#pe9610cdc21)" d="M 229.023553 325.910797 
L 229.758925 325.906199 
L 230.494297 325.899877 
L 231.229668 325.892487 
L 231.96504 325.882059 
L 232.700412 325.868594 
L 233.435784 325.852419 
L 234.171155 325.833945 
L 234.906527 325.813828 
L 235.641899 325.792727 
L 236.377271 325.771872 
L 237.112642 325.753233 
L 237.848014 325.737305 
L 238.583386 325.723757 
L 239.318758 325.71218 
L 240.054129 325.702655 
L 240.789501 325.695019 
L 241.524873 325.688369 
L 242.260245 325.680404 
L 242.995616 325.669812 
L 243.730988 325.656265 
L 244.46636 325.638694 
L 245.201732 325.616197 
L 245.937103 325.588691 
L 246.672475 325.55478 
L 247.407847 325.514548 
L 248.143219 325.467254 
L 248.87859 325.411011 
L 249.613962 325.343437 
L 250.349334 325.258456 
L 251.084706 325.148186 
L 251.820077 325.00844 
L 252.555449 324.832977 
L 253.290821 324.611205 
L 254.026193 324.329496 
L 254.761564 323.972823 
L 255.496936 323.532072 
L 256.232308 322.994763 
L 256.96768 322.33963 
L 257.703051 321.538182 
L 258.438423 320.57794 
L 259.173795 319.452662 
L 259.909167 318.163087 
L 260.644538 316.707985 
L 261.37991 315.101888 
L 262.115282 313.385685 
L 262.850654 311.638035 
L 263.586026 309.915099 
L 264.321397 308.281578 
L 265.056769 306.802336 
L 265.792141 305.540596 
L 266.527513 304.54439 
L 267.262884 303.809614 
L 267.998256 303.270498 
L 268.733628 302.880982 
L 269.469 302.567661 
L 270.204371 302.226671 
L 270.939743 301.745277 
L 271.675115 301.001468 
L 272.410487 299.934979 
L 273.145858 298.543674 
L 273.88123 296.796516 
L 274.616602 294.680288 
L 275.351974 292.252216 
L 276.087345 289.570762 
L 276.822717 286.709247 
L 277.558089 283.698297 
L 278.293461 280.493327 
L 279.028832 277.110843 
L 279.764204 273.569234 
L 280.499576 269.790911 
L 281.234948 265.71536 
L 281.970319 261.30473 
L 282.705691 256.517228 
L 283.441063 251.404746 
L 284.176435 245.938383 
L 284.911806 240.080205 
L 285.647178 233.870772 
L 286.38255 227.405986 
L 287.117922 220.795131 
L 287.853293 214.151434 
L 288.588665 207.553634 
L 289.324037 201.128999 
L 290.059409 195.042152 
L 290.79478 189.455173 
L 291.530152 184.36289 
L 292.265524 179.563072 
L 293.000896 175.031252 
L 293.736267 170.708148 
L 294.471639 166.584646 
L 295.207011 162.559427 
L 295.942383 158.485026 
L 296.677754 154.430494 
L 297.413126 150.752834 
L 298.148498 147.437759 
L 298.88387 144.549231 
L 299.619241 142.010397 
L 300.354613 139.868222 
L 301.089985 138.205389 
L 301.825357 136.945784 
L 302.560728 135.82847 
L 303.2961 134.894009 
L 304.031472 134.34578 
L 304.766844 133.878426 
L 305.502215 133.498681 
" style="fill:none;stroke:#ff0000;stroke-linecap:square;stroke-width:1.5;"/>
   </g>
   <g id="patch_218">
    <path d="M 224.876056 325.921635 
L 224.876056 18.118365 
" style="fill:none;stroke:#000000;stroke-linecap:square;stroke-linejoin:miter;stroke-width:0.8;"/>
   </g>
   <g id="patch_219">
    <path d="M 309.649712 325.921635 
L 309.649712 18.118365 
" style="fill:none;stroke:#000000;stroke-linecap:square;stroke-linejoin:miter;stroke-width:0.8;"/>
   </g>
   <g id="patch_220">
    <path d="M 224.876056 325.921635 
L 309.649712 325.921635 
" style="fill:none;stroke:#000000;stroke-linecap:square;stroke-linejoin:miter;stroke-width:0.8;"/>
   </g>
   <g id="patch_221">
    <path d="M 224.876056 18.118365 
L 309.649712 18.118365 
" style="fill:none;stroke:#000000;stroke-linecap:square;stroke-linejoin:miter;stroke-width:0.8;"/>
   </g>
   <g id="text_21">
    <!-- Casos novos - AL - (data) -->
    <defs>
     <path d="M 54.890625 33.015625 
L 54.890625 0 
L 45.90625 0 
L 45.90625 32.71875 
Q 45.90625 40.484375 42.875 44.328125 
Q 39.84375 48.1875 33.796875 48.1875 
Q 26.515625 48.1875 22.3125 43.546875 
Q 18.109375 38.921875 18.109375 30.90625 
L 18.109375 0 
L 9.078125 0 
L 9.078125 54.6875 
L 18.109375 54.6875 
L 18.109375 46.1875 
Q 21.34375 51.125 25.703125 53.5625 
Q 30.078125 56 35.796875 56 
Q 45.21875 56 50.046875 50.171875 
Q 54.890625 44.34375 54.890625 33.015625 
z
" id="DejaVuSans-110"/>
     <path d="M 2.984375 54.6875 
L 12.5 54.6875 
L 29.59375 8.796875 
L 46.6875 54.6875 
L 56.203125 54.6875 
L 35.6875 0 
L 23.484375 0 
z
" id="DejaVuSans-118"/>
    </defs>
    <g transform="translate(192.143822 12.118365)scale(0.12 -0.12)">
     <use xlink:href="#DejaVuSans-67"/>
     <use x="69.824219" xlink:href="#DejaVuSans-97"/>
     <use x="131.103516" xlink:href="#DejaVuSans-115"/>
     <use x="183.203125" xlink:href="#DejaVuSans-111"/>
     <use x="244.384766" xlink:href="#DejaVuSans-115"/>
     <use x="296.484375" xlink:href="#DejaVuSans-32"/>
     <use x="328.271484" xlink:href="#DejaVuSans-110"/>
     <use x="391.650391" xlink:href="#DejaVuSans-111"/>
     <use x="452.832031" xlink:href="#DejaVuSans-118"/>
     <use x="512.011719" xlink:href="#DejaVuSans-111"/>
     <use x="573.193359" xlink:href="#DejaVuSans-115"/>
     <use x="625.292969" xlink:href="#DejaVuSans-32"/>
     <use x="657.080078" xlink:href="#DejaVuSans-45"/>
     <use x="693.164062" xlink:href="#DejaVuSans-32"/>
     <use x="724.951172" xlink:href="#DejaVuSans-65"/>
     <use x="793.359375" xlink:href="#DejaVuSans-76"/>
     <use x="849.072266" xlink:href="#DejaVuSans-32"/>
     <use x="880.859375" xlink:href="#DejaVuSans-45"/>
     <use x="916.943359" xlink:href="#DejaVuSans-32"/>
     <use x="948.730469" xlink:href="#DejaVuSans-40"/>
     <use x="987.744141" xlink:href="#DejaVuSans-100"/>
     <use x="1051.220703" xlink:href="#DejaVuSans-97"/>
     <use x="1112.5" xlink:href="#DejaVuSans-116"/>
     <use x="1151.708984" xlink:href="#DejaVuSans-97"/>
     <use x="1212.988281" xlink:href="#DejaVuSans-41"/>
    </g>
   </g>
  </g>
  <g id="axes_3">
   <g id="patch_222">
    <path d="M 370.862032 325.921635 
L 455.635688 325.921635 
L 455.635688 18.118365 
L 370.862032 18.118365 
z
" style="fill:#ffffff;"/>
   </g>
   <g id="matplotlib.axis_5">
    <g id="xtick_5">
     <g id="line2d_22">
      <g>
       <use style="stroke:#000000;stroke-width:0.8;" x="374.71538" xlink:href="#m39f5b5d49d" y="325.921635"/>
      </g>
     </g>
     <g id="text_22">
      <!-- 0 -->
      <g transform="translate(371.53413 340.520072)scale(0.1 -0.1)">
       <use xlink:href="#DejaVuSans-48"/>
      </g>
     </g>
    </g>
    <g id="xtick_6">
     <g id="line2d_23">
      <g>
       <use style="stroke:#000000;stroke-width:0.8;" x="448.818226" xlink:href="#m39f5b5d49d" y="325.921635"/>
      </g>
     </g>
     <g id="text_23">
      <!-- 100 -->
      <g transform="translate(439.274476 340.520072)scale(0.1 -0.1)">
       <use xlink:href="#DejaVuSans-49"/>
       <use x="63.623047" xlink:href="#DejaVuSans-48"/>
       <use x="127.246094" xlink:href="#DejaVuSans-48"/>
      </g>
     </g>
    </g>
   </g>
   <g id="matplotlib.axis_6">
    <g id="ytick_16">
     <g id="line2d_24">
      <g>
       <use style="stroke:#000000;stroke-width:0.8;" x="370.862032" xlink:href="#m61a95eaaea" y="259.865428"/>
      </g>
     </g>
     <g id="text_24">
      <!-- 1.5 -->
      <defs>
       <path d="M 10.6875 12.40625 
L 21 12.40625 
L 21 0 
L 10.6875 0 
z
" id="DejaVuSans-46"/>
      </defs>
      <g transform="translate(347.958907 263.664647)scale(0.1 -0.1)">
       <use xlink:href="#DejaVuSans-49"/>
       <use x="63.623047" xlink:href="#DejaVuSans-46"/>
       <use x="95.410156" xlink:href="#DejaVuSans-53"/>
      </g>
     </g>
    </g>
    <g id="ytick_17">
     <g id="line2d_25">
      <g>
       <use style="stroke:#000000;stroke-width:0.8;" x="370.862032" xlink:href="#m61a95eaaea" y="193.604563"/>
      </g>
     </g>
     <g id="text_25">
      <!-- 2.0 -->
      <g transform="translate(347.958907 197.403782)scale(0.1 -0.1)">
       <use xlink:href="#DejaVuSans-50"/>
       <use x="63.623047" xlink:href="#DejaVuSans-46"/>
       <use x="95.410156" xlink:href="#DejaVuSans-48"/>
      </g>
     </g>
    </g>
    <g id="ytick_18">
     <g id="line2d_26">
      <g>
       <use style="stroke:#000000;stroke-width:0.8;" x="370.862032" xlink:href="#m61a95eaaea" y="127.343698"/>
      </g>
     </g>
     <g id="text_26">
      <!-- 2.5 -->
      <g transform="translate(347.958907 131.142917)scale(0.1 -0.1)">
       <use xlink:href="#DejaVuSans-50"/>
       <use x="63.623047" xlink:href="#DejaVuSans-46"/>
       <use x="95.410156" xlink:href="#DejaVuSans-53"/>
      </g>
     </g>
    </g>
    <g id="ytick_19">
     <g id="line2d_27">
      <g>
       <use style="stroke:#000000;stroke-width:0.8;" x="370.862032" xlink:href="#m61a95eaaea" y="61.082833"/>
      </g>
     </g>
     <g id="text_27">
      <!-- 3.0 -->
      <g transform="translate(347.958907 64.882051)scale(0.1 -0.1)">
       <use xlink:href="#DejaVuSans-51"/>
       <use x="63.623047" xlink:href="#DejaVuSans-46"/>
       <use x="95.410156" xlink:href="#DejaVuSans-48"/>
      </g>
     </g>
    </g>
   </g>
   <g id="line2d_28">
    <path clip-path="url(#pfe000fc15f)" d="M 374.71538 32.109423 
L 375.456409 44.162562 
L 376.197437 51.078011 
L 376.938466 86.143701 
L 377.679494 76.710524 
L 378.420523 85.811252 
L 379.161551 104.912845 
L 379.90258 126.697287 
L 380.643608 149.48847 
L 381.384637 171.165315 
L 382.125665 194.298766 
L 382.866694 221.348531 
L 383.607722 244.31564 
L 384.34875 261.306019 
L 385.089779 273.793196 
L 385.830807 284.941598 
L 386.571836 294.216753 
L 387.312864 299.123767 
L 388.053893 294.858317 
L 388.794921 286.29436 
L 389.53595 277.780925 
L 390.276978 267.319154 
L 391.018007 256.377962 
L 391.759035 247.89466 
L 392.500063 238.593823 
L 393.241092 232.535803 
L 393.98212 227.55772 
L 394.723149 221.813042 
L 395.464177 215.441082 
L 396.205206 204.761841 
L 396.946234 191.091964 
L 397.687263 181.174636 
L 398.428291 173.44822 
L 399.16932 165.794435 
L 399.910348 158.475617 
L 400.651377 152.682912 
L 401.392405 151.291964 
L 402.133433 152.069255 
L 402.874462 152.658046 
L 403.61549 152.644996 
L 404.356519 155.535289 
L 405.097547 160.884891 
L 405.838576 168.109964 
L 406.579604 175.843483 
L 407.320633 184.709811 
L 408.061661 195.519068 
L 408.80269 209.191314 
L 409.543718 223.029141 
L 410.284747 237.186906 
L 411.025775 251.549916 
L 411.766803 266.150801 
L 412.507832 280.627071 
L 413.24886 293.279555 
L 413.989889 302.185065 
L 414.730917 308.682099 
L 415.471946 311.930577 
L 416.212974 310.90931 
L 416.954003 305.528577 
L 417.695031 295.90095 
L 418.43606 285.041592 
L 419.177088 275.506227 
L 419.918116 266.520185 
L 420.659145 258.859656 
L 421.400173 254.40795 
L 422.141202 252.552051 
L 422.88223 253.028726 
L 423.623259 254.331722 
L 424.364287 254.740556 
L 425.105316 255.605753 
L 425.846344 256.836699 
L 426.587373 256.768473 
L 427.328401 255.970806 
L 428.06943 254.955924 
L 428.810458 253.746129 
L 429.551486 253.568057 
L 430.292515 253.243958 
L 431.033543 252.71174 
L 431.774572 252.81489 
L 432.5156 253.919244 
L 433.256629 255.89474 
L 433.997657 258.559667 
L 434.738686 261.473028 
L 435.479714 264.947201 
L 436.220743 269.162066 
L 436.961771 274.007266 
L 437.7028 278.272879 
L 438.443828 280.721364 
L 439.184856 282.748376 
L 439.925885 284.178103 
L 440.666913 285.391523 
L 441.407942 285.830225 
L 442.14897 285.267489 
L 442.889999 285.088577 
L 443.631027 286.988257 
L 444.372056 288.660974 
L 445.113084 290.594922 
L 445.854113 291.978096 
L 446.595141 293.563011 
L 447.336169 295.571338 
L 448.077198 297.097871 
L 448.818226 297.083181 
L 449.559255 297.289414 
L 450.300283 298.675745 
L 451.041312 298.272758 
L 451.78234 297.901233 
" style="fill:none;stroke:#ff0000;stroke-linecap:square;stroke-width:1.5;"/>
   </g>
   <g id="patch_223">
    <path d="M 370.862032 325.921635 
L 370.862032 18.118365 
" style="fill:none;stroke:#000000;stroke-linecap:square;stroke-linejoin:miter;stroke-width:0.8;"/>
   </g>
   <g id="patch_224">
    <path d="M 455.635688 325.921635 
L 455.635688 18.118365 
" style="fill:none;stroke:#000000;stroke-linecap:square;stroke-linejoin:miter;stroke-width:0.8;"/>
   </g>
   <g id="patch_225">
    <path d="M 370.862032 325.921635 
L 455.635688 325.921635 
" style="fill:none;stroke:#000000;stroke-linecap:square;stroke-linejoin:miter;stroke-width:0.8;"/>
   </g>
   <g id="patch_226">
    <path d="M 370.862032 18.118365 
L 455.635688 18.118365 
" style="fill:none;stroke:#000000;stroke-linecap:square;stroke-linejoin:miter;stroke-width:0.8;"/>
   </g>
   <g id="text_28">
    <!-- r0 - AL - (data) -->
    <defs>
     <path d="M 41.109375 46.296875 
Q 39.59375 47.171875 37.8125 47.578125 
Q 36.03125 48 33.890625 48 
Q 26.265625 48 22.1875 43.046875 
Q 18.109375 38.09375 18.109375 28.8125 
L 18.109375 0 
L 9.078125 0 
L 9.078125 54.6875 
L 18.109375 54.6875 
L 18.109375 46.1875 
Q 20.953125 51.171875 25.484375 53.578125 
Q 30.03125 56 36.53125 56 
Q 37.453125 56 38.578125 55.875 
Q 39.703125 55.765625 41.0625 55.515625 
z
" id="DejaVuSans-114"/>
    </defs>
    <g transform="translate(369.363548 12.118365)scale(0.12 -0.12)">
     <use xlink:href="#DejaVuSans-114"/>
     <use x="41.113281" xlink:href="#DejaVuSans-48"/>
     <use x="104.736328" xlink:href="#DejaVuSans-32"/>
     <use x="136.523438" xlink:href="#DejaVuSans-45"/>
     <use x="172.607422" xlink:href="#DejaVuSans-32"/>
     <use x="204.394531" xlink:href="#DejaVuSans-65"/>
     <use x="272.802734" xlink:href="#DejaVuSans-76"/>
     <use x="328.515625" xlink:href="#DejaVuSans-32"/>
     <use x="360.302734" xlink:href="#DejaVuSans-45"/>
     <use x="396.386719" xlink:href="#DejaVuSans-32"/>
     <use x="428.173828" xlink:href="#DejaVuSans-40"/>
     <use x="467.1875" xlink:href="#DejaVuSans-100"/>
     <use x="530.664062" xlink:href="#DejaVuSans-97"/>
     <use x="591.943359" xlink:href="#DejaVuSans-116"/>
     <use x="631.152344" xlink:href="#DejaVuSans-97"/>
     <use x="692.431641" xlink:href="#DejaVuSans-41"/>
    </g>
   </g>
  </g>
 </g>
 <defs>
  <clipPath id="pa43362e003">
   <rect height="307.80327" width="84.773656" x="50.79008" y="18.118365"/>
  </clipPath>
  <clipPath id="pe9610cdc21">
   <rect height="307.80327" width="84.773656" x="224.876056" y="18.118365"/>
  </clipPath>
  <clipPath id="pfe000fc15f">
   <rect height="307.80327" width="84.773656" x="370.862032" y="18.118365"/>
  </clipPath>
 </defs>
</svg>
