<?xml version="1.0" encoding="utf-8" standalone="no"?>
<!DOCTYPE svg PUBLIC "-//W3C//DTD SVG 1.1//EN"
  "http://www.w3.org/Graphics/SVG/1.1/DTD/svg11.dtd">
<!-- Created with matplotlib (https://matplotlib.org/) -->
<svg height="345.6pt" version="1.1" viewBox="0 0 460.8 345.6" width="460.8pt" xmlns="http://www.w3.org/2000/svg" xmlns:xlink="http://www.w3.org/1999/xlink">
 <defs>
  <style type="text/css">
*{stroke-linecap:butt;stroke-linejoin:round;}
  </style>
 </defs>
 <g id="figure_1">
  <g id="patch_1">
   <path d="M 0 345.6 
L 460.8 345.6 
L 460.8 0 
L 0 0 
z
" style="fill:#ffffff;"/>
  </g>
  <g id="axes_1">
   <g id="patch_2">
    <path d="M 55.490865 137.71551 
L 228.27701 137.71551 
L 228.27701 18.118365 
L 55.490865 18.118365 
z
" style="fill:#ffffff;"/>
   </g>
   <g id="patch_3">
    <path clip-path="url(#pf6ebf898ef)" d="M 63.344781 137.71551 
L 64.543852 137.71551 
L 64.543852 137.711548 
L 63.344781 137.711548 
z
" style="fill:#1f77b4;"/>
   </g>
   <g id="patch_4">
    <path clip-path="url(#pf6ebf898ef)" d="M 64.84362 137.71551 
L 66.042691 137.71551 
L 66.042691 137.711548 
L 64.84362 137.711548 
z
" style="fill:#1f77b4;"/>
   </g>
   <g id="patch_5">
    <path clip-path="url(#pf6ebf898ef)" d="M 66.342458 137.71551 
L 67.54153 137.71551 
L 67.54153 137.711548 
L 66.342458 137.711548 
z
" style="fill:#1f77b4;"/>
   </g>
   <g id="patch_6">
    <path clip-path="url(#pf6ebf898ef)" d="M 67.841297 137.71551 
L 69.040368 137.71551 
L 69.040368 137.711548 
L 67.841297 137.711548 
z
" style="fill:#1f77b4;"/>
   </g>
   <g id="patch_7">
    <path clip-path="url(#pf6ebf898ef)" d="M 69.340136 137.71551 
L 70.539207 137.71551 
L 70.539207 137.711548 
L 69.340136 137.711548 
z
" style="fill:#1f77b4;"/>
   </g>
   <g id="patch_8">
    <path clip-path="url(#pf6ebf898ef)" d="M 70.838975 137.71551 
L 72.038046 137.71551 
L 72.038046 137.711548 
L 70.838975 137.711548 
z
" style="fill:#1f77b4;"/>
   </g>
   <g id="patch_9">
    <path clip-path="url(#pf6ebf898ef)" d="M 72.337814 137.71551 
L 73.536885 137.71551 
L 73.536885 137.711548 
L 72.337814 137.711548 
z
" style="fill:#1f77b4;"/>
   </g>
   <g id="patch_10">
    <path clip-path="url(#pf6ebf898ef)" d="M 73.836653 137.71551 
L 75.035724 137.71551 
L 75.035724 137.711548 
L 73.836653 137.711548 
z
" style="fill:#1f77b4;"/>
   </g>
   <g id="patch_11">
    <path clip-path="url(#pf6ebf898ef)" d="M 75.335492 137.71551 
L 76.534563 137.71551 
L 76.534563 137.711548 
L 75.335492 137.711548 
z
" style="fill:#1f77b4;"/>
   </g>
   <g id="patch_12">
    <path clip-path="url(#pf6ebf898ef)" d="M 76.834331 137.71551 
L 78.033402 137.71551 
L 78.033402 137.711548 
L 76.834331 137.711548 
z
" style="fill:#1f77b4;"/>
   </g>
   <g id="patch_13">
    <path clip-path="url(#pf6ebf898ef)" d="M 78.333169 137.71551 
L 79.53224 137.71551 
L 79.53224 137.699663 
L 78.333169 137.699663 
z
" style="fill:#1f77b4;"/>
   </g>
   <g id="patch_14">
    <path clip-path="url(#pf6ebf898ef)" d="M 79.832008 137.71551 
L 81.031079 137.71551 
L 81.031079 137.695701 
L 79.832008 137.695701 
z
" style="fill:#1f77b4;"/>
   </g>
   <g id="patch_15">
    <path clip-path="url(#pf6ebf898ef)" d="M 81.330847 137.71551 
L 82.529918 137.71551 
L 82.529918 137.687777 
L 81.330847 137.687777 
z
" style="fill:#1f77b4;"/>
   </g>
   <g id="patch_16">
    <path clip-path="url(#pf6ebf898ef)" d="M 82.829686 137.71551 
L 84.028757 137.71551 
L 84.028757 137.687777 
L 82.829686 137.687777 
z
" style="fill:#1f77b4;"/>
   </g>
   <g id="patch_17">
    <path clip-path="url(#pf6ebf898ef)" d="M 84.328525 137.71551 
L 85.527596 137.71551 
L 85.527596 137.687777 
L 84.328525 137.687777 
z
" style="fill:#1f77b4;"/>
   </g>
   <g id="patch_18">
    <path clip-path="url(#pf6ebf898ef)" d="M 85.827364 137.71551 
L 87.026435 137.71551 
L 87.026435 137.679853 
L 85.827364 137.679853 
z
" style="fill:#1f77b4;"/>
   </g>
   <g id="patch_19">
    <path clip-path="url(#pf6ebf898ef)" d="M 87.326203 137.71551 
L 88.525274 137.71551 
L 88.525274 137.67193 
L 87.326203 137.67193 
z
" style="fill:#1f77b4;"/>
   </g>
   <g id="patch_20">
    <path clip-path="url(#pf6ebf898ef)" d="M 88.825041 137.71551 
L 90.024113 137.71551 
L 90.024113 137.67193 
L 88.825041 137.67193 
z
" style="fill:#1f77b4;"/>
   </g>
   <g id="patch_21">
    <path clip-path="url(#pf6ebf898ef)" d="M 90.32388 137.71551 
L 91.522951 137.71551 
L 91.522951 137.67193 
L 90.32388 137.67193 
z
" style="fill:#1f77b4;"/>
   </g>
   <g id="patch_22">
    <path clip-path="url(#pf6ebf898ef)" d="M 91.822719 137.71551 
L 93.02179 137.71551 
L 93.02179 137.660044 
L 91.822719 137.660044 
z
" style="fill:#1f77b4;"/>
   </g>
   <g id="patch_23">
    <path clip-path="url(#pf6ebf898ef)" d="M 93.321558 137.71551 
L 94.520629 137.71551 
L 94.520629 137.648159 
L 93.321558 137.648159 
z
" style="fill:#1f77b4;"/>
   </g>
   <g id="patch_24">
    <path clip-path="url(#pf6ebf898ef)" d="M 94.820397 137.71551 
L 96.019468 137.71551 
L 96.019468 137.648159 
L 94.820397 137.648159 
z
" style="fill:#1f77b4;"/>
   </g>
   <g id="patch_25">
    <path clip-path="url(#pf6ebf898ef)" d="M 96.319236 137.71551 
L 97.518307 137.71551 
L 97.518307 137.644197 
L 96.319236 137.644197 
z
" style="fill:#1f77b4;"/>
   </g>
   <g id="patch_26">
    <path clip-path="url(#pf6ebf898ef)" d="M 97.818075 137.71551 
L 99.017146 137.71551 
L 99.017146 137.644197 
L 97.818075 137.644197 
z
" style="fill:#1f77b4;"/>
   </g>
   <g id="patch_27">
    <path clip-path="url(#pf6ebf898ef)" d="M 99.316914 137.71551 
L 100.515985 137.71551 
L 100.515985 137.644197 
L 99.316914 137.644197 
z
" style="fill:#1f77b4;"/>
   </g>
   <g id="patch_28">
    <path clip-path="url(#pf6ebf898ef)" d="M 100.815752 137.71551 
L 102.014824 137.71551 
L 102.014824 137.628349 
L 100.815752 137.628349 
z
" style="fill:#1f77b4;"/>
   </g>
   <g id="patch_29">
    <path clip-path="url(#pf6ebf898ef)" d="M 102.314591 137.71551 
L 103.513662 137.71551 
L 103.513662 137.624388 
L 102.314591 137.624388 
z
" style="fill:#1f77b4;"/>
   </g>
   <g id="patch_30">
    <path clip-path="url(#pf6ebf898ef)" d="M 103.81343 137.71551 
L 105.012501 137.71551 
L 105.012501 137.604578 
L 103.81343 137.604578 
z
" style="fill:#1f77b4;"/>
   </g>
   <g id="patch_31">
    <path clip-path="url(#pf6ebf898ef)" d="M 105.312269 137.71551 
L 106.51134 137.71551 
L 106.51134 137.592693 
L 105.312269 137.592693 
z
" style="fill:#1f77b4;"/>
   </g>
   <g id="patch_32">
    <path clip-path="url(#pf6ebf898ef)" d="M 106.811108 137.71551 
L 108.010179 137.71551 
L 108.010179 137.588731 
L 106.811108 137.588731 
z
" style="fill:#1f77b4;"/>
   </g>
   <g id="patch_33">
    <path clip-path="url(#pf6ebf898ef)" d="M 108.309947 137.71551 
L 109.509018 137.71551 
L 109.509018 137.568922 
L 108.309947 137.568922 
z
" style="fill:#1f77b4;"/>
   </g>
   <g id="patch_34">
    <path clip-path="url(#pf6ebf898ef)" d="M 109.808786 137.71551 
L 111.007857 137.71551 
L 111.007857 137.568922 
L 109.808786 137.568922 
z
" style="fill:#1f77b4;"/>
   </g>
   <g id="patch_35">
    <path clip-path="url(#pf6ebf898ef)" d="M 111.307625 137.71551 
L 112.506696 137.71551 
L 112.506696 137.537227 
L 111.307625 137.537227 
z
" style="fill:#1f77b4;"/>
   </g>
   <g id="patch_36">
    <path clip-path="url(#pf6ebf898ef)" d="M 112.806463 137.71551 
L 114.005535 137.71551 
L 114.005535 137.525341 
L 112.806463 137.525341 
z
" style="fill:#1f77b4;"/>
   </g>
   <g id="patch_37">
    <path clip-path="url(#pf6ebf898ef)" d="M 114.305302 137.71551 
L 115.504373 137.71551 
L 115.504373 137.525341 
L 114.305302 137.525341 
z
" style="fill:#1f77b4;"/>
   </g>
   <g id="patch_38">
    <path clip-path="url(#pf6ebf898ef)" d="M 115.804141 137.71551 
L 117.003212 137.71551 
L 117.003212 137.517418 
L 115.804141 137.517418 
z
" style="fill:#1f77b4;"/>
   </g>
   <g id="patch_39">
    <path clip-path="url(#pf6ebf898ef)" d="M 117.30298 137.71551 
L 118.502051 137.71551 
L 118.502051 137.430257 
L 117.30298 137.430257 
z
" style="fill:#1f77b4;"/>
   </g>
   <g id="patch_40">
    <path clip-path="url(#pf6ebf898ef)" d="M 118.801819 137.71551 
L 120.00089 137.71551 
L 120.00089 137.390639 
L 118.801819 137.390639 
z
" style="fill:#1f77b4;"/>
   </g>
   <g id="patch_41">
    <path clip-path="url(#pf6ebf898ef)" d="M 120.300658 137.71551 
L 121.499729 137.71551 
L 121.499729 137.362906 
L 120.300658 137.362906 
z
" style="fill:#1f77b4;"/>
   </g>
   <g id="patch_42">
    <path clip-path="url(#pf6ebf898ef)" d="M 121.799497 137.71551 
L 122.998568 137.71551 
L 122.998568 137.279707 
L 121.799497 137.279707 
z
" style="fill:#1f77b4;"/>
   </g>
   <g id="patch_43">
    <path clip-path="url(#pf6ebf898ef)" d="M 123.298336 137.71551 
L 124.497407 137.71551 
L 124.497407 137.192546 
L 123.298336 137.192546 
z
" style="fill:#1f77b4;"/>
   </g>
   <g id="patch_44">
    <path clip-path="url(#pf6ebf898ef)" d="M 124.797174 137.71551 
L 125.996245 137.71551 
L 125.996245 137.085576 
L 124.797174 137.085576 
z
" style="fill:#1f77b4;"/>
   </g>
   <g id="patch_45">
    <path clip-path="url(#pf6ebf898ef)" d="M 126.296013 137.71551 
L 127.495084 137.71551 
L 127.495084 137.038034 
L 126.296013 137.038034 
z
" style="fill:#1f77b4;"/>
   </g>
   <g id="patch_46">
    <path clip-path="url(#pf6ebf898ef)" d="M 127.794852 137.71551 
L 128.993923 137.71551 
L 128.993923 136.883522 
L 127.794852 136.883522 
z
" style="fill:#1f77b4;"/>
   </g>
   <g id="patch_47">
    <path clip-path="url(#pf6ebf898ef)" d="M 129.293691 137.71551 
L 130.492762 137.71551 
L 130.492762 136.752781 
L 129.293691 136.752781 
z
" style="fill:#1f77b4;"/>
   </g>
   <g id="patch_48">
    <path clip-path="url(#pf6ebf898ef)" d="M 130.79253 137.71551 
L 131.991601 137.71551 
L 131.991601 136.431871 
L 130.79253 136.431871 
z
" style="fill:#1f77b4;"/>
   </g>
   <g id="patch_49">
    <path clip-path="url(#pf6ebf898ef)" d="M 132.291369 137.71551 
L 133.49044 137.71551 
L 133.49044 136.079267 
L 132.291369 136.079267 
z
" style="fill:#1f77b4;"/>
   </g>
   <g id="patch_50">
    <path clip-path="url(#pf6ebf898ef)" d="M 133.790208 137.71551 
L 134.989279 137.71551 
L 134.989279 135.730624 
L 133.790208 135.730624 
z
" style="fill:#1f77b4;"/>
   </g>
   <g id="patch_51">
    <path clip-path="url(#pf6ebf898ef)" d="M 135.289046 137.71551 
L 136.488118 137.71551 
L 136.488118 135.520647 
L 135.289046 135.520647 
z
" style="fill:#1f77b4;"/>
   </g>
   <g id="patch_52">
    <path clip-path="url(#pf6ebf898ef)" d="M 136.787885 137.71551 
L 137.986956 137.71551 
L 137.986956 135.168042 
L 136.787885 135.168042 
z
" style="fill:#1f77b4;"/>
   </g>
   <g id="patch_53">
    <path clip-path="url(#pf6ebf898ef)" d="M 138.286724 137.71551 
L 139.485795 137.71551 
L 139.485795 134.637155 
L 138.286724 134.637155 
z
" style="fill:#1f77b4;"/>
   </g>
   <g id="patch_54">
    <path clip-path="url(#pf6ebf898ef)" d="M 139.785563 137.71551 
L 140.984634 137.71551 
L 140.984634 133.924022 
L 139.785563 133.924022 
z
" style="fill:#1f77b4;"/>
   </g>
   <g id="patch_55">
    <path clip-path="url(#pf6ebf898ef)" d="M 141.284402 137.71551 
L 142.483473 137.71551 
L 142.483473 133.579341 
L 141.284402 133.579341 
z
" style="fill:#1f77b4;"/>
   </g>
   <g id="patch_56">
    <path clip-path="url(#pf6ebf898ef)" d="M 142.783241 137.71551 
L 143.982312 137.71551 
L 143.982312 132.858285 
L 142.783241 132.858285 
z
" style="fill:#1f77b4;"/>
   </g>
   <g id="patch_57">
    <path clip-path="url(#pf6ebf898ef)" d="M 144.28208 137.71551 
L 145.481151 137.71551 
L 145.481151 132.279855 
L 144.28208 132.279855 
z
" style="fill:#1f77b4;"/>
   </g>
   <g id="patch_58">
    <path clip-path="url(#pf6ebf898ef)" d="M 145.780919 137.71551 
L 146.97999 137.71551 
L 146.97999 132.006488 
L 145.780919 132.006488 
z
" style="fill:#1f77b4;"/>
   </g>
   <g id="patch_59">
    <path clip-path="url(#pf6ebf898ef)" d="M 147.279757 137.71551 
L 148.478829 137.71551 
L 148.478829 131.622189 
L 147.279757 131.622189 
z
" style="fill:#1f77b4;"/>
   </g>
   <g id="patch_60">
    <path clip-path="url(#pf6ebf898ef)" d="M 148.778596 137.71551 
L 149.977667 137.71551 
L 149.977667 131.352783 
L 148.778596 131.352783 
z
" style="fill:#1f77b4;"/>
   </g>
   <g id="patch_61">
    <path clip-path="url(#pf6ebf898ef)" d="M 150.277435 137.71551 
L 151.476506 137.71551 
L 151.476506 130.968484 
L 150.277435 130.968484 
z
" style="fill:#1f77b4;"/>
   </g>
   <g id="patch_62">
    <path clip-path="url(#pf6ebf898ef)" d="M 151.776274 137.71551 
L 152.975345 137.71551 
L 152.975345 130.318741 
L 151.776274 130.318741 
z
" style="fill:#1f77b4;"/>
   </g>
   <g id="patch_63">
    <path clip-path="url(#pf6ebf898ef)" d="M 153.275113 137.71551 
L 154.474184 137.71551 
L 154.474184 129.661074 
L 153.275113 129.661074 
z
" style="fill:#1f77b4;"/>
   </g>
   <g id="patch_64">
    <path clip-path="url(#pf6ebf898ef)" d="M 154.773952 137.71551 
L 155.973023 137.71551 
L 155.973023 129.110377 
L 154.773952 129.110377 
z
" style="fill:#1f77b4;"/>
   </g>
   <g id="patch_65">
    <path clip-path="url(#pf6ebf898ef)" d="M 156.272791 137.71551 
L 157.471862 137.71551 
L 157.471862 128.769658 
L 156.272791 128.769658 
z
" style="fill:#1f77b4;"/>
   </g>
   <g id="patch_66">
    <path clip-path="url(#pf6ebf898ef)" d="M 157.77163 137.71551 
L 158.970701 137.71551 
L 158.970701 128.432901 
L 157.77163 128.432901 
z
" style="fill:#1f77b4;"/>
   </g>
   <g id="patch_67">
    <path clip-path="url(#pf6ebf898ef)" d="M 159.270468 137.71551 
L 160.469539 137.71551 
L 160.469539 127.493944 
L 159.270468 127.493944 
z
" style="fill:#1f77b4;"/>
   </g>
   <g id="patch_68">
    <path clip-path="url(#pf6ebf898ef)" d="M 160.769307 137.71551 
L 161.968378 137.71551 
L 161.968378 126.776849 
L 160.769307 126.776849 
z
" style="fill:#1f77b4;"/>
   </g>
   <g id="patch_69">
    <path clip-path="url(#pf6ebf898ef)" d="M 162.268146 137.71551 
L 163.467217 137.71551 
L 163.467217 125.940899 
L 162.268146 125.940899 
z
" style="fill:#1f77b4;"/>
   </g>
   <g id="patch_70">
    <path clip-path="url(#pf6ebf898ef)" d="M 163.766985 137.71551 
L 164.966056 137.71551 
L 164.966056 124.990056 
L 163.766985 124.990056 
z
" style="fill:#1f77b4;"/>
   </g>
   <g id="patch_71">
    <path clip-path="url(#pf6ebf898ef)" d="M 165.265824 137.71551 
L 166.464895 137.71551 
L 166.464895 123.480592 
L 165.265824 123.480592 
z
" style="fill:#1f77b4;"/>
   </g>
   <g id="patch_72">
    <path clip-path="url(#pf6ebf898ef)" d="M 166.764663 137.71551 
L 167.963734 137.71551 
L 167.963734 122.5971 
L 166.764663 122.5971 
z
" style="fill:#1f77b4;"/>
   </g>
   <g id="patch_73">
    <path clip-path="url(#pf6ebf898ef)" d="M 168.263502 137.71551 
L 169.462573 137.71551 
L 169.462573 121.745303 
L 168.263502 121.745303 
z
" style="fill:#1f77b4;"/>
   </g>
   <g id="patch_74">
    <path clip-path="url(#pf6ebf898ef)" d="M 169.76234 137.71551 
L 170.961412 137.71551 
L 170.961412 120.616176 
L 169.76234 120.616176 
z
" style="fill:#1f77b4;"/>
   </g>
   <g id="patch_75">
    <path clip-path="url(#pf6ebf898ef)" d="M 171.261179 137.71551 
L 172.46025 137.71551 
L 172.46025 120.136793 
L 171.261179 120.136793 
z
" style="fill:#1f77b4;"/>
   </g>
   <g id="patch_76">
    <path clip-path="url(#pf6ebf898ef)" d="M 172.760018 137.71551 
L 173.959089 137.71551 
L 173.959089 118.239068 
L 172.760018 118.239068 
z
" style="fill:#1f77b4;"/>
   </g>
   <g id="patch_77">
    <path clip-path="url(#pf6ebf898ef)" d="M 174.258857 137.71551 
L 175.457928 137.71551 
L 175.457928 116.709795 
L 174.258857 116.709795 
z
" style="fill:#1f77b4;"/>
   </g>
   <g id="patch_78">
    <path clip-path="url(#pf6ebf898ef)" d="M 175.757696 137.71551 
L 176.956767 137.71551 
L 176.956767 115.410309 
L 175.757696 115.410309 
z
" style="fill:#1f77b4;"/>
   </g>
   <g id="patch_79">
    <path clip-path="url(#pf6ebf898ef)" d="M 177.256535 137.71551 
L 178.455606 137.71551 
L 178.455606 113.09659 
L 177.256535 113.09659 
z
" style="fill:#1f77b4;"/>
   </g>
   <g id="patch_80">
    <path clip-path="url(#pf6ebf898ef)" d="M 178.755374 137.71551 
L 179.954445 137.71551 
L 179.954445 111.242445 
L 178.755374 111.242445 
z
" style="fill:#1f77b4;"/>
   </g>
   <g id="patch_81">
    <path clip-path="url(#pf6ebf898ef)" d="M 180.254213 137.71551 
L 181.453284 137.71551 
L 181.453284 109.752791 
L 180.254213 109.752791 
z
" style="fill:#1f77b4;"/>
   </g>
   <g id="patch_82">
    <path clip-path="url(#pf6ebf898ef)" d="M 181.753051 137.71551 
L 182.952123 137.71551 
L 182.952123 107.684706 
L 181.753051 107.684706 
z
" style="fill:#1f77b4;"/>
   </g>
   <g id="patch_83">
    <path clip-path="url(#pf6ebf898ef)" d="M 183.25189 137.71551 
L 184.450961 137.71551 
L 184.450961 105.802829 
L 183.25189 105.802829 
z
" style="fill:#1f77b4;"/>
   </g>
   <g id="patch_84">
    <path clip-path="url(#pf6ebf898ef)" d="M 184.750729 137.71551 
L 185.9498 137.71551 
L 185.9498 103.572309 
L 184.750729 103.572309 
z
" style="fill:#1f77b4;"/>
   </g>
   <g id="patch_85">
    <path clip-path="url(#pf6ebf898ef)" d="M 186.249568 137.71551 
L 187.448639 137.71551 
L 187.448639 101.175391 
L 186.249568 101.175391 
z
" style="fill:#1f77b4;"/>
   </g>
   <g id="patch_86">
    <path clip-path="url(#pf6ebf898ef)" d="M 187.748407 137.71551 
L 188.947478 137.71551 
L 188.947478 96.956024 
L 187.748407 96.956024 
z
" style="fill:#1f77b4;"/>
   </g>
   <g id="patch_87">
    <path clip-path="url(#pf6ebf898ef)" d="M 189.247246 137.71551 
L 190.446317 137.71551 
L 190.446317 94.780969 
L 189.247246 94.780969 
z
" style="fill:#1f77b4;"/>
   </g>
   <g id="patch_88">
    <path clip-path="url(#pf6ebf898ef)" d="M 190.746085 137.71551 
L 191.945156 137.71551 
L 191.945156 91.920515 
L 190.746085 91.920515 
z
" style="fill:#1f77b4;"/>
   </g>
   <g id="patch_89">
    <path clip-path="url(#pf6ebf898ef)" d="M 192.244924 137.71551 
L 193.443995 137.71551 
L 193.443995 88.560869 
L 192.244924 88.560869 
z
" style="fill:#1f77b4;"/>
   </g>
   <g id="patch_90">
    <path clip-path="url(#pf6ebf898ef)" d="M 193.743762 137.71551 
L 194.942834 137.71551 
L 194.942834 85.827194 
L 193.743762 85.827194 
z
" style="fill:#1f77b4;"/>
   </g>
   <g id="patch_91">
    <path clip-path="url(#pf6ebf898ef)" d="M 195.242601 137.71551 
L 196.441672 137.71551 
L 196.441672 82.499242 
L 195.242601 82.499242 
z
" style="fill:#1f77b4;"/>
   </g>
   <g id="patch_92">
    <path clip-path="url(#pf6ebf898ef)" d="M 196.74144 137.71551 
L 197.940511 137.71551 
L 197.940511 79.008855 
L 196.74144 79.008855 
z
" style="fill:#1f77b4;"/>
   </g>
   <g id="patch_93">
    <path clip-path="url(#pf6ebf898ef)" d="M 198.240279 137.71551 
L 199.43935 137.71551 
L 199.43935 75.490734 
L 198.240279 75.490734 
z
" style="fill:#1f77b4;"/>
   </g>
   <g id="patch_94">
    <path clip-path="url(#pf6ebf898ef)" d="M 199.739118 137.71551 
L 200.938189 137.71551 
L 200.938189 75.490734 
L 199.739118 75.490734 
z
" style="fill:#1f77b4;"/>
   </g>
   <g id="patch_95">
    <path clip-path="url(#pf6ebf898ef)" d="M 201.237957 137.71551 
L 202.437028 137.71551 
L 202.437028 69.599467 
L 201.237957 69.599467 
z
" style="fill:#1f77b4;"/>
   </g>
   <g id="patch_96">
    <path clip-path="url(#pf6ebf898ef)" d="M 202.736796 137.71551 
L 203.935867 137.71551 
L 203.935867 65.704971 
L 202.736796 65.704971 
z
" style="fill:#1f77b4;"/>
   </g>
   <g id="patch_97">
    <path clip-path="url(#pf6ebf898ef)" d="M 204.235635 137.71551 
L 205.434706 137.71551 
L 205.434706 61.648039 
L 204.235635 61.648039 
z
" style="fill:#1f77b4;"/>
   </g>
   <g id="patch_98">
    <path clip-path="url(#pf6ebf898ef)" d="M 205.734473 137.71551 
L 206.933544 137.71551 
L 206.933544 58.355744 
L 205.734473 58.355744 
z
" style="fill:#1f77b4;"/>
   </g>
   <g id="patch_99">
    <path clip-path="url(#pf6ebf898ef)" d="M 207.233312 137.71551 
L 208.432383 137.71551 
L 208.432383 54.964403 
L 207.233312 54.964403 
z
" style="fill:#1f77b4;"/>
   </g>
   <g id="patch_100">
    <path clip-path="url(#pf6ebf898ef)" d="M 208.732151 137.71551 
L 209.931222 137.71551 
L 209.931222 49.766459 
L 208.732151 49.766459 
z
" style="fill:#1f77b4;"/>
   </g>
   <g id="patch_101">
    <path clip-path="url(#pf6ebf898ef)" d="M 210.23099 137.71551 
L 211.430061 137.71551 
L 211.430061 46.743569 
L 210.23099 46.743569 
z
" style="fill:#1f77b4;"/>
   </g>
   <g id="patch_102">
    <path clip-path="url(#pf6ebf898ef)" d="M 211.729829 137.71551 
L 212.9289 137.71551 
L 212.9289 44.089131 
L 211.729829 44.089131 
z
" style="fill:#1f77b4;"/>
   </g>
   <g id="patch_103">
    <path clip-path="url(#pf6ebf898ef)" d="M 213.228668 137.71551 
L 214.427739 137.71551 
L 214.427739 39.19625 
L 213.228668 39.19625 
z
" style="fill:#1f77b4;"/>
   </g>
   <g id="patch_104">
    <path clip-path="url(#pf6ebf898ef)" d="M 214.727507 137.71551 
L 215.926578 137.71551 
L 215.926578 36.161475 
L 214.727507 36.161475 
z
" style="fill:#1f77b4;"/>
   </g>
   <g id="patch_105">
    <path clip-path="url(#pf6ebf898ef)" d="M 216.226345 137.71551 
L 217.425417 137.71551 
L 217.425417 31.118043 
L 216.226345 31.118043 
z
" style="fill:#1f77b4;"/>
   </g>
   <g id="patch_106">
    <path clip-path="url(#pf6ebf898ef)" d="M 217.725184 137.71551 
L 218.924255 137.71551 
L 218.924255 27.98026 
L 217.725184 27.98026 
z
" style="fill:#1f77b4;"/>
   </g>
   <g id="patch_107">
    <path clip-path="url(#pf6ebf898ef)" d="M 219.224023 137.71551 
L 220.423094 137.71551 
L 220.423094 24.180848 
L 219.224023 24.180848 
z
" style="fill:#1f77b4;"/>
   </g>
   <g id="matplotlib.axis_1">
    <g id="xtick_1">
     <g id="line2d_1">
      <defs>
       <path d="M 0 0 
L 0 3.5 
" id="maba08ee3bf" style="stroke:#000000;stroke-width:0.8;"/>
      </defs>
      <g>
       <use style="stroke:#000000;stroke-width:0.8;" x="63.944316" xlink:href="#maba08ee3bf" y="137.71551"/>
      </g>
     </g>
     <g id="text_1">
      <!-- 0 -->
      <defs>
       <path d="M 31.78125 66.40625 
Q 24.171875 66.40625 20.328125 58.90625 
Q 16.5 51.421875 16.5 36.375 
Q 16.5 21.390625 20.328125 13.890625 
Q 24.171875 6.390625 31.78125 6.390625 
Q 39.453125 6.390625 43.28125 13.890625 
Q 47.125 21.390625 47.125 36.375 
Q 47.125 51.421875 43.28125 58.90625 
Q 39.453125 66.40625 31.78125 66.40625 
z
M 31.78125 74.21875 
Q 44.046875 74.21875 50.515625 64.515625 
Q 56.984375 54.828125 56.984375 36.375 
Q 56.984375 17.96875 50.515625 8.265625 
Q 44.046875 -1.421875 31.78125 -1.421875 
Q 19.53125 -1.421875 13.0625 8.265625 
Q 6.59375 17.96875 6.59375 36.375 
Q 6.59375 54.828125 13.0625 64.515625 
Q 19.53125 74.21875 31.78125 74.21875 
z
" id="DejaVuSans-48"/>
      </defs>
      <g transform="translate(60.763066 152.313947)scale(0.1 -0.1)">
       <use xlink:href="#DejaVuSans-48"/>
      </g>
     </g>
    </g>
    <g id="xtick_2">
     <g id="line2d_2">
      <g>
       <use style="stroke:#000000;stroke-width:0.8;" x="101.415288" xlink:href="#maba08ee3bf" y="137.71551"/>
      </g>
     </g>
     <g id="text_2">
      <!-- 25 -->
      <defs>
       <path d="M 19.1875 8.296875 
L 53.609375 8.296875 
L 53.609375 0 
L 7.328125 0 
L 7.328125 8.296875 
Q 12.9375 14.109375 22.625 23.890625 
Q 32.328125 33.6875 34.8125 36.53125 
Q 39.546875 41.84375 41.421875 45.53125 
Q 43.3125 49.21875 43.3125 52.78125 
Q 43.3125 58.59375 39.234375 62.25 
Q 35.15625 65.921875 28.609375 65.921875 
Q 23.96875 65.921875 18.8125 64.3125 
Q 13.671875 62.703125 7.8125 59.421875 
L 7.8125 69.390625 
Q 13.765625 71.78125 18.9375 73 
Q 24.125 74.21875 28.421875 74.21875 
Q 39.75 74.21875 46.484375 68.546875 
Q 53.21875 62.890625 53.21875 53.421875 
Q 53.21875 48.921875 51.53125 44.890625 
Q 49.859375 40.875 45.40625 35.40625 
Q 44.1875 33.984375 37.640625 27.21875 
Q 31.109375 20.453125 19.1875 8.296875 
z
" id="DejaVuSans-50"/>
       <path d="M 10.796875 72.90625 
L 49.515625 72.90625 
L 49.515625 64.59375 
L 19.828125 64.59375 
L 19.828125 46.734375 
Q 21.96875 47.46875 24.109375 47.828125 
Q 26.265625 48.1875 28.421875 48.1875 
Q 40.625 48.1875 47.75 41.5 
Q 54.890625 34.8125 54.890625 23.390625 
Q 54.890625 11.625 47.5625 5.09375 
Q 40.234375 -1.421875 26.90625 -1.421875 
Q 22.3125 -1.421875 17.546875 -0.640625 
Q 12.796875 0.140625 7.71875 1.703125 
L 7.71875 11.625 
Q 12.109375 9.234375 16.796875 8.0625 
Q 21.484375 6.890625 26.703125 6.890625 
Q 35.15625 6.890625 40.078125 11.328125 
Q 45.015625 15.765625 45.015625 23.390625 
Q 45.015625 31 40.078125 35.4375 
Q 35.15625 39.890625 26.703125 39.890625 
Q 22.75 39.890625 18.8125 39.015625 
Q 14.890625 38.140625 10.796875 36.28125 
z
" id="DejaVuSans-53"/>
      </defs>
      <g transform="translate(95.052788 152.313947)scale(0.1 -0.1)">
       <use xlink:href="#DejaVuSans-50"/>
       <use x="63.623047" xlink:href="#DejaVuSans-53"/>
      </g>
     </g>
    </g>
    <g id="xtick_3">
     <g id="line2d_3">
      <g>
       <use style="stroke:#000000;stroke-width:0.8;" x="138.88626" xlink:href="#maba08ee3bf" y="137.71551"/>
      </g>
     </g>
     <g id="text_3">
      <!-- 50 -->
      <g transform="translate(132.52376 152.313947)scale(0.1 -0.1)">
       <use xlink:href="#DejaVuSans-53"/>
       <use x="63.623047" xlink:href="#DejaVuSans-48"/>
      </g>
     </g>
    </g>
    <g id="xtick_4">
     <g id="line2d_4">
      <g>
       <use style="stroke:#000000;stroke-width:0.8;" x="176.357232" xlink:href="#maba08ee3bf" y="137.71551"/>
      </g>
     </g>
     <g id="text_4">
      <!-- 75 -->
      <defs>
       <path d="M 8.203125 72.90625 
L 55.078125 72.90625 
L 55.078125 68.703125 
L 28.609375 0 
L 18.3125 0 
L 43.21875 64.59375 
L 8.203125 64.59375 
z
" id="DejaVuSans-55"/>
      </defs>
      <g transform="translate(169.994732 152.313947)scale(0.1 -0.1)">
       <use xlink:href="#DejaVuSans-55"/>
       <use x="63.623047" xlink:href="#DejaVuSans-53"/>
      </g>
     </g>
    </g>
    <g id="xtick_5">
     <g id="line2d_5">
      <g>
       <use style="stroke:#000000;stroke-width:0.8;" x="213.828203" xlink:href="#maba08ee3bf" y="137.71551"/>
      </g>
     </g>
     <g id="text_5">
      <!-- 100 -->
      <defs>
       <path d="M 12.40625 8.296875 
L 28.515625 8.296875 
L 28.515625 63.921875 
L 10.984375 60.40625 
L 10.984375 69.390625 
L 28.421875 72.90625 
L 38.28125 72.90625 
L 38.28125 8.296875 
L 54.390625 8.296875 
L 54.390625 0 
L 12.40625 0 
z
" id="DejaVuSans-49"/>
      </defs>
      <g transform="translate(204.284453 152.313947)scale(0.1 -0.1)">
       <use xlink:href="#DejaVuSans-49"/>
       <use x="63.623047" xlink:href="#DejaVuSans-48"/>
       <use x="127.246094" xlink:href="#DejaVuSans-48"/>
      </g>
     </g>
    </g>
    <g id="text_6">
     <!-- Dias -->
     <defs>
      <path d="M 19.671875 64.796875 
L 19.671875 8.109375 
L 31.59375 8.109375 
Q 46.6875 8.109375 53.6875 14.9375 
Q 60.6875 21.78125 60.6875 36.53125 
Q 60.6875 51.171875 53.6875 57.984375 
Q 46.6875 64.796875 31.59375 64.796875 
z
M 9.8125 72.90625 
L 30.078125 72.90625 
Q 51.265625 72.90625 61.171875 64.09375 
Q 71.09375 55.28125 71.09375 36.53125 
Q 71.09375 17.671875 61.125 8.828125 
Q 51.171875 0 30.078125 0 
L 9.8125 0 
z
" id="DejaVuSans-68"/>
      <path d="M 9.421875 54.6875 
L 18.40625 54.6875 
L 18.40625 0 
L 9.421875 0 
z
M 9.421875 75.984375 
L 18.40625 75.984375 
L 18.40625 64.59375 
L 9.421875 64.59375 
z
" id="DejaVuSans-105"/>
      <path d="M 34.28125 27.484375 
Q 23.390625 27.484375 19.1875 25 
Q 14.984375 22.515625 14.984375 16.5 
Q 14.984375 11.71875 18.140625 8.90625 
Q 21.296875 6.109375 26.703125 6.109375 
Q 34.1875 6.109375 38.703125 11.40625 
Q 43.21875 16.703125 43.21875 25.484375 
L 43.21875 27.484375 
z
M 52.203125 31.203125 
L 52.203125 0 
L 43.21875 0 
L 43.21875 8.296875 
Q 40.140625 3.328125 35.546875 0.953125 
Q 30.953125 -1.421875 24.3125 -1.421875 
Q 15.921875 -1.421875 10.953125 3.296875 
Q 6 8.015625 6 15.921875 
Q 6 25.140625 12.171875 29.828125 
Q 18.359375 34.515625 30.609375 34.515625 
L 43.21875 34.515625 
L 43.21875 35.40625 
Q 43.21875 41.609375 39.140625 45 
Q 35.0625 48.390625 27.6875 48.390625 
Q 23 48.390625 18.546875 47.265625 
Q 14.109375 46.140625 10.015625 43.890625 
L 10.015625 52.203125 
Q 14.9375 54.109375 19.578125 55.046875 
Q 24.21875 56 28.609375 56 
Q 40.484375 56 46.34375 49.84375 
Q 52.203125 43.703125 52.203125 31.203125 
z
" id="DejaVuSans-97"/>
      <path d="M 44.28125 53.078125 
L 44.28125 44.578125 
Q 40.484375 46.53125 36.375 47.5 
Q 32.28125 48.484375 27.875 48.484375 
Q 21.1875 48.484375 17.84375 46.4375 
Q 14.5 44.390625 14.5 40.28125 
Q 14.5 37.15625 16.890625 35.375 
Q 19.28125 33.59375 26.515625 31.984375 
L 29.59375 31.296875 
Q 39.15625 29.25 43.1875 25.515625 
Q 47.21875 21.78125 47.21875 15.09375 
Q 47.21875 7.46875 41.1875 3.015625 
Q 35.15625 -1.421875 24.609375 -1.421875 
Q 20.21875 -1.421875 15.453125 -0.5625 
Q 10.6875 0.296875 5.421875 2 
L 5.421875 11.28125 
Q 10.40625 8.6875 15.234375 7.390625 
Q 20.0625 6.109375 24.8125 6.109375 
Q 31.15625 6.109375 34.5625 8.28125 
Q 37.984375 10.453125 37.984375 14.40625 
Q 37.984375 18.0625 35.515625 20.015625 
Q 33.0625 21.96875 24.703125 23.78125 
L 21.578125 24.515625 
Q 13.234375 26.265625 9.515625 29.90625 
Q 5.8125 33.546875 5.8125 39.890625 
Q 5.8125 47.609375 11.28125 51.796875 
Q 16.75 56 26.8125 56 
Q 31.78125 56 36.171875 55.265625 
Q 40.578125 54.546875 44.28125 53.078125 
z
" id="DejaVuSans-115"/>
     </defs>
     <g transform="translate(130.976125 165.992072)scale(0.1 -0.1)">
      <use xlink:href="#DejaVuSans-68"/>
      <use x="77.001953" xlink:href="#DejaVuSans-105"/>
      <use x="104.785156" xlink:href="#DejaVuSans-97"/>
      <use x="166.064453" xlink:href="#DejaVuSans-115"/>
     </g>
    </g>
   </g>
   <g id="matplotlib.axis_2">
    <g id="ytick_1">
     <g id="line2d_6">
      <defs>
       <path d="M 0 0 
L -3.5 0 
" id="med07b89ec7" style="stroke:#000000;stroke-width:0.8;"/>
      </defs>
      <g>
       <use style="stroke:#000000;stroke-width:0.8;" x="55.490865" xlink:href="#med07b89ec7" y="137.71551"/>
      </g>
     </g>
     <g id="text_7">
      <!-- 0 -->
      <g transform="translate(42.128365 141.514729)scale(0.1 -0.1)">
       <use xlink:href="#DejaVuSans-48"/>
      </g>
     </g>
    </g>
    <g id="ytick_2">
     <g id="line2d_7">
      <g>
       <use style="stroke:#000000;stroke-width:0.8;" x="55.490865" xlink:href="#med07b89ec7" y="98.097036"/>
      </g>
     </g>
     <g id="text_8">
      <!-- 10000 -->
      <g transform="translate(16.678365 101.896254)scale(0.1 -0.1)">
       <use xlink:href="#DejaVuSans-49"/>
       <use x="63.623047" xlink:href="#DejaVuSans-48"/>
       <use x="127.246094" xlink:href="#DejaVuSans-48"/>
       <use x="190.869141" xlink:href="#DejaVuSans-48"/>
       <use x="254.492188" xlink:href="#DejaVuSans-48"/>
      </g>
     </g>
    </g>
    <g id="ytick_3">
     <g id="line2d_8">
      <g>
       <use style="stroke:#000000;stroke-width:0.8;" x="55.490865" xlink:href="#med07b89ec7" y="58.478561"/>
      </g>
     </g>
     <g id="text_9">
      <!-- 20000 -->
      <g transform="translate(16.678365 62.27778)scale(0.1 -0.1)">
       <use xlink:href="#DejaVuSans-50"/>
       <use x="63.623047" xlink:href="#DejaVuSans-48"/>
       <use x="127.246094" xlink:href="#DejaVuSans-48"/>
       <use x="190.869141" xlink:href="#DejaVuSans-48"/>
       <use x="254.492188" xlink:href="#DejaVuSans-48"/>
      </g>
     </g>
    </g>
    <g id="ytick_4">
     <g id="line2d_9">
      <g>
       <use style="stroke:#000000;stroke-width:0.8;" x="55.490865" xlink:href="#med07b89ec7" y="18.860087"/>
      </g>
     </g>
     <g id="text_10">
      <!-- 30000 -->
      <defs>
       <path d="M 40.578125 39.3125 
Q 47.65625 37.796875 51.625 33 
Q 55.609375 28.21875 55.609375 21.1875 
Q 55.609375 10.40625 48.1875 4.484375 
Q 40.765625 -1.421875 27.09375 -1.421875 
Q 22.515625 -1.421875 17.65625 -0.515625 
Q 12.796875 0.390625 7.625 2.203125 
L 7.625 11.71875 
Q 11.71875 9.328125 16.59375 8.109375 
Q 21.484375 6.890625 26.8125 6.890625 
Q 36.078125 6.890625 40.9375 10.546875 
Q 45.796875 14.203125 45.796875 21.1875 
Q 45.796875 27.640625 41.28125 31.265625 
Q 36.765625 34.90625 28.71875 34.90625 
L 20.21875 34.90625 
L 20.21875 43.015625 
L 29.109375 43.015625 
Q 36.375 43.015625 40.234375 45.921875 
Q 44.09375 48.828125 44.09375 54.296875 
Q 44.09375 59.90625 40.109375 62.90625 
Q 36.140625 65.921875 28.71875 65.921875 
Q 24.65625 65.921875 20.015625 65.03125 
Q 15.375 64.15625 9.8125 62.3125 
L 9.8125 71.09375 
Q 15.4375 72.65625 20.34375 73.4375 
Q 25.25 74.21875 29.59375 74.21875 
Q 40.828125 74.21875 47.359375 69.109375 
Q 53.90625 64.015625 53.90625 55.328125 
Q 53.90625 49.265625 50.4375 45.09375 
Q 46.96875 40.921875 40.578125 39.3125 
z
" id="DejaVuSans-51"/>
      </defs>
      <g transform="translate(16.678365 22.659306)scale(0.1 -0.1)">
       <use xlink:href="#DejaVuSans-51"/>
       <use x="63.623047" xlink:href="#DejaVuSans-48"/>
       <use x="127.246094" xlink:href="#DejaVuSans-48"/>
       <use x="190.869141" xlink:href="#DejaVuSans-48"/>
       <use x="254.492188" xlink:href="#DejaVuSans-48"/>
      </g>
     </g>
    </g>
    <g id="text_11">
     <!-- Casos -->
     <defs>
      <path d="M 64.40625 67.28125 
L 64.40625 56.890625 
Q 59.421875 61.53125 53.78125 63.8125 
Q 48.140625 66.109375 41.796875 66.109375 
Q 29.296875 66.109375 22.65625 58.46875 
Q 16.015625 50.828125 16.015625 36.375 
Q 16.015625 21.96875 22.65625 14.328125 
Q 29.296875 6.6875 41.796875 6.6875 
Q 48.140625 6.6875 53.78125 8.984375 
Q 59.421875 11.28125 64.40625 15.921875 
L 64.40625 5.609375 
Q 59.234375 2.09375 53.4375 0.328125 
Q 47.65625 -1.421875 41.21875 -1.421875 
Q 24.65625 -1.421875 15.125 8.703125 
Q 5.609375 18.84375 5.609375 36.375 
Q 5.609375 53.953125 15.125 64.078125 
Q 24.65625 74.21875 41.21875 74.21875 
Q 47.75 74.21875 53.53125 72.484375 
Q 59.328125 70.75 64.40625 67.28125 
z
" id="DejaVuSans-67"/>
      <path d="M 30.609375 48.390625 
Q 23.390625 48.390625 19.1875 42.75 
Q 14.984375 37.109375 14.984375 27.296875 
Q 14.984375 17.484375 19.15625 11.84375 
Q 23.34375 6.203125 30.609375 6.203125 
Q 37.796875 6.203125 41.984375 11.859375 
Q 46.1875 17.53125 46.1875 27.296875 
Q 46.1875 37.015625 41.984375 42.703125 
Q 37.796875 48.390625 30.609375 48.390625 
z
M 30.609375 56 
Q 42.328125 56 49.015625 48.375 
Q 55.71875 40.765625 55.71875 27.296875 
Q 55.71875 13.875 49.015625 6.21875 
Q 42.328125 -1.421875 30.609375 -1.421875 
Q 18.84375 -1.421875 12.171875 6.21875 
Q 5.515625 13.875 5.515625 27.296875 
Q 5.515625 40.765625 12.171875 48.375 
Q 18.84375 56 30.609375 56 
z
" id="DejaVuSans-111"/>
     </defs>
     <g transform="translate(10.598678 92.741156)rotate(-90)scale(0.1 -0.1)">
      <use xlink:href="#DejaVuSans-67"/>
      <use x="69.824219" xlink:href="#DejaVuSans-97"/>
      <use x="131.103516" xlink:href="#DejaVuSans-115"/>
      <use x="183.203125" xlink:href="#DejaVuSans-111"/>
      <use x="244.384766" xlink:href="#DejaVuSans-115"/>
     </g>
    </g>
   </g>
   <g id="line2d_10">
    <path clip-path="url(#pf6ebf898ef)" d="M 63.944316 137.7125 
L 65.443155 137.71219 
L 66.941994 137.711753 
L 68.440833 137.711167 
L 69.939672 137.710372 
L 71.438511 137.709306 
L 72.937349 137.707915 
L 74.436188 137.706152 
L 75.935027 137.703986 
L 77.433866 137.701395 
L 78.932705 137.698385 
L 80.431544 137.695001 
L 81.930383 137.691297 
L 83.429222 137.68732 
L 84.92806 137.683111 
L 86.426899 137.67871 
L 87.925738 137.674156 
L 89.424577 137.669468 
L 90.923416 137.66462 
L 92.422255 137.659559 
L 93.921094 137.654226 
L 95.419933 137.64854 
L 96.918771 137.642401 
L 98.41761 137.63571 
L 99.916449 137.628338 
L 101.415288 137.620157 
L 102.914127 137.611025 
L 104.412966 137.600763 
L 105.911805 137.589143 
L 107.410643 137.575816 
L 108.909482 137.560272 
L 110.408321 137.54192 
L 111.90716 137.520041 
L 113.405999 137.493706 
L 114.904838 137.461709 
L 116.403677 137.422545 
L 117.902516 137.374522 
L 119.401354 137.315702 
L 120.900193 137.243715 
L 122.399032 137.155622 
L 123.897871 137.048232 
L 125.39671 136.918227 
L 126.895549 136.762305 
L 128.394388 136.577141 
L 129.893227 136.3597 
L 131.392065 136.107769 
L 132.890904 135.820716 
L 134.389743 135.499037 
L 135.888582 135.14453 
L 137.387421 134.760295 
L 138.88626 134.350704 
L 140.385099 133.921091 
L 141.883938 133.476713 
L 143.382776 133.0215 
L 144.881615 132.558459 
L 146.380454 132.089121 
L 147.879293 131.61293 
L 149.378132 131.127065 
L 150.876971 130.626252 
L 152.37581 130.104006 
L 153.874648 129.553799 
L 155.373487 128.96848 
L 156.872326 128.340632 
L 158.371165 127.663988 
L 159.870004 126.933455 
L 161.368843 126.145416 
L 162.867682 125.296866 
L 164.366521 124.383907 
L 165.865359 123.402971 
L 167.364198 122.35086 
L 168.863037 121.222818 
L 170.361876 120.01287 
L 171.860715 118.714283 
L 173.359554 117.319484 
L 174.858393 115.82194 
L 176.357232 114.214541 
L 177.85607 112.489411 
L 179.354909 110.639492 
L 180.853748 108.659653 
L 182.352587 106.546957 
L 183.851426 104.300744 
L 185.350265 101.921938 
L 186.849104 99.414017 
L 188.347942 96.783772 
L 189.846781 94.041246 
L 191.34562 91.196382 
L 192.844459 88.255057 
L 194.343298 85.222658 
L 195.842137 82.103379 
L 197.340976 78.901231 
L 198.839815 75.61819 
L 200.338653 72.253266 
L 201.837492 68.80686 
L 203.336331 65.286545 
L 204.83517 61.699608 
L 206.334009 58.054621 
L 207.832848 54.358611 
L 209.331687 50.619551 
L 210.830526 46.847074 
L 212.329364 43.049283 
L 213.828203 39.229037 
L 215.327042 35.390012 
L 216.825881 31.539969 
L 218.32472 27.680534 
L 219.823559 23.813467 
" style="fill:none;stroke:#ff0000;stroke-linecap:square;stroke-width:1.5;"/>
   </g>
   <g id="patch_108">
    <path d="M 55.490865 137.71551 
L 55.490865 18.118365 
" style="fill:none;stroke:#000000;stroke-linecap:square;stroke-linejoin:miter;stroke-width:0.8;"/>
   </g>
   <g id="patch_109">
    <path d="M 228.27701 137.71551 
L 228.27701 18.118365 
" style="fill:none;stroke:#000000;stroke-linecap:square;stroke-linejoin:miter;stroke-width:0.8;"/>
   </g>
   <g id="patch_110">
    <path d="M 55.490865 137.71551 
L 228.27701 137.71551 
" style="fill:none;stroke:#000000;stroke-linecap:square;stroke-linejoin:miter;stroke-width:0.8;"/>
   </g>
   <g id="patch_111">
    <path d="M 55.490865 18.118365 
L 228.27701 18.118365 
" style="fill:none;stroke:#000000;stroke-linecap:square;stroke-linejoin:miter;stroke-width:0.8;"/>
   </g>
   <g id="text_12">
    <!-- Casos acumulados - AL -->
    <defs>
     <path id="DejaVuSans-32"/>
     <path d="M 48.78125 52.59375 
L 48.78125 44.1875 
Q 44.96875 46.296875 41.140625 47.34375 
Q 37.3125 48.390625 33.40625 48.390625 
Q 24.65625 48.390625 19.8125 42.84375 
Q 14.984375 37.3125 14.984375 27.296875 
Q 14.984375 17.28125 19.8125 11.734375 
Q 24.65625 6.203125 33.40625 6.203125 
Q 37.3125 6.203125 41.140625 7.25 
Q 44.96875 8.296875 48.78125 10.40625 
L 48.78125 2.09375 
Q 45.015625 0.34375 40.984375 -0.53125 
Q 36.96875 -1.421875 32.421875 -1.421875 
Q 20.0625 -1.421875 12.78125 6.34375 
Q 5.515625 14.109375 5.515625 27.296875 
Q 5.515625 40.671875 12.859375 48.328125 
Q 20.21875 56 33.015625 56 
Q 37.15625 56 41.109375 55.140625 
Q 45.0625 54.296875 48.78125 52.59375 
z
" id="DejaVuSans-99"/>
     <path d="M 8.5 21.578125 
L 8.5 54.6875 
L 17.484375 54.6875 
L 17.484375 21.921875 
Q 17.484375 14.15625 20.5 10.265625 
Q 23.53125 6.390625 29.59375 6.390625 
Q 36.859375 6.390625 41.078125 11.03125 
Q 45.3125 15.671875 45.3125 23.6875 
L 45.3125 54.6875 
L 54.296875 54.6875 
L 54.296875 0 
L 45.3125 0 
L 45.3125 8.40625 
Q 42.046875 3.421875 37.71875 1 
Q 33.40625 -1.421875 27.6875 -1.421875 
Q 18.265625 -1.421875 13.375 4.4375 
Q 8.5 10.296875 8.5 21.578125 
z
M 31.109375 56 
z
" id="DejaVuSans-117"/>
     <path d="M 52 44.1875 
Q 55.375 50.25 60.0625 53.125 
Q 64.75 56 71.09375 56 
Q 79.640625 56 84.28125 50.015625 
Q 88.921875 44.046875 88.921875 33.015625 
L 88.921875 0 
L 79.890625 0 
L 79.890625 32.71875 
Q 79.890625 40.578125 77.09375 44.375 
Q 74.3125 48.1875 68.609375 48.1875 
Q 61.625 48.1875 57.5625 43.546875 
Q 53.515625 38.921875 53.515625 30.90625 
L 53.515625 0 
L 44.484375 0 
L 44.484375 32.71875 
Q 44.484375 40.625 41.703125 44.40625 
Q 38.921875 48.1875 33.109375 48.1875 
Q 26.21875 48.1875 22.15625 43.53125 
Q 18.109375 38.875 18.109375 30.90625 
L 18.109375 0 
L 9.078125 0 
L 9.078125 54.6875 
L 18.109375 54.6875 
L 18.109375 46.1875 
Q 21.1875 51.21875 25.484375 53.609375 
Q 29.78125 56 35.6875 56 
Q 41.65625 56 45.828125 52.96875 
Q 50 49.953125 52 44.1875 
z
" id="DejaVuSans-109"/>
     <path d="M 9.421875 75.984375 
L 18.40625 75.984375 
L 18.40625 0 
L 9.421875 0 
z
" id="DejaVuSans-108"/>
     <path d="M 45.40625 46.390625 
L 45.40625 75.984375 
L 54.390625 75.984375 
L 54.390625 0 
L 45.40625 0 
L 45.40625 8.203125 
Q 42.578125 3.328125 38.25 0.953125 
Q 33.9375 -1.421875 27.875 -1.421875 
Q 17.96875 -1.421875 11.734375 6.484375 
Q 5.515625 14.40625 5.515625 27.296875 
Q 5.515625 40.1875 11.734375 48.09375 
Q 17.96875 56 27.875 56 
Q 33.9375 56 38.25 53.625 
Q 42.578125 51.265625 45.40625 46.390625 
z
M 14.796875 27.296875 
Q 14.796875 17.390625 18.875 11.75 
Q 22.953125 6.109375 30.078125 6.109375 
Q 37.203125 6.109375 41.296875 11.75 
Q 45.40625 17.390625 45.40625 27.296875 
Q 45.40625 37.203125 41.296875 42.84375 
Q 37.203125 48.484375 30.078125 48.484375 
Q 22.953125 48.484375 18.875 42.84375 
Q 14.796875 37.203125 14.796875 27.296875 
z
" id="DejaVuSans-100"/>
     <path d="M 4.890625 31.390625 
L 31.203125 31.390625 
L 31.203125 23.390625 
L 4.890625 23.390625 
z
" id="DejaVuSans-45"/>
     <path d="M 34.1875 63.1875 
L 20.796875 26.90625 
L 47.609375 26.90625 
z
M 28.609375 72.90625 
L 39.796875 72.90625 
L 67.578125 0 
L 57.328125 0 
L 50.6875 18.703125 
L 17.828125 18.703125 
L 11.1875 0 
L 0.78125 0 
z
" id="DejaVuSans-65"/>
     <path d="M 9.8125 72.90625 
L 19.671875 72.90625 
L 19.671875 8.296875 
L 55.171875 8.296875 
L 55.171875 0 
L 9.8125 0 
z
" id="DejaVuSans-76"/>
    </defs>
    <g transform="translate(72.387062 12.118365)scale(0.12 -0.12)">
     <use xlink:href="#DejaVuSans-67"/>
     <use x="69.824219" xlink:href="#DejaVuSans-97"/>
     <use x="131.103516" xlink:href="#DejaVuSans-115"/>
     <use x="183.203125" xlink:href="#DejaVuSans-111"/>
     <use x="244.384766" xlink:href="#DejaVuSans-115"/>
     <use x="296.484375" xlink:href="#DejaVuSans-32"/>
     <use x="328.271484" xlink:href="#DejaVuSans-97"/>
     <use x="389.550781" xlink:href="#DejaVuSans-99"/>
     <use x="444.53125" xlink:href="#DejaVuSans-117"/>
     <use x="507.910156" xlink:href="#DejaVuSans-109"/>
     <use x="605.322266" xlink:href="#DejaVuSans-117"/>
     <use x="668.701172" xlink:href="#DejaVuSans-108"/>
     <use x="696.484375" xlink:href="#DejaVuSans-97"/>
     <use x="757.763672" xlink:href="#DejaVuSans-100"/>
     <use x="821.240234" xlink:href="#DejaVuSans-111"/>
     <use x="882.421875" xlink:href="#DejaVuSans-115"/>
     <use x="934.521484" xlink:href="#DejaVuSans-32"/>
     <use x="966.308594" xlink:href="#DejaVuSans-45"/>
     <use x="1002.392578" xlink:href="#DejaVuSans-32"/>
     <use x="1034.179688" xlink:href="#DejaVuSans-65"/>
     <use x="1102.587891" xlink:href="#DejaVuSans-76"/>
    </g>
   </g>
  </g>
  <g id="axes_2">
   <g id="patch_112">
    <path d="M 285.013615 137.71551 
L 457.79976 137.71551 
L 457.79976 18.118365 
L 285.013615 18.118365 
z
" style="fill:#ffffff;"/>
   </g>
   <g id="patch_113">
    <path clip-path="url(#p291be8280d)" d="M 292.867531 137.71551 
L 294.066602 137.71551 
L 294.066602 137.71551 
L 292.867531 137.71551 
z
" style="fill:#1f77b4;"/>
   </g>
   <g id="patch_114">
    <path clip-path="url(#p291be8280d)" d="M 294.36637 137.71551 
L 295.565441 137.71551 
L 295.565441 137.71551 
L 294.36637 137.71551 
z
" style="fill:#1f77b4;"/>
   </g>
   <g id="patch_115">
    <path clip-path="url(#p291be8280d)" d="M 295.865208 137.71551 
L 297.06428 137.71551 
L 297.06428 137.71551 
L 295.865208 137.71551 
z
" style="fill:#1f77b4;"/>
   </g>
   <g id="patch_116">
    <path clip-path="url(#p291be8280d)" d="M 297.364047 137.71551 
L 298.563118 137.71551 
L 298.563118 137.71551 
L 297.364047 137.71551 
z
" style="fill:#1f77b4;"/>
   </g>
   <g id="patch_117">
    <path clip-path="url(#p291be8280d)" d="M 298.862886 137.71551 
L 300.061957 137.71551 
L 300.061957 137.71551 
L 298.862886 137.71551 
z
" style="fill:#1f77b4;"/>
   </g>
   <g id="patch_118">
    <path clip-path="url(#p291be8280d)" d="M 300.361725 137.71551 
L 301.560796 137.71551 
L 301.560796 137.71551 
L 300.361725 137.71551 
z
" style="fill:#1f77b4;"/>
   </g>
   <g id="patch_119">
    <path clip-path="url(#p291be8280d)" d="M 301.860564 137.71551 
L 303.059635 137.71551 
L 303.059635 137.71551 
L 301.860564 137.71551 
z
" style="fill:#1f77b4;"/>
   </g>
   <g id="patch_120">
    <path clip-path="url(#p291be8280d)" d="M 303.359403 137.71551 
L 304.558474 137.71551 
L 304.558474 137.71551 
L 303.359403 137.71551 
z
" style="fill:#1f77b4;"/>
   </g>
   <g id="patch_121">
    <path clip-path="url(#p291be8280d)" d="M 304.858242 137.71551 
L 306.057313 137.71551 
L 306.057313 137.71551 
L 304.858242 137.71551 
z
" style="fill:#1f77b4;"/>
   </g>
   <g id="patch_122">
    <path clip-path="url(#p291be8280d)" d="M 306.357081 137.71551 
L 307.556152 137.71551 
L 307.556152 137.71551 
L 306.357081 137.71551 
z
" style="fill:#1f77b4;"/>
   </g>
   <g id="patch_123">
    <path clip-path="url(#p291be8280d)" d="M 307.855919 137.71551 
L 309.05499 137.71551 
L 309.05499 137.485714 
L 307.855919 137.485714 
z
" style="fill:#1f77b4;"/>
   </g>
   <g id="patch_124">
    <path clip-path="url(#p291be8280d)" d="M 309.354758 137.71551 
L 310.553829 137.71551 
L 310.553829 137.638911 
L 309.354758 137.638911 
z
" style="fill:#1f77b4;"/>
   </g>
   <g id="patch_125">
    <path clip-path="url(#p291be8280d)" d="M 310.853597 137.71551 
L 312.052668 137.71551 
L 312.052668 137.562313 
L 310.853597 137.562313 
z
" style="fill:#1f77b4;"/>
   </g>
   <g id="patch_126">
    <path clip-path="url(#p291be8280d)" d="M 312.352436 137.71551 
L 313.551507 137.71551 
L 313.551507 137.71551 
L 312.352436 137.71551 
z
" style="fill:#1f77b4;"/>
   </g>
   <g id="patch_127">
    <path clip-path="url(#p291be8280d)" d="M 313.851275 137.71551 
L 315.050346 137.71551 
L 315.050346 137.71551 
L 313.851275 137.71551 
z
" style="fill:#1f77b4;"/>
   </g>
   <g id="patch_128">
    <path clip-path="url(#p291be8280d)" d="M 315.350114 137.71551 
L 316.549185 137.71551 
L 316.549185 137.562313 
L 315.350114 137.562313 
z
" style="fill:#1f77b4;"/>
   </g>
   <g id="patch_129">
    <path clip-path="url(#p291be8280d)" d="M 316.848953 137.71551 
L 318.048024 137.71551 
L 318.048024 137.562313 
L 316.848953 137.562313 
z
" style="fill:#1f77b4;"/>
   </g>
   <g id="patch_130">
    <path clip-path="url(#p291be8280d)" d="M 318.347791 137.71551 
L 319.546863 137.71551 
L 319.546863 137.71551 
L 318.347791 137.71551 
z
" style="fill:#1f77b4;"/>
   </g>
   <g id="patch_131">
    <path clip-path="url(#p291be8280d)" d="M 319.84663 137.71551 
L 321.045701 137.71551 
L 321.045701 137.71551 
L 319.84663 137.71551 
z
" style="fill:#1f77b4;"/>
   </g>
   <g id="patch_132">
    <path clip-path="url(#p291be8280d)" d="M 321.345469 137.71551 
L 322.54454 137.71551 
L 322.54454 137.485714 
L 321.345469 137.485714 
z
" style="fill:#1f77b4;"/>
   </g>
   <g id="patch_133">
    <path clip-path="url(#p291be8280d)" d="M 322.844308 137.71551 
L 324.043379 137.71551 
L 324.043379 137.485714 
L 322.844308 137.485714 
z
" style="fill:#1f77b4;"/>
   </g>
   <g id="patch_134">
    <path clip-path="url(#p291be8280d)" d="M 324.343147 137.71551 
L 325.542218 137.71551 
L 325.542218 137.71551 
L 324.343147 137.71551 
z
" style="fill:#1f77b4;"/>
   </g>
   <g id="patch_135">
    <path clip-path="url(#p291be8280d)" d="M 325.841986 137.71551 
L 327.041057 137.71551 
L 327.041057 137.638911 
L 325.841986 137.638911 
z
" style="fill:#1f77b4;"/>
   </g>
   <g id="patch_136">
    <path clip-path="url(#p291be8280d)" d="M 327.340825 137.71551 
L 328.539896 137.71551 
L 328.539896 137.71551 
L 327.340825 137.71551 
z
" style="fill:#1f77b4;"/>
   </g>
   <g id="patch_137">
    <path clip-path="url(#p291be8280d)" d="M 328.839664 137.71551 
L 330.038735 137.71551 
L 330.038735 137.71551 
L 328.839664 137.71551 
z
" style="fill:#1f77b4;"/>
   </g>
   <g id="patch_138">
    <path clip-path="url(#p291be8280d)" d="M 330.338502 137.71551 
L 331.537574 137.71551 
L 331.537574 137.409116 
L 330.338502 137.409116 
z
" style="fill:#1f77b4;"/>
   </g>
   <g id="patch_139">
    <path clip-path="url(#p291be8280d)" d="M 331.837341 137.71551 
L 333.036412 137.71551 
L 333.036412 137.638911 
L 331.837341 137.638911 
z
" style="fill:#1f77b4;"/>
   </g>
   <g id="patch_140">
    <path clip-path="url(#p291be8280d)" d="M 333.33618 137.71551 
L 334.535251 137.71551 
L 334.535251 137.332517 
L 333.33618 137.332517 
z
" style="fill:#1f77b4;"/>
   </g>
   <g id="patch_141">
    <path clip-path="url(#p291be8280d)" d="M 334.835019 137.71551 
L 336.03409 137.71551 
L 336.03409 137.485714 
L 334.835019 137.485714 
z
" style="fill:#1f77b4;"/>
   </g>
   <g id="patch_142">
    <path clip-path="url(#p291be8280d)" d="M 336.333858 137.71551 
L 337.532929 137.71551 
L 337.532929 137.638911 
L 336.333858 137.638911 
z
" style="fill:#1f77b4;"/>
   </g>
   <g id="patch_143">
    <path clip-path="url(#p291be8280d)" d="M 337.832697 137.71551 
L 339.031768 137.71551 
L 339.031768 137.332517 
L 337.832697 137.332517 
z
" style="fill:#1f77b4;"/>
   </g>
   <g id="patch_144">
    <path clip-path="url(#p291be8280d)" d="M 339.331536 137.71551 
L 340.530607 137.71551 
L 340.530607 137.71551 
L 339.331536 137.71551 
z
" style="fill:#1f77b4;"/>
   </g>
   <g id="patch_145">
    <path clip-path="url(#p291be8280d)" d="M 340.830375 137.71551 
L 342.029446 137.71551 
L 342.029446 137.102722 
L 340.830375 137.102722 
z
" style="fill:#1f77b4;"/>
   </g>
   <g id="patch_146">
    <path clip-path="url(#p291be8280d)" d="M 342.329213 137.71551 
L 343.528285 137.71551 
L 343.528285 137.485714 
L 342.329213 137.485714 
z
" style="fill:#1f77b4;"/>
   </g>
   <g id="patch_147">
    <path clip-path="url(#p291be8280d)" d="M 343.828052 137.71551 
L 345.027123 137.71551 
L 345.027123 137.71551 
L 343.828052 137.71551 
z
" style="fill:#1f77b4;"/>
   </g>
   <g id="patch_148">
    <path clip-path="url(#p291be8280d)" d="M 345.326891 137.71551 
L 346.525962 137.71551 
L 346.525962 137.562313 
L 345.326891 137.562313 
z
" style="fill:#1f77b4;"/>
   </g>
   <g id="patch_149">
    <path clip-path="url(#p291be8280d)" d="M 346.82573 137.71551 
L 348.024801 137.71551 
L 348.024801 136.030342 
L 346.82573 136.030342 
z
" style="fill:#1f77b4;"/>
   </g>
   <g id="patch_150">
    <path clip-path="url(#p291be8280d)" d="M 348.324569 137.71551 
L 349.52364 137.71551 
L 349.52364 136.949525 
L 348.324569 136.949525 
z
" style="fill:#1f77b4;"/>
   </g>
   <g id="patch_151">
    <path clip-path="url(#p291be8280d)" d="M 349.823408 137.71551 
L 351.022479 137.71551 
L 351.022479 137.17932 
L 349.823408 137.17932 
z
" style="fill:#1f77b4;"/>
   </g>
   <g id="patch_152">
    <path clip-path="url(#p291be8280d)" d="M 351.322247 137.71551 
L 352.521318 137.71551 
L 352.521318 136.10694 
L 351.322247 136.10694 
z
" style="fill:#1f77b4;"/>
   </g>
   <g id="patch_153">
    <path clip-path="url(#p291be8280d)" d="M 352.821086 137.71551 
L 354.020157 137.71551 
L 354.020157 136.030342 
L 352.821086 136.030342 
z
" style="fill:#1f77b4;"/>
   </g>
   <g id="patch_154">
    <path clip-path="url(#p291be8280d)" d="M 354.319924 137.71551 
L 355.518995 137.71551 
L 355.518995 135.647349 
L 354.319924 135.647349 
z
" style="fill:#1f77b4;"/>
   </g>
   <g id="patch_155">
    <path clip-path="url(#p291be8280d)" d="M 355.818763 137.71551 
L 357.017834 137.71551 
L 357.017834 136.796327 
L 355.818763 136.796327 
z
" style="fill:#1f77b4;"/>
   </g>
   <g id="patch_156">
    <path clip-path="url(#p291be8280d)" d="M 357.317602 137.71551 
L 358.516673 137.71551 
L 358.516673 134.728167 
L 357.317602 134.728167 
z
" style="fill:#1f77b4;"/>
   </g>
   <g id="patch_157">
    <path clip-path="url(#p291be8280d)" d="M 358.816441 137.71551 
L 360.015512 137.71551 
L 360.015512 135.187758 
L 358.816441 135.187758 
z
" style="fill:#1f77b4;"/>
   </g>
   <g id="patch_158">
    <path clip-path="url(#p291be8280d)" d="M 360.31528 137.71551 
L 361.514351 137.71551 
L 361.514351 131.511028 
L 360.31528 131.511028 
z
" style="fill:#1f77b4;"/>
   </g>
   <g id="patch_159">
    <path clip-path="url(#p291be8280d)" d="M 361.814119 137.71551 
L 363.01319 137.71551 
L 363.01319 130.898239 
L 361.814119 130.898239 
z
" style="fill:#1f77b4;"/>
   </g>
   <g id="patch_160">
    <path clip-path="url(#p291be8280d)" d="M 363.312958 137.71551 
L 364.512029 137.71551 
L 364.512029 130.974838 
L 363.312958 130.974838 
z
" style="fill:#1f77b4;"/>
   </g>
   <g id="patch_161">
    <path clip-path="url(#p291be8280d)" d="M 364.811796 137.71551 
L 366.010868 137.71551 
L 366.010868 133.655787 
L 364.811796 133.655787 
z
" style="fill:#1f77b4;"/>
   </g>
   <g id="patch_162">
    <path clip-path="url(#p291be8280d)" d="M 366.310635 137.71551 
L 367.509706 137.71551 
L 367.509706 130.898239 
L 366.310635 130.898239 
z
" style="fill:#1f77b4;"/>
   </g>
   <g id="patch_163">
    <path clip-path="url(#p291be8280d)" d="M 367.809474 137.71551 
L 369.008545 137.71551 
L 369.008545 127.451304 
L 367.809474 127.451304 
z
" style="fill:#1f77b4;"/>
   </g>
   <g id="patch_164">
    <path clip-path="url(#p291be8280d)" d="M 369.308313 137.71551 
L 370.507384 137.71551 
L 370.507384 123.927771 
L 369.308313 123.927771 
z
" style="fill:#1f77b4;"/>
   </g>
   <g id="patch_165">
    <path clip-path="url(#p291be8280d)" d="M 370.807152 137.71551 
L 372.006223 137.71551 
L 372.006223 131.051436 
L 370.807152 131.051436 
z
" style="fill:#1f77b4;"/>
   </g>
   <g id="patch_166">
    <path clip-path="url(#p291be8280d)" d="M 372.305991 137.71551 
L 373.505062 137.71551 
L 373.505062 123.774574 
L 372.305991 123.774574 
z
" style="fill:#1f77b4;"/>
   </g>
   <g id="patch_167">
    <path clip-path="url(#p291be8280d)" d="M 373.80483 137.71551 
L 375.003901 137.71551 
L 375.003901 126.532122 
L 373.80483 126.532122 
z
" style="fill:#1f77b4;"/>
   </g>
   <g id="patch_168">
    <path clip-path="url(#p291be8280d)" d="M 375.303669 137.71551 
L 376.50274 137.71551 
L 376.50274 132.43021 
L 375.303669 132.43021 
z
" style="fill:#1f77b4;"/>
   </g>
   <g id="patch_169">
    <path clip-path="url(#p291be8280d)" d="M 376.802507 137.71551 
L 378.001579 137.71551 
L 378.001579 130.285451 
L 376.802507 130.285451 
z
" style="fill:#1f77b4;"/>
   </g>
   <g id="patch_170">
    <path clip-path="url(#p291be8280d)" d="M 378.301346 137.71551 
L 379.500417 137.71551 
L 379.500417 132.506809 
L 378.301346 132.506809 
z
" style="fill:#1f77b4;"/>
   </g>
   <g id="patch_171">
    <path clip-path="url(#p291be8280d)" d="M 379.800185 137.71551 
L 380.999256 137.71551 
L 380.999256 130.285451 
L 379.800185 130.285451 
z
" style="fill:#1f77b4;"/>
   </g>
   <g id="patch_172">
    <path clip-path="url(#p291be8280d)" d="M 381.299024 137.71551 
L 382.498095 137.71551 
L 382.498095 125.153348 
L 381.299024 125.153348 
z
" style="fill:#1f77b4;"/>
   </g>
   <g id="patch_173">
    <path clip-path="url(#p291be8280d)" d="M 382.797863 137.71551 
L 383.996934 137.71551 
L 383.996934 125.000151 
L 382.797863 125.000151 
z
" style="fill:#1f77b4;"/>
   </g>
   <g id="patch_174">
    <path clip-path="url(#p291be8280d)" d="M 384.296702 137.71551 
L 385.495773 137.71551 
L 385.495773 127.068312 
L 384.296702 127.068312 
z
" style="fill:#1f77b4;"/>
   </g>
   <g id="patch_175">
    <path clip-path="url(#p291be8280d)" d="M 385.795541 137.71551 
L 386.994612 137.71551 
L 386.994612 131.128035 
L 385.795541 131.128035 
z
" style="fill:#1f77b4;"/>
   </g>
   <g id="patch_176">
    <path clip-path="url(#p291be8280d)" d="M 387.29438 137.71551 
L 388.493451 137.71551 
L 388.493451 131.204633 
L 387.29438 131.204633 
z
" style="fill:#1f77b4;"/>
   </g>
   <g id="patch_177">
    <path clip-path="url(#p291be8280d)" d="M 388.793218 137.71551 
L 389.992289 137.71551 
L 389.992289 119.561654 
L 388.793218 119.561654 
z
" style="fill:#1f77b4;"/>
   </g>
   <g id="patch_178">
    <path clip-path="url(#p291be8280d)" d="M 390.292057 137.71551 
L 391.491128 137.71551 
L 391.491128 123.851173 
L 390.292057 123.851173 
z
" style="fill:#1f77b4;"/>
   </g>
   <g id="patch_179">
    <path clip-path="url(#p291be8280d)" d="M 391.790896 137.71551 
L 392.989967 137.71551 
L 392.989967 121.553216 
L 391.790896 121.553216 
z
" style="fill:#1f77b4;"/>
   </g>
   <g id="patch_180">
    <path clip-path="url(#p291be8280d)" d="M 393.289735 137.71551 
L 394.488806 137.71551 
L 394.488806 119.331858 
L 393.289735 119.331858 
z
" style="fill:#1f77b4;"/>
   </g>
   <g id="patch_181">
    <path clip-path="url(#p291be8280d)" d="M 394.788574 137.71551 
L 395.987645 137.71551 
L 395.987645 108.531463 
L 394.788574 108.531463 
z
" style="fill:#1f77b4;"/>
   </g>
   <g id="patch_182">
    <path clip-path="url(#p291be8280d)" d="M 396.287413 137.71551 
L 397.486484 137.71551 
L 397.486484 120.634033 
L 396.287413 120.634033 
z
" style="fill:#1f77b4;"/>
   </g>
   <g id="patch_183">
    <path clip-path="url(#p291be8280d)" d="M 397.786252 137.71551 
L 398.985323 137.71551 
L 398.985323 121.246822 
L 397.786252 121.246822 
z
" style="fill:#1f77b4;"/>
   </g>
   <g id="patch_184">
    <path clip-path="url(#p291be8280d)" d="M 399.28509 137.71551 
L 400.484162 137.71551 
L 400.484162 115.884923 
L 399.28509 115.884923 
z
" style="fill:#1f77b4;"/>
   </g>
   <g id="patch_185">
    <path clip-path="url(#p291be8280d)" d="M 400.783929 137.71551 
L 401.983 137.71551 
L 401.983 128.447086 
L 400.783929 128.447086 
z
" style="fill:#1f77b4;"/>
   </g>
   <g id="patch_186">
    <path clip-path="url(#p291be8280d)" d="M 402.282768 137.71551 
L 403.481839 137.71551 
L 403.481839 101.024805 
L 402.282768 101.024805 
z
" style="fill:#1f77b4;"/>
   </g>
   <g id="patch_187">
    <path clip-path="url(#p291be8280d)" d="M 403.781607 137.71551 
L 404.980678 137.71551 
L 404.980678 108.14847 
L 403.781607 108.14847 
z
" style="fill:#1f77b4;"/>
   </g>
   <g id="patch_188">
    <path clip-path="url(#p291be8280d)" d="M 405.280446 137.71551 
L 406.479517 137.71551 
L 406.479517 112.591186 
L 405.280446 112.591186 
z
" style="fill:#1f77b4;"/>
   </g>
   <g id="patch_189">
    <path clip-path="url(#p291be8280d)" d="M 406.779285 137.71551 
L 407.978356 137.71551 
L 407.978356 92.981957 
L 406.779285 92.981957 
z
" style="fill:#1f77b4;"/>
   </g>
   <g id="patch_190">
    <path clip-path="url(#p291be8280d)" d="M 408.278124 137.71551 
L 409.477195 137.71551 
L 409.477195 101.867389 
L 408.278124 101.867389 
z
" style="fill:#1f77b4;"/>
   </g>
   <g id="patch_191">
    <path clip-path="url(#p291be8280d)" d="M 409.776963 137.71551 
L 410.976034 137.71551 
L 410.976034 108.914455 
L 409.776963 108.914455 
z
" style="fill:#1f77b4;"/>
   </g>
   <g id="patch_192">
    <path clip-path="url(#p291be8280d)" d="M 411.275801 137.71551 
L 412.474873 137.71551 
L 412.474873 97.731067 
L 411.275801 97.731067 
z
" style="fill:#1f77b4;"/>
   </g>
   <g id="patch_193">
    <path clip-path="url(#p291be8280d)" d="M 412.77464 137.71551 
L 413.973711 137.71551 
L 413.973711 101.331199 
L 412.77464 101.331199 
z
" style="fill:#1f77b4;"/>
   </g>
   <g id="patch_194">
    <path clip-path="url(#p291be8280d)" d="M 414.273479 137.71551 
L 415.47255 137.71551 
L 415.47255 94.590527 
L 414.273479 94.590527 
z
" style="fill:#1f77b4;"/>
   </g>
   <g id="patch_195">
    <path clip-path="url(#p291be8280d)" d="M 415.772318 137.71551 
L 416.971389 137.71551 
L 416.971389 91.373388 
L 415.772318 91.373388 
z
" style="fill:#1f77b4;"/>
   </g>
   <g id="patch_196">
    <path clip-path="url(#p291be8280d)" d="M 417.271157 137.71551 
L 418.470228 137.71551 
L 418.470228 56.138055 
L 417.271157 56.138055 
z
" style="fill:#1f77b4;"/>
   </g>
   <g id="patch_197">
    <path clip-path="url(#p291be8280d)" d="M 418.769996 137.71551 
L 419.969067 137.71551 
L 419.969067 95.662906 
L 418.769996 95.662906 
z
" style="fill:#1f77b4;"/>
   </g>
   <g id="patch_198">
    <path clip-path="url(#p291be8280d)" d="M 420.268835 137.71551 
L 421.467906 137.71551 
L 421.467906 82.411357 
L 420.268835 82.411357 
z
" style="fill:#1f77b4;"/>
   </g>
   <g id="patch_199">
    <path clip-path="url(#p291be8280d)" d="M 421.767674 137.71551 
L 422.966745 137.71551 
L 422.966745 72.75994 
L 421.767674 72.75994 
z
" style="fill:#1f77b4;"/>
   </g>
   <g id="patch_200">
    <path clip-path="url(#p291be8280d)" d="M 423.266512 137.71551 
L 424.465584 137.71551 
L 424.465584 84.862511 
L 423.266512 84.862511 
z
" style="fill:#1f77b4;"/>
   </g>
   <g id="patch_201">
    <path clip-path="url(#p291be8280d)" d="M 424.765351 137.71551 
L 425.964422 137.71551 
L 425.964422 73.372729 
L 424.765351 73.372729 
z
" style="fill:#1f77b4;"/>
   </g>
   <g id="patch_202">
    <path clip-path="url(#p291be8280d)" d="M 426.26419 137.71551 
L 427.463261 137.71551 
L 427.463261 70.232188 
L 426.26419 70.232188 
z
" style="fill:#1f77b4;"/>
   </g>
   <g id="patch_203">
    <path clip-path="url(#p291be8280d)" d="M 427.763029 137.71551 
L 428.9621 137.71551 
L 428.9621 69.695998 
L 427.763029 69.695998 
z
" style="fill:#1f77b4;"/>
   </g>
   <g id="patch_204">
    <path clip-path="url(#p291be8280d)" d="M 429.261868 137.71551 
L 430.460939 137.71551 
L 430.460939 137.71551 
L 429.261868 137.71551 
z
" style="fill:#1f77b4;"/>
   </g>
   <g id="patch_205">
    <path clip-path="url(#p291be8280d)" d="M 430.760707 137.71551 
L 431.959778 137.71551 
L 431.959778 23.813467 
L 430.760707 23.813467 
z
" style="fill:#1f77b4;"/>
   </g>
   <g id="patch_206">
    <path clip-path="url(#p291be8280d)" d="M 432.259546 137.71551 
L 433.458617 137.71551 
L 433.458617 62.419136 
L 432.259546 62.419136 
z
" style="fill:#1f77b4;"/>
   </g>
   <g id="patch_207">
    <path clip-path="url(#p291be8280d)" d="M 433.758385 137.71551 
L 434.957456 137.71551 
L 434.957456 59.278595 
L 433.758385 59.278595 
z
" style="fill:#1f77b4;"/>
   </g>
   <g id="patch_208">
    <path clip-path="url(#p291be8280d)" d="M 435.257223 137.71551 
L 436.456294 137.71551 
L 436.456294 74.062116 
L 435.257223 74.062116 
z
" style="fill:#1f77b4;"/>
   </g>
   <g id="patch_209">
    <path clip-path="url(#p291be8280d)" d="M 436.756062 137.71551 
L 437.955133 137.71551 
L 437.955133 72.147152 
L 436.756062 72.147152 
z
" style="fill:#1f77b4;"/>
   </g>
   <g id="patch_210">
    <path clip-path="url(#p291be8280d)" d="M 438.254901 137.71551 
L 439.453972 137.71551 
L 439.453972 37.218213 
L 438.254901 37.218213 
z
" style="fill:#1f77b4;"/>
   </g>
   <g id="patch_211">
    <path clip-path="url(#p291be8280d)" d="M 439.75374 137.71551 
L 440.952811 137.71551 
L 440.952811 79.270817 
L 439.75374 79.270817 
z
" style="fill:#1f77b4;"/>
   </g>
   <g id="patch_212">
    <path clip-path="url(#p291be8280d)" d="M 441.252579 137.71551 
L 442.45165 137.71551 
L 442.45165 86.394482 
L 441.252579 86.394482 
z
" style="fill:#1f77b4;"/>
   </g>
   <g id="patch_213">
    <path clip-path="url(#p291be8280d)" d="M 442.751418 137.71551 
L 443.950489 137.71551 
L 443.950489 43.116302 
L 442.751418 43.116302 
z
" style="fill:#1f77b4;"/>
   </g>
   <g id="patch_214">
    <path clip-path="url(#p291be8280d)" d="M 444.250257 137.71551 
L 445.449328 137.71551 
L 445.449328 79.041021 
L 444.250257 79.041021 
z
" style="fill:#1f77b4;"/>
   </g>
   <g id="patch_215">
    <path clip-path="url(#p291be8280d)" d="M 445.749095 137.71551 
L 446.948167 137.71551 
L 446.948167 40.205557 
L 445.749095 40.205557 
z
" style="fill:#1f77b4;"/>
   </g>
   <g id="patch_216">
    <path clip-path="url(#p291be8280d)" d="M 447.247934 137.71551 
L 448.447005 137.71551 
L 448.447005 77.049459 
L 447.247934 77.049459 
z
" style="fill:#1f77b4;"/>
   </g>
   <g id="patch_217">
    <path clip-path="url(#p291be8280d)" d="M 448.746773 137.71551 
L 449.945844 137.71551 
L 449.945844 64.257501 
L 448.746773 64.257501 
z
" style="fill:#1f77b4;"/>
   </g>
   <g id="matplotlib.axis_3">
    <g id="xtick_6">
     <g id="line2d_11">
      <g>
       <use style="stroke:#000000;stroke-width:0.8;" x="293.467066" xlink:href="#maba08ee3bf" y="137.71551"/>
      </g>
     </g>
     <g id="text_13">
      <!-- 0 -->
      <g transform="translate(290.285816 152.313947)scale(0.1 -0.1)">
       <use xlink:href="#DejaVuSans-48"/>
      </g>
     </g>
    </g>
    <g id="xtick_7">
     <g id="line2d_12">
      <g>
       <use style="stroke:#000000;stroke-width:0.8;" x="330.938038" xlink:href="#maba08ee3bf" y="137.71551"/>
      </g>
     </g>
     <g id="text_14">
      <!-- 25 -->
      <g transform="translate(324.575538 152.313947)scale(0.1 -0.1)">
       <use xlink:href="#DejaVuSans-50"/>
       <use x="63.623047" xlink:href="#DejaVuSans-53"/>
      </g>
     </g>
    </g>
    <g id="xtick_8">
     <g id="line2d_13">
      <g>
       <use style="stroke:#000000;stroke-width:0.8;" x="368.40901" xlink:href="#maba08ee3bf" y="137.71551"/>
      </g>
     </g>
     <g id="text_15">
      <!-- 50 -->
      <g transform="translate(362.04651 152.313947)scale(0.1 -0.1)">
       <use xlink:href="#DejaVuSans-53"/>
       <use x="63.623047" xlink:href="#DejaVuSans-48"/>
      </g>
     </g>
    </g>
    <g id="xtick_9">
     <g id="line2d_14">
      <g>
       <use style="stroke:#000000;stroke-width:0.8;" x="405.879982" xlink:href="#maba08ee3bf" y="137.71551"/>
      </g>
     </g>
     <g id="text_16">
      <!-- 75 -->
      <g transform="translate(399.517482 152.313947)scale(0.1 -0.1)">
       <use xlink:href="#DejaVuSans-55"/>
       <use x="63.623047" xlink:href="#DejaVuSans-53"/>
      </g>
     </g>
    </g>
    <g id="xtick_10">
     <g id="line2d_15">
      <g>
       <use style="stroke:#000000;stroke-width:0.8;" x="443.350953" xlink:href="#maba08ee3bf" y="137.71551"/>
      </g>
     </g>
     <g id="text_17">
      <!-- 100 -->
      <g transform="translate(433.807203 152.313947)scale(0.1 -0.1)">
       <use xlink:href="#DejaVuSans-49"/>
       <use x="63.623047" xlink:href="#DejaVuSans-48"/>
       <use x="127.246094" xlink:href="#DejaVuSans-48"/>
      </g>
     </g>
    </g>
    <g id="text_18">
     <!-- Dias -->
     <g transform="translate(360.498875 165.992072)scale(0.1 -0.1)">
      <use xlink:href="#DejaVuSans-68"/>
      <use x="77.001953" xlink:href="#DejaVuSans-105"/>
      <use x="104.785156" xlink:href="#DejaVuSans-97"/>
      <use x="166.064453" xlink:href="#DejaVuSans-115"/>
     </g>
    </g>
   </g>
   <g id="matplotlib.axis_4">
    <g id="ytick_5">
     <g id="line2d_16">
      <g>
       <use style="stroke:#000000;stroke-width:0.8;" x="285.013615" xlink:href="#med07b89ec7" y="137.71551"/>
      </g>
     </g>
     <g id="text_19">
      <!-- 0 -->
      <g transform="translate(271.651115 141.514729)scale(0.1 -0.1)">
       <use xlink:href="#DejaVuSans-48"/>
      </g>
     </g>
    </g>
    <g id="ytick_6">
     <g id="line2d_17">
      <g>
       <use style="stroke:#000000;stroke-width:0.8;" x="285.013615" xlink:href="#med07b89ec7" y="99.416235"/>
      </g>
     </g>
     <g id="text_20">
      <!-- 500 -->
      <g transform="translate(258.926115 103.215454)scale(0.1 -0.1)">
       <use xlink:href="#DejaVuSans-53"/>
       <use x="63.623047" xlink:href="#DejaVuSans-48"/>
       <use x="127.246094" xlink:href="#DejaVuSans-48"/>
      </g>
     </g>
    </g>
    <g id="ytick_7">
     <g id="line2d_18">
      <g>
       <use style="stroke:#000000;stroke-width:0.8;" x="285.013615" xlink:href="#med07b89ec7" y="61.116961"/>
      </g>
     </g>
     <g id="text_21">
      <!-- 1000 -->
      <g transform="translate(252.563615 64.916179)scale(0.1 -0.1)">
       <use xlink:href="#DejaVuSans-49"/>
       <use x="63.623047" xlink:href="#DejaVuSans-48"/>
       <use x="127.246094" xlink:href="#DejaVuSans-48"/>
       <use x="190.869141" xlink:href="#DejaVuSans-48"/>
      </g>
     </g>
    </g>
    <g id="ytick_8">
     <g id="line2d_19">
      <g>
       <use style="stroke:#000000;stroke-width:0.8;" x="285.013615" xlink:href="#med07b89ec7" y="22.817686"/>
      </g>
     </g>
     <g id="text_22">
      <!-- 1500 -->
      <g transform="translate(252.563615 26.616905)scale(0.1 -0.1)">
       <use xlink:href="#DejaVuSans-49"/>
       <use x="63.623047" xlink:href="#DejaVuSans-53"/>
       <use x="127.246094" xlink:href="#DejaVuSans-48"/>
       <use x="190.869141" xlink:href="#DejaVuSans-48"/>
      </g>
     </g>
    </g>
    <g id="text_23">
     <!-- Novos casos -->
     <defs>
      <path d="M 9.8125 72.90625 
L 23.09375 72.90625 
L 55.421875 11.921875 
L 55.421875 72.90625 
L 64.984375 72.90625 
L 64.984375 0 
L 51.703125 0 
L 19.390625 60.984375 
L 19.390625 0 
L 9.8125 0 
z
" id="DejaVuSans-78"/>
      <path d="M 2.984375 54.6875 
L 12.5 54.6875 
L 29.59375 8.796875 
L 46.6875 54.6875 
L 56.203125 54.6875 
L 35.6875 0 
L 23.484375 0 
z
" id="DejaVuSans-118"/>
     </defs>
     <g transform="translate(246.483928 109.011469)rotate(-90)scale(0.1 -0.1)">
      <use xlink:href="#DejaVuSans-78"/>
      <use x="74.804688" xlink:href="#DejaVuSans-111"/>
      <use x="135.986328" xlink:href="#DejaVuSans-118"/>
      <use x="195.166016" xlink:href="#DejaVuSans-111"/>
      <use x="256.347656" xlink:href="#DejaVuSans-115"/>
      <use x="308.447266" xlink:href="#DejaVuSans-32"/>
      <use x="340.234375" xlink:href="#DejaVuSans-99"/>
      <use x="395.214844" xlink:href="#DejaVuSans-97"/>
      <use x="456.494141" xlink:href="#DejaVuSans-115"/>
      <use x="508.59375" xlink:href="#DejaVuSans-111"/>
      <use x="569.775391" xlink:href="#DejaVuSans-115"/>
     </g>
    </g>
   </g>
   <g id="line2d_20">
    <path clip-path="url(#p291be8280d)" d="M 293.467066 137.711299 
L 294.965905 137.709512 
L 296.464744 137.707056 
L 297.963583 137.704185 
L 299.462422 137.700133 
L 300.961261 137.694901 
L 302.460099 137.688616 
L 303.958938 137.681438 
L 305.457777 137.673622 
L 306.956616 137.665423 
L 308.455455 137.657319 
L 309.954294 137.650077 
L 311.453133 137.643888 
L 312.951972 137.638624 
L 314.45081 137.634126 
L 315.949649 137.630425 
L 317.448488 137.627458 
L 318.947327 137.624874 
L 320.446166 137.62178 
L 321.945005 137.617664 
L 323.443844 137.6124 
L 324.942683 137.605573 
L 326.441521 137.596832 
L 327.94036 137.586144 
L 329.439199 137.572968 
L 330.938038 137.557336 
L 332.436877 137.53896 
L 333.935716 137.517107 
L 335.434555 137.490851 
L 336.933393 137.457831 
L 338.432232 137.414986 
L 339.931071 137.360687 
L 341.42991 137.292511 
L 342.928749 137.206342 
L 344.427588 137.096883 
L 345.926427 136.958298 
L 347.425266 136.787044 
L 348.924104 136.578272 
L 350.422943 136.32372 
L 351.921782 136.012317 
L 353.420621 135.639214 
L 354.91946 135.201987 
L 356.418299 134.700922 
L 357.917138 134.135541 
L 359.415977 133.511491 
L 360.914815 132.844659 
L 362.413654 132.165609 
L 363.912493 131.496161 
L 365.411332 130.861455 
L 366.910171 130.286695 
L 368.40901 129.796445 
L 369.907849 129.409369 
L 371.406688 129.123871 
L 372.905526 128.914397 
L 374.404365 128.763051 
L 375.903204 128.64131 
L 377.402043 128.508817 
L 378.900882 128.321771 
L 380.399721 128.032764 
L 381.89856 127.618379 
L 383.397398 127.077787 
L 384.896237 126.398928 
L 386.395076 125.576666 
L 387.893915 124.633237 
L 389.392754 123.591356 
L 390.891593 122.479513 
L 392.390432 121.309607 
L 393.889271 120.064314 
L 395.388109 118.750047 
L 396.886948 117.373953 
L 398.385787 115.905884 
L 399.884626 114.322326 
L 401.383465 112.608573 
L 402.882304 110.748386 
L 404.381143 108.761928 
L 405.879982 106.63797 
L 407.37882 104.361771 
L 408.877659 101.949092 
L 410.376498 99.437195 
L 411.875337 96.868544 
L 413.374176 94.287131 
L 414.873015 91.723552 
L 416.371854 89.227256 
L 417.870692 86.862208 
L 419.369531 84.691385 
L 420.86837 82.712775 
L 422.367209 80.847803 
L 423.866048 79.086961 
L 425.364887 77.407217 
L 426.863726 75.805028 
L 428.362565 74.241026 
L 429.861403 72.657915 
L 431.360242 71.082524 
L 432.859081 69.653568 
L 434.35792 68.365493 
L 435.856759 67.243154 
L 437.355598 66.256688 
L 438.854437 65.424345 
L 440.353276 64.77825 
L 441.852114 64.28883 
L 443.350953 63.854697 
L 444.849792 63.491611 
L 446.348631 63.278597 
L 447.84747 63.097006 
L 449.346309 62.949456 
" style="fill:none;stroke:#ff0000;stroke-linecap:square;stroke-width:1.5;"/>
   </g>
   <g id="patch_218">
    <path d="M 285.013615 137.71551 
L 285.013615 18.118365 
" style="fill:none;stroke:#000000;stroke-linecap:square;stroke-linejoin:miter;stroke-width:0.8;"/>
   </g>
   <g id="patch_219">
    <path d="M 457.79976 137.71551 
L 457.79976 18.118365 
" style="fill:none;stroke:#000000;stroke-linecap:square;stroke-linejoin:miter;stroke-width:0.8;"/>
   </g>
   <g id="patch_220">
    <path d="M 285.013615 137.71551 
L 457.79976 137.71551 
" style="fill:none;stroke:#000000;stroke-linecap:square;stroke-linejoin:miter;stroke-width:0.8;"/>
   </g>
   <g id="patch_221">
    <path d="M 285.013615 18.118365 
L 457.79976 18.118365 
" style="fill:none;stroke:#000000;stroke-linecap:square;stroke-linejoin:miter;stroke-width:0.8;"/>
   </g>
   <g id="text_24">
    <!-- Casos novos - AL -->
    <defs>
     <path d="M 54.890625 33.015625 
L 54.890625 0 
L 45.90625 0 
L 45.90625 32.71875 
Q 45.90625 40.484375 42.875 44.328125 
Q 39.84375 48.1875 33.796875 48.1875 
Q 26.515625 48.1875 22.3125 43.546875 
Q 18.109375 38.921875 18.109375 30.90625 
L 18.109375 0 
L 9.078125 0 
L 9.078125 54.6875 
L 18.109375 54.6875 
L 18.109375 46.1875 
Q 21.34375 51.125 25.703125 53.5625 
Q 30.078125 56 35.796875 56 
Q 45.21875 56 50.046875 50.171875 
Q 54.890625 44.34375 54.890625 33.015625 
z
" id="DejaVuSans-110"/>
    </defs>
    <g transform="translate(320.462937 12.118365)scale(0.12 -0.12)">
     <use xlink:href="#DejaVuSans-67"/>
     <use x="69.824219" xlink:href="#DejaVuSans-97"/>
     <use x="131.103516" xlink:href="#DejaVuSans-115"/>
     <use x="183.203125" xlink:href="#DejaVuSans-111"/>
     <use x="244.384766" xlink:href="#DejaVuSans-115"/>
     <use x="296.484375" xlink:href="#DejaVuSans-32"/>
     <use x="328.271484" xlink:href="#DejaVuSans-110"/>
     <use x="391.650391" xlink:href="#DejaVuSans-111"/>
     <use x="452.832031" xlink:href="#DejaVuSans-118"/>
     <use x="512.011719" xlink:href="#DejaVuSans-111"/>
     <use x="573.193359" xlink:href="#DejaVuSans-115"/>
     <use x="625.292969" xlink:href="#DejaVuSans-32"/>
     <use x="657.080078" xlink:href="#DejaVuSans-45"/>
     <use x="693.164062" xlink:href="#DejaVuSans-32"/>
     <use x="724.951172" xlink:href="#DejaVuSans-65"/>
     <use x="793.359375" xlink:href="#DejaVuSans-76"/>
    </g>
   </g>
  </g>
  <g id="axes_3">
   <g id="patch_222">
    <path d="M 55.490865 312.24351 
L 457.79976 312.24351 
L 457.79976 192.646365 
L 55.490865 192.646365 
z
" style="fill:#ffffff;"/>
   </g>
   <g id="matplotlib.axis_5">
    <g id="xtick_11">
     <g id="line2d_21">
      <g>
       <use style="stroke:#000000;stroke-width:0.8;" x="73.777633" xlink:href="#maba08ee3bf" y="312.24351"/>
      </g>
     </g>
     <g id="text_25">
      <!-- 0 -->
      <g transform="translate(70.596383 326.841947)scale(0.1 -0.1)">
       <use xlink:href="#DejaVuSans-48"/>
      </g>
     </g>
    </g>
    <g id="xtick_12">
     <g id="line2d_22">
      <g>
       <use style="stroke:#000000;stroke-width:0.8;" x="144.111356" xlink:href="#maba08ee3bf" y="312.24351"/>
      </g>
     </g>
     <g id="text_26">
      <!-- 20 -->
      <g transform="translate(137.748856 326.841947)scale(0.1 -0.1)">
       <use xlink:href="#DejaVuSans-50"/>
       <use x="63.623047" xlink:href="#DejaVuSans-48"/>
      </g>
     </g>
    </g>
    <g id="xtick_13">
     <g id="line2d_23">
      <g>
       <use style="stroke:#000000;stroke-width:0.8;" x="214.445079" xlink:href="#maba08ee3bf" y="312.24351"/>
      </g>
     </g>
     <g id="text_27">
      <!-- 40 -->
      <defs>
       <path d="M 37.796875 64.3125 
L 12.890625 25.390625 
L 37.796875 25.390625 
z
M 35.203125 72.90625 
L 47.609375 72.90625 
L 47.609375 25.390625 
L 58.015625 25.390625 
L 58.015625 17.1875 
L 47.609375 17.1875 
L 47.609375 0 
L 37.796875 0 
L 37.796875 17.1875 
L 4.890625 17.1875 
L 4.890625 26.703125 
z
" id="DejaVuSans-52"/>
      </defs>
      <g transform="translate(208.082579 326.841947)scale(0.1 -0.1)">
       <use xlink:href="#DejaVuSans-52"/>
       <use x="63.623047" xlink:href="#DejaVuSans-48"/>
      </g>
     </g>
    </g>
    <g id="xtick_14">
     <g id="line2d_24">
      <g>
       <use style="stroke:#000000;stroke-width:0.8;" x="284.778802" xlink:href="#maba08ee3bf" y="312.24351"/>
      </g>
     </g>
     <g id="text_28">
      <!-- 60 -->
      <defs>
       <path d="M 33.015625 40.375 
Q 26.375 40.375 22.484375 35.828125 
Q 18.609375 31.296875 18.609375 23.390625 
Q 18.609375 15.53125 22.484375 10.953125 
Q 26.375 6.390625 33.015625 6.390625 
Q 39.65625 6.390625 43.53125 10.953125 
Q 47.40625 15.53125 47.40625 23.390625 
Q 47.40625 31.296875 43.53125 35.828125 
Q 39.65625 40.375 33.015625 40.375 
z
M 52.59375 71.296875 
L 52.59375 62.3125 
Q 48.875 64.0625 45.09375 64.984375 
Q 41.3125 65.921875 37.59375 65.921875 
Q 27.828125 65.921875 22.671875 59.328125 
Q 17.53125 52.734375 16.796875 39.40625 
Q 19.671875 43.65625 24.015625 45.921875 
Q 28.375 48.1875 33.59375 48.1875 
Q 44.578125 48.1875 50.953125 41.515625 
Q 57.328125 34.859375 57.328125 23.390625 
Q 57.328125 12.15625 50.6875 5.359375 
Q 44.046875 -1.421875 33.015625 -1.421875 
Q 20.359375 -1.421875 13.671875 8.265625 
Q 6.984375 17.96875 6.984375 36.375 
Q 6.984375 53.65625 15.1875 63.9375 
Q 23.390625 74.21875 37.203125 74.21875 
Q 40.921875 74.21875 44.703125 73.484375 
Q 48.484375 72.75 52.59375 71.296875 
z
" id="DejaVuSans-54"/>
      </defs>
      <g transform="translate(278.416302 326.841947)scale(0.1 -0.1)">
       <use xlink:href="#DejaVuSans-54"/>
       <use x="63.623047" xlink:href="#DejaVuSans-48"/>
      </g>
     </g>
    </g>
    <g id="xtick_15">
     <g id="line2d_25">
      <g>
       <use style="stroke:#000000;stroke-width:0.8;" x="355.112525" xlink:href="#maba08ee3bf" y="312.24351"/>
      </g>
     </g>
     <g id="text_29">
      <!-- 80 -->
      <defs>
       <path d="M 31.78125 34.625 
Q 24.75 34.625 20.71875 30.859375 
Q 16.703125 27.09375 16.703125 20.515625 
Q 16.703125 13.921875 20.71875 10.15625 
Q 24.75 6.390625 31.78125 6.390625 
Q 38.8125 6.390625 42.859375 10.171875 
Q 46.921875 13.96875 46.921875 20.515625 
Q 46.921875 27.09375 42.890625 30.859375 
Q 38.875 34.625 31.78125 34.625 
z
M 21.921875 38.8125 
Q 15.578125 40.375 12.03125 44.71875 
Q 8.5 49.078125 8.5 55.328125 
Q 8.5 64.0625 14.71875 69.140625 
Q 20.953125 74.21875 31.78125 74.21875 
Q 42.671875 74.21875 48.875 69.140625 
Q 55.078125 64.0625 55.078125 55.328125 
Q 55.078125 49.078125 51.53125 44.71875 
Q 48 40.375 41.703125 38.8125 
Q 48.828125 37.15625 52.796875 32.3125 
Q 56.78125 27.484375 56.78125 20.515625 
Q 56.78125 9.90625 50.3125 4.234375 
Q 43.84375 -1.421875 31.78125 -1.421875 
Q 19.734375 -1.421875 13.25 4.234375 
Q 6.78125 9.90625 6.78125 20.515625 
Q 6.78125 27.484375 10.78125 32.3125 
Q 14.796875 37.15625 21.921875 38.8125 
z
M 18.3125 54.390625 
Q 18.3125 48.734375 21.84375 45.5625 
Q 25.390625 42.390625 31.78125 42.390625 
Q 38.140625 42.390625 41.71875 45.5625 
Q 45.3125 48.734375 45.3125 54.390625 
Q 45.3125 60.0625 41.71875 63.234375 
Q 38.140625 66.40625 31.78125 66.40625 
Q 25.390625 66.40625 21.84375 63.234375 
Q 18.3125 60.0625 18.3125 54.390625 
z
" id="DejaVuSans-56"/>
      </defs>
      <g transform="translate(348.750025 326.841947)scale(0.1 -0.1)">
       <use xlink:href="#DejaVuSans-56"/>
       <use x="63.623047" xlink:href="#DejaVuSans-48"/>
      </g>
     </g>
    </g>
    <g id="xtick_16">
     <g id="line2d_26">
      <g>
       <use style="stroke:#000000;stroke-width:0.8;" x="425.446247" xlink:href="#maba08ee3bf" y="312.24351"/>
      </g>
     </g>
     <g id="text_30">
      <!-- 100 -->
      <g transform="translate(415.902497 326.841947)scale(0.1 -0.1)">
       <use xlink:href="#DejaVuSans-49"/>
       <use x="63.623047" xlink:href="#DejaVuSans-48"/>
       <use x="127.246094" xlink:href="#DejaVuSans-48"/>
      </g>
     </g>
    </g>
    <g id="text_31">
     <!-- Dias -->
     <g transform="translate(245.7375 340.520072)scale(0.1 -0.1)">
      <use xlink:href="#DejaVuSans-68"/>
      <use x="77.001953" xlink:href="#DejaVuSans-105"/>
      <use x="104.785156" xlink:href="#DejaVuSans-97"/>
      <use x="166.064453" xlink:href="#DejaVuSans-115"/>
     </g>
    </g>
   </g>
   <g id="matplotlib.axis_6">
    <g id="ytick_9">
     <g id="line2d_27">
      <g>
       <use style="stroke:#000000;stroke-width:0.8;" x="55.490865" xlink:href="#med07b89ec7" y="286.577331"/>
      </g>
     </g>
     <g id="text_32">
      <!-- 1.5 -->
      <defs>
       <path d="M 10.6875 12.40625 
L 21 12.40625 
L 21 0 
L 10.6875 0 
z
" id="DejaVuSans-46"/>
      </defs>
      <g transform="translate(32.58774 290.37655)scale(0.1 -0.1)">
       <use xlink:href="#DejaVuSans-49"/>
       <use x="63.623047" xlink:href="#DejaVuSans-46"/>
       <use x="95.410156" xlink:href="#DejaVuSans-53"/>
      </g>
     </g>
    </g>
    <g id="ytick_10">
     <g id="line2d_28">
      <g>
       <use style="stroke:#000000;stroke-width:0.8;" x="55.490865" xlink:href="#med07b89ec7" y="260.831632"/>
      </g>
     </g>
     <g id="text_33">
      <!-- 2.0 -->
      <g transform="translate(32.58774 264.630851)scale(0.1 -0.1)">
       <use xlink:href="#DejaVuSans-50"/>
       <use x="63.623047" xlink:href="#DejaVuSans-46"/>
       <use x="95.410156" xlink:href="#DejaVuSans-48"/>
      </g>
     </g>
    </g>
    <g id="ytick_11">
     <g id="line2d_29">
      <g>
       <use style="stroke:#000000;stroke-width:0.8;" x="55.490865" xlink:href="#med07b89ec7" y="235.085934"/>
      </g>
     </g>
     <g id="text_34">
      <!-- 2.5 -->
      <g transform="translate(32.58774 238.885152)scale(0.1 -0.1)">
       <use xlink:href="#DejaVuSans-50"/>
       <use x="63.623047" xlink:href="#DejaVuSans-46"/>
       <use x="95.410156" xlink:href="#DejaVuSans-53"/>
      </g>
     </g>
    </g>
    <g id="ytick_12">
     <g id="line2d_30">
      <g>
       <use style="stroke:#000000;stroke-width:0.8;" x="55.490865" xlink:href="#med07b89ec7" y="209.340235"/>
      </g>
     </g>
     <g id="text_35">
      <!-- 3.0 -->
      <g transform="translate(32.58774 213.139453)scale(0.1 -0.1)">
       <use xlink:href="#DejaVuSans-51"/>
       <use x="63.623047" xlink:href="#DejaVuSans-46"/>
       <use x="95.410156" xlink:href="#DejaVuSans-48"/>
      </g>
     </g>
    </g>
    <g id="text_36">
     <!-- r0 -->
     <defs>
      <path d="M 41.109375 46.296875 
Q 39.59375 47.171875 37.8125 47.578125 
Q 36.03125 48 33.890625 48 
Q 26.265625 48 22.1875 43.046875 
Q 18.109375 38.09375 18.109375 28.8125 
L 18.109375 0 
L 9.078125 0 
L 9.078125 54.6875 
L 18.109375 54.6875 
L 18.109375 46.1875 
Q 20.953125 51.171875 25.484375 53.578125 
Q 30.03125 56 36.53125 56 
Q 37.453125 56 38.578125 55.875 
Q 39.703125 55.765625 41.0625 55.515625 
z
" id="DejaVuSans-114"/>
     </defs>
     <g transform="translate(26.508053 257.681656)rotate(-90)scale(0.1 -0.1)">
      <use xlink:href="#DejaVuSans-114"/>
      <use x="41.113281" xlink:href="#DejaVuSans-48"/>
     </g>
    </g>
   </g>
   <g id="line2d_31">
    <path clip-path="url(#p86800016d2)" d="M 73.777633 198.082599 
L 77.294319 202.765853 
L 80.811005 205.452855 
L 84.327691 219.07765 
L 87.844378 215.412384 
L 91.361064 218.948477 
L 94.87775 226.370412 
L 98.394436 234.83477 
L 101.911122 243.690298 
L 105.427808 252.112849 
L 108.944494 261.101366 
L 112.461181 271.611568 
L 115.977867 280.535452 
L 119.494553 287.137074 
L 123.011239 291.988974 
L 126.527925 296.320692 
L 130.044611 299.924559 
L 133.561297 301.831183 
L 137.077984 300.173839 
L 140.59467 296.846308 
L 144.111356 293.538408 
L 147.628042 289.473481 
L 151.144728 285.222274 
L 154.661414 281.926082 
L 158.1781 278.312236 
L 161.694787 275.958389 
L 165.211473 274.024152 
L 168.728159 271.792054 
L 172.244845 269.316225 
L 175.761531 265.166799 
L 179.278217 259.855361 
L 182.794903 256.001977 
L 186.31159 252.999873 
L 189.828276 250.025991 
L 193.344962 247.182259 
L 196.861648 244.9315 
L 200.378334 244.391047 
L 203.89502 244.693063 
L 207.411706 244.921839 
L 210.928393 244.916768 
L 214.445079 246.039793 
L 217.961765 248.118384 
L 221.478451 250.925691 
L 224.995137 253.930554 
L 228.511823 257.375571 
L 232.028509 261.575514 
L 235.545196 266.887874 
L 239.061882 272.26457 
L 242.578568 277.765578 
L 246.095254 283.346334 
L 249.61194 289.019516 
L 253.128626 294.64428 
L 256.645312 299.56041 
L 260.161999 303.020651 
L 263.678685 305.545078 
L 267.195371 306.807276 
L 270.712057 306.410462 
L 274.228743 304.319775 
L 277.745429 300.578955 
L 281.262116 296.359545 
L 284.778802 292.654573 
L 288.295488 289.163041 
L 291.812174 286.186538 
L 295.32886 284.456825 
L 298.845546 283.735714 
L 302.362232 283.920926 
L 305.878919 284.427206 
L 309.395605 284.586059 
L 312.912291 284.922232 
L 316.428977 285.400517 
L 319.945663 285.374008 
L 323.462349 285.064073 
L 326.979035 284.66974 
L 330.495722 284.199674 
L 334.012408 284.130484 
L 337.529094 284.004555 
L 341.04578 283.797761 
L 344.562466 283.83784 
L 348.079152 284.266938 
L 351.595838 285.034518 
L 355.112525 286.069977 
L 358.629211 287.201965 
L 362.145897 288.551857 
L 365.662583 290.189546 
L 369.179269 292.072151 
L 372.695955 293.729557 
L 376.212641 294.680918 
L 379.729328 295.468514 
L 383.246014 296.024036 
L 386.7627 296.495511 
L 390.279386 296.665969 
L 393.796072 296.447317 
L 397.312758 296.377801 
L 400.829444 297.115923 
L 404.346131 297.765858 
L 407.862817 298.517295 
L 411.379503 299.054727 
L 414.896189 299.670547 
L 418.412875 300.450884 
L 421.929561 301.044019 
L 425.446247 301.038312 
L 428.962934 301.118443 
L 432.47962 301.657103 
L 435.996306 301.500522 
L 439.512992 301.356166 
" style="fill:none;stroke:#ff0000;stroke-linecap:square;stroke-width:1.5;"/>
   </g>
   <g id="patch_223">
    <path d="M 55.490865 312.24351 
L 55.490865 192.646365 
" style="fill:none;stroke:#000000;stroke-linecap:square;stroke-linejoin:miter;stroke-width:0.8;"/>
   </g>
   <g id="patch_224">
    <path d="M 457.79976 312.24351 
L 457.79976 192.646365 
" style="fill:none;stroke:#000000;stroke-linecap:square;stroke-linejoin:miter;stroke-width:0.8;"/>
   </g>
   <g id="patch_225">
    <path d="M 55.490865 312.24351 
L 457.79976 312.24351 
" style="fill:none;stroke:#000000;stroke-linecap:square;stroke-linejoin:miter;stroke-width:0.8;"/>
   </g>
   <g id="patch_226">
    <path d="M 55.490865 192.646365 
L 457.79976 192.646365 
" style="fill:none;stroke:#000000;stroke-linecap:square;stroke-linejoin:miter;stroke-width:0.8;"/>
   </g>
   <g id="text_37">
    <!-- r0 aproximado - AL -->
    <defs>
     <path d="M 18.109375 8.203125 
L 18.109375 -20.796875 
L 9.078125 -20.796875 
L 9.078125 54.6875 
L 18.109375 54.6875 
L 18.109375 46.390625 
Q 20.953125 51.265625 25.265625 53.625 
Q 29.59375 56 35.59375 56 
Q 45.5625 56 51.78125 48.09375 
Q 58.015625 40.1875 58.015625 27.296875 
Q 58.015625 14.40625 51.78125 6.484375 
Q 45.5625 -1.421875 35.59375 -1.421875 
Q 29.59375 -1.421875 25.265625 0.953125 
Q 20.953125 3.328125 18.109375 8.203125 
z
M 48.6875 27.296875 
Q 48.6875 37.203125 44.609375 42.84375 
Q 40.53125 48.484375 33.40625 48.484375 
Q 26.265625 48.484375 22.1875 42.84375 
Q 18.109375 37.203125 18.109375 27.296875 
Q 18.109375 17.390625 22.1875 11.75 
Q 26.265625 6.109375 33.40625 6.109375 
Q 40.53125 6.109375 44.609375 11.75 
Q 48.6875 17.390625 48.6875 27.296875 
z
" id="DejaVuSans-112"/>
     <path d="M 54.890625 54.6875 
L 35.109375 28.078125 
L 55.90625 0 
L 45.3125 0 
L 29.390625 21.484375 
L 13.484375 0 
L 2.875 0 
L 24.125 28.609375 
L 4.6875 54.6875 
L 15.28125 54.6875 
L 29.78125 35.203125 
L 44.28125 54.6875 
z
" id="DejaVuSans-120"/>
    </defs>
    <g transform="translate(199.5075 186.646365)scale(0.12 -0.12)">
     <use xlink:href="#DejaVuSans-114"/>
     <use x="41.113281" xlink:href="#DejaVuSans-48"/>
     <use x="104.736328" xlink:href="#DejaVuSans-32"/>
     <use x="136.523438" xlink:href="#DejaVuSans-97"/>
     <use x="197.802734" xlink:href="#DejaVuSans-112"/>
     <use x="261.279297" xlink:href="#DejaVuSans-114"/>
     <use x="300.142578" xlink:href="#DejaVuSans-111"/>
     <use x="358.199219" xlink:href="#DejaVuSans-120"/>
     <use x="417.378906" xlink:href="#DejaVuSans-105"/>
     <use x="445.162109" xlink:href="#DejaVuSans-109"/>
     <use x="542.574219" xlink:href="#DejaVuSans-97"/>
     <use x="603.853516" xlink:href="#DejaVuSans-100"/>
     <use x="667.330078" xlink:href="#DejaVuSans-111"/>
     <use x="728.511719" xlink:href="#DejaVuSans-32"/>
     <use x="760.298828" xlink:href="#DejaVuSans-45"/>
     <use x="796.382812" xlink:href="#DejaVuSans-32"/>
     <use x="828.169922" xlink:href="#DejaVuSans-65"/>
     <use x="896.578125" xlink:href="#DejaVuSans-76"/>
    </g>
   </g>
  </g>
 </g>
 <defs>
  <clipPath id="pf6ebf898ef">
   <rect height="119.597145" width="172.786145" x="55.490865" y="18.118365"/>
  </clipPath>
  <clipPath id="p291be8280d">
   <rect height="119.597145" width="172.786145" x="285.013615" y="18.118365"/>
  </clipPath>
  <clipPath id="p86800016d2">
   <rect height="119.597145" width="402.308895" x="55.490865" y="192.646365"/>
  </clipPath>
 </defs>
</svg>
