<?xml version="1.0" encoding="utf-8" standalone="no"?>
<!DOCTYPE svg PUBLIC "-//W3C//DTD SVG 1.1//EN"
  "http://www.w3.org/Graphics/SVG/1.1/DTD/svg11.dtd">
<!-- Created with matplotlib (https://matplotlib.org/) -->
<svg height="345.6pt" version="1.1" viewBox="0 0 460.8 345.6" width="460.8pt" xmlns="http://www.w3.org/2000/svg" xmlns:xlink="http://www.w3.org/1999/xlink">
 <defs>
  <style type="text/css">
*{stroke-linecap:butt;stroke-linejoin:round;}
  </style>
 </defs>
 <g id="figure_1">
  <g id="patch_1">
   <path d="M 0 345.6 
L 460.8 345.6 
L 460.8 0 
L 0 0 
z
" style="fill:#ffffff;"/>
  </g>
  <g id="axes_1">
   <g id="patch_2">
    <path d="M 54.644998 325.921635 
L 133.396952 325.921635 
L 133.396952 18.118365 
L 54.644998 18.118365 
z
" style="fill:#ffffff;"/>
   </g>
   <g id="patch_3">
    <path clip-path="url(#p9d91ab38e4)" d="M 58.224633 325.921635 
L 58.810258 325.921635 
L 58.810258 325.917024 
L 58.224633 325.917024 
z
" style="fill:#1f77b4;"/>
   </g>
   <g id="patch_4">
    <path clip-path="url(#p9d91ab38e4)" d="M 58.956664 325.921635 
L 59.542289 325.921635 
L 59.542289 325.917024 
L 58.956664 325.917024 
z
" style="fill:#1f77b4;"/>
   </g>
   <g id="patch_5">
    <path clip-path="url(#p9d91ab38e4)" d="M 59.688696 325.921635 
L 60.274321 325.921635 
L 60.274321 325.917024 
L 59.688696 325.917024 
z
" style="fill:#1f77b4;"/>
   </g>
   <g id="patch_6">
    <path clip-path="url(#p9d91ab38e4)" d="M 60.420727 325.921635 
L 61.006352 325.921635 
L 61.006352 325.907801 
L 60.420727 325.907801 
z
" style="fill:#1f77b4;"/>
   </g>
   <g id="patch_7">
    <path clip-path="url(#p9d91ab38e4)" d="M 61.152759 325.921635 
L 61.738384 325.921635 
L 61.738384 325.907801 
L 61.152759 325.907801 
z
" style="fill:#1f77b4;"/>
   </g>
   <g id="patch_8">
    <path clip-path="url(#p9d91ab38e4)" d="M 61.88479 325.921635 
L 62.470415 325.921635 
L 62.470415 325.870911 
L 61.88479 325.870911 
z
" style="fill:#1f77b4;"/>
   </g>
   <g id="patch_9">
    <path clip-path="url(#p9d91ab38e4)" d="M 62.616822 325.921635 
L 63.202447 325.921635 
L 63.202447 325.801741 
L 62.616822 325.801741 
z
" style="fill:#1f77b4;"/>
   </g>
   <g id="patch_10">
    <path clip-path="url(#p9d91ab38e4)" d="M 63.348853 325.921635 
L 63.934479 325.921635 
L 63.934479 325.774073 
L 63.348853 325.774073 
z
" style="fill:#1f77b4;"/>
   </g>
   <g id="patch_11">
    <path clip-path="url(#p9d91ab38e4)" d="M 64.080885 325.921635 
L 64.66651 325.921635 
L 64.66651 325.704903 
L 64.080885 325.704903 
z
" style="fill:#1f77b4;"/>
   </g>
   <g id="patch_12">
    <path clip-path="url(#p9d91ab38e4)" d="M 64.812916 325.921635 
L 65.398542 325.921635 
L 65.398542 325.672624 
L 64.812916 325.672624 
z
" style="fill:#1f77b4;"/>
   </g>
   <g id="patch_13">
    <path clip-path="url(#p9d91ab38e4)" d="M 65.544948 325.921635 
L 66.130573 325.921635 
L 66.130573 325.612677 
L 65.544948 325.612677 
z
" style="fill:#1f77b4;"/>
   </g>
   <g id="patch_14">
    <path clip-path="url(#p9d91ab38e4)" d="M 66.27698 325.921635 
L 66.862605 325.921635 
L 66.862605 325.548119 
L 66.27698 325.548119 
z
" style="fill:#1f77b4;"/>
   </g>
   <g id="patch_15">
    <path clip-path="url(#p9d91ab38e4)" d="M 67.009011 325.921635 
L 67.594636 325.921635 
L 67.594636 325.40978 
L 67.009011 325.40978 
z
" style="fill:#1f77b4;"/>
   </g>
   <g id="patch_16">
    <path clip-path="url(#p9d91ab38e4)" d="M 67.741043 325.921635 
L 68.326668 325.921635 
L 68.326668 325.276052 
L 67.741043 325.276052 
z
" style="fill:#1f77b4;"/>
   </g>
   <g id="patch_17">
    <path clip-path="url(#p9d91ab38e4)" d="M 68.473074 325.921635 
L 69.058699 325.921635 
L 69.058699 325.225327 
L 68.473074 325.225327 
z
" style="fill:#1f77b4;"/>
   </g>
   <g id="patch_18">
    <path clip-path="url(#p9d91ab38e4)" d="M 69.205106 325.921635 
L 69.790731 325.921635 
L 69.790731 325.114656 
L 69.205106 325.114656 
z
" style="fill:#1f77b4;"/>
   </g>
   <g id="patch_19">
    <path clip-path="url(#p9d91ab38e4)" d="M 69.937137 325.921635 
L 70.522763 325.921635 
L 70.522763 324.999373 
L 69.937137 324.999373 
z
" style="fill:#1f77b4;"/>
   </g>
   <g id="patch_20">
    <path clip-path="url(#p9d91ab38e4)" d="M 70.669169 325.921635 
L 71.254794 325.921635 
L 71.254794 324.865645 
L 70.669169 324.865645 
z
" style="fill:#1f77b4;"/>
   </g>
   <g id="patch_21">
    <path clip-path="url(#p9d91ab38e4)" d="M 71.4012 325.921635 
L 71.986826 325.921635 
L 71.986826 324.722695 
L 71.4012 324.722695 
z
" style="fill:#1f77b4;"/>
   </g>
   <g id="patch_22">
    <path clip-path="url(#p9d91ab38e4)" d="M 72.133232 325.921635 
L 72.718857 325.921635 
L 72.718857 324.487518 
L 72.133232 324.487518 
z
" style="fill:#1f77b4;"/>
   </g>
   <g id="patch_23">
    <path clip-path="url(#p9d91ab38e4)" d="M 72.865263 325.921635 
L 73.450889 325.921635 
L 73.450889 323.998719 
L 72.865263 323.998719 
z
" style="fill:#1f77b4;"/>
   </g>
   <g id="patch_24">
    <path clip-path="url(#p9d91ab38e4)" d="M 73.597295 325.921635 
L 74.18292 325.921635 
L 74.18292 323.468419 
L 73.597295 323.468419 
z
" style="fill:#1f77b4;"/>
   </g>
   <g id="patch_25">
    <path clip-path="url(#p9d91ab38e4)" d="M 74.329327 325.921635 
L 74.914952 325.921635 
L 74.914952 322.988843 
L 74.329327 322.988843 
z
" style="fill:#1f77b4;"/>
   </g>
   <g id="patch_26">
    <path clip-path="url(#p9d91ab38e4)" d="M 75.061358 325.921635 
L 75.646983 325.921635 
L 75.646983 322.214143 
L 75.061358 322.214143 
z
" style="fill:#1f77b4;"/>
   </g>
   <g id="patch_27">
    <path clip-path="url(#p9d91ab38e4)" d="M 75.79339 325.921635 
L 76.379015 325.921635 
L 76.379015 321.776069 
L 75.79339 321.776069 
z
" style="fill:#1f77b4;"/>
   </g>
   <g id="patch_28">
    <path clip-path="url(#p9d91ab38e4)" d="M 76.525421 325.921635 
L 77.111046 325.921635 
L 77.111046 321.397941 
L 76.525421 321.397941 
z
" style="fill:#1f77b4;"/>
   </g>
   <g id="patch_29">
    <path clip-path="url(#p9d91ab38e4)" d="M 77.257453 325.921635 
L 77.843078 325.921635 
L 77.843078 321.079761 
L 77.257453 321.079761 
z
" style="fill:#1f77b4;"/>
   </g>
   <g id="patch_30">
    <path clip-path="url(#p9d91ab38e4)" d="M 77.989484 325.921635 
L 78.57511 325.921635 
L 78.57511 320.360397 
L 77.989484 320.360397 
z
" style="fill:#1f77b4;"/>
   </g>
   <g id="patch_31">
    <path clip-path="url(#p9d91ab38e4)" d="M 78.721516 325.921635 
L 79.307141 325.921635 
L 79.307141 320.042217 
L 78.721516 320.042217 
z
" style="fill:#1f77b4;"/>
   </g>
   <g id="patch_32">
    <path clip-path="url(#p9d91ab38e4)" d="M 79.453547 325.921635 
L 80.039173 325.921635 
L 80.039173 319.078453 
L 79.453547 319.078453 
z
" style="fill:#1f77b4;"/>
   </g>
   <g id="patch_33">
    <path clip-path="url(#p9d91ab38e4)" d="M 80.185579 325.921635 
L 80.771204 325.921635 
L 80.771204 318.755661 
L 80.185579 318.755661 
z
" style="fill:#1f77b4;"/>
   </g>
   <g id="patch_34">
    <path clip-path="url(#p9d91ab38e4)" d="M 80.91761 325.921635 
L 81.503236 325.921635 
L 81.503236 317.994796 
L 80.91761 317.994796 
z
" style="fill:#1f77b4;"/>
   </g>
   <g id="patch_35">
    <path clip-path="url(#p9d91ab38e4)" d="M 81.649642 325.921635 
L 82.235267 325.921635 
L 82.235267 317.579778 
L 81.649642 317.579778 
z
" style="fill:#1f77b4;"/>
   </g>
   <g id="patch_36">
    <path clip-path="url(#p9d91ab38e4)" d="M 82.381674 325.921635 
L 82.967299 325.921635 
L 82.967299 317.173983 
L 82.381674 317.173983 
z
" style="fill:#1f77b4;"/>
   </g>
   <g id="patch_37">
    <path clip-path="url(#p9d91ab38e4)" d="M 83.113705 325.921635 
L 83.69933 325.921635 
L 83.69933 316.49612 
L 83.113705 316.49612 
z
" style="fill:#1f77b4;"/>
   </g>
   <g id="patch_38">
    <path clip-path="url(#p9d91ab38e4)" d="M 83.845737 325.921635 
L 84.431362 325.921635 
L 84.431362 315.961208 
L 83.845737 315.961208 
z
" style="fill:#1f77b4;"/>
   </g>
   <g id="patch_39">
    <path clip-path="url(#p9d91ab38e4)" d="M 84.577768 325.921635 
L 85.163393 325.921635 
L 85.163393 315.453965 
L 84.577768 315.453965 
z
" style="fill:#1f77b4;"/>
   </g>
   <g id="patch_40">
    <path clip-path="url(#p9d91ab38e4)" d="M 85.3098 325.921635 
L 85.895425 325.921635 
L 85.895425 314.490201 
L 85.3098 314.490201 
z
" style="fill:#1f77b4;"/>
   </g>
   <g id="patch_41">
    <path clip-path="url(#p9d91ab38e4)" d="M 86.041831 325.921635 
L 86.627457 325.921635 
L 86.627457 312.604176 
L 86.041831 312.604176 
z
" style="fill:#1f77b4;"/>
   </g>
   <g id="patch_42">
    <path clip-path="url(#p9d91ab38e4)" d="M 86.773863 325.921635 
L 87.359488 325.921635 
L 87.359488 311.193115 
L 86.773863 311.193115 
z
" style="fill:#1f77b4;"/>
   </g>
   <g id="patch_43">
    <path clip-path="url(#p9d91ab38e4)" d="M 87.505894 325.921635 
L 88.09152 325.921635 
L 88.09152 309.159528 
L 87.505894 309.159528 
z
" style="fill:#1f77b4;"/>
   </g>
   <g id="patch_44">
    <path clip-path="url(#p9d91ab38e4)" d="M 88.237926 325.921635 
L 88.823551 325.921635 
L 88.823551 308.246489 
L 88.237926 308.246489 
z
" style="fill:#1f77b4;"/>
   </g>
   <g id="patch_45">
    <path clip-path="url(#p9d91ab38e4)" d="M 88.969957 325.921635 
L 89.555583 325.921635 
L 89.555583 307.808415 
L 88.969957 307.808415 
z
" style="fill:#1f77b4;"/>
   </g>
   <g id="patch_46">
    <path clip-path="url(#p9d91ab38e4)" d="M 89.701989 325.921635 
L 90.287614 325.921635 
L 90.287614 305.92239 
L 89.701989 305.92239 
z
" style="fill:#1f77b4;"/>
   </g>
   <g id="patch_47">
    <path clip-path="url(#p9d91ab38e4)" d="M 90.434021 325.921635 
L 91.019646 325.921635 
L 91.019646 303.782743 
L 90.434021 303.782743 
z
" style="fill:#1f77b4;"/>
   </g>
   <g id="patch_48">
    <path clip-path="url(#p9d91ab38e4)" d="M 91.166052 325.921635 
L 91.751677 325.921635 
L 91.751677 301.69382 
L 91.166052 301.69382 
z
" style="fill:#1f77b4;"/>
   </g>
   <g id="patch_49">
    <path clip-path="url(#p9d91ab38e4)" d="M 91.898084 325.921635 
L 92.483709 325.921635 
L 92.483709 299.531116 
L 91.898084 299.531116 
z
" style="fill:#1f77b4;"/>
   </g>
   <g id="patch_50">
    <path clip-path="url(#p9d91ab38e4)" d="M 92.630115 325.921635 
L 93.21574 325.921635 
L 93.21574 297.967882 
L 92.630115 297.967882 
z
" style="fill:#1f77b4;"/>
   </g>
   <g id="patch_51">
    <path clip-path="url(#p9d91ab38e4)" d="M 93.362147 325.921635 
L 93.947772 325.921635 
L 93.947772 295.10426 
L 93.362147 295.10426 
z
" style="fill:#1f77b4;"/>
   </g>
   <g id="patch_52">
    <path clip-path="url(#p9d91ab38e4)" d="M 94.094178 325.921635 
L 94.679804 325.921635 
L 94.679804 292.526538 
L 94.094178 292.526538 
z
" style="fill:#1f77b4;"/>
   </g>
   <g id="patch_53">
    <path clip-path="url(#p9d91ab38e4)" d="M 94.82621 325.921635 
L 95.411835 325.921635 
L 95.411835 288.528534 
L 94.82621 288.528534 
z
" style="fill:#1f77b4;"/>
   </g>
   <g id="patch_54">
    <path clip-path="url(#p9d91ab38e4)" d="M 95.558241 325.921635 
L 96.143867 325.921635 
L 96.143867 283.29931 
L 95.558241 283.29931 
z
" style="fill:#1f77b4;"/>
   </g>
   <g id="patch_55">
    <path clip-path="url(#p9d91ab38e4)" d="M 96.290273 325.921635 
L 96.875898 325.921635 
L 96.875898 279.35203 
L 96.290273 279.35203 
z
" style="fill:#1f77b4;"/>
   </g>
   <g id="patch_56">
    <path clip-path="url(#p9d91ab38e4)" d="M 97.022304 325.921635 
L 97.60793 325.921635 
L 97.60793 276.456128 
L 97.022304 276.456128 
z
" style="fill:#1f77b4;"/>
   </g>
   <g id="patch_57">
    <path clip-path="url(#p9d91ab38e4)" d="M 97.754336 325.921635 
L 98.339961 325.921635 
L 98.339961 270.93178 
L 97.754336 270.93178 
z
" style="fill:#1f77b4;"/>
   </g>
   <g id="patch_58">
    <path clip-path="url(#p9d91ab38e4)" d="M 98.486368 325.921635 
L 99.071993 325.921635 
L 99.071993 267.823758 
L 98.486368 267.823758 
z
" style="fill:#1f77b4;"/>
   </g>
   <g id="patch_59">
    <path clip-path="url(#p9d91ab38e4)" d="M 99.218399 325.921635 
L 99.804024 325.921635 
L 99.804024 266.34814 
L 99.218399 266.34814 
z
" style="fill:#1f77b4;"/>
   </g>
   <g id="patch_60">
    <path clip-path="url(#p9d91ab38e4)" d="M 99.950431 325.921635 
L 100.536056 325.921635 
L 100.536056 260.588615 
L 99.950431 260.588615 
z
" style="fill:#1f77b4;"/>
   </g>
   <g id="patch_61">
    <path clip-path="url(#p9d91ab38e4)" d="M 100.682462 325.921635 
L 101.268087 325.921635 
L 101.268087 252.989179 
L 100.682462 252.989179 
z
" style="fill:#1f77b4;"/>
   </g>
   <g id="patch_62">
    <path clip-path="url(#p9d91ab38e4)" d="M 101.414494 325.921635 
L 102.000119 325.921635 
L 102.000119 246.694742 
L 101.414494 246.694742 
z
" style="fill:#1f77b4;"/>
   </g>
   <g id="patch_63">
    <path clip-path="url(#p9d91ab38e4)" d="M 102.146525 325.921635 
L 102.732151 325.921635 
L 102.732151 241.110448 
L 102.146525 241.110448 
z
" style="fill:#1f77b4;"/>
   </g>
   <g id="patch_64">
    <path clip-path="url(#p9d91ab38e4)" d="M 102.878557 325.921635 
L 103.464182 325.921635 
L 103.464182 235.184916 
L 102.878557 235.184916 
z
" style="fill:#1f77b4;"/>
   </g>
   <g id="patch_65">
    <path clip-path="url(#p9d91ab38e4)" d="M 103.610588 325.921635 
L 104.196214 325.921635 
L 104.196214 232.182954 
L 103.610588 232.182954 
z
" style="fill:#1f77b4;"/>
   </g>
   <g id="patch_66">
    <path clip-path="url(#p9d91ab38e4)" d="M 104.34262 325.921635 
L 104.928245 325.921635 
L 104.928245 229.485339 
L 104.34262 229.485339 
z
" style="fill:#1f77b4;"/>
   </g>
   <g id="patch_67">
    <path clip-path="url(#p9d91ab38e4)" d="M 105.074651 325.921635 
L 105.660277 325.921635 
L 105.660277 223.864154 
L 105.074651 223.864154 
z
" style="fill:#1f77b4;"/>
   </g>
   <g id="patch_68">
    <path clip-path="url(#p9d91ab38e4)" d="M 105.806683 325.921635 
L 106.392308 325.921635 
L 106.392308 216.615177 
L 105.806683 216.615177 
z
" style="fill:#1f77b4;"/>
   </g>
   <g id="patch_69">
    <path clip-path="url(#p9d91ab38e4)" d="M 106.538715 325.921635 
L 107.12434 325.921635 
L 107.12434 208.946571 
L 106.538715 208.946571 
z
" style="fill:#1f77b4;"/>
   </g>
   <g id="patch_70">
    <path clip-path="url(#p9d91ab38e4)" d="M 107.270746 325.921635 
L 107.856371 325.921635 
L 107.856371 201.241074 
L 107.270746 201.241074 
z
" style="fill:#1f77b4;"/>
   </g>
   <g id="patch_71">
    <path clip-path="url(#p9d91ab38e4)" d="M 108.002778 325.921635 
L 108.588403 325.921635 
L 108.588403 193.106726 
L 108.002778 193.106726 
z
" style="fill:#1f77b4;"/>
   </g>
   <g id="patch_72">
    <path clip-path="url(#p9d91ab38e4)" d="M 108.734809 325.921635 
L 109.320434 325.921635 
L 109.320434 188.195682 
L 108.734809 188.195682 
z
" style="fill:#1f77b4;"/>
   </g>
   <g id="patch_73">
    <path clip-path="url(#p9d91ab38e4)" d="M 109.466841 325.921635 
L 110.052466 325.921635 
L 110.052466 186.281989 
L 109.466841 186.281989 
z
" style="fill:#1f77b4;"/>
   </g>
   <g id="patch_74">
    <path clip-path="url(#p9d91ab38e4)" d="M 110.198872 325.921635 
L 110.784498 325.921635 
L 110.784498 178.594938 
L 110.198872 178.594938 
z
" style="fill:#1f77b4;"/>
   </g>
   <g id="patch_75">
    <path clip-path="url(#p9d91ab38e4)" d="M 110.930904 325.921635 
L 111.516529 325.921635 
L 111.516529 171.405907 
L 110.930904 171.405907 
z
" style="fill:#1f77b4;"/>
   </g>
   <g id="patch_76">
    <path clip-path="url(#p9d91ab38e4)" d="M 111.662935 325.921635 
L 112.248561 325.921635 
L 112.248561 159.241275 
L 111.662935 159.241275 
z
" style="fill:#1f77b4;"/>
   </g>
   <g id="patch_77">
    <path clip-path="url(#p9d91ab38e4)" d="M 112.394967 325.921635 
L 112.980592 325.921635 
L 112.980592 146.50023 
L 112.394967 146.50023 
z
" style="fill:#1f77b4;"/>
   </g>
   <g id="patch_78">
    <path clip-path="url(#p9d91ab38e4)" d="M 113.126999 325.921635 
L 113.712624 325.921635 
L 113.712624 138.886959 
L 113.126999 138.886959 
z
" style="fill:#1f77b4;"/>
   </g>
   <g id="patch_79">
    <path clip-path="url(#p9d91ab38e4)" d="M 113.85903 325.921635 
L 114.444655 325.921635 
L 114.444655 135.114909 
L 113.85903 135.114909 
z
" style="fill:#1f77b4;"/>
   </g>
   <g id="patch_80">
    <path clip-path="url(#p9d91ab38e4)" d="M 114.591062 325.921635 
L 115.176687 325.921635 
L 115.176687 133.288831 
L 114.591062 133.288831 
z
" style="fill:#1f77b4;"/>
   </g>
   <g id="patch_81">
    <path clip-path="url(#p9d91ab38e4)" d="M 115.323093 325.921635 
L 115.908718 325.921635 
L 115.908718 126.736161 
L 115.323093 126.736161 
z
" style="fill:#1f77b4;"/>
   </g>
   <g id="patch_82">
    <path clip-path="url(#p9d91ab38e4)" d="M 116.055125 325.921635 
L 116.64075 325.921635 
L 116.64075 121.423934 
L 116.055125 121.423934 
z
" style="fill:#1f77b4;"/>
   </g>
   <g id="patch_83">
    <path clip-path="url(#p9d91ab38e4)" d="M 116.787156 325.921635 
L 117.372781 325.921635 
L 117.372781 111.620292 
L 116.787156 111.620292 
z
" style="fill:#1f77b4;"/>
   </g>
   <g id="patch_84">
    <path clip-path="url(#p9d91ab38e4)" d="M 117.519188 325.921635 
L 118.104813 325.921635 
L 118.104813 106.119001 
L 117.519188 106.119001 
z
" style="fill:#1f77b4;"/>
   </g>
   <g id="patch_85">
    <path clip-path="url(#p9d91ab38e4)" d="M 118.251219 325.921635 
L 118.836845 325.921635 
L 118.836845 100.958946 
L 118.251219 100.958946 
z
" style="fill:#1f77b4;"/>
   </g>
   <g id="patch_86">
    <path clip-path="url(#p9d91ab38e4)" d="M 118.983251 325.921635 
L 119.568876 325.921635 
L 119.568876 98.727073 
L 118.983251 98.727073 
z
" style="fill:#1f77b4;"/>
   </g>
   <g id="patch_87">
    <path clip-path="url(#p9d91ab38e4)" d="M 119.715282 325.921635 
L 120.300908 325.921635 
L 120.300908 96.227744 
L 119.715282 96.227744 
z
" style="fill:#1f77b4;"/>
   </g>
   <g id="patch_88">
    <path clip-path="url(#p9d91ab38e4)" d="M 120.447314 325.921635 
L 121.032939 325.921635 
L 121.032939 89.665852 
L 120.447314 89.665852 
z
" style="fill:#1f77b4;"/>
   </g>
   <g id="patch_89">
    <path clip-path="url(#p9d91ab38e4)" d="M 121.179346 325.921635 
L 121.764971 325.921635 
L 121.764971 82.218588 
L 121.179346 82.218588 
z
" style="fill:#1f77b4;"/>
   </g>
   <g id="patch_90">
    <path clip-path="url(#p9d91ab38e4)" d="M 121.911377 325.921635 
L 122.497002 325.921635 
L 122.497002 76.961697 
L 121.911377 76.961697 
z
" style="fill:#1f77b4;"/>
   </g>
   <g id="patch_91">
    <path clip-path="url(#p9d91ab38e4)" d="M 122.643409 325.921635 
L 123.229034 325.921635 
L 123.229034 71.787808 
L 122.643409 71.787808 
z
" style="fill:#1f77b4;"/>
   </g>
   <g id="patch_92">
    <path clip-path="url(#p9d91ab38e4)" d="M 123.37544 325.921635 
L 123.961065 325.921635 
L 123.961065 67.568461 
L 123.37544 67.568461 
z
" style="fill:#1f77b4;"/>
   </g>
   <g id="patch_93">
    <path clip-path="url(#p9d91ab38e4)" d="M 124.107472 325.921635 
L 124.693097 325.921635 
L 124.693097 65.355033 
L 124.107472 65.355033 
z
" style="fill:#1f77b4;"/>
   </g>
   <g id="patch_94">
    <path clip-path="url(#p9d91ab38e4)" d="M 124.839503 325.921635 
L 125.425128 325.921635 
L 125.425128 64.105368 
L 124.839503 64.105368 
z
" style="fill:#1f77b4;"/>
   </g>
   <g id="patch_95">
    <path clip-path="url(#p9d91ab38e4)" d="M 125.571535 325.921635 
L 126.15716 325.921635 
L 126.15716 58.382734 
L 125.571535 58.382734 
z
" style="fill:#1f77b4;"/>
   </g>
   <g id="patch_96">
    <path clip-path="url(#p9d91ab38e4)" d="M 126.303566 325.921635 
L 126.889192 325.921635 
L 126.889192 51.332044 
L 126.303566 51.332044 
z
" style="fill:#1f77b4;"/>
   </g>
   <g id="patch_97">
    <path clip-path="url(#p9d91ab38e4)" d="M 127.035598 325.921635 
L 127.621223 325.921635 
L 127.621223 45.849198 
L 127.035598 45.849198 
z
" style="fill:#1f77b4;"/>
   </g>
   <g id="patch_98">
    <path clip-path="url(#p9d91ab38e4)" d="M 127.767629 325.921635 
L 128.353255 325.921635 
L 128.353255 41.482289 
L 127.767629 41.482289 
z
" style="fill:#1f77b4;"/>
   </g>
   <g id="patch_99">
    <path clip-path="url(#p9d91ab38e4)" d="M 128.499661 325.921635 
L 129.085286 325.921635 
L 129.085286 35.861103 
L 128.499661 35.861103 
z
" style="fill:#1f77b4;"/>
   </g>
   <g id="patch_100">
    <path clip-path="url(#p9d91ab38e4)" d="M 129.231693 325.921635 
L 129.817318 325.921635 
L 129.817318 33.518559 
L 129.231693 33.518559 
z
" style="fill:#1f77b4;"/>
   </g>
   <g id="matplotlib.axis_1">
    <g id="xtick_1">
     <g id="line2d_1">
      <defs>
       <path d="M 0 0 
L 0 3.5 
" id="m8e0a89f6ec" style="stroke:#000000;stroke-width:0.8;"/>
      </defs>
      <g>
       <use style="stroke:#000000;stroke-width:0.8;" x="58.517445" xlink:href="#m8e0a89f6ec" y="325.921635"/>
      </g>
     </g>
     <g id="text_1">
      <!-- 0 -->
      <defs>
       <path d="M 31.78125 66.40625 
Q 24.171875 66.40625 20.328125 58.90625 
Q 16.5 51.421875 16.5 36.375 
Q 16.5 21.390625 20.328125 13.890625 
Q 24.171875 6.390625 31.78125 6.390625 
Q 39.453125 6.390625 43.28125 13.890625 
Q 47.125 21.390625 47.125 36.375 
Q 47.125 51.421875 43.28125 58.90625 
Q 39.453125 66.40625 31.78125 66.40625 
z
M 31.78125 74.21875 
Q 44.046875 74.21875 50.515625 64.515625 
Q 56.984375 54.828125 56.984375 36.375 
Q 56.984375 17.96875 50.515625 8.265625 
Q 44.046875 -1.421875 31.78125 -1.421875 
Q 19.53125 -1.421875 13.0625 8.265625 
Q 6.59375 17.96875 6.59375 36.375 
Q 6.59375 54.828125 13.0625 64.515625 
Q 19.53125 74.21875 31.78125 74.21875 
z
" id="DejaVuSans-48"/>
      </defs>
      <g transform="translate(55.336195 340.520072)scale(0.1 -0.1)">
       <use xlink:href="#DejaVuSans-48"/>
      </g>
     </g>
    </g>
    <g id="xtick_2">
     <g id="line2d_2">
      <g>
       <use style="stroke:#000000;stroke-width:0.8;" x="131.7206" xlink:href="#m8e0a89f6ec" y="325.921635"/>
      </g>
     </g>
     <g id="text_2">
      <!-- 100 -->
      <defs>
       <path d="M 12.40625 8.296875 
L 28.515625 8.296875 
L 28.515625 63.921875 
L 10.984375 60.40625 
L 10.984375 69.390625 
L 28.421875 72.90625 
L 38.28125 72.90625 
L 38.28125 8.296875 
L 54.390625 8.296875 
L 54.390625 0 
L 12.40625 0 
z
" id="DejaVuSans-49"/>
      </defs>
      <g transform="translate(122.17685 340.520072)scale(0.1 -0.1)">
       <use xlink:href="#DejaVuSans-49"/>
       <use x="63.623047" xlink:href="#DejaVuSans-48"/>
       <use x="127.246094" xlink:href="#DejaVuSans-48"/>
      </g>
     </g>
    </g>
   </g>
   <g id="matplotlib.axis_2">
    <g id="ytick_1">
     <g id="line2d_3">
      <defs>
       <path d="M 0 0 
L -3.5 0 
" id="m60ea5a949e" style="stroke:#000000;stroke-width:0.8;"/>
      </defs>
      <g>
       <use style="stroke:#000000;stroke-width:0.8;" x="54.644998" xlink:href="#m60ea5a949e" y="325.921635"/>
      </g>
     </g>
     <g id="text_3">
      <!-- 0 -->
      <g transform="translate(41.282498 329.720854)scale(0.1 -0.1)">
       <use xlink:href="#DejaVuSans-48"/>
      </g>
     </g>
    </g>
    <g id="ytick_2">
     <g id="line2d_4">
      <g>
       <use style="stroke:#000000;stroke-width:0.8;" x="54.644998" xlink:href="#m60ea5a949e" y="279.808549"/>
      </g>
     </g>
     <g id="text_4">
      <!-- 10000 -->
      <g transform="translate(15.832498 283.607768)scale(0.1 -0.1)">
       <use xlink:href="#DejaVuSans-49"/>
       <use x="63.623047" xlink:href="#DejaVuSans-48"/>
       <use x="127.246094" xlink:href="#DejaVuSans-48"/>
       <use x="190.869141" xlink:href="#DejaVuSans-48"/>
       <use x="254.492188" xlink:href="#DejaVuSans-48"/>
      </g>
     </g>
    </g>
    <g id="ytick_3">
     <g id="line2d_5">
      <g>
       <use style="stroke:#000000;stroke-width:0.8;" x="54.644998" xlink:href="#m60ea5a949e" y="233.695464"/>
      </g>
     </g>
     <g id="text_5">
      <!-- 20000 -->
      <defs>
       <path d="M 19.1875 8.296875 
L 53.609375 8.296875 
L 53.609375 0 
L 7.328125 0 
L 7.328125 8.296875 
Q 12.9375 14.109375 22.625 23.890625 
Q 32.328125 33.6875 34.8125 36.53125 
Q 39.546875 41.84375 41.421875 45.53125 
Q 43.3125 49.21875 43.3125 52.78125 
Q 43.3125 58.59375 39.234375 62.25 
Q 35.15625 65.921875 28.609375 65.921875 
Q 23.96875 65.921875 18.8125 64.3125 
Q 13.671875 62.703125 7.8125 59.421875 
L 7.8125 69.390625 
Q 13.765625 71.78125 18.9375 73 
Q 24.125 74.21875 28.421875 74.21875 
Q 39.75 74.21875 46.484375 68.546875 
Q 53.21875 62.890625 53.21875 53.421875 
Q 53.21875 48.921875 51.53125 44.890625 
Q 49.859375 40.875 45.40625 35.40625 
Q 44.1875 33.984375 37.640625 27.21875 
Q 31.109375 20.453125 19.1875 8.296875 
z
" id="DejaVuSans-50"/>
      </defs>
      <g transform="translate(15.832498 237.494682)scale(0.1 -0.1)">
       <use xlink:href="#DejaVuSans-50"/>
       <use x="63.623047" xlink:href="#DejaVuSans-48"/>
       <use x="127.246094" xlink:href="#DejaVuSans-48"/>
       <use x="190.869141" xlink:href="#DejaVuSans-48"/>
       <use x="254.492188" xlink:href="#DejaVuSans-48"/>
      </g>
     </g>
    </g>
    <g id="ytick_4">
     <g id="line2d_6">
      <g>
       <use style="stroke:#000000;stroke-width:0.8;" x="54.644998" xlink:href="#m60ea5a949e" y="187.582378"/>
      </g>
     </g>
     <g id="text_6">
      <!-- 30000 -->
      <defs>
       <path d="M 40.578125 39.3125 
Q 47.65625 37.796875 51.625 33 
Q 55.609375 28.21875 55.609375 21.1875 
Q 55.609375 10.40625 48.1875 4.484375 
Q 40.765625 -1.421875 27.09375 -1.421875 
Q 22.515625 -1.421875 17.65625 -0.515625 
Q 12.796875 0.390625 7.625 2.203125 
L 7.625 11.71875 
Q 11.71875 9.328125 16.59375 8.109375 
Q 21.484375 6.890625 26.8125 6.890625 
Q 36.078125 6.890625 40.9375 10.546875 
Q 45.796875 14.203125 45.796875 21.1875 
Q 45.796875 27.640625 41.28125 31.265625 
Q 36.765625 34.90625 28.71875 34.90625 
L 20.21875 34.90625 
L 20.21875 43.015625 
L 29.109375 43.015625 
Q 36.375 43.015625 40.234375 45.921875 
Q 44.09375 48.828125 44.09375 54.296875 
Q 44.09375 59.90625 40.109375 62.90625 
Q 36.140625 65.921875 28.71875 65.921875 
Q 24.65625 65.921875 20.015625 65.03125 
Q 15.375 64.15625 9.8125 62.3125 
L 9.8125 71.09375 
Q 15.4375 72.65625 20.34375 73.4375 
Q 25.25 74.21875 29.59375 74.21875 
Q 40.828125 74.21875 47.359375 69.109375 
Q 53.90625 64.015625 53.90625 55.328125 
Q 53.90625 49.265625 50.4375 45.09375 
Q 46.96875 40.921875 40.578125 39.3125 
z
" id="DejaVuSans-51"/>
      </defs>
      <g transform="translate(15.832498 191.381597)scale(0.1 -0.1)">
       <use xlink:href="#DejaVuSans-51"/>
       <use x="63.623047" xlink:href="#DejaVuSans-48"/>
       <use x="127.246094" xlink:href="#DejaVuSans-48"/>
       <use x="190.869141" xlink:href="#DejaVuSans-48"/>
       <use x="254.492188" xlink:href="#DejaVuSans-48"/>
      </g>
     </g>
    </g>
    <g id="ytick_5">
     <g id="line2d_7">
      <g>
       <use style="stroke:#000000;stroke-width:0.8;" x="54.644998" xlink:href="#m60ea5a949e" y="141.469292"/>
      </g>
     </g>
     <g id="text_7">
      <!-- 40000 -->
      <defs>
       <path d="M 37.796875 64.3125 
L 12.890625 25.390625 
L 37.796875 25.390625 
z
M 35.203125 72.90625 
L 47.609375 72.90625 
L 47.609375 25.390625 
L 58.015625 25.390625 
L 58.015625 17.1875 
L 47.609375 17.1875 
L 47.609375 0 
L 37.796875 0 
L 37.796875 17.1875 
L 4.890625 17.1875 
L 4.890625 26.703125 
z
" id="DejaVuSans-52"/>
      </defs>
      <g transform="translate(15.832498 145.268511)scale(0.1 -0.1)">
       <use xlink:href="#DejaVuSans-52"/>
       <use x="63.623047" xlink:href="#DejaVuSans-48"/>
       <use x="127.246094" xlink:href="#DejaVuSans-48"/>
       <use x="190.869141" xlink:href="#DejaVuSans-48"/>
       <use x="254.492188" xlink:href="#DejaVuSans-48"/>
      </g>
     </g>
    </g>
    <g id="ytick_6">
     <g id="line2d_8">
      <g>
       <use style="stroke:#000000;stroke-width:0.8;" x="54.644998" xlink:href="#m60ea5a949e" y="95.356207"/>
      </g>
     </g>
     <g id="text_8">
      <!-- 50000 -->
      <defs>
       <path d="M 10.796875 72.90625 
L 49.515625 72.90625 
L 49.515625 64.59375 
L 19.828125 64.59375 
L 19.828125 46.734375 
Q 21.96875 47.46875 24.109375 47.828125 
Q 26.265625 48.1875 28.421875 48.1875 
Q 40.625 48.1875 47.75 41.5 
Q 54.890625 34.8125 54.890625 23.390625 
Q 54.890625 11.625 47.5625 5.09375 
Q 40.234375 -1.421875 26.90625 -1.421875 
Q 22.3125 -1.421875 17.546875 -0.640625 
Q 12.796875 0.140625 7.71875 1.703125 
L 7.71875 11.625 
Q 12.109375 9.234375 16.796875 8.0625 
Q 21.484375 6.890625 26.703125 6.890625 
Q 35.15625 6.890625 40.078125 11.328125 
Q 45.015625 15.765625 45.015625 23.390625 
Q 45.015625 31 40.078125 35.4375 
Q 35.15625 39.890625 26.703125 39.890625 
Q 22.75 39.890625 18.8125 39.015625 
Q 14.890625 38.140625 10.796875 36.28125 
z
" id="DejaVuSans-53"/>
      </defs>
      <g transform="translate(15.832498 99.155425)scale(0.1 -0.1)">
       <use xlink:href="#DejaVuSans-53"/>
       <use x="63.623047" xlink:href="#DejaVuSans-48"/>
       <use x="127.246094" xlink:href="#DejaVuSans-48"/>
       <use x="190.869141" xlink:href="#DejaVuSans-48"/>
       <use x="254.492188" xlink:href="#DejaVuSans-48"/>
      </g>
     </g>
    </g>
    <g id="ytick_7">
     <g id="line2d_9">
      <g>
       <use style="stroke:#000000;stroke-width:0.8;" x="54.644998" xlink:href="#m60ea5a949e" y="49.243121"/>
      </g>
     </g>
     <g id="text_9">
      <!-- 60000 -->
      <defs>
       <path d="M 33.015625 40.375 
Q 26.375 40.375 22.484375 35.828125 
Q 18.609375 31.296875 18.609375 23.390625 
Q 18.609375 15.53125 22.484375 10.953125 
Q 26.375 6.390625 33.015625 6.390625 
Q 39.65625 6.390625 43.53125 10.953125 
Q 47.40625 15.53125 47.40625 23.390625 
Q 47.40625 31.296875 43.53125 35.828125 
Q 39.65625 40.375 33.015625 40.375 
z
M 52.59375 71.296875 
L 52.59375 62.3125 
Q 48.875 64.0625 45.09375 64.984375 
Q 41.3125 65.921875 37.59375 65.921875 
Q 27.828125 65.921875 22.671875 59.328125 
Q 17.53125 52.734375 16.796875 39.40625 
Q 19.671875 43.65625 24.015625 45.921875 
Q 28.375 48.1875 33.59375 48.1875 
Q 44.578125 48.1875 50.953125 41.515625 
Q 57.328125 34.859375 57.328125 23.390625 
Q 57.328125 12.15625 50.6875 5.359375 
Q 44.046875 -1.421875 33.015625 -1.421875 
Q 20.359375 -1.421875 13.671875 8.265625 
Q 6.984375 17.96875 6.984375 36.375 
Q 6.984375 53.65625 15.1875 63.9375 
Q 23.390625 74.21875 37.203125 74.21875 
Q 40.921875 74.21875 44.703125 73.484375 
Q 48.484375 72.75 52.59375 71.296875 
z
" id="DejaVuSans-54"/>
      </defs>
      <g transform="translate(15.832498 53.04234)scale(0.1 -0.1)">
       <use xlink:href="#DejaVuSans-54"/>
       <use x="63.623047" xlink:href="#DejaVuSans-48"/>
       <use x="127.246094" xlink:href="#DejaVuSans-48"/>
       <use x="190.869141" xlink:href="#DejaVuSans-48"/>
       <use x="254.492188" xlink:href="#DejaVuSans-48"/>
      </g>
     </g>
    </g>
   </g>
   <g id="line2d_10">
    <path clip-path="url(#p9d91ab38e4)" d="M 58.517445 325.899815 
L 59.249477 325.889354 
L 59.981508 325.874494 
L 60.71354 325.854697 
L 61.445571 325.829184 
L 62.177603 325.797224 
L 62.909634 325.758178 
L 63.641666 325.711526 
L 64.373698 325.656724 
L 65.105729 325.593007 
L 65.837761 325.519195 
L 66.569792 325.433487 
L 67.301824 325.333366 
L 68.033855 325.215515 
L 68.765887 325.075799 
L 69.497918 324.909552 
L 70.22995 324.712251 
L 70.961981 324.479751 
L 71.694013 324.209209 
L 72.426045 323.899254 
L 73.158076 323.550201 
L 73.890108 323.164032 
L 74.622139 322.744292 
L 75.354171 322.295138 
L 76.086202 321.821694 
L 76.818234 321.32843 
L 77.550265 320.818745 
L 78.282297 320.294339 
L 79.014328 319.754579 
L 79.74636 319.196213 
L 80.478392 318.614142 
L 81.210423 317.999824 
L 81.942455 317.342427 
L 82.674486 316.629873 
L 83.406518 315.849821 
L 84.138549 314.99182 
L 84.870581 314.046941 
L 85.602612 313.006406 
L 86.334644 311.863201 
L 87.066675 310.61127 
L 87.798707 309.243725 
L 88.530739 307.752246 
L 89.26277 306.122852 
L 89.994802 304.337922 
L 90.726833 302.379539 
L 91.458865 300.229483 
L 92.190896 297.870899 
L 92.922928 295.289863 
L 93.654959 292.474646 
L 94.386991 289.42177 
L 95.119022 286.134011 
L 95.851054 282.615803 
L 96.583086 278.873433 
L 97.315117 274.914776 
L 98.047149 270.749416 
L 98.77918 266.390523 
L 99.511212 261.849287 
L 100.243243 257.134495 
L 100.975275 252.256659 
L 101.707306 247.225652 
L 102.439338 242.048629 
L 103.171369 236.727709 
L 103.903401 231.257474 
L 104.635433 225.629094 
L 105.367464 219.833424 
L 106.099496 213.858073 
L 106.831527 207.691363 
L 107.563559 201.324463 
L 108.29559 194.757251 
L 109.027622 188.006088 
L 109.759653 181.101598 
L 110.491685 174.085454 
L 111.223716 167.011482 
L 111.955748 159.941595 
L 112.68778 152.942491 
L 113.419811 146.07955 
L 114.151843 139.402518 
L 114.883874 132.9444 
L 115.615906 126.721769 
L 116.347937 120.735902 
L 117.079969 114.975427 
L 117.812 109.42147 
L 118.544032 104.046704 
L 119.276064 98.826423 
L 120.008095 93.739623 
L 120.740127 88.770384 
L 121.472158 83.904126 
L 122.20419 79.126123 
L 122.936221 74.419515 
L 123.668253 69.76829 
L 124.400284 65.153705 
L 125.132316 60.558158 
L 125.864347 55.965268 
L 126.596379 51.361173 
L 127.328411 46.738047 
L 128.060442 42.100957 
L 128.792474 37.44617 
L 129.524505 32.775664 
" style="fill:none;stroke:#ff0000;stroke-linecap:square;stroke-width:1.5;"/>
   </g>
   <g id="patch_101">
    <path d="M 54.644998 325.921635 
L 54.644998 18.118365 
" style="fill:none;stroke:#000000;stroke-linecap:square;stroke-linejoin:miter;stroke-width:0.8;"/>
   </g>
   <g id="patch_102">
    <path d="M 133.396952 325.921635 
L 133.396952 18.118365 
" style="fill:none;stroke:#000000;stroke-linecap:square;stroke-linejoin:miter;stroke-width:0.8;"/>
   </g>
   <g id="patch_103">
    <path d="M 54.644998 325.921635 
L 133.396952 325.921635 
" style="fill:none;stroke:#000000;stroke-linecap:square;stroke-linejoin:miter;stroke-width:0.8;"/>
   </g>
   <g id="patch_104">
    <path d="M 54.644998 18.118365 
L 133.396952 18.118365 
" style="fill:none;stroke:#000000;stroke-linecap:square;stroke-linejoin:miter;stroke-width:0.8;"/>
   </g>
   <g id="text_10">
    <!-- Casos acumulados - AM - (data) -->
    <defs>
     <path d="M 64.40625 67.28125 
L 64.40625 56.890625 
Q 59.421875 61.53125 53.78125 63.8125 
Q 48.140625 66.109375 41.796875 66.109375 
Q 29.296875 66.109375 22.65625 58.46875 
Q 16.015625 50.828125 16.015625 36.375 
Q 16.015625 21.96875 22.65625 14.328125 
Q 29.296875 6.6875 41.796875 6.6875 
Q 48.140625 6.6875 53.78125 8.984375 
Q 59.421875 11.28125 64.40625 15.921875 
L 64.40625 5.609375 
Q 59.234375 2.09375 53.4375 0.328125 
Q 47.65625 -1.421875 41.21875 -1.421875 
Q 24.65625 -1.421875 15.125 8.703125 
Q 5.609375 18.84375 5.609375 36.375 
Q 5.609375 53.953125 15.125 64.078125 
Q 24.65625 74.21875 41.21875 74.21875 
Q 47.75 74.21875 53.53125 72.484375 
Q 59.328125 70.75 64.40625 67.28125 
z
" id="DejaVuSans-67"/>
     <path d="M 34.28125 27.484375 
Q 23.390625 27.484375 19.1875 25 
Q 14.984375 22.515625 14.984375 16.5 
Q 14.984375 11.71875 18.140625 8.90625 
Q 21.296875 6.109375 26.703125 6.109375 
Q 34.1875 6.109375 38.703125 11.40625 
Q 43.21875 16.703125 43.21875 25.484375 
L 43.21875 27.484375 
z
M 52.203125 31.203125 
L 52.203125 0 
L 43.21875 0 
L 43.21875 8.296875 
Q 40.140625 3.328125 35.546875 0.953125 
Q 30.953125 -1.421875 24.3125 -1.421875 
Q 15.921875 -1.421875 10.953125 3.296875 
Q 6 8.015625 6 15.921875 
Q 6 25.140625 12.171875 29.828125 
Q 18.359375 34.515625 30.609375 34.515625 
L 43.21875 34.515625 
L 43.21875 35.40625 
Q 43.21875 41.609375 39.140625 45 
Q 35.0625 48.390625 27.6875 48.390625 
Q 23 48.390625 18.546875 47.265625 
Q 14.109375 46.140625 10.015625 43.890625 
L 10.015625 52.203125 
Q 14.9375 54.109375 19.578125 55.046875 
Q 24.21875 56 28.609375 56 
Q 40.484375 56 46.34375 49.84375 
Q 52.203125 43.703125 52.203125 31.203125 
z
" id="DejaVuSans-97"/>
     <path d="M 44.28125 53.078125 
L 44.28125 44.578125 
Q 40.484375 46.53125 36.375 47.5 
Q 32.28125 48.484375 27.875 48.484375 
Q 21.1875 48.484375 17.84375 46.4375 
Q 14.5 44.390625 14.5 40.28125 
Q 14.5 37.15625 16.890625 35.375 
Q 19.28125 33.59375 26.515625 31.984375 
L 29.59375 31.296875 
Q 39.15625 29.25 43.1875 25.515625 
Q 47.21875 21.78125 47.21875 15.09375 
Q 47.21875 7.46875 41.1875 3.015625 
Q 35.15625 -1.421875 24.609375 -1.421875 
Q 20.21875 -1.421875 15.453125 -0.5625 
Q 10.6875 0.296875 5.421875 2 
L 5.421875 11.28125 
Q 10.40625 8.6875 15.234375 7.390625 
Q 20.0625 6.109375 24.8125 6.109375 
Q 31.15625 6.109375 34.5625 8.28125 
Q 37.984375 10.453125 37.984375 14.40625 
Q 37.984375 18.0625 35.515625 20.015625 
Q 33.0625 21.96875 24.703125 23.78125 
L 21.578125 24.515625 
Q 13.234375 26.265625 9.515625 29.90625 
Q 5.8125 33.546875 5.8125 39.890625 
Q 5.8125 47.609375 11.28125 51.796875 
Q 16.75 56 26.8125 56 
Q 31.78125 56 36.171875 55.265625 
Q 40.578125 54.546875 44.28125 53.078125 
z
" id="DejaVuSans-115"/>
     <path d="M 30.609375 48.390625 
Q 23.390625 48.390625 19.1875 42.75 
Q 14.984375 37.109375 14.984375 27.296875 
Q 14.984375 17.484375 19.15625 11.84375 
Q 23.34375 6.203125 30.609375 6.203125 
Q 37.796875 6.203125 41.984375 11.859375 
Q 46.1875 17.53125 46.1875 27.296875 
Q 46.1875 37.015625 41.984375 42.703125 
Q 37.796875 48.390625 30.609375 48.390625 
z
M 30.609375 56 
Q 42.328125 56 49.015625 48.375 
Q 55.71875 40.765625 55.71875 27.296875 
Q 55.71875 13.875 49.015625 6.21875 
Q 42.328125 -1.421875 30.609375 -1.421875 
Q 18.84375 -1.421875 12.171875 6.21875 
Q 5.515625 13.875 5.515625 27.296875 
Q 5.515625 40.765625 12.171875 48.375 
Q 18.84375 56 30.609375 56 
z
" id="DejaVuSans-111"/>
     <path id="DejaVuSans-32"/>
     <path d="M 48.78125 52.59375 
L 48.78125 44.1875 
Q 44.96875 46.296875 41.140625 47.34375 
Q 37.3125 48.390625 33.40625 48.390625 
Q 24.65625 48.390625 19.8125 42.84375 
Q 14.984375 37.3125 14.984375 27.296875 
Q 14.984375 17.28125 19.8125 11.734375 
Q 24.65625 6.203125 33.40625 6.203125 
Q 37.3125 6.203125 41.140625 7.25 
Q 44.96875 8.296875 48.78125 10.40625 
L 48.78125 2.09375 
Q 45.015625 0.34375 40.984375 -0.53125 
Q 36.96875 -1.421875 32.421875 -1.421875 
Q 20.0625 -1.421875 12.78125 6.34375 
Q 5.515625 14.109375 5.515625 27.296875 
Q 5.515625 40.671875 12.859375 48.328125 
Q 20.21875 56 33.015625 56 
Q 37.15625 56 41.109375 55.140625 
Q 45.0625 54.296875 48.78125 52.59375 
z
" id="DejaVuSans-99"/>
     <path d="M 8.5 21.578125 
L 8.5 54.6875 
L 17.484375 54.6875 
L 17.484375 21.921875 
Q 17.484375 14.15625 20.5 10.265625 
Q 23.53125 6.390625 29.59375 6.390625 
Q 36.859375 6.390625 41.078125 11.03125 
Q 45.3125 15.671875 45.3125 23.6875 
L 45.3125 54.6875 
L 54.296875 54.6875 
L 54.296875 0 
L 45.3125 0 
L 45.3125 8.40625 
Q 42.046875 3.421875 37.71875 1 
Q 33.40625 -1.421875 27.6875 -1.421875 
Q 18.265625 -1.421875 13.375 4.4375 
Q 8.5 10.296875 8.5 21.578125 
z
M 31.109375 56 
z
" id="DejaVuSans-117"/>
     <path d="M 52 44.1875 
Q 55.375 50.25 60.0625 53.125 
Q 64.75 56 71.09375 56 
Q 79.640625 56 84.28125 50.015625 
Q 88.921875 44.046875 88.921875 33.015625 
L 88.921875 0 
L 79.890625 0 
L 79.890625 32.71875 
Q 79.890625 40.578125 77.09375 44.375 
Q 74.3125 48.1875 68.609375 48.1875 
Q 61.625 48.1875 57.5625 43.546875 
Q 53.515625 38.921875 53.515625 30.90625 
L 53.515625 0 
L 44.484375 0 
L 44.484375 32.71875 
Q 44.484375 40.625 41.703125 44.40625 
Q 38.921875 48.1875 33.109375 48.1875 
Q 26.21875 48.1875 22.15625 43.53125 
Q 18.109375 38.875 18.109375 30.90625 
L 18.109375 0 
L 9.078125 0 
L 9.078125 54.6875 
L 18.109375 54.6875 
L 18.109375 46.1875 
Q 21.1875 51.21875 25.484375 53.609375 
Q 29.78125 56 35.6875 56 
Q 41.65625 56 45.828125 52.96875 
Q 50 49.953125 52 44.1875 
z
" id="DejaVuSans-109"/>
     <path d="M 9.421875 75.984375 
L 18.40625 75.984375 
L 18.40625 0 
L 9.421875 0 
z
" id="DejaVuSans-108"/>
     <path d="M 45.40625 46.390625 
L 45.40625 75.984375 
L 54.390625 75.984375 
L 54.390625 0 
L 45.40625 0 
L 45.40625 8.203125 
Q 42.578125 3.328125 38.25 0.953125 
Q 33.9375 -1.421875 27.875 -1.421875 
Q 17.96875 -1.421875 11.734375 6.484375 
Q 5.515625 14.40625 5.515625 27.296875 
Q 5.515625 40.1875 11.734375 48.09375 
Q 17.96875 56 27.875 56 
Q 33.9375 56 38.25 53.625 
Q 42.578125 51.265625 45.40625 46.390625 
z
M 14.796875 27.296875 
Q 14.796875 17.390625 18.875 11.75 
Q 22.953125 6.109375 30.078125 6.109375 
Q 37.203125 6.109375 41.296875 11.75 
Q 45.40625 17.390625 45.40625 27.296875 
Q 45.40625 37.203125 41.296875 42.84375 
Q 37.203125 48.484375 30.078125 48.484375 
Q 22.953125 48.484375 18.875 42.84375 
Q 14.796875 37.203125 14.796875 27.296875 
z
" id="DejaVuSans-100"/>
     <path d="M 4.890625 31.390625 
L 31.203125 31.390625 
L 31.203125 23.390625 
L 4.890625 23.390625 
z
" id="DejaVuSans-45"/>
     <path d="M 34.1875 63.1875 
L 20.796875 26.90625 
L 47.609375 26.90625 
z
M 28.609375 72.90625 
L 39.796875 72.90625 
L 67.578125 0 
L 57.328125 0 
L 50.6875 18.703125 
L 17.828125 18.703125 
L 11.1875 0 
L 0.78125 0 
z
" id="DejaVuSans-65"/>
     <path d="M 9.8125 72.90625 
L 24.515625 72.90625 
L 43.109375 23.296875 
L 61.8125 72.90625 
L 76.515625 72.90625 
L 76.515625 0 
L 66.890625 0 
L 66.890625 64.015625 
L 48.09375 14.015625 
L 38.1875 14.015625 
L 19.390625 64.015625 
L 19.390625 0 
L 9.8125 0 
z
" id="DejaVuSans-77"/>
     <path d="M 31 75.875 
Q 24.46875 64.65625 21.28125 53.65625 
Q 18.109375 42.671875 18.109375 31.390625 
Q 18.109375 20.125 21.3125 9.0625 
Q 24.515625 -2 31 -13.1875 
L 23.1875 -13.1875 
Q 15.875 -1.703125 12.234375 9.375 
Q 8.59375 20.453125 8.59375 31.390625 
Q 8.59375 42.28125 12.203125 53.3125 
Q 15.828125 64.359375 23.1875 75.875 
z
" id="DejaVuSans-40"/>
     <path d="M 18.3125 70.21875 
L 18.3125 54.6875 
L 36.8125 54.6875 
L 36.8125 47.703125 
L 18.3125 47.703125 
L 18.3125 18.015625 
Q 18.3125 11.328125 20.140625 9.421875 
Q 21.96875 7.515625 27.59375 7.515625 
L 36.8125 7.515625 
L 36.8125 0 
L 27.59375 0 
Q 17.1875 0 13.234375 3.875 
Q 9.28125 7.765625 9.28125 18.015625 
L 9.28125 47.703125 
L 2.6875 47.703125 
L 2.6875 54.6875 
L 9.28125 54.6875 
L 9.28125 70.21875 
z
" id="DejaVuSans-116"/>
     <path d="M 8.015625 75.875 
L 15.828125 75.875 
Q 23.140625 64.359375 26.78125 53.3125 
Q 30.421875 42.28125 30.421875 31.390625 
Q 30.421875 20.453125 26.78125 9.375 
Q 23.140625 -1.703125 15.828125 -13.1875 
L 8.015625 -13.1875 
Q 14.5 -2 17.703125 9.0625 
Q 20.90625 20.125 20.90625 31.390625 
Q 20.90625 42.671875 17.703125 53.65625 
Q 14.5 64.65625 8.015625 75.875 
z
" id="DejaVuSans-41"/>
    </defs>
    <g transform="translate(-1.484962 12.118365)scale(0.12 -0.12)">
     <use xlink:href="#DejaVuSans-67"/>
     <use x="69.824219" xlink:href="#DejaVuSans-97"/>
     <use x="131.103516" xlink:href="#DejaVuSans-115"/>
     <use x="183.203125" xlink:href="#DejaVuSans-111"/>
     <use x="244.384766" xlink:href="#DejaVuSans-115"/>
     <use x="296.484375" xlink:href="#DejaVuSans-32"/>
     <use x="328.271484" xlink:href="#DejaVuSans-97"/>
     <use x="389.550781" xlink:href="#DejaVuSans-99"/>
     <use x="444.53125" xlink:href="#DejaVuSans-117"/>
     <use x="507.910156" xlink:href="#DejaVuSans-109"/>
     <use x="605.322266" xlink:href="#DejaVuSans-117"/>
     <use x="668.701172" xlink:href="#DejaVuSans-108"/>
     <use x="696.484375" xlink:href="#DejaVuSans-97"/>
     <use x="757.763672" xlink:href="#DejaVuSans-100"/>
     <use x="821.240234" xlink:href="#DejaVuSans-111"/>
     <use x="882.421875" xlink:href="#DejaVuSans-115"/>
     <use x="934.521484" xlink:href="#DejaVuSans-32"/>
     <use x="966.308594" xlink:href="#DejaVuSans-45"/>
     <use x="1002.392578" xlink:href="#DejaVuSans-32"/>
     <use x="1034.179688" xlink:href="#DejaVuSans-65"/>
     <use x="1102.587891" xlink:href="#DejaVuSans-77"/>
     <use x="1188.867188" xlink:href="#DejaVuSans-32"/>
     <use x="1220.654297" xlink:href="#DejaVuSans-45"/>
     <use x="1256.738281" xlink:href="#DejaVuSans-32"/>
     <use x="1288.525391" xlink:href="#DejaVuSans-40"/>
     <use x="1327.539062" xlink:href="#DejaVuSans-100"/>
     <use x="1391.015625" xlink:href="#DejaVuSans-97"/>
     <use x="1452.294922" xlink:href="#DejaVuSans-116"/>
     <use x="1491.503906" xlink:href="#DejaVuSans-97"/>
     <use x="1552.783203" xlink:href="#DejaVuSans-41"/>
    </g>
   </g>
  </g>
  <g id="axes_2">
   <g id="patch_105">
    <path d="M 227.205824 325.921635 
L 305.957777 325.921635 
L 305.957777 18.118365 
L 227.205824 18.118365 
z
" style="fill:#ffffff;"/>
   </g>
   <g id="patch_106">
    <path clip-path="url(#p2a243005f4)" d="M 230.785458 325.921635 
L 231.371083 325.921635 
L 231.371083 325.921635 
L 230.785458 325.921635 
z
" style="fill:#1f77b4;"/>
   </g>
   <g id="patch_107">
    <path clip-path="url(#p2a243005f4)" d="M 231.517489 325.921635 
L 232.103115 325.921635 
L 232.103115 325.921635 
L 231.517489 325.921635 
z
" style="fill:#1f77b4;"/>
   </g>
   <g id="patch_108">
    <path clip-path="url(#p2a243005f4)" d="M 232.249521 325.921635 
L 232.835146 325.921635 
L 232.835146 325.921635 
L 232.249521 325.921635 
z
" style="fill:#1f77b4;"/>
   </g>
   <g id="patch_109">
    <path clip-path="url(#p2a243005f4)" d="M 232.981552 325.921635 
L 233.567178 325.921635 
L 233.567178 325.709441 
L 232.981552 325.709441 
z
" style="fill:#1f77b4;"/>
   </g>
   <g id="patch_110">
    <path clip-path="url(#p2a243005f4)" d="M 233.713584 325.921635 
L 234.299209 325.921635 
L 234.299209 325.921635 
L 233.713584 325.921635 
z
" style="fill:#1f77b4;"/>
   </g>
   <g id="patch_111">
    <path clip-path="url(#p2a243005f4)" d="M 234.445616 325.921635 
L 235.031241 325.921635 
L 235.031241 325.072859 
L 234.445616 325.072859 
z
" style="fill:#1f77b4;"/>
   </g>
   <g id="patch_112">
    <path clip-path="url(#p2a243005f4)" d="M 235.177647 325.921635 
L 235.763272 325.921635 
L 235.763272 324.33018 
L 235.177647 324.33018 
z
" style="fill:#1f77b4;"/>
   </g>
   <g id="patch_113">
    <path clip-path="url(#p2a243005f4)" d="M 235.909679 325.921635 
L 236.495304 325.921635 
L 236.495304 325.285053 
L 235.909679 325.285053 
z
" style="fill:#1f77b4;"/>
   </g>
   <g id="patch_114">
    <path clip-path="url(#p2a243005f4)" d="M 236.64171 325.921635 
L 237.227335 325.921635 
L 237.227335 324.33018 
L 236.64171 324.33018 
z
" style="fill:#1f77b4;"/>
   </g>
   <g id="patch_115">
    <path clip-path="url(#p2a243005f4)" d="M 237.373742 325.921635 
L 237.959367 325.921635 
L 237.959367 325.178956 
L 237.373742 325.178956 
z
" style="fill:#1f77b4;"/>
   </g>
   <g id="patch_116">
    <path clip-path="url(#p2a243005f4)" d="M 238.105773 325.921635 
L 238.691399 325.921635 
L 238.691399 324.542374 
L 238.105773 324.542374 
z
" style="fill:#1f77b4;"/>
   </g>
   <g id="patch_117">
    <path clip-path="url(#p2a243005f4)" d="M 238.837805 325.921635 
L 239.42343 325.921635 
L 239.42343 324.436277 
L 238.837805 324.436277 
z
" style="fill:#1f77b4;"/>
   </g>
   <g id="patch_118">
    <path clip-path="url(#p2a243005f4)" d="M 239.569836 325.921635 
L 240.155462 325.921635 
L 240.155462 322.738725 
L 239.569836 322.738725 
z
" style="fill:#1f77b4;"/>
   </g>
   <g id="patch_119">
    <path clip-path="url(#p2a243005f4)" d="M 240.301868 325.921635 
L 240.887493 325.921635 
L 240.887493 322.844822 
L 240.301868 322.844822 
z
" style="fill:#1f77b4;"/>
   </g>
   <g id="patch_120">
    <path clip-path="url(#p2a243005f4)" d="M 241.033899 325.921635 
L 241.619525 325.921635 
L 241.619525 324.754568 
L 241.033899 324.754568 
z
" style="fill:#1f77b4;"/>
   </g>
   <g id="patch_121">
    <path clip-path="url(#p2a243005f4)" d="M 241.765931 325.921635 
L 242.351556 325.921635 
L 242.351556 323.375307 
L 241.765931 323.375307 
z
" style="fill:#1f77b4;"/>
   </g>
   <g id="patch_122">
    <path clip-path="url(#p2a243005f4)" d="M 242.497963 325.921635 
L 243.083588 325.921635 
L 243.083588 323.26921 
L 242.497963 323.26921 
z
" style="fill:#1f77b4;"/>
   </g>
   <g id="patch_123">
    <path clip-path="url(#p2a243005f4)" d="M 243.229994 325.921635 
L 243.815619 325.921635 
L 243.815619 322.844822 
L 243.229994 322.844822 
z
" style="fill:#1f77b4;"/>
   </g>
   <g id="patch_124">
    <path clip-path="url(#p2a243005f4)" d="M 243.962026 325.921635 
L 244.547651 325.921635 
L 244.547651 322.632628 
L 243.962026 322.632628 
z
" style="fill:#1f77b4;"/>
   </g>
   <g id="patch_125">
    <path clip-path="url(#p2a243005f4)" d="M 244.694057 325.921635 
L 245.279682 325.921635 
L 245.279682 320.510689 
L 244.694057 320.510689 
z
" style="fill:#1f77b4;"/>
   </g>
   <g id="patch_126">
    <path clip-path="url(#p2a243005f4)" d="M 245.426089 325.921635 
L 246.011714 325.921635 
L 246.011714 314.675355 
L 245.426089 314.675355 
z
" style="fill:#1f77b4;"/>
   </g>
   <g id="patch_127">
    <path clip-path="url(#p2a243005f4)" d="M 246.15812 325.921635 
L 246.743746 325.921635 
L 246.743746 313.720482 
L 246.15812 313.720482 
z
" style="fill:#1f77b4;"/>
   </g>
   <g id="patch_128">
    <path clip-path="url(#p2a243005f4)" d="M 246.890152 325.921635 
L 247.475777 325.921635 
L 247.475777 314.887548 
L 246.890152 314.887548 
z
" style="fill:#1f77b4;"/>
   </g>
   <g id="patch_129">
    <path clip-path="url(#p2a243005f4)" d="M 247.622183 325.921635 
L 248.207809 325.921635 
L 248.207809 308.097341 
L 247.622183 308.097341 
z
" style="fill:#1f77b4;"/>
   </g>
   <g id="patch_130">
    <path clip-path="url(#p2a243005f4)" d="M 248.354215 325.921635 
L 248.93984 325.921635 
L 248.93984 315.842421 
L 248.354215 315.842421 
z
" style="fill:#1f77b4;"/>
   </g>
   <g id="patch_131">
    <path clip-path="url(#p2a243005f4)" d="M 249.086246 325.921635 
L 249.671872 325.921635 
L 249.671872 317.221682 
L 249.086246 317.221682 
z
" style="fill:#1f77b4;"/>
   </g>
   <g id="patch_132">
    <path clip-path="url(#p2a243005f4)" d="M 249.818278 325.921635 
L 250.403903 325.921635 
L 250.403903 318.600943 
L 249.818278 318.600943 
z
" style="fill:#1f77b4;"/>
   </g>
   <g id="patch_133">
    <path clip-path="url(#p2a243005f4)" d="M 250.55031 325.921635 
L 251.135935 325.921635 
L 251.135935 309.370505 
L 250.55031 309.370505 
z
" style="fill:#1f77b4;"/>
   </g>
   <g id="patch_134">
    <path clip-path="url(#p2a243005f4)" d="M 251.282341 325.921635 
L 251.867966 325.921635 
L 251.867966 318.600943 
L 251.282341 318.600943 
z
" style="fill:#1f77b4;"/>
   </g>
   <g id="patch_135">
    <path clip-path="url(#p2a243005f4)" d="M 252.014373 325.921635 
L 252.599998 325.921635 
L 252.599998 303.747365 
L 252.014373 303.747365 
z
" style="fill:#1f77b4;"/>
   </g>
   <g id="patch_136">
    <path clip-path="url(#p2a243005f4)" d="M 252.746404 325.921635 
L 253.332029 325.921635 
L 253.332029 318.494846 
L 252.746404 318.494846 
z
" style="fill:#1f77b4;"/>
   </g>
   <g id="patch_137">
    <path clip-path="url(#p2a243005f4)" d="M 253.478436 325.921635 
L 254.064061 325.921635 
L 254.064061 308.415632 
L 253.478436 308.415632 
z
" style="fill:#1f77b4;"/>
   </g>
   <g id="patch_138">
    <path clip-path="url(#p2a243005f4)" d="M 254.210467 325.921635 
L 254.796093 325.921635 
L 254.796093 316.372906 
L 254.210467 316.372906 
z
" style="fill:#1f77b4;"/>
   </g>
   <g id="patch_139">
    <path clip-path="url(#p2a243005f4)" d="M 254.942499 325.921635 
L 255.528124 325.921635 
L 255.528124 316.5851 
L 254.942499 316.5851 
z
" style="fill:#1f77b4;"/>
   </g>
   <g id="patch_140">
    <path clip-path="url(#p2a243005f4)" d="M 255.67453 325.921635 
L 256.260156 325.921635 
L 256.260156 310.325378 
L 255.67453 310.325378 
z
" style="fill:#1f77b4;"/>
   </g>
   <g id="patch_141">
    <path clip-path="url(#p2a243005f4)" d="M 256.406562 325.921635 
L 256.992187 325.921635 
L 256.992187 313.614385 
L 256.406562 313.614385 
z
" style="fill:#1f77b4;"/>
   </g>
   <g id="patch_142">
    <path clip-path="url(#p2a243005f4)" d="M 257.138593 325.921635 
L 257.724219 325.921635 
L 257.724219 314.250967 
L 257.138593 314.250967 
z
" style="fill:#1f77b4;"/>
   </g>
   <g id="patch_143">
    <path clip-path="url(#p2a243005f4)" d="M 257.870625 325.921635 
L 258.45625 325.921635 
L 258.45625 303.747365 
L 257.870625 303.747365 
z
" style="fill:#1f77b4;"/>
   </g>
   <g id="patch_144">
    <path clip-path="url(#p2a243005f4)" d="M 258.602657 325.921635 
L 259.188282 325.921635 
L 259.188282 282.527968 
L 258.602657 282.527968 
z
" style="fill:#1f77b4;"/>
   </g>
   <g id="patch_145">
    <path clip-path="url(#p2a243005f4)" d="M 259.334688 325.921635 
L 259.920313 325.921635 
L 259.920313 293.455957 
L 259.334688 293.455957 
z
" style="fill:#1f77b4;"/>
   </g>
   <g id="patch_146">
    <path clip-path="url(#p2a243005f4)" d="M 260.06672 325.921635 
L 260.652345 325.921635 
L 260.652345 279.132864 
L 260.06672 279.132864 
z
" style="fill:#1f77b4;"/>
   </g>
   <g id="patch_147">
    <path clip-path="url(#p2a243005f4)" d="M 260.798751 325.921635 
L 261.384376 325.921635 
L 261.384376 304.914432 
L 260.798751 304.914432 
z
" style="fill:#1f77b4;"/>
   </g>
   <g id="patch_148">
    <path clip-path="url(#p2a243005f4)" d="M 261.530783 325.921635 
L 262.116408 325.921635 
L 262.116408 315.842421 
L 261.530783 315.842421 
z
" style="fill:#1f77b4;"/>
   </g>
   <g id="patch_149">
    <path clip-path="url(#p2a243005f4)" d="M 262.262814 325.921635 
L 262.84844 325.921635 
L 262.84844 282.527968 
L 262.262814 282.527968 
z
" style="fill:#1f77b4;"/>
   </g>
   <g id="patch_150">
    <path clip-path="url(#p2a243005f4)" d="M 262.994846 325.921635 
L 263.580471 325.921635 
L 263.580471 276.692634 
L 262.994846 276.692634 
z
" style="fill:#1f77b4;"/>
   </g>
   <g id="patch_151">
    <path clip-path="url(#p2a243005f4)" d="M 263.726877 325.921635 
L 264.312503 325.921635 
L 264.312503 277.8597 
L 263.726877 277.8597 
z
" style="fill:#1f77b4;"/>
   </g>
   <g id="patch_152">
    <path clip-path="url(#p2a243005f4)" d="M 264.458909 325.921635 
L 265.044534 325.921635 
L 265.044534 276.162149 
L 264.458909 276.162149 
z
" style="fill:#1f77b4;"/>
   </g>
   <g id="patch_153">
    <path clip-path="url(#p2a243005f4)" d="M 265.19094 325.921635 
L 265.776566 325.921635 
L 265.776566 289.954757 
L 265.19094 289.954757 
z
" style="fill:#1f77b4;"/>
   </g>
   <g id="patch_154">
    <path clip-path="url(#p2a243005f4)" d="M 265.922972 325.921635 
L 266.508597 325.921635 
L 266.508597 260.035407 
L 265.922972 260.035407 
z
" style="fill:#1f77b4;"/>
   </g>
   <g id="patch_155">
    <path clip-path="url(#p2a243005f4)" d="M 266.655004 325.921635 
L 267.240629 325.921635 
L 267.240629 266.61342 
L 266.655004 266.61342 
z
" style="fill:#1f77b4;"/>
   </g>
   <g id="patch_156">
    <path clip-path="url(#p2a243005f4)" d="M 267.387035 325.921635 
L 267.97266 325.921635 
L 267.97266 233.935548 
L 267.387035 233.935548 
z
" style="fill:#1f77b4;"/>
   </g>
   <g id="patch_157">
    <path clip-path="url(#p2a243005f4)" d="M 268.119067 325.921635 
L 268.704692 325.921635 
L 268.704692 205.607653 
L 268.119067 205.607653 
z
" style="fill:#1f77b4;"/>
   </g>
   <g id="patch_158">
    <path clip-path="url(#p2a243005f4)" d="M 268.851098 325.921635 
L 269.436723 325.921635 
L 269.436723 235.102615 
L 268.851098 235.102615 
z
" style="fill:#1f77b4;"/>
   </g>
   <g id="patch_159">
    <path clip-path="url(#p2a243005f4)" d="M 269.58313 325.921635 
L 270.168755 325.921635 
L 270.168755 259.292728 
L 269.58313 259.292728 
z
" style="fill:#1f77b4;"/>
   </g>
   <g id="patch_160">
    <path clip-path="url(#p2a243005f4)" d="M 270.315161 325.921635 
L 270.900787 325.921635 
L 270.900787 198.817446 
L 270.315161 198.817446 
z
" style="fill:#1f77b4;"/>
   </g>
   <g id="patch_161">
    <path clip-path="url(#p2a243005f4)" d="M 271.047193 325.921635 
L 271.632818 325.921635 
L 271.632818 254.412267 
L 271.047193 254.412267 
z
" style="fill:#1f77b4;"/>
   </g>
   <g id="patch_162">
    <path clip-path="url(#p2a243005f4)" d="M 271.779224 325.921635 
L 272.36485 325.921635 
L 272.36485 291.9706 
L 271.779224 291.9706 
z
" style="fill:#1f77b4;"/>
   </g>
   <g id="patch_163">
    <path clip-path="url(#p2a243005f4)" d="M 272.511256 325.921635 
L 273.096881 325.921635 
L 273.096881 193.4065 
L 272.511256 193.4065 
z
" style="fill:#1f77b4;"/>
   </g>
   <g id="patch_164">
    <path clip-path="url(#p2a243005f4)" d="M 273.243288 325.921635 
L 273.828913 325.921635 
L 273.828913 151.073803 
L 273.243288 151.073803 
z
" style="fill:#1f77b4;"/>
   </g>
   <g id="patch_165">
    <path clip-path="url(#p2a243005f4)" d="M 273.975319 325.921635 
L 274.560944 325.921635 
L 274.560944 181.09925 
L 273.975319 181.09925 
z
" style="fill:#1f77b4;"/>
   </g>
   <g id="patch_166">
    <path clip-path="url(#p2a243005f4)" d="M 274.707351 325.921635 
L 275.292976 325.921635 
L 275.292976 197.438185 
L 274.707351 197.438185 
z
" style="fill:#1f77b4;"/>
   </g>
   <g id="patch_167">
    <path clip-path="url(#p2a243005f4)" d="M 275.439382 325.921635 
L 276.025007 325.921635 
L 276.025007 189.587008 
L 275.439382 189.587008 
z
" style="fill:#1f77b4;"/>
   </g>
   <g id="patch_168">
    <path clip-path="url(#p2a243005f4)" d="M 276.171414 325.921635 
L 276.757039 325.921635 
L 276.757039 256.852497 
L 276.171414 256.852497 
z
" style="fill:#1f77b4;"/>
   </g>
   <g id="patch_169">
    <path clip-path="url(#p2a243005f4)" d="M 276.903445 325.921635 
L 277.48907 325.921635 
L 277.48907 263.854898 
L 276.903445 263.854898 
z
" style="fill:#1f77b4;"/>
   </g>
   <g id="patch_170">
    <path clip-path="url(#p2a243005f4)" d="M 277.635477 325.921635 
L 278.221102 325.921635 
L 278.221102 196.589409 
L 277.635477 196.589409 
z
" style="fill:#1f77b4;"/>
   </g>
   <g id="patch_171">
    <path clip-path="url(#p2a243005f4)" d="M 278.367508 325.921635 
L 278.953134 325.921635 
L 278.953134 159.137174 
L 278.367508 159.137174 
z
" style="fill:#1f77b4;"/>
   </g>
   <g id="patch_172">
    <path clip-path="url(#p2a243005f4)" d="M 279.09954 325.921635 
L 279.685165 325.921635 
L 279.685165 149.482348 
L 279.09954 149.482348 
z
" style="fill:#1f77b4;"/>
   </g>
   <g id="patch_173">
    <path clip-path="url(#p2a243005f4)" d="M 279.831571 325.921635 
L 280.417197 325.921635 
L 280.417197 148.633572 
L 279.831571 148.633572 
z
" style="fill:#1f77b4;"/>
   </g>
   <g id="patch_174">
    <path clip-path="url(#p2a243005f4)" d="M 280.563603 325.921635 
L 281.149228 325.921635 
L 281.149228 138.766552 
L 280.563603 138.766552 
z
" style="fill:#1f77b4;"/>
   </g>
   <g id="patch_175">
    <path clip-path="url(#p2a243005f4)" d="M 281.295635 325.921635 
L 281.88126 325.921635 
L 281.88126 212.928345 
L 281.295635 212.928345 
z
" style="fill:#1f77b4;"/>
   </g>
   <g id="patch_176">
    <path clip-path="url(#p2a243005f4)" d="M 282.027666 325.921635 
L 282.613291 325.921635 
L 282.613291 281.891386 
L 282.027666 281.891386 
z
" style="fill:#1f77b4;"/>
   </g>
   <g id="patch_177">
    <path clip-path="url(#p2a243005f4)" d="M 282.759698 325.921635 
L 283.345323 325.921635 
L 283.345323 149.05796 
L 282.759698 149.05796 
z
" style="fill:#1f77b4;"/>
   </g>
   <g id="patch_178">
    <path clip-path="url(#p2a243005f4)" d="M 283.491729 325.921635 
L 284.077354 325.921635 
L 284.077354 160.516434 
L 283.491729 160.516434 
z
" style="fill:#1f77b4;"/>
   </g>
   <g id="patch_179">
    <path clip-path="url(#p2a243005f4)" d="M 284.223761 325.921635 
L 284.809386 325.921635 
L 284.809386 46.037787 
L 284.223761 46.037787 
z
" style="fill:#1f77b4;"/>
   </g>
   <g id="patch_180">
    <path clip-path="url(#p2a243005f4)" d="M 284.955792 325.921635 
L 285.541417 325.921635 
L 285.541417 32.775664 
L 284.955792 32.775664 
z
" style="fill:#1f77b4;"/>
   </g>
   <g id="patch_181">
    <path clip-path="url(#p2a243005f4)" d="M 285.687824 325.921635 
L 286.273449 325.921635 
L 286.273449 150.755512 
L 285.687824 150.755512 
z
" style="fill:#1f77b4;"/>
   </g>
   <g id="patch_182">
    <path clip-path="url(#p2a243005f4)" d="M 286.419855 325.921635 
L 287.005481 325.921635 
L 287.005481 239.134301 
L 286.419855 239.134301 
z
" style="fill:#1f77b4;"/>
   </g>
   <g id="patch_183">
    <path clip-path="url(#p2a243005f4)" d="M 287.151887 325.921635 
L 287.737512 325.921635 
L 287.737512 283.907229 
L 287.151887 283.907229 
z
" style="fill:#1f77b4;"/>
   </g>
   <g id="patch_184">
    <path clip-path="url(#p2a243005f4)" d="M 287.883918 325.921635 
L 288.469544 325.921635 
L 288.469544 175.157818 
L 287.883918 175.157818 
z
" style="fill:#1f77b4;"/>
   </g>
   <g id="patch_185">
    <path clip-path="url(#p2a243005f4)" d="M 288.61595 325.921635 
L 289.201575 325.921635 
L 289.201575 203.697907 
L 288.61595 203.697907 
z
" style="fill:#1f77b4;"/>
   </g>
   <g id="patch_186">
    <path clip-path="url(#p2a243005f4)" d="M 289.347982 325.921635 
L 289.933607 325.921635 
L 289.933607 100.359443 
L 289.347982 100.359443 
z
" style="fill:#1f77b4;"/>
   </g>
   <g id="patch_187">
    <path clip-path="url(#p2a243005f4)" d="M 290.080013 325.921635 
L 290.665638 325.921635 
L 290.665638 199.347931 
L 290.080013 199.347931 
z
" style="fill:#1f77b4;"/>
   </g>
   <g id="patch_188">
    <path clip-path="url(#p2a243005f4)" d="M 290.812045 325.921635 
L 291.39767 325.921635 
L 291.39767 207.199108 
L 290.812045 207.199108 
z
" style="fill:#1f77b4;"/>
   </g>
   <g id="patch_189">
    <path clip-path="url(#p2a243005f4)" d="M 291.544076 325.921635 
L 292.129701 325.921635 
L 292.129701 274.570694 
L 291.544076 274.570694 
z
" style="fill:#1f77b4;"/>
   </g>
   <g id="patch_190">
    <path clip-path="url(#p2a243005f4)" d="M 292.276108 325.921635 
L 292.861733 325.921635 
L 292.861733 268.417069 
L 292.276108 268.417069 
z
" style="fill:#1f77b4;"/>
   </g>
   <g id="patch_191">
    <path clip-path="url(#p2a243005f4)" d="M 293.008139 325.921635 
L 293.593765 325.921635 
L 293.593765 174.945624 
L 293.008139 174.945624 
z
" style="fill:#1f77b4;"/>
   </g>
   <g id="patch_192">
    <path clip-path="url(#p2a243005f4)" d="M 293.740171 325.921635 
L 294.325796 325.921635 
L 294.325796 154.575003 
L 293.740171 154.575003 
z
" style="fill:#1f77b4;"/>
   </g>
   <g id="patch_193">
    <path clip-path="url(#p2a243005f4)" d="M 294.472202 325.921635 
L 295.057828 325.921635 
L 295.057828 204.971071 
L 294.472202 204.971071 
z
" style="fill:#1f77b4;"/>
   </g>
   <g id="patch_194">
    <path clip-path="url(#p2a243005f4)" d="M 295.204234 325.921635 
L 295.789859 325.921635 
L 295.789859 206.880817 
L 295.204234 206.880817 
z
" style="fill:#1f77b4;"/>
   </g>
   <g id="patch_195">
    <path clip-path="url(#p2a243005f4)" d="M 295.936265 325.921635 
L 296.521891 325.921635 
L 296.521891 228.842893 
L 295.936265 228.842893 
z
" style="fill:#1f77b4;"/>
   </g>
   <g id="patch_196">
    <path clip-path="url(#p2a243005f4)" d="M 296.668297 325.921635 
L 297.253922 325.921635 
L 297.253922 274.995082 
L 296.668297 274.995082 
z
" style="fill:#1f77b4;"/>
   </g>
   <g id="patch_197">
    <path clip-path="url(#p2a243005f4)" d="M 297.400329 325.921635 
L 297.985954 325.921635 
L 297.985954 297.169352 
L 297.400329 297.169352 
z
" style="fill:#1f77b4;"/>
   </g>
   <g id="patch_198">
    <path clip-path="url(#p2a243005f4)" d="M 298.13236 325.921635 
L 298.717985 325.921635 
L 298.717985 194.255276 
L 298.13236 194.255276 
z
" style="fill:#1f77b4;"/>
   </g>
   <g id="patch_199">
    <path clip-path="url(#p2a243005f4)" d="M 298.864392 325.921635 
L 299.450017 325.921635 
L 299.450017 163.699344 
L 298.864392 163.699344 
z
" style="fill:#1f77b4;"/>
   </g>
   <g id="patch_200">
    <path clip-path="url(#p2a243005f4)" d="M 299.596423 325.921635 
L 300.182048 325.921635 
L 300.182048 199.772319 
L 299.596423 199.772319 
z
" style="fill:#1f77b4;"/>
   </g>
   <g id="patch_201">
    <path clip-path="url(#p2a243005f4)" d="M 300.328455 325.921635 
L 300.91408 325.921635 
L 300.91408 225.44779 
L 300.328455 225.44779 
z
" style="fill:#1f77b4;"/>
   </g>
   <g id="patch_202">
    <path clip-path="url(#p2a243005f4)" d="M 301.060486 325.921635 
L 301.646112 325.921635 
L 301.646112 196.589409 
L 301.060486 196.589409 
z
" style="fill:#1f77b4;"/>
   </g>
   <g id="patch_203">
    <path clip-path="url(#p2a243005f4)" d="M 301.792518 325.921635 
L 302.378143 325.921635 
L 302.378143 272.024366 
L 301.792518 272.024366 
z
" style="fill:#1f77b4;"/>
   </g>
   <g id="matplotlib.axis_3">
    <g id="xtick_3">
     <g id="line2d_11">
      <g>
       <use style="stroke:#000000;stroke-width:0.8;" x="231.07827" xlink:href="#m8e0a89f6ec" y="325.921635"/>
      </g>
     </g>
     <g id="text_11">
      <!-- 0 -->
      <g transform="translate(227.89702 340.520072)scale(0.1 -0.1)">
       <use xlink:href="#DejaVuSans-48"/>
      </g>
     </g>
    </g>
    <g id="xtick_4">
     <g id="line2d_12">
      <g>
       <use style="stroke:#000000;stroke-width:0.8;" x="304.281425" xlink:href="#m8e0a89f6ec" y="325.921635"/>
      </g>
     </g>
     <g id="text_12">
      <!-- 100 -->
      <g transform="translate(294.737675 340.520072)scale(0.1 -0.1)">
       <use xlink:href="#DejaVuSans-49"/>
       <use x="63.623047" xlink:href="#DejaVuSans-48"/>
       <use x="127.246094" xlink:href="#DejaVuSans-48"/>
      </g>
     </g>
    </g>
   </g>
   <g id="matplotlib.axis_4">
    <g id="ytick_8">
     <g id="line2d_13">
      <g>
       <use style="stroke:#000000;stroke-width:0.8;" x="227.205824" xlink:href="#m60ea5a949e" y="325.921635"/>
      </g>
     </g>
     <g id="text_13">
      <!-- 0 -->
      <g transform="translate(213.843324 329.720854)scale(0.1 -0.1)">
       <use xlink:href="#DejaVuSans-48"/>
      </g>
     </g>
    </g>
    <g id="ytick_9">
     <g id="line2d_14">
      <g>
       <use style="stroke:#000000;stroke-width:0.8;" x="227.205824" xlink:href="#m60ea5a949e" y="272.873142"/>
      </g>
     </g>
     <g id="text_14">
      <!-- 500 -->
      <g transform="translate(201.118324 276.672361)scale(0.1 -0.1)">
       <use xlink:href="#DejaVuSans-53"/>
       <use x="63.623047" xlink:href="#DejaVuSans-48"/>
       <use x="127.246094" xlink:href="#DejaVuSans-48"/>
      </g>
     </g>
    </g>
    <g id="ytick_10">
     <g id="line2d_15">
      <g>
       <use style="stroke:#000000;stroke-width:0.8;" x="227.205824" xlink:href="#m60ea5a949e" y="219.824649"/>
      </g>
     </g>
     <g id="text_15">
      <!-- 1000 -->
      <g transform="translate(194.755824 223.623868)scale(0.1 -0.1)">
       <use xlink:href="#DejaVuSans-49"/>
       <use x="63.623047" xlink:href="#DejaVuSans-48"/>
       <use x="127.246094" xlink:href="#DejaVuSans-48"/>
       <use x="190.869141" xlink:href="#DejaVuSans-48"/>
      </g>
     </g>
    </g>
    <g id="ytick_11">
     <g id="line2d_16">
      <g>
       <use style="stroke:#000000;stroke-width:0.8;" x="227.205824" xlink:href="#m60ea5a949e" y="166.776156"/>
      </g>
     </g>
     <g id="text_16">
      <!-- 1500 -->
      <g transform="translate(194.755824 170.575375)scale(0.1 -0.1)">
       <use xlink:href="#DejaVuSans-49"/>
       <use x="63.623047" xlink:href="#DejaVuSans-53"/>
       <use x="127.246094" xlink:href="#DejaVuSans-48"/>
       <use x="190.869141" xlink:href="#DejaVuSans-48"/>
      </g>
     </g>
    </g>
    <g id="ytick_12">
     <g id="line2d_17">
      <g>
       <use style="stroke:#000000;stroke-width:0.8;" x="227.205824" xlink:href="#m60ea5a949e" y="113.727664"/>
      </g>
     </g>
     <g id="text_17">
      <!-- 2000 -->
      <g transform="translate(194.755824 117.526882)scale(0.1 -0.1)">
       <use xlink:href="#DejaVuSans-50"/>
       <use x="63.623047" xlink:href="#DejaVuSans-48"/>
       <use x="127.246094" xlink:href="#DejaVuSans-48"/>
       <use x="190.869141" xlink:href="#DejaVuSans-48"/>
      </g>
     </g>
    </g>
    <g id="ytick_13">
     <g id="line2d_18">
      <g>
       <use style="stroke:#000000;stroke-width:0.8;" x="227.205824" xlink:href="#m60ea5a949e" y="60.679171"/>
      </g>
     </g>
     <g id="text_18">
      <!-- 2500 -->
      <g transform="translate(194.755824 64.47839)scale(0.1 -0.1)">
       <use xlink:href="#DejaVuSans-50"/>
       <use x="63.623047" xlink:href="#DejaVuSans-53"/>
       <use x="127.246094" xlink:href="#DejaVuSans-48"/>
       <use x="190.869141" xlink:href="#DejaVuSans-48"/>
      </g>
     </g>
    </g>
   </g>
   <g id="line2d_19">
    <path clip-path="url(#p2a243005f4)" d="M 231.07827 325.760037 
L 231.810302 325.680939 
L 232.542334 325.579747 
L 233.274365 325.466138 
L 234.006397 325.334633 
L 234.738428 325.186291 
L 235.47046 325.023279 
L 236.202491 324.848248 
L 236.934523 324.660756 
L 237.666554 324.455632 
L 238.398586 324.223376 
L 239.130617 323.949672 
L 239.862649 323.618036 
L 240.594681 323.21013 
L 241.326712 322.707042 
L 242.058744 322.09662 
L 242.790775 321.382133 
L 243.522807 320.572288 
L 244.254838 319.696999 
L 244.98687 318.790203 
L 245.718901 317.89061 
L 246.450933 317.036664 
L 247.182964 316.264246 
L 247.914996 315.587497 
L 248.647028 315.028643 
L 249.379059 314.572616 
L 250.111091 314.194803 
L 250.843122 313.856097 
L 251.575154 313.502852 
L 252.307185 313.074753 
L 253.039217 312.529332 
L 253.771248 311.787404 
L 254.50328 310.796253 
L 255.235311 309.527198 
L 255.967343 307.974188 
L 256.699375 306.180746 
L 257.431406 304.181872 
L 258.163438 301.981011 
L 258.895469 299.618774 
L 259.627501 297.117209 
L 260.359532 294.45714 
L 261.091564 291.60569 
L 261.823595 288.432546 
L 262.555627 284.853971 
L 263.287658 280.86316 
L 264.01969 276.453131 
L 264.751722 271.655347 
L 265.483753 266.53715 
L 266.215785 261.149138 
L 266.947816 255.681056 
L 267.679848 250.27687 
L 268.411879 244.974717 
L 269.143911 239.817192 
L 269.875942 234.840842 
L 270.607974 230.085036 
L 271.340005 225.632233 
L 272.072037 221.436873 
L 272.804069 217.44372 
L 273.5361 213.692367 
L 274.268132 210.168233 
L 275.000163 206.808701 
L 275.732195 203.49791 
L 276.464226 200.062462 
L 277.196258 196.423879 
L 277.928289 192.574869 
L 278.660321 188.440754 
L 279.392352 184.037973 
L 280.124384 179.432011 
L 280.856416 174.823222 
L 281.588447 170.590876 
L 282.320479 167.063118 
L 283.05251 164.49421 
L 283.784542 163.163689 
L 284.516573 163.257678 
L 285.248605 164.886251 
L 285.980636 168.019095 
L 286.712668 172.29647 
L 287.4447 177.333271 
L 288.176731 182.751331 
L 288.908763 188.198821 
L 289.640794 193.384626 
L 290.372826 198.13619 
L 291.104857 202.259036 
L 291.836889 205.813396 
L 292.56892 208.884552 
L 293.300952 211.589385 
L 294.032983 213.958781 
L 294.765015 215.989338 
L 295.497047 217.632008 
L 296.229078 218.906232 
L 296.96111 219.749263 
L 297.693141 220.187306 
L 298.425173 220.248419 
L 299.157204 219.990622 
L 299.889236 219.552756 
L 300.621267 219.231461 
L 301.353299 218.824306 
L 302.08533 218.462622 
" style="fill:none;stroke:#ff0000;stroke-linecap:square;stroke-width:1.5;"/>
   </g>
   <g id="patch_204">
    <path d="M 227.205824 325.921635 
L 227.205824 18.118365 
" style="fill:none;stroke:#000000;stroke-linecap:square;stroke-linejoin:miter;stroke-width:0.8;"/>
   </g>
   <g id="patch_205">
    <path d="M 305.957777 325.921635 
L 305.957777 18.118365 
" style="fill:none;stroke:#000000;stroke-linecap:square;stroke-linejoin:miter;stroke-width:0.8;"/>
   </g>
   <g id="patch_206">
    <path d="M 227.205824 325.921635 
L 305.957777 325.921635 
" style="fill:none;stroke:#000000;stroke-linecap:square;stroke-linejoin:miter;stroke-width:0.8;"/>
   </g>
   <g id="patch_207">
    <path d="M 227.205824 18.118365 
L 305.957777 18.118365 
" style="fill:none;stroke:#000000;stroke-linecap:square;stroke-linejoin:miter;stroke-width:0.8;"/>
   </g>
   <g id="text_19">
    <!-- Casos novos - AM - (data) -->
    <defs>
     <path d="M 54.890625 33.015625 
L 54.890625 0 
L 45.90625 0 
L 45.90625 32.71875 
Q 45.90625 40.484375 42.875 44.328125 
Q 39.84375 48.1875 33.796875 48.1875 
Q 26.515625 48.1875 22.3125 43.546875 
Q 18.109375 38.921875 18.109375 30.90625 
L 18.109375 0 
L 9.078125 0 
L 9.078125 54.6875 
L 18.109375 54.6875 
L 18.109375 46.1875 
Q 21.34375 51.125 25.703125 53.5625 
Q 30.078125 56 35.796875 56 
Q 45.21875 56 50.046875 50.171875 
Q 54.890625 44.34375 54.890625 33.015625 
z
" id="DejaVuSans-110"/>
     <path d="M 2.984375 54.6875 
L 12.5 54.6875 
L 29.59375 8.796875 
L 46.6875 54.6875 
L 56.203125 54.6875 
L 35.6875 0 
L 23.484375 0 
z
" id="DejaVuSans-118"/>
    </defs>
    <g transform="translate(189.628988 12.118365)scale(0.12 -0.12)">
     <use xlink:href="#DejaVuSans-67"/>
     <use x="69.824219" xlink:href="#DejaVuSans-97"/>
     <use x="131.103516" xlink:href="#DejaVuSans-115"/>
     <use x="183.203125" xlink:href="#DejaVuSans-111"/>
     <use x="244.384766" xlink:href="#DejaVuSans-115"/>
     <use x="296.484375" xlink:href="#DejaVuSans-32"/>
     <use x="328.271484" xlink:href="#DejaVuSans-110"/>
     <use x="391.650391" xlink:href="#DejaVuSans-111"/>
     <use x="452.832031" xlink:href="#DejaVuSans-118"/>
     <use x="512.011719" xlink:href="#DejaVuSans-111"/>
     <use x="573.193359" xlink:href="#DejaVuSans-115"/>
     <use x="625.292969" xlink:href="#DejaVuSans-32"/>
     <use x="657.080078" xlink:href="#DejaVuSans-45"/>
     <use x="693.164062" xlink:href="#DejaVuSans-32"/>
     <use x="724.951172" xlink:href="#DejaVuSans-65"/>
     <use x="793.359375" xlink:href="#DejaVuSans-77"/>
     <use x="879.638672" xlink:href="#DejaVuSans-32"/>
     <use x="911.425781" xlink:href="#DejaVuSans-45"/>
     <use x="947.509766" xlink:href="#DejaVuSans-32"/>
     <use x="979.296875" xlink:href="#DejaVuSans-40"/>
     <use x="1018.310547" xlink:href="#DejaVuSans-100"/>
     <use x="1081.787109" xlink:href="#DejaVuSans-97"/>
     <use x="1143.066406" xlink:href="#DejaVuSans-116"/>
     <use x="1182.275391" xlink:href="#DejaVuSans-97"/>
     <use x="1243.554688" xlink:href="#DejaVuSans-41"/>
    </g>
   </g>
  </g>
  <g id="axes_3">
   <g id="patch_208">
    <path d="M 371.025016 325.921635 
L 449.776969 325.921635 
L 449.776969 18.118365 
L 371.025016 18.118365 
z
" style="fill:#ffffff;"/>
   </g>
   <g id="matplotlib.axis_5">
    <g id="xtick_5">
     <g id="line2d_20">
      <g>
       <use style="stroke:#000000;stroke-width:0.8;" x="374.60465" xlink:href="#m8e0a89f6ec" y="325.921635"/>
      </g>
     </g>
     <g id="text_20">
      <!-- 0 -->
      <g transform="translate(371.4234 340.520072)scale(0.1 -0.1)">
       <use xlink:href="#DejaVuSans-48"/>
      </g>
     </g>
    </g>
    <g id="xtick_6">
     <g id="line2d_21">
      <g>
       <use style="stroke:#000000;stroke-width:0.8;" x="448.411542" xlink:href="#m8e0a89f6ec" y="325.921635"/>
      </g>
     </g>
     <g id="text_21">
      <!-- 100 -->
      <g transform="translate(438.867792 340.520072)scale(0.1 -0.1)">
       <use xlink:href="#DejaVuSans-49"/>
       <use x="63.623047" xlink:href="#DejaVuSans-48"/>
       <use x="127.246094" xlink:href="#DejaVuSans-48"/>
      </g>
     </g>
    </g>
   </g>
   <g id="matplotlib.axis_6">
    <g id="ytick_14">
     <g id="line2d_22">
      <g>
       <use style="stroke:#000000;stroke-width:0.8;" x="371.025016" xlink:href="#m60ea5a949e" y="301.353661"/>
      </g>
     </g>
     <g id="text_22">
      <!-- 1.0 -->
      <defs>
       <path d="M 10.6875 12.40625 
L 21 12.40625 
L 21 0 
L 10.6875 0 
z
" id="DejaVuSans-46"/>
      </defs>
      <g transform="translate(348.121891 305.15288)scale(0.1 -0.1)">
       <use xlink:href="#DejaVuSans-49"/>
       <use x="63.623047" xlink:href="#DejaVuSans-46"/>
       <use x="95.410156" xlink:href="#DejaVuSans-48"/>
      </g>
     </g>
    </g>
    <g id="ytick_15">
     <g id="line2d_23">
      <g>
       <use style="stroke:#000000;stroke-width:0.8;" x="371.025016" xlink:href="#m60ea5a949e" y="250.189253"/>
      </g>
     </g>
     <g id="text_23">
      <!-- 1.5 -->
      <g transform="translate(348.121891 253.988471)scale(0.1 -0.1)">
       <use xlink:href="#DejaVuSans-49"/>
       <use x="63.623047" xlink:href="#DejaVuSans-46"/>
       <use x="95.410156" xlink:href="#DejaVuSans-53"/>
      </g>
     </g>
    </g>
    <g id="ytick_16">
     <g id="line2d_24">
      <g>
       <use style="stroke:#000000;stroke-width:0.8;" x="371.025016" xlink:href="#m60ea5a949e" y="199.024844"/>
      </g>
     </g>
     <g id="text_24">
      <!-- 2.0 -->
      <g transform="translate(348.121891 202.824063)scale(0.1 -0.1)">
       <use xlink:href="#DejaVuSans-50"/>
       <use x="63.623047" xlink:href="#DejaVuSans-46"/>
       <use x="95.410156" xlink:href="#DejaVuSans-48"/>
      </g>
     </g>
    </g>
    <g id="ytick_17">
     <g id="line2d_25">
      <g>
       <use style="stroke:#000000;stroke-width:0.8;" x="371.025016" xlink:href="#m60ea5a949e" y="147.860435"/>
      </g>
     </g>
     <g id="text_25">
      <!-- 2.5 -->
      <g transform="translate(348.121891 151.659654)scale(0.1 -0.1)">
       <use xlink:href="#DejaVuSans-50"/>
       <use x="63.623047" xlink:href="#DejaVuSans-46"/>
       <use x="95.410156" xlink:href="#DejaVuSans-53"/>
      </g>
     </g>
    </g>
    <g id="ytick_18">
     <g id="line2d_26">
      <g>
       <use style="stroke:#000000;stroke-width:0.8;" x="371.025016" xlink:href="#m60ea5a949e" y="96.696027"/>
      </g>
     </g>
     <g id="text_26">
      <!-- 3.0 -->
      <g transform="translate(348.121891 100.495246)scale(0.1 -0.1)">
       <use xlink:href="#DejaVuSans-51"/>
       <use x="63.623047" xlink:href="#DejaVuSans-46"/>
       <use x="95.410156" xlink:href="#DejaVuSans-48"/>
      </g>
     </g>
    </g>
    <g id="ytick_19">
     <g id="line2d_27">
      <g>
       <use style="stroke:#000000;stroke-width:0.8;" x="371.025016" xlink:href="#m60ea5a949e" y="45.531618"/>
      </g>
     </g>
     <g id="text_27">
      <!-- 3.5 -->
      <g transform="translate(348.121891 49.330837)scale(0.1 -0.1)">
       <use xlink:href="#DejaVuSans-51"/>
       <use x="63.623047" xlink:href="#DejaVuSans-46"/>
       <use x="95.410156" xlink:href="#DejaVuSans-53"/>
      </g>
     </g>
    </g>
   </g>
   <g id="line2d_28">
    <path clip-path="url(#p6e843fa892)" d="M 374.60465 32.109423 
L 375.342719 61.129001 
L 376.080788 84.977323 
L 376.818857 119.002527 
L 377.556926 137.549049 
L 378.294994 153.835495 
L 379.033063 168.642233 
L 379.771132 182.072022 
L 380.509201 192.557223 
L 381.24727 198.957067 
L 381.985339 201.244551 
L 382.723408 199.727249 
L 383.461477 195.91473 
L 384.199546 191.139355 
L 384.937615 186.649592 
L 385.675684 184.329653 
L 386.413753 185.864053 
L 387.151821 190.178536 
L 387.88989 197.985319 
L 388.627959 207.762027 
L 389.366028 218.773574 
L 390.104097 230.353254 
L 390.842166 242.109625 
L 391.580235 252.677547 
L 392.318304 263.028076 
L 393.056373 271.138847 
L 393.794442 276.93455 
L 394.532511 279.923963 
L 395.27058 279.586098 
L 396.008649 275.921724 
L 396.746717 270.385224 
L 397.484786 261.612461 
L 398.222855 251.873659 
L 398.960924 242.958448 
L 399.698993 236.045344 
L 400.437062 232.657077 
L 401.175131 231.629802 
L 401.9132 231.403993 
L 402.651269 232.72248 
L 403.389338 234.651394 
L 404.127407 236.073146 
L 404.865476 236.834503 
L 405.603544 235.321545 
L 406.341613 233.050321 
L 407.079682 231.528337 
L 407.817751 230.596371 
L 408.55582 230.608122 
L 409.293889 231.705096 
L 410.031958 233.358952 
L 410.770027 236.77442 
L 411.508096 241.01059 
L 412.246165 244.894667 
L 412.984234 248.526945 
L 413.722303 251.90462 
L 414.460372 255.100394 
L 415.19844 258.480792 
L 415.936509 261.107404 
L 416.674578 263.026681 
L 417.412647 264.988585 
L 418.150716 266.635312 
L 418.888785 267.689199 
L 419.626854 267.860257 
L 420.364923 266.853317 
L 421.102992 265.353307 
L 421.841061 263.832247 
L 422.57913 261.889118 
L 423.317199 260.087139 
L 424.055267 258.686101 
L 424.793336 258.385995 
L 425.531405 260.056958 
L 426.269474 263.306041 
L 427.007543 267.720985 
L 427.745612 273.514144 
L 428.483681 280.343816 
L 429.22175 288.029306 
L 429.959819 296.052256 
L 430.697888 302.672191 
L 431.435957 307.644951 
L 432.174026 310.782686 
L 432.912095 311.930577 
L 433.650163 311.141055 
L 434.388232 308.953929 
L 435.126301 304.986621 
L 435.86437 301.072837 
L 436.602439 297.490319 
L 437.340508 294.596682 
L 438.078577 291.759208 
L 438.816646 288.707949 
L 439.554715 285.041793 
L 440.292784 281.370703 
L 441.030853 276.974699 
L 441.768922 272.682768 
L 442.50699 268.555086 
L 443.245059 264.904607 
L 443.983128 262.503764 
L 444.721197 262.824882 
L 445.459266 261.263914 
L 446.197335 260.905002 
" style="fill:none;stroke:#ff0000;stroke-linecap:square;stroke-width:1.5;"/>
   </g>
   <g id="patch_209">
    <path d="M 371.025016 325.921635 
L 371.025016 18.118365 
" style="fill:none;stroke:#000000;stroke-linecap:square;stroke-linejoin:miter;stroke-width:0.8;"/>
   </g>
   <g id="patch_210">
    <path d="M 449.776969 325.921635 
L 449.776969 18.118365 
" style="fill:none;stroke:#000000;stroke-linecap:square;stroke-linejoin:miter;stroke-width:0.8;"/>
   </g>
   <g id="patch_211">
    <path d="M 371.025016 325.921635 
L 449.776969 325.921635 
" style="fill:none;stroke:#000000;stroke-linecap:square;stroke-linejoin:miter;stroke-width:0.8;"/>
   </g>
   <g id="patch_212">
    <path d="M 371.025016 18.118365 
L 449.776969 18.118365 
" style="fill:none;stroke:#000000;stroke-linecap:square;stroke-linejoin:miter;stroke-width:0.8;"/>
   </g>
   <g id="text_28">
    <!-- r0 - AM - (data) -->
    <defs>
     <path d="M 41.109375 46.296875 
Q 39.59375 47.171875 37.8125 47.578125 
Q 36.03125 48 33.890625 48 
Q 26.265625 48 22.1875 43.046875 
Q 18.109375 38.09375 18.109375 28.8125 
L 18.109375 0 
L 9.078125 0 
L 9.078125 54.6875 
L 18.109375 54.6875 
L 18.109375 46.1875 
Q 20.953125 51.171875 25.484375 53.578125 
Q 30.03125 56 36.53125 56 
Q 37.453125 56 38.578125 55.875 
Q 39.703125 55.765625 41.0625 55.515625 
z
" id="DejaVuSans-114"/>
    </defs>
    <g transform="translate(364.68193 12.118365)scale(0.12 -0.12)">
     <use xlink:href="#DejaVuSans-114"/>
     <use x="41.113281" xlink:href="#DejaVuSans-48"/>
     <use x="104.736328" xlink:href="#DejaVuSans-32"/>
     <use x="136.523438" xlink:href="#DejaVuSans-45"/>
     <use x="172.607422" xlink:href="#DejaVuSans-32"/>
     <use x="204.394531" xlink:href="#DejaVuSans-65"/>
     <use x="272.802734" xlink:href="#DejaVuSans-77"/>
     <use x="359.082031" xlink:href="#DejaVuSans-32"/>
     <use x="390.869141" xlink:href="#DejaVuSans-45"/>
     <use x="426.953125" xlink:href="#DejaVuSans-32"/>
     <use x="458.740234" xlink:href="#DejaVuSans-40"/>
     <use x="497.753906" xlink:href="#DejaVuSans-100"/>
     <use x="561.230469" xlink:href="#DejaVuSans-97"/>
     <use x="622.509766" xlink:href="#DejaVuSans-116"/>
     <use x="661.71875" xlink:href="#DejaVuSans-97"/>
     <use x="722.998047" xlink:href="#DejaVuSans-41"/>
    </g>
   </g>
  </g>
 </g>
 <defs>
  <clipPath id="p9d91ab38e4">
   <rect height="307.80327" width="78.751954" x="54.644998" y="18.118365"/>
  </clipPath>
  <clipPath id="p2a243005f4">
   <rect height="307.80327" width="78.751954" x="227.205824" y="18.118365"/>
  </clipPath>
  <clipPath id="p6e843fa892">
   <rect height="307.80327" width="78.751954" x="371.025016" y="18.118365"/>
  </clipPath>
 </defs>
</svg>
