<?xml version="1.0" encoding="utf-8" standalone="no"?>
<!DOCTYPE svg PUBLIC "-//W3C//DTD SVG 1.1//EN"
  "http://www.w3.org/Graphics/SVG/1.1/DTD/svg11.dtd">
<!-- Created with matplotlib (https://matplotlib.org/) -->
<svg height="345.6pt" version="1.1" viewBox="0 0 460.8 345.6" width="460.8pt" xmlns="http://www.w3.org/2000/svg" xmlns:xlink="http://www.w3.org/1999/xlink">
 <defs>
  <style type="text/css">
*{stroke-linecap:butt;stroke-linejoin:round;}
  </style>
 </defs>
 <g id="figure_1">
  <g id="patch_1">
   <path d="M 0 345.6 
L 460.8 345.6 
L 460.8 0 
L 0 0 
z
" style="fill:#ffffff;"/>
  </g>
  <g id="axes_1">
   <g id="patch_2">
    <path d="M 51.019302 325.921635 
L 136.285093 325.921635 
L 136.285093 18.118365 
L 51.019302 18.118365 
z
" style="fill:#ffffff;"/>
   </g>
   <g id="patch_3">
    <path clip-path="url(#pb5c0700d6a)" d="M 54.89502 325.921635 
L 55.563247 325.921635 
L 55.563247 325.908243 
L 54.89502 325.908243 
z
" style="fill:#1f77b4;"/>
   </g>
   <g id="patch_4">
    <path clip-path="url(#pb5c0700d6a)" d="M 55.730304 325.921635 
L 56.398531 325.921635 
L 56.398531 325.908243 
L 55.730304 325.908243 
z
" style="fill:#1f77b4;"/>
   </g>
   <g id="patch_5">
    <path clip-path="url(#pb5c0700d6a)" d="M 56.565588 325.921635 
L 57.233815 325.921635 
L 57.233815 325.908243 
L 56.565588 325.908243 
z
" style="fill:#1f77b4;"/>
   </g>
   <g id="patch_6">
    <path clip-path="url(#pb5c0700d6a)" d="M 57.400872 325.921635 
L 58.069099 325.921635 
L 58.069099 325.908243 
L 57.400872 325.908243 
z
" style="fill:#1f77b4;"/>
   </g>
   <g id="patch_7">
    <path clip-path="url(#pb5c0700d6a)" d="M 58.236156 325.921635 
L 58.904383 325.921635 
L 58.904383 325.908243 
L 58.236156 325.908243 
z
" style="fill:#1f77b4;"/>
   </g>
   <g id="patch_8">
    <path clip-path="url(#pb5c0700d6a)" d="M 59.07144 325.921635 
L 59.739667 325.921635 
L 59.739667 325.894851 
L 59.07144 325.894851 
z
" style="fill:#1f77b4;"/>
   </g>
   <g id="patch_9">
    <path clip-path="url(#pb5c0700d6a)" d="M 59.906724 325.921635 
L 60.574951 325.921635 
L 60.574951 325.894851 
L 59.906724 325.894851 
z
" style="fill:#1f77b4;"/>
   </g>
   <g id="patch_10">
    <path clip-path="url(#pb5c0700d6a)" d="M 60.742008 325.921635 
L 61.410235 325.921635 
L 61.410235 325.868067 
L 60.742008 325.868067 
z
" style="fill:#1f77b4;"/>
   </g>
   <g id="patch_11">
    <path clip-path="url(#pb5c0700d6a)" d="M 61.577292 325.921635 
L 62.245519 325.921635 
L 62.245519 325.868067 
L 61.577292 325.868067 
z
" style="fill:#1f77b4;"/>
   </g>
   <g id="patch_12">
    <path clip-path="url(#pb5c0700d6a)" d="M 62.412576 325.921635 
L 63.080803 325.921635 
L 63.080803 325.814499 
L 62.412576 325.814499 
z
" style="fill:#1f77b4;"/>
   </g>
   <g id="patch_13">
    <path clip-path="url(#pb5c0700d6a)" d="M 63.24786 325.921635 
L 63.916087 325.921635 
L 63.916087 325.787715 
L 63.24786 325.787715 
z
" style="fill:#1f77b4;"/>
   </g>
   <g id="patch_14">
    <path clip-path="url(#pb5c0700d6a)" d="M 64.083144 325.921635 
L 64.751371 325.921635 
L 64.751371 325.774324 
L 64.083144 325.774324 
z
" style="fill:#1f77b4;"/>
   </g>
   <g id="patch_15">
    <path clip-path="url(#pb5c0700d6a)" d="M 64.918428 325.921635 
L 65.586655 325.921635 
L 65.586655 325.774324 
L 64.918428 325.774324 
z
" style="fill:#1f77b4;"/>
   </g>
   <g id="patch_16">
    <path clip-path="url(#pb5c0700d6a)" d="M 65.753712 325.921635 
L 66.421939 325.921635 
L 66.421939 325.667188 
L 65.753712 325.667188 
z
" style="fill:#1f77b4;"/>
   </g>
   <g id="patch_17">
    <path clip-path="url(#pb5c0700d6a)" d="M 66.588996 325.921635 
L 67.257223 325.921635 
L 67.257223 325.54666 
L 66.588996 325.54666 
z
" style="fill:#1f77b4;"/>
   </g>
   <g id="patch_18">
    <path clip-path="url(#pb5c0700d6a)" d="M 67.42428 325.921635 
L 68.092507 325.921635 
L 68.092507 325.533268 
L 67.42428 325.533268 
z
" style="fill:#1f77b4;"/>
   </g>
   <g id="patch_19">
    <path clip-path="url(#pb5c0700d6a)" d="M 68.259564 325.921635 
L 68.927791 325.921635 
L 68.927791 325.466309 
L 68.259564 325.466309 
z
" style="fill:#1f77b4;"/>
   </g>
   <g id="patch_20">
    <path clip-path="url(#pb5c0700d6a)" d="M 69.094848 325.921635 
L 69.763075 325.921635 
L 69.763075 325.278821 
L 69.094848 325.278821 
z
" style="fill:#1f77b4;"/>
   </g>
   <g id="patch_21">
    <path clip-path="url(#pb5c0700d6a)" d="M 69.930132 325.921635 
L 70.598359 325.921635 
L 70.598359 324.488696 
L 69.930132 324.488696 
z
" style="fill:#1f77b4;"/>
   </g>
   <g id="patch_22">
    <path clip-path="url(#pb5c0700d6a)" d="M 70.765416 325.921635 
L 71.433643 325.921635 
L 71.433643 324.207465 
L 70.765416 324.207465 
z
" style="fill:#1f77b4;"/>
   </g>
   <g id="patch_23">
    <path clip-path="url(#pb5c0700d6a)" d="M 71.6007 325.921635 
L 72.268927 325.921635 
L 72.268927 323.698571 
L 71.6007 323.698571 
z
" style="fill:#1f77b4;"/>
   </g>
   <g id="patch_24">
    <path clip-path="url(#pb5c0700d6a)" d="M 72.435984 325.921635 
L 73.104211 325.921635 
L 73.104211 323.336988 
L 72.435984 323.336988 
z
" style="fill:#1f77b4;"/>
   </g>
   <g id="patch_25">
    <path clip-path="url(#pb5c0700d6a)" d="M 73.271268 325.921635 
L 73.939495 325.921635 
L 73.939495 322.841486 
L 73.271268 322.841486 
z
" style="fill:#1f77b4;"/>
   </g>
   <g id="patch_26">
    <path clip-path="url(#pb5c0700d6a)" d="M 74.106552 325.921635 
L 74.774779 325.921635 
L 74.774779 322.680782 
L 74.106552 322.680782 
z
" style="fill:#1f77b4;"/>
   </g>
   <g id="patch_27">
    <path clip-path="url(#pb5c0700d6a)" d="M 74.941836 325.921635 
L 75.610063 325.921635 
L 75.610063 321.810306 
L 74.941836 321.810306 
z
" style="fill:#1f77b4;"/>
   </g>
   <g id="patch_28">
    <path clip-path="url(#pb5c0700d6a)" d="M 75.77712 325.921635 
L 76.445347 325.921635 
L 76.445347 321.448723 
L 75.77712 321.448723 
z
" style="fill:#1f77b4;"/>
   </g>
   <g id="patch_29">
    <path clip-path="url(#pb5c0700d6a)" d="M 76.612404 325.921635 
L 77.280631 325.921635 
L 77.280631 321.073748 
L 76.612404 321.073748 
z
" style="fill:#1f77b4;"/>
   </g>
   <g id="patch_30">
    <path clip-path="url(#pb5c0700d6a)" d="M 77.447688 325.921635 
L 78.115915 325.921635 
L 78.115915 320.966613 
L 77.447688 320.966613 
z
" style="fill:#1f77b4;"/>
   </g>
   <g id="patch_31">
    <path clip-path="url(#pb5c0700d6a)" d="M 78.282972 325.921635 
L 78.951199 325.921635 
L 78.951199 320.658598 
L 78.282972 320.658598 
z
" style="fill:#1f77b4;"/>
   </g>
   <g id="patch_32">
    <path clip-path="url(#pb5c0700d6a)" d="M 79.118256 325.921635 
L 79.786483 325.921635 
L 79.786483 320.350583 
L 79.118256 320.350583 
z
" style="fill:#1f77b4;"/>
   </g>
   <g id="patch_33">
    <path clip-path="url(#pb5c0700d6a)" d="M 79.95354 325.921635 
L 80.621767 325.921635 
L 80.621767 320.12292 
L 79.95354 320.12292 
z
" style="fill:#1f77b4;"/>
   </g>
   <g id="patch_34">
    <path clip-path="url(#pb5c0700d6a)" d="M 80.788824 325.921635 
L 81.457051 325.921635 
L 81.457051 319.801513 
L 80.788824 319.801513 
z
" style="fill:#1f77b4;"/>
   </g>
   <g id="patch_35">
    <path clip-path="url(#pb5c0700d6a)" d="M 81.624108 325.921635 
L 82.292335 325.921635 
L 82.292335 319.50689 
L 81.624108 319.50689 
z
" style="fill:#1f77b4;"/>
   </g>
   <g id="patch_36">
    <path clip-path="url(#pb5c0700d6a)" d="M 82.459392 325.921635 
L 83.127619 325.921635 
L 83.127619 318.582845 
L 82.459392 318.582845 
z
" style="fill:#1f77b4;"/>
   </g>
   <g id="patch_37">
    <path clip-path="url(#pb5c0700d6a)" d="M 83.294676 325.921635 
L 83.962903 325.921635 
L 83.962903 317.444529 
L 83.294676 317.444529 
z
" style="fill:#1f77b4;"/>
   </g>
   <g id="patch_38">
    <path clip-path="url(#pb5c0700d6a)" d="M 84.12996 325.921635 
L 84.798187 325.921635 
L 84.798187 316.748147 
L 84.12996 316.748147 
z
" style="fill:#1f77b4;"/>
   </g>
   <g id="patch_39">
    <path clip-path="url(#pb5c0700d6a)" d="M 84.965244 325.921635 
L 85.633471 325.921635 
L 85.633471 315.234857 
L 84.965244 315.234857 
z
" style="fill:#1f77b4;"/>
   </g>
   <g id="patch_40">
    <path clip-path="url(#pb5c0700d6a)" d="M 85.800528 325.921635 
L 86.468755 325.921635 
L 86.468755 314.645611 
L 85.800528 314.645611 
z
" style="fill:#1f77b4;"/>
   </g>
   <g id="patch_41">
    <path clip-path="url(#pb5c0700d6a)" d="M 86.635812 325.921635 
L 87.304039 325.921635 
L 87.304039 313.627823 
L 86.635812 313.627823 
z
" style="fill:#1f77b4;"/>
   </g>
   <g id="patch_42">
    <path clip-path="url(#pb5c0700d6a)" d="M 87.471096 325.921635 
L 88.139323 325.921635 
L 88.139323 312.315411 
L 87.471096 312.315411 
z
" style="fill:#1f77b4;"/>
   </g>
   <g id="patch_43">
    <path clip-path="url(#pb5c0700d6a)" d="M 88.30638 325.921635 
L 88.974607 325.921635 
L 88.974607 311.458326 
L 88.30638 311.458326 
z
" style="fill:#1f77b4;"/>
   </g>
   <g id="patch_44">
    <path clip-path="url(#pb5c0700d6a)" d="M 89.141664 325.921635 
L 89.809891 325.921635 
L 89.809891 310.909256 
L 89.141664 310.909256 
z
" style="fill:#1f77b4;"/>
   </g>
   <g id="patch_45">
    <path clip-path="url(#pb5c0700d6a)" d="M 89.976948 325.921635 
L 90.645175 325.921635 
L 90.645175 310.025387 
L 89.976948 310.025387 
z
" style="fill:#1f77b4;"/>
   </g>
   <g id="patch_46">
    <path clip-path="url(#pb5c0700d6a)" d="M 90.812232 325.921635 
L 91.480459 325.921635 
L 91.480459 306.074761 
L 90.812232 306.074761 
z
" style="fill:#1f77b4;"/>
   </g>
   <g id="patch_47">
    <path clip-path="url(#pb5c0700d6a)" d="M 91.647516 325.921635 
L 92.315743 325.921635 
L 92.315743 302.713381 
L 91.647516 302.713381 
z
" style="fill:#1f77b4;"/>
   </g>
   <g id="patch_48">
    <path clip-path="url(#pb5c0700d6a)" d="M 92.4828 325.921635 
L 93.151027 325.921635 
L 93.151027 300.061775 
L 92.4828 300.061775 
z
" style="fill:#1f77b4;"/>
   </g>
   <g id="patch_49">
    <path clip-path="url(#pb5c0700d6a)" d="M 93.318084 325.921635 
L 93.986311 325.921635 
L 93.986311 298.5217 
L 93.318084 298.5217 
z
" style="fill:#1f77b4;"/>
   </g>
   <g id="patch_50">
    <path clip-path="url(#pb5c0700d6a)" d="M 94.153368 325.921635 
L 94.821595 325.921635 
L 94.821595 296.472731 
L 94.153368 296.472731 
z
" style="fill:#1f77b4;"/>
   </g>
   <g id="patch_51">
    <path clip-path="url(#pb5c0700d6a)" d="M 94.988652 325.921635 
L 95.656879 325.921635 
L 95.656879 294.825521 
L 94.988652 294.825521 
z
" style="fill:#1f77b4;"/>
   </g>
   <g id="patch_52">
    <path clip-path="url(#pb5c0700d6a)" d="M 95.823936 325.921635 
L 96.492163 325.921635 
L 96.492163 292.535497 
L 95.823936 292.535497 
z
" style="fill:#1f77b4;"/>
   </g>
   <g id="patch_53">
    <path clip-path="url(#pb5c0700d6a)" d="M 96.65922 325.921635 
L 97.327447 325.921635 
L 97.327447 290.928463 
L 96.65922 290.928463 
z
" style="fill:#1f77b4;"/>
   </g>
   <g id="patch_54">
    <path clip-path="url(#pb5c0700d6a)" d="M 97.494504 325.921635 
L 98.162731 325.921635 
L 98.162731 290.15173 
L 97.494504 290.15173 
z
" style="fill:#1f77b4;"/>
   </g>
   <g id="patch_55">
    <path clip-path="url(#pb5c0700d6a)" d="M 98.329788 325.921635 
L 98.998015 325.921635 
L 98.998015 286.951053 
L 98.329788 286.951053 
z
" style="fill:#1f77b4;"/>
   </g>
   <g id="patch_56">
    <path clip-path="url(#pb5c0700d6a)" d="M 99.165072 325.921635 
L 99.833299 325.921635 
L 99.833299 285.678817 
L 99.165072 285.678817 
z
" style="fill:#1f77b4;"/>
   </g>
   <g id="patch_57">
    <path clip-path="url(#pb5c0700d6a)" d="M 100.000356 325.921635 
L 100.668583 325.921635 
L 100.668583 280.014022 
L 100.000356 280.014022 
z
" style="fill:#1f77b4;"/>
   </g>
   <g id="patch_58">
    <path clip-path="url(#pb5c0700d6a)" d="M 100.83564 325.921635 
L 101.503867 325.921635 
L 101.503867 277.308847 
L 100.83564 277.308847 
z
" style="fill:#1f77b4;"/>
   </g>
   <g id="patch_59">
    <path clip-path="url(#pb5c0700d6a)" d="M 101.670924 325.921635 
L 102.339151 325.921635 
L 102.339151 274.576889 
L 101.670924 274.576889 
z
" style="fill:#1f77b4;"/>
   </g>
   <g id="patch_60">
    <path clip-path="url(#pb5c0700d6a)" d="M 102.506208 325.921635 
L 103.174435 325.921635 
L 103.174435 272.996638 
L 102.506208 272.996638 
z
" style="fill:#1f77b4;"/>
   </g>
   <g id="patch_61">
    <path clip-path="url(#pb5c0700d6a)" d="M 103.341492 325.921635 
L 104.009719 325.921635 
L 104.009719 272.04581 
L 103.341492 272.04581 
z
" style="fill:#1f77b4;"/>
   </g>
   <g id="patch_62">
    <path clip-path="url(#pb5c0700d6a)" d="M 104.176776 325.921635 
L 104.845003 325.921635 
L 104.845003 268.202319 
L 104.176776 268.202319 
z
" style="fill:#1f77b4;"/>
   </g>
   <g id="patch_63">
    <path clip-path="url(#pb5c0700d6a)" d="M 105.01206 325.921635 
L 105.680287 325.921635 
L 105.680287 265.001643 
L 105.01206 265.001643 
z
" style="fill:#1f77b4;"/>
   </g>
   <g id="patch_64">
    <path clip-path="url(#pb5c0700d6a)" d="M 105.847344 325.921635 
L 106.515571 325.921635 
L 106.515571 256.444185 
L 105.847344 256.444185 
z
" style="fill:#1f77b4;"/>
   </g>
   <g id="patch_65">
    <path clip-path="url(#pb5c0700d6a)" d="M 106.682628 325.921635 
L 107.350855 325.921635 
L 107.350855 250.190143 
L 106.682628 250.190143 
z
" style="fill:#1f77b4;"/>
   </g>
   <g id="patch_66">
    <path clip-path="url(#pb5c0700d6a)" d="M 107.517912 325.921635 
L 108.186139 325.921635 
L 108.186139 244.351252 
L 107.517912 244.351252 
z
" style="fill:#1f77b4;"/>
   </g>
   <g id="patch_67">
    <path clip-path="url(#pb5c0700d6a)" d="M 108.353196 325.921635 
L 109.021423 325.921635 
L 109.021423 240.84256 
L 108.353196 240.84256 
z
" style="fill:#1f77b4;"/>
   </g>
   <g id="patch_68">
    <path clip-path="url(#pb5c0700d6a)" d="M 109.18848 325.921635 
L 109.856707 325.921635 
L 109.856707 237.749019 
L 109.18848 237.749019 
z
" style="fill:#1f77b4;"/>
   </g>
   <g id="patch_69">
    <path clip-path="url(#pb5c0700d6a)" d="M 110.023764 325.921635 
L 110.691991 325.921635 
L 110.691991 232.619901 
L 110.023764 232.619901 
z
" style="fill:#1f77b4;"/>
   </g>
   <g id="patch_70">
    <path clip-path="url(#pb5c0700d6a)" d="M 110.859048 325.921635 
L 111.527275 325.921635 
L 111.527275 223.888348 
L 110.859048 223.888348 
z
" style="fill:#1f77b4;"/>
   </g>
   <g id="patch_71">
    <path clip-path="url(#pb5c0700d6a)" d="M 111.694332 325.921635 
L 112.362559 325.921635 
L 112.362559 216.750437 
L 111.694332 216.750437 
z
" style="fill:#1f77b4;"/>
   </g>
   <g id="patch_72">
    <path clip-path="url(#pb5c0700d6a)" d="M 112.529616 325.921635 
L 113.197843 325.921635 
L 113.197843 212.505188 
L 112.529616 212.505188 
z
" style="fill:#1f77b4;"/>
   </g>
   <g id="patch_73">
    <path clip-path="url(#pb5c0700d6a)" d="M 113.3649 325.921635 
L 114.033127 325.921635 
L 114.033127 201.20238 
L 113.3649 201.20238 
z
" style="fill:#1f77b4;"/>
   </g>
   <g id="patch_74">
    <path clip-path="url(#pb5c0700d6a)" d="M 114.200184 325.921635 
L 114.868411 325.921635 
L 114.868411 197.332106 
L 114.200184 197.332106 
z
" style="fill:#1f77b4;"/>
   </g>
   <g id="patch_75">
    <path clip-path="url(#pb5c0700d6a)" d="M 115.035468 325.921635 
L 115.703695 325.921635 
L 115.703695 193.475224 
L 115.035468 193.475224 
z
" style="fill:#1f77b4;"/>
   </g>
   <g id="patch_76">
    <path clip-path="url(#pb5c0700d6a)" d="M 115.870752 325.921635 
L 116.53898 325.921635 
L 116.53898 185.158821 
L 115.870752 185.158821 
z
" style="fill:#1f77b4;"/>
   </g>
   <g id="patch_77">
    <path clip-path="url(#pb5c0700d6a)" d="M 116.706036 325.921635 
L 117.374264 325.921635 
L 117.374264 177.177218 
L 116.706036 177.177218 
z
" style="fill:#1f77b4;"/>
   </g>
   <g id="patch_78">
    <path clip-path="url(#pb5c0700d6a)" d="M 117.54132 325.921635 
L 118.209548 325.921635 
L 118.209548 171.231191 
L 117.54132 171.231191 
z
" style="fill:#1f77b4;"/>
   </g>
   <g id="patch_79">
    <path clip-path="url(#pb5c0700d6a)" d="M 118.376604 325.921635 
L 119.044832 325.921635 
L 119.044832 160.839035 
L 118.376604 160.839035 
z
" style="fill:#1f77b4;"/>
   </g>
   <g id="patch_80">
    <path clip-path="url(#pb5c0700d6a)" d="M 119.211888 325.921635 
L 119.880116 325.921635 
L 119.880116 154.866224 
L 119.211888 154.866224 
z
" style="fill:#1f77b4;"/>
   </g>
   <g id="patch_81">
    <path clip-path="url(#pb5c0700d6a)" d="M 120.047172 325.921635 
L 120.7154 325.921635 
L 120.7154 151.223613 
L 120.047172 151.223613 
z
" style="fill:#1f77b4;"/>
   </g>
   <g id="patch_82">
    <path clip-path="url(#pb5c0700d6a)" d="M 120.882456 325.921635 
L 121.550684 325.921635 
L 121.550684 147.889017 
L 120.882456 147.889017 
z
" style="fill:#1f77b4;"/>
   </g>
   <g id="patch_83">
    <path clip-path="url(#pb5c0700d6a)" d="M 121.71774 325.921635 
L 122.385968 325.921635 
L 122.385968 141.501056 
L 121.71774 141.501056 
z
" style="fill:#1f77b4;"/>
   </g>
   <g id="patch_84">
    <path clip-path="url(#pb5c0700d6a)" d="M 122.553024 325.921635 
L 123.221252 325.921635 
L 123.221252 130.091112 
L 122.553024 130.091112 
z
" style="fill:#1f77b4;"/>
   </g>
   <g id="patch_85">
    <path clip-path="url(#pb5c0700d6a)" d="M 123.388308 325.921635 
L 124.056536 325.921635 
L 124.056536 122.819282 
L 123.388308 122.819282 
z
" style="fill:#1f77b4;"/>
   </g>
   <g id="patch_86">
    <path clip-path="url(#pb5c0700d6a)" d="M 124.223592 325.921635 
L 124.89182 325.921635 
L 124.89182 115.895642 
L 124.223592 115.895642 
z
" style="fill:#1f77b4;"/>
   </g>
   <g id="patch_87">
    <path clip-path="url(#pb5c0700d6a)" d="M 125.058876 325.921635 
L 125.727104 325.921635 
L 125.727104 107.338185 
L 125.058876 107.338185 
z
" style="fill:#1f77b4;"/>
   </g>
   <g id="patch_88">
    <path clip-path="url(#pb5c0700d6a)" d="M 125.89416 325.921635 
L 126.562388 325.921635 
L 126.562388 104.793714 
L 125.89416 104.793714 
z
" style="fill:#1f77b4;"/>
   </g>
   <g id="patch_89">
    <path clip-path="url(#pb5c0700d6a)" d="M 126.729444 325.921635 
L 127.397672 325.921635 
L 127.397672 100.762736 
L 126.729444 100.762736 
z
" style="fill:#1f77b4;"/>
   </g>
   <g id="patch_90">
    <path clip-path="url(#pb5c0700d6a)" d="M 127.564728 325.921635 
L 128.232956 325.921635 
L 128.232956 84.545081 
L 127.564728 84.545081 
z
" style="fill:#1f77b4;"/>
   </g>
   <g id="patch_91">
    <path clip-path="url(#pb5c0700d6a)" d="M 128.400012 325.921635 
L 129.06824 325.921635 
L 129.06824 76.590262 
L 128.400012 76.590262 
z
" style="fill:#1f77b4;"/>
   </g>
   <g id="patch_92">
    <path clip-path="url(#pb5c0700d6a)" d="M 129.235296 325.921635 
L 129.903524 325.921635 
L 129.903524 66.29185 
L 129.235296 66.29185 
z
" style="fill:#1f77b4;"/>
   </g>
   <g id="patch_93">
    <path clip-path="url(#pb5c0700d6a)" d="M 130.07058 325.921635 
L 130.738808 325.921635 
L 130.738808 59.127155 
L 130.07058 59.127155 
z
" style="fill:#1f77b4;"/>
   </g>
   <g id="patch_94">
    <path clip-path="url(#pb5c0700d6a)" d="M 130.905864 325.921635 
L 131.574092 325.921635 
L 131.574092 37.00365 
L 130.905864 37.00365 
z
" style="fill:#1f77b4;"/>
   </g>
   <g id="patch_95">
    <path clip-path="url(#pb5c0700d6a)" d="M 131.741148 325.921635 
L 132.409376 325.921635 
L 132.409376 33.44139 
L 131.741148 33.44139 
z
" style="fill:#1f77b4;"/>
   </g>
   <g id="matplotlib.axis_1">
    <g id="xtick_1">
     <g id="line2d_1">
      <defs>
       <path d="M 0 0 
L 0 3.5 
" id="m150b91b192" style="stroke:#000000;stroke-width:0.8;"/>
      </defs>
      <g>
       <use style="stroke:#000000;stroke-width:0.8;" x="55.229134" xlink:href="#m150b91b192" y="325.921635"/>
      </g>
     </g>
     <g id="text_1">
      <!-- 0 -->
      <defs>
       <path d="M 31.78125 66.40625 
Q 24.171875 66.40625 20.328125 58.90625 
Q 16.5 51.421875 16.5 36.375 
Q 16.5 21.390625 20.328125 13.890625 
Q 24.171875 6.390625 31.78125 6.390625 
Q 39.453125 6.390625 43.28125 13.890625 
Q 47.125 21.390625 47.125 36.375 
Q 47.125 51.421875 43.28125 58.90625 
Q 39.453125 66.40625 31.78125 66.40625 
z
M 31.78125 74.21875 
Q 44.046875 74.21875 50.515625 64.515625 
Q 56.984375 54.828125 56.984375 36.375 
Q 56.984375 17.96875 50.515625 8.265625 
Q 44.046875 -1.421875 31.78125 -1.421875 
Q 19.53125 -1.421875 13.0625 8.265625 
Q 6.59375 17.96875 6.59375 36.375 
Q 6.59375 54.828125 13.0625 64.515625 
Q 19.53125 74.21875 31.78125 74.21875 
z
" id="DejaVuSans-48"/>
      </defs>
      <g transform="translate(52.047884 340.520072)scale(0.1 -0.1)">
       <use xlink:href="#DejaVuSans-48"/>
      </g>
     </g>
    </g>
    <g id="xtick_2">
     <g id="line2d_2">
      <g>
       <use style="stroke:#000000;stroke-width:0.8;" x="96.993334" xlink:href="#m150b91b192" y="325.921635"/>
      </g>
     </g>
     <g id="text_2">
      <!-- 50 -->
      <defs>
       <path d="M 10.796875 72.90625 
L 49.515625 72.90625 
L 49.515625 64.59375 
L 19.828125 64.59375 
L 19.828125 46.734375 
Q 21.96875 47.46875 24.109375 47.828125 
Q 26.265625 48.1875 28.421875 48.1875 
Q 40.625 48.1875 47.75 41.5 
Q 54.890625 34.8125 54.890625 23.390625 
Q 54.890625 11.625 47.5625 5.09375 
Q 40.234375 -1.421875 26.90625 -1.421875 
Q 22.3125 -1.421875 17.546875 -0.640625 
Q 12.796875 0.140625 7.71875 1.703125 
L 7.71875 11.625 
Q 12.109375 9.234375 16.796875 8.0625 
Q 21.484375 6.890625 26.703125 6.890625 
Q 35.15625 6.890625 40.078125 11.328125 
Q 45.015625 15.765625 45.015625 23.390625 
Q 45.015625 31 40.078125 35.4375 
Q 35.15625 39.890625 26.703125 39.890625 
Q 22.75 39.890625 18.8125 39.015625 
Q 14.890625 38.140625 10.796875 36.28125 
z
" id="DejaVuSans-53"/>
      </defs>
      <g transform="translate(90.630834 340.520072)scale(0.1 -0.1)">
       <use xlink:href="#DejaVuSans-53"/>
       <use x="63.623047" xlink:href="#DejaVuSans-48"/>
      </g>
     </g>
    </g>
   </g>
   <g id="matplotlib.axis_2">
    <g id="ytick_1">
     <g id="line2d_3">
      <defs>
       <path d="M 0 0 
L -3.5 0 
" id="m22cad73234" style="stroke:#000000;stroke-width:0.8;"/>
      </defs>
      <g>
       <use style="stroke:#000000;stroke-width:0.8;" x="51.019302" xlink:href="#m22cad73234" y="325.921635"/>
      </g>
     </g>
     <g id="text_3">
      <!-- 0 -->
      <g transform="translate(37.656802 329.720854)scale(0.1 -0.1)">
       <use xlink:href="#DejaVuSans-48"/>
      </g>
     </g>
    </g>
    <g id="ytick_2">
     <g id="line2d_4">
      <g>
       <use style="stroke:#000000;stroke-width:0.8;" x="51.019302" xlink:href="#m22cad73234" y="258.961872"/>
      </g>
     </g>
     <g id="text_4">
      <!-- 5000 -->
      <g transform="translate(18.569302 262.761091)scale(0.1 -0.1)">
       <use xlink:href="#DejaVuSans-53"/>
       <use x="63.623047" xlink:href="#DejaVuSans-48"/>
       <use x="127.246094" xlink:href="#DejaVuSans-48"/>
       <use x="190.869141" xlink:href="#DejaVuSans-48"/>
      </g>
     </g>
    </g>
    <g id="ytick_3">
     <g id="line2d_5">
      <g>
       <use style="stroke:#000000;stroke-width:0.8;" x="51.019302" xlink:href="#m22cad73234" y="192.002109"/>
      </g>
     </g>
     <g id="text_5">
      <!-- 10000 -->
      <defs>
       <path d="M 12.40625 8.296875 
L 28.515625 8.296875 
L 28.515625 63.921875 
L 10.984375 60.40625 
L 10.984375 69.390625 
L 28.421875 72.90625 
L 38.28125 72.90625 
L 38.28125 8.296875 
L 54.390625 8.296875 
L 54.390625 0 
L 12.40625 0 
z
" id="DejaVuSans-49"/>
      </defs>
      <g transform="translate(12.206802 195.801328)scale(0.1 -0.1)">
       <use xlink:href="#DejaVuSans-49"/>
       <use x="63.623047" xlink:href="#DejaVuSans-48"/>
       <use x="127.246094" xlink:href="#DejaVuSans-48"/>
       <use x="190.869141" xlink:href="#DejaVuSans-48"/>
       <use x="254.492188" xlink:href="#DejaVuSans-48"/>
      </g>
     </g>
    </g>
    <g id="ytick_4">
     <g id="line2d_6">
      <g>
       <use style="stroke:#000000;stroke-width:0.8;" x="51.019302" xlink:href="#m22cad73234" y="125.042346"/>
      </g>
     </g>
     <g id="text_6">
      <!-- 15000 -->
      <g transform="translate(12.206802 128.841565)scale(0.1 -0.1)">
       <use xlink:href="#DejaVuSans-49"/>
       <use x="63.623047" xlink:href="#DejaVuSans-53"/>
       <use x="127.246094" xlink:href="#DejaVuSans-48"/>
       <use x="190.869141" xlink:href="#DejaVuSans-48"/>
       <use x="254.492188" xlink:href="#DejaVuSans-48"/>
      </g>
     </g>
    </g>
    <g id="ytick_5">
     <g id="line2d_7">
      <g>
       <use style="stroke:#000000;stroke-width:0.8;" x="51.019302" xlink:href="#m22cad73234" y="58.082583"/>
      </g>
     </g>
     <g id="text_7">
      <!-- 20000 -->
      <defs>
       <path d="M 19.1875 8.296875 
L 53.609375 8.296875 
L 53.609375 0 
L 7.328125 0 
L 7.328125 8.296875 
Q 12.9375 14.109375 22.625 23.890625 
Q 32.328125 33.6875 34.8125 36.53125 
Q 39.546875 41.84375 41.421875 45.53125 
Q 43.3125 49.21875 43.3125 52.78125 
Q 43.3125 58.59375 39.234375 62.25 
Q 35.15625 65.921875 28.609375 65.921875 
Q 23.96875 65.921875 18.8125 64.3125 
Q 13.671875 62.703125 7.8125 59.421875 
L 7.8125 69.390625 
Q 13.765625 71.78125 18.9375 73 
Q 24.125 74.21875 28.421875 74.21875 
Q 39.75 74.21875 46.484375 68.546875 
Q 53.21875 62.890625 53.21875 53.421875 
Q 53.21875 48.921875 51.53125 44.890625 
Q 49.859375 40.875 45.40625 35.40625 
Q 44.1875 33.984375 37.640625 27.21875 
Q 31.109375 20.453125 19.1875 8.296875 
z
" id="DejaVuSans-50"/>
      </defs>
      <g transform="translate(12.206802 61.881802)scale(0.1 -0.1)">
       <use xlink:href="#DejaVuSans-50"/>
       <use x="63.623047" xlink:href="#DejaVuSans-48"/>
       <use x="127.246094" xlink:href="#DejaVuSans-48"/>
       <use x="190.869141" xlink:href="#DejaVuSans-48"/>
       <use x="254.492188" xlink:href="#DejaVuSans-48"/>
      </g>
     </g>
    </g>
   </g>
   <g id="line2d_8">
    <path clip-path="url(#pb5c0700d6a)" d="M 55.229134 325.907507 
L 56.064418 325.904065 
L 56.899702 325.899118 
L 57.734986 325.892347 
L 58.57027 325.883283 
L 59.405554 325.871386 
L 60.240838 325.855735 
L 61.076122 325.834858 
L 61.911406 325.80673 
L 62.74669 325.768757 
L 63.581974 325.717593 
L 64.417258 325.649055 
L 65.252542 325.558005 
L 66.087826 325.439486 
L 66.92311 325.289051 
L 67.758394 325.103298 
L 68.593678 324.880086 
L 69.428962 324.619196 
L 70.264246 324.322432 
L 71.09953 323.994505 
L 71.934814 323.641567 
L 72.770098 323.270742 
L 73.605382 322.888734 
L 74.440666 322.501338 
L 75.27595 322.112107 
L 76.111234 321.722173 
L 76.946518 321.328485 
L 77.781802 320.924161 
L 78.617086 320.499199 
L 79.45237 320.042685 
L 80.287654 319.543362 
L 81.122938 318.99056 
L 81.958222 318.373449 
L 82.793506 317.682193 
L 83.62879 316.909041 
L 84.464074 316.047092 
L 85.299358 315.087651 
L 86.134642 314.019368 
L 86.969926 312.830675 
L 87.80521 311.513902 
L 88.640494 310.065993 
L 89.475778 308.4876 
L 90.311062 306.78338 
L 91.146346 304.964094 
L 91.98163 303.048102 
L 92.816914 301.055908 
L 93.652198 299.003543 
L 94.487482 296.901229 
L 95.322766 294.752387 
L 96.15805 292.555426 
L 96.993334 290.301975 
L 97.828618 287.974458 
L 98.663902 285.549204 
L 99.499186 283.000154 
L 100.33447 280.299123 
L 101.169754 277.41634 
L 102.005038 274.320623 
L 102.840322 270.983796 
L 103.675606 267.38232 
L 104.51089 263.498615 
L 105.346174 259.322122 
L 106.181458 254.849009 
L 107.016742 250.086873 
L 107.852026 245.051354 
L 108.68731 239.75707 
L 109.522594 234.22297 
L 110.357878 228.470454 
L 111.193162 222.521945 
L 112.028446 216.404333 
L 112.86373 210.140502 
L 113.699014 203.750271 
L 114.534298 197.263501 
L 115.369582 190.706832 
L 116.204866 184.104204 
L 117.04015 177.475851 
L 117.875434 170.828356 
L 118.710718 164.163608 
L 119.546002 157.480104 
L 120.381286 150.759987 
L 121.21657 143.975572 
L 122.051854 137.087975 
L 122.887138 130.047657 
L 123.722422 122.807976 
L 124.557706 115.31811 
L 125.39299 107.52531 
L 126.228274 99.379639 
L 127.063558 90.847303 
L 127.898842 81.927331 
L 128.734126 72.631063 
L 129.56941 62.981461 
L 130.404694 53.102734 
L 131.239978 43.021244 
L 132.075262 32.775664 
" style="fill:none;stroke:#ff0000;stroke-linecap:square;stroke-width:1.5;"/>
   </g>
   <g id="patch_96">
    <path d="M 51.019302 325.921635 
L 51.019302 18.118365 
" style="fill:none;stroke:#000000;stroke-linecap:square;stroke-linejoin:miter;stroke-width:0.8;"/>
   </g>
   <g id="patch_97">
    <path d="M 136.285093 325.921635 
L 136.285093 18.118365 
" style="fill:none;stroke:#000000;stroke-linecap:square;stroke-linejoin:miter;stroke-width:0.8;"/>
   </g>
   <g id="patch_98">
    <path d="M 51.019302 325.921635 
L 136.285093 325.921635 
" style="fill:none;stroke:#000000;stroke-linecap:square;stroke-linejoin:miter;stroke-width:0.8;"/>
   </g>
   <g id="patch_99">
    <path d="M 51.019302 18.118365 
L 136.285093 18.118365 
" style="fill:none;stroke:#000000;stroke-linecap:square;stroke-linejoin:miter;stroke-width:0.8;"/>
   </g>
   <g id="text_8">
    <!-- Casos acumulados - AP - (data) -->
    <defs>
     <path d="M 64.40625 67.28125 
L 64.40625 56.890625 
Q 59.421875 61.53125 53.78125 63.8125 
Q 48.140625 66.109375 41.796875 66.109375 
Q 29.296875 66.109375 22.65625 58.46875 
Q 16.015625 50.828125 16.015625 36.375 
Q 16.015625 21.96875 22.65625 14.328125 
Q 29.296875 6.6875 41.796875 6.6875 
Q 48.140625 6.6875 53.78125 8.984375 
Q 59.421875 11.28125 64.40625 15.921875 
L 64.40625 5.609375 
Q 59.234375 2.09375 53.4375 0.328125 
Q 47.65625 -1.421875 41.21875 -1.421875 
Q 24.65625 -1.421875 15.125 8.703125 
Q 5.609375 18.84375 5.609375 36.375 
Q 5.609375 53.953125 15.125 64.078125 
Q 24.65625 74.21875 41.21875 74.21875 
Q 47.75 74.21875 53.53125 72.484375 
Q 59.328125 70.75 64.40625 67.28125 
z
" id="DejaVuSans-67"/>
     <path d="M 34.28125 27.484375 
Q 23.390625 27.484375 19.1875 25 
Q 14.984375 22.515625 14.984375 16.5 
Q 14.984375 11.71875 18.140625 8.90625 
Q 21.296875 6.109375 26.703125 6.109375 
Q 34.1875 6.109375 38.703125 11.40625 
Q 43.21875 16.703125 43.21875 25.484375 
L 43.21875 27.484375 
z
M 52.203125 31.203125 
L 52.203125 0 
L 43.21875 0 
L 43.21875 8.296875 
Q 40.140625 3.328125 35.546875 0.953125 
Q 30.953125 -1.421875 24.3125 -1.421875 
Q 15.921875 -1.421875 10.953125 3.296875 
Q 6 8.015625 6 15.921875 
Q 6 25.140625 12.171875 29.828125 
Q 18.359375 34.515625 30.609375 34.515625 
L 43.21875 34.515625 
L 43.21875 35.40625 
Q 43.21875 41.609375 39.140625 45 
Q 35.0625 48.390625 27.6875 48.390625 
Q 23 48.390625 18.546875 47.265625 
Q 14.109375 46.140625 10.015625 43.890625 
L 10.015625 52.203125 
Q 14.9375 54.109375 19.578125 55.046875 
Q 24.21875 56 28.609375 56 
Q 40.484375 56 46.34375 49.84375 
Q 52.203125 43.703125 52.203125 31.203125 
z
" id="DejaVuSans-97"/>
     <path d="M 44.28125 53.078125 
L 44.28125 44.578125 
Q 40.484375 46.53125 36.375 47.5 
Q 32.28125 48.484375 27.875 48.484375 
Q 21.1875 48.484375 17.84375 46.4375 
Q 14.5 44.390625 14.5 40.28125 
Q 14.5 37.15625 16.890625 35.375 
Q 19.28125 33.59375 26.515625 31.984375 
L 29.59375 31.296875 
Q 39.15625 29.25 43.1875 25.515625 
Q 47.21875 21.78125 47.21875 15.09375 
Q 47.21875 7.46875 41.1875 3.015625 
Q 35.15625 -1.421875 24.609375 -1.421875 
Q 20.21875 -1.421875 15.453125 -0.5625 
Q 10.6875 0.296875 5.421875 2 
L 5.421875 11.28125 
Q 10.40625 8.6875 15.234375 7.390625 
Q 20.0625 6.109375 24.8125 6.109375 
Q 31.15625 6.109375 34.5625 8.28125 
Q 37.984375 10.453125 37.984375 14.40625 
Q 37.984375 18.0625 35.515625 20.015625 
Q 33.0625 21.96875 24.703125 23.78125 
L 21.578125 24.515625 
Q 13.234375 26.265625 9.515625 29.90625 
Q 5.8125 33.546875 5.8125 39.890625 
Q 5.8125 47.609375 11.28125 51.796875 
Q 16.75 56 26.8125 56 
Q 31.78125 56 36.171875 55.265625 
Q 40.578125 54.546875 44.28125 53.078125 
z
" id="DejaVuSans-115"/>
     <path d="M 30.609375 48.390625 
Q 23.390625 48.390625 19.1875 42.75 
Q 14.984375 37.109375 14.984375 27.296875 
Q 14.984375 17.484375 19.15625 11.84375 
Q 23.34375 6.203125 30.609375 6.203125 
Q 37.796875 6.203125 41.984375 11.859375 
Q 46.1875 17.53125 46.1875 27.296875 
Q 46.1875 37.015625 41.984375 42.703125 
Q 37.796875 48.390625 30.609375 48.390625 
z
M 30.609375 56 
Q 42.328125 56 49.015625 48.375 
Q 55.71875 40.765625 55.71875 27.296875 
Q 55.71875 13.875 49.015625 6.21875 
Q 42.328125 -1.421875 30.609375 -1.421875 
Q 18.84375 -1.421875 12.171875 6.21875 
Q 5.515625 13.875 5.515625 27.296875 
Q 5.515625 40.765625 12.171875 48.375 
Q 18.84375 56 30.609375 56 
z
" id="DejaVuSans-111"/>
     <path id="DejaVuSans-32"/>
     <path d="M 48.78125 52.59375 
L 48.78125 44.1875 
Q 44.96875 46.296875 41.140625 47.34375 
Q 37.3125 48.390625 33.40625 48.390625 
Q 24.65625 48.390625 19.8125 42.84375 
Q 14.984375 37.3125 14.984375 27.296875 
Q 14.984375 17.28125 19.8125 11.734375 
Q 24.65625 6.203125 33.40625 6.203125 
Q 37.3125 6.203125 41.140625 7.25 
Q 44.96875 8.296875 48.78125 10.40625 
L 48.78125 2.09375 
Q 45.015625 0.34375 40.984375 -0.53125 
Q 36.96875 -1.421875 32.421875 -1.421875 
Q 20.0625 -1.421875 12.78125 6.34375 
Q 5.515625 14.109375 5.515625 27.296875 
Q 5.515625 40.671875 12.859375 48.328125 
Q 20.21875 56 33.015625 56 
Q 37.15625 56 41.109375 55.140625 
Q 45.0625 54.296875 48.78125 52.59375 
z
" id="DejaVuSans-99"/>
     <path d="M 8.5 21.578125 
L 8.5 54.6875 
L 17.484375 54.6875 
L 17.484375 21.921875 
Q 17.484375 14.15625 20.5 10.265625 
Q 23.53125 6.390625 29.59375 6.390625 
Q 36.859375 6.390625 41.078125 11.03125 
Q 45.3125 15.671875 45.3125 23.6875 
L 45.3125 54.6875 
L 54.296875 54.6875 
L 54.296875 0 
L 45.3125 0 
L 45.3125 8.40625 
Q 42.046875 3.421875 37.71875 1 
Q 33.40625 -1.421875 27.6875 -1.421875 
Q 18.265625 -1.421875 13.375 4.4375 
Q 8.5 10.296875 8.5 21.578125 
z
M 31.109375 56 
z
" id="DejaVuSans-117"/>
     <path d="M 52 44.1875 
Q 55.375 50.25 60.0625 53.125 
Q 64.75 56 71.09375 56 
Q 79.640625 56 84.28125 50.015625 
Q 88.921875 44.046875 88.921875 33.015625 
L 88.921875 0 
L 79.890625 0 
L 79.890625 32.71875 
Q 79.890625 40.578125 77.09375 44.375 
Q 74.3125 48.1875 68.609375 48.1875 
Q 61.625 48.1875 57.5625 43.546875 
Q 53.515625 38.921875 53.515625 30.90625 
L 53.515625 0 
L 44.484375 0 
L 44.484375 32.71875 
Q 44.484375 40.625 41.703125 44.40625 
Q 38.921875 48.1875 33.109375 48.1875 
Q 26.21875 48.1875 22.15625 43.53125 
Q 18.109375 38.875 18.109375 30.90625 
L 18.109375 0 
L 9.078125 0 
L 9.078125 54.6875 
L 18.109375 54.6875 
L 18.109375 46.1875 
Q 21.1875 51.21875 25.484375 53.609375 
Q 29.78125 56 35.6875 56 
Q 41.65625 56 45.828125 52.96875 
Q 50 49.953125 52 44.1875 
z
" id="DejaVuSans-109"/>
     <path d="M 9.421875 75.984375 
L 18.40625 75.984375 
L 18.40625 0 
L 9.421875 0 
z
" id="DejaVuSans-108"/>
     <path d="M 45.40625 46.390625 
L 45.40625 75.984375 
L 54.390625 75.984375 
L 54.390625 0 
L 45.40625 0 
L 45.40625 8.203125 
Q 42.578125 3.328125 38.25 0.953125 
Q 33.9375 -1.421875 27.875 -1.421875 
Q 17.96875 -1.421875 11.734375 6.484375 
Q 5.515625 14.40625 5.515625 27.296875 
Q 5.515625 40.1875 11.734375 48.09375 
Q 17.96875 56 27.875 56 
Q 33.9375 56 38.25 53.625 
Q 42.578125 51.265625 45.40625 46.390625 
z
M 14.796875 27.296875 
Q 14.796875 17.390625 18.875 11.75 
Q 22.953125 6.109375 30.078125 6.109375 
Q 37.203125 6.109375 41.296875 11.75 
Q 45.40625 17.390625 45.40625 27.296875 
Q 45.40625 37.203125 41.296875 42.84375 
Q 37.203125 48.484375 30.078125 48.484375 
Q 22.953125 48.484375 18.875 42.84375 
Q 14.796875 37.203125 14.796875 27.296875 
z
" id="DejaVuSans-100"/>
     <path d="M 4.890625 31.390625 
L 31.203125 31.390625 
L 31.203125 23.390625 
L 4.890625 23.390625 
z
" id="DejaVuSans-45"/>
     <path d="M 34.1875 63.1875 
L 20.796875 26.90625 
L 47.609375 26.90625 
z
M 28.609375 72.90625 
L 39.796875 72.90625 
L 67.578125 0 
L 57.328125 0 
L 50.6875 18.703125 
L 17.828125 18.703125 
L 11.1875 0 
L 0.78125 0 
z
" id="DejaVuSans-65"/>
     <path d="M 19.671875 64.796875 
L 19.671875 37.40625 
L 32.078125 37.40625 
Q 38.96875 37.40625 42.71875 40.96875 
Q 46.484375 44.53125 46.484375 51.125 
Q 46.484375 57.671875 42.71875 61.234375 
Q 38.96875 64.796875 32.078125 64.796875 
z
M 9.8125 72.90625 
L 32.078125 72.90625 
Q 44.34375 72.90625 50.609375 67.359375 
Q 56.890625 61.8125 56.890625 51.125 
Q 56.890625 40.328125 50.609375 34.8125 
Q 44.34375 29.296875 32.078125 29.296875 
L 19.671875 29.296875 
L 19.671875 0 
L 9.8125 0 
z
" id="DejaVuSans-80"/>
     <path d="M 31 75.875 
Q 24.46875 64.65625 21.28125 53.65625 
Q 18.109375 42.671875 18.109375 31.390625 
Q 18.109375 20.125 21.3125 9.0625 
Q 24.515625 -2 31 -13.1875 
L 23.1875 -13.1875 
Q 15.875 -1.703125 12.234375 9.375 
Q 8.59375 20.453125 8.59375 31.390625 
Q 8.59375 42.28125 12.203125 53.3125 
Q 15.828125 64.359375 23.1875 75.875 
z
" id="DejaVuSans-40"/>
     <path d="M 18.3125 70.21875 
L 18.3125 54.6875 
L 36.8125 54.6875 
L 36.8125 47.703125 
L 18.3125 47.703125 
L 18.3125 18.015625 
Q 18.3125 11.328125 20.140625 9.421875 
Q 21.96875 7.515625 27.59375 7.515625 
L 36.8125 7.515625 
L 36.8125 0 
L 27.59375 0 
Q 17.1875 0 13.234375 3.875 
Q 9.28125 7.765625 9.28125 18.015625 
L 9.28125 47.703125 
L 2.6875 47.703125 
L 2.6875 54.6875 
L 9.28125 54.6875 
L 9.28125 70.21875 
z
" id="DejaVuSans-116"/>
     <path d="M 8.015625 75.875 
L 15.828125 75.875 
Q 23.140625 64.359375 26.78125 53.3125 
Q 30.421875 42.28125 30.421875 31.390625 
Q 30.421875 20.453125 26.78125 9.375 
Q 23.140625 -1.703125 15.828125 -13.1875 
L 8.015625 -13.1875 
Q 14.5 -2 17.703125 9.0625 
Q 20.90625 20.125 20.90625 31.390625 
Q 20.90625 42.671875 17.703125 53.65625 
Q 14.5 64.65625 8.015625 75.875 
z
" id="DejaVuSans-41"/>
    </defs>
    <g transform="translate(-0.294677 12.118365)scale(0.12 -0.12)">
     <use xlink:href="#DejaVuSans-67"/>
     <use x="69.824219" xlink:href="#DejaVuSans-97"/>
     <use x="131.103516" xlink:href="#DejaVuSans-115"/>
     <use x="183.203125" xlink:href="#DejaVuSans-111"/>
     <use x="244.384766" xlink:href="#DejaVuSans-115"/>
     <use x="296.484375" xlink:href="#DejaVuSans-32"/>
     <use x="328.271484" xlink:href="#DejaVuSans-97"/>
     <use x="389.550781" xlink:href="#DejaVuSans-99"/>
     <use x="444.53125" xlink:href="#DejaVuSans-117"/>
     <use x="507.910156" xlink:href="#DejaVuSans-109"/>
     <use x="605.322266" xlink:href="#DejaVuSans-117"/>
     <use x="668.701172" xlink:href="#DejaVuSans-108"/>
     <use x="696.484375" xlink:href="#DejaVuSans-97"/>
     <use x="757.763672" xlink:href="#DejaVuSans-100"/>
     <use x="821.240234" xlink:href="#DejaVuSans-111"/>
     <use x="882.421875" xlink:href="#DejaVuSans-115"/>
     <use x="934.521484" xlink:href="#DejaVuSans-32"/>
     <use x="966.308594" xlink:href="#DejaVuSans-45"/>
     <use x="1002.392578" xlink:href="#DejaVuSans-32"/>
     <use x="1034.179688" xlink:href="#DejaVuSans-65"/>
     <use x="1102.587891" xlink:href="#DejaVuSans-80"/>
     <use x="1162.890625" xlink:href="#DejaVuSans-32"/>
     <use x="1194.677734" xlink:href="#DejaVuSans-45"/>
     <use x="1230.761719" xlink:href="#DejaVuSans-32"/>
     <use x="1262.548828" xlink:href="#DejaVuSans-40"/>
     <use x="1301.5625" xlink:href="#DejaVuSans-100"/>
     <use x="1365.039062" xlink:href="#DejaVuSans-97"/>
     <use x="1426.318359" xlink:href="#DejaVuSans-116"/>
     <use x="1465.527344" xlink:href="#DejaVuSans-97"/>
     <use x="1526.806641" xlink:href="#DejaVuSans-41"/>
    </g>
   </g>
  </g>
  <g id="axes_2">
   <g id="patch_100">
    <path d="M 225.826636 325.921635 
L 311.092427 325.921635 
L 311.092427 18.118365 
L 225.826636 18.118365 
z
" style="fill:#ffffff;"/>
   </g>
   <g id="patch_101">
    <path clip-path="url(#p409acb6a46)" d="M 229.702353 325.921635 
L 230.370581 325.921635 
L 230.370581 325.921635 
L 229.702353 325.921635 
z
" style="fill:#1f77b4;"/>
   </g>
   <g id="patch_102">
    <path clip-path="url(#p409acb6a46)" d="M 230.537637 325.921635 
L 231.205865 325.921635 
L 231.205865 325.921635 
L 230.537637 325.921635 
z
" style="fill:#1f77b4;"/>
   </g>
   <g id="patch_103">
    <path clip-path="url(#p409acb6a46)" d="M 231.372921 325.921635 
L 232.041149 325.921635 
L 232.041149 325.921635 
L 231.372921 325.921635 
z
" style="fill:#1f77b4;"/>
   </g>
   <g id="patch_104">
    <path clip-path="url(#p409acb6a46)" d="M 232.208205 325.921635 
L 232.876433 325.921635 
L 232.876433 325.921635 
L 232.208205 325.921635 
z
" style="fill:#1f77b4;"/>
   </g>
   <g id="patch_105">
    <path clip-path="url(#p409acb6a46)" d="M 233.043489 325.921635 
L 233.711717 325.921635 
L 233.711717 325.921635 
L 233.043489 325.921635 
z
" style="fill:#1f77b4;"/>
   </g>
   <g id="patch_106">
    <path clip-path="url(#p409acb6a46)" d="M 233.878773 325.921635 
L 234.547001 325.921635 
L 234.547001 325.744186 
L 233.878773 325.744186 
z
" style="fill:#1f77b4;"/>
   </g>
   <g id="patch_107">
    <path clip-path="url(#p409acb6a46)" d="M 234.714057 325.921635 
L 235.382285 325.921635 
L 235.382285 325.921635 
L 234.714057 325.921635 
z
" style="fill:#1f77b4;"/>
   </g>
   <g id="patch_108">
    <path clip-path="url(#p409acb6a46)" d="M 235.549341 325.921635 
L 236.217569 325.921635 
L 236.217569 325.566737 
L 235.549341 325.566737 
z
" style="fill:#1f77b4;"/>
   </g>
   <g id="patch_109">
    <path clip-path="url(#p409acb6a46)" d="M 236.384625 325.921635 
L 237.052853 325.921635 
L 237.052853 325.921635 
L 236.384625 325.921635 
z
" style="fill:#1f77b4;"/>
   </g>
   <g id="patch_110">
    <path clip-path="url(#p409acb6a46)" d="M 237.219909 325.921635 
L 237.888137 325.921635 
L 237.888137 325.211838 
L 237.219909 325.211838 
z
" style="fill:#1f77b4;"/>
   </g>
   <g id="patch_111">
    <path clip-path="url(#p409acb6a46)" d="M 238.055193 325.921635 
L 238.723421 325.921635 
L 238.723421 325.566737 
L 238.055193 325.566737 
z
" style="fill:#1f77b4;"/>
   </g>
   <g id="patch_112">
    <path clip-path="url(#p409acb6a46)" d="M 238.890477 325.921635 
L 239.558705 325.921635 
L 239.558705 325.744186 
L 238.890477 325.744186 
z
" style="fill:#1f77b4;"/>
   </g>
   <g id="patch_113">
    <path clip-path="url(#p409acb6a46)" d="M 239.725761 325.921635 
L 240.393989 325.921635 
L 240.393989 325.921635 
L 239.725761 325.921635 
z
" style="fill:#1f77b4;"/>
   </g>
   <g id="patch_114">
    <path clip-path="url(#p409acb6a46)" d="M 240.561045 325.921635 
L 241.229273 325.921635 
L 241.229273 324.502042 
L 240.561045 324.502042 
z
" style="fill:#1f77b4;"/>
   </g>
   <g id="patch_115">
    <path clip-path="url(#p409acb6a46)" d="M 241.396329 325.921635 
L 242.064557 325.921635 
L 242.064557 324.324593 
L 241.396329 324.324593 
z
" style="fill:#1f77b4;"/>
   </g>
   <g id="patch_116">
    <path clip-path="url(#p409acb6a46)" d="M 242.231613 325.921635 
L 242.899841 325.921635 
L 242.899841 325.744186 
L 242.231613 325.744186 
z
" style="fill:#1f77b4;"/>
   </g>
   <g id="patch_117">
    <path clip-path="url(#p409acb6a46)" d="M 243.066897 325.921635 
L 243.735125 325.921635 
L 243.735125 325.034389 
L 243.066897 325.034389 
z
" style="fill:#1f77b4;"/>
   </g>
   <g id="patch_118">
    <path clip-path="url(#p409acb6a46)" d="M 243.902181 325.921635 
L 244.570409 325.921635 
L 244.570409 323.437347 
L 243.902181 323.437347 
z
" style="fill:#1f77b4;"/>
   </g>
   <g id="patch_119">
    <path clip-path="url(#p409acb6a46)" d="M 244.737465 325.921635 
L 245.405693 325.921635 
L 245.405693 315.452136 
L 244.737465 315.452136 
z
" style="fill:#1f77b4;"/>
   </g>
   <g id="patch_120">
    <path clip-path="url(#p409acb6a46)" d="M 245.572749 325.921635 
L 246.240977 325.921635 
L 246.240977 322.195203 
L 245.572749 322.195203 
z
" style="fill:#1f77b4;"/>
   </g>
   <g id="patch_121">
    <path clip-path="url(#p409acb6a46)" d="M 246.408033 325.921635 
L 247.076261 325.921635 
L 247.076261 319.178568 
L 246.408033 319.178568 
z
" style="fill:#1f77b4;"/>
   </g>
   <g id="patch_122">
    <path clip-path="url(#p409acb6a46)" d="M 247.243317 325.921635 
L 247.911545 325.921635 
L 247.911545 321.130508 
L 247.243317 321.130508 
z
" style="fill:#1f77b4;"/>
   </g>
   <g id="patch_123">
    <path clip-path="url(#p409acb6a46)" d="M 248.078601 325.921635 
L 248.746829 325.921635 
L 248.746829 319.356017 
L 248.078601 319.356017 
z
" style="fill:#1f77b4;"/>
   </g>
   <g id="patch_124">
    <path clip-path="url(#p409acb6a46)" d="M 248.913885 325.921635 
L 249.582113 325.921635 
L 249.582113 323.792245 
L 248.913885 323.792245 
z
" style="fill:#1f77b4;"/>
   </g>
   <g id="patch_125">
    <path clip-path="url(#p409acb6a46)" d="M 249.749169 325.921635 
L 250.417397 325.921635 
L 250.417397 314.387441 
L 249.749169 314.387441 
z
" style="fill:#1f77b4;"/>
   </g>
   <g id="patch_126">
    <path clip-path="url(#p409acb6a46)" d="M 250.584453 325.921635 
L 251.252681 325.921635 
L 251.252681 321.130508 
L 250.584453 321.130508 
z
" style="fill:#1f77b4;"/>
   </g>
   <g id="patch_127">
    <path clip-path="url(#p409acb6a46)" d="M 251.419737 325.921635 
L 252.087965 325.921635 
L 252.087965 320.953059 
L 251.419737 320.953059 
z
" style="fill:#1f77b4;"/>
   </g>
   <g id="patch_128">
    <path clip-path="url(#p409acb6a46)" d="M 252.255021 325.921635 
L 252.923249 325.921635 
L 252.923249 324.502042 
L 252.255021 324.502042 
z
" style="fill:#1f77b4;"/>
   </g>
   <g id="patch_129">
    <path clip-path="url(#p409acb6a46)" d="M 253.090305 325.921635 
L 253.758533 325.921635 
L 253.758533 321.840305 
L 253.090305 321.840305 
z
" style="fill:#1f77b4;"/>
   </g>
   <g id="patch_130">
    <path clip-path="url(#p409acb6a46)" d="M 253.925589 325.921635 
L 254.593817 325.921635 
L 254.593817 321.840305 
L 253.925589 321.840305 
z
" style="fill:#1f77b4;"/>
   </g>
   <g id="patch_131">
    <path clip-path="url(#p409acb6a46)" d="M 254.760874 325.921635 
L 255.429101 325.921635 
L 255.429101 322.905 
L 254.760874 322.905 
z
" style="fill:#1f77b4;"/>
   </g>
   <g id="patch_132">
    <path clip-path="url(#p409acb6a46)" d="M 255.596158 325.921635 
L 256.264385 325.921635 
L 256.264385 321.662856 
L 255.596158 321.662856 
z
" style="fill:#1f77b4;"/>
   </g>
   <g id="patch_133">
    <path clip-path="url(#p409acb6a46)" d="M 256.431442 325.921635 
L 257.099669 325.921635 
L 257.099669 322.017754 
L 256.431442 322.017754 
z
" style="fill:#1f77b4;"/>
   </g>
   <g id="patch_134">
    <path clip-path="url(#p409acb6a46)" d="M 257.266726 325.921635 
L 257.934953 325.921635 
L 257.934953 313.677645 
L 257.266726 313.677645 
z
" style="fill:#1f77b4;"/>
   </g>
   <g id="patch_135">
    <path clip-path="url(#p409acb6a46)" d="M 258.10201 325.921635 
L 258.770237 325.921635 
L 258.770237 310.838459 
L 258.10201 310.838459 
z
" style="fill:#1f77b4;"/>
   </g>
   <g id="patch_136">
    <path clip-path="url(#p409acb6a46)" d="M 258.937294 325.921635 
L 259.605521 325.921635 
L 259.605521 316.69428 
L 258.937294 316.69428 
z
" style="fill:#1f77b4;"/>
   </g>
   <g id="patch_137">
    <path clip-path="url(#p409acb6a46)" d="M 259.772578 325.921635 
L 260.440805 325.921635 
L 260.440805 305.869883 
L 259.772578 305.869883 
z
" style="fill:#1f77b4;"/>
   </g>
   <g id="patch_138">
    <path clip-path="url(#p409acb6a46)" d="M 260.607862 325.921635 
L 261.276089 325.921635 
L 261.276089 318.113873 
L 260.607862 318.113873 
z
" style="fill:#1f77b4;"/>
   </g>
   <g id="patch_139">
    <path clip-path="url(#p409acb6a46)" d="M 261.443146 325.921635 
L 262.111373 325.921635 
L 262.111373 312.435501 
L 261.443146 312.435501 
z
" style="fill:#1f77b4;"/>
   </g>
   <g id="patch_140">
    <path clip-path="url(#p409acb6a46)" d="M 262.27843 325.921635 
L 262.946657 325.921635 
L 262.946657 308.53162 
L 262.27843 308.53162 
z
" style="fill:#1f77b4;"/>
   </g>
   <g id="patch_141">
    <path clip-path="url(#p409acb6a46)" d="M 263.113714 325.921635 
L 263.781941 325.921635 
L 263.781941 314.56489 
L 263.113714 314.56489 
z
" style="fill:#1f77b4;"/>
   </g>
   <g id="patch_142">
    <path clip-path="url(#p409acb6a46)" d="M 263.948998 325.921635 
L 264.617225 325.921635 
L 264.617225 318.64622 
L 263.948998 318.64622 
z
" style="fill:#1f77b4;"/>
   </g>
   <g id="patch_143">
    <path clip-path="url(#p409acb6a46)" d="M 264.784282 325.921635 
L 265.452509 325.921635 
L 265.452509 314.209992 
L 264.784282 314.209992 
z
" style="fill:#1f77b4;"/>
   </g>
   <g id="patch_144">
    <path clip-path="url(#p409acb6a46)" d="M 265.619566 325.921635 
L 266.287793 325.921635 
L 266.287793 273.57414 
L 265.619566 273.57414 
z
" style="fill:#1f77b4;"/>
   </g>
   <g id="patch_145">
    <path clip-path="url(#p409acb6a46)" d="M 266.45485 325.921635 
L 267.123077 325.921635 
L 267.123077 281.381902 
L 266.45485 281.381902 
z
" style="fill:#1f77b4;"/>
   </g>
   <g id="patch_146">
    <path clip-path="url(#p409acb6a46)" d="M 267.290134 325.921635 
L 267.958361 325.921635 
L 267.958361 290.786706 
L 267.290134 290.786706 
z
" style="fill:#1f77b4;"/>
   </g>
   <g id="patch_147">
    <path clip-path="url(#p409acb6a46)" d="M 268.125418 325.921635 
L 268.793645 325.921635 
L 268.793645 305.514984 
L 268.125418 305.514984 
z
" style="fill:#1f77b4;"/>
   </g>
   <g id="patch_148">
    <path clip-path="url(#p409acb6a46)" d="M 268.960702 325.921635 
L 269.628929 325.921635 
L 269.628929 298.771917 
L 268.960702 298.771917 
z
" style="fill:#1f77b4;"/>
   </g>
   <g id="patch_149">
    <path clip-path="url(#p409acb6a46)" d="M 269.795986 325.921635 
L 270.464213 325.921635 
L 270.464213 304.095391 
L 269.795986 304.095391 
z
" style="fill:#1f77b4;"/>
   </g>
   <g id="patch_150">
    <path clip-path="url(#p409acb6a46)" d="M 270.63127 325.921635 
L 271.299497 325.921635 
L 271.299497 295.577833 
L 270.63127 295.577833 
z
" style="fill:#1f77b4;"/>
   </g>
   <g id="patch_151">
    <path clip-path="url(#p409acb6a46)" d="M 271.466554 325.921635 
L 272.134781 325.921635 
L 272.134781 304.627739 
L 271.466554 304.627739 
z
" style="fill:#1f77b4;"/>
   </g>
   <g id="patch_152">
    <path clip-path="url(#p409acb6a46)" d="M 272.301838 325.921635 
L 272.970065 325.921635 
L 272.970065 315.629585 
L 272.301838 315.629585 
z
" style="fill:#1f77b4;"/>
   </g>
   <g id="patch_153">
    <path clip-path="url(#p409acb6a46)" d="M 273.137122 325.921635 
L 273.805349 325.921635 
L 273.805349 283.511292 
L 273.137122 283.511292 
z
" style="fill:#1f77b4;"/>
   </g>
   <g id="patch_154">
    <path clip-path="url(#p409acb6a46)" d="M 273.972406 325.921635 
L 274.640633 325.921635 
L 274.640633 309.063967 
L 273.972406 309.063967 
z
" style="fill:#1f77b4;"/>
   </g>
   <g id="patch_155">
    <path clip-path="url(#p409acb6a46)" d="M 274.80769 325.921635 
L 275.475917 325.921635 
L 275.475917 250.860651 
L 274.80769 250.860651 
z
" style="fill:#1f77b4;"/>
   </g>
   <g id="patch_156">
    <path clip-path="url(#p409acb6a46)" d="M 275.642974 325.921635 
L 276.311201 325.921635 
L 276.311201 290.07691 
L 275.642974 290.07691 
z
" style="fill:#1f77b4;"/>
   </g>
   <g id="patch_157">
    <path clip-path="url(#p409acb6a46)" d="M 276.478258 325.921635 
L 277.146485 325.921635 
L 277.146485 289.722011 
L 276.478258 289.722011 
z
" style="fill:#1f77b4;"/>
   </g>
   <g id="patch_158">
    <path clip-path="url(#p409acb6a46)" d="M 277.313542 325.921635 
L 277.981769 325.921635 
L 277.981769 304.982637 
L 277.313542 304.982637 
z
" style="fill:#1f77b4;"/>
   </g>
   <g id="patch_159">
    <path clip-path="url(#p409acb6a46)" d="M 278.148826 325.921635 
L 278.817053 325.921635 
L 278.817053 313.322746 
L 278.148826 313.322746 
z
" style="fill:#1f77b4;"/>
   </g>
   <g id="patch_160">
    <path clip-path="url(#p409acb6a46)" d="M 278.98411 325.921635 
L 279.652337 325.921635 
L 279.652337 274.993733 
L 278.98411 274.993733 
z
" style="fill:#1f77b4;"/>
   </g>
   <g id="patch_161">
    <path clip-path="url(#p409acb6a46)" d="M 279.819394 325.921635 
L 280.487621 325.921635 
L 280.487621 283.511292 
L 279.819394 283.511292 
z
" style="fill:#1f77b4;"/>
   </g>
   <g id="patch_162">
    <path clip-path="url(#p409acb6a46)" d="M 280.654678 325.921635 
L 281.322905 325.921635 
L 281.322905 212.531638 
L 280.654678 212.531638 
z
" style="fill:#1f77b4;"/>
   </g>
   <g id="patch_163">
    <path clip-path="url(#p409acb6a46)" d="M 281.489962 325.921635 
L 282.158189 325.921635 
L 282.158189 243.052889 
L 281.489962 243.052889 
z
" style="fill:#1f77b4;"/>
   </g>
   <g id="patch_164">
    <path clip-path="url(#p409acb6a46)" d="M 282.325246 325.921635 
L 282.993473 325.921635 
L 282.993473 248.553812 
L 282.325246 248.553812 
z
" style="fill:#1f77b4;"/>
   </g>
   <g id="patch_165">
    <path clip-path="url(#p409acb6a46)" d="M 283.16053 325.921635 
L 283.828757 325.921635 
L 283.828757 279.429962 
L 283.16053 279.429962 
z
" style="fill:#1f77b4;"/>
   </g>
   <g id="patch_166">
    <path clip-path="url(#p409acb6a46)" d="M 283.995814 325.921635 
L 284.664041 325.921635 
L 284.664041 284.930885 
L 283.995814 284.930885 
z
" style="fill:#1f77b4;"/>
   </g>
   <g id="patch_167">
    <path clip-path="url(#p409acb6a46)" d="M 284.831098 325.921635 
L 285.499325 325.921635 
L 285.499325 257.958616 
L 284.831098 257.958616 
z
" style="fill:#1f77b4;"/>
   </g>
   <g id="patch_168">
    <path clip-path="url(#p409acb6a46)" d="M 285.666382 325.921635 
L 286.334609 325.921635 
L 286.334609 210.224799 
L 285.666382 210.224799 
z
" style="fill:#1f77b4;"/>
   </g>
   <g id="patch_169">
    <path clip-path="url(#p409acb6a46)" d="M 286.501666 325.921635 
L 287.169893 325.921635 
L 287.169893 231.341246 
L 286.501666 231.341246 
z
" style="fill:#1f77b4;"/>
   </g>
   <g id="patch_170">
    <path clip-path="url(#p409acb6a46)" d="M 287.33695 325.921635 
L 288.005177 325.921635 
L 288.005177 269.670259 
L 287.33695 269.670259 
z
" style="fill:#1f77b4;"/>
   </g>
   <g id="patch_171">
    <path clip-path="url(#p409acb6a46)" d="M 288.172234 325.921635 
L 288.840461 325.921635 
L 288.840461 176.154565 
L 288.172234 176.154565 
z
" style="fill:#1f77b4;"/>
   </g>
   <g id="patch_172">
    <path clip-path="url(#p409acb6a46)" d="M 289.007518 325.921635 
L 289.675745 325.921635 
L 289.675745 274.638835 
L 289.007518 274.638835 
z
" style="fill:#1f77b4;"/>
   </g>
   <g id="patch_173">
    <path clip-path="url(#p409acb6a46)" d="M 289.842802 325.921635 
L 290.511029 325.921635 
L 290.511029 274.816284 
L 289.842802 274.816284 
z
" style="fill:#1f77b4;"/>
   </g>
   <g id="patch_174">
    <path clip-path="url(#p409acb6a46)" d="M 290.678086 325.921635 
L 291.346313 325.921635 
L 291.346313 215.725722 
L 290.678086 215.725722 
z
" style="fill:#1f77b4;"/>
   </g>
   <g id="patch_175">
    <path clip-path="url(#p409acb6a46)" d="M 291.51337 325.921635 
L 292.181597 325.921635 
L 292.181597 220.16195 
L 291.51337 220.16195 
z
" style="fill:#1f77b4;"/>
   </g>
   <g id="patch_176">
    <path clip-path="url(#p409acb6a46)" d="M 292.348654 325.921635 
L 293.016881 325.921635 
L 293.016881 247.134219 
L 292.348654 247.134219 
z
" style="fill:#1f77b4;"/>
   </g>
   <g id="patch_177">
    <path clip-path="url(#p409acb6a46)" d="M 293.183938 325.921635 
L 293.852165 325.921635 
L 293.852165 188.221106 
L 293.183938 188.221106 
z
" style="fill:#1f77b4;"/>
   </g>
   <g id="patch_178">
    <path clip-path="url(#p409acb6a46)" d="M 294.019222 325.921635 
L 294.687449 325.921635 
L 294.687449 246.779321 
L 294.019222 246.779321 
z
" style="fill:#1f77b4;"/>
   </g>
   <g id="patch_179">
    <path clip-path="url(#p409acb6a46)" d="M 294.854506 325.921635 
L 295.522733 325.921635 
L 295.522733 277.65547 
L 294.854506 277.65547 
z
" style="fill:#1f77b4;"/>
   </g>
   <g id="patch_180">
    <path clip-path="url(#p409acb6a46)" d="M 295.68979 325.921635 
L 296.358017 325.921635 
L 296.358017 281.7368 
L 295.68979 281.7368 
z
" style="fill:#1f77b4;"/>
   </g>
   <g id="patch_181">
    <path clip-path="url(#p409acb6a46)" d="M 296.525074 325.921635 
L 297.193301 325.921635 
L 297.193301 241.278397 
L 296.525074 241.278397 
z
" style="fill:#1f77b4;"/>
   </g>
   <g id="patch_182">
    <path clip-path="url(#p409acb6a46)" d="M 297.360358 325.921635 
L 298.028585 325.921635 
L 298.028585 174.734972 
L 297.360358 174.734972 
z
" style="fill:#1f77b4;"/>
   </g>
   <g id="patch_183">
    <path clip-path="url(#p409acb6a46)" d="M 298.195642 325.921635 
L 298.863869 325.921635 
L 298.863869 229.566755 
L 298.195642 229.566755 
z
" style="fill:#1f77b4;"/>
   </g>
   <g id="patch_184">
    <path clip-path="url(#p409acb6a46)" d="M 299.030926 325.921635 
L 299.699153 325.921635 
L 299.699153 234.180432 
L 299.030926 234.180432 
z
" style="fill:#1f77b4;"/>
   </g>
   <g id="patch_185">
    <path clip-path="url(#p409acb6a46)" d="M 299.86621 325.921635 
L 300.534437 325.921635 
L 300.534437 212.531638 
L 299.86621 212.531638 
z
" style="fill:#1f77b4;"/>
   </g>
   <g id="patch_186">
    <path clip-path="url(#p409acb6a46)" d="M 300.701494 325.921635 
L 301.369721 325.921635 
L 301.369721 292.206299 
L 300.701494 292.206299 
z
" style="fill:#1f77b4;"/>
   </g>
   <g id="patch_187">
    <path clip-path="url(#p409acb6a46)" d="M 301.536778 325.921635 
L 302.205005 325.921635 
L 302.205005 272.509445 
L 301.536778 272.509445 
z
" style="fill:#1f77b4;"/>
   </g>
   <g id="patch_188">
    <path clip-path="url(#p409acb6a46)" d="M 302.372062 325.921635 
L 303.040289 325.921635 
L 303.040289 111.030732 
L 302.372062 111.030732 
z
" style="fill:#1f77b4;"/>
   </g>
   <g id="patch_189">
    <path clip-path="url(#p409acb6a46)" d="M 303.207346 325.921635 
L 303.875573 325.921635 
L 303.875573 220.516849 
L 303.207346 220.516849 
z
" style="fill:#1f77b4;"/>
   </g>
   <g id="patch_190">
    <path clip-path="url(#p409acb6a46)" d="M 304.04263 325.921635 
L 304.710857 325.921635 
L 304.710857 189.46325 
L 304.04263 189.46325 
z
" style="fill:#1f77b4;"/>
   </g>
   <g id="patch_191">
    <path clip-path="url(#p409acb6a46)" d="M 304.877914 325.921635 
L 305.546141 325.921635 
L 305.546141 230.986348 
L 304.877914 230.986348 
z
" style="fill:#1f77b4;"/>
   </g>
   <g id="patch_192">
    <path clip-path="url(#p409acb6a46)" d="M 305.713198 325.921635 
L 306.381425 325.921635 
L 306.381425 32.775664 
L 305.713198 32.775664 
z
" style="fill:#1f77b4;"/>
   </g>
   <g id="patch_193">
    <path clip-path="url(#p409acb6a46)" d="M 306.548482 325.921635 
L 307.216709 325.921635 
L 307.216709 278.720165 
L 306.548482 278.720165 
z
" style="fill:#1f77b4;"/>
   </g>
   <g id="matplotlib.axis_3">
    <g id="xtick_3">
     <g id="line2d_9">
      <g>
       <use style="stroke:#000000;stroke-width:0.8;" x="230.036467" xlink:href="#m150b91b192" y="325.921635"/>
      </g>
     </g>
     <g id="text_9">
      <!-- 0 -->
      <g transform="translate(226.855217 340.520072)scale(0.1 -0.1)">
       <use xlink:href="#DejaVuSans-48"/>
      </g>
     </g>
    </g>
    <g id="xtick_4">
     <g id="line2d_10">
      <g>
       <use style="stroke:#000000;stroke-width:0.8;" x="271.800667" xlink:href="#m150b91b192" y="325.921635"/>
      </g>
     </g>
     <g id="text_10">
      <!-- 50 -->
      <g transform="translate(265.438167 340.520072)scale(0.1 -0.1)">
       <use xlink:href="#DejaVuSans-53"/>
       <use x="63.623047" xlink:href="#DejaVuSans-48"/>
      </g>
     </g>
    </g>
   </g>
   <g id="matplotlib.axis_4">
    <g id="ytick_6">
     <g id="line2d_11">
      <g>
       <use style="stroke:#000000;stroke-width:0.8;" x="225.826636" xlink:href="#m22cad73234" y="325.921635"/>
      </g>
     </g>
     <g id="text_11">
      <!-- 0 -->
      <g transform="translate(212.464136 329.720854)scale(0.1 -0.1)">
       <use xlink:href="#DejaVuSans-48"/>
      </g>
     </g>
    </g>
    <g id="ytick_7">
     <g id="line2d_12">
      <g>
       <use style="stroke:#000000;stroke-width:0.8;" x="225.826636" xlink:href="#m22cad73234" y="290.431808"/>
      </g>
     </g>
     <g id="text_12">
      <!-- 200 -->
      <g transform="translate(199.739136 294.231027)scale(0.1 -0.1)">
       <use xlink:href="#DejaVuSans-50"/>
       <use x="63.623047" xlink:href="#DejaVuSans-48"/>
       <use x="127.246094" xlink:href="#DejaVuSans-48"/>
      </g>
     </g>
    </g>
    <g id="ytick_8">
     <g id="line2d_13">
      <g>
       <use style="stroke:#000000;stroke-width:0.8;" x="225.826636" xlink:href="#m22cad73234" y="254.941981"/>
      </g>
     </g>
     <g id="text_13">
      <!-- 400 -->
      <defs>
       <path d="M 37.796875 64.3125 
L 12.890625 25.390625 
L 37.796875 25.390625 
z
M 35.203125 72.90625 
L 47.609375 72.90625 
L 47.609375 25.390625 
L 58.015625 25.390625 
L 58.015625 17.1875 
L 47.609375 17.1875 
L 47.609375 0 
L 37.796875 0 
L 37.796875 17.1875 
L 4.890625 17.1875 
L 4.890625 26.703125 
z
" id="DejaVuSans-52"/>
      </defs>
      <g transform="translate(199.739136 258.7412)scale(0.1 -0.1)">
       <use xlink:href="#DejaVuSans-52"/>
       <use x="63.623047" xlink:href="#DejaVuSans-48"/>
       <use x="127.246094" xlink:href="#DejaVuSans-48"/>
      </g>
     </g>
    </g>
    <g id="ytick_9">
     <g id="line2d_14">
      <g>
       <use style="stroke:#000000;stroke-width:0.8;" x="225.826636" xlink:href="#m22cad73234" y="219.452154"/>
      </g>
     </g>
     <g id="text_14">
      <!-- 600 -->
      <defs>
       <path d="M 33.015625 40.375 
Q 26.375 40.375 22.484375 35.828125 
Q 18.609375 31.296875 18.609375 23.390625 
Q 18.609375 15.53125 22.484375 10.953125 
Q 26.375 6.390625 33.015625 6.390625 
Q 39.65625 6.390625 43.53125 10.953125 
Q 47.40625 15.53125 47.40625 23.390625 
Q 47.40625 31.296875 43.53125 35.828125 
Q 39.65625 40.375 33.015625 40.375 
z
M 52.59375 71.296875 
L 52.59375 62.3125 
Q 48.875 64.0625 45.09375 64.984375 
Q 41.3125 65.921875 37.59375 65.921875 
Q 27.828125 65.921875 22.671875 59.328125 
Q 17.53125 52.734375 16.796875 39.40625 
Q 19.671875 43.65625 24.015625 45.921875 
Q 28.375 48.1875 33.59375 48.1875 
Q 44.578125 48.1875 50.953125 41.515625 
Q 57.328125 34.859375 57.328125 23.390625 
Q 57.328125 12.15625 50.6875 5.359375 
Q 44.046875 -1.421875 33.015625 -1.421875 
Q 20.359375 -1.421875 13.671875 8.265625 
Q 6.984375 17.96875 6.984375 36.375 
Q 6.984375 53.65625 15.1875 63.9375 
Q 23.390625 74.21875 37.203125 74.21875 
Q 40.921875 74.21875 44.703125 73.484375 
Q 48.484375 72.75 52.59375 71.296875 
z
" id="DejaVuSans-54"/>
      </defs>
      <g transform="translate(199.739136 223.251373)scale(0.1 -0.1)">
       <use xlink:href="#DejaVuSans-54"/>
       <use x="63.623047" xlink:href="#DejaVuSans-48"/>
       <use x="127.246094" xlink:href="#DejaVuSans-48"/>
      </g>
     </g>
    </g>
    <g id="ytick_10">
     <g id="line2d_15">
      <g>
       <use style="stroke:#000000;stroke-width:0.8;" x="225.826636" xlink:href="#m22cad73234" y="183.962327"/>
      </g>
     </g>
     <g id="text_15">
      <!-- 800 -->
      <defs>
       <path d="M 31.78125 34.625 
Q 24.75 34.625 20.71875 30.859375 
Q 16.703125 27.09375 16.703125 20.515625 
Q 16.703125 13.921875 20.71875 10.15625 
Q 24.75 6.390625 31.78125 6.390625 
Q 38.8125 6.390625 42.859375 10.171875 
Q 46.921875 13.96875 46.921875 20.515625 
Q 46.921875 27.09375 42.890625 30.859375 
Q 38.875 34.625 31.78125 34.625 
z
M 21.921875 38.8125 
Q 15.578125 40.375 12.03125 44.71875 
Q 8.5 49.078125 8.5 55.328125 
Q 8.5 64.0625 14.71875 69.140625 
Q 20.953125 74.21875 31.78125 74.21875 
Q 42.671875 74.21875 48.875 69.140625 
Q 55.078125 64.0625 55.078125 55.328125 
Q 55.078125 49.078125 51.53125 44.71875 
Q 48 40.375 41.703125 38.8125 
Q 48.828125 37.15625 52.796875 32.3125 
Q 56.78125 27.484375 56.78125 20.515625 
Q 56.78125 9.90625 50.3125 4.234375 
Q 43.84375 -1.421875 31.78125 -1.421875 
Q 19.734375 -1.421875 13.25 4.234375 
Q 6.78125 9.90625 6.78125 20.515625 
Q 6.78125 27.484375 10.78125 32.3125 
Q 14.796875 37.15625 21.921875 38.8125 
z
M 18.3125 54.390625 
Q 18.3125 48.734375 21.84375 45.5625 
Q 25.390625 42.390625 31.78125 42.390625 
Q 38.140625 42.390625 41.71875 45.5625 
Q 45.3125 48.734375 45.3125 54.390625 
Q 45.3125 60.0625 41.71875 63.234375 
Q 38.140625 66.40625 31.78125 66.40625 
Q 25.390625 66.40625 21.84375 63.234375 
Q 18.3125 60.0625 18.3125 54.390625 
z
" id="DejaVuSans-56"/>
      </defs>
      <g transform="translate(199.739136 187.761546)scale(0.1 -0.1)">
       <use xlink:href="#DejaVuSans-56"/>
       <use x="63.623047" xlink:href="#DejaVuSans-48"/>
       <use x="127.246094" xlink:href="#DejaVuSans-48"/>
      </g>
     </g>
    </g>
    <g id="ytick_11">
     <g id="line2d_16">
      <g>
       <use style="stroke:#000000;stroke-width:0.8;" x="225.826636" xlink:href="#m22cad73234" y="148.4725"/>
      </g>
     </g>
     <g id="text_16">
      <!-- 1000 -->
      <g transform="translate(193.376636 152.271719)scale(0.1 -0.1)">
       <use xlink:href="#DejaVuSans-49"/>
       <use x="63.623047" xlink:href="#DejaVuSans-48"/>
       <use x="127.246094" xlink:href="#DejaVuSans-48"/>
       <use x="190.869141" xlink:href="#DejaVuSans-48"/>
      </g>
     </g>
    </g>
    <g id="ytick_12">
     <g id="line2d_17">
      <g>
       <use style="stroke:#000000;stroke-width:0.8;" x="225.826636" xlink:href="#m22cad73234" y="112.982673"/>
      </g>
     </g>
     <g id="text_17">
      <!-- 1200 -->
      <g transform="translate(193.376636 116.781891)scale(0.1 -0.1)">
       <use xlink:href="#DejaVuSans-49"/>
       <use x="63.623047" xlink:href="#DejaVuSans-50"/>
       <use x="127.246094" xlink:href="#DejaVuSans-48"/>
       <use x="190.869141" xlink:href="#DejaVuSans-48"/>
      </g>
     </g>
    </g>
    <g id="ytick_13">
     <g id="line2d_18">
      <g>
       <use style="stroke:#000000;stroke-width:0.8;" x="225.826636" xlink:href="#m22cad73234" y="77.492846"/>
      </g>
     </g>
     <g id="text_18">
      <!-- 1400 -->
      <g transform="translate(193.376636 81.292064)scale(0.1 -0.1)">
       <use xlink:href="#DejaVuSans-49"/>
       <use x="63.623047" xlink:href="#DejaVuSans-52"/>
       <use x="127.246094" xlink:href="#DejaVuSans-48"/>
       <use x="190.869141" xlink:href="#DejaVuSans-48"/>
      </g>
     </g>
    </g>
    <g id="ytick_14">
     <g id="line2d_19">
      <g>
       <use style="stroke:#000000;stroke-width:0.8;" x="225.826636" xlink:href="#m22cad73234" y="42.003019"/>
      </g>
     </g>
     <g id="text_19">
      <!-- 1600 -->
      <g transform="translate(193.376636 45.802237)scale(0.1 -0.1)">
       <use xlink:href="#DejaVuSans-49"/>
       <use x="63.623047" xlink:href="#DejaVuSans-54"/>
       <use x="127.246094" xlink:href="#DejaVuSans-48"/>
       <use x="190.869141" xlink:href="#DejaVuSans-48"/>
      </g>
     </g>
    </g>
   </g>
   <g id="line2d_20">
    <path clip-path="url(#p409acb6a46)" d="M 230.036467 325.890816 
L 230.871751 325.876035 
L 231.707035 325.85608 
L 232.542319 325.831913 
L 233.377603 325.801537 
L 234.212887 325.763993 
L 235.048171 325.714254 
L 235.883455 325.645004 
L 236.718739 325.548925 
L 237.554023 325.418481 
L 238.389307 325.243692 
L 239.224591 325.013474 
L 240.059875 324.715188 
L 240.895159 324.351199 
L 241.730443 323.928307 
L 242.565727 323.460332 
L 243.401011 322.963977 
L 244.236295 322.46474 
L 245.071579 321.989374 
L 245.906863 321.576459 
L 246.742147 321.245063 
L 247.577431 321.008046 
L 248.412715 320.859863 
L 249.247999 320.78847 
L 250.083283 320.764155 
L 250.918567 320.754842 
L 251.753851 320.705103 
L 252.589135 320.564164 
L 253.424419 320.290711 
L 254.259703 319.872622 
L 255.094987 319.305391 
L 255.930271 318.596777 
L 256.765555 317.744637 
L 257.600839 316.7622 
L 258.436123 315.677033 
L 259.271407 314.500444 
L 260.106691 313.208635 
L 260.941975 311.766427 
L 261.777259 310.170936 
L 262.612543 308.473825 
L 263.447827 306.736213 
L 264.283111 305.007248 
L 265.118395 303.339995 
L 265.953679 301.815307 
L 266.788963 300.533918 
L 267.624247 299.52421 
L 268.459531 298.726908 
L 269.294815 298.065077 
L 270.130099 297.44855 
L 270.965383 296.81096 
L 271.800667 296.062437 
L 272.635951 295.081034 
L 273.471235 293.785974 
L 274.306519 292.145622 
L 275.141803 290.131822 
L 275.977087 287.72351 
L 276.812371 284.902061 
L 277.647655 281.707238 
L 278.482939 278.20053 
L 279.318223 274.460868 
L 280.153507 270.581303 
L 280.988791 266.650963 
L 281.824075 262.821284 
L 282.659359 259.198839 
L 283.494643 255.770102 
L 284.329927 252.592424 
L 285.165211 249.698326 
L 286.000495 247.101331 
L 286.835779 244.860638 
L 287.671063 242.923183 
L 288.506347 241.248318 
L 289.341631 239.969147 
L 290.176915 239.042952 
L 291.012199 238.433964 
L 291.847483 238.093108 
L 292.682767 237.839461 
L 293.518051 237.610869 
L 294.353335 237.362322 
L 295.188619 236.877201 
L 296.023903 236.025208 
L 296.859187 234.658015 
L 297.694471 232.634385 
L 298.529755 229.992751 
L 299.365039 226.677682 
L 300.200323 222.66368 
L 301.035607 217.987995 
L 301.870891 212.864512 
L 302.706175 207.728169 
L 303.541459 202.742077 
L 304.376743 198.060258 
L 305.212027 195.024259 
L 306.047311 192.337542 
L 306.882595 190.163291 
" style="fill:none;stroke:#ff0000;stroke-linecap:square;stroke-width:1.5;"/>
   </g>
   <g id="patch_194">
    <path d="M 225.826636 325.921635 
L 225.826636 18.118365 
" style="fill:none;stroke:#000000;stroke-linecap:square;stroke-linejoin:miter;stroke-width:0.8;"/>
   </g>
   <g id="patch_195">
    <path d="M 311.092427 325.921635 
L 311.092427 18.118365 
" style="fill:none;stroke:#000000;stroke-linecap:square;stroke-linejoin:miter;stroke-width:0.8;"/>
   </g>
   <g id="patch_196">
    <path d="M 225.826636 325.921635 
L 311.092427 325.921635 
" style="fill:none;stroke:#000000;stroke-linecap:square;stroke-linejoin:miter;stroke-width:0.8;"/>
   </g>
   <g id="patch_197">
    <path d="M 225.826636 18.118365 
L 311.092427 18.118365 
" style="fill:none;stroke:#000000;stroke-linecap:square;stroke-linejoin:miter;stroke-width:0.8;"/>
   </g>
   <g id="text_20">
    <!-- Casos novos - AP - (data) -->
    <defs>
     <path d="M 54.890625 33.015625 
L 54.890625 0 
L 45.90625 0 
L 45.90625 32.71875 
Q 45.90625 40.484375 42.875 44.328125 
Q 39.84375 48.1875 33.796875 48.1875 
Q 26.515625 48.1875 22.3125 43.546875 
Q 18.109375 38.921875 18.109375 30.90625 
L 18.109375 0 
L 9.078125 0 
L 9.078125 54.6875 
L 18.109375 54.6875 
L 18.109375 46.1875 
Q 21.34375 51.125 25.703125 53.5625 
Q 30.078125 56 35.796875 56 
Q 45.21875 56 50.046875 50.171875 
Q 54.890625 44.34375 54.890625 33.015625 
z
" id="DejaVuSans-110"/>
     <path d="M 2.984375 54.6875 
L 12.5 54.6875 
L 29.59375 8.796875 
L 46.6875 54.6875 
L 56.203125 54.6875 
L 35.6875 0 
L 23.484375 0 
z
" id="DejaVuSans-118"/>
    </defs>
    <g transform="translate(193.065781 12.118365)scale(0.12 -0.12)">
     <use xlink:href="#DejaVuSans-67"/>
     <use x="69.824219" xlink:href="#DejaVuSans-97"/>
     <use x="131.103516" xlink:href="#DejaVuSans-115"/>
     <use x="183.203125" xlink:href="#DejaVuSans-111"/>
     <use x="244.384766" xlink:href="#DejaVuSans-115"/>
     <use x="296.484375" xlink:href="#DejaVuSans-32"/>
     <use x="328.271484" xlink:href="#DejaVuSans-110"/>
     <use x="391.650391" xlink:href="#DejaVuSans-111"/>
     <use x="452.832031" xlink:href="#DejaVuSans-118"/>
     <use x="512.011719" xlink:href="#DejaVuSans-111"/>
     <use x="573.193359" xlink:href="#DejaVuSans-115"/>
     <use x="625.292969" xlink:href="#DejaVuSans-32"/>
     <use x="657.080078" xlink:href="#DejaVuSans-45"/>
     <use x="693.164062" xlink:href="#DejaVuSans-32"/>
     <use x="724.951172" xlink:href="#DejaVuSans-65"/>
     <use x="793.359375" xlink:href="#DejaVuSans-80"/>
     <use x="853.662109" xlink:href="#DejaVuSans-32"/>
     <use x="885.449219" xlink:href="#DejaVuSans-45"/>
     <use x="921.533203" xlink:href="#DejaVuSans-32"/>
     <use x="953.320312" xlink:href="#DejaVuSans-40"/>
     <use x="992.333984" xlink:href="#DejaVuSans-100"/>
     <use x="1055.810547" xlink:href="#DejaVuSans-97"/>
     <use x="1117.089844" xlink:href="#DejaVuSans-116"/>
     <use x="1156.298828" xlink:href="#DejaVuSans-97"/>
     <use x="1217.578125" xlink:href="#DejaVuSans-41"/>
    </g>
   </g>
  </g>
  <g id="axes_3">
   <g id="patch_198">
    <path d="M 372.533969 325.921635 
L 457.79976 325.921635 
L 457.79976 18.118365 
L 372.533969 18.118365 
z
" style="fill:#ffffff;"/>
   </g>
   <g id="matplotlib.axis_5">
    <g id="xtick_5">
     <g id="line2d_21">
      <g>
       <use style="stroke:#000000;stroke-width:0.8;" x="376.409687" xlink:href="#m150b91b192" y="325.921635"/>
      </g>
     </g>
     <g id="text_21">
      <!-- 0 -->
      <g transform="translate(373.228437 340.520072)scale(0.1 -0.1)">
       <use xlink:href="#DejaVuSans-48"/>
      </g>
     </g>
    </g>
    <g id="xtick_6">
     <g id="line2d_22">
      <g>
       <use style="stroke:#000000;stroke-width:0.8;" x="418.537054" xlink:href="#m150b91b192" y="325.921635"/>
      </g>
     </g>
     <g id="text_22">
      <!-- 50 -->
      <g transform="translate(412.174554 340.520072)scale(0.1 -0.1)">
       <use xlink:href="#DejaVuSans-53"/>
       <use x="63.623047" xlink:href="#DejaVuSans-48"/>
      </g>
     </g>
    </g>
   </g>
   <g id="matplotlib.axis_6">
    <g id="ytick_15">
     <g id="line2d_23">
      <g>
       <use style="stroke:#000000;stroke-width:0.8;" x="372.533969" xlink:href="#m22cad73234" y="314.418274"/>
      </g>
     </g>
     <g id="text_23">
      <!-- 1.0 -->
      <defs>
       <path d="M 10.6875 12.40625 
L 21 12.40625 
L 21 0 
L 10.6875 0 
z
" id="DejaVuSans-46"/>
      </defs>
      <g transform="translate(349.630844 318.217493)scale(0.1 -0.1)">
       <use xlink:href="#DejaVuSans-49"/>
       <use x="63.623047" xlink:href="#DejaVuSans-46"/>
       <use x="95.410156" xlink:href="#DejaVuSans-48"/>
      </g>
     </g>
    </g>
    <g id="ytick_16">
     <g id="line2d_24">
      <g>
       <use style="stroke:#000000;stroke-width:0.8;" x="372.533969" xlink:href="#m22cad73234" y="258.741737"/>
      </g>
     </g>
     <g id="text_24">
      <!-- 1.5 -->
      <g transform="translate(349.630844 262.540956)scale(0.1 -0.1)">
       <use xlink:href="#DejaVuSans-49"/>
       <use x="63.623047" xlink:href="#DejaVuSans-46"/>
       <use x="95.410156" xlink:href="#DejaVuSans-53"/>
      </g>
     </g>
    </g>
    <g id="ytick_17">
     <g id="line2d_25">
      <g>
       <use style="stroke:#000000;stroke-width:0.8;" x="372.533969" xlink:href="#m22cad73234" y="203.0652"/>
      </g>
     </g>
     <g id="text_25">
      <!-- 2.0 -->
      <g transform="translate(349.630844 206.864418)scale(0.1 -0.1)">
       <use xlink:href="#DejaVuSans-50"/>
       <use x="63.623047" xlink:href="#DejaVuSans-46"/>
       <use x="95.410156" xlink:href="#DejaVuSans-48"/>
      </g>
     </g>
    </g>
    <g id="ytick_18">
     <g id="line2d_26">
      <g>
       <use style="stroke:#000000;stroke-width:0.8;" x="372.533969" xlink:href="#m22cad73234" y="147.388662"/>
      </g>
     </g>
     <g id="text_26">
      <!-- 2.5 -->
      <g transform="translate(349.630844 151.187881)scale(0.1 -0.1)">
       <use xlink:href="#DejaVuSans-50"/>
       <use x="63.623047" xlink:href="#DejaVuSans-46"/>
       <use x="95.410156" xlink:href="#DejaVuSans-53"/>
      </g>
     </g>
    </g>
    <g id="ytick_19">
     <g id="line2d_27">
      <g>
       <use style="stroke:#000000;stroke-width:0.8;" x="372.533969" xlink:href="#m22cad73234" y="91.712125"/>
      </g>
     </g>
     <g id="text_27">
      <!-- 3.0 -->
      <defs>
       <path d="M 40.578125 39.3125 
Q 47.65625 37.796875 51.625 33 
Q 55.609375 28.21875 55.609375 21.1875 
Q 55.609375 10.40625 48.1875 4.484375 
Q 40.765625 -1.421875 27.09375 -1.421875 
Q 22.515625 -1.421875 17.65625 -0.515625 
Q 12.796875 0.390625 7.625 2.203125 
L 7.625 11.71875 
Q 11.71875 9.328125 16.59375 8.109375 
Q 21.484375 6.890625 26.8125 6.890625 
Q 36.078125 6.890625 40.9375 10.546875 
Q 45.796875 14.203125 45.796875 21.1875 
Q 45.796875 27.640625 41.28125 31.265625 
Q 36.765625 34.90625 28.71875 34.90625 
L 20.21875 34.90625 
L 20.21875 43.015625 
L 29.109375 43.015625 
Q 36.375 43.015625 40.234375 45.921875 
Q 44.09375 48.828125 44.09375 54.296875 
Q 44.09375 59.90625 40.109375 62.90625 
Q 36.140625 65.921875 28.71875 65.921875 
Q 24.65625 65.921875 20.015625 65.03125 
Q 15.375 64.15625 9.8125 62.3125 
L 9.8125 71.09375 
Q 15.4375 72.65625 20.34375 73.4375 
Q 25.25 74.21875 29.59375 74.21875 
Q 40.828125 74.21875 47.359375 69.109375 
Q 53.90625 64.015625 53.90625 55.328125 
Q 53.90625 49.265625 50.4375 45.09375 
Q 46.96875 40.921875 40.578125 39.3125 
z
" id="DejaVuSans-51"/>
      </defs>
      <g transform="translate(349.630844 95.511344)scale(0.1 -0.1)">
       <use xlink:href="#DejaVuSans-51"/>
       <use x="63.623047" xlink:href="#DejaVuSans-46"/>
       <use x="95.410156" xlink:href="#DejaVuSans-48"/>
      </g>
     </g>
    </g>
    <g id="ytick_20">
     <g id="line2d_28">
      <g>
       <use style="stroke:#000000;stroke-width:0.8;" x="372.533969" xlink:href="#m22cad73234" y="36.035587"/>
      </g>
     </g>
     <g id="text_28">
      <!-- 3.5 -->
      <g transform="translate(349.630844 39.834806)scale(0.1 -0.1)">
       <use xlink:href="#DejaVuSans-51"/>
       <use x="63.623047" xlink:href="#DejaVuSans-46"/>
       <use x="95.410156" xlink:href="#DejaVuSans-53"/>
      </g>
     </g>
    </g>
   </g>
   <g id="line2d_29">
    <path clip-path="url(#pbfe62b7b4b)" d="M 376.409687 32.109423 
L 377.252234 56.576236 
L 378.094781 72.2803 
L 378.937329 100.143461 
L 379.779876 113.205867 
L 380.622423 124.935147 
L 381.464971 123.580893 
L 382.307518 115.210846 
L 383.150065 109.250613 
L 383.992613 108.034724 
L 384.83516 109.113292 
L 385.677708 112.473921 
L 386.520255 117.35186 
L 387.362802 129.547416 
L 388.20535 145.040718 
L 389.047897 162.442087 
L 389.890444 180.079486 
L 390.732992 198.598378 
L 391.575539 217.238331 
L 392.418086 237.771028 
L 393.260634 256.981294 
L 394.103181 274.992321 
L 394.945728 290.097588 
L 395.788276 302.343553 
L 396.630823 309.65403 
L 397.47337 311.930577 
L 398.315918 305.655115 
L 399.158465 292.09651 
L 400.001012 274.091251 
L 400.84356 257.403442 
L 401.686107 243.828042 
L 402.528654 234.71513 
L 403.371202 228.399458 
L 404.213749 225.606193 
L 405.056296 226.319318 
L 405.898844 228.276604 
L 406.741391 228.97507 
L 407.583938 228.256181 
L 408.426486 228.183162 
L 409.269033 230.884873 
L 410.11158 235.762368 
L 410.954128 241.633495 
L 411.796675 248.298799 
L 412.639222 256.458599 
L 413.48177 266.51893 
L 414.324317 276.203528 
L 415.166864 283.197464 
L 416.009412 287.395325 
L 416.851959 288.688977 
L 417.694507 287.975551 
L 418.537054 284.741044 
L 419.379601 278.361668 
L 420.222149 270.381978 
L 421.064696 262.437554 
L 421.907243 254.812861 
L 422.749791 247.802999 
L 423.592338 241.504439 
L 424.434885 236.997406 
L 425.277433 234.305629 
L 426.11998 233.286712 
L 426.962527 233.734676 
L 427.805075 235.219421 
L 428.647622 238.364799 
L 429.490169 242.262816 
L 430.332717 245.255767 
L 431.175264 248.404797 
L 432.017811 251.432085 
L 432.860359 254.174874 
L 433.702906 257.27468 
L 434.545453 259.426699 
L 435.388001 260.872412 
L 436.230548 263.780119 
L 437.073095 266.07712 
L 437.915643 267.905218 
L 438.75819 269.135333 
L 439.600737 268.104328 
L 440.443285 266.238877 
L 441.285832 263.722082 
L 442.128379 258.272234 
L 442.970927 250.921813 
L 443.813474 241.411467 
L 444.656021 229.863068 
L 445.498569 218.662709 
L 446.341116 206.612059 
L 447.183663 194.080771 
L 448.026211 181.759973 
L 448.868758 171.57806 
L 449.711306 165.820648 
L 450.553853 160.950324 
L 451.3964 156.753739 
L 452.238948 167.760838 
L 453.081495 162.45454 
L 453.924042 158.355421 
" style="fill:none;stroke:#ff0000;stroke-linecap:square;stroke-width:1.5;"/>
   </g>
   <g id="patch_199">
    <path d="M 372.533969 325.921635 
L 372.533969 18.118365 
" style="fill:none;stroke:#000000;stroke-linecap:square;stroke-linejoin:miter;stroke-width:0.8;"/>
   </g>
   <g id="patch_200">
    <path d="M 457.79976 325.921635 
L 457.79976 18.118365 
" style="fill:none;stroke:#000000;stroke-linecap:square;stroke-linejoin:miter;stroke-width:0.8;"/>
   </g>
   <g id="patch_201">
    <path d="M 372.533969 325.921635 
L 457.79976 325.921635 
" style="fill:none;stroke:#000000;stroke-linecap:square;stroke-linejoin:miter;stroke-width:0.8;"/>
   </g>
   <g id="patch_202">
    <path d="M 372.533969 18.118365 
L 457.79976 18.118365 
" style="fill:none;stroke:#000000;stroke-linecap:square;stroke-linejoin:miter;stroke-width:0.8;"/>
   </g>
   <g id="text_29">
    <!-- r0 - AP - (data) -->
    <defs>
     <path d="M 41.109375 46.296875 
Q 39.59375 47.171875 37.8125 47.578125 
Q 36.03125 48 33.890625 48 
Q 26.265625 48 22.1875 43.046875 
Q 18.109375 38.09375 18.109375 28.8125 
L 18.109375 0 
L 9.078125 0 
L 9.078125 54.6875 
L 18.109375 54.6875 
L 18.109375 46.1875 
Q 20.953125 51.171875 25.484375 53.578125 
Q 30.03125 56 36.53125 56 
Q 37.453125 56 38.578125 55.875 
Q 39.703125 55.765625 41.0625 55.515625 
z
" id="DejaVuSans-114"/>
    </defs>
    <g transform="translate(371.006864 12.118365)scale(0.12 -0.12)">
     <use xlink:href="#DejaVuSans-114"/>
     <use x="41.113281" xlink:href="#DejaVuSans-48"/>
     <use x="104.736328" xlink:href="#DejaVuSans-32"/>
     <use x="136.523438" xlink:href="#DejaVuSans-45"/>
     <use x="172.607422" xlink:href="#DejaVuSans-32"/>
     <use x="204.394531" xlink:href="#DejaVuSans-65"/>
     <use x="272.802734" xlink:href="#DejaVuSans-80"/>
     <use x="333.105469" xlink:href="#DejaVuSans-32"/>
     <use x="364.892578" xlink:href="#DejaVuSans-45"/>
     <use x="400.976562" xlink:href="#DejaVuSans-32"/>
     <use x="432.763672" xlink:href="#DejaVuSans-40"/>
     <use x="471.777344" xlink:href="#DejaVuSans-100"/>
     <use x="535.253906" xlink:href="#DejaVuSans-97"/>
     <use x="596.533203" xlink:href="#DejaVuSans-116"/>
     <use x="635.742188" xlink:href="#DejaVuSans-97"/>
     <use x="697.021484" xlink:href="#DejaVuSans-41"/>
    </g>
   </g>
  </g>
 </g>
 <defs>
  <clipPath id="pb5c0700d6a">
   <rect height="307.80327" width="85.265791" x="51.019302" y="18.118365"/>
  </clipPath>
  <clipPath id="p409acb6a46">
   <rect height="307.80327" width="85.265791" x="225.826636" y="18.118365"/>
  </clipPath>
  <clipPath id="pbfe62b7b4b">
   <rect height="307.80327" width="85.265791" x="372.533969" y="18.118365"/>
  </clipPath>
 </defs>
</svg>
