<?xml version="1.0" encoding="utf-8" standalone="no"?>
<!DOCTYPE svg PUBLIC "-//W3C//DTD SVG 1.1//EN"
  "http://www.w3.org/Graphics/SVG/1.1/DTD/svg11.dtd">
<!-- Created with matplotlib (https://matplotlib.org/) -->
<svg height="345.6pt" version="1.1" viewBox="0 0 460.8 345.6" width="460.8pt" xmlns="http://www.w3.org/2000/svg" xmlns:xlink="http://www.w3.org/1999/xlink">
 <defs>
  <style type="text/css">
*{stroke-linecap:butt;stroke-linejoin:round;}
  </style>
 </defs>
 <g id="figure_1">
  <g id="patch_1">
   <path d="M 0 345.6 
L 460.8 345.6 
L 460.8 0 
L 0 0 
z
" style="fill:#ffffff;"/>
  </g>
  <g id="axes_1">
   <g id="patch_2">
    <path d="M 51.767427 325.921635 
L 136.055052 325.921635 
L 136.055052 18.118365 
L 51.767427 18.118365 
z
" style="fill:#ffffff;"/>
   </g>
   <g id="patch_3">
    <path clip-path="url(#p9af72aa45e)" d="M 55.598683 325.921635 
L 56.172654 325.921635 
L 56.172654 325.909076 
L 55.598683 325.909076 
z
" style="fill:#1f77b4;"/>
   </g>
   <g id="patch_4">
    <path clip-path="url(#p9af72aa45e)" d="M 56.316147 325.921635 
L 56.890117 325.921635 
L 56.890117 325.909076 
L 56.316147 325.909076 
z
" style="fill:#1f77b4;"/>
   </g>
   <g id="patch_5">
    <path clip-path="url(#p9af72aa45e)" d="M 57.03361 325.921635 
L 57.607581 325.921635 
L 57.607581 325.909076 
L 57.03361 325.909076 
z
" style="fill:#1f77b4;"/>
   </g>
   <g id="patch_6">
    <path clip-path="url(#p9af72aa45e)" d="M 57.751074 325.921635 
L 58.325045 325.921635 
L 58.325045 325.909076 
L 57.751074 325.909076 
z
" style="fill:#1f77b4;"/>
   </g>
   <g id="patch_7">
    <path clip-path="url(#p9af72aa45e)" d="M 58.468537 325.921635 
L 59.042508 325.921635 
L 59.042508 325.909076 
L 58.468537 325.909076 
z
" style="fill:#1f77b4;"/>
   </g>
   <g id="patch_8">
    <path clip-path="url(#p9af72aa45e)" d="M 59.186001 325.921635 
L 59.759972 325.921635 
L 59.759972 325.909076 
L 59.186001 325.909076 
z
" style="fill:#1f77b4;"/>
   </g>
   <g id="patch_9">
    <path clip-path="url(#p9af72aa45e)" d="M 59.903465 325.921635 
L 60.477435 325.921635 
L 60.477435 325.909076 
L 59.903465 325.909076 
z
" style="fill:#1f77b4;"/>
   </g>
   <g id="patch_10">
    <path clip-path="url(#p9af72aa45e)" d="M 60.620928 325.921635 
L 61.194899 325.921635 
L 61.194899 325.909076 
L 60.620928 325.909076 
z
" style="fill:#1f77b4;"/>
   </g>
   <g id="patch_11">
    <path clip-path="url(#p9af72aa45e)" d="M 61.338392 325.921635 
L 61.912363 325.921635 
L 61.912363 325.909076 
L 61.338392 325.909076 
z
" style="fill:#1f77b4;"/>
   </g>
   <g id="patch_12">
    <path clip-path="url(#p9af72aa45e)" d="M 62.055855 325.921635 
L 62.629826 325.921635 
L 62.629826 325.909076 
L 62.055855 325.909076 
z
" style="fill:#1f77b4;"/>
   </g>
   <g id="patch_13">
    <path clip-path="url(#p9af72aa45e)" d="M 62.773319 325.921635 
L 63.34729 325.921635 
L 63.34729 325.902797 
L 62.773319 325.902797 
z
" style="fill:#1f77b4;"/>
   </g>
   <g id="patch_14">
    <path clip-path="url(#p9af72aa45e)" d="M 63.490783 325.921635 
L 64.064754 325.921635 
L 64.064754 325.902797 
L 63.490783 325.902797 
z
" style="fill:#1f77b4;"/>
   </g>
   <g id="patch_15">
    <path clip-path="url(#p9af72aa45e)" d="M 64.208246 325.921635 
L 64.782217 325.921635 
L 64.782217 325.733253 
L 64.208246 325.733253 
z
" style="fill:#1f77b4;"/>
   </g>
   <g id="patch_16">
    <path clip-path="url(#p9af72aa45e)" d="M 64.92571 325.921635 
L 65.499681 325.921635 
L 65.499681 325.714415 
L 64.92571 325.714415 
z
" style="fill:#1f77b4;"/>
   </g>
   <g id="patch_17">
    <path clip-path="url(#p9af72aa45e)" d="M 65.643173 325.921635 
L 66.217144 325.921635 
L 66.217144 325.664179 
L 65.643173 325.664179 
z
" style="fill:#1f77b4;"/>
   </g>
   <g id="patch_18">
    <path clip-path="url(#p9af72aa45e)" d="M 66.360637 325.921635 
L 66.934608 325.921635 
L 66.934608 325.613944 
L 66.360637 325.613944 
z
" style="fill:#1f77b4;"/>
   </g>
   <g id="patch_19">
    <path clip-path="url(#p9af72aa45e)" d="M 67.078101 325.921635 
L 67.652072 325.921635 
L 67.652072 325.526033 
L 67.078101 325.526033 
z
" style="fill:#1f77b4;"/>
   </g>
   <g id="patch_20">
    <path clip-path="url(#p9af72aa45e)" d="M 67.795564 325.921635 
L 68.369535 325.921635 
L 68.369535 325.4444 
L 67.795564 325.4444 
z
" style="fill:#1f77b4;"/>
   </g>
   <g id="patch_21">
    <path clip-path="url(#p9af72aa45e)" d="M 68.513028 325.921635 
L 69.086999 325.921635 
L 69.086999 325.394165 
L 68.513028 325.394165 
z
" style="fill:#1f77b4;"/>
   </g>
   <g id="patch_22">
    <path clip-path="url(#p9af72aa45e)" d="M 69.230491 325.921635 
L 69.804462 325.921635 
L 69.804462 325.268577 
L 69.230491 325.268577 
z
" style="fill:#1f77b4;"/>
   </g>
   <g id="patch_23">
    <path clip-path="url(#p9af72aa45e)" d="M 69.947955 325.921635 
L 70.521926 325.921635 
L 70.521926 325.199504 
L 69.947955 325.199504 
z
" style="fill:#1f77b4;"/>
   </g>
   <g id="patch_24">
    <path clip-path="url(#p9af72aa45e)" d="M 70.665419 325.921635 
L 71.23939 325.921635 
L 71.23939 325.124151 
L 70.665419 325.124151 
z
" style="fill:#1f77b4;"/>
   </g>
   <g id="patch_25">
    <path clip-path="url(#p9af72aa45e)" d="M 71.382882 325.921635 
L 71.956853 325.921635 
L 71.956853 324.954607 
L 71.382882 324.954607 
z
" style="fill:#1f77b4;"/>
   </g>
   <g id="patch_26">
    <path clip-path="url(#p9af72aa45e)" d="M 72.100346 325.921635 
L 72.674317 325.921635 
L 72.674317 324.81646 
L 72.100346 324.81646 
z
" style="fill:#1f77b4;"/>
   </g>
   <g id="patch_27">
    <path clip-path="url(#p9af72aa45e)" d="M 72.817809 325.921635 
L 73.39178 325.921635 
L 73.39178 324.584122 
L 72.817809 324.584122 
z
" style="fill:#1f77b4;"/>
   </g>
   <g id="patch_28">
    <path clip-path="url(#p9af72aa45e)" d="M 73.535273 325.921635 
L 74.109244 325.921635 
L 74.109244 324.376902 
L 73.535273 324.376902 
z
" style="fill:#1f77b4;"/>
   </g>
   <g id="patch_29">
    <path clip-path="url(#p9af72aa45e)" d="M 74.252737 325.921635 
L 74.826708 325.921635 
L 74.826708 324.245034 
L 74.252737 324.245034 
z
" style="fill:#1f77b4;"/>
   </g>
   <g id="patch_30">
    <path clip-path="url(#p9af72aa45e)" d="M 74.9702 325.921635 
L 75.544171 325.921635 
L 75.544171 324.150843 
L 74.9702 324.150843 
z
" style="fill:#1f77b4;"/>
   </g>
   <g id="patch_31">
    <path clip-path="url(#p9af72aa45e)" d="M 75.687664 325.921635 
L 76.261635 325.921635 
L 76.261635 323.836873 
L 75.687664 323.836873 
z
" style="fill:#1f77b4;"/>
   </g>
   <g id="patch_32">
    <path clip-path="url(#p9af72aa45e)" d="M 76.405128 325.921635 
L 76.979098 325.921635 
L 76.979098 323.403594 
L 76.405128 323.403594 
z
" style="fill:#1f77b4;"/>
   </g>
   <g id="patch_33">
    <path clip-path="url(#p9af72aa45e)" d="M 77.122591 325.921635 
L 77.696562 325.921635 
L 77.696562 323.215212 
L 77.122591 323.215212 
z
" style="fill:#1f77b4;"/>
   </g>
   <g id="patch_34">
    <path clip-path="url(#p9af72aa45e)" d="M 77.840055 325.921635 
L 78.414026 325.921635 
L 78.414026 323.058227 
L 77.840055 323.058227 
z
" style="fill:#1f77b4;"/>
   </g>
   <g id="patch_35">
    <path clip-path="url(#p9af72aa45e)" d="M 78.557518 325.921635 
L 79.131489 325.921635 
L 79.131489 322.800771 
L 78.557518 322.800771 
z
" style="fill:#1f77b4;"/>
   </g>
   <g id="patch_36">
    <path clip-path="url(#p9af72aa45e)" d="M 79.274982 325.921635 
L 79.848953 325.921635 
L 79.848953 322.411448 
L 79.274982 322.411448 
z
" style="fill:#1f77b4;"/>
   </g>
   <g id="patch_37">
    <path clip-path="url(#p9af72aa45e)" d="M 79.992446 325.921635 
L 80.566416 325.921635 
L 80.566416 322.128875 
L 79.992446 322.128875 
z
" style="fill:#1f77b4;"/>
   </g>
   <g id="patch_38">
    <path clip-path="url(#p9af72aa45e)" d="M 80.709909 325.921635 
L 81.28388 325.921635 
L 81.28388 321.934213 
L 80.709909 321.934213 
z
" style="fill:#1f77b4;"/>
   </g>
   <g id="patch_39">
    <path clip-path="url(#p9af72aa45e)" d="M 81.427373 325.921635 
L 82.001344 325.921635 
L 82.001344 321.695596 
L 81.427373 321.695596 
z
" style="fill:#1f77b4;"/>
   </g>
   <g id="patch_40">
    <path clip-path="url(#p9af72aa45e)" d="M 82.144836 325.921635 
L 82.718807 325.921635 
L 82.718807 321.381626 
L 82.144836 321.381626 
z
" style="fill:#1f77b4;"/>
   </g>
   <g id="patch_41">
    <path clip-path="url(#p9af72aa45e)" d="M 82.8623 325.921635 
L 83.436271 325.921635 
L 83.436271 321.155567 
L 82.8623 321.155567 
z
" style="fill:#1f77b4;"/>
   </g>
   <g id="patch_42">
    <path clip-path="url(#p9af72aa45e)" d="M 83.579764 325.921635 
L 84.153734 325.921635 
L 84.153734 320.854156 
L 83.579764 320.854156 
z
" style="fill:#1f77b4;"/>
   </g>
   <g id="patch_43">
    <path clip-path="url(#p9af72aa45e)" d="M 84.297227 325.921635 
L 84.871198 325.921635 
L 84.871198 319.949922 
L 84.297227 319.949922 
z
" style="fill:#1f77b4;"/>
   </g>
   <g id="patch_44">
    <path clip-path="url(#p9af72aa45e)" d="M 85.014691 325.921635 
L 85.588662 325.921635 
L 85.588662 319.271746 
L 85.014691 319.271746 
z
" style="fill:#1f77b4;"/>
   </g>
   <g id="patch_45">
    <path clip-path="url(#p9af72aa45e)" d="M 85.732154 325.921635 
L 86.306125 325.921635 
L 86.306125 318.430306 
L 85.732154 318.430306 
z
" style="fill:#1f77b4;"/>
   </g>
   <g id="patch_46">
    <path clip-path="url(#p9af72aa45e)" d="M 86.449618 325.921635 
L 87.023589 325.921635 
L 87.023589 318.197968 
L 86.449618 318.197968 
z
" style="fill:#1f77b4;"/>
   </g>
   <g id="patch_47">
    <path clip-path="url(#p9af72aa45e)" d="M 87.167082 325.921635 
L 87.741052 325.921635 
L 87.741052 317.500954 
L 87.167082 317.500954 
z
" style="fill:#1f77b4;"/>
   </g>
   <g id="patch_48">
    <path clip-path="url(#p9af72aa45e)" d="M 87.884545 325.921635 
L 88.458516 325.921635 
L 88.458516 316.571602 
L 87.884545 316.571602 
z
" style="fill:#1f77b4;"/>
   </g>
   <g id="patch_49">
    <path clip-path="url(#p9af72aa45e)" d="M 88.602009 325.921635 
L 89.17598 325.921635 
L 89.17598 315.598295 
L 88.602009 315.598295 
z
" style="fill:#1f77b4;"/>
   </g>
   <g id="patch_50">
    <path clip-path="url(#p9af72aa45e)" d="M 89.319472 325.921635 
L 89.893443 325.921635 
L 89.893443 314.687781 
L 89.319472 314.687781 
z
" style="fill:#1f77b4;"/>
   </g>
   <g id="patch_51">
    <path clip-path="url(#p9af72aa45e)" d="M 90.036936 325.921635 
L 90.610907 325.921635 
L 90.610907 313.601444 
L 90.036936 313.601444 
z
" style="fill:#1f77b4;"/>
   </g>
   <g id="patch_52">
    <path clip-path="url(#p9af72aa45e)" d="M 90.7544 325.921635 
L 91.328371 325.921635 
L 91.328371 312.854195 
L 90.7544 312.854195 
z
" style="fill:#1f77b4;"/>
   </g>
   <g id="patch_53">
    <path clip-path="url(#p9af72aa45e)" d="M 91.471863 325.921635 
L 92.045834 325.921635 
L 92.045834 312.050432 
L 91.471863 312.050432 
z
" style="fill:#1f77b4;"/>
   </g>
   <g id="patch_54">
    <path clip-path="url(#p9af72aa45e)" d="M 92.189327 325.921635 
L 92.763298 325.921635 
L 92.763298 311.139918 
L 92.189327 311.139918 
z
" style="fill:#1f77b4;"/>
   </g>
   <g id="patch_55">
    <path clip-path="url(#p9af72aa45e)" d="M 92.90679 325.921635 
L 93.480761 325.921635 
L 93.480761 309.971949 
L 92.90679 309.971949 
z
" style="fill:#1f77b4;"/>
   </g>
   <g id="patch_56">
    <path clip-path="url(#p9af72aa45e)" d="M 93.624254 325.921635 
L 94.198225 325.921635 
L 94.198225 309.306332 
L 93.624254 309.306332 
z
" style="fill:#1f77b4;"/>
   </g>
   <g id="patch_57">
    <path clip-path="url(#p9af72aa45e)" d="M 94.341718 325.921635 
L 94.915689 325.921635 
L 94.915689 308.019054 
L 94.341718 308.019054 
z
" style="fill:#1f77b4;"/>
   </g>
   <g id="patch_58">
    <path clip-path="url(#p9af72aa45e)" d="M 95.059181 325.921635 
L 95.633152 325.921635 
L 95.633152 306.549674 
L 95.059181 306.549674 
z
" style="fill:#1f77b4;"/>
   </g>
   <g id="patch_59">
    <path clip-path="url(#p9af72aa45e)" d="M 95.776645 325.921635 
L 96.350616 325.921635 
L 96.350616 305.406822 
L 95.776645 305.406822 
z
" style="fill:#1f77b4;"/>
   </g>
   <g id="patch_60">
    <path clip-path="url(#p9af72aa45e)" d="M 96.494108 325.921635 
L 97.068079 325.921635 
L 97.068079 303.975118 
L 96.494108 303.975118 
z
" style="fill:#1f77b4;"/>
   </g>
   <g id="patch_61">
    <path clip-path="url(#p9af72aa45e)" d="M 97.211572 325.921635 
L 97.785543 325.921635 
L 97.785543 302.474341 
L 97.211572 302.474341 
z
" style="fill:#1f77b4;"/>
   </g>
   <g id="patch_62">
    <path clip-path="url(#p9af72aa45e)" d="M 97.929036 325.921635 
L 98.503007 325.921635 
L 98.503007 300.552843 
L 97.929036 300.552843 
z
" style="fill:#1f77b4;"/>
   </g>
   <g id="patch_63">
    <path clip-path="url(#p9af72aa45e)" d="M 98.646499 325.921635 
L 99.22047 325.921635 
L 99.22047 298.913919 
L 98.646499 298.913919 
z
" style="fill:#1f77b4;"/>
   </g>
   <g id="patch_64">
    <path clip-path="url(#p9af72aa45e)" d="M 99.363963 325.921635 
L 99.937934 325.921635 
L 99.937934 297.488494 
L 99.363963 297.488494 
z
" style="fill:#1f77b4;"/>
   </g>
   <g id="patch_65">
    <path clip-path="url(#p9af72aa45e)" d="M 100.081427 325.921635 
L 100.655397 325.921635 
L 100.655397 295.667467 
L 100.081427 295.667467 
z
" style="fill:#1f77b4;"/>
   </g>
   <g id="patch_66">
    <path clip-path="url(#p9af72aa45e)" d="M 100.79889 325.921635 
L 101.372861 325.921635 
L 101.372861 293.431999 
L 100.79889 293.431999 
z
" style="fill:#1f77b4;"/>
   </g>
   <g id="patch_67">
    <path clip-path="url(#p9af72aa45e)" d="M 101.516354 325.921635 
L 102.090325 325.921635 
L 102.090325 291.020708 
L 101.516354 291.020708 
z
" style="fill:#1f77b4;"/>
   </g>
   <g id="patch_68">
    <path clip-path="url(#p9af72aa45e)" d="M 102.233817 325.921635 
L 102.807788 325.921635 
L 102.807788 289.450857 
L 102.233817 289.450857 
z
" style="fill:#1f77b4;"/>
   </g>
   <g id="patch_69">
    <path clip-path="url(#p9af72aa45e)" d="M 102.951281 325.921635 
L 103.525252 325.921635 
L 103.525252 286.964213 
L 102.951281 286.964213 
z
" style="fill:#1f77b4;"/>
   </g>
   <g id="patch_70">
    <path clip-path="url(#p9af72aa45e)" d="M 103.668745 325.921635 
L 104.242715 325.921635 
L 104.242715 284.810377 
L 103.668745 284.810377 
z
" style="fill:#1f77b4;"/>
   </g>
   <g id="patch_71">
    <path clip-path="url(#p9af72aa45e)" d="M 104.386208 325.921635 
L 104.960179 325.921635 
L 104.960179 282.24838 
L 104.386208 282.24838 
z
" style="fill:#1f77b4;"/>
   </g>
   <g id="patch_72">
    <path clip-path="url(#p9af72aa45e)" d="M 105.103672 325.921635 
L 105.677643 325.921635 
L 105.677643 274.88264 
L 105.103672 274.88264 
z
" style="fill:#1f77b4;"/>
   </g>
   <g id="patch_73">
    <path clip-path="url(#p9af72aa45e)" d="M 105.821135 325.921635 
L 106.395106 325.921635 
L 106.395106 273.71467 
L 105.821135 273.71467 
z
" style="fill:#1f77b4;"/>
   </g>
   <g id="patch_74">
    <path clip-path="url(#p9af72aa45e)" d="M 106.538599 325.921635 
L 107.11257 325.921635 
L 107.11257 272.904627 
L 106.538599 272.904627 
z
" style="fill:#1f77b4;"/>
   </g>
   <g id="patch_75">
    <path clip-path="url(#p9af72aa45e)" d="M 107.256063 325.921635 
L 107.830033 325.921635 
L 107.830033 272.03807 
L 107.256063 272.03807 
z
" style="fill:#1f77b4;"/>
   </g>
   <g id="patch_76">
    <path clip-path="url(#p9af72aa45e)" d="M 107.973526 325.921635 
L 108.547497 325.921635 
L 108.547497 256.766559 
L 107.973526 256.766559 
z
" style="fill:#1f77b4;"/>
   </g>
   <g id="patch_77">
    <path clip-path="url(#p9af72aa45e)" d="M 108.69099 325.921635 
L 109.264961 325.921635 
L 109.264961 255.611149 
L 108.69099 255.611149 
z
" style="fill:#1f77b4;"/>
   </g>
   <g id="patch_78">
    <path clip-path="url(#p9af72aa45e)" d="M 109.408453 325.921635 
L 109.982424 325.921635 
L 109.982424 250.939272 
L 109.408453 250.939272 
z
" style="fill:#1f77b4;"/>
   </g>
   <g id="patch_79">
    <path clip-path="url(#p9af72aa45e)" d="M 110.125917 325.921635 
L 110.699888 325.921635 
L 110.699888 247.071159 
L 110.125917 247.071159 
z
" style="fill:#1f77b4;"/>
   </g>
   <g id="patch_80">
    <path clip-path="url(#p9af72aa45e)" d="M 110.843381 325.921635 
L 111.417351 325.921635 
L 111.417351 244.289383 
L 110.843381 244.289383 
z
" style="fill:#1f77b4;"/>
   </g>
   <g id="patch_81">
    <path clip-path="url(#p9af72aa45e)" d="M 111.560844 325.921635 
L 112.134815 325.921635 
L 112.134815 238.644199 
L 111.560844 238.644199 
z
" style="fill:#1f77b4;"/>
   </g>
   <g id="patch_82">
    <path clip-path="url(#p9af72aa45e)" d="M 112.278308 325.921635 
L 112.852279 325.921635 
L 112.852279 236.728981 
L 112.278308 236.728981 
z
" style="fill:#1f77b4;"/>
   </g>
   <g id="patch_83">
    <path clip-path="url(#p9af72aa45e)" d="M 112.995771 325.921635 
L 113.569742 325.921635 
L 113.569742 234.455837 
L 112.995771 234.455837 
z
" style="fill:#1f77b4;"/>
   </g>
   <g id="patch_84">
    <path clip-path="url(#p9af72aa45e)" d="M 113.713235 325.921635 
L 114.287206 325.921635 
L 114.287206 231.291017 
L 113.713235 231.291017 
z
" style="fill:#1f77b4;"/>
   </g>
   <g id="patch_85">
    <path clip-path="url(#p9af72aa45e)" d="M 114.430699 325.921635 
L 115.00467 325.921635 
L 115.00467 225.683509 
L 114.430699 225.683509 
z
" style="fill:#1f77b4;"/>
   </g>
   <g id="patch_86">
    <path clip-path="url(#p9af72aa45e)" d="M 115.148162 325.921635 
L 115.722133 325.921635 
L 115.722133 219.692958 
L 115.148162 219.692958 
z
" style="fill:#1f77b4;"/>
   </g>
   <g id="patch_87">
    <path clip-path="url(#p9af72aa45e)" d="M 115.865626 325.921635 
L 116.439597 325.921635 
L 116.439597 215.240861 
L 115.865626 215.240861 
z
" style="fill:#1f77b4;"/>
   </g>
   <g id="patch_88">
    <path clip-path="url(#p9af72aa45e)" d="M 116.583089 325.921635 
L 117.15706 325.921635 
L 117.15706 210.430837 
L 116.583089 210.430837 
z
" style="fill:#1f77b4;"/>
   </g>
   <g id="patch_89">
    <path clip-path="url(#p9af72aa45e)" d="M 117.300553 325.921635 
L 117.874524 325.921635 
L 117.874524 207.253459 
L 117.300553 207.253459 
z
" style="fill:#1f77b4;"/>
   </g>
   <g id="patch_90">
    <path clip-path="url(#p9af72aa45e)" d="M 118.018017 325.921635 
L 118.591988 325.921635 
L 118.591988 191.354008 
L 118.018017 191.354008 
z
" style="fill:#1f77b4;"/>
   </g>
   <g id="patch_91">
    <path clip-path="url(#p9af72aa45e)" d="M 118.73548 325.921635 
L 119.309451 325.921635 
L 119.309451 184.942736 
L 118.73548 184.942736 
z
" style="fill:#1f77b4;"/>
   </g>
   <g id="patch_92">
    <path clip-path="url(#p9af72aa45e)" d="M 119.452944 325.921635 
L 120.026915 325.921635 
L 120.026915 178.58798 
L 119.452944 178.58798 
z
" style="fill:#1f77b4;"/>
   </g>
   <g id="patch_93">
    <path clip-path="url(#p9af72aa45e)" d="M 120.170407 325.921635 
L 120.744378 325.921635 
L 120.744378 160.026062 
L 120.170407 160.026062 
z
" style="fill:#1f77b4;"/>
   </g>
   <g id="patch_94">
    <path clip-path="url(#p9af72aa45e)" d="M 120.887871 325.921635 
L 121.461842 325.921635 
L 121.461842 153.891084 
L 120.887871 153.891084 
z
" style="fill:#1f77b4;"/>
   </g>
   <g id="patch_95">
    <path clip-path="url(#p9af72aa45e)" d="M 121.605335 325.921635 
L 122.179306 325.921635 
L 122.179306 148.528473 
L 121.605335 148.528473 
z
" style="fill:#1f77b4;"/>
   </g>
   <g id="patch_96">
    <path clip-path="url(#p9af72aa45e)" d="M 122.322798 325.921635 
L 122.896769 325.921635 
L 122.896769 145.60855 
L 122.322798 145.60855 
z
" style="fill:#1f77b4;"/>
   </g>
   <g id="patch_97">
    <path clip-path="url(#p9af72aa45e)" d="M 123.040262 325.921635 
L 123.614233 325.921635 
L 123.614233 134.519123 
L 123.040262 134.519123 
z
" style="fill:#1f77b4;"/>
   </g>
   <g id="patch_98">
    <path clip-path="url(#p9af72aa45e)" d="M 123.757726 325.921635 
L 124.331696 325.921635 
L 124.331696 120.679316 
L 123.757726 120.679316 
z
" style="fill:#1f77b4;"/>
   </g>
   <g id="patch_99">
    <path clip-path="url(#p9af72aa45e)" d="M 124.475189 325.921635 
L 125.04916 325.921635 
L 125.04916 113.106355 
L 124.475189 113.106355 
z
" style="fill:#1f77b4;"/>
   </g>
   <g id="patch_100">
    <path clip-path="url(#p9af72aa45e)" d="M 125.192653 325.921635 
L 125.766624 325.921635 
L 125.766624 108.246096 
L 125.192653 108.246096 
z
" style="fill:#1f77b4;"/>
   </g>
   <g id="patch_101">
    <path clip-path="url(#p9af72aa45e)" d="M 125.910116 325.921635 
L 126.484087 325.921635 
L 126.484087 101.194326 
L 125.910116 101.194326 
z
" style="fill:#1f77b4;"/>
   </g>
   <g id="patch_102">
    <path clip-path="url(#p9af72aa45e)" d="M 126.62758 325.921635 
L 127.201551 325.921635 
L 127.201551 97.345051 
L 126.62758 97.345051 
z
" style="fill:#1f77b4;"/>
   </g>
   <g id="patch_103">
    <path clip-path="url(#p9af72aa45e)" d="M 127.345044 325.921635 
L 127.919014 325.921635 
L 127.919014 89.690458 
L 127.345044 89.690458 
z
" style="fill:#1f77b4;"/>
   </g>
   <g id="patch_104">
    <path clip-path="url(#p9af72aa45e)" d="M 128.062507 325.921635 
L 128.636478 325.921635 
L 128.636478 79.731323 
L 128.062507 79.731323 
z
" style="fill:#1f77b4;"/>
   </g>
   <g id="patch_105">
    <path clip-path="url(#p9af72aa45e)" d="M 128.779971 325.921635 
L 129.353942 325.921635 
L 129.353942 68.930748 
L 128.779971 68.930748 
z
" style="fill:#1f77b4;"/>
   </g>
   <g id="patch_106">
    <path clip-path="url(#p9af72aa45e)" d="M 129.497434 325.921635 
L 130.071405 325.921635 
L 130.071405 64.842856 
L 129.497434 64.842856 
z
" style="fill:#1f77b4;"/>
   </g>
   <g id="patch_107">
    <path clip-path="url(#p9af72aa45e)" d="M 130.214898 325.921635 
L 130.788869 325.921635 
L 130.788869 50.117654 
L 130.214898 50.117654 
z
" style="fill:#1f77b4;"/>
   </g>
   <g id="patch_108">
    <path clip-path="url(#p9af72aa45e)" d="M 130.932362 325.921635 
L 131.506332 325.921635 
L 131.506332 41.439518 
L 130.932362 41.439518 
z
" style="fill:#1f77b4;"/>
   </g>
   <g id="patch_109">
    <path clip-path="url(#p9af72aa45e)" d="M 131.649825 325.921635 
L 132.223796 325.921635 
L 132.223796 35.317099 
L 131.649825 35.317099 
z
" style="fill:#1f77b4;"/>
   </g>
   <g id="matplotlib.axis_1">
    <g id="xtick_1">
     <g id="line2d_1">
      <defs>
       <path d="M 0 0 
L 0 3.5 
" id="m130f9ac373" style="stroke:#000000;stroke-width:0.8;"/>
      </defs>
      <g>
       <use style="stroke:#000000;stroke-width:0.8;" x="55.885668" xlink:href="#m130f9ac373" y="325.921635"/>
      </g>
     </g>
     <g id="text_1">
      <!-- 0 -->
      <defs>
       <path d="M 31.78125 66.40625 
Q 24.171875 66.40625 20.328125 58.90625 
Q 16.5 51.421875 16.5 36.375 
Q 16.5 21.390625 20.328125 13.890625 
Q 24.171875 6.390625 31.78125 6.390625 
Q 39.453125 6.390625 43.28125 13.890625 
Q 47.125 21.390625 47.125 36.375 
Q 47.125 51.421875 43.28125 58.90625 
Q 39.453125 66.40625 31.78125 66.40625 
z
M 31.78125 74.21875 
Q 44.046875 74.21875 50.515625 64.515625 
Q 56.984375 54.828125 56.984375 36.375 
Q 56.984375 17.96875 50.515625 8.265625 
Q 44.046875 -1.421875 31.78125 -1.421875 
Q 19.53125 -1.421875 13.0625 8.265625 
Q 6.59375 17.96875 6.59375 36.375 
Q 6.59375 54.828125 13.0625 64.515625 
Q 19.53125 74.21875 31.78125 74.21875 
z
" id="DejaVuSans-48"/>
      </defs>
      <g transform="translate(52.704418 340.520072)scale(0.1 -0.1)">
       <use xlink:href="#DejaVuSans-48"/>
      </g>
     </g>
    </g>
    <g id="xtick_2">
     <g id="line2d_2">
      <g>
       <use style="stroke:#000000;stroke-width:0.8;" x="127.632029" xlink:href="#m130f9ac373" y="325.921635"/>
      </g>
     </g>
     <g id="text_2">
      <!-- 100 -->
      <defs>
       <path d="M 12.40625 8.296875 
L 28.515625 8.296875 
L 28.515625 63.921875 
L 10.984375 60.40625 
L 10.984375 69.390625 
L 28.421875 72.90625 
L 38.28125 72.90625 
L 38.28125 8.296875 
L 54.390625 8.296875 
L 54.390625 0 
L 12.40625 0 
z
" id="DejaVuSans-49"/>
      </defs>
      <g transform="translate(118.088279 340.520072)scale(0.1 -0.1)">
       <use xlink:href="#DejaVuSans-49"/>
       <use x="63.623047" xlink:href="#DejaVuSans-48"/>
       <use x="127.246094" xlink:href="#DejaVuSans-48"/>
      </g>
     </g>
    </g>
   </g>
   <g id="matplotlib.axis_2">
    <g id="ytick_1">
     <g id="line2d_3">
      <defs>
       <path d="M 0 0 
L -3.5 0 
" id="mf6e51b5d94" style="stroke:#000000;stroke-width:0.8;"/>
      </defs>
      <g>
       <use style="stroke:#000000;stroke-width:0.8;" x="51.767427" xlink:href="#mf6e51b5d94" y="325.921635"/>
      </g>
     </g>
     <g id="text_3">
      <!-- 0 -->
      <g transform="translate(38.404927 329.720854)scale(0.1 -0.1)">
       <use xlink:href="#DejaVuSans-48"/>
      </g>
     </g>
    </g>
    <g id="ytick_2">
     <g id="line2d_4">
      <g>
       <use style="stroke:#000000;stroke-width:0.8;" x="51.767427" xlink:href="#mf6e51b5d94" y="263.127595"/>
      </g>
     </g>
     <g id="text_4">
      <!-- 10000 -->
      <g transform="translate(12.954927 266.926814)scale(0.1 -0.1)">
       <use xlink:href="#DejaVuSans-49"/>
       <use x="63.623047" xlink:href="#DejaVuSans-48"/>
       <use x="127.246094" xlink:href="#DejaVuSans-48"/>
       <use x="190.869141" xlink:href="#DejaVuSans-48"/>
       <use x="254.492188" xlink:href="#DejaVuSans-48"/>
      </g>
     </g>
    </g>
    <g id="ytick_3">
     <g id="line2d_5">
      <g>
       <use style="stroke:#000000;stroke-width:0.8;" x="51.767427" xlink:href="#mf6e51b5d94" y="200.333556"/>
      </g>
     </g>
     <g id="text_5">
      <!-- 20000 -->
      <defs>
       <path d="M 19.1875 8.296875 
L 53.609375 8.296875 
L 53.609375 0 
L 7.328125 0 
L 7.328125 8.296875 
Q 12.9375 14.109375 22.625 23.890625 
Q 32.328125 33.6875 34.8125 36.53125 
Q 39.546875 41.84375 41.421875 45.53125 
Q 43.3125 49.21875 43.3125 52.78125 
Q 43.3125 58.59375 39.234375 62.25 
Q 35.15625 65.921875 28.609375 65.921875 
Q 23.96875 65.921875 18.8125 64.3125 
Q 13.671875 62.703125 7.8125 59.421875 
L 7.8125 69.390625 
Q 13.765625 71.78125 18.9375 73 
Q 24.125 74.21875 28.421875 74.21875 
Q 39.75 74.21875 46.484375 68.546875 
Q 53.21875 62.890625 53.21875 53.421875 
Q 53.21875 48.921875 51.53125 44.890625 
Q 49.859375 40.875 45.40625 35.40625 
Q 44.1875 33.984375 37.640625 27.21875 
Q 31.109375 20.453125 19.1875 8.296875 
z
" id="DejaVuSans-50"/>
      </defs>
      <g transform="translate(12.954927 204.132774)scale(0.1 -0.1)">
       <use xlink:href="#DejaVuSans-50"/>
       <use x="63.623047" xlink:href="#DejaVuSans-48"/>
       <use x="127.246094" xlink:href="#DejaVuSans-48"/>
       <use x="190.869141" xlink:href="#DejaVuSans-48"/>
       <use x="254.492188" xlink:href="#DejaVuSans-48"/>
      </g>
     </g>
    </g>
    <g id="ytick_4">
     <g id="line2d_6">
      <g>
       <use style="stroke:#000000;stroke-width:0.8;" x="51.767427" xlink:href="#mf6e51b5d94" y="137.539516"/>
      </g>
     </g>
     <g id="text_6">
      <!-- 30000 -->
      <defs>
       <path d="M 40.578125 39.3125 
Q 47.65625 37.796875 51.625 33 
Q 55.609375 28.21875 55.609375 21.1875 
Q 55.609375 10.40625 48.1875 4.484375 
Q 40.765625 -1.421875 27.09375 -1.421875 
Q 22.515625 -1.421875 17.65625 -0.515625 
Q 12.796875 0.390625 7.625 2.203125 
L 7.625 11.71875 
Q 11.71875 9.328125 16.59375 8.109375 
Q 21.484375 6.890625 26.8125 6.890625 
Q 36.078125 6.890625 40.9375 10.546875 
Q 45.796875 14.203125 45.796875 21.1875 
Q 45.796875 27.640625 41.28125 31.265625 
Q 36.765625 34.90625 28.71875 34.90625 
L 20.21875 34.90625 
L 20.21875 43.015625 
L 29.109375 43.015625 
Q 36.375 43.015625 40.234375 45.921875 
Q 44.09375 48.828125 44.09375 54.296875 
Q 44.09375 59.90625 40.109375 62.90625 
Q 36.140625 65.921875 28.71875 65.921875 
Q 24.65625 65.921875 20.015625 65.03125 
Q 15.375 64.15625 9.8125 62.3125 
L 9.8125 71.09375 
Q 15.4375 72.65625 20.34375 73.4375 
Q 25.25 74.21875 29.59375 74.21875 
Q 40.828125 74.21875 47.359375 69.109375 
Q 53.90625 64.015625 53.90625 55.328125 
Q 53.90625 49.265625 50.4375 45.09375 
Q 46.96875 40.921875 40.578125 39.3125 
z
" id="DejaVuSans-51"/>
      </defs>
      <g transform="translate(12.954927 141.338735)scale(0.1 -0.1)">
       <use xlink:href="#DejaVuSans-51"/>
       <use x="63.623047" xlink:href="#DejaVuSans-48"/>
       <use x="127.246094" xlink:href="#DejaVuSans-48"/>
       <use x="190.869141" xlink:href="#DejaVuSans-48"/>
       <use x="254.492188" xlink:href="#DejaVuSans-48"/>
      </g>
     </g>
    </g>
    <g id="ytick_5">
     <g id="line2d_7">
      <g>
       <use style="stroke:#000000;stroke-width:0.8;" x="51.767427" xlink:href="#mf6e51b5d94" y="74.745476"/>
      </g>
     </g>
     <g id="text_7">
      <!-- 40000 -->
      <defs>
       <path d="M 37.796875 64.3125 
L 12.890625 25.390625 
L 37.796875 25.390625 
z
M 35.203125 72.90625 
L 47.609375 72.90625 
L 47.609375 25.390625 
L 58.015625 25.390625 
L 58.015625 17.1875 
L 47.609375 17.1875 
L 47.609375 0 
L 37.796875 0 
L 37.796875 17.1875 
L 4.890625 17.1875 
L 4.890625 26.703125 
z
" id="DejaVuSans-52"/>
      </defs>
      <g transform="translate(12.954927 78.544695)scale(0.1 -0.1)">
       <use xlink:href="#DejaVuSans-52"/>
       <use x="63.623047" xlink:href="#DejaVuSans-48"/>
       <use x="127.246094" xlink:href="#DejaVuSans-48"/>
       <use x="190.869141" xlink:href="#DejaVuSans-48"/>
       <use x="254.492188" xlink:href="#DejaVuSans-48"/>
      </g>
     </g>
    </g>
   </g>
   <g id="line2d_8">
    <path clip-path="url(#p9af72aa45e)" d="M 55.885668 325.912929 
L 56.603132 325.91193 
L 57.320596 325.910358 
L 58.038059 325.907944 
L 58.755523 325.90418 
L 59.472986 325.898366 
L 60.19045 325.889587 
L 60.907914 325.876921 
L 61.625377 325.859469 
L 62.342841 325.836412 
L 63.060304 325.807026 
L 63.777768 325.770775 
L 64.495232 325.727334 
L 65.212695 325.676589 
L 65.930159 325.618364 
L 66.647622 325.55245 
L 67.365086 325.47847 
L 68.08255 325.395857 
L 68.800013 325.303785 
L 69.517477 325.201295 
L 70.234941 325.087413 
L 70.952404 324.961171 
L 71.669868 324.821507 
L 72.387331 324.667603 
L 73.104795 324.499166 
L 73.822259 324.316412 
L 74.539722 324.119789 
L 75.257186 323.909843 
L 75.974649 323.687302 
L 76.692113 323.453134 
L 77.409577 323.207839 
L 78.12704 322.950936 
L 78.844504 322.680908 
L 79.561967 322.395163 
L 80.279431 322.089802 
L 80.996895 321.759949 
L 81.714358 321.399844 
L 82.431822 321.003944 
L 83.149285 320.567024 
L 83.866749 320.084439 
L 84.584213 319.552776 
L 85.301676 318.970798 
L 86.01914 318.338749 
L 86.736603 317.658295 
L 87.454067 316.931383 
L 88.171531 316.160617 
L 88.888994 315.348855 
L 89.606458 314.498345 
L 90.323921 313.60911 
L 91.041385 312.67957 
L 91.758849 311.706529 
L 92.476312 310.685601 
L 93.193776 309.610871 
L 93.91124 308.475495 
L 94.628703 307.272399 
L 95.346167 305.995951 
L 96.06363 304.641187 
L 96.781094 303.201635 
L 97.498558 301.670587 
L 98.216021 300.042451 
L 98.933485 298.312474 
L 99.650948 296.471285 
L 100.368412 294.504611 
L 101.085876 292.393797 
L 101.803339 290.123919 
L 102.520803 287.680572 
L 103.238266 285.044894 
L 103.95573 282.19241 
L 104.673194 279.114029 
L 105.390657 275.813723 
L 106.108121 272.309405 
L 106.825584 268.620899 
L 107.543048 264.77305 
L 108.260512 260.804517 
L 108.977975 256.769467 
L 109.695439 252.699924 
L 110.412902 248.608384 
L 111.130366 244.486511 
L 111.84783 240.309235 
L 112.565293 236.033675 
L 113.282757 231.591158 
L 114.00022 226.887298 
L 114.717684 221.842596 
L 115.435148 216.39047 
L 116.152611 210.477395 
L 116.870075 204.080207 
L 117.587539 197.20641 
L 118.305002 189.898551 
L 119.022466 182.230792 
L 119.739929 174.280926 
L 120.457393 166.137705 
L 121.174857 157.903275 
L 121.89232 149.657118 
L 122.609784 141.455115 
L 123.327247 133.325672 
L 124.044711 125.273536 
L 124.762175 117.290601 
L 125.479638 109.346132 
L 126.197102 101.378717 
L 126.914565 93.331479 
L 127.632029 85.155616 
L 128.349493 76.82127 
L 129.066956 68.30791 
L 129.78442 59.605302 
L 130.501883 50.773787 
L 131.219347 41.82492 
L 131.936811 32.775664 
" style="fill:none;stroke:#ff0000;stroke-linecap:square;stroke-width:1.5;"/>
   </g>
   <g id="patch_110">
    <path d="M 51.767427 325.921635 
L 51.767427 18.118365 
" style="fill:none;stroke:#000000;stroke-linecap:square;stroke-linejoin:miter;stroke-width:0.8;"/>
   </g>
   <g id="patch_111">
    <path d="M 136.055052 325.921635 
L 136.055052 18.118365 
" style="fill:none;stroke:#000000;stroke-linecap:square;stroke-linejoin:miter;stroke-width:0.8;"/>
   </g>
   <g id="patch_112">
    <path d="M 51.767427 325.921635 
L 136.055052 325.921635 
" style="fill:none;stroke:#000000;stroke-linecap:square;stroke-linejoin:miter;stroke-width:0.8;"/>
   </g>
   <g id="patch_113">
    <path d="M 51.767427 18.118365 
L 136.055052 18.118365 
" style="fill:none;stroke:#000000;stroke-linecap:square;stroke-linejoin:miter;stroke-width:0.8;"/>
   </g>
   <g id="text_8">
    <!-- Casos acumulados - BA - (data) -->
    <defs>
     <path d="M 64.40625 67.28125 
L 64.40625 56.890625 
Q 59.421875 61.53125 53.78125 63.8125 
Q 48.140625 66.109375 41.796875 66.109375 
Q 29.296875 66.109375 22.65625 58.46875 
Q 16.015625 50.828125 16.015625 36.375 
Q 16.015625 21.96875 22.65625 14.328125 
Q 29.296875 6.6875 41.796875 6.6875 
Q 48.140625 6.6875 53.78125 8.984375 
Q 59.421875 11.28125 64.40625 15.921875 
L 64.40625 5.609375 
Q 59.234375 2.09375 53.4375 0.328125 
Q 47.65625 -1.421875 41.21875 -1.421875 
Q 24.65625 -1.421875 15.125 8.703125 
Q 5.609375 18.84375 5.609375 36.375 
Q 5.609375 53.953125 15.125 64.078125 
Q 24.65625 74.21875 41.21875 74.21875 
Q 47.75 74.21875 53.53125 72.484375 
Q 59.328125 70.75 64.40625 67.28125 
z
" id="DejaVuSans-67"/>
     <path d="M 34.28125 27.484375 
Q 23.390625 27.484375 19.1875 25 
Q 14.984375 22.515625 14.984375 16.5 
Q 14.984375 11.71875 18.140625 8.90625 
Q 21.296875 6.109375 26.703125 6.109375 
Q 34.1875 6.109375 38.703125 11.40625 
Q 43.21875 16.703125 43.21875 25.484375 
L 43.21875 27.484375 
z
M 52.203125 31.203125 
L 52.203125 0 
L 43.21875 0 
L 43.21875 8.296875 
Q 40.140625 3.328125 35.546875 0.953125 
Q 30.953125 -1.421875 24.3125 -1.421875 
Q 15.921875 -1.421875 10.953125 3.296875 
Q 6 8.015625 6 15.921875 
Q 6 25.140625 12.171875 29.828125 
Q 18.359375 34.515625 30.609375 34.515625 
L 43.21875 34.515625 
L 43.21875 35.40625 
Q 43.21875 41.609375 39.140625 45 
Q 35.0625 48.390625 27.6875 48.390625 
Q 23 48.390625 18.546875 47.265625 
Q 14.109375 46.140625 10.015625 43.890625 
L 10.015625 52.203125 
Q 14.9375 54.109375 19.578125 55.046875 
Q 24.21875 56 28.609375 56 
Q 40.484375 56 46.34375 49.84375 
Q 52.203125 43.703125 52.203125 31.203125 
z
" id="DejaVuSans-97"/>
     <path d="M 44.28125 53.078125 
L 44.28125 44.578125 
Q 40.484375 46.53125 36.375 47.5 
Q 32.28125 48.484375 27.875 48.484375 
Q 21.1875 48.484375 17.84375 46.4375 
Q 14.5 44.390625 14.5 40.28125 
Q 14.5 37.15625 16.890625 35.375 
Q 19.28125 33.59375 26.515625 31.984375 
L 29.59375 31.296875 
Q 39.15625 29.25 43.1875 25.515625 
Q 47.21875 21.78125 47.21875 15.09375 
Q 47.21875 7.46875 41.1875 3.015625 
Q 35.15625 -1.421875 24.609375 -1.421875 
Q 20.21875 -1.421875 15.453125 -0.5625 
Q 10.6875 0.296875 5.421875 2 
L 5.421875 11.28125 
Q 10.40625 8.6875 15.234375 7.390625 
Q 20.0625 6.109375 24.8125 6.109375 
Q 31.15625 6.109375 34.5625 8.28125 
Q 37.984375 10.453125 37.984375 14.40625 
Q 37.984375 18.0625 35.515625 20.015625 
Q 33.0625 21.96875 24.703125 23.78125 
L 21.578125 24.515625 
Q 13.234375 26.265625 9.515625 29.90625 
Q 5.8125 33.546875 5.8125 39.890625 
Q 5.8125 47.609375 11.28125 51.796875 
Q 16.75 56 26.8125 56 
Q 31.78125 56 36.171875 55.265625 
Q 40.578125 54.546875 44.28125 53.078125 
z
" id="DejaVuSans-115"/>
     <path d="M 30.609375 48.390625 
Q 23.390625 48.390625 19.1875 42.75 
Q 14.984375 37.109375 14.984375 27.296875 
Q 14.984375 17.484375 19.15625 11.84375 
Q 23.34375 6.203125 30.609375 6.203125 
Q 37.796875 6.203125 41.984375 11.859375 
Q 46.1875 17.53125 46.1875 27.296875 
Q 46.1875 37.015625 41.984375 42.703125 
Q 37.796875 48.390625 30.609375 48.390625 
z
M 30.609375 56 
Q 42.328125 56 49.015625 48.375 
Q 55.71875 40.765625 55.71875 27.296875 
Q 55.71875 13.875 49.015625 6.21875 
Q 42.328125 -1.421875 30.609375 -1.421875 
Q 18.84375 -1.421875 12.171875 6.21875 
Q 5.515625 13.875 5.515625 27.296875 
Q 5.515625 40.765625 12.171875 48.375 
Q 18.84375 56 30.609375 56 
z
" id="DejaVuSans-111"/>
     <path id="DejaVuSans-32"/>
     <path d="M 48.78125 52.59375 
L 48.78125 44.1875 
Q 44.96875 46.296875 41.140625 47.34375 
Q 37.3125 48.390625 33.40625 48.390625 
Q 24.65625 48.390625 19.8125 42.84375 
Q 14.984375 37.3125 14.984375 27.296875 
Q 14.984375 17.28125 19.8125 11.734375 
Q 24.65625 6.203125 33.40625 6.203125 
Q 37.3125 6.203125 41.140625 7.25 
Q 44.96875 8.296875 48.78125 10.40625 
L 48.78125 2.09375 
Q 45.015625 0.34375 40.984375 -0.53125 
Q 36.96875 -1.421875 32.421875 -1.421875 
Q 20.0625 -1.421875 12.78125 6.34375 
Q 5.515625 14.109375 5.515625 27.296875 
Q 5.515625 40.671875 12.859375 48.328125 
Q 20.21875 56 33.015625 56 
Q 37.15625 56 41.109375 55.140625 
Q 45.0625 54.296875 48.78125 52.59375 
z
" id="DejaVuSans-99"/>
     <path d="M 8.5 21.578125 
L 8.5 54.6875 
L 17.484375 54.6875 
L 17.484375 21.921875 
Q 17.484375 14.15625 20.5 10.265625 
Q 23.53125 6.390625 29.59375 6.390625 
Q 36.859375 6.390625 41.078125 11.03125 
Q 45.3125 15.671875 45.3125 23.6875 
L 45.3125 54.6875 
L 54.296875 54.6875 
L 54.296875 0 
L 45.3125 0 
L 45.3125 8.40625 
Q 42.046875 3.421875 37.71875 1 
Q 33.40625 -1.421875 27.6875 -1.421875 
Q 18.265625 -1.421875 13.375 4.4375 
Q 8.5 10.296875 8.5 21.578125 
z
M 31.109375 56 
z
" id="DejaVuSans-117"/>
     <path d="M 52 44.1875 
Q 55.375 50.25 60.0625 53.125 
Q 64.75 56 71.09375 56 
Q 79.640625 56 84.28125 50.015625 
Q 88.921875 44.046875 88.921875 33.015625 
L 88.921875 0 
L 79.890625 0 
L 79.890625 32.71875 
Q 79.890625 40.578125 77.09375 44.375 
Q 74.3125 48.1875 68.609375 48.1875 
Q 61.625 48.1875 57.5625 43.546875 
Q 53.515625 38.921875 53.515625 30.90625 
L 53.515625 0 
L 44.484375 0 
L 44.484375 32.71875 
Q 44.484375 40.625 41.703125 44.40625 
Q 38.921875 48.1875 33.109375 48.1875 
Q 26.21875 48.1875 22.15625 43.53125 
Q 18.109375 38.875 18.109375 30.90625 
L 18.109375 0 
L 9.078125 0 
L 9.078125 54.6875 
L 18.109375 54.6875 
L 18.109375 46.1875 
Q 21.1875 51.21875 25.484375 53.609375 
Q 29.78125 56 35.6875 56 
Q 41.65625 56 45.828125 52.96875 
Q 50 49.953125 52 44.1875 
z
" id="DejaVuSans-109"/>
     <path d="M 9.421875 75.984375 
L 18.40625 75.984375 
L 18.40625 0 
L 9.421875 0 
z
" id="DejaVuSans-108"/>
     <path d="M 45.40625 46.390625 
L 45.40625 75.984375 
L 54.390625 75.984375 
L 54.390625 0 
L 45.40625 0 
L 45.40625 8.203125 
Q 42.578125 3.328125 38.25 0.953125 
Q 33.9375 -1.421875 27.875 -1.421875 
Q 17.96875 -1.421875 11.734375 6.484375 
Q 5.515625 14.40625 5.515625 27.296875 
Q 5.515625 40.1875 11.734375 48.09375 
Q 17.96875 56 27.875 56 
Q 33.9375 56 38.25 53.625 
Q 42.578125 51.265625 45.40625 46.390625 
z
M 14.796875 27.296875 
Q 14.796875 17.390625 18.875 11.75 
Q 22.953125 6.109375 30.078125 6.109375 
Q 37.203125 6.109375 41.296875 11.75 
Q 45.40625 17.390625 45.40625 27.296875 
Q 45.40625 37.203125 41.296875 42.84375 
Q 37.203125 48.484375 30.078125 48.484375 
Q 22.953125 48.484375 18.875 42.84375 
Q 14.796875 37.203125 14.796875 27.296875 
z
" id="DejaVuSans-100"/>
     <path d="M 4.890625 31.390625 
L 31.203125 31.390625 
L 31.203125 23.390625 
L 4.890625 23.390625 
z
" id="DejaVuSans-45"/>
     <path d="M 19.671875 34.8125 
L 19.671875 8.109375 
L 35.5 8.109375 
Q 43.453125 8.109375 47.28125 11.40625 
Q 51.125 14.703125 51.125 21.484375 
Q 51.125 28.328125 47.28125 31.5625 
Q 43.453125 34.8125 35.5 34.8125 
z
M 19.671875 64.796875 
L 19.671875 42.828125 
L 34.28125 42.828125 
Q 41.5 42.828125 45.03125 45.53125 
Q 48.578125 48.25 48.578125 53.8125 
Q 48.578125 59.328125 45.03125 62.0625 
Q 41.5 64.796875 34.28125 64.796875 
z
M 9.8125 72.90625 
L 35.015625 72.90625 
Q 46.296875 72.90625 52.390625 68.21875 
Q 58.5 63.53125 58.5 54.890625 
Q 58.5 48.1875 55.375 44.234375 
Q 52.25 40.28125 46.1875 39.3125 
Q 53.46875 37.75 57.5 32.78125 
Q 61.53125 27.828125 61.53125 20.40625 
Q 61.53125 10.640625 54.890625 5.3125 
Q 48.25 0 35.984375 0 
L 9.8125 0 
z
" id="DejaVuSans-66"/>
     <path d="M 34.1875 63.1875 
L 20.796875 26.90625 
L 47.609375 26.90625 
z
M 28.609375 72.90625 
L 39.796875 72.90625 
L 67.578125 0 
L 57.328125 0 
L 50.6875 18.703125 
L 17.828125 18.703125 
L 11.1875 0 
L 0.78125 0 
z
" id="DejaVuSans-65"/>
     <path d="M 31 75.875 
Q 24.46875 64.65625 21.28125 53.65625 
Q 18.109375 42.671875 18.109375 31.390625 
Q 18.109375 20.125 21.3125 9.0625 
Q 24.515625 -2 31 -13.1875 
L 23.1875 -13.1875 
Q 15.875 -1.703125 12.234375 9.375 
Q 8.59375 20.453125 8.59375 31.390625 
Q 8.59375 42.28125 12.203125 53.3125 
Q 15.828125 64.359375 23.1875 75.875 
z
" id="DejaVuSans-40"/>
     <path d="M 18.3125 70.21875 
L 18.3125 54.6875 
L 36.8125 54.6875 
L 36.8125 47.703125 
L 18.3125 47.703125 
L 18.3125 18.015625 
Q 18.3125 11.328125 20.140625 9.421875 
Q 21.96875 7.515625 27.59375 7.515625 
L 36.8125 7.515625 
L 36.8125 0 
L 27.59375 0 
Q 17.1875 0 13.234375 3.875 
Q 9.28125 7.765625 9.28125 18.015625 
L 9.28125 47.703125 
L 2.6875 47.703125 
L 2.6875 54.6875 
L 9.28125 54.6875 
L 9.28125 70.21875 
z
" id="DejaVuSans-116"/>
     <path d="M 8.015625 75.875 
L 15.828125 75.875 
Q 23.140625 64.359375 26.78125 53.3125 
Q 30.421875 42.28125 30.421875 31.390625 
Q 30.421875 20.453125 26.78125 9.375 
Q 23.140625 -1.703125 15.828125 -13.1875 
L 8.015625 -13.1875 
Q 14.5 -2 17.703125 9.0625 
Q 20.90625 20.125 20.90625 31.390625 
Q 20.90625 42.671875 17.703125 53.65625 
Q 14.5 64.65625 8.015625 75.875 
z
" id="DejaVuSans-41"/>
    </defs>
    <g transform="translate(-0.534385 12.118365)scale(0.12 -0.12)">
     <use xlink:href="#DejaVuSans-67"/>
     <use x="69.824219" xlink:href="#DejaVuSans-97"/>
     <use x="131.103516" xlink:href="#DejaVuSans-115"/>
     <use x="183.203125" xlink:href="#DejaVuSans-111"/>
     <use x="244.384766" xlink:href="#DejaVuSans-115"/>
     <use x="296.484375" xlink:href="#DejaVuSans-32"/>
     <use x="328.271484" xlink:href="#DejaVuSans-97"/>
     <use x="389.550781" xlink:href="#DejaVuSans-99"/>
     <use x="444.53125" xlink:href="#DejaVuSans-117"/>
     <use x="507.910156" xlink:href="#DejaVuSans-109"/>
     <use x="605.322266" xlink:href="#DejaVuSans-117"/>
     <use x="668.701172" xlink:href="#DejaVuSans-108"/>
     <use x="696.484375" xlink:href="#DejaVuSans-97"/>
     <use x="757.763672" xlink:href="#DejaVuSans-100"/>
     <use x="821.240234" xlink:href="#DejaVuSans-111"/>
     <use x="882.421875" xlink:href="#DejaVuSans-115"/>
     <use x="934.521484" xlink:href="#DejaVuSans-32"/>
     <use x="966.308594" xlink:href="#DejaVuSans-45"/>
     <use x="1002.392578" xlink:href="#DejaVuSans-32"/>
     <use x="1034.179688" xlink:href="#DejaVuSans-66"/>
     <use x="1102.783203" xlink:href="#DejaVuSans-65"/>
     <use x="1171.191406" xlink:href="#DejaVuSans-32"/>
     <use x="1202.978516" xlink:href="#DejaVuSans-45"/>
     <use x="1239.0625" xlink:href="#DejaVuSans-32"/>
     <use x="1270.849609" xlink:href="#DejaVuSans-40"/>
     <use x="1309.863281" xlink:href="#DejaVuSans-100"/>
     <use x="1373.339844" xlink:href="#DejaVuSans-97"/>
     <use x="1434.619141" xlink:href="#DejaVuSans-116"/>
     <use x="1473.828125" xlink:href="#DejaVuSans-97"/>
     <use x="1535.107422" xlink:href="#DejaVuSans-41"/>
    </g>
   </g>
  </g>
  <g id="axes_2">
   <g id="patch_114">
    <path d="M 226.344719 325.921635 
L 310.632343 325.921635 
L 310.632343 18.118365 
L 226.344719 18.118365 
z
" style="fill:#ffffff;"/>
   </g>
   <g id="patch_115">
    <path clip-path="url(#pa43a3bb884)" d="M 230.175975 325.921635 
L 230.749946 325.921635 
L 230.749946 325.822465 
L 230.175975 325.822465 
z
" style="fill:#1f77b4;"/>
   </g>
   <g id="patch_116">
    <path clip-path="url(#pa43a3bb884)" d="M 230.893438 325.921635 
L 231.467409 325.921635 
L 231.467409 325.921635 
L 230.893438 325.921635 
z
" style="fill:#1f77b4;"/>
   </g>
   <g id="patch_117">
    <path clip-path="url(#pa43a3bb884)" d="M 231.610902 325.921635 
L 232.184873 325.921635 
L 232.184873 325.921635 
L 231.610902 325.921635 
z
" style="fill:#1f77b4;"/>
   </g>
   <g id="patch_118">
    <path clip-path="url(#pa43a3bb884)" d="M 232.328365 325.921635 
L 232.902336 325.921635 
L 232.902336 325.921635 
L 232.328365 325.921635 
z
" style="fill:#1f77b4;"/>
   </g>
   <g id="patch_119">
    <path clip-path="url(#pa43a3bb884)" d="M 233.045829 325.921635 
L 233.6198 325.921635 
L 233.6198 325.921635 
L 233.045829 325.921635 
z
" style="fill:#1f77b4;"/>
   </g>
   <g id="patch_120">
    <path clip-path="url(#pa43a3bb884)" d="M 233.763293 325.921635 
L 234.337264 325.921635 
L 234.337264 325.921635 
L 233.763293 325.921635 
z
" style="fill:#1f77b4;"/>
   </g>
   <g id="patch_121">
    <path clip-path="url(#pa43a3bb884)" d="M 234.480756 325.921635 
L 235.054727 325.921635 
L 235.054727 325.921635 
L 234.480756 325.921635 
z
" style="fill:#1f77b4;"/>
   </g>
   <g id="patch_122">
    <path clip-path="url(#pa43a3bb884)" d="M 235.19822 325.921635 
L 235.772191 325.921635 
L 235.772191 325.921635 
L 235.19822 325.921635 
z
" style="fill:#1f77b4;"/>
   </g>
   <g id="patch_123">
    <path clip-path="url(#pa43a3bb884)" d="M 235.915684 325.921635 
L 236.489654 325.921635 
L 236.489654 325.921635 
L 235.915684 325.921635 
z
" style="fill:#1f77b4;"/>
   </g>
   <g id="patch_124">
    <path clip-path="url(#pa43a3bb884)" d="M 236.633147 325.921635 
L 237.207118 325.921635 
L 237.207118 325.921635 
L 236.633147 325.921635 
z
" style="fill:#1f77b4;"/>
   </g>
   <g id="patch_125">
    <path clip-path="url(#pa43a3bb884)" d="M 237.350611 325.921635 
L 237.924582 325.921635 
L 237.924582 325.822465 
L 237.350611 325.822465 
z
" style="fill:#1f77b4;"/>
   </g>
   <g id="patch_126">
    <path clip-path="url(#pa43a3bb884)" d="M 238.068074 325.921635 
L 238.642045 325.921635 
L 238.642045 325.921635 
L 238.068074 325.921635 
z
" style="fill:#1f77b4;"/>
   </g>
   <g id="patch_127">
    <path clip-path="url(#pa43a3bb884)" d="M 238.785538 325.921635 
L 239.359509 325.921635 
L 239.359509 323.24405 
L 238.785538 323.24405 
z
" style="fill:#1f77b4;"/>
   </g>
   <g id="patch_128">
    <path clip-path="url(#pa43a3bb884)" d="M 239.503002 325.921635 
L 240.076972 325.921635 
L 240.076972 325.624126 
L 239.503002 325.624126 
z
" style="fill:#1f77b4;"/>
   </g>
   <g id="patch_129">
    <path clip-path="url(#pa43a3bb884)" d="M 240.220465 325.921635 
L 240.794436 325.921635 
L 240.794436 325.128276 
L 240.220465 325.128276 
z
" style="fill:#1f77b4;"/>
   </g>
   <g id="patch_130">
    <path clip-path="url(#pa43a3bb884)" d="M 240.937929 325.921635 
L 241.5119 325.921635 
L 241.5119 325.128276 
L 240.937929 325.128276 
z
" style="fill:#1f77b4;"/>
   </g>
   <g id="patch_131">
    <path clip-path="url(#pa43a3bb884)" d="M 241.655392 325.921635 
L 242.229363 325.921635 
L 242.229363 324.533258 
L 241.655392 324.533258 
z
" style="fill:#1f77b4;"/>
   </g>
   <g id="patch_132">
    <path clip-path="url(#pa43a3bb884)" d="M 242.372856 325.921635 
L 242.946827 325.921635 
L 242.946827 324.632427 
L 242.372856 324.632427 
z
" style="fill:#1f77b4;"/>
   </g>
   <g id="patch_133">
    <path clip-path="url(#pa43a3bb884)" d="M 243.09032 325.921635 
L 243.66429 325.921635 
L 243.66429 325.128276 
L 243.09032 325.128276 
z
" style="fill:#1f77b4;"/>
   </g>
   <g id="patch_134">
    <path clip-path="url(#pa43a3bb884)" d="M 243.807783 325.921635 
L 244.381754 325.921635 
L 244.381754 323.938239 
L 243.807783 323.938239 
z
" style="fill:#1f77b4;"/>
   </g>
   <g id="patch_135">
    <path clip-path="url(#pa43a3bb884)" d="M 244.525247 325.921635 
L 245.099218 325.921635 
L 245.099218 324.830767 
L 244.525247 324.830767 
z
" style="fill:#1f77b4;"/>
   </g>
   <g id="patch_136">
    <path clip-path="url(#pa43a3bb884)" d="M 245.24271 325.921635 
L 245.816681 325.921635 
L 245.816681 324.731597 
L 245.24271 324.731597 
z
" style="fill:#1f77b4;"/>
   </g>
   <g id="patch_137">
    <path clip-path="url(#pa43a3bb884)" d="M 245.960174 325.921635 
L 246.534145 325.921635 
L 246.534145 323.24405 
L 245.960174 323.24405 
z
" style="fill:#1f77b4;"/>
   </g>
   <g id="patch_138">
    <path clip-path="url(#pa43a3bb884)" d="M 246.677638 325.921635 
L 247.251608 325.921635 
L 247.251608 323.739899 
L 246.677638 323.739899 
z
" style="fill:#1f77b4;"/>
   </g>
   <g id="patch_139">
    <path clip-path="url(#pa43a3bb884)" d="M 247.395101 325.921635 
L 247.969072 325.921635 
L 247.969072 322.252352 
L 247.395101 322.252352 
z
" style="fill:#1f77b4;"/>
   </g>
   <g id="patch_140">
    <path clip-path="url(#pa43a3bb884)" d="M 248.112565 325.921635 
L 248.686536 325.921635 
L 248.686536 322.649031 
L 248.112565 322.649031 
z
" style="fill:#1f77b4;"/>
   </g>
   <g id="patch_141">
    <path clip-path="url(#pa43a3bb884)" d="M 248.830028 325.921635 
L 249.403999 325.921635 
L 249.403999 323.839069 
L 248.830028 323.839069 
z
" style="fill:#1f77b4;"/>
   </g>
   <g id="patch_142">
    <path clip-path="url(#pa43a3bb884)" d="M 249.547492 325.921635 
L 250.121463 325.921635 
L 250.121463 324.434088 
L 249.547492 324.434088 
z
" style="fill:#1f77b4;"/>
   </g>
   <g id="patch_143">
    <path clip-path="url(#pa43a3bb884)" d="M 250.264956 325.921635 
L 250.838927 325.921635 
L 250.838927 320.963144 
L 250.264956 320.963144 
z
" style="fill:#1f77b4;"/>
   </g>
   <g id="patch_144">
    <path clip-path="url(#pa43a3bb884)" d="M 250.982419 325.921635 
L 251.55639 325.921635 
L 251.55639 319.078918 
L 250.982419 319.078918 
z
" style="fill:#1f77b4;"/>
   </g>
   <g id="patch_145">
    <path clip-path="url(#pa43a3bb884)" d="M 251.699883 325.921635 
L 252.273854 325.921635 
L 252.273854 322.946541 
L 251.699883 322.946541 
z
" style="fill:#1f77b4;"/>
   </g>
   <g id="patch_146">
    <path clip-path="url(#pa43a3bb884)" d="M 252.417346 325.921635 
L 252.991317 325.921635 
L 252.991317 323.44239 
L 252.417346 323.44239 
z
" style="fill:#1f77b4;"/>
   </g>
   <g id="patch_147">
    <path clip-path="url(#pa43a3bb884)" d="M 253.13481 325.921635 
L 253.708781 325.921635 
L 253.708781 321.855673 
L 253.13481 321.855673 
z
" style="fill:#1f77b4;"/>
   </g>
   <g id="patch_148">
    <path clip-path="url(#pa43a3bb884)" d="M 253.852274 325.921635 
L 254.426245 325.921635 
L 254.426245 319.773107 
L 253.852274 319.773107 
z
" style="fill:#1f77b4;"/>
   </g>
   <g id="patch_149">
    <path clip-path="url(#pa43a3bb884)" d="M 254.569737 325.921635 
L 255.143708 325.921635 
L 255.143708 321.458993 
L 254.569737 321.458993 
z
" style="fill:#1f77b4;"/>
   </g>
   <g id="patch_150">
    <path clip-path="url(#pa43a3bb884)" d="M 255.287201 325.921635 
L 255.861172 325.921635 
L 255.861172 322.847371 
L 255.287201 322.847371 
z
" style="fill:#1f77b4;"/>
   </g>
   <g id="patch_151">
    <path clip-path="url(#pa43a3bb884)" d="M 256.004664 325.921635 
L 256.578635 325.921635 
L 256.578635 322.153182 
L 256.004664 322.153182 
z
" style="fill:#1f77b4;"/>
   </g>
   <g id="patch_152">
    <path clip-path="url(#pa43a3bb884)" d="M 256.722128 325.921635 
L 257.296099 325.921635 
L 257.296099 320.963144 
L 256.722128 320.963144 
z
" style="fill:#1f77b4;"/>
   </g>
   <g id="patch_153">
    <path clip-path="url(#pa43a3bb884)" d="M 257.439592 325.921635 
L 258.013563 325.921635 
L 258.013563 322.351522 
L 257.439592 322.351522 
z
" style="fill:#1f77b4;"/>
   </g>
   <g id="patch_154">
    <path clip-path="url(#pa43a3bb884)" d="M 258.157055 325.921635 
L 258.731026 325.921635 
L 258.731026 321.161484 
L 258.157055 321.161484 
z
" style="fill:#1f77b4;"/>
   </g>
   <g id="patch_155">
    <path clip-path="url(#pa43a3bb884)" d="M 258.874519 325.921635 
L 259.44849 325.921635 
L 259.44849 311.641182 
L 258.874519 311.641182 
z
" style="fill:#1f77b4;"/>
   </g>
   <g id="patch_156">
    <path clip-path="url(#pa43a3bb884)" d="M 259.591983 325.921635 
L 260.165953 325.921635 
L 260.165953 315.211295 
L 259.591983 315.211295 
z
" style="fill:#1f77b4;"/>
   </g>
   <g id="patch_157">
    <path clip-path="url(#pa43a3bb884)" d="M 260.309446 325.921635 
L 260.883417 325.921635 
L 260.883417 312.63288 
L 260.309446 312.63288 
z
" style="fill:#1f77b4;"/>
   </g>
   <g id="patch_158">
    <path clip-path="url(#pa43a3bb884)" d="M 261.02691 325.921635 
L 261.600881 325.921635 
L 261.600881 322.252352 
L 261.02691 322.252352 
z
" style="fill:#1f77b4;"/>
   </g>
   <g id="patch_159">
    <path clip-path="url(#pa43a3bb884)" d="M 261.744373 325.921635 
L 262.318344 325.921635 
L 262.318344 314.913786 
L 261.744373 314.913786 
z
" style="fill:#1f77b4;"/>
   </g>
   <g id="patch_160">
    <path clip-path="url(#pa43a3bb884)" d="M 262.461837 325.921635 
L 263.035808 325.921635 
L 263.035808 311.244502 
L 262.461837 311.244502 
z
" style="fill:#1f77b4;"/>
   </g>
   <g id="patch_161">
    <path clip-path="url(#pa43a3bb884)" d="M 263.179301 325.921635 
L 263.753271 325.921635 
L 263.753271 310.550314 
L 263.179301 310.550314 
z
" style="fill:#1f77b4;"/>
   </g>
   <g id="patch_162">
    <path clip-path="url(#pa43a3bb884)" d="M 263.896764 325.921635 
L 264.470735 325.921635 
L 264.470735 311.542012 
L 263.896764 311.542012 
z
" style="fill:#1f77b4;"/>
   </g>
   <g id="patch_163">
    <path clip-path="url(#pa43a3bb884)" d="M 264.614228 325.921635 
L 265.188199 325.921635 
L 265.188199 308.765257 
L 264.614228 308.765257 
z
" style="fill:#1f77b4;"/>
   </g>
   <g id="patch_164">
    <path clip-path="url(#pa43a3bb884)" d="M 265.331691 325.921635 
L 265.905662 325.921635 
L 265.905662 314.120427 
L 265.331691 314.120427 
z
" style="fill:#1f77b4;"/>
   </g>
   <g id="patch_165">
    <path clip-path="url(#pa43a3bb884)" d="M 266.049155 325.921635 
L 266.623126 325.921635 
L 266.623126 313.227899 
L 266.049155 313.227899 
z
" style="fill:#1f77b4;"/>
   </g>
   <g id="patch_166">
    <path clip-path="url(#pa43a3bb884)" d="M 266.766619 325.921635 
L 267.340589 325.921635 
L 267.340589 311.542012 
L 266.766619 311.542012 
z
" style="fill:#1f77b4;"/>
   </g>
   <g id="patch_167">
    <path clip-path="url(#pa43a3bb884)" d="M 267.484082 325.921635 
L 268.058053 325.921635 
L 268.058053 307.47605 
L 267.484082 307.47605 
z
" style="fill:#1f77b4;"/>
   </g>
   <g id="patch_168">
    <path clip-path="url(#pa43a3bb884)" d="M 268.201546 325.921635 
L 268.775517 325.921635 
L 268.775517 315.409635 
L 268.201546 315.409635 
z
" style="fill:#1f77b4;"/>
   </g>
   <g id="patch_169">
    <path clip-path="url(#pa43a3bb884)" d="M 268.919009 325.921635 
L 269.49298 325.921635 
L 269.49298 305.591823 
L 268.919009 305.591823 
z
" style="fill:#1f77b4;"/>
   </g>
   <g id="patch_170">
    <path clip-path="url(#pa43a3bb884)" d="M 269.636473 325.921635 
L 270.210444 325.921635 
L 270.210444 302.715898 
L 269.636473 302.715898 
z
" style="fill:#1f77b4;"/>
   </g>
   <g id="patch_171">
    <path clip-path="url(#pa43a3bb884)" d="M 270.353937 325.921635 
L 270.927907 325.921635 
L 270.927907 307.872729 
L 270.353937 307.872729 
z
" style="fill:#1f77b4;"/>
   </g>
   <g id="patch_172">
    <path clip-path="url(#pa43a3bb884)" d="M 271.0714 325.921635 
L 271.645371 325.921635 
L 271.645371 303.310917 
L 271.0714 303.310917 
z
" style="fill:#1f77b4;"/>
   </g>
   <g id="patch_173">
    <path clip-path="url(#pa43a3bb884)" d="M 271.788864 325.921635 
L 272.362835 325.921635 
L 272.362835 302.220049 
L 271.788864 302.220049 
z
" style="fill:#1f77b4;"/>
   </g>
   <g id="patch_174">
    <path clip-path="url(#pa43a3bb884)" d="M 272.506327 325.921635 
L 273.080298 325.921635 
L 273.080298 295.575672 
L 272.506327 295.575672 
z
" style="fill:#1f77b4;"/>
   </g>
   <g id="patch_175">
    <path clip-path="url(#pa43a3bb884)" d="M 273.223791 325.921635 
L 273.797762 325.921635 
L 273.797762 300.038313 
L 273.223791 300.038313 
z
" style="fill:#1f77b4;"/>
   </g>
   <g id="patch_176">
    <path clip-path="url(#pa43a3bb884)" d="M 273.941255 325.921635 
L 274.515226 325.921635 
L 274.515226 303.410087 
L 273.941255 303.410087 
z
" style="fill:#1f77b4;"/>
   </g>
   <g id="patch_177">
    <path clip-path="url(#pa43a3bb884)" d="M 274.658718 325.921635 
L 275.232689 325.921635 
L 275.232689 297.162389 
L 274.658718 297.162389 
z
" style="fill:#1f77b4;"/>
   </g>
   <g id="patch_178">
    <path clip-path="url(#pa43a3bb884)" d="M 275.376182 325.921635 
L 275.950153 325.921635 
L 275.950153 290.617181 
L 275.376182 290.617181 
z
" style="fill:#1f77b4;"/>
   </g>
   <g id="patch_179">
    <path clip-path="url(#pa43a3bb884)" d="M 276.093645 325.921635 
L 276.667616 325.921635 
L 276.667616 287.840426 
L 276.093645 287.840426 
z
" style="fill:#1f77b4;"/>
   </g>
   <g id="patch_180">
    <path clip-path="url(#pa43a3bb884)" d="M 276.811109 325.921635 
L 277.38508 325.921635 
L 277.38508 301.129181 
L 276.811109 301.129181 
z
" style="fill:#1f77b4;"/>
   </g>
   <g id="patch_181">
    <path clip-path="url(#pa43a3bb884)" d="M 277.528573 325.921635 
L 278.102544 325.921635 
L 278.102544 286.650388 
L 277.528573 286.650388 
z
" style="fill:#1f77b4;"/>
   </g>
   <g id="patch_182">
    <path clip-path="url(#pa43a3bb884)" d="M 278.246036 325.921635 
L 278.820007 325.921635 
L 278.820007 291.906389 
L 278.246036 291.906389 
z
" style="fill:#1f77b4;"/>
   </g>
   <g id="patch_183">
    <path clip-path="url(#pa43a3bb884)" d="M 278.9635 325.921635 
L 279.537471 325.921635 
L 279.537471 285.460351 
L 278.9635 285.460351 
z
" style="fill:#1f77b4;"/>
   </g>
   <g id="patch_184">
    <path clip-path="url(#pa43a3bb884)" d="M 279.680963 325.921635 
L 280.254934 325.921635 
L 280.254934 209.595443 
L 279.680963 209.595443 
z
" style="fill:#1f77b4;"/>
   </g>
   <g id="patch_185">
    <path clip-path="url(#pa43a3bb884)" d="M 280.398427 325.921635 
L 280.972398 325.921635 
L 280.972398 307.47605 
L 280.398427 307.47605 
z
" style="fill:#1f77b4;"/>
   </g>
   <g id="patch_186">
    <path clip-path="url(#pa43a3bb884)" d="M 281.115891 325.921635 
L 281.689862 325.921635 
L 281.689862 313.128729 
L 281.115891 313.128729 
z
" style="fill:#1f77b4;"/>
   </g>
   <g id="patch_187">
    <path clip-path="url(#pa43a3bb884)" d="M 281.833354 325.921635 
L 282.407325 325.921635 
L 282.407325 312.236201 
L 281.833354 312.236201 
z
" style="fill:#1f77b4;"/>
   </g>
   <g id="patch_188">
    <path clip-path="url(#pa43a3bb884)" d="M 282.550818 325.921635 
L 283.124789 325.921635 
L 283.124789 84.740646 
L 282.550818 84.740646 
z
" style="fill:#1f77b4;"/>
   </g>
   <g id="patch_189">
    <path clip-path="url(#pa43a3bb884)" d="M 283.268282 325.921635 
L 283.842252 325.921635 
L 283.842252 307.674389 
L 283.268282 307.674389 
z
" style="fill:#1f77b4;"/>
   </g>
   <g id="patch_190">
    <path clip-path="url(#pa43a3bb884)" d="M 283.985745 325.921635 
L 284.559716 325.921635 
L 284.559716 252.139293 
L 283.985745 252.139293 
z
" style="fill:#1f77b4;"/>
   </g>
   <g id="patch_191">
    <path clip-path="url(#pa43a3bb884)" d="M 284.703209 325.921635 
L 285.27718 325.921635 
L 285.27718 264.833029 
L 284.703209 264.833029 
z
" style="fill:#1f77b4;"/>
   </g>
   <g id="patch_192">
    <path clip-path="url(#pa43a3bb884)" d="M 285.420672 325.921635 
L 285.994643 325.921635 
L 285.994643 281.989407 
L 285.420672 281.989407 
z
" style="fill:#1f77b4;"/>
   </g>
   <g id="patch_193">
    <path clip-path="url(#pa43a3bb884)" d="M 286.138136 325.921635 
L 286.712107 325.921635 
L 286.712107 236.767972 
L 286.138136 236.767972 
z
" style="fill:#1f77b4;"/>
   </g>
   <g id="patch_194">
    <path clip-path="url(#pa43a3bb884)" d="M 286.8556 325.921635 
L 287.42957 325.921635 
L 287.42957 295.674842 
L 286.8556 295.674842 
z
" style="fill:#1f77b4;"/>
   </g>
   <g id="patch_195">
    <path clip-path="url(#pa43a3bb884)" d="M 287.573063 325.921635 
L 288.147034 325.921635 
L 288.147034 290.022162 
L 287.573063 290.022162 
z
" style="fill:#1f77b4;"/>
   </g>
   <g id="patch_196">
    <path clip-path="url(#pa43a3bb884)" d="M 288.290527 325.921635 
L 288.864498 325.921635 
L 288.864498 275.940049 
L 288.290527 275.940049 
z
" style="fill:#1f77b4;"/>
   </g>
   <g id="patch_197">
    <path clip-path="url(#pa43a3bb884)" d="M 289.00799 325.921635 
L 289.581961 325.921635 
L 289.581961 237.362991 
L 289.00799 237.362991 
z
" style="fill:#1f77b4;"/>
   </g>
   <g id="patch_198">
    <path clip-path="url(#pa43a3bb884)" d="M 289.725454 325.921635 
L 290.299425 325.921635 
L 290.299425 231.313632 
L 289.725454 231.313632 
z
" style="fill:#1f77b4;"/>
   </g>
   <g id="patch_199">
    <path clip-path="url(#pa43a3bb884)" d="M 290.442918 325.921635 
L 291.016888 325.921635 
L 291.016888 255.610237 
L 290.442918 255.610237 
z
" style="fill:#1f77b4;"/>
   </g>
   <g id="patch_200">
    <path clip-path="url(#pa43a3bb884)" d="M 291.160381 325.921635 
L 291.734352 325.921635 
L 291.734352 249.957557 
L 291.160381 249.957557 
z
" style="fill:#1f77b4;"/>
   </g>
   <g id="patch_201">
    <path clip-path="url(#pa43a3bb884)" d="M 291.877845 325.921635 
L 292.451816 325.921635 
L 292.451816 275.741709 
L 291.877845 275.741709 
z
" style="fill:#1f77b4;"/>
   </g>
   <g id="patch_202">
    <path clip-path="url(#pa43a3bb884)" d="M 292.595308 325.921635 
L 293.169279 325.921635 
L 293.169279 74.823665 
L 292.595308 74.823665 
z
" style="fill:#1f77b4;"/>
   </g>
   <g id="patch_203">
    <path clip-path="url(#pa43a3bb884)" d="M 293.312772 325.921635 
L 293.886743 325.921635 
L 293.886743 224.669254 
L 293.312772 224.669254 
z
" style="fill:#1f77b4;"/>
   </g>
   <g id="patch_204">
    <path clip-path="url(#pa43a3bb884)" d="M 294.030236 325.921635 
L 294.604206 325.921635 
L 294.604206 225.561783 
L 294.030236 225.561783 
z
" style="fill:#1f77b4;"/>
   </g>
   <g id="patch_205">
    <path clip-path="url(#pa43a3bb884)" d="M 294.747699 325.921635 
L 295.32167 325.921635 
L 295.32167 32.775664 
L 294.747699 32.775664 
z
" style="fill:#1f77b4;"/>
   </g>
   <g id="patch_206">
    <path clip-path="url(#pa43a3bb884)" d="M 295.465163 325.921635 
L 296.039134 325.921635 
L 296.039134 229.032726 
L 295.465163 229.032726 
z
" style="fill:#1f77b4;"/>
   </g>
   <g id="patch_207">
    <path clip-path="url(#pa43a3bb884)" d="M 296.182626 325.921635 
L 296.756597 325.921635 
L 296.756597 241.230613 
L 296.182626 241.230613 
z
" style="fill:#1f77b4;"/>
   </g>
   <g id="patch_208">
    <path clip-path="url(#pa43a3bb884)" d="M 296.90009 325.921635 
L 297.474061 325.921635 
L 297.474061 279.807671 
L 296.90009 279.807671 
z
" style="fill:#1f77b4;"/>
   </g>
   <g id="patch_209">
    <path clip-path="url(#pa43a3bb884)" d="M 297.617554 325.921635 
L 298.191525 325.921635 
L 298.191525 150.787743 
L 297.617554 150.787743 
z
" style="fill:#1f77b4;"/>
   </g>
   <g id="patch_210">
    <path clip-path="url(#pa43a3bb884)" d="M 298.335017 325.921635 
L 298.908988 325.921635 
L 298.908988 107.351364 
L 298.335017 107.351364 
z
" style="fill:#1f77b4;"/>
   </g>
   <g id="patch_211">
    <path clip-path="url(#pa43a3bb884)" d="M 299.052481 325.921635 
L 299.626452 325.921635 
L 299.626452 206.322839 
L 299.052481 206.322839 
z
" style="fill:#1f77b4;"/>
   </g>
   <g id="patch_212">
    <path clip-path="url(#pa43a3bb884)" d="M 299.769944 325.921635 
L 300.343915 325.921635 
L 300.343915 249.164199 
L 299.769944 249.164199 
z
" style="fill:#1f77b4;"/>
   </g>
   <g id="patch_213">
    <path clip-path="url(#pa43a3bb884)" d="M 300.487408 325.921635 
L 301.061379 325.921635 
L 301.061379 214.553933 
L 300.487408 214.553933 
z
" style="fill:#1f77b4;"/>
   </g>
   <g id="patch_214">
    <path clip-path="url(#pa43a3bb884)" d="M 301.204872 325.921635 
L 301.778843 325.921635 
L 301.778843 265.130539 
L 301.204872 265.130539 
z
" style="fill:#1f77b4;"/>
   </g>
   <g id="patch_215">
    <path clip-path="url(#pa43a3bb884)" d="M 301.922335 325.921635 
L 302.496306 325.921635 
L 302.496306 205.033631 
L 301.922335 205.033631 
z
" style="fill:#1f77b4;"/>
   </g>
   <g id="patch_216">
    <path clip-path="url(#pa43a3bb884)" d="M 302.639799 325.921635 
L 303.21377 325.921635 
L 303.21377 168.638309 
L 302.639799 168.638309 
z
" style="fill:#1f77b4;"/>
   </g>
   <g id="patch_217">
    <path clip-path="url(#pa43a3bb884)" d="M 303.357262 325.921635 
L 303.931233 325.921635 
L 303.931233 155.349554 
L 303.357262 155.349554 
z
" style="fill:#1f77b4;"/>
   </g>
   <g id="patch_218">
    <path clip-path="url(#pa43a3bb884)" d="M 304.074726 325.921635 
L 304.648697 325.921635 
L 304.648697 261.362086 
L 304.074726 261.362086 
z
" style="fill:#1f77b4;"/>
   </g>
   <g id="patch_219">
    <path clip-path="url(#pa43a3bb884)" d="M 304.79219 325.921635 
L 305.366161 325.921635 
L 305.366161 93.36842 
L 304.79219 93.36842 
z
" style="fill:#1f77b4;"/>
   </g>
   <g id="patch_220">
    <path clip-path="url(#pa43a3bb884)" d="M 305.509653 325.921635 
L 306.083624 325.921635 
L 306.083624 188.868951 
L 305.509653 188.868951 
z
" style="fill:#1f77b4;"/>
   </g>
   <g id="patch_221">
    <path clip-path="url(#pa43a3bb884)" d="M 306.227117 325.921635 
L 306.801088 325.921635 
L 306.801088 229.231066 
L 306.227117 229.231066 
z
" style="fill:#1f77b4;"/>
   </g>
   <g id="matplotlib.axis_3">
    <g id="xtick_3">
     <g id="line2d_9">
      <g>
       <use style="stroke:#000000;stroke-width:0.8;" x="230.46296" xlink:href="#m130f9ac373" y="325.921635"/>
      </g>
     </g>
     <g id="text_9">
      <!-- 0 -->
      <g transform="translate(227.28171 340.520072)scale(0.1 -0.1)">
       <use xlink:href="#DejaVuSans-48"/>
      </g>
     </g>
    </g>
    <g id="xtick_4">
     <g id="line2d_10">
      <g>
       <use style="stroke:#000000;stroke-width:0.8;" x="302.209321" xlink:href="#m130f9ac373" y="325.921635"/>
      </g>
     </g>
     <g id="text_10">
      <!-- 100 -->
      <g transform="translate(292.665571 340.520072)scale(0.1 -0.1)">
       <use xlink:href="#DejaVuSans-49"/>
       <use x="63.623047" xlink:href="#DejaVuSans-48"/>
       <use x="127.246094" xlink:href="#DejaVuSans-48"/>
      </g>
     </g>
    </g>
   </g>
   <g id="matplotlib.axis_4">
    <g id="ytick_6">
     <g id="line2d_11">
      <g>
       <use style="stroke:#000000;stroke-width:0.8;" x="226.344719" xlink:href="#mf6e51b5d94" y="325.921635"/>
      </g>
     </g>
     <g id="text_11">
      <!-- 0 -->
      <g transform="translate(212.982219 329.720854)scale(0.1 -0.1)">
       <use xlink:href="#DejaVuSans-48"/>
      </g>
     </g>
    </g>
    <g id="ytick_7">
     <g id="line2d_12">
      <g>
       <use style="stroke:#000000;stroke-width:0.8;" x="226.344719" xlink:href="#mf6e51b5d94" y="276.336728"/>
      </g>
     </g>
     <g id="text_12">
      <!-- 500 -->
      <defs>
       <path d="M 10.796875 72.90625 
L 49.515625 72.90625 
L 49.515625 64.59375 
L 19.828125 64.59375 
L 19.828125 46.734375 
Q 21.96875 47.46875 24.109375 47.828125 
Q 26.265625 48.1875 28.421875 48.1875 
Q 40.625 48.1875 47.75 41.5 
Q 54.890625 34.8125 54.890625 23.390625 
Q 54.890625 11.625 47.5625 5.09375 
Q 40.234375 -1.421875 26.90625 -1.421875 
Q 22.3125 -1.421875 17.546875 -0.640625 
Q 12.796875 0.140625 7.71875 1.703125 
L 7.71875 11.625 
Q 12.109375 9.234375 16.796875 8.0625 
Q 21.484375 6.890625 26.703125 6.890625 
Q 35.15625 6.890625 40.078125 11.328125 
Q 45.015625 15.765625 45.015625 23.390625 
Q 45.015625 31 40.078125 35.4375 
Q 35.15625 39.890625 26.703125 39.890625 
Q 22.75 39.890625 18.8125 39.015625 
Q 14.890625 38.140625 10.796875 36.28125 
z
" id="DejaVuSans-53"/>
      </defs>
      <g transform="translate(200.257219 280.135947)scale(0.1 -0.1)">
       <use xlink:href="#DejaVuSans-53"/>
       <use x="63.623047" xlink:href="#DejaVuSans-48"/>
       <use x="127.246094" xlink:href="#DejaVuSans-48"/>
      </g>
     </g>
    </g>
    <g id="ytick_8">
     <g id="line2d_13">
      <g>
       <use style="stroke:#000000;stroke-width:0.8;" x="226.344719" xlink:href="#mf6e51b5d94" y="226.751821"/>
      </g>
     </g>
     <g id="text_13">
      <!-- 1000 -->
      <g transform="translate(193.894719 230.551039)scale(0.1 -0.1)">
       <use xlink:href="#DejaVuSans-49"/>
       <use x="63.623047" xlink:href="#DejaVuSans-48"/>
       <use x="127.246094" xlink:href="#DejaVuSans-48"/>
       <use x="190.869141" xlink:href="#DejaVuSans-48"/>
      </g>
     </g>
    </g>
    <g id="ytick_9">
     <g id="line2d_14">
      <g>
       <use style="stroke:#000000;stroke-width:0.8;" x="226.344719" xlink:href="#mf6e51b5d94" y="177.166913"/>
      </g>
     </g>
     <g id="text_14">
      <!-- 1500 -->
      <g transform="translate(193.894719 180.966132)scale(0.1 -0.1)">
       <use xlink:href="#DejaVuSans-49"/>
       <use x="63.623047" xlink:href="#DejaVuSans-53"/>
       <use x="127.246094" xlink:href="#DejaVuSans-48"/>
       <use x="190.869141" xlink:href="#DejaVuSans-48"/>
      </g>
     </g>
    </g>
    <g id="ytick_10">
     <g id="line2d_15">
      <g>
       <use style="stroke:#000000;stroke-width:0.8;" x="226.344719" xlink:href="#mf6e51b5d94" y="127.582006"/>
      </g>
     </g>
     <g id="text_15">
      <!-- 2000 -->
      <g transform="translate(193.894719 131.381225)scale(0.1 -0.1)">
       <use xlink:href="#DejaVuSans-50"/>
       <use x="63.623047" xlink:href="#DejaVuSans-48"/>
       <use x="127.246094" xlink:href="#DejaVuSans-48"/>
       <use x="190.869141" xlink:href="#DejaVuSans-48"/>
      </g>
     </g>
    </g>
    <g id="ytick_11">
     <g id="line2d_16">
      <g>
       <use style="stroke:#000000;stroke-width:0.8;" x="226.344719" xlink:href="#mf6e51b5d94" y="77.997099"/>
      </g>
     </g>
     <g id="text_16">
      <!-- 2500 -->
      <g transform="translate(193.894719 81.796318)scale(0.1 -0.1)">
       <use xlink:href="#DejaVuSans-50"/>
       <use x="63.623047" xlink:href="#DejaVuSans-53"/>
       <use x="127.246094" xlink:href="#DejaVuSans-48"/>
       <use x="190.869141" xlink:href="#DejaVuSans-48"/>
      </g>
     </g>
    </g>
    <g id="ytick_12">
     <g id="line2d_17">
      <g>
       <use style="stroke:#000000;stroke-width:0.8;" x="226.344719" xlink:href="#mf6e51b5d94" y="28.412192"/>
      </g>
     </g>
     <g id="text_17">
      <!-- 3000 -->
      <g transform="translate(193.894719 32.21141)scale(0.1 -0.1)">
       <use xlink:href="#DejaVuSans-51"/>
       <use x="63.623047" xlink:href="#DejaVuSans-48"/>
       <use x="127.246094" xlink:href="#DejaVuSans-48"/>
       <use x="190.869141" xlink:href="#DejaVuSans-48"/>
      </g>
     </g>
    </g>
   </g>
   <g id="line2d_18">
    <path clip-path="url(#pa43a3bb884)" d="M 230.46296 325.911144 
L 231.180424 325.905857 
L 231.897887 325.896812 
L 232.615351 325.883512 
L 233.332815 325.862199 
L 234.050278 325.829817 
L 234.767742 325.782979 
L 235.485205 325.721602 
L 236.202669 325.646016 
L 236.920133 325.557503 
L 237.637596 325.457548 
L 238.35506 325.349127 
L 239.072523 325.235583 
L 239.789987 325.120222 
L 240.507451 325.002094 
L 241.224914 324.880662 
L 241.942378 324.753282 
L 242.659841 324.616939 
L 243.377305 324.467544 
L 244.094769 324.303032 
L 244.812232 324.123113 
L 245.529696 323.927913 
L 246.247159 323.715943 
L 246.964623 323.491045 
L 247.682087 323.261521 
L 248.39955 323.035426 
L 249.117014 322.816393 
L 249.834477 322.605993 
L 250.551941 322.407075 
L 251.269405 322.223439 
L 251.986868 322.047734 
L 252.704332 321.864388 
L 253.421796 321.657126 
L 254.139259 321.408892 
L 254.856723 321.099116 
L 255.574186 320.712308 
L 256.29165 320.23455 
L 257.009114 319.669228 
L 257.726577 319.021423 
L 258.444041 318.300222 
L 259.161504 317.525161 
L 259.878968 316.730522 
L 260.596432 315.939766 
L 261.313895 315.17532 
L 262.031359 314.441603 
L 262.748822 313.749026 
L 263.466286 313.101593 
L 264.18375 312.489639 
L 264.901213 311.878058 
L 265.618677 311.241529 
L 266.33614 310.554527 
L 267.053604 309.798259 
L 267.771068 308.948562 
L 268.488531 307.990774 
L 269.205995 306.921302 
L 269.923458 305.762861 
L 270.640922 304.526026 
L 271.358386 303.186965 
L 272.075849 301.742002 
L 272.793313 300.208691 
L 273.510776 298.60033 
L 274.22824 296.84398 
L 274.945704 294.862194 
L 275.663167 292.585832 
L 276.380631 290.07375 
L 277.098094 287.334169 
L 277.815558 284.296706 
L 278.533022 280.872725 
L 279.250485 277.305172 
L 279.967949 273.800318 
L 280.685413 270.578394 
L 281.402876 267.66955 
L 282.12034 265.153049 
L 282.837803 263.247097 
L 283.555267 262.196624 
L 284.272731 261.651871 
L 284.990194 261.304467 
L 285.707658 260.825429 
L 286.425121 259.950455 
L 287.142585 258.398267 
L 287.860049 255.761531 
L 288.577512 251.634192 
L 289.294976 246.251307 
L 290.012439 239.816917 
L 290.729903 232.537208 
L 291.447367 224.891674 
L 292.16483 217.36464 
L 292.882294 210.509573 
L 293.599757 204.825709 
L 294.317221 200.37042 
L 295.034685 197.316807 
L 295.752148 195.876346 
L 296.469612 195.691141 
L 297.187075 196.388469 
L 297.904539 197.534394 
L 298.622003 198.755286 
L 299.339466 199.848178 
L 300.05693 200.45567 
L 300.774393 200.093273 
L 301.491857 198.832647 
L 302.209321 196.801298 
L 302.926784 194.298385 
L 303.644248 191.47124 
L 304.361712 188.482474 
L 305.079175 186.446664 
L 305.796639 184.593332 
L 306.514102 183.007896 
" style="fill:none;stroke:#ff0000;stroke-linecap:square;stroke-width:1.5;"/>
   </g>
   <g id="patch_222">
    <path d="M 226.344719 325.921635 
L 226.344719 18.118365 
" style="fill:none;stroke:#000000;stroke-linecap:square;stroke-linejoin:miter;stroke-width:0.8;"/>
   </g>
   <g id="patch_223">
    <path d="M 310.632343 325.921635 
L 310.632343 18.118365 
" style="fill:none;stroke:#000000;stroke-linecap:square;stroke-linejoin:miter;stroke-width:0.8;"/>
   </g>
   <g id="patch_224">
    <path d="M 226.344719 325.921635 
L 310.632343 325.921635 
" style="fill:none;stroke:#000000;stroke-linecap:square;stroke-linejoin:miter;stroke-width:0.8;"/>
   </g>
   <g id="patch_225">
    <path d="M 226.344719 18.118365 
L 310.632343 18.118365 
" style="fill:none;stroke:#000000;stroke-linecap:square;stroke-linejoin:miter;stroke-width:0.8;"/>
   </g>
   <g id="text_18">
    <!-- Casos novos - BA - (data) -->
    <defs>
     <path d="M 54.890625 33.015625 
L 54.890625 0 
L 45.90625 0 
L 45.90625 32.71875 
Q 45.90625 40.484375 42.875 44.328125 
Q 39.84375 48.1875 33.796875 48.1875 
Q 26.515625 48.1875 22.3125 43.546875 
Q 18.109375 38.921875 18.109375 30.90625 
L 18.109375 0 
L 9.078125 0 
L 9.078125 54.6875 
L 18.109375 54.6875 
L 18.109375 46.1875 
Q 21.34375 51.125 25.703125 53.5625 
Q 30.078125 56 35.796875 56 
Q 45.21875 56 50.046875 50.171875 
Q 54.890625 44.34375 54.890625 33.015625 
z
" id="DejaVuSans-110"/>
     <path d="M 2.984375 54.6875 
L 12.5 54.6875 
L 29.59375 8.796875 
L 46.6875 54.6875 
L 56.203125 54.6875 
L 35.6875 0 
L 23.484375 0 
z
" id="DejaVuSans-118"/>
    </defs>
    <g transform="translate(192.596031 12.118365)scale(0.12 -0.12)">
     <use xlink:href="#DejaVuSans-67"/>
     <use x="69.824219" xlink:href="#DejaVuSans-97"/>
     <use x="131.103516" xlink:href="#DejaVuSans-115"/>
     <use x="183.203125" xlink:href="#DejaVuSans-111"/>
     <use x="244.384766" xlink:href="#DejaVuSans-115"/>
     <use x="296.484375" xlink:href="#DejaVuSans-32"/>
     <use x="328.271484" xlink:href="#DejaVuSans-110"/>
     <use x="391.650391" xlink:href="#DejaVuSans-111"/>
     <use x="452.832031" xlink:href="#DejaVuSans-118"/>
     <use x="512.011719" xlink:href="#DejaVuSans-111"/>
     <use x="573.193359" xlink:href="#DejaVuSans-115"/>
     <use x="625.292969" xlink:href="#DejaVuSans-32"/>
     <use x="657.080078" xlink:href="#DejaVuSans-45"/>
     <use x="693.164062" xlink:href="#DejaVuSans-32"/>
     <use x="724.951172" xlink:href="#DejaVuSans-66"/>
     <use x="793.554688" xlink:href="#DejaVuSans-65"/>
     <use x="861.962891" xlink:href="#DejaVuSans-32"/>
     <use x="893.75" xlink:href="#DejaVuSans-45"/>
     <use x="929.833984" xlink:href="#DejaVuSans-32"/>
     <use x="961.621094" xlink:href="#DejaVuSans-40"/>
     <use x="1000.634766" xlink:href="#DejaVuSans-100"/>
     <use x="1064.111328" xlink:href="#DejaVuSans-97"/>
     <use x="1125.390625" xlink:href="#DejaVuSans-116"/>
     <use x="1164.599609" xlink:href="#DejaVuSans-97"/>
     <use x="1225.878906" xlink:href="#DejaVuSans-41"/>
    </g>
   </g>
  </g>
  <g id="axes_3">
   <g id="patch_226">
    <path d="M 372.822011 325.921635 
L 457.109635 325.921635 
L 457.109635 18.118365 
L 372.822011 18.118365 
z
" style="fill:#ffffff;"/>
   </g>
   <g id="matplotlib.axis_5">
    <g id="xtick_5">
     <g id="line2d_19">
      <g>
       <use style="stroke:#000000;stroke-width:0.8;" x="376.653266" xlink:href="#m130f9ac373" y="325.921635"/>
      </g>
     </g>
     <g id="text_19">
      <!-- 0 -->
      <g transform="translate(373.472016 340.520072)scale(0.1 -0.1)">
       <use xlink:href="#DejaVuSans-48"/>
      </g>
     </g>
    </g>
    <g id="xtick_6">
     <g id="line2d_20">
      <g>
       <use style="stroke:#000000;stroke-width:0.8;" x="448.941109" xlink:href="#m130f9ac373" y="325.921635"/>
      </g>
     </g>
     <g id="text_20">
      <!-- 100 -->
      <g transform="translate(439.397359 340.520072)scale(0.1 -0.1)">
       <use xlink:href="#DejaVuSans-49"/>
       <use x="63.623047" xlink:href="#DejaVuSans-48"/>
       <use x="127.246094" xlink:href="#DejaVuSans-48"/>
      </g>
     </g>
    </g>
   </g>
   <g id="matplotlib.axis_6">
    <g id="ytick_13">
     <g id="line2d_21">
      <g>
       <use style="stroke:#000000;stroke-width:0.8;" x="372.822011" xlink:href="#mf6e51b5d94" y="308.943589"/>
      </g>
     </g>
     <g id="text_21">
      <!-- 1.0 -->
      <defs>
       <path d="M 10.6875 12.40625 
L 21 12.40625 
L 21 0 
L 10.6875 0 
z
" id="DejaVuSans-46"/>
      </defs>
      <g transform="translate(349.918886 312.742808)scale(0.1 -0.1)">
       <use xlink:href="#DejaVuSans-49"/>
       <use x="63.623047" xlink:href="#DejaVuSans-46"/>
       <use x="95.410156" xlink:href="#DejaVuSans-48"/>
      </g>
     </g>
    </g>
    <g id="ytick_14">
     <g id="line2d_22">
      <g>
       <use style="stroke:#000000;stroke-width:0.8;" x="372.822011" xlink:href="#mf6e51b5d94" y="255.763886"/>
      </g>
     </g>
     <g id="text_22">
      <!-- 1.5 -->
      <g transform="translate(349.918886 259.563104)scale(0.1 -0.1)">
       <use xlink:href="#DejaVuSans-49"/>
       <use x="63.623047" xlink:href="#DejaVuSans-46"/>
       <use x="95.410156" xlink:href="#DejaVuSans-53"/>
      </g>
     </g>
    </g>
    <g id="ytick_15">
     <g id="line2d_23">
      <g>
       <use style="stroke:#000000;stroke-width:0.8;" x="372.822011" xlink:href="#mf6e51b5d94" y="202.584182"/>
      </g>
     </g>
     <g id="text_23">
      <!-- 2.0 -->
      <g transform="translate(349.918886 206.383401)scale(0.1 -0.1)">
       <use xlink:href="#DejaVuSans-50"/>
       <use x="63.623047" xlink:href="#DejaVuSans-46"/>
       <use x="95.410156" xlink:href="#DejaVuSans-48"/>
      </g>
     </g>
    </g>
    <g id="ytick_16">
     <g id="line2d_24">
      <g>
       <use style="stroke:#000000;stroke-width:0.8;" x="372.822011" xlink:href="#mf6e51b5d94" y="149.404478"/>
      </g>
     </g>
     <g id="text_24">
      <!-- 2.5 -->
      <g transform="translate(349.918886 153.203697)scale(0.1 -0.1)">
       <use xlink:href="#DejaVuSans-50"/>
       <use x="63.623047" xlink:href="#DejaVuSans-46"/>
       <use x="95.410156" xlink:href="#DejaVuSans-53"/>
      </g>
     </g>
    </g>
    <g id="ytick_17">
     <g id="line2d_25">
      <g>
       <use style="stroke:#000000;stroke-width:0.8;" x="372.822011" xlink:href="#mf6e51b5d94" y="96.224774"/>
      </g>
     </g>
     <g id="text_25">
      <!-- 3.0 -->
      <g transform="translate(349.918886 100.023993)scale(0.1 -0.1)">
       <use xlink:href="#DejaVuSans-51"/>
       <use x="63.623047" xlink:href="#DejaVuSans-46"/>
       <use x="95.410156" xlink:href="#DejaVuSans-48"/>
      </g>
     </g>
    </g>
    <g id="ytick_18">
     <g id="line2d_26">
      <g>
       <use style="stroke:#000000;stroke-width:0.8;" x="372.822011" xlink:href="#mf6e51b5d94" y="43.045071"/>
      </g>
     </g>
     <g id="text_26">
      <!-- 3.5 -->
      <g transform="translate(349.918886 46.844289)scale(0.1 -0.1)">
       <use xlink:href="#DejaVuSans-51"/>
       <use x="63.623047" xlink:href="#DejaVuSans-46"/>
       <use x="95.410156" xlink:href="#DejaVuSans-53"/>
      </g>
     </g>
    </g>
   </g>
   <g id="line2d_27">
    <path clip-path="url(#p6ad14f18ba)" d="M 376.653266 81.628049 
L 377.376145 54.380082 
L 378.099023 32.109423 
L 378.821902 43.907468 
L 379.54478 36.522277 
L 380.267659 41.007763 
L 380.990537 52.306787 
L 381.713415 75.830883 
L 382.436294 100.591662 
L 383.159172 124.261008 
L 383.882051 145.30382 
L 384.604929 165.053019 
L 385.327807 183.190706 
L 386.050686 199.564698 
L 386.773564 211.324433 
L 387.496443 220.294991 
L 388.219321 226.08641 
L 388.9422 229.519293 
L 389.665078 230.852364 
L 390.387956 231.68515 
L 391.110835 232.896397 
L 391.833713 234.508124 
L 392.556592 235.874034 
L 393.27947 238.582278 
L 394.002349 243.320649 
L 394.725227 249.352959 
L 395.448105 255.273934 
L 396.170984 260.647544 
L 396.893862 265.853553 
L 397.616741 271.123943 
L 398.339619 274.384971 
L 399.062498 274.503713 
L 399.785376 271.901524 
L 400.508254 267.021298 
L 401.231133 259.993284 
L 401.954011 252.362316 
L 402.67689 244.928063 
L 403.399768 240.035092 
L 404.122647 237.378349 
L 404.845525 236.787295 
L 405.568403 238.527638 
L 406.291282 242.953562 
L 407.01416 248.435624 
L 407.737039 254.562239 
L 408.459917 260.034941 
L 409.182796 265.351034 
L 409.905674 270.195339 
L 410.628552 273.934245 
L 411.351431 275.43969 
L 412.074309 275.556189 
L 412.797188 274.501175 
L 413.520066 272.793496 
L 414.242945 270.352728 
L 414.965823 267.757325 
L 415.688701 265.526088 
L 416.41158 264.582806 
L 417.134458 264.275029 
L 417.857337 263.391348 
L 418.580215 262.680606 
L 419.303093 262.720825 
L 420.025972 263.243951 
L 420.74885 262.005825 
L 421.471729 259.329502 
L 422.194607 255.820087 
L 422.917486 254.360342 
L 423.640364 253.55846 
L 424.363242 251.937695 
L 425.086121 249.492048 
L 425.808999 251.381399 
L 426.531878 255.969472 
L 427.254756 262.786299 
L 427.977635 269.039168 
L 428.700513 275.489581 
L 429.423391 283.864174 
L 430.14627 294.516143 
L 430.869148 300.616611 
L 431.592027 302.932621 
L 432.314905 301.319024 
L 433.037784 296.663081 
L 433.760662 289.032156 
L 434.48354 277.597889 
L 435.206419 263.493113 
L 435.929297 253.97443 
L 436.652176 248.17614 
L 437.375054 245.405922 
L 438.097933 246.906731 
L 438.820811 251.576361 
L 439.543689 259.080492 
L 440.266568 268.591687 
L 440.989446 277.348829 
L 441.712325 286.373567 
L 442.435203 296.170084 
L 443.158082 303.62678 
L 443.88096 308.859457 
L 444.603838 311.527019 
L 445.326717 311.930577 
L 446.049595 311.05957 
L 446.772474 307.882397 
L 447.495352 301.588129 
L 448.218231 295.810691 
L 448.941109 290.984814 
L 449.663987 288.158148 
L 450.386866 286.333597 
L 451.109744 285.534311 
L 451.832623 291.062468 
L 452.555501 292.046251 
L 453.278379 293.467068 
" style="fill:none;stroke:#ff0000;stroke-linecap:square;stroke-width:1.5;"/>
   </g>
   <g id="patch_227">
    <path d="M 372.822011 325.921635 
L 372.822011 18.118365 
" style="fill:none;stroke:#000000;stroke-linecap:square;stroke-linejoin:miter;stroke-width:0.8;"/>
   </g>
   <g id="patch_228">
    <path d="M 457.109635 325.921635 
L 457.109635 18.118365 
" style="fill:none;stroke:#000000;stroke-linecap:square;stroke-linejoin:miter;stroke-width:0.8;"/>
   </g>
   <g id="patch_229">
    <path d="M 372.822011 325.921635 
L 457.109635 325.921635 
" style="fill:none;stroke:#000000;stroke-linecap:square;stroke-linejoin:miter;stroke-width:0.8;"/>
   </g>
   <g id="patch_230">
    <path d="M 372.822011 18.118365 
L 457.109635 18.118365 
" style="fill:none;stroke:#000000;stroke-linecap:square;stroke-linejoin:miter;stroke-width:0.8;"/>
   </g>
   <g id="text_27">
    <!-- r0 - BA - (data) -->
    <defs>
     <path d="M 41.109375 46.296875 
Q 39.59375 47.171875 37.8125 47.578125 
Q 36.03125 48 33.890625 48 
Q 26.265625 48 22.1875 43.046875 
Q 18.109375 38.09375 18.109375 28.8125 
L 18.109375 0 
L 9.078125 0 
L 9.078125 54.6875 
L 18.109375 54.6875 
L 18.109375 46.1875 
Q 20.953125 51.171875 25.484375 53.578125 
Q 30.03125 56 36.53125 56 
Q 37.453125 56 38.578125 55.875 
Q 39.703125 55.765625 41.0625 55.515625 
z
" id="DejaVuSans-114"/>
    </defs>
    <g transform="translate(370.307073 12.118365)scale(0.12 -0.12)">
     <use xlink:href="#DejaVuSans-114"/>
     <use x="41.113281" xlink:href="#DejaVuSans-48"/>
     <use x="104.736328" xlink:href="#DejaVuSans-32"/>
     <use x="136.523438" xlink:href="#DejaVuSans-45"/>
     <use x="172.607422" xlink:href="#DejaVuSans-32"/>
     <use x="204.394531" xlink:href="#DejaVuSans-66"/>
     <use x="272.998047" xlink:href="#DejaVuSans-65"/>
     <use x="341.40625" xlink:href="#DejaVuSans-32"/>
     <use x="373.193359" xlink:href="#DejaVuSans-45"/>
     <use x="409.277344" xlink:href="#DejaVuSans-32"/>
     <use x="441.064453" xlink:href="#DejaVuSans-40"/>
     <use x="480.078125" xlink:href="#DejaVuSans-100"/>
     <use x="543.554688" xlink:href="#DejaVuSans-97"/>
     <use x="604.833984" xlink:href="#DejaVuSans-116"/>
     <use x="644.042969" xlink:href="#DejaVuSans-97"/>
     <use x="705.322266" xlink:href="#DejaVuSans-41"/>
    </g>
   </g>
  </g>
 </g>
 <defs>
  <clipPath id="p9af72aa45e">
   <rect height="307.80327" width="84.287624" x="51.767427" y="18.118365"/>
  </clipPath>
  <clipPath id="pa43a3bb884">
   <rect height="307.80327" width="84.287624" x="226.344719" y="18.118365"/>
  </clipPath>
  <clipPath id="p6ad14f18ba">
   <rect height="307.80327" width="84.287624" x="372.822011" y="18.118365"/>
  </clipPath>
 </defs>
</svg>
