<?xml version="1.0" encoding="utf-8" standalone="no"?>
<!DOCTYPE svg PUBLIC "-//W3C//DTD SVG 1.1//EN"
  "http://www.w3.org/Graphics/SVG/1.1/DTD/svg11.dtd">
<!-- Created with matplotlib (https://matplotlib.org/) -->
<svg height="345.6pt" version="1.1" viewBox="0 0 460.8 345.6" width="460.8pt" xmlns="http://www.w3.org/2000/svg" xmlns:xlink="http://www.w3.org/1999/xlink">
 <defs>
  <style type="text/css">
*{stroke-linecap:butt;stroke-linejoin:round;}
  </style>
 </defs>
 <g id="figure_1">
  <g id="patch_1">
   <path d="M 0 345.6 
L 460.8 345.6 
L 460.8 0 
L 0 0 
z
" style="fill:#ffffff;"/>
  </g>
  <g id="axes_1">
   <g id="patch_2">
    <path d="M 55.490865 137.71551 
L 228.27701 137.71551 
L 228.27701 18.118365 
L 55.490865 18.118365 
z
" style="fill:#ffffff;"/>
   </g>
   <g id="patch_3">
    <path clip-path="url(#p96b6470ce4)" d="M 63.344781 137.71551 
L 64.521397 137.71551 
L 64.521397 137.71063 
L 63.344781 137.71063 
z
" style="fill:#1f77b4;"/>
   </g>
   <g id="patch_4">
    <path clip-path="url(#p96b6470ce4)" d="M 64.815551 137.71551 
L 65.992168 137.71551 
L 65.992168 137.71063 
L 64.815551 137.71063 
z
" style="fill:#1f77b4;"/>
   </g>
   <g id="patch_5">
    <path clip-path="url(#p96b6470ce4)" d="M 66.286322 137.71551 
L 67.462939 137.71551 
L 67.462939 137.71063 
L 66.286322 137.71063 
z
" style="fill:#1f77b4;"/>
   </g>
   <g id="patch_6">
    <path clip-path="url(#p96b6470ce4)" d="M 67.757093 137.71551 
L 68.933709 137.71551 
L 68.933709 137.71063 
L 67.757093 137.71063 
z
" style="fill:#1f77b4;"/>
   </g>
   <g id="patch_7">
    <path clip-path="url(#p96b6470ce4)" d="M 69.227864 137.71551 
L 70.40448 137.71551 
L 70.40448 137.71063 
L 69.227864 137.71063 
z
" style="fill:#1f77b4;"/>
   </g>
   <g id="patch_8">
    <path clip-path="url(#p96b6470ce4)" d="M 70.698634 137.71551 
L 71.875251 137.71551 
L 71.875251 137.71063 
L 70.698634 137.71063 
z
" style="fill:#1f77b4;"/>
   </g>
   <g id="patch_9">
    <path clip-path="url(#p96b6470ce4)" d="M 72.169405 137.71551 
L 73.346022 137.71551 
L 73.346022 137.71063 
L 72.169405 137.71063 
z
" style="fill:#1f77b4;"/>
   </g>
   <g id="patch_10">
    <path clip-path="url(#p96b6470ce4)" d="M 73.640176 137.71551 
L 74.816792 137.71551 
L 74.816792 137.71063 
L 73.640176 137.71063 
z
" style="fill:#1f77b4;"/>
   </g>
   <g id="patch_11">
    <path clip-path="url(#p96b6470ce4)" d="M 75.110946 137.71551 
L 76.287563 137.71551 
L 76.287563 137.71063 
L 75.110946 137.71063 
z
" style="fill:#1f77b4;"/>
   </g>
   <g id="patch_12">
    <path clip-path="url(#p96b6470ce4)" d="M 76.581717 137.71551 
L 77.758334 137.71551 
L 77.758334 137.71063 
L 76.581717 137.71063 
z
" style="fill:#1f77b4;"/>
   </g>
   <g id="patch_13">
    <path clip-path="url(#p96b6470ce4)" d="M 78.052488 137.71551 
L 79.229105 137.71551 
L 79.229105 137.70819 
L 78.052488 137.70819 
z
" style="fill:#1f77b4;"/>
   </g>
   <g id="patch_14">
    <path clip-path="url(#p96b6470ce4)" d="M 79.523259 137.71551 
L 80.699875 137.71551 
L 80.699875 137.70819 
L 79.523259 137.70819 
z
" style="fill:#1f77b4;"/>
   </g>
   <g id="patch_15">
    <path clip-path="url(#p96b6470ce4)" d="M 80.994029 137.71551 
L 82.170646 137.71551 
L 82.170646 137.642314 
L 80.994029 137.642314 
z
" style="fill:#1f77b4;"/>
   </g>
   <g id="patch_16">
    <path clip-path="url(#p96b6470ce4)" d="M 82.4648 137.71551 
L 83.641417 137.71551 
L 83.641417 137.634994 
L 82.4648 137.634994 
z
" style="fill:#1f77b4;"/>
   </g>
   <g id="patch_17">
    <path clip-path="url(#p96b6470ce4)" d="M 83.935571 137.71551 
L 85.112187 137.71551 
L 85.112187 137.615475 
L 83.935571 137.615475 
z
" style="fill:#1f77b4;"/>
   </g>
   <g id="patch_18">
    <path clip-path="url(#p96b6470ce4)" d="M 85.406342 137.71551 
L 86.582958 137.71551 
L 86.582958 137.595957 
L 85.406342 137.595957 
z
" style="fill:#1f77b4;"/>
   </g>
   <g id="patch_19">
    <path clip-path="url(#p96b6470ce4)" d="M 86.877112 137.71551 
L 88.053729 137.71551 
L 88.053729 137.561798 
L 86.877112 137.561798 
z
" style="fill:#1f77b4;"/>
   </g>
   <g id="patch_20">
    <path clip-path="url(#p96b6470ce4)" d="M 88.347883 137.71551 
L 89.5245 137.71551 
L 89.5245 137.53008 
L 88.347883 137.53008 
z
" style="fill:#1f77b4;"/>
   </g>
   <g id="patch_21">
    <path clip-path="url(#p96b6470ce4)" d="M 89.818654 137.71551 
L 90.99527 137.71551 
L 90.99527 137.510561 
L 89.818654 137.510561 
z
" style="fill:#1f77b4;"/>
   </g>
   <g id="patch_22">
    <path clip-path="url(#p96b6470ce4)" d="M 91.289424 137.71551 
L 92.466041 137.71551 
L 92.466041 137.461764 
L 91.289424 137.461764 
z
" style="fill:#1f77b4;"/>
   </g>
   <g id="patch_23">
    <path clip-path="url(#p96b6470ce4)" d="M 92.760195 137.71551 
L 93.936812 137.71551 
L 93.936812 137.434925 
L 92.760195 137.434925 
z
" style="fill:#1f77b4;"/>
   </g>
   <g id="patch_24">
    <path clip-path="url(#p96b6470ce4)" d="M 94.230966 137.71551 
L 95.407583 137.71551 
L 95.407583 137.405647 
L 94.230966 137.405647 
z
" style="fill:#1f77b4;"/>
   </g>
   <g id="patch_25">
    <path clip-path="url(#p96b6470ce4)" d="M 95.701737 137.71551 
L 96.878353 137.71551 
L 96.878353 137.339771 
L 95.701737 137.339771 
z
" style="fill:#1f77b4;"/>
   </g>
   <g id="patch_26">
    <path clip-path="url(#p96b6470ce4)" d="M 97.172507 137.71551 
L 98.349124 137.71551 
L 98.349124 137.286094 
L 97.172507 137.286094 
z
" style="fill:#1f77b4;"/>
   </g>
   <g id="patch_27">
    <path clip-path="url(#p96b6470ce4)" d="M 98.643278 137.71551 
L 99.819895 137.71551 
L 99.819895 137.195819 
L 98.643278 137.195819 
z
" style="fill:#1f77b4;"/>
   </g>
   <g id="patch_28">
    <path clip-path="url(#p96b6470ce4)" d="M 100.114049 137.71551 
L 101.290665 137.71551 
L 101.290665 137.115303 
L 100.114049 137.115303 
z
" style="fill:#1f77b4;"/>
   </g>
   <g id="patch_29">
    <path clip-path="url(#p96b6470ce4)" d="M 101.58482 137.71551 
L 102.761436 137.71551 
L 102.761436 137.064066 
L 101.58482 137.064066 
z
" style="fill:#1f77b4;"/>
   </g>
   <g id="patch_30">
    <path clip-path="url(#p96b6470ce4)" d="M 103.05559 137.71551 
L 104.232207 137.71551 
L 104.232207 137.027468 
L 103.05559 137.027468 
z
" style="fill:#1f77b4;"/>
   </g>
   <g id="patch_31">
    <path clip-path="url(#p96b6470ce4)" d="M 104.526361 137.71551 
L 105.702978 137.71551 
L 105.702978 136.905474 
L 104.526361 136.905474 
z
" style="fill:#1f77b4;"/>
   </g>
   <g id="patch_32">
    <path clip-path="url(#p96b6470ce4)" d="M 105.997132 137.71551 
L 107.173748 137.71551 
L 107.173748 136.737124 
L 105.997132 136.737124 
z
" style="fill:#1f77b4;"/>
   </g>
   <g id="patch_33">
    <path clip-path="url(#p96b6470ce4)" d="M 107.467902 137.71551 
L 108.644519 137.71551 
L 108.644519 136.663928 
L 107.467902 136.663928 
z
" style="fill:#1f77b4;"/>
   </g>
   <g id="patch_34">
    <path clip-path="url(#p96b6470ce4)" d="M 108.938673 137.71551 
L 110.11529 137.71551 
L 110.11529 136.602931 
L 108.938673 136.602931 
z
" style="fill:#1f77b4;"/>
   </g>
   <g id="patch_35">
    <path clip-path="url(#p96b6470ce4)" d="M 110.409444 137.71551 
L 111.586061 137.71551 
L 111.586061 136.502897 
L 110.409444 136.502897 
z
" style="fill:#1f77b4;"/>
   </g>
   <g id="patch_36">
    <path clip-path="url(#p96b6470ce4)" d="M 111.880215 137.71551 
L 113.056831 137.71551 
L 113.056831 136.351625 
L 111.880215 136.351625 
z
" style="fill:#1f77b4;"/>
   </g>
   <g id="patch_37">
    <path clip-path="url(#p96b6470ce4)" d="M 113.350985 137.71551 
L 114.527602 137.71551 
L 114.527602 136.241831 
L 113.350985 136.241831 
z
" style="fill:#1f77b4;"/>
   </g>
   <g id="patch_38">
    <path clip-path="url(#p96b6470ce4)" d="M 114.821756 137.71551 
L 115.998373 137.71551 
L 115.998373 136.166195 
L 114.821756 136.166195 
z
" style="fill:#1f77b4;"/>
   </g>
   <g id="patch_39">
    <path clip-path="url(#p96b6470ce4)" d="M 116.292527 137.71551 
L 117.469143 137.71551 
L 117.469143 136.07348 
L 116.292527 136.07348 
z
" style="fill:#1f77b4;"/>
   </g>
   <g id="patch_40">
    <path clip-path="url(#p96b6470ce4)" d="M 117.763298 137.71551 
L 118.939914 137.71551 
L 118.939914 135.951487 
L 117.763298 135.951487 
z
" style="fill:#1f77b4;"/>
   </g>
   <g id="patch_41">
    <path clip-path="url(#p96b6470ce4)" d="M 119.234068 137.71551 
L 120.410685 137.71551 
L 120.410685 135.863652 
L 119.234068 135.863652 
z
" style="fill:#1f77b4;"/>
   </g>
   <g id="patch_42">
    <path clip-path="url(#p96b6470ce4)" d="M 120.704839 137.71551 
L 121.881456 137.71551 
L 121.881456 135.746538 
L 120.704839 135.746538 
z
" style="fill:#1f77b4;"/>
   </g>
   <g id="patch_43">
    <path clip-path="url(#p96b6470ce4)" d="M 122.17561 137.71551 
L 123.352226 137.71551 
L 123.352226 135.395197 
L 122.17561 135.395197 
z
" style="fill:#1f77b4;"/>
   </g>
   <g id="patch_44">
    <path clip-path="url(#p96b6470ce4)" d="M 123.64638 137.71551 
L 124.822997 137.71551 
L 124.822997 135.131692 
L 123.64638 135.131692 
z
" style="fill:#1f77b4;"/>
   </g>
   <g id="patch_45">
    <path clip-path="url(#p96b6470ce4)" d="M 125.117151 137.71551 
L 126.293768 137.71551 
L 126.293768 134.80475 
L 125.117151 134.80475 
z
" style="fill:#1f77b4;"/>
   </g>
   <g id="patch_46">
    <path clip-path="url(#p96b6470ce4)" d="M 126.587922 137.71551 
L 127.764539 137.71551 
L 127.764539 134.714475 
L 126.587922 134.714475 
z
" style="fill:#1f77b4;"/>
   </g>
   <g id="patch_47">
    <path clip-path="url(#p96b6470ce4)" d="M 128.058693 137.71551 
L 129.235309 137.71551 
L 129.235309 134.443649 
L 128.058693 134.443649 
z
" style="fill:#1f77b4;"/>
   </g>
   <g id="patch_48">
    <path clip-path="url(#p96b6470ce4)" d="M 129.529463 137.71551 
L 130.70608 137.71551 
L 130.70608 134.082549 
L 129.529463 134.082549 
z
" style="fill:#1f77b4;"/>
   </g>
   <g id="patch_49">
    <path clip-path="url(#p96b6470ce4)" d="M 131.000234 137.71551 
L 132.176851 137.71551 
L 132.176851 133.70437 
L 131.000234 133.70437 
z
" style="fill:#1f77b4;"/>
   </g>
   <g id="patch_50">
    <path clip-path="url(#p96b6470ce4)" d="M 132.471005 137.71551 
L 133.647621 137.71551 
L 133.647621 133.350589 
L 132.471005 133.350589 
z
" style="fill:#1f77b4;"/>
   </g>
   <g id="patch_51">
    <path clip-path="url(#p96b6470ce4)" d="M 133.941776 137.71551 
L 135.118392 137.71551 
L 135.118392 132.928493 
L 133.941776 132.928493 
z
" style="fill:#1f77b4;"/>
   </g>
   <g id="patch_52">
    <path clip-path="url(#p96b6470ce4)" d="M 135.412546 137.71551 
L 136.589163 137.71551 
L 136.589163 132.638148 
L 135.412546 132.638148 
z
" style="fill:#1f77b4;"/>
   </g>
   <g id="patch_53">
    <path clip-path="url(#p96b6470ce4)" d="M 136.883317 137.71551 
L 138.059934 137.71551 
L 138.059934 132.325846 
L 136.883317 132.325846 
z
" style="fill:#1f77b4;"/>
   </g>
   <g id="patch_54">
    <path clip-path="url(#p96b6470ce4)" d="M 138.354088 137.71551 
L 139.530704 137.71551 
L 139.530704 131.972065 
L 138.354088 131.972065 
z
" style="fill:#1f77b4;"/>
   </g>
   <g id="patch_55">
    <path clip-path="url(#p96b6470ce4)" d="M 139.824858 137.71551 
L 141.001475 137.71551 
L 141.001475 131.51825 
L 139.824858 131.51825 
z
" style="fill:#1f77b4;"/>
   </g>
   <g id="patch_56">
    <path clip-path="url(#p96b6470ce4)" d="M 141.295629 137.71551 
L 142.472246 137.71551 
L 142.472246 131.259624 
L 141.295629 131.259624 
z
" style="fill:#1f77b4;"/>
   </g>
   <g id="patch_57">
    <path clip-path="url(#p96b6470ce4)" d="M 142.7664 137.71551 
L 143.943017 137.71551 
L 143.943017 130.759452 
L 142.7664 130.759452 
z
" style="fill:#1f77b4;"/>
   </g>
   <g id="patch_58">
    <path clip-path="url(#p96b6470ce4)" d="M 144.237171 137.71551 
L 145.413787 137.71551 
L 145.413787 130.188523 
L 144.237171 130.188523 
z
" style="fill:#1f77b4;"/>
   </g>
   <g id="patch_59">
    <path clip-path="url(#p96b6470ce4)" d="M 145.707941 137.71551 
L 146.884558 137.71551 
L 146.884558 129.744467 
L 145.707941 129.744467 
z
" style="fill:#1f77b4;"/>
   </g>
   <g id="patch_60">
    <path clip-path="url(#p96b6470ce4)" d="M 147.178712 137.71551 
L 148.355329 137.71551 
L 148.355329 129.188178 
L 147.178712 129.188178 
z
" style="fill:#1f77b4;"/>
   </g>
   <g id="patch_61">
    <path clip-path="url(#p96b6470ce4)" d="M 148.649483 137.71551 
L 149.826099 137.71551 
L 149.826099 128.60505 
L 148.649483 128.60505 
z
" style="fill:#1f77b4;"/>
   </g>
   <g id="patch_62">
    <path clip-path="url(#p96b6470ce4)" d="M 150.120254 137.71551 
L 151.29687 137.71551 
L 151.29687 127.858451 
L 150.120254 127.858451 
z
" style="fill:#1f77b4;"/>
   </g>
   <g id="patch_63">
    <path clip-path="url(#p96b6470ce4)" d="M 151.591024 137.71551 
L 152.767641 137.71551 
L 152.767641 127.221646 
L 151.591024 127.221646 
z
" style="fill:#1f77b4;"/>
   </g>
   <g id="patch_64">
    <path clip-path="url(#p96b6470ce4)" d="M 153.061795 137.71551 
L 154.238412 137.71551 
L 154.238412 126.667796 
L 153.061795 126.667796 
z
" style="fill:#1f77b4;"/>
   </g>
   <g id="patch_65">
    <path clip-path="url(#p96b6470ce4)" d="M 154.532566 137.71551 
L 155.709182 137.71551 
L 155.709182 125.960235 
L 154.532566 125.960235 
z
" style="fill:#1f77b4;"/>
   </g>
   <g id="patch_66">
    <path clip-path="url(#p96b6470ce4)" d="M 156.003336 137.71551 
L 157.179953 137.71551 
L 157.179953 125.091642 
L 156.003336 125.091642 
z
" style="fill:#1f77b4;"/>
   </g>
   <g id="patch_67">
    <path clip-path="url(#p96b6470ce4)" d="M 157.474107 137.71551 
L 158.650724 137.71551 
L 158.650724 124.154734 
L 157.474107 124.154734 
z
" style="fill:#1f77b4;"/>
   </g>
   <g id="patch_68">
    <path clip-path="url(#p96b6470ce4)" d="M 158.944878 137.71551 
L 160.121495 137.71551 
L 160.121495 123.544767 
L 158.944878 123.544767 
z
" style="fill:#1f77b4;"/>
   </g>
   <g id="patch_69">
    <path clip-path="url(#p96b6470ce4)" d="M 160.415649 137.71551 
L 161.592265 137.71551 
L 161.592265 122.57858 
L 160.415649 122.57858 
z
" style="fill:#1f77b4;"/>
   </g>
   <g id="patch_70">
    <path clip-path="url(#p96b6470ce4)" d="M 161.886419 137.71551 
L 163.063036 137.71551 
L 163.063036 121.741706 
L 161.886419 121.741706 
z
" style="fill:#1f77b4;"/>
   </g>
   <g id="patch_71">
    <path clip-path="url(#p96b6470ce4)" d="M 163.35719 137.71551 
L 164.533807 137.71551 
L 164.533807 120.746241 
L 163.35719 120.746241 
z
" style="fill:#1f77b4;"/>
   </g>
   <g id="patch_72">
    <path clip-path="url(#p96b6470ce4)" d="M 164.827961 137.71551 
L 166.004577 137.71551 
L 166.004577 117.884278 
L 164.827961 117.884278 
z
" style="fill:#1f77b4;"/>
   </g>
   <g id="patch_73">
    <path clip-path="url(#p96b6470ce4)" d="M 166.298732 137.71551 
L 167.475348 137.71551 
L 167.475348 117.430463 
L 166.298732 117.430463 
z
" style="fill:#1f77b4;"/>
   </g>
   <g id="patch_74">
    <path clip-path="url(#p96b6470ce4)" d="M 167.769502 137.71551 
L 168.946119 137.71551 
L 168.946119 117.11572 
L 167.769502 117.11572 
z
" style="fill:#1f77b4;"/>
   </g>
   <g id="patch_75">
    <path clip-path="url(#p96b6470ce4)" d="M 169.240273 137.71551 
L 170.41689 137.71551 
L 170.41689 116.779018 
L 169.240273 116.779018 
z
" style="fill:#1f77b4;"/>
   </g>
   <g id="patch_76">
    <path clip-path="url(#p96b6470ce4)" d="M 170.711044 137.71551 
L 171.88766 137.71551 
L 171.88766 110.845264 
L 170.711044 110.845264 
z
" style="fill:#1f77b4;"/>
   </g>
   <g id="patch_77">
    <path clip-path="url(#p96b6470ce4)" d="M 172.181814 137.71551 
L 173.358431 137.71551 
L 173.358431 110.396328 
L 172.181814 110.396328 
z
" style="fill:#1f77b4;"/>
   </g>
   <g id="patch_78">
    <path clip-path="url(#p96b6470ce4)" d="M 173.652585 137.71551 
L 174.829202 137.71551 
L 174.829202 108.581068 
L 173.652585 108.581068 
z
" style="fill:#1f77b4;"/>
   </g>
   <g id="patch_79">
    <path clip-path="url(#p96b6470ce4)" d="M 175.123356 137.71551 
L 176.299973 137.71551 
L 176.299973 107.07811 
L 175.123356 107.07811 
z
" style="fill:#1f77b4;"/>
   </g>
   <g id="patch_80">
    <path clip-path="url(#p96b6470ce4)" d="M 176.594127 137.71551 
L 177.770743 137.71551 
L 177.770743 105.99725 
L 176.594127 105.99725 
z
" style="fill:#1f77b4;"/>
   </g>
   <g id="patch_81">
    <path clip-path="url(#p96b6470ce4)" d="M 178.064897 137.71551 
L 179.241514 137.71551 
L 179.241514 103.80381 
L 178.064897 103.80381 
z
" style="fill:#1f77b4;"/>
   </g>
   <g id="patch_82">
    <path clip-path="url(#p96b6470ce4)" d="M 179.535668 137.71551 
L 180.712285 137.71551 
L 180.712285 103.059651 
L 179.535668 103.059651 
z
" style="fill:#1f77b4;"/>
   </g>
   <g id="patch_83">
    <path clip-path="url(#p96b6470ce4)" d="M 181.006439 137.71551 
L 182.183055 137.71551 
L 182.183055 102.176419 
L 181.006439 102.176419 
z
" style="fill:#1f77b4;"/>
   </g>
   <g id="patch_84">
    <path clip-path="url(#p96b6470ce4)" d="M 182.47721 137.71551 
L 183.653826 137.71551 
L 183.653826 100.946727 
L 182.47721 100.946727 
z
" style="fill:#1f77b4;"/>
   </g>
   <g id="patch_85">
    <path clip-path="url(#p96b6470ce4)" d="M 183.94798 137.71551 
L 185.124597 137.71551 
L 185.124597 98.767926 
L 183.94798 98.767926 
z
" style="fill:#1f77b4;"/>
   </g>
   <g id="patch_86">
    <path clip-path="url(#p96b6470ce4)" d="M 185.418751 137.71551 
L 186.595368 137.71551 
L 186.595368 96.440294 
L 185.418751 96.440294 
z
" style="fill:#1f77b4;"/>
   </g>
   <g id="patch_87">
    <path clip-path="url(#p96b6470ce4)" d="M 186.889522 137.71551 
L 188.066138 137.71551 
L 188.066138 94.710429 
L 186.889522 94.710429 
z
" style="fill:#1f77b4;"/>
   </g>
   <g id="patch_88">
    <path clip-path="url(#p96b6470ce4)" d="M 188.360292 137.71551 
L 189.536909 137.71551 
L 189.536909 92.841491 
L 188.360292 92.841491 
z
" style="fill:#1f77b4;"/>
   </g>
   <g id="patch_89">
    <path clip-path="url(#p96b6470ce4)" d="M 189.831063 137.71551 
L 191.00768 137.71551 
L 191.00768 91.606919 
L 189.831063 91.606919 
z
" style="fill:#1f77b4;"/>
   </g>
   <g id="patch_90">
    <path clip-path="url(#p96b6470ce4)" d="M 191.301834 137.71551 
L 192.478451 137.71551 
L 192.478451 85.429178 
L 191.301834 85.429178 
z
" style="fill:#1f77b4;"/>
   </g>
   <g id="patch_91">
    <path clip-path="url(#p96b6470ce4)" d="M 192.772605 137.71551 
L 193.949221 137.71551 
L 193.949221 82.938074 
L 192.772605 82.938074 
z
" style="fill:#1f77b4;"/>
   </g>
   <g id="patch_92">
    <path clip-path="url(#p96b6470ce4)" d="M 194.243375 137.71551 
L 195.419992 137.71551 
L 195.419992 80.46893 
L 194.243375 80.46893 
z
" style="fill:#1f77b4;"/>
   </g>
   <g id="patch_93">
    <path clip-path="url(#p96b6470ce4)" d="M 195.714146 137.71551 
L 196.890763 137.71551 
L 196.890763 73.256686 
L 195.714146 73.256686 
z
" style="fill:#1f77b4;"/>
   </g>
   <g id="patch_94">
    <path clip-path="url(#p96b6470ce4)" d="M 197.184917 137.71551 
L 198.361533 137.71551 
L 198.361533 70.872936 
L 197.184917 70.872936 
z
" style="fill:#1f77b4;"/>
   </g>
   <g id="patch_95">
    <path clip-path="url(#p96b6470ce4)" d="M 198.655688 137.71551 
L 199.832304 137.71551 
L 199.832304 68.789291 
L 198.655688 68.789291 
z
" style="fill:#1f77b4;"/>
   </g>
   <g id="patch_96">
    <path clip-path="url(#p96b6470ce4)" d="M 200.126458 137.71551 
L 201.303075 137.71551 
L 201.303075 67.654753 
L 200.126458 67.654753 
z
" style="fill:#1f77b4;"/>
   </g>
   <g id="patch_97">
    <path clip-path="url(#p96b6470ce4)" d="M 201.597229 137.71551 
L 202.773846 137.71551 
L 202.773846 63.345949 
L 201.597229 63.345949 
z
" style="fill:#1f77b4;"/>
   </g>
   <g id="patch_98">
    <path clip-path="url(#p96b6470ce4)" d="M 203.068 137.71551 
L 204.244616 137.71551 
L 204.244616 57.968484 
L 203.068 57.968484 
z
" style="fill:#1f77b4;"/>
   </g>
   <g id="patch_99">
    <path clip-path="url(#p96b6470ce4)" d="M 204.53877 137.71551 
L 205.715387 137.71551 
L 205.715387 55.026005 
L 204.53877 55.026005 
z
" style="fill:#1f77b4;"/>
   </g>
   <g id="patch_100">
    <path clip-path="url(#p96b6470ce4)" d="M 206.009541 137.71551 
L 207.186158 137.71551 
L 207.186158 53.137549 
L 206.009541 53.137549 
z
" style="fill:#1f77b4;"/>
   </g>
   <g id="patch_101">
    <path clip-path="url(#p96b6470ce4)" d="M 207.480312 137.71551 
L 208.656929 137.71551 
L 208.656929 50.397579 
L 207.480312 50.397579 
z
" style="fill:#1f77b4;"/>
   </g>
   <g id="patch_102">
    <path clip-path="url(#p96b6470ce4)" d="M 208.951083 137.71551 
L 210.127699 137.71551 
L 210.127699 48.901941 
L 208.951083 48.901941 
z
" style="fill:#1f77b4;"/>
   </g>
   <g id="patch_103">
    <path clip-path="url(#p96b6470ce4)" d="M 210.421853 137.71551 
L 211.59847 137.71551 
L 211.59847 45.927744 
L 210.421853 45.927744 
z
" style="fill:#1f77b4;"/>
   </g>
   <g id="patch_104">
    <path clip-path="url(#p96b6470ce4)" d="M 211.892624 137.71551 
L 213.069241 137.71551 
L 213.069241 42.058117 
L 211.892624 42.058117 
z
" style="fill:#1f77b4;"/>
   </g>
   <g id="patch_105">
    <path clip-path="url(#p96b6470ce4)" d="M 213.363395 137.71551 
L 214.540011 137.71551 
L 214.540011 37.861547 
L 213.363395 37.861547 
z
" style="fill:#1f77b4;"/>
   </g>
   <g id="patch_106">
    <path clip-path="url(#p96b6470ce4)" d="M 214.834166 137.71551 
L 216.010782 137.71551 
L 216.010782 36.273194 
L 214.834166 36.273194 
z
" style="fill:#1f77b4;"/>
   </g>
   <g id="patch_107">
    <path clip-path="url(#p96b6470ce4)" d="M 216.304936 137.71551 
L 217.481553 137.71551 
L 217.481553 30.551708 
L 216.304936 30.551708 
z
" style="fill:#1f77b4;"/>
   </g>
   <g id="patch_108">
    <path clip-path="url(#p96b6470ce4)" d="M 217.775707 137.71551 
L 218.952324 137.71551 
L 218.952324 27.179813 
L 217.775707 27.179813 
z
" style="fill:#1f77b4;"/>
   </g>
   <g id="patch_109">
    <path clip-path="url(#p96b6470ce4)" d="M 219.246478 137.71551 
L 220.423094 137.71551 
L 220.423094 24.800943 
L 219.246478 24.800943 
z
" style="fill:#1f77b4;"/>
   </g>
   <g id="matplotlib.axis_1">
    <g id="xtick_1">
     <g id="line2d_1">
      <defs>
       <path d="M 0 0 
L 0 3.5 
" id="m7a276204c1" style="stroke:#000000;stroke-width:0.8;"/>
      </defs>
      <g>
       <use style="stroke:#000000;stroke-width:0.8;" x="63.933089" xlink:href="#m7a276204c1" y="137.71551"/>
      </g>
     </g>
     <g id="text_1">
      <!-- 0 -->
      <defs>
       <path d="M 31.78125 66.40625 
Q 24.171875 66.40625 20.328125 58.90625 
Q 16.5 51.421875 16.5 36.375 
Q 16.5 21.390625 20.328125 13.890625 
Q 24.171875 6.390625 31.78125 6.390625 
Q 39.453125 6.390625 43.28125 13.890625 
Q 47.125 21.390625 47.125 36.375 
Q 47.125 51.421875 43.28125 58.90625 
Q 39.453125 66.40625 31.78125 66.40625 
z
M 31.78125 74.21875 
Q 44.046875 74.21875 50.515625 64.515625 
Q 56.984375 54.828125 56.984375 36.375 
Q 56.984375 17.96875 50.515625 8.265625 
Q 44.046875 -1.421875 31.78125 -1.421875 
Q 19.53125 -1.421875 13.0625 8.265625 
Q 6.59375 17.96875 6.59375 36.375 
Q 6.59375 54.828125 13.0625 64.515625 
Q 19.53125 74.21875 31.78125 74.21875 
z
" id="DejaVuSans-48"/>
      </defs>
      <g transform="translate(60.751839 152.313947)scale(0.1 -0.1)">
       <use xlink:href="#DejaVuSans-48"/>
      </g>
     </g>
    </g>
    <g id="xtick_2">
     <g id="line2d_2">
      <g>
       <use style="stroke:#000000;stroke-width:0.8;" x="100.702357" xlink:href="#m7a276204c1" y="137.71551"/>
      </g>
     </g>
     <g id="text_2">
      <!-- 25 -->
      <defs>
       <path d="M 19.1875 8.296875 
L 53.609375 8.296875 
L 53.609375 0 
L 7.328125 0 
L 7.328125 8.296875 
Q 12.9375 14.109375 22.625 23.890625 
Q 32.328125 33.6875 34.8125 36.53125 
Q 39.546875 41.84375 41.421875 45.53125 
Q 43.3125 49.21875 43.3125 52.78125 
Q 43.3125 58.59375 39.234375 62.25 
Q 35.15625 65.921875 28.609375 65.921875 
Q 23.96875 65.921875 18.8125 64.3125 
Q 13.671875 62.703125 7.8125 59.421875 
L 7.8125 69.390625 
Q 13.765625 71.78125 18.9375 73 
Q 24.125 74.21875 28.421875 74.21875 
Q 39.75 74.21875 46.484375 68.546875 
Q 53.21875 62.890625 53.21875 53.421875 
Q 53.21875 48.921875 51.53125 44.890625 
Q 49.859375 40.875 45.40625 35.40625 
Q 44.1875 33.984375 37.640625 27.21875 
Q 31.109375 20.453125 19.1875 8.296875 
z
" id="DejaVuSans-50"/>
       <path d="M 10.796875 72.90625 
L 49.515625 72.90625 
L 49.515625 64.59375 
L 19.828125 64.59375 
L 19.828125 46.734375 
Q 21.96875 47.46875 24.109375 47.828125 
Q 26.265625 48.1875 28.421875 48.1875 
Q 40.625 48.1875 47.75 41.5 
Q 54.890625 34.8125 54.890625 23.390625 
Q 54.890625 11.625 47.5625 5.09375 
Q 40.234375 -1.421875 26.90625 -1.421875 
Q 22.3125 -1.421875 17.546875 -0.640625 
Q 12.796875 0.140625 7.71875 1.703125 
L 7.71875 11.625 
Q 12.109375 9.234375 16.796875 8.0625 
Q 21.484375 6.890625 26.703125 6.890625 
Q 35.15625 6.890625 40.078125 11.328125 
Q 45.015625 15.765625 45.015625 23.390625 
Q 45.015625 31 40.078125 35.4375 
Q 35.15625 39.890625 26.703125 39.890625 
Q 22.75 39.890625 18.8125 39.015625 
Q 14.890625 38.140625 10.796875 36.28125 
z
" id="DejaVuSans-53"/>
      </defs>
      <g transform="translate(94.339857 152.313947)scale(0.1 -0.1)">
       <use xlink:href="#DejaVuSans-50"/>
       <use x="63.623047" xlink:href="#DejaVuSans-53"/>
      </g>
     </g>
    </g>
    <g id="xtick_3">
     <g id="line2d_3">
      <g>
       <use style="stroke:#000000;stroke-width:0.8;" x="137.471625" xlink:href="#m7a276204c1" y="137.71551"/>
      </g>
     </g>
     <g id="text_3">
      <!-- 50 -->
      <g transform="translate(131.109125 152.313947)scale(0.1 -0.1)">
       <use xlink:href="#DejaVuSans-53"/>
       <use x="63.623047" xlink:href="#DejaVuSans-48"/>
      </g>
     </g>
    </g>
    <g id="xtick_4">
     <g id="line2d_4">
      <g>
       <use style="stroke:#000000;stroke-width:0.8;" x="174.240893" xlink:href="#m7a276204c1" y="137.71551"/>
      </g>
     </g>
     <g id="text_4">
      <!-- 75 -->
      <defs>
       <path d="M 8.203125 72.90625 
L 55.078125 72.90625 
L 55.078125 68.703125 
L 28.609375 0 
L 18.3125 0 
L 43.21875 64.59375 
L 8.203125 64.59375 
z
" id="DejaVuSans-55"/>
      </defs>
      <g transform="translate(167.878393 152.313947)scale(0.1 -0.1)">
       <use xlink:href="#DejaVuSans-55"/>
       <use x="63.623047" xlink:href="#DejaVuSans-53"/>
      </g>
     </g>
    </g>
    <g id="xtick_5">
     <g id="line2d_5">
      <g>
       <use style="stroke:#000000;stroke-width:0.8;" x="211.010162" xlink:href="#m7a276204c1" y="137.71551"/>
      </g>
     </g>
     <g id="text_5">
      <!-- 100 -->
      <defs>
       <path d="M 12.40625 8.296875 
L 28.515625 8.296875 
L 28.515625 63.921875 
L 10.984375 60.40625 
L 10.984375 69.390625 
L 28.421875 72.90625 
L 38.28125 72.90625 
L 38.28125 8.296875 
L 54.390625 8.296875 
L 54.390625 0 
L 12.40625 0 
z
" id="DejaVuSans-49"/>
      </defs>
      <g transform="translate(201.466412 152.313947)scale(0.1 -0.1)">
       <use xlink:href="#DejaVuSans-49"/>
       <use x="63.623047" xlink:href="#DejaVuSans-48"/>
       <use x="127.246094" xlink:href="#DejaVuSans-48"/>
      </g>
     </g>
    </g>
    <g id="text_6">
     <!-- Dias -->
     <defs>
      <path d="M 19.671875 64.796875 
L 19.671875 8.109375 
L 31.59375 8.109375 
Q 46.6875 8.109375 53.6875 14.9375 
Q 60.6875 21.78125 60.6875 36.53125 
Q 60.6875 51.171875 53.6875 57.984375 
Q 46.6875 64.796875 31.59375 64.796875 
z
M 9.8125 72.90625 
L 30.078125 72.90625 
Q 51.265625 72.90625 61.171875 64.09375 
Q 71.09375 55.28125 71.09375 36.53125 
Q 71.09375 17.671875 61.125 8.828125 
Q 51.171875 0 30.078125 0 
L 9.8125 0 
z
" id="DejaVuSans-68"/>
      <path d="M 9.421875 54.6875 
L 18.40625 54.6875 
L 18.40625 0 
L 9.421875 0 
z
M 9.421875 75.984375 
L 18.40625 75.984375 
L 18.40625 64.59375 
L 9.421875 64.59375 
z
" id="DejaVuSans-105"/>
      <path d="M 34.28125 27.484375 
Q 23.390625 27.484375 19.1875 25 
Q 14.984375 22.515625 14.984375 16.5 
Q 14.984375 11.71875 18.140625 8.90625 
Q 21.296875 6.109375 26.703125 6.109375 
Q 34.1875 6.109375 38.703125 11.40625 
Q 43.21875 16.703125 43.21875 25.484375 
L 43.21875 27.484375 
z
M 52.203125 31.203125 
L 52.203125 0 
L 43.21875 0 
L 43.21875 8.296875 
Q 40.140625 3.328125 35.546875 0.953125 
Q 30.953125 -1.421875 24.3125 -1.421875 
Q 15.921875 -1.421875 10.953125 3.296875 
Q 6 8.015625 6 15.921875 
Q 6 25.140625 12.171875 29.828125 
Q 18.359375 34.515625 30.609375 34.515625 
L 43.21875 34.515625 
L 43.21875 35.40625 
Q 43.21875 41.609375 39.140625 45 
Q 35.0625 48.390625 27.6875 48.390625 
Q 23 48.390625 18.546875 47.265625 
Q 14.109375 46.140625 10.015625 43.890625 
L 10.015625 52.203125 
Q 14.9375 54.109375 19.578125 55.046875 
Q 24.21875 56 28.609375 56 
Q 40.484375 56 46.34375 49.84375 
Q 52.203125 43.703125 52.203125 31.203125 
z
" id="DejaVuSans-97"/>
      <path d="M 44.28125 53.078125 
L 44.28125 44.578125 
Q 40.484375 46.53125 36.375 47.5 
Q 32.28125 48.484375 27.875 48.484375 
Q 21.1875 48.484375 17.84375 46.4375 
Q 14.5 44.390625 14.5 40.28125 
Q 14.5 37.15625 16.890625 35.375 
Q 19.28125 33.59375 26.515625 31.984375 
L 29.59375 31.296875 
Q 39.15625 29.25 43.1875 25.515625 
Q 47.21875 21.78125 47.21875 15.09375 
Q 47.21875 7.46875 41.1875 3.015625 
Q 35.15625 -1.421875 24.609375 -1.421875 
Q 20.21875 -1.421875 15.453125 -0.5625 
Q 10.6875 0.296875 5.421875 2 
L 5.421875 11.28125 
Q 10.40625 8.6875 15.234375 7.390625 
Q 20.0625 6.109375 24.8125 6.109375 
Q 31.15625 6.109375 34.5625 8.28125 
Q 37.984375 10.453125 37.984375 14.40625 
Q 37.984375 18.0625 35.515625 20.015625 
Q 33.0625 21.96875 24.703125 23.78125 
L 21.578125 24.515625 
Q 13.234375 26.265625 9.515625 29.90625 
Q 5.8125 33.546875 5.8125 39.890625 
Q 5.8125 47.609375 11.28125 51.796875 
Q 16.75 56 26.8125 56 
Q 31.78125 56 36.171875 55.265625 
Q 40.578125 54.546875 44.28125 53.078125 
z
" id="DejaVuSans-115"/>
     </defs>
     <g transform="translate(130.976125 165.992072)scale(0.1 -0.1)">
      <use xlink:href="#DejaVuSans-68"/>
      <use x="77.001953" xlink:href="#DejaVuSans-105"/>
      <use x="104.785156" xlink:href="#DejaVuSans-97"/>
      <use x="166.064453" xlink:href="#DejaVuSans-115"/>
     </g>
    </g>
   </g>
   <g id="matplotlib.axis_2">
    <g id="ytick_1">
     <g id="line2d_6">
      <defs>
       <path d="M 0 0 
L -3.5 0 
" id="m4669ff491d" style="stroke:#000000;stroke-width:0.8;"/>
      </defs>
      <g>
       <use style="stroke:#000000;stroke-width:0.8;" x="55.490865" xlink:href="#m4669ff491d" y="137.71551"/>
      </g>
     </g>
     <g id="text_7">
      <!-- 0 -->
      <g transform="translate(42.128365 141.514729)scale(0.1 -0.1)">
       <use xlink:href="#DejaVuSans-48"/>
      </g>
     </g>
    </g>
    <g id="ytick_2">
     <g id="line2d_7">
      <g>
       <use style="stroke:#000000;stroke-width:0.8;" x="55.490865" xlink:href="#m4669ff491d" y="113.316848"/>
      </g>
     </g>
     <g id="text_8">
      <!-- 10000 -->
      <g transform="translate(16.678365 117.116067)scale(0.1 -0.1)">
       <use xlink:href="#DejaVuSans-49"/>
       <use x="63.623047" xlink:href="#DejaVuSans-48"/>
       <use x="127.246094" xlink:href="#DejaVuSans-48"/>
       <use x="190.869141" xlink:href="#DejaVuSans-48"/>
       <use x="254.492188" xlink:href="#DejaVuSans-48"/>
      </g>
     </g>
    </g>
    <g id="ytick_3">
     <g id="line2d_8">
      <g>
       <use style="stroke:#000000;stroke-width:0.8;" x="55.490865" xlink:href="#m4669ff491d" y="88.918186"/>
      </g>
     </g>
     <g id="text_9">
      <!-- 20000 -->
      <g transform="translate(16.678365 92.717405)scale(0.1 -0.1)">
       <use xlink:href="#DejaVuSans-50"/>
       <use x="63.623047" xlink:href="#DejaVuSans-48"/>
       <use x="127.246094" xlink:href="#DejaVuSans-48"/>
       <use x="190.869141" xlink:href="#DejaVuSans-48"/>
       <use x="254.492188" xlink:href="#DejaVuSans-48"/>
      </g>
     </g>
    </g>
    <g id="ytick_4">
     <g id="line2d_9">
      <g>
       <use style="stroke:#000000;stroke-width:0.8;" x="55.490865" xlink:href="#m4669ff491d" y="64.519525"/>
      </g>
     </g>
     <g id="text_10">
      <!-- 30000 -->
      <defs>
       <path d="M 40.578125 39.3125 
Q 47.65625 37.796875 51.625 33 
Q 55.609375 28.21875 55.609375 21.1875 
Q 55.609375 10.40625 48.1875 4.484375 
Q 40.765625 -1.421875 27.09375 -1.421875 
Q 22.515625 -1.421875 17.65625 -0.515625 
Q 12.796875 0.390625 7.625 2.203125 
L 7.625 11.71875 
Q 11.71875 9.328125 16.59375 8.109375 
Q 21.484375 6.890625 26.8125 6.890625 
Q 36.078125 6.890625 40.9375 10.546875 
Q 45.796875 14.203125 45.796875 21.1875 
Q 45.796875 27.640625 41.28125 31.265625 
Q 36.765625 34.90625 28.71875 34.90625 
L 20.21875 34.90625 
L 20.21875 43.015625 
L 29.109375 43.015625 
Q 36.375 43.015625 40.234375 45.921875 
Q 44.09375 48.828125 44.09375 54.296875 
Q 44.09375 59.90625 40.109375 62.90625 
Q 36.140625 65.921875 28.71875 65.921875 
Q 24.65625 65.921875 20.015625 65.03125 
Q 15.375 64.15625 9.8125 62.3125 
L 9.8125 71.09375 
Q 15.4375 72.65625 20.34375 73.4375 
Q 25.25 74.21875 29.59375 74.21875 
Q 40.828125 74.21875 47.359375 69.109375 
Q 53.90625 64.015625 53.90625 55.328125 
Q 53.90625 49.265625 50.4375 45.09375 
Q 46.96875 40.921875 40.578125 39.3125 
z
" id="DejaVuSans-51"/>
      </defs>
      <g transform="translate(16.678365 68.318743)scale(0.1 -0.1)">
       <use xlink:href="#DejaVuSans-51"/>
       <use x="63.623047" xlink:href="#DejaVuSans-48"/>
       <use x="127.246094" xlink:href="#DejaVuSans-48"/>
       <use x="190.869141" xlink:href="#DejaVuSans-48"/>
       <use x="254.492188" xlink:href="#DejaVuSans-48"/>
      </g>
     </g>
    </g>
    <g id="ytick_5">
     <g id="line2d_10">
      <g>
       <use style="stroke:#000000;stroke-width:0.8;" x="55.490865" xlink:href="#m4669ff491d" y="40.120863"/>
      </g>
     </g>
     <g id="text_11">
      <!-- 40000 -->
      <defs>
       <path d="M 37.796875 64.3125 
L 12.890625 25.390625 
L 37.796875 25.390625 
z
M 35.203125 72.90625 
L 47.609375 72.90625 
L 47.609375 25.390625 
L 58.015625 25.390625 
L 58.015625 17.1875 
L 47.609375 17.1875 
L 47.609375 0 
L 37.796875 0 
L 37.796875 17.1875 
L 4.890625 17.1875 
L 4.890625 26.703125 
z
" id="DejaVuSans-52"/>
      </defs>
      <g transform="translate(16.678365 43.920082)scale(0.1 -0.1)">
       <use xlink:href="#DejaVuSans-52"/>
       <use x="63.623047" xlink:href="#DejaVuSans-48"/>
       <use x="127.246094" xlink:href="#DejaVuSans-48"/>
       <use x="190.869141" xlink:href="#DejaVuSans-48"/>
       <use x="254.492188" xlink:href="#DejaVuSans-48"/>
      </g>
     </g>
    </g>
    <g id="text_12">
     <!-- Casos -->
     <defs>
      <path d="M 64.40625 67.28125 
L 64.40625 56.890625 
Q 59.421875 61.53125 53.78125 63.8125 
Q 48.140625 66.109375 41.796875 66.109375 
Q 29.296875 66.109375 22.65625 58.46875 
Q 16.015625 50.828125 16.015625 36.375 
Q 16.015625 21.96875 22.65625 14.328125 
Q 29.296875 6.6875 41.796875 6.6875 
Q 48.140625 6.6875 53.78125 8.984375 
Q 59.421875 11.28125 64.40625 15.921875 
L 64.40625 5.609375 
Q 59.234375 2.09375 53.4375 0.328125 
Q 47.65625 -1.421875 41.21875 -1.421875 
Q 24.65625 -1.421875 15.125 8.703125 
Q 5.609375 18.84375 5.609375 36.375 
Q 5.609375 53.953125 15.125 64.078125 
Q 24.65625 74.21875 41.21875 74.21875 
Q 47.75 74.21875 53.53125 72.484375 
Q 59.328125 70.75 64.40625 67.28125 
z
" id="DejaVuSans-67"/>
      <path d="M 30.609375 48.390625 
Q 23.390625 48.390625 19.1875 42.75 
Q 14.984375 37.109375 14.984375 27.296875 
Q 14.984375 17.484375 19.15625 11.84375 
Q 23.34375 6.203125 30.609375 6.203125 
Q 37.796875 6.203125 41.984375 11.859375 
Q 46.1875 17.53125 46.1875 27.296875 
Q 46.1875 37.015625 41.984375 42.703125 
Q 37.796875 48.390625 30.609375 48.390625 
z
M 30.609375 56 
Q 42.328125 56 49.015625 48.375 
Q 55.71875 40.765625 55.71875 27.296875 
Q 55.71875 13.875 49.015625 6.21875 
Q 42.328125 -1.421875 30.609375 -1.421875 
Q 18.84375 -1.421875 12.171875 6.21875 
Q 5.515625 13.875 5.515625 27.296875 
Q 5.515625 40.765625 12.171875 48.375 
Q 18.84375 56 30.609375 56 
z
" id="DejaVuSans-111"/>
     </defs>
     <g transform="translate(10.598678 92.741156)rotate(-90)scale(0.1 -0.1)">
      <use xlink:href="#DejaVuSans-67"/>
      <use x="69.824219" xlink:href="#DejaVuSans-97"/>
      <use x="131.103516" xlink:href="#DejaVuSans-115"/>
      <use x="183.203125" xlink:href="#DejaVuSans-111"/>
      <use x="244.384766" xlink:href="#DejaVuSans-115"/>
     </g>
    </g>
   </g>
   <g id="line2d_11">
    <path clip-path="url(#p96b6470ce4)" d="M 63.933089 137.712127 
L 65.40386 137.711739 
L 66.87463 137.711128 
L 68.345401 137.71019 
L 69.816172 137.708728 
L 71.286943 137.706469 
L 72.757713 137.703058 
L 74.228484 137.698136 
L 75.699255 137.691355 
L 77.170026 137.682397 
L 78.640796 137.670979 
L 80.111567 137.656893 
L 81.582338 137.640014 
L 83.053108 137.620297 
L 84.523879 137.597674 
L 85.99465 137.572063 
L 87.465421 137.543318 
L 88.936191 137.511219 
L 90.406962 137.475444 
L 91.877733 137.435621 
L 93.348504 137.391373 
L 94.819274 137.342321 
L 96.290045 137.288055 
L 97.760816 137.228255 
L 99.231586 137.162809 
L 100.702357 137.0918 
L 102.173128 137.015402 
L 103.643899 136.933827 
L 105.114669 136.847359 
L 106.58544 136.756372 
L 108.056211 136.661063 
L 109.526982 136.561243 
L 110.997752 136.456324 
L 112.468523 136.345297 
L 113.939294 136.226649 
L 115.410064 136.098484 
L 116.880835 135.958566 
L 118.351606 135.804738 
L 119.822377 135.634973 
L 121.293147 135.447464 
L 122.763918 135.240886 
L 124.234689 135.014758 
L 125.70546 134.769175 
L 127.17623 134.504784 
L 128.647001 134.222342 
L 130.117772 133.92286 
L 131.588542 133.60745 
L 133.059313 133.276984 
L 134.530084 132.931471 
L 136.000855 132.570298 
L 137.471625 132.192222 
L 138.942396 131.79554 
L 140.413167 131.377953 
L 141.883938 130.936802 
L 143.354708 130.469338 
L 144.825479 129.973374 
L 146.29625 129.446979 
L 147.76702 128.88764 
L 149.237791 128.292751 
L 150.708562 127.660138 
L 152.179333 126.987954 
L 153.650103 126.272559 
L 155.120874 125.508406 
L 156.591645 124.688248 
L 158.062415 123.806286 
L 159.533186 122.856922 
L 161.003957 121.832828 
L 162.474728 120.724493 
L 163.945498 119.528387 
L 165.416269 118.246051 
L 166.88704 116.884446 
L 168.357811 115.451275 
L 169.828581 113.956191 
L 171.299352 112.414215 
L 172.770123 110.846394 
L 174.240893 109.265171 
L 175.711664 107.6754 
L 177.182435 106.073844 
L 178.653206 104.450761 
L 180.123976 102.789489 
L 181.594747 101.063346 
L 183.065518 99.235659 
L 184.536289 97.275537 
L 186.007059 95.15711 
L 187.47783 92.859581 
L 188.948601 90.37395 
L 190.419371 87.703132 
L 191.890142 84.863659 
L 193.360913 81.884347 
L 194.831684 78.795422 
L 196.302454 75.631368 
L 197.773225 72.431876 
L 199.243996 69.227826 
L 200.714767 66.040933 
L 202.185537 62.882233 
L 203.656308 59.753571 
L 205.127079 56.651797 
L 206.597849 53.564969 
L 208.06862 50.469225 
L 209.539391 47.342465 
L 211.010162 44.165729 
L 212.480932 40.927414 
L 213.951703 37.619543 
L 215.422474 34.238139 
L 216.893245 30.806649 
L 218.364015 27.329561 
L 219.834786 23.813467 
" style="fill:none;stroke:#ff0000;stroke-linecap:square;stroke-width:1.5;"/>
   </g>
   <g id="patch_110">
    <path d="M 55.490865 137.71551 
L 55.490865 18.118365 
" style="fill:none;stroke:#000000;stroke-linecap:square;stroke-linejoin:miter;stroke-width:0.8;"/>
   </g>
   <g id="patch_111">
    <path d="M 228.27701 137.71551 
L 228.27701 18.118365 
" style="fill:none;stroke:#000000;stroke-linecap:square;stroke-linejoin:miter;stroke-width:0.8;"/>
   </g>
   <g id="patch_112">
    <path d="M 55.490865 137.71551 
L 228.27701 137.71551 
" style="fill:none;stroke:#000000;stroke-linecap:square;stroke-linejoin:miter;stroke-width:0.8;"/>
   </g>
   <g id="patch_113">
    <path d="M 55.490865 18.118365 
L 228.27701 18.118365 
" style="fill:none;stroke:#000000;stroke-linecap:square;stroke-linejoin:miter;stroke-width:0.8;"/>
   </g>
   <g id="text_13">
    <!-- Casos acumulados - BA -->
    <defs>
     <path id="DejaVuSans-32"/>
     <path d="M 48.78125 52.59375 
L 48.78125 44.1875 
Q 44.96875 46.296875 41.140625 47.34375 
Q 37.3125 48.390625 33.40625 48.390625 
Q 24.65625 48.390625 19.8125 42.84375 
Q 14.984375 37.3125 14.984375 27.296875 
Q 14.984375 17.28125 19.8125 11.734375 
Q 24.65625 6.203125 33.40625 6.203125 
Q 37.3125 6.203125 41.140625 7.25 
Q 44.96875 8.296875 48.78125 10.40625 
L 48.78125 2.09375 
Q 45.015625 0.34375 40.984375 -0.53125 
Q 36.96875 -1.421875 32.421875 -1.421875 
Q 20.0625 -1.421875 12.78125 6.34375 
Q 5.515625 14.109375 5.515625 27.296875 
Q 5.515625 40.671875 12.859375 48.328125 
Q 20.21875 56 33.015625 56 
Q 37.15625 56 41.109375 55.140625 
Q 45.0625 54.296875 48.78125 52.59375 
z
" id="DejaVuSans-99"/>
     <path d="M 8.5 21.578125 
L 8.5 54.6875 
L 17.484375 54.6875 
L 17.484375 21.921875 
Q 17.484375 14.15625 20.5 10.265625 
Q 23.53125 6.390625 29.59375 6.390625 
Q 36.859375 6.390625 41.078125 11.03125 
Q 45.3125 15.671875 45.3125 23.6875 
L 45.3125 54.6875 
L 54.296875 54.6875 
L 54.296875 0 
L 45.3125 0 
L 45.3125 8.40625 
Q 42.046875 3.421875 37.71875 1 
Q 33.40625 -1.421875 27.6875 -1.421875 
Q 18.265625 -1.421875 13.375 4.4375 
Q 8.5 10.296875 8.5 21.578125 
z
M 31.109375 56 
z
" id="DejaVuSans-117"/>
     <path d="M 52 44.1875 
Q 55.375 50.25 60.0625 53.125 
Q 64.75 56 71.09375 56 
Q 79.640625 56 84.28125 50.015625 
Q 88.921875 44.046875 88.921875 33.015625 
L 88.921875 0 
L 79.890625 0 
L 79.890625 32.71875 
Q 79.890625 40.578125 77.09375 44.375 
Q 74.3125 48.1875 68.609375 48.1875 
Q 61.625 48.1875 57.5625 43.546875 
Q 53.515625 38.921875 53.515625 30.90625 
L 53.515625 0 
L 44.484375 0 
L 44.484375 32.71875 
Q 44.484375 40.625 41.703125 44.40625 
Q 38.921875 48.1875 33.109375 48.1875 
Q 26.21875 48.1875 22.15625 43.53125 
Q 18.109375 38.875 18.109375 30.90625 
L 18.109375 0 
L 9.078125 0 
L 9.078125 54.6875 
L 18.109375 54.6875 
L 18.109375 46.1875 
Q 21.1875 51.21875 25.484375 53.609375 
Q 29.78125 56 35.6875 56 
Q 41.65625 56 45.828125 52.96875 
Q 50 49.953125 52 44.1875 
z
" id="DejaVuSans-109"/>
     <path d="M 9.421875 75.984375 
L 18.40625 75.984375 
L 18.40625 0 
L 9.421875 0 
z
" id="DejaVuSans-108"/>
     <path d="M 45.40625 46.390625 
L 45.40625 75.984375 
L 54.390625 75.984375 
L 54.390625 0 
L 45.40625 0 
L 45.40625 8.203125 
Q 42.578125 3.328125 38.25 0.953125 
Q 33.9375 -1.421875 27.875 -1.421875 
Q 17.96875 -1.421875 11.734375 6.484375 
Q 5.515625 14.40625 5.515625 27.296875 
Q 5.515625 40.1875 11.734375 48.09375 
Q 17.96875 56 27.875 56 
Q 33.9375 56 38.25 53.625 
Q 42.578125 51.265625 45.40625 46.390625 
z
M 14.796875 27.296875 
Q 14.796875 17.390625 18.875 11.75 
Q 22.953125 6.109375 30.078125 6.109375 
Q 37.203125 6.109375 41.296875 11.75 
Q 45.40625 17.390625 45.40625 27.296875 
Q 45.40625 37.203125 41.296875 42.84375 
Q 37.203125 48.484375 30.078125 48.484375 
Q 22.953125 48.484375 18.875 42.84375 
Q 14.796875 37.203125 14.796875 27.296875 
z
" id="DejaVuSans-100"/>
     <path d="M 4.890625 31.390625 
L 31.203125 31.390625 
L 31.203125 23.390625 
L 4.890625 23.390625 
z
" id="DejaVuSans-45"/>
     <path d="M 19.671875 34.8125 
L 19.671875 8.109375 
L 35.5 8.109375 
Q 43.453125 8.109375 47.28125 11.40625 
Q 51.125 14.703125 51.125 21.484375 
Q 51.125 28.328125 47.28125 31.5625 
Q 43.453125 34.8125 35.5 34.8125 
z
M 19.671875 64.796875 
L 19.671875 42.828125 
L 34.28125 42.828125 
Q 41.5 42.828125 45.03125 45.53125 
Q 48.578125 48.25 48.578125 53.8125 
Q 48.578125 59.328125 45.03125 62.0625 
Q 41.5 64.796875 34.28125 64.796875 
z
M 9.8125 72.90625 
L 35.015625 72.90625 
Q 46.296875 72.90625 52.390625 68.21875 
Q 58.5 63.53125 58.5 54.890625 
Q 58.5 48.1875 55.375 44.234375 
Q 52.25 40.28125 46.1875 39.3125 
Q 53.46875 37.75 57.5 32.78125 
Q 61.53125 27.828125 61.53125 20.40625 
Q 61.53125 10.640625 54.890625 5.3125 
Q 48.25 0 35.984375 0 
L 9.8125 0 
z
" id="DejaVuSans-66"/>
     <path d="M 34.1875 63.1875 
L 20.796875 26.90625 
L 47.609375 26.90625 
z
M 28.609375 72.90625 
L 39.796875 72.90625 
L 67.578125 0 
L 57.328125 0 
L 50.6875 18.703125 
L 17.828125 18.703125 
L 11.1875 0 
L 0.78125 0 
z
" id="DejaVuSans-65"/>
    </defs>
    <g transform="translate(71.613625 12.118365)scale(0.12 -0.12)">
     <use xlink:href="#DejaVuSans-67"/>
     <use x="69.824219" xlink:href="#DejaVuSans-97"/>
     <use x="131.103516" xlink:href="#DejaVuSans-115"/>
     <use x="183.203125" xlink:href="#DejaVuSans-111"/>
     <use x="244.384766" xlink:href="#DejaVuSans-115"/>
     <use x="296.484375" xlink:href="#DejaVuSans-32"/>
     <use x="328.271484" xlink:href="#DejaVuSans-97"/>
     <use x="389.550781" xlink:href="#DejaVuSans-99"/>
     <use x="444.53125" xlink:href="#DejaVuSans-117"/>
     <use x="507.910156" xlink:href="#DejaVuSans-109"/>
     <use x="605.322266" xlink:href="#DejaVuSans-117"/>
     <use x="668.701172" xlink:href="#DejaVuSans-108"/>
     <use x="696.484375" xlink:href="#DejaVuSans-97"/>
     <use x="757.763672" xlink:href="#DejaVuSans-100"/>
     <use x="821.240234" xlink:href="#DejaVuSans-111"/>
     <use x="882.421875" xlink:href="#DejaVuSans-115"/>
     <use x="934.521484" xlink:href="#DejaVuSans-32"/>
     <use x="966.308594" xlink:href="#DejaVuSans-45"/>
     <use x="1002.392578" xlink:href="#DejaVuSans-32"/>
     <use x="1034.179688" xlink:href="#DejaVuSans-66"/>
     <use x="1102.783203" xlink:href="#DejaVuSans-65"/>
    </g>
   </g>
  </g>
  <g id="axes_2">
   <g id="patch_114">
    <path d="M 285.013615 137.71551 
L 457.79976 137.71551 
L 457.79976 18.118365 
L 285.013615 18.118365 
z
" style="fill:#ffffff;"/>
   </g>
   <g id="patch_115">
    <path clip-path="url(#p8aaef96464)" d="M 292.867531 137.71551 
L 294.044147 137.71551 
L 294.044147 137.676978 
L 292.867531 137.676978 
z
" style="fill:#1f77b4;"/>
   </g>
   <g id="patch_116">
    <path clip-path="url(#p8aaef96464)" d="M 294.338301 137.71551 
L 295.514918 137.71551 
L 295.514918 137.71551 
L 294.338301 137.71551 
z
" style="fill:#1f77b4;"/>
   </g>
   <g id="patch_117">
    <path clip-path="url(#p8aaef96464)" d="M 295.809072 137.71551 
L 296.985689 137.71551 
L 296.985689 137.71551 
L 295.809072 137.71551 
z
" style="fill:#1f77b4;"/>
   </g>
   <g id="patch_118">
    <path clip-path="url(#p8aaef96464)" d="M 297.279843 137.71551 
L 298.456459 137.71551 
L 298.456459 137.71551 
L 297.279843 137.71551 
z
" style="fill:#1f77b4;"/>
   </g>
   <g id="patch_119">
    <path clip-path="url(#p8aaef96464)" d="M 298.750614 137.71551 
L 299.92723 137.71551 
L 299.92723 137.71551 
L 298.750614 137.71551 
z
" style="fill:#1f77b4;"/>
   </g>
   <g id="patch_120">
    <path clip-path="url(#p8aaef96464)" d="M 300.221384 137.71551 
L 301.398001 137.71551 
L 301.398001 137.71551 
L 300.221384 137.71551 
z
" style="fill:#1f77b4;"/>
   </g>
   <g id="patch_121">
    <path clip-path="url(#p8aaef96464)" d="M 301.692155 137.71551 
L 302.868772 137.71551 
L 302.868772 137.71551 
L 301.692155 137.71551 
z
" style="fill:#1f77b4;"/>
   </g>
   <g id="patch_122">
    <path clip-path="url(#p8aaef96464)" d="M 303.162926 137.71551 
L 304.339542 137.71551 
L 304.339542 137.71551 
L 303.162926 137.71551 
z
" style="fill:#1f77b4;"/>
   </g>
   <g id="patch_123">
    <path clip-path="url(#p8aaef96464)" d="M 304.633696 137.71551 
L 305.810313 137.71551 
L 305.810313 137.71551 
L 304.633696 137.71551 
z
" style="fill:#1f77b4;"/>
   </g>
   <g id="patch_124">
    <path clip-path="url(#p8aaef96464)" d="M 306.104467 137.71551 
L 307.281084 137.71551 
L 307.281084 137.71551 
L 306.104467 137.71551 
z
" style="fill:#1f77b4;"/>
   </g>
   <g id="patch_125">
    <path clip-path="url(#p8aaef96464)" d="M 307.575238 137.71551 
L 308.751855 137.71551 
L 308.751855 137.676978 
L 307.575238 137.676978 
z
" style="fill:#1f77b4;"/>
   </g>
   <g id="patch_126">
    <path clip-path="url(#p8aaef96464)" d="M 309.046009 137.71551 
L 310.222625 137.71551 
L 310.222625 137.71551 
L 309.046009 137.71551 
z
" style="fill:#1f77b4;"/>
   </g>
   <g id="patch_127">
    <path clip-path="url(#p8aaef96464)" d="M 310.516779 137.71551 
L 311.693396 137.71551 
L 311.693396 136.675133 
L 310.516779 136.675133 
z
" style="fill:#1f77b4;"/>
   </g>
   <g id="patch_128">
    <path clip-path="url(#p8aaef96464)" d="M 311.98755 137.71551 
L 313.164167 137.71551 
L 313.164167 137.599913 
L 311.98755 137.599913 
z
" style="fill:#1f77b4;"/>
   </g>
   <g id="patch_129">
    <path clip-path="url(#p8aaef96464)" d="M 313.458321 137.71551 
L 314.634937 137.71551 
L 314.634937 137.40725 
L 313.458321 137.40725 
z
" style="fill:#1f77b4;"/>
   </g>
   <g id="patch_130">
    <path clip-path="url(#p8aaef96464)" d="M 314.929092 137.71551 
L 316.105708 137.71551 
L 316.105708 137.40725 
L 314.929092 137.40725 
z
" style="fill:#1f77b4;"/>
   </g>
   <g id="patch_131">
    <path clip-path="url(#p8aaef96464)" d="M 316.399862 137.71551 
L 317.576479 137.71551 
L 317.576479 137.176055 
L 316.399862 137.176055 
z
" style="fill:#1f77b4;"/>
   </g>
   <g id="patch_132">
    <path clip-path="url(#p8aaef96464)" d="M 317.870633 137.71551 
L 319.04725 137.71551 
L 319.04725 137.214588 
L 317.870633 137.214588 
z
" style="fill:#1f77b4;"/>
   </g>
   <g id="patch_133">
    <path clip-path="url(#p8aaef96464)" d="M 319.341404 137.71551 
L 320.51802 137.71551 
L 320.51802 137.40725 
L 319.341404 137.40725 
z
" style="fill:#1f77b4;"/>
   </g>
   <g id="patch_134">
    <path clip-path="url(#p8aaef96464)" d="M 320.812174 137.71551 
L 321.988791 137.71551 
L 321.988791 136.94486 
L 320.812174 136.94486 
z
" style="fill:#1f77b4;"/>
   </g>
   <g id="patch_135">
    <path clip-path="url(#p8aaef96464)" d="M 322.282945 137.71551 
L 323.459562 137.71551 
L 323.459562 137.291653 
L 322.282945 137.291653 
z
" style="fill:#1f77b4;"/>
   </g>
   <g id="patch_136">
    <path clip-path="url(#p8aaef96464)" d="M 323.753716 137.71551 
L 324.930333 137.71551 
L 324.930333 137.25312 
L 323.753716 137.25312 
z
" style="fill:#1f77b4;"/>
   </g>
   <g id="patch_137">
    <path clip-path="url(#p8aaef96464)" d="M 325.224487 137.71551 
L 326.401103 137.71551 
L 326.401103 136.675133 
L 325.224487 136.675133 
z
" style="fill:#1f77b4;"/>
   </g>
   <g id="patch_138">
    <path clip-path="url(#p8aaef96464)" d="M 326.695257 137.71551 
L 327.871874 137.71551 
L 327.871874 136.867795 
L 326.695257 136.867795 
z
" style="fill:#1f77b4;"/>
   </g>
   <g id="patch_139">
    <path clip-path="url(#p8aaef96464)" d="M 328.166028 137.71551 
L 329.342645 137.71551 
L 329.342645 136.289808 
L 328.166028 136.289808 
z
" style="fill:#1f77b4;"/>
   </g>
   <g id="patch_140">
    <path clip-path="url(#p8aaef96464)" d="M 329.636799 137.71551 
L 330.813415 137.71551 
L 330.813415 136.443938 
L 329.636799 136.443938 
z
" style="fill:#1f77b4;"/>
   </g>
   <g id="patch_141">
    <path clip-path="url(#p8aaef96464)" d="M 331.10757 137.71551 
L 332.284186 137.71551 
L 332.284186 136.906328 
L 331.10757 136.906328 
z
" style="fill:#1f77b4;"/>
   </g>
   <g id="patch_142">
    <path clip-path="url(#p8aaef96464)" d="M 332.57834 137.71551 
L 333.754957 137.71551 
L 333.754957 137.137523 
L 332.57834 137.137523 
z
" style="fill:#1f77b4;"/>
   </g>
   <g id="patch_143">
    <path clip-path="url(#p8aaef96464)" d="M 334.049111 137.71551 
L 335.225728 137.71551 
L 335.225728 135.788885 
L 334.049111 135.788885 
z
" style="fill:#1f77b4;"/>
   </g>
   <g id="patch_144">
    <path clip-path="url(#p8aaef96464)" d="M 335.519882 137.71551 
L 336.696498 137.71551 
L 336.696498 135.056768 
L 335.519882 135.056768 
z
" style="fill:#1f77b4;"/>
   </g>
   <g id="patch_145">
    <path clip-path="url(#p8aaef96464)" d="M 336.990652 137.71551 
L 338.167269 137.71551 
L 338.167269 136.559535 
L 336.990652 136.559535 
z
" style="fill:#1f77b4;"/>
   </g>
   <g id="patch_146">
    <path clip-path="url(#p8aaef96464)" d="M 338.461423 137.71551 
L 339.63804 137.71551 
L 339.63804 136.752198 
L 338.461423 136.752198 
z
" style="fill:#1f77b4;"/>
   </g>
   <g id="patch_147">
    <path clip-path="url(#p8aaef96464)" d="M 339.932194 137.71551 
L 341.108811 137.71551 
L 341.108811 136.135678 
L 339.932194 136.135678 
z
" style="fill:#1f77b4;"/>
   </g>
   <g id="patch_148">
    <path clip-path="url(#p8aaef96464)" d="M 341.402965 137.71551 
L 342.579581 137.71551 
L 342.579581 135.326496 
L 341.402965 135.326496 
z
" style="fill:#1f77b4;"/>
   </g>
   <g id="patch_149">
    <path clip-path="url(#p8aaef96464)" d="M 342.873735 137.71551 
L 344.050352 137.71551 
L 344.050352 135.981548 
L 342.873735 135.981548 
z
" style="fill:#1f77b4;"/>
   </g>
   <g id="patch_150">
    <path clip-path="url(#p8aaef96464)" d="M 344.344506 137.71551 
L 345.521123 137.71551 
L 345.521123 136.521003 
L 344.344506 136.521003 
z
" style="fill:#1f77b4;"/>
   </g>
   <g id="patch_151">
    <path clip-path="url(#p8aaef96464)" d="M 345.815277 137.71551 
L 346.991893 137.71551 
L 346.991893 136.251275 
L 345.815277 136.251275 
z
" style="fill:#1f77b4;"/>
   </g>
   <g id="patch_152">
    <path clip-path="url(#p8aaef96464)" d="M 347.286048 137.71551 
L 348.462664 137.71551 
L 348.462664 135.788885 
L 347.286048 135.788885 
z
" style="fill:#1f77b4;"/>
   </g>
   <g id="patch_153">
    <path clip-path="url(#p8aaef96464)" d="M 348.756818 137.71551 
L 349.933435 137.71551 
L 349.933435 136.32834 
L 348.756818 136.32834 
z
" style="fill:#1f77b4;"/>
   </g>
   <g id="patch_154">
    <path clip-path="url(#p8aaef96464)" d="M 350.227589 137.71551 
L 351.404206 137.71551 
L 351.404206 135.86595 
L 350.227589 135.86595 
z
" style="fill:#1f77b4;"/>
   </g>
   <g id="patch_155">
    <path clip-path="url(#p8aaef96464)" d="M 351.69836 137.71551 
L 352.874976 137.71551 
L 352.874976 132.166831 
L 351.69836 132.166831 
z
" style="fill:#1f77b4;"/>
   </g>
   <g id="patch_156">
    <path clip-path="url(#p8aaef96464)" d="M 353.16913 137.71551 
L 354.345747 137.71551 
L 354.345747 133.554001 
L 353.16913 133.554001 
z
" style="fill:#1f77b4;"/>
   </g>
   <g id="patch_157">
    <path clip-path="url(#p8aaef96464)" d="M 354.639901 137.71551 
L 355.816518 137.71551 
L 355.816518 132.552156 
L 354.639901 132.552156 
z
" style="fill:#1f77b4;"/>
   </g>
   <g id="patch_158">
    <path clip-path="url(#p8aaef96464)" d="M 356.110672 137.71551 
L 357.287289 137.71551 
L 357.287289 136.289808 
L 356.110672 136.289808 
z
" style="fill:#1f77b4;"/>
   </g>
   <g id="patch_159">
    <path clip-path="url(#p8aaef96464)" d="M 357.581443 137.71551 
L 358.758059 137.71551 
L 358.758059 133.438404 
L 357.581443 133.438404 
z
" style="fill:#1f77b4;"/>
   </g>
   <g id="patch_160">
    <path clip-path="url(#p8aaef96464)" d="M 359.052213 137.71551 
L 360.22883 137.71551 
L 360.22883 132.012701 
L 359.052213 132.012701 
z
" style="fill:#1f77b4;"/>
   </g>
   <g id="patch_161">
    <path clip-path="url(#p8aaef96464)" d="M 360.522984 137.71551 
L 361.699601 137.71551 
L 361.699601 131.742974 
L 360.522984 131.742974 
z
" style="fill:#1f77b4;"/>
   </g>
   <g id="patch_162">
    <path clip-path="url(#p8aaef96464)" d="M 361.993755 137.71551 
L 363.170371 137.71551 
L 363.170371 132.128299 
L 361.993755 132.128299 
z
" style="fill:#1f77b4;"/>
   </g>
   <g id="patch_163">
    <path clip-path="url(#p8aaef96464)" d="M 363.464526 137.71551 
L 364.641142 137.71551 
L 364.641142 131.049389 
L 363.464526 131.049389 
z
" style="fill:#1f77b4;"/>
   </g>
   <g id="patch_164">
    <path clip-path="url(#p8aaef96464)" d="M 364.935296 137.71551 
L 366.111913 137.71551 
L 366.111913 133.130144 
L 364.935296 133.130144 
z
" style="fill:#1f77b4;"/>
   </g>
   <g id="patch_165">
    <path clip-path="url(#p8aaef96464)" d="M 366.406067 137.71551 
L 367.582684 137.71551 
L 367.582684 132.783351 
L 366.406067 132.783351 
z
" style="fill:#1f77b4;"/>
   </g>
   <g id="patch_166">
    <path clip-path="url(#p8aaef96464)" d="M 367.876838 137.71551 
L 369.053454 137.71551 
L 369.053454 132.128299 
L 367.876838 132.128299 
z
" style="fill:#1f77b4;"/>
   </g>
   <g id="patch_167">
    <path clip-path="url(#p8aaef96464)" d="M 369.347608 137.71551 
L 370.524225 137.71551 
L 370.524225 130.548467 
L 369.347608 130.548467 
z
" style="fill:#1f77b4;"/>
   </g>
   <g id="patch_168">
    <path clip-path="url(#p8aaef96464)" d="M 370.818379 137.71551 
L 371.994996 137.71551 
L 371.994996 133.631066 
L 370.818379 133.631066 
z
" style="fill:#1f77b4;"/>
   </g>
   <g id="patch_169">
    <path clip-path="url(#p8aaef96464)" d="M 372.28915 137.71551 
L 373.465767 137.71551 
L 373.465767 129.816349 
L 372.28915 129.816349 
z
" style="fill:#1f77b4;"/>
   </g>
   <g id="patch_170">
    <path clip-path="url(#p8aaef96464)" d="M 373.759921 137.71551 
L 374.936537 137.71551 
L 374.936537 128.698907 
L 373.759921 128.698907 
z
" style="fill:#1f77b4;"/>
   </g>
   <g id="patch_171">
    <path clip-path="url(#p8aaef96464)" d="M 375.230691 137.71551 
L 376.407308 137.71551 
L 376.407308 130.702597 
L 375.230691 130.702597 
z
" style="fill:#1f77b4;"/>
   </g>
   <g id="patch_172">
    <path clip-path="url(#p8aaef96464)" d="M 376.701462 137.71551 
L 377.878079 137.71551 
L 377.878079 128.930102 
L 376.701462 128.930102 
z
" style="fill:#1f77b4;"/>
   </g>
   <g id="patch_173">
    <path clip-path="url(#p8aaef96464)" d="M 378.172233 137.71551 
L 379.348849 137.71551 
L 379.348849 128.506245 
L 378.172233 128.506245 
z
" style="fill:#1f77b4;"/>
   </g>
   <g id="patch_174">
    <path clip-path="url(#p8aaef96464)" d="M 379.643004 137.71551 
L 380.81962 137.71551 
L 380.81962 125.924568 
L 379.643004 125.924568 
z
" style="fill:#1f77b4;"/>
   </g>
   <g id="patch_175">
    <path clip-path="url(#p8aaef96464)" d="M 381.113774 137.71551 
L 382.290391 137.71551 
L 382.290391 127.65853 
L 381.113774 127.65853 
z
" style="fill:#1f77b4;"/>
   </g>
   <g id="patch_176">
    <path clip-path="url(#p8aaef96464)" d="M 382.584545 137.71551 
L 383.761162 137.71551 
L 383.761162 128.968635 
L 382.584545 128.968635 
z
" style="fill:#1f77b4;"/>
   </g>
   <g id="patch_177">
    <path clip-path="url(#p8aaef96464)" d="M 384.055316 137.71551 
L 385.231932 137.71551 
L 385.231932 126.541088 
L 384.055316 126.541088 
z
" style="fill:#1f77b4;"/>
   </g>
   <g id="patch_178">
    <path clip-path="url(#p8aaef96464)" d="M 385.526086 137.71551 
L 386.702703 137.71551 
L 386.702703 123.997943 
L 385.526086 123.997943 
z
" style="fill:#1f77b4;"/>
   </g>
   <g id="patch_179">
    <path clip-path="url(#p8aaef96464)" d="M 386.996857 137.71551 
L 388.173474 137.71551 
L 388.173474 122.919034 
L 386.996857 122.919034 
z
" style="fill:#1f77b4;"/>
   </g>
   <g id="patch_180">
    <path clip-path="url(#p8aaef96464)" d="M 388.467628 137.71551 
L 389.644245 137.71551 
L 389.644245 128.082387 
L 388.467628 128.082387 
z
" style="fill:#1f77b4;"/>
   </g>
   <g id="patch_181">
    <path clip-path="url(#p8aaef96464)" d="M 389.938399 137.71551 
L 391.115015 137.71551 
L 391.115015 122.456644 
L 389.938399 122.456644 
z
" style="fill:#1f77b4;"/>
   </g>
   <g id="patch_182">
    <path clip-path="url(#p8aaef96464)" d="M 391.409169 137.71551 
L 392.585786 137.71551 
L 392.585786 124.498866 
L 391.409169 124.498866 
z
" style="fill:#1f77b4;"/>
   </g>
   <g id="patch_183">
    <path clip-path="url(#p8aaef96464)" d="M 392.87994 137.71551 
L 394.056557 137.71551 
L 394.056557 121.994254 
L 392.87994 121.994254 
z
" style="fill:#1f77b4;"/>
   </g>
   <g id="patch_184">
    <path clip-path="url(#p8aaef96464)" d="M 394.350711 137.71551 
L 395.527327 137.71551 
L 395.527327 92.516898 
L 394.350711 92.516898 
z
" style="fill:#1f77b4;"/>
   </g>
   <g id="patch_185">
    <path clip-path="url(#p8aaef96464)" d="M 395.821482 137.71551 
L 396.998098 137.71551 
L 396.998098 130.548467 
L 395.821482 130.548467 
z
" style="fill:#1f77b4;"/>
   </g>
   <g id="patch_186">
    <path clip-path="url(#p8aaef96464)" d="M 397.292252 137.71551 
L 398.468869 137.71551 
L 398.468869 132.744819 
L 397.292252 132.744819 
z
" style="fill:#1f77b4;"/>
   </g>
   <g id="patch_187">
    <path clip-path="url(#p8aaef96464)" d="M 398.763023 137.71551 
L 399.93964 137.71551 
L 399.93964 132.398026 
L 398.763023 132.398026 
z
" style="fill:#1f77b4;"/>
   </g>
   <g id="patch_188">
    <path clip-path="url(#p8aaef96464)" d="M 400.233794 137.71551 
L 401.41041 137.71551 
L 401.41041 44.004492 
L 400.233794 44.004492 
z
" style="fill:#1f77b4;"/>
   </g>
   <g id="patch_189">
    <path clip-path="url(#p8aaef96464)" d="M 401.704564 137.71551 
L 402.881181 137.71551 
L 402.881181 130.625532 
L 401.704564 130.625532 
z
" style="fill:#1f77b4;"/>
   </g>
   <g id="patch_190">
    <path clip-path="url(#p8aaef96464)" d="M 403.175335 137.71551 
L 404.351952 137.71551 
L 404.351952 109.047337 
L 403.175335 109.047337 
z
" style="fill:#1f77b4;"/>
   </g>
   <g id="patch_191">
    <path clip-path="url(#p8aaef96464)" d="M 404.646106 137.71551 
L 405.822723 137.71551 
L 405.822723 113.979496 
L 404.646106 113.979496 
z
" style="fill:#1f77b4;"/>
   </g>
   <g id="patch_192">
    <path clip-path="url(#p8aaef96464)" d="M 406.116877 137.71551 
L 407.293493 137.71551 
L 407.293493 120.645617 
L 406.116877 120.645617 
z
" style="fill:#1f77b4;"/>
   </g>
   <g id="patch_193">
    <path clip-path="url(#p8aaef96464)" d="M 407.587647 137.71551 
L 408.764264 137.71551 
L 408.764264 103.074801 
L 407.587647 103.074801 
z
" style="fill:#1f77b4;"/>
   </g>
   <g id="patch_194">
    <path clip-path="url(#p8aaef96464)" d="M 409.058418 137.71551 
L 410.235035 137.71551 
L 410.235035 125.9631 
L 409.058418 125.9631 
z
" style="fill:#1f77b4;"/>
   </g>
   <g id="patch_195">
    <path clip-path="url(#p8aaef96464)" d="M 410.529189 137.71551 
L 411.705805 137.71551 
L 411.705805 123.766748 
L 410.529189 123.766748 
z
" style="fill:#1f77b4;"/>
   </g>
   <g id="patch_196">
    <path clip-path="url(#p8aaef96464)" d="M 411.99996 137.71551 
L 413.176576 137.71551 
L 413.176576 118.295135 
L 411.99996 118.295135 
z
" style="fill:#1f77b4;"/>
   </g>
   <g id="patch_197">
    <path clip-path="url(#p8aaef96464)" d="M 413.47073 137.71551 
L 414.647347 137.71551 
L 414.647347 103.305996 
L 413.47073 103.305996 
z
" style="fill:#1f77b4;"/>
   </g>
   <g id="patch_198">
    <path clip-path="url(#p8aaef96464)" d="M 414.941501 137.71551 
L 416.118118 137.71551 
L 416.118118 100.955514 
L 414.941501 100.955514 
z
" style="fill:#1f77b4;"/>
   </g>
   <g id="patch_199">
    <path clip-path="url(#p8aaef96464)" d="M 416.412272 137.71551 
L 417.588888 137.71551 
L 417.588888 110.395974 
L 416.412272 110.395974 
z
" style="fill:#1f77b4;"/>
   </g>
   <g id="patch_200">
    <path clip-path="url(#p8aaef96464)" d="M 417.883042 137.71551 
L 419.059659 137.71551 
L 419.059659 108.199622 
L 417.883042 108.199622 
z
" style="fill:#1f77b4;"/>
   </g>
   <g id="patch_201">
    <path clip-path="url(#p8aaef96464)" d="M 419.353813 137.71551 
L 420.53043 137.71551 
L 420.53043 118.21807 
L 419.353813 118.21807 
z
" style="fill:#1f77b4;"/>
   </g>
   <g id="patch_202">
    <path clip-path="url(#p8aaef96464)" d="M 420.824584 137.71551 
L 422.001201 137.71551 
L 422.001201 40.151243 
L 420.824584 40.151243 
z
" style="fill:#1f77b4;"/>
   </g>
   <g id="patch_203">
    <path clip-path="url(#p8aaef96464)" d="M 422.295355 137.71551 
L 423.471971 137.71551 
L 423.471971 98.373837 
L 422.295355 98.373837 
z
" style="fill:#1f77b4;"/>
   </g>
   <g id="patch_204">
    <path clip-path="url(#p8aaef96464)" d="M 423.766125 137.71551 
L 424.942742 137.71551 
L 424.942742 98.720629 
L 423.766125 98.720629 
z
" style="fill:#1f77b4;"/>
   </g>
   <g id="patch_205">
    <path clip-path="url(#p8aaef96464)" d="M 425.236896 137.71551 
L 426.413513 137.71551 
L 426.413513 23.813467 
L 425.236896 23.813467 
z
" style="fill:#1f77b4;"/>
   </g>
   <g id="patch_206">
    <path clip-path="url(#p8aaef96464)" d="M 426.707667 137.71551 
L 427.884283 137.71551 
L 427.884283 100.069266 
L 426.707667 100.069266 
z
" style="fill:#1f77b4;"/>
   </g>
   <g id="patch_207">
    <path clip-path="url(#p8aaef96464)" d="M 428.178438 137.71551 
L 429.355054 137.71551 
L 429.355054 104.808763 
L 428.178438 104.808763 
z
" style="fill:#1f77b4;"/>
   </g>
   <g id="patch_208">
    <path clip-path="url(#p8aaef96464)" d="M 429.649208 137.71551 
L 430.825825 137.71551 
L 430.825825 119.797902 
L 429.649208 119.797902 
z
" style="fill:#1f77b4;"/>
   </g>
   <g id="patch_209">
    <path clip-path="url(#p8aaef96464)" d="M 431.119979 137.71551 
L 432.296596 137.71551 
L 432.296596 69.667131 
L 431.119979 69.667131 
z
" style="fill:#1f77b4;"/>
   </g>
   <g id="patch_210">
    <path clip-path="url(#p8aaef96464)" d="M 432.59075 137.71551 
L 433.767366 137.71551 
L 433.767366 52.7899 
L 432.59075 52.7899 
z
" style="fill:#1f77b4;"/>
   </g>
   <g id="patch_211">
    <path clip-path="url(#p8aaef96464)" d="M 434.06152 137.71551 
L 435.238137 137.71551 
L 435.238137 91.245326 
L 434.06152 91.245326 
z
" style="fill:#1f77b4;"/>
   </g>
   <g id="patch_212">
    <path clip-path="url(#p8aaef96464)" d="M 435.532291 137.71551 
L 436.708908 137.71551 
L 436.708908 107.891362 
L 435.532291 107.891362 
z
" style="fill:#1f77b4;"/>
   </g>
   <g id="patch_213">
    <path clip-path="url(#p8aaef96464)" d="M 437.003062 137.71551 
L 438.179679 137.71551 
L 438.179679 94.443523 
L 437.003062 94.443523 
z
" style="fill:#1f77b4;"/>
   </g>
   <g id="patch_214">
    <path clip-path="url(#p8aaef96464)" d="M 438.473833 137.71551 
L 439.650449 137.71551 
L 439.650449 114.095093 
L 438.473833 114.095093 
z
" style="fill:#1f77b4;"/>
   </g>
   <g id="patch_215">
    <path clip-path="url(#p8aaef96464)" d="M 439.944603 137.71551 
L 441.12122 137.71551 
L 441.12122 90.744404 
L 439.944603 90.744404 
z
" style="fill:#1f77b4;"/>
   </g>
   <g id="patch_216">
    <path clip-path="url(#p8aaef96464)" d="M 441.415374 137.71551 
L 442.591991 137.71551 
L 442.591991 76.60298 
L 441.415374 76.60298 
z
" style="fill:#1f77b4;"/>
   </g>
   <g id="patch_217">
    <path clip-path="url(#p8aaef96464)" d="M 442.886145 137.71551 
L 444.062761 137.71551 
L 444.062761 71.439626 
L 442.886145 71.439626 
z
" style="fill:#1f77b4;"/>
   </g>
   <g id="patch_218">
    <path clip-path="url(#p8aaef96464)" d="M 444.356916 137.71551 
L 445.533532 137.71551 
L 445.533532 112.630858 
L 444.356916 112.630858 
z
" style="fill:#1f77b4;"/>
   </g>
   <g id="patch_219">
    <path clip-path="url(#p8aaef96464)" d="M 445.827686 137.71551 
L 447.004303 137.71551 
L 447.004303 47.356819 
L 445.827686 47.356819 
z
" style="fill:#1f77b4;"/>
   </g>
   <g id="patch_220">
    <path clip-path="url(#p8aaef96464)" d="M 447.298457 137.71551 
L 448.475074 137.71551 
L 448.475074 84.463608 
L 447.298457 84.463608 
z
" style="fill:#1f77b4;"/>
   </g>
   <g id="patch_221">
    <path clip-path="url(#p8aaef96464)" d="M 448.769228 137.71551 
L 449.945844 137.71551 
L 449.945844 100.146331 
L 448.769228 100.146331 
z
" style="fill:#1f77b4;"/>
   </g>
   <g id="matplotlib.axis_3">
    <g id="xtick_6">
     <g id="line2d_12">
      <g>
       <use style="stroke:#000000;stroke-width:0.8;" x="293.455839" xlink:href="#m7a276204c1" y="137.71551"/>
      </g>
     </g>
     <g id="text_14">
      <!-- 0 -->
      <g transform="translate(290.274589 152.313947)scale(0.1 -0.1)">
       <use xlink:href="#DejaVuSans-48"/>
      </g>
     </g>
    </g>
    <g id="xtick_7">
     <g id="line2d_13">
      <g>
       <use style="stroke:#000000;stroke-width:0.8;" x="330.225107" xlink:href="#m7a276204c1" y="137.71551"/>
      </g>
     </g>
     <g id="text_15">
      <!-- 25 -->
      <g transform="translate(323.862607 152.313947)scale(0.1 -0.1)">
       <use xlink:href="#DejaVuSans-50"/>
       <use x="63.623047" xlink:href="#DejaVuSans-53"/>
      </g>
     </g>
    </g>
    <g id="xtick_8">
     <g id="line2d_14">
      <g>
       <use style="stroke:#000000;stroke-width:0.8;" x="366.994375" xlink:href="#m7a276204c1" y="137.71551"/>
      </g>
     </g>
     <g id="text_16">
      <!-- 50 -->
      <g transform="translate(360.631875 152.313947)scale(0.1 -0.1)">
       <use xlink:href="#DejaVuSans-53"/>
       <use x="63.623047" xlink:href="#DejaVuSans-48"/>
      </g>
     </g>
    </g>
    <g id="xtick_9">
     <g id="line2d_15">
      <g>
       <use style="stroke:#000000;stroke-width:0.8;" x="403.763643" xlink:href="#m7a276204c1" y="137.71551"/>
      </g>
     </g>
     <g id="text_17">
      <!-- 75 -->
      <g transform="translate(397.401143 152.313947)scale(0.1 -0.1)">
       <use xlink:href="#DejaVuSans-55"/>
       <use x="63.623047" xlink:href="#DejaVuSans-53"/>
      </g>
     </g>
    </g>
    <g id="xtick_10">
     <g id="line2d_16">
      <g>
       <use style="stroke:#000000;stroke-width:0.8;" x="440.532912" xlink:href="#m7a276204c1" y="137.71551"/>
      </g>
     </g>
     <g id="text_18">
      <!-- 100 -->
      <g transform="translate(430.989162 152.313947)scale(0.1 -0.1)">
       <use xlink:href="#DejaVuSans-49"/>
       <use x="63.623047" xlink:href="#DejaVuSans-48"/>
       <use x="127.246094" xlink:href="#DejaVuSans-48"/>
      </g>
     </g>
    </g>
    <g id="text_19">
     <!-- Dias -->
     <g transform="translate(360.498875 165.992072)scale(0.1 -0.1)">
      <use xlink:href="#DejaVuSans-68"/>
      <use x="77.001953" xlink:href="#DejaVuSans-105"/>
      <use x="104.785156" xlink:href="#DejaVuSans-97"/>
      <use x="166.064453" xlink:href="#DejaVuSans-115"/>
     </g>
    </g>
   </g>
   <g id="matplotlib.axis_4">
    <g id="ytick_6">
     <g id="line2d_17">
      <g>
       <use style="stroke:#000000;stroke-width:0.8;" x="285.013615" xlink:href="#m4669ff491d" y="137.71551"/>
      </g>
     </g>
     <g id="text_20">
      <!-- 0 -->
      <g transform="translate(271.651115 141.514729)scale(0.1 -0.1)">
       <use xlink:href="#DejaVuSans-48"/>
      </g>
     </g>
    </g>
    <g id="ytick_7">
     <g id="line2d_18">
      <g>
       <use style="stroke:#000000;stroke-width:0.8;" x="285.013615" xlink:href="#m4669ff491d" y="99.183019"/>
      </g>
     </g>
     <g id="text_21">
      <!-- 1000 -->
      <g transform="translate(252.563615 102.982238)scale(0.1 -0.1)">
       <use xlink:href="#DejaVuSans-49"/>
       <use x="63.623047" xlink:href="#DejaVuSans-48"/>
       <use x="127.246094" xlink:href="#DejaVuSans-48"/>
       <use x="190.869141" xlink:href="#DejaVuSans-48"/>
      </g>
     </g>
    </g>
    <g id="ytick_8">
     <g id="line2d_19">
      <g>
       <use style="stroke:#000000;stroke-width:0.8;" x="285.013615" xlink:href="#m4669ff491d" y="60.650528"/>
      </g>
     </g>
     <g id="text_22">
      <!-- 2000 -->
      <g transform="translate(252.563615 64.449747)scale(0.1 -0.1)">
       <use xlink:href="#DejaVuSans-50"/>
       <use x="63.623047" xlink:href="#DejaVuSans-48"/>
       <use x="127.246094" xlink:href="#DejaVuSans-48"/>
       <use x="190.869141" xlink:href="#DejaVuSans-48"/>
      </g>
     </g>
    </g>
    <g id="ytick_9">
     <g id="line2d_20">
      <g>
       <use style="stroke:#000000;stroke-width:0.8;" x="285.013615" xlink:href="#m4669ff491d" y="22.118038"/>
      </g>
     </g>
     <g id="text_23">
      <!-- 3000 -->
      <g transform="translate(252.563615 25.917256)scale(0.1 -0.1)">
       <use xlink:href="#DejaVuSans-51"/>
       <use x="63.623047" xlink:href="#DejaVuSans-48"/>
       <use x="127.246094" xlink:href="#DejaVuSans-48"/>
       <use x="190.869141" xlink:href="#DejaVuSans-48"/>
      </g>
     </g>
    </g>
    <g id="text_24">
     <!-- Novos casos -->
     <defs>
      <path d="M 9.8125 72.90625 
L 23.09375 72.90625 
L 55.421875 11.921875 
L 55.421875 72.90625 
L 64.984375 72.90625 
L 64.984375 0 
L 51.703125 0 
L 19.390625 60.984375 
L 19.390625 0 
L 9.8125 0 
z
" id="DejaVuSans-78"/>
      <path d="M 2.984375 54.6875 
L 12.5 54.6875 
L 29.59375 8.796875 
L 46.6875 54.6875 
L 56.203125 54.6875 
L 35.6875 0 
L 23.484375 0 
z
" id="DejaVuSans-118"/>
     </defs>
     <g transform="translate(246.483928 109.011469)rotate(-90)scale(0.1 -0.1)">
      <use xlink:href="#DejaVuSans-78"/>
      <use x="74.804688" xlink:href="#DejaVuSans-111"/>
      <use x="135.986328" xlink:href="#DejaVuSans-118"/>
      <use x="195.166016" xlink:href="#DejaVuSans-111"/>
      <use x="256.347656" xlink:href="#DejaVuSans-115"/>
      <use x="308.447266" xlink:href="#DejaVuSans-32"/>
      <use x="340.234375" xlink:href="#DejaVuSans-99"/>
      <use x="395.214844" xlink:href="#DejaVuSans-97"/>
      <use x="456.494141" xlink:href="#DejaVuSans-115"/>
      <use x="508.59375" xlink:href="#DejaVuSans-111"/>
      <use x="569.775391" xlink:href="#DejaVuSans-115"/>
     </g>
    </g>
   </g>
   <g id="line2d_21">
    <path clip-path="url(#p8aaef96464)" d="M 293.455839 137.711434 
L 294.92661 137.709379 
L 296.39738 137.705865 
L 297.868151 137.700697 
L 299.338922 137.692416 
L 300.809693 137.679834 
L 302.280463 137.661635 
L 303.751234 137.637787 
L 305.222005 137.608418 
L 306.692776 137.574026 
L 308.163546 137.535189 
L 309.634317 137.493061 
L 311.105088 137.448944 
L 312.575858 137.404121 
L 314.046629 137.358222 
L 315.5174 137.311039 
L 316.988171 137.261546 
L 318.458941 137.208569 
L 319.929712 137.150522 
L 321.400483 137.086601 
L 322.871254 137.016693 
L 324.342024 136.940848 
L 325.812795 136.858487 
L 327.283566 136.771103 
L 328.754336 136.681921 
L 330.225107 136.594072 
L 331.695878 136.508966 
L 333.166649 136.427215 
L 334.637419 136.349926 
L 336.10819 136.278574 
L 337.578961 136.210303 
L 339.049732 136.139064 
L 340.520502 136.058533 
L 341.991273 135.962081 
L 343.462044 135.841717 
L 344.932814 135.691423 
L 346.403585 135.50579 
L 347.874356 135.286134 
L 349.345127 135.034429 
L 350.815897 134.754205 
L 352.286668 134.453055 
L 353.757439 134.144298 
L 355.22821 133.837049 
L 356.69898 133.540023 
L 358.169751 133.254937 
L 359.640522 132.985835 
L 361.111292 132.734275 
L 362.582063 132.4965 
L 364.052834 132.25887 
L 365.523605 132.011546 
L 366.994375 131.744611 
L 368.465146 131.450763 
L 369.935917 131.120612 
L 371.406687 130.748463 
L 372.877458 130.332919 
L 374.348229 129.882806 
L 375.819 129.402233 
L 377.28977 128.88194 
L 378.760541 128.320499 
L 380.231312 127.72473 
L 381.702083 127.099801 
L 383.172853 126.41737 
L 384.643624 125.647346 
L 386.114395 124.762864 
L 387.585165 123.786793 
L 389.055936 122.722327 
L 390.526707 121.542119 
L 391.997478 120.211729 
L 393.468248 118.825554 
L 394.939019 117.463741 
L 396.40979 116.211861 
L 397.880561 115.081628 
L 399.351331 114.10384 
L 400.822102 113.363281 
L 402.292873 112.955119 
L 403.763643 112.743455 
L 405.234414 112.608471 
L 406.705185 112.42234 
L 408.175956 112.082368 
L 409.646726 111.479265 
L 411.117497 110.45476 
L 412.588268 108.85108 
L 414.059039 106.759556 
L 415.529809 104.25947 
L 417.00058 101.430935 
L 418.471351 98.460258 
L 419.942121 95.535624 
L 421.412892 92.872084 
L 422.883663 90.663615 
L 424.354434 88.93251 
L 425.825204 87.746027 
L 427.295975 87.186335 
L 428.766746 87.114373 
L 430.237517 87.385321 
L 431.708287 87.830571 
L 433.179058 88.304949 
L 434.649829 88.729593 
L 436.120599 88.965634 
L 437.59137 88.824824 
L 439.062141 88.335008 
L 440.532912 87.545725 
L 442.003682 86.573217 
L 443.474453 85.474728 
L 444.945224 84.313442 
L 446.415995 83.522426 
L 447.886765 82.802313 
L 449.357536 82.186291 
" style="fill:none;stroke:#ff0000;stroke-linecap:square;stroke-width:1.5;"/>
   </g>
   <g id="patch_222">
    <path d="M 285.013615 137.71551 
L 285.013615 18.118365 
" style="fill:none;stroke:#000000;stroke-linecap:square;stroke-linejoin:miter;stroke-width:0.8;"/>
   </g>
   <g id="patch_223">
    <path d="M 457.79976 137.71551 
L 457.79976 18.118365 
" style="fill:none;stroke:#000000;stroke-linecap:square;stroke-linejoin:miter;stroke-width:0.8;"/>
   </g>
   <g id="patch_224">
    <path d="M 285.013615 137.71551 
L 457.79976 137.71551 
" style="fill:none;stroke:#000000;stroke-linecap:square;stroke-linejoin:miter;stroke-width:0.8;"/>
   </g>
   <g id="patch_225">
    <path d="M 285.013615 18.118365 
L 457.79976 18.118365 
" style="fill:none;stroke:#000000;stroke-linecap:square;stroke-linejoin:miter;stroke-width:0.8;"/>
   </g>
   <g id="text_25">
    <!-- Casos novos - BA -->
    <defs>
     <path d="M 54.890625 33.015625 
L 54.890625 0 
L 45.90625 0 
L 45.90625 32.71875 
Q 45.90625 40.484375 42.875 44.328125 
Q 39.84375 48.1875 33.796875 48.1875 
Q 26.515625 48.1875 22.3125 43.546875 
Q 18.109375 38.921875 18.109375 30.90625 
L 18.109375 0 
L 9.078125 0 
L 9.078125 54.6875 
L 18.109375 54.6875 
L 18.109375 46.1875 
Q 21.34375 51.125 25.703125 53.5625 
Q 30.078125 56 35.796875 56 
Q 45.21875 56 50.046875 50.171875 
Q 54.890625 44.34375 54.890625 33.015625 
z
" id="DejaVuSans-110"/>
    </defs>
    <g transform="translate(319.6895 12.118365)scale(0.12 -0.12)">
     <use xlink:href="#DejaVuSans-67"/>
     <use x="69.824219" xlink:href="#DejaVuSans-97"/>
     <use x="131.103516" xlink:href="#DejaVuSans-115"/>
     <use x="183.203125" xlink:href="#DejaVuSans-111"/>
     <use x="244.384766" xlink:href="#DejaVuSans-115"/>
     <use x="296.484375" xlink:href="#DejaVuSans-32"/>
     <use x="328.271484" xlink:href="#DejaVuSans-110"/>
     <use x="391.650391" xlink:href="#DejaVuSans-111"/>
     <use x="452.832031" xlink:href="#DejaVuSans-118"/>
     <use x="512.011719" xlink:href="#DejaVuSans-111"/>
     <use x="573.193359" xlink:href="#DejaVuSans-115"/>
     <use x="625.292969" xlink:href="#DejaVuSans-32"/>
     <use x="657.080078" xlink:href="#DejaVuSans-45"/>
     <use x="693.164062" xlink:href="#DejaVuSans-32"/>
     <use x="724.951172" xlink:href="#DejaVuSans-66"/>
     <use x="793.554688" xlink:href="#DejaVuSans-65"/>
    </g>
   </g>
  </g>
  <g id="axes_3">
   <g id="patch_226">
    <path d="M 55.490865 312.24351 
L 457.79976 312.24351 
L 457.79976 192.646365 
L 55.490865 192.646365 
z
" style="fill:#ffffff;"/>
   </g>
   <g id="matplotlib.axis_5">
    <g id="xtick_11">
     <g id="line2d_22">
      <g>
       <use style="stroke:#000000;stroke-width:0.8;" x="73.777633" xlink:href="#m7a276204c1" y="312.24351"/>
      </g>
     </g>
     <g id="text_26">
      <!-- 0 -->
      <g transform="translate(70.596383 326.841947)scale(0.1 -0.1)">
       <use xlink:href="#DejaVuSans-48"/>
      </g>
     </g>
    </g>
    <g id="xtick_12">
     <g id="line2d_23">
      <g>
       <use style="stroke:#000000;stroke-width:0.8;" x="142.784304" xlink:href="#m7a276204c1" y="312.24351"/>
      </g>
     </g>
     <g id="text_27">
      <!-- 20 -->
      <g transform="translate(136.421804 326.841947)scale(0.1 -0.1)">
       <use xlink:href="#DejaVuSans-50"/>
       <use x="63.623047" xlink:href="#DejaVuSans-48"/>
      </g>
     </g>
    </g>
    <g id="xtick_13">
     <g id="line2d_24">
      <g>
       <use style="stroke:#000000;stroke-width:0.8;" x="211.790976" xlink:href="#m7a276204c1" y="312.24351"/>
      </g>
     </g>
     <g id="text_28">
      <!-- 40 -->
      <g transform="translate(205.428476 326.841947)scale(0.1 -0.1)">
       <use xlink:href="#DejaVuSans-52"/>
       <use x="63.623047" xlink:href="#DejaVuSans-48"/>
      </g>
     </g>
    </g>
    <g id="xtick_14">
     <g id="line2d_25">
      <g>
       <use style="stroke:#000000;stroke-width:0.8;" x="280.797648" xlink:href="#m7a276204c1" y="312.24351"/>
      </g>
     </g>
     <g id="text_29">
      <!-- 60 -->
      <defs>
       <path d="M 33.015625 40.375 
Q 26.375 40.375 22.484375 35.828125 
Q 18.609375 31.296875 18.609375 23.390625 
Q 18.609375 15.53125 22.484375 10.953125 
Q 26.375 6.390625 33.015625 6.390625 
Q 39.65625 6.390625 43.53125 10.953125 
Q 47.40625 15.53125 47.40625 23.390625 
Q 47.40625 31.296875 43.53125 35.828125 
Q 39.65625 40.375 33.015625 40.375 
z
M 52.59375 71.296875 
L 52.59375 62.3125 
Q 48.875 64.0625 45.09375 64.984375 
Q 41.3125 65.921875 37.59375 65.921875 
Q 27.828125 65.921875 22.671875 59.328125 
Q 17.53125 52.734375 16.796875 39.40625 
Q 19.671875 43.65625 24.015625 45.921875 
Q 28.375 48.1875 33.59375 48.1875 
Q 44.578125 48.1875 50.953125 41.515625 
Q 57.328125 34.859375 57.328125 23.390625 
Q 57.328125 12.15625 50.6875 5.359375 
Q 44.046875 -1.421875 33.015625 -1.421875 
Q 20.359375 -1.421875 13.671875 8.265625 
Q 6.984375 17.96875 6.984375 36.375 
Q 6.984375 53.65625 15.1875 63.9375 
Q 23.390625 74.21875 37.203125 74.21875 
Q 40.921875 74.21875 44.703125 73.484375 
Q 48.484375 72.75 52.59375 71.296875 
z
" id="DejaVuSans-54"/>
      </defs>
      <g transform="translate(274.435148 326.841947)scale(0.1 -0.1)">
       <use xlink:href="#DejaVuSans-54"/>
       <use x="63.623047" xlink:href="#DejaVuSans-48"/>
      </g>
     </g>
    </g>
    <g id="xtick_15">
     <g id="line2d_26">
      <g>
       <use style="stroke:#000000;stroke-width:0.8;" x="349.804319" xlink:href="#m7a276204c1" y="312.24351"/>
      </g>
     </g>
     <g id="text_30">
      <!-- 80 -->
      <defs>
       <path d="M 31.78125 34.625 
Q 24.75 34.625 20.71875 30.859375 
Q 16.703125 27.09375 16.703125 20.515625 
Q 16.703125 13.921875 20.71875 10.15625 
Q 24.75 6.390625 31.78125 6.390625 
Q 38.8125 6.390625 42.859375 10.171875 
Q 46.921875 13.96875 46.921875 20.515625 
Q 46.921875 27.09375 42.890625 30.859375 
Q 38.875 34.625 31.78125 34.625 
z
M 21.921875 38.8125 
Q 15.578125 40.375 12.03125 44.71875 
Q 8.5 49.078125 8.5 55.328125 
Q 8.5 64.0625 14.71875 69.140625 
Q 20.953125 74.21875 31.78125 74.21875 
Q 42.671875 74.21875 48.875 69.140625 
Q 55.078125 64.0625 55.078125 55.328125 
Q 55.078125 49.078125 51.53125 44.71875 
Q 48 40.375 41.703125 38.8125 
Q 48.828125 37.15625 52.796875 32.3125 
Q 56.78125 27.484375 56.78125 20.515625 
Q 56.78125 9.90625 50.3125 4.234375 
Q 43.84375 -1.421875 31.78125 -1.421875 
Q 19.734375 -1.421875 13.25 4.234375 
Q 6.78125 9.90625 6.78125 20.515625 
Q 6.78125 27.484375 10.78125 32.3125 
Q 14.796875 37.15625 21.921875 38.8125 
z
M 18.3125 54.390625 
Q 18.3125 48.734375 21.84375 45.5625 
Q 25.390625 42.390625 31.78125 42.390625 
Q 38.140625 42.390625 41.71875 45.5625 
Q 45.3125 48.734375 45.3125 54.390625 
Q 45.3125 60.0625 41.71875 63.234375 
Q 38.140625 66.40625 31.78125 66.40625 
Q 25.390625 66.40625 21.84375 63.234375 
Q 18.3125 60.0625 18.3125 54.390625 
z
" id="DejaVuSans-56"/>
      </defs>
      <g transform="translate(343.441819 326.841947)scale(0.1 -0.1)">
       <use xlink:href="#DejaVuSans-56"/>
       <use x="63.623047" xlink:href="#DejaVuSans-48"/>
      </g>
     </g>
    </g>
    <g id="xtick_16">
     <g id="line2d_27">
      <g>
       <use style="stroke:#000000;stroke-width:0.8;" x="418.810991" xlink:href="#m7a276204c1" y="312.24351"/>
      </g>
     </g>
     <g id="text_31">
      <!-- 100 -->
      <g transform="translate(409.267241 326.841947)scale(0.1 -0.1)">
       <use xlink:href="#DejaVuSans-49"/>
       <use x="63.623047" xlink:href="#DejaVuSans-48"/>
       <use x="127.246094" xlink:href="#DejaVuSans-48"/>
      </g>
     </g>
    </g>
    <g id="text_32">
     <!-- Dias -->
     <g transform="translate(245.7375 340.520072)scale(0.1 -0.1)">
      <use xlink:href="#DejaVuSans-68"/>
      <use x="77.001953" xlink:href="#DejaVuSans-105"/>
      <use x="104.785156" xlink:href="#DejaVuSans-97"/>
      <use x="166.064453" xlink:href="#DejaVuSans-115"/>
     </g>
    </g>
   </g>
   <g id="matplotlib.axis_6">
    <g id="ytick_10">
     <g id="line2d_28">
      <g>
       <use style="stroke:#000000;stroke-width:0.8;" x="55.490865" xlink:href="#m4669ff491d" y="305.64668"/>
      </g>
     </g>
     <g id="text_33">
      <!-- 1 -->
      <g transform="translate(42.128365 309.445899)scale(0.1 -0.1)">
       <use xlink:href="#DejaVuSans-49"/>
      </g>
     </g>
    </g>
    <g id="ytick_11">
     <g id="line2d_29">
      <g>
       <use style="stroke:#000000;stroke-width:0.8;" x="55.490865" xlink:href="#m4669ff491d" y="264.320669"/>
      </g>
     </g>
     <g id="text_34">
      <!-- 2 -->
      <g transform="translate(42.128365 268.119887)scale(0.1 -0.1)">
       <use xlink:href="#DejaVuSans-50"/>
      </g>
     </g>
    </g>
    <g id="ytick_12">
     <g id="line2d_30">
      <g>
       <use style="stroke:#000000;stroke-width:0.8;" x="55.490865" xlink:href="#m4669ff491d" y="222.994657"/>
      </g>
     </g>
     <g id="text_35">
      <!-- 3 -->
      <g transform="translate(42.128365 226.793876)scale(0.1 -0.1)">
       <use xlink:href="#DejaVuSans-51"/>
      </g>
     </g>
    </g>
    <g id="text_36">
     <!-- r0 -->
     <defs>
      <path d="M 41.109375 46.296875 
Q 39.59375 47.171875 37.8125 47.578125 
Q 36.03125 48 33.890625 48 
Q 26.265625 48 22.1875 43.046875 
Q 18.109375 38.09375 18.109375 28.8125 
L 18.109375 0 
L 9.078125 0 
L 9.078125 54.6875 
L 18.109375 54.6875 
L 18.109375 46.1875 
Q 20.953125 51.171875 25.484375 53.578125 
Q 30.03125 56 36.53125 56 
Q 37.453125 56 38.578125 55.875 
Q 39.703125 55.765625 41.0625 55.515625 
z
" id="DejaVuSans-114"/>
     </defs>
     <g transform="translate(36.048678 257.681656)rotate(-90)scale(0.1 -0.1)">
      <use xlink:href="#DejaVuSans-114"/>
      <use x="41.113281" xlink:href="#DejaVuSans-48"/>
     </g>
    </g>
   </g>
   <g id="line2d_31">
    <path clip-path="url(#p014323fd5e)" d="M 73.777633 217.323091 
L 77.227967 206.735877 
L 80.6783 198.082599 
L 84.128634 202.666736 
L 87.578967 199.797216 
L 91.029301 201.540054 
L 94.479634 205.930297 
L 97.929968 215.070599 
L 101.380302 224.691414 
L 104.830635 233.888153 
L 108.280969 242.06435 
L 111.731302 249.737913 
L 115.181636 256.785322 
L 118.631969 263.147447 
L 122.082303 267.716698 
L 125.532637 271.202214 
L 128.98297 273.452473 
L 132.433304 274.786322 
L 135.883637 275.304288 
L 139.333971 275.627867 
L 142.784304 276.098498 
L 146.234638 276.724735 
L 149.684972 277.255461 
L 153.135305 278.30775 
L 156.585639 280.148847 
L 160.035972 282.492705 
L 163.486306 284.793303 
L 166.93664 286.881223 
L 170.386973 288.904021 
L 173.837307 290.951834 
L 177.28764 292.218908 
L 180.737974 292.265046 
L 184.188307 291.253964 
L 187.638641 289.357749 
L 191.088975 286.62701 
L 194.539308 283.661993 
L 197.989642 280.773409 
L 201.439975 278.872242 
L 204.890309 277.839963 
L 208.340642 277.610309 
L 211.790976 278.28652 
L 215.24131 280.006216 
L 218.691643 282.136274 
L 222.141977 284.516774 
L 225.59231 286.643196 
L 229.042644 288.708767 
L 232.492977 290.591024 
L 235.943311 292.043779 
L 239.393645 292.62872 
L 242.843978 292.673986 
L 246.294312 292.26406 
L 249.744645 291.60054 
L 253.194979 290.652178 
L 256.645312 289.643733 
L 260.095646 288.776784 
L 263.54598 288.410271 
L 266.996313 288.290684 
L 270.446647 287.947329 
L 273.89698 287.67117 
L 277.347314 287.686797 
L 280.797648 287.890058 
L 284.247981 287.408984 
L 287.698315 286.369097 
L 291.148648 285.005512 
L 294.598982 284.438327 
L 298.049315 284.126755 
L 301.499649 283.497006 
L 304.949983 282.546748 
L 308.400316 283.280857 
L 311.85065 285.063555 
L 315.300983 287.712237 
L 318.751317 290.141793 
L 322.20165 292.648105 
L 325.651984 295.902058 
L 329.102318 300.040887 
L 332.552651 302.411228 
L 336.002985 303.311115 
L 339.453318 302.684151 
L 342.903652 300.875081 
L 346.353985 297.910081 
L 349.804319 293.467289 
L 353.254653 287.986871 
L 356.704986 284.28838 
L 360.15532 282.035451 
L 363.605653 280.959082 
L 367.055987 281.542222 
L 370.506321 283.356609 
L 373.956654 286.272344 
L 377.406988 289.967924 
L 380.857321 293.370517 
L 384.307655 296.877084 
L 387.757988 300.683527 
L 391.208322 303.580831 
L 394.658656 305.61399 
L 398.108989 306.650473 
L 401.559323 306.807276 
L 405.009656 306.468846 
L 408.45999 305.234353 
L 411.910323 302.788712 
L 415.360657 300.543885 
L 418.810991 298.668787 
L 422.261324 297.570484 
L 425.711658 296.861554 
L 429.161991 296.550991 
L 432.612325 298.69896 
L 436.062658 299.081209 
L 439.512992 299.633268 
" style="fill:none;stroke:#ff0000;stroke-linecap:square;stroke-width:1.5;"/>
   </g>
   <g id="patch_227">
    <path d="M 55.490865 312.24351 
L 55.490865 192.646365 
" style="fill:none;stroke:#000000;stroke-linecap:square;stroke-linejoin:miter;stroke-width:0.8;"/>
   </g>
   <g id="patch_228">
    <path d="M 457.79976 312.24351 
L 457.79976 192.646365 
" style="fill:none;stroke:#000000;stroke-linecap:square;stroke-linejoin:miter;stroke-width:0.8;"/>
   </g>
   <g id="patch_229">
    <path d="M 55.490865 312.24351 
L 457.79976 312.24351 
" style="fill:none;stroke:#000000;stroke-linecap:square;stroke-linejoin:miter;stroke-width:0.8;"/>
   </g>
   <g id="patch_230">
    <path d="M 55.490865 192.646365 
L 457.79976 192.646365 
" style="fill:none;stroke:#000000;stroke-linecap:square;stroke-linejoin:miter;stroke-width:0.8;"/>
   </g>
   <g id="text_37">
    <!-- r0 aproximado - BA -->
    <defs>
     <path d="M 18.109375 8.203125 
L 18.109375 -20.796875 
L 9.078125 -20.796875 
L 9.078125 54.6875 
L 18.109375 54.6875 
L 18.109375 46.390625 
Q 20.953125 51.265625 25.265625 53.625 
Q 29.59375 56 35.59375 56 
Q 45.5625 56 51.78125 48.09375 
Q 58.015625 40.1875 58.015625 27.296875 
Q 58.015625 14.40625 51.78125 6.484375 
Q 45.5625 -1.421875 35.59375 -1.421875 
Q 29.59375 -1.421875 25.265625 0.953125 
Q 20.953125 3.328125 18.109375 8.203125 
z
M 48.6875 27.296875 
Q 48.6875 37.203125 44.609375 42.84375 
Q 40.53125 48.484375 33.40625 48.484375 
Q 26.265625 48.484375 22.1875 42.84375 
Q 18.109375 37.203125 18.109375 27.296875 
Q 18.109375 17.390625 22.1875 11.75 
Q 26.265625 6.109375 33.40625 6.109375 
Q 40.53125 6.109375 44.609375 11.75 
Q 48.6875 17.390625 48.6875 27.296875 
z
" id="DejaVuSans-112"/>
     <path d="M 54.890625 54.6875 
L 35.109375 28.078125 
L 55.90625 0 
L 45.3125 0 
L 29.390625 21.484375 
L 13.484375 0 
L 2.875 0 
L 24.125 28.609375 
L 4.6875 54.6875 
L 15.28125 54.6875 
L 29.78125 35.203125 
L 44.28125 54.6875 
z
" id="DejaVuSans-120"/>
    </defs>
    <g transform="translate(198.734062 186.646365)scale(0.12 -0.12)">
     <use xlink:href="#DejaVuSans-114"/>
     <use x="41.113281" xlink:href="#DejaVuSans-48"/>
     <use x="104.736328" xlink:href="#DejaVuSans-32"/>
     <use x="136.523438" xlink:href="#DejaVuSans-97"/>
     <use x="197.802734" xlink:href="#DejaVuSans-112"/>
     <use x="261.279297" xlink:href="#DejaVuSans-114"/>
     <use x="300.142578" xlink:href="#DejaVuSans-111"/>
     <use x="358.199219" xlink:href="#DejaVuSans-120"/>
     <use x="417.378906" xlink:href="#DejaVuSans-105"/>
     <use x="445.162109" xlink:href="#DejaVuSans-109"/>
     <use x="542.574219" xlink:href="#DejaVuSans-97"/>
     <use x="603.853516" xlink:href="#DejaVuSans-100"/>
     <use x="667.330078" xlink:href="#DejaVuSans-111"/>
     <use x="728.511719" xlink:href="#DejaVuSans-32"/>
     <use x="760.298828" xlink:href="#DejaVuSans-45"/>
     <use x="796.382812" xlink:href="#DejaVuSans-32"/>
     <use x="828.169922" xlink:href="#DejaVuSans-66"/>
     <use x="896.773438" xlink:href="#DejaVuSans-65"/>
    </g>
   </g>
  </g>
 </g>
 <defs>
  <clipPath id="p96b6470ce4">
   <rect height="119.597145" width="172.786145" x="55.490865" y="18.118365"/>
  </clipPath>
  <clipPath id="p8aaef96464">
   <rect height="119.597145" width="172.786145" x="285.013615" y="18.118365"/>
  </clipPath>
  <clipPath id="p014323fd5e">
   <rect height="119.597145" width="402.308895" x="55.490865" y="192.646365"/>
  </clipPath>
 </defs>
</svg>
