<?xml version="1.0" encoding="utf-8" standalone="no"?>
<!DOCTYPE svg PUBLIC "-//W3C//DTD SVG 1.1//EN"
  "http://www.w3.org/Graphics/SVG/1.1/DTD/svg11.dtd">
<!-- Created with matplotlib (https://matplotlib.org/) -->
<svg height="345.6pt" version="1.1" viewBox="0 0 460.8 345.6" width="460.8pt" xmlns="http://www.w3.org/2000/svg" xmlns:xlink="http://www.w3.org/1999/xlink">
 <defs>
  <style type="text/css">
*{stroke-linecap:butt;stroke-linejoin:round;}
  </style>
 </defs>
 <g id="figure_1">
  <g id="patch_1">
   <path d="M 0 345.6 
L 460.8 345.6 
L 460.8 0 
L 0 0 
z
" style="fill:#ffffff;"/>
  </g>
  <g id="axes_1">
   <g id="patch_2">
    <path d="M 52.924875 325.921635 
L 134.11834 325.921635 
L 134.11834 18.118365 
L 52.924875 18.118365 
z
" style="fill:#ffffff;"/>
   </g>
   <g id="patch_3">
    <path clip-path="url(#p1aa3c02df5)" d="M 56.615487 325.921635 
L 57.125416 325.921635 
L 57.125416 325.921367 
L 56.615487 325.921367 
z
" style="fill:#1f77b4;"/>
   </g>
   <g id="patch_4">
    <path clip-path="url(#p1aa3c02df5)" d="M 57.252899 325.921635 
L 57.762828 325.921635 
L 57.762828 325.921367 
L 57.252899 325.921367 
z
" style="fill:#1f77b4;"/>
   </g>
   <g id="patch_5">
    <path clip-path="url(#p1aa3c02df5)" d="M 57.89031 325.921635 
L 58.400239 325.921635 
L 58.400239 325.9211 
L 57.89031 325.9211 
z
" style="fill:#1f77b4;"/>
   </g>
   <g id="patch_6">
    <path clip-path="url(#p1aa3c02df5)" d="M 58.527721 325.921635 
L 59.037651 325.921635 
L 59.037651 325.9211 
L 58.527721 325.9211 
z
" style="fill:#1f77b4;"/>
   </g>
   <g id="patch_7">
    <path clip-path="url(#p1aa3c02df5)" d="M 59.165133 325.921635 
L 59.675062 325.921635 
L 59.675062 325.9211 
L 59.165133 325.9211 
z
" style="fill:#1f77b4;"/>
   </g>
   <g id="patch_8">
    <path clip-path="url(#p1aa3c02df5)" d="M 59.802544 325.921635 
L 60.312473 325.921635 
L 60.312473 325.9211 
L 59.802544 325.9211 
z
" style="fill:#1f77b4;"/>
   </g>
   <g id="patch_9">
    <path clip-path="url(#p1aa3c02df5)" d="M 60.439956 325.921635 
L 60.949885 325.921635 
L 60.949885 325.920832 
L 60.439956 325.920832 
z
" style="fill:#1f77b4;"/>
   </g>
   <g id="patch_10">
    <path clip-path="url(#p1aa3c02df5)" d="M 61.077367 325.921635 
L 61.587296 325.921635 
L 61.587296 325.919762 
L 61.077367 325.919762 
z
" style="fill:#1f77b4;"/>
   </g>
   <g id="patch_11">
    <path clip-path="url(#p1aa3c02df5)" d="M 61.714778 325.921635 
L 62.224708 325.921635 
L 62.224708 325.918156 
L 61.714778 325.918156 
z
" style="fill:#1f77b4;"/>
   </g>
   <g id="patch_12">
    <path clip-path="url(#p1aa3c02df5)" d="M 62.35219 325.921635 
L 62.862119 325.921635 
L 62.862119 325.916551 
L 62.35219 325.916551 
z
" style="fill:#1f77b4;"/>
   </g>
   <g id="patch_13">
    <path clip-path="url(#p1aa3c02df5)" d="M 62.989601 325.921635 
L 63.49953 325.921635 
L 63.49953 325.914946 
L 62.989601 325.914946 
z
" style="fill:#1f77b4;"/>
   </g>
   <g id="patch_14">
    <path clip-path="url(#p1aa3c02df5)" d="M 63.627013 325.921635 
L 64.136942 325.921635 
L 64.136942 325.914946 
L 63.627013 325.914946 
z
" style="fill:#1f77b4;"/>
   </g>
   <g id="patch_15">
    <path clip-path="url(#p1aa3c02df5)" d="M 64.264424 325.921635 
L 64.774353 325.921635 
L 64.774353 325.912537 
L 64.264424 325.912537 
z
" style="fill:#1f77b4;"/>
   </g>
   <g id="patch_16">
    <path clip-path="url(#p1aa3c02df5)" d="M 64.901836 325.921635 
L 65.411765 325.921635 
L 65.411765 325.907721 
L 64.901836 325.907721 
z
" style="fill:#1f77b4;"/>
   </g>
   <g id="patch_17">
    <path clip-path="url(#p1aa3c02df5)" d="M 65.539247 325.921635 
L 66.049176 325.921635 
L 66.049176 325.901032 
L 65.539247 325.901032 
z
" style="fill:#1f77b4;"/>
   </g>
   <g id="patch_18">
    <path clip-path="url(#p1aa3c02df5)" d="M 66.176658 325.921635 
L 66.686587 325.921635 
L 66.686587 325.895412 
L 66.176658 325.895412 
z
" style="fill:#1f77b4;"/>
   </g>
   <g id="patch_19">
    <path clip-path="url(#p1aa3c02df5)" d="M 66.81407 325.921635 
L 67.323999 325.921635 
L 67.323999 325.889258 
L 66.81407 325.889258 
z
" style="fill:#1f77b4;"/>
   </g>
   <g id="patch_20">
    <path clip-path="url(#p1aa3c02df5)" d="M 67.451481 325.921635 
L 67.96141 325.921635 
L 67.96141 325.868119 
L 67.451481 325.868119 
z
" style="fill:#1f77b4;"/>
   </g>
   <g id="patch_21">
    <path clip-path="url(#p1aa3c02df5)" d="M 68.088893 325.921635 
L 68.598822 325.921635 
L 68.598822 325.859022 
L 68.088893 325.859022 
z
" style="fill:#1f77b4;"/>
   </g>
   <g id="patch_22">
    <path clip-path="url(#p1aa3c02df5)" d="M 68.726304 325.921635 
L 69.236233 325.921635 
L 69.236233 325.84377 
L 68.726304 325.84377 
z
" style="fill:#1f77b4;"/>
   </g>
   <g id="patch_23">
    <path clip-path="url(#p1aa3c02df5)" d="M 69.363715 325.921635 
L 69.873644 325.921635 
L 69.873644 325.807112 
L 69.363715 325.807112 
z
" style="fill:#1f77b4;"/>
   </g>
   <g id="patch_24">
    <path clip-path="url(#p1aa3c02df5)" d="M 70.001127 325.921635 
L 70.511056 325.921635 
L 70.511056 325.755469 
L 70.001127 325.755469 
z
" style="fill:#1f77b4;"/>
   </g>
   <g id="patch_25">
    <path clip-path="url(#p1aa3c02df5)" d="M 70.638538 325.921635 
L 71.148467 325.921635 
L 71.148467 325.679745 
L 70.638538 325.679745 
z
" style="fill:#1f77b4;"/>
   </g>
   <g id="patch_26">
    <path clip-path="url(#p1aa3c02df5)" d="M 71.27595 325.921635 
L 71.785879 325.921635 
L 71.785879 325.619807 
L 71.27595 325.619807 
z
" style="fill:#1f77b4;"/>
   </g>
   <g id="patch_27">
    <path clip-path="url(#p1aa3c02df5)" d="M 71.913361 325.921635 
L 72.42329 325.921635 
L 72.42329 325.50796 
L 71.913361 325.50796 
z
" style="fill:#1f77b4;"/>
   </g>
   <g id="patch_28">
    <path clip-path="url(#p1aa3c02df5)" d="M 72.550772 325.921635 
L 73.060701 325.921635 
L 73.060701 325.415645 
L 72.550772 325.415645 
z
" style="fill:#1f77b4;"/>
   </g>
   <g id="patch_29">
    <path clip-path="url(#p1aa3c02df5)" d="M 73.188184 325.921635 
L 73.698113 325.921635 
L 73.698113 325.332696 
L 73.188184 325.332696 
z
" style="fill:#1f77b4;"/>
   </g>
   <g id="patch_30">
    <path clip-path="url(#p1aa3c02df5)" d="M 73.825595 325.921635 
L 74.335524 325.921635 
L 74.335524 325.270618 
L 73.825595 325.270618 
z
" style="fill:#1f77b4;"/>
   </g>
   <g id="patch_31">
    <path clip-path="url(#p1aa3c02df5)" d="M 74.463007 325.921635 
L 74.972936 325.921635 
L 74.972936 325.141645 
L 74.463007 325.141645 
z
" style="fill:#1f77b4;"/>
   </g>
   <g id="patch_32">
    <path clip-path="url(#p1aa3c02df5)" d="M 75.100418 325.921635 
L 75.610347 325.921635 
L 75.610347 325.007321 
L 75.100418 325.007321 
z
" style="fill:#1f77b4;"/>
   </g>
   <g id="patch_33">
    <path clip-path="url(#p1aa3c02df5)" d="M 75.737829 325.921635 
L 76.247759 325.921635 
L 76.247759 324.877279 
L 75.737829 324.877279 
z
" style="fill:#1f77b4;"/>
   </g>
   <g id="patch_34">
    <path clip-path="url(#p1aa3c02df5)" d="M 76.375241 325.921635 
L 76.88517 325.921635 
L 76.88517 324.782824 
L 76.375241 324.782824 
z
" style="fill:#1f77b4;"/>
   </g>
   <g id="patch_35">
    <path clip-path="url(#p1aa3c02df5)" d="M 77.012652 325.921635 
L 77.522581 325.921635 
L 77.522581 324.696396 
L 77.012652 324.696396 
z
" style="fill:#1f77b4;"/>
   </g>
   <g id="patch_36">
    <path clip-path="url(#p1aa3c02df5)" d="M 77.650064 325.921635 
L 78.159993 325.921635 
L 78.159993 324.391892 
L 77.650064 324.391892 
z
" style="fill:#1f77b4;"/>
   </g>
   <g id="patch_37">
    <path clip-path="url(#p1aa3c02df5)" d="M 78.287475 325.921635 
L 78.797404 325.921635 
L 78.797404 324.093008 
L 78.287475 324.093008 
z
" style="fill:#1f77b4;"/>
   </g>
   <g id="patch_38">
    <path clip-path="url(#p1aa3c02df5)" d="M 78.924886 325.921635 
L 79.434816 325.921635 
L 79.434816 323.805094 
L 78.924886 323.805094 
z
" style="fill:#1f77b4;"/>
   </g>
   <g id="patch_39">
    <path clip-path="url(#p1aa3c02df5)" d="M 79.562298 325.921635 
L 80.072227 325.921635 
L 80.072227 323.49845 
L 79.562298 323.49845 
z
" style="fill:#1f77b4;"/>
   </g>
   <g id="patch_40">
    <path clip-path="url(#p1aa3c02df5)" d="M 80.199709 325.921635 
L 80.709638 325.921635 
L 80.709638 323.17147 
L 80.199709 323.17147 
z
" style="fill:#1f77b4;"/>
   </g>
   <g id="patch_41">
    <path clip-path="url(#p1aa3c02df5)" d="M 80.837121 325.921635 
L 81.34705 325.921635 
L 81.34705 322.943493 
L 80.837121 322.943493 
z
" style="fill:#1f77b4;"/>
   </g>
   <g id="patch_42">
    <path clip-path="url(#p1aa3c02df5)" d="M 81.474532 325.921635 
L 81.984461 325.921635 
L 81.984461 322.695716 
L 81.474532 322.695716 
z
" style="fill:#1f77b4;"/>
   </g>
   <g id="patch_43">
    <path clip-path="url(#p1aa3c02df5)" d="M 82.111943 325.921635 
L 82.621873 325.921635 
L 82.621873 322.251269 
L 82.111943 322.251269 
z
" style="fill:#1f77b4;"/>
   </g>
   <g id="patch_44">
    <path clip-path="url(#p1aa3c02df5)" d="M 82.749355 325.921635 
L 83.259284 325.921635 
L 83.259284 321.659922 
L 82.749355 321.659922 
z
" style="fill:#1f77b4;"/>
   </g>
   <g id="patch_45">
    <path clip-path="url(#p1aa3c02df5)" d="M 83.386766 325.921635 
L 83.896695 325.921635 
L 83.896695 321.143497 
L 83.386766 321.143497 
z
" style="fill:#1f77b4;"/>
   </g>
   <g id="patch_46">
    <path clip-path="url(#p1aa3c02df5)" d="M 84.024178 325.921635 
L 84.534107 325.921635 
L 84.534107 320.666941 
L 84.024178 320.666941 
z
" style="fill:#1f77b4;"/>
   </g>
   <g id="patch_47">
    <path clip-path="url(#p1aa3c02df5)" d="M 84.661589 325.921635 
L 85.171518 325.921635 
L 85.171518 320.375548 
L 84.661589 320.375548 
z
" style="fill:#1f77b4;"/>
   </g>
   <g id="patch_48">
    <path clip-path="url(#p1aa3c02df5)" d="M 85.299 325.921635 
L 85.80893 325.921635 
L 85.80893 319.989701 
L 85.299 319.989701 
z
" style="fill:#1f77b4;"/>
   </g>
   <g id="patch_49">
    <path clip-path="url(#p1aa3c02df5)" d="M 85.936412 325.921635 
L 86.446341 325.921635 
L 86.446341 319.652285 
L 85.936412 319.652285 
z
" style="fill:#1f77b4;"/>
   </g>
   <g id="patch_50">
    <path clip-path="url(#p1aa3c02df5)" d="M 86.573823 325.921635 
L 87.083752 325.921635 
L 87.083752 319.162083 
L 86.573823 319.162083 
z
" style="fill:#1f77b4;"/>
   </g>
   <g id="patch_51">
    <path clip-path="url(#p1aa3c02df5)" d="M 87.211235 325.921635 
L 87.721164 325.921635 
L 87.721164 318.343829 
L 87.211235 318.343829 
z
" style="fill:#1f77b4;"/>
   </g>
   <g id="patch_52">
    <path clip-path="url(#p1aa3c02df5)" d="M 87.848646 325.921635 
L 88.358575 325.921635 
L 88.358575 317.780578 
L 87.848646 317.780578 
z
" style="fill:#1f77b4;"/>
   </g>
   <g id="patch_53">
    <path clip-path="url(#p1aa3c02df5)" d="M 88.486057 325.921635 
L 88.995987 325.921635 
L 88.995987 316.909077 
L 88.486057 316.909077 
z
" style="fill:#1f77b4;"/>
   </g>
   <g id="patch_54">
    <path clip-path="url(#p1aa3c02df5)" d="M 89.123469 325.921635 
L 89.633398 325.921635 
L 89.633398 316.128552 
L 89.123469 316.128552 
z
" style="fill:#1f77b4;"/>
   </g>
   <g id="patch_55">
    <path clip-path="url(#p1aa3c02df5)" d="M 89.76088 325.921635 
L 90.270809 325.921635 
L 90.270809 315.57868 
L 89.76088 315.57868 
z
" style="fill:#1f77b4;"/>
   </g>
   <g id="patch_56">
    <path clip-path="url(#p1aa3c02df5)" d="M 90.398292 325.921635 
L 90.908221 325.921635 
L 90.908221 315.063057 
L 90.398292 315.063057 
z
" style="fill:#1f77b4;"/>
   </g>
   <g id="patch_57">
    <path clip-path="url(#p1aa3c02df5)" d="M 91.035703 325.921635 
L 91.545632 325.921635 
L 91.545632 314.394648 
L 91.035703 314.394648 
z
" style="fill:#1f77b4;"/>
   </g>
   <g id="patch_58">
    <path clip-path="url(#p1aa3c02df5)" d="M 91.673115 325.921635 
L 92.183044 325.921635 
L 92.183044 313.678074 
L 91.673115 313.678074 
z
" style="fill:#1f77b4;"/>
   </g>
   <g id="patch_59">
    <path clip-path="url(#p1aa3c02df5)" d="M 92.310526 325.921635 
L 92.820455 325.921635 
L 92.820455 312.678671 
L 92.310526 312.678671 
z
" style="fill:#1f77b4;"/>
   </g>
   <g id="patch_60">
    <path clip-path="url(#p1aa3c02df5)" d="M 92.947937 325.921635 
L 93.457866 325.921635 
L 93.457866 311.741345 
L 92.947937 311.741345 
z
" style="fill:#1f77b4;"/>
   </g>
   <g id="patch_61">
    <path clip-path="url(#p1aa3c02df5)" d="M 93.585349 325.921635 
L 94.095278 325.921635 
L 94.095278 310.265921 
L 93.585349 310.265921 
z
" style="fill:#1f77b4;"/>
   </g>
   <g id="patch_62">
    <path clip-path="url(#p1aa3c02df5)" d="M 94.22276 325.921635 
L 94.732689 325.921635 
L 94.732689 309.361775 
L 94.22276 309.361775 
z
" style="fill:#1f77b4;"/>
   </g>
   <g id="patch_63">
    <path clip-path="url(#p1aa3c02df5)" d="M 94.860172 325.921635 
L 95.370101 325.921635 
L 95.370101 308.127439 
L 94.860172 308.127439 
z
" style="fill:#1f77b4;"/>
   </g>
   <g id="patch_64">
    <path clip-path="url(#p1aa3c02df5)" d="M 95.497583 325.921635 
L 96.007512 325.921635 
L 96.007512 306.686532 
L 95.497583 306.686532 
z
" style="fill:#1f77b4;"/>
   </g>
   <g id="patch_65">
    <path clip-path="url(#p1aa3c02df5)" d="M 96.134994 325.921635 
L 96.644923 325.921635 
L 96.644923 305.007213 
L 96.134994 305.007213 
z
" style="fill:#1f77b4;"/>
   </g>
   <g id="patch_66">
    <path clip-path="url(#p1aa3c02df5)" d="M 96.772406 325.921635 
L 97.282335 325.921635 
L 97.282335 303.075836 
L 96.772406 303.075836 
z
" style="fill:#1f77b4;"/>
   </g>
   <g id="patch_67">
    <path clip-path="url(#p1aa3c02df5)" d="M 97.409817 325.921635 
L 97.919746 325.921635 
L 97.919746 301.492042 
L 97.409817 301.492042 
z
" style="fill:#1f77b4;"/>
   </g>
   <g id="patch_68">
    <path clip-path="url(#p1aa3c02df5)" d="M 98.047229 325.921635 
L 98.557158 325.921635 
L 98.557158 300.128198 
L 98.047229 300.128198 
z
" style="fill:#1f77b4;"/>
   </g>
   <g id="patch_69">
    <path clip-path="url(#p1aa3c02df5)" d="M 98.68464 325.921635 
L 99.194569 325.921635 
L 99.194569 298.856935 
L 98.68464 298.856935 
z
" style="fill:#1f77b4;"/>
   </g>
   <g id="patch_70">
    <path clip-path="url(#p1aa3c02df5)" d="M 99.322051 325.921635 
L 99.83198 325.921635 
L 99.83198 297.082091 
L 99.322051 297.082091 
z
" style="fill:#1f77b4;"/>
   </g>
   <g id="patch_71">
    <path clip-path="url(#p1aa3c02df5)" d="M 99.959463 325.921635 
L 100.469392 325.921635 
L 100.469392 295.226439 
L 99.959463 295.226439 
z
" style="fill:#1f77b4;"/>
   </g>
   <g id="patch_72">
    <path clip-path="url(#p1aa3c02df5)" d="M 100.596874 325.921635 
L 101.106803 325.921635 
L 101.106803 292.416068 
L 100.596874 292.416068 
z
" style="fill:#1f77b4;"/>
   </g>
   <g id="patch_73">
    <path clip-path="url(#p1aa3c02df5)" d="M 101.234286 325.921635 
L 101.744215 325.921635 
L 101.744215 289.770258 
L 101.234286 289.770258 
z
" style="fill:#1f77b4;"/>
   </g>
   <g id="patch_74">
    <path clip-path="url(#p1aa3c02df5)" d="M 101.871697 325.921635 
L 102.381626 325.921635 
L 102.381626 287.035077 
L 101.871697 287.035077 
z
" style="fill:#1f77b4;"/>
   </g>
   <g id="patch_75">
    <path clip-path="url(#p1aa3c02df5)" d="M 102.509108 325.921635 
L 103.019038 325.921635 
L 103.019038 284.195808 
L 102.509108 284.195808 
z
" style="fill:#1f77b4;"/>
   </g>
   <g id="patch_76">
    <path clip-path="url(#p1aa3c02df5)" d="M 103.14652 325.921635 
L 103.656449 325.921635 
L 103.656449 282.386982 
L 103.14652 282.386982 
z
" style="fill:#1f77b4;"/>
   </g>
   <g id="patch_77">
    <path clip-path="url(#p1aa3c02df5)" d="M 103.783931 325.921635 
L 104.29386 325.921635 
L 104.29386 280.879983 
L 103.783931 280.879983 
z
" style="fill:#1f77b4;"/>
   </g>
   <g id="patch_78">
    <path clip-path="url(#p1aa3c02df5)" d="M 104.421343 325.921635 
L 104.931272 325.921635 
L 104.931272 278.402747 
L 104.421343 278.402747 
z
" style="fill:#1f77b4;"/>
   </g>
   <g id="patch_79">
    <path clip-path="url(#p1aa3c02df5)" d="M 105.058754 325.921635 
L 105.568683 325.921635 
L 105.568683 275.356373 
L 105.058754 275.356373 
z
" style="fill:#1f77b4;"/>
   </g>
   <g id="patch_80">
    <path clip-path="url(#p1aa3c02df5)" d="M 105.696165 325.921635 
L 106.206095 325.921635 
L 106.206095 271.625267 
L 105.696165 271.625267 
z
" style="fill:#1f77b4;"/>
   </g>
   <g id="patch_81">
    <path clip-path="url(#p1aa3c02df5)" d="M 106.333577 325.921635 
L 106.843506 325.921635 
L 106.843506 267.529988 
L 106.333577 267.529988 
z
" style="fill:#1f77b4;"/>
   </g>
   <g id="patch_82">
    <path clip-path="url(#p1aa3c02df5)" d="M 106.970988 325.921635 
L 107.480917 325.921635 
L 107.480917 263.537993 
L 106.970988 263.537993 
z
" style="fill:#1f77b4;"/>
   </g>
   <g id="patch_83">
    <path clip-path="url(#p1aa3c02df5)" d="M 107.6084 325.921635 
L 108.118329 325.921635 
L 108.118329 261.41396 
L 107.6084 261.41396 
z
" style="fill:#1f77b4;"/>
   </g>
   <g id="patch_84">
    <path clip-path="url(#p1aa3c02df5)" d="M 108.245811 325.921635 
L 108.75574 325.921635 
L 108.75574 257.897987 
L 108.245811 257.897987 
z
" style="fill:#1f77b4;"/>
   </g>
   <g id="patch_85">
    <path clip-path="url(#p1aa3c02df5)" d="M 108.883222 325.921635 
L 109.393152 325.921635 
L 109.393152 253.239991 
L 108.883222 253.239991 
z
" style="fill:#1f77b4;"/>
   </g>
   <g id="patch_86">
    <path clip-path="url(#p1aa3c02df5)" d="M 109.520634 325.921635 
L 110.030563 325.921635 
L 110.030563 247.901545 
L 109.520634 247.901545 
z
" style="fill:#1f77b4;"/>
   </g>
   <g id="patch_87">
    <path clip-path="url(#p1aa3c02df5)" d="M 110.158045 325.921635 
L 110.667974 325.921635 
L 110.667974 242.949213 
L 110.158045 242.949213 
z
" style="fill:#1f77b4;"/>
   </g>
   <g id="patch_88">
    <path clip-path="url(#p1aa3c02df5)" d="M 110.795457 325.921635 
L 111.305386 325.921635 
L 111.305386 237.382791 
L 110.795457 237.382791 
z
" style="fill:#1f77b4;"/>
   </g>
   <g id="patch_89">
    <path clip-path="url(#p1aa3c02df5)" d="M 111.432868 325.921635 
L 111.942797 325.921635 
L 111.942797 232.965615 
L 111.432868 232.965615 
z
" style="fill:#1f77b4;"/>
   </g>
   <g id="patch_90">
    <path clip-path="url(#p1aa3c02df5)" d="M 112.070279 325.921635 
L 112.580209 325.921635 
L 112.580209 228.734406 
L 112.070279 228.734406 
z
" style="fill:#1f77b4;"/>
   </g>
   <g id="patch_91">
    <path clip-path="url(#p1aa3c02df5)" d="M 112.707691 325.921635 
L 113.21762 325.921635 
L 113.21762 225.607224 
L 112.707691 225.607224 
z
" style="fill:#1f77b4;"/>
   </g>
   <g id="patch_92">
    <path clip-path="url(#p1aa3c02df5)" d="M 113.345102 325.921635 
L 113.855031 325.921635 
L 113.855031 221.239282 
L 113.345102 221.239282 
z
" style="fill:#1f77b4;"/>
   </g>
   <g id="patch_93">
    <path clip-path="url(#p1aa3c02df5)" d="M 113.982514 325.921635 
L 114.492443 325.921635 
L 114.492443 215.727445 
L 113.982514 215.727445 
z
" style="fill:#1f77b4;"/>
   </g>
   <g id="patch_94">
    <path clip-path="url(#p1aa3c02df5)" d="M 114.619925 325.921635 
L 115.129854 325.921635 
L 115.129854 208.658841 
L 114.619925 208.658841 
z
" style="fill:#1f77b4;"/>
   </g>
   <g id="patch_95">
    <path clip-path="url(#p1aa3c02df5)" d="M 115.257336 325.921635 
L 115.767266 325.921635 
L 115.767266 201.453504 
L 115.257336 201.453504 
z
" style="fill:#1f77b4;"/>
   </g>
   <g id="patch_96">
    <path clip-path="url(#p1aa3c02df5)" d="M 115.894748 325.921635 
L 116.404677 325.921635 
L 116.404677 192.550117 
L 115.894748 192.550117 
z
" style="fill:#1f77b4;"/>
   </g>
   <g id="patch_97">
    <path clip-path="url(#p1aa3c02df5)" d="M 116.532159 325.921635 
L 117.042088 325.921635 
L 117.042088 188.33309 
L 116.532159 188.33309 
z
" style="fill:#1f77b4;"/>
   </g>
   <g id="patch_98">
    <path clip-path="url(#p1aa3c02df5)" d="M 117.169571 325.921635 
L 117.6795 325.921635 
L 117.6795 185.056064 
L 117.169571 185.056064 
z
" style="fill:#1f77b4;"/>
   </g>
   <g id="patch_99">
    <path clip-path="url(#p1aa3c02df5)" d="M 117.806982 325.921635 
L 118.316911 325.921635 
L 118.316911 177.31343 
L 117.806982 177.31343 
z
" style="fill:#1f77b4;"/>
   </g>
   <g id="patch_100">
    <path clip-path="url(#p1aa3c02df5)" d="M 118.444393 325.921635 
L 118.954323 325.921635 
L 118.954323 169.651873 
L 118.444393 169.651873 
z
" style="fill:#1f77b4;"/>
   </g>
   <g id="patch_101">
    <path clip-path="url(#p1aa3c02df5)" d="M 119.081805 325.921635 
L 119.591734 325.921635 
L 119.591734 161.377027 
L 119.081805 161.377027 
z
" style="fill:#1f77b4;"/>
   </g>
   <g id="patch_102">
    <path clip-path="url(#p1aa3c02df5)" d="M 119.719216 325.921635 
L 120.229145 325.921635 
L 120.229145 153.127601 
L 119.719216 153.127601 
z
" style="fill:#1f77b4;"/>
   </g>
   <g id="patch_103">
    <path clip-path="url(#p1aa3c02df5)" d="M 120.356628 325.921635 
L 120.866557 325.921635 
L 120.866557 145.88293 
L 120.356628 145.88293 
z
" style="fill:#1f77b4;"/>
   </g>
   <g id="patch_104">
    <path clip-path="url(#p1aa3c02df5)" d="M 120.994039 325.921635 
L 121.503968 325.921635 
L 121.503968 140.822497 
L 120.994039 140.822497 
z
" style="fill:#1f77b4;"/>
   </g>
   <g id="patch_105">
    <path clip-path="url(#p1aa3c02df5)" d="M 121.631451 325.921635 
L 122.14138 325.921635 
L 122.14138 136.633833 
L 121.631451 136.633833 
z
" style="fill:#1f77b4;"/>
   </g>
   <g id="patch_106">
    <path clip-path="url(#p1aa3c02df5)" d="M 122.268862 325.921635 
L 122.778791 325.921635 
L 122.778791 128.046991 
L 122.268862 128.046991 
z
" style="fill:#1f77b4;"/>
   </g>
   <g id="patch_107">
    <path clip-path="url(#p1aa3c02df5)" d="M 122.906273 325.921635 
L 123.416202 325.921635 
L 123.416202 119.2402 
L 122.906273 119.2402 
z
" style="fill:#1f77b4;"/>
   </g>
   <g id="patch_108">
    <path clip-path="url(#p1aa3c02df5)" d="M 123.543685 325.921635 
L 124.053614 325.921635 
L 124.053614 111.102622 
L 123.543685 111.102622 
z
" style="fill:#1f77b4;"/>
   </g>
   <g id="patch_109">
    <path clip-path="url(#p1aa3c02df5)" d="M 124.181096 325.921635 
L 124.691025 325.921635 
L 124.691025 104.150414 
L 124.181096 104.150414 
z
" style="fill:#1f77b4;"/>
   </g>
   <g id="patch_110">
    <path clip-path="url(#p1aa3c02df5)" d="M 124.818508 325.921635 
L 125.328437 325.921635 
L 125.328437 98.342903 
L 124.818508 98.342903 
z
" style="fill:#1f77b4;"/>
   </g>
   <g id="patch_111">
    <path clip-path="url(#p1aa3c02df5)" d="M 125.455919 325.921635 
L 125.965848 325.921635 
L 125.965848 93.764646 
L 125.455919 93.764646 
z
" style="fill:#1f77b4;"/>
   </g>
   <g id="patch_112">
    <path clip-path="url(#p1aa3c02df5)" d="M 126.09333 325.921635 
L 126.603259 325.921635 
L 126.603259 88.239965 
L 126.09333 88.239965 
z
" style="fill:#1f77b4;"/>
   </g>
   <g id="patch_113">
    <path clip-path="url(#p1aa3c02df5)" d="M 126.730742 325.921635 
L 127.240671 325.921635 
L 127.240671 78.896681 
L 126.730742 78.896681 
z
" style="fill:#1f77b4;"/>
   </g>
   <g id="patch_114">
    <path clip-path="url(#p1aa3c02df5)" d="M 127.368153 325.921635 
L 127.878082 325.921635 
L 127.878082 70.283884 
L 127.368153 70.283884 
z
" style="fill:#1f77b4;"/>
   </g>
   <g id="patch_115">
    <path clip-path="url(#p1aa3c02df5)" d="M 128.005565 325.921635 
L 128.515494 325.921635 
L 128.515494 64.192474 
L 128.005565 64.192474 
z
" style="fill:#1f77b4;"/>
   </g>
   <g id="patch_116">
    <path clip-path="url(#p1aa3c02df5)" d="M 128.642976 325.921635 
L 129.152905 325.921635 
L 129.152905 49.536966 
L 128.642976 49.536966 
z
" style="fill:#1f77b4;"/>
   </g>
   <g id="patch_117">
    <path clip-path="url(#p1aa3c02df5)" d="M 129.280387 325.921635 
L 129.790316 325.921635 
L 129.790316 40.261111 
L 129.280387 40.261111 
z
" style="fill:#1f77b4;"/>
   </g>
   <g id="patch_118">
    <path clip-path="url(#p1aa3c02df5)" d="M 129.917799 325.921635 
L 130.427728 325.921635 
L 130.427728 35.589469 
L 129.917799 35.589469 
z
" style="fill:#1f77b4;"/>
   </g>
   <g id="matplotlib.axis_1">
    <g id="xtick_1">
     <g id="line2d_1">
      <defs>
       <path d="M 0 0 
L 0 3.5 
" id="m3af0c2ca74" style="stroke:#000000;stroke-width:0.8;"/>
      </defs>
      <g>
       <use style="stroke:#000000;stroke-width:0.8;" x="56.870452" xlink:href="#m3af0c2ca74" y="325.921635"/>
      </g>
     </g>
     <g id="text_1">
      <!-- 0 -->
      <defs>
       <path d="M 31.78125 66.40625 
Q 24.171875 66.40625 20.328125 58.90625 
Q 16.5 51.421875 16.5 36.375 
Q 16.5 21.390625 20.328125 13.890625 
Q 24.171875 6.390625 31.78125 6.390625 
Q 39.453125 6.390625 43.28125 13.890625 
Q 47.125 21.390625 47.125 36.375 
Q 47.125 51.421875 43.28125 58.90625 
Q 39.453125 66.40625 31.78125 66.40625 
z
M 31.78125 74.21875 
Q 44.046875 74.21875 50.515625 64.515625 
Q 56.984375 54.828125 56.984375 36.375 
Q 56.984375 17.96875 50.515625 8.265625 
Q 44.046875 -1.421875 31.78125 -1.421875 
Q 19.53125 -1.421875 13.0625 8.265625 
Q 6.59375 17.96875 6.59375 36.375 
Q 6.59375 54.828125 13.0625 64.515625 
Q 19.53125 74.21875 31.78125 74.21875 
z
" id="DejaVuSans-48"/>
      </defs>
      <g transform="translate(53.689202 340.520072)scale(0.1 -0.1)">
       <use xlink:href="#DejaVuSans-48"/>
      </g>
     </g>
    </g>
    <g id="xtick_2">
     <g id="line2d_2">
      <g>
       <use style="stroke:#000000;stroke-width:0.8;" x="120.611592" xlink:href="#m3af0c2ca74" y="325.921635"/>
      </g>
     </g>
     <g id="text_2">
      <!-- 100 -->
      <defs>
       <path d="M 12.40625 8.296875 
L 28.515625 8.296875 
L 28.515625 63.921875 
L 10.984375 60.40625 
L 10.984375 69.390625 
L 28.421875 72.90625 
L 38.28125 72.90625 
L 38.28125 8.296875 
L 54.390625 8.296875 
L 54.390625 0 
L 12.40625 0 
z
" id="DejaVuSans-49"/>
      </defs>
      <g transform="translate(111.067842 340.520072)scale(0.1 -0.1)">
       <use xlink:href="#DejaVuSans-49"/>
       <use x="63.623047" xlink:href="#DejaVuSans-48"/>
       <use x="127.246094" xlink:href="#DejaVuSans-48"/>
      </g>
     </g>
    </g>
   </g>
   <g id="matplotlib.axis_2">
    <g id="ytick_1">
     <g id="line2d_3">
      <defs>
       <path d="M 0 0 
L -3.5 0 
" id="ma270eee22a" style="stroke:#000000;stroke-width:0.8;"/>
      </defs>
      <g>
       <use style="stroke:#000000;stroke-width:0.8;" x="52.924875" xlink:href="#ma270eee22a" y="325.921635"/>
      </g>
     </g>
     <g id="text_3">
      <!-- 0.0 -->
      <defs>
       <path d="M 10.6875 12.40625 
L 21 12.40625 
L 21 0 
L 10.6875 0 
z
" id="DejaVuSans-46"/>
      </defs>
      <g transform="translate(30.02175 329.720854)scale(0.1 -0.1)">
       <use xlink:href="#DejaVuSans-48"/>
       <use x="63.623047" xlink:href="#DejaVuSans-46"/>
       <use x="95.410156" xlink:href="#DejaVuSans-48"/>
      </g>
     </g>
    </g>
    <g id="ytick_2">
     <g id="line2d_4">
      <g>
       <use style="stroke:#000000;stroke-width:0.8;" x="52.924875" xlink:href="#ma270eee22a" y="272.406059"/>
      </g>
     </g>
     <g id="text_4">
      <!-- 0.2 -->
      <defs>
       <path d="M 19.1875 8.296875 
L 53.609375 8.296875 
L 53.609375 0 
L 7.328125 0 
L 7.328125 8.296875 
Q 12.9375 14.109375 22.625 23.890625 
Q 32.328125 33.6875 34.8125 36.53125 
Q 39.546875 41.84375 41.421875 45.53125 
Q 43.3125 49.21875 43.3125 52.78125 
Q 43.3125 58.59375 39.234375 62.25 
Q 35.15625 65.921875 28.609375 65.921875 
Q 23.96875 65.921875 18.8125 64.3125 
Q 13.671875 62.703125 7.8125 59.421875 
L 7.8125 69.390625 
Q 13.765625 71.78125 18.9375 73 
Q 24.125 74.21875 28.421875 74.21875 
Q 39.75 74.21875 46.484375 68.546875 
Q 53.21875 62.890625 53.21875 53.421875 
Q 53.21875 48.921875 51.53125 44.890625 
Q 49.859375 40.875 45.40625 35.40625 
Q 44.1875 33.984375 37.640625 27.21875 
Q 31.109375 20.453125 19.1875 8.296875 
z
" id="DejaVuSans-50"/>
      </defs>
      <g transform="translate(30.02175 276.205278)scale(0.1 -0.1)">
       <use xlink:href="#DejaVuSans-48"/>
       <use x="63.623047" xlink:href="#DejaVuSans-46"/>
       <use x="95.410156" xlink:href="#DejaVuSans-50"/>
      </g>
     </g>
    </g>
    <g id="ytick_3">
     <g id="line2d_5">
      <g>
       <use style="stroke:#000000;stroke-width:0.8;" x="52.924875" xlink:href="#ma270eee22a" y="218.890484"/>
      </g>
     </g>
     <g id="text_5">
      <!-- 0.4 -->
      <defs>
       <path d="M 37.796875 64.3125 
L 12.890625 25.390625 
L 37.796875 25.390625 
z
M 35.203125 72.90625 
L 47.609375 72.90625 
L 47.609375 25.390625 
L 58.015625 25.390625 
L 58.015625 17.1875 
L 47.609375 17.1875 
L 47.609375 0 
L 37.796875 0 
L 37.796875 17.1875 
L 4.890625 17.1875 
L 4.890625 26.703125 
z
" id="DejaVuSans-52"/>
      </defs>
      <g transform="translate(30.02175 222.689702)scale(0.1 -0.1)">
       <use xlink:href="#DejaVuSans-48"/>
       <use x="63.623047" xlink:href="#DejaVuSans-46"/>
       <use x="95.410156" xlink:href="#DejaVuSans-52"/>
      </g>
     </g>
    </g>
    <g id="ytick_4">
     <g id="line2d_6">
      <g>
       <use style="stroke:#000000;stroke-width:0.8;" x="52.924875" xlink:href="#ma270eee22a" y="165.374908"/>
      </g>
     </g>
     <g id="text_6">
      <!-- 0.6 -->
      <defs>
       <path d="M 33.015625 40.375 
Q 26.375 40.375 22.484375 35.828125 
Q 18.609375 31.296875 18.609375 23.390625 
Q 18.609375 15.53125 22.484375 10.953125 
Q 26.375 6.390625 33.015625 6.390625 
Q 39.65625 6.390625 43.53125 10.953125 
Q 47.40625 15.53125 47.40625 23.390625 
Q 47.40625 31.296875 43.53125 35.828125 
Q 39.65625 40.375 33.015625 40.375 
z
M 52.59375 71.296875 
L 52.59375 62.3125 
Q 48.875 64.0625 45.09375 64.984375 
Q 41.3125 65.921875 37.59375 65.921875 
Q 27.828125 65.921875 22.671875 59.328125 
Q 17.53125 52.734375 16.796875 39.40625 
Q 19.671875 43.65625 24.015625 45.921875 
Q 28.375 48.1875 33.59375 48.1875 
Q 44.578125 48.1875 50.953125 41.515625 
Q 57.328125 34.859375 57.328125 23.390625 
Q 57.328125 12.15625 50.6875 5.359375 
Q 44.046875 -1.421875 33.015625 -1.421875 
Q 20.359375 -1.421875 13.671875 8.265625 
Q 6.984375 17.96875 6.984375 36.375 
Q 6.984375 53.65625 15.1875 63.9375 
Q 23.390625 74.21875 37.203125 74.21875 
Q 40.921875 74.21875 44.703125 73.484375 
Q 48.484375 72.75 52.59375 71.296875 
z
" id="DejaVuSans-54"/>
      </defs>
      <g transform="translate(30.02175 169.174127)scale(0.1 -0.1)">
       <use xlink:href="#DejaVuSans-48"/>
       <use x="63.623047" xlink:href="#DejaVuSans-46"/>
       <use x="95.410156" xlink:href="#DejaVuSans-54"/>
      </g>
     </g>
    </g>
    <g id="ytick_5">
     <g id="line2d_7">
      <g>
       <use style="stroke:#000000;stroke-width:0.8;" x="52.924875" xlink:href="#ma270eee22a" y="111.859332"/>
      </g>
     </g>
     <g id="text_7">
      <!-- 0.8 -->
      <defs>
       <path d="M 31.78125 34.625 
Q 24.75 34.625 20.71875 30.859375 
Q 16.703125 27.09375 16.703125 20.515625 
Q 16.703125 13.921875 20.71875 10.15625 
Q 24.75 6.390625 31.78125 6.390625 
Q 38.8125 6.390625 42.859375 10.171875 
Q 46.921875 13.96875 46.921875 20.515625 
Q 46.921875 27.09375 42.890625 30.859375 
Q 38.875 34.625 31.78125 34.625 
z
M 21.921875 38.8125 
Q 15.578125 40.375 12.03125 44.71875 
Q 8.5 49.078125 8.5 55.328125 
Q 8.5 64.0625 14.71875 69.140625 
Q 20.953125 74.21875 31.78125 74.21875 
Q 42.671875 74.21875 48.875 69.140625 
Q 55.078125 64.0625 55.078125 55.328125 
Q 55.078125 49.078125 51.53125 44.71875 
Q 48 40.375 41.703125 38.8125 
Q 48.828125 37.15625 52.796875 32.3125 
Q 56.78125 27.484375 56.78125 20.515625 
Q 56.78125 9.90625 50.3125 4.234375 
Q 43.84375 -1.421875 31.78125 -1.421875 
Q 19.734375 -1.421875 13.25 4.234375 
Q 6.78125 9.90625 6.78125 20.515625 
Q 6.78125 27.484375 10.78125 32.3125 
Q 14.796875 37.15625 21.921875 38.8125 
z
M 18.3125 54.390625 
Q 18.3125 48.734375 21.84375 45.5625 
Q 25.390625 42.390625 31.78125 42.390625 
Q 38.140625 42.390625 41.71875 45.5625 
Q 45.3125 48.734375 45.3125 54.390625 
Q 45.3125 60.0625 41.71875 63.234375 
Q 38.140625 66.40625 31.78125 66.40625 
Q 25.390625 66.40625 21.84375 63.234375 
Q 18.3125 60.0625 18.3125 54.390625 
z
" id="DejaVuSans-56"/>
      </defs>
      <g transform="translate(30.02175 115.658551)scale(0.1 -0.1)">
       <use xlink:href="#DejaVuSans-48"/>
       <use x="63.623047" xlink:href="#DejaVuSans-46"/>
       <use x="95.410156" xlink:href="#DejaVuSans-56"/>
      </g>
     </g>
    </g>
    <g id="ytick_6">
     <g id="line2d_8">
      <g>
       <use style="stroke:#000000;stroke-width:0.8;" x="52.924875" xlink:href="#ma270eee22a" y="58.343756"/>
      </g>
     </g>
     <g id="text_8">
      <!-- 1.0 -->
      <g transform="translate(30.02175 62.142975)scale(0.1 -0.1)">
       <use xlink:href="#DejaVuSans-49"/>
       <use x="63.623047" xlink:href="#DejaVuSans-46"/>
       <use x="95.410156" xlink:href="#DejaVuSans-48"/>
      </g>
     </g>
    </g>
    <g id="text_9">
     <!-- 1e6 -->
     <defs>
      <path d="M 56.203125 29.59375 
L 56.203125 25.203125 
L 14.890625 25.203125 
Q 15.484375 15.921875 20.484375 11.0625 
Q 25.484375 6.203125 34.421875 6.203125 
Q 39.59375 6.203125 44.453125 7.46875 
Q 49.3125 8.734375 54.109375 11.28125 
L 54.109375 2.78125 
Q 49.265625 0.734375 44.1875 -0.34375 
Q 39.109375 -1.421875 33.890625 -1.421875 
Q 20.796875 -1.421875 13.15625 6.1875 
Q 5.515625 13.8125 5.515625 26.8125 
Q 5.515625 40.234375 12.765625 48.109375 
Q 20.015625 56 32.328125 56 
Q 43.359375 56 49.78125 48.890625 
Q 56.203125 41.796875 56.203125 29.59375 
z
M 47.21875 32.234375 
Q 47.125 39.59375 43.09375 43.984375 
Q 39.0625 48.390625 32.421875 48.390625 
Q 24.90625 48.390625 20.390625 44.140625 
Q 15.875 39.890625 15.1875 32.171875 
z
" id="DejaVuSans-101"/>
     </defs>
     <g transform="translate(52.924875 15.118365)scale(0.1 -0.1)">
      <use xlink:href="#DejaVuSans-49"/>
      <use x="63.623047" xlink:href="#DejaVuSans-101"/>
      <use x="125.146484" xlink:href="#DejaVuSans-54"/>
     </g>
    </g>
   </g>
   <g id="line2d_9">
    <path clip-path="url(#p1aa3c02df5)" d="M 56.870452 325.921173 
L 57.507863 325.92101 
L 58.145275 325.920766 
L 58.782686 325.920419 
L 59.420097 325.919934 
L 60.057509 325.919267 
L 60.69492 325.918356 
L 61.332332 325.917119 
L 61.969743 325.915452 
L 62.607154 325.913205 
L 63.244566 325.91017 
L 63.881977 325.906049 
L 64.519389 325.900449 
L 65.1568 325.892854 
L 65.794211 325.882609 
L 66.431623 325.868948 
L 67.069034 325.851005 
L 67.706446 325.827878 
L 68.343857 325.798662 
L 68.981269 325.762541 
L 69.61868 325.718888 
L 70.256091 325.667239 
L 70.893503 325.607192 
L 71.530914 325.538378 
L 72.168326 325.460383 
L 72.805737 325.372682 
L 73.443148 325.274462 
L 74.08056 325.164442 
L 74.717971 325.041019 
L 75.355383 324.902416 
L 75.992794 324.746712 
L 76.630205 324.571943 
L 77.267617 324.376294 
L 77.905028 324.158265 
L 78.54244 323.916871 
L 79.179851 323.651554 
L 79.817262 323.362168 
L 80.454674 323.049076 
L 81.092085 322.713009 
L 81.729497 322.3546 
L 82.366908 321.974341 
L 83.004319 321.572413 
L 83.641731 321.14859 
L 84.279142 320.702296 
L 84.916554 320.232263 
L 85.553965 319.736856 
L 86.191376 319.214522 
L 86.828788 318.663708 
L 87.466199 318.082732 
L 88.103611 317.469696 
L 88.741022 316.821786 
L 89.378433 316.135471 
L 90.015845 315.405893 
L 90.653256 314.627155 
L 91.290668 313.79247 
L 91.928079 312.89465 
L 92.56549 311.926698 
L 93.202902 310.882754 
L 93.840313 309.758444 
L 94.477725 308.551285 
L 95.115136 307.259271 
L 95.752547 305.880729 
L 96.389959 304.414286 
L 97.02737 302.858235 
L 97.664782 301.210604 
L 98.302193 299.468618 
L 98.939605 297.628787 
L 99.577016 295.688696 
L 100.214427 293.647243 
L 100.851839 291.503082 
L 101.48925 289.254299 
L 102.126662 286.896743 
L 102.764073 284.424364 
L 103.401484 281.829131 
L 104.038896 279.100408 
L 104.676307 276.22395 
L 105.313719 273.185134 
L 105.95113 269.971201 
L 106.588541 266.574226 
L 107.225953 262.990702 
L 107.863364 259.221474 
L 108.500776 255.26958 
L 109.138187 251.142717 
L 109.775598 246.850073 
L 110.41301 242.39809 
L 111.050421 237.787024 
L 111.687833 233.012009 
L 112.325244 228.0634 
L 112.962655 222.933019 
L 113.600067 217.611283 
L 114.237478 212.088335 
L 114.87489 206.359178 
L 115.512301 200.426625 
L 116.149712 194.300723 
L 116.787124 187.99917 
L 117.424535 181.540404 
L 118.061947 174.945761 
L 118.699358 168.239704 
L 119.336769 161.446223 
L 119.974181 154.587742 
L 120.611592 147.685164 
L 121.249004 140.752424 
L 121.886415 133.797192 
L 122.523826 126.819168 
L 123.161238 119.806873 
L 123.798649 112.738975 
L 124.436061 105.585149 
L 125.073472 98.302527 
L 125.710884 90.847408 
L 126.348295 83.182334 
L 126.985706 75.286728 
L 127.623118 67.150519 
L 128.260529 58.776582 
L 128.897941 50.245423 
L 129.535352 41.571031 
L 130.172763 32.775664 
" style="fill:none;stroke:#ff0000;stroke-linecap:square;stroke-width:1.5;"/>
   </g>
   <g id="patch_119">
    <path d="M 52.924875 325.921635 
L 52.924875 18.118365 
" style="fill:none;stroke:#000000;stroke-linecap:square;stroke-linejoin:miter;stroke-width:0.8;"/>
   </g>
   <g id="patch_120">
    <path d="M 134.11834 325.921635 
L 134.11834 18.118365 
" style="fill:none;stroke:#000000;stroke-linecap:square;stroke-linejoin:miter;stroke-width:0.8;"/>
   </g>
   <g id="patch_121">
    <path d="M 52.924875 325.921635 
L 134.11834 325.921635 
" style="fill:none;stroke:#000000;stroke-linecap:square;stroke-linejoin:miter;stroke-width:0.8;"/>
   </g>
   <g id="patch_122">
    <path d="M 52.924875 18.118365 
L 134.11834 18.118365 
" style="fill:none;stroke:#000000;stroke-linecap:square;stroke-linejoin:miter;stroke-width:0.8;"/>
   </g>
   <g id="text_10">
    <!-- Casos acumulados - BR - (data) -->
    <defs>
     <path d="M 64.40625 67.28125 
L 64.40625 56.890625 
Q 59.421875 61.53125 53.78125 63.8125 
Q 48.140625 66.109375 41.796875 66.109375 
Q 29.296875 66.109375 22.65625 58.46875 
Q 16.015625 50.828125 16.015625 36.375 
Q 16.015625 21.96875 22.65625 14.328125 
Q 29.296875 6.6875 41.796875 6.6875 
Q 48.140625 6.6875 53.78125 8.984375 
Q 59.421875 11.28125 64.40625 15.921875 
L 64.40625 5.609375 
Q 59.234375 2.09375 53.4375 0.328125 
Q 47.65625 -1.421875 41.21875 -1.421875 
Q 24.65625 -1.421875 15.125 8.703125 
Q 5.609375 18.84375 5.609375 36.375 
Q 5.609375 53.953125 15.125 64.078125 
Q 24.65625 74.21875 41.21875 74.21875 
Q 47.75 74.21875 53.53125 72.484375 
Q 59.328125 70.75 64.40625 67.28125 
z
" id="DejaVuSans-67"/>
     <path d="M 34.28125 27.484375 
Q 23.390625 27.484375 19.1875 25 
Q 14.984375 22.515625 14.984375 16.5 
Q 14.984375 11.71875 18.140625 8.90625 
Q 21.296875 6.109375 26.703125 6.109375 
Q 34.1875 6.109375 38.703125 11.40625 
Q 43.21875 16.703125 43.21875 25.484375 
L 43.21875 27.484375 
z
M 52.203125 31.203125 
L 52.203125 0 
L 43.21875 0 
L 43.21875 8.296875 
Q 40.140625 3.328125 35.546875 0.953125 
Q 30.953125 -1.421875 24.3125 -1.421875 
Q 15.921875 -1.421875 10.953125 3.296875 
Q 6 8.015625 6 15.921875 
Q 6 25.140625 12.171875 29.828125 
Q 18.359375 34.515625 30.609375 34.515625 
L 43.21875 34.515625 
L 43.21875 35.40625 
Q 43.21875 41.609375 39.140625 45 
Q 35.0625 48.390625 27.6875 48.390625 
Q 23 48.390625 18.546875 47.265625 
Q 14.109375 46.140625 10.015625 43.890625 
L 10.015625 52.203125 
Q 14.9375 54.109375 19.578125 55.046875 
Q 24.21875 56 28.609375 56 
Q 40.484375 56 46.34375 49.84375 
Q 52.203125 43.703125 52.203125 31.203125 
z
" id="DejaVuSans-97"/>
     <path d="M 44.28125 53.078125 
L 44.28125 44.578125 
Q 40.484375 46.53125 36.375 47.5 
Q 32.28125 48.484375 27.875 48.484375 
Q 21.1875 48.484375 17.84375 46.4375 
Q 14.5 44.390625 14.5 40.28125 
Q 14.5 37.15625 16.890625 35.375 
Q 19.28125 33.59375 26.515625 31.984375 
L 29.59375 31.296875 
Q 39.15625 29.25 43.1875 25.515625 
Q 47.21875 21.78125 47.21875 15.09375 
Q 47.21875 7.46875 41.1875 3.015625 
Q 35.15625 -1.421875 24.609375 -1.421875 
Q 20.21875 -1.421875 15.453125 -0.5625 
Q 10.6875 0.296875 5.421875 2 
L 5.421875 11.28125 
Q 10.40625 8.6875 15.234375 7.390625 
Q 20.0625 6.109375 24.8125 6.109375 
Q 31.15625 6.109375 34.5625 8.28125 
Q 37.984375 10.453125 37.984375 14.40625 
Q 37.984375 18.0625 35.515625 20.015625 
Q 33.0625 21.96875 24.703125 23.78125 
L 21.578125 24.515625 
Q 13.234375 26.265625 9.515625 29.90625 
Q 5.8125 33.546875 5.8125 39.890625 
Q 5.8125 47.609375 11.28125 51.796875 
Q 16.75 56 26.8125 56 
Q 31.78125 56 36.171875 55.265625 
Q 40.578125 54.546875 44.28125 53.078125 
z
" id="DejaVuSans-115"/>
     <path d="M 30.609375 48.390625 
Q 23.390625 48.390625 19.1875 42.75 
Q 14.984375 37.109375 14.984375 27.296875 
Q 14.984375 17.484375 19.15625 11.84375 
Q 23.34375 6.203125 30.609375 6.203125 
Q 37.796875 6.203125 41.984375 11.859375 
Q 46.1875 17.53125 46.1875 27.296875 
Q 46.1875 37.015625 41.984375 42.703125 
Q 37.796875 48.390625 30.609375 48.390625 
z
M 30.609375 56 
Q 42.328125 56 49.015625 48.375 
Q 55.71875 40.765625 55.71875 27.296875 
Q 55.71875 13.875 49.015625 6.21875 
Q 42.328125 -1.421875 30.609375 -1.421875 
Q 18.84375 -1.421875 12.171875 6.21875 
Q 5.515625 13.875 5.515625 27.296875 
Q 5.515625 40.765625 12.171875 48.375 
Q 18.84375 56 30.609375 56 
z
" id="DejaVuSans-111"/>
     <path id="DejaVuSans-32"/>
     <path d="M 48.78125 52.59375 
L 48.78125 44.1875 
Q 44.96875 46.296875 41.140625 47.34375 
Q 37.3125 48.390625 33.40625 48.390625 
Q 24.65625 48.390625 19.8125 42.84375 
Q 14.984375 37.3125 14.984375 27.296875 
Q 14.984375 17.28125 19.8125 11.734375 
Q 24.65625 6.203125 33.40625 6.203125 
Q 37.3125 6.203125 41.140625 7.25 
Q 44.96875 8.296875 48.78125 10.40625 
L 48.78125 2.09375 
Q 45.015625 0.34375 40.984375 -0.53125 
Q 36.96875 -1.421875 32.421875 -1.421875 
Q 20.0625 -1.421875 12.78125 6.34375 
Q 5.515625 14.109375 5.515625 27.296875 
Q 5.515625 40.671875 12.859375 48.328125 
Q 20.21875 56 33.015625 56 
Q 37.15625 56 41.109375 55.140625 
Q 45.0625 54.296875 48.78125 52.59375 
z
" id="DejaVuSans-99"/>
     <path d="M 8.5 21.578125 
L 8.5 54.6875 
L 17.484375 54.6875 
L 17.484375 21.921875 
Q 17.484375 14.15625 20.5 10.265625 
Q 23.53125 6.390625 29.59375 6.390625 
Q 36.859375 6.390625 41.078125 11.03125 
Q 45.3125 15.671875 45.3125 23.6875 
L 45.3125 54.6875 
L 54.296875 54.6875 
L 54.296875 0 
L 45.3125 0 
L 45.3125 8.40625 
Q 42.046875 3.421875 37.71875 1 
Q 33.40625 -1.421875 27.6875 -1.421875 
Q 18.265625 -1.421875 13.375 4.4375 
Q 8.5 10.296875 8.5 21.578125 
z
M 31.109375 56 
z
" id="DejaVuSans-117"/>
     <path d="M 52 44.1875 
Q 55.375 50.25 60.0625 53.125 
Q 64.75 56 71.09375 56 
Q 79.640625 56 84.28125 50.015625 
Q 88.921875 44.046875 88.921875 33.015625 
L 88.921875 0 
L 79.890625 0 
L 79.890625 32.71875 
Q 79.890625 40.578125 77.09375 44.375 
Q 74.3125 48.1875 68.609375 48.1875 
Q 61.625 48.1875 57.5625 43.546875 
Q 53.515625 38.921875 53.515625 30.90625 
L 53.515625 0 
L 44.484375 0 
L 44.484375 32.71875 
Q 44.484375 40.625 41.703125 44.40625 
Q 38.921875 48.1875 33.109375 48.1875 
Q 26.21875 48.1875 22.15625 43.53125 
Q 18.109375 38.875 18.109375 30.90625 
L 18.109375 0 
L 9.078125 0 
L 9.078125 54.6875 
L 18.109375 54.6875 
L 18.109375 46.1875 
Q 21.1875 51.21875 25.484375 53.609375 
Q 29.78125 56 35.6875 56 
Q 41.65625 56 45.828125 52.96875 
Q 50 49.953125 52 44.1875 
z
" id="DejaVuSans-109"/>
     <path d="M 9.421875 75.984375 
L 18.40625 75.984375 
L 18.40625 0 
L 9.421875 0 
z
" id="DejaVuSans-108"/>
     <path d="M 45.40625 46.390625 
L 45.40625 75.984375 
L 54.390625 75.984375 
L 54.390625 0 
L 45.40625 0 
L 45.40625 8.203125 
Q 42.578125 3.328125 38.25 0.953125 
Q 33.9375 -1.421875 27.875 -1.421875 
Q 17.96875 -1.421875 11.734375 6.484375 
Q 5.515625 14.40625 5.515625 27.296875 
Q 5.515625 40.1875 11.734375 48.09375 
Q 17.96875 56 27.875 56 
Q 33.9375 56 38.25 53.625 
Q 42.578125 51.265625 45.40625 46.390625 
z
M 14.796875 27.296875 
Q 14.796875 17.390625 18.875 11.75 
Q 22.953125 6.109375 30.078125 6.109375 
Q 37.203125 6.109375 41.296875 11.75 
Q 45.40625 17.390625 45.40625 27.296875 
Q 45.40625 37.203125 41.296875 42.84375 
Q 37.203125 48.484375 30.078125 48.484375 
Q 22.953125 48.484375 18.875 42.84375 
Q 14.796875 37.203125 14.796875 27.296875 
z
" id="DejaVuSans-100"/>
     <path d="M 4.890625 31.390625 
L 31.203125 31.390625 
L 31.203125 23.390625 
L 4.890625 23.390625 
z
" id="DejaVuSans-45"/>
     <path d="M 19.671875 34.8125 
L 19.671875 8.109375 
L 35.5 8.109375 
Q 43.453125 8.109375 47.28125 11.40625 
Q 51.125 14.703125 51.125 21.484375 
Q 51.125 28.328125 47.28125 31.5625 
Q 43.453125 34.8125 35.5 34.8125 
z
M 19.671875 64.796875 
L 19.671875 42.828125 
L 34.28125 42.828125 
Q 41.5 42.828125 45.03125 45.53125 
Q 48.578125 48.25 48.578125 53.8125 
Q 48.578125 59.328125 45.03125 62.0625 
Q 41.5 64.796875 34.28125 64.796875 
z
M 9.8125 72.90625 
L 35.015625 72.90625 
Q 46.296875 72.90625 52.390625 68.21875 
Q 58.5 63.53125 58.5 54.890625 
Q 58.5 48.1875 55.375 44.234375 
Q 52.25 40.28125 46.1875 39.3125 
Q 53.46875 37.75 57.5 32.78125 
Q 61.53125 27.828125 61.53125 20.40625 
Q 61.53125 10.640625 54.890625 5.3125 
Q 48.25 0 35.984375 0 
L 9.8125 0 
z
" id="DejaVuSans-66"/>
     <path d="M 44.390625 34.1875 
Q 47.5625 33.109375 50.5625 29.59375 
Q 53.5625 26.078125 56.59375 19.921875 
L 66.609375 0 
L 56 0 
L 46.6875 18.703125 
Q 43.0625 26.03125 39.671875 28.421875 
Q 36.28125 30.8125 30.421875 30.8125 
L 19.671875 30.8125 
L 19.671875 0 
L 9.8125 0 
L 9.8125 72.90625 
L 32.078125 72.90625 
Q 44.578125 72.90625 50.734375 67.671875 
Q 56.890625 62.453125 56.890625 51.90625 
Q 56.890625 45.015625 53.6875 40.46875 
Q 50.484375 35.9375 44.390625 34.1875 
z
M 19.671875 64.796875 
L 19.671875 38.921875 
L 32.078125 38.921875 
Q 39.203125 38.921875 42.84375 42.21875 
Q 46.484375 45.515625 46.484375 51.90625 
Q 46.484375 58.296875 42.84375 61.546875 
Q 39.203125 64.796875 32.078125 64.796875 
z
" id="DejaVuSans-82"/>
     <path d="M 31 75.875 
Q 24.46875 64.65625 21.28125 53.65625 
Q 18.109375 42.671875 18.109375 31.390625 
Q 18.109375 20.125 21.3125 9.0625 
Q 24.515625 -2 31 -13.1875 
L 23.1875 -13.1875 
Q 15.875 -1.703125 12.234375 9.375 
Q 8.59375 20.453125 8.59375 31.390625 
Q 8.59375 42.28125 12.203125 53.3125 
Q 15.828125 64.359375 23.1875 75.875 
z
" id="DejaVuSans-40"/>
     <path d="M 18.3125 70.21875 
L 18.3125 54.6875 
L 36.8125 54.6875 
L 36.8125 47.703125 
L 18.3125 47.703125 
L 18.3125 18.015625 
Q 18.3125 11.328125 20.140625 9.421875 
Q 21.96875 7.515625 27.59375 7.515625 
L 36.8125 7.515625 
L 36.8125 0 
L 27.59375 0 
Q 17.1875 0 13.234375 3.875 
Q 9.28125 7.765625 9.28125 18.015625 
L 9.28125 47.703125 
L 2.6875 47.703125 
L 2.6875 54.6875 
L 9.28125 54.6875 
L 9.28125 70.21875 
z
" id="DejaVuSans-116"/>
     <path d="M 8.015625 75.875 
L 15.828125 75.875 
Q 23.140625 64.359375 26.78125 53.3125 
Q 30.421875 42.28125 30.421875 31.390625 
Q 30.421875 20.453125 26.78125 9.375 
Q 23.140625 -1.703125 15.828125 -13.1875 
L 8.015625 -13.1875 
Q 14.5 -2 17.703125 9.0625 
Q 20.90625 20.125 20.90625 31.390625 
Q 20.90625 42.671875 17.703125 53.65625 
Q 14.5 64.65625 8.015625 75.875 
z
" id="DejaVuSans-41"/>
    </defs>
    <g transform="translate(-0.988705 12.118365)scale(0.12 -0.12)">
     <use xlink:href="#DejaVuSans-67"/>
     <use x="69.824219" xlink:href="#DejaVuSans-97"/>
     <use x="131.103516" xlink:href="#DejaVuSans-115"/>
     <use x="183.203125" xlink:href="#DejaVuSans-111"/>
     <use x="244.384766" xlink:href="#DejaVuSans-115"/>
     <use x="296.484375" xlink:href="#DejaVuSans-32"/>
     <use x="328.271484" xlink:href="#DejaVuSans-97"/>
     <use x="389.550781" xlink:href="#DejaVuSans-99"/>
     <use x="444.53125" xlink:href="#DejaVuSans-117"/>
     <use x="507.910156" xlink:href="#DejaVuSans-109"/>
     <use x="605.322266" xlink:href="#DejaVuSans-117"/>
     <use x="668.701172" xlink:href="#DejaVuSans-108"/>
     <use x="696.484375" xlink:href="#DejaVuSans-97"/>
     <use x="757.763672" xlink:href="#DejaVuSans-100"/>
     <use x="821.240234" xlink:href="#DejaVuSans-111"/>
     <use x="882.421875" xlink:href="#DejaVuSans-115"/>
     <use x="934.521484" xlink:href="#DejaVuSans-32"/>
     <use x="966.308594" xlink:href="#DejaVuSans-45"/>
     <use x="1002.392578" xlink:href="#DejaVuSans-32"/>
     <use x="1034.179688" xlink:href="#DejaVuSans-66"/>
     <use x="1102.783203" xlink:href="#DejaVuSans-82"/>
     <use x="1172.265625" xlink:href="#DejaVuSans-32"/>
     <use x="1204.052734" xlink:href="#DejaVuSans-45"/>
     <use x="1240.136719" xlink:href="#DejaVuSans-32"/>
     <use x="1271.923828" xlink:href="#DejaVuSans-40"/>
     <use x="1310.9375" xlink:href="#DejaVuSans-100"/>
     <use x="1374.414062" xlink:href="#DejaVuSans-97"/>
     <use x="1435.693359" xlink:href="#DejaVuSans-116"/>
     <use x="1474.902344" xlink:href="#DejaVuSans-97"/>
     <use x="1536.181641" xlink:href="#DejaVuSans-41"/>
    </g>
   </g>
  </g>
  <g id="axes_2">
   <g id="patch_123">
    <path d="M 231.927955 325.921635 
L 313.12142 325.921635 
L 313.12142 18.118365 
L 231.927955 18.118365 
z
" style="fill:#ffffff;"/>
   </g>
   <g id="patch_124">
    <path clip-path="url(#p7c1a0e408a)" d="M 235.618567 325.921635 
L 236.128496 325.921635 
L 236.128496 325.921635 
L 235.618567 325.921635 
z
" style="fill:#1f77b4;"/>
   </g>
   <g id="patch_125">
    <path clip-path="url(#p7c1a0e408a)" d="M 236.255979 325.921635 
L 236.765908 325.921635 
L 236.765908 325.921635 
L 236.255979 325.921635 
z
" style="fill:#1f77b4;"/>
   </g>
   <g id="patch_126">
    <path clip-path="url(#p7c1a0e408a)" d="M 236.89339 325.921635 
L 237.403319 325.921635 
L 237.403319 325.916283 
L 236.89339 325.916283 
z
" style="fill:#1f77b4;"/>
   </g>
   <g id="patch_127">
    <path clip-path="url(#p7c1a0e408a)" d="M 237.530801 325.921635 
L 238.040731 325.921635 
L 238.040731 325.921635 
L 237.530801 325.921635 
z
" style="fill:#1f77b4;"/>
   </g>
   <g id="patch_128">
    <path clip-path="url(#p7c1a0e408a)" d="M 238.168213 325.921635 
L 238.678142 325.921635 
L 238.678142 325.921635 
L 238.168213 325.921635 
z
" style="fill:#1f77b4;"/>
   </g>
   <g id="patch_129">
    <path clip-path="url(#p7c1a0e408a)" d="M 238.805624 325.921635 
L 239.315553 325.921635 
L 239.315553 325.921635 
L 238.805624 325.921635 
z
" style="fill:#1f77b4;"/>
   </g>
   <g id="patch_130">
    <path clip-path="url(#p7c1a0e408a)" d="M 239.443036 325.921635 
L 239.952965 325.921635 
L 239.952965 325.916283 
L 239.443036 325.916283 
z
" style="fill:#1f77b4;"/>
   </g>
   <g id="patch_131">
    <path clip-path="url(#p7c1a0e408a)" d="M 240.080447 325.921635 
L 240.590376 325.921635 
L 240.590376 325.900226 
L 240.080447 325.900226 
z
" style="fill:#1f77b4;"/>
   </g>
   <g id="patch_132">
    <path clip-path="url(#p7c1a0e408a)" d="M 240.717858 325.921635 
L 241.227788 325.921635 
L 241.227788 325.889522 
L 240.717858 325.889522 
z
" style="fill:#1f77b4;"/>
   </g>
   <g id="patch_133">
    <path clip-path="url(#p7c1a0e408a)" d="M 241.35527 325.921635 
L 241.865199 325.921635 
L 241.865199 325.889522 
L 241.35527 325.889522 
z
" style="fill:#1f77b4;"/>
   </g>
   <g id="patch_134">
    <path clip-path="url(#p7c1a0e408a)" d="M 241.992681 325.921635 
L 242.50261 325.921635 
L 242.50261 325.889522 
L 241.992681 325.889522 
z
" style="fill:#1f77b4;"/>
   </g>
   <g id="patch_135">
    <path clip-path="url(#p7c1a0e408a)" d="M 242.630093 325.921635 
L 243.140022 325.921635 
L 243.140022 325.921635 
L 242.630093 325.921635 
z
" style="fill:#1f77b4;"/>
   </g>
   <g id="patch_136">
    <path clip-path="url(#p7c1a0e408a)" d="M 243.267504 325.921635 
L 243.777433 325.921635 
L 243.777433 325.873465 
L 243.267504 325.873465 
z
" style="fill:#1f77b4;"/>
   </g>
   <g id="patch_137">
    <path clip-path="url(#p7c1a0e408a)" d="M 243.904915 325.921635 
L 244.414845 325.921635 
L 244.414845 325.825295 
L 243.904915 325.825295 
z
" style="fill:#1f77b4;"/>
   </g>
   <g id="patch_138">
    <path clip-path="url(#p7c1a0e408a)" d="M 244.542327 325.921635 
L 245.052256 325.921635 
L 245.052256 325.78783 
L 244.542327 325.78783 
z
" style="fill:#1f77b4;"/>
   </g>
   <g id="patch_139">
    <path clip-path="url(#p7c1a0e408a)" d="M 245.179738 325.921635 
L 245.689667 325.921635 
L 245.689667 325.809239 
L 245.179738 325.809239 
z
" style="fill:#1f77b4;"/>
   </g>
   <g id="patch_140">
    <path clip-path="url(#p7c1a0e408a)" d="M 245.81715 325.921635 
L 246.327079 325.921635 
L 246.327079 325.798534 
L 245.81715 325.798534 
z
" style="fill:#1f77b4;"/>
   </g>
   <g id="patch_141">
    <path clip-path="url(#p7c1a0e408a)" d="M 246.454561 325.921635 
L 246.96449 325.921635 
L 246.96449 325.49881 
L 246.454561 325.49881 
z
" style="fill:#1f77b4;"/>
   </g>
   <g id="patch_142">
    <path clip-path="url(#p7c1a0e408a)" d="M 247.091972 325.921635 
L 247.601902 325.921635 
L 247.601902 325.73966 
L 247.091972 325.73966 
z
" style="fill:#1f77b4;"/>
   </g>
   <g id="patch_143">
    <path clip-path="url(#p7c1a0e408a)" d="M 247.729384 325.921635 
L 248.239313 325.921635 
L 248.239313 325.616559 
L 247.729384 325.616559 
z
" style="fill:#1f77b4;"/>
   </g>
   <g id="patch_144">
    <path clip-path="url(#p7c1a0e408a)" d="M 248.366795 325.921635 
L 248.876724 325.921635 
L 248.876724 325.188382 
L 248.366795 325.188382 
z
" style="fill:#1f77b4;"/>
   </g>
   <g id="patch_145">
    <path clip-path="url(#p7c1a0e408a)" d="M 249.004207 325.921635 
L 249.514136 325.921635 
L 249.514136 324.888658 
L 249.004207 324.888658 
z
" style="fill:#1f77b4;"/>
   </g>
   <g id="patch_146">
    <path clip-path="url(#p7c1a0e408a)" d="M 249.641618 325.921635 
L 250.151547 325.921635 
L 250.151547 324.406959 
L 249.641618 324.406959 
z
" style="fill:#1f77b4;"/>
   </g>
   <g id="patch_147">
    <path clip-path="url(#p7c1a0e408a)" d="M 250.279029 325.921635 
L 250.788959 325.921635 
L 250.788959 324.72274 
L 250.279029 324.72274 
z
" style="fill:#1f77b4;"/>
   </g>
   <g id="patch_148">
    <path clip-path="url(#p7c1a0e408a)" d="M 250.916441 325.921635 
L 251.42637 325.921635 
L 251.42637 323.684411 
L 250.916441 323.684411 
z
" style="fill:#1f77b4;"/>
   </g>
   <g id="patch_149">
    <path clip-path="url(#p7c1a0e408a)" d="M 251.553852 325.921635 
L 252.063781 325.921635 
L 252.063781 324.075122 
L 251.553852 324.075122 
z
" style="fill:#1f77b4;"/>
   </g>
   <g id="patch_150">
    <path clip-path="url(#p7c1a0e408a)" d="M 252.191264 325.921635 
L 252.701193 325.921635 
L 252.701193 324.262449 
L 252.191264 324.262449 
z
" style="fill:#1f77b4;"/>
   </g>
   <g id="patch_151">
    <path clip-path="url(#p7c1a0e408a)" d="M 252.828675 325.921635 
L 253.338604 325.921635 
L 253.338604 324.679922 
L 252.828675 324.679922 
z
" style="fill:#1f77b4;"/>
   </g>
   <g id="patch_152">
    <path clip-path="url(#p7c1a0e408a)" d="M 253.466087 325.921635 
L 253.976016 325.921635 
L 253.976016 323.341869 
L 253.466087 323.341869 
z
" style="fill:#1f77b4;"/>
   </g>
   <g id="patch_153">
    <path clip-path="url(#p7c1a0e408a)" d="M 254.103498 325.921635 
L 254.613427 325.921635 
L 254.613427 323.234825 
L 254.103498 323.234825 
z
" style="fill:#1f77b4;"/>
   </g>
   <g id="patch_154">
    <path clip-path="url(#p7c1a0e408a)" d="M 254.740909 325.921635 
L 255.250838 325.921635 
L 255.250838 323.32046 
L 254.740909 323.32046 
z
" style="fill:#1f77b4;"/>
   </g>
   <g id="patch_155">
    <path clip-path="url(#p7c1a0e408a)" d="M 255.378321 325.921635 
L 255.88825 325.921635 
L 255.88825 324.032304 
L 255.378321 324.032304 
z
" style="fill:#1f77b4;"/>
   </g>
   <g id="patch_156">
    <path clip-path="url(#p7c1a0e408a)" d="M 256.015732 325.921635 
L 256.525661 325.921635 
L 256.525661 324.192871 
L 256.015732 324.192871 
z
" style="fill:#1f77b4;"/>
   </g>
   <g id="patch_157">
    <path clip-path="url(#p7c1a0e408a)" d="M 256.653144 325.921635 
L 257.163073 325.921635 
L 257.163073 319.830818 
L 256.653144 319.830818 
z
" style="fill:#1f77b4;"/>
   </g>
   <g id="patch_158">
    <path clip-path="url(#p7c1a0e408a)" d="M 257.290555 325.921635 
L 257.800484 325.921635 
L 257.800484 319.943215 
L 257.290555 319.943215 
z
" style="fill:#1f77b4;"/>
   </g>
   <g id="patch_159">
    <path clip-path="url(#p7c1a0e408a)" d="M 257.927966 325.921635 
L 258.437895 325.921635 
L 258.437895 320.162656 
L 257.927966 320.162656 
z
" style="fill:#1f77b4;"/>
   </g>
   <g id="patch_160">
    <path clip-path="url(#p7c1a0e408a)" d="M 258.565378 325.921635 
L 259.075307 325.921635 
L 259.075307 319.788001 
L 258.565378 319.788001 
z
" style="fill:#1f77b4;"/>
   </g>
   <g id="patch_161">
    <path clip-path="url(#p7c1a0e408a)" d="M 259.202789 325.921635 
L 259.712718 325.921635 
L 259.712718 319.381233 
L 259.202789 319.381233 
z
" style="fill:#1f77b4;"/>
   </g>
   <g id="patch_162">
    <path clip-path="url(#p7c1a0e408a)" d="M 259.840201 325.921635 
L 260.35013 325.921635 
L 260.35013 321.361551 
L 259.840201 321.361551 
z
" style="fill:#1f77b4;"/>
   </g>
   <g id="patch_163">
    <path clip-path="url(#p7c1a0e408a)" d="M 260.477612 325.921635 
L 260.987541 325.921635 
L 260.987541 320.965487 
L 260.477612 320.965487 
z
" style="fill:#1f77b4;"/>
   </g>
   <g id="patch_164">
    <path clip-path="url(#p7c1a0e408a)" d="M 261.115023 325.921635 
L 261.624952 325.921635 
L 261.624952 317.031612 
L 261.115023 317.031612 
z
" style="fill:#1f77b4;"/>
   </g>
   <g id="patch_165">
    <path clip-path="url(#p7c1a0e408a)" d="M 261.752435 325.921635 
L 262.262364 325.921635 
L 262.262364 314.093248 
L 261.752435 314.093248 
z
" style="fill:#1f77b4;"/>
   </g>
   <g id="patch_166">
    <path clip-path="url(#p7c1a0e408a)" d="M 262.389846 325.921635 
L 262.899775 325.921635 
L 262.899775 315.591867 
L 262.389846 315.591867 
z
" style="fill:#1f77b4;"/>
   </g>
   <g id="patch_167">
    <path clip-path="url(#p7c1a0e408a)" d="M 263.027258 325.921635 
L 263.537187 325.921635 
L 263.537187 316.389346 
L 263.027258 316.389346 
z
" style="fill:#1f77b4;"/>
   </g>
   <g id="patch_168">
    <path clip-path="url(#p7c1a0e408a)" d="M 263.664669 325.921635 
L 264.174598 325.921635 
L 264.174598 320.093077 
L 263.664669 320.093077 
z
" style="fill:#1f77b4;"/>
   </g>
   <g id="patch_169">
    <path clip-path="url(#p7c1a0e408a)" d="M 264.30208 325.921635 
L 264.81201 325.921635 
L 264.81201 318.203746 
L 264.30208 318.203746 
z
" style="fill:#1f77b4;"/>
   </g>
   <g id="patch_170">
    <path clip-path="url(#p7c1a0e408a)" d="M 264.939492 325.921635 
L 265.449421 325.921635 
L 265.449421 319.172496 
L 264.939492 319.172496 
z
" style="fill:#1f77b4;"/>
   </g>
   <g id="patch_171">
    <path clip-path="url(#p7c1a0e408a)" d="M 265.576903 325.921635 
L 266.086832 325.921635 
L 266.086832 316.116384 
L 265.576903 316.116384 
z
" style="fill:#1f77b4;"/>
   </g>
   <g id="patch_172">
    <path clip-path="url(#p7c1a0e408a)" d="M 266.214315 325.921635 
L 266.724244 325.921635 
L 266.724244 309.554572 
L 266.214315 309.554572 
z
" style="fill:#1f77b4;"/>
   </g>
   <g id="patch_173">
    <path clip-path="url(#p7c1a0e408a)" d="M 266.851726 325.921635 
L 267.361655 325.921635 
L 267.361655 314.65523 
L 266.851726 314.65523 
z
" style="fill:#1f77b4;"/>
   </g>
   <g id="patch_174">
    <path clip-path="url(#p7c1a0e408a)" d="M 267.489137 325.921635 
L 267.999067 325.921635 
L 267.999067 308.489482 
L 267.489137 308.489482 
z
" style="fill:#1f77b4;"/>
   </g>
   <g id="patch_175">
    <path clip-path="url(#p7c1a0e408a)" d="M 268.126549 325.921635 
L 268.636478 325.921635 
L 268.636478 310.309234 
L 268.126549 310.309234 
z
" style="fill:#1f77b4;"/>
   </g>
   <g id="patch_176">
    <path clip-path="url(#p7c1a0e408a)" d="M 268.76396 325.921635 
L 269.273889 325.921635 
L 269.273889 314.922841 
L 268.76396 314.922841 
z
" style="fill:#1f77b4;"/>
   </g>
   <g id="patch_177">
    <path clip-path="url(#p7c1a0e408a)" d="M 269.401372 325.921635 
L 269.911301 325.921635 
L 269.911301 315.607924 
L 269.401372 315.607924 
z
" style="fill:#1f77b4;"/>
   </g>
   <g id="patch_178">
    <path clip-path="url(#p7c1a0e408a)" d="M 270.038783 325.921635 
L 270.548712 325.921635 
L 270.548712 312.551811 
L 270.038783 312.551811 
z
" style="fill:#1f77b4;"/>
   </g>
   <g id="patch_179">
    <path clip-path="url(#p7c1a0e408a)" d="M 270.676194 325.921635 
L 271.186124 325.921635 
L 271.186124 311.588413 
L 270.676194 311.588413 
z
" style="fill:#1f77b4;"/>
   </g>
   <g id="patch_180">
    <path clip-path="url(#p7c1a0e408a)" d="M 271.313606 325.921635 
L 271.823535 325.921635 
L 271.823535 305.931125 
L 271.313606 305.931125 
z
" style="fill:#1f77b4;"/>
   </g>
   <g id="patch_181">
    <path clip-path="url(#p7c1a0e408a)" d="M 271.951017 325.921635 
L 272.460946 325.921635 
L 272.460946 307.172838 
L 271.951017 307.172838 
z
" style="fill:#1f77b4;"/>
   </g>
   <g id="patch_182">
    <path clip-path="url(#p7c1a0e408a)" d="M 272.588429 325.921635 
L 273.098358 325.921635 
L 273.098358 296.409541 
L 272.588429 296.409541 
z
" style="fill:#1f77b4;"/>
   </g>
   <g id="patch_183">
    <path clip-path="url(#p7c1a0e408a)" d="M 273.22584 325.921635 
L 273.735769 325.921635 
L 273.735769 307.836513 
L 273.22584 307.836513 
z
" style="fill:#1f77b4;"/>
   </g>
   <g id="patch_184">
    <path clip-path="url(#p7c1a0e408a)" d="M 273.863251 325.921635 
L 274.373181 325.921635 
L 274.373181 301.231884 
L 273.863251 301.231884 
z
" style="fill:#1f77b4;"/>
   </g>
   <g id="patch_185">
    <path clip-path="url(#p7c1a0e408a)" d="M 274.500663 325.921635 
L 275.010592 325.921635 
L 275.010592 297.099977 
L 274.500663 297.099977 
z
" style="fill:#1f77b4;"/>
   </g>
   <g id="patch_186">
    <path clip-path="url(#p7c1a0e408a)" d="M 275.138074 325.921635 
L 275.648003 325.921635 
L 275.648003 292.331156 
L 275.138074 292.331156 
z
" style="fill:#1f77b4;"/>
   </g>
   <g id="patch_187">
    <path clip-path="url(#p7c1a0e408a)" d="M 275.775486 325.921635 
L 276.285415 325.921635 
L 276.285415 287.289373 
L 275.775486 287.289373 
z
" style="fill:#1f77b4;"/>
   </g>
   <g id="patch_188">
    <path clip-path="url(#p7c1a0e408a)" d="M 276.412897 325.921635 
L 276.922826 325.921635 
L 276.922826 294.241896 
L 276.412897 294.241896 
z
" style="fill:#1f77b4;"/>
   </g>
   <g id="patch_189">
    <path clip-path="url(#p7c1a0e408a)" d="M 277.050308 325.921635 
L 277.560238 325.921635 
L 277.560238 298.641413 
L 277.050308 298.641413 
z
" style="fill:#1f77b4;"/>
   </g>
   <g id="patch_190">
    <path clip-path="url(#p7c1a0e408a)" d="M 277.68772 325.921635 
L 278.197649 325.921635 
L 278.197649 300.493279 
L 277.68772 300.493279 
z
" style="fill:#1f77b4;"/>
   </g>
   <g id="patch_191">
    <path clip-path="url(#p7c1a0e408a)" d="M 278.325131 325.921635 
L 278.83506 325.921635 
L 278.83506 290.420417 
L 278.325131 290.420417 
z
" style="fill:#1f77b4;"/>
   </g>
   <g id="patch_192">
    <path clip-path="url(#p7c1a0e408a)" d="M 278.962543 325.921635 
L 279.472472 325.921635 
L 279.472472 288.804049 
L 278.962543 288.804049 
z
" style="fill:#1f77b4;"/>
   </g>
   <g id="patch_193">
    <path clip-path="url(#p7c1a0e408a)" d="M 279.599954 325.921635 
L 280.109883 325.921635 
L 280.109883 269.707359 
L 279.599954 269.707359 
z
" style="fill:#1f77b4;"/>
   </g>
   <g id="patch_194">
    <path clip-path="url(#p7c1a0e408a)" d="M 280.237365 325.921635 
L 280.747295 325.921635 
L 280.747295 272.998969 
L 280.237365 272.998969 
z
" style="fill:#1f77b4;"/>
   </g>
   <g id="patch_195">
    <path clip-path="url(#p7c1a0e408a)" d="M 280.874777 325.921635 
L 281.384706 325.921635 
L 281.384706 271.21133 
L 280.874777 271.21133 
z
" style="fill:#1f77b4;"/>
   </g>
   <g id="patch_196">
    <path clip-path="url(#p7c1a0e408a)" d="M 281.512188 325.921635 
L 282.022117 325.921635 
L 282.022117 269.12932 
L 281.512188 269.12932 
z
" style="fill:#1f77b4;"/>
   </g>
   <g id="patch_197">
    <path clip-path="url(#p7c1a0e408a)" d="M 282.1496 325.921635 
L 282.659529 325.921635 
L 282.659529 289.740686 
L 282.1496 289.740686 
z
" style="fill:#1f77b4;"/>
   </g>
   <g id="patch_198">
    <path clip-path="url(#p7c1a0e408a)" d="M 282.787011 325.921635 
L 283.29694 325.921635 
L 283.29694 295.77798 
L 282.787011 295.77798 
z
" style="fill:#1f77b4;"/>
   </g>
   <g id="patch_199">
    <path clip-path="url(#p7c1a0e408a)" d="M 283.424423 325.921635 
L 283.934352 325.921635 
L 283.934352 276.370862 
L 283.424423 276.370862 
z
" style="fill:#1f77b4;"/>
   </g>
   <g id="patch_200">
    <path clip-path="url(#p7c1a0e408a)" d="M 284.061834 325.921635 
L 284.571763 325.921635 
L 284.571763 264.986708 
L 284.061834 264.986708 
z
" style="fill:#1f77b4;"/>
   </g>
   <g id="patch_201">
    <path clip-path="url(#p7c1a0e408a)" d="M 284.699245 325.921635 
L 285.209174 325.921635 
L 285.209174 251.290399 
L 284.699245 251.290399 
z
" style="fill:#1f77b4;"/>
   </g>
   <g id="patch_202">
    <path clip-path="url(#p7c1a0e408a)" d="M 285.336657 325.921635 
L 285.846586 325.921635 
L 285.846586 244.006039 
L 285.336657 244.006039 
z
" style="fill:#1f77b4;"/>
   </g>
   <g id="patch_203">
    <path clip-path="url(#p7c1a0e408a)" d="M 285.974068 325.921635 
L 286.483997 325.921635 
L 286.483997 246.071993 
L 285.974068 246.071993 
z
" style="fill:#1f77b4;"/>
   </g>
   <g id="patch_204">
    <path clip-path="url(#p7c1a0e408a)" d="M 286.61148 325.921635 
L 287.121409 325.921635 
L 287.121409 283.435781 
L 286.61148 283.435781 
z
" style="fill:#1f77b4;"/>
   </g>
   <g id="patch_205">
    <path clip-path="url(#p7c1a0e408a)" d="M 287.248891 325.921635 
L 287.75882 325.921635 
L 287.75882 255.593577 
L 287.248891 255.593577 
z
" style="fill:#1f77b4;"/>
   </g>
   <g id="patch_206">
    <path clip-path="url(#p7c1a0e408a)" d="M 287.886302 325.921635 
L 288.396231 325.921635 
L 288.396231 232.750339 
L 287.886302 232.750339 
z
" style="fill:#1f77b4;"/>
   </g>
   <g id="patch_207">
    <path clip-path="url(#p7c1a0e408a)" d="M 288.523714 325.921635 
L 289.033643 325.921635 
L 289.033643 219.139665 
L 288.523714 219.139665 
z
" style="fill:#1f77b4;"/>
   </g>
   <g id="patch_208">
    <path clip-path="url(#p7c1a0e408a)" d="M 289.161125 325.921635 
L 289.671054 325.921635 
L 289.671054 226.862906 
L 289.161125 226.862906 
z
" style="fill:#1f77b4;"/>
   </g>
   <g id="patch_209">
    <path clip-path="url(#p7c1a0e408a)" d="M 289.798537 325.921635 
L 290.308466 325.921635 
L 290.308466 214.579581 
L 289.798537 214.579581 
z
" style="fill:#1f77b4;"/>
   </g>
   <g id="patch_210">
    <path clip-path="url(#p7c1a0e408a)" d="M 290.435948 325.921635 
L 290.945877 325.921635 
L 290.945877 237.567329 
L 290.435948 237.567329 
z
" style="fill:#1f77b4;"/>
   </g>
   <g id="patch_211">
    <path clip-path="url(#p7c1a0e408a)" d="M 291.073359 325.921635 
L 291.583288 325.921635 
L 291.583288 241.287116 
L 291.073359 241.287116 
z
" style="fill:#1f77b4;"/>
   </g>
   <g id="patch_212">
    <path clip-path="url(#p7c1a0e408a)" d="M 291.710771 325.921635 
L 292.2207 325.921635 
L 292.2207 263.37034 
L 291.710771 263.37034 
z
" style="fill:#1f77b4;"/>
   </g>
   <g id="patch_213">
    <path clip-path="url(#p7c1a0e408a)" d="M 292.348182 325.921635 
L 292.858111 325.921635 
L 292.858111 238.552136 
L 292.348182 238.552136 
z
" style="fill:#1f77b4;"/>
   </g>
   <g id="patch_214">
    <path clip-path="url(#p7c1a0e408a)" d="M 292.985594 325.921635 
L 293.495523 325.921635 
L 293.495523 215.671432 
L 292.985594 215.671432 
z
" style="fill:#1f77b4;"/>
   </g>
   <g id="patch_215">
    <path clip-path="url(#p7c1a0e408a)" d="M 293.623005 325.921635 
L 294.132934 325.921635 
L 294.132934 184.532266 
L 293.623005 184.532266 
z
" style="fill:#1f77b4;"/>
   </g>
   <g id="patch_216">
    <path clip-path="url(#p7c1a0e408a)" d="M 294.260416 325.921635 
L 294.770346 325.921635 
L 294.770346 181.797286 
L 294.260416 181.797286 
z
" style="fill:#1f77b4;"/>
   </g>
   <g id="patch_217">
    <path clip-path="url(#p7c1a0e408a)" d="M 294.897828 325.921635 
L 295.407757 325.921635 
L 295.407757 147.832152 
L 294.897828 147.832152 
z
" style="fill:#1f77b4;"/>
   </g>
   <g id="patch_218">
    <path clip-path="url(#p7c1a0e408a)" d="M 295.535239 325.921635 
L 296.045168 325.921635 
L 296.045168 241.570783 
L 295.535239 241.570783 
z
" style="fill:#1f77b4;"/>
   </g>
   <g id="patch_219">
    <path clip-path="url(#p7c1a0e408a)" d="M 296.172651 325.921635 
L 296.68258 325.921635 
L 296.68258 260.373102 
L 296.172651 260.373102 
z
" style="fill:#1f77b4;"/>
   </g>
   <g id="patch_220">
    <path clip-path="url(#p7c1a0e408a)" d="M 296.810062 325.921635 
L 297.319991 325.921635 
L 297.319991 171.050045 
L 296.810062 171.050045 
z
" style="fill:#1f77b4;"/>
   </g>
   <g id="patch_221">
    <path clip-path="url(#p7c1a0e408a)" d="M 297.447473 325.921635 
L 297.957403 325.921635 
L 297.957403 172.671766 
L 297.447473 172.671766 
z
" style="fill:#1f77b4;"/>
   </g>
   <g id="patch_222">
    <path clip-path="url(#p7c1a0e408a)" d="M 298.084885 325.921635 
L 298.594814 325.921635 
L 298.594814 160.404497 
L 298.084885 160.404497 
z
" style="fill:#1f77b4;"/>
   </g>
   <g id="patch_223">
    <path clip-path="url(#p7c1a0e408a)" d="M 298.722296 325.921635 
L 299.232225 325.921635 
L 299.232225 160.912957 
L 298.722296 160.912957 
z
" style="fill:#1f77b4;"/>
   </g>
   <g id="patch_224">
    <path clip-path="url(#p7c1a0e408a)" d="M 299.359708 325.921635 
L 299.869637 325.921635 
L 299.869637 181.010511 
L 299.359708 181.010511 
z
" style="fill:#1f77b4;"/>
   </g>
   <g id="patch_225">
    <path clip-path="url(#p7c1a0e408a)" d="M 299.997119 325.921635 
L 300.507048 325.921635 
L 300.507048 224.700613 
L 299.997119 224.700613 
z
" style="fill:#1f77b4;"/>
   </g>
   <g id="patch_226">
    <path clip-path="url(#p7c1a0e408a)" d="M 300.63453 325.921635 
L 301.14446 325.921635 
L 301.14446 242.138118 
L 300.63453 242.138118 
z
" style="fill:#1f77b4;"/>
   </g>
   <g id="patch_227">
    <path clip-path="url(#p7c1a0e408a)" d="M 301.271942 325.921635 
L 301.781871 325.921635 
L 301.781871 154.163818 
L 301.271942 154.163818 
z
" style="fill:#1f77b4;"/>
   </g>
   <g id="patch_228">
    <path clip-path="url(#p7c1a0e408a)" d="M 301.909353 325.921635 
L 302.419282 325.921635 
L 302.419282 149.764301 
L 301.909353 149.764301 
z
" style="fill:#1f77b4;"/>
   </g>
   <g id="patch_229">
    <path clip-path="url(#p7c1a0e408a)" d="M 302.546765 325.921635 
L 303.056694 325.921635 
L 303.056694 163.150181 
L 302.546765 163.150181 
z
" style="fill:#1f77b4;"/>
   </g>
   <g id="patch_230">
    <path clip-path="url(#p7c1a0e408a)" d="M 303.184176 325.921635 
L 303.694105 325.921635 
L 303.694105 186.860478 
L 303.184176 186.860478 
z
" style="fill:#1f77b4;"/>
   </g>
   <g id="patch_231">
    <path clip-path="url(#p7c1a0e408a)" d="M 303.821587 325.921635 
L 304.331517 325.921635 
L 304.331517 209.757238 
L 303.821587 209.757238 
z
" style="fill:#1f77b4;"/>
   </g>
   <g id="patch_232">
    <path clip-path="url(#p7c1a0e408a)" d="M 304.458999 325.921635 
L 304.968928 325.921635 
L 304.968928 234.345298 
L 304.458999 234.345298 
z
" style="fill:#1f77b4;"/>
   </g>
   <g id="patch_233">
    <path clip-path="url(#p7c1a0e408a)" d="M 305.09641 325.921635 
L 305.606339 325.921635 
L 305.606339 215.414526 
L 305.09641 215.414526 
z
" style="fill:#1f77b4;"/>
   </g>
   <g id="patch_234">
    <path clip-path="url(#p7c1a0e408a)" d="M 305.733822 325.921635 
L 306.243751 325.921635 
L 306.243751 139.033117 
L 305.733822 139.033117 
z
" style="fill:#1f77b4;"/>
   </g>
   <g id="patch_235">
    <path clip-path="url(#p7c1a0e408a)" d="M 306.371233 325.921635 
L 306.881162 325.921635 
L 306.881162 153.644654 
L 306.371233 153.644654 
z
" style="fill:#1f77b4;"/>
   </g>
   <g id="patch_236">
    <path clip-path="url(#p7c1a0e408a)" d="M 307.008644 325.921635 
L 307.518574 325.921635 
L 307.518574 204.078542 
L 307.008644 204.078542 
z
" style="fill:#1f77b4;"/>
   </g>
   <g id="patch_237">
    <path clip-path="url(#p7c1a0e408a)" d="M 307.646056 325.921635 
L 308.155985 325.921635 
L 308.155985 32.775664 
L 307.646056 32.775664 
z
" style="fill:#1f77b4;"/>
   </g>
   <g id="patch_238">
    <path clip-path="url(#p7c1a0e408a)" d="M 308.283467 325.921635 
L 308.793396 325.921635 
L 308.793396 140.381874 
L 308.283467 140.381874 
z
" style="fill:#1f77b4;"/>
   </g>
   <g id="patch_239">
    <path clip-path="url(#p7c1a0e408a)" d="M 308.920879 325.921635 
L 309.430808 325.921635 
L 309.430808 232.477376 
L 308.920879 232.477376 
z
" style="fill:#1f77b4;"/>
   </g>
   <g id="matplotlib.axis_3">
    <g id="xtick_3">
     <g id="line2d_10">
      <g>
       <use style="stroke:#000000;stroke-width:0.8;" x="235.873532" xlink:href="#m3af0c2ca74" y="325.921635"/>
      </g>
     </g>
     <g id="text_11">
      <!-- 0 -->
      <g transform="translate(232.692282 340.520072)scale(0.1 -0.1)">
       <use xlink:href="#DejaVuSans-48"/>
      </g>
     </g>
    </g>
    <g id="xtick_4">
     <g id="line2d_11">
      <g>
       <use style="stroke:#000000;stroke-width:0.8;" x="299.614672" xlink:href="#m3af0c2ca74" y="325.921635"/>
      </g>
     </g>
     <g id="text_12">
      <!-- 100 -->
      <g transform="translate(290.070922 340.520072)scale(0.1 -0.1)">
       <use xlink:href="#DejaVuSans-49"/>
       <use x="63.623047" xlink:href="#DejaVuSans-48"/>
       <use x="127.246094" xlink:href="#DejaVuSans-48"/>
      </g>
     </g>
    </g>
   </g>
   <g id="matplotlib.axis_4">
    <g id="ytick_7">
     <g id="line2d_12">
      <g>
       <use style="stroke:#000000;stroke-width:0.8;" x="231.927955" xlink:href="#ma270eee22a" y="325.921635"/>
      </g>
     </g>
     <g id="text_13">
      <!-- 0 -->
      <g transform="translate(218.565455 329.720854)scale(0.1 -0.1)">
       <use xlink:href="#DejaVuSans-48"/>
      </g>
     </g>
    </g>
    <g id="ytick_8">
     <g id="line2d_13">
      <g>
       <use style="stroke:#000000;stroke-width:0.8;" x="231.927955" xlink:href="#ma270eee22a" y="272.399521"/>
      </g>
     </g>
     <g id="text_14">
      <!-- 10000 -->
      <g transform="translate(193.115455 276.19874)scale(0.1 -0.1)">
       <use xlink:href="#DejaVuSans-49"/>
       <use x="63.623047" xlink:href="#DejaVuSans-48"/>
       <use x="127.246094" xlink:href="#DejaVuSans-48"/>
       <use x="190.869141" xlink:href="#DejaVuSans-48"/>
       <use x="254.492188" xlink:href="#DejaVuSans-48"/>
      </g>
     </g>
    </g>
    <g id="ytick_9">
     <g id="line2d_14">
      <g>
       <use style="stroke:#000000;stroke-width:0.8;" x="231.927955" xlink:href="#ma270eee22a" y="218.877407"/>
      </g>
     </g>
     <g id="text_15">
      <!-- 20000 -->
      <g transform="translate(193.115455 222.676625)scale(0.1 -0.1)">
       <use xlink:href="#DejaVuSans-50"/>
       <use x="63.623047" xlink:href="#DejaVuSans-48"/>
       <use x="127.246094" xlink:href="#DejaVuSans-48"/>
       <use x="190.869141" xlink:href="#DejaVuSans-48"/>
       <use x="254.492188" xlink:href="#DejaVuSans-48"/>
      </g>
     </g>
    </g>
    <g id="ytick_10">
     <g id="line2d_15">
      <g>
       <use style="stroke:#000000;stroke-width:0.8;" x="231.927955" xlink:href="#ma270eee22a" y="165.355293"/>
      </g>
     </g>
     <g id="text_16">
      <!-- 30000 -->
      <defs>
       <path d="M 40.578125 39.3125 
Q 47.65625 37.796875 51.625 33 
Q 55.609375 28.21875 55.609375 21.1875 
Q 55.609375 10.40625 48.1875 4.484375 
Q 40.765625 -1.421875 27.09375 -1.421875 
Q 22.515625 -1.421875 17.65625 -0.515625 
Q 12.796875 0.390625 7.625 2.203125 
L 7.625 11.71875 
Q 11.71875 9.328125 16.59375 8.109375 
Q 21.484375 6.890625 26.8125 6.890625 
Q 36.078125 6.890625 40.9375 10.546875 
Q 45.796875 14.203125 45.796875 21.1875 
Q 45.796875 27.640625 41.28125 31.265625 
Q 36.765625 34.90625 28.71875 34.90625 
L 20.21875 34.90625 
L 20.21875 43.015625 
L 29.109375 43.015625 
Q 36.375 43.015625 40.234375 45.921875 
Q 44.09375 48.828125 44.09375 54.296875 
Q 44.09375 59.90625 40.109375 62.90625 
Q 36.140625 65.921875 28.71875 65.921875 
Q 24.65625 65.921875 20.015625 65.03125 
Q 15.375 64.15625 9.8125 62.3125 
L 9.8125 71.09375 
Q 15.4375 72.65625 20.34375 73.4375 
Q 25.25 74.21875 29.59375 74.21875 
Q 40.828125 74.21875 47.359375 69.109375 
Q 53.90625 64.015625 53.90625 55.328125 
Q 53.90625 49.265625 50.4375 45.09375 
Q 46.96875 40.921875 40.578125 39.3125 
z
" id="DejaVuSans-51"/>
      </defs>
      <g transform="translate(193.115455 169.154511)scale(0.1 -0.1)">
       <use xlink:href="#DejaVuSans-51"/>
       <use x="63.623047" xlink:href="#DejaVuSans-48"/>
       <use x="127.246094" xlink:href="#DejaVuSans-48"/>
       <use x="190.869141" xlink:href="#DejaVuSans-48"/>
       <use x="254.492188" xlink:href="#DejaVuSans-48"/>
      </g>
     </g>
    </g>
    <g id="ytick_11">
     <g id="line2d_16">
      <g>
       <use style="stroke:#000000;stroke-width:0.8;" x="231.927955" xlink:href="#ma270eee22a" y="111.833178"/>
      </g>
     </g>
     <g id="text_17">
      <!-- 40000 -->
      <g transform="translate(193.115455 115.632397)scale(0.1 -0.1)">
       <use xlink:href="#DejaVuSans-52"/>
       <use x="63.623047" xlink:href="#DejaVuSans-48"/>
       <use x="127.246094" xlink:href="#DejaVuSans-48"/>
       <use x="190.869141" xlink:href="#DejaVuSans-48"/>
       <use x="254.492188" xlink:href="#DejaVuSans-48"/>
      </g>
     </g>
    </g>
    <g id="ytick_12">
     <g id="line2d_17">
      <g>
       <use style="stroke:#000000;stroke-width:0.8;" x="231.927955" xlink:href="#ma270eee22a" y="58.311064"/>
      </g>
     </g>
     <g id="text_18">
      <!-- 50000 -->
      <defs>
       <path d="M 10.796875 72.90625 
L 49.515625 72.90625 
L 49.515625 64.59375 
L 19.828125 64.59375 
L 19.828125 46.734375 
Q 21.96875 47.46875 24.109375 47.828125 
Q 26.265625 48.1875 28.421875 48.1875 
Q 40.625 48.1875 47.75 41.5 
Q 54.890625 34.8125 54.890625 23.390625 
Q 54.890625 11.625 47.5625 5.09375 
Q 40.234375 -1.421875 26.90625 -1.421875 
Q 22.3125 -1.421875 17.546875 -0.640625 
Q 12.796875 0.140625 7.71875 1.703125 
L 7.71875 11.625 
Q 12.109375 9.234375 16.796875 8.0625 
Q 21.484375 6.890625 26.703125 6.890625 
Q 35.15625 6.890625 40.078125 11.328125 
Q 45.015625 15.765625 45.015625 23.390625 
Q 45.015625 31 40.078125 35.4375 
Q 35.15625 39.890625 26.703125 39.890625 
Q 22.75 39.890625 18.8125 39.015625 
Q 14.890625 38.140625 10.796875 36.28125 
z
" id="DejaVuSans-53"/>
      </defs>
      <g transform="translate(193.115455 62.110283)scale(0.1 -0.1)">
       <use xlink:href="#DejaVuSans-53"/>
       <use x="63.623047" xlink:href="#DejaVuSans-48"/>
       <use x="127.246094" xlink:href="#DejaVuSans-48"/>
       <use x="190.869141" xlink:href="#DejaVuSans-48"/>
       <use x="254.492188" xlink:href="#DejaVuSans-48"/>
      </g>
     </g>
    </g>
   </g>
   <g id="line2d_18">
    <path clip-path="url(#p7c1a0e408a)" d="M 235.873532 325.919515 
L 236.510943 325.918372 
L 237.148355 325.91676 
L 237.785766 325.914682 
L 238.423177 325.91194 
L 239.060589 325.908289 
L 239.698 325.903407 
L 240.335412 325.896909 
L 240.972823 325.888271 
L 241.610234 325.876709 
L 242.247646 325.860913 
L 242.885057 325.839212 
L 243.522469 325.809626 
L 244.15988 325.769711 
L 244.797291 325.716717 
L 245.434703 325.648367 
L 246.072114 325.562729 
L 246.709526 325.459051 
L 247.346937 325.337236 
L 247.984348 325.199127 
L 248.62176 325.048464 
L 249.259171 324.888538 
L 249.896583 324.720539 
L 250.533994 324.545194 
L 251.171405 324.361536 
L 251.808817 324.167405 
L 252.446228 323.95699 
L 253.08364 323.720984 
L 253.721051 323.452868 
L 254.358462 323.149232 
L 254.995874 322.807178 
L 255.633285 322.425821 
L 256.270697 322.008185 
L 256.908108 321.560512 
L 257.545519 321.093167 
L 258.182931 320.614658 
L 258.820342 320.133206 
L 259.457754 319.659026 
L 260.095165 319.199469 
L 260.732577 318.752585 
L 261.369988 318.315521 
L 262.007399 317.882096 
L 262.644811 317.44414 
L 263.282222 316.994661 
L 263.919634 316.519819 
L 264.557045 316.012284 
L 265.194456 315.473693 
L 265.831868 314.903995 
L 266.469279 314.300713 
L 267.106691 313.659409 
L 267.744102 312.961847 
L 268.381513 312.193663 
L 269.018925 311.328297 
L 269.656336 310.344963 
L 270.293748 309.22589 
L 270.931159 307.963055 
L 271.56857 306.560219 
L 272.205982 305.040208 
L 272.843393 303.432684 
L 273.480805 301.775513 
L 274.118216 300.078194 
L 274.755627 298.34743 
L 275.393039 296.589189 
L 276.03045 294.796805 
L 276.667862 292.965002 
L 277.305273 291.077662 
L 277.942684 289.120503 
L 278.580096 287.115091 
L 279.217507 285.087579 
L 279.854919 283.033168 
L 280.49233 280.940496 
L 281.129741 278.764756 
L 281.767153 276.468002 
L 282.404564 274.010632 
L 283.041976 271.34051 
L 283.679387 268.385443 
L 284.316798 265.137885 
L 284.95421 261.635131 
L 285.591621 257.97384 
L 286.229033 254.242388 
L 286.866444 250.527866 
L 287.503856 246.8741 
L 288.141267 243.374298 
L 288.778678 240.058261 
L 289.41609 236.871102 
L 290.053501 233.689042 
L 290.690913 230.409661 
L 291.328324 226.937367 
L 291.965735 223.301483 
L 292.603147 219.473916 
L 293.240558 215.449176 
L 293.87797 211.324498 
L 294.515381 207.256066 
L 295.152792 203.388637 
L 295.790204 199.875166 
L 296.427615 196.730542 
L 297.065027 194.012662 
L 297.702438 191.784091 
L 298.339849 190.035434 
L 298.977261 188.73525 
L 299.614672 187.853198 
L 300.252084 187.249901 
L 300.889495 186.799996 
L 301.526906 186.344098 
L 302.164318 185.658604 
L 302.801729 184.546399 
L 303.439141 182.827635 
L 304.076552 180.251411 
L 304.713963 176.801033 
L 305.351375 172.601424 
L 305.988786 167.990219 
L 306.626198 163.177584 
L 307.263609 158.42242 
L 307.90102 155.27762 
L 308.538432 152.412591 
L 309.175843 149.992796 
" style="fill:none;stroke:#ff0000;stroke-linecap:square;stroke-width:1.5;"/>
   </g>
   <g id="patch_240">
    <path d="M 231.927955 325.921635 
L 231.927955 18.118365 
" style="fill:none;stroke:#000000;stroke-linecap:square;stroke-linejoin:miter;stroke-width:0.8;"/>
   </g>
   <g id="patch_241">
    <path d="M 313.12142 325.921635 
L 313.12142 18.118365 
" style="fill:none;stroke:#000000;stroke-linecap:square;stroke-linejoin:miter;stroke-width:0.8;"/>
   </g>
   <g id="patch_242">
    <path d="M 231.927955 325.921635 
L 313.12142 325.921635 
" style="fill:none;stroke:#000000;stroke-linecap:square;stroke-linejoin:miter;stroke-width:0.8;"/>
   </g>
   <g id="patch_243">
    <path d="M 231.927955 18.118365 
L 313.12142 18.118365 
" style="fill:none;stroke:#000000;stroke-linecap:square;stroke-linejoin:miter;stroke-width:0.8;"/>
   </g>
   <g id="text_19">
    <!-- Casos novos - BR - (data) -->
    <defs>
     <path d="M 54.890625 33.015625 
L 54.890625 0 
L 45.90625 0 
L 45.90625 32.71875 
Q 45.90625 40.484375 42.875 44.328125 
Q 39.84375 48.1875 33.796875 48.1875 
Q 26.515625 48.1875 22.3125 43.546875 
Q 18.109375 38.921875 18.109375 30.90625 
L 18.109375 0 
L 9.078125 0 
L 9.078125 54.6875 
L 18.109375 54.6875 
L 18.109375 46.1875 
Q 21.34375 51.125 25.703125 53.5625 
Q 30.078125 56 35.796875 56 
Q 45.21875 56 50.046875 50.171875 
Q 54.890625 44.34375 54.890625 33.015625 
z
" id="DejaVuSans-110"/>
     <path d="M 2.984375 54.6875 
L 12.5 54.6875 
L 29.59375 8.796875 
L 46.6875 54.6875 
L 56.203125 54.6875 
L 35.6875 0 
L 23.484375 0 
z
" id="DejaVuSans-118"/>
    </defs>
    <g transform="translate(196.5675 12.118365)scale(0.12 -0.12)">
     <use xlink:href="#DejaVuSans-67"/>
     <use x="69.824219" xlink:href="#DejaVuSans-97"/>
     <use x="131.103516" xlink:href="#DejaVuSans-115"/>
     <use x="183.203125" xlink:href="#DejaVuSans-111"/>
     <use x="244.384766" xlink:href="#DejaVuSans-115"/>
     <use x="296.484375" xlink:href="#DejaVuSans-32"/>
     <use x="328.271484" xlink:href="#DejaVuSans-110"/>
     <use x="391.650391" xlink:href="#DejaVuSans-111"/>
     <use x="452.832031" xlink:href="#DejaVuSans-118"/>
     <use x="512.011719" xlink:href="#DejaVuSans-111"/>
     <use x="573.193359" xlink:href="#DejaVuSans-115"/>
     <use x="625.292969" xlink:href="#DejaVuSans-32"/>
     <use x="657.080078" xlink:href="#DejaVuSans-45"/>
     <use x="693.164062" xlink:href="#DejaVuSans-32"/>
     <use x="724.951172" xlink:href="#DejaVuSans-66"/>
     <use x="793.554688" xlink:href="#DejaVuSans-82"/>
     <use x="863.037109" xlink:href="#DejaVuSans-32"/>
     <use x="894.824219" xlink:href="#DejaVuSans-45"/>
     <use x="930.908203" xlink:href="#DejaVuSans-32"/>
     <use x="962.695312" xlink:href="#DejaVuSans-40"/>
     <use x="1001.708984" xlink:href="#DejaVuSans-100"/>
     <use x="1065.185547" xlink:href="#DejaVuSans-97"/>
     <use x="1126.464844" xlink:href="#DejaVuSans-116"/>
     <use x="1165.673828" xlink:href="#DejaVuSans-97"/>
     <use x="1226.953125" xlink:href="#DejaVuSans-41"/>
    </g>
   </g>
  </g>
  <g id="axes_3">
   <g id="patch_244">
    <path d="M 376.468535 325.921635 
L 457.662 325.921635 
L 457.662 18.118365 
L 376.468535 18.118365 
z
" style="fill:#ffffff;"/>
   </g>
   <g id="matplotlib.axis_5">
    <g id="xtick_5">
     <g id="line2d_19">
      <g>
       <use style="stroke:#000000;stroke-width:0.8;" x="380.159147" xlink:href="#m3af0c2ca74" y="325.921635"/>
      </g>
     </g>
     <g id="text_20">
      <!-- 0 -->
      <g transform="translate(376.977897 340.520072)scale(0.1 -0.1)">
       <use xlink:href="#DejaVuSans-48"/>
      </g>
     </g>
    </g>
    <g id="xtick_6">
     <g id="line2d_20">
      <g>
       <use style="stroke:#000000;stroke-width:0.8;" x="444.343704" xlink:href="#m3af0c2ca74" y="325.921635"/>
      </g>
     </g>
     <g id="text_21">
      <!-- 100 -->
      <g transform="translate(434.799954 340.520072)scale(0.1 -0.1)">
       <use xlink:href="#DejaVuSans-49"/>
       <use x="63.623047" xlink:href="#DejaVuSans-48"/>
       <use x="127.246094" xlink:href="#DejaVuSans-48"/>
      </g>
     </g>
    </g>
   </g>
   <g id="matplotlib.axis_6">
    <g id="ytick_13">
     <g id="line2d_21">
      <g>
       <use style="stroke:#000000;stroke-width:0.8;" x="376.468535" xlink:href="#ma270eee22a" y="322.004274"/>
      </g>
     </g>
     <g id="text_22">
      <!-- 1.0 -->
      <g transform="translate(353.56541 325.803492)scale(0.1 -0.1)">
       <use xlink:href="#DejaVuSans-49"/>
       <use x="63.623047" xlink:href="#DejaVuSans-46"/>
       <use x="95.410156" xlink:href="#DejaVuSans-48"/>
      </g>
     </g>
    </g>
    <g id="ytick_14">
     <g id="line2d_22">
      <g>
       <use style="stroke:#000000;stroke-width:0.8;" x="376.468535" xlink:href="#ma270eee22a" y="268.546402"/>
      </g>
     </g>
     <g id="text_23">
      <!-- 1.5 -->
      <g transform="translate(353.56541 272.345621)scale(0.1 -0.1)">
       <use xlink:href="#DejaVuSans-49"/>
       <use x="63.623047" xlink:href="#DejaVuSans-46"/>
       <use x="95.410156" xlink:href="#DejaVuSans-53"/>
      </g>
     </g>
    </g>
    <g id="ytick_15">
     <g id="line2d_23">
      <g>
       <use style="stroke:#000000;stroke-width:0.8;" x="376.468535" xlink:href="#ma270eee22a" y="215.08853"/>
      </g>
     </g>
     <g id="text_24">
      <!-- 2.0 -->
      <g transform="translate(353.56541 218.887749)scale(0.1 -0.1)">
       <use xlink:href="#DejaVuSans-50"/>
       <use x="63.623047" xlink:href="#DejaVuSans-46"/>
       <use x="95.410156" xlink:href="#DejaVuSans-48"/>
      </g>
     </g>
    </g>
    <g id="ytick_16">
     <g id="line2d_24">
      <g>
       <use style="stroke:#000000;stroke-width:0.8;" x="376.468535" xlink:href="#ma270eee22a" y="161.630659"/>
      </g>
     </g>
     <g id="text_25">
      <!-- 2.5 -->
      <g transform="translate(353.56541 165.429878)scale(0.1 -0.1)">
       <use xlink:href="#DejaVuSans-50"/>
       <use x="63.623047" xlink:href="#DejaVuSans-46"/>
       <use x="95.410156" xlink:href="#DejaVuSans-53"/>
      </g>
     </g>
    </g>
    <g id="ytick_17">
     <g id="line2d_25">
      <g>
       <use style="stroke:#000000;stroke-width:0.8;" x="376.468535" xlink:href="#ma270eee22a" y="108.172787"/>
      </g>
     </g>
     <g id="text_26">
      <!-- 3.0 -->
      <g transform="translate(353.56541 111.972006)scale(0.1 -0.1)">
       <use xlink:href="#DejaVuSans-51"/>
       <use x="63.623047" xlink:href="#DejaVuSans-46"/>
       <use x="95.410156" xlink:href="#DejaVuSans-48"/>
      </g>
     </g>
    </g>
    <g id="ytick_18">
     <g id="line2d_26">
      <g>
       <use style="stroke:#000000;stroke-width:0.8;" x="376.468535" xlink:href="#ma270eee22a" y="54.714916"/>
      </g>
     </g>
     <g id="text_27">
      <!-- 3.5 -->
      <g transform="translate(353.56541 58.514135)scale(0.1 -0.1)">
       <use xlink:href="#DejaVuSans-51"/>
       <use x="63.623047" xlink:href="#DejaVuSans-46"/>
       <use x="95.410156" xlink:href="#DejaVuSans-53"/>
      </g>
     </g>
    </g>
   </g>
   <g id="line2d_27">
    <path clip-path="url(#p0222e20b91)" d="M 380.159147 32.109423 
L 380.800993 54.401752 
L 381.442838 69.537885 
L 382.084684 93.80472 
L 382.726529 106.015976 
L 383.368375 113.065274 
L 384.010221 117.470295 
L 384.652066 121.305513 
L 385.293912 124.282817 
L 385.935757 125.454298 
L 386.577603 123.342835 
L 387.219448 120.933298 
L 387.861294 120.283463 
L 388.50314 121.352977 
L 389.144985 124.498732 
L 389.786831 130.977915 
L 390.428676 139.768241 
L 391.070522 150.821836 
L 391.712367 162.795078 
L 392.354213 175.995518 
L 392.996059 190.200826 
L 393.637904 203.746254 
L 394.27975 215.144701 
L 394.921595 224.670463 
L 395.563441 232.048308 
L 396.205286 237.43163 
L 396.847132 240.145294 
L 397.488978 240.026357 
L 398.130823 238.976288 
L 398.772669 238.262754 
L 399.414514 238.014211 
L 400.05636 238.562173 
L 400.698205 240.357476 
L 401.340051 243.447128 
L 401.981897 247.907541 
L 402.623742 252.950382 
L 403.265588 258.274364 
L 403.907433 263.956285 
L 404.549279 269.556998 
L 405.191124 274.146885 
L 405.83297 277.852688 
L 406.474816 280.547026 
L 407.116661 282.246297 
L 407.758507 283.225481 
L 408.400352 283.082097 
L 409.042198 282.510211 
L 409.684043 282.227773 
L 410.325889 282.077336 
L 410.967735 281.888441 
L 411.60958 281.559654 
L 412.251426 280.354644 
L 412.893271 278.681453 
L 413.535117 276.077273 
L 414.176962 273.092921 
L 414.818808 270.049354 
L 415.460653 267.464821 
L 416.102499 265.760744 
L 416.744345 265.432122 
L 417.38619 266.365784 
L 418.028036 268.478617 
L 418.669881 270.669415 
L 419.311727 272.824121 
L 419.953572 274.912502 
L 420.595418 276.636205 
L 421.237264 278.087635 
L 421.879109 279.082492 
L 422.520955 279.73906 
L 423.1628 280.794775 
L 423.804646 282.249631 
L 424.446491 283.490577 
L 425.088337 284.439651 
L 425.730183 284.61508 
L 426.372028 284.249771 
L 427.013874 283.417406 
L 427.655719 282.041283 
L 428.297565 279.984672 
L 428.93941 278.20243 
L 429.581256 277.192365 
L 430.223102 277.467447 
L 430.864947 278.691449 
L 431.506793 280.665727 
L 432.148638 282.840234 
L 432.790484 285.628177 
L 433.432329 288.383248 
L 434.074175 290.395154 
L 434.716021 291.192248 
L 435.357866 291.095287 
L 435.999712 290.267827 
L 436.641557 289.74003 
L 437.283403 289.060564 
L 437.925248 288.409056 
L 438.567094 288.474672 
L 439.20894 289.547774 
L 439.850785 291.433466 
L 440.492631 294.10047 
L 441.134476 296.653575 
L 441.776322 299.382011 
L 442.418167 302.329287 
L 443.060013 305.09394 
L 443.701859 307.585814 
L 444.343704 309.845986 
L 444.98555 311.261122 
L 445.627395 311.930577 
L 446.269241 311.66139 
L 446.911086 310.084062 
L 447.552932 307.375587 
L 448.194778 303.684703 
L 448.836623 298.697225 
L 449.478469 293.849137 
L 450.120314 289.952338 
L 450.76216 288.054924 
L 451.404005 287.328974 
L 452.045851 287.893111 
L 452.687697 295.850481 
L 453.329542 297.076516 
L 453.971388 299.021585 
" style="fill:none;stroke:#ff0000;stroke-linecap:square;stroke-width:1.5;"/>
   </g>
   <g id="patch_245">
    <path d="M 376.468535 325.921635 
L 376.468535 18.118365 
" style="fill:none;stroke:#000000;stroke-linecap:square;stroke-linejoin:miter;stroke-width:0.8;"/>
   </g>
   <g id="patch_246">
    <path d="M 457.662 325.921635 
L 457.662 18.118365 
" style="fill:none;stroke:#000000;stroke-linecap:square;stroke-linejoin:miter;stroke-width:0.8;"/>
   </g>
   <g id="patch_247">
    <path d="M 376.468535 325.921635 
L 457.662 325.921635 
" style="fill:none;stroke:#000000;stroke-linecap:square;stroke-linejoin:miter;stroke-width:0.8;"/>
   </g>
   <g id="patch_248">
    <path d="M 376.468535 18.118365 
L 457.662 18.118365 
" style="fill:none;stroke:#000000;stroke-linecap:square;stroke-linejoin:miter;stroke-width:0.8;"/>
   </g>
   <g id="text_28">
    <!-- r0 - BR - (data) -->
    <defs>
     <path d="M 41.109375 46.296875 
Q 39.59375 47.171875 37.8125 47.578125 
Q 36.03125 48 33.890625 48 
Q 26.265625 48 22.1875 43.046875 
Q 18.109375 38.09375 18.109375 28.8125 
L 18.109375 0 
L 9.078125 0 
L 9.078125 54.6875 
L 18.109375 54.6875 
L 18.109375 46.1875 
Q 20.953125 51.171875 25.484375 53.578125 
Q 30.03125 56 36.53125 56 
Q 37.453125 56 38.578125 55.875 
Q 39.703125 55.765625 41.0625 55.515625 
z
" id="DejaVuSans-114"/>
    </defs>
    <g transform="translate(372.34183 12.118365)scale(0.12 -0.12)">
     <use xlink:href="#DejaVuSans-114"/>
     <use x="41.113281" xlink:href="#DejaVuSans-48"/>
     <use x="104.736328" xlink:href="#DejaVuSans-32"/>
     <use x="136.523438" xlink:href="#DejaVuSans-45"/>
     <use x="172.607422" xlink:href="#DejaVuSans-32"/>
     <use x="204.394531" xlink:href="#DejaVuSans-66"/>
     <use x="272.998047" xlink:href="#DejaVuSans-82"/>
     <use x="342.480469" xlink:href="#DejaVuSans-32"/>
     <use x="374.267578" xlink:href="#DejaVuSans-45"/>
     <use x="410.351562" xlink:href="#DejaVuSans-32"/>
     <use x="442.138672" xlink:href="#DejaVuSans-40"/>
     <use x="481.152344" xlink:href="#DejaVuSans-100"/>
     <use x="544.628906" xlink:href="#DejaVuSans-97"/>
     <use x="605.908203" xlink:href="#DejaVuSans-116"/>
     <use x="645.117188" xlink:href="#DejaVuSans-97"/>
     <use x="706.396484" xlink:href="#DejaVuSans-41"/>
    </g>
   </g>
  </g>
 </g>
 <defs>
  <clipPath id="p1aa3c02df5">
   <rect height="307.80327" width="81.193465" x="52.924875" y="18.118365"/>
  </clipPath>
  <clipPath id="p7c1a0e408a">
   <rect height="307.80327" width="81.193465" x="231.927955" y="18.118365"/>
  </clipPath>
  <clipPath id="p0222e20b91">
   <rect height="307.80327" width="81.193465" x="376.468535" y="18.118365"/>
  </clipPath>
 </defs>
</svg>
