<?xml version="1.0" encoding="utf-8" standalone="no"?>
<!DOCTYPE svg PUBLIC "-//W3C//DTD SVG 1.1//EN"
  "http://www.w3.org/Graphics/SVG/1.1/DTD/svg11.dtd">
<!-- Created with matplotlib (https://matplotlib.org/) -->
<svg height="345.6pt" version="1.1" viewBox="0 0 460.8 345.6" width="460.8pt" xmlns="http://www.w3.org/2000/svg" xmlns:xlink="http://www.w3.org/1999/xlink">
 <defs>
  <style type="text/css">
*{stroke-linecap:butt;stroke-linejoin:round;}
  </style>
 </defs>
 <g id="figure_1">
  <g id="patch_1">
   <path d="M 0 345.6 
L 460.8 345.6 
L 460.8 0 
L 0 0 
z
" style="fill:#ffffff;"/>
  </g>
  <g id="axes_1">
   <g id="patch_2">
    <path d="M 55.490865 137.71551 
L 219.028114 137.71551 
L 219.028114 18.118365 
L 55.490865 18.118365 
z
" style="fill:#ffffff;"/>
   </g>
   <g id="patch_3">
    <path clip-path="url(#pe909c5e5de)" d="M 62.924376 137.71551 
L 64.165881 137.71551 
L 64.165881 137.704546 
L 62.924376 137.704546 
z
" style="fill:#1f77b4;"/>
   </g>
   <g id="patch_4">
    <path clip-path="url(#pe909c5e5de)" d="M 64.476258 137.71551 
L 65.717763 137.71551 
L 65.717763 137.691145 
L 64.476258 137.691145 
z
" style="fill:#1f77b4;"/>
   </g>
   <g id="patch_5">
    <path clip-path="url(#pe909c5e5de)" d="M 66.028139 137.71551 
L 67.269644 137.71551 
L 67.269644 137.648506 
L 66.028139 137.648506 
z
" style="fill:#1f77b4;"/>
   </g>
   <g id="patch_6">
    <path clip-path="url(#pe909c5e5de)" d="M 67.58002 137.71551 
L 68.821525 137.71551 
L 68.821525 137.632668 
L 67.58002 137.632668 
z
" style="fill:#1f77b4;"/>
   </g>
   <g id="patch_7">
    <path clip-path="url(#pe909c5e5de)" d="M 69.131901 137.71551 
L 70.373406 137.71551 
L 70.373406 137.579065 
L 69.131901 137.579065 
z
" style="fill:#1f77b4;"/>
   </g>
   <g id="patch_8">
    <path clip-path="url(#pe909c5e5de)" d="M 70.683783 137.71551 
L 71.925288 137.71551 
L 71.925288 137.516934 
L 70.683783 137.516934 
z
" style="fill:#1f77b4;"/>
   </g>
   <g id="patch_9">
    <path clip-path="url(#pe909c5e5de)" d="M 72.235664 137.71551 
L 73.477169 137.71551 
L 73.477169 137.493787 
L 72.235664 137.493787 
z
" style="fill:#1f77b4;"/>
   </g>
   <g id="patch_10">
    <path clip-path="url(#pe909c5e5de)" d="M 73.787545 137.71551 
L 75.02905 137.71551 
L 75.02905 137.471858 
L 73.787545 137.471858 
z
" style="fill:#1f77b4;"/>
   </g>
   <g id="patch_11">
    <path clip-path="url(#pe909c5e5de)" d="M 75.339426 137.71551 
L 76.580931 137.71551 
L 76.580931 137.429219 
L 75.339426 137.429219 
z
" style="fill:#1f77b4;"/>
   </g>
   <g id="patch_12">
    <path clip-path="url(#pe909c5e5de)" d="M 76.891308 137.71551 
L 78.132813 137.71551 
L 78.132813 137.371961 
L 76.891308 137.371961 
z
" style="fill:#1f77b4;"/>
   </g>
   <g id="patch_13">
    <path clip-path="url(#pe909c5e5de)" d="M 78.443189 137.71551 
L 79.684694 137.71551 
L 79.684694 137.332977 
L 78.443189 137.332977 
z
" style="fill:#1f77b4;"/>
   </g>
   <g id="patch_14">
    <path clip-path="url(#pe909c5e5de)" d="M 79.99507 137.71551 
L 81.236575 137.71551 
L 81.236575 137.291556 
L 79.99507 137.291556 
z
" style="fill:#1f77b4;"/>
   </g>
   <g id="patch_15">
    <path clip-path="url(#pe909c5e5de)" d="M 81.546952 137.71551 
L 82.788457 137.71551 
L 82.788457 137.262318 
L 81.546952 137.262318 
z
" style="fill:#1f77b4;"/>
   </g>
   <g id="patch_16">
    <path clip-path="url(#pe909c5e5de)" d="M 83.098833 137.71551 
L 84.340338 137.71551 
L 84.340338 137.240389 
L 83.098833 137.240389 
z
" style="fill:#1f77b4;"/>
   </g>
   <g id="patch_17">
    <path clip-path="url(#pe909c5e5de)" d="M 84.650714 137.71551 
L 85.892219 137.71551 
L 85.892219 137.174603 
L 84.650714 137.174603 
z
" style="fill:#1f77b4;"/>
   </g>
   <g id="patch_18">
    <path clip-path="url(#pe909c5e5de)" d="M 86.202595 137.71551 
L 87.4441 137.71551 
L 87.4441 137.045467 
L 86.202595 137.045467 
z
" style="fill:#1f77b4;"/>
   </g>
   <g id="patch_19">
    <path clip-path="url(#pe909c5e5de)" d="M 87.754477 137.71551 
L 88.995982 137.71551 
L 88.995982 136.951661 
L 87.754477 136.951661 
z
" style="fill:#1f77b4;"/>
   </g>
   <g id="patch_20">
    <path clip-path="url(#pe909c5e5de)" d="M 89.306358 137.71551 
L 90.547863 137.71551 
L 90.547863 136.826181 
L 89.306358 136.826181 
z
" style="fill:#1f77b4;"/>
   </g>
   <g id="patch_21">
    <path clip-path="url(#pe909c5e5de)" d="M 90.858239 137.71551 
L 92.099744 137.71551 
L 92.099744 136.712883 
L 90.858239 136.712883 
z
" style="fill:#1f77b4;"/>
   </g>
   <g id="patch_22">
    <path clip-path="url(#pe909c5e5de)" d="M 92.41012 137.71551 
L 93.651625 137.71551 
L 93.651625 136.481413 
L 92.41012 136.481413 
z
" style="fill:#1f77b4;"/>
   </g>
   <g id="patch_23">
    <path clip-path="url(#pe909c5e5de)" d="M 93.962002 137.71551 
L 95.203507 137.71551 
L 95.203507 136.435119 
L 93.962002 136.435119 
z
" style="fill:#1f77b4;"/>
   </g>
   <g id="patch_24">
    <path clip-path="url(#pe909c5e5de)" d="M 95.513883 137.71551 
L 96.755388 137.71551 
L 96.755388 136.142737 
L 95.513883 136.142737 
z
" style="fill:#1f77b4;"/>
   </g>
   <g id="patch_25">
    <path clip-path="url(#pe909c5e5de)" d="M 97.065764 137.71551 
L 98.307269 137.71551 
L 98.307269 135.97949 
L 97.065764 135.97949 
z
" style="fill:#1f77b4;"/>
   </g>
   <g id="patch_26">
    <path clip-path="url(#pe909c5e5de)" d="M 98.617646 137.71551 
L 99.859151 137.71551 
L 99.859151 135.914923 
L 98.617646 135.914923 
z
" style="fill:#1f77b4;"/>
   </g>
   <g id="patch_27">
    <path clip-path="url(#pe909c5e5de)" d="M 100.169527 137.71551 
L 101.411032 137.71551 
L 101.411032 135.788224 
L 100.169527 135.788224 
z
" style="fill:#1f77b4;"/>
   </g>
   <g id="patch_28">
    <path clip-path="url(#pe909c5e5de)" d="M 101.721408 137.71551 
L 102.962913 137.71551 
L 102.962913 135.673707 
L 101.721408 135.673707 
z
" style="fill:#1f77b4;"/>
   </g>
   <g id="patch_29">
    <path clip-path="url(#pe909c5e5de)" d="M 103.273289 137.71551 
L 104.514794 137.71551 
L 104.514794 135.522643 
L 103.273289 135.522643 
z
" style="fill:#1f77b4;"/>
   </g>
   <g id="patch_30">
    <path clip-path="url(#pe909c5e5de)" d="M 104.825171 137.71551 
L 106.066676 137.71551 
L 106.066676 135.2729 
L 104.825171 135.2729 
z
" style="fill:#1f77b4;"/>
   </g>
   <g id="patch_31">
    <path clip-path="url(#pe909c5e5de)" d="M 106.377052 137.71551 
L 107.618557 137.71551 
L 107.618557 135.087725 
L 106.377052 135.087725 
z
" style="fill:#1f77b4;"/>
   </g>
   <g id="patch_32">
    <path clip-path="url(#pe909c5e5de)" d="M 107.928933 137.71551 
L 109.170438 137.71551 
L 109.170438 134.808743 
L 107.928933 134.808743 
z
" style="fill:#1f77b4;"/>
   </g>
   <g id="patch_33">
    <path clip-path="url(#pe909c5e5de)" d="M 109.480814 137.71551 
L 110.722319 137.71551 
L 110.722319 134.445702 
L 109.480814 134.445702 
z
" style="fill:#1f77b4;"/>
   </g>
   <g id="patch_34">
    <path clip-path="url(#pe909c5e5de)" d="M 111.032696 137.71551 
L 112.274201 137.71551 
L 112.274201 134.019311 
L 111.032696 134.019311 
z
" style="fill:#1f77b4;"/>
   </g>
   <g id="patch_35">
    <path clip-path="url(#pe909c5e5de)" d="M 112.584577 137.71551 
L 113.826082 137.71551 
L 113.826082 133.753731 
L 112.584577 133.753731 
z
" style="fill:#1f77b4;"/>
   </g>
   <g id="patch_36">
    <path clip-path="url(#pe909c5e5de)" d="M 114.136458 137.71551 
L 115.377963 137.71551 
L 115.377963 133.473531 
L 114.136458 133.473531 
z
" style="fill:#1f77b4;"/>
   </g>
   <g id="patch_37">
    <path clip-path="url(#pe909c5e5de)" d="M 115.68834 137.71551 
L 116.929845 137.71551 
L 116.929845 133.188458 
L 115.68834 133.188458 
z
" style="fill:#1f77b4;"/>
   </g>
   <g id="patch_38">
    <path clip-path="url(#pe909c5e5de)" d="M 117.240221 137.71551 
L 118.481726 137.71551 
L 118.481726 132.952116 
L 117.240221 132.952116 
z
" style="fill:#1f77b4;"/>
   </g>
   <g id="patch_39">
    <path clip-path="url(#pe909c5e5de)" d="M 118.792102 137.71551 
L 120.033607 137.71551 
L 120.033607 132.113954 
L 118.792102 132.113954 
z
" style="fill:#1f77b4;"/>
   </g>
   <g id="patch_40">
    <path clip-path="url(#pe909c5e5de)" d="M 120.343983 137.71551 
L 121.585488 137.71551 
L 121.585488 131.867865 
L 120.343983 131.867865 
z
" style="fill:#1f77b4;"/>
   </g>
   <g id="patch_41">
    <path clip-path="url(#pe909c5e5de)" d="M 121.895865 137.71551 
L 123.13737 137.71551 
L 123.13737 131.111326 
L 121.895865 131.111326 
z
" style="fill:#1f77b4;"/>
   </g>
   <g id="patch_42">
    <path clip-path="url(#pe909c5e5de)" d="M 123.447746 137.71551 
L 124.689251 137.71551 
L 124.689251 130.609403 
L 123.447746 130.609403 
z
" style="fill:#1f77b4;"/>
   </g>
   <g id="patch_43">
    <path clip-path="url(#pe909c5e5de)" d="M 124.999627 137.71551 
L 126.241132 137.71551 
L 126.241132 129.521498 
L 124.999627 129.521498 
z
" style="fill:#1f77b4;"/>
   </g>
   <g id="patch_44">
    <path clip-path="url(#pe909c5e5de)" d="M 126.551508 137.71551 
L 127.793013 137.71551 
L 127.793013 129.287592 
L 126.551508 129.287592 
z
" style="fill:#1f77b4;"/>
   </g>
   <g id="patch_45">
    <path clip-path="url(#pe909c5e5de)" d="M 128.10339 137.71551 
L 129.344895 137.71551 
L 129.344895 128.86242 
L 128.10339 128.86242 
z
" style="fill:#1f77b4;"/>
   </g>
   <g id="patch_46">
    <path clip-path="url(#pe909c5e5de)" d="M 129.655271 137.71551 
L 130.896776 137.71551 
L 130.896776 128.44943 
L 129.655271 128.44943 
z
" style="fill:#1f77b4;"/>
   </g>
   <g id="patch_47">
    <path clip-path="url(#pe909c5e5de)" d="M 131.207152 137.71551 
L 132.448657 137.71551 
L 132.448657 128.116845 
L 131.207152 128.116845 
z
" style="fill:#1f77b4;"/>
   </g>
   <g id="patch_48">
    <path clip-path="url(#pe909c5e5de)" d="M 132.759034 137.71551 
L 134.000539 137.71551 
L 134.000539 127.688018 
L 132.759034 127.688018 
z
" style="fill:#1f77b4;"/>
   </g>
   <g id="patch_49">
    <path clip-path="url(#pe909c5e5de)" d="M 134.310915 137.71551 
L 135.55242 137.71551 
L 135.55242 127.51868 
L 134.310915 127.51868 
z
" style="fill:#1f77b4;"/>
   </g>
   <g id="patch_50">
    <path clip-path="url(#pe909c5e5de)" d="M 135.862796 137.71551 
L 137.104301 137.71551 
L 137.104301 124.265927 
L 135.862796 124.265927 
z
" style="fill:#1f77b4;"/>
   </g>
   <g id="patch_51">
    <path clip-path="url(#pe909c5e5de)" d="M 137.414677 137.71551 
L 138.656182 137.71551 
L 138.656182 123.742076 
L 137.414677 123.742076 
z
" style="fill:#1f77b4;"/>
   </g>
   <g id="patch_52">
    <path clip-path="url(#pe909c5e5de)" d="M 138.966559 137.71551 
L 140.208064 137.71551 
L 140.208064 122.726048 
L 138.966559 122.726048 
z
" style="fill:#1f77b4;"/>
   </g>
   <g id="patch_53">
    <path clip-path="url(#pe909c5e5de)" d="M 140.51844 137.71551 
L 141.759945 137.71551 
L 141.759945 120.796325 
L 140.51844 120.796325 
z
" style="fill:#1f77b4;"/>
   </g>
   <g id="patch_54">
    <path clip-path="url(#pe909c5e5de)" d="M 142.070321 137.71551 
L 143.311826 137.71551 
L 143.311826 119.495224 
L 142.070321 119.495224 
z
" style="fill:#1f77b4;"/>
   </g>
   <g id="patch_55">
    <path clip-path="url(#pe909c5e5de)" d="M 143.622202 137.71551 
L 144.863707 137.71551 
L 144.863707 118.370771 
L 143.622202 118.370771 
z
" style="fill:#1f77b4;"/>
   </g>
   <g id="patch_56">
    <path clip-path="url(#pe909c5e5de)" d="M 145.174084 137.71551 
L 146.415589 137.71551 
L 146.415589 117.380326 
L 145.174084 117.380326 
z
" style="fill:#1f77b4;"/>
   </g>
   <g id="patch_57">
    <path clip-path="url(#pe909c5e5de)" d="M 146.725965 137.71551 
L 147.96747 137.71551 
L 147.96747 116.275365 
L 146.725965 116.275365 
z
" style="fill:#1f77b4;"/>
   </g>
   <g id="patch_58">
    <path clip-path="url(#pe909c5e5de)" d="M 148.277846 137.71551 
L 149.519351 137.71551 
L 149.519351 115.28492 
L 148.277846 115.28492 
z
" style="fill:#1f77b4;"/>
   </g>
   <g id="patch_59">
    <path clip-path="url(#pe909c5e5de)" d="M 149.829728 137.71551 
L 151.071233 137.71551 
L 151.071233 114.378535 
L 149.829728 114.378535 
z
" style="fill:#1f77b4;"/>
   </g>
   <g id="patch_60">
    <path clip-path="url(#pe909c5e5de)" d="M 151.381609 137.71551 
L 152.623114 137.71551 
L 152.623114 112.038259 
L 151.381609 112.038259 
z
" style="fill:#1f77b4;"/>
   </g>
   <g id="patch_61">
    <path clip-path="url(#pe909c5e5de)" d="M 152.93349 137.71551 
L 154.174995 137.71551 
L 154.174995 110.316858 
L 152.93349 110.316858 
z
" style="fill:#1f77b4;"/>
   </g>
   <g id="patch_62">
    <path clip-path="url(#pe909c5e5de)" d="M 154.485371 137.71551 
L 155.726876 137.71551 
L 155.726876 108.72703 
L 154.485371 108.72703 
z
" style="fill:#1f77b4;"/>
   </g>
   <g id="patch_63">
    <path clip-path="url(#pe909c5e5de)" d="M 156.037253 137.71551 
L 157.278758 137.71551 
L 157.278758 108.166631 
L 156.037253 108.166631 
z
" style="fill:#1f77b4;"/>
   </g>
   <g id="patch_64">
    <path clip-path="url(#pe909c5e5de)" d="M 157.589134 137.71551 
L 158.830639 137.71551 
L 158.830639 105.59854 
L 157.589134 105.59854 
z
" style="fill:#1f77b4;"/>
   </g>
   <g id="patch_65">
    <path clip-path="url(#pe909c5e5de)" d="M 159.141015 137.71551 
L 160.38252 137.71551 
L 160.38252 103.467805 
L 159.141015 103.467805 
z
" style="fill:#1f77b4;"/>
   </g>
   <g id="patch_66">
    <path clip-path="url(#pe909c5e5de)" d="M 160.692896 137.71551 
L 161.934401 137.71551 
L 161.934401 100.485506 
L 160.692896 100.485506 
z
" style="fill:#1f77b4;"/>
   </g>
   <g id="patch_67">
    <path clip-path="url(#pe909c5e5de)" d="M 162.244778 137.71551 
L 163.486283 137.71551 
L 163.486283 99.446331 
L 162.244778 99.446331 
z
" style="fill:#1f77b4;"/>
   </g>
   <g id="patch_68">
    <path clip-path="url(#pe909c5e5de)" d="M 163.796659 137.71551 
L 165.038164 137.71551 
L 165.038164 95.596631 
L 163.796659 95.596631 
z
" style="fill:#1f77b4;"/>
   </g>
   <g id="patch_69">
    <path clip-path="url(#pe909c5e5de)" d="M 165.34854 137.71551 
L 166.590045 137.71551 
L 166.590045 94.927807 
L 165.34854 94.927807 
z
" style="fill:#1f77b4;"/>
   </g>
   <g id="patch_70">
    <path clip-path="url(#pe909c5e5de)" d="M 166.900422 137.71551 
L 168.141927 137.71551 
L 168.141927 94.35157 
L 166.900422 94.35157 
z
" style="fill:#1f77b4;"/>
   </g>
   <g id="patch_71">
    <path clip-path="url(#pe909c5e5de)" d="M 168.452303 137.71551 
L 169.693808 137.71551 
L 169.693808 93.632797 
L 168.452303 93.632797 
z
" style="fill:#1f77b4;"/>
   </g>
   <g id="patch_72">
    <path clip-path="url(#pe909c5e5de)" d="M 170.004184 137.71551 
L 171.245689 137.71551 
L 171.245689 92.614332 
L 170.004184 92.614332 
z
" style="fill:#1f77b4;"/>
   </g>
   <g id="patch_73">
    <path clip-path="url(#pe909c5e5de)" d="M 171.556065 137.71551 
L 172.79757 137.71551 
L 172.79757 92.304895 
L 171.556065 92.304895 
z
" style="fill:#1f77b4;"/>
   </g>
   <g id="patch_74">
    <path clip-path="url(#pe909c5e5de)" d="M 173.107947 137.71551 
L 174.349452 137.71551 
L 174.349452 91.639725 
L 173.107947 91.639725 
z
" style="fill:#1f77b4;"/>
   </g>
   <g id="patch_75">
    <path clip-path="url(#pe909c5e5de)" d="M 174.659828 137.71551 
L 175.901333 137.71551 
L 175.901333 90.940444 
L 174.659828 90.940444 
z
" style="fill:#1f77b4;"/>
   </g>
   <g id="patch_76">
    <path clip-path="url(#pe909c5e5de)" d="M 176.211709 137.71551 
L 177.453214 137.71551 
L 177.453214 81.059143 
L 176.211709 81.059143 
z
" style="fill:#1f77b4;"/>
   </g>
   <g id="patch_77">
    <path clip-path="url(#pe909c5e5de)" d="M 177.76359 137.71551 
L 179.005095 137.71551 
L 179.005095 78.643335 
L 177.76359 78.643335 
z
" style="fill:#1f77b4;"/>
   </g>
   <g id="patch_78">
    <path clip-path="url(#pe909c5e5de)" d="M 179.315472 137.71551 
L 180.556977 137.71551 
L 180.556977 76.188542 
L 179.315472 76.188542 
z
" style="fill:#1f77b4;"/>
   </g>
   <g id="patch_79">
    <path clip-path="url(#pe909c5e5de)" d="M 180.867353 137.71551 
L 182.108858 137.71551 
L 182.108858 73.058834 
L 180.867353 73.058834 
z
" style="fill:#1f77b4;"/>
   </g>
   <g id="patch_80">
    <path clip-path="url(#pe909c5e5de)" d="M 182.419234 137.71551 
L 183.660739 137.71551 
L 183.660739 69.424767 
L 182.419234 69.424767 
z
" style="fill:#1f77b4;"/>
   </g>
   <g id="patch_81">
    <path clip-path="url(#pe909c5e5de)" d="M 183.971116 137.71551 
L 185.212621 137.71551 
L 185.212621 64.869695 
L 183.971116 64.869695 
z
" style="fill:#1f77b4;"/>
   </g>
   <g id="patch_82">
    <path clip-path="url(#pe909c5e5de)" d="M 185.522997 137.71551 
L 186.764502 137.71551 
L 186.764502 62.676828 
L 185.522997 62.676828 
z
" style="fill:#1f77b4;"/>
   </g>
   <g id="patch_83">
    <path clip-path="url(#pe909c5e5de)" d="M 187.074878 137.71551 
L 188.316383 137.71551 
L 188.316383 60.264675 
L 187.074878 60.264675 
z
" style="fill:#1f77b4;"/>
   </g>
   <g id="patch_84">
    <path clip-path="url(#pe909c5e5de)" d="M 188.626759 137.71551 
L 189.868264 137.71551 
L 189.868264 59.416766 
L 188.626759 59.416766 
z
" style="fill:#1f77b4;"/>
   </g>
   <g id="patch_85">
    <path clip-path="url(#pe909c5e5de)" d="M 190.178641 137.71551 
L 191.420146 137.71551 
L 191.420146 57.791609 
L 190.178641 57.791609 
z
" style="fill:#1f77b4;"/>
   </g>
   <g id="patch_86">
    <path clip-path="url(#pe909c5e5de)" d="M 191.730522 137.71551 
L 192.972027 137.71551 
L 192.972027 54.406066 
L 191.730522 54.406066 
z
" style="fill:#1f77b4;"/>
   </g>
   <g id="patch_87">
    <path clip-path="url(#pe909c5e5de)" d="M 193.282403 137.71551 
L 194.523908 137.71551 
L 194.523908 50.729359 
L 193.282403 50.729359 
z
" style="fill:#1f77b4;"/>
   </g>
   <g id="patch_88">
    <path clip-path="url(#pe909c5e5de)" d="M 194.834284 137.71551 
L 196.075789 137.71551 
L 196.075789 47.711731 
L 194.834284 47.711731 
z
" style="fill:#1f77b4;"/>
   </g>
   <g id="patch_89">
    <path clip-path="url(#pe909c5e5de)" d="M 196.386166 137.71551 
L 197.627671 137.71551 
L 197.627671 45.48719 
L 196.386166 45.48719 
z
" style="fill:#1f77b4;"/>
   </g>
   <g id="patch_90">
    <path clip-path="url(#pe909c5e5de)" d="M 197.938047 137.71551 
L 199.179552 137.71551 
L 199.179552 44.60517 
L 197.938047 44.60517 
z
" style="fill:#1f77b4;"/>
   </g>
   <g id="patch_91">
    <path clip-path="url(#pe909c5e5de)" d="M 199.489928 137.71551 
L 200.731433 137.71551 
L 200.731433 44.216545 
L 199.489928 44.216545 
z
" style="fill:#1f77b4;"/>
   </g>
   <g id="patch_92">
    <path clip-path="url(#pe909c5e5de)" d="M 201.04181 137.71551 
L 202.283315 137.71551 
L 202.283315 40.910189 
L 201.04181 40.910189 
z
" style="fill:#1f77b4;"/>
   </g>
   <g id="patch_93">
    <path clip-path="url(#pe909c5e5de)" d="M 202.593691 137.71551 
L 203.835196 137.71551 
L 203.835196 38.68443 
L 202.593691 38.68443 
z
" style="fill:#1f77b4;"/>
   </g>
   <g id="patch_94">
    <path clip-path="url(#pe909c5e5de)" d="M 204.145572 137.71551 
L 205.387077 137.71551 
L 205.387077 34.203672 
L 204.145572 34.203672 
z
" style="fill:#1f77b4;"/>
   </g>
   <g id="patch_95">
    <path clip-path="url(#pe909c5e5de)" d="M 205.697453 137.71551 
L 206.938958 137.71551 
L 206.938958 31.394366 
L 205.697453 31.394366 
z
" style="fill:#1f77b4;"/>
   </g>
   <g id="patch_96">
    <path clip-path="url(#pe909c5e5de)" d="M 207.249335 137.71551 
L 208.49084 137.71551 
L 208.49084 28.239074 
L 207.249335 28.239074 
z
" style="fill:#1f77b4;"/>
   </g>
   <g id="patch_97">
    <path clip-path="url(#pe909c5e5de)" d="M 208.801216 137.71551 
L 210.042721 137.71551 
L 210.042721 25.445606 
L 208.801216 25.445606 
z
" style="fill:#1f77b4;"/>
   </g>
   <g id="patch_98">
    <path clip-path="url(#pe909c5e5de)" d="M 210.353097 137.71551 
L 211.594602 137.71551 
L 211.594602 24.580642 
L 210.353097 24.580642 
z
" style="fill:#1f77b4;"/>
   </g>
   <g id="matplotlib.axis_1">
    <g id="xtick_1">
     <g id="line2d_1">
      <defs>
       <path d="M 0 0 
L 0 3.5 
" id="m8ce27cc2bb" style="stroke:#000000;stroke-width:0.8;"/>
      </defs>
      <g>
       <use style="stroke:#000000;stroke-width:0.8;" x="63.545129" xlink:href="#m8ce27cc2bb" y="137.71551"/>
      </g>
     </g>
     <g id="text_1">
      <!-- 0 -->
      <defs>
       <path d="M 31.78125 66.40625 
Q 24.171875 66.40625 20.328125 58.90625 
Q 16.5 51.421875 16.5 36.375 
Q 16.5 21.390625 20.328125 13.890625 
Q 24.171875 6.390625 31.78125 6.390625 
Q 39.453125 6.390625 43.28125 13.890625 
Q 47.125 21.390625 47.125 36.375 
Q 47.125 51.421875 43.28125 58.90625 
Q 39.453125 66.40625 31.78125 66.40625 
z
M 31.78125 74.21875 
Q 44.046875 74.21875 50.515625 64.515625 
Q 56.984375 54.828125 56.984375 36.375 
Q 56.984375 17.96875 50.515625 8.265625 
Q 44.046875 -1.421875 31.78125 -1.421875 
Q 19.53125 -1.421875 13.0625 8.265625 
Q 6.59375 17.96875 6.59375 36.375 
Q 6.59375 54.828125 13.0625 64.515625 
Q 19.53125 74.21875 31.78125 74.21875 
z
" id="DejaVuSans-48"/>
      </defs>
      <g transform="translate(60.363879 152.313947)scale(0.1 -0.1)">
       <use xlink:href="#DejaVuSans-48"/>
      </g>
     </g>
    </g>
    <g id="xtick_2">
     <g id="line2d_2">
      <g>
       <use style="stroke:#000000;stroke-width:0.8;" x="102.342161" xlink:href="#m8ce27cc2bb" y="137.71551"/>
      </g>
     </g>
     <g id="text_2">
      <!-- 25 -->
      <defs>
       <path d="M 19.1875 8.296875 
L 53.609375 8.296875 
L 53.609375 0 
L 7.328125 0 
L 7.328125 8.296875 
Q 12.9375 14.109375 22.625 23.890625 
Q 32.328125 33.6875 34.8125 36.53125 
Q 39.546875 41.84375 41.421875 45.53125 
Q 43.3125 49.21875 43.3125 52.78125 
Q 43.3125 58.59375 39.234375 62.25 
Q 35.15625 65.921875 28.609375 65.921875 
Q 23.96875 65.921875 18.8125 64.3125 
Q 13.671875 62.703125 7.8125 59.421875 
L 7.8125 69.390625 
Q 13.765625 71.78125 18.9375 73 
Q 24.125 74.21875 28.421875 74.21875 
Q 39.75 74.21875 46.484375 68.546875 
Q 53.21875 62.890625 53.21875 53.421875 
Q 53.21875 48.921875 51.53125 44.890625 
Q 49.859375 40.875 45.40625 35.40625 
Q 44.1875 33.984375 37.640625 27.21875 
Q 31.109375 20.453125 19.1875 8.296875 
z
" id="DejaVuSans-50"/>
       <path d="M 10.796875 72.90625 
L 49.515625 72.90625 
L 49.515625 64.59375 
L 19.828125 64.59375 
L 19.828125 46.734375 
Q 21.96875 47.46875 24.109375 47.828125 
Q 26.265625 48.1875 28.421875 48.1875 
Q 40.625 48.1875 47.75 41.5 
Q 54.890625 34.8125 54.890625 23.390625 
Q 54.890625 11.625 47.5625 5.09375 
Q 40.234375 -1.421875 26.90625 -1.421875 
Q 22.3125 -1.421875 17.546875 -0.640625 
Q 12.796875 0.140625 7.71875 1.703125 
L 7.71875 11.625 
Q 12.109375 9.234375 16.796875 8.0625 
Q 21.484375 6.890625 26.703125 6.890625 
Q 35.15625 6.890625 40.078125 11.328125 
Q 45.015625 15.765625 45.015625 23.390625 
Q 45.015625 31 40.078125 35.4375 
Q 35.15625 39.890625 26.703125 39.890625 
Q 22.75 39.890625 18.8125 39.015625 
Q 14.890625 38.140625 10.796875 36.28125 
z
" id="DejaVuSans-53"/>
      </defs>
      <g transform="translate(95.979661 152.313947)scale(0.1 -0.1)">
       <use xlink:href="#DejaVuSans-50"/>
       <use x="63.623047" xlink:href="#DejaVuSans-53"/>
      </g>
     </g>
    </g>
    <g id="xtick_3">
     <g id="line2d_3">
      <g>
       <use style="stroke:#000000;stroke-width:0.8;" x="141.139192" xlink:href="#m8ce27cc2bb" y="137.71551"/>
      </g>
     </g>
     <g id="text_3">
      <!-- 50 -->
      <g transform="translate(134.776692 152.313947)scale(0.1 -0.1)">
       <use xlink:href="#DejaVuSans-53"/>
       <use x="63.623047" xlink:href="#DejaVuSans-48"/>
      </g>
     </g>
    </g>
    <g id="xtick_4">
     <g id="line2d_4">
      <g>
       <use style="stroke:#000000;stroke-width:0.8;" x="179.936224" xlink:href="#m8ce27cc2bb" y="137.71551"/>
      </g>
     </g>
     <g id="text_4">
      <!-- 75 -->
      <defs>
       <path d="M 8.203125 72.90625 
L 55.078125 72.90625 
L 55.078125 68.703125 
L 28.609375 0 
L 18.3125 0 
L 43.21875 64.59375 
L 8.203125 64.59375 
z
" id="DejaVuSans-55"/>
      </defs>
      <g transform="translate(173.573724 152.313947)scale(0.1 -0.1)">
       <use xlink:href="#DejaVuSans-55"/>
       <use x="63.623047" xlink:href="#DejaVuSans-53"/>
      </g>
     </g>
    </g>
    <g id="xtick_5">
     <g id="line2d_5">
      <g>
       <use style="stroke:#000000;stroke-width:0.8;" x="218.733256" xlink:href="#m8ce27cc2bb" y="137.71551"/>
      </g>
     </g>
     <g id="text_5">
      <!-- 100 -->
      <defs>
       <path d="M 12.40625 8.296875 
L 28.515625 8.296875 
L 28.515625 63.921875 
L 10.984375 60.40625 
L 10.984375 69.390625 
L 28.421875 72.90625 
L 38.28125 72.90625 
L 38.28125 8.296875 
L 54.390625 8.296875 
L 54.390625 0 
L 12.40625 0 
z
" id="DejaVuSans-49"/>
      </defs>
      <g transform="translate(209.189506 152.313947)scale(0.1 -0.1)">
       <use xlink:href="#DejaVuSans-49"/>
       <use x="63.623047" xlink:href="#DejaVuSans-48"/>
       <use x="127.246094" xlink:href="#DejaVuSans-48"/>
      </g>
     </g>
    </g>
    <g id="text_6">
     <!-- Dias -->
     <defs>
      <path d="M 19.671875 64.796875 
L 19.671875 8.109375 
L 31.59375 8.109375 
Q 46.6875 8.109375 53.6875 14.9375 
Q 60.6875 21.78125 60.6875 36.53125 
Q 60.6875 51.171875 53.6875 57.984375 
Q 46.6875 64.796875 31.59375 64.796875 
z
M 9.8125 72.90625 
L 30.078125 72.90625 
Q 51.265625 72.90625 61.171875 64.09375 
Q 71.09375 55.28125 71.09375 36.53125 
Q 71.09375 17.671875 61.125 8.828125 
Q 51.171875 0 30.078125 0 
L 9.8125 0 
z
" id="DejaVuSans-68"/>
      <path d="M 9.421875 54.6875 
L 18.40625 54.6875 
L 18.40625 0 
L 9.421875 0 
z
M 9.421875 75.984375 
L 18.40625 75.984375 
L 18.40625 64.59375 
L 9.421875 64.59375 
z
" id="DejaVuSans-105"/>
      <path d="M 34.28125 27.484375 
Q 23.390625 27.484375 19.1875 25 
Q 14.984375 22.515625 14.984375 16.5 
Q 14.984375 11.71875 18.140625 8.90625 
Q 21.296875 6.109375 26.703125 6.109375 
Q 34.1875 6.109375 38.703125 11.40625 
Q 43.21875 16.703125 43.21875 25.484375 
L 43.21875 27.484375 
z
M 52.203125 31.203125 
L 52.203125 0 
L 43.21875 0 
L 43.21875 8.296875 
Q 40.140625 3.328125 35.546875 0.953125 
Q 30.953125 -1.421875 24.3125 -1.421875 
Q 15.921875 -1.421875 10.953125 3.296875 
Q 6 8.015625 6 15.921875 
Q 6 25.140625 12.171875 29.828125 
Q 18.359375 34.515625 30.609375 34.515625 
L 43.21875 34.515625 
L 43.21875 35.40625 
Q 43.21875 41.609375 39.140625 45 
Q 35.0625 48.390625 27.6875 48.390625 
Q 23 48.390625 18.546875 47.265625 
Q 14.109375 46.140625 10.015625 43.890625 
L 10.015625 52.203125 
Q 14.9375 54.109375 19.578125 55.046875 
Q 24.21875 56 28.609375 56 
Q 40.484375 56 46.34375 49.84375 
Q 52.203125 43.703125 52.203125 31.203125 
z
" id="DejaVuSans-97"/>
      <path d="M 44.28125 53.078125 
L 44.28125 44.578125 
Q 40.484375 46.53125 36.375 47.5 
Q 32.28125 48.484375 27.875 48.484375 
Q 21.1875 48.484375 17.84375 46.4375 
Q 14.5 44.390625 14.5 40.28125 
Q 14.5 37.15625 16.890625 35.375 
Q 19.28125 33.59375 26.515625 31.984375 
L 29.59375 31.296875 
Q 39.15625 29.25 43.1875 25.515625 
Q 47.21875 21.78125 47.21875 15.09375 
Q 47.21875 7.46875 41.1875 3.015625 
Q 35.15625 -1.421875 24.609375 -1.421875 
Q 20.21875 -1.421875 15.453125 -0.5625 
Q 10.6875 0.296875 5.421875 2 
L 5.421875 11.28125 
Q 10.40625 8.6875 15.234375 7.390625 
Q 20.0625 6.109375 24.8125 6.109375 
Q 31.15625 6.109375 34.5625 8.28125 
Q 37.984375 10.453125 37.984375 14.40625 
Q 37.984375 18.0625 35.515625 20.015625 
Q 33.0625 21.96875 24.703125 23.78125 
L 21.578125 24.515625 
Q 13.234375 26.265625 9.515625 29.90625 
Q 5.8125 33.546875 5.8125 39.890625 
Q 5.8125 47.609375 11.28125 51.796875 
Q 16.75 56 26.8125 56 
Q 31.78125 56 36.171875 55.265625 
Q 40.578125 54.546875 44.28125 53.078125 
z
" id="DejaVuSans-115"/>
     </defs>
     <g transform="translate(126.351677 165.992072)scale(0.1 -0.1)">
      <use xlink:href="#DejaVuSans-68"/>
      <use x="77.001953" xlink:href="#DejaVuSans-105"/>
      <use x="104.785156" xlink:href="#DejaVuSans-97"/>
      <use x="166.064453" xlink:href="#DejaVuSans-115"/>
     </g>
    </g>
   </g>
   <g id="matplotlib.axis_2">
    <g id="ytick_1">
     <g id="line2d_6">
      <defs>
       <path d="M 0 0 
L -3.5 0 
" id="me98666c4a7" style="stroke:#000000;stroke-width:0.8;"/>
      </defs>
      <g>
       <use style="stroke:#000000;stroke-width:0.8;" x="55.490865" xlink:href="#me98666c4a7" y="137.71551"/>
      </g>
     </g>
     <g id="text_7">
      <!-- 0 -->
      <g transform="translate(42.128365 141.514729)scale(0.1 -0.1)">
       <use xlink:href="#DejaVuSans-48"/>
      </g>
     </g>
    </g>
    <g id="ytick_2">
     <g id="line2d_7">
      <g>
       <use style="stroke:#000000;stroke-width:0.8;" x="55.490865" xlink:href="#me98666c4a7" y="113.350324"/>
      </g>
     </g>
     <g id="text_8">
      <!-- 20000 -->
      <g transform="translate(16.678365 117.149543)scale(0.1 -0.1)">
       <use xlink:href="#DejaVuSans-50"/>
       <use x="63.623047" xlink:href="#DejaVuSans-48"/>
       <use x="127.246094" xlink:href="#DejaVuSans-48"/>
       <use x="190.869141" xlink:href="#DejaVuSans-48"/>
       <use x="254.492188" xlink:href="#DejaVuSans-48"/>
      </g>
     </g>
    </g>
    <g id="ytick_3">
     <g id="line2d_8">
      <g>
       <use style="stroke:#000000;stroke-width:0.8;" x="55.490865" xlink:href="#me98666c4a7" y="88.985138"/>
      </g>
     </g>
     <g id="text_9">
      <!-- 40000 -->
      <defs>
       <path d="M 37.796875 64.3125 
L 12.890625 25.390625 
L 37.796875 25.390625 
z
M 35.203125 72.90625 
L 47.609375 72.90625 
L 47.609375 25.390625 
L 58.015625 25.390625 
L 58.015625 17.1875 
L 47.609375 17.1875 
L 47.609375 0 
L 37.796875 0 
L 37.796875 17.1875 
L 4.890625 17.1875 
L 4.890625 26.703125 
z
" id="DejaVuSans-52"/>
      </defs>
      <g transform="translate(16.678365 92.784357)scale(0.1 -0.1)">
       <use xlink:href="#DejaVuSans-52"/>
       <use x="63.623047" xlink:href="#DejaVuSans-48"/>
       <use x="127.246094" xlink:href="#DejaVuSans-48"/>
       <use x="190.869141" xlink:href="#DejaVuSans-48"/>
       <use x="254.492188" xlink:href="#DejaVuSans-48"/>
      </g>
     </g>
    </g>
    <g id="ytick_4">
     <g id="line2d_9">
      <g>
       <use style="stroke:#000000;stroke-width:0.8;" x="55.490865" xlink:href="#me98666c4a7" y="64.619952"/>
      </g>
     </g>
     <g id="text_10">
      <!-- 60000 -->
      <defs>
       <path d="M 33.015625 40.375 
Q 26.375 40.375 22.484375 35.828125 
Q 18.609375 31.296875 18.609375 23.390625 
Q 18.609375 15.53125 22.484375 10.953125 
Q 26.375 6.390625 33.015625 6.390625 
Q 39.65625 6.390625 43.53125 10.953125 
Q 47.40625 15.53125 47.40625 23.390625 
Q 47.40625 31.296875 43.53125 35.828125 
Q 39.65625 40.375 33.015625 40.375 
z
M 52.59375 71.296875 
L 52.59375 62.3125 
Q 48.875 64.0625 45.09375 64.984375 
Q 41.3125 65.921875 37.59375 65.921875 
Q 27.828125 65.921875 22.671875 59.328125 
Q 17.53125 52.734375 16.796875 39.40625 
Q 19.671875 43.65625 24.015625 45.921875 
Q 28.375 48.1875 33.59375 48.1875 
Q 44.578125 48.1875 50.953125 41.515625 
Q 57.328125 34.859375 57.328125 23.390625 
Q 57.328125 12.15625 50.6875 5.359375 
Q 44.046875 -1.421875 33.015625 -1.421875 
Q 20.359375 -1.421875 13.671875 8.265625 
Q 6.984375 17.96875 6.984375 36.375 
Q 6.984375 53.65625 15.1875 63.9375 
Q 23.390625 74.21875 37.203125 74.21875 
Q 40.921875 74.21875 44.703125 73.484375 
Q 48.484375 72.75 52.59375 71.296875 
z
" id="DejaVuSans-54"/>
      </defs>
      <g transform="translate(16.678365 68.419171)scale(0.1 -0.1)">
       <use xlink:href="#DejaVuSans-54"/>
       <use x="63.623047" xlink:href="#DejaVuSans-48"/>
       <use x="127.246094" xlink:href="#DejaVuSans-48"/>
       <use x="190.869141" xlink:href="#DejaVuSans-48"/>
       <use x="254.492188" xlink:href="#DejaVuSans-48"/>
      </g>
     </g>
    </g>
    <g id="ytick_5">
     <g id="line2d_10">
      <g>
       <use style="stroke:#000000;stroke-width:0.8;" x="55.490865" xlink:href="#me98666c4a7" y="40.254766"/>
      </g>
     </g>
     <g id="text_11">
      <!-- 80000 -->
      <defs>
       <path d="M 31.78125 34.625 
Q 24.75 34.625 20.71875 30.859375 
Q 16.703125 27.09375 16.703125 20.515625 
Q 16.703125 13.921875 20.71875 10.15625 
Q 24.75 6.390625 31.78125 6.390625 
Q 38.8125 6.390625 42.859375 10.171875 
Q 46.921875 13.96875 46.921875 20.515625 
Q 46.921875 27.09375 42.890625 30.859375 
Q 38.875 34.625 31.78125 34.625 
z
M 21.921875 38.8125 
Q 15.578125 40.375 12.03125 44.71875 
Q 8.5 49.078125 8.5 55.328125 
Q 8.5 64.0625 14.71875 69.140625 
Q 20.953125 74.21875 31.78125 74.21875 
Q 42.671875 74.21875 48.875 69.140625 
Q 55.078125 64.0625 55.078125 55.328125 
Q 55.078125 49.078125 51.53125 44.71875 
Q 48 40.375 41.703125 38.8125 
Q 48.828125 37.15625 52.796875 32.3125 
Q 56.78125 27.484375 56.78125 20.515625 
Q 56.78125 9.90625 50.3125 4.234375 
Q 43.84375 -1.421875 31.78125 -1.421875 
Q 19.734375 -1.421875 13.25 4.234375 
Q 6.78125 9.90625 6.78125 20.515625 
Q 6.78125 27.484375 10.78125 32.3125 
Q 14.796875 37.15625 21.921875 38.8125 
z
M 18.3125 54.390625 
Q 18.3125 48.734375 21.84375 45.5625 
Q 25.390625 42.390625 31.78125 42.390625 
Q 38.140625 42.390625 41.71875 45.5625 
Q 45.3125 48.734375 45.3125 54.390625 
Q 45.3125 60.0625 41.71875 63.234375 
Q 38.140625 66.40625 31.78125 66.40625 
Q 25.390625 66.40625 21.84375 63.234375 
Q 18.3125 60.0625 18.3125 54.390625 
z
" id="DejaVuSans-56"/>
      </defs>
      <g transform="translate(16.678365 44.053985)scale(0.1 -0.1)">
       <use xlink:href="#DejaVuSans-56"/>
       <use x="63.623047" xlink:href="#DejaVuSans-48"/>
       <use x="127.246094" xlink:href="#DejaVuSans-48"/>
       <use x="190.869141" xlink:href="#DejaVuSans-48"/>
       <use x="254.492188" xlink:href="#DejaVuSans-48"/>
      </g>
     </g>
    </g>
    <g id="text_12">
     <!-- Casos -->
     <defs>
      <path d="M 64.40625 67.28125 
L 64.40625 56.890625 
Q 59.421875 61.53125 53.78125 63.8125 
Q 48.140625 66.109375 41.796875 66.109375 
Q 29.296875 66.109375 22.65625 58.46875 
Q 16.015625 50.828125 16.015625 36.375 
Q 16.015625 21.96875 22.65625 14.328125 
Q 29.296875 6.6875 41.796875 6.6875 
Q 48.140625 6.6875 53.78125 8.984375 
Q 59.421875 11.28125 64.40625 15.921875 
L 64.40625 5.609375 
Q 59.234375 2.09375 53.4375 0.328125 
Q 47.65625 -1.421875 41.21875 -1.421875 
Q 24.65625 -1.421875 15.125 8.703125 
Q 5.609375 18.84375 5.609375 36.375 
Q 5.609375 53.953125 15.125 64.078125 
Q 24.65625 74.21875 41.21875 74.21875 
Q 47.75 74.21875 53.53125 72.484375 
Q 59.328125 70.75 64.40625 67.28125 
z
" id="DejaVuSans-67"/>
      <path d="M 30.609375 48.390625 
Q 23.390625 48.390625 19.1875 42.75 
Q 14.984375 37.109375 14.984375 27.296875 
Q 14.984375 17.484375 19.15625 11.84375 
Q 23.34375 6.203125 30.609375 6.203125 
Q 37.796875 6.203125 41.984375 11.859375 
Q 46.1875 17.53125 46.1875 27.296875 
Q 46.1875 37.015625 41.984375 42.703125 
Q 37.796875 48.390625 30.609375 48.390625 
z
M 30.609375 56 
Q 42.328125 56 49.015625 48.375 
Q 55.71875 40.765625 55.71875 27.296875 
Q 55.71875 13.875 49.015625 6.21875 
Q 42.328125 -1.421875 30.609375 -1.421875 
Q 18.84375 -1.421875 12.171875 6.21875 
Q 5.515625 13.875 5.515625 27.296875 
Q 5.515625 40.765625 12.171875 48.375 
Q 18.84375 56 30.609375 56 
z
" id="DejaVuSans-111"/>
     </defs>
     <g transform="translate(10.598678 92.741156)rotate(-90)scale(0.1 -0.1)">
      <use xlink:href="#DejaVuSans-67"/>
      <use x="69.824219" xlink:href="#DejaVuSans-97"/>
      <use x="131.103516" xlink:href="#DejaVuSans-115"/>
      <use x="183.203125" xlink:href="#DejaVuSans-111"/>
      <use x="244.384766" xlink:href="#DejaVuSans-115"/>
     </g>
    </g>
   </g>
   <g id="line2d_11">
    <path clip-path="url(#pe909c5e5de)" d="M 63.545129 137.6549 
L 65.09701 137.637173 
L 66.648891 137.614607 
L 68.200773 137.588223 
L 69.752654 137.558279 
L 71.304535 137.525123 
L 72.856416 137.489109 
L 74.408298 137.450217 
L 75.960179 137.408138 
L 77.51206 137.362216 
L 79.063942 137.3115 
L 80.615823 137.254817 
L 82.167704 137.190855 
L 83.719585 137.118288 
L 85.271467 137.036133 
L 86.823348 136.943701 
L 88.375229 136.840879 
L 89.92711 136.728028 
L 91.478992 136.605782 
L 93.030873 136.474827 
L 94.582754 136.335744 
L 96.134636 136.188591 
L 97.686517 136.033106 
L 99.238398 135.868292 
L 100.790279 135.692321 
L 102.342161 135.503007 
L 103.894042 135.298074 
L 105.445923 135.075282 
L 106.997804 134.832431 
L 108.549686 134.567183 
L 110.101567 134.277279 
L 111.653448 133.961279 
L 113.20533 133.618 
L 114.757211 133.246687 
L 116.309092 132.847263 
L 117.860973 132.420237 
L 119.412855 131.966561 
L 120.964736 131.487515 
L 122.516617 130.98289 
L 124.068498 130.450961 
L 125.62038 129.887508 
L 127.172261 129.284817 
L 128.724142 128.634331 
L 130.276024 127.926891 
L 131.827905 127.15331 
L 133.379786 126.30686 
L 134.931667 125.384148 
L 136.483549 124.38634 
L 138.03543 123.32088 
L 139.587311 122.195831 
L 141.139192 121.019593 
L 142.691074 119.799249 
L 144.242955 118.539542 
L 145.794836 117.241345 
L 147.346718 115.901614 
L 148.898599 114.511685 
L 150.45048 113.063456 
L 152.002361 111.550811 
L 153.554243 109.973713 
L 155.106124 108.336851 
L 156.658005 106.65349 
L 158.209886 104.94019 
L 159.761768 103.216944 
L 161.313649 101.501415 
L 162.86553 99.80544 
L 164.417412 98.127667 
L 165.969293 96.453262 
L 167.521174 94.746868 
L 169.073055 92.96857 
L 170.624937 91.076648 
L 172.176818 89.033012 
L 173.728699 86.807599 
L 175.28058 84.386711 
L 176.832462 81.778444 
L 178.384343 79.019362 
L 179.936224 76.153908 
L 181.488106 73.230344 
L 183.039987 70.296075 
L 184.591868 67.395351 
L 186.143749 64.563716 
L 187.695631 61.821161 
L 189.247512 59.168595 
L 190.799393 56.598309 
L 192.351274 54.095924 
L 193.903156 51.64432 
L 195.455037 49.222508 
L 197.006918 46.80947 
L 198.5588 44.386172 
L 200.110681 41.937074 
L 201.662562 39.452823 
L 203.214443 36.929474 
L 204.766325 34.364711 
L 206.318206 31.762182 
L 207.870087 29.133287 
L 209.421968 26.481273 
L 210.97385 23.813467 
" style="fill:none;stroke:#ff0000;stroke-linecap:square;stroke-width:1.5;"/>
   </g>
   <g id="patch_99">
    <path d="M 55.490865 137.71551 
L 55.490865 18.118365 
" style="fill:none;stroke:#000000;stroke-linecap:square;stroke-linejoin:miter;stroke-width:0.8;"/>
   </g>
   <g id="patch_100">
    <path d="M 219.028114 137.71551 
L 219.028114 18.118365 
" style="fill:none;stroke:#000000;stroke-linecap:square;stroke-linejoin:miter;stroke-width:0.8;"/>
   </g>
   <g id="patch_101">
    <path d="M 55.490865 137.71551 
L 219.028114 137.71551 
" style="fill:none;stroke:#000000;stroke-linecap:square;stroke-linejoin:miter;stroke-width:0.8;"/>
   </g>
   <g id="patch_102">
    <path d="M 55.490865 18.118365 
L 219.028114 18.118365 
" style="fill:none;stroke:#000000;stroke-linecap:square;stroke-linejoin:miter;stroke-width:0.8;"/>
   </g>
   <g id="text_13">
    <!-- Casos acumulados - CE -->
    <defs>
     <path id="DejaVuSans-32"/>
     <path d="M 48.78125 52.59375 
L 48.78125 44.1875 
Q 44.96875 46.296875 41.140625 47.34375 
Q 37.3125 48.390625 33.40625 48.390625 
Q 24.65625 48.390625 19.8125 42.84375 
Q 14.984375 37.3125 14.984375 27.296875 
Q 14.984375 17.28125 19.8125 11.734375 
Q 24.65625 6.203125 33.40625 6.203125 
Q 37.3125 6.203125 41.140625 7.25 
Q 44.96875 8.296875 48.78125 10.40625 
L 48.78125 2.09375 
Q 45.015625 0.34375 40.984375 -0.53125 
Q 36.96875 -1.421875 32.421875 -1.421875 
Q 20.0625 -1.421875 12.78125 6.34375 
Q 5.515625 14.109375 5.515625 27.296875 
Q 5.515625 40.671875 12.859375 48.328125 
Q 20.21875 56 33.015625 56 
Q 37.15625 56 41.109375 55.140625 
Q 45.0625 54.296875 48.78125 52.59375 
z
" id="DejaVuSans-99"/>
     <path d="M 8.5 21.578125 
L 8.5 54.6875 
L 17.484375 54.6875 
L 17.484375 21.921875 
Q 17.484375 14.15625 20.5 10.265625 
Q 23.53125 6.390625 29.59375 6.390625 
Q 36.859375 6.390625 41.078125 11.03125 
Q 45.3125 15.671875 45.3125 23.6875 
L 45.3125 54.6875 
L 54.296875 54.6875 
L 54.296875 0 
L 45.3125 0 
L 45.3125 8.40625 
Q 42.046875 3.421875 37.71875 1 
Q 33.40625 -1.421875 27.6875 -1.421875 
Q 18.265625 -1.421875 13.375 4.4375 
Q 8.5 10.296875 8.5 21.578125 
z
M 31.109375 56 
z
" id="DejaVuSans-117"/>
     <path d="M 52 44.1875 
Q 55.375 50.25 60.0625 53.125 
Q 64.75 56 71.09375 56 
Q 79.640625 56 84.28125 50.015625 
Q 88.921875 44.046875 88.921875 33.015625 
L 88.921875 0 
L 79.890625 0 
L 79.890625 32.71875 
Q 79.890625 40.578125 77.09375 44.375 
Q 74.3125 48.1875 68.609375 48.1875 
Q 61.625 48.1875 57.5625 43.546875 
Q 53.515625 38.921875 53.515625 30.90625 
L 53.515625 0 
L 44.484375 0 
L 44.484375 32.71875 
Q 44.484375 40.625 41.703125 44.40625 
Q 38.921875 48.1875 33.109375 48.1875 
Q 26.21875 48.1875 22.15625 43.53125 
Q 18.109375 38.875 18.109375 30.90625 
L 18.109375 0 
L 9.078125 0 
L 9.078125 54.6875 
L 18.109375 54.6875 
L 18.109375 46.1875 
Q 21.1875 51.21875 25.484375 53.609375 
Q 29.78125 56 35.6875 56 
Q 41.65625 56 45.828125 52.96875 
Q 50 49.953125 52 44.1875 
z
" id="DejaVuSans-109"/>
     <path d="M 9.421875 75.984375 
L 18.40625 75.984375 
L 18.40625 0 
L 9.421875 0 
z
" id="DejaVuSans-108"/>
     <path d="M 45.40625 46.390625 
L 45.40625 75.984375 
L 54.390625 75.984375 
L 54.390625 0 
L 45.40625 0 
L 45.40625 8.203125 
Q 42.578125 3.328125 38.25 0.953125 
Q 33.9375 -1.421875 27.875 -1.421875 
Q 17.96875 -1.421875 11.734375 6.484375 
Q 5.515625 14.40625 5.515625 27.296875 
Q 5.515625 40.1875 11.734375 48.09375 
Q 17.96875 56 27.875 56 
Q 33.9375 56 38.25 53.625 
Q 42.578125 51.265625 45.40625 46.390625 
z
M 14.796875 27.296875 
Q 14.796875 17.390625 18.875 11.75 
Q 22.953125 6.109375 30.078125 6.109375 
Q 37.203125 6.109375 41.296875 11.75 
Q 45.40625 17.390625 45.40625 27.296875 
Q 45.40625 37.203125 41.296875 42.84375 
Q 37.203125 48.484375 30.078125 48.484375 
Q 22.953125 48.484375 18.875 42.84375 
Q 14.796875 37.203125 14.796875 27.296875 
z
" id="DejaVuSans-100"/>
     <path d="M 4.890625 31.390625 
L 31.203125 31.390625 
L 31.203125 23.390625 
L 4.890625 23.390625 
z
" id="DejaVuSans-45"/>
     <path d="M 9.8125 72.90625 
L 55.90625 72.90625 
L 55.90625 64.59375 
L 19.671875 64.59375 
L 19.671875 43.015625 
L 54.390625 43.015625 
L 54.390625 34.71875 
L 19.671875 34.71875 
L 19.671875 8.296875 
L 56.78125 8.296875 
L 56.78125 0 
L 9.8125 0 
z
" id="DejaVuSans-69"/>
    </defs>
    <g transform="translate(67.229177 12.118365)scale(0.12 -0.12)">
     <use xlink:href="#DejaVuSans-67"/>
     <use x="69.824219" xlink:href="#DejaVuSans-97"/>
     <use x="131.103516" xlink:href="#DejaVuSans-115"/>
     <use x="183.203125" xlink:href="#DejaVuSans-111"/>
     <use x="244.384766" xlink:href="#DejaVuSans-115"/>
     <use x="296.484375" xlink:href="#DejaVuSans-32"/>
     <use x="328.271484" xlink:href="#DejaVuSans-97"/>
     <use x="389.550781" xlink:href="#DejaVuSans-99"/>
     <use x="444.53125" xlink:href="#DejaVuSans-117"/>
     <use x="507.910156" xlink:href="#DejaVuSans-109"/>
     <use x="605.322266" xlink:href="#DejaVuSans-117"/>
     <use x="668.701172" xlink:href="#DejaVuSans-108"/>
     <use x="696.484375" xlink:href="#DejaVuSans-97"/>
     <use x="757.763672" xlink:href="#DejaVuSans-100"/>
     <use x="821.240234" xlink:href="#DejaVuSans-111"/>
     <use x="882.421875" xlink:href="#DejaVuSans-115"/>
     <use x="934.521484" xlink:href="#DejaVuSans-32"/>
     <use x="966.308594" xlink:href="#DejaVuSans-45"/>
     <use x="1002.392578" xlink:href="#DejaVuSans-32"/>
     <use x="1034.179688" xlink:href="#DejaVuSans-67"/>
     <use x="1104.003906" xlink:href="#DejaVuSans-69"/>
    </g>
   </g>
  </g>
  <g id="axes_2">
   <g id="patch_103">
    <path d="M 285.013615 137.71551 
L 448.550864 137.71551 
L 448.550864 18.118365 
L 285.013615 18.118365 
z
" style="fill:#ffffff;"/>
   </g>
   <g id="patch_104">
    <path clip-path="url(#paccded9cbf)" d="M 292.447126 137.71551 
L 293.688631 137.71551 
L 293.688631 137.659338 
L 292.447126 137.659338 
z
" style="fill:#1f77b4;"/>
   </g>
   <g id="patch_105">
    <path clip-path="url(#paccded9cbf)" d="M 293.999008 137.71551 
L 295.240513 137.71551 
L 295.240513 137.561038 
L 293.999008 137.561038 
z
" style="fill:#1f77b4;"/>
   </g>
   <g id="patch_106">
    <path clip-path="url(#paccded9cbf)" d="M 295.550889 137.71551 
L 296.792394 137.71551 
L 296.792394 137.224008 
L 295.550889 137.224008 
z
" style="fill:#1f77b4;"/>
   </g>
   <g id="patch_107">
    <path clip-path="url(#paccded9cbf)" d="M 297.10277 137.71551 
L 298.344275 137.71551 
L 298.344275 137.532952 
L 297.10277 137.532952 
z
" style="fill:#1f77b4;"/>
   </g>
   <g id="patch_108">
    <path clip-path="url(#paccded9cbf)" d="M 298.654651 137.71551 
L 299.896156 137.71551 
L 299.896156 137.097622 
L 298.654651 137.097622 
z
" style="fill:#1f77b4;"/>
   </g>
   <g id="patch_109">
    <path clip-path="url(#paccded9cbf)" d="M 300.206533 137.71551 
L 301.448038 137.71551 
L 301.448038 136.999322 
L 300.206533 136.999322 
z
" style="fill:#1f77b4;"/>
   </g>
   <g id="patch_110">
    <path clip-path="url(#paccded9cbf)" d="M 301.758414 137.71551 
L 302.999919 137.71551 
L 302.999919 137.448695 
L 301.758414 137.448695 
z
" style="fill:#1f77b4;"/>
   </g>
   <g id="patch_111">
    <path clip-path="url(#paccded9cbf)" d="M 303.310295 137.71551 
L 304.5518 137.71551 
L 304.5518 137.462738 
L 303.310295 137.462738 
z
" style="fill:#1f77b4;"/>
   </g>
   <g id="patch_112">
    <path clip-path="url(#paccded9cbf)" d="M 304.862176 137.71551 
L 306.103681 137.71551 
L 306.103681 137.224008 
L 304.862176 137.224008 
z
" style="fill:#1f77b4;"/>
   </g>
   <g id="patch_113">
    <path clip-path="url(#paccded9cbf)" d="M 306.414058 137.71551 
L 307.655563 137.71551 
L 307.655563 137.055493 
L 306.414058 137.055493 
z
" style="fill:#1f77b4;"/>
   </g>
   <g id="patch_114">
    <path clip-path="url(#paccded9cbf)" d="M 307.965939 137.71551 
L 309.207444 137.71551 
L 309.207444 137.266137 
L 307.965939 137.266137 
z
" style="fill:#1f77b4;"/>
   </g>
   <g id="patch_115">
    <path clip-path="url(#paccded9cbf)" d="M 309.51782 137.71551 
L 310.759325 137.71551 
L 310.759325 137.238051 
L 309.51782 137.238051 
z
" style="fill:#1f77b4;"/>
   </g>
   <g id="patch_116">
    <path clip-path="url(#paccded9cbf)" d="M 311.069702 137.71551 
L 312.311207 137.71551 
L 312.311207 137.37848 
L 311.069702 137.37848 
z
" style="fill:#1f77b4;"/>
   </g>
   <g id="patch_117">
    <path clip-path="url(#paccded9cbf)" d="M 312.621583 137.71551 
L 313.863088 137.71551 
L 313.863088 137.462738 
L 312.621583 137.462738 
z
" style="fill:#1f77b4;"/>
   </g>
   <g id="patch_118">
    <path clip-path="url(#paccded9cbf)" d="M 314.173464 137.71551 
L 315.414969 137.71551 
L 315.414969 136.957193 
L 314.173464 136.957193 
z
" style="fill:#1f77b4;"/>
   </g>
   <g id="patch_119">
    <path clip-path="url(#paccded9cbf)" d="M 315.725345 137.71551 
L 316.96685 137.71551 
L 316.96685 136.226962 
L 315.725345 136.226962 
z
" style="fill:#1f77b4;"/>
   </g>
   <g id="patch_120">
    <path clip-path="url(#paccded9cbf)" d="M 317.277227 137.71551 
L 318.518732 137.71551 
L 318.518732 136.634206 
L 317.277227 136.634206 
z
" style="fill:#1f77b4;"/>
   </g>
   <g id="patch_121">
    <path clip-path="url(#paccded9cbf)" d="M 318.829108 137.71551 
L 320.070613 137.71551 
L 320.070613 136.26909 
L 318.829108 136.26909 
z
" style="fill:#1f77b4;"/>
   </g>
   <g id="patch_122">
    <path clip-path="url(#paccded9cbf)" d="M 320.380989 137.71551 
L 321.622494 137.71551 
L 321.622494 136.409519 
L 320.380989 136.409519 
z
" style="fill:#1f77b4;"/>
   </g>
   <g id="patch_123">
    <path clip-path="url(#paccded9cbf)" d="M 321.93287 137.71551 
L 323.174375 137.71551 
L 323.174375 135.047357 
L 321.93287 135.047357 
z
" style="fill:#1f77b4;"/>
   </g>
   <g id="patch_124">
    <path clip-path="url(#paccded9cbf)" d="M 323.484752 137.71551 
L 324.726257 137.71551 
L 324.726257 137.181879 
L 323.484752 137.181879 
z
" style="fill:#1f77b4;"/>
   </g>
   <g id="patch_125">
    <path clip-path="url(#paccded9cbf)" d="M 325.036633 137.71551 
L 326.278138 137.71551 
L 326.278138 134.345212 
L 325.036633 134.345212 
z
" style="fill:#1f77b4;"/>
   </g>
   <g id="patch_126">
    <path clip-path="url(#paccded9cbf)" d="M 326.588514 137.71551 
L 327.830019 137.71551 
L 327.830019 135.83376 
L 326.588514 135.83376 
z
" style="fill:#1f77b4;"/>
   </g>
   <g id="patch_127">
    <path clip-path="url(#paccded9cbf)" d="M 328.140396 137.71551 
L 329.381901 137.71551 
L 329.381901 136.971236 
L 328.140396 136.971236 
z
" style="fill:#1f77b4;"/>
   </g>
   <g id="patch_128">
    <path clip-path="url(#paccded9cbf)" d="M 329.692277 137.71551 
L 330.933782 137.71551 
L 330.933782 136.255047 
L 329.692277 136.255047 
z
" style="fill:#1f77b4;"/>
   </g>
   <g id="patch_129">
    <path clip-path="url(#paccded9cbf)" d="M 331.244158 137.71551 
L 332.485663 137.71551 
L 332.485663 136.395476 
L 331.244158 136.395476 
z
" style="fill:#1f77b4;"/>
   </g>
   <g id="patch_130">
    <path clip-path="url(#paccded9cbf)" d="M 332.796039 137.71551 
L 334.037544 137.71551 
L 334.037544 135.974189 
L 332.796039 135.974189 
z
" style="fill:#1f77b4;"/>
   </g>
   <g id="patch_131">
    <path clip-path="url(#paccded9cbf)" d="M 334.347921 137.71551 
L 335.589426 137.71551 
L 335.589426 134.836713 
L 334.347921 134.836713 
z
" style="fill:#1f77b4;"/>
   </g>
   <g id="patch_132">
    <path clip-path="url(#paccded9cbf)" d="M 335.899802 137.71551 
L 337.141307 137.71551 
L 337.141307 135.580988 
L 335.899802 135.580988 
z
" style="fill:#1f77b4;"/>
   </g>
   <g id="patch_133">
    <path clip-path="url(#paccded9cbf)" d="M 337.451683 137.71551 
L 338.693188 137.71551 
L 338.693188 134.499684 
L 337.451683 134.499684 
z
" style="fill:#1f77b4;"/>
   </g>
   <g id="patch_134">
    <path clip-path="url(#paccded9cbf)" d="M 339.003564 137.71551 
L 340.245069 137.71551 
L 340.245069 133.530723 
L 339.003564 133.530723 
z
" style="fill:#1f77b4;"/>
   </g>
   <g id="patch_135">
    <path clip-path="url(#paccded9cbf)" d="M 340.555446 137.71551 
L 341.796951 137.71551 
L 341.796951 132.800492 
L 340.555446 132.800492 
z
" style="fill:#1f77b4;"/>
   </g>
   <g id="patch_136">
    <path clip-path="url(#paccded9cbf)" d="M 342.107327 137.71551 
L 343.348832 137.71551 
L 343.348832 134.654156 
L 342.107327 134.654156 
z
" style="fill:#1f77b4;"/>
   </g>
   <g id="patch_137">
    <path clip-path="url(#paccded9cbf)" d="M 343.659208 137.71551 
L 344.900713 137.71551 
L 344.900713 134.485641 
L 343.659208 134.485641 
z
" style="fill:#1f77b4;"/>
   </g>
   <g id="patch_138">
    <path clip-path="url(#paccded9cbf)" d="M 345.21109 137.71551 
L 346.452595 137.71551 
L 346.452595 134.429469 
L 345.21109 134.429469 
z
" style="fill:#1f77b4;"/>
   </g>
   <g id="patch_139">
    <path clip-path="url(#paccded9cbf)" d="M 346.762971 137.71551 
L 348.004476 137.71551 
L 348.004476 134.991185 
L 346.762971 134.991185 
z
" style="fill:#1f77b4;"/>
   </g>
   <g id="patch_140">
    <path clip-path="url(#paccded9cbf)" d="M 348.314852 137.71551 
L 349.556357 137.71551 
L 349.556357 128.053988 
L 348.314852 128.053988 
z
" style="fill:#1f77b4;"/>
   </g>
   <g id="patch_141">
    <path clip-path="url(#paccded9cbf)" d="M 349.866733 137.71551 
L 351.108238 137.71551 
L 351.108238 134.878842 
L 349.866733 134.878842 
z
" style="fill:#1f77b4;"/>
   </g>
   <g id="patch_142">
    <path clip-path="url(#paccded9cbf)" d="M 351.418615 137.71551 
L 352.66012 137.71551 
L 352.66012 128.994863 
L 351.418615 128.994863 
z
" style="fill:#1f77b4;"/>
   </g>
   <g id="patch_143">
    <path clip-path="url(#paccded9cbf)" d="M 352.970496 137.71551 
L 354.212001 137.71551 
L 354.212001 131.929831 
L 352.970496 131.929831 
z
" style="fill:#1f77b4;"/>
   </g>
   <g id="patch_144">
    <path clip-path="url(#paccded9cbf)" d="M 354.522377 137.71551 
L 355.763882 137.71551 
L 355.763882 125.175191 
L 354.522377 125.175191 
z
" style="fill:#1f77b4;"/>
   </g>
   <g id="patch_145">
    <path clip-path="url(#paccded9cbf)" d="M 356.074258 137.71551 
L 357.315763 137.71551 
L 357.315763 135.019271 
L 356.074258 135.019271 
z
" style="fill:#1f77b4;"/>
   </g>
   <g id="patch_146">
    <path clip-path="url(#paccded9cbf)" d="M 357.62614 137.71551 
L 358.867645 137.71551 
L 358.867645 132.814534 
L 357.62614 132.814534 
z
" style="fill:#1f77b4;"/>
   </g>
   <g id="patch_147">
    <path clip-path="url(#paccded9cbf)" d="M 359.178021 137.71551 
L 360.419526 137.71551 
L 360.419526 132.954964 
L 359.178021 132.954964 
z
" style="fill:#1f77b4;"/>
   </g>
   <g id="patch_148">
    <path clip-path="url(#paccded9cbf)" d="M 360.729902 137.71551 
L 361.971407 137.71551 
L 361.971407 133.881796 
L 360.729902 133.881796 
z
" style="fill:#1f77b4;"/>
   </g>
   <g id="patch_149">
    <path clip-path="url(#paccded9cbf)" d="M 362.281784 137.71551 
L 363.523289 137.71551 
L 363.523289 132.772406 
L 362.281784 132.772406 
z
" style="fill:#1f77b4;"/>
   </g>
   <g id="patch_150">
    <path clip-path="url(#paccded9cbf)" d="M 363.833665 137.71551 
L 365.07517 137.71551 
L 365.07517 135.763546 
L 363.833665 135.763546 
z
" style="fill:#1f77b4;"/>
   </g>
   <g id="patch_151">
    <path clip-path="url(#paccded9cbf)" d="M 365.385546 137.71551 
L 366.627051 137.71551 
L 366.627051 100.22094 
L 365.385546 100.22094 
z
" style="fill:#1f77b4;"/>
   </g>
   <g id="patch_152">
    <path clip-path="url(#paccded9cbf)" d="M 366.937427 137.71551 
L 368.178932 137.71551 
L 368.178932 131.677059 
L 366.937427 131.677059 
z
" style="fill:#1f77b4;"/>
   </g>
   <g id="patch_153">
    <path clip-path="url(#paccded9cbf)" d="M 368.489309 137.71551 
L 369.730814 137.71551 
L 369.730814 126.003723 
L 368.489309 126.003723 
z
" style="fill:#1f77b4;"/>
   </g>
   <g id="patch_154">
    <path clip-path="url(#paccded9cbf)" d="M 370.04119 137.71551 
L 371.282695 137.71551 
L 371.282695 115.471541 
L 370.04119 115.471541 
z
" style="fill:#1f77b4;"/>
   </g>
   <g id="patch_155">
    <path clip-path="url(#paccded9cbf)" d="M 371.593071 137.71551 
L 372.834576 137.71551 
L 372.834576 122.717682 
L 371.593071 122.717682 
z
" style="fill:#1f77b4;"/>
   </g>
   <g id="patch_156">
    <path clip-path="url(#paccded9cbf)" d="M 373.144952 137.71551 
L 374.386457 137.71551 
L 374.386457 124.753904 
L 373.144952 124.753904 
z
" style="fill:#1f77b4;"/>
   </g>
   <g id="patch_157">
    <path clip-path="url(#paccded9cbf)" d="M 374.696834 137.71551 
L 375.938339 137.71551 
L 375.938339 126.298624 
L 374.696834 126.298624 
z
" style="fill:#1f77b4;"/>
   </g>
   <g id="patch_158">
    <path clip-path="url(#paccded9cbf)" d="M 376.248715 137.71551 
L 377.49022 137.71551 
L 377.49022 124.978591 
L 376.248715 124.978591 
z
" style="fill:#1f77b4;"/>
   </g>
   <g id="patch_159">
    <path clip-path="url(#paccded9cbf)" d="M 377.800596 137.71551 
L 379.042101 137.71551 
L 379.042101 126.298624 
L 377.800596 126.298624 
z
" style="fill:#1f77b4;"/>
   </g>
   <g id="patch_160">
    <path clip-path="url(#paccded9cbf)" d="M 379.352478 137.71551 
L 380.593983 137.71551 
L 380.593983 127.267585 
L 379.352478 127.267585 
z
" style="fill:#1f77b4;"/>
   </g>
   <g id="patch_161">
    <path clip-path="url(#paccded9cbf)" d="M 380.904359 137.71551 
L 382.145864 137.71551 
L 382.145864 110.73908 
L 380.904359 110.73908 
z
" style="fill:#1f77b4;"/>
   </g>
   <g id="patch_162">
    <path clip-path="url(#paccded9cbf)" d="M 382.45624 137.71551 
L 383.697745 137.71551 
L 383.697745 117.872878 
L 382.45624 117.872878 
z
" style="fill:#1f77b4;"/>
   </g>
   <g id="patch_163">
    <path clip-path="url(#paccded9cbf)" d="M 384.008121 137.71551 
L 385.249626 137.71551 
L 385.249626 119.389512 
L 384.008121 119.389512 
z
" style="fill:#1f77b4;"/>
   </g>
   <g id="patch_164">
    <path clip-path="url(#paccded9cbf)" d="M 385.560003 137.71551 
L 386.801508 137.71551 
L 386.801508 131.255771 
L 385.560003 131.255771 
z
" style="fill:#1f77b4;"/>
   </g>
   <g id="patch_165">
    <path clip-path="url(#paccded9cbf)" d="M 387.111884 137.71551 
L 388.353389 137.71551 
L 388.353389 108.113056 
L 387.111884 108.113056 
z
" style="fill:#1f77b4;"/>
   </g>
   <g id="patch_166">
    <path clip-path="url(#paccded9cbf)" d="M 388.663765 137.71551 
L 389.90527 137.71551 
L 389.90527 113.15446 
L 388.663765 113.15446 
z
" style="fill:#1f77b4;"/>
   </g>
   <g id="patch_167">
    <path clip-path="url(#paccded9cbf)" d="M 390.215646 137.71551 
L 391.457151 137.71551 
L 391.457151 103.338466 
L 390.215646 103.338466 
z
" style="fill:#1f77b4;"/>
   </g>
   <g id="patch_168">
    <path clip-path="url(#paccded9cbf)" d="M 391.767528 137.71551 
L 393.009033 137.71551 
L 393.009033 125.736908 
L 391.767528 125.736908 
z
" style="fill:#1f77b4;"/>
   </g>
   <g id="patch_169">
    <path clip-path="url(#paccded9cbf)" d="M 393.319409 137.71551 
L 394.560914 137.71551 
L 394.560914 93.339914 
L 393.319409 93.339914 
z
" style="fill:#1f77b4;"/>
   </g>
   <g id="patch_170">
    <path clip-path="url(#paccded9cbf)" d="M 394.87129 137.71551 
L 396.112795 137.71551 
L 396.112795 130.005952 
L 394.87129 130.005952 
z
" style="fill:#1f77b4;"/>
   </g>
   <g id="patch_171">
    <path clip-path="url(#paccded9cbf)" d="M 396.423172 137.71551 
L 397.664677 137.71551 
L 397.664677 131.073214 
L 396.423172 131.073214 
z
" style="fill:#1f77b4;"/>
   </g>
   <g id="patch_172">
    <path clip-path="url(#paccded9cbf)" d="M 397.975053 137.71551 
L 399.216558 137.71551 
L 399.216558 129.430193 
L 397.975053 129.430193 
z
" style="fill:#1f77b4;"/>
   </g>
   <g id="patch_173">
    <path clip-path="url(#paccded9cbf)" d="M 399.526934 137.71551 
L 400.768439 137.71551 
L 400.768439 125.975637 
L 399.526934 125.975637 
z
" style="fill:#1f77b4;"/>
   </g>
   <g id="patch_174">
    <path clip-path="url(#paccded9cbf)" d="M 401.078815 137.71551 
L 402.32032 137.71551 
L 402.32032 134.148611 
L 401.078815 134.148611 
z
" style="fill:#1f77b4;"/>
   </g>
   <g id="patch_175">
    <path clip-path="url(#paccded9cbf)" d="M 402.630697 137.71551 
L 403.872202 137.71551 
L 403.872202 130.048081 
L 402.630697 130.048081 
z
" style="fill:#1f77b4;"/>
   </g>
   <g id="patch_176">
    <path clip-path="url(#paccded9cbf)" d="M 404.182578 137.71551 
L 405.424083 137.71551 
L 405.424083 129.65488 
L 404.182578 129.65488 
z
" style="fill:#1f77b4;"/>
   </g>
   <g id="patch_177">
    <path clip-path="url(#paccded9cbf)" d="M 405.734459 137.71551 
L 406.975964 137.71551 
L 406.975964 23.813467 
L 405.734459 23.813467 
z
" style="fill:#1f77b4;"/>
   </g>
   <g id="patch_178">
    <path clip-path="url(#paccded9cbf)" d="M 407.28634 137.71551 
L 408.527845 137.71551 
L 408.527845 109.86842 
L 407.28634 109.86842 
z
" style="fill:#1f77b4;"/>
   </g>
   <g id="patch_179">
    <path clip-path="url(#paccded9cbf)" d="M 408.838222 137.71551 
L 410.079727 137.71551 
L 410.079727 109.419046 
L 408.838222 109.419046 
z
" style="fill:#1f77b4;"/>
   </g>
   <g id="patch_180">
    <path clip-path="url(#paccded9cbf)" d="M 410.390103 137.71551 
L 411.631608 137.71551 
L 411.631608 101.639274 
L 410.390103 101.639274 
z
" style="fill:#1f77b4;"/>
   </g>
   <g id="patch_181">
    <path clip-path="url(#paccded9cbf)" d="M 411.941984 137.71551 
L 413.183489 137.71551 
L 413.183489 95.82551 
L 411.941984 95.82551 
z
" style="fill:#1f77b4;"/>
   </g>
   <g id="patch_182">
    <path clip-path="url(#paccded9cbf)" d="M 413.493866 137.71551 
L 414.735371 137.71551 
L 414.735371 85.20907 
L 413.493866 85.20907 
z
" style="fill:#1f77b4;"/>
   </g>
   <g id="patch_183">
    <path clip-path="url(#paccded9cbf)" d="M 415.045747 137.71551 
L 416.287252 137.71551 
L 416.287252 112.438272 
L 415.045747 112.438272 
z
" style="fill:#1f77b4;"/>
   </g>
   <g id="patch_184">
    <path clip-path="url(#paccded9cbf)" d="M 416.597628 137.71551 
L 417.839133 137.71551 
L 417.839133 109.910548 
L 416.597628 109.910548 
z
" style="fill:#1f77b4;"/>
   </g>
   <g id="patch_185">
    <path clip-path="url(#paccded9cbf)" d="M 418.149509 137.71551 
L 419.391014 137.71551 
L 419.391014 127.941645 
L 418.149509 127.941645 
z
" style="fill:#1f77b4;"/>
   </g>
   <g id="patch_186">
    <path clip-path="url(#paccded9cbf)" d="M 419.701391 137.71551 
L 420.942896 137.71551 
L 420.942896 118.982268 
L 419.701391 118.982268 
z
" style="fill:#1f77b4;"/>
   </g>
   <g id="patch_187">
    <path clip-path="url(#paccded9cbf)" d="M 421.253272 137.71551 
L 422.494777 137.71551 
L 422.494777 98.690263 
L 421.253272 98.690263 
z
" style="fill:#1f77b4;"/>
   </g>
   <g id="patch_188">
    <path clip-path="url(#paccded9cbf)" d="M 422.805153 137.71551 
L 424.046658 137.71551 
L 424.046658 95.334008 
L 422.805153 95.334008 
z
" style="fill:#1f77b4;"/>
   </g>
   <g id="patch_189">
    <path clip-path="url(#paccded9cbf)" d="M 424.357034 137.71551 
L 425.598539 137.71551 
L 425.598539 102.931222 
L 424.357034 102.931222 
z
" style="fill:#1f77b4;"/>
   </g>
   <g id="patch_190">
    <path clip-path="url(#paccded9cbf)" d="M 425.908916 137.71551 
L 427.150421 137.71551 
L 427.150421 112.073156 
L 425.908916 112.073156 
z
" style="fill:#1f77b4;"/>
   </g>
   <g id="patch_191">
    <path clip-path="url(#paccded9cbf)" d="M 427.460797 137.71551 
L 428.702302 137.71551 
L 428.702302 127.548443 
L 427.460797 127.548443 
z
" style="fill:#1f77b4;"/>
   </g>
   <g id="patch_192">
    <path clip-path="url(#paccded9cbf)" d="M 429.012678 137.71551 
L 430.254183 137.71551 
L 430.254183 133.235822 
L 429.012678 133.235822 
z
" style="fill:#1f77b4;"/>
   </g>
   <g id="patch_193">
    <path clip-path="url(#paccded9cbf)" d="M 430.56456 137.71551 
L 431.806065 137.71551 
L 431.806065 99.603052 
L 430.56456 99.603052 
z
" style="fill:#1f77b4;"/>
   </g>
   <g id="patch_194">
    <path clip-path="url(#paccded9cbf)" d="M 432.116441 137.71551 
L 433.357946 137.71551 
L 433.357946 112.059113 
L 432.116441 112.059113 
z
" style="fill:#1f77b4;"/>
   </g>
   <g id="patch_195">
    <path clip-path="url(#paccded9cbf)" d="M 433.668322 137.71551 
L 434.909827 137.71551 
L 434.909827 86.065687 
L 433.668322 86.065687 
z
" style="fill:#1f77b4;"/>
   </g>
   <g id="patch_196">
    <path clip-path="url(#paccded9cbf)" d="M 435.220203 137.71551 
L 436.461708 137.71551 
L 436.461708 105.33256 
L 435.220203 105.33256 
z
" style="fill:#1f77b4;"/>
   </g>
   <g id="patch_197">
    <path clip-path="url(#paccded9cbf)" d="M 436.772085 137.71551 
L 438.01359 137.71551 
L 438.01359 101.344373 
L 436.772085 101.344373 
z
" style="fill:#1f77b4;"/>
   </g>
   <g id="patch_198">
    <path clip-path="url(#paccded9cbf)" d="M 438.323966 137.71551 
L 439.565471 137.71551 
L 439.565471 105.515117 
L 438.323966 105.515117 
z
" style="fill:#1f77b4;"/>
   </g>
   <g id="patch_199">
    <path clip-path="url(#paccded9cbf)" d="M 439.875847 137.71551 
L 441.117352 137.71551 
L 441.117352 127.745044 
L 439.875847 127.745044 
z
" style="fill:#1f77b4;"/>
   </g>
   <g id="matplotlib.axis_3">
    <g id="xtick_6">
     <g id="line2d_12">
      <g>
       <use style="stroke:#000000;stroke-width:0.8;" x="293.067879" xlink:href="#m8ce27cc2bb" y="137.71551"/>
      </g>
     </g>
     <g id="text_14">
      <!-- 0 -->
      <g transform="translate(289.886629 152.313947)scale(0.1 -0.1)">
       <use xlink:href="#DejaVuSans-48"/>
      </g>
     </g>
    </g>
    <g id="xtick_7">
     <g id="line2d_13">
      <g>
       <use style="stroke:#000000;stroke-width:0.8;" x="331.864911" xlink:href="#m8ce27cc2bb" y="137.71551"/>
      </g>
     </g>
     <g id="text_15">
      <!-- 25 -->
      <g transform="translate(325.502411 152.313947)scale(0.1 -0.1)">
       <use xlink:href="#DejaVuSans-50"/>
       <use x="63.623047" xlink:href="#DejaVuSans-53"/>
      </g>
     </g>
    </g>
    <g id="xtick_8">
     <g id="line2d_14">
      <g>
       <use style="stroke:#000000;stroke-width:0.8;" x="370.661942" xlink:href="#m8ce27cc2bb" y="137.71551"/>
      </g>
     </g>
     <g id="text_16">
      <!-- 50 -->
      <g transform="translate(364.299442 152.313947)scale(0.1 -0.1)">
       <use xlink:href="#DejaVuSans-53"/>
       <use x="63.623047" xlink:href="#DejaVuSans-48"/>
      </g>
     </g>
    </g>
    <g id="xtick_9">
     <g id="line2d_15">
      <g>
       <use style="stroke:#000000;stroke-width:0.8;" x="409.458974" xlink:href="#m8ce27cc2bb" y="137.71551"/>
      </g>
     </g>
     <g id="text_17">
      <!-- 75 -->
      <g transform="translate(403.096474 152.313947)scale(0.1 -0.1)">
       <use xlink:href="#DejaVuSans-55"/>
       <use x="63.623047" xlink:href="#DejaVuSans-53"/>
      </g>
     </g>
    </g>
    <g id="xtick_10">
     <g id="line2d_16">
      <g>
       <use style="stroke:#000000;stroke-width:0.8;" x="448.256006" xlink:href="#m8ce27cc2bb" y="137.71551"/>
      </g>
     </g>
     <g id="text_18">
      <!-- 100 -->
      <g transform="translate(438.712256 152.313947)scale(0.1 -0.1)">
       <use xlink:href="#DejaVuSans-49"/>
       <use x="63.623047" xlink:href="#DejaVuSans-48"/>
       <use x="127.246094" xlink:href="#DejaVuSans-48"/>
      </g>
     </g>
    </g>
    <g id="text_19">
     <!-- Dias -->
     <g transform="translate(355.874427 165.992072)scale(0.1 -0.1)">
      <use xlink:href="#DejaVuSans-68"/>
      <use x="77.001953" xlink:href="#DejaVuSans-105"/>
      <use x="104.785156" xlink:href="#DejaVuSans-97"/>
      <use x="166.064453" xlink:href="#DejaVuSans-115"/>
     </g>
    </g>
   </g>
   <g id="matplotlib.axis_4">
    <g id="ytick_6">
     <g id="line2d_17">
      <g>
       <use style="stroke:#000000;stroke-width:0.8;" x="285.013615" xlink:href="#me98666c4a7" y="137.71551"/>
      </g>
     </g>
     <g id="text_20">
      <!-- 0 -->
      <g transform="translate(271.651115 141.514729)scale(0.1 -0.1)">
       <use xlink:href="#DejaVuSans-48"/>
      </g>
     </g>
    </g>
    <g id="ytick_7">
     <g id="line2d_18">
      <g>
       <use style="stroke:#000000;stroke-width:0.8;" x="285.013615" xlink:href="#me98666c4a7" y="109.62969"/>
      </g>
     </g>
     <g id="text_21">
      <!-- 2000 -->
      <g transform="translate(252.563615 113.428909)scale(0.1 -0.1)">
       <use xlink:href="#DejaVuSans-50"/>
       <use x="63.623047" xlink:href="#DejaVuSans-48"/>
       <use x="127.246094" xlink:href="#DejaVuSans-48"/>
       <use x="190.869141" xlink:href="#DejaVuSans-48"/>
      </g>
     </g>
    </g>
    <g id="ytick_8">
     <g id="line2d_19">
      <g>
       <use style="stroke:#000000;stroke-width:0.8;" x="285.013615" xlink:href="#me98666c4a7" y="81.54387"/>
      </g>
     </g>
     <g id="text_22">
      <!-- 4000 -->
      <g transform="translate(252.563615 85.343089)scale(0.1 -0.1)">
       <use xlink:href="#DejaVuSans-52"/>
       <use x="63.623047" xlink:href="#DejaVuSans-48"/>
       <use x="127.246094" xlink:href="#DejaVuSans-48"/>
       <use x="190.869141" xlink:href="#DejaVuSans-48"/>
      </g>
     </g>
    </g>
    <g id="ytick_9">
     <g id="line2d_20">
      <g>
       <use style="stroke:#000000;stroke-width:0.8;" x="285.013615" xlink:href="#me98666c4a7" y="53.45805"/>
      </g>
     </g>
     <g id="text_23">
      <!-- 6000 -->
      <g transform="translate(252.563615 57.257269)scale(0.1 -0.1)">
       <use xlink:href="#DejaVuSans-54"/>
       <use x="63.623047" xlink:href="#DejaVuSans-48"/>
       <use x="127.246094" xlink:href="#DejaVuSans-48"/>
       <use x="190.869141" xlink:href="#DejaVuSans-48"/>
      </g>
     </g>
    </g>
    <g id="ytick_10">
     <g id="line2d_21">
      <g>
       <use style="stroke:#000000;stroke-width:0.8;" x="285.013615" xlink:href="#me98666c4a7" y="25.37223"/>
      </g>
     </g>
     <g id="text_24">
      <!-- 8000 -->
      <g transform="translate(252.563615 29.171449)scale(0.1 -0.1)">
       <use xlink:href="#DejaVuSans-56"/>
       <use x="63.623047" xlink:href="#DejaVuSans-48"/>
       <use x="127.246094" xlink:href="#DejaVuSans-48"/>
       <use x="190.869141" xlink:href="#DejaVuSans-48"/>
      </g>
     </g>
    </g>
    <g id="text_25">
     <!-- Novos casos -->
     <defs>
      <path d="M 9.8125 72.90625 
L 23.09375 72.90625 
L 55.421875 11.921875 
L 55.421875 72.90625 
L 64.984375 72.90625 
L 64.984375 0 
L 51.703125 0 
L 19.390625 60.984375 
L 19.390625 0 
L 9.8125 0 
z
" id="DejaVuSans-78"/>
      <path d="M 2.984375 54.6875 
L 12.5 54.6875 
L 29.59375 8.796875 
L 46.6875 54.6875 
L 56.203125 54.6875 
L 35.6875 0 
L 23.484375 0 
z
" id="DejaVuSans-118"/>
     </defs>
     <g transform="translate(246.483927 109.011469)rotate(-90)scale(0.1 -0.1)">
      <use xlink:href="#DejaVuSans-78"/>
      <use x="74.804688" xlink:href="#DejaVuSans-111"/>
      <use x="135.986328" xlink:href="#DejaVuSans-118"/>
      <use x="195.166016" xlink:href="#DejaVuSans-111"/>
      <use x="256.347656" xlink:href="#DejaVuSans-115"/>
      <use x="308.447266" xlink:href="#DejaVuSans-32"/>
      <use x="340.234375" xlink:href="#DejaVuSans-99"/>
      <use x="395.214844" xlink:href="#DejaVuSans-97"/>
      <use x="456.494141" xlink:href="#DejaVuSans-115"/>
      <use x="508.59375" xlink:href="#DejaVuSans-111"/>
      <use x="569.775391" xlink:href="#DejaVuSans-115"/>
     </g>
    </g>
   </g>
   <g id="line2d_22">
    <path clip-path="url(#paccded9cbf)" d="M 293.067879 137.562167 
L 294.61976 137.511171 
L 296.171641 137.455386 
L 297.723523 137.411391 
L 299.275404 137.370339 
L 300.827285 137.333316 
L 302.379166 137.300376 
L 303.931048 137.267201 
L 305.482929 137.230471 
L 307.03481 137.186161 
L 308.586692 137.130907 
L 310.138573 137.062126 
L 311.690454 136.978213 
L 313.242335 136.87903 
L 314.794217 136.768506 
L 316.346098 136.650044 
L 317.897979 136.530279 
L 319.44986 136.414672 
L 321.001742 136.306376 
L 322.553623 136.205988 
L 324.105504 136.112302 
L 325.657386 136.019266 
L 327.209267 135.923229 
L 328.761148 135.815699 
L 330.313029 135.68709 
L 331.864911 135.533273 
L 333.416792 135.353248 
L 334.968673 135.147383 
L 336.520554 134.916157 
L 338.072436 134.657992 
L 339.624317 134.373771 
L 341.176198 134.072969 
L 342.72808 133.758521 
L 344.279961 133.435382 
L 345.831842 133.111336 
L 347.383723 132.793163 
L 348.935605 132.485979 
L 350.487486 132.193535 
L 352.039367 131.898675 
L 353.591248 131.583958 
L 355.14313 131.220568 
L 356.695011 130.768276 
L 358.246892 130.217333 
L 359.798774 129.560831 
L 361.350655 128.798426 
L 362.902536 127.958454 
L 364.454417 127.079377 
L 366.006299 126.213747 
L 367.55818 125.43393 
L 369.110061 124.747032 
L 370.661942 124.156984 
L 372.213824 123.648567 
L 373.765705 123.194837 
L 375.317586 122.751149 
L 376.869468 122.272391 
L 378.421349 121.69376 
L 379.97323 121.02173 
L 381.525111 120.279211 
L 383.076993 119.536258 
L 384.628874 118.847354 
L 386.180755 118.311355 
L 387.732636 117.96626 
L 389.284518 117.8516 
L 390.836399 117.940554 
L 392.38828 118.16596 
L 393.940162 118.375773 
L 395.492043 118.414598 
L 397.043924 118.045856 
L 398.595805 117.217014 
L 400.147687 115.907269 
L 401.699568 114.158461 
L 403.251449 112.063108 
L 404.80333 109.809867 
L 406.355212 107.649944 
L 407.907093 105.911495 
L 409.458974 104.68534 
L 411.010856 104.015503 
L 412.562737 103.892106 
L 414.114618 104.278774 
L 415.666499 105.075173 
L 417.218381 106.102001 
L 418.770262 107.139311 
L 420.322143 108.087742 
L 421.874024 108.870449 
L 423.425906 109.455806 
L 424.977787 109.799211 
L 426.529668 109.900348 
L 428.08155 109.782086 
L 429.633431 109.484687 
L 431.185312 109.079484 
L 432.737193 108.628789 
L 434.289075 108.151412 
L 435.840956 107.716082 
L 437.392837 107.412168 
L 438.944718 107.145668 
L 440.4966 106.963631 
" style="fill:none;stroke:#ff0000;stroke-linecap:square;stroke-width:1.5;"/>
   </g>
   <g id="patch_200">
    <path d="M 285.013615 137.71551 
L 285.013615 18.118365 
" style="fill:none;stroke:#000000;stroke-linecap:square;stroke-linejoin:miter;stroke-width:0.8;"/>
   </g>
   <g id="patch_201">
    <path d="M 448.550864 137.71551 
L 448.550864 18.118365 
" style="fill:none;stroke:#000000;stroke-linecap:square;stroke-linejoin:miter;stroke-width:0.8;"/>
   </g>
   <g id="patch_202">
    <path d="M 285.013615 137.71551 
L 448.550864 137.71551 
" style="fill:none;stroke:#000000;stroke-linecap:square;stroke-linejoin:miter;stroke-width:0.8;"/>
   </g>
   <g id="patch_203">
    <path d="M 285.013615 18.118365 
L 448.550864 18.118365 
" style="fill:none;stroke:#000000;stroke-linecap:square;stroke-linejoin:miter;stroke-width:0.8;"/>
   </g>
   <g id="text_26">
    <!-- Casos novos - CE -->
    <defs>
     <path d="M 54.890625 33.015625 
L 54.890625 0 
L 45.90625 0 
L 45.90625 32.71875 
Q 45.90625 40.484375 42.875 44.328125 
Q 39.84375 48.1875 33.796875 48.1875 
Q 26.515625 48.1875 22.3125 43.546875 
Q 18.109375 38.921875 18.109375 30.90625 
L 18.109375 0 
L 9.078125 0 
L 9.078125 54.6875 
L 18.109375 54.6875 
L 18.109375 46.1875 
Q 21.34375 51.125 25.703125 53.5625 
Q 30.078125 56 35.796875 56 
Q 45.21875 56 50.046875 50.171875 
Q 54.890625 44.34375 54.890625 33.015625 
z
" id="DejaVuSans-110"/>
    </defs>
    <g transform="translate(315.305052 12.118365)scale(0.12 -0.12)">
     <use xlink:href="#DejaVuSans-67"/>
     <use x="69.824219" xlink:href="#DejaVuSans-97"/>
     <use x="131.103516" xlink:href="#DejaVuSans-115"/>
     <use x="183.203125" xlink:href="#DejaVuSans-111"/>
     <use x="244.384766" xlink:href="#DejaVuSans-115"/>
     <use x="296.484375" xlink:href="#DejaVuSans-32"/>
     <use x="328.271484" xlink:href="#DejaVuSans-110"/>
     <use x="391.650391" xlink:href="#DejaVuSans-111"/>
     <use x="452.832031" xlink:href="#DejaVuSans-118"/>
     <use x="512.011719" xlink:href="#DejaVuSans-111"/>
     <use x="573.193359" xlink:href="#DejaVuSans-115"/>
     <use x="625.292969" xlink:href="#DejaVuSans-32"/>
     <use x="657.080078" xlink:href="#DejaVuSans-45"/>
     <use x="693.164062" xlink:href="#DejaVuSans-32"/>
     <use x="724.951172" xlink:href="#DejaVuSans-67"/>
     <use x="794.775391" xlink:href="#DejaVuSans-69"/>
    </g>
   </g>
  </g>
  <g id="axes_3">
   <g id="patch_204">
    <path d="M 55.490865 312.24351 
L 448.550864 312.24351 
L 448.550864 192.646365 
L 55.490865 192.646365 
z
" style="fill:#ffffff;"/>
   </g>
   <g id="matplotlib.axis_5">
    <g id="xtick_11">
     <g id="line2d_23">
      <g>
       <use style="stroke:#000000;stroke-width:0.8;" x="73.357229" xlink:href="#m8ce27cc2bb" y="312.24351"/>
      </g>
     </g>
     <g id="text_27">
      <!-- 0 -->
      <g transform="translate(70.175979 326.841947)scale(0.1 -0.1)">
       <use xlink:href="#DejaVuSans-48"/>
      </g>
     </g>
    </g>
    <g id="xtick_12">
     <g id="line2d_24">
      <g>
       <use style="stroke:#000000;stroke-width:0.8;" x="148.584023" xlink:href="#m8ce27cc2bb" y="312.24351"/>
      </g>
     </g>
     <g id="text_28">
      <!-- 20 -->
      <g transform="translate(142.221523 326.841947)scale(0.1 -0.1)">
       <use xlink:href="#DejaVuSans-50"/>
       <use x="63.623047" xlink:href="#DejaVuSans-48"/>
      </g>
     </g>
    </g>
    <g id="xtick_13">
     <g id="line2d_25">
      <g>
       <use style="stroke:#000000;stroke-width:0.8;" x="223.810817" xlink:href="#m8ce27cc2bb" y="312.24351"/>
      </g>
     </g>
     <g id="text_29">
      <!-- 40 -->
      <g transform="translate(217.448317 326.841947)scale(0.1 -0.1)">
       <use xlink:href="#DejaVuSans-52"/>
       <use x="63.623047" xlink:href="#DejaVuSans-48"/>
      </g>
     </g>
    </g>
    <g id="xtick_14">
     <g id="line2d_26">
      <g>
       <use style="stroke:#000000;stroke-width:0.8;" x="299.03761" xlink:href="#m8ce27cc2bb" y="312.24351"/>
      </g>
     </g>
     <g id="text_30">
      <!-- 60 -->
      <g transform="translate(292.67511 326.841947)scale(0.1 -0.1)">
       <use xlink:href="#DejaVuSans-54"/>
       <use x="63.623047" xlink:href="#DejaVuSans-48"/>
      </g>
     </g>
    </g>
    <g id="xtick_15">
     <g id="line2d_27">
      <g>
       <use style="stroke:#000000;stroke-width:0.8;" x="374.264404" xlink:href="#m8ce27cc2bb" y="312.24351"/>
      </g>
     </g>
     <g id="text_31">
      <!-- 80 -->
      <g transform="translate(367.901904 326.841947)scale(0.1 -0.1)">
       <use xlink:href="#DejaVuSans-56"/>
       <use x="63.623047" xlink:href="#DejaVuSans-48"/>
      </g>
     </g>
    </g>
    <g id="text_32">
     <!-- Dias -->
     <g transform="translate(241.113052 340.520072)scale(0.1 -0.1)">
      <use xlink:href="#DejaVuSans-68"/>
      <use x="77.001953" xlink:href="#DejaVuSans-105"/>
      <use x="104.785156" xlink:href="#DejaVuSans-97"/>
      <use x="166.064453" xlink:href="#DejaVuSans-115"/>
     </g>
    </g>
   </g>
   <g id="matplotlib.axis_6">
    <g id="ytick_11">
     <g id="line2d_28">
      <g>
       <use style="stroke:#000000;stroke-width:0.8;" x="55.490865" xlink:href="#me98666c4a7" y="300.721313"/>
      </g>
     </g>
     <g id="text_33">
      <!-- 1.0 -->
      <defs>
       <path d="M 10.6875 12.40625 
L 21 12.40625 
L 21 0 
L 10.6875 0 
z
" id="DejaVuSans-46"/>
      </defs>
      <g transform="translate(32.58774 304.520531)scale(0.1 -0.1)">
       <use xlink:href="#DejaVuSans-49"/>
       <use x="63.623047" xlink:href="#DejaVuSans-46"/>
       <use x="95.410156" xlink:href="#DejaVuSans-48"/>
      </g>
     </g>
    </g>
    <g id="ytick_12">
     <g id="line2d_29">
      <g>
       <use style="stroke:#000000;stroke-width:0.8;" x="55.490865" xlink:href="#me98666c4a7" y="276.460747"/>
      </g>
     </g>
     <g id="text_34">
      <!-- 1.5 -->
      <g transform="translate(32.58774 280.259965)scale(0.1 -0.1)">
       <use xlink:href="#DejaVuSans-49"/>
       <use x="63.623047" xlink:href="#DejaVuSans-46"/>
       <use x="95.410156" xlink:href="#DejaVuSans-53"/>
      </g>
     </g>
    </g>
    <g id="ytick_13">
     <g id="line2d_30">
      <g>
       <use style="stroke:#000000;stroke-width:0.8;" x="55.490865" xlink:href="#me98666c4a7" y="252.200181"/>
      </g>
     </g>
     <g id="text_35">
      <!-- 2.0 -->
      <g transform="translate(32.58774 255.9994)scale(0.1 -0.1)">
       <use xlink:href="#DejaVuSans-50"/>
       <use x="63.623047" xlink:href="#DejaVuSans-46"/>
       <use x="95.410156" xlink:href="#DejaVuSans-48"/>
      </g>
     </g>
    </g>
    <g id="ytick_14">
     <g id="line2d_31">
      <g>
       <use style="stroke:#000000;stroke-width:0.8;" x="55.490865" xlink:href="#me98666c4a7" y="227.939615"/>
      </g>
     </g>
     <g id="text_36">
      <!-- 2.5 -->
      <g transform="translate(32.58774 231.738834)scale(0.1 -0.1)">
       <use xlink:href="#DejaVuSans-50"/>
       <use x="63.623047" xlink:href="#DejaVuSans-46"/>
       <use x="95.410156" xlink:href="#DejaVuSans-53"/>
      </g>
     </g>
    </g>
    <g id="ytick_15">
     <g id="line2d_32">
      <g>
       <use style="stroke:#000000;stroke-width:0.8;" x="55.490865" xlink:href="#me98666c4a7" y="203.679049"/>
      </g>
     </g>
     <g id="text_37">
      <!-- 3.0 -->
      <defs>
       <path d="M 40.578125 39.3125 
Q 47.65625 37.796875 51.625 33 
Q 55.609375 28.21875 55.609375 21.1875 
Q 55.609375 10.40625 48.1875 4.484375 
Q 40.765625 -1.421875 27.09375 -1.421875 
Q 22.515625 -1.421875 17.65625 -0.515625 
Q 12.796875 0.390625 7.625 2.203125 
L 7.625 11.71875 
Q 11.71875 9.328125 16.59375 8.109375 
Q 21.484375 6.890625 26.8125 6.890625 
Q 36.078125 6.890625 40.9375 10.546875 
Q 45.796875 14.203125 45.796875 21.1875 
Q 45.796875 27.640625 41.28125 31.265625 
Q 36.765625 34.90625 28.71875 34.90625 
L 20.21875 34.90625 
L 20.21875 43.015625 
L 29.109375 43.015625 
Q 36.375 43.015625 40.234375 45.921875 
Q 44.09375 48.828125 44.09375 54.296875 
Q 44.09375 59.90625 40.109375 62.90625 
Q 36.140625 65.921875 28.71875 65.921875 
Q 24.65625 65.921875 20.015625 65.03125 
Q 15.375 64.15625 9.8125 62.3125 
L 9.8125 71.09375 
Q 15.4375 72.65625 20.34375 73.4375 
Q 25.25 74.21875 29.59375 74.21875 
Q 40.828125 74.21875 47.359375 69.109375 
Q 53.90625 64.015625 53.90625 55.328125 
Q 53.90625 49.265625 50.4375 45.09375 
Q 46.96875 40.921875 40.578125 39.3125 
z
" id="DejaVuSans-51"/>
      </defs>
      <g transform="translate(32.58774 207.478268)scale(0.1 -0.1)">
       <use xlink:href="#DejaVuSans-51"/>
       <use x="63.623047" xlink:href="#DejaVuSans-46"/>
       <use x="95.410156" xlink:href="#DejaVuSans-48"/>
      </g>
     </g>
    </g>
    <g id="text_38">
     <!-- r0 -->
     <defs>
      <path d="M 41.109375 46.296875 
Q 39.59375 47.171875 37.8125 47.578125 
Q 36.03125 48 33.890625 48 
Q 26.265625 48 22.1875 43.046875 
Q 18.109375 38.09375 18.109375 28.8125 
L 18.109375 0 
L 9.078125 0 
L 9.078125 54.6875 
L 18.109375 54.6875 
L 18.109375 46.1875 
Q 20.953125 51.171875 25.484375 53.578125 
Q 30.03125 56 36.53125 56 
Q 37.453125 56 38.578125 55.875 
Q 39.703125 55.765625 41.0625 55.515625 
z
" id="DejaVuSans-114"/>
     </defs>
     <g transform="translate(26.508053 257.681656)rotate(-90)scale(0.1 -0.1)">
      <use xlink:href="#DejaVuSans-114"/>
      <use x="41.113281" xlink:href="#DejaVuSans-48"/>
     </g>
    </g>
   </g>
   <g id="line2d_33">
    <path clip-path="url(#pb8b7dc9f0e)" d="M 73.357229 198.082599 
L 77.118568 214.190395 
L 80.879908 226.351287 
L 84.641248 250.542342 
L 88.402587 259.456348 
L 92.163927 267.101193 
L 95.925267 273.171129 
L 99.686606 275.020528 
L 103.447946 274.414714 
L 107.209286 271.638833 
L 110.970626 267.880482 
L 114.731965 264.137639 
L 118.493305 261.160208 
L 122.254645 259.491502 
L 126.015984 260.120052 
L 129.777324 262.019299 
L 133.538664 265.518418 
L 137.300003 269.728073 
L 141.061343 273.884161 
L 144.822683 277.46192 
L 148.584023 280.247609 
L 152.345362 281.476303 
L 156.106702 281.896616 
L 159.868042 280.825713 
L 163.629381 278.43368 
L 167.390721 275.939835 
L 171.152061 273.914457 
L 174.9134 272.500821 
L 178.67474 271.610297 
L 182.43608 270.924565 
L 186.19742 270.659895 
L 189.958759 271.469713 
L 193.720099 272.501544 
L 197.481439 273.830598 
L 201.242778 275.560801 
L 205.004118 277.510764 
L 208.765458 279.516918 
L 212.526797 281.483534 
L 216.288137 282.217292 
L 220.049477 281.926404 
L 223.810817 280.225345 
L 227.572156 276.913259 
L 231.333496 273.857524 
L 235.094836 271.255402 
L 238.856175 269.351798 
L 242.617515 268.991056 
L 246.378855 270.050235 
L 250.140194 272.514602 
L 253.901534 276.551287 
L 257.662874 280.162155 
L 261.424214 283.402035 
L 265.185553 285.911455 
L 268.946893 287.537435 
L 272.708233 287.97673 
L 276.469572 287.344906 
L 280.230912 285.334806 
L 283.992252 283.657626 
L 287.753591 282.622277 
L 291.514931 283.05482 
L 295.276271 284.456302 
L 299.03761 287.538701 
L 302.79895 291.111932 
L 306.56029 295.29038 
L 310.32163 298.969555 
L 314.082969 301.469327 
L 317.844309 301.10642 
L 321.605649 297.687138 
L 325.366988 289.761102 
L 329.128328 281.403989 
L 332.889668 273.721639 
L 336.651007 267.987804 
L 340.412347 264.714622 
L 344.173687 264.581308 
L 347.935027 267.502861 
L 351.696366 273.68464 
L 355.457706 280.103122 
L 359.219046 286.507365 
L 362.980385 292.606776 
L 366.741725 298.390194 
L 370.503065 303.300989 
L 374.264404 306.368216 
L 378.025744 306.807276 
L 381.787084 305.903032 
L 385.548424 303.797323 
L 389.309763 301.047996 
L 393.071103 297.462367 
L 396.832443 293.734592 
L 400.593782 290.288346 
L 404.355122 287.443041 
L 408.116462 285.668683 
L 411.877801 284.811123 
L 415.639141 284.226889 
L 419.400481 284.592624 
L 423.161821 286.164301 
L 426.92316 286.411188 
L 430.6845 287.295241 
" style="fill:none;stroke:#ff0000;stroke-linecap:square;stroke-width:1.5;"/>
   </g>
   <g id="patch_205">
    <path d="M 55.490865 312.24351 
L 55.490865 192.646365 
" style="fill:none;stroke:#000000;stroke-linecap:square;stroke-linejoin:miter;stroke-width:0.8;"/>
   </g>
   <g id="patch_206">
    <path d="M 448.550864 312.24351 
L 448.550864 192.646365 
" style="fill:none;stroke:#000000;stroke-linecap:square;stroke-linejoin:miter;stroke-width:0.8;"/>
   </g>
   <g id="patch_207">
    <path d="M 55.490865 312.24351 
L 448.550864 312.24351 
" style="fill:none;stroke:#000000;stroke-linecap:square;stroke-linejoin:miter;stroke-width:0.8;"/>
   </g>
   <g id="patch_208">
    <path d="M 55.490865 192.646365 
L 448.550864 192.646365 
" style="fill:none;stroke:#000000;stroke-linecap:square;stroke-linejoin:miter;stroke-width:0.8;"/>
   </g>
   <g id="text_39">
    <!-- r0 aproximado - CE -->
    <defs>
     <path d="M 18.109375 8.203125 
L 18.109375 -20.796875 
L 9.078125 -20.796875 
L 9.078125 54.6875 
L 18.109375 54.6875 
L 18.109375 46.390625 
Q 20.953125 51.265625 25.265625 53.625 
Q 29.59375 56 35.59375 56 
Q 45.5625 56 51.78125 48.09375 
Q 58.015625 40.1875 58.015625 27.296875 
Q 58.015625 14.40625 51.78125 6.484375 
Q 45.5625 -1.421875 35.59375 -1.421875 
Q 29.59375 -1.421875 25.265625 0.953125 
Q 20.953125 3.328125 18.109375 8.203125 
z
M 48.6875 27.296875 
Q 48.6875 37.203125 44.609375 42.84375 
Q 40.53125 48.484375 33.40625 48.484375 
Q 26.265625 48.484375 22.1875 42.84375 
Q 18.109375 37.203125 18.109375 27.296875 
Q 18.109375 17.390625 22.1875 11.75 
Q 26.265625 6.109375 33.40625 6.109375 
Q 40.53125 6.109375 44.609375 11.75 
Q 48.6875 17.390625 48.6875 27.296875 
z
" id="DejaVuSans-112"/>
     <path d="M 54.890625 54.6875 
L 35.109375 28.078125 
L 55.90625 0 
L 45.3125 0 
L 29.390625 21.484375 
L 13.484375 0 
L 2.875 0 
L 24.125 28.609375 
L 4.6875 54.6875 
L 15.28125 54.6875 
L 29.78125 35.203125 
L 44.28125 54.6875 
z
" id="DejaVuSans-120"/>
    </defs>
    <g transform="translate(194.349614 186.646365)scale(0.12 -0.12)">
     <use xlink:href="#DejaVuSans-114"/>
     <use x="41.113281" xlink:href="#DejaVuSans-48"/>
     <use x="104.736328" xlink:href="#DejaVuSans-32"/>
     <use x="136.523438" xlink:href="#DejaVuSans-97"/>
     <use x="197.802734" xlink:href="#DejaVuSans-112"/>
     <use x="261.279297" xlink:href="#DejaVuSans-114"/>
     <use x="300.142578" xlink:href="#DejaVuSans-111"/>
     <use x="358.199219" xlink:href="#DejaVuSans-120"/>
     <use x="417.378906" xlink:href="#DejaVuSans-105"/>
     <use x="445.162109" xlink:href="#DejaVuSans-109"/>
     <use x="542.574219" xlink:href="#DejaVuSans-97"/>
     <use x="603.853516" xlink:href="#DejaVuSans-100"/>
     <use x="667.330078" xlink:href="#DejaVuSans-111"/>
     <use x="728.511719" xlink:href="#DejaVuSans-32"/>
     <use x="760.298828" xlink:href="#DejaVuSans-45"/>
     <use x="796.382812" xlink:href="#DejaVuSans-32"/>
     <use x="828.169922" xlink:href="#DejaVuSans-67"/>
     <use x="897.994141" xlink:href="#DejaVuSans-69"/>
    </g>
   </g>
  </g>
 </g>
 <defs>
  <clipPath id="pe909c5e5de">
   <rect height="119.597145" width="163.537249" x="55.490865" y="18.118365"/>
  </clipPath>
  <clipPath id="paccded9cbf">
   <rect height="119.597145" width="163.537249" x="285.013615" y="18.118365"/>
  </clipPath>
  <clipPath id="pb8b7dc9f0e">
   <rect height="119.597145" width="393.059999" x="55.490865" y="192.646365"/>
  </clipPath>
 </defs>
</svg>
