<?xml version="1.0" encoding="utf-8" standalone="no"?>
<!DOCTYPE svg PUBLIC "-//W3C//DTD SVG 1.1//EN"
  "http://www.w3.org/Graphics/SVG/1.1/DTD/svg11.dtd">
<!-- Created with matplotlib (https://matplotlib.org/) -->
<svg height="345.6pt" version="1.1" viewBox="0 0 460.8 345.6" width="460.8pt" xmlns="http://www.w3.org/2000/svg" xmlns:xlink="http://www.w3.org/1999/xlink">
 <defs>
  <style type="text/css">
*{stroke-linecap:butt;stroke-linejoin:round;}
  </style>
 </defs>
 <g id="figure_1">
  <g id="patch_1">
   <path d="M 0 345.6 
L 460.8 345.6 
L 460.8 0 
L 0 0 
z
" style="fill:#ffffff;"/>
  </g>
  <g id="axes_1">
   <g id="patch_2">
    <path d="M 55.490865 137.71551 
L 228.27701 137.71551 
L 228.27701 18.118365 
L 55.490865 18.118365 
z
" style="fill:#ffffff;"/>
   </g>
   <g id="patch_3">
    <path clip-path="url(#p759303d8e6)" d="M 63.344781 137.71551 
L 64.532518 137.71551 
L 64.532518 137.712124 
L 63.344781 137.712124 
z
" style="fill:#1f77b4;"/>
   </g>
   <g id="patch_4">
    <path clip-path="url(#p759303d8e6)" d="M 64.829453 137.71551 
L 66.017191 137.71551 
L 66.017191 137.712124 
L 64.829453 137.712124 
z
" style="fill:#1f77b4;"/>
   </g>
   <g id="patch_5">
    <path clip-path="url(#p759303d8e6)" d="M 66.314125 137.71551 
L 67.501863 137.71551 
L 67.501863 137.712124 
L 66.314125 137.712124 
z
" style="fill:#1f77b4;"/>
   </g>
   <g id="patch_6">
    <path clip-path="url(#p759303d8e6)" d="M 67.798797 137.71551 
L 68.986535 137.71551 
L 68.986535 137.708738 
L 67.798797 137.708738 
z
" style="fill:#1f77b4;"/>
   </g>
   <g id="patch_7">
    <path clip-path="url(#p759303d8e6)" d="M 69.283469 137.71551 
L 70.471207 137.71551 
L 70.471207 137.708738 
L 69.283469 137.708738 
z
" style="fill:#1f77b4;"/>
   </g>
   <g id="patch_8">
    <path clip-path="url(#p759303d8e6)" d="M 70.768141 137.71551 
L 71.955879 137.71551 
L 71.955879 137.708738 
L 70.768141 137.708738 
z
" style="fill:#1f77b4;"/>
   </g>
   <g id="patch_9">
    <path clip-path="url(#p759303d8e6)" d="M 72.252814 137.71551 
L 73.440551 137.71551 
L 73.440551 137.695193 
L 72.252814 137.695193 
z
" style="fill:#1f77b4;"/>
   </g>
   <g id="patch_10">
    <path clip-path="url(#p759303d8e6)" d="M 73.737486 137.71551 
L 74.925223 137.71551 
L 74.925223 137.68842 
L 73.737486 137.68842 
z
" style="fill:#1f77b4;"/>
   </g>
   <g id="patch_11">
    <path clip-path="url(#p759303d8e6)" d="M 75.222158 137.71551 
L 76.409896 137.71551 
L 76.409896 137.671489 
L 75.222158 137.671489 
z
" style="fill:#1f77b4;"/>
   </g>
   <g id="patch_12">
    <path clip-path="url(#p759303d8e6)" d="M 76.70683 137.71551 
L 77.894568 137.71551 
L 77.894568 137.641013 
L 76.70683 137.641013 
z
" style="fill:#1f77b4;"/>
   </g>
   <g id="patch_13">
    <path clip-path="url(#p759303d8e6)" d="M 78.191502 137.71551 
L 79.37924 137.71551 
L 79.37924 137.627468 
L 78.191502 137.627468 
z
" style="fill:#1f77b4;"/>
   </g>
   <g id="patch_14">
    <path clip-path="url(#p759303d8e6)" d="M 79.676174 137.71551 
L 80.863912 137.71551 
L 80.863912 137.573288 
L 79.676174 137.573288 
z
" style="fill:#1f77b4;"/>
   </g>
   <g id="patch_15">
    <path clip-path="url(#p759303d8e6)" d="M 81.160847 137.71551 
L 82.348584 137.71551 
L 82.348584 137.420908 
L 81.160847 137.420908 
z
" style="fill:#1f77b4;"/>
   </g>
   <g id="patch_16">
    <path clip-path="url(#p759303d8e6)" d="M 82.645519 137.71551 
L 83.833256 137.71551 
L 83.833256 137.376887 
L 82.645519 137.376887 
z
" style="fill:#1f77b4;"/>
   </g>
   <g id="patch_17">
    <path clip-path="url(#p759303d8e6)" d="M 84.130191 137.71551 
L 85.317929 137.71551 
L 85.317929 137.319321 
L 84.130191 137.319321 
z
" style="fill:#1f77b4;"/>
   </g>
   <g id="patch_18">
    <path clip-path="url(#p759303d8e6)" d="M 85.614863 137.71551 
L 86.802601 137.71551 
L 86.802601 137.265141 
L 85.614863 137.265141 
z
" style="fill:#1f77b4;"/>
   </g>
   <g id="patch_19">
    <path clip-path="url(#p759303d8e6)" d="M 87.099535 137.71551 
L 88.287273 137.71551 
L 88.287273 137.173713 
L 87.099535 137.173713 
z
" style="fill:#1f77b4;"/>
   </g>
   <g id="patch_20">
    <path clip-path="url(#p759303d8e6)" d="M 88.584207 137.71551 
L 89.771945 137.71551 
L 89.771945 137.173713 
L 88.584207 137.173713 
z
" style="fill:#1f77b4;"/>
   </g>
   <g id="patch_21">
    <path clip-path="url(#p759303d8e6)" d="M 90.068879 137.71551 
L 91.256617 137.71551 
L 91.256617 137.038264 
L 90.068879 137.038264 
z
" style="fill:#1f77b4;"/>
   </g>
   <g id="patch_22">
    <path clip-path="url(#p759303d8e6)" d="M 91.553552 137.71551 
L 92.741289 137.71551 
L 92.741289 136.936677 
L 91.553552 136.936677 
z
" style="fill:#1f77b4;"/>
   </g>
   <g id="patch_23">
    <path clip-path="url(#p759303d8e6)" d="M 93.038224 137.71551 
L 94.225961 137.71551 
L 94.225961 136.83509 
L 93.038224 136.83509 
z
" style="fill:#1f77b4;"/>
   </g>
   <g id="patch_24">
    <path clip-path="url(#p759303d8e6)" d="M 94.522896 137.71551 
L 95.710634 137.71551 
L 95.710634 136.736889 
L 94.522896 136.736889 
z
" style="fill:#1f77b4;"/>
   </g>
   <g id="patch_25">
    <path clip-path="url(#p759303d8e6)" d="M 96.007568 137.71551 
L 97.195306 137.71551 
L 97.195306 136.659006 
L 96.007568 136.659006 
z
" style="fill:#1f77b4;"/>
   </g>
   <g id="patch_26">
    <path clip-path="url(#p759303d8e6)" d="M 97.49224 137.71551 
L 98.679978 137.71551 
L 98.679978 136.591281 
L 97.49224 136.591281 
z
" style="fill:#1f77b4;"/>
   </g>
   <g id="patch_27">
    <path clip-path="url(#p759303d8e6)" d="M 98.976912 137.71551 
L 100.16465 137.71551 
L 100.16465 136.513398 
L 98.976912 136.513398 
z
" style="fill:#1f77b4;"/>
   </g>
   <g id="patch_28">
    <path clip-path="url(#p759303d8e6)" d="M 100.461584 137.71551 
L 101.649322 137.71551 
L 101.649322 136.462604 
L 100.461584 136.462604 
z
" style="fill:#1f77b4;"/>
   </g>
   <g id="patch_29">
    <path clip-path="url(#p759303d8e6)" d="M 101.946257 137.71551 
L 103.133994 137.71551 
L 103.133994 136.354245 
L 101.946257 136.354245 
z
" style="fill:#1f77b4;"/>
   </g>
   <g id="patch_30">
    <path clip-path="url(#p759303d8e6)" d="M 103.430929 137.71551 
L 104.618666 137.71551 
L 104.618666 136.178161 
L 103.430929 136.178161 
z
" style="fill:#1f77b4;"/>
   </g>
   <g id="patch_31">
    <path clip-path="url(#p759303d8e6)" d="M 104.915601 137.71551 
L 106.103339 137.71551 
L 106.103339 136.130753 
L 104.915601 136.130753 
z
" style="fill:#1f77b4;"/>
   </g>
   <g id="patch_32">
    <path clip-path="url(#p759303d8e6)" d="M 106.400273 137.71551 
L 107.588011 137.71551 
L 107.588011 136.113822 
L 106.400273 136.113822 
z
" style="fill:#1f77b4;"/>
   </g>
   <g id="patch_33">
    <path clip-path="url(#p759303d8e6)" d="M 107.884945 137.71551 
L 109.072683 137.71551 
L 109.072683 136.049484 
L 107.884945 136.049484 
z
" style="fill:#1f77b4;"/>
   </g>
   <g id="patch_34">
    <path clip-path="url(#p759303d8e6)" d="M 109.369617 137.71551 
L 110.557355 137.71551 
L 110.557355 135.991918 
L 109.369617 135.991918 
z
" style="fill:#1f77b4;"/>
   </g>
   <g id="patch_35">
    <path clip-path="url(#p759303d8e6)" d="M 110.85429 137.71551 
L 112.042027 137.71551 
L 112.042027 135.930966 
L 110.85429 135.930966 
z
" style="fill:#1f77b4;"/>
   </g>
   <g id="patch_36">
    <path clip-path="url(#p759303d8e6)" d="M 112.338962 137.71551 
L 113.526699 137.71551 
L 113.526699 135.836151 
L 112.338962 135.836151 
z
" style="fill:#1f77b4;"/>
   </g>
   <g id="patch_37">
    <path clip-path="url(#p759303d8e6)" d="M 113.823634 137.71551 
L 115.011372 137.71551 
L 115.011372 135.754882 
L 113.823634 135.754882 
z
" style="fill:#1f77b4;"/>
   </g>
   <g id="patch_38">
    <path clip-path="url(#p759303d8e6)" d="M 115.308306 137.71551 
L 116.496044 137.71551 
L 116.496044 135.636363 
L 115.308306 135.636363 
z
" style="fill:#1f77b4;"/>
   </g>
   <g id="patch_39">
    <path clip-path="url(#p759303d8e6)" d="M 116.792978 137.71551 
L 117.980716 137.71551 
L 117.980716 135.555094 
L 116.792978 135.555094 
z
" style="fill:#1f77b4;"/>
   </g>
   <g id="patch_40">
    <path clip-path="url(#p759303d8e6)" d="M 118.27765 137.71551 
L 119.465388 137.71551 
L 119.465388 135.511073 
L 118.27765 135.511073 
z
" style="fill:#1f77b4;"/>
   </g>
   <g id="patch_41">
    <path clip-path="url(#p759303d8e6)" d="M 119.762322 137.71551 
L 120.95006 137.71551 
L 120.95006 135.4061 
L 119.762322 135.4061 
z
" style="fill:#1f77b4;"/>
   </g>
   <g id="patch_42">
    <path clip-path="url(#p759303d8e6)" d="M 121.246995 137.71551 
L 122.434732 137.71551 
L 122.434732 135.290968 
L 121.246995 135.290968 
z
" style="fill:#1f77b4;"/>
   </g>
   <g id="patch_43">
    <path clip-path="url(#p759303d8e6)" d="M 122.731667 137.71551 
L 123.919404 137.71551 
L 123.919404 135.189381 
L 122.731667 135.189381 
z
" style="fill:#1f77b4;"/>
   </g>
   <g id="patch_44">
    <path clip-path="url(#p759303d8e6)" d="M 124.216339 137.71551 
L 125.404077 137.71551 
L 125.404077 135.135201 
L 124.216339 135.135201 
z
" style="fill:#1f77b4;"/>
   </g>
   <g id="patch_45">
    <path clip-path="url(#p759303d8e6)" d="M 125.701011 137.71551 
L 126.888749 137.71551 
L 126.888749 134.915096 
L 125.701011 134.915096 
z
" style="fill:#1f77b4;"/>
   </g>
   <g id="patch_46">
    <path clip-path="url(#p759303d8e6)" d="M 127.185683 137.71551 
L 128.373421 137.71551 
L 128.373421 134.762716 
L 127.185683 134.762716 
z
" style="fill:#1f77b4;"/>
   </g>
   <g id="patch_47">
    <path clip-path="url(#p759303d8e6)" d="M 128.670355 137.71551 
L 129.858093 137.71551 
L 129.858093 134.732239 
L 128.670355 134.732239 
z
" style="fill:#1f77b4;"/>
   </g>
   <g id="patch_48">
    <path clip-path="url(#p759303d8e6)" d="M 130.155028 137.71551 
L 131.342765 137.71551 
L 131.342765 134.512134 
L 130.155028 134.512134 
z
" style="fill:#1f77b4;"/>
   </g>
   <g id="patch_49">
    <path clip-path="url(#p759303d8e6)" d="M 131.6397 137.71551 
L 132.827437 137.71551 
L 132.827437 134.454568 
L 131.6397 134.454568 
z
" style="fill:#1f77b4;"/>
   </g>
   <g id="patch_50">
    <path clip-path="url(#p759303d8e6)" d="M 133.124372 137.71551 
L 134.31211 137.71551 
L 134.31211 134.366526 
L 133.124372 134.366526 
z
" style="fill:#1f77b4;"/>
   </g>
   <g id="patch_51">
    <path clip-path="url(#p759303d8e6)" d="M 134.609044 137.71551 
L 135.796782 137.71551 
L 135.796782 134.285257 
L 134.609044 134.285257 
z
" style="fill:#1f77b4;"/>
   </g>
   <g id="patch_52">
    <path clip-path="url(#p759303d8e6)" d="M 136.093716 137.71551 
L 137.281454 137.71551 
L 137.281454 134.105787 
L 136.093716 134.105787 
z
" style="fill:#1f77b4;"/>
   </g>
   <g id="patch_53">
    <path clip-path="url(#p759303d8e6)" d="M 137.578388 137.71551 
L 138.766126 137.71551 
L 138.766126 133.834888 
L 137.578388 133.834888 
z
" style="fill:#1f77b4;"/>
   </g>
   <g id="patch_54">
    <path clip-path="url(#p759303d8e6)" d="M 139.06306 137.71551 
L 140.250798 137.71551 
L 140.250798 133.60801 
L 139.06306 133.60801 
z
" style="fill:#1f77b4;"/>
   </g>
   <g id="patch_55">
    <path clip-path="url(#p759303d8e6)" d="M 140.547733 137.71551 
L 141.73547 137.71551 
L 141.73547 133.398064 
L 140.547733 133.398064 
z
" style="fill:#1f77b4;"/>
   </g>
   <g id="patch_56">
    <path clip-path="url(#p759303d8e6)" d="M 142.032405 137.71551 
L 143.220142 137.71551 
L 143.220142 133.123779 
L 142.032405 133.123779 
z
" style="fill:#1f77b4;"/>
   </g>
   <g id="patch_57">
    <path clip-path="url(#p759303d8e6)" d="M 143.517077 137.71551 
L 144.704815 137.71551 
L 144.704815 132.751294 
L 143.517077 132.751294 
z
" style="fill:#1f77b4;"/>
   </g>
   <g id="patch_58">
    <path clip-path="url(#p759303d8e6)" d="M 145.001749 137.71551 
L 146.189487 137.71551 
L 146.189487 132.41267 
L 145.001749 132.41267 
z
" style="fill:#1f77b4;"/>
   </g>
   <g id="patch_59">
    <path clip-path="url(#p759303d8e6)" d="M 146.486421 137.71551 
L 147.674159 137.71551 
L 147.674159 132.131613 
L 146.486421 132.131613 
z
" style="fill:#1f77b4;"/>
   </g>
   <g id="patch_60">
    <path clip-path="url(#p759303d8e6)" d="M 147.971093 137.71551 
L 149.158831 137.71551 
L 149.158831 131.728652 
L 147.971093 131.728652 
z
" style="fill:#1f77b4;"/>
   </g>
   <g id="patch_61">
    <path clip-path="url(#p759303d8e6)" d="M 149.455765 137.71551 
L 150.643503 137.71551 
L 150.643503 131.55934 
L 149.455765 131.55934 
z
" style="fill:#1f77b4;"/>
   </g>
   <g id="patch_62">
    <path clip-path="url(#p759303d8e6)" d="M 150.940438 137.71551 
L 152.128175 137.71551 
L 152.128175 131.261351 
L 150.940438 131.261351 
z
" style="fill:#1f77b4;"/>
   </g>
   <g id="patch_63">
    <path clip-path="url(#p759303d8e6)" d="M 152.42511 137.71551 
L 153.612847 137.71551 
L 153.612847 130.069398 
L 152.42511 130.069398 
z
" style="fill:#1f77b4;"/>
   </g>
   <g id="patch_64">
    <path clip-path="url(#p759303d8e6)" d="M 153.909782 137.71551 
L 155.09752 137.71551 
L 155.09752 129.446331 
L 153.909782 129.446331 
z
" style="fill:#1f77b4;"/>
   </g>
   <g id="patch_65">
    <path clip-path="url(#p759303d8e6)" d="M 155.394454 137.71551 
L 156.582192 137.71551 
L 156.582192 128.992576 
L 155.394454 128.992576 
z
" style="fill:#1f77b4;"/>
   </g>
   <g id="patch_66">
    <path clip-path="url(#p759303d8e6)" d="M 156.879126 137.71551 
L 158.066864 137.71551 
L 158.066864 128.633635 
L 156.879126 128.633635 
z
" style="fill:#1f77b4;"/>
   </g>
   <g id="patch_67">
    <path clip-path="url(#p759303d8e6)" d="M 158.363798 137.71551 
L 159.551536 137.71551 
L 159.551536 128.291626 
L 158.363798 128.291626 
z
" style="fill:#1f77b4;"/>
   </g>
   <g id="patch_68">
    <path clip-path="url(#p759303d8e6)" d="M 159.848471 137.71551 
L 161.036208 137.71551 
L 161.036208 127.627924 
L 159.848471 127.627924 
z
" style="fill:#1f77b4;"/>
   </g>
   <g id="patch_69">
    <path clip-path="url(#p759303d8e6)" d="M 161.333143 137.71551 
L 162.52088 137.71551 
L 162.52088 126.906657 
L 161.333143 126.906657 
z
" style="fill:#1f77b4;"/>
   </g>
   <g id="patch_70">
    <path clip-path="url(#p759303d8e6)" d="M 162.817815 137.71551 
L 164.005553 137.71551 
L 164.005553 126.148141 
L 162.817815 126.148141 
z
" style="fill:#1f77b4;"/>
   </g>
   <g id="patch_71">
    <path clip-path="url(#p759303d8e6)" d="M 164.302487 137.71551 
L 165.490225 137.71551 
L 165.490225 124.891849 
L 164.302487 124.891849 
z
" style="fill:#1f77b4;"/>
   </g>
   <g id="patch_72">
    <path clip-path="url(#p759303d8e6)" d="M 165.787159 137.71551 
L 166.974897 137.71551 
L 166.974897 123.696509 
L 165.787159 123.696509 
z
" style="fill:#1f77b4;"/>
   </g>
   <g id="patch_73">
    <path clip-path="url(#p759303d8e6)" d="M 167.271831 137.71551 
L 168.459569 137.71551 
L 168.459569 122.924448 
L 167.271831 122.924448 
z
" style="fill:#1f77b4;"/>
   </g>
   <g id="patch_74">
    <path clip-path="url(#p759303d8e6)" d="M 168.756503 137.71551 
L 169.944241 137.71551 
L 169.944241 122.074504 
L 168.756503 122.074504 
z
" style="fill:#1f77b4;"/>
   </g>
   <g id="patch_75">
    <path clip-path="url(#p759303d8e6)" d="M 170.241176 137.71551 
L 171.428913 137.71551 
L 171.428913 121.282125 
L 170.241176 121.282125 
z
" style="fill:#1f77b4;"/>
   </g>
   <g id="patch_76">
    <path clip-path="url(#p759303d8e6)" d="M 171.725848 137.71551 
L 172.913585 137.71551 
L 172.913585 120.239166 
L 171.725848 120.239166 
z
" style="fill:#1f77b4;"/>
   </g>
   <g id="patch_77">
    <path clip-path="url(#p759303d8e6)" d="M 173.21052 137.71551 
L 174.398258 137.71551 
L 174.398258 118.949011 
L 173.21052 118.949011 
z
" style="fill:#1f77b4;"/>
   </g>
   <g id="patch_78">
    <path clip-path="url(#p759303d8e6)" d="M 174.695192 137.71551 
L 175.88293 137.71551 
L 175.88293 117.574201 
L 174.695192 117.574201 
z
" style="fill:#1f77b4;"/>
   </g>
   <g id="patch_79">
    <path clip-path="url(#p759303d8e6)" d="M 176.179864 137.71551 
L 177.367602 137.71551 
L 177.367602 116.548173 
L 176.179864 116.548173 
z
" style="fill:#1f77b4;"/>
   </g>
   <g id="patch_80">
    <path clip-path="url(#p759303d8e6)" d="M 177.664536 137.71551 
L 178.852274 137.71551 
L 178.852274 115.237701 
L 177.664536 115.237701 
z
" style="fill:#1f77b4;"/>
   </g>
   <g id="patch_81">
    <path clip-path="url(#p759303d8e6)" d="M 179.149209 137.71551 
L 180.336946 137.71551 
L 180.336946 114.248921 
L 179.149209 114.248921 
z
" style="fill:#1f77b4;"/>
   </g>
   <g id="patch_82">
    <path clip-path="url(#p759303d8e6)" d="M 180.633881 137.71551 
L 181.821618 137.71551 
L 181.821618 113.300776 
L 180.633881 113.300776 
z
" style="fill:#1f77b4;"/>
   </g>
   <g id="patch_83">
    <path clip-path="url(#p759303d8e6)" d="M 182.118553 137.71551 
L 183.306291 137.71551 
L 183.306291 111.434962 
L 182.118553 111.434962 
z
" style="fill:#1f77b4;"/>
   </g>
   <g id="patch_84">
    <path clip-path="url(#p759303d8e6)" d="M 183.603225 137.71551 
L 184.790963 137.71551 
L 184.790963 109.609783 
L 183.603225 109.609783 
z
" style="fill:#1f77b4;"/>
   </g>
   <g id="patch_85">
    <path clip-path="url(#p759303d8e6)" d="M 185.087897 137.71551 
L 186.275635 137.71551 
L 186.275635 108.180793 
L 185.087897 108.180793 
z
" style="fill:#1f77b4;"/>
   </g>
   <g id="patch_86">
    <path clip-path="url(#p759303d8e6)" d="M 186.572569 137.71551 
L 187.760307 137.71551 
L 187.760307 105.634346 
L 186.572569 105.634346 
z
" style="fill:#1f77b4;"/>
   </g>
   <g id="patch_87">
    <path clip-path="url(#p759303d8e6)" d="M 188.057241 137.71551 
L 189.244979 137.71551 
L 189.244979 104.598159 
L 188.057241 104.598159 
z
" style="fill:#1f77b4;"/>
   </g>
   <g id="patch_88">
    <path clip-path="url(#p759303d8e6)" d="M 189.541914 137.71551 
L 190.729651 137.71551 
L 190.729651 102.12621 
L 189.541914 102.12621 
z
" style="fill:#1f77b4;"/>
   </g>
   <g id="patch_89">
    <path clip-path="url(#p759303d8e6)" d="M 191.026586 137.71551 
L 192.214323 137.71551 
L 192.214323 99.600081 
L 191.026586 99.600081 
z
" style="fill:#1f77b4;"/>
   </g>
   <g id="patch_90">
    <path clip-path="url(#p759303d8e6)" d="M 192.511258 137.71551 
L 193.698996 137.71551 
L 193.698996 97.012999 
L 192.511258 97.012999 
z
" style="fill:#1f77b4;"/>
   </g>
   <g id="patch_91">
    <path clip-path="url(#p759303d8e6)" d="M 193.99593 137.71551 
L 195.183668 137.71551 
L 195.183668 93.955232 
L 193.99593 93.955232 
z
" style="fill:#1f77b4;"/>
   </g>
   <g id="patch_92">
    <path clip-path="url(#p759303d8e6)" d="M 195.480602 137.71551 
L 196.66834 137.71551 
L 196.66834 89.603923 
L 195.480602 89.603923 
z
" style="fill:#1f77b4;"/>
   </g>
   <g id="patch_93">
    <path clip-path="url(#p759303d8e6)" d="M 196.965274 137.71551 
L 198.153012 137.71551 
L 198.153012 84.04373 
L 196.965274 84.04373 
z
" style="fill:#1f77b4;"/>
   </g>
   <g id="patch_94">
    <path clip-path="url(#p759303d8e6)" d="M 198.449946 137.71551 
L 199.637684 137.71551 
L 199.637684 81.426173 
L 198.449946 81.426173 
z
" style="fill:#1f77b4;"/>
   </g>
   <g id="patch_95">
    <path clip-path="url(#p759303d8e6)" d="M 199.934619 137.71551 
L 201.122356 137.71551 
L 201.122356 81.405855 
L 199.934619 81.405855 
z
" style="fill:#1f77b4;"/>
   </g>
   <g id="patch_96">
    <path clip-path="url(#p759303d8e6)" d="M 201.419291 137.71551 
L 202.607028 137.71551 
L 202.607028 76.45857 
L 201.419291 76.45857 
z
" style="fill:#1f77b4;"/>
   </g>
   <g id="patch_97">
    <path clip-path="url(#p759303d8e6)" d="M 202.903963 137.71551 
L 204.091701 137.71551 
L 204.091701 71.91086 
L 202.903963 71.91086 
z
" style="fill:#1f77b4;"/>
   </g>
   <g id="patch_98">
    <path clip-path="url(#p759303d8e6)" d="M 204.388635 137.71551 
L 205.576373 137.71551 
L 205.576373 68.274047 
L 204.388635 68.274047 
z
" style="fill:#1f77b4;"/>
   </g>
   <g id="patch_99">
    <path clip-path="url(#p759303d8e6)" d="M 205.873307 137.71551 
L 207.061045 137.71551 
L 207.061045 65.263686 
L 205.873307 65.263686 
z
" style="fill:#1f77b4;"/>
   </g>
   <g id="patch_100">
    <path clip-path="url(#p759303d8e6)" d="M 207.357979 137.71551 
L 208.545717 137.71551 
L 208.545717 63.357238 
L 207.357979 63.357238 
z
" style="fill:#1f77b4;"/>
   </g>
   <g id="patch_101">
    <path clip-path="url(#p759303d8e6)" d="M 208.842652 137.71551 
L 210.030389 137.71551 
L 210.030389 60.268994 
L 208.842652 60.268994 
z
" style="fill:#1f77b4;"/>
   </g>
   <g id="patch_102">
    <path clip-path="url(#p759303d8e6)" d="M 210.327324 137.71551 
L 211.515061 137.71551 
L 211.515061 57.515987 
L 210.327324 57.515987 
z
" style="fill:#1f77b4;"/>
   </g>
   <g id="patch_103">
    <path clip-path="url(#p759303d8e6)" d="M 211.811996 137.71551 
L 212.999734 137.71551 
L 212.999734 51.772937 
L 211.811996 51.772937 
z
" style="fill:#1f77b4;"/>
   </g>
   <g id="patch_104">
    <path clip-path="url(#p759303d8e6)" d="M 213.296668 137.71551 
L 214.484406 137.71551 
L 214.484406 45.813169 
L 213.296668 45.813169 
z
" style="fill:#1f77b4;"/>
   </g>
   <g id="patch_105">
    <path clip-path="url(#p759303d8e6)" d="M 214.78134 137.71551 
L 215.969078 137.71551 
L 215.969078 41.136782 
L 214.78134 41.136782 
z
" style="fill:#1f77b4;"/>
   </g>
   <g id="patch_106">
    <path clip-path="url(#p759303d8e6)" d="M 216.266012 137.71551 
L 217.45375 137.71551 
L 217.45375 33.074163 
L 216.266012 33.074163 
z
" style="fill:#1f77b4;"/>
   </g>
   <g id="patch_107">
    <path clip-path="url(#p759303d8e6)" d="M 217.750684 137.71551 
L 218.938422 137.71551 
L 218.938422 28.550157 
L 217.750684 28.550157 
z
" style="fill:#1f77b4;"/>
   </g>
   <g id="patch_108">
    <path clip-path="url(#p759303d8e6)" d="M 219.235357 137.71551 
L 220.423094 137.71551 
L 220.423094 25.201174 
L 219.235357 25.201174 
z
" style="fill:#1f77b4;"/>
   </g>
   <g id="matplotlib.axis_1">
    <g id="xtick_1">
     <g id="line2d_1">
      <defs>
       <path d="M 0 0 
L 0 3.5 
" id="m7b02141403" style="stroke:#000000;stroke-width:0.8;"/>
      </defs>
      <g>
       <use style="stroke:#000000;stroke-width:0.8;" x="63.93865" xlink:href="#m7b02141403" y="137.71551"/>
      </g>
     </g>
     <g id="text_1">
      <!-- 0 -->
      <defs>
       <path d="M 31.78125 66.40625 
Q 24.171875 66.40625 20.328125 58.90625 
Q 16.5 51.421875 16.5 36.375 
Q 16.5 21.390625 20.328125 13.890625 
Q 24.171875 6.390625 31.78125 6.390625 
Q 39.453125 6.390625 43.28125 13.890625 
Q 47.125 21.390625 47.125 36.375 
Q 47.125 51.421875 43.28125 58.90625 
Q 39.453125 66.40625 31.78125 66.40625 
z
M 31.78125 74.21875 
Q 44.046875 74.21875 50.515625 64.515625 
Q 56.984375 54.828125 56.984375 36.375 
Q 56.984375 17.96875 50.515625 8.265625 
Q 44.046875 -1.421875 31.78125 -1.421875 
Q 19.53125 -1.421875 13.0625 8.265625 
Q 6.59375 17.96875 6.59375 36.375 
Q 6.59375 54.828125 13.0625 64.515625 
Q 19.53125 74.21875 31.78125 74.21875 
z
" id="DejaVuSans-48"/>
      </defs>
      <g transform="translate(60.7574 152.313947)scale(0.1 -0.1)">
       <use xlink:href="#DejaVuSans-48"/>
      </g>
     </g>
    </g>
    <g id="xtick_2">
     <g id="line2d_2">
      <g>
       <use style="stroke:#000000;stroke-width:0.8;" x="101.055453" xlink:href="#m7b02141403" y="137.71551"/>
      </g>
     </g>
     <g id="text_2">
      <!-- 25 -->
      <defs>
       <path d="M 19.1875 8.296875 
L 53.609375 8.296875 
L 53.609375 0 
L 7.328125 0 
L 7.328125 8.296875 
Q 12.9375 14.109375 22.625 23.890625 
Q 32.328125 33.6875 34.8125 36.53125 
Q 39.546875 41.84375 41.421875 45.53125 
Q 43.3125 49.21875 43.3125 52.78125 
Q 43.3125 58.59375 39.234375 62.25 
Q 35.15625 65.921875 28.609375 65.921875 
Q 23.96875 65.921875 18.8125 64.3125 
Q 13.671875 62.703125 7.8125 59.421875 
L 7.8125 69.390625 
Q 13.765625 71.78125 18.9375 73 
Q 24.125 74.21875 28.421875 74.21875 
Q 39.75 74.21875 46.484375 68.546875 
Q 53.21875 62.890625 53.21875 53.421875 
Q 53.21875 48.921875 51.53125 44.890625 
Q 49.859375 40.875 45.40625 35.40625 
Q 44.1875 33.984375 37.640625 27.21875 
Q 31.109375 20.453125 19.1875 8.296875 
z
" id="DejaVuSans-50"/>
       <path d="M 10.796875 72.90625 
L 49.515625 72.90625 
L 49.515625 64.59375 
L 19.828125 64.59375 
L 19.828125 46.734375 
Q 21.96875 47.46875 24.109375 47.828125 
Q 26.265625 48.1875 28.421875 48.1875 
Q 40.625 48.1875 47.75 41.5 
Q 54.890625 34.8125 54.890625 23.390625 
Q 54.890625 11.625 47.5625 5.09375 
Q 40.234375 -1.421875 26.90625 -1.421875 
Q 22.3125 -1.421875 17.546875 -0.640625 
Q 12.796875 0.140625 7.71875 1.703125 
L 7.71875 11.625 
Q 12.109375 9.234375 16.796875 8.0625 
Q 21.484375 6.890625 26.703125 6.890625 
Q 35.15625 6.890625 40.078125 11.328125 
Q 45.015625 15.765625 45.015625 23.390625 
Q 45.015625 31 40.078125 35.4375 
Q 35.15625 39.890625 26.703125 39.890625 
Q 22.75 39.890625 18.8125 39.015625 
Q 14.890625 38.140625 10.796875 36.28125 
z
" id="DejaVuSans-53"/>
      </defs>
      <g transform="translate(94.692953 152.313947)scale(0.1 -0.1)">
       <use xlink:href="#DejaVuSans-50"/>
       <use x="63.623047" xlink:href="#DejaVuSans-53"/>
      </g>
     </g>
    </g>
    <g id="xtick_3">
     <g id="line2d_3">
      <g>
       <use style="stroke:#000000;stroke-width:0.8;" x="138.172257" xlink:href="#m7b02141403" y="137.71551"/>
      </g>
     </g>
     <g id="text_3">
      <!-- 50 -->
      <g transform="translate(131.809757 152.313947)scale(0.1 -0.1)">
       <use xlink:href="#DejaVuSans-53"/>
       <use x="63.623047" xlink:href="#DejaVuSans-48"/>
      </g>
     </g>
    </g>
    <g id="xtick_4">
     <g id="line2d_4">
      <g>
       <use style="stroke:#000000;stroke-width:0.8;" x="175.289061" xlink:href="#m7b02141403" y="137.71551"/>
      </g>
     </g>
     <g id="text_4">
      <!-- 75 -->
      <defs>
       <path d="M 8.203125 72.90625 
L 55.078125 72.90625 
L 55.078125 68.703125 
L 28.609375 0 
L 18.3125 0 
L 43.21875 64.59375 
L 8.203125 64.59375 
z
" id="DejaVuSans-55"/>
      </defs>
      <g transform="translate(168.926561 152.313947)scale(0.1 -0.1)">
       <use xlink:href="#DejaVuSans-55"/>
       <use x="63.623047" xlink:href="#DejaVuSans-53"/>
      </g>
     </g>
    </g>
    <g id="xtick_5">
     <g id="line2d_5">
      <g>
       <use style="stroke:#000000;stroke-width:0.8;" x="212.405865" xlink:href="#m7b02141403" y="137.71551"/>
      </g>
     </g>
     <g id="text_5">
      <!-- 100 -->
      <defs>
       <path d="M 12.40625 8.296875 
L 28.515625 8.296875 
L 28.515625 63.921875 
L 10.984375 60.40625 
L 10.984375 69.390625 
L 28.421875 72.90625 
L 38.28125 72.90625 
L 38.28125 8.296875 
L 54.390625 8.296875 
L 54.390625 0 
L 12.40625 0 
z
" id="DejaVuSans-49"/>
      </defs>
      <g transform="translate(202.862115 152.313947)scale(0.1 -0.1)">
       <use xlink:href="#DejaVuSans-49"/>
       <use x="63.623047" xlink:href="#DejaVuSans-48"/>
       <use x="127.246094" xlink:href="#DejaVuSans-48"/>
      </g>
     </g>
    </g>
    <g id="text_6">
     <!-- Dias -->
     <defs>
      <path d="M 19.671875 64.796875 
L 19.671875 8.109375 
L 31.59375 8.109375 
Q 46.6875 8.109375 53.6875 14.9375 
Q 60.6875 21.78125 60.6875 36.53125 
Q 60.6875 51.171875 53.6875 57.984375 
Q 46.6875 64.796875 31.59375 64.796875 
z
M 9.8125 72.90625 
L 30.078125 72.90625 
Q 51.265625 72.90625 61.171875 64.09375 
Q 71.09375 55.28125 71.09375 36.53125 
Q 71.09375 17.671875 61.125 8.828125 
Q 51.171875 0 30.078125 0 
L 9.8125 0 
z
" id="DejaVuSans-68"/>
      <path d="M 9.421875 54.6875 
L 18.40625 54.6875 
L 18.40625 0 
L 9.421875 0 
z
M 9.421875 75.984375 
L 18.40625 75.984375 
L 18.40625 64.59375 
L 9.421875 64.59375 
z
" id="DejaVuSans-105"/>
      <path d="M 34.28125 27.484375 
Q 23.390625 27.484375 19.1875 25 
Q 14.984375 22.515625 14.984375 16.5 
Q 14.984375 11.71875 18.140625 8.90625 
Q 21.296875 6.109375 26.703125 6.109375 
Q 34.1875 6.109375 38.703125 11.40625 
Q 43.21875 16.703125 43.21875 25.484375 
L 43.21875 27.484375 
z
M 52.203125 31.203125 
L 52.203125 0 
L 43.21875 0 
L 43.21875 8.296875 
Q 40.140625 3.328125 35.546875 0.953125 
Q 30.953125 -1.421875 24.3125 -1.421875 
Q 15.921875 -1.421875 10.953125 3.296875 
Q 6 8.015625 6 15.921875 
Q 6 25.140625 12.171875 29.828125 
Q 18.359375 34.515625 30.609375 34.515625 
L 43.21875 34.515625 
L 43.21875 35.40625 
Q 43.21875 41.609375 39.140625 45 
Q 35.0625 48.390625 27.6875 48.390625 
Q 23 48.390625 18.546875 47.265625 
Q 14.109375 46.140625 10.015625 43.890625 
L 10.015625 52.203125 
Q 14.9375 54.109375 19.578125 55.046875 
Q 24.21875 56 28.609375 56 
Q 40.484375 56 46.34375 49.84375 
Q 52.203125 43.703125 52.203125 31.203125 
z
" id="DejaVuSans-97"/>
      <path d="M 44.28125 53.078125 
L 44.28125 44.578125 
Q 40.484375 46.53125 36.375 47.5 
Q 32.28125 48.484375 27.875 48.484375 
Q 21.1875 48.484375 17.84375 46.4375 
Q 14.5 44.390625 14.5 40.28125 
Q 14.5 37.15625 16.890625 35.375 
Q 19.28125 33.59375 26.515625 31.984375 
L 29.59375 31.296875 
Q 39.15625 29.25 43.1875 25.515625 
Q 47.21875 21.78125 47.21875 15.09375 
Q 47.21875 7.46875 41.1875 3.015625 
Q 35.15625 -1.421875 24.609375 -1.421875 
Q 20.21875 -1.421875 15.453125 -0.5625 
Q 10.6875 0.296875 5.421875 2 
L 5.421875 11.28125 
Q 10.40625 8.6875 15.234375 7.390625 
Q 20.0625 6.109375 24.8125 6.109375 
Q 31.15625 6.109375 34.5625 8.28125 
Q 37.984375 10.453125 37.984375 14.40625 
Q 37.984375 18.0625 35.515625 20.015625 
Q 33.0625 21.96875 24.703125 23.78125 
L 21.578125 24.515625 
Q 13.234375 26.265625 9.515625 29.90625 
Q 5.8125 33.546875 5.8125 39.890625 
Q 5.8125 47.609375 11.28125 51.796875 
Q 16.75 56 26.8125 56 
Q 31.78125 56 36.171875 55.265625 
Q 40.578125 54.546875 44.28125 53.078125 
z
" id="DejaVuSans-115"/>
     </defs>
     <g transform="translate(130.976125 165.992072)scale(0.1 -0.1)">
      <use xlink:href="#DejaVuSans-68"/>
      <use x="77.001953" xlink:href="#DejaVuSans-105"/>
      <use x="104.785156" xlink:href="#DejaVuSans-97"/>
      <use x="166.064453" xlink:href="#DejaVuSans-115"/>
     </g>
    </g>
   </g>
   <g id="matplotlib.axis_2">
    <g id="ytick_1">
     <g id="line2d_6">
      <defs>
       <path d="M 0 0 
L -3.5 0 
" id="m11dee7cd21" style="stroke:#000000;stroke-width:0.8;"/>
      </defs>
      <g>
       <use style="stroke:#000000;stroke-width:0.8;" x="55.490865" xlink:href="#m11dee7cd21" y="137.71551"/>
      </g>
     </g>
     <g id="text_7">
      <!-- 0 -->
      <g transform="translate(42.128365 141.514729)scale(0.1 -0.1)">
       <use xlink:href="#DejaVuSans-48"/>
      </g>
     </g>
    </g>
    <g id="ytick_2">
     <g id="line2d_7">
      <g>
       <use style="stroke:#000000;stroke-width:0.8;" x="55.490865" xlink:href="#m11dee7cd21" y="103.853188"/>
      </g>
     </g>
     <g id="text_8">
      <!-- 10000 -->
      <g transform="translate(16.678365 107.652407)scale(0.1 -0.1)">
       <use xlink:href="#DejaVuSans-49"/>
       <use x="63.623047" xlink:href="#DejaVuSans-48"/>
       <use x="127.246094" xlink:href="#DejaVuSans-48"/>
       <use x="190.869141" xlink:href="#DejaVuSans-48"/>
       <use x="254.492188" xlink:href="#DejaVuSans-48"/>
      </g>
     </g>
    </g>
    <g id="ytick_3">
     <g id="line2d_8">
      <g>
       <use style="stroke:#000000;stroke-width:0.8;" x="55.490865" xlink:href="#m11dee7cd21" y="69.990867"/>
      </g>
     </g>
     <g id="text_9">
      <!-- 20000 -->
      <g transform="translate(16.678365 73.790085)scale(0.1 -0.1)">
       <use xlink:href="#DejaVuSans-50"/>
       <use x="63.623047" xlink:href="#DejaVuSans-48"/>
       <use x="127.246094" xlink:href="#DejaVuSans-48"/>
       <use x="190.869141" xlink:href="#DejaVuSans-48"/>
       <use x="254.492188" xlink:href="#DejaVuSans-48"/>
      </g>
     </g>
    </g>
    <g id="ytick_4">
     <g id="line2d_9">
      <g>
       <use style="stroke:#000000;stroke-width:0.8;" x="55.490865" xlink:href="#m11dee7cd21" y="36.128545"/>
      </g>
     </g>
     <g id="text_10">
      <!-- 30000 -->
      <defs>
       <path d="M 40.578125 39.3125 
Q 47.65625 37.796875 51.625 33 
Q 55.609375 28.21875 55.609375 21.1875 
Q 55.609375 10.40625 48.1875 4.484375 
Q 40.765625 -1.421875 27.09375 -1.421875 
Q 22.515625 -1.421875 17.65625 -0.515625 
Q 12.796875 0.390625 7.625 2.203125 
L 7.625 11.71875 
Q 11.71875 9.328125 16.59375 8.109375 
Q 21.484375 6.890625 26.8125 6.890625 
Q 36.078125 6.890625 40.9375 10.546875 
Q 45.796875 14.203125 45.796875 21.1875 
Q 45.796875 27.640625 41.28125 31.265625 
Q 36.765625 34.90625 28.71875 34.90625 
L 20.21875 34.90625 
L 20.21875 43.015625 
L 29.109375 43.015625 
Q 36.375 43.015625 40.234375 45.921875 
Q 44.09375 48.828125 44.09375 54.296875 
Q 44.09375 59.90625 40.109375 62.90625 
Q 36.140625 65.921875 28.71875 65.921875 
Q 24.65625 65.921875 20.015625 65.03125 
Q 15.375 64.15625 9.8125 62.3125 
L 9.8125 71.09375 
Q 15.4375 72.65625 20.34375 73.4375 
Q 25.25 74.21875 29.59375 74.21875 
Q 40.828125 74.21875 47.359375 69.109375 
Q 53.90625 64.015625 53.90625 55.328125 
Q 53.90625 49.265625 50.4375 45.09375 
Q 46.96875 40.921875 40.578125 39.3125 
z
" id="DejaVuSans-51"/>
      </defs>
      <g transform="translate(16.678365 39.927764)scale(0.1 -0.1)">
       <use xlink:href="#DejaVuSans-51"/>
       <use x="63.623047" xlink:href="#DejaVuSans-48"/>
       <use x="127.246094" xlink:href="#DejaVuSans-48"/>
       <use x="190.869141" xlink:href="#DejaVuSans-48"/>
       <use x="254.492188" xlink:href="#DejaVuSans-48"/>
      </g>
     </g>
    </g>
    <g id="text_11">
     <!-- Casos -->
     <defs>
      <path d="M 64.40625 67.28125 
L 64.40625 56.890625 
Q 59.421875 61.53125 53.78125 63.8125 
Q 48.140625 66.109375 41.796875 66.109375 
Q 29.296875 66.109375 22.65625 58.46875 
Q 16.015625 50.828125 16.015625 36.375 
Q 16.015625 21.96875 22.65625 14.328125 
Q 29.296875 6.6875 41.796875 6.6875 
Q 48.140625 6.6875 53.78125 8.984375 
Q 59.421875 11.28125 64.40625 15.921875 
L 64.40625 5.609375 
Q 59.234375 2.09375 53.4375 0.328125 
Q 47.65625 -1.421875 41.21875 -1.421875 
Q 24.65625 -1.421875 15.125 8.703125 
Q 5.609375 18.84375 5.609375 36.375 
Q 5.609375 53.953125 15.125 64.078125 
Q 24.65625 74.21875 41.21875 74.21875 
Q 47.75 74.21875 53.53125 72.484375 
Q 59.328125 70.75 64.40625 67.28125 
z
" id="DejaVuSans-67"/>
      <path d="M 30.609375 48.390625 
Q 23.390625 48.390625 19.1875 42.75 
Q 14.984375 37.109375 14.984375 27.296875 
Q 14.984375 17.484375 19.15625 11.84375 
Q 23.34375 6.203125 30.609375 6.203125 
Q 37.796875 6.203125 41.984375 11.859375 
Q 46.1875 17.53125 46.1875 27.296875 
Q 46.1875 37.015625 41.984375 42.703125 
Q 37.796875 48.390625 30.609375 48.390625 
z
M 30.609375 56 
Q 42.328125 56 49.015625 48.375 
Q 55.71875 40.765625 55.71875 27.296875 
Q 55.71875 13.875 49.015625 6.21875 
Q 42.328125 -1.421875 30.609375 -1.421875 
Q 18.84375 -1.421875 12.171875 6.21875 
Q 5.515625 13.875 5.515625 27.296875 
Q 5.515625 40.765625 12.171875 48.375 
Q 18.84375 56 30.609375 56 
z
" id="DejaVuSans-111"/>
     </defs>
     <g transform="translate(10.598678 92.741156)rotate(-90)scale(0.1 -0.1)">
      <use xlink:href="#DejaVuSans-67"/>
      <use x="69.824219" xlink:href="#DejaVuSans-97"/>
      <use x="131.103516" xlink:href="#DejaVuSans-115"/>
      <use x="183.203125" xlink:href="#DejaVuSans-111"/>
      <use x="244.384766" xlink:href="#DejaVuSans-115"/>
     </g>
    </g>
   </g>
   <g id="line2d_10">
    <path clip-path="url(#p759303d8e6)" d="M 63.93865 137.709275 
L 65.423322 137.70654 
L 66.907994 137.702215 
L 68.392666 137.695744 
L 69.877338 137.686412 
L 71.36201 137.673408 
L 72.846682 137.655865 
L 74.331355 137.633056 
L 75.816027 137.604405 
L 77.300699 137.569525 
L 78.785371 137.528236 
L 80.270043 137.480609 
L 81.754715 137.426909 
L 83.239388 137.367663 
L 84.72406 137.303405 
L 86.208732 137.234681 
L 87.693404 137.162059 
L 89.178076 137.08615 
L 90.662748 137.007511 
L 92.14742 136.926773 
L 93.632093 136.844454 
L 95.116765 136.761099 
L 96.601437 136.677351 
L 98.086109 136.593834 
L 99.570781 136.511028 
L 101.055453 136.429337 
L 102.540125 136.348933 
L 104.024798 136.269892 
L 105.50947 136.19214 
L 106.994142 136.115279 
L 108.478814 136.038714 
L 109.963486 135.96179 
L 111.448158 135.883764 
L 112.932831 135.803878 
L 114.417503 135.7214 
L 115.902175 135.635658 
L 117.386847 135.546147 
L 118.871519 135.452558 
L 120.356191 135.354717 
L 121.840863 135.252506 
L 123.325536 135.145948 
L 124.810208 135.034975 
L 126.29488 134.919285 
L 127.779552 134.798258 
L 129.264224 134.670768 
L 130.748896 134.535216 
L 132.233569 134.389803 
L 133.718241 134.232359 
L 135.202913 134.060328 
L 136.687585 133.871036 
L 138.172257 133.661921 
L 139.656929 133.430718 
L 141.141601 133.175535 
L 142.626274 132.894321 
L 144.110946 132.584862 
L 145.595618 132.245813 
L 147.08029 131.876385 
L 148.564962 131.475872 
L 150.049634 131.04343 
L 151.534306 130.577675 
L 153.018979 130.077403 
L 154.503651 129.541865 
L 155.988323 128.968953 
L 157.472995 128.355744 
L 158.957667 127.699464 
L 160.442339 126.99772 
L 161.927012 126.249212 
L 163.411684 125.453185 
L 164.896356 124.608998 
L 166.381028 123.717486 
L 167.8657 122.780404 
L 169.350372 121.798697 
L 170.835044 120.772808 
L 172.319717 119.701573 
L 173.804389 118.5818 
L 175.289061 117.408778 
L 176.773733 116.175579 
L 178.258405 114.87203 
L 179.743077 113.485878 
L 181.22775 112.001284 
L 182.712422 110.401738 
L 184.197094 108.670883 
L 185.681766 106.7917 
L 187.166438 104.747367 
L 188.65111 102.525443 
L 190.135782 100.121191 
L 191.620455 97.539923 
L 193.105127 94.791002 
L 194.589799 91.88863 
L 196.074471 88.853151 
L 197.559143 85.710026 
L 199.043815 82.482419 
L 200.528487 79.182417 
L 202.01316 75.809412 
L 203.497832 72.354991 
L 204.982504 68.802066 
L 206.467176 65.125579 
L 207.951848 61.291991 
L 209.43652 57.269004 
L 210.921193 53.035728 
L 212.405865 48.587332 
L 213.890537 43.928493 
L 215.375209 39.074577 
L 216.859881 34.090672 
L 218.344553 28.995687 
L 219.829225 23.813467 
" style="fill:none;stroke:#ff0000;stroke-linecap:square;stroke-width:1.5;"/>
   </g>
   <g id="patch_109">
    <path d="M 55.490865 137.71551 
L 55.490865 18.118365 
" style="fill:none;stroke:#000000;stroke-linecap:square;stroke-linejoin:miter;stroke-width:0.8;"/>
   </g>
   <g id="patch_110">
    <path d="M 228.27701 137.71551 
L 228.27701 18.118365 
" style="fill:none;stroke:#000000;stroke-linecap:square;stroke-linejoin:miter;stroke-width:0.8;"/>
   </g>
   <g id="patch_111">
    <path d="M 55.490865 137.71551 
L 228.27701 137.71551 
" style="fill:none;stroke:#000000;stroke-linecap:square;stroke-linejoin:miter;stroke-width:0.8;"/>
   </g>
   <g id="patch_112">
    <path d="M 55.490865 18.118365 
L 228.27701 18.118365 
" style="fill:none;stroke:#000000;stroke-linecap:square;stroke-linejoin:miter;stroke-width:0.8;"/>
   </g>
   <g id="text_12">
    <!-- Casos acumulados - DF -->
    <defs>
     <path id="DejaVuSans-32"/>
     <path d="M 48.78125 52.59375 
L 48.78125 44.1875 
Q 44.96875 46.296875 41.140625 47.34375 
Q 37.3125 48.390625 33.40625 48.390625 
Q 24.65625 48.390625 19.8125 42.84375 
Q 14.984375 37.3125 14.984375 27.296875 
Q 14.984375 17.28125 19.8125 11.734375 
Q 24.65625 6.203125 33.40625 6.203125 
Q 37.3125 6.203125 41.140625 7.25 
Q 44.96875 8.296875 48.78125 10.40625 
L 48.78125 2.09375 
Q 45.015625 0.34375 40.984375 -0.53125 
Q 36.96875 -1.421875 32.421875 -1.421875 
Q 20.0625 -1.421875 12.78125 6.34375 
Q 5.515625 14.109375 5.515625 27.296875 
Q 5.515625 40.671875 12.859375 48.328125 
Q 20.21875 56 33.015625 56 
Q 37.15625 56 41.109375 55.140625 
Q 45.0625 54.296875 48.78125 52.59375 
z
" id="DejaVuSans-99"/>
     <path d="M 8.5 21.578125 
L 8.5 54.6875 
L 17.484375 54.6875 
L 17.484375 21.921875 
Q 17.484375 14.15625 20.5 10.265625 
Q 23.53125 6.390625 29.59375 6.390625 
Q 36.859375 6.390625 41.078125 11.03125 
Q 45.3125 15.671875 45.3125 23.6875 
L 45.3125 54.6875 
L 54.296875 54.6875 
L 54.296875 0 
L 45.3125 0 
L 45.3125 8.40625 
Q 42.046875 3.421875 37.71875 1 
Q 33.40625 -1.421875 27.6875 -1.421875 
Q 18.265625 -1.421875 13.375 4.4375 
Q 8.5 10.296875 8.5 21.578125 
z
M 31.109375 56 
z
" id="DejaVuSans-117"/>
     <path d="M 52 44.1875 
Q 55.375 50.25 60.0625 53.125 
Q 64.75 56 71.09375 56 
Q 79.640625 56 84.28125 50.015625 
Q 88.921875 44.046875 88.921875 33.015625 
L 88.921875 0 
L 79.890625 0 
L 79.890625 32.71875 
Q 79.890625 40.578125 77.09375 44.375 
Q 74.3125 48.1875 68.609375 48.1875 
Q 61.625 48.1875 57.5625 43.546875 
Q 53.515625 38.921875 53.515625 30.90625 
L 53.515625 0 
L 44.484375 0 
L 44.484375 32.71875 
Q 44.484375 40.625 41.703125 44.40625 
Q 38.921875 48.1875 33.109375 48.1875 
Q 26.21875 48.1875 22.15625 43.53125 
Q 18.109375 38.875 18.109375 30.90625 
L 18.109375 0 
L 9.078125 0 
L 9.078125 54.6875 
L 18.109375 54.6875 
L 18.109375 46.1875 
Q 21.1875 51.21875 25.484375 53.609375 
Q 29.78125 56 35.6875 56 
Q 41.65625 56 45.828125 52.96875 
Q 50 49.953125 52 44.1875 
z
" id="DejaVuSans-109"/>
     <path d="M 9.421875 75.984375 
L 18.40625 75.984375 
L 18.40625 0 
L 9.421875 0 
z
" id="DejaVuSans-108"/>
     <path d="M 45.40625 46.390625 
L 45.40625 75.984375 
L 54.390625 75.984375 
L 54.390625 0 
L 45.40625 0 
L 45.40625 8.203125 
Q 42.578125 3.328125 38.25 0.953125 
Q 33.9375 -1.421875 27.875 -1.421875 
Q 17.96875 -1.421875 11.734375 6.484375 
Q 5.515625 14.40625 5.515625 27.296875 
Q 5.515625 40.1875 11.734375 48.09375 
Q 17.96875 56 27.875 56 
Q 33.9375 56 38.25 53.625 
Q 42.578125 51.265625 45.40625 46.390625 
z
M 14.796875 27.296875 
Q 14.796875 17.390625 18.875 11.75 
Q 22.953125 6.109375 30.078125 6.109375 
Q 37.203125 6.109375 41.296875 11.75 
Q 45.40625 17.390625 45.40625 27.296875 
Q 45.40625 37.203125 41.296875 42.84375 
Q 37.203125 48.484375 30.078125 48.484375 
Q 22.953125 48.484375 18.875 42.84375 
Q 14.796875 37.203125 14.796875 27.296875 
z
" id="DejaVuSans-100"/>
     <path d="M 4.890625 31.390625 
L 31.203125 31.390625 
L 31.203125 23.390625 
L 4.890625 23.390625 
z
" id="DejaVuSans-45"/>
     <path d="M 9.8125 72.90625 
L 51.703125 72.90625 
L 51.703125 64.59375 
L 19.671875 64.59375 
L 19.671875 43.109375 
L 48.578125 43.109375 
L 48.578125 34.8125 
L 19.671875 34.8125 
L 19.671875 0 
L 9.8125 0 
z
" id="DejaVuSans-70"/>
    </defs>
    <g transform="translate(71.763625 12.118365)scale(0.12 -0.12)">
     <use xlink:href="#DejaVuSans-67"/>
     <use x="69.824219" xlink:href="#DejaVuSans-97"/>
     <use x="131.103516" xlink:href="#DejaVuSans-115"/>
     <use x="183.203125" xlink:href="#DejaVuSans-111"/>
     <use x="244.384766" xlink:href="#DejaVuSans-115"/>
     <use x="296.484375" xlink:href="#DejaVuSans-32"/>
     <use x="328.271484" xlink:href="#DejaVuSans-97"/>
     <use x="389.550781" xlink:href="#DejaVuSans-99"/>
     <use x="444.53125" xlink:href="#DejaVuSans-117"/>
     <use x="507.910156" xlink:href="#DejaVuSans-109"/>
     <use x="605.322266" xlink:href="#DejaVuSans-117"/>
     <use x="668.701172" xlink:href="#DejaVuSans-108"/>
     <use x="696.484375" xlink:href="#DejaVuSans-97"/>
     <use x="757.763672" xlink:href="#DejaVuSans-100"/>
     <use x="821.240234" xlink:href="#DejaVuSans-111"/>
     <use x="882.421875" xlink:href="#DejaVuSans-115"/>
     <use x="934.521484" xlink:href="#DejaVuSans-32"/>
     <use x="966.308594" xlink:href="#DejaVuSans-45"/>
     <use x="1002.392578" xlink:href="#DejaVuSans-32"/>
     <use x="1034.179688" xlink:href="#DejaVuSans-68"/>
     <use x="1111.181641" xlink:href="#DejaVuSans-70"/>
    </g>
   </g>
  </g>
  <g id="axes_2">
   <g id="patch_113">
    <path d="M 285.013615 137.71551 
L 457.79976 137.71551 
L 457.79976 18.118365 
L 285.013615 18.118365 
z
" style="fill:#ffffff;"/>
   </g>
   <g id="patch_114">
    <path clip-path="url(#p131642f674)" d="M 292.867531 137.71551 
L 294.055268 137.71551 
L 294.055268 137.71551 
L 292.867531 137.71551 
z
" style="fill:#1f77b4;"/>
   </g>
   <g id="patch_115">
    <path clip-path="url(#p131642f674)" d="M 294.352203 137.71551 
L 295.539941 137.71551 
L 295.539941 137.71551 
L 294.352203 137.71551 
z
" style="fill:#1f77b4;"/>
   </g>
   <g id="patch_116">
    <path clip-path="url(#p131642f674)" d="M 295.836875 137.71551 
L 297.024613 137.71551 
L 297.024613 137.71551 
L 295.836875 137.71551 
z
" style="fill:#1f77b4;"/>
   </g>
   <g id="patch_117">
    <path clip-path="url(#p131642f674)" d="M 297.321547 137.71551 
L 298.509285 137.71551 
L 298.509285 137.667672 
L 297.321547 137.667672 
z
" style="fill:#1f77b4;"/>
   </g>
   <g id="patch_118">
    <path clip-path="url(#p131642f674)" d="M 298.806219 137.71551 
L 299.993957 137.71551 
L 299.993957 137.71551 
L 298.806219 137.71551 
z
" style="fill:#1f77b4;"/>
   </g>
   <g id="patch_119">
    <path clip-path="url(#p131642f674)" d="M 300.290891 137.71551 
L 301.478629 137.71551 
L 301.478629 137.71551 
L 300.290891 137.71551 
z
" style="fill:#1f77b4;"/>
   </g>
   <g id="patch_120">
    <path clip-path="url(#p131642f674)" d="M 301.775564 137.71551 
L 302.963301 137.71551 
L 302.963301 137.524158 
L 301.775564 137.524158 
z
" style="fill:#1f77b4;"/>
   </g>
   <g id="patch_121">
    <path clip-path="url(#p131642f674)" d="M 303.260236 137.71551 
L 304.447973 137.71551 
L 304.447973 137.619834 
L 303.260236 137.619834 
z
" style="fill:#1f77b4;"/>
   </g>
   <g id="patch_122">
    <path clip-path="url(#p131642f674)" d="M 304.744908 137.71551 
L 305.932646 137.71551 
L 305.932646 137.47632 
L 304.744908 137.47632 
z
" style="fill:#1f77b4;"/>
   </g>
   <g id="patch_123">
    <path clip-path="url(#p131642f674)" d="M 306.22958 137.71551 
L 307.417318 137.71551 
L 307.417318 137.284969 
L 306.22958 137.284969 
z
" style="fill:#1f77b4;"/>
   </g>
   <g id="patch_124">
    <path clip-path="url(#p131642f674)" d="M 307.714252 137.71551 
L 308.90199 137.71551 
L 308.90199 137.524158 
L 307.714252 137.524158 
z
" style="fill:#1f77b4;"/>
   </g>
   <g id="patch_125">
    <path clip-path="url(#p131642f674)" d="M 309.198924 137.71551 
L 310.386662 137.71551 
L 310.386662 136.950104 
L 309.198924 136.950104 
z
" style="fill:#1f77b4;"/>
   </g>
   <g id="patch_126">
    <path clip-path="url(#p131642f674)" d="M 310.683597 137.71551 
L 311.871334 137.71551 
L 311.871334 135.562804 
L 310.683597 135.562804 
z
" style="fill:#1f77b4;"/>
   </g>
   <g id="patch_127">
    <path clip-path="url(#p131642f674)" d="M 312.168269 137.71551 
L 313.356006 137.71551 
L 313.356006 137.093617 
L 312.168269 137.093617 
z
" style="fill:#1f77b4;"/>
   </g>
   <g id="patch_128">
    <path clip-path="url(#p131642f674)" d="M 313.652941 137.71551 
L 314.840679 137.71551 
L 314.840679 136.902266 
L 313.652941 136.902266 
z
" style="fill:#1f77b4;"/>
   </g>
   <g id="patch_129">
    <path clip-path="url(#p131642f674)" d="M 315.137613 137.71551 
L 316.325351 137.71551 
L 316.325351 136.950104 
L 315.137613 136.950104 
z
" style="fill:#1f77b4;"/>
   </g>
   <g id="patch_130">
    <path clip-path="url(#p131642f674)" d="M 316.622285 137.71551 
L 317.810023 137.71551 
L 317.810023 136.423887 
L 316.622285 136.423887 
z
" style="fill:#1f77b4;"/>
   </g>
   <g id="patch_131">
    <path clip-path="url(#p131642f674)" d="M 318.106957 137.71551 
L 319.294695 137.71551 
L 319.294695 137.71551 
L 318.106957 137.71551 
z
" style="fill:#1f77b4;"/>
   </g>
   <g id="patch_132">
    <path clip-path="url(#p131642f674)" d="M 319.591629 137.71551 
L 320.779367 137.71551 
L 320.779367 135.801994 
L 319.591629 135.801994 
z
" style="fill:#1f77b4;"/>
   </g>
   <g id="patch_133">
    <path clip-path="url(#p131642f674)" d="M 321.076302 137.71551 
L 322.264039 137.71551 
L 322.264039 136.280373 
L 321.076302 136.280373 
z
" style="fill:#1f77b4;"/>
   </g>
   <g id="patch_134">
    <path clip-path="url(#p131642f674)" d="M 322.560974 137.71551 
L 323.748711 137.71551 
L 323.748711 136.280373 
L 322.560974 136.280373 
z
" style="fill:#1f77b4;"/>
   </g>
   <g id="patch_135">
    <path clip-path="url(#p131642f674)" d="M 324.045646 137.71551 
L 325.233384 137.71551 
L 325.233384 136.328211 
L 324.045646 136.328211 
z
" style="fill:#1f77b4;"/>
   </g>
   <g id="patch_136">
    <path clip-path="url(#p131642f674)" d="M 325.530318 137.71551 
L 326.718056 137.71551 
L 326.718056 136.615238 
L 325.530318 136.615238 
z
" style="fill:#1f77b4;"/>
   </g>
   <g id="patch_137">
    <path clip-path="url(#p131642f674)" d="M 327.01499 137.71551 
L 328.202728 137.71551 
L 328.202728 136.758752 
L 327.01499 136.758752 
z
" style="fill:#1f77b4;"/>
   </g>
   <g id="patch_138">
    <path clip-path="url(#p131642f674)" d="M 328.499662 137.71551 
L 329.6874 137.71551 
L 329.6874 136.615238 
L 328.499662 136.615238 
z
" style="fill:#1f77b4;"/>
   </g>
   <g id="patch_139">
    <path clip-path="url(#p131642f674)" d="M 329.984334 137.71551 
L 331.172072 137.71551 
L 331.172072 136.997941 
L 329.984334 136.997941 
z
" style="fill:#1f77b4;"/>
   </g>
   <g id="patch_140">
    <path clip-path="url(#p131642f674)" d="M 331.469007 137.71551 
L 332.656744 137.71551 
L 332.656744 136.184697 
L 331.469007 136.184697 
z
" style="fill:#1f77b4;"/>
   </g>
   <g id="patch_141">
    <path clip-path="url(#p131642f674)" d="M 332.953679 137.71551 
L 334.141416 137.71551 
L 334.141416 135.227939 
L 332.953679 135.227939 
z
" style="fill:#1f77b4;"/>
   </g>
   <g id="patch_142">
    <path clip-path="url(#p131642f674)" d="M 334.438351 137.71551 
L 335.626089 137.71551 
L 335.626089 137.045779 
L 334.438351 137.045779 
z
" style="fill:#1f77b4;"/>
   </g>
   <g id="patch_143">
    <path clip-path="url(#p131642f674)" d="M 335.923023 137.71551 
L 337.110761 137.71551 
L 337.110761 137.47632 
L 335.923023 137.47632 
z
" style="fill:#1f77b4;"/>
   </g>
   <g id="patch_144">
    <path clip-path="url(#p131642f674)" d="M 337.407695 137.71551 
L 338.595433 137.71551 
L 338.595433 136.80659 
L 337.407695 136.80659 
z
" style="fill:#1f77b4;"/>
   </g>
   <g id="patch_145">
    <path clip-path="url(#p131642f674)" d="M 338.892367 137.71551 
L 340.080105 137.71551 
L 340.080105 136.902266 
L 338.892367 136.902266 
z
" style="fill:#1f77b4;"/>
   </g>
   <g id="patch_146">
    <path clip-path="url(#p131642f674)" d="M 340.37704 137.71551 
L 341.564777 137.71551 
L 341.564777 136.854428 
L 340.37704 136.854428 
z
" style="fill:#1f77b4;"/>
   </g>
   <g id="patch_147">
    <path clip-path="url(#p131642f674)" d="M 341.861712 137.71551 
L 343.049449 137.71551 
L 343.049449 136.376049 
L 341.861712 136.376049 
z
" style="fill:#1f77b4;"/>
   </g>
   <g id="patch_148">
    <path clip-path="url(#p131642f674)" d="M 343.346384 137.71551 
L 344.534122 137.71551 
L 344.534122 136.5674 
L 343.346384 136.5674 
z
" style="fill:#1f77b4;"/>
   </g>
   <g id="patch_149">
    <path clip-path="url(#p131642f674)" d="M 344.831056 137.71551 
L 346.018794 137.71551 
L 346.018794 136.041183 
L 344.831056 136.041183 
z
" style="fill:#1f77b4;"/>
   </g>
   <g id="patch_150">
    <path clip-path="url(#p131642f674)" d="M 346.315728 137.71551 
L 347.503466 137.71551 
L 347.503466 136.5674 
L 346.315728 136.5674 
z
" style="fill:#1f77b4;"/>
   </g>
   <g id="patch_151">
    <path clip-path="url(#p131642f674)" d="M 347.8004 137.71551 
L 348.988138 137.71551 
L 348.988138 137.093617 
L 347.8004 137.093617 
z
" style="fill:#1f77b4;"/>
   </g>
   <g id="patch_152">
    <path clip-path="url(#p131642f674)" d="M 349.285072 137.71551 
L 350.47281 137.71551 
L 350.47281 136.232535 
L 349.285072 136.232535 
z
" style="fill:#1f77b4;"/>
   </g>
   <g id="patch_153">
    <path clip-path="url(#p131642f674)" d="M 350.769745 137.71551 
L 351.957482 137.71551 
L 351.957482 136.089021 
L 350.769745 136.089021 
z
" style="fill:#1f77b4;"/>
   </g>
   <g id="patch_154">
    <path clip-path="url(#p131642f674)" d="M 352.254417 137.71551 
L 353.442154 137.71551 
L 353.442154 136.280373 
L 352.254417 136.280373 
z
" style="fill:#1f77b4;"/>
   </g>
   <g id="patch_155">
    <path clip-path="url(#p131642f674)" d="M 353.739089 137.71551 
L 354.926827 137.71551 
L 354.926827 136.950104 
L 353.739089 136.950104 
z
" style="fill:#1f77b4;"/>
   </g>
   <g id="patch_156">
    <path clip-path="url(#p131642f674)" d="M 355.223761 137.71551 
L 356.411499 137.71551 
L 356.411499 134.606046 
L 355.223761 134.606046 
z
" style="fill:#1f77b4;"/>
   </g>
   <g id="patch_157">
    <path clip-path="url(#p131642f674)" d="M 356.708433 137.71551 
L 357.896171 137.71551 
L 357.896171 135.562804 
L 356.708433 135.562804 
z
" style="fill:#1f77b4;"/>
   </g>
   <g id="patch_158">
    <path clip-path="url(#p131642f674)" d="M 358.193105 137.71551 
L 359.380843 137.71551 
L 359.380843 137.284969 
L 358.193105 137.284969 
z
" style="fill:#1f77b4;"/>
   </g>
   <g id="patch_159">
    <path clip-path="url(#p131642f674)" d="M 359.677778 137.71551 
L 360.865515 137.71551 
L 360.865515 134.606046 
L 359.677778 134.606046 
z
" style="fill:#1f77b4;"/>
   </g>
   <g id="patch_160">
    <path clip-path="url(#p131642f674)" d="M 361.16245 137.71551 
L 362.350187 137.71551 
L 362.350187 136.902266 
L 361.16245 136.902266 
z
" style="fill:#1f77b4;"/>
   </g>
   <g id="patch_161">
    <path clip-path="url(#p131642f674)" d="M 362.647122 137.71551 
L 363.83486 137.71551 
L 363.83486 136.471725 
L 362.647122 136.471725 
z
" style="fill:#1f77b4;"/>
   </g>
   <g id="patch_162">
    <path clip-path="url(#p131642f674)" d="M 364.131794 137.71551 
L 365.319532 137.71551 
L 365.319532 136.5674 
L 364.131794 136.5674 
z
" style="fill:#1f77b4;"/>
   </g>
   <g id="patch_163">
    <path clip-path="url(#p131642f674)" d="M 365.616466 137.71551 
L 366.804204 137.71551 
L 366.804204 135.180101 
L 365.616466 135.180101 
z
" style="fill:#1f77b4;"/>
   </g>
   <g id="patch_164">
    <path clip-path="url(#p131642f674)" d="M 367.101138 137.71551 
L 368.288876 137.71551 
L 368.288876 133.888478 
L 367.101138 133.888478 
z
" style="fill:#1f77b4;"/>
   </g>
   <g id="patch_165">
    <path clip-path="url(#p131642f674)" d="M 368.58581 137.71551 
L 369.773548 137.71551 
L 369.773548 134.510371 
L 368.58581 134.510371 
z
" style="fill:#1f77b4;"/>
   </g>
   <g id="patch_166">
    <path clip-path="url(#p131642f674)" d="M 370.070483 137.71551 
L 371.25822 137.71551 
L 371.25822 134.74956 
L 370.070483 134.74956 
z
" style="fill:#1f77b4;"/>
   </g>
   <g id="patch_167">
    <path clip-path="url(#p131642f674)" d="M 371.555155 137.71551 
L 372.742892 137.71551 
L 372.742892 133.84064 
L 371.555155 133.84064 
z
" style="fill:#1f77b4;"/>
   </g>
   <g id="patch_168">
    <path clip-path="url(#p131642f674)" d="M 373.039827 137.71551 
L 374.227565 137.71551 
L 374.227565 132.453341 
L 373.039827 132.453341 
z
" style="fill:#1f77b4;"/>
   </g>
   <g id="patch_169">
    <path clip-path="url(#p131642f674)" d="M 374.524499 137.71551 
L 375.712237 137.71551 
L 375.712237 132.93172 
L 374.524499 132.93172 
z
" style="fill:#1f77b4;"/>
   </g>
   <g id="patch_170">
    <path clip-path="url(#p131642f674)" d="M 376.009171 137.71551 
L 377.196909 137.71551 
L 377.196909 133.744964 
L 376.009171 133.744964 
z
" style="fill:#1f77b4;"/>
   </g>
   <g id="patch_171">
    <path clip-path="url(#p131642f674)" d="M 377.493843 137.71551 
L 378.681581 137.71551 
L 378.681581 132.0228 
L 377.493843 132.0228 
z
" style="fill:#1f77b4;"/>
   </g>
   <g id="patch_172">
    <path clip-path="url(#p131642f674)" d="M 378.978515 137.71551 
L 380.166253 137.71551 
L 380.166253 135.323615 
L 378.978515 135.323615 
z
" style="fill:#1f77b4;"/>
   </g>
   <g id="patch_173">
    <path clip-path="url(#p131642f674)" d="M 380.463188 137.71551 
L 381.650925 137.71551 
L 381.650925 133.505775 
L 380.463188 133.505775 
z
" style="fill:#1f77b4;"/>
   </g>
   <g id="patch_174">
    <path clip-path="url(#p131642f674)" d="M 381.94786 137.71551 
L 383.135597 137.71551 
L 383.135597 120.876569 
L 381.94786 120.876569 
z
" style="fill:#1f77b4;"/>
   </g>
   <g id="patch_175">
    <path clip-path="url(#p131642f674)" d="M 383.432532 137.71551 
L 384.62027 137.71551 
L 384.62027 128.913336 
L 383.432532 128.913336 
z
" style="fill:#1f77b4;"/>
   </g>
   <g id="patch_176">
    <path clip-path="url(#p131642f674)" d="M 384.917204 137.71551 
L 386.104942 137.71551 
L 386.104942 131.305231 
L 384.917204 131.305231 
z
" style="fill:#1f77b4;"/>
   </g>
   <g id="patch_177">
    <path clip-path="url(#p131642f674)" d="M 386.401876 137.71551 
L 387.589614 137.71551 
L 387.589614 132.644692 
L 386.401876 132.644692 
z
" style="fill:#1f77b4;"/>
   </g>
   <g id="patch_178">
    <path clip-path="url(#p131642f674)" d="M 387.886548 137.71551 
L 389.074286 137.71551 
L 389.074286 132.883882 
L 387.886548 132.883882 
z
" style="fill:#1f77b4;"/>
   </g>
   <g id="patch_179">
    <path clip-path="url(#p131642f674)" d="M 389.371221 137.71551 
L 390.558958 137.71551 
L 390.558958 128.339281 
L 389.371221 128.339281 
z
" style="fill:#1f77b4;"/>
   </g>
   <g id="patch_180">
    <path clip-path="url(#p131642f674)" d="M 390.855893 137.71551 
L 392.04363 137.71551 
L 392.04363 127.526037 
L 390.855893 127.526037 
z
" style="fill:#1f77b4;"/>
   </g>
   <g id="patch_181">
    <path clip-path="url(#p131642f674)" d="M 392.340565 137.71551 
L 393.528303 137.71551 
L 393.528303 126.99982 
L 392.340565 126.99982 
z
" style="fill:#1f77b4;"/>
   </g>
   <g id="patch_182">
    <path clip-path="url(#p131642f674)" d="M 393.825237 137.71551 
L 395.012975 137.71551 
L 395.012975 119.967649 
L 393.825237 119.967649 
z
" style="fill:#1f77b4;"/>
   </g>
   <g id="patch_183">
    <path clip-path="url(#p131642f674)" d="M 395.309909 137.71551 
L 396.497647 137.71551 
L 396.497647 120.828731 
L 395.309909 120.828731 
z
" style="fill:#1f77b4;"/>
   </g>
   <g id="patch_184">
    <path clip-path="url(#p131642f674)" d="M 396.794581 137.71551 
L 397.982319 137.71551 
L 397.982319 126.808469 
L 396.794581 126.808469 
z
" style="fill:#1f77b4;"/>
   </g>
   <g id="patch_185">
    <path clip-path="url(#p131642f674)" d="M 398.279253 137.71551 
L 399.466991 137.71551 
L 399.466991 125.708197 
L 398.279253 125.708197 
z
" style="fill:#1f77b4;"/>
   </g>
   <g id="patch_186">
    <path clip-path="url(#p131642f674)" d="M 399.763926 137.71551 
L 400.951663 137.71551 
L 400.951663 126.521441 
L 399.763926 126.521441 
z
" style="fill:#1f77b4;"/>
   </g>
   <g id="patch_187">
    <path clip-path="url(#p131642f674)" d="M 401.248598 137.71551 
L 402.436335 137.71551 
L 402.436335 122.981436 
L 401.248598 122.981436 
z
" style="fill:#1f77b4;"/>
   </g>
   <g id="patch_188">
    <path clip-path="url(#p131642f674)" d="M 402.73327 137.71551 
L 403.921008 137.71551 
L 403.921008 119.48927 
L 402.73327 119.48927 
z
" style="fill:#1f77b4;"/>
   </g>
   <g id="patch_189">
    <path clip-path="url(#p131642f674)" d="M 404.217942 137.71551 
L 405.40568 137.71551 
L 405.40568 118.293322 
L 404.217942 118.293322 
z
" style="fill:#1f77b4;"/>
   </g>
   <g id="patch_190">
    <path clip-path="url(#p131642f674)" d="M 405.702614 137.71551 
L 406.890352 137.71551 
L 406.890352 123.220626 
L 405.702614 123.220626 
z
" style="fill:#1f77b4;"/>
   </g>
   <g id="patch_191">
    <path clip-path="url(#p131642f674)" d="M 407.187286 137.71551 
L 408.375024 137.71551 
L 408.375024 119.202242 
L 407.187286 119.202242 
z
" style="fill:#1f77b4;"/>
   </g>
   <g id="patch_192">
    <path clip-path="url(#p131642f674)" d="M 408.671959 137.71551 
L 409.859696 137.71551 
L 409.859696 123.746843 
L 408.671959 123.746843 
z
" style="fill:#1f77b4;"/>
   </g>
   <g id="patch_193">
    <path clip-path="url(#p131642f674)" d="M 410.156631 137.71551 
L 411.344368 137.71551 
L 411.344368 124.320898 
L 410.156631 124.320898 
z
" style="fill:#1f77b4;"/>
   </g>
   <g id="patch_194">
    <path clip-path="url(#p131642f674)" d="M 411.641303 137.71551 
L 412.829041 137.71551 
L 412.829041 111.356826 
L 411.641303 111.356826 
z
" style="fill:#1f77b4;"/>
   </g>
   <g id="patch_195">
    <path clip-path="url(#p131642f674)" d="M 413.125975 137.71551 
L 414.313713 137.71551 
L 414.313713 111.930881 
L 413.125975 111.930881 
z
" style="fill:#1f77b4;"/>
   </g>
   <g id="patch_196">
    <path clip-path="url(#p131642f674)" d="M 414.610647 137.71551 
L 415.798385 137.71551 
L 415.798385 117.527916 
L 414.610647 117.527916 
z
" style="fill:#1f77b4;"/>
   </g>
   <g id="patch_197">
    <path clip-path="url(#p131642f674)" d="M 416.095319 137.71551 
L 417.283057 137.71551 
L 417.283057 101.741408 
L 416.095319 101.741408 
z
" style="fill:#1f77b4;"/>
   </g>
   <g id="patch_198">
    <path clip-path="url(#p131642f674)" d="M 417.579991 137.71551 
L 418.767729 137.71551 
L 418.767729 123.077112 
L 417.579991 123.077112 
z
" style="fill:#1f77b4;"/>
   </g>
   <g id="patch_199">
    <path clip-path="url(#p131642f674)" d="M 419.064664 137.71551 
L 420.252401 137.71551 
L 420.252401 102.793842 
L 419.064664 102.793842 
z
" style="fill:#1f77b4;"/>
   </g>
   <g id="patch_200">
    <path clip-path="url(#p131642f674)" d="M 420.549336 137.71551 
L 421.737073 137.71551 
L 421.737073 102.028436 
L 420.549336 102.028436 
z
" style="fill:#1f77b4;"/>
   </g>
   <g id="patch_201">
    <path clip-path="url(#p131642f674)" d="M 422.034008 137.71551 
L 423.221746 137.71551 
L 423.221746 101.167353 
L 422.034008 101.167353 
z
" style="fill:#1f77b4;"/>
   </g>
   <g id="patch_202">
    <path clip-path="url(#p131642f674)" d="M 423.51868 137.71551 
L 424.706418 137.71551 
L 424.706418 94.517885 
L 423.51868 94.517885 
z
" style="fill:#1f77b4;"/>
   </g>
   <g id="patch_203">
    <path clip-path="url(#p131642f674)" d="M 425.003352 137.71551 
L 426.19109 137.71551 
L 426.19109 76.243807 
L 425.003352 76.243807 
z
" style="fill:#1f77b4;"/>
   </g>
   <g id="patch_204">
    <path clip-path="url(#p131642f674)" d="M 426.488024 137.71551 
L 427.675762 137.71551 
L 427.675762 59.165676 
L 426.488024 59.165676 
z
" style="fill:#1f77b4;"/>
   </g>
   <g id="patch_205">
    <path clip-path="url(#p131642f674)" d="M 427.972696 137.71551 
L 429.160434 137.71551 
L 429.160434 100.736812 
L 427.972696 100.736812 
z
" style="fill:#1f77b4;"/>
   </g>
   <g id="patch_206">
    <path clip-path="url(#p131642f674)" d="M 429.457369 137.71551 
L 430.645106 137.71551 
L 430.645106 137.428483 
L 429.457369 137.428483 
z
" style="fill:#1f77b4;"/>
   </g>
   <g id="patch_207">
    <path clip-path="url(#p131642f674)" d="M 430.942041 137.71551 
L 432.129778 137.71551 
L 432.129778 67.824336 
L 430.942041 67.824336 
z
" style="fill:#1f77b4;"/>
   </g>
   <g id="patch_208">
    <path clip-path="url(#p131642f674)" d="M 432.426713 137.71551 
L 433.614451 137.71551 
L 433.614451 73.469209 
L 432.426713 73.469209 
z
" style="fill:#1f77b4;"/>
   </g>
   <g id="patch_209">
    <path clip-path="url(#p131642f674)" d="M 433.911385 137.71551 
L 435.099123 137.71551 
L 435.099123 86.337604 
L 433.911385 86.337604 
z
" style="fill:#1f77b4;"/>
   </g>
   <g id="patch_210">
    <path clip-path="url(#p131642f674)" d="M 435.396057 137.71551 
L 436.583795 137.71551 
L 436.583795 95.187616 
L 435.396057 95.187616 
z
" style="fill:#1f77b4;"/>
   </g>
   <g id="patch_211">
    <path clip-path="url(#p131642f674)" d="M 436.880729 137.71551 
L 438.068467 137.71551 
L 438.068467 110.782772 
L 436.880729 110.782772 
z
" style="fill:#1f77b4;"/>
   </g>
   <g id="patch_212">
    <path clip-path="url(#p131642f674)" d="M 438.365402 137.71551 
L 439.553139 137.71551 
L 439.553139 94.087344 
L 438.365402 94.087344 
z
" style="fill:#1f77b4;"/>
   </g>
   <g id="patch_213">
    <path clip-path="url(#p131642f674)" d="M 439.850074 137.71551 
L 441.037811 137.71551 
L 441.037811 98.823296 
L 439.850074 98.823296 
z
" style="fill:#1f77b4;"/>
   </g>
   <g id="patch_214">
    <path clip-path="url(#p131642f674)" d="M 441.334746 137.71551 
L 442.522484 137.71551 
L 442.522484 56.582429 
L 441.334746 56.582429 
z
" style="fill:#1f77b4;"/>
   </g>
   <g id="patch_215">
    <path clip-path="url(#p131642f674)" d="M 442.819418 137.71551 
L 444.007156 137.71551 
L 444.007156 53.520804 
L 442.819418 53.520804 
z
" style="fill:#1f77b4;"/>
   </g>
   <g id="patch_216">
    <path clip-path="url(#p131642f674)" d="M 444.30409 137.71551 
L 445.491828 137.71551 
L 445.491828 71.651368 
L 444.30409 71.651368 
z
" style="fill:#1f77b4;"/>
   </g>
   <g id="patch_217">
    <path clip-path="url(#p131642f674)" d="M 445.788762 137.71551 
L 446.9765 137.71551 
L 446.9765 23.813467 
L 445.788762 23.813467 
z
" style="fill:#1f77b4;"/>
   </g>
   <g id="patch_218">
    <path clip-path="url(#p131642f674)" d="M 447.273434 137.71551 
L 448.461172 137.71551 
L 448.461172 73.804074 
L 447.273434 73.804074 
z
" style="fill:#1f77b4;"/>
   </g>
   <g id="patch_219">
    <path clip-path="url(#p131642f674)" d="M 448.758107 137.71551 
L 449.945844 137.71551 
L 449.945844 90.403826 
L 448.758107 90.403826 
z
" style="fill:#1f77b4;"/>
   </g>
   <g id="matplotlib.axis_3">
    <g id="xtick_6">
     <g id="line2d_11">
      <g>
       <use style="stroke:#000000;stroke-width:0.8;" x="293.4614" xlink:href="#m7b02141403" y="137.71551"/>
      </g>
     </g>
     <g id="text_13">
      <!-- 0 -->
      <g transform="translate(290.28015 152.313947)scale(0.1 -0.1)">
       <use xlink:href="#DejaVuSans-48"/>
      </g>
     </g>
    </g>
    <g id="xtick_7">
     <g id="line2d_12">
      <g>
       <use style="stroke:#000000;stroke-width:0.8;" x="330.578203" xlink:href="#m7b02141403" y="137.71551"/>
      </g>
     </g>
     <g id="text_14">
      <!-- 25 -->
      <g transform="translate(324.215703 152.313947)scale(0.1 -0.1)">
       <use xlink:href="#DejaVuSans-50"/>
       <use x="63.623047" xlink:href="#DejaVuSans-53"/>
      </g>
     </g>
    </g>
    <g id="xtick_8">
     <g id="line2d_13">
      <g>
       <use style="stroke:#000000;stroke-width:0.8;" x="367.695007" xlink:href="#m7b02141403" y="137.71551"/>
      </g>
     </g>
     <g id="text_15">
      <!-- 50 -->
      <g transform="translate(361.332507 152.313947)scale(0.1 -0.1)">
       <use xlink:href="#DejaVuSans-53"/>
       <use x="63.623047" xlink:href="#DejaVuSans-48"/>
      </g>
     </g>
    </g>
    <g id="xtick_9">
     <g id="line2d_14">
      <g>
       <use style="stroke:#000000;stroke-width:0.8;" x="404.811811" xlink:href="#m7b02141403" y="137.71551"/>
      </g>
     </g>
     <g id="text_16">
      <!-- 75 -->
      <g transform="translate(398.449311 152.313947)scale(0.1 -0.1)">
       <use xlink:href="#DejaVuSans-55"/>
       <use x="63.623047" xlink:href="#DejaVuSans-53"/>
      </g>
     </g>
    </g>
    <g id="xtick_10">
     <g id="line2d_15">
      <g>
       <use style="stroke:#000000;stroke-width:0.8;" x="441.928615" xlink:href="#m7b02141403" y="137.71551"/>
      </g>
     </g>
     <g id="text_17">
      <!-- 100 -->
      <g transform="translate(432.384865 152.313947)scale(0.1 -0.1)">
       <use xlink:href="#DejaVuSans-49"/>
       <use x="63.623047" xlink:href="#DejaVuSans-48"/>
       <use x="127.246094" xlink:href="#DejaVuSans-48"/>
      </g>
     </g>
    </g>
    <g id="text_18">
     <!-- Dias -->
     <g transform="translate(360.498875 165.992072)scale(0.1 -0.1)">
      <use xlink:href="#DejaVuSans-68"/>
      <use x="77.001953" xlink:href="#DejaVuSans-105"/>
      <use x="104.785156" xlink:href="#DejaVuSans-97"/>
      <use x="166.064453" xlink:href="#DejaVuSans-115"/>
     </g>
    </g>
   </g>
   <g id="matplotlib.axis_4">
    <g id="ytick_5">
     <g id="line2d_16">
      <g>
       <use style="stroke:#000000;stroke-width:0.8;" x="285.013615" xlink:href="#m11dee7cd21" y="137.71551"/>
      </g>
     </g>
     <g id="text_19">
      <!-- 0 -->
      <g transform="translate(271.651115 141.514729)scale(0.1 -0.1)">
       <use xlink:href="#DejaVuSans-48"/>
      </g>
     </g>
    </g>
    <g id="ytick_6">
     <g id="line2d_17">
      <g>
       <use style="stroke:#000000;stroke-width:0.8;" x="285.013615" xlink:href="#m11dee7cd21" y="89.877609"/>
      </g>
     </g>
     <g id="text_20">
      <!-- 1000 -->
      <g transform="translate(252.563615 93.676828)scale(0.1 -0.1)">
       <use xlink:href="#DejaVuSans-49"/>
       <use x="63.623047" xlink:href="#DejaVuSans-48"/>
       <use x="127.246094" xlink:href="#DejaVuSans-48"/>
       <use x="190.869141" xlink:href="#DejaVuSans-48"/>
      </g>
     </g>
    </g>
    <g id="ytick_7">
     <g id="line2d_18">
      <g>
       <use style="stroke:#000000;stroke-width:0.8;" x="285.013615" xlink:href="#m11dee7cd21" y="42.039708"/>
      </g>
     </g>
     <g id="text_21">
      <!-- 2000 -->
      <g transform="translate(252.563615 45.838926)scale(0.1 -0.1)">
       <use xlink:href="#DejaVuSans-50"/>
       <use x="63.623047" xlink:href="#DejaVuSans-48"/>
       <use x="127.246094" xlink:href="#DejaVuSans-48"/>
       <use x="190.869141" xlink:href="#DejaVuSans-48"/>
      </g>
     </g>
    </g>
    <g id="text_22">
     <!-- Novos casos -->
     <defs>
      <path d="M 9.8125 72.90625 
L 23.09375 72.90625 
L 55.421875 11.921875 
L 55.421875 72.90625 
L 64.984375 72.90625 
L 64.984375 0 
L 51.703125 0 
L 19.390625 60.984375 
L 19.390625 0 
L 9.8125 0 
z
" id="DejaVuSans-78"/>
      <path d="M 2.984375 54.6875 
L 12.5 54.6875 
L 29.59375 8.796875 
L 46.6875 54.6875 
L 56.203125 54.6875 
L 35.6875 0 
L 23.484375 0 
z
" id="DejaVuSans-118"/>
     </defs>
     <g transform="translate(246.483928 109.011469)rotate(-90)scale(0.1 -0.1)">
      <use xlink:href="#DejaVuSans-78"/>
      <use x="74.804688" xlink:href="#DejaVuSans-111"/>
      <use x="135.986328" xlink:href="#DejaVuSans-118"/>
      <use x="195.166016" xlink:href="#DejaVuSans-111"/>
      <use x="256.347656" xlink:href="#DejaVuSans-115"/>
      <use x="308.447266" xlink:href="#DejaVuSans-32"/>
      <use x="340.234375" xlink:href="#DejaVuSans-99"/>
      <use x="395.214844" xlink:href="#DejaVuSans-97"/>
      <use x="456.494141" xlink:href="#DejaVuSans-115"/>
      <use x="508.59375" xlink:href="#DejaVuSans-111"/>
      <use x="569.775391" xlink:href="#DejaVuSans-115"/>
     </g>
    </g>
   </g>
   <g id="line2d_19">
    <path clip-path="url(#p131642f674)" d="M 293.4614 137.692059 
L 294.946072 137.676877 
L 296.430744 137.654403 
L 297.915416 137.624098 
L 299.400088 137.583672 
L 300.88476 137.531809 
L 302.369432 137.467673 
L 303.854105 137.393277 
L 305.338777 137.310751 
L 306.823449 137.222766 
L 308.308121 137.13221 
L 309.792793 137.042671 
L 311.277465 136.956878 
L 312.762138 136.878536 
L 314.24681 136.807726 
L 315.731482 136.744626 
L 317.216154 136.689575 
L 318.700826 136.643132 
L 320.185498 136.604559 
L 321.67017 136.574912 
L 323.154843 136.552577 
L 324.639515 136.537933 
L 326.124187 136.532394 
L 327.608859 136.535641 
L 329.093531 136.545703 
L 330.578203 136.561443 
L 332.062875 136.579634 
L 333.547548 136.598881 
L 335.03222 136.617091 
L 336.516892 136.629683 
L 338.001564 136.633867 
L 339.486236 136.628787 
L 340.970908 136.613226 
L 342.455581 136.586946 
L 343.940253 136.550325 
L 345.424925 136.504221 
L 346.909597 136.450964 
L 348.394269 136.393363 
L 349.878941 136.333292 
L 351.363613 136.271566 
L 352.848286 136.21014 
L 354.332958 136.147778 
L 355.81763 136.081131 
L 357.302302 136.005738 
L 358.786974 135.914446 
L 360.271646 135.800539 
L 361.756319 135.66123 
L 363.240991 135.491277 
L 364.725663 135.285201 
L 366.210335 135.041349 
L 367.695007 134.761295 
L 369.179679 134.449263 
L 370.664351 134.110493 
L 372.149024 133.742753 
L 373.633696 133.343732 
L 375.118368 132.925703 
L 376.60304 132.496536 
L 378.087712 132.057388 
L 379.572384 131.606325 
L 381.057056 131.135717 
L 382.541729 130.648073 
L 384.026401 130.149869 
L 385.511073 129.621879 
L 386.995745 129.052606 
L 388.480417 128.444122 
L 389.965089 127.801847 
L 391.449762 127.141202 
L 392.934434 126.469897 
L 394.419106 125.789527 
L 395.903778 125.120972 
L 397.38845 124.477183 
L 398.873122 123.846762 
L 400.357794 123.222598 
L 401.842467 122.581977 
L 403.327139 121.896287 
L 404.811811 121.144011 
L 406.296483 120.293887 
L 407.781155 119.30005 
L 409.265827 118.133092 
L 410.7505 116.742386 
L 412.235172 115.118448 
L 413.719844 113.263409 
L 415.204516 111.167965 
L 416.689188 108.834847 
L 418.17386 106.325997 
L 419.658532 103.750222 
L 421.143205 101.249481 
L 422.627877 98.881017 
L 424.112549 96.713189 
L 425.597221 94.832767 
L 427.081893 93.312015 
L 428.566565 92.118538 
L 430.051237 91.095792 
L 431.53591 90.064477 
L 433.020582 88.914296 
L 434.505254 87.522713 
L 435.989926 85.777118 
L 437.474598 83.557746 
L 438.95927 80.882051 
L 440.443943 77.91128 
L 441.928615 74.872228 
L 443.413287 71.899265 
L 444.897959 69.143375 
L 446.382631 67.307006 
L 447.867303 65.737759 
L 449.351975 64.50537 
" style="fill:none;stroke:#ff0000;stroke-linecap:square;stroke-width:1.5;"/>
   </g>
   <g id="patch_220">
    <path d="M 285.013615 137.71551 
L 285.013615 18.118365 
" style="fill:none;stroke:#000000;stroke-linecap:square;stroke-linejoin:miter;stroke-width:0.8;"/>
   </g>
   <g id="patch_221">
    <path d="M 457.79976 137.71551 
L 457.79976 18.118365 
" style="fill:none;stroke:#000000;stroke-linecap:square;stroke-linejoin:miter;stroke-width:0.8;"/>
   </g>
   <g id="patch_222">
    <path d="M 285.013615 137.71551 
L 457.79976 137.71551 
" style="fill:none;stroke:#000000;stroke-linecap:square;stroke-linejoin:miter;stroke-width:0.8;"/>
   </g>
   <g id="patch_223">
    <path d="M 285.013615 18.118365 
L 457.79976 18.118365 
" style="fill:none;stroke:#000000;stroke-linecap:square;stroke-linejoin:miter;stroke-width:0.8;"/>
   </g>
   <g id="text_23">
    <!-- Casos novos - DF -->
    <defs>
     <path d="M 54.890625 33.015625 
L 54.890625 0 
L 45.90625 0 
L 45.90625 32.71875 
Q 45.90625 40.484375 42.875 44.328125 
Q 39.84375 48.1875 33.796875 48.1875 
Q 26.515625 48.1875 22.3125 43.546875 
Q 18.109375 38.921875 18.109375 30.90625 
L 18.109375 0 
L 9.078125 0 
L 9.078125 54.6875 
L 18.109375 54.6875 
L 18.109375 46.1875 
Q 21.34375 51.125 25.703125 53.5625 
Q 30.078125 56 35.796875 56 
Q 45.21875 56 50.046875 50.171875 
Q 54.890625 44.34375 54.890625 33.015625 
z
" id="DejaVuSans-110"/>
    </defs>
    <g transform="translate(319.8395 12.118365)scale(0.12 -0.12)">
     <use xlink:href="#DejaVuSans-67"/>
     <use x="69.824219" xlink:href="#DejaVuSans-97"/>
     <use x="131.103516" xlink:href="#DejaVuSans-115"/>
     <use x="183.203125" xlink:href="#DejaVuSans-111"/>
     <use x="244.384766" xlink:href="#DejaVuSans-115"/>
     <use x="296.484375" xlink:href="#DejaVuSans-32"/>
     <use x="328.271484" xlink:href="#DejaVuSans-110"/>
     <use x="391.650391" xlink:href="#DejaVuSans-111"/>
     <use x="452.832031" xlink:href="#DejaVuSans-118"/>
     <use x="512.011719" xlink:href="#DejaVuSans-111"/>
     <use x="573.193359" xlink:href="#DejaVuSans-115"/>
     <use x="625.292969" xlink:href="#DejaVuSans-32"/>
     <use x="657.080078" xlink:href="#DejaVuSans-45"/>
     <use x="693.164062" xlink:href="#DejaVuSans-32"/>
     <use x="724.951172" xlink:href="#DejaVuSans-68"/>
     <use x="801.953125" xlink:href="#DejaVuSans-70"/>
    </g>
   </g>
  </g>
  <g id="axes_3">
   <g id="patch_224">
    <path d="M 55.490865 312.24351 
L 457.79976 312.24351 
L 457.79976 192.646365 
L 55.490865 192.646365 
z
" style="fill:#ffffff;"/>
   </g>
   <g id="matplotlib.axis_5">
    <g id="xtick_11">
     <g id="line2d_20">
      <g>
       <use style="stroke:#000000;stroke-width:0.8;" x="73.777633" xlink:href="#m7b02141403" y="312.24351"/>
      </g>
     </g>
     <g id="text_24">
      <!-- 0 -->
      <g transform="translate(70.596383 326.841947)scale(0.1 -0.1)">
       <use xlink:href="#DejaVuSans-48"/>
      </g>
     </g>
    </g>
    <g id="xtick_12">
     <g id="line2d_21">
      <g>
       <use style="stroke:#000000;stroke-width:0.8;" x="143.441511" xlink:href="#m7b02141403" y="312.24351"/>
      </g>
     </g>
     <g id="text_25">
      <!-- 20 -->
      <g transform="translate(137.079011 326.841947)scale(0.1 -0.1)">
       <use xlink:href="#DejaVuSans-50"/>
       <use x="63.623047" xlink:href="#DejaVuSans-48"/>
      </g>
     </g>
    </g>
    <g id="xtick_13">
     <g id="line2d_22">
      <g>
       <use style="stroke:#000000;stroke-width:0.8;" x="213.105389" xlink:href="#m7b02141403" y="312.24351"/>
      </g>
     </g>
     <g id="text_26">
      <!-- 40 -->
      <defs>
       <path d="M 37.796875 64.3125 
L 12.890625 25.390625 
L 37.796875 25.390625 
z
M 35.203125 72.90625 
L 47.609375 72.90625 
L 47.609375 25.390625 
L 58.015625 25.390625 
L 58.015625 17.1875 
L 47.609375 17.1875 
L 47.609375 0 
L 37.796875 0 
L 37.796875 17.1875 
L 4.890625 17.1875 
L 4.890625 26.703125 
z
" id="DejaVuSans-52"/>
      </defs>
      <g transform="translate(206.742889 326.841947)scale(0.1 -0.1)">
       <use xlink:href="#DejaVuSans-52"/>
       <use x="63.623047" xlink:href="#DejaVuSans-48"/>
      </g>
     </g>
    </g>
    <g id="xtick_14">
     <g id="line2d_23">
      <g>
       <use style="stroke:#000000;stroke-width:0.8;" x="282.769267" xlink:href="#m7b02141403" y="312.24351"/>
      </g>
     </g>
     <g id="text_27">
      <!-- 60 -->
      <defs>
       <path d="M 33.015625 40.375 
Q 26.375 40.375 22.484375 35.828125 
Q 18.609375 31.296875 18.609375 23.390625 
Q 18.609375 15.53125 22.484375 10.953125 
Q 26.375 6.390625 33.015625 6.390625 
Q 39.65625 6.390625 43.53125 10.953125 
Q 47.40625 15.53125 47.40625 23.390625 
Q 47.40625 31.296875 43.53125 35.828125 
Q 39.65625 40.375 33.015625 40.375 
z
M 52.59375 71.296875 
L 52.59375 62.3125 
Q 48.875 64.0625 45.09375 64.984375 
Q 41.3125 65.921875 37.59375 65.921875 
Q 27.828125 65.921875 22.671875 59.328125 
Q 17.53125 52.734375 16.796875 39.40625 
Q 19.671875 43.65625 24.015625 45.921875 
Q 28.375 48.1875 33.59375 48.1875 
Q 44.578125 48.1875 50.953125 41.515625 
Q 57.328125 34.859375 57.328125 23.390625 
Q 57.328125 12.15625 50.6875 5.359375 
Q 44.046875 -1.421875 33.015625 -1.421875 
Q 20.359375 -1.421875 13.671875 8.265625 
Q 6.984375 17.96875 6.984375 36.375 
Q 6.984375 53.65625 15.1875 63.9375 
Q 23.390625 74.21875 37.203125 74.21875 
Q 40.921875 74.21875 44.703125 73.484375 
Q 48.484375 72.75 52.59375 71.296875 
z
" id="DejaVuSans-54"/>
      </defs>
      <g transform="translate(276.406767 326.841947)scale(0.1 -0.1)">
       <use xlink:href="#DejaVuSans-54"/>
       <use x="63.623047" xlink:href="#DejaVuSans-48"/>
      </g>
     </g>
    </g>
    <g id="xtick_15">
     <g id="line2d_24">
      <g>
       <use style="stroke:#000000;stroke-width:0.8;" x="352.433145" xlink:href="#m7b02141403" y="312.24351"/>
      </g>
     </g>
     <g id="text_28">
      <!-- 80 -->
      <defs>
       <path d="M 31.78125 34.625 
Q 24.75 34.625 20.71875 30.859375 
Q 16.703125 27.09375 16.703125 20.515625 
Q 16.703125 13.921875 20.71875 10.15625 
Q 24.75 6.390625 31.78125 6.390625 
Q 38.8125 6.390625 42.859375 10.171875 
Q 46.921875 13.96875 46.921875 20.515625 
Q 46.921875 27.09375 42.890625 30.859375 
Q 38.875 34.625 31.78125 34.625 
z
M 21.921875 38.8125 
Q 15.578125 40.375 12.03125 44.71875 
Q 8.5 49.078125 8.5 55.328125 
Q 8.5 64.0625 14.71875 69.140625 
Q 20.953125 74.21875 31.78125 74.21875 
Q 42.671875 74.21875 48.875 69.140625 
Q 55.078125 64.0625 55.078125 55.328125 
Q 55.078125 49.078125 51.53125 44.71875 
Q 48 40.375 41.703125 38.8125 
Q 48.828125 37.15625 52.796875 32.3125 
Q 56.78125 27.484375 56.78125 20.515625 
Q 56.78125 9.90625 50.3125 4.234375 
Q 43.84375 -1.421875 31.78125 -1.421875 
Q 19.734375 -1.421875 13.25 4.234375 
Q 6.78125 9.90625 6.78125 20.515625 
Q 6.78125 27.484375 10.78125 32.3125 
Q 14.796875 37.15625 21.921875 38.8125 
z
M 18.3125 54.390625 
Q 18.3125 48.734375 21.84375 45.5625 
Q 25.390625 42.390625 31.78125 42.390625 
Q 38.140625 42.390625 41.71875 45.5625 
Q 45.3125 48.734375 45.3125 54.390625 
Q 45.3125 60.0625 41.71875 63.234375 
Q 38.140625 66.40625 31.78125 66.40625 
Q 25.390625 66.40625 21.84375 63.234375 
Q 18.3125 60.0625 18.3125 54.390625 
z
" id="DejaVuSans-56"/>
      </defs>
      <g transform="translate(346.070645 326.841947)scale(0.1 -0.1)">
       <use xlink:href="#DejaVuSans-56"/>
       <use x="63.623047" xlink:href="#DejaVuSans-48"/>
      </g>
     </g>
    </g>
    <g id="xtick_16">
     <g id="line2d_25">
      <g>
       <use style="stroke:#000000;stroke-width:0.8;" x="422.097023" xlink:href="#m7b02141403" y="312.24351"/>
      </g>
     </g>
     <g id="text_29">
      <!-- 100 -->
      <g transform="translate(412.553273 326.841947)scale(0.1 -0.1)">
       <use xlink:href="#DejaVuSans-49"/>
       <use x="63.623047" xlink:href="#DejaVuSans-48"/>
       <use x="127.246094" xlink:href="#DejaVuSans-48"/>
      </g>
     </g>
    </g>
    <g id="text_30">
     <!-- Dias -->
     <g transform="translate(245.7375 340.520072)scale(0.1 -0.1)">
      <use xlink:href="#DejaVuSans-68"/>
      <use x="77.001953" xlink:href="#DejaVuSans-105"/>
      <use x="104.785156" xlink:href="#DejaVuSans-97"/>
      <use x="166.064453" xlink:href="#DejaVuSans-115"/>
     </g>
    </g>
   </g>
   <g id="matplotlib.axis_6">
    <g id="ytick_8">
     <g id="line2d_26">
      <g>
       <use style="stroke:#000000;stroke-width:0.8;" x="55.490865" xlink:href="#m11dee7cd21" y="302.580846"/>
      </g>
     </g>
     <g id="text_31">
      <!-- 1 -->
      <g transform="translate(42.128365 306.380064)scale(0.1 -0.1)">
       <use xlink:href="#DejaVuSans-49"/>
      </g>
     </g>
    </g>
    <g id="ytick_9">
     <g id="line2d_27">
      <g>
       <use style="stroke:#000000;stroke-width:0.8;" x="55.490865" xlink:href="#m11dee7cd21" y="267.512394"/>
      </g>
     </g>
     <g id="text_32">
      <!-- 2 -->
      <g transform="translate(42.128365 271.311613)scale(0.1 -0.1)">
       <use xlink:href="#DejaVuSans-50"/>
      </g>
     </g>
    </g>
    <g id="ytick_10">
     <g id="line2d_28">
      <g>
       <use style="stroke:#000000;stroke-width:0.8;" x="55.490865" xlink:href="#m11dee7cd21" y="232.443942"/>
      </g>
     </g>
     <g id="text_33">
      <!-- 3 -->
      <g transform="translate(42.128365 236.243161)scale(0.1 -0.1)">
       <use xlink:href="#DejaVuSans-51"/>
      </g>
     </g>
    </g>
    <g id="ytick_11">
     <g id="line2d_29">
      <g>
       <use style="stroke:#000000;stroke-width:0.8;" x="55.490865" xlink:href="#m11dee7cd21" y="197.37549"/>
      </g>
     </g>
     <g id="text_34">
      <!-- 4 -->
      <g transform="translate(42.128365 201.174709)scale(0.1 -0.1)">
       <use xlink:href="#DejaVuSans-52"/>
      </g>
     </g>
    </g>
    <g id="text_35">
     <!-- r0 -->
     <defs>
      <path d="M 41.109375 46.296875 
Q 39.59375 47.171875 37.8125 47.578125 
Q 36.03125 48 33.890625 48 
Q 26.265625 48 22.1875 43.046875 
Q 18.109375 38.09375 18.109375 28.8125 
L 18.109375 0 
L 9.078125 0 
L 9.078125 54.6875 
L 18.109375 54.6875 
L 18.109375 46.1875 
Q 20.953125 51.171875 25.484375 53.578125 
Q 30.03125 56 36.53125 56 
Q 37.453125 56 38.578125 55.875 
Q 39.703125 55.765625 41.0625 55.515625 
z
" id="DejaVuSans-114"/>
     </defs>
     <g transform="translate(36.048678 257.681656)rotate(-90)scale(0.1 -0.1)">
      <use xlink:href="#DejaVuSans-114"/>
      <use x="41.113281" xlink:href="#DejaVuSans-48"/>
     </g>
    </g>
   </g>
   <g id="line2d_30">
    <path clip-path="url(#p2011bd9f62)" d="M 73.777633 198.082599 
L 77.260827 204.136589 
L 80.744021 210.446234 
L 84.227215 219.528052 
L 87.710409 225.756572 
L 91.193602 231.841565 
L 94.676796 237.731451 
L 98.15999 244.714801 
L 101.643184 251.468989 
L 105.126378 257.806861 
L 108.609572 263.640854 
L 112.092766 269.18876 
L 115.57596 274.190477 
L 119.059154 279.068412 
L 122.542348 282.971825 
L 126.025541 286.227625 
L 129.508735 289.063362 
L 132.991929 291.653334 
L 136.475123 293.80185 
L 139.958317 295.986387 
L 143.441511 297.684339 
L 146.924705 299.378629 
L 150.407899 301.320793 
L 153.891093 303.183302 
L 157.374286 304.648246 
L 160.85748 305.910007 
L 164.340674 306.503524 
L 167.823868 306.807276 
L 171.307062 306.638967 
L 174.790256 305.383793 
L 178.27345 303.438 
L 181.756644 301.286675 
L 185.239838 298.90871 
L 188.723032 296.598151 
L 192.206225 294.544574 
L 195.689419 292.869458 
L 199.172613 291.842226 
L 202.655807 291.469057 
L 206.139001 291.486975 
L 209.622195 291.6572 
L 213.105389 292.136899 
L 216.588583 292.385593 
L 220.071777 292.124042 
L 223.55497 291.277656 
L 227.038164 289.604682 
L 230.521358 287.374635 
L 234.004552 285.257941 
L 237.487746 283.071325 
L 240.97094 280.93363 
L 244.454134 279.29334 
L 247.937328 278.351281 
L 251.420522 278.131494 
L 254.903716 278.488334 
L 258.386909 278.803109 
L 261.870103 279.085858 
L 265.353297 280.050886 
L 268.836491 281.279596 
L 272.319685 282.399682 
L 275.802879 283.30582 
L 279.286073 283.836318 
L 282.769267 284.419073 
L 286.252461 285.158826 
L 289.735655 285.249695 
L 293.218848 285.056222 
L 296.702042 285.001136 
L 300.185236 285.135718 
L 303.66843 285.643043 
L 307.151624 286.26911 
L 310.634818 286.858114 
L 314.118012 287.787198 
L 317.601206 288.842946 
L 321.0844 289.568719 
L 324.567593 290.09037 
L 328.050787 290.179695 
L 331.533981 289.80757 
L 335.017175 289.156134 
L 338.500369 288.13887 
L 341.983563 286.639715 
L 345.466757 284.998209 
L 348.949951 283.039208 
L 352.433145 281.354144 
L 355.916339 280.048523 
L 359.399532 278.95589 
L 362.882726 278.152472 
L 366.36592 278.049088 
L 369.849114 278.804277 
L 373.332308 280.423833 
L 376.815502 282.145359 
L 380.298696 284.031394 
L 383.78189 286.195895 
L 387.265084 288.559064 
L 390.748278 290.526516 
L 394.231471 291.425112 
L 397.714665 291.196313 
L 401.197859 290.309477 
L 404.681053 288.740009 
L 408.164247 286.610363 
L 411.647441 283.965337 
L 415.130635 281.608228 
L 418.613829 280.224301 
L 422.097023 279.978244 
L 425.580216 280.284847 
L 429.06341 281.148914 
L 432.546604 284.963931 
L 436.029798 285.714852 
L 439.512992 286.71374 
" style="fill:none;stroke:#ff0000;stroke-linecap:square;stroke-width:1.5;"/>
   </g>
   <g id="patch_225">
    <path d="M 55.490865 312.24351 
L 55.490865 192.646365 
" style="fill:none;stroke:#000000;stroke-linecap:square;stroke-linejoin:miter;stroke-width:0.8;"/>
   </g>
   <g id="patch_226">
    <path d="M 457.79976 312.24351 
L 457.79976 192.646365 
" style="fill:none;stroke:#000000;stroke-linecap:square;stroke-linejoin:miter;stroke-width:0.8;"/>
   </g>
   <g id="patch_227">
    <path d="M 55.490865 312.24351 
L 457.79976 312.24351 
" style="fill:none;stroke:#000000;stroke-linecap:square;stroke-linejoin:miter;stroke-width:0.8;"/>
   </g>
   <g id="patch_228">
    <path d="M 55.490865 192.646365 
L 457.79976 192.646365 
" style="fill:none;stroke:#000000;stroke-linecap:square;stroke-linejoin:miter;stroke-width:0.8;"/>
   </g>
   <g id="text_36">
    <!-- r0 aproximado - DF -->
    <defs>
     <path d="M 18.109375 8.203125 
L 18.109375 -20.796875 
L 9.078125 -20.796875 
L 9.078125 54.6875 
L 18.109375 54.6875 
L 18.109375 46.390625 
Q 20.953125 51.265625 25.265625 53.625 
Q 29.59375 56 35.59375 56 
Q 45.5625 56 51.78125 48.09375 
Q 58.015625 40.1875 58.015625 27.296875 
Q 58.015625 14.40625 51.78125 6.484375 
Q 45.5625 -1.421875 35.59375 -1.421875 
Q 29.59375 -1.421875 25.265625 0.953125 
Q 20.953125 3.328125 18.109375 8.203125 
z
M 48.6875 27.296875 
Q 48.6875 37.203125 44.609375 42.84375 
Q 40.53125 48.484375 33.40625 48.484375 
Q 26.265625 48.484375 22.1875 42.84375 
Q 18.109375 37.203125 18.109375 27.296875 
Q 18.109375 17.390625 22.1875 11.75 
Q 26.265625 6.109375 33.40625 6.109375 
Q 40.53125 6.109375 44.609375 11.75 
Q 48.6875 17.390625 48.6875 27.296875 
z
" id="DejaVuSans-112"/>
     <path d="M 54.890625 54.6875 
L 35.109375 28.078125 
L 55.90625 0 
L 45.3125 0 
L 29.390625 21.484375 
L 13.484375 0 
L 2.875 0 
L 24.125 28.609375 
L 4.6875 54.6875 
L 15.28125 54.6875 
L 29.78125 35.203125 
L 44.28125 54.6875 
z
" id="DejaVuSans-120"/>
    </defs>
    <g transform="translate(198.884062 186.646365)scale(0.12 -0.12)">
     <use xlink:href="#DejaVuSans-114"/>
     <use x="41.113281" xlink:href="#DejaVuSans-48"/>
     <use x="104.736328" xlink:href="#DejaVuSans-32"/>
     <use x="136.523438" xlink:href="#DejaVuSans-97"/>
     <use x="197.802734" xlink:href="#DejaVuSans-112"/>
     <use x="261.279297" xlink:href="#DejaVuSans-114"/>
     <use x="300.142578" xlink:href="#DejaVuSans-111"/>
     <use x="358.199219" xlink:href="#DejaVuSans-120"/>
     <use x="417.378906" xlink:href="#DejaVuSans-105"/>
     <use x="445.162109" xlink:href="#DejaVuSans-109"/>
     <use x="542.574219" xlink:href="#DejaVuSans-97"/>
     <use x="603.853516" xlink:href="#DejaVuSans-100"/>
     <use x="667.330078" xlink:href="#DejaVuSans-111"/>
     <use x="728.511719" xlink:href="#DejaVuSans-32"/>
     <use x="760.298828" xlink:href="#DejaVuSans-45"/>
     <use x="796.382812" xlink:href="#DejaVuSans-32"/>
     <use x="828.169922" xlink:href="#DejaVuSans-68"/>
     <use x="905.171875" xlink:href="#DejaVuSans-70"/>
    </g>
   </g>
  </g>
 </g>
 <defs>
  <clipPath id="p759303d8e6">
   <rect height="119.597145" width="172.786145" x="55.490865" y="18.118365"/>
  </clipPath>
  <clipPath id="p131642f674">
   <rect height="119.597145" width="172.786145" x="285.013615" y="18.118365"/>
  </clipPath>
  <clipPath id="p2011bd9f62">
   <rect height="119.597145" width="402.308895" x="55.490865" y="192.646365"/>
  </clipPath>
 </defs>
</svg>
