<?xml version="1.0" encoding="utf-8" standalone="no"?>
<!DOCTYPE svg PUBLIC "-//W3C//DTD SVG 1.1//EN"
  "http://www.w3.org/Graphics/SVG/1.1/DTD/svg11.dtd">
<!-- Created with matplotlib (https://matplotlib.org/) -->
<svg height="345.6pt" version="1.1" viewBox="0 0 460.8 345.6" width="460.8pt" xmlns="http://www.w3.org/2000/svg" xmlns:xlink="http://www.w3.org/1999/xlink">
 <defs>
  <style type="text/css">
*{stroke-linecap:butt;stroke-linejoin:round;}
  </style>
 </defs>
 <g id="figure_1">
  <g id="patch_1">
   <path d="M 0 345.6 
L 460.8 345.6 
L 460.8 0 
L 0 0 
z
" style="fill:#ffffff;"/>
  </g>
  <g id="axes_1">
   <g id="patch_2">
    <path d="M 51.5795 325.921635 
L 135.808563 325.921635 
L 135.808563 18.118365 
L 51.5795 18.118365 
z
" style="fill:#ffffff;"/>
   </g>
   <g id="patch_3">
    <path clip-path="url(#p25ac1b20c0)" d="M 55.408094 325.921635 
L 55.987087 325.921635 
L 55.987087 325.91292 
L 55.408094 325.91292 
z
" style="fill:#1f77b4;"/>
   </g>
   <g id="patch_4">
    <path clip-path="url(#p25ac1b20c0)" d="M 56.131836 325.921635 
L 56.710829 325.921635 
L 56.710829 325.91292 
L 56.131836 325.91292 
z
" style="fill:#1f77b4;"/>
   </g>
   <g id="patch_5">
    <path clip-path="url(#p25ac1b20c0)" d="M 56.855577 325.921635 
L 57.434571 325.921635 
L 57.434571 325.91292 
L 56.855577 325.91292 
z
" style="fill:#1f77b4;"/>
   </g>
   <g id="patch_6">
    <path clip-path="url(#p25ac1b20c0)" d="M 57.579319 325.921635 
L 58.158312 325.921635 
L 58.158312 325.904205 
L 57.579319 325.904205 
z
" style="fill:#1f77b4;"/>
   </g>
   <g id="patch_7">
    <path clip-path="url(#p25ac1b20c0)" d="M 58.303061 325.921635 
L 58.882054 325.921635 
L 58.882054 325.904205 
L 58.303061 325.904205 
z
" style="fill:#1f77b4;"/>
   </g>
   <g id="patch_8">
    <path clip-path="url(#p25ac1b20c0)" d="M 59.026802 325.921635 
L 59.605796 325.921635 
L 59.605796 325.904205 
L 59.026802 325.904205 
z
" style="fill:#1f77b4;"/>
   </g>
   <g id="patch_9">
    <path clip-path="url(#p25ac1b20c0)" d="M 59.750544 325.921635 
L 60.329538 325.921635 
L 60.329538 325.869345 
L 59.750544 325.869345 
z
" style="fill:#1f77b4;"/>
   </g>
   <g id="patch_10">
    <path clip-path="url(#p25ac1b20c0)" d="M 60.474286 325.921635 
L 61.053279 325.921635 
L 61.053279 325.851915 
L 60.474286 325.851915 
z
" style="fill:#1f77b4;"/>
   </g>
   <g id="patch_11">
    <path clip-path="url(#p25ac1b20c0)" d="M 61.198028 325.921635 
L 61.777021 325.921635 
L 61.777021 325.80834 
L 61.198028 325.80834 
z
" style="fill:#1f77b4;"/>
   </g>
   <g id="patch_12">
    <path clip-path="url(#p25ac1b20c0)" d="M 61.921769 325.921635 
L 62.500763 325.921635 
L 62.500763 325.729904 
L 61.921769 325.729904 
z
" style="fill:#1f77b4;"/>
   </g>
   <g id="patch_13">
    <path clip-path="url(#p25ac1b20c0)" d="M 62.645511 325.921635 
L 63.224505 325.921635 
L 63.224505 325.695044 
L 62.645511 325.695044 
z
" style="fill:#1f77b4;"/>
   </g>
   <g id="patch_14">
    <path clip-path="url(#p25ac1b20c0)" d="M 63.369253 325.921635 
L 63.948246 325.921635 
L 63.948246 325.555604 
L 63.369253 325.555604 
z
" style="fill:#1f77b4;"/>
   </g>
   <g id="patch_15">
    <path clip-path="url(#p25ac1b20c0)" d="M 64.092995 325.921635 
L 64.671988 325.921635 
L 64.671988 325.163427 
L 64.092995 325.163427 
z
" style="fill:#1f77b4;"/>
   </g>
   <g id="patch_16">
    <path clip-path="url(#p25ac1b20c0)" d="M 64.816736 325.921635 
L 65.39573 325.921635 
L 65.39573 325.050131 
L 64.816736 325.050131 
z
" style="fill:#1f77b4;"/>
   </g>
   <g id="patch_17">
    <path clip-path="url(#p25ac1b20c0)" d="M 65.540478 325.921635 
L 66.119471 325.921635 
L 66.119471 324.901976 
L 65.540478 324.901976 
z
" style="fill:#1f77b4;"/>
   </g>
   <g id="patch_18">
    <path clip-path="url(#p25ac1b20c0)" d="M 66.26422 325.921635 
L 66.843213 325.921635 
L 66.843213 324.762535 
L 66.26422 324.762535 
z
" style="fill:#1f77b4;"/>
   </g>
   <g id="patch_19">
    <path clip-path="url(#p25ac1b20c0)" d="M 66.987962 325.921635 
L 67.566955 325.921635 
L 67.566955 324.527229 
L 66.987962 324.527229 
z
" style="fill:#1f77b4;"/>
   </g>
   <g id="patch_20">
    <path clip-path="url(#p25ac1b20c0)" d="M 67.711703 325.921635 
L 68.290697 325.921635 
L 68.290697 324.527229 
L 67.711703 324.527229 
z
" style="fill:#1f77b4;"/>
   </g>
   <g id="patch_21">
    <path clip-path="url(#p25ac1b20c0)" d="M 68.435445 325.921635 
L 69.014438 325.921635 
L 69.014438 324.178628 
L 68.435445 324.178628 
z
" style="fill:#1f77b4;"/>
   </g>
   <g id="patch_22">
    <path clip-path="url(#p25ac1b20c0)" d="M 69.159187 325.921635 
L 69.73818 325.921635 
L 69.73818 323.917177 
L 69.159187 323.917177 
z
" style="fill:#1f77b4;"/>
   </g>
   <g id="patch_23">
    <path clip-path="url(#p25ac1b20c0)" d="M 69.882929 325.921635 
L 70.461922 325.921635 
L 70.461922 323.655726 
L 69.882929 323.655726 
z
" style="fill:#1f77b4;"/>
   </g>
   <g id="patch_24">
    <path clip-path="url(#p25ac1b20c0)" d="M 70.60667 325.921635 
L 71.185664 325.921635 
L 71.185664 323.40299 
L 70.60667 323.40299 
z
" style="fill:#1f77b4;"/>
   </g>
   <g id="patch_25">
    <path clip-path="url(#p25ac1b20c0)" d="M 71.330412 325.921635 
L 71.909405 325.921635 
L 71.909405 323.202544 
L 71.330412 323.202544 
z
" style="fill:#1f77b4;"/>
   </g>
   <g id="patch_26">
    <path clip-path="url(#p25ac1b20c0)" d="M 72.054154 325.921635 
L 72.633147 325.921635 
L 72.633147 323.028243 
L 72.054154 323.028243 
z
" style="fill:#1f77b4;"/>
   </g>
   <g id="patch_27">
    <path clip-path="url(#p25ac1b20c0)" d="M 72.777895 325.921635 
L 73.356889 325.921635 
L 73.356889 322.827797 
L 72.777895 322.827797 
z
" style="fill:#1f77b4;"/>
   </g>
   <g id="patch_28">
    <path clip-path="url(#p25ac1b20c0)" d="M 73.501637 325.921635 
L 74.080631 325.921635 
L 74.080631 322.697072 
L 73.501637 322.697072 
z
" style="fill:#1f77b4;"/>
   </g>
   <g id="patch_29">
    <path clip-path="url(#p25ac1b20c0)" d="M 74.225379 325.921635 
L 74.804372 325.921635 
L 74.804372 322.418191 
L 74.225379 322.418191 
z
" style="fill:#1f77b4;"/>
   </g>
   <g id="patch_30">
    <path clip-path="url(#p25ac1b20c0)" d="M 74.949121 325.921635 
L 75.528114 325.921635 
L 75.528114 321.965009 
L 74.949121 321.965009 
z
" style="fill:#1f77b4;"/>
   </g>
   <g id="patch_31">
    <path clip-path="url(#p25ac1b20c0)" d="M 75.672862 325.921635 
L 76.251856 325.921635 
L 76.251856 321.842998 
L 75.672862 321.842998 
z
" style="fill:#1f77b4;"/>
   </g>
   <g id="patch_32">
    <path clip-path="url(#p25ac1b20c0)" d="M 76.396604 325.921635 
L 76.975598 325.921635 
L 76.975598 321.799423 
L 76.396604 321.799423 
z
" style="fill:#1f77b4;"/>
   </g>
   <g id="patch_33">
    <path clip-path="url(#p25ac1b20c0)" d="M 77.120346 325.921635 
L 77.699339 325.921635 
L 77.699339 321.633838 
L 77.120346 321.633838 
z
" style="fill:#1f77b4;"/>
   </g>
   <g id="patch_34">
    <path clip-path="url(#p25ac1b20c0)" d="M 77.844088 325.921635 
L 78.423081 325.921635 
L 78.423081 321.485682 
L 77.844088 321.485682 
z
" style="fill:#1f77b4;"/>
   </g>
   <g id="patch_35">
    <path clip-path="url(#p25ac1b20c0)" d="M 78.567829 325.921635 
L 79.146823 325.921635 
L 79.146823 321.328811 
L 78.567829 321.328811 
z
" style="fill:#1f77b4;"/>
   </g>
   <g id="patch_36">
    <path clip-path="url(#p25ac1b20c0)" d="M 79.291571 325.921635 
L 79.870564 325.921635 
L 79.870564 321.08479 
L 79.291571 321.08479 
z
" style="fill:#1f77b4;"/>
   </g>
   <g id="patch_37">
    <path clip-path="url(#p25ac1b20c0)" d="M 80.015313 325.921635 
L 80.594306 325.921635 
L 80.594306 320.87563 
L 80.015313 320.87563 
z
" style="fill:#1f77b4;"/>
   </g>
   <g id="patch_38">
    <path clip-path="url(#p25ac1b20c0)" d="M 80.739055 325.921635 
L 81.318048 325.921635 
L 81.318048 320.570603 
L 80.739055 320.570603 
z
" style="fill:#1f77b4;"/>
   </g>
   <g id="patch_39">
    <path clip-path="url(#p25ac1b20c0)" d="M 81.462796 325.921635 
L 82.04179 325.921635 
L 82.04179 320.361443 
L 81.462796 320.361443 
z
" style="fill:#1f77b4;"/>
   </g>
   <g id="patch_40">
    <path clip-path="url(#p25ac1b20c0)" d="M 82.186538 325.921635 
L 82.765531 325.921635 
L 82.765531 320.248147 
L 82.186538 320.248147 
z
" style="fill:#1f77b4;"/>
   </g>
   <g id="patch_41">
    <path clip-path="url(#p25ac1b20c0)" d="M 82.91028 325.921635 
L 83.489273 325.921635 
L 83.489273 319.977981 
L 82.91028 319.977981 
z
" style="fill:#1f77b4;"/>
   </g>
   <g id="patch_42">
    <path clip-path="url(#p25ac1b20c0)" d="M 83.634022 325.921635 
L 84.213015 325.921635 
L 84.213015 319.68167 
L 83.634022 319.68167 
z
" style="fill:#1f77b4;"/>
   </g>
   <g id="patch_43">
    <path clip-path="url(#p25ac1b20c0)" d="M 84.357763 325.921635 
L 84.936757 325.921635 
L 84.936757 319.420219 
L 84.357763 319.420219 
z
" style="fill:#1f77b4;"/>
   </g>
   <g id="patch_44">
    <path clip-path="url(#p25ac1b20c0)" d="M 85.081505 325.921635 
L 85.660498 325.921635 
L 85.660498 319.280778 
L 85.081505 319.280778 
z
" style="fill:#1f77b4;"/>
   </g>
   <g id="patch_45">
    <path clip-path="url(#p25ac1b20c0)" d="M 85.805247 325.921635 
L 86.38424 325.921635 
L 86.38424 318.714301 
L 85.805247 318.714301 
z
" style="fill:#1f77b4;"/>
   </g>
   <g id="patch_46">
    <path clip-path="url(#p25ac1b20c0)" d="M 86.528988 325.921635 
L 87.107982 325.921635 
L 87.107982 318.322124 
L 86.528988 318.322124 
z
" style="fill:#1f77b4;"/>
   </g>
   <g id="patch_47">
    <path clip-path="url(#p25ac1b20c0)" d="M 87.25273 325.921635 
L 87.831724 325.921635 
L 87.831724 318.243689 
L 87.25273 318.243689 
z
" style="fill:#1f77b4;"/>
   </g>
   <g id="patch_48">
    <path clip-path="url(#p25ac1b20c0)" d="M 87.976472 325.921635 
L 88.555465 325.921635 
L 88.555465 317.677212 
L 87.976472 317.677212 
z
" style="fill:#1f77b4;"/>
   </g>
   <g id="patch_49">
    <path clip-path="url(#p25ac1b20c0)" d="M 88.700214 325.921635 
L 89.279207 325.921635 
L 89.279207 317.529056 
L 88.700214 317.529056 
z
" style="fill:#1f77b4;"/>
   </g>
   <g id="patch_50">
    <path clip-path="url(#p25ac1b20c0)" d="M 89.423955 325.921635 
L 90.002949 325.921635 
L 90.002949 317.302465 
L 89.423955 317.302465 
z
" style="fill:#1f77b4;"/>
   </g>
   <g id="patch_51">
    <path clip-path="url(#p25ac1b20c0)" d="M 90.147697 325.921635 
L 90.726691 325.921635 
L 90.726691 317.093304 
L 90.147697 317.093304 
z
" style="fill:#1f77b4;"/>
   </g>
   <g id="patch_52">
    <path clip-path="url(#p25ac1b20c0)" d="M 90.871439 325.921635 
L 91.450432 325.921635 
L 91.450432 316.631407 
L 90.871439 316.631407 
z
" style="fill:#1f77b4;"/>
   </g>
   <g id="patch_53">
    <path clip-path="url(#p25ac1b20c0)" d="M 91.595181 325.921635 
L 92.174174 325.921635 
L 92.174174 315.934205 
L 91.595181 315.934205 
z
" style="fill:#1f77b4;"/>
   </g>
   <g id="patch_54">
    <path clip-path="url(#p25ac1b20c0)" d="M 92.318922 325.921635 
L 92.897916 325.921635 
L 92.897916 315.350297 
L 92.318922 315.350297 
z
" style="fill:#1f77b4;"/>
   </g>
   <g id="patch_55">
    <path clip-path="url(#p25ac1b20c0)" d="M 93.042664 325.921635 
L 93.621657 325.921635 
L 93.621657 314.809965 
L 93.042664 314.809965 
z
" style="fill:#1f77b4;"/>
   </g>
   <g id="patch_56">
    <path clip-path="url(#p25ac1b20c0)" d="M 93.766406 325.921635 
L 94.345399 325.921635 
L 94.345399 314.104047 
L 93.766406 314.104047 
z
" style="fill:#1f77b4;"/>
   </g>
   <g id="patch_57">
    <path clip-path="url(#p25ac1b20c0)" d="M 94.490148 325.921635 
L 95.069141 325.921635 
L 95.069141 313.145393 
L 94.490148 313.145393 
z
" style="fill:#1f77b4;"/>
   </g>
   <g id="patch_58">
    <path clip-path="url(#p25ac1b20c0)" d="M 95.213889 325.921635 
L 95.792883 325.921635 
L 95.792883 312.27389 
L 95.213889 312.27389 
z
" style="fill:#1f77b4;"/>
   </g>
   <g id="patch_59">
    <path clip-path="url(#p25ac1b20c0)" d="M 95.937631 325.921635 
L 96.516624 325.921635 
L 96.516624 311.550542 
L 95.937631 311.550542 
z
" style="fill:#1f77b4;"/>
   </g>
   <g id="patch_60">
    <path clip-path="url(#p25ac1b20c0)" d="M 96.661373 325.921635 
L 97.240366 325.921635 
L 97.240366 310.513453 
L 96.661373 310.513453 
z
" style="fill:#1f77b4;"/>
   </g>
   <g id="patch_61">
    <path clip-path="url(#p25ac1b20c0)" d="M 97.385115 325.921635 
L 97.964108 325.921635 
L 97.964108 310.077701 
L 97.385115 310.077701 
z
" style="fill:#1f77b4;"/>
   </g>
   <g id="patch_62">
    <path clip-path="url(#p25ac1b20c0)" d="M 98.108856 325.921635 
L 98.68785 325.921635 
L 98.68785 309.310778 
L 98.108856 309.310778 
z
" style="fill:#1f77b4;"/>
   </g>
   <g id="patch_63">
    <path clip-path="url(#p25ac1b20c0)" d="M 98.832598 325.921635 
L 99.411591 325.921635 
L 99.411591 306.243085 
L 98.832598 306.243085 
z
" style="fill:#1f77b4;"/>
   </g>
   <g id="patch_64">
    <path clip-path="url(#p25ac1b20c0)" d="M 99.55634 325.921635 
L 100.135333 325.921635 
L 100.135333 304.639519 
L 99.55634 304.639519 
z
" style="fill:#1f77b4;"/>
   </g>
   <g id="patch_65">
    <path clip-path="url(#p25ac1b20c0)" d="M 100.280081 325.921635 
L 100.859075 325.921635 
L 100.859075 303.471704 
L 100.280081 303.471704 
z
" style="fill:#1f77b4;"/>
   </g>
   <g id="patch_66">
    <path clip-path="url(#p25ac1b20c0)" d="M 101.003823 325.921635 
L 101.582817 325.921635 
L 101.582817 302.54791 
L 101.003823 302.54791 
z
" style="fill:#1f77b4;"/>
   </g>
   <g id="patch_67">
    <path clip-path="url(#p25ac1b20c0)" d="M 101.727565 325.921635 
L 102.306558 325.921635 
L 102.306558 301.667692 
L 101.727565 301.667692 
z
" style="fill:#1f77b4;"/>
   </g>
   <g id="patch_68">
    <path clip-path="url(#p25ac1b20c0)" d="M 102.451307 325.921635 
L 103.0303 325.921635 
L 103.0303 299.959545 
L 102.451307 299.959545 
z
" style="fill:#1f77b4;"/>
   </g>
   <g id="patch_69">
    <path clip-path="url(#p25ac1b20c0)" d="M 103.175048 325.921635 
L 103.754042 325.921635 
L 103.754042 298.103242 
L 103.175048 298.103242 
z
" style="fill:#1f77b4;"/>
   </g>
   <g id="patch_70">
    <path clip-path="url(#p25ac1b20c0)" d="M 103.89879 325.921635 
L 104.477784 325.921635 
L 104.477784 296.151075 
L 103.89879 296.151075 
z
" style="fill:#1f77b4;"/>
   </g>
   <g id="patch_71">
    <path clip-path="url(#p25ac1b20c0)" d="M 104.622532 325.921635 
L 105.201525 325.921635 
L 105.201525 292.917796 
L 104.622532 292.917796 
z
" style="fill:#1f77b4;"/>
   </g>
   <g id="patch_72">
    <path clip-path="url(#p25ac1b20c0)" d="M 105.346274 325.921635 
L 105.925267 325.921635 
L 105.925267 289.841389 
L 105.346274 289.841389 
z
" style="fill:#1f77b4;"/>
   </g>
   <g id="patch_73">
    <path clip-path="url(#p25ac1b20c0)" d="M 106.070015 325.921635 
L 106.649009 325.921635 
L 106.649009 287.854361 
L 106.070015 287.854361 
z
" style="fill:#1f77b4;"/>
   </g>
   <g id="patch_74">
    <path clip-path="url(#p25ac1b20c0)" d="M 106.793757 325.921635 
L 107.37275 325.921635 
L 107.37275 285.666887 
L 106.793757 285.666887 
z
" style="fill:#1f77b4;"/>
   </g>
   <g id="patch_75">
    <path clip-path="url(#p25ac1b20c0)" d="M 107.517499 325.921635 
L 108.096492 325.921635 
L 108.096492 283.627569 
L 107.517499 283.627569 
z
" style="fill:#1f77b4;"/>
   </g>
   <g id="patch_76">
    <path clip-path="url(#p25ac1b20c0)" d="M 108.241241 325.921635 
L 108.820234 325.921635 
L 108.820234 280.943338 
L 108.241241 280.943338 
z
" style="fill:#1f77b4;"/>
   </g>
   <g id="patch_77">
    <path clip-path="url(#p25ac1b20c0)" d="M 108.964982 325.921635 
L 109.543976 325.921635 
L 109.543976 277.62291 
L 108.964982 277.62291 
z
" style="fill:#1f77b4;"/>
   </g>
   <g id="patch_78">
    <path clip-path="url(#p25ac1b20c0)" d="M 109.688724 325.921635 
L 110.267717 325.921635 
L 110.267717 274.084605 
L 109.688724 274.084605 
z
" style="fill:#1f77b4;"/>
   </g>
   <g id="patch_79">
    <path clip-path="url(#p25ac1b20c0)" d="M 110.412466 325.921635 
L 110.991459 325.921635 
L 110.991459 271.44395 
L 110.412466 271.44395 
z
" style="fill:#1f77b4;"/>
   </g>
   <g id="patch_80">
    <path clip-path="url(#p25ac1b20c0)" d="M 111.136208 325.921635 
L 111.715201 325.921635 
L 111.715201 268.071231 
L 111.136208 268.071231 
z
" style="fill:#1f77b4;"/>
   </g>
   <g id="patch_81">
    <path clip-path="url(#p25ac1b20c0)" d="M 111.859949 325.921635 
L 112.438943 325.921635 
L 112.438943 265.526441 
L 111.859949 265.526441 
z
" style="fill:#1f77b4;"/>
   </g>
   <g id="patch_82">
    <path clip-path="url(#p25ac1b20c0)" d="M 112.583691 325.921635 
L 113.162684 325.921635 
L 113.162684 263.086231 
L 112.583691 263.086231 
z
" style="fill:#1f77b4;"/>
   </g>
   <g id="patch_83">
    <path clip-path="url(#p25ac1b20c0)" d="M 113.307433 325.921635 
L 113.886426 325.921635 
L 113.886426 258.284246 
L 113.307433 258.284246 
z
" style="fill:#1f77b4;"/>
   </g>
   <g id="patch_84">
    <path clip-path="url(#p25ac1b20c0)" d="M 114.031174 325.921635 
L 114.610168 325.921635 
L 114.610168 253.586842 
L 114.031174 253.586842 
z
" style="fill:#1f77b4;"/>
   </g>
   <g id="patch_85">
    <path clip-path="url(#p25ac1b20c0)" d="M 114.754916 325.921635 
L 115.33391 325.921635 
L 115.33391 249.909097 
L 114.754916 249.909097 
z
" style="fill:#1f77b4;"/>
   </g>
   <g id="patch_86">
    <path clip-path="url(#p25ac1b20c0)" d="M 115.478658 325.921635 
L 116.057651 325.921635 
L 116.057651 243.355391 
L 115.478658 243.355391 
z
" style="fill:#1f77b4;"/>
   </g>
   <g id="patch_87">
    <path clip-path="url(#p25ac1b20c0)" d="M 116.2024 325.921635 
L 116.781393 325.921635 
L 116.781393 240.68859 
L 116.2024 240.68859 
z
" style="fill:#1f77b4;"/>
   </g>
   <g id="patch_88">
    <path clip-path="url(#p25ac1b20c0)" d="M 116.926141 325.921635 
L 117.505135 325.921635 
L 117.505135 234.326614 
L 116.926141 234.326614 
z
" style="fill:#1f77b4;"/>
   </g>
   <g id="patch_89">
    <path clip-path="url(#p25ac1b20c0)" d="M 117.649883 325.921635 
L 118.228877 325.921635 
L 118.228877 227.825198 
L 117.649883 227.825198 
z
" style="fill:#1f77b4;"/>
   </g>
   <g id="patch_90">
    <path clip-path="url(#p25ac1b20c0)" d="M 118.373625 325.921635 
L 118.952618 325.921635 
L 118.952618 221.166911 
L 118.373625 221.166911 
z
" style="fill:#1f77b4;"/>
   </g>
   <g id="patch_91">
    <path clip-path="url(#p25ac1b20c0)" d="M 119.097367 325.921635 
L 119.67636 325.921635 
L 119.67636 213.297234 
L 119.097367 213.297234 
z
" style="fill:#1f77b4;"/>
   </g>
   <g id="patch_92">
    <path clip-path="url(#p25ac1b20c0)" d="M 119.821108 325.921635 
L 120.400102 325.921635 
L 120.400102 202.098414 
L 119.821108 202.098414 
z
" style="fill:#1f77b4;"/>
   </g>
   <g id="patch_93">
    <path clip-path="url(#p25ac1b20c0)" d="M 120.54485 325.921635 
L 121.123843 325.921635 
L 121.123843 187.788326 
L 120.54485 187.788326 
z
" style="fill:#1f77b4;"/>
   </g>
   <g id="patch_94">
    <path clip-path="url(#p25ac1b20c0)" d="M 121.268592 325.921635 
L 121.847585 325.921635 
L 121.847585 181.051604 
L 121.268592 181.051604 
z
" style="fill:#1f77b4;"/>
   </g>
   <g id="patch_95">
    <path clip-path="url(#p25ac1b20c0)" d="M 121.992334 325.921635 
L 122.571327 325.921635 
L 122.571327 180.999314 
L 121.992334 180.999314 
z
" style="fill:#1f77b4;"/>
   </g>
   <g id="patch_96">
    <path clip-path="url(#p25ac1b20c0)" d="M 122.716075 325.921635 
L 123.295069 325.921635 
L 123.295069 168.266647 
L 122.716075 168.266647 
z
" style="fill:#1f77b4;"/>
   </g>
   <g id="patch_97">
    <path clip-path="url(#p25ac1b20c0)" d="M 123.439817 325.921635 
L 124.01881 325.921635 
L 124.01881 156.562355 
L 123.439817 156.562355 
z
" style="fill:#1f77b4;"/>
   </g>
   <g id="patch_98">
    <path clip-path="url(#p25ac1b20c0)" d="M 124.163559 325.921635 
L 124.742552 325.921635 
L 124.742552 147.202407 
L 124.163559 147.202407 
z
" style="fill:#1f77b4;"/>
   </g>
   <g id="patch_99">
    <path clip-path="url(#p25ac1b20c0)" d="M 124.887301 325.921635 
L 125.466294 325.921635 
L 125.466294 139.454741 
L 124.887301 139.454741 
z
" style="fill:#1f77b4;"/>
   </g>
   <g id="patch_100">
    <path clip-path="url(#p25ac1b20c0)" d="M 125.611042 325.921635 
L 126.190036 325.921635 
L 126.190036 134.548176 
L 125.611042 134.548176 
z
" style="fill:#1f77b4;"/>
   </g>
   <g id="patch_101">
    <path clip-path="url(#p25ac1b20c0)" d="M 126.334784 325.921635 
L 126.913777 325.921635 
L 126.913777 126.600064 
L 126.334784 126.600064 
z
" style="fill:#1f77b4;"/>
   </g>
   <g id="patch_102">
    <path clip-path="url(#p25ac1b20c0)" d="M 127.058526 325.921635 
L 127.637519 325.921635 
L 127.637519 119.51474 
L 127.058526 119.51474 
z
" style="fill:#1f77b4;"/>
   </g>
   <g id="patch_103">
    <path clip-path="url(#p25ac1b20c0)" d="M 127.782267 325.921635 
L 128.361261 325.921635 
L 128.361261 104.73404 
L 127.782267 104.73404 
z
" style="fill:#1f77b4;"/>
   </g>
   <g id="patch_104">
    <path clip-path="url(#p25ac1b20c0)" d="M 128.506009 325.921635 
L 129.085003 325.921635 
L 129.085003 89.395578 
L 128.506009 89.395578 
z
" style="fill:#1f77b4;"/>
   </g>
   <g id="patch_105">
    <path clip-path="url(#p25ac1b20c0)" d="M 129.229751 325.921635 
L 129.808744 325.921635 
L 129.808744 77.360114 
L 129.229751 77.360114 
z
" style="fill:#1f77b4;"/>
   </g>
   <g id="patch_106">
    <path clip-path="url(#p25ac1b20c0)" d="M 129.953493 325.921635 
L 130.532486 325.921635 
L 130.532486 56.609615 
L 129.953493 56.609615 
z
" style="fill:#1f77b4;"/>
   </g>
   <g id="patch_107">
    <path clip-path="url(#p25ac1b20c0)" d="M 130.677234 325.921635 
L 131.256228 325.921635 
L 131.256228 44.966328 
L 130.677234 44.966328 
z
" style="fill:#1f77b4;"/>
   </g>
   <g id="patch_108">
    <path clip-path="url(#p25ac1b20c0)" d="M 131.400976 325.921635 
L 131.97997 325.921635 
L 131.97997 36.347158 
L 131.400976 36.347158 
z
" style="fill:#1f77b4;"/>
   </g>
   <g id="matplotlib.axis_1">
    <g id="xtick_1">
     <g id="line2d_1">
      <defs>
       <path d="M 0 0 
L 0 3.5 
" id="m737b16520f" style="stroke:#000000;stroke-width:0.8;"/>
      </defs>
      <g>
       <use style="stroke:#000000;stroke-width:0.8;" x="55.69759" xlink:href="#m737b16520f" y="325.921635"/>
      </g>
     </g>
     <g id="text_1">
      <!-- 0 -->
      <defs>
       <path d="M 31.78125 66.40625 
Q 24.171875 66.40625 20.328125 58.90625 
Q 16.5 51.421875 16.5 36.375 
Q 16.5 21.390625 20.328125 13.890625 
Q 24.171875 6.390625 31.78125 6.390625 
Q 39.453125 6.390625 43.28125 13.890625 
Q 47.125 21.390625 47.125 36.375 
Q 47.125 51.421875 43.28125 58.90625 
Q 39.453125 66.40625 31.78125 66.40625 
z
M 31.78125 74.21875 
Q 44.046875 74.21875 50.515625 64.515625 
Q 56.984375 54.828125 56.984375 36.375 
Q 56.984375 17.96875 50.515625 8.265625 
Q 44.046875 -1.421875 31.78125 -1.421875 
Q 19.53125 -1.421875 13.0625 8.265625 
Q 6.59375 17.96875 6.59375 36.375 
Q 6.59375 54.828125 13.0625 64.515625 
Q 19.53125 74.21875 31.78125 74.21875 
z
" id="DejaVuSans-48"/>
      </defs>
      <g transform="translate(52.51634 340.520072)scale(0.1 -0.1)">
       <use xlink:href="#DejaVuSans-48"/>
      </g>
     </g>
    </g>
    <g id="xtick_2">
     <g id="line2d_2">
      <g>
       <use style="stroke:#000000;stroke-width:0.8;" x="128.071764" xlink:href="#m737b16520f" y="325.921635"/>
      </g>
     </g>
     <g id="text_2">
      <!-- 100 -->
      <defs>
       <path d="M 12.40625 8.296875 
L 28.515625 8.296875 
L 28.515625 63.921875 
L 10.984375 60.40625 
L 10.984375 69.390625 
L 28.421875 72.90625 
L 38.28125 72.90625 
L 38.28125 8.296875 
L 54.390625 8.296875 
L 54.390625 0 
L 12.40625 0 
z
" id="DejaVuSans-49"/>
      </defs>
      <g transform="translate(118.528014 340.520072)scale(0.1 -0.1)">
       <use xlink:href="#DejaVuSans-49"/>
       <use x="63.623047" xlink:href="#DejaVuSans-48"/>
       <use x="127.246094" xlink:href="#DejaVuSans-48"/>
      </g>
     </g>
    </g>
   </g>
   <g id="matplotlib.axis_2">
    <g id="ytick_1">
     <g id="line2d_3">
      <defs>
       <path d="M 0 0 
L -3.5 0 
" id="m8ddb2bf9aa" style="stroke:#000000;stroke-width:0.8;"/>
      </defs>
      <g>
       <use style="stroke:#000000;stroke-width:0.8;" x="51.5795" xlink:href="#m8ddb2bf9aa" y="325.921635"/>
      </g>
     </g>
     <g id="text_3">
      <!-- 0 -->
      <g transform="translate(38.217 329.720854)scale(0.1 -0.1)">
       <use xlink:href="#DejaVuSans-48"/>
      </g>
     </g>
    </g>
    <g id="ytick_2">
     <g id="line2d_4">
      <g>
       <use style="stroke:#000000;stroke-width:0.8;" x="51.5795" xlink:href="#m8ddb2bf9aa" y="282.346459"/>
      </g>
     </g>
     <g id="text_4">
      <!-- 5000 -->
      <defs>
       <path d="M 10.796875 72.90625 
L 49.515625 72.90625 
L 49.515625 64.59375 
L 19.828125 64.59375 
L 19.828125 46.734375 
Q 21.96875 47.46875 24.109375 47.828125 
Q 26.265625 48.1875 28.421875 48.1875 
Q 40.625 48.1875 47.75 41.5 
Q 54.890625 34.8125 54.890625 23.390625 
Q 54.890625 11.625 47.5625 5.09375 
Q 40.234375 -1.421875 26.90625 -1.421875 
Q 22.3125 -1.421875 17.546875 -0.640625 
Q 12.796875 0.140625 7.71875 1.703125 
L 7.71875 11.625 
Q 12.109375 9.234375 16.796875 8.0625 
Q 21.484375 6.890625 26.703125 6.890625 
Q 35.15625 6.890625 40.078125 11.328125 
Q 45.015625 15.765625 45.015625 23.390625 
Q 45.015625 31 40.078125 35.4375 
Q 35.15625 39.890625 26.703125 39.890625 
Q 22.75 39.890625 18.8125 39.015625 
Q 14.890625 38.140625 10.796875 36.28125 
z
" id="DejaVuSans-53"/>
      </defs>
      <g transform="translate(19.1295 286.145677)scale(0.1 -0.1)">
       <use xlink:href="#DejaVuSans-53"/>
       <use x="63.623047" xlink:href="#DejaVuSans-48"/>
       <use x="127.246094" xlink:href="#DejaVuSans-48"/>
       <use x="190.869141" xlink:href="#DejaVuSans-48"/>
      </g>
     </g>
    </g>
    <g id="ytick_3">
     <g id="line2d_5">
      <g>
       <use style="stroke:#000000;stroke-width:0.8;" x="51.5795" xlink:href="#m8ddb2bf9aa" y="238.771282"/>
      </g>
     </g>
     <g id="text_5">
      <!-- 10000 -->
      <g transform="translate(12.767 242.570501)scale(0.1 -0.1)">
       <use xlink:href="#DejaVuSans-49"/>
       <use x="63.623047" xlink:href="#DejaVuSans-48"/>
       <use x="127.246094" xlink:href="#DejaVuSans-48"/>
       <use x="190.869141" xlink:href="#DejaVuSans-48"/>
       <use x="254.492188" xlink:href="#DejaVuSans-48"/>
      </g>
     </g>
    </g>
    <g id="ytick_4">
     <g id="line2d_6">
      <g>
       <use style="stroke:#000000;stroke-width:0.8;" x="51.5795" xlink:href="#m8ddb2bf9aa" y="195.196106"/>
      </g>
     </g>
     <g id="text_6">
      <!-- 15000 -->
      <g transform="translate(12.767 198.995325)scale(0.1 -0.1)">
       <use xlink:href="#DejaVuSans-49"/>
       <use x="63.623047" xlink:href="#DejaVuSans-53"/>
       <use x="127.246094" xlink:href="#DejaVuSans-48"/>
       <use x="190.869141" xlink:href="#DejaVuSans-48"/>
       <use x="254.492188" xlink:href="#DejaVuSans-48"/>
      </g>
     </g>
    </g>
    <g id="ytick_5">
     <g id="line2d_7">
      <g>
       <use style="stroke:#000000;stroke-width:0.8;" x="51.5795" xlink:href="#m8ddb2bf9aa" y="151.62093"/>
      </g>
     </g>
     <g id="text_7">
      <!-- 20000 -->
      <defs>
       <path d="M 19.1875 8.296875 
L 53.609375 8.296875 
L 53.609375 0 
L 7.328125 0 
L 7.328125 8.296875 
Q 12.9375 14.109375 22.625 23.890625 
Q 32.328125 33.6875 34.8125 36.53125 
Q 39.546875 41.84375 41.421875 45.53125 
Q 43.3125 49.21875 43.3125 52.78125 
Q 43.3125 58.59375 39.234375 62.25 
Q 35.15625 65.921875 28.609375 65.921875 
Q 23.96875 65.921875 18.8125 64.3125 
Q 13.671875 62.703125 7.8125 59.421875 
L 7.8125 69.390625 
Q 13.765625 71.78125 18.9375 73 
Q 24.125 74.21875 28.421875 74.21875 
Q 39.75 74.21875 46.484375 68.546875 
Q 53.21875 62.890625 53.21875 53.421875 
Q 53.21875 48.921875 51.53125 44.890625 
Q 49.859375 40.875 45.40625 35.40625 
Q 44.1875 33.984375 37.640625 27.21875 
Q 31.109375 20.453125 19.1875 8.296875 
z
" id="DejaVuSans-50"/>
      </defs>
      <g transform="translate(12.767 155.420149)scale(0.1 -0.1)">
       <use xlink:href="#DejaVuSans-50"/>
       <use x="63.623047" xlink:href="#DejaVuSans-48"/>
       <use x="127.246094" xlink:href="#DejaVuSans-48"/>
       <use x="190.869141" xlink:href="#DejaVuSans-48"/>
       <use x="254.492188" xlink:href="#DejaVuSans-48"/>
      </g>
     </g>
    </g>
    <g id="ytick_6">
     <g id="line2d_8">
      <g>
       <use style="stroke:#000000;stroke-width:0.8;" x="51.5795" xlink:href="#m8ddb2bf9aa" y="108.045753"/>
      </g>
     </g>
     <g id="text_8">
      <!-- 25000 -->
      <g transform="translate(12.767 111.844972)scale(0.1 -0.1)">
       <use xlink:href="#DejaVuSans-50"/>
       <use x="63.623047" xlink:href="#DejaVuSans-53"/>
       <use x="127.246094" xlink:href="#DejaVuSans-48"/>
       <use x="190.869141" xlink:href="#DejaVuSans-48"/>
       <use x="254.492188" xlink:href="#DejaVuSans-48"/>
      </g>
     </g>
    </g>
    <g id="ytick_7">
     <g id="line2d_9">
      <g>
       <use style="stroke:#000000;stroke-width:0.8;" x="51.5795" xlink:href="#m8ddb2bf9aa" y="64.470577"/>
      </g>
     </g>
     <g id="text_9">
      <!-- 30000 -->
      <defs>
       <path d="M 40.578125 39.3125 
Q 47.65625 37.796875 51.625 33 
Q 55.609375 28.21875 55.609375 21.1875 
Q 55.609375 10.40625 48.1875 4.484375 
Q 40.765625 -1.421875 27.09375 -1.421875 
Q 22.515625 -1.421875 17.65625 -0.515625 
Q 12.796875 0.390625 7.625 2.203125 
L 7.625 11.71875 
Q 11.71875 9.328125 16.59375 8.109375 
Q 21.484375 6.890625 26.8125 6.890625 
Q 36.078125 6.890625 40.9375 10.546875 
Q 45.796875 14.203125 45.796875 21.1875 
Q 45.796875 27.640625 41.28125 31.265625 
Q 36.765625 34.90625 28.71875 34.90625 
L 20.21875 34.90625 
L 20.21875 43.015625 
L 29.109375 43.015625 
Q 36.375 43.015625 40.234375 45.921875 
Q 44.09375 48.828125 44.09375 54.296875 
Q 44.09375 59.90625 40.109375 62.90625 
Q 36.140625 65.921875 28.71875 65.921875 
Q 24.65625 65.921875 20.015625 65.03125 
Q 15.375 64.15625 9.8125 62.3125 
L 9.8125 71.09375 
Q 15.4375 72.65625 20.34375 73.4375 
Q 25.25 74.21875 29.59375 74.21875 
Q 40.828125 74.21875 47.359375 69.109375 
Q 53.90625 64.015625 53.90625 55.328125 
Q 53.90625 49.265625 50.4375 45.09375 
Q 46.96875 40.921875 40.578125 39.3125 
z
" id="DejaVuSans-51"/>
      </defs>
      <g transform="translate(12.767 68.269796)scale(0.1 -0.1)">
       <use xlink:href="#DejaVuSans-51"/>
       <use x="63.623047" xlink:href="#DejaVuSans-48"/>
       <use x="127.246094" xlink:href="#DejaVuSans-48"/>
       <use x="190.869141" xlink:href="#DejaVuSans-48"/>
       <use x="254.492188" xlink:href="#DejaVuSans-48"/>
      </g>
     </g>
    </g>
    <g id="ytick_8">
     <g id="line2d_10">
      <g>
       <use style="stroke:#000000;stroke-width:0.8;" x="51.5795" xlink:href="#m8ddb2bf9aa" y="20.895401"/>
      </g>
     </g>
     <g id="text_10">
      <!-- 35000 -->
      <g transform="translate(12.767 24.69462)scale(0.1 -0.1)">
       <use xlink:href="#DejaVuSans-51"/>
       <use x="63.623047" xlink:href="#DejaVuSans-53"/>
       <use x="127.246094" xlink:href="#DejaVuSans-48"/>
       <use x="190.869141" xlink:href="#DejaVuSans-48"/>
       <use x="254.492188" xlink:href="#DejaVuSans-48"/>
      </g>
     </g>
    </g>
   </g>
   <g id="line2d_11">
    <path clip-path="url(#p25ac1b20c0)" d="M 55.69759 325.905588 
L 56.421332 325.89855 
L 57.145074 325.887417 
L 57.868816 325.870764 
L 58.592557 325.846746 
L 59.316299 325.81328 
L 60.040041 325.768129 
L 60.763783 325.709425 
L 61.487524 325.635687 
L 62.211266 325.545919 
L 62.935008 325.439655 
L 63.65875 325.317078 
L 64.382491 325.178872 
L 65.106233 325.026393 
L 65.829975 324.861014 
L 66.553717 324.68414 
L 67.277458 324.497237 
L 68.0012 324.301873 
L 68.724942 324.099481 
L 69.448683 323.891689 
L 70.172425 323.679827 
L 70.896167 323.465298 
L 71.619909 323.24976 
L 72.34365 323.034813 
L 73.067392 322.821699 
L 73.791134 322.611453 
L 74.514876 322.404521 
L 75.238617 322.201095 
L 75.962359 322.000987 
L 76.686101 321.803173 
L 77.409843 321.606121 
L 78.133584 321.408143 
L 78.857326 321.207331 
L 79.581068 321.001731 
L 80.30481 320.789459 
L 81.028551 320.568788 
L 81.752293 320.338415 
L 82.476035 320.097549 
L 83.199776 319.845738 
L 83.923518 319.582683 
L 84.64726 319.308437 
L 85.371002 319.02283 
L 86.094743 318.725081 
L 86.818485 318.413598 
L 87.542227 318.085483 
L 88.265969 317.736616 
L 88.98971 317.362371 
L 89.713452 316.957163 
L 90.437194 316.514413 
L 91.160936 316.027239 
L 91.884677 315.489045 
L 92.608419 314.894005 
L 93.332161 314.237248 
L 94.055903 313.513497 
L 94.779644 312.717053 
L 95.503386 311.844454 
L 96.227128 310.893669 
L 96.950869 309.862881 
L 97.674611 308.749919 
L 98.398353 307.551223 
L 99.122095 306.263688 
L 99.845836 304.885391 
L 100.569578 303.410906 
L 101.29332 301.832711 
L 102.017062 300.143664 
L 102.740803 298.337608 
L 103.464545 296.411197 
L 104.188287 294.362489 
L 104.912029 292.189831 
L 105.63577 289.895378 
L 106.359512 287.48364 
L 107.083254 284.957053 
L 107.806996 282.316756 
L 108.530737 279.559753 
L 109.254479 276.677831 
L 109.978221 273.658861 
L 110.701962 270.485016 
L 111.425704 267.130116 
L 112.149446 263.562621 
L 112.873188 259.74177 
L 113.596929 255.625072 
L 114.320671 251.170425 
L 115.044413 246.334035 
L 115.768155 241.0726 
L 116.491896 235.354107 
L 117.215638 229.166363 
L 117.93938 222.523037 
L 118.663122 215.448229 
L 119.386863 207.978489 
L 120.110605 200.166177 
L 120.834347 192.076817 
L 121.558089 183.770031 
L 122.28183 175.276922 
L 123.005572 166.59593 
L 123.729314 157.7054 
L 124.453055 148.561353 
L 125.176797 139.099297 
L 125.900539 129.232919 
L 126.624281 118.879087 
L 127.348022 107.984044 
L 128.071764 96.535352 
L 128.795506 84.545049 
L 129.519248 72.052683 
L 130.242989 59.22577 
L 130.966731 46.112974 
L 131.690473 32.775664 
" style="fill:none;stroke:#ff0000;stroke-linecap:square;stroke-width:1.5;"/>
   </g>
   <g id="patch_109">
    <path d="M 51.5795 325.921635 
L 51.5795 18.118365 
" style="fill:none;stroke:#000000;stroke-linecap:square;stroke-linejoin:miter;stroke-width:0.8;"/>
   </g>
   <g id="patch_110">
    <path d="M 135.808563 325.921635 
L 135.808563 18.118365 
" style="fill:none;stroke:#000000;stroke-linecap:square;stroke-linejoin:miter;stroke-width:0.8;"/>
   </g>
   <g id="patch_111">
    <path d="M 51.5795 325.921635 
L 135.808563 325.921635 
" style="fill:none;stroke:#000000;stroke-linecap:square;stroke-linejoin:miter;stroke-width:0.8;"/>
   </g>
   <g id="patch_112">
    <path d="M 51.5795 18.118365 
L 135.808563 18.118365 
" style="fill:none;stroke:#000000;stroke-linecap:square;stroke-linejoin:miter;stroke-width:0.8;"/>
   </g>
   <g id="text_11">
    <!-- Casos acumulados - DF - (data) -->
    <defs>
     <path d="M 64.40625 67.28125 
L 64.40625 56.890625 
Q 59.421875 61.53125 53.78125 63.8125 
Q 48.140625 66.109375 41.796875 66.109375 
Q 29.296875 66.109375 22.65625 58.46875 
Q 16.015625 50.828125 16.015625 36.375 
Q 16.015625 21.96875 22.65625 14.328125 
Q 29.296875 6.6875 41.796875 6.6875 
Q 48.140625 6.6875 53.78125 8.984375 
Q 59.421875 11.28125 64.40625 15.921875 
L 64.40625 5.609375 
Q 59.234375 2.09375 53.4375 0.328125 
Q 47.65625 -1.421875 41.21875 -1.421875 
Q 24.65625 -1.421875 15.125 8.703125 
Q 5.609375 18.84375 5.609375 36.375 
Q 5.609375 53.953125 15.125 64.078125 
Q 24.65625 74.21875 41.21875 74.21875 
Q 47.75 74.21875 53.53125 72.484375 
Q 59.328125 70.75 64.40625 67.28125 
z
" id="DejaVuSans-67"/>
     <path d="M 34.28125 27.484375 
Q 23.390625 27.484375 19.1875 25 
Q 14.984375 22.515625 14.984375 16.5 
Q 14.984375 11.71875 18.140625 8.90625 
Q 21.296875 6.109375 26.703125 6.109375 
Q 34.1875 6.109375 38.703125 11.40625 
Q 43.21875 16.703125 43.21875 25.484375 
L 43.21875 27.484375 
z
M 52.203125 31.203125 
L 52.203125 0 
L 43.21875 0 
L 43.21875 8.296875 
Q 40.140625 3.328125 35.546875 0.953125 
Q 30.953125 -1.421875 24.3125 -1.421875 
Q 15.921875 -1.421875 10.953125 3.296875 
Q 6 8.015625 6 15.921875 
Q 6 25.140625 12.171875 29.828125 
Q 18.359375 34.515625 30.609375 34.515625 
L 43.21875 34.515625 
L 43.21875 35.40625 
Q 43.21875 41.609375 39.140625 45 
Q 35.0625 48.390625 27.6875 48.390625 
Q 23 48.390625 18.546875 47.265625 
Q 14.109375 46.140625 10.015625 43.890625 
L 10.015625 52.203125 
Q 14.9375 54.109375 19.578125 55.046875 
Q 24.21875 56 28.609375 56 
Q 40.484375 56 46.34375 49.84375 
Q 52.203125 43.703125 52.203125 31.203125 
z
" id="DejaVuSans-97"/>
     <path d="M 44.28125 53.078125 
L 44.28125 44.578125 
Q 40.484375 46.53125 36.375 47.5 
Q 32.28125 48.484375 27.875 48.484375 
Q 21.1875 48.484375 17.84375 46.4375 
Q 14.5 44.390625 14.5 40.28125 
Q 14.5 37.15625 16.890625 35.375 
Q 19.28125 33.59375 26.515625 31.984375 
L 29.59375 31.296875 
Q 39.15625 29.25 43.1875 25.515625 
Q 47.21875 21.78125 47.21875 15.09375 
Q 47.21875 7.46875 41.1875 3.015625 
Q 35.15625 -1.421875 24.609375 -1.421875 
Q 20.21875 -1.421875 15.453125 -0.5625 
Q 10.6875 0.296875 5.421875 2 
L 5.421875 11.28125 
Q 10.40625 8.6875 15.234375 7.390625 
Q 20.0625 6.109375 24.8125 6.109375 
Q 31.15625 6.109375 34.5625 8.28125 
Q 37.984375 10.453125 37.984375 14.40625 
Q 37.984375 18.0625 35.515625 20.015625 
Q 33.0625 21.96875 24.703125 23.78125 
L 21.578125 24.515625 
Q 13.234375 26.265625 9.515625 29.90625 
Q 5.8125 33.546875 5.8125 39.890625 
Q 5.8125 47.609375 11.28125 51.796875 
Q 16.75 56 26.8125 56 
Q 31.78125 56 36.171875 55.265625 
Q 40.578125 54.546875 44.28125 53.078125 
z
" id="DejaVuSans-115"/>
     <path d="M 30.609375 48.390625 
Q 23.390625 48.390625 19.1875 42.75 
Q 14.984375 37.109375 14.984375 27.296875 
Q 14.984375 17.484375 19.15625 11.84375 
Q 23.34375 6.203125 30.609375 6.203125 
Q 37.796875 6.203125 41.984375 11.859375 
Q 46.1875 17.53125 46.1875 27.296875 
Q 46.1875 37.015625 41.984375 42.703125 
Q 37.796875 48.390625 30.609375 48.390625 
z
M 30.609375 56 
Q 42.328125 56 49.015625 48.375 
Q 55.71875 40.765625 55.71875 27.296875 
Q 55.71875 13.875 49.015625 6.21875 
Q 42.328125 -1.421875 30.609375 -1.421875 
Q 18.84375 -1.421875 12.171875 6.21875 
Q 5.515625 13.875 5.515625 27.296875 
Q 5.515625 40.765625 12.171875 48.375 
Q 18.84375 56 30.609375 56 
z
" id="DejaVuSans-111"/>
     <path id="DejaVuSans-32"/>
     <path d="M 48.78125 52.59375 
L 48.78125 44.1875 
Q 44.96875 46.296875 41.140625 47.34375 
Q 37.3125 48.390625 33.40625 48.390625 
Q 24.65625 48.390625 19.8125 42.84375 
Q 14.984375 37.3125 14.984375 27.296875 
Q 14.984375 17.28125 19.8125 11.734375 
Q 24.65625 6.203125 33.40625 6.203125 
Q 37.3125 6.203125 41.140625 7.25 
Q 44.96875 8.296875 48.78125 10.40625 
L 48.78125 2.09375 
Q 45.015625 0.34375 40.984375 -0.53125 
Q 36.96875 -1.421875 32.421875 -1.421875 
Q 20.0625 -1.421875 12.78125 6.34375 
Q 5.515625 14.109375 5.515625 27.296875 
Q 5.515625 40.671875 12.859375 48.328125 
Q 20.21875 56 33.015625 56 
Q 37.15625 56 41.109375 55.140625 
Q 45.0625 54.296875 48.78125 52.59375 
z
" id="DejaVuSans-99"/>
     <path d="M 8.5 21.578125 
L 8.5 54.6875 
L 17.484375 54.6875 
L 17.484375 21.921875 
Q 17.484375 14.15625 20.5 10.265625 
Q 23.53125 6.390625 29.59375 6.390625 
Q 36.859375 6.390625 41.078125 11.03125 
Q 45.3125 15.671875 45.3125 23.6875 
L 45.3125 54.6875 
L 54.296875 54.6875 
L 54.296875 0 
L 45.3125 0 
L 45.3125 8.40625 
Q 42.046875 3.421875 37.71875 1 
Q 33.40625 -1.421875 27.6875 -1.421875 
Q 18.265625 -1.421875 13.375 4.4375 
Q 8.5 10.296875 8.5 21.578125 
z
M 31.109375 56 
z
" id="DejaVuSans-117"/>
     <path d="M 52 44.1875 
Q 55.375 50.25 60.0625 53.125 
Q 64.75 56 71.09375 56 
Q 79.640625 56 84.28125 50.015625 
Q 88.921875 44.046875 88.921875 33.015625 
L 88.921875 0 
L 79.890625 0 
L 79.890625 32.71875 
Q 79.890625 40.578125 77.09375 44.375 
Q 74.3125 48.1875 68.609375 48.1875 
Q 61.625 48.1875 57.5625 43.546875 
Q 53.515625 38.921875 53.515625 30.90625 
L 53.515625 0 
L 44.484375 0 
L 44.484375 32.71875 
Q 44.484375 40.625 41.703125 44.40625 
Q 38.921875 48.1875 33.109375 48.1875 
Q 26.21875 48.1875 22.15625 43.53125 
Q 18.109375 38.875 18.109375 30.90625 
L 18.109375 0 
L 9.078125 0 
L 9.078125 54.6875 
L 18.109375 54.6875 
L 18.109375 46.1875 
Q 21.1875 51.21875 25.484375 53.609375 
Q 29.78125 56 35.6875 56 
Q 41.65625 56 45.828125 52.96875 
Q 50 49.953125 52 44.1875 
z
" id="DejaVuSans-109"/>
     <path d="M 9.421875 75.984375 
L 18.40625 75.984375 
L 18.40625 0 
L 9.421875 0 
z
" id="DejaVuSans-108"/>
     <path d="M 45.40625 46.390625 
L 45.40625 75.984375 
L 54.390625 75.984375 
L 54.390625 0 
L 45.40625 0 
L 45.40625 8.203125 
Q 42.578125 3.328125 38.25 0.953125 
Q 33.9375 -1.421875 27.875 -1.421875 
Q 17.96875 -1.421875 11.734375 6.484375 
Q 5.515625 14.40625 5.515625 27.296875 
Q 5.515625 40.1875 11.734375 48.09375 
Q 17.96875 56 27.875 56 
Q 33.9375 56 38.25 53.625 
Q 42.578125 51.265625 45.40625 46.390625 
z
M 14.796875 27.296875 
Q 14.796875 17.390625 18.875 11.75 
Q 22.953125 6.109375 30.078125 6.109375 
Q 37.203125 6.109375 41.296875 11.75 
Q 45.40625 17.390625 45.40625 27.296875 
Q 45.40625 37.203125 41.296875 42.84375 
Q 37.203125 48.484375 30.078125 48.484375 
Q 22.953125 48.484375 18.875 42.84375 
Q 14.796875 37.203125 14.796875 27.296875 
z
" id="DejaVuSans-100"/>
     <path d="M 4.890625 31.390625 
L 31.203125 31.390625 
L 31.203125 23.390625 
L 4.890625 23.390625 
z
" id="DejaVuSans-45"/>
     <path d="M 19.671875 64.796875 
L 19.671875 8.109375 
L 31.59375 8.109375 
Q 46.6875 8.109375 53.6875 14.9375 
Q 60.6875 21.78125 60.6875 36.53125 
Q 60.6875 51.171875 53.6875 57.984375 
Q 46.6875 64.796875 31.59375 64.796875 
z
M 9.8125 72.90625 
L 30.078125 72.90625 
Q 51.265625 72.90625 61.171875 64.09375 
Q 71.09375 55.28125 71.09375 36.53125 
Q 71.09375 17.671875 61.125 8.828125 
Q 51.171875 0 30.078125 0 
L 9.8125 0 
z
" id="DejaVuSans-68"/>
     <path d="M 9.8125 72.90625 
L 51.703125 72.90625 
L 51.703125 64.59375 
L 19.671875 64.59375 
L 19.671875 43.109375 
L 48.578125 43.109375 
L 48.578125 34.8125 
L 19.671875 34.8125 
L 19.671875 0 
L 9.8125 0 
z
" id="DejaVuSans-70"/>
     <path d="M 31 75.875 
Q 24.46875 64.65625 21.28125 53.65625 
Q 18.109375 42.671875 18.109375 31.390625 
Q 18.109375 20.125 21.3125 9.0625 
Q 24.515625 -2 31 -13.1875 
L 23.1875 -13.1875 
Q 15.875 -1.703125 12.234375 9.375 
Q 8.59375 20.453125 8.59375 31.390625 
Q 8.59375 42.28125 12.203125 53.3125 
Q 15.828125 64.359375 23.1875 75.875 
z
" id="DejaVuSans-40"/>
     <path d="M 18.3125 70.21875 
L 18.3125 54.6875 
L 36.8125 54.6875 
L 36.8125 47.703125 
L 18.3125 47.703125 
L 18.3125 18.015625 
Q 18.3125 11.328125 20.140625 9.421875 
Q 21.96875 7.515625 27.59375 7.515625 
L 36.8125 7.515625 
L 36.8125 0 
L 27.59375 0 
Q 17.1875 0 13.234375 3.875 
Q 9.28125 7.765625 9.28125 18.015625 
L 9.28125 47.703125 
L 2.6875 47.703125 
L 2.6875 54.6875 
L 9.28125 54.6875 
L 9.28125 70.21875 
z
" id="DejaVuSans-116"/>
     <path d="M 8.015625 75.875 
L 15.828125 75.875 
Q 23.140625 64.359375 26.78125 53.3125 
Q 30.421875 42.28125 30.421875 31.390625 
Q 30.421875 20.453125 26.78125 9.375 
Q 23.140625 -1.703125 15.828125 -13.1875 
L 8.015625 -13.1875 
Q 14.5 -2 17.703125 9.0625 
Q 20.90625 20.125 20.90625 31.390625 
Q 20.90625 42.671875 17.703125 53.65625 
Q 14.5 64.65625 8.015625 75.875 
z
" id="DejaVuSans-41"/>
    </defs>
    <g transform="translate(-0.601593 12.118365)scale(0.12 -0.12)">
     <use xlink:href="#DejaVuSans-67"/>
     <use x="69.824219" xlink:href="#DejaVuSans-97"/>
     <use x="131.103516" xlink:href="#DejaVuSans-115"/>
     <use x="183.203125" xlink:href="#DejaVuSans-111"/>
     <use x="244.384766" xlink:href="#DejaVuSans-115"/>
     <use x="296.484375" xlink:href="#DejaVuSans-32"/>
     <use x="328.271484" xlink:href="#DejaVuSans-97"/>
     <use x="389.550781" xlink:href="#DejaVuSans-99"/>
     <use x="444.53125" xlink:href="#DejaVuSans-117"/>
     <use x="507.910156" xlink:href="#DejaVuSans-109"/>
     <use x="605.322266" xlink:href="#DejaVuSans-117"/>
     <use x="668.701172" xlink:href="#DejaVuSans-108"/>
     <use x="696.484375" xlink:href="#DejaVuSans-97"/>
     <use x="757.763672" xlink:href="#DejaVuSans-100"/>
     <use x="821.240234" xlink:href="#DejaVuSans-111"/>
     <use x="882.421875" xlink:href="#DejaVuSans-115"/>
     <use x="934.521484" xlink:href="#DejaVuSans-32"/>
     <use x="966.308594" xlink:href="#DejaVuSans-45"/>
     <use x="1002.392578" xlink:href="#DejaVuSans-32"/>
     <use x="1034.179688" xlink:href="#DejaVuSans-68"/>
     <use x="1111.181641" xlink:href="#DejaVuSans-70"/>
     <use x="1168.701172" xlink:href="#DejaVuSans-32"/>
     <use x="1200.488281" xlink:href="#DejaVuSans-45"/>
     <use x="1236.572266" xlink:href="#DejaVuSans-32"/>
     <use x="1268.359375" xlink:href="#DejaVuSans-40"/>
     <use x="1307.373047" xlink:href="#DejaVuSans-100"/>
     <use x="1370.849609" xlink:href="#DejaVuSans-97"/>
     <use x="1432.128906" xlink:href="#DejaVuSans-116"/>
     <use x="1471.337891" xlink:href="#DejaVuSans-97"/>
     <use x="1532.617188" xlink:href="#DejaVuSans-41"/>
    </g>
   </g>
  </g>
  <g id="axes_2">
   <g id="patch_113">
    <path d="M 225.910303 325.921635 
L 310.139367 325.921635 
L 310.139367 18.118365 
L 225.910303 18.118365 
z
" style="fill:#ffffff;"/>
   </g>
   <g id="patch_114">
    <path clip-path="url(#p816dae51c6)" d="M 229.738897 325.921635 
L 230.31789 325.921635 
L 230.31789 325.921635 
L 229.738897 325.921635 
z
" style="fill:#1f77b4;"/>
   </g>
   <g id="patch_115">
    <path clip-path="url(#p816dae51c6)" d="M 230.462639 325.921635 
L 231.041632 325.921635 
L 231.041632 325.921635 
L 230.462639 325.921635 
z
" style="fill:#1f77b4;"/>
   </g>
   <g id="patch_116">
    <path clip-path="url(#p816dae51c6)" d="M 231.186381 325.921635 
L 231.765374 325.921635 
L 231.765374 325.921635 
L 231.186381 325.921635 
z
" style="fill:#1f77b4;"/>
   </g>
   <g id="patch_117">
    <path clip-path="url(#p816dae51c6)" d="M 231.910122 325.921635 
L 232.489116 325.921635 
L 232.489116 325.798516 
L 231.910122 325.798516 
z
" style="fill:#1f77b4;"/>
   </g>
   <g id="patch_118">
    <path clip-path="url(#p816dae51c6)" d="M 232.633864 325.921635 
L 233.212857 325.921635 
L 233.212857 325.921635 
L 232.633864 325.921635 
z
" style="fill:#1f77b4;"/>
   </g>
   <g id="patch_119">
    <path clip-path="url(#p816dae51c6)" d="M 233.357606 325.921635 
L 233.936599 325.921635 
L 233.936599 325.921635 
L 233.357606 325.921635 
z
" style="fill:#1f77b4;"/>
   </g>
   <g id="patch_120">
    <path clip-path="url(#p816dae51c6)" d="M 234.081348 325.921635 
L 234.660341 325.921635 
L 234.660341 325.42916 
L 234.081348 325.42916 
z
" style="fill:#1f77b4;"/>
   </g>
   <g id="patch_121">
    <path clip-path="url(#p816dae51c6)" d="M 234.805089 325.921635 
L 235.384083 325.921635 
L 235.384083 325.675397 
L 234.805089 325.675397 
z
" style="fill:#1f77b4;"/>
   </g>
   <g id="patch_122">
    <path clip-path="url(#p816dae51c6)" d="M 235.528831 325.921635 
L 236.107824 325.921635 
L 236.107824 325.306041 
L 235.528831 325.306041 
z
" style="fill:#1f77b4;"/>
   </g>
   <g id="patch_123">
    <path clip-path="url(#p816dae51c6)" d="M 236.252573 325.921635 
L 236.831566 325.921635 
L 236.831566 324.813565 
L 236.252573 324.813565 
z
" style="fill:#1f77b4;"/>
   </g>
   <g id="patch_124">
    <path clip-path="url(#p816dae51c6)" d="M 236.976314 325.921635 
L 237.555308 325.921635 
L 237.555308 325.42916 
L 236.976314 325.42916 
z
" style="fill:#1f77b4;"/>
   </g>
   <g id="patch_125">
    <path clip-path="url(#p816dae51c6)" d="M 237.700056 325.921635 
L 238.27905 325.921635 
L 238.27905 323.951733 
L 237.700056 323.951733 
z
" style="fill:#1f77b4;"/>
   </g>
   <g id="patch_126">
    <path clip-path="url(#p816dae51c6)" d="M 238.423798 325.921635 
L 239.002791 325.921635 
L 239.002791 320.381287 
L 238.423798 320.381287 
z
" style="fill:#1f77b4;"/>
   </g>
   <g id="patch_127">
    <path clip-path="url(#p816dae51c6)" d="M 239.14754 325.921635 
L 239.726533 325.921635 
L 239.726533 324.32109 
L 239.14754 324.32109 
z
" style="fill:#1f77b4;"/>
   </g>
   <g id="patch_128">
    <path clip-path="url(#p816dae51c6)" d="M 239.871281 325.921635 
L 240.450275 325.921635 
L 240.450275 323.828615 
L 239.871281 323.828615 
z
" style="fill:#1f77b4;"/>
   </g>
   <g id="patch_129">
    <path clip-path="url(#p816dae51c6)" d="M 240.595023 325.921635 
L 241.174017 325.921635 
L 241.174017 323.951733 
L 240.595023 323.951733 
z
" style="fill:#1f77b4;"/>
   </g>
   <g id="patch_130">
    <path clip-path="url(#p816dae51c6)" d="M 241.318765 325.921635 
L 241.897758 325.921635 
L 241.897758 322.597426 
L 241.318765 322.597426 
z
" style="fill:#1f77b4;"/>
   </g>
   <g id="patch_131">
    <path clip-path="url(#p816dae51c6)" d="M 242.042507 325.921635 
L 242.6215 325.921635 
L 242.6215 325.921635 
L 242.042507 325.921635 
z
" style="fill:#1f77b4;"/>
   </g>
   <g id="patch_132">
    <path clip-path="url(#p816dae51c6)" d="M 242.766248 325.921635 
L 243.345242 325.921635 
L 243.345242 320.996881 
L 242.766248 320.996881 
z
" style="fill:#1f77b4;"/>
   </g>
   <g id="patch_133">
    <path clip-path="url(#p816dae51c6)" d="M 243.48999 325.921635 
L 244.068984 325.921635 
L 244.068984 322.22807 
L 243.48999 322.22807 
z
" style="fill:#1f77b4;"/>
   </g>
   <g id="patch_134">
    <path clip-path="url(#p816dae51c6)" d="M 244.213732 325.921635 
L 244.792725 325.921635 
L 244.792725 322.22807 
L 244.213732 322.22807 
z
" style="fill:#1f77b4;"/>
   </g>
   <g id="patch_135">
    <path clip-path="url(#p816dae51c6)" d="M 244.937474 325.921635 
L 245.516467 325.921635 
L 245.516467 322.351188 
L 244.937474 322.351188 
z
" style="fill:#1f77b4;"/>
   </g>
   <g id="patch_136">
    <path clip-path="url(#p816dae51c6)" d="M 245.661215 325.921635 
L 246.240209 325.921635 
L 246.240209 323.089902 
L 245.661215 323.089902 
z
" style="fill:#1f77b4;"/>
   </g>
   <g id="patch_137">
    <path clip-path="url(#p816dae51c6)" d="M 246.384957 325.921635 
L 246.96395 325.921635 
L 246.96395 323.459258 
L 246.384957 323.459258 
z
" style="fill:#1f77b4;"/>
   </g>
   <g id="patch_138">
    <path clip-path="url(#p816dae51c6)" d="M 247.108699 325.921635 
L 247.687692 325.921635 
L 247.687692 323.089902 
L 247.108699 323.089902 
z
" style="fill:#1f77b4;"/>
   </g>
   <g id="patch_139">
    <path clip-path="url(#p816dae51c6)" d="M 247.832441 325.921635 
L 248.411434 325.921635 
L 248.411434 324.074852 
L 247.832441 324.074852 
z
" style="fill:#1f77b4;"/>
   </g>
   <g id="patch_140">
    <path clip-path="url(#p816dae51c6)" d="M 248.556182 325.921635 
L 249.135176 325.921635 
L 249.135176 321.981832 
L 248.556182 321.981832 
z
" style="fill:#1f77b4;"/>
   </g>
   <g id="patch_141">
    <path clip-path="url(#p816dae51c6)" d="M 249.279924 325.921635 
L 249.858917 325.921635 
L 249.858917 319.519455 
L 249.279924 319.519455 
z
" style="fill:#1f77b4;"/>
   </g>
   <g id="patch_142">
    <path clip-path="url(#p816dae51c6)" d="M 250.003666 325.921635 
L 250.582659 325.921635 
L 250.582659 324.197971 
L 250.003666 324.197971 
z
" style="fill:#1f77b4;"/>
   </g>
   <g id="patch_143">
    <path clip-path="url(#p816dae51c6)" d="M 250.727407 325.921635 
L 251.306401 325.921635 
L 251.306401 325.306041 
L 250.727407 325.306041 
z
" style="fill:#1f77b4;"/>
   </g>
   <g id="patch_144">
    <path clip-path="url(#p816dae51c6)" d="M 251.451149 325.921635 
L 252.030143 325.921635 
L 252.030143 323.582377 
L 251.451149 323.582377 
z
" style="fill:#1f77b4;"/>
   </g>
   <g id="patch_145">
    <path clip-path="url(#p816dae51c6)" d="M 252.174891 325.921635 
L 252.753884 325.921635 
L 252.753884 323.828615 
L 252.174891 323.828615 
z
" style="fill:#1f77b4;"/>
   </g>
   <g id="patch_146">
    <path clip-path="url(#p816dae51c6)" d="M 252.898633 325.921635 
L 253.477626 325.921635 
L 253.477626 323.705496 
L 252.898633 323.705496 
z
" style="fill:#1f77b4;"/>
   </g>
   <g id="patch_147">
    <path clip-path="url(#p816dae51c6)" d="M 253.622374 325.921635 
L 254.201368 325.921635 
L 254.201368 322.474307 
L 253.622374 322.474307 
z
" style="fill:#1f77b4;"/>
   </g>
   <g id="patch_148">
    <path clip-path="url(#p816dae51c6)" d="M 254.346116 325.921635 
L 254.92511 325.921635 
L 254.92511 322.966783 
L 254.346116 322.966783 
z
" style="fill:#1f77b4;"/>
   </g>
   <g id="patch_149">
    <path clip-path="url(#p816dae51c6)" d="M 255.069858 325.921635 
L 255.648851 325.921635 
L 255.648851 321.612475 
L 255.069858 321.612475 
z
" style="fill:#1f77b4;"/>
   </g>
   <g id="patch_150">
    <path clip-path="url(#p816dae51c6)" d="M 255.7936 325.921635 
L 256.372593 325.921635 
L 256.372593 322.966783 
L 255.7936 322.966783 
z
" style="fill:#1f77b4;"/>
   </g>
   <g id="patch_151">
    <path clip-path="url(#p816dae51c6)" d="M 256.517341 325.921635 
L 257.096335 325.921635 
L 257.096335 324.32109 
L 256.517341 324.32109 
z
" style="fill:#1f77b4;"/>
   </g>
   <g id="patch_152">
    <path clip-path="url(#p816dae51c6)" d="M 257.241083 325.921635 
L 257.820077 325.921635 
L 257.820077 322.104951 
L 257.241083 322.104951 
z
" style="fill:#1f77b4;"/>
   </g>
   <g id="patch_153">
    <path clip-path="url(#p816dae51c6)" d="M 257.964825 325.921635 
L 258.543818 325.921635 
L 258.543818 321.735594 
L 257.964825 321.735594 
z
" style="fill:#1f77b4;"/>
   </g>
   <g id="patch_154">
    <path clip-path="url(#p816dae51c6)" d="M 258.688567 325.921635 
L 259.26756 325.921635 
L 259.26756 322.22807 
L 258.688567 322.22807 
z
" style="fill:#1f77b4;"/>
   </g>
   <g id="patch_155">
    <path clip-path="url(#p816dae51c6)" d="M 259.412308 325.921635 
L 259.991302 325.921635 
L 259.991302 323.951733 
L 259.412308 323.951733 
z
" style="fill:#1f77b4;"/>
   </g>
   <g id="patch_156">
    <path clip-path="url(#p816dae51c6)" d="M 260.13605 325.921635 
L 260.715043 325.921635 
L 260.715043 317.91891 
L 260.13605 317.91891 
z
" style="fill:#1f77b4;"/>
   </g>
   <g id="patch_157">
    <path clip-path="url(#p816dae51c6)" d="M 260.859792 325.921635 
L 261.438785 325.921635 
L 261.438785 320.381287 
L 260.859792 320.381287 
z
" style="fill:#1f77b4;"/>
   </g>
   <g id="patch_158">
    <path clip-path="url(#p816dae51c6)" d="M 261.583534 325.921635 
L 262.162527 325.921635 
L 262.162527 324.813565 
L 261.583534 324.813565 
z
" style="fill:#1f77b4;"/>
   </g>
   <g id="patch_159">
    <path clip-path="url(#p816dae51c6)" d="M 262.307275 325.921635 
L 262.886269 325.921635 
L 262.886269 317.91891 
L 262.307275 317.91891 
z
" style="fill:#1f77b4;"/>
   </g>
   <g id="patch_160">
    <path clip-path="url(#p816dae51c6)" d="M 263.031017 325.921635 
L 263.61001 325.921635 
L 263.61001 323.828615 
L 263.031017 323.828615 
z
" style="fill:#1f77b4;"/>
   </g>
   <g id="patch_161">
    <path clip-path="url(#p816dae51c6)" d="M 263.754759 325.921635 
L 264.333752 325.921635 
L 264.333752 322.720545 
L 263.754759 322.720545 
z
" style="fill:#1f77b4;"/>
   </g>
   <g id="patch_162">
    <path clip-path="url(#p816dae51c6)" d="M 264.4785 325.921635 
L 265.057494 325.921635 
L 265.057494 322.966783 
L 264.4785 322.966783 
z
" style="fill:#1f77b4;"/>
   </g>
   <g id="patch_163">
    <path clip-path="url(#p816dae51c6)" d="M 265.202242 325.921635 
L 265.781236 325.921635 
L 265.781236 319.396336 
L 265.202242 319.396336 
z
" style="fill:#1f77b4;"/>
   </g>
   <g id="patch_164">
    <path clip-path="url(#p816dae51c6)" d="M 265.925984 325.921635 
L 266.504977 325.921635 
L 266.504977 316.072127 
L 265.925984 316.072127 
z
" style="fill:#1f77b4;"/>
   </g>
   <g id="patch_165">
    <path clip-path="url(#p816dae51c6)" d="M 266.649726 325.921635 
L 267.228719 325.921635 
L 267.228719 317.672672 
L 266.649726 317.672672 
z
" style="fill:#1f77b4;"/>
   </g>
   <g id="patch_166">
    <path clip-path="url(#p816dae51c6)" d="M 267.373467 325.921635 
L 267.952461 325.921635 
L 267.952461 318.288267 
L 267.373467 318.288267 
z
" style="fill:#1f77b4;"/>
   </g>
   <g id="patch_167">
    <path clip-path="url(#p816dae51c6)" d="M 268.097209 325.921635 
L 268.676203 325.921635 
L 268.676203 315.949009 
L 268.097209 315.949009 
z
" style="fill:#1f77b4;"/>
   </g>
   <g id="patch_168">
    <path clip-path="url(#p816dae51c6)" d="M 268.820951 325.921635 
L 269.399944 325.921635 
L 269.399944 312.378562 
L 268.820951 312.378562 
z
" style="fill:#1f77b4;"/>
   </g>
   <g id="patch_169">
    <path clip-path="url(#p816dae51c6)" d="M 269.544693 325.921635 
L 270.123686 325.921635 
L 270.123686 313.60975 
L 269.544693 313.60975 
z
" style="fill:#1f77b4;"/>
   </g>
   <g id="patch_170">
    <path clip-path="url(#p816dae51c6)" d="M 270.268434 325.921635 
L 270.847428 325.921635 
L 270.847428 315.702771 
L 270.268434 315.702771 
z
" style="fill:#1f77b4;"/>
   </g>
   <g id="patch_171">
    <path clip-path="url(#p816dae51c6)" d="M 270.992176 325.921635 
L 271.57117 325.921635 
L 271.57117 311.270492 
L 270.992176 311.270492 
z
" style="fill:#1f77b4;"/>
   </g>
   <g id="patch_172">
    <path clip-path="url(#p816dae51c6)" d="M 271.715918 325.921635 
L 272.294911 325.921635 
L 272.294911 319.765693 
L 271.715918 319.765693 
z
" style="fill:#1f77b4;"/>
   </g>
   <g id="patch_173">
    <path clip-path="url(#p816dae51c6)" d="M 272.43966 325.921635 
L 273.018653 325.921635 
L 273.018653 315.087177 
L 272.43966 315.087177 
z
" style="fill:#1f77b4;"/>
   </g>
   <g id="patch_174">
    <path clip-path="url(#p816dae51c6)" d="M 273.163401 325.921635 
L 273.742395 325.921635 
L 273.742395 282.583801 
L 273.163401 282.583801 
z
" style="fill:#1f77b4;"/>
   </g>
   <g id="patch_175">
    <path clip-path="url(#p816dae51c6)" d="M 273.887143 325.921635 
L 274.466136 325.921635 
L 274.466136 303.267767 
L 273.887143 303.267767 
z
" style="fill:#1f77b4;"/>
   </g>
   <g id="patch_176">
    <path clip-path="url(#p816dae51c6)" d="M 274.610885 325.921635 
L 275.189878 325.921635 
L 275.189878 309.42371 
L 274.610885 309.42371 
z
" style="fill:#1f77b4;"/>
   </g>
   <g id="patch_177">
    <path clip-path="url(#p816dae51c6)" d="M 275.334627 325.921635 
L 275.91362 325.921635 
L 275.91362 312.871037 
L 275.334627 312.871037 
z
" style="fill:#1f77b4;"/>
   </g>
   <g id="patch_178">
    <path clip-path="url(#p816dae51c6)" d="M 276.058368 325.921635 
L 276.637362 325.921635 
L 276.637362 313.486632 
L 276.058368 313.486632 
z
" style="fill:#1f77b4;"/>
   </g>
   <g id="patch_179">
    <path clip-path="url(#p816dae51c6)" d="M 276.78211 325.921635 
L 277.361103 325.921635 
L 277.361103 301.790341 
L 276.78211 301.790341 
z
" style="fill:#1f77b4;"/>
   </g>
   <g id="patch_180">
    <path clip-path="url(#p816dae51c6)" d="M 277.505852 325.921635 
L 278.084845 325.921635 
L 278.084845 299.697321 
L 277.505852 299.697321 
z
" style="fill:#1f77b4;"/>
   </g>
   <g id="patch_181">
    <path clip-path="url(#p816dae51c6)" d="M 278.229593 325.921635 
L 278.808587 325.921635 
L 278.808587 298.343014 
L 278.229593 298.343014 
z
" style="fill:#1f77b4;"/>
   </g>
   <g id="patch_182">
    <path clip-path="url(#p816dae51c6)" d="M 278.953335 325.921635 
L 279.532329 325.921635 
L 279.532329 280.244543 
L 278.953335 280.244543 
z
" style="fill:#1f77b4;"/>
   </g>
   <g id="patch_183">
    <path clip-path="url(#p816dae51c6)" d="M 279.677077 325.921635 
L 280.25607 325.921635 
L 280.25607 282.460682 
L 279.677077 282.460682 
z
" style="fill:#1f77b4;"/>
   </g>
   <g id="patch_184">
    <path clip-path="url(#p816dae51c6)" d="M 280.400819 325.921635 
L 280.979812 325.921635 
L 280.979812 297.850538 
L 280.400819 297.850538 
z
" style="fill:#1f77b4;"/>
   </g>
   <g id="patch_185">
    <path clip-path="url(#p816dae51c6)" d="M 281.12456 325.921635 
L 281.703554 325.921635 
L 281.703554 295.018805 
L 281.12456 295.018805 
z
" style="fill:#1f77b4;"/>
   </g>
   <g id="patch_186">
    <path clip-path="url(#p816dae51c6)" d="M 281.848302 325.921635 
L 282.427296 325.921635 
L 282.427296 297.111825 
L 281.848302 297.111825 
z
" style="fill:#1f77b4;"/>
   </g>
   <g id="patch_187">
    <path clip-path="url(#p816dae51c6)" d="M 282.572044 325.921635 
L 283.151037 325.921635 
L 283.151037 288.001031 
L 282.572044 288.001031 
z
" style="fill:#1f77b4;"/>
   </g>
   <g id="patch_188">
    <path clip-path="url(#p816dae51c6)" d="M 283.295786 325.921635 
L 283.874779 325.921635 
L 283.874779 279.013355 
L 283.295786 279.013355 
z
" style="fill:#1f77b4;"/>
   </g>
   <g id="patch_189">
    <path clip-path="url(#p816dae51c6)" d="M 284.019527 325.921635 
L 284.598521 325.921635 
L 284.598521 275.935384 
L 284.019527 275.935384 
z
" style="fill:#1f77b4;"/>
   </g>
   <g id="patch_190">
    <path clip-path="url(#p816dae51c6)" d="M 284.743269 325.921635 
L 285.322263 325.921635 
L 285.322263 288.616625 
L 284.743269 288.616625 
z
" style="fill:#1f77b4;"/>
   </g>
   <g id="patch_191">
    <path clip-path="url(#p816dae51c6)" d="M 285.467011 325.921635 
L 286.046004 325.921635 
L 286.046004 278.274642 
L 285.467011 278.274642 
z
" style="fill:#1f77b4;"/>
   </g>
   <g id="patch_192">
    <path clip-path="url(#p816dae51c6)" d="M 286.190753 325.921635 
L 286.769746 325.921635 
L 286.769746 289.970932 
L 286.190753 289.970932 
z
" style="fill:#1f77b4;"/>
   </g>
   <g id="patch_193">
    <path clip-path="url(#p816dae51c6)" d="M 286.914494 325.921635 
L 287.493488 325.921635 
L 287.493488 291.448358 
L 286.914494 291.448358 
z
" style="fill:#1f77b4;"/>
   </g>
   <g id="patch_194">
    <path clip-path="url(#p816dae51c6)" d="M 287.638236 325.921635 
L 288.217229 325.921635 
L 288.217229 258.083151 
L 287.638236 258.083151 
z
" style="fill:#1f77b4;"/>
   </g>
   <g id="patch_195">
    <path clip-path="url(#p816dae51c6)" d="M 288.361978 325.921635 
L 288.940971 325.921635 
L 288.940971 259.560577 
L 288.361978 259.560577 
z
" style="fill:#1f77b4;"/>
   </g>
   <g id="patch_196">
    <path clip-path="url(#p816dae51c6)" d="M 289.08572 325.921635 
L 289.664713 325.921635 
L 289.664713 273.965482 
L 289.08572 273.965482 
z
" style="fill:#1f77b4;"/>
   </g>
   <g id="patch_197">
    <path clip-path="url(#p816dae51c6)" d="M 289.809461 325.921635 
L 290.388455 325.921635 
L 290.388455 233.336263 
L 289.809461 233.336263 
z
" style="fill:#1f77b4;"/>
   </g>
   <g id="patch_198">
    <path clip-path="url(#p816dae51c6)" d="M 290.533203 325.921635 
L 291.112196 325.921635 
L 291.112196 288.247268 
L 290.533203 288.247268 
z
" style="fill:#1f77b4;"/>
   </g>
   <g id="patch_199">
    <path clip-path="url(#p816dae51c6)" d="M 291.256945 325.921635 
L 291.835938 325.921635 
L 291.835938 236.044878 
L 291.256945 236.044878 
z
" style="fill:#1f77b4;"/>
   </g>
   <g id="patch_200">
    <path clip-path="url(#p816dae51c6)" d="M 291.980686 325.921635 
L 292.55968 325.921635 
L 292.55968 234.074976 
L 291.980686 234.074976 
z
" style="fill:#1f77b4;"/>
   </g>
   <g id="patch_201">
    <path clip-path="url(#p816dae51c6)" d="M 292.704428 325.921635 
L 293.283422 325.921635 
L 293.283422 231.858837 
L 292.704428 231.858837 
z
" style="fill:#1f77b4;"/>
   </g>
   <g id="patch_202">
    <path clip-path="url(#p816dae51c6)" d="M 293.42817 325.921635 
L 294.007163 325.921635 
L 294.007163 214.745317 
L 293.42817 214.745317 
z
" style="fill:#1f77b4;"/>
   </g>
   <g id="patch_203">
    <path clip-path="url(#p816dae51c6)" d="M 294.151912 325.921635 
L 294.730905 325.921635 
L 294.730905 167.713918 
L 294.151912 167.713918 
z
" style="fill:#1f77b4;"/>
   </g>
   <g id="patch_204">
    <path clip-path="url(#p816dae51c6)" d="M 294.875653 325.921635 
L 295.454647 325.921635 
L 295.454647 123.76049 
L 294.875653 123.76049 
z
" style="fill:#1f77b4;"/>
   </g>
   <g id="patch_205">
    <path clip-path="url(#p816dae51c6)" d="M 295.599395 325.921635 
L 296.178389 325.921635 
L 296.178389 230.750767 
L 295.599395 230.750767 
z
" style="fill:#1f77b4;"/>
   </g>
   <g id="patch_206">
    <path clip-path="url(#p816dae51c6)" d="M 296.323137 325.921635 
L 296.90213 325.921635 
L 296.90213 325.182922 
L 296.323137 325.182922 
z
" style="fill:#1f77b4;"/>
   </g>
   <g id="patch_207">
    <path clip-path="url(#p816dae51c6)" d="M 297.046879 325.921635 
L 297.625872 325.921635 
L 297.625872 146.045002 
L 297.046879 146.045002 
z
" style="fill:#1f77b4;"/>
   </g>
   <g id="patch_208">
    <path clip-path="url(#p816dae51c6)" d="M 297.77062 325.921635 
L 298.349614 325.921635 
L 298.349614 160.573025 
L 297.77062 160.573025 
z
" style="fill:#1f77b4;"/>
   </g>
   <g id="patch_209">
    <path clip-path="url(#p816dae51c6)" d="M 298.494362 325.921635 
L 299.073356 325.921635 
L 299.073356 193.691995 
L 298.494362 193.691995 
z
" style="fill:#1f77b4;"/>
   </g>
   <g id="patch_210">
    <path clip-path="url(#p816dae51c6)" d="M 299.218104 325.921635 
L 299.797097 325.921635 
L 299.797097 216.468981 
L 299.218104 216.468981 
z
" style="fill:#1f77b4;"/>
   </g>
   <g id="patch_211">
    <path clip-path="url(#p816dae51c6)" d="M 299.941846 325.921635 
L 300.520839 325.921635 
L 300.520839 256.605725 
L 299.941846 256.605725 
z
" style="fill:#1f77b4;"/>
   </g>
   <g id="patch_212">
    <path clip-path="url(#p816dae51c6)" d="M 300.665587 325.921635 
L 301.244581 325.921635 
L 301.244581 213.637248 
L 300.665587 213.637248 
z
" style="fill:#1f77b4;"/>
   </g>
   <g id="patch_213">
    <path clip-path="url(#p816dae51c6)" d="M 301.389329 325.921635 
L 301.968322 325.921635 
L 301.968322 225.826014 
L 301.389329 225.826014 
z
" style="fill:#1f77b4;"/>
   </g>
   <g id="patch_214">
    <path clip-path="url(#p816dae51c6)" d="M 302.113071 325.921635 
L 302.692064 325.921635 
L 302.692064 117.112073 
L 302.113071 117.112073 
z
" style="fill:#1f77b4;"/>
   </g>
   <g id="patch_215">
    <path clip-path="url(#p816dae51c6)" d="M 302.836813 325.921635 
L 303.415806 325.921635 
L 303.415806 109.232467 
L 302.836813 109.232467 
z
" style="fill:#1f77b4;"/>
   </g>
   <g id="patch_216">
    <path clip-path="url(#p816dae51c6)" d="M 303.560554 325.921635 
L 304.139548 325.921635 
L 304.139548 155.894509 
L 303.560554 155.894509 
z
" style="fill:#1f77b4;"/>
   </g>
   <g id="patch_217">
    <path clip-path="url(#p816dae51c6)" d="M 304.284296 325.921635 
L 304.863289 325.921635 
L 304.863289 32.775664 
L 304.284296 32.775664 
z
" style="fill:#1f77b4;"/>
   </g>
   <g id="patch_218">
    <path clip-path="url(#p816dae51c6)" d="M 305.008038 325.921635 
L 305.587031 325.921635 
L 305.587031 161.434857 
L 305.008038 161.434857 
z
" style="fill:#1f77b4;"/>
   </g>
   <g id="patch_219">
    <path clip-path="url(#p816dae51c6)" d="M 305.73178 325.921635 
L 306.310773 325.921635 
L 306.310773 204.157097 
L 305.73178 204.157097 
z
" style="fill:#1f77b4;"/>
   </g>
   <g id="matplotlib.axis_3">
    <g id="xtick_3">
     <g id="line2d_12">
      <g>
       <use style="stroke:#000000;stroke-width:0.8;" x="230.028394" xlink:href="#m737b16520f" y="325.921635"/>
      </g>
     </g>
     <g id="text_12">
      <!-- 0 -->
      <g transform="translate(226.847144 340.520072)scale(0.1 -0.1)">
       <use xlink:href="#DejaVuSans-48"/>
      </g>
     </g>
    </g>
    <g id="xtick_4">
     <g id="line2d_13">
      <g>
       <use style="stroke:#000000;stroke-width:0.8;" x="302.402568" xlink:href="#m737b16520f" y="325.921635"/>
      </g>
     </g>
     <g id="text_13">
      <!-- 100 -->
      <g transform="translate(292.858818 340.520072)scale(0.1 -0.1)">
       <use xlink:href="#DejaVuSans-49"/>
       <use x="63.623047" xlink:href="#DejaVuSans-48"/>
       <use x="127.246094" xlink:href="#DejaVuSans-48"/>
      </g>
     </g>
    </g>
   </g>
   <g id="matplotlib.axis_4">
    <g id="ytick_9">
     <g id="line2d_14">
      <g>
       <use style="stroke:#000000;stroke-width:0.8;" x="225.910303" xlink:href="#m8ddb2bf9aa" y="325.921635"/>
      </g>
     </g>
     <g id="text_14">
      <!-- 0 -->
      <g transform="translate(212.547803 329.720854)scale(0.1 -0.1)">
       <use xlink:href="#DejaVuSans-48"/>
      </g>
     </g>
    </g>
    <g id="ytick_10">
     <g id="line2d_15">
      <g>
       <use style="stroke:#000000;stroke-width:0.8;" x="225.910303" xlink:href="#m8ddb2bf9aa" y="264.362212"/>
      </g>
     </g>
     <g id="text_15">
      <!-- 500 -->
      <g transform="translate(199.822803 268.161431)scale(0.1 -0.1)">
       <use xlink:href="#DejaVuSans-53"/>
       <use x="63.623047" xlink:href="#DejaVuSans-48"/>
       <use x="127.246094" xlink:href="#DejaVuSans-48"/>
      </g>
     </g>
    </g>
    <g id="ytick_11">
     <g id="line2d_16">
      <g>
       <use style="stroke:#000000;stroke-width:0.8;" x="225.910303" xlink:href="#m8ddb2bf9aa" y="202.802789"/>
      </g>
     </g>
     <g id="text_16">
      <!-- 1000 -->
      <g transform="translate(193.460303 206.602008)scale(0.1 -0.1)">
       <use xlink:href="#DejaVuSans-49"/>
       <use x="63.623047" xlink:href="#DejaVuSans-48"/>
       <use x="127.246094" xlink:href="#DejaVuSans-48"/>
       <use x="190.869141" xlink:href="#DejaVuSans-48"/>
      </g>
     </g>
    </g>
    <g id="ytick_12">
     <g id="line2d_17">
      <g>
       <use style="stroke:#000000;stroke-width:0.8;" x="225.910303" xlink:href="#m8ddb2bf9aa" y="141.243367"/>
      </g>
     </g>
     <g id="text_17">
      <!-- 1500 -->
      <g transform="translate(193.460303 145.042585)scale(0.1 -0.1)">
       <use xlink:href="#DejaVuSans-49"/>
       <use x="63.623047" xlink:href="#DejaVuSans-53"/>
       <use x="127.246094" xlink:href="#DejaVuSans-48"/>
       <use x="190.869141" xlink:href="#DejaVuSans-48"/>
      </g>
     </g>
    </g>
    <g id="ytick_13">
     <g id="line2d_18">
      <g>
       <use style="stroke:#000000;stroke-width:0.8;" x="225.910303" xlink:href="#m8ddb2bf9aa" y="79.683944"/>
      </g>
     </g>
     <g id="text_18">
      <!-- 2000 -->
      <g transform="translate(193.460303 83.483163)scale(0.1 -0.1)">
       <use xlink:href="#DejaVuSans-50"/>
       <use x="63.623047" xlink:href="#DejaVuSans-48"/>
       <use x="127.246094" xlink:href="#DejaVuSans-48"/>
       <use x="190.869141" xlink:href="#DejaVuSans-48"/>
      </g>
     </g>
    </g>
    <g id="ytick_14">
     <g id="line2d_19">
      <g>
       <use style="stroke:#000000;stroke-width:0.8;" x="225.910303" xlink:href="#m8ddb2bf9aa" y="18.124521"/>
      </g>
     </g>
     <g id="text_19">
      <!-- 2500 -->
      <g transform="translate(193.460303 21.92374)scale(0.1 -0.1)">
       <use xlink:href="#DejaVuSans-50"/>
       <use x="63.623047" xlink:href="#DejaVuSans-53"/>
       <use x="127.246094" xlink:href="#DejaVuSans-48"/>
       <use x="190.869141" xlink:href="#DejaVuSans-48"/>
      </g>
     </g>
    </g>
   </g>
   <g id="line2d_20">
    <path clip-path="url(#p816dae51c6)" d="M 230.028394 325.861281 
L 230.752136 325.822207 
L 231.475877 325.764365 
L 232.199619 325.686371 
L 232.923361 325.582327 
L 233.647102 325.44885 
L 234.370844 325.283786 
L 235.094586 325.092313 
L 235.818328 324.879919 
L 236.542069 324.653475 
L 237.265811 324.420416 
L 237.989553 324.189972 
L 238.713295 323.969168 
L 239.437036 323.767542 
L 240.160778 323.5853 
L 240.88452 323.422902 
L 241.608262 323.28122 
L 242.332003 323.161691 
L 243.055745 323.062416 
L 243.779487 322.986115 
L 244.503229 322.928632 
L 245.22697 322.890942 
L 245.950712 322.876687 
L 246.674454 322.885045 
L 247.398195 322.910941 
L 248.121937 322.951451 
L 248.845679 322.998267 
L 249.569421 323.047802 
L 250.293162 323.09467 
L 251.016904 323.127078 
L 251.740646 323.137847 
L 252.464388 323.124771 
L 253.188129 323.084722 
L 253.911871 323.017087 
L 254.635613 322.922837 
L 255.359355 322.80418 
L 256.083096 322.667113 
L 256.806838 322.518868 
L 257.53058 322.364264 
L 258.254322 322.205405 
L 258.978063 322.047314 
L 259.701805 321.886814 
L 260.425547 321.715288 
L 261.149288 321.521252 
L 261.87303 321.286295 
L 262.596772 320.993138 
L 263.320514 320.634601 
L 264.044255 320.197198 
L 264.767997 319.666828 
L 265.491739 319.039235 
L 266.215481 318.318469 
L 266.939222 317.515402 
L 267.662964 316.64352 
L 268.386706 315.697079 
L 269.110448 314.670131 
L 269.834189 313.594264 
L 270.557931 312.489733 
L 271.281673 311.359511 
L 272.005415 310.198625 
L 272.729156 308.987435 
L 273.452898 307.732402 
L 274.17664 306.450192 
L 274.900382 305.091321 
L 275.624123 303.626202 
L 276.347865 302.060167 
L 277.071607 300.407164 
L 277.795348 298.706883 
L 278.51909 296.979169 
L 279.242832 295.228122 
L 279.966574 293.507484 
L 280.690315 291.850584 
L 281.414057 290.228092 
L 282.137799 288.621701 
L 282.861541 286.972955 
L 283.585282 285.208217 
L 284.309024 283.272108 
L 285.032766 281.084172 
L 285.756508 278.526366 
L 286.480249 275.523005 
L 287.203991 271.94379 
L 287.927733 267.764313 
L 288.651475 262.99006 
L 289.375216 257.597085 
L 290.098958 251.592414 
L 290.8227 245.135469 
L 291.546441 238.50628 
L 292.270183 232.070205 
L 292.993925 225.974566 
L 293.717667 220.395298 
L 294.441408 215.555717 
L 295.16515 211.64181 
L 295.888892 208.570197 
L 296.612634 205.937987 
L 297.336375 203.283727 
L 298.060117 200.323542 
L 298.783859 196.742071 
L 299.507601 192.249489 
L 300.231342 186.537564 
L 300.955084 179.651216 
L 301.678826 172.005438 
L 302.402568 164.18393 
L 303.126309 156.532512 
L 303.850051 149.439769 
L 304.573793 144.713564 
L 305.297534 140.674846 
L 306.021276 137.503087 
" style="fill:none;stroke:#ff0000;stroke-linecap:square;stroke-width:1.5;"/>
   </g>
   <g id="patch_220">
    <path d="M 225.910303 325.921635 
L 225.910303 18.118365 
" style="fill:none;stroke:#000000;stroke-linecap:square;stroke-linejoin:miter;stroke-width:0.8;"/>
   </g>
   <g id="patch_221">
    <path d="M 310.139367 325.921635 
L 310.139367 18.118365 
" style="fill:none;stroke:#000000;stroke-linecap:square;stroke-linejoin:miter;stroke-width:0.8;"/>
   </g>
   <g id="patch_222">
    <path d="M 225.910303 325.921635 
L 310.139367 325.921635 
" style="fill:none;stroke:#000000;stroke-linecap:square;stroke-linejoin:miter;stroke-width:0.8;"/>
   </g>
   <g id="patch_223">
    <path d="M 225.910303 18.118365 
L 310.139367 18.118365 
" style="fill:none;stroke:#000000;stroke-linecap:square;stroke-linejoin:miter;stroke-width:0.8;"/>
   </g>
   <g id="text_20">
    <!-- Casos novos - DF - (data) -->
    <defs>
     <path d="M 54.890625 33.015625 
L 54.890625 0 
L 45.90625 0 
L 45.90625 32.71875 
Q 45.90625 40.484375 42.875 44.328125 
Q 39.84375 48.1875 33.796875 48.1875 
Q 26.515625 48.1875 22.3125 43.546875 
Q 18.109375 38.921875 18.109375 30.90625 
L 18.109375 0 
L 9.078125 0 
L 9.078125 54.6875 
L 18.109375 54.6875 
L 18.109375 46.1875 
Q 21.34375 51.125 25.703125 53.5625 
Q 30.078125 56 35.796875 56 
Q 45.21875 56 50.046875 50.171875 
Q 54.890625 44.34375 54.890625 33.015625 
z
" id="DejaVuSans-110"/>
     <path d="M 2.984375 54.6875 
L 12.5 54.6875 
L 29.59375 8.796875 
L 46.6875 54.6875 
L 56.203125 54.6875 
L 35.6875 0 
L 23.484375 0 
z
" id="DejaVuSans-118"/>
    </defs>
    <g transform="translate(192.282335 12.118365)scale(0.12 -0.12)">
     <use xlink:href="#DejaVuSans-67"/>
     <use x="69.824219" xlink:href="#DejaVuSans-97"/>
     <use x="131.103516" xlink:href="#DejaVuSans-115"/>
     <use x="183.203125" xlink:href="#DejaVuSans-111"/>
     <use x="244.384766" xlink:href="#DejaVuSans-115"/>
     <use x="296.484375" xlink:href="#DejaVuSans-32"/>
     <use x="328.271484" xlink:href="#DejaVuSans-110"/>
     <use x="391.650391" xlink:href="#DejaVuSans-111"/>
     <use x="452.832031" xlink:href="#DejaVuSans-118"/>
     <use x="512.011719" xlink:href="#DejaVuSans-111"/>
     <use x="573.193359" xlink:href="#DejaVuSans-115"/>
     <use x="625.292969" xlink:href="#DejaVuSans-32"/>
     <use x="657.080078" xlink:href="#DejaVuSans-45"/>
     <use x="693.164062" xlink:href="#DejaVuSans-32"/>
     <use x="724.951172" xlink:href="#DejaVuSans-68"/>
     <use x="801.953125" xlink:href="#DejaVuSans-70"/>
     <use x="859.472656" xlink:href="#DejaVuSans-32"/>
     <use x="891.259766" xlink:href="#DejaVuSans-45"/>
     <use x="927.34375" xlink:href="#DejaVuSans-32"/>
     <use x="959.130859" xlink:href="#DejaVuSans-40"/>
     <use x="998.144531" xlink:href="#DejaVuSans-100"/>
     <use x="1061.621094" xlink:href="#DejaVuSans-97"/>
     <use x="1122.900391" xlink:href="#DejaVuSans-116"/>
     <use x="1162.109375" xlink:href="#DejaVuSans-97"/>
     <use x="1223.388672" xlink:href="#DejaVuSans-41"/>
    </g>
   </g>
  </g>
  <g id="axes_3">
   <g id="patch_224">
    <path d="M 372.141107 325.921635 
L 456.37017 325.921635 
L 456.37017 18.118365 
L 372.141107 18.118365 
z
" style="fill:#ffffff;"/>
   </g>
   <g id="matplotlib.axis_5">
    <g id="xtick_5">
     <g id="line2d_21">
      <g>
       <use style="stroke:#000000;stroke-width:0.8;" x="375.9697" xlink:href="#m737b16520f" y="325.921635"/>
      </g>
     </g>
     <g id="text_21">
      <!-- 0 -->
      <g transform="translate(372.78845 340.520072)scale(0.1 -0.1)">
       <use xlink:href="#DejaVuSans-48"/>
      </g>
     </g>
    </g>
    <g id="xtick_6">
     <g id="line2d_22">
      <g>
       <use style="stroke:#000000;stroke-width:0.8;" x="448.895296" xlink:href="#m737b16520f" y="325.921635"/>
      </g>
     </g>
     <g id="text_22">
      <!-- 100 -->
      <g transform="translate(439.351546 340.520072)scale(0.1 -0.1)">
       <use xlink:href="#DejaVuSans-49"/>
       <use x="63.623047" xlink:href="#DejaVuSans-48"/>
       <use x="127.246094" xlink:href="#DejaVuSans-48"/>
      </g>
     </g>
    </g>
   </g>
   <g id="matplotlib.axis_6">
    <g id="ytick_15">
     <g id="line2d_23">
      <g>
       <use style="stroke:#000000;stroke-width:0.8;" x="372.141107" xlink:href="#m8ddb2bf9aa" y="301.053151"/>
      </g>
     </g>
     <g id="text_23">
      <!-- 1.0 -->
      <defs>
       <path d="M 10.6875 12.40625 
L 21 12.40625 
L 21 0 
L 10.6875 0 
z
" id="DejaVuSans-46"/>
      </defs>
      <g transform="translate(349.237982 304.85237)scale(0.1 -0.1)">
       <use xlink:href="#DejaVuSans-49"/>
       <use x="63.623047" xlink:href="#DejaVuSans-46"/>
       <use x="95.410156" xlink:href="#DejaVuSans-48"/>
      </g>
     </g>
    </g>
    <g id="ytick_16">
     <g id="line2d_24">
      <g>
       <use style="stroke:#000000;stroke-width:0.8;" x="372.141107" xlink:href="#m8ddb2bf9aa" y="255.925886"/>
      </g>
     </g>
     <g id="text_24">
      <!-- 1.5 -->
      <g transform="translate(349.237982 259.725105)scale(0.1 -0.1)">
       <use xlink:href="#DejaVuSans-49"/>
       <use x="63.623047" xlink:href="#DejaVuSans-46"/>
       <use x="95.410156" xlink:href="#DejaVuSans-53"/>
      </g>
     </g>
    </g>
    <g id="ytick_17">
     <g id="line2d_25">
      <g>
       <use style="stroke:#000000;stroke-width:0.8;" x="372.141107" xlink:href="#m8ddb2bf9aa" y="210.798621"/>
      </g>
     </g>
     <g id="text_25">
      <!-- 2.0 -->
      <g transform="translate(349.237982 214.59784)scale(0.1 -0.1)">
       <use xlink:href="#DejaVuSans-50"/>
       <use x="63.623047" xlink:href="#DejaVuSans-46"/>
       <use x="95.410156" xlink:href="#DejaVuSans-48"/>
      </g>
     </g>
    </g>
    <g id="ytick_18">
     <g id="line2d_26">
      <g>
       <use style="stroke:#000000;stroke-width:0.8;" x="372.141107" xlink:href="#m8ddb2bf9aa" y="165.671356"/>
      </g>
     </g>
     <g id="text_26">
      <!-- 2.5 -->
      <g transform="translate(349.237982 169.470574)scale(0.1 -0.1)">
       <use xlink:href="#DejaVuSans-50"/>
       <use x="63.623047" xlink:href="#DejaVuSans-46"/>
       <use x="95.410156" xlink:href="#DejaVuSans-53"/>
      </g>
     </g>
    </g>
    <g id="ytick_19">
     <g id="line2d_27">
      <g>
       <use style="stroke:#000000;stroke-width:0.8;" x="372.141107" xlink:href="#m8ddb2bf9aa" y="120.544091"/>
      </g>
     </g>
     <g id="text_27">
      <!-- 3.0 -->
      <g transform="translate(349.237982 124.343309)scale(0.1 -0.1)">
       <use xlink:href="#DejaVuSans-51"/>
       <use x="63.623047" xlink:href="#DejaVuSans-46"/>
       <use x="95.410156" xlink:href="#DejaVuSans-48"/>
      </g>
     </g>
    </g>
    <g id="ytick_20">
     <g id="line2d_28">
      <g>
       <use style="stroke:#000000;stroke-width:0.8;" x="372.141107" xlink:href="#m8ddb2bf9aa" y="75.416825"/>
      </g>
     </g>
     <g id="text_28">
      <!-- 3.5 -->
      <g transform="translate(349.237982 79.216044)scale(0.1 -0.1)">
       <use xlink:href="#DejaVuSans-51"/>
       <use x="63.623047" xlink:href="#DejaVuSans-46"/>
       <use x="95.410156" xlink:href="#DejaVuSans-53"/>
      </g>
     </g>
    </g>
    <g id="ytick_21">
     <g id="line2d_29">
      <g>
       <use style="stroke:#000000;stroke-width:0.8;" x="372.141107" xlink:href="#m8ddb2bf9aa" y="30.28956"/>
      </g>
     </g>
     <g id="text_29">
      <!-- 4.0 -->
      <defs>
       <path d="M 37.796875 64.3125 
L 12.890625 25.390625 
L 37.796875 25.390625 
z
M 35.203125 72.90625 
L 47.609375 72.90625 
L 47.609375 25.390625 
L 58.015625 25.390625 
L 58.015625 17.1875 
L 47.609375 17.1875 
L 47.609375 0 
L 37.796875 0 
L 37.796875 17.1875 
L 4.890625 17.1875 
L 4.890625 26.703125 
z
" id="DejaVuSans-52"/>
      </defs>
      <g transform="translate(349.237982 34.088779)scale(0.1 -0.1)">
       <use xlink:href="#DejaVuSans-52"/>
       <use x="63.623047" xlink:href="#DejaVuSans-46"/>
       <use x="95.410156" xlink:href="#DejaVuSans-48"/>
      </g>
     </g>
    </g>
   </g>
   <g id="line2d_30">
    <path clip-path="url(#p1cc5b073b0)" d="M 375.9697 32.109423 
L 376.698956 47.690379 
L 377.428212 63.929307 
L 378.157468 87.302887 
L 378.886724 103.333024 
L 379.61598 118.993771 
L 380.345236 134.15238 
L 381.074492 152.125199 
L 381.803748 169.508233 
L 382.533004 185.819807 
L 383.26226 200.834564 
L 383.991516 215.113029 
L 384.720772 227.985787 
L 385.450028 240.539967 
L 386.179284 250.586055 
L 386.90854 258.965401 
L 387.637796 266.263645 
L 388.367052 272.929371 
L 389.096308 278.458936 
L 389.825564 284.081209 
L 390.55482 288.451171 
L 391.284076 292.811711 
L 392.013332 297.810195 
L 392.742588 302.603674 
L 393.471843 306.373951 
L 394.201099 309.621306 
L 394.930355 311.148821 
L 395.659611 311.930577 
L 396.388867 311.497406 
L 397.118123 308.267005 
L 397.847379 303.25918 
L 398.576635 297.722386 
L 399.305891 291.602296 
L 400.035147 285.655686 
L 400.764403 280.37046 
L 401.493659 276.059269 
L 402.222915 273.415515 
L 402.952171 272.455102 
L 403.681427 272.501218 
L 404.410683 272.939322 
L 405.139939 274.173905 
L 405.869195 274.813962 
L 406.598451 274.140816 
L 407.327707 271.962501 
L 408.056963 267.656822 
L 408.786219 261.917422 
L 409.515475 256.469756 
L 410.244731 250.842134 
L 410.973987 245.340418 
L 411.703242 241.118857 
L 412.432498 238.69431 
L 413.161754 238.128652 
L 413.89101 239.04704 
L 414.620266 239.857167 
L 415.349522 240.584867 
L 416.078778 243.068528 
L 416.808034 246.23082 
L 417.53729 249.113547 
L 418.266546 251.445647 
L 418.995802 252.810972 
L 419.725058 254.31079 
L 420.454314 256.214669 
L 421.18357 256.448535 
L 421.912826 255.950599 
L 422.642082 255.808825 
L 423.371338 256.155196 
L 424.100594 257.460881 
L 424.82985 259.072169 
L 425.559106 260.588069 
L 426.288362 262.979222 
L 427.017618 265.696367 
L 427.746874 267.564264 
L 428.47613 268.906822 
L 429.205386 269.136715 
L 429.934641 268.178988 
L 430.663897 266.502408 
L 431.393153 263.884309 
L 432.122409 260.025983 
L 432.851665 255.801292 
L 433.580921 250.759475 
L 434.310177 246.422681 
L 435.039433 243.062447 
L 435.768689 240.250374 
L 436.497945 238.182643 
L 437.227201 237.916567 
L 437.956457 239.860171 
L 438.685713 244.028371 
L 439.414969 248.459007 
L 440.144225 253.313033 
L 440.873481 258.883739 
L 441.602737 264.96575 
L 442.331993 270.029317 
L 443.061249 272.342003 
L 443.790505 271.753152 
L 444.519761 269.47073 
L 445.249017 265.43144 
L 445.978273 259.950442 
L 446.707529 253.143024 
L 447.436785 247.076608 
L 448.16604 243.514842 
L 448.895296 242.881572 
L 449.624552 243.670667 
L 450.353808 245.894488 
L 451.083064 255.713073 
L 451.81232 257.645693 
L 452.541576 260.216499 
" style="fill:none;stroke:#ff0000;stroke-linecap:square;stroke-width:1.5;"/>
   </g>
   <g id="patch_225">
    <path d="M 372.141107 325.921635 
L 372.141107 18.118365 
" style="fill:none;stroke:#000000;stroke-linecap:square;stroke-linejoin:miter;stroke-width:0.8;"/>
   </g>
   <g id="patch_226">
    <path d="M 456.37017 325.921635 
L 456.37017 18.118365 
" style="fill:none;stroke:#000000;stroke-linecap:square;stroke-linejoin:miter;stroke-width:0.8;"/>
   </g>
   <g id="patch_227">
    <path d="M 372.141107 325.921635 
L 456.37017 325.921635 
" style="fill:none;stroke:#000000;stroke-linecap:square;stroke-linejoin:miter;stroke-width:0.8;"/>
   </g>
   <g id="patch_228">
    <path d="M 372.141107 18.118365 
L 456.37017 18.118365 
" style="fill:none;stroke:#000000;stroke-linecap:square;stroke-linejoin:miter;stroke-width:0.8;"/>
   </g>
   <g id="text_30">
    <!-- r0 - DF - (data) -->
    <defs>
     <path d="M 41.109375 46.296875 
Q 39.59375 47.171875 37.8125 47.578125 
Q 36.03125 48 33.890625 48 
Q 26.265625 48 22.1875 43.046875 
Q 18.109375 38.09375 18.109375 28.8125 
L 18.109375 0 
L 9.078125 0 
L 9.078125 54.6875 
L 18.109375 54.6875 
L 18.109375 46.1875 
Q 20.953125 51.171875 25.484375 53.578125 
Q 30.03125 56 36.53125 56 
Q 37.453125 56 38.578125 55.875 
Q 39.703125 55.765625 41.0625 55.515625 
z
" id="DejaVuSans-114"/>
    </defs>
    <g transform="translate(369.746888 12.118365)scale(0.12 -0.12)">
     <use xlink:href="#DejaVuSans-114"/>
     <use x="41.113281" xlink:href="#DejaVuSans-48"/>
     <use x="104.736328" xlink:href="#DejaVuSans-32"/>
     <use x="136.523438" xlink:href="#DejaVuSans-45"/>
     <use x="172.607422" xlink:href="#DejaVuSans-32"/>
     <use x="204.394531" xlink:href="#DejaVuSans-68"/>
     <use x="281.396484" xlink:href="#DejaVuSans-70"/>
     <use x="338.916016" xlink:href="#DejaVuSans-32"/>
     <use x="370.703125" xlink:href="#DejaVuSans-45"/>
     <use x="406.787109" xlink:href="#DejaVuSans-32"/>
     <use x="438.574219" xlink:href="#DejaVuSans-40"/>
     <use x="477.587891" xlink:href="#DejaVuSans-100"/>
     <use x="541.064453" xlink:href="#DejaVuSans-97"/>
     <use x="602.34375" xlink:href="#DejaVuSans-116"/>
     <use x="641.552734" xlink:href="#DejaVuSans-97"/>
     <use x="702.832031" xlink:href="#DejaVuSans-41"/>
    </g>
   </g>
  </g>
 </g>
 <defs>
  <clipPath id="p25ac1b20c0">
   <rect height="307.80327" width="84.229063" x="51.5795" y="18.118365"/>
  </clipPath>
  <clipPath id="p816dae51c6">
   <rect height="307.80327" width="84.229063" x="225.910303" y="18.118365"/>
  </clipPath>
  <clipPath id="p1cc5b073b0">
   <rect height="307.80327" width="84.229063" x="372.141107" y="18.118365"/>
  </clipPath>
 </defs>
</svg>
