<?xml version="1.0" encoding="utf-8" standalone="no"?>
<!DOCTYPE svg PUBLIC "-//W3C//DTD SVG 1.1//EN"
  "http://www.w3.org/Graphics/SVG/1.1/DTD/svg11.dtd">
<!-- Created with matplotlib (https://matplotlib.org/) -->
<svg height="345.6pt" version="1.1" viewBox="0 0 460.8 345.6" width="460.8pt" xmlns="http://www.w3.org/2000/svg" xmlns:xlink="http://www.w3.org/1999/xlink">
 <defs>
  <style type="text/css">
*{stroke-linecap:butt;stroke-linejoin:round;}
  </style>
 </defs>
 <g id="figure_1">
  <g id="patch_1">
   <path d="M 0 345.6 
L 460.8 345.6 
L 460.8 0 
L 0 0 
z
" style="fill:#ffffff;"/>
  </g>
  <g id="axes_1">
   <g id="patch_2">
    <path d="M 50.83649 325.921635 
L 136.0751 325.921635 
L 136.0751 18.118365 
L 50.83649 18.118365 
z
" style="fill:#ffffff;"/>
   </g>
   <g id="patch_3">
    <path clip-path="url(#pe20c3c86e9)" d="M 54.710972 325.921635 
L 55.291419 325.921635 
L 55.291419 325.913292 
L 54.710972 325.913292 
z
" style="fill:#1f77b4;"/>
   </g>
   <g id="patch_4">
    <path clip-path="url(#pe20c3c86e9)" d="M 55.436531 325.921635 
L 56.016977 325.921635 
L 56.016977 325.913292 
L 55.436531 325.913292 
z
" style="fill:#1f77b4;"/>
   </g>
   <g id="patch_5">
    <path clip-path="url(#pe20c3c86e9)" d="M 56.162089 325.921635 
L 56.742536 325.921635 
L 56.742536 325.913292 
L 56.162089 325.913292 
z
" style="fill:#1f77b4;"/>
   </g>
   <g id="patch_6">
    <path clip-path="url(#pe20c3c86e9)" d="M 56.887648 325.921635 
L 57.468094 325.921635 
L 57.468094 325.913292 
L 56.887648 325.913292 
z
" style="fill:#1f77b4;"/>
   </g>
   <g id="patch_7">
    <path clip-path="url(#pe20c3c86e9)" d="M 57.613206 325.921635 
L 58.193653 325.921635 
L 58.193653 325.913292 
L 57.613206 325.913292 
z
" style="fill:#1f77b4;"/>
   </g>
   <g id="patch_8">
    <path clip-path="url(#pe20c3c86e9)" d="M 58.338765 325.921635 
L 58.919211 325.921635 
L 58.919211 325.913292 
L 58.338765 325.913292 
z
" style="fill:#1f77b4;"/>
   </g>
   <g id="patch_9">
    <path clip-path="url(#pe20c3c86e9)" d="M 59.064323 325.921635 
L 59.64477 325.921635 
L 59.64477 325.913292 
L 59.064323 325.913292 
z
" style="fill:#1f77b4;"/>
   </g>
   <g id="patch_10">
    <path clip-path="url(#pe20c3c86e9)" d="M 59.789881 325.921635 
L 60.370328 325.921635 
L 60.370328 325.913292 
L 59.789881 325.913292 
z
" style="fill:#1f77b4;"/>
   </g>
   <g id="patch_11">
    <path clip-path="url(#pe20c3c86e9)" d="M 60.51544 325.921635 
L 61.095887 325.921635 
L 61.095887 325.913292 
L 60.51544 325.913292 
z
" style="fill:#1f77b4;"/>
   </g>
   <g id="patch_12">
    <path clip-path="url(#pe20c3c86e9)" d="M 61.240998 325.921635 
L 61.821445 325.921635 
L 61.821445 325.913292 
L 61.240998 325.913292 
z
" style="fill:#1f77b4;"/>
   </g>
   <g id="patch_13">
    <path clip-path="url(#pe20c3c86e9)" d="M 61.966557 325.921635 
L 62.547004 325.921635 
L 62.547004 325.913292 
L 61.966557 325.913292 
z
" style="fill:#1f77b4;"/>
   </g>
   <g id="patch_14">
    <path clip-path="url(#pe20c3c86e9)" d="M 62.692115 325.921635 
L 63.272562 325.921635 
L 63.272562 325.84655 
L 62.692115 325.84655 
z
" style="fill:#1f77b4;"/>
   </g>
   <g id="patch_15">
    <path clip-path="url(#pe20c3c86e9)" d="M 63.417674 325.921635 
L 63.998121 325.921635 
L 63.998121 325.829864 
L 63.417674 325.829864 
z
" style="fill:#1f77b4;"/>
   </g>
   <g id="patch_16">
    <path clip-path="url(#pe20c3c86e9)" d="M 64.143232 325.921635 
L 64.723679 325.921635 
L 64.723679 325.813179 
L 64.143232 325.813179 
z
" style="fill:#1f77b4;"/>
   </g>
   <g id="patch_17">
    <path clip-path="url(#pe20c3c86e9)" d="M 64.868791 325.921635 
L 65.449238 325.921635 
L 65.449238 325.704722 
L 64.868791 325.704722 
z
" style="fill:#1f77b4;"/>
   </g>
   <g id="patch_18">
    <path clip-path="url(#pe20c3c86e9)" d="M 65.594349 325.921635 
L 66.174796 325.921635 
L 66.174796 325.704722 
L 65.594349 325.704722 
z
" style="fill:#1f77b4;"/>
   </g>
   <g id="patch_19">
    <path clip-path="url(#pe20c3c86e9)" d="M 66.319908 325.921635 
L 66.900355 325.921635 
L 66.900355 325.679694 
L 66.319908 325.679694 
z
" style="fill:#1f77b4;"/>
   </g>
   <g id="patch_20">
    <path clip-path="url(#pe20c3c86e9)" d="M 67.045466 325.921635 
L 67.625913 325.921635 
L 67.625913 325.646323 
L 67.045466 325.646323 
z
" style="fill:#1f77b4;"/>
   </g>
   <g id="patch_21">
    <path clip-path="url(#pe20c3c86e9)" d="M 67.771025 325.921635 
L 68.351472 325.921635 
L 68.351472 325.596266 
L 67.771025 325.596266 
z
" style="fill:#1f77b4;"/>
   </g>
   <g id="patch_22">
    <path clip-path="url(#pe20c3c86e9)" d="M 68.496583 325.921635 
L 69.07703 325.921635 
L 69.07703 325.596266 
L 68.496583 325.596266 
z
" style="fill:#1f77b4;"/>
   </g>
   <g id="patch_23">
    <path clip-path="url(#pe20c3c86e9)" d="M 69.222142 325.921635 
L 69.802589 325.921635 
L 69.802589 325.529523 
L 69.222142 325.529523 
z
" style="fill:#1f77b4;"/>
   </g>
   <g id="patch_24">
    <path clip-path="url(#pe20c3c86e9)" d="M 69.9477 325.921635 
L 70.528147 325.921635 
L 70.528147 325.479467 
L 69.9477 325.479467 
z
" style="fill:#1f77b4;"/>
   </g>
   <g id="patch_25">
    <path clip-path="url(#pe20c3c86e9)" d="M 70.673259 325.921635 
L 71.253706 325.921635 
L 71.253706 325.421067 
L 70.673259 325.421067 
z
" style="fill:#1f77b4;"/>
   </g>
   <g id="patch_26">
    <path clip-path="url(#pe20c3c86e9)" d="M 71.398817 325.921635 
L 71.979264 325.921635 
L 71.979264 325.320953 
L 71.398817 325.320953 
z
" style="fill:#1f77b4;"/>
   </g>
   <g id="patch_27">
    <path clip-path="url(#pe20c3c86e9)" d="M 72.124376 325.921635 
L 72.704823 325.921635 
L 72.704823 325.22084 
L 72.124376 325.22084 
z
" style="fill:#1f77b4;"/>
   </g>
   <g id="patch_28">
    <path clip-path="url(#pe20c3c86e9)" d="M 72.849934 325.921635 
L 73.430381 325.921635 
L 73.430381 325.120726 
L 72.849934 325.120726 
z
" style="fill:#1f77b4;"/>
   </g>
   <g id="patch_29">
    <path clip-path="url(#pe20c3c86e9)" d="M 73.575493 325.921635 
L 74.155939 325.921635 
L 74.155939 324.920499 
L 73.575493 324.920499 
z
" style="fill:#1f77b4;"/>
   </g>
   <g id="patch_30">
    <path clip-path="url(#pe20c3c86e9)" d="M 74.301051 325.921635 
L 74.881498 325.921635 
L 74.881498 324.761986 
L 74.301051 324.761986 
z
" style="fill:#1f77b4;"/>
   </g>
   <g id="patch_31">
    <path clip-path="url(#pe20c3c86e9)" d="M 75.02661 325.921635 
L 75.607056 325.921635 
L 75.607056 324.645187 
L 75.02661 324.645187 
z
" style="fill:#1f77b4;"/>
   </g>
   <g id="patch_32">
    <path clip-path="url(#pe20c3c86e9)" d="M 75.752168 325.921635 
L 76.332615 325.921635 
L 76.332615 324.53673 
L 75.752168 324.53673 
z
" style="fill:#1f77b4;"/>
   </g>
   <g id="patch_33">
    <path clip-path="url(#pe20c3c86e9)" d="M 76.477727 325.921635 
L 77.058173 325.921635 
L 77.058173 324.303132 
L 76.477727 324.303132 
z
" style="fill:#1f77b4;"/>
   </g>
   <g id="patch_34">
    <path clip-path="url(#pe20c3c86e9)" d="M 77.203285 325.921635 
L 77.783732 325.921635 
L 77.783732 324.17799 
L 77.203285 324.17799 
z
" style="fill:#1f77b4;"/>
   </g>
   <g id="patch_35">
    <path clip-path="url(#pe20c3c86e9)" d="M 77.928844 325.921635 
L 78.50929 325.921635 
L 78.50929 324.027819 
L 77.928844 324.027819 
z
" style="fill:#1f77b4;"/>
   </g>
   <g id="patch_36">
    <path clip-path="url(#pe20c3c86e9)" d="M 78.654402 325.921635 
L 79.234849 325.921635 
L 79.234849 323.644051 
L 78.654402 323.644051 
z
" style="fill:#1f77b4;"/>
   </g>
   <g id="patch_37">
    <path clip-path="url(#pe20c3c86e9)" d="M 79.379961 325.921635 
L 79.960407 325.921635 
L 79.960407 323.418795 
L 79.379961 323.418795 
z
" style="fill:#1f77b4;"/>
   </g>
   <g id="patch_38">
    <path clip-path="url(#pe20c3c86e9)" d="M 80.105519 325.921635 
L 80.685966 325.921635 
L 80.685966 323.009998 
L 80.105519 323.009998 
z
" style="fill:#1f77b4;"/>
   </g>
   <g id="patch_39">
    <path clip-path="url(#pe20c3c86e9)" d="M 80.831078 325.921635 
L 81.411524 325.921635 
L 81.411524 322.726343 
L 80.831078 322.726343 
z
" style="fill:#1f77b4;"/>
   </g>
   <g id="patch_40">
    <path clip-path="url(#pe20c3c86e9)" d="M 81.556636 325.921635 
L 82.137083 325.921635 
L 82.137083 322.334231 
L 81.556636 322.334231 
z
" style="fill:#1f77b4;"/>
   </g>
   <g id="patch_41">
    <path clip-path="url(#pe20c3c86e9)" d="M 82.282194 325.921635 
L 82.862641 325.921635 
L 82.862641 322.058919 
L 82.282194 322.058919 
z
" style="fill:#1f77b4;"/>
   </g>
   <g id="patch_42">
    <path clip-path="url(#pe20c3c86e9)" d="M 83.007753 325.921635 
L 83.5882 325.921635 
L 83.5882 321.274695 
L 83.007753 321.274695 
z
" style="fill:#1f77b4;"/>
   </g>
   <g id="patch_43">
    <path clip-path="url(#pe20c3c86e9)" d="M 83.733311 325.921635 
L 84.313758 325.921635 
L 84.313758 319.631164 
L 83.733311 319.631164 
z
" style="fill:#1f77b4;"/>
   </g>
   <g id="patch_44">
    <path clip-path="url(#pe20c3c86e9)" d="M 84.45887 325.921635 
L 85.039317 325.921635 
L 85.039317 318.780198 
L 84.45887 318.780198 
z
" style="fill:#1f77b4;"/>
   </g>
   <g id="patch_45">
    <path clip-path="url(#pe20c3c86e9)" d="M 85.184428 325.921635 
L 85.764875 325.921635 
L 85.764875 317.979289 
L 85.184428 317.979289 
z
" style="fill:#1f77b4;"/>
   </g>
   <g id="patch_46">
    <path clip-path="url(#pe20c3c86e9)" d="M 85.909987 325.921635 
L 86.490434 325.921635 
L 86.490434 316.752898 
L 85.909987 316.752898 
z
" style="fill:#1f77b4;"/>
   </g>
   <g id="patch_47">
    <path clip-path="url(#pe20c3c86e9)" d="M 86.635545 325.921635 
L 87.215992 325.921635 
L 87.215992 316.177245 
L 86.635545 316.177245 
z
" style="fill:#1f77b4;"/>
   </g>
   <g id="patch_48">
    <path clip-path="url(#pe20c3c86e9)" d="M 87.361104 325.921635 
L 87.941551 325.921635 
L 87.941551 315.810161 
L 87.361104 315.810161 
z
" style="fill:#1f77b4;"/>
   </g>
   <g id="patch_49">
    <path clip-path="url(#pe20c3c86e9)" d="M 88.086662 325.921635 
L 88.667109 325.921635 
L 88.667109 314.967539 
L 88.086662 314.967539 
z
" style="fill:#1f77b4;"/>
   </g>
   <g id="patch_50">
    <path clip-path="url(#pe20c3c86e9)" d="M 88.812221 325.921635 
L 89.392668 325.921635 
L 89.392668 314.550399 
L 88.812221 314.550399 
z
" style="fill:#1f77b4;"/>
   </g>
   <g id="patch_51">
    <path clip-path="url(#pe20c3c86e9)" d="M 89.537779 325.921635 
L 90.118226 325.921635 
L 90.118226 314.400228 
L 89.537779 314.400228 
z
" style="fill:#1f77b4;"/>
   </g>
   <g id="patch_52">
    <path clip-path="url(#pe20c3c86e9)" d="M 90.263338 325.921635 
L 90.843785 325.921635 
L 90.843785 312.614869 
L 90.263338 312.614869 
z
" style="fill:#1f77b4;"/>
   </g>
   <g id="patch_53">
    <path clip-path="url(#pe20c3c86e9)" d="M 90.988896 325.921635 
L 91.569343 325.921635 
L 91.569343 311.713847 
L 90.988896 311.713847 
z
" style="fill:#1f77b4;"/>
   </g>
   <g id="patch_54">
    <path clip-path="url(#pe20c3c86e9)" d="M 91.714455 325.921635 
L 92.294902 325.921635 
L 92.294902 310.937966 
L 91.714455 310.937966 
z
" style="fill:#1f77b4;"/>
   </g>
   <g id="patch_55">
    <path clip-path="url(#pe20c3c86e9)" d="M 92.440013 325.921635 
L 93.02046 325.921635 
L 93.02046 310.287228 
L 92.440013 310.287228 
z
" style="fill:#1f77b4;"/>
   </g>
   <g id="patch_56">
    <path clip-path="url(#pe20c3c86e9)" d="M 93.165572 325.921635 
L 93.746019 325.921635 
L 93.746019 308.343355 
L 93.165572 308.343355 
z
" style="fill:#1f77b4;"/>
   </g>
   <g id="patch_57">
    <path clip-path="url(#pe20c3c86e9)" d="M 93.89113 325.921635 
L 94.471577 325.921635 
L 94.471577 305.356633 
L 93.89113 305.356633 
z
" style="fill:#1f77b4;"/>
   </g>
   <g id="patch_58">
    <path clip-path="url(#pe20c3c86e9)" d="M 94.616689 325.921635 
L 95.197136 325.921635 
L 95.197136 303.713101 
L 94.616689 303.713101 
z
" style="fill:#1f77b4;"/>
   </g>
   <g id="patch_59">
    <path clip-path="url(#pe20c3c86e9)" d="M 95.342247 325.921635 
L 95.922694 325.921635 
L 95.922694 301.327061 
L 95.342247 301.327061 
z
" style="fill:#1f77b4;"/>
   </g>
   <g id="patch_60">
    <path clip-path="url(#pe20c3c86e9)" d="M 96.067806 325.921635 
L 96.648252 325.921635 
L 96.648252 300.175754 
L 96.067806 300.175754 
z
" style="fill:#1f77b4;"/>
   </g>
   <g id="patch_61">
    <path clip-path="url(#pe20c3c86e9)" d="M 96.793364 325.921635 
L 97.373811 325.921635 
L 97.373811 299.007762 
L 96.793364 299.007762 
z
" style="fill:#1f77b4;"/>
   </g>
   <g id="patch_62">
    <path clip-path="url(#pe20c3c86e9)" d="M 97.518923 325.921635 
L 98.099369 325.921635 
L 98.099369 297.539429 
L 97.518923 297.539429 
z
" style="fill:#1f77b4;"/>
   </g>
   <g id="patch_63">
    <path clip-path="url(#pe20c3c86e9)" d="M 98.244481 325.921635 
L 98.824928 325.921635 
L 98.824928 296.154525 
L 98.244481 296.154525 
z
" style="fill:#1f77b4;"/>
   </g>
   <g id="patch_64">
    <path clip-path="url(#pe20c3c86e9)" d="M 98.97004 325.921635 
L 99.550486 325.921635 
L 99.550486 293.901969 
L 98.97004 293.901969 
z
" style="fill:#1f77b4;"/>
   </g>
   <g id="patch_65">
    <path clip-path="url(#pe20c3c86e9)" d="M 99.695598 325.921635 
L 100.276045 325.921635 
L 100.276045 290.531477 
L 99.695598 290.531477 
z
" style="fill:#1f77b4;"/>
   </g>
   <g id="patch_66">
    <path clip-path="url(#pe20c3c86e9)" d="M 100.421157 325.921635 
L 101.001603 325.921635 
L 101.001603 289.113201 
L 100.421157 289.113201 
z
" style="fill:#1f77b4;"/>
   </g>
   <g id="patch_67">
    <path clip-path="url(#pe20c3c86e9)" d="M 101.146715 325.921635 
L 101.727162 325.921635 
L 101.727162 287.553098 
L 101.146715 287.553098 
z
" style="fill:#1f77b4;"/>
   </g>
   <g id="patch_68">
    <path clip-path="url(#pe20c3c86e9)" d="M 101.872274 325.921635 
L 102.45272 325.921635 
L 102.45272 285.717682 
L 101.872274 285.717682 
z
" style="fill:#1f77b4;"/>
   </g>
   <g id="patch_69">
    <path clip-path="url(#pe20c3c86e9)" d="M 102.597832 325.921635 
L 103.178279 325.921635 
L 103.178279 283.481811 
L 102.597832 283.481811 
z
" style="fill:#1f77b4;"/>
   </g>
   <g id="patch_70">
    <path clip-path="url(#pe20c3c86e9)" d="M 103.323391 325.921635 
L 103.903837 325.921635 
L 103.903837 280.862172 
L 103.323391 280.862172 
z
" style="fill:#1f77b4;"/>
   </g>
   <g id="patch_71">
    <path clip-path="url(#pe20c3c86e9)" d="M 104.048949 325.921635 
L 104.629396 325.921635 
L 104.629396 277.424938 
L 104.048949 277.424938 
z
" style="fill:#1f77b4;"/>
   </g>
   <g id="patch_72">
    <path clip-path="url(#pe20c3c86e9)" d="M 104.774507 325.921635 
L 105.354954 325.921635 
L 105.354954 274.21296 
L 104.774507 274.21296 
z
" style="fill:#1f77b4;"/>
   </g>
   <g id="patch_73">
    <path clip-path="url(#pe20c3c86e9)" d="M 105.500066 325.921635 
L 106.080513 325.921635 
L 106.080513 270.900869 
L 105.500066 270.900869 
z
" style="fill:#1f77b4;"/>
   </g>
   <g id="patch_74">
    <path clip-path="url(#pe20c3c86e9)" d="M 106.225624 325.921635 
L 106.806071 325.921635 
L 106.806071 269.657792 
L 106.225624 269.657792 
z
" style="fill:#1f77b4;"/>
   </g>
   <g id="patch_75">
    <path clip-path="url(#pe20c3c86e9)" d="M 106.951183 325.921635 
L 107.53163 325.921635 
L 107.53163 266.212215 
L 106.951183 266.212215 
z
" style="fill:#1f77b4;"/>
   </g>
   <g id="patch_76">
    <path clip-path="url(#pe20c3c86e9)" d="M 107.676741 325.921635 
L 108.257188 325.921635 
L 108.257188 261.740474 
L 107.676741 261.740474 
z
" style="fill:#1f77b4;"/>
   </g>
   <g id="patch_77">
    <path clip-path="url(#pe20c3c86e9)" d="M 108.4023 325.921635 
L 108.982747 325.921635 
L 108.982747 258.411697 
L 108.4023 258.411697 
z
" style="fill:#1f77b4;"/>
   </g>
   <g id="patch_78">
    <path clip-path="url(#pe20c3c86e9)" d="M 109.127858 325.921635 
L 109.708305 325.921635 
L 109.708305 251.854256 
L 109.127858 251.854256 
z
" style="fill:#1f77b4;"/>
   </g>
   <g id="patch_79">
    <path clip-path="url(#pe20c3c86e9)" d="M 109.853417 325.921635 
L 110.433864 325.921635 
L 110.433864 246.498179 
L 109.853417 246.498179 
z
" style="fill:#1f77b4;"/>
   </g>
   <g id="patch_80">
    <path clip-path="url(#pe20c3c86e9)" d="M 110.578975 325.921635 
L 111.159422 325.921635 
L 111.159422 243.177744 
L 110.578975 243.177744 
z
" style="fill:#1f77b4;"/>
   </g>
   <g id="patch_81">
    <path clip-path="url(#pe20c3c86e9)" d="M 111.304534 325.921635 
L 111.884981 325.921635 
L 111.884981 242.435235 
L 111.304534 242.435235 
z
" style="fill:#1f77b4;"/>
   </g>
   <g id="patch_82">
    <path clip-path="url(#pe20c3c86e9)" d="M 112.030092 325.921635 
L 112.610539 325.921635 
L 112.610539 239.448513 
L 112.030092 239.448513 
z
" style="fill:#1f77b4;"/>
   </g>
   <g id="patch_83">
    <path clip-path="url(#pe20c3c86e9)" d="M 112.755651 325.921635 
L 113.336098 325.921635 
L 113.336098 235.076886 
L 112.755651 235.076886 
z
" style="fill:#1f77b4;"/>
   </g>
   <g id="patch_84">
    <path clip-path="url(#pe20c3c86e9)" d="M 113.481209 325.921635 
L 114.061656 325.921635 
L 114.061656 230.11292 
L 113.481209 230.11292 
z
" style="fill:#1f77b4;"/>
   </g>
   <g id="patch_85">
    <path clip-path="url(#pe20c3c86e9)" d="M 114.206768 325.921635 
L 114.787215 325.921635 
L 114.787215 224.114446 
L 114.206768 224.114446 
z
" style="fill:#1f77b4;"/>
   </g>
   <g id="patch_86">
    <path clip-path="url(#pe20c3c86e9)" d="M 114.932326 325.921635 
L 115.512773 325.921635 
L 115.512773 218.274486 
L 114.932326 218.274486 
z
" style="fill:#1f77b4;"/>
   </g>
   <g id="patch_87">
    <path clip-path="url(#pe20c3c86e9)" d="M 115.657885 325.921635 
L 116.238332 325.921635 
L 116.238332 213.819431 
L 115.657885 213.819431 
z
" style="fill:#1f77b4;"/>
   </g>
   <g id="patch_88">
    <path clip-path="url(#pe20c3c86e9)" d="M 116.383443 325.921635 
L 116.96389 325.921635 
L 116.96389 211.708703 
L 116.383443 211.708703 
z
" style="fill:#1f77b4;"/>
   </g>
   <g id="patch_89">
    <path clip-path="url(#pe20c3c86e9)" d="M 117.109002 325.921635 
L 117.689449 325.921635 
L 117.689449 208.546781 
L 117.109002 208.546781 
z
" style="fill:#1f77b4;"/>
   </g>
   <g id="patch_90">
    <path clip-path="url(#pe20c3c86e9)" d="M 117.83456 325.921635 
L 118.415007 325.921635 
L 118.415007 199.519872 
L 117.83456 199.519872 
z
" style="fill:#1f77b4;"/>
   </g>
   <g id="patch_91">
    <path clip-path="url(#pe20c3c86e9)" d="M 118.560119 325.921635 
L 119.140565 325.921635 
L 119.140565 191.427356 
L 118.560119 191.427356 
z
" style="fill:#1f77b4;"/>
   </g>
   <g id="patch_92">
    <path clip-path="url(#pe20c3c86e9)" d="M 119.285677 325.921635 
L 119.866124 325.921635 
L 119.866124 184.978371 
L 119.285677 184.978371 
z
" style="fill:#1f77b4;"/>
   </g>
   <g id="patch_93">
    <path clip-path="url(#pe20c3c86e9)" d="M 120.011236 325.921635 
L 120.591682 325.921635 
L 120.591682 174.841869 
L 120.011236 174.841869 
z
" style="fill:#1f77b4;"/>
   </g>
   <g id="patch_94">
    <path clip-path="url(#pe20c3c86e9)" d="M 120.736794 325.921635 
L 121.317241 325.921635 
L 121.317241 167.825575 
L 120.736794 167.825575 
z
" style="fill:#1f77b4;"/>
   </g>
   <g id="patch_95">
    <path clip-path="url(#pe20c3c86e9)" d="M 121.462353 325.921635 
L 122.042799 325.921635 
L 122.042799 162.244241 
L 121.462353 162.244241 
z
" style="fill:#1f77b4;"/>
   </g>
   <g id="patch_96">
    <path clip-path="url(#pe20c3c86e9)" d="M 122.187911 325.921635 
L 122.768358 325.921635 
L 122.768358 153.567729 
L 122.187911 153.567729 
z
" style="fill:#1f77b4;"/>
   </g>
   <g id="patch_97">
    <path clip-path="url(#pe20c3c86e9)" d="M 122.91347 325.921635 
L 123.493916 325.921635 
L 123.493916 142.680375 
L 122.91347 142.680375 
z
" style="fill:#1f77b4;"/>
   </g>
   <g id="patch_98">
    <path clip-path="url(#pe20c3c86e9)" d="M 123.639028 325.921635 
L 124.219475 325.921635 
L 124.219475 131.167311 
L 123.639028 131.167311 
z
" style="fill:#1f77b4;"/>
   </g>
   <g id="patch_99">
    <path clip-path="url(#pe20c3c86e9)" d="M 124.364587 325.921635 
L 124.945033 325.921635 
L 124.945033 123.783933 
L 124.364587 123.783933 
z
" style="fill:#1f77b4;"/>
   </g>
   <g id="patch_100">
    <path clip-path="url(#pe20c3c86e9)" d="M 125.090145 325.921635 
L 125.670592 325.921635 
L 125.670592 115.207535 
L 125.090145 115.207535 
z
" style="fill:#1f77b4;"/>
   </g>
   <g id="patch_101">
    <path clip-path="url(#pe20c3c86e9)" d="M 125.815704 325.921635 
L 126.39615 325.921635 
L 126.39615 109.576145 
L 125.815704 109.576145 
z
" style="fill:#1f77b4;"/>
   </g>
   <g id="patch_102">
    <path clip-path="url(#pe20c3c86e9)" d="M 126.541262 325.921635 
L 127.121709 325.921635 
L 127.121709 105.32966 
L 126.541262 105.32966 
z
" style="fill:#1f77b4;"/>
   </g>
   <g id="patch_103">
    <path clip-path="url(#pe20c3c86e9)" d="M 127.26682 325.921635 
L 127.847267 325.921635 
L 127.847267 95.818868 
L 127.26682 95.818868 
z
" style="fill:#1f77b4;"/>
   </g>
   <g id="patch_104">
    <path clip-path="url(#pe20c3c86e9)" d="M 127.992379 325.921635 
L 128.572826 325.921635 
L 128.572826 84.380889 
L 127.992379 84.380889 
z
" style="fill:#1f77b4;"/>
   </g>
   <g id="patch_105">
    <path clip-path="url(#pe20c3c86e9)" d="M 128.717937 325.921635 
L 129.298384 325.921635 
L 129.298384 71.95846 
L 128.717937 71.95846 
z
" style="fill:#1f77b4;"/>
   </g>
   <g id="patch_106">
    <path clip-path="url(#pe20c3c86e9)" d="M 129.443496 325.921635 
L 130.023943 325.921635 
L 130.023943 61.696816 
L 129.443496 61.696816 
z
" style="fill:#1f77b4;"/>
   </g>
   <g id="patch_107">
    <path clip-path="url(#pe20c3c86e9)" d="M 130.169054 325.921635 
L 130.749501 325.921635 
L 130.749501 49.424557 
L 130.169054 49.424557 
z
" style="fill:#1f77b4;"/>
   </g>
   <g id="patch_108">
    <path clip-path="url(#pe20c3c86e9)" d="M 130.894613 325.921635 
L 131.47506 325.921635 
L 131.47506 40.464389 
L 130.894613 40.464389 
z
" style="fill:#1f77b4;"/>
   </g>
   <g id="patch_109">
    <path clip-path="url(#pe20c3c86e9)" d="M 131.620171 325.921635 
L 132.200618 325.921635 
L 132.200618 35.108312 
L 131.620171 35.108312 
z
" style="fill:#1f77b4;"/>
   </g>
   <g id="matplotlib.axis_1">
    <g id="xtick_1">
     <g id="line2d_1">
      <defs>
       <path d="M 0 0 
L 0 3.5 
" id="md890cb0e05" style="stroke:#000000;stroke-width:0.8;"/>
      </defs>
      <g>
       <use style="stroke:#000000;stroke-width:0.8;" x="55.001196" xlink:href="#md890cb0e05" y="325.921635"/>
      </g>
     </g>
     <g id="text_1">
      <!-- 0 -->
      <defs>
       <path d="M 31.78125 66.40625 
Q 24.171875 66.40625 20.328125 58.90625 
Q 16.5 51.421875 16.5 36.375 
Q 16.5 21.390625 20.328125 13.890625 
Q 24.171875 6.390625 31.78125 6.390625 
Q 39.453125 6.390625 43.28125 13.890625 
Q 47.125 21.390625 47.125 36.375 
Q 47.125 51.421875 43.28125 58.90625 
Q 39.453125 66.40625 31.78125 66.40625 
z
M 31.78125 74.21875 
Q 44.046875 74.21875 50.515625 64.515625 
Q 56.984375 54.828125 56.984375 36.375 
Q 56.984375 17.96875 50.515625 8.265625 
Q 44.046875 -1.421875 31.78125 -1.421875 
Q 19.53125 -1.421875 13.0625 8.265625 
Q 6.59375 17.96875 6.59375 36.375 
Q 6.59375 54.828125 13.0625 64.515625 
Q 19.53125 74.21875 31.78125 74.21875 
z
" id="DejaVuSans-48"/>
      </defs>
      <g transform="translate(51.819946 340.520072)scale(0.1 -0.1)">
       <use xlink:href="#DejaVuSans-48"/>
      </g>
     </g>
    </g>
    <g id="xtick_2">
     <g id="line2d_2">
      <g>
       <use style="stroke:#000000;stroke-width:0.8;" x="127.557044" xlink:href="#md890cb0e05" y="325.921635"/>
      </g>
     </g>
     <g id="text_2">
      <!-- 100 -->
      <defs>
       <path d="M 12.40625 8.296875 
L 28.515625 8.296875 
L 28.515625 63.921875 
L 10.984375 60.40625 
L 10.984375 69.390625 
L 28.421875 72.90625 
L 38.28125 72.90625 
L 38.28125 8.296875 
L 54.390625 8.296875 
L 54.390625 0 
L 12.40625 0 
z
" id="DejaVuSans-49"/>
      </defs>
      <g transform="translate(118.013294 340.520072)scale(0.1 -0.1)">
       <use xlink:href="#DejaVuSans-49"/>
       <use x="63.623047" xlink:href="#DejaVuSans-48"/>
       <use x="127.246094" xlink:href="#DejaVuSans-48"/>
      </g>
     </g>
    </g>
   </g>
   <g id="matplotlib.axis_2">
    <g id="ytick_1">
     <g id="line2d_3">
      <defs>
       <path d="M 0 0 
L -3.5 0 
" id="m60b7b5f57a" style="stroke:#000000;stroke-width:0.8;"/>
      </defs>
      <g>
       <use style="stroke:#000000;stroke-width:0.8;" x="50.83649" xlink:href="#m60b7b5f57a" y="325.921635"/>
      </g>
     </g>
     <g id="text_3">
      <!-- 0 -->
      <g transform="translate(37.47399 329.720854)scale(0.1 -0.1)">
       <use xlink:href="#DejaVuSans-48"/>
      </g>
     </g>
    </g>
    <g id="ytick_2">
     <g id="line2d_4">
      <g>
       <use style="stroke:#000000;stroke-width:0.8;" x="50.83649" xlink:href="#m60b7b5f57a" y="284.207635"/>
      </g>
     </g>
     <g id="text_4">
      <!-- 5000 -->
      <defs>
       <path d="M 10.796875 72.90625 
L 49.515625 72.90625 
L 49.515625 64.59375 
L 19.828125 64.59375 
L 19.828125 46.734375 
Q 21.96875 47.46875 24.109375 47.828125 
Q 26.265625 48.1875 28.421875 48.1875 
Q 40.625 48.1875 47.75 41.5 
Q 54.890625 34.8125 54.890625 23.390625 
Q 54.890625 11.625 47.5625 5.09375 
Q 40.234375 -1.421875 26.90625 -1.421875 
Q 22.3125 -1.421875 17.546875 -0.640625 
Q 12.796875 0.140625 7.71875 1.703125 
L 7.71875 11.625 
Q 12.109375 9.234375 16.796875 8.0625 
Q 21.484375 6.890625 26.703125 6.890625 
Q 35.15625 6.890625 40.078125 11.328125 
Q 45.015625 15.765625 45.015625 23.390625 
Q 45.015625 31 40.078125 35.4375 
Q 35.15625 39.890625 26.703125 39.890625 
Q 22.75 39.890625 18.8125 39.015625 
Q 14.890625 38.140625 10.796875 36.28125 
z
" id="DejaVuSans-53"/>
      </defs>
      <g transform="translate(18.38649 288.006854)scale(0.1 -0.1)">
       <use xlink:href="#DejaVuSans-53"/>
       <use x="63.623047" xlink:href="#DejaVuSans-48"/>
       <use x="127.246094" xlink:href="#DejaVuSans-48"/>
       <use x="190.869141" xlink:href="#DejaVuSans-48"/>
      </g>
     </g>
    </g>
    <g id="ytick_3">
     <g id="line2d_5">
      <g>
       <use style="stroke:#000000;stroke-width:0.8;" x="50.83649" xlink:href="#m60b7b5f57a" y="242.493635"/>
      </g>
     </g>
     <g id="text_5">
      <!-- 10000 -->
      <g transform="translate(12.02399 246.292854)scale(0.1 -0.1)">
       <use xlink:href="#DejaVuSans-49"/>
       <use x="63.623047" xlink:href="#DejaVuSans-48"/>
       <use x="127.246094" xlink:href="#DejaVuSans-48"/>
       <use x="190.869141" xlink:href="#DejaVuSans-48"/>
       <use x="254.492188" xlink:href="#DejaVuSans-48"/>
      </g>
     </g>
    </g>
    <g id="ytick_4">
     <g id="line2d_6">
      <g>
       <use style="stroke:#000000;stroke-width:0.8;" x="50.83649" xlink:href="#m60b7b5f57a" y="200.779635"/>
      </g>
     </g>
     <g id="text_6">
      <!-- 15000 -->
      <g transform="translate(12.02399 204.578853)scale(0.1 -0.1)">
       <use xlink:href="#DejaVuSans-49"/>
       <use x="63.623047" xlink:href="#DejaVuSans-53"/>
       <use x="127.246094" xlink:href="#DejaVuSans-48"/>
       <use x="190.869141" xlink:href="#DejaVuSans-48"/>
       <use x="254.492188" xlink:href="#DejaVuSans-48"/>
      </g>
     </g>
    </g>
    <g id="ytick_5">
     <g id="line2d_7">
      <g>
       <use style="stroke:#000000;stroke-width:0.8;" x="50.83649" xlink:href="#m60b7b5f57a" y="159.065635"/>
      </g>
     </g>
     <g id="text_7">
      <!-- 20000 -->
      <defs>
       <path d="M 19.1875 8.296875 
L 53.609375 8.296875 
L 53.609375 0 
L 7.328125 0 
L 7.328125 8.296875 
Q 12.9375 14.109375 22.625 23.890625 
Q 32.328125 33.6875 34.8125 36.53125 
Q 39.546875 41.84375 41.421875 45.53125 
Q 43.3125 49.21875 43.3125 52.78125 
Q 43.3125 58.59375 39.234375 62.25 
Q 35.15625 65.921875 28.609375 65.921875 
Q 23.96875 65.921875 18.8125 64.3125 
Q 13.671875 62.703125 7.8125 59.421875 
L 7.8125 69.390625 
Q 13.765625 71.78125 18.9375 73 
Q 24.125 74.21875 28.421875 74.21875 
Q 39.75 74.21875 46.484375 68.546875 
Q 53.21875 62.890625 53.21875 53.421875 
Q 53.21875 48.921875 51.53125 44.890625 
Q 49.859375 40.875 45.40625 35.40625 
Q 44.1875 33.984375 37.640625 27.21875 
Q 31.109375 20.453125 19.1875 8.296875 
z
" id="DejaVuSans-50"/>
      </defs>
      <g transform="translate(12.02399 162.864853)scale(0.1 -0.1)">
       <use xlink:href="#DejaVuSans-50"/>
       <use x="63.623047" xlink:href="#DejaVuSans-48"/>
       <use x="127.246094" xlink:href="#DejaVuSans-48"/>
       <use x="190.869141" xlink:href="#DejaVuSans-48"/>
       <use x="254.492188" xlink:href="#DejaVuSans-48"/>
      </g>
     </g>
    </g>
    <g id="ytick_6">
     <g id="line2d_8">
      <g>
       <use style="stroke:#000000;stroke-width:0.8;" x="50.83649" xlink:href="#m60b7b5f57a" y="117.351634"/>
      </g>
     </g>
     <g id="text_8">
      <!-- 25000 -->
      <g transform="translate(12.02399 121.150853)scale(0.1 -0.1)">
       <use xlink:href="#DejaVuSans-50"/>
       <use x="63.623047" xlink:href="#DejaVuSans-53"/>
       <use x="127.246094" xlink:href="#DejaVuSans-48"/>
       <use x="190.869141" xlink:href="#DejaVuSans-48"/>
       <use x="254.492188" xlink:href="#DejaVuSans-48"/>
      </g>
     </g>
    </g>
    <g id="ytick_7">
     <g id="line2d_9">
      <g>
       <use style="stroke:#000000;stroke-width:0.8;" x="50.83649" xlink:href="#m60b7b5f57a" y="75.637634"/>
      </g>
     </g>
     <g id="text_9">
      <!-- 30000 -->
      <defs>
       <path d="M 40.578125 39.3125 
Q 47.65625 37.796875 51.625 33 
Q 55.609375 28.21875 55.609375 21.1875 
Q 55.609375 10.40625 48.1875 4.484375 
Q 40.765625 -1.421875 27.09375 -1.421875 
Q 22.515625 -1.421875 17.65625 -0.515625 
Q 12.796875 0.390625 7.625 2.203125 
L 7.625 11.71875 
Q 11.71875 9.328125 16.59375 8.109375 
Q 21.484375 6.890625 26.8125 6.890625 
Q 36.078125 6.890625 40.9375 10.546875 
Q 45.796875 14.203125 45.796875 21.1875 
Q 45.796875 27.640625 41.28125 31.265625 
Q 36.765625 34.90625 28.71875 34.90625 
L 20.21875 34.90625 
L 20.21875 43.015625 
L 29.109375 43.015625 
Q 36.375 43.015625 40.234375 45.921875 
Q 44.09375 48.828125 44.09375 54.296875 
Q 44.09375 59.90625 40.109375 62.90625 
Q 36.140625 65.921875 28.71875 65.921875 
Q 24.65625 65.921875 20.015625 65.03125 
Q 15.375 64.15625 9.8125 62.3125 
L 9.8125 71.09375 
Q 15.4375 72.65625 20.34375 73.4375 
Q 25.25 74.21875 29.59375 74.21875 
Q 40.828125 74.21875 47.359375 69.109375 
Q 53.90625 64.015625 53.90625 55.328125 
Q 53.90625 49.265625 50.4375 45.09375 
Q 46.96875 40.921875 40.578125 39.3125 
z
" id="DejaVuSans-51"/>
      </defs>
      <g transform="translate(12.02399 79.436853)scale(0.1 -0.1)">
       <use xlink:href="#DejaVuSans-51"/>
       <use x="63.623047" xlink:href="#DejaVuSans-48"/>
       <use x="127.246094" xlink:href="#DejaVuSans-48"/>
       <use x="190.869141" xlink:href="#DejaVuSans-48"/>
       <use x="254.492188" xlink:href="#DejaVuSans-48"/>
      </g>
     </g>
    </g>
    <g id="ytick_8">
     <g id="line2d_10">
      <g>
       <use style="stroke:#000000;stroke-width:0.8;" x="50.83649" xlink:href="#m60b7b5f57a" y="33.923634"/>
      </g>
     </g>
     <g id="text_10">
      <!-- 35000 -->
      <g transform="translate(12.02399 37.722853)scale(0.1 -0.1)">
       <use xlink:href="#DejaVuSans-51"/>
       <use x="63.623047" xlink:href="#DejaVuSans-53"/>
       <use x="127.246094" xlink:href="#DejaVuSans-48"/>
       <use x="190.869141" xlink:href="#DejaVuSans-48"/>
       <use x="254.492188" xlink:href="#DejaVuSans-48"/>
      </g>
     </g>
    </g>
   </g>
   <g id="line2d_11">
    <path clip-path="url(#pe20c3c86e9)" d="M 55.001196 325.915332 
L 55.726754 325.914637 
L 56.452312 325.913522 
L 57.177871 325.911777 
L 57.903429 325.90905 
L 58.628988 325.904866 
L 59.354546 325.898726 
L 60.080105 325.890116 
L 60.805663 325.878528 
L 61.531222 325.863621 
L 62.25678 325.845198 
L 62.982339 325.823207 
L 63.707897 325.797754 
L 64.433456 325.768984 
L 65.159014 325.736947 
L 65.884573 325.701605 
L 66.610131 325.662595 
L 67.33569 325.619275 
L 68.061248 325.570741 
L 68.786807 325.515847 
L 69.512365 325.453305 
L 70.237924 325.381883 
L 70.963482 325.300432 
L 71.689041 325.207973 
L 72.414599 325.10361 
L 73.140158 324.986546 
L 73.865716 324.855987 
L 74.591275 324.710866 
L 75.316833 324.549291 
L 76.042392 324.368279 
L 76.76795 324.163844 
L 77.493509 323.930788 
L 78.219067 323.662686 
L 78.944625 323.352032 
L 79.670184 322.990967 
L 80.395742 322.573215 
L 81.121301 322.095115 
L 81.846859 321.555359 
L 82.572418 320.956112 
L 83.297976 320.303015 
L 84.023535 319.604999 
L 84.749093 318.873136 
L 85.474652 318.116534 
L 86.20021 317.340084 
L 86.925769 316.545075 
L 87.651327 315.727578 
L 88.376886 314.878367 
L 89.102444 313.982883 
L 89.828003 313.023034 
L 90.553561 311.982765 
L 91.27912 310.850348 
L 92.004678 309.618459 
L 92.730237 308.285129 
L 93.455795 306.853778 
L 94.181354 305.333599 
L 94.906912 303.736997 
L 95.632471 302.074455 
L 96.358029 300.354601 
L 97.083588 298.581869 
L 97.809146 296.756693 
L 98.534705 294.875265 
L 99.260263 292.928658 
L 99.985822 290.905232 
L 100.71138 288.792801 
L 101.436938 286.576007 
L 102.162497 284.240141 
L 102.888055 281.77055 
L 103.613614 279.154171 
L 104.339172 276.381741 
L 105.064731 273.446236 
L 105.790289 270.345209 
L 106.515848 267.084189 
L 107.241406 263.673447 
L 107.966965 260.127367 
L 108.692523 256.462071 
L 109.418082 252.690871 
L 110.14364 248.824649 
L 110.869199 244.867556 
L 111.594757 240.813087 
L 112.320316 236.64521 
L 113.045874 232.339123 
L 113.771433 227.860419 
L 114.496991 223.171185 
L 115.22255 218.23074 
L 115.948108 212.997803 
L 116.673667 207.436803 
L 117.399225 201.520243 
L 118.124784 195.231669 
L 118.850342 188.571808 
L 119.575901 181.5548 
L 120.301459 174.208873 
L 121.027018 166.575506 
L 121.752576 158.700782 
L 122.478135 150.629538 
L 123.203693 142.399472 
L 123.929251 134.034215 
L 124.65481 125.544667 
L 125.380368 116.930106 
L 126.105927 108.176827 
L 126.831485 99.267533 
L 127.557044 90.191234 
L 128.282602 80.944524 
L 129.008161 71.533567 
L 129.733719 61.97645 
L 130.459278 52.318615 
L 131.184836 42.577067 
L 131.910395 32.775664 
" style="fill:none;stroke:#ff0000;stroke-linecap:square;stroke-width:1.5;"/>
   </g>
   <g id="patch_110">
    <path d="M 50.83649 325.921635 
L 50.83649 18.118365 
" style="fill:none;stroke:#000000;stroke-linecap:square;stroke-linejoin:miter;stroke-width:0.8;"/>
   </g>
   <g id="patch_111">
    <path d="M 136.0751 325.921635 
L 136.0751 18.118365 
" style="fill:none;stroke:#000000;stroke-linecap:square;stroke-linejoin:miter;stroke-width:0.8;"/>
   </g>
   <g id="patch_112">
    <path d="M 50.83649 325.921635 
L 136.0751 325.921635 
" style="fill:none;stroke:#000000;stroke-linecap:square;stroke-linejoin:miter;stroke-width:0.8;"/>
   </g>
   <g id="patch_113">
    <path d="M 50.83649 18.118365 
L 136.0751 18.118365 
" style="fill:none;stroke:#000000;stroke-linecap:square;stroke-linejoin:miter;stroke-width:0.8;"/>
   </g>
   <g id="text_11">
    <!-- Casos acumulados - ES - (data) -->
    <defs>
     <path d="M 64.40625 67.28125 
L 64.40625 56.890625 
Q 59.421875 61.53125 53.78125 63.8125 
Q 48.140625 66.109375 41.796875 66.109375 
Q 29.296875 66.109375 22.65625 58.46875 
Q 16.015625 50.828125 16.015625 36.375 
Q 16.015625 21.96875 22.65625 14.328125 
Q 29.296875 6.6875 41.796875 6.6875 
Q 48.140625 6.6875 53.78125 8.984375 
Q 59.421875 11.28125 64.40625 15.921875 
L 64.40625 5.609375 
Q 59.234375 2.09375 53.4375 0.328125 
Q 47.65625 -1.421875 41.21875 -1.421875 
Q 24.65625 -1.421875 15.125 8.703125 
Q 5.609375 18.84375 5.609375 36.375 
Q 5.609375 53.953125 15.125 64.078125 
Q 24.65625 74.21875 41.21875 74.21875 
Q 47.75 74.21875 53.53125 72.484375 
Q 59.328125 70.75 64.40625 67.28125 
z
" id="DejaVuSans-67"/>
     <path d="M 34.28125 27.484375 
Q 23.390625 27.484375 19.1875 25 
Q 14.984375 22.515625 14.984375 16.5 
Q 14.984375 11.71875 18.140625 8.90625 
Q 21.296875 6.109375 26.703125 6.109375 
Q 34.1875 6.109375 38.703125 11.40625 
Q 43.21875 16.703125 43.21875 25.484375 
L 43.21875 27.484375 
z
M 52.203125 31.203125 
L 52.203125 0 
L 43.21875 0 
L 43.21875 8.296875 
Q 40.140625 3.328125 35.546875 0.953125 
Q 30.953125 -1.421875 24.3125 -1.421875 
Q 15.921875 -1.421875 10.953125 3.296875 
Q 6 8.015625 6 15.921875 
Q 6 25.140625 12.171875 29.828125 
Q 18.359375 34.515625 30.609375 34.515625 
L 43.21875 34.515625 
L 43.21875 35.40625 
Q 43.21875 41.609375 39.140625 45 
Q 35.0625 48.390625 27.6875 48.390625 
Q 23 48.390625 18.546875 47.265625 
Q 14.109375 46.140625 10.015625 43.890625 
L 10.015625 52.203125 
Q 14.9375 54.109375 19.578125 55.046875 
Q 24.21875 56 28.609375 56 
Q 40.484375 56 46.34375 49.84375 
Q 52.203125 43.703125 52.203125 31.203125 
z
" id="DejaVuSans-97"/>
     <path d="M 44.28125 53.078125 
L 44.28125 44.578125 
Q 40.484375 46.53125 36.375 47.5 
Q 32.28125 48.484375 27.875 48.484375 
Q 21.1875 48.484375 17.84375 46.4375 
Q 14.5 44.390625 14.5 40.28125 
Q 14.5 37.15625 16.890625 35.375 
Q 19.28125 33.59375 26.515625 31.984375 
L 29.59375 31.296875 
Q 39.15625 29.25 43.1875 25.515625 
Q 47.21875 21.78125 47.21875 15.09375 
Q 47.21875 7.46875 41.1875 3.015625 
Q 35.15625 -1.421875 24.609375 -1.421875 
Q 20.21875 -1.421875 15.453125 -0.5625 
Q 10.6875 0.296875 5.421875 2 
L 5.421875 11.28125 
Q 10.40625 8.6875 15.234375 7.390625 
Q 20.0625 6.109375 24.8125 6.109375 
Q 31.15625 6.109375 34.5625 8.28125 
Q 37.984375 10.453125 37.984375 14.40625 
Q 37.984375 18.0625 35.515625 20.015625 
Q 33.0625 21.96875 24.703125 23.78125 
L 21.578125 24.515625 
Q 13.234375 26.265625 9.515625 29.90625 
Q 5.8125 33.546875 5.8125 39.890625 
Q 5.8125 47.609375 11.28125 51.796875 
Q 16.75 56 26.8125 56 
Q 31.78125 56 36.171875 55.265625 
Q 40.578125 54.546875 44.28125 53.078125 
z
" id="DejaVuSans-115"/>
     <path d="M 30.609375 48.390625 
Q 23.390625 48.390625 19.1875 42.75 
Q 14.984375 37.109375 14.984375 27.296875 
Q 14.984375 17.484375 19.15625 11.84375 
Q 23.34375 6.203125 30.609375 6.203125 
Q 37.796875 6.203125 41.984375 11.859375 
Q 46.1875 17.53125 46.1875 27.296875 
Q 46.1875 37.015625 41.984375 42.703125 
Q 37.796875 48.390625 30.609375 48.390625 
z
M 30.609375 56 
Q 42.328125 56 49.015625 48.375 
Q 55.71875 40.765625 55.71875 27.296875 
Q 55.71875 13.875 49.015625 6.21875 
Q 42.328125 -1.421875 30.609375 -1.421875 
Q 18.84375 -1.421875 12.171875 6.21875 
Q 5.515625 13.875 5.515625 27.296875 
Q 5.515625 40.765625 12.171875 48.375 
Q 18.84375 56 30.609375 56 
z
" id="DejaVuSans-111"/>
     <path id="DejaVuSans-32"/>
     <path d="M 48.78125 52.59375 
L 48.78125 44.1875 
Q 44.96875 46.296875 41.140625 47.34375 
Q 37.3125 48.390625 33.40625 48.390625 
Q 24.65625 48.390625 19.8125 42.84375 
Q 14.984375 37.3125 14.984375 27.296875 
Q 14.984375 17.28125 19.8125 11.734375 
Q 24.65625 6.203125 33.40625 6.203125 
Q 37.3125 6.203125 41.140625 7.25 
Q 44.96875 8.296875 48.78125 10.40625 
L 48.78125 2.09375 
Q 45.015625 0.34375 40.984375 -0.53125 
Q 36.96875 -1.421875 32.421875 -1.421875 
Q 20.0625 -1.421875 12.78125 6.34375 
Q 5.515625 14.109375 5.515625 27.296875 
Q 5.515625 40.671875 12.859375 48.328125 
Q 20.21875 56 33.015625 56 
Q 37.15625 56 41.109375 55.140625 
Q 45.0625 54.296875 48.78125 52.59375 
z
" id="DejaVuSans-99"/>
     <path d="M 8.5 21.578125 
L 8.5 54.6875 
L 17.484375 54.6875 
L 17.484375 21.921875 
Q 17.484375 14.15625 20.5 10.265625 
Q 23.53125 6.390625 29.59375 6.390625 
Q 36.859375 6.390625 41.078125 11.03125 
Q 45.3125 15.671875 45.3125 23.6875 
L 45.3125 54.6875 
L 54.296875 54.6875 
L 54.296875 0 
L 45.3125 0 
L 45.3125 8.40625 
Q 42.046875 3.421875 37.71875 1 
Q 33.40625 -1.421875 27.6875 -1.421875 
Q 18.265625 -1.421875 13.375 4.4375 
Q 8.5 10.296875 8.5 21.578125 
z
M 31.109375 56 
z
" id="DejaVuSans-117"/>
     <path d="M 52 44.1875 
Q 55.375 50.25 60.0625 53.125 
Q 64.75 56 71.09375 56 
Q 79.640625 56 84.28125 50.015625 
Q 88.921875 44.046875 88.921875 33.015625 
L 88.921875 0 
L 79.890625 0 
L 79.890625 32.71875 
Q 79.890625 40.578125 77.09375 44.375 
Q 74.3125 48.1875 68.609375 48.1875 
Q 61.625 48.1875 57.5625 43.546875 
Q 53.515625 38.921875 53.515625 30.90625 
L 53.515625 0 
L 44.484375 0 
L 44.484375 32.71875 
Q 44.484375 40.625 41.703125 44.40625 
Q 38.921875 48.1875 33.109375 48.1875 
Q 26.21875 48.1875 22.15625 43.53125 
Q 18.109375 38.875 18.109375 30.90625 
L 18.109375 0 
L 9.078125 0 
L 9.078125 54.6875 
L 18.109375 54.6875 
L 18.109375 46.1875 
Q 21.1875 51.21875 25.484375 53.609375 
Q 29.78125 56 35.6875 56 
Q 41.65625 56 45.828125 52.96875 
Q 50 49.953125 52 44.1875 
z
" id="DejaVuSans-109"/>
     <path d="M 9.421875 75.984375 
L 18.40625 75.984375 
L 18.40625 0 
L 9.421875 0 
z
" id="DejaVuSans-108"/>
     <path d="M 45.40625 46.390625 
L 45.40625 75.984375 
L 54.390625 75.984375 
L 54.390625 0 
L 45.40625 0 
L 45.40625 8.203125 
Q 42.578125 3.328125 38.25 0.953125 
Q 33.9375 -1.421875 27.875 -1.421875 
Q 17.96875 -1.421875 11.734375 6.484375 
Q 5.515625 14.40625 5.515625 27.296875 
Q 5.515625 40.1875 11.734375 48.09375 
Q 17.96875 56 27.875 56 
Q 33.9375 56 38.25 53.625 
Q 42.578125 51.265625 45.40625 46.390625 
z
M 14.796875 27.296875 
Q 14.796875 17.390625 18.875 11.75 
Q 22.953125 6.109375 30.078125 6.109375 
Q 37.203125 6.109375 41.296875 11.75 
Q 45.40625 17.390625 45.40625 27.296875 
Q 45.40625 37.203125 41.296875 42.84375 
Q 37.203125 48.484375 30.078125 48.484375 
Q 22.953125 48.484375 18.875 42.84375 
Q 14.796875 37.203125 14.796875 27.296875 
z
" id="DejaVuSans-100"/>
     <path d="M 4.890625 31.390625 
L 31.203125 31.390625 
L 31.203125 23.390625 
L 4.890625 23.390625 
z
" id="DejaVuSans-45"/>
     <path d="M 9.8125 72.90625 
L 55.90625 72.90625 
L 55.90625 64.59375 
L 19.671875 64.59375 
L 19.671875 43.015625 
L 54.390625 43.015625 
L 54.390625 34.71875 
L 19.671875 34.71875 
L 19.671875 8.296875 
L 56.78125 8.296875 
L 56.78125 0 
L 9.8125 0 
z
" id="DejaVuSans-69"/>
     <path d="M 53.515625 70.515625 
L 53.515625 60.890625 
Q 47.90625 63.578125 42.921875 64.890625 
Q 37.9375 66.21875 33.296875 66.21875 
Q 25.25 66.21875 20.875 63.09375 
Q 16.5 59.96875 16.5 54.203125 
Q 16.5 49.359375 19.40625 46.890625 
Q 22.3125 44.4375 30.421875 42.921875 
L 36.375 41.703125 
Q 47.40625 39.59375 52.65625 34.296875 
Q 57.90625 29 57.90625 20.125 
Q 57.90625 9.515625 50.796875 4.046875 
Q 43.703125 -1.421875 29.984375 -1.421875 
Q 24.8125 -1.421875 18.96875 -0.25 
Q 13.140625 0.921875 6.890625 3.21875 
L 6.890625 13.375 
Q 12.890625 10.015625 18.65625 8.296875 
Q 24.421875 6.59375 29.984375 6.59375 
Q 38.421875 6.59375 43.015625 9.90625 
Q 47.609375 13.234375 47.609375 19.390625 
Q 47.609375 24.75 44.3125 27.78125 
Q 41.015625 30.8125 33.5 32.328125 
L 27.484375 33.5 
Q 16.453125 35.6875 11.515625 40.375 
Q 6.59375 45.0625 6.59375 53.421875 
Q 6.59375 63.09375 13.40625 68.65625 
Q 20.21875 74.21875 32.171875 74.21875 
Q 37.3125 74.21875 42.625 73.28125 
Q 47.953125 72.359375 53.515625 70.515625 
z
" id="DejaVuSans-83"/>
     <path d="M 31 75.875 
Q 24.46875 64.65625 21.28125 53.65625 
Q 18.109375 42.671875 18.109375 31.390625 
Q 18.109375 20.125 21.3125 9.0625 
Q 24.515625 -2 31 -13.1875 
L 23.1875 -13.1875 
Q 15.875 -1.703125 12.234375 9.375 
Q 8.59375 20.453125 8.59375 31.390625 
Q 8.59375 42.28125 12.203125 53.3125 
Q 15.828125 64.359375 23.1875 75.875 
z
" id="DejaVuSans-40"/>
     <path d="M 18.3125 70.21875 
L 18.3125 54.6875 
L 36.8125 54.6875 
L 36.8125 47.703125 
L 18.3125 47.703125 
L 18.3125 18.015625 
Q 18.3125 11.328125 20.140625 9.421875 
Q 21.96875 7.515625 27.59375 7.515625 
L 36.8125 7.515625 
L 36.8125 0 
L 27.59375 0 
Q 17.1875 0 13.234375 3.875 
Q 9.28125 7.765625 9.28125 18.015625 
L 9.28125 47.703125 
L 2.6875 47.703125 
L 2.6875 54.6875 
L 9.28125 54.6875 
L 9.28125 70.21875 
z
" id="DejaVuSans-116"/>
     <path d="M 8.015625 75.875 
L 15.828125 75.875 
Q 23.140625 64.359375 26.78125 53.3125 
Q 30.421875 42.28125 30.421875 31.390625 
Q 30.421875 20.453125 26.78125 9.375 
Q 23.140625 -1.703125 15.828125 -13.1875 
L 8.015625 -13.1875 
Q 14.5 -2 17.703125 9.0625 
Q 20.90625 20.125 20.90625 31.390625 
Q 20.90625 42.671875 17.703125 53.65625 
Q 14.5 64.65625 8.015625 75.875 
z
" id="DejaVuSans-41"/>
    </defs>
    <g transform="translate(-0.369205 12.118365)scale(0.12 -0.12)">
     <use xlink:href="#DejaVuSans-67"/>
     <use x="69.824219" xlink:href="#DejaVuSans-97"/>
     <use x="131.103516" xlink:href="#DejaVuSans-115"/>
     <use x="183.203125" xlink:href="#DejaVuSans-111"/>
     <use x="244.384766" xlink:href="#DejaVuSans-115"/>
     <use x="296.484375" xlink:href="#DejaVuSans-32"/>
     <use x="328.271484" xlink:href="#DejaVuSans-97"/>
     <use x="389.550781" xlink:href="#DejaVuSans-99"/>
     <use x="444.53125" xlink:href="#DejaVuSans-117"/>
     <use x="507.910156" xlink:href="#DejaVuSans-109"/>
     <use x="605.322266" xlink:href="#DejaVuSans-117"/>
     <use x="668.701172" xlink:href="#DejaVuSans-108"/>
     <use x="696.484375" xlink:href="#DejaVuSans-97"/>
     <use x="757.763672" xlink:href="#DejaVuSans-100"/>
     <use x="821.240234" xlink:href="#DejaVuSans-111"/>
     <use x="882.421875" xlink:href="#DejaVuSans-115"/>
     <use x="934.521484" xlink:href="#DejaVuSans-32"/>
     <use x="966.308594" xlink:href="#DejaVuSans-45"/>
     <use x="1002.392578" xlink:href="#DejaVuSans-32"/>
     <use x="1034.179688" xlink:href="#DejaVuSans-69"/>
     <use x="1097.363281" xlink:href="#DejaVuSans-83"/>
     <use x="1160.839844" xlink:href="#DejaVuSans-32"/>
     <use x="1192.626953" xlink:href="#DejaVuSans-45"/>
     <use x="1228.710938" xlink:href="#DejaVuSans-32"/>
     <use x="1260.498047" xlink:href="#DejaVuSans-40"/>
     <use x="1299.511719" xlink:href="#DejaVuSans-100"/>
     <use x="1362.988281" xlink:href="#DejaVuSans-97"/>
     <use x="1424.267578" xlink:href="#DejaVuSans-116"/>
     <use x="1463.476562" xlink:href="#DejaVuSans-97"/>
     <use x="1524.755859" xlink:href="#DejaVuSans-41"/>
    </g>
   </g>
  </g>
  <g id="axes_2">
   <g id="patch_114">
    <path d="M 225.43383 325.921635 
L 310.672441 325.921635 
L 310.672441 18.118365 
L 225.43383 18.118365 
z
" style="fill:#ffffff;"/>
   </g>
   <g id="patch_115">
    <path clip-path="url(#p3a10676c25)" d="M 229.308313 325.921635 
L 229.888759 325.921635 
L 229.888759 325.921635 
L 229.308313 325.921635 
z
" style="fill:#1f77b4;"/>
   </g>
   <g id="patch_116">
    <path clip-path="url(#p3a10676c25)" d="M 230.033871 325.921635 
L 230.614318 325.921635 
L 230.614318 325.921635 
L 230.033871 325.921635 
z
" style="fill:#1f77b4;"/>
   </g>
   <g id="patch_117">
    <path clip-path="url(#p3a10676c25)" d="M 230.75943 325.921635 
L 231.339876 325.921635 
L 231.339876 325.921635 
L 230.75943 325.921635 
z
" style="fill:#1f77b4;"/>
   </g>
   <g id="patch_118">
    <path clip-path="url(#p3a10676c25)" d="M 231.484988 325.921635 
L 232.065435 325.921635 
L 232.065435 325.921635 
L 231.484988 325.921635 
z
" style="fill:#1f77b4;"/>
   </g>
   <g id="patch_119">
    <path clip-path="url(#p3a10676c25)" d="M 232.210547 325.921635 
L 232.790993 325.921635 
L 232.790993 325.921635 
L 232.210547 325.921635 
z
" style="fill:#1f77b4;"/>
   </g>
   <g id="patch_120">
    <path clip-path="url(#p3a10676c25)" d="M 232.936105 325.921635 
L 233.516552 325.921635 
L 233.516552 325.921635 
L 232.936105 325.921635 
z
" style="fill:#1f77b4;"/>
   </g>
   <g id="patch_121">
    <path clip-path="url(#p3a10676c25)" d="M 233.661664 325.921635 
L 234.24211 325.921635 
L 234.24211 325.921635 
L 233.661664 325.921635 
z
" style="fill:#1f77b4;"/>
   </g>
   <g id="patch_122">
    <path clip-path="url(#p3a10676c25)" d="M 234.387222 325.921635 
L 234.967669 325.921635 
L 234.967669 325.921635 
L 234.387222 325.921635 
z
" style="fill:#1f77b4;"/>
   </g>
   <g id="patch_123">
    <path clip-path="url(#p3a10676c25)" d="M 235.11278 325.921635 
L 235.693227 325.921635 
L 235.693227 325.921635 
L 235.11278 325.921635 
z
" style="fill:#1f77b4;"/>
   </g>
   <g id="patch_124">
    <path clip-path="url(#p3a10676c25)" d="M 235.838339 325.921635 
L 236.418786 325.921635 
L 236.418786 325.921635 
L 235.838339 325.921635 
z
" style="fill:#1f77b4;"/>
   </g>
   <g id="patch_125">
    <path clip-path="url(#p3a10676c25)" d="M 236.563897 325.921635 
L 237.144344 325.921635 
L 237.144344 325.921635 
L 236.563897 325.921635 
z
" style="fill:#1f77b4;"/>
   </g>
   <g id="patch_126">
    <path clip-path="url(#p3a10676c25)" d="M 237.289456 325.921635 
L 237.869903 325.921635 
L 237.869903 324.34664 
L 237.289456 324.34664 
z
" style="fill:#1f77b4;"/>
   </g>
   <g id="patch_127">
    <path clip-path="url(#p3a10676c25)" d="M 238.015014 325.921635 
L 238.595461 325.921635 
L 238.595461 325.527886 
L 238.015014 325.527886 
z
" style="fill:#1f77b4;"/>
   </g>
   <g id="patch_128">
    <path clip-path="url(#p3a10676c25)" d="M 238.740573 325.921635 
L 239.32102 325.921635 
L 239.32102 325.527886 
L 238.740573 325.527886 
z
" style="fill:#1f77b4;"/>
   </g>
   <g id="patch_129">
    <path clip-path="url(#p3a10676c25)" d="M 239.466131 325.921635 
L 240.046578 325.921635 
L 240.046578 323.362268 
L 239.466131 323.362268 
z
" style="fill:#1f77b4;"/>
   </g>
   <g id="patch_130">
    <path clip-path="url(#p3a10676c25)" d="M 240.19169 325.921635 
L 240.772137 325.921635 
L 240.772137 325.921635 
L 240.19169 325.921635 
z
" style="fill:#1f77b4;"/>
   </g>
   <g id="patch_131">
    <path clip-path="url(#p3a10676c25)" d="M 240.917248 325.921635 
L 241.497695 325.921635 
L 241.497695 325.331012 
L 240.917248 325.331012 
z
" style="fill:#1f77b4;"/>
   </g>
   <g id="patch_132">
    <path clip-path="url(#p3a10676c25)" d="M 241.642807 325.921635 
L 242.223254 325.921635 
L 242.223254 325.134137 
L 241.642807 325.134137 
z
" style="fill:#1f77b4;"/>
   </g>
   <g id="patch_133">
    <path clip-path="url(#p3a10676c25)" d="M 242.368365 325.921635 
L 242.948812 325.921635 
L 242.948812 324.740389 
L 242.368365 324.740389 
z
" style="fill:#1f77b4;"/>
   </g>
   <g id="patch_134">
    <path clip-path="url(#p3a10676c25)" d="M 243.093924 325.921635 
L 243.674371 325.921635 
L 243.674371 325.921635 
L 243.093924 325.921635 
z
" style="fill:#1f77b4;"/>
   </g>
   <g id="patch_135">
    <path clip-path="url(#p3a10676c25)" d="M 243.819482 325.921635 
L 244.399929 325.921635 
L 244.399929 324.34664 
L 243.819482 324.34664 
z
" style="fill:#1f77b4;"/>
   </g>
   <g id="patch_136">
    <path clip-path="url(#p3a10676c25)" d="M 244.545041 325.921635 
L 245.125488 325.921635 
L 245.125488 324.740389 
L 244.545041 324.740389 
z
" style="fill:#1f77b4;"/>
   </g>
   <g id="patch_137">
    <path clip-path="url(#p3a10676c25)" d="M 245.270599 325.921635 
L 245.851046 325.921635 
L 245.851046 324.543514 
L 245.270599 324.543514 
z
" style="fill:#1f77b4;"/>
   </g>
   <g id="patch_138">
    <path clip-path="url(#p3a10676c25)" d="M 245.996158 325.921635 
L 246.576605 325.921635 
L 246.576605 323.559142 
L 245.996158 323.559142 
z
" style="fill:#1f77b4;"/>
   </g>
   <g id="patch_139">
    <path clip-path="url(#p3a10676c25)" d="M 246.721716 325.921635 
L 247.302163 325.921635 
L 247.302163 323.559142 
L 246.721716 323.559142 
z
" style="fill:#1f77b4;"/>
   </g>
   <g id="patch_140">
    <path clip-path="url(#p3a10676c25)" d="M 247.447275 325.921635 
L 248.027721 325.921635 
L 248.027721 323.559142 
L 247.447275 323.559142 
z
" style="fill:#1f77b4;"/>
   </g>
   <g id="patch_141">
    <path clip-path="url(#p3a10676c25)" d="M 248.172833 325.921635 
L 248.75328 325.921635 
L 248.75328 321.19665 
L 248.172833 321.19665 
z
" style="fill:#1f77b4;"/>
   </g>
   <g id="patch_142">
    <path clip-path="url(#p3a10676c25)" d="M 248.898392 325.921635 
L 249.478838 325.921635 
L 249.478838 322.181022 
L 248.898392 322.181022 
z
" style="fill:#1f77b4;"/>
   </g>
   <g id="patch_143">
    <path clip-path="url(#p3a10676c25)" d="M 249.62395 325.921635 
L 250.204397 325.921635 
L 250.204397 323.165393 
L 249.62395 323.165393 
z
" style="fill:#1f77b4;"/>
   </g>
   <g id="patch_144">
    <path clip-path="url(#p3a10676c25)" d="M 250.349509 325.921635 
L 250.929955 325.921635 
L 250.929955 323.362268 
L 250.349509 323.362268 
z
" style="fill:#1f77b4;"/>
   </g>
   <g id="patch_145">
    <path clip-path="url(#p3a10676c25)" d="M 251.075067 325.921635 
L 251.655514 325.921635 
L 251.655514 320.409152 
L 251.075067 320.409152 
z
" style="fill:#1f77b4;"/>
   </g>
   <g id="patch_146">
    <path clip-path="url(#p3a10676c25)" d="M 251.800626 325.921635 
L 252.381072 325.921635 
L 252.381072 322.968519 
L 251.800626 322.968519 
z
" style="fill:#1f77b4;"/>
   </g>
   <g id="patch_147">
    <path clip-path="url(#p3a10676c25)" d="M 252.526184 325.921635 
L 253.106631 325.921635 
L 253.106631 322.377896 
L 252.526184 322.377896 
z
" style="fill:#1f77b4;"/>
   </g>
   <g id="patch_148">
    <path clip-path="url(#p3a10676c25)" d="M 253.251743 325.921635 
L 253.832189 325.921635 
L 253.832189 316.865413 
L 253.251743 316.865413 
z
" style="fill:#1f77b4;"/>
   </g>
   <g id="patch_149">
    <path clip-path="url(#p3a10676c25)" d="M 253.977301 325.921635 
L 254.557748 325.921635 
L 254.557748 320.606026 
L 253.977301 320.606026 
z
" style="fill:#1f77b4;"/>
   </g>
   <g id="patch_150">
    <path clip-path="url(#p3a10676c25)" d="M 254.70286 325.921635 
L 255.283306 325.921635 
L 255.283306 316.27479 
L 254.70286 316.27479 
z
" style="fill:#1f77b4;"/>
   </g>
   <g id="patch_151">
    <path clip-path="url(#p3a10676c25)" d="M 255.428418 325.921635 
L 256.008865 325.921635 
L 256.008865 319.227906 
L 255.428418 319.227906 
z
" style="fill:#1f77b4;"/>
   </g>
   <g id="patch_152">
    <path clip-path="url(#p3a10676c25)" d="M 256.153977 325.921635 
L 256.734423 325.921635 
L 256.734423 316.668539 
L 256.153977 316.668539 
z
" style="fill:#1f77b4;"/>
   </g>
   <g id="patch_153">
    <path clip-path="url(#p3a10676c25)" d="M 256.879535 325.921635 
L 257.459982 325.921635 
L 257.459982 319.42478 
L 256.879535 319.42478 
z
" style="fill:#1f77b4;"/>
   </g>
   <g id="patch_154">
    <path clip-path="url(#p3a10676c25)" d="M 257.605093 325.921635 
L 258.18554 325.921635 
L 258.18554 307.415442 
L 257.605093 307.415442 
z
" style="fill:#1f77b4;"/>
   </g>
   <g id="patch_155">
    <path clip-path="url(#p3a10676c25)" d="M 258.330652 325.921635 
L 258.911099 325.921635 
L 258.911099 287.13738 
L 258.330652 287.13738 
z
" style="fill:#1f77b4;"/>
   </g>
   <g id="patch_156">
    <path clip-path="url(#p3a10676c25)" d="M 259.05621 325.921635 
L 259.636657 325.921635 
L 259.636657 305.840447 
L 259.05621 305.840447 
z
" style="fill:#1f77b4;"/>
   </g>
   <g id="patch_157">
    <path clip-path="url(#p3a10676c25)" d="M 259.781769 325.921635 
L 260.362216 325.921635 
L 260.362216 307.021693 
L 259.781769 307.021693 
z
" style="fill:#1f77b4;"/>
   </g>
   <g id="patch_158">
    <path clip-path="url(#p3a10676c25)" d="M 260.507327 325.921635 
L 261.087774 325.921635 
L 261.087774 296.981099 
L 260.507327 296.981099 
z
" style="fill:#1f77b4;"/>
   </g>
   <g id="patch_159">
    <path clip-path="url(#p3a10676c25)" d="M 261.232886 325.921635 
L 261.813333 325.921635 
L 261.813333 312.337302 
L 261.232886 312.337302 
z
" style="fill:#1f77b4;"/>
   </g>
   <g id="patch_160">
    <path clip-path="url(#p3a10676c25)" d="M 261.958444 325.921635 
L 262.538891 325.921635 
L 262.538891 317.259162 
L 261.958444 317.259162 
z
" style="fill:#1f77b4;"/>
   </g>
   <g id="patch_161">
    <path clip-path="url(#p3a10676c25)" d="M 262.684003 325.921635 
L 263.26445 325.921635 
L 263.26445 306.037321 
L 262.684003 306.037321 
z
" style="fill:#1f77b4;"/>
   </g>
   <g id="patch_162">
    <path clip-path="url(#p3a10676c25)" d="M 263.409561 325.921635 
L 263.990008 325.921635 
L 263.990008 316.077915 
L 263.409561 316.077915 
z
" style="fill:#1f77b4;"/>
   </g>
   <g id="patch_163">
    <path clip-path="url(#p3a10676c25)" d="M 264.13512 325.921635 
L 264.715567 325.921635 
L 264.715567 322.377896 
L 264.13512 322.377896 
z
" style="fill:#1f77b4;"/>
   </g>
   <g id="patch_164">
    <path clip-path="url(#p3a10676c25)" d="M 264.860678 325.921635 
L 265.441125 325.921635 
L 265.441125 283.790515 
L 264.860678 283.790515 
z
" style="fill:#1f77b4;"/>
   </g>
   <g id="patch_165">
    <path clip-path="url(#p3a10676c25)" d="M 265.586237 325.921635 
L 266.166684 325.921635 
L 266.166684 304.659201 
L 265.586237 304.659201 
z
" style="fill:#1f77b4;"/>
   </g>
   <g id="patch_166">
    <path clip-path="url(#p3a10676c25)" d="M 266.311795 325.921635 
L 266.892242 325.921635 
L 266.892242 307.612316 
L 266.311795 307.612316 
z
" style="fill:#1f77b4;"/>
   </g>
   <g id="patch_167">
    <path clip-path="url(#p3a10676c25)" d="M 267.037354 325.921635 
L 267.617801 325.921635 
L 267.617801 310.565432 
L 267.037354 310.565432 
z
" style="fill:#1f77b4;"/>
   </g>
   <g id="patch_168">
    <path clip-path="url(#p3a10676c25)" d="M 267.762912 325.921635 
L 268.343359 325.921635 
L 268.343359 280.049901 
L 267.762912 280.049901 
z
" style="fill:#1f77b4;"/>
   </g>
   <g id="patch_169">
    <path clip-path="url(#p3a10676c25)" d="M 268.488471 325.921635 
L 269.068918 325.921635 
L 269.068918 255.440602 
L 268.488471 255.440602 
z
" style="fill:#1f77b4;"/>
   </g>
   <g id="patch_170">
    <path clip-path="url(#p3a10676c25)" d="M 269.214029 325.921635 
L 269.794476 325.921635 
L 269.794476 287.13738 
L 269.214029 287.13738 
z
" style="fill:#1f77b4;"/>
   </g>
   <g id="patch_171">
    <path clip-path="url(#p3a10676c25)" d="M 269.939588 325.921635 
L 270.520034 325.921635 
L 270.520034 269.615559 
L 269.939588 269.615559 
z
" style="fill:#1f77b4;"/>
   </g>
   <g id="patch_172">
    <path clip-path="url(#p3a10676c25)" d="M 270.665146 325.921635 
L 271.245593 325.921635 
L 271.245593 298.752969 
L 270.665146 298.752969 
z
" style="fill:#1f77b4;"/>
   </g>
   <g id="patch_173">
    <path clip-path="url(#p3a10676c25)" d="M 271.390705 325.921635 
L 271.971151 325.921635 
L 271.971151 298.35922 
L 271.390705 298.35922 
z
" style="fill:#1f77b4;"/>
   </g>
   <g id="patch_174">
    <path clip-path="url(#p3a10676c25)" d="M 272.116263 325.921635 
L 272.69671 325.921635 
L 272.69671 291.271742 
L 272.116263 291.271742 
z
" style="fill:#1f77b4;"/>
   </g>
   <g id="patch_175">
    <path clip-path="url(#p3a10676c25)" d="M 272.841822 325.921635 
L 273.422268 325.921635 
L 273.422268 293.240486 
L 272.841822 293.240486 
z
" style="fill:#1f77b4;"/>
   </g>
   <g id="patch_176">
    <path clip-path="url(#p3a10676c25)" d="M 273.56738 325.921635 
L 274.147827 325.921635 
L 274.147827 272.765549 
L 273.56738 272.765549 
z
" style="fill:#1f77b4;"/>
   </g>
   <g id="patch_177">
    <path clip-path="url(#p3a10676c25)" d="M 274.292939 325.921635 
L 274.873385 325.921635 
L 274.873385 246.38438 
L 274.292939 246.38438 
z
" style="fill:#1f77b4;"/>
   </g>
   <g id="patch_178">
    <path clip-path="url(#p3a10676c25)" d="M 275.018497 325.921635 
L 275.598944 325.921635 
L 275.598944 292.452988 
L 275.018497 292.452988 
z
" style="fill:#1f77b4;"/>
   </g>
   <g id="patch_179">
    <path clip-path="url(#p3a10676c25)" d="M 275.744056 325.921635 
L 276.324502 325.921635 
L 276.324502 289.106123 
L 275.744056 289.106123 
z
" style="fill:#1f77b4;"/>
   </g>
   <g id="patch_180">
    <path clip-path="url(#p3a10676c25)" d="M 276.469614 325.921635 
L 277.050061 325.921635 
L 277.050061 282.609269 
L 276.469614 282.609269 
z
" style="fill:#1f77b4;"/>
   </g>
   <g id="patch_181">
    <path clip-path="url(#p3a10676c25)" d="M 277.195173 325.921635 
L 277.775619 325.921635 
L 277.775619 273.159298 
L 277.195173 273.159298 
z
" style="fill:#1f77b4;"/>
   </g>
   <g id="patch_182">
    <path clip-path="url(#p3a10676c25)" d="M 277.920731 325.921635 
L 278.501178 325.921635 
L 278.501178 264.103076 
L 277.920731 264.103076 
z
" style="fill:#1f77b4;"/>
   </g>
   <g id="patch_183">
    <path clip-path="url(#p3a10676c25)" d="M 278.64629 325.921635 
L 279.226736 325.921635 
L 279.226736 244.809385 
L 278.64629 244.809385 
z
" style="fill:#1f77b4;"/>
   </g>
   <g id="patch_184">
    <path clip-path="url(#p3a10676c25)" d="M 279.371848 325.921635 
L 279.952295 325.921635 
L 279.952295 250.124994 
L 279.371848 250.124994 
z
" style="fill:#1f77b4;"/>
   </g>
   <g id="patch_185">
    <path clip-path="url(#p3a10676c25)" d="M 280.097406 325.921635 
L 280.677853 325.921635 
L 280.677853 247.762501 
L 280.097406 247.762501 
z
" style="fill:#1f77b4;"/>
   </g>
   <g id="patch_186">
    <path clip-path="url(#p3a10676c25)" d="M 280.822965 325.921635 
L 281.403412 325.921635 
L 281.403412 296.58735 
L 280.822965 296.58735 
z
" style="fill:#1f77b4;"/>
   </g>
   <g id="patch_187">
    <path clip-path="url(#p3a10676c25)" d="M 281.548523 325.921635 
L 282.12897 325.921635 
L 282.12897 244.612511 
L 281.548523 244.612511 
z
" style="fill:#1f77b4;"/>
   </g>
   <g id="patch_188">
    <path clip-path="url(#p3a10676c25)" d="M 282.274082 325.921635 
L 282.854529 325.921635 
L 282.854529 220.39696 
L 282.274082 220.39696 
z
" style="fill:#1f77b4;"/>
   </g>
   <g id="patch_189">
    <path clip-path="url(#p3a10676c25)" d="M 282.99964 325.921635 
L 283.580087 325.921635 
L 283.580087 247.368752 
L 282.99964 247.368752 
z
" style="fill:#1f77b4;"/>
   </g>
   <g id="patch_190">
    <path clip-path="url(#p3a10676c25)" d="M 283.725199 325.921635 
L 284.305646 325.921635 
L 284.305646 171.178362 
L 283.725199 171.178362 
z
" style="fill:#1f77b4;"/>
   </g>
   <g id="patch_191">
    <path clip-path="url(#p3a10676c25)" d="M 284.450757 325.921635 
L 285.031204 325.921635 
L 285.031204 199.528275 
L 284.450757 199.528275 
z
" style="fill:#1f77b4;"/>
   </g>
   <g id="patch_192">
    <path clip-path="url(#p3a10676c25)" d="M 285.176316 325.921635 
L 285.756763 325.921635 
L 285.756763 247.565627 
L 285.176316 247.565627 
z
" style="fill:#1f77b4;"/>
   </g>
   <g id="patch_193">
    <path clip-path="url(#p3a10676c25)" d="M 285.901874 325.921635 
L 286.482321 325.921635 
L 286.482321 308.399814 
L 285.901874 308.399814 
z
" style="fill:#1f77b4;"/>
   </g>
   <g id="patch_194">
    <path clip-path="url(#p3a10676c25)" d="M 286.627433 325.921635 
L 287.20788 325.921635 
L 287.20788 255.440602 
L 286.627433 255.440602 
z
" style="fill:#1f77b4;"/>
   </g>
   <g id="patch_195">
    <path clip-path="url(#p3a10676c25)" d="M 287.352991 325.921635 
L 287.933438 325.921635 
L 287.933438 222.759453 
L 287.352991 222.759453 
z
" style="fill:#1f77b4;"/>
   </g>
   <g id="patch_196">
    <path clip-path="url(#p3a10676c25)" d="M 288.07855 325.921635 
L 288.658997 325.921635 
L 288.658997 208.781371 
L 288.07855 208.781371 
z
" style="fill:#1f77b4;"/>
   </g>
   <g id="patch_197">
    <path clip-path="url(#p3a10676c25)" d="M 288.804108 325.921635 
L 289.384555 325.921635 
L 289.384555 184.368946 
L 288.804108 184.368946 
z
" style="fill:#1f77b4;"/>
   </g>
   <g id="patch_198">
    <path clip-path="url(#p3a10676c25)" d="M 289.529667 325.921635 
L 290.110114 325.921635 
L 290.110114 188.10956 
L 289.529667 188.10956 
z
" style="fill:#1f77b4;"/>
   </g>
   <g id="patch_199">
    <path clip-path="url(#p3a10676c25)" d="M 290.255225 325.921635 
L 290.835672 325.921635 
L 290.835672 220.790709 
L 290.255225 220.790709 
z
" style="fill:#1f77b4;"/>
   </g>
   <g id="patch_200">
    <path clip-path="url(#p3a10676c25)" d="M 290.980784 325.921635 
L 291.561231 325.921635 
L 291.561231 276.112414 
L 290.980784 276.112414 
z
" style="fill:#1f77b4;"/>
   </g>
   <g id="patch_201">
    <path clip-path="url(#p3a10676c25)" d="M 291.706342 325.921635 
L 292.286789 325.921635 
L 292.286789 251.30624 
L 291.706342 251.30624 
z
" style="fill:#1f77b4;"/>
   </g>
   <g id="patch_202">
    <path clip-path="url(#p3a10676c25)" d="M 292.431901 325.921635 
L 293.012347 325.921635 
L 293.012347 112.903542 
L 292.431901 112.903542 
z
" style="fill:#1f77b4;"/>
   </g>
   <g id="patch_203">
    <path clip-path="url(#p3a10676c25)" d="M 293.157459 325.921635 
L 293.737906 325.921635 
L 293.737906 134.953474 
L 293.157459 134.953474 
z
" style="fill:#1f77b4;"/>
   </g>
   <g id="patch_204">
    <path clip-path="url(#p3a10676c25)" d="M 293.883018 325.921635 
L 294.463464 325.921635 
L 294.463464 173.737729 
L 293.883018 173.737729 
z
" style="fill:#1f77b4;"/>
   </g>
   <g id="patch_205">
    <path clip-path="url(#p3a10676c25)" d="M 294.608576 325.921635 
L 295.189023 325.921635 
L 295.189023 86.719247 
L 294.608576 86.719247 
z
" style="fill:#1f77b4;"/>
   </g>
   <g id="patch_206">
    <path clip-path="url(#p3a10676c25)" d="M 295.334135 325.921635 
L 295.914581 325.921635 
L 295.914581 160.35027 
L 295.334135 160.35027 
z
" style="fill:#1f77b4;"/>
   </g>
   <g id="patch_207">
    <path clip-path="url(#p3a10676c25)" d="M 296.059693 325.921635 
L 296.64014 325.921635 
L 296.64014 194.212666 
L 296.059693 194.212666 
z
" style="fill:#1f77b4;"/>
   </g>
   <g id="patch_208">
    <path clip-path="url(#p3a10676c25)" d="M 296.785252 325.921635 
L 297.365698 325.921635 
L 297.365698 121.172266 
L 296.785252 121.172266 
z
" style="fill:#1f77b4;"/>
   </g>
   <g id="patch_209">
    <path clip-path="url(#p3a10676c25)" d="M 297.51081 325.921635 
L 298.091257 325.921635 
L 298.091257 69.000552 
L 297.51081 69.000552 
z
" style="fill:#1f77b4;"/>
   </g>
   <g id="patch_210">
    <path clip-path="url(#p3a10676c25)" d="M 298.236369 325.921635 
L 298.816815 325.921635 
L 298.816815 54.234972 
L 298.236369 54.234972 
z
" style="fill:#1f77b4;"/>
   </g>
   <g id="patch_211">
    <path clip-path="url(#p3a10676c25)" d="M 298.961927 325.921635 
L 299.542374 325.921635 
L 299.542374 151.687797 
L 298.961927 151.687797 
z
" style="fill:#1f77b4;"/>
   </g>
   <g id="patch_212">
    <path clip-path="url(#p3a10676c25)" d="M 299.687486 325.921635 
L 300.267932 325.921635 
L 300.267932 123.534759 
L 299.687486 123.534759 
z
" style="fill:#1f77b4;"/>
   </g>
   <g id="patch_213">
    <path clip-path="url(#p3a10676c25)" d="M 300.413044 325.921635 
L 300.993491 325.921635 
L 300.993491 193.03142 
L 300.413044 193.03142 
z
" style="fill:#1f77b4;"/>
   </g>
   <g id="patch_214">
    <path clip-path="url(#p3a10676c25)" d="M 301.138603 325.921635 
L 301.719049 325.921635 
L 301.719049 225.712569 
L 301.138603 225.712569 
z
" style="fill:#1f77b4;"/>
   </g>
   <g id="patch_215">
    <path clip-path="url(#p3a10676c25)" d="M 301.864161 325.921635 
L 302.444608 325.921635 
L 302.444608 101.484827 
L 301.864161 101.484827 
z
" style="fill:#1f77b4;"/>
   </g>
   <g id="patch_216">
    <path clip-path="url(#p3a10676c25)" d="M 302.589719 325.921635 
L 303.170166 325.921635 
L 303.170166 56.006842 
L 302.589719 56.006842 
z
" style="fill:#1f77b4;"/>
   </g>
   <g id="patch_217">
    <path clip-path="url(#p3a10676c25)" d="M 303.315278 325.921635 
L 303.895725 325.921635 
L 303.895725 32.775664 
L 303.315278 32.775664 
z
" style="fill:#1f77b4;"/>
   </g>
   <g id="patch_218">
    <path clip-path="url(#p3a10676c25)" d="M 304.040836 325.921635 
L 304.621283 325.921635 
L 304.621283 83.766131 
L 304.040836 83.766131 
z
" style="fill:#1f77b4;"/>
   </g>
   <g id="patch_219">
    <path clip-path="url(#p3a10676c25)" d="M 304.766395 325.921635 
L 305.346842 325.921635 
L 305.346842 36.319403 
L 304.766395 36.319403 
z
" style="fill:#1f77b4;"/>
   </g>
   <g id="patch_220">
    <path clip-path="url(#p3a10676c25)" d="M 305.491953 325.921635 
L 306.0724 325.921635 
L 306.0724 114.478537 
L 305.491953 114.478537 
z
" style="fill:#1f77b4;"/>
   </g>
   <g id="patch_221">
    <path clip-path="url(#p3a10676c25)" d="M 306.217512 325.921635 
L 306.797959 325.921635 
L 306.797959 199.528275 
L 306.217512 199.528275 
z
" style="fill:#1f77b4;"/>
   </g>
   <g id="matplotlib.axis_3">
    <g id="xtick_3">
     <g id="line2d_12">
      <g>
       <use style="stroke:#000000;stroke-width:0.8;" x="229.598536" xlink:href="#md890cb0e05" y="325.921635"/>
      </g>
     </g>
     <g id="text_12">
      <!-- 0 -->
      <g transform="translate(226.417286 340.520072)scale(0.1 -0.1)">
       <use xlink:href="#DejaVuSans-48"/>
      </g>
     </g>
    </g>
    <g id="xtick_4">
     <g id="line2d_13">
      <g>
       <use style="stroke:#000000;stroke-width:0.8;" x="302.154384" xlink:href="#md890cb0e05" y="325.921635"/>
      </g>
     </g>
     <g id="text_13">
      <!-- 100 -->
      <g transform="translate(292.610634 340.520072)scale(0.1 -0.1)">
       <use xlink:href="#DejaVuSans-49"/>
       <use x="63.623047" xlink:href="#DejaVuSans-48"/>
       <use x="127.246094" xlink:href="#DejaVuSans-48"/>
      </g>
     </g>
    </g>
   </g>
   <g id="matplotlib.axis_4">
    <g id="ytick_9">
     <g id="line2d_14">
      <g>
       <use style="stroke:#000000;stroke-width:0.8;" x="225.43383" xlink:href="#m60b7b5f57a" y="325.921635"/>
      </g>
     </g>
     <g id="text_14">
      <!-- 0 -->
      <g transform="translate(212.07133 329.720854)scale(0.1 -0.1)">
       <use xlink:href="#DejaVuSans-48"/>
      </g>
     </g>
    </g>
    <g id="ytick_10">
     <g id="line2d_15">
      <g>
       <use style="stroke:#000000;stroke-width:0.8;" x="225.43383" xlink:href="#m60b7b5f57a" y="286.546756"/>
      </g>
     </g>
     <g id="text_15">
      <!-- 200 -->
      <g transform="translate(199.34633 290.345975)scale(0.1 -0.1)">
       <use xlink:href="#DejaVuSans-50"/>
       <use x="63.623047" xlink:href="#DejaVuSans-48"/>
       <use x="127.246094" xlink:href="#DejaVuSans-48"/>
      </g>
     </g>
    </g>
    <g id="ytick_11">
     <g id="line2d_16">
      <g>
       <use style="stroke:#000000;stroke-width:0.8;" x="225.43383" xlink:href="#m60b7b5f57a" y="247.171878"/>
      </g>
     </g>
     <g id="text_16">
      <!-- 400 -->
      <defs>
       <path d="M 37.796875 64.3125 
L 12.890625 25.390625 
L 37.796875 25.390625 
z
M 35.203125 72.90625 
L 47.609375 72.90625 
L 47.609375 25.390625 
L 58.015625 25.390625 
L 58.015625 17.1875 
L 47.609375 17.1875 
L 47.609375 0 
L 37.796875 0 
L 37.796875 17.1875 
L 4.890625 17.1875 
L 4.890625 26.703125 
z
" id="DejaVuSans-52"/>
      </defs>
      <g transform="translate(199.34633 250.971096)scale(0.1 -0.1)">
       <use xlink:href="#DejaVuSans-52"/>
       <use x="63.623047" xlink:href="#DejaVuSans-48"/>
       <use x="127.246094" xlink:href="#DejaVuSans-48"/>
      </g>
     </g>
    </g>
    <g id="ytick_12">
     <g id="line2d_17">
      <g>
       <use style="stroke:#000000;stroke-width:0.8;" x="225.43383" xlink:href="#m60b7b5f57a" y="207.796999"/>
      </g>
     </g>
     <g id="text_17">
      <!-- 600 -->
      <defs>
       <path d="M 33.015625 40.375 
Q 26.375 40.375 22.484375 35.828125 
Q 18.609375 31.296875 18.609375 23.390625 
Q 18.609375 15.53125 22.484375 10.953125 
Q 26.375 6.390625 33.015625 6.390625 
Q 39.65625 6.390625 43.53125 10.953125 
Q 47.40625 15.53125 47.40625 23.390625 
Q 47.40625 31.296875 43.53125 35.828125 
Q 39.65625 40.375 33.015625 40.375 
z
M 52.59375 71.296875 
L 52.59375 62.3125 
Q 48.875 64.0625 45.09375 64.984375 
Q 41.3125 65.921875 37.59375 65.921875 
Q 27.828125 65.921875 22.671875 59.328125 
Q 17.53125 52.734375 16.796875 39.40625 
Q 19.671875 43.65625 24.015625 45.921875 
Q 28.375 48.1875 33.59375 48.1875 
Q 44.578125 48.1875 50.953125 41.515625 
Q 57.328125 34.859375 57.328125 23.390625 
Q 57.328125 12.15625 50.6875 5.359375 
Q 44.046875 -1.421875 33.015625 -1.421875 
Q 20.359375 -1.421875 13.671875 8.265625 
Q 6.984375 17.96875 6.984375 36.375 
Q 6.984375 53.65625 15.1875 63.9375 
Q 23.390625 74.21875 37.203125 74.21875 
Q 40.921875 74.21875 44.703125 73.484375 
Q 48.484375 72.75 52.59375 71.296875 
z
" id="DejaVuSans-54"/>
      </defs>
      <g transform="translate(199.34633 211.596218)scale(0.1 -0.1)">
       <use xlink:href="#DejaVuSans-54"/>
       <use x="63.623047" xlink:href="#DejaVuSans-48"/>
       <use x="127.246094" xlink:href="#DejaVuSans-48"/>
      </g>
     </g>
    </g>
    <g id="ytick_13">
     <g id="line2d_18">
      <g>
       <use style="stroke:#000000;stroke-width:0.8;" x="225.43383" xlink:href="#m60b7b5f57a" y="168.42212"/>
      </g>
     </g>
     <g id="text_18">
      <!-- 800 -->
      <defs>
       <path d="M 31.78125 34.625 
Q 24.75 34.625 20.71875 30.859375 
Q 16.703125 27.09375 16.703125 20.515625 
Q 16.703125 13.921875 20.71875 10.15625 
Q 24.75 6.390625 31.78125 6.390625 
Q 38.8125 6.390625 42.859375 10.171875 
Q 46.921875 13.96875 46.921875 20.515625 
Q 46.921875 27.09375 42.890625 30.859375 
Q 38.875 34.625 31.78125 34.625 
z
M 21.921875 38.8125 
Q 15.578125 40.375 12.03125 44.71875 
Q 8.5 49.078125 8.5 55.328125 
Q 8.5 64.0625 14.71875 69.140625 
Q 20.953125 74.21875 31.78125 74.21875 
Q 42.671875 74.21875 48.875 69.140625 
Q 55.078125 64.0625 55.078125 55.328125 
Q 55.078125 49.078125 51.53125 44.71875 
Q 48 40.375 41.703125 38.8125 
Q 48.828125 37.15625 52.796875 32.3125 
Q 56.78125 27.484375 56.78125 20.515625 
Q 56.78125 9.90625 50.3125 4.234375 
Q 43.84375 -1.421875 31.78125 -1.421875 
Q 19.734375 -1.421875 13.25 4.234375 
Q 6.78125 9.90625 6.78125 20.515625 
Q 6.78125 27.484375 10.78125 32.3125 
Q 14.796875 37.15625 21.921875 38.8125 
z
M 18.3125 54.390625 
Q 18.3125 48.734375 21.84375 45.5625 
Q 25.390625 42.390625 31.78125 42.390625 
Q 38.140625 42.390625 41.71875 45.5625 
Q 45.3125 48.734375 45.3125 54.390625 
Q 45.3125 60.0625 41.71875 63.234375 
Q 38.140625 66.40625 31.78125 66.40625 
Q 25.390625 66.40625 21.84375 63.234375 
Q 18.3125 60.0625 18.3125 54.390625 
z
" id="DejaVuSans-56"/>
      </defs>
      <g transform="translate(199.34633 172.221339)scale(0.1 -0.1)">
       <use xlink:href="#DejaVuSans-56"/>
       <use x="63.623047" xlink:href="#DejaVuSans-48"/>
       <use x="127.246094" xlink:href="#DejaVuSans-48"/>
      </g>
     </g>
    </g>
    <g id="ytick_14">
     <g id="line2d_19">
      <g>
       <use style="stroke:#000000;stroke-width:0.8;" x="225.43383" xlink:href="#m60b7b5f57a" y="129.047242"/>
      </g>
     </g>
     <g id="text_19">
      <!-- 1000 -->
      <g transform="translate(192.98383 132.846461)scale(0.1 -0.1)">
       <use xlink:href="#DejaVuSans-49"/>
       <use x="63.623047" xlink:href="#DejaVuSans-48"/>
       <use x="127.246094" xlink:href="#DejaVuSans-48"/>
       <use x="190.869141" xlink:href="#DejaVuSans-48"/>
      </g>
     </g>
    </g>
    <g id="ytick_15">
     <g id="line2d_20">
      <g>
       <use style="stroke:#000000;stroke-width:0.8;" x="225.43383" xlink:href="#m60b7b5f57a" y="89.672363"/>
      </g>
     </g>
     <g id="text_20">
      <!-- 1200 -->
      <g transform="translate(192.98383 93.471582)scale(0.1 -0.1)">
       <use xlink:href="#DejaVuSans-49"/>
       <use x="63.623047" xlink:href="#DejaVuSans-50"/>
       <use x="127.246094" xlink:href="#DejaVuSans-48"/>
       <use x="190.869141" xlink:href="#DejaVuSans-48"/>
      </g>
     </g>
    </g>
    <g id="ytick_16">
     <g id="line2d_21">
      <g>
       <use style="stroke:#000000;stroke-width:0.8;" x="225.43383" xlink:href="#m60b7b5f57a" y="50.297485"/>
      </g>
     </g>
     <g id="text_21">
      <!-- 1400 -->
      <g transform="translate(192.98383 54.096703)scale(0.1 -0.1)">
       <use xlink:href="#DejaVuSans-49"/>
       <use x="63.623047" xlink:href="#DejaVuSans-52"/>
       <use x="127.246094" xlink:href="#DejaVuSans-48"/>
       <use x="190.869141" xlink:href="#DejaVuSans-48"/>
      </g>
     </g>
    </g>
   </g>
   <g id="line2d_22">
    <path clip-path="url(#p3a10676c25)" d="M 229.598536 325.910975 
L 230.324094 325.905236 
L 231.049653 325.895314 
L 231.775211 325.880473 
L 232.50077 325.857267 
L 233.226328 325.822911 
L 233.951887 325.776747 
L 234.677445 325.718447 
L 235.403004 325.648176 
L 236.128562 325.569869 
L 236.854121 325.486888 
L 237.579679 325.402677 
L 238.305238 325.321008 
L 239.030796 325.242701 
L 239.756355 325.165624 
L 240.481913 325.087645 
L 241.207472 325.001057 
L 241.93303 324.89938 
L 242.658589 324.776303 
L 243.384147 324.626249 
L 244.109706 324.445774 
L 244.835264 324.23619 
L 245.560823 323.999547 
L 246.286381 323.739781 
L 247.01194 323.45886 
L 247.737498 323.159162 
L 248.463057 322.840686 
L 249.188615 322.497037 
L 249.914174 322.108782 
L 250.639732 321.650092 
L 251.365291 321.097351 
L 252.090849 320.421943 
L 252.816407 319.594923 
L 253.541966 318.59079 
L 254.267524 317.40118 
L 254.993083 316.063484 
L 255.718641 314.639363 
L 256.4442 313.184411 
L 257.169758 311.780543 
L 257.895317 310.509756 
L 258.620875 309.449783 
L 259.346434 308.651052 
L 260.071992 308.067235 
L 260.797551 307.598869 
L 261.523109 307.160924 
L 262.248668 306.63024 
L 262.974226 305.881855 
L 263.699785 304.789903 
L 264.425343 303.270994 
L 265.150902 301.373259 
L 265.87646 299.198704 
L 266.602019 296.85138 
L 267.327577 294.457565 
L 268.053136 292.144434 
L 268.778694 290.048267 
L 269.504253 288.244829 
L 270.229811 286.688775 
L 270.95537 285.336319 
L 271.680928 284.088491 
L 272.406487 282.850913 
L 273.132045 281.523466 
L 273.857604 279.98537 
L 274.583162 278.172584 
L 275.30872 276.072235 
L 276.034279 273.60946 
L 276.759837 270.799593 
L 277.485396 267.643945 
L 278.210954 264.179989 
L 278.936513 260.497511 
L 279.662071 256.649236 
L 280.38763 252.743234 
L 281.113188 248.96769 
L 281.838747 245.434529 
L 282.564305 242.240834 
L 283.289864 239.427523 
L 284.015422 236.928424 
L 284.740981 234.686056 
L 285.466539 232.541675 
L 286.192098 230.243796 
L 286.917656 227.567583 
L 287.643215 224.306077 
L 288.368773 220.232639 
L 289.094332 215.264533 
L 289.81989 209.336408 
L 290.545449 202.43416 
L 291.271007 194.692511 
L 291.996566 186.30194 
L 292.722124 177.523113 
L 293.447683 168.761423 
L 294.173241 160.333461 
L 294.8988 152.571559 
L 295.624358 145.788535 
L 296.349917 140.092953 
L 297.075475 135.455458 
L 297.801033 131.707547 
L 298.526592 128.517296 
L 299.25215 125.58427 
L 299.977709 122.634188 
L 300.703267 119.36071 
L 301.428826 115.679052 
L 302.154384 111.738039 
L 302.879943 107.716668 
L 303.605501 103.84076 
L 304.33106 100.391645 
L 305.056618 98.014885 
L 305.782177 96.039417 
L 306.507735 94.62694 
" style="fill:none;stroke:#ff0000;stroke-linecap:square;stroke-width:1.5;"/>
   </g>
   <g id="patch_222">
    <path d="M 225.43383 325.921635 
L 225.43383 18.118365 
" style="fill:none;stroke:#000000;stroke-linecap:square;stroke-linejoin:miter;stroke-width:0.8;"/>
   </g>
   <g id="patch_223">
    <path d="M 310.672441 325.921635 
L 310.672441 18.118365 
" style="fill:none;stroke:#000000;stroke-linecap:square;stroke-linejoin:miter;stroke-width:0.8;"/>
   </g>
   <g id="patch_224">
    <path d="M 225.43383 325.921635 
L 310.672441 325.921635 
" style="fill:none;stroke:#000000;stroke-linecap:square;stroke-linejoin:miter;stroke-width:0.8;"/>
   </g>
   <g id="patch_225">
    <path d="M 225.43383 18.118365 
L 310.672441 18.118365 
" style="fill:none;stroke:#000000;stroke-linecap:square;stroke-linejoin:miter;stroke-width:0.8;"/>
   </g>
   <g id="text_22">
    <!-- Casos novos - ES - (data) -->
    <defs>
     <path d="M 54.890625 33.015625 
L 54.890625 0 
L 45.90625 0 
L 45.90625 32.71875 
Q 45.90625 40.484375 42.875 44.328125 
Q 39.84375 48.1875 33.796875 48.1875 
Q 26.515625 48.1875 22.3125 43.546875 
Q 18.109375 38.921875 18.109375 30.90625 
L 18.109375 0 
L 9.078125 0 
L 9.078125 54.6875 
L 18.109375 54.6875 
L 18.109375 46.1875 
Q 21.34375 51.125 25.703125 53.5625 
Q 30.078125 56 35.796875 56 
Q 45.21875 56 50.046875 50.171875 
Q 54.890625 44.34375 54.890625 33.015625 
z
" id="DejaVuSans-110"/>
     <path d="M 2.984375 54.6875 
L 12.5 54.6875 
L 29.59375 8.796875 
L 46.6875 54.6875 
L 56.203125 54.6875 
L 35.6875 0 
L 23.484375 0 
z
" id="DejaVuSans-118"/>
    </defs>
    <g transform="translate(192.781261 12.118365)scale(0.12 -0.12)">
     <use xlink:href="#DejaVuSans-67"/>
     <use x="69.824219" xlink:href="#DejaVuSans-97"/>
     <use x="131.103516" xlink:href="#DejaVuSans-115"/>
     <use x="183.203125" xlink:href="#DejaVuSans-111"/>
     <use x="244.384766" xlink:href="#DejaVuSans-115"/>
     <use x="296.484375" xlink:href="#DejaVuSans-32"/>
     <use x="328.271484" xlink:href="#DejaVuSans-110"/>
     <use x="391.650391" xlink:href="#DejaVuSans-111"/>
     <use x="452.832031" xlink:href="#DejaVuSans-118"/>
     <use x="512.011719" xlink:href="#DejaVuSans-111"/>
     <use x="573.193359" xlink:href="#DejaVuSans-115"/>
     <use x="625.292969" xlink:href="#DejaVuSans-32"/>
     <use x="657.080078" xlink:href="#DejaVuSans-45"/>
     <use x="693.164062" xlink:href="#DejaVuSans-32"/>
     <use x="724.951172" xlink:href="#DejaVuSans-69"/>
     <use x="788.134766" xlink:href="#DejaVuSans-83"/>
     <use x="851.611328" xlink:href="#DejaVuSans-32"/>
     <use x="883.398438" xlink:href="#DejaVuSans-45"/>
     <use x="919.482422" xlink:href="#DejaVuSans-32"/>
     <use x="951.269531" xlink:href="#DejaVuSans-40"/>
     <use x="990.283203" xlink:href="#DejaVuSans-100"/>
     <use x="1053.759766" xlink:href="#DejaVuSans-97"/>
     <use x="1115.039062" xlink:href="#DejaVuSans-116"/>
     <use x="1154.248047" xlink:href="#DejaVuSans-97"/>
     <use x="1215.527344" xlink:href="#DejaVuSans-41"/>
    </g>
   </g>
  </g>
  <g id="axes_3">
   <g id="patch_226">
    <path d="M 371.931171 325.921635 
L 457.169781 325.921635 
L 457.169781 18.118365 
L 371.931171 18.118365 
z
" style="fill:#ffffff;"/>
   </g>
   <g id="matplotlib.axis_5">
    <g id="xtick_5">
     <g id="line2d_23">
      <g>
       <use style="stroke:#000000;stroke-width:0.8;" x="375.805653" xlink:href="#md890cb0e05" y="325.921635"/>
      </g>
     </g>
     <g id="text_23">
      <!-- 0 -->
      <g transform="translate(372.624403 340.520072)scale(0.1 -0.1)">
       <use xlink:href="#DejaVuSans-48"/>
      </g>
     </g>
    </g>
    <g id="xtick_6">
     <g id="line2d_24">
      <g>
       <use style="stroke:#000000;stroke-width:0.8;" x="448.909093" xlink:href="#md890cb0e05" y="325.921635"/>
      </g>
     </g>
     <g id="text_24">
      <!-- 100 -->
      <g transform="translate(439.365343 340.520072)scale(0.1 -0.1)">
       <use xlink:href="#DejaVuSans-49"/>
       <use x="63.623047" xlink:href="#DejaVuSans-48"/>
       <use x="127.246094" xlink:href="#DejaVuSans-48"/>
      </g>
     </g>
    </g>
   </g>
   <g id="matplotlib.axis_6">
    <g id="ytick_17">
     <g id="line2d_25">
      <g>
       <use style="stroke:#000000;stroke-width:0.8;" x="371.931171" xlink:href="#m60b7b5f57a" y="275.77378"/>
      </g>
     </g>
     <g id="text_25">
      <!-- 1.5 -->
      <defs>
       <path d="M 10.6875 12.40625 
L 21 12.40625 
L 21 0 
L 10.6875 0 
z
" id="DejaVuSans-46"/>
      </defs>
      <g transform="translate(349.028046 279.572999)scale(0.1 -0.1)">
       <use xlink:href="#DejaVuSans-49"/>
       <use x="63.623047" xlink:href="#DejaVuSans-46"/>
       <use x="95.410156" xlink:href="#DejaVuSans-53"/>
      </g>
     </g>
    </g>
    <g id="ytick_18">
     <g id="line2d_26">
      <g>
       <use style="stroke:#000000;stroke-width:0.8;" x="371.931171" xlink:href="#m60b7b5f57a" y="220.20622"/>
      </g>
     </g>
     <g id="text_26">
      <!-- 2.0 -->
      <g transform="translate(349.028046 224.005438)scale(0.1 -0.1)">
       <use xlink:href="#DejaVuSans-50"/>
       <use x="63.623047" xlink:href="#DejaVuSans-46"/>
       <use x="95.410156" xlink:href="#DejaVuSans-48"/>
      </g>
     </g>
    </g>
    <g id="ytick_19">
     <g id="line2d_27">
      <g>
       <use style="stroke:#000000;stroke-width:0.8;" x="371.931171" xlink:href="#m60b7b5f57a" y="164.638659"/>
      </g>
     </g>
     <g id="text_27">
      <!-- 2.5 -->
      <g transform="translate(349.028046 168.437877)scale(0.1 -0.1)">
       <use xlink:href="#DejaVuSans-50"/>
       <use x="63.623047" xlink:href="#DejaVuSans-46"/>
       <use x="95.410156" xlink:href="#DejaVuSans-53"/>
      </g>
     </g>
    </g>
    <g id="ytick_20">
     <g id="line2d_28">
      <g>
       <use style="stroke:#000000;stroke-width:0.8;" x="371.931171" xlink:href="#m60b7b5f57a" y="109.071098"/>
      </g>
     </g>
     <g id="text_28">
      <!-- 3.0 -->
      <g transform="translate(349.028046 112.870316)scale(0.1 -0.1)">
       <use xlink:href="#DejaVuSans-51"/>
       <use x="63.623047" xlink:href="#DejaVuSans-46"/>
       <use x="95.410156" xlink:href="#DejaVuSans-48"/>
      </g>
     </g>
    </g>
    <g id="ytick_21">
     <g id="line2d_29">
      <g>
       <use style="stroke:#000000;stroke-width:0.8;" x="371.931171" xlink:href="#m60b7b5f57a" y="53.503537"/>
      </g>
     </g>
     <g id="text_29">
      <!-- 3.5 -->
      <g transform="translate(349.028046 57.302755)scale(0.1 -0.1)">
       <use xlink:href="#DejaVuSans-51"/>
       <use x="63.623047" xlink:href="#DejaVuSans-46"/>
       <use x="95.410156" xlink:href="#DejaVuSans-53"/>
      </g>
     </g>
    </g>
   </g>
   <g id="line2d_30">
    <path clip-path="url(#p3d0711cbaa)" d="M 375.805653 62.661405 
L 376.536687 53.501455 
L 377.267722 32.109423 
L 377.998756 45.118577 
L 378.729791 45.155118 
L 379.460825 55.077821 
L 380.191859 78.403497 
L 380.922894 103.559821 
L 381.653928 127.333874 
L 382.384963 154.6068 
L 383.115997 179.798944 
L 383.847031 202.50122 
L 384.578066 223.373217 
L 385.3091 239.750849 
L 386.040135 250.373808 
L 386.771169 257.078868 
L 387.502203 256.630529 
L 388.233238 252.33368 
L 388.964272 245.975941 
L 389.695307 239.314465 
L 390.426341 234.183843 
L 391.157375 232.531465 
L 391.88841 233.495348 
L 392.619444 236.704362 
L 393.350479 240.651287 
L 394.081513 245.063766 
L 394.812547 249.111559 
L 395.543582 251.49146 
L 396.274616 250.290776 
L 397.005651 245.848043 
L 397.736685 240.097999 
L 398.467719 233.51153 
L 399.198754 227.171701 
L 399.929788 222.136361 
L 400.660823 219.960684 
L 401.391857 223.002074 
L 402.122891 230.452803 
L 402.853926 239.918953 
L 403.58496 251.744671 
L 404.315995 265.070048 
L 405.047029 279.433489 
L 405.778063 293.811568 
L 406.509098 304.568742 
L 407.240132 310.213089 
L 407.971167 311.930577 
L 408.702201 308.5427 
L 409.433235 300.609192 
L 410.16427 289.062076 
L 410.895304 276.641965 
L 411.626339 268.307211 
L 412.357373 264.902587 
L 413.088407 265.249992 
L 413.819442 268.833686 
L 414.550476 274.777819 
L 415.281511 282.704969 
L 416.012545 291.064998 
L 416.743579 297.536088 
L 417.474614 302.513381 
L 418.205648 305.200855 
L 418.936683 305.948613 
L 419.667717 304.862008 
L 420.398751 301.802929 
L 421.129786 297.998241 
L 421.86082 294.426538 
L 422.591855 290.199502 
L 423.322889 286.798574 
L 424.053923 283.96099 
L 424.784958 282.092068 
L 425.515992 281.652887 
L 426.247026 281.947601 
L 426.978061 283.416471 
L 427.709095 286.644127 
L 428.44013 290.582499 
L 429.171164 295.00428 
L 429.902198 299.367423 
L 430.633233 302.754969 
L 431.364267 305.372721 
L 432.095302 306.419443 
L 432.826336 305.230031 
L 433.55737 302.224657 
L 434.288405 297.759046 
L 435.019439 291.926031 
L 435.750474 286.100711 
L 436.481508 280.53935 
L 437.212542 275.663926 
L 437.943577 272.3686 
L 438.674611 270.713653 
L 439.405646 270.76208 
L 440.13668 272.916778 
L 440.867714 276.327566 
L 441.598749 280.869103 
L 442.329783 286.333037 
L 443.060818 291.755815 
L 443.791852 296.615087 
L 444.522886 300.413204 
L 445.253921 302.535097 
L 445.984955 303.217952 
L 446.71599 302.637331 
L 447.447024 300.700298 
L 448.178058 298.420392 
L 448.909093 296.808458 
L 449.640127 295.956784 
L 450.371162 296.019986 
L 451.102196 297.187667 
L 451.83323 300.931144 
L 452.564265 301.852464 
L 453.295299 303.411712 
" style="fill:none;stroke:#ff0000;stroke-linecap:square;stroke-width:1.5;"/>
   </g>
   <g id="patch_227">
    <path d="M 371.931171 325.921635 
L 371.931171 18.118365 
" style="fill:none;stroke:#000000;stroke-linecap:square;stroke-linejoin:miter;stroke-width:0.8;"/>
   </g>
   <g id="patch_228">
    <path d="M 457.169781 325.921635 
L 457.169781 18.118365 
" style="fill:none;stroke:#000000;stroke-linecap:square;stroke-linejoin:miter;stroke-width:0.8;"/>
   </g>
   <g id="patch_229">
    <path d="M 371.931171 325.921635 
L 457.169781 325.921635 
" style="fill:none;stroke:#000000;stroke-linecap:square;stroke-linejoin:miter;stroke-width:0.8;"/>
   </g>
   <g id="patch_230">
    <path d="M 371.931171 18.118365 
L 457.169781 18.118365 
" style="fill:none;stroke:#000000;stroke-linecap:square;stroke-linejoin:miter;stroke-width:0.8;"/>
   </g>
   <g id="text_30">
    <!-- r0 - ES - (data) -->
    <defs>
     <path d="M 41.109375 46.296875 
Q 39.59375 47.171875 37.8125 47.578125 
Q 36.03125 48 33.890625 48 
Q 26.265625 48 22.1875 43.046875 
Q 18.109375 38.09375 18.109375 28.8125 
L 18.109375 0 
L 9.078125 0 
L 9.078125 54.6875 
L 18.109375 54.6875 
L 18.109375 46.1875 
Q 20.953125 51.171875 25.484375 53.578125 
Q 30.03125 56 36.53125 56 
Q 37.453125 56 38.578125 55.875 
Q 39.703125 55.765625 41.0625 55.515625 
z
" id="DejaVuSans-114"/>
    </defs>
    <g transform="translate(370.512351 12.118365)scale(0.12 -0.12)">
     <use xlink:href="#DejaVuSans-114"/>
     <use x="41.113281" xlink:href="#DejaVuSans-48"/>
     <use x="104.736328" xlink:href="#DejaVuSans-32"/>
     <use x="136.523438" xlink:href="#DejaVuSans-45"/>
     <use x="172.607422" xlink:href="#DejaVuSans-32"/>
     <use x="204.394531" xlink:href="#DejaVuSans-69"/>
     <use x="267.578125" xlink:href="#DejaVuSans-83"/>
     <use x="331.054688" xlink:href="#DejaVuSans-32"/>
     <use x="362.841797" xlink:href="#DejaVuSans-45"/>
     <use x="398.925781" xlink:href="#DejaVuSans-32"/>
     <use x="430.712891" xlink:href="#DejaVuSans-40"/>
     <use x="469.726562" xlink:href="#DejaVuSans-100"/>
     <use x="533.203125" xlink:href="#DejaVuSans-97"/>
     <use x="594.482422" xlink:href="#DejaVuSans-116"/>
     <use x="633.691406" xlink:href="#DejaVuSans-97"/>
     <use x="694.970703" xlink:href="#DejaVuSans-41"/>
    </g>
   </g>
  </g>
 </g>
 <defs>
  <clipPath id="pe20c3c86e9">
   <rect height="307.80327" width="85.238611" x="50.83649" y="18.118365"/>
  </clipPath>
  <clipPath id="p3a10676c25">
   <rect height="307.80327" width="85.238611" x="225.43383" y="18.118365"/>
  </clipPath>
  <clipPath id="p3d0711cbaa">
   <rect height="307.80327" width="85.238611" x="371.931171" y="18.118365"/>
  </clipPath>
 </defs>
</svg>
