<?xml version="1.0" encoding="utf-8" standalone="no"?>
<!DOCTYPE svg PUBLIC "-//W3C//DTD SVG 1.1//EN"
  "http://www.w3.org/Graphics/SVG/1.1/DTD/svg11.dtd">
<!-- Created with matplotlib (https://matplotlib.org/) -->
<svg height="345.6pt" version="1.1" viewBox="0 0 460.8 345.6" width="460.8pt" xmlns="http://www.w3.org/2000/svg" xmlns:xlink="http://www.w3.org/1999/xlink">
 <defs>
  <style type="text/css">
*{stroke-linecap:butt;stroke-linejoin:round;}
  </style>
 </defs>
 <g id="figure_1">
  <g id="patch_1">
   <path d="M 0 345.6 
L 460.8 345.6 
L 460.8 0 
L 0 0 
z
" style="fill:#ffffff;"/>
  </g>
  <g id="axes_1">
   <g id="patch_2">
    <path d="M 55.490865 137.71551 
L 225.520753 137.71551 
L 225.520753 18.118365 
L 55.490865 18.118365 
z
" style="fill:#ffffff;"/>
   </g>
   <g id="patch_3">
    <path clip-path="url(#pcb4e651a4f)" d="M 63.219496 137.71551 
L 64.458555 137.71551 
L 64.458555 137.693663 
L 63.219496 137.693663 
z
" style="fill:#1f77b4;"/>
   </g>
   <g id="patch_4">
    <path clip-path="url(#pcb4e651a4f)" d="M 64.76832 137.71551 
L 66.007379 137.71551 
L 66.007379 137.693663 
L 64.76832 137.693663 
z
" style="fill:#1f77b4;"/>
   </g>
   <g id="patch_5">
    <path clip-path="url(#pcb4e651a4f)" d="M 66.317144 137.71551 
L 67.556203 137.71551 
L 67.556203 137.693663 
L 66.317144 137.693663 
z
" style="fill:#1f77b4;"/>
   </g>
   <g id="patch_6">
    <path clip-path="url(#pcb4e651a4f)" d="M 67.865968 137.71551 
L 69.105027 137.71551 
L 69.105027 137.671815 
L 67.865968 137.671815 
z
" style="fill:#1f77b4;"/>
   </g>
   <g id="patch_7">
    <path clip-path="url(#pcb4e651a4f)" d="M 69.414792 137.71551 
L 70.653851 137.71551 
L 70.653851 137.65725 
L 69.414792 137.65725 
z
" style="fill:#1f77b4;"/>
   </g>
   <g id="patch_8">
    <path clip-path="url(#pcb4e651a4f)" d="M 70.963616 137.71551 
L 72.202675 137.71551 
L 72.202675 137.62812 
L 70.963616 137.62812 
z
" style="fill:#1f77b4;"/>
   </g>
   <g id="patch_9">
    <path clip-path="url(#pcb4e651a4f)" d="M 72.51244 137.71551 
L 73.751499 137.71551 
L 73.751499 137.606273 
L 72.51244 137.606273 
z
" style="fill:#1f77b4;"/>
   </g>
   <g id="patch_10">
    <path clip-path="url(#pcb4e651a4f)" d="M 74.061264 137.71551 
L 75.300323 137.71551 
L 75.300323 137.56986 
L 74.061264 137.56986 
z
" style="fill:#1f77b4;"/>
   </g>
   <g id="patch_11">
    <path clip-path="url(#pcb4e651a4f)" d="M 75.610088 137.71551 
L 76.849147 137.71551 
L 76.849147 137.562578 
L 75.610088 137.562578 
z
" style="fill:#1f77b4;"/>
   </g>
   <g id="patch_12">
    <path clip-path="url(#pcb4e651a4f)" d="M 77.158911 137.71551 
L 78.397971 137.71551 
L 78.397971 137.548013 
L 77.158911 137.548013 
z
" style="fill:#1f77b4;"/>
   </g>
   <g id="patch_13">
    <path clip-path="url(#pcb4e651a4f)" d="M 78.707735 137.71551 
L 79.946794 137.71551 
L 79.946794 137.518883 
L 78.707735 137.518883 
z
" style="fill:#1f77b4;"/>
   </g>
   <g id="patch_14">
    <path clip-path="url(#pcb4e651a4f)" d="M 80.256559 137.71551 
L 81.495618 137.71551 
L 81.495618 137.504318 
L 80.256559 137.504318 
z
" style="fill:#1f77b4;"/>
   </g>
   <g id="patch_15">
    <path clip-path="url(#pcb4e651a4f)" d="M 81.805383 137.71551 
L 83.044442 137.71551 
L 83.044442 137.431493 
L 81.805383 137.431493 
z
" style="fill:#1f77b4;"/>
   </g>
   <g id="patch_16">
    <path clip-path="url(#pcb4e651a4f)" d="M 83.354207 137.71551 
L 84.593266 137.71551 
L 84.593266 137.358668 
L 83.354207 137.358668 
z
" style="fill:#1f77b4;"/>
   </g>
   <g id="patch_17">
    <path clip-path="url(#pcb4e651a4f)" d="M 84.903031 137.71551 
L 86.14209 137.71551 
L 86.14209 137.307691 
L 84.903031 137.307691 
z
" style="fill:#1f77b4;"/>
   </g>
   <g id="patch_18">
    <path clip-path="url(#pcb4e651a4f)" d="M 86.451855 137.71551 
L 87.690914 137.71551 
L 87.690914 137.293126 
L 86.451855 137.293126 
z
" style="fill:#1f77b4;"/>
   </g>
   <g id="patch_19">
    <path clip-path="url(#pcb4e651a4f)" d="M 88.000679 137.71551 
L 89.239738 137.71551 
L 89.239738 137.271279 
L 88.000679 137.271279 
z
" style="fill:#1f77b4;"/>
   </g>
   <g id="patch_20">
    <path clip-path="url(#pcb4e651a4f)" d="M 89.549503 137.71551 
L 90.788562 137.71551 
L 90.788562 137.242149 
L 89.549503 137.242149 
z
" style="fill:#1f77b4;"/>
   </g>
   <g id="patch_21">
    <path clip-path="url(#pcb4e651a4f)" d="M 91.098327 137.71551 
L 92.337386 137.71551 
L 92.337386 137.198454 
L 91.098327 137.198454 
z
" style="fill:#1f77b4;"/>
   </g>
   <g id="patch_22">
    <path clip-path="url(#pcb4e651a4f)" d="M 92.64715 137.71551 
L 93.88621 137.71551 
L 93.88621 137.183889 
L 92.64715 137.183889 
z
" style="fill:#1f77b4;"/>
   </g>
   <g id="patch_23">
    <path clip-path="url(#pcb4e651a4f)" d="M 94.195974 137.71551 
L 95.435033 137.71551 
L 95.435033 137.074652 
L 94.195974 137.074652 
z
" style="fill:#1f77b4;"/>
   </g>
   <g id="patch_24">
    <path clip-path="url(#pcb4e651a4f)" d="M 95.744798 137.71551 
L 96.983857 137.71551 
L 96.983857 136.965415 
L 95.744798 136.965415 
z
" style="fill:#1f77b4;"/>
   </g>
   <g id="patch_25">
    <path clip-path="url(#pcb4e651a4f)" d="M 97.293622 137.71551 
L 98.532681 137.71551 
L 98.532681 136.878025 
L 97.293622 136.878025 
z
" style="fill:#1f77b4;"/>
   </g>
   <g id="patch_26">
    <path clip-path="url(#pcb4e651a4f)" d="M 98.842446 137.71551 
L 100.081505 137.71551 
L 100.081505 136.848895 
L 98.842446 136.848895 
z
" style="fill:#1f77b4;"/>
   </g>
   <g id="patch_27">
    <path clip-path="url(#pcb4e651a4f)" d="M 100.39127 137.71551 
L 101.630329 137.71551 
L 101.630329 136.74694 
L 100.39127 136.74694 
z
" style="fill:#1f77b4;"/>
   </g>
   <g id="patch_28">
    <path clip-path="url(#pcb4e651a4f)" d="M 101.940094 137.71551 
L 103.179153 137.71551 
L 103.179153 136.564878 
L 101.940094 136.564878 
z
" style="fill:#1f77b4;"/>
   </g>
   <g id="patch_29">
    <path clip-path="url(#pcb4e651a4f)" d="M 103.488918 137.71551 
L 104.727977 137.71551 
L 104.727977 136.411946 
L 103.488918 136.411946 
z
" style="fill:#1f77b4;"/>
   </g>
   <g id="patch_30">
    <path clip-path="url(#pcb4e651a4f)" d="M 105.037742 137.71551 
L 106.276801 137.71551 
L 106.276801 136.324556 
L 105.037742 136.324556 
z
" style="fill:#1f77b4;"/>
   </g>
   <g id="patch_31">
    <path clip-path="url(#pcb4e651a4f)" d="M 106.586566 137.71551 
L 107.825625 137.71551 
L 107.825625 136.193472 
L 106.586566 136.193472 
z
" style="fill:#1f77b4;"/>
   </g>
   <g id="patch_32">
    <path clip-path="url(#pcb4e651a4f)" d="M 108.135389 137.71551 
L 109.374449 137.71551 
L 109.374449 136.047822 
L 108.135389 136.047822 
z
" style="fill:#1f77b4;"/>
   </g>
   <g id="patch_33">
    <path clip-path="url(#pcb4e651a4f)" d="M 109.684213 137.71551 
L 110.923273 137.71551 
L 110.923273 136.018692 
L 109.684213 136.018692 
z
" style="fill:#1f77b4;"/>
   </g>
   <g id="patch_34">
    <path clip-path="url(#pcb4e651a4f)" d="M 111.233037 137.71551 
L 112.472096 137.71551 
L 112.472096 135.647286 
L 111.233037 135.647286 
z
" style="fill:#1f77b4;"/>
   </g>
   <g id="patch_35">
    <path clip-path="url(#pcb4e651a4f)" d="M 112.781861 137.71551 
L 114.02092 137.71551 
L 114.02092 135.501636 
L 112.781861 135.501636 
z
" style="fill:#1f77b4;"/>
   </g>
   <g id="patch_36">
    <path clip-path="url(#pcb4e651a4f)" d="M 114.330685 137.71551 
L 115.569744 137.71551 
L 115.569744 135.399681 
L 114.330685 135.399681 
z
" style="fill:#1f77b4;"/>
   </g>
   <g id="patch_37">
    <path clip-path="url(#pcb4e651a4f)" d="M 115.879509 137.71551 
L 117.118568 137.71551 
L 117.118568 135.275879 
L 115.879509 135.275879 
z
" style="fill:#1f77b4;"/>
   </g>
   <g id="patch_38">
    <path clip-path="url(#pcb4e651a4f)" d="M 117.428333 137.71551 
L 118.667392 137.71551 
L 118.667392 134.962733 
L 117.428333 134.962733 
z
" style="fill:#1f77b4;"/>
   </g>
   <g id="patch_39">
    <path clip-path="url(#pcb4e651a4f)" d="M 118.977157 137.71551 
L 120.216216 137.71551 
L 120.216216 134.853496 
L 118.977157 134.853496 
z
" style="fill:#1f77b4;"/>
   </g>
   <g id="patch_40">
    <path clip-path="url(#pcb4e651a4f)" d="M 120.525981 137.71551 
L 121.76504 137.71551 
L 121.76504 134.780671 
L 120.525981 134.780671 
z
" style="fill:#1f77b4;"/>
   </g>
   <g id="patch_41">
    <path clip-path="url(#pcb4e651a4f)" d="M 122.074805 137.71551 
L 123.313864 137.71551 
L 123.313864 134.649586 
L 122.074805 134.649586 
z
" style="fill:#1f77b4;"/>
   </g>
   <g id="patch_42">
    <path clip-path="url(#pcb4e651a4f)" d="M 123.623629 137.71551 
L 124.862688 137.71551 
L 124.862688 134.525784 
L 123.623629 134.525784 
z
" style="fill:#1f77b4;"/>
   </g>
   <g id="patch_43">
    <path clip-path="url(#pcb4e651a4f)" d="M 125.172452 137.71551 
L 126.411512 137.71551 
L 126.411512 134.416547 
L 125.172452 134.416547 
z
" style="fill:#1f77b4;"/>
   </g>
   <g id="patch_44">
    <path clip-path="url(#pcb4e651a4f)" d="M 126.721276 137.71551 
L 127.960335 137.71551 
L 127.960335 134.176225 
L 126.721276 134.176225 
z
" style="fill:#1f77b4;"/>
   </g>
   <g id="patch_45">
    <path clip-path="url(#pcb4e651a4f)" d="M 128.2701 137.71551 
L 129.509159 137.71551 
L 129.509159 134.030575 
L 128.2701 134.030575 
z
" style="fill:#1f77b4;"/>
   </g>
   <g id="patch_46">
    <path clip-path="url(#pcb4e651a4f)" d="M 129.818924 137.71551 
L 131.057983 137.71551 
L 131.057983 133.542649 
L 129.818924 133.542649 
z
" style="fill:#1f77b4;"/>
   </g>
   <g id="patch_47">
    <path clip-path="url(#pcb4e651a4f)" d="M 131.367748 137.71551 
L 132.606807 137.71551 
L 132.606807 133.229503 
L 131.367748 133.229503 
z
" style="fill:#1f77b4;"/>
   </g>
   <g id="patch_48">
    <path clip-path="url(#pcb4e651a4f)" d="M 132.916572 137.71551 
L 134.155631 137.71551 
L 134.155631 132.901791 
L 132.916572 132.901791 
z
" style="fill:#1f77b4;"/>
   </g>
   <g id="patch_49">
    <path clip-path="url(#pcb4e651a4f)" d="M 134.465396 137.71551 
L 135.704455 137.71551 
L 135.704455 132.581362 
L 134.465396 132.581362 
z
" style="fill:#1f77b4;"/>
   </g>
   <g id="patch_50">
    <path clip-path="url(#pcb4e651a4f)" d="M 136.01422 137.71551 
L 137.253279 137.71551 
L 137.253279 132.027893 
L 136.01422 132.027893 
z
" style="fill:#1f77b4;"/>
   </g>
   <g id="patch_51">
    <path clip-path="url(#pcb4e651a4f)" d="M 137.563044 137.71551 
L 138.802103 137.71551 
L 138.802103 131.831266 
L 137.563044 131.831266 
z
" style="fill:#1f77b4;"/>
   </g>
   <g id="patch_52">
    <path clip-path="url(#pcb4e651a4f)" d="M 139.111868 137.71551 
L 140.350927 137.71551 
L 140.350927 131.707464 
L 139.111868 131.707464 
z
" style="fill:#1f77b4;"/>
   </g>
   <g id="patch_53">
    <path clip-path="url(#pcb4e651a4f)" d="M 140.660691 137.71551 
L 141.899751 137.71551 
L 141.899751 131.525402 
L 140.660691 131.525402 
z
" style="fill:#1f77b4;"/>
   </g>
   <g id="patch_54">
    <path clip-path="url(#pcb4e651a4f)" d="M 142.209515 137.71551 
L 143.448574 137.71551 
L 143.448574 131.445295 
L 142.209515 131.445295 
z
" style="fill:#1f77b4;"/>
   </g>
   <g id="patch_55">
    <path clip-path="url(#pcb4e651a4f)" d="M 143.758339 137.71551 
L 144.997398 137.71551 
L 144.997398 131.001064 
L 143.758339 131.001064 
z
" style="fill:#1f77b4;"/>
   </g>
   <g id="patch_56">
    <path clip-path="url(#pcb4e651a4f)" d="M 145.307163 137.71551 
L 146.546222 137.71551 
L 146.546222 130.258251 
L 145.307163 130.258251 
z
" style="fill:#1f77b4;"/>
   </g>
   <g id="patch_57">
    <path clip-path="url(#pcb4e651a4f)" d="M 146.855987 137.71551 
L 148.095046 137.71551 
L 148.095046 130.236403 
L 146.855987 130.236403 
z
" style="fill:#1f77b4;"/>
   </g>
   <g id="patch_58">
    <path clip-path="url(#pcb4e651a4f)" d="M 148.404811 137.71551 
L 149.64387 137.71551 
L 149.64387 130.047059 
L 148.404811 130.047059 
z
" style="fill:#1f77b4;"/>
   </g>
   <g id="patch_59">
    <path clip-path="url(#pcb4e651a4f)" d="M 149.953635 137.71551 
L 151.192694 137.71551 
L 151.192694 129.930539 
L 149.953635 129.930539 
z
" style="fill:#1f77b4;"/>
   </g>
   <g id="patch_60">
    <path clip-path="url(#pcb4e651a4f)" d="M 151.502459 137.71551 
L 152.741518 137.71551 
L 152.741518 129.75576 
L 151.502459 129.75576 
z
" style="fill:#1f77b4;"/>
   </g>
   <g id="patch_61">
    <path clip-path="url(#pcb4e651a4f)" d="M 153.051283 137.71551 
L 154.290342 137.71551 
L 154.290342 129.704782 
L 153.051283 129.704782 
z
" style="fill:#1f77b4;"/>
   </g>
   <g id="patch_62">
    <path clip-path="url(#pcb4e651a4f)" d="M 154.600107 137.71551 
L 155.839166 137.71551 
L 155.839166 129.595545 
L 154.600107 129.595545 
z
" style="fill:#1f77b4;"/>
   </g>
   <g id="patch_63">
    <path clip-path="url(#pcb4e651a4f)" d="M 156.14893 137.71551 
L 157.38799 137.71551 
L 157.38799 129.457178 
L 156.14893 129.457178 
z
" style="fill:#1f77b4;"/>
   </g>
   <g id="patch_64">
    <path clip-path="url(#pcb4e651a4f)" d="M 157.697754 137.71551 
L 158.936814 137.71551 
L 158.936814 127.352541 
L 157.697754 127.352541 
z
" style="fill:#1f77b4;"/>
   </g>
   <g id="patch_65">
    <path clip-path="url(#pcb4e651a4f)" d="M 159.246578 137.71551 
L 160.485637 137.71551 
L 160.485637 126.267452 
L 159.246578 126.267452 
z
" style="fill:#1f77b4;"/>
   </g>
   <g id="patch_66">
    <path clip-path="url(#pcb4e651a4f)" d="M 160.795402 137.71551 
L 162.034461 137.71551 
L 162.034461 125.772243 
L 160.795402 125.772243 
z
" style="fill:#1f77b4;"/>
   </g>
   <g id="patch_67">
    <path clip-path="url(#pcb4e651a4f)" d="M 162.344226 137.71551 
L 163.583285 137.71551 
L 163.583285 125.393554 
L 162.344226 125.393554 
z
" style="fill:#1f77b4;"/>
   </g>
   <g id="patch_68">
    <path clip-path="url(#pcb4e651a4f)" d="M 163.89305 137.71551 
L 165.132109 137.71551 
L 165.132109 124.978453 
L 163.89305 124.978453 
z
" style="fill:#1f77b4;"/>
   </g>
   <g id="patch_69">
    <path clip-path="url(#pcb4e651a4f)" d="M 165.441874 137.71551 
L 166.680933 137.71551 
L 166.680933 124.272053 
L 165.441874 124.272053 
z
" style="fill:#1f77b4;"/>
   </g>
   <g id="patch_70">
    <path clip-path="url(#pcb4e651a4f)" d="M 166.990698 137.71551 
L 168.229757 137.71551 
L 168.229757 123.310765 
L 166.990698 123.310765 
z
" style="fill:#1f77b4;"/>
   </g>
   <g id="patch_71">
    <path clip-path="url(#pcb4e651a4f)" d="M 168.539522 137.71551 
L 169.778581 137.71551 
L 169.778581 122.320348 
L 168.539522 122.320348 
z
" style="fill:#1f77b4;"/>
   </g>
   <g id="patch_72">
    <path clip-path="url(#pcb4e651a4f)" d="M 170.088346 137.71551 
L 171.327405 137.71551 
L 171.327405 120.936677 
L 170.088346 120.936677 
z
" style="fill:#1f77b4;"/>
   </g>
   <g id="patch_73">
    <path clip-path="url(#pcb4e651a4f)" d="M 171.63717 137.71551 
L 172.876229 137.71551 
L 172.876229 120.405056 
L 171.63717 120.405056 
z
" style="fill:#1f77b4;"/>
   </g>
   <g id="patch_74">
    <path clip-path="url(#pcb4e651a4f)" d="M 173.185993 137.71551 
L 174.425053 137.71551 
L 174.425053 119.924412 
L 173.185993 119.924412 
z
" style="fill:#1f77b4;"/>
   </g>
   <g id="patch_75">
    <path clip-path="url(#pcb4e651a4f)" d="M 174.734817 137.71551 
L 175.973876 137.71551 
L 175.973876 119.421921 
L 174.734817 119.421921 
z
" style="fill:#1f77b4;"/>
   </g>
   <g id="patch_76">
    <path clip-path="url(#pcb4e651a4f)" d="M 176.283641 137.71551 
L 177.5227 137.71551 
L 177.5227 118.264007 
L 176.283641 118.264007 
z
" style="fill:#1f77b4;"/>
   </g>
   <g id="patch_77">
    <path clip-path="url(#pcb4e651a4f)" d="M 177.832465 137.71551 
L 179.071524 137.71551 
L 179.071524 117.01142 
L 177.832465 117.01142 
z
" style="fill:#1f77b4;"/>
   </g>
   <g id="patch_78">
    <path clip-path="url(#pcb4e651a4f)" d="M 179.381289 137.71551 
L 180.620348 137.71551 
L 180.620348 115.212648 
L 179.381289 115.212648 
z
" style="fill:#1f77b4;"/>
   </g>
   <g id="patch_79">
    <path clip-path="url(#pcb4e651a4f)" d="M 180.930113 137.71551 
L 182.169172 137.71551 
L 182.169172 113.54496 
L 180.930113 113.54496 
z
" style="fill:#1f77b4;"/>
   </g>
   <g id="patch_80">
    <path clip-path="url(#pcb4e651a4f)" d="M 182.478937 137.71551 
L 183.717996 137.71551 
L 183.717996 111.60782 
L 182.478937 111.60782 
z
" style="fill:#1f77b4;"/>
   </g>
   <g id="patch_81">
    <path clip-path="url(#pcb4e651a4f)" d="M 184.027761 137.71551 
L 185.26682 137.71551 
L 185.26682 110.75577 
L 184.027761 110.75577 
z
" style="fill:#1f77b4;"/>
   </g>
   <g id="patch_82">
    <path clip-path="url(#pcb4e651a4f)" d="M 185.576585 137.71551 
L 186.815644 137.71551 
L 186.815644 109.270145 
L 185.576585 109.270145 
z
" style="fill:#1f77b4;"/>
   </g>
   <g id="patch_83">
    <path clip-path="url(#pcb4e651a4f)" d="M 187.125409 137.71551 
L 188.364468 137.71551 
L 188.364468 105.840097 
L 187.125409 105.840097 
z
" style="fill:#1f77b4;"/>
   </g>
   <g id="patch_84">
    <path clip-path="url(#pcb4e651a4f)" d="M 188.674232 137.71551 
L 189.913292 137.71551 
L 189.913292 104.434578 
L 188.674232 104.434578 
z
" style="fill:#1f77b4;"/>
   </g>
   <g id="patch_85">
    <path clip-path="url(#pcb4e651a4f)" d="M 190.223056 137.71551 
L 191.462115 137.71551 
L 191.462115 101.710931 
L 190.223056 101.710931 
z
" style="fill:#1f77b4;"/>
   </g>
   <g id="patch_86">
    <path clip-path="url(#pcb4e651a4f)" d="M 191.77188 137.71551 
L 193.010939 137.71551 
L 193.010939 98.586747 
L 191.77188 98.586747 
z
" style="fill:#1f77b4;"/>
   </g>
   <g id="patch_87">
    <path clip-path="url(#pcb4e651a4f)" d="M 193.320704 137.71551 
L 194.559763 137.71551 
L 194.559763 96.431133 
L 193.320704 96.431133 
z
" style="fill:#1f77b4;"/>
   </g>
   <g id="patch_88">
    <path clip-path="url(#pcb4e651a4f)" d="M 194.869528 137.71551 
L 196.108587 137.71551 
L 196.108587 95.382456 
L 194.869528 95.382456 
z
" style="fill:#1f77b4;"/>
   </g>
   <g id="patch_89">
    <path clip-path="url(#pcb4e651a4f)" d="M 196.418352 137.71551 
L 197.657411 137.71551 
L 197.657411 93.117605 
L 196.418352 93.117605 
z
" style="fill:#1f77b4;"/>
   </g>
   <g id="patch_90">
    <path clip-path="url(#pcb4e651a4f)" d="M 197.967176 137.71551 
L 199.206235 137.71551 
L 199.206235 90.22646 
L 197.967176 90.22646 
z
" style="fill:#1f77b4;"/>
   </g>
   <g id="patch_91">
    <path clip-path="url(#pcb4e651a4f)" d="M 199.516 137.71551 
L 200.755059 137.71551 
L 200.755059 85.580238 
L 199.516 85.580238 
z
" style="fill:#1f77b4;"/>
   </g>
   <g id="patch_92">
    <path clip-path="url(#pcb4e651a4f)" d="M 201.064824 137.71551 
L 202.303883 137.71551 
L 202.303883 81.953563 
L 201.064824 81.953563 
z
" style="fill:#1f77b4;"/>
   </g>
   <g id="patch_93">
    <path clip-path="url(#pcb4e651a4f)" d="M 202.613648 137.71551 
L 203.852707 137.71551 
L 203.852707 80.577175 
L 202.613648 80.577175 
z
" style="fill:#1f77b4;"/>
   </g>
   <g id="patch_94">
    <path clip-path="url(#pcb4e651a4f)" d="M 204.162471 137.71551 
L 205.401531 137.71551 
L 205.401531 79.892622 
L 204.162471 79.892622 
z
" style="fill:#1f77b4;"/>
   </g>
   <g id="patch_95">
    <path clip-path="url(#pcb4e651a4f)" d="M 205.711295 137.71551 
L 206.950355 137.71551 
L 206.950355 79.863492 
L 205.711295 79.863492 
z
" style="fill:#1f77b4;"/>
   </g>
   <g id="patch_96">
    <path clip-path="url(#pcb4e651a4f)" d="M 207.260119 137.71551 
L 208.499178 137.71551 
L 208.499178 63.565302 
L 207.260119 63.565302 
z
" style="fill:#1f77b4;"/>
   </g>
   <g id="patch_97">
    <path clip-path="url(#pcb4e651a4f)" d="M 208.808943 137.71551 
L 210.048002 137.71551 
L 210.048002 55.685659 
L 208.808943 55.685659 
z
" style="fill:#1f77b4;"/>
   </g>
   <g id="patch_98">
    <path clip-path="url(#pcb4e651a4f)" d="M 210.357767 137.71551 
L 211.596826 137.71551 
L 211.596826 48.607089 
L 210.357767 48.607089 
z
" style="fill:#1f77b4;"/>
   </g>
   <g id="patch_99">
    <path clip-path="url(#pcb4e651a4f)" d="M 211.906591 137.71551 
L 213.14565 137.71551 
L 213.14565 40.829401 
L 211.906591 40.829401 
z
" style="fill:#1f77b4;"/>
   </g>
   <g id="patch_100">
    <path clip-path="url(#pcb4e651a4f)" d="M 213.455415 137.71551 
L 214.694474 137.71551 
L 214.694474 35.564168 
L 213.455415 35.564168 
z
" style="fill:#1f77b4;"/>
   </g>
   <g id="patch_101">
    <path clip-path="url(#pcb4e651a4f)" d="M 215.004239 137.71551 
L 216.243298 137.71551 
L 216.243298 29.352213 
L 215.004239 29.352213 
z
" style="fill:#1f77b4;"/>
   </g>
   <g id="patch_102">
    <path clip-path="url(#pcb4e651a4f)" d="M 216.553063 137.71551 
L 217.792122 137.71551 
L 217.792122 23.970461 
L 216.553063 23.970461 
z
" style="fill:#1f77b4;"/>
   </g>
   <g id="matplotlib.axis_1">
    <g id="xtick_1">
     <g id="line2d_1">
      <defs>
       <path d="M 0 0 
L 0 3.5 
" id="me439ab08b0" style="stroke:#000000;stroke-width:0.8;"/>
      </defs>
      <g>
       <use style="stroke:#000000;stroke-width:0.8;" x="63.839026" xlink:href="#me439ab08b0" y="137.71551"/>
      </g>
     </g>
     <g id="text_1">
      <!-- 0 -->
      <defs>
       <path d="M 31.78125 66.40625 
Q 24.171875 66.40625 20.328125 58.90625 
Q 16.5 51.421875 16.5 36.375 
Q 16.5 21.390625 20.328125 13.890625 
Q 24.171875 6.390625 31.78125 6.390625 
Q 39.453125 6.390625 43.28125 13.890625 
Q 47.125 21.390625 47.125 36.375 
Q 47.125 51.421875 43.28125 58.90625 
Q 39.453125 66.40625 31.78125 66.40625 
z
M 31.78125 74.21875 
Q 44.046875 74.21875 50.515625 64.515625 
Q 56.984375 54.828125 56.984375 36.375 
Q 56.984375 17.96875 50.515625 8.265625 
Q 44.046875 -1.421875 31.78125 -1.421875 
Q 19.53125 -1.421875 13.0625 8.265625 
Q 6.59375 17.96875 6.59375 36.375 
Q 6.59375 54.828125 13.0625 64.515625 
Q 19.53125 74.21875 31.78125 74.21875 
z
" id="DejaVuSans-48"/>
      </defs>
      <g transform="translate(60.657776 152.313947)scale(0.1 -0.1)">
       <use xlink:href="#DejaVuSans-48"/>
      </g>
     </g>
    </g>
    <g id="xtick_2">
     <g id="line2d_2">
      <g>
       <use style="stroke:#000000;stroke-width:0.8;" x="102.559623" xlink:href="#me439ab08b0" y="137.71551"/>
      </g>
     </g>
     <g id="text_2">
      <!-- 25 -->
      <defs>
       <path d="M 19.1875 8.296875 
L 53.609375 8.296875 
L 53.609375 0 
L 7.328125 0 
L 7.328125 8.296875 
Q 12.9375 14.109375 22.625 23.890625 
Q 32.328125 33.6875 34.8125 36.53125 
Q 39.546875 41.84375 41.421875 45.53125 
Q 43.3125 49.21875 43.3125 52.78125 
Q 43.3125 58.59375 39.234375 62.25 
Q 35.15625 65.921875 28.609375 65.921875 
Q 23.96875 65.921875 18.8125 64.3125 
Q 13.671875 62.703125 7.8125 59.421875 
L 7.8125 69.390625 
Q 13.765625 71.78125 18.9375 73 
Q 24.125 74.21875 28.421875 74.21875 
Q 39.75 74.21875 46.484375 68.546875 
Q 53.21875 62.890625 53.21875 53.421875 
Q 53.21875 48.921875 51.53125 44.890625 
Q 49.859375 40.875 45.40625 35.40625 
Q 44.1875 33.984375 37.640625 27.21875 
Q 31.109375 20.453125 19.1875 8.296875 
z
" id="DejaVuSans-50"/>
       <path d="M 10.796875 72.90625 
L 49.515625 72.90625 
L 49.515625 64.59375 
L 19.828125 64.59375 
L 19.828125 46.734375 
Q 21.96875 47.46875 24.109375 47.828125 
Q 26.265625 48.1875 28.421875 48.1875 
Q 40.625 48.1875 47.75 41.5 
Q 54.890625 34.8125 54.890625 23.390625 
Q 54.890625 11.625 47.5625 5.09375 
Q 40.234375 -1.421875 26.90625 -1.421875 
Q 22.3125 -1.421875 17.546875 -0.640625 
Q 12.796875 0.140625 7.71875 1.703125 
L 7.71875 11.625 
Q 12.109375 9.234375 16.796875 8.0625 
Q 21.484375 6.890625 26.703125 6.890625 
Q 35.15625 6.890625 40.078125 11.328125 
Q 45.015625 15.765625 45.015625 23.390625 
Q 45.015625 31 40.078125 35.4375 
Q 35.15625 39.890625 26.703125 39.890625 
Q 22.75 39.890625 18.8125 39.015625 
Q 14.890625 38.140625 10.796875 36.28125 
z
" id="DejaVuSans-53"/>
      </defs>
      <g transform="translate(96.197123 152.313947)scale(0.1 -0.1)">
       <use xlink:href="#DejaVuSans-50"/>
       <use x="63.623047" xlink:href="#DejaVuSans-53"/>
      </g>
     </g>
    </g>
    <g id="xtick_3">
     <g id="line2d_3">
      <g>
       <use style="stroke:#000000;stroke-width:0.8;" x="141.280221" xlink:href="#me439ab08b0" y="137.71551"/>
      </g>
     </g>
     <g id="text_3">
      <!-- 50 -->
      <g transform="translate(134.917721 152.313947)scale(0.1 -0.1)">
       <use xlink:href="#DejaVuSans-53"/>
       <use x="63.623047" xlink:href="#DejaVuSans-48"/>
      </g>
     </g>
    </g>
    <g id="xtick_4">
     <g id="line2d_4">
      <g>
       <use style="stroke:#000000;stroke-width:0.8;" x="180.000819" xlink:href="#me439ab08b0" y="137.71551"/>
      </g>
     </g>
     <g id="text_4">
      <!-- 75 -->
      <defs>
       <path d="M 8.203125 72.90625 
L 55.078125 72.90625 
L 55.078125 68.703125 
L 28.609375 0 
L 18.3125 0 
L 43.21875 64.59375 
L 8.203125 64.59375 
z
" id="DejaVuSans-55"/>
      </defs>
      <g transform="translate(173.638319 152.313947)scale(0.1 -0.1)">
       <use xlink:href="#DejaVuSans-55"/>
       <use x="63.623047" xlink:href="#DejaVuSans-53"/>
      </g>
     </g>
    </g>
    <g id="xtick_5">
     <g id="line2d_5">
      <g>
       <use style="stroke:#000000;stroke-width:0.8;" x="218.721416" xlink:href="#me439ab08b0" y="137.71551"/>
      </g>
     </g>
     <g id="text_5">
      <!-- 100 -->
      <defs>
       <path d="M 12.40625 8.296875 
L 28.515625 8.296875 
L 28.515625 63.921875 
L 10.984375 60.40625 
L 10.984375 69.390625 
L 28.421875 72.90625 
L 38.28125 72.90625 
L 38.28125 8.296875 
L 54.390625 8.296875 
L 54.390625 0 
L 12.40625 0 
z
" id="DejaVuSans-49"/>
      </defs>
      <g transform="translate(209.177666 152.313947)scale(0.1 -0.1)">
       <use xlink:href="#DejaVuSans-49"/>
       <use x="63.623047" xlink:href="#DejaVuSans-48"/>
       <use x="127.246094" xlink:href="#DejaVuSans-48"/>
      </g>
     </g>
    </g>
    <g id="text_6">
     <!-- Dias -->
     <defs>
      <path d="M 19.671875 64.796875 
L 19.671875 8.109375 
L 31.59375 8.109375 
Q 46.6875 8.109375 53.6875 14.9375 
Q 60.6875 21.78125 60.6875 36.53125 
Q 60.6875 51.171875 53.6875 57.984375 
Q 46.6875 64.796875 31.59375 64.796875 
z
M 9.8125 72.90625 
L 30.078125 72.90625 
Q 51.265625 72.90625 61.171875 64.09375 
Q 71.09375 55.28125 71.09375 36.53125 
Q 71.09375 17.671875 61.125 8.828125 
Q 51.171875 0 30.078125 0 
L 9.8125 0 
z
" id="DejaVuSans-68"/>
      <path d="M 9.421875 54.6875 
L 18.40625 54.6875 
L 18.40625 0 
L 9.421875 0 
z
M 9.421875 75.984375 
L 18.40625 75.984375 
L 18.40625 64.59375 
L 9.421875 64.59375 
z
" id="DejaVuSans-105"/>
      <path d="M 34.28125 27.484375 
Q 23.390625 27.484375 19.1875 25 
Q 14.984375 22.515625 14.984375 16.5 
Q 14.984375 11.71875 18.140625 8.90625 
Q 21.296875 6.109375 26.703125 6.109375 
Q 34.1875 6.109375 38.703125 11.40625 
Q 43.21875 16.703125 43.21875 25.484375 
L 43.21875 27.484375 
z
M 52.203125 31.203125 
L 52.203125 0 
L 43.21875 0 
L 43.21875 8.296875 
Q 40.140625 3.328125 35.546875 0.953125 
Q 30.953125 -1.421875 24.3125 -1.421875 
Q 15.921875 -1.421875 10.953125 3.296875 
Q 6 8.015625 6 15.921875 
Q 6 25.140625 12.171875 29.828125 
Q 18.359375 34.515625 30.609375 34.515625 
L 43.21875 34.515625 
L 43.21875 35.40625 
Q 43.21875 41.609375 39.140625 45 
Q 35.0625 48.390625 27.6875 48.390625 
Q 23 48.390625 18.546875 47.265625 
Q 14.109375 46.140625 10.015625 43.890625 
L 10.015625 52.203125 
Q 14.9375 54.109375 19.578125 55.046875 
Q 24.21875 56 28.609375 56 
Q 40.484375 56 46.34375 49.84375 
Q 52.203125 43.703125 52.203125 31.203125 
z
" id="DejaVuSans-97"/>
      <path d="M 44.28125 53.078125 
L 44.28125 44.578125 
Q 40.484375 46.53125 36.375 47.5 
Q 32.28125 48.484375 27.875 48.484375 
Q 21.1875 48.484375 17.84375 46.4375 
Q 14.5 44.390625 14.5 40.28125 
Q 14.5 37.15625 16.890625 35.375 
Q 19.28125 33.59375 26.515625 31.984375 
L 29.59375 31.296875 
Q 39.15625 29.25 43.1875 25.515625 
Q 47.21875 21.78125 47.21875 15.09375 
Q 47.21875 7.46875 41.1875 3.015625 
Q 35.15625 -1.421875 24.609375 -1.421875 
Q 20.21875 -1.421875 15.453125 -0.5625 
Q 10.6875 0.296875 5.421875 2 
L 5.421875 11.28125 
Q 10.40625 8.6875 15.234375 7.390625 
Q 20.0625 6.109375 24.8125 6.109375 
Q 31.15625 6.109375 34.5625 8.28125 
Q 37.984375 10.453125 37.984375 14.40625 
Q 37.984375 18.0625 35.515625 20.015625 
Q 33.0625 21.96875 24.703125 23.78125 
L 21.578125 24.515625 
Q 13.234375 26.265625 9.515625 29.90625 
Q 5.8125 33.546875 5.8125 39.890625 
Q 5.8125 47.609375 11.28125 51.796875 
Q 16.75 56 26.8125 56 
Q 31.78125 56 36.171875 55.265625 
Q 40.578125 54.546875 44.28125 53.078125 
z
" id="DejaVuSans-115"/>
     </defs>
     <g transform="translate(129.597997 165.992072)scale(0.1 -0.1)">
      <use xlink:href="#DejaVuSans-68"/>
      <use x="77.001953" xlink:href="#DejaVuSans-105"/>
      <use x="104.785156" xlink:href="#DejaVuSans-97"/>
      <use x="166.064453" xlink:href="#DejaVuSans-115"/>
     </g>
    </g>
   </g>
   <g id="matplotlib.axis_2">
    <g id="ytick_1">
     <g id="line2d_6">
      <defs>
       <path d="M 0 0 
L -3.5 0 
" id="m10cf01d9ef" style="stroke:#000000;stroke-width:0.8;"/>
      </defs>
      <g>
       <use style="stroke:#000000;stroke-width:0.8;" x="55.490865" xlink:href="#m10cf01d9ef" y="137.71551"/>
      </g>
     </g>
     <g id="text_7">
      <!-- 0 -->
      <g transform="translate(42.128365 141.514729)scale(0.1 -0.1)">
       <use xlink:href="#DejaVuSans-48"/>
      </g>
     </g>
    </g>
    <g id="ytick_2">
     <g id="line2d_7">
      <g>
       <use style="stroke:#000000;stroke-width:0.8;" x="55.490865" xlink:href="#m10cf01d9ef" y="101.303112"/>
      </g>
     </g>
     <g id="text_8">
      <!-- 5000 -->
      <g transform="translate(23.040865 105.102331)scale(0.1 -0.1)">
       <use xlink:href="#DejaVuSans-53"/>
       <use x="63.623047" xlink:href="#DejaVuSans-48"/>
       <use x="127.246094" xlink:href="#DejaVuSans-48"/>
       <use x="190.869141" xlink:href="#DejaVuSans-48"/>
      </g>
     </g>
    </g>
    <g id="ytick_3">
     <g id="line2d_8">
      <g>
       <use style="stroke:#000000;stroke-width:0.8;" x="55.490865" xlink:href="#m10cf01d9ef" y="64.890714"/>
      </g>
     </g>
     <g id="text_9">
      <!-- 10000 -->
      <g transform="translate(16.678365 68.689932)scale(0.1 -0.1)">
       <use xlink:href="#DejaVuSans-49"/>
       <use x="63.623047" xlink:href="#DejaVuSans-48"/>
       <use x="127.246094" xlink:href="#DejaVuSans-48"/>
       <use x="190.869141" xlink:href="#DejaVuSans-48"/>
       <use x="254.492188" xlink:href="#DejaVuSans-48"/>
      </g>
     </g>
    </g>
    <g id="ytick_4">
     <g id="line2d_9">
      <g>
       <use style="stroke:#000000;stroke-width:0.8;" x="55.490865" xlink:href="#m10cf01d9ef" y="28.478315"/>
      </g>
     </g>
     <g id="text_10">
      <!-- 15000 -->
      <g transform="translate(16.678365 32.277534)scale(0.1 -0.1)">
       <use xlink:href="#DejaVuSans-49"/>
       <use x="63.623047" xlink:href="#DejaVuSans-53"/>
       <use x="127.246094" xlink:href="#DejaVuSans-48"/>
       <use x="190.869141" xlink:href="#DejaVuSans-48"/>
       <use x="254.492188" xlink:href="#DejaVuSans-48"/>
      </g>
     </g>
    </g>
    <g id="text_11">
     <!-- Casos -->
     <defs>
      <path d="M 64.40625 67.28125 
L 64.40625 56.890625 
Q 59.421875 61.53125 53.78125 63.8125 
Q 48.140625 66.109375 41.796875 66.109375 
Q 29.296875 66.109375 22.65625 58.46875 
Q 16.015625 50.828125 16.015625 36.375 
Q 16.015625 21.96875 22.65625 14.328125 
Q 29.296875 6.6875 41.796875 6.6875 
Q 48.140625 6.6875 53.78125 8.984375 
Q 59.421875 11.28125 64.40625 15.921875 
L 64.40625 5.609375 
Q 59.234375 2.09375 53.4375 0.328125 
Q 47.65625 -1.421875 41.21875 -1.421875 
Q 24.65625 -1.421875 15.125 8.703125 
Q 5.609375 18.84375 5.609375 36.375 
Q 5.609375 53.953125 15.125 64.078125 
Q 24.65625 74.21875 41.21875 74.21875 
Q 47.75 74.21875 53.53125 72.484375 
Q 59.328125 70.75 64.40625 67.28125 
z
" id="DejaVuSans-67"/>
      <path d="M 30.609375 48.390625 
Q 23.390625 48.390625 19.1875 42.75 
Q 14.984375 37.109375 14.984375 27.296875 
Q 14.984375 17.484375 19.15625 11.84375 
Q 23.34375 6.203125 30.609375 6.203125 
Q 37.796875 6.203125 41.984375 11.859375 
Q 46.1875 17.53125 46.1875 27.296875 
Q 46.1875 37.015625 41.984375 42.703125 
Q 37.796875 48.390625 30.609375 48.390625 
z
M 30.609375 56 
Q 42.328125 56 49.015625 48.375 
Q 55.71875 40.765625 55.71875 27.296875 
Q 55.71875 13.875 49.015625 6.21875 
Q 42.328125 -1.421875 30.609375 -1.421875 
Q 18.84375 -1.421875 12.171875 6.21875 
Q 5.515625 13.875 5.515625 27.296875 
Q 5.515625 40.765625 12.171875 48.375 
Q 18.84375 56 30.609375 56 
z
" id="DejaVuSans-111"/>
     </defs>
     <g transform="translate(10.598678 92.741156)rotate(-90)scale(0.1 -0.1)">
      <use xlink:href="#DejaVuSans-67"/>
      <use x="69.824219" xlink:href="#DejaVuSans-97"/>
      <use x="131.103516" xlink:href="#DejaVuSans-115"/>
      <use x="183.203125" xlink:href="#DejaVuSans-111"/>
      <use x="244.384766" xlink:href="#DejaVuSans-115"/>
     </g>
    </g>
   </g>
   <g id="line2d_10">
    <path clip-path="url(#pcb4e651a4f)" d="M 63.839026 137.681524 
L 65.38785 137.672986 
L 66.936674 137.661812 
L 68.485498 137.648257 
L 70.034321 137.632236 
L 71.583145 137.613704 
L 73.131969 137.59263 
L 74.680793 137.568966 
L 76.229617 137.542744 
L 77.778441 137.51403 
L 79.327265 137.482886 
L 80.876089 137.449373 
L 82.424913 137.413519 
L 83.973737 137.375302 
L 85.52256 137.33448 
L 87.071384 137.290578 
L 88.620208 137.242956 
L 90.169032 137.190859 
L 91.717856 137.133433 
L 93.26668 137.069702 
L 94.815504 136.998718 
L 96.364328 136.919851 
L 97.913152 136.832719 
L 99.461976 136.737074 
L 101.0108 136.632798 
L 102.559623 136.519888 
L 104.108447 136.398792 
L 105.657271 136.270215 
L 107.206095 136.13486 
L 108.754919 135.99346 
L 110.303743 135.847076 
L 111.852567 135.696853 
L 113.401391 135.543972 
L 114.950215 135.388969 
L 116.499039 135.23172 
L 118.047862 135.071397 
L 119.596686 134.906566 
L 121.14551 134.734777 
L 122.694334 134.55323 
L 124.243158 134.359121 
L 125.791982 134.150246 
L 127.340806 133.92509 
L 128.88963 133.683567 
L 130.438454 133.426842 
L 131.987278 133.157591 
L 133.536101 132.879131 
L 135.084925 132.594862 
L 136.633749 132.308207 
L 138.182573 132.023131 
L 139.731397 131.742066 
L 141.280221 131.465623 
L 142.829045 131.192389 
L 144.377869 130.91937 
L 145.926693 130.642196 
L 147.475517 130.354388 
L 149.024341 130.045815 
L 150.573164 129.706611 
L 152.121988 129.328159 
L 153.670812 128.903549 
L 155.219636 128.427673 
L 156.76846 127.897584 
L 158.317284 127.313518 
L 159.866108 126.680733 
L 161.414932 126.004961 
L 162.963756 125.291533 
L 164.51258 124.544368 
L 166.061403 123.765685 
L 167.610227 122.95524 
L 169.159051 122.109053 
L 170.707875 121.218431 
L 172.256699 120.272852 
L 173.805523 119.259714 
L 175.354347 118.16611 
L 176.903171 116.979172 
L 178.451995 115.687013 
L 180.000819 114.281476 
L 181.549642 112.756957 
L 183.098466 111.109706 
L 184.64729 109.340149 
L 186.196114 107.452027 
L 187.744938 105.452651 
L 189.293762 103.346835 
L 190.842586 101.131493 
L 192.39141 98.798609 
L 193.940234 96.333816 
L 195.489058 93.710889 
L 197.037882 90.887919 
L 198.586705 87.803721 
L 200.135529 84.399394 
L 201.684353 80.626872 
L 203.233177 76.448685 
L 204.782001 71.840999 
L 206.330825 66.80196 
L 207.879649 61.361238 
L 209.428473 55.577547 
L 210.977297 49.517533 
L 212.526121 43.250927 
L 214.074944 36.845915 
L 215.623768 30.351854 
L 217.172592 23.813467 
" style="fill:none;stroke:#ff0000;stroke-linecap:square;stroke-width:1.5;"/>
   </g>
   <g id="patch_103">
    <path d="M 55.490865 137.71551 
L 55.490865 18.118365 
" style="fill:none;stroke:#000000;stroke-linecap:square;stroke-linejoin:miter;stroke-width:0.8;"/>
   </g>
   <g id="patch_104">
    <path d="M 225.520753 137.71551 
L 225.520753 18.118365 
" style="fill:none;stroke:#000000;stroke-linecap:square;stroke-linejoin:miter;stroke-width:0.8;"/>
   </g>
   <g id="patch_105">
    <path d="M 55.490865 137.71551 
L 225.520753 137.71551 
" style="fill:none;stroke:#000000;stroke-linecap:square;stroke-linejoin:miter;stroke-width:0.8;"/>
   </g>
   <g id="patch_106">
    <path d="M 55.490865 18.118365 
L 225.520753 18.118365 
" style="fill:none;stroke:#000000;stroke-linecap:square;stroke-linejoin:miter;stroke-width:0.8;"/>
   </g>
   <g id="text_12">
    <!-- Casos acumulados - GO -->
    <defs>
     <path id="DejaVuSans-32"/>
     <path d="M 48.78125 52.59375 
L 48.78125 44.1875 
Q 44.96875 46.296875 41.140625 47.34375 
Q 37.3125 48.390625 33.40625 48.390625 
Q 24.65625 48.390625 19.8125 42.84375 
Q 14.984375 37.3125 14.984375 27.296875 
Q 14.984375 17.28125 19.8125 11.734375 
Q 24.65625 6.203125 33.40625 6.203125 
Q 37.3125 6.203125 41.140625 7.25 
Q 44.96875 8.296875 48.78125 10.40625 
L 48.78125 2.09375 
Q 45.015625 0.34375 40.984375 -0.53125 
Q 36.96875 -1.421875 32.421875 -1.421875 
Q 20.0625 -1.421875 12.78125 6.34375 
Q 5.515625 14.109375 5.515625 27.296875 
Q 5.515625 40.671875 12.859375 48.328125 
Q 20.21875 56 33.015625 56 
Q 37.15625 56 41.109375 55.140625 
Q 45.0625 54.296875 48.78125 52.59375 
z
" id="DejaVuSans-99"/>
     <path d="M 8.5 21.578125 
L 8.5 54.6875 
L 17.484375 54.6875 
L 17.484375 21.921875 
Q 17.484375 14.15625 20.5 10.265625 
Q 23.53125 6.390625 29.59375 6.390625 
Q 36.859375 6.390625 41.078125 11.03125 
Q 45.3125 15.671875 45.3125 23.6875 
L 45.3125 54.6875 
L 54.296875 54.6875 
L 54.296875 0 
L 45.3125 0 
L 45.3125 8.40625 
Q 42.046875 3.421875 37.71875 1 
Q 33.40625 -1.421875 27.6875 -1.421875 
Q 18.265625 -1.421875 13.375 4.4375 
Q 8.5 10.296875 8.5 21.578125 
z
M 31.109375 56 
z
" id="DejaVuSans-117"/>
     <path d="M 52 44.1875 
Q 55.375 50.25 60.0625 53.125 
Q 64.75 56 71.09375 56 
Q 79.640625 56 84.28125 50.015625 
Q 88.921875 44.046875 88.921875 33.015625 
L 88.921875 0 
L 79.890625 0 
L 79.890625 32.71875 
Q 79.890625 40.578125 77.09375 44.375 
Q 74.3125 48.1875 68.609375 48.1875 
Q 61.625 48.1875 57.5625 43.546875 
Q 53.515625 38.921875 53.515625 30.90625 
L 53.515625 0 
L 44.484375 0 
L 44.484375 32.71875 
Q 44.484375 40.625 41.703125 44.40625 
Q 38.921875 48.1875 33.109375 48.1875 
Q 26.21875 48.1875 22.15625 43.53125 
Q 18.109375 38.875 18.109375 30.90625 
L 18.109375 0 
L 9.078125 0 
L 9.078125 54.6875 
L 18.109375 54.6875 
L 18.109375 46.1875 
Q 21.1875 51.21875 25.484375 53.609375 
Q 29.78125 56 35.6875 56 
Q 41.65625 56 45.828125 52.96875 
Q 50 49.953125 52 44.1875 
z
" id="DejaVuSans-109"/>
     <path d="M 9.421875 75.984375 
L 18.40625 75.984375 
L 18.40625 0 
L 9.421875 0 
z
" id="DejaVuSans-108"/>
     <path d="M 45.40625 46.390625 
L 45.40625 75.984375 
L 54.390625 75.984375 
L 54.390625 0 
L 45.40625 0 
L 45.40625 8.203125 
Q 42.578125 3.328125 38.25 0.953125 
Q 33.9375 -1.421875 27.875 -1.421875 
Q 17.96875 -1.421875 11.734375 6.484375 
Q 5.515625 14.40625 5.515625 27.296875 
Q 5.515625 40.1875 11.734375 48.09375 
Q 17.96875 56 27.875 56 
Q 33.9375 56 38.25 53.625 
Q 42.578125 51.265625 45.40625 46.390625 
z
M 14.796875 27.296875 
Q 14.796875 17.390625 18.875 11.75 
Q 22.953125 6.109375 30.078125 6.109375 
Q 37.203125 6.109375 41.296875 11.75 
Q 45.40625 17.390625 45.40625 27.296875 
Q 45.40625 37.203125 41.296875 42.84375 
Q 37.203125 48.484375 30.078125 48.484375 
Q 22.953125 48.484375 18.875 42.84375 
Q 14.796875 37.203125 14.796875 27.296875 
z
" id="DejaVuSans-100"/>
     <path d="M 4.890625 31.390625 
L 31.203125 31.390625 
L 31.203125 23.390625 
L 4.890625 23.390625 
z
" id="DejaVuSans-45"/>
     <path d="M 59.515625 10.40625 
L 59.515625 29.984375 
L 43.40625 29.984375 
L 43.40625 38.09375 
L 69.28125 38.09375 
L 69.28125 6.78125 
Q 63.578125 2.734375 56.6875 0.65625 
Q 49.8125 -1.421875 42 -1.421875 
Q 24.90625 -1.421875 15.25 8.5625 
Q 5.609375 18.5625 5.609375 36.375 
Q 5.609375 54.25 15.25 64.234375 
Q 24.90625 74.21875 42 74.21875 
Q 49.125 74.21875 55.546875 72.453125 
Q 61.96875 70.703125 67.390625 67.28125 
L 67.390625 56.78125 
Q 61.921875 61.421875 55.765625 63.765625 
Q 49.609375 66.109375 42.828125 66.109375 
Q 29.4375 66.109375 22.71875 58.640625 
Q 16.015625 51.171875 16.015625 36.375 
Q 16.015625 21.625 22.71875 14.15625 
Q 29.4375 6.6875 42.828125 6.6875 
Q 48.046875 6.6875 52.140625 7.59375 
Q 56.25 8.5 59.515625 10.40625 
z
" id="DejaVuSans-71"/>
     <path d="M 39.40625 66.21875 
Q 28.65625 66.21875 22.328125 58.203125 
Q 16.015625 50.203125 16.015625 36.375 
Q 16.015625 22.609375 22.328125 14.59375 
Q 28.65625 6.59375 39.40625 6.59375 
Q 50.140625 6.59375 56.421875 14.59375 
Q 62.703125 22.609375 62.703125 36.375 
Q 62.703125 50.203125 56.421875 58.203125 
Q 50.140625 66.21875 39.40625 66.21875 
z
M 39.40625 74.21875 
Q 54.734375 74.21875 63.90625 63.9375 
Q 73.09375 53.65625 73.09375 36.375 
Q 73.09375 19.140625 63.90625 8.859375 
Q 54.734375 -1.421875 39.40625 -1.421875 
Q 24.03125 -1.421875 14.8125 8.828125 
Q 5.609375 19.09375 5.609375 36.375 
Q 5.609375 53.65625 14.8125 63.9375 
Q 24.03125 74.21875 39.40625 74.21875 
z
" id="DejaVuSans-79"/>
    </defs>
    <g transform="translate(69.084247 12.118365)scale(0.12 -0.12)">
     <use xlink:href="#DejaVuSans-67"/>
     <use x="69.824219" xlink:href="#DejaVuSans-97"/>
     <use x="131.103516" xlink:href="#DejaVuSans-115"/>
     <use x="183.203125" xlink:href="#DejaVuSans-111"/>
     <use x="244.384766" xlink:href="#DejaVuSans-115"/>
     <use x="296.484375" xlink:href="#DejaVuSans-32"/>
     <use x="328.271484" xlink:href="#DejaVuSans-97"/>
     <use x="389.550781" xlink:href="#DejaVuSans-99"/>
     <use x="444.53125" xlink:href="#DejaVuSans-117"/>
     <use x="507.910156" xlink:href="#DejaVuSans-109"/>
     <use x="605.322266" xlink:href="#DejaVuSans-117"/>
     <use x="668.701172" xlink:href="#DejaVuSans-108"/>
     <use x="696.484375" xlink:href="#DejaVuSans-97"/>
     <use x="757.763672" xlink:href="#DejaVuSans-100"/>
     <use x="821.240234" xlink:href="#DejaVuSans-111"/>
     <use x="882.421875" xlink:href="#DejaVuSans-115"/>
     <use x="934.521484" xlink:href="#DejaVuSans-32"/>
     <use x="966.308594" xlink:href="#DejaVuSans-45"/>
     <use x="1002.392578" xlink:href="#DejaVuSans-32"/>
     <use x="1034.179688" xlink:href="#DejaVuSans-71"/>
     <use x="1111.669922" xlink:href="#DejaVuSans-79"/>
    </g>
   </g>
  </g>
  <g id="axes_2">
   <g id="patch_107">
    <path d="M 285.013615 137.71551 
L 455.043503 137.71551 
L 455.043503 18.118365 
L 285.013615 18.118365 
z
" style="fill:#ffffff;"/>
   </g>
   <g id="patch_108">
    <path clip-path="url(#p7105d3570b)" d="M 292.742246 137.71551 
L 293.981305 137.71551 
L 293.981305 137.71551 
L 292.742246 137.71551 
z
" style="fill:#1f77b4;"/>
   </g>
   <g id="patch_109">
    <path clip-path="url(#p7105d3570b)" d="M 294.29107 137.71551 
L 295.530129 137.71551 
L 295.530129 137.71551 
L 294.29107 137.71551 
z
" style="fill:#1f77b4;"/>
   </g>
   <g id="patch_110">
    <path clip-path="url(#p7105d3570b)" d="M 295.839894 137.71551 
L 297.078953 137.71551 
L 297.078953 137.71551 
L 295.839894 137.71551 
z
" style="fill:#1f77b4;"/>
   </g>
   <g id="patch_111">
    <path clip-path="url(#p7105d3570b)" d="M 297.388718 137.71551 
L 298.627777 137.71551 
L 298.627777 137.562826 
L 297.388718 137.562826 
z
" style="fill:#1f77b4;"/>
   </g>
   <g id="patch_112">
    <path clip-path="url(#p7105d3570b)" d="M 298.937542 137.71551 
L 300.176601 137.71551 
L 300.176601 137.613721 
L 298.937542 137.613721 
z
" style="fill:#1f77b4;"/>
   </g>
   <g id="patch_113">
    <path clip-path="url(#p7105d3570b)" d="M 300.486366 137.71551 
L 301.725425 137.71551 
L 301.725425 137.511932 
L 300.486366 137.511932 
z
" style="fill:#1f77b4;"/>
   </g>
   <g id="patch_114">
    <path clip-path="url(#p7105d3570b)" d="M 302.03519 137.71551 
L 303.274249 137.71551 
L 303.274249 137.562826 
L 302.03519 137.562826 
z
" style="fill:#1f77b4;"/>
   </g>
   <g id="patch_115">
    <path clip-path="url(#p7105d3570b)" d="M 303.584014 137.71551 
L 304.823073 137.71551 
L 304.823073 137.461037 
L 303.584014 137.461037 
z
" style="fill:#1f77b4;"/>
   </g>
   <g id="patch_116">
    <path clip-path="url(#p7105d3570b)" d="M 305.132838 137.71551 
L 306.371897 137.71551 
L 306.371897 137.664615 
L 305.132838 137.664615 
z
" style="fill:#1f77b4;"/>
   </g>
   <g id="patch_117">
    <path clip-path="url(#p7105d3570b)" d="M 306.681661 137.71551 
L 307.920721 137.71551 
L 307.920721 137.613721 
L 306.681661 137.613721 
z
" style="fill:#1f77b4;"/>
   </g>
   <g id="patch_118">
    <path clip-path="url(#p7105d3570b)" d="M 308.230485 137.71551 
L 309.469544 137.71551 
L 309.469544 137.511932 
L 308.230485 137.511932 
z
" style="fill:#1f77b4;"/>
   </g>
   <g id="patch_119">
    <path clip-path="url(#p7105d3570b)" d="M 309.779309 137.71551 
L 311.018368 137.71551 
L 311.018368 137.613721 
L 309.779309 137.613721 
z
" style="fill:#1f77b4;"/>
   </g>
   <g id="patch_120">
    <path clip-path="url(#p7105d3570b)" d="M 311.328133 137.71551 
L 312.567192 137.71551 
L 312.567192 137.206564 
L 311.328133 137.206564 
z
" style="fill:#1f77b4;"/>
   </g>
   <g id="patch_121">
    <path clip-path="url(#p7105d3570b)" d="M 312.876957 137.71551 
L 314.116016 137.71551 
L 314.116016 137.206564 
L 312.876957 137.206564 
z
" style="fill:#1f77b4;"/>
   </g>
   <g id="patch_122">
    <path clip-path="url(#p7105d3570b)" d="M 314.425781 137.71551 
L 315.66484 137.71551 
L 315.66484 137.359248 
L 314.425781 137.359248 
z
" style="fill:#1f77b4;"/>
   </g>
   <g id="patch_123">
    <path clip-path="url(#p7105d3570b)" d="M 315.974605 137.71551 
L 317.213664 137.71551 
L 317.213664 137.613721 
L 315.974605 137.613721 
z
" style="fill:#1f77b4;"/>
   </g>
   <g id="patch_124">
    <path clip-path="url(#p7105d3570b)" d="M 317.523429 137.71551 
L 318.762488 137.71551 
L 318.762488 137.562826 
L 317.523429 137.562826 
z
" style="fill:#1f77b4;"/>
   </g>
   <g id="patch_125">
    <path clip-path="url(#p7105d3570b)" d="M 319.072253 137.71551 
L 320.311312 137.71551 
L 320.311312 137.511932 
L 319.072253 137.511932 
z
" style="fill:#1f77b4;"/>
   </g>
   <g id="patch_126">
    <path clip-path="url(#p7105d3570b)" d="M 320.621077 137.71551 
L 321.860136 137.71551 
L 321.860136 137.410143 
L 320.621077 137.410143 
z
" style="fill:#1f77b4;"/>
   </g>
   <g id="patch_127">
    <path clip-path="url(#p7105d3570b)" d="M 322.1699 137.71551 
L 323.40896 137.71551 
L 323.40896 137.613721 
L 322.1699 137.613721 
z
" style="fill:#1f77b4;"/>
   </g>
   <g id="patch_128">
    <path clip-path="url(#p7105d3570b)" d="M 323.718724 137.71551 
L 324.957783 137.71551 
L 324.957783 136.952091 
L 323.718724 136.952091 
z
" style="fill:#1f77b4;"/>
   </g>
   <g id="patch_129">
    <path clip-path="url(#p7105d3570b)" d="M 325.267548 137.71551 
L 326.506607 137.71551 
L 326.506607 136.952091 
L 325.267548 136.952091 
z
" style="fill:#1f77b4;"/>
   </g>
   <g id="patch_130">
    <path clip-path="url(#p7105d3570b)" d="M 326.816372 137.71551 
L 328.055431 137.71551 
L 328.055431 137.104775 
L 326.816372 137.104775 
z
" style="fill:#1f77b4;"/>
   </g>
   <g id="patch_131">
    <path clip-path="url(#p7105d3570b)" d="M 328.365196 137.71551 
L 329.604255 137.71551 
L 329.604255 137.511932 
L 328.365196 137.511932 
z
" style="fill:#1f77b4;"/>
   </g>
   <g id="patch_132">
    <path clip-path="url(#p7105d3570b)" d="M 329.91402 137.71551 
L 331.153079 137.71551 
L 331.153079 137.002986 
L 329.91402 137.002986 
z
" style="fill:#1f77b4;"/>
   </g>
   <g id="patch_133">
    <path clip-path="url(#p7105d3570b)" d="M 331.462844 137.71551 
L 332.701903 137.71551 
L 332.701903 136.443146 
L 331.462844 136.443146 
z
" style="fill:#1f77b4;"/>
   </g>
   <g id="patch_134">
    <path clip-path="url(#p7105d3570b)" d="M 333.011668 137.71551 
L 334.250727 137.71551 
L 334.250727 136.646724 
L 333.011668 136.646724 
z
" style="fill:#1f77b4;"/>
   </g>
   <g id="patch_135">
    <path clip-path="url(#p7105d3570b)" d="M 334.560492 137.71551 
L 335.799551 137.71551 
L 335.799551 137.104775 
L 334.560492 137.104775 
z
" style="fill:#1f77b4;"/>
   </g>
   <g id="patch_136">
    <path clip-path="url(#p7105d3570b)" d="M 336.109316 137.71551 
L 337.348375 137.71551 
L 337.348375 136.799408 
L 336.109316 136.799408 
z
" style="fill:#1f77b4;"/>
   </g>
   <g id="patch_137">
    <path clip-path="url(#p7105d3570b)" d="M 337.658139 137.71551 
L 338.897199 137.71551 
L 338.897199 136.697619 
L 337.658139 136.697619 
z
" style="fill:#1f77b4;"/>
   </g>
   <g id="patch_138">
    <path clip-path="url(#p7105d3570b)" d="M 339.206963 137.71551 
L 340.446023 137.71551 
L 340.446023 137.511932 
L 339.206963 137.511932 
z
" style="fill:#1f77b4;"/>
   </g>
   <g id="patch_139">
    <path clip-path="url(#p7105d3570b)" d="M 340.755787 137.71551 
L 341.994846 137.71551 
L 341.994846 135.119887 
L 340.755787 135.119887 
z
" style="fill:#1f77b4;"/>
   </g>
   <g id="patch_140">
    <path clip-path="url(#p7105d3570b)" d="M 342.304611 137.71551 
L 343.54367 137.71551 
L 343.54367 136.697619 
L 342.304611 136.697619 
z
" style="fill:#1f77b4;"/>
   </g>
   <g id="patch_141">
    <path clip-path="url(#p7105d3570b)" d="M 343.853435 137.71551 
L 345.092494 137.71551 
L 345.092494 137.002986 
L 343.853435 137.002986 
z
" style="fill:#1f77b4;"/>
   </g>
   <g id="patch_142">
    <path clip-path="url(#p7105d3570b)" d="M 345.402259 137.71551 
L 346.641318 137.71551 
L 346.641318 136.850302 
L 345.402259 136.850302 
z
" style="fill:#1f77b4;"/>
   </g>
   <g id="patch_143">
    <path clip-path="url(#p7105d3570b)" d="M 346.951083 137.71551 
L 348.190142 137.71551 
L 348.190142 135.527044 
L 346.951083 135.527044 
z
" style="fill:#1f77b4;"/>
   </g>
   <g id="patch_144">
    <path clip-path="url(#p7105d3570b)" d="M 348.499907 137.71551 
L 349.738966 137.71551 
L 349.738966 136.952091 
L 348.499907 136.952091 
z
" style="fill:#1f77b4;"/>
   </g>
   <g id="patch_145">
    <path clip-path="url(#p7105d3570b)" d="M 350.048731 137.71551 
L 351.28779 137.71551 
L 351.28779 137.206564 
L 350.048731 137.206564 
z
" style="fill:#1f77b4;"/>
   </g>
   <g id="patch_146">
    <path clip-path="url(#p7105d3570b)" d="M 351.597555 137.71551 
L 352.836614 137.71551 
L 352.836614 136.799408 
L 351.597555 136.799408 
z
" style="fill:#1f77b4;"/>
   </g>
   <g id="patch_147">
    <path clip-path="url(#p7105d3570b)" d="M 353.146379 137.71551 
L 354.385438 137.71551 
L 354.385438 136.850302 
L 353.146379 136.850302 
z
" style="fill:#1f77b4;"/>
   </g>
   <g id="patch_148">
    <path clip-path="url(#p7105d3570b)" d="M 354.695202 137.71551 
L 355.934262 137.71551 
L 355.934262 136.952091 
L 354.695202 136.952091 
z
" style="fill:#1f77b4;"/>
   </g>
   <g id="patch_149">
    <path clip-path="url(#p7105d3570b)" d="M 356.244026 137.71551 
L 357.483085 137.71551 
L 357.483085 136.035989 
L 356.244026 136.035989 
z
" style="fill:#1f77b4;"/>
   </g>
   <g id="patch_150">
    <path clip-path="url(#p7105d3570b)" d="M 357.79285 137.71551 
L 359.031909 137.71551 
L 359.031909 136.697619 
L 357.79285 136.697619 
z
" style="fill:#1f77b4;"/>
   </g>
   <g id="patch_151">
    <path clip-path="url(#p7105d3570b)" d="M 359.341674 137.71551 
L 360.580733 137.71551 
L 360.580733 134.305574 
L 359.341674 134.305574 
z
" style="fill:#1f77b4;"/>
   </g>
   <g id="patch_152">
    <path clip-path="url(#p7105d3570b)" d="M 360.890498 137.71551 
L 362.129557 137.71551 
L 362.129557 135.527044 
L 360.890498 135.527044 
z
" style="fill:#1f77b4;"/>
   </g>
   <g id="patch_153">
    <path clip-path="url(#p7105d3570b)" d="M 362.439322 137.71551 
L 363.678381 137.71551 
L 363.678381 135.425254 
L 362.439322 135.425254 
z
" style="fill:#1f77b4;"/>
   </g>
   <g id="patch_154">
    <path clip-path="url(#p7105d3570b)" d="M 363.988146 137.71551 
L 365.227205 137.71551 
L 365.227205 135.476149 
L 363.988146 135.476149 
z
" style="fill:#1f77b4;"/>
   </g>
   <g id="patch_155">
    <path clip-path="url(#p7105d3570b)" d="M 365.53697 137.71551 
L 366.776029 137.71551 
L 366.776029 133.847523 
L 365.53697 133.847523 
z
" style="fill:#1f77b4;"/>
   </g>
   <g id="patch_156">
    <path clip-path="url(#p7105d3570b)" d="M 367.085794 137.71551 
L 368.324853 137.71551 
L 368.324853 136.341357 
L 367.085794 136.341357 
z
" style="fill:#1f77b4;"/>
   </g>
   <g id="patch_157">
    <path clip-path="url(#p7105d3570b)" d="M 368.634618 137.71551 
L 369.873677 137.71551 
L 369.873677 136.850302 
L 368.634618 136.850302 
z
" style="fill:#1f77b4;"/>
   </g>
   <g id="patch_158">
    <path clip-path="url(#p7105d3570b)" d="M 370.183441 137.71551 
L 371.422501 137.71551 
L 371.422501 136.443146 
L 370.183441 136.443146 
z
" style="fill:#1f77b4;"/>
   </g>
   <g id="patch_159">
    <path clip-path="url(#p7105d3570b)" d="M 371.732265 137.71551 
L 372.971324 137.71551 
L 372.971324 137.15567 
L 371.732265 137.15567 
z
" style="fill:#1f77b4;"/>
   </g>
   <g id="patch_160">
    <path clip-path="url(#p7105d3570b)" d="M 373.281089 137.71551 
L 374.520148 137.71551 
L 374.520148 134.610941 
L 373.281089 134.610941 
z
" style="fill:#1f77b4;"/>
   </g>
   <g id="patch_161">
    <path clip-path="url(#p7105d3570b)" d="M 374.829913 137.71551 
L 376.068972 137.71551 
L 376.068972 132.524264 
L 374.829913 132.524264 
z
" style="fill:#1f77b4;"/>
   </g>
   <g id="patch_162">
    <path clip-path="url(#p7105d3570b)" d="M 376.378737 137.71551 
L 377.617796 137.71551 
L 377.617796 137.562826 
L 376.378737 137.562826 
z
" style="fill:#1f77b4;"/>
   </g>
   <g id="patch_163">
    <path clip-path="url(#p7105d3570b)" d="M 377.927561 137.71551 
L 379.16662 137.71551 
L 379.16662 136.392251 
L 377.927561 136.392251 
z
" style="fill:#1f77b4;"/>
   </g>
   <g id="patch_164">
    <path clip-path="url(#p7105d3570b)" d="M 379.476385 137.71551 
L 380.715444 137.71551 
L 380.715444 136.901197 
L 379.476385 136.901197 
z
" style="fill:#1f77b4;"/>
   </g>
   <g id="patch_165">
    <path clip-path="url(#p7105d3570b)" d="M 381.025209 137.71551 
L 382.264268 137.71551 
L 382.264268 136.49404 
L 381.025209 136.49404 
z
" style="fill:#1f77b4;"/>
   </g>
   <g id="patch_166">
    <path clip-path="url(#p7105d3570b)" d="M 382.574033 137.71551 
L 383.813092 137.71551 
L 383.813092 137.359248 
L 382.574033 137.359248 
z
" style="fill:#1f77b4;"/>
   </g>
   <g id="patch_167">
    <path clip-path="url(#p7105d3570b)" d="M 384.122857 137.71551 
L 385.361916 137.71551 
L 385.361916 136.952091 
L 384.122857 136.952091 
z
" style="fill:#1f77b4;"/>
   </g>
   <g id="patch_168">
    <path clip-path="url(#p7105d3570b)" d="M 385.67168 137.71551 
L 386.91074 137.71551 
L 386.91074 136.748513 
L 385.67168 136.748513 
z
" style="fill:#1f77b4;"/>
   </g>
   <g id="patch_169">
    <path clip-path="url(#p7105d3570b)" d="M 387.220504 137.71551 
L 388.459564 137.71551 
L 388.459564 123.00698 
L 387.220504 123.00698 
z
" style="fill:#1f77b4;"/>
   </g>
   <g id="patch_170">
    <path clip-path="url(#p7105d3570b)" d="M 388.769328 137.71551 
L 390.008387 137.71551 
L 390.008387 130.132219 
L 388.769328 130.132219 
z
" style="fill:#1f77b4;"/>
   </g>
   <g id="patch_171">
    <path clip-path="url(#p7105d3570b)" d="M 390.318152 137.71551 
L 391.557211 137.71551 
L 391.557211 134.254679 
L 390.318152 134.254679 
z
" style="fill:#1f77b4;"/>
   </g>
   <g id="patch_172">
    <path clip-path="url(#p7105d3570b)" d="M 391.866976 137.71551 
L 393.106035 137.71551 
L 393.106035 135.068992 
L 391.866976 135.068992 
z
" style="fill:#1f77b4;"/>
   </g>
   <g id="patch_173">
    <path clip-path="url(#p7105d3570b)" d="M 393.4158 137.71551 
L 394.654859 137.71551 
L 394.654859 134.81452 
L 393.4158 134.81452 
z
" style="fill:#1f77b4;"/>
   </g>
   <g id="patch_174">
    <path clip-path="url(#p7105d3570b)" d="M 394.964624 137.71551 
L 396.203683 137.71551 
L 396.203683 132.778737 
L 394.964624 132.778737 
z
" style="fill:#1f77b4;"/>
   </g>
   <g id="patch_175">
    <path clip-path="url(#p7105d3570b)" d="M 396.513448 137.71551 
L 397.752507 137.71551 
L 397.752507 130.997427 
L 396.513448 130.997427 
z
" style="fill:#1f77b4;"/>
   </g>
   <g id="patch_176">
    <path clip-path="url(#p7105d3570b)" d="M 398.062272 137.71551 
L 399.301331 137.71551 
L 399.301331 130.793849 
L 398.062272 130.793849 
z
" style="fill:#1f77b4;"/>
   </g>
   <g id="patch_177">
    <path clip-path="url(#p7105d3570b)" d="M 399.611096 137.71551 
L 400.850155 137.71551 
L 400.850155 128.045542 
L 399.611096 128.045542 
z
" style="fill:#1f77b4;"/>
   </g>
   <g id="patch_178">
    <path clip-path="url(#p7105d3570b)" d="M 401.15992 137.71551 
L 402.398979 137.71551 
L 402.398979 134.000207 
L 401.15992 134.000207 
z
" style="fill:#1f77b4;"/>
   </g>
   <g id="patch_179">
    <path clip-path="url(#p7105d3570b)" d="M 402.708743 137.71551 
L 403.947803 137.71551 
L 403.947803 134.356469 
L 402.708743 134.356469 
z
" style="fill:#1f77b4;"/>
   </g>
   <g id="patch_180">
    <path clip-path="url(#p7105d3570b)" d="M 404.257567 137.71551 
L 405.496626 137.71551 
L 405.496626 134.203785 
L 404.257567 134.203785 
z
" style="fill:#1f77b4;"/>
   </g>
   <g id="patch_181">
    <path clip-path="url(#p7105d3570b)" d="M 405.806391 137.71551 
L 407.04545 137.71551 
L 407.04545 129.623274 
L 405.806391 129.623274 
z
" style="fill:#1f77b4;"/>
   </g>
   <g id="patch_182">
    <path clip-path="url(#p7105d3570b)" d="M 407.355215 137.71551 
L 408.594274 137.71551 
L 408.594274 128.961644 
L 407.355215 128.961644 
z
" style="fill:#1f77b4;"/>
   </g>
   <g id="patch_183">
    <path clip-path="url(#p7105d3570b)" d="M 408.904039 137.71551 
L 410.143098 137.71551 
L 410.143098 125.144552 
L 408.904039 125.144552 
z
" style="fill:#1f77b4;"/>
   </g>
   <g id="patch_184">
    <path clip-path="url(#p7105d3570b)" d="M 410.452863 137.71551 
L 411.691922 137.71551 
L 411.691922 126.060654 
L 410.452863 126.060654 
z
" style="fill:#1f77b4;"/>
   </g>
   <g id="patch_185">
    <path clip-path="url(#p7105d3570b)" d="M 412.001687 137.71551 
L 413.240746 137.71551 
L 413.240746 124.177555 
L 412.001687 124.177555 
z
" style="fill:#1f77b4;"/>
   </g>
   <g id="patch_186">
    <path clip-path="url(#p7105d3570b)" d="M 413.550511 137.71551 
L 414.78957 137.71551 
L 414.78957 131.760846 
L 413.550511 131.760846 
z
" style="fill:#1f77b4;"/>
   </g>
   <g id="patch_187">
    <path clip-path="url(#p7105d3570b)" d="M 415.099335 137.71551 
L 416.338394 137.71551 
L 416.338394 127.333018 
L 415.099335 127.333018 
z
" style="fill:#1f77b4;"/>
   </g>
   <g id="patch_188">
    <path clip-path="url(#p7105d3570b)" d="M 416.648159 137.71551 
L 417.887218 137.71551 
L 417.887218 113.744169 
L 416.648159 113.744169 
z
" style="fill:#1f77b4;"/>
   </g>
   <g id="patch_189">
    <path clip-path="url(#p7105d3570b)" d="M 418.196982 137.71551 
L 419.436042 137.71551 
L 419.436042 127.892858 
L 418.196982 127.892858 
z
" style="fill:#1f77b4;"/>
   </g>
   <g id="patch_190">
    <path clip-path="url(#p7105d3570b)" d="M 419.745806 137.71551 
L 420.984865 137.71551 
L 420.984865 118.680942 
L 419.745806 118.680942 
z
" style="fill:#1f77b4;"/>
   </g>
   <g id="patch_191">
    <path clip-path="url(#p7105d3570b)" d="M 421.29463 137.71551 
L 422.533689 137.71551 
L 422.533689 115.88174 
L 421.29463 115.88174 
z
" style="fill:#1f77b4;"/>
   </g>
   <g id="patch_192">
    <path clip-path="url(#p7105d3570b)" d="M 422.843454 137.71551 
L 424.082513 137.71551 
L 424.082513 122.650718 
L 422.843454 122.650718 
z
" style="fill:#1f77b4;"/>
   </g>
   <g id="patch_193">
    <path clip-path="url(#p7105d3570b)" d="M 424.392278 137.71551 
L 425.631337 137.71551 
L 425.631337 130.386692 
L 424.392278 130.386692 
z
" style="fill:#1f77b4;"/>
   </g>
   <g id="patch_194">
    <path clip-path="url(#p7105d3570b)" d="M 425.941102 137.71551 
L 427.180161 137.71551 
L 427.180161 121.887299 
L 425.941102 121.887299 
z
" style="fill:#1f77b4;"/>
   </g>
   <g id="patch_195">
    <path clip-path="url(#p7105d3570b)" d="M 427.489926 137.71551 
L 428.728985 137.71551 
L 428.728985 117.510367 
L 427.489926 117.510367 
z
" style="fill:#1f77b4;"/>
   </g>
   <g id="patch_196">
    <path clip-path="url(#p7105d3570b)" d="M 429.03875 137.71551 
L 430.277809 137.71551 
L 430.277809 105.244776 
L 429.03875 105.244776 
z
" style="fill:#1f77b4;"/>
   </g>
   <g id="patch_197">
    <path clip-path="url(#p7105d3570b)" d="M 430.587574 137.71551 
L 431.826633 137.71551 
L 431.826633 112.370015 
L 430.587574 112.370015 
z
" style="fill:#1f77b4;"/>
   </g>
   <g id="patch_198">
    <path clip-path="url(#p7105d3570b)" d="M 432.136398 137.71551 
L 433.375457 137.71551 
L 433.375457 128.096437 
L 432.136398 128.096437 
z
" style="fill:#1f77b4;"/>
   </g>
   <g id="patch_199">
    <path clip-path="url(#p7105d3570b)" d="M 433.685221 137.71551 
L 434.924281 137.71551 
L 434.924281 132.931421 
L 433.685221 132.931421 
z
" style="fill:#1f77b4;"/>
   </g>
   <g id="patch_200">
    <path clip-path="url(#p7105d3570b)" d="M 435.234045 137.71551 
L 436.473105 137.71551 
L 436.473105 137.511932 
L 435.234045 137.511932 
z
" style="fill:#1f77b4;"/>
   </g>
   <g id="patch_201">
    <path clip-path="url(#p7105d3570b)" d="M 436.782869 137.71551 
L 438.021928 137.71551 
L 438.021928 23.813467 
L 436.782869 23.813467 
z
" style="fill:#1f77b4;"/>
   </g>
   <g id="patch_202">
    <path clip-path="url(#p7105d3570b)" d="M 438.331693 137.71551 
L 439.570752 137.71551 
L 439.570752 82.647588 
L 438.331693 82.647588 
z
" style="fill:#1f77b4;"/>
   </g>
   <g id="patch_203">
    <path clip-path="url(#p7105d3570b)" d="M 439.880517 137.71551 
L 441.119576 137.71551 
L 441.119576 88.24599 
L 439.880517 88.24599 
z
" style="fill:#1f77b4;"/>
   </g>
   <g id="patch_204">
    <path clip-path="url(#p7105d3570b)" d="M 441.429341 137.71551 
L 442.6684 137.71551 
L 442.6684 83.360112 
L 441.429341 83.360112 
z
" style="fill:#1f77b4;"/>
   </g>
   <g id="patch_205">
    <path clip-path="url(#p7105d3570b)" d="M 442.978165 137.71551 
L 444.217224 137.71551 
L 444.217224 100.918737 
L 442.978165 100.918737 
z
" style="fill:#1f77b4;"/>
   </g>
   <g id="patch_206">
    <path clip-path="url(#p7105d3570b)" d="M 444.526989 137.71551 
L 445.766048 137.71551 
L 445.766048 94.302444 
L 444.526989 94.302444 
z
" style="fill:#1f77b4;"/>
   </g>
   <g id="patch_207">
    <path clip-path="url(#p7105d3570b)" d="M 446.075813 137.71551 
L 447.314872 137.71551 
L 447.314872 100.104424 
L 446.075813 100.104424 
z
" style="fill:#1f77b4;"/>
   </g>
   <g id="matplotlib.axis_3">
    <g id="xtick_6">
     <g id="line2d_11">
      <g>
       <use style="stroke:#000000;stroke-width:0.8;" x="293.361776" xlink:href="#me439ab08b0" y="137.71551"/>
      </g>
     </g>
     <g id="text_13">
      <!-- 0 -->
      <g transform="translate(290.180526 152.313947)scale(0.1 -0.1)">
       <use xlink:href="#DejaVuSans-48"/>
      </g>
     </g>
    </g>
    <g id="xtick_7">
     <g id="line2d_12">
      <g>
       <use style="stroke:#000000;stroke-width:0.8;" x="332.082373" xlink:href="#me439ab08b0" y="137.71551"/>
      </g>
     </g>
     <g id="text_14">
      <!-- 25 -->
      <g transform="translate(325.719873 152.313947)scale(0.1 -0.1)">
       <use xlink:href="#DejaVuSans-50"/>
       <use x="63.623047" xlink:href="#DejaVuSans-53"/>
      </g>
     </g>
    </g>
    <g id="xtick_8">
     <g id="line2d_13">
      <g>
       <use style="stroke:#000000;stroke-width:0.8;" x="370.802971" xlink:href="#me439ab08b0" y="137.71551"/>
      </g>
     </g>
     <g id="text_15">
      <!-- 50 -->
      <g transform="translate(364.440471 152.313947)scale(0.1 -0.1)">
       <use xlink:href="#DejaVuSans-53"/>
       <use x="63.623047" xlink:href="#DejaVuSans-48"/>
      </g>
     </g>
    </g>
    <g id="xtick_9">
     <g id="line2d_14">
      <g>
       <use style="stroke:#000000;stroke-width:0.8;" x="409.523569" xlink:href="#me439ab08b0" y="137.71551"/>
      </g>
     </g>
     <g id="text_16">
      <!-- 75 -->
      <g transform="translate(403.161069 152.313947)scale(0.1 -0.1)">
       <use xlink:href="#DejaVuSans-55"/>
       <use x="63.623047" xlink:href="#DejaVuSans-53"/>
      </g>
     </g>
    </g>
    <g id="xtick_10">
     <g id="line2d_15">
      <g>
       <use style="stroke:#000000;stroke-width:0.8;" x="448.244166" xlink:href="#me439ab08b0" y="137.71551"/>
      </g>
     </g>
     <g id="text_17">
      <!-- 100 -->
      <g transform="translate(438.700416 152.313947)scale(0.1 -0.1)">
       <use xlink:href="#DejaVuSans-49"/>
       <use x="63.623047" xlink:href="#DejaVuSans-48"/>
       <use x="127.246094" xlink:href="#DejaVuSans-48"/>
      </g>
     </g>
    </g>
    <g id="text_18">
     <!-- Dias -->
     <g transform="translate(359.120747 165.992072)scale(0.1 -0.1)">
      <use xlink:href="#DejaVuSans-68"/>
      <use x="77.001953" xlink:href="#DejaVuSans-105"/>
      <use x="104.785156" xlink:href="#DejaVuSans-97"/>
      <use x="166.064453" xlink:href="#DejaVuSans-115"/>
     </g>
    </g>
   </g>
   <g id="matplotlib.axis_4">
    <g id="ytick_5">
     <g id="line2d_16">
      <g>
       <use style="stroke:#000000;stroke-width:0.8;" x="285.013615" xlink:href="#m10cf01d9ef" y="137.71551"/>
      </g>
     </g>
     <g id="text_19">
      <!-- 0 -->
      <g transform="translate(271.651115 141.514729)scale(0.1 -0.1)">
       <use xlink:href="#DejaVuSans-48"/>
      </g>
     </g>
    </g>
    <g id="ytick_6">
     <g id="line2d_17">
      <g>
       <use style="stroke:#000000;stroke-width:0.8;" x="285.013615" xlink:href="#m10cf01d9ef" y="112.268226"/>
      </g>
     </g>
     <g id="text_20">
      <!-- 500 -->
      <g transform="translate(258.926115 116.067445)scale(0.1 -0.1)">
       <use xlink:href="#DejaVuSans-53"/>
       <use x="63.623047" xlink:href="#DejaVuSans-48"/>
       <use x="127.246094" xlink:href="#DejaVuSans-48"/>
      </g>
     </g>
    </g>
    <g id="ytick_7">
     <g id="line2d_18">
      <g>
       <use style="stroke:#000000;stroke-width:0.8;" x="285.013615" xlink:href="#m10cf01d9ef" y="86.820942"/>
      </g>
     </g>
     <g id="text_21">
      <!-- 1000 -->
      <g transform="translate(252.563615 90.620161)scale(0.1 -0.1)">
       <use xlink:href="#DejaVuSans-49"/>
       <use x="63.623047" xlink:href="#DejaVuSans-48"/>
       <use x="127.246094" xlink:href="#DejaVuSans-48"/>
       <use x="190.869141" xlink:href="#DejaVuSans-48"/>
      </g>
     </g>
    </g>
    <g id="ytick_8">
     <g id="line2d_19">
      <g>
       <use style="stroke:#000000;stroke-width:0.8;" x="285.013615" xlink:href="#m10cf01d9ef" y="61.373658"/>
      </g>
     </g>
     <g id="text_22">
      <!-- 1500 -->
      <g transform="translate(252.563615 65.172877)scale(0.1 -0.1)">
       <use xlink:href="#DejaVuSans-49"/>
       <use x="63.623047" xlink:href="#DejaVuSans-53"/>
       <use x="127.246094" xlink:href="#DejaVuSans-48"/>
       <use x="190.869141" xlink:href="#DejaVuSans-48"/>
      </g>
     </g>
    </g>
    <g id="ytick_9">
     <g id="line2d_20">
      <g>
       <use style="stroke:#000000;stroke-width:0.8;" x="285.013615" xlink:href="#m10cf01d9ef" y="35.926374"/>
      </g>
     </g>
     <g id="text_23">
      <!-- 2000 -->
      <g transform="translate(252.563615 39.725593)scale(0.1 -0.1)">
       <use xlink:href="#DejaVuSans-50"/>
       <use x="63.623047" xlink:href="#DejaVuSans-48"/>
       <use x="127.246094" xlink:href="#DejaVuSans-48"/>
       <use x="190.869141" xlink:href="#DejaVuSans-48"/>
      </g>
     </g>
    </g>
    <g id="text_24">
     <!-- Novos casos -->
     <defs>
      <path d="M 9.8125 72.90625 
L 23.09375 72.90625 
L 55.421875 11.921875 
L 55.421875 72.90625 
L 64.984375 72.90625 
L 64.984375 0 
L 51.703125 0 
L 19.390625 60.984375 
L 19.390625 0 
L 9.8125 0 
z
" id="DejaVuSans-78"/>
      <path d="M 2.984375 54.6875 
L 12.5 54.6875 
L 29.59375 8.796875 
L 46.6875 54.6875 
L 56.203125 54.6875 
L 35.6875 0 
L 23.484375 0 
z
" id="DejaVuSans-118"/>
     </defs>
     <g transform="translate(246.483927 109.011469)rotate(-90)scale(0.1 -0.1)">
      <use xlink:href="#DejaVuSans-78"/>
      <use x="74.804688" xlink:href="#DejaVuSans-111"/>
      <use x="135.986328" xlink:href="#DejaVuSans-118"/>
      <use x="195.166016" xlink:href="#DejaVuSans-111"/>
      <use x="256.347656" xlink:href="#DejaVuSans-115"/>
      <use x="308.447266" xlink:href="#DejaVuSans-32"/>
      <use x="340.234375" xlink:href="#DejaVuSans-99"/>
      <use x="395.214844" xlink:href="#DejaVuSans-97"/>
      <use x="456.494141" xlink:href="#DejaVuSans-115"/>
      <use x="508.59375" xlink:href="#DejaVuSans-111"/>
      <use x="569.775391" xlink:href="#DejaVuSans-115"/>
     </g>
    </g>
   </g>
   <g id="line2d_21">
    <path clip-path="url(#p7105d3570b)" d="M 293.361776 137.671738 
L 294.9106 137.65584 
L 296.459424 137.637419 
L 298.008248 137.62078 
L 299.557071 137.603546 
L 301.105895 137.585995 
L 302.654719 137.568232 
L 304.203543 137.550129 
L 305.752367 137.53226 
L 307.301191 137.514836 
L 308.850015 137.497857 
L 310.398839 137.481302 
L 311.947663 137.464937 
L 313.496487 137.448425 
L 315.04531 137.430216 
L 316.594134 137.408701 
L 318.142958 137.382692 
L 319.691782 137.351426 
L 321.240606 137.314183 
L 322.78943 137.270114 
L 324.338254 137.219431 
L 325.887078 137.164339 
L 327.435902 137.106577 
L 328.984726 137.047076 
L 330.53355 136.98677 
L 332.082373 136.926422 
L 333.631197 136.86921 
L 335.180021 136.816938 
L 336.728845 136.769562 
L 338.277669 136.727316 
L 339.826493 136.692489 
L 341.375317 136.665653 
L 342.924141 136.647084 
L 344.472965 136.632246 
L 346.021789 136.61656 
L 347.570612 136.595066 
L 349.119436 136.563567 
L 350.66826 136.514941 
L 352.217084 136.446749 
L 353.765908 136.35895 
L 355.314732 136.255762 
L 356.863556 136.141975 
L 358.41238 136.027595 
L 359.961204 135.921355 
L 361.510028 135.83381 
L 363.058851 135.769455 
L 364.607675 135.728862 
L 366.156499 135.71218 
L 367.705323 135.723224 
L 369.254147 135.751247 
L 370.802971 135.783551 
L 372.351795 135.805978 
L 373.900619 135.807483 
L 375.449443 135.778443 
L 376.998267 135.704125 
L 378.547091 135.559009 
L 380.095914 135.344938 
L 381.644738 135.070646 
L 383.193562 134.748066 
L 384.742386 134.389791 
L 386.29121 134.010911 
L 387.840034 133.633685 
L 389.388858 133.293215 
L 390.937682 132.992787 
L 392.486506 132.729623 
L 394.03533 132.493846 
L 395.584153 132.273586 
L 397.132977 132.051608 
L 398.681801 131.80182 
L 400.230625 131.49128 
L 401.779449 131.107208 
L 403.328273 130.63506 
L 404.877097 130.072719 
L 406.425921 129.420437 
L 407.974745 128.685084 
L 409.523569 127.892731 
L 411.072392 127.061206 
L 412.621216 126.203481 
L 414.17004 125.348724 
L 415.718864 124.520124 
L 417.267688 123.742609 
L 418.816512 122.998734 
L 420.365336 122.233302 
L 421.91416 121.411845 
L 423.462984 120.489977 
L 425.011808 119.384838 
L 426.560632 117.986817 
L 428.109455 116.161184 
L 429.658279 113.923921 
L 431.207103 111.350746 
L 432.755927 108.5157 
L 434.304751 105.514087 
L 435.853575 102.499521 
L 437.402399 99.692308 
L 438.951223 97.29543 
L 440.500047 95.364298 
L 442.048871 93.920512 
L 443.597694 92.953239 
L 445.146518 92.33091 
L 446.695342 92.021133 
" style="fill:none;stroke:#ff0000;stroke-linecap:square;stroke-width:1.5;"/>
   </g>
   <g id="patch_208">
    <path d="M 285.013615 137.71551 
L 285.013615 18.118365 
" style="fill:none;stroke:#000000;stroke-linecap:square;stroke-linejoin:miter;stroke-width:0.8;"/>
   </g>
   <g id="patch_209">
    <path d="M 455.043503 137.71551 
L 455.043503 18.118365 
" style="fill:none;stroke:#000000;stroke-linecap:square;stroke-linejoin:miter;stroke-width:0.8;"/>
   </g>
   <g id="patch_210">
    <path d="M 285.013615 137.71551 
L 455.043503 137.71551 
" style="fill:none;stroke:#000000;stroke-linecap:square;stroke-linejoin:miter;stroke-width:0.8;"/>
   </g>
   <g id="patch_211">
    <path d="M 285.013615 18.118365 
L 455.043503 18.118365 
" style="fill:none;stroke:#000000;stroke-linecap:square;stroke-linejoin:miter;stroke-width:0.8;"/>
   </g>
   <g id="text_25">
    <!-- Casos novos - GO -->
    <defs>
     <path d="M 54.890625 33.015625 
L 54.890625 0 
L 45.90625 0 
L 45.90625 32.71875 
Q 45.90625 40.484375 42.875 44.328125 
Q 39.84375 48.1875 33.796875 48.1875 
Q 26.515625 48.1875 22.3125 43.546875 
Q 18.109375 38.921875 18.109375 30.90625 
L 18.109375 0 
L 9.078125 0 
L 9.078125 54.6875 
L 18.109375 54.6875 
L 18.109375 46.1875 
Q 21.34375 51.125 25.703125 53.5625 
Q 30.078125 56 35.796875 56 
Q 45.21875 56 50.046875 50.171875 
Q 54.890625 44.34375 54.890625 33.015625 
z
" id="DejaVuSans-110"/>
    </defs>
    <g transform="translate(317.160122 12.118365)scale(0.12 -0.12)">
     <use xlink:href="#DejaVuSans-67"/>
     <use x="69.824219" xlink:href="#DejaVuSans-97"/>
     <use x="131.103516" xlink:href="#DejaVuSans-115"/>
     <use x="183.203125" xlink:href="#DejaVuSans-111"/>
     <use x="244.384766" xlink:href="#DejaVuSans-115"/>
     <use x="296.484375" xlink:href="#DejaVuSans-32"/>
     <use x="328.271484" xlink:href="#DejaVuSans-110"/>
     <use x="391.650391" xlink:href="#DejaVuSans-111"/>
     <use x="452.832031" xlink:href="#DejaVuSans-118"/>
     <use x="512.011719" xlink:href="#DejaVuSans-111"/>
     <use x="573.193359" xlink:href="#DejaVuSans-115"/>
     <use x="625.292969" xlink:href="#DejaVuSans-32"/>
     <use x="657.080078" xlink:href="#DejaVuSans-45"/>
     <use x="693.164062" xlink:href="#DejaVuSans-32"/>
     <use x="724.951172" xlink:href="#DejaVuSans-71"/>
     <use x="802.441406" xlink:href="#DejaVuSans-79"/>
    </g>
   </g>
  </g>
  <g id="axes_3">
   <g id="patch_212">
    <path d="M 55.490865 312.24351 
L 455.043503 312.24351 
L 455.043503 192.646365 
L 55.490865 192.646365 
z
" style="fill:#ffffff;"/>
   </g>
   <g id="matplotlib.axis_5">
    <g id="xtick_11">
     <g id="line2d_22">
      <g>
       <use style="stroke:#000000;stroke-width:0.8;" x="73.652349" xlink:href="#me439ab08b0" y="312.24351"/>
      </g>
     </g>
     <g id="text_26">
      <!-- 0 -->
      <g transform="translate(70.471099 326.841947)scale(0.1 -0.1)">
       <use xlink:href="#DejaVuSans-48"/>
      </g>
     </g>
    </g>
    <g id="xtick_12">
     <g id="line2d_23">
      <g>
       <use style="stroke:#000000;stroke-width:0.8;" x="147.03208" xlink:href="#me439ab08b0" y="312.24351"/>
      </g>
     </g>
     <g id="text_27">
      <!-- 20 -->
      <g transform="translate(140.66958 326.841947)scale(0.1 -0.1)">
       <use xlink:href="#DejaVuSans-50"/>
       <use x="63.623047" xlink:href="#DejaVuSans-48"/>
      </g>
     </g>
    </g>
    <g id="xtick_13">
     <g id="line2d_24">
      <g>
       <use style="stroke:#000000;stroke-width:0.8;" x="220.411812" xlink:href="#me439ab08b0" y="312.24351"/>
      </g>
     </g>
     <g id="text_28">
      <!-- 40 -->
      <defs>
       <path d="M 37.796875 64.3125 
L 12.890625 25.390625 
L 37.796875 25.390625 
z
M 35.203125 72.90625 
L 47.609375 72.90625 
L 47.609375 25.390625 
L 58.015625 25.390625 
L 58.015625 17.1875 
L 47.609375 17.1875 
L 47.609375 0 
L 37.796875 0 
L 37.796875 17.1875 
L 4.890625 17.1875 
L 4.890625 26.703125 
z
" id="DejaVuSans-52"/>
      </defs>
      <g transform="translate(214.049312 326.841947)scale(0.1 -0.1)">
       <use xlink:href="#DejaVuSans-52"/>
       <use x="63.623047" xlink:href="#DejaVuSans-48"/>
      </g>
     </g>
    </g>
    <g id="xtick_14">
     <g id="line2d_25">
      <g>
       <use style="stroke:#000000;stroke-width:0.8;" x="293.791543" xlink:href="#me439ab08b0" y="312.24351"/>
      </g>
     </g>
     <g id="text_29">
      <!-- 60 -->
      <defs>
       <path d="M 33.015625 40.375 
Q 26.375 40.375 22.484375 35.828125 
Q 18.609375 31.296875 18.609375 23.390625 
Q 18.609375 15.53125 22.484375 10.953125 
Q 26.375 6.390625 33.015625 6.390625 
Q 39.65625 6.390625 43.53125 10.953125 
Q 47.40625 15.53125 47.40625 23.390625 
Q 47.40625 31.296875 43.53125 35.828125 
Q 39.65625 40.375 33.015625 40.375 
z
M 52.59375 71.296875 
L 52.59375 62.3125 
Q 48.875 64.0625 45.09375 64.984375 
Q 41.3125 65.921875 37.59375 65.921875 
Q 27.828125 65.921875 22.671875 59.328125 
Q 17.53125 52.734375 16.796875 39.40625 
Q 19.671875 43.65625 24.015625 45.921875 
Q 28.375 48.1875 33.59375 48.1875 
Q 44.578125 48.1875 50.953125 41.515625 
Q 57.328125 34.859375 57.328125 23.390625 
Q 57.328125 12.15625 50.6875 5.359375 
Q 44.046875 -1.421875 33.015625 -1.421875 
Q 20.359375 -1.421875 13.671875 8.265625 
Q 6.984375 17.96875 6.984375 36.375 
Q 6.984375 53.65625 15.1875 63.9375 
Q 23.390625 74.21875 37.203125 74.21875 
Q 40.921875 74.21875 44.703125 73.484375 
Q 48.484375 72.75 52.59375 71.296875 
z
" id="DejaVuSans-54"/>
      </defs>
      <g transform="translate(287.429043 326.841947)scale(0.1 -0.1)">
       <use xlink:href="#DejaVuSans-54"/>
       <use x="63.623047" xlink:href="#DejaVuSans-48"/>
      </g>
     </g>
    </g>
    <g id="xtick_15">
     <g id="line2d_26">
      <g>
       <use style="stroke:#000000;stroke-width:0.8;" x="367.171275" xlink:href="#me439ab08b0" y="312.24351"/>
      </g>
     </g>
     <g id="text_30">
      <!-- 80 -->
      <defs>
       <path d="M 31.78125 34.625 
Q 24.75 34.625 20.71875 30.859375 
Q 16.703125 27.09375 16.703125 20.515625 
Q 16.703125 13.921875 20.71875 10.15625 
Q 24.75 6.390625 31.78125 6.390625 
Q 38.8125 6.390625 42.859375 10.171875 
Q 46.921875 13.96875 46.921875 20.515625 
Q 46.921875 27.09375 42.890625 30.859375 
Q 38.875 34.625 31.78125 34.625 
z
M 21.921875 38.8125 
Q 15.578125 40.375 12.03125 44.71875 
Q 8.5 49.078125 8.5 55.328125 
Q 8.5 64.0625 14.71875 69.140625 
Q 20.953125 74.21875 31.78125 74.21875 
Q 42.671875 74.21875 48.875 69.140625 
Q 55.078125 64.0625 55.078125 55.328125 
Q 55.078125 49.078125 51.53125 44.71875 
Q 48 40.375 41.703125 38.8125 
Q 48.828125 37.15625 52.796875 32.3125 
Q 56.78125 27.484375 56.78125 20.515625 
Q 56.78125 9.90625 50.3125 4.234375 
Q 43.84375 -1.421875 31.78125 -1.421875 
Q 19.734375 -1.421875 13.25 4.234375 
Q 6.78125 9.90625 6.78125 20.515625 
Q 6.78125 27.484375 10.78125 32.3125 
Q 14.796875 37.15625 21.921875 38.8125 
z
M 18.3125 54.390625 
Q 18.3125 48.734375 21.84375 45.5625 
Q 25.390625 42.390625 31.78125 42.390625 
Q 38.140625 42.390625 41.71875 45.5625 
Q 45.3125 48.734375 45.3125 54.390625 
Q 45.3125 60.0625 41.71875 63.234375 
Q 38.140625 66.40625 31.78125 66.40625 
Q 25.390625 66.40625 21.84375 63.234375 
Q 18.3125 60.0625 18.3125 54.390625 
z
" id="DejaVuSans-56"/>
      </defs>
      <g transform="translate(360.808775 326.841947)scale(0.1 -0.1)">
       <use xlink:href="#DejaVuSans-56"/>
       <use x="63.623047" xlink:href="#DejaVuSans-48"/>
      </g>
     </g>
    </g>
    <g id="xtick_16">
     <g id="line2d_27">
      <g>
       <use style="stroke:#000000;stroke-width:0.8;" x="440.551006" xlink:href="#me439ab08b0" y="312.24351"/>
      </g>
     </g>
     <g id="text_31">
      <!-- 100 -->
      <g transform="translate(431.007256 326.841947)scale(0.1 -0.1)">
       <use xlink:href="#DejaVuSans-49"/>
       <use x="63.623047" xlink:href="#DejaVuSans-48"/>
       <use x="127.246094" xlink:href="#DejaVuSans-48"/>
      </g>
     </g>
    </g>
    <g id="text_32">
     <!-- Dias -->
     <g transform="translate(244.359372 340.520072)scale(0.1 -0.1)">
      <use xlink:href="#DejaVuSans-68"/>
      <use x="77.001953" xlink:href="#DejaVuSans-105"/>
      <use x="104.785156" xlink:href="#DejaVuSans-97"/>
      <use x="166.064453" xlink:href="#DejaVuSans-115"/>
     </g>
    </g>
   </g>
   <g id="matplotlib.axis_6">
    <g id="ytick_10">
     <g id="line2d_28">
      <g>
       <use style="stroke:#000000;stroke-width:0.8;" x="55.490865" xlink:href="#m10cf01d9ef" y="301.278713"/>
      </g>
     </g>
     <g id="text_33">
      <!-- 1 -->
      <g transform="translate(42.128365 305.077932)scale(0.1 -0.1)">
       <use xlink:href="#DejaVuSans-49"/>
      </g>
     </g>
    </g>
    <g id="ytick_11">
     <g id="line2d_29">
      <g>
       <use style="stroke:#000000;stroke-width:0.8;" x="55.490865" xlink:href="#m10cf01d9ef" y="254.149183"/>
      </g>
     </g>
     <g id="text_34">
      <!-- 2 -->
      <g transform="translate(42.128365 257.948402)scale(0.1 -0.1)">
       <use xlink:href="#DejaVuSans-50"/>
      </g>
     </g>
    </g>
    <g id="ytick_12">
     <g id="line2d_30">
      <g>
       <use style="stroke:#000000;stroke-width:0.8;" x="55.490865" xlink:href="#m10cf01d9ef" y="207.019653"/>
      </g>
     </g>
     <g id="text_35">
      <!-- 3 -->
      <defs>
       <path d="M 40.578125 39.3125 
Q 47.65625 37.796875 51.625 33 
Q 55.609375 28.21875 55.609375 21.1875 
Q 55.609375 10.40625 48.1875 4.484375 
Q 40.765625 -1.421875 27.09375 -1.421875 
Q 22.515625 -1.421875 17.65625 -0.515625 
Q 12.796875 0.390625 7.625 2.203125 
L 7.625 11.71875 
Q 11.71875 9.328125 16.59375 8.109375 
Q 21.484375 6.890625 26.8125 6.890625 
Q 36.078125 6.890625 40.9375 10.546875 
Q 45.796875 14.203125 45.796875 21.1875 
Q 45.796875 27.640625 41.28125 31.265625 
Q 36.765625 34.90625 28.71875 34.90625 
L 20.21875 34.90625 
L 20.21875 43.015625 
L 29.109375 43.015625 
Q 36.375 43.015625 40.234375 45.921875 
Q 44.09375 48.828125 44.09375 54.296875 
Q 44.09375 59.90625 40.109375 62.90625 
Q 36.140625 65.921875 28.71875 65.921875 
Q 24.65625 65.921875 20.015625 65.03125 
Q 15.375 64.15625 9.8125 62.3125 
L 9.8125 71.09375 
Q 15.4375 72.65625 20.34375 73.4375 
Q 25.25 74.21875 29.59375 74.21875 
Q 40.828125 74.21875 47.359375 69.109375 
Q 53.90625 64.015625 53.90625 55.328125 
Q 53.90625 49.265625 50.4375 45.09375 
Q 46.96875 40.921875 40.578125 39.3125 
z
" id="DejaVuSans-51"/>
      </defs>
      <g transform="translate(42.128365 210.818872)scale(0.1 -0.1)">
       <use xlink:href="#DejaVuSans-51"/>
      </g>
     </g>
    </g>
    <g id="text_36">
     <!-- r0 -->
     <defs>
      <path d="M 41.109375 46.296875 
Q 39.59375 47.171875 37.8125 47.578125 
Q 36.03125 48 33.890625 48 
Q 26.265625 48 22.1875 43.046875 
Q 18.109375 38.09375 18.109375 28.8125 
L 18.109375 0 
L 9.078125 0 
L 9.078125 54.6875 
L 18.109375 54.6875 
L 18.109375 46.1875 
Q 20.953125 51.171875 25.484375 53.578125 
Q 30.03125 56 36.53125 56 
Q 37.453125 56 38.578125 55.875 
Q 39.703125 55.765625 41.0625 55.515625 
z
" id="DejaVuSans-114"/>
     </defs>
     <g transform="translate(36.048678 257.681656)rotate(-90)scale(0.1 -0.1)">
      <use xlink:href="#DejaVuSans-114"/>
      <use x="41.113281" xlink:href="#DejaVuSans-48"/>
     </g>
    </g>
   </g>
   <g id="line2d_31">
    <path clip-path="url(#p338d193f31)" d="M 73.652349 198.082599 
L 77.321335 211.583748 
L 80.990322 221.865577 
L 84.659308 242.14135 
L 88.328295 249.457766 
L 91.997281 255.652452 
L 95.666268 260.669499 
L 99.335255 264.422673 
L 103.004241 268.443531 
L 106.673228 272.03989 
L 110.342214 275.007881 
L 114.011201 277.472782 
L 117.680187 279.282305 
L 121.349174 280.453613 
L 125.018161 279.779666 
L 128.687147 277.656283 
L 132.356134 274.953526 
L 136.02512 272.349562 
L 139.694107 270.015425 
L 143.363093 267.944434 
L 147.03208 266.856179 
L 150.701067 267.598067 
L 154.370053 269.310655 
L 158.03904 271.275121 
L 161.708026 273.380202 
L 165.377013 275.490078 
L 169.046 278.476513 
L 172.714986 281.649162 
L 176.383973 284.370946 
L 180.052959 286.83773 
L 183.721946 289.768223 
L 187.390932 292.623149 
L 191.059919 295.377265 
L 194.728906 296.615375 
L 198.397892 296.418617 
L 202.066879 294.761131 
L 205.735865 292.007541 
L 209.404852 287.568715 
L 213.073838 283.100023 
L 216.742825 279.394727 
L 220.411812 277.376552 
L 224.080798 276.821909 
L 227.749785 278.348192 
L 231.418771 281.223931 
L 235.087758 285.497141 
L 238.756744 290.02929 
L 242.425731 294.286624 
L 246.094718 298.365921 
L 249.763704 303.041868 
L 253.432691 305.98191 
L 257.101677 306.807276 
L 260.770664 305.124724 
L 264.43965 301.423609 
L 268.108637 296.092827 
L 271.777624 288.675278 
L 275.44661 278.422541 
L 279.115597 270.640826 
L 282.784583 266.098668 
L 286.45357 264.391735 
L 290.122557 264.701148 
L 293.791543 266.522593 
L 297.46053 269.831584 
L 301.129516 275.025866 
L 304.798503 279.529455 
L 308.467489 283.174695 
L 312.136476 285.737615 
L 315.805463 287.303185 
L 319.474449 287.719019 
L 323.143436 286.666819 
L 326.812422 284.051014 
L 330.481409 281.23593 
L 334.150395 278.301437 
L 337.819382 275.926905 
L 341.488369 274.170015 
L 345.157355 273.175072 
L 348.826342 273.38593 
L 352.495328 274.223978 
L 356.164315 275.373252 
L 359.833301 277.152267 
L 363.502288 279.250293 
L 367.171275 281.633053 
L 370.840261 283.317507 
L 374.509248 283.63749 
L 378.178234 283.252449 
L 381.847221 282.112675 
L 385.516207 279.715569 
L 389.185194 275.996823 
L 392.854181 271.130118 
L 396.523167 267.780789 
L 400.192154 266.394681 
L 403.86114 266.394288 
L 407.530127 267.547221 
L 411.199114 269.992504 
L 414.8681 273.895627 
L 418.537087 278.783217 
L 422.206073 283.409267 
L 425.87506 287.687978 
L 429.544046 291.545209 
L 433.213033 294.203927 
L 436.88202 296.538245 
" style="fill:none;stroke:#ff0000;stroke-linecap:square;stroke-width:1.5;"/>
   </g>
   <g id="patch_213">
    <path d="M 55.490865 312.24351 
L 55.490865 192.646365 
" style="fill:none;stroke:#000000;stroke-linecap:square;stroke-linejoin:miter;stroke-width:0.8;"/>
   </g>
   <g id="patch_214">
    <path d="M 455.043503 312.24351 
L 455.043503 192.646365 
" style="fill:none;stroke:#000000;stroke-linecap:square;stroke-linejoin:miter;stroke-width:0.8;"/>
   </g>
   <g id="patch_215">
    <path d="M 55.490865 312.24351 
L 455.043503 312.24351 
" style="fill:none;stroke:#000000;stroke-linecap:square;stroke-linejoin:miter;stroke-width:0.8;"/>
   </g>
   <g id="patch_216">
    <path d="M 55.490865 192.646365 
L 455.043503 192.646365 
" style="fill:none;stroke:#000000;stroke-linecap:square;stroke-linejoin:miter;stroke-width:0.8;"/>
   </g>
   <g id="text_37">
    <!-- r0 aproximado - GO -->
    <defs>
     <path d="M 18.109375 8.203125 
L 18.109375 -20.796875 
L 9.078125 -20.796875 
L 9.078125 54.6875 
L 18.109375 54.6875 
L 18.109375 46.390625 
Q 20.953125 51.265625 25.265625 53.625 
Q 29.59375 56 35.59375 56 
Q 45.5625 56 51.78125 48.09375 
Q 58.015625 40.1875 58.015625 27.296875 
Q 58.015625 14.40625 51.78125 6.484375 
Q 45.5625 -1.421875 35.59375 -1.421875 
Q 29.59375 -1.421875 25.265625 0.953125 
Q 20.953125 3.328125 18.109375 8.203125 
z
M 48.6875 27.296875 
Q 48.6875 37.203125 44.609375 42.84375 
Q 40.53125 48.484375 33.40625 48.484375 
Q 26.265625 48.484375 22.1875 42.84375 
Q 18.109375 37.203125 18.109375 27.296875 
Q 18.109375 17.390625 22.1875 11.75 
Q 26.265625 6.109375 33.40625 6.109375 
Q 40.53125 6.109375 44.609375 11.75 
Q 48.6875 17.390625 48.6875 27.296875 
z
" id="DejaVuSans-112"/>
     <path d="M 54.890625 54.6875 
L 35.109375 28.078125 
L 55.90625 0 
L 45.3125 0 
L 29.390625 21.484375 
L 13.484375 0 
L 2.875 0 
L 24.125 28.609375 
L 4.6875 54.6875 
L 15.28125 54.6875 
L 29.78125 35.203125 
L 44.28125 54.6875 
z
" id="DejaVuSans-120"/>
    </defs>
    <g transform="translate(196.204684 186.646365)scale(0.12 -0.12)">
     <use xlink:href="#DejaVuSans-114"/>
     <use x="41.113281" xlink:href="#DejaVuSans-48"/>
     <use x="104.736328" xlink:href="#DejaVuSans-32"/>
     <use x="136.523438" xlink:href="#DejaVuSans-97"/>
     <use x="197.802734" xlink:href="#DejaVuSans-112"/>
     <use x="261.279297" xlink:href="#DejaVuSans-114"/>
     <use x="300.142578" xlink:href="#DejaVuSans-111"/>
     <use x="358.199219" xlink:href="#DejaVuSans-120"/>
     <use x="417.378906" xlink:href="#DejaVuSans-105"/>
     <use x="445.162109" xlink:href="#DejaVuSans-109"/>
     <use x="542.574219" xlink:href="#DejaVuSans-97"/>
     <use x="603.853516" xlink:href="#DejaVuSans-100"/>
     <use x="667.330078" xlink:href="#DejaVuSans-111"/>
     <use x="728.511719" xlink:href="#DejaVuSans-32"/>
     <use x="760.298828" xlink:href="#DejaVuSans-45"/>
     <use x="796.382812" xlink:href="#DejaVuSans-32"/>
     <use x="828.169922" xlink:href="#DejaVuSans-71"/>
     <use x="905.660156" xlink:href="#DejaVuSans-79"/>
    </g>
   </g>
  </g>
 </g>
 <defs>
  <clipPath id="pcb4e651a4f">
   <rect height="119.597145" width="170.029888" x="55.490865" y="18.118365"/>
  </clipPath>
  <clipPath id="p7105d3570b">
   <rect height="119.597145" width="170.029888" x="285.013615" y="18.118365"/>
  </clipPath>
  <clipPath id="p338d193f31">
   <rect height="119.597145" width="399.552638" x="55.490865" y="192.646365"/>
  </clipPath>
 </defs>
</svg>
