<?xml version="1.0" encoding="utf-8" standalone="no"?>
<!DOCTYPE svg PUBLIC "-//W3C//DTD SVG 1.1//EN"
  "http://www.w3.org/Graphics/SVG/1.1/DTD/svg11.dtd">
<!-- Created with matplotlib (https://matplotlib.org/) -->
<svg height="345.6pt" version="1.1" viewBox="0 0 460.8 345.6" width="460.8pt" xmlns="http://www.w3.org/2000/svg" xmlns:xlink="http://www.w3.org/1999/xlink">
 <defs>
  <style type="text/css">
*{stroke-linecap:butt;stroke-linejoin:round;}
  </style>
 </defs>
 <g id="figure_1">
  <g id="patch_1">
   <path d="M 0 345.6 
L 460.8 345.6 
L 460.8 0 
L 0 0 
z
" style="fill:#ffffff;"/>
  </g>
  <g id="axes_1">
   <g id="patch_2">
    <path d="M 54.449957 325.921635 
L 134.022511 325.921635 
L 134.022511 18.118365 
L 54.449957 18.118365 
z
" style="fill:#ffffff;"/>
   </g>
   <g id="patch_3">
    <path clip-path="url(#pfe5e6a1429)" d="M 58.066892 325.921635 
L 58.646761 325.921635 
L 58.646761 325.865407 
L 58.066892 325.865407 
z
" style="fill:#1f77b4;"/>
   </g>
   <g id="patch_4">
    <path clip-path="url(#pfe5e6a1429)" d="M 58.791728 325.921635 
L 59.371597 325.921635 
L 59.371597 325.865407 
L 58.791728 325.865407 
z
" style="fill:#1f77b4;"/>
   </g>
   <g id="patch_5">
    <path clip-path="url(#pfe5e6a1429)" d="M 59.516565 325.921635 
L 60.096434 325.921635 
L 60.096434 325.865407 
L 59.516565 325.865407 
z
" style="fill:#1f77b4;"/>
   </g>
   <g id="patch_6">
    <path clip-path="url(#pfe5e6a1429)" d="M 60.241401 325.921635 
L 60.82127 325.921635 
L 60.82127 325.809179 
L 60.241401 325.809179 
z
" style="fill:#1f77b4;"/>
   </g>
   <g id="patch_7">
    <path clip-path="url(#pfe5e6a1429)" d="M 60.966238 325.921635 
L 61.546107 325.921635 
L 61.546107 325.771694 
L 60.966238 325.771694 
z
" style="fill:#1f77b4;"/>
   </g>
   <g id="patch_8">
    <path clip-path="url(#pfe5e6a1429)" d="M 61.691074 325.921635 
L 62.270943 325.921635 
L 62.270943 325.696723 
L 61.691074 325.696723 
z
" style="fill:#1f77b4;"/>
   </g>
   <g id="patch_9">
    <path clip-path="url(#pfe5e6a1429)" d="M 62.415911 325.921635 
L 62.99578 325.921635 
L 62.99578 325.640495 
L 62.415911 325.640495 
z
" style="fill:#1f77b4;"/>
   </g>
   <g id="patch_10">
    <path clip-path="url(#pfe5e6a1429)" d="M 63.140747 325.921635 
L 63.720616 325.921635 
L 63.720616 325.546781 
L 63.140747 325.546781 
z
" style="fill:#1f77b4;"/>
   </g>
   <g id="patch_11">
    <path clip-path="url(#pfe5e6a1429)" d="M 63.865584 325.921635 
L 64.445453 325.921635 
L 64.445453 325.528039 
L 63.865584 325.528039 
z
" style="fill:#1f77b4;"/>
   </g>
   <g id="patch_12">
    <path clip-path="url(#pfe5e6a1429)" d="M 64.59042 325.921635 
L 65.170289 325.921635 
L 65.170289 325.490553 
L 64.59042 325.490553 
z
" style="fill:#1f77b4;"/>
   </g>
   <g id="patch_13">
    <path clip-path="url(#pfe5e6a1429)" d="M 65.315257 325.921635 
L 65.895126 325.921635 
L 65.895126 325.415583 
L 65.315257 325.415583 
z
" style="fill:#1f77b4;"/>
   </g>
   <g id="patch_14">
    <path clip-path="url(#pfe5e6a1429)" d="M 66.040093 325.921635 
L 66.619963 325.921635 
L 66.619963 325.378097 
L 66.040093 325.378097 
z
" style="fill:#1f77b4;"/>
   </g>
   <g id="patch_15">
    <path clip-path="url(#pfe5e6a1429)" d="M 66.76493 325.921635 
L 67.344799 325.921635 
L 67.344799 325.19067 
L 66.76493 325.19067 
z
" style="fill:#1f77b4;"/>
   </g>
   <g id="patch_16">
    <path clip-path="url(#pfe5e6a1429)" d="M 67.489766 325.921635 
L 68.069636 325.921635 
L 68.069636 325.003244 
L 67.489766 325.003244 
z
" style="fill:#1f77b4;"/>
   </g>
   <g id="patch_17">
    <path clip-path="url(#pfe5e6a1429)" d="M 68.214603 325.921635 
L 68.794472 325.921635 
L 68.794472 324.872045 
L 68.214603 324.872045 
z
" style="fill:#1f77b4;"/>
   </g>
   <g id="patch_18">
    <path clip-path="url(#pfe5e6a1429)" d="M 68.939439 325.921635 
L 69.519309 325.921635 
L 69.519309 324.83456 
L 68.939439 324.83456 
z
" style="fill:#1f77b4;"/>
   </g>
   <g id="patch_19">
    <path clip-path="url(#pfe5e6a1429)" d="M 69.664276 325.921635 
L 70.244145 325.921635 
L 70.244145 324.778332 
L 69.664276 324.778332 
z
" style="fill:#1f77b4;"/>
   </g>
   <g id="patch_20">
    <path clip-path="url(#pfe5e6a1429)" d="M 70.389112 325.921635 
L 70.968982 325.921635 
L 70.968982 324.703361 
L 70.389112 324.703361 
z
" style="fill:#1f77b4;"/>
   </g>
   <g id="patch_21">
    <path clip-path="url(#pfe5e6a1429)" d="M 71.113949 325.921635 
L 71.693818 325.921635 
L 71.693818 324.590905 
L 71.113949 324.590905 
z
" style="fill:#1f77b4;"/>
   </g>
   <g id="patch_22">
    <path clip-path="url(#pfe5e6a1429)" d="M 71.838785 325.921635 
L 72.418655 325.921635 
L 72.418655 324.553419 
L 71.838785 324.553419 
z
" style="fill:#1f77b4;"/>
   </g>
   <g id="patch_23">
    <path clip-path="url(#pfe5e6a1429)" d="M 72.563622 325.921635 
L 73.143491 325.921635 
L 73.143491 324.272279 
L 72.563622 324.272279 
z
" style="fill:#1f77b4;"/>
   </g>
   <g id="patch_24">
    <path clip-path="url(#pfe5e6a1429)" d="M 73.288459 325.921635 
L 73.868328 325.921635 
L 73.868328 323.991139 
L 73.288459 323.991139 
z
" style="fill:#1f77b4;"/>
   </g>
   <g id="patch_25">
    <path clip-path="url(#pfe5e6a1429)" d="M 74.013295 325.921635 
L 74.593164 325.921635 
L 74.593164 323.766227 
L 74.013295 323.766227 
z
" style="fill:#1f77b4;"/>
   </g>
   <g id="patch_26">
    <path clip-path="url(#pfe5e6a1429)" d="M 74.738132 325.921635 
L 75.318001 325.921635 
L 75.318001 323.691256 
L 74.738132 323.691256 
z
" style="fill:#1f77b4;"/>
   </g>
   <g id="patch_27">
    <path clip-path="url(#pfe5e6a1429)" d="M 75.462968 325.921635 
L 76.042837 325.921635 
L 76.042837 323.428859 
L 75.462968 323.428859 
z
" style="fill:#1f77b4;"/>
   </g>
   <g id="patch_28">
    <path clip-path="url(#pfe5e6a1429)" d="M 76.187805 325.921635 
L 76.767674 325.921635 
L 76.767674 322.960292 
L 76.187805 322.960292 
z
" style="fill:#1f77b4;"/>
   </g>
   <g id="patch_29">
    <path clip-path="url(#pfe5e6a1429)" d="M 76.912641 325.921635 
L 77.49251 325.921635 
L 77.49251 322.566695 
L 76.912641 322.566695 
z
" style="fill:#1f77b4;"/>
   </g>
   <g id="patch_30">
    <path clip-path="url(#pfe5e6a1429)" d="M 77.637478 325.921635 
L 78.217347 325.921635 
L 78.217347 322.341783 
L 77.637478 322.341783 
z
" style="fill:#1f77b4;"/>
   </g>
   <g id="patch_31">
    <path clip-path="url(#pfe5e6a1429)" d="M 78.362314 325.921635 
L 78.942183 325.921635 
L 78.942183 322.004415 
L 78.362314 322.004415 
z
" style="fill:#1f77b4;"/>
   </g>
   <g id="patch_32">
    <path clip-path="url(#pfe5e6a1429)" d="M 79.087151 325.921635 
L 79.66702 325.921635 
L 79.66702 321.629561 
L 79.087151 321.629561 
z
" style="fill:#1f77b4;"/>
   </g>
   <g id="patch_33">
    <path clip-path="url(#pfe5e6a1429)" d="M 79.811987 325.921635 
L 80.391856 325.921635 
L 80.391856 321.554591 
L 79.811987 321.554591 
z
" style="fill:#1f77b4;"/>
   </g>
   <g id="patch_34">
    <path clip-path="url(#pfe5e6a1429)" d="M 80.536824 325.921635 
L 81.116693 325.921635 
L 81.116693 320.598714 
L 80.536824 320.598714 
z
" style="fill:#1f77b4;"/>
   </g>
   <g id="patch_35">
    <path clip-path="url(#pfe5e6a1429)" d="M 81.26166 325.921635 
L 81.841529 325.921635 
L 81.841529 320.22386 
L 81.26166 320.22386 
z
" style="fill:#1f77b4;"/>
   </g>
   <g id="patch_36">
    <path clip-path="url(#pfe5e6a1429)" d="M 81.986497 325.921635 
L 82.566366 325.921635 
L 82.566366 319.961463 
L 81.986497 319.961463 
z
" style="fill:#1f77b4;"/>
   </g>
   <g id="patch_37">
    <path clip-path="url(#pfe5e6a1429)" d="M 82.711333 325.921635 
L 83.291203 325.921635 
L 83.291203 319.642837 
L 82.711333 319.642837 
z
" style="fill:#1f77b4;"/>
   </g>
   <g id="patch_38">
    <path clip-path="url(#pfe5e6a1429)" d="M 83.43617 325.921635 
L 84.016039 325.921635 
L 84.016039 318.836902 
L 83.43617 318.836902 
z
" style="fill:#1f77b4;"/>
   </g>
   <g id="patch_39">
    <path clip-path="url(#pfe5e6a1429)" d="M 84.161006 325.921635 
L 84.740876 325.921635 
L 84.740876 318.555762 
L 84.161006 318.555762 
z
" style="fill:#1f77b4;"/>
   </g>
   <g id="patch_40">
    <path clip-path="url(#pfe5e6a1429)" d="M 84.885843 325.921635 
L 85.465712 325.921635 
L 85.465712 318.368335 
L 84.885843 318.368335 
z
" style="fill:#1f77b4;"/>
   </g>
   <g id="patch_41">
    <path clip-path="url(#pfe5e6a1429)" d="M 85.610679 325.921635 
L 86.190549 325.921635 
L 86.190549 318.030967 
L 85.610679 318.030967 
z
" style="fill:#1f77b4;"/>
   </g>
   <g id="patch_42">
    <path clip-path="url(#pfe5e6a1429)" d="M 86.335516 325.921635 
L 86.915385 325.921635 
L 86.915385 317.712341 
L 86.335516 317.712341 
z
" style="fill:#1f77b4;"/>
   </g>
   <g id="patch_43">
    <path clip-path="url(#pfe5e6a1429)" d="M 87.060352 325.921635 
L 87.640222 325.921635 
L 87.640222 317.431201 
L 87.060352 317.431201 
z
" style="fill:#1f77b4;"/>
   </g>
   <g id="patch_44">
    <path clip-path="url(#pfe5e6a1429)" d="M 87.785189 325.921635 
L 88.365058 325.921635 
L 88.365058 316.812692 
L 87.785189 316.812692 
z
" style="fill:#1f77b4;"/>
   </g>
   <g id="patch_45">
    <path clip-path="url(#pfe5e6a1429)" d="M 88.510025 325.921635 
L 89.089895 325.921635 
L 89.089895 316.437839 
L 88.510025 316.437839 
z
" style="fill:#1f77b4;"/>
   </g>
   <g id="patch_46">
    <path clip-path="url(#pfe5e6a1429)" d="M 89.234862 325.921635 
L 89.814731 325.921635 
L 89.814731 315.182079 
L 89.234862 315.182079 
z
" style="fill:#1f77b4;"/>
   </g>
   <g id="patch_47">
    <path clip-path="url(#pfe5e6a1429)" d="M 89.959699 325.921635 
L 90.539568 325.921635 
L 90.539568 314.376144 
L 89.959699 314.376144 
z
" style="fill:#1f77b4;"/>
   </g>
   <g id="patch_48">
    <path clip-path="url(#pfe5e6a1429)" d="M 90.684535 325.921635 
L 91.264404 325.921635 
L 91.264404 313.532723 
L 90.684535 313.532723 
z
" style="fill:#1f77b4;"/>
   </g>
   <g id="patch_49">
    <path clip-path="url(#pfe5e6a1429)" d="M 91.409372 325.921635 
L 91.989241 325.921635 
L 91.989241 312.708045 
L 91.409372 312.708045 
z
" style="fill:#1f77b4;"/>
   </g>
   <g id="patch_50">
    <path clip-path="url(#pfe5e6a1429)" d="M 92.134208 325.921635 
L 92.714077 325.921635 
L 92.714077 311.283602 
L 92.134208 311.283602 
z
" style="fill:#1f77b4;"/>
   </g>
   <g id="patch_51">
    <path clip-path="url(#pfe5e6a1429)" d="M 92.859045 325.921635 
L 93.438914 325.921635 
L 93.438914 310.777549 
L 92.859045 310.777549 
z
" style="fill:#1f77b4;"/>
   </g>
   <g id="patch_52">
    <path clip-path="url(#pfe5e6a1429)" d="M 93.583881 325.921635 
L 94.16375 325.921635 
L 94.16375 310.458924 
L 93.583881 310.458924 
z
" style="fill:#1f77b4;"/>
   </g>
   <g id="patch_53">
    <path clip-path="url(#pfe5e6a1429)" d="M 94.308718 325.921635 
L 94.888587 325.921635 
L 94.888587 309.990357 
L 94.308718 309.990357 
z
" style="fill:#1f77b4;"/>
   </g>
   <g id="patch_54">
    <path clip-path="url(#pfe5e6a1429)" d="M 95.033554 325.921635 
L 95.613423 325.921635 
L 95.613423 309.784187 
L 95.033554 309.784187 
z
" style="fill:#1f77b4;"/>
   </g>
   <g id="patch_55">
    <path clip-path="url(#pfe5e6a1429)" d="M 95.758391 325.921635 
L 96.33826 325.921635 
L 96.33826 308.640884 
L 95.758391 308.640884 
z
" style="fill:#1f77b4;"/>
   </g>
   <g id="patch_56">
    <path clip-path="url(#pfe5e6a1429)" d="M 96.483227 325.921635 
L 97.063096 325.921635 
L 97.063096 306.72913 
L 96.483227 306.72913 
z
" style="fill:#1f77b4;"/>
   </g>
   <g id="patch_57">
    <path clip-path="url(#pfe5e6a1429)" d="M 97.208064 325.921635 
L 97.787933 325.921635 
L 97.787933 306.672902 
L 97.208064 306.672902 
z
" style="fill:#1f77b4;"/>
   </g>
   <g id="patch_58">
    <path clip-path="url(#pfe5e6a1429)" d="M 97.9329 325.921635 
L 98.51277 325.921635 
L 98.51277 306.185593 
L 97.9329 306.185593 
z
" style="fill:#1f77b4;"/>
   </g>
   <g id="patch_59">
    <path clip-path="url(#pfe5e6a1429)" d="M 98.657737 325.921635 
L 99.237606 325.921635 
L 99.237606 305.88571 
L 98.657737 305.88571 
z
" style="fill:#1f77b4;"/>
   </g>
   <g id="patch_60">
    <path clip-path="url(#pfe5e6a1429)" d="M 99.382573 325.921635 
L 99.962443 325.921635 
L 99.962443 305.435885 
L 99.382573 305.435885 
z
" style="fill:#1f77b4;"/>
   </g>
   <g id="patch_61">
    <path clip-path="url(#pfe5e6a1429)" d="M 100.10741 325.921635 
L 100.687279 325.921635 
L 100.687279 305.304687 
L 100.10741 305.304687 
z
" style="fill:#1f77b4;"/>
   </g>
   <g id="patch_62">
    <path clip-path="url(#pfe5e6a1429)" d="M 100.832246 325.921635 
L 101.412116 325.921635 
L 101.412116 305.023547 
L 100.832246 305.023547 
z
" style="fill:#1f77b4;"/>
   </g>
   <g id="patch_63">
    <path clip-path="url(#pfe5e6a1429)" d="M 101.557083 325.921635 
L 102.136952 325.921635 
L 102.136952 304.667436 
L 101.557083 304.667436 
z
" style="fill:#1f77b4;"/>
   </g>
   <g id="patch_64">
    <path clip-path="url(#pfe5e6a1429)" d="M 102.281919 325.921635 
L 102.861789 325.921635 
L 102.861789 299.250801 
L 102.281919 299.250801 
z
" style="fill:#1f77b4;"/>
   </g>
   <g id="patch_65">
    <path clip-path="url(#pfe5e6a1429)" d="M 103.006756 325.921635 
L 103.586625 325.921635 
L 103.586625 296.458142 
L 103.006756 296.458142 
z
" style="fill:#1f77b4;"/>
   </g>
   <g id="patch_66">
    <path clip-path="url(#pfe5e6a1429)" d="M 103.731592 325.921635 
L 104.311462 325.921635 
L 104.311462 295.183639 
L 103.731592 295.183639 
z
" style="fill:#1f77b4;"/>
   </g>
   <g id="patch_67">
    <path clip-path="url(#pfe5e6a1429)" d="M 104.456429 325.921635 
L 105.036298 325.921635 
L 105.036298 294.20902 
L 104.456429 294.20902 
z
" style="fill:#1f77b4;"/>
   </g>
   <g id="patch_68">
    <path clip-path="url(#pfe5e6a1429)" d="M 105.181266 325.921635 
L 105.761135 325.921635 
L 105.761135 293.140687 
L 105.181266 293.140687 
z
" style="fill:#1f77b4;"/>
   </g>
   <g id="patch_69">
    <path clip-path="url(#pfe5e6a1429)" d="M 105.906102 325.921635 
L 106.485971 325.921635 
L 106.485971 291.322647 
L 105.906102 291.322647 
z
" style="fill:#1f77b4;"/>
   </g>
   <g id="patch_70">
    <path clip-path="url(#pfe5e6a1429)" d="M 106.630939 325.921635 
L 107.210808 325.921635 
L 107.210808 288.848613 
L 106.630939 288.848613 
z
" style="fill:#1f77b4;"/>
   </g>
   <g id="patch_71">
    <path clip-path="url(#pfe5e6a1429)" d="M 107.355775 325.921635 
L 107.935644 325.921635 
L 107.935644 286.299609 
L 107.355775 286.299609 
z
" style="fill:#1f77b4;"/>
   </g>
   <g id="patch_72">
    <path clip-path="url(#pfe5e6a1429)" d="M 108.080612 325.921635 
L 108.660481 325.921635 
L 108.660481 282.7385 
L 108.080612 282.7385 
z
" style="fill:#1f77b4;"/>
   </g>
   <g id="patch_73">
    <path clip-path="url(#pfe5e6a1429)" d="M 108.805448 325.921635 
L 109.385317 325.921635 
L 109.385317 281.370284 
L 108.805448 281.370284 
z
" style="fill:#1f77b4;"/>
   </g>
   <g id="patch_74">
    <path clip-path="url(#pfe5e6a1429)" d="M 109.530285 325.921635 
L 110.110154 325.921635 
L 110.110154 280.133267 
L 109.530285 280.133267 
z
" style="fill:#1f77b4;"/>
   </g>
   <g id="patch_75">
    <path clip-path="url(#pfe5e6a1429)" d="M 110.255121 325.921635 
L 110.83499 325.921635 
L 110.83499 278.840022 
L 110.255121 278.840022 
z
" style="fill:#1f77b4;"/>
   </g>
   <g id="patch_76">
    <path clip-path="url(#pfe5e6a1429)" d="M 110.979958 325.921635 
L 111.559827 325.921635 
L 111.559827 275.859936 
L 110.979958 275.859936 
z
" style="fill:#1f77b4;"/>
   </g>
   <g id="patch_77">
    <path clip-path="url(#pfe5e6a1429)" d="M 111.704794 325.921635 
L 112.284663 325.921635 
L 112.284663 272.636195 
L 111.704794 272.636195 
z
" style="fill:#1f77b4;"/>
   </g>
   <g id="patch_78">
    <path clip-path="url(#pfe5e6a1429)" d="M 112.429631 325.921635 
L 113.0095 325.921635 
L 113.0095 268.006753 
L 112.429631 268.006753 
z
" style="fill:#1f77b4;"/>
   </g>
   <g id="patch_79">
    <path clip-path="url(#pfe5e6a1429)" d="M 113.154467 325.921635 
L 113.734336 325.921635 
L 113.734336 263.714679 
L 113.154467 263.714679 
z
" style="fill:#1f77b4;"/>
   </g>
   <g id="patch_80">
    <path clip-path="url(#pfe5e6a1429)" d="M 113.879304 325.921635 
L 114.459173 325.921635 
L 114.459173 258.729126 
L 113.879304 258.729126 
z
" style="fill:#1f77b4;"/>
   </g>
   <g id="patch_81">
    <path clip-path="url(#pfe5e6a1429)" d="M 114.60414 325.921635 
L 115.18401 325.921635 
L 115.18401 256.536233 
L 114.60414 256.536233 
z
" style="fill:#1f77b4;"/>
   </g>
   <g id="patch_82">
    <path clip-path="url(#pfe5e6a1429)" d="M 115.328977 325.921635 
L 115.908846 325.921635 
L 115.908846 252.712726 
L 115.328977 252.712726 
z
" style="fill:#1f77b4;"/>
   </g>
   <g id="patch_83">
    <path clip-path="url(#pfe5e6a1429)" d="M 116.053813 325.921635 
L 116.633683 325.921635 
L 116.633683 243.884924 
L 116.053813 243.884924 
z
" style="fill:#1f77b4;"/>
   </g>
   <g id="patch_84">
    <path clip-path="url(#pfe5e6a1429)" d="M 116.77865 325.921635 
L 117.358519 325.921635 
L 117.358519 240.267586 
L 116.77865 240.267586 
z
" style="fill:#1f77b4;"/>
   </g>
   <g id="patch_85">
    <path clip-path="url(#pfe5e6a1429)" d="M 117.503486 325.921635 
L 118.083356 325.921635 
L 118.083356 233.257824 
L 117.503486 233.257824 
z
" style="fill:#1f77b4;"/>
   </g>
   <g id="patch_86">
    <path clip-path="url(#pfe5e6a1429)" d="M 118.228323 325.921635 
L 118.808192 325.921635 
L 118.808192 225.217214 
L 118.228323 225.217214 
z
" style="fill:#1f77b4;"/>
   </g>
   <g id="patch_87">
    <path clip-path="url(#pfe5e6a1429)" d="M 118.953159 325.921635 
L 119.533029 325.921635 
L 119.533029 219.669381 
L 118.953159 219.669381 
z
" style="fill:#1f77b4;"/>
   </g>
   <g id="patch_88">
    <path clip-path="url(#pfe5e6a1429)" d="M 119.677996 325.921635 
L 120.257865 325.921635 
L 120.257865 216.970435 
L 119.677996 216.970435 
z
" style="fill:#1f77b4;"/>
   </g>
   <g id="patch_89">
    <path clip-path="url(#pfe5e6a1429)" d="M 120.402832 325.921635 
L 120.982702 325.921635 
L 120.982702 211.141461 
L 120.402832 211.141461 
z
" style="fill:#1f77b4;"/>
   </g>
   <g id="patch_90">
    <path clip-path="url(#pfe5e6a1429)" d="M 121.127669 325.921635 
L 121.707538 325.921635 
L 121.707538 203.700617 
L 121.127669 203.700617 
z
" style="fill:#1f77b4;"/>
   </g>
   <g id="patch_91">
    <path clip-path="url(#pfe5e6a1429)" d="M 121.852506 325.921635 
L 122.432375 325.921635 
L 122.432375 191.742787 
L 121.852506 191.742787 
z
" style="fill:#1f77b4;"/>
   </g>
   <g id="patch_92">
    <path clip-path="url(#pfe5e6a1429)" d="M 122.577342 325.921635 
L 123.157211 325.921635 
L 123.157211 182.408932 
L 122.577342 182.408932 
z
" style="fill:#1f77b4;"/>
   </g>
   <g id="patch_93">
    <path clip-path="url(#pfe5e6a1429)" d="M 123.302179 325.921635 
L 123.882048 325.921635 
L 123.882048 178.866566 
L 123.302179 178.866566 
z
" style="fill:#1f77b4;"/>
   </g>
   <g id="patch_94">
    <path clip-path="url(#pfe5e6a1429)" d="M 124.027015 325.921635 
L 124.606884 325.921635 
L 124.606884 177.104754 
L 124.027015 177.104754 
z
" style="fill:#1f77b4;"/>
   </g>
   <g id="patch_95">
    <path clip-path="url(#pfe5e6a1429)" d="M 124.751852 325.921635 
L 125.331721 325.921635 
L 125.331721 177.029783 
L 124.751852 177.029783 
z
" style="fill:#1f77b4;"/>
   </g>
   <g id="patch_96">
    <path clip-path="url(#pfe5e6a1429)" d="M 125.476688 325.921635 
L 126.056557 325.921635 
L 126.056557 135.083665 
L 125.476688 135.083665 
z
" style="fill:#1f77b4;"/>
   </g>
   <g id="patch_97">
    <path clip-path="url(#pfe5e6a1429)" d="M 126.201525 325.921635 
L 126.781394 325.921635 
L 126.781394 114.804085 
L 126.201525 114.804085 
z
" style="fill:#1f77b4;"/>
   </g>
   <g id="patch_98">
    <path clip-path="url(#pfe5e6a1429)" d="M 126.926361 325.921635 
L 127.50623 325.921635 
L 127.50623 96.5862 
L 126.926361 96.5862 
z
" style="fill:#1f77b4;"/>
   </g>
   <g id="patch_99">
    <path clip-path="url(#pfe5e6a1429)" d="M 127.651198 325.921635 
L 128.231067 325.921635 
L 128.231067 76.569017 
L 127.651198 76.569017 
z
" style="fill:#1f77b4;"/>
   </g>
   <g id="patch_100">
    <path clip-path="url(#pfe5e6a1429)" d="M 128.376034 325.921635 
L 128.955903 325.921635 
L 128.955903 63.018059 
L 128.376034 63.018059 
z
" style="fill:#1f77b4;"/>
   </g>
   <g id="patch_101">
    <path clip-path="url(#pfe5e6a1429)" d="M 129.100871 325.921635 
L 129.68074 325.921635 
L 129.68074 47.030553 
L 129.100871 47.030553 
z
" style="fill:#1f77b4;"/>
   </g>
   <g id="patch_102">
    <path clip-path="url(#pfe5e6a1429)" d="M 129.825707 325.921635 
L 130.405577 325.921635 
L 130.405577 33.179712 
L 129.825707 33.179712 
z
" style="fill:#1f77b4;"/>
   </g>
   <g id="matplotlib.axis_1">
    <g id="xtick_1">
     <g id="line2d_1">
      <defs>
       <path d="M 0 0 
L 0 3.5 
" id="m3818475c71" style="stroke:#000000;stroke-width:0.8;"/>
      </defs>
      <g>
       <use style="stroke:#000000;stroke-width:0.8;" x="58.356826" xlink:href="#m3818475c71" y="325.921635"/>
      </g>
     </g>
     <g id="text_1">
      <!-- 0 -->
      <defs>
       <path d="M 31.78125 66.40625 
Q 24.171875 66.40625 20.328125 58.90625 
Q 16.5 51.421875 16.5 36.375 
Q 16.5 21.390625 20.328125 13.890625 
Q 24.171875 6.390625 31.78125 6.390625 
Q 39.453125 6.390625 43.28125 13.890625 
Q 47.125 21.390625 47.125 36.375 
Q 47.125 51.421875 43.28125 58.90625 
Q 39.453125 66.40625 31.78125 66.40625 
z
M 31.78125 74.21875 
Q 44.046875 74.21875 50.515625 64.515625 
Q 56.984375 54.828125 56.984375 36.375 
Q 56.984375 17.96875 50.515625 8.265625 
Q 44.046875 -1.421875 31.78125 -1.421875 
Q 19.53125 -1.421875 13.0625 8.265625 
Q 6.59375 17.96875 6.59375 36.375 
Q 6.59375 54.828125 13.0625 64.515625 
Q 19.53125 74.21875 31.78125 74.21875 
z
" id="DejaVuSans-48"/>
      </defs>
      <g transform="translate(55.175576 340.520072)scale(0.1 -0.1)">
       <use xlink:href="#DejaVuSans-48"/>
      </g>
     </g>
    </g>
    <g id="xtick_2">
     <g id="line2d_2">
      <g>
       <use style="stroke:#000000;stroke-width:0.8;" x="130.840478" xlink:href="#m3818475c71" y="325.921635"/>
      </g>
     </g>
     <g id="text_2">
      <!-- 100 -->
      <defs>
       <path d="M 12.40625 8.296875 
L 28.515625 8.296875 
L 28.515625 63.921875 
L 10.984375 60.40625 
L 10.984375 69.390625 
L 28.421875 72.90625 
L 38.28125 72.90625 
L 38.28125 8.296875 
L 54.390625 8.296875 
L 54.390625 0 
L 12.40625 0 
z
" id="DejaVuSans-49"/>
      </defs>
      <g transform="translate(121.296728 340.520072)scale(0.1 -0.1)">
       <use xlink:href="#DejaVuSans-49"/>
       <use x="63.623047" xlink:href="#DejaVuSans-48"/>
       <use x="127.246094" xlink:href="#DejaVuSans-48"/>
      </g>
     </g>
    </g>
   </g>
   <g id="matplotlib.axis_2">
    <g id="ytick_1">
     <g id="line2d_3">
      <defs>
       <path d="M 0 0 
L -3.5 0 
" id="m442ddb1741" style="stroke:#000000;stroke-width:0.8;"/>
      </defs>
      <g>
       <use style="stroke:#000000;stroke-width:0.8;" x="54.449957" xlink:href="#m442ddb1741" y="325.921635"/>
      </g>
     </g>
     <g id="text_3">
      <!-- 0 -->
      <g transform="translate(41.087457 329.720854)scale(0.1 -0.1)">
       <use xlink:href="#DejaVuSans-48"/>
      </g>
     </g>
    </g>
    <g id="ytick_2">
     <g id="line2d_4">
      <g>
       <use style="stroke:#000000;stroke-width:0.8;" x="54.449957" xlink:href="#m442ddb1741" y="288.436275"/>
      </g>
     </g>
     <g id="text_4">
      <!-- 2000 -->
      <defs>
       <path d="M 19.1875 8.296875 
L 53.609375 8.296875 
L 53.609375 0 
L 7.328125 0 
L 7.328125 8.296875 
Q 12.9375 14.109375 22.625 23.890625 
Q 32.328125 33.6875 34.8125 36.53125 
Q 39.546875 41.84375 41.421875 45.53125 
Q 43.3125 49.21875 43.3125 52.78125 
Q 43.3125 58.59375 39.234375 62.25 
Q 35.15625 65.921875 28.609375 65.921875 
Q 23.96875 65.921875 18.8125 64.3125 
Q 13.671875 62.703125 7.8125 59.421875 
L 7.8125 69.390625 
Q 13.765625 71.78125 18.9375 73 
Q 24.125 74.21875 28.421875 74.21875 
Q 39.75 74.21875 46.484375 68.546875 
Q 53.21875 62.890625 53.21875 53.421875 
Q 53.21875 48.921875 51.53125 44.890625 
Q 49.859375 40.875 45.40625 35.40625 
Q 44.1875 33.984375 37.640625 27.21875 
Q 31.109375 20.453125 19.1875 8.296875 
z
" id="DejaVuSans-50"/>
      </defs>
      <g transform="translate(21.999957 292.235493)scale(0.1 -0.1)">
       <use xlink:href="#DejaVuSans-50"/>
       <use x="63.623047" xlink:href="#DejaVuSans-48"/>
       <use x="127.246094" xlink:href="#DejaVuSans-48"/>
       <use x="190.869141" xlink:href="#DejaVuSans-48"/>
      </g>
     </g>
    </g>
    <g id="ytick_3">
     <g id="line2d_5">
      <g>
       <use style="stroke:#000000;stroke-width:0.8;" x="54.449957" xlink:href="#m442ddb1741" y="250.950914"/>
      </g>
     </g>
     <g id="text_5">
      <!-- 4000 -->
      <defs>
       <path d="M 37.796875 64.3125 
L 12.890625 25.390625 
L 37.796875 25.390625 
z
M 35.203125 72.90625 
L 47.609375 72.90625 
L 47.609375 25.390625 
L 58.015625 25.390625 
L 58.015625 17.1875 
L 47.609375 17.1875 
L 47.609375 0 
L 37.796875 0 
L 37.796875 17.1875 
L 4.890625 17.1875 
L 4.890625 26.703125 
z
" id="DejaVuSans-52"/>
      </defs>
      <g transform="translate(21.999957 254.750133)scale(0.1 -0.1)">
       <use xlink:href="#DejaVuSans-52"/>
       <use x="63.623047" xlink:href="#DejaVuSans-48"/>
       <use x="127.246094" xlink:href="#DejaVuSans-48"/>
       <use x="190.869141" xlink:href="#DejaVuSans-48"/>
      </g>
     </g>
    </g>
    <g id="ytick_4">
     <g id="line2d_6">
      <g>
       <use style="stroke:#000000;stroke-width:0.8;" x="54.449957" xlink:href="#m442ddb1741" y="213.465554"/>
      </g>
     </g>
     <g id="text_6">
      <!-- 6000 -->
      <defs>
       <path d="M 33.015625 40.375 
Q 26.375 40.375 22.484375 35.828125 
Q 18.609375 31.296875 18.609375 23.390625 
Q 18.609375 15.53125 22.484375 10.953125 
Q 26.375 6.390625 33.015625 6.390625 
Q 39.65625 6.390625 43.53125 10.953125 
Q 47.40625 15.53125 47.40625 23.390625 
Q 47.40625 31.296875 43.53125 35.828125 
Q 39.65625 40.375 33.015625 40.375 
z
M 52.59375 71.296875 
L 52.59375 62.3125 
Q 48.875 64.0625 45.09375 64.984375 
Q 41.3125 65.921875 37.59375 65.921875 
Q 27.828125 65.921875 22.671875 59.328125 
Q 17.53125 52.734375 16.796875 39.40625 
Q 19.671875 43.65625 24.015625 45.921875 
Q 28.375 48.1875 33.59375 48.1875 
Q 44.578125 48.1875 50.953125 41.515625 
Q 57.328125 34.859375 57.328125 23.390625 
Q 57.328125 12.15625 50.6875 5.359375 
Q 44.046875 -1.421875 33.015625 -1.421875 
Q 20.359375 -1.421875 13.671875 8.265625 
Q 6.984375 17.96875 6.984375 36.375 
Q 6.984375 53.65625 15.1875 63.9375 
Q 23.390625 74.21875 37.203125 74.21875 
Q 40.921875 74.21875 44.703125 73.484375 
Q 48.484375 72.75 52.59375 71.296875 
z
" id="DejaVuSans-54"/>
      </defs>
      <g transform="translate(21.999957 217.264772)scale(0.1 -0.1)">
       <use xlink:href="#DejaVuSans-54"/>
       <use x="63.623047" xlink:href="#DejaVuSans-48"/>
       <use x="127.246094" xlink:href="#DejaVuSans-48"/>
       <use x="190.869141" xlink:href="#DejaVuSans-48"/>
      </g>
     </g>
    </g>
    <g id="ytick_5">
     <g id="line2d_7">
      <g>
       <use style="stroke:#000000;stroke-width:0.8;" x="54.449957" xlink:href="#m442ddb1741" y="175.980193"/>
      </g>
     </g>
     <g id="text_7">
      <!-- 8000 -->
      <defs>
       <path d="M 31.78125 34.625 
Q 24.75 34.625 20.71875 30.859375 
Q 16.703125 27.09375 16.703125 20.515625 
Q 16.703125 13.921875 20.71875 10.15625 
Q 24.75 6.390625 31.78125 6.390625 
Q 38.8125 6.390625 42.859375 10.171875 
Q 46.921875 13.96875 46.921875 20.515625 
Q 46.921875 27.09375 42.890625 30.859375 
Q 38.875 34.625 31.78125 34.625 
z
M 21.921875 38.8125 
Q 15.578125 40.375 12.03125 44.71875 
Q 8.5 49.078125 8.5 55.328125 
Q 8.5 64.0625 14.71875 69.140625 
Q 20.953125 74.21875 31.78125 74.21875 
Q 42.671875 74.21875 48.875 69.140625 
Q 55.078125 64.0625 55.078125 55.328125 
Q 55.078125 49.078125 51.53125 44.71875 
Q 48 40.375 41.703125 38.8125 
Q 48.828125 37.15625 52.796875 32.3125 
Q 56.78125 27.484375 56.78125 20.515625 
Q 56.78125 9.90625 50.3125 4.234375 
Q 43.84375 -1.421875 31.78125 -1.421875 
Q 19.734375 -1.421875 13.25 4.234375 
Q 6.78125 9.90625 6.78125 20.515625 
Q 6.78125 27.484375 10.78125 32.3125 
Q 14.796875 37.15625 21.921875 38.8125 
z
M 18.3125 54.390625 
Q 18.3125 48.734375 21.84375 45.5625 
Q 25.390625 42.390625 31.78125 42.390625 
Q 38.140625 42.390625 41.71875 45.5625 
Q 45.3125 48.734375 45.3125 54.390625 
Q 45.3125 60.0625 41.71875 63.234375 
Q 38.140625 66.40625 31.78125 66.40625 
Q 25.390625 66.40625 21.84375 63.234375 
Q 18.3125 60.0625 18.3125 54.390625 
z
" id="DejaVuSans-56"/>
      </defs>
      <g transform="translate(21.999957 179.779412)scale(0.1 -0.1)">
       <use xlink:href="#DejaVuSans-56"/>
       <use x="63.623047" xlink:href="#DejaVuSans-48"/>
       <use x="127.246094" xlink:href="#DejaVuSans-48"/>
       <use x="190.869141" xlink:href="#DejaVuSans-48"/>
      </g>
     </g>
    </g>
    <g id="ytick_6">
     <g id="line2d_8">
      <g>
       <use style="stroke:#000000;stroke-width:0.8;" x="54.449957" xlink:href="#m442ddb1741" y="138.494833"/>
      </g>
     </g>
     <g id="text_8">
      <!-- 10000 -->
      <g transform="translate(15.637457 142.294051)scale(0.1 -0.1)">
       <use xlink:href="#DejaVuSans-49"/>
       <use x="63.623047" xlink:href="#DejaVuSans-48"/>
       <use x="127.246094" xlink:href="#DejaVuSans-48"/>
       <use x="190.869141" xlink:href="#DejaVuSans-48"/>
       <use x="254.492188" xlink:href="#DejaVuSans-48"/>
      </g>
     </g>
    </g>
    <g id="ytick_7">
     <g id="line2d_9">
      <g>
       <use style="stroke:#000000;stroke-width:0.8;" x="54.449957" xlink:href="#m442ddb1741" y="101.009472"/>
      </g>
     </g>
     <g id="text_9">
      <!-- 12000 -->
      <g transform="translate(15.637457 104.808691)scale(0.1 -0.1)">
       <use xlink:href="#DejaVuSans-49"/>
       <use x="63.623047" xlink:href="#DejaVuSans-50"/>
       <use x="127.246094" xlink:href="#DejaVuSans-48"/>
       <use x="190.869141" xlink:href="#DejaVuSans-48"/>
       <use x="254.492188" xlink:href="#DejaVuSans-48"/>
      </g>
     </g>
    </g>
    <g id="ytick_8">
     <g id="line2d_10">
      <g>
       <use style="stroke:#000000;stroke-width:0.8;" x="54.449957" xlink:href="#m442ddb1741" y="63.524112"/>
      </g>
     </g>
     <g id="text_10">
      <!-- 14000 -->
      <g transform="translate(15.637457 67.32333)scale(0.1 -0.1)">
       <use xlink:href="#DejaVuSans-49"/>
       <use x="63.623047" xlink:href="#DejaVuSans-52"/>
       <use x="127.246094" xlink:href="#DejaVuSans-48"/>
       <use x="190.869141" xlink:href="#DejaVuSans-48"/>
       <use x="254.492188" xlink:href="#DejaVuSans-48"/>
      </g>
     </g>
    </g>
    <g id="ytick_9">
     <g id="line2d_11">
      <g>
       <use style="stroke:#000000;stroke-width:0.8;" x="54.449957" xlink:href="#m442ddb1741" y="26.038751"/>
      </g>
     </g>
     <g id="text_11">
      <!-- 16000 -->
      <g transform="translate(15.637457 29.83797)scale(0.1 -0.1)">
       <use xlink:href="#DejaVuSans-49"/>
       <use x="63.623047" xlink:href="#DejaVuSans-54"/>
       <use x="127.246094" xlink:href="#DejaVuSans-48"/>
       <use x="190.869141" xlink:href="#DejaVuSans-48"/>
       <use x="254.492188" xlink:href="#DejaVuSans-48"/>
      </g>
     </g>
    </g>
   </g>
   <g id="line2d_12">
    <path clip-path="url(#pfe5e6a1429)" d="M 58.356826 325.834167 
L 59.081663 325.812192 
L 59.806499 325.783434 
L 60.531336 325.748548 
L 61.256172 325.707316 
L 61.981009 325.65962 
L 62.705845 325.605383 
L 63.430682 325.544479 
L 64.155518 325.476994 
L 64.880355 325.403093 
L 65.605191 325.322939 
L 66.330028 325.236688 
L 67.054864 325.144411 
L 67.779701 325.046053 
L 68.504537 324.940989 
L 69.229374 324.828002 
L 69.954211 324.705437 
L 70.679047 324.571358 
L 71.403884 324.423563 
L 72.12872 324.259539 
L 72.853557 324.076851 
L 73.578393 323.873874 
L 74.30323 323.649626 
L 75.028066 323.403465 
L 75.752903 323.135096 
L 76.477739 322.844502 
L 77.202576 322.53284 
L 77.927412 322.201927 
L 78.652249 321.853568 
L 79.377085 321.489651 
L 80.101922 321.112908 
L 80.826758 320.726283 
L 81.551595 320.332819 
L 82.276431 319.933891 
L 83.001268 319.529187 
L 83.726104 319.116567 
L 84.450941 318.692347 
L 85.175777 318.250219 
L 85.900614 317.782979 
L 86.625451 317.283406 
L 87.350287 316.745832 
L 88.075124 316.166355 
L 88.79996 315.544755 
L 89.524797 314.884031 
L 90.249633 314.191067 
L 90.97447 313.474403 
L 91.699306 312.742791 
L 92.424143 312.005035 
L 93.148979 311.271346 
L 93.873816 310.547977 
L 94.598652 309.836504 
L 95.323489 309.133291 
L 96.048325 308.430632 
L 96.773162 307.717278 
L 97.497998 306.976556 
L 98.222835 306.182392 
L 98.947671 305.309394 
L 99.672508 304.335383 
L 100.397344 303.242578 
L 101.122181 302.017833 
L 101.847018 300.653559 
L 102.571854 299.150366 
L 103.296691 297.521791 
L 104.021527 295.782578 
L 104.746364 293.946451 
L 105.4712 292.023495 
L 106.196037 290.019426 
L 106.920873 287.93361 
L 107.64571 285.755806 
L 108.370546 283.463641 
L 109.095383 281.030035 
L 109.820219 278.422555 
L 110.545056 275.607983 
L 111.269892 272.5532 
L 111.994729 269.227611 
L 112.719565 265.610227 
L 113.444402 261.686621 
L 114.169238 257.447146 
L 114.894075 252.892893 
L 115.618911 248.033496 
L 116.343748 242.887768 
L 117.068584 237.468097 
L 117.793421 231.766544 
L 118.518258 225.762477 
L 119.243094 219.418919 
L 119.967931 212.668377 
L 120.692767 205.402993 
L 121.417604 197.465292 
L 122.14244 188.703686 
L 122.867277 178.99447 
L 123.592113 168.241207 
L 124.31695 156.382555 
L 125.041786 143.413744 
L 125.766623 129.411135 
L 126.491459 114.525841 
L 127.216296 98.929378 
L 127.941132 82.80122 
L 128.665969 66.316849 
L 129.390805 49.603296 
L 130.115642 32.775664 
" style="fill:none;stroke:#ff0000;stroke-linecap:square;stroke-width:1.5;"/>
   </g>
   <g id="patch_103">
    <path d="M 54.449957 325.921635 
L 54.449957 18.118365 
" style="fill:none;stroke:#000000;stroke-linecap:square;stroke-linejoin:miter;stroke-width:0.8;"/>
   </g>
   <g id="patch_104">
    <path d="M 134.022511 325.921635 
L 134.022511 18.118365 
" style="fill:none;stroke:#000000;stroke-linecap:square;stroke-linejoin:miter;stroke-width:0.8;"/>
   </g>
   <g id="patch_105">
    <path d="M 54.449957 325.921635 
L 134.022511 325.921635 
" style="fill:none;stroke:#000000;stroke-linecap:square;stroke-linejoin:miter;stroke-width:0.8;"/>
   </g>
   <g id="patch_106">
    <path d="M 54.449957 18.118365 
L 134.022511 18.118365 
" style="fill:none;stroke:#000000;stroke-linecap:square;stroke-linejoin:miter;stroke-width:0.8;"/>
   </g>
   <g id="text_12">
    <!-- Casos acumulados - GO - (data) -->
    <defs>
     <path d="M 64.40625 67.28125 
L 64.40625 56.890625 
Q 59.421875 61.53125 53.78125 63.8125 
Q 48.140625 66.109375 41.796875 66.109375 
Q 29.296875 66.109375 22.65625 58.46875 
Q 16.015625 50.828125 16.015625 36.375 
Q 16.015625 21.96875 22.65625 14.328125 
Q 29.296875 6.6875 41.796875 6.6875 
Q 48.140625 6.6875 53.78125 8.984375 
Q 59.421875 11.28125 64.40625 15.921875 
L 64.40625 5.609375 
Q 59.234375 2.09375 53.4375 0.328125 
Q 47.65625 -1.421875 41.21875 -1.421875 
Q 24.65625 -1.421875 15.125 8.703125 
Q 5.609375 18.84375 5.609375 36.375 
Q 5.609375 53.953125 15.125 64.078125 
Q 24.65625 74.21875 41.21875 74.21875 
Q 47.75 74.21875 53.53125 72.484375 
Q 59.328125 70.75 64.40625 67.28125 
z
" id="DejaVuSans-67"/>
     <path d="M 34.28125 27.484375 
Q 23.390625 27.484375 19.1875 25 
Q 14.984375 22.515625 14.984375 16.5 
Q 14.984375 11.71875 18.140625 8.90625 
Q 21.296875 6.109375 26.703125 6.109375 
Q 34.1875 6.109375 38.703125 11.40625 
Q 43.21875 16.703125 43.21875 25.484375 
L 43.21875 27.484375 
z
M 52.203125 31.203125 
L 52.203125 0 
L 43.21875 0 
L 43.21875 8.296875 
Q 40.140625 3.328125 35.546875 0.953125 
Q 30.953125 -1.421875 24.3125 -1.421875 
Q 15.921875 -1.421875 10.953125 3.296875 
Q 6 8.015625 6 15.921875 
Q 6 25.140625 12.171875 29.828125 
Q 18.359375 34.515625 30.609375 34.515625 
L 43.21875 34.515625 
L 43.21875 35.40625 
Q 43.21875 41.609375 39.140625 45 
Q 35.0625 48.390625 27.6875 48.390625 
Q 23 48.390625 18.546875 47.265625 
Q 14.109375 46.140625 10.015625 43.890625 
L 10.015625 52.203125 
Q 14.9375 54.109375 19.578125 55.046875 
Q 24.21875 56 28.609375 56 
Q 40.484375 56 46.34375 49.84375 
Q 52.203125 43.703125 52.203125 31.203125 
z
" id="DejaVuSans-97"/>
     <path d="M 44.28125 53.078125 
L 44.28125 44.578125 
Q 40.484375 46.53125 36.375 47.5 
Q 32.28125 48.484375 27.875 48.484375 
Q 21.1875 48.484375 17.84375 46.4375 
Q 14.5 44.390625 14.5 40.28125 
Q 14.5 37.15625 16.890625 35.375 
Q 19.28125 33.59375 26.515625 31.984375 
L 29.59375 31.296875 
Q 39.15625 29.25 43.1875 25.515625 
Q 47.21875 21.78125 47.21875 15.09375 
Q 47.21875 7.46875 41.1875 3.015625 
Q 35.15625 -1.421875 24.609375 -1.421875 
Q 20.21875 -1.421875 15.453125 -0.5625 
Q 10.6875 0.296875 5.421875 2 
L 5.421875 11.28125 
Q 10.40625 8.6875 15.234375 7.390625 
Q 20.0625 6.109375 24.8125 6.109375 
Q 31.15625 6.109375 34.5625 8.28125 
Q 37.984375 10.453125 37.984375 14.40625 
Q 37.984375 18.0625 35.515625 20.015625 
Q 33.0625 21.96875 24.703125 23.78125 
L 21.578125 24.515625 
Q 13.234375 26.265625 9.515625 29.90625 
Q 5.8125 33.546875 5.8125 39.890625 
Q 5.8125 47.609375 11.28125 51.796875 
Q 16.75 56 26.8125 56 
Q 31.78125 56 36.171875 55.265625 
Q 40.578125 54.546875 44.28125 53.078125 
z
" id="DejaVuSans-115"/>
     <path d="M 30.609375 48.390625 
Q 23.390625 48.390625 19.1875 42.75 
Q 14.984375 37.109375 14.984375 27.296875 
Q 14.984375 17.484375 19.15625 11.84375 
Q 23.34375 6.203125 30.609375 6.203125 
Q 37.796875 6.203125 41.984375 11.859375 
Q 46.1875 17.53125 46.1875 27.296875 
Q 46.1875 37.015625 41.984375 42.703125 
Q 37.796875 48.390625 30.609375 48.390625 
z
M 30.609375 56 
Q 42.328125 56 49.015625 48.375 
Q 55.71875 40.765625 55.71875 27.296875 
Q 55.71875 13.875 49.015625 6.21875 
Q 42.328125 -1.421875 30.609375 -1.421875 
Q 18.84375 -1.421875 12.171875 6.21875 
Q 5.515625 13.875 5.515625 27.296875 
Q 5.515625 40.765625 12.171875 48.375 
Q 18.84375 56 30.609375 56 
z
" id="DejaVuSans-111"/>
     <path id="DejaVuSans-32"/>
     <path d="M 48.78125 52.59375 
L 48.78125 44.1875 
Q 44.96875 46.296875 41.140625 47.34375 
Q 37.3125 48.390625 33.40625 48.390625 
Q 24.65625 48.390625 19.8125 42.84375 
Q 14.984375 37.3125 14.984375 27.296875 
Q 14.984375 17.28125 19.8125 11.734375 
Q 24.65625 6.203125 33.40625 6.203125 
Q 37.3125 6.203125 41.140625 7.25 
Q 44.96875 8.296875 48.78125 10.40625 
L 48.78125 2.09375 
Q 45.015625 0.34375 40.984375 -0.53125 
Q 36.96875 -1.421875 32.421875 -1.421875 
Q 20.0625 -1.421875 12.78125 6.34375 
Q 5.515625 14.109375 5.515625 27.296875 
Q 5.515625 40.671875 12.859375 48.328125 
Q 20.21875 56 33.015625 56 
Q 37.15625 56 41.109375 55.140625 
Q 45.0625 54.296875 48.78125 52.59375 
z
" id="DejaVuSans-99"/>
     <path d="M 8.5 21.578125 
L 8.5 54.6875 
L 17.484375 54.6875 
L 17.484375 21.921875 
Q 17.484375 14.15625 20.5 10.265625 
Q 23.53125 6.390625 29.59375 6.390625 
Q 36.859375 6.390625 41.078125 11.03125 
Q 45.3125 15.671875 45.3125 23.6875 
L 45.3125 54.6875 
L 54.296875 54.6875 
L 54.296875 0 
L 45.3125 0 
L 45.3125 8.40625 
Q 42.046875 3.421875 37.71875 1 
Q 33.40625 -1.421875 27.6875 -1.421875 
Q 18.265625 -1.421875 13.375 4.4375 
Q 8.5 10.296875 8.5 21.578125 
z
M 31.109375 56 
z
" id="DejaVuSans-117"/>
     <path d="M 52 44.1875 
Q 55.375 50.25 60.0625 53.125 
Q 64.75 56 71.09375 56 
Q 79.640625 56 84.28125 50.015625 
Q 88.921875 44.046875 88.921875 33.015625 
L 88.921875 0 
L 79.890625 0 
L 79.890625 32.71875 
Q 79.890625 40.578125 77.09375 44.375 
Q 74.3125 48.1875 68.609375 48.1875 
Q 61.625 48.1875 57.5625 43.546875 
Q 53.515625 38.921875 53.515625 30.90625 
L 53.515625 0 
L 44.484375 0 
L 44.484375 32.71875 
Q 44.484375 40.625 41.703125 44.40625 
Q 38.921875 48.1875 33.109375 48.1875 
Q 26.21875 48.1875 22.15625 43.53125 
Q 18.109375 38.875 18.109375 30.90625 
L 18.109375 0 
L 9.078125 0 
L 9.078125 54.6875 
L 18.109375 54.6875 
L 18.109375 46.1875 
Q 21.1875 51.21875 25.484375 53.609375 
Q 29.78125 56 35.6875 56 
Q 41.65625 56 45.828125 52.96875 
Q 50 49.953125 52 44.1875 
z
" id="DejaVuSans-109"/>
     <path d="M 9.421875 75.984375 
L 18.40625 75.984375 
L 18.40625 0 
L 9.421875 0 
z
" id="DejaVuSans-108"/>
     <path d="M 45.40625 46.390625 
L 45.40625 75.984375 
L 54.390625 75.984375 
L 54.390625 0 
L 45.40625 0 
L 45.40625 8.203125 
Q 42.578125 3.328125 38.25 0.953125 
Q 33.9375 -1.421875 27.875 -1.421875 
Q 17.96875 -1.421875 11.734375 6.484375 
Q 5.515625 14.40625 5.515625 27.296875 
Q 5.515625 40.1875 11.734375 48.09375 
Q 17.96875 56 27.875 56 
Q 33.9375 56 38.25 53.625 
Q 42.578125 51.265625 45.40625 46.390625 
z
M 14.796875 27.296875 
Q 14.796875 17.390625 18.875 11.75 
Q 22.953125 6.109375 30.078125 6.109375 
Q 37.203125 6.109375 41.296875 11.75 
Q 45.40625 17.390625 45.40625 27.296875 
Q 45.40625 37.203125 41.296875 42.84375 
Q 37.203125 48.484375 30.078125 48.484375 
Q 22.953125 48.484375 18.875 42.84375 
Q 14.796875 37.203125 14.796875 27.296875 
z
" id="DejaVuSans-100"/>
     <path d="M 4.890625 31.390625 
L 31.203125 31.390625 
L 31.203125 23.390625 
L 4.890625 23.390625 
z
" id="DejaVuSans-45"/>
     <path d="M 59.515625 10.40625 
L 59.515625 29.984375 
L 43.40625 29.984375 
L 43.40625 38.09375 
L 69.28125 38.09375 
L 69.28125 6.78125 
Q 63.578125 2.734375 56.6875 0.65625 
Q 49.8125 -1.421875 42 -1.421875 
Q 24.90625 -1.421875 15.25 8.5625 
Q 5.609375 18.5625 5.609375 36.375 
Q 5.609375 54.25 15.25 64.234375 
Q 24.90625 74.21875 42 74.21875 
Q 49.125 74.21875 55.546875 72.453125 
Q 61.96875 70.703125 67.390625 67.28125 
L 67.390625 56.78125 
Q 61.921875 61.421875 55.765625 63.765625 
Q 49.609375 66.109375 42.828125 66.109375 
Q 29.4375 66.109375 22.71875 58.640625 
Q 16.015625 51.171875 16.015625 36.375 
Q 16.015625 21.625 22.71875 14.15625 
Q 29.4375 6.6875 42.828125 6.6875 
Q 48.046875 6.6875 52.140625 7.59375 
Q 56.25 8.5 59.515625 10.40625 
z
" id="DejaVuSans-71"/>
     <path d="M 39.40625 66.21875 
Q 28.65625 66.21875 22.328125 58.203125 
Q 16.015625 50.203125 16.015625 36.375 
Q 16.015625 22.609375 22.328125 14.59375 
Q 28.65625 6.59375 39.40625 6.59375 
Q 50.140625 6.59375 56.421875 14.59375 
Q 62.703125 22.609375 62.703125 36.375 
Q 62.703125 50.203125 56.421875 58.203125 
Q 50.140625 66.21875 39.40625 66.21875 
z
M 39.40625 74.21875 
Q 54.734375 74.21875 63.90625 63.9375 
Q 73.09375 53.65625 73.09375 36.375 
Q 73.09375 19.140625 63.90625 8.859375 
Q 54.734375 -1.421875 39.40625 -1.421875 
Q 24.03125 -1.421875 14.8125 8.828125 
Q 5.609375 19.09375 5.609375 36.375 
Q 5.609375 53.65625 14.8125 63.9375 
Q 24.03125 74.21875 39.40625 74.21875 
z
" id="DejaVuSans-79"/>
     <path d="M 31 75.875 
Q 24.46875 64.65625 21.28125 53.65625 
Q 18.109375 42.671875 18.109375 31.390625 
Q 18.109375 20.125 21.3125 9.0625 
Q 24.515625 -2 31 -13.1875 
L 23.1875 -13.1875 
Q 15.875 -1.703125 12.234375 9.375 
Q 8.59375 20.453125 8.59375 31.390625 
Q 8.59375 42.28125 12.203125 53.3125 
Q 15.828125 64.359375 23.1875 75.875 
z
" id="DejaVuSans-40"/>
     <path d="M 18.3125 70.21875 
L 18.3125 54.6875 
L 36.8125 54.6875 
L 36.8125 47.703125 
L 18.3125 47.703125 
L 18.3125 18.015625 
Q 18.3125 11.328125 20.140625 9.421875 
Q 21.96875 7.515625 27.59375 7.515625 
L 36.8125 7.515625 
L 36.8125 0 
L 27.59375 0 
Q 17.1875 0 13.234375 3.875 
Q 9.28125 7.765625 9.28125 18.015625 
L 9.28125 47.703125 
L 2.6875 47.703125 
L 2.6875 54.6875 
L 9.28125 54.6875 
L 9.28125 70.21875 
z
" id="DejaVuSans-116"/>
     <path d="M 8.015625 75.875 
L 15.828125 75.875 
Q 23.140625 64.359375 26.78125 53.3125 
Q 30.421875 42.28125 30.421875 31.390625 
Q 30.421875 20.453125 26.78125 9.375 
Q 23.140625 -1.703125 15.828125 -13.1875 
L 8.015625 -13.1875 
Q 14.5 -2 17.703125 9.0625 
Q 20.90625 20.125 20.90625 31.390625 
Q 20.90625 42.671875 17.703125 53.65625 
Q 14.5 64.65625 8.015625 75.875 
z
" id="DejaVuSans-41"/>
    </defs>
    <g transform="translate(-1.360641 12.118365)scale(0.12 -0.12)">
     <use xlink:href="#DejaVuSans-67"/>
     <use x="69.824219" xlink:href="#DejaVuSans-97"/>
     <use x="131.103516" xlink:href="#DejaVuSans-115"/>
     <use x="183.203125" xlink:href="#DejaVuSans-111"/>
     <use x="244.384766" xlink:href="#DejaVuSans-115"/>
     <use x="296.484375" xlink:href="#DejaVuSans-32"/>
     <use x="328.271484" xlink:href="#DejaVuSans-97"/>
     <use x="389.550781" xlink:href="#DejaVuSans-99"/>
     <use x="444.53125" xlink:href="#DejaVuSans-117"/>
     <use x="507.910156" xlink:href="#DejaVuSans-109"/>
     <use x="605.322266" xlink:href="#DejaVuSans-117"/>
     <use x="668.701172" xlink:href="#DejaVuSans-108"/>
     <use x="696.484375" xlink:href="#DejaVuSans-97"/>
     <use x="757.763672" xlink:href="#DejaVuSans-100"/>
     <use x="821.240234" xlink:href="#DejaVuSans-111"/>
     <use x="882.421875" xlink:href="#DejaVuSans-115"/>
     <use x="934.521484" xlink:href="#DejaVuSans-32"/>
     <use x="966.308594" xlink:href="#DejaVuSans-45"/>
     <use x="1002.392578" xlink:href="#DejaVuSans-32"/>
     <use x="1034.179688" xlink:href="#DejaVuSans-71"/>
     <use x="1111.669922" xlink:href="#DejaVuSans-79"/>
     <use x="1190.380859" xlink:href="#DejaVuSans-32"/>
     <use x="1222.167969" xlink:href="#DejaVuSans-45"/>
     <use x="1258.251953" xlink:href="#DejaVuSans-32"/>
     <use x="1290.039062" xlink:href="#DejaVuSans-40"/>
     <use x="1329.052734" xlink:href="#DejaVuSans-100"/>
     <use x="1392.529297" xlink:href="#DejaVuSans-97"/>
     <use x="1453.808594" xlink:href="#DejaVuSans-116"/>
     <use x="1493.017578" xlink:href="#DejaVuSans-97"/>
     <use x="1554.296875" xlink:href="#DejaVuSans-41"/>
    </g>
   </g>
  </g>
  <g id="axes_2">
   <g id="patch_107">
    <path d="M 227.4413 325.921635 
L 307.013854 325.921635 
L 307.013854 18.118365 
L 227.4413 18.118365 
z
" style="fill:#ffffff;"/>
   </g>
   <g id="patch_108">
    <path clip-path="url(#p95039e7cfe)" d="M 231.058235 325.921635 
L 231.638104 325.921635 
L 231.638104 325.921635 
L 231.058235 325.921635 
z
" style="fill:#1f77b4;"/>
   </g>
   <g id="patch_109">
    <path clip-path="url(#p95039e7cfe)" d="M 231.783071 325.921635 
L 232.36294 325.921635 
L 232.36294 325.921635 
L 231.783071 325.921635 
z
" style="fill:#1f77b4;"/>
   </g>
   <g id="patch_110">
    <path clip-path="url(#p95039e7cfe)" d="M 232.507908 325.921635 
L 233.087777 325.921635 
L 233.087777 325.921635 
L 232.507908 325.921635 
z
" style="fill:#1f77b4;"/>
   </g>
   <g id="patch_111">
    <path clip-path="url(#p95039e7cfe)" d="M 233.232744 325.921635 
L 233.812613 325.921635 
L 233.812613 325.528678 
L 233.232744 325.528678 
z
" style="fill:#1f77b4;"/>
   </g>
   <g id="patch_112">
    <path clip-path="url(#p95039e7cfe)" d="M 233.957581 325.921635 
L 234.53745 325.921635 
L 234.53745 325.659664 
L 233.957581 325.659664 
z
" style="fill:#1f77b4;"/>
   </g>
   <g id="patch_113">
    <path clip-path="url(#p95039e7cfe)" d="M 234.682417 325.921635 
L 235.262286 325.921635 
L 235.262286 325.397692 
L 234.682417 325.397692 
z
" style="fill:#1f77b4;"/>
   </g>
   <g id="patch_114">
    <path clip-path="url(#p95039e7cfe)" d="M 235.407254 325.921635 
L 235.987123 325.921635 
L 235.987123 325.528678 
L 235.407254 325.528678 
z
" style="fill:#1f77b4;"/>
   </g>
   <g id="patch_115">
    <path clip-path="url(#p95039e7cfe)" d="M 236.13209 325.921635 
L 236.711959 325.921635 
L 236.711959 325.266707 
L 236.13209 325.266707 
z
" style="fill:#1f77b4;"/>
   </g>
   <g id="patch_116">
    <path clip-path="url(#p95039e7cfe)" d="M 236.856927 325.921635 
L 237.436796 325.921635 
L 237.436796 325.790649 
L 236.856927 325.790649 
z
" style="fill:#1f77b4;"/>
   </g>
   <g id="patch_117">
    <path clip-path="url(#p95039e7cfe)" d="M 237.581763 325.921635 
L 238.161632 325.921635 
L 238.161632 325.659664 
L 237.581763 325.659664 
z
" style="fill:#1f77b4;"/>
   </g>
   <g id="patch_118">
    <path clip-path="url(#p95039e7cfe)" d="M 238.3066 325.921635 
L 238.886469 325.921635 
L 238.886469 325.397692 
L 238.3066 325.397692 
z
" style="fill:#1f77b4;"/>
   </g>
   <g id="patch_119">
    <path clip-path="url(#p95039e7cfe)" d="M 239.031436 325.921635 
L 239.611306 325.921635 
L 239.611306 325.659664 
L 239.031436 325.659664 
z
" style="fill:#1f77b4;"/>
   </g>
   <g id="patch_120">
    <path clip-path="url(#p95039e7cfe)" d="M 239.756273 325.921635 
L 240.336142 325.921635 
L 240.336142 324.611778 
L 239.756273 324.611778 
z
" style="fill:#1f77b4;"/>
   </g>
   <g id="patch_121">
    <path clip-path="url(#p95039e7cfe)" d="M 240.481109 325.921635 
L 241.060979 325.921635 
L 241.060979 324.611778 
L 240.481109 324.611778 
z
" style="fill:#1f77b4;"/>
   </g>
   <g id="patch_122">
    <path clip-path="url(#p95039e7cfe)" d="M 241.205946 325.921635 
L 241.785815 325.921635 
L 241.785815 325.004735 
L 241.205946 325.004735 
z
" style="fill:#1f77b4;"/>
   </g>
   <g id="patch_123">
    <path clip-path="url(#p95039e7cfe)" d="M 241.930782 325.921635 
L 242.510652 325.921635 
L 242.510652 325.659664 
L 241.930782 325.659664 
z
" style="fill:#1f77b4;"/>
   </g>
   <g id="patch_124">
    <path clip-path="url(#p95039e7cfe)" d="M 242.655619 325.921635 
L 243.235488 325.921635 
L 243.235488 325.528678 
L 242.655619 325.528678 
z
" style="fill:#1f77b4;"/>
   </g>
   <g id="patch_125">
    <path clip-path="url(#p95039e7cfe)" d="M 243.380455 325.921635 
L 243.960325 325.921635 
L 243.960325 325.397692 
L 243.380455 325.397692 
z
" style="fill:#1f77b4;"/>
   </g>
   <g id="patch_126">
    <path clip-path="url(#p95039e7cfe)" d="M 244.105292 325.921635 
L 244.685161 325.921635 
L 244.685161 325.135721 
L 244.105292 325.135721 
z
" style="fill:#1f77b4;"/>
   </g>
   <g id="patch_127">
    <path clip-path="url(#p95039e7cfe)" d="M 244.830129 325.921635 
L 245.409998 325.921635 
L 245.409998 325.659664 
L 244.830129 325.659664 
z
" style="fill:#1f77b4;"/>
   </g>
   <g id="patch_128">
    <path clip-path="url(#p95039e7cfe)" d="M 245.554965 325.921635 
L 246.134834 325.921635 
L 246.134834 323.95685 
L 245.554965 323.95685 
z
" style="fill:#1f77b4;"/>
   </g>
   <g id="patch_129">
    <path clip-path="url(#p95039e7cfe)" d="M 246.279802 325.921635 
L 246.859671 325.921635 
L 246.859671 323.95685 
L 246.279802 323.95685 
z
" style="fill:#1f77b4;"/>
   </g>
   <g id="patch_130">
    <path clip-path="url(#p95039e7cfe)" d="M 247.004638 325.921635 
L 247.584507 325.921635 
L 247.584507 324.349807 
L 247.004638 324.349807 
z
" style="fill:#1f77b4;"/>
   </g>
   <g id="patch_131">
    <path clip-path="url(#p95039e7cfe)" d="M 247.729475 325.921635 
L 248.309344 325.921635 
L 248.309344 325.397692 
L 247.729475 325.397692 
z
" style="fill:#1f77b4;"/>
   </g>
   <g id="patch_132">
    <path clip-path="url(#p95039e7cfe)" d="M 248.454311 325.921635 
L 249.03418 325.921635 
L 249.03418 324.087835 
L 248.454311 324.087835 
z
" style="fill:#1f77b4;"/>
   </g>
   <g id="patch_133">
    <path clip-path="url(#p95039e7cfe)" d="M 249.179148 325.921635 
L 249.759017 325.921635 
L 249.759017 322.646993 
L 249.179148 322.646993 
z
" style="fill:#1f77b4;"/>
   </g>
   <g id="patch_134">
    <path clip-path="url(#p95039e7cfe)" d="M 249.903984 325.921635 
L 250.483853 325.921635 
L 250.483853 323.170936 
L 249.903984 323.170936 
z
" style="fill:#1f77b4;"/>
   </g>
   <g id="patch_135">
    <path clip-path="url(#p95039e7cfe)" d="M 250.628821 325.921635 
L 251.20869 325.921635 
L 251.20869 324.349807 
L 250.628821 324.349807 
z
" style="fill:#1f77b4;"/>
   </g>
   <g id="patch_136">
    <path clip-path="url(#p95039e7cfe)" d="M 251.353657 325.921635 
L 251.933526 325.921635 
L 251.933526 323.563893 
L 251.353657 323.563893 
z
" style="fill:#1f77b4;"/>
   </g>
   <g id="patch_137">
    <path clip-path="url(#p95039e7cfe)" d="M 252.078494 325.921635 
L 252.658363 325.921635 
L 252.658363 323.301921 
L 252.078494 323.301921 
z
" style="fill:#1f77b4;"/>
   </g>
   <g id="patch_138">
    <path clip-path="url(#p95039e7cfe)" d="M 252.80333 325.921635 
L 253.383199 325.921635 
L 253.383199 325.397692 
L 252.80333 325.397692 
z
" style="fill:#1f77b4;"/>
   </g>
   <g id="patch_139">
    <path clip-path="url(#p95039e7cfe)" d="M 253.528167 325.921635 
L 254.108036 325.921635 
L 254.108036 319.241365 
L 253.528167 319.241365 
z
" style="fill:#1f77b4;"/>
   </g>
   <g id="patch_140">
    <path clip-path="url(#p95039e7cfe)" d="M 254.253003 325.921635 
L 254.832873 325.921635 
L 254.832873 323.301921 
L 254.253003 323.301921 
z
" style="fill:#1f77b4;"/>
   </g>
   <g id="patch_141">
    <path clip-path="url(#p95039e7cfe)" d="M 254.97784 325.921635 
L 255.557709 325.921635 
L 255.557709 324.087835 
L 254.97784 324.087835 
z
" style="fill:#1f77b4;"/>
   </g>
   <g id="patch_142">
    <path clip-path="url(#p95039e7cfe)" d="M 255.702676 325.921635 
L 256.282546 325.921635 
L 256.282546 323.694878 
L 255.702676 323.694878 
z
" style="fill:#1f77b4;"/>
   </g>
   <g id="patch_143">
    <path clip-path="url(#p95039e7cfe)" d="M 256.427513 325.921635 
L 257.007382 325.921635 
L 257.007382 320.28925 
L 256.427513 320.28925 
z
" style="fill:#1f77b4;"/>
   </g>
   <g id="patch_144">
    <path clip-path="url(#p95039e7cfe)" d="M 257.152349 325.921635 
L 257.732219 325.921635 
L 257.732219 323.95685 
L 257.152349 323.95685 
z
" style="fill:#1f77b4;"/>
   </g>
   <g id="patch_145">
    <path clip-path="url(#p95039e7cfe)" d="M 257.877186 325.921635 
L 258.457055 325.921635 
L 258.457055 324.611778 
L 257.877186 324.611778 
z
" style="fill:#1f77b4;"/>
   </g>
   <g id="patch_146">
    <path clip-path="url(#p95039e7cfe)" d="M 258.602022 325.921635 
L 259.181892 325.921635 
L 259.181892 323.563893 
L 258.602022 323.563893 
z
" style="fill:#1f77b4;"/>
   </g>
   <g id="patch_147">
    <path clip-path="url(#p95039e7cfe)" d="M 259.326859 325.921635 
L 259.906728 325.921635 
L 259.906728 323.694878 
L 259.326859 323.694878 
z
" style="fill:#1f77b4;"/>
   </g>
   <g id="patch_148">
    <path clip-path="url(#p95039e7cfe)" d="M 260.051695 325.921635 
L 260.631565 325.921635 
L 260.631565 323.95685 
L 260.051695 323.95685 
z
" style="fill:#1f77b4;"/>
   </g>
   <g id="patch_149">
    <path clip-path="url(#p95039e7cfe)" d="M 260.776532 325.921635 
L 261.356401 325.921635 
L 261.356401 321.599107 
L 260.776532 321.599107 
z
" style="fill:#1f77b4;"/>
   </g>
   <g id="patch_150">
    <path clip-path="url(#p95039e7cfe)" d="M 261.501369 325.921635 
L 262.081238 325.921635 
L 262.081238 323.301921 
L 261.501369 323.301921 
z
" style="fill:#1f77b4;"/>
   </g>
   <g id="patch_151">
    <path clip-path="url(#p95039e7cfe)" d="M 262.226205 325.921635 
L 262.806074 325.921635 
L 262.806074 317.145594 
L 262.226205 317.145594 
z
" style="fill:#1f77b4;"/>
   </g>
   <g id="patch_152">
    <path clip-path="url(#p95039e7cfe)" d="M 262.951042 325.921635 
L 263.530911 325.921635 
L 263.530911 320.28925 
L 262.951042 320.28925 
z
" style="fill:#1f77b4;"/>
   </g>
   <g id="patch_153">
    <path clip-path="url(#p95039e7cfe)" d="M 263.675878 325.921635 
L 264.255747 325.921635 
L 264.255747 320.027279 
L 263.675878 320.027279 
z
" style="fill:#1f77b4;"/>
   </g>
   <g id="patch_154">
    <path clip-path="url(#p95039e7cfe)" d="M 264.400715 325.921635 
L 264.980584 325.921635 
L 264.980584 320.158265 
L 264.400715 320.158265 
z
" style="fill:#1f77b4;"/>
   </g>
   <g id="patch_155">
    <path clip-path="url(#p95039e7cfe)" d="M 265.125551 325.921635 
L 265.70542 325.921635 
L 265.70542 315.966723 
L 265.125551 315.966723 
z
" style="fill:#1f77b4;"/>
   </g>
   <g id="patch_156">
    <path clip-path="url(#p95039e7cfe)" d="M 265.850388 325.921635 
L 266.430257 325.921635 
L 266.430257 322.385021 
L 265.850388 322.385021 
z
" style="fill:#1f77b4;"/>
   </g>
   <g id="patch_157">
    <path clip-path="url(#p95039e7cfe)" d="M 266.575224 325.921635 
L 267.155093 325.921635 
L 267.155093 323.694878 
L 266.575224 323.694878 
z
" style="fill:#1f77b4;"/>
   </g>
   <g id="patch_158">
    <path clip-path="url(#p95039e7cfe)" d="M 267.300061 325.921635 
L 267.87993 325.921635 
L 267.87993 322.646993 
L 267.300061 322.646993 
z
" style="fill:#1f77b4;"/>
   </g>
   <g id="patch_159">
    <path clip-path="url(#p95039e7cfe)" d="M 268.024897 325.921635 
L 268.604766 325.921635 
L 268.604766 324.480792 
L 268.024897 324.480792 
z
" style="fill:#1f77b4;"/>
   </g>
   <g id="patch_160">
    <path clip-path="url(#p95039e7cfe)" d="M 268.749734 325.921635 
L 269.329603 325.921635 
L 269.329603 317.931508 
L 268.749734 317.931508 
z
" style="fill:#1f77b4;"/>
   </g>
   <g id="patch_161">
    <path clip-path="url(#p95039e7cfe)" d="M 269.47457 325.921635 
L 270.054439 325.921635 
L 270.054439 312.561095 
L 269.47457 312.561095 
z
" style="fill:#1f77b4;"/>
   </g>
   <g id="patch_162">
    <path clip-path="url(#p95039e7cfe)" d="M 270.199407 325.921635 
L 270.779276 325.921635 
L 270.779276 325.528678 
L 270.199407 325.528678 
z
" style="fill:#1f77b4;"/>
   </g>
   <g id="patch_163">
    <path clip-path="url(#p95039e7cfe)" d="M 270.924243 325.921635 
L 271.504113 325.921635 
L 271.504113 322.516007 
L 270.924243 322.516007 
z
" style="fill:#1f77b4;"/>
   </g>
   <g id="patch_164">
    <path clip-path="url(#p95039e7cfe)" d="M 271.64908 325.921635 
L 272.228949 325.921635 
L 272.228949 323.825864 
L 271.64908 323.825864 
z
" style="fill:#1f77b4;"/>
   </g>
   <g id="patch_165">
    <path clip-path="url(#p95039e7cfe)" d="M 272.373916 325.921635 
L 272.953786 325.921635 
L 272.953786 322.777978 
L 272.373916 322.777978 
z
" style="fill:#1f77b4;"/>
   </g>
   <g id="patch_166">
    <path clip-path="url(#p95039e7cfe)" d="M 273.098753 325.921635 
L 273.678622 325.921635 
L 273.678622 325.004735 
L 273.098753 325.004735 
z
" style="fill:#1f77b4;"/>
   </g>
   <g id="patch_167">
    <path clip-path="url(#p95039e7cfe)" d="M 273.823589 325.921635 
L 274.403459 325.921635 
L 274.403459 323.95685 
L 273.823589 323.95685 
z
" style="fill:#1f77b4;"/>
   </g>
   <g id="patch_168">
    <path clip-path="url(#p95039e7cfe)" d="M 274.548426 325.921635 
L 275.128295 325.921635 
L 275.128295 323.432907 
L 274.548426 323.432907 
z
" style="fill:#1f77b4;"/>
   </g>
   <g id="patch_169">
    <path clip-path="url(#p95039e7cfe)" d="M 275.273262 325.921635 
L 275.853132 325.921635 
L 275.853132 288.066771 
L 275.273262 288.066771 
z
" style="fill:#1f77b4;"/>
   </g>
   <g id="patch_170">
    <path clip-path="url(#p95039e7cfe)" d="M 275.998099 325.921635 
L 276.577968 325.921635 
L 276.577968 306.404767 
L 275.998099 306.404767 
z
" style="fill:#1f77b4;"/>
   </g>
   <g id="patch_171">
    <path clip-path="url(#p95039e7cfe)" d="M 276.722936 325.921635 
L 277.302805 325.921635 
L 277.302805 317.014608 
L 276.722936 317.014608 
z
" style="fill:#1f77b4;"/>
   </g>
   <g id="patch_172">
    <path clip-path="url(#p95039e7cfe)" d="M 277.447772 325.921635 
L 278.027641 325.921635 
L 278.027641 319.110379 
L 277.447772 319.110379 
z
" style="fill:#1f77b4;"/>
   </g>
   <g id="patch_173">
    <path clip-path="url(#p95039e7cfe)" d="M 278.172609 325.921635 
L 278.752478 325.921635 
L 278.752478 318.455451 
L 278.172609 318.455451 
z
" style="fill:#1f77b4;"/>
   </g>
   <g id="patch_174">
    <path clip-path="url(#p95039e7cfe)" d="M 278.897445 325.921635 
L 279.477314 325.921635 
L 279.477314 313.216023 
L 278.897445 313.216023 
z
" style="fill:#1f77b4;"/>
   </g>
   <g id="patch_175">
    <path clip-path="url(#p95039e7cfe)" d="M 279.622282 325.921635 
L 280.202151 325.921635 
L 280.202151 308.631524 
L 279.622282 308.631524 
z
" style="fill:#1f77b4;"/>
   </g>
   <g id="patch_176">
    <path clip-path="url(#p95039e7cfe)" d="M 280.347118 325.921635 
L 280.926987 325.921635 
L 280.926987 308.107581 
L 280.347118 308.107581 
z
" style="fill:#1f77b4;"/>
   </g>
   <g id="patch_177">
    <path clip-path="url(#p95039e7cfe)" d="M 281.071955 325.921635 
L 281.651824 325.921635 
L 281.651824 301.034354 
L 281.071955 301.034354 
z
" style="fill:#1f77b4;"/>
   </g>
   <g id="patch_178">
    <path clip-path="url(#p95039e7cfe)" d="M 281.796791 325.921635 
L 282.37666 325.921635 
L 282.37666 316.35968 
L 281.796791 316.35968 
z
" style="fill:#1f77b4;"/>
   </g>
   <g id="patch_179">
    <path clip-path="url(#p95039e7cfe)" d="M 282.521628 325.921635 
L 283.101497 325.921635 
L 283.101497 317.27658 
L 282.521628 317.27658 
z
" style="fill:#1f77b4;"/>
   </g>
   <g id="patch_180">
    <path clip-path="url(#p95039e7cfe)" d="M 283.246464 325.921635 
L 283.826333 325.921635 
L 283.826333 316.883622 
L 283.246464 316.883622 
z
" style="fill:#1f77b4;"/>
   </g>
   <g id="patch_181">
    <path clip-path="url(#p95039e7cfe)" d="M 283.971301 325.921635 
L 284.55117 325.921635 
L 284.55117 305.09491 
L 283.971301 305.09491 
z
" style="fill:#1f77b4;"/>
   </g>
   <g id="patch_182">
    <path clip-path="url(#p95039e7cfe)" d="M 284.696137 325.921635 
L 285.276006 325.921635 
L 285.276006 303.392097 
L 284.696137 303.392097 
z
" style="fill:#1f77b4;"/>
   </g>
   <g id="patch_183">
    <path clip-path="url(#p95039e7cfe)" d="M 285.420974 325.921635 
L 286.000843 325.921635 
L 286.000843 293.56817 
L 285.420974 293.56817 
z
" style="fill:#1f77b4;"/>
   </g>
   <g id="patch_184">
    <path clip-path="url(#p95039e7cfe)" d="M 286.14581 325.921635 
L 286.72568 325.921635 
L 286.72568 295.925912 
L 286.14581 295.925912 
z
" style="fill:#1f77b4;"/>
   </g>
   <g id="patch_185">
    <path clip-path="url(#p95039e7cfe)" d="M 286.870647 325.921635 
L 287.450516 325.921635 
L 287.450516 291.079442 
L 286.870647 291.079442 
z
" style="fill:#1f77b4;"/>
   </g>
   <g id="patch_186">
    <path clip-path="url(#p95039e7cfe)" d="M 287.595483 325.921635 
L 288.175353 325.921635 
L 288.175353 310.596309 
L 287.595483 310.596309 
z
" style="fill:#1f77b4;"/>
   </g>
   <g id="patch_187">
    <path clip-path="url(#p95039e7cfe)" d="M 288.32032 325.921635 
L 288.900189 325.921635 
L 288.900189 299.200554 
L 288.32032 299.200554 
z
" style="fill:#1f77b4;"/>
   </g>
   <g id="patch_188">
    <path clip-path="url(#p95039e7cfe)" d="M 289.045156 325.921635 
L 289.625026 325.921635 
L 289.625026 264.227376 
L 289.045156 264.227376 
z
" style="fill:#1f77b4;"/>
   </g>
   <g id="patch_189">
    <path clip-path="url(#p95039e7cfe)" d="M 289.769993 325.921635 
L 290.349862 325.921635 
L 290.349862 300.641397 
L 289.769993 300.641397 
z
" style="fill:#1f77b4;"/>
   </g>
   <g id="patch_190">
    <path clip-path="url(#p95039e7cfe)" d="M 290.494829 325.921635 
L 291.074699 325.921635 
L 291.074699 276.932987 
L 290.494829 276.932987 
z
" style="fill:#1f77b4;"/>
   </g>
   <g id="patch_191">
    <path clip-path="url(#p95039e7cfe)" d="M 291.219666 325.921635 
L 291.799535 325.921635 
L 291.799535 269.728775 
L 291.219666 269.728775 
z
" style="fill:#1f77b4;"/>
   </g>
   <g id="patch_192">
    <path clip-path="url(#p95039e7cfe)" d="M 291.944502 325.921635 
L 292.524372 325.921635 
L 292.524372 287.149871 
L 291.944502 287.149871 
z
" style="fill:#1f77b4;"/>
   </g>
   <g id="patch_193">
    <path clip-path="url(#p95039e7cfe)" d="M 292.669339 325.921635 
L 293.249208 325.921635 
L 293.249208 307.059696 
L 292.669339 307.059696 
z
" style="fill:#1f77b4;"/>
   </g>
   <g id="patch_194">
    <path clip-path="url(#p95039e7cfe)" d="M 293.394176 325.921635 
L 293.974045 325.921635 
L 293.974045 285.185086 
L 293.394176 285.185086 
z
" style="fill:#1f77b4;"/>
   </g>
   <g id="patch_195">
    <path clip-path="url(#p95039e7cfe)" d="M 294.119012 325.921635 
L 294.698881 325.921635 
L 294.698881 273.920317 
L 294.119012 273.920317 
z
" style="fill:#1f77b4;"/>
   </g>
   <g id="patch_196">
    <path clip-path="url(#p95039e7cfe)" d="M 294.843849 325.921635 
L 295.423718 325.921635 
L 295.423718 242.352766 
L 294.843849 242.352766 
z
" style="fill:#1f77b4;"/>
   </g>
   <g id="patch_197">
    <path clip-path="url(#p95039e7cfe)" d="M 295.568685 325.921635 
L 296.148554 325.921635 
L 296.148554 260.690762 
L 295.568685 260.690762 
z
" style="fill:#1f77b4;"/>
   </g>
   <g id="patch_198">
    <path clip-path="url(#p95039e7cfe)" d="M 296.293522 325.921635 
L 296.873391 325.921635 
L 296.873391 301.16534 
L 296.293522 301.16534 
z
" style="fill:#1f77b4;"/>
   </g>
   <g id="patch_199">
    <path clip-path="url(#p95039e7cfe)" d="M 297.018358 325.921635 
L 297.598227 325.921635 
L 297.598227 313.60898 
L 297.018358 313.60898 
z
" style="fill:#1f77b4;"/>
   </g>
   <g id="patch_200">
    <path clip-path="url(#p95039e7cfe)" d="M 297.743195 325.921635 
L 298.323064 325.921635 
L 298.323064 325.397692 
L 297.743195 325.397692 
z
" style="fill:#1f77b4;"/>
   </g>
   <g id="patch_201">
    <path clip-path="url(#p95039e7cfe)" d="M 298.468031 325.921635 
L 299.0479 325.921635 
L 299.0479 32.775664 
L 298.468031 32.775664 
z
" style="fill:#1f77b4;"/>
   </g>
   <g id="patch_202">
    <path clip-path="url(#p95039e7cfe)" d="M 299.192868 325.921635 
L 299.772737 325.921635 
L 299.772737 184.19512 
L 299.192868 184.19512 
z
" style="fill:#1f77b4;"/>
   </g>
   <g id="patch_203">
    <path clip-path="url(#p95039e7cfe)" d="M 299.917704 325.921635 
L 300.497573 325.921635 
L 300.497573 198.603546 
L 299.917704 198.603546 
z
" style="fill:#1f77b4;"/>
   </g>
   <g id="patch_204">
    <path clip-path="url(#p95039e7cfe)" d="M 300.642541 325.921635 
L 301.22241 325.921635 
L 301.22241 186.028919 
L 300.642541 186.028919 
z
" style="fill:#1f77b4;"/>
   </g>
   <g id="patch_205">
    <path clip-path="url(#p95039e7cfe)" d="M 301.367377 325.921635 
L 301.947246 325.921635 
L 301.947246 231.218982 
L 301.367377 231.218982 
z
" style="fill:#1f77b4;"/>
   </g>
   <g id="patch_206">
    <path clip-path="url(#p95039e7cfe)" d="M 302.092214 325.921635 
L 302.672083 325.921635 
L 302.672083 214.190842 
L 302.092214 214.190842 
z
" style="fill:#1f77b4;"/>
   </g>
   <g id="patch_207">
    <path clip-path="url(#p95039e7cfe)" d="M 302.81705 325.921635 
L 303.39692 325.921635 
L 303.39692 229.123211 
L 302.81705 229.123211 
z
" style="fill:#1f77b4;"/>
   </g>
   <g id="matplotlib.axis_3">
    <g id="xtick_3">
     <g id="line2d_13">
      <g>
       <use style="stroke:#000000;stroke-width:0.8;" x="231.348169" xlink:href="#m3818475c71" y="325.921635"/>
      </g>
     </g>
     <g id="text_13">
      <!-- 0 -->
      <g transform="translate(228.166919 340.520072)scale(0.1 -0.1)">
       <use xlink:href="#DejaVuSans-48"/>
      </g>
     </g>
    </g>
    <g id="xtick_4">
     <g id="line2d_14">
      <g>
       <use style="stroke:#000000;stroke-width:0.8;" x="303.831821" xlink:href="#m3818475c71" y="325.921635"/>
      </g>
     </g>
     <g id="text_14">
      <!-- 100 -->
      <g transform="translate(294.288071 340.520072)scale(0.1 -0.1)">
       <use xlink:href="#DejaVuSans-49"/>
       <use x="63.623047" xlink:href="#DejaVuSans-48"/>
       <use x="127.246094" xlink:href="#DejaVuSans-48"/>
      </g>
     </g>
    </g>
   </g>
   <g id="matplotlib.axis_4">
    <g id="ytick_10">
     <g id="line2d_15">
      <g>
       <use style="stroke:#000000;stroke-width:0.8;" x="227.4413" xlink:href="#m442ddb1741" y="325.921635"/>
      </g>
     </g>
     <g id="text_15">
      <!-- 0 -->
      <g transform="translate(214.0788 329.720854)scale(0.1 -0.1)">
       <use xlink:href="#DejaVuSans-48"/>
      </g>
     </g>
    </g>
    <g id="ytick_11">
     <g id="line2d_16">
      <g>
       <use style="stroke:#000000;stroke-width:0.8;" x="227.4413" xlink:href="#m442ddb1741" y="260.428791"/>
      </g>
     </g>
     <g id="text_16">
      <!-- 500 -->
      <defs>
       <path d="M 10.796875 72.90625 
L 49.515625 72.90625 
L 49.515625 64.59375 
L 19.828125 64.59375 
L 19.828125 46.734375 
Q 21.96875 47.46875 24.109375 47.828125 
Q 26.265625 48.1875 28.421875 48.1875 
Q 40.625 48.1875 47.75 41.5 
Q 54.890625 34.8125 54.890625 23.390625 
Q 54.890625 11.625 47.5625 5.09375 
Q 40.234375 -1.421875 26.90625 -1.421875 
Q 22.3125 -1.421875 17.546875 -0.640625 
Q 12.796875 0.140625 7.71875 1.703125 
L 7.71875 11.625 
Q 12.109375 9.234375 16.796875 8.0625 
Q 21.484375 6.890625 26.703125 6.890625 
Q 35.15625 6.890625 40.078125 11.328125 
Q 45.015625 15.765625 45.015625 23.390625 
Q 45.015625 31 40.078125 35.4375 
Q 35.15625 39.890625 26.703125 39.890625 
Q 22.75 39.890625 18.8125 39.015625 
Q 14.890625 38.140625 10.796875 36.28125 
z
" id="DejaVuSans-53"/>
      </defs>
      <g transform="translate(201.3538 264.228009)scale(0.1 -0.1)">
       <use xlink:href="#DejaVuSans-53"/>
       <use x="63.623047" xlink:href="#DejaVuSans-48"/>
       <use x="127.246094" xlink:href="#DejaVuSans-48"/>
      </g>
     </g>
    </g>
    <g id="ytick_12">
     <g id="line2d_17">
      <g>
       <use style="stroke:#000000;stroke-width:0.8;" x="227.4413" xlink:href="#m442ddb1741" y="194.935946"/>
      </g>
     </g>
     <g id="text_17">
      <!-- 1000 -->
      <g transform="translate(194.9913 198.735165)scale(0.1 -0.1)">
       <use xlink:href="#DejaVuSans-49"/>
       <use x="63.623047" xlink:href="#DejaVuSans-48"/>
       <use x="127.246094" xlink:href="#DejaVuSans-48"/>
       <use x="190.869141" xlink:href="#DejaVuSans-48"/>
      </g>
     </g>
    </g>
    <g id="ytick_13">
     <g id="line2d_18">
      <g>
       <use style="stroke:#000000;stroke-width:0.8;" x="227.4413" xlink:href="#m442ddb1741" y="129.443102"/>
      </g>
     </g>
     <g id="text_18">
      <!-- 1500 -->
      <g transform="translate(194.9913 133.242321)scale(0.1 -0.1)">
       <use xlink:href="#DejaVuSans-49"/>
       <use x="63.623047" xlink:href="#DejaVuSans-53"/>
       <use x="127.246094" xlink:href="#DejaVuSans-48"/>
       <use x="190.869141" xlink:href="#DejaVuSans-48"/>
      </g>
     </g>
    </g>
    <g id="ytick_14">
     <g id="line2d_19">
      <g>
       <use style="stroke:#000000;stroke-width:0.8;" x="227.4413" xlink:href="#m442ddb1741" y="63.950257"/>
      </g>
     </g>
     <g id="text_19">
      <!-- 2000 -->
      <g transform="translate(194.9913 67.749476)scale(0.1 -0.1)">
       <use xlink:href="#DejaVuSans-50"/>
       <use x="63.623047" xlink:href="#DejaVuSans-48"/>
       <use x="127.246094" xlink:href="#DejaVuSans-48"/>
       <use x="190.869141" xlink:href="#DejaVuSans-48"/>
      </g>
     </g>
    </g>
   </g>
   <g id="line2d_20">
    <path clip-path="url(#p95039e7cfe)" d="M 231.348169 325.80898 
L 232.073006 325.768064 
L 232.797842 325.720656 
L 233.522679 325.67783 
L 234.247515 325.633477 
L 234.972352 325.588306 
L 235.697188 325.542589 
L 236.422025 325.496 
L 237.146861 325.45001 
L 237.871698 325.405166 
L 238.596534 325.361468 
L 239.321371 325.318861 
L 240.046207 325.276745 
L 240.771044 325.234247 
L 241.49588 325.187384 
L 242.220717 325.132011 
L 242.945554 325.065073 
L 243.67039 324.984605 
L 244.395227 324.888752 
L 245.120063 324.775333 
L 245.8449 324.644893 
L 246.569736 324.503105 
L 247.294573 324.354444 
L 248.019409 324.201309 
L 248.744246 324.046101 
L 249.469082 323.890784 
L 250.193919 323.743541 
L 250.918755 323.609009 
L 251.643592 323.48708 
L 252.368428 323.378352 
L 253.093265 323.288719 
L 253.818101 323.219653 
L 254.542938 323.171863 
L 255.267774 323.133675 
L 255.992611 323.093304 
L 256.717447 323.037986 
L 257.442284 322.956918 
L 258.167121 322.831769 
L 258.891957 322.656267 
L 259.616794 322.430302 
L 260.34163 322.16473 
L 261.066467 321.87188 
L 261.791303 321.577504 
L 262.51614 321.304076 
L 263.240976 321.078765 
L 263.965813 320.913137 
L 264.690649 320.808665 
L 265.415486 320.765731 
L 266.140322 320.794154 
L 266.865159 320.866275 
L 267.589995 320.949416 
L 268.314832 321.007135 
L 269.039668 321.011008 
L 269.764505 320.936268 
L 270.489341 320.745 
L 271.214178 320.371519 
L 271.939014 319.820571 
L 272.663851 319.114634 
L 273.388687 318.284422 
L 274.113524 317.362339 
L 274.838361 316.38723 
L 275.563197 315.416375 
L 276.288034 314.540119 
L 277.01287 313.766916 
L 277.737707 313.08962 
L 278.462543 312.482809 
L 279.18738 311.915932 
L 279.912216 311.344635 
L 280.637053 310.701764 
L 281.361889 309.902538 
L 282.086726 308.914063 
L 282.811562 307.698913 
L 283.536399 306.251633 
L 284.261235 304.572877 
L 284.986072 302.680322 
L 285.710908 300.64107 
L 286.435745 298.501 
L 287.160581 296.293501 
L 287.885418 294.09364 
L 288.610254 291.961099 
L 289.335091 289.960035 
L 290.059928 288.045549 
L 290.784764 286.075581 
L 291.509601 283.961425 
L 292.234437 281.588844 
L 292.959274 278.744583 
L 293.68411 275.146541 
L 294.408947 270.447968 
L 295.133783 264.689999 
L 295.85862 258.067502 
L 296.583456 250.771037 
L 297.308293 243.045882 
L 298.033129 235.287394 
L 298.757966 228.06256 
L 299.482802 221.893794 
L 300.207639 216.923703 
L 300.932475 213.207877 
L 301.657312 210.71844 
L 302.382148 209.11677 
L 303.106985 208.319509 
" style="fill:none;stroke:#ff0000;stroke-linecap:square;stroke-width:1.5;"/>
   </g>
   <g id="patch_208">
    <path d="M 227.4413 325.921635 
L 227.4413 18.118365 
" style="fill:none;stroke:#000000;stroke-linecap:square;stroke-linejoin:miter;stroke-width:0.8;"/>
   </g>
   <g id="patch_209">
    <path d="M 307.013854 325.921635 
L 307.013854 18.118365 
" style="fill:none;stroke:#000000;stroke-linecap:square;stroke-linejoin:miter;stroke-width:0.8;"/>
   </g>
   <g id="patch_210">
    <path d="M 227.4413 325.921635 
L 307.013854 325.921635 
" style="fill:none;stroke:#000000;stroke-linecap:square;stroke-linejoin:miter;stroke-width:0.8;"/>
   </g>
   <g id="patch_211">
    <path d="M 227.4413 18.118365 
L 307.013854 18.118365 
" style="fill:none;stroke:#000000;stroke-linecap:square;stroke-linejoin:miter;stroke-width:0.8;"/>
   </g>
   <g id="text_20">
    <!-- Casos novos - GO - (data) -->
    <defs>
     <path d="M 54.890625 33.015625 
L 54.890625 0 
L 45.90625 0 
L 45.90625 32.71875 
Q 45.90625 40.484375 42.875 44.328125 
Q 39.84375 48.1875 33.796875 48.1875 
Q 26.515625 48.1875 22.3125 43.546875 
Q 18.109375 38.921875 18.109375 30.90625 
L 18.109375 0 
L 9.078125 0 
L 9.078125 54.6875 
L 18.109375 54.6875 
L 18.109375 46.1875 
Q 21.34375 51.125 25.703125 53.5625 
Q 30.078125 56 35.796875 56 
Q 45.21875 56 50.046875 50.171875 
Q 54.890625 44.34375 54.890625 33.015625 
z
" id="DejaVuSans-110"/>
     <path d="M 2.984375 54.6875 
L 12.5 54.6875 
L 29.59375 8.796875 
L 46.6875 54.6875 
L 56.203125 54.6875 
L 35.6875 0 
L 23.484375 0 
z
" id="DejaVuSans-118"/>
    </defs>
    <g transform="translate(190.183827 12.118365)scale(0.12 -0.12)">
     <use xlink:href="#DejaVuSans-67"/>
     <use x="69.824219" xlink:href="#DejaVuSans-97"/>
     <use x="131.103516" xlink:href="#DejaVuSans-115"/>
     <use x="183.203125" xlink:href="#DejaVuSans-111"/>
     <use x="244.384766" xlink:href="#DejaVuSans-115"/>
     <use x="296.484375" xlink:href="#DejaVuSans-32"/>
     <use x="328.271484" xlink:href="#DejaVuSans-110"/>
     <use x="391.650391" xlink:href="#DejaVuSans-111"/>
     <use x="452.832031" xlink:href="#DejaVuSans-118"/>
     <use x="512.011719" xlink:href="#DejaVuSans-111"/>
     <use x="573.193359" xlink:href="#DejaVuSans-115"/>
     <use x="625.292969" xlink:href="#DejaVuSans-32"/>
     <use x="657.080078" xlink:href="#DejaVuSans-45"/>
     <use x="693.164062" xlink:href="#DejaVuSans-32"/>
     <use x="724.951172" xlink:href="#DejaVuSans-71"/>
     <use x="802.441406" xlink:href="#DejaVuSans-79"/>
     <use x="881.152344" xlink:href="#DejaVuSans-32"/>
     <use x="912.939453" xlink:href="#DejaVuSans-45"/>
     <use x="949.023438" xlink:href="#DejaVuSans-32"/>
     <use x="980.810547" xlink:href="#DejaVuSans-40"/>
     <use x="1019.824219" xlink:href="#DejaVuSans-100"/>
     <use x="1083.300781" xlink:href="#DejaVuSans-97"/>
     <use x="1144.580078" xlink:href="#DejaVuSans-116"/>
     <use x="1183.789062" xlink:href="#DejaVuSans-97"/>
     <use x="1245.068359" xlink:href="#DejaVuSans-41"/>
    </g>
   </g>
  </g>
  <g id="axes_3">
   <g id="patch_212">
    <path d="M 371.886051 325.921635 
L 451.458605 325.921635 
L 451.458605 18.118365 
L 371.886051 18.118365 
z
" style="fill:#ffffff;"/>
   </g>
   <g id="matplotlib.axis_5">
    <g id="xtick_5">
     <g id="line2d_21">
      <g>
       <use style="stroke:#000000;stroke-width:0.8;" x="375.502985" xlink:href="#m3818475c71" y="325.921635"/>
      </g>
     </g>
     <g id="text_21">
      <!-- 0 -->
      <g transform="translate(372.321735 340.520072)scale(0.1 -0.1)">
       <use xlink:href="#DejaVuSans-48"/>
      </g>
     </g>
    </g>
    <g id="xtick_6">
     <g id="line2d_22">
      <g>
       <use style="stroke:#000000;stroke-width:0.8;" x="448.572364" xlink:href="#m3818475c71" y="325.921635"/>
      </g>
     </g>
     <g id="text_22">
      <!-- 100 -->
      <g transform="translate(439.028614 340.520072)scale(0.1 -0.1)">
       <use xlink:href="#DejaVuSans-49"/>
       <use x="63.623047" xlink:href="#DejaVuSans-48"/>
       <use x="127.246094" xlink:href="#DejaVuSans-48"/>
      </g>
     </g>
    </g>
   </g>
   <g id="matplotlib.axis_6">
    <g id="ytick_15">
     <g id="line2d_23">
      <g>
       <use style="stroke:#000000;stroke-width:0.8;" x="371.886051" xlink:href="#m442ddb1741" y="297.701894"/>
      </g>
     </g>
     <g id="text_23">
      <!-- 1.0 -->
      <defs>
       <path d="M 10.6875 12.40625 
L 21 12.40625 
L 21 0 
L 10.6875 0 
z
" id="DejaVuSans-46"/>
      </defs>
      <g transform="translate(348.982926 301.501113)scale(0.1 -0.1)">
       <use xlink:href="#DejaVuSans-49"/>
       <use x="63.623047" xlink:href="#DejaVuSans-46"/>
       <use x="95.410156" xlink:href="#DejaVuSans-48"/>
      </g>
     </g>
    </g>
    <g id="ytick_16">
     <g id="line2d_24">
      <g>
       <use style="stroke:#000000;stroke-width:0.8;" x="371.886051" xlink:href="#m442ddb1741" y="237.054027"/>
      </g>
     </g>
     <g id="text_24">
      <!-- 1.5 -->
      <g transform="translate(348.982926 240.853246)scale(0.1 -0.1)">
       <use xlink:href="#DejaVuSans-49"/>
       <use x="63.623047" xlink:href="#DejaVuSans-46"/>
       <use x="95.410156" xlink:href="#DejaVuSans-53"/>
      </g>
     </g>
    </g>
    <g id="ytick_17">
     <g id="line2d_25">
      <g>
       <use style="stroke:#000000;stroke-width:0.8;" x="371.886051" xlink:href="#m442ddb1741" y="176.406161"/>
      </g>
     </g>
     <g id="text_25">
      <!-- 2.0 -->
      <g transform="translate(348.982926 180.205379)scale(0.1 -0.1)">
       <use xlink:href="#DejaVuSans-50"/>
       <use x="63.623047" xlink:href="#DejaVuSans-46"/>
       <use x="95.410156" xlink:href="#DejaVuSans-48"/>
      </g>
     </g>
    </g>
    <g id="ytick_18">
     <g id="line2d_26">
      <g>
       <use style="stroke:#000000;stroke-width:0.8;" x="371.886051" xlink:href="#m442ddb1741" y="115.758294"/>
      </g>
     </g>
     <g id="text_26">
      <!-- 2.5 -->
      <g transform="translate(348.982926 119.557513)scale(0.1 -0.1)">
       <use xlink:href="#DejaVuSans-50"/>
       <use x="63.623047" xlink:href="#DejaVuSans-46"/>
       <use x="95.410156" xlink:href="#DejaVuSans-53"/>
      </g>
     </g>
    </g>
    <g id="ytick_19">
     <g id="line2d_27">
      <g>
       <use style="stroke:#000000;stroke-width:0.8;" x="371.886051" xlink:href="#m442ddb1741" y="55.110427"/>
      </g>
     </g>
     <g id="text_27">
      <!-- 3.0 -->
      <defs>
       <path d="M 40.578125 39.3125 
Q 47.65625 37.796875 51.625 33 
Q 55.609375 28.21875 55.609375 21.1875 
Q 55.609375 10.40625 48.1875 4.484375 
Q 40.765625 -1.421875 27.09375 -1.421875 
Q 22.515625 -1.421875 17.65625 -0.515625 
Q 12.796875 0.390625 7.625 2.203125 
L 7.625 11.71875 
Q 11.71875 9.328125 16.59375 8.109375 
Q 21.484375 6.890625 26.8125 6.890625 
Q 36.078125 6.890625 40.9375 10.546875 
Q 45.796875 14.203125 45.796875 21.1875 
Q 45.796875 27.640625 41.28125 31.265625 
Q 36.765625 34.90625 28.71875 34.90625 
L 20.21875 34.90625 
L 20.21875 43.015625 
L 29.109375 43.015625 
Q 36.375 43.015625 40.234375 45.921875 
Q 44.09375 48.828125 44.09375 54.296875 
Q 44.09375 59.90625 40.109375 62.90625 
Q 36.140625 65.921875 28.71875 65.921875 
Q 24.65625 65.921875 20.015625 65.03125 
Q 15.375 64.15625 9.8125 62.3125 
L 9.8125 71.09375 
Q 15.4375 72.65625 20.34375 73.4375 
Q 25.25 74.21875 29.59375 74.21875 
Q 40.828125 74.21875 47.359375 69.109375 
Q 53.90625 64.015625 53.90625 55.328125 
Q 53.90625 49.265625 50.4375 45.09375 
Q 46.96875 40.921875 40.578125 39.3125 
z
" id="DejaVuSans-51"/>
      </defs>
      <g transform="translate(348.982926 58.909646)scale(0.1 -0.1)">
       <use xlink:href="#DejaVuSans-51"/>
       <use x="63.623047" xlink:href="#DejaVuSans-46"/>
       <use x="95.410156" xlink:href="#DejaVuSans-48"/>
      </g>
     </g>
    </g>
   </g>
   <g id="line2d_28">
    <path clip-path="url(#p61dbe6ab24)" d="M 375.502985 32.109423 
L 376.233679 66.85689 
L 376.964373 93.318898 
L 377.695067 145.501992 
L 378.42576 164.332015 
L 379.156454 180.275074 
L 379.887148 193.187286 
L 380.617842 202.846708 
L 381.348536 213.195058 
L 382.079229 222.450889 
L 382.809923 230.089512 
L 383.540617 236.433347 
L 384.271311 241.090458 
L 385.002005 244.105014 
L 385.732698 242.3705 
L 386.463392 236.905617 
L 387.194086 229.94962 
L 387.92478 223.247883 
L 388.655473 217.24059 
L 389.386167 211.910549 
L 390.116861 209.109742 
L 390.847555 211.019116 
L 391.578249 215.426746 
L 392.308942 220.482629 
L 393.039636 225.900408 
L 393.77033 231.330526 
L 394.501024 239.016617 
L 395.231718 247.181959 
L 395.962411 254.186928 
L 396.693105 260.535608 
L 397.423799 268.077723 
L 398.154493 275.425351 
L 398.885187 282.513529 
L 399.61588 285.700014 
L 400.346574 285.193625 
L 401.077268 280.927807 
L 401.807962 273.840983 
L 402.538655 262.41692 
L 403.269349 250.915993 
L 404.000043 241.379793 
L 404.730737 236.185682 
L 405.461431 234.758216 
L 406.192124 238.686362 
L 406.922818 246.087556 
L 407.653512 257.085378 
L 408.384206 268.749622 
L 409.1149 279.706582 
L 409.845593 290.205336 
L 410.576287 302.239669 
L 411.306981 309.806358 
L 412.037675 311.930577 
L 412.768368 307.600247 
L 413.499062 298.074808 
L 414.229756 284.355148 
L 414.96045 265.264845 
L 415.691144 238.877711 
L 416.421837 218.850164 
L 417.152531 207.160161 
L 417.883225 202.767082 
L 418.613919 203.56341 
L 419.344613 208.251204 
L 420.075306 216.767446 
L 420.806 230.135799 
L 421.536694 241.726538 
L 422.267388 251.108175 
L 422.998082 257.704278 
L 423.728775 261.733534 
L 424.459469 262.803752 
L 425.190163 260.09574 
L 425.920857 253.363528 
L 426.65155 246.118438 
L 427.382244 238.566029 
L 428.112938 232.454775 
L 428.843632 227.933123 
L 429.574326 225.372471 
L 430.305019 225.91515 
L 431.035713 228.072005 
L 431.766407 231.029854 
L 432.497101 235.608447 
L 433.227795 241.008068 
L 433.958488 247.1405 
L 434.689182 251.475724 
L 435.419876 252.299255 
L 436.15057 251.308286 
L 436.881263 248.374888 
L 437.611957 242.205534 
L 438.342651 232.634718 
L 439.073345 220.109438 
L 439.804039 211.489382 
L 440.534732 207.922 
L 441.265426 207.920989 
L 441.99612 210.888254 
L 442.726814 217.181598 
L 443.457508 227.226941 
L 444.188201 239.805972 
L 444.918895 251.711885 
L 445.649589 262.723863 
L 446.380283 272.651093 
L 447.110977 279.493749 
L 447.84167 285.501508 
" style="fill:none;stroke:#ff0000;stroke-linecap:square;stroke-width:1.5;"/>
   </g>
   <g id="patch_213">
    <path d="M 371.886051 325.921635 
L 371.886051 18.118365 
" style="fill:none;stroke:#000000;stroke-linecap:square;stroke-linejoin:miter;stroke-width:0.8;"/>
   </g>
   <g id="patch_214">
    <path d="M 451.458605 325.921635 
L 451.458605 18.118365 
" style="fill:none;stroke:#000000;stroke-linecap:square;stroke-linejoin:miter;stroke-width:0.8;"/>
   </g>
   <g id="patch_215">
    <path d="M 371.886051 325.921635 
L 451.458605 325.921635 
" style="fill:none;stroke:#000000;stroke-linecap:square;stroke-linejoin:miter;stroke-width:0.8;"/>
   </g>
   <g id="patch_216">
    <path d="M 371.886051 18.118365 
L 451.458605 18.118365 
" style="fill:none;stroke:#000000;stroke-linecap:square;stroke-linejoin:miter;stroke-width:0.8;"/>
   </g>
   <g id="text_28">
    <!-- r0 - GO - (data) -->
    <defs>
     <path d="M 41.109375 46.296875 
Q 39.59375 47.171875 37.8125 47.578125 
Q 36.03125 48 33.890625 48 
Q 26.265625 48 22.1875 43.046875 
Q 18.109375 38.09375 18.109375 28.8125 
L 18.109375 0 
L 9.078125 0 
L 9.078125 54.6875 
L 18.109375 54.6875 
L 18.109375 46.1875 
Q 20.953125 51.171875 25.484375 53.578125 
Q 30.03125 56 36.53125 56 
Q 37.453125 56 38.578125 55.875 
Q 39.703125 55.765625 41.0625 55.515625 
z
" id="DejaVuSans-114"/>
    </defs>
    <g transform="translate(365.862328 12.118365)scale(0.12 -0.12)">
     <use xlink:href="#DejaVuSans-114"/>
     <use x="41.113281" xlink:href="#DejaVuSans-48"/>
     <use x="104.736328" xlink:href="#DejaVuSans-32"/>
     <use x="136.523438" xlink:href="#DejaVuSans-45"/>
     <use x="172.607422" xlink:href="#DejaVuSans-32"/>
     <use x="204.394531" xlink:href="#DejaVuSans-71"/>
     <use x="281.884766" xlink:href="#DejaVuSans-79"/>
     <use x="360.595703" xlink:href="#DejaVuSans-32"/>
     <use x="392.382812" xlink:href="#DejaVuSans-45"/>
     <use x="428.466797" xlink:href="#DejaVuSans-32"/>
     <use x="460.253906" xlink:href="#DejaVuSans-40"/>
     <use x="499.267578" xlink:href="#DejaVuSans-100"/>
     <use x="562.744141" xlink:href="#DejaVuSans-97"/>
     <use x="624.023438" xlink:href="#DejaVuSans-116"/>
     <use x="663.232422" xlink:href="#DejaVuSans-97"/>
     <use x="724.511719" xlink:href="#DejaVuSans-41"/>
    </g>
   </g>
  </g>
 </g>
 <defs>
  <clipPath id="pfe5e6a1429">
   <rect height="307.80327" width="79.572553" x="54.449957" y="18.118365"/>
  </clipPath>
  <clipPath id="p95039e7cfe">
   <rect height="307.80327" width="79.572553" x="227.4413" y="18.118365"/>
  </clipPath>
  <clipPath id="p61dbe6ab24">
   <rect height="307.80327" width="79.572553" x="371.886051" y="18.118365"/>
  </clipPath>
 </defs>
</svg>
