<?xml version="1.0" encoding="utf-8" standalone="no"?>
<!DOCTYPE svg PUBLIC "-//W3C//DTD SVG 1.1//EN"
  "http://www.w3.org/Graphics/SVG/1.1/DTD/svg11.dtd">
<!-- Created with matplotlib (https://matplotlib.org/) -->
<svg height="345.6pt" version="1.1" viewBox="0 0 460.8 345.6" width="460.8pt" xmlns="http://www.w3.org/2000/svg" xmlns:xlink="http://www.w3.org/1999/xlink">
 <defs>
  <style type="text/css">
*{stroke-linecap:butt;stroke-linejoin:round;}
  </style>
 </defs>
 <g id="figure_1">
  <g id="patch_1">
   <path d="M 0 345.6 
L 460.8 345.6 
L 460.8 0 
L 0 0 
z
" style="fill:#ffffff;"/>
  </g>
  <g id="axes_1">
   <g id="patch_2">
    <path d="M 53.357896 325.921635 
L 136.094833 325.921635 
L 136.094833 18.118365 
L 53.357896 18.118365 
z
" style="fill:#ffffff;"/>
   </g>
   <g id="patch_3">
    <path clip-path="url(#pdb62dcea65)" d="M 57.118666 325.921635 
L 57.774138 325.921635 
L 57.774138 325.913349 
L 57.118666 325.913349 
z
" style="fill:#1f77b4;"/>
   </g>
   <g id="patch_4">
    <path clip-path="url(#pdb62dcea65)" d="M 57.938006 325.921635 
L 58.593478 325.921635 
L 58.593478 325.913349 
L 57.938006 325.913349 
z
" style="fill:#1f77b4;"/>
   </g>
   <g id="patch_5">
    <path clip-path="url(#pdb62dcea65)" d="M 58.757346 325.921635 
L 59.412817 325.921635 
L 59.412817 325.888489 
L 58.757346 325.888489 
z
" style="fill:#1f77b4;"/>
   </g>
   <g id="patch_6">
    <path clip-path="url(#pdb62dcea65)" d="M 59.576685 325.921635 
L 60.232157 325.921635 
L 60.232157 325.888489 
L 59.576685 325.888489 
z
" style="fill:#1f77b4;"/>
   </g>
   <g id="patch_7">
    <path clip-path="url(#pdb62dcea65)" d="M 60.396025 325.921635 
L 61.051497 325.921635 
L 61.051497 325.880203 
L 60.396025 325.880203 
z
" style="fill:#1f77b4;"/>
   </g>
   <g id="patch_8">
    <path clip-path="url(#pdb62dcea65)" d="M 61.215365 325.921635 
L 61.870837 325.921635 
L 61.870837 325.867773 
L 61.215365 325.867773 
z
" style="fill:#1f77b4;"/>
   </g>
   <g id="patch_9">
    <path clip-path="url(#pdb62dcea65)" d="M 62.034705 325.921635 
L 62.690177 325.921635 
L 62.690177 325.86363 
L 62.034705 325.86363 
z
" style="fill:#1f77b4;"/>
   </g>
   <g id="patch_10">
    <path clip-path="url(#pdb62dcea65)" d="M 62.854045 325.921635 
L 63.509517 325.921635 
L 63.509517 325.855343 
L 62.854045 325.855343 
z
" style="fill:#1f77b4;"/>
   </g>
   <g id="patch_11">
    <path clip-path="url(#pdb62dcea65)" d="M 63.673385 325.921635 
L 64.328856 325.921635 
L 64.328856 325.826341 
L 63.673385 325.826341 
z
" style="fill:#1f77b4;"/>
   </g>
   <g id="patch_12">
    <path clip-path="url(#pdb62dcea65)" d="M 64.492724 325.921635 
L 65.148196 325.921635 
L 65.148196 325.793195 
L 64.492724 325.793195 
z
" style="fill:#1f77b4;"/>
   </g>
   <g id="patch_13">
    <path clip-path="url(#pdb62dcea65)" d="M 65.312064 325.921635 
L 65.967536 325.921635 
L 65.967536 325.706187 
L 65.312064 325.706187 
z
" style="fill:#1f77b4;"/>
   </g>
   <g id="patch_14">
    <path clip-path="url(#pdb62dcea65)" d="M 66.131404 325.921635 
L 66.786876 325.921635 
L 66.786876 325.627465 
L 66.131404 325.627465 
z
" style="fill:#1f77b4;"/>
   </g>
   <g id="patch_15">
    <path clip-path="url(#pdb62dcea65)" d="M 66.950744 325.921635 
L 67.606216 325.921635 
L 67.606216 325.586033 
L 66.950744 325.586033 
z
" style="fill:#1f77b4;"/>
   </g>
   <g id="patch_16">
    <path clip-path="url(#pdb62dcea65)" d="M 67.770084 325.921635 
L 68.425556 325.921635 
L 68.425556 325.55703 
L 67.770084 325.55703 
z
" style="fill:#1f77b4;"/>
   </g>
   <g id="patch_17">
    <path clip-path="url(#pdb62dcea65)" d="M 68.589424 325.921635 
L 69.244896 325.921635 
L 69.244896 325.523884 
L 68.589424 325.523884 
z
" style="fill:#1f77b4;"/>
   </g>
   <g id="patch_18">
    <path clip-path="url(#pdb62dcea65)" d="M 69.408763 325.921635 
L 70.064235 325.921635 
L 70.064235 325.370585 
L 69.408763 325.370585 
z
" style="fill:#1f77b4;"/>
   </g>
   <g id="patch_19">
    <path clip-path="url(#pdb62dcea65)" d="M 70.228103 325.921635 
L 70.883575 325.921635 
L 70.883575 325.208998 
L 70.228103 325.208998 
z
" style="fill:#1f77b4;"/>
   </g>
   <g id="patch_20">
    <path clip-path="url(#pdb62dcea65)" d="M 71.047443 325.921635 
L 71.702915 325.921635 
L 71.702915 324.968691 
L 71.047443 324.968691 
z
" style="fill:#1f77b4;"/>
   </g>
   <g id="patch_21">
    <path clip-path="url(#pdb62dcea65)" d="M 71.866783 325.921635 
L 72.522255 325.921635 
L 72.522255 324.790531 
L 71.866783 324.790531 
z
" style="fill:#1f77b4;"/>
   </g>
   <g id="patch_22">
    <path clip-path="url(#pdb62dcea65)" d="M 72.686123 325.921635 
L 73.341595 325.921635 
L 73.341595 324.707667 
L 72.686123 324.707667 
z
" style="fill:#1f77b4;"/>
   </g>
   <g id="patch_23">
    <path clip-path="url(#pdb62dcea65)" d="M 73.505463 325.921635 
L 74.160935 325.921635 
L 74.160935 324.496362 
L 73.505463 324.496362 
z
" style="fill:#1f77b4;"/>
   </g>
   <g id="patch_24">
    <path clip-path="url(#pdb62dcea65)" d="M 74.324803 325.921635 
L 74.980274 325.921635 
L 74.980274 324.272627 
L 74.324803 324.272627 
z
" style="fill:#1f77b4;"/>
   </g>
   <g id="patch_25">
    <path clip-path="url(#pdb62dcea65)" d="M 75.144142 325.921635 
L 75.799614 325.921635 
L 75.799614 324.077895 
L 75.144142 324.077895 
z
" style="fill:#1f77b4;"/>
   </g>
   <g id="patch_26">
    <path clip-path="url(#pdb62dcea65)" d="M 75.963482 325.921635 
L 76.618954 325.921635 
L 76.618954 323.941168 
L 75.963482 323.941168 
z
" style="fill:#1f77b4;"/>
   </g>
   <g id="patch_27">
    <path clip-path="url(#pdb62dcea65)" d="M 76.782822 325.921635 
L 77.438294 325.921635 
L 77.438294 323.311396 
L 76.782822 323.311396 
z
" style="fill:#1f77b4;"/>
   </g>
   <g id="patch_28">
    <path clip-path="url(#pdb62dcea65)" d="M 77.602162 325.921635 
L 78.257634 325.921635 
L 78.257634 323.042086 
L 77.602162 323.042086 
z
" style="fill:#1f77b4;"/>
   </g>
   <g id="patch_29">
    <path clip-path="url(#pdb62dcea65)" d="M 78.421502 325.921635 
L 79.076974 325.921635 
L 79.076974 322.619475 
L 78.421502 322.619475 
z
" style="fill:#1f77b4;"/>
   </g>
   <g id="patch_30">
    <path clip-path="url(#pdb62dcea65)" d="M 79.240842 325.921635 
L 79.896313 325.921635 
L 79.896313 321.612669 
L 79.240842 321.612669 
z
" style="fill:#1f77b4;"/>
   </g>
   <g id="patch_31">
    <path clip-path="url(#pdb62dcea65)" d="M 80.060181 325.921635 
L 80.715653 325.921635 
L 80.715653 320.929035 
L 80.060181 320.929035 
z
" style="fill:#1f77b4;"/>
   </g>
   <g id="patch_32">
    <path clip-path="url(#pdb62dcea65)" d="M 80.879521 325.921635 
L 81.534993 325.921635 
L 81.534993 320.452563 
L 80.879521 320.452563 
z
" style="fill:#1f77b4;"/>
   </g>
   <g id="patch_33">
    <path clip-path="url(#pdb62dcea65)" d="M 81.698861 325.921635 
L 82.354333 325.921635 
L 82.354333 320.137677 
L 81.698861 320.137677 
z
" style="fill:#1f77b4;"/>
   </g>
   <g id="patch_34">
    <path clip-path="url(#pdb62dcea65)" d="M 82.518201 325.921635 
L 83.173673 325.921635 
L 83.173673 319.275884 
L 82.518201 319.275884 
z
" style="fill:#1f77b4;"/>
   </g>
   <g id="patch_35">
    <path clip-path="url(#pdb62dcea65)" d="M 83.337541 325.921635 
L 83.993013 325.921635 
L 83.993013 318.641968 
L 83.337541 318.641968 
z
" style="fill:#1f77b4;"/>
   </g>
   <g id="patch_36">
    <path clip-path="url(#pdb62dcea65)" d="M 84.156881 325.921635 
L 84.812352 325.921635 
L 84.812352 317.83818 
L 84.156881 317.83818 
z
" style="fill:#1f77b4;"/>
   </g>
   <g id="patch_37">
    <path clip-path="url(#pdb62dcea65)" d="M 84.97622 325.921635 
L 85.631692 325.921635 
L 85.631692 317.200122 
L 84.97622 317.200122 
z
" style="fill:#1f77b4;"/>
   </g>
   <g id="patch_38">
    <path clip-path="url(#pdb62dcea65)" d="M 85.79556 325.921635 
L 86.451032 325.921635 
L 86.451032 316.71122 
L 85.79556 316.71122 
z
" style="fill:#1f77b4;"/>
   </g>
   <g id="patch_39">
    <path clip-path="url(#pdb62dcea65)" d="M 86.6149 325.921635 
L 87.270372 325.921635 
L 87.270372 315.936435 
L 86.6149 315.936435 
z
" style="fill:#1f77b4;"/>
   </g>
   <g id="patch_40">
    <path clip-path="url(#pdb62dcea65)" d="M 87.43424 325.921635 
L 88.089712 325.921635 
L 88.089712 315.447533 
L 87.43424 315.447533 
z
" style="fill:#1f77b4;"/>
   </g>
   <g id="patch_41">
    <path clip-path="url(#pdb62dcea65)" d="M 88.25358 325.921635 
L 88.909052 325.921635 
L 88.909052 314.304 
L 88.25358 314.304 
z
" style="fill:#1f77b4;"/>
   </g>
   <g id="patch_42">
    <path clip-path="url(#pdb62dcea65)" d="M 89.07292 325.921635 
L 89.728392 325.921635 
L 89.728392 312.70471 
L 89.07292 312.70471 
z
" style="fill:#1f77b4;"/>
   </g>
   <g id="patch_43">
    <path clip-path="url(#pdb62dcea65)" d="M 89.892259 325.921635 
L 90.547731 325.921635 
L 90.547731 311.395448 
L 89.892259 311.395448 
z
" style="fill:#1f77b4;"/>
   </g>
   <g id="patch_44">
    <path clip-path="url(#pdb62dcea65)" d="M 90.711599 325.921635 
L 91.367071 325.921635 
L 91.367071 310.15662 
L 90.711599 310.15662 
z
" style="fill:#1f77b4;"/>
   </g>
   <g id="patch_45">
    <path clip-path="url(#pdb62dcea65)" d="M 91.530939 325.921635 
L 92.186411 325.921635 
L 92.186411 309.182959 
L 91.530939 309.182959 
z
" style="fill:#1f77b4;"/>
   </g>
   <g id="patch_46">
    <path clip-path="url(#pdb62dcea65)" d="M 92.350279 325.921635 
L 93.005751 325.921635 
L 93.005751 308.408174 
L 92.350279 308.408174 
z
" style="fill:#1f77b4;"/>
   </g>
   <g id="patch_47">
    <path clip-path="url(#pdb62dcea65)" d="M 93.169619 325.921635 
L 93.825091 325.921635 
L 93.825091 307.152773 
L 93.169619 307.152773 
z
" style="fill:#1f77b4;"/>
   </g>
   <g id="patch_48">
    <path clip-path="url(#pdb62dcea65)" d="M 93.988959 325.921635 
L 94.644431 325.921635 
L 94.644431 305.089442 
L 93.988959 305.089442 
z
" style="fill:#1f77b4;"/>
   </g>
   <g id="patch_49">
    <path clip-path="url(#pdb62dcea65)" d="M 94.808299 325.921635 
L 95.46377 325.921635 
L 95.46377 303.593733 
L 94.808299 303.593733 
z
" style="fill:#1f77b4;"/>
   </g>
   <g id="patch_50">
    <path clip-path="url(#pdb62dcea65)" d="M 95.627638 325.921635 
L 96.28311 325.921635 
L 96.28311 301.43925 
L 95.627638 301.43925 
z
" style="fill:#1f77b4;"/>
   </g>
   <g id="patch_51">
    <path clip-path="url(#pdb62dcea65)" d="M 96.446978 325.921635 
L 97.10245 325.921635 
L 97.10245 297.89264 
L 96.446978 297.89264 
z
" style="fill:#1f77b4;"/>
   </g>
   <g id="patch_52">
    <path clip-path="url(#pdb62dcea65)" d="M 97.266318 325.921635 
L 97.92179 325.921635 
L 97.92179 294.43718 
L 97.266318 294.43718 
z
" style="fill:#1f77b4;"/>
   </g>
   <g id="patch_53">
    <path clip-path="url(#pdb62dcea65)" d="M 98.085658 325.921635 
L 98.74113 325.921635 
L 98.74113 292.179116 
L 98.085658 292.179116 
z
" style="fill:#1f77b4;"/>
   </g>
   <g id="patch_54">
    <path clip-path="url(#pdb62dcea65)" d="M 98.904998 325.921635 
L 99.56047 325.921635 
L 99.56047 290.5964 
L 98.904998 290.5964 
z
" style="fill:#1f77b4;"/>
   </g>
   <g id="patch_55">
    <path clip-path="url(#pdb62dcea65)" d="M 99.724338 325.921635 
L 100.379809 325.921635 
L 100.379809 288.168463 
L 99.724338 288.168463 
z
" style="fill:#1f77b4;"/>
   </g>
   <g id="patch_56">
    <path clip-path="url(#pdb62dcea65)" d="M 100.543677 325.921635 
L 101.199149 325.921635 
L 101.199149 285.313773 
L 100.543677 285.313773 
z
" style="fill:#1f77b4;"/>
   </g>
   <g id="patch_57">
    <path clip-path="url(#pdb62dcea65)" d="M 101.363017 325.921635 
L 102.018489 325.921635 
L 102.018489 281.427418 
L 101.363017 281.427418 
z
" style="fill:#1f77b4;"/>
   </g>
   <g id="patch_58">
    <path clip-path="url(#pdb62dcea65)" d="M 102.182357 325.921635 
L 102.837829 325.921635 
L 102.837829 277.893237 
L 102.182357 277.893237 
z
" style="fill:#1f77b4;"/>
   </g>
   <g id="patch_59">
    <path clip-path="url(#pdb62dcea65)" d="M 103.001697 325.921635 
L 103.657169 325.921635 
L 103.657169 274.164324 
L 103.001697 274.164324 
z
" style="fill:#1f77b4;"/>
   </g>
   <g id="patch_60">
    <path clip-path="url(#pdb62dcea65)" d="M 103.821037 325.921635 
L 104.476509 325.921635 
L 104.476509 271.073469 
L 103.821037 271.073469 
z
" style="fill:#1f77b4;"/>
   </g>
   <g id="patch_61">
    <path clip-path="url(#pdb62dcea65)" d="M 104.640377 325.921635 
L 105.295848 325.921635 
L 105.295848 267.095962 
L 104.640377 267.095962 
z
" style="fill:#1f77b4;"/>
   </g>
   <g id="patch_62">
    <path clip-path="url(#pdb62dcea65)" d="M 105.459716 325.921635 
L 106.115188 325.921635 
L 106.115188 263.300758 
L 105.459716 263.300758 
z
" style="fill:#1f77b4;"/>
   </g>
   <g id="patch_63">
    <path clip-path="url(#pdb62dcea65)" d="M 106.279056 325.921635 
L 106.934528 325.921635 
L 106.934528 259.389542 
L 106.279056 259.389542 
z
" style="fill:#1f77b4;"/>
   </g>
   <g id="patch_64">
    <path clip-path="url(#pdb62dcea65)" d="M 107.098396 325.921635 
L 107.753868 325.921635 
L 107.753868 254.608247 
L 107.098396 254.608247 
z
" style="fill:#1f77b4;"/>
   </g>
   <g id="patch_65">
    <path clip-path="url(#pdb62dcea65)" d="M 107.917736 325.921635 
L 108.573208 325.921635 
L 108.573208 248.165514 
L 107.917736 248.165514 
z
" style="fill:#1f77b4;"/>
   </g>
   <g id="patch_66">
    <path clip-path="url(#pdb62dcea65)" d="M 108.737076 325.921635 
L 109.392548 325.921635 
L 109.392548 238.122309 
L 108.737076 238.122309 
z
" style="fill:#1f77b4;"/>
   </g>
   <g id="patch_67">
    <path clip-path="url(#pdb62dcea65)" d="M 109.556416 325.921635 
L 110.211887 325.921635 
L 110.211887 231.513847 
L 109.556416 231.513847 
z
" style="fill:#1f77b4;"/>
   </g>
   <g id="patch_68">
    <path clip-path="url(#pdb62dcea65)" d="M 110.375755 325.921635 
L 111.031227 325.921635 
L 111.031227 225.332138 
L 110.375755 225.332138 
z
" style="fill:#1f77b4;"/>
   </g>
   <g id="patch_69">
    <path clip-path="url(#pdb62dcea65)" d="M 111.195095 325.921635 
L 111.850567 325.921635 
L 111.850567 217.596715 
L 111.195095 217.596715 
z
" style="fill:#1f77b4;"/>
   </g>
   <g id="patch_70">
    <path clip-path="url(#pdb62dcea65)" d="M 112.014435 325.921635 
L 112.669907 325.921635 
L 112.669907 209.998019 
L 112.014435 209.998019 
z
" style="fill:#1f77b4;"/>
   </g>
   <g id="patch_71">
    <path clip-path="url(#pdb62dcea65)" d="M 112.833775 325.921635 
L 113.489247 325.921635 
L 113.489247 199.627498 
L 112.833775 199.627498 
z
" style="fill:#1f77b4;"/>
   </g>
   <g id="patch_72">
    <path clip-path="url(#pdb62dcea65)" d="M 113.653115 325.921635 
L 114.308587 325.921635 
L 114.308587 190.769258 
L 113.653115 190.769258 
z
" style="fill:#1f77b4;"/>
   </g>
   <g id="patch_73">
    <path clip-path="url(#pdb62dcea65)" d="M 114.472455 325.921635 
L 115.127927 325.921635 
L 115.127927 182.404064 
L 114.472455 182.404064 
z
" style="fill:#1f77b4;"/>
   </g>
   <g id="patch_74">
    <path clip-path="url(#pdb62dcea65)" d="M 115.291794 325.921635 
L 115.947266 325.921635 
L 115.947266 179.677814 
L 115.291794 179.677814 
z
" style="fill:#1f77b4;"/>
   </g>
   <g id="patch_75">
    <path clip-path="url(#pdb62dcea65)" d="M 116.111134 325.921635 
L 116.766606 325.921635 
L 116.766606 174.175596 
L 116.111134 174.175596 
z
" style="fill:#1f77b4;"/>
   </g>
   <g id="patch_76">
    <path clip-path="url(#pdb62dcea65)" d="M 116.930474 325.921635 
L 117.585946 325.921635 
L 117.585946 167.757722 
L 116.930474 167.757722 
z
" style="fill:#1f77b4;"/>
   </g>
   <g id="patch_77">
    <path clip-path="url(#pdb62dcea65)" d="M 117.749814 325.921635 
L 118.405286 325.921635 
L 118.405286 157.586077 
L 117.749814 157.586077 
z
" style="fill:#1f77b4;"/>
   </g>
   <g id="patch_78">
    <path clip-path="url(#pdb62dcea65)" d="M 118.569154 325.921635 
L 119.224626 325.921635 
L 119.224626 146.46563 
L 118.569154 146.46563 
z
" style="fill:#1f77b4;"/>
   </g>
   <g id="patch_79">
    <path clip-path="url(#pdb62dcea65)" d="M 119.388494 325.921635 
L 120.043966 325.921635 
L 120.043966 137.528668 
L 119.388494 137.528668 
z
" style="fill:#1f77b4;"/>
   </g>
   <g id="patch_80">
    <path clip-path="url(#pdb62dcea65)" d="M 120.207834 325.921635 
L 120.863305 325.921635 
L 120.863305 128.732577 
L 120.207834 128.732577 
z
" style="fill:#1f77b4;"/>
   </g>
   <g id="patch_81">
    <path clip-path="url(#pdb62dcea65)" d="M 121.027173 325.921635 
L 121.682645 325.921635 
L 121.682645 121.365903 
L 121.027173 121.365903 
z
" style="fill:#1f77b4;"/>
   </g>
   <g id="patch_82">
    <path clip-path="url(#pdb62dcea65)" d="M 121.846513 325.921635 
L 122.501985 325.921635 
L 122.501985 110.18745 
L 121.846513 110.18745 
z
" style="fill:#1f77b4;"/>
   </g>
   <g id="patch_83">
    <path clip-path="url(#pdb62dcea65)" d="M 122.665853 325.921635 
L 123.321325 325.921635 
L 123.321325 104.225333 
L 122.665853 104.225333 
z
" style="fill:#1f77b4;"/>
   </g>
   <g id="patch_84">
    <path clip-path="url(#pdb62dcea65)" d="M 123.485193 325.921635 
L 124.140665 325.921635 
L 124.140665 95.226223 
L 123.485193 95.226223 
z
" style="fill:#1f77b4;"/>
   </g>
   <g id="patch_85">
    <path clip-path="url(#pdb62dcea65)" d="M 124.304533 325.921635 
L 124.960005 325.921635 
L 124.960005 87.250493 
L 124.304533 87.250493 
z
" style="fill:#1f77b4;"/>
   </g>
   <g id="patch_86">
    <path clip-path="url(#pdb62dcea65)" d="M 125.123873 325.921635 
L 125.779344 325.921635 
L 125.779344 82.054874 
L 125.123873 82.054874 
z
" style="fill:#1f77b4;"/>
   </g>
   <g id="patch_87">
    <path clip-path="url(#pdb62dcea65)" d="M 125.943212 325.921635 
L 126.598684 325.921635 
L 126.598684 77.948927 
L 125.943212 77.948927 
z
" style="fill:#1f77b4;"/>
   </g>
   <g id="patch_88">
    <path clip-path="url(#pdb62dcea65)" d="M 126.762552 325.921635 
L 127.418024 325.921635 
L 127.418024 74.874645 
L 126.762552 74.874645 
z
" style="fill:#1f77b4;"/>
   </g>
   <g id="patch_89">
    <path clip-path="url(#pdb62dcea65)" d="M 127.581892 325.921635 
L 128.237364 325.921635 
L 128.237364 66.095127 
L 127.581892 66.095127 
z
" style="fill:#1f77b4;"/>
   </g>
   <g id="patch_90">
    <path clip-path="url(#pdb62dcea65)" d="M 128.401232 325.921635 
L 129.056704 325.921635 
L 129.056704 57.709216 
L 128.401232 57.709216 
z
" style="fill:#1f77b4;"/>
   </g>
   <g id="patch_91">
    <path clip-path="url(#pdb62dcea65)" d="M 129.220572 325.921635 
L 129.876044 325.921635 
L 129.876044 52.090987 
L 129.220572 52.090987 
z
" style="fill:#1f77b4;"/>
   </g>
   <g id="patch_92">
    <path clip-path="url(#pdb62dcea65)" d="M 130.039912 325.921635 
L 130.695383 325.921635 
L 130.695383 42.10993 
L 130.039912 42.10993 
z
" style="fill:#1f77b4;"/>
   </g>
   <g id="patch_93">
    <path clip-path="url(#pdb62dcea65)" d="M 130.859251 325.921635 
L 131.514723 325.921635 
L 131.514723 37.249914 
L 130.859251 37.249914 
z
" style="fill:#1f77b4;"/>
   </g>
   <g id="patch_94">
    <path clip-path="url(#pdb62dcea65)" d="M 131.678591 325.921635 
L 132.334063 325.921635 
L 132.334063 35.650625 
L 131.678591 35.650625 
z
" style="fill:#1f77b4;"/>
   </g>
   <g id="matplotlib.axis_1">
    <g id="xtick_1">
     <g id="line2d_1">
      <defs>
       <path d="M 0 0 
L 0 3.5 
" id="m538f4dc37e" style="stroke:#000000;stroke-width:0.8;"/>
      </defs>
      <g>
       <use style="stroke:#000000;stroke-width:0.8;" x="57.446402" xlink:href="#m538f4dc37e" y="325.921635"/>
      </g>
     </g>
     <g id="text_1">
      <!-- 0 -->
      <defs>
       <path d="M 31.78125 66.40625 
Q 24.171875 66.40625 20.328125 58.90625 
Q 16.5 51.421875 16.5 36.375 
Q 16.5 21.390625 20.328125 13.890625 
Q 24.171875 6.390625 31.78125 6.390625 
Q 39.453125 6.390625 43.28125 13.890625 
Q 47.125 21.390625 47.125 36.375 
Q 47.125 51.421875 43.28125 58.90625 
Q 39.453125 66.40625 31.78125 66.40625 
z
M 31.78125 74.21875 
Q 44.046875 74.21875 50.515625 64.515625 
Q 56.984375 54.828125 56.984375 36.375 
Q 56.984375 17.96875 50.515625 8.265625 
Q 44.046875 -1.421875 31.78125 -1.421875 
Q 19.53125 -1.421875 13.0625 8.265625 
Q 6.59375 17.96875 6.59375 36.375 
Q 6.59375 54.828125 13.0625 64.515625 
Q 19.53125 74.21875 31.78125 74.21875 
z
" id="DejaVuSans-48"/>
      </defs>
      <g transform="translate(54.265152 340.520072)scale(0.1 -0.1)">
       <use xlink:href="#DejaVuSans-48"/>
      </g>
     </g>
    </g>
    <g id="xtick_2">
     <g id="line2d_2">
      <g>
       <use style="stroke:#000000;stroke-width:0.8;" x="98.413394" xlink:href="#m538f4dc37e" y="325.921635"/>
      </g>
     </g>
     <g id="text_2">
      <!-- 50 -->
      <defs>
       <path d="M 10.796875 72.90625 
L 49.515625 72.90625 
L 49.515625 64.59375 
L 19.828125 64.59375 
L 19.828125 46.734375 
Q 21.96875 47.46875 24.109375 47.828125 
Q 26.265625 48.1875 28.421875 48.1875 
Q 40.625 48.1875 47.75 41.5 
Q 54.890625 34.8125 54.890625 23.390625 
Q 54.890625 11.625 47.5625 5.09375 
Q 40.234375 -1.421875 26.90625 -1.421875 
Q 22.3125 -1.421875 17.546875 -0.640625 
Q 12.796875 0.140625 7.71875 1.703125 
L 7.71875 11.625 
Q 12.109375 9.234375 16.796875 8.0625 
Q 21.484375 6.890625 26.703125 6.890625 
Q 35.15625 6.890625 40.078125 11.328125 
Q 45.015625 15.765625 45.015625 23.390625 
Q 45.015625 31 40.078125 35.4375 
Q 35.15625 39.890625 26.703125 39.890625 
Q 22.75 39.890625 18.8125 39.015625 
Q 14.890625 38.140625 10.796875 36.28125 
z
" id="DejaVuSans-53"/>
      </defs>
      <g transform="translate(92.050894 340.520072)scale(0.1 -0.1)">
       <use xlink:href="#DejaVuSans-53"/>
       <use x="63.623047" xlink:href="#DejaVuSans-48"/>
      </g>
     </g>
    </g>
   </g>
   <g id="matplotlib.axis_2">
    <g id="ytick_1">
     <g id="line2d_3">
      <defs>
       <path d="M 0 0 
L -3.5 0 
" id="mbaf62544e5" style="stroke:#000000;stroke-width:0.8;"/>
      </defs>
      <g>
       <use style="stroke:#000000;stroke-width:0.8;" x="53.357896" xlink:href="#mbaf62544e5" y="325.921635"/>
      </g>
     </g>
     <g id="text_3">
      <!-- 0 -->
      <g transform="translate(39.995396 329.720854)scale(0.1 -0.1)">
       <use xlink:href="#DejaVuSans-48"/>
      </g>
     </g>
    </g>
    <g id="ytick_2">
     <g id="line2d_4">
      <g>
       <use style="stroke:#000000;stroke-width:0.8;" x="53.357896" xlink:href="#mbaf62544e5" y="284.489269"/>
      </g>
     </g>
     <g id="text_4">
      <!-- 10000 -->
      <defs>
       <path d="M 12.40625 8.296875 
L 28.515625 8.296875 
L 28.515625 63.921875 
L 10.984375 60.40625 
L 10.984375 69.390625 
L 28.421875 72.90625 
L 38.28125 72.90625 
L 38.28125 8.296875 
L 54.390625 8.296875 
L 54.390625 0 
L 12.40625 0 
z
" id="DejaVuSans-49"/>
      </defs>
      <g transform="translate(14.545396 288.288488)scale(0.1 -0.1)">
       <use xlink:href="#DejaVuSans-49"/>
       <use x="63.623047" xlink:href="#DejaVuSans-48"/>
       <use x="127.246094" xlink:href="#DejaVuSans-48"/>
       <use x="190.869141" xlink:href="#DejaVuSans-48"/>
       <use x="254.492188" xlink:href="#DejaVuSans-48"/>
      </g>
     </g>
    </g>
    <g id="ytick_3">
     <g id="line2d_5">
      <g>
       <use style="stroke:#000000;stroke-width:0.8;" x="53.357896" xlink:href="#mbaf62544e5" y="243.056904"/>
      </g>
     </g>
     <g id="text_5">
      <!-- 20000 -->
      <defs>
       <path d="M 19.1875 8.296875 
L 53.609375 8.296875 
L 53.609375 0 
L 7.328125 0 
L 7.328125 8.296875 
Q 12.9375 14.109375 22.625 23.890625 
Q 32.328125 33.6875 34.8125 36.53125 
Q 39.546875 41.84375 41.421875 45.53125 
Q 43.3125 49.21875 43.3125 52.78125 
Q 43.3125 58.59375 39.234375 62.25 
Q 35.15625 65.921875 28.609375 65.921875 
Q 23.96875 65.921875 18.8125 64.3125 
Q 13.671875 62.703125 7.8125 59.421875 
L 7.8125 69.390625 
Q 13.765625 71.78125 18.9375 73 
Q 24.125 74.21875 28.421875 74.21875 
Q 39.75 74.21875 46.484375 68.546875 
Q 53.21875 62.890625 53.21875 53.421875 
Q 53.21875 48.921875 51.53125 44.890625 
Q 49.859375 40.875 45.40625 35.40625 
Q 44.1875 33.984375 37.640625 27.21875 
Q 31.109375 20.453125 19.1875 8.296875 
z
" id="DejaVuSans-50"/>
      </defs>
      <g transform="translate(14.545396 246.856122)scale(0.1 -0.1)">
       <use xlink:href="#DejaVuSans-50"/>
       <use x="63.623047" xlink:href="#DejaVuSans-48"/>
       <use x="127.246094" xlink:href="#DejaVuSans-48"/>
       <use x="190.869141" xlink:href="#DejaVuSans-48"/>
       <use x="254.492188" xlink:href="#DejaVuSans-48"/>
      </g>
     </g>
    </g>
    <g id="ytick_4">
     <g id="line2d_6">
      <g>
       <use style="stroke:#000000;stroke-width:0.8;" x="53.357896" xlink:href="#mbaf62544e5" y="201.624538"/>
      </g>
     </g>
     <g id="text_6">
      <!-- 30000 -->
      <defs>
       <path d="M 40.578125 39.3125 
Q 47.65625 37.796875 51.625 33 
Q 55.609375 28.21875 55.609375 21.1875 
Q 55.609375 10.40625 48.1875 4.484375 
Q 40.765625 -1.421875 27.09375 -1.421875 
Q 22.515625 -1.421875 17.65625 -0.515625 
Q 12.796875 0.390625 7.625 2.203125 
L 7.625 11.71875 
Q 11.71875 9.328125 16.59375 8.109375 
Q 21.484375 6.890625 26.8125 6.890625 
Q 36.078125 6.890625 40.9375 10.546875 
Q 45.796875 14.203125 45.796875 21.1875 
Q 45.796875 27.640625 41.28125 31.265625 
Q 36.765625 34.90625 28.71875 34.90625 
L 20.21875 34.90625 
L 20.21875 43.015625 
L 29.109375 43.015625 
Q 36.375 43.015625 40.234375 45.921875 
Q 44.09375 48.828125 44.09375 54.296875 
Q 44.09375 59.90625 40.109375 62.90625 
Q 36.140625 65.921875 28.71875 65.921875 
Q 24.65625 65.921875 20.015625 65.03125 
Q 15.375 64.15625 9.8125 62.3125 
L 9.8125 71.09375 
Q 15.4375 72.65625 20.34375 73.4375 
Q 25.25 74.21875 29.59375 74.21875 
Q 40.828125 74.21875 47.359375 69.109375 
Q 53.90625 64.015625 53.90625 55.328125 
Q 53.90625 49.265625 50.4375 45.09375 
Q 46.96875 40.921875 40.578125 39.3125 
z
" id="DejaVuSans-51"/>
      </defs>
      <g transform="translate(14.545396 205.423757)scale(0.1 -0.1)">
       <use xlink:href="#DejaVuSans-51"/>
       <use x="63.623047" xlink:href="#DejaVuSans-48"/>
       <use x="127.246094" xlink:href="#DejaVuSans-48"/>
       <use x="190.869141" xlink:href="#DejaVuSans-48"/>
       <use x="254.492188" xlink:href="#DejaVuSans-48"/>
      </g>
     </g>
    </g>
    <g id="ytick_5">
     <g id="line2d_7">
      <g>
       <use style="stroke:#000000;stroke-width:0.8;" x="53.357896" xlink:href="#mbaf62544e5" y="160.192172"/>
      </g>
     </g>
     <g id="text_7">
      <!-- 40000 -->
      <defs>
       <path d="M 37.796875 64.3125 
L 12.890625 25.390625 
L 37.796875 25.390625 
z
M 35.203125 72.90625 
L 47.609375 72.90625 
L 47.609375 25.390625 
L 58.015625 25.390625 
L 58.015625 17.1875 
L 47.609375 17.1875 
L 47.609375 0 
L 37.796875 0 
L 37.796875 17.1875 
L 4.890625 17.1875 
L 4.890625 26.703125 
z
" id="DejaVuSans-52"/>
      </defs>
      <g transform="translate(14.545396 163.991391)scale(0.1 -0.1)">
       <use xlink:href="#DejaVuSans-52"/>
       <use x="63.623047" xlink:href="#DejaVuSans-48"/>
       <use x="127.246094" xlink:href="#DejaVuSans-48"/>
       <use x="190.869141" xlink:href="#DejaVuSans-48"/>
       <use x="254.492188" xlink:href="#DejaVuSans-48"/>
      </g>
     </g>
    </g>
    <g id="ytick_6">
     <g id="line2d_8">
      <g>
       <use style="stroke:#000000;stroke-width:0.8;" x="53.357896" xlink:href="#mbaf62544e5" y="118.759807"/>
      </g>
     </g>
     <g id="text_8">
      <!-- 50000 -->
      <g transform="translate(14.545396 122.559026)scale(0.1 -0.1)">
       <use xlink:href="#DejaVuSans-53"/>
       <use x="63.623047" xlink:href="#DejaVuSans-48"/>
       <use x="127.246094" xlink:href="#DejaVuSans-48"/>
       <use x="190.869141" xlink:href="#DejaVuSans-48"/>
       <use x="254.492188" xlink:href="#DejaVuSans-48"/>
      </g>
     </g>
    </g>
    <g id="ytick_7">
     <g id="line2d_9">
      <g>
       <use style="stroke:#000000;stroke-width:0.8;" x="53.357896" xlink:href="#mbaf62544e5" y="77.327441"/>
      </g>
     </g>
     <g id="text_9">
      <!-- 60000 -->
      <defs>
       <path d="M 33.015625 40.375 
Q 26.375 40.375 22.484375 35.828125 
Q 18.609375 31.296875 18.609375 23.390625 
Q 18.609375 15.53125 22.484375 10.953125 
Q 26.375 6.390625 33.015625 6.390625 
Q 39.65625 6.390625 43.53125 10.953125 
Q 47.40625 15.53125 47.40625 23.390625 
Q 47.40625 31.296875 43.53125 35.828125 
Q 39.65625 40.375 33.015625 40.375 
z
M 52.59375 71.296875 
L 52.59375 62.3125 
Q 48.875 64.0625 45.09375 64.984375 
Q 41.3125 65.921875 37.59375 65.921875 
Q 27.828125 65.921875 22.671875 59.328125 
Q 17.53125 52.734375 16.796875 39.40625 
Q 19.671875 43.65625 24.015625 45.921875 
Q 28.375 48.1875 33.59375 48.1875 
Q 44.578125 48.1875 50.953125 41.515625 
Q 57.328125 34.859375 57.328125 23.390625 
Q 57.328125 12.15625 50.6875 5.359375 
Q 44.046875 -1.421875 33.015625 -1.421875 
Q 20.359375 -1.421875 13.671875 8.265625 
Q 6.984375 17.96875 6.984375 36.375 
Q 6.984375 53.65625 15.1875 63.9375 
Q 23.390625 74.21875 37.203125 74.21875 
Q 40.921875 74.21875 44.703125 73.484375 
Q 48.484375 72.75 52.59375 71.296875 
z
" id="DejaVuSans-54"/>
      </defs>
      <g transform="translate(14.545396 81.12666)scale(0.1 -0.1)">
       <use xlink:href="#DejaVuSans-54"/>
       <use x="63.623047" xlink:href="#DejaVuSans-48"/>
       <use x="127.246094" xlink:href="#DejaVuSans-48"/>
       <use x="190.869141" xlink:href="#DejaVuSans-48"/>
       <use x="254.492188" xlink:href="#DejaVuSans-48"/>
      </g>
     </g>
    </g>
    <g id="ytick_8">
     <g id="line2d_10">
      <g>
       <use style="stroke:#000000;stroke-width:0.8;" x="53.357896" xlink:href="#mbaf62544e5" y="35.895075"/>
      </g>
     </g>
     <g id="text_10">
      <!-- 70000 -->
      <defs>
       <path d="M 8.203125 72.90625 
L 55.078125 72.90625 
L 55.078125 68.703125 
L 28.609375 0 
L 18.3125 0 
L 43.21875 64.59375 
L 8.203125 64.59375 
z
" id="DejaVuSans-55"/>
      </defs>
      <g transform="translate(14.545396 39.694294)scale(0.1 -0.1)">
       <use xlink:href="#DejaVuSans-55"/>
       <use x="63.623047" xlink:href="#DejaVuSans-48"/>
       <use x="127.246094" xlink:href="#DejaVuSans-48"/>
       <use x="190.869141" xlink:href="#DejaVuSans-48"/>
       <use x="254.492188" xlink:href="#DejaVuSans-48"/>
      </g>
     </g>
    </g>
   </g>
   <g id="line2d_11">
    <path clip-path="url(#pdb62dcea65)" d="M 57.446402 325.900144 
L 58.265742 325.893663 
L 59.085082 325.884703 
L 59.904421 325.873043 
L 60.723761 325.858037 
L 61.543101 325.838932 
L 62.362441 325.81491 
L 63.181781 325.785024 
L 64.001121 325.748202 
L 64.82046 325.703194 
L 65.6398 325.648671 
L 66.45914 325.583401 
L 67.27848 325.506169 
L 68.09782 325.415779 
L 68.91716 325.310933 
L 69.736499 325.190097 
L 70.555839 325.051519 
L 71.375179 324.893017 
L 72.194519 324.711718 
L 73.013859 324.504298 
L 73.833199 324.266839 
L 74.652538 323.995065 
L 75.471878 323.685264 
L 76.291218 323.334723 
L 77.110558 322.941951 
L 77.929898 322.506914 
L 78.749238 322.030789 
L 79.568577 321.515939 
L 80.387917 320.965775 
L 81.207257 320.383129 
L 82.026597 319.769307 
L 82.845937 319.124133 
L 83.665277 318.445614 
L 84.484617 317.729776 
L 85.303956 316.971502 
L 86.123296 316.164472 
L 86.942636 315.301747 
L 87.761976 314.375776 
L 88.581316 313.377521 
L 89.400656 312.297139 
L 90.219995 311.124719 
L 91.039335 309.848535 
L 91.858675 308.454908 
L 92.678015 306.93019 
L 93.497355 305.263064 
L 94.316695 303.446176 
L 95.136034 301.47466 
L 95.955374 299.344992 
L 96.774714 297.056779 
L 97.594054 294.613709 
L 98.413394 292.019684 
L 99.232734 289.273638 
L 100.052073 286.367256 
L 100.871413 283.286963 
L 101.690753 280.013911 
L 102.510093 276.522031 
L 103.329433 272.775004 
L 104.148773 268.729871 
L 104.968113 264.346311 
L 105.787452 259.592231 
L 106.606792 254.443947 
L 107.426132 248.890098 
L 108.245472 242.934431 
L 109.064812 236.602072 
L 109.884152 229.938877 
L 110.703491 223.001371 
L 111.522831 215.845928 
L 112.342171 208.52379 
L 113.161511 201.075265 
L 113.980851 193.52926 
L 114.800191 185.898914 
L 115.61953 178.181453 
L 116.43887 170.365406 
L 117.25821 162.444504 
L 118.07755 154.427543 
L 118.89689 146.34009 
L 119.71623 138.222748 
L 120.535569 130.12778 
L 121.354909 122.115485 
L 122.174249 114.248143 
L 122.993589 106.57436 
L 123.812929 99.120327 
L 124.632269 91.895698 
L 125.451608 84.88744 
L 126.270948 78.068216 
L 127.090288 71.403498 
L 127.909628 64.850327 
L 128.728968 58.372866 
L 129.548308 51.947185 
L 130.367648 45.546097 
L 131.186987 39.156831 
L 132.006327 32.775664 
" style="fill:none;stroke:#ff0000;stroke-linecap:square;stroke-width:1.5;"/>
   </g>
   <g id="patch_95">
    <path d="M 53.357896 325.921635 
L 53.357896 18.118365 
" style="fill:none;stroke:#000000;stroke-linecap:square;stroke-linejoin:miter;stroke-width:0.8;"/>
   </g>
   <g id="patch_96">
    <path d="M 136.094833 325.921635 
L 136.094833 18.118365 
" style="fill:none;stroke:#000000;stroke-linecap:square;stroke-linejoin:miter;stroke-width:0.8;"/>
   </g>
   <g id="patch_97">
    <path d="M 53.357896 325.921635 
L 136.094833 325.921635 
" style="fill:none;stroke:#000000;stroke-linecap:square;stroke-linejoin:miter;stroke-width:0.8;"/>
   </g>
   <g id="patch_98">
    <path d="M 53.357896 18.118365 
L 136.094833 18.118365 
" style="fill:none;stroke:#000000;stroke-linecap:square;stroke-linejoin:miter;stroke-width:0.8;"/>
   </g>
   <g id="text_11">
    <!-- Casos acumulados - MA - (data) -->
    <defs>
     <path d="M 64.40625 67.28125 
L 64.40625 56.890625 
Q 59.421875 61.53125 53.78125 63.8125 
Q 48.140625 66.109375 41.796875 66.109375 
Q 29.296875 66.109375 22.65625 58.46875 
Q 16.015625 50.828125 16.015625 36.375 
Q 16.015625 21.96875 22.65625 14.328125 
Q 29.296875 6.6875 41.796875 6.6875 
Q 48.140625 6.6875 53.78125 8.984375 
Q 59.421875 11.28125 64.40625 15.921875 
L 64.40625 5.609375 
Q 59.234375 2.09375 53.4375 0.328125 
Q 47.65625 -1.421875 41.21875 -1.421875 
Q 24.65625 -1.421875 15.125 8.703125 
Q 5.609375 18.84375 5.609375 36.375 
Q 5.609375 53.953125 15.125 64.078125 
Q 24.65625 74.21875 41.21875 74.21875 
Q 47.75 74.21875 53.53125 72.484375 
Q 59.328125 70.75 64.40625 67.28125 
z
" id="DejaVuSans-67"/>
     <path d="M 34.28125 27.484375 
Q 23.390625 27.484375 19.1875 25 
Q 14.984375 22.515625 14.984375 16.5 
Q 14.984375 11.71875 18.140625 8.90625 
Q 21.296875 6.109375 26.703125 6.109375 
Q 34.1875 6.109375 38.703125 11.40625 
Q 43.21875 16.703125 43.21875 25.484375 
L 43.21875 27.484375 
z
M 52.203125 31.203125 
L 52.203125 0 
L 43.21875 0 
L 43.21875 8.296875 
Q 40.140625 3.328125 35.546875 0.953125 
Q 30.953125 -1.421875 24.3125 -1.421875 
Q 15.921875 -1.421875 10.953125 3.296875 
Q 6 8.015625 6 15.921875 
Q 6 25.140625 12.171875 29.828125 
Q 18.359375 34.515625 30.609375 34.515625 
L 43.21875 34.515625 
L 43.21875 35.40625 
Q 43.21875 41.609375 39.140625 45 
Q 35.0625 48.390625 27.6875 48.390625 
Q 23 48.390625 18.546875 47.265625 
Q 14.109375 46.140625 10.015625 43.890625 
L 10.015625 52.203125 
Q 14.9375 54.109375 19.578125 55.046875 
Q 24.21875 56 28.609375 56 
Q 40.484375 56 46.34375 49.84375 
Q 52.203125 43.703125 52.203125 31.203125 
z
" id="DejaVuSans-97"/>
     <path d="M 44.28125 53.078125 
L 44.28125 44.578125 
Q 40.484375 46.53125 36.375 47.5 
Q 32.28125 48.484375 27.875 48.484375 
Q 21.1875 48.484375 17.84375 46.4375 
Q 14.5 44.390625 14.5 40.28125 
Q 14.5 37.15625 16.890625 35.375 
Q 19.28125 33.59375 26.515625 31.984375 
L 29.59375 31.296875 
Q 39.15625 29.25 43.1875 25.515625 
Q 47.21875 21.78125 47.21875 15.09375 
Q 47.21875 7.46875 41.1875 3.015625 
Q 35.15625 -1.421875 24.609375 -1.421875 
Q 20.21875 -1.421875 15.453125 -0.5625 
Q 10.6875 0.296875 5.421875 2 
L 5.421875 11.28125 
Q 10.40625 8.6875 15.234375 7.390625 
Q 20.0625 6.109375 24.8125 6.109375 
Q 31.15625 6.109375 34.5625 8.28125 
Q 37.984375 10.453125 37.984375 14.40625 
Q 37.984375 18.0625 35.515625 20.015625 
Q 33.0625 21.96875 24.703125 23.78125 
L 21.578125 24.515625 
Q 13.234375 26.265625 9.515625 29.90625 
Q 5.8125 33.546875 5.8125 39.890625 
Q 5.8125 47.609375 11.28125 51.796875 
Q 16.75 56 26.8125 56 
Q 31.78125 56 36.171875 55.265625 
Q 40.578125 54.546875 44.28125 53.078125 
z
" id="DejaVuSans-115"/>
     <path d="M 30.609375 48.390625 
Q 23.390625 48.390625 19.1875 42.75 
Q 14.984375 37.109375 14.984375 27.296875 
Q 14.984375 17.484375 19.15625 11.84375 
Q 23.34375 6.203125 30.609375 6.203125 
Q 37.796875 6.203125 41.984375 11.859375 
Q 46.1875 17.53125 46.1875 27.296875 
Q 46.1875 37.015625 41.984375 42.703125 
Q 37.796875 48.390625 30.609375 48.390625 
z
M 30.609375 56 
Q 42.328125 56 49.015625 48.375 
Q 55.71875 40.765625 55.71875 27.296875 
Q 55.71875 13.875 49.015625 6.21875 
Q 42.328125 -1.421875 30.609375 -1.421875 
Q 18.84375 -1.421875 12.171875 6.21875 
Q 5.515625 13.875 5.515625 27.296875 
Q 5.515625 40.765625 12.171875 48.375 
Q 18.84375 56 30.609375 56 
z
" id="DejaVuSans-111"/>
     <path id="DejaVuSans-32"/>
     <path d="M 48.78125 52.59375 
L 48.78125 44.1875 
Q 44.96875 46.296875 41.140625 47.34375 
Q 37.3125 48.390625 33.40625 48.390625 
Q 24.65625 48.390625 19.8125 42.84375 
Q 14.984375 37.3125 14.984375 27.296875 
Q 14.984375 17.28125 19.8125 11.734375 
Q 24.65625 6.203125 33.40625 6.203125 
Q 37.3125 6.203125 41.140625 7.25 
Q 44.96875 8.296875 48.78125 10.40625 
L 48.78125 2.09375 
Q 45.015625 0.34375 40.984375 -0.53125 
Q 36.96875 -1.421875 32.421875 -1.421875 
Q 20.0625 -1.421875 12.78125 6.34375 
Q 5.515625 14.109375 5.515625 27.296875 
Q 5.515625 40.671875 12.859375 48.328125 
Q 20.21875 56 33.015625 56 
Q 37.15625 56 41.109375 55.140625 
Q 45.0625 54.296875 48.78125 52.59375 
z
" id="DejaVuSans-99"/>
     <path d="M 8.5 21.578125 
L 8.5 54.6875 
L 17.484375 54.6875 
L 17.484375 21.921875 
Q 17.484375 14.15625 20.5 10.265625 
Q 23.53125 6.390625 29.59375 6.390625 
Q 36.859375 6.390625 41.078125 11.03125 
Q 45.3125 15.671875 45.3125 23.6875 
L 45.3125 54.6875 
L 54.296875 54.6875 
L 54.296875 0 
L 45.3125 0 
L 45.3125 8.40625 
Q 42.046875 3.421875 37.71875 1 
Q 33.40625 -1.421875 27.6875 -1.421875 
Q 18.265625 -1.421875 13.375 4.4375 
Q 8.5 10.296875 8.5 21.578125 
z
M 31.109375 56 
z
" id="DejaVuSans-117"/>
     <path d="M 52 44.1875 
Q 55.375 50.25 60.0625 53.125 
Q 64.75 56 71.09375 56 
Q 79.640625 56 84.28125 50.015625 
Q 88.921875 44.046875 88.921875 33.015625 
L 88.921875 0 
L 79.890625 0 
L 79.890625 32.71875 
Q 79.890625 40.578125 77.09375 44.375 
Q 74.3125 48.1875 68.609375 48.1875 
Q 61.625 48.1875 57.5625 43.546875 
Q 53.515625 38.921875 53.515625 30.90625 
L 53.515625 0 
L 44.484375 0 
L 44.484375 32.71875 
Q 44.484375 40.625 41.703125 44.40625 
Q 38.921875 48.1875 33.109375 48.1875 
Q 26.21875 48.1875 22.15625 43.53125 
Q 18.109375 38.875 18.109375 30.90625 
L 18.109375 0 
L 9.078125 0 
L 9.078125 54.6875 
L 18.109375 54.6875 
L 18.109375 46.1875 
Q 21.1875 51.21875 25.484375 53.609375 
Q 29.78125 56 35.6875 56 
Q 41.65625 56 45.828125 52.96875 
Q 50 49.953125 52 44.1875 
z
" id="DejaVuSans-109"/>
     <path d="M 9.421875 75.984375 
L 18.40625 75.984375 
L 18.40625 0 
L 9.421875 0 
z
" id="DejaVuSans-108"/>
     <path d="M 45.40625 46.390625 
L 45.40625 75.984375 
L 54.390625 75.984375 
L 54.390625 0 
L 45.40625 0 
L 45.40625 8.203125 
Q 42.578125 3.328125 38.25 0.953125 
Q 33.9375 -1.421875 27.875 -1.421875 
Q 17.96875 -1.421875 11.734375 6.484375 
Q 5.515625 14.40625 5.515625 27.296875 
Q 5.515625 40.1875 11.734375 48.09375 
Q 17.96875 56 27.875 56 
Q 33.9375 56 38.25 53.625 
Q 42.578125 51.265625 45.40625 46.390625 
z
M 14.796875 27.296875 
Q 14.796875 17.390625 18.875 11.75 
Q 22.953125 6.109375 30.078125 6.109375 
Q 37.203125 6.109375 41.296875 11.75 
Q 45.40625 17.390625 45.40625 27.296875 
Q 45.40625 37.203125 41.296875 42.84375 
Q 37.203125 48.484375 30.078125 48.484375 
Q 22.953125 48.484375 18.875 42.84375 
Q 14.796875 37.203125 14.796875 27.296875 
z
" id="DejaVuSans-100"/>
     <path d="M 4.890625 31.390625 
L 31.203125 31.390625 
L 31.203125 23.390625 
L 4.890625 23.390625 
z
" id="DejaVuSans-45"/>
     <path d="M 9.8125 72.90625 
L 24.515625 72.90625 
L 43.109375 23.296875 
L 61.8125 72.90625 
L 76.515625 72.90625 
L 76.515625 0 
L 66.890625 0 
L 66.890625 64.015625 
L 48.09375 14.015625 
L 38.1875 14.015625 
L 19.390625 64.015625 
L 19.390625 0 
L 9.8125 0 
z
" id="DejaVuSans-77"/>
     <path d="M 34.1875 63.1875 
L 20.796875 26.90625 
L 47.609375 26.90625 
z
M 28.609375 72.90625 
L 39.796875 72.90625 
L 67.578125 0 
L 57.328125 0 
L 50.6875 18.703125 
L 17.828125 18.703125 
L 11.1875 0 
L 0.78125 0 
z
" id="DejaVuSans-65"/>
     <path d="M 31 75.875 
Q 24.46875 64.65625 21.28125 53.65625 
Q 18.109375 42.671875 18.109375 31.390625 
Q 18.109375 20.125 21.3125 9.0625 
Q 24.515625 -2 31 -13.1875 
L 23.1875 -13.1875 
Q 15.875 -1.703125 12.234375 9.375 
Q 8.59375 20.453125 8.59375 31.390625 
Q 8.59375 42.28125 12.203125 53.3125 
Q 15.828125 64.359375 23.1875 75.875 
z
" id="DejaVuSans-40"/>
     <path d="M 18.3125 70.21875 
L 18.3125 54.6875 
L 36.8125 54.6875 
L 36.8125 47.703125 
L 18.3125 47.703125 
L 18.3125 18.015625 
Q 18.3125 11.328125 20.140625 9.421875 
Q 21.96875 7.515625 27.59375 7.515625 
L 36.8125 7.515625 
L 36.8125 0 
L 27.59375 0 
Q 17.1875 0 13.234375 3.875 
Q 9.28125 7.765625 9.28125 18.015625 
L 9.28125 47.703125 
L 2.6875 47.703125 
L 2.6875 54.6875 
L 9.28125 54.6875 
L 9.28125 70.21875 
z
" id="DejaVuSans-116"/>
     <path d="M 8.015625 75.875 
L 15.828125 75.875 
Q 23.140625 64.359375 26.78125 53.3125 
Q 30.421875 42.28125 30.421875 31.390625 
Q 30.421875 20.453125 26.78125 9.375 
Q 23.140625 -1.703125 15.828125 -13.1875 
L 8.015625 -13.1875 
Q 14.5 -2 17.703125 9.0625 
Q 20.90625 20.125 20.90625 31.390625 
Q 20.90625 42.671875 17.703125 53.65625 
Q 14.5 64.65625 8.015625 75.875 
z
" id="DejaVuSans-41"/>
    </defs>
    <g transform="translate(-0.779573 12.118365)scale(0.12 -0.12)">
     <use xlink:href="#DejaVuSans-67"/>
     <use x="69.824219" xlink:href="#DejaVuSans-97"/>
     <use x="131.103516" xlink:href="#DejaVuSans-115"/>
     <use x="183.203125" xlink:href="#DejaVuSans-111"/>
     <use x="244.384766" xlink:href="#DejaVuSans-115"/>
     <use x="296.484375" xlink:href="#DejaVuSans-32"/>
     <use x="328.271484" xlink:href="#DejaVuSans-97"/>
     <use x="389.550781" xlink:href="#DejaVuSans-99"/>
     <use x="444.53125" xlink:href="#DejaVuSans-117"/>
     <use x="507.910156" xlink:href="#DejaVuSans-109"/>
     <use x="605.322266" xlink:href="#DejaVuSans-117"/>
     <use x="668.701172" xlink:href="#DejaVuSans-108"/>
     <use x="696.484375" xlink:href="#DejaVuSans-97"/>
     <use x="757.763672" xlink:href="#DejaVuSans-100"/>
     <use x="821.240234" xlink:href="#DejaVuSans-111"/>
     <use x="882.421875" xlink:href="#DejaVuSans-115"/>
     <use x="934.521484" xlink:href="#DejaVuSans-32"/>
     <use x="966.308594" xlink:href="#DejaVuSans-45"/>
     <use x="1002.392578" xlink:href="#DejaVuSans-32"/>
     <use x="1034.179688" xlink:href="#DejaVuSans-77"/>
     <use x="1120.458984" xlink:href="#DejaVuSans-65"/>
     <use x="1188.867188" xlink:href="#DejaVuSans-32"/>
     <use x="1220.654297" xlink:href="#DejaVuSans-45"/>
     <use x="1256.738281" xlink:href="#DejaVuSans-32"/>
     <use x="1288.525391" xlink:href="#DejaVuSans-40"/>
     <use x="1327.539062" xlink:href="#DejaVuSans-100"/>
     <use x="1391.015625" xlink:href="#DejaVuSans-97"/>
     <use x="1452.294922" xlink:href="#DejaVuSans-116"/>
     <use x="1491.503906" xlink:href="#DejaVuSans-97"/>
     <use x="1552.783203" xlink:href="#DejaVuSans-41"/>
    </g>
   </g>
  </g>
  <g id="axes_2">
   <g id="patch_99">
    <path d="M 227.974969 325.921635 
L 310.711906 325.921635 
L 310.711906 18.118365 
L 227.974969 18.118365 
z
" style="fill:#ffffff;"/>
   </g>
   <g id="patch_100">
    <path clip-path="url(#p7f1ba885dd)" d="M 231.735739 325.921635 
L 232.391211 325.921635 
L 232.391211 325.812982 
L 231.735739 325.812982 
z
" style="fill:#1f77b4;"/>
   </g>
   <g id="patch_101">
    <path clip-path="url(#p7f1ba885dd)" d="M 232.555079 325.921635 
L 233.210551 325.921635 
L 233.210551 325.921635 
L 232.555079 325.921635 
z
" style="fill:#1f77b4;"/>
   </g>
   <g id="patch_102">
    <path clip-path="url(#p7f1ba885dd)" d="M 233.374419 325.921635 
L 234.02989 325.921635 
L 234.02989 325.269717 
L 233.374419 325.269717 
z
" style="fill:#1f77b4;"/>
   </g>
   <g id="patch_103">
    <path clip-path="url(#p7f1ba885dd)" d="M 234.193758 325.921635 
L 234.84923 325.921635 
L 234.84923 325.921635 
L 234.193758 325.921635 
z
" style="fill:#1f77b4;"/>
   </g>
   <g id="patch_104">
    <path clip-path="url(#p7f1ba885dd)" d="M 235.013098 325.921635 
L 235.66857 325.921635 
L 235.66857 325.704329 
L 235.013098 325.704329 
z
" style="fill:#1f77b4;"/>
   </g>
   <g id="patch_105">
    <path clip-path="url(#p7f1ba885dd)" d="M 235.832438 325.921635 
L 236.48791 325.921635 
L 236.48791 325.595676 
L 235.832438 325.595676 
z
" style="fill:#1f77b4;"/>
   </g>
   <g id="patch_106">
    <path clip-path="url(#p7f1ba885dd)" d="M 236.651778 325.921635 
L 237.30725 325.921635 
L 237.30725 325.812982 
L 236.651778 325.812982 
z
" style="fill:#1f77b4;"/>
   </g>
   <g id="patch_107">
    <path clip-path="url(#p7f1ba885dd)" d="M 237.471118 325.921635 
L 238.12659 325.921635 
L 238.12659 325.704329 
L 237.471118 325.704329 
z
" style="fill:#1f77b4;"/>
   </g>
   <g id="patch_108">
    <path clip-path="url(#p7f1ba885dd)" d="M 238.290458 325.921635 
L 238.945929 325.921635 
L 238.945929 325.161064 
L 238.290458 325.161064 
z
" style="fill:#1f77b4;"/>
   </g>
   <g id="patch_109">
    <path clip-path="url(#p7f1ba885dd)" d="M 239.109797 325.921635 
L 239.765269 325.921635 
L 239.765269 325.05241 
L 239.109797 325.05241 
z
" style="fill:#1f77b4;"/>
   </g>
   <g id="patch_110">
    <path clip-path="url(#p7f1ba885dd)" d="M 239.929137 325.921635 
L 240.584609 325.921635 
L 240.584609 323.639921 
L 239.929137 323.639921 
z
" style="fill:#1f77b4;"/>
   </g>
   <g id="patch_111">
    <path clip-path="url(#p7f1ba885dd)" d="M 240.748477 325.921635 
L 241.403949 325.921635 
L 241.403949 323.857227 
L 240.748477 323.857227 
z
" style="fill:#1f77b4;"/>
   </g>
   <g id="patch_112">
    <path clip-path="url(#p7f1ba885dd)" d="M 241.567817 325.921635 
L 242.223289 325.921635 
L 242.223289 324.835104 
L 241.567817 324.835104 
z
" style="fill:#1f77b4;"/>
   </g>
   <g id="patch_113">
    <path clip-path="url(#p7f1ba885dd)" d="M 242.387157 325.921635 
L 243.042629 325.921635 
L 243.042629 325.161064 
L 242.387157 325.161064 
z
" style="fill:#1f77b4;"/>
   </g>
   <g id="patch_114">
    <path clip-path="url(#p7f1ba885dd)" d="M 243.206497 325.921635 
L 243.861969 325.921635 
L 243.861969 325.05241 
L 243.206497 325.05241 
z
" style="fill:#1f77b4;"/>
   </g>
   <g id="patch_115">
    <path clip-path="url(#p7f1ba885dd)" d="M 244.025836 325.921635 
L 244.681308 325.921635 
L 244.681308 321.901472 
L 244.025836 321.901472 
z
" style="fill:#1f77b4;"/>
   </g>
   <g id="patch_116">
    <path clip-path="url(#p7f1ba885dd)" d="M 244.845176 325.921635 
L 245.500648 325.921635 
L 245.500648 321.684165 
L 244.845176 321.684165 
z
" style="fill:#1f77b4;"/>
   </g>
   <g id="patch_117">
    <path clip-path="url(#p7f1ba885dd)" d="M 245.664516 325.921635 
L 246.319988 325.921635 
L 246.319988 319.619757 
L 245.664516 319.619757 
z
" style="fill:#1f77b4;"/>
   </g>
   <g id="patch_118">
    <path clip-path="url(#p7f1ba885dd)" d="M 246.483856 325.921635 
L 247.139328 325.921635 
L 247.139328 321.249553 
L 246.483856 321.249553 
z
" style="fill:#1f77b4;"/>
   </g>
   <g id="patch_119">
    <path clip-path="url(#p7f1ba885dd)" d="M 247.303196 325.921635 
L 247.958668 325.921635 
L 247.958668 323.748574 
L 247.303196 323.748574 
z
" style="fill:#1f77b4;"/>
   </g>
   <g id="patch_120">
    <path clip-path="url(#p7f1ba885dd)" d="M 248.122536 325.921635 
L 248.778008 325.921635 
L 248.778008 320.380329 
L 248.122536 320.380329 
z
" style="fill:#1f77b4;"/>
   </g>
   <g id="patch_121">
    <path clip-path="url(#p7f1ba885dd)" d="M 248.941876 325.921635 
L 249.597347 325.921635 
L 249.597347 320.054369 
L 248.941876 320.054369 
z
" style="fill:#1f77b4;"/>
   </g>
   <g id="patch_122">
    <path clip-path="url(#p7f1ba885dd)" d="M 249.761215 325.921635 
L 250.416687 325.921635 
L 250.416687 320.814941 
L 249.761215 320.814941 
z
" style="fill:#1f77b4;"/>
   </g>
   <g id="patch_123">
    <path clip-path="url(#p7f1ba885dd)" d="M 250.580555 325.921635 
L 251.236027 325.921635 
L 251.236027 322.336084 
L 250.580555 322.336084 
z
" style="fill:#1f77b4;"/>
   </g>
   <g id="patch_124">
    <path clip-path="url(#p7f1ba885dd)" d="M 251.399895 325.921635 
L 252.055367 325.921635 
L 252.055367 309.406369 
L 251.399895 309.406369 
z
" style="fill:#1f77b4;"/>
   </g>
   <g id="patch_125">
    <path clip-path="url(#p7f1ba885dd)" d="M 252.219235 325.921635 
L 252.874707 325.921635 
L 252.874707 318.859186 
L 252.219235 318.859186 
z
" style="fill:#1f77b4;"/>
   </g>
   <g id="patch_126">
    <path clip-path="url(#p7f1ba885dd)" d="M 253.038575 325.921635 
L 253.694047 325.921635 
L 253.694047 314.839022 
L 253.038575 314.839022 
z
" style="fill:#1f77b4;"/>
   </g>
   <g id="patch_127">
    <path clip-path="url(#p7f1ba885dd)" d="M 253.857915 325.921635 
L 254.513386 325.921635 
L 254.513386 299.51894 
L 253.857915 299.51894 
z
" style="fill:#1f77b4;"/>
   </g>
   <g id="patch_128">
    <path clip-path="url(#p7f1ba885dd)" d="M 254.677254 325.921635 
L 255.332726 325.921635 
L 255.332726 307.993879 
L 254.677254 307.993879 
z
" style="fill:#1f77b4;"/>
   </g>
   <g id="patch_129">
    <path clip-path="url(#p7f1ba885dd)" d="M 255.496594 325.921635 
L 256.152066 325.921635 
L 256.152066 313.426532 
L 255.496594 313.426532 
z
" style="fill:#1f77b4;"/>
   </g>
   <g id="patch_130">
    <path clip-path="url(#p7f1ba885dd)" d="M 256.315934 325.921635 
L 256.971406 325.921635 
L 256.971406 317.664002 
L 256.315934 317.664002 
z
" style="fill:#1f77b4;"/>
   </g>
   <g id="patch_131">
    <path clip-path="url(#p7f1ba885dd)" d="M 257.135274 325.921635 
L 257.790746 325.921635 
L 257.790746 303.321797 
L 257.135274 303.321797 
z
" style="fill:#1f77b4;"/>
   </g>
   <g id="patch_132">
    <path clip-path="url(#p7f1ba885dd)" d="M 257.954614 325.921635 
L 258.610086 325.921635 
L 258.610086 309.297716 
L 257.954614 309.297716 
z
" style="fill:#1f77b4;"/>
   </g>
   <g id="patch_133">
    <path clip-path="url(#p7f1ba885dd)" d="M 258.773954 325.921635 
L 259.429425 325.921635 
L 259.429425 304.84294 
L 258.773954 304.84294 
z
" style="fill:#1f77b4;"/>
   </g>
   <g id="patch_134">
    <path clip-path="url(#p7f1ba885dd)" d="M 259.593293 325.921635 
L 260.248765 325.921635 
L 260.248765 309.189063 
L 259.593293 309.189063 
z
" style="fill:#1f77b4;"/>
   </g>
   <g id="patch_135">
    <path clip-path="url(#p7f1ba885dd)" d="M 260.412633 325.921635 
L 261.068105 325.921635 
L 261.068105 313.100573 
L 260.412633 313.100573 
z
" style="fill:#1f77b4;"/>
   </g>
   <g id="patch_136">
    <path clip-path="url(#p7f1ba885dd)" d="M 261.231973 325.921635 
L 261.887445 325.921635 
L 261.887445 305.603512 
L 261.231973 305.603512 
z
" style="fill:#1f77b4;"/>
   </g>
   <g id="patch_137">
    <path clip-path="url(#p7f1ba885dd)" d="M 262.051313 325.921635 
L 262.706785 325.921635 
L 262.706785 313.100573 
L 262.051313 313.100573 
z
" style="fill:#1f77b4;"/>
   </g>
   <g id="patch_138">
    <path clip-path="url(#p7f1ba885dd)" d="M 262.870653 325.921635 
L 263.526125 325.921635 
L 263.526125 295.933389 
L 262.870653 295.933389 
z
" style="fill:#1f77b4;"/>
   </g>
   <g id="patch_139">
    <path clip-path="url(#p7f1ba885dd)" d="M 263.689993 325.921635 
L 264.345464 325.921635 
L 264.345464 283.981552 
L 263.689993 283.981552 
z
" style="fill:#1f77b4;"/>
   </g>
   <g id="patch_140">
    <path clip-path="url(#p7f1ba885dd)" d="M 264.509332 325.921635 
L 265.164804 325.921635 
L 265.164804 291.587266 
L 264.509332 291.587266 
z
" style="fill:#1f77b4;"/>
   </g>
   <g id="patch_141">
    <path clip-path="url(#p7f1ba885dd)" d="M 265.328672 325.921635 
L 265.984144 325.921635 
L 265.984144 293.434368 
L 265.328672 293.434368 
z
" style="fill:#1f77b4;"/>
   </g>
   <g id="patch_142">
    <path clip-path="url(#p7f1ba885dd)" d="M 266.148012 325.921635 
L 266.803484 325.921635 
L 266.803484 300.388165 
L 266.148012 300.388165 
z
" style="fill:#1f77b4;"/>
   </g>
   <g id="patch_143">
    <path clip-path="url(#p7f1ba885dd)" d="M 266.967352 325.921635 
L 267.622824 325.921635 
L 267.622824 305.603512 
L 266.967352 305.603512 
z
" style="fill:#1f77b4;"/>
   </g>
   <g id="patch_144">
    <path clip-path="url(#p7f1ba885dd)" d="M 267.786692 325.921635 
L 268.442164 325.921635 
L 268.442164 292.999756 
L 267.786692 292.999756 
z
" style="fill:#1f77b4;"/>
   </g>
   <g id="patch_145">
    <path clip-path="url(#p7f1ba885dd)" d="M 268.606032 325.921635 
L 269.261504 325.921635 
L 269.261504 271.812408 
L 268.606032 271.812408 
z
" style="fill:#1f77b4;"/>
   </g>
   <g id="patch_146">
    <path clip-path="url(#p7f1ba885dd)" d="M 269.425371 325.921635 
L 270.080843 325.921635 
L 270.080843 286.697878 
L 269.425371 286.697878 
z
" style="fill:#1f77b4;"/>
   </g>
   <g id="patch_147">
    <path clip-path="url(#p7f1ba885dd)" d="M 270.244711 325.921635 
L 270.900183 325.921635 
L 270.900183 269.422041 
L 270.244711 269.422041 
z
" style="fill:#1f77b4;"/>
   </g>
   <g id="patch_148">
    <path clip-path="url(#p7f1ba885dd)" d="M 271.064051 325.921635 
L 271.719523 325.921635 
L 271.719523 232.914611 
L 271.064051 232.914611 
z
" style="fill:#1f77b4;"/>
   </g>
   <g id="patch_149">
    <path clip-path="url(#p7f1ba885dd)" d="M 271.883391 325.921635 
L 272.538863 325.921635 
L 272.538863 235.304978 
L 271.883391 235.304978 
z
" style="fill:#1f77b4;"/>
   </g>
   <g id="patch_150">
    <path clip-path="url(#p7f1ba885dd)" d="M 272.702731 325.921635 
L 273.358203 325.921635 
L 273.358203 266.705714 
L 272.702731 266.705714 
z
" style="fill:#1f77b4;"/>
   </g>
   <g id="patch_151">
    <path clip-path="url(#p7f1ba885dd)" d="M 273.522071 325.921635 
L 274.177543 325.921635 
L 274.177543 284.416164 
L 273.522071 284.416164 
z
" style="fill:#1f77b4;"/>
   </g>
   <g id="patch_152">
    <path clip-path="url(#p7f1ba885dd)" d="M 274.341411 325.921635 
L 274.996882 325.921635 
L 274.996882 262.250938 
L 274.341411 262.250938 
z
" style="fill:#1f77b4;"/>
   </g>
   <g id="patch_153">
    <path clip-path="url(#p7f1ba885dd)" d="M 275.16075 325.921635 
L 275.816222 325.921635 
L 275.816222 251.059673 
L 275.16075 251.059673 
z
" style="fill:#1f77b4;"/>
   </g>
   <g id="patch_154">
    <path clip-path="url(#p7f1ba885dd)" d="M 275.98009 325.921635 
L 276.635562 325.921635 
L 276.635562 224.005059 
L 275.98009 224.005059 
z
" style="fill:#1f77b4;"/>
   </g>
   <g id="patch_155">
    <path clip-path="url(#p7f1ba885dd)" d="M 276.79943 325.921635 
L 277.454902 325.921635 
L 277.454902 233.24057 
L 276.79943 233.24057 
z
" style="fill:#1f77b4;"/>
   </g>
   <g id="patch_156">
    <path clip-path="url(#p7f1ba885dd)" d="M 277.61877 325.921635 
L 278.274242 325.921635 
L 278.274242 228.133876 
L 277.61877 228.133876 
z
" style="fill:#1f77b4;"/>
   </g>
   <g id="patch_157">
    <path clip-path="url(#p7f1ba885dd)" d="M 278.43811 325.921635 
L 279.093582 325.921635 
L 279.093582 244.866448 
L 278.43811 244.866448 
z
" style="fill:#1f77b4;"/>
   </g>
   <g id="patch_158">
    <path clip-path="url(#p7f1ba885dd)" d="M 279.25745 325.921635 
L 279.912921 325.921635 
L 279.912921 221.614692 
L 279.25745 221.614692 
z
" style="fill:#1f77b4;"/>
   </g>
   <g id="patch_159">
    <path clip-path="url(#p7f1ba885dd)" d="M 280.076789 325.921635 
L 280.732261 325.921635 
L 280.732261 226.395427 
L 280.076789 226.395427 
z
" style="fill:#1f77b4;"/>
   </g>
   <g id="patch_160">
    <path clip-path="url(#p7f1ba885dd)" d="M 280.896129 325.921635 
L 281.551601 325.921635 
L 281.551601 223.353141 
L 280.896129 223.353141 
z
" style="fill:#1f77b4;"/>
   </g>
   <g id="patch_161">
    <path clip-path="url(#p7f1ba885dd)" d="M 281.715469 325.921635 
L 282.370941 325.921635 
L 282.370941 200.535997 
L 281.715469 200.535997 
z
" style="fill:#1f77b4;"/>
   </g>
   <g id="patch_162">
    <path clip-path="url(#p7f1ba885dd)" d="M 282.534809 325.921635 
L 283.190281 325.921635 
L 283.190281 156.966118 
L 282.534809 156.966118 
z
" style="fill:#1f77b4;"/>
   </g>
   <g id="patch_163">
    <path clip-path="url(#p7f1ba885dd)" d="M 283.354149 325.921635 
L 284.009621 325.921635 
L 284.009621 62.546604 
L 283.354149 62.546604 
z
" style="fill:#1f77b4;"/>
   </g>
   <g id="patch_164">
    <path clip-path="url(#p7f1ba885dd)" d="M 284.173489 325.921635 
L 284.82896 325.921635 
L 284.82896 152.619995 
L 284.173489 152.619995 
z
" style="fill:#1f77b4;"/>
   </g>
   <g id="patch_165">
    <path clip-path="url(#p7f1ba885dd)" d="M 284.992828 325.921635 
L 285.6483 325.921635 
L 285.6483 163.811261 
L 284.992828 163.811261 
z
" style="fill:#1f77b4;"/>
   </g>
   <g id="patch_166">
    <path clip-path="url(#p7f1ba885dd)" d="M 285.812168 325.921635 
L 286.46764 325.921635 
L 286.46764 123.066361 
L 285.812168 123.066361 
z
" style="fill:#1f77b4;"/>
   </g>
   <g id="patch_167">
    <path clip-path="url(#p7f1ba885dd)" d="M 286.631508 325.921635 
L 287.28698 325.921635 
L 287.28698 126.651912 
L 286.631508 126.651912 
z
" style="fill:#1f77b4;"/>
   </g>
   <g id="patch_168">
    <path clip-path="url(#p7f1ba885dd)" d="M 287.450848 325.921635 
L 288.10632 325.921635 
L 288.10632 53.963011 
L 287.450848 53.963011 
z
" style="fill:#1f77b4;"/>
   </g>
   <g id="patch_169">
    <path clip-path="url(#p7f1ba885dd)" d="M 288.270188 325.921635 
L 288.92566 325.921635 
L 288.92566 93.62138 
L 288.270188 93.62138 
z
" style="fill:#1f77b4;"/>
   </g>
   <g id="patch_170">
    <path clip-path="url(#p7f1ba885dd)" d="M 289.089528 325.921635 
L 289.744999 325.921635 
L 289.744999 106.551095 
L 289.089528 106.551095 
z
" style="fill:#1f77b4;"/>
   </g>
   <g id="patch_171">
    <path clip-path="url(#p7f1ba885dd)" d="M 289.908867 325.921635 
L 290.564339 325.921635 
L 290.564339 254.427918 
L 289.908867 254.427918 
z
" style="fill:#1f77b4;"/>
   </g>
   <g id="patch_172">
    <path clip-path="url(#p7f1ba885dd)" d="M 290.728207 325.921635 
L 291.383679 325.921635 
L 291.383679 181.630364 
L 290.728207 181.630364 
z
" style="fill:#1f77b4;"/>
   </g>
   <g id="patch_173">
    <path clip-path="url(#p7f1ba885dd)" d="M 291.547547 325.921635 
L 292.203019 325.921635 
L 292.203019 157.618036 
L 291.547547 157.618036 
z
" style="fill:#1f77b4;"/>
   </g>
   <g id="patch_174">
    <path clip-path="url(#p7f1ba885dd)" d="M 292.366887 325.921635 
L 293.022359 325.921635 
L 293.022359 59.178359 
L 292.366887 59.178359 
z
" style="fill:#1f77b4;"/>
   </g>
   <g id="patch_175">
    <path clip-path="url(#p7f1ba885dd)" d="M 293.186227 325.921635 
L 293.841699 325.921635 
L 293.841699 34.296806 
L 293.186227 34.296806 
z
" style="fill:#1f77b4;"/>
   </g>
   <g id="patch_176">
    <path clip-path="url(#p7f1ba885dd)" d="M 294.005567 325.921635 
L 294.661039 325.921635 
L 294.661039 91.556972 
L 294.005567 91.556972 
z
" style="fill:#1f77b4;"/>
   </g>
   <g id="patch_177">
    <path clip-path="url(#p7f1ba885dd)" d="M 294.824906 325.921635 
L 295.480378 325.921635 
L 295.480378 95.251176 
L 294.824906 95.251176 
z
" style="fill:#1f77b4;"/>
   </g>
   <g id="patch_178">
    <path clip-path="url(#p7f1ba885dd)" d="M 295.644246 325.921635 
L 296.299718 325.921635 
L 296.299718 132.736484 
L 295.644246 132.736484 
z
" style="fill:#1f77b4;"/>
   </g>
   <g id="patch_179">
    <path clip-path="url(#p7f1ba885dd)" d="M 296.463586 325.921635 
L 297.119058 325.921635 
L 297.119058 32.775664 
L 296.463586 32.775664 
z
" style="fill:#1f77b4;"/>
   </g>
   <g id="patch_180">
    <path clip-path="url(#p7f1ba885dd)" d="M 297.282926 325.921635 
L 297.938398 325.921635 
L 297.938398 169.569873 
L 297.282926 169.569873 
z
" style="fill:#1f77b4;"/>
   </g>
   <g id="patch_181">
    <path clip-path="url(#p7f1ba885dd)" d="M 298.102266 325.921635 
L 298.757738 325.921635 
L 298.757738 89.927176 
L 298.102266 89.927176 
z
" style="fill:#1f77b4;"/>
   </g>
   <g id="patch_182">
    <path clip-path="url(#p7f1ba885dd)" d="M 298.921606 325.921635 
L 299.577078 325.921635 
L 299.577078 116.764483 
L 298.921606 116.764483 
z
" style="fill:#1f77b4;"/>
   </g>
   <g id="patch_183">
    <path clip-path="url(#p7f1ba885dd)" d="M 299.740946 325.921635 
L 300.396417 325.921635 
L 300.396417 189.670691 
L 299.740946 189.670691 
z
" style="fill:#1f77b4;"/>
   </g>
   <g id="patch_184">
    <path clip-path="url(#p7f1ba885dd)" d="M 300.560285 325.921635 
L 301.215757 325.921635 
L 301.215757 218.246447 
L 300.560285 218.246447 
z
" style="fill:#1f77b4;"/>
   </g>
   <g id="patch_185">
    <path clip-path="url(#p7f1ba885dd)" d="M 301.379625 325.921635 
L 302.035097 325.921635 
L 302.035097 245.30106 
L 301.379625 245.30106 
z
" style="fill:#1f77b4;"/>
   </g>
   <g id="patch_186">
    <path clip-path="url(#p7f1ba885dd)" d="M 302.198965 325.921635 
L 302.854437 325.921635 
L 302.854437 95.685789 
L 302.198965 95.685789 
z
" style="fill:#1f77b4;"/>
   </g>
   <g id="patch_187">
    <path clip-path="url(#p7f1ba885dd)" d="M 303.018305 325.921635 
L 303.673777 325.921635 
L 303.673777 106.00783 
L 303.018305 106.00783 
z
" style="fill:#1f77b4;"/>
   </g>
   <g id="patch_188">
    <path clip-path="url(#p7f1ba885dd)" d="M 303.837645 325.921635 
L 304.493117 325.921635 
L 304.493117 178.588078 
L 303.837645 178.588078 
z
" style="fill:#1f77b4;"/>
   </g>
   <g id="patch_189">
    <path clip-path="url(#p7f1ba885dd)" d="M 304.656985 325.921635 
L 305.312456 325.921635 
L 305.312456 64.1764 
L 304.656985 64.1764 
z
" style="fill:#1f77b4;"/>
   </g>
   <g id="patch_190">
    <path clip-path="url(#p7f1ba885dd)" d="M 305.476324 325.921635 
L 306.131796 325.921635 
L 306.131796 198.471589 
L 305.476324 198.471589 
z
" style="fill:#1f77b4;"/>
   </g>
   <g id="patch_191">
    <path clip-path="url(#p7f1ba885dd)" d="M 306.295664 325.921635 
L 306.951136 325.921635 
L 306.951136 283.981552 
L 306.295664 283.981552 
z
" style="fill:#1f77b4;"/>
   </g>
   <g id="matplotlib.axis_3">
    <g id="xtick_3">
     <g id="line2d_12">
      <g>
       <use style="stroke:#000000;stroke-width:0.8;" x="232.063475" xlink:href="#m538f4dc37e" y="325.921635"/>
      </g>
     </g>
     <g id="text_12">
      <!-- 0 -->
      <g transform="translate(228.882225 340.520072)scale(0.1 -0.1)">
       <use xlink:href="#DejaVuSans-48"/>
      </g>
     </g>
    </g>
    <g id="xtick_4">
     <g id="line2d_13">
      <g>
       <use style="stroke:#000000;stroke-width:0.8;" x="273.030467" xlink:href="#m538f4dc37e" y="325.921635"/>
      </g>
     </g>
     <g id="text_13">
      <!-- 50 -->
      <g transform="translate(266.667967 340.520072)scale(0.1 -0.1)">
       <use xlink:href="#DejaVuSans-53"/>
       <use x="63.623047" xlink:href="#DejaVuSans-48"/>
      </g>
     </g>
    </g>
   </g>
   <g id="matplotlib.axis_4">
    <g id="ytick_9">
     <g id="line2d_14">
      <g>
       <use style="stroke:#000000;stroke-width:0.8;" x="227.974969" xlink:href="#mbaf62544e5" y="325.921635"/>
      </g>
     </g>
     <g id="text_14">
      <!-- 0 -->
      <g transform="translate(214.612469 329.720854)scale(0.1 -0.1)">
       <use xlink:href="#DejaVuSans-48"/>
      </g>
     </g>
    </g>
    <g id="ytick_10">
     <g id="line2d_15">
      <g>
       <use style="stroke:#000000;stroke-width:0.8;" x="227.974969" xlink:href="#mbaf62544e5" y="271.595102"/>
      </g>
     </g>
     <g id="text_15">
      <!-- 500 -->
      <g transform="translate(201.887469 275.394321)scale(0.1 -0.1)">
       <use xlink:href="#DejaVuSans-53"/>
       <use x="63.623047" xlink:href="#DejaVuSans-48"/>
       <use x="127.246094" xlink:href="#DejaVuSans-48"/>
      </g>
     </g>
    </g>
    <g id="ytick_11">
     <g id="line2d_16">
      <g>
       <use style="stroke:#000000;stroke-width:0.8;" x="227.974969" xlink:href="#mbaf62544e5" y="217.268569"/>
      </g>
     </g>
     <g id="text_16">
      <!-- 1000 -->
      <g transform="translate(195.524969 221.067788)scale(0.1 -0.1)">
       <use xlink:href="#DejaVuSans-49"/>
       <use x="63.623047" xlink:href="#DejaVuSans-48"/>
       <use x="127.246094" xlink:href="#DejaVuSans-48"/>
       <use x="190.869141" xlink:href="#DejaVuSans-48"/>
      </g>
     </g>
    </g>
    <g id="ytick_12">
     <g id="line2d_17">
      <g>
       <use style="stroke:#000000;stroke-width:0.8;" x="227.974969" xlink:href="#mbaf62544e5" y="162.942036"/>
      </g>
     </g>
     <g id="text_17">
      <!-- 1500 -->
      <g transform="translate(195.524969 166.741255)scale(0.1 -0.1)">
       <use xlink:href="#DejaVuSans-49"/>
       <use x="63.623047" xlink:href="#DejaVuSans-53"/>
       <use x="127.246094" xlink:href="#DejaVuSans-48"/>
       <use x="190.869141" xlink:href="#DejaVuSans-48"/>
      </g>
     </g>
    </g>
    <g id="ytick_13">
     <g id="line2d_18">
      <g>
       <use style="stroke:#000000;stroke-width:0.8;" x="227.974969" xlink:href="#mbaf62544e5" y="108.615503"/>
      </g>
     </g>
     <g id="text_18">
      <!-- 2000 -->
      <g transform="translate(195.524969 112.414722)scale(0.1 -0.1)">
       <use xlink:href="#DejaVuSans-50"/>
       <use x="63.623047" xlink:href="#DejaVuSans-48"/>
       <use x="127.246094" xlink:href="#DejaVuSans-48"/>
       <use x="190.869141" xlink:href="#DejaVuSans-48"/>
      </g>
     </g>
    </g>
    <g id="ytick_14">
     <g id="line2d_19">
      <g>
       <use style="stroke:#000000;stroke-width:0.8;" x="227.974969" xlink:href="#mbaf62544e5" y="54.288971"/>
      </g>
     </g>
     <g id="text_19">
      <!-- 2500 -->
      <g transform="translate(195.524969 58.088189)scale(0.1 -0.1)">
       <use xlink:href="#DejaVuSans-50"/>
       <use x="63.623047" xlink:href="#DejaVuSans-53"/>
       <use x="127.246094" xlink:href="#DejaVuSans-48"/>
       <use x="190.869141" xlink:href="#DejaVuSans-48"/>
      </g>
     </g>
    </g>
   </g>
   <g id="line2d_20">
    <path clip-path="url(#p7f1ba885dd)" d="M 232.063475 325.802845 
L 232.882815 325.751664 
L 233.702155 325.68668 
L 234.521494 325.615859 
L 235.340834 325.528113 
L 236.160174 325.420636 
L 236.979514 325.291664 
L 237.798854 325.137894 
L 238.618194 324.956021 
L 239.437533 324.74134 
L 240.256873 324.491813 
L 241.076213 324.209976 
L 241.895553 323.89628 
L 242.714893 323.551224 
L 243.534233 323.172138 
L 244.353572 322.752821 
L 245.172912 322.287527 
L 245.992252 321.765033 
L 246.811592 321.167238 
L 247.630932 320.482194 
L 248.450272 319.69447 
L 249.269611 318.794564 
L 250.088951 317.797363 
L 250.908291 316.728979 
L 251.727631 315.621496 
L 252.546971 314.513154 
L 253.366311 313.435628 
L 254.18565 312.4201 
L 255.00499 311.494037 
L 255.82433 310.64219 
L 256.64367 309.824645 
L 257.46301 309.002484 
L 258.28235 308.12801 
L 259.10169 307.149363 
L 259.921029 306.036495 
L 260.740369 304.757909 
L 261.559709 303.297361 
L 262.379049 301.638784 
L 263.198389 299.743215 
L 264.017729 297.589477 
L 264.837068 295.175849 
L 265.656408 292.454726 
L 266.475748 289.37488 
L 267.295088 285.937126 
L 268.114428 282.202601 
L 268.933768 278.275207 
L 269.753107 274.220198 
L 270.572447 270.072783 
L 271.391787 265.915095 
L 272.211127 261.854067 
L 273.030467 257.895403 
L 273.849807 253.908772 
L 274.669146 249.704111 
L 275.488486 245.143398 
L 276.307826 240.088473 
L 277.127166 234.349863 
L 277.946506 227.658852 
L 278.765846 219.841262 
L 279.585185 210.966284 
L 280.404525 201.249686 
L 281.223865 190.911987 
L 282.043205 180.276386 
L 282.862545 169.73903 
L 283.681885 159.860606 
L 284.501225 151.184652 
L 285.320564 143.991104 
L 286.139904 138.275845 
L 286.959244 133.904425 
L 287.778584 130.590032 
L 288.597924 128.033675 
L 289.417264 125.821922 
L 290.236603 123.537402 
L 291.055943 120.952039 
L 291.875283 118.202315 
L 292.694623 115.683247 
L 293.513963 113.834652 
L 294.333303 113.05082 
L 295.152642 113.637574 
L 295.971982 115.805612 
L 296.791322 119.606886 
L 297.610662 124.682807 
L 298.430002 130.445583 
L 299.249342 136.461506 
L 300.068681 142.135676 
L 300.888021 147.092944 
L 301.707361 151.144739 
L 302.526701 154.069955 
L 303.346041 156.055396 
L 304.165381 157.41331 
L 304.98472 158.058215 
L 305.80406 158.368245 
L 306.6234 158.580618 
" style="fill:none;stroke:#ff0000;stroke-linecap:square;stroke-width:1.5;"/>
   </g>
   <g id="patch_192">
    <path d="M 227.974969 325.921635 
L 227.974969 18.118365 
" style="fill:none;stroke:#000000;stroke-linecap:square;stroke-linejoin:miter;stroke-width:0.8;"/>
   </g>
   <g id="patch_193">
    <path d="M 310.711906 325.921635 
L 310.711906 18.118365 
" style="fill:none;stroke:#000000;stroke-linecap:square;stroke-linejoin:miter;stroke-width:0.8;"/>
   </g>
   <g id="patch_194">
    <path d="M 227.974969 325.921635 
L 310.711906 325.921635 
" style="fill:none;stroke:#000000;stroke-linecap:square;stroke-linejoin:miter;stroke-width:0.8;"/>
   </g>
   <g id="patch_195">
    <path d="M 227.974969 18.118365 
L 310.711906 18.118365 
" style="fill:none;stroke:#000000;stroke-linecap:square;stroke-linejoin:miter;stroke-width:0.8;"/>
   </g>
   <g id="text_20">
    <!-- Casos novos - MA - (data) -->
    <defs>
     <path d="M 54.890625 33.015625 
L 54.890625 0 
L 45.90625 0 
L 45.90625 32.71875 
Q 45.90625 40.484375 42.875 44.328125 
Q 39.84375 48.1875 33.796875 48.1875 
Q 26.515625 48.1875 22.3125 43.546875 
Q 18.109375 38.921875 18.109375 30.90625 
L 18.109375 0 
L 9.078125 0 
L 9.078125 54.6875 
L 18.109375 54.6875 
L 18.109375 46.1875 
Q 21.34375 51.125 25.703125 53.5625 
Q 30.078125 56 35.796875 56 
Q 45.21875 56 50.046875 50.171875 
Q 54.890625 44.34375 54.890625 33.015625 
z
" id="DejaVuSans-110"/>
     <path d="M 2.984375 54.6875 
L 12.5 54.6875 
L 29.59375 8.796875 
L 46.6875 54.6875 
L 56.203125 54.6875 
L 35.6875 0 
L 23.484375 0 
z
" id="DejaVuSans-118"/>
    </defs>
    <g transform="translate(192.390625 12.118365)scale(0.12 -0.12)">
     <use xlink:href="#DejaVuSans-67"/>
     <use x="69.824219" xlink:href="#DejaVuSans-97"/>
     <use x="131.103516" xlink:href="#DejaVuSans-115"/>
     <use x="183.203125" xlink:href="#DejaVuSans-111"/>
     <use x="244.384766" xlink:href="#DejaVuSans-115"/>
     <use x="296.484375" xlink:href="#DejaVuSans-32"/>
     <use x="328.271484" xlink:href="#DejaVuSans-110"/>
     <use x="391.650391" xlink:href="#DejaVuSans-111"/>
     <use x="452.832031" xlink:href="#DejaVuSans-118"/>
     <use x="512.011719" xlink:href="#DejaVuSans-111"/>
     <use x="573.193359" xlink:href="#DejaVuSans-115"/>
     <use x="625.292969" xlink:href="#DejaVuSans-32"/>
     <use x="657.080078" xlink:href="#DejaVuSans-45"/>
     <use x="693.164062" xlink:href="#DejaVuSans-32"/>
     <use x="724.951172" xlink:href="#DejaVuSans-77"/>
     <use x="811.230469" xlink:href="#DejaVuSans-65"/>
     <use x="879.638672" xlink:href="#DejaVuSans-32"/>
     <use x="911.425781" xlink:href="#DejaVuSans-45"/>
     <use x="947.509766" xlink:href="#DejaVuSans-32"/>
     <use x="979.296875" xlink:href="#DejaVuSans-40"/>
     <use x="1018.310547" xlink:href="#DejaVuSans-100"/>
     <use x="1081.787109" xlink:href="#DejaVuSans-97"/>
     <use x="1143.066406" xlink:href="#DejaVuSans-116"/>
     <use x="1182.275391" xlink:href="#DejaVuSans-97"/>
     <use x="1243.554688" xlink:href="#DejaVuSans-41"/>
    </g>
   </g>
  </g>
  <g id="axes_3">
   <g id="patch_196">
    <path d="M 374.492042 325.921635 
L 457.228979 325.921635 
L 457.228979 18.118365 
L 374.492042 18.118365 
z
" style="fill:#ffffff;"/>
   </g>
   <g id="matplotlib.axis_5">
    <g id="xtick_5">
     <g id="line2d_21">
      <g>
       <use style="stroke:#000000;stroke-width:0.8;" x="378.252812" xlink:href="#m538f4dc37e" y="325.921635"/>
      </g>
     </g>
     <g id="text_21">
      <!-- 0 -->
      <g transform="translate(375.071562 340.520072)scale(0.1 -0.1)">
       <use xlink:href="#DejaVuSans-48"/>
      </g>
     </g>
    </g>
    <g id="xtick_6">
     <g id="line2d_22">
      <g>
       <use style="stroke:#000000;stroke-width:0.8;" x="419.579953" xlink:href="#m538f4dc37e" y="325.921635"/>
      </g>
     </g>
     <g id="text_22">
      <!-- 50 -->
      <g transform="translate(413.217453 340.520072)scale(0.1 -0.1)">
       <use xlink:href="#DejaVuSans-53"/>
       <use x="63.623047" xlink:href="#DejaVuSans-48"/>
      </g>
     </g>
    </g>
   </g>
   <g id="matplotlib.axis_6">
    <g id="ytick_15">
     <g id="line2d_23">
      <g>
       <use style="stroke:#000000;stroke-width:0.8;" x="374.492042" xlink:href="#mbaf62544e5" y="301.609709"/>
      </g>
     </g>
     <g id="text_23">
      <!-- 1.0 -->
      <defs>
       <path d="M 10.6875 12.40625 
L 21 12.40625 
L 21 0 
L 10.6875 0 
z
" id="DejaVuSans-46"/>
      </defs>
      <g transform="translate(351.588917 305.408928)scale(0.1 -0.1)">
       <use xlink:href="#DejaVuSans-49"/>
       <use x="63.623047" xlink:href="#DejaVuSans-46"/>
       <use x="95.410156" xlink:href="#DejaVuSans-48"/>
      </g>
     </g>
    </g>
    <g id="ytick_16">
     <g id="line2d_24">
      <g>
       <use style="stroke:#000000;stroke-width:0.8;" x="374.492042" xlink:href="#mbaf62544e5" y="245.210231"/>
      </g>
     </g>
     <g id="text_24">
      <!-- 1.5 -->
      <g transform="translate(351.588917 249.00945)scale(0.1 -0.1)">
       <use xlink:href="#DejaVuSans-49"/>
       <use x="63.623047" xlink:href="#DejaVuSans-46"/>
       <use x="95.410156" xlink:href="#DejaVuSans-53"/>
      </g>
     </g>
    </g>
    <g id="ytick_17">
     <g id="line2d_25">
      <g>
       <use style="stroke:#000000;stroke-width:0.8;" x="374.492042" xlink:href="#mbaf62544e5" y="188.810752"/>
      </g>
     </g>
     <g id="text_25">
      <!-- 2.0 -->
      <g transform="translate(351.588917 192.609971)scale(0.1 -0.1)">
       <use xlink:href="#DejaVuSans-50"/>
       <use x="63.623047" xlink:href="#DejaVuSans-46"/>
       <use x="95.410156" xlink:href="#DejaVuSans-48"/>
      </g>
     </g>
    </g>
    <g id="ytick_18">
     <g id="line2d_26">
      <g>
       <use style="stroke:#000000;stroke-width:0.8;" x="374.492042" xlink:href="#mbaf62544e5" y="132.411274"/>
      </g>
     </g>
     <g id="text_26">
      <!-- 2.5 -->
      <g transform="translate(351.588917 136.210493)scale(0.1 -0.1)">
       <use xlink:href="#DejaVuSans-50"/>
       <use x="63.623047" xlink:href="#DejaVuSans-46"/>
       <use x="95.410156" xlink:href="#DejaVuSans-53"/>
      </g>
     </g>
    </g>
    <g id="ytick_19">
     <g id="line2d_27">
      <g>
       <use style="stroke:#000000;stroke-width:0.8;" x="374.492042" xlink:href="#mbaf62544e5" y="76.011795"/>
      </g>
     </g>
     <g id="text_27">
      <!-- 3.0 -->
      <g transform="translate(351.588917 79.811014)scale(0.1 -0.1)">
       <use xlink:href="#DejaVuSans-51"/>
       <use x="63.623047" xlink:href="#DejaVuSans-46"/>
       <use x="95.410156" xlink:href="#DejaVuSans-48"/>
      </g>
     </g>
    </g>
    <g id="ytick_20">
     <g id="line2d_28">
      <g>
       <use style="stroke:#000000;stroke-width:0.8;" x="374.492042" xlink:href="#mbaf62544e5" y="19.612317"/>
      </g>
     </g>
     <g id="text_28">
      <!-- 3.5 -->
      <g transform="translate(351.588917 23.411536)scale(0.1 -0.1)">
       <use xlink:href="#DejaVuSans-51"/>
       <use x="63.623047" xlink:href="#DejaVuSans-46"/>
       <use x="95.410156" xlink:href="#DejaVuSans-53"/>
      </g>
     </g>
    </g>
   </g>
   <g id="line2d_29">
    <path clip-path="url(#p6df5f5e959)" d="M 378.252812 32.109423 
L 379.079355 58.983201 
L 379.905898 78.750499 
L 380.73244 114.978404 
L 381.558983 121.930797 
L 382.385526 128.73387 
L 383.212069 136.620469 
L 384.038612 143.480926 
L 384.865154 149.796195 
L 385.691697 154.989717 
L 386.51824 160.915241 
L 387.344783 168.84306 
L 388.171326 176.700759 
L 388.997869 184.188878 
L 389.824411 190.367123 
L 390.650954 194.814498 
L 391.477497 198.245068 
L 392.30404 200.093584 
L 393.130583 200.029114 
L 393.957126 199.820544 
L 394.783668 199.320592 
L 395.610211 199.450858 
L 396.436754 202.231333 
L 397.263297 207.429941 
L 398.08984 214.386856 
L 398.916383 222.694615 
L 399.742925 231.395175 
L 400.569468 240.287326 
L 401.396011 249.142087 
L 402.222554 255.903398 
L 403.049097 259.855101 
L 403.875639 261.564943 
L 404.702182 261.04526 
L 405.528725 258.544182 
L 406.355268 255.348226 
L 407.181811 251.639804 
L 408.008354 248.166961 
L 408.834896 245.002163 
L 409.661439 241.526373 
L 410.487982 238.437906 
L 411.314525 236.244271 
L 412.141068 233.767732 
L 412.967611 231.136035 
L 413.794153 229.505149 
L 414.620696 229.701596 
L 415.447239 231.878864 
L 416.273782 234.869528 
L 417.100325 237.99534 
L 417.926868 241.780501 
L 418.75341 246.333334 
L 419.579953 250.306926 
L 420.406496 252.324093 
L 421.233039 252.135708 
L 422.059582 250.684063 
L 422.886125 248.244443 
L 423.712667 244.630953 
L 424.53921 239.56333 
L 425.365753 234.256877 
L 426.192296 230.622397 
L 427.018839 229.256566 
L 427.845381 229.61384 
L 428.671924 231.791619 
L 429.498467 235.682592 
L 430.32501 241.691717 
L 431.151553 249.373506 
L 431.978096 257.385782 
L 432.804638 264.589425 
L 433.631181 270.652251 
L 434.457724 275.105461 
L 435.284267 278.050868 
L 436.11081 279.066885 
L 436.937353 278.192923 
L 437.763895 276.307988 
L 438.590438 275.028259 
L 439.416981 275.450382 
L 440.243524 277.732563 
L 441.070067 281.692043 
L 441.89661 287.032639 
L 442.723152 293.496022 
L 443.549695 300.576434 
L 444.376238 306.522955 
L 445.202781 310.14389 
L 446.029324 311.930577 
L 446.855866 310.743539 
L 447.682409 307.380042 
L 448.508952 302.661466 
L 449.335495 296.336479 
L 450.162038 290.74753 
L 450.988581 286.753788 
L 451.815123 282.143765 
L 452.641666 279.659088 
L 453.468209 278.53287 
" style="fill:none;stroke:#ff0000;stroke-linecap:square;stroke-width:1.5;"/>
   </g>
   <g id="patch_197">
    <path d="M 374.492042 325.921635 
L 374.492042 18.118365 
" style="fill:none;stroke:#000000;stroke-linecap:square;stroke-linejoin:miter;stroke-width:0.8;"/>
   </g>
   <g id="patch_198">
    <path d="M 457.228979 325.921635 
L 457.228979 18.118365 
" style="fill:none;stroke:#000000;stroke-linecap:square;stroke-linejoin:miter;stroke-width:0.8;"/>
   </g>
   <g id="patch_199">
    <path d="M 374.492042 325.921635 
L 457.228979 325.921635 
" style="fill:none;stroke:#000000;stroke-linecap:square;stroke-linejoin:miter;stroke-width:0.8;"/>
   </g>
   <g id="patch_200">
    <path d="M 374.492042 18.118365 
L 457.228979 18.118365 
" style="fill:none;stroke:#000000;stroke-linecap:square;stroke-linejoin:miter;stroke-width:0.8;"/>
   </g>
   <g id="text_29">
    <!-- r0 - MA - (data) -->
    <defs>
     <path d="M 41.109375 46.296875 
Q 39.59375 47.171875 37.8125 47.578125 
Q 36.03125 48 33.890625 48 
Q 26.265625 48 22.1875 43.046875 
Q 18.109375 38.09375 18.109375 28.8125 
L 18.109375 0 
L 9.078125 0 
L 9.078125 54.6875 
L 18.109375 54.6875 
L 18.109375 46.1875 
Q 20.953125 51.171875 25.484375 53.578125 
Q 30.03125 56 36.53125 56 
Q 37.453125 56 38.578125 55.875 
Q 39.703125 55.765625 41.0625 55.515625 
z
" id="DejaVuSans-114"/>
    </defs>
    <g transform="translate(370.141448 12.118365)scale(0.12 -0.12)">
     <use xlink:href="#DejaVuSans-114"/>
     <use x="41.113281" xlink:href="#DejaVuSans-48"/>
     <use x="104.736328" xlink:href="#DejaVuSans-32"/>
     <use x="136.523438" xlink:href="#DejaVuSans-45"/>
     <use x="172.607422" xlink:href="#DejaVuSans-32"/>
     <use x="204.394531" xlink:href="#DejaVuSans-77"/>
     <use x="290.673828" xlink:href="#DejaVuSans-65"/>
     <use x="359.082031" xlink:href="#DejaVuSans-32"/>
     <use x="390.869141" xlink:href="#DejaVuSans-45"/>
     <use x="426.953125" xlink:href="#DejaVuSans-32"/>
     <use x="458.740234" xlink:href="#DejaVuSans-40"/>
     <use x="497.753906" xlink:href="#DejaVuSans-100"/>
     <use x="561.230469" xlink:href="#DejaVuSans-97"/>
     <use x="622.509766" xlink:href="#DejaVuSans-116"/>
     <use x="661.71875" xlink:href="#DejaVuSans-97"/>
     <use x="722.998047" xlink:href="#DejaVuSans-41"/>
    </g>
   </g>
  </g>
 </g>
 <defs>
  <clipPath id="pdb62dcea65">
   <rect height="307.80327" width="82.736937" x="53.357896" y="18.118365"/>
  </clipPath>
  <clipPath id="p7f1ba885dd">
   <rect height="307.80327" width="82.736937" x="227.974969" y="18.118365"/>
  </clipPath>
  <clipPath id="p6df5f5e959">
   <rect height="307.80327" width="82.736937" x="374.492042" y="18.118365"/>
  </clipPath>
 </defs>
</svg>
