<?xml version="1.0" encoding="utf-8" standalone="no"?>
<!DOCTYPE svg PUBLIC "-//W3C//DTD SVG 1.1//EN"
  "http://www.w3.org/Graphics/SVG/1.1/DTD/svg11.dtd">
<!-- Created with matplotlib (https://matplotlib.org/) -->
<svg height="345.6pt" version="1.1" viewBox="0 0 460.8 345.6" width="460.8pt" xmlns="http://www.w3.org/2000/svg" xmlns:xlink="http://www.w3.org/1999/xlink">
 <defs>
  <style type="text/css">
*{stroke-linecap:butt;stroke-linejoin:round;}
  </style>
 </defs>
 <g id="figure_1">
  <g id="patch_1">
   <path d="M 0 345.6 
L 460.8 345.6 
L 460.8 0 
L 0 0 
z
" style="fill:#ffffff;"/>
  </g>
  <g id="axes_1">
   <g id="patch_2">
    <path d="M 55.490865 137.71551 
L 228.27701 137.71551 
L 228.27701 18.118365 
L 55.490865 18.118365 
z
" style="fill:#ffffff;"/>
   </g>
   <g id="patch_3">
    <path clip-path="url(#p2b9b5532b5)" d="M 63.344781 137.71551 
L 64.713655 137.71551 
L 64.713655 137.71229 
L 63.344781 137.71229 
z
" style="fill:#1f77b4;"/>
   </g>
   <g id="patch_4">
    <path clip-path="url(#p2b9b5532b5)" d="M 65.055873 137.71551 
L 66.424748 137.71551 
L 66.424748 137.71229 
L 65.055873 137.71229 
z
" style="fill:#1f77b4;"/>
   </g>
   <g id="patch_5">
    <path clip-path="url(#p2b9b5532b5)" d="M 66.766966 137.71551 
L 68.13584 137.71551 
L 68.13584 137.702631 
L 66.766966 137.702631 
z
" style="fill:#1f77b4;"/>
   </g>
   <g id="patch_6">
    <path clip-path="url(#p2b9b5532b5)" d="M 68.478059 137.71551 
L 69.846933 137.71551 
L 69.846933 137.702631 
L 68.478059 137.702631 
z
" style="fill:#1f77b4;"/>
   </g>
   <g id="patch_7">
    <path clip-path="url(#p2b9b5532b5)" d="M 70.189152 137.71551 
L 71.558026 137.71551 
L 71.558026 137.699411 
L 70.189152 137.699411 
z
" style="fill:#1f77b4;"/>
   </g>
   <g id="patch_8">
    <path clip-path="url(#p2b9b5532b5)" d="M 71.900244 137.71551 
L 73.269119 137.71551 
L 73.269119 137.694582 
L 71.900244 137.694582 
z
" style="fill:#1f77b4;"/>
   </g>
   <g id="patch_9">
    <path clip-path="url(#p2b9b5532b5)" d="M 73.611337 137.71551 
L 74.980211 137.71551 
L 74.980211 137.692972 
L 73.611337 137.692972 
z
" style="fill:#1f77b4;"/>
   </g>
   <g id="patch_10">
    <path clip-path="url(#p2b9b5532b5)" d="M 75.32243 137.71551 
L 76.691304 137.71551 
L 76.691304 137.689752 
L 75.32243 137.689752 
z
" style="fill:#1f77b4;"/>
   </g>
   <g id="patch_11">
    <path clip-path="url(#p2b9b5532b5)" d="M 77.033523 137.71551 
L 78.402397 137.71551 
L 78.402397 137.678483 
L 77.033523 137.678483 
z
" style="fill:#1f77b4;"/>
   </g>
   <g id="patch_12">
    <path clip-path="url(#p2b9b5532b5)" d="M 78.744615 137.71551 
L 80.11349 137.71551 
L 80.11349 137.665604 
L 78.744615 137.665604 
z
" style="fill:#1f77b4;"/>
   </g>
   <g id="patch_13">
    <path clip-path="url(#p2b9b5532b5)" d="M 80.455708 137.71551 
L 81.824582 137.71551 
L 81.824582 137.631797 
L 80.455708 137.631797 
z
" style="fill:#1f77b4;"/>
   </g>
   <g id="patch_14">
    <path clip-path="url(#p2b9b5532b5)" d="M 82.166801 137.71551 
L 83.535675 137.71551 
L 83.535675 137.60121 
L 82.166801 137.60121 
z
" style="fill:#1f77b4;"/>
   </g>
   <g id="patch_15">
    <path clip-path="url(#p2b9b5532b5)" d="M 83.877894 137.71551 
L 85.246768 137.71551 
L 85.246768 137.585112 
L 83.877894 137.585112 
z
" style="fill:#1f77b4;"/>
   </g>
   <g id="patch_16">
    <path clip-path="url(#p2b9b5532b5)" d="M 85.588986 137.71551 
L 86.957861 137.71551 
L 86.957861 137.573843 
L 85.588986 137.573843 
z
" style="fill:#1f77b4;"/>
   </g>
   <g id="patch_17">
    <path clip-path="url(#p2b9b5532b5)" d="M 87.300079 137.71551 
L 88.668953 137.71551 
L 88.668953 137.560964 
L 87.300079 137.560964 
z
" style="fill:#1f77b4;"/>
   </g>
   <g id="patch_18">
    <path clip-path="url(#p2b9b5532b5)" d="M 89.011172 137.71551 
L 90.380046 137.71551 
L 90.380046 137.501399 
L 89.011172 137.501399 
z
" style="fill:#1f77b4;"/>
   </g>
   <g id="patch_19">
    <path clip-path="url(#p2b9b5532b5)" d="M 90.722265 137.71551 
L 92.091139 137.71551 
L 92.091139 137.438615 
L 90.722265 137.438615 
z
" style="fill:#1f77b4;"/>
   </g>
   <g id="patch_20">
    <path clip-path="url(#p2b9b5532b5)" d="M 92.433357 137.71551 
L 93.802231 137.71551 
L 93.802231 137.345243 
L 92.433357 137.345243 
z
" style="fill:#1f77b4;"/>
   </g>
   <g id="patch_21">
    <path clip-path="url(#p2b9b5532b5)" d="M 94.14445 137.71551 
L 95.513324 137.71551 
L 95.513324 137.276019 
L 94.14445 137.276019 
z
" style="fill:#1f77b4;"/>
   </g>
   <g id="patch_22">
    <path clip-path="url(#p2b9b5532b5)" d="M 95.855543 137.71551 
L 97.224417 137.71551 
L 97.224417 137.243822 
L 95.855543 137.243822 
z
" style="fill:#1f77b4;"/>
   </g>
   <g id="patch_23">
    <path clip-path="url(#p2b9b5532b5)" d="M 97.566636 137.71551 
L 98.93551 137.71551 
L 98.93551 137.161719 
L 97.566636 137.161719 
z
" style="fill:#1f77b4;"/>
   </g>
   <g id="patch_24">
    <path clip-path="url(#p2b9b5532b5)" d="M 99.277728 137.71551 
L 100.646602 137.71551 
L 100.646602 137.074787 
L 99.277728 137.074787 
z
" style="fill:#1f77b4;"/>
   </g>
   <g id="patch_25">
    <path clip-path="url(#p2b9b5532b5)" d="M 100.988821 137.71551 
L 102.357695 137.71551 
L 102.357695 136.999124 
L 100.988821 136.999124 
z
" style="fill:#1f77b4;"/>
   </g>
   <g id="patch_26">
    <path clip-path="url(#p2b9b5532b5)" d="M 102.699914 137.71551 
L 104.068788 137.71551 
L 104.068788 136.945998 
L 102.699914 136.945998 
z
" style="fill:#1f77b4;"/>
   </g>
   <g id="patch_27">
    <path clip-path="url(#p2b9b5532b5)" d="M 104.411006 137.71551 
L 105.779881 137.71551 
L 105.779881 136.7013 
L 104.411006 136.7013 
z
" style="fill:#1f77b4;"/>
   </g>
   <g id="patch_28">
    <path clip-path="url(#p2b9b5532b5)" d="M 106.122099 137.71551 
L 107.490973 137.71551 
L 107.490973 136.596659 
L 106.122099 136.596659 
z
" style="fill:#1f77b4;"/>
   </g>
   <g id="patch_29">
    <path clip-path="url(#p2b9b5532b5)" d="M 107.833192 137.71551 
L 109.202066 137.71551 
L 109.202066 136.432454 
L 107.833192 136.432454 
z
" style="fill:#1f77b4;"/>
   </g>
   <g id="patch_30">
    <path clip-path="url(#p2b9b5532b5)" d="M 109.544285 137.71551 
L 110.913159 137.71551 
L 110.913159 136.041259 
L 109.544285 136.041259 
z
" style="fill:#1f77b4;"/>
   </g>
   <g id="patch_31">
    <path clip-path="url(#p2b9b5532b5)" d="M 111.255377 137.71551 
L 112.624252 137.71551 
L 112.624252 135.775632 
L 111.255377 135.775632 
z
" style="fill:#1f77b4;"/>
   </g>
   <g id="patch_32">
    <path clip-path="url(#p2b9b5532b5)" d="M 112.96647 137.71551 
L 114.335344 137.71551 
L 114.335344 135.590499 
L 112.96647 135.590499 
z
" style="fill:#1f77b4;"/>
   </g>
   <g id="patch_33">
    <path clip-path="url(#p2b9b5532b5)" d="M 114.677563 137.71551 
L 116.046437 137.71551 
L 116.046437 135.46815 
L 114.677563 135.46815 
z
" style="fill:#1f77b4;"/>
   </g>
   <g id="patch_34">
    <path clip-path="url(#p2b9b5532b5)" d="M 116.388656 137.71551 
L 117.75753 137.71551 
L 117.75753 135.133299 
L 116.388656 135.133299 
z
" style="fill:#1f77b4;"/>
   </g>
   <g id="patch_35">
    <path clip-path="url(#p2b9b5532b5)" d="M 118.099748 137.71551 
L 119.468623 137.71551 
L 119.468623 134.886991 
L 118.099748 134.886991 
z
" style="fill:#1f77b4;"/>
   </g>
   <g id="patch_36">
    <path clip-path="url(#p2b9b5532b5)" d="M 119.810841 137.71551 
L 121.179715 137.71551 
L 121.179715 134.574679 
L 119.810841 134.574679 
z
" style="fill:#1f77b4;"/>
   </g>
   <g id="patch_37">
    <path clip-path="url(#p2b9b5532b5)" d="M 121.521934 137.71551 
L 122.890808 137.71551 
L 122.890808 134.326761 
L 121.521934 134.326761 
z
" style="fill:#1f77b4;"/>
   </g>
   <g id="patch_38">
    <path clip-path="url(#p2b9b5532b5)" d="M 123.233027 137.71551 
L 124.601901 137.71551 
L 124.601901 134.136798 
L 123.233027 134.136798 
z
" style="fill:#1f77b4;"/>
   </g>
   <g id="patch_39">
    <path clip-path="url(#p2b9b5532b5)" d="M 124.944119 137.71551 
L 126.312994 137.71551 
L 126.312994 133.835755 
L 124.944119 133.835755 
z
" style="fill:#1f77b4;"/>
   </g>
   <g id="patch_40">
    <path clip-path="url(#p2b9b5532b5)" d="M 126.655212 137.71551 
L 128.024086 137.71551 
L 128.024086 133.645791 
L 126.655212 133.645791 
z
" style="fill:#1f77b4;"/>
   </g>
   <g id="patch_41">
    <path clip-path="url(#p2b9b5532b5)" d="M 128.366305 137.71551 
L 129.735179 137.71551 
L 129.735179 133.201471 
L 128.366305 133.201471 
z
" style="fill:#1f77b4;"/>
   </g>
   <g id="patch_42">
    <path clip-path="url(#p2b9b5532b5)" d="M 130.077398 137.71551 
L 131.446272 137.71551 
L 131.446272 132.580066 
L 130.077398 132.580066 
z
" style="fill:#1f77b4;"/>
   </g>
   <g id="patch_43">
    <path clip-path="url(#p2b9b5532b5)" d="M 131.78849 137.71551 
L 133.157365 137.71551 
L 133.157365 132.071351 
L 131.78849 132.071351 
z
" style="fill:#1f77b4;"/>
   </g>
   <g id="patch_44">
    <path clip-path="url(#p2b9b5532b5)" d="M 133.499583 137.71551 
L 134.868457 137.71551 
L 134.868457 131.590004 
L 133.499583 131.590004 
z
" style="fill:#1f77b4;"/>
   </g>
   <g id="patch_45">
    <path clip-path="url(#p2b9b5532b5)" d="M 135.210676 137.71551 
L 136.57955 137.71551 
L 136.57955 131.211688 
L 135.210676 131.211688 
z
" style="fill:#1f77b4;"/>
   </g>
   <g id="patch_46">
    <path clip-path="url(#p2b9b5532b5)" d="M 136.921769 137.71551 
L 138.290643 137.71551 
L 138.290643 130.910644 
L 136.921769 130.910644 
z
" style="fill:#1f77b4;"/>
   </g>
   <g id="patch_47">
    <path clip-path="url(#p2b9b5532b5)" d="M 138.632861 137.71551 
L 140.001735 137.71551 
L 140.001735 130.422858 
L 138.632861 130.422858 
z
" style="fill:#1f77b4;"/>
   </g>
   <g id="patch_48">
    <path clip-path="url(#p2b9b5532b5)" d="M 140.343954 137.71551 
L 141.712828 137.71551 
L 141.712828 129.621149 
L 140.343954 129.621149 
z
" style="fill:#1f77b4;"/>
   </g>
   <g id="patch_49">
    <path clip-path="url(#p2b9b5532b5)" d="M 142.055047 137.71551 
L 143.423921 137.71551 
L 143.423921 129.03999 
L 142.055047 129.03999 
z
" style="fill:#1f77b4;"/>
   </g>
   <g id="patch_50">
    <path clip-path="url(#p2b9b5532b5)" d="M 143.76614 137.71551 
L 145.135014 137.71551 
L 145.135014 128.202865 
L 143.76614 128.202865 
z
" style="fill:#1f77b4;"/>
   </g>
   <g id="patch_51">
    <path clip-path="url(#p2b9b5532b5)" d="M 145.477232 137.71551 
L 146.846106 137.71551 
L 146.846106 126.824827 
L 145.477232 126.824827 
z
" style="fill:#1f77b4;"/>
   </g>
   <g id="patch_52">
    <path clip-path="url(#p2b9b5532b5)" d="M 147.188325 137.71551 
L 148.557199 137.71551 
L 148.557199 125.482206 
L 147.188325 125.482206 
z
" style="fill:#1f77b4;"/>
   </g>
   <g id="patch_53">
    <path clip-path="url(#p2b9b5532b5)" d="M 148.899418 137.71551 
L 150.268292 137.71551 
L 150.268292 124.604834 
L 148.899418 124.604834 
z
" style="fill:#1f77b4;"/>
   </g>
   <g id="patch_54">
    <path clip-path="url(#p2b9b5532b5)" d="M 150.61051 137.71551 
L 151.979385 137.71551 
L 151.979385 123.989869 
L 150.61051 123.989869 
z
" style="fill:#1f77b4;"/>
   </g>
   <g id="patch_55">
    <path clip-path="url(#p2b9b5532b5)" d="M 152.321603 137.71551 
L 153.690477 137.71551 
L 153.690477 123.046493 
L 152.321603 123.046493 
z
" style="fill:#1f77b4;"/>
   </g>
   <g id="patch_56">
    <path clip-path="url(#p2b9b5532b5)" d="M 154.032696 137.71551 
L 155.40157 137.71551 
L 155.40157 121.937301 
L 154.032696 121.937301 
z
" style="fill:#1f77b4;"/>
   </g>
   <g id="patch_57">
    <path clip-path="url(#p2b9b5532b5)" d="M 155.743789 137.71551 
L 157.112663 137.71551 
L 157.112663 120.427255 
L 155.743789 120.427255 
z
" style="fill:#1f77b4;"/>
   </g>
   <g id="patch_58">
    <path clip-path="url(#p2b9b5532b5)" d="M 157.454881 137.71551 
L 158.823756 137.71551 
L 158.823756 119.054047 
L 157.454881 119.054047 
z
" style="fill:#1f77b4;"/>
   </g>
   <g id="patch_59">
    <path clip-path="url(#p2b9b5532b5)" d="M 159.165974 137.71551 
L 160.534848 137.71551 
L 160.534848 117.605176 
L 159.165974 117.605176 
z
" style="fill:#1f77b4;"/>
   </g>
   <g id="patch_60">
    <path clip-path="url(#p2b9b5532b5)" d="M 160.877067 137.71551 
L 162.245941 137.71551 
L 162.245941 116.404222 
L 160.877067 116.404222 
z
" style="fill:#1f77b4;"/>
   </g>
   <g id="patch_61">
    <path clip-path="url(#p2b9b5532b5)" d="M 162.58816 137.71551 
L 163.957034 137.71551 
L 163.957034 114.85876 
L 162.58816 114.85876 
z
" style="fill:#1f77b4;"/>
   </g>
   <g id="patch_62">
    <path clip-path="url(#p2b9b5532b5)" d="M 164.299252 137.71551 
L 165.668127 137.71551 
L 165.668127 113.384131 
L 164.299252 113.384131 
z
" style="fill:#1f77b4;"/>
   </g>
   <g id="patch_63">
    <path clip-path="url(#p2b9b5532b5)" d="M 166.010345 137.71551 
L 167.379219 137.71551 
L 167.379219 111.864425 
L 166.010345 111.864425 
z
" style="fill:#1f77b4;"/>
   </g>
   <g id="patch_64">
    <path clip-path="url(#p2b9b5532b5)" d="M 167.721438 137.71551 
L 169.090312 137.71551 
L 169.090312 110.00665 
L 167.721438 110.00665 
z
" style="fill:#1f77b4;"/>
   </g>
   <g id="patch_65">
    <path clip-path="url(#p2b9b5532b5)" d="M 169.432531 137.71551 
L 170.801405 137.71551 
L 170.801405 107.503323 
L 169.432531 107.503323 
z
" style="fill:#1f77b4;"/>
   </g>
   <g id="patch_66">
    <path clip-path="url(#p2b9b5532b5)" d="M 171.143623 137.71551 
L 172.512498 137.71551 
L 172.512498 103.601029 
L 171.143623 103.601029 
z
" style="fill:#1f77b4;"/>
   </g>
   <g id="patch_67">
    <path clip-path="url(#p2b9b5532b5)" d="M 172.854716 137.71551 
L 174.22359 137.71551 
L 174.22359 101.033307 
L 172.854716 101.033307 
z
" style="fill:#1f77b4;"/>
   </g>
   <g id="patch_68">
    <path clip-path="url(#p2b9b5532b5)" d="M 174.565809 137.71551 
L 175.934683 137.71551 
L 175.934683 98.631401 
L 174.565809 98.631401 
z
" style="fill:#1f77b4;"/>
   </g>
   <g id="patch_69">
    <path clip-path="url(#p2b9b5532b5)" d="M 176.276902 137.71551 
L 177.645776 137.71551 
L 177.645776 95.625797 
L 176.276902 95.625797 
z
" style="fill:#1f77b4;"/>
   </g>
   <g id="patch_70">
    <path clip-path="url(#p2b9b5532b5)" d="M 177.987994 137.71551 
L 179.356869 137.71551 
L 179.356869 92.67332 
L 177.987994 92.67332 
z
" style="fill:#1f77b4;"/>
   </g>
   <g id="patch_71">
    <path clip-path="url(#p2b9b5532b5)" d="M 179.699087 137.71551 
L 181.067961 137.71551 
L 181.067961 88.643847 
L 179.699087 88.643847 
z
" style="fill:#1f77b4;"/>
   </g>
   <g id="patch_72">
    <path clip-path="url(#p2b9b5532b5)" d="M 181.41018 137.71551 
L 182.779054 137.71551 
L 182.779054 85.201973 
L 181.41018 85.201973 
z
" style="fill:#1f77b4;"/>
   </g>
   <g id="patch_73">
    <path clip-path="url(#p2b9b5532b5)" d="M 183.121273 137.71551 
L 184.490147 137.71551 
L 184.490147 81.951672 
L 183.121273 81.951672 
z
" style="fill:#1f77b4;"/>
   </g>
   <g id="patch_74">
    <path clip-path="url(#p2b9b5532b5)" d="M 184.832365 137.71551 
L 186.201239 137.71551 
L 186.201239 80.892386 
L 184.832365 80.892386 
z
" style="fill:#1f77b4;"/>
   </g>
   <g id="patch_75">
    <path clip-path="url(#p2b9b5532b5)" d="M 186.543458 137.71551 
L 187.912332 137.71551 
L 187.912332 78.754496 
L 186.543458 78.754496 
z
" style="fill:#1f77b4;"/>
   </g>
   <g id="patch_76">
    <path clip-path="url(#p2b9b5532b5)" d="M 188.254551 137.71551 
L 189.623425 137.71551 
L 189.623425 76.260827 
L 188.254551 76.260827 
z
" style="fill:#1f77b4;"/>
   </g>
   <g id="patch_77">
    <path clip-path="url(#p2b9b5532b5)" d="M 189.965644 137.71551 
L 191.334518 137.71551 
L 191.334518 72.308628 
L 189.965644 72.308628 
z
" style="fill:#1f77b4;"/>
   </g>
   <g id="patch_78">
    <path clip-path="url(#p2b9b5532b5)" d="M 191.676736 137.71551 
L 193.04561 137.71551 
L 193.04561 67.987772 
L 191.676736 67.987772 
z
" style="fill:#1f77b4;"/>
   </g>
   <g id="patch_79">
    <path clip-path="url(#p2b9b5532b5)" d="M 193.387829 137.71551 
L 194.756703 137.71551 
L 194.756703 64.51531 
L 193.387829 64.51531 
z
" style="fill:#1f77b4;"/>
   </g>
   <g id="patch_80">
    <path clip-path="url(#p2b9b5532b5)" d="M 195.098922 137.71551 
L 196.467796 137.71551 
L 196.467796 61.097583 
L 195.098922 61.097583 
z
" style="fill:#1f77b4;"/>
   </g>
   <g id="patch_81">
    <path clip-path="url(#p2b9b5532b5)" d="M 196.810014 137.71551 
L 198.178889 137.71551 
L 198.178889 58.235258 
L 196.810014 58.235258 
z
" style="fill:#1f77b4;"/>
   </g>
   <g id="patch_82">
    <path clip-path="url(#p2b9b5532b5)" d="M 198.521107 137.71551 
L 199.889981 137.71551 
L 199.889981 53.891863 
L 198.521107 53.891863 
z
" style="fill:#1f77b4;"/>
   </g>
   <g id="patch_83">
    <path clip-path="url(#p2b9b5532b5)" d="M 200.2322 137.71551 
L 201.601074 137.71551 
L 201.601074 51.575279 
L 200.2322 51.575279 
z
" style="fill:#1f77b4;"/>
   </g>
   <g id="patch_84">
    <path clip-path="url(#p2b9b5532b5)" d="M 201.943293 137.71551 
L 203.312167 137.71551 
L 203.312167 48.078669 
L 201.943293 48.078669 
z
" style="fill:#1f77b4;"/>
   </g>
   <g id="patch_85">
    <path clip-path="url(#p2b9b5532b5)" d="M 203.654385 137.71551 
L 205.02326 137.71551 
L 205.02326 44.979695 
L 203.654385 44.979695 
z
" style="fill:#1f77b4;"/>
   </g>
   <g id="patch_86">
    <path clip-path="url(#p2b9b5532b5)" d="M 205.365478 137.71551 
L 206.734352 137.71551 
L 206.734352 42.960934 
L 205.365478 42.960934 
z
" style="fill:#1f77b4;"/>
   </g>
   <g id="patch_87">
    <path clip-path="url(#p2b9b5532b5)" d="M 207.076571 137.71551 
L 208.445445 137.71551 
L 208.445445 41.365566 
L 207.076571 41.365566 
z
" style="fill:#1f77b4;"/>
   </g>
   <g id="patch_88">
    <path clip-path="url(#p2b9b5532b5)" d="M 208.787664 137.71551 
L 210.156538 137.71551 
L 210.156538 40.171052 
L 208.787664 40.171052 
z
" style="fill:#1f77b4;"/>
   </g>
   <g id="patch_89">
    <path clip-path="url(#p2b9b5532b5)" d="M 210.498756 137.71551 
L 211.867631 137.71551 
L 211.867631 36.759765 
L 210.498756 36.759765 
z
" style="fill:#1f77b4;"/>
   </g>
   <g id="patch_90">
    <path clip-path="url(#p2b9b5532b5)" d="M 212.209849 137.71551 
L 213.578723 137.71551 
L 213.578723 33.501414 
L 212.209849 33.501414 
z
" style="fill:#1f77b4;"/>
   </g>
   <g id="patch_91">
    <path clip-path="url(#p2b9b5532b5)" d="M 213.920942 137.71551 
L 215.289816 137.71551 
L 215.289816 31.318448 
L 213.920942 31.318448 
z
" style="fill:#1f77b4;"/>
   </g>
   <g id="patch_92">
    <path clip-path="url(#p2b9b5532b5)" d="M 215.632035 137.71551 
L 217.000909 137.71551 
L 217.000909 27.440302 
L 215.632035 27.440302 
z
" style="fill:#1f77b4;"/>
   </g>
   <g id="patch_93">
    <path clip-path="url(#p2b9b5532b5)" d="M 217.343127 137.71551 
L 218.712002 137.71551 
L 218.712002 25.55194 
L 217.343127 25.55194 
z
" style="fill:#1f77b4;"/>
   </g>
   <g id="patch_94">
    <path clip-path="url(#p2b9b5532b5)" d="M 219.05422 137.71551 
L 220.423094 137.71551 
L 220.423094 24.930535 
L 219.05422 24.930535 
z
" style="fill:#1f77b4;"/>
   </g>
   <g id="matplotlib.axis_1">
    <g id="xtick_1">
     <g id="line2d_1">
      <defs>
       <path d="M 0 0 
L 0 3.5 
" id="mf759f9d08e" style="stroke:#000000;stroke-width:0.8;"/>
      </defs>
      <g>
       <use style="stroke:#000000;stroke-width:0.8;" x="64.029218" xlink:href="#mf759f9d08e" y="137.71551"/>
      </g>
     </g>
     <g id="text_1">
      <!-- 0 -->
      <defs>
       <path d="M 31.78125 66.40625 
Q 24.171875 66.40625 20.328125 58.90625 
Q 16.5 51.421875 16.5 36.375 
Q 16.5 21.390625 20.328125 13.890625 
Q 24.171875 6.390625 31.78125 6.390625 
Q 39.453125 6.390625 43.28125 13.890625 
Q 47.125 21.390625 47.125 36.375 
Q 47.125 51.421875 43.28125 58.90625 
Q 39.453125 66.40625 31.78125 66.40625 
z
M 31.78125 74.21875 
Q 44.046875 74.21875 50.515625 64.515625 
Q 56.984375 54.828125 56.984375 36.375 
Q 56.984375 17.96875 50.515625 8.265625 
Q 44.046875 -1.421875 31.78125 -1.421875 
Q 19.53125 -1.421875 13.0625 8.265625 
Q 6.59375 17.96875 6.59375 36.375 
Q 6.59375 54.828125 13.0625 64.515625 
Q 19.53125 74.21875 31.78125 74.21875 
z
" id="DejaVuSans-48"/>
      </defs>
      <g transform="translate(60.847968 152.313947)scale(0.1 -0.1)">
       <use xlink:href="#DejaVuSans-48"/>
      </g>
     </g>
    </g>
    <g id="xtick_2">
     <g id="line2d_2">
      <g>
       <use style="stroke:#000000;stroke-width:0.8;" x="106.806536" xlink:href="#mf759f9d08e" y="137.71551"/>
      </g>
     </g>
     <g id="text_2">
      <!-- 25 -->
      <defs>
       <path d="M 19.1875 8.296875 
L 53.609375 8.296875 
L 53.609375 0 
L 7.328125 0 
L 7.328125 8.296875 
Q 12.9375 14.109375 22.625 23.890625 
Q 32.328125 33.6875 34.8125 36.53125 
Q 39.546875 41.84375 41.421875 45.53125 
Q 43.3125 49.21875 43.3125 52.78125 
Q 43.3125 58.59375 39.234375 62.25 
Q 35.15625 65.921875 28.609375 65.921875 
Q 23.96875 65.921875 18.8125 64.3125 
Q 13.671875 62.703125 7.8125 59.421875 
L 7.8125 69.390625 
Q 13.765625 71.78125 18.9375 73 
Q 24.125 74.21875 28.421875 74.21875 
Q 39.75 74.21875 46.484375 68.546875 
Q 53.21875 62.890625 53.21875 53.421875 
Q 53.21875 48.921875 51.53125 44.890625 
Q 49.859375 40.875 45.40625 35.40625 
Q 44.1875 33.984375 37.640625 27.21875 
Q 31.109375 20.453125 19.1875 8.296875 
z
" id="DejaVuSans-50"/>
       <path d="M 10.796875 72.90625 
L 49.515625 72.90625 
L 49.515625 64.59375 
L 19.828125 64.59375 
L 19.828125 46.734375 
Q 21.96875 47.46875 24.109375 47.828125 
Q 26.265625 48.1875 28.421875 48.1875 
Q 40.625 48.1875 47.75 41.5 
Q 54.890625 34.8125 54.890625 23.390625 
Q 54.890625 11.625 47.5625 5.09375 
Q 40.234375 -1.421875 26.90625 -1.421875 
Q 22.3125 -1.421875 17.546875 -0.640625 
Q 12.796875 0.140625 7.71875 1.703125 
L 7.71875 11.625 
Q 12.109375 9.234375 16.796875 8.0625 
Q 21.484375 6.890625 26.703125 6.890625 
Q 35.15625 6.890625 40.078125 11.328125 
Q 45.015625 15.765625 45.015625 23.390625 
Q 45.015625 31 40.078125 35.4375 
Q 35.15625 39.890625 26.703125 39.890625 
Q 22.75 39.890625 18.8125 39.015625 
Q 14.890625 38.140625 10.796875 36.28125 
z
" id="DejaVuSans-53"/>
      </defs>
      <g transform="translate(100.444036 152.313947)scale(0.1 -0.1)">
       <use xlink:href="#DejaVuSans-50"/>
       <use x="63.623047" xlink:href="#DejaVuSans-53"/>
      </g>
     </g>
    </g>
    <g id="xtick_3">
     <g id="line2d_3">
      <g>
       <use style="stroke:#000000;stroke-width:0.8;" x="149.583855" xlink:href="#mf759f9d08e" y="137.71551"/>
      </g>
     </g>
     <g id="text_3">
      <!-- 50 -->
      <g transform="translate(143.221355 152.313947)scale(0.1 -0.1)">
       <use xlink:href="#DejaVuSans-53"/>
       <use x="63.623047" xlink:href="#DejaVuSans-48"/>
      </g>
     </g>
    </g>
    <g id="xtick_4">
     <g id="line2d_4">
      <g>
       <use style="stroke:#000000;stroke-width:0.8;" x="192.361173" xlink:href="#mf759f9d08e" y="137.71551"/>
      </g>
     </g>
     <g id="text_4">
      <!-- 75 -->
      <defs>
       <path d="M 8.203125 72.90625 
L 55.078125 72.90625 
L 55.078125 68.703125 
L 28.609375 0 
L 18.3125 0 
L 43.21875 64.59375 
L 8.203125 64.59375 
z
" id="DejaVuSans-55"/>
      </defs>
      <g transform="translate(185.998673 152.313947)scale(0.1 -0.1)">
       <use xlink:href="#DejaVuSans-55"/>
       <use x="63.623047" xlink:href="#DejaVuSans-53"/>
      </g>
     </g>
    </g>
    <g id="text_5">
     <!-- Dias -->
     <defs>
      <path d="M 19.671875 64.796875 
L 19.671875 8.109375 
L 31.59375 8.109375 
Q 46.6875 8.109375 53.6875 14.9375 
Q 60.6875 21.78125 60.6875 36.53125 
Q 60.6875 51.171875 53.6875 57.984375 
Q 46.6875 64.796875 31.59375 64.796875 
z
M 9.8125 72.90625 
L 30.078125 72.90625 
Q 51.265625 72.90625 61.171875 64.09375 
Q 71.09375 55.28125 71.09375 36.53125 
Q 71.09375 17.671875 61.125 8.828125 
Q 51.171875 0 30.078125 0 
L 9.8125 0 
z
" id="DejaVuSans-68"/>
      <path d="M 9.421875 54.6875 
L 18.40625 54.6875 
L 18.40625 0 
L 9.421875 0 
z
M 9.421875 75.984375 
L 18.40625 75.984375 
L 18.40625 64.59375 
L 9.421875 64.59375 
z
" id="DejaVuSans-105"/>
      <path d="M 34.28125 27.484375 
Q 23.390625 27.484375 19.1875 25 
Q 14.984375 22.515625 14.984375 16.5 
Q 14.984375 11.71875 18.140625 8.90625 
Q 21.296875 6.109375 26.703125 6.109375 
Q 34.1875 6.109375 38.703125 11.40625 
Q 43.21875 16.703125 43.21875 25.484375 
L 43.21875 27.484375 
z
M 52.203125 31.203125 
L 52.203125 0 
L 43.21875 0 
L 43.21875 8.296875 
Q 40.140625 3.328125 35.546875 0.953125 
Q 30.953125 -1.421875 24.3125 -1.421875 
Q 15.921875 -1.421875 10.953125 3.296875 
Q 6 8.015625 6 15.921875 
Q 6 25.140625 12.171875 29.828125 
Q 18.359375 34.515625 30.609375 34.515625 
L 43.21875 34.515625 
L 43.21875 35.40625 
Q 43.21875 41.609375 39.140625 45 
Q 35.0625 48.390625 27.6875 48.390625 
Q 23 48.390625 18.546875 47.265625 
Q 14.109375 46.140625 10.015625 43.890625 
L 10.015625 52.203125 
Q 14.9375 54.109375 19.578125 55.046875 
Q 24.21875 56 28.609375 56 
Q 40.484375 56 46.34375 49.84375 
Q 52.203125 43.703125 52.203125 31.203125 
z
" id="DejaVuSans-97"/>
      <path d="M 44.28125 53.078125 
L 44.28125 44.578125 
Q 40.484375 46.53125 36.375 47.5 
Q 32.28125 48.484375 27.875 48.484375 
Q 21.1875 48.484375 17.84375 46.4375 
Q 14.5 44.390625 14.5 40.28125 
Q 14.5 37.15625 16.890625 35.375 
Q 19.28125 33.59375 26.515625 31.984375 
L 29.59375 31.296875 
Q 39.15625 29.25 43.1875 25.515625 
Q 47.21875 21.78125 47.21875 15.09375 
Q 47.21875 7.46875 41.1875 3.015625 
Q 35.15625 -1.421875 24.609375 -1.421875 
Q 20.21875 -1.421875 15.453125 -0.5625 
Q 10.6875 0.296875 5.421875 2 
L 5.421875 11.28125 
Q 10.40625 8.6875 15.234375 7.390625 
Q 20.0625 6.109375 24.8125 6.109375 
Q 31.15625 6.109375 34.5625 8.28125 
Q 37.984375 10.453125 37.984375 14.40625 
Q 37.984375 18.0625 35.515625 20.015625 
Q 33.0625 21.96875 24.703125 23.78125 
L 21.578125 24.515625 
Q 13.234375 26.265625 9.515625 29.90625 
Q 5.8125 33.546875 5.8125 39.890625 
Q 5.8125 47.609375 11.28125 51.796875 
Q 16.75 56 26.8125 56 
Q 31.78125 56 36.171875 55.265625 
Q 40.578125 54.546875 44.28125 53.078125 
z
" id="DejaVuSans-115"/>
     </defs>
     <g transform="translate(130.976125 165.992072)scale(0.1 -0.1)">
      <use xlink:href="#DejaVuSans-68"/>
      <use x="77.001953" xlink:href="#DejaVuSans-105"/>
      <use x="104.785156" xlink:href="#DejaVuSans-97"/>
      <use x="166.064453" xlink:href="#DejaVuSans-115"/>
     </g>
    </g>
   </g>
   <g id="matplotlib.axis_2">
    <g id="ytick_1">
     <g id="line2d_5">
      <defs>
       <path d="M 0 0 
L -3.5 0 
" id="mdd8ebef351" style="stroke:#000000;stroke-width:0.8;"/>
      </defs>
      <g>
       <use style="stroke:#000000;stroke-width:0.8;" x="55.490865" xlink:href="#mdd8ebef351" y="137.71551"/>
      </g>
     </g>
     <g id="text_6">
      <!-- 0 -->
      <g transform="translate(42.128365 141.514729)scale(0.1 -0.1)">
       <use xlink:href="#DejaVuSans-48"/>
      </g>
     </g>
    </g>
    <g id="ytick_2">
     <g id="line2d_6">
      <g>
       <use style="stroke:#000000;stroke-width:0.8;" x="55.490865" xlink:href="#mdd8ebef351" y="105.518369"/>
      </g>
     </g>
     <g id="text_7">
      <!-- 20000 -->
      <g transform="translate(16.678365 109.317588)scale(0.1 -0.1)">
       <use xlink:href="#DejaVuSans-50"/>
       <use x="63.623047" xlink:href="#DejaVuSans-48"/>
       <use x="127.246094" xlink:href="#DejaVuSans-48"/>
       <use x="190.869141" xlink:href="#DejaVuSans-48"/>
       <use x="254.492188" xlink:href="#DejaVuSans-48"/>
      </g>
     </g>
    </g>
    <g id="ytick_3">
     <g id="line2d_7">
      <g>
       <use style="stroke:#000000;stroke-width:0.8;" x="55.490865" xlink:href="#mdd8ebef351" y="73.321228"/>
      </g>
     </g>
     <g id="text_8">
      <!-- 40000 -->
      <defs>
       <path d="M 37.796875 64.3125 
L 12.890625 25.390625 
L 37.796875 25.390625 
z
M 35.203125 72.90625 
L 47.609375 72.90625 
L 47.609375 25.390625 
L 58.015625 25.390625 
L 58.015625 17.1875 
L 47.609375 17.1875 
L 47.609375 0 
L 37.796875 0 
L 37.796875 17.1875 
L 4.890625 17.1875 
L 4.890625 26.703125 
z
" id="DejaVuSans-52"/>
      </defs>
      <g transform="translate(16.678365 77.120447)scale(0.1 -0.1)">
       <use xlink:href="#DejaVuSans-52"/>
       <use x="63.623047" xlink:href="#DejaVuSans-48"/>
       <use x="127.246094" xlink:href="#DejaVuSans-48"/>
       <use x="190.869141" xlink:href="#DejaVuSans-48"/>
       <use x="254.492188" xlink:href="#DejaVuSans-48"/>
      </g>
     </g>
    </g>
    <g id="ytick_4">
     <g id="line2d_8">
      <g>
       <use style="stroke:#000000;stroke-width:0.8;" x="55.490865" xlink:href="#mdd8ebef351" y="41.124087"/>
      </g>
     </g>
     <g id="text_9">
      <!-- 60000 -->
      <defs>
       <path d="M 33.015625 40.375 
Q 26.375 40.375 22.484375 35.828125 
Q 18.609375 31.296875 18.609375 23.390625 
Q 18.609375 15.53125 22.484375 10.953125 
Q 26.375 6.390625 33.015625 6.390625 
Q 39.65625 6.390625 43.53125 10.953125 
Q 47.40625 15.53125 47.40625 23.390625 
Q 47.40625 31.296875 43.53125 35.828125 
Q 39.65625 40.375 33.015625 40.375 
z
M 52.59375 71.296875 
L 52.59375 62.3125 
Q 48.875 64.0625 45.09375 64.984375 
Q 41.3125 65.921875 37.59375 65.921875 
Q 27.828125 65.921875 22.671875 59.328125 
Q 17.53125 52.734375 16.796875 39.40625 
Q 19.671875 43.65625 24.015625 45.921875 
Q 28.375 48.1875 33.59375 48.1875 
Q 44.578125 48.1875 50.953125 41.515625 
Q 57.328125 34.859375 57.328125 23.390625 
Q 57.328125 12.15625 50.6875 5.359375 
Q 44.046875 -1.421875 33.015625 -1.421875 
Q 20.359375 -1.421875 13.671875 8.265625 
Q 6.984375 17.96875 6.984375 36.375 
Q 6.984375 53.65625 15.1875 63.9375 
Q 23.390625 74.21875 37.203125 74.21875 
Q 40.921875 74.21875 44.703125 73.484375 
Q 48.484375 72.75 52.59375 71.296875 
z
" id="DejaVuSans-54"/>
      </defs>
      <g transform="translate(16.678365 44.923306)scale(0.1 -0.1)">
       <use xlink:href="#DejaVuSans-54"/>
       <use x="63.623047" xlink:href="#DejaVuSans-48"/>
       <use x="127.246094" xlink:href="#DejaVuSans-48"/>
       <use x="190.869141" xlink:href="#DejaVuSans-48"/>
       <use x="254.492188" xlink:href="#DejaVuSans-48"/>
      </g>
     </g>
    </g>
    <g id="text_10">
     <!-- Casos -->
     <defs>
      <path d="M 64.40625 67.28125 
L 64.40625 56.890625 
Q 59.421875 61.53125 53.78125 63.8125 
Q 48.140625 66.109375 41.796875 66.109375 
Q 29.296875 66.109375 22.65625 58.46875 
Q 16.015625 50.828125 16.015625 36.375 
Q 16.015625 21.96875 22.65625 14.328125 
Q 29.296875 6.6875 41.796875 6.6875 
Q 48.140625 6.6875 53.78125 8.984375 
Q 59.421875 11.28125 64.40625 15.921875 
L 64.40625 5.609375 
Q 59.234375 2.09375 53.4375 0.328125 
Q 47.65625 -1.421875 41.21875 -1.421875 
Q 24.65625 -1.421875 15.125 8.703125 
Q 5.609375 18.84375 5.609375 36.375 
Q 5.609375 53.953125 15.125 64.078125 
Q 24.65625 74.21875 41.21875 74.21875 
Q 47.75 74.21875 53.53125 72.484375 
Q 59.328125 70.75 64.40625 67.28125 
z
" id="DejaVuSans-67"/>
      <path d="M 30.609375 48.390625 
Q 23.390625 48.390625 19.1875 42.75 
Q 14.984375 37.109375 14.984375 27.296875 
Q 14.984375 17.484375 19.15625 11.84375 
Q 23.34375 6.203125 30.609375 6.203125 
Q 37.796875 6.203125 41.984375 11.859375 
Q 46.1875 17.53125 46.1875 27.296875 
Q 46.1875 37.015625 41.984375 42.703125 
Q 37.796875 48.390625 30.609375 48.390625 
z
M 30.609375 56 
Q 42.328125 56 49.015625 48.375 
Q 55.71875 40.765625 55.71875 27.296875 
Q 55.71875 13.875 49.015625 6.21875 
Q 42.328125 -1.421875 30.609375 -1.421875 
Q 18.84375 -1.421875 12.171875 6.21875 
Q 5.515625 13.875 5.515625 27.296875 
Q 5.515625 40.765625 12.171875 48.375 
Q 18.84375 56 30.609375 56 
z
" id="DejaVuSans-111"/>
     </defs>
     <g transform="translate(10.598678 92.741156)rotate(-90)scale(0.1 -0.1)">
      <use xlink:href="#DejaVuSans-67"/>
      <use x="69.824219" xlink:href="#DejaVuSans-97"/>
      <use x="131.103516" xlink:href="#DejaVuSans-115"/>
      <use x="183.203125" xlink:href="#DejaVuSans-111"/>
      <use x="244.384766" xlink:href="#DejaVuSans-115"/>
     </g>
    </g>
   </g>
   <g id="line2d_9">
    <path clip-path="url(#p2b9b5532b5)" d="M 64.029218 137.70716 
L 65.740311 137.704641 
L 67.451403 137.70116 
L 69.162496 137.69663 
L 70.873589 137.690799 
L 72.584681 137.683376 
L 74.295774 137.674042 
L 76.006867 137.66243 
L 77.71796 137.648123 
L 79.429052 137.630635 
L 81.140145 137.60945 
L 82.851238 137.584089 
L 84.562331 137.55408 
L 86.273423 137.518959 
L 87.984516 137.478221 
L 89.695609 137.431271 
L 91.406702 137.377426 
L 93.117794 137.31584 
L 94.828887 137.245396 
L 96.53998 137.164803 
L 98.251073 137.072538 
L 99.962165 136.96694 
L 101.673258 136.846567 
L 103.384351 136.710364 
L 105.095444 136.557752 
L 106.806536 136.388718 
L 108.517629 136.203719 
L 110.228722 136.003674 
L 111.939815 135.789908 
L 113.650907 135.56352 
L 115.362 135.325019 
L 117.073093 135.074337 
L 118.784185 134.810698 
L 120.495278 134.532558 
L 122.206371 134.23793 
L 123.917464 133.924358 
L 125.628556 133.589146 
L 127.339649 133.229359 
L 129.050742 132.841487 
L 130.761835 132.421704 
L 132.472927 131.966159 
L 134.18402 131.470297 
L 135.895113 130.928803 
L 137.606206 130.336373 
L 139.317298 129.68861 
L 141.028391 128.982657 
L 142.739484 128.216623 
L 144.450577 127.389139 
L 146.161669 126.500053 
L 147.872762 125.550797 
L 149.583855 124.542887 
L 151.294948 123.475909 
L 153.00604 122.346633 
L 154.717133 121.149783 
L 156.428226 119.878036 
L 158.139319 118.521264 
L 159.850411 117.065355 
L 161.561504 115.493616 
L 163.272597 113.790381 
L 164.98369 111.94318 
L 166.694782 109.942811 
L 168.405875 107.78486 
L 170.116968 105.470782 
L 171.82806 103.01034 
L 173.539153 100.421352 
L 175.250246 97.72578 
L 176.961339 94.945528 
L 178.672431 92.100507 
L 180.383524 89.206378 
L 182.094617 86.274373 
L 183.80571 83.309598 
L 185.516802 80.310974 
L 187.227895 77.274044 
L 188.938988 74.196373 
L 190.650081 71.081378 
L 192.361173 67.938993 
L 194.072266 64.784995 
L 195.783359 61.63969 
L 197.494452 58.526508 
L 199.205544 55.469648 
L 200.916637 52.487995 
L 202.62773 49.591726 
L 204.338823 46.784592 
L 206.049915 44.061529 
L 207.761008 41.411916 
L 209.472101 38.822335 
L 211.183194 36.276097 
L 212.894286 33.759275 
L 214.605379 31.262573 
L 216.316472 28.775427 
L 218.027564 26.292874 
L 219.738657 23.813467 
" style="fill:none;stroke:#ff0000;stroke-linecap:square;stroke-width:1.5;"/>
   </g>
   <g id="patch_95">
    <path d="M 55.490865 137.71551 
L 55.490865 18.118365 
" style="fill:none;stroke:#000000;stroke-linecap:square;stroke-linejoin:miter;stroke-width:0.8;"/>
   </g>
   <g id="patch_96">
    <path d="M 228.27701 137.71551 
L 228.27701 18.118365 
" style="fill:none;stroke:#000000;stroke-linecap:square;stroke-linejoin:miter;stroke-width:0.8;"/>
   </g>
   <g id="patch_97">
    <path d="M 55.490865 137.71551 
L 228.27701 137.71551 
" style="fill:none;stroke:#000000;stroke-linecap:square;stroke-linejoin:miter;stroke-width:0.8;"/>
   </g>
   <g id="patch_98">
    <path d="M 55.490865 18.118365 
L 228.27701 18.118365 
" style="fill:none;stroke:#000000;stroke-linecap:square;stroke-linejoin:miter;stroke-width:0.8;"/>
   </g>
   <g id="text_11">
    <!-- Casos acumulados - MA -->
    <defs>
     <path id="DejaVuSans-32"/>
     <path d="M 48.78125 52.59375 
L 48.78125 44.1875 
Q 44.96875 46.296875 41.140625 47.34375 
Q 37.3125 48.390625 33.40625 48.390625 
Q 24.65625 48.390625 19.8125 42.84375 
Q 14.984375 37.3125 14.984375 27.296875 
Q 14.984375 17.28125 19.8125 11.734375 
Q 24.65625 6.203125 33.40625 6.203125 
Q 37.3125 6.203125 41.140625 7.25 
Q 44.96875 8.296875 48.78125 10.40625 
L 48.78125 2.09375 
Q 45.015625 0.34375 40.984375 -0.53125 
Q 36.96875 -1.421875 32.421875 -1.421875 
Q 20.0625 -1.421875 12.78125 6.34375 
Q 5.515625 14.109375 5.515625 27.296875 
Q 5.515625 40.671875 12.859375 48.328125 
Q 20.21875 56 33.015625 56 
Q 37.15625 56 41.109375 55.140625 
Q 45.0625 54.296875 48.78125 52.59375 
z
" id="DejaVuSans-99"/>
     <path d="M 8.5 21.578125 
L 8.5 54.6875 
L 17.484375 54.6875 
L 17.484375 21.921875 
Q 17.484375 14.15625 20.5 10.265625 
Q 23.53125 6.390625 29.59375 6.390625 
Q 36.859375 6.390625 41.078125 11.03125 
Q 45.3125 15.671875 45.3125 23.6875 
L 45.3125 54.6875 
L 54.296875 54.6875 
L 54.296875 0 
L 45.3125 0 
L 45.3125 8.40625 
Q 42.046875 3.421875 37.71875 1 
Q 33.40625 -1.421875 27.6875 -1.421875 
Q 18.265625 -1.421875 13.375 4.4375 
Q 8.5 10.296875 8.5 21.578125 
z
M 31.109375 56 
z
" id="DejaVuSans-117"/>
     <path d="M 52 44.1875 
Q 55.375 50.25 60.0625 53.125 
Q 64.75 56 71.09375 56 
Q 79.640625 56 84.28125 50.015625 
Q 88.921875 44.046875 88.921875 33.015625 
L 88.921875 0 
L 79.890625 0 
L 79.890625 32.71875 
Q 79.890625 40.578125 77.09375 44.375 
Q 74.3125 48.1875 68.609375 48.1875 
Q 61.625 48.1875 57.5625 43.546875 
Q 53.515625 38.921875 53.515625 30.90625 
L 53.515625 0 
L 44.484375 0 
L 44.484375 32.71875 
Q 44.484375 40.625 41.703125 44.40625 
Q 38.921875 48.1875 33.109375 48.1875 
Q 26.21875 48.1875 22.15625 43.53125 
Q 18.109375 38.875 18.109375 30.90625 
L 18.109375 0 
L 9.078125 0 
L 9.078125 54.6875 
L 18.109375 54.6875 
L 18.109375 46.1875 
Q 21.1875 51.21875 25.484375 53.609375 
Q 29.78125 56 35.6875 56 
Q 41.65625 56 45.828125 52.96875 
Q 50 49.953125 52 44.1875 
z
" id="DejaVuSans-109"/>
     <path d="M 9.421875 75.984375 
L 18.40625 75.984375 
L 18.40625 0 
L 9.421875 0 
z
" id="DejaVuSans-108"/>
     <path d="M 45.40625 46.390625 
L 45.40625 75.984375 
L 54.390625 75.984375 
L 54.390625 0 
L 45.40625 0 
L 45.40625 8.203125 
Q 42.578125 3.328125 38.25 0.953125 
Q 33.9375 -1.421875 27.875 -1.421875 
Q 17.96875 -1.421875 11.734375 6.484375 
Q 5.515625 14.40625 5.515625 27.296875 
Q 5.515625 40.1875 11.734375 48.09375 
Q 17.96875 56 27.875 56 
Q 33.9375 56 38.25 53.625 
Q 42.578125 51.265625 45.40625 46.390625 
z
M 14.796875 27.296875 
Q 14.796875 17.390625 18.875 11.75 
Q 22.953125 6.109375 30.078125 6.109375 
Q 37.203125 6.109375 41.296875 11.75 
Q 45.40625 17.390625 45.40625 27.296875 
Q 45.40625 37.203125 41.296875 42.84375 
Q 37.203125 48.484375 30.078125 48.484375 
Q 22.953125 48.484375 18.875 42.84375 
Q 14.796875 37.203125 14.796875 27.296875 
z
" id="DejaVuSans-100"/>
     <path d="M 4.890625 31.390625 
L 31.203125 31.390625 
L 31.203125 23.390625 
L 4.890625 23.390625 
z
" id="DejaVuSans-45"/>
     <path d="M 9.8125 72.90625 
L 24.515625 72.90625 
L 43.109375 23.296875 
L 61.8125 72.90625 
L 76.515625 72.90625 
L 76.515625 0 
L 66.890625 0 
L 66.890625 64.015625 
L 48.09375 14.015625 
L 38.1875 14.015625 
L 19.390625 64.015625 
L 19.390625 0 
L 9.8125 0 
z
" id="DejaVuSans-77"/>
     <path d="M 34.1875 63.1875 
L 20.796875 26.90625 
L 47.609375 26.90625 
z
M 28.609375 72.90625 
L 39.796875 72.90625 
L 67.578125 0 
L 57.328125 0 
L 50.6875 18.703125 
L 17.828125 18.703125 
L 11.1875 0 
L 0.78125 0 
z
" id="DejaVuSans-65"/>
    </defs>
    <g transform="translate(70.553312 12.118365)scale(0.12 -0.12)">
     <use xlink:href="#DejaVuSans-67"/>
     <use x="69.824219" xlink:href="#DejaVuSans-97"/>
     <use x="131.103516" xlink:href="#DejaVuSans-115"/>
     <use x="183.203125" xlink:href="#DejaVuSans-111"/>
     <use x="244.384766" xlink:href="#DejaVuSans-115"/>
     <use x="296.484375" xlink:href="#DejaVuSans-32"/>
     <use x="328.271484" xlink:href="#DejaVuSans-97"/>
     <use x="389.550781" xlink:href="#DejaVuSans-99"/>
     <use x="444.53125" xlink:href="#DejaVuSans-117"/>
     <use x="507.910156" xlink:href="#DejaVuSans-109"/>
     <use x="605.322266" xlink:href="#DejaVuSans-117"/>
     <use x="668.701172" xlink:href="#DejaVuSans-108"/>
     <use x="696.484375" xlink:href="#DejaVuSans-97"/>
     <use x="757.763672" xlink:href="#DejaVuSans-100"/>
     <use x="821.240234" xlink:href="#DejaVuSans-111"/>
     <use x="882.421875" xlink:href="#DejaVuSans-115"/>
     <use x="934.521484" xlink:href="#DejaVuSans-32"/>
     <use x="966.308594" xlink:href="#DejaVuSans-45"/>
     <use x="1002.392578" xlink:href="#DejaVuSans-32"/>
     <use x="1034.179688" xlink:href="#DejaVuSans-77"/>
     <use x="1120.458984" xlink:href="#DejaVuSans-65"/>
    </g>
   </g>
  </g>
  <g id="axes_2">
   <g id="patch_99">
    <path d="M 285.013615 137.71551 
L 457.79976 137.71551 
L 457.79976 18.118365 
L 285.013615 18.118365 
z
" style="fill:#ffffff;"/>
   </g>
   <g id="patch_100">
    <path clip-path="url(#p7ca5606596)" d="M 292.867531 137.71551 
L 294.236405 137.71551 
L 294.236405 137.673293 
L 292.867531 137.673293 
z
" style="fill:#1f77b4;"/>
   </g>
   <g id="patch_101">
    <path clip-path="url(#p7ca5606596)" d="M 294.578623 137.71551 
L 295.947498 137.71551 
L 295.947498 137.71551 
L 294.578623 137.71551 
z
" style="fill:#1f77b4;"/>
   </g>
   <g id="patch_102">
    <path clip-path="url(#p7ca5606596)" d="M 296.289716 137.71551 
L 297.65859 137.71551 
L 297.65859 137.462207 
L 296.289716 137.462207 
z
" style="fill:#1f77b4;"/>
   </g>
   <g id="patch_103">
    <path clip-path="url(#p7ca5606596)" d="M 298.000809 137.71551 
L 299.369683 137.71551 
L 299.369683 137.71551 
L 298.000809 137.71551 
z
" style="fill:#1f77b4;"/>
   </g>
   <g id="patch_104">
    <path clip-path="url(#p7ca5606596)" d="M 299.711902 137.71551 
L 301.080776 137.71551 
L 301.080776 137.631076 
L 299.711902 137.631076 
z
" style="fill:#1f77b4;"/>
   </g>
   <g id="patch_105">
    <path clip-path="url(#p7ca5606596)" d="M 301.422994 137.71551 
L 302.791869 137.71551 
L 302.791869 137.588858 
L 301.422994 137.588858 
z
" style="fill:#1f77b4;"/>
   </g>
   <g id="patch_106">
    <path clip-path="url(#p7ca5606596)" d="M 303.134087 137.71551 
L 304.502961 137.71551 
L 304.502961 137.673293 
L 303.134087 137.673293 
z
" style="fill:#1f77b4;"/>
   </g>
   <g id="patch_107">
    <path clip-path="url(#p7ca5606596)" d="M 304.84518 137.71551 
L 306.214054 137.71551 
L 306.214054 137.631076 
L 304.84518 137.631076 
z
" style="fill:#1f77b4;"/>
   </g>
   <g id="patch_108">
    <path clip-path="url(#p7ca5606596)" d="M 306.556273 137.71551 
L 307.925147 137.71551 
L 307.925147 137.41999 
L 306.556273 137.41999 
z
" style="fill:#1f77b4;"/>
   </g>
   <g id="patch_109">
    <path clip-path="url(#p7ca5606596)" d="M 308.267365 137.71551 
L 309.63624 137.71551 
L 309.63624 137.377772 
L 308.267365 137.377772 
z
" style="fill:#1f77b4;"/>
   </g>
   <g id="patch_110">
    <path clip-path="url(#p7ca5606596)" d="M 309.978458 137.71551 
L 311.347332 137.71551 
L 311.347332 136.828949 
L 309.978458 136.828949 
z
" style="fill:#1f77b4;"/>
   </g>
   <g id="patch_111">
    <path clip-path="url(#p7ca5606596)" d="M 311.689551 137.71551 
L 313.058425 137.71551 
L 313.058425 136.913383 
L 311.689551 136.913383 
z
" style="fill:#1f77b4;"/>
   </g>
   <g id="patch_112">
    <path clip-path="url(#p7ca5606596)" d="M 313.400644 137.71551 
L 314.769518 137.71551 
L 314.769518 137.293338 
L 313.400644 137.293338 
z
" style="fill:#1f77b4;"/>
   </g>
   <g id="patch_113">
    <path clip-path="url(#p7ca5606596)" d="M 315.111736 137.71551 
L 316.480611 137.71551 
L 316.480611 137.41999 
L 315.111736 137.41999 
z
" style="fill:#1f77b4;"/>
   </g>
   <g id="patch_114">
    <path clip-path="url(#p7ca5606596)" d="M 316.822829 137.71551 
L 318.191703 137.71551 
L 318.191703 137.377772 
L 316.822829 137.377772 
z
" style="fill:#1f77b4;"/>
   </g>
   <g id="patch_115">
    <path clip-path="url(#p7ca5606596)" d="M 318.533922 137.71551 
L 319.902796 137.71551 
L 319.902796 136.153473 
L 318.533922 136.153473 
z
" style="fill:#1f77b4;"/>
   </g>
   <g id="patch_116">
    <path clip-path="url(#p7ca5606596)" d="M 320.245015 137.71551 
L 321.613889 137.71551 
L 321.613889 136.069039 
L 320.245015 136.069039 
z
" style="fill:#1f77b4;"/>
   </g>
   <g id="patch_117">
    <path clip-path="url(#p7ca5606596)" d="M 321.956107 137.71551 
L 323.324981 137.71551 
L 323.324981 135.266912 
L 321.956107 135.266912 
z
" style="fill:#1f77b4;"/>
   </g>
   <g id="patch_118">
    <path clip-path="url(#p7ca5606596)" d="M 323.6672 137.71551 
L 325.036074 137.71551 
L 325.036074 135.90017 
L 323.6672 135.90017 
z
" style="fill:#1f77b4;"/>
   </g>
   <g id="patch_119">
    <path clip-path="url(#p7ca5606596)" d="M 325.378293 137.71551 
L 326.747167 137.71551 
L 326.747167 136.871166 
L 325.378293 136.871166 
z
" style="fill:#1f77b4;"/>
   </g>
   <g id="patch_120">
    <path clip-path="url(#p7ca5606596)" d="M 327.089386 137.71551 
L 328.45826 137.71551 
L 328.45826 135.562432 
L 327.089386 135.562432 
z
" style="fill:#1f77b4;"/>
   </g>
   <g id="patch_121">
    <path clip-path="url(#p7ca5606596)" d="M 328.800478 137.71551 
L 330.169352 137.71551 
L 330.169352 135.43578 
L 328.800478 135.43578 
z
" style="fill:#1f77b4;"/>
   </g>
   <g id="patch_122">
    <path clip-path="url(#p7ca5606596)" d="M 330.511571 137.71551 
L 331.880445 137.71551 
L 331.880445 135.731301 
L 330.511571 135.731301 
z
" style="fill:#1f77b4;"/>
   </g>
   <g id="patch_123">
    <path clip-path="url(#p7ca5606596)" d="M 332.222664 137.71551 
L 333.591538 137.71551 
L 333.591538 136.322342 
L 332.222664 136.322342 
z
" style="fill:#1f77b4;"/>
   </g>
   <g id="patch_124">
    <path clip-path="url(#p7ca5606596)" d="M 333.933756 137.71551 
L 335.302631 137.71551 
L 335.302631 131.298494 
L 333.933756 131.298494 
z
" style="fill:#1f77b4;"/>
   </g>
   <g id="patch_125">
    <path clip-path="url(#p7ca5606596)" d="M 335.644849 137.71551 
L 337.013723 137.71551 
L 337.013723 134.971391 
L 335.644849 134.971391 
z
" style="fill:#1f77b4;"/>
   </g>
   <g id="patch_126">
    <path clip-path="url(#p7ca5606596)" d="M 337.355942 137.71551 
L 338.724816 137.71551 
L 338.724816 133.409354 
L 337.355942 133.409354 
z
" style="fill:#1f77b4;"/>
   </g>
   <g id="patch_127">
    <path clip-path="url(#p7ca5606596)" d="M 339.067035 137.71551 
L 340.435909 137.71551 
L 340.435909 127.456727 
L 339.067035 127.456727 
z
" style="fill:#1f77b4;"/>
   </g>
   <g id="patch_128">
    <path clip-path="url(#p7ca5606596)" d="M 340.778127 137.71551 
L 342.147002 137.71551 
L 342.147002 130.74967 
L 340.778127 130.74967 
z
" style="fill:#1f77b4;"/>
   </g>
   <g id="patch_129">
    <path clip-path="url(#p7ca5606596)" d="M 342.48922 137.71551 
L 343.858094 137.71551 
L 343.858094 132.86053 
L 342.48922 132.86053 
z
" style="fill:#1f77b4;"/>
   </g>
   <g id="patch_130">
    <path clip-path="url(#p7ca5606596)" d="M 344.200313 137.71551 
L 345.569187 137.71551 
L 345.569187 134.507002 
L 344.200313 134.507002 
z
" style="fill:#1f77b4;"/>
   </g>
   <g id="patch_131">
    <path clip-path="url(#p7ca5606596)" d="M 345.911406 137.71551 
L 347.28028 137.71551 
L 347.28028 128.93433 
L 345.911406 128.93433 
z
" style="fill:#1f77b4;"/>
   </g>
   <g id="patch_132">
    <path clip-path="url(#p7ca5606596)" d="M 347.622498 137.71551 
L 348.991373 137.71551 
L 348.991373 131.256276 
L 347.622498 131.256276 
z
" style="fill:#1f77b4;"/>
   </g>
   <g id="patch_133">
    <path clip-path="url(#p7ca5606596)" d="M 349.333591 137.71551 
L 350.702465 137.71551 
L 350.702465 129.525371 
L 349.333591 129.525371 
z
" style="fill:#1f77b4;"/>
   </g>
   <g id="patch_134">
    <path clip-path="url(#p7ca5606596)" d="M 351.044684 137.71551 
L 352.413558 137.71551 
L 352.413558 131.214059 
L 351.044684 131.214059 
z
" style="fill:#1f77b4;"/>
   </g>
   <g id="patch_135">
    <path clip-path="url(#p7ca5606596)" d="M 352.755777 137.71551 
L 354.124651 137.71551 
L 354.124651 132.733879 
L 352.755777 132.733879 
z
" style="fill:#1f77b4;"/>
   </g>
   <g id="patch_136">
    <path clip-path="url(#p7ca5606596)" d="M 354.466869 137.71551 
L 355.835744 137.71551 
L 355.835744 129.820891 
L 354.466869 129.820891 
z
" style="fill:#1f77b4;"/>
   </g>
   <g id="patch_137">
    <path clip-path="url(#p7ca5606596)" d="M 356.177962 137.71551 
L 357.546836 137.71551 
L 357.546836 132.733879 
L 356.177962 132.733879 
z
" style="fill:#1f77b4;"/>
   </g>
   <g id="patch_138">
    <path clip-path="url(#p7ca5606596)" d="M 357.889055 137.71551 
L 359.257929 137.71551 
L 359.257929 126.063559 
L 357.889055 126.063559 
z
" style="fill:#1f77b4;"/>
   </g>
   <g id="patch_139">
    <path clip-path="url(#p7ca5606596)" d="M 359.600148 137.71551 
L 360.969022 137.71551 
L 360.969022 121.419665 
L 359.600148 121.419665 
z
" style="fill:#1f77b4;"/>
   </g>
   <g id="patch_140">
    <path clip-path="url(#p7ca5606596)" d="M 361.31124 137.71551 
L 362.680115 137.71551 
L 362.680115 124.37487 
L 361.31124 124.37487 
z
" style="fill:#1f77b4;"/>
   </g>
   <g id="patch_141">
    <path clip-path="url(#p7ca5606596)" d="M 363.022333 137.71551 
L 364.391207 137.71551 
L 364.391207 125.092563 
L 363.022333 125.092563 
z
" style="fill:#1f77b4;"/>
   </g>
   <g id="patch_142">
    <path clip-path="url(#p7ca5606596)" d="M 364.733426 137.71551 
L 366.1023 137.71551 
L 366.1023 127.794465 
L 364.733426 127.794465 
z
" style="fill:#1f77b4;"/>
   </g>
   <g id="patch_143">
    <path clip-path="url(#p7ca5606596)" d="M 366.444519 137.71551 
L 367.813393 137.71551 
L 367.813393 129.820891 
L 366.444519 129.820891 
z
" style="fill:#1f77b4;"/>
   </g>
   <g id="patch_144">
    <path clip-path="url(#p7ca5606596)" d="M 368.155611 137.71551 
L 369.524485 137.71551 
L 369.524485 124.923694 
L 368.155611 124.923694 
z
" style="fill:#1f77b4;"/>
   </g>
   <g id="patch_145">
    <path clip-path="url(#p7ca5606596)" d="M 369.866704 137.71551 
L 371.235578 137.71551 
L 371.235578 116.691338 
L 369.866704 116.691338 
z
" style="fill:#1f77b4;"/>
   </g>
   <g id="patch_146">
    <path clip-path="url(#p7ca5606596)" d="M 371.577797 137.71551 
L 372.946671 137.71551 
L 372.946671 122.475096 
L 371.577797 122.475096 
z
" style="fill:#1f77b4;"/>
   </g>
   <g id="patch_147">
    <path clip-path="url(#p7ca5606596)" d="M 373.28889 137.71551 
L 374.657764 137.71551 
L 374.657764 115.762559 
L 373.28889 115.762559 
z
" style="fill:#1f77b4;"/>
   </g>
   <g id="patch_148">
    <path clip-path="url(#p7ca5606596)" d="M 374.999982 137.71551 
L 376.368856 137.71551 
L 376.368856 101.577575 
L 374.999982 101.577575 
z
" style="fill:#1f77b4;"/>
   </g>
   <g id="patch_149">
    <path clip-path="url(#p7ca5606596)" d="M 376.711075 137.71551 
L 378.079949 137.71551 
L 378.079949 102.506354 
L 376.711075 102.506354 
z
" style="fill:#1f77b4;"/>
   </g>
   <g id="patch_150">
    <path clip-path="url(#p7ca5606596)" d="M 378.422168 137.71551 
L 379.791042 137.71551 
L 379.791042 114.707128 
L 378.422168 114.707128 
z
" style="fill:#1f77b4;"/>
   </g>
   <g id="patch_151">
    <path clip-path="url(#p7ca5606596)" d="M 380.13326 137.71551 
L 381.502135 137.71551 
L 381.502135 121.588534 
L 380.13326 121.588534 
z
" style="fill:#1f77b4;"/>
   </g>
   <g id="patch_152">
    <path clip-path="url(#p7ca5606596)" d="M 381.844353 137.71551 
L 383.213227 137.71551 
L 383.213227 112.976223 
L 381.844353 112.976223 
z
" style="fill:#1f77b4;"/>
   </g>
   <g id="patch_153">
    <path clip-path="url(#p7ca5606596)" d="M 383.555446 137.71551 
L 384.92432 137.71551 
L 384.92432 108.62785 
L 383.555446 108.62785 
z
" style="fill:#1f77b4;"/>
   </g>
   <g id="patch_154">
    <path clip-path="url(#p7ca5606596)" d="M 385.266539 137.71551 
L 386.635413 137.71551 
L 386.635413 98.115763 
L 385.266539 98.115763 
z
" style="fill:#1f77b4;"/>
   </g>
   <g id="patch_155">
    <path clip-path="url(#p7ca5606596)" d="M 386.977631 137.71551 
L 388.346506 137.71551 
L 388.346506 101.704227 
L 386.977631 101.704227 
z
" style="fill:#1f77b4;"/>
   </g>
   <g id="patch_156">
    <path clip-path="url(#p7ca5606596)" d="M 388.688724 137.71551 
L 390.057598 137.71551 
L 390.057598 99.720018 
L 388.688724 99.720018 
z
" style="fill:#1f77b4;"/>
   </g>
   <g id="patch_157">
    <path clip-path="url(#p7ca5606596)" d="M 390.399817 137.71551 
L 391.768691 137.71551 
L 391.768691 106.221468 
L 390.399817 106.221468 
z
" style="fill:#1f77b4;"/>
   </g>
   <g id="patch_158">
    <path clip-path="url(#p7ca5606596)" d="M 392.11091 137.71551 
L 393.479784 137.71551 
L 393.479784 97.186985 
L 392.11091 97.186985 
z
" style="fill:#1f77b4;"/>
   </g>
   <g id="patch_159">
    <path clip-path="url(#p7ca5606596)" d="M 393.822002 137.71551 
L 395.190877 137.71551 
L 395.190877 99.044542 
L 393.822002 99.044542 
z
" style="fill:#1f77b4;"/>
   </g>
   <g id="patch_160">
    <path clip-path="url(#p7ca5606596)" d="M 395.533095 137.71551 
L 396.901969 137.71551 
L 396.901969 97.86246 
L 395.533095 97.86246 
z
" style="fill:#1f77b4;"/>
   </g>
   <g id="patch_161">
    <path clip-path="url(#p7ca5606596)" d="M 397.244188 137.71551 
L 398.613062 137.71551 
L 398.613062 88.996845 
L 397.244188 88.996845 
z
" style="fill:#1f77b4;"/>
   </g>
   <g id="patch_162">
    <path clip-path="url(#p7ca5606596)" d="M 398.955281 137.71551 
L 400.324155 137.71551 
L 400.324155 72.067743 
L 398.955281 72.067743 
z
" style="fill:#1f77b4;"/>
   </g>
   <g id="patch_163">
    <path clip-path="url(#p7ca5606596)" d="M 400.666373 137.71551 
L 402.035248 137.71551 
L 402.035248 35.380984 
L 400.666373 35.380984 
z
" style="fill:#1f77b4;"/>
   </g>
   <g id="patch_164">
    <path clip-path="url(#p7ca5606596)" d="M 402.377466 137.71551 
L 403.74634 137.71551 
L 403.74634 70.379054 
L 402.377466 70.379054 
z
" style="fill:#1f77b4;"/>
   </g>
   <g id="patch_165">
    <path clip-path="url(#p7ca5606596)" d="M 404.088559 137.71551 
L 405.457433 137.71551 
L 405.457433 74.727427 
L 404.088559 74.727427 
z
" style="fill:#1f77b4;"/>
   </g>
   <g id="patch_166">
    <path clip-path="url(#p7ca5606596)" d="M 405.799652 137.71551 
L 407.168526 137.71551 
L 407.168526 58.895972 
L 405.799652 58.895972 
z
" style="fill:#1f77b4;"/>
   </g>
   <g id="patch_167">
    <path clip-path="url(#p7ca5606596)" d="M 407.510744 137.71551 
L 408.879619 137.71551 
L 408.879619 60.28914 
L 407.510744 60.28914 
z
" style="fill:#1f77b4;"/>
   </g>
   <g id="patch_168">
    <path clip-path="url(#p7ca5606596)" d="M 409.221837 137.71551 
L 410.590711 137.71551 
L 410.590711 32.045824 
L 409.221837 32.045824 
z
" style="fill:#1f77b4;"/>
   </g>
   <g id="patch_169">
    <path clip-path="url(#p7ca5606596)" d="M 410.93293 137.71551 
L 412.301804 137.71551 
L 412.301804 47.455107 
L 410.93293 47.455107 
z
" style="fill:#1f77b4;"/>
   </g>
   <g id="patch_170">
    <path clip-path="url(#p7ca5606596)" d="M 412.644023 137.71551 
L 414.012897 137.71551 
L 414.012897 52.478955 
L 412.644023 52.478955 
z
" style="fill:#1f77b4;"/>
   </g>
   <g id="patch_171">
    <path clip-path="url(#p7ca5606596)" d="M 414.355115 137.71551 
L 415.723989 137.71551 
L 415.723989 109.936583 
L 414.355115 109.936583 
z
" style="fill:#1f77b4;"/>
   </g>
   <g id="patch_172">
    <path clip-path="url(#p7ca5606596)" d="M 416.066208 137.71551 
L 417.435082 137.71551 
L 417.435082 81.65105 
L 416.066208 81.65105 
z
" style="fill:#1f77b4;"/>
   </g>
   <g id="patch_173">
    <path clip-path="url(#p7ca5606596)" d="M 417.777301 137.71551 
L 419.146175 137.71551 
L 419.146175 72.321046 
L 417.777301 72.321046 
z
" style="fill:#1f77b4;"/>
   </g>
   <g id="patch_174">
    <path clip-path="url(#p7ca5606596)" d="M 419.488394 137.71551 
L 420.857268 137.71551 
L 420.857268 34.07225 
L 419.488394 34.07225 
z
" style="fill:#1f77b4;"/>
   </g>
   <g id="patch_175">
    <path clip-path="url(#p7ca5606596)" d="M 421.199486 137.71551 
L 422.56836 137.71551 
L 422.56836 24.404508 
L 421.199486 24.404508 
z
" style="fill:#1f77b4;"/>
   </g>
   <g id="patch_176">
    <path clip-path="url(#p7ca5606596)" d="M 422.910579 137.71551 
L 424.279453 137.71551 
L 424.279453 46.65298 
L 422.910579 46.65298 
z
" style="fill:#1f77b4;"/>
   </g>
   <g id="patch_177">
    <path clip-path="url(#p7ca5606596)" d="M 424.621672 137.71551 
L 425.990546 137.71551 
L 425.990546 48.088365 
L 424.621672 48.088365 
z
" style="fill:#1f77b4;"/>
   </g>
   <g id="patch_178">
    <path clip-path="url(#p7ca5606596)" d="M 426.332764 137.71551 
L 427.701639 137.71551 
L 427.701639 62.653304 
L 426.332764 62.653304 
z
" style="fill:#1f77b4;"/>
   </g>
   <g id="patch_179">
    <path clip-path="url(#p7ca5606596)" d="M 428.043857 137.71551 
L 429.412731 137.71551 
L 429.412731 23.813467 
L 428.043857 23.813467 
z
" style="fill:#1f77b4;"/>
   </g>
   <g id="patch_180">
    <path clip-path="url(#p7ca5606596)" d="M 429.75495 137.71551 
L 431.123824 137.71551 
L 431.123824 76.964939 
L 429.75495 76.964939 
z
" style="fill:#1f77b4;"/>
   </g>
   <g id="patch_181">
    <path clip-path="url(#p7ca5606596)" d="M 431.466043 137.71551 
L 432.834917 137.71551 
L 432.834917 46.019722 
L 431.466043 46.019722 
z
" style="fill:#1f77b4;"/>
   </g>
   <g id="patch_182">
    <path clip-path="url(#p7ca5606596)" d="M 433.177135 137.71551 
L 434.54601 137.71551 
L 434.54601 56.447373 
L 433.177135 56.447373 
z
" style="fill:#1f77b4;"/>
   </g>
   <g id="patch_183">
    <path clip-path="url(#p7ca5606596)" d="M 434.888228 137.71551 
L 436.257102 137.71551 
L 436.257102 84.775124 
L 434.888228 84.775124 
z
" style="fill:#1f77b4;"/>
   </g>
   <g id="patch_184">
    <path clip-path="url(#p7ca5606596)" d="M 436.599321 137.71551 
L 437.968195 137.71551 
L 437.968195 95.878251 
L 436.599321 95.878251 
z
" style="fill:#1f77b4;"/>
   </g>
   <g id="patch_185">
    <path clip-path="url(#p7ca5606596)" d="M 438.310414 137.71551 
L 439.679288 137.71551 
L 439.679288 106.390337 
L 438.310414 106.390337 
z
" style="fill:#1f77b4;"/>
   </g>
   <g id="patch_186">
    <path clip-path="url(#p7ca5606596)" d="M 440.021506 137.71551 
L 441.390381 137.71551 
L 441.390381 48.257234 
L 440.021506 48.257234 
z
" style="fill:#1f77b4;"/>
   </g>
   <g id="patch_187">
    <path clip-path="url(#p7ca5606596)" d="M 441.732599 137.71551 
L 443.101473 137.71551 
L 443.101473 52.267869 
L 441.732599 52.267869 
z
" style="fill:#1f77b4;"/>
   </g>
   <g id="patch_188">
    <path clip-path="url(#p7ca5606596)" d="M 443.443692 137.71551 
L 444.812566 137.71551 
L 444.812566 80.468968 
L 443.443692 80.468968 
z
" style="fill:#1f77b4;"/>
   </g>
   <g id="patch_189">
    <path clip-path="url(#p7ca5606596)" d="M 445.154785 137.71551 
L 446.523659 137.71551 
L 446.523659 36.014242 
L 445.154785 36.014242 
z
" style="fill:#1f77b4;"/>
   </g>
   <g id="patch_190">
    <path clip-path="url(#p7ca5606596)" d="M 446.865877 137.71551 
L 448.234752 137.71551 
L 448.234752 88.194718 
L 446.865877 88.194718 
z
" style="fill:#1f77b4;"/>
   </g>
   <g id="patch_191">
    <path clip-path="url(#p7ca5606596)" d="M 448.57697 137.71551 
L 449.945844 137.71551 
L 449.945844 121.419665 
L 448.57697 121.419665 
z
" style="fill:#1f77b4;"/>
   </g>
   <g id="matplotlib.axis_3">
    <g id="xtick_5">
     <g id="line2d_10">
      <g>
       <use style="stroke:#000000;stroke-width:0.8;" x="293.551968" xlink:href="#mf759f9d08e" y="137.71551"/>
      </g>
     </g>
     <g id="text_12">
      <!-- 0 -->
      <g transform="translate(290.370718 152.313947)scale(0.1 -0.1)">
       <use xlink:href="#DejaVuSans-48"/>
      </g>
     </g>
    </g>
    <g id="xtick_6">
     <g id="line2d_11">
      <g>
       <use style="stroke:#000000;stroke-width:0.8;" x="336.329286" xlink:href="#mf759f9d08e" y="137.71551"/>
      </g>
     </g>
     <g id="text_13">
      <!-- 25 -->
      <g transform="translate(329.966786 152.313947)scale(0.1 -0.1)">
       <use xlink:href="#DejaVuSans-50"/>
       <use x="63.623047" xlink:href="#DejaVuSans-53"/>
      </g>
     </g>
    </g>
    <g id="xtick_7">
     <g id="line2d_12">
      <g>
       <use style="stroke:#000000;stroke-width:0.8;" x="379.106605" xlink:href="#mf759f9d08e" y="137.71551"/>
      </g>
     </g>
     <g id="text_14">
      <!-- 50 -->
      <g transform="translate(372.744105 152.313947)scale(0.1 -0.1)">
       <use xlink:href="#DejaVuSans-53"/>
       <use x="63.623047" xlink:href="#DejaVuSans-48"/>
      </g>
     </g>
    </g>
    <g id="xtick_8">
     <g id="line2d_13">
      <g>
       <use style="stroke:#000000;stroke-width:0.8;" x="421.883923" xlink:href="#mf759f9d08e" y="137.71551"/>
      </g>
     </g>
     <g id="text_15">
      <!-- 75 -->
      <g transform="translate(415.521423 152.313947)scale(0.1 -0.1)">
       <use xlink:href="#DejaVuSans-55"/>
       <use x="63.623047" xlink:href="#DejaVuSans-53"/>
      </g>
     </g>
    </g>
    <g id="text_16">
     <!-- Dias -->
     <g transform="translate(360.498875 165.992072)scale(0.1 -0.1)">
      <use xlink:href="#DejaVuSans-68"/>
      <use x="77.001953" xlink:href="#DejaVuSans-105"/>
      <use x="104.785156" xlink:href="#DejaVuSans-97"/>
      <use x="166.064453" xlink:href="#DejaVuSans-115"/>
     </g>
    </g>
   </g>
   <g id="matplotlib.axis_4">
    <g id="ytick_5">
     <g id="line2d_14">
      <g>
       <use style="stroke:#000000;stroke-width:0.8;" x="285.013615" xlink:href="#mdd8ebef351" y="137.71551"/>
      </g>
     </g>
     <g id="text_17">
      <!-- 0 -->
      <g transform="translate(271.651115 141.514729)scale(0.1 -0.1)">
       <use xlink:href="#DejaVuSans-48"/>
      </g>
     </g>
    </g>
    <g id="ytick_6">
     <g id="line2d_15">
      <g>
       <use style="stroke:#000000;stroke-width:0.8;" x="285.013615" xlink:href="#mdd8ebef351" y="95.498296"/>
      </g>
     </g>
     <g id="text_18">
      <!-- 1000 -->
      <defs>
       <path d="M 12.40625 8.296875 
L 28.515625 8.296875 
L 28.515625 63.921875 
L 10.984375 60.40625 
L 10.984375 69.390625 
L 28.421875 72.90625 
L 38.28125 72.90625 
L 38.28125 8.296875 
L 54.390625 8.296875 
L 54.390625 0 
L 12.40625 0 
z
" id="DejaVuSans-49"/>
      </defs>
      <g transform="translate(252.563615 99.297515)scale(0.1 -0.1)">
       <use xlink:href="#DejaVuSans-49"/>
       <use x="63.623047" xlink:href="#DejaVuSans-48"/>
       <use x="127.246094" xlink:href="#DejaVuSans-48"/>
       <use x="190.869141" xlink:href="#DejaVuSans-48"/>
      </g>
     </g>
    </g>
    <g id="ytick_7">
     <g id="line2d_16">
      <g>
       <use style="stroke:#000000;stroke-width:0.8;" x="285.013615" xlink:href="#mdd8ebef351" y="53.281082"/>
      </g>
     </g>
     <g id="text_19">
      <!-- 2000 -->
      <g transform="translate(252.563615 57.080301)scale(0.1 -0.1)">
       <use xlink:href="#DejaVuSans-50"/>
       <use x="63.623047" xlink:href="#DejaVuSans-48"/>
       <use x="127.246094" xlink:href="#DejaVuSans-48"/>
       <use x="190.869141" xlink:href="#DejaVuSans-48"/>
      </g>
     </g>
    </g>
    <g id="text_20">
     <!-- Novos casos -->
     <defs>
      <path d="M 9.8125 72.90625 
L 23.09375 72.90625 
L 55.421875 11.921875 
L 55.421875 72.90625 
L 64.984375 72.90625 
L 64.984375 0 
L 51.703125 0 
L 19.390625 60.984375 
L 19.390625 0 
L 9.8125 0 
z
" id="DejaVuSans-78"/>
      <path d="M 2.984375 54.6875 
L 12.5 54.6875 
L 29.59375 8.796875 
L 46.6875 54.6875 
L 56.203125 54.6875 
L 35.6875 0 
L 23.484375 0 
z
" id="DejaVuSans-118"/>
     </defs>
     <g transform="translate(246.483928 109.011469)rotate(-90)scale(0.1 -0.1)">
      <use xlink:href="#DejaVuSans-78"/>
      <use x="74.804688" xlink:href="#DejaVuSans-111"/>
      <use x="135.986328" xlink:href="#DejaVuSans-118"/>
      <use x="195.166016" xlink:href="#DejaVuSans-111"/>
      <use x="256.347656" xlink:href="#DejaVuSans-115"/>
      <use x="308.447266" xlink:href="#DejaVuSans-32"/>
      <use x="340.234375" xlink:href="#DejaVuSans-99"/>
      <use x="395.214844" xlink:href="#DejaVuSans-97"/>
      <use x="456.494141" xlink:href="#DejaVuSans-115"/>
      <use x="508.59375" xlink:href="#DejaVuSans-111"/>
      <use x="569.775391" xlink:href="#DejaVuSans-115"/>
     </g>
    </g>
   </g>
   <g id="line2d_17">
    <path clip-path="url(#p7ca5606596)" d="M 293.551968 137.669354 
L 295.263061 137.649468 
L 296.974153 137.624218 
L 298.685246 137.5967 
L 300.396339 137.562607 
L 302.107431 137.520847 
L 303.818524 137.470735 
L 305.529617 137.410987 
L 307.24071 137.34032 
L 308.951802 137.256906 
L 310.662895 137.159952 
L 312.373988 137.050444 
L 314.085081 136.928557 
L 315.796173 136.794485 
L 317.507266 136.647191 
L 319.218359 136.484265 
L 320.929452 136.303475 
L 322.640544 136.10046 
L 324.351637 135.868186 
L 326.06273 135.602012 
L 327.773823 135.295941 
L 329.484915 134.946282 
L 331.196008 134.558819 
L 332.907101 134.143698 
L 334.618194 133.713385 
L 336.329286 133.282738 
L 338.040379 132.864065 
L 339.751472 132.469481 
L 341.462565 132.109658 
L 343.173657 131.778673 
L 344.88475 131.461015 
L 346.595843 131.141564 
L 348.306935 130.801786 
L 350.018028 130.421532 
L 351.729121 129.989127 
L 353.440214 129.492332 
L 355.151306 128.924835 
L 356.862399 128.280394 
L 358.573492 127.543869 
L 360.284585 126.707033 
L 361.995677 125.769217 
L 363.70677 124.711922 
L 365.417863 123.515246 
L 367.128956 122.179505 
L 368.840048 120.728453 
L 370.551141 119.202462 
L 372.262234 117.626886 
L 373.973327 116.015405 
L 375.684419 114.399933 
L 377.395512 112.822018 
L 379.106605 111.283877 
L 380.817698 109.734869 
L 382.52879 108.101146 
L 384.239883 106.329078 
L 385.950976 104.364984 
L 387.662069 102.135243 
L 389.373161 99.535447 
L 391.084254 96.497918 
L 392.795347 93.04954 
L 394.50644 89.27415 
L 396.217532 85.25743 
L 397.928625 81.124961 
L 399.639718 77.030665 
L 401.35081 73.192398 
L 403.061903 69.821351 
L 404.772996 67.026293 
L 406.484089 64.805626 
L 408.195181 63.107108 
L 409.906274 61.819298 
L 411.617367 60.826025 
L 413.32846 59.966647 
L 415.039552 59.078995 
L 416.750645 58.074451 
L 418.461738 57.006044 
L 420.172831 56.027259 
L 421.883923 55.308986 
L 423.595016 55.004427 
L 425.306109 55.232411 
L 427.017202 56.074803 
L 428.728294 57.551791 
L 430.439387 59.524043 
L 432.15048 61.763173 
L 433.861573 64.100663 
L 435.572665 66.305365 
L 437.283758 68.231515 
L 438.994851 69.805842 
L 440.705944 70.942437 
L 442.417036 71.713881 
L 444.128129 72.2415 
L 445.839222 72.492077 
L 447.550314 72.61254 
L 449.261407 72.695058 
" style="fill:none;stroke:#ff0000;stroke-linecap:square;stroke-width:1.5;"/>
   </g>
   <g id="patch_192">
    <path d="M 285.013615 137.71551 
L 285.013615 18.118365 
" style="fill:none;stroke:#000000;stroke-linecap:square;stroke-linejoin:miter;stroke-width:0.8;"/>
   </g>
   <g id="patch_193">
    <path d="M 457.79976 137.71551 
L 457.79976 18.118365 
" style="fill:none;stroke:#000000;stroke-linecap:square;stroke-linejoin:miter;stroke-width:0.8;"/>
   </g>
   <g id="patch_194">
    <path d="M 285.013615 137.71551 
L 457.79976 137.71551 
" style="fill:none;stroke:#000000;stroke-linecap:square;stroke-linejoin:miter;stroke-width:0.8;"/>
   </g>
   <g id="patch_195">
    <path d="M 285.013615 18.118365 
L 457.79976 18.118365 
" style="fill:none;stroke:#000000;stroke-linecap:square;stroke-linejoin:miter;stroke-width:0.8;"/>
   </g>
   <g id="text_21">
    <!-- Casos novos - MA -->
    <defs>
     <path d="M 54.890625 33.015625 
L 54.890625 0 
L 45.90625 0 
L 45.90625 32.71875 
Q 45.90625 40.484375 42.875 44.328125 
Q 39.84375 48.1875 33.796875 48.1875 
Q 26.515625 48.1875 22.3125 43.546875 
Q 18.109375 38.921875 18.109375 30.90625 
L 18.109375 0 
L 9.078125 0 
L 9.078125 54.6875 
L 18.109375 54.6875 
L 18.109375 46.1875 
Q 21.34375 51.125 25.703125 53.5625 
Q 30.078125 56 35.796875 56 
Q 45.21875 56 50.046875 50.171875 
Q 54.890625 44.34375 54.890625 33.015625 
z
" id="DejaVuSans-110"/>
    </defs>
    <g transform="translate(318.629188 12.118365)scale(0.12 -0.12)">
     <use xlink:href="#DejaVuSans-67"/>
     <use x="69.824219" xlink:href="#DejaVuSans-97"/>
     <use x="131.103516" xlink:href="#DejaVuSans-115"/>
     <use x="183.203125" xlink:href="#DejaVuSans-111"/>
     <use x="244.384766" xlink:href="#DejaVuSans-115"/>
     <use x="296.484375" xlink:href="#DejaVuSans-32"/>
     <use x="328.271484" xlink:href="#DejaVuSans-110"/>
     <use x="391.650391" xlink:href="#DejaVuSans-111"/>
     <use x="452.832031" xlink:href="#DejaVuSans-118"/>
     <use x="512.011719" xlink:href="#DejaVuSans-111"/>
     <use x="573.193359" xlink:href="#DejaVuSans-115"/>
     <use x="625.292969" xlink:href="#DejaVuSans-32"/>
     <use x="657.080078" xlink:href="#DejaVuSans-45"/>
     <use x="693.164062" xlink:href="#DejaVuSans-32"/>
     <use x="724.951172" xlink:href="#DejaVuSans-77"/>
     <use x="811.230469" xlink:href="#DejaVuSans-65"/>
    </g>
   </g>
  </g>
  <g id="axes_3">
   <g id="patch_196">
    <path d="M 55.490865 312.24351 
L 457.79976 312.24351 
L 457.79976 192.646365 
L 55.490865 192.646365 
z
" style="fill:#ffffff;"/>
   </g>
   <g id="matplotlib.axis_5">
    <g id="xtick_9">
     <g id="line2d_18">
      <g>
       <use style="stroke:#000000;stroke-width:0.8;" x="73.777633" xlink:href="#mf759f9d08e" y="312.24351"/>
      </g>
     </g>
     <g id="text_22">
      <!-- 0 -->
      <g transform="translate(70.596383 326.841947)scale(0.1 -0.1)">
       <use xlink:href="#DejaVuSans-48"/>
      </g>
     </g>
    </g>
    <g id="xtick_10">
     <g id="line2d_19">
      <g>
       <use style="stroke:#000000;stroke-width:0.8;" x="154.159031" xlink:href="#mf759f9d08e" y="312.24351"/>
      </g>
     </g>
     <g id="text_23">
      <!-- 20 -->
      <g transform="translate(147.796531 326.841947)scale(0.1 -0.1)">
       <use xlink:href="#DejaVuSans-50"/>
       <use x="63.623047" xlink:href="#DejaVuSans-48"/>
      </g>
     </g>
    </g>
    <g id="xtick_11">
     <g id="line2d_20">
      <g>
       <use style="stroke:#000000;stroke-width:0.8;" x="234.540428" xlink:href="#mf759f9d08e" y="312.24351"/>
      </g>
     </g>
     <g id="text_24">
      <!-- 40 -->
      <g transform="translate(228.177928 326.841947)scale(0.1 -0.1)">
       <use xlink:href="#DejaVuSans-52"/>
       <use x="63.623047" xlink:href="#DejaVuSans-48"/>
      </g>
     </g>
    </g>
    <g id="xtick_12">
     <g id="line2d_21">
      <g>
       <use style="stroke:#000000;stroke-width:0.8;" x="314.921826" xlink:href="#mf759f9d08e" y="312.24351"/>
      </g>
     </g>
     <g id="text_25">
      <!-- 60 -->
      <g transform="translate(308.559326 326.841947)scale(0.1 -0.1)">
       <use xlink:href="#DejaVuSans-54"/>
       <use x="63.623047" xlink:href="#DejaVuSans-48"/>
      </g>
     </g>
    </g>
    <g id="xtick_13">
     <g id="line2d_22">
      <g>
       <use style="stroke:#000000;stroke-width:0.8;" x="395.303223" xlink:href="#mf759f9d08e" y="312.24351"/>
      </g>
     </g>
     <g id="text_26">
      <!-- 80 -->
      <defs>
       <path d="M 31.78125 34.625 
Q 24.75 34.625 20.71875 30.859375 
Q 16.703125 27.09375 16.703125 20.515625 
Q 16.703125 13.921875 20.71875 10.15625 
Q 24.75 6.390625 31.78125 6.390625 
Q 38.8125 6.390625 42.859375 10.171875 
Q 46.921875 13.96875 46.921875 20.515625 
Q 46.921875 27.09375 42.890625 30.859375 
Q 38.875 34.625 31.78125 34.625 
z
M 21.921875 38.8125 
Q 15.578125 40.375 12.03125 44.71875 
Q 8.5 49.078125 8.5 55.328125 
Q 8.5 64.0625 14.71875 69.140625 
Q 20.953125 74.21875 31.78125 74.21875 
Q 42.671875 74.21875 48.875 69.140625 
Q 55.078125 64.0625 55.078125 55.328125 
Q 55.078125 49.078125 51.53125 44.71875 
Q 48 40.375 41.703125 38.8125 
Q 48.828125 37.15625 52.796875 32.3125 
Q 56.78125 27.484375 56.78125 20.515625 
Q 56.78125 9.90625 50.3125 4.234375 
Q 43.84375 -1.421875 31.78125 -1.421875 
Q 19.734375 -1.421875 13.25 4.234375 
Q 6.78125 9.90625 6.78125 20.515625 
Q 6.78125 27.484375 10.78125 32.3125 
Q 14.796875 37.15625 21.921875 38.8125 
z
M 18.3125 54.390625 
Q 18.3125 48.734375 21.84375 45.5625 
Q 25.390625 42.390625 31.78125 42.390625 
Q 38.140625 42.390625 41.71875 45.5625 
Q 45.3125 48.734375 45.3125 54.390625 
Q 45.3125 60.0625 41.71875 63.234375 
Q 38.140625 66.40625 31.78125 66.40625 
Q 25.390625 66.40625 21.84375 63.234375 
Q 18.3125 60.0625 18.3125 54.390625 
z
" id="DejaVuSans-56"/>
      </defs>
      <g transform="translate(388.940723 326.841947)scale(0.1 -0.1)">
       <use xlink:href="#DejaVuSans-56"/>
       <use x="63.623047" xlink:href="#DejaVuSans-48"/>
      </g>
     </g>
    </g>
    <g id="text_27">
     <!-- Dias -->
     <g transform="translate(245.7375 340.520072)scale(0.1 -0.1)">
      <use xlink:href="#DejaVuSans-68"/>
      <use x="77.001953" xlink:href="#DejaVuSans-105"/>
      <use x="104.785156" xlink:href="#DejaVuSans-97"/>
      <use x="166.064453" xlink:href="#DejaVuSans-115"/>
     </g>
    </g>
   </g>
   <g id="matplotlib.axis_6">
    <g id="ytick_8">
     <g id="line2d_23">
      <g>
       <use style="stroke:#000000;stroke-width:0.8;" x="55.490865" xlink:href="#mdd8ebef351" y="302.797097"/>
      </g>
     </g>
     <g id="text_28">
      <!-- 1 -->
      <g transform="translate(42.128365 306.596316)scale(0.1 -0.1)">
       <use xlink:href="#DejaVuSans-49"/>
      </g>
     </g>
    </g>
    <g id="ytick_9">
     <g id="line2d_24">
      <g>
       <use style="stroke:#000000;stroke-width:0.8;" x="55.490865" xlink:href="#mdd8ebef351" y="258.968994"/>
      </g>
     </g>
     <g id="text_29">
      <!-- 2 -->
      <g transform="translate(42.128365 262.768213)scale(0.1 -0.1)">
       <use xlink:href="#DejaVuSans-50"/>
      </g>
     </g>
    </g>
    <g id="ytick_10">
     <g id="line2d_25">
      <g>
       <use style="stroke:#000000;stroke-width:0.8;" x="55.490865" xlink:href="#mdd8ebef351" y="215.140892"/>
      </g>
     </g>
     <g id="text_30">
      <!-- 3 -->
      <defs>
       <path d="M 40.578125 39.3125 
Q 47.65625 37.796875 51.625 33 
Q 55.609375 28.21875 55.609375 21.1875 
Q 55.609375 10.40625 48.1875 4.484375 
Q 40.765625 -1.421875 27.09375 -1.421875 
Q 22.515625 -1.421875 17.65625 -0.515625 
Q 12.796875 0.390625 7.625 2.203125 
L 7.625 11.71875 
Q 11.71875 9.328125 16.59375 8.109375 
Q 21.484375 6.890625 26.8125 6.890625 
Q 36.078125 6.890625 40.9375 10.546875 
Q 45.796875 14.203125 45.796875 21.1875 
Q 45.796875 27.640625 41.28125 31.265625 
Q 36.765625 34.90625 28.71875 34.90625 
L 20.21875 34.90625 
L 20.21875 43.015625 
L 29.109375 43.015625 
Q 36.375 43.015625 40.234375 45.921875 
Q 44.09375 48.828125 44.09375 54.296875 
Q 44.09375 59.90625 40.109375 62.90625 
Q 36.140625 65.921875 28.71875 65.921875 
Q 24.65625 65.921875 20.015625 65.03125 
Q 15.375 64.15625 9.8125 62.3125 
L 9.8125 71.09375 
Q 15.4375 72.65625 20.34375 73.4375 
Q 25.25 74.21875 29.59375 74.21875 
Q 40.828125 74.21875 47.359375 69.109375 
Q 53.90625 64.015625 53.90625 55.328125 
Q 53.90625 49.265625 50.4375 45.09375 
Q 46.96875 40.921875 40.578125 39.3125 
z
" id="DejaVuSans-51"/>
      </defs>
      <g transform="translate(42.128365 218.940111)scale(0.1 -0.1)">
       <use xlink:href="#DejaVuSans-51"/>
      </g>
     </g>
    </g>
    <g id="text_31">
     <!-- r0 -->
     <defs>
      <path d="M 41.109375 46.296875 
Q 39.59375 47.171875 37.8125 47.578125 
Q 36.03125 48 33.890625 48 
Q 26.265625 48 22.1875 43.046875 
Q 18.109375 38.09375 18.109375 28.8125 
L 18.109375 0 
L 9.078125 0 
L 9.078125 54.6875 
L 18.109375 54.6875 
L 18.109375 46.1875 
Q 20.953125 51.171875 25.484375 53.578125 
Q 30.03125 56 36.53125 56 
Q 37.453125 56 38.578125 55.875 
Q 39.703125 55.765625 41.0625 55.515625 
z
" id="DejaVuSans-114"/>
     </defs>
     <g transform="translate(36.048678 257.681656)rotate(-90)scale(0.1 -0.1)">
      <use xlink:href="#DejaVuSans-114"/>
      <use x="41.113281" xlink:href="#DejaVuSans-48"/>
     </g>
    </g>
   </g>
   <g id="line2d_26">
    <path clip-path="url(#pa9c493e41f)" d="M 73.777633 198.082599 
L 77.796703 208.524422 
L 81.815773 216.205017 
L 85.834843 230.281391 
L 89.853912 232.982748 
L 93.872982 235.626086 
L 97.892052 238.690429 
L 101.911122 241.356063 
L 105.930192 243.809865 
L 109.949262 245.827811 
L 113.968332 248.130177 
L 117.987402 251.210536 
L 122.006472 254.263649 
L 126.025541 257.173162 
L 130.044611 259.573723 
L 134.063681 261.301753 
L 138.082751 262.634703 
L 142.101821 263.352945 
L 146.120891 263.327895 
L 150.139961 263.246856 
L 154.159031 263.052599 
L 158.1781 263.103214 
L 162.19717 264.183569 
L 166.21624 266.203491 
L 170.23531 268.906605 
L 174.25438 272.13459 
L 178.27345 275.515197 
L 182.29252 278.970248 
L 186.31159 282.410771 
L 190.330659 285.037882 
L 194.349729 286.573319 
L 198.368799 287.237679 
L 202.387869 287.035756 
L 206.406939 286.06396 
L 210.426009 284.822169 
L 214.445079 283.38126 
L 218.464149 282.031885 
L 222.483219 280.802201 
L 226.502288 279.451681 
L 230.521358 278.251655 
L 234.540428 277.399316 
L 238.559498 276.437056 
L 242.578568 275.414508 
L 246.597638 274.780827 
L 250.616708 274.857156 
L 254.635778 275.703135 
L 258.654847 276.865159 
L 262.673917 278.079695 
L 266.692987 279.550422 
L 270.712057 281.319428 
L 274.731127 282.86337 
L 278.750197 283.647141 
L 282.769267 283.573944 
L 286.788337 283.009906 
L 290.807406 282.06199 
L 294.826476 280.657967 
L 298.845546 278.688939 
L 302.864616 276.627113 
L 306.883686 275.214934 
L 310.902756 274.684239 
L 314.921826 274.823059 
L 318.940896 275.669236 
L 322.959966 277.181076 
L 326.979035 279.515925 
L 330.998105 282.500689 
L 335.017175 285.613863 
L 339.036245 288.412843 
L 343.055315 290.768558 
L 347.074385 292.498855 
L 351.093455 293.643295 
L 355.112525 294.038069 
L 359.131594 293.69849 
L 363.150664 292.966098 
L 367.169734 292.468858 
L 371.188804 292.632874 
L 375.207874 293.519617 
L 379.226944 295.058076 
L 383.246014 297.133167 
L 387.265084 299.644519 
L 391.284153 302.395617 
L 395.303223 304.706141 
L 399.322293 306.113058 
L 403.341363 306.807276 
L 407.360433 306.346052 
L 411.379503 305.039163 
L 415.398573 303.205757 
L 419.417643 300.74818 
L 423.436713 298.57659 
L 427.455782 297.024819 
L 431.474852 295.233592 
L 435.493922 294.26817 
L 439.512992 293.830577 
" style="fill:none;stroke:#ff0000;stroke-linecap:square;stroke-width:1.5;"/>
   </g>
   <g id="patch_197">
    <path d="M 55.490865 312.24351 
L 55.490865 192.646365 
" style="fill:none;stroke:#000000;stroke-linecap:square;stroke-linejoin:miter;stroke-width:0.8;"/>
   </g>
   <g id="patch_198">
    <path d="M 457.79976 312.24351 
L 457.79976 192.646365 
" style="fill:none;stroke:#000000;stroke-linecap:square;stroke-linejoin:miter;stroke-width:0.8;"/>
   </g>
   <g id="patch_199">
    <path d="M 55.490865 312.24351 
L 457.79976 312.24351 
" style="fill:none;stroke:#000000;stroke-linecap:square;stroke-linejoin:miter;stroke-width:0.8;"/>
   </g>
   <g id="patch_200">
    <path d="M 55.490865 192.646365 
L 457.79976 192.646365 
" style="fill:none;stroke:#000000;stroke-linecap:square;stroke-linejoin:miter;stroke-width:0.8;"/>
   </g>
   <g id="text_32">
    <!-- r0 aproximado - MA -->
    <defs>
     <path d="M 18.109375 8.203125 
L 18.109375 -20.796875 
L 9.078125 -20.796875 
L 9.078125 54.6875 
L 18.109375 54.6875 
L 18.109375 46.390625 
Q 20.953125 51.265625 25.265625 53.625 
Q 29.59375 56 35.59375 56 
Q 45.5625 56 51.78125 48.09375 
Q 58.015625 40.1875 58.015625 27.296875 
Q 58.015625 14.40625 51.78125 6.484375 
Q 45.5625 -1.421875 35.59375 -1.421875 
Q 29.59375 -1.421875 25.265625 0.953125 
Q 20.953125 3.328125 18.109375 8.203125 
z
M 48.6875 27.296875 
Q 48.6875 37.203125 44.609375 42.84375 
Q 40.53125 48.484375 33.40625 48.484375 
Q 26.265625 48.484375 22.1875 42.84375 
Q 18.109375 37.203125 18.109375 27.296875 
Q 18.109375 17.390625 22.1875 11.75 
Q 26.265625 6.109375 33.40625 6.109375 
Q 40.53125 6.109375 44.609375 11.75 
Q 48.6875 17.390625 48.6875 27.296875 
z
" id="DejaVuSans-112"/>
     <path d="M 54.890625 54.6875 
L 35.109375 28.078125 
L 55.90625 0 
L 45.3125 0 
L 29.390625 21.484375 
L 13.484375 0 
L 2.875 0 
L 24.125 28.609375 
L 4.6875 54.6875 
L 15.28125 54.6875 
L 29.78125 35.203125 
L 44.28125 54.6875 
z
" id="DejaVuSans-120"/>
    </defs>
    <g transform="translate(197.67375 186.646365)scale(0.12 -0.12)">
     <use xlink:href="#DejaVuSans-114"/>
     <use x="41.113281" xlink:href="#DejaVuSans-48"/>
     <use x="104.736328" xlink:href="#DejaVuSans-32"/>
     <use x="136.523438" xlink:href="#DejaVuSans-97"/>
     <use x="197.802734" xlink:href="#DejaVuSans-112"/>
     <use x="261.279297" xlink:href="#DejaVuSans-114"/>
     <use x="300.142578" xlink:href="#DejaVuSans-111"/>
     <use x="358.199219" xlink:href="#DejaVuSans-120"/>
     <use x="417.378906" xlink:href="#DejaVuSans-105"/>
     <use x="445.162109" xlink:href="#DejaVuSans-109"/>
     <use x="542.574219" xlink:href="#DejaVuSans-97"/>
     <use x="603.853516" xlink:href="#DejaVuSans-100"/>
     <use x="667.330078" xlink:href="#DejaVuSans-111"/>
     <use x="728.511719" xlink:href="#DejaVuSans-32"/>
     <use x="760.298828" xlink:href="#DejaVuSans-45"/>
     <use x="796.382812" xlink:href="#DejaVuSans-32"/>
     <use x="828.169922" xlink:href="#DejaVuSans-77"/>
     <use x="914.449219" xlink:href="#DejaVuSans-65"/>
    </g>
   </g>
  </g>
 </g>
 <defs>
  <clipPath id="p2b9b5532b5">
   <rect height="119.597145" width="172.786145" x="55.490865" y="18.118365"/>
  </clipPath>
  <clipPath id="p7ca5606596">
   <rect height="119.597145" width="172.786145" x="285.013615" y="18.118365"/>
  </clipPath>
  <clipPath id="pa9c493e41f">
   <rect height="119.597145" width="402.308895" x="55.490865" y="192.646365"/>
  </clipPath>
 </defs>
</svg>
