<?xml version="1.0" encoding="utf-8" standalone="no"?>
<!DOCTYPE svg PUBLIC "-//W3C//DTD SVG 1.1//EN"
  "http://www.w3.org/Graphics/SVG/1.1/DTD/svg11.dtd">
<!-- Created with matplotlib (https://matplotlib.org/) -->
<svg height="345.6pt" version="1.1" viewBox="0 0 460.8 345.6" width="460.8pt" xmlns="http://www.w3.org/2000/svg" xmlns:xlink="http://www.w3.org/1999/xlink">
 <defs>
  <style type="text/css">
*{stroke-linecap:butt;stroke-linejoin:round;}
  </style>
 </defs>
 <g id="figure_1">
  <g id="patch_1">
   <path d="M 0 345.6 
L 460.8 345.6 
L 460.8 0 
L 0 0 
z
" style="fill:#ffffff;"/>
  </g>
  <g id="axes_1">
   <g id="patch_2">
    <path d="M 54.357737 325.921635 
L 135.381855 325.921635 
L 135.381855 18.118365 
L 54.357737 18.118365 
z
" style="fill:#ffffff;"/>
   </g>
   <g id="patch_3">
    <path clip-path="url(#p89699cb8f9)" d="M 58.040651 325.921635 
L 58.602928 325.921635 
L 58.602928 325.91111 
L 58.040651 325.91111 
z
" style="fill:#1f77b4;"/>
   </g>
   <g id="patch_4">
    <path clip-path="url(#p89699cb8f9)" d="M 58.743497 325.921635 
L 59.305774 325.921635 
L 59.305774 325.91111 
L 58.743497 325.91111 
z
" style="fill:#1f77b4;"/>
   </g>
   <g id="patch_5">
    <path clip-path="url(#p89699cb8f9)" d="M 59.446344 325.921635 
L 60.008621 325.921635 
L 60.008621 325.91111 
L 59.446344 325.91111 
z
" style="fill:#1f77b4;"/>
   </g>
   <g id="patch_6">
    <path clip-path="url(#p89699cb8f9)" d="M 60.14919 325.921635 
L 60.711467 325.921635 
L 60.711467 325.91111 
L 60.14919 325.91111 
z
" style="fill:#1f77b4;"/>
   </g>
   <g id="patch_7">
    <path clip-path="url(#p89699cb8f9)" d="M 60.852036 325.921635 
L 61.414313 325.921635 
L 61.414313 325.900584 
L 60.852036 325.900584 
z
" style="fill:#1f77b4;"/>
   </g>
   <g id="patch_8">
    <path clip-path="url(#p89699cb8f9)" d="M 61.554882 325.921635 
L 62.117159 325.921635 
L 62.117159 325.900584 
L 61.554882 325.900584 
z
" style="fill:#1f77b4;"/>
   </g>
   <g id="patch_9">
    <path clip-path="url(#p89699cb8f9)" d="M 62.257729 325.921635 
L 62.820006 325.921635 
L 62.820006 325.900584 
L 62.257729 325.900584 
z
" style="fill:#1f77b4;"/>
   </g>
   <g id="patch_10">
    <path clip-path="url(#p89699cb8f9)" d="M 62.960575 325.921635 
L 63.522852 325.921635 
L 63.522852 325.869008 
L 62.960575 325.869008 
z
" style="fill:#1f77b4;"/>
   </g>
   <g id="patch_11">
    <path clip-path="url(#p89699cb8f9)" d="M 63.663421 325.921635 
L 64.225698 325.921635 
L 64.225698 325.847957 
L 63.663421 325.847957 
z
" style="fill:#1f77b4;"/>
   </g>
   <g id="patch_12">
    <path clip-path="url(#p89699cb8f9)" d="M 64.366267 325.921635 
L 64.928544 325.921635 
L 64.928544 325.763753 
L 64.366267 325.763753 
z
" style="fill:#1f77b4;"/>
   </g>
   <g id="patch_13">
    <path clip-path="url(#p89699cb8f9)" d="M 65.069114 325.921635 
L 65.631391 325.921635 
L 65.631391 325.616397 
L 65.069114 325.616397 
z
" style="fill:#1f77b4;"/>
   </g>
   <g id="patch_14">
    <path clip-path="url(#p89699cb8f9)" d="M 65.77196 325.921635 
L 66.334237 325.921635 
L 66.334237 325.553244 
L 65.77196 325.553244 
z
" style="fill:#1f77b4;"/>
   </g>
   <g id="patch_15">
    <path clip-path="url(#p89699cb8f9)" d="M 66.474806 325.921635 
L 67.037083 325.921635 
L 67.037083 325.521668 
L 66.474806 325.521668 
z
" style="fill:#1f77b4;"/>
   </g>
   <g id="patch_16">
    <path clip-path="url(#p89699cb8f9)" d="M 67.177653 325.921635 
L 67.73993 325.921635 
L 67.73993 325.048023 
L 67.177653 325.048023 
z
" style="fill:#1f77b4;"/>
   </g>
   <g id="patch_17">
    <path clip-path="url(#p89699cb8f9)" d="M 67.880499 325.921635 
L 68.442776 325.921635 
L 68.442776 324.574378 
L 67.880499 324.574378 
z
" style="fill:#1f77b4;"/>
   </g>
   <g id="patch_18">
    <path clip-path="url(#p89699cb8f9)" d="M 68.583345 325.921635 
L 69.145622 325.921635 
L 69.145622 324.553327 
L 68.583345 324.553327 
z
" style="fill:#1f77b4;"/>
   </g>
   <g id="patch_19">
    <path clip-path="url(#p89699cb8f9)" d="M 69.286191 325.921635 
L 69.848468 325.921635 
L 69.848468 324.521751 
L 69.286191 324.521751 
z
" style="fill:#1f77b4;"/>
   </g>
   <g id="patch_20">
    <path clip-path="url(#p89699cb8f9)" d="M 69.989038 325.921635 
L 70.551315 325.921635 
L 70.551315 324.311242 
L 69.989038 324.311242 
z
" style="fill:#1f77b4;"/>
   </g>
   <g id="patch_21">
    <path clip-path="url(#p89699cb8f9)" d="M 70.691884 325.921635 
L 71.254161 325.921635 
L 71.254161 323.932326 
L 70.691884 323.932326 
z
" style="fill:#1f77b4;"/>
   </g>
   <g id="patch_22">
    <path clip-path="url(#p89699cb8f9)" d="M 71.39473 325.921635 
L 71.957007 325.921635 
L 71.957007 323.763918 
L 71.39473 323.763918 
z
" style="fill:#1f77b4;"/>
   </g>
   <g id="patch_23">
    <path clip-path="url(#p89699cb8f9)" d="M 72.097576 325.921635 
L 72.659853 325.921635 
L 72.659853 323.490257 
L 72.097576 323.490257 
z
" style="fill:#1f77b4;"/>
   </g>
   <g id="patch_24">
    <path clip-path="url(#p89699cb8f9)" d="M 72.800423 325.921635 
L 73.3627 325.921635 
L 73.3627 323.174493 
L 72.800423 323.174493 
z
" style="fill:#1f77b4;"/>
   </g>
   <g id="patch_25">
    <path clip-path="url(#p89699cb8f9)" d="M 73.503269 325.921635 
L 74.065546 325.921635 
L 74.065546 323.027137 
L 73.503269 323.027137 
z
" style="fill:#1f77b4;"/>
   </g>
   <g id="patch_26">
    <path clip-path="url(#p89699cb8f9)" d="M 74.206115 325.921635 
L 74.768392 325.921635 
L 74.768392 322.616645 
L 74.206115 322.616645 
z
" style="fill:#1f77b4;"/>
   </g>
   <g id="patch_27">
    <path clip-path="url(#p89699cb8f9)" d="M 74.908962 325.921635 
L 75.471239 325.921635 
L 75.471239 322.02722 
L 74.908962 322.02722 
z
" style="fill:#1f77b4;"/>
   </g>
   <g id="patch_28">
    <path clip-path="url(#p89699cb8f9)" d="M 75.611808 325.921635 
L 76.174085 325.921635 
L 76.174085 321.743033 
L 75.611808 321.743033 
z
" style="fill:#1f77b4;"/>
   </g>
   <g id="patch_29">
    <path clip-path="url(#p89699cb8f9)" d="M 76.314654 325.921635 
L 76.876931 325.921635 
L 76.876931 321.395693 
L 76.314654 321.395693 
z
" style="fill:#1f77b4;"/>
   </g>
   <g id="patch_30">
    <path clip-path="url(#p89699cb8f9)" d="M 77.0175 325.921635 
L 77.579777 325.921635 
L 77.579777 320.679962 
L 77.0175 320.679962 
z
" style="fill:#1f77b4;"/>
   </g>
   <g id="patch_31">
    <path clip-path="url(#p89699cb8f9)" d="M 77.720347 325.921635 
L 78.282624 325.921635 
L 78.282624 320.395775 
L 77.720347 320.395775 
z
" style="fill:#1f77b4;"/>
   </g>
   <g id="patch_32">
    <path clip-path="url(#p89699cb8f9)" d="M 78.423193 325.921635 
L 78.98547 325.921635 
L 78.98547 320.03791 
L 78.423193 320.03791 
z
" style="fill:#1f77b4;"/>
   </g>
   <g id="patch_33">
    <path clip-path="url(#p89699cb8f9)" d="M 79.126039 325.921635 
L 79.688316 325.921635 
L 79.688316 319.45901 
L 79.126039 319.45901 
z
" style="fill:#1f77b4;"/>
   </g>
   <g id="patch_34">
    <path clip-path="url(#p89699cb8f9)" d="M 79.828885 325.921635 
L 80.391162 325.921635 
L 80.391162 319.027467 
L 79.828885 319.027467 
z
" style="fill:#1f77b4;"/>
   </g>
   <g id="patch_35">
    <path clip-path="url(#p89699cb8f9)" d="M 80.531732 325.921635 
L 81.094009 325.921635 
L 81.094009 318.574873 
L 80.531732 318.574873 
z
" style="fill:#1f77b4;"/>
   </g>
   <g id="patch_36">
    <path clip-path="url(#p89699cb8f9)" d="M 81.234578 325.921635 
L 81.796855 325.921635 
L 81.796855 318.02755 
L 81.234578 318.02755 
z
" style="fill:#1f77b4;"/>
   </g>
   <g id="patch_37">
    <path clip-path="url(#p89699cb8f9)" d="M 81.937424 325.921635 
L 82.499701 325.921635 
L 82.499701 317.438125 
L 81.937424 317.438125 
z
" style="fill:#1f77b4;"/>
   </g>
   <g id="patch_38">
    <path clip-path="url(#p89699cb8f9)" d="M 82.64027 325.921635 
L 83.202547 325.921635 
L 83.202547 317.343396 
L 82.64027 317.343396 
z
" style="fill:#1f77b4;"/>
   </g>
   <g id="patch_39">
    <path clip-path="url(#p89699cb8f9)" d="M 83.343117 325.921635 
L 83.905394 325.921635 
L 83.905394 316.61714 
L 83.343117 316.61714 
z
" style="fill:#1f77b4;"/>
   </g>
   <g id="patch_40">
    <path clip-path="url(#p89699cb8f9)" d="M 84.045963 325.921635 
L 84.60824 325.921635 
L 84.60824 316.417156 
L 84.045963 316.417156 
z
" style="fill:#1f77b4;"/>
   </g>
   <g id="patch_41">
    <path clip-path="url(#p89699cb8f9)" d="M 84.748809 325.921635 
L 85.311086 325.921635 
L 85.311086 315.838257 
L 84.748809 315.838257 
z
" style="fill:#1f77b4;"/>
   </g>
   <g id="patch_42">
    <path clip-path="url(#p89699cb8f9)" d="M 85.451656 325.921635 
L 86.013933 325.921635 
L 86.013933 315.175154 
L 85.451656 315.175154 
z
" style="fill:#1f77b4;"/>
   </g>
   <g id="patch_43">
    <path clip-path="url(#p89699cb8f9)" d="M 86.154502 325.921635 
L 86.716779 325.921635 
L 86.716779 314.585728 
L 86.154502 314.585728 
z
" style="fill:#1f77b4;"/>
   </g>
   <g id="patch_44">
    <path clip-path="url(#p89699cb8f9)" d="M 86.857348 325.921635 
L 87.419625 325.921635 
L 87.419625 313.775269 
L 86.857348 313.775269 
z
" style="fill:#1f77b4;"/>
   </g>
   <g id="patch_45">
    <path clip-path="url(#p89699cb8f9)" d="M 87.560194 325.921635 
L 88.122471 325.921635 
L 88.122471 313.406878 
L 87.560194 313.406878 
z
" style="fill:#1f77b4;"/>
   </g>
   <g id="patch_46">
    <path clip-path="url(#p89699cb8f9)" d="M 88.263041 325.921635 
L 88.825318 325.921635 
L 88.825318 312.975335 
L 88.263041 312.975335 
z
" style="fill:#1f77b4;"/>
   </g>
   <g id="patch_47">
    <path clip-path="url(#p89699cb8f9)" d="M 88.965887 325.921635 
L 89.528164 325.921635 
L 89.528164 312.417486 
L 88.965887 312.417486 
z
" style="fill:#1f77b4;"/>
   </g>
   <g id="patch_48">
    <path clip-path="url(#p89699cb8f9)" d="M 89.668733 325.921635 
L 90.23101 325.921635 
L 90.23101 312.15435 
L 89.668733 312.15435 
z
" style="fill:#1f77b4;"/>
   </g>
   <g id="patch_49">
    <path clip-path="url(#p89699cb8f9)" d="M 90.371579 325.921635 
L 90.933856 325.921635 
L 90.933856 310.986026 
L 90.371579 310.986026 
z
" style="fill:#1f77b4;"/>
   </g>
   <g id="patch_50">
    <path clip-path="url(#p89699cb8f9)" d="M 91.074426 325.921635 
L 91.636703 325.921635 
L 91.636703 310.333448 
L 91.074426 310.333448 
z
" style="fill:#1f77b4;"/>
   </g>
   <g id="patch_51">
    <path clip-path="url(#p89699cb8f9)" d="M 91.777272 325.921635 
L 92.339549 325.921635 
L 92.339549 309.628243 
L 91.777272 309.628243 
z
" style="fill:#1f77b4;"/>
   </g>
   <g id="patch_52">
    <path clip-path="url(#p89699cb8f9)" d="M 92.480118 325.921635 
L 93.042395 325.921635 
L 93.042395 309.228276 
L 92.480118 309.228276 
z
" style="fill:#1f77b4;"/>
   </g>
   <g id="patch_53">
    <path clip-path="url(#p89699cb8f9)" d="M 93.182965 325.921635 
L 93.745242 325.921635 
L 93.745242 308.565173 
L 93.182965 308.565173 
z
" style="fill:#1f77b4;"/>
   </g>
   <g id="patch_54">
    <path clip-path="url(#p89699cb8f9)" d="M 93.885811 325.921635 
L 94.448088 325.921635 
L 94.448088 307.417899 
L 93.885811 307.417899 
z
" style="fill:#1f77b4;"/>
   </g>
   <g id="patch_55">
    <path clip-path="url(#p89699cb8f9)" d="M 94.588657 325.921635 
L 95.150934 325.921635 
L 95.150934 306.691643 
L 94.588657 306.691643 
z
" style="fill:#1f77b4;"/>
   </g>
   <g id="patch_56">
    <path clip-path="url(#p89699cb8f9)" d="M 95.291503 325.921635 
L 95.85378 325.921635 
L 95.85378 305.554895 
L 95.291503 305.554895 
z
" style="fill:#1f77b4;"/>
   </g>
   <g id="patch_57">
    <path clip-path="url(#p89699cb8f9)" d="M 95.99435 325.921635 
L 96.556627 325.921635 
L 96.556627 304.628656 
L 95.99435 304.628656 
z
" style="fill:#1f77b4;"/>
   </g>
   <g id="patch_58">
    <path clip-path="url(#p89699cb8f9)" d="M 96.697196 325.921635 
L 97.259473 325.921635 
L 97.259473 303.628738 
L 96.697196 303.628738 
z
" style="fill:#1f77b4;"/>
   </g>
   <g id="patch_59">
    <path clip-path="url(#p89699cb8f9)" d="M 97.400042 325.921635 
L 97.962319 325.921635 
L 97.962319 301.218411 
L 97.400042 301.218411 
z
" style="fill:#1f77b4;"/>
   </g>
   <g id="patch_60">
    <path clip-path="url(#p89699cb8f9)" d="M 98.102888 325.921635 
L 98.665165 325.921635 
L 98.665165 300.113239 
L 98.102888 300.113239 
z
" style="fill:#1f77b4;"/>
   </g>
   <g id="patch_61">
    <path clip-path="url(#p89699cb8f9)" d="M 98.805735 325.921635 
L 99.368012 325.921635 
L 99.368012 298.502845 
L 98.805735 298.502845 
z
" style="fill:#1f77b4;"/>
   </g>
   <g id="patch_62">
    <path clip-path="url(#p89699cb8f9)" d="M 99.508581 325.921635 
L 100.070858 325.921635 
L 100.070858 296.766147 
L 99.508581 296.766147 
z
" style="fill:#1f77b4;"/>
   </g>
   <g id="patch_63">
    <path clip-path="url(#p89699cb8f9)" d="M 100.211427 325.921635 
L 100.773704 325.921635 
L 100.773704 294.945244 
L 100.211427 294.945244 
z
" style="fill:#1f77b4;"/>
   </g>
   <g id="patch_64">
    <path clip-path="url(#p89699cb8f9)" d="M 100.914273 325.921635 
L 101.476551 325.921635 
L 101.476551 293.050664 
L 100.914273 293.050664 
z
" style="fill:#1f77b4;"/>
   </g>
   <g id="patch_65">
    <path clip-path="url(#p89699cb8f9)" d="M 101.61712 325.921635 
L 102.179397 325.921635 
L 102.179397 291.850763 
L 101.61712 291.850763 
z
" style="fill:#1f77b4;"/>
   </g>
   <g id="patch_66">
    <path clip-path="url(#p89699cb8f9)" d="M 102.319966 325.921635 
L 102.882243 325.921635 
L 102.882243 290.977151 
L 102.319966 290.977151 
z
" style="fill:#1f77b4;"/>
   </g>
   <g id="patch_67">
    <path clip-path="url(#p89699cb8f9)" d="M 103.022812 325.921635 
L 103.585089 325.921635 
L 103.585089 289.766724 
L 103.022812 289.766724 
z
" style="fill:#1f77b4;"/>
   </g>
   <g id="patch_68">
    <path clip-path="url(#p89699cb8f9)" d="M 103.725659 325.921635 
L 104.287936 325.921635 
L 104.287936 286.630141 
L 103.725659 286.630141 
z
" style="fill:#1f77b4;"/>
   </g>
   <g id="patch_69">
    <path clip-path="url(#p89699cb8f9)" d="M 104.428505 325.921635 
L 104.990782 325.921635 
L 104.990782 284.346119 
L 104.428505 284.346119 
z
" style="fill:#1f77b4;"/>
   </g>
   <g id="patch_70">
    <path clip-path="url(#p89699cb8f9)" d="M 105.131351 325.921635 
L 105.693628 325.921635 
L 105.693628 281.756859 
L 105.131351 281.756859 
z
" style="fill:#1f77b4;"/>
   </g>
   <g id="patch_71">
    <path clip-path="url(#p89699cb8f9)" d="M 105.834197 325.921635 
L 106.396474 325.921635 
L 106.396474 278.830785 
L 105.834197 278.830785 
z
" style="fill:#1f77b4;"/>
   </g>
   <g id="patch_72">
    <path clip-path="url(#p89699cb8f9)" d="M 106.537044 325.921635 
L 107.099321 325.921635 
L 107.099321 277.388799 
L 106.537044 277.388799 
z
" style="fill:#1f77b4;"/>
   </g>
   <g id="patch_73">
    <path clip-path="url(#p89699cb8f9)" d="M 107.23989 325.921635 
L 107.802167 325.921635 
L 107.802167 276.504661 
L 107.23989 276.504661 
z
" style="fill:#1f77b4;"/>
   </g>
   <g id="patch_74">
    <path clip-path="url(#p89699cb8f9)" d="M 107.942736 325.921635 
L 108.505013 325.921635 
L 108.505013 273.536485 
L 107.942736 273.536485 
z
" style="fill:#1f77b4;"/>
   </g>
   <g id="patch_75">
    <path clip-path="url(#p89699cb8f9)" d="M 108.645582 325.921635 
L 109.207859 325.921635 
L 109.207859 270.284122 
L 108.645582 270.284122 
z
" style="fill:#1f77b4;"/>
   </g>
   <g id="patch_76">
    <path clip-path="url(#p89699cb8f9)" d="M 109.348429 325.921635 
L 109.910706 325.921635 
L 109.910706 267.021233 
L 109.348429 267.021233 
z
" style="fill:#1f77b4;"/>
   </g>
   <g id="patch_77">
    <path clip-path="url(#p89699cb8f9)" d="M 110.051275 325.921635 
L 110.613552 325.921635 
L 110.613552 262.82158 
L 110.051275 262.82158 
z
" style="fill:#1f77b4;"/>
   </g>
   <g id="patch_78">
    <path clip-path="url(#p89699cb8f9)" d="M 110.754121 325.921635 
L 111.316398 325.921635 
L 111.316398 259.211351 
L 110.754121 259.211351 
z
" style="fill:#1f77b4;"/>
   </g>
   <g id="patch_79">
    <path clip-path="url(#p89699cb8f9)" d="M 111.456968 325.921635 
L 112.019245 325.921635 
L 112.019245 255.737954 
L 111.456968 255.737954 
z
" style="fill:#1f77b4;"/>
   </g>
   <g id="patch_80">
    <path clip-path="url(#p89699cb8f9)" d="M 112.159814 325.921635 
L 112.722091 325.921635 
L 112.722091 252.643472 
L 112.159814 252.643472 
z
" style="fill:#1f77b4;"/>
   </g>
   <g id="patch_81">
    <path clip-path="url(#p89699cb8f9)" d="M 112.86266 325.921635 
L 113.424937 325.921635 
L 113.424937 246.812375 
L 112.86266 246.812375 
z
" style="fill:#1f77b4;"/>
   </g>
   <g id="patch_82">
    <path clip-path="url(#p89699cb8f9)" d="M 113.565506 325.921635 
L 114.127783 325.921635 
L 114.127783 241.602278 
L 113.565506 241.602278 
z
" style="fill:#1f77b4;"/>
   </g>
   <g id="patch_83">
    <path clip-path="url(#p89699cb8f9)" d="M 114.268353 325.921635 
L 114.83063 325.921635 
L 114.83063 234.497602 
L 114.268353 234.497602 
z
" style="fill:#1f77b4;"/>
   </g>
   <g id="patch_84">
    <path clip-path="url(#p89699cb8f9)" d="M 114.971199 325.921635 
L 115.533476 325.921635 
L 115.533476 228.750708 
L 114.971199 228.750708 
z
" style="fill:#1f77b4;"/>
   </g>
   <g id="patch_85">
    <path clip-path="url(#p89699cb8f9)" d="M 115.674045 325.921635 
L 116.236322 325.921635 
L 116.236322 224.56158 
L 115.674045 224.56158 
z
" style="fill:#1f77b4;"/>
   </g>
   <g id="patch_86">
    <path clip-path="url(#p89699cb8f9)" d="M 116.376891 325.921635 
L 116.939168 325.921635 
L 116.939168 215.783357 
L 116.376891 215.783357 
z
" style="fill:#1f77b4;"/>
   </g>
   <g id="patch_87">
    <path clip-path="url(#p89699cb8f9)" d="M 117.079738 325.921635 
L 117.642015 325.921635 
L 117.642015 213.615115 
L 117.079738 213.615115 
z
" style="fill:#1f77b4;"/>
   </g>
   <g id="patch_88">
    <path clip-path="url(#p89699cb8f9)" d="M 117.782584 325.921635 
L 118.344861 325.921635 
L 118.344861 210.783769 
L 117.782584 210.783769 
z
" style="fill:#1f77b4;"/>
   </g>
   <g id="patch_89">
    <path clip-path="url(#p89699cb8f9)" d="M 118.48543 325.921635 
L 119.047707 325.921635 
L 119.047707 199.511016 
L 118.48543 199.511016 
z
" style="fill:#1f77b4;"/>
   </g>
   <g id="patch_90">
    <path clip-path="url(#p89699cb8f9)" d="M 119.188277 325.921635 
L 119.750554 325.921635 
L 119.750554 188.732958 
L 119.188277 188.732958 
z
" style="fill:#1f77b4;"/>
   </g>
   <g id="patch_91">
    <path clip-path="url(#p89699cb8f9)" d="M 119.891123 325.921635 
L 120.4534 325.921635 
L 120.4534 178.618003 
L 119.891123 178.618003 
z
" style="fill:#1f77b4;"/>
   </g>
   <g id="patch_92">
    <path clip-path="url(#p89699cb8f9)" d="M 120.593969 325.921635 
L 121.156246 325.921635 
L 121.156246 168.681981 
L 120.593969 168.681981 
z
" style="fill:#1f77b4;"/>
   </g>
   <g id="patch_93">
    <path clip-path="url(#p89699cb8f9)" d="M 121.296815 325.921635 
L 121.859092 325.921635 
L 121.859092 160.640539 
L 121.296815 160.640539 
z
" style="fill:#1f77b4;"/>
   </g>
   <g id="patch_94">
    <path clip-path="url(#p89699cb8f9)" d="M 121.999662 325.921635 
L 122.561939 325.921635 
L 122.561939 158.745959 
L 121.999662 158.745959 
z
" style="fill:#1f77b4;"/>
   </g>
   <g id="patch_95">
    <path clip-path="url(#p89699cb8f9)" d="M 122.702508 325.921635 
L 123.264785 325.921635 
L 123.264785 156.440886 
L 122.702508 156.440886 
z
" style="fill:#1f77b4;"/>
   </g>
   <g id="patch_96">
    <path clip-path="url(#p89699cb8f9)" d="M 123.405354 325.921635 
L 123.967631 325.921635 
L 123.967631 141.715786 
L 123.405354 141.715786 
z
" style="fill:#1f77b4;"/>
   </g>
   <g id="patch_97">
    <path clip-path="url(#p89699cb8f9)" d="M 124.1082 325.921635 
L 124.670477 325.921635 
L 124.670477 131.748187 
L 124.1082 131.748187 
z
" style="fill:#1f77b4;"/>
   </g>
   <g id="patch_98">
    <path clip-path="url(#p89699cb8f9)" d="M 124.811047 325.921635 
L 125.373324 325.921635 
L 125.373324 114.296996 
L 124.811047 114.296996 
z
" style="fill:#1f77b4;"/>
   </g>
   <g id="patch_99">
    <path clip-path="url(#p89699cb8f9)" d="M 125.513893 325.921635 
L 126.07617 325.921635 
L 126.07617 108.950069 
L 125.513893 108.950069 
z
" style="fill:#1f77b4;"/>
   </g>
   <g id="patch_100">
    <path clip-path="url(#p89699cb8f9)" d="M 126.216739 325.921635 
L 126.779016 325.921635 
L 126.779016 100.877051 
L 126.216739 100.877051 
z
" style="fill:#1f77b4;"/>
   </g>
   <g id="patch_101">
    <path clip-path="url(#p89699cb8f9)" d="M 126.919585 325.921635 
L 127.481862 325.921635 
L 127.481862 97.224721 
L 126.919585 97.224721 
z
" style="fill:#1f77b4;"/>
   </g>
   <g id="patch_102">
    <path clip-path="url(#p89699cb8f9)" d="M 127.622432 325.921635 
L 128.184709 325.921635 
L 128.184709 94.109188 
L 127.622432 94.109188 
z
" style="fill:#1f77b4;"/>
   </g>
   <g id="patch_103">
    <path clip-path="url(#p89699cb8f9)" d="M 128.325278 325.921635 
L 128.887555 325.921635 
L 128.887555 80.184022 
L 128.325278 80.184022 
z
" style="fill:#1f77b4;"/>
   </g>
   <g id="patch_104">
    <path clip-path="url(#p89699cb8f9)" d="M 129.028124 325.921635 
L 129.590401 325.921635 
L 129.590401 63.77485 
L 129.028124 63.77485 
z
" style="fill:#1f77b4;"/>
   </g>
   <g id="patch_105">
    <path clip-path="url(#p89699cb8f9)" d="M 129.730971 325.921635 
L 130.293248 325.921635 
L 130.293248 51.712688 
L 129.730971 51.712688 
z
" style="fill:#1f77b4;"/>
   </g>
   <g id="patch_106">
    <path clip-path="url(#p89699cb8f9)" d="M 130.433817 325.921635 
L 130.996094 325.921635 
L 130.996094 38.524302 
L 130.433817 38.524302 
z
" style="fill:#1f77b4;"/>
   </g>
   <g id="patch_107">
    <path clip-path="url(#p89699cb8f9)" d="M 131.136663 325.921635 
L 131.69894 325.921635 
L 131.69894 34.987752 
L 131.136663 34.987752 
z
" style="fill:#1f77b4;"/>
   </g>
   <g id="matplotlib.axis_1">
    <g id="xtick_1">
     <g id="line2d_1">
      <defs>
       <path d="M 0 0 
L 0 3.5 
" id="m47de2c67b7" style="stroke:#000000;stroke-width:0.8;"/>
      </defs>
      <g>
       <use style="stroke:#000000;stroke-width:0.8;" x="58.32179" xlink:href="#m47de2c67b7" y="325.921635"/>
      </g>
     </g>
     <g id="text_1">
      <!-- 0 -->
      <defs>
       <path d="M 31.78125 66.40625 
Q 24.171875 66.40625 20.328125 58.90625 
Q 16.5 51.421875 16.5 36.375 
Q 16.5 21.390625 20.328125 13.890625 
Q 24.171875 6.390625 31.78125 6.390625 
Q 39.453125 6.390625 43.28125 13.890625 
Q 47.125 21.390625 47.125 36.375 
Q 47.125 51.421875 43.28125 58.90625 
Q 39.453125 66.40625 31.78125 66.40625 
z
M 31.78125 74.21875 
Q 44.046875 74.21875 50.515625 64.515625 
Q 56.984375 54.828125 56.984375 36.375 
Q 56.984375 17.96875 50.515625 8.265625 
Q 44.046875 -1.421875 31.78125 -1.421875 
Q 19.53125 -1.421875 13.0625 8.265625 
Q 6.59375 17.96875 6.59375 36.375 
Q 6.59375 54.828125 13.0625 64.515625 
Q 19.53125 74.21875 31.78125 74.21875 
z
" id="DejaVuSans-48"/>
      </defs>
      <g transform="translate(55.14054 340.520072)scale(0.1 -0.1)">
       <use xlink:href="#DejaVuSans-48"/>
      </g>
     </g>
    </g>
    <g id="xtick_2">
     <g id="line2d_2">
      <g>
       <use style="stroke:#000000;stroke-width:0.8;" x="128.606417" xlink:href="#m47de2c67b7" y="325.921635"/>
      </g>
     </g>
     <g id="text_2">
      <!-- 100 -->
      <defs>
       <path d="M 12.40625 8.296875 
L 28.515625 8.296875 
L 28.515625 63.921875 
L 10.984375 60.40625 
L 10.984375 69.390625 
L 28.421875 72.90625 
L 38.28125 72.90625 
L 38.28125 8.296875 
L 54.390625 8.296875 
L 54.390625 0 
L 12.40625 0 
z
" id="DejaVuSans-49"/>
      </defs>
      <g transform="translate(119.062667 340.520072)scale(0.1 -0.1)">
       <use xlink:href="#DejaVuSans-49"/>
       <use x="63.623047" xlink:href="#DejaVuSans-48"/>
       <use x="127.246094" xlink:href="#DejaVuSans-48"/>
      </g>
     </g>
    </g>
   </g>
   <g id="matplotlib.axis_2">
    <g id="ytick_1">
     <g id="line2d_3">
      <defs>
       <path d="M 0 0 
L -3.5 0 
" id="m6a857f5973" style="stroke:#000000;stroke-width:0.8;"/>
      </defs>
      <g>
       <use style="stroke:#000000;stroke-width:0.8;" x="54.357737" xlink:href="#m6a857f5973" y="325.921635"/>
      </g>
     </g>
     <g id="text_3">
      <!-- 0 -->
      <g transform="translate(40.995237 329.720854)scale(0.1 -0.1)">
       <use xlink:href="#DejaVuSans-48"/>
      </g>
     </g>
    </g>
    <g id="ytick_2">
     <g id="line2d_4">
      <g>
       <use style="stroke:#000000;stroke-width:0.8;" x="54.357737" xlink:href="#m6a857f5973" y="273.2944"/>
      </g>
     </g>
     <g id="text_4">
      <!-- 5000 -->
      <defs>
       <path d="M 10.796875 72.90625 
L 49.515625 72.90625 
L 49.515625 64.59375 
L 19.828125 64.59375 
L 19.828125 46.734375 
Q 21.96875 47.46875 24.109375 47.828125 
Q 26.265625 48.1875 28.421875 48.1875 
Q 40.625 48.1875 47.75 41.5 
Q 54.890625 34.8125 54.890625 23.390625 
Q 54.890625 11.625 47.5625 5.09375 
Q 40.234375 -1.421875 26.90625 -1.421875 
Q 22.3125 -1.421875 17.546875 -0.640625 
Q 12.796875 0.140625 7.71875 1.703125 
L 7.71875 11.625 
Q 12.109375 9.234375 16.796875 8.0625 
Q 21.484375 6.890625 26.703125 6.890625 
Q 35.15625 6.890625 40.078125 11.328125 
Q 45.015625 15.765625 45.015625 23.390625 
Q 45.015625 31 40.078125 35.4375 
Q 35.15625 39.890625 26.703125 39.890625 
Q 22.75 39.890625 18.8125 39.015625 
Q 14.890625 38.140625 10.796875 36.28125 
z
" id="DejaVuSans-53"/>
      </defs>
      <g transform="translate(21.907737 277.093618)scale(0.1 -0.1)">
       <use xlink:href="#DejaVuSans-53"/>
       <use x="63.623047" xlink:href="#DejaVuSans-48"/>
       <use x="127.246094" xlink:href="#DejaVuSans-48"/>
       <use x="190.869141" xlink:href="#DejaVuSans-48"/>
      </g>
     </g>
    </g>
    <g id="ytick_3">
     <g id="line2d_5">
      <g>
       <use style="stroke:#000000;stroke-width:0.8;" x="54.357737" xlink:href="#m6a857f5973" y="220.667164"/>
      </g>
     </g>
     <g id="text_5">
      <!-- 10000 -->
      <g transform="translate(15.545237 224.466383)scale(0.1 -0.1)">
       <use xlink:href="#DejaVuSans-49"/>
       <use x="63.623047" xlink:href="#DejaVuSans-48"/>
       <use x="127.246094" xlink:href="#DejaVuSans-48"/>
       <use x="190.869141" xlink:href="#DejaVuSans-48"/>
       <use x="254.492188" xlink:href="#DejaVuSans-48"/>
      </g>
     </g>
    </g>
    <g id="ytick_4">
     <g id="line2d_6">
      <g>
       <use style="stroke:#000000;stroke-width:0.8;" x="54.357737" xlink:href="#m6a857f5973" y="168.039929"/>
      </g>
     </g>
     <g id="text_6">
      <!-- 15000 -->
      <g transform="translate(15.545237 171.839148)scale(0.1 -0.1)">
       <use xlink:href="#DejaVuSans-49"/>
       <use x="63.623047" xlink:href="#DejaVuSans-53"/>
       <use x="127.246094" xlink:href="#DejaVuSans-48"/>
       <use x="190.869141" xlink:href="#DejaVuSans-48"/>
       <use x="254.492188" xlink:href="#DejaVuSans-48"/>
      </g>
     </g>
    </g>
    <g id="ytick_5">
     <g id="line2d_7">
      <g>
       <use style="stroke:#000000;stroke-width:0.8;" x="54.357737" xlink:href="#m6a857f5973" y="115.412693"/>
      </g>
     </g>
     <g id="text_7">
      <!-- 20000 -->
      <defs>
       <path d="M 19.1875 8.296875 
L 53.609375 8.296875 
L 53.609375 0 
L 7.328125 0 
L 7.328125 8.296875 
Q 12.9375 14.109375 22.625 23.890625 
Q 32.328125 33.6875 34.8125 36.53125 
Q 39.546875 41.84375 41.421875 45.53125 
Q 43.3125 49.21875 43.3125 52.78125 
Q 43.3125 58.59375 39.234375 62.25 
Q 35.15625 65.921875 28.609375 65.921875 
Q 23.96875 65.921875 18.8125 64.3125 
Q 13.671875 62.703125 7.8125 59.421875 
L 7.8125 69.390625 
Q 13.765625 71.78125 18.9375 73 
Q 24.125 74.21875 28.421875 74.21875 
Q 39.75 74.21875 46.484375 68.546875 
Q 53.21875 62.890625 53.21875 53.421875 
Q 53.21875 48.921875 51.53125 44.890625 
Q 49.859375 40.875 45.40625 35.40625 
Q 44.1875 33.984375 37.640625 27.21875 
Q 31.109375 20.453125 19.1875 8.296875 
z
" id="DejaVuSans-50"/>
      </defs>
      <g transform="translate(15.545237 119.211912)scale(0.1 -0.1)">
       <use xlink:href="#DejaVuSans-50"/>
       <use x="63.623047" xlink:href="#DejaVuSans-48"/>
       <use x="127.246094" xlink:href="#DejaVuSans-48"/>
       <use x="190.869141" xlink:href="#DejaVuSans-48"/>
       <use x="254.492188" xlink:href="#DejaVuSans-48"/>
      </g>
     </g>
    </g>
    <g id="ytick_6">
     <g id="line2d_8">
      <g>
       <use style="stroke:#000000;stroke-width:0.8;" x="54.357737" xlink:href="#m6a857f5973" y="62.785458"/>
      </g>
     </g>
     <g id="text_8">
      <!-- 25000 -->
      <g transform="translate(15.545237 66.584677)scale(0.1 -0.1)">
       <use xlink:href="#DejaVuSans-50"/>
       <use x="63.623047" xlink:href="#DejaVuSans-53"/>
       <use x="127.246094" xlink:href="#DejaVuSans-48"/>
       <use x="190.869141" xlink:href="#DejaVuSans-48"/>
       <use x="254.492188" xlink:href="#DejaVuSans-48"/>
      </g>
     </g>
    </g>
   </g>
   <g id="line2d_9">
    <path clip-path="url(#p89699cb8f9)" d="M 58.32179 325.907125 
L 59.024636 325.90136 
L 59.727482 325.891926 
L 60.430328 325.877157 
L 61.133175 325.85494 
L 61.836021 325.822978 
L 62.538867 325.778715 
L 63.241713 325.719293 
L 63.94456 325.642257 
L 64.647406 325.546134 
L 65.350252 325.430354 
L 66.053099 325.294926 
L 66.755945 325.140174 
L 67.458791 324.967112 
L 68.161637 324.777496 
L 68.864484 324.5728 
L 69.56733 324.353488 
L 70.270176 324.119096 
L 70.973022 323.868734 
L 71.675869 323.601609 
L 72.378715 323.316462 
L 73.081561 323.011553 
L 73.784407 322.685711 
L 74.487254 322.338757 
L 75.1901 321.971454 
L 75.892946 321.585379 
L 76.595793 321.18222 
L 77.298639 320.764148 
L 78.001485 320.333881 
L 78.704331 319.893798 
L 79.407178 319.445565 
L 80.110024 318.990508 
L 80.81287 318.528931 
L 81.515716 318.060796 
L 82.218563 317.58552 
L 82.921409 317.101828 
L 83.624255 316.608412 
L 84.327102 316.104488 
L 85.029948 315.588956 
L 85.732794 315.061145 
L 86.43564 314.519976 
L 87.138487 313.964416 
L 87.841333 313.393468 
L 88.544179 312.805595 
L 89.247025 312.197495 
L 89.949872 311.564732 
L 90.652718 310.901673 
L 91.355564 310.202101 
L 92.05841 309.45835 
L 92.761257 308.661177 
L 93.464103 307.800278 
L 94.166949 306.867507 
L 94.869796 305.856977 
L 95.572642 304.764412 
L 96.275488 303.587478 
L 96.978334 302.326559 
L 97.681181 300.985229 
L 98.384027 299.569984 
L 99.086873 298.085821 
L 99.789719 296.535183 
L 100.492566 294.919481 
L 101.195412 293.238303 
L 101.898258 291.488834 
L 102.601105 289.665766 
L 103.303951 287.760625 
L 104.006797 285.763622 
L 104.709643 283.664709 
L 105.41249 281.451196 
L 106.115336 279.107107 
L 106.818182 276.613878 
L 107.521028 273.950081 
L 108.223875 271.091534 
L 108.926721 268.013799 
L 109.629567 264.694851 
L 110.332414 261.115493 
L 111.03526 257.261632 
L 111.738106 253.122698 
L 112.440952 248.689552 
L 113.143799 243.958979 
L 113.846645 238.929893 
L 114.549491 233.596959 
L 115.252337 227.954333 
L 115.955184 221.996198 
L 116.65803 215.717903 
L 117.360876 209.124615 
L 118.063722 202.224608 
L 118.766569 195.030261 
L 119.469415 187.562007 
L 120.172261 179.846219 
L 120.875108 171.908524 
L 121.577954 163.780402 
L 122.2808 155.483246 
L 122.983646 147.03342 
L 123.686493 138.440912 
L 124.389339 129.705553 
L 125.092185 120.818565 
L 125.795031 111.77301 
L 126.497878 102.545525 
L 127.200724 93.118565 
L 127.90357 83.48832 
L 128.606417 73.64978 
L 129.309263 63.611484 
L 130.012109 53.448431 
L 130.714955 43.163149 
L 131.417802 32.775664 
" style="fill:none;stroke:#ff0000;stroke-linecap:square;stroke-width:1.5;"/>
   </g>
   <g id="patch_108">
    <path d="M 54.357737 325.921635 
L 54.357737 18.118365 
" style="fill:none;stroke:#000000;stroke-linecap:square;stroke-linejoin:miter;stroke-width:0.8;"/>
   </g>
   <g id="patch_109">
    <path d="M 135.381855 325.921635 
L 135.381855 18.118365 
" style="fill:none;stroke:#000000;stroke-linecap:square;stroke-linejoin:miter;stroke-width:0.8;"/>
   </g>
   <g id="patch_110">
    <path d="M 54.357737 325.921635 
L 135.381855 325.921635 
" style="fill:none;stroke:#000000;stroke-linecap:square;stroke-linejoin:miter;stroke-width:0.8;"/>
   </g>
   <g id="patch_111">
    <path d="M 54.357737 18.118365 
L 135.381855 18.118365 
" style="fill:none;stroke:#000000;stroke-linecap:square;stroke-linejoin:miter;stroke-width:0.8;"/>
   </g>
   <g id="text_9">
    <!-- Casos acumulados - MG - (data) -->
    <defs>
     <path d="M 64.40625 67.28125 
L 64.40625 56.890625 
Q 59.421875 61.53125 53.78125 63.8125 
Q 48.140625 66.109375 41.796875 66.109375 
Q 29.296875 66.109375 22.65625 58.46875 
Q 16.015625 50.828125 16.015625 36.375 
Q 16.015625 21.96875 22.65625 14.328125 
Q 29.296875 6.6875 41.796875 6.6875 
Q 48.140625 6.6875 53.78125 8.984375 
Q 59.421875 11.28125 64.40625 15.921875 
L 64.40625 5.609375 
Q 59.234375 2.09375 53.4375 0.328125 
Q 47.65625 -1.421875 41.21875 -1.421875 
Q 24.65625 -1.421875 15.125 8.703125 
Q 5.609375 18.84375 5.609375 36.375 
Q 5.609375 53.953125 15.125 64.078125 
Q 24.65625 74.21875 41.21875 74.21875 
Q 47.75 74.21875 53.53125 72.484375 
Q 59.328125 70.75 64.40625 67.28125 
z
" id="DejaVuSans-67"/>
     <path d="M 34.28125 27.484375 
Q 23.390625 27.484375 19.1875 25 
Q 14.984375 22.515625 14.984375 16.5 
Q 14.984375 11.71875 18.140625 8.90625 
Q 21.296875 6.109375 26.703125 6.109375 
Q 34.1875 6.109375 38.703125 11.40625 
Q 43.21875 16.703125 43.21875 25.484375 
L 43.21875 27.484375 
z
M 52.203125 31.203125 
L 52.203125 0 
L 43.21875 0 
L 43.21875 8.296875 
Q 40.140625 3.328125 35.546875 0.953125 
Q 30.953125 -1.421875 24.3125 -1.421875 
Q 15.921875 -1.421875 10.953125 3.296875 
Q 6 8.015625 6 15.921875 
Q 6 25.140625 12.171875 29.828125 
Q 18.359375 34.515625 30.609375 34.515625 
L 43.21875 34.515625 
L 43.21875 35.40625 
Q 43.21875 41.609375 39.140625 45 
Q 35.0625 48.390625 27.6875 48.390625 
Q 23 48.390625 18.546875 47.265625 
Q 14.109375 46.140625 10.015625 43.890625 
L 10.015625 52.203125 
Q 14.9375 54.109375 19.578125 55.046875 
Q 24.21875 56 28.609375 56 
Q 40.484375 56 46.34375 49.84375 
Q 52.203125 43.703125 52.203125 31.203125 
z
" id="DejaVuSans-97"/>
     <path d="M 44.28125 53.078125 
L 44.28125 44.578125 
Q 40.484375 46.53125 36.375 47.5 
Q 32.28125 48.484375 27.875 48.484375 
Q 21.1875 48.484375 17.84375 46.4375 
Q 14.5 44.390625 14.5 40.28125 
Q 14.5 37.15625 16.890625 35.375 
Q 19.28125 33.59375 26.515625 31.984375 
L 29.59375 31.296875 
Q 39.15625 29.25 43.1875 25.515625 
Q 47.21875 21.78125 47.21875 15.09375 
Q 47.21875 7.46875 41.1875 3.015625 
Q 35.15625 -1.421875 24.609375 -1.421875 
Q 20.21875 -1.421875 15.453125 -0.5625 
Q 10.6875 0.296875 5.421875 2 
L 5.421875 11.28125 
Q 10.40625 8.6875 15.234375 7.390625 
Q 20.0625 6.109375 24.8125 6.109375 
Q 31.15625 6.109375 34.5625 8.28125 
Q 37.984375 10.453125 37.984375 14.40625 
Q 37.984375 18.0625 35.515625 20.015625 
Q 33.0625 21.96875 24.703125 23.78125 
L 21.578125 24.515625 
Q 13.234375 26.265625 9.515625 29.90625 
Q 5.8125 33.546875 5.8125 39.890625 
Q 5.8125 47.609375 11.28125 51.796875 
Q 16.75 56 26.8125 56 
Q 31.78125 56 36.171875 55.265625 
Q 40.578125 54.546875 44.28125 53.078125 
z
" id="DejaVuSans-115"/>
     <path d="M 30.609375 48.390625 
Q 23.390625 48.390625 19.1875 42.75 
Q 14.984375 37.109375 14.984375 27.296875 
Q 14.984375 17.484375 19.15625 11.84375 
Q 23.34375 6.203125 30.609375 6.203125 
Q 37.796875 6.203125 41.984375 11.859375 
Q 46.1875 17.53125 46.1875 27.296875 
Q 46.1875 37.015625 41.984375 42.703125 
Q 37.796875 48.390625 30.609375 48.390625 
z
M 30.609375 56 
Q 42.328125 56 49.015625 48.375 
Q 55.71875 40.765625 55.71875 27.296875 
Q 55.71875 13.875 49.015625 6.21875 
Q 42.328125 -1.421875 30.609375 -1.421875 
Q 18.84375 -1.421875 12.171875 6.21875 
Q 5.515625 13.875 5.515625 27.296875 
Q 5.515625 40.765625 12.171875 48.375 
Q 18.84375 56 30.609375 56 
z
" id="DejaVuSans-111"/>
     <path id="DejaVuSans-32"/>
     <path d="M 48.78125 52.59375 
L 48.78125 44.1875 
Q 44.96875 46.296875 41.140625 47.34375 
Q 37.3125 48.390625 33.40625 48.390625 
Q 24.65625 48.390625 19.8125 42.84375 
Q 14.984375 37.3125 14.984375 27.296875 
Q 14.984375 17.28125 19.8125 11.734375 
Q 24.65625 6.203125 33.40625 6.203125 
Q 37.3125 6.203125 41.140625 7.25 
Q 44.96875 8.296875 48.78125 10.40625 
L 48.78125 2.09375 
Q 45.015625 0.34375 40.984375 -0.53125 
Q 36.96875 -1.421875 32.421875 -1.421875 
Q 20.0625 -1.421875 12.78125 6.34375 
Q 5.515625 14.109375 5.515625 27.296875 
Q 5.515625 40.671875 12.859375 48.328125 
Q 20.21875 56 33.015625 56 
Q 37.15625 56 41.109375 55.140625 
Q 45.0625 54.296875 48.78125 52.59375 
z
" id="DejaVuSans-99"/>
     <path d="M 8.5 21.578125 
L 8.5 54.6875 
L 17.484375 54.6875 
L 17.484375 21.921875 
Q 17.484375 14.15625 20.5 10.265625 
Q 23.53125 6.390625 29.59375 6.390625 
Q 36.859375 6.390625 41.078125 11.03125 
Q 45.3125 15.671875 45.3125 23.6875 
L 45.3125 54.6875 
L 54.296875 54.6875 
L 54.296875 0 
L 45.3125 0 
L 45.3125 8.40625 
Q 42.046875 3.421875 37.71875 1 
Q 33.40625 -1.421875 27.6875 -1.421875 
Q 18.265625 -1.421875 13.375 4.4375 
Q 8.5 10.296875 8.5 21.578125 
z
M 31.109375 56 
z
" id="DejaVuSans-117"/>
     <path d="M 52 44.1875 
Q 55.375 50.25 60.0625 53.125 
Q 64.75 56 71.09375 56 
Q 79.640625 56 84.28125 50.015625 
Q 88.921875 44.046875 88.921875 33.015625 
L 88.921875 0 
L 79.890625 0 
L 79.890625 32.71875 
Q 79.890625 40.578125 77.09375 44.375 
Q 74.3125 48.1875 68.609375 48.1875 
Q 61.625 48.1875 57.5625 43.546875 
Q 53.515625 38.921875 53.515625 30.90625 
L 53.515625 0 
L 44.484375 0 
L 44.484375 32.71875 
Q 44.484375 40.625 41.703125 44.40625 
Q 38.921875 48.1875 33.109375 48.1875 
Q 26.21875 48.1875 22.15625 43.53125 
Q 18.109375 38.875 18.109375 30.90625 
L 18.109375 0 
L 9.078125 0 
L 9.078125 54.6875 
L 18.109375 54.6875 
L 18.109375 46.1875 
Q 21.1875 51.21875 25.484375 53.609375 
Q 29.78125 56 35.6875 56 
Q 41.65625 56 45.828125 52.96875 
Q 50 49.953125 52 44.1875 
z
" id="DejaVuSans-109"/>
     <path d="M 9.421875 75.984375 
L 18.40625 75.984375 
L 18.40625 0 
L 9.421875 0 
z
" id="DejaVuSans-108"/>
     <path d="M 45.40625 46.390625 
L 45.40625 75.984375 
L 54.390625 75.984375 
L 54.390625 0 
L 45.40625 0 
L 45.40625 8.203125 
Q 42.578125 3.328125 38.25 0.953125 
Q 33.9375 -1.421875 27.875 -1.421875 
Q 17.96875 -1.421875 11.734375 6.484375 
Q 5.515625 14.40625 5.515625 27.296875 
Q 5.515625 40.1875 11.734375 48.09375 
Q 17.96875 56 27.875 56 
Q 33.9375 56 38.25 53.625 
Q 42.578125 51.265625 45.40625 46.390625 
z
M 14.796875 27.296875 
Q 14.796875 17.390625 18.875 11.75 
Q 22.953125 6.109375 30.078125 6.109375 
Q 37.203125 6.109375 41.296875 11.75 
Q 45.40625 17.390625 45.40625 27.296875 
Q 45.40625 37.203125 41.296875 42.84375 
Q 37.203125 48.484375 30.078125 48.484375 
Q 22.953125 48.484375 18.875 42.84375 
Q 14.796875 37.203125 14.796875 27.296875 
z
" id="DejaVuSans-100"/>
     <path d="M 4.890625 31.390625 
L 31.203125 31.390625 
L 31.203125 23.390625 
L 4.890625 23.390625 
z
" id="DejaVuSans-45"/>
     <path d="M 9.8125 72.90625 
L 24.515625 72.90625 
L 43.109375 23.296875 
L 61.8125 72.90625 
L 76.515625 72.90625 
L 76.515625 0 
L 66.890625 0 
L 66.890625 64.015625 
L 48.09375 14.015625 
L 38.1875 14.015625 
L 19.390625 64.015625 
L 19.390625 0 
L 9.8125 0 
z
" id="DejaVuSans-77"/>
     <path d="M 59.515625 10.40625 
L 59.515625 29.984375 
L 43.40625 29.984375 
L 43.40625 38.09375 
L 69.28125 38.09375 
L 69.28125 6.78125 
Q 63.578125 2.734375 56.6875 0.65625 
Q 49.8125 -1.421875 42 -1.421875 
Q 24.90625 -1.421875 15.25 8.5625 
Q 5.609375 18.5625 5.609375 36.375 
Q 5.609375 54.25 15.25 64.234375 
Q 24.90625 74.21875 42 74.21875 
Q 49.125 74.21875 55.546875 72.453125 
Q 61.96875 70.703125 67.390625 67.28125 
L 67.390625 56.78125 
Q 61.921875 61.421875 55.765625 63.765625 
Q 49.609375 66.109375 42.828125 66.109375 
Q 29.4375 66.109375 22.71875 58.640625 
Q 16.015625 51.171875 16.015625 36.375 
Q 16.015625 21.625 22.71875 14.15625 
Q 29.4375 6.6875 42.828125 6.6875 
Q 48.046875 6.6875 52.140625 7.59375 
Q 56.25 8.5 59.515625 10.40625 
z
" id="DejaVuSans-71"/>
     <path d="M 31 75.875 
Q 24.46875 64.65625 21.28125 53.65625 
Q 18.109375 42.671875 18.109375 31.390625 
Q 18.109375 20.125 21.3125 9.0625 
Q 24.515625 -2 31 -13.1875 
L 23.1875 -13.1875 
Q 15.875 -1.703125 12.234375 9.375 
Q 8.59375 20.453125 8.59375 31.390625 
Q 8.59375 42.28125 12.203125 53.3125 
Q 15.828125 64.359375 23.1875 75.875 
z
" id="DejaVuSans-40"/>
     <path d="M 18.3125 70.21875 
L 18.3125 54.6875 
L 36.8125 54.6875 
L 36.8125 47.703125 
L 18.3125 47.703125 
L 18.3125 18.015625 
Q 18.3125 11.328125 20.140625 9.421875 
Q 21.96875 7.515625 27.59375 7.515625 
L 36.8125 7.515625 
L 36.8125 0 
L 27.59375 0 
Q 17.1875 0 13.234375 3.875 
Q 9.28125 7.765625 9.28125 18.015625 
L 9.28125 47.703125 
L 2.6875 47.703125 
L 2.6875 54.6875 
L 9.28125 54.6875 
L 9.28125 70.21875 
z
" id="DejaVuSans-116"/>
     <path d="M 8.015625 75.875 
L 15.828125 75.875 
Q 23.140625 64.359375 26.78125 53.3125 
Q 30.421875 42.28125 30.421875 31.390625 
Q 30.421875 20.453125 26.78125 9.375 
Q 23.140625 -1.703125 15.828125 -13.1875 
L 8.015625 -13.1875 
Q 14.5 -2 17.703125 9.0625 
Q 20.90625 20.125 20.90625 31.390625 
Q 20.90625 42.671875 17.703125 53.65625 
Q 14.5 64.65625 8.015625 75.875 
z
" id="DejaVuSans-41"/>
    </defs>
    <g transform="translate(-1.180829 12.118365)scale(0.12 -0.12)">
     <use xlink:href="#DejaVuSans-67"/>
     <use x="69.824219" xlink:href="#DejaVuSans-97"/>
     <use x="131.103516" xlink:href="#DejaVuSans-115"/>
     <use x="183.203125" xlink:href="#DejaVuSans-111"/>
     <use x="244.384766" xlink:href="#DejaVuSans-115"/>
     <use x="296.484375" xlink:href="#DejaVuSans-32"/>
     <use x="328.271484" xlink:href="#DejaVuSans-97"/>
     <use x="389.550781" xlink:href="#DejaVuSans-99"/>
     <use x="444.53125" xlink:href="#DejaVuSans-117"/>
     <use x="507.910156" xlink:href="#DejaVuSans-109"/>
     <use x="605.322266" xlink:href="#DejaVuSans-117"/>
     <use x="668.701172" xlink:href="#DejaVuSans-108"/>
     <use x="696.484375" xlink:href="#DejaVuSans-97"/>
     <use x="757.763672" xlink:href="#DejaVuSans-100"/>
     <use x="821.240234" xlink:href="#DejaVuSans-111"/>
     <use x="882.421875" xlink:href="#DejaVuSans-115"/>
     <use x="934.521484" xlink:href="#DejaVuSans-32"/>
     <use x="966.308594" xlink:href="#DejaVuSans-45"/>
     <use x="1002.392578" xlink:href="#DejaVuSans-32"/>
     <use x="1034.179688" xlink:href="#DejaVuSans-77"/>
     <use x="1120.458984" xlink:href="#DejaVuSans-71"/>
     <use x="1197.949219" xlink:href="#DejaVuSans-32"/>
     <use x="1229.736328" xlink:href="#DejaVuSans-45"/>
     <use x="1265.820312" xlink:href="#DejaVuSans-32"/>
     <use x="1297.607422" xlink:href="#DejaVuSans-40"/>
     <use x="1336.621094" xlink:href="#DejaVuSans-100"/>
     <use x="1400.097656" xlink:href="#DejaVuSans-97"/>
     <use x="1461.376953" xlink:href="#DejaVuSans-116"/>
     <use x="1500.585938" xlink:href="#DejaVuSans-97"/>
     <use x="1561.865234" xlink:href="#DejaVuSans-41"/>
    </g>
   </g>
  </g>
  <g id="axes_2">
   <g id="patch_112">
    <path d="M 228.616203 325.921635 
L 309.640321 325.921635 
L 309.640321 18.118365 
L 228.616203 18.118365 
z
" style="fill:#ffffff;"/>
   </g>
   <g id="patch_113">
    <path clip-path="url(#p010505e4de)" d="M 232.299117 325.921635 
L 232.861394 325.921635 
L 232.861394 325.921635 
L 232.299117 325.921635 
z
" style="fill:#1f77b4;"/>
   </g>
   <g id="patch_114">
    <path clip-path="url(#p010505e4de)" d="M 233.001963 325.921635 
L 233.56424 325.921635 
L 233.56424 325.921635 
L 233.001963 325.921635 
z
" style="fill:#1f77b4;"/>
   </g>
   <g id="patch_115">
    <path clip-path="url(#p010505e4de)" d="M 233.70481 325.921635 
L 234.267087 325.921635 
L 234.267087 325.921635 
L 233.70481 325.921635 
z
" style="fill:#1f77b4;"/>
   </g>
   <g id="patch_116">
    <path clip-path="url(#p010505e4de)" d="M 234.407656 325.921635 
L 234.969933 325.921635 
L 234.969933 325.921635 
L 234.407656 325.921635 
z
" style="fill:#1f77b4;"/>
   </g>
   <g id="patch_117">
    <path clip-path="url(#p010505e4de)" d="M 235.110502 325.921635 
L 235.672779 325.921635 
L 235.672779 325.744828 
L 235.110502 325.744828 
z
" style="fill:#1f77b4;"/>
   </g>
   <g id="patch_118">
    <path clip-path="url(#p010505e4de)" d="M 235.813349 325.921635 
L 236.375626 325.921635 
L 236.375626 325.921635 
L 235.813349 325.921635 
z
" style="fill:#1f77b4;"/>
   </g>
   <g id="patch_119">
    <path clip-path="url(#p010505e4de)" d="M 236.516195 325.921635 
L 237.078472 325.921635 
L 237.078472 325.921635 
L 236.516195 325.921635 
z
" style="fill:#1f77b4;"/>
   </g>
   <g id="patch_120">
    <path clip-path="url(#p010505e4de)" d="M 237.219041 325.921635 
L 237.781318 325.921635 
L 237.781318 325.391214 
L 237.219041 325.391214 
z
" style="fill:#1f77b4;"/>
   </g>
   <g id="patch_121">
    <path clip-path="url(#p010505e4de)" d="M 237.921887 325.921635 
L 238.484164 325.921635 
L 238.484164 325.568021 
L 237.921887 325.568021 
z
" style="fill:#1f77b4;"/>
   </g>
   <g id="patch_122">
    <path clip-path="url(#p010505e4de)" d="M 238.624734 325.921635 
L 239.187011 325.921635 
L 239.187011 324.507179 
L 238.624734 324.507179 
z
" style="fill:#1f77b4;"/>
   </g>
   <g id="patch_123">
    <path clip-path="url(#p010505e4de)" d="M 239.32758 325.921635 
L 239.889857 325.921635 
L 239.889857 323.446337 
L 239.32758 323.446337 
z
" style="fill:#1f77b4;"/>
   </g>
   <g id="patch_124">
    <path clip-path="url(#p010505e4de)" d="M 240.030426 325.921635 
L 240.592703 325.921635 
L 240.592703 324.860793 
L 240.030426 324.860793 
z
" style="fill:#1f77b4;"/>
   </g>
   <g id="patch_125">
    <path clip-path="url(#p010505e4de)" d="M 240.733272 325.921635 
L 241.295549 325.921635 
L 241.295549 325.391214 
L 240.733272 325.391214 
z
" style="fill:#1f77b4;"/>
   </g>
   <g id="patch_126">
    <path clip-path="url(#p010505e4de)" d="M 241.436119 325.921635 
L 241.998396 325.921635 
L 241.998396 317.965321 
L 241.436119 317.965321 
z
" style="fill:#1f77b4;"/>
   </g>
   <g id="patch_127">
    <path clip-path="url(#p010505e4de)" d="M 242.138965 325.921635 
L 242.701242 325.921635 
L 242.701242 317.965321 
L 242.138965 317.965321 
z
" style="fill:#1f77b4;"/>
   </g>
   <g id="patch_128">
    <path clip-path="url(#p010505e4de)" d="M 242.841811 325.921635 
L 243.404088 325.921635 
L 243.404088 325.568021 
L 242.841811 325.568021 
z
" style="fill:#1f77b4;"/>
   </g>
   <g id="patch_129">
    <path clip-path="url(#p010505e4de)" d="M 243.544658 325.921635 
L 244.106935 325.921635 
L 244.106935 325.391214 
L 243.544658 325.391214 
z
" style="fill:#1f77b4;"/>
   </g>
   <g id="patch_130">
    <path clip-path="url(#p010505e4de)" d="M 244.247504 325.921635 
L 244.809781 325.921635 
L 244.809781 322.385495 
L 244.247504 322.385495 
z
" style="fill:#1f77b4;"/>
   </g>
   <g id="patch_131">
    <path clip-path="url(#p010505e4de)" d="M 244.95035 325.921635 
L 245.512627 325.921635 
L 245.512627 319.556584 
L 244.95035 319.556584 
z
" style="fill:#1f77b4;"/>
   </g>
   <g id="patch_132">
    <path clip-path="url(#p010505e4de)" d="M 245.653196 325.921635 
L 246.215473 325.921635 
L 246.215473 323.092723 
L 245.653196 323.092723 
z
" style="fill:#1f77b4;"/>
   </g>
   <g id="patch_133">
    <path clip-path="url(#p010505e4de)" d="M 246.356043 325.921635 
L 246.91832 325.921635 
L 246.91832 321.324654 
L 246.356043 321.324654 
z
" style="fill:#1f77b4;"/>
   </g>
   <g id="patch_134">
    <path clip-path="url(#p010505e4de)" d="M 247.058889 325.921635 
L 247.621166 325.921635 
L 247.621166 320.617426 
L 247.058889 320.617426 
z
" style="fill:#1f77b4;"/>
   </g>
   <g id="patch_135">
    <path clip-path="url(#p010505e4de)" d="M 247.761735 325.921635 
L 248.324012 325.921635 
L 248.324012 323.446337 
L 247.761735 323.446337 
z
" style="fill:#1f77b4;"/>
   </g>
   <g id="patch_136">
    <path clip-path="url(#p010505e4de)" d="M 248.464581 325.921635 
L 249.026858 325.921635 
L 249.026858 319.026163 
L 248.464581 319.026163 
z
" style="fill:#1f77b4;"/>
   </g>
   <g id="patch_137">
    <path clip-path="url(#p010505e4de)" d="M 249.167428 325.921635 
L 249.729705 325.921635 
L 249.729705 316.020444 
L 249.167428 316.020444 
z
" style="fill:#1f77b4;"/>
   </g>
   <g id="patch_138">
    <path clip-path="url(#p010505e4de)" d="M 249.870274 325.921635 
L 250.432551 325.921635 
L 250.432551 321.147847 
L 249.870274 321.147847 
z
" style="fill:#1f77b4;"/>
   </g>
   <g id="patch_139">
    <path clip-path="url(#p010505e4de)" d="M 250.57312 325.921635 
L 251.135397 325.921635 
L 251.135397 320.087005 
L 250.57312 320.087005 
z
" style="fill:#1f77b4;"/>
   </g>
   <g id="patch_140">
    <path clip-path="url(#p010505e4de)" d="M 251.275966 325.921635 
L 251.838243 325.921635 
L 251.838243 313.89876 
L 251.275966 313.89876 
z
" style="fill:#1f77b4;"/>
   </g>
   <g id="patch_141">
    <path clip-path="url(#p010505e4de)" d="M 251.978813 325.921635 
L 252.54109 325.921635 
L 252.54109 321.147847 
L 251.978813 321.147847 
z
" style="fill:#1f77b4;"/>
   </g>
   <g id="patch_142">
    <path clip-path="url(#p010505e4de)" d="M 252.681659 325.921635 
L 253.243936 325.921635 
L 253.243936 319.910198 
L 252.681659 319.910198 
z
" style="fill:#1f77b4;"/>
   </g>
   <g id="patch_143">
    <path clip-path="url(#p010505e4de)" d="M 253.384505 325.921635 
L 253.946782 325.921635 
L 253.946782 316.197251 
L 253.384505 316.197251 
z
" style="fill:#1f77b4;"/>
   </g>
   <g id="patch_144">
    <path clip-path="url(#p010505e4de)" d="M 254.087352 325.921635 
L 254.649629 325.921635 
L 254.649629 318.672549 
L 254.087352 318.672549 
z
" style="fill:#1f77b4;"/>
   </g>
   <g id="patch_145">
    <path clip-path="url(#p010505e4de)" d="M 254.790198 325.921635 
L 255.352475 325.921635 
L 255.352475 318.318935 
L 254.790198 318.318935 
z
" style="fill:#1f77b4;"/>
   </g>
   <g id="patch_146">
    <path clip-path="url(#p010505e4de)" d="M 255.493044 325.921635 
L 256.055321 325.921635 
L 256.055321 316.727672 
L 255.493044 316.727672 
z
" style="fill:#1f77b4;"/>
   </g>
   <g id="patch_147">
    <path clip-path="url(#p010505e4de)" d="M 256.19589 325.921635 
L 256.758167 325.921635 
L 256.758167 316.020444 
L 256.19589 316.020444 
z
" style="fill:#1f77b4;"/>
   </g>
   <g id="patch_148">
    <path clip-path="url(#p010505e4de)" d="M 256.898737 325.921635 
L 257.461014 325.921635 
L 257.461014 324.330372 
L 256.898737 324.330372 
z
" style="fill:#1f77b4;"/>
   </g>
   <g id="patch_149">
    <path clip-path="url(#p010505e4de)" d="M 257.601583 325.921635 
L 258.16386 325.921635 
L 258.16386 313.721953 
L 257.601583 313.721953 
z
" style="fill:#1f77b4;"/>
   </g>
   <g id="patch_150">
    <path clip-path="url(#p010505e4de)" d="M 258.304429 325.921635 
L 258.866706 325.921635 
L 258.866706 322.562302 
L 258.304429 322.562302 
z
" style="fill:#1f77b4;"/>
   </g>
   <g id="patch_151">
    <path clip-path="url(#p010505e4de)" d="M 259.007275 325.921635 
L 259.569552 325.921635 
L 259.569552 316.197251 
L 259.007275 316.197251 
z
" style="fill:#1f77b4;"/>
   </g>
   <g id="patch_152">
    <path clip-path="url(#p010505e4de)" d="M 259.710122 325.921635 
L 260.272399 325.921635 
L 260.272399 314.782795 
L 259.710122 314.782795 
z
" style="fill:#1f77b4;"/>
   </g>
   <g id="patch_153">
    <path clip-path="url(#p010505e4de)" d="M 260.412968 325.921635 
L 260.975245 325.921635 
L 260.975245 316.020444 
L 260.412968 316.020444 
z
" style="fill:#1f77b4;"/>
   </g>
   <g id="patch_154">
    <path clip-path="url(#p010505e4de)" d="M 261.115814 325.921635 
L 261.678091 325.921635 
L 261.678091 312.307498 
L 261.115814 312.307498 
z
" style="fill:#1f77b4;"/>
   </g>
   <g id="patch_155">
    <path clip-path="url(#p010505e4de)" d="M 261.818661 325.921635 
L 262.380938 325.921635 
L 262.380938 319.733391 
L 261.818661 319.733391 
z
" style="fill:#1f77b4;"/>
   </g>
   <g id="patch_156">
    <path clip-path="url(#p010505e4de)" d="M 262.521507 325.921635 
L 263.083784 325.921635 
L 263.083784 318.672549 
L 262.521507 318.672549 
z
" style="fill:#1f77b4;"/>
   </g>
   <g id="patch_157">
    <path clip-path="url(#p010505e4de)" d="M 263.224353 325.921635 
L 263.78663 325.921635 
L 263.78663 316.550865 
L 263.224353 316.550865 
z
" style="fill:#1f77b4;"/>
   </g>
   <g id="patch_158">
    <path clip-path="url(#p010505e4de)" d="M 263.927199 325.921635 
L 264.489476 325.921635 
L 264.489476 321.501461 
L 263.927199 321.501461 
z
" style="fill:#1f77b4;"/>
   </g>
   <g id="patch_159">
    <path clip-path="url(#p010505e4de)" d="M 264.630046 325.921635 
L 265.192323 325.921635 
L 265.192323 306.29606 
L 264.630046 306.29606 
z
" style="fill:#1f77b4;"/>
   </g>
   <g id="patch_160">
    <path clip-path="url(#p010505e4de)" d="M 265.332892 325.921635 
L 265.895169 325.921635 
L 265.895169 314.959602 
L 265.332892 314.959602 
z
" style="fill:#1f77b4;"/>
   </g>
   <g id="patch_161">
    <path clip-path="url(#p010505e4de)" d="M 266.035738 325.921635 
L 266.598015 325.921635 
L 266.598015 314.075567 
L 266.035738 314.075567 
z
" style="fill:#1f77b4;"/>
   </g>
   <g id="patch_162">
    <path clip-path="url(#p010505e4de)" d="M 266.738584 325.921635 
L 267.300861 325.921635 
L 267.300861 319.20297 
L 266.738584 319.20297 
z
" style="fill:#1f77b4;"/>
   </g>
   <g id="patch_163">
    <path clip-path="url(#p010505e4de)" d="M 267.441431 325.921635 
L 268.003708 325.921635 
L 268.003708 314.782795 
L 267.441431 314.782795 
z
" style="fill:#1f77b4;"/>
   </g>
   <g id="patch_164">
    <path clip-path="url(#p010505e4de)" d="M 268.144277 325.921635 
L 268.706554 325.921635 
L 268.706554 306.649674 
L 268.144277 306.649674 
z
" style="fill:#1f77b4;"/>
   </g>
   <g id="patch_165">
    <path clip-path="url(#p010505e4de)" d="M 268.847123 325.921635 
L 269.4094 325.921635 
L 269.4094 313.721953 
L 268.847123 313.721953 
z
" style="fill:#1f77b4;"/>
   </g>
   <g id="patch_166">
    <path clip-path="url(#p010505e4de)" d="M 269.549969 325.921635 
L 270.112247 325.921635 
L 270.112247 306.826481 
L 269.549969 306.826481 
z
" style="fill:#1f77b4;"/>
   </g>
   <g id="patch_167">
    <path clip-path="url(#p010505e4de)" d="M 270.252816 325.921635 
L 270.815093 325.921635 
L 270.815093 310.362621 
L 270.252816 310.362621 
z
" style="fill:#1f77b4;"/>
   </g>
   <g id="patch_168">
    <path clip-path="url(#p010505e4de)" d="M 270.955662 325.921635 
L 271.517939 325.921635 
L 271.517939 309.124972 
L 270.955662 309.124972 
z
" style="fill:#1f77b4;"/>
   </g>
   <g id="patch_169">
    <path clip-path="url(#p010505e4de)" d="M 271.658508 325.921635 
L 272.220785 325.921635 
L 272.220785 285.432837 
L 271.658508 285.432837 
z
" style="fill:#1f77b4;"/>
   </g>
   <g id="patch_170">
    <path clip-path="url(#p010505e4de)" d="M 272.361355 325.921635 
L 272.923632 325.921635 
L 272.923632 307.356902 
L 272.361355 307.356902 
z
" style="fill:#1f77b4;"/>
   </g>
   <g id="patch_171">
    <path clip-path="url(#p010505e4de)" d="M 273.064201 325.921635 
L 273.626478 325.921635 
L 273.626478 298.870167 
L 273.064201 298.870167 
z
" style="fill:#1f77b4;"/>
   </g>
   <g id="patch_172">
    <path clip-path="url(#p010505e4de)" d="M 273.767047 325.921635 
L 274.329324 325.921635 
L 274.329324 296.748483 
L 273.767047 296.748483 
z
" style="fill:#1f77b4;"/>
   </g>
   <g id="patch_173">
    <path clip-path="url(#p010505e4de)" d="M 274.469893 325.921635 
L 275.03217 325.921635 
L 275.03217 295.334028 
L 274.469893 295.334028 
z
" style="fill:#1f77b4;"/>
   </g>
   <g id="patch_174">
    <path clip-path="url(#p010505e4de)" d="M 275.17274 325.921635 
L 275.735017 325.921635 
L 275.735017 294.096379 
L 275.17274 294.096379 
z
" style="fill:#1f77b4;"/>
   </g>
   <g id="patch_175">
    <path clip-path="url(#p010505e4de)" d="M 275.875586 325.921635 
L 276.437863 325.921635 
L 276.437863 305.765639 
L 275.875586 305.765639 
z
" style="fill:#1f77b4;"/>
   </g>
   <g id="patch_176">
    <path clip-path="url(#p010505e4de)" d="M 276.578432 325.921635 
L 277.140709 325.921635 
L 277.140709 311.246656 
L 276.578432 311.246656 
z
" style="fill:#1f77b4;"/>
   </g>
   <g id="patch_177">
    <path clip-path="url(#p010505e4de)" d="M 277.281278 325.921635 
L 277.843555 325.921635 
L 277.843555 305.588832 
L 277.281278 305.588832 
z
" style="fill:#1f77b4;"/>
   </g>
   <g id="patch_178">
    <path clip-path="url(#p010505e4de)" d="M 277.984125 325.921635 
L 278.546402 325.921635 
L 278.546402 273.233155 
L 277.984125 273.233155 
z
" style="fill:#1f77b4;"/>
   </g>
   <g id="patch_179">
    <path clip-path="url(#p010505e4de)" d="M 278.686971 325.921635 
L 279.249248 325.921635 
L 279.249248 287.554521 
L 278.686971 287.554521 
z
" style="fill:#1f77b4;"/>
   </g>
   <g id="patch_180">
    <path clip-path="url(#p010505e4de)" d="M 279.389817 325.921635 
L 279.952094 325.921635 
L 279.952094 282.427118 
L 279.389817 282.427118 
z
" style="fill:#1f77b4;"/>
   </g>
   <g id="patch_181">
    <path clip-path="url(#p010505e4de)" d="M 280.092664 325.921635 
L 280.654941 325.921635 
L 280.654941 276.769295 
L 280.092664 276.769295 
z
" style="fill:#1f77b4;"/>
   </g>
   <g id="patch_182">
    <path clip-path="url(#p010505e4de)" d="M 280.79551 325.921635 
L 281.357787 325.921635 
L 281.357787 301.699079 
L 280.79551 301.699079 
z
" style="fill:#1f77b4;"/>
   </g>
   <g id="patch_183">
    <path clip-path="url(#p010505e4de)" d="M 281.498356 325.921635 
L 282.060633 325.921635 
L 282.060633 311.069849 
L 281.498356 311.069849 
z
" style="fill:#1f77b4;"/>
   </g>
   <g id="patch_184">
    <path clip-path="url(#p010505e4de)" d="M 282.201202 325.921635 
L 282.763479 325.921635 
L 282.763479 276.062067 
L 282.201202 276.062067 
z
" style="fill:#1f77b4;"/>
   </g>
   <g id="patch_185">
    <path clip-path="url(#p010505e4de)" d="M 282.904049 325.921635 
L 283.466326 325.921635 
L 283.466326 271.288278 
L 282.904049 271.288278 
z
" style="fill:#1f77b4;"/>
   </g>
   <g id="patch_186">
    <path clip-path="url(#p010505e4de)" d="M 283.606895 325.921635 
L 284.169172 325.921635 
L 284.169172 271.111471 
L 283.606895 271.111471 
z
" style="fill:#1f77b4;"/>
   </g>
   <g id="patch_187">
    <path clip-path="url(#p010505e4de)" d="M 284.309741 325.921635 
L 284.872018 325.921635 
L 284.872018 255.37565 
L 284.309741 255.37565 
z
" style="fill:#1f77b4;"/>
   </g>
   <g id="patch_188">
    <path clip-path="url(#p010505e4de)" d="M 285.012587 325.921635 
L 285.574864 325.921635 
L 285.574864 265.276841 
L 285.012587 265.276841 
z
" style="fill:#1f77b4;"/>
   </g>
   <g id="patch_189">
    <path clip-path="url(#p010505e4de)" d="M 285.715434 325.921635 
L 286.277711 325.921635 
L 286.277711 267.575332 
L 285.715434 267.575332 
z
" style="fill:#1f77b4;"/>
   </g>
   <g id="patch_190">
    <path clip-path="url(#p010505e4de)" d="M 286.41828 325.921635 
L 286.980557 325.921635 
L 286.980557 273.940383 
L 286.41828 273.940383 
z
" style="fill:#1f77b4;"/>
   </g>
   <g id="patch_191">
    <path clip-path="url(#p010505e4de)" d="M 287.121126 325.921635 
L 287.683403 325.921635 
L 287.683403 227.970569 
L 287.121126 227.970569 
z
" style="fill:#1f77b4;"/>
   </g>
   <g id="patch_192">
    <path clip-path="url(#p010505e4de)" d="M 287.823972 325.921635 
L 288.38625 325.921635 
L 288.38625 238.40218 
L 287.823972 238.40218 
z
" style="fill:#1f77b4;"/>
   </g>
   <g id="patch_193">
    <path clip-path="url(#p010505e4de)" d="M 288.526819 325.921635 
L 289.089096 325.921635 
L 289.089096 206.576924 
L 288.526819 206.576924 
z
" style="fill:#1f77b4;"/>
   </g>
   <g id="patch_194">
    <path clip-path="url(#p010505e4de)" d="M 289.229665 325.921635 
L 289.791942 325.921635 
L 289.791942 229.385024 
L 289.229665 229.385024 
z
" style="fill:#1f77b4;"/>
   </g>
   <g id="patch_195">
    <path clip-path="url(#p010505e4de)" d="M 289.932511 325.921635 
L 290.494788 325.921635 
L 290.494788 255.552457 
L 289.932511 255.552457 
z
" style="fill:#1f77b4;"/>
   </g>
   <g id="patch_196">
    <path clip-path="url(#p010505e4de)" d="M 290.635358 325.921635 
L 291.197635 325.921635 
L 291.197635 178.464614 
L 290.635358 178.464614 
z
" style="fill:#1f77b4;"/>
   </g>
   <g id="patch_197">
    <path clip-path="url(#p010505e4de)" d="M 291.338204 325.921635 
L 291.900481 325.921635 
L 291.900481 289.499397 
L 291.338204 289.499397 
z
" style="fill:#1f77b4;"/>
   </g>
   <g id="patch_198">
    <path clip-path="url(#p010505e4de)" d="M 292.04105 325.921635 
L 292.603327 325.921635 
L 292.603327 278.360558 
L 292.04105 278.360558 
z
" style="fill:#1f77b4;"/>
   </g>
   <g id="patch_199">
    <path clip-path="url(#p010505e4de)" d="M 292.743896 325.921635 
L 293.306173 325.921635 
L 293.306173 136.56136 
L 292.743896 136.56136 
z
" style="fill:#1f77b4;"/>
   </g>
   <g id="patch_200">
    <path clip-path="url(#p010505e4de)" d="M 293.446743 325.921635 
L 294.00902 325.921635 
L 294.00902 144.871288 
L 293.446743 144.871288 
z
" style="fill:#1f77b4;"/>
   </g>
   <g id="patch_201">
    <path clip-path="url(#p010505e4de)" d="M 294.149589 325.921635 
L 294.711866 325.921635 
L 294.711866 156.010128 
L 294.149589 156.010128 
z
" style="fill:#1f77b4;"/>
   </g>
   <g id="patch_202">
    <path clip-path="url(#p010505e4de)" d="M 294.852435 325.921635 
L 295.414712 325.921635 
L 295.414712 159.015847 
L 294.852435 159.015847 
z
" style="fill:#1f77b4;"/>
   </g>
   <g id="patch_203">
    <path clip-path="url(#p010505e4de)" d="M 295.555281 325.921635 
L 296.117558 325.921635 
L 296.117558 190.841103 
L 295.555281 190.841103 
z
" style="fill:#1f77b4;"/>
   </g>
   <g id="patch_204">
    <path clip-path="url(#p010505e4de)" d="M 296.258128 325.921635 
L 296.820405 325.921635 
L 296.820405 294.096379 
L 296.258128 294.096379 
z
" style="fill:#1f77b4;"/>
   </g>
   <g id="patch_205">
    <path clip-path="url(#p010505e4de)" d="M 296.960974 325.921635 
L 297.523251 325.921635 
L 297.523251 287.200907 
L 296.960974 287.200907 
z
" style="fill:#1f77b4;"/>
   </g>
   <g id="patch_206">
    <path clip-path="url(#p010505e4de)" d="M 297.66382 325.921635 
L 298.226097 325.921635 
L 298.226097 78.568671 
L 297.66382 78.568671 
z
" style="fill:#1f77b4;"/>
   </g>
   <g id="patch_207">
    <path clip-path="url(#p010505e4de)" d="M 298.366667 325.921635 
L 298.928944 325.921635 
L 298.928944 158.485426 
L 298.366667 158.485426 
z
" style="fill:#1f77b4;"/>
   </g>
   <g id="patch_208">
    <path clip-path="url(#p010505e4de)" d="M 299.069513 325.921635 
L 299.63179 325.921635 
L 299.63179 32.775664 
L 299.069513 32.775664 
z
" style="fill:#1f77b4;"/>
   </g>
   <g id="patch_209">
    <path clip-path="url(#p010505e4de)" d="M 299.772359 325.921635 
L 300.334636 325.921635 
L 300.334636 236.10369 
L 299.772359 236.10369 
z
" style="fill:#1f77b4;"/>
   </g>
   <g id="patch_210">
    <path clip-path="url(#p010505e4de)" d="M 300.475205 325.921635 
L 301.037482 325.921635 
L 301.037482 190.310682 
L 300.475205 190.310682 
z
" style="fill:#1f77b4;"/>
   </g>
   <g id="patch_211">
    <path clip-path="url(#p010505e4de)" d="M 301.178052 325.921635 
L 301.740329 325.921635 
L 301.740329 264.569613 
L 301.178052 264.569613 
z
" style="fill:#1f77b4;"/>
   </g>
   <g id="patch_212">
    <path clip-path="url(#p010505e4de)" d="M 301.880898 325.921635 
L 302.443175 325.921635 
L 302.443175 273.586769 
L 301.880898 273.586769 
z
" style="fill:#1f77b4;"/>
   </g>
   <g id="patch_213">
    <path clip-path="url(#p010505e4de)" d="M 302.583744 325.921635 
L 303.146021 325.921635 
L 303.146021 92.006002 
L 302.583744 92.006002 
z
" style="fill:#1f77b4;"/>
   </g>
   <g id="patch_214">
    <path clip-path="url(#p010505e4de)" d="M 303.28659 325.921635 
L 303.848867 325.921635 
L 303.848867 50.279555 
L 303.28659 50.279555 
z
" style="fill:#1f77b4;"/>
   </g>
   <g id="patch_215">
    <path clip-path="url(#p010505e4de)" d="M 303.989437 325.921635 
L 304.551714 325.921635 
L 304.551714 123.300837 
L 303.989437 123.300837 
z
" style="fill:#1f77b4;"/>
   </g>
   <g id="patch_216">
    <path clip-path="url(#p010505e4de)" d="M 304.692283 325.921635 
L 305.25456 325.921635 
L 305.25456 104.38249 
L 304.692283 104.38249 
z
" style="fill:#1f77b4;"/>
   </g>
   <g id="patch_217">
    <path clip-path="url(#p010505e4de)" d="M 305.395129 325.921635 
L 305.957406 325.921635 
L 305.957406 266.51449 
L 305.395129 266.51449 
z
" style="fill:#1f77b4;"/>
   </g>
   <g id="matplotlib.axis_3">
    <g id="xtick_3">
     <g id="line2d_10">
      <g>
       <use style="stroke:#000000;stroke-width:0.8;" x="232.580256" xlink:href="#m47de2c67b7" y="325.921635"/>
      </g>
     </g>
     <g id="text_10">
      <!-- 0 -->
      <g transform="translate(229.399006 340.520072)scale(0.1 -0.1)">
       <use xlink:href="#DejaVuSans-48"/>
      </g>
     </g>
    </g>
    <g id="xtick_4">
     <g id="line2d_11">
      <g>
       <use style="stroke:#000000;stroke-width:0.8;" x="302.864883" xlink:href="#m47de2c67b7" y="325.921635"/>
      </g>
     </g>
     <g id="text_11">
      <!-- 100 -->
      <g transform="translate(293.321133 340.520072)scale(0.1 -0.1)">
       <use xlink:href="#DejaVuSans-49"/>
       <use x="63.623047" xlink:href="#DejaVuSans-48"/>
       <use x="127.246094" xlink:href="#DejaVuSans-48"/>
      </g>
     </g>
    </g>
   </g>
   <g id="matplotlib.axis_4">
    <g id="ytick_7">
     <g id="line2d_12">
      <g>
       <use style="stroke:#000000;stroke-width:0.8;" x="228.616203" xlink:href="#m6a857f5973" y="325.921635"/>
      </g>
     </g>
     <g id="text_12">
      <!-- 0 -->
      <g transform="translate(215.253703 329.720854)scale(0.1 -0.1)">
       <use xlink:href="#DejaVuSans-48"/>
      </g>
     </g>
    </g>
    <g id="ytick_8">
     <g id="line2d_13">
      <g>
       <use style="stroke:#000000;stroke-width:0.8;" x="228.616203" xlink:href="#m6a857f5973" y="290.560239"/>
      </g>
     </g>
     <g id="text_13">
      <!-- 200 -->
      <g transform="translate(202.528703 294.359458)scale(0.1 -0.1)">
       <use xlink:href="#DejaVuSans-50"/>
       <use x="63.623047" xlink:href="#DejaVuSans-48"/>
       <use x="127.246094" xlink:href="#DejaVuSans-48"/>
      </g>
     </g>
    </g>
    <g id="ytick_9">
     <g id="line2d_14">
      <g>
       <use style="stroke:#000000;stroke-width:0.8;" x="228.616203" xlink:href="#m6a857f5973" y="255.198843"/>
      </g>
     </g>
     <g id="text_14">
      <!-- 400 -->
      <defs>
       <path d="M 37.796875 64.3125 
L 12.890625 25.390625 
L 37.796875 25.390625 
z
M 35.203125 72.90625 
L 47.609375 72.90625 
L 47.609375 25.390625 
L 58.015625 25.390625 
L 58.015625 17.1875 
L 47.609375 17.1875 
L 47.609375 0 
L 37.796875 0 
L 37.796875 17.1875 
L 4.890625 17.1875 
L 4.890625 26.703125 
z
" id="DejaVuSans-52"/>
      </defs>
      <g transform="translate(202.528703 258.998062)scale(0.1 -0.1)">
       <use xlink:href="#DejaVuSans-52"/>
       <use x="63.623047" xlink:href="#DejaVuSans-48"/>
       <use x="127.246094" xlink:href="#DejaVuSans-48"/>
      </g>
     </g>
    </g>
    <g id="ytick_10">
     <g id="line2d_15">
      <g>
       <use style="stroke:#000000;stroke-width:0.8;" x="228.616203" xlink:href="#m6a857f5973" y="219.837448"/>
      </g>
     </g>
     <g id="text_15">
      <!-- 600 -->
      <defs>
       <path d="M 33.015625 40.375 
Q 26.375 40.375 22.484375 35.828125 
Q 18.609375 31.296875 18.609375 23.390625 
Q 18.609375 15.53125 22.484375 10.953125 
Q 26.375 6.390625 33.015625 6.390625 
Q 39.65625 6.390625 43.53125 10.953125 
Q 47.40625 15.53125 47.40625 23.390625 
Q 47.40625 31.296875 43.53125 35.828125 
Q 39.65625 40.375 33.015625 40.375 
z
M 52.59375 71.296875 
L 52.59375 62.3125 
Q 48.875 64.0625 45.09375 64.984375 
Q 41.3125 65.921875 37.59375 65.921875 
Q 27.828125 65.921875 22.671875 59.328125 
Q 17.53125 52.734375 16.796875 39.40625 
Q 19.671875 43.65625 24.015625 45.921875 
Q 28.375 48.1875 33.59375 48.1875 
Q 44.578125 48.1875 50.953125 41.515625 
Q 57.328125 34.859375 57.328125 23.390625 
Q 57.328125 12.15625 50.6875 5.359375 
Q 44.046875 -1.421875 33.015625 -1.421875 
Q 20.359375 -1.421875 13.671875 8.265625 
Q 6.984375 17.96875 6.984375 36.375 
Q 6.984375 53.65625 15.1875 63.9375 
Q 23.390625 74.21875 37.203125 74.21875 
Q 40.921875 74.21875 44.703125 73.484375 
Q 48.484375 72.75 52.59375 71.296875 
z
" id="DejaVuSans-54"/>
      </defs>
      <g transform="translate(202.528703 223.636666)scale(0.1 -0.1)">
       <use xlink:href="#DejaVuSans-54"/>
       <use x="63.623047" xlink:href="#DejaVuSans-48"/>
       <use x="127.246094" xlink:href="#DejaVuSans-48"/>
      </g>
     </g>
    </g>
    <g id="ytick_11">
     <g id="line2d_16">
      <g>
       <use style="stroke:#000000;stroke-width:0.8;" x="228.616203" xlink:href="#m6a857f5973" y="184.476052"/>
      </g>
     </g>
     <g id="text_16">
      <!-- 800 -->
      <defs>
       <path d="M 31.78125 34.625 
Q 24.75 34.625 20.71875 30.859375 
Q 16.703125 27.09375 16.703125 20.515625 
Q 16.703125 13.921875 20.71875 10.15625 
Q 24.75 6.390625 31.78125 6.390625 
Q 38.8125 6.390625 42.859375 10.171875 
Q 46.921875 13.96875 46.921875 20.515625 
Q 46.921875 27.09375 42.890625 30.859375 
Q 38.875 34.625 31.78125 34.625 
z
M 21.921875 38.8125 
Q 15.578125 40.375 12.03125 44.71875 
Q 8.5 49.078125 8.5 55.328125 
Q 8.5 64.0625 14.71875 69.140625 
Q 20.953125 74.21875 31.78125 74.21875 
Q 42.671875 74.21875 48.875 69.140625 
Q 55.078125 64.0625 55.078125 55.328125 
Q 55.078125 49.078125 51.53125 44.71875 
Q 48 40.375 41.703125 38.8125 
Q 48.828125 37.15625 52.796875 32.3125 
Q 56.78125 27.484375 56.78125 20.515625 
Q 56.78125 9.90625 50.3125 4.234375 
Q 43.84375 -1.421875 31.78125 -1.421875 
Q 19.734375 -1.421875 13.25 4.234375 
Q 6.78125 9.90625 6.78125 20.515625 
Q 6.78125 27.484375 10.78125 32.3125 
Q 14.796875 37.15625 21.921875 38.8125 
z
M 18.3125 54.390625 
Q 18.3125 48.734375 21.84375 45.5625 
Q 25.390625 42.390625 31.78125 42.390625 
Q 38.140625 42.390625 41.71875 45.5625 
Q 45.3125 48.734375 45.3125 54.390625 
Q 45.3125 60.0625 41.71875 63.234375 
Q 38.140625 66.40625 31.78125 66.40625 
Q 25.390625 66.40625 21.84375 63.234375 
Q 18.3125 60.0625 18.3125 54.390625 
z
" id="DejaVuSans-56"/>
      </defs>
      <g transform="translate(202.528703 188.27527)scale(0.1 -0.1)">
       <use xlink:href="#DejaVuSans-56"/>
       <use x="63.623047" xlink:href="#DejaVuSans-48"/>
       <use x="127.246094" xlink:href="#DejaVuSans-48"/>
      </g>
     </g>
    </g>
    <g id="ytick_12">
     <g id="line2d_17">
      <g>
       <use style="stroke:#000000;stroke-width:0.8;" x="228.616203" xlink:href="#m6a857f5973" y="149.114656"/>
      </g>
     </g>
     <g id="text_17">
      <!-- 1000 -->
      <g transform="translate(196.166203 152.913875)scale(0.1 -0.1)">
       <use xlink:href="#DejaVuSans-49"/>
       <use x="63.623047" xlink:href="#DejaVuSans-48"/>
       <use x="127.246094" xlink:href="#DejaVuSans-48"/>
       <use x="190.869141" xlink:href="#DejaVuSans-48"/>
      </g>
     </g>
    </g>
    <g id="ytick_13">
     <g id="line2d_18">
      <g>
       <use style="stroke:#000000;stroke-width:0.8;" x="228.616203" xlink:href="#m6a857f5973" y="113.75326"/>
      </g>
     </g>
     <g id="text_18">
      <!-- 1200 -->
      <g transform="translate(196.166203 117.552479)scale(0.1 -0.1)">
       <use xlink:href="#DejaVuSans-49"/>
       <use x="63.623047" xlink:href="#DejaVuSans-50"/>
       <use x="127.246094" xlink:href="#DejaVuSans-48"/>
       <use x="190.869141" xlink:href="#DejaVuSans-48"/>
      </g>
     </g>
    </g>
    <g id="ytick_14">
     <g id="line2d_19">
      <g>
       <use style="stroke:#000000;stroke-width:0.8;" x="228.616203" xlink:href="#m6a857f5973" y="78.391864"/>
      </g>
     </g>
     <g id="text_19">
      <!-- 1400 -->
      <g transform="translate(196.166203 82.191083)scale(0.1 -0.1)">
       <use xlink:href="#DejaVuSans-49"/>
       <use x="63.623047" xlink:href="#DejaVuSans-52"/>
       <use x="127.246094" xlink:href="#DejaVuSans-48"/>
       <use x="190.869141" xlink:href="#DejaVuSans-48"/>
      </g>
     </g>
    </g>
    <g id="ytick_15">
     <g id="line2d_20">
      <g>
       <use style="stroke:#000000;stroke-width:0.8;" x="228.616203" xlink:href="#m6a857f5973" y="43.030468"/>
      </g>
     </g>
     <g id="text_20">
      <!-- 1600 -->
      <g transform="translate(196.166203 46.829687)scale(0.1 -0.1)">
       <use xlink:href="#DejaVuSans-49"/>
       <use x="63.623047" xlink:href="#DejaVuSans-54"/>
       <use x="127.246094" xlink:href="#DejaVuSans-48"/>
       <use x="190.869141" xlink:href="#DejaVuSans-48"/>
      </g>
     </g>
    </g>
   </g>
   <g id="line2d_21">
    <path clip-path="url(#p010505e4de)" d="M 232.580256 325.863608 
L 233.283102 325.8248 
L 233.985948 325.763164 
L 234.688795 325.673546 
L 235.391641 325.548433 
L 236.094487 325.384734 
L 236.797333 325.178103 
L 237.50018 324.92346 
L 238.203026 324.627579 
L 238.905872 324.306955 
L 239.608718 323.976758 
L 240.311565 323.646709 
L 241.014411 323.322108 
L 241.717257 323.014519 
L 242.420103 322.736458 
L 243.12295 322.483141 
L 243.825796 322.237629 
L 244.528642 321.984311 
L 245.231489 321.716044 
L 245.934335 321.434449 
L 246.637181 321.13172 
L 247.340027 320.799756 
L 248.042874 320.44813 
L 248.74572 320.093485 
L 249.448566 319.751653 
L 250.151412 319.436331 
L 250.854259 319.149361 
L 251.557105 318.898841 
L 252.259951 318.693978 
L 252.962798 318.5291 
L 253.665644 318.392206 
L 254.36849 318.27755 
L 255.071336 318.168049 
L 255.774183 318.057885 
L 256.477029 317.937927 
L 257.179875 317.796541 
L 257.882721 317.63321 
L 258.585568 317.456697 
L 259.288414 317.261701 
L 259.99126 317.055439 
L 260.694106 316.831061 
L 261.396953 316.589305 
L 262.099799 316.330832 
L 262.802645 316.046512 
L 263.505492 315.706742 
L 264.208338 315.29245 
L 264.911184 314.783532 
L 265.61403 314.170193 
L 266.316877 313.428061 
L 267.019723 312.530697 
L 267.722569 311.460209 
L 268.425415 310.252899 
L 269.128262 308.946692 
L 269.831108 307.568688 
L 270.533954 306.151434 
L 271.236801 304.74066 
L 271.939647 303.389901 
L 272.642493 302.148276 
L 273.345339 300.990599 
L 274.048186 299.873939 
L 274.751032 298.78099 
L 275.453878 297.68112 
L 276.156724 296.533973 
L 276.859571 295.29765 
L 277.562417 293.918983 
L 278.265263 292.37588 
L 278.96811 290.663996 
L 279.670956 288.738928 
L 280.373802 286.54552 
L 281.076648 284.040252 
L 281.779495 281.175036 
L 282.482341 277.903628 
L 283.185187 274.221684 
L 283.888033 270.169777 
L 284.59088 265.795406 
L 285.293726 261.184286 
L 285.996572 256.395623 
L 286.699418 251.453422 
L 287.402265 246.457244 
L 288.105111 241.442804 
L 288.807957 236.338745 
L 289.510804 231.136525 
L 290.21365 225.836587 
L 290.916496 220.458518 
L 291.619342 215.167269 
L 292.322189 210.014977 
L 293.025035 205.070641 
L 293.727881 200.469535 
L 294.430727 196.311442 
L 295.133574 192.583841 
L 295.83642 189.385041 
L 296.539266 186.545599 
L 297.242113 183.981051 
L 297.944959 181.584252 
L 298.647805 179.184655 
L 299.350651 176.63756 
L 300.053498 173.973967 
L 300.756344 170.91788 
L 301.45919 167.567089 
L 302.162036 164.152307 
L 302.864883 160.653355 
L 303.567729 157.297851 
L 304.270575 155.202162 
L 304.973421 153.148963 
L 305.676268 151.432145 
" style="fill:none;stroke:#ff0000;stroke-linecap:square;stroke-width:1.5;"/>
   </g>
   <g id="patch_218">
    <path d="M 228.616203 325.921635 
L 228.616203 18.118365 
" style="fill:none;stroke:#000000;stroke-linecap:square;stroke-linejoin:miter;stroke-width:0.8;"/>
   </g>
   <g id="patch_219">
    <path d="M 309.640321 325.921635 
L 309.640321 18.118365 
" style="fill:none;stroke:#000000;stroke-linecap:square;stroke-linejoin:miter;stroke-width:0.8;"/>
   </g>
   <g id="patch_220">
    <path d="M 228.616203 325.921635 
L 309.640321 325.921635 
" style="fill:none;stroke:#000000;stroke-linecap:square;stroke-linejoin:miter;stroke-width:0.8;"/>
   </g>
   <g id="patch_221">
    <path d="M 228.616203 18.118365 
L 309.640321 18.118365 
" style="fill:none;stroke:#000000;stroke-linecap:square;stroke-linejoin:miter;stroke-width:0.8;"/>
   </g>
   <g id="text_21">
    <!-- Casos novos - MG - (data) -->
    <defs>
     <path d="M 54.890625 33.015625 
L 54.890625 0 
L 45.90625 0 
L 45.90625 32.71875 
Q 45.90625 40.484375 42.875 44.328125 
Q 39.84375 48.1875 33.796875 48.1875 
Q 26.515625 48.1875 22.3125 43.546875 
Q 18.109375 38.921875 18.109375 30.90625 
L 18.109375 0 
L 9.078125 0 
L 9.078125 54.6875 
L 18.109375 54.6875 
L 18.109375 46.1875 
Q 21.34375 51.125 25.703125 53.5625 
Q 30.078125 56 35.796875 56 
Q 45.21875 56 50.046875 50.171875 
Q 54.890625 44.34375 54.890625 33.015625 
z
" id="DejaVuSans-110"/>
     <path d="M 2.984375 54.6875 
L 12.5 54.6875 
L 29.59375 8.796875 
L 46.6875 54.6875 
L 56.203125 54.6875 
L 35.6875 0 
L 23.484375 0 
z
" id="DejaVuSans-118"/>
    </defs>
    <g transform="translate(191.630762 12.118365)scale(0.12 -0.12)">
     <use xlink:href="#DejaVuSans-67"/>
     <use x="69.824219" xlink:href="#DejaVuSans-97"/>
     <use x="131.103516" xlink:href="#DejaVuSans-115"/>
     <use x="183.203125" xlink:href="#DejaVuSans-111"/>
     <use x="244.384766" xlink:href="#DejaVuSans-115"/>
     <use x="296.484375" xlink:href="#DejaVuSans-32"/>
     <use x="328.271484" xlink:href="#DejaVuSans-110"/>
     <use x="391.650391" xlink:href="#DejaVuSans-111"/>
     <use x="452.832031" xlink:href="#DejaVuSans-118"/>
     <use x="512.011719" xlink:href="#DejaVuSans-111"/>
     <use x="573.193359" xlink:href="#DejaVuSans-115"/>
     <use x="625.292969" xlink:href="#DejaVuSans-32"/>
     <use x="657.080078" xlink:href="#DejaVuSans-45"/>
     <use x="693.164062" xlink:href="#DejaVuSans-32"/>
     <use x="724.951172" xlink:href="#DejaVuSans-77"/>
     <use x="811.230469" xlink:href="#DejaVuSans-71"/>
     <use x="888.720703" xlink:href="#DejaVuSans-32"/>
     <use x="920.507812" xlink:href="#DejaVuSans-45"/>
     <use x="956.591797" xlink:href="#DejaVuSans-32"/>
     <use x="988.378906" xlink:href="#DejaVuSans-40"/>
     <use x="1027.392578" xlink:href="#DejaVuSans-100"/>
     <use x="1090.869141" xlink:href="#DejaVuSans-97"/>
     <use x="1152.148438" xlink:href="#DejaVuSans-116"/>
     <use x="1191.357422" xlink:href="#DejaVuSans-97"/>
     <use x="1252.636719" xlink:href="#DejaVuSans-41"/>
    </g>
   </g>
  </g>
  <g id="axes_3">
   <g id="patch_222">
    <path d="M 374.420297 325.921635 
L 455.444415 325.921635 
L 455.444415 18.118365 
L 374.420297 18.118365 
z
" style="fill:#ffffff;"/>
   </g>
   <g id="matplotlib.axis_5">
    <g id="xtick_5">
     <g id="line2d_22">
      <g>
       <use style="stroke:#000000;stroke-width:0.8;" x="378.103212" xlink:href="#m47de2c67b7" y="325.921635"/>
      </g>
     </g>
     <g id="text_22">
      <!-- 0 -->
      <g transform="translate(374.921962 340.520072)scale(0.1 -0.1)">
       <use xlink:href="#DejaVuSans-48"/>
      </g>
     </g>
    </g>
    <g id="xtick_6">
     <g id="line2d_23">
      <g>
       <use style="stroke:#000000;stroke-width:0.8;" x="448.92849" xlink:href="#m47de2c67b7" y="325.921635"/>
      </g>
     </g>
     <g id="text_23">
      <!-- 100 -->
      <g transform="translate(439.38474 340.520072)scale(0.1 -0.1)">
       <use xlink:href="#DejaVuSans-49"/>
       <use x="63.623047" xlink:href="#DejaVuSans-48"/>
       <use x="127.246094" xlink:href="#DejaVuSans-48"/>
      </g>
     </g>
    </g>
   </g>
   <g id="matplotlib.axis_6">
    <g id="ytick_16">
     <g id="line2d_24">
      <g>
       <use style="stroke:#000000;stroke-width:0.8;" x="374.420297" xlink:href="#m6a857f5973" y="321.299476"/>
      </g>
     </g>
     <g id="text_24">
      <!-- 1.0 -->
      <defs>
       <path d="M 10.6875 12.40625 
L 21 12.40625 
L 21 0 
L 10.6875 0 
z
" id="DejaVuSans-46"/>
      </defs>
      <g transform="translate(351.517172 325.098695)scale(0.1 -0.1)">
       <use xlink:href="#DejaVuSans-49"/>
       <use x="63.623047" xlink:href="#DejaVuSans-46"/>
       <use x="95.410156" xlink:href="#DejaVuSans-48"/>
      </g>
     </g>
    </g>
    <g id="ytick_17">
     <g id="line2d_25">
      <g>
       <use style="stroke:#000000;stroke-width:0.8;" x="374.420297" xlink:href="#m6a857f5973" y="273.252286"/>
      </g>
     </g>
     <g id="text_25">
      <!-- 1.5 -->
      <g transform="translate(351.517172 277.051504)scale(0.1 -0.1)">
       <use xlink:href="#DejaVuSans-49"/>
       <use x="63.623047" xlink:href="#DejaVuSans-46"/>
       <use x="95.410156" xlink:href="#DejaVuSans-53"/>
      </g>
     </g>
    </g>
    <g id="ytick_18">
     <g id="line2d_26">
      <g>
       <use style="stroke:#000000;stroke-width:0.8;" x="374.420297" xlink:href="#m6a857f5973" y="225.205095"/>
      </g>
     </g>
     <g id="text_26">
      <!-- 2.0 -->
      <g transform="translate(351.517172 229.004314)scale(0.1 -0.1)">
       <use xlink:href="#DejaVuSans-50"/>
       <use x="63.623047" xlink:href="#DejaVuSans-46"/>
       <use x="95.410156" xlink:href="#DejaVuSans-48"/>
      </g>
     </g>
    </g>
    <g id="ytick_19">
     <g id="line2d_27">
      <g>
       <use style="stroke:#000000;stroke-width:0.8;" x="374.420297" xlink:href="#m6a857f5973" y="177.157904"/>
      </g>
     </g>
     <g id="text_27">
      <!-- 2.5 -->
      <g transform="translate(351.517172 180.957123)scale(0.1 -0.1)">
       <use xlink:href="#DejaVuSans-50"/>
       <use x="63.623047" xlink:href="#DejaVuSans-46"/>
       <use x="95.410156" xlink:href="#DejaVuSans-53"/>
      </g>
     </g>
    </g>
    <g id="ytick_20">
     <g id="line2d_28">
      <g>
       <use style="stroke:#000000;stroke-width:0.8;" x="374.420297" xlink:href="#m6a857f5973" y="129.110714"/>
      </g>
     </g>
     <g id="text_28">
      <!-- 3.0 -->
      <defs>
       <path d="M 40.578125 39.3125 
Q 47.65625 37.796875 51.625 33 
Q 55.609375 28.21875 55.609375 21.1875 
Q 55.609375 10.40625 48.1875 4.484375 
Q 40.765625 -1.421875 27.09375 -1.421875 
Q 22.515625 -1.421875 17.65625 -0.515625 
Q 12.796875 0.390625 7.625 2.203125 
L 7.625 11.71875 
Q 11.71875 9.328125 16.59375 8.109375 
Q 21.484375 6.890625 26.8125 6.890625 
Q 36.078125 6.890625 40.9375 10.546875 
Q 45.796875 14.203125 45.796875 21.1875 
Q 45.796875 27.640625 41.28125 31.265625 
Q 36.765625 34.90625 28.71875 34.90625 
L 20.21875 34.90625 
L 20.21875 43.015625 
L 29.109375 43.015625 
Q 36.375 43.015625 40.234375 45.921875 
Q 44.09375 48.828125 44.09375 54.296875 
Q 44.09375 59.90625 40.109375 62.90625 
Q 36.140625 65.921875 28.71875 65.921875 
Q 24.65625 65.921875 20.015625 65.03125 
Q 15.375 64.15625 9.8125 62.3125 
L 9.8125 71.09375 
Q 15.4375 72.65625 20.34375 73.4375 
Q 25.25 74.21875 29.59375 74.21875 
Q 40.828125 74.21875 47.359375 69.109375 
Q 53.90625 64.015625 53.90625 55.328125 
Q 53.90625 49.265625 50.4375 45.09375 
Q 46.96875 40.921875 40.578125 39.3125 
z
" id="DejaVuSans-51"/>
      </defs>
      <g transform="translate(351.517172 132.909932)scale(0.1 -0.1)">
       <use xlink:href="#DejaVuSans-51"/>
       <use x="63.623047" xlink:href="#DejaVuSans-46"/>
       <use x="95.410156" xlink:href="#DejaVuSans-48"/>
      </g>
     </g>
    </g>
    <g id="ytick_21">
     <g id="line2d_29">
      <g>
       <use style="stroke:#000000;stroke-width:0.8;" x="374.420297" xlink:href="#m6a857f5973" y="81.063523"/>
      </g>
     </g>
     <g id="text_29">
      <!-- 3.5 -->
      <g transform="translate(351.517172 84.862742)scale(0.1 -0.1)">
       <use xlink:href="#DejaVuSans-51"/>
       <use x="63.623047" xlink:href="#DejaVuSans-46"/>
       <use x="95.410156" xlink:href="#DejaVuSans-53"/>
      </g>
     </g>
    </g>
    <g id="ytick_22">
     <g id="line2d_30">
      <g>
       <use style="stroke:#000000;stroke-width:0.8;" x="374.420297" xlink:href="#m6a857f5973" y="33.016332"/>
      </g>
     </g>
     <g id="text_30">
      <!-- 4.0 -->
      <g transform="translate(351.517172 36.815551)scale(0.1 -0.1)">
       <use xlink:href="#DejaVuSans-52"/>
       <use x="63.623047" xlink:href="#DejaVuSans-46"/>
       <use x="95.410156" xlink:href="#DejaVuSans-48"/>
      </g>
     </g>
    </g>
   </g>
   <g id="line2d_31">
    <path clip-path="url(#pfa8118fb96)" d="M 378.103212 32.109423 
L 378.811465 46.220597 
L 379.519717 54.332827 
L 380.22797 73.348621 
L 380.936223 91.189168 
L 381.644476 112.015358 
L 382.352728 130.540293 
L 383.060981 146.184291 
L 383.769234 164.345222 
L 384.477487 184.988096 
L 385.18574 204.747123 
L 385.893992 221.696273 
L 386.602245 235.567753 
L 387.310498 248.650736 
L 388.018751 261.352696 
L 388.727003 270.704701 
L 389.435256 275.526772 
L 390.143509 277.106091 
L 390.851762 277.479906 
L 391.560015 278.185273 
L 392.268267 277.875146 
L 392.97652 276.764444 
L 393.684773 277.152386 
L 394.393026 279.476229 
L 395.101278 283.212531 
L 395.809531 287.864743 
L 396.517784 292.149963 
L 397.226037 296.748245 
L 397.93429 301.77681 
L 398.642542 305.92196 
L 399.350795 308.749263 
L 400.059048 310.931166 
L 400.767301 311.529675 
L 401.475553 311.604011 
L 402.183806 310.902162 
L 402.892059 309.26611 
L 403.600312 307.678729 
L 404.308565 306.886957 
L 405.016817 305.738704 
L 405.72507 305.220889 
L 406.433323 304.24141 
L 407.141576 303.396168 
L 407.849828 302.673011 
L 408.558081 301.402085 
L 409.266334 298.323833 
L 409.974587 294.389864 
L 410.68284 289.767482 
L 411.391092 285.290809 
L 412.099345 280.326239 
L 412.807598 275.082745 
L 413.515851 270.249984 
L 414.224104 268.15335 
L 414.932356 268.208432 
L 415.640609 269.474527 
L 416.348862 271.793383 
L 417.057115 275.270079 
L 417.765367 279.83133 
L 418.47362 285.126309 
L 419.181873 289.094822 
L 419.890126 291.531171 
L 420.598379 293.303233 
L 421.306631 294.196226 
L 422.014884 294.116709 
L 422.723137 293.176997 
L 423.43139 291.290346 
L 424.139642 289.255981 
L 424.847895 287.471937 
L 425.556148 285.226337 
L 426.264401 282.487361 
L 426.972654 279.61812 
L 427.680906 276.675674 
L 428.389159 273.808886 
L 429.097412 271.632122 
L 429.805665 270.574441 
L 430.513917 270.468059 
L 431.22217 271.463657 
L 431.930423 273.028263 
L 432.638676 274.699249 
L 433.346929 277.049453 
L 434.055181 279.414467 
L 434.763434 280.993169 
L 435.471687 282.369277 
L 436.17994 283.631668 
L 436.888192 284.912768 
L 437.596445 287.067791 
L 438.304698 289.294347 
L 439.012951 291.672597 
L 439.721204 294.537494 
L 440.429456 297.654825 
L 441.137709 300.449193 
L 441.845962 303.527874 
L 442.554215 305.58396 
L 443.262467 307.118619 
L 443.97072 308.066564 
L 444.678973 308.169578 
L 445.387226 307.598966 
L 446.095479 307.194863 
L 446.803731 305.584165 
L 447.511984 304.488897 
L 448.220237 304.438268 
L 448.92849 304.306018 
L 449.636742 305.109486 
L 450.344995 310.381103 
L 451.053248 310.573846 
L 451.761501 311.930577 
" style="fill:none;stroke:#ff0000;stroke-linecap:square;stroke-width:1.5;"/>
   </g>
   <g id="patch_223">
    <path d="M 374.420297 325.921635 
L 374.420297 18.118365 
" style="fill:none;stroke:#000000;stroke-linecap:square;stroke-linejoin:miter;stroke-width:0.8;"/>
   </g>
   <g id="patch_224">
    <path d="M 455.444415 325.921635 
L 455.444415 18.118365 
" style="fill:none;stroke:#000000;stroke-linecap:square;stroke-linejoin:miter;stroke-width:0.8;"/>
   </g>
   <g id="patch_225">
    <path d="M 374.420297 325.921635 
L 455.444415 325.921635 
" style="fill:none;stroke:#000000;stroke-linecap:square;stroke-linejoin:miter;stroke-width:0.8;"/>
   </g>
   <g id="patch_226">
    <path d="M 374.420297 18.118365 
L 455.444415 18.118365 
" style="fill:none;stroke:#000000;stroke-linecap:square;stroke-linejoin:miter;stroke-width:0.8;"/>
   </g>
   <g id="text_31">
    <!-- r0 - MG - (data) -->
    <defs>
     <path d="M 41.109375 46.296875 
Q 39.59375 47.171875 37.8125 47.578125 
Q 36.03125 48 33.890625 48 
Q 26.265625 48 22.1875 43.046875 
Q 18.109375 38.09375 18.109375 28.8125 
L 18.109375 0 
L 9.078125 0 
L 9.078125 54.6875 
L 18.109375 54.6875 
L 18.109375 46.1875 
Q 20.953125 51.171875 25.484375 53.578125 
Q 30.03125 56 36.53125 56 
Q 37.453125 56 38.578125 55.875 
Q 39.703125 55.765625 41.0625 55.515625 
z
" id="DejaVuSans-114"/>
    </defs>
    <g transform="translate(368.668606 12.118365)scale(0.12 -0.12)">
     <use xlink:href="#DejaVuSans-114"/>
     <use x="41.113281" xlink:href="#DejaVuSans-48"/>
     <use x="104.736328" xlink:href="#DejaVuSans-32"/>
     <use x="136.523438" xlink:href="#DejaVuSans-45"/>
     <use x="172.607422" xlink:href="#DejaVuSans-32"/>
     <use x="204.394531" xlink:href="#DejaVuSans-77"/>
     <use x="290.673828" xlink:href="#DejaVuSans-71"/>
     <use x="368.164062" xlink:href="#DejaVuSans-32"/>
     <use x="399.951172" xlink:href="#DejaVuSans-45"/>
     <use x="436.035156" xlink:href="#DejaVuSans-32"/>
     <use x="467.822266" xlink:href="#DejaVuSans-40"/>
     <use x="506.835938" xlink:href="#DejaVuSans-100"/>
     <use x="570.3125" xlink:href="#DejaVuSans-97"/>
     <use x="631.591797" xlink:href="#DejaVuSans-116"/>
     <use x="670.800781" xlink:href="#DejaVuSans-97"/>
     <use x="732.080078" xlink:href="#DejaVuSans-41"/>
    </g>
   </g>
  </g>
 </g>
 <defs>
  <clipPath id="p89699cb8f9">
   <rect height="307.80327" width="81.024118" x="54.357737" y="18.118365"/>
  </clipPath>
  <clipPath id="p010505e4de">
   <rect height="307.80327" width="81.024118" x="228.616203" y="18.118365"/>
  </clipPath>
  <clipPath id="pfa8118fb96">
   <rect height="307.80327" width="81.024118" x="374.420297" y="18.118365"/>
  </clipPath>
 </defs>
</svg>
