<?xml version="1.0" encoding="utf-8" standalone="no"?>
<!DOCTYPE svg PUBLIC "-//W3C//DTD SVG 1.1//EN"
  "http://www.w3.org/Graphics/SVG/1.1/DTD/svg11.dtd">
<!-- Created with matplotlib (https://matplotlib.org/) -->
<svg height="345.6pt" version="1.1" viewBox="0 0 460.8 345.6" width="460.8pt" xmlns="http://www.w3.org/2000/svg" xmlns:xlink="http://www.w3.org/1999/xlink">
 <defs>
  <style type="text/css">
*{stroke-linecap:butt;stroke-linejoin:round;}
  </style>
 </defs>
 <g id="figure_1">
  <g id="patch_1">
   <path d="M 0 345.6 
L 460.8 345.6 
L 460.8 0 
L 0 0 
z
" style="fill:#ffffff;"/>
  </g>
  <g id="axes_1">
   <g id="patch_2">
    <path d="M 53.312515 325.921635 
L 133.560886 325.921635 
L 133.560886 18.118365 
L 53.312515 18.118365 
z
" style="fill:#ffffff;"/>
   </g>
   <g id="patch_3">
    <path clip-path="url(#pb32a41e5b5)" d="M 56.960169 325.921635 
L 57.563086 325.921635 
L 57.563086 325.699215 
L 56.960169 325.699215 
z
" style="fill:#1f77b4;"/>
   </g>
   <g id="patch_4">
    <path clip-path="url(#pb32a41e5b5)" d="M 57.713816 325.921635 
L 58.316734 325.921635 
L 58.316734 325.532399 
L 57.713816 325.532399 
z
" style="fill:#1f77b4;"/>
   </g>
   <g id="patch_5">
    <path clip-path="url(#pb32a41e5b5)" d="M 58.467463 325.921635 
L 59.070381 325.921635 
L 59.070381 325.532399 
L 58.467463 325.532399 
z
" style="fill:#1f77b4;"/>
   </g>
   <g id="patch_6">
    <path clip-path="url(#pb32a41e5b5)" d="M 59.221111 325.921635 
L 59.824028 325.921635 
L 59.824028 325.421189 
L 59.221111 325.421189 
z
" style="fill:#1f77b4;"/>
   </g>
   <g id="patch_7">
    <path clip-path="url(#pb32a41e5b5)" d="M 59.974758 325.921635 
L 60.577676 325.921635 
L 60.577676 325.031953 
L 59.974758 325.031953 
z
" style="fill:#1f77b4;"/>
   </g>
   <g id="patch_8">
    <path clip-path="url(#pb32a41e5b5)" d="M 60.728405 325.921635 
L 61.331323 325.921635 
L 61.331323 324.753928 
L 60.728405 324.753928 
z
" style="fill:#1f77b4;"/>
   </g>
   <g id="patch_9">
    <path clip-path="url(#pb32a41e5b5)" d="M 61.482053 325.921635 
L 62.084971 325.921635 
L 62.084971 324.753928 
L 61.482053 324.753928 
z
" style="fill:#1f77b4;"/>
   </g>
   <g id="patch_10">
    <path clip-path="url(#pb32a41e5b5)" d="M 62.2357 325.921635 
L 62.838618 325.921635 
L 62.838618 324.642718 
L 62.2357 324.642718 
z
" style="fill:#1f77b4;"/>
   </g>
   <g id="patch_11">
    <path clip-path="url(#pb32a41e5b5)" d="M 62.989347 325.921635 
L 63.592265 325.921635 
L 63.592265 324.587112 
L 62.989347 324.587112 
z
" style="fill:#1f77b4;"/>
   </g>
   <g id="patch_12">
    <path clip-path="url(#pb32a41e5b5)" d="M 63.742995 325.921635 
L 64.345913 325.921635 
L 64.345913 324.531507 
L 63.742995 324.531507 
z
" style="fill:#1f77b4;"/>
   </g>
   <g id="patch_13">
    <path clip-path="url(#pb32a41e5b5)" d="M 64.496642 325.921635 
L 65.09956 325.921635 
L 65.09956 324.364692 
L 64.496642 324.364692 
z
" style="fill:#1f77b4;"/>
   </g>
   <g id="patch_14">
    <path clip-path="url(#pb32a41e5b5)" d="M 65.250289 325.921635 
L 65.853207 325.921635 
L 65.853207 324.197877 
L 65.250289 324.197877 
z
" style="fill:#1f77b4;"/>
   </g>
   <g id="patch_15">
    <path clip-path="url(#pb32a41e5b5)" d="M 66.003937 325.921635 
L 66.606855 325.921635 
L 66.606855 323.919851 
L 66.003937 323.919851 
z
" style="fill:#1f77b4;"/>
   </g>
   <g id="patch_16">
    <path clip-path="url(#pb32a41e5b5)" d="M 66.757584 325.921635 
L 67.360502 325.921635 
L 67.360502 323.47501 
L 66.757584 323.47501 
z
" style="fill:#1f77b4;"/>
   </g>
   <g id="patch_17">
    <path clip-path="url(#pb32a41e5b5)" d="M 67.511232 325.921635 
L 68.114149 325.921635 
L 68.114149 323.25259 
L 67.511232 323.25259 
z
" style="fill:#1f77b4;"/>
   </g>
   <g id="patch_18">
    <path clip-path="url(#pb32a41e5b5)" d="M 68.264879 325.921635 
L 68.867797 325.921635 
L 68.867797 323.085775 
L 68.264879 323.085775 
z
" style="fill:#1f77b4;"/>
   </g>
   <g id="patch_19">
    <path clip-path="url(#pb32a41e5b5)" d="M 69.018526 325.921635 
L 69.621444 325.921635 
L 69.621444 322.974564 
L 69.018526 322.974564 
z
" style="fill:#1f77b4;"/>
   </g>
   <g id="patch_20">
    <path clip-path="url(#pb32a41e5b5)" d="M 69.772174 325.921635 
L 70.375091 325.921635 
L 70.375091 322.585329 
L 69.772174 322.585329 
z
" style="fill:#1f77b4;"/>
   </g>
   <g id="patch_21">
    <path clip-path="url(#pb32a41e5b5)" d="M 70.525821 325.921635 
L 71.128739 325.921635 
L 71.128739 322.474118 
L 70.525821 322.474118 
z
" style="fill:#1f77b4;"/>
   </g>
   <g id="patch_22">
    <path clip-path="url(#pb32a41e5b5)" d="M 71.279468 325.921635 
L 71.882386 325.921635 
L 71.882386 322.307303 
L 71.279468 322.307303 
z
" style="fill:#1f77b4;"/>
   </g>
   <g id="patch_23">
    <path clip-path="url(#pb32a41e5b5)" d="M 72.033116 325.921635 
L 72.636034 325.921635 
L 72.636034 322.251698 
L 72.033116 322.251698 
z
" style="fill:#1f77b4;"/>
   </g>
   <g id="patch_24">
    <path clip-path="url(#pb32a41e5b5)" d="M 72.786763 325.921635 
L 73.389681 325.921635 
L 73.389681 321.473227 
L 72.786763 321.473227 
z
" style="fill:#1f77b4;"/>
   </g>
   <g id="patch_25">
    <path clip-path="url(#pb32a41e5b5)" d="M 73.54041 325.921635 
L 74.143328 325.921635 
L 74.143328 321.195201 
L 73.54041 321.195201 
z
" style="fill:#1f77b4;"/>
   </g>
   <g id="patch_26">
    <path clip-path="url(#pb32a41e5b5)" d="M 74.294058 325.921635 
L 74.896976 325.921635 
L 74.896976 320.972781 
L 74.294058 320.972781 
z
" style="fill:#1f77b4;"/>
   </g>
   <g id="patch_27">
    <path clip-path="url(#pb32a41e5b5)" d="M 75.047705 325.921635 
L 75.650623 325.921635 
L 75.650623 320.52794 
L 75.047705 320.52794 
z
" style="fill:#1f77b4;"/>
   </g>
   <g id="patch_28">
    <path clip-path="url(#pb32a41e5b5)" d="M 75.801352 325.921635 
L 76.40427 325.921635 
L 76.40427 320.361124 
L 75.801352 320.361124 
z
" style="fill:#1f77b4;"/>
   </g>
   <g id="patch_29">
    <path clip-path="url(#pb32a41e5b5)" d="M 76.555 325.921635 
L 77.157918 325.921635 
L 77.157918 320.305519 
L 76.555 320.305519 
z
" style="fill:#1f77b4;"/>
   </g>
   <g id="patch_30">
    <path clip-path="url(#pb32a41e5b5)" d="M 77.308647 325.921635 
L 77.911565 325.921635 
L 77.911565 319.638258 
L 77.308647 319.638258 
z
" style="fill:#1f77b4;"/>
   </g>
   <g id="patch_31">
    <path clip-path="url(#pb32a41e5b5)" d="M 78.062295 325.921635 
L 78.665212 325.921635 
L 78.665212 319.527048 
L 78.062295 319.527048 
z
" style="fill:#1f77b4;"/>
   </g>
   <g id="patch_32">
    <path clip-path="url(#pb32a41e5b5)" d="M 78.815942 325.921635 
L 79.41886 325.921635 
L 79.41886 319.193417 
L 78.815942 319.193417 
z
" style="fill:#1f77b4;"/>
   </g>
   <g id="patch_33">
    <path clip-path="url(#pb32a41e5b5)" d="M 79.569589 325.921635 
L 80.172507 325.921635 
L 80.172507 318.637366 
L 79.569589 318.637366 
z
" style="fill:#1f77b4;"/>
   </g>
   <g id="patch_34">
    <path clip-path="url(#pb32a41e5b5)" d="M 80.323237 325.921635 
L 80.926154 325.921635 
L 80.926154 317.970105 
L 80.323237 317.970105 
z
" style="fill:#1f77b4;"/>
   </g>
   <g id="patch_35">
    <path clip-path="url(#pb32a41e5b5)" d="M 81.076884 325.921635 
L 81.679802 325.921635 
L 81.679802 316.969213 
L 81.076884 316.969213 
z
" style="fill:#1f77b4;"/>
   </g>
   <g id="patch_36">
    <path clip-path="url(#pb32a41e5b5)" d="M 81.830531 325.921635 
L 82.433449 325.921635 
L 82.433449 316.579977 
L 81.830531 316.579977 
z
" style="fill:#1f77b4;"/>
   </g>
   <g id="patch_37">
    <path clip-path="url(#pb32a41e5b5)" d="M 82.584179 325.921635 
L 83.187097 325.921635 
L 83.187097 316.413162 
L 82.584179 316.413162 
z
" style="fill:#1f77b4;"/>
   </g>
   <g id="patch_38">
    <path clip-path="url(#pb32a41e5b5)" d="M 83.337826 325.921635 
L 83.940744 325.921635 
L 83.940744 316.301952 
L 83.337826 316.301952 
z
" style="fill:#1f77b4;"/>
   </g>
   <g id="patch_39">
    <path clip-path="url(#pb32a41e5b5)" d="M 84.091473 325.921635 
L 84.694391 325.921635 
L 84.694391 316.190742 
L 84.091473 316.190742 
z
" style="fill:#1f77b4;"/>
   </g>
   <g id="patch_40">
    <path clip-path="url(#pb32a41e5b5)" d="M 84.845121 325.921635 
L 85.448039 325.921635 
L 85.448039 315.579085 
L 84.845121 315.579085 
z
" style="fill:#1f77b4;"/>
   </g>
   <g id="patch_41">
    <path clip-path="url(#pb32a41e5b5)" d="M 85.598768 325.921635 
L 86.201686 325.921635 
L 86.201686 314.077747 
L 85.598768 314.077747 
z
" style="fill:#1f77b4;"/>
   </g>
   <g id="patch_42">
    <path clip-path="url(#pb32a41e5b5)" d="M 86.352415 325.921635 
L 86.955333 325.921635 
L 86.955333 313.855327 
L 86.352415 313.855327 
z
" style="fill:#1f77b4;"/>
   </g>
   <g id="patch_43">
    <path clip-path="url(#pb32a41e5b5)" d="M 87.106063 325.921635 
L 87.708981 325.921635 
L 87.708981 312.91004 
L 87.106063 312.91004 
z
" style="fill:#1f77b4;"/>
   </g>
   <g id="patch_44">
    <path clip-path="url(#pb32a41e5b5)" d="M 87.85971 325.921635 
L 88.462628 325.921635 
L 88.462628 312.68762 
L 87.85971 312.68762 
z
" style="fill:#1f77b4;"/>
   </g>
   <g id="patch_45">
    <path clip-path="url(#pb32a41e5b5)" d="M 88.613358 325.921635 
L 89.216275 325.921635 
L 89.216275 312.57641 
L 88.613358 312.57641 
z
" style="fill:#1f77b4;"/>
   </g>
   <g id="patch_46">
    <path clip-path="url(#pb32a41e5b5)" d="M 89.367005 325.921635 
L 89.969923 325.921635 
L 89.969923 312.075964 
L 89.367005 312.075964 
z
" style="fill:#1f77b4;"/>
   </g>
   <g id="patch_47">
    <path clip-path="url(#pb32a41e5b5)" d="M 90.120652 325.921635 
L 90.72357 325.921635 
L 90.72357 311.742333 
L 90.120652 311.742333 
z
" style="fill:#1f77b4;"/>
   </g>
   <g id="patch_48">
    <path clip-path="url(#pb32a41e5b5)" d="M 90.8743 325.921635 
L 91.477217 325.921635 
L 91.477217 311.408702 
L 90.8743 311.408702 
z
" style="fill:#1f77b4;"/>
   </g>
   <g id="patch_49">
    <path clip-path="url(#pb32a41e5b5)" d="M 91.627947 325.921635 
L 92.230865 325.921635 
L 92.230865 311.130677 
L 91.627947 311.130677 
z
" style="fill:#1f77b4;"/>
   </g>
   <g id="patch_50">
    <path clip-path="url(#pb32a41e5b5)" d="M 92.381594 325.921635 
L 92.984512 325.921635 
L 92.984512 310.797046 
L 92.381594 310.797046 
z
" style="fill:#1f77b4;"/>
   </g>
   <g id="patch_51">
    <path clip-path="url(#pb32a41e5b5)" d="M 93.135242 325.921635 
L 93.73816 325.921635 
L 93.73816 310.685836 
L 93.135242 310.685836 
z
" style="fill:#1f77b4;"/>
   </g>
   <g id="patch_52">
    <path clip-path="url(#pb32a41e5b5)" d="M 93.888889 325.921635 
L 94.491807 325.921635 
L 94.491807 310.18539 
L 93.888889 310.18539 
z
" style="fill:#1f77b4;"/>
   </g>
   <g id="patch_53">
    <path clip-path="url(#pb32a41e5b5)" d="M 94.642536 325.921635 
L 95.245454 325.921635 
L 95.245454 309.907365 
L 94.642536 309.907365 
z
" style="fill:#1f77b4;"/>
   </g>
   <g id="patch_54">
    <path clip-path="url(#pb32a41e5b5)" d="M 95.396184 325.921635 
L 95.999102 325.921635 
L 95.999102 308.628447 
L 95.396184 308.628447 
z
" style="fill:#1f77b4;"/>
   </g>
   <g id="patch_55">
    <path clip-path="url(#pb32a41e5b5)" d="M 96.149831 325.921635 
L 96.752749 325.921635 
L 96.752749 307.794371 
L 96.149831 307.794371 
z
" style="fill:#1f77b4;"/>
   </g>
   <g id="patch_56">
    <path clip-path="url(#pb32a41e5b5)" d="M 96.903478 325.921635 
L 97.506396 325.921635 
L 97.506396 306.682268 
L 96.903478 306.682268 
z
" style="fill:#1f77b4;"/>
   </g>
   <g id="patch_57">
    <path clip-path="url(#pb32a41e5b5)" d="M 97.657126 325.921635 
L 98.260044 325.921635 
L 98.260044 305.792587 
L 97.657126 305.792587 
z
" style="fill:#1f77b4;"/>
   </g>
   <g id="patch_58">
    <path clip-path="url(#pb32a41e5b5)" d="M 98.410773 325.921635 
L 99.013691 325.921635 
L 99.013691 304.513669 
L 98.410773 304.513669 
z
" style="fill:#1f77b4;"/>
   </g>
   <g id="patch_59">
    <path clip-path="url(#pb32a41e5b5)" d="M 99.164421 325.921635 
L 99.767338 325.921635 
L 99.767338 303.401567 
L 99.164421 303.401567 
z
" style="fill:#1f77b4;"/>
   </g>
   <g id="patch_60">
    <path clip-path="url(#pb32a41e5b5)" d="M 99.918068 325.921635 
L 100.520986 325.921635 
L 100.520986 302.01144 
L 99.918068 302.01144 
z
" style="fill:#1f77b4;"/>
   </g>
   <g id="patch_61">
    <path clip-path="url(#pb32a41e5b5)" d="M 100.671715 325.921635 
L 101.274633 325.921635 
L 101.274633 300.788127 
L 100.671715 300.788127 
z
" style="fill:#1f77b4;"/>
   </g>
   <g id="patch_62">
    <path clip-path="url(#pb32a41e5b5)" d="M 101.425363 325.921635 
L 102.02828 325.921635 
L 102.02828 299.286789 
L 101.425363 299.286789 
z
" style="fill:#1f77b4;"/>
   </g>
   <g id="patch_63">
    <path clip-path="url(#pb32a41e5b5)" d="M 102.17901 325.921635 
L 102.781928 325.921635 
L 102.781928 297.674241 
L 102.17901 297.674241 
z
" style="fill:#1f77b4;"/>
   </g>
   <g id="patch_64">
    <path clip-path="url(#pb32a41e5b5)" d="M 102.932657 325.921635 
L 103.535575 325.921635 
L 103.535575 294.226725 
L 102.932657 294.226725 
z
" style="fill:#1f77b4;"/>
   </g>
   <g id="patch_65">
    <path clip-path="url(#pb32a41e5b5)" d="M 103.686305 325.921635 
L 104.289223 325.921635 
L 104.289223 291.835705 
L 103.686305 291.835705 
z
" style="fill:#1f77b4;"/>
   </g>
   <g id="patch_66">
    <path clip-path="url(#pb32a41e5b5)" d="M 104.439952 325.921635 
L 105.04287 325.921635 
L 105.04287 290.223157 
L 104.439952 290.223157 
z
" style="fill:#1f77b4;"/>
   </g>
   <g id="patch_67">
    <path clip-path="url(#pb32a41e5b5)" d="M 105.193599 325.921635 
L 105.796517 325.921635 
L 105.796517 287.387297 
L 105.193599 287.387297 
z
" style="fill:#1f77b4;"/>
   </g>
   <g id="patch_68">
    <path clip-path="url(#pb32a41e5b5)" d="M 105.947247 325.921635 
L 106.550165 325.921635 
L 106.550165 284.440226 
L 105.947247 284.440226 
z
" style="fill:#1f77b4;"/>
   </g>
   <g id="patch_69">
    <path clip-path="url(#pb32a41e5b5)" d="M 106.700894 325.921635 
L 107.303812 325.921635 
L 107.303812 281.159525 
L 106.700894 281.159525 
z
" style="fill:#1f77b4;"/>
   </g>
   <g id="patch_70">
    <path clip-path="url(#pb32a41e5b5)" d="M 107.454541 325.921635 
L 108.057459 325.921635 
L 108.057459 278.212454 
L 107.454541 278.212454 
z
" style="fill:#1f77b4;"/>
   </g>
   <g id="patch_71">
    <path clip-path="url(#pb32a41e5b5)" d="M 108.208189 325.921635 
L 108.811107 325.921635 
L 108.811107 274.542517 
L 108.208189 274.542517 
z
" style="fill:#1f77b4;"/>
   </g>
   <g id="patch_72">
    <path clip-path="url(#pb32a41e5b5)" d="M 108.961836 325.921635 
L 109.564754 325.921635 
L 109.564754 269.037612 
L 108.961836 269.037612 
z
" style="fill:#1f77b4;"/>
   </g>
   <g id="patch_73">
    <path clip-path="url(#pb32a41e5b5)" d="M 109.715484 325.921635 
L 110.318401 325.921635 
L 110.318401 264.756019 
L 109.715484 264.756019 
z
" style="fill:#1f77b4;"/>
   </g>
   <g id="patch_74">
    <path clip-path="url(#pb32a41e5b5)" d="M 110.469131 325.921635 
L 111.072049 325.921635 
L 111.072049 259.97398 
L 110.469131 259.97398 
z
" style="fill:#1f77b4;"/>
   </g>
   <g id="patch_75">
    <path clip-path="url(#pb32a41e5b5)" d="M 111.222778 325.921635 
L 111.825696 325.921635 
L 111.825696 255.747992 
L 111.222778 255.747992 
z
" style="fill:#1f77b4;"/>
   </g>
   <g id="patch_76">
    <path clip-path="url(#pb32a41e5b5)" d="M 111.976426 325.921635 
L 112.579343 325.921635 
L 112.579343 250.521112 
L 111.976426 250.521112 
z
" style="fill:#1f77b4;"/>
   </g>
   <g id="patch_77">
    <path clip-path="url(#pb32a41e5b5)" d="M 112.730073 325.921635 
L 113.332991 325.921635 
L 113.332991 247.073595 
L 112.730073 247.073595 
z
" style="fill:#1f77b4;"/>
   </g>
   <g id="patch_78">
    <path clip-path="url(#pb32a41e5b5)" d="M 113.48372 325.921635 
L 114.086638 325.921635 
L 114.086638 243.125633 
L 113.48372 243.125633 
z
" style="fill:#1f77b4;"/>
   </g>
   <g id="patch_79">
    <path clip-path="url(#pb32a41e5b5)" d="M 114.237368 325.921635 
L 114.840286 325.921635 
L 114.840286 238.732829 
L 114.237368 238.732829 
z
" style="fill:#1f77b4;"/>
   </g>
   <g id="patch_80">
    <path clip-path="url(#pb32a41e5b5)" d="M 114.991015 325.921635 
L 115.593933 325.921635 
L 115.593933 234.395631 
L 114.991015 234.395631 
z
" style="fill:#1f77b4;"/>
   </g>
   <g id="patch_81">
    <path clip-path="url(#pb32a41e5b5)" d="M 115.744662 325.921635 
L 116.34758 325.921635 
L 116.34758 225.721235 
L 115.744662 225.721235 
z
" style="fill:#1f77b4;"/>
   </g>
   <g id="patch_82">
    <path clip-path="url(#pb32a41e5b5)" d="M 116.49831 325.921635 
L 117.101228 325.921635 
L 117.101228 218.881807 
L 116.49831 218.881807 
z
" style="fill:#1f77b4;"/>
   </g>
   <g id="patch_83">
    <path clip-path="url(#pb32a41e5b5)" d="M 117.251957 325.921635 
L 117.854875 325.921635 
L 117.854875 214.878239 
L 117.251957 214.878239 
z
" style="fill:#1f77b4;"/>
   </g>
   <g id="patch_84">
    <path clip-path="url(#pb32a41e5b5)" d="M 118.005604 325.921635 
L 118.608522 325.921635 
L 118.608522 207.37155 
L 118.005604 207.37155 
z
" style="fill:#1f77b4;"/>
   </g>
   <g id="patch_85">
    <path clip-path="url(#pb32a41e5b5)" d="M 118.759252 325.921635 
L 119.36217 325.921635 
L 119.36217 200.643332 
L 118.759252 200.643332 
z
" style="fill:#1f77b4;"/>
   </g>
   <g id="patch_86">
    <path clip-path="url(#pb32a41e5b5)" d="M 119.512899 325.921635 
L 120.115817 325.921635 
L 120.115817 196.69537 
L 119.512899 196.69537 
z
" style="fill:#1f77b4;"/>
   </g>
   <g id="patch_87">
    <path clip-path="url(#pb32a41e5b5)" d="M 120.266547 325.921635 
L 120.869464 325.921635 
L 120.869464 189.411101 
L 120.266547 189.411101 
z
" style="fill:#1f77b4;"/>
   </g>
   <g id="patch_88">
    <path clip-path="url(#pb32a41e5b5)" d="M 121.020194 325.921635 
L 121.623112 325.921635 
L 121.623112 181.515176 
L 121.020194 181.515176 
z
" style="fill:#1f77b4;"/>
   </g>
   <g id="patch_89">
    <path clip-path="url(#pb32a41e5b5)" d="M 121.773841 325.921635 
L 122.376759 325.921635 
L 122.376759 167.280269 
L 121.773841 167.280269 
z
" style="fill:#1f77b4;"/>
   </g>
   <g id="patch_90">
    <path clip-path="url(#pb32a41e5b5)" d="M 122.527489 325.921635 
L 123.130406 325.921635 
L 123.130406 159.050713 
L 122.527489 159.050713 
z
" style="fill:#1f77b4;"/>
   </g>
   <g id="patch_91">
    <path clip-path="url(#pb32a41e5b5)" d="M 123.281136 325.921635 
L 123.884054 325.921635 
L 123.884054 146.039118 
L 123.281136 146.039118 
z
" style="fill:#1f77b4;"/>
   </g>
   <g id="patch_92">
    <path clip-path="url(#pb32a41e5b5)" d="M 124.034783 325.921635 
L 124.637701 325.921635 
L 124.637701 135.029307 
L 124.034783 135.029307 
z
" style="fill:#1f77b4;"/>
   </g>
   <g id="patch_93">
    <path clip-path="url(#pb32a41e5b5)" d="M 124.788431 325.921635 
L 125.391349 325.921635 
L 125.391349 128.467905 
L 124.788431 128.467905 
z
" style="fill:#1f77b4;"/>
   </g>
   <g id="patch_94">
    <path clip-path="url(#pb32a41e5b5)" d="M 125.542078 325.921635 
L 126.144996 325.921635 
L 126.144996 115.45631 
L 125.542078 115.45631 
z
" style="fill:#1f77b4;"/>
   </g>
   <g id="patch_95">
    <path clip-path="url(#pb32a41e5b5)" d="M 126.295725 325.921635 
L 126.898643 325.921635 
L 126.898643 94.381975 
L 126.295725 94.381975 
z
" style="fill:#1f77b4;"/>
   </g>
   <g id="patch_96">
    <path clip-path="url(#pb32a41e5b5)" d="M 127.049373 325.921635 
L 127.652291 325.921635 
L 127.652291 88.265414 
L 127.049373 88.265414 
z
" style="fill:#1f77b4;"/>
   </g>
   <g id="patch_97">
    <path clip-path="url(#pb32a41e5b5)" d="M 127.80302 325.921635 
L 128.405938 325.921635 
L 128.405938 66.468212 
L 127.80302 66.468212 
z
" style="fill:#1f77b4;"/>
   </g>
   <g id="patch_98">
    <path clip-path="url(#pb32a41e5b5)" d="M 128.556667 325.921635 
L 129.159585 325.921635 
L 129.159585 48.452158 
L 128.556667 48.452158 
z
" style="fill:#1f77b4;"/>
   </g>
   <g id="patch_99">
    <path clip-path="url(#pb32a41e5b5)" d="M 129.310315 325.921635 
L 129.913233 325.921635 
L 129.913233 34.717697 
L 129.310315 34.717697 
z
" style="fill:#1f77b4;"/>
   </g>
   <g id="matplotlib.axis_1">
    <g id="xtick_1">
     <g id="line2d_1">
      <defs>
       <path d="M 0 0 
L 0 3.5 
" id="mdbe96cfffa" style="stroke:#000000;stroke-width:0.8;"/>
      </defs>
      <g>
       <use style="stroke:#000000;stroke-width:0.8;" x="57.261627" xlink:href="#mdbe96cfffa" y="325.921635"/>
      </g>
     </g>
     <g id="text_1">
      <!-- 0 -->
      <defs>
       <path d="M 31.78125 66.40625 
Q 24.171875 66.40625 20.328125 58.90625 
Q 16.5 51.421875 16.5 36.375 
Q 16.5 21.390625 20.328125 13.890625 
Q 24.171875 6.390625 31.78125 6.390625 
Q 39.453125 6.390625 43.28125 13.890625 
Q 47.125 21.390625 47.125 36.375 
Q 47.125 51.421875 43.28125 58.90625 
Q 39.453125 66.40625 31.78125 66.40625 
z
M 31.78125 74.21875 
Q 44.046875 74.21875 50.515625 64.515625 
Q 56.984375 54.828125 56.984375 36.375 
Q 56.984375 17.96875 50.515625 8.265625 
Q 44.046875 -1.421875 31.78125 -1.421875 
Q 19.53125 -1.421875 13.0625 8.265625 
Q 6.59375 17.96875 6.59375 36.375 
Q 6.59375 54.828125 13.0625 64.515625 
Q 19.53125 74.21875 31.78125 74.21875 
z
" id="DejaVuSans-48"/>
      </defs>
      <g transform="translate(54.080377 340.520072)scale(0.1 -0.1)">
       <use xlink:href="#DejaVuSans-48"/>
      </g>
     </g>
    </g>
    <g id="xtick_2">
     <g id="line2d_2">
      <g>
       <use style="stroke:#000000;stroke-width:0.8;" x="132.626363" xlink:href="#mdbe96cfffa" y="325.921635"/>
      </g>
     </g>
     <g id="text_2">
      <!-- 100 -->
      <defs>
       <path d="M 12.40625 8.296875 
L 28.515625 8.296875 
L 28.515625 63.921875 
L 10.984375 60.40625 
L 10.984375 69.390625 
L 28.421875 72.90625 
L 38.28125 72.90625 
L 38.28125 8.296875 
L 54.390625 8.296875 
L 54.390625 0 
L 12.40625 0 
z
" id="DejaVuSans-49"/>
      </defs>
      <g transform="translate(123.082613 340.520072)scale(0.1 -0.1)">
       <use xlink:href="#DejaVuSans-49"/>
       <use x="63.623047" xlink:href="#DejaVuSans-48"/>
       <use x="127.246094" xlink:href="#DejaVuSans-48"/>
      </g>
     </g>
    </g>
   </g>
   <g id="matplotlib.axis_2">
    <g id="ytick_1">
     <g id="line2d_3">
      <defs>
       <path d="M 0 0 
L -3.5 0 
" id="m18542da7dc" style="stroke:#000000;stroke-width:0.8;"/>
      </defs>
      <g>
       <use style="stroke:#000000;stroke-width:0.8;" x="53.312515" xlink:href="#m18542da7dc" y="325.921635"/>
      </g>
     </g>
     <g id="text_3">
      <!-- 0 -->
      <g transform="translate(39.950015 329.720854)scale(0.1 -0.1)">
       <use xlink:href="#DejaVuSans-48"/>
      </g>
     </g>
    </g>
    <g id="ytick_2">
     <g id="line2d_4">
      <g>
       <use style="stroke:#000000;stroke-width:0.8;" x="53.312515" xlink:href="#m18542da7dc" y="270.316529"/>
      </g>
     </g>
     <g id="text_4">
      <!-- 1000 -->
      <g transform="translate(20.862515 274.115748)scale(0.1 -0.1)">
       <use xlink:href="#DejaVuSans-49"/>
       <use x="63.623047" xlink:href="#DejaVuSans-48"/>
       <use x="127.246094" xlink:href="#DejaVuSans-48"/>
       <use x="190.869141" xlink:href="#DejaVuSans-48"/>
      </g>
     </g>
    </g>
    <g id="ytick_3">
     <g id="line2d_5">
      <g>
       <use style="stroke:#000000;stroke-width:0.8;" x="53.312515" xlink:href="#m18542da7dc" y="214.711424"/>
      </g>
     </g>
     <g id="text_5">
      <!-- 2000 -->
      <defs>
       <path d="M 19.1875 8.296875 
L 53.609375 8.296875 
L 53.609375 0 
L 7.328125 0 
L 7.328125 8.296875 
Q 12.9375 14.109375 22.625 23.890625 
Q 32.328125 33.6875 34.8125 36.53125 
Q 39.546875 41.84375 41.421875 45.53125 
Q 43.3125 49.21875 43.3125 52.78125 
Q 43.3125 58.59375 39.234375 62.25 
Q 35.15625 65.921875 28.609375 65.921875 
Q 23.96875 65.921875 18.8125 64.3125 
Q 13.671875 62.703125 7.8125 59.421875 
L 7.8125 69.390625 
Q 13.765625 71.78125 18.9375 73 
Q 24.125 74.21875 28.421875 74.21875 
Q 39.75 74.21875 46.484375 68.546875 
Q 53.21875 62.890625 53.21875 53.421875 
Q 53.21875 48.921875 51.53125 44.890625 
Q 49.859375 40.875 45.40625 35.40625 
Q 44.1875 33.984375 37.640625 27.21875 
Q 31.109375 20.453125 19.1875 8.296875 
z
" id="DejaVuSans-50"/>
      </defs>
      <g transform="translate(20.862515 218.510642)scale(0.1 -0.1)">
       <use xlink:href="#DejaVuSans-50"/>
       <use x="63.623047" xlink:href="#DejaVuSans-48"/>
       <use x="127.246094" xlink:href="#DejaVuSans-48"/>
       <use x="190.869141" xlink:href="#DejaVuSans-48"/>
      </g>
     </g>
    </g>
    <g id="ytick_4">
     <g id="line2d_6">
      <g>
       <use style="stroke:#000000;stroke-width:0.8;" x="53.312515" xlink:href="#m18542da7dc" y="159.106318"/>
      </g>
     </g>
     <g id="text_6">
      <!-- 3000 -->
      <defs>
       <path d="M 40.578125 39.3125 
Q 47.65625 37.796875 51.625 33 
Q 55.609375 28.21875 55.609375 21.1875 
Q 55.609375 10.40625 48.1875 4.484375 
Q 40.765625 -1.421875 27.09375 -1.421875 
Q 22.515625 -1.421875 17.65625 -0.515625 
Q 12.796875 0.390625 7.625 2.203125 
L 7.625 11.71875 
Q 11.71875 9.328125 16.59375 8.109375 
Q 21.484375 6.890625 26.8125 6.890625 
Q 36.078125 6.890625 40.9375 10.546875 
Q 45.796875 14.203125 45.796875 21.1875 
Q 45.796875 27.640625 41.28125 31.265625 
Q 36.765625 34.90625 28.71875 34.90625 
L 20.21875 34.90625 
L 20.21875 43.015625 
L 29.109375 43.015625 
Q 36.375 43.015625 40.234375 45.921875 
Q 44.09375 48.828125 44.09375 54.296875 
Q 44.09375 59.90625 40.109375 62.90625 
Q 36.140625 65.921875 28.71875 65.921875 
Q 24.65625 65.921875 20.015625 65.03125 
Q 15.375 64.15625 9.8125 62.3125 
L 9.8125 71.09375 
Q 15.4375 72.65625 20.34375 73.4375 
Q 25.25 74.21875 29.59375 74.21875 
Q 40.828125 74.21875 47.359375 69.109375 
Q 53.90625 64.015625 53.90625 55.328125 
Q 53.90625 49.265625 50.4375 45.09375 
Q 46.96875 40.921875 40.578125 39.3125 
z
" id="DejaVuSans-51"/>
      </defs>
      <g transform="translate(20.862515 162.905537)scale(0.1 -0.1)">
       <use xlink:href="#DejaVuSans-51"/>
       <use x="63.623047" xlink:href="#DejaVuSans-48"/>
       <use x="127.246094" xlink:href="#DejaVuSans-48"/>
       <use x="190.869141" xlink:href="#DejaVuSans-48"/>
      </g>
     </g>
    </g>
    <g id="ytick_5">
     <g id="line2d_7">
      <g>
       <use style="stroke:#000000;stroke-width:0.8;" x="53.312515" xlink:href="#m18542da7dc" y="103.501212"/>
      </g>
     </g>
     <g id="text_7">
      <!-- 4000 -->
      <defs>
       <path d="M 37.796875 64.3125 
L 12.890625 25.390625 
L 37.796875 25.390625 
z
M 35.203125 72.90625 
L 47.609375 72.90625 
L 47.609375 25.390625 
L 58.015625 25.390625 
L 58.015625 17.1875 
L 47.609375 17.1875 
L 47.609375 0 
L 37.796875 0 
L 37.796875 17.1875 
L 4.890625 17.1875 
L 4.890625 26.703125 
z
" id="DejaVuSans-52"/>
      </defs>
      <g transform="translate(20.862515 107.300431)scale(0.1 -0.1)">
       <use xlink:href="#DejaVuSans-52"/>
       <use x="63.623047" xlink:href="#DejaVuSans-48"/>
       <use x="127.246094" xlink:href="#DejaVuSans-48"/>
       <use x="190.869141" xlink:href="#DejaVuSans-48"/>
      </g>
     </g>
    </g>
    <g id="ytick_6">
     <g id="line2d_8">
      <g>
       <use style="stroke:#000000;stroke-width:0.8;" x="53.312515" xlink:href="#m18542da7dc" y="47.896107"/>
      </g>
     </g>
     <g id="text_8">
      <!-- 5000 -->
      <defs>
       <path d="M 10.796875 72.90625 
L 49.515625 72.90625 
L 49.515625 64.59375 
L 19.828125 64.59375 
L 19.828125 46.734375 
Q 21.96875 47.46875 24.109375 47.828125 
Q 26.265625 48.1875 28.421875 48.1875 
Q 40.625 48.1875 47.75 41.5 
Q 54.890625 34.8125 54.890625 23.390625 
Q 54.890625 11.625 47.5625 5.09375 
Q 40.234375 -1.421875 26.90625 -1.421875 
Q 22.3125 -1.421875 17.546875 -0.640625 
Q 12.796875 0.140625 7.71875 1.703125 
L 7.71875 11.625 
Q 12.109375 9.234375 16.796875 8.0625 
Q 21.484375 6.890625 26.703125 6.890625 
Q 35.15625 6.890625 40.078125 11.328125 
Q 45.015625 15.765625 45.015625 23.390625 
Q 45.015625 31 40.078125 35.4375 
Q 35.15625 39.890625 26.703125 39.890625 
Q 22.75 39.890625 18.8125 39.015625 
Q 14.890625 38.140625 10.796875 36.28125 
z
" id="DejaVuSans-53"/>
      </defs>
      <g transform="translate(20.862515 51.695326)scale(0.1 -0.1)">
       <use xlink:href="#DejaVuSans-53"/>
       <use x="63.623047" xlink:href="#DejaVuSans-48"/>
       <use x="127.246094" xlink:href="#DejaVuSans-48"/>
       <use x="190.869141" xlink:href="#DejaVuSans-48"/>
      </g>
     </g>
    </g>
   </g>
   <g id="line2d_9">
    <path clip-path="url(#pb32a41e5b5)" d="M 57.261627 325.523552 
L 58.015275 325.439462 
L 58.768922 325.335361 
L 59.52257 325.217968 
L 60.276217 325.089272 
L 61.029864 324.951429 
L 61.783512 324.806175 
L 62.537159 324.653417 
L 63.290806 324.492832 
L 64.044454 324.32377 
L 64.798101 324.145491 
L 65.551748 323.957276 
L 66.305396 323.758664 
L 67.059043 323.549791 
L 67.81269 323.331424 
L 68.566338 323.103607 
L 69.319985 322.866504 
L 70.073633 322.620322 
L 70.82728 322.36527 
L 71.580927 322.101279 
L 72.334575 321.8277 
L 73.088222 321.543167 
L 73.841869 321.24724 
L 74.595517 320.938922 
L 75.349164 320.616732 
L 76.102811 320.278979 
L 76.856459 319.923718 
L 77.610106 319.550022 
L 78.363753 319.158262 
L 79.117401 318.74853 
L 79.871048 318.321707 
L 80.624696 317.878997 
L 81.378343 317.421743 
L 82.13199 316.952701 
L 82.885638 316.474024 
L 83.639285 315.987752 
L 84.392932 315.496801 
L 85.14658 315.00453 
L 85.900227 314.515617 
L 86.653874 314.035389 
L 87.407522 313.567204 
L 88.161169 313.113493 
L 88.914816 312.674211 
L 89.668464 312.245929 
L 90.422111 311.82207 
L 91.175759 311.391588 
L 91.929406 310.94054 
L 92.683053 310.454245 
L 93.436701 309.917717 
L 94.190348 309.316297 
L 94.943995 308.636808 
L 95.697643 307.867623 
L 96.45129 306.999896 
L 97.204937 306.025475 
L 97.958585 304.935884 
L 98.712232 303.721372 
L 99.465879 302.37307 
L 100.219527 300.881574 
L 100.973174 299.235862 
L 101.726822 297.422803 
L 102.480469 295.42924 
L 103.234116 293.242785 
L 103.987764 290.852993 
L 104.741411 288.248562 
L 105.495058 285.420784 
L 106.248706 282.366487 
L 107.002353 279.087499 
L 107.756 275.588986 
L 108.509648 271.880443 
L 109.263295 267.973171 
L 110.016942 263.880256 
L 110.77059 259.611933 
L 111.524237 255.171306 
L 112.277885 250.557703 
L 113.031532 245.765984 
L 113.785179 240.781557 
L 114.538827 235.583093 
L 115.292474 230.14396 
L 116.046121 224.433262 
L 116.799769 218.418184 
L 117.553416 212.053472 
L 118.307063 205.291326 
L 119.060711 198.083367 
L 119.814358 190.380566 
L 120.568005 182.134104 
L 121.321653 173.292382 
L 122.0753 163.802437 
L 122.828948 153.632052 
L 123.582595 142.750497 
L 124.336242 131.137598 
L 125.08989 118.787869 
L 125.843537 105.733244 
L 126.597184 92.022522 
L 127.350832 77.724737 
L 128.104479 63.047514 
L 128.858126 48.04377 
L 129.611774 32.775664 
" style="fill:none;stroke:#ff0000;stroke-linecap:square;stroke-width:1.5;"/>
   </g>
   <g id="patch_100">
    <path d="M 53.312515 325.921635 
L 53.312515 18.118365 
" style="fill:none;stroke:#000000;stroke-linecap:square;stroke-linejoin:miter;stroke-width:0.8;"/>
   </g>
   <g id="patch_101">
    <path d="M 133.560886 325.921635 
L 133.560886 18.118365 
" style="fill:none;stroke:#000000;stroke-linecap:square;stroke-linejoin:miter;stroke-width:0.8;"/>
   </g>
   <g id="patch_102">
    <path d="M 53.312515 325.921635 
L 133.560886 325.921635 
" style="fill:none;stroke:#000000;stroke-linecap:square;stroke-linejoin:miter;stroke-width:0.8;"/>
   </g>
   <g id="patch_103">
    <path d="M 53.312515 18.118365 
L 133.560886 18.118365 
" style="fill:none;stroke:#000000;stroke-linecap:square;stroke-linejoin:miter;stroke-width:0.8;"/>
   </g>
   <g id="text_9">
    <!-- Casos acumulados - MS - (data) -->
    <defs>
     <path d="M 64.40625 67.28125 
L 64.40625 56.890625 
Q 59.421875 61.53125 53.78125 63.8125 
Q 48.140625 66.109375 41.796875 66.109375 
Q 29.296875 66.109375 22.65625 58.46875 
Q 16.015625 50.828125 16.015625 36.375 
Q 16.015625 21.96875 22.65625 14.328125 
Q 29.296875 6.6875 41.796875 6.6875 
Q 48.140625 6.6875 53.78125 8.984375 
Q 59.421875 11.28125 64.40625 15.921875 
L 64.40625 5.609375 
Q 59.234375 2.09375 53.4375 0.328125 
Q 47.65625 -1.421875 41.21875 -1.421875 
Q 24.65625 -1.421875 15.125 8.703125 
Q 5.609375 18.84375 5.609375 36.375 
Q 5.609375 53.953125 15.125 64.078125 
Q 24.65625 74.21875 41.21875 74.21875 
Q 47.75 74.21875 53.53125 72.484375 
Q 59.328125 70.75 64.40625 67.28125 
z
" id="DejaVuSans-67"/>
     <path d="M 34.28125 27.484375 
Q 23.390625 27.484375 19.1875 25 
Q 14.984375 22.515625 14.984375 16.5 
Q 14.984375 11.71875 18.140625 8.90625 
Q 21.296875 6.109375 26.703125 6.109375 
Q 34.1875 6.109375 38.703125 11.40625 
Q 43.21875 16.703125 43.21875 25.484375 
L 43.21875 27.484375 
z
M 52.203125 31.203125 
L 52.203125 0 
L 43.21875 0 
L 43.21875 8.296875 
Q 40.140625 3.328125 35.546875 0.953125 
Q 30.953125 -1.421875 24.3125 -1.421875 
Q 15.921875 -1.421875 10.953125 3.296875 
Q 6 8.015625 6 15.921875 
Q 6 25.140625 12.171875 29.828125 
Q 18.359375 34.515625 30.609375 34.515625 
L 43.21875 34.515625 
L 43.21875 35.40625 
Q 43.21875 41.609375 39.140625 45 
Q 35.0625 48.390625 27.6875 48.390625 
Q 23 48.390625 18.546875 47.265625 
Q 14.109375 46.140625 10.015625 43.890625 
L 10.015625 52.203125 
Q 14.9375 54.109375 19.578125 55.046875 
Q 24.21875 56 28.609375 56 
Q 40.484375 56 46.34375 49.84375 
Q 52.203125 43.703125 52.203125 31.203125 
z
" id="DejaVuSans-97"/>
     <path d="M 44.28125 53.078125 
L 44.28125 44.578125 
Q 40.484375 46.53125 36.375 47.5 
Q 32.28125 48.484375 27.875 48.484375 
Q 21.1875 48.484375 17.84375 46.4375 
Q 14.5 44.390625 14.5 40.28125 
Q 14.5 37.15625 16.890625 35.375 
Q 19.28125 33.59375 26.515625 31.984375 
L 29.59375 31.296875 
Q 39.15625 29.25 43.1875 25.515625 
Q 47.21875 21.78125 47.21875 15.09375 
Q 47.21875 7.46875 41.1875 3.015625 
Q 35.15625 -1.421875 24.609375 -1.421875 
Q 20.21875 -1.421875 15.453125 -0.5625 
Q 10.6875 0.296875 5.421875 2 
L 5.421875 11.28125 
Q 10.40625 8.6875 15.234375 7.390625 
Q 20.0625 6.109375 24.8125 6.109375 
Q 31.15625 6.109375 34.5625 8.28125 
Q 37.984375 10.453125 37.984375 14.40625 
Q 37.984375 18.0625 35.515625 20.015625 
Q 33.0625 21.96875 24.703125 23.78125 
L 21.578125 24.515625 
Q 13.234375 26.265625 9.515625 29.90625 
Q 5.8125 33.546875 5.8125 39.890625 
Q 5.8125 47.609375 11.28125 51.796875 
Q 16.75 56 26.8125 56 
Q 31.78125 56 36.171875 55.265625 
Q 40.578125 54.546875 44.28125 53.078125 
z
" id="DejaVuSans-115"/>
     <path d="M 30.609375 48.390625 
Q 23.390625 48.390625 19.1875 42.75 
Q 14.984375 37.109375 14.984375 27.296875 
Q 14.984375 17.484375 19.15625 11.84375 
Q 23.34375 6.203125 30.609375 6.203125 
Q 37.796875 6.203125 41.984375 11.859375 
Q 46.1875 17.53125 46.1875 27.296875 
Q 46.1875 37.015625 41.984375 42.703125 
Q 37.796875 48.390625 30.609375 48.390625 
z
M 30.609375 56 
Q 42.328125 56 49.015625 48.375 
Q 55.71875 40.765625 55.71875 27.296875 
Q 55.71875 13.875 49.015625 6.21875 
Q 42.328125 -1.421875 30.609375 -1.421875 
Q 18.84375 -1.421875 12.171875 6.21875 
Q 5.515625 13.875 5.515625 27.296875 
Q 5.515625 40.765625 12.171875 48.375 
Q 18.84375 56 30.609375 56 
z
" id="DejaVuSans-111"/>
     <path id="DejaVuSans-32"/>
     <path d="M 48.78125 52.59375 
L 48.78125 44.1875 
Q 44.96875 46.296875 41.140625 47.34375 
Q 37.3125 48.390625 33.40625 48.390625 
Q 24.65625 48.390625 19.8125 42.84375 
Q 14.984375 37.3125 14.984375 27.296875 
Q 14.984375 17.28125 19.8125 11.734375 
Q 24.65625 6.203125 33.40625 6.203125 
Q 37.3125 6.203125 41.140625 7.25 
Q 44.96875 8.296875 48.78125 10.40625 
L 48.78125 2.09375 
Q 45.015625 0.34375 40.984375 -0.53125 
Q 36.96875 -1.421875 32.421875 -1.421875 
Q 20.0625 -1.421875 12.78125 6.34375 
Q 5.515625 14.109375 5.515625 27.296875 
Q 5.515625 40.671875 12.859375 48.328125 
Q 20.21875 56 33.015625 56 
Q 37.15625 56 41.109375 55.140625 
Q 45.0625 54.296875 48.78125 52.59375 
z
" id="DejaVuSans-99"/>
     <path d="M 8.5 21.578125 
L 8.5 54.6875 
L 17.484375 54.6875 
L 17.484375 21.921875 
Q 17.484375 14.15625 20.5 10.265625 
Q 23.53125 6.390625 29.59375 6.390625 
Q 36.859375 6.390625 41.078125 11.03125 
Q 45.3125 15.671875 45.3125 23.6875 
L 45.3125 54.6875 
L 54.296875 54.6875 
L 54.296875 0 
L 45.3125 0 
L 45.3125 8.40625 
Q 42.046875 3.421875 37.71875 1 
Q 33.40625 -1.421875 27.6875 -1.421875 
Q 18.265625 -1.421875 13.375 4.4375 
Q 8.5 10.296875 8.5 21.578125 
z
M 31.109375 56 
z
" id="DejaVuSans-117"/>
     <path d="M 52 44.1875 
Q 55.375 50.25 60.0625 53.125 
Q 64.75 56 71.09375 56 
Q 79.640625 56 84.28125 50.015625 
Q 88.921875 44.046875 88.921875 33.015625 
L 88.921875 0 
L 79.890625 0 
L 79.890625 32.71875 
Q 79.890625 40.578125 77.09375 44.375 
Q 74.3125 48.1875 68.609375 48.1875 
Q 61.625 48.1875 57.5625 43.546875 
Q 53.515625 38.921875 53.515625 30.90625 
L 53.515625 0 
L 44.484375 0 
L 44.484375 32.71875 
Q 44.484375 40.625 41.703125 44.40625 
Q 38.921875 48.1875 33.109375 48.1875 
Q 26.21875 48.1875 22.15625 43.53125 
Q 18.109375 38.875 18.109375 30.90625 
L 18.109375 0 
L 9.078125 0 
L 9.078125 54.6875 
L 18.109375 54.6875 
L 18.109375 46.1875 
Q 21.1875 51.21875 25.484375 53.609375 
Q 29.78125 56 35.6875 56 
Q 41.65625 56 45.828125 52.96875 
Q 50 49.953125 52 44.1875 
z
" id="DejaVuSans-109"/>
     <path d="M 9.421875 75.984375 
L 18.40625 75.984375 
L 18.40625 0 
L 9.421875 0 
z
" id="DejaVuSans-108"/>
     <path d="M 45.40625 46.390625 
L 45.40625 75.984375 
L 54.390625 75.984375 
L 54.390625 0 
L 45.40625 0 
L 45.40625 8.203125 
Q 42.578125 3.328125 38.25 0.953125 
Q 33.9375 -1.421875 27.875 -1.421875 
Q 17.96875 -1.421875 11.734375 6.484375 
Q 5.515625 14.40625 5.515625 27.296875 
Q 5.515625 40.1875 11.734375 48.09375 
Q 17.96875 56 27.875 56 
Q 33.9375 56 38.25 53.625 
Q 42.578125 51.265625 45.40625 46.390625 
z
M 14.796875 27.296875 
Q 14.796875 17.390625 18.875 11.75 
Q 22.953125 6.109375 30.078125 6.109375 
Q 37.203125 6.109375 41.296875 11.75 
Q 45.40625 17.390625 45.40625 27.296875 
Q 45.40625 37.203125 41.296875 42.84375 
Q 37.203125 48.484375 30.078125 48.484375 
Q 22.953125 48.484375 18.875 42.84375 
Q 14.796875 37.203125 14.796875 27.296875 
z
" id="DejaVuSans-100"/>
     <path d="M 4.890625 31.390625 
L 31.203125 31.390625 
L 31.203125 23.390625 
L 4.890625 23.390625 
z
" id="DejaVuSans-45"/>
     <path d="M 9.8125 72.90625 
L 24.515625 72.90625 
L 43.109375 23.296875 
L 61.8125 72.90625 
L 76.515625 72.90625 
L 76.515625 0 
L 66.890625 0 
L 66.890625 64.015625 
L 48.09375 14.015625 
L 38.1875 14.015625 
L 19.390625 64.015625 
L 19.390625 0 
L 9.8125 0 
z
" id="DejaVuSans-77"/>
     <path d="M 53.515625 70.515625 
L 53.515625 60.890625 
Q 47.90625 63.578125 42.921875 64.890625 
Q 37.9375 66.21875 33.296875 66.21875 
Q 25.25 66.21875 20.875 63.09375 
Q 16.5 59.96875 16.5 54.203125 
Q 16.5 49.359375 19.40625 46.890625 
Q 22.3125 44.4375 30.421875 42.921875 
L 36.375 41.703125 
Q 47.40625 39.59375 52.65625 34.296875 
Q 57.90625 29 57.90625 20.125 
Q 57.90625 9.515625 50.796875 4.046875 
Q 43.703125 -1.421875 29.984375 -1.421875 
Q 24.8125 -1.421875 18.96875 -0.25 
Q 13.140625 0.921875 6.890625 3.21875 
L 6.890625 13.375 
Q 12.890625 10.015625 18.65625 8.296875 
Q 24.421875 6.59375 29.984375 6.59375 
Q 38.421875 6.59375 43.015625 9.90625 
Q 47.609375 13.234375 47.609375 19.390625 
Q 47.609375 24.75 44.3125 27.78125 
Q 41.015625 30.8125 33.5 32.328125 
L 27.484375 33.5 
Q 16.453125 35.6875 11.515625 40.375 
Q 6.59375 45.0625 6.59375 53.421875 
Q 6.59375 63.09375 13.40625 68.65625 
Q 20.21875 74.21875 32.171875 74.21875 
Q 37.3125 74.21875 42.625 73.28125 
Q 47.953125 72.359375 53.515625 70.515625 
z
" id="DejaVuSans-83"/>
     <path d="M 31 75.875 
Q 24.46875 64.65625 21.28125 53.65625 
Q 18.109375 42.671875 18.109375 31.390625 
Q 18.109375 20.125 21.3125 9.0625 
Q 24.515625 -2 31 -13.1875 
L 23.1875 -13.1875 
Q 15.875 -1.703125 12.234375 9.375 
Q 8.59375 20.453125 8.59375 31.390625 
Q 8.59375 42.28125 12.203125 53.3125 
Q 15.828125 64.359375 23.1875 75.875 
z
" id="DejaVuSans-40"/>
     <path d="M 18.3125 70.21875 
L 18.3125 54.6875 
L 36.8125 54.6875 
L 36.8125 47.703125 
L 18.3125 47.703125 
L 18.3125 18.015625 
Q 18.3125 11.328125 20.140625 9.421875 
Q 21.96875 7.515625 27.59375 7.515625 
L 36.8125 7.515625 
L 36.8125 0 
L 27.59375 0 
Q 17.1875 0 13.234375 3.875 
Q 9.28125 7.765625 9.28125 18.015625 
L 9.28125 47.703125 
L 2.6875 47.703125 
L 2.6875 54.6875 
L 9.28125 54.6875 
L 9.28125 70.21875 
z
" id="DejaVuSans-116"/>
     <path d="M 8.015625 75.875 
L 15.828125 75.875 
Q 23.140625 64.359375 26.78125 53.3125 
Q 30.421875 42.28125 30.421875 31.390625 
Q 30.421875 20.453125 26.78125 9.375 
Q 23.140625 -1.703125 15.828125 -13.1875 
L 8.015625 -13.1875 
Q 14.5 -2 17.703125 9.0625 
Q 20.90625 20.125 20.90625 31.390625 
Q 20.90625 42.671875 17.703125 53.65625 
Q 14.5 64.65625 8.015625 75.875 
z
" id="DejaVuSans-41"/>
    </defs>
    <g transform="translate(-1.773924 12.118365)scale(0.12 -0.12)">
     <use xlink:href="#DejaVuSans-67"/>
     <use x="69.824219" xlink:href="#DejaVuSans-97"/>
     <use x="131.103516" xlink:href="#DejaVuSans-115"/>
     <use x="183.203125" xlink:href="#DejaVuSans-111"/>
     <use x="244.384766" xlink:href="#DejaVuSans-115"/>
     <use x="296.484375" xlink:href="#DejaVuSans-32"/>
     <use x="328.271484" xlink:href="#DejaVuSans-97"/>
     <use x="389.550781" xlink:href="#DejaVuSans-99"/>
     <use x="444.53125" xlink:href="#DejaVuSans-117"/>
     <use x="507.910156" xlink:href="#DejaVuSans-109"/>
     <use x="605.322266" xlink:href="#DejaVuSans-117"/>
     <use x="668.701172" xlink:href="#DejaVuSans-108"/>
     <use x="696.484375" xlink:href="#DejaVuSans-97"/>
     <use x="757.763672" xlink:href="#DejaVuSans-100"/>
     <use x="821.240234" xlink:href="#DejaVuSans-111"/>
     <use x="882.421875" xlink:href="#DejaVuSans-115"/>
     <use x="934.521484" xlink:href="#DejaVuSans-32"/>
     <use x="966.308594" xlink:href="#DejaVuSans-45"/>
     <use x="1002.392578" xlink:href="#DejaVuSans-32"/>
     <use x="1034.179688" xlink:href="#DejaVuSans-77"/>
     <use x="1120.458984" xlink:href="#DejaVuSans-83"/>
     <use x="1183.935547" xlink:href="#DejaVuSans-32"/>
     <use x="1215.722656" xlink:href="#DejaVuSans-45"/>
     <use x="1251.806641" xlink:href="#DejaVuSans-32"/>
     <use x="1283.59375" xlink:href="#DejaVuSans-40"/>
     <use x="1322.607422" xlink:href="#DejaVuSans-100"/>
     <use x="1386.083984" xlink:href="#DejaVuSans-97"/>
     <use x="1447.363281" xlink:href="#DejaVuSans-116"/>
     <use x="1486.572266" xlink:href="#DejaVuSans-97"/>
     <use x="1547.851562" xlink:href="#DejaVuSans-41"/>
    </g>
   </g>
  </g>
  <g id="axes_2">
   <g id="patch_104">
    <path d="M 224.704792 325.921635 
L 304.953162 325.921635 
L 304.953162 18.118365 
L 224.704792 18.118365 
z
" style="fill:#ffffff;"/>
   </g>
   <g id="patch_105">
    <path clip-path="url(#p151c7c5139)" d="M 228.352445 325.921635 
L 228.955363 325.921635 
L 228.955363 324.425992 
L 228.352445 324.425992 
z
" style="fill:#1f77b4;"/>
   </g>
   <g id="patch_106">
    <path clip-path="url(#p151c7c5139)" d="M 229.106092 325.921635 
L 229.70901 325.921635 
L 229.70901 323.678171 
L 229.106092 323.678171 
z
" style="fill:#1f77b4;"/>
   </g>
   <g id="patch_107">
    <path clip-path="url(#p151c7c5139)" d="M 229.859739 325.921635 
L 230.462657 325.921635 
L 230.462657 325.921635 
L 229.859739 325.921635 
z
" style="fill:#1f77b4;"/>
   </g>
   <g id="patch_108">
    <path clip-path="url(#p151c7c5139)" d="M 230.613387 325.921635 
L 231.216305 325.921635 
L 231.216305 324.425992 
L 230.613387 324.425992 
z
" style="fill:#1f77b4;"/>
   </g>
   <g id="patch_109">
    <path clip-path="url(#p151c7c5139)" d="M 231.367034 325.921635 
L 231.969952 325.921635 
L 231.969952 320.686886 
L 231.367034 320.686886 
z
" style="fill:#1f77b4;"/>
   </g>
   <g id="patch_110">
    <path clip-path="url(#p151c7c5139)" d="M 232.120682 325.921635 
L 232.723599 325.921635 
L 232.723599 322.182528 
L 232.120682 322.182528 
z
" style="fill:#1f77b4;"/>
   </g>
   <g id="patch_111">
    <path clip-path="url(#p151c7c5139)" d="M 232.874329 325.921635 
L 233.477247 325.921635 
L 233.477247 325.921635 
L 232.874329 325.921635 
z
" style="fill:#1f77b4;"/>
   </g>
   <g id="patch_112">
    <path clip-path="url(#p151c7c5139)" d="M 233.627976 325.921635 
L 234.230894 325.921635 
L 234.230894 324.425992 
L 233.627976 324.425992 
z
" style="fill:#1f77b4;"/>
   </g>
   <g id="patch_113">
    <path clip-path="url(#p151c7c5139)" d="M 234.381624 325.921635 
L 234.984541 325.921635 
L 234.984541 325.173814 
L 234.381624 325.173814 
z
" style="fill:#1f77b4;"/>
   </g>
   <g id="patch_114">
    <path clip-path="url(#p151c7c5139)" d="M 235.135271 325.921635 
L 235.738189 325.921635 
L 235.738189 325.173814 
L 235.135271 325.173814 
z
" style="fill:#1f77b4;"/>
   </g>
   <g id="patch_115">
    <path clip-path="url(#p151c7c5139)" d="M 235.888918 325.921635 
L 236.491836 325.921635 
L 236.491836 323.678171 
L 235.888918 323.678171 
z
" style="fill:#1f77b4;"/>
   </g>
   <g id="patch_116">
    <path clip-path="url(#p151c7c5139)" d="M 236.642566 325.921635 
L 237.245484 325.921635 
L 237.245484 323.678171 
L 236.642566 323.678171 
z
" style="fill:#1f77b4;"/>
   </g>
   <g id="patch_117">
    <path clip-path="url(#p151c7c5139)" d="M 237.396213 325.921635 
L 237.999131 325.921635 
L 237.999131 322.182528 
L 237.396213 322.182528 
z
" style="fill:#1f77b4;"/>
   </g>
   <g id="patch_118">
    <path clip-path="url(#p151c7c5139)" d="M 238.14986 325.921635 
L 238.752778 325.921635 
L 238.752778 319.939064 
L 238.14986 319.939064 
z
" style="fill:#1f77b4;"/>
   </g>
   <g id="patch_119">
    <path clip-path="url(#p151c7c5139)" d="M 238.903508 325.921635 
L 239.506426 325.921635 
L 239.506426 322.93035 
L 238.903508 322.93035 
z
" style="fill:#1f77b4;"/>
   </g>
   <g id="patch_120">
    <path clip-path="url(#p151c7c5139)" d="M 239.657155 325.921635 
L 240.260073 325.921635 
L 240.260073 323.678171 
L 239.657155 323.678171 
z
" style="fill:#1f77b4;"/>
   </g>
   <g id="patch_121">
    <path clip-path="url(#p151c7c5139)" d="M 240.410802 325.921635 
L 241.01372 325.921635 
L 241.01372 324.425992 
L 240.410802 324.425992 
z
" style="fill:#1f77b4;"/>
   </g>
   <g id="patch_122">
    <path clip-path="url(#p151c7c5139)" d="M 241.16445 325.921635 
L 241.767368 325.921635 
L 241.767368 320.686886 
L 241.16445 320.686886 
z
" style="fill:#1f77b4;"/>
   </g>
   <g id="patch_123">
    <path clip-path="url(#p151c7c5139)" d="M 241.918097 325.921635 
L 242.521015 325.921635 
L 242.521015 324.425992 
L 241.918097 324.425992 
z
" style="fill:#1f77b4;"/>
   </g>
   <g id="patch_124">
    <path clip-path="url(#p151c7c5139)" d="M 242.671745 325.921635 
L 243.274662 325.921635 
L 243.274662 323.678171 
L 242.671745 323.678171 
z
" style="fill:#1f77b4;"/>
   </g>
   <g id="patch_125">
    <path clip-path="url(#p151c7c5139)" d="M 243.425392 325.921635 
L 244.02831 325.921635 
L 244.02831 325.173814 
L 243.425392 325.173814 
z
" style="fill:#1f77b4;"/>
   </g>
   <g id="patch_126">
    <path clip-path="url(#p151c7c5139)" d="M 244.179039 325.921635 
L 244.781957 325.921635 
L 244.781957 315.452136 
L 244.179039 315.452136 
z
" style="fill:#1f77b4;"/>
   </g>
   <g id="patch_127">
    <path clip-path="url(#p151c7c5139)" d="M 244.932687 325.921635 
L 245.535604 325.921635 
L 245.535604 322.182528 
L 244.932687 322.182528 
z
" style="fill:#1f77b4;"/>
   </g>
   <g id="patch_128">
    <path clip-path="url(#p151c7c5139)" d="M 245.686334 325.921635 
L 246.289252 325.921635 
L 246.289252 322.93035 
L 245.686334 322.93035 
z
" style="fill:#1f77b4;"/>
   </g>
   <g id="patch_129">
    <path clip-path="url(#p151c7c5139)" d="M 246.439981 325.921635 
L 247.042899 325.921635 
L 247.042899 319.939064 
L 246.439981 319.939064 
z
" style="fill:#1f77b4;"/>
   </g>
   <g id="patch_130">
    <path clip-path="url(#p151c7c5139)" d="M 247.193629 325.921635 
L 247.796547 325.921635 
L 247.796547 323.678171 
L 247.193629 323.678171 
z
" style="fill:#1f77b4;"/>
   </g>
   <g id="patch_131">
    <path clip-path="url(#p151c7c5139)" d="M 247.947276 325.921635 
L 248.550194 325.921635 
L 248.550194 325.173814 
L 247.947276 325.173814 
z
" style="fill:#1f77b4;"/>
   </g>
   <g id="patch_132">
    <path clip-path="url(#p151c7c5139)" d="M 248.700923 325.921635 
L 249.303841 325.921635 
L 249.303841 316.947779 
L 248.700923 316.947779 
z
" style="fill:#1f77b4;"/>
   </g>
   <g id="patch_133">
    <path clip-path="url(#p151c7c5139)" d="M 249.454571 325.921635 
L 250.057489 325.921635 
L 250.057489 324.425992 
L 249.454571 324.425992 
z
" style="fill:#1f77b4;"/>
   </g>
   <g id="patch_134">
    <path clip-path="url(#p151c7c5139)" d="M 250.208218 325.921635 
L 250.811136 325.921635 
L 250.811136 321.434707 
L 250.208218 321.434707 
z
" style="fill:#1f77b4;"/>
   </g>
   <g id="patch_135">
    <path clip-path="url(#p151c7c5139)" d="M 250.961865 325.921635 
L 251.564783 325.921635 
L 251.564783 318.443421 
L 250.961865 318.443421 
z
" style="fill:#1f77b4;"/>
   </g>
   <g id="patch_136">
    <path clip-path="url(#p151c7c5139)" d="M 251.715513 325.921635 
L 252.318431 325.921635 
L 252.318431 316.947779 
L 251.715513 316.947779 
z
" style="fill:#1f77b4;"/>
   </g>
   <g id="patch_137">
    <path clip-path="url(#p151c7c5139)" d="M 252.46916 325.921635 
L 253.072078 325.921635 
L 253.072078 312.460851 
L 252.46916 312.460851 
z
" style="fill:#1f77b4;"/>
   </g>
   <g id="patch_138">
    <path clip-path="url(#p151c7c5139)" d="M 253.222808 325.921635 
L 253.825725 325.921635 
L 253.825725 320.686886 
L 253.222808 320.686886 
z
" style="fill:#1f77b4;"/>
   </g>
   <g id="patch_139">
    <path clip-path="url(#p151c7c5139)" d="M 253.976455 325.921635 
L 254.579373 325.921635 
L 254.579373 323.678171 
L 253.976455 323.678171 
z
" style="fill:#1f77b4;"/>
   </g>
   <g id="patch_140">
    <path clip-path="url(#p151c7c5139)" d="M 254.730102 325.921635 
L 255.33302 325.921635 
L 255.33302 324.425992 
L 254.730102 324.425992 
z
" style="fill:#1f77b4;"/>
   </g>
   <g id="patch_141">
    <path clip-path="url(#p151c7c5139)" d="M 255.48375 325.921635 
L 256.086667 325.921635 
L 256.086667 324.425992 
L 255.48375 324.425992 
z
" style="fill:#1f77b4;"/>
   </g>
   <g id="patch_142">
    <path clip-path="url(#p151c7c5139)" d="M 256.237397 325.921635 
L 256.840315 325.921635 
L 256.840315 317.6956 
L 256.237397 317.6956 
z
" style="fill:#1f77b4;"/>
   </g>
   <g id="patch_143">
    <path clip-path="url(#p151c7c5139)" d="M 256.991044 325.921635 
L 257.593962 325.921635 
L 257.593962 305.730458 
L 256.991044 305.730458 
z
" style="fill:#1f77b4;"/>
   </g>
   <g id="patch_144">
    <path clip-path="url(#p151c7c5139)" d="M 257.744692 325.921635 
L 258.34761 325.921635 
L 258.34761 322.93035 
L 257.744692 322.93035 
z
" style="fill:#1f77b4;"/>
   </g>
   <g id="patch_145">
    <path clip-path="url(#p151c7c5139)" d="M 258.498339 325.921635 
L 259.101257 325.921635 
L 259.101257 313.208672 
L 258.498339 313.208672 
z
" style="fill:#1f77b4;"/>
   </g>
   <g id="patch_146">
    <path clip-path="url(#p151c7c5139)" d="M 259.251986 325.921635 
L 259.854904 325.921635 
L 259.854904 322.93035 
L 259.251986 322.93035 
z
" style="fill:#1f77b4;"/>
   </g>
   <g id="patch_147">
    <path clip-path="url(#p151c7c5139)" d="M 260.005634 325.921635 
L 260.608552 325.921635 
L 260.608552 324.425992 
L 260.005634 324.425992 
z
" style="fill:#1f77b4;"/>
   </g>
   <g id="patch_148">
    <path clip-path="url(#p151c7c5139)" d="M 260.759281 325.921635 
L 261.362199 325.921635 
L 261.362199 319.191243 
L 260.759281 319.191243 
z
" style="fill:#1f77b4;"/>
   </g>
   <g id="patch_149">
    <path clip-path="url(#p151c7c5139)" d="M 261.512928 325.921635 
L 262.115846 325.921635 
L 262.115846 321.434707 
L 261.512928 321.434707 
z
" style="fill:#1f77b4;"/>
   </g>
   <g id="patch_150">
    <path clip-path="url(#p151c7c5139)" d="M 262.266576 325.921635 
L 262.869494 325.921635 
L 262.869494 321.434707 
L 262.266576 321.434707 
z
" style="fill:#1f77b4;"/>
   </g>
   <g id="patch_151">
    <path clip-path="url(#p151c7c5139)" d="M 263.020223 325.921635 
L 263.623141 325.921635 
L 263.623141 322.182528 
L 263.020223 322.182528 
z
" style="fill:#1f77b4;"/>
   </g>
   <g id="patch_152">
    <path clip-path="url(#p151c7c5139)" d="M 263.773871 325.921635 
L 264.376788 325.921635 
L 264.376788 321.434707 
L 263.773871 321.434707 
z
" style="fill:#1f77b4;"/>
   </g>
   <g id="patch_153">
    <path clip-path="url(#p151c7c5139)" d="M 264.527518 325.921635 
L 265.130436 325.921635 
L 265.130436 324.425992 
L 264.527518 324.425992 
z
" style="fill:#1f77b4;"/>
   </g>
   <g id="patch_154">
    <path clip-path="url(#p151c7c5139)" d="M 265.281165 325.921635 
L 265.884083 325.921635 
L 265.884083 319.191243 
L 265.281165 319.191243 
z
" style="fill:#1f77b4;"/>
   </g>
   <g id="patch_155">
    <path clip-path="url(#p151c7c5139)" d="M 266.034813 325.921635 
L 266.63773 325.921635 
L 266.63773 322.182528 
L 266.034813 322.182528 
z
" style="fill:#1f77b4;"/>
   </g>
   <g id="patch_156">
    <path clip-path="url(#p151c7c5139)" d="M 266.78846 325.921635 
L 267.391378 325.921635 
L 267.391378 308.721744 
L 266.78846 308.721744 
z
" style="fill:#1f77b4;"/>
   </g>
   <g id="patch_157">
    <path clip-path="url(#p151c7c5139)" d="M 267.542107 325.921635 
L 268.145025 325.921635 
L 268.145025 314.704315 
L 267.542107 314.704315 
z
" style="fill:#1f77b4;"/>
   </g>
   <g id="patch_158">
    <path clip-path="url(#p151c7c5139)" d="M 268.295755 325.921635 
L 268.898673 325.921635 
L 268.898673 310.965208 
L 268.295755 310.965208 
z
" style="fill:#1f77b4;"/>
   </g>
   <g id="patch_159">
    <path clip-path="url(#p151c7c5139)" d="M 269.049402 325.921635 
L 269.65232 325.921635 
L 269.65232 313.956493 
L 269.049402 313.956493 
z
" style="fill:#1f77b4;"/>
   </g>
   <g id="patch_160">
    <path clip-path="url(#p151c7c5139)" d="M 269.803049 325.921635 
L 270.405967 325.921635 
L 270.405967 308.721744 
L 269.803049 308.721744 
z
" style="fill:#1f77b4;"/>
   </g>
   <g id="patch_161">
    <path clip-path="url(#p151c7c5139)" d="M 270.556697 325.921635 
L 271.159615 325.921635 
L 271.159615 310.965208 
L 270.556697 310.965208 
z
" style="fill:#1f77b4;"/>
   </g>
   <g id="patch_162">
    <path clip-path="url(#p151c7c5139)" d="M 271.310344 325.921635 
L 271.913262 325.921635 
L 271.913262 307.226101 
L 271.310344 307.226101 
z
" style="fill:#1f77b4;"/>
   </g>
   <g id="patch_163">
    <path clip-path="url(#p151c7c5139)" d="M 272.063991 325.921635 
L 272.666909 325.921635 
L 272.666909 309.469565 
L 272.063991 309.469565 
z
" style="fill:#1f77b4;"/>
   </g>
   <g id="patch_164">
    <path clip-path="url(#p151c7c5139)" d="M 272.817639 325.921635 
L 273.420557 325.921635 
L 273.420557 305.730458 
L 272.817639 305.730458 
z
" style="fill:#1f77b4;"/>
   </g>
   <g id="patch_165">
    <path clip-path="url(#p151c7c5139)" d="M 273.571286 325.921635 
L 274.174204 325.921635 
L 274.174204 304.234816 
L 273.571286 304.234816 
z
" style="fill:#1f77b4;"/>
   </g>
   <g id="patch_166">
    <path clip-path="url(#p151c7c5139)" d="M 274.324934 325.921635 
L 274.927851 325.921635 
L 274.927851 279.556711 
L 274.324934 279.556711 
z
" style="fill:#1f77b4;"/>
   </g>
   <g id="patch_167">
    <path clip-path="url(#p151c7c5139)" d="M 275.078581 325.921635 
L 275.681499 325.921635 
L 275.681499 293.765317 
L 275.078581 293.765317 
z
" style="fill:#1f77b4;"/>
   </g>
   <g id="patch_168">
    <path clip-path="url(#p151c7c5139)" d="M 275.832228 325.921635 
L 276.435146 325.921635 
L 276.435146 304.234816 
L 275.832228 304.234816 
z
" style="fill:#1f77b4;"/>
   </g>
   <g id="patch_169">
    <path clip-path="url(#p151c7c5139)" d="M 276.585876 325.921635 
L 277.188793 325.921635 
L 277.188793 287.782746 
L 276.585876 287.782746 
z
" style="fill:#1f77b4;"/>
   </g>
   <g id="patch_170">
    <path clip-path="url(#p151c7c5139)" d="M 277.339523 325.921635 
L 277.942441 325.921635 
L 277.942441 286.287103 
L 277.339523 286.287103 
z
" style="fill:#1f77b4;"/>
   </g>
   <g id="patch_171">
    <path clip-path="url(#p151c7c5139)" d="M 278.09317 325.921635 
L 278.696088 325.921635 
L 278.696088 281.800175 
L 278.09317 281.800175 
z
" style="fill:#1f77b4;"/>
   </g>
   <g id="patch_172">
    <path clip-path="url(#p151c7c5139)" d="M 278.846818 325.921635 
L 279.449736 325.921635 
L 279.449736 286.287103 
L 278.846818 286.287103 
z
" style="fill:#1f77b4;"/>
   </g>
   <g id="patch_173">
    <path clip-path="url(#p151c7c5139)" d="M 279.600465 325.921635 
L 280.203383 325.921635 
L 280.203383 276.565426 
L 279.600465 276.565426 
z
" style="fill:#1f77b4;"/>
   </g>
   <g id="patch_174">
    <path clip-path="url(#p151c7c5139)" d="M 280.354112 325.921635 
L 280.95703 325.921635 
L 280.95703 251.887321 
L 280.354112 251.887321 
z
" style="fill:#1f77b4;"/>
   </g>
   <g id="patch_175">
    <path clip-path="url(#p151c7c5139)" d="M 281.10776 325.921635 
L 281.710678 325.921635 
L 281.710678 268.339391 
L 281.10776 268.339391 
z
" style="fill:#1f77b4;"/>
   </g>
   <g id="patch_176">
    <path clip-path="url(#p151c7c5139)" d="M 281.861407 325.921635 
L 282.464325 325.921635 
L 282.464325 261.608998 
L 281.861407 261.608998 
z
" style="fill:#1f77b4;"/>
   </g>
   <g id="patch_177">
    <path clip-path="url(#p151c7c5139)" d="M 282.615054 325.921635 
L 283.217972 325.921635 
L 283.217972 269.087212 
L 282.615054 269.087212 
z
" style="fill:#1f77b4;"/>
   </g>
   <g id="patch_178">
    <path clip-path="url(#p151c7c5139)" d="M 283.368702 325.921635 
L 283.97162 325.921635 
L 283.97162 255.626428 
L 283.368702 255.626428 
z
" style="fill:#1f77b4;"/>
   </g>
   <g id="patch_179">
    <path clip-path="url(#p151c7c5139)" d="M 284.122349 325.921635 
L 284.725267 325.921635 
L 284.725267 279.556711 
L 284.122349 279.556711 
z
" style="fill:#1f77b4;"/>
   </g>
   <g id="patch_180">
    <path clip-path="url(#p151c7c5139)" d="M 284.875997 325.921635 
L 285.478914 325.921635 
L 285.478914 272.826319 
L 284.875997 272.826319 
z
" style="fill:#1f77b4;"/>
   </g>
   <g id="patch_181">
    <path clip-path="url(#p151c7c5139)" d="M 285.629644 325.921635 
L 286.232562 325.921635 
L 286.232562 266.843748 
L 285.629644 266.843748 
z
" style="fill:#1f77b4;"/>
   </g>
   <g id="patch_182">
    <path clip-path="url(#p151c7c5139)" d="M 286.383291 325.921635 
L 286.986209 325.921635 
L 286.986209 267.591569 
L 286.383291 267.591569 
z
" style="fill:#1f77b4;"/>
   </g>
   <g id="patch_183">
    <path clip-path="url(#p151c7c5139)" d="M 287.136939 325.921635 
L 287.739856 325.921635 
L 287.739856 209.261504 
L 287.136939 209.261504 
z
" style="fill:#1f77b4;"/>
   </g>
   <g id="patch_184">
    <path clip-path="url(#p151c7c5139)" d="M 287.890586 325.921635 
L 288.493504 325.921635 
L 288.493504 233.939608 
L 287.890586 233.939608 
z
" style="fill:#1f77b4;"/>
   </g>
   <g id="patch_185">
    <path clip-path="url(#p151c7c5139)" d="M 288.644233 325.921635 
L 289.247151 325.921635 
L 289.247151 272.078497 
L 288.644233 272.078497 
z
" style="fill:#1f77b4;"/>
   </g>
   <g id="patch_186">
    <path clip-path="url(#p151c7c5139)" d="M 289.397881 325.921635 
L 290.000799 325.921635 
L 290.000799 224.965752 
L 289.397881 224.965752 
z
" style="fill:#1f77b4;"/>
   </g>
   <g id="patch_187">
    <path clip-path="url(#p151c7c5139)" d="M 290.151528 325.921635 
L 290.754446 325.921635 
L 290.754446 235.435251 
L 290.151528 235.435251 
z
" style="fill:#1f77b4;"/>
   </g>
   <g id="patch_188">
    <path clip-path="url(#p151c7c5139)" d="M 290.905175 325.921635 
L 291.508093 325.921635 
L 291.508093 272.826319 
L 290.905175 272.826319 
z
" style="fill:#1f77b4;"/>
   </g>
   <g id="patch_189">
    <path clip-path="url(#p151c7c5139)" d="M 291.658823 325.921635 
L 292.261741 325.921635 
L 292.261741 227.957037 
L 291.658823 227.957037 
z
" style="fill:#1f77b4;"/>
   </g>
   <g id="patch_190">
    <path clip-path="url(#p151c7c5139)" d="M 292.41247 325.921635 
L 293.015388 325.921635 
L 293.015388 219.731002 
L 292.41247 219.731002 
z
" style="fill:#1f77b4;"/>
   </g>
   <g id="patch_191">
    <path clip-path="url(#p151c7c5139)" d="M 293.166117 325.921635 
L 293.769035 325.921635 
L 293.769035 134.479368 
L 293.166117 134.479368 
z
" style="fill:#1f77b4;"/>
   </g>
   <g id="patch_192">
    <path clip-path="url(#p151c7c5139)" d="M 293.919765 325.921635 
L 294.522683 325.921635 
L 294.522683 215.244074 
L 293.919765 215.244074 
z
" style="fill:#1f77b4;"/>
   </g>
   <g id="patch_193">
    <path clip-path="url(#p151c7c5139)" d="M 294.673412 325.921635 
L 295.27633 325.921635 
L 295.27633 150.931438 
L 294.673412 150.931438 
z
" style="fill:#1f77b4;"/>
   </g>
   <g id="patch_194">
    <path clip-path="url(#p151c7c5139)" d="M 295.42706 325.921635 
L 296.029977 325.921635 
L 296.029977 177.853007 
L 295.42706 177.853007 
z
" style="fill:#1f77b4;"/>
   </g>
   <g id="patch_195">
    <path clip-path="url(#p151c7c5139)" d="M 296.180707 325.921635 
L 296.783625 325.921635 
L 296.783625 237.678715 
L 296.180707 237.678715 
z
" style="fill:#1f77b4;"/>
   </g>
   <g id="patch_196">
    <path clip-path="url(#p151c7c5139)" d="M 296.934354 325.921635 
L 297.537272 325.921635 
L 297.537272 150.931438 
L 296.934354 150.931438 
z
" style="fill:#1f77b4;"/>
   </g>
   <g id="patch_197">
    <path clip-path="url(#p151c7c5139)" d="M 297.688002 325.921635 
L 298.290919 325.921635 
L 298.290919 42.497341 
L 297.688002 42.497341 
z
" style="fill:#1f77b4;"/>
   </g>
   <g id="patch_198">
    <path clip-path="url(#p151c7c5139)" d="M 298.441649 325.921635 
L 299.044567 325.921635 
L 299.044567 243.661286 
L 298.441649 243.661286 
z
" style="fill:#1f77b4;"/>
   </g>
   <g id="patch_199">
    <path clip-path="url(#p151c7c5139)" d="M 299.195296 325.921635 
L 299.798214 325.921635 
L 299.798214 32.775664 
L 299.195296 32.775664 
z
" style="fill:#1f77b4;"/>
   </g>
   <g id="patch_200">
    <path clip-path="url(#p151c7c5139)" d="M 299.948944 325.921635 
L 300.551862 325.921635 
L 300.551862 83.627516 
L 299.948944 83.627516 
z
" style="fill:#1f77b4;"/>
   </g>
   <g id="patch_201">
    <path clip-path="url(#p151c7c5139)" d="M 300.702591 325.921635 
L 301.305509 325.921635 
L 301.305509 141.20976 
L 300.702591 141.20976 
z
" style="fill:#1f77b4;"/>
   </g>
   <g id="matplotlib.axis_3">
    <g id="xtick_3">
     <g id="line2d_10">
      <g>
       <use style="stroke:#000000;stroke-width:0.8;" x="228.653904" xlink:href="#mdbe96cfffa" y="325.921635"/>
      </g>
     </g>
     <g id="text_10">
      <!-- 0 -->
      <g transform="translate(225.472654 340.520072)scale(0.1 -0.1)">
       <use xlink:href="#DejaVuSans-48"/>
      </g>
     </g>
    </g>
    <g id="xtick_4">
     <g id="line2d_11">
      <g>
       <use style="stroke:#000000;stroke-width:0.8;" x="304.018639" xlink:href="#mdbe96cfffa" y="325.921635"/>
      </g>
     </g>
     <g id="text_11">
      <!-- 100 -->
      <g transform="translate(294.474889 340.520072)scale(0.1 -0.1)">
       <use xlink:href="#DejaVuSans-49"/>
       <use x="63.623047" xlink:href="#DejaVuSans-48"/>
       <use x="127.246094" xlink:href="#DejaVuSans-48"/>
      </g>
     </g>
    </g>
   </g>
   <g id="matplotlib.axis_4">
    <g id="ytick_7">
     <g id="line2d_12">
      <g>
       <use style="stroke:#000000;stroke-width:0.8;" x="224.704792" xlink:href="#m18542da7dc" y="325.921635"/>
      </g>
     </g>
     <g id="text_12">
      <!-- 0 -->
      <g transform="translate(211.342292 329.720854)scale(0.1 -0.1)">
       <use xlink:href="#DejaVuSans-48"/>
      </g>
     </g>
    </g>
    <g id="ytick_8">
     <g id="line2d_13">
      <g>
       <use style="stroke:#000000;stroke-width:0.8;" x="224.704792" xlink:href="#m18542da7dc" y="288.530567"/>
      </g>
     </g>
     <g id="text_13">
      <!-- 50 -->
      <g transform="translate(204.979792 292.329786)scale(0.1 -0.1)">
       <use xlink:href="#DejaVuSans-53"/>
       <use x="63.623047" xlink:href="#DejaVuSans-48"/>
      </g>
     </g>
    </g>
    <g id="ytick_9">
     <g id="line2d_14">
      <g>
       <use style="stroke:#000000;stroke-width:0.8;" x="224.704792" xlink:href="#m18542da7dc" y="251.139499"/>
      </g>
     </g>
     <g id="text_14">
      <!-- 100 -->
      <g transform="translate(198.617292 254.938718)scale(0.1 -0.1)">
       <use xlink:href="#DejaVuSans-49"/>
       <use x="63.623047" xlink:href="#DejaVuSans-48"/>
       <use x="127.246094" xlink:href="#DejaVuSans-48"/>
      </g>
     </g>
    </g>
    <g id="ytick_10">
     <g id="line2d_15">
      <g>
       <use style="stroke:#000000;stroke-width:0.8;" x="224.704792" xlink:href="#m18542da7dc" y="213.748432"/>
      </g>
     </g>
     <g id="text_15">
      <!-- 150 -->
      <g transform="translate(198.617292 217.54765)scale(0.1 -0.1)">
       <use xlink:href="#DejaVuSans-49"/>
       <use x="63.623047" xlink:href="#DejaVuSans-53"/>
       <use x="127.246094" xlink:href="#DejaVuSans-48"/>
      </g>
     </g>
    </g>
    <g id="ytick_11">
     <g id="line2d_16">
      <g>
       <use style="stroke:#000000;stroke-width:0.8;" x="224.704792" xlink:href="#m18542da7dc" y="176.357364"/>
      </g>
     </g>
     <g id="text_16">
      <!-- 200 -->
      <g transform="translate(198.617292 180.156583)scale(0.1 -0.1)">
       <use xlink:href="#DejaVuSans-50"/>
       <use x="63.623047" xlink:href="#DejaVuSans-48"/>
       <use x="127.246094" xlink:href="#DejaVuSans-48"/>
      </g>
     </g>
    </g>
    <g id="ytick_12">
     <g id="line2d_17">
      <g>
       <use style="stroke:#000000;stroke-width:0.8;" x="224.704792" xlink:href="#m18542da7dc" y="138.966296"/>
      </g>
     </g>
     <g id="text_17">
      <!-- 250 -->
      <g transform="translate(198.617292 142.765515)scale(0.1 -0.1)">
       <use xlink:href="#DejaVuSans-50"/>
       <use x="63.623047" xlink:href="#DejaVuSans-53"/>
       <use x="127.246094" xlink:href="#DejaVuSans-48"/>
      </g>
     </g>
    </g>
    <g id="ytick_13">
     <g id="line2d_18">
      <g>
       <use style="stroke:#000000;stroke-width:0.8;" x="224.704792" xlink:href="#m18542da7dc" y="101.575228"/>
      </g>
     </g>
     <g id="text_18">
      <!-- 300 -->
      <g transform="translate(198.617292 105.374447)scale(0.1 -0.1)">
       <use xlink:href="#DejaVuSans-51"/>
       <use x="63.623047" xlink:href="#DejaVuSans-48"/>
       <use x="127.246094" xlink:href="#DejaVuSans-48"/>
      </g>
     </g>
    </g>
    <g id="ytick_14">
     <g id="line2d_19">
      <g>
       <use style="stroke:#000000;stroke-width:0.8;" x="224.704792" xlink:href="#m18542da7dc" y="64.184161"/>
      </g>
     </g>
     <g id="text_19">
      <!-- 350 -->
      <g transform="translate(198.617292 67.983379)scale(0.1 -0.1)">
       <use xlink:href="#DejaVuSans-51"/>
       <use x="63.623047" xlink:href="#DejaVuSans-53"/>
       <use x="127.246094" xlink:href="#DejaVuSans-48"/>
      </g>
     </g>
    </g>
    <g id="ytick_15">
     <g id="line2d_20">
      <g>
       <use style="stroke:#000000;stroke-width:0.8;" x="224.704792" xlink:href="#m18542da7dc" y="26.793093"/>
      </g>
     </g>
     <g id="text_20">
      <!-- 400 -->
      <g transform="translate(198.617292 30.592311)scale(0.1 -0.1)">
       <use xlink:href="#DejaVuSans-52"/>
       <use x="63.623047" xlink:href="#DejaVuSans-48"/>
       <use x="127.246094" xlink:href="#DejaVuSans-48"/>
      </g>
     </g>
    </g>
   </g>
   <g id="line2d_21">
    <path clip-path="url(#p151c7c5139)" d="M 228.653904 325.047048 
L 229.407551 324.790715 
L 230.161198 324.521611 
L 230.914846 324.342832 
L 231.668493 324.190838 
L 232.42214 324.06781 
L 233.175788 323.968142 
L 233.929435 323.867229 
L 234.683083 323.761954 
L 235.43673 323.647959 
L 236.190377 323.523997 
L 236.944025 323.39038 
L 237.697672 323.250533 
L 238.451319 323.112555 
L 239.204967 322.984856 
L 239.958614 322.857779 
L 240.712261 322.732882 
L 241.465909 322.610789 
L 242.219556 322.491499 
L 242.973203 322.371274 
L 243.726851 322.242329 
L 244.480498 322.095007 
L 245.234146 321.941768 
L 245.987793 321.775135 
L 246.74144 321.588569 
L 247.495088 321.379267 
L 248.248735 321.143801 
L 249.002382 320.895877 
L 249.75603 320.652936 
L 250.509677 320.411241 
L 251.263324 320.181382 
L 252.016972 319.967719 
L 252.770619 319.77212 
L 253.524266 319.613586 
L 254.277914 319.484018 
L 255.031561 319.381858 
L 255.785209 319.318942 
L 256.538856 319.301189 
L 257.292503 319.346351 
L 258.046151 319.46315 
L 258.799798 319.62511 
L 259.553445 319.819774 
L 260.307093 320.013815 
L 261.06074 320.16176 
L 261.814387 320.221249 
L 262.568035 320.132171 
L 263.321682 319.855592 
L 264.075329 319.381546 
L 264.828977 318.705984 
L 265.582624 317.833266 
L 266.336272 316.783327 
L 267.089919 315.577032 
L 267.843566 314.25176 
L 268.597214 312.816852 
L 269.350861 311.267949 
L 270.104508 309.587921 
L 270.858156 307.788602 
L 271.611803 305.86283 
L 272.36545 303.788801 
L 273.119098 301.538174 
L 273.872745 299.110635 
L 274.626392 296.516465 
L 275.38004 293.781824 
L 276.133687 290.89519 
L 276.887335 287.891446 
L 277.640982 284.845032 
L 278.394629 281.823223 
L 279.148277 278.870871 
L 279.901924 276.046218 
L 280.655571 273.373558 
L 281.409219 270.876875 
L 282.162866 268.517859 
L 282.916513 266.200578 
L 283.670161 263.874265 
L 284.423808 261.478807 
L 285.177455 258.887128 
L 285.931103 256.008592 
L 286.68475 252.771874 
L 287.438398 249.119665 
L 288.192045 245.026114 
L 288.945692 240.323966 
L 289.69934 234.978958 
L 290.452987 228.983306 
L 291.206634 222.328288 
L 291.960282 215.016707 
L 292.713929 207.011187 
L 293.467576 198.293353 
L 294.221224 189.142275 
L 294.974871 179.577886 
L 295.728518 169.742213 
L 296.482166 159.832723 
L 297.235813 150.352741 
L 297.989461 141.529009 
L 298.743108 133.633747 
L 299.496755 128.530747 
L 300.250403 124.139437 
L 301.00405 120.584093 
" style="fill:none;stroke:#ff0000;stroke-linecap:square;stroke-width:1.5;"/>
   </g>
   <g id="patch_202">
    <path d="M 224.704792 325.921635 
L 224.704792 18.118365 
" style="fill:none;stroke:#000000;stroke-linecap:square;stroke-linejoin:miter;stroke-width:0.8;"/>
   </g>
   <g id="patch_203">
    <path d="M 304.953162 325.921635 
L 304.953162 18.118365 
" style="fill:none;stroke:#000000;stroke-linecap:square;stroke-linejoin:miter;stroke-width:0.8;"/>
   </g>
   <g id="patch_204">
    <path d="M 224.704792 325.921635 
L 304.953162 325.921635 
" style="fill:none;stroke:#000000;stroke-linecap:square;stroke-linejoin:miter;stroke-width:0.8;"/>
   </g>
   <g id="patch_205">
    <path d="M 224.704792 18.118365 
L 304.953162 18.118365 
" style="fill:none;stroke:#000000;stroke-linecap:square;stroke-linejoin:miter;stroke-width:0.8;"/>
   </g>
   <g id="text_21">
    <!-- Casos novos - MS - (data) -->
    <defs>
     <path d="M 54.890625 33.015625 
L 54.890625 0 
L 45.90625 0 
L 45.90625 32.71875 
Q 45.90625 40.484375 42.875 44.328125 
Q 39.84375 48.1875 33.796875 48.1875 
Q 26.515625 48.1875 22.3125 43.546875 
Q 18.109375 38.921875 18.109375 30.90625 
L 18.109375 0 
L 9.078125 0 
L 9.078125 54.6875 
L 18.109375 54.6875 
L 18.109375 46.1875 
Q 21.34375 51.125 25.703125 53.5625 
Q 30.078125 56 35.796875 56 
Q 45.21875 56 50.046875 50.171875 
Q 54.890625 44.34375 54.890625 33.015625 
z
" id="DejaVuSans-110"/>
     <path d="M 2.984375 54.6875 
L 12.5 54.6875 
L 29.59375 8.796875 
L 46.6875 54.6875 
L 56.203125 54.6875 
L 35.6875 0 
L 23.484375 0 
z
" id="DejaVuSans-118"/>
    </defs>
    <g transform="translate(188.171477 12.118365)scale(0.12 -0.12)">
     <use xlink:href="#DejaVuSans-67"/>
     <use x="69.824219" xlink:href="#DejaVuSans-97"/>
     <use x="131.103516" xlink:href="#DejaVuSans-115"/>
     <use x="183.203125" xlink:href="#DejaVuSans-111"/>
     <use x="244.384766" xlink:href="#DejaVuSans-115"/>
     <use x="296.484375" xlink:href="#DejaVuSans-32"/>
     <use x="328.271484" xlink:href="#DejaVuSans-110"/>
     <use x="391.650391" xlink:href="#DejaVuSans-111"/>
     <use x="452.832031" xlink:href="#DejaVuSans-118"/>
     <use x="512.011719" xlink:href="#DejaVuSans-111"/>
     <use x="573.193359" xlink:href="#DejaVuSans-115"/>
     <use x="625.292969" xlink:href="#DejaVuSans-32"/>
     <use x="657.080078" xlink:href="#DejaVuSans-45"/>
     <use x="693.164062" xlink:href="#DejaVuSans-32"/>
     <use x="724.951172" xlink:href="#DejaVuSans-77"/>
     <use x="811.230469" xlink:href="#DejaVuSans-83"/>
     <use x="874.707031" xlink:href="#DejaVuSans-32"/>
     <use x="906.494141" xlink:href="#DejaVuSans-45"/>
     <use x="942.578125" xlink:href="#DejaVuSans-32"/>
     <use x="974.365234" xlink:href="#DejaVuSans-40"/>
     <use x="1013.378906" xlink:href="#DejaVuSans-100"/>
     <use x="1076.855469" xlink:href="#DejaVuSans-97"/>
     <use x="1138.134766" xlink:href="#DejaVuSans-116"/>
     <use x="1177.34375" xlink:href="#DejaVuSans-97"/>
     <use x="1238.623047" xlink:href="#DejaVuSans-41"/>
    </g>
   </g>
  </g>
  <g id="axes_3">
   <g id="patch_206">
    <path d="M 368.687917 325.921635 
L 448.936288 325.921635 
L 448.936288 18.118365 
L 368.687917 18.118365 
z
" style="fill:#ffffff;"/>
   </g>
   <g id="matplotlib.axis_5">
    <g id="xtick_5">
     <g id="line2d_22">
      <g>
       <use style="stroke:#000000;stroke-width:0.8;" x="372.335571" xlink:href="#mdbe96cfffa" y="325.921635"/>
      </g>
     </g>
     <g id="text_22">
      <!-- 0 -->
      <g transform="translate(369.154321 340.520072)scale(0.1 -0.1)">
       <use xlink:href="#DejaVuSans-48"/>
      </g>
     </g>
    </g>
    <g id="xtick_6">
     <g id="line2d_23">
      <g>
       <use style="stroke:#000000;stroke-width:0.8;" x="448.328346" xlink:href="#mdbe96cfffa" y="325.921635"/>
      </g>
     </g>
     <g id="text_23">
      <!-- 100 -->
      <g transform="translate(438.784596 340.520072)scale(0.1 -0.1)">
       <use xlink:href="#DejaVuSans-49"/>
       <use x="63.623047" xlink:href="#DejaVuSans-48"/>
       <use x="127.246094" xlink:href="#DejaVuSans-48"/>
      </g>
     </g>
    </g>
   </g>
   <g id="matplotlib.axis_6">
    <g id="ytick_16">
     <g id="line2d_24">
      <g>
       <use style="stroke:#000000;stroke-width:0.8;" x="368.687917" xlink:href="#m18542da7dc" y="282.107311"/>
      </g>
     </g>
     <g id="text_24">
      <!-- 1.0 -->
      <defs>
       <path d="M 10.6875 12.40625 
L 21 12.40625 
L 21 0 
L 10.6875 0 
z
" id="DejaVuSans-46"/>
      </defs>
      <g transform="translate(345.784792 285.90653)scale(0.1 -0.1)">
       <use xlink:href="#DejaVuSans-49"/>
       <use x="63.623047" xlink:href="#DejaVuSans-46"/>
       <use x="95.410156" xlink:href="#DejaVuSans-48"/>
      </g>
     </g>
    </g>
    <g id="ytick_17">
     <g id="line2d_25">
      <g>
       <use style="stroke:#000000;stroke-width:0.8;" x="368.687917" xlink:href="#m18542da7dc" y="218.214766"/>
      </g>
     </g>
     <g id="text_25">
      <!-- 1.5 -->
      <g transform="translate(345.784792 222.013985)scale(0.1 -0.1)">
       <use xlink:href="#DejaVuSans-49"/>
       <use x="63.623047" xlink:href="#DejaVuSans-46"/>
       <use x="95.410156" xlink:href="#DejaVuSans-53"/>
      </g>
     </g>
    </g>
    <g id="ytick_18">
     <g id="line2d_26">
      <g>
       <use style="stroke:#000000;stroke-width:0.8;" x="368.687917" xlink:href="#m18542da7dc" y="154.322221"/>
      </g>
     </g>
     <g id="text_26">
      <!-- 2.0 -->
      <g transform="translate(345.784792 158.12144)scale(0.1 -0.1)">
       <use xlink:href="#DejaVuSans-50"/>
       <use x="63.623047" xlink:href="#DejaVuSans-46"/>
       <use x="95.410156" xlink:href="#DejaVuSans-48"/>
      </g>
     </g>
    </g>
    <g id="ytick_19">
     <g id="line2d_27">
      <g>
       <use style="stroke:#000000;stroke-width:0.8;" x="368.687917" xlink:href="#m18542da7dc" y="90.429676"/>
      </g>
     </g>
     <g id="text_27">
      <!-- 2.5 -->
      <g transform="translate(345.784792 94.228895)scale(0.1 -0.1)">
       <use xlink:href="#DejaVuSans-50"/>
       <use x="63.623047" xlink:href="#DejaVuSans-46"/>
       <use x="95.410156" xlink:href="#DejaVuSans-53"/>
      </g>
     </g>
    </g>
    <g id="ytick_20">
     <g id="line2d_28">
      <g>
       <use style="stroke:#000000;stroke-width:0.8;" x="368.687917" xlink:href="#m18542da7dc" y="26.537131"/>
      </g>
     </g>
     <g id="text_28">
      <!-- 3.0 -->
      <g transform="translate(345.784792 30.33635)scale(0.1 -0.1)">
       <use xlink:href="#DejaVuSans-51"/>
       <use x="63.623047" xlink:href="#DejaVuSans-46"/>
       <use x="95.410156" xlink:href="#DejaVuSans-48"/>
      </g>
     </g>
    </g>
   </g>
   <g id="line2d_29">
    <path clip-path="url(#p5f99f215b2)" d="M 372.335571 32.109423 
L 373.095498 75.188687 
L 373.855426 106.625102 
L 374.615354 178.715262 
L 375.375282 201.916772 
L 376.135209 221.497552 
L 376.895137 235.501954 
L 377.655065 237.232835 
L 378.414993 237.571907 
L 379.17492 236.297469 
L 379.934848 234.8647 
L 380.694776 233.8694 
L 381.454704 234.258811 
L 382.214631 237.209574 
L 382.974559 242.350796 
L 383.734487 244.178501 
L 384.494415 246.281448 
L 385.254342 248.368684 
L 386.01427 250.281175 
L 386.774198 251.111231 
L 387.534126 250.025065 
L 388.294053 246.865769 
L 389.053981 246.855616 
L 389.813909 245.312459 
L 390.573837 242.684128 
L 391.333764 239.916764 
L 392.093692 236.981015 
L 392.85362 236.928884 
L 393.613548 239.862373 
L 394.373475 241.907869 
L 395.133403 245.387601 
L 395.893331 249.177362 
L 396.653259 252.895997 
L 397.413186 258.987507 
L 398.173114 263.553798 
L 398.933042 267.663847 
L 399.69297 273.225086 
L 400.452897 279.476935 
L 401.212825 288.200482 
L 401.972753 298.448221 
L 402.732681 305.426045 
L 403.492608 311.072274 
L 404.252536 311.930577 
L 405.012464 305.381867 
L 405.772392 291.435817 
L 406.532319 267.820646 
L 407.292247 240.190914 
L 408.052175 215.591002 
L 408.812103 196.239959 
L 409.57203 183.163338 
L 410.331958 176.736256 
L 411.091886 175.133818 
L 411.851814 177.886207 
L 412.611741 181.570323 
L 413.371669 185.000829 
L 414.131597 187.558404 
L 414.891525 190.830386 
L 415.651452 193.728208 
L 416.41138 195.775762 
L 417.171308 197.002191 
L 417.931236 198.546317 
L 418.691164 200.601292 
L 419.451091 203.399543 
L 420.211019 205.769038 
L 420.970947 208.829925 
L 421.730875 213.164611 
L 422.490802 218.253866 
L 423.25073 223.469652 
L 424.010658 228.999114 
L 424.770586 234.218212 
L 425.530513 239.193435 
L 426.290441 243.028136 
L 427.050369 245.049514 
L 427.810297 246.162393 
L 428.570224 246.360708 
L 429.330152 244.882088 
L 430.09008 242.451803 
L 430.850008 239.489889 
L 431.609935 236.301521 
L 432.369863 233.336399 
L 433.129791 229.167005 
L 433.889719 225.431422 
L 434.649646 222.383098 
L 435.409574 219.949694 
L 436.169502 218.151803 
L 436.92943 216.598909 
L 437.689357 215.409252 
L 438.449285 216.42842 
L 439.209213 217.569161 
L 439.969141 219.475825 
L 440.729068 222.251956 
L 441.488996 227.246118 
L 442.248924 232.700802 
L 443.008852 238.788775 
L 443.768779 252.883282 
L 444.528707 256.484813 
L 445.288635 260.442133 
" style="fill:none;stroke:#ff0000;stroke-linecap:square;stroke-width:1.5;"/>
   </g>
   <g id="patch_207">
    <path d="M 368.687917 325.921635 
L 368.687917 18.118365 
" style="fill:none;stroke:#000000;stroke-linecap:square;stroke-linejoin:miter;stroke-width:0.8;"/>
   </g>
   <g id="patch_208">
    <path d="M 448.936288 325.921635 
L 448.936288 18.118365 
" style="fill:none;stroke:#000000;stroke-linecap:square;stroke-linejoin:miter;stroke-width:0.8;"/>
   </g>
   <g id="patch_209">
    <path d="M 368.687917 325.921635 
L 448.936288 325.921635 
" style="fill:none;stroke:#000000;stroke-linecap:square;stroke-linejoin:miter;stroke-width:0.8;"/>
   </g>
   <g id="patch_210">
    <path d="M 368.687917 18.118365 
L 448.936288 18.118365 
" style="fill:none;stroke:#000000;stroke-linecap:square;stroke-linejoin:miter;stroke-width:0.8;"/>
   </g>
   <g id="text_29">
    <!-- r0 - MS - (data) -->
    <defs>
     <path d="M 41.109375 46.296875 
Q 39.59375 47.171875 37.8125 47.578125 
Q 36.03125 48 33.890625 48 
Q 26.265625 48 22.1875 43.046875 
Q 18.109375 38.09375 18.109375 28.8125 
L 18.109375 0 
L 9.078125 0 
L 9.078125 54.6875 
L 18.109375 54.6875 
L 18.109375 46.1875 
Q 20.953125 51.171875 25.484375 53.578125 
Q 30.03125 56 36.53125 56 
Q 37.453125 56 38.578125 55.875 
Q 39.703125 55.765625 41.0625 55.515625 
z
" id="DejaVuSans-114"/>
    </defs>
    <g transform="translate(363.388353 12.118365)scale(0.12 -0.12)">
     <use xlink:href="#DejaVuSans-114"/>
     <use x="41.113281" xlink:href="#DejaVuSans-48"/>
     <use x="104.736328" xlink:href="#DejaVuSans-32"/>
     <use x="136.523438" xlink:href="#DejaVuSans-45"/>
     <use x="172.607422" xlink:href="#DejaVuSans-32"/>
     <use x="204.394531" xlink:href="#DejaVuSans-77"/>
     <use x="290.673828" xlink:href="#DejaVuSans-83"/>
     <use x="354.150391" xlink:href="#DejaVuSans-32"/>
     <use x="385.9375" xlink:href="#DejaVuSans-45"/>
     <use x="422.021484" xlink:href="#DejaVuSans-32"/>
     <use x="453.808594" xlink:href="#DejaVuSans-40"/>
     <use x="492.822266" xlink:href="#DejaVuSans-100"/>
     <use x="556.298828" xlink:href="#DejaVuSans-97"/>
     <use x="617.578125" xlink:href="#DejaVuSans-116"/>
     <use x="656.787109" xlink:href="#DejaVuSans-97"/>
     <use x="718.066406" xlink:href="#DejaVuSans-41"/>
    </g>
   </g>
  </g>
 </g>
 <defs>
  <clipPath id="pb32a41e5b5">
   <rect height="307.80327" width="80.248371" x="53.312515" y="18.118365"/>
  </clipPath>
  <clipPath id="p151c7c5139">
   <rect height="307.80327" width="80.248371" x="224.704792" y="18.118365"/>
  </clipPath>
  <clipPath id="p5f99f215b2">
   <rect height="307.80327" width="80.248371" x="368.687917" y="18.118365"/>
  </clipPath>
 </defs>
</svg>
