<?xml version="1.0" encoding="utf-8" standalone="no"?>
<!DOCTYPE svg PUBLIC "-//W3C//DTD SVG 1.1//EN"
  "http://www.w3.org/Graphics/SVG/1.1/DTD/svg11.dtd">
<!-- Created with matplotlib (https://matplotlib.org/) -->
<svg height="345.6pt" version="1.1" viewBox="0 0 460.8 345.6" width="460.8pt" xmlns="http://www.w3.org/2000/svg" xmlns:xlink="http://www.w3.org/1999/xlink">
 <defs>
  <style type="text/css">
*{stroke-linecap:butt;stroke-linejoin:round;}
  </style>
 </defs>
 <g id="figure_1">
  <g id="patch_1">
   <path d="M 0 345.6 
L 460.8 345.6 
L 460.8 0 
L 0 0 
z
" style="fill:#ffffff;"/>
  </g>
  <g id="axes_1">
   <g id="patch_2">
    <path d="M 55.490865 137.71551 
L 231.45826 137.71551 
L 231.45826 18.118365 
L 55.490865 18.118365 
z
" style="fill:#ffffff;"/>
   </g>
   <g id="patch_3">
    <path clip-path="url(#p69642273ea)" d="M 63.489383 137.71551 
L 64.868438 137.71551 
L 64.868438 137.691613 
L 63.489383 137.691613 
z
" style="fill:#1f77b4;"/>
   </g>
   <g id="patch_4">
    <path clip-path="url(#p69642273ea)" d="M 65.213201 137.71551 
L 66.592256 137.71551 
L 66.592256 137.691613 
L 65.213201 137.691613 
z
" style="fill:#1f77b4;"/>
   </g>
   <g id="patch_5">
    <path clip-path="url(#p69642273ea)" d="M 66.93702 137.71551 
L 68.316075 137.71551 
L 68.316075 137.691613 
L 66.93702 137.691613 
z
" style="fill:#1f77b4;"/>
   </g>
   <g id="patch_6">
    <path clip-path="url(#p69642273ea)" d="M 68.660839 137.71551 
L 70.039893 137.71551 
L 70.039893 137.63187 
L 68.660839 137.63187 
z
" style="fill:#1f77b4;"/>
   </g>
   <g id="patch_7">
    <path clip-path="url(#p69642273ea)" d="M 70.384657 137.71551 
L 71.763712 137.71551 
L 71.763712 137.619921 
L 70.384657 137.619921 
z
" style="fill:#1f77b4;"/>
   </g>
   <g id="patch_8">
    <path clip-path="url(#p69642273ea)" d="M 72.108476 137.71551 
L 73.48753 137.71551 
L 73.48753 137.584075 
L 72.108476 137.584075 
z
" style="fill:#1f77b4;"/>
   </g>
   <g id="patch_9">
    <path clip-path="url(#p69642273ea)" d="M 73.832294 137.71551 
L 75.211349 137.71551 
L 75.211349 137.584075 
L 73.832294 137.584075 
z
" style="fill:#1f77b4;"/>
   </g>
   <g id="patch_10">
    <path clip-path="url(#p69642273ea)" d="M 75.556113 137.71551 
L 76.935167 137.71551 
L 76.935167 137.560178 
L 75.556113 137.560178 
z
" style="fill:#1f77b4;"/>
   </g>
   <g id="patch_11">
    <path clip-path="url(#p69642273ea)" d="M 77.279931 137.71551 
L 78.658986 137.71551 
L 78.658986 137.524332 
L 77.279931 137.524332 
z
" style="fill:#1f77b4;"/>
   </g>
   <g id="patch_12">
    <path clip-path="url(#p69642273ea)" d="M 79.00375 137.71551 
L 80.382804 137.71551 
L 80.382804 137.500435 
L 79.00375 137.500435 
z
" style="fill:#1f77b4;"/>
   </g>
   <g id="patch_13">
    <path clip-path="url(#p69642273ea)" d="M 80.727568 137.71551 
L 82.106623 137.71551 
L 82.106623 137.416795 
L 80.727568 137.416795 
z
" style="fill:#1f77b4;"/>
   </g>
   <g id="patch_14">
    <path clip-path="url(#p69642273ea)" d="M 82.451387 137.71551 
L 83.830442 137.71551 
L 83.830442 137.392898 
L 82.451387 137.392898 
z
" style="fill:#1f77b4;"/>
   </g>
   <g id="patch_15">
    <path clip-path="url(#p69642273ea)" d="M 84.175205 137.71551 
L 85.55426 137.71551 
L 85.55426 137.28536 
L 84.175205 137.28536 
z
" style="fill:#1f77b4;"/>
   </g>
   <g id="patch_16">
    <path clip-path="url(#p69642273ea)" d="M 85.899024 137.71551 
L 87.278079 137.71551 
L 87.278079 137.189772 
L 85.899024 137.189772 
z
" style="fill:#1f77b4;"/>
   </g>
   <g id="patch_17">
    <path clip-path="url(#p69642273ea)" d="M 87.622842 137.71551 
L 89.001897 137.71551 
L 89.001897 137.046388 
L 87.622842 137.046388 
z
" style="fill:#1f77b4;"/>
   </g>
   <g id="patch_18">
    <path clip-path="url(#p69642273ea)" d="M 89.346661 137.71551 
L 90.725716 137.71551 
L 90.725716 136.998594 
L 89.346661 136.998594 
z
" style="fill:#1f77b4;"/>
   </g>
   <g id="patch_19">
    <path clip-path="url(#p69642273ea)" d="M 91.070479 137.71551 
L 92.449534 137.71551 
L 92.449534 136.807416 
L 91.070479 136.807416 
z
" style="fill:#1f77b4;"/>
   </g>
   <g id="patch_20">
    <path clip-path="url(#p69642273ea)" d="M 92.794298 137.71551 
L 94.173353 137.71551 
L 94.173353 136.783519 
L 92.794298 136.783519 
z
" style="fill:#1f77b4;"/>
   </g>
   <g id="patch_21">
    <path clip-path="url(#p69642273ea)" d="M 94.518116 137.71551 
L 95.897171 137.71551 
L 95.897171 136.640136 
L 94.518116 136.640136 
z
" style="fill:#1f77b4;"/>
   </g>
   <g id="patch_22">
    <path clip-path="url(#p69642273ea)" d="M 96.241935 137.71551 
L 97.62099 137.71551 
L 97.62099 136.425061 
L 96.241935 136.425061 
z
" style="fill:#1f77b4;"/>
   </g>
   <g id="patch_23">
    <path clip-path="url(#p69642273ea)" d="M 97.965753 137.71551 
L 99.344808 137.71551 
L 99.344808 136.377267 
L 97.965753 136.377267 
z
" style="fill:#1f77b4;"/>
   </g>
   <g id="patch_24">
    <path clip-path="url(#p69642273ea)" d="M 99.689572 137.71551 
L 101.068627 137.71551 
L 101.068627 136.269729 
L 99.689572 136.269729 
z
" style="fill:#1f77b4;"/>
   </g>
   <g id="patch_25">
    <path clip-path="url(#p69642273ea)" d="M 101.41339 137.71551 
L 102.792445 137.71551 
L 102.792445 136.245832 
L 101.41339 136.245832 
z
" style="fill:#1f77b4;"/>
   </g>
   <g id="patch_26">
    <path clip-path="url(#p69642273ea)" d="M 103.137209 137.71551 
L 104.516264 137.71551 
L 104.516264 136.114397 
L 103.137209 136.114397 
z
" style="fill:#1f77b4;"/>
   </g>
   <g id="patch_27">
    <path clip-path="url(#p69642273ea)" d="M 104.861028 137.71551 
L 106.240082 137.71551 
L 106.240082 136.066603 
L 104.861028 136.066603 
z
" style="fill:#1f77b4;"/>
   </g>
   <g id="patch_28">
    <path clip-path="url(#p69642273ea)" d="M 106.584846 137.71551 
L 107.963901 137.71551 
L 107.963901 135.911271 
L 106.584846 135.911271 
z
" style="fill:#1f77b4;"/>
   </g>
   <g id="patch_29">
    <path clip-path="url(#p69642273ea)" d="M 108.308665 137.71551 
L 109.687719 137.71551 
L 109.687719 135.851528 
L 108.308665 135.851528 
z
" style="fill:#1f77b4;"/>
   </g>
   <g id="patch_30">
    <path clip-path="url(#p69642273ea)" d="M 110.032483 137.71551 
L 111.411538 137.71551 
L 111.411538 135.779837 
L 110.032483 135.779837 
z
" style="fill:#1f77b4;"/>
   </g>
   <g id="patch_31">
    <path clip-path="url(#p69642273ea)" d="M 111.756302 137.71551 
L 113.135356 137.71551 
L 113.135356 135.672299 
L 111.756302 135.672299 
z
" style="fill:#1f77b4;"/>
   </g>
   <g id="patch_32">
    <path clip-path="url(#p69642273ea)" d="M 113.48012 137.71551 
L 114.859175 137.71551 
L 114.859175 135.636453 
L 113.48012 135.636453 
z
" style="fill:#1f77b4;"/>
   </g>
   <g id="patch_33">
    <path clip-path="url(#p69642273ea)" d="M 115.203939 137.71551 
L 116.582994 137.71551 
L 116.582994 135.552813 
L 115.203939 135.552813 
z
" style="fill:#1f77b4;"/>
   </g>
   <g id="patch_34">
    <path clip-path="url(#p69642273ea)" d="M 116.927757 137.71551 
L 118.306812 137.71551 
L 118.306812 135.552813 
L 116.927757 135.552813 
z
" style="fill:#1f77b4;"/>
   </g>
   <g id="patch_35">
    <path clip-path="url(#p69642273ea)" d="M 118.651576 137.71551 
L 120.030631 137.71551 
L 120.030631 135.528916 
L 118.651576 135.528916 
z
" style="fill:#1f77b4;"/>
   </g>
   <g id="patch_36">
    <path clip-path="url(#p69642273ea)" d="M 120.375394 137.71551 
L 121.754449 137.71551 
L 121.754449 135.074869 
L 120.375394 135.074869 
z
" style="fill:#1f77b4;"/>
   </g>
   <g id="patch_37">
    <path clip-path="url(#p69642273ea)" d="M 122.099213 137.71551 
L 123.478268 137.71551 
L 123.478268 134.847846 
L 122.099213 134.847846 
z
" style="fill:#1f77b4;"/>
   </g>
   <g id="patch_38">
    <path clip-path="url(#p69642273ea)" d="M 123.823031 137.71551 
L 125.202086 137.71551 
L 125.202086 134.764205 
L 123.823031 134.764205 
z
" style="fill:#1f77b4;"/>
   </g>
   <g id="patch_39">
    <path clip-path="url(#p69642273ea)" d="M 125.54685 137.71551 
L 126.925905 137.71551 
L 126.925905 134.72836 
L 125.54685 134.72836 
z
" style="fill:#1f77b4;"/>
   </g>
   <g id="patch_40">
    <path clip-path="url(#p69642273ea)" d="M 127.270668 137.71551 
L 128.649723 137.71551 
L 128.649723 134.644719 
L 127.270668 134.644719 
z
" style="fill:#1f77b4;"/>
   </g>
   <g id="patch_41">
    <path clip-path="url(#p69642273ea)" d="M 128.994487 137.71551 
L 130.373542 137.71551 
L 130.373542 134.596925 
L 128.994487 134.596925 
z
" style="fill:#1f77b4;"/>
   </g>
   <g id="patch_42">
    <path clip-path="url(#p69642273ea)" d="M 130.718305 137.71551 
L 132.09736 137.71551 
L 132.09736 134.226518 
L 130.718305 134.226518 
z
" style="fill:#1f77b4;"/>
   </g>
   <g id="patch_43">
    <path clip-path="url(#p69642273ea)" d="M 132.442124 137.71551 
L 133.821179 137.71551 
L 133.821179 134.166775 
L 132.442124 134.166775 
z
" style="fill:#1f77b4;"/>
   </g>
   <g id="patch_44">
    <path clip-path="url(#p69642273ea)" d="M 134.165942 137.71551 
L 135.544997 137.71551 
L 135.544997 133.891957 
L 134.165942 133.891957 
z
" style="fill:#1f77b4;"/>
   </g>
   <g id="patch_45">
    <path clip-path="url(#p69642273ea)" d="M 135.889761 137.71551 
L 137.268816 137.71551 
L 137.268816 133.760523 
L 135.889761 133.760523 
z
" style="fill:#1f77b4;"/>
   </g>
   <g id="patch_46">
    <path clip-path="url(#p69642273ea)" d="M 137.61358 137.71551 
L 138.992634 137.71551 
L 138.992634 133.688831 
L 137.61358 133.688831 
z
" style="fill:#1f77b4;"/>
   </g>
   <g id="patch_47">
    <path clip-path="url(#p69642273ea)" d="M 139.337398 137.71551 
L 140.716453 137.71551 
L 140.716453 133.605191 
L 139.337398 133.605191 
z
" style="fill:#1f77b4;"/>
   </g>
   <g id="patch_48">
    <path clip-path="url(#p69642273ea)" d="M 141.061217 137.71551 
L 142.440271 137.71551 
L 142.440271 133.35427 
L 141.061217 133.35427 
z
" style="fill:#1f77b4;"/>
   </g>
   <g id="patch_49">
    <path clip-path="url(#p69642273ea)" d="M 142.785035 137.71551 
L 144.16409 137.71551 
L 144.16409 133.18699 
L 142.785035 133.18699 
z
" style="fill:#1f77b4;"/>
   </g>
   <g id="patch_50">
    <path clip-path="url(#p69642273ea)" d="M 144.508854 137.71551 
L 145.887908 137.71551 
L 145.887908 132.732943 
L 144.508854 132.732943 
z
" style="fill:#1f77b4;"/>
   </g>
   <g id="patch_51">
    <path clip-path="url(#p69642273ea)" d="M 146.232672 137.71551 
L 147.611727 137.71551 
L 147.611727 132.254999 
L 146.232672 132.254999 
z
" style="fill:#1f77b4;"/>
   </g>
   <g id="patch_52">
    <path clip-path="url(#p69642273ea)" d="M 147.956491 137.71551 
L 149.335545 137.71551 
L 149.335545 131.717312 
L 147.956491 131.717312 
z
" style="fill:#1f77b4;"/>
   </g>
   <g id="patch_53">
    <path clip-path="url(#p69642273ea)" d="M 149.680309 137.71551 
L 151.059364 137.71551 
L 151.059364 131.514186 
L 149.680309 131.514186 
z
" style="fill:#1f77b4;"/>
   </g>
   <g id="patch_54">
    <path clip-path="url(#p69642273ea)" d="M 151.404128 137.71551 
L 152.783183 137.71551 
L 152.783183 131.251317 
L 151.404128 131.251317 
z
" style="fill:#1f77b4;"/>
   </g>
   <g id="patch_55">
    <path clip-path="url(#p69642273ea)" d="M 153.127946 137.71551 
L 154.507001 137.71551 
L 154.507001 130.653886 
L 153.127946 130.653886 
z
" style="fill:#1f77b4;"/>
   </g>
   <g id="patch_56">
    <path clip-path="url(#p69642273ea)" d="M 154.851765 137.71551 
L 156.23082 137.71551 
L 156.23082 129.817484 
L 154.851765 129.817484 
z
" style="fill:#1f77b4;"/>
   </g>
   <g id="patch_57">
    <path clip-path="url(#p69642273ea)" d="M 156.575583 137.71551 
L 157.954638 137.71551 
L 157.954638 129.124465 
L 156.575583 129.124465 
z
" style="fill:#1f77b4;"/>
   </g>
   <g id="patch_58">
    <path clip-path="url(#p69642273ea)" d="M 158.299402 137.71551 
L 159.678457 137.71551 
L 159.678457 128.407549 
L 158.299402 128.407549 
z
" style="fill:#1f77b4;"/>
   </g>
   <g id="patch_59">
    <path clip-path="url(#p69642273ea)" d="M 160.02322 137.71551 
L 161.402275 137.71551 
L 161.402275 127.54725 
L 160.02322 127.54725 
z
" style="fill:#1f77b4;"/>
   </g>
   <g id="patch_60">
    <path clip-path="url(#p69642273ea)" d="M 161.747039 137.71551 
L 163.126094 137.71551 
L 163.126094 126.94982 
L 161.747039 126.94982 
z
" style="fill:#1f77b4;"/>
   </g>
   <g id="patch_61">
    <path clip-path="url(#p69642273ea)" d="M 163.470857 137.71551 
L 164.849912 137.71551 
L 164.849912 126.51967 
L 163.470857 126.51967 
z
" style="fill:#1f77b4;"/>
   </g>
   <g id="patch_62">
    <path clip-path="url(#p69642273ea)" d="M 165.194676 137.71551 
L 166.573731 137.71551 
L 166.573731 125.826651 
L 165.194676 125.826651 
z
" style="fill:#1f77b4;"/>
   </g>
   <g id="patch_63">
    <path clip-path="url(#p69642273ea)" d="M 166.918494 137.71551 
L 168.297549 137.71551 
L 168.297549 125.121684 
L 166.918494 125.121684 
z
" style="fill:#1f77b4;"/>
   </g>
   <g id="patch_64">
    <path clip-path="url(#p69642273ea)" d="M 168.642313 137.71551 
L 170.021368 137.71551 
L 170.021368 123.711749 
L 168.642313 123.711749 
z
" style="fill:#1f77b4;"/>
   </g>
   <g id="patch_65">
    <path clip-path="url(#p69642273ea)" d="M 170.366131 137.71551 
L 171.745186 137.71551 
L 171.745186 123.138216 
L 170.366131 123.138216 
z
" style="fill:#1f77b4;"/>
   </g>
   <g id="patch_66">
    <path clip-path="url(#p69642273ea)" d="M 172.08995 137.71551 
L 173.469005 137.71551 
L 173.469005 121.561001 
L 172.08995 121.561001 
z
" style="fill:#1f77b4;"/>
   </g>
   <g id="patch_67">
    <path clip-path="url(#p69642273ea)" d="M 173.813769 137.71551 
L 175.192823 137.71551 
L 175.192823 120.246654 
L 173.813769 120.246654 
z
" style="fill:#1f77b4;"/>
   </g>
   <g id="patch_68">
    <path clip-path="url(#p69642273ea)" d="M 175.537587 137.71551 
L 176.916642 137.71551 
L 176.916642 119.792608 
L 175.537587 119.792608 
z
" style="fill:#1f77b4;"/>
   </g>
   <g id="patch_69">
    <path clip-path="url(#p69642273ea)" d="M 177.261406 137.71551 
L 178.64046 137.71551 
L 178.64046 118.263187 
L 177.261406 118.263187 
z
" style="fill:#1f77b4;"/>
   </g>
   <g id="patch_70">
    <path clip-path="url(#p69642273ea)" d="M 178.985224 137.71551 
L 180.364279 137.71551 
L 180.364279 115.742032 
L 178.985224 115.742032 
z
" style="fill:#1f77b4;"/>
   </g>
   <g id="patch_71">
    <path clip-path="url(#p69642273ea)" d="M 180.709043 137.71551 
L 182.088097 137.71551 
L 182.088097 114.403788 
L 180.709043 114.403788 
z
" style="fill:#1f77b4;"/>
   </g>
   <g id="patch_72">
    <path clip-path="url(#p69642273ea)" d="M 182.432861 137.71551 
L 183.811916 137.71551 
L 183.811916 112.587601 
L 182.432861 112.587601 
z
" style="fill:#1f77b4;"/>
   </g>
   <g id="patch_73">
    <path clip-path="url(#p69642273ea)" d="M 184.15668 137.71551 
L 185.535735 137.71551 
L 185.535735 109.504862 
L 184.15668 109.504862 
z
" style="fill:#1f77b4;"/>
   </g>
   <g id="patch_74">
    <path clip-path="url(#p69642273ea)" d="M 185.880498 137.71551 
L 187.259553 137.71551 
L 187.259553 108.692357 
L 185.880498 108.692357 
z
" style="fill:#1f77b4;"/>
   </g>
   <g id="patch_75">
    <path clip-path="url(#p69642273ea)" d="M 187.604317 137.71551 
L 188.983372 137.71551 
L 188.983372 107.354113 
L 187.604317 107.354113 
z
" style="fill:#1f77b4;"/>
   </g>
   <g id="patch_76">
    <path clip-path="url(#p69642273ea)" d="M 189.328135 137.71551 
L 190.70719 137.71551 
L 190.70719 105.346748 
L 189.328135 105.346748 
z
" style="fill:#1f77b4;"/>
   </g>
   <g id="patch_77">
    <path clip-path="url(#p69642273ea)" d="M 191.051954 137.71551 
L 192.431009 137.71551 
L 192.431009 103.685893 
L 191.051954 103.685893 
z
" style="fill:#1f77b4;"/>
   </g>
   <g id="patch_78">
    <path clip-path="url(#p69642273ea)" d="M 192.775772 137.71551 
L 194.154827 137.71551 
L 194.154827 99.551676 
L 192.775772 99.551676 
z
" style="fill:#1f77b4;"/>
   </g>
   <g id="patch_79">
    <path clip-path="url(#p69642273ea)" d="M 194.499591 137.71551 
L 195.878646 137.71551 
L 195.878646 96.122428 
L 194.499591 96.122428 
z
" style="fill:#1f77b4;"/>
   </g>
   <g id="patch_80">
    <path clip-path="url(#p69642273ea)" d="M 196.223409 137.71551 
L 197.602464 137.71551 
L 197.602464 93.959731 
L 196.223409 93.959731 
z
" style="fill:#1f77b4;"/>
   </g>
   <g id="patch_81">
    <path clip-path="url(#p69642273ea)" d="M 197.947228 137.71551 
L 199.326283 137.71551 
L 199.326283 91.378833 
L 197.947228 91.378833 
z
" style="fill:#1f77b4;"/>
   </g>
   <g id="patch_82">
    <path clip-path="url(#p69642273ea)" d="M 199.671046 137.71551 
L 201.050101 137.71551 
L 201.050101 88.726243 
L 199.671046 88.726243 
z
" style="fill:#1f77b4;"/>
   </g>
   <g id="patch_83">
    <path clip-path="url(#p69642273ea)" d="M 201.394865 137.71551 
L 202.77392 137.71551 
L 202.77392 85.870528 
L 201.394865 85.870528 
z
" style="fill:#1f77b4;"/>
   </g>
   <g id="patch_84">
    <path clip-path="url(#p69642273ea)" d="M 203.118683 137.71551 
L 204.497738 137.71551 
L 204.497738 82.728045 
L 203.118683 82.728045 
z
" style="fill:#1f77b4;"/>
   </g>
   <g id="patch_85">
    <path clip-path="url(#p69642273ea)" d="M 204.842502 137.71551 
L 206.221557 137.71551 
L 206.221557 76.873231 
L 204.842502 76.873231 
z
" style="fill:#1f77b4;"/>
   </g>
   <g id="patch_86">
    <path clip-path="url(#p69642273ea)" d="M 206.566321 137.71551 
L 207.945375 137.71551 
L 207.945375 73.63516 
L 206.566321 73.63516 
z
" style="fill:#1f77b4;"/>
   </g>
   <g id="patch_87">
    <path clip-path="url(#p69642273ea)" d="M 208.290139 137.71551 
L 209.669194 137.71551 
L 209.669194 71.711435 
L 208.290139 71.711435 
z
" style="fill:#1f77b4;"/>
   </g>
   <g id="patch_88">
    <path clip-path="url(#p69642273ea)" d="M 210.013958 137.71551 
L 211.393012 137.71551 
L 211.393012 67.684756 
L 210.013958 67.684756 
z
" style="fill:#1f77b4;"/>
   </g>
   <g id="patch_89">
    <path clip-path="url(#p69642273ea)" d="M 211.737776 137.71551 
L 213.116831 137.71551 
L 213.116831 63.813409 
L 211.737776 63.813409 
z
" style="fill:#1f77b4;"/>
   </g>
   <g id="patch_90">
    <path clip-path="url(#p69642273ea)" d="M 213.461595 137.71551 
L 214.840649 137.71551 
L 214.840649 61.387843 
L 213.461595 61.387843 
z
" style="fill:#1f77b4;"/>
   </g>
   <g id="patch_91">
    <path clip-path="url(#p69642273ea)" d="M 215.185413 137.71551 
L 216.564468 137.71551 
L 216.564468 52.593672 
L 215.185413 52.593672 
z
" style="fill:#1f77b4;"/>
   </g>
   <g id="patch_92">
    <path clip-path="url(#p69642273ea)" d="M 216.909232 137.71551 
L 218.288286 137.71551 
L 218.288286 47.957615 
L 216.909232 47.957615 
z
" style="fill:#1f77b4;"/>
   </g>
   <g id="patch_93">
    <path clip-path="url(#p69642273ea)" d="M 218.63305 137.71551 
L 220.012105 137.71551 
L 220.012105 37.908841 
L 218.63305 37.908841 
z
" style="fill:#1f77b4;"/>
   </g>
   <g id="patch_94">
    <path clip-path="url(#p69642273ea)" d="M 220.356869 137.71551 
L 221.735924 137.71551 
L 221.735924 30.632142 
L 220.356869 30.632142 
z
" style="fill:#1f77b4;"/>
   </g>
   <g id="patch_95">
    <path clip-path="url(#p69642273ea)" d="M 222.080687 137.71551 
L 223.459742 137.71551 
L 223.459742 24.562253 
L 222.080687 24.562253 
z
" style="fill:#1f77b4;"/>
   </g>
   <g id="matplotlib.axis_1">
    <g id="xtick_1">
     <g id="line2d_1">
      <defs>
       <path d="M 0 0 
L 0 3.5 
" id="mdc5ae46f15" style="stroke:#000000;stroke-width:0.8;"/>
      </defs>
      <g>
       <use style="stroke:#000000;stroke-width:0.8;" x="64.17891" xlink:href="#mdc5ae46f15" y="137.71551"/>
      </g>
     </g>
     <g id="text_1">
      <!-- 0 -->
      <defs>
       <path d="M 31.78125 66.40625 
Q 24.171875 66.40625 20.328125 58.90625 
Q 16.5 51.421875 16.5 36.375 
Q 16.5 21.390625 20.328125 13.890625 
Q 24.171875 6.390625 31.78125 6.390625 
Q 39.453125 6.390625 43.28125 13.890625 
Q 47.125 21.390625 47.125 36.375 
Q 47.125 51.421875 43.28125 58.90625 
Q 39.453125 66.40625 31.78125 66.40625 
z
M 31.78125 74.21875 
Q 44.046875 74.21875 50.515625 64.515625 
Q 56.984375 54.828125 56.984375 36.375 
Q 56.984375 17.96875 50.515625 8.265625 
Q 44.046875 -1.421875 31.78125 -1.421875 
Q 19.53125 -1.421875 13.0625 8.265625 
Q 6.59375 17.96875 6.59375 36.375 
Q 6.59375 54.828125 13.0625 64.515625 
Q 19.53125 74.21875 31.78125 74.21875 
z
" id="DejaVuSans-48"/>
      </defs>
      <g transform="translate(60.99766 152.313947)scale(0.1 -0.1)">
       <use xlink:href="#DejaVuSans-48"/>
      </g>
     </g>
    </g>
    <g id="xtick_2">
     <g id="line2d_2">
      <g>
       <use style="stroke:#000000;stroke-width:0.8;" x="107.274373" xlink:href="#mdc5ae46f15" y="137.71551"/>
      </g>
     </g>
     <g id="text_2">
      <!-- 25 -->
      <defs>
       <path d="M 19.1875 8.296875 
L 53.609375 8.296875 
L 53.609375 0 
L 7.328125 0 
L 7.328125 8.296875 
Q 12.9375 14.109375 22.625 23.890625 
Q 32.328125 33.6875 34.8125 36.53125 
Q 39.546875 41.84375 41.421875 45.53125 
Q 43.3125 49.21875 43.3125 52.78125 
Q 43.3125 58.59375 39.234375 62.25 
Q 35.15625 65.921875 28.609375 65.921875 
Q 23.96875 65.921875 18.8125 64.3125 
Q 13.671875 62.703125 7.8125 59.421875 
L 7.8125 69.390625 
Q 13.765625 71.78125 18.9375 73 
Q 24.125 74.21875 28.421875 74.21875 
Q 39.75 74.21875 46.484375 68.546875 
Q 53.21875 62.890625 53.21875 53.421875 
Q 53.21875 48.921875 51.53125 44.890625 
Q 49.859375 40.875 45.40625 35.40625 
Q 44.1875 33.984375 37.640625 27.21875 
Q 31.109375 20.453125 19.1875 8.296875 
z
" id="DejaVuSans-50"/>
       <path d="M 10.796875 72.90625 
L 49.515625 72.90625 
L 49.515625 64.59375 
L 19.828125 64.59375 
L 19.828125 46.734375 
Q 21.96875 47.46875 24.109375 47.828125 
Q 26.265625 48.1875 28.421875 48.1875 
Q 40.625 48.1875 47.75 41.5 
Q 54.890625 34.8125 54.890625 23.390625 
Q 54.890625 11.625 47.5625 5.09375 
Q 40.234375 -1.421875 26.90625 -1.421875 
Q 22.3125 -1.421875 17.546875 -0.640625 
Q 12.796875 0.140625 7.71875 1.703125 
L 7.71875 11.625 
Q 12.109375 9.234375 16.796875 8.0625 
Q 21.484375 6.890625 26.703125 6.890625 
Q 35.15625 6.890625 40.078125 11.328125 
Q 45.015625 15.765625 45.015625 23.390625 
Q 45.015625 31 40.078125 35.4375 
Q 35.15625 39.890625 26.703125 39.890625 
Q 22.75 39.890625 18.8125 39.015625 
Q 14.890625 38.140625 10.796875 36.28125 
z
" id="DejaVuSans-53"/>
      </defs>
      <g transform="translate(100.911873 152.313947)scale(0.1 -0.1)">
       <use xlink:href="#DejaVuSans-50"/>
       <use x="63.623047" xlink:href="#DejaVuSans-53"/>
      </g>
     </g>
    </g>
    <g id="xtick_3">
     <g id="line2d_3">
      <g>
       <use style="stroke:#000000;stroke-width:0.8;" x="150.369837" xlink:href="#mdc5ae46f15" y="137.71551"/>
      </g>
     </g>
     <g id="text_3">
      <!-- 50 -->
      <g transform="translate(144.007337 152.313947)scale(0.1 -0.1)">
       <use xlink:href="#DejaVuSans-53"/>
       <use x="63.623047" xlink:href="#DejaVuSans-48"/>
      </g>
     </g>
    </g>
    <g id="xtick_4">
     <g id="line2d_4">
      <g>
       <use style="stroke:#000000;stroke-width:0.8;" x="193.4653" xlink:href="#mdc5ae46f15" y="137.71551"/>
      </g>
     </g>
     <g id="text_4">
      <!-- 75 -->
      <defs>
       <path d="M 8.203125 72.90625 
L 55.078125 72.90625 
L 55.078125 68.703125 
L 28.609375 0 
L 18.3125 0 
L 43.21875 64.59375 
L 8.203125 64.59375 
z
" id="DejaVuSans-55"/>
      </defs>
      <g transform="translate(187.1028 152.313947)scale(0.1 -0.1)">
       <use xlink:href="#DejaVuSans-55"/>
       <use x="63.623047" xlink:href="#DejaVuSans-53"/>
      </g>
     </g>
    </g>
    <g id="text_5">
     <!-- Dias -->
     <defs>
      <path d="M 19.671875 64.796875 
L 19.671875 8.109375 
L 31.59375 8.109375 
Q 46.6875 8.109375 53.6875 14.9375 
Q 60.6875 21.78125 60.6875 36.53125 
Q 60.6875 51.171875 53.6875 57.984375 
Q 46.6875 64.796875 31.59375 64.796875 
z
M 9.8125 72.90625 
L 30.078125 72.90625 
Q 51.265625 72.90625 61.171875 64.09375 
Q 71.09375 55.28125 71.09375 36.53125 
Q 71.09375 17.671875 61.125 8.828125 
Q 51.171875 0 30.078125 0 
L 9.8125 0 
z
" id="DejaVuSans-68"/>
      <path d="M 9.421875 54.6875 
L 18.40625 54.6875 
L 18.40625 0 
L 9.421875 0 
z
M 9.421875 75.984375 
L 18.40625 75.984375 
L 18.40625 64.59375 
L 9.421875 64.59375 
z
" id="DejaVuSans-105"/>
      <path d="M 34.28125 27.484375 
Q 23.390625 27.484375 19.1875 25 
Q 14.984375 22.515625 14.984375 16.5 
Q 14.984375 11.71875 18.140625 8.90625 
Q 21.296875 6.109375 26.703125 6.109375 
Q 34.1875 6.109375 38.703125 11.40625 
Q 43.21875 16.703125 43.21875 25.484375 
L 43.21875 27.484375 
z
M 52.203125 31.203125 
L 52.203125 0 
L 43.21875 0 
L 43.21875 8.296875 
Q 40.140625 3.328125 35.546875 0.953125 
Q 30.953125 -1.421875 24.3125 -1.421875 
Q 15.921875 -1.421875 10.953125 3.296875 
Q 6 8.015625 6 15.921875 
Q 6 25.140625 12.171875 29.828125 
Q 18.359375 34.515625 30.609375 34.515625 
L 43.21875 34.515625 
L 43.21875 35.40625 
Q 43.21875 41.609375 39.140625 45 
Q 35.0625 48.390625 27.6875 48.390625 
Q 23 48.390625 18.546875 47.265625 
Q 14.109375 46.140625 10.015625 43.890625 
L 10.015625 52.203125 
Q 14.9375 54.109375 19.578125 55.046875 
Q 24.21875 56 28.609375 56 
Q 40.484375 56 46.34375 49.84375 
Q 52.203125 43.703125 52.203125 31.203125 
z
" id="DejaVuSans-97"/>
      <path d="M 44.28125 53.078125 
L 44.28125 44.578125 
Q 40.484375 46.53125 36.375 47.5 
Q 32.28125 48.484375 27.875 48.484375 
Q 21.1875 48.484375 17.84375 46.4375 
Q 14.5 44.390625 14.5 40.28125 
Q 14.5 37.15625 16.890625 35.375 
Q 19.28125 33.59375 26.515625 31.984375 
L 29.59375 31.296875 
Q 39.15625 29.25 43.1875 25.515625 
Q 47.21875 21.78125 47.21875 15.09375 
Q 47.21875 7.46875 41.1875 3.015625 
Q 35.15625 -1.421875 24.609375 -1.421875 
Q 20.21875 -1.421875 15.453125 -0.5625 
Q 10.6875 0.296875 5.421875 2 
L 5.421875 11.28125 
Q 10.40625 8.6875 15.234375 7.390625 
Q 20.0625 6.109375 24.8125 6.109375 
Q 31.15625 6.109375 34.5625 8.28125 
Q 37.984375 10.453125 37.984375 14.40625 
Q 37.984375 18.0625 35.515625 20.015625 
Q 33.0625 21.96875 24.703125 23.78125 
L 21.578125 24.515625 
Q 13.234375 26.265625 9.515625 29.90625 
Q 5.8125 33.546875 5.8125 39.890625 
Q 5.8125 47.609375 11.28125 51.796875 
Q 16.75 56 26.8125 56 
Q 31.78125 56 36.171875 55.265625 
Q 40.578125 54.546875 44.28125 53.078125 
z
" id="DejaVuSans-115"/>
     </defs>
     <g transform="translate(132.56675 165.992072)scale(0.1 -0.1)">
      <use xlink:href="#DejaVuSans-68"/>
      <use x="77.001953" xlink:href="#DejaVuSans-105"/>
      <use x="104.785156" xlink:href="#DejaVuSans-97"/>
      <use x="166.064453" xlink:href="#DejaVuSans-115"/>
     </g>
    </g>
   </g>
   <g id="matplotlib.axis_2">
    <g id="ytick_1">
     <g id="line2d_5">
      <defs>
       <path d="M 0 0 
L -3.5 0 
" id="m36b142c07a" style="stroke:#000000;stroke-width:0.8;"/>
      </defs>
      <g>
       <use style="stroke:#000000;stroke-width:0.8;" x="55.490865" xlink:href="#m36b142c07a" y="137.71551"/>
      </g>
     </g>
     <g id="text_6">
      <!-- 0 -->
      <g transform="translate(42.128365 141.514729)scale(0.1 -0.1)">
       <use xlink:href="#DejaVuSans-48"/>
      </g>
     </g>
    </g>
    <g id="ytick_2">
     <g id="line2d_6">
      <g>
       <use style="stroke:#000000;stroke-width:0.8;" x="55.490865" xlink:href="#m36b142c07a" y="107.844006"/>
      </g>
     </g>
     <g id="text_7">
      <!-- 2500 -->
      <g transform="translate(23.040865 111.643225)scale(0.1 -0.1)">
       <use xlink:href="#DejaVuSans-50"/>
       <use x="63.623047" xlink:href="#DejaVuSans-53"/>
       <use x="127.246094" xlink:href="#DejaVuSans-48"/>
       <use x="190.869141" xlink:href="#DejaVuSans-48"/>
      </g>
     </g>
    </g>
    <g id="ytick_3">
     <g id="line2d_7">
      <g>
       <use style="stroke:#000000;stroke-width:0.8;" x="55.490865" xlink:href="#m36b142c07a" y="77.972502"/>
      </g>
     </g>
     <g id="text_8">
      <!-- 5000 -->
      <g transform="translate(23.040865 81.771721)scale(0.1 -0.1)">
       <use xlink:href="#DejaVuSans-53"/>
       <use x="63.623047" xlink:href="#DejaVuSans-48"/>
       <use x="127.246094" xlink:href="#DejaVuSans-48"/>
       <use x="190.869141" xlink:href="#DejaVuSans-48"/>
      </g>
     </g>
    </g>
    <g id="ytick_4">
     <g id="line2d_8">
      <g>
       <use style="stroke:#000000;stroke-width:0.8;" x="55.490865" xlink:href="#m36b142c07a" y="48.100998"/>
      </g>
     </g>
     <g id="text_9">
      <!-- 7500 -->
      <g transform="translate(23.040865 51.900217)scale(0.1 -0.1)">
       <use xlink:href="#DejaVuSans-55"/>
       <use x="63.623047" xlink:href="#DejaVuSans-53"/>
       <use x="127.246094" xlink:href="#DejaVuSans-48"/>
       <use x="190.869141" xlink:href="#DejaVuSans-48"/>
      </g>
     </g>
    </g>
    <g id="ytick_5">
     <g id="line2d_9">
      <g>
       <use style="stroke:#000000;stroke-width:0.8;" x="55.490865" xlink:href="#m36b142c07a" y="18.229494"/>
      </g>
     </g>
     <g id="text_10">
      <!-- 10000 -->
      <defs>
       <path d="M 12.40625 8.296875 
L 28.515625 8.296875 
L 28.515625 63.921875 
L 10.984375 60.40625 
L 10.984375 69.390625 
L 28.421875 72.90625 
L 38.28125 72.90625 
L 38.28125 8.296875 
L 54.390625 8.296875 
L 54.390625 0 
L 12.40625 0 
z
" id="DejaVuSans-49"/>
      </defs>
      <g transform="translate(16.678365 22.028713)scale(0.1 -0.1)">
       <use xlink:href="#DejaVuSans-49"/>
       <use x="63.623047" xlink:href="#DejaVuSans-48"/>
       <use x="127.246094" xlink:href="#DejaVuSans-48"/>
       <use x="190.869141" xlink:href="#DejaVuSans-48"/>
       <use x="254.492188" xlink:href="#DejaVuSans-48"/>
      </g>
     </g>
    </g>
    <g id="text_11">
     <!-- Casos -->
     <defs>
      <path d="M 64.40625 67.28125 
L 64.40625 56.890625 
Q 59.421875 61.53125 53.78125 63.8125 
Q 48.140625 66.109375 41.796875 66.109375 
Q 29.296875 66.109375 22.65625 58.46875 
Q 16.015625 50.828125 16.015625 36.375 
Q 16.015625 21.96875 22.65625 14.328125 
Q 29.296875 6.6875 41.796875 6.6875 
Q 48.140625 6.6875 53.78125 8.984375 
Q 59.421875 11.28125 64.40625 15.921875 
L 64.40625 5.609375 
Q 59.234375 2.09375 53.4375 0.328125 
Q 47.65625 -1.421875 41.21875 -1.421875 
Q 24.65625 -1.421875 15.125 8.703125 
Q 5.609375 18.84375 5.609375 36.375 
Q 5.609375 53.953125 15.125 64.078125 
Q 24.65625 74.21875 41.21875 74.21875 
Q 47.75 74.21875 53.53125 72.484375 
Q 59.328125 70.75 64.40625 67.28125 
z
" id="DejaVuSans-67"/>
      <path d="M 30.609375 48.390625 
Q 23.390625 48.390625 19.1875 42.75 
Q 14.984375 37.109375 14.984375 27.296875 
Q 14.984375 17.484375 19.15625 11.84375 
Q 23.34375 6.203125 30.609375 6.203125 
Q 37.796875 6.203125 41.984375 11.859375 
Q 46.1875 17.53125 46.1875 27.296875 
Q 46.1875 37.015625 41.984375 42.703125 
Q 37.796875 48.390625 30.609375 48.390625 
z
M 30.609375 56 
Q 42.328125 56 49.015625 48.375 
Q 55.71875 40.765625 55.71875 27.296875 
Q 55.71875 13.875 49.015625 6.21875 
Q 42.328125 -1.421875 30.609375 -1.421875 
Q 18.84375 -1.421875 12.171875 6.21875 
Q 5.515625 13.875 5.515625 27.296875 
Q 5.515625 40.765625 12.171875 48.375 
Q 18.84375 56 30.609375 56 
z
" id="DejaVuSans-111"/>
     </defs>
     <g transform="translate(10.598678 92.741156)rotate(-90)scale(0.1 -0.1)">
      <use xlink:href="#DejaVuSans-67"/>
      <use x="69.824219" xlink:href="#DejaVuSans-97"/>
      <use x="131.103516" xlink:href="#DejaVuSans-115"/>
      <use x="183.203125" xlink:href="#DejaVuSans-111"/>
      <use x="244.384766" xlink:href="#DejaVuSans-115"/>
     </g>
    </g>
   </g>
   <g id="line2d_10">
    <path clip-path="url(#p69642273ea)" d="M 64.17891 137.671219 
L 65.902729 137.659425 
L 67.626547 137.643928 
L 69.350366 137.624942 
L 71.074184 137.602041 
L 72.798003 137.574729 
L 74.521822 137.542407 
L 76.24564 137.504237 
L 77.969459 137.459389 
L 79.693277 137.407185 
L 81.417096 137.347084 
L 83.140914 137.278891 
L 84.864733 137.202671 
L 86.588551 137.118881 
L 88.31237 137.028498 
L 90.036188 136.932819 
L 91.760007 136.833279 
L 93.483825 136.73141 
L 95.207644 136.62859 
L 96.931462 136.526179 
L 98.655281 136.425439 
L 100.379099 136.327079 
L 102.102918 136.231311 
L 103.826736 136.137961 
L 105.550555 136.046518 
L 107.274373 135.956214 
L 108.998192 135.865895 
L 110.722011 135.773745 
L 112.445829 135.678181 
L 114.169648 135.577979 
L 115.893466 135.472209 
L 117.617285 135.360192 
L 119.341103 135.241542 
L 121.064922 135.116204 
L 122.78874 134.985143 
L 124.512559 134.84913 
L 126.236377 134.708533 
L 127.960196 134.563239 
L 129.684014 134.412645 
L 131.407833 134.255566 
L 133.131651 134.090266 
L 134.85547 133.913436 
L 136.579288 133.721243 
L 138.303107 133.509493 
L 140.026925 133.27393 
L 141.750744 133.010194 
L 143.474562 132.713978 
L 145.198381 132.381178 
L 146.9222 132.009194 
L 148.646018 131.596263 
L 150.369837 131.141589 
L 152.093655 130.644959 
L 153.817474 130.106784 
L 155.541292 129.52808 
L 157.265111 128.909888 
L 158.988929 128.251431 
L 160.712748 127.550908 
L 162.436566 126.80458 
L 164.160385 126.006811 
L 165.884203 125.150727 
L 167.608022 124.227748 
L 169.33184 123.22846 
L 171.055659 122.145681 
L 172.779477 120.972414 
L 174.503296 119.703006 
L 176.227114 118.334649 
L 177.950933 116.86529 
L 179.674752 115.29422 
L 181.39857 113.621322 
L 183.122389 111.843045 
L 184.846207 109.955579 
L 186.570026 107.955331 
L 188.293844 105.836293 
L 190.017663 103.592578 
L 191.741481 101.218459 
L 193.4653 98.709357 
L 195.189118 96.063173 
L 196.912937 93.279417 
L 198.636755 90.354642 
L 200.360574 87.281687 
L 202.084392 84.048214 
L 203.808211 80.634388 
L 205.532029 77.009453 
L 207.255848 73.137723 
L 208.979666 68.976957 
L 210.703485 64.485761 
L 212.427303 59.631324 
L 214.151122 54.406346 
L 215.874941 48.81355 
L 217.598759 42.873975 
L 219.322578 36.70978 
L 221.046396 30.344898 
L 222.770215 23.813467 
" style="fill:none;stroke:#ff0000;stroke-linecap:square;stroke-width:1.5;"/>
   </g>
   <g id="patch_96">
    <path d="M 55.490865 137.71551 
L 55.490865 18.118365 
" style="fill:none;stroke:#000000;stroke-linecap:square;stroke-linejoin:miter;stroke-width:0.8;"/>
   </g>
   <g id="patch_97">
    <path d="M 231.45826 137.71551 
L 231.45826 18.118365 
" style="fill:none;stroke:#000000;stroke-linecap:square;stroke-linejoin:miter;stroke-width:0.8;"/>
   </g>
   <g id="patch_98">
    <path d="M 55.490865 137.71551 
L 231.45826 137.71551 
" style="fill:none;stroke:#000000;stroke-linecap:square;stroke-linejoin:miter;stroke-width:0.8;"/>
   </g>
   <g id="patch_99">
    <path d="M 55.490865 18.118365 
L 231.45826 18.118365 
" style="fill:none;stroke:#000000;stroke-linecap:square;stroke-linejoin:miter;stroke-width:0.8;"/>
   </g>
   <g id="text_12">
    <!-- Casos acumulados - MT -->
    <defs>
     <path id="DejaVuSans-32"/>
     <path d="M 48.78125 52.59375 
L 48.78125 44.1875 
Q 44.96875 46.296875 41.140625 47.34375 
Q 37.3125 48.390625 33.40625 48.390625 
Q 24.65625 48.390625 19.8125 42.84375 
Q 14.984375 37.3125 14.984375 27.296875 
Q 14.984375 17.28125 19.8125 11.734375 
Q 24.65625 6.203125 33.40625 6.203125 
Q 37.3125 6.203125 41.140625 7.25 
Q 44.96875 8.296875 48.78125 10.40625 
L 48.78125 2.09375 
Q 45.015625 0.34375 40.984375 -0.53125 
Q 36.96875 -1.421875 32.421875 -1.421875 
Q 20.0625 -1.421875 12.78125 6.34375 
Q 5.515625 14.109375 5.515625 27.296875 
Q 5.515625 40.671875 12.859375 48.328125 
Q 20.21875 56 33.015625 56 
Q 37.15625 56 41.109375 55.140625 
Q 45.0625 54.296875 48.78125 52.59375 
z
" id="DejaVuSans-99"/>
     <path d="M 8.5 21.578125 
L 8.5 54.6875 
L 17.484375 54.6875 
L 17.484375 21.921875 
Q 17.484375 14.15625 20.5 10.265625 
Q 23.53125 6.390625 29.59375 6.390625 
Q 36.859375 6.390625 41.078125 11.03125 
Q 45.3125 15.671875 45.3125 23.6875 
L 45.3125 54.6875 
L 54.296875 54.6875 
L 54.296875 0 
L 45.3125 0 
L 45.3125 8.40625 
Q 42.046875 3.421875 37.71875 1 
Q 33.40625 -1.421875 27.6875 -1.421875 
Q 18.265625 -1.421875 13.375 4.4375 
Q 8.5 10.296875 8.5 21.578125 
z
M 31.109375 56 
z
" id="DejaVuSans-117"/>
     <path d="M 52 44.1875 
Q 55.375 50.25 60.0625 53.125 
Q 64.75 56 71.09375 56 
Q 79.640625 56 84.28125 50.015625 
Q 88.921875 44.046875 88.921875 33.015625 
L 88.921875 0 
L 79.890625 0 
L 79.890625 32.71875 
Q 79.890625 40.578125 77.09375 44.375 
Q 74.3125 48.1875 68.609375 48.1875 
Q 61.625 48.1875 57.5625 43.546875 
Q 53.515625 38.921875 53.515625 30.90625 
L 53.515625 0 
L 44.484375 0 
L 44.484375 32.71875 
Q 44.484375 40.625 41.703125 44.40625 
Q 38.921875 48.1875 33.109375 48.1875 
Q 26.21875 48.1875 22.15625 43.53125 
Q 18.109375 38.875 18.109375 30.90625 
L 18.109375 0 
L 9.078125 0 
L 9.078125 54.6875 
L 18.109375 54.6875 
L 18.109375 46.1875 
Q 21.1875 51.21875 25.484375 53.609375 
Q 29.78125 56 35.6875 56 
Q 41.65625 56 45.828125 52.96875 
Q 50 49.953125 52 44.1875 
z
" id="DejaVuSans-109"/>
     <path d="M 9.421875 75.984375 
L 18.40625 75.984375 
L 18.40625 0 
L 9.421875 0 
z
" id="DejaVuSans-108"/>
     <path d="M 45.40625 46.390625 
L 45.40625 75.984375 
L 54.390625 75.984375 
L 54.390625 0 
L 45.40625 0 
L 45.40625 8.203125 
Q 42.578125 3.328125 38.25 0.953125 
Q 33.9375 -1.421875 27.875 -1.421875 
Q 17.96875 -1.421875 11.734375 6.484375 
Q 5.515625 14.40625 5.515625 27.296875 
Q 5.515625 40.1875 11.734375 48.09375 
Q 17.96875 56 27.875 56 
Q 33.9375 56 38.25 53.625 
Q 42.578125 51.265625 45.40625 46.390625 
z
M 14.796875 27.296875 
Q 14.796875 17.390625 18.875 11.75 
Q 22.953125 6.109375 30.078125 6.109375 
Q 37.203125 6.109375 41.296875 11.75 
Q 45.40625 17.390625 45.40625 27.296875 
Q 45.40625 37.203125 41.296875 42.84375 
Q 37.203125 48.484375 30.078125 48.484375 
Q 22.953125 48.484375 18.875 42.84375 
Q 14.796875 37.203125 14.796875 27.296875 
z
" id="DejaVuSans-100"/>
     <path d="M 4.890625 31.390625 
L 31.203125 31.390625 
L 31.203125 23.390625 
L 4.890625 23.390625 
z
" id="DejaVuSans-45"/>
     <path d="M 9.8125 72.90625 
L 24.515625 72.90625 
L 43.109375 23.296875 
L 61.8125 72.90625 
L 76.515625 72.90625 
L 76.515625 0 
L 66.890625 0 
L 66.890625 64.015625 
L 48.09375 14.015625 
L 38.1875 14.015625 
L 19.390625 64.015625 
L 19.390625 0 
L 9.8125 0 
z
" id="DejaVuSans-77"/>
     <path d="M -0.296875 72.90625 
L 61.375 72.90625 
L 61.375 64.59375 
L 35.5 64.59375 
L 35.5 0 
L 25.59375 0 
L 25.59375 64.59375 
L -0.296875 64.59375 
z
" id="DejaVuSans-84"/>
    </defs>
    <g transform="translate(72.583625 12.118365)scale(0.12 -0.12)">
     <use xlink:href="#DejaVuSans-67"/>
     <use x="69.824219" xlink:href="#DejaVuSans-97"/>
     <use x="131.103516" xlink:href="#DejaVuSans-115"/>
     <use x="183.203125" xlink:href="#DejaVuSans-111"/>
     <use x="244.384766" xlink:href="#DejaVuSans-115"/>
     <use x="296.484375" xlink:href="#DejaVuSans-32"/>
     <use x="328.271484" xlink:href="#DejaVuSans-97"/>
     <use x="389.550781" xlink:href="#DejaVuSans-99"/>
     <use x="444.53125" xlink:href="#DejaVuSans-117"/>
     <use x="507.910156" xlink:href="#DejaVuSans-109"/>
     <use x="605.322266" xlink:href="#DejaVuSans-117"/>
     <use x="668.701172" xlink:href="#DejaVuSans-108"/>
     <use x="696.484375" xlink:href="#DejaVuSans-97"/>
     <use x="757.763672" xlink:href="#DejaVuSans-100"/>
     <use x="821.240234" xlink:href="#DejaVuSans-111"/>
     <use x="882.421875" xlink:href="#DejaVuSans-115"/>
     <use x="934.521484" xlink:href="#DejaVuSans-32"/>
     <use x="966.308594" xlink:href="#DejaVuSans-45"/>
     <use x="1002.392578" xlink:href="#DejaVuSans-32"/>
     <use x="1034.179688" xlink:href="#DejaVuSans-77"/>
     <use x="1120.458984" xlink:href="#DejaVuSans-84"/>
    </g>
   </g>
  </g>
  <g id="axes_2">
   <g id="patch_100">
    <path d="M 281.832365 137.71551 
L 457.79976 137.71551 
L 457.79976 18.118365 
L 281.832365 18.118365 
z
" style="fill:#ffffff;"/>
   </g>
   <g id="patch_101">
    <path clip-path="url(#pc41a18fb58)" d="M 289.830883 137.71551 
L 291.209938 137.71551 
L 291.209938 137.580074 
L 289.830883 137.580074 
z
" style="fill:#1f77b4;"/>
   </g>
   <g id="patch_102">
    <path clip-path="url(#pc41a18fb58)" d="M 291.554701 137.71551 
L 292.933756 137.71551 
L 292.933756 137.71551 
L 291.554701 137.71551 
z
" style="fill:#1f77b4;"/>
   </g>
   <g id="patch_103">
    <path clip-path="url(#pc41a18fb58)" d="M 293.27852 137.71551 
L 294.657575 137.71551 
L 294.657575 137.71551 
L 293.27852 137.71551 
z
" style="fill:#1f77b4;"/>
   </g>
   <g id="patch_104">
    <path clip-path="url(#pc41a18fb58)" d="M 295.002339 137.71551 
L 296.381393 137.71551 
L 296.381393 137.038328 
L 295.002339 137.038328 
z
" style="fill:#1f77b4;"/>
   </g>
   <g id="patch_105">
    <path clip-path="url(#pc41a18fb58)" d="M 296.726157 137.71551 
L 298.105212 137.71551 
L 298.105212 137.580074 
L 296.726157 137.580074 
z
" style="fill:#1f77b4;"/>
   </g>
   <g id="patch_106">
    <path clip-path="url(#pc41a18fb58)" d="M 298.449976 137.71551 
L 299.82903 137.71551 
L 299.82903 137.309201 
L 298.449976 137.309201 
z
" style="fill:#1f77b4;"/>
   </g>
   <g id="patch_107">
    <path clip-path="url(#pc41a18fb58)" d="M 300.173794 137.71551 
L 301.552849 137.71551 
L 301.552849 137.71551 
L 300.173794 137.71551 
z
" style="fill:#1f77b4;"/>
   </g>
   <g id="patch_108">
    <path clip-path="url(#pc41a18fb58)" d="M 301.897613 137.71551 
L 303.276667 137.71551 
L 303.276667 137.444637 
L 301.897613 137.444637 
z
" style="fill:#1f77b4;"/>
   </g>
   <g id="patch_109">
    <path clip-path="url(#pc41a18fb58)" d="M 303.621431 137.71551 
L 305.000486 137.71551 
L 305.000486 137.309201 
L 303.621431 137.309201 
z
" style="fill:#1f77b4;"/>
   </g>
   <g id="patch_110">
    <path clip-path="url(#pc41a18fb58)" d="M 305.34525 137.71551 
L 306.724304 137.71551 
L 306.724304 137.444637 
L 305.34525 137.444637 
z
" style="fill:#1f77b4;"/>
   </g>
   <g id="patch_111">
    <path clip-path="url(#pc41a18fb58)" d="M 307.069068 137.71551 
L 308.448123 137.71551 
L 308.448123 136.767455 
L 307.069068 136.767455 
z
" style="fill:#1f77b4;"/>
   </g>
   <g id="patch_112">
    <path clip-path="url(#pc41a18fb58)" d="M 308.792887 137.71551 
L 310.171942 137.71551 
L 310.171942 137.444637 
L 308.792887 137.444637 
z
" style="fill:#1f77b4;"/>
   </g>
   <g id="patch_113">
    <path clip-path="url(#pc41a18fb58)" d="M 310.516705 137.71551 
L 311.89576 137.71551 
L 311.89576 136.496582 
L 310.516705 136.496582 
z
" style="fill:#1f77b4;"/>
   </g>
   <g id="patch_114">
    <path clip-path="url(#pc41a18fb58)" d="M 312.240524 137.71551 
L 313.619579 137.71551 
L 313.619579 136.632019 
L 312.240524 136.632019 
z
" style="fill:#1f77b4;"/>
   </g>
   <g id="patch_115">
    <path clip-path="url(#pc41a18fb58)" d="M 313.964342 137.71551 
L 315.343397 137.71551 
L 315.343397 136.090273 
L 313.964342 136.090273 
z
" style="fill:#1f77b4;"/>
   </g>
   <g id="patch_116">
    <path clip-path="url(#pc41a18fb58)" d="M 315.688161 137.71551 
L 317.067216 137.71551 
L 317.067216 137.173764 
L 315.688161 137.173764 
z
" style="fill:#1f77b4;"/>
   </g>
   <g id="patch_117">
    <path clip-path="url(#pc41a18fb58)" d="M 317.411979 137.71551 
L 318.791034 137.71551 
L 318.791034 135.548527 
L 317.411979 135.548527 
z
" style="fill:#1f77b4;"/>
   </g>
   <g id="patch_118">
    <path clip-path="url(#pc41a18fb58)" d="M 319.135798 137.71551 
L 320.514853 137.71551 
L 320.514853 137.444637 
L 319.135798 137.444637 
z
" style="fill:#1f77b4;"/>
   </g>
   <g id="patch_119">
    <path clip-path="url(#pc41a18fb58)" d="M 320.859616 137.71551 
L 322.238671 137.71551 
L 322.238671 136.090273 
L 320.859616 136.090273 
z
" style="fill:#1f77b4;"/>
   </g>
   <g id="patch_120">
    <path clip-path="url(#pc41a18fb58)" d="M 322.583435 137.71551 
L 323.96249 137.71551 
L 323.96249 135.277654 
L 322.583435 135.277654 
z
" style="fill:#1f77b4;"/>
   </g>
   <g id="patch_121">
    <path clip-path="url(#pc41a18fb58)" d="M 324.307253 137.71551 
L 325.686308 137.71551 
L 325.686308 137.173764 
L 324.307253 137.173764 
z
" style="fill:#1f77b4;"/>
   </g>
   <g id="patch_122">
    <path clip-path="url(#pc41a18fb58)" d="M 326.031072 137.71551 
L 327.410127 137.71551 
L 327.410127 136.496582 
L 326.031072 136.496582 
z
" style="fill:#1f77b4;"/>
   </g>
   <g id="patch_123">
    <path clip-path="url(#pc41a18fb58)" d="M 327.75489 137.71551 
L 329.133945 137.71551 
L 329.133945 137.444637 
L 327.75489 137.444637 
z
" style="fill:#1f77b4;"/>
   </g>
   <g id="patch_124">
    <path clip-path="url(#pc41a18fb58)" d="M 329.478709 137.71551 
L 330.857764 137.71551 
L 330.857764 136.225709 
L 329.478709 136.225709 
z
" style="fill:#1f77b4;"/>
   </g>
   <g id="patch_125">
    <path clip-path="url(#pc41a18fb58)" d="M 331.202528 137.71551 
L 332.581582 137.71551 
L 332.581582 137.173764 
L 331.202528 137.173764 
z
" style="fill:#1f77b4;"/>
   </g>
   <g id="patch_126">
    <path clip-path="url(#pc41a18fb58)" d="M 332.926346 137.71551 
L 334.305401 137.71551 
L 334.305401 135.954836 
L 332.926346 135.954836 
z
" style="fill:#1f77b4;"/>
   </g>
   <g id="patch_127">
    <path clip-path="url(#pc41a18fb58)" d="M 334.650165 137.71551 
L 336.029219 137.71551 
L 336.029219 137.038328 
L 334.650165 137.038328 
z
" style="fill:#1f77b4;"/>
   </g>
   <g id="patch_128">
    <path clip-path="url(#pc41a18fb58)" d="M 336.373983 137.71551 
L 337.753038 137.71551 
L 337.753038 136.902891 
L 336.373983 136.902891 
z
" style="fill:#1f77b4;"/>
   </g>
   <g id="patch_129">
    <path clip-path="url(#pc41a18fb58)" d="M 338.097802 137.71551 
L 339.476856 137.71551 
L 339.476856 136.496582 
L 338.097802 136.496582 
z
" style="fill:#1f77b4;"/>
   </g>
   <g id="patch_130">
    <path clip-path="url(#pc41a18fb58)" d="M 339.82162 137.71551 
L 341.200675 137.71551 
L 341.200675 137.309201 
L 339.82162 137.309201 
z
" style="fill:#1f77b4;"/>
   </g>
   <g id="patch_131">
    <path clip-path="url(#pc41a18fb58)" d="M 341.545439 137.71551 
L 342.924494 137.71551 
L 342.924494 136.767455 
L 341.545439 136.767455 
z
" style="fill:#1f77b4;"/>
   </g>
   <g id="patch_132">
    <path clip-path="url(#pc41a18fb58)" d="M 343.269257 137.71551 
L 344.648312 137.71551 
L 344.648312 137.71551 
L 343.269257 137.71551 
z
" style="fill:#1f77b4;"/>
   </g>
   <g id="patch_133">
    <path clip-path="url(#pc41a18fb58)" d="M 344.993076 137.71551 
L 346.372131 137.71551 
L 346.372131 137.444637 
L 344.993076 137.444637 
z
" style="fill:#1f77b4;"/>
   </g>
   <g id="patch_134">
    <path clip-path="url(#pc41a18fb58)" d="M 346.716894 137.71551 
L 348.095949 137.71551 
L 348.095949 132.568925 
L 346.716894 132.568925 
z
" style="fill:#1f77b4;"/>
   </g>
   <g id="patch_135">
    <path clip-path="url(#pc41a18fb58)" d="M 348.440713 137.71551 
L 349.819768 137.71551 
L 349.819768 135.142218 
L 348.440713 135.142218 
z
" style="fill:#1f77b4;"/>
   </g>
   <g id="patch_136">
    <path clip-path="url(#pc41a18fb58)" d="M 350.164531 137.71551 
L 351.543586 137.71551 
L 351.543586 136.767455 
L 350.164531 136.767455 
z
" style="fill:#1f77b4;"/>
   </g>
   <g id="patch_137">
    <path clip-path="url(#pc41a18fb58)" d="M 351.88835 137.71551 
L 353.267405 137.71551 
L 353.267405 137.309201 
L 351.88835 137.309201 
z
" style="fill:#1f77b4;"/>
   </g>
   <g id="patch_138">
    <path clip-path="url(#pc41a18fb58)" d="M 353.612168 137.71551 
L 354.991223 137.71551 
L 354.991223 136.767455 
L 353.612168 136.767455 
z
" style="fill:#1f77b4;"/>
   </g>
   <g id="patch_139">
    <path clip-path="url(#pc41a18fb58)" d="M 355.335987 137.71551 
L 356.715042 137.71551 
L 356.715042 137.173764 
L 355.335987 137.173764 
z
" style="fill:#1f77b4;"/>
   </g>
   <g id="patch_140">
    <path clip-path="url(#pc41a18fb58)" d="M 357.059805 137.71551 
L 358.43886 137.71551 
L 358.43886 133.51698 
L 357.059805 133.51698 
z
" style="fill:#1f77b4;"/>
   </g>
   <g id="patch_141">
    <path clip-path="url(#pc41a18fb58)" d="M 358.783624 137.71551 
L 360.162679 137.71551 
L 360.162679 137.038328 
L 358.783624 137.038328 
z
" style="fill:#1f77b4;"/>
   </g>
   <g id="patch_142">
    <path clip-path="url(#pc41a18fb58)" d="M 360.507442 137.71551 
L 361.886497 137.71551 
L 361.886497 134.600472 
L 360.507442 134.600472 
z
" style="fill:#1f77b4;"/>
   </g>
   <g id="patch_143">
    <path clip-path="url(#pc41a18fb58)" d="M 362.231261 137.71551 
L 363.610316 137.71551 
L 363.610316 136.225709 
L 362.231261 136.225709 
z
" style="fill:#1f77b4;"/>
   </g>
   <g id="patch_144">
    <path clip-path="url(#pc41a18fb58)" d="M 363.95508 137.71551 
L 365.334134 137.71551 
L 365.334134 136.902891 
L 363.95508 136.902891 
z
" style="fill:#1f77b4;"/>
   </g>
   <g id="patch_145">
    <path clip-path="url(#pc41a18fb58)" d="M 365.678898 137.71551 
L 367.057953 137.71551 
L 367.057953 136.767455 
L 365.678898 136.767455 
z
" style="fill:#1f77b4;"/>
   </g>
   <g id="patch_146">
    <path clip-path="url(#pc41a18fb58)" d="M 367.402717 137.71551 
L 368.781771 137.71551 
L 368.781771 134.871345 
L 367.402717 134.871345 
z
" style="fill:#1f77b4;"/>
   </g>
   <g id="patch_147">
    <path clip-path="url(#pc41a18fb58)" d="M 369.126535 137.71551 
L 370.50559 137.71551 
L 370.50559 135.8194 
L 369.126535 135.8194 
z
" style="fill:#1f77b4;"/>
   </g>
   <g id="patch_148">
    <path clip-path="url(#pc41a18fb58)" d="M 370.850354 137.71551 
L 372.229408 137.71551 
L 372.229408 132.568925 
L 370.850354 132.568925 
z
" style="fill:#1f77b4;"/>
   </g>
   <g id="patch_149">
    <path clip-path="url(#pc41a18fb58)" d="M 372.574172 137.71551 
L 373.953227 137.71551 
L 373.953227 132.298053 
L 372.574172 132.298053 
z
" style="fill:#1f77b4;"/>
   </g>
   <g id="patch_150">
    <path clip-path="url(#pc41a18fb58)" d="M 374.297991 137.71551 
L 375.677045 137.71551 
L 375.677045 131.62087 
L 374.297991 131.62087 
z
" style="fill:#1f77b4;"/>
   </g>
   <g id="patch_151">
    <path clip-path="url(#pc41a18fb58)" d="M 376.021809 137.71551 
L 377.400864 137.71551 
L 377.400864 135.413091 
L 376.021809 135.413091 
z
" style="fill:#1f77b4;"/>
   </g>
   <g id="patch_152">
    <path clip-path="url(#pc41a18fb58)" d="M 377.745628 137.71551 
L 379.124683 137.71551 
L 379.124683 134.735908 
L 377.745628 134.735908 
z
" style="fill:#1f77b4;"/>
   </g>
   <g id="patch_153">
    <path clip-path="url(#pc41a18fb58)" d="M 379.469446 137.71551 
L 380.848501 137.71551 
L 380.848501 130.943688 
L 379.469446 130.943688 
z
" style="fill:#1f77b4;"/>
   </g>
   <g id="patch_154">
    <path clip-path="url(#pc41a18fb58)" d="M 381.193265 137.71551 
L 382.57232 137.71551 
L 382.57232 128.234959 
L 381.193265 128.234959 
z
" style="fill:#1f77b4;"/>
   </g>
   <g id="patch_155">
    <path clip-path="url(#pc41a18fb58)" d="M 382.917083 137.71551 
L 384.296138 137.71551 
L 384.296138 129.860197 
L 382.917083 129.860197 
z
" style="fill:#1f77b4;"/>
   </g>
   <g id="patch_156">
    <path clip-path="url(#pc41a18fb58)" d="M 384.640902 137.71551 
L 386.019957 137.71551 
L 386.019957 129.589324 
L 384.640902 129.589324 
z
" style="fill:#1f77b4;"/>
   </g>
   <g id="patch_157">
    <path clip-path="url(#pc41a18fb58)" d="M 386.36472 137.71551 
L 387.743775 137.71551 
L 387.743775 127.964087 
L 386.36472 127.964087 
z
" style="fill:#1f77b4;"/>
   </g>
   <g id="patch_158">
    <path clip-path="url(#pc41a18fb58)" d="M 388.088539 137.71551 
L 389.467594 137.71551 
L 389.467594 130.943688 
L 388.088539 130.943688 
z
" style="fill:#1f77b4;"/>
   </g>
   <g id="patch_159">
    <path clip-path="url(#pc41a18fb58)" d="M 389.812357 137.71551 
L 391.191412 137.71551 
L 391.191412 132.839798 
L 389.812357 132.839798 
z
" style="fill:#1f77b4;"/>
   </g>
   <g id="patch_160">
    <path clip-path="url(#pc41a18fb58)" d="M 391.536176 137.71551 
L 392.915231 137.71551 
L 392.915231 129.860197 
L 391.536176 129.860197 
z
" style="fill:#1f77b4;"/>
   </g>
   <g id="patch_161">
    <path clip-path="url(#pc41a18fb58)" d="M 393.259994 137.71551 
L 394.639049 137.71551 
L 394.639049 129.72476 
L 393.259994 129.72476 
z
" style="fill:#1f77b4;"/>
   </g>
   <g id="patch_162">
    <path clip-path="url(#pc41a18fb58)" d="M 394.983813 137.71551 
L 396.362868 137.71551 
L 396.362868 121.734011 
L 394.983813 121.734011 
z
" style="fill:#1f77b4;"/>
   </g>
   <g id="patch_163">
    <path clip-path="url(#pc41a18fb58)" d="M 396.707631 137.71551 
L 398.086686 137.71551 
L 398.086686 131.214561 
L 396.707631 131.214561 
z
" style="fill:#1f77b4;"/>
   </g>
   <g id="patch_164">
    <path clip-path="url(#pc41a18fb58)" d="M 398.43145 137.71551 
L 399.810505 137.71551 
L 399.810505 119.8379 
L 398.43145 119.8379 
z
" style="fill:#1f77b4;"/>
   </g>
   <g id="patch_165">
    <path clip-path="url(#pc41a18fb58)" d="M 400.155269 137.71551 
L 401.534323 137.71551 
L 401.534323 122.817502 
L 400.155269 122.817502 
z
" style="fill:#1f77b4;"/>
   </g>
   <g id="patch_166">
    <path clip-path="url(#pc41a18fb58)" d="M 401.879087 137.71551 
L 403.258142 137.71551 
L 403.258142 132.568925 
L 401.879087 132.568925 
z
" style="fill:#1f77b4;"/>
   </g>
   <g id="patch_167">
    <path clip-path="url(#pc41a18fb58)" d="M 403.602906 137.71551 
L 404.98196 137.71551 
L 404.98196 120.379646 
L 403.602906 120.379646 
z
" style="fill:#1f77b4;"/>
   </g>
   <g id="patch_168">
    <path clip-path="url(#pc41a18fb58)" d="M 405.326724 137.71551 
L 406.705779 137.71551 
L 406.705779 109.138422 
L 405.326724 109.138422 
z
" style="fill:#1f77b4;"/>
   </g>
   <g id="patch_169">
    <path clip-path="url(#pc41a18fb58)" d="M 407.050543 137.71551 
L 408.429597 137.71551 
L 408.429597 122.546629 
L 407.050543 122.546629 
z
" style="fill:#1f77b4;"/>
   </g>
   <g id="patch_170">
    <path clip-path="url(#pc41a18fb58)" d="M 408.774361 137.71551 
L 410.153416 137.71551 
L 410.153416 117.129172 
L 408.774361 117.129172 
z
" style="fill:#1f77b4;"/>
   </g>
   <g id="patch_171">
    <path clip-path="url(#pc41a18fb58)" d="M 410.49818 137.71551 
L 411.877235 137.71551 
L 411.877235 102.772909 
L 410.49818 102.772909 
z
" style="fill:#1f77b4;"/>
   </g>
   <g id="patch_172">
    <path clip-path="url(#pc41a18fb58)" d="M 412.221998 137.71551 
L 413.601053 137.71551 
L 413.601053 128.505832 
L 412.221998 128.505832 
z
" style="fill:#1f77b4;"/>
   </g>
   <g id="patch_173">
    <path clip-path="url(#pc41a18fb58)" d="M 413.945817 137.71551 
L 415.324872 137.71551 
L 415.324872 122.546629 
L 413.945817 122.546629 
z
" style="fill:#1f77b4;"/>
   </g>
   <g id="patch_174">
    <path clip-path="url(#pc41a18fb58)" d="M 415.669635 137.71551 
L 417.04869 137.71551 
L 417.04869 114.962189 
L 415.669635 114.962189 
z
" style="fill:#1f77b4;"/>
   </g>
   <g id="patch_175">
    <path clip-path="url(#pc41a18fb58)" d="M 417.393454 137.71551 
L 418.772509 137.71551 
L 418.772509 118.889845 
L 417.393454 118.889845 
z
" style="fill:#1f77b4;"/>
   </g>
   <g id="patch_176">
    <path clip-path="url(#pc41a18fb58)" d="M 419.117272 137.71551 
L 420.496327 137.71551 
L 420.496327 90.854503 
L 419.117272 90.854503 
z
" style="fill:#1f77b4;"/>
   </g>
   <g id="patch_177">
    <path clip-path="url(#pc41a18fb58)" d="M 420.841091 137.71551 
L 422.220146 137.71551 
L 422.220146 98.845253 
L 420.841091 98.845253 
z
" style="fill:#1f77b4;"/>
   </g>
   <g id="patch_178">
    <path clip-path="url(#pc41a18fb58)" d="M 422.564909 137.71551 
L 423.943964 137.71551 
L 423.943964 113.201515 
L 422.564909 113.201515 
z
" style="fill:#1f77b4;"/>
   </g>
   <g id="patch_179">
    <path clip-path="url(#pc41a18fb58)" d="M 424.288728 137.71551 
L 425.667783 137.71551 
L 425.667783 108.46124 
L 424.288728 108.46124 
z
" style="fill:#1f77b4;"/>
   </g>
   <g id="patch_180">
    <path clip-path="url(#pc41a18fb58)" d="M 426.012546 137.71551 
L 427.391601 137.71551 
L 427.391601 107.648621 
L 426.012546 107.648621 
z
" style="fill:#1f77b4;"/>
   </g>
   <g id="patch_181">
    <path clip-path="url(#pc41a18fb58)" d="M 427.736365 137.71551 
L 429.11542 137.71551 
L 429.11542 105.346202 
L 427.736365 105.346202 
z
" style="fill:#1f77b4;"/>
   </g>
   <g id="patch_182">
    <path clip-path="url(#pc41a18fb58)" d="M 429.460183 137.71551 
L 430.839238 137.71551 
L 430.839238 102.095727 
L 429.460183 102.095727 
z
" style="fill:#1f77b4;"/>
   </g>
   <g id="patch_183">
    <path clip-path="url(#pc41a18fb58)" d="M 431.184002 137.71551 
L 432.563057 137.71551 
L 432.563057 71.351656 
L 431.184002 71.351656 
z
" style="fill:#1f77b4;"/>
   </g>
   <g id="patch_184">
    <path clip-path="url(#pc41a18fb58)" d="M 432.907821 137.71551 
L 434.286875 137.71551 
L 434.286875 101.012236 
L 432.907821 101.012236 
z
" style="fill:#1f77b4;"/>
   </g>
   <g id="patch_185">
    <path clip-path="url(#pc41a18fb58)" d="M 434.631639 137.71551 
L 436.010694 137.71551 
L 436.010694 115.910244 
L 434.631639 115.910244 
z
" style="fill:#1f77b4;"/>
   </g>
   <g id="patch_186">
    <path clip-path="url(#pc41a18fb58)" d="M 436.355458 137.71551 
L 437.734512 137.71551 
L 437.734512 92.073431 
L 436.355458 92.073431 
z
" style="fill:#1f77b4;"/>
   </g>
   <g id="patch_187">
    <path clip-path="url(#pc41a18fb58)" d="M 438.079276 137.71551 
L 439.458331 137.71551 
L 439.458331 93.834105 
L 438.079276 93.834105 
z
" style="fill:#1f77b4;"/>
   </g>
   <g id="patch_188">
    <path clip-path="url(#pc41a18fb58)" d="M 439.803095 137.71551 
L 441.182149 137.71551 
L 441.182149 110.221913 
L 439.803095 110.221913 
z
" style="fill:#1f77b4;"/>
   </g>
   <g id="patch_189">
    <path clip-path="url(#pc41a18fb58)" d="M 441.526913 137.71551 
L 442.905968 137.71551 
L 442.905968 38.034293 
L 441.526913 38.034293 
z
" style="fill:#1f77b4;"/>
   </g>
   <g id="patch_190">
    <path clip-path="url(#pc41a18fb58)" d="M 443.250732 137.71551 
L 444.629786 137.71551 
L 444.629786 85.166173 
L 443.250732 85.166173 
z
" style="fill:#1f77b4;"/>
   </g>
   <g id="patch_191">
    <path clip-path="url(#pc41a18fb58)" d="M 444.97455 137.71551 
L 446.353605 137.71551 
L 446.353605 23.813467 
L 444.97455 23.813467 
z
" style="fill:#1f77b4;"/>
   </g>
   <g id="patch_192">
    <path clip-path="url(#pc41a18fb58)" d="M 446.698369 137.71551 
L 448.077424 137.71551 
L 448.077424 55.23472 
L 446.698369 55.23472 
z
" style="fill:#1f77b4;"/>
   </g>
   <g id="patch_193">
    <path clip-path="url(#pc41a18fb58)" d="M 448.422187 137.71551 
L 449.801242 137.71551 
L 449.801242 68.9138 
L 448.422187 68.9138 
z
" style="fill:#1f77b4;"/>
   </g>
   <g id="matplotlib.axis_3">
    <g id="xtick_5">
     <g id="line2d_11">
      <g>
       <use style="stroke:#000000;stroke-width:0.8;" x="290.52041" xlink:href="#mdc5ae46f15" y="137.71551"/>
      </g>
     </g>
     <g id="text_13">
      <!-- 0 -->
      <g transform="translate(287.33916 152.313947)scale(0.1 -0.1)">
       <use xlink:href="#DejaVuSans-48"/>
      </g>
     </g>
    </g>
    <g id="xtick_6">
     <g id="line2d_12">
      <g>
       <use style="stroke:#000000;stroke-width:0.8;" x="333.615873" xlink:href="#mdc5ae46f15" y="137.71551"/>
      </g>
     </g>
     <g id="text_14">
      <!-- 25 -->
      <g transform="translate(327.253373 152.313947)scale(0.1 -0.1)">
       <use xlink:href="#DejaVuSans-50"/>
       <use x="63.623047" xlink:href="#DejaVuSans-53"/>
      </g>
     </g>
    </g>
    <g id="xtick_7">
     <g id="line2d_13">
      <g>
       <use style="stroke:#000000;stroke-width:0.8;" x="376.711337" xlink:href="#mdc5ae46f15" y="137.71551"/>
      </g>
     </g>
     <g id="text_15">
      <!-- 50 -->
      <g transform="translate(370.348837 152.313947)scale(0.1 -0.1)">
       <use xlink:href="#DejaVuSans-53"/>
       <use x="63.623047" xlink:href="#DejaVuSans-48"/>
      </g>
     </g>
    </g>
    <g id="xtick_8">
     <g id="line2d_14">
      <g>
       <use style="stroke:#000000;stroke-width:0.8;" x="419.8068" xlink:href="#mdc5ae46f15" y="137.71551"/>
      </g>
     </g>
     <g id="text_16">
      <!-- 75 -->
      <g transform="translate(413.4443 152.313947)scale(0.1 -0.1)">
       <use xlink:href="#DejaVuSans-55"/>
       <use x="63.623047" xlink:href="#DejaVuSans-53"/>
      </g>
     </g>
    </g>
    <g id="text_17">
     <!-- Dias -->
     <g transform="translate(358.90825 165.992072)scale(0.1 -0.1)">
      <use xlink:href="#DejaVuSans-68"/>
      <use x="77.001953" xlink:href="#DejaVuSans-105"/>
      <use x="104.785156" xlink:href="#DejaVuSans-97"/>
      <use x="166.064453" xlink:href="#DejaVuSans-115"/>
     </g>
    </g>
   </g>
   <g id="matplotlib.axis_4">
    <g id="ytick_6">
     <g id="line2d_15">
      <g>
       <use style="stroke:#000000;stroke-width:0.8;" x="281.832365" xlink:href="#m36b142c07a" y="137.71551"/>
      </g>
     </g>
     <g id="text_18">
      <!-- 0 -->
      <g transform="translate(268.469865 141.514729)scale(0.1 -0.1)">
       <use xlink:href="#DejaVuSans-48"/>
      </g>
     </g>
    </g>
    <g id="ytick_7">
     <g id="line2d_16">
      <g>
       <use style="stroke:#000000;stroke-width:0.8;" x="281.832365" xlink:href="#m36b142c07a" y="110.628223"/>
      </g>
     </g>
     <g id="text_19">
      <!-- 200 -->
      <g transform="translate(255.744865 114.427442)scale(0.1 -0.1)">
       <use xlink:href="#DejaVuSans-50"/>
       <use x="63.623047" xlink:href="#DejaVuSans-48"/>
       <use x="127.246094" xlink:href="#DejaVuSans-48"/>
      </g>
     </g>
    </g>
    <g id="ytick_8">
     <g id="line2d_17">
      <g>
       <use style="stroke:#000000;stroke-width:0.8;" x="281.832365" xlink:href="#m36b142c07a" y="83.540936"/>
      </g>
     </g>
     <g id="text_20">
      <!-- 400 -->
      <defs>
       <path d="M 37.796875 64.3125 
L 12.890625 25.390625 
L 37.796875 25.390625 
z
M 35.203125 72.90625 
L 47.609375 72.90625 
L 47.609375 25.390625 
L 58.015625 25.390625 
L 58.015625 17.1875 
L 47.609375 17.1875 
L 47.609375 0 
L 37.796875 0 
L 37.796875 17.1875 
L 4.890625 17.1875 
L 4.890625 26.703125 
z
" id="DejaVuSans-52"/>
      </defs>
      <g transform="translate(255.744865 87.340154)scale(0.1 -0.1)">
       <use xlink:href="#DejaVuSans-52"/>
       <use x="63.623047" xlink:href="#DejaVuSans-48"/>
       <use x="127.246094" xlink:href="#DejaVuSans-48"/>
      </g>
     </g>
    </g>
    <g id="ytick_9">
     <g id="line2d_18">
      <g>
       <use style="stroke:#000000;stroke-width:0.8;" x="281.832365" xlink:href="#m36b142c07a" y="56.453648"/>
      </g>
     </g>
     <g id="text_21">
      <!-- 600 -->
      <defs>
       <path d="M 33.015625 40.375 
Q 26.375 40.375 22.484375 35.828125 
Q 18.609375 31.296875 18.609375 23.390625 
Q 18.609375 15.53125 22.484375 10.953125 
Q 26.375 6.390625 33.015625 6.390625 
Q 39.65625 6.390625 43.53125 10.953125 
Q 47.40625 15.53125 47.40625 23.390625 
Q 47.40625 31.296875 43.53125 35.828125 
Q 39.65625 40.375 33.015625 40.375 
z
M 52.59375 71.296875 
L 52.59375 62.3125 
Q 48.875 64.0625 45.09375 64.984375 
Q 41.3125 65.921875 37.59375 65.921875 
Q 27.828125 65.921875 22.671875 59.328125 
Q 17.53125 52.734375 16.796875 39.40625 
Q 19.671875 43.65625 24.015625 45.921875 
Q 28.375 48.1875 33.59375 48.1875 
Q 44.578125 48.1875 50.953125 41.515625 
Q 57.328125 34.859375 57.328125 23.390625 
Q 57.328125 12.15625 50.6875 5.359375 
Q 44.046875 -1.421875 33.015625 -1.421875 
Q 20.359375 -1.421875 13.671875 8.265625 
Q 6.984375 17.96875 6.984375 36.375 
Q 6.984375 53.65625 15.1875 63.9375 
Q 23.390625 74.21875 37.203125 74.21875 
Q 40.921875 74.21875 44.703125 73.484375 
Q 48.484375 72.75 52.59375 71.296875 
z
" id="DejaVuSans-54"/>
      </defs>
      <g transform="translate(255.744865 60.252867)scale(0.1 -0.1)">
       <use xlink:href="#DejaVuSans-54"/>
       <use x="63.623047" xlink:href="#DejaVuSans-48"/>
       <use x="127.246094" xlink:href="#DejaVuSans-48"/>
      </g>
     </g>
    </g>
    <g id="ytick_10">
     <g id="line2d_19">
      <g>
       <use style="stroke:#000000;stroke-width:0.8;" x="281.832365" xlink:href="#m36b142c07a" y="29.366361"/>
      </g>
     </g>
     <g id="text_22">
      <!-- 800 -->
      <defs>
       <path d="M 31.78125 34.625 
Q 24.75 34.625 20.71875 30.859375 
Q 16.703125 27.09375 16.703125 20.515625 
Q 16.703125 13.921875 20.71875 10.15625 
Q 24.75 6.390625 31.78125 6.390625 
Q 38.8125 6.390625 42.859375 10.171875 
Q 46.921875 13.96875 46.921875 20.515625 
Q 46.921875 27.09375 42.890625 30.859375 
Q 38.875 34.625 31.78125 34.625 
z
M 21.921875 38.8125 
Q 15.578125 40.375 12.03125 44.71875 
Q 8.5 49.078125 8.5 55.328125 
Q 8.5 64.0625 14.71875 69.140625 
Q 20.953125 74.21875 31.78125 74.21875 
Q 42.671875 74.21875 48.875 69.140625 
Q 55.078125 64.0625 55.078125 55.328125 
Q 55.078125 49.078125 51.53125 44.71875 
Q 48 40.375 41.703125 38.8125 
Q 48.828125 37.15625 52.796875 32.3125 
Q 56.78125 27.484375 56.78125 20.515625 
Q 56.78125 9.90625 50.3125 4.234375 
Q 43.84375 -1.421875 31.78125 -1.421875 
Q 19.734375 -1.421875 13.25 4.234375 
Q 6.78125 9.90625 6.78125 20.515625 
Q 6.78125 27.484375 10.78125 32.3125 
Q 14.796875 37.15625 21.921875 38.8125 
z
M 18.3125 54.390625 
Q 18.3125 48.734375 21.84375 45.5625 
Q 25.390625 42.390625 31.78125 42.390625 
Q 38.140625 42.390625 41.71875 45.5625 
Q 45.3125 48.734375 45.3125 54.390625 
Q 45.3125 60.0625 41.71875 63.234375 
Q 38.140625 66.40625 31.78125 66.40625 
Q 25.390625 66.40625 21.84375 63.234375 
Q 18.3125 60.0625 18.3125 54.390625 
z
" id="DejaVuSans-56"/>
      </defs>
      <g transform="translate(255.744865 33.16558)scale(0.1 -0.1)">
       <use xlink:href="#DejaVuSans-56"/>
       <use x="63.623047" xlink:href="#DejaVuSans-48"/>
       <use x="127.246094" xlink:href="#DejaVuSans-48"/>
      </g>
     </g>
    </g>
    <g id="text_23">
     <!-- Novos casos -->
     <defs>
      <path d="M 9.8125 72.90625 
L 23.09375 72.90625 
L 55.421875 11.921875 
L 55.421875 72.90625 
L 64.984375 72.90625 
L 64.984375 0 
L 51.703125 0 
L 19.390625 60.984375 
L 19.390625 0 
L 9.8125 0 
z
" id="DejaVuSans-78"/>
      <path d="M 2.984375 54.6875 
L 12.5 54.6875 
L 29.59375 8.796875 
L 46.6875 54.6875 
L 56.203125 54.6875 
L 35.6875 0 
L 23.484375 0 
z
" id="DejaVuSans-118"/>
     </defs>
     <g transform="translate(249.665177 109.011469)rotate(-90)scale(0.1 -0.1)">
      <use xlink:href="#DejaVuSans-78"/>
      <use x="74.804688" xlink:href="#DejaVuSans-111"/>
      <use x="135.986328" xlink:href="#DejaVuSans-118"/>
      <use x="195.166016" xlink:href="#DejaVuSans-111"/>
      <use x="256.347656" xlink:href="#DejaVuSans-115"/>
      <use x="308.447266" xlink:href="#DejaVuSans-32"/>
      <use x="340.234375" xlink:href="#DejaVuSans-99"/>
      <use x="395.214844" xlink:href="#DejaVuSans-97"/>
      <use x="456.494141" xlink:href="#DejaVuSans-115"/>
      <use x="508.59375" xlink:href="#DejaVuSans-111"/>
      <use x="569.775391" xlink:href="#DejaVuSans-115"/>
     </g>
    </g>
   </g>
   <g id="line2d_20">
    <path clip-path="url(#pc41a18fb58)" d="M 290.52041 137.617077 
L 292.244229 137.581822 
L 293.968047 137.539854 
L 295.691866 137.500312 
L 297.415684 137.455919 
L 299.139503 137.405941 
L 300.863322 137.349138 
L 302.58714 137.282858 
L 304.310959 137.207158 
L 306.034777 137.123786 
L 307.758596 137.034266 
L 309.482414 136.942546 
L 311.206233 136.85156 
L 312.930051 136.765763 
L 314.65387 136.691022 
L 316.377688 136.631003 
L 318.101507 136.58723 
L 319.825325 136.560831 
L 321.549144 136.550057 
L 323.272962 136.554683 
L 324.996781 136.573636 
L 326.720599 136.600599 
L 328.444418 136.629988 
L 330.168236 136.657402 
L 331.892055 136.679007 
L 333.615873 136.691924 
L 335.339692 136.691755 
L 337.063511 136.670997 
L 338.787329 136.632301 
L 340.511148 136.579728 
L 342.234966 136.516607 
L 343.958785 136.445815 
L 345.682603 136.370622 
L 347.406422 136.294809 
L 349.13024 136.22994 
L 350.854059 136.173814 
L 352.577877 136.121861 
L 354.301696 136.068612 
L 356.025514 136.008537 
L 357.749333 135.935037 
L 359.473151 135.84185 
L 361.19697 135.711152 
L 362.920788 135.53702 
L 364.644607 135.315335 
L 366.368425 135.045421 
L 368.092244 134.726093 
L 369.816062 134.357916 
L 371.539881 133.943258 
L 373.2637 133.499099 
L 374.987518 133.034971 
L 376.711337 132.561818 
L 378.435155 132.086239 
L 380.158974 131.615342 
L 381.882792 131.155953 
L 383.606611 130.708353 
L 385.330429 130.251953 
L 387.054248 129.775133 
L 388.778066 129.255951 
L 390.501885 128.672857 
L 392.225703 128.011864 
L 393.949522 127.253623 
L 395.67334 126.388658 
L 397.397159 125.442295 
L 399.120977 124.416622 
L 400.844796 123.326869 
L 402.568614 122.205302 
L 404.292433 121.060438 
L 406.016252 119.907565 
L 407.74007 118.753337 
L 409.463889 117.55889 
L 411.187707 116.321235 
L 412.911526 115.042853 
L 414.635344 113.696385 
L 416.359163 112.283187 
L 418.082981 110.805063 
L 419.8068 109.275043 
L 421.530618 107.721219 
L 423.254437 106.161866 
L 424.978255 104.563423 
L 426.702074 102.883808 
L 428.425892 101.064357 
L 430.149711 99.020062 
L 431.873529 96.627164 
L 433.597348 93.829761 
L 435.321166 90.553565 
L 437.044985 86.808163 
L 438.768803 82.690862 
L 440.492622 78.490809 
L 442.216441 74.321612 
L 443.940259 70.390909 
L 445.664078 67.844862 
L 447.387896 65.570083 
L 449.111715 63.682265 
" style="fill:none;stroke:#ff0000;stroke-linecap:square;stroke-width:1.5;"/>
   </g>
   <g id="patch_194">
    <path d="M 281.832365 137.71551 
L 281.832365 18.118365 
" style="fill:none;stroke:#000000;stroke-linecap:square;stroke-linejoin:miter;stroke-width:0.8;"/>
   </g>
   <g id="patch_195">
    <path d="M 457.79976 137.71551 
L 457.79976 18.118365 
" style="fill:none;stroke:#000000;stroke-linecap:square;stroke-linejoin:miter;stroke-width:0.8;"/>
   </g>
   <g id="patch_196">
    <path d="M 281.832365 137.71551 
L 457.79976 137.71551 
" style="fill:none;stroke:#000000;stroke-linecap:square;stroke-linejoin:miter;stroke-width:0.8;"/>
   </g>
   <g id="patch_197">
    <path d="M 281.832365 18.118365 
L 457.79976 18.118365 
" style="fill:none;stroke:#000000;stroke-linecap:square;stroke-linejoin:miter;stroke-width:0.8;"/>
   </g>
   <g id="text_24">
    <!-- Casos novos - MT -->
    <defs>
     <path d="M 54.890625 33.015625 
L 54.890625 0 
L 45.90625 0 
L 45.90625 32.71875 
Q 45.90625 40.484375 42.875 44.328125 
Q 39.84375 48.1875 33.796875 48.1875 
Q 26.515625 48.1875 22.3125 43.546875 
Q 18.109375 38.921875 18.109375 30.90625 
L 18.109375 0 
L 9.078125 0 
L 9.078125 54.6875 
L 18.109375 54.6875 
L 18.109375 46.1875 
Q 21.34375 51.125 25.703125 53.5625 
Q 30.078125 56 35.796875 56 
Q 45.21875 56 50.046875 50.171875 
Q 54.890625 44.34375 54.890625 33.015625 
z
" id="DejaVuSans-110"/>
    </defs>
    <g transform="translate(317.47825 12.118365)scale(0.12 -0.12)">
     <use xlink:href="#DejaVuSans-67"/>
     <use x="69.824219" xlink:href="#DejaVuSans-97"/>
     <use x="131.103516" xlink:href="#DejaVuSans-115"/>
     <use x="183.203125" xlink:href="#DejaVuSans-111"/>
     <use x="244.384766" xlink:href="#DejaVuSans-115"/>
     <use x="296.484375" xlink:href="#DejaVuSans-32"/>
     <use x="328.271484" xlink:href="#DejaVuSans-110"/>
     <use x="391.650391" xlink:href="#DejaVuSans-111"/>
     <use x="452.832031" xlink:href="#DejaVuSans-118"/>
     <use x="512.011719" xlink:href="#DejaVuSans-111"/>
     <use x="573.193359" xlink:href="#DejaVuSans-115"/>
     <use x="625.292969" xlink:href="#DejaVuSans-32"/>
     <use x="657.080078" xlink:href="#DejaVuSans-45"/>
     <use x="693.164062" xlink:href="#DejaVuSans-32"/>
     <use x="724.951172" xlink:href="#DejaVuSans-77"/>
     <use x="811.230469" xlink:href="#DejaVuSans-84"/>
    </g>
   </g>
  </g>
  <g id="axes_3">
   <g id="patch_198">
    <path d="M 55.490865 312.24351 
L 457.79976 312.24351 
L 457.79976 192.646365 
L 55.490865 192.646365 
z
" style="fill:#ffffff;"/>
   </g>
   <g id="matplotlib.axis_5">
    <g id="xtick_9">
     <g id="line2d_21">
      <g>
       <use style="stroke:#000000;stroke-width:0.8;" x="73.777633" xlink:href="#mdc5ae46f15" y="312.24351"/>
      </g>
     </g>
     <g id="text_25">
      <!-- 0 -->
      <g transform="translate(70.596383 326.841947)scale(0.1 -0.1)">
       <use xlink:href="#DejaVuSans-48"/>
      </g>
     </g>
    </g>
    <g id="xtick_10">
     <g id="line2d_22">
      <g>
       <use style="stroke:#000000;stroke-width:0.8;" x="153.28532" xlink:href="#mdc5ae46f15" y="312.24351"/>
      </g>
     </g>
     <g id="text_26">
      <!-- 20 -->
      <g transform="translate(146.92282 326.841947)scale(0.1 -0.1)">
       <use xlink:href="#DejaVuSans-50"/>
       <use x="63.623047" xlink:href="#DejaVuSans-48"/>
      </g>
     </g>
    </g>
    <g id="xtick_11">
     <g id="line2d_23">
      <g>
       <use style="stroke:#000000;stroke-width:0.8;" x="232.793006" xlink:href="#mdc5ae46f15" y="312.24351"/>
      </g>
     </g>
     <g id="text_27">
      <!-- 40 -->
      <g transform="translate(226.430506 326.841947)scale(0.1 -0.1)">
       <use xlink:href="#DejaVuSans-52"/>
       <use x="63.623047" xlink:href="#DejaVuSans-48"/>
      </g>
     </g>
    </g>
    <g id="xtick_12">
     <g id="line2d_24">
      <g>
       <use style="stroke:#000000;stroke-width:0.8;" x="312.300693" xlink:href="#mdc5ae46f15" y="312.24351"/>
      </g>
     </g>
     <g id="text_28">
      <!-- 60 -->
      <g transform="translate(305.938193 326.841947)scale(0.1 -0.1)">
       <use xlink:href="#DejaVuSans-54"/>
       <use x="63.623047" xlink:href="#DejaVuSans-48"/>
      </g>
     </g>
    </g>
    <g id="xtick_13">
     <g id="line2d_25">
      <g>
       <use style="stroke:#000000;stroke-width:0.8;" x="391.80838" xlink:href="#mdc5ae46f15" y="312.24351"/>
      </g>
     </g>
     <g id="text_29">
      <!-- 80 -->
      <g transform="translate(385.44588 326.841947)scale(0.1 -0.1)">
       <use xlink:href="#DejaVuSans-56"/>
       <use x="63.623047" xlink:href="#DejaVuSans-48"/>
      </g>
     </g>
    </g>
    <g id="text_30">
     <!-- Dias -->
     <g transform="translate(245.7375 340.520072)scale(0.1 -0.1)">
      <use xlink:href="#DejaVuSans-68"/>
      <use x="77.001953" xlink:href="#DejaVuSans-105"/>
      <use x="104.785156" xlink:href="#DejaVuSans-97"/>
      <use x="166.064453" xlink:href="#DejaVuSans-115"/>
     </g>
    </g>
   </g>
   <g id="matplotlib.axis_6">
    <g id="ytick_11">
     <g id="line2d_26">
      <g>
       <use style="stroke:#000000;stroke-width:0.8;" x="55.490865" xlink:href="#m36b142c07a" y="297.889722"/>
      </g>
     </g>
     <g id="text_31">
      <!-- 1 -->
      <g transform="translate(42.128365 301.688941)scale(0.1 -0.1)">
       <use xlink:href="#DejaVuSans-49"/>
      </g>
     </g>
    </g>
    <g id="ytick_12">
     <g id="line2d_27">
      <g>
       <use style="stroke:#000000;stroke-width:0.8;" x="55.490865" xlink:href="#m36b142c07a" y="251.624991"/>
      </g>
     </g>
     <g id="text_32">
      <!-- 2 -->
      <g transform="translate(42.128365 255.42421)scale(0.1 -0.1)">
       <use xlink:href="#DejaVuSans-50"/>
      </g>
     </g>
    </g>
    <g id="ytick_13">
     <g id="line2d_28">
      <g>
       <use style="stroke:#000000;stroke-width:0.8;" x="55.490865" xlink:href="#m36b142c07a" y="205.36026"/>
      </g>
     </g>
     <g id="text_33">
      <!-- 3 -->
      <defs>
       <path d="M 40.578125 39.3125 
Q 47.65625 37.796875 51.625 33 
Q 55.609375 28.21875 55.609375 21.1875 
Q 55.609375 10.40625 48.1875 4.484375 
Q 40.765625 -1.421875 27.09375 -1.421875 
Q 22.515625 -1.421875 17.65625 -0.515625 
Q 12.796875 0.390625 7.625 2.203125 
L 7.625 11.71875 
Q 11.71875 9.328125 16.59375 8.109375 
Q 21.484375 6.890625 26.8125 6.890625 
Q 36.078125 6.890625 40.9375 10.546875 
Q 45.796875 14.203125 45.796875 21.1875 
Q 45.796875 27.640625 41.28125 31.265625 
Q 36.765625 34.90625 28.71875 34.90625 
L 20.21875 34.90625 
L 20.21875 43.015625 
L 29.109375 43.015625 
Q 36.375 43.015625 40.234375 45.921875 
Q 44.09375 48.828125 44.09375 54.296875 
Q 44.09375 59.90625 40.109375 62.90625 
Q 36.140625 65.921875 28.71875 65.921875 
Q 24.65625 65.921875 20.015625 65.03125 
Q 15.375 64.15625 9.8125 62.3125 
L 9.8125 71.09375 
Q 15.4375 72.65625 20.34375 73.4375 
Q 25.25 74.21875 29.59375 74.21875 
Q 40.828125 74.21875 47.359375 69.109375 
Q 53.90625 64.015625 53.90625 55.328125 
Q 53.90625 49.265625 50.4375 45.09375 
Q 46.96875 40.921875 40.578125 39.3125 
z
" id="DejaVuSans-51"/>
      </defs>
      <g transform="translate(42.128365 209.159479)scale(0.1 -0.1)">
       <use xlink:href="#DejaVuSans-51"/>
      </g>
     </g>
    </g>
    <g id="text_34">
     <!-- r0 -->
     <defs>
      <path d="M 41.109375 46.296875 
Q 39.59375 47.171875 37.8125 47.578125 
Q 36.03125 48 33.890625 48 
Q 26.265625 48 22.1875 43.046875 
Q 18.109375 38.09375 18.109375 28.8125 
L 18.109375 0 
L 9.078125 0 
L 9.078125 54.6875 
L 18.109375 54.6875 
L 18.109375 46.1875 
Q 20.953125 51.171875 25.484375 53.578125 
Q 30.03125 56 36.53125 56 
Q 37.453125 56 38.578125 55.875 
Q 39.703125 55.765625 41.0625 55.515625 
z
" id="DejaVuSans-114"/>
     </defs>
     <g transform="translate(36.048678 257.681656)rotate(-90)scale(0.1 -0.1)">
      <use xlink:href="#DejaVuSans-114"/>
      <use x="41.113281" xlink:href="#DejaVuSans-48"/>
     </g>
    </g>
   </g>
   <g id="line2d_29">
    <path clip-path="url(#p426dc195c6)" d="M 73.777633 198.082599 
L 77.753017 210.735729 
L 81.728402 218.927099 
L 85.703786 237.159085 
L 89.67917 241.366233 
L 93.654555 244.526782 
L 97.629939 246.639871 
L 101.605323 247.247888 
L 105.580708 248.659892 
L 109.556092 251.306079 
L 113.531476 254.438933 
L 117.506861 258.648552 
L 121.482245 263.056284 
L 125.457629 268.004033 
L 129.433014 273.747194 
L 133.408398 279.567248 
L 137.383782 285.035128 
L 141.359167 290.301238 
L 145.334551 294.802386 
L 149.309935 299.175368 
L 153.28532 303.345296 
L 157.260704 305.852822 
L 161.236088 306.807276 
L 165.211473 306.42114 
L 169.186857 304.744753 
L 173.162241 302.023613 
L 177.137626 297.793424 
L 181.11301 291.272695 
L 185.088394 286.027455 
L 189.063779 282.530071 
L 193.039163 280.422373 
L 197.014547 279.391001 
L 200.989932 279.336082 
L 204.965316 280.174703 
L 208.9407 283.379305 
L 212.916085 285.778329 
L 216.891469 287.034266 
L 220.866853 287.118702 
L 224.842238 286.168002 
L 228.817622 284.148763 
L 232.793006 281.345381 
L 236.768391 276.217265 
L 240.743775 271.334142 
L 244.719159 267.209018 
L 248.694544 264.307728 
L 252.669928 262.395796 
L 256.645312 261.440684 
L 260.620697 261.334093 
L 264.596081 262.833502 
L 268.571466 264.86151 
L 272.54685 267.278305 
L 276.522234 269.686215 
L 280.497619 272.082461 
L 284.473003 274.436615 
L 288.448387 276.457955 
L 292.423772 277.340574 
L 296.399156 277.681971 
L 300.37454 277.216547 
L 304.349925 276.153919 
L 308.325309 274.912947 
L 312.300693 273.426868 
L 316.276078 272.092318 
L 320.251462 271.800387 
L 324.226846 271.746846 
L 328.202231 272.158307 
L 332.177615 273.247806 
L 336.152999 274.384938 
L 340.128384 275.664531 
L 344.103768 276.899853 
L 348.079152 277.377603 
L 352.054537 277.784716 
L 356.029921 278.208427 
L 360.005305 278.246091 
L 363.98069 278.335279 
L 367.956074 278.470496 
L 371.931458 278.767536 
L 375.906843 279.353233 
L 379.882227 280.069614 
L 383.857611 280.38383 
L 387.832996 280.283957 
L 391.80838 279.69648 
L 395.783764 278.497757 
L 399.759149 276.526792 
L 403.734533 274.501743 
L 407.709917 272.376987 
L 411.685302 270.780585 
L 415.660686 270.141495 
L 419.63607 271.270685 
L 423.611455 272.827295 
L 427.586839 275.164309 
L 431.562223 282.612391 
L 435.537608 284.144372 
L 439.512992 286.080913 
" style="fill:none;stroke:#ff0000;stroke-linecap:square;stroke-width:1.5;"/>
   </g>
   <g id="patch_199">
    <path d="M 55.490865 312.24351 
L 55.490865 192.646365 
" style="fill:none;stroke:#000000;stroke-linecap:square;stroke-linejoin:miter;stroke-width:0.8;"/>
   </g>
   <g id="patch_200">
    <path d="M 457.79976 312.24351 
L 457.79976 192.646365 
" style="fill:none;stroke:#000000;stroke-linecap:square;stroke-linejoin:miter;stroke-width:0.8;"/>
   </g>
   <g id="patch_201">
    <path d="M 55.490865 312.24351 
L 457.79976 312.24351 
" style="fill:none;stroke:#000000;stroke-linecap:square;stroke-linejoin:miter;stroke-width:0.8;"/>
   </g>
   <g id="patch_202">
    <path d="M 55.490865 192.646365 
L 457.79976 192.646365 
" style="fill:none;stroke:#000000;stroke-linecap:square;stroke-linejoin:miter;stroke-width:0.8;"/>
   </g>
   <g id="text_35">
    <!-- r0 aproximado - MT -->
    <defs>
     <path d="M 18.109375 8.203125 
L 18.109375 -20.796875 
L 9.078125 -20.796875 
L 9.078125 54.6875 
L 18.109375 54.6875 
L 18.109375 46.390625 
Q 20.953125 51.265625 25.265625 53.625 
Q 29.59375 56 35.59375 56 
Q 45.5625 56 51.78125 48.09375 
Q 58.015625 40.1875 58.015625 27.296875 
Q 58.015625 14.40625 51.78125 6.484375 
Q 45.5625 -1.421875 35.59375 -1.421875 
Q 29.59375 -1.421875 25.265625 0.953125 
Q 20.953125 3.328125 18.109375 8.203125 
z
M 48.6875 27.296875 
Q 48.6875 37.203125 44.609375 42.84375 
Q 40.53125 48.484375 33.40625 48.484375 
Q 26.265625 48.484375 22.1875 42.84375 
Q 18.109375 37.203125 18.109375 27.296875 
Q 18.109375 17.390625 22.1875 11.75 
Q 26.265625 6.109375 33.40625 6.109375 
Q 40.53125 6.109375 44.609375 11.75 
Q 48.6875 17.390625 48.6875 27.296875 
z
" id="DejaVuSans-112"/>
     <path d="M 54.890625 54.6875 
L 35.109375 28.078125 
L 55.90625 0 
L 45.3125 0 
L 29.390625 21.484375 
L 13.484375 0 
L 2.875 0 
L 24.125 28.609375 
L 4.6875 54.6875 
L 15.28125 54.6875 
L 29.78125 35.203125 
L 44.28125 54.6875 
z
" id="DejaVuSans-120"/>
    </defs>
    <g transform="translate(198.113437 186.646365)scale(0.12 -0.12)">
     <use xlink:href="#DejaVuSans-114"/>
     <use x="41.113281" xlink:href="#DejaVuSans-48"/>
     <use x="104.736328" xlink:href="#DejaVuSans-32"/>
     <use x="136.523438" xlink:href="#DejaVuSans-97"/>
     <use x="197.802734" xlink:href="#DejaVuSans-112"/>
     <use x="261.279297" xlink:href="#DejaVuSans-114"/>
     <use x="300.142578" xlink:href="#DejaVuSans-111"/>
     <use x="358.199219" xlink:href="#DejaVuSans-120"/>
     <use x="417.378906" xlink:href="#DejaVuSans-105"/>
     <use x="445.162109" xlink:href="#DejaVuSans-109"/>
     <use x="542.574219" xlink:href="#DejaVuSans-97"/>
     <use x="603.853516" xlink:href="#DejaVuSans-100"/>
     <use x="667.330078" xlink:href="#DejaVuSans-111"/>
     <use x="728.511719" xlink:href="#DejaVuSans-32"/>
     <use x="760.298828" xlink:href="#DejaVuSans-45"/>
     <use x="796.382812" xlink:href="#DejaVuSans-32"/>
     <use x="828.169922" xlink:href="#DejaVuSans-77"/>
     <use x="914.449219" xlink:href="#DejaVuSans-84"/>
    </g>
   </g>
  </g>
 </g>
 <defs>
  <clipPath id="p69642273ea">
   <rect height="119.597145" width="175.967395" x="55.490865" y="18.118365"/>
  </clipPath>
  <clipPath id="pc41a18fb58">
   <rect height="119.597145" width="175.967395" x="281.832365" y="18.118365"/>
  </clipPath>
  <clipPath id="p426dc195c6">
   <rect height="119.597145" width="402.308895" x="55.490865" y="192.646365"/>
  </clipPath>
 </defs>
</svg>
