<?xml version="1.0" encoding="utf-8" standalone="no"?>
<!DOCTYPE svg PUBLIC "-//W3C//DTD SVG 1.1//EN"
  "http://www.w3.org/Graphics/SVG/1.1/DTD/svg11.dtd">
<!-- Created with matplotlib (https://matplotlib.org/) -->
<svg height="345.6pt" version="1.1" viewBox="0 0 460.8 345.6" width="460.8pt" xmlns="http://www.w3.org/2000/svg" xmlns:xlink="http://www.w3.org/1999/xlink">
 <defs>
  <style type="text/css">
*{stroke-linecap:butt;stroke-linejoin:round;}
  </style>
 </defs>
 <g id="figure_1">
  <g id="patch_1">
   <path d="M 0 345.6 
L 460.8 345.6 
L 460.8 0 
L 0 0 
z
" style="fill:#ffffff;"/>
  </g>
  <g id="axes_1">
   <g id="patch_2">
    <path d="M 50.445552 325.921635 
L 136.285093 325.921635 
L 136.285093 18.118365 
L 50.445552 18.118365 
z
" style="fill:#ffffff;"/>
   </g>
   <g id="patch_3">
    <path clip-path="url(#p45355ca879)" d="M 54.34735 325.921635 
L 55.012901 325.921635 
L 55.012901 325.914741 
L 54.34735 325.914741 
z
" style="fill:#1f77b4;"/>
   </g>
   <g id="patch_4">
    <path clip-path="url(#p45355ca879)" d="M 55.179289 325.921635 
L 55.844841 325.921635 
L 55.844841 325.914741 
L 55.179289 325.914741 
z
" style="fill:#1f77b4;"/>
   </g>
   <g id="patch_5">
    <path clip-path="url(#p45355ca879)" d="M 56.011229 325.921635 
L 56.676781 325.921635 
L 56.676781 325.907848 
L 56.011229 325.907848 
z
" style="fill:#1f77b4;"/>
   </g>
   <g id="patch_6">
    <path clip-path="url(#p45355ca879)" d="M 56.843169 325.921635 
L 57.508721 325.921635 
L 57.508721 325.904401 
L 56.843169 325.904401 
z
" style="fill:#1f77b4;"/>
   </g>
   <g id="patch_7">
    <path clip-path="url(#p45355ca879)" d="M 57.675109 325.921635 
L 58.34066 325.921635 
L 58.34066 325.904401 
L 57.675109 325.904401 
z
" style="fill:#1f77b4;"/>
   </g>
   <g id="patch_8">
    <path clip-path="url(#p45355ca879)" d="M 58.507048 325.921635 
L 59.1726 325.921635 
L 59.1726 325.897508 
L 58.507048 325.897508 
z
" style="fill:#1f77b4;"/>
   </g>
   <g id="patch_9">
    <path clip-path="url(#p45355ca879)" d="M 59.338988 325.921635 
L 60.00454 325.921635 
L 60.00454 325.876827 
L 59.338988 325.876827 
z
" style="fill:#1f77b4;"/>
   </g>
   <g id="patch_10">
    <path clip-path="url(#p45355ca879)" d="M 60.170928 325.921635 
L 60.836479 325.921635 
L 60.836479 325.876827 
L 60.170928 325.876827 
z
" style="fill:#1f77b4;"/>
   </g>
   <g id="patch_11">
    <path clip-path="url(#p45355ca879)" d="M 61.002867 325.921635 
L 61.668419 325.921635 
L 61.668419 325.86304 
L 61.002867 325.86304 
z
" style="fill:#1f77b4;"/>
   </g>
   <g id="patch_12">
    <path clip-path="url(#p45355ca879)" d="M 61.834807 325.921635 
L 62.500359 325.921635 
L 62.500359 325.859593 
L 61.834807 325.859593 
z
" style="fill:#1f77b4;"/>
   </g>
   <g id="patch_13">
    <path clip-path="url(#p45355ca879)" d="M 62.666747 325.921635 
L 63.332299 325.921635 
L 63.332299 325.849253 
L 62.666747 325.849253 
z
" style="fill:#1f77b4;"/>
   </g>
   <g id="patch_14">
    <path clip-path="url(#p45355ca879)" d="M 63.498687 325.921635 
L 64.164238 325.921635 
L 64.164238 325.811338 
L 63.498687 325.811338 
z
" style="fill:#1f77b4;"/>
   </g>
   <g id="patch_15">
    <path clip-path="url(#p45355ca879)" d="M 64.330626 325.921635 
L 64.996178 325.921635 
L 64.996178 325.783764 
L 64.330626 325.783764 
z
" style="fill:#1f77b4;"/>
   </g>
   <g id="patch_16">
    <path clip-path="url(#p45355ca879)" d="M 65.162566 325.921635 
L 65.828118 325.921635 
L 65.828118 325.763083 
L 65.162566 325.763083 
z
" style="fill:#1f77b4;"/>
   </g>
   <g id="patch_17">
    <path clip-path="url(#p45355ca879)" d="M 65.994506 325.921635 
L 66.660058 325.921635 
L 66.660058 325.749296 
L 65.994506 325.749296 
z
" style="fill:#1f77b4;"/>
   </g>
   <g id="patch_18">
    <path clip-path="url(#p45355ca879)" d="M 66.826446 325.921635 
L 67.491997 325.921635 
L 67.491997 325.645892 
L 66.826446 325.645892 
z
" style="fill:#1f77b4;"/>
   </g>
   <g id="patch_19">
    <path clip-path="url(#p45355ca879)" d="M 67.658385 325.921635 
L 68.323937 325.921635 
L 68.323937 325.625212 
L 67.658385 325.625212 
z
" style="fill:#1f77b4;"/>
   </g>
   <g id="patch_20">
    <path clip-path="url(#p45355ca879)" d="M 68.490325 325.921635 
L 69.155877 325.921635 
L 69.155877 325.570063 
L 68.490325 325.570063 
z
" style="fill:#1f77b4;"/>
   </g>
   <g id="patch_21">
    <path clip-path="url(#p45355ca879)" d="M 69.322265 325.921635 
L 69.987816 325.921635 
L 69.987816 325.445979 
L 69.322265 325.445979 
z
" style="fill:#1f77b4;"/>
   </g>
   <g id="patch_22">
    <path clip-path="url(#p45355ca879)" d="M 70.154204 325.921635 
L 70.819756 325.921635 
L 70.819756 325.346022 
L 70.154204 325.346022 
z
" style="fill:#1f77b4;"/>
   </g>
   <g id="patch_23">
    <path clip-path="url(#p45355ca879)" d="M 70.986144 325.921635 
L 71.651696 325.921635 
L 71.651696 325.342575 
L 70.986144 325.342575 
z
" style="fill:#1f77b4;"/>
   </g>
   <g id="patch_24">
    <path clip-path="url(#p45355ca879)" d="M 71.818084 325.921635 
L 72.483636 325.921635 
L 72.483636 325.335682 
L 71.818084 325.335682 
z
" style="fill:#1f77b4;"/>
   </g>
   <g id="patch_25">
    <path clip-path="url(#p45355ca879)" d="M 72.650024 325.921635 
L 73.315575 325.921635 
L 73.315575 325.173683 
L 72.650024 325.173683 
z
" style="fill:#1f77b4;"/>
   </g>
   <g id="patch_26">
    <path clip-path="url(#p45355ca879)" d="M 73.481963 325.921635 
L 74.147515 325.921635 
L 74.147515 325.073726 
L 73.481963 325.073726 
z
" style="fill:#1f77b4;"/>
   </g>
   <g id="patch_27">
    <path clip-path="url(#p45355ca879)" d="M 74.313903 325.921635 
L 74.979455 325.921635 
L 74.979455 324.991003 
L 74.313903 324.991003 
z
" style="fill:#1f77b4;"/>
   </g>
   <g id="patch_28">
    <path clip-path="url(#p45355ca879)" d="M 75.145843 325.921635 
L 75.811395 325.921635 
L 75.811395 324.808324 
L 75.145843 324.808324 
z
" style="fill:#1f77b4;"/>
   </g>
   <g id="patch_29">
    <path clip-path="url(#p45355ca879)" d="M 75.977783 325.921635 
L 76.643334 325.921635 
L 76.643334 324.59807 
L 75.977783 324.59807 
z
" style="fill:#1f77b4;"/>
   </g>
   <g id="patch_30">
    <path clip-path="url(#p45355ca879)" d="M 76.809722 325.921635 
L 77.475274 325.921635 
L 77.475274 324.411944 
L 76.809722 324.411944 
z
" style="fill:#1f77b4;"/>
   </g>
   <g id="patch_31">
    <path clip-path="url(#p45355ca879)" d="M 77.641662 325.921635 
L 78.307214 325.921635 
L 78.307214 324.001776 
L 77.641662 324.001776 
z
" style="fill:#1f77b4;"/>
   </g>
   <g id="patch_32">
    <path clip-path="url(#p45355ca879)" d="M 78.473602 325.921635 
L 79.139153 325.921635 
L 79.139153 323.715693 
L 78.473602 323.715693 
z
" style="fill:#1f77b4;"/>
   </g>
   <g id="patch_33">
    <path clip-path="url(#p45355ca879)" d="M 79.305541 325.921635 
L 79.971093 325.921635 
L 79.971093 323.560588 
L 79.305541 323.560588 
z
" style="fill:#1f77b4;"/>
   </g>
   <g id="patch_34">
    <path clip-path="url(#p45355ca879)" d="M 80.137481 325.921635 
L 80.803033 325.921635 
L 80.803033 322.812636 
L 80.137481 322.812636 
z
" style="fill:#1f77b4;"/>
   </g>
   <g id="patch_35">
    <path clip-path="url(#p45355ca879)" d="M 80.969421 325.921635 
L 81.634973 325.921635 
L 81.634973 322.385235 
L 80.969421 322.385235 
z
" style="fill:#1f77b4;"/>
   </g>
   <g id="patch_36">
    <path clip-path="url(#p45355ca879)" d="M 81.801361 325.921635 
L 82.466912 325.921635 
L 82.466912 321.802728 
L 81.801361 321.802728 
z
" style="fill:#1f77b4;"/>
   </g>
   <g id="patch_37">
    <path clip-path="url(#p45355ca879)" d="M 82.6333 325.921635 
L 83.298852 325.921635 
L 83.298852 321.55456 
L 82.6333 321.55456 
z
" style="fill:#1f77b4;"/>
   </g>
   <g id="patch_38">
    <path clip-path="url(#p45355ca879)" d="M 83.46524 325.921635 
L 84.130792 325.921635 
L 84.130792 320.937585 
L 83.46524 320.937585 
z
" style="fill:#1f77b4;"/>
   </g>
   <g id="patch_39">
    <path clip-path="url(#p45355ca879)" d="M 84.29718 325.921635 
L 84.962732 325.921635 
L 84.962732 320.479163 
L 84.29718 320.479163 
z
" style="fill:#1f77b4;"/>
   </g>
   <g id="patch_40">
    <path clip-path="url(#p45355ca879)" d="M 85.12912 325.921635 
L 85.794671 325.921635 
L 85.794671 319.486489 
L 85.12912 319.486489 
z
" style="fill:#1f77b4;"/>
   </g>
   <g id="patch_41">
    <path clip-path="url(#p45355ca879)" d="M 85.961059 325.921635 
L 86.626611 325.921635 
L 86.626611 318.586879 
L 85.961059 318.586879 
z
" style="fill:#1f77b4;"/>
   </g>
   <g id="patch_42">
    <path clip-path="url(#p45355ca879)" d="M 86.792999 325.921635 
L 87.458551 325.921635 
L 87.458551 318.12501 
L 86.792999 318.12501 
z
" style="fill:#1f77b4;"/>
   </g>
   <g id="patch_43">
    <path clip-path="url(#p45355ca879)" d="M 87.624939 325.921635 
L 88.29049 325.921635 
L 88.29049 317.573524 
L 87.624939 317.573524 
z
" style="fill:#1f77b4;"/>
   </g>
   <g id="patch_44">
    <path clip-path="url(#p45355ca879)" d="M 88.456878 325.921635 
L 89.12243 325.921635 
L 89.12243 316.008684 
L 88.456878 316.008684 
z
" style="fill:#1f77b4;"/>
   </g>
   <g id="patch_45">
    <path clip-path="url(#p45355ca879)" d="M 89.288818 325.921635 
L 89.95437 325.921635 
L 89.95437 314.974649 
L 89.288818 314.974649 
z
" style="fill:#1f77b4;"/>
   </g>
   <g id="patch_46">
    <path clip-path="url(#p45355ca879)" d="M 90.120758 325.921635 
L 90.78631 325.921635 
L 90.78631 313.995762 
L 90.120758 313.995762 
z
" style="fill:#1f77b4;"/>
   </g>
   <g id="patch_47">
    <path clip-path="url(#p45355ca879)" d="M 90.952698 325.921635 
L 91.618249 325.921635 
L 91.618249 312.606708 
L 90.952698 312.606708 
z
" style="fill:#1f77b4;"/>
   </g>
   <g id="patch_48">
    <path clip-path="url(#p45355ca879)" d="M 91.784637 325.921635 
L 92.450189 325.921635 
L 92.450189 311.703651 
L 91.784637 311.703651 
z
" style="fill:#1f77b4;"/>
   </g>
   <g id="patch_49">
    <path clip-path="url(#p45355ca879)" d="M 92.616577 325.921635 
L 93.282129 325.921635 
L 93.282129 310.507617 
L 92.616577 310.507617 
z
" style="fill:#1f77b4;"/>
   </g>
   <g id="patch_50">
    <path clip-path="url(#p45355ca879)" d="M 93.448517 325.921635 
L 94.114069 325.921635 
L 94.114069 308.62912 
L 93.448517 308.62912 
z
" style="fill:#1f77b4;"/>
   </g>
   <g id="patch_51">
    <path clip-path="url(#p45355ca879)" d="M 94.280457 325.921635 
L 94.946008 325.921635 
L 94.946008 306.8816 
L 94.280457 306.8816 
z
" style="fill:#1f77b4;"/>
   </g>
   <g id="patch_52">
    <path clip-path="url(#p45355ca879)" d="M 95.112396 325.921635 
L 95.777948 325.921635 
L 95.777948 304.754935 
L 95.112396 304.754935 
z
" style="fill:#1f77b4;"/>
   </g>
   <g id="patch_53">
    <path clip-path="url(#p45355ca879)" d="M 95.944336 325.921635 
L 96.609888 325.921635 
L 96.609888 302.569674 
L 95.944336 302.569674 
z
" style="fill:#1f77b4;"/>
   </g>
   <g id="patch_54">
    <path clip-path="url(#p45355ca879)" d="M 96.776276 325.921635 
L 97.441827 325.921635 
L 97.441827 300.91177 
L 96.776276 300.91177 
z
" style="fill:#1f77b4;"/>
   </g>
   <g id="patch_55">
    <path clip-path="url(#p45355ca879)" d="M 97.608215 325.921635 
L 98.273767 325.921635 
L 98.273767 299.853608 
L 97.608215 299.853608 
z
" style="fill:#1f77b4;"/>
   </g>
   <g id="patch_56">
    <path clip-path="url(#p45355ca879)" d="M 98.440155 325.921635 
L 99.105707 325.921635 
L 99.105707 296.224144 
L 98.440155 296.224144 
z
" style="fill:#1f77b4;"/>
   </g>
   <g id="patch_57">
    <path clip-path="url(#p45355ca879)" d="M 99.272095 325.921635 
L 99.937647 325.921635 
L 99.937647 292.770467 
L 99.272095 292.770467 
z
" style="fill:#1f77b4;"/>
   </g>
   <g id="patch_58">
    <path clip-path="url(#p45355ca879)" d="M 100.104035 325.921635 
L 100.769586 325.921635 
L 100.769586 288.465433 
L 100.104035 288.465433 
z
" style="fill:#1f77b4;"/>
   </g>
   <g id="patch_59">
    <path clip-path="url(#p45355ca879)" d="M 100.935974 325.921635 
L 101.601526 325.921635 
L 101.601526 284.184528 
L 100.935974 284.184528 
z
" style="fill:#1f77b4;"/>
   </g>
   <g id="patch_60">
    <path clip-path="url(#p45355ca879)" d="M 101.767914 325.921635 
L 102.433466 325.921635 
L 102.433466 280.479235 
L 101.767914 280.479235 
z
" style="fill:#1f77b4;"/>
   </g>
   <g id="patch_61">
    <path clip-path="url(#p45355ca879)" d="M 102.599854 325.921635 
L 103.265406 325.921635 
L 103.265406 278.135422 
L 102.599854 278.135422 
z
" style="fill:#1f77b4;"/>
   </g>
   <g id="patch_62">
    <path clip-path="url(#p45355ca879)" d="M 103.431794 325.921635 
L 104.097345 325.921635 
L 104.097345 275.13672 
L 103.431794 275.13672 
z
" style="fill:#1f77b4;"/>
   </g>
   <g id="patch_63">
    <path clip-path="url(#p45355ca879)" d="M 104.263733 325.921635 
L 104.929285 325.921635 
L 104.929285 269.75629 
L 104.263733 269.75629 
z
" style="fill:#1f77b4;"/>
   </g>
   <g id="patch_64">
    <path clip-path="url(#p45355ca879)" d="M 105.095673 325.921635 
L 105.761225 325.921635 
L 105.761225 263.414208 
L 105.095673 263.414208 
z
" style="fill:#1f77b4;"/>
   </g>
   <g id="patch_65">
    <path clip-path="url(#p45355ca879)" d="M 105.927613 325.921635 
L 106.593164 325.921635 
L 106.593164 257.826971 
L 105.927613 257.826971 
z
" style="fill:#1f77b4;"/>
   </g>
   <g id="patch_66">
    <path clip-path="url(#p45355ca879)" d="M 106.759552 325.921635 
L 107.425104 325.921635 
L 107.425104 251.92263 
L 106.759552 251.92263 
z
" style="fill:#1f77b4;"/>
   </g>
   <g id="patch_67">
    <path clip-path="url(#p45355ca879)" d="M 107.591492 325.921635 
L 108.257044 325.921635 
L 108.257044 247.689979 
L 107.591492 247.689979 
z
" style="fill:#1f77b4;"/>
   </g>
   <g id="patch_68">
    <path clip-path="url(#p45355ca879)" d="M 108.423432 325.921635 
L 109.088984 325.921635 
L 109.088984 242.767971 
L 108.423432 242.767971 
z
" style="fill:#1f77b4;"/>
   </g>
   <g id="patch_69">
    <path clip-path="url(#p45355ca879)" d="M 109.255372 325.921635 
L 109.920923 325.921635 
L 109.920923 236.039849 
L 109.255372 236.039849 
z
" style="fill:#1f77b4;"/>
   </g>
   <g id="patch_70">
    <path clip-path="url(#p45355ca879)" d="M 110.087311 325.921635 
L 110.752863 325.921635 
L 110.752863 227.343613 
L 110.087311 227.343613 
z
" style="fill:#1f77b4;"/>
   </g>
   <g id="patch_71">
    <path clip-path="url(#p45355ca879)" d="M 110.919251 325.921635 
L 111.584803 325.921635 
L 111.584803 218.957588 
L 110.919251 218.957588 
z
" style="fill:#1f77b4;"/>
   </g>
   <g id="patch_72">
    <path clip-path="url(#p45355ca879)" d="M 111.751191 325.921635 
L 112.416743 325.921635 
L 112.416743 209.768462 
L 111.751191 209.768462 
z
" style="fill:#1f77b4;"/>
   </g>
   <g id="patch_73">
    <path clip-path="url(#p45355ca879)" d="M 112.583131 325.921635 
L 113.248682 325.921635 
L 113.248682 200.162275 
L 112.583131 200.162275 
z
" style="fill:#1f77b4;"/>
   </g>
   <g id="patch_74">
    <path clip-path="url(#p45355ca879)" d="M 113.41507 325.921635 
L 114.080622 325.921635 
L 114.080622 197.37038 
L 113.41507 197.37038 
z
" style="fill:#1f77b4;"/>
   </g>
   <g id="patch_75">
    <path clip-path="url(#p45355ca879)" d="M 114.24701 325.921635 
L 114.912562 325.921635 
L 114.912562 195.078268 
L 114.24701 195.078268 
z
" style="fill:#1f77b4;"/>
   </g>
   <g id="patch_76">
    <path clip-path="url(#p45355ca879)" d="M 115.07895 325.921635 
L 115.744501 325.921635 
L 115.744501 194.785292 
L 115.07895 194.785292 
z
" style="fill:#1f77b4;"/>
   </g>
   <g id="patch_77">
    <path clip-path="url(#p45355ca879)" d="M 115.910889 325.921635 
L 116.576441 325.921635 
L 116.576441 183.890008 
L 115.910889 183.890008 
z
" style="fill:#1f77b4;"/>
   </g>
   <g id="patch_78">
    <path clip-path="url(#p45355ca879)" d="M 116.742829 325.921635 
L 117.408381 325.921635 
L 117.408381 171.595329 
L 116.742829 171.595329 
z
" style="fill:#1f77b4;"/>
   </g>
   <g id="patch_79">
    <path clip-path="url(#p45355ca879)" d="M 117.574769 325.921635 
L 118.240321 325.921635 
L 118.240321 160.307112 
L 117.574769 160.307112 
z
" style="fill:#1f77b4;"/>
   </g>
   <g id="patch_80">
    <path clip-path="url(#p45355ca879)" d="M 118.406709 325.921635 
L 119.07226 325.921635 
L 119.07226 150.273523 
L 118.406709 150.273523 
z
" style="fill:#1f77b4;"/>
   </g>
   <g id="patch_81">
    <path clip-path="url(#p45355ca879)" d="M 119.238648 325.921635 
L 119.9042 325.921635 
L 119.9042 142.63545 
L 119.238648 142.63545 
z
" style="fill:#1f77b4;"/>
   </g>
   <g id="patch_82">
    <path clip-path="url(#p45355ca879)" d="M 120.070588 325.921635 
L 120.73614 325.921635 
L 120.73614 138.861222 
L 120.070588 138.861222 
z
" style="fill:#1f77b4;"/>
   </g>
   <g id="patch_83">
    <path clip-path="url(#p45355ca879)" d="M 120.902528 325.921635 
L 121.56808 325.921635 
L 121.56808 132.791435 
L 120.902528 132.791435 
z
" style="fill:#1f77b4;"/>
   </g>
   <g id="patch_84">
    <path clip-path="url(#p45355ca879)" d="M 121.734468 325.921635 
L 122.400019 325.921635 
L 122.400019 122.051256 
L 121.734468 122.051256 
z
" style="fill:#1f77b4;"/>
   </g>
   <g id="patch_85">
    <path clip-path="url(#p45355ca879)" d="M 122.566407 325.921635 
L 123.231959 325.921635 
L 123.231959 111.893584 
L 122.566407 111.893584 
z
" style="fill:#1f77b4;"/>
   </g>
   <g id="patch_86">
    <path clip-path="url(#p45355ca879)" d="M 123.398347 325.921635 
L 124.063899 325.921635 
L 124.063899 104.893166 
L 123.398347 104.893166 
z
" style="fill:#1f77b4;"/>
   </g>
   <g id="patch_87">
    <path clip-path="url(#p45355ca879)" d="M 124.230287 325.921635 
L 124.895838 325.921635 
L 124.895838 97.303347 
L 124.230287 97.303347 
z
" style="fill:#1f77b4;"/>
   </g>
   <g id="patch_88">
    <path clip-path="url(#p45355ca879)" d="M 125.062226 325.921635 
L 125.727778 325.921635 
L 125.727778 89.782465 
L 125.062226 89.782465 
z
" style="fill:#1f77b4;"/>
   </g>
   <g id="patch_89">
    <path clip-path="url(#p45355ca879)" d="M 125.894166 325.921635 
L 126.559718 325.921635 
L 126.559718 87.476566 
L 125.894166 87.476566 
z
" style="fill:#1f77b4;"/>
   </g>
   <g id="patch_90">
    <path clip-path="url(#p45355ca879)" d="M 126.726106 325.921635 
L 127.391658 325.921635 
L 127.391658 87.321461 
L 126.726106 87.321461 
z
" style="fill:#1f77b4;"/>
   </g>
   <g id="patch_91">
    <path clip-path="url(#p45355ca879)" d="M 127.558046 325.921635 
L 128.223597 325.921635 
L 128.223597 80.362404 
L 127.558046 80.362404 
z
" style="fill:#1f77b4;"/>
   </g>
   <g id="patch_92">
    <path clip-path="url(#p45355ca879)" d="M 128.389985 325.921635 
L 129.055537 325.921635 
L 129.055537 70.197838 
L 128.389985 70.197838 
z
" style="fill:#1f77b4;"/>
   </g>
   <g id="patch_93">
    <path clip-path="url(#p45355ca879)" d="M 129.221925 325.921635 
L 129.887477 325.921635 
L 129.887477 61.818706 
L 129.221925 61.818706 
z
" style="fill:#1f77b4;"/>
   </g>
   <g id="patch_94">
    <path clip-path="url(#p45355ca879)" d="M 130.053865 325.921635 
L 130.719417 325.921635 
L 130.719417 49.930748 
L 130.053865 49.930748 
z
" style="fill:#1f77b4;"/>
   </g>
   <g id="patch_95">
    <path clip-path="url(#p45355ca879)" d="M 130.885805 325.921635 
L 131.551356 325.921635 
L 131.551356 40.248732 
L 130.885805 40.248732 
z
" style="fill:#1f77b4;"/>
   </g>
   <g id="patch_96">
    <path clip-path="url(#p45355ca879)" d="M 131.717744 325.921635 
L 132.383296 325.921635 
L 132.383296 34.137584 
L 131.717744 34.137584 
z
" style="fill:#1f77b4;"/>
   </g>
   <g id="matplotlib.axis_1">
    <g id="xtick_1">
     <g id="line2d_1">
      <defs>
       <path d="M 0 0 
L 0 3.5 
" id="mfbd93c7875" style="stroke:#000000;stroke-width:0.8;"/>
      </defs>
      <g>
       <use style="stroke:#000000;stroke-width:0.8;" x="54.680126" xlink:href="#mfbd93c7875" y="325.921635"/>
      </g>
     </g>
     <g id="text_1">
      <!-- 0 -->
      <defs>
       <path d="M 31.78125 66.40625 
Q 24.171875 66.40625 20.328125 58.90625 
Q 16.5 51.421875 16.5 36.375 
Q 16.5 21.390625 20.328125 13.890625 
Q 24.171875 6.390625 31.78125 6.390625 
Q 39.453125 6.390625 43.28125 13.890625 
Q 47.125 21.390625 47.125 36.375 
Q 47.125 51.421875 43.28125 58.90625 
Q 39.453125 66.40625 31.78125 66.40625 
z
M 31.78125 74.21875 
Q 44.046875 74.21875 50.515625 64.515625 
Q 56.984375 54.828125 56.984375 36.375 
Q 56.984375 17.96875 50.515625 8.265625 
Q 44.046875 -1.421875 31.78125 -1.421875 
Q 19.53125 -1.421875 13.0625 8.265625 
Q 6.59375 17.96875 6.59375 36.375 
Q 6.59375 54.828125 13.0625 64.515625 
Q 19.53125 74.21875 31.78125 74.21875 
z
" id="DejaVuSans-48"/>
      </defs>
      <g transform="translate(51.498876 340.520072)scale(0.1 -0.1)">
       <use xlink:href="#DejaVuSans-48"/>
      </g>
     </g>
    </g>
    <g id="xtick_2">
     <g id="line2d_2">
      <g>
       <use style="stroke:#000000;stroke-width:0.8;" x="96.277112" xlink:href="#mfbd93c7875" y="325.921635"/>
      </g>
     </g>
     <g id="text_2">
      <!-- 50 -->
      <defs>
       <path d="M 10.796875 72.90625 
L 49.515625 72.90625 
L 49.515625 64.59375 
L 19.828125 64.59375 
L 19.828125 46.734375 
Q 21.96875 47.46875 24.109375 47.828125 
Q 26.265625 48.1875 28.421875 48.1875 
Q 40.625 48.1875 47.75 41.5 
Q 54.890625 34.8125 54.890625 23.390625 
Q 54.890625 11.625 47.5625 5.09375 
Q 40.234375 -1.421875 26.90625 -1.421875 
Q 22.3125 -1.421875 17.546875 -0.640625 
Q 12.796875 0.140625 7.71875 1.703125 
L 7.71875 11.625 
Q 12.109375 9.234375 16.796875 8.0625 
Q 21.484375 6.890625 26.703125 6.890625 
Q 35.15625 6.890625 40.078125 11.328125 
Q 45.015625 15.765625 45.015625 23.390625 
Q 45.015625 31 40.078125 35.4375 
Q 35.15625 39.890625 26.703125 39.890625 
Q 22.75 39.890625 18.8125 39.015625 
Q 14.890625 38.140625 10.796875 36.28125 
z
" id="DejaVuSans-53"/>
      </defs>
      <g transform="translate(89.914612 340.520072)scale(0.1 -0.1)">
       <use xlink:href="#DejaVuSans-53"/>
       <use x="63.623047" xlink:href="#DejaVuSans-48"/>
      </g>
     </g>
    </g>
   </g>
   <g id="matplotlib.axis_2">
    <g id="ytick_1">
     <g id="line2d_3">
      <defs>
       <path d="M 0 0 
L -3.5 0 
" id="mb85349c518" style="stroke:#000000;stroke-width:0.8;"/>
      </defs>
      <g>
       <use style="stroke:#000000;stroke-width:0.8;" x="50.445552" xlink:href="#mb85349c518" y="325.921635"/>
      </g>
     </g>
     <g id="text_3">
      <!-- 0 -->
      <g transform="translate(37.083052 329.720854)scale(0.1 -0.1)">
       <use xlink:href="#DejaVuSans-48"/>
      </g>
     </g>
    </g>
    <g id="ytick_2">
     <g id="line2d_4">
      <g>
       <use style="stroke:#000000;stroke-width:0.8;" x="50.445552" xlink:href="#mb85349c518" y="291.453795"/>
      </g>
     </g>
     <g id="text_4">
      <!-- 10000 -->
      <defs>
       <path d="M 12.40625 8.296875 
L 28.515625 8.296875 
L 28.515625 63.921875 
L 10.984375 60.40625 
L 10.984375 69.390625 
L 28.421875 72.90625 
L 38.28125 72.90625 
L 38.28125 8.296875 
L 54.390625 8.296875 
L 54.390625 0 
L 12.40625 0 
z
" id="DejaVuSans-49"/>
      </defs>
      <g transform="translate(11.633052 295.253014)scale(0.1 -0.1)">
       <use xlink:href="#DejaVuSans-49"/>
       <use x="63.623047" xlink:href="#DejaVuSans-48"/>
       <use x="127.246094" xlink:href="#DejaVuSans-48"/>
       <use x="190.869141" xlink:href="#DejaVuSans-48"/>
       <use x="254.492188" xlink:href="#DejaVuSans-48"/>
      </g>
     </g>
    </g>
    <g id="ytick_3">
     <g id="line2d_5">
      <g>
       <use style="stroke:#000000;stroke-width:0.8;" x="50.445552" xlink:href="#mb85349c518" y="256.985955"/>
      </g>
     </g>
     <g id="text_5">
      <!-- 20000 -->
      <defs>
       <path d="M 19.1875 8.296875 
L 53.609375 8.296875 
L 53.609375 0 
L 7.328125 0 
L 7.328125 8.296875 
Q 12.9375 14.109375 22.625 23.890625 
Q 32.328125 33.6875 34.8125 36.53125 
Q 39.546875 41.84375 41.421875 45.53125 
Q 43.3125 49.21875 43.3125 52.78125 
Q 43.3125 58.59375 39.234375 62.25 
Q 35.15625 65.921875 28.609375 65.921875 
Q 23.96875 65.921875 18.8125 64.3125 
Q 13.671875 62.703125 7.8125 59.421875 
L 7.8125 69.390625 
Q 13.765625 71.78125 18.9375 73 
Q 24.125 74.21875 28.421875 74.21875 
Q 39.75 74.21875 46.484375 68.546875 
Q 53.21875 62.890625 53.21875 53.421875 
Q 53.21875 48.921875 51.53125 44.890625 
Q 49.859375 40.875 45.40625 35.40625 
Q 44.1875 33.984375 37.640625 27.21875 
Q 31.109375 20.453125 19.1875 8.296875 
z
" id="DejaVuSans-50"/>
      </defs>
      <g transform="translate(11.633052 260.785174)scale(0.1 -0.1)">
       <use xlink:href="#DejaVuSans-50"/>
       <use x="63.623047" xlink:href="#DejaVuSans-48"/>
       <use x="127.246094" xlink:href="#DejaVuSans-48"/>
       <use x="190.869141" xlink:href="#DejaVuSans-48"/>
       <use x="254.492188" xlink:href="#DejaVuSans-48"/>
      </g>
     </g>
    </g>
    <g id="ytick_4">
     <g id="line2d_6">
      <g>
       <use style="stroke:#000000;stroke-width:0.8;" x="50.445552" xlink:href="#mb85349c518" y="222.518116"/>
      </g>
     </g>
     <g id="text_6">
      <!-- 30000 -->
      <defs>
       <path d="M 40.578125 39.3125 
Q 47.65625 37.796875 51.625 33 
Q 55.609375 28.21875 55.609375 21.1875 
Q 55.609375 10.40625 48.1875 4.484375 
Q 40.765625 -1.421875 27.09375 -1.421875 
Q 22.515625 -1.421875 17.65625 -0.515625 
Q 12.796875 0.390625 7.625 2.203125 
L 7.625 11.71875 
Q 11.71875 9.328125 16.59375 8.109375 
Q 21.484375 6.890625 26.8125 6.890625 
Q 36.078125 6.890625 40.9375 10.546875 
Q 45.796875 14.203125 45.796875 21.1875 
Q 45.796875 27.640625 41.28125 31.265625 
Q 36.765625 34.90625 28.71875 34.90625 
L 20.21875 34.90625 
L 20.21875 43.015625 
L 29.109375 43.015625 
Q 36.375 43.015625 40.234375 45.921875 
Q 44.09375 48.828125 44.09375 54.296875 
Q 44.09375 59.90625 40.109375 62.90625 
Q 36.140625 65.921875 28.71875 65.921875 
Q 24.65625 65.921875 20.015625 65.03125 
Q 15.375 64.15625 9.8125 62.3125 
L 9.8125 71.09375 
Q 15.4375 72.65625 20.34375 73.4375 
Q 25.25 74.21875 29.59375 74.21875 
Q 40.828125 74.21875 47.359375 69.109375 
Q 53.90625 64.015625 53.90625 55.328125 
Q 53.90625 49.265625 50.4375 45.09375 
Q 46.96875 40.921875 40.578125 39.3125 
z
" id="DejaVuSans-51"/>
      </defs>
      <g transform="translate(11.633052 226.317334)scale(0.1 -0.1)">
       <use xlink:href="#DejaVuSans-51"/>
       <use x="63.623047" xlink:href="#DejaVuSans-48"/>
       <use x="127.246094" xlink:href="#DejaVuSans-48"/>
       <use x="190.869141" xlink:href="#DejaVuSans-48"/>
       <use x="254.492188" xlink:href="#DejaVuSans-48"/>
      </g>
     </g>
    </g>
    <g id="ytick_5">
     <g id="line2d_7">
      <g>
       <use style="stroke:#000000;stroke-width:0.8;" x="50.445552" xlink:href="#mb85349c518" y="188.050276"/>
      </g>
     </g>
     <g id="text_7">
      <!-- 40000 -->
      <defs>
       <path d="M 37.796875 64.3125 
L 12.890625 25.390625 
L 37.796875 25.390625 
z
M 35.203125 72.90625 
L 47.609375 72.90625 
L 47.609375 25.390625 
L 58.015625 25.390625 
L 58.015625 17.1875 
L 47.609375 17.1875 
L 47.609375 0 
L 37.796875 0 
L 37.796875 17.1875 
L 4.890625 17.1875 
L 4.890625 26.703125 
z
" id="DejaVuSans-52"/>
      </defs>
      <g transform="translate(11.633052 191.849495)scale(0.1 -0.1)">
       <use xlink:href="#DejaVuSans-52"/>
       <use x="63.623047" xlink:href="#DejaVuSans-48"/>
       <use x="127.246094" xlink:href="#DejaVuSans-48"/>
       <use x="190.869141" xlink:href="#DejaVuSans-48"/>
       <use x="254.492188" xlink:href="#DejaVuSans-48"/>
      </g>
     </g>
    </g>
    <g id="ytick_6">
     <g id="line2d_8">
      <g>
       <use style="stroke:#000000;stroke-width:0.8;" x="50.445552" xlink:href="#mb85349c518" y="153.582436"/>
      </g>
     </g>
     <g id="text_8">
      <!-- 50000 -->
      <g transform="translate(11.633052 157.381655)scale(0.1 -0.1)">
       <use xlink:href="#DejaVuSans-53"/>
       <use x="63.623047" xlink:href="#DejaVuSans-48"/>
       <use x="127.246094" xlink:href="#DejaVuSans-48"/>
       <use x="190.869141" xlink:href="#DejaVuSans-48"/>
       <use x="254.492188" xlink:href="#DejaVuSans-48"/>
      </g>
     </g>
    </g>
    <g id="ytick_7">
     <g id="line2d_9">
      <g>
       <use style="stroke:#000000;stroke-width:0.8;" x="50.445552" xlink:href="#mb85349c518" y="119.114596"/>
      </g>
     </g>
     <g id="text_9">
      <!-- 60000 -->
      <defs>
       <path d="M 33.015625 40.375 
Q 26.375 40.375 22.484375 35.828125 
Q 18.609375 31.296875 18.609375 23.390625 
Q 18.609375 15.53125 22.484375 10.953125 
Q 26.375 6.390625 33.015625 6.390625 
Q 39.65625 6.390625 43.53125 10.953125 
Q 47.40625 15.53125 47.40625 23.390625 
Q 47.40625 31.296875 43.53125 35.828125 
Q 39.65625 40.375 33.015625 40.375 
z
M 52.59375 71.296875 
L 52.59375 62.3125 
Q 48.875 64.0625 45.09375 64.984375 
Q 41.3125 65.921875 37.59375 65.921875 
Q 27.828125 65.921875 22.671875 59.328125 
Q 17.53125 52.734375 16.796875 39.40625 
Q 19.671875 43.65625 24.015625 45.921875 
Q 28.375 48.1875 33.59375 48.1875 
Q 44.578125 48.1875 50.953125 41.515625 
Q 57.328125 34.859375 57.328125 23.390625 
Q 57.328125 12.15625 50.6875 5.359375 
Q 44.046875 -1.421875 33.015625 -1.421875 
Q 20.359375 -1.421875 13.671875 8.265625 
Q 6.984375 17.96875 6.984375 36.375 
Q 6.984375 53.65625 15.1875 63.9375 
Q 23.390625 74.21875 37.203125 74.21875 
Q 40.921875 74.21875 44.703125 73.484375 
Q 48.484375 72.75 52.59375 71.296875 
z
" id="DejaVuSans-54"/>
      </defs>
      <g transform="translate(11.633052 122.913815)scale(0.1 -0.1)">
       <use xlink:href="#DejaVuSans-54"/>
       <use x="63.623047" xlink:href="#DejaVuSans-48"/>
       <use x="127.246094" xlink:href="#DejaVuSans-48"/>
       <use x="190.869141" xlink:href="#DejaVuSans-48"/>
       <use x="254.492188" xlink:href="#DejaVuSans-48"/>
      </g>
     </g>
    </g>
    <g id="ytick_8">
     <g id="line2d_10">
      <g>
       <use style="stroke:#000000;stroke-width:0.8;" x="50.445552" xlink:href="#mb85349c518" y="84.646756"/>
      </g>
     </g>
     <g id="text_10">
      <!-- 70000 -->
      <defs>
       <path d="M 8.203125 72.90625 
L 55.078125 72.90625 
L 55.078125 68.703125 
L 28.609375 0 
L 18.3125 0 
L 43.21875 64.59375 
L 8.203125 64.59375 
z
" id="DejaVuSans-55"/>
      </defs>
      <g transform="translate(11.633052 88.445975)scale(0.1 -0.1)">
       <use xlink:href="#DejaVuSans-55"/>
       <use x="63.623047" xlink:href="#DejaVuSans-48"/>
       <use x="127.246094" xlink:href="#DejaVuSans-48"/>
       <use x="190.869141" xlink:href="#DejaVuSans-48"/>
       <use x="254.492188" xlink:href="#DejaVuSans-48"/>
      </g>
     </g>
    </g>
    <g id="ytick_9">
     <g id="line2d_11">
      <g>
       <use style="stroke:#000000;stroke-width:0.8;" x="50.445552" xlink:href="#mb85349c518" y="50.178917"/>
      </g>
     </g>
     <g id="text_11">
      <!-- 80000 -->
      <defs>
       <path d="M 31.78125 34.625 
Q 24.75 34.625 20.71875 30.859375 
Q 16.703125 27.09375 16.703125 20.515625 
Q 16.703125 13.921875 20.71875 10.15625 
Q 24.75 6.390625 31.78125 6.390625 
Q 38.8125 6.390625 42.859375 10.171875 
Q 46.921875 13.96875 46.921875 20.515625 
Q 46.921875 27.09375 42.890625 30.859375 
Q 38.875 34.625 31.78125 34.625 
z
M 21.921875 38.8125 
Q 15.578125 40.375 12.03125 44.71875 
Q 8.5 49.078125 8.5 55.328125 
Q 8.5 64.0625 14.71875 69.140625 
Q 20.953125 74.21875 31.78125 74.21875 
Q 42.671875 74.21875 48.875 69.140625 
Q 55.078125 64.0625 55.078125 55.328125 
Q 55.078125 49.078125 51.53125 44.71875 
Q 48 40.375 41.703125 38.8125 
Q 48.828125 37.15625 52.796875 32.3125 
Q 56.78125 27.484375 56.78125 20.515625 
Q 56.78125 9.90625 50.3125 4.234375 
Q 43.84375 -1.421875 31.78125 -1.421875 
Q 19.734375 -1.421875 13.25 4.234375 
Q 6.78125 9.90625 6.78125 20.515625 
Q 6.78125 27.484375 10.78125 32.3125 
Q 14.796875 37.15625 21.921875 38.8125 
z
M 18.3125 54.390625 
Q 18.3125 48.734375 21.84375 45.5625 
Q 25.390625 42.390625 31.78125 42.390625 
Q 38.140625 42.390625 41.71875 45.5625 
Q 45.3125 48.734375 45.3125 54.390625 
Q 45.3125 60.0625 41.71875 63.234375 
Q 38.140625 66.40625 31.78125 66.40625 
Q 25.390625 66.40625 21.84375 63.234375 
Q 18.3125 60.0625 18.3125 54.390625 
z
" id="DejaVuSans-56"/>
      </defs>
      <g transform="translate(11.633052 53.978135)scale(0.1 -0.1)">
       <use xlink:href="#DejaVuSans-56"/>
       <use x="63.623047" xlink:href="#DejaVuSans-48"/>
       <use x="127.246094" xlink:href="#DejaVuSans-48"/>
       <use x="190.869141" xlink:href="#DejaVuSans-48"/>
       <use x="254.492188" xlink:href="#DejaVuSans-48"/>
      </g>
     </g>
    </g>
   </g>
   <g id="line2d_12">
    <path clip-path="url(#p45355ca879)" d="M 54.680126 325.909882 
L 55.512065 325.906662 
L 56.344005 325.902348 
L 57.175945 325.89693 
L 58.007884 325.890209 
L 58.839824 325.881923 
L 59.671764 325.871761 
L 60.503704 325.85932 
L 61.335643 325.844115 
L 62.167583 325.825597 
L 62.999523 325.803231 
L 63.831463 325.776488 
L 64.663402 325.744886 
L 65.495342 325.708023 
L 66.327282 325.665604 
L 67.159221 325.617343 
L 67.991161 325.562775 
L 68.823101 325.501165 
L 69.655041 325.431566 
L 70.48698 325.352521 
L 71.31892 325.261943 
L 72.15086 325.157015 
L 72.9828 325.034415 
L 73.814739 324.890748 
L 74.646679 324.722593 
L 75.478619 324.526133 
L 76.310558 324.297901 
L 77.142498 324.035044 
L 77.974438 323.735685 
L 78.806378 323.39822 
L 79.638317 323.020897 
L 80.470257 322.601681 
L 81.302197 322.139103 
L 82.134137 321.631625 
L 82.966076 321.077098 
L 83.798016 320.47175 
L 84.629956 319.811756 
L 85.461895 319.093211 
L 86.293835 318.312116 
L 87.125775 317.463737 
L 87.957715 316.54263 
L 88.789654 315.542609 
L 89.621594 314.457937 
L 90.453534 313.280873 
L 91.285474 312.001701 
L 92.117413 310.609031 
L 92.949353 309.089698 
L 93.781293 307.428211 
L 94.613232 305.608155 
L 95.445172 303.611293 
L 96.277112 301.420541 
L 97.109052 299.020795 
L 97.940991 296.399322 
L 98.772931 293.545366 
L 99.604871 290.450834 
L 100.43681 287.108365 
L 101.26875 283.512672 
L 102.10069 279.657524 
L 102.93263 275.533997 
L 103.764569 271.130338 
L 104.596509 266.435533 
L 105.428449 261.444288 
L 106.260389 256.159085 
L 107.092328 250.58815 
L 107.924268 244.748547 
L 108.756208 238.669491 
L 109.588147 232.388505 
L 110.420087 225.944579 
L 111.252027 219.363876 
L 112.083967 212.659126 
L 112.915906 205.834052 
L 113.747846 198.883809 
L 114.579786 191.792592 
L 115.411726 184.541753 
L 116.243665 177.116629 
L 117.075605 169.525817 
L 117.907545 161.801187 
L 118.739484 153.991175 
L 119.571424 146.153732 
L 120.403364 138.352487 
L 121.235304 130.649044 
L 122.067243 123.096616 
L 122.899183 115.717852 
L 123.731123 108.500082 
L 124.563063 101.401321 
L 125.395002 94.35766 
L 126.226942 87.290743 
L 127.058882 80.11431 
L 127.890821 72.760169 
L 128.722761 65.174831 
L 129.554701 57.329028 
L 130.386641 49.313428 
L 131.21858 41.124789 
L 132.05052 32.775664 
" style="fill:none;stroke:#ff0000;stroke-linecap:square;stroke-width:1.5;"/>
   </g>
   <g id="patch_97">
    <path d="M 50.445552 325.921635 
L 50.445552 18.118365 
" style="fill:none;stroke:#000000;stroke-linecap:square;stroke-linejoin:miter;stroke-width:0.8;"/>
   </g>
   <g id="patch_98">
    <path d="M 136.285093 325.921635 
L 136.285093 18.118365 
" style="fill:none;stroke:#000000;stroke-linecap:square;stroke-linejoin:miter;stroke-width:0.8;"/>
   </g>
   <g id="patch_99">
    <path d="M 50.445552 325.921635 
L 136.285093 325.921635 
" style="fill:none;stroke:#000000;stroke-linecap:square;stroke-linejoin:miter;stroke-width:0.8;"/>
   </g>
   <g id="patch_100">
    <path d="M 50.445552 18.118365 
L 136.285093 18.118365 
" style="fill:none;stroke:#000000;stroke-linecap:square;stroke-linejoin:miter;stroke-width:0.8;"/>
   </g>
   <g id="text_12">
    <!-- Casos acumulados - PA - (data) -->
    <defs>
     <path d="M 64.40625 67.28125 
L 64.40625 56.890625 
Q 59.421875 61.53125 53.78125 63.8125 
Q 48.140625 66.109375 41.796875 66.109375 
Q 29.296875 66.109375 22.65625 58.46875 
Q 16.015625 50.828125 16.015625 36.375 
Q 16.015625 21.96875 22.65625 14.328125 
Q 29.296875 6.6875 41.796875 6.6875 
Q 48.140625 6.6875 53.78125 8.984375 
Q 59.421875 11.28125 64.40625 15.921875 
L 64.40625 5.609375 
Q 59.234375 2.09375 53.4375 0.328125 
Q 47.65625 -1.421875 41.21875 -1.421875 
Q 24.65625 -1.421875 15.125 8.703125 
Q 5.609375 18.84375 5.609375 36.375 
Q 5.609375 53.953125 15.125 64.078125 
Q 24.65625 74.21875 41.21875 74.21875 
Q 47.75 74.21875 53.53125 72.484375 
Q 59.328125 70.75 64.40625 67.28125 
z
" id="DejaVuSans-67"/>
     <path d="M 34.28125 27.484375 
Q 23.390625 27.484375 19.1875 25 
Q 14.984375 22.515625 14.984375 16.5 
Q 14.984375 11.71875 18.140625 8.90625 
Q 21.296875 6.109375 26.703125 6.109375 
Q 34.1875 6.109375 38.703125 11.40625 
Q 43.21875 16.703125 43.21875 25.484375 
L 43.21875 27.484375 
z
M 52.203125 31.203125 
L 52.203125 0 
L 43.21875 0 
L 43.21875 8.296875 
Q 40.140625 3.328125 35.546875 0.953125 
Q 30.953125 -1.421875 24.3125 -1.421875 
Q 15.921875 -1.421875 10.953125 3.296875 
Q 6 8.015625 6 15.921875 
Q 6 25.140625 12.171875 29.828125 
Q 18.359375 34.515625 30.609375 34.515625 
L 43.21875 34.515625 
L 43.21875 35.40625 
Q 43.21875 41.609375 39.140625 45 
Q 35.0625 48.390625 27.6875 48.390625 
Q 23 48.390625 18.546875 47.265625 
Q 14.109375 46.140625 10.015625 43.890625 
L 10.015625 52.203125 
Q 14.9375 54.109375 19.578125 55.046875 
Q 24.21875 56 28.609375 56 
Q 40.484375 56 46.34375 49.84375 
Q 52.203125 43.703125 52.203125 31.203125 
z
" id="DejaVuSans-97"/>
     <path d="M 44.28125 53.078125 
L 44.28125 44.578125 
Q 40.484375 46.53125 36.375 47.5 
Q 32.28125 48.484375 27.875 48.484375 
Q 21.1875 48.484375 17.84375 46.4375 
Q 14.5 44.390625 14.5 40.28125 
Q 14.5 37.15625 16.890625 35.375 
Q 19.28125 33.59375 26.515625 31.984375 
L 29.59375 31.296875 
Q 39.15625 29.25 43.1875 25.515625 
Q 47.21875 21.78125 47.21875 15.09375 
Q 47.21875 7.46875 41.1875 3.015625 
Q 35.15625 -1.421875 24.609375 -1.421875 
Q 20.21875 -1.421875 15.453125 -0.5625 
Q 10.6875 0.296875 5.421875 2 
L 5.421875 11.28125 
Q 10.40625 8.6875 15.234375 7.390625 
Q 20.0625 6.109375 24.8125 6.109375 
Q 31.15625 6.109375 34.5625 8.28125 
Q 37.984375 10.453125 37.984375 14.40625 
Q 37.984375 18.0625 35.515625 20.015625 
Q 33.0625 21.96875 24.703125 23.78125 
L 21.578125 24.515625 
Q 13.234375 26.265625 9.515625 29.90625 
Q 5.8125 33.546875 5.8125 39.890625 
Q 5.8125 47.609375 11.28125 51.796875 
Q 16.75 56 26.8125 56 
Q 31.78125 56 36.171875 55.265625 
Q 40.578125 54.546875 44.28125 53.078125 
z
" id="DejaVuSans-115"/>
     <path d="M 30.609375 48.390625 
Q 23.390625 48.390625 19.1875 42.75 
Q 14.984375 37.109375 14.984375 27.296875 
Q 14.984375 17.484375 19.15625 11.84375 
Q 23.34375 6.203125 30.609375 6.203125 
Q 37.796875 6.203125 41.984375 11.859375 
Q 46.1875 17.53125 46.1875 27.296875 
Q 46.1875 37.015625 41.984375 42.703125 
Q 37.796875 48.390625 30.609375 48.390625 
z
M 30.609375 56 
Q 42.328125 56 49.015625 48.375 
Q 55.71875 40.765625 55.71875 27.296875 
Q 55.71875 13.875 49.015625 6.21875 
Q 42.328125 -1.421875 30.609375 -1.421875 
Q 18.84375 -1.421875 12.171875 6.21875 
Q 5.515625 13.875 5.515625 27.296875 
Q 5.515625 40.765625 12.171875 48.375 
Q 18.84375 56 30.609375 56 
z
" id="DejaVuSans-111"/>
     <path id="DejaVuSans-32"/>
     <path d="M 48.78125 52.59375 
L 48.78125 44.1875 
Q 44.96875 46.296875 41.140625 47.34375 
Q 37.3125 48.390625 33.40625 48.390625 
Q 24.65625 48.390625 19.8125 42.84375 
Q 14.984375 37.3125 14.984375 27.296875 
Q 14.984375 17.28125 19.8125 11.734375 
Q 24.65625 6.203125 33.40625 6.203125 
Q 37.3125 6.203125 41.140625 7.25 
Q 44.96875 8.296875 48.78125 10.40625 
L 48.78125 2.09375 
Q 45.015625 0.34375 40.984375 -0.53125 
Q 36.96875 -1.421875 32.421875 -1.421875 
Q 20.0625 -1.421875 12.78125 6.34375 
Q 5.515625 14.109375 5.515625 27.296875 
Q 5.515625 40.671875 12.859375 48.328125 
Q 20.21875 56 33.015625 56 
Q 37.15625 56 41.109375 55.140625 
Q 45.0625 54.296875 48.78125 52.59375 
z
" id="DejaVuSans-99"/>
     <path d="M 8.5 21.578125 
L 8.5 54.6875 
L 17.484375 54.6875 
L 17.484375 21.921875 
Q 17.484375 14.15625 20.5 10.265625 
Q 23.53125 6.390625 29.59375 6.390625 
Q 36.859375 6.390625 41.078125 11.03125 
Q 45.3125 15.671875 45.3125 23.6875 
L 45.3125 54.6875 
L 54.296875 54.6875 
L 54.296875 0 
L 45.3125 0 
L 45.3125 8.40625 
Q 42.046875 3.421875 37.71875 1 
Q 33.40625 -1.421875 27.6875 -1.421875 
Q 18.265625 -1.421875 13.375 4.4375 
Q 8.5 10.296875 8.5 21.578125 
z
M 31.109375 56 
z
" id="DejaVuSans-117"/>
     <path d="M 52 44.1875 
Q 55.375 50.25 60.0625 53.125 
Q 64.75 56 71.09375 56 
Q 79.640625 56 84.28125 50.015625 
Q 88.921875 44.046875 88.921875 33.015625 
L 88.921875 0 
L 79.890625 0 
L 79.890625 32.71875 
Q 79.890625 40.578125 77.09375 44.375 
Q 74.3125 48.1875 68.609375 48.1875 
Q 61.625 48.1875 57.5625 43.546875 
Q 53.515625 38.921875 53.515625 30.90625 
L 53.515625 0 
L 44.484375 0 
L 44.484375 32.71875 
Q 44.484375 40.625 41.703125 44.40625 
Q 38.921875 48.1875 33.109375 48.1875 
Q 26.21875 48.1875 22.15625 43.53125 
Q 18.109375 38.875 18.109375 30.90625 
L 18.109375 0 
L 9.078125 0 
L 9.078125 54.6875 
L 18.109375 54.6875 
L 18.109375 46.1875 
Q 21.1875 51.21875 25.484375 53.609375 
Q 29.78125 56 35.6875 56 
Q 41.65625 56 45.828125 52.96875 
Q 50 49.953125 52 44.1875 
z
" id="DejaVuSans-109"/>
     <path d="M 9.421875 75.984375 
L 18.40625 75.984375 
L 18.40625 0 
L 9.421875 0 
z
" id="DejaVuSans-108"/>
     <path d="M 45.40625 46.390625 
L 45.40625 75.984375 
L 54.390625 75.984375 
L 54.390625 0 
L 45.40625 0 
L 45.40625 8.203125 
Q 42.578125 3.328125 38.25 0.953125 
Q 33.9375 -1.421875 27.875 -1.421875 
Q 17.96875 -1.421875 11.734375 6.484375 
Q 5.515625 14.40625 5.515625 27.296875 
Q 5.515625 40.1875 11.734375 48.09375 
Q 17.96875 56 27.875 56 
Q 33.9375 56 38.25 53.625 
Q 42.578125 51.265625 45.40625 46.390625 
z
M 14.796875 27.296875 
Q 14.796875 17.390625 18.875 11.75 
Q 22.953125 6.109375 30.078125 6.109375 
Q 37.203125 6.109375 41.296875 11.75 
Q 45.40625 17.390625 45.40625 27.296875 
Q 45.40625 37.203125 41.296875 42.84375 
Q 37.203125 48.484375 30.078125 48.484375 
Q 22.953125 48.484375 18.875 42.84375 
Q 14.796875 37.203125 14.796875 27.296875 
z
" id="DejaVuSans-100"/>
     <path d="M 4.890625 31.390625 
L 31.203125 31.390625 
L 31.203125 23.390625 
L 4.890625 23.390625 
z
" id="DejaVuSans-45"/>
     <path d="M 19.671875 64.796875 
L 19.671875 37.40625 
L 32.078125 37.40625 
Q 38.96875 37.40625 42.71875 40.96875 
Q 46.484375 44.53125 46.484375 51.125 
Q 46.484375 57.671875 42.71875 61.234375 
Q 38.96875 64.796875 32.078125 64.796875 
z
M 9.8125 72.90625 
L 32.078125 72.90625 
Q 44.34375 72.90625 50.609375 67.359375 
Q 56.890625 61.8125 56.890625 51.125 
Q 56.890625 40.328125 50.609375 34.8125 
Q 44.34375 29.296875 32.078125 29.296875 
L 19.671875 29.296875 
L 19.671875 0 
L 9.8125 0 
z
" id="DejaVuSans-80"/>
     <path d="M 34.1875 63.1875 
L 20.796875 26.90625 
L 47.609375 26.90625 
z
M 28.609375 72.90625 
L 39.796875 72.90625 
L 67.578125 0 
L 57.328125 0 
L 50.6875 18.703125 
L 17.828125 18.703125 
L 11.1875 0 
L 0.78125 0 
z
" id="DejaVuSans-65"/>
     <path d="M 31 75.875 
Q 24.46875 64.65625 21.28125 53.65625 
Q 18.109375 42.671875 18.109375 31.390625 
Q 18.109375 20.125 21.3125 9.0625 
Q 24.515625 -2 31 -13.1875 
L 23.1875 -13.1875 
Q 15.875 -1.703125 12.234375 9.375 
Q 8.59375 20.453125 8.59375 31.390625 
Q 8.59375 42.28125 12.203125 53.3125 
Q 15.828125 64.359375 23.1875 75.875 
z
" id="DejaVuSans-40"/>
     <path d="M 18.3125 70.21875 
L 18.3125 54.6875 
L 36.8125 54.6875 
L 36.8125 47.703125 
L 18.3125 47.703125 
L 18.3125 18.015625 
Q 18.3125 11.328125 20.140625 9.421875 
Q 21.96875 7.515625 27.59375 7.515625 
L 36.8125 7.515625 
L 36.8125 0 
L 27.59375 0 
Q 17.1875 0 13.234375 3.875 
Q 9.28125 7.765625 9.28125 18.015625 
L 9.28125 47.703125 
L 2.6875 47.703125 
L 2.6875 54.6875 
L 9.28125 54.6875 
L 9.28125 70.21875 
z
" id="DejaVuSans-116"/>
     <path d="M 8.015625 75.875 
L 15.828125 75.875 
Q 23.140625 64.359375 26.78125 53.3125 
Q 30.421875 42.28125 30.421875 31.390625 
Q 30.421875 20.453125 26.78125 9.375 
Q 23.140625 -1.703125 15.828125 -13.1875 
L 8.015625 -13.1875 
Q 14.5 -2 17.703125 9.0625 
Q 20.90625 20.125 20.90625 31.390625 
Q 20.90625 42.671875 17.703125 53.65625 
Q 14.5 64.65625 8.015625 75.875 
z
" id="DejaVuSans-41"/>
    </defs>
    <g transform="translate(-0.199052 12.118365)scale(0.12 -0.12)">
     <use xlink:href="#DejaVuSans-67"/>
     <use x="69.824219" xlink:href="#DejaVuSans-97"/>
     <use x="131.103516" xlink:href="#DejaVuSans-115"/>
     <use x="183.203125" xlink:href="#DejaVuSans-111"/>
     <use x="244.384766" xlink:href="#DejaVuSans-115"/>
     <use x="296.484375" xlink:href="#DejaVuSans-32"/>
     <use x="328.271484" xlink:href="#DejaVuSans-97"/>
     <use x="389.550781" xlink:href="#DejaVuSans-99"/>
     <use x="444.53125" xlink:href="#DejaVuSans-117"/>
     <use x="507.910156" xlink:href="#DejaVuSans-109"/>
     <use x="605.322266" xlink:href="#DejaVuSans-117"/>
     <use x="668.701172" xlink:href="#DejaVuSans-108"/>
     <use x="696.484375" xlink:href="#DejaVuSans-97"/>
     <use x="757.763672" xlink:href="#DejaVuSans-100"/>
     <use x="821.240234" xlink:href="#DejaVuSans-111"/>
     <use x="882.421875" xlink:href="#DejaVuSans-115"/>
     <use x="934.521484" xlink:href="#DejaVuSans-32"/>
     <use x="966.308594" xlink:href="#DejaVuSans-45"/>
     <use x="1002.392578" xlink:href="#DejaVuSans-32"/>
     <use x="1034.179688" xlink:href="#DejaVuSans-80"/>
     <use x="1088.107422" xlink:href="#DejaVuSans-65"/>
     <use x="1156.515625" xlink:href="#DejaVuSans-32"/>
     <use x="1188.302734" xlink:href="#DejaVuSans-45"/>
     <use x="1224.386719" xlink:href="#DejaVuSans-32"/>
     <use x="1256.173828" xlink:href="#DejaVuSans-40"/>
     <use x="1295.1875" xlink:href="#DejaVuSans-100"/>
     <use x="1358.664062" xlink:href="#DejaVuSans-97"/>
     <use x="1419.943359" xlink:href="#DejaVuSans-116"/>
     <use x="1459.152344" xlink:href="#DejaVuSans-97"/>
     <use x="1520.431641" xlink:href="#DejaVuSans-41"/>
    </g>
   </g>
  </g>
  <g id="axes_2">
   <g id="patch_101">
    <path d="M 225.252886 325.921635 
L 311.092427 325.921635 
L 311.092427 18.118365 
L 225.252886 18.118365 
z
" style="fill:#ffffff;"/>
   </g>
   <g id="patch_102">
    <path clip-path="url(#pf809be9a38)" d="M 229.154683 325.921635 
L 229.820235 325.921635 
L 229.820235 325.839452 
L 229.154683 325.839452 
z
" style="fill:#1f77b4;"/>
   </g>
   <g id="patch_103">
    <path clip-path="url(#pf809be9a38)" d="M 229.986623 325.921635 
L 230.652174 325.921635 
L 230.652174 325.921635 
L 229.986623 325.921635 
z
" style="fill:#1f77b4;"/>
   </g>
   <g id="patch_104">
    <path clip-path="url(#pf809be9a38)" d="M 230.818562 325.921635 
L 231.484114 325.921635 
L 231.484114 325.757269 
L 230.818562 325.757269 
z
" style="fill:#1f77b4;"/>
   </g>
   <g id="patch_105">
    <path clip-path="url(#pf809be9a38)" d="M 231.650502 325.921635 
L 232.316054 325.921635 
L 232.316054 325.839452 
L 231.650502 325.839452 
z
" style="fill:#1f77b4;"/>
   </g>
   <g id="patch_106">
    <path clip-path="url(#pf809be9a38)" d="M 232.482442 325.921635 
L 233.147994 325.921635 
L 233.147994 325.921635 
L 232.482442 325.921635 
z
" style="fill:#1f77b4;"/>
   </g>
   <g id="patch_107">
    <path clip-path="url(#pf809be9a38)" d="M 233.314382 325.921635 
L 233.979933 325.921635 
L 233.979933 325.757269 
L 233.314382 325.757269 
z
" style="fill:#1f77b4;"/>
   </g>
   <g id="patch_108">
    <path clip-path="url(#pf809be9a38)" d="M 234.146321 325.921635 
L 234.811873 325.921635 
L 234.811873 325.428538 
L 234.146321 325.428538 
z
" style="fill:#1f77b4;"/>
   </g>
   <g id="patch_109">
    <path clip-path="url(#pf809be9a38)" d="M 234.978261 325.921635 
L 235.643813 325.921635 
L 235.643813 325.921635 
L 234.978261 325.921635 
z
" style="fill:#1f77b4;"/>
   </g>
   <g id="patch_110">
    <path clip-path="url(#pf809be9a38)" d="M 235.810201 325.921635 
L 236.475753 325.921635 
L 236.475753 325.592904 
L 235.810201 325.592904 
z
" style="fill:#1f77b4;"/>
   </g>
   <g id="patch_111">
    <path clip-path="url(#pf809be9a38)" d="M 236.64214 325.921635 
L 237.307692 325.921635 
L 237.307692 325.839452 
L 236.64214 325.839452 
z
" style="fill:#1f77b4;"/>
   </g>
   <g id="patch_112">
    <path clip-path="url(#pf809be9a38)" d="M 237.47408 325.921635 
L 238.139632 325.921635 
L 238.139632 325.675087 
L 237.47408 325.675087 
z
" style="fill:#1f77b4;"/>
   </g>
   <g id="patch_113">
    <path clip-path="url(#pf809be9a38)" d="M 238.30602 325.921635 
L 238.971572 325.921635 
L 238.971572 325.017624 
L 238.30602 325.017624 
z
" style="fill:#1f77b4;"/>
   </g>
   <g id="patch_114">
    <path clip-path="url(#pf809be9a38)" d="M 239.13796 325.921635 
L 239.803511 325.921635 
L 239.803511 325.264173 
L 239.13796 325.264173 
z
" style="fill:#1f77b4;"/>
   </g>
   <g id="patch_115">
    <path clip-path="url(#pf809be9a38)" d="M 239.969899 325.921635 
L 240.635451 325.921635 
L 240.635451 325.428538 
L 239.969899 325.428538 
z
" style="fill:#1f77b4;"/>
   </g>
   <g id="patch_116">
    <path clip-path="url(#pf809be9a38)" d="M 240.801839 325.921635 
L 241.467391 325.921635 
L 241.467391 325.592904 
L 240.801839 325.592904 
z
" style="fill:#1f77b4;"/>
   </g>
   <g id="patch_117">
    <path clip-path="url(#pf809be9a38)" d="M 241.633779 325.921635 
L 242.299331 325.921635 
L 242.299331 323.456152 
L 241.633779 323.456152 
z
" style="fill:#1f77b4;"/>
   </g>
   <g id="patch_118">
    <path clip-path="url(#pf809be9a38)" d="M 242.465719 325.921635 
L 243.13127 325.921635 
L 243.13127 325.428538 
L 242.465719 325.428538 
z
" style="fill:#1f77b4;"/>
   </g>
   <g id="patch_119">
    <path clip-path="url(#pf809be9a38)" d="M 243.297658 325.921635 
L 243.96321 325.921635 
L 243.96321 324.606711 
L 243.297658 324.606711 
z
" style="fill:#1f77b4;"/>
   </g>
   <g id="patch_120">
    <path clip-path="url(#pf809be9a38)" d="M 244.129598 325.921635 
L 244.79515 325.921635 
L 244.79515 322.963055 
L 244.129598 322.963055 
z
" style="fill:#1f77b4;"/>
   </g>
   <g id="patch_121">
    <path clip-path="url(#pf809be9a38)" d="M 244.961538 325.921635 
L 245.62709 325.921635 
L 245.62709 323.538334 
L 244.961538 323.538334 
z
" style="fill:#1f77b4;"/>
   </g>
   <g id="patch_122">
    <path clip-path="url(#pf809be9a38)" d="M 245.793477 325.921635 
L 246.459029 325.921635 
L 246.459029 325.839452 
L 245.793477 325.839452 
z
" style="fill:#1f77b4;"/>
   </g>
   <g id="patch_123">
    <path clip-path="url(#pf809be9a38)" d="M 246.625417 325.921635 
L 247.290969 325.921635 
L 247.290969 325.757269 
L 246.625417 325.757269 
z
" style="fill:#1f77b4;"/>
   </g>
   <g id="patch_124">
    <path clip-path="url(#pf809be9a38)" d="M 247.457357 325.921635 
L 248.122909 325.921635 
L 248.122909 322.059044 
L 247.457357 322.059044 
z
" style="fill:#1f77b4;"/>
   </g>
   <g id="patch_125">
    <path clip-path="url(#pf809be9a38)" d="M 248.289297 325.921635 
L 248.954848 325.921635 
L 248.954848 323.538334 
L 248.289297 323.538334 
z
" style="fill:#1f77b4;"/>
   </g>
   <g id="patch_126">
    <path clip-path="url(#pf809be9a38)" d="M 249.121236 325.921635 
L 249.786788 325.921635 
L 249.786788 323.949248 
L 249.121236 323.949248 
z
" style="fill:#1f77b4;"/>
   </g>
   <g id="patch_127">
    <path clip-path="url(#pf809be9a38)" d="M 249.953176 325.921635 
L 250.618728 325.921635 
L 250.618728 321.565948 
L 249.953176 321.565948 
z
" style="fill:#1f77b4;"/>
   </g>
   <g id="patch_128">
    <path clip-path="url(#pf809be9a38)" d="M 250.785116 325.921635 
L 251.450668 325.921635 
L 251.450668 320.908486 
L 250.785116 320.908486 
z
" style="fill:#1f77b4;"/>
   </g>
   <g id="patch_129">
    <path clip-path="url(#pf809be9a38)" d="M 251.617056 325.921635 
L 252.282607 325.921635 
L 252.282607 321.483765 
L 251.617056 321.483765 
z
" style="fill:#1f77b4;"/>
   </g>
   <g id="patch_130">
    <path clip-path="url(#pf809be9a38)" d="M 252.448995 325.921635 
L 253.114547 325.921635 
L 253.114547 316.141884 
L 252.448995 316.141884 
z
" style="fill:#1f77b4;"/>
   </g>
   <g id="patch_131">
    <path clip-path="url(#pf809be9a38)" d="M 253.280935 325.921635 
L 253.946487 325.921635 
L 253.946487 319.100464 
L 253.280935 319.100464 
z
" style="fill:#1f77b4;"/>
   </g>
   <g id="patch_132">
    <path clip-path="url(#pf809be9a38)" d="M 254.112875 325.921635 
L 254.778427 325.921635 
L 254.778427 322.22341 
L 254.112875 322.22341 
z
" style="fill:#1f77b4;"/>
   </g>
   <g id="patch_133">
    <path clip-path="url(#pf809be9a38)" d="M 254.944814 325.921635 
L 255.610366 325.921635 
L 255.610366 308.087972 
L 254.944814 308.087972 
z
" style="fill:#1f77b4;"/>
   </g>
   <g id="patch_134">
    <path clip-path="url(#pf809be9a38)" d="M 255.776754 325.921635 
L 256.442306 325.921635 
L 256.442306 315.73097 
L 255.776754 315.73097 
z
" style="fill:#1f77b4;"/>
   </g>
   <g id="patch_135">
    <path clip-path="url(#pf809be9a38)" d="M 256.608694 325.921635 
L 257.274246 325.921635 
L 257.274246 312.032745 
L 256.608694 312.032745 
z
" style="fill:#1f77b4;"/>
   </g>
   <g id="patch_136">
    <path clip-path="url(#pf809be9a38)" d="M 257.440634 325.921635 
L 258.106185 325.921635 
L 258.106185 320.004475 
L 257.440634 320.004475 
z
" style="fill:#1f77b4;"/>
   </g>
   <g id="patch_137">
    <path clip-path="url(#pf809be9a38)" d="M 258.272573 325.921635 
L 258.938125 325.921635 
L 258.938125 311.210918 
L 258.272573 311.210918 
z
" style="fill:#1f77b4;"/>
   </g>
   <g id="patch_138">
    <path clip-path="url(#pf809be9a38)" d="M 259.104513 325.921635 
L 259.770065 325.921635 
L 259.770065 314.991325 
L 259.104513 314.991325 
z
" style="fill:#1f77b4;"/>
   </g>
   <g id="patch_139">
    <path clip-path="url(#pf809be9a38)" d="M 259.936453 325.921635 
L 260.602005 325.921635 
L 260.602005 302.252995 
L 259.936453 302.252995 
z
" style="fill:#1f77b4;"/>
   </g>
   <g id="patch_140">
    <path clip-path="url(#pf809be9a38)" d="M 260.768393 325.921635 
L 261.433944 325.921635 
L 261.433944 304.47193 
L 260.768393 304.47193 
z
" style="fill:#1f77b4;"/>
   </g>
   <g id="patch_141">
    <path clip-path="url(#pf809be9a38)" d="M 261.600332 325.921635 
L 262.265884 325.921635 
L 262.265884 314.909143 
L 261.600332 314.909143 
z
" style="fill:#1f77b4;"/>
   </g>
   <g id="patch_142">
    <path clip-path="url(#pf809be9a38)" d="M 262.432272 325.921635 
L 263.097824 325.921635 
L 263.097824 312.77239 
L 262.432272 312.77239 
z
" style="fill:#1f77b4;"/>
   </g>
   <g id="patch_143">
    <path clip-path="url(#pf809be9a38)" d="M 263.264212 325.921635 
L 263.929764 325.921635 
L 263.929764 288.610653 
L 263.264212 288.610653 
z
" style="fill:#1f77b4;"/>
   </g>
   <g id="patch_144">
    <path clip-path="url(#pf809be9a38)" d="M 264.096151 325.921635 
L 264.761703 325.921635 
L 264.761703 301.266801 
L 264.096151 301.266801 
z
" style="fill:#1f77b4;"/>
   </g>
   <g id="patch_145">
    <path clip-path="url(#pf809be9a38)" d="M 264.928091 325.921635 
L 265.593643 325.921635 
L 265.593643 302.581726 
L 264.928091 302.581726 
z
" style="fill:#1f77b4;"/>
   </g>
   <g id="patch_146">
    <path clip-path="url(#pf809be9a38)" d="M 265.760031 325.921635 
L 266.425583 325.921635 
L 266.425583 292.801975 
L 265.760031 292.801975 
z
" style="fill:#1f77b4;"/>
   </g>
   <g id="patch_147">
    <path clip-path="url(#pf809be9a38)" d="M 266.591971 325.921635 
L 267.257522 325.921635 
L 267.257522 304.389747 
L 266.591971 304.389747 
z
" style="fill:#1f77b4;"/>
   </g>
   <g id="patch_148">
    <path clip-path="url(#pf809be9a38)" d="M 267.42391 325.921635 
L 268.089462 325.921635 
L 268.089462 297.404211 
L 267.42391 297.404211 
z
" style="fill:#1f77b4;"/>
   </g>
   <g id="patch_149">
    <path clip-path="url(#pf809be9a38)" d="M 268.25585 325.921635 
L 268.921402 325.921635 
L 268.921402 281.132021 
L 268.25585 281.132021 
z
" style="fill:#1f77b4;"/>
   </g>
   <g id="patch_150">
    <path clip-path="url(#pf809be9a38)" d="M 269.08779 325.921635 
L 269.753342 325.921635 
L 269.753342 284.254966 
L 269.08779 284.254966 
z
" style="fill:#1f77b4;"/>
   </g>
   <g id="patch_151">
    <path clip-path="url(#pf809be9a38)" d="M 269.91973 325.921635 
L 270.585281 325.921635 
L 270.585281 275.214861 
L 269.91973 275.214861 
z
" style="fill:#1f77b4;"/>
   </g>
   <g id="patch_152">
    <path clip-path="url(#pf809be9a38)" d="M 270.751669 325.921635 
L 271.417221 325.921635 
L 271.417221 273.817753 
L 270.751669 273.817753 
z
" style="fill:#1f77b4;"/>
   </g>
   <g id="patch_153">
    <path clip-path="url(#pf809be9a38)" d="M 271.583609 325.921635 
L 272.249161 325.921635 
L 272.249161 286.391718 
L 271.583609 286.391718 
z
" style="fill:#1f77b4;"/>
   </g>
   <g id="patch_154">
    <path clip-path="url(#pf809be9a38)" d="M 272.415549 325.921635 
L 273.081101 325.921635 
L 273.081101 300.691522 
L 272.415549 300.691522 
z
" style="fill:#1f77b4;"/>
   </g>
   <g id="patch_155">
    <path clip-path="url(#pf809be9a38)" d="M 273.247488 325.921635 
L 273.91304 325.921635 
L 273.91304 239.383169 
L 273.247488 239.383169 
z
" style="fill:#1f77b4;"/>
   </g>
   <g id="patch_156">
    <path clip-path="url(#pf809be9a38)" d="M 274.079428 325.921635 
L 274.74498 325.921635 
L 274.74498 243.574491 
L 274.079428 243.574491 
z
" style="fill:#1f77b4;"/>
   </g>
   <g id="patch_157">
    <path clip-path="url(#pf809be9a38)" d="M 274.911368 325.921635 
L 275.57692 325.921635 
L 275.57692 223.275344 
L 274.911368 223.275344 
z
" style="fill:#1f77b4;"/>
   </g>
   <g id="patch_158">
    <path clip-path="url(#pf809be9a38)" d="M 275.743308 325.921635 
L 276.408859 325.921635 
L 276.408859 223.850624 
L 275.743308 223.850624 
z
" style="fill:#1f77b4;"/>
   </g>
   <g id="patch_159">
    <path clip-path="url(#pf809be9a38)" d="M 276.575247 325.921635 
L 277.240799 325.921635 
L 277.240799 237.575148 
L 276.575247 237.575148 
z
" style="fill:#1f77b4;"/>
   </g>
   <g id="patch_160">
    <path clip-path="url(#pf809be9a38)" d="M 277.407187 325.921635 
L 278.072739 325.921635 
L 278.072739 270.037346 
L 277.407187 270.037346 
z
" style="fill:#1f77b4;"/>
   </g>
   <g id="patch_161">
    <path clip-path="url(#pf809be9a38)" d="M 278.239127 325.921635 
L 278.904679 325.921635 
L 278.904679 254.422618 
L 278.239127 254.422618 
z
" style="fill:#1f77b4;"/>
   </g>
   <g id="patch_162">
    <path clip-path="url(#pf809be9a38)" d="M 279.071067 325.921635 
L 279.736618 325.921635 
L 279.736618 197.634318 
L 279.071067 197.634318 
z
" style="fill:#1f77b4;"/>
   </g>
   <g id="patch_163">
    <path clip-path="url(#pf809be9a38)" d="M 279.903006 325.921635 
L 280.568558 325.921635 
L 280.568558 174.705322 
L 279.903006 174.705322 
z
" style="fill:#1f77b4;"/>
   </g>
   <g id="patch_164">
    <path clip-path="url(#pf809be9a38)" d="M 280.734946 325.921635 
L 281.400498 325.921635 
L 281.400498 192.703351 
L 280.734946 192.703351 
z
" style="fill:#1f77b4;"/>
   </g>
   <g id="patch_165">
    <path clip-path="url(#pf809be9a38)" d="M 281.566886 325.921635 
L 282.232438 325.921635 
L 282.232438 185.142535 
L 281.566886 185.142535 
z
" style="fill:#1f77b4;"/>
   </g>
   <g id="patch_166">
    <path clip-path="url(#pf809be9a38)" d="M 282.398825 325.921635 
L 283.064377 325.921635 
L 283.064377 225.001183 
L 282.398825 225.001183 
z
" style="fill:#1f77b4;"/>
   </g>
   <g id="patch_167">
    <path clip-path="url(#pf809be9a38)" d="M 283.230765 325.921635 
L 283.896317 325.921635 
L 283.896317 208.564627 
L 283.230765 208.564627 
z
" style="fill:#1f77b4;"/>
   </g>
   <g id="patch_168">
    <path clip-path="url(#pf809be9a38)" d="M 284.062705 325.921635 
L 284.728257 325.921635 
L 284.728257 165.500851 
L 284.062705 165.500851 
z
" style="fill:#1f77b4;"/>
   </g>
   <g id="patch_169">
    <path clip-path="url(#pf809be9a38)" d="M 284.894645 325.921635 
L 285.560196 325.921635 
L 285.560196 118.574484 
L 284.894645 118.574484 
z
" style="fill:#1f77b4;"/>
   </g>
   <g id="patch_170">
    <path clip-path="url(#pf809be9a38)" d="M 285.726584 325.921635 
L 286.392136 325.921635 
L 286.392136 125.970935 
L 285.726584 125.970935 
z
" style="fill:#1f77b4;"/>
   </g>
   <g id="patch_171">
    <path clip-path="url(#pf809be9a38)" d="M 286.558524 325.921635 
L 287.224076 325.921635 
L 287.224076 106.822347 
L 286.558524 106.822347 
z
" style="fill:#1f77b4;"/>
   </g>
   <g id="patch_172">
    <path clip-path="url(#pf809be9a38)" d="M 287.390464 325.921635 
L 288.056016 325.921635 
L 288.056016 96.878231 
L 287.390464 96.878231 
z
" style="fill:#1f77b4;"/>
   </g>
   <g id="patch_173">
    <path clip-path="url(#pf809be9a38)" d="M 288.222404 325.921635 
L 288.887955 325.921635 
L 288.887955 259.353584 
L 288.222404 259.353584 
z
" style="fill:#1f77b4;"/>
   </g>
   <g id="patch_174">
    <path clip-path="url(#pf809be9a38)" d="M 289.054343 325.921635 
L 289.719895 325.921635 
L 289.719895 271.270087 
L 289.054343 271.270087 
z
" style="fill:#1f77b4;"/>
   </g>
   <g id="patch_175">
    <path clip-path="url(#pf809be9a38)" d="M 289.886283 325.921635 
L 290.551835 325.921635 
L 290.551835 318.936099 
L 289.886283 318.936099 
z
" style="fill:#1f77b4;"/>
   </g>
   <g id="patch_176">
    <path clip-path="url(#pf809be9a38)" d="M 290.718223 325.921635 
L 291.383775 325.921635 
L 291.383775 66.141872 
L 290.718223 66.141872 
z
" style="fill:#1f77b4;"/>
   </g>
   <g id="patch_177">
    <path clip-path="url(#pf809be9a38)" d="M 291.550162 325.921635 
L 292.215714 325.921635 
L 292.215714 32.775664 
L 291.550162 32.775664 
z
" style="fill:#1f77b4;"/>
   </g>
   <g id="patch_178">
    <path clip-path="url(#pf809be9a38)" d="M 292.382102 325.921635 
L 293.047654 325.921635 
L 293.047654 56.773035 
L 292.382102 56.773035 
z
" style="fill:#1f77b4;"/>
   </g>
   <g id="patch_179">
    <path clip-path="url(#pf809be9a38)" d="M 293.214042 325.921635 
L 293.879594 325.921635 
L 293.879594 86.687566 
L 293.214042 86.687566 
z
" style="fill:#1f77b4;"/>
   </g>
   <g id="patch_180">
    <path clip-path="url(#pf809be9a38)" d="M 294.045982 325.921635 
L 294.711533 325.921635 
L 294.711533 143.804598 
L 294.045982 143.804598 
z
" style="fill:#1f77b4;"/>
   </g>
   <g id="patch_181">
    <path clip-path="url(#pf809be9a38)" d="M 294.877921 325.921635 
L 295.543473 325.921635 
L 295.543473 235.931492 
L 294.877921 235.931492 
z
" style="fill:#1f77b4;"/>
   </g>
   <g id="patch_182">
    <path clip-path="url(#pf809be9a38)" d="M 295.709861 325.921635 
L 296.375413 325.921635 
L 296.375413 181.197762 
L 295.709861 181.197762 
z
" style="fill:#1f77b4;"/>
   </g>
   <g id="patch_183">
    <path clip-path="url(#pf809be9a38)" d="M 296.541801 325.921635 
L 297.207353 325.921635 
L 297.207353 69.840097 
L 296.541801 69.840097 
z
" style="fill:#1f77b4;"/>
   </g>
   <g id="patch_184">
    <path clip-path="url(#pf809be9a38)" d="M 297.373741 325.921635 
L 298.039292 325.921635 
L 298.039292 83.728986 
L 297.373741 83.728986 
z
" style="fill:#1f77b4;"/>
   </g>
   <g id="patch_185">
    <path clip-path="url(#pf809be9a38)" d="M 298.20568 325.921635 
L 298.871232 325.921635 
L 298.871232 159.008412 
L 298.20568 159.008412 
z
" style="fill:#1f77b4;"/>
   </g>
   <g id="patch_186">
    <path clip-path="url(#pf809be9a38)" d="M 299.03762 325.921635 
L 299.703172 325.921635 
L 299.703172 144.955156 
L 299.03762 144.955156 
z
" style="fill:#1f77b4;"/>
   </g>
   <g id="patch_187">
    <path clip-path="url(#pf809be9a38)" d="M 299.86956 325.921635 
L 300.535112 325.921635 
L 300.535112 146.598812 
L 299.86956 146.598812 
z
" style="fill:#1f77b4;"/>
   </g>
   <g id="patch_188">
    <path clip-path="url(#pf809be9a38)" d="M 300.701499 325.921635 
L 301.367051 325.921635 
L 301.367051 270.941356 
L 300.701499 270.941356 
z
" style="fill:#1f77b4;"/>
   </g>
   <g id="patch_189">
    <path clip-path="url(#pf809be9a38)" d="M 301.533439 325.921635 
L 302.198991 325.921635 
L 302.198991 322.22341 
L 301.533439 322.22341 
z
" style="fill:#1f77b4;"/>
   </g>
   <g id="patch_190">
    <path clip-path="url(#pf809be9a38)" d="M 302.365379 325.921635 
L 303.030931 325.921635 
L 303.030931 159.994605 
L 302.365379 159.994605 
z
" style="fill:#1f77b4;"/>
   </g>
   <g id="patch_191">
    <path clip-path="url(#pf809be9a38)" d="M 303.197319 325.921635 
L 303.86287 325.921635 
L 303.86287 83.564621 
L 303.197319 83.564621 
z
" style="fill:#1f77b4;"/>
   </g>
   <g id="patch_192">
    <path clip-path="url(#pf809be9a38)" d="M 304.029258 325.921635 
L 304.69481 325.921635 
L 304.69481 126.1353 
L 304.029258 126.1353 
z
" style="fill:#1f77b4;"/>
   </g>
   <g id="patch_193">
    <path clip-path="url(#pf809be9a38)" d="M 304.861198 325.921635 
L 305.52675 325.921635 
L 305.52675 42.473231 
L 304.861198 42.473231 
z
" style="fill:#1f77b4;"/>
   </g>
   <g id="patch_194">
    <path clip-path="url(#pf809be9a38)" d="M 305.693138 325.921635 
L 306.35869 325.921635 
L 306.35869 95.07021 
L 305.693138 95.07021 
z
" style="fill:#1f77b4;"/>
   </g>
   <g id="patch_195">
    <path clip-path="url(#pf809be9a38)" d="M 306.525078 325.921635 
L 307.190629 325.921635 
L 307.190629 180.211568 
L 306.525078 180.211568 
z
" style="fill:#1f77b4;"/>
   </g>
   <g id="matplotlib.axis_3">
    <g id="xtick_3">
     <g id="line2d_13">
      <g>
       <use style="stroke:#000000;stroke-width:0.8;" x="229.487459" xlink:href="#mfbd93c7875" y="325.921635"/>
      </g>
     </g>
     <g id="text_13">
      <!-- 0 -->
      <g transform="translate(226.306209 340.520072)scale(0.1 -0.1)">
       <use xlink:href="#DejaVuSans-48"/>
      </g>
     </g>
    </g>
    <g id="xtick_4">
     <g id="line2d_14">
      <g>
       <use style="stroke:#000000;stroke-width:0.8;" x="271.084445" xlink:href="#mfbd93c7875" y="325.921635"/>
      </g>
     </g>
     <g id="text_14">
      <!-- 50 -->
      <g transform="translate(264.721945 340.520072)scale(0.1 -0.1)">
       <use xlink:href="#DejaVuSans-53"/>
       <use x="63.623047" xlink:href="#DejaVuSans-48"/>
      </g>
     </g>
    </g>
   </g>
   <g id="matplotlib.axis_4">
    <g id="ytick_10">
     <g id="line2d_15">
      <g>
       <use style="stroke:#000000;stroke-width:0.8;" x="225.252886" xlink:href="#mb85349c518" y="325.921635"/>
      </g>
     </g>
     <g id="text_15">
      <!-- 0 -->
      <g transform="translate(211.890386 329.720854)scale(0.1 -0.1)">
       <use xlink:href="#DejaVuSans-48"/>
      </g>
     </g>
    </g>
    <g id="ytick_11">
     <g id="line2d_16">
      <g>
       <use style="stroke:#000000;stroke-width:0.8;" x="225.252886" xlink:href="#mb85349c518" y="284.830246"/>
      </g>
     </g>
     <g id="text_16">
      <!-- 500 -->
      <g transform="translate(199.165386 288.629464)scale(0.1 -0.1)">
       <use xlink:href="#DejaVuSans-53"/>
       <use x="63.623047" xlink:href="#DejaVuSans-48"/>
       <use x="127.246094" xlink:href="#DejaVuSans-48"/>
      </g>
     </g>
    </g>
    <g id="ytick_12">
     <g id="line2d_17">
      <g>
       <use style="stroke:#000000;stroke-width:0.8;" x="225.252886" xlink:href="#mb85349c518" y="243.738856"/>
      </g>
     </g>
     <g id="text_17">
      <!-- 1000 -->
      <g transform="translate(192.802886 247.538075)scale(0.1 -0.1)">
       <use xlink:href="#DejaVuSans-49"/>
       <use x="63.623047" xlink:href="#DejaVuSans-48"/>
       <use x="127.246094" xlink:href="#DejaVuSans-48"/>
       <use x="190.869141" xlink:href="#DejaVuSans-48"/>
      </g>
     </g>
    </g>
    <g id="ytick_13">
     <g id="line2d_18">
      <g>
       <use style="stroke:#000000;stroke-width:0.8;" x="225.252886" xlink:href="#mb85349c518" y="202.647467"/>
      </g>
     </g>
     <g id="text_18">
      <!-- 1500 -->
      <g transform="translate(192.802886 206.446686)scale(0.1 -0.1)">
       <use xlink:href="#DejaVuSans-49"/>
       <use x="63.623047" xlink:href="#DejaVuSans-53"/>
       <use x="127.246094" xlink:href="#DejaVuSans-48"/>
       <use x="190.869141" xlink:href="#DejaVuSans-48"/>
      </g>
     </g>
    </g>
    <g id="ytick_14">
     <g id="line2d_19">
      <g>
       <use style="stroke:#000000;stroke-width:0.8;" x="225.252886" xlink:href="#mb85349c518" y="161.556078"/>
      </g>
     </g>
     <g id="text_19">
      <!-- 2000 -->
      <g transform="translate(192.802886 165.355296)scale(0.1 -0.1)">
       <use xlink:href="#DejaVuSans-50"/>
       <use x="63.623047" xlink:href="#DejaVuSans-48"/>
       <use x="127.246094" xlink:href="#DejaVuSans-48"/>
       <use x="190.869141" xlink:href="#DejaVuSans-48"/>
      </g>
     </g>
    </g>
    <g id="ytick_15">
     <g id="line2d_20">
      <g>
       <use style="stroke:#000000;stroke-width:0.8;" x="225.252886" xlink:href="#mb85349c518" y="120.464688"/>
      </g>
     </g>
     <g id="text_20">
      <!-- 2500 -->
      <g transform="translate(192.802886 124.263907)scale(0.1 -0.1)">
       <use xlink:href="#DejaVuSans-50"/>
       <use x="63.623047" xlink:href="#DejaVuSans-53"/>
       <use x="127.246094" xlink:href="#DejaVuSans-48"/>
       <use x="190.869141" xlink:href="#DejaVuSans-48"/>
      </g>
     </g>
    </g>
    <g id="ytick_16">
     <g id="line2d_21">
      <g>
       <use style="stroke:#000000;stroke-width:0.8;" x="225.252886" xlink:href="#mb85349c518" y="79.373299"/>
      </g>
     </g>
     <g id="text_21">
      <!-- 3000 -->
      <g transform="translate(192.802886 83.172518)scale(0.1 -0.1)">
       <use xlink:href="#DejaVuSans-51"/>
       <use x="63.623047" xlink:href="#DejaVuSans-48"/>
       <use x="127.246094" xlink:href="#DejaVuSans-48"/>
       <use x="190.869141" xlink:href="#DejaVuSans-48"/>
      </g>
     </g>
    </g>
    <g id="ytick_17">
     <g id="line2d_22">
      <g>
       <use style="stroke:#000000;stroke-width:0.8;" x="225.252886" xlink:href="#mb85349c518" y="38.28191"/>
      </g>
     </g>
     <g id="text_22">
      <!-- 3500 -->
      <g transform="translate(192.802886 42.081128)scale(0.1 -0.1)">
       <use xlink:href="#DejaVuSans-51"/>
       <use x="63.623047" xlink:href="#DejaVuSans-53"/>
       <use x="127.246094" xlink:href="#DejaVuSans-48"/>
       <use x="190.869141" xlink:href="#DejaVuSans-48"/>
      </g>
     </g>
    </g>
   </g>
   <g id="line2d_23">
    <path clip-path="url(#pf809be9a38)" d="M 229.487459 325.866459 
L 230.319399 325.84486 
L 231.151338 325.818778 
L 231.983278 325.792456 
L 232.815218 325.761377 
L 233.647157 325.724068 
L 234.479097 325.679331 
L 235.311037 325.62501 
L 236.142977 325.559086 
L 236.974916 325.480121 
L 237.806856 325.388354 
L 238.638796 325.283991 
L 239.470736 325.168127 
L 240.302675 325.042714 
L 241.134615 324.910215 
L 241.966555 324.770939 
L 242.798494 324.620539 
L 243.630434 324.452648 
L 244.462374 324.262166 
L 245.294314 324.036942 
L 246.126253 323.76195 
L 246.958193 323.419801 
L 247.790133 322.998447 
L 248.622073 322.496143 
L 249.454012 321.912272 
L 250.285952 321.237354 
L 251.117892 320.479841 
L 251.949831 319.654248 
L 252.781771 318.783919 
L 253.613711 317.875356 
L 254.445651 316.925 
L 255.27759 315.926142 
L 256.10953 314.892234 
L 256.94147 313.821667 
L 257.77341 312.69986 
L 258.605349 311.488135 
L 259.437289 310.18519 
L 260.269229 308.789144 
L 261.101168 307.297737 
L 261.933108 305.693444 
L 262.765048 303.959391 
L 263.596988 302.077813 
L 264.428927 300.059457 
L 265.260867 297.856507 
L 266.092807 295.421932 
L 266.924747 292.715753 
L 267.756686 289.695699 
L 268.588626 286.30625 
L 269.420566 282.525465 
L 270.252505 278.309807 
L 271.084445 273.686829 
L 271.916385 268.703732 
L 272.748325 263.416994 
L 273.580264 257.873849 
L 274.412204 252.137724 
L 275.244144 246.226075 
L 276.076084 240.188362 
L 276.908023 234.002097 
L 277.739963 227.603067 
L 278.571903 220.923774 
L 279.403842 213.981879 
L 280.235782 206.913784 
L 281.067722 199.904835 
L 281.899662 193.09205 
L 282.731601 186.686106 
L 283.563541 180.976748 
L 284.395481 176.162056 
L 285.227421 172.277045 
L 286.05936 169.015816 
L 286.8913 166.058126 
L 287.72324 163.189191 
L 288.555179 160.204768 
L 289.387119 156.843455 
L 290.219059 153.037547 
L 291.050999 148.882028 
L 291.882938 144.93147 
L 292.714878 141.740786 
L 293.546818 139.705008 
L 294.378758 139.050969 
L 295.210697 139.914042 
L 296.042637 142.245966 
L 296.874577 145.846674 
L 297.706516 149.987371 
L 298.538456 153.826036 
L 299.370396 156.663584 
L 300.202336 157.977379 
L 301.034275 157.422842 
L 301.866215 154.811648 
L 302.698155 150.574494 
L 303.530095 145.061984 
L 304.362034 138.851622 
L 305.193974 134.803102 
L 306.025914 130.677293 
L 306.857853 126.850746 
" style="fill:none;stroke:#ff0000;stroke-linecap:square;stroke-width:1.5;"/>
   </g>
   <g id="patch_196">
    <path d="M 225.252886 325.921635 
L 225.252886 18.118365 
" style="fill:none;stroke:#000000;stroke-linecap:square;stroke-linejoin:miter;stroke-width:0.8;"/>
   </g>
   <g id="patch_197">
    <path d="M 311.092427 325.921635 
L 311.092427 18.118365 
" style="fill:none;stroke:#000000;stroke-linecap:square;stroke-linejoin:miter;stroke-width:0.8;"/>
   </g>
   <g id="patch_198">
    <path d="M 225.252886 325.921635 
L 311.092427 325.921635 
" style="fill:none;stroke:#000000;stroke-linecap:square;stroke-linejoin:miter;stroke-width:0.8;"/>
   </g>
   <g id="patch_199">
    <path d="M 225.252886 18.118365 
L 311.092427 18.118365 
" style="fill:none;stroke:#000000;stroke-linecap:square;stroke-linejoin:miter;stroke-width:0.8;"/>
   </g>
   <g id="text_23">
    <!-- Casos novos - PA - (data) -->
    <defs>
     <path d="M 54.890625 33.015625 
L 54.890625 0 
L 45.90625 0 
L 45.90625 32.71875 
Q 45.90625 40.484375 42.875 44.328125 
Q 39.84375 48.1875 33.796875 48.1875 
Q 26.515625 48.1875 22.3125 43.546875 
Q 18.109375 38.921875 18.109375 30.90625 
L 18.109375 0 
L 9.078125 0 
L 9.078125 54.6875 
L 18.109375 54.6875 
L 18.109375 46.1875 
Q 21.34375 51.125 25.703125 53.5625 
Q 30.078125 56 35.796875 56 
Q 45.21875 56 50.046875 50.171875 
Q 54.890625 44.34375 54.890625 33.015625 
z
" id="DejaVuSans-110"/>
     <path d="M 2.984375 54.6875 
L 12.5 54.6875 
L 29.59375 8.796875 
L 46.6875 54.6875 
L 56.203125 54.6875 
L 35.6875 0 
L 23.484375 0 
z
" id="DejaVuSans-118"/>
    </defs>
    <g transform="translate(193.161406 12.118365)scale(0.12 -0.12)">
     <use xlink:href="#DejaVuSans-67"/>
     <use x="69.824219" xlink:href="#DejaVuSans-97"/>
     <use x="131.103516" xlink:href="#DejaVuSans-115"/>
     <use x="183.203125" xlink:href="#DejaVuSans-111"/>
     <use x="244.384766" xlink:href="#DejaVuSans-115"/>
     <use x="296.484375" xlink:href="#DejaVuSans-32"/>
     <use x="328.271484" xlink:href="#DejaVuSans-110"/>
     <use x="391.650391" xlink:href="#DejaVuSans-111"/>
     <use x="452.832031" xlink:href="#DejaVuSans-118"/>
     <use x="512.011719" xlink:href="#DejaVuSans-111"/>
     <use x="573.193359" xlink:href="#DejaVuSans-115"/>
     <use x="625.292969" xlink:href="#DejaVuSans-32"/>
     <use x="657.080078" xlink:href="#DejaVuSans-45"/>
     <use x="693.164062" xlink:href="#DejaVuSans-32"/>
     <use x="724.951172" xlink:href="#DejaVuSans-80"/>
     <use x="778.878906" xlink:href="#DejaVuSans-65"/>
     <use x="847.287109" xlink:href="#DejaVuSans-32"/>
     <use x="879.074219" xlink:href="#DejaVuSans-45"/>
     <use x="915.158203" xlink:href="#DejaVuSans-32"/>
     <use x="946.945312" xlink:href="#DejaVuSans-40"/>
     <use x="985.958984" xlink:href="#DejaVuSans-100"/>
     <use x="1049.435547" xlink:href="#DejaVuSans-97"/>
     <use x="1110.714844" xlink:href="#DejaVuSans-116"/>
     <use x="1149.923828" xlink:href="#DejaVuSans-97"/>
     <use x="1211.203125" xlink:href="#DejaVuSans-41"/>
    </g>
   </g>
  </g>
  <g id="axes_3">
   <g id="patch_200">
    <path d="M 371.960219 325.921635 
L 457.79976 325.921635 
L 457.79976 18.118365 
L 371.960219 18.118365 
z
" style="fill:#ffffff;"/>
   </g>
   <g id="matplotlib.axis_5">
    <g id="xtick_5">
     <g id="line2d_24">
      <g>
       <use style="stroke:#000000;stroke-width:0.8;" x="375.862016" xlink:href="#mfbd93c7875" y="325.921635"/>
      </g>
     </g>
     <g id="text_24">
      <!-- 0 -->
      <g transform="translate(372.680766 340.520072)scale(0.1 -0.1)">
       <use xlink:href="#DejaVuSans-48"/>
      </g>
     </g>
    </g>
    <g id="xtick_6">
     <g id="line2d_25">
      <g>
       <use style="stroke:#000000;stroke-width:0.8;" x="417.816826" xlink:href="#mfbd93c7875" y="325.921635"/>
      </g>
     </g>
     <g id="text_25">
      <!-- 50 -->
      <g transform="translate(411.454326 340.520072)scale(0.1 -0.1)">
       <use xlink:href="#DejaVuSans-53"/>
       <use x="63.623047" xlink:href="#DejaVuSans-48"/>
      </g>
     </g>
    </g>
   </g>
   <g id="matplotlib.axis_6">
    <g id="ytick_18">
     <g id="line2d_26">
      <g>
       <use style="stroke:#000000;stroke-width:0.8;" x="371.960219" xlink:href="#mb85349c518" y="307.349112"/>
      </g>
     </g>
     <g id="text_26">
      <!-- 1.0 -->
      <defs>
       <path d="M 10.6875 12.40625 
L 21 12.40625 
L 21 0 
L 10.6875 0 
z
" id="DejaVuSans-46"/>
      </defs>
      <g transform="translate(349.057094 311.148331)scale(0.1 -0.1)">
       <use xlink:href="#DejaVuSans-49"/>
       <use x="63.623047" xlink:href="#DejaVuSans-46"/>
       <use x="95.410156" xlink:href="#DejaVuSans-48"/>
      </g>
     </g>
    </g>
    <g id="ytick_19">
     <g id="line2d_27">
      <g>
       <use style="stroke:#000000;stroke-width:0.8;" x="371.960219" xlink:href="#mb85349c518" y="247.043467"/>
      </g>
     </g>
     <g id="text_27">
      <!-- 1.5 -->
      <g transform="translate(349.057094 250.842685)scale(0.1 -0.1)">
       <use xlink:href="#DejaVuSans-49"/>
       <use x="63.623047" xlink:href="#DejaVuSans-46"/>
       <use x="95.410156" xlink:href="#DejaVuSans-53"/>
      </g>
     </g>
    </g>
    <g id="ytick_20">
     <g id="line2d_28">
      <g>
       <use style="stroke:#000000;stroke-width:0.8;" x="371.960219" xlink:href="#mb85349c518" y="186.737821"/>
      </g>
     </g>
     <g id="text_28">
      <!-- 2.0 -->
      <g transform="translate(349.057094 190.53704)scale(0.1 -0.1)">
       <use xlink:href="#DejaVuSans-50"/>
       <use x="63.623047" xlink:href="#DejaVuSans-46"/>
       <use x="95.410156" xlink:href="#DejaVuSans-48"/>
      </g>
     </g>
    </g>
    <g id="ytick_21">
     <g id="line2d_29">
      <g>
       <use style="stroke:#000000;stroke-width:0.8;" x="371.960219" xlink:href="#mb85349c518" y="126.432175"/>
      </g>
     </g>
     <g id="text_29">
      <!-- 2.5 -->
      <g transform="translate(349.057094 130.231394)scale(0.1 -0.1)">
       <use xlink:href="#DejaVuSans-50"/>
       <use x="63.623047" xlink:href="#DejaVuSans-46"/>
       <use x="95.410156" xlink:href="#DejaVuSans-53"/>
      </g>
     </g>
    </g>
    <g id="ytick_22">
     <g id="line2d_30">
      <g>
       <use style="stroke:#000000;stroke-width:0.8;" x="371.960219" xlink:href="#mb85349c518" y="66.12653"/>
      </g>
     </g>
     <g id="text_30">
      <!-- 3.0 -->
      <g transform="translate(349.057094 69.925748)scale(0.1 -0.1)">
       <use xlink:href="#DejaVuSans-51"/>
       <use x="63.623047" xlink:href="#DejaVuSans-46"/>
       <use x="95.410156" xlink:href="#DejaVuSans-48"/>
      </g>
     </g>
    </g>
   </g>
   <g id="line2d_31">
    <path clip-path="url(#pae66a06072)" d="M 375.862016 32.109423 
L 376.701112 64.982657 
L 377.540209 88.881275 
L 378.379305 131.796266 
L 379.218401 140.261436 
L 380.057497 144.64522 
L 380.896593 148.270823 
L 381.73569 149.560093 
L 382.574786 150.670174 
L 383.413882 153.235534 
L 384.252978 159.063121 
L 385.092074 166.30179 
L 385.931171 174.826931 
L 386.770267 184.361383 
L 387.609363 194.422998 
L 388.448459 203.001321 
L 389.287555 207.679463 
L 390.126652 208.791488 
L 390.965748 208.351212 
L 391.804844 204.269039 
L 392.64394 197.500984 
L 393.483036 189.347063 
L 394.322133 182.95108 
L 395.161229 180.762643 
L 396.000325 181.591077 
L 396.839421 182.87443 
L 397.678517 187.028051 
L 398.517614 193.417167 
L 399.35671 201.8071 
L 400.195806 209.524603 
L 401.034902 215.742997 
L 401.873998 220.59518 
L 402.713095 225.865532 
L 403.552191 230.333893 
L 404.391287 233.386878 
L 405.230383 234.06425 
L 406.069479 234.96054 
L 406.908576 235.986435 
L 407.747672 237.084793 
L 408.586768 237.62405 
L 409.425864 237.791122 
L 410.26496 237.676862 
L 411.104057 238.269063 
L 411.943153 237.697348 
L 412.782249 236.343053 
L 413.621345 234.665196 
L 414.460441 232.789929 
L 415.299538 230.602925 
L 416.138634 228.931765 
L 416.97773 227.349819 
L 417.816826 227.01159 
L 418.655922 227.850858 
L 419.495019 229.627268 
L 420.334115 231.922689 
L 421.173211 234.726795 
L 422.012307 237.378509 
L 422.851403 240.184158 
L 423.6905 242.411812 
L 424.529596 243.805483 
L 425.368692 244.500704 
L 426.207788 245.279659 
L 427.046884 246.960166 
L 427.885981 249.674184 
L 428.725077 252.897197 
L 429.564173 257.007636 
L 430.403269 262.383099 
L 431.242365 268.386803 
L 432.081462 274.100665 
L 432.920558 277.65791 
L 433.759654 279.15991 
L 434.59875 279.335235 
L 435.437846 278.313111 
L 436.276943 275.839901 
L 437.116039 273.065392 
L 437.955135 270.887014 
L 438.794231 271.672523 
L 439.633327 275.248821 
L 440.472424 280.724902 
L 441.31152 287.307627 
L 442.150616 294.688579 
L 442.989712 302.093154 
L 443.828808 308.847106 
L 444.667905 311.930577 
L 445.507001 310.271806 
L 446.346097 304.260058 
L 447.185193 294.741747 
L 448.024289 282.894102 
L 448.863385 269.997766 
L 449.702482 260.035955 
L 450.541578 252.559071 
L 451.380674 248.661176 
L 452.21977 260.111612 
L 453.058866 259.143371 
L 453.897963 260.111899 
" style="fill:none;stroke:#ff0000;stroke-linecap:square;stroke-width:1.5;"/>
   </g>
   <g id="patch_201">
    <path d="M 371.960219 325.921635 
L 371.960219 18.118365 
" style="fill:none;stroke:#000000;stroke-linecap:square;stroke-linejoin:miter;stroke-width:0.8;"/>
   </g>
   <g id="patch_202">
    <path d="M 457.79976 325.921635 
L 457.79976 18.118365 
" style="fill:none;stroke:#000000;stroke-linecap:square;stroke-linejoin:miter;stroke-width:0.8;"/>
   </g>
   <g id="patch_203">
    <path d="M 371.960219 325.921635 
L 457.79976 325.921635 
" style="fill:none;stroke:#000000;stroke-linecap:square;stroke-linejoin:miter;stroke-width:0.8;"/>
   </g>
   <g id="patch_204">
    <path d="M 371.960219 18.118365 
L 457.79976 18.118365 
" style="fill:none;stroke:#000000;stroke-linecap:square;stroke-linejoin:miter;stroke-width:0.8;"/>
   </g>
   <g id="text_31">
    <!-- r0 - PA - (data) -->
    <defs>
     <path d="M 41.109375 46.296875 
Q 39.59375 47.171875 37.8125 47.578125 
Q 36.03125 48 33.890625 48 
Q 26.265625 48 22.1875 43.046875 
Q 18.109375 38.09375 18.109375 28.8125 
L 18.109375 0 
L 9.078125 0 
L 9.078125 54.6875 
L 18.109375 54.6875 
L 18.109375 46.1875 
Q 20.953125 51.171875 25.484375 53.578125 
Q 30.03125 56 36.53125 56 
Q 37.453125 56 38.578125 55.875 
Q 39.703125 55.765625 41.0625 55.515625 
z
" id="DejaVuSans-114"/>
    </defs>
    <g transform="translate(371.102489 12.118365)scale(0.12 -0.12)">
     <use xlink:href="#DejaVuSans-114"/>
     <use x="41.113281" xlink:href="#DejaVuSans-48"/>
     <use x="104.736328" xlink:href="#DejaVuSans-32"/>
     <use x="136.523438" xlink:href="#DejaVuSans-45"/>
     <use x="172.607422" xlink:href="#DejaVuSans-32"/>
     <use x="204.394531" xlink:href="#DejaVuSans-80"/>
     <use x="258.322266" xlink:href="#DejaVuSans-65"/>
     <use x="326.730469" xlink:href="#DejaVuSans-32"/>
     <use x="358.517578" xlink:href="#DejaVuSans-45"/>
     <use x="394.601562" xlink:href="#DejaVuSans-32"/>
     <use x="426.388672" xlink:href="#DejaVuSans-40"/>
     <use x="465.402344" xlink:href="#DejaVuSans-100"/>
     <use x="528.878906" xlink:href="#DejaVuSans-97"/>
     <use x="590.158203" xlink:href="#DejaVuSans-116"/>
     <use x="629.367188" xlink:href="#DejaVuSans-97"/>
     <use x="690.646484" xlink:href="#DejaVuSans-41"/>
    </g>
   </g>
  </g>
 </g>
 <defs>
  <clipPath id="p45355ca879">
   <rect height="307.80327" width="85.839541" x="50.445552" y="18.118365"/>
  </clipPath>
  <clipPath id="pf809be9a38">
   <rect height="307.80327" width="85.839541" x="225.252886" y="18.118365"/>
  </clipPath>
  <clipPath id="pae66a06072">
   <rect height="307.80327" width="85.839541" x="371.960219" y="18.118365"/>
  </clipPath>
 </defs>
</svg>
