<?xml version="1.0" encoding="utf-8" standalone="no"?>
<!DOCTYPE svg PUBLIC "-//W3C//DTD SVG 1.1//EN"
  "http://www.w3.org/Graphics/SVG/1.1/DTD/svg11.dtd">
<!-- Created with matplotlib (https://matplotlib.org/) -->
<svg height="345.6pt" version="1.1" viewBox="0 0 460.8 345.6" width="460.8pt" xmlns="http://www.w3.org/2000/svg" xmlns:xlink="http://www.w3.org/1999/xlink">
 <defs>
  <style type="text/css">
*{stroke-linecap:butt;stroke-linejoin:round;}
  </style>
 </defs>
 <g id="figure_1">
  <g id="patch_1">
   <path d="M 0 345.6 
L 460.8 345.6 
L 460.8 0 
L 0 0 
z
" style="fill:#ffffff;"/>
  </g>
  <g id="axes_1">
   <g id="patch_2">
    <path d="M 55.490865 137.71551 
L 228.27701 137.71551 
L 228.27701 18.118365 
L 55.490865 18.118365 
z
" style="fill:#ffffff;"/>
   </g>
   <g id="patch_3">
    <path clip-path="url(#pdfccb006bb)" d="M 63.344781 137.71551 
L 64.684468 137.71551 
L 64.684468 137.712487 
L 63.344781 137.712487 
z
" style="fill:#1f77b4;"/>
   </g>
   <g id="patch_4">
    <path clip-path="url(#pdfccb006bb)" d="M 65.01939 137.71551 
L 66.359077 137.71551 
L 66.359077 137.712487 
L 65.01939 137.712487 
z
" style="fill:#1f77b4;"/>
   </g>
   <g id="patch_5">
    <path clip-path="url(#pdfccb006bb)" d="M 66.693998 137.71551 
L 68.033686 137.71551 
L 68.033686 137.712487 
L 66.693998 137.712487 
z
" style="fill:#1f77b4;"/>
   </g>
   <g id="patch_6">
    <path clip-path="url(#pdfccb006bb)" d="M 68.368607 137.71551 
L 69.708294 137.71551 
L 69.708294 137.709463 
L 68.368607 137.709463 
z
" style="fill:#1f77b4;"/>
   </g>
   <g id="patch_7">
    <path clip-path="url(#pdfccb006bb)" d="M 70.043216 137.71551 
L 71.382903 137.71551 
L 71.382903 137.70644 
L 70.043216 137.70644 
z
" style="fill:#1f77b4;"/>
   </g>
   <g id="patch_8">
    <path clip-path="url(#pdfccb006bb)" d="M 71.717825 137.71551 
L 73.057512 137.71551 
L 73.057512 137.70644 
L 71.717825 137.70644 
z
" style="fill:#1f77b4;"/>
   </g>
   <g id="patch_9">
    <path clip-path="url(#pdfccb006bb)" d="M 73.392434 137.71551 
L 74.732121 137.71551 
L 74.732121 137.700393 
L 73.392434 137.700393 
z
" style="fill:#1f77b4;"/>
   </g>
   <g id="patch_10">
    <path clip-path="url(#pdfccb006bb)" d="M 75.067043 137.71551 
L 76.40673 137.71551 
L 76.40673 137.688299 
L 75.067043 137.688299 
z
" style="fill:#1f77b4;"/>
   </g>
   <g id="patch_11">
    <path clip-path="url(#pdfccb006bb)" d="M 76.741652 137.71551 
L 78.081339 137.71551 
L 78.081339 137.673181 
L 76.741652 137.673181 
z
" style="fill:#1f77b4;"/>
   </g>
   <g id="patch_12">
    <path clip-path="url(#pdfccb006bb)" d="M 78.416261 137.71551 
L 79.755948 137.71551 
L 79.755948 137.673181 
L 78.416261 137.673181 
z
" style="fill:#1f77b4;"/>
   </g>
   <g id="patch_13">
    <path clip-path="url(#pdfccb006bb)" d="M 80.09087 137.71551 
L 81.430557 137.71551 
L 81.430557 137.670158 
L 80.09087 137.670158 
z
" style="fill:#1f77b4;"/>
   </g>
   <g id="patch_14">
    <path clip-path="url(#pdfccb006bb)" d="M 81.765478 137.71551 
L 83.105166 137.71551 
L 83.105166 137.664111 
L 81.765478 137.664111 
z
" style="fill:#1f77b4;"/>
   </g>
   <g id="patch_15">
    <path clip-path="url(#pdfccb006bb)" d="M 83.440087 137.71551 
L 84.779774 137.71551 
L 84.779774 137.65504 
L 83.440087 137.65504 
z
" style="fill:#1f77b4;"/>
   </g>
   <g id="patch_16">
    <path clip-path="url(#pdfccb006bb)" d="M 85.114696 137.71551 
L 86.454383 137.71551 
L 86.454383 137.652017 
L 85.114696 137.652017 
z
" style="fill:#1f77b4;"/>
   </g>
   <g id="patch_17">
    <path clip-path="url(#pdfccb006bb)" d="M 86.789305 137.71551 
L 88.128992 137.71551 
L 88.128992 137.627829 
L 86.789305 137.627829 
z
" style="fill:#1f77b4;"/>
   </g>
   <g id="patch_18">
    <path clip-path="url(#pdfccb006bb)" d="M 88.463914 137.71551 
L 89.803601 137.71551 
L 89.803601 137.618758 
L 88.463914 137.618758 
z
" style="fill:#1f77b4;"/>
   </g>
   <g id="patch_19">
    <path clip-path="url(#pdfccb006bb)" d="M 90.138523 137.71551 
L 91.47821 137.71551 
L 91.47821 137.612711 
L 90.138523 137.612711 
z
" style="fill:#1f77b4;"/>
   </g>
   <g id="patch_20">
    <path clip-path="url(#pdfccb006bb)" d="M 91.813132 137.71551 
L 93.152819 137.71551 
L 93.152819 137.609688 
L 91.813132 137.609688 
z
" style="fill:#1f77b4;"/>
   </g>
   <g id="patch_21">
    <path clip-path="url(#pdfccb006bb)" d="M 93.487741 137.71551 
L 94.827428 137.71551 
L 94.827428 137.606664 
L 93.487741 137.606664 
z
" style="fill:#1f77b4;"/>
   </g>
   <g id="patch_22">
    <path clip-path="url(#pdfccb006bb)" d="M 95.16235 137.71551 
L 96.502037 137.71551 
L 96.502037 137.591547 
L 95.16235 137.591547 
z
" style="fill:#1f77b4;"/>
   </g>
   <g id="patch_23">
    <path clip-path="url(#pdfccb006bb)" d="M 96.836958 137.71551 
L 98.176646 137.71551 
L 98.176646 137.549218 
L 96.836958 137.549218 
z
" style="fill:#1f77b4;"/>
   </g>
   <g id="patch_24">
    <path clip-path="url(#pdfccb006bb)" d="M 98.511567 137.71551 
L 99.851254 137.71551 
L 99.851254 137.476654 
L 98.511567 137.476654 
z
" style="fill:#1f77b4;"/>
   </g>
   <g id="patch_25">
    <path clip-path="url(#pdfccb006bb)" d="M 100.186176 137.71551 
L 101.525863 137.71551 
L 101.525863 137.458513 
L 100.186176 137.458513 
z
" style="fill:#1f77b4;"/>
   </g>
   <g id="patch_26">
    <path clip-path="url(#pdfccb006bb)" d="M 101.860785 137.71551 
L 103.200472 137.71551 
L 103.200472 137.410137 
L 101.860785 137.410137 
z
" style="fill:#1f77b4;"/>
   </g>
   <g id="patch_27">
    <path clip-path="url(#pdfccb006bb)" d="M 103.535394 137.71551 
L 104.875081 137.71551 
L 104.875081 137.379902 
L 103.535394 137.379902 
z
" style="fill:#1f77b4;"/>
   </g>
   <g id="patch_28">
    <path clip-path="url(#pdfccb006bb)" d="M 105.210003 137.71551 
L 106.54969 137.71551 
L 106.54969 137.304315 
L 105.210003 137.304315 
z
" style="fill:#1f77b4;"/>
   </g>
   <g id="patch_29">
    <path clip-path="url(#pdfccb006bb)" d="M 106.884612 137.71551 
L 108.224299 137.71551 
L 108.224299 137.258963 
L 106.884612 137.258963 
z
" style="fill:#1f77b4;"/>
   </g>
   <g id="patch_30">
    <path clip-path="url(#pdfccb006bb)" d="M 108.559221 137.71551 
L 109.898908 137.71551 
L 109.898908 137.216634 
L 108.559221 137.216634 
z
" style="fill:#1f77b4;"/>
   </g>
   <g id="patch_31">
    <path clip-path="url(#pdfccb006bb)" d="M 110.23383 137.71551 
L 111.573517 137.71551 
L 111.573517 137.125929 
L 110.23383 137.125929 
z
" style="fill:#1f77b4;"/>
   </g>
   <g id="patch_32">
    <path clip-path="url(#pdfccb006bb)" d="M 111.908438 137.71551 
L 113.248126 137.71551 
L 113.248126 137.095694 
L 111.908438 137.095694 
z
" style="fill:#1f77b4;"/>
   </g>
   <g id="patch_33">
    <path clip-path="url(#pdfccb006bb)" d="M 113.583047 137.71551 
L 114.922734 137.71551 
L 114.922734 137.001966 
L 113.583047 137.001966 
z
" style="fill:#1f77b4;"/>
   </g>
   <g id="patch_34">
    <path clip-path="url(#pdfccb006bb)" d="M 115.257656 137.71551 
L 116.597343 137.71551 
L 116.597343 136.974754 
L 115.257656 136.974754 
z
" style="fill:#1f77b4;"/>
   </g>
   <g id="patch_35">
    <path clip-path="url(#pdfccb006bb)" d="M 116.932265 137.71551 
L 118.271952 137.71551 
L 118.271952 136.920332 
L 116.932265 136.920332 
z
" style="fill:#1f77b4;"/>
   </g>
   <g id="patch_36">
    <path clip-path="url(#pdfccb006bb)" d="M 118.606874 137.71551 
L 119.946561 137.71551 
L 119.946561 136.805439 
L 118.606874 136.805439 
z
" style="fill:#1f77b4;"/>
   </g>
   <g id="patch_37">
    <path clip-path="url(#pdfccb006bb)" d="M 120.281483 137.71551 
L 121.62117 137.71551 
L 121.62117 136.672405 
L 120.281483 136.672405 
z
" style="fill:#1f77b4;"/>
   </g>
   <g id="patch_38">
    <path clip-path="url(#pdfccb006bb)" d="M 121.956092 137.71551 
L 123.295779 137.71551 
L 123.295779 136.548442 
L 121.956092 136.548442 
z
" style="fill:#1f77b4;"/>
   </g>
   <g id="patch_39">
    <path clip-path="url(#pdfccb006bb)" d="M 123.630701 137.71551 
L 124.970388 137.71551 
L 124.970388 136.364009 
L 123.630701 136.364009 
z
" style="fill:#1f77b4;"/>
   </g>
   <g id="patch_40">
    <path clip-path="url(#pdfccb006bb)" d="M 125.30531 137.71551 
L 126.644997 137.71551 
L 126.644997 136.206788 
L 125.30531 136.206788 
z
" style="fill:#1f77b4;"/>
   </g>
   <g id="patch_41">
    <path clip-path="url(#pdfccb006bb)" d="M 126.979918 137.71551 
L 128.319606 137.71551 
L 128.319606 136.073754 
L 126.979918 136.073754 
z
" style="fill:#1f77b4;"/>
   </g>
   <g id="patch_42">
    <path clip-path="url(#pdfccb006bb)" d="M 128.654527 137.71551 
L 129.994214 137.71551 
L 129.994214 135.80164 
L 128.654527 135.80164 
z
" style="fill:#1f77b4;"/>
   </g>
   <g id="patch_43">
    <path clip-path="url(#pdfccb006bb)" d="M 130.329136 137.71551 
L 131.668823 137.71551 
L 131.668823 135.602089 
L 130.329136 135.602089 
z
" style="fill:#1f77b4;"/>
   </g>
   <g id="patch_44">
    <path clip-path="url(#pdfccb006bb)" d="M 132.003745 137.71551 
L 133.343432 137.71551 
L 133.343432 135.254388 
L 132.003745 135.254388 
z
" style="fill:#1f77b4;"/>
   </g>
   <g id="patch_45">
    <path clip-path="url(#pdfccb006bb)" d="M 133.678354 137.71551 
L 135.018041 137.71551 
L 135.018041 134.915757 
L 133.678354 134.915757 
z
" style="fill:#1f77b4;"/>
   </g>
   <g id="patch_46">
    <path clip-path="url(#pdfccb006bb)" d="M 135.352963 137.71551 
L 136.69265 137.71551 
L 136.69265 134.589219 
L 135.352963 134.589219 
z
" style="fill:#1f77b4;"/>
   </g>
   <g id="patch_47">
    <path clip-path="url(#pdfccb006bb)" d="M 137.027572 137.71551 
L 138.367259 137.71551 
L 138.367259 134.181048 
L 137.027572 134.181048 
z
" style="fill:#1f77b4;"/>
   </g>
   <g id="patch_48">
    <path clip-path="url(#pdfccb006bb)" d="M 138.702181 137.71551 
L 140.041868 137.71551 
L 140.041868 134.029873 
L 138.702181 134.029873 
z
" style="fill:#1f77b4;"/>
   </g>
   <g id="patch_49">
    <path clip-path="url(#pdfccb006bb)" d="M 140.37679 137.71551 
L 141.716477 137.71551 
L 141.716477 133.600538 
L 140.37679 133.600538 
z
" style="fill:#1f77b4;"/>
   </g>
   <g id="patch_50">
    <path clip-path="url(#pdfccb006bb)" d="M 142.051398 137.71551 
L 143.391085 137.71551 
L 143.391085 133.201437 
L 142.051398 133.201437 
z
" style="fill:#1f77b4;"/>
   </g>
   <g id="patch_51">
    <path clip-path="url(#pdfccb006bb)" d="M 143.726007 137.71551 
L 145.065694 137.71551 
L 145.065694 132.705584 
L 143.726007 132.705584 
z
" style="fill:#1f77b4;"/>
   </g>
   <g id="patch_52">
    <path clip-path="url(#pdfccb006bb)" d="M 145.400616 137.71551 
L 146.740303 137.71551 
L 146.740303 131.574798 
L 145.400616 131.574798 
z
" style="fill:#1f77b4;"/>
   </g>
   <g id="patch_53">
    <path clip-path="url(#pdfccb006bb)" d="M 147.075225 137.71551 
L 148.414912 137.71551 
L 148.414912 131.196862 
L 147.075225 131.196862 
z
" style="fill:#1f77b4;"/>
   </g>
   <g id="patch_54">
    <path clip-path="url(#pdfccb006bb)" d="M 148.749834 137.71551 
L 150.089521 137.71551 
L 150.089521 130.637516 
L 148.749834 130.637516 
z
" style="fill:#1f77b4;"/>
   </g>
   <g id="patch_55">
    <path clip-path="url(#pdfccb006bb)" d="M 150.424443 137.71551 
L 151.76413 137.71551 
L 151.76413 130.081193 
L 150.424443 130.081193 
z
" style="fill:#1f77b4;"/>
   </g>
   <g id="patch_56">
    <path clip-path="url(#pdfccb006bb)" d="M 152.099052 137.71551 
L 153.438739 137.71551 
L 153.438739 129.319273 
L 152.099052 129.319273 
z
" style="fill:#1f77b4;"/>
   </g>
   <g id="patch_57">
    <path clip-path="url(#pdfccb006bb)" d="M 153.773661 137.71551 
L 155.113348 137.71551 
L 155.113348 128.508977 
L 153.773661 128.508977 
z
" style="fill:#1f77b4;"/>
   </g>
   <g id="patch_58">
    <path clip-path="url(#pdfccb006bb)" d="M 155.448269 137.71551 
L 156.787957 137.71551 
L 156.787957 127.553554 
L 155.448269 127.553554 
z
" style="fill:#1f77b4;"/>
   </g>
   <g id="patch_59">
    <path clip-path="url(#pdfccb006bb)" d="M 157.122878 137.71551 
L 158.462565 137.71551 
L 158.462565 126.410674 
L 157.122878 126.410674 
z
" style="fill:#1f77b4;"/>
   </g>
   <g id="patch_60">
    <path clip-path="url(#pdfccb006bb)" d="M 158.797487 137.71551 
L 160.137174 137.71551 
L 160.137174 125.431063 
L 158.797487 125.431063 
z
" style="fill:#1f77b4;"/>
   </g>
   <g id="patch_61">
    <path clip-path="url(#pdfccb006bb)" d="M 160.472096 137.71551 
L 161.811783 137.71551 
L 161.811783 124.572391 
L 160.472096 124.572391 
z
" style="fill:#1f77b4;"/>
   </g>
   <g id="patch_62">
    <path clip-path="url(#pdfccb006bb)" d="M 162.146705 137.71551 
L 163.486392 137.71551 
L 163.486392 123.245078 
L 162.146705 123.245078 
z
" style="fill:#1f77b4;"/>
   </g>
   <g id="patch_63">
    <path clip-path="url(#pdfccb006bb)" d="M 163.821314 137.71551 
L 165.161001 137.71551 
L 165.161001 121.691003 
L 163.821314 121.691003 
z
" style="fill:#1f77b4;"/>
   </g>
   <g id="patch_64">
    <path clip-path="url(#pdfccb006bb)" d="M 165.495923 137.71551 
L 166.83561 137.71551 
L 166.83561 120.064365 
L 165.495923 120.064365 
z
" style="fill:#1f77b4;"/>
   </g>
   <g id="patch_65">
    <path clip-path="url(#pdfccb006bb)" d="M 167.170532 137.71551 
L 168.510219 137.71551 
L 168.510219 118.854968 
L 167.170532 118.854968 
z
" style="fill:#1f77b4;"/>
   </g>
   <g id="patch_66">
    <path clip-path="url(#pdfccb006bb)" d="M 168.845141 137.71551 
L 170.184828 137.71551 
L 170.184828 116.907839 
L 168.845141 116.907839 
z
" style="fill:#1f77b4;"/>
   </g>
   <g id="patch_67">
    <path clip-path="url(#pdfccb006bb)" d="M 170.519749 137.71551 
L 171.859437 137.71551 
L 171.859437 115.015133 
L 170.519749 115.015133 
z
" style="fill:#1f77b4;"/>
   </g>
   <g id="patch_68">
    <path clip-path="url(#pdfccb006bb)" d="M 172.194358 137.71551 
L 173.534045 137.71551 
L 173.534045 114.062733 
L 172.194358 114.062733 
z
" style="fill:#1f77b4;"/>
   </g>
   <g id="patch_69">
    <path clip-path="url(#pdfccb006bb)" d="M 173.868967 137.71551 
L 175.208654 137.71551 
L 175.208654 113.479199 
L 173.868967 113.479199 
z
" style="fill:#1f77b4;"/>
   </g>
   <g id="patch_70">
    <path clip-path="url(#pdfccb006bb)" d="M 175.543576 137.71551 
L 176.883263 137.71551 
L 176.883263 110.748986 
L 175.543576 110.748986 
z
" style="fill:#1f77b4;"/>
   </g>
   <g id="patch_71">
    <path clip-path="url(#pdfccb006bb)" d="M 177.218185 137.71551 
L 178.557872 137.71551 
L 178.557872 106.848682 
L 177.218185 106.848682 
z
" style="fill:#1f77b4;"/>
   </g>
   <g id="patch_72">
    <path clip-path="url(#pdfccb006bb)" d="M 178.892794 137.71551 
L 180.232481 137.71551 
L 180.232481 104.057999 
L 178.892794 104.057999 
z
" style="fill:#1f77b4;"/>
   </g>
   <g id="patch_73">
    <path clip-path="url(#pdfccb006bb)" d="M 180.567403 137.71551 
L 181.90709 137.71551 
L 181.90709 101.400349 
L 180.567403 101.400349 
z
" style="fill:#1f77b4;"/>
   </g>
   <g id="patch_74">
    <path clip-path="url(#pdfccb006bb)" d="M 182.242012 137.71551 
L 183.581699 137.71551 
L 183.581699 98.827358 
L 182.242012 98.827358 
z
" style="fill:#1f77b4;"/>
   </g>
   <g id="patch_75">
    <path clip-path="url(#pdfccb006bb)" d="M 183.916621 137.71551 
L 185.256308 137.71551 
L 185.256308 97.92031 
L 183.916621 97.92031 
z
" style="fill:#1f77b4;"/>
   </g>
   <g id="patch_76">
    <path clip-path="url(#pdfccb006bb)" d="M 185.591229 137.71551 
L 186.930917 137.71551 
L 186.930917 96.308789 
L 185.591229 96.308789 
z
" style="fill:#1f77b4;"/>
   </g>
   <g id="patch_77">
    <path clip-path="url(#pdfccb006bb)" d="M 187.265838 137.71551 
L 188.605525 137.71551 
L 188.605525 92.789445 
L 187.265838 92.789445 
z
" style="fill:#1f77b4;"/>
   </g>
   <g id="patch_78">
    <path clip-path="url(#pdfccb006bb)" d="M 188.940447 137.71551 
L 190.280134 137.71551 
L 190.280134 89.285218 
L 188.940447 89.285218 
z
" style="fill:#1f77b4;"/>
   </g>
   <g id="patch_79">
    <path clip-path="url(#pdfccb006bb)" d="M 190.615056 137.71551 
L 191.954743 137.71551 
L 191.954743 84.565547 
L 190.615056 84.565547 
z
" style="fill:#1f77b4;"/>
   </g>
   <g id="patch_80">
    <path clip-path="url(#pdfccb006bb)" d="M 192.289665 137.71551 
L 193.629352 137.71551 
L 193.629352 81.542055 
L 192.289665 81.542055 
z
" style="fill:#1f77b4;"/>
   </g>
   <g id="patch_81">
    <path clip-path="url(#pdfccb006bb)" d="M 193.964274 137.71551 
L 195.303961 137.71551 
L 195.303961 77.889677 
L 193.964274 77.889677 
z
" style="fill:#1f77b4;"/>
   </g>
   <g id="patch_82">
    <path clip-path="url(#pdfccb006bb)" d="M 195.638883 137.71551 
L 196.97857 137.71551 
L 196.97857 76.30839 
L 195.638883 76.30839 
z
" style="fill:#1f77b4;"/>
   </g>
   <g id="patch_83">
    <path clip-path="url(#pdfccb006bb)" d="M 197.313492 137.71551 
L 198.653179 137.71551 
L 198.653179 74.370332 
L 197.313492 74.370332 
z
" style="fill:#1f77b4;"/>
   </g>
   <g id="patch_84">
    <path clip-path="url(#pdfccb006bb)" d="M 198.988101 137.71551 
L 200.327788 137.71551 
L 200.327788 69.832071 
L 198.988101 69.832071 
z
" style="fill:#1f77b4;"/>
   </g>
   <g id="patch_85">
    <path clip-path="url(#pdfccb006bb)" d="M 200.662709 137.71551 
L 202.002397 137.71551 
L 202.002397 65.054954 
L 200.662709 65.054954 
z
" style="fill:#1f77b4;"/>
   </g>
   <g id="patch_86">
    <path clip-path="url(#pdfccb006bb)" d="M 202.337318 137.71551 
L 203.677005 137.71551 
L 203.677005 61.009522 
L 202.337318 61.009522 
z
" style="fill:#1f77b4;"/>
   </g>
   <g id="patch_87">
    <path clip-path="url(#pdfccb006bb)" d="M 204.011927 137.71551 
L 205.351614 137.71551 
L 205.351614 57.42366 
L 204.011927 57.42366 
z
" style="fill:#1f77b4;"/>
   </g>
   <g id="patch_88">
    <path clip-path="url(#pdfccb006bb)" d="M 205.686536 137.71551 
L 207.026223 137.71551 
L 207.026223 54.708565 
L 205.686536 54.708565 
z
" style="fill:#1f77b4;"/>
   </g>
   <g id="patch_89">
    <path clip-path="url(#pdfccb006bb)" d="M 207.361145 137.71551 
L 208.700832 137.71551 
L 208.700832 53.018433 
L 207.361145 53.018433 
z
" style="fill:#1f77b4;"/>
   </g>
   <g id="patch_90">
    <path clip-path="url(#pdfccb006bb)" d="M 209.035754 137.71551 
L 210.375441 137.71551 
L 210.375441 51.038046 
L 209.035754 51.038046 
z
" style="fill:#1f77b4;"/>
   </g>
   <g id="patch_91">
    <path clip-path="url(#pdfccb006bb)" d="M 210.710363 137.71551 
L 212.05005 137.71551 
L 212.05005 46.623747 
L 210.710363 46.623747 
z
" style="fill:#1f77b4;"/>
   </g>
   <g id="patch_92">
    <path clip-path="url(#pdfccb006bb)" d="M 212.384972 137.71551 
L 213.724659 137.71551 
L 213.724659 41.834536 
L 212.384972 41.834536 
z
" style="fill:#1f77b4;"/>
   </g>
   <g id="patch_93">
    <path clip-path="url(#pdfccb006bb)" d="M 214.059581 137.71551 
L 215.399268 137.71551 
L 215.399268 41.689409 
L 214.059581 41.689409 
z
" style="fill:#1f77b4;"/>
   </g>
   <g id="patch_94">
    <path clip-path="url(#pdfccb006bb)" d="M 215.734189 137.71551 
L 217.073877 137.71551 
L 217.073877 31.61211 
L 215.734189 31.61211 
z
" style="fill:#1f77b4;"/>
   </g>
   <g id="patch_95">
    <path clip-path="url(#pdfccb006bb)" d="M 217.408798 137.71551 
L 218.748485 137.71551 
L 218.748485 27.294564 
L 217.408798 27.294564 
z
" style="fill:#1f77b4;"/>
   </g>
   <g id="patch_96">
    <path clip-path="url(#pdfccb006bb)" d="M 219.083407 137.71551 
L 220.423094 137.71551 
L 220.423094 26.499386 
L 219.083407 26.499386 
z
" style="fill:#1f77b4;"/>
   </g>
   <g id="matplotlib.axis_1">
    <g id="xtick_1">
     <g id="line2d_1">
      <defs>
       <path d="M 0 0 
L 0 3.5 
" id="ma663a58d25" style="stroke:#000000;stroke-width:0.8;"/>
      </defs>
      <g>
       <use style="stroke:#000000;stroke-width:0.8;" x="64.014624" xlink:href="#ma663a58d25" y="137.71551"/>
      </g>
     </g>
     <g id="text_1">
      <!-- 0 -->
      <defs>
       <path d="M 31.78125 66.40625 
Q 24.171875 66.40625 20.328125 58.90625 
Q 16.5 51.421875 16.5 36.375 
Q 16.5 21.390625 20.328125 13.890625 
Q 24.171875 6.390625 31.78125 6.390625 
Q 39.453125 6.390625 43.28125 13.890625 
Q 47.125 21.390625 47.125 36.375 
Q 47.125 51.421875 43.28125 58.90625 
Q 39.453125 66.40625 31.78125 66.40625 
z
M 31.78125 74.21875 
Q 44.046875 74.21875 50.515625 64.515625 
Q 56.984375 54.828125 56.984375 36.375 
Q 56.984375 17.96875 50.515625 8.265625 
Q 44.046875 -1.421875 31.78125 -1.421875 
Q 19.53125 -1.421875 13.0625 8.265625 
Q 6.59375 17.96875 6.59375 36.375 
Q 6.59375 54.828125 13.0625 64.515625 
Q 19.53125 74.21875 31.78125 74.21875 
z
" id="DejaVuSans-48"/>
      </defs>
      <g transform="translate(60.833374 152.313947)scale(0.1 -0.1)">
       <use xlink:href="#DejaVuSans-48"/>
      </g>
     </g>
    </g>
    <g id="xtick_2">
     <g id="line2d_2">
      <g>
       <use style="stroke:#000000;stroke-width:0.8;" x="105.879846" xlink:href="#ma663a58d25" y="137.71551"/>
      </g>
     </g>
     <g id="text_2">
      <!-- 25 -->
      <defs>
       <path d="M 19.1875 8.296875 
L 53.609375 8.296875 
L 53.609375 0 
L 7.328125 0 
L 7.328125 8.296875 
Q 12.9375 14.109375 22.625 23.890625 
Q 32.328125 33.6875 34.8125 36.53125 
Q 39.546875 41.84375 41.421875 45.53125 
Q 43.3125 49.21875 43.3125 52.78125 
Q 43.3125 58.59375 39.234375 62.25 
Q 35.15625 65.921875 28.609375 65.921875 
Q 23.96875 65.921875 18.8125 64.3125 
Q 13.671875 62.703125 7.8125 59.421875 
L 7.8125 69.390625 
Q 13.765625 71.78125 18.9375 73 
Q 24.125 74.21875 28.421875 74.21875 
Q 39.75 74.21875 46.484375 68.546875 
Q 53.21875 62.890625 53.21875 53.421875 
Q 53.21875 48.921875 51.53125 44.890625 
Q 49.859375 40.875 45.40625 35.40625 
Q 44.1875 33.984375 37.640625 27.21875 
Q 31.109375 20.453125 19.1875 8.296875 
z
" id="DejaVuSans-50"/>
       <path d="M 10.796875 72.90625 
L 49.515625 72.90625 
L 49.515625 64.59375 
L 19.828125 64.59375 
L 19.828125 46.734375 
Q 21.96875 47.46875 24.109375 47.828125 
Q 26.265625 48.1875 28.421875 48.1875 
Q 40.625 48.1875 47.75 41.5 
Q 54.890625 34.8125 54.890625 23.390625 
Q 54.890625 11.625 47.5625 5.09375 
Q 40.234375 -1.421875 26.90625 -1.421875 
Q 22.3125 -1.421875 17.546875 -0.640625 
Q 12.796875 0.140625 7.71875 1.703125 
L 7.71875 11.625 
Q 12.109375 9.234375 16.796875 8.0625 
Q 21.484375 6.890625 26.703125 6.890625 
Q 35.15625 6.890625 40.078125 11.328125 
Q 45.015625 15.765625 45.015625 23.390625 
Q 45.015625 31 40.078125 35.4375 
Q 35.15625 39.890625 26.703125 39.890625 
Q 22.75 39.890625 18.8125 39.015625 
Q 14.890625 38.140625 10.796875 36.28125 
z
" id="DejaVuSans-53"/>
      </defs>
      <g transform="translate(99.517346 152.313947)scale(0.1 -0.1)">
       <use xlink:href="#DejaVuSans-50"/>
       <use x="63.623047" xlink:href="#DejaVuSans-53"/>
      </g>
     </g>
    </g>
    <g id="xtick_3">
     <g id="line2d_3">
      <g>
       <use style="stroke:#000000;stroke-width:0.8;" x="147.745069" xlink:href="#ma663a58d25" y="137.71551"/>
      </g>
     </g>
     <g id="text_3">
      <!-- 50 -->
      <g transform="translate(141.382569 152.313947)scale(0.1 -0.1)">
       <use xlink:href="#DejaVuSans-53"/>
       <use x="63.623047" xlink:href="#DejaVuSans-48"/>
      </g>
     </g>
    </g>
    <g id="xtick_4">
     <g id="line2d_4">
      <g>
       <use style="stroke:#000000;stroke-width:0.8;" x="189.610291" xlink:href="#ma663a58d25" y="137.71551"/>
      </g>
     </g>
     <g id="text_4">
      <!-- 75 -->
      <defs>
       <path d="M 8.203125 72.90625 
L 55.078125 72.90625 
L 55.078125 68.703125 
L 28.609375 0 
L 18.3125 0 
L 43.21875 64.59375 
L 8.203125 64.59375 
z
" id="DejaVuSans-55"/>
      </defs>
      <g transform="translate(183.247791 152.313947)scale(0.1 -0.1)">
       <use xlink:href="#DejaVuSans-55"/>
       <use x="63.623047" xlink:href="#DejaVuSans-53"/>
      </g>
     </g>
    </g>
    <g id="text_5">
     <!-- Dias -->
     <defs>
      <path d="M 19.671875 64.796875 
L 19.671875 8.109375 
L 31.59375 8.109375 
Q 46.6875 8.109375 53.6875 14.9375 
Q 60.6875 21.78125 60.6875 36.53125 
Q 60.6875 51.171875 53.6875 57.984375 
Q 46.6875 64.796875 31.59375 64.796875 
z
M 9.8125 72.90625 
L 30.078125 72.90625 
Q 51.265625 72.90625 61.171875 64.09375 
Q 71.09375 55.28125 71.09375 36.53125 
Q 71.09375 17.671875 61.125 8.828125 
Q 51.171875 0 30.078125 0 
L 9.8125 0 
z
" id="DejaVuSans-68"/>
      <path d="M 9.421875 54.6875 
L 18.40625 54.6875 
L 18.40625 0 
L 9.421875 0 
z
M 9.421875 75.984375 
L 18.40625 75.984375 
L 18.40625 64.59375 
L 9.421875 64.59375 
z
" id="DejaVuSans-105"/>
      <path d="M 34.28125 27.484375 
Q 23.390625 27.484375 19.1875 25 
Q 14.984375 22.515625 14.984375 16.5 
Q 14.984375 11.71875 18.140625 8.90625 
Q 21.296875 6.109375 26.703125 6.109375 
Q 34.1875 6.109375 38.703125 11.40625 
Q 43.21875 16.703125 43.21875 25.484375 
L 43.21875 27.484375 
z
M 52.203125 31.203125 
L 52.203125 0 
L 43.21875 0 
L 43.21875 8.296875 
Q 40.140625 3.328125 35.546875 0.953125 
Q 30.953125 -1.421875 24.3125 -1.421875 
Q 15.921875 -1.421875 10.953125 3.296875 
Q 6 8.015625 6 15.921875 
Q 6 25.140625 12.171875 29.828125 
Q 18.359375 34.515625 30.609375 34.515625 
L 43.21875 34.515625 
L 43.21875 35.40625 
Q 43.21875 41.609375 39.140625 45 
Q 35.0625 48.390625 27.6875 48.390625 
Q 23 48.390625 18.546875 47.265625 
Q 14.109375 46.140625 10.015625 43.890625 
L 10.015625 52.203125 
Q 14.9375 54.109375 19.578125 55.046875 
Q 24.21875 56 28.609375 56 
Q 40.484375 56 46.34375 49.84375 
Q 52.203125 43.703125 52.203125 31.203125 
z
" id="DejaVuSans-97"/>
      <path d="M 44.28125 53.078125 
L 44.28125 44.578125 
Q 40.484375 46.53125 36.375 47.5 
Q 32.28125 48.484375 27.875 48.484375 
Q 21.1875 48.484375 17.84375 46.4375 
Q 14.5 44.390625 14.5 40.28125 
Q 14.5 37.15625 16.890625 35.375 
Q 19.28125 33.59375 26.515625 31.984375 
L 29.59375 31.296875 
Q 39.15625 29.25 43.1875 25.515625 
Q 47.21875 21.78125 47.21875 15.09375 
Q 47.21875 7.46875 41.1875 3.015625 
Q 35.15625 -1.421875 24.609375 -1.421875 
Q 20.21875 -1.421875 15.453125 -0.5625 
Q 10.6875 0.296875 5.421875 2 
L 5.421875 11.28125 
Q 10.40625 8.6875 15.234375 7.390625 
Q 20.0625 6.109375 24.8125 6.109375 
Q 31.15625 6.109375 34.5625 8.28125 
Q 37.984375 10.453125 37.984375 14.40625 
Q 37.984375 18.0625 35.515625 20.015625 
Q 33.0625 21.96875 24.703125 23.78125 
L 21.578125 24.515625 
Q 13.234375 26.265625 9.515625 29.90625 
Q 5.8125 33.546875 5.8125 39.890625 
Q 5.8125 47.609375 11.28125 51.796875 
Q 16.75 56 26.8125 56 
Q 31.78125 56 36.171875 55.265625 
Q 40.578125 54.546875 44.28125 53.078125 
z
" id="DejaVuSans-115"/>
     </defs>
     <g transform="translate(130.976125 165.992072)scale(0.1 -0.1)">
      <use xlink:href="#DejaVuSans-68"/>
      <use x="77.001953" xlink:href="#DejaVuSans-105"/>
      <use x="104.785156" xlink:href="#DejaVuSans-97"/>
      <use x="166.064453" xlink:href="#DejaVuSans-115"/>
     </g>
    </g>
   </g>
   <g id="matplotlib.axis_2">
    <g id="ytick_1">
     <g id="line2d_5">
      <defs>
       <path d="M 0 0 
L -3.5 0 
" id="m1991342f54" style="stroke:#000000;stroke-width:0.8;"/>
      </defs>
      <g>
       <use style="stroke:#000000;stroke-width:0.8;" x="55.490865" xlink:href="#m1991342f54" y="137.71551"/>
      </g>
     </g>
     <g id="text_6">
      <!-- 0 -->
      <g transform="translate(42.128365 141.514729)scale(0.1 -0.1)">
       <use xlink:href="#DejaVuSans-48"/>
      </g>
     </g>
    </g>
    <g id="ytick_2">
     <g id="line2d_6">
      <g>
       <use style="stroke:#000000;stroke-width:0.8;" x="55.490865" xlink:href="#m1991342f54" y="107.480591"/>
      </g>
     </g>
     <g id="text_7">
      <!-- 10000 -->
      <defs>
       <path d="M 12.40625 8.296875 
L 28.515625 8.296875 
L 28.515625 63.921875 
L 10.984375 60.40625 
L 10.984375 69.390625 
L 28.421875 72.90625 
L 38.28125 72.90625 
L 38.28125 8.296875 
L 54.390625 8.296875 
L 54.390625 0 
L 12.40625 0 
z
" id="DejaVuSans-49"/>
      </defs>
      <g transform="translate(16.678365 111.27981)scale(0.1 -0.1)">
       <use xlink:href="#DejaVuSans-49"/>
       <use x="63.623047" xlink:href="#DejaVuSans-48"/>
       <use x="127.246094" xlink:href="#DejaVuSans-48"/>
       <use x="190.869141" xlink:href="#DejaVuSans-48"/>
       <use x="254.492188" xlink:href="#DejaVuSans-48"/>
      </g>
     </g>
    </g>
    <g id="ytick_3">
     <g id="line2d_7">
      <g>
       <use style="stroke:#000000;stroke-width:0.8;" x="55.490865" xlink:href="#m1991342f54" y="77.245673"/>
      </g>
     </g>
     <g id="text_8">
      <!-- 20000 -->
      <g transform="translate(16.678365 81.044892)scale(0.1 -0.1)">
       <use xlink:href="#DejaVuSans-50"/>
       <use x="63.623047" xlink:href="#DejaVuSans-48"/>
       <use x="127.246094" xlink:href="#DejaVuSans-48"/>
       <use x="190.869141" xlink:href="#DejaVuSans-48"/>
       <use x="254.492188" xlink:href="#DejaVuSans-48"/>
      </g>
     </g>
    </g>
    <g id="ytick_4">
     <g id="line2d_8">
      <g>
       <use style="stroke:#000000;stroke-width:0.8;" x="55.490865" xlink:href="#m1991342f54" y="47.010754"/>
      </g>
     </g>
     <g id="text_9">
      <!-- 30000 -->
      <defs>
       <path d="M 40.578125 39.3125 
Q 47.65625 37.796875 51.625 33 
Q 55.609375 28.21875 55.609375 21.1875 
Q 55.609375 10.40625 48.1875 4.484375 
Q 40.765625 -1.421875 27.09375 -1.421875 
Q 22.515625 -1.421875 17.65625 -0.515625 
Q 12.796875 0.390625 7.625 2.203125 
L 7.625 11.71875 
Q 11.71875 9.328125 16.59375 8.109375 
Q 21.484375 6.890625 26.8125 6.890625 
Q 36.078125 6.890625 40.9375 10.546875 
Q 45.796875 14.203125 45.796875 21.1875 
Q 45.796875 27.640625 41.28125 31.265625 
Q 36.765625 34.90625 28.71875 34.90625 
L 20.21875 34.90625 
L 20.21875 43.015625 
L 29.109375 43.015625 
Q 36.375 43.015625 40.234375 45.921875 
Q 44.09375 48.828125 44.09375 54.296875 
Q 44.09375 59.90625 40.109375 62.90625 
Q 36.140625 65.921875 28.71875 65.921875 
Q 24.65625 65.921875 20.015625 65.03125 
Q 15.375 64.15625 9.8125 62.3125 
L 9.8125 71.09375 
Q 15.4375 72.65625 20.34375 73.4375 
Q 25.25 74.21875 29.59375 74.21875 
Q 40.828125 74.21875 47.359375 69.109375 
Q 53.90625 64.015625 53.90625 55.328125 
Q 53.90625 49.265625 50.4375 45.09375 
Q 46.96875 40.921875 40.578125 39.3125 
z
" id="DejaVuSans-51"/>
      </defs>
      <g transform="translate(16.678365 50.809973)scale(0.1 -0.1)">
       <use xlink:href="#DejaVuSans-51"/>
       <use x="63.623047" xlink:href="#DejaVuSans-48"/>
       <use x="127.246094" xlink:href="#DejaVuSans-48"/>
       <use x="190.869141" xlink:href="#DejaVuSans-48"/>
       <use x="254.492188" xlink:href="#DejaVuSans-48"/>
      </g>
     </g>
    </g>
    <g id="text_10">
     <!-- Casos -->
     <defs>
      <path d="M 64.40625 67.28125 
L 64.40625 56.890625 
Q 59.421875 61.53125 53.78125 63.8125 
Q 48.140625 66.109375 41.796875 66.109375 
Q 29.296875 66.109375 22.65625 58.46875 
Q 16.015625 50.828125 16.015625 36.375 
Q 16.015625 21.96875 22.65625 14.328125 
Q 29.296875 6.6875 41.796875 6.6875 
Q 48.140625 6.6875 53.78125 8.984375 
Q 59.421875 11.28125 64.40625 15.921875 
L 64.40625 5.609375 
Q 59.234375 2.09375 53.4375 0.328125 
Q 47.65625 -1.421875 41.21875 -1.421875 
Q 24.65625 -1.421875 15.125 8.703125 
Q 5.609375 18.84375 5.609375 36.375 
Q 5.609375 53.953125 15.125 64.078125 
Q 24.65625 74.21875 41.21875 74.21875 
Q 47.75 74.21875 53.53125 72.484375 
Q 59.328125 70.75 64.40625 67.28125 
z
" id="DejaVuSans-67"/>
      <path d="M 30.609375 48.390625 
Q 23.390625 48.390625 19.1875 42.75 
Q 14.984375 37.109375 14.984375 27.296875 
Q 14.984375 17.484375 19.15625 11.84375 
Q 23.34375 6.203125 30.609375 6.203125 
Q 37.796875 6.203125 41.984375 11.859375 
Q 46.1875 17.53125 46.1875 27.296875 
Q 46.1875 37.015625 41.984375 42.703125 
Q 37.796875 48.390625 30.609375 48.390625 
z
M 30.609375 56 
Q 42.328125 56 49.015625 48.375 
Q 55.71875 40.765625 55.71875 27.296875 
Q 55.71875 13.875 49.015625 6.21875 
Q 42.328125 -1.421875 30.609375 -1.421875 
Q 18.84375 -1.421875 12.171875 6.21875 
Q 5.515625 13.875 5.515625 27.296875 
Q 5.515625 40.765625 12.171875 48.375 
Q 18.84375 56 30.609375 56 
z
" id="DejaVuSans-111"/>
     </defs>
     <g transform="translate(10.598678 92.741156)rotate(-90)scale(0.1 -0.1)">
      <use xlink:href="#DejaVuSans-67"/>
      <use x="69.824219" xlink:href="#DejaVuSans-97"/>
      <use x="131.103516" xlink:href="#DejaVuSans-115"/>
      <use x="183.203125" xlink:href="#DejaVuSans-111"/>
      <use x="244.384766" xlink:href="#DejaVuSans-115"/>
     </g>
    </g>
   </g>
   <g id="line2d_9">
    <path clip-path="url(#pdfccb006bb)" d="M 64.014624 137.710132 
L 65.689233 137.70843 
L 67.363842 137.706116 
L 69.038451 137.703188 
L 70.71306 137.699614 
L 72.387669 137.695381 
L 74.062278 137.690495 
L 75.736886 137.684983 
L 77.411495 137.678874 
L 79.086104 137.67218 
L 80.760713 137.664864 
L 82.435322 137.656832 
L 84.109931 137.647925 
L 85.78454 137.63788 
L 87.459149 137.626314 
L 89.133758 137.612778 
L 90.808366 137.596802 
L 92.482975 137.577912 
L 94.157584 137.555658 
L 95.832193 137.52965 
L 97.506802 137.499662 
L 99.181411 137.465636 
L 100.85602 137.427593 
L 102.530629 137.385592 
L 104.205238 137.339659 
L 105.879846 137.289773 
L 107.554455 137.235782 
L 109.229064 137.177194 
L 110.903673 137.113192 
L 112.578282 137.042677 
L 114.252891 136.964216 
L 115.9275 136.876164 
L 117.602109 136.776602 
L 119.276718 136.663472 
L 120.951326 136.534846 
L 122.625935 136.38887 
L 124.300544 136.223858 
L 125.975153 136.0382 
L 127.649762 135.830324 
L 129.324371 135.598893 
L 130.99898 135.34252 
L 132.673589 135.059547 
L 134.348198 134.748048 
L 136.022806 134.40559 
L 137.697415 134.029964 
L 139.372024 133.618886 
L 141.046633 133.169774 
L 142.721242 132.679952 
L 144.395851 132.146633 
L 146.07046 131.56688 
L 147.745069 130.937972 
L 149.419677 130.256192 
L 151.094286 129.517187 
L 152.768895 128.716222 
L 154.443504 127.848954 
L 156.118113 126.911583 
L 157.792722 125.900488 
L 159.467331 124.811384 
L 161.14194 123.640336 
L 162.816549 122.38389 
L 164.491157 121.038901 
L 166.165766 119.600375 
L 167.840375 118.061763 
L 169.514984 116.417115 
L 171.189593 114.662131 
L 172.864202 112.793892 
L 174.538811 110.81037 
L 176.21342 108.710104 
L 177.888029 106.494591 
L 179.562637 104.167713 
L 181.237246 101.732212 
L 182.911855 99.190505 
L 184.586464 96.544362 
L 186.261073 93.796168 
L 187.935682 90.94982 
L 189.610291 88.009524 
L 191.2849 84.98062 
L 192.959509 81.872612 
L 194.634117 78.698196 
L 196.308726 75.471101 
L 197.983335 72.203184 
L 199.657944 68.904074 
L 201.332553 65.577879 
L 203.007162 62.222122 
L 204.681771 58.827665 
L 206.35638 55.373779 
L 208.030989 51.835746 
L 209.705597 48.190142 
L 211.380206 44.420456 
L 213.054815 40.51537 
L 214.729424 36.471587 
L 216.404033 32.335696 
L 218.078642 28.112582 
L 219.753251 23.813467 
" style="fill:none;stroke:#ff0000;stroke-linecap:square;stroke-width:1.5;"/>
   </g>
   <g id="patch_97">
    <path d="M 55.490865 137.71551 
L 55.490865 18.118365 
" style="fill:none;stroke:#000000;stroke-linecap:square;stroke-linejoin:miter;stroke-width:0.8;"/>
   </g>
   <g id="patch_98">
    <path d="M 228.27701 137.71551 
L 228.27701 18.118365 
" style="fill:none;stroke:#000000;stroke-linecap:square;stroke-linejoin:miter;stroke-width:0.8;"/>
   </g>
   <g id="patch_99">
    <path d="M 55.490865 137.71551 
L 228.27701 137.71551 
" style="fill:none;stroke:#000000;stroke-linecap:square;stroke-linejoin:miter;stroke-width:0.8;"/>
   </g>
   <g id="patch_100">
    <path d="M 55.490865 18.118365 
L 228.27701 18.118365 
" style="fill:none;stroke:#000000;stroke-linecap:square;stroke-linejoin:miter;stroke-width:0.8;"/>
   </g>
   <g id="text_11">
    <!-- Casos acumulados - PB -->
    <defs>
     <path id="DejaVuSans-32"/>
     <path d="M 48.78125 52.59375 
L 48.78125 44.1875 
Q 44.96875 46.296875 41.140625 47.34375 
Q 37.3125 48.390625 33.40625 48.390625 
Q 24.65625 48.390625 19.8125 42.84375 
Q 14.984375 37.3125 14.984375 27.296875 
Q 14.984375 17.28125 19.8125 11.734375 
Q 24.65625 6.203125 33.40625 6.203125 
Q 37.3125 6.203125 41.140625 7.25 
Q 44.96875 8.296875 48.78125 10.40625 
L 48.78125 2.09375 
Q 45.015625 0.34375 40.984375 -0.53125 
Q 36.96875 -1.421875 32.421875 -1.421875 
Q 20.0625 -1.421875 12.78125 6.34375 
Q 5.515625 14.109375 5.515625 27.296875 
Q 5.515625 40.671875 12.859375 48.328125 
Q 20.21875 56 33.015625 56 
Q 37.15625 56 41.109375 55.140625 
Q 45.0625 54.296875 48.78125 52.59375 
z
" id="DejaVuSans-99"/>
     <path d="M 8.5 21.578125 
L 8.5 54.6875 
L 17.484375 54.6875 
L 17.484375 21.921875 
Q 17.484375 14.15625 20.5 10.265625 
Q 23.53125 6.390625 29.59375 6.390625 
Q 36.859375 6.390625 41.078125 11.03125 
Q 45.3125 15.671875 45.3125 23.6875 
L 45.3125 54.6875 
L 54.296875 54.6875 
L 54.296875 0 
L 45.3125 0 
L 45.3125 8.40625 
Q 42.046875 3.421875 37.71875 1 
Q 33.40625 -1.421875 27.6875 -1.421875 
Q 18.265625 -1.421875 13.375 4.4375 
Q 8.5 10.296875 8.5 21.578125 
z
M 31.109375 56 
z
" id="DejaVuSans-117"/>
     <path d="M 52 44.1875 
Q 55.375 50.25 60.0625 53.125 
Q 64.75 56 71.09375 56 
Q 79.640625 56 84.28125 50.015625 
Q 88.921875 44.046875 88.921875 33.015625 
L 88.921875 0 
L 79.890625 0 
L 79.890625 32.71875 
Q 79.890625 40.578125 77.09375 44.375 
Q 74.3125 48.1875 68.609375 48.1875 
Q 61.625 48.1875 57.5625 43.546875 
Q 53.515625 38.921875 53.515625 30.90625 
L 53.515625 0 
L 44.484375 0 
L 44.484375 32.71875 
Q 44.484375 40.625 41.703125 44.40625 
Q 38.921875 48.1875 33.109375 48.1875 
Q 26.21875 48.1875 22.15625 43.53125 
Q 18.109375 38.875 18.109375 30.90625 
L 18.109375 0 
L 9.078125 0 
L 9.078125 54.6875 
L 18.109375 54.6875 
L 18.109375 46.1875 
Q 21.1875 51.21875 25.484375 53.609375 
Q 29.78125 56 35.6875 56 
Q 41.65625 56 45.828125 52.96875 
Q 50 49.953125 52 44.1875 
z
" id="DejaVuSans-109"/>
     <path d="M 9.421875 75.984375 
L 18.40625 75.984375 
L 18.40625 0 
L 9.421875 0 
z
" id="DejaVuSans-108"/>
     <path d="M 45.40625 46.390625 
L 45.40625 75.984375 
L 54.390625 75.984375 
L 54.390625 0 
L 45.40625 0 
L 45.40625 8.203125 
Q 42.578125 3.328125 38.25 0.953125 
Q 33.9375 -1.421875 27.875 -1.421875 
Q 17.96875 -1.421875 11.734375 6.484375 
Q 5.515625 14.40625 5.515625 27.296875 
Q 5.515625 40.1875 11.734375 48.09375 
Q 17.96875 56 27.875 56 
Q 33.9375 56 38.25 53.625 
Q 42.578125 51.265625 45.40625 46.390625 
z
M 14.796875 27.296875 
Q 14.796875 17.390625 18.875 11.75 
Q 22.953125 6.109375 30.078125 6.109375 
Q 37.203125 6.109375 41.296875 11.75 
Q 45.40625 17.390625 45.40625 27.296875 
Q 45.40625 37.203125 41.296875 42.84375 
Q 37.203125 48.484375 30.078125 48.484375 
Q 22.953125 48.484375 18.875 42.84375 
Q 14.796875 37.203125 14.796875 27.296875 
z
" id="DejaVuSans-100"/>
     <path d="M 4.890625 31.390625 
L 31.203125 31.390625 
L 31.203125 23.390625 
L 4.890625 23.390625 
z
" id="DejaVuSans-45"/>
     <path d="M 19.671875 64.796875 
L 19.671875 37.40625 
L 32.078125 37.40625 
Q 38.96875 37.40625 42.71875 40.96875 
Q 46.484375 44.53125 46.484375 51.125 
Q 46.484375 57.671875 42.71875 61.234375 
Q 38.96875 64.796875 32.078125 64.796875 
z
M 9.8125 72.90625 
L 32.078125 72.90625 
Q 44.34375 72.90625 50.609375 67.359375 
Q 56.890625 61.8125 56.890625 51.125 
Q 56.890625 40.328125 50.609375 34.8125 
Q 44.34375 29.296875 32.078125 29.296875 
L 19.671875 29.296875 
L 19.671875 0 
L 9.8125 0 
z
" id="DejaVuSans-80"/>
     <path d="M 19.671875 34.8125 
L 19.671875 8.109375 
L 35.5 8.109375 
Q 43.453125 8.109375 47.28125 11.40625 
Q 51.125 14.703125 51.125 21.484375 
Q 51.125 28.328125 47.28125 31.5625 
Q 43.453125 34.8125 35.5 34.8125 
z
M 19.671875 64.796875 
L 19.671875 42.828125 
L 34.28125 42.828125 
Q 41.5 42.828125 45.03125 45.53125 
Q 48.578125 48.25 48.578125 53.8125 
Q 48.578125 59.328125 45.03125 62.0625 
Q 41.5 64.796875 34.28125 64.796875 
z
M 9.8125 72.90625 
L 35.015625 72.90625 
Q 46.296875 72.90625 52.390625 68.21875 
Q 58.5 63.53125 58.5 54.890625 
Q 58.5 48.1875 55.375 44.234375 
Q 52.25 40.28125 46.1875 39.3125 
Q 53.46875 37.75 57.5 32.78125 
Q 61.53125 27.828125 61.53125 20.40625 
Q 61.53125 10.640625 54.890625 5.3125 
Q 48.25 0 35.984375 0 
L 9.8125 0 
z
" id="DejaVuSans-66"/>
    </defs>
    <g transform="translate(72.100188 12.118365)scale(0.12 -0.12)">
     <use xlink:href="#DejaVuSans-67"/>
     <use x="69.824219" xlink:href="#DejaVuSans-97"/>
     <use x="131.103516" xlink:href="#DejaVuSans-115"/>
     <use x="183.203125" xlink:href="#DejaVuSans-111"/>
     <use x="244.384766" xlink:href="#DejaVuSans-115"/>
     <use x="296.484375" xlink:href="#DejaVuSans-32"/>
     <use x="328.271484" xlink:href="#DejaVuSans-97"/>
     <use x="389.550781" xlink:href="#DejaVuSans-99"/>
     <use x="444.53125" xlink:href="#DejaVuSans-117"/>
     <use x="507.910156" xlink:href="#DejaVuSans-109"/>
     <use x="605.322266" xlink:href="#DejaVuSans-117"/>
     <use x="668.701172" xlink:href="#DejaVuSans-108"/>
     <use x="696.484375" xlink:href="#DejaVuSans-97"/>
     <use x="757.763672" xlink:href="#DejaVuSans-100"/>
     <use x="821.240234" xlink:href="#DejaVuSans-111"/>
     <use x="882.421875" xlink:href="#DejaVuSans-115"/>
     <use x="934.521484" xlink:href="#DejaVuSans-32"/>
     <use x="966.308594" xlink:href="#DejaVuSans-45"/>
     <use x="1002.392578" xlink:href="#DejaVuSans-32"/>
     <use x="1034.179688" xlink:href="#DejaVuSans-80"/>
     <use x="1094.482422" xlink:href="#DejaVuSans-66"/>
    </g>
   </g>
  </g>
  <g id="axes_2">
   <g id="patch_101">
    <path d="M 285.013615 137.71551 
L 457.79976 137.71551 
L 457.79976 18.118365 
L 285.013615 18.118365 
z
" style="fill:#ffffff;"/>
   </g>
   <g id="patch_102">
    <path clip-path="url(#p2c981139f7)" d="M 292.867531 137.71551 
L 294.207218 137.71551 
L 294.207218 137.71551 
L 292.867531 137.71551 
z
" style="fill:#1f77b4;"/>
   </g>
   <g id="patch_103">
    <path clip-path="url(#p2c981139f7)" d="M 294.54214 137.71551 
L 295.881827 137.71551 
L 295.881827 137.71551 
L 294.54214 137.71551 
z
" style="fill:#1f77b4;"/>
   </g>
   <g id="patch_104">
    <path clip-path="url(#p2c981139f7)" d="M 296.216748 137.71551 
L 297.556436 137.71551 
L 297.556436 137.71551 
L 296.216748 137.71551 
z
" style="fill:#1f77b4;"/>
   </g>
   <g id="patch_105">
    <path clip-path="url(#p2c981139f7)" d="M 297.891357 137.71551 
L 299.231044 137.71551 
L 299.231044 137.681336 
L 297.891357 137.681336 
z
" style="fill:#1f77b4;"/>
   </g>
   <g id="patch_106">
    <path clip-path="url(#p2c981139f7)" d="M 299.565966 137.71551 
L 300.905653 137.71551 
L 300.905653 137.681336 
L 299.565966 137.681336 
z
" style="fill:#1f77b4;"/>
   </g>
   <g id="patch_107">
    <path clip-path="url(#p2c981139f7)" d="M 301.240575 137.71551 
L 302.580262 137.71551 
L 302.580262 137.71551 
L 301.240575 137.71551 
z
" style="fill:#1f77b4;"/>
   </g>
   <g id="patch_108">
    <path clip-path="url(#p2c981139f7)" d="M 302.915184 137.71551 
L 304.254871 137.71551 
L 304.254871 137.647162 
L 302.915184 137.647162 
z
" style="fill:#1f77b4;"/>
   </g>
   <g id="patch_109">
    <path clip-path="url(#p2c981139f7)" d="M 304.589793 137.71551 
L 305.92948 137.71551 
L 305.92948 137.578814 
L 304.589793 137.578814 
z
" style="fill:#1f77b4;"/>
   </g>
   <g id="patch_110">
    <path clip-path="url(#p2c981139f7)" d="M 306.264402 137.71551 
L 307.604089 137.71551 
L 307.604089 137.54464 
L 306.264402 137.54464 
z
" style="fill:#1f77b4;"/>
   </g>
   <g id="patch_111">
    <path clip-path="url(#p2c981139f7)" d="M 307.939011 137.71551 
L 309.278698 137.71551 
L 309.278698 137.71551 
L 307.939011 137.71551 
z
" style="fill:#1f77b4;"/>
   </g>
   <g id="patch_112">
    <path clip-path="url(#p2c981139f7)" d="M 309.61362 137.71551 
L 310.953307 137.71551 
L 310.953307 137.681336 
L 309.61362 137.681336 
z
" style="fill:#1f77b4;"/>
   </g>
   <g id="patch_113">
    <path clip-path="url(#p2c981139f7)" d="M 311.288228 137.71551 
L 312.627916 137.71551 
L 312.627916 137.647162 
L 311.288228 137.647162 
z
" style="fill:#1f77b4;"/>
   </g>
   <g id="patch_114">
    <path clip-path="url(#p2c981139f7)" d="M 312.962837 137.71551 
L 314.302524 137.71551 
L 314.302524 137.612988 
L 312.962837 137.612988 
z
" style="fill:#1f77b4;"/>
   </g>
   <g id="patch_115">
    <path clip-path="url(#p2c981139f7)" d="M 314.637446 137.71551 
L 315.977133 137.71551 
L 315.977133 137.681336 
L 314.637446 137.681336 
z
" style="fill:#1f77b4;"/>
   </g>
   <g id="patch_116">
    <path clip-path="url(#p2c981139f7)" d="M 316.312055 137.71551 
L 317.651742 137.71551 
L 317.651742 137.442118 
L 316.312055 137.442118 
z
" style="fill:#1f77b4;"/>
   </g>
   <g id="patch_117">
    <path clip-path="url(#p2c981139f7)" d="M 317.986664 137.71551 
L 319.326351 137.71551 
L 319.326351 137.612988 
L 317.986664 137.612988 
z
" style="fill:#1f77b4;"/>
   </g>
   <g id="patch_118">
    <path clip-path="url(#p2c981139f7)" d="M 319.661273 137.71551 
L 321.00096 137.71551 
L 321.00096 137.647162 
L 319.661273 137.647162 
z
" style="fill:#1f77b4;"/>
   </g>
   <g id="patch_119">
    <path clip-path="url(#p2c981139f7)" d="M 321.335882 137.71551 
L 322.675569 137.71551 
L 322.675569 137.681336 
L 321.335882 137.681336 
z
" style="fill:#1f77b4;"/>
   </g>
   <g id="patch_120">
    <path clip-path="url(#p2c981139f7)" d="M 323.010491 137.71551 
L 324.350178 137.71551 
L 324.350178 137.681336 
L 323.010491 137.681336 
z
" style="fill:#1f77b4;"/>
   </g>
   <g id="patch_121">
    <path clip-path="url(#p2c981139f7)" d="M 324.6851 137.71551 
L 326.024787 137.71551 
L 326.024787 137.54464 
L 324.6851 137.54464 
z
" style="fill:#1f77b4;"/>
   </g>
   <g id="patch_122">
    <path clip-path="url(#p2c981139f7)" d="M 326.359708 137.71551 
L 327.699396 137.71551 
L 327.699396 137.237074 
L 326.359708 137.237074 
z
" style="fill:#1f77b4;"/>
   </g>
   <g id="patch_123">
    <path clip-path="url(#p2c981139f7)" d="M 328.034317 137.71551 
L 329.374004 137.71551 
L 329.374004 136.895333 
L 328.034317 136.895333 
z
" style="fill:#1f77b4;"/>
   </g>
   <g id="patch_124">
    <path clip-path="url(#p2c981139f7)" d="M 329.708926 137.71551 
L 331.048613 137.71551 
L 331.048613 137.510466 
L 329.708926 137.510466 
z
" style="fill:#1f77b4;"/>
   </g>
   <g id="patch_125">
    <path clip-path="url(#p2c981139f7)" d="M 331.383535 137.71551 
L 332.723222 137.71551 
L 332.723222 137.168726 
L 331.383535 137.168726 
z
" style="fill:#1f77b4;"/>
   </g>
   <g id="patch_126">
    <path clip-path="url(#p2c981139f7)" d="M 333.058144 137.71551 
L 334.397831 137.71551 
L 334.397831 137.37377 
L 333.058144 137.37377 
z
" style="fill:#1f77b4;"/>
   </g>
   <g id="patch_127">
    <path clip-path="url(#p2c981139f7)" d="M 334.732753 137.71551 
L 336.07244 137.71551 
L 336.07244 136.861159 
L 334.732753 136.861159 
z
" style="fill:#1f77b4;"/>
   </g>
   <g id="patch_128">
    <path clip-path="url(#p2c981139f7)" d="M 336.407362 137.71551 
L 337.747049 137.71551 
L 337.747049 137.2029 
L 336.407362 137.2029 
z
" style="fill:#1f77b4;"/>
   </g>
   <g id="patch_129">
    <path clip-path="url(#p2c981139f7)" d="M 338.081971 137.71551 
L 339.421658 137.71551 
L 339.421658 137.237074 
L 338.081971 137.237074 
z
" style="fill:#1f77b4;"/>
   </g>
   <g id="patch_130">
    <path clip-path="url(#p2c981139f7)" d="M 339.75658 137.71551 
L 341.096267 137.71551 
L 341.096267 136.690289 
L 339.75658 136.690289 
z
" style="fill:#1f77b4;"/>
   </g>
   <g id="patch_131">
    <path clip-path="url(#p2c981139f7)" d="M 341.431188 137.71551 
L 342.770876 137.71551 
L 342.770876 137.37377 
L 341.431188 137.37377 
z
" style="fill:#1f77b4;"/>
   </g>
   <g id="patch_132">
    <path clip-path="url(#p2c981139f7)" d="M 343.105797 137.71551 
L 344.445484 137.71551 
L 344.445484 136.656115 
L 343.105797 136.656115 
z
" style="fill:#1f77b4;"/>
   </g>
   <g id="patch_133">
    <path clip-path="url(#p2c981139f7)" d="M 344.780406 137.71551 
L 346.120093 137.71551 
L 346.120093 137.407944 
L 344.780406 137.407944 
z
" style="fill:#1f77b4;"/>
   </g>
   <g id="patch_134">
    <path clip-path="url(#p2c981139f7)" d="M 346.455015 137.71551 
L 347.794702 137.71551 
L 347.794702 137.100377 
L 346.455015 137.100377 
z
" style="fill:#1f77b4;"/>
   </g>
   <g id="patch_135">
    <path clip-path="url(#p2c981139f7)" d="M 348.129624 137.71551 
L 349.469311 137.71551 
L 349.469311 136.416897 
L 348.129624 136.416897 
z
" style="fill:#1f77b4;"/>
   </g>
   <g id="patch_136">
    <path clip-path="url(#p2c981139f7)" d="M 349.804233 137.71551 
L 351.14392 137.71551 
L 351.14392 136.211853 
L 349.804233 136.211853 
z
" style="fill:#1f77b4;"/>
   </g>
   <g id="patch_137">
    <path clip-path="url(#p2c981139f7)" d="M 351.478842 137.71551 
L 352.818529 137.71551 
L 352.818529 136.314375 
L 351.478842 136.314375 
z
" style="fill:#1f77b4;"/>
   </g>
   <g id="patch_138">
    <path clip-path="url(#p2c981139f7)" d="M 353.153451 137.71551 
L 354.493138 137.71551 
L 354.493138 135.630894 
L 353.153451 135.630894 
z
" style="fill:#1f77b4;"/>
   </g>
   <g id="patch_139">
    <path clip-path="url(#p2c981139f7)" d="M 354.82806 137.71551 
L 356.167747 137.71551 
L 356.167747 135.93846 
L 354.82806 135.93846 
z
" style="fill:#1f77b4;"/>
   </g>
   <g id="patch_140">
    <path clip-path="url(#p2c981139f7)" d="M 356.502668 137.71551 
L 357.842356 137.71551 
L 357.842356 136.211853 
L 356.502668 136.211853 
z
" style="fill:#1f77b4;"/>
   </g>
   <g id="patch_141">
    <path clip-path="url(#p2c981139f7)" d="M 358.177277 137.71551 
L 359.516964 137.71551 
L 359.516964 134.639847 
L 358.177277 134.639847 
z
" style="fill:#1f77b4;"/>
   </g>
   <g id="patch_142">
    <path clip-path="url(#p2c981139f7)" d="M 359.851886 137.71551 
L 361.191573 137.71551 
L 361.191573 135.460024 
L 359.851886 135.460024 
z
" style="fill:#1f77b4;"/>
   </g>
   <g id="patch_143">
    <path clip-path="url(#p2c981139f7)" d="M 361.526495 137.71551 
L 362.866182 137.71551 
L 362.866182 133.785497 
L 361.526495 133.785497 
z
" style="fill:#1f77b4;"/>
   </g>
   <g id="patch_144">
    <path clip-path="url(#p2c981139f7)" d="M 363.201104 137.71551 
L 364.540791 137.71551 
L 364.540791 133.888019 
L 363.201104 133.888019 
z
" style="fill:#1f77b4;"/>
   </g>
   <g id="patch_145">
    <path clip-path="url(#p2c981139f7)" d="M 364.875713 137.71551 
L 366.2154 137.71551 
L 366.2154 134.024715 
L 364.875713 134.024715 
z
" style="fill:#1f77b4;"/>
   </g>
   <g id="patch_146">
    <path clip-path="url(#p2c981139f7)" d="M 366.550322 137.71551 
L 367.890009 137.71551 
L 367.890009 133.102016 
L 366.550322 133.102016 
z
" style="fill:#1f77b4;"/>
   </g>
   <g id="patch_147">
    <path clip-path="url(#p2c981139f7)" d="M 368.224931 137.71551 
L 369.564618 137.71551 
L 369.564618 136.006808 
L 368.224931 136.006808 
z
" style="fill:#1f77b4;"/>
   </g>
   <g id="patch_148">
    <path clip-path="url(#p2c981139f7)" d="M 369.89954 137.71551 
L 371.239227 137.71551 
L 371.239227 132.862798 
L 369.89954 132.862798 
z
" style="fill:#1f77b4;"/>
   </g>
   <g id="patch_149">
    <path clip-path="url(#p2c981139f7)" d="M 371.574148 137.71551 
L 372.913835 137.71551 
L 372.913835 133.204538 
L 371.574148 133.204538 
z
" style="fill:#1f77b4;"/>
   </g>
   <g id="patch_150">
    <path clip-path="url(#p2c981139f7)" d="M 373.248757 137.71551 
L 374.588444 137.71551 
L 374.588444 132.110969 
L 373.248757 132.110969 
z
" style="fill:#1f77b4;"/>
   </g>
   <g id="patch_151">
    <path clip-path="url(#p2c981139f7)" d="M 374.923366 137.71551 
L 376.263053 137.71551 
L 376.263053 124.934423 
L 374.923366 124.934423 
z
" style="fill:#1f77b4;"/>
   </g>
   <g id="patch_152">
    <path clip-path="url(#p2c981139f7)" d="M 376.597975 137.71551 
L 377.937662 137.71551 
L 377.937662 133.443756 
L 376.597975 133.443756 
z
" style="fill:#1f77b4;"/>
   </g>
   <g id="patch_153">
    <path clip-path="url(#p2c981139f7)" d="M 378.272584 137.71551 
L 379.612271 137.71551 
L 379.612271 131.393314 
L 378.272584 131.393314 
z
" style="fill:#1f77b4;"/>
   </g>
   <g id="patch_154">
    <path clip-path="url(#p2c981139f7)" d="M 379.947193 137.71551 
L 381.28688 137.71551 
L 381.28688 131.427488 
L 379.947193 131.427488 
z
" style="fill:#1f77b4;"/>
   </g>
   <g id="patch_155">
    <path clip-path="url(#p2c981139f7)" d="M 381.621802 137.71551 
L 382.961489 137.71551 
L 382.961489 129.103654 
L 381.621802 129.103654 
z
" style="fill:#1f77b4;"/>
   </g>
   <g id="patch_156">
    <path clip-path="url(#p2c981139f7)" d="M 383.296411 137.71551 
L 384.636098 137.71551 
L 384.636098 128.55687 
L 383.296411 128.55687 
z
" style="fill:#1f77b4;"/>
   </g>
   <g id="patch_157">
    <path clip-path="url(#p2c981139f7)" d="M 384.971019 137.71551 
L 386.310707 137.71551 
L 386.310707 126.916516 
L 384.971019 126.916516 
z
" style="fill:#1f77b4;"/>
   </g>
   <g id="patch_158">
    <path clip-path="url(#p2c981139f7)" d="M 386.645628 137.71551 
L 387.985315 137.71551 
L 387.985315 124.797727 
L 386.645628 124.797727 
z
" style="fill:#1f77b4;"/>
   </g>
   <g id="patch_159">
    <path clip-path="url(#p2c981139f7)" d="M 388.320237 137.71551 
L 389.659924 137.71551 
L 389.659924 126.643124 
L 388.320237 126.643124 
z
" style="fill:#1f77b4;"/>
   </g>
   <g id="patch_160">
    <path clip-path="url(#p2c981139f7)" d="M 389.994846 137.71551 
L 391.334533 137.71551 
L 391.334533 128.010085 
L 389.994846 128.010085 
z
" style="fill:#1f77b4;"/>
   </g>
   <g id="patch_161">
    <path clip-path="url(#p2c981139f7)" d="M 391.669455 137.71551 
L 393.009142 137.71551 
L 393.009142 122.713111 
L 391.669455 122.713111 
z
" style="fill:#1f77b4;"/>
   </g>
   <g id="patch_162">
    <path clip-path="url(#p2c981139f7)" d="M 393.344064 137.71551 
L 394.683751 137.71551 
L 394.683751 120.150058 
L 393.344064 120.150058 
z
" style="fill:#1f77b4;"/>
   </g>
   <g id="patch_163">
    <path clip-path="url(#p2c981139f7)" d="M 395.018673 137.71551 
L 396.35836 137.71551 
L 396.35836 119.329882 
L 395.018673 119.329882 
z
" style="fill:#1f77b4;"/>
   </g>
   <g id="patch_164">
    <path clip-path="url(#p2c981139f7)" d="M 396.693282 137.71551 
L 398.032969 137.71551 
L 398.032969 124.045898 
L 396.693282 124.045898 
z
" style="fill:#1f77b4;"/>
   </g>
   <g id="patch_165">
    <path clip-path="url(#p2c981139f7)" d="M 398.367891 137.71551 
L 399.707578 137.71551 
L 399.707578 115.707435 
L 398.367891 115.707435 
z
" style="fill:#1f77b4;"/>
   </g>
   <g id="patch_166">
    <path clip-path="url(#p2c981139f7)" d="M 400.042499 137.71551 
L 401.382187 137.71551 
L 401.382187 116.322567 
L 400.042499 116.322567 
z
" style="fill:#1f77b4;"/>
   </g>
   <g id="patch_167">
    <path clip-path="url(#p2c981139f7)" d="M 401.717108 137.71551 
L 403.056795 137.71551 
L 403.056795 126.95069 
L 401.717108 126.95069 
z
" style="fill:#1f77b4;"/>
   </g>
   <g id="patch_168">
    <path clip-path="url(#p2c981139f7)" d="M 403.391717 137.71551 
L 404.731404 137.71551 
L 404.731404 131.119922 
L 403.391717 131.119922 
z
" style="fill:#1f77b4;"/>
   </g>
   <g id="patch_169">
    <path clip-path="url(#p2c981139f7)" d="M 405.066326 137.71551 
L 406.406013 137.71551 
L 406.406013 106.856361 
L 405.066326 106.856361 
z
" style="fill:#1f77b4;"/>
   </g>
   <g id="patch_170">
    <path clip-path="url(#p2c981139f7)" d="M 406.740935 137.71551 
L 408.080622 137.71551 
L 408.080622 93.631011 
L 406.740935 93.631011 
z
" style="fill:#1f77b4;"/>
   </g>
   <g id="patch_171">
    <path clip-path="url(#p2c981139f7)" d="M 408.415544 137.71551 
L 409.755231 137.71551 
L 409.755231 106.17288 
L 408.415544 106.17288 
z
" style="fill:#1f77b4;"/>
   </g>
   <g id="patch_172">
    <path clip-path="url(#p2c981139f7)" d="M 410.090153 137.71551 
L 411.42984 137.71551 
L 411.42984 107.676537 
L 410.090153 107.676537 
z
" style="fill:#1f77b4;"/>
   </g>
   <g id="patch_173">
    <path clip-path="url(#p2c981139f7)" d="M 411.764762 137.71551 
L 413.104449 137.71551 
L 413.104449 108.63341 
L 411.764762 108.63341 
z
" style="fill:#1f77b4;"/>
   </g>
   <g id="patch_174">
    <path clip-path="url(#p2c981139f7)" d="M 413.439371 137.71551 
L 414.779058 137.71551 
L 414.779058 127.463301 
L 413.439371 127.463301 
z
" style="fill:#1f77b4;"/>
   </g>
   <g id="patch_175">
    <path clip-path="url(#p2c981139f7)" d="M 415.113979 137.71551 
L 416.453667 137.71551 
L 416.453667 119.500752 
L 415.113979 119.500752 
z
" style="fill:#1f77b4;"/>
   </g>
   <g id="patch_176">
    <path clip-path="url(#p2c981139f7)" d="M 416.788588 137.71551 
L 418.128275 137.71551 
L 418.128275 97.936939 
L 416.788588 97.936939 
z
" style="fill:#1f77b4;"/>
   </g>
   <g id="patch_177">
    <path clip-path="url(#p2c981139f7)" d="M 418.463197 137.71551 
L 419.802884 137.71551 
L 419.802884 98.107809 
L 418.463197 98.107809 
z
" style="fill:#1f77b4;"/>
   </g>
   <g id="patch_178">
    <path clip-path="url(#p2c981139f7)" d="M 420.137806 137.71551 
L 421.477493 137.71551 
L 421.477493 84.369849 
L 420.137806 84.369849 
z
" style="fill:#1f77b4;"/>
   </g>
   <g id="patch_179">
    <path clip-path="url(#p2c981139f7)" d="M 421.812415 137.71551 
L 423.152102 137.71551 
L 423.152102 103.54148 
L 421.812415 103.54148 
z
" style="fill:#1f77b4;"/>
   </g>
   <g id="patch_180">
    <path clip-path="url(#p2c981139f7)" d="M 423.487024 137.71551 
L 424.826711 137.71551 
L 424.826711 96.433281 
L 423.487024 96.433281 
z
" style="fill:#1f77b4;"/>
   </g>
   <g id="patch_181">
    <path clip-path="url(#p2c981139f7)" d="M 425.161633 137.71551 
L 426.50132 137.71551 
L 426.50132 119.842492 
L 425.161633 119.842492 
z
" style="fill:#1f77b4;"/>
   </g>
   <g id="patch_182">
    <path clip-path="url(#p2c981139f7)" d="M 426.836242 137.71551 
L 428.175929 137.71551 
L 428.175929 115.809957 
L 426.836242 115.809957 
z
" style="fill:#1f77b4;"/>
   </g>
   <g id="patch_183">
    <path clip-path="url(#p2c981139f7)" d="M 428.510851 137.71551 
L 429.850538 137.71551 
L 429.850538 86.420291 
L 428.510851 86.420291 
z
" style="fill:#1f77b4;"/>
   </g>
   <g id="patch_184">
    <path clip-path="url(#p2c981139f7)" d="M 430.185459 137.71551 
L 431.525147 137.71551 
L 431.525147 83.720542 
L 430.185459 83.720542 
z
" style="fill:#1f77b4;"/>
   </g>
   <g id="patch_185">
    <path clip-path="url(#p2c981139f7)" d="M 431.860068 137.71551 
L 433.199755 137.71551 
L 433.199755 91.990658 
L 431.860068 91.990658 
z
" style="fill:#1f77b4;"/>
   </g>
   <g id="patch_186">
    <path clip-path="url(#p2c981139f7)" d="M 433.534677 137.71551 
L 434.874364 137.71551 
L 434.874364 97.18511 
L 433.534677 97.18511 
z
" style="fill:#1f77b4;"/>
   </g>
   <g id="patch_187">
    <path clip-path="url(#p2c981139f7)" d="M 435.209286 137.71551 
L 436.548973 137.71551 
L 436.548973 107.027231 
L 435.209286 107.027231 
z
" style="fill:#1f77b4;"/>
   </g>
   <g id="patch_188">
    <path clip-path="url(#p2c981139f7)" d="M 436.883895 137.71551 
L 438.223582 137.71551 
L 438.223582 118.612227 
L 436.883895 118.612227 
z
" style="fill:#1f77b4;"/>
   </g>
   <g id="patch_189">
    <path clip-path="url(#p2c981139f7)" d="M 438.558504 137.71551 
L 439.898191 137.71551 
L 439.898191 115.33152 
L 438.558504 115.33152 
z
" style="fill:#1f77b4;"/>
   </g>
   <g id="patch_190">
    <path clip-path="url(#p2c981139f7)" d="M 440.233113 137.71551 
L 441.5728 137.71551 
L 441.5728 87.821426 
L 440.233113 87.821426 
z
" style="fill:#1f77b4;"/>
   </g>
   <g id="patch_191">
    <path clip-path="url(#p2c981139f7)" d="M 441.907722 137.71551 
L 443.247409 137.71551 
L 443.247409 83.583846 
L 441.907722 83.583846 
z
" style="fill:#1f77b4;"/>
   </g>
   <g id="patch_192">
    <path clip-path="url(#p2c981139f7)" d="M 443.582331 137.71551 
L 444.922018 137.71551 
L 444.922018 136.075157 
L 443.582331 136.075157 
z
" style="fill:#1f77b4;"/>
   </g>
   <g id="patch_193">
    <path clip-path="url(#p2c981139f7)" d="M 445.256939 137.71551 
L 446.596627 137.71551 
L 446.596627 23.813467 
L 445.256939 23.813467 
z
" style="fill:#1f77b4;"/>
   </g>
   <g id="patch_194">
    <path clip-path="url(#p2c981139f7)" d="M 446.931548 137.71551 
L 448.271235 137.71551 
L 448.271235 88.914995 
L 446.931548 88.914995 
z
" style="fill:#1f77b4;"/>
   </g>
   <g id="patch_195">
    <path clip-path="url(#p2c981139f7)" d="M 448.606157 137.71551 
L 449.945844 137.71551 
L 449.945844 128.72774 
L 448.606157 128.72774 
z
" style="fill:#1f77b4;"/>
   </g>
   <g id="matplotlib.axis_3">
    <g id="xtick_5">
     <g id="line2d_10">
      <g>
       <use style="stroke:#000000;stroke-width:0.8;" x="293.537374" xlink:href="#ma663a58d25" y="137.71551"/>
      </g>
     </g>
     <g id="text_12">
      <!-- 0 -->
      <g transform="translate(290.356124 152.313947)scale(0.1 -0.1)">
       <use xlink:href="#DejaVuSans-48"/>
      </g>
     </g>
    </g>
    <g id="xtick_6">
     <g id="line2d_11">
      <g>
       <use style="stroke:#000000;stroke-width:0.8;" x="335.402596" xlink:href="#ma663a58d25" y="137.71551"/>
      </g>
     </g>
     <g id="text_13">
      <!-- 25 -->
      <g transform="translate(329.040096 152.313947)scale(0.1 -0.1)">
       <use xlink:href="#DejaVuSans-50"/>
       <use x="63.623047" xlink:href="#DejaVuSans-53"/>
      </g>
     </g>
    </g>
    <g id="xtick_7">
     <g id="line2d_12">
      <g>
       <use style="stroke:#000000;stroke-width:0.8;" x="377.267819" xlink:href="#ma663a58d25" y="137.71551"/>
      </g>
     </g>
     <g id="text_14">
      <!-- 50 -->
      <g transform="translate(370.905319 152.313947)scale(0.1 -0.1)">
       <use xlink:href="#DejaVuSans-53"/>
       <use x="63.623047" xlink:href="#DejaVuSans-48"/>
      </g>
     </g>
    </g>
    <g id="xtick_8">
     <g id="line2d_13">
      <g>
       <use style="stroke:#000000;stroke-width:0.8;" x="419.133041" xlink:href="#ma663a58d25" y="137.71551"/>
      </g>
     </g>
     <g id="text_15">
      <!-- 75 -->
      <g transform="translate(412.770541 152.313947)scale(0.1 -0.1)">
       <use xlink:href="#DejaVuSans-55"/>
       <use x="63.623047" xlink:href="#DejaVuSans-53"/>
      </g>
     </g>
    </g>
    <g id="text_16">
     <!-- Dias -->
     <g transform="translate(360.498875 165.992072)scale(0.1 -0.1)">
      <use xlink:href="#DejaVuSans-68"/>
      <use x="77.001953" xlink:href="#DejaVuSans-105"/>
      <use x="104.785156" xlink:href="#DejaVuSans-97"/>
      <use x="166.064453" xlink:href="#DejaVuSans-115"/>
     </g>
    </g>
   </g>
   <g id="matplotlib.axis_4">
    <g id="ytick_5">
     <g id="line2d_14">
      <g>
       <use style="stroke:#000000;stroke-width:0.8;" x="285.013615" xlink:href="#m1991342f54" y="137.71551"/>
      </g>
     </g>
     <g id="text_17">
      <!-- 0 -->
      <g transform="translate(271.651115 141.514729)scale(0.1 -0.1)">
       <use xlink:href="#DejaVuSans-48"/>
      </g>
     </g>
    </g>
    <g id="ytick_6">
     <g id="line2d_15">
      <g>
       <use style="stroke:#000000;stroke-width:0.8;" x="285.013615" xlink:href="#m1991342f54" y="103.54148"/>
      </g>
     </g>
     <g id="text_18">
      <!-- 1000 -->
      <g transform="translate(252.563615 107.340698)scale(0.1 -0.1)">
       <use xlink:href="#DejaVuSans-49"/>
       <use x="63.623047" xlink:href="#DejaVuSans-48"/>
       <use x="127.246094" xlink:href="#DejaVuSans-48"/>
       <use x="190.869141" xlink:href="#DejaVuSans-48"/>
      </g>
     </g>
    </g>
    <g id="ytick_7">
     <g id="line2d_16">
      <g>
       <use style="stroke:#000000;stroke-width:0.8;" x="285.013615" xlink:href="#m1991342f54" y="69.367449"/>
      </g>
     </g>
     <g id="text_19">
      <!-- 2000 -->
      <g transform="translate(252.563615 73.166668)scale(0.1 -0.1)">
       <use xlink:href="#DejaVuSans-50"/>
       <use x="63.623047" xlink:href="#DejaVuSans-48"/>
       <use x="127.246094" xlink:href="#DejaVuSans-48"/>
       <use x="190.869141" xlink:href="#DejaVuSans-48"/>
      </g>
     </g>
    </g>
    <g id="ytick_8">
     <g id="line2d_17">
      <g>
       <use style="stroke:#000000;stroke-width:0.8;" x="285.013615" xlink:href="#m1991342f54" y="35.193419"/>
      </g>
     </g>
     <g id="text_20">
      <!-- 3000 -->
      <g transform="translate(252.563615 38.992638)scale(0.1 -0.1)">
       <use xlink:href="#DejaVuSans-51"/>
       <use x="63.623047" xlink:href="#DejaVuSans-48"/>
       <use x="127.246094" xlink:href="#DejaVuSans-48"/>
       <use x="190.869141" xlink:href="#DejaVuSans-48"/>
      </g>
     </g>
    </g>
    <g id="text_21">
     <!-- Novos casos -->
     <defs>
      <path d="M 9.8125 72.90625 
L 23.09375 72.90625 
L 55.421875 11.921875 
L 55.421875 72.90625 
L 64.984375 72.90625 
L 64.984375 0 
L 51.703125 0 
L 19.390625 60.984375 
L 19.390625 0 
L 9.8125 0 
z
" id="DejaVuSans-78"/>
      <path d="M 2.984375 54.6875 
L 12.5 54.6875 
L 29.59375 8.796875 
L 46.6875 54.6875 
L 56.203125 54.6875 
L 35.6875 0 
L 23.484375 0 
z
" id="DejaVuSans-118"/>
     </defs>
     <g transform="translate(246.483928 109.011469)rotate(-90)scale(0.1 -0.1)">
      <use xlink:href="#DejaVuSans-78"/>
      <use x="74.804688" xlink:href="#DejaVuSans-111"/>
      <use x="135.986328" xlink:href="#DejaVuSans-118"/>
      <use x="195.166016" xlink:href="#DejaVuSans-111"/>
      <use x="256.347656" xlink:href="#DejaVuSans-115"/>
      <use x="308.447266" xlink:href="#DejaVuSans-32"/>
      <use x="340.234375" xlink:href="#DejaVuSans-99"/>
      <use x="395.214844" xlink:href="#DejaVuSans-97"/>
      <use x="456.494141" xlink:href="#DejaVuSans-115"/>
      <use x="508.59375" xlink:href="#DejaVuSans-111"/>
      <use x="569.775391" xlink:href="#DejaVuSans-115"/>
     </g>
    </g>
   </g>
   <g id="line2d_18">
    <path clip-path="url(#p2c981139f7)" d="M 293.537374 137.702003 
L 295.211983 137.696281 
L 296.886592 137.689349 
L 298.561201 137.682418 
L 300.23581 137.675116 
L 301.910419 137.667658 
L 303.585028 137.660285 
L 305.259636 137.653211 
L 306.934245 137.646465 
L 308.608854 137.639846 
L 310.283463 137.632815 
L 311.958072 137.62473 
L 313.632681 137.614838 
L 315.30729 137.601971 
L 316.981899 137.584778 
L 318.656508 137.562517 
L 320.331116 137.534933 
L 322.005725 137.501997 
L 323.680334 137.46398 
L 325.354943 137.421551 
L 327.029552 137.376559 
L 328.704161 137.330913 
L 330.37877 137.285524 
L 332.053379 137.240774 
L 333.727988 137.196338 
L 335.402596 137.15166 
L 337.077205 137.105259 
L 338.751814 137.053294 
L 340.426423 136.992105 
L 342.101032 136.918491 
L 343.775641 136.828679 
L 345.45025 136.720279 
L 347.124859 136.590172 
L 348.799468 136.436823 
L 350.474076 136.261669 
L 352.148685 136.065563 
L 353.823294 135.850414 
L 355.497903 135.617045 
L 357.172512 135.365928 
L 358.847121 135.099681 
L 360.52173 134.817763 
L 362.196339 134.517114 
L 363.870948 134.194688 
L 365.545556 133.844764 
L 367.220165 133.469874 
L 368.894774 133.069166 
L 370.569383 132.639265 
L 372.243992 132.179132 
L 373.918601 131.687501 
L 375.59321 131.16265 
L 377.267819 130.60707 
L 378.942427 130.009458 
L 380.617036 129.362657 
L 382.291645 128.662338 
L 383.966254 127.912929 
L 385.640863 127.12055 
L 387.315472 126.287279 
L 388.990081 125.405543 
L 390.66469 124.479343 
L 392.339299 123.514115 
L 394.013907 122.513319 
L 395.688516 121.456087 
L 397.363125 120.324829 
L 399.037734 119.126332 
L 400.712343 117.879215 
L 402.386952 116.599105 
L 404.061561 115.296094 
L 405.73617 113.976543 
L 407.410779 112.673931 
L 409.085387 111.415199 
L 410.759996 110.187439 
L 412.434605 108.987021 
L 414.109214 107.806587 
L 415.783823 106.653124 
L 417.458432 105.543714 
L 419.133041 104.481828 
L 420.80765 103.480305 
L 422.482259 102.586201 
L 424.156867 101.835611 
L 425.831476 101.240191 
L 427.506085 100.778778 
L 429.180694 100.42622 
L 430.855303 100.120077 
L 432.529912 99.785937 
L 434.204521 99.348521 
L 435.87913 98.676812 
L 437.553739 97.725703 
L 439.228347 96.509842 
L 440.902956 95.107369 
L 442.577565 93.576967 
L 444.252174 92.009303 
L 445.926783 90.968212 
L 447.601392 89.982346 
L 449.276001 89.123327 
" style="fill:none;stroke:#ff0000;stroke-linecap:square;stroke-width:1.5;"/>
   </g>
   <g id="patch_196">
    <path d="M 285.013615 137.71551 
L 285.013615 18.118365 
" style="fill:none;stroke:#000000;stroke-linecap:square;stroke-linejoin:miter;stroke-width:0.8;"/>
   </g>
   <g id="patch_197">
    <path d="M 457.79976 137.71551 
L 457.79976 18.118365 
" style="fill:none;stroke:#000000;stroke-linecap:square;stroke-linejoin:miter;stroke-width:0.8;"/>
   </g>
   <g id="patch_198">
    <path d="M 285.013615 137.71551 
L 457.79976 137.71551 
" style="fill:none;stroke:#000000;stroke-linecap:square;stroke-linejoin:miter;stroke-width:0.8;"/>
   </g>
   <g id="patch_199">
    <path d="M 285.013615 18.118365 
L 457.79976 18.118365 
" style="fill:none;stroke:#000000;stroke-linecap:square;stroke-linejoin:miter;stroke-width:0.8;"/>
   </g>
   <g id="text_22">
    <!-- Casos novos - PB -->
    <defs>
     <path d="M 54.890625 33.015625 
L 54.890625 0 
L 45.90625 0 
L 45.90625 32.71875 
Q 45.90625 40.484375 42.875 44.328125 
Q 39.84375 48.1875 33.796875 48.1875 
Q 26.515625 48.1875 22.3125 43.546875 
Q 18.109375 38.921875 18.109375 30.90625 
L 18.109375 0 
L 9.078125 0 
L 9.078125 54.6875 
L 18.109375 54.6875 
L 18.109375 46.1875 
Q 21.34375 51.125 25.703125 53.5625 
Q 30.078125 56 35.796875 56 
Q 45.21875 56 50.046875 50.171875 
Q 54.890625 44.34375 54.890625 33.015625 
z
" id="DejaVuSans-110"/>
    </defs>
    <g transform="translate(320.176063 12.118365)scale(0.12 -0.12)">
     <use xlink:href="#DejaVuSans-67"/>
     <use x="69.824219" xlink:href="#DejaVuSans-97"/>
     <use x="131.103516" xlink:href="#DejaVuSans-115"/>
     <use x="183.203125" xlink:href="#DejaVuSans-111"/>
     <use x="244.384766" xlink:href="#DejaVuSans-115"/>
     <use x="296.484375" xlink:href="#DejaVuSans-32"/>
     <use x="328.271484" xlink:href="#DejaVuSans-110"/>
     <use x="391.650391" xlink:href="#DejaVuSans-111"/>
     <use x="452.832031" xlink:href="#DejaVuSans-118"/>
     <use x="512.011719" xlink:href="#DejaVuSans-111"/>
     <use x="573.193359" xlink:href="#DejaVuSans-115"/>
     <use x="625.292969" xlink:href="#DejaVuSans-32"/>
     <use x="657.080078" xlink:href="#DejaVuSans-45"/>
     <use x="693.164062" xlink:href="#DejaVuSans-32"/>
     <use x="724.951172" xlink:href="#DejaVuSans-80"/>
     <use x="785.253906" xlink:href="#DejaVuSans-66"/>
    </g>
   </g>
  </g>
  <g id="axes_3">
   <g id="patch_200">
    <path d="M 55.490865 312.24351 
L 457.79976 312.24351 
L 457.79976 192.646365 
L 55.490865 192.646365 
z
" style="fill:#ffffff;"/>
   </g>
   <g id="matplotlib.axis_5">
    <g id="xtick_9">
     <g id="line2d_19">
      <g>
       <use style="stroke:#000000;stroke-width:0.8;" x="73.777633" xlink:href="#ma663a58d25" y="312.24351"/>
      </g>
     </g>
     <g id="text_23">
      <!-- 0 -->
      <g transform="translate(70.596383 326.841947)scale(0.1 -0.1)">
       <use xlink:href="#DejaVuSans-48"/>
      </g>
     </g>
    </g>
    <g id="xtick_10">
     <g id="line2d_20">
      <g>
       <use style="stroke:#000000;stroke-width:0.8;" x="152.430398" xlink:href="#ma663a58d25" y="312.24351"/>
      </g>
     </g>
     <g id="text_24">
      <!-- 20 -->
      <g transform="translate(146.067898 326.841947)scale(0.1 -0.1)">
       <use xlink:href="#DejaVuSans-50"/>
       <use x="63.623047" xlink:href="#DejaVuSans-48"/>
      </g>
     </g>
    </g>
    <g id="xtick_11">
     <g id="line2d_21">
      <g>
       <use style="stroke:#000000;stroke-width:0.8;" x="231.083164" xlink:href="#ma663a58d25" y="312.24351"/>
      </g>
     </g>
     <g id="text_25">
      <!-- 40 -->
      <defs>
       <path d="M 37.796875 64.3125 
L 12.890625 25.390625 
L 37.796875 25.390625 
z
M 35.203125 72.90625 
L 47.609375 72.90625 
L 47.609375 25.390625 
L 58.015625 25.390625 
L 58.015625 17.1875 
L 47.609375 17.1875 
L 47.609375 0 
L 37.796875 0 
L 37.796875 17.1875 
L 4.890625 17.1875 
L 4.890625 26.703125 
z
" id="DejaVuSans-52"/>
      </defs>
      <g transform="translate(224.720664 326.841947)scale(0.1 -0.1)">
       <use xlink:href="#DejaVuSans-52"/>
       <use x="63.623047" xlink:href="#DejaVuSans-48"/>
      </g>
     </g>
    </g>
    <g id="xtick_12">
     <g id="line2d_22">
      <g>
       <use style="stroke:#000000;stroke-width:0.8;" x="309.735929" xlink:href="#ma663a58d25" y="312.24351"/>
      </g>
     </g>
     <g id="text_26">
      <!-- 60 -->
      <defs>
       <path d="M 33.015625 40.375 
Q 26.375 40.375 22.484375 35.828125 
Q 18.609375 31.296875 18.609375 23.390625 
Q 18.609375 15.53125 22.484375 10.953125 
Q 26.375 6.390625 33.015625 6.390625 
Q 39.65625 6.390625 43.53125 10.953125 
Q 47.40625 15.53125 47.40625 23.390625 
Q 47.40625 31.296875 43.53125 35.828125 
Q 39.65625 40.375 33.015625 40.375 
z
M 52.59375 71.296875 
L 52.59375 62.3125 
Q 48.875 64.0625 45.09375 64.984375 
Q 41.3125 65.921875 37.59375 65.921875 
Q 27.828125 65.921875 22.671875 59.328125 
Q 17.53125 52.734375 16.796875 39.40625 
Q 19.671875 43.65625 24.015625 45.921875 
Q 28.375 48.1875 33.59375 48.1875 
Q 44.578125 48.1875 50.953125 41.515625 
Q 57.328125 34.859375 57.328125 23.390625 
Q 57.328125 12.15625 50.6875 5.359375 
Q 44.046875 -1.421875 33.015625 -1.421875 
Q 20.359375 -1.421875 13.671875 8.265625 
Q 6.984375 17.96875 6.984375 36.375 
Q 6.984375 53.65625 15.1875 63.9375 
Q 23.390625 74.21875 37.203125 74.21875 
Q 40.921875 74.21875 44.703125 73.484375 
Q 48.484375 72.75 52.59375 71.296875 
z
" id="DejaVuSans-54"/>
      </defs>
      <g transform="translate(303.373429 326.841947)scale(0.1 -0.1)">
       <use xlink:href="#DejaVuSans-54"/>
       <use x="63.623047" xlink:href="#DejaVuSans-48"/>
      </g>
     </g>
    </g>
    <g id="xtick_13">
     <g id="line2d_23">
      <g>
       <use style="stroke:#000000;stroke-width:0.8;" x="388.388695" xlink:href="#ma663a58d25" y="312.24351"/>
      </g>
     </g>
     <g id="text_27">
      <!-- 80 -->
      <defs>
       <path d="M 31.78125 34.625 
Q 24.75 34.625 20.71875 30.859375 
Q 16.703125 27.09375 16.703125 20.515625 
Q 16.703125 13.921875 20.71875 10.15625 
Q 24.75 6.390625 31.78125 6.390625 
Q 38.8125 6.390625 42.859375 10.171875 
Q 46.921875 13.96875 46.921875 20.515625 
Q 46.921875 27.09375 42.890625 30.859375 
Q 38.875 34.625 31.78125 34.625 
z
M 21.921875 38.8125 
Q 15.578125 40.375 12.03125 44.71875 
Q 8.5 49.078125 8.5 55.328125 
Q 8.5 64.0625 14.71875 69.140625 
Q 20.953125 74.21875 31.78125 74.21875 
Q 42.671875 74.21875 48.875 69.140625 
Q 55.078125 64.0625 55.078125 55.328125 
Q 55.078125 49.078125 51.53125 44.71875 
Q 48 40.375 41.703125 38.8125 
Q 48.828125 37.15625 52.796875 32.3125 
Q 56.78125 27.484375 56.78125 20.515625 
Q 56.78125 9.90625 50.3125 4.234375 
Q 43.84375 -1.421875 31.78125 -1.421875 
Q 19.734375 -1.421875 13.25 4.234375 
Q 6.78125 9.90625 6.78125 20.515625 
Q 6.78125 27.484375 10.78125 32.3125 
Q 14.796875 37.15625 21.921875 38.8125 
z
M 18.3125 54.390625 
Q 18.3125 48.734375 21.84375 45.5625 
Q 25.390625 42.390625 31.78125 42.390625 
Q 38.140625 42.390625 41.71875 45.5625 
Q 45.3125 48.734375 45.3125 54.390625 
Q 45.3125 60.0625 41.71875 63.234375 
Q 38.140625 66.40625 31.78125 66.40625 
Q 25.390625 66.40625 21.84375 63.234375 
Q 18.3125 60.0625 18.3125 54.390625 
z
" id="DejaVuSans-56"/>
      </defs>
      <g transform="translate(382.026195 326.841947)scale(0.1 -0.1)">
       <use xlink:href="#DejaVuSans-56"/>
       <use x="63.623047" xlink:href="#DejaVuSans-48"/>
      </g>
     </g>
    </g>
    <g id="text_28">
     <!-- Dias -->
     <g transform="translate(245.7375 340.520072)scale(0.1 -0.1)">
      <use xlink:href="#DejaVuSans-68"/>
      <use x="77.001953" xlink:href="#DejaVuSans-105"/>
      <use x="104.785156" xlink:href="#DejaVuSans-97"/>
      <use x="166.064453" xlink:href="#DejaVuSans-115"/>
     </g>
    </g>
   </g>
   <g id="matplotlib.axis_6">
    <g id="ytick_9">
     <g id="line2d_24">
      <g>
       <use style="stroke:#000000;stroke-width:0.8;" x="55.490865" xlink:href="#m1991342f54" y="292.203435"/>
      </g>
     </g>
     <g id="text_29">
      <!-- 1.5 -->
      <defs>
       <path d="M 10.6875 12.40625 
L 21 12.40625 
L 21 0 
L 10.6875 0 
z
" id="DejaVuSans-46"/>
      </defs>
      <g transform="translate(32.58774 296.002654)scale(0.1 -0.1)">
       <use xlink:href="#DejaVuSans-49"/>
       <use x="63.623047" xlink:href="#DejaVuSans-46"/>
       <use x="95.410156" xlink:href="#DejaVuSans-53"/>
      </g>
     </g>
    </g>
    <g id="ytick_10">
     <g id="line2d_25">
      <g>
       <use style="stroke:#000000;stroke-width:0.8;" x="55.490865" xlink:href="#m1991342f54" y="267.643371"/>
      </g>
     </g>
     <g id="text_30">
      <!-- 2.0 -->
      <g transform="translate(32.58774 271.442589)scale(0.1 -0.1)">
       <use xlink:href="#DejaVuSans-50"/>
       <use x="63.623047" xlink:href="#DejaVuSans-46"/>
       <use x="95.410156" xlink:href="#DejaVuSans-48"/>
      </g>
     </g>
    </g>
    <g id="ytick_11">
     <g id="line2d_26">
      <g>
       <use style="stroke:#000000;stroke-width:0.8;" x="55.490865" xlink:href="#m1991342f54" y="243.083306"/>
      </g>
     </g>
     <g id="text_31">
      <!-- 2.5 -->
      <g transform="translate(32.58774 246.882525)scale(0.1 -0.1)">
       <use xlink:href="#DejaVuSans-50"/>
       <use x="63.623047" xlink:href="#DejaVuSans-46"/>
       <use x="95.410156" xlink:href="#DejaVuSans-53"/>
      </g>
     </g>
    </g>
    <g id="ytick_12">
     <g id="line2d_27">
      <g>
       <use style="stroke:#000000;stroke-width:0.8;" x="55.490865" xlink:href="#m1991342f54" y="218.523241"/>
      </g>
     </g>
     <g id="text_32">
      <!-- 3.0 -->
      <g transform="translate(32.58774 222.32246)scale(0.1 -0.1)">
       <use xlink:href="#DejaVuSans-51"/>
       <use x="63.623047" xlink:href="#DejaVuSans-46"/>
       <use x="95.410156" xlink:href="#DejaVuSans-48"/>
      </g>
     </g>
    </g>
    <g id="ytick_13">
     <g id="line2d_28">
      <g>
       <use style="stroke:#000000;stroke-width:0.8;" x="55.490865" xlink:href="#m1991342f54" y="193.963177"/>
      </g>
     </g>
     <g id="text_33">
      <!-- 3.5 -->
      <g transform="translate(32.58774 197.762395)scale(0.1 -0.1)">
       <use xlink:href="#DejaVuSans-51"/>
       <use x="63.623047" xlink:href="#DejaVuSans-46"/>
       <use x="95.410156" xlink:href="#DejaVuSans-53"/>
      </g>
     </g>
    </g>
    <g id="text_34">
     <!-- r0 -->
     <defs>
      <path d="M 41.109375 46.296875 
Q 39.59375 47.171875 37.8125 47.578125 
Q 36.03125 48 33.890625 48 
Q 26.265625 48 22.1875 43.046875 
Q 18.109375 38.09375 18.109375 28.8125 
L 18.109375 0 
L 9.078125 0 
L 9.078125 54.6875 
L 18.109375 54.6875 
L 18.109375 46.1875 
Q 20.953125 51.171875 25.484375 53.578125 
Q 30.03125 56 36.53125 56 
Q 37.453125 56 38.578125 55.875 
Q 39.703125 55.765625 41.0625 55.515625 
z
" id="DejaVuSans-114"/>
     </defs>
     <g transform="translate(26.508053 257.681656)rotate(-90)scale(0.1 -0.1)">
      <use xlink:href="#DejaVuSans-114"/>
      <use x="41.113281" xlink:href="#DejaVuSans-48"/>
     </g>
    </g>
   </g>
   <g id="line2d_29">
    <path clip-path="url(#p65ddeac01f)" d="M 73.777633 198.082599 
L 77.710271 212.359453 
L 81.642909 223.794926 
L 85.575548 243.266908 
L 89.508186 253.336254 
L 93.440824 262.072443 
L 97.373463 269.91504 
L 101.306101 276.916558 
L 105.238739 282.472256 
L 109.171377 286.064336 
L 113.104016 286.921473 
L 117.036654 285.505921 
L 120.969292 282.274293 
L 124.90193 276.985828 
L 128.834569 270.598861 
L 132.767207 265.688311 
L 136.699845 263.138714 
L 140.632484 262.606651 
L 144.565122 263.693514 
L 148.49776 266.075765 
L 152.430398 270.140796 
L 156.363037 275.066471 
L 160.295675 279.666966 
L 164.228313 283.62709 
L 168.160951 286.664513 
L 172.09359 288.887971 
L 176.026228 290.004928 
L 179.958866 289.140204 
L 183.891505 286.983169 
L 187.824143 284.238896 
L 191.756781 281.093797 
L 195.689419 278.389457 
L 199.622058 276.015844 
L 203.554696 274.476166 
L 207.487334 274.2556 
L 211.419972 274.795434 
L 215.352611 275.993492 
L 219.285249 277.416696 
L 223.217887 278.902614 
L 227.150525 280.65519 
L 231.083164 282.194308 
L 235.015802 283.305689 
L 238.94844 284.108378 
L 242.881079 284.466027 
L 246.813717 285.147332 
L 250.746355 285.8089 
L 254.678993 286.286927 
L 258.611632 286.768789 
L 262.54427 287.23645 
L 266.476908 287.666393 
L 270.409546 288.259368 
L 274.342185 288.372169 
L 278.274823 288.301492 
L 282.207461 288.207788 
L 286.1401 288.40033 
L 290.072738 288.85502 
L 294.005376 289.378172 
L 297.938014 289.680601 
L 301.870653 290.106062 
L 305.803291 290.651149 
L 309.735929 291.2341 
L 313.668567 291.325712 
L 317.601206 291.098371 
L 321.533844 291.076007 
L 325.466482 291.41596 
L 329.39912 291.983114 
L 333.331759 292.635027 
L 337.264397 293.291237 
L 341.197035 294.327585 
L 345.129674 295.585032 
L 349.062312 296.506824 
L 352.99495 297.260342 
L 356.927588 297.822919 
L 360.860227 298.388825 
L 364.792865 299.074233 
L 368.725503 299.714726 
L 372.658141 300.420856 
L 376.59078 301.562137 
L 380.523418 303.002178 
L 384.456056 304.485529 
L 388.388695 305.685991 
L 392.321333 306.586256 
L 396.253971 306.807276 
L 400.186609 306.233226 
L 404.119248 304.867765 
L 408.051886 302.165186 
L 411.984524 299.09017 
L 415.917162 296.298062 
L 419.849801 294.398242 
L 423.782439 293.133905 
L 427.715077 292.7253 
L 431.647716 297.264789 
L 435.580354 297.430189 
L 439.512992 298.180771 
" style="fill:none;stroke:#ff0000;stroke-linecap:square;stroke-width:1.5;"/>
   </g>
   <g id="patch_201">
    <path d="M 55.490865 312.24351 
L 55.490865 192.646365 
" style="fill:none;stroke:#000000;stroke-linecap:square;stroke-linejoin:miter;stroke-width:0.8;"/>
   </g>
   <g id="patch_202">
    <path d="M 457.79976 312.24351 
L 457.79976 192.646365 
" style="fill:none;stroke:#000000;stroke-linecap:square;stroke-linejoin:miter;stroke-width:0.8;"/>
   </g>
   <g id="patch_203">
    <path d="M 55.490865 312.24351 
L 457.79976 312.24351 
" style="fill:none;stroke:#000000;stroke-linecap:square;stroke-linejoin:miter;stroke-width:0.8;"/>
   </g>
   <g id="patch_204">
    <path d="M 55.490865 192.646365 
L 457.79976 192.646365 
" style="fill:none;stroke:#000000;stroke-linecap:square;stroke-linejoin:miter;stroke-width:0.8;"/>
   </g>
   <g id="text_35">
    <!-- r0 aproximado - PB -->
    <defs>
     <path d="M 18.109375 8.203125 
L 18.109375 -20.796875 
L 9.078125 -20.796875 
L 9.078125 54.6875 
L 18.109375 54.6875 
L 18.109375 46.390625 
Q 20.953125 51.265625 25.265625 53.625 
Q 29.59375 56 35.59375 56 
Q 45.5625 56 51.78125 48.09375 
Q 58.015625 40.1875 58.015625 27.296875 
Q 58.015625 14.40625 51.78125 6.484375 
Q 45.5625 -1.421875 35.59375 -1.421875 
Q 29.59375 -1.421875 25.265625 0.953125 
Q 20.953125 3.328125 18.109375 8.203125 
z
M 48.6875 27.296875 
Q 48.6875 37.203125 44.609375 42.84375 
Q 40.53125 48.484375 33.40625 48.484375 
Q 26.265625 48.484375 22.1875 42.84375 
Q 18.109375 37.203125 18.109375 27.296875 
Q 18.109375 17.390625 22.1875 11.75 
Q 26.265625 6.109375 33.40625 6.109375 
Q 40.53125 6.109375 44.609375 11.75 
Q 48.6875 17.390625 48.6875 27.296875 
z
" id="DejaVuSans-112"/>
     <path d="M 54.890625 54.6875 
L 35.109375 28.078125 
L 55.90625 0 
L 45.3125 0 
L 29.390625 21.484375 
L 13.484375 0 
L 2.875 0 
L 24.125 28.609375 
L 4.6875 54.6875 
L 15.28125 54.6875 
L 29.78125 35.203125 
L 44.28125 54.6875 
z
" id="DejaVuSans-120"/>
    </defs>
    <g transform="translate(199.220625 186.646365)scale(0.12 -0.12)">
     <use xlink:href="#DejaVuSans-114"/>
     <use x="41.113281" xlink:href="#DejaVuSans-48"/>
     <use x="104.736328" xlink:href="#DejaVuSans-32"/>
     <use x="136.523438" xlink:href="#DejaVuSans-97"/>
     <use x="197.802734" xlink:href="#DejaVuSans-112"/>
     <use x="261.279297" xlink:href="#DejaVuSans-114"/>
     <use x="300.142578" xlink:href="#DejaVuSans-111"/>
     <use x="358.199219" xlink:href="#DejaVuSans-120"/>
     <use x="417.378906" xlink:href="#DejaVuSans-105"/>
     <use x="445.162109" xlink:href="#DejaVuSans-109"/>
     <use x="542.574219" xlink:href="#DejaVuSans-97"/>
     <use x="603.853516" xlink:href="#DejaVuSans-100"/>
     <use x="667.330078" xlink:href="#DejaVuSans-111"/>
     <use x="728.511719" xlink:href="#DejaVuSans-32"/>
     <use x="760.298828" xlink:href="#DejaVuSans-45"/>
     <use x="796.382812" xlink:href="#DejaVuSans-32"/>
     <use x="828.169922" xlink:href="#DejaVuSans-80"/>
     <use x="888.472656" xlink:href="#DejaVuSans-66"/>
    </g>
   </g>
  </g>
 </g>
 <defs>
  <clipPath id="pdfccb006bb">
   <rect height="119.597145" width="172.786145" x="55.490865" y="18.118365"/>
  </clipPath>
  <clipPath id="p2c981139f7">
   <rect height="119.597145" width="172.786145" x="285.013615" y="18.118365"/>
  </clipPath>
  <clipPath id="p65ddeac01f">
   <rect height="119.597145" width="402.308895" x="55.490865" y="192.646365"/>
  </clipPath>
 </defs>
</svg>
