<?xml version="1.0" encoding="utf-8" standalone="no"?>
<!DOCTYPE svg PUBLIC "-//W3C//DTD SVG 1.1//EN"
  "http://www.w3.org/Graphics/SVG/1.1/DTD/svg11.dtd">
<!-- Created with matplotlib (https://matplotlib.org/) -->
<svg height="345.6pt" version="1.1" viewBox="0 0 460.8 345.6" width="460.8pt" xmlns="http://www.w3.org/2000/svg" xmlns:xlink="http://www.w3.org/1999/xlink">
 <defs>
  <style type="text/css">
*{stroke-linecap:butt;stroke-linejoin:round;}
  </style>
 </defs>
 <g id="figure_1">
  <g id="patch_1">
   <path d="M 0 345.6 
L 460.8 345.6 
L 460.8 0 
L 0 0 
z
" style="fill:#ffffff;"/>
  </g>
  <g id="axes_1">
   <g id="patch_2">
    <path d="M 51.037584 325.921635 
L 136.285093 325.921635 
L 136.285093 18.118365 
L 51.037584 18.118365 
z
" style="fill:#ffffff;"/>
   </g>
   <g id="patch_3">
    <path clip-path="url(#pe247b034f3)" d="M 54.91247 325.921635 
L 55.573432 325.921635 
L 55.573432 325.913854 
L 54.91247 325.913854 
z
" style="fill:#1f77b4;"/>
   </g>
   <g id="patch_4">
    <path clip-path="url(#pe247b034f3)" d="M 55.738672 325.921635 
L 56.399634 325.921635 
L 56.399634 325.913854 
L 55.738672 325.913854 
z
" style="fill:#1f77b4;"/>
   </g>
   <g id="patch_5">
    <path clip-path="url(#pe247b034f3)" d="M 56.564874 325.921635 
L 57.225836 325.921635 
L 57.225836 325.913854 
L 56.564874 325.913854 
z
" style="fill:#1f77b4;"/>
   </g>
   <g id="patch_6">
    <path clip-path="url(#pe247b034f3)" d="M 57.391076 325.921635 
L 58.052037 325.921635 
L 58.052037 325.906072 
L 57.391076 325.906072 
z
" style="fill:#1f77b4;"/>
   </g>
   <g id="patch_7">
    <path clip-path="url(#pe247b034f3)" d="M 58.217278 325.921635 
L 58.878239 325.921635 
L 58.878239 325.898291 
L 58.217278 325.898291 
z
" style="fill:#1f77b4;"/>
   </g>
   <g id="patch_8">
    <path clip-path="url(#pe247b034f3)" d="M 59.04348 325.921635 
L 59.704441 325.921635 
L 59.704441 325.898291 
L 59.04348 325.898291 
z
" style="fill:#1f77b4;"/>
   </g>
   <g id="patch_9">
    <path clip-path="url(#pe247b034f3)" d="M 59.869682 325.921635 
L 60.530643 325.921635 
L 60.530643 325.882728 
L 59.869682 325.882728 
z
" style="fill:#1f77b4;"/>
   </g>
   <g id="patch_10">
    <path clip-path="url(#pe247b034f3)" d="M 60.695884 325.921635 
L 61.356845 325.921635 
L 61.356845 325.851602 
L 60.695884 325.851602 
z
" style="fill:#1f77b4;"/>
   </g>
   <g id="patch_11">
    <path clip-path="url(#pe247b034f3)" d="M 61.522085 325.921635 
L 62.183047 325.921635 
L 62.183047 325.812695 
L 61.522085 325.812695 
z
" style="fill:#1f77b4;"/>
   </g>
   <g id="patch_12">
    <path clip-path="url(#pe247b034f3)" d="M 62.348287 325.921635 
L 63.009249 325.921635 
L 63.009249 325.812695 
L 62.348287 325.812695 
z
" style="fill:#1f77b4;"/>
   </g>
   <g id="patch_13">
    <path clip-path="url(#pe247b034f3)" d="M 63.174489 325.921635 
L 63.835451 325.921635 
L 63.835451 325.804913 
L 63.174489 325.804913 
z
" style="fill:#1f77b4;"/>
   </g>
   <g id="patch_14">
    <path clip-path="url(#pe247b034f3)" d="M 64.000691 325.921635 
L 64.661653 325.921635 
L 64.661653 325.78935 
L 64.000691 325.78935 
z
" style="fill:#1f77b4;"/>
   </g>
   <g id="patch_15">
    <path clip-path="url(#pe247b034f3)" d="M 64.826893 325.921635 
L 65.487854 325.921635 
L 65.487854 325.766006 
L 64.826893 325.766006 
z
" style="fill:#1f77b4;"/>
   </g>
   <g id="patch_16">
    <path clip-path="url(#pe247b034f3)" d="M 65.653095 325.921635 
L 66.314056 325.921635 
L 66.314056 325.758224 
L 65.653095 325.758224 
z
" style="fill:#1f77b4;"/>
   </g>
   <g id="patch_17">
    <path clip-path="url(#pe247b034f3)" d="M 66.479297 325.921635 
L 67.140258 325.921635 
L 67.140258 325.695973 
L 66.479297 325.695973 
z
" style="fill:#1f77b4;"/>
   </g>
   <g id="patch_18">
    <path clip-path="url(#pe247b034f3)" d="M 67.305499 325.921635 
L 67.96646 325.921635 
L 67.96646 325.672628 
L 67.305499 325.672628 
z
" style="fill:#1f77b4;"/>
   </g>
   <g id="patch_19">
    <path clip-path="url(#pe247b034f3)" d="M 68.1317 325.921635 
L 68.792662 325.921635 
L 68.792662 325.657065 
L 68.1317 325.657065 
z
" style="fill:#1f77b4;"/>
   </g>
   <g id="patch_20">
    <path clip-path="url(#pe247b034f3)" d="M 68.957902 325.921635 
L 69.618864 325.921635 
L 69.618864 325.649284 
L 68.957902 325.649284 
z
" style="fill:#1f77b4;"/>
   </g>
   <g id="patch_21">
    <path clip-path="url(#pe247b034f3)" d="M 69.784104 325.921635 
L 70.445066 325.921635 
L 70.445066 325.641502 
L 69.784104 325.641502 
z
" style="fill:#1f77b4;"/>
   </g>
   <g id="patch_22">
    <path clip-path="url(#pe247b034f3)" d="M 70.610306 325.921635 
L 71.271268 325.921635 
L 71.271268 325.602595 
L 70.610306 325.602595 
z
" style="fill:#1f77b4;"/>
   </g>
   <g id="patch_23">
    <path clip-path="url(#pe247b034f3)" d="M 71.436508 325.921635 
L 72.097469 325.921635 
L 72.097469 325.493655 
L 71.436508 325.493655 
z
" style="fill:#1f77b4;"/>
   </g>
   <g id="patch_24">
    <path clip-path="url(#pe247b034f3)" d="M 72.26271 325.921635 
L 72.923671 325.921635 
L 72.923671 325.306899 
L 72.26271 325.306899 
z
" style="fill:#1f77b4;"/>
   </g>
   <g id="patch_25">
    <path clip-path="url(#pe247b034f3)" d="M 73.088912 325.921635 
L 73.749873 325.921635 
L 73.749873 325.260211 
L 73.088912 325.260211 
z
" style="fill:#1f77b4;"/>
   </g>
   <g id="patch_26">
    <path clip-path="url(#pe247b034f3)" d="M 73.915114 325.921635 
L 74.576075 325.921635 
L 74.576075 325.135707 
L 73.915114 325.135707 
z
" style="fill:#1f77b4;"/>
   </g>
   <g id="patch_27">
    <path clip-path="url(#pe247b034f3)" d="M 74.741315 325.921635 
L 75.402277 325.921635 
L 75.402277 325.057893 
L 74.741315 325.057893 
z
" style="fill:#1f77b4;"/>
   </g>
   <g id="patch_28">
    <path clip-path="url(#pe247b034f3)" d="M 75.567517 325.921635 
L 76.228479 325.921635 
L 76.228479 324.863356 
L 75.567517 324.863356 
z
" style="fill:#1f77b4;"/>
   </g>
   <g id="patch_29">
    <path clip-path="url(#pe247b034f3)" d="M 76.393719 325.921635 
L 77.054681 325.921635 
L 77.054681 324.746634 
L 76.393719 324.746634 
z
" style="fill:#1f77b4;"/>
   </g>
   <g id="patch_30">
    <path clip-path="url(#pe247b034f3)" d="M 77.219921 325.921635 
L 77.880883 325.921635 
L 77.880883 324.637694 
L 77.219921 324.637694 
z
" style="fill:#1f77b4;"/>
   </g>
   <g id="patch_31">
    <path clip-path="url(#pe247b034f3)" d="M 78.046123 325.921635 
L 78.707084 325.921635 
L 78.707084 324.40425 
L 78.046123 324.40425 
z
" style="fill:#1f77b4;"/>
   </g>
   <g id="patch_32">
    <path clip-path="url(#pe247b034f3)" d="M 78.872325 325.921635 
L 79.533286 325.921635 
L 79.533286 324.326435 
L 78.872325 324.326435 
z
" style="fill:#1f77b4;"/>
   </g>
   <g id="patch_33">
    <path clip-path="url(#pe247b034f3)" d="M 79.698527 325.921635 
L 80.359488 325.921635 
L 80.359488 324.08521 
L 79.698527 324.08521 
z
" style="fill:#1f77b4;"/>
   </g>
   <g id="patch_34">
    <path clip-path="url(#pe247b034f3)" d="M 80.524729 325.921635 
L 81.18569 325.921635 
L 81.18569 324.015177 
L 80.524729 324.015177 
z
" style="fill:#1f77b4;"/>
   </g>
   <g id="patch_35">
    <path clip-path="url(#pe247b034f3)" d="M 81.35093 325.921635 
L 82.011892 325.921635 
L 82.011892 323.87511 
L 81.35093 323.87511 
z
" style="fill:#1f77b4;"/>
   </g>
   <g id="patch_36">
    <path clip-path="url(#pe247b034f3)" d="M 82.177132 325.921635 
L 82.838094 325.921635 
L 82.838094 323.579415 
L 82.177132 323.579415 
z
" style="fill:#1f77b4;"/>
   </g>
   <g id="patch_37">
    <path clip-path="url(#pe247b034f3)" d="M 83.003334 325.921635 
L 83.664296 325.921635 
L 83.664296 323.23703 
L 83.003334 323.23703 
z
" style="fill:#1f77b4;"/>
   </g>
   <g id="patch_38">
    <path clip-path="url(#pe247b034f3)" d="M 83.829536 325.921635 
L 84.490498 325.921635 
L 84.490498 322.917991 
L 83.829536 322.917991 
z
" style="fill:#1f77b4;"/>
   </g>
   <g id="patch_39">
    <path clip-path="url(#pe247b034f3)" d="M 84.655738 325.921635 
L 85.316699 325.921635 
L 85.316699 322.443321 
L 84.655738 322.443321 
z
" style="fill:#1f77b4;"/>
   </g>
   <g id="patch_40">
    <path clip-path="url(#pe247b034f3)" d="M 85.48194 325.921635 
L 86.142901 325.921635 
L 86.142901 322.038685 
L 85.48194 322.038685 
z
" style="fill:#1f77b4;"/>
   </g>
   <g id="patch_41">
    <path clip-path="url(#pe247b034f3)" d="M 86.308142 325.921635 
L 86.969103 325.921635 
L 86.969103 321.696301 
L 86.308142 321.696301 
z
" style="fill:#1f77b4;"/>
   </g>
   <g id="patch_42">
    <path clip-path="url(#pe247b034f3)" d="M 87.134344 325.921635 
L 87.795305 325.921635 
L 87.795305 320.995969 
L 87.134344 320.995969 
z
" style="fill:#1f77b4;"/>
   </g>
   <g id="patch_43">
    <path clip-path="url(#pe247b034f3)" d="M 87.960545 325.921635 
L 88.621507 325.921635 
L 88.621507 320.482393 
L 87.960545 320.482393 
z
" style="fill:#1f77b4;"/>
   </g>
   <g id="patch_44">
    <path clip-path="url(#pe247b034f3)" d="M 88.786747 325.921635 
L 89.447709 325.921635 
L 89.447709 319.587525 
L 88.786747 319.587525 
z
" style="fill:#1f77b4;"/>
   </g>
   <g id="patch_45">
    <path clip-path="url(#pe247b034f3)" d="M 89.612949 325.921635 
L 90.273911 325.921635 
L 90.273911 318.716001 
L 89.612949 318.716001 
z
" style="fill:#1f77b4;"/>
   </g>
   <g id="patch_46">
    <path clip-path="url(#pe247b034f3)" d="M 90.439151 325.921635 
L 91.100113 325.921635 
L 91.100113 317.875603 
L 90.439151 317.875603 
z
" style="fill:#1f77b4;"/>
   </g>
   <g id="patch_47">
    <path clip-path="url(#pe247b034f3)" d="M 91.265353 325.921635 
L 91.926314 325.921635 
L 91.926314 316.825106 
L 91.265353 316.825106 
z
" style="fill:#1f77b4;"/>
   </g>
   <g id="patch_48">
    <path clip-path="url(#pe247b034f3)" d="M 92.091555 325.921635 
L 92.752516 325.921635 
L 92.752516 316.436032 
L 92.091555 316.436032 
z
" style="fill:#1f77b4;"/>
   </g>
   <g id="patch_49">
    <path clip-path="url(#pe247b034f3)" d="M 92.917757 325.921635 
L 93.578718 325.921635 
L 93.578718 315.331065 
L 92.917757 315.331065 
z
" style="fill:#1f77b4;"/>
   </g>
   <g id="patch_50">
    <path clip-path="url(#pe247b034f3)" d="M 93.743959 325.921635 
L 94.40492 325.921635 
L 94.40492 314.303912 
L 93.743959 314.303912 
z
" style="fill:#1f77b4;"/>
   </g>
   <g id="patch_51">
    <path clip-path="url(#pe247b034f3)" d="M 94.570161 325.921635 
L 95.231122 325.921635 
L 95.231122 313.027752 
L 94.570161 313.027752 
z
" style="fill:#1f77b4;"/>
   </g>
   <g id="patch_52">
    <path clip-path="url(#pe247b034f3)" d="M 95.396362 325.921635 
L 96.057324 325.921635 
L 96.057324 310.117485 
L 95.396362 310.117485 
z
" style="fill:#1f77b4;"/>
   </g>
   <g id="patch_53">
    <path clip-path="url(#pe247b034f3)" d="M 96.222564 325.921635 
L 96.883526 325.921635 
L 96.883526 309.144802 
L 96.222564 309.144802 
z
" style="fill:#1f77b4;"/>
   </g>
   <g id="patch_54">
    <path clip-path="url(#pe247b034f3)" d="M 97.048766 325.921635 
L 97.709728 325.921635 
L 97.709728 307.705232 
L 97.048766 307.705232 
z
" style="fill:#1f77b4;"/>
   </g>
   <g id="patch_55">
    <path clip-path="url(#pe247b034f3)" d="M 97.874968 325.921635 
L 98.53593 325.921635 
L 98.53593 306.273443 
L 97.874968 306.273443 
z
" style="fill:#1f77b4;"/>
   </g>
   <g id="patch_56">
    <path clip-path="url(#pe247b034f3)" d="M 98.70117 325.921635 
L 99.362131 325.921635 
L 99.362131 304.312514 
L 98.70117 304.312514 
z
" style="fill:#1f77b4;"/>
   </g>
   <g id="patch_57">
    <path clip-path="url(#pe247b034f3)" d="M 99.527372 325.921635 
L 100.188333 325.921635 
L 100.188333 302.227082 
L 99.527372 302.227082 
z
" style="fill:#1f77b4;"/>
   </g>
   <g id="patch_58">
    <path clip-path="url(#pe247b034f3)" d="M 100.353574 325.921635 
L 101.014535 325.921635 
L 101.014535 299.76814 
L 100.353574 299.76814 
z
" style="fill:#1f77b4;"/>
   </g>
   <g id="patch_59">
    <path clip-path="url(#pe247b034f3)" d="M 101.179776 325.921635 
L 101.840737 325.921635 
L 101.840737 296.826747 
L 101.179776 296.826747 
z
" style="fill:#1f77b4;"/>
   </g>
   <g id="patch_60">
    <path clip-path="url(#pe247b034f3)" d="M 102.005977 325.921635 
L 102.666939 325.921635 
L 102.666939 294.305554 
L 102.005977 294.305554 
z
" style="fill:#1f77b4;"/>
   </g>
   <g id="patch_61">
    <path clip-path="url(#pe247b034f3)" d="M 102.832179 325.921635 
L 103.493141 325.921635 
L 103.493141 292.095618 
L 102.832179 292.095618 
z
" style="fill:#1f77b4;"/>
   </g>
   <g id="patch_62">
    <path clip-path="url(#pe247b034f3)" d="M 103.658381 325.921635 
L 104.319343 325.921635 
L 104.319343 288.679556 
L 103.658381 288.679556 
z
" style="fill:#1f77b4;"/>
   </g>
   <g id="patch_63">
    <path clip-path="url(#pe247b034f3)" d="M 104.484583 325.921635 
L 105.145545 325.921635 
L 105.145545 284.679885 
L 104.484583 284.679885 
z
" style="fill:#1f77b4;"/>
   </g>
   <g id="patch_64">
    <path clip-path="url(#pe247b034f3)" d="M 105.310785 325.921635 
L 105.971746 325.921635 
L 105.971746 280.493458 
L 105.310785 280.493458 
z
" style="fill:#1f77b4;"/>
   </g>
   <g id="patch_65">
    <path clip-path="url(#pe247b034f3)" d="M 106.136987 325.921635 
L 106.797948 325.921635 
L 106.797948 277.380873 
L 106.136987 277.380873 
z
" style="fill:#1f77b4;"/>
   </g>
   <g id="patch_66">
    <path clip-path="url(#pe247b034f3)" d="M 106.963189 325.921635 
L 107.62415 325.921635 
L 107.62415 272.369611 
L 106.963189 272.369611 
z
" style="fill:#1f77b4;"/>
   </g>
   <g id="patch_67">
    <path clip-path="url(#pe247b034f3)" d="M 107.789391 325.921635 
L 108.450352 325.921635 
L 108.450352 267.498416 
L 107.789391 267.498416 
z
" style="fill:#1f77b4;"/>
   </g>
   <g id="patch_68">
    <path clip-path="url(#pe247b034f3)" d="M 108.615592 325.921635 
L 109.276554 325.921635 
L 109.276554 265.047255 
L 108.615592 265.047255 
z
" style="fill:#1f77b4;"/>
   </g>
   <g id="patch_69">
    <path clip-path="url(#pe247b034f3)" d="M 109.441794 325.921635 
L 110.102756 325.921635 
L 110.102756 263.545433 
L 109.441794 263.545433 
z
" style="fill:#1f77b4;"/>
   </g>
   <g id="patch_70">
    <path clip-path="url(#pe247b034f3)" d="M 110.267996 325.921635 
L 110.928958 325.921635 
L 110.928958 256.518772 
L 110.267996 256.518772 
z
" style="fill:#1f77b4;"/>
   </g>
   <g id="patch_71">
    <path clip-path="url(#pe247b034f3)" d="M 111.094198 325.921635 
L 111.75516 325.921635 
L 111.75516 246.480686 
L 111.094198 246.480686 
z
" style="fill:#1f77b4;"/>
   </g>
   <g id="patch_72">
    <path clip-path="url(#pe247b034f3)" d="M 111.9204 325.921635 
L 112.581361 325.921635 
L 112.581361 239.298396 
L 111.9204 239.298396 
z
" style="fill:#1f77b4;"/>
   </g>
   <g id="patch_73">
    <path clip-path="url(#pe247b034f3)" d="M 112.746602 325.921635 
L 113.407563 325.921635 
L 113.407563 232.458491 
L 112.746602 232.458491 
z
" style="fill:#1f77b4;"/>
   </g>
   <g id="patch_74">
    <path clip-path="url(#pe247b034f3)" d="M 113.572804 325.921635 
L 114.233765 325.921635 
L 114.233765 225.836466 
L 113.572804 225.836466 
z
" style="fill:#1f77b4;"/>
   </g>
   <g id="patch_75">
    <path clip-path="url(#pe247b034f3)" d="M 114.399006 325.921635 
L 115.059967 325.921635 
L 115.059967 223.502028 
L 114.399006 223.502028 
z
" style="fill:#1f77b4;"/>
   </g>
   <g id="patch_76">
    <path clip-path="url(#pe247b034f3)" d="M 115.225207 325.921635 
L 115.886169 325.921635 
L 115.886169 219.354508 
L 115.225207 219.354508 
z
" style="fill:#1f77b4;"/>
   </g>
   <g id="patch_77">
    <path clip-path="url(#pe247b034f3)" d="M 116.051409 325.921635 
L 116.712371 325.921635 
L 116.712371 210.296886 
L 116.051409 210.296886 
z
" style="fill:#1f77b4;"/>
   </g>
   <g id="patch_78">
    <path clip-path="url(#pe247b034f3)" d="M 116.877611 325.921635 
L 117.538573 325.921635 
L 117.538573 201.278171 
L 116.877611 201.278171 
z
" style="fill:#1f77b4;"/>
   </g>
   <g id="patch_79">
    <path clip-path="url(#pe247b034f3)" d="M 117.703813 325.921635 
L 118.364775 325.921635 
L 118.364775 189.131309 
L 117.703813 189.131309 
z
" style="fill:#1f77b4;"/>
   </g>
   <g id="patch_80">
    <path clip-path="url(#pe247b034f3)" d="M 118.530015 325.921635 
L 119.190976 325.921635 
L 119.190976 181.349846 
L 118.530015 181.349846 
z
" style="fill:#1f77b4;"/>
   </g>
   <g id="patch_81">
    <path clip-path="url(#pe247b034f3)" d="M 119.356217 325.921635 
L 120.017178 325.921635 
L 120.017178 171.94984 
L 119.356217 171.94984 
z
" style="fill:#1f77b4;"/>
   </g>
   <g id="patch_82">
    <path clip-path="url(#pe247b034f3)" d="M 120.182419 325.921635 
L 120.84338 325.921635 
L 120.84338 167.880135 
L 120.182419 167.880135 
z
" style="fill:#1f77b4;"/>
   </g>
   <g id="patch_83">
    <path clip-path="url(#pe247b034f3)" d="M 121.008621 325.921635 
L 121.669582 325.921635 
L 121.669582 162.892218 
L 121.008621 162.892218 
z
" style="fill:#1f77b4;"/>
   </g>
   <g id="patch_84">
    <path clip-path="url(#pe247b034f3)" d="M 121.834822 325.921635 
L 122.495784 325.921635 
L 122.495784 151.212243 
L 121.834822 151.212243 
z
" style="fill:#1f77b4;"/>
   </g>
   <g id="patch_85">
    <path clip-path="url(#pe247b034f3)" d="M 122.661024 325.921635 
L 123.321986 325.921635 
L 123.321986 138.917532 
L 122.661024 138.917532 
z
" style="fill:#1f77b4;"/>
   </g>
   <g id="patch_86">
    <path clip-path="url(#pe247b034f3)" d="M 123.487226 325.921635 
L 124.148188 325.921635 
L 124.148188 128.505936 
L 123.487226 128.505936 
z
" style="fill:#1f77b4;"/>
   </g>
   <g id="patch_87">
    <path clip-path="url(#pe247b034f3)" d="M 124.313428 325.921635 
L 124.97439 325.921635 
L 124.97439 119.277121 
L 124.313428 119.277121 
z
" style="fill:#1f77b4;"/>
   </g>
   <g id="patch_88">
    <path clip-path="url(#pe247b034f3)" d="M 125.13963 325.921635 
L 125.800592 325.921635 
L 125.800592 112.289368 
L 125.13963 112.289368 
z
" style="fill:#1f77b4;"/>
   </g>
   <g id="patch_89">
    <path clip-path="url(#pe247b034f3)" d="M 125.965832 325.921635 
L 126.626793 325.921635 
L 126.626793 107.939531 
L 125.965832 107.939531 
z
" style="fill:#1f77b4;"/>
   </g>
   <g id="patch_90">
    <path clip-path="url(#pe247b034f3)" d="M 126.792034 325.921635 
L 127.452995 325.921635 
L 127.452995 102.842673 
L 126.792034 102.842673 
z
" style="fill:#1f77b4;"/>
   </g>
   <g id="patch_91">
    <path clip-path="url(#pe247b034f3)" d="M 127.618236 325.921635 
L 128.279197 325.921635 
L 128.279197 91.481738 
L 127.618236 91.481738 
z
" style="fill:#1f77b4;"/>
   </g>
   <g id="patch_92">
    <path clip-path="url(#pe247b034f3)" d="M 128.444438 325.921635 
L 129.105399 325.921635 
L 129.105399 79.155901 
L 128.444438 79.155901 
z
" style="fill:#1f77b4;"/>
   </g>
   <g id="patch_93">
    <path clip-path="url(#pe247b034f3)" d="M 129.270639 325.921635 
L 129.931601 325.921635 
L 129.931601 78.782391 
L 129.270639 78.782391 
z
" style="fill:#1f77b4;"/>
   </g>
   <g id="patch_94">
    <path clip-path="url(#pe247b034f3)" d="M 130.096841 325.921635 
L 130.757803 325.921635 
L 130.757803 52.846777 
L 130.096841 52.846777 
z
" style="fill:#1f77b4;"/>
   </g>
   <g id="patch_95">
    <path clip-path="url(#pe247b034f3)" d="M 130.923043 325.921635 
L 131.584005 325.921635 
L 131.584005 41.734849 
L 130.923043 41.734849 
z
" style="fill:#1f77b4;"/>
   </g>
   <g id="patch_96">
    <path clip-path="url(#pe247b034f3)" d="M 131.749245 325.921635 
L 132.410207 325.921635 
L 132.410207 39.688325 
L 131.749245 39.688325 
z
" style="fill:#1f77b4;"/>
   </g>
   <g id="matplotlib.axis_1">
    <g id="xtick_1">
     <g id="line2d_1">
      <defs>
       <path d="M 0 0 
L 0 3.5 
" id="m629bc20c69" style="stroke:#000000;stroke-width:0.8;"/>
      </defs>
      <g>
       <use style="stroke:#000000;stroke-width:0.8;" x="55.242951" xlink:href="#m629bc20c69" y="325.921635"/>
      </g>
     </g>
     <g id="text_1">
      <!-- 0 -->
      <defs>
       <path d="M 31.78125 66.40625 
Q 24.171875 66.40625 20.328125 58.90625 
Q 16.5 51.421875 16.5 36.375 
Q 16.5 21.390625 20.328125 13.890625 
Q 24.171875 6.390625 31.78125 6.390625 
Q 39.453125 6.390625 43.28125 13.890625 
Q 47.125 21.390625 47.125 36.375 
Q 47.125 51.421875 43.28125 58.90625 
Q 39.453125 66.40625 31.78125 66.40625 
z
M 31.78125 74.21875 
Q 44.046875 74.21875 50.515625 64.515625 
Q 56.984375 54.828125 56.984375 36.375 
Q 56.984375 17.96875 50.515625 8.265625 
Q 44.046875 -1.421875 31.78125 -1.421875 
Q 19.53125 -1.421875 13.0625 8.265625 
Q 6.59375 17.96875 6.59375 36.375 
Q 6.59375 54.828125 13.0625 64.515625 
Q 19.53125 74.21875 31.78125 74.21875 
z
" id="DejaVuSans-48"/>
      </defs>
      <g transform="translate(52.061701 340.520072)scale(0.1 -0.1)">
       <use xlink:href="#DejaVuSans-48"/>
      </g>
     </g>
    </g>
    <g id="xtick_2">
     <g id="line2d_2">
      <g>
       <use style="stroke:#000000;stroke-width:0.8;" x="96.553045" xlink:href="#m629bc20c69" y="325.921635"/>
      </g>
     </g>
     <g id="text_2">
      <!-- 50 -->
      <defs>
       <path d="M 10.796875 72.90625 
L 49.515625 72.90625 
L 49.515625 64.59375 
L 19.828125 64.59375 
L 19.828125 46.734375 
Q 21.96875 47.46875 24.109375 47.828125 
Q 26.265625 48.1875 28.421875 48.1875 
Q 40.625 48.1875 47.75 41.5 
Q 54.890625 34.8125 54.890625 23.390625 
Q 54.890625 11.625 47.5625 5.09375 
Q 40.234375 -1.421875 26.90625 -1.421875 
Q 22.3125 -1.421875 17.546875 -0.640625 
Q 12.796875 0.140625 7.71875 1.703125 
L 7.71875 11.625 
Q 12.109375 9.234375 16.796875 8.0625 
Q 21.484375 6.890625 26.703125 6.890625 
Q 35.15625 6.890625 40.078125 11.328125 
Q 45.015625 15.765625 45.015625 23.390625 
Q 45.015625 31 40.078125 35.4375 
Q 35.15625 39.890625 26.703125 39.890625 
Q 22.75 39.890625 18.8125 39.015625 
Q 14.890625 38.140625 10.796875 36.28125 
z
" id="DejaVuSans-53"/>
      </defs>
      <g transform="translate(90.190545 340.520072)scale(0.1 -0.1)">
       <use xlink:href="#DejaVuSans-53"/>
       <use x="63.623047" xlink:href="#DejaVuSans-48"/>
      </g>
     </g>
    </g>
   </g>
   <g id="matplotlib.axis_2">
    <g id="ytick_1">
     <g id="line2d_3">
      <defs>
       <path d="M 0 0 
L -3.5 0 
" id="m7eea989431" style="stroke:#000000;stroke-width:0.8;"/>
      </defs>
      <g>
       <use style="stroke:#000000;stroke-width:0.8;" x="51.037584" xlink:href="#m7eea989431" y="325.921635"/>
      </g>
     </g>
     <g id="text_3">
      <!-- 0 -->
      <g transform="translate(37.675084 329.720854)scale(0.1 -0.1)">
       <use xlink:href="#DejaVuSans-48"/>
      </g>
     </g>
    </g>
    <g id="ytick_2">
     <g id="line2d_4">
      <g>
       <use style="stroke:#000000;stroke-width:0.8;" x="51.037584" xlink:href="#m7eea989431" y="287.014323"/>
      </g>
     </g>
     <g id="text_4">
      <!-- 5000 -->
      <g transform="translate(18.587584 290.813542)scale(0.1 -0.1)">
       <use xlink:href="#DejaVuSans-53"/>
       <use x="63.623047" xlink:href="#DejaVuSans-48"/>
       <use x="127.246094" xlink:href="#DejaVuSans-48"/>
       <use x="190.869141" xlink:href="#DejaVuSans-48"/>
      </g>
     </g>
    </g>
    <g id="ytick_3">
     <g id="line2d_5">
      <g>
       <use style="stroke:#000000;stroke-width:0.8;" x="51.037584" xlink:href="#m7eea989431" y="248.107012"/>
      </g>
     </g>
     <g id="text_5">
      <!-- 10000 -->
      <defs>
       <path d="M 12.40625 8.296875 
L 28.515625 8.296875 
L 28.515625 63.921875 
L 10.984375 60.40625 
L 10.984375 69.390625 
L 28.421875 72.90625 
L 38.28125 72.90625 
L 38.28125 8.296875 
L 54.390625 8.296875 
L 54.390625 0 
L 12.40625 0 
z
" id="DejaVuSans-49"/>
      </defs>
      <g transform="translate(12.225084 251.90623)scale(0.1 -0.1)">
       <use xlink:href="#DejaVuSans-49"/>
       <use x="63.623047" xlink:href="#DejaVuSans-48"/>
       <use x="127.246094" xlink:href="#DejaVuSans-48"/>
       <use x="190.869141" xlink:href="#DejaVuSans-48"/>
       <use x="254.492188" xlink:href="#DejaVuSans-48"/>
      </g>
     </g>
    </g>
    <g id="ytick_4">
     <g id="line2d_6">
      <g>
       <use style="stroke:#000000;stroke-width:0.8;" x="51.037584" xlink:href="#m7eea989431" y="209.1997"/>
      </g>
     </g>
     <g id="text_6">
      <!-- 15000 -->
      <g transform="translate(12.225084 212.998919)scale(0.1 -0.1)">
       <use xlink:href="#DejaVuSans-49"/>
       <use x="63.623047" xlink:href="#DejaVuSans-53"/>
       <use x="127.246094" xlink:href="#DejaVuSans-48"/>
       <use x="190.869141" xlink:href="#DejaVuSans-48"/>
       <use x="254.492188" xlink:href="#DejaVuSans-48"/>
      </g>
     </g>
    </g>
    <g id="ytick_5">
     <g id="line2d_7">
      <g>
       <use style="stroke:#000000;stroke-width:0.8;" x="51.037584" xlink:href="#m7eea989431" y="170.292388"/>
      </g>
     </g>
     <g id="text_7">
      <!-- 20000 -->
      <defs>
       <path d="M 19.1875 8.296875 
L 53.609375 8.296875 
L 53.609375 0 
L 7.328125 0 
L 7.328125 8.296875 
Q 12.9375 14.109375 22.625 23.890625 
Q 32.328125 33.6875 34.8125 36.53125 
Q 39.546875 41.84375 41.421875 45.53125 
Q 43.3125 49.21875 43.3125 52.78125 
Q 43.3125 58.59375 39.234375 62.25 
Q 35.15625 65.921875 28.609375 65.921875 
Q 23.96875 65.921875 18.8125 64.3125 
Q 13.671875 62.703125 7.8125 59.421875 
L 7.8125 69.390625 
Q 13.765625 71.78125 18.9375 73 
Q 24.125 74.21875 28.421875 74.21875 
Q 39.75 74.21875 46.484375 68.546875 
Q 53.21875 62.890625 53.21875 53.421875 
Q 53.21875 48.921875 51.53125 44.890625 
Q 49.859375 40.875 45.40625 35.40625 
Q 44.1875 33.984375 37.640625 27.21875 
Q 31.109375 20.453125 19.1875 8.296875 
z
" id="DejaVuSans-50"/>
      </defs>
      <g transform="translate(12.225084 174.091607)scale(0.1 -0.1)">
       <use xlink:href="#DejaVuSans-50"/>
       <use x="63.623047" xlink:href="#DejaVuSans-48"/>
       <use x="127.246094" xlink:href="#DejaVuSans-48"/>
       <use x="190.869141" xlink:href="#DejaVuSans-48"/>
       <use x="254.492188" xlink:href="#DejaVuSans-48"/>
      </g>
     </g>
    </g>
    <g id="ytick_6">
     <g id="line2d_8">
      <g>
       <use style="stroke:#000000;stroke-width:0.8;" x="51.037584" xlink:href="#m7eea989431" y="131.385077"/>
      </g>
     </g>
     <g id="text_8">
      <!-- 25000 -->
      <g transform="translate(12.225084 135.184295)scale(0.1 -0.1)">
       <use xlink:href="#DejaVuSans-50"/>
       <use x="63.623047" xlink:href="#DejaVuSans-53"/>
       <use x="127.246094" xlink:href="#DejaVuSans-48"/>
       <use x="190.869141" xlink:href="#DejaVuSans-48"/>
       <use x="254.492188" xlink:href="#DejaVuSans-48"/>
      </g>
     </g>
    </g>
    <g id="ytick_7">
     <g id="line2d_9">
      <g>
       <use style="stroke:#000000;stroke-width:0.8;" x="51.037584" xlink:href="#m7eea989431" y="92.477765"/>
      </g>
     </g>
     <g id="text_9">
      <!-- 30000 -->
      <defs>
       <path d="M 40.578125 39.3125 
Q 47.65625 37.796875 51.625 33 
Q 55.609375 28.21875 55.609375 21.1875 
Q 55.609375 10.40625 48.1875 4.484375 
Q 40.765625 -1.421875 27.09375 -1.421875 
Q 22.515625 -1.421875 17.65625 -0.515625 
Q 12.796875 0.390625 7.625 2.203125 
L 7.625 11.71875 
Q 11.71875 9.328125 16.59375 8.109375 
Q 21.484375 6.890625 26.8125 6.890625 
Q 36.078125 6.890625 40.9375 10.546875 
Q 45.796875 14.203125 45.796875 21.1875 
Q 45.796875 27.640625 41.28125 31.265625 
Q 36.765625 34.90625 28.71875 34.90625 
L 20.21875 34.90625 
L 20.21875 43.015625 
L 29.109375 43.015625 
Q 36.375 43.015625 40.234375 45.921875 
Q 44.09375 48.828125 44.09375 54.296875 
Q 44.09375 59.90625 40.109375 62.90625 
Q 36.140625 65.921875 28.71875 65.921875 
Q 24.65625 65.921875 20.015625 65.03125 
Q 15.375 64.15625 9.8125 62.3125 
L 9.8125 71.09375 
Q 15.4375 72.65625 20.34375 73.4375 
Q 25.25 74.21875 29.59375 74.21875 
Q 40.828125 74.21875 47.359375 69.109375 
Q 53.90625 64.015625 53.90625 55.328125 
Q 53.90625 49.265625 50.4375 45.09375 
Q 46.96875 40.921875 40.578125 39.3125 
z
" id="DejaVuSans-51"/>
      </defs>
      <g transform="translate(12.225084 96.276984)scale(0.1 -0.1)">
       <use xlink:href="#DejaVuSans-51"/>
       <use x="63.623047" xlink:href="#DejaVuSans-48"/>
       <use x="127.246094" xlink:href="#DejaVuSans-48"/>
       <use x="190.869141" xlink:href="#DejaVuSans-48"/>
       <use x="254.492188" xlink:href="#DejaVuSans-48"/>
      </g>
     </g>
    </g>
    <g id="ytick_8">
     <g id="line2d_10">
      <g>
       <use style="stroke:#000000;stroke-width:0.8;" x="51.037584" xlink:href="#m7eea989431" y="53.570453"/>
      </g>
     </g>
     <g id="text_10">
      <!-- 35000 -->
      <g transform="translate(12.225084 57.369672)scale(0.1 -0.1)">
       <use xlink:href="#DejaVuSans-51"/>
       <use x="63.623047" xlink:href="#DejaVuSans-53"/>
       <use x="127.246094" xlink:href="#DejaVuSans-48"/>
       <use x="190.869141" xlink:href="#DejaVuSans-48"/>
       <use x="254.492188" xlink:href="#DejaVuSans-48"/>
      </g>
     </g>
    </g>
   </g>
   <g id="line2d_11">
    <path clip-path="url(#pe247b034f3)" d="M 55.242951 325.907793 
L 56.069153 325.903415 
L 56.895355 325.897458 
L 57.721557 325.889923 
L 58.547759 325.880725 
L 59.373961 325.869829 
L 60.200162 325.857254 
L 61.026364 325.843068 
L 61.852566 325.827347 
L 62.678768 325.810118 
L 63.50497 325.791288 
L 64.331172 325.770618 
L 65.157374 325.747695 
L 65.983576 325.721842 
L 66.809777 325.692074 
L 67.635979 325.657237 
L 68.462181 325.616119 
L 69.288383 325.567502 
L 70.114585 325.510229 
L 70.940787 325.443294 
L 71.766989 325.366114 
L 72.593191 325.278541 
L 73.419392 325.180633 
L 74.245594 325.072535 
L 75.071796 324.954319 
L 75.897998 324.82593 
L 76.7242 324.686975 
L 77.550402 324.536188 
L 78.376604 324.371468 
L 79.202806 324.189986 
L 80.029007 323.988053 
L 80.855209 323.761438 
L 81.681411 323.505198 
L 82.507613 323.214039 
L 83.333815 322.882998 
L 84.160017 322.507304 
L 84.986219 322.082619 
L 85.812421 321.604797 
L 86.638622 321.069794 
L 87.464824 320.474167 
L 88.291026 319.814347 
L 89.117228 319.086069 
L 89.94343 318.284374 
L 90.769632 317.403001 
L 91.595834 316.436266 
L 92.422036 315.378288 
L 93.248238 314.222422 
L 94.074439 312.961783 
L 94.900641 311.589199 
L 95.726843 310.097106 
L 96.553045 308.478507 
L 97.379247 306.723831 
L 98.205449 304.821877 
L 99.031651 302.760461 
L 99.857853 300.528403 
L 100.684054 298.115919 
L 101.510256 295.513699 
L 102.336458 292.710707 
L 103.16266 289.696818 
L 103.988862 286.463146 
L 104.815064 283.001591 
L 105.641266 279.299303 
L 106.467468 275.339427 
L 107.293669 271.106652 
L 108.119871 266.589907 
L 108.946073 261.781679 
L 109.772275 256.676755 
L 110.598477 251.271367 
L 111.424679 245.569373 
L 112.250881 239.580765 
L 113.077083 233.312595 
L 113.903284 226.771088 
L 114.729486 219.960795 
L 115.555688 212.887857 
L 116.38189 205.562305 
L 117.208092 197.994961 
L 118.034294 190.19957 
L 118.860496 182.200589 
L 119.686698 174.030699 
L 120.512899 165.725231 
L 121.339101 157.314698 
L 122.165303 148.823888 
L 122.991505 140.263369 
L 123.817707 131.626765 
L 124.643909 122.890562 
L 125.470111 114.00141 
L 126.296313 104.895689 
L 127.122515 95.513115 
L 127.948716 85.811197 
L 128.774918 75.760805 
L 129.60112 65.353454 
L 130.427322 54.709046 
L 131.253524 43.840154 
L 132.079726 32.775664 
" style="fill:none;stroke:#ff0000;stroke-linecap:square;stroke-width:1.5;"/>
   </g>
   <g id="patch_97">
    <path d="M 51.037584 325.921635 
L 51.037584 18.118365 
" style="fill:none;stroke:#000000;stroke-linecap:square;stroke-linejoin:miter;stroke-width:0.8;"/>
   </g>
   <g id="patch_98">
    <path d="M 136.285093 325.921635 
L 136.285093 18.118365 
" style="fill:none;stroke:#000000;stroke-linecap:square;stroke-linejoin:miter;stroke-width:0.8;"/>
   </g>
   <g id="patch_99">
    <path d="M 51.037584 325.921635 
L 136.285093 325.921635 
" style="fill:none;stroke:#000000;stroke-linecap:square;stroke-linejoin:miter;stroke-width:0.8;"/>
   </g>
   <g id="patch_100">
    <path d="M 51.037584 18.118365 
L 136.285093 18.118365 
" style="fill:none;stroke:#000000;stroke-linecap:square;stroke-linejoin:miter;stroke-width:0.8;"/>
   </g>
   <g id="text_11">
    <!-- Casos acumulados - PB - (data) -->
    <defs>
     <path d="M 64.40625 67.28125 
L 64.40625 56.890625 
Q 59.421875 61.53125 53.78125 63.8125 
Q 48.140625 66.109375 41.796875 66.109375 
Q 29.296875 66.109375 22.65625 58.46875 
Q 16.015625 50.828125 16.015625 36.375 
Q 16.015625 21.96875 22.65625 14.328125 
Q 29.296875 6.6875 41.796875 6.6875 
Q 48.140625 6.6875 53.78125 8.984375 
Q 59.421875 11.28125 64.40625 15.921875 
L 64.40625 5.609375 
Q 59.234375 2.09375 53.4375 0.328125 
Q 47.65625 -1.421875 41.21875 -1.421875 
Q 24.65625 -1.421875 15.125 8.703125 
Q 5.609375 18.84375 5.609375 36.375 
Q 5.609375 53.953125 15.125 64.078125 
Q 24.65625 74.21875 41.21875 74.21875 
Q 47.75 74.21875 53.53125 72.484375 
Q 59.328125 70.75 64.40625 67.28125 
z
" id="DejaVuSans-67"/>
     <path d="M 34.28125 27.484375 
Q 23.390625 27.484375 19.1875 25 
Q 14.984375 22.515625 14.984375 16.5 
Q 14.984375 11.71875 18.140625 8.90625 
Q 21.296875 6.109375 26.703125 6.109375 
Q 34.1875 6.109375 38.703125 11.40625 
Q 43.21875 16.703125 43.21875 25.484375 
L 43.21875 27.484375 
z
M 52.203125 31.203125 
L 52.203125 0 
L 43.21875 0 
L 43.21875 8.296875 
Q 40.140625 3.328125 35.546875 0.953125 
Q 30.953125 -1.421875 24.3125 -1.421875 
Q 15.921875 -1.421875 10.953125 3.296875 
Q 6 8.015625 6 15.921875 
Q 6 25.140625 12.171875 29.828125 
Q 18.359375 34.515625 30.609375 34.515625 
L 43.21875 34.515625 
L 43.21875 35.40625 
Q 43.21875 41.609375 39.140625 45 
Q 35.0625 48.390625 27.6875 48.390625 
Q 23 48.390625 18.546875 47.265625 
Q 14.109375 46.140625 10.015625 43.890625 
L 10.015625 52.203125 
Q 14.9375 54.109375 19.578125 55.046875 
Q 24.21875 56 28.609375 56 
Q 40.484375 56 46.34375 49.84375 
Q 52.203125 43.703125 52.203125 31.203125 
z
" id="DejaVuSans-97"/>
     <path d="M 44.28125 53.078125 
L 44.28125 44.578125 
Q 40.484375 46.53125 36.375 47.5 
Q 32.28125 48.484375 27.875 48.484375 
Q 21.1875 48.484375 17.84375 46.4375 
Q 14.5 44.390625 14.5 40.28125 
Q 14.5 37.15625 16.890625 35.375 
Q 19.28125 33.59375 26.515625 31.984375 
L 29.59375 31.296875 
Q 39.15625 29.25 43.1875 25.515625 
Q 47.21875 21.78125 47.21875 15.09375 
Q 47.21875 7.46875 41.1875 3.015625 
Q 35.15625 -1.421875 24.609375 -1.421875 
Q 20.21875 -1.421875 15.453125 -0.5625 
Q 10.6875 0.296875 5.421875 2 
L 5.421875 11.28125 
Q 10.40625 8.6875 15.234375 7.390625 
Q 20.0625 6.109375 24.8125 6.109375 
Q 31.15625 6.109375 34.5625 8.28125 
Q 37.984375 10.453125 37.984375 14.40625 
Q 37.984375 18.0625 35.515625 20.015625 
Q 33.0625 21.96875 24.703125 23.78125 
L 21.578125 24.515625 
Q 13.234375 26.265625 9.515625 29.90625 
Q 5.8125 33.546875 5.8125 39.890625 
Q 5.8125 47.609375 11.28125 51.796875 
Q 16.75 56 26.8125 56 
Q 31.78125 56 36.171875 55.265625 
Q 40.578125 54.546875 44.28125 53.078125 
z
" id="DejaVuSans-115"/>
     <path d="M 30.609375 48.390625 
Q 23.390625 48.390625 19.1875 42.75 
Q 14.984375 37.109375 14.984375 27.296875 
Q 14.984375 17.484375 19.15625 11.84375 
Q 23.34375 6.203125 30.609375 6.203125 
Q 37.796875 6.203125 41.984375 11.859375 
Q 46.1875 17.53125 46.1875 27.296875 
Q 46.1875 37.015625 41.984375 42.703125 
Q 37.796875 48.390625 30.609375 48.390625 
z
M 30.609375 56 
Q 42.328125 56 49.015625 48.375 
Q 55.71875 40.765625 55.71875 27.296875 
Q 55.71875 13.875 49.015625 6.21875 
Q 42.328125 -1.421875 30.609375 -1.421875 
Q 18.84375 -1.421875 12.171875 6.21875 
Q 5.515625 13.875 5.515625 27.296875 
Q 5.515625 40.765625 12.171875 48.375 
Q 18.84375 56 30.609375 56 
z
" id="DejaVuSans-111"/>
     <path id="DejaVuSans-32"/>
     <path d="M 48.78125 52.59375 
L 48.78125 44.1875 
Q 44.96875 46.296875 41.140625 47.34375 
Q 37.3125 48.390625 33.40625 48.390625 
Q 24.65625 48.390625 19.8125 42.84375 
Q 14.984375 37.3125 14.984375 27.296875 
Q 14.984375 17.28125 19.8125 11.734375 
Q 24.65625 6.203125 33.40625 6.203125 
Q 37.3125 6.203125 41.140625 7.25 
Q 44.96875 8.296875 48.78125 10.40625 
L 48.78125 2.09375 
Q 45.015625 0.34375 40.984375 -0.53125 
Q 36.96875 -1.421875 32.421875 -1.421875 
Q 20.0625 -1.421875 12.78125 6.34375 
Q 5.515625 14.109375 5.515625 27.296875 
Q 5.515625 40.671875 12.859375 48.328125 
Q 20.21875 56 33.015625 56 
Q 37.15625 56 41.109375 55.140625 
Q 45.0625 54.296875 48.78125 52.59375 
z
" id="DejaVuSans-99"/>
     <path d="M 8.5 21.578125 
L 8.5 54.6875 
L 17.484375 54.6875 
L 17.484375 21.921875 
Q 17.484375 14.15625 20.5 10.265625 
Q 23.53125 6.390625 29.59375 6.390625 
Q 36.859375 6.390625 41.078125 11.03125 
Q 45.3125 15.671875 45.3125 23.6875 
L 45.3125 54.6875 
L 54.296875 54.6875 
L 54.296875 0 
L 45.3125 0 
L 45.3125 8.40625 
Q 42.046875 3.421875 37.71875 1 
Q 33.40625 -1.421875 27.6875 -1.421875 
Q 18.265625 -1.421875 13.375 4.4375 
Q 8.5 10.296875 8.5 21.578125 
z
M 31.109375 56 
z
" id="DejaVuSans-117"/>
     <path d="M 52 44.1875 
Q 55.375 50.25 60.0625 53.125 
Q 64.75 56 71.09375 56 
Q 79.640625 56 84.28125 50.015625 
Q 88.921875 44.046875 88.921875 33.015625 
L 88.921875 0 
L 79.890625 0 
L 79.890625 32.71875 
Q 79.890625 40.578125 77.09375 44.375 
Q 74.3125 48.1875 68.609375 48.1875 
Q 61.625 48.1875 57.5625 43.546875 
Q 53.515625 38.921875 53.515625 30.90625 
L 53.515625 0 
L 44.484375 0 
L 44.484375 32.71875 
Q 44.484375 40.625 41.703125 44.40625 
Q 38.921875 48.1875 33.109375 48.1875 
Q 26.21875 48.1875 22.15625 43.53125 
Q 18.109375 38.875 18.109375 30.90625 
L 18.109375 0 
L 9.078125 0 
L 9.078125 54.6875 
L 18.109375 54.6875 
L 18.109375 46.1875 
Q 21.1875 51.21875 25.484375 53.609375 
Q 29.78125 56 35.6875 56 
Q 41.65625 56 45.828125 52.96875 
Q 50 49.953125 52 44.1875 
z
" id="DejaVuSans-109"/>
     <path d="M 9.421875 75.984375 
L 18.40625 75.984375 
L 18.40625 0 
L 9.421875 0 
z
" id="DejaVuSans-108"/>
     <path d="M 45.40625 46.390625 
L 45.40625 75.984375 
L 54.390625 75.984375 
L 54.390625 0 
L 45.40625 0 
L 45.40625 8.203125 
Q 42.578125 3.328125 38.25 0.953125 
Q 33.9375 -1.421875 27.875 -1.421875 
Q 17.96875 -1.421875 11.734375 6.484375 
Q 5.515625 14.40625 5.515625 27.296875 
Q 5.515625 40.1875 11.734375 48.09375 
Q 17.96875 56 27.875 56 
Q 33.9375 56 38.25 53.625 
Q 42.578125 51.265625 45.40625 46.390625 
z
M 14.796875 27.296875 
Q 14.796875 17.390625 18.875 11.75 
Q 22.953125 6.109375 30.078125 6.109375 
Q 37.203125 6.109375 41.296875 11.75 
Q 45.40625 17.390625 45.40625 27.296875 
Q 45.40625 37.203125 41.296875 42.84375 
Q 37.203125 48.484375 30.078125 48.484375 
Q 22.953125 48.484375 18.875 42.84375 
Q 14.796875 37.203125 14.796875 27.296875 
z
" id="DejaVuSans-100"/>
     <path d="M 4.890625 31.390625 
L 31.203125 31.390625 
L 31.203125 23.390625 
L 4.890625 23.390625 
z
" id="DejaVuSans-45"/>
     <path d="M 19.671875 64.796875 
L 19.671875 37.40625 
L 32.078125 37.40625 
Q 38.96875 37.40625 42.71875 40.96875 
Q 46.484375 44.53125 46.484375 51.125 
Q 46.484375 57.671875 42.71875 61.234375 
Q 38.96875 64.796875 32.078125 64.796875 
z
M 9.8125 72.90625 
L 32.078125 72.90625 
Q 44.34375 72.90625 50.609375 67.359375 
Q 56.890625 61.8125 56.890625 51.125 
Q 56.890625 40.328125 50.609375 34.8125 
Q 44.34375 29.296875 32.078125 29.296875 
L 19.671875 29.296875 
L 19.671875 0 
L 9.8125 0 
z
" id="DejaVuSans-80"/>
     <path d="M 19.671875 34.8125 
L 19.671875 8.109375 
L 35.5 8.109375 
Q 43.453125 8.109375 47.28125 11.40625 
Q 51.125 14.703125 51.125 21.484375 
Q 51.125 28.328125 47.28125 31.5625 
Q 43.453125 34.8125 35.5 34.8125 
z
M 19.671875 64.796875 
L 19.671875 42.828125 
L 34.28125 42.828125 
Q 41.5 42.828125 45.03125 45.53125 
Q 48.578125 48.25 48.578125 53.8125 
Q 48.578125 59.328125 45.03125 62.0625 
Q 41.5 64.796875 34.28125 64.796875 
z
M 9.8125 72.90625 
L 35.015625 72.90625 
Q 46.296875 72.90625 52.390625 68.21875 
Q 58.5 63.53125 58.5 54.890625 
Q 58.5 48.1875 55.375 44.234375 
Q 52.25 40.28125 46.1875 39.3125 
Q 53.46875 37.75 57.5 32.78125 
Q 61.53125 27.828125 61.53125 20.40625 
Q 61.53125 10.640625 54.890625 5.3125 
Q 48.25 0 35.984375 0 
L 9.8125 0 
z
" id="DejaVuSans-66"/>
     <path d="M 31 75.875 
Q 24.46875 64.65625 21.28125 53.65625 
Q 18.109375 42.671875 18.109375 31.390625 
Q 18.109375 20.125 21.3125 9.0625 
Q 24.515625 -2 31 -13.1875 
L 23.1875 -13.1875 
Q 15.875 -1.703125 12.234375 9.375 
Q 8.59375 20.453125 8.59375 31.390625 
Q 8.59375 42.28125 12.203125 53.3125 
Q 15.828125 64.359375 23.1875 75.875 
z
" id="DejaVuSans-40"/>
     <path d="M 18.3125 70.21875 
L 18.3125 54.6875 
L 36.8125 54.6875 
L 36.8125 47.703125 
L 18.3125 47.703125 
L 18.3125 18.015625 
Q 18.3125 11.328125 20.140625 9.421875 
Q 21.96875 7.515625 27.59375 7.515625 
L 36.8125 7.515625 
L 36.8125 0 
L 27.59375 0 
Q 17.1875 0 13.234375 3.875 
Q 9.28125 7.765625 9.28125 18.015625 
L 9.28125 47.703125 
L 2.6875 47.703125 
L 2.6875 54.6875 
L 9.28125 54.6875 
L 9.28125 70.21875 
z
" id="DejaVuSans-116"/>
     <path d="M 8.015625 75.875 
L 15.828125 75.875 
Q 23.140625 64.359375 26.78125 53.3125 
Q 30.421875 42.28125 30.421875 31.390625 
Q 30.421875 20.453125 26.78125 9.375 
Q 23.140625 -1.703125 15.828125 -13.1875 
L 8.015625 -13.1875 
Q 14.5 -2 17.703125 9.0625 
Q 20.90625 20.125 20.90625 31.390625 
Q 20.90625 42.671875 17.703125 53.65625 
Q 14.5 64.65625 8.015625 75.875 
z
" id="DejaVuSans-41"/>
    </defs>
    <g transform="translate(-0.297724 12.118365)scale(0.12 -0.12)">
     <use xlink:href="#DejaVuSans-67"/>
     <use x="69.824219" xlink:href="#DejaVuSans-97"/>
     <use x="131.103516" xlink:href="#DejaVuSans-115"/>
     <use x="183.203125" xlink:href="#DejaVuSans-111"/>
     <use x="244.384766" xlink:href="#DejaVuSans-115"/>
     <use x="296.484375" xlink:href="#DejaVuSans-32"/>
     <use x="328.271484" xlink:href="#DejaVuSans-97"/>
     <use x="389.550781" xlink:href="#DejaVuSans-99"/>
     <use x="444.53125" xlink:href="#DejaVuSans-117"/>
     <use x="507.910156" xlink:href="#DejaVuSans-109"/>
     <use x="605.322266" xlink:href="#DejaVuSans-117"/>
     <use x="668.701172" xlink:href="#DejaVuSans-108"/>
     <use x="696.484375" xlink:href="#DejaVuSans-97"/>
     <use x="757.763672" xlink:href="#DejaVuSans-100"/>
     <use x="821.240234" xlink:href="#DejaVuSans-111"/>
     <use x="882.421875" xlink:href="#DejaVuSans-115"/>
     <use x="934.521484" xlink:href="#DejaVuSans-32"/>
     <use x="966.308594" xlink:href="#DejaVuSans-45"/>
     <use x="1002.392578" xlink:href="#DejaVuSans-32"/>
     <use x="1034.179688" xlink:href="#DejaVuSans-80"/>
     <use x="1094.482422" xlink:href="#DejaVuSans-66"/>
     <use x="1163.085938" xlink:href="#DejaVuSans-32"/>
     <use x="1194.873047" xlink:href="#DejaVuSans-45"/>
     <use x="1230.957031" xlink:href="#DejaVuSans-32"/>
     <use x="1262.744141" xlink:href="#DejaVuSans-40"/>
     <use x="1301.757812" xlink:href="#DejaVuSans-100"/>
     <use x="1365.234375" xlink:href="#DejaVuSans-97"/>
     <use x="1426.513672" xlink:href="#DejaVuSans-116"/>
     <use x="1465.722656" xlink:href="#DejaVuSans-97"/>
     <use x="1527.001953" xlink:href="#DejaVuSans-41"/>
    </g>
   </g>
  </g>
  <g id="axes_2">
   <g id="patch_101">
    <path d="M 225.844917 325.921635 
L 311.092427 325.921635 
L 311.092427 18.118365 
L 225.844917 18.118365 
z
" style="fill:#ffffff;"/>
   </g>
   <g id="patch_102">
    <path clip-path="url(#pab10fcd597)" d="M 229.719804 325.921635 
L 230.380765 325.921635 
L 230.380765 325.921635 
L 229.719804 325.921635 
z
" style="fill:#1f77b4;"/>
   </g>
   <g id="patch_103">
    <path clip-path="url(#pab10fcd597)" d="M 230.546006 325.921635 
L 231.206967 325.921635 
L 231.206967 325.921635 
L 230.546006 325.921635 
z
" style="fill:#1f77b4;"/>
   </g>
   <g id="patch_104">
    <path clip-path="url(#pab10fcd597)" d="M 231.372207 325.921635 
L 232.033169 325.921635 
L 232.033169 325.921635 
L 231.372207 325.921635 
z
" style="fill:#1f77b4;"/>
   </g>
   <g id="patch_105">
    <path clip-path="url(#pab10fcd597)" d="M 232.198409 325.921635 
L 232.859371 325.921635 
L 232.859371 325.833682 
L 232.198409 325.833682 
z
" style="fill:#1f77b4;"/>
   </g>
   <g id="patch_106">
    <path clip-path="url(#pab10fcd597)" d="M 233.024611 325.921635 
L 233.685573 325.921635 
L 233.685573 325.833682 
L 233.024611 325.833682 
z
" style="fill:#1f77b4;"/>
   </g>
   <g id="patch_107">
    <path clip-path="url(#pab10fcd597)" d="M 233.850813 325.921635 
L 234.511775 325.921635 
L 234.511775 325.921635 
L 233.850813 325.921635 
z
" style="fill:#1f77b4;"/>
   </g>
   <g id="patch_108">
    <path clip-path="url(#pab10fcd597)" d="M 234.677015 325.921635 
L 235.337976 325.921635 
L 235.337976 325.74573 
L 234.677015 325.74573 
z
" style="fill:#1f77b4;"/>
   </g>
   <g id="patch_109">
    <path clip-path="url(#pab10fcd597)" d="M 235.503217 325.921635 
L 236.164178 325.921635 
L 236.164178 325.569825 
L 235.503217 325.569825 
z
" style="fill:#1f77b4;"/>
   </g>
   <g id="patch_110">
    <path clip-path="url(#pab10fcd597)" d="M 236.329419 325.921635 
L 236.99038 325.921635 
L 236.99038 325.481872 
L 236.329419 325.481872 
z
" style="fill:#1f77b4;"/>
   </g>
   <g id="patch_111">
    <path clip-path="url(#pab10fcd597)" d="M 237.155621 325.921635 
L 237.816582 325.921635 
L 237.816582 325.921635 
L 237.155621 325.921635 
z
" style="fill:#1f77b4;"/>
   </g>
   <g id="patch_112">
    <path clip-path="url(#pab10fcd597)" d="M 237.981822 325.921635 
L 238.642784 325.921635 
L 238.642784 325.833682 
L 237.981822 325.833682 
z
" style="fill:#1f77b4;"/>
   </g>
   <g id="patch_113">
    <path clip-path="url(#pab10fcd597)" d="M 238.808024 325.921635 
L 239.468986 325.921635 
L 239.468986 325.74573 
L 238.808024 325.74573 
z
" style="fill:#1f77b4;"/>
   </g>
   <g id="patch_114">
    <path clip-path="url(#pab10fcd597)" d="M 239.634226 325.921635 
L 240.295188 325.921635 
L 240.295188 325.657777 
L 239.634226 325.657777 
z
" style="fill:#1f77b4;"/>
   </g>
   <g id="patch_115">
    <path clip-path="url(#pab10fcd597)" d="M 240.460428 325.921635 
L 241.12139 325.921635 
L 241.12139 325.833682 
L 240.460428 325.833682 
z
" style="fill:#1f77b4;"/>
   </g>
   <g id="patch_116">
    <path clip-path="url(#pab10fcd597)" d="M 241.28663 325.921635 
L 241.947591 325.921635 
L 241.947591 325.218014 
L 241.28663 325.218014 
z
" style="fill:#1f77b4;"/>
   </g>
   <g id="patch_117">
    <path clip-path="url(#pab10fcd597)" d="M 242.112832 325.921635 
L 242.773793 325.921635 
L 242.773793 325.657777 
L 242.112832 325.657777 
z
" style="fill:#1f77b4;"/>
   </g>
   <g id="patch_118">
    <path clip-path="url(#pab10fcd597)" d="M 242.939034 325.921635 
L 243.599995 325.921635 
L 243.599995 325.74573 
L 242.939034 325.74573 
z
" style="fill:#1f77b4;"/>
   </g>
   <g id="patch_119">
    <path clip-path="url(#pab10fcd597)" d="M 243.765236 325.921635 
L 244.426197 325.921635 
L 244.426197 325.833682 
L 243.765236 325.833682 
z
" style="fill:#1f77b4;"/>
   </g>
   <g id="patch_120">
    <path clip-path="url(#pab10fcd597)" d="M 244.591438 325.921635 
L 245.252399 325.921635 
L 245.252399 325.833682 
L 244.591438 325.833682 
z
" style="fill:#1f77b4;"/>
   </g>
   <g id="patch_121">
    <path clip-path="url(#pab10fcd597)" d="M 245.417639 325.921635 
L 246.078601 325.921635 
L 246.078601 325.481872 
L 245.417639 325.481872 
z
" style="fill:#1f77b4;"/>
   </g>
   <g id="patch_122">
    <path clip-path="url(#pab10fcd597)" d="M 246.243841 325.921635 
L 246.904803 325.921635 
L 246.904803 324.690299 
L 246.243841 324.690299 
z
" style="fill:#1f77b4;"/>
   </g>
   <g id="patch_123">
    <path clip-path="url(#pab10fcd597)" d="M 247.070043 325.921635 
L 247.731005 325.921635 
L 247.731005 323.810773 
L 247.070043 323.810773 
z
" style="fill:#1f77b4;"/>
   </g>
   <g id="patch_124">
    <path clip-path="url(#pab10fcd597)" d="M 247.896245 325.921635 
L 248.557207 325.921635 
L 248.557207 325.393919 
L 247.896245 325.393919 
z
" style="fill:#1f77b4;"/>
   </g>
   <g id="patch_125">
    <path clip-path="url(#pab10fcd597)" d="M 248.722447 325.921635 
L 249.383408 325.921635 
L 249.383408 324.514394 
L 248.722447 324.514394 
z
" style="fill:#1f77b4;"/>
   </g>
   <g id="patch_126">
    <path clip-path="url(#pab10fcd597)" d="M 249.548649 325.921635 
L 250.20961 325.921635 
L 250.20961 325.042109 
L 249.548649 325.042109 
z
" style="fill:#1f77b4;"/>
   </g>
   <g id="patch_127">
    <path clip-path="url(#pab10fcd597)" d="M 250.374851 325.921635 
L 251.035812 325.921635 
L 251.035812 323.72282 
L 250.374851 323.72282 
z
" style="fill:#1f77b4;"/>
   </g>
   <g id="patch_128">
    <path clip-path="url(#pab10fcd597)" d="M 251.201053 325.921635 
L 251.862014 325.921635 
L 251.862014 324.602346 
L 251.201053 324.602346 
z
" style="fill:#1f77b4;"/>
   </g>
   <g id="patch_129">
    <path clip-path="url(#pab10fcd597)" d="M 252.027254 325.921635 
L 252.688216 325.921635 
L 252.688216 324.690299 
L 252.027254 324.690299 
z
" style="fill:#1f77b4;"/>
   </g>
   <g id="patch_130">
    <path clip-path="url(#pab10fcd597)" d="M 252.853456 325.921635 
L 253.514418 325.921635 
L 253.514418 323.283057 
L 252.853456 323.283057 
z
" style="fill:#1f77b4;"/>
   </g>
   <g id="patch_131">
    <path clip-path="url(#pab10fcd597)" d="M 253.679658 325.921635 
L 254.34062 325.921635 
L 254.34062 325.042109 
L 253.679658 325.042109 
z
" style="fill:#1f77b4;"/>
   </g>
   <g id="patch_132">
    <path clip-path="url(#pab10fcd597)" d="M 254.50586 325.921635 
L 255.166822 325.921635 
L 255.166822 323.195105 
L 254.50586 323.195105 
z
" style="fill:#1f77b4;"/>
   </g>
   <g id="patch_133">
    <path clip-path="url(#pab10fcd597)" d="M 255.332062 325.921635 
L 255.993023 325.921635 
L 255.993023 325.130062 
L 255.332062 325.130062 
z
" style="fill:#1f77b4;"/>
   </g>
   <g id="patch_134">
    <path clip-path="url(#pab10fcd597)" d="M 256.158264 325.921635 
L 256.819225 325.921635 
L 256.819225 324.338488 
L 256.158264 324.338488 
z
" style="fill:#1f77b4;"/>
   </g>
   <g id="patch_135">
    <path clip-path="url(#pab10fcd597)" d="M 256.984466 325.921635 
L 257.645427 325.921635 
L 257.645427 322.579437 
L 256.984466 322.579437 
z
" style="fill:#1f77b4;"/>
   </g>
   <g id="patch_136">
    <path clip-path="url(#pab10fcd597)" d="M 257.810668 325.921635 
L 258.471629 325.921635 
L 258.471629 322.051721 
L 257.810668 322.051721 
z
" style="fill:#1f77b4;"/>
   </g>
   <g id="patch_137">
    <path clip-path="url(#pab10fcd597)" d="M 258.636869 325.921635 
L 259.297831 325.921635 
L 259.297831 322.315579 
L 258.636869 322.315579 
z
" style="fill:#1f77b4;"/>
   </g>
   <g id="patch_138">
    <path clip-path="url(#pab10fcd597)" d="M 259.463071 325.921635 
L 260.124033 325.921635 
L 260.124033 320.556527 
L 259.463071 320.556527 
z
" style="fill:#1f77b4;"/>
   </g>
   <g id="patch_139">
    <path clip-path="url(#pab10fcd597)" d="M 260.289273 325.921635 
L 260.950235 325.921635 
L 260.950235 321.3481 
L 260.289273 321.3481 
z
" style="fill:#1f77b4;"/>
   </g>
   <g id="patch_140">
    <path clip-path="url(#pab10fcd597)" d="M 261.115475 325.921635 
L 261.776437 325.921635 
L 261.776437 322.051721 
L 261.115475 322.051721 
z
" style="fill:#1f77b4;"/>
   </g>
   <g id="patch_141">
    <path clip-path="url(#pab10fcd597)" d="M 261.941677 325.921635 
L 262.602638 325.921635 
L 262.602638 318.005902 
L 261.941677 318.005902 
z
" style="fill:#1f77b4;"/>
   </g>
   <g id="patch_142">
    <path clip-path="url(#pab10fcd597)" d="M 262.767879 325.921635 
L 263.42884 325.921635 
L 263.42884 320.116764 
L 262.767879 320.116764 
z
" style="fill:#1f77b4;"/>
   </g>
   <g id="patch_143">
    <path clip-path="url(#pab10fcd597)" d="M 263.594081 325.921635 
L 264.255042 325.921635 
L 264.255042 315.807088 
L 263.594081 315.807088 
z
" style="fill:#1f77b4;"/>
   </g>
   <g id="patch_144">
    <path clip-path="url(#pab10fcd597)" d="M 264.420283 325.921635 
L 265.081244 325.921635 
L 265.081244 316.070945 
L 264.420283 316.070945 
z
" style="fill:#1f77b4;"/>
   </g>
   <g id="patch_145">
    <path clip-path="url(#pab10fcd597)" d="M 265.246484 325.921635 
L 265.907446 325.921635 
L 265.907446 316.422756 
L 265.246484 316.422756 
z
" style="fill:#1f77b4;"/>
   </g>
   <g id="patch_146">
    <path clip-path="url(#pab10fcd597)" d="M 266.072686 325.921635 
L 266.733648 325.921635 
L 266.733648 314.048036 
L 266.072686 314.048036 
z
" style="fill:#1f77b4;"/>
   </g>
   <g id="patch_147">
    <path clip-path="url(#pab10fcd597)" d="M 266.898888 325.921635 
L 267.55985 325.921635 
L 267.55985 321.524006 
L 266.898888 321.524006 
z
" style="fill:#1f77b4;"/>
   </g>
   <g id="patch_148">
    <path clip-path="url(#pab10fcd597)" d="M 267.72509 325.921635 
L 268.386052 325.921635 
L 268.386052 313.432368 
L 267.72509 313.432368 
z
" style="fill:#1f77b4;"/>
   </g>
   <g id="patch_149">
    <path clip-path="url(#pab10fcd597)" d="M 268.551292 325.921635 
L 269.212253 325.921635 
L 269.212253 314.311894 
L 268.551292 314.311894 
z
" style="fill:#1f77b4;"/>
   </g>
   <g id="patch_150">
    <path clip-path="url(#pab10fcd597)" d="M 269.377494 325.921635 
L 270.038455 325.921635 
L 270.038455 311.497411 
L 269.377494 311.497411 
z
" style="fill:#1f77b4;"/>
   </g>
   <g id="patch_151">
    <path clip-path="url(#pab10fcd597)" d="M 270.203696 325.921635 
L 270.864657 325.921635 
L 270.864657 293.027368 
L 270.203696 293.027368 
z
" style="fill:#1f77b4;"/>
   </g>
   <g id="patch_152">
    <path clip-path="url(#pab10fcd597)" d="M 271.029898 325.921635 
L 271.690859 325.921635 
L 271.690859 314.927562 
L 271.029898 314.927562 
z
" style="fill:#1f77b4;"/>
   </g>
   <g id="patch_153">
    <path clip-path="url(#pab10fcd597)" d="M 271.856099 325.921635 
L 272.517061 325.921635 
L 272.517061 309.650406 
L 271.856099 309.650406 
z
" style="fill:#1f77b4;"/>
   </g>
   <g id="patch_154">
    <path clip-path="url(#pab10fcd597)" d="M 272.682301 325.921635 
L 273.343263 325.921635 
L 273.343263 309.738359 
L 272.682301 309.738359 
z
" style="fill:#1f77b4;"/>
   </g>
   <g id="patch_155">
    <path clip-path="url(#pab10fcd597)" d="M 273.508503 325.921635 
L 274.169465 325.921635 
L 274.169465 303.757583 
L 273.508503 303.757583 
z
" style="fill:#1f77b4;"/>
   </g>
   <g id="patch_156">
    <path clip-path="url(#pab10fcd597)" d="M 274.334705 325.921635 
L 274.995667 325.921635 
L 274.995667 302.350342 
L 274.334705 302.350342 
z
" style="fill:#1f77b4;"/>
   </g>
   <g id="patch_157">
    <path clip-path="url(#pab10fcd597)" d="M 275.160907 325.921635 
L 275.821868 325.921635 
L 275.821868 298.128618 
L 275.160907 298.128618 
z
" style="fill:#1f77b4;"/>
   </g>
   <g id="patch_158">
    <path clip-path="url(#pab10fcd597)" d="M 275.987109 325.921635 
L 276.64807 325.921635 
L 276.64807 292.675557 
L 275.987109 292.675557 
z
" style="fill:#1f77b4;"/>
   </g>
   <g id="patch_159">
    <path clip-path="url(#pab10fcd597)" d="M 276.813311 325.921635 
L 277.474272 325.921635 
L 277.474272 297.424997 
L 276.813311 297.424997 
z
" style="fill:#1f77b4;"/>
   </g>
   <g id="patch_160">
    <path clip-path="url(#pab10fcd597)" d="M 277.639513 325.921635 
L 278.300474 325.921635 
L 278.300474 300.9431 
L 277.639513 300.9431 
z
" style="fill:#1f77b4;"/>
   </g>
   <g id="patch_161">
    <path clip-path="url(#pab10fcd597)" d="M 278.465715 325.921635 
L 279.126676 325.921635 
L 279.126676 287.310449 
L 278.465715 287.310449 
z
" style="fill:#1f77b4;"/>
   </g>
   <g id="patch_162">
    <path clip-path="url(#pab10fcd597)" d="M 279.291916 325.921635 
L 279.952878 325.921635 
L 279.952878 280.714005 
L 279.291916 280.714005 
z
" style="fill:#1f77b4;"/>
   </g>
   <g id="patch_163">
    <path clip-path="url(#pab10fcd597)" d="M 280.118118 325.921635 
L 280.77908 325.921635 
L 280.77908 278.603143 
L 280.118118 278.603143 
z
" style="fill:#1f77b4;"/>
   </g>
   <g id="patch_164">
    <path clip-path="url(#pab10fcd597)" d="M 280.94432 325.921635 
L 281.605282 325.921635 
L 281.605282 290.7406 
L 280.94432 290.7406 
z
" style="fill:#1f77b4;"/>
   </g>
   <g id="patch_165">
    <path clip-path="url(#pab10fcd597)" d="M 281.770522 325.921635 
L 282.431484 325.921635 
L 282.431484 269.280169 
L 281.770522 269.280169 
z
" style="fill:#1f77b4;"/>
   </g>
   <g id="patch_166">
    <path clip-path="url(#pab10fcd597)" d="M 282.596724 325.921635 
L 283.257685 325.921635 
L 283.257685 270.863316 
L 282.596724 270.863316 
z
" style="fill:#1f77b4;"/>
   </g>
   <g id="patch_167">
    <path clip-path="url(#pab10fcd597)" d="M 283.422926 325.921635 
L 284.083887 325.921635 
L 284.083887 298.21657 
L 283.422926 298.21657 
z
" style="fill:#1f77b4;"/>
   </g>
   <g id="patch_168">
    <path clip-path="url(#pab10fcd597)" d="M 284.249128 325.921635 
L 284.910089 325.921635 
L 284.910089 308.946786 
L 284.249128 308.946786 
z
" style="fill:#1f77b4;"/>
   </g>
   <g id="patch_169">
    <path clip-path="url(#pab10fcd597)" d="M 285.07533 325.921635 
L 285.736291 325.921635 
L 285.736291 246.500449 
L 285.07533 246.500449 
z
" style="fill:#1f77b4;"/>
   </g>
   <g id="patch_170">
    <path clip-path="url(#pab10fcd597)" d="M 285.901531 325.921635 
L 286.562493 325.921635 
L 286.562493 212.462798 
L 285.901531 212.462798 
z
" style="fill:#1f77b4;"/>
   </g>
   <g id="patch_171">
    <path clip-path="url(#pab10fcd597)" d="M 286.727733 325.921635 
L 287.388695 325.921635 
L 287.388695 244.741397 
L 286.727733 244.741397 
z
" style="fill:#1f77b4;"/>
   </g>
   <g id="patch_172">
    <path clip-path="url(#pab10fcd597)" d="M 287.553935 325.921635 
L 288.214897 325.921635 
L 288.214897 248.611311 
L 287.553935 248.611311 
z
" style="fill:#1f77b4;"/>
   </g>
   <g id="patch_173">
    <path clip-path="url(#pab10fcd597)" d="M 288.380137 325.921635 
L 289.041099 325.921635 
L 289.041099 251.073984 
L 288.380137 251.073984 
z
" style="fill:#1f77b4;"/>
   </g>
   <g id="patch_174">
    <path clip-path="url(#pab10fcd597)" d="M 289.206339 325.921635 
L 289.8673 325.921635 
L 289.8673 299.535859 
L 289.206339 299.535859 
z
" style="fill:#1f77b4;"/>
   </g>
   <g id="patch_175">
    <path clip-path="url(#pab10fcd597)" d="M 290.032541 325.921635 
L 290.693502 325.921635 
L 290.693502 279.042906 
L 290.032541 279.042906 
z
" style="fill:#1f77b4;"/>
   </g>
   <g id="patch_176">
    <path clip-path="url(#pab10fcd597)" d="M 290.858743 325.921635 
L 291.519704 325.921635 
L 291.519704 223.544824 
L 290.858743 223.544824 
z
" style="fill:#1f77b4;"/>
   </g>
   <g id="patch_177">
    <path clip-path="url(#pab10fcd597)" d="M 291.684945 325.921635 
L 292.345906 325.921635 
L 292.345906 223.984587 
L 291.684945 223.984587 
z
" style="fill:#1f77b4;"/>
   </g>
   <g id="patch_178">
    <path clip-path="url(#pab10fcd597)" d="M 292.511146 325.921635 
L 293.172108 325.921635 
L 293.172108 188.627647 
L 292.511146 188.627647 
z
" style="fill:#1f77b4;"/>
   </g>
   <g id="patch_179">
    <path clip-path="url(#pab10fcd597)" d="M 293.337348 325.921635 
L 293.99831 325.921635 
L 293.99831 237.969048 
L 293.337348 237.969048 
z
" style="fill:#1f77b4;"/>
   </g>
   <g id="patch_180">
    <path clip-path="url(#pab10fcd597)" d="M 294.16355 325.921635 
L 294.824512 325.921635 
L 294.824512 219.67491 
L 294.16355 219.67491 
z
" style="fill:#1f77b4;"/>
   </g>
   <g id="patch_181">
    <path clip-path="url(#pab10fcd597)" d="M 294.989752 325.921635 
L 295.650714 325.921635 
L 295.650714 279.922432 
L 294.989752 279.922432 
z
" style="fill:#1f77b4;"/>
   </g>
   <g id="patch_182">
    <path clip-path="url(#pab10fcd597)" d="M 295.815954 325.921635 
L 296.476915 325.921635 
L 296.476915 269.544027 
L 295.815954 269.544027 
z
" style="fill:#1f77b4;"/>
   </g>
   <g id="patch_183">
    <path clip-path="url(#pab10fcd597)" d="M 296.642156 325.921635 
L 297.303117 325.921635 
L 297.303117 193.904802 
L 296.642156 193.904802 
z
" style="fill:#1f77b4;"/>
   </g>
   <g id="patch_184">
    <path clip-path="url(#pab10fcd597)" d="M 297.468358 325.921635 
L 298.129319 325.921635 
L 298.129319 186.956548 
L 297.468358 186.956548 
z
" style="fill:#1f77b4;"/>
   </g>
   <g id="patch_185">
    <path clip-path="url(#pab10fcd597)" d="M 298.29456 325.921635 
L 298.955521 325.921635 
L 298.955521 208.241074 
L 298.29456 208.241074 
z
" style="fill:#1f77b4;"/>
   </g>
   <g id="patch_186">
    <path clip-path="url(#pab10fcd597)" d="M 299.120761 325.921635 
L 299.781723 325.921635 
L 299.781723 221.609867 
L 299.120761 221.609867 
z
" style="fill:#1f77b4;"/>
   </g>
   <g id="patch_187">
    <path clip-path="url(#pab10fcd597)" d="M 299.946963 325.921635 
L 300.607925 325.921635 
L 300.607925 246.940212 
L 299.946963 246.940212 
z
" style="fill:#1f77b4;"/>
   </g>
   <g id="patch_188">
    <path clip-path="url(#pab10fcd597)" d="M 300.773165 325.921635 
L 301.434127 325.921635 
L 301.434127 276.756139 
L 300.773165 276.756139 
z
" style="fill:#1f77b4;"/>
   </g>
   <g id="patch_189">
    <path clip-path="url(#pab10fcd597)" d="M 301.599367 325.921635 
L 302.260329 325.921635 
L 302.260329 268.312691 
L 301.599367 268.312691 
z
" style="fill:#1f77b4;"/>
   </g>
   <g id="patch_190">
    <path clip-path="url(#pab10fcd597)" d="M 302.425569 325.921635 
L 303.08653 325.921635 
L 303.08653 197.510858 
L 302.425569 197.510858 
z
" style="fill:#1f77b4;"/>
   </g>
   <g id="patch_191">
    <path clip-path="url(#pab10fcd597)" d="M 303.251771 325.921635 
L 303.912732 325.921635 
L 303.912732 186.604738 
L 303.251771 186.604738 
z
" style="fill:#1f77b4;"/>
   </g>
   <g id="patch_192">
    <path clip-path="url(#pab10fcd597)" d="M 304.077973 325.921635 
L 304.738934 325.921635 
L 304.738934 321.699911 
L 304.077973 321.699911 
z
" style="fill:#1f77b4;"/>
   </g>
   <g id="patch_193">
    <path clip-path="url(#pab10fcd597)" d="M 304.904175 325.921635 
L 305.565136 325.921635 
L 305.565136 32.775664 
L 304.904175 32.775664 
z
" style="fill:#1f77b4;"/>
   </g>
   <g id="patch_194">
    <path clip-path="url(#pab10fcd597)" d="M 305.730376 325.921635 
L 306.391338 325.921635 
L 306.391338 200.325341 
L 305.730376 200.325341 
z
" style="fill:#1f77b4;"/>
   </g>
   <g id="patch_195">
    <path clip-path="url(#pab10fcd597)" d="M 306.556578 325.921635 
L 307.21754 325.921635 
L 307.21754 302.790105 
L 306.556578 302.790105 
z
" style="fill:#1f77b4;"/>
   </g>
   <g id="matplotlib.axis_3">
    <g id="xtick_3">
     <g id="line2d_12">
      <g>
       <use style="stroke:#000000;stroke-width:0.8;" x="230.050284" xlink:href="#m629bc20c69" y="325.921635"/>
      </g>
     </g>
     <g id="text_12">
      <!-- 0 -->
      <g transform="translate(226.869034 340.520072)scale(0.1 -0.1)">
       <use xlink:href="#DejaVuSans-48"/>
      </g>
     </g>
    </g>
    <g id="xtick_4">
     <g id="line2d_13">
      <g>
       <use style="stroke:#000000;stroke-width:0.8;" x="271.360378" xlink:href="#m629bc20c69" y="325.921635"/>
      </g>
     </g>
     <g id="text_13">
      <!-- 50 -->
      <g transform="translate(264.997878 340.520072)scale(0.1 -0.1)">
       <use xlink:href="#DejaVuSans-53"/>
       <use x="63.623047" xlink:href="#DejaVuSans-48"/>
      </g>
     </g>
    </g>
   </g>
   <g id="matplotlib.axis_4">
    <g id="ytick_9">
     <g id="line2d_14">
      <g>
       <use style="stroke:#000000;stroke-width:0.8;" x="225.844917" xlink:href="#m7eea989431" y="325.921635"/>
      </g>
     </g>
     <g id="text_14">
      <!-- 0 -->
      <g transform="translate(212.482417 329.720854)scale(0.1 -0.1)">
       <use xlink:href="#DejaVuSans-48"/>
      </g>
     </g>
    </g>
    <g id="ytick_10">
     <g id="line2d_15">
      <g>
       <use style="stroke:#000000;stroke-width:0.8;" x="225.844917" xlink:href="#m7eea989431" y="281.945342"/>
      </g>
     </g>
     <g id="text_15">
      <!-- 500 -->
      <g transform="translate(199.757417 285.74456)scale(0.1 -0.1)">
       <use xlink:href="#DejaVuSans-53"/>
       <use x="63.623047" xlink:href="#DejaVuSans-48"/>
       <use x="127.246094" xlink:href="#DejaVuSans-48"/>
      </g>
     </g>
    </g>
    <g id="ytick_11">
     <g id="line2d_16">
      <g>
       <use style="stroke:#000000;stroke-width:0.8;" x="225.844917" xlink:href="#m7eea989431" y="237.969048"/>
      </g>
     </g>
     <g id="text_16">
      <!-- 1000 -->
      <g transform="translate(193.394917 241.768267)scale(0.1 -0.1)">
       <use xlink:href="#DejaVuSans-49"/>
       <use x="63.623047" xlink:href="#DejaVuSans-48"/>
       <use x="127.246094" xlink:href="#DejaVuSans-48"/>
       <use x="190.869141" xlink:href="#DejaVuSans-48"/>
      </g>
     </g>
    </g>
    <g id="ytick_12">
     <g id="line2d_17">
      <g>
       <use style="stroke:#000000;stroke-width:0.8;" x="225.844917" xlink:href="#m7eea989431" y="193.992755"/>
      </g>
     </g>
     <g id="text_17">
      <!-- 1500 -->
      <g transform="translate(193.394917 197.791974)scale(0.1 -0.1)">
       <use xlink:href="#DejaVuSans-49"/>
       <use x="63.623047" xlink:href="#DejaVuSans-53"/>
       <use x="127.246094" xlink:href="#DejaVuSans-48"/>
       <use x="190.869141" xlink:href="#DejaVuSans-48"/>
      </g>
     </g>
    </g>
    <g id="ytick_13">
     <g id="line2d_18">
      <g>
       <use style="stroke:#000000;stroke-width:0.8;" x="225.844917" xlink:href="#m7eea989431" y="150.016462"/>
      </g>
     </g>
     <g id="text_18">
      <!-- 2000 -->
      <g transform="translate(193.394917 153.81568)scale(0.1 -0.1)">
       <use xlink:href="#DejaVuSans-50"/>
       <use x="63.623047" xlink:href="#DejaVuSans-48"/>
       <use x="127.246094" xlink:href="#DejaVuSans-48"/>
       <use x="190.869141" xlink:href="#DejaVuSans-48"/>
      </g>
     </g>
    </g>
    <g id="ytick_14">
     <g id="line2d_19">
      <g>
       <use style="stroke:#000000;stroke-width:0.8;" x="225.844917" xlink:href="#m7eea989431" y="106.040168"/>
      </g>
     </g>
     <g id="text_19">
      <!-- 2500 -->
      <g transform="translate(193.394917 109.839387)scale(0.1 -0.1)">
       <use xlink:href="#DejaVuSans-50"/>
       <use x="63.623047" xlink:href="#DejaVuSans-53"/>
       <use x="127.246094" xlink:href="#DejaVuSans-48"/>
       <use x="190.869141" xlink:href="#DejaVuSans-48"/>
      </g>
     </g>
    </g>
    <g id="ytick_15">
     <g id="line2d_20">
      <g>
       <use style="stroke:#000000;stroke-width:0.8;" x="225.844917" xlink:href="#m7eea989431" y="62.063875"/>
      </g>
     </g>
     <g id="text_20">
      <!-- 3000 -->
      <g transform="translate(193.394917 65.863094)scale(0.1 -0.1)">
       <use xlink:href="#DejaVuSans-51"/>
       <use x="63.623047" xlink:href="#DejaVuSans-48"/>
       <use x="127.246094" xlink:href="#DejaVuSans-48"/>
       <use x="190.869141" xlink:href="#DejaVuSans-48"/>
      </g>
     </g>
    </g>
   </g>
   <g id="line2d_21">
    <path clip-path="url(#pab10fcd597)" d="M 230.050284 325.886872 
L 230.876486 325.872146 
L 231.702688 325.854306 
L 232.52889 325.836466 
L 233.355092 325.817674 
L 234.181294 325.798479 
L 235.007496 325.779504 
L 235.833698 325.761298 
L 236.659899 325.743935 
L 237.486101 325.726901 
L 238.312303 325.708805 
L 239.138505 325.687998 
L 239.964707 325.662539 
L 240.790909 325.629424 
L 241.617111 325.585173 
L 242.443313 325.527881 
L 243.269514 325.456889 
L 244.095716 325.372124 
L 244.921918 325.274281 
L 245.74812 325.165082 
L 246.574322 325.049289 
L 247.400524 324.931811 
L 248.226726 324.814993 
L 249.052928 324.699823 
L 249.87913 324.585459 
L 250.705331 324.470472 
L 251.531533 324.351053 
L 252.357735 324.217311 
L 253.183937 324.059831 
L 254.010139 323.870373 
L 254.836341 323.639227 
L 255.662543 323.36024 
L 256.488745 323.02539 
L 257.314946 322.630721 
L 258.141148 322.179932 
L 258.96735 321.675221 
L 259.793552 321.121497 
L 260.619754 320.520885 
L 261.445956 319.874592 
L 262.272158 319.189361 
L 263.09836 318.463798 
L 263.924561 317.690027 
L 264.750763 316.860211 
L 265.576965 315.959622 
L 266.403167 314.994781 
L 267.229369 313.96349 
L 268.055571 312.857068 
L 268.881773 311.67284 
L 269.707975 310.407546 
L 270.534176 309.056754 
L 271.360378 307.626874 
L 272.18658 306.088821 
L 273.012782 304.424169 
L 273.838984 302.621782 
L 274.665186 300.693053 
L 275.491388 298.653732 
L 276.31759 296.509169 
L 277.143791 294.239875 
L 277.969993 291.856144 
L 278.796195 289.371969 
L 279.622397 286.796251 
L 280.448599 284.075289 
L 281.274801 281.163805 
L 282.101003 278.079274 
L 282.927205 274.869609 
L 283.753407 271.575032 
L 284.579608 268.221515 
L 285.40581 264.825431 
L 286.232012 261.472939 
L 287.058214 258.233383 
L 287.884416 255.073537 
L 288.710618 251.98406 
L 289.53682 248.946015 
L 290.363022 245.977386 
L 291.189223 243.122132 
L 292.015425 240.389191 
L 292.841627 237.811605 
L 293.667829 235.510479 
L 294.494031 233.578709 
L 295.320233 232.046297 
L 296.146435 230.858772 
L 296.972637 229.951406 
L 297.798838 229.163496 
L 298.62504 228.303532 
L 299.451242 227.177768 
L 300.277444 225.44901 
L 301.103646 223.001174 
L 301.929848 219.871952 
L 302.75605 216.262452 
L 303.582252 212.323708 
L 304.408453 208.289061 
L 305.234655 205.60964 
L 306.060857 203.072348 
L 306.887059 200.861519 
" style="fill:none;stroke:#ff0000;stroke-linecap:square;stroke-width:1.5;"/>
   </g>
   <g id="patch_196">
    <path d="M 225.844917 325.921635 
L 225.844917 18.118365 
" style="fill:none;stroke:#000000;stroke-linecap:square;stroke-linejoin:miter;stroke-width:0.8;"/>
   </g>
   <g id="patch_197">
    <path d="M 311.092427 325.921635 
L 311.092427 18.118365 
" style="fill:none;stroke:#000000;stroke-linecap:square;stroke-linejoin:miter;stroke-width:0.8;"/>
   </g>
   <g id="patch_198">
    <path d="M 225.844917 325.921635 
L 311.092427 325.921635 
" style="fill:none;stroke:#000000;stroke-linecap:square;stroke-linejoin:miter;stroke-width:0.8;"/>
   </g>
   <g id="patch_199">
    <path d="M 225.844917 18.118365 
L 311.092427 18.118365 
" style="fill:none;stroke:#000000;stroke-linecap:square;stroke-linejoin:miter;stroke-width:0.8;"/>
   </g>
   <g id="text_21">
    <!-- Casos novos - PB - (data) -->
    <defs>
     <path d="M 54.890625 33.015625 
L 54.890625 0 
L 45.90625 0 
L 45.90625 32.71875 
Q 45.90625 40.484375 42.875 44.328125 
Q 39.84375 48.1875 33.796875 48.1875 
Q 26.515625 48.1875 22.3125 43.546875 
Q 18.109375 38.921875 18.109375 30.90625 
L 18.109375 0 
L 9.078125 0 
L 9.078125 54.6875 
L 18.109375 54.6875 
L 18.109375 46.1875 
Q 21.34375 51.125 25.703125 53.5625 
Q 30.078125 56 35.796875 56 
Q 45.21875 56 50.046875 50.171875 
Q 54.890625 44.34375 54.890625 33.015625 
z
" id="DejaVuSans-110"/>
     <path d="M 2.984375 54.6875 
L 12.5 54.6875 
L 29.59375 8.796875 
L 46.6875 54.6875 
L 56.203125 54.6875 
L 35.6875 0 
L 23.484375 0 
z
" id="DejaVuSans-118"/>
    </defs>
    <g transform="translate(193.062734 12.118365)scale(0.12 -0.12)">
     <use xlink:href="#DejaVuSans-67"/>
     <use x="69.824219" xlink:href="#DejaVuSans-97"/>
     <use x="131.103516" xlink:href="#DejaVuSans-115"/>
     <use x="183.203125" xlink:href="#DejaVuSans-111"/>
     <use x="244.384766" xlink:href="#DejaVuSans-115"/>
     <use x="296.484375" xlink:href="#DejaVuSans-32"/>
     <use x="328.271484" xlink:href="#DejaVuSans-110"/>
     <use x="391.650391" xlink:href="#DejaVuSans-111"/>
     <use x="452.832031" xlink:href="#DejaVuSans-118"/>
     <use x="512.011719" xlink:href="#DejaVuSans-111"/>
     <use x="573.193359" xlink:href="#DejaVuSans-115"/>
     <use x="625.292969" xlink:href="#DejaVuSans-32"/>
     <use x="657.080078" xlink:href="#DejaVuSans-45"/>
     <use x="693.164062" xlink:href="#DejaVuSans-32"/>
     <use x="724.951172" xlink:href="#DejaVuSans-80"/>
     <use x="785.253906" xlink:href="#DejaVuSans-66"/>
     <use x="853.857422" xlink:href="#DejaVuSans-32"/>
     <use x="885.644531" xlink:href="#DejaVuSans-45"/>
     <use x="921.728516" xlink:href="#DejaVuSans-32"/>
     <use x="953.515625" xlink:href="#DejaVuSans-40"/>
     <use x="992.529297" xlink:href="#DejaVuSans-100"/>
     <use x="1056.005859" xlink:href="#DejaVuSans-97"/>
     <use x="1117.285156" xlink:href="#DejaVuSans-116"/>
     <use x="1156.494141" xlink:href="#DejaVuSans-97"/>
     <use x="1217.773438" xlink:href="#DejaVuSans-41"/>
    </g>
   </g>
  </g>
  <g id="axes_3">
   <g id="patch_200">
    <path d="M 372.55225 325.921635 
L 457.79976 325.921635 
L 457.79976 18.118365 
L 372.55225 18.118365 
z
" style="fill:#ffffff;"/>
   </g>
   <g id="matplotlib.axis_5">
    <g id="xtick_5">
     <g id="line2d_22">
      <g>
       <use style="stroke:#000000;stroke-width:0.8;" x="376.427137" xlink:href="#m629bc20c69" y="325.921635"/>
      </g>
     </g>
     <g id="text_22">
      <!-- 0 -->
      <g transform="translate(373.245887 340.520072)scale(0.1 -0.1)">
       <use xlink:href="#DejaVuSans-48"/>
      </g>
     </g>
    </g>
    <g id="xtick_6">
     <g id="line2d_23">
      <g>
       <use style="stroke:#000000;stroke-width:0.8;" x="418.092587" xlink:href="#m629bc20c69" y="325.921635"/>
      </g>
     </g>
     <g id="text_23">
      <!-- 50 -->
      <g transform="translate(411.730087 340.520072)scale(0.1 -0.1)">
       <use xlink:href="#DejaVuSans-53"/>
       <use x="63.623047" xlink:href="#DejaVuSans-48"/>
      </g>
     </g>
    </g>
   </g>
   <g id="matplotlib.axis_6">
    <g id="ytick_16">
     <g id="line2d_24">
      <g>
       <use style="stroke:#000000;stroke-width:0.8;" x="372.55225" xlink:href="#m7eea989431" y="274.345148"/>
      </g>
     </g>
     <g id="text_24">
      <!-- 1.5 -->
      <defs>
       <path d="M 10.6875 12.40625 
L 21 12.40625 
L 21 0 
L 10.6875 0 
z
" id="DejaVuSans-46"/>
      </defs>
      <g transform="translate(349.649125 278.144367)scale(0.1 -0.1)">
       <use xlink:href="#DejaVuSans-49"/>
       <use x="63.623047" xlink:href="#DejaVuSans-46"/>
       <use x="95.410156" xlink:href="#DejaVuSans-53"/>
      </g>
     </g>
    </g>
    <g id="ytick_17">
     <g id="line2d_25">
      <g>
       <use style="stroke:#000000;stroke-width:0.8;" x="372.55225" xlink:href="#m7eea989431" y="211.135711"/>
      </g>
     </g>
     <g id="text_25">
      <!-- 2.0 -->
      <g transform="translate(349.649125 214.93493)scale(0.1 -0.1)">
       <use xlink:href="#DejaVuSans-50"/>
       <use x="63.623047" xlink:href="#DejaVuSans-46"/>
       <use x="95.410156" xlink:href="#DejaVuSans-48"/>
      </g>
     </g>
    </g>
    <g id="ytick_18">
     <g id="line2d_26">
      <g>
       <use style="stroke:#000000;stroke-width:0.8;" x="372.55225" xlink:href="#m7eea989431" y="147.926274"/>
      </g>
     </g>
     <g id="text_26">
      <!-- 2.5 -->
      <g transform="translate(349.649125 151.725493)scale(0.1 -0.1)">
       <use xlink:href="#DejaVuSans-50"/>
       <use x="63.623047" xlink:href="#DejaVuSans-46"/>
       <use x="95.410156" xlink:href="#DejaVuSans-53"/>
      </g>
     </g>
    </g>
    <g id="ytick_19">
     <g id="line2d_27">
      <g>
       <use style="stroke:#000000;stroke-width:0.8;" x="372.55225" xlink:href="#m7eea989431" y="84.716837"/>
      </g>
     </g>
     <g id="text_27">
      <!-- 3.0 -->
      <g transform="translate(349.649125 88.516056)scale(0.1 -0.1)">
       <use xlink:href="#DejaVuSans-51"/>
       <use x="63.623047" xlink:href="#DejaVuSans-46"/>
       <use x="95.410156" xlink:href="#DejaVuSans-48"/>
      </g>
     </g>
    </g>
    <g id="ytick_20">
     <g id="line2d_28">
      <g>
       <use style="stroke:#000000;stroke-width:0.8;" x="372.55225" xlink:href="#m7eea989431" y="21.5074"/>
      </g>
     </g>
     <g id="text_28">
      <!-- 3.5 -->
      <g transform="translate(349.649125 25.306619)scale(0.1 -0.1)">
       <use xlink:href="#DejaVuSans-51"/>
       <use x="63.623047" xlink:href="#DejaVuSans-46"/>
       <use x="95.410156" xlink:href="#DejaVuSans-53"/>
      </g>
     </g>
    </g>
   </g>
   <g id="line2d_29">
    <path clip-path="url(#pd08f06e6c5)" d="M 376.427137 32.109423 
L 377.260446 68.853296 
L 378.093755 98.284401 
L 378.927064 148.398804 
L 379.760373 174.313952 
L 380.593682 196.797997 
L 381.426991 216.982233 
L 382.2603 235.00181 
L 383.093609 249.300329 
L 383.926918 258.54515 
L 384.760227 260.751135 
L 385.593536 257.107975 
L 386.426845 248.79084 
L 387.260154 235.180089 
L 388.093463 218.742161 
L 388.926772 206.10404 
L 389.760081 199.542222 
L 390.59339 198.17287 
L 391.426699 200.970095 
L 392.260008 207.101217 
L 393.093317 217.563255 
L 393.926626 230.240302 
L 394.759935 242.080448 
L 395.593244 252.272488 
L 396.426553 260.089806 
L 397.259862 265.812247 
L 398.093171 268.686921 
L 398.92648 266.461409 
L 399.759789 260.909919 
L 400.593098 253.847075 
L 401.426407 245.752634 
L 402.259716 238.792563 
L 403.093025 232.683672 
L 403.926334 228.721054 
L 404.759643 228.153392 
L 405.592952 229.542744 
L 406.426261 232.626146 
L 407.25957 236.289 
L 408.092879 240.113258 
L 408.926188 244.623807 
L 409.759497 248.584985 
L 410.592806 251.445309 
L 411.426115 253.511164 
L 412.259424 254.431634 
L 413.092733 256.185087 
L 413.926042 257.887743 
L 414.759351 259.118024 
L 415.59266 260.358178 
L 416.425969 261.561781 
L 417.259278 262.66831 
L 418.092587 264.194432 
L 418.925896 264.484745 
L 419.759205 264.302844 
L 420.592514 264.061682 
L 421.425823 264.55722 
L 422.259132 265.727441 
L 423.092441 267.073861 
L 423.92575 267.852213 
L 424.759059 268.947207 
L 425.592367 270.350079 
L 426.425676 271.850401 
L 427.258985 272.086181 
L 428.092294 271.501081 
L 428.925603 271.443523 
L 429.758912 272.318449 
L 430.592221 273.778115 
L 431.42553 275.455922 
L 432.258839 277.144788 
L 433.092148 279.812003 
L 433.925457 283.048253 
L 434.758766 285.420641 
L 435.592075 287.359944 
L 436.425384 288.807829 
L 437.258693 290.264284 
L 438.092002 292.028296 
L 438.925311 293.676712 
L 439.75862 295.494056 
L 440.591929 298.431333 
L 441.425238 302.13752 
L 442.258547 305.955172 
L 443.091856 309.044762 
L 443.925165 311.361745 
L 444.758474 311.930577 
L 445.591783 310.453164 
L 446.425092 306.938921 
L 447.258401 299.983381 
L 448.09171 292.069314 
L 448.925019 284.883356 
L 449.758328 279.993851 
L 450.591637 276.739869 
L 451.424946 275.688254 
L 452.258255 287.371389 
L 453.091564 287.797074 
L 453.924873 289.728823 
" style="fill:none;stroke:#ff0000;stroke-linecap:square;stroke-width:1.5;"/>
   </g>
   <g id="patch_201">
    <path d="M 372.55225 325.921635 
L 372.55225 18.118365 
" style="fill:none;stroke:#000000;stroke-linecap:square;stroke-linejoin:miter;stroke-width:0.8;"/>
   </g>
   <g id="patch_202">
    <path d="M 457.79976 325.921635 
L 457.79976 18.118365 
" style="fill:none;stroke:#000000;stroke-linecap:square;stroke-linejoin:miter;stroke-width:0.8;"/>
   </g>
   <g id="patch_203">
    <path d="M 372.55225 325.921635 
L 457.79976 325.921635 
" style="fill:none;stroke:#000000;stroke-linecap:square;stroke-linejoin:miter;stroke-width:0.8;"/>
   </g>
   <g id="patch_204">
    <path d="M 372.55225 18.118365 
L 457.79976 18.118365 
" style="fill:none;stroke:#000000;stroke-linecap:square;stroke-linejoin:miter;stroke-width:0.8;"/>
   </g>
   <g id="text_29">
    <!-- r0 - PB - (data) -->
    <defs>
     <path d="M 41.109375 46.296875 
Q 39.59375 47.171875 37.8125 47.578125 
Q 36.03125 48 33.890625 48 
Q 26.265625 48 22.1875 43.046875 
Q 18.109375 38.09375 18.109375 28.8125 
L 18.109375 0 
L 9.078125 0 
L 9.078125 54.6875 
L 18.109375 54.6875 
L 18.109375 46.1875 
Q 20.953125 51.171875 25.484375 53.578125 
Q 30.03125 56 36.53125 56 
Q 37.453125 56 38.578125 55.875 
Q 39.703125 55.765625 41.0625 55.515625 
z
" id="DejaVuSans-114"/>
    </defs>
    <g transform="translate(371.003818 12.118365)scale(0.12 -0.12)">
     <use xlink:href="#DejaVuSans-114"/>
     <use x="41.113281" xlink:href="#DejaVuSans-48"/>
     <use x="104.736328" xlink:href="#DejaVuSans-32"/>
     <use x="136.523438" xlink:href="#DejaVuSans-45"/>
     <use x="172.607422" xlink:href="#DejaVuSans-32"/>
     <use x="204.394531" xlink:href="#DejaVuSans-80"/>
     <use x="264.697266" xlink:href="#DejaVuSans-66"/>
     <use x="333.300781" xlink:href="#DejaVuSans-32"/>
     <use x="365.087891" xlink:href="#DejaVuSans-45"/>
     <use x="401.171875" xlink:href="#DejaVuSans-32"/>
     <use x="432.958984" xlink:href="#DejaVuSans-40"/>
     <use x="471.972656" xlink:href="#DejaVuSans-100"/>
     <use x="535.449219" xlink:href="#DejaVuSans-97"/>
     <use x="596.728516" xlink:href="#DejaVuSans-116"/>
     <use x="635.9375" xlink:href="#DejaVuSans-97"/>
     <use x="697.216797" xlink:href="#DejaVuSans-41"/>
    </g>
   </g>
  </g>
 </g>
 <defs>
  <clipPath id="pe247b034f3">
   <rect height="307.80327" width="85.24751" x="51.037584" y="18.118365"/>
  </clipPath>
  <clipPath id="pab10fcd597">
   <rect height="307.80327" width="85.24751" x="225.844917" y="18.118365"/>
  </clipPath>
  <clipPath id="pd08f06e6c5">
   <rect height="307.80327" width="85.24751" x="372.55225" y="18.118365"/>
  </clipPath>
 </defs>
</svg>
