<?xml version="1.0" encoding="utf-8" standalone="no"?>
<!DOCTYPE svg PUBLIC "-//W3C//DTD SVG 1.1//EN"
  "http://www.w3.org/Graphics/SVG/1.1/DTD/svg11.dtd">
<!-- Created with matplotlib (https://matplotlib.org/) -->
<svg height="345.6pt" version="1.1" viewBox="0 0 460.8 345.6" width="460.8pt" xmlns="http://www.w3.org/2000/svg" xmlns:xlink="http://www.w3.org/1999/xlink">
 <defs>
  <style type="text/css">
*{stroke-linecap:butt;stroke-linejoin:round;}
  </style>
 </defs>
 <g id="figure_1">
  <g id="patch_1">
   <path d="M 0 345.6 
L 460.8 345.6 
L 460.8 0 
L 0 0 
z
" style="fill:#ffffff;"/>
  </g>
  <g id="axes_1">
   <g id="patch_2">
    <path d="M 51.344518 325.921635 
L 134.476252 325.921635 
L 134.476252 18.118365 
L 51.344518 18.118365 
z
" style="fill:#ffffff;"/>
   </g>
   <g id="patch_3">
    <path clip-path="url(#padebfa7139)" d="M 55.123233 325.921635 
L 55.723029 325.921635 
L 55.723029 325.910385 
L 55.123233 325.910385 
z
" style="fill:#1f77b4;"/>
   </g>
   <g id="patch_4">
    <path clip-path="url(#padebfa7139)" d="M 55.872978 325.921635 
L 56.472774 325.921635 
L 56.472774 325.910385 
L 55.872978 325.910385 
z
" style="fill:#1f77b4;"/>
   </g>
   <g id="patch_5">
    <path clip-path="url(#padebfa7139)" d="M 56.622723 325.921635 
L 57.222519 325.921635 
L 57.222519 325.910385 
L 56.622723 325.910385 
z
" style="fill:#1f77b4;"/>
   </g>
   <g id="patch_6">
    <path clip-path="url(#padebfa7139)" d="M 57.372468 325.921635 
L 57.972264 325.921635 
L 57.972264 325.910385 
L 57.372468 325.910385 
z
" style="fill:#1f77b4;"/>
   </g>
   <g id="patch_7">
    <path clip-path="url(#padebfa7139)" d="M 58.122213 325.921635 
L 58.722009 325.921635 
L 58.722009 325.831632 
L 58.122213 325.831632 
z
" style="fill:#1f77b4;"/>
   </g>
   <g id="patch_8">
    <path clip-path="url(#padebfa7139)" d="M 58.871958 325.921635 
L 59.471754 325.921635 
L 59.471754 325.831632 
L 58.871958 325.831632 
z
" style="fill:#1f77b4;"/>
   </g>
   <g id="patch_9">
    <path clip-path="url(#padebfa7139)" d="M 59.621703 325.921635 
L 60.2215 325.921635 
L 60.2215 325.764129 
L 59.621703 325.764129 
z
" style="fill:#1f77b4;"/>
   </g>
   <g id="patch_10">
    <path clip-path="url(#padebfa7139)" d="M 60.371449 325.921635 
L 60.971245 325.921635 
L 60.971245 325.752879 
L 60.371449 325.752879 
z
" style="fill:#1f77b4;"/>
   </g>
   <g id="patch_11">
    <path clip-path="url(#padebfa7139)" d="M 61.121194 325.921635 
L 61.72099 325.921635 
L 61.72099 325.752879 
L 61.121194 325.752879 
z
" style="fill:#1f77b4;"/>
   </g>
   <g id="patch_12">
    <path clip-path="url(#padebfa7139)" d="M 61.870939 325.921635 
L 62.470735 325.921635 
L 62.470735 325.713503 
L 61.870939 325.713503 
z
" style="fill:#1f77b4;"/>
   </g>
   <g id="patch_13">
    <path clip-path="url(#padebfa7139)" d="M 62.620684 325.921635 
L 63.22048 325.921635 
L 63.22048 325.685377 
L 62.620684 325.685377 
z
" style="fill:#1f77b4;"/>
   </g>
   <g id="patch_14">
    <path clip-path="url(#padebfa7139)" d="M 63.370429 325.921635 
L 63.970225 325.921635 
L 63.970225 325.685377 
L 63.370429 325.685377 
z
" style="fill:#1f77b4;"/>
   </g>
   <g id="patch_15">
    <path clip-path="url(#padebfa7139)" d="M 64.120174 325.921635 
L 64.71997 325.921635 
L 64.71997 325.662876 
L 64.120174 325.662876 
z
" style="fill:#1f77b4;"/>
   </g>
   <g id="patch_16">
    <path clip-path="url(#padebfa7139)" d="M 64.869919 325.921635 
L 65.469715 325.921635 
L 65.469715 325.651625 
L 64.869919 325.651625 
z
" style="fill:#1f77b4;"/>
   </g>
   <g id="patch_17">
    <path clip-path="url(#padebfa7139)" d="M 65.619664 325.921635 
L 66.21946 325.921635 
L 66.21946 325.606624 
L 65.619664 325.606624 
z
" style="fill:#1f77b4;"/>
   </g>
   <g id="patch_18">
    <path clip-path="url(#padebfa7139)" d="M 66.369409 325.921635 
L 66.969205 325.921635 
L 66.969205 325.539121 
L 66.369409 325.539121 
z
" style="fill:#1f77b4;"/>
   </g>
   <g id="patch_19">
    <path clip-path="url(#padebfa7139)" d="M 67.119154 325.921635 
L 67.71895 325.921635 
L 67.71895 325.510996 
L 67.119154 325.510996 
z
" style="fill:#1f77b4;"/>
   </g>
   <g id="patch_20">
    <path clip-path="url(#padebfa7139)" d="M 67.868899 325.921635 
L 68.468695 325.921635 
L 68.468695 325.48287 
L 67.868899 325.48287 
z
" style="fill:#1f77b4;"/>
   </g>
   <g id="patch_21">
    <path clip-path="url(#padebfa7139)" d="M 68.618644 325.921635 
L 69.21844 325.921635 
L 69.21844 325.432243 
L 68.618644 325.432243 
z
" style="fill:#1f77b4;"/>
   </g>
   <g id="patch_22">
    <path clip-path="url(#padebfa7139)" d="M 69.368389 325.921635 
L 69.968185 325.921635 
L 69.968185 325.387241 
L 69.368389 325.387241 
z
" style="fill:#1f77b4;"/>
   </g>
   <g id="patch_23">
    <path clip-path="url(#padebfa7139)" d="M 70.118135 325.921635 
L 70.717931 325.921635 
L 70.717931 325.325364 
L 70.118135 325.325364 
z
" style="fill:#1f77b4;"/>
   </g>
   <g id="patch_24">
    <path clip-path="url(#padebfa7139)" d="M 70.86788 325.921635 
L 71.467676 325.921635 
L 71.467676 325.156608 
L 70.86788 325.156608 
z
" style="fill:#1f77b4;"/>
   </g>
   <g id="patch_25">
    <path clip-path="url(#padebfa7139)" d="M 71.617625 325.921635 
L 72.217421 325.921635 
L 72.217421 324.9316 
L 71.617625 324.9316 
z
" style="fill:#1f77b4;"/>
   </g>
   <g id="patch_26">
    <path clip-path="url(#padebfa7139)" d="M 72.36737 325.921635 
L 72.967166 325.921635 
L 72.967166 324.79097 
L 72.36737 324.79097 
z
" style="fill:#1f77b4;"/>
   </g>
   <g id="patch_27">
    <path clip-path="url(#padebfa7139)" d="M 73.117115 325.921635 
L 73.716911 325.921635 
L 73.716911 324.667216 
L 73.117115 324.667216 
z
" style="fill:#1f77b4;"/>
   </g>
   <g id="patch_28">
    <path clip-path="url(#padebfa7139)" d="M 73.86686 325.921635 
L 74.466656 325.921635 
L 74.466656 323.941565 
L 73.86686 323.941565 
z
" style="fill:#1f77b4;"/>
   </g>
   <g id="patch_29">
    <path clip-path="url(#padebfa7139)" d="M 74.616605 325.921635 
L 75.216401 325.921635 
L 75.216401 323.66593 
L 74.616605 323.66593 
z
" style="fill:#1f77b4;"/>
   </g>
   <g id="patch_30">
    <path clip-path="url(#padebfa7139)" d="M 75.36635 325.921635 
L 75.966146 325.921635 
L 75.966146 322.79965 
L 75.36635 322.79965 
z
" style="fill:#1f77b4;"/>
   </g>
   <g id="patch_31">
    <path clip-path="url(#padebfa7139)" d="M 76.116095 325.921635 
L 76.715891 325.921635 
L 76.715891 322.073999 
L 76.116095 322.073999 
z
" style="fill:#1f77b4;"/>
   </g>
   <g id="patch_32">
    <path clip-path="url(#padebfa7139)" d="M 76.86584 325.921635 
L 77.465636 325.921635 
L 77.465636 321.331473 
L 76.86584 321.331473 
z
" style="fill:#1f77b4;"/>
   </g>
   <g id="patch_33">
    <path clip-path="url(#padebfa7139)" d="M 77.615585 325.921635 
L 78.215381 325.921635 
L 78.215381 320.521444 
L 77.615585 320.521444 
z
" style="fill:#1f77b4;"/>
   </g>
   <g id="patch_34">
    <path clip-path="url(#padebfa7139)" d="M 78.36533 325.921635 
L 78.965126 325.921635 
L 78.965126 319.430156 
L 78.36533 319.430156 
z
" style="fill:#1f77b4;"/>
   </g>
   <g id="patch_35">
    <path clip-path="url(#padebfa7139)" d="M 79.115075 325.921635 
L 79.714871 325.921635 
L 79.714871 318.69888 
L 79.115075 318.69888 
z
" style="fill:#1f77b4;"/>
   </g>
   <g id="patch_36">
    <path clip-path="url(#padebfa7139)" d="M 79.86482 325.921635 
L 80.464617 325.921635 
L 80.464617 317.57384 
L 79.86482 317.57384 
z
" style="fill:#1f77b4;"/>
   </g>
   <g id="patch_37">
    <path clip-path="url(#padebfa7139)" d="M 80.614566 325.921635 
L 81.214362 325.921635 
L 81.214362 316.454426 
L 80.614566 316.454426 
z
" style="fill:#1f77b4;"/>
   </g>
   <g id="patch_38">
    <path clip-path="url(#padebfa7139)" d="M 81.364311 325.921635 
L 81.964107 325.921635 
L 81.964107 314.637487 
L 81.364311 314.637487 
z
" style="fill:#1f77b4;"/>
   </g>
   <g id="patch_39">
    <path clip-path="url(#padebfa7139)" d="M 82.114056 325.921635 
L 82.713852 325.921635 
L 82.713852 313.585575 
L 82.114056 313.585575 
z
" style="fill:#1f77b4;"/>
   </g>
   <g id="patch_40">
    <path clip-path="url(#padebfa7139)" d="M 82.863801 325.921635 
L 83.463597 325.921635 
L 83.463597 312.089272 
L 82.863801 312.089272 
z
" style="fill:#1f77b4;"/>
   </g>
   <g id="patch_41">
    <path clip-path="url(#padebfa7139)" d="M 83.613546 325.921635 
L 84.213342 325.921635 
L 84.213342 310.789851 
L 83.613546 310.789851 
z
" style="fill:#1f77b4;"/>
   </g>
   <g id="patch_42">
    <path clip-path="url(#padebfa7139)" d="M 84.363291 325.921635 
L 84.963087 325.921635 
L 84.963087 309.563558 
L 84.363291 309.563558 
z
" style="fill:#1f77b4;"/>
   </g>
   <g id="patch_43">
    <path clip-path="url(#padebfa7139)" d="M 85.113036 325.921635 
L 85.712832 325.921635 
L 85.712832 307.36973 
L 85.113036 307.36973 
z
" style="fill:#1f77b4;"/>
   </g>
   <g id="patch_44">
    <path clip-path="url(#padebfa7139)" d="M 85.862781 325.921635 
L 86.462577 325.921635 
L 86.462577 306.126561 
L 85.862781 306.126561 
z
" style="fill:#1f77b4;"/>
   </g>
   <g id="patch_45">
    <path clip-path="url(#padebfa7139)" d="M 86.612526 325.921635 
L 87.212322 325.921635 
L 87.212322 303.426466 
L 86.612526 303.426466 
z
" style="fill:#1f77b4;"/>
   </g>
   <g id="patch_46">
    <path clip-path="url(#padebfa7139)" d="M 87.362271 325.921635 
L 87.962067 325.921635 
L 87.962067 300.568865 
L 87.362271 300.568865 
z
" style="fill:#1f77b4;"/>
   </g>
   <g id="patch_47">
    <path clip-path="url(#padebfa7139)" d="M 88.112016 325.921635 
L 88.711812 325.921635 
L 88.711812 298.369413 
L 88.112016 298.369413 
z
" style="fill:#1f77b4;"/>
   </g>
   <g id="patch_48">
    <path clip-path="url(#padebfa7139)" d="M 88.861761 325.921635 
L 89.461557 325.921635 
L 89.461557 295.781821 
L 88.861761 295.781821 
z
" style="fill:#1f77b4;"/>
   </g>
   <g id="patch_49">
    <path clip-path="url(#padebfa7139)" d="M 89.611506 325.921635 
L 90.211302 325.921635 
L 90.211302 293.722999 
L 89.611506 293.722999 
z
" style="fill:#1f77b4;"/>
   </g>
   <g id="patch_50">
    <path clip-path="url(#padebfa7139)" d="M 90.361251 325.921635 
L 90.961048 325.921635 
L 90.961048 291.079155 
L 90.361251 291.079155 
z
" style="fill:#1f77b4;"/>
   </g>
   <g id="patch_51">
    <path clip-path="url(#padebfa7139)" d="M 91.110997 325.921635 
L 91.710793 325.921635 
L 91.710793 287.24277 
L 91.110997 287.24277 
z
" style="fill:#1f77b4;"/>
   </g>
   <g id="patch_52">
    <path clip-path="url(#padebfa7139)" d="M 91.860742 325.921635 
L 92.460538 325.921635 
L 92.460538 284.666429 
L 91.860742 284.666429 
z
" style="fill:#1f77b4;"/>
   </g>
   <g id="patch_53">
    <path clip-path="url(#padebfa7139)" d="M 92.610487 325.921635 
L 93.210283 325.921635 
L 93.210283 280.104393 
L 92.610487 280.104393 
z
" style="fill:#1f77b4;"/>
   </g>
   <g id="patch_54">
    <path clip-path="url(#padebfa7139)" d="M 93.360232 325.921635 
L 93.960028 325.921635 
L 93.960028 277.303044 
L 93.360232 277.303044 
z
" style="fill:#1f77b4;"/>
   </g>
   <g id="patch_55">
    <path clip-path="url(#padebfa7139)" d="M 94.109977 325.921635 
L 94.709773 325.921635 
L 94.709773 276.0655 
L 94.109977 276.0655 
z
" style="fill:#1f77b4;"/>
   </g>
   <g id="patch_56">
    <path clip-path="url(#padebfa7139)" d="M 94.859722 325.921635 
L 95.459518 325.921635 
L 95.459518 273.466659 
L 94.859722 273.466659 
z
" style="fill:#1f77b4;"/>
   </g>
   <g id="patch_57">
    <path clip-path="url(#padebfa7139)" d="M 95.609467 325.921635 
L 96.209263 325.921635 
L 96.209263 270.339048 
L 95.609467 270.339048 
z
" style="fill:#1f77b4;"/>
   </g>
   <g id="patch_58">
    <path clip-path="url(#padebfa7139)" d="M 96.359212 325.921635 
L 96.959008 325.921635 
L 96.959008 265.034486 
L 96.359212 265.034486 
z
" style="fill:#1f77b4;"/>
   </g>
   <g id="patch_59">
    <path clip-path="url(#padebfa7139)" d="M 97.108957 325.921635 
L 97.708753 325.921635 
L 97.708753 260.74246 
L 97.108957 260.74246 
z
" style="fill:#1f77b4;"/>
   </g>
   <g id="patch_60">
    <path clip-path="url(#padebfa7139)" d="M 97.858702 325.921635 
L 98.458498 325.921635 
L 98.458498 255.775409 
L 97.858702 255.775409 
z
" style="fill:#1f77b4;"/>
   </g>
   <g id="patch_61">
    <path clip-path="url(#padebfa7139)" d="M 98.608447 325.921635 
L 99.208243 325.921635 
L 99.208243 251.247124 
L 98.608447 251.247124 
z
" style="fill:#1f77b4;"/>
   </g>
   <g id="patch_62">
    <path clip-path="url(#padebfa7139)" d="M 99.358192 325.921635 
L 99.957988 325.921635 
L 99.957988 248.473902 
L 99.358192 248.473902 
z
" style="fill:#1f77b4;"/>
   </g>
   <g id="patch_63">
    <path clip-path="url(#padebfa7139)" d="M 100.107937 325.921635 
L 100.707733 325.921635 
L 100.707733 245.430669 
L 100.107937 245.430669 
z
" style="fill:#1f77b4;"/>
   </g>
   <g id="patch_64">
    <path clip-path="url(#padebfa7139)" d="M 100.857683 325.921635 
L 101.457479 325.921635 
L 101.457479 242.100552 
L 100.857683 242.100552 
z
" style="fill:#1f77b4;"/>
   </g>
   <g id="patch_65">
    <path clip-path="url(#padebfa7139)" d="M 101.607428 325.921635 
L 102.207224 325.921635 
L 102.207224 238.23604 
L 101.607428 238.23604 
z
" style="fill:#1f77b4;"/>
   </g>
   <g id="patch_66">
    <path clip-path="url(#padebfa7139)" d="M 102.357173 325.921635 
L 102.956969 325.921635 
L 102.956969 234.742792 
L 102.357173 234.742792 
z
" style="fill:#1f77b4;"/>
   </g>
   <g id="patch_67">
    <path clip-path="url(#padebfa7139)" d="M 103.106918 325.921635 
L 103.706714 325.921635 
L 103.706714 221.922964 
L 103.106918 221.922964 
z
" style="fill:#1f77b4;"/>
   </g>
   <g id="patch_68">
    <path clip-path="url(#padebfa7139)" d="M 103.856663 325.921635 
L 104.456459 325.921635 
L 104.456459 216.500273 
L 103.856663 216.500273 
z
" style="fill:#1f77b4;"/>
   </g>
   <g id="patch_69">
    <path clip-path="url(#padebfa7139)" d="M 104.606408 325.921635 
L 105.206204 325.921635 
L 105.206204 212.888896 
L 104.606408 212.888896 
z
" style="fill:#1f77b4;"/>
   </g>
   <g id="patch_70">
    <path clip-path="url(#padebfa7139)" d="M 105.356153 325.921635 
L 105.955949 325.921635 
L 105.955949 206.431168 
L 105.356153 206.431168 
z
" style="fill:#1f77b4;"/>
   </g>
   <g id="patch_71">
    <path clip-path="url(#padebfa7139)" d="M 106.105898 325.921635 
L 106.705694 325.921635 
L 106.705694 199.017156 
L 106.105898 199.017156 
z
" style="fill:#1f77b4;"/>
   </g>
   <g id="patch_72">
    <path clip-path="url(#padebfa7139)" d="M 106.855643 325.921635 
L 107.455439 325.921635 
L 107.455439 191.417513 
L 106.855643 191.417513 
z
" style="fill:#1f77b4;"/>
   </g>
   <g id="patch_73">
    <path clip-path="url(#padebfa7139)" d="M 107.605388 325.921635 
L 108.205184 325.921635 
L 108.205184 181.016521 
L 107.605388 181.016521 
z
" style="fill:#1f77b4;"/>
   </g>
   <g id="patch_74">
    <path clip-path="url(#padebfa7139)" d="M 108.355133 325.921635 
L 108.954929 325.921635 
L 108.954929 175.245067 
L 108.355133 175.245067 
z
" style="fill:#1f77b4;"/>
   </g>
   <g id="patch_75">
    <path clip-path="url(#padebfa7139)" d="M 109.104878 325.921635 
L 109.704674 325.921635 
L 109.704674 169.771749 
L 109.104878 169.771749 
z
" style="fill:#1f77b4;"/>
   </g>
   <g id="patch_76">
    <path clip-path="url(#padebfa7139)" d="M 109.854623 325.921635 
L 110.454419 325.921635 
L 110.454419 166.357253 
L 109.854623 166.357253 
z
" style="fill:#1f77b4;"/>
   </g>
   <g id="patch_77">
    <path clip-path="url(#padebfa7139)" d="M 110.604368 325.921635 
L 111.204165 325.921635 
L 111.204165 163.612156 
L 110.604368 163.612156 
z
" style="fill:#1f77b4;"/>
   </g>
   <g id="patch_78">
    <path clip-path="url(#padebfa7139)" d="M 111.354114 325.921635 
L 111.95391 325.921635 
L 111.95391 157.62132 
L 111.354114 157.62132 
z
" style="fill:#1f77b4;"/>
   </g>
   <g id="patch_79">
    <path clip-path="url(#padebfa7139)" d="M 112.103859 325.921635 
L 112.703655 325.921635 
L 112.703655 153.154912 
L 112.103859 153.154912 
z
" style="fill:#1f77b4;"/>
   </g>
   <g id="patch_80">
    <path clip-path="url(#padebfa7139)" d="M 112.853604 325.921635 
L 113.4534 325.921635 
L 113.4534 144.480856 
L 112.853604 144.480856 
z
" style="fill:#1f77b4;"/>
   </g>
   <g id="patch_81">
    <path clip-path="url(#padebfa7139)" d="M 113.603349 325.921635 
L 114.203145 325.921635 
L 114.203145 137.888123 
L 113.603349 137.888123 
z
" style="fill:#1f77b4;"/>
   </g>
   <g id="patch_82">
    <path clip-path="url(#padebfa7139)" d="M 114.353094 325.921635 
L 114.95289 325.921635 
L 114.95289 132.133545 
L 114.353094 132.133545 
z
" style="fill:#1f77b4;"/>
   </g>
   <g id="patch_83">
    <path clip-path="url(#padebfa7139)" d="M 115.102839 325.921635 
L 115.702635 325.921635 
L 115.702635 129.602206 
L 115.102839 129.602206 
z
" style="fill:#1f77b4;"/>
   </g>
   <g id="patch_84">
    <path clip-path="url(#padebfa7139)" d="M 115.852584 325.921635 
L 116.45238 325.921635 
L 116.45238 126.182085 
L 115.852584 126.182085 
z
" style="fill:#1f77b4;"/>
   </g>
   <g id="patch_85">
    <path clip-path="url(#padebfa7139)" d="M 116.602329 325.921635 
L 117.202125 325.921635 
L 117.202125 120.810021 
L 116.602329 120.810021 
z
" style="fill:#1f77b4;"/>
   </g>
   <g id="patch_86">
    <path clip-path="url(#padebfa7139)" d="M 117.352074 325.921635 
L 117.95187 325.921635 
L 117.95187 114.937313 
L 117.352074 114.937313 
z
" style="fill:#1f77b4;"/>
   </g>
   <g id="patch_87">
    <path clip-path="url(#padebfa7139)" d="M 118.101819 325.921635 
L 118.701615 325.921635 
L 118.701615 109.289614 
L 118.101819 109.289614 
z
" style="fill:#1f77b4;"/>
   </g>
   <g id="patch_88">
    <path clip-path="url(#padebfa7139)" d="M 118.851564 325.921635 
L 119.45136 325.921635 
L 119.45136 104.508195 
L 118.851564 104.508195 
z
" style="fill:#1f77b4;"/>
   </g>
   <g id="patch_89">
    <path clip-path="url(#padebfa7139)" d="M 119.601309 325.921635 
L 120.201105 325.921635 
L 120.201105 99.552395 
L 119.601309 99.552395 
z
" style="fill:#1f77b4;"/>
   </g>
   <g id="patch_90">
    <path clip-path="url(#padebfa7139)" d="M 120.351054 325.921635 
L 120.95085 325.921635 
L 120.95085 96.947928 
L 120.351054 96.947928 
z
" style="fill:#1f77b4;"/>
   </g>
   <g id="patch_91">
    <path clip-path="url(#padebfa7139)" d="M 121.100799 325.921635 
L 121.700596 325.921635 
L 121.700596 95.232243 
L 121.100799 95.232243 
z
" style="fill:#1f77b4;"/>
   </g>
   <g id="patch_92">
    <path clip-path="url(#padebfa7139)" d="M 121.850545 325.921635 
L 122.450341 325.921635 
L 122.450341 90.028934 
L 121.850545 90.028934 
z
" style="fill:#1f77b4;"/>
   </g>
   <g id="patch_93">
    <path clip-path="url(#padebfa7139)" d="M 122.60029 325.921635 
L 123.200086 325.921635 
L 123.200086 84.071849 
L 122.60029 84.071849 
z
" style="fill:#1f77b4;"/>
   </g>
   <g id="patch_94">
    <path clip-path="url(#padebfa7139)" d="M 123.350035 325.921635 
L 123.949831 325.921635 
L 123.949831 79.132925 
L 123.350035 79.132925 
z
" style="fill:#1f77b4;"/>
   </g>
   <g id="patch_95">
    <path clip-path="url(#padebfa7139)" d="M 124.09978 325.921635 
L 124.699576 325.921635 
L 124.699576 74.638391 
L 124.09978 74.638391 
z
" style="fill:#1f77b4;"/>
   </g>
   <g id="patch_96">
    <path clip-path="url(#padebfa7139)" d="M 124.849525 325.921635 
L 125.449321 325.921635 
L 125.449321 71.319524 
L 124.849525 71.319524 
z
" style="fill:#1f77b4;"/>
   </g>
   <g id="patch_97">
    <path clip-path="url(#padebfa7139)" d="M 125.59927 325.921635 
L 126.199066 325.921635 
L 126.199066 69.935725 
L 125.59927 69.935725 
z
" style="fill:#1f77b4;"/>
   </g>
   <g id="patch_98">
    <path clip-path="url(#padebfa7139)" d="M 126.349015 325.921635 
L 126.948811 325.921635 
L 126.948811 64.760542 
L 126.349015 64.760542 
z
" style="fill:#1f77b4;"/>
   </g>
   <g id="patch_99">
    <path clip-path="url(#padebfa7139)" d="M 127.09876 325.921635 
L 127.698556 325.921635 
L 127.698556 59.028465 
L 127.09876 59.028465 
z
" style="fill:#1f77b4;"/>
   </g>
   <g id="patch_100">
    <path clip-path="url(#padebfa7139)" d="M 127.848505 325.921635 
L 128.448301 325.921635 
L 128.448301 52.390731 
L 127.848505 52.390731 
z
" style="fill:#1f77b4;"/>
   </g>
   <g id="patch_101">
    <path clip-path="url(#padebfa7139)" d="M 128.59825 325.921635 
L 129.198046 325.921635 
L 129.198046 46.236764 
L 128.59825 46.236764 
z
" style="fill:#1f77b4;"/>
   </g>
   <g id="patch_102">
    <path clip-path="url(#padebfa7139)" d="M 129.347995 325.921635 
L 129.947791 325.921635 
L 129.947791 38.372736 
L 129.347995 38.372736 
z
" style="fill:#1f77b4;"/>
   </g>
   <g id="patch_103">
    <path clip-path="url(#padebfa7139)" d="M 130.09774 325.921635 
L 130.697536 325.921635 
L 130.697536 32.775664 
L 130.09774 32.775664 
z
" style="fill:#1f77b4;"/>
   </g>
   <g id="matplotlib.axis_1">
    <g id="xtick_1">
     <g id="line2d_1">
      <defs>
       <path d="M 0 0 
L 0 3.5 
" id="m80b5a0c350" style="stroke:#000000;stroke-width:0.8;"/>
      </defs>
      <g>
       <use style="stroke:#000000;stroke-width:0.8;" x="55.423131" xlink:href="#m80b5a0c350" y="325.921635"/>
      </g>
     </g>
     <g id="text_1">
      <!-- 0 -->
      <defs>
       <path d="M 31.78125 66.40625 
Q 24.171875 66.40625 20.328125 58.90625 
Q 16.5 51.421875 16.5 36.375 
Q 16.5 21.390625 20.328125 13.890625 
Q 24.171875 6.390625 31.78125 6.390625 
Q 39.453125 6.390625 43.28125 13.890625 
Q 47.125 21.390625 47.125 36.375 
Q 47.125 51.421875 43.28125 58.90625 
Q 39.453125 66.40625 31.78125 66.40625 
z
M 31.78125 74.21875 
Q 44.046875 74.21875 50.515625 64.515625 
Q 56.984375 54.828125 56.984375 36.375 
Q 56.984375 17.96875 50.515625 8.265625 
Q 44.046875 -1.421875 31.78125 -1.421875 
Q 19.53125 -1.421875 13.0625 8.265625 
Q 6.59375 17.96875 6.59375 36.375 
Q 6.59375 54.828125 13.0625 64.515625 
Q 19.53125 74.21875 31.78125 74.21875 
z
" id="DejaVuSans-48"/>
      </defs>
      <g transform="translate(52.241881 340.520072)scale(0.1 -0.1)">
       <use xlink:href="#DejaVuSans-48"/>
      </g>
     </g>
    </g>
    <g id="xtick_2">
     <g id="line2d_2">
      <g>
       <use style="stroke:#000000;stroke-width:0.8;" x="130.397638" xlink:href="#m80b5a0c350" y="325.921635"/>
      </g>
     </g>
     <g id="text_2">
      <!-- 100 -->
      <defs>
       <path d="M 12.40625 8.296875 
L 28.515625 8.296875 
L 28.515625 63.921875 
L 10.984375 60.40625 
L 10.984375 69.390625 
L 28.421875 72.90625 
L 38.28125 72.90625 
L 38.28125 8.296875 
L 54.390625 8.296875 
L 54.390625 0 
L 12.40625 0 
z
" id="DejaVuSans-49"/>
      </defs>
      <g transform="translate(120.853888 340.520072)scale(0.1 -0.1)">
       <use xlink:href="#DejaVuSans-49"/>
       <use x="63.623047" xlink:href="#DejaVuSans-48"/>
       <use x="127.246094" xlink:href="#DejaVuSans-48"/>
      </g>
     </g>
    </g>
   </g>
   <g id="matplotlib.axis_2">
    <g id="ytick_1">
     <g id="line2d_3">
      <defs>
       <path d="M 0 0 
L -3.5 0 
" id="mfca156e2df" style="stroke:#000000;stroke-width:0.8;"/>
      </defs>
      <g>
       <use style="stroke:#000000;stroke-width:0.8;" x="51.344518" xlink:href="#mfca156e2df" y="325.921635"/>
      </g>
     </g>
     <g id="text_3">
      <!-- 0 -->
      <g transform="translate(37.982018 329.720854)scale(0.1 -0.1)">
       <use xlink:href="#DejaVuSans-48"/>
      </g>
     </g>
    </g>
    <g id="ytick_2">
     <g id="line2d_4">
      <g>
       <use style="stroke:#000000;stroke-width:0.8;" x="51.344518" xlink:href="#mfca156e2df" y="269.66965"/>
      </g>
     </g>
     <g id="text_4">
      <!-- 10000 -->
      <g transform="translate(12.532018 273.468868)scale(0.1 -0.1)">
       <use xlink:href="#DejaVuSans-49"/>
       <use x="63.623047" xlink:href="#DejaVuSans-48"/>
       <use x="127.246094" xlink:href="#DejaVuSans-48"/>
       <use x="190.869141" xlink:href="#DejaVuSans-48"/>
       <use x="254.492188" xlink:href="#DejaVuSans-48"/>
      </g>
     </g>
    </g>
    <g id="ytick_3">
     <g id="line2d_5">
      <g>
       <use style="stroke:#000000;stroke-width:0.8;" x="51.344518" xlink:href="#mfca156e2df" y="213.417664"/>
      </g>
     </g>
     <g id="text_5">
      <!-- 20000 -->
      <defs>
       <path d="M 19.1875 8.296875 
L 53.609375 8.296875 
L 53.609375 0 
L 7.328125 0 
L 7.328125 8.296875 
Q 12.9375 14.109375 22.625 23.890625 
Q 32.328125 33.6875 34.8125 36.53125 
Q 39.546875 41.84375 41.421875 45.53125 
Q 43.3125 49.21875 43.3125 52.78125 
Q 43.3125 58.59375 39.234375 62.25 
Q 35.15625 65.921875 28.609375 65.921875 
Q 23.96875 65.921875 18.8125 64.3125 
Q 13.671875 62.703125 7.8125 59.421875 
L 7.8125 69.390625 
Q 13.765625 71.78125 18.9375 73 
Q 24.125 74.21875 28.421875 74.21875 
Q 39.75 74.21875 46.484375 68.546875 
Q 53.21875 62.890625 53.21875 53.421875 
Q 53.21875 48.921875 51.53125 44.890625 
Q 49.859375 40.875 45.40625 35.40625 
Q 44.1875 33.984375 37.640625 27.21875 
Q 31.109375 20.453125 19.1875 8.296875 
z
" id="DejaVuSans-50"/>
      </defs>
      <g transform="translate(12.532018 217.216883)scale(0.1 -0.1)">
       <use xlink:href="#DejaVuSans-50"/>
       <use x="63.623047" xlink:href="#DejaVuSans-48"/>
       <use x="127.246094" xlink:href="#DejaVuSans-48"/>
       <use x="190.869141" xlink:href="#DejaVuSans-48"/>
       <use x="254.492188" xlink:href="#DejaVuSans-48"/>
      </g>
     </g>
    </g>
    <g id="ytick_4">
     <g id="line2d_6">
      <g>
       <use style="stroke:#000000;stroke-width:0.8;" x="51.344518" xlink:href="#mfca156e2df" y="157.165679"/>
      </g>
     </g>
     <g id="text_6">
      <!-- 30000 -->
      <defs>
       <path d="M 40.578125 39.3125 
Q 47.65625 37.796875 51.625 33 
Q 55.609375 28.21875 55.609375 21.1875 
Q 55.609375 10.40625 48.1875 4.484375 
Q 40.765625 -1.421875 27.09375 -1.421875 
Q 22.515625 -1.421875 17.65625 -0.515625 
Q 12.796875 0.390625 7.625 2.203125 
L 7.625 11.71875 
Q 11.71875 9.328125 16.59375 8.109375 
Q 21.484375 6.890625 26.8125 6.890625 
Q 36.078125 6.890625 40.9375 10.546875 
Q 45.796875 14.203125 45.796875 21.1875 
Q 45.796875 27.640625 41.28125 31.265625 
Q 36.765625 34.90625 28.71875 34.90625 
L 20.21875 34.90625 
L 20.21875 43.015625 
L 29.109375 43.015625 
Q 36.375 43.015625 40.234375 45.921875 
Q 44.09375 48.828125 44.09375 54.296875 
Q 44.09375 59.90625 40.109375 62.90625 
Q 36.140625 65.921875 28.71875 65.921875 
Q 24.65625 65.921875 20.015625 65.03125 
Q 15.375 64.15625 9.8125 62.3125 
L 9.8125 71.09375 
Q 15.4375 72.65625 20.34375 73.4375 
Q 25.25 74.21875 29.59375 74.21875 
Q 40.828125 74.21875 47.359375 69.109375 
Q 53.90625 64.015625 53.90625 55.328125 
Q 53.90625 49.265625 50.4375 45.09375 
Q 46.96875 40.921875 40.578125 39.3125 
z
" id="DejaVuSans-51"/>
      </defs>
      <g transform="translate(12.532018 160.964898)scale(0.1 -0.1)">
       <use xlink:href="#DejaVuSans-51"/>
       <use x="63.623047" xlink:href="#DejaVuSans-48"/>
       <use x="127.246094" xlink:href="#DejaVuSans-48"/>
       <use x="190.869141" xlink:href="#DejaVuSans-48"/>
       <use x="254.492188" xlink:href="#DejaVuSans-48"/>
      </g>
     </g>
    </g>
    <g id="ytick_5">
     <g id="line2d_7">
      <g>
       <use style="stroke:#000000;stroke-width:0.8;" x="51.344518" xlink:href="#mfca156e2df" y="100.913693"/>
      </g>
     </g>
     <g id="text_7">
      <!-- 40000 -->
      <defs>
       <path d="M 37.796875 64.3125 
L 12.890625 25.390625 
L 37.796875 25.390625 
z
M 35.203125 72.90625 
L 47.609375 72.90625 
L 47.609375 25.390625 
L 58.015625 25.390625 
L 58.015625 17.1875 
L 47.609375 17.1875 
L 47.609375 0 
L 37.796875 0 
L 37.796875 17.1875 
L 4.890625 17.1875 
L 4.890625 26.703125 
z
" id="DejaVuSans-52"/>
      </defs>
      <g transform="translate(12.532018 104.712912)scale(0.1 -0.1)">
       <use xlink:href="#DejaVuSans-52"/>
       <use x="63.623047" xlink:href="#DejaVuSans-48"/>
       <use x="127.246094" xlink:href="#DejaVuSans-48"/>
       <use x="190.869141" xlink:href="#DejaVuSans-48"/>
       <use x="254.492188" xlink:href="#DejaVuSans-48"/>
      </g>
     </g>
    </g>
    <g id="ytick_6">
     <g id="line2d_8">
      <g>
       <use style="stroke:#000000;stroke-width:0.8;" x="51.344518" xlink:href="#mfca156e2df" y="44.661708"/>
      </g>
     </g>
     <g id="text_8">
      <!-- 50000 -->
      <defs>
       <path d="M 10.796875 72.90625 
L 49.515625 72.90625 
L 49.515625 64.59375 
L 19.828125 64.59375 
L 19.828125 46.734375 
Q 21.96875 47.46875 24.109375 47.828125 
Q 26.265625 48.1875 28.421875 48.1875 
Q 40.625 48.1875 47.75 41.5 
Q 54.890625 34.8125 54.890625 23.390625 
Q 54.890625 11.625 47.5625 5.09375 
Q 40.234375 -1.421875 26.90625 -1.421875 
Q 22.3125 -1.421875 17.546875 -0.640625 
Q 12.796875 0.140625 7.71875 1.703125 
L 7.71875 11.625 
Q 12.109375 9.234375 16.796875 8.0625 
Q 21.484375 6.890625 26.703125 6.890625 
Q 35.15625 6.890625 40.078125 11.328125 
Q 45.015625 15.765625 45.015625 23.390625 
Q 45.015625 31 40.078125 35.4375 
Q 35.15625 39.890625 26.703125 39.890625 
Q 22.75 39.890625 18.8125 39.015625 
Q 14.890625 38.140625 10.796875 36.28125 
z
" id="DejaVuSans-53"/>
      </defs>
      <g transform="translate(12.532018 48.460927)scale(0.1 -0.1)">
       <use xlink:href="#DejaVuSans-53"/>
       <use x="63.623047" xlink:href="#DejaVuSans-48"/>
       <use x="127.246094" xlink:href="#DejaVuSans-48"/>
       <use x="190.869141" xlink:href="#DejaVuSans-48"/>
       <use x="254.492188" xlink:href="#DejaVuSans-48"/>
      </g>
     </g>
    </g>
   </g>
   <g id="line2d_9">
    <path clip-path="url(#padebfa7139)" d="M 55.423131 325.889786 
L 56.172876 325.879377 
L 56.922621 325.865964 
L 57.672366 325.850037 
L 58.422111 325.831798 
L 59.171856 325.811636 
L 59.921602 325.789941 
L 60.671347 325.767042 
L 61.421092 325.743088 
L 62.170837 325.718029 
L 62.920582 325.69163 
L 63.670327 325.663368 
L 64.420072 325.632358 
L 65.169817 325.597264 
L 65.919562 325.556206 
L 66.669307 325.506577 
L 67.419052 325.444934 
L 68.168797 325.366891 
L 68.918542 325.267013 
L 69.668287 325.138542 
L 70.418033 324.974146 
L 71.167778 324.765831 
L 71.917523 324.505755 
L 72.667268 324.18633 
L 73.417013 323.80057 
L 74.166758 323.342494 
L 74.916503 322.808136 
L 75.666248 322.194513 
L 76.415993 321.499974 
L 77.165738 320.723469 
L 77.915483 319.86491 
L 78.665228 318.924221 
L 79.414973 317.901109 
L 80.164718 316.793627 
L 80.914464 315.598712 
L 81.664209 314.312371 
L 82.413954 312.928776 
L 83.163699 311.440284 
L 83.913444 309.838815 
L 84.663189 308.1159 
L 85.412934 306.264994 
L 86.162679 304.281679 
L 86.912424 302.163041 
L 87.662169 299.910248 
L 88.411914 297.527036 
L 89.161659 295.019538 
L 89.911404 292.395726 
L 90.66115 289.661563 
L 91.410895 286.820657 
L 92.16064 283.874665 
L 92.910385 280.822537 
L 93.66013 277.663516 
L 94.409875 274.392996 
L 95.15962 271.003848 
L 95.909365 267.490212 
L 96.65911 263.846304 
L 97.408855 260.064549 
L 98.1586 256.131474 
L 98.908345 252.021635 
L 99.65809 247.710571 
L 100.407835 243.17399 
L 101.157581 238.386421 
L 101.907326 233.326694 
L 102.657071 227.983585 
L 103.406816 222.364197 
L 104.156561 216.505024 
L 104.906306 210.453161 
L 105.656051 204.265848 
L 106.405796 198.010187 
L 107.155541 191.754139 
L 107.905286 185.559987 
L 108.655031 179.474567 
L 109.404776 173.519408 
L 110.154521 167.704588 
L 110.904266 162.02973 
L 111.654012 156.483462 
L 112.403757 151.051032 
L 113.153502 145.717081 
L 113.903247 140.47284 
L 114.652992 135.317677 
L 115.402737 130.252991 
L 116.152482 125.281564 
L 116.902227 120.409186 
L 117.651972 115.638692 
L 118.401717 110.969712 
L 119.151462 106.39543 
L 119.901207 101.904256 
L 120.650952 97.480668 
L 121.400698 93.103336 
L 122.150443 88.741146 
L 122.900188 84.358816 
L 123.649933 79.917568 
L 124.399678 75.37752 
L 125.149423 70.697709 
L 125.899168 65.839962 
L 126.648913 60.785966 
L 127.398658 55.527877 
L 128.148403 50.066987 
L 128.898148 44.474647 
L 129.647893 38.760287 
L 130.397638 32.940123 
" style="fill:none;stroke:#ff0000;stroke-linecap:square;stroke-width:1.5;"/>
   </g>
   <g id="patch_104">
    <path d="M 51.344518 325.921635 
L 51.344518 18.118365 
" style="fill:none;stroke:#000000;stroke-linecap:square;stroke-linejoin:miter;stroke-width:0.8;"/>
   </g>
   <g id="patch_105">
    <path d="M 134.476252 325.921635 
L 134.476252 18.118365 
" style="fill:none;stroke:#000000;stroke-linecap:square;stroke-linejoin:miter;stroke-width:0.8;"/>
   </g>
   <g id="patch_106">
    <path d="M 51.344518 325.921635 
L 134.476252 325.921635 
" style="fill:none;stroke:#000000;stroke-linecap:square;stroke-linejoin:miter;stroke-width:0.8;"/>
   </g>
   <g id="patch_107">
    <path d="M 51.344518 18.118365 
L 134.476252 18.118365 
" style="fill:none;stroke:#000000;stroke-linecap:square;stroke-linejoin:miter;stroke-width:0.8;"/>
   </g>
   <g id="text_9">
    <!-- Casos acumulados - PE - (data) -->
    <defs>
     <path d="M 64.40625 67.28125 
L 64.40625 56.890625 
Q 59.421875 61.53125 53.78125 63.8125 
Q 48.140625 66.109375 41.796875 66.109375 
Q 29.296875 66.109375 22.65625 58.46875 
Q 16.015625 50.828125 16.015625 36.375 
Q 16.015625 21.96875 22.65625 14.328125 
Q 29.296875 6.6875 41.796875 6.6875 
Q 48.140625 6.6875 53.78125 8.984375 
Q 59.421875 11.28125 64.40625 15.921875 
L 64.40625 5.609375 
Q 59.234375 2.09375 53.4375 0.328125 
Q 47.65625 -1.421875 41.21875 -1.421875 
Q 24.65625 -1.421875 15.125 8.703125 
Q 5.609375 18.84375 5.609375 36.375 
Q 5.609375 53.953125 15.125 64.078125 
Q 24.65625 74.21875 41.21875 74.21875 
Q 47.75 74.21875 53.53125 72.484375 
Q 59.328125 70.75 64.40625 67.28125 
z
" id="DejaVuSans-67"/>
     <path d="M 34.28125 27.484375 
Q 23.390625 27.484375 19.1875 25 
Q 14.984375 22.515625 14.984375 16.5 
Q 14.984375 11.71875 18.140625 8.90625 
Q 21.296875 6.109375 26.703125 6.109375 
Q 34.1875 6.109375 38.703125 11.40625 
Q 43.21875 16.703125 43.21875 25.484375 
L 43.21875 27.484375 
z
M 52.203125 31.203125 
L 52.203125 0 
L 43.21875 0 
L 43.21875 8.296875 
Q 40.140625 3.328125 35.546875 0.953125 
Q 30.953125 -1.421875 24.3125 -1.421875 
Q 15.921875 -1.421875 10.953125 3.296875 
Q 6 8.015625 6 15.921875 
Q 6 25.140625 12.171875 29.828125 
Q 18.359375 34.515625 30.609375 34.515625 
L 43.21875 34.515625 
L 43.21875 35.40625 
Q 43.21875 41.609375 39.140625 45 
Q 35.0625 48.390625 27.6875 48.390625 
Q 23 48.390625 18.546875 47.265625 
Q 14.109375 46.140625 10.015625 43.890625 
L 10.015625 52.203125 
Q 14.9375 54.109375 19.578125 55.046875 
Q 24.21875 56 28.609375 56 
Q 40.484375 56 46.34375 49.84375 
Q 52.203125 43.703125 52.203125 31.203125 
z
" id="DejaVuSans-97"/>
     <path d="M 44.28125 53.078125 
L 44.28125 44.578125 
Q 40.484375 46.53125 36.375 47.5 
Q 32.28125 48.484375 27.875 48.484375 
Q 21.1875 48.484375 17.84375 46.4375 
Q 14.5 44.390625 14.5 40.28125 
Q 14.5 37.15625 16.890625 35.375 
Q 19.28125 33.59375 26.515625 31.984375 
L 29.59375 31.296875 
Q 39.15625 29.25 43.1875 25.515625 
Q 47.21875 21.78125 47.21875 15.09375 
Q 47.21875 7.46875 41.1875 3.015625 
Q 35.15625 -1.421875 24.609375 -1.421875 
Q 20.21875 -1.421875 15.453125 -0.5625 
Q 10.6875 0.296875 5.421875 2 
L 5.421875 11.28125 
Q 10.40625 8.6875 15.234375 7.390625 
Q 20.0625 6.109375 24.8125 6.109375 
Q 31.15625 6.109375 34.5625 8.28125 
Q 37.984375 10.453125 37.984375 14.40625 
Q 37.984375 18.0625 35.515625 20.015625 
Q 33.0625 21.96875 24.703125 23.78125 
L 21.578125 24.515625 
Q 13.234375 26.265625 9.515625 29.90625 
Q 5.8125 33.546875 5.8125 39.890625 
Q 5.8125 47.609375 11.28125 51.796875 
Q 16.75 56 26.8125 56 
Q 31.78125 56 36.171875 55.265625 
Q 40.578125 54.546875 44.28125 53.078125 
z
" id="DejaVuSans-115"/>
     <path d="M 30.609375 48.390625 
Q 23.390625 48.390625 19.1875 42.75 
Q 14.984375 37.109375 14.984375 27.296875 
Q 14.984375 17.484375 19.15625 11.84375 
Q 23.34375 6.203125 30.609375 6.203125 
Q 37.796875 6.203125 41.984375 11.859375 
Q 46.1875 17.53125 46.1875 27.296875 
Q 46.1875 37.015625 41.984375 42.703125 
Q 37.796875 48.390625 30.609375 48.390625 
z
M 30.609375 56 
Q 42.328125 56 49.015625 48.375 
Q 55.71875 40.765625 55.71875 27.296875 
Q 55.71875 13.875 49.015625 6.21875 
Q 42.328125 -1.421875 30.609375 -1.421875 
Q 18.84375 -1.421875 12.171875 6.21875 
Q 5.515625 13.875 5.515625 27.296875 
Q 5.515625 40.765625 12.171875 48.375 
Q 18.84375 56 30.609375 56 
z
" id="DejaVuSans-111"/>
     <path id="DejaVuSans-32"/>
     <path d="M 48.78125 52.59375 
L 48.78125 44.1875 
Q 44.96875 46.296875 41.140625 47.34375 
Q 37.3125 48.390625 33.40625 48.390625 
Q 24.65625 48.390625 19.8125 42.84375 
Q 14.984375 37.3125 14.984375 27.296875 
Q 14.984375 17.28125 19.8125 11.734375 
Q 24.65625 6.203125 33.40625 6.203125 
Q 37.3125 6.203125 41.140625 7.25 
Q 44.96875 8.296875 48.78125 10.40625 
L 48.78125 2.09375 
Q 45.015625 0.34375 40.984375 -0.53125 
Q 36.96875 -1.421875 32.421875 -1.421875 
Q 20.0625 -1.421875 12.78125 6.34375 
Q 5.515625 14.109375 5.515625 27.296875 
Q 5.515625 40.671875 12.859375 48.328125 
Q 20.21875 56 33.015625 56 
Q 37.15625 56 41.109375 55.140625 
Q 45.0625 54.296875 48.78125 52.59375 
z
" id="DejaVuSans-99"/>
     <path d="M 8.5 21.578125 
L 8.5 54.6875 
L 17.484375 54.6875 
L 17.484375 21.921875 
Q 17.484375 14.15625 20.5 10.265625 
Q 23.53125 6.390625 29.59375 6.390625 
Q 36.859375 6.390625 41.078125 11.03125 
Q 45.3125 15.671875 45.3125 23.6875 
L 45.3125 54.6875 
L 54.296875 54.6875 
L 54.296875 0 
L 45.3125 0 
L 45.3125 8.40625 
Q 42.046875 3.421875 37.71875 1 
Q 33.40625 -1.421875 27.6875 -1.421875 
Q 18.265625 -1.421875 13.375 4.4375 
Q 8.5 10.296875 8.5 21.578125 
z
M 31.109375 56 
z
" id="DejaVuSans-117"/>
     <path d="M 52 44.1875 
Q 55.375 50.25 60.0625 53.125 
Q 64.75 56 71.09375 56 
Q 79.640625 56 84.28125 50.015625 
Q 88.921875 44.046875 88.921875 33.015625 
L 88.921875 0 
L 79.890625 0 
L 79.890625 32.71875 
Q 79.890625 40.578125 77.09375 44.375 
Q 74.3125 48.1875 68.609375 48.1875 
Q 61.625 48.1875 57.5625 43.546875 
Q 53.515625 38.921875 53.515625 30.90625 
L 53.515625 0 
L 44.484375 0 
L 44.484375 32.71875 
Q 44.484375 40.625 41.703125 44.40625 
Q 38.921875 48.1875 33.109375 48.1875 
Q 26.21875 48.1875 22.15625 43.53125 
Q 18.109375 38.875 18.109375 30.90625 
L 18.109375 0 
L 9.078125 0 
L 9.078125 54.6875 
L 18.109375 54.6875 
L 18.109375 46.1875 
Q 21.1875 51.21875 25.484375 53.609375 
Q 29.78125 56 35.6875 56 
Q 41.65625 56 45.828125 52.96875 
Q 50 49.953125 52 44.1875 
z
" id="DejaVuSans-109"/>
     <path d="M 9.421875 75.984375 
L 18.40625 75.984375 
L 18.40625 0 
L 9.421875 0 
z
" id="DejaVuSans-108"/>
     <path d="M 45.40625 46.390625 
L 45.40625 75.984375 
L 54.390625 75.984375 
L 54.390625 0 
L 45.40625 0 
L 45.40625 8.203125 
Q 42.578125 3.328125 38.25 0.953125 
Q 33.9375 -1.421875 27.875 -1.421875 
Q 17.96875 -1.421875 11.734375 6.484375 
Q 5.515625 14.40625 5.515625 27.296875 
Q 5.515625 40.1875 11.734375 48.09375 
Q 17.96875 56 27.875 56 
Q 33.9375 56 38.25 53.625 
Q 42.578125 51.265625 45.40625 46.390625 
z
M 14.796875 27.296875 
Q 14.796875 17.390625 18.875 11.75 
Q 22.953125 6.109375 30.078125 6.109375 
Q 37.203125 6.109375 41.296875 11.75 
Q 45.40625 17.390625 45.40625 27.296875 
Q 45.40625 37.203125 41.296875 42.84375 
Q 37.203125 48.484375 30.078125 48.484375 
Q 22.953125 48.484375 18.875 42.84375 
Q 14.796875 37.203125 14.796875 27.296875 
z
" id="DejaVuSans-100"/>
     <path d="M 4.890625 31.390625 
L 31.203125 31.390625 
L 31.203125 23.390625 
L 4.890625 23.390625 
z
" id="DejaVuSans-45"/>
     <path d="M 19.671875 64.796875 
L 19.671875 37.40625 
L 32.078125 37.40625 
Q 38.96875 37.40625 42.71875 40.96875 
Q 46.484375 44.53125 46.484375 51.125 
Q 46.484375 57.671875 42.71875 61.234375 
Q 38.96875 64.796875 32.078125 64.796875 
z
M 9.8125 72.90625 
L 32.078125 72.90625 
Q 44.34375 72.90625 50.609375 67.359375 
Q 56.890625 61.8125 56.890625 51.125 
Q 56.890625 40.328125 50.609375 34.8125 
Q 44.34375 29.296875 32.078125 29.296875 
L 19.671875 29.296875 
L 19.671875 0 
L 9.8125 0 
z
" id="DejaVuSans-80"/>
     <path d="M 9.8125 72.90625 
L 55.90625 72.90625 
L 55.90625 64.59375 
L 19.671875 64.59375 
L 19.671875 43.015625 
L 54.390625 43.015625 
L 54.390625 34.71875 
L 19.671875 34.71875 
L 19.671875 8.296875 
L 56.78125 8.296875 
L 56.78125 0 
L 9.8125 0 
z
" id="DejaVuSans-69"/>
     <path d="M 31 75.875 
Q 24.46875 64.65625 21.28125 53.65625 
Q 18.109375 42.671875 18.109375 31.390625 
Q 18.109375 20.125 21.3125 9.0625 
Q 24.515625 -2 31 -13.1875 
L 23.1875 -13.1875 
Q 15.875 -1.703125 12.234375 9.375 
Q 8.59375 20.453125 8.59375 31.390625 
Q 8.59375 42.28125 12.203125 53.3125 
Q 15.828125 64.359375 23.1875 75.875 
z
" id="DejaVuSans-40"/>
     <path d="M 18.3125 70.21875 
L 18.3125 54.6875 
L 36.8125 54.6875 
L 36.8125 47.703125 
L 18.3125 47.703125 
L 18.3125 18.015625 
Q 18.3125 11.328125 20.140625 9.421875 
Q 21.96875 7.515625 27.59375 7.515625 
L 36.8125 7.515625 
L 36.8125 0 
L 27.59375 0 
Q 17.1875 0 13.234375 3.875 
Q 9.28125 7.765625 9.28125 18.015625 
L 9.28125 47.703125 
L 2.6875 47.703125 
L 2.6875 54.6875 
L 9.28125 54.6875 
L 9.28125 70.21875 
z
" id="DejaVuSans-116"/>
     <path d="M 8.015625 75.875 
L 15.828125 75.875 
Q 23.140625 64.359375 26.78125 53.3125 
Q 30.421875 42.28125 30.421875 31.390625 
Q 30.421875 20.453125 26.78125 9.375 
Q 23.140625 -1.703125 15.828125 -13.1875 
L 8.015625 -13.1875 
Q 14.5 -2 17.703125 9.0625 
Q 20.90625 20.125 20.90625 31.390625 
Q 20.90625 42.671875 17.703125 53.65625 
Q 14.5 64.65625 8.015625 75.875 
z
" id="DejaVuSans-41"/>
    </defs>
    <g transform="translate(-0.723365 12.118365)scale(0.12 -0.12)">
     <use xlink:href="#DejaVuSans-67"/>
     <use x="69.824219" xlink:href="#DejaVuSans-97"/>
     <use x="131.103516" xlink:href="#DejaVuSans-115"/>
     <use x="183.203125" xlink:href="#DejaVuSans-111"/>
     <use x="244.384766" xlink:href="#DejaVuSans-115"/>
     <use x="296.484375" xlink:href="#DejaVuSans-32"/>
     <use x="328.271484" xlink:href="#DejaVuSans-97"/>
     <use x="389.550781" xlink:href="#DejaVuSans-99"/>
     <use x="444.53125" xlink:href="#DejaVuSans-117"/>
     <use x="507.910156" xlink:href="#DejaVuSans-109"/>
     <use x="605.322266" xlink:href="#DejaVuSans-117"/>
     <use x="668.701172" xlink:href="#DejaVuSans-108"/>
     <use x="696.484375" xlink:href="#DejaVuSans-97"/>
     <use x="757.763672" xlink:href="#DejaVuSans-100"/>
     <use x="821.240234" xlink:href="#DejaVuSans-111"/>
     <use x="882.421875" xlink:href="#DejaVuSans-115"/>
     <use x="934.521484" xlink:href="#DejaVuSans-32"/>
     <use x="966.308594" xlink:href="#DejaVuSans-45"/>
     <use x="1002.392578" xlink:href="#DejaVuSans-32"/>
     <use x="1034.179688" xlink:href="#DejaVuSans-80"/>
     <use x="1094.482422" xlink:href="#DejaVuSans-69"/>
     <use x="1157.666016" xlink:href="#DejaVuSans-32"/>
     <use x="1189.453125" xlink:href="#DejaVuSans-45"/>
     <use x="1225.537109" xlink:href="#DejaVuSans-32"/>
     <use x="1257.324219" xlink:href="#DejaVuSans-40"/>
     <use x="1296.337891" xlink:href="#DejaVuSans-100"/>
     <use x="1359.814453" xlink:href="#DejaVuSans-97"/>
     <use x="1421.09375" xlink:href="#DejaVuSans-116"/>
     <use x="1460.302734" xlink:href="#DejaVuSans-97"/>
     <use x="1521.582031" xlink:href="#DejaVuSans-41"/>
    </g>
   </g>
  </g>
  <g id="axes_2">
   <g id="patch_108">
    <path d="M 224.343009 325.921635 
L 307.474743 325.921635 
L 307.474743 18.118365 
L 224.343009 18.118365 
z
" style="fill:#ffffff;"/>
   </g>
   <g id="patch_109">
    <path clip-path="url(#p744a065118)" d="M 228.121725 325.921635 
L 228.721521 325.921635 
L 228.721521 325.921635 
L 228.121725 325.921635 
z
" style="fill:#1f77b4;"/>
   </g>
   <g id="patch_110">
    <path clip-path="url(#p744a065118)" d="M 228.87147 325.921635 
L 229.471266 325.921635 
L 229.471266 325.921635 
L 228.87147 325.921635 
z
" style="fill:#1f77b4;"/>
   </g>
   <g id="patch_111">
    <path clip-path="url(#p744a065118)" d="M 229.621215 325.921635 
L 230.221011 325.921635 
L 230.221011 325.921635 
L 229.621215 325.921635 
z
" style="fill:#1f77b4;"/>
   </g>
   <g id="patch_112">
    <path clip-path="url(#p744a065118)" d="M 230.37096 325.921635 
L 230.970756 325.921635 
L 230.970756 325.921635 
L 230.37096 325.921635 
z
" style="fill:#1f77b4;"/>
   </g>
   <g id="patch_113">
    <path clip-path="url(#p744a065118)" d="M 231.120705 325.921635 
L 231.720501 325.921635 
L 231.720501 324.120826 
L 231.120705 324.120826 
z
" style="fill:#1f77b4;"/>
   </g>
   <g id="patch_114">
    <path clip-path="url(#p744a065118)" d="M 231.87045 325.921635 
L 232.470246 325.921635 
L 232.470246 325.921635 
L 231.87045 325.921635 
z
" style="fill:#1f77b4;"/>
   </g>
   <g id="patch_115">
    <path clip-path="url(#p744a065118)" d="M 232.620195 325.921635 
L 233.219991 325.921635 
L 233.219991 324.378084 
L 232.620195 324.378084 
z
" style="fill:#1f77b4;"/>
   </g>
   <g id="patch_116">
    <path clip-path="url(#p744a065118)" d="M 233.36994 325.921635 
L 233.969736 325.921635 
L 233.969736 325.664377 
L 233.36994 325.664377 
z
" style="fill:#1f77b4;"/>
   </g>
   <g id="patch_117">
    <path clip-path="url(#p744a065118)" d="M 234.119685 325.921635 
L 234.719481 325.921635 
L 234.719481 325.921635 
L 234.119685 325.921635 
z
" style="fill:#1f77b4;"/>
   </g>
   <g id="patch_118">
    <path clip-path="url(#p744a065118)" d="M 234.86943 325.921635 
L 235.469226 325.921635 
L 235.469226 325.021231 
L 234.86943 325.021231 
z
" style="fill:#1f77b4;"/>
   </g>
   <g id="patch_119">
    <path clip-path="url(#p744a065118)" d="M 235.619175 325.921635 
L 236.218971 325.921635 
L 236.218971 325.278489 
L 235.619175 325.278489 
z
" style="fill:#1f77b4;"/>
   </g>
   <g id="patch_120">
    <path clip-path="url(#p744a065118)" d="M 236.36892 325.921635 
L 236.968716 325.921635 
L 236.968716 325.921635 
L 236.36892 325.921635 
z
" style="fill:#1f77b4;"/>
   </g>
   <g id="patch_121">
    <path clip-path="url(#p744a065118)" d="M 237.118666 325.921635 
L 237.718462 325.921635 
L 237.718462 325.407118 
L 237.118666 325.407118 
z
" style="fill:#1f77b4;"/>
   </g>
   <g id="patch_122">
    <path clip-path="url(#p744a065118)" d="M 237.868411 325.921635 
L 238.468207 325.921635 
L 238.468207 325.664377 
L 237.868411 325.664377 
z
" style="fill:#1f77b4;"/>
   </g>
   <g id="patch_123">
    <path clip-path="url(#p744a065118)" d="M 238.618156 325.921635 
L 239.217952 325.921635 
L 239.217952 324.892601 
L 238.618156 324.892601 
z
" style="fill:#1f77b4;"/>
   </g>
   <g id="patch_124">
    <path clip-path="url(#p744a065118)" d="M 239.367901 325.921635 
L 239.967697 325.921635 
L 239.967697 324.378084 
L 239.367901 324.378084 
z
" style="fill:#1f77b4;"/>
   </g>
   <g id="patch_125">
    <path clip-path="url(#p744a065118)" d="M 240.117646 325.921635 
L 240.717442 325.921635 
L 240.717442 325.278489 
L 240.117646 325.278489 
z
" style="fill:#1f77b4;"/>
   </g>
   <g id="patch_126">
    <path clip-path="url(#p744a065118)" d="M 240.867391 325.921635 
L 241.467187 325.921635 
L 241.467187 325.278489 
L 240.867391 325.278489 
z
" style="fill:#1f77b4;"/>
   </g>
   <g id="patch_127">
    <path clip-path="url(#p744a065118)" d="M 241.617136 325.921635 
L 242.216932 325.921635 
L 242.216932 324.763972 
L 241.617136 324.763972 
z
" style="fill:#1f77b4;"/>
   </g>
   <g id="patch_128">
    <path clip-path="url(#p744a065118)" d="M 242.366881 325.921635 
L 242.966677 325.921635 
L 242.966677 324.892601 
L 242.366881 324.892601 
z
" style="fill:#1f77b4;"/>
   </g>
   <g id="patch_129">
    <path clip-path="url(#p744a065118)" d="M 243.116626 325.921635 
L 243.716422 325.921635 
L 243.716422 324.506714 
L 243.116626 324.506714 
z
" style="fill:#1f77b4;"/>
   </g>
   <g id="patch_130">
    <path clip-path="url(#p744a065118)" d="M 243.866371 325.921635 
L 244.466167 325.921635 
L 244.466167 322.062759 
L 243.866371 322.062759 
z
" style="fill:#1f77b4;"/>
   </g>
   <g id="patch_131">
    <path clip-path="url(#p744a065118)" d="M 244.616116 325.921635 
L 245.215912 325.921635 
L 245.215912 320.776467 
L 244.616116 320.776467 
z
" style="fill:#1f77b4;"/>
   </g>
   <g id="patch_132">
    <path clip-path="url(#p744a065118)" d="M 245.365861 325.921635 
L 245.965657 325.921635 
L 245.965657 322.705905 
L 245.365861 322.705905 
z
" style="fill:#1f77b4;"/>
   </g>
   <g id="patch_133">
    <path clip-path="url(#p744a065118)" d="M 246.115606 325.921635 
L 246.715402 325.921635 
L 246.715402 323.091792 
L 246.115606 323.091792 
z
" style="fill:#1f77b4;"/>
   </g>
   <g id="patch_134">
    <path clip-path="url(#p744a065118)" d="M 246.865351 325.921635 
L 247.465148 325.921635 
L 247.465148 309.328467 
L 246.865351 309.328467 
z
" style="fill:#1f77b4;"/>
   </g>
   <g id="patch_135">
    <path clip-path="url(#p744a065118)" d="M 247.615097 325.921635 
L 248.214893 325.921635 
L 248.214893 319.618804 
L 247.615097 319.618804 
z
" style="fill:#1f77b4;"/>
   </g>
   <g id="patch_136">
    <path clip-path="url(#p744a065118)" d="M 248.364842 325.921635 
L 248.964638 325.921635 
L 248.964638 306.112737 
L 248.364842 306.112737 
z
" style="fill:#1f77b4;"/>
   </g>
   <g id="patch_137">
    <path clip-path="url(#p744a065118)" d="M 249.114587 325.921635 
L 249.714383 325.921635 
L 249.714383 309.328467 
L 249.114587 309.328467 
z
" style="fill:#1f77b4;"/>
   </g>
   <g id="patch_138">
    <path clip-path="url(#p744a065118)" d="M 249.864332 325.921635 
L 250.464128 325.921635 
L 250.464128 308.942579 
L 249.864332 308.942579 
z
" style="fill:#1f77b4;"/>
   </g>
   <g id="patch_139">
    <path clip-path="url(#p744a065118)" d="M 250.614077 325.921635 
L 251.213873 325.921635 
L 251.213873 307.399029 
L 250.614077 307.399029 
z
" style="fill:#1f77b4;"/>
   </g>
   <g id="patch_140">
    <path clip-path="url(#p744a065118)" d="M 251.363822 325.921635 
L 251.963618 325.921635 
L 251.963618 300.967568 
L 251.363822 300.967568 
z
" style="fill:#1f77b4;"/>
   </g>
   <g id="patch_141">
    <path clip-path="url(#p744a065118)" d="M 252.113567 325.921635 
L 252.713363 325.921635 
L 252.713363 309.199838 
L 252.113567 309.199838 
z
" style="fill:#1f77b4;"/>
   </g>
   <g id="patch_142">
    <path clip-path="url(#p744a065118)" d="M 252.863312 325.921635 
L 253.463108 325.921635 
L 253.463108 300.195793 
L 252.863312 300.195793 
z
" style="fill:#1f77b4;"/>
   </g>
   <g id="patch_143">
    <path clip-path="url(#p744a065118)" d="M 253.613057 325.921635 
L 254.212853 325.921635 
L 254.212853 300.324422 
L 253.613057 300.324422 
z
" style="fill:#1f77b4;"/>
   </g>
   <g id="patch_144">
    <path clip-path="url(#p744a065118)" d="M 254.362802 325.921635 
L 254.962598 325.921635 
L 254.962598 284.3744 
L 254.362802 284.3744 
z
" style="fill:#1f77b4;"/>
   </g>
   <g id="patch_145">
    <path clip-path="url(#p744a065118)" d="M 255.112547 325.921635 
L 255.712343 325.921635 
L 255.712343 301.867973 
L 255.112547 301.867973 
z
" style="fill:#1f77b4;"/>
   </g>
   <g id="patch_146">
    <path clip-path="url(#p744a065118)" d="M 255.862292 325.921635 
L 256.462088 325.921635 
L 256.462088 291.706265 
L 255.862292 291.706265 
z
" style="fill:#1f77b4;"/>
   </g>
   <g id="patch_147">
    <path clip-path="url(#p744a065118)" d="M 256.612037 325.921635 
L 257.211833 325.921635 
L 257.211833 296.208287 
L 256.612037 296.208287 
z
" style="fill:#1f77b4;"/>
   </g>
   <g id="patch_148">
    <path clip-path="url(#p744a065118)" d="M 257.361782 325.921635 
L 257.961579 325.921635 
L 257.961579 297.880467 
L 257.361782 297.880467 
z
" style="fill:#1f77b4;"/>
   </g>
   <g id="patch_149">
    <path clip-path="url(#p744a065118)" d="M 258.111528 325.921635 
L 258.711324 325.921635 
L 258.711324 275.756243 
L 258.111528 275.756243 
z
" style="fill:#1f77b4;"/>
   </g>
   <g id="patch_150">
    <path clip-path="url(#p744a065118)" d="M 258.861273 325.921635 
L 259.461069 325.921635 
L 259.461069 297.494579 
L 258.861273 297.494579 
z
" style="fill:#1f77b4;"/>
   </g>
   <g id="patch_151">
    <path clip-path="url(#p744a065118)" d="M 259.611018 325.921635 
L 260.210814 325.921635 
L 260.210814 264.179614 
L 259.611018 264.179614 
z
" style="fill:#1f77b4;"/>
   </g>
   <g id="patch_152">
    <path clip-path="url(#p744a065118)" d="M 260.360763 325.921635 
L 260.960559 325.921635 
L 260.960559 260.577996 
L 260.360763 260.577996 
z
" style="fill:#1f77b4;"/>
   </g>
   <g id="patch_153">
    <path clip-path="url(#p744a065118)" d="M 261.110508 325.921635 
L 261.710304 325.921635 
L 261.710304 275.627614 
L 261.110508 275.627614 
z
" style="fill:#1f77b4;"/>
   </g>
   <g id="patch_154">
    <path clip-path="url(#p744a065118)" d="M 261.860253 325.921635 
L 262.460049 325.921635 
L 262.460049 266.752198 
L 261.860253 266.752198 
z
" style="fill:#1f77b4;"/>
   </g>
   <g id="patch_155">
    <path clip-path="url(#p744a065118)" d="M 262.609998 325.921635 
L 263.209794 325.921635 
L 263.209794 278.843344 
L 262.609998 278.843344 
z
" style="fill:#1f77b4;"/>
   </g>
   <g id="patch_156">
    <path clip-path="url(#p744a065118)" d="M 263.359743 325.921635 
L 263.959539 325.921635 
L 263.959539 265.465906 
L 263.359743 265.465906 
z
" style="fill:#1f77b4;"/>
   </g>
   <g id="patch_157">
    <path clip-path="url(#p744a065118)" d="M 264.109488 325.921635 
L 264.709284 325.921635 
L 264.709284 238.196513 
L 264.109488 238.196513 
z
" style="fill:#1f77b4;"/>
   </g>
   <g id="patch_158">
    <path clip-path="url(#p744a065118)" d="M 264.859233 325.921635 
L 265.459029 325.921635 
L 265.459029 267.009456 
L 264.859233 267.009456 
z
" style="fill:#1f77b4;"/>
   </g>
   <g id="patch_159">
    <path clip-path="url(#p744a065118)" d="M 265.608978 325.921635 
L 266.208774 325.921635 
L 266.208774 221.603345 
L 265.608978 221.603345 
z
" style="fill:#1f77b4;"/>
   </g>
   <g id="patch_160">
    <path clip-path="url(#p744a065118)" d="M 266.358723 325.921635 
L 266.958519 325.921635 
L 266.958519 261.864288 
L 266.358723 261.864288 
z
" style="fill:#1f77b4;"/>
   </g>
   <g id="patch_161">
    <path clip-path="url(#p744a065118)" d="M 267.108468 325.921635 
L 267.708264 325.921635 
L 267.708264 297.623209 
L 267.108468 297.623209 
z
" style="fill:#1f77b4;"/>
   </g>
   <g id="patch_162">
    <path clip-path="url(#p744a065118)" d="M 267.858213 325.921635 
L 268.45801 325.921635 
L 268.45801 266.49494 
L 267.858213 266.49494 
z
" style="fill:#1f77b4;"/>
   </g>
   <g id="patch_163">
    <path clip-path="url(#p744a065118)" d="M 268.607959 325.921635 
L 269.207755 325.921635 
L 269.207755 254.403794 
L 268.607959 254.403794 
z
" style="fill:#1f77b4;"/>
   </g>
   <g id="patch_164">
    <path clip-path="url(#p744a065118)" d="M 269.357704 325.921635 
L 269.9575 325.921635 
L 269.9575 204.624289 
L 269.357704 204.624289 
z
" style="fill:#1f77b4;"/>
   </g>
   <g id="patch_165">
    <path clip-path="url(#p744a065118)" d="M 270.107449 325.921635 
L 270.707245 325.921635 
L 270.707245 227.777547 
L 270.107449 227.777547 
z
" style="fill:#1f77b4;"/>
   </g>
   <g id="patch_166">
    <path clip-path="url(#p744a065118)" d="M 270.857194 325.921635 
L 271.45699 325.921635 
L 271.45699 212.342042 
L 270.857194 212.342042 
z
" style="fill:#1f77b4;"/>
   </g>
   <g id="patch_167">
    <path clip-path="url(#p744a065118)" d="M 271.606939 325.921635 
L 272.206735 325.921635 
L 272.206735 222.37512 
L 271.606939 222.37512 
z
" style="fill:#1f77b4;"/>
   </g>
   <g id="patch_168">
    <path clip-path="url(#p744a065118)" d="M 272.356684 325.921635 
L 272.95648 325.921635 
L 272.95648 262.507434 
L 272.356684 262.507434 
z
" style="fill:#1f77b4;"/>
   </g>
   <g id="patch_169">
    <path clip-path="url(#p744a065118)" d="M 273.106429 325.921635 
L 273.706225 325.921635 
L 273.706225 256.333232 
L 273.106429 256.333232 
z
" style="fill:#1f77b4;"/>
   </g>
   <g id="patch_170">
    <path clip-path="url(#p744a065118)" d="M 273.856174 325.921635 
L 274.45597 325.921635 
L 274.45597 249.773142 
L 273.856174 249.773142 
z
" style="fill:#1f77b4;"/>
   </g>
   <g id="patch_171">
    <path clip-path="url(#p744a065118)" d="M 274.605919 325.921635 
L 275.205715 325.921635 
L 275.205715 237.553367 
L 274.605919 237.553367 
z
" style="fill:#1f77b4;"/>
   </g>
   <g id="patch_172">
    <path clip-path="url(#p744a065118)" d="M 275.355664 325.921635 
L 275.95546 325.921635 
L 275.95546 246.042895 
L 275.355664 246.042895 
z
" style="fill:#1f77b4;"/>
   </g>
   <g id="patch_173">
    <path clip-path="url(#p744a065118)" d="M 276.105409 325.921635 
L 276.705205 325.921635 
L 276.705205 32.775664 
L 276.105409 32.775664 
z
" style="fill:#1f77b4;"/>
   </g>
   <g id="patch_174">
    <path clip-path="url(#p744a065118)" d="M 276.855154 325.921635 
L 277.45495 325.921635 
L 277.45495 201.923076 
L 276.855154 201.923076 
z
" style="fill:#1f77b4;"/>
   </g>
   <g id="patch_175">
    <path clip-path="url(#p744a065118)" d="M 277.604899 325.921635 
L 278.204696 325.921635 
L 278.204696 243.341682 
L 277.604899 243.341682 
z
" style="fill:#1f77b4;"/>
   </g>
   <g id="patch_176">
    <path clip-path="url(#p744a065118)" d="M 278.354645 325.921635 
L 278.954441 325.921635 
L 278.954441 178.255301 
L 278.354645 178.255301 
z
" style="fill:#1f77b4;"/>
   </g>
   <g id="patch_177">
    <path clip-path="url(#p744a065118)" d="M 279.10439 325.921635 
L 279.704186 325.921635 
L 279.704186 156.388335 
L 279.10439 156.388335 
z
" style="fill:#1f77b4;"/>
   </g>
   <g id="patch_178">
    <path clip-path="url(#p744a065118)" d="M 279.854135 325.921635 
L 280.453931 325.921635 
L 280.453931 152.143571 
L 279.854135 152.143571 
z
" style="fill:#1f77b4;"/>
   </g>
   <g id="patch_179">
    <path clip-path="url(#p744a065118)" d="M 280.60388 325.921635 
L 281.203676 325.921635 
L 281.203676 88.086224 
L 280.60388 88.086224 
z
" style="fill:#1f77b4;"/>
   </g>
   <g id="patch_180">
    <path clip-path="url(#p744a065118)" d="M 281.353625 325.921635 
L 281.953421 325.921635 
L 281.953421 193.948065 
L 281.353625 193.948065 
z
" style="fill:#1f77b4;"/>
   </g>
   <g id="patch_181">
    <path clip-path="url(#p744a065118)" d="M 282.10337 325.921635 
L 282.703166 325.921635 
L 282.703166 200.765413 
L 282.10337 200.765413 
z
" style="fill:#1f77b4;"/>
   </g>
   <g id="patch_182">
    <path clip-path="url(#p744a065118)" d="M 282.853115 325.921635 
L 283.452911 325.921635 
L 283.452911 247.843704 
L 282.853115 247.843704 
z
" style="fill:#1f77b4;"/>
   </g>
   <g id="patch_183">
    <path clip-path="url(#p744a065118)" d="M 283.60286 325.921635 
L 284.202656 325.921635 
L 284.202656 263.15058 
L 283.60286 263.15058 
z
" style="fill:#1f77b4;"/>
   </g>
   <g id="patch_184">
    <path clip-path="url(#p744a065118)" d="M 284.352605 325.921635 
L 284.952401 325.921635 
L 284.952401 188.931525 
L 284.352605 188.931525 
z
" style="fill:#1f77b4;"/>
   </g>
   <g id="patch_185">
    <path clip-path="url(#p744a065118)" d="M 285.10235 325.921635 
L 285.702146 325.921635 
L 285.702146 223.790042 
L 285.10235 223.790042 
z
" style="fill:#1f77b4;"/>
   </g>
   <g id="patch_186">
    <path clip-path="url(#p744a065118)" d="M 285.852095 325.921635 
L 286.451891 325.921635 
L 286.451891 127.575392 
L 285.852095 127.575392 
z
" style="fill:#1f77b4;"/>
   </g>
   <g id="patch_187">
    <path clip-path="url(#p744a065118)" d="M 286.60184 325.921635 
L 287.201636 325.921635 
L 287.201636 175.1682 
L 286.60184 175.1682 
z
" style="fill:#1f77b4;"/>
   </g>
   <g id="patch_188">
    <path clip-path="url(#p744a065118)" d="M 287.351585 325.921635 
L 287.951381 325.921635 
L 287.951381 194.333952 
L 287.351585 194.333952 
z
" style="fill:#1f77b4;"/>
   </g>
   <g id="patch_189">
    <path clip-path="url(#p744a065118)" d="M 288.10133 325.921635 
L 288.701127 325.921635 
L 288.701127 268.03849 
L 288.10133 268.03849 
z
" style="fill:#1f77b4;"/>
   </g>
   <g id="patch_190">
    <path clip-path="url(#p744a065118)" d="M 288.851076 325.921635 
L 289.450872 325.921635 
L 289.450872 247.715075 
L 288.851076 247.715075 
z
" style="fill:#1f77b4;"/>
   </g>
   <g id="patch_191">
    <path clip-path="url(#p744a065118)" d="M 289.600821 325.921635 
L 290.200617 325.921635 
L 290.200617 203.080739 
L 289.600821 203.080739 
z
" style="fill:#1f77b4;"/>
   </g>
   <g id="patch_192">
    <path clip-path="url(#p744a065118)" d="M 290.350566 325.921635 
L 290.950362 325.921635 
L 290.950362 191.632739 
L 290.350566 191.632739 
z
" style="fill:#1f77b4;"/>
   </g>
   <g id="patch_193">
    <path clip-path="url(#p744a065118)" d="M 291.100311 325.921635 
L 291.700107 325.921635 
L 291.700107 196.777907 
L 291.100311 196.777907 
z
" style="fill:#1f77b4;"/>
   </g>
   <g id="patch_194">
    <path clip-path="url(#p744a065118)" d="M 291.850056 325.921635 
L 292.449852 325.921635 
L 292.449852 216.586806 
L 291.850056 216.586806 
z
" style="fill:#1f77b4;"/>
   </g>
   <g id="patch_195">
    <path clip-path="url(#p744a065118)" d="M 292.599801 325.921635 
L 293.199597 325.921635 
L 293.199597 212.5993 
L 292.599801 212.5993 
z
" style="fill:#1f77b4;"/>
   </g>
   <g id="patch_196">
    <path clip-path="url(#p744a065118)" d="M 293.349546 325.921635 
L 293.949342 325.921635 
L 293.949342 266.36631 
L 293.349546 266.36631 
z
" style="fill:#1f77b4;"/>
   </g>
   <g id="patch_197">
    <path clip-path="url(#p744a065118)" d="M 294.099291 325.921635 
L 294.699087 325.921635 
L 294.699087 286.689726 
L 294.099291 286.689726 
z
" style="fill:#1f77b4;"/>
   </g>
   <g id="patch_198">
    <path clip-path="url(#p744a065118)" d="M 294.849036 325.921635 
L 295.448832 325.921635 
L 295.448832 206.939615 
L 294.849036 206.939615 
z
" style="fill:#1f77b4;"/>
   </g>
   <g id="patch_199">
    <path clip-path="url(#p744a065118)" d="M 295.598781 325.921635 
L 296.198577 325.921635 
L 296.198577 189.703301 
L 295.598781 189.703301 
z
" style="fill:#1f77b4;"/>
   </g>
   <g id="patch_200">
    <path clip-path="url(#p744a065118)" d="M 296.348526 325.921635 
L 296.948322 325.921635 
L 296.948322 212.985188 
L 296.348526 212.985188 
z
" style="fill:#1f77b4;"/>
   </g>
   <g id="patch_201">
    <path clip-path="url(#p744a065118)" d="M 297.098271 325.921635 
L 297.698067 325.921635 
L 297.698067 223.146896 
L 297.098271 223.146896 
z
" style="fill:#1f77b4;"/>
   </g>
   <g id="patch_202">
    <path clip-path="url(#p744a065118)" d="M 297.848016 325.921635 
L 298.447812 325.921635 
L 298.447812 250.030401 
L 297.848016 250.030401 
z
" style="fill:#1f77b4;"/>
   </g>
   <g id="patch_203">
    <path clip-path="url(#p744a065118)" d="M 298.597761 325.921635 
L 299.197558 325.921635 
L 299.197558 294.278849 
L 298.597761 294.278849 
z
" style="fill:#1f77b4;"/>
   </g>
   <g id="patch_204">
    <path clip-path="url(#p744a065118)" d="M 299.347507 325.921635 
L 299.947303 325.921635 
L 299.947303 207.582761 
L 299.347507 207.582761 
z
" style="fill:#1f77b4;"/>
   </g>
   <g id="patch_205">
    <path clip-path="url(#p744a065118)" d="M 300.097252 325.921635 
L 300.697048 325.921635 
L 300.697048 194.848469 
L 300.097252 194.848469 
z
" style="fill:#1f77b4;"/>
   </g>
   <g id="patch_206">
    <path clip-path="url(#p744a065118)" d="M 300.846997 325.921635 
L 301.446793 325.921635 
L 301.446793 174.139166 
L 300.846997 174.139166 
z
" style="fill:#1f77b4;"/>
   </g>
   <g id="patch_207">
    <path clip-path="url(#p744a065118)" d="M 301.596742 325.921635 
L 302.196538 325.921635 
L 302.196538 185.201278 
L 301.596742 185.201278 
z
" style="fill:#1f77b4;"/>
   </g>
   <g id="patch_208">
    <path clip-path="url(#p744a065118)" d="M 302.346487 325.921635 
L 302.946283 325.921635 
L 302.946283 146.097998 
L 302.346487 146.097998 
z
" style="fill:#1f77b4;"/>
   </g>
   <g id="patch_209">
    <path clip-path="url(#p744a065118)" d="M 303.096232 325.921635 
L 303.696028 325.921635 
L 303.696028 197.93557 
L 303.096232 197.93557 
z
" style="fill:#1f77b4;"/>
   </g>
   <g id="matplotlib.axis_3">
    <g id="xtick_3">
     <g id="line2d_10">
      <g>
       <use style="stroke:#000000;stroke-width:0.8;" x="228.421623" xlink:href="#m80b5a0c350" y="325.921635"/>
      </g>
     </g>
     <g id="text_10">
      <!-- 0 -->
      <g transform="translate(225.240373 340.520072)scale(0.1 -0.1)">
       <use xlink:href="#DejaVuSans-48"/>
      </g>
     </g>
    </g>
    <g id="xtick_4">
     <g id="line2d_11">
      <g>
       <use style="stroke:#000000;stroke-width:0.8;" x="303.39613" xlink:href="#m80b5a0c350" y="325.921635"/>
      </g>
     </g>
     <g id="text_11">
      <!-- 100 -->
      <g transform="translate(293.85238 340.520072)scale(0.1 -0.1)">
       <use xlink:href="#DejaVuSans-49"/>
       <use x="63.623047" xlink:href="#DejaVuSans-48"/>
       <use x="127.246094" xlink:href="#DejaVuSans-48"/>
      </g>
     </g>
    </g>
   </g>
   <g id="matplotlib.axis_4">
    <g id="ytick_7">
     <g id="line2d_12">
      <g>
       <use style="stroke:#000000;stroke-width:0.8;" x="224.343009" xlink:href="#mfca156e2df" y="325.921635"/>
      </g>
     </g>
     <g id="text_12">
      <!-- 0 -->
      <g transform="translate(210.980509 329.720854)scale(0.1 -0.1)">
       <use xlink:href="#DejaVuSans-48"/>
      </g>
     </g>
    </g>
    <g id="ytick_8">
     <g id="line2d_13">
      <g>
       <use style="stroke:#000000;stroke-width:0.8;" x="224.343009" xlink:href="#mfca156e2df" y="261.60703"/>
      </g>
     </g>
     <g id="text_13">
      <!-- 500 -->
      <g transform="translate(198.255509 265.406248)scale(0.1 -0.1)">
       <use xlink:href="#DejaVuSans-53"/>
       <use x="63.623047" xlink:href="#DejaVuSans-48"/>
       <use x="127.246094" xlink:href="#DejaVuSans-48"/>
      </g>
     </g>
    </g>
    <g id="ytick_9">
     <g id="line2d_14">
      <g>
       <use style="stroke:#000000;stroke-width:0.8;" x="224.343009" xlink:href="#mfca156e2df" y="197.292424"/>
      </g>
     </g>
     <g id="text_14">
      <!-- 1000 -->
      <g transform="translate(191.893009 201.091643)scale(0.1 -0.1)">
       <use xlink:href="#DejaVuSans-49"/>
       <use x="63.623047" xlink:href="#DejaVuSans-48"/>
       <use x="127.246094" xlink:href="#DejaVuSans-48"/>
       <use x="190.869141" xlink:href="#DejaVuSans-48"/>
      </g>
     </g>
    </g>
    <g id="ytick_10">
     <g id="line2d_15">
      <g>
       <use style="stroke:#000000;stroke-width:0.8;" x="224.343009" xlink:href="#mfca156e2df" y="132.977819"/>
      </g>
     </g>
     <g id="text_15">
      <!-- 1500 -->
      <g transform="translate(191.893009 136.777038)scale(0.1 -0.1)">
       <use xlink:href="#DejaVuSans-49"/>
       <use x="63.623047" xlink:href="#DejaVuSans-53"/>
       <use x="127.246094" xlink:href="#DejaVuSans-48"/>
       <use x="190.869141" xlink:href="#DejaVuSans-48"/>
      </g>
     </g>
    </g>
    <g id="ytick_11">
     <g id="line2d_16">
      <g>
       <use style="stroke:#000000;stroke-width:0.8;" x="224.343009" xlink:href="#mfca156e2df" y="68.663213"/>
      </g>
     </g>
     <g id="text_16">
      <!-- 2000 -->
      <g transform="translate(191.893009 72.462432)scale(0.1 -0.1)">
       <use xlink:href="#DejaVuSans-50"/>
       <use x="63.623047" xlink:href="#DejaVuSans-48"/>
       <use x="127.246094" xlink:href="#DejaVuSans-48"/>
       <use x="190.869141" xlink:href="#DejaVuSans-48"/>
      </g>
     </g>
    </g>
   </g>
   <g id="line2d_17">
    <path clip-path="url(#p744a065118)" d="M 228.421623 325.746129 
L 229.171368 325.683609 
L 229.921113 325.614929 
L 230.670858 325.557445 
L 231.420603 325.504568 
L 232.170348 325.460584 
L 232.920093 325.425547 
L 233.669838 325.398011 
L 234.419583 325.373903 
L 235.169328 325.348616 
L 235.919073 325.317972 
L 236.668818 325.275382 
L 237.418564 325.21254 
L 238.168309 325.119162 
L 238.918054 324.982765 
L 239.667799 324.786794 
L 240.417544 324.512071 
L 241.167289 324.137059 
L 241.917034 323.637757 
L 242.666779 322.98395 
L 243.416524 322.162458 
L 244.166269 321.158175 
L 244.916014 319.974583 
L 245.665759 318.617467 
L 246.415504 317.100596 
L 247.165249 315.447006 
L 247.914995 313.702664 
L 248.66474 311.890176 
L 249.414485 310.039865 
L 250.16423 308.165607 
L 250.913975 306.289314 
L 251.66372 304.411252 
L 252.413465 302.526548 
L 253.16321 300.59727 
L 253.912955 298.597973 
L 254.6627 296.507386 
L 255.412445 294.28351 
L 256.16219 291.884878 
L 256.911935 289.301472 
L 257.661681 286.524399 
L 258.411426 283.597696 
L 259.161171 280.569954 
L 259.910916 277.475567 
L 260.660661 274.407913 
L 261.410406 271.425655 
L 262.160151 268.583651 
L 262.909896 265.923957 
L 263.659641 263.400606 
L 264.409386 260.959758 
L 265.159131 258.556787 
L 265.908876 256.129815 
L 266.658621 253.685538 
L 267.408366 251.135937 
L 268.158112 248.423312 
L 268.907857 245.576701 
L 269.657602 242.597818 
L 270.407347 239.445733 
L 271.157092 235.985548 
L 271.906837 231.943559 
L 272.656582 227.342211 
L 273.406327 222.185418 
L 274.156072 216.446176 
L 274.905817 210.222847 
L 275.655562 203.74285 
L 276.405307 197.425286 
L 277.155052 191.942231 
L 277.904797 187.536051 
L 278.654543 184.438771 
L 279.404288 182.875881 
L 280.154033 182.867041 
L 280.903778 184.282391 
L 281.653523 186.768723 
L 282.403268 189.747338 
L 283.153013 192.956425 
L 283.902758 196.156887 
L 284.652503 199.097305 
L 285.402248 201.700372 
L 286.151993 203.952267 
L 286.901738 206.003638 
L 287.651483 208.040544 
L 288.401229 210.109433 
L 289.150974 212.241967 
L 289.900719 214.506881 
L 290.650464 216.836618 
L 291.400209 219.15789 
L 292.149954 221.323318 
L 292.899699 223.22372 
L 293.649444 224.769199 
L 294.399189 225.826894 
L 295.148934 226.173137 
L 295.898679 225.712622 
L 296.648424 224.365364 
L 297.398169 222.106129 
L 298.147914 218.910221 
L 298.89766 214.841445 
L 299.647405 210.353887 
L 300.39715 205.686967 
L 301.146895 201.049619 
L 301.89664 198.043788 
L 302.646385 195.25359 
L 303.39613 192.834225 
" style="fill:none;stroke:#ff0000;stroke-linecap:square;stroke-width:1.5;"/>
   </g>
   <g id="patch_210">
    <path d="M 224.343009 325.921635 
L 224.343009 18.118365 
" style="fill:none;stroke:#000000;stroke-linecap:square;stroke-linejoin:miter;stroke-width:0.8;"/>
   </g>
   <g id="patch_211">
    <path d="M 307.474743 325.921635 
L 307.474743 18.118365 
" style="fill:none;stroke:#000000;stroke-linecap:square;stroke-linejoin:miter;stroke-width:0.8;"/>
   </g>
   <g id="patch_212">
    <path d="M 224.343009 325.921635 
L 307.474743 325.921635 
" style="fill:none;stroke:#000000;stroke-linecap:square;stroke-linejoin:miter;stroke-width:0.8;"/>
   </g>
   <g id="patch_213">
    <path d="M 224.343009 18.118365 
L 307.474743 18.118365 
" style="fill:none;stroke:#000000;stroke-linecap:square;stroke-linejoin:miter;stroke-width:0.8;"/>
   </g>
   <g id="text_17">
    <!-- Casos novos - PE - (data) -->
    <defs>
     <path d="M 54.890625 33.015625 
L 54.890625 0 
L 45.90625 0 
L 45.90625 32.71875 
Q 45.90625 40.484375 42.875 44.328125 
Q 39.84375 48.1875 33.796875 48.1875 
Q 26.515625 48.1875 22.3125 43.546875 
Q 18.109375 38.921875 18.109375 30.90625 
L 18.109375 0 
L 9.078125 0 
L 9.078125 54.6875 
L 18.109375 54.6875 
L 18.109375 46.1875 
Q 21.34375 51.125 25.703125 53.5625 
Q 30.078125 56 35.796875 56 
Q 45.21875 56 50.046875 50.171875 
Q 54.890625 44.34375 54.890625 33.015625 
z
" id="DejaVuSans-110"/>
     <path d="M 2.984375 54.6875 
L 12.5 54.6875 
L 29.59375 8.796875 
L 46.6875 54.6875 
L 56.203125 54.6875 
L 35.6875 0 
L 23.484375 0 
z
" id="DejaVuSans-118"/>
    </defs>
    <g transform="translate(190.828251 12.118365)scale(0.12 -0.12)">
     <use xlink:href="#DejaVuSans-67"/>
     <use x="69.824219" xlink:href="#DejaVuSans-97"/>
     <use x="131.103516" xlink:href="#DejaVuSans-115"/>
     <use x="183.203125" xlink:href="#DejaVuSans-111"/>
     <use x="244.384766" xlink:href="#DejaVuSans-115"/>
     <use x="296.484375" xlink:href="#DejaVuSans-32"/>
     <use x="328.271484" xlink:href="#DejaVuSans-110"/>
     <use x="391.650391" xlink:href="#DejaVuSans-111"/>
     <use x="452.832031" xlink:href="#DejaVuSans-118"/>
     <use x="512.011719" xlink:href="#DejaVuSans-111"/>
     <use x="573.193359" xlink:href="#DejaVuSans-115"/>
     <use x="625.292969" xlink:href="#DejaVuSans-32"/>
     <use x="657.080078" xlink:href="#DejaVuSans-45"/>
     <use x="693.164062" xlink:href="#DejaVuSans-32"/>
     <use x="724.951172" xlink:href="#DejaVuSans-80"/>
     <use x="785.253906" xlink:href="#DejaVuSans-69"/>
     <use x="848.4375" xlink:href="#DejaVuSans-32"/>
     <use x="880.224609" xlink:href="#DejaVuSans-45"/>
     <use x="916.308594" xlink:href="#DejaVuSans-32"/>
     <use x="948.095703" xlink:href="#DejaVuSans-40"/>
     <use x="987.109375" xlink:href="#DejaVuSans-100"/>
     <use x="1050.585938" xlink:href="#DejaVuSans-97"/>
     <use x="1111.865234" xlink:href="#DejaVuSans-116"/>
     <use x="1151.074219" xlink:href="#DejaVuSans-97"/>
     <use x="1212.353516" xlink:href="#DejaVuSans-41"/>
    </g>
   </g>
  </g>
  <g id="axes_3">
   <g id="patch_214">
    <path d="M 369.241501 325.921635 
L 452.373235 325.921635 
L 452.373235 18.118365 
L 369.241501 18.118365 
z
" style="fill:#ffffff;"/>
   </g>
   <g id="matplotlib.axis_5">
    <g id="xtick_5">
     <g id="line2d_18">
      <g>
       <use style="stroke:#000000;stroke-width:0.8;" x="373.020216" xlink:href="#m80b5a0c350" y="325.921635"/>
      </g>
     </g>
     <g id="text_18">
      <!-- 0 -->
      <g transform="translate(369.838966 340.520072)scale(0.1 -0.1)">
       <use xlink:href="#DejaVuSans-48"/>
      </g>
     </g>
    </g>
    <g id="xtick_6">
     <g id="line2d_19">
      <g>
       <use style="stroke:#000000;stroke-width:0.8;" x="448.59452" xlink:href="#m80b5a0c350" y="325.921635"/>
      </g>
     </g>
     <g id="text_19">
      <!-- 100 -->
      <g transform="translate(439.05077 340.520072)scale(0.1 -0.1)">
       <use xlink:href="#DejaVuSans-49"/>
       <use x="63.623047" xlink:href="#DejaVuSans-48"/>
       <use x="127.246094" xlink:href="#DejaVuSans-48"/>
      </g>
     </g>
    </g>
   </g>
   <g id="matplotlib.axis_6">
    <g id="ytick_12">
     <g id="line2d_20">
      <g>
       <use style="stroke:#000000;stroke-width:0.8;" x="369.241501" xlink:href="#mfca156e2df" y="296.957633"/>
      </g>
     </g>
     <g id="text_20">
      <!-- 1.0 -->
      <defs>
       <path d="M 10.6875 12.40625 
L 21 12.40625 
L 21 0 
L 10.6875 0 
z
" id="DejaVuSans-46"/>
      </defs>
      <g transform="translate(346.338376 300.756852)scale(0.1 -0.1)">
       <use xlink:href="#DejaVuSans-49"/>
       <use x="63.623047" xlink:href="#DejaVuSans-46"/>
       <use x="95.410156" xlink:href="#DejaVuSans-48"/>
      </g>
     </g>
    </g>
    <g id="ytick_13">
     <g id="line2d_21">
      <g>
       <use style="stroke:#000000;stroke-width:0.8;" x="369.241501" xlink:href="#mfca156e2df" y="237.53213"/>
      </g>
     </g>
     <g id="text_21">
      <!-- 1.5 -->
      <g transform="translate(346.338376 241.331349)scale(0.1 -0.1)">
       <use xlink:href="#DejaVuSans-49"/>
       <use x="63.623047" xlink:href="#DejaVuSans-46"/>
       <use x="95.410156" xlink:href="#DejaVuSans-53"/>
      </g>
     </g>
    </g>
    <g id="ytick_14">
     <g id="line2d_22">
      <g>
       <use style="stroke:#000000;stroke-width:0.8;" x="369.241501" xlink:href="#mfca156e2df" y="178.106628"/>
      </g>
     </g>
     <g id="text_22">
      <!-- 2.0 -->
      <g transform="translate(346.338376 181.905846)scale(0.1 -0.1)">
       <use xlink:href="#DejaVuSans-50"/>
       <use x="63.623047" xlink:href="#DejaVuSans-46"/>
       <use x="95.410156" xlink:href="#DejaVuSans-48"/>
      </g>
     </g>
    </g>
    <g id="ytick_15">
     <g id="line2d_23">
      <g>
       <use style="stroke:#000000;stroke-width:0.8;" x="369.241501" xlink:href="#mfca156e2df" y="118.681125"/>
      </g>
     </g>
     <g id="text_23">
      <!-- 2.5 -->
      <g transform="translate(346.338376 122.480344)scale(0.1 -0.1)">
       <use xlink:href="#DejaVuSans-50"/>
       <use x="63.623047" xlink:href="#DejaVuSans-46"/>
       <use x="95.410156" xlink:href="#DejaVuSans-53"/>
      </g>
     </g>
    </g>
    <g id="ytick_16">
     <g id="line2d_24">
      <g>
       <use style="stroke:#000000;stroke-width:0.8;" x="369.241501" xlink:href="#mfca156e2df" y="59.255622"/>
      </g>
     </g>
     <g id="text_24">
      <!-- 3.0 -->
      <g transform="translate(346.338376 63.054841)scale(0.1 -0.1)">
       <use xlink:href="#DejaVuSans-51"/>
       <use x="63.623047" xlink:href="#DejaVuSans-46"/>
       <use x="95.410156" xlink:href="#DejaVuSans-48"/>
      </g>
     </g>
    </g>
   </g>
   <g id="line2d_25">
    <path clip-path="url(#p984f13f886)" d="M 373.020216 32.109423 
L 373.775959 73.964736 
L 374.531702 106.84228 
L 375.287445 162.948077 
L 376.043188 189.313718 
L 376.798931 215.956221 
L 377.554674 236.986097 
L 378.310417 252.29886 
L 379.06616 259.577262 
L 379.821904 259.478559 
L 380.577647 253.844002 
L 381.33339 240.986923 
L 382.089133 221.695635 
L 382.844876 198.138075 
L 383.600619 173.581277 
L 384.356362 150.301606 
L 385.112105 131.42774 
L 385.867848 118.469326 
L 386.623591 111.246827 
L 387.379334 107.87356 
L 388.135077 111.25978 
L 388.89082 117.756148 
L 389.646563 127.737859 
L 390.402306 138.91482 
L 391.158049 150.61325 
L 391.913792 162.525797 
L 392.669535 175.30101 
L 393.425278 186.779531 
L 394.181021 197.480377 
L 394.936764 206.72021 
L 395.692507 215.140702 
L 396.44825 222.095763 
L 397.203993 227.762869 
L 397.959736 231.40633 
L 398.715479 233.882419 
L 399.471222 235.573886 
L 400.226965 236.137464 
L 400.982708 235.869761 
L 401.738451 235.684241 
L 402.494195 235.601484 
L 403.249938 236.608122 
L 404.005681 238.50817 
L 404.761424 240.832663 
L 405.517167 244.386906 
L 406.27291 248.375382 
L 407.028653 252.653943 
L 407.784396 257.004637 
L 408.540139 260.269145 
L 409.295882 262.51503 
L 410.051625 263.99759 
L 410.807368 264.60806 
L 411.563111 265.250125 
L 412.318854 264.853902 
L 413.074597 263.880279 
L 413.83034 263.316564 
L 414.586083 262.836687 
L 415.341826 262.016697 
L 416.097569 260.028028 
L 416.853312 255.820518 
L 417.609055 252.343292 
L 418.364798 249.389877 
L 419.120541 246.685513 
L 419.876284 245.138444 
L 420.632027 245.43429 
L 421.38777 248.479505 
L 422.143513 255.412426 
L 422.899256 263.132524 
L 423.654999 271.666995 
L 424.410742 281.161731 
L 425.166486 290.621511 
L 425.922229 299.409074 
L 426.677972 306.286538 
L 427.433715 309.719704 
L 428.189458 311.600515 
L 428.945201 311.930577 
L 429.700944 310.45252 
L 430.456687 308.292045 
L 431.21243 305.887795 
L 431.968173 304.50649 
L 432.723916 304.511051 
L 433.479659 304.893083 
L 434.235402 305.561899 
L 434.991145 306.851246 
L 435.746888 307.654559 
L 436.502631 307.875877 
L 437.258374 306.797178 
L 438.014117 304.656709 
L 438.76986 301.567502 
L 439.525603 297.104398 
L 440.281346 290.433051 
L 441.037089 282.840246 
L 441.792832 274.65546 
L 442.548575 266.589425 
L 443.304318 258.838977 
L 444.060061 252.277762 
L 444.815804 249.906879 
L 445.571547 249.573447 
L 446.32729 250.777546 
L 447.083034 263.165091 
L 447.838777 264.862152 
L 448.59452 267.525027 
" style="fill:none;stroke:#ff0000;stroke-linecap:square;stroke-width:1.5;"/>
   </g>
   <g id="patch_215">
    <path d="M 369.241501 325.921635 
L 369.241501 18.118365 
" style="fill:none;stroke:#000000;stroke-linecap:square;stroke-linejoin:miter;stroke-width:0.8;"/>
   </g>
   <g id="patch_216">
    <path d="M 452.373235 325.921635 
L 452.373235 18.118365 
" style="fill:none;stroke:#000000;stroke-linecap:square;stroke-linejoin:miter;stroke-width:0.8;"/>
   </g>
   <g id="patch_217">
    <path d="M 369.241501 325.921635 
L 452.373235 325.921635 
" style="fill:none;stroke:#000000;stroke-linecap:square;stroke-linejoin:miter;stroke-width:0.8;"/>
   </g>
   <g id="patch_218">
    <path d="M 369.241501 18.118365 
L 452.373235 18.118365 
" style="fill:none;stroke:#000000;stroke-linecap:square;stroke-linejoin:miter;stroke-width:0.8;"/>
   </g>
   <g id="text_25">
    <!-- r0 - PE - (data) -->
    <defs>
     <path d="M 41.109375 46.296875 
Q 39.59375 47.171875 37.8125 47.578125 
Q 36.03125 48 33.890625 48 
Q 26.265625 48 22.1875 43.046875 
Q 18.109375 38.09375 18.109375 28.8125 
L 18.109375 0 
L 9.078125 0 
L 9.078125 54.6875 
L 18.109375 54.6875 
L 18.109375 46.1875 
Q 20.953125 51.171875 25.484375 53.578125 
Q 30.03125 56 36.53125 56 
Q 37.453125 56 38.578125 55.875 
Q 39.703125 55.765625 41.0625 55.515625 
z
" id="DejaVuSans-114"/>
    </defs>
    <g transform="translate(366.960493 12.118365)scale(0.12 -0.12)">
     <use xlink:href="#DejaVuSans-114"/>
     <use x="41.113281" xlink:href="#DejaVuSans-48"/>
     <use x="104.736328" xlink:href="#DejaVuSans-32"/>
     <use x="136.523438" xlink:href="#DejaVuSans-45"/>
     <use x="172.607422" xlink:href="#DejaVuSans-32"/>
     <use x="204.394531" xlink:href="#DejaVuSans-80"/>
     <use x="264.697266" xlink:href="#DejaVuSans-69"/>
     <use x="327.880859" xlink:href="#DejaVuSans-32"/>
     <use x="359.667969" xlink:href="#DejaVuSans-45"/>
     <use x="395.751953" xlink:href="#DejaVuSans-32"/>
     <use x="427.539062" xlink:href="#DejaVuSans-40"/>
     <use x="466.552734" xlink:href="#DejaVuSans-100"/>
     <use x="530.029297" xlink:href="#DejaVuSans-97"/>
     <use x="591.308594" xlink:href="#DejaVuSans-116"/>
     <use x="630.517578" xlink:href="#DejaVuSans-97"/>
     <use x="691.796875" xlink:href="#DejaVuSans-41"/>
    </g>
   </g>
  </g>
 </g>
 <defs>
  <clipPath id="padebfa7139">
   <rect height="307.80327" width="83.131734" x="51.344518" y="18.118365"/>
  </clipPath>
  <clipPath id="p744a065118">
   <rect height="307.80327" width="83.131734" x="224.343009" y="18.118365"/>
  </clipPath>
  <clipPath id="p984f13f886">
   <rect height="307.80327" width="83.131734" x="369.241501" y="18.118365"/>
  </clipPath>
 </defs>
</svg>
