<?xml version="1.0" encoding="utf-8" standalone="no"?>
<!DOCTYPE svg PUBLIC "-//W3C//DTD SVG 1.1//EN"
  "http://www.w3.org/Graphics/SVG/1.1/DTD/svg11.dtd">
<!-- Created with matplotlib (https://matplotlib.org/) -->
<svg height="345.6pt" version="1.1" viewBox="0 0 460.8 345.6" width="460.8pt" xmlns="http://www.w3.org/2000/svg" xmlns:xlink="http://www.w3.org/1999/xlink">
 <defs>
  <style type="text/css">
*{stroke-linecap:butt;stroke-linejoin:round;}
  </style>
 </defs>
 <g id="figure_1">
  <g id="patch_1">
   <path d="M 0 345.6 
L 460.8 345.6 
L 460.8 0 
L 0 0 
z
" style="fill:#ffffff;"/>
  </g>
  <g id="axes_1">
   <g id="patch_2">
    <path d="M 55.490865 137.71551 
L 227.133002 137.71551 
L 227.133002 18.118365 
L 55.490865 18.118365 
z
" style="fill:#ffffff;"/>
   </g>
   <g id="patch_3">
    <path clip-path="url(#pf95885b9c3)" d="M 63.29278 137.71551 
L 64.53118 137.71551 
L 64.53118 137.711139 
L 63.29278 137.711139 
z
" style="fill:#1f77b4;"/>
   </g>
   <g id="patch_4">
    <path clip-path="url(#pf95885b9c3)" d="M 64.840779 137.71551 
L 66.079179 137.71551 
L 66.079179 137.711139 
L 64.840779 137.711139 
z
" style="fill:#1f77b4;"/>
   </g>
   <g id="patch_5">
    <path clip-path="url(#pf95885b9c3)" d="M 66.388778 137.71551 
L 67.627178 137.71551 
L 67.627178 137.711139 
L 66.388778 137.711139 
z
" style="fill:#1f77b4;"/>
   </g>
   <g id="patch_6">
    <path clip-path="url(#pf95885b9c3)" d="M 67.936778 137.71551 
L 69.175177 137.71551 
L 69.175177 137.711139 
L 67.936778 137.711139 
z
" style="fill:#1f77b4;"/>
   </g>
   <g id="patch_7">
    <path clip-path="url(#pf95885b9c3)" d="M 69.484777 137.71551 
L 70.723176 137.71551 
L 70.723176 137.680539 
L 69.484777 137.680539 
z
" style="fill:#1f77b4;"/>
   </g>
   <g id="patch_8">
    <path clip-path="url(#pf95885b9c3)" d="M 71.032776 137.71551 
L 72.271175 137.71551 
L 72.271175 137.680539 
L 71.032776 137.680539 
z
" style="fill:#1f77b4;"/>
   </g>
   <g id="patch_9">
    <path clip-path="url(#pf95885b9c3)" d="M 72.580775 137.71551 
L 73.819174 137.71551 
L 73.819174 137.654311 
L 72.580775 137.654311 
z
" style="fill:#1f77b4;"/>
   </g>
   <g id="patch_10">
    <path clip-path="url(#pf95885b9c3)" d="M 74.128774 137.71551 
L 75.367173 137.71551 
L 75.367173 137.64994 
L 74.128774 137.64994 
z
" style="fill:#1f77b4;"/>
   </g>
   <g id="patch_11">
    <path clip-path="url(#pf95885b9c3)" d="M 75.676773 137.71551 
L 76.915172 137.71551 
L 76.915172 137.64994 
L 75.676773 137.64994 
z
" style="fill:#1f77b4;"/>
   </g>
   <g id="patch_12">
    <path clip-path="url(#pf95885b9c3)" d="M 77.224772 137.71551 
L 78.463171 137.71551 
L 78.463171 137.63464 
L 77.224772 137.63464 
z
" style="fill:#1f77b4;"/>
   </g>
   <g id="patch_13">
    <path clip-path="url(#pf95885b9c3)" d="M 78.772771 137.71551 
L 80.01117 137.71551 
L 80.01117 137.623712 
L 78.772771 137.623712 
z
" style="fill:#1f77b4;"/>
   </g>
   <g id="patch_14">
    <path clip-path="url(#pf95885b9c3)" d="M 80.32077 137.71551 
L 81.559169 137.71551 
L 81.559169 137.623712 
L 80.32077 137.623712 
z
" style="fill:#1f77b4;"/>
   </g>
   <g id="patch_15">
    <path clip-path="url(#pf95885b9c3)" d="M 81.868769 137.71551 
L 83.107168 137.71551 
L 83.107168 137.614969 
L 81.868769 137.614969 
z
" style="fill:#1f77b4;"/>
   </g>
   <g id="patch_16">
    <path clip-path="url(#pf95885b9c3)" d="M 83.416768 137.71551 
L 84.655167 137.71551 
L 84.655167 137.610598 
L 83.416768 137.610598 
z
" style="fill:#1f77b4;"/>
   </g>
   <g id="patch_17">
    <path clip-path="url(#pf95885b9c3)" d="M 84.964767 137.71551 
L 86.203167 137.71551 
L 86.203167 137.593112 
L 84.964767 137.593112 
z
" style="fill:#1f77b4;"/>
   </g>
   <g id="patch_18">
    <path clip-path="url(#pf95885b9c3)" d="M 86.512766 137.71551 
L 87.751166 137.71551 
L 87.751166 137.566884 
L 86.512766 137.566884 
z
" style="fill:#1f77b4;"/>
   </g>
   <g id="patch_19">
    <path clip-path="url(#pf95885b9c3)" d="M 88.060765 137.71551 
L 89.299165 137.71551 
L 89.299165 137.555956 
L 88.060765 137.555956 
z
" style="fill:#1f77b4;"/>
   </g>
   <g id="patch_20">
    <path clip-path="url(#pf95885b9c3)" d="M 89.608765 137.71551 
L 90.847164 137.71551 
L 90.847164 137.545027 
L 89.608765 137.545027 
z
" style="fill:#1f77b4;"/>
   </g>
   <g id="patch_21">
    <path clip-path="url(#pf95885b9c3)" d="M 91.156764 137.71551 
L 92.395163 137.71551 
L 92.395163 137.525356 
L 91.156764 137.525356 
z
" style="fill:#1f77b4;"/>
   </g>
   <g id="patch_22">
    <path clip-path="url(#pf95885b9c3)" d="M 92.704763 137.71551 
L 93.943162 137.71551 
L 93.943162 137.507871 
L 92.704763 137.507871 
z
" style="fill:#1f77b4;"/>
   </g>
   <g id="patch_23">
    <path clip-path="url(#pf95885b9c3)" d="M 94.252762 137.71551 
L 95.491161 137.71551 
L 95.491161 137.483829 
L 94.252762 137.483829 
z
" style="fill:#1f77b4;"/>
   </g>
   <g id="patch_24">
    <path clip-path="url(#pf95885b9c3)" d="M 95.800761 137.71551 
L 97.03916 137.71551 
L 97.03916 137.418258 
L 95.800761 137.418258 
z
" style="fill:#1f77b4;"/>
   </g>
   <g id="patch_25">
    <path clip-path="url(#pf95885b9c3)" d="M 97.34876 137.71551 
L 98.587159 137.71551 
L 98.587159 137.330831 
L 97.34876 137.330831 
z
" style="fill:#1f77b4;"/>
   </g>
   <g id="patch_26">
    <path clip-path="url(#pf95885b9c3)" d="M 98.896759 137.71551 
L 100.135158 137.71551 
L 100.135158 137.276189 
L 98.896759 137.276189 
z
" style="fill:#1f77b4;"/>
   </g>
   <g id="patch_27">
    <path clip-path="url(#pf95885b9c3)" d="M 100.444758 137.71551 
L 101.683157 137.71551 
L 101.683157 137.228105 
L 100.444758 137.228105 
z
" style="fill:#1f77b4;"/>
   </g>
   <g id="patch_28">
    <path clip-path="url(#pf95885b9c3)" d="M 101.992757 137.71551 
L 103.231156 137.71551 
L 103.231156 136.946153 
L 101.992757 136.946153 
z
" style="fill:#1f77b4;"/>
   </g>
   <g id="patch_29">
    <path clip-path="url(#pf95885b9c3)" d="M 103.540756 137.71551 
L 104.779155 137.71551 
L 104.779155 136.839055 
L 103.540756 136.839055 
z
" style="fill:#1f77b4;"/>
   </g>
   <g id="patch_30">
    <path clip-path="url(#pf95885b9c3)" d="M 105.088755 137.71551 
L 106.327154 137.71551 
L 106.327154 136.502461 
L 105.088755 136.502461 
z
" style="fill:#1f77b4;"/>
   </g>
   <g id="patch_31">
    <path clip-path="url(#pf95885b9c3)" d="M 106.636754 137.71551 
L 107.875154 137.71551 
L 107.875154 136.220509 
L 106.636754 136.220509 
z
" style="fill:#1f77b4;"/>
   </g>
   <g id="patch_32">
    <path clip-path="url(#pf95885b9c3)" d="M 108.184753 137.71551 
L 109.423153 137.71551 
L 109.423153 135.932 
L 108.184753 135.932 
z
" style="fill:#1f77b4;"/>
   </g>
   <g id="patch_33">
    <path clip-path="url(#pf95885b9c3)" d="M 109.732752 137.71551 
L 110.971152 137.71551 
L 110.971152 135.617263 
L 109.732752 135.617263 
z
" style="fill:#1f77b4;"/>
   </g>
   <g id="patch_34">
    <path clip-path="url(#pf95885b9c3)" d="M 111.280751 137.71551 
L 112.519151 137.71551 
L 112.519151 135.193242 
L 111.280751 135.193242 
z
" style="fill:#1f77b4;"/>
   </g>
   <g id="patch_35">
    <path clip-path="url(#pf95885b9c3)" d="M 112.828751 137.71551 
L 114.06715 137.71551 
L 114.06715 134.909104 
L 112.828751 134.909104 
z
" style="fill:#1f77b4;"/>
   </g>
   <g id="patch_36">
    <path clip-path="url(#pf95885b9c3)" d="M 114.37675 137.71551 
L 115.615149 137.71551 
L 115.615149 134.471969 
L 114.37675 134.471969 
z
" style="fill:#1f77b4;"/>
   </g>
   <g id="patch_37">
    <path clip-path="url(#pf95885b9c3)" d="M 115.924749 137.71551 
L 117.163148 137.71551 
L 117.163148 134.03702 
L 115.924749 134.03702 
z
" style="fill:#1f77b4;"/>
   </g>
   <g id="patch_38">
    <path clip-path="url(#pf95885b9c3)" d="M 117.472748 137.71551 
L 118.711147 137.71551 
L 118.711147 133.331047 
L 117.472748 133.331047 
z
" style="fill:#1f77b4;"/>
   </g>
   <g id="patch_39">
    <path clip-path="url(#pf95885b9c3)" d="M 119.020747 137.71551 
L 120.259146 137.71551 
L 120.259146 132.922326 
L 119.020747 132.922326 
z
" style="fill:#1f77b4;"/>
   </g>
   <g id="patch_40">
    <path clip-path="url(#pf95885b9c3)" d="M 120.568746 137.71551 
L 121.807145 137.71551 
L 121.807145 132.340937 
L 120.568746 132.340937 
z
" style="fill:#1f77b4;"/>
   </g>
   <g id="patch_41">
    <path clip-path="url(#pf95885b9c3)" d="M 122.116745 137.71551 
L 123.355144 137.71551 
L 123.355144 131.836046 
L 122.116745 131.836046 
z
" style="fill:#1f77b4;"/>
   </g>
   <g id="patch_42">
    <path clip-path="url(#pf95885b9c3)" d="M 123.664744 137.71551 
L 124.903143 137.71551 
L 124.903143 131.359569 
L 123.664744 131.359569 
z
" style="fill:#1f77b4;"/>
   </g>
   <g id="patch_43">
    <path clip-path="url(#pf95885b9c3)" d="M 125.212743 137.71551 
L 126.451142 137.71551 
L 126.451142 130.507156 
L 125.212743 130.507156 
z
" style="fill:#1f77b4;"/>
   </g>
   <g id="patch_44">
    <path clip-path="url(#pf95885b9c3)" d="M 126.760742 137.71551 
L 127.999141 137.71551 
L 127.999141 130.024122 
L 126.760742 130.024122 
z
" style="fill:#1f77b4;"/>
   </g>
   <g id="patch_45">
    <path clip-path="url(#pf95885b9c3)" d="M 128.308741 137.71551 
L 129.547141 137.71551 
L 129.547141 128.974999 
L 128.308741 128.974999 
z
" style="fill:#1f77b4;"/>
   </g>
   <g id="patch_46">
    <path clip-path="url(#pf95885b9c3)" d="M 129.85674 137.71551 
L 131.09514 137.71551 
L 131.09514 127.864676 
L 129.85674 127.864676 
z
" style="fill:#1f77b4;"/>
   </g>
   <g id="patch_47">
    <path clip-path="url(#pf95885b9c3)" d="M 131.404739 137.71551 
L 132.643139 137.71551 
L 132.643139 127.010077 
L 131.404739 127.010077 
z
" style="fill:#1f77b4;"/>
   </g>
   <g id="patch_48">
    <path clip-path="url(#pf95885b9c3)" d="M 132.952738 137.71551 
L 134.191138 137.71551 
L 134.191138 126.004667 
L 132.952738 126.004667 
z
" style="fill:#1f77b4;"/>
   </g>
   <g id="patch_49">
    <path clip-path="url(#pf95885b9c3)" d="M 134.500738 137.71551 
L 135.739137 137.71551 
L 135.739137 125.204711 
L 134.500738 125.204711 
z
" style="fill:#1f77b4;"/>
   </g>
   <g id="patch_50">
    <path clip-path="url(#pf95885b9c3)" d="M 136.048737 137.71551 
L 137.287136 137.71551 
L 137.287136 124.177444 
L 136.048737 124.177444 
z
" style="fill:#1f77b4;"/>
   </g>
   <g id="patch_51">
    <path clip-path="url(#pf95885b9c3)" d="M 137.596736 137.71551 
L 138.835135 137.71551 
L 138.835135 122.686814 
L 137.596736 122.686814 
z
" style="fill:#1f77b4;"/>
   </g>
   <g id="patch_52">
    <path clip-path="url(#pf95885b9c3)" d="M 139.144735 137.71551 
L 140.383134 137.71551 
L 140.383134 121.685775 
L 139.144735 121.685775 
z
" style="fill:#1f77b4;"/>
   </g>
   <g id="patch_53">
    <path clip-path="url(#pf95885b9c3)" d="M 140.692734 137.71551 
L 141.931133 137.71551 
L 141.931133 119.913193 
L 140.692734 119.913193 
z
" style="fill:#1f77b4;"/>
   </g>
   <g id="patch_54">
    <path clip-path="url(#pf95885b9c3)" d="M 142.240733 137.71551 
L 143.479132 137.71551 
L 143.479132 118.824727 
L 142.240733 118.824727 
z
" style="fill:#1f77b4;"/>
   </g>
   <g id="patch_55">
    <path clip-path="url(#pf95885b9c3)" d="M 143.788732 137.71551 
L 145.027131 137.71551 
L 145.027131 118.343879 
L 143.788732 118.343879 
z
" style="fill:#1f77b4;"/>
   </g>
   <g id="patch_56">
    <path clip-path="url(#pf95885b9c3)" d="M 145.336731 137.71551 
L 146.57513 137.71551 
L 146.57513 117.334097 
L 145.336731 117.334097 
z
" style="fill:#1f77b4;"/>
   </g>
   <g id="patch_57">
    <path clip-path="url(#pf95885b9c3)" d="M 146.88473 137.71551 
L 148.123129 137.71551 
L 148.123129 116.118863 
L 146.88473 116.118863 
z
" style="fill:#1f77b4;"/>
   </g>
   <g id="patch_58">
    <path clip-path="url(#pf95885b9c3)" d="M 148.432729 137.71551 
L 149.671128 137.71551 
L 149.671128 114.057772 
L 148.432729 114.057772 
z
" style="fill:#1f77b4;"/>
   </g>
   <g id="patch_59">
    <path clip-path="url(#pf95885b9c3)" d="M 149.980728 137.71551 
L 151.219127 137.71551 
L 151.219127 112.390102 
L 149.980728 112.390102 
z
" style="fill:#1f77b4;"/>
   </g>
   <g id="patch_60">
    <path clip-path="url(#pf95885b9c3)" d="M 151.528727 137.71551 
L 152.767127 137.71551 
L 152.767127 110.460152 
L 151.528727 110.460152 
z
" style="fill:#1f77b4;"/>
   </g>
   <g id="patch_61">
    <path clip-path="url(#pf95885b9c3)" d="M 153.076726 137.71551 
L 154.315126 137.71551 
L 154.315126 108.700684 
L 153.076726 108.700684 
z
" style="fill:#1f77b4;"/>
   </g>
   <g id="patch_62">
    <path clip-path="url(#pf95885b9c3)" d="M 154.624725 137.71551 
L 155.863125 137.71551 
L 155.863125 107.623147 
L 154.624725 107.623147 
z
" style="fill:#1f77b4;"/>
   </g>
   <g id="patch_63">
    <path clip-path="url(#pf95885b9c3)" d="M 156.172725 137.71551 
L 157.411124 137.71551 
L 157.411124 106.440697 
L 156.172725 106.440697 
z
" style="fill:#1f77b4;"/>
   </g>
   <g id="patch_64">
    <path clip-path="url(#pf95885b9c3)" d="M 157.720724 137.71551 
L 158.959123 137.71551 
L 158.959123 105.146778 
L 157.720724 105.146778 
z
" style="fill:#1f77b4;"/>
   </g>
   <g id="patch_65">
    <path clip-path="url(#pf95885b9c3)" d="M 159.268723 137.71551 
L 160.507122 137.71551 
L 160.507122 103.64522 
L 159.268723 103.64522 
z
" style="fill:#1f77b4;"/>
   </g>
   <g id="patch_66">
    <path clip-path="url(#pf95885b9c3)" d="M 160.816722 137.71551 
L 162.055121 137.71551 
L 162.055121 102.287916 
L 160.816722 102.287916 
z
" style="fill:#1f77b4;"/>
   </g>
   <g id="patch_67">
    <path clip-path="url(#pf95885b9c3)" d="M 162.364721 137.71551 
L 163.60312 137.71551 
L 163.60312 97.306764 
L 162.364721 97.306764 
z
" style="fill:#1f77b4;"/>
   </g>
   <g id="patch_68">
    <path clip-path="url(#pf95885b9c3)" d="M 163.91272 137.71551 
L 165.151119 137.71551 
L 165.151119 95.199774 
L 163.91272 95.199774 
z
" style="fill:#1f77b4;"/>
   </g>
   <g id="patch_69">
    <path clip-path="url(#pf95885b9c3)" d="M 165.460719 137.71551 
L 166.699118 137.71551 
L 166.699118 93.796571 
L 165.460719 93.796571 
z
" style="fill:#1f77b4;"/>
   </g>
   <g id="patch_70">
    <path clip-path="url(#pf95885b9c3)" d="M 167.008718 137.71551 
L 168.247117 137.71551 
L 168.247117 91.287417 
L 167.008718 91.287417 
z
" style="fill:#1f77b4;"/>
   </g>
   <g id="patch_71">
    <path clip-path="url(#pf95885b9c3)" d="M 168.556717 137.71551 
L 169.795116 137.71551 
L 169.795116 88.406699 
L 168.556717 88.406699 
z
" style="fill:#1f77b4;"/>
   </g>
   <g id="patch_72">
    <path clip-path="url(#pf95885b9c3)" d="M 170.104716 137.71551 
L 171.343115 137.71551 
L 171.343115 85.453853 
L 170.104716 85.453853 
z
" style="fill:#1f77b4;"/>
   </g>
   <g id="patch_73">
    <path clip-path="url(#pf95885b9c3)" d="M 171.652715 137.71551 
L 172.891114 137.71551 
L 172.891114 81.412541 
L 171.652715 81.412541 
z
" style="fill:#1f77b4;"/>
   </g>
   <g id="patch_74">
    <path clip-path="url(#pf95885b9c3)" d="M 173.200714 137.71551 
L 174.439114 137.71551 
L 174.439114 79.170039 
L 173.200714 79.170039 
z
" style="fill:#1f77b4;"/>
   </g>
   <g id="patch_75">
    <path clip-path="url(#pf95885b9c3)" d="M 174.748713 137.71551 
L 175.987113 137.71551 
L 175.987113 77.043378 
L 174.748713 77.043378 
z
" style="fill:#1f77b4;"/>
   </g>
   <g id="patch_76">
    <path clip-path="url(#pf95885b9c3)" d="M 176.296712 137.71551 
L 177.535112 137.71551 
L 177.535112 75.716674 
L 176.296712 75.716674 
z
" style="fill:#1f77b4;"/>
   </g>
   <g id="patch_77">
    <path clip-path="url(#pf95885b9c3)" d="M 177.844711 137.71551 
L 179.083111 137.71551 
L 179.083111 74.650065 
L 177.844711 74.650065 
z
" style="fill:#1f77b4;"/>
   </g>
   <g id="patch_78">
    <path clip-path="url(#pf95885b9c3)" d="M 179.392711 137.71551 
L 180.63111 137.71551 
L 180.63111 72.322322 
L 179.392711 72.322322 
z
" style="fill:#1f77b4;"/>
   </g>
   <g id="patch_79">
    <path clip-path="url(#pf95885b9c3)" d="M 180.94071 137.71551 
L 182.179109 137.71551 
L 182.179109 70.586896 
L 180.94071 70.586896 
z
" style="fill:#1f77b4;"/>
   </g>
   <g id="patch_80">
    <path clip-path="url(#pf95885b9c3)" d="M 182.488709 137.71551 
L 183.727108 137.71551 
L 183.727108 67.216587 
L 182.488709 67.216587 
z
" style="fill:#1f77b4;"/>
   </g>
   <g id="patch_81">
    <path clip-path="url(#pf95885b9c3)" d="M 184.036708 137.71551 
L 185.275107 137.71551 
L 185.275107 64.654976 
L 184.036708 64.654976 
z
" style="fill:#1f77b4;"/>
   </g>
   <g id="patch_82">
    <path clip-path="url(#pf95885b9c3)" d="M 185.584707 137.71551 
L 186.823106 137.71551 
L 186.823106 62.419032 
L 185.584707 62.419032 
z
" style="fill:#1f77b4;"/>
   </g>
   <g id="patch_83">
    <path clip-path="url(#pf95885b9c3)" d="M 187.132706 137.71551 
L 188.371105 137.71551 
L 188.371105 61.435478 
L 187.132706 61.435478 
z
" style="fill:#1f77b4;"/>
   </g>
   <g id="patch_84">
    <path clip-path="url(#pf95885b9c3)" d="M 188.680705 137.71551 
L 189.919104 137.71551 
L 189.919104 60.106588 
L 188.680705 60.106588 
z
" style="fill:#1f77b4;"/>
   </g>
   <g id="patch_85">
    <path clip-path="url(#pf95885b9c3)" d="M 190.228704 137.71551 
L 191.467103 137.71551 
L 191.467103 58.019269 
L 190.228704 58.019269 
z
" style="fill:#1f77b4;"/>
   </g>
   <g id="patch_86">
    <path clip-path="url(#pf95885b9c3)" d="M 191.776703 137.71551 
L 193.015102 137.71551 
L 193.015102 55.737425 
L 191.776703 55.737425 
z
" style="fill:#1f77b4;"/>
   </g>
   <g id="patch_87">
    <path clip-path="url(#pf95885b9c3)" d="M 193.324702 137.71551 
L 194.563101 137.71551 
L 194.563101 53.543008 
L 193.324702 53.543008 
z
" style="fill:#1f77b4;"/>
   </g>
   <g id="patch_88">
    <path clip-path="url(#pf95885b9c3)" d="M 194.872701 137.71551 
L 196.111101 137.71551 
L 196.111101 51.685185 
L 194.872701 51.685185 
z
" style="fill:#1f77b4;"/>
   </g>
   <g id="patch_89">
    <path clip-path="url(#pf95885b9c3)" d="M 196.4207 137.71551 
L 197.6591 137.71551 
L 197.6591 49.759606 
L 196.4207 49.759606 
z
" style="fill:#1f77b4;"/>
   </g>
   <g id="patch_90">
    <path clip-path="url(#pf95885b9c3)" d="M 197.968699 137.71551 
L 199.207099 137.71551 
L 199.207099 48.747639 
L 197.968699 48.747639 
z
" style="fill:#1f77b4;"/>
   </g>
   <g id="patch_91">
    <path clip-path="url(#pf95885b9c3)" d="M 199.516698 137.71551 
L 200.755098 137.71551 
L 200.755098 48.081008 
L 199.516698 48.081008 
z
" style="fill:#1f77b4;"/>
   </g>
   <g id="patch_92">
    <path clip-path="url(#pf95885b9c3)" d="M 201.064698 137.71551 
L 202.303097 137.71551 
L 202.303097 46.05926 
L 201.064698 46.05926 
z
" style="fill:#1f77b4;"/>
   </g>
   <g id="patch_93">
    <path clip-path="url(#pf95885b9c3)" d="M 202.612697 137.71551 
L 203.851096 137.71551 
L 203.851096 43.744631 
L 202.612697 43.744631 
z
" style="fill:#1f77b4;"/>
   </g>
   <g id="patch_94">
    <path clip-path="url(#pf95885b9c3)" d="M 204.160696 137.71551 
L 205.399095 137.71551 
L 205.399095 41.825609 
L 204.160696 41.825609 
z
" style="fill:#1f77b4;"/>
   </g>
   <g id="patch_95">
    <path clip-path="url(#pf95885b9c3)" d="M 205.708695 137.71551 
L 206.947094 137.71551 
L 206.947094 40.079255 
L 205.708695 40.079255 
z
" style="fill:#1f77b4;"/>
   </g>
   <g id="patch_96">
    <path clip-path="url(#pf95885b9c3)" d="M 207.256694 137.71551 
L 208.495093 137.71551 
L 208.495093 38.789707 
L 207.256694 38.789707 
z
" style="fill:#1f77b4;"/>
   </g>
   <g id="patch_97">
    <path clip-path="url(#pf95885b9c3)" d="M 208.804693 137.71551 
L 210.043092 137.71551 
L 210.043092 38.252031 
L 208.804693 38.252031 
z
" style="fill:#1f77b4;"/>
   </g>
   <g id="patch_98">
    <path clip-path="url(#pf95885b9c3)" d="M 210.352692 137.71551 
L 211.591091 137.71551 
L 211.591091 36.241211 
L 210.352692 36.241211 
z
" style="fill:#1f77b4;"/>
   </g>
   <g id="patch_99">
    <path clip-path="url(#pf95885b9c3)" d="M 211.900691 137.71551 
L 213.13909 137.71551 
L 213.13909 34.014009 
L 211.900691 34.014009 
z
" style="fill:#1f77b4;"/>
   </g>
   <g id="patch_100">
    <path clip-path="url(#pf95885b9c3)" d="M 213.44869 137.71551 
L 214.687089 137.71551 
L 214.687089 31.434913 
L 213.44869 31.434913 
z
" style="fill:#1f77b4;"/>
   </g>
   <g id="patch_101">
    <path clip-path="url(#pf95885b9c3)" d="M 214.996689 137.71551 
L 216.235088 137.71551 
L 216.235088 29.043786 
L 214.996689 29.043786 
z
" style="fill:#1f77b4;"/>
   </g>
   <g id="patch_102">
    <path clip-path="url(#pf95885b9c3)" d="M 216.544688 137.71551 
L 217.783087 137.71551 
L 217.783087 25.988213 
L 216.544688 25.988213 
z
" style="fill:#1f77b4;"/>
   </g>
   <g id="patch_103">
    <path clip-path="url(#pf95885b9c3)" d="M 218.092687 137.71551 
L 219.331087 137.71551 
L 219.331087 23.813467 
L 218.092687 23.813467 
z
" style="fill:#1f77b4;"/>
   </g>
   <g id="matplotlib.axis_1">
    <g id="xtick_1">
     <g id="line2d_1">
      <defs>
       <path d="M 0 0 
L 0 3.5 
" id="m209bf78da7" style="stroke:#000000;stroke-width:0.8;"/>
      </defs>
      <g>
       <use style="stroke:#000000;stroke-width:0.8;" x="63.91198" xlink:href="#m209bf78da7" y="137.71551"/>
      </g>
     </g>
     <g id="text_1">
      <!-- 0 -->
      <defs>
       <path d="M 31.78125 66.40625 
Q 24.171875 66.40625 20.328125 58.90625 
Q 16.5 51.421875 16.5 36.375 
Q 16.5 21.390625 20.328125 13.890625 
Q 24.171875 6.390625 31.78125 6.390625 
Q 39.453125 6.390625 43.28125 13.890625 
Q 47.125 21.390625 47.125 36.375 
Q 47.125 51.421875 43.28125 58.90625 
Q 39.453125 66.40625 31.78125 66.40625 
z
M 31.78125 74.21875 
Q 44.046875 74.21875 50.515625 64.515625 
Q 56.984375 54.828125 56.984375 36.375 
Q 56.984375 17.96875 50.515625 8.265625 
Q 44.046875 -1.421875 31.78125 -1.421875 
Q 19.53125 -1.421875 13.0625 8.265625 
Q 6.59375 17.96875 6.59375 36.375 
Q 6.59375 54.828125 13.0625 64.515625 
Q 19.53125 74.21875 31.78125 74.21875 
z
" id="DejaVuSans-48"/>
      </defs>
      <g transform="translate(60.73073 152.313947)scale(0.1 -0.1)">
       <use xlink:href="#DejaVuSans-48"/>
      </g>
     </g>
    </g>
    <g id="xtick_2">
     <g id="line2d_2">
      <g>
       <use style="stroke:#000000;stroke-width:0.8;" x="102.611957" xlink:href="#m209bf78da7" y="137.71551"/>
      </g>
     </g>
     <g id="text_2">
      <!-- 25 -->
      <defs>
       <path d="M 19.1875 8.296875 
L 53.609375 8.296875 
L 53.609375 0 
L 7.328125 0 
L 7.328125 8.296875 
Q 12.9375 14.109375 22.625 23.890625 
Q 32.328125 33.6875 34.8125 36.53125 
Q 39.546875 41.84375 41.421875 45.53125 
Q 43.3125 49.21875 43.3125 52.78125 
Q 43.3125 58.59375 39.234375 62.25 
Q 35.15625 65.921875 28.609375 65.921875 
Q 23.96875 65.921875 18.8125 64.3125 
Q 13.671875 62.703125 7.8125 59.421875 
L 7.8125 69.390625 
Q 13.765625 71.78125 18.9375 73 
Q 24.125 74.21875 28.421875 74.21875 
Q 39.75 74.21875 46.484375 68.546875 
Q 53.21875 62.890625 53.21875 53.421875 
Q 53.21875 48.921875 51.53125 44.890625 
Q 49.859375 40.875 45.40625 35.40625 
Q 44.1875 33.984375 37.640625 27.21875 
Q 31.109375 20.453125 19.1875 8.296875 
z
" id="DejaVuSans-50"/>
       <path d="M 10.796875 72.90625 
L 49.515625 72.90625 
L 49.515625 64.59375 
L 19.828125 64.59375 
L 19.828125 46.734375 
Q 21.96875 47.46875 24.109375 47.828125 
Q 26.265625 48.1875 28.421875 48.1875 
Q 40.625 48.1875 47.75 41.5 
Q 54.890625 34.8125 54.890625 23.390625 
Q 54.890625 11.625 47.5625 5.09375 
Q 40.234375 -1.421875 26.90625 -1.421875 
Q 22.3125 -1.421875 17.546875 -0.640625 
Q 12.796875 0.140625 7.71875 1.703125 
L 7.71875 11.625 
Q 12.109375 9.234375 16.796875 8.0625 
Q 21.484375 6.890625 26.703125 6.890625 
Q 35.15625 6.890625 40.078125 11.328125 
Q 45.015625 15.765625 45.015625 23.390625 
Q 45.015625 31 40.078125 35.4375 
Q 35.15625 39.890625 26.703125 39.890625 
Q 22.75 39.890625 18.8125 39.015625 
Q 14.890625 38.140625 10.796875 36.28125 
z
" id="DejaVuSans-53"/>
      </defs>
      <g transform="translate(96.249457 152.313947)scale(0.1 -0.1)">
       <use xlink:href="#DejaVuSans-50"/>
       <use x="63.623047" xlink:href="#DejaVuSans-53"/>
      </g>
     </g>
    </g>
    <g id="xtick_3">
     <g id="line2d_3">
      <g>
       <use style="stroke:#000000;stroke-width:0.8;" x="141.311933" xlink:href="#m209bf78da7" y="137.71551"/>
      </g>
     </g>
     <g id="text_3">
      <!-- 50 -->
      <g transform="translate(134.949433 152.313947)scale(0.1 -0.1)">
       <use xlink:href="#DejaVuSans-53"/>
       <use x="63.623047" xlink:href="#DejaVuSans-48"/>
      </g>
     </g>
    </g>
    <g id="xtick_4">
     <g id="line2d_4">
      <g>
       <use style="stroke:#000000;stroke-width:0.8;" x="180.01191" xlink:href="#m209bf78da7" y="137.71551"/>
      </g>
     </g>
     <g id="text_4">
      <!-- 75 -->
      <defs>
       <path d="M 8.203125 72.90625 
L 55.078125 72.90625 
L 55.078125 68.703125 
L 28.609375 0 
L 18.3125 0 
L 43.21875 64.59375 
L 8.203125 64.59375 
z
" id="DejaVuSans-55"/>
      </defs>
      <g transform="translate(173.64941 152.313947)scale(0.1 -0.1)">
       <use xlink:href="#DejaVuSans-55"/>
       <use x="63.623047" xlink:href="#DejaVuSans-53"/>
      </g>
     </g>
    </g>
    <g id="xtick_5">
     <g id="line2d_5">
      <g>
       <use style="stroke:#000000;stroke-width:0.8;" x="218.711887" xlink:href="#m209bf78da7" y="137.71551"/>
      </g>
     </g>
     <g id="text_5">
      <!-- 100 -->
      <defs>
       <path d="M 12.40625 8.296875 
L 28.515625 8.296875 
L 28.515625 63.921875 
L 10.984375 60.40625 
L 10.984375 69.390625 
L 28.421875 72.90625 
L 38.28125 72.90625 
L 38.28125 8.296875 
L 54.390625 8.296875 
L 54.390625 0 
L 12.40625 0 
z
" id="DejaVuSans-49"/>
      </defs>
      <g transform="translate(209.168137 152.313947)scale(0.1 -0.1)">
       <use xlink:href="#DejaVuSans-49"/>
       <use x="63.623047" xlink:href="#DejaVuSans-48"/>
       <use x="127.246094" xlink:href="#DejaVuSans-48"/>
      </g>
     </g>
    </g>
    <g id="text_6">
     <!-- Dias -->
     <defs>
      <path d="M 19.671875 64.796875 
L 19.671875 8.109375 
L 31.59375 8.109375 
Q 46.6875 8.109375 53.6875 14.9375 
Q 60.6875 21.78125 60.6875 36.53125 
Q 60.6875 51.171875 53.6875 57.984375 
Q 46.6875 64.796875 31.59375 64.796875 
z
M 9.8125 72.90625 
L 30.078125 72.90625 
Q 51.265625 72.90625 61.171875 64.09375 
Q 71.09375 55.28125 71.09375 36.53125 
Q 71.09375 17.671875 61.125 8.828125 
Q 51.171875 0 30.078125 0 
L 9.8125 0 
z
" id="DejaVuSans-68"/>
      <path d="M 9.421875 54.6875 
L 18.40625 54.6875 
L 18.40625 0 
L 9.421875 0 
z
M 9.421875 75.984375 
L 18.40625 75.984375 
L 18.40625 64.59375 
L 9.421875 64.59375 
z
" id="DejaVuSans-105"/>
      <path d="M 34.28125 27.484375 
Q 23.390625 27.484375 19.1875 25 
Q 14.984375 22.515625 14.984375 16.5 
Q 14.984375 11.71875 18.140625 8.90625 
Q 21.296875 6.109375 26.703125 6.109375 
Q 34.1875 6.109375 38.703125 11.40625 
Q 43.21875 16.703125 43.21875 25.484375 
L 43.21875 27.484375 
z
M 52.203125 31.203125 
L 52.203125 0 
L 43.21875 0 
L 43.21875 8.296875 
Q 40.140625 3.328125 35.546875 0.953125 
Q 30.953125 -1.421875 24.3125 -1.421875 
Q 15.921875 -1.421875 10.953125 3.296875 
Q 6 8.015625 6 15.921875 
Q 6 25.140625 12.171875 29.828125 
Q 18.359375 34.515625 30.609375 34.515625 
L 43.21875 34.515625 
L 43.21875 35.40625 
Q 43.21875 41.609375 39.140625 45 
Q 35.0625 48.390625 27.6875 48.390625 
Q 23 48.390625 18.546875 47.265625 
Q 14.109375 46.140625 10.015625 43.890625 
L 10.015625 52.203125 
Q 14.9375 54.109375 19.578125 55.046875 
Q 24.21875 56 28.609375 56 
Q 40.484375 56 46.34375 49.84375 
Q 52.203125 43.703125 52.203125 31.203125 
z
" id="DejaVuSans-97"/>
      <path d="M 44.28125 53.078125 
L 44.28125 44.578125 
Q 40.484375 46.53125 36.375 47.5 
Q 32.28125 48.484375 27.875 48.484375 
Q 21.1875 48.484375 17.84375 46.4375 
Q 14.5 44.390625 14.5 40.28125 
Q 14.5 37.15625 16.890625 35.375 
Q 19.28125 33.59375 26.515625 31.984375 
L 29.59375 31.296875 
Q 39.15625 29.25 43.1875 25.515625 
Q 47.21875 21.78125 47.21875 15.09375 
Q 47.21875 7.46875 41.1875 3.015625 
Q 35.15625 -1.421875 24.609375 -1.421875 
Q 20.21875 -1.421875 15.453125 -0.5625 
Q 10.6875 0.296875 5.421875 2 
L 5.421875 11.28125 
Q 10.40625 8.6875 15.234375 7.390625 
Q 20.0625 6.109375 24.8125 6.109375 
Q 31.15625 6.109375 34.5625 8.28125 
Q 37.984375 10.453125 37.984375 14.40625 
Q 37.984375 18.0625 35.515625 20.015625 
Q 33.0625 21.96875 24.703125 23.78125 
L 21.578125 24.515625 
Q 13.234375 26.265625 9.515625 29.90625 
Q 5.8125 33.546875 5.8125 39.890625 
Q 5.8125 47.609375 11.28125 51.796875 
Q 16.75 56 26.8125 56 
Q 31.78125 56 36.171875 55.265625 
Q 40.578125 54.546875 44.28125 53.078125 
z
" id="DejaVuSans-115"/>
     </defs>
     <g transform="translate(130.404121 165.992072)scale(0.1 -0.1)">
      <use xlink:href="#DejaVuSans-68"/>
      <use x="77.001953" xlink:href="#DejaVuSans-105"/>
      <use x="104.785156" xlink:href="#DejaVuSans-97"/>
      <use x="166.064453" xlink:href="#DejaVuSans-115"/>
     </g>
    </g>
   </g>
   <g id="matplotlib.axis_2">
    <g id="ytick_1">
     <g id="line2d_6">
      <defs>
       <path d="M 0 0 
L -3.5 0 
" id="md2820de683" style="stroke:#000000;stroke-width:0.8;"/>
      </defs>
      <g>
       <use style="stroke:#000000;stroke-width:0.8;" x="55.490865" xlink:href="#md2820de683" y="137.71551"/>
      </g>
     </g>
     <g id="text_7">
      <!-- 0 -->
      <g transform="translate(42.128365 141.514729)scale(0.1 -0.1)">
       <use xlink:href="#DejaVuSans-48"/>
      </g>
     </g>
    </g>
    <g id="ytick_2">
     <g id="line2d_7">
      <g>
       <use style="stroke:#000000;stroke-width:0.8;" x="55.490865" xlink:href="#md2820de683" y="94.002025"/>
      </g>
     </g>
     <g id="text_8">
      <!-- 20000 -->
      <g transform="translate(16.678365 97.801243)scale(0.1 -0.1)">
       <use xlink:href="#DejaVuSans-50"/>
       <use x="63.623047" xlink:href="#DejaVuSans-48"/>
       <use x="127.246094" xlink:href="#DejaVuSans-48"/>
       <use x="190.869141" xlink:href="#DejaVuSans-48"/>
       <use x="254.492188" xlink:href="#DejaVuSans-48"/>
      </g>
     </g>
    </g>
    <g id="ytick_3">
     <g id="line2d_8">
      <g>
       <use style="stroke:#000000;stroke-width:0.8;" x="55.490865" xlink:href="#md2820de683" y="50.288539"/>
      </g>
     </g>
     <g id="text_9">
      <!-- 40000 -->
      <defs>
       <path d="M 37.796875 64.3125 
L 12.890625 25.390625 
L 37.796875 25.390625 
z
M 35.203125 72.90625 
L 47.609375 72.90625 
L 47.609375 25.390625 
L 58.015625 25.390625 
L 58.015625 17.1875 
L 47.609375 17.1875 
L 47.609375 0 
L 37.796875 0 
L 37.796875 17.1875 
L 4.890625 17.1875 
L 4.890625 26.703125 
z
" id="DejaVuSans-52"/>
      </defs>
      <g transform="translate(16.678365 54.087758)scale(0.1 -0.1)">
       <use xlink:href="#DejaVuSans-52"/>
       <use x="63.623047" xlink:href="#DejaVuSans-48"/>
       <use x="127.246094" xlink:href="#DejaVuSans-48"/>
       <use x="190.869141" xlink:href="#DejaVuSans-48"/>
       <use x="254.492188" xlink:href="#DejaVuSans-48"/>
      </g>
     </g>
    </g>
    <g id="text_10">
     <!-- Casos -->
     <defs>
      <path d="M 64.40625 67.28125 
L 64.40625 56.890625 
Q 59.421875 61.53125 53.78125 63.8125 
Q 48.140625 66.109375 41.796875 66.109375 
Q 29.296875 66.109375 22.65625 58.46875 
Q 16.015625 50.828125 16.015625 36.375 
Q 16.015625 21.96875 22.65625 14.328125 
Q 29.296875 6.6875 41.796875 6.6875 
Q 48.140625 6.6875 53.78125 8.984375 
Q 59.421875 11.28125 64.40625 15.921875 
L 64.40625 5.609375 
Q 59.234375 2.09375 53.4375 0.328125 
Q 47.65625 -1.421875 41.21875 -1.421875 
Q 24.65625 -1.421875 15.125 8.703125 
Q 5.609375 18.84375 5.609375 36.375 
Q 5.609375 53.953125 15.125 64.078125 
Q 24.65625 74.21875 41.21875 74.21875 
Q 47.75 74.21875 53.53125 72.484375 
Q 59.328125 70.75 64.40625 67.28125 
z
" id="DejaVuSans-67"/>
      <path d="M 30.609375 48.390625 
Q 23.390625 48.390625 19.1875 42.75 
Q 14.984375 37.109375 14.984375 27.296875 
Q 14.984375 17.484375 19.15625 11.84375 
Q 23.34375 6.203125 30.609375 6.203125 
Q 37.796875 6.203125 41.984375 11.859375 
Q 46.1875 17.53125 46.1875 27.296875 
Q 46.1875 37.015625 41.984375 42.703125 
Q 37.796875 48.390625 30.609375 48.390625 
z
M 30.609375 56 
Q 42.328125 56 49.015625 48.375 
Q 55.71875 40.765625 55.71875 27.296875 
Q 55.71875 13.875 49.015625 6.21875 
Q 42.328125 -1.421875 30.609375 -1.421875 
Q 18.84375 -1.421875 12.171875 6.21875 
Q 5.515625 13.875 5.515625 27.296875 
Q 5.515625 40.765625 12.171875 48.375 
Q 18.84375 56 30.609375 56 
z
" id="DejaVuSans-111"/>
     </defs>
     <g transform="translate(10.598678 92.741156)rotate(-90)scale(0.1 -0.1)">
      <use xlink:href="#DejaVuSans-67"/>
      <use x="69.824219" xlink:href="#DejaVuSans-97"/>
      <use x="131.103516" xlink:href="#DejaVuSans-115"/>
      <use x="183.203125" xlink:href="#DejaVuSans-111"/>
      <use x="244.384766" xlink:href="#DejaVuSans-115"/>
     </g>
    </g>
   </g>
   <g id="line2d_9">
    <path clip-path="url(#pf95885b9c3)" d="M 63.91198 137.703135 
L 65.459979 137.699091 
L 67.007978 137.693879 
L 68.555977 137.687691 
L 70.103976 137.680604 
L 71.651975 137.67277 
L 73.199974 137.66434 
L 74.747973 137.655443 
L 76.295973 137.646136 
L 77.843972 137.636399 
L 79.391971 137.626141 
L 80.93997 137.61516 
L 82.487969 137.603111 
L 84.035968 137.589476 
L 85.583967 137.573522 
L 87.131966 137.554239 
L 88.679965 137.530288 
L 90.227964 137.499964 
L 91.775963 137.461156 
L 93.323962 137.411239 
L 94.871961 137.347363 
L 96.41996 137.266422 
L 97.967959 137.165369 
L 99.515959 137.041256 
L 101.063958 136.891369 
L 102.611957 136.713383 
L 104.159956 136.505758 
L 105.707955 136.267335 
L 107.255954 135.997471 
L 108.803953 135.695759 
L 110.351952 135.362166 
L 111.899951 134.99666 
L 113.44795 134.59913 
L 114.995949 134.168817 
L 116.543948 133.704532 
L 118.091947 133.204723 
L 119.639946 132.667127 
L 121.187946 132.088772 
L 122.735945 131.466521 
L 124.283944 130.797081 
L 125.831943 130.07791 
L 127.379942 129.307292 
L 128.927941 128.484094 
L 130.47594 127.60877 
L 132.023939 126.682772 
L 133.571938 125.708482 
L 135.119937 124.688998 
L 136.667936 123.626637 
L 138.215935 122.522802 
L 139.763934 121.378135 
L 141.311933 120.192228 
L 142.859933 118.964789 
L 144.407932 117.694026 
L 145.955931 116.377171 
L 147.50393 115.011946 
L 149.051929 113.596103 
L 150.599928 112.1267 
L 152.147927 110.598501 
L 153.695926 109.001621 
L 155.243925 107.326554 
L 156.791924 105.563863 
L 158.339923 103.70365 
L 159.887922 101.73769 
L 161.435921 99.661622 
L 162.98392 97.478205 
L 164.531919 95.20162 
L 166.079919 92.850165 
L 167.627918 90.446081 
L 169.175917 88.01544 
L 170.723916 85.584649 
L 172.271915 83.177908 
L 173.819914 80.813414 
L 175.367913 78.499533 
L 176.915912 76.240182 
L 178.463911 74.035212 
L 180.01191 71.880207 
L 181.559909 69.769432 
L 183.107908 67.696922 
L 184.655907 65.65927 
L 186.203906 63.656228 
L 187.751906 61.688341 
L 189.299905 59.75669 
L 190.847904 57.863525 
L 192.395903 56.009947 
L 193.943902 54.195811 
L 195.491901 52.418471 
L 197.0399 50.673423 
L 198.587899 48.954636 
L 200.135898 47.25382 
L 201.683897 45.558889 
L 203.231896 43.856132 
L 204.779895 42.130483 
L 206.327894 40.366444 
L 207.875893 38.548101 
L 209.423893 36.66062 
L 210.971892 34.696887 
L 212.519891 32.653853 
L 214.06789 30.532021 
L 215.615889 28.359114 
L 217.163888 26.138796 
L 218.711887 23.877368 
" style="fill:none;stroke:#ff0000;stroke-linecap:square;stroke-width:1.5;"/>
   </g>
   <g id="patch_104">
    <path d="M 55.490865 137.71551 
L 55.490865 18.118365 
" style="fill:none;stroke:#000000;stroke-linecap:square;stroke-linejoin:miter;stroke-width:0.8;"/>
   </g>
   <g id="patch_105">
    <path d="M 227.133002 137.71551 
L 227.133002 18.118365 
" style="fill:none;stroke:#000000;stroke-linecap:square;stroke-linejoin:miter;stroke-width:0.8;"/>
   </g>
   <g id="patch_106">
    <path d="M 55.490865 137.71551 
L 227.133002 137.71551 
" style="fill:none;stroke:#000000;stroke-linecap:square;stroke-linejoin:miter;stroke-width:0.8;"/>
   </g>
   <g id="patch_107">
    <path d="M 55.490865 18.118365 
L 227.133002 18.118365 
" style="fill:none;stroke:#000000;stroke-linecap:square;stroke-linejoin:miter;stroke-width:0.8;"/>
   </g>
   <g id="text_11">
    <!-- Casos acumulados - PE -->
    <defs>
     <path id="DejaVuSans-32"/>
     <path d="M 48.78125 52.59375 
L 48.78125 44.1875 
Q 44.96875 46.296875 41.140625 47.34375 
Q 37.3125 48.390625 33.40625 48.390625 
Q 24.65625 48.390625 19.8125 42.84375 
Q 14.984375 37.3125 14.984375 27.296875 
Q 14.984375 17.28125 19.8125 11.734375 
Q 24.65625 6.203125 33.40625 6.203125 
Q 37.3125 6.203125 41.140625 7.25 
Q 44.96875 8.296875 48.78125 10.40625 
L 48.78125 2.09375 
Q 45.015625 0.34375 40.984375 -0.53125 
Q 36.96875 -1.421875 32.421875 -1.421875 
Q 20.0625 -1.421875 12.78125 6.34375 
Q 5.515625 14.109375 5.515625 27.296875 
Q 5.515625 40.671875 12.859375 48.328125 
Q 20.21875 56 33.015625 56 
Q 37.15625 56 41.109375 55.140625 
Q 45.0625 54.296875 48.78125 52.59375 
z
" id="DejaVuSans-99"/>
     <path d="M 8.5 21.578125 
L 8.5 54.6875 
L 17.484375 54.6875 
L 17.484375 21.921875 
Q 17.484375 14.15625 20.5 10.265625 
Q 23.53125 6.390625 29.59375 6.390625 
Q 36.859375 6.390625 41.078125 11.03125 
Q 45.3125 15.671875 45.3125 23.6875 
L 45.3125 54.6875 
L 54.296875 54.6875 
L 54.296875 0 
L 45.3125 0 
L 45.3125 8.40625 
Q 42.046875 3.421875 37.71875 1 
Q 33.40625 -1.421875 27.6875 -1.421875 
Q 18.265625 -1.421875 13.375 4.4375 
Q 8.5 10.296875 8.5 21.578125 
z
M 31.109375 56 
z
" id="DejaVuSans-117"/>
     <path d="M 52 44.1875 
Q 55.375 50.25 60.0625 53.125 
Q 64.75 56 71.09375 56 
Q 79.640625 56 84.28125 50.015625 
Q 88.921875 44.046875 88.921875 33.015625 
L 88.921875 0 
L 79.890625 0 
L 79.890625 32.71875 
Q 79.890625 40.578125 77.09375 44.375 
Q 74.3125 48.1875 68.609375 48.1875 
Q 61.625 48.1875 57.5625 43.546875 
Q 53.515625 38.921875 53.515625 30.90625 
L 53.515625 0 
L 44.484375 0 
L 44.484375 32.71875 
Q 44.484375 40.625 41.703125 44.40625 
Q 38.921875 48.1875 33.109375 48.1875 
Q 26.21875 48.1875 22.15625 43.53125 
Q 18.109375 38.875 18.109375 30.90625 
L 18.109375 0 
L 9.078125 0 
L 9.078125 54.6875 
L 18.109375 54.6875 
L 18.109375 46.1875 
Q 21.1875 51.21875 25.484375 53.609375 
Q 29.78125 56 35.6875 56 
Q 41.65625 56 45.828125 52.96875 
Q 50 49.953125 52 44.1875 
z
" id="DejaVuSans-109"/>
     <path d="M 9.421875 75.984375 
L 18.40625 75.984375 
L 18.40625 0 
L 9.421875 0 
z
" id="DejaVuSans-108"/>
     <path d="M 45.40625 46.390625 
L 45.40625 75.984375 
L 54.390625 75.984375 
L 54.390625 0 
L 45.40625 0 
L 45.40625 8.203125 
Q 42.578125 3.328125 38.25 0.953125 
Q 33.9375 -1.421875 27.875 -1.421875 
Q 17.96875 -1.421875 11.734375 6.484375 
Q 5.515625 14.40625 5.515625 27.296875 
Q 5.515625 40.1875 11.734375 48.09375 
Q 17.96875 56 27.875 56 
Q 33.9375 56 38.25 53.625 
Q 42.578125 51.265625 45.40625 46.390625 
z
M 14.796875 27.296875 
Q 14.796875 17.390625 18.875 11.75 
Q 22.953125 6.109375 30.078125 6.109375 
Q 37.203125 6.109375 41.296875 11.75 
Q 45.40625 17.390625 45.40625 27.296875 
Q 45.40625 37.203125 41.296875 42.84375 
Q 37.203125 48.484375 30.078125 48.484375 
Q 22.953125 48.484375 18.875 42.84375 
Q 14.796875 37.203125 14.796875 27.296875 
z
" id="DejaVuSans-100"/>
     <path d="M 4.890625 31.390625 
L 31.203125 31.390625 
L 31.203125 23.390625 
L 4.890625 23.390625 
z
" id="DejaVuSans-45"/>
     <path d="M 19.671875 64.796875 
L 19.671875 37.40625 
L 32.078125 37.40625 
Q 38.96875 37.40625 42.71875 40.96875 
Q 46.484375 44.53125 46.484375 51.125 
Q 46.484375 57.671875 42.71875 61.234375 
Q 38.96875 64.796875 32.078125 64.796875 
z
M 9.8125 72.90625 
L 32.078125 72.90625 
Q 44.34375 72.90625 50.609375 67.359375 
Q 56.890625 61.8125 56.890625 51.125 
Q 56.890625 40.328125 50.609375 34.8125 
Q 44.34375 29.296875 32.078125 29.296875 
L 19.671875 29.296875 
L 19.671875 0 
L 9.8125 0 
z
" id="DejaVuSans-80"/>
     <path d="M 9.8125 72.90625 
L 55.90625 72.90625 
L 55.90625 64.59375 
L 19.671875 64.59375 
L 19.671875 43.015625 
L 54.390625 43.015625 
L 54.390625 34.71875 
L 19.671875 34.71875 
L 19.671875 8.296875 
L 56.78125 8.296875 
L 56.78125 0 
L 9.8125 0 
z
" id="DejaVuSans-69"/>
    </defs>
    <g transform="translate(71.853496 12.118365)scale(0.12 -0.12)">
     <use xlink:href="#DejaVuSans-67"/>
     <use x="69.824219" xlink:href="#DejaVuSans-97"/>
     <use x="131.103516" xlink:href="#DejaVuSans-115"/>
     <use x="183.203125" xlink:href="#DejaVuSans-111"/>
     <use x="244.384766" xlink:href="#DejaVuSans-115"/>
     <use x="296.484375" xlink:href="#DejaVuSans-32"/>
     <use x="328.271484" xlink:href="#DejaVuSans-97"/>
     <use x="389.550781" xlink:href="#DejaVuSans-99"/>
     <use x="444.53125" xlink:href="#DejaVuSans-117"/>
     <use x="507.910156" xlink:href="#DejaVuSans-109"/>
     <use x="605.322266" xlink:href="#DejaVuSans-117"/>
     <use x="668.701172" xlink:href="#DejaVuSans-108"/>
     <use x="696.484375" xlink:href="#DejaVuSans-97"/>
     <use x="757.763672" xlink:href="#DejaVuSans-100"/>
     <use x="821.240234" xlink:href="#DejaVuSans-111"/>
     <use x="882.421875" xlink:href="#DejaVuSans-115"/>
     <use x="934.521484" xlink:href="#DejaVuSans-32"/>
     <use x="966.308594" xlink:href="#DejaVuSans-45"/>
     <use x="1002.392578" xlink:href="#DejaVuSans-32"/>
     <use x="1034.179688" xlink:href="#DejaVuSans-80"/>
     <use x="1094.482422" xlink:href="#DejaVuSans-69"/>
    </g>
   </g>
  </g>
  <g id="axes_2">
   <g id="patch_108">
    <path d="M 285.013615 137.71551 
L 456.655752 137.71551 
L 456.655752 18.118365 
L 285.013615 18.118365 
z
" style="fill:#ffffff;"/>
   </g>
   <g id="patch_109">
    <path clip-path="url(#pfc63616388)" d="M 292.81553 137.71551 
L 294.05393 137.71551 
L 294.05393 137.71551 
L 292.81553 137.71551 
z
" style="fill:#1f77b4;"/>
   </g>
   <g id="patch_110">
    <path clip-path="url(#pfc63616388)" d="M 294.363529 137.71551 
L 295.601929 137.71551 
L 295.601929 137.71551 
L 294.363529 137.71551 
z
" style="fill:#1f77b4;"/>
   </g>
   <g id="patch_111">
    <path clip-path="url(#pfc63616388)" d="M 295.911528 137.71551 
L 297.149928 137.71551 
L 297.149928 137.71551 
L 295.911528 137.71551 
z
" style="fill:#1f77b4;"/>
   </g>
   <g id="patch_112">
    <path clip-path="url(#pfc63616388)" d="M 297.459528 137.71551 
L 298.697927 137.71551 
L 298.697927 137.71551 
L 297.459528 137.71551 
z
" style="fill:#1f77b4;"/>
   </g>
   <g id="patch_113">
    <path clip-path="url(#pfc63616388)" d="M 299.007527 137.71551 
L 300.245926 137.71551 
L 300.245926 137.015805 
L 299.007527 137.015805 
z
" style="fill:#1f77b4;"/>
   </g>
   <g id="patch_114">
    <path clip-path="url(#pfc63616388)" d="M 300.555526 137.71551 
L 301.793925 137.71551 
L 301.793925 137.71551 
L 300.555526 137.71551 
z
" style="fill:#1f77b4;"/>
   </g>
   <g id="patch_115">
    <path clip-path="url(#pfc63616388)" d="M 302.103525 137.71551 
L 303.341924 137.71551 
L 303.341924 137.115763 
L 302.103525 137.115763 
z
" style="fill:#1f77b4;"/>
   </g>
   <g id="patch_116">
    <path clip-path="url(#pfc63616388)" d="M 303.651524 137.71551 
L 304.889923 137.71551 
L 304.889923 137.615552 
L 303.651524 137.615552 
z
" style="fill:#1f77b4;"/>
   </g>
   <g id="patch_117">
    <path clip-path="url(#pfc63616388)" d="M 305.199523 137.71551 
L 306.437922 137.71551 
L 306.437922 137.71551 
L 305.199523 137.71551 
z
" style="fill:#1f77b4;"/>
   </g>
   <g id="patch_118">
    <path clip-path="url(#pfc63616388)" d="M 306.747522 137.71551 
L 307.985921 137.71551 
L 307.985921 137.365657 
L 306.747522 137.365657 
z
" style="fill:#1f77b4;"/>
   </g>
   <g id="patch_119">
    <path clip-path="url(#pfc63616388)" d="M 308.295521 137.71551 
L 309.53392 137.71551 
L 309.53392 137.465615 
L 308.295521 137.465615 
z
" style="fill:#1f77b4;"/>
   </g>
   <g id="patch_120">
    <path clip-path="url(#pfc63616388)" d="M 309.84352 137.71551 
L 311.081919 137.71551 
L 311.081919 137.71551 
L 309.84352 137.71551 
z
" style="fill:#1f77b4;"/>
   </g>
   <g id="patch_121">
    <path clip-path="url(#pfc63616388)" d="M 311.391519 137.71551 
L 312.629918 137.71551 
L 312.629918 137.515594 
L 311.391519 137.515594 
z
" style="fill:#1f77b4;"/>
   </g>
   <g id="patch_122">
    <path clip-path="url(#pfc63616388)" d="M 312.939518 137.71551 
L 314.177917 137.71551 
L 314.177917 137.615552 
L 312.939518 137.615552 
z
" style="fill:#1f77b4;"/>
   </g>
   <g id="patch_123">
    <path clip-path="url(#pfc63616388)" d="M 314.487517 137.71551 
L 315.725917 137.71551 
L 315.725917 137.315678 
L 314.487517 137.315678 
z
" style="fill:#1f77b4;"/>
   </g>
   <g id="patch_124">
    <path clip-path="url(#pfc63616388)" d="M 316.035516 137.71551 
L 317.273916 137.71551 
L 317.273916 137.115763 
L 316.035516 137.115763 
z
" style="fill:#1f77b4;"/>
   </g>
   <g id="patch_125">
    <path clip-path="url(#pfc63616388)" d="M 317.583515 137.71551 
L 318.821915 137.71551 
L 318.821915 137.465615 
L 317.583515 137.465615 
z
" style="fill:#1f77b4;"/>
   </g>
   <g id="patch_126">
    <path clip-path="url(#pfc63616388)" d="M 319.131515 137.71551 
L 320.369914 137.71551 
L 320.369914 137.465615 
L 319.131515 137.465615 
z
" style="fill:#1f77b4;"/>
   </g>
   <g id="patch_127">
    <path clip-path="url(#pfc63616388)" d="M 320.679514 137.71551 
L 321.917913 137.71551 
L 321.917913 137.265699 
L 320.679514 137.265699 
z
" style="fill:#1f77b4;"/>
   </g>
   <g id="patch_128">
    <path clip-path="url(#pfc63616388)" d="M 322.227513 137.71551 
L 323.465912 137.71551 
L 323.465912 137.315678 
L 322.227513 137.315678 
z
" style="fill:#1f77b4;"/>
   </g>
   <g id="patch_129">
    <path clip-path="url(#pfc63616388)" d="M 323.775512 137.71551 
L 325.013911 137.71551 
L 325.013911 137.165741 
L 323.775512 137.165741 
z
" style="fill:#1f77b4;"/>
   </g>
   <g id="patch_130">
    <path clip-path="url(#pfc63616388)" d="M 325.323511 137.71551 
L 326.56191 137.71551 
L 326.56191 136.216141 
L 325.323511 136.216141 
z
" style="fill:#1f77b4;"/>
   </g>
   <g id="patch_131">
    <path clip-path="url(#pfc63616388)" d="M 326.87151 137.71551 
L 328.109909 137.71551 
L 328.109909 135.716352 
L 326.87151 135.716352 
z
" style="fill:#1f77b4;"/>
   </g>
   <g id="patch_132">
    <path clip-path="url(#pfc63616388)" d="M 328.419509 137.71551 
L 329.657908 137.71551 
L 329.657908 136.466036 
L 328.419509 136.466036 
z
" style="fill:#1f77b4;"/>
   </g>
   <g id="patch_133">
    <path clip-path="url(#pfc63616388)" d="M 329.967508 137.71551 
L 331.205907 137.71551 
L 331.205907 136.615973 
L 329.967508 136.615973 
z
" style="fill:#1f77b4;"/>
   </g>
   <g id="patch_134">
    <path clip-path="url(#pfc63616388)" d="M 331.515507 137.71551 
L 332.753906 137.71551 
L 332.753906 131.268225 
L 331.515507 131.268225 
z
" style="fill:#1f77b4;"/>
   </g>
   <g id="patch_135">
    <path clip-path="url(#pfc63616388)" d="M 333.063506 137.71551 
L 334.301905 137.71551 
L 334.301905 135.266541 
L 333.063506 135.266541 
z
" style="fill:#1f77b4;"/>
   </g>
   <g id="patch_136">
    <path clip-path="url(#pfc63616388)" d="M 334.611505 137.71551 
L 335.849904 137.71551 
L 335.849904 130.018751 
L 334.611505 130.018751 
z
" style="fill:#1f77b4;"/>
   </g>
   <g id="patch_137">
    <path clip-path="url(#pfc63616388)" d="M 336.159504 137.71551 
L 337.397904 137.71551 
L 337.397904 131.268225 
L 336.159504 131.268225 
z
" style="fill:#1f77b4;"/>
   </g>
   <g id="patch_138">
    <path clip-path="url(#pfc63616388)" d="M 337.707503 137.71551 
L 338.945903 137.71551 
L 338.945903 131.118288 
L 337.707503 131.118288 
z
" style="fill:#1f77b4;"/>
   </g>
   <g id="patch_139">
    <path clip-path="url(#pfc63616388)" d="M 339.255502 137.71551 
L 340.493902 137.71551 
L 340.493902 130.51854 
L 339.255502 130.51854 
z
" style="fill:#1f77b4;"/>
   </g>
   <g id="patch_140">
    <path clip-path="url(#pfc63616388)" d="M 340.803501 137.71551 
L 342.041901 137.71551 
L 342.041901 128.019592 
L 340.803501 128.019592 
z
" style="fill:#1f77b4;"/>
   </g>
   <g id="patch_141">
    <path clip-path="url(#pfc63616388)" d="M 342.351501 137.71551 
L 343.5899 137.71551 
L 343.5899 131.218246 
L 342.351501 131.218246 
z
" style="fill:#1f77b4;"/>
   </g>
   <g id="patch_142">
    <path clip-path="url(#pfc63616388)" d="M 343.8995 137.71551 
L 345.137899 137.71551 
L 345.137899 127.719719 
L 343.8995 127.719719 
z
" style="fill:#1f77b4;"/>
   </g>
   <g id="patch_143">
    <path clip-path="url(#pfc63616388)" d="M 345.447499 137.71551 
L 346.685898 137.71551 
L 346.685898 127.769698 
L 345.447499 127.769698 
z
" style="fill:#1f77b4;"/>
   </g>
   <g id="patch_144">
    <path clip-path="url(#pfc63616388)" d="M 346.995498 137.71551 
L 348.233897 137.71551 
L 348.233897 121.572307 
L 346.995498 121.572307 
z
" style="fill:#1f77b4;"/>
   </g>
   <g id="patch_145">
    <path clip-path="url(#pfc63616388)" d="M 348.543497 137.71551 
L 349.781896 137.71551 
L 349.781896 128.369445 
L 348.543497 128.369445 
z
" style="fill:#1f77b4;"/>
   </g>
   <g id="patch_146">
    <path clip-path="url(#pfc63616388)" d="M 350.091496 137.71551 
L 351.329895 137.71551 
L 351.329895 124.421107 
L 350.091496 124.421107 
z
" style="fill:#1f77b4;"/>
   </g>
   <g id="patch_147">
    <path clip-path="url(#pfc63616388)" d="M 351.639495 137.71551 
L 352.877894 137.71551 
L 352.877894 126.170371 
L 351.639495 126.170371 
z
" style="fill:#1f77b4;"/>
   </g>
   <g id="patch_148">
    <path clip-path="url(#pfc63616388)" d="M 353.187494 137.71551 
L 354.425893 137.71551 
L 354.425893 126.820097 
L 353.187494 126.820097 
z
" style="fill:#1f77b4;"/>
   </g>
   <g id="patch_149">
    <path clip-path="url(#pfc63616388)" d="M 354.735493 137.71551 
L 355.973892 137.71551 
L 355.973892 118.223717 
L 354.735493 118.223717 
z
" style="fill:#1f77b4;"/>
   </g>
   <g id="patch_150">
    <path clip-path="url(#pfc63616388)" d="M 356.283492 137.71551 
L 357.521891 137.71551 
L 357.521891 126.670161 
L 356.283492 126.670161 
z
" style="fill:#1f77b4;"/>
   </g>
   <g id="patch_151">
    <path clip-path="url(#pfc63616388)" d="M 357.831491 137.71551 
L 359.069891 137.71551 
L 359.069891 113.725611 
L 357.831491 113.725611 
z
" style="fill:#1f77b4;"/>
   </g>
   <g id="patch_152">
    <path clip-path="url(#pfc63616388)" d="M 359.37949 137.71551 
L 360.61789 137.71551 
L 360.61789 112.3262 
L 359.37949 112.3262 
z
" style="fill:#1f77b4;"/>
   </g>
   <g id="patch_153">
    <path clip-path="url(#pfc63616388)" d="M 360.927489 137.71551 
L 362.165889 137.71551 
L 362.165889 118.173738 
L 360.927489 118.173738 
z
" style="fill:#1f77b4;"/>
   </g>
   <g id="patch_154">
    <path clip-path="url(#pfc63616388)" d="M 362.475488 137.71551 
L 363.713888 137.71551 
L 363.713888 114.72519 
L 362.475488 114.72519 
z
" style="fill:#1f77b4;"/>
   </g>
   <g id="patch_155">
    <path clip-path="url(#pfc63616388)" d="M 364.023488 137.71551 
L 365.261887 137.71551 
L 365.261887 119.423212 
L 364.023488 119.423212 
z
" style="fill:#1f77b4;"/>
   </g>
   <g id="patch_156">
    <path clip-path="url(#pfc63616388)" d="M 365.571487 137.71551 
L 366.809886 137.71551 
L 366.809886 114.2254 
L 365.571487 114.2254 
z
" style="fill:#1f77b4;"/>
   </g>
   <g id="patch_157">
    <path clip-path="url(#pfc63616388)" d="M 367.119486 137.71551 
L 368.357885 137.71551 
L 368.357885 103.629861 
L 367.119486 103.629861 
z
" style="fill:#1f77b4;"/>
   </g>
   <g id="patch_158">
    <path clip-path="url(#pfc63616388)" d="M 368.667485 137.71551 
L 369.905884 137.71551 
L 369.905884 114.825148 
L 368.667485 114.825148 
z
" style="fill:#1f77b4;"/>
   </g>
   <g id="patch_159">
    <path clip-path="url(#pfc63616388)" d="M 370.215484 137.71551 
L 371.453883 137.71551 
L 371.453883 97.182576 
L 370.215484 97.182576 
z
" style="fill:#1f77b4;"/>
   </g>
   <g id="patch_160">
    <path clip-path="url(#pfc63616388)" d="M 371.763483 137.71551 
L 373.001882 137.71551 
L 373.001882 112.825989 
L 371.763483 112.825989 
z
" style="fill:#1f77b4;"/>
   </g>
   <g id="patch_161">
    <path clip-path="url(#pfc63616388)" d="M 373.311482 137.71551 
L 374.549881 137.71551 
L 374.549881 126.720139 
L 373.311482 126.720139 
z
" style="fill:#1f77b4;"/>
   </g>
   <g id="patch_162">
    <path clip-path="url(#pfc63616388)" d="M 374.859481 137.71551 
L 376.09788 137.71551 
L 376.09788 114.625232 
L 374.859481 114.625232 
z
" style="fill:#1f77b4;"/>
   </g>
   <g id="patch_163">
    <path clip-path="url(#pfc63616388)" d="M 376.40748 137.71551 
L 377.645879 137.71551 
L 377.645879 109.92721 
L 376.40748 109.92721 
z
" style="fill:#1f77b4;"/>
   </g>
   <g id="patch_164">
    <path clip-path="url(#pfc63616388)" d="M 377.955479 137.71551 
L 379.193878 137.71551 
L 379.193878 90.585354 
L 377.955479 90.585354 
z
" style="fill:#1f77b4;"/>
   </g>
   <g id="patch_165">
    <path clip-path="url(#pfc63616388)" d="M 379.503478 137.71551 
L 380.741877 137.71551 
L 380.741877 99.581566 
L 379.503478 99.581566 
z
" style="fill:#1f77b4;"/>
   </g>
   <g id="patch_166">
    <path clip-path="url(#pfc63616388)" d="M 381.051477 137.71551 
L 382.289877 137.71551 
L 382.289877 93.584091 
L 381.051477 93.584091 
z
" style="fill:#1f77b4;"/>
   </g>
   <g id="patch_167">
    <path clip-path="url(#pfc63616388)" d="M 382.599476 137.71551 
L 383.837876 137.71551 
L 383.837876 97.48245 
L 382.599476 97.48245 
z
" style="fill:#1f77b4;"/>
   </g>
   <g id="patch_168">
    <path clip-path="url(#pfc63616388)" d="M 384.147475 137.71551 
L 385.385875 137.71551 
L 385.385875 113.075884 
L 384.147475 113.075884 
z
" style="fill:#1f77b4;"/>
   </g>
   <g id="patch_169">
    <path clip-path="url(#pfc63616388)" d="M 385.695475 137.71551 
L 386.933874 137.71551 
L 386.933874 110.676894 
L 385.695475 110.676894 
z
" style="fill:#1f77b4;"/>
   </g>
   <g id="patch_170">
    <path clip-path="url(#pfc63616388)" d="M 387.243474 137.71551 
L 388.481873 137.71551 
L 388.481873 108.127967 
L 387.243474 108.127967 
z
" style="fill:#1f77b4;"/>
   </g>
   <g id="patch_171">
    <path clip-path="url(#pfc63616388)" d="M 388.791473 137.71551 
L 390.029872 137.71551 
L 390.029872 103.379967 
L 388.791473 103.379967 
z
" style="fill:#1f77b4;"/>
   </g>
   <g id="patch_172">
    <path clip-path="url(#pfc63616388)" d="M 390.339472 137.71551 
L 391.577871 137.71551 
L 391.577871 106.678578 
L 390.339472 106.678578 
z
" style="fill:#1f77b4;"/>
   </g>
   <g id="patch_173">
    <path clip-path="url(#pfc63616388)" d="M 391.887471 137.71551 
L 393.12587 137.71551 
L 393.12587 23.813467 
L 391.887471 23.813467 
z
" style="fill:#1f77b4;"/>
   </g>
   <g id="patch_174">
    <path clip-path="url(#pfc63616388)" d="M 393.43547 137.71551 
L 394.673869 137.71551 
L 394.673869 89.535796 
L 393.43547 89.535796 
z
" style="fill:#1f77b4;"/>
   </g>
   <g id="patch_175">
    <path clip-path="url(#pfc63616388)" d="M 394.983469 137.71551 
L 396.221868 137.71551 
L 396.221868 105.62902 
L 394.983469 105.62902 
z
" style="fill:#1f77b4;"/>
   </g>
   <g id="patch_176">
    <path clip-path="url(#pfc63616388)" d="M 396.531468 137.71551 
L 397.769867 137.71551 
L 397.769867 80.339667 
L 396.531468 80.339667 
z
" style="fill:#1f77b4;"/>
   </g>
   <g id="patch_177">
    <path clip-path="url(#pfc63616388)" d="M 398.079467 137.71551 
L 399.317866 137.71551 
L 399.317866 71.843245 
L 398.079467 71.843245 
z
" style="fill:#1f77b4;"/>
   </g>
   <g id="patch_178">
    <path clip-path="url(#pfc63616388)" d="M 399.627466 137.71551 
L 400.865865 137.71551 
L 400.865865 70.193939 
L 399.627466 70.193939 
z
" style="fill:#1f77b4;"/>
   </g>
   <g id="patch_179">
    <path clip-path="url(#pfc63616388)" d="M 401.175465 137.71551 
L 402.413864 137.71551 
L 402.413864 45.304419 
L 401.175465 45.304419 
z
" style="fill:#1f77b4;"/>
   </g>
   <g id="patch_180">
    <path clip-path="url(#pfc63616388)" d="M 402.723464 137.71551 
L 403.961864 137.71551 
L 403.961864 86.4371 
L 402.723464 86.4371 
z
" style="fill:#1f77b4;"/>
   </g>
   <g id="patch_181">
    <path clip-path="url(#pfc63616388)" d="M 404.271463 137.71551 
L 405.509863 137.71551 
L 405.509863 89.085985 
L 404.271463 89.085985 
z
" style="fill:#1f77b4;"/>
   </g>
   <g id="patch_182">
    <path clip-path="url(#pfc63616388)" d="M 405.819462 137.71551 
L 407.057862 137.71551 
L 407.057862 107.378283 
L 405.819462 107.378283 
z
" style="fill:#1f77b4;"/>
   </g>
   <g id="patch_183">
    <path clip-path="url(#pfc63616388)" d="M 407.367461 137.71551 
L 408.605861 137.71551 
L 408.605861 113.325779 
L 407.367461 113.325779 
z
" style="fill:#1f77b4;"/>
   </g>
   <g id="patch_184">
    <path clip-path="url(#pfc63616388)" d="M 408.915461 137.71551 
L 410.15386 137.71551 
L 410.15386 84.487921 
L 408.915461 84.487921 
z
" style="fill:#1f77b4;"/>
   </g>
   <g id="patch_185">
    <path clip-path="url(#pfc63616388)" d="M 410.46346 137.71551 
L 411.701859 137.71551 
L 411.701859 98.032218 
L 410.46346 98.032218 
z
" style="fill:#1f77b4;"/>
   </g>
   <g id="patch_186">
    <path clip-path="url(#pfc63616388)" d="M 412.011459 137.71551 
L 413.249858 137.71551 
L 413.249858 60.647958 
L 412.011459 60.647958 
z
" style="fill:#1f77b4;"/>
   </g>
   <g id="patch_187">
    <path clip-path="url(#pfc63616388)" d="M 413.559458 137.71551 
L 414.797857 137.71551 
L 414.797857 79.140172 
L 413.559458 79.140172 
z
" style="fill:#1f77b4;"/>
   </g>
   <g id="patch_188">
    <path clip-path="url(#pfc63616388)" d="M 415.107457 137.71551 
L 416.345856 137.71551 
L 416.345856 86.587037 
L 415.107457 86.587037 
z
" style="fill:#1f77b4;"/>
   </g>
   <g id="patch_189">
    <path clip-path="url(#pfc63616388)" d="M 416.655456 137.71551 
L 417.893855 137.71551 
L 417.893855 115.224979 
L 416.655456 115.224979 
z
" style="fill:#1f77b4;"/>
   </g>
   <g id="patch_190">
    <path clip-path="url(#pfc63616388)" d="M 418.203455 137.71551 
L 419.441854 137.71551 
L 419.441854 107.328304 
L 418.203455 107.328304 
z
" style="fill:#1f77b4;"/>
   </g>
   <g id="patch_191">
    <path clip-path="url(#pfc63616388)" d="M 419.751454 137.71551 
L 420.989853 137.71551 
L 420.989853 89.985606 
L 419.751454 89.985606 
z
" style="fill:#1f77b4;"/>
   </g>
   <g id="patch_192">
    <path clip-path="url(#pfc63616388)" d="M 421.299453 137.71551 
L 422.537852 137.71551 
L 422.537852 85.537479 
L 421.299453 85.537479 
z
" style="fill:#1f77b4;"/>
   </g>
   <g id="patch_193">
    <path clip-path="url(#pfc63616388)" d="M 422.847452 137.71551 
L 424.085851 137.71551 
L 424.085851 87.536637 
L 422.847452 87.536637 
z
" style="fill:#1f77b4;"/>
   </g>
   <g id="patch_194">
    <path clip-path="url(#pfc63616388)" d="M 424.395451 137.71551 
L 425.633851 137.71551 
L 425.633851 95.233397 
L 424.395451 95.233397 
z
" style="fill:#1f77b4;"/>
   </g>
   <g id="patch_195">
    <path clip-path="url(#pfc63616388)" d="M 425.94345 137.71551 
L 427.18185 137.71551 
L 427.18185 93.684049 
L 425.94345 93.684049 
z
" style="fill:#1f77b4;"/>
   </g>
   <g id="patch_196">
    <path clip-path="url(#pfc63616388)" d="M 427.491449 137.71551 
L 428.729849 137.71551 
L 428.729849 114.575253 
L 427.491449 114.575253 
z
" style="fill:#1f77b4;"/>
   </g>
   <g id="patch_197">
    <path clip-path="url(#pfc63616388)" d="M 429.039448 137.71551 
L 430.277848 137.71551 
L 430.277848 122.471928 
L 429.039448 122.471928 
z
" style="fill:#1f77b4;"/>
   </g>
   <g id="patch_198">
    <path clip-path="url(#pfc63616388)" d="M 430.587448 137.71551 
L 431.825847 137.71551 
L 431.825847 91.484975 
L 430.587448 91.484975 
z
" style="fill:#1f77b4;"/>
   </g>
   <g id="patch_199">
    <path clip-path="url(#pfc63616388)" d="M 432.135447 137.71551 
L 433.373846 137.71551 
L 433.373846 84.787795 
L 432.135447 84.787795 
z
" style="fill:#1f77b4;"/>
   </g>
   <g id="patch_200">
    <path clip-path="url(#pfc63616388)" d="M 433.683446 137.71551 
L 434.921845 137.71551 
L 434.921845 93.833986 
L 433.683446 93.833986 
z
" style="fill:#1f77b4;"/>
   </g>
   <g id="patch_201">
    <path clip-path="url(#pfc63616388)" d="M 435.231445 137.71551 
L 436.469844 137.71551 
L 436.469844 97.782323 
L 435.231445 97.782323 
z
" style="fill:#1f77b4;"/>
   </g>
   <g id="patch_202">
    <path clip-path="url(#pfc63616388)" d="M 436.779444 137.71551 
L 438.017843 137.71551 
L 438.017843 108.227925 
L 436.779444 108.227925 
z
" style="fill:#1f77b4;"/>
   </g>
   <g id="patch_203">
    <path clip-path="url(#pfc63616388)" d="M 438.327443 137.71551 
L 439.565842 137.71551 
L 439.565842 125.420687 
L 438.327443 125.420687 
z
" style="fill:#1f77b4;"/>
   </g>
   <g id="patch_204">
    <path clip-path="url(#pfc63616388)" d="M 439.875442 137.71551 
L 441.113841 137.71551 
L 441.113841 91.73487 
L 439.875442 91.73487 
z
" style="fill:#1f77b4;"/>
   </g>
   <g id="patch_205">
    <path clip-path="url(#pfc63616388)" d="M 441.423441 137.71551 
L 442.66184 137.71551 
L 442.66184 86.786953 
L 441.423441 86.786953 
z
" style="fill:#1f77b4;"/>
   </g>
   <g id="patch_206">
    <path clip-path="url(#pfc63616388)" d="M 442.97144 137.71551 
L 444.209839 137.71551 
L 444.209839 78.740341 
L 442.97144 78.740341 
z
" style="fill:#1f77b4;"/>
   </g>
   <g id="patch_207">
    <path clip-path="url(#pfc63616388)" d="M 444.519439 137.71551 
L 445.757838 137.71551 
L 445.757838 83.038531 
L 444.519439 83.038531 
z
" style="fill:#1f77b4;"/>
   </g>
   <g id="patch_208">
    <path clip-path="url(#pfc63616388)" d="M 446.067438 137.71551 
L 447.305837 137.71551 
L 447.305837 67.844928 
L 446.067438 67.844928 
z
" style="fill:#1f77b4;"/>
   </g>
   <g id="patch_209">
    <path clip-path="url(#pfc63616388)" d="M 447.615437 137.71551 
L 448.853837 137.71551 
L 448.853837 87.986448 
L 447.615437 87.986448 
z
" style="fill:#1f77b4;"/>
   </g>
   <g id="matplotlib.axis_3">
    <g id="xtick_6">
     <g id="line2d_10">
      <g>
       <use style="stroke:#000000;stroke-width:0.8;" x="293.43473" xlink:href="#m209bf78da7" y="137.71551"/>
      </g>
     </g>
     <g id="text_12">
      <!-- 0 -->
      <g transform="translate(290.25348 152.313947)scale(0.1 -0.1)">
       <use xlink:href="#DejaVuSans-48"/>
      </g>
     </g>
    </g>
    <g id="xtick_7">
     <g id="line2d_11">
      <g>
       <use style="stroke:#000000;stroke-width:0.8;" x="332.134707" xlink:href="#m209bf78da7" y="137.71551"/>
      </g>
     </g>
     <g id="text_13">
      <!-- 25 -->
      <g transform="translate(325.772207 152.313947)scale(0.1 -0.1)">
       <use xlink:href="#DejaVuSans-50"/>
       <use x="63.623047" xlink:href="#DejaVuSans-53"/>
      </g>
     </g>
    </g>
    <g id="xtick_8">
     <g id="line2d_12">
      <g>
       <use style="stroke:#000000;stroke-width:0.8;" x="370.834683" xlink:href="#m209bf78da7" y="137.71551"/>
      </g>
     </g>
     <g id="text_14">
      <!-- 50 -->
      <g transform="translate(364.472183 152.313947)scale(0.1 -0.1)">
       <use xlink:href="#DejaVuSans-53"/>
       <use x="63.623047" xlink:href="#DejaVuSans-48"/>
      </g>
     </g>
    </g>
    <g id="xtick_9">
     <g id="line2d_13">
      <g>
       <use style="stroke:#000000;stroke-width:0.8;" x="409.53466" xlink:href="#m209bf78da7" y="137.71551"/>
      </g>
     </g>
     <g id="text_15">
      <!-- 75 -->
      <g transform="translate(403.17216 152.313947)scale(0.1 -0.1)">
       <use xlink:href="#DejaVuSans-55"/>
       <use x="63.623047" xlink:href="#DejaVuSans-53"/>
      </g>
     </g>
    </g>
    <g id="xtick_10">
     <g id="line2d_14">
      <g>
       <use style="stroke:#000000;stroke-width:0.8;" x="448.234637" xlink:href="#m209bf78da7" y="137.71551"/>
      </g>
     </g>
     <g id="text_16">
      <!-- 100 -->
      <g transform="translate(438.690887 152.313947)scale(0.1 -0.1)">
       <use xlink:href="#DejaVuSans-49"/>
       <use x="63.623047" xlink:href="#DejaVuSans-48"/>
       <use x="127.246094" xlink:href="#DejaVuSans-48"/>
      </g>
     </g>
    </g>
    <g id="text_17">
     <!-- Dias -->
     <g transform="translate(359.926871 165.992072)scale(0.1 -0.1)">
      <use xlink:href="#DejaVuSans-68"/>
      <use x="77.001953" xlink:href="#DejaVuSans-105"/>
      <use x="104.785156" xlink:href="#DejaVuSans-97"/>
      <use x="166.064453" xlink:href="#DejaVuSans-115"/>
     </g>
    </g>
   </g>
   <g id="matplotlib.axis_4">
    <g id="ytick_4">
     <g id="line2d_15">
      <g>
       <use style="stroke:#000000;stroke-width:0.8;" x="285.013615" xlink:href="#md2820de683" y="137.71551"/>
      </g>
     </g>
     <g id="text_18">
      <!-- 0 -->
      <g transform="translate(271.651115 141.514729)scale(0.1 -0.1)">
       <use xlink:href="#DejaVuSans-48"/>
      </g>
     </g>
    </g>
    <g id="ytick_5">
     <g id="line2d_16">
      <g>
       <use style="stroke:#000000;stroke-width:0.8;" x="285.013615" xlink:href="#md2820de683" y="112.726032"/>
      </g>
     </g>
     <g id="text_19">
      <!-- 500 -->
      <g transform="translate(258.926115 116.52525)scale(0.1 -0.1)">
       <use xlink:href="#DejaVuSans-53"/>
       <use x="63.623047" xlink:href="#DejaVuSans-48"/>
       <use x="127.246094" xlink:href="#DejaVuSans-48"/>
      </g>
     </g>
    </g>
    <g id="ytick_6">
     <g id="line2d_17">
      <g>
       <use style="stroke:#000000;stroke-width:0.8;" x="285.013615" xlink:href="#md2820de683" y="87.736553"/>
      </g>
     </g>
     <g id="text_20">
      <!-- 1000 -->
      <g transform="translate(252.563615 91.535772)scale(0.1 -0.1)">
       <use xlink:href="#DejaVuSans-49"/>
       <use x="63.623047" xlink:href="#DejaVuSans-48"/>
       <use x="127.246094" xlink:href="#DejaVuSans-48"/>
       <use x="190.869141" xlink:href="#DejaVuSans-48"/>
      </g>
     </g>
    </g>
    <g id="ytick_7">
     <g id="line2d_18">
      <g>
       <use style="stroke:#000000;stroke-width:0.8;" x="285.013615" xlink:href="#md2820de683" y="62.747075"/>
      </g>
     </g>
     <g id="text_21">
      <!-- 1500 -->
      <g transform="translate(252.563615 66.546293)scale(0.1 -0.1)">
       <use xlink:href="#DejaVuSans-49"/>
       <use x="63.623047" xlink:href="#DejaVuSans-53"/>
       <use x="127.246094" xlink:href="#DejaVuSans-48"/>
       <use x="190.869141" xlink:href="#DejaVuSans-48"/>
      </g>
     </g>
    </g>
    <g id="ytick_8">
     <g id="line2d_19">
      <g>
       <use style="stroke:#000000;stroke-width:0.8;" x="285.013615" xlink:href="#md2820de683" y="37.757596"/>
      </g>
     </g>
     <g id="text_22">
      <!-- 2000 -->
      <g transform="translate(252.563615 41.556815)scale(0.1 -0.1)">
       <use xlink:href="#DejaVuSans-50"/>
       <use x="63.623047" xlink:href="#DejaVuSans-48"/>
       <use x="127.246094" xlink:href="#DejaVuSans-48"/>
       <use x="190.869141" xlink:href="#DejaVuSans-48"/>
      </g>
     </g>
    </g>
    <g id="text_23">
     <!-- Novos casos -->
     <defs>
      <path d="M 9.8125 72.90625 
L 23.09375 72.90625 
L 55.421875 11.921875 
L 55.421875 72.90625 
L 64.984375 72.90625 
L 64.984375 0 
L 51.703125 0 
L 19.390625 60.984375 
L 19.390625 0 
L 9.8125 0 
z
" id="DejaVuSans-78"/>
      <path d="M 2.984375 54.6875 
L 12.5 54.6875 
L 29.59375 8.796875 
L 46.6875 54.6875 
L 56.203125 54.6875 
L 35.6875 0 
L 23.484375 0 
z
" id="DejaVuSans-118"/>
     </defs>
     <g transform="translate(246.483928 109.011469)rotate(-90)scale(0.1 -0.1)">
      <use xlink:href="#DejaVuSans-78"/>
      <use x="74.804688" xlink:href="#DejaVuSans-111"/>
      <use x="135.986328" xlink:href="#DejaVuSans-118"/>
      <use x="195.166016" xlink:href="#DejaVuSans-111"/>
      <use x="256.347656" xlink:href="#DejaVuSans-115"/>
      <use x="308.447266" xlink:href="#DejaVuSans-32"/>
      <use x="340.234375" xlink:href="#DejaVuSans-99"/>
      <use x="395.214844" xlink:href="#DejaVuSans-97"/>
      <use x="456.494141" xlink:href="#DejaVuSans-115"/>
      <use x="508.59375" xlink:href="#DejaVuSans-111"/>
      <use x="569.775391" xlink:href="#DejaVuSans-115"/>
     </g>
    </g>
   </g>
   <g id="line2d_20">
    <path clip-path="url(#pfc63616388)" d="M 293.43473 137.647317 
L 294.982729 137.623025 
L 296.530728 137.596339 
L 298.078727 137.574004 
L 299.626726 137.553458 
L 301.174725 137.536368 
L 302.722724 137.522755 
L 304.270723 137.512055 
L 305.818723 137.502688 
L 307.366722 137.492863 
L 308.914721 137.480957 
L 310.46272 137.464408 
L 312.010719 137.439991 
L 313.558718 137.403709 
L 315.106717 137.350711 
L 316.654716 137.274567 
L 318.202715 137.167823 
L 319.750714 137.022112 
L 321.298713 136.828108 
L 322.846712 136.574071 
L 324.394711 136.25488 
L 325.94271 135.864665 
L 327.490709 135.404779 
L 329.038709 134.877471 
L 330.586708 134.28809 
L 332.134707 133.645587 
L 333.682706 132.967821 
L 335.230705 132.263578 
L 336.778704 131.544639 
L 338.326703 130.816395 
L 339.874702 130.08736 
L 341.422701 129.357638 
L 342.9707 128.625335 
L 344.518699 127.875713 
L 346.066698 127.098885 
L 347.614697 126.286586 
L 349.162696 125.422498 
L 350.710696 124.490508 
L 352.258695 123.486724 
L 353.806694 122.40769 
L 355.354693 121.270518 
L 356.902692 120.094087 
L 358.450691 118.891761 
L 359.99869 117.699822 
L 361.546689 116.541064 
L 363.094688 115.436802 
L 364.642687 114.403376 
L 366.190686 113.422927 
L 367.738685 112.474534 
L 369.286684 111.540858 
L 370.834683 110.597856 
L 372.382683 109.648131 
L 373.930682 108.657482 
L 375.478681 107.60349 
L 377.02668 106.497438 
L 378.574679 105.339991 
L 380.122678 104.115246 
L 381.670677 102.77079 
L 383.218676 101.200272 
L 384.766675 99.412416 
L 386.314674 97.408741 
L 387.862673 95.178755 
L 389.410672 92.760677 
L 390.958671 90.24287 
L 392.50667 87.788176 
L 394.054669 85.657732 
L 395.602669 83.945709 
L 397.150668 82.742259 
L 398.698667 82.134996 
L 400.246666 82.131562 
L 401.794665 82.681497 
L 403.342664 83.647562 
L 404.890663 84.804905 
L 406.438662 86.051798 
L 407.986661 87.295339 
L 409.53466 88.43784 
L 411.082659 89.449264 
L 412.630658 90.324239 
L 414.178657 91.1213 
L 415.726656 91.912741 
L 417.274656 92.71661 
L 418.822655 93.545207 
L 420.370654 94.42524 
L 421.918653 95.330461 
L 423.466652 96.232393 
L 425.014651 97.073771 
L 426.56265 97.812173 
L 428.110649 98.41267 
L 429.658648 98.823638 
L 431.206647 98.958172 
L 432.754646 98.779238 
L 434.302645 98.25576 
L 435.850644 97.377933 
L 437.398643 96.136161 
L 438.946643 94.555236 
L 440.494642 92.811592 
L 442.042641 90.998258 
L 443.59064 89.196413 
L 445.138639 88.028496 
L 446.686638 86.944363 
L 448.234637 86.004317 
" style="fill:none;stroke:#ff0000;stroke-linecap:square;stroke-width:1.5;"/>
   </g>
   <g id="patch_210">
    <path d="M 285.013615 137.71551 
L 285.013615 18.118365 
" style="fill:none;stroke:#000000;stroke-linecap:square;stroke-linejoin:miter;stroke-width:0.8;"/>
   </g>
   <g id="patch_211">
    <path d="M 456.655752 137.71551 
L 456.655752 18.118365 
" style="fill:none;stroke:#000000;stroke-linecap:square;stroke-linejoin:miter;stroke-width:0.8;"/>
   </g>
   <g id="patch_212">
    <path d="M 285.013615 137.71551 
L 456.655752 137.71551 
" style="fill:none;stroke:#000000;stroke-linecap:square;stroke-linejoin:miter;stroke-width:0.8;"/>
   </g>
   <g id="patch_213">
    <path d="M 285.013615 18.118365 
L 456.655752 18.118365 
" style="fill:none;stroke:#000000;stroke-linecap:square;stroke-linejoin:miter;stroke-width:0.8;"/>
   </g>
   <g id="text_24">
    <!-- Casos novos - PE -->
    <defs>
     <path d="M 54.890625 33.015625 
L 54.890625 0 
L 45.90625 0 
L 45.90625 32.71875 
Q 45.90625 40.484375 42.875 44.328125 
Q 39.84375 48.1875 33.796875 48.1875 
Q 26.515625 48.1875 22.3125 43.546875 
Q 18.109375 38.921875 18.109375 30.90625 
L 18.109375 0 
L 9.078125 0 
L 9.078125 54.6875 
L 18.109375 54.6875 
L 18.109375 46.1875 
Q 21.34375 51.125 25.703125 53.5625 
Q 30.078125 56 35.796875 56 
Q 45.21875 56 50.046875 50.171875 
Q 54.890625 44.34375 54.890625 33.015625 
z
" id="DejaVuSans-110"/>
    </defs>
    <g transform="translate(319.929371 12.118365)scale(0.12 -0.12)">
     <use xlink:href="#DejaVuSans-67"/>
     <use x="69.824219" xlink:href="#DejaVuSans-97"/>
     <use x="131.103516" xlink:href="#DejaVuSans-115"/>
     <use x="183.203125" xlink:href="#DejaVuSans-111"/>
     <use x="244.384766" xlink:href="#DejaVuSans-115"/>
     <use x="296.484375" xlink:href="#DejaVuSans-32"/>
     <use x="328.271484" xlink:href="#DejaVuSans-110"/>
     <use x="391.650391" xlink:href="#DejaVuSans-111"/>
     <use x="452.832031" xlink:href="#DejaVuSans-118"/>
     <use x="512.011719" xlink:href="#DejaVuSans-111"/>
     <use x="573.193359" xlink:href="#DejaVuSans-115"/>
     <use x="625.292969" xlink:href="#DejaVuSans-32"/>
     <use x="657.080078" xlink:href="#DejaVuSans-45"/>
     <use x="693.164062" xlink:href="#DejaVuSans-32"/>
     <use x="724.951172" xlink:href="#DejaVuSans-80"/>
     <use x="785.253906" xlink:href="#DejaVuSans-69"/>
    </g>
   </g>
  </g>
  <g id="axes_3">
   <g id="patch_214">
    <path d="M 55.490865 312.24351 
L 456.655752 312.24351 
L 456.655752 192.646365 
L 55.490865 192.646365 
z
" style="fill:#ffffff;"/>
   </g>
   <g id="matplotlib.axis_5">
    <g id="xtick_11">
     <g id="line2d_21">
      <g>
       <use style="stroke:#000000;stroke-width:0.8;" x="73.725633" xlink:href="#m209bf78da7" y="312.24351"/>
      </g>
     </g>
     <g id="text_25">
      <!-- 0 -->
      <g transform="translate(70.544383 326.841947)scale(0.1 -0.1)">
       <use xlink:href="#DejaVuSans-48"/>
      </g>
     </g>
    </g>
    <g id="xtick_12">
     <g id="line2d_22">
      <g>
       <use style="stroke:#000000;stroke-width:0.8;" x="146.664703" xlink:href="#m209bf78da7" y="312.24351"/>
      </g>
     </g>
     <g id="text_26">
      <!-- 20 -->
      <g transform="translate(140.302203 326.841947)scale(0.1 -0.1)">
       <use xlink:href="#DejaVuSans-50"/>
       <use x="63.623047" xlink:href="#DejaVuSans-48"/>
      </g>
     </g>
    </g>
    <g id="xtick_13">
     <g id="line2d_23">
      <g>
       <use style="stroke:#000000;stroke-width:0.8;" x="219.603773" xlink:href="#m209bf78da7" y="312.24351"/>
      </g>
     </g>
     <g id="text_27">
      <!-- 40 -->
      <g transform="translate(213.241273 326.841947)scale(0.1 -0.1)">
       <use xlink:href="#DejaVuSans-52"/>
       <use x="63.623047" xlink:href="#DejaVuSans-48"/>
      </g>
     </g>
    </g>
    <g id="xtick_14">
     <g id="line2d_24">
      <g>
       <use style="stroke:#000000;stroke-width:0.8;" x="292.542844" xlink:href="#m209bf78da7" y="312.24351"/>
      </g>
     </g>
     <g id="text_28">
      <!-- 60 -->
      <defs>
       <path d="M 33.015625 40.375 
Q 26.375 40.375 22.484375 35.828125 
Q 18.609375 31.296875 18.609375 23.390625 
Q 18.609375 15.53125 22.484375 10.953125 
Q 26.375 6.390625 33.015625 6.390625 
Q 39.65625 6.390625 43.53125 10.953125 
Q 47.40625 15.53125 47.40625 23.390625 
Q 47.40625 31.296875 43.53125 35.828125 
Q 39.65625 40.375 33.015625 40.375 
z
M 52.59375 71.296875 
L 52.59375 62.3125 
Q 48.875 64.0625 45.09375 64.984375 
Q 41.3125 65.921875 37.59375 65.921875 
Q 27.828125 65.921875 22.671875 59.328125 
Q 17.53125 52.734375 16.796875 39.40625 
Q 19.671875 43.65625 24.015625 45.921875 
Q 28.375 48.1875 33.59375 48.1875 
Q 44.578125 48.1875 50.953125 41.515625 
Q 57.328125 34.859375 57.328125 23.390625 
Q 57.328125 12.15625 50.6875 5.359375 
Q 44.046875 -1.421875 33.015625 -1.421875 
Q 20.359375 -1.421875 13.671875 8.265625 
Q 6.984375 17.96875 6.984375 36.375 
Q 6.984375 53.65625 15.1875 63.9375 
Q 23.390625 74.21875 37.203125 74.21875 
Q 40.921875 74.21875 44.703125 73.484375 
Q 48.484375 72.75 52.59375 71.296875 
z
" id="DejaVuSans-54"/>
      </defs>
      <g transform="translate(286.180344 326.841947)scale(0.1 -0.1)">
       <use xlink:href="#DejaVuSans-54"/>
       <use x="63.623047" xlink:href="#DejaVuSans-48"/>
      </g>
     </g>
    </g>
    <g id="xtick_15">
     <g id="line2d_25">
      <g>
       <use style="stroke:#000000;stroke-width:0.8;" x="365.481914" xlink:href="#m209bf78da7" y="312.24351"/>
      </g>
     </g>
     <g id="text_29">
      <!-- 80 -->
      <defs>
       <path d="M 31.78125 34.625 
Q 24.75 34.625 20.71875 30.859375 
Q 16.703125 27.09375 16.703125 20.515625 
Q 16.703125 13.921875 20.71875 10.15625 
Q 24.75 6.390625 31.78125 6.390625 
Q 38.8125 6.390625 42.859375 10.171875 
Q 46.921875 13.96875 46.921875 20.515625 
Q 46.921875 27.09375 42.890625 30.859375 
Q 38.875 34.625 31.78125 34.625 
z
M 21.921875 38.8125 
Q 15.578125 40.375 12.03125 44.71875 
Q 8.5 49.078125 8.5 55.328125 
Q 8.5 64.0625 14.71875 69.140625 
Q 20.953125 74.21875 31.78125 74.21875 
Q 42.671875 74.21875 48.875 69.140625 
Q 55.078125 64.0625 55.078125 55.328125 
Q 55.078125 49.078125 51.53125 44.71875 
Q 48 40.375 41.703125 38.8125 
Q 48.828125 37.15625 52.796875 32.3125 
Q 56.78125 27.484375 56.78125 20.515625 
Q 56.78125 9.90625 50.3125 4.234375 
Q 43.84375 -1.421875 31.78125 -1.421875 
Q 19.734375 -1.421875 13.25 4.234375 
Q 6.78125 9.90625 6.78125 20.515625 
Q 6.78125 27.484375 10.78125 32.3125 
Q 14.796875 37.15625 21.921875 38.8125 
z
M 18.3125 54.390625 
Q 18.3125 48.734375 21.84375 45.5625 
Q 25.390625 42.390625 31.78125 42.390625 
Q 38.140625 42.390625 41.71875 45.5625 
Q 45.3125 48.734375 45.3125 54.390625 
Q 45.3125 60.0625 41.71875 63.234375 
Q 38.140625 66.40625 31.78125 66.40625 
Q 25.390625 66.40625 21.84375 63.234375 
Q 18.3125 60.0625 18.3125 54.390625 
z
" id="DejaVuSans-56"/>
      </defs>
      <g transform="translate(359.119414 326.841947)scale(0.1 -0.1)">
       <use xlink:href="#DejaVuSans-56"/>
       <use x="63.623047" xlink:href="#DejaVuSans-48"/>
      </g>
     </g>
    </g>
    <g id="xtick_16">
     <g id="line2d_26">
      <g>
       <use style="stroke:#000000;stroke-width:0.8;" x="438.420984" xlink:href="#m209bf78da7" y="312.24351"/>
      </g>
     </g>
     <g id="text_30">
      <!-- 100 -->
      <g transform="translate(428.877234 326.841947)scale(0.1 -0.1)">
       <use xlink:href="#DejaVuSans-49"/>
       <use x="63.623047" xlink:href="#DejaVuSans-48"/>
       <use x="127.246094" xlink:href="#DejaVuSans-48"/>
      </g>
     </g>
    </g>
    <g id="text_31">
     <!-- Dias -->
     <g transform="translate(245.165496 340.520072)scale(0.1 -0.1)">
      <use xlink:href="#DejaVuSans-68"/>
      <use x="77.001953" xlink:href="#DejaVuSans-105"/>
      <use x="104.785156" xlink:href="#DejaVuSans-97"/>
      <use x="166.064453" xlink:href="#DejaVuSans-115"/>
     </g>
    </g>
   </g>
   <g id="matplotlib.axis_6">
    <g id="ytick_9">
     <g id="line2d_27">
      <g>
       <use style="stroke:#000000;stroke-width:0.8;" x="55.490865" xlink:href="#md2820de683" y="300.98953"/>
      </g>
     </g>
     <g id="text_32">
      <!-- 1 -->
      <g transform="translate(42.128365 304.788748)scale(0.1 -0.1)">
       <use xlink:href="#DejaVuSans-49"/>
      </g>
     </g>
    </g>
    <g id="ytick_10">
     <g id="line2d_28">
      <g>
       <use style="stroke:#000000;stroke-width:0.8;" x="55.490865" xlink:href="#md2820de683" y="254.8099"/>
      </g>
     </g>
     <g id="text_33">
      <!-- 2 -->
      <g transform="translate(42.128365 258.609119)scale(0.1 -0.1)">
       <use xlink:href="#DejaVuSans-50"/>
      </g>
     </g>
    </g>
    <g id="ytick_11">
     <g id="line2d_29">
      <g>
       <use style="stroke:#000000;stroke-width:0.8;" x="55.490865" xlink:href="#md2820de683" y="208.630271"/>
      </g>
     </g>
     <g id="text_34">
      <!-- 3 -->
      <defs>
       <path d="M 40.578125 39.3125 
Q 47.65625 37.796875 51.625 33 
Q 55.609375 28.21875 55.609375 21.1875 
Q 55.609375 10.40625 48.1875 4.484375 
Q 40.765625 -1.421875 27.09375 -1.421875 
Q 22.515625 -1.421875 17.65625 -0.515625 
Q 12.796875 0.390625 7.625 2.203125 
L 7.625 11.71875 
Q 11.71875 9.328125 16.59375 8.109375 
Q 21.484375 6.890625 26.8125 6.890625 
Q 36.078125 6.890625 40.9375 10.546875 
Q 45.796875 14.203125 45.796875 21.1875 
Q 45.796875 27.640625 41.28125 31.265625 
Q 36.765625 34.90625 28.71875 34.90625 
L 20.21875 34.90625 
L 20.21875 43.015625 
L 29.109375 43.015625 
Q 36.375 43.015625 40.234375 45.921875 
Q 44.09375 48.828125 44.09375 54.296875 
Q 44.09375 59.90625 40.109375 62.90625 
Q 36.140625 65.921875 28.71875 65.921875 
Q 24.65625 65.921875 20.015625 65.03125 
Q 15.375 64.15625 9.8125 62.3125 
L 9.8125 71.09375 
Q 15.4375 72.65625 20.34375 73.4375 
Q 25.25 74.21875 29.59375 74.21875 
Q 40.828125 74.21875 47.359375 69.109375 
Q 53.90625 64.015625 53.90625 55.328125 
Q 53.90625 49.265625 50.4375 45.09375 
Q 46.96875 40.921875 40.578125 39.3125 
z
" id="DejaVuSans-51"/>
      </defs>
      <g transform="translate(42.128365 212.42949)scale(0.1 -0.1)">
       <use xlink:href="#DejaVuSans-51"/>
      </g>
     </g>
    </g>
    <g id="text_35">
     <!-- r0 -->
     <defs>
      <path d="M 41.109375 46.296875 
Q 39.59375 47.171875 37.8125 47.578125 
Q 36.03125 48 33.890625 48 
Q 26.265625 48 22.1875 43.046875 
Q 18.109375 38.09375 18.109375 28.8125 
L 18.109375 0 
L 9.078125 0 
L 9.078125 54.6875 
L 18.109375 54.6875 
L 18.109375 46.1875 
Q 20.953125 51.171875 25.484375 53.578125 
Q 30.03125 56 36.53125 56 
Q 37.453125 56 38.578125 55.875 
Q 39.703125 55.765625 41.0625 55.515625 
z
" id="DejaVuSans-114"/>
     </defs>
     <g transform="translate(36.048678 257.681656)rotate(-90)scale(0.1 -0.1)">
      <use xlink:href="#DejaVuSans-114"/>
      <use x="41.113281" xlink:href="#DejaVuSans-48"/>
     </g>
    </g>
   </g>
   <g id="line2d_30">
    <path clip-path="url(#pa59aa4e6a5)" d="M 73.725633 198.082599 
L 77.372586 214.345506 
L 81.01954 227.120095 
L 84.666493 248.920036 
L 88.313447 259.164422 
L 91.9604 269.516382 
L 95.607354 277.687553 
L 99.254307 283.637337 
L 102.901261 286.465364 
L 106.548214 286.427013 
L 110.195168 284.237703 
L 113.842121 279.242077 
L 117.489075 271.746435 
L 121.136028 262.593131 
L 124.782982 253.051573 
L 128.429935 244.006242 
L 132.076889 236.67279 
L 135.723842 231.637791 
L 139.370796 228.831485 
L 143.017749 227.5208 
L 146.664703 228.836518 
L 150.311656 231.360685 
L 153.95861 235.239085 
L 157.605563 239.5819 
L 161.252517 244.127332 
L 164.899471 248.755959 
L 168.546424 253.719776 
L 172.193378 258.179762 
L 175.840331 262.337582 
L 179.487285 265.927725 
L 183.134238 269.199512 
L 186.781192 271.901905 
L 190.428145 274.103863 
L 194.075099 275.519531 
L 197.722052 276.481617 
L 201.369006 277.138838 
L 205.015959 277.357817 
L 208.662913 277.2538 
L 212.309866 277.181716 
L 215.95682 277.149561 
L 219.603773 277.540691 
L 223.250727 278.278956 
L 226.89768 279.182139 
L 230.544634 280.563142 
L 234.191587 282.112867 
L 237.838541 283.775304 
L 241.485494 285.465769 
L 245.132448 286.734196 
L 248.779401 287.606836 
L 252.426355 288.182885 
L 256.073308 288.420084 
L 259.720262 288.669559 
L 263.367215 288.515606 
L 267.014169 288.137304 
L 270.661123 287.918272 
L 274.308076 287.731816 
L 277.95503 287.413208 
L 281.601983 286.64051 
L 285.248937 285.005679 
L 288.89589 283.654601 
L 292.542844 282.50705 
L 296.189797 281.456267 
L 299.836751 280.855153 
L 303.483704 280.970104 
L 307.130658 282.153324 
L 310.777611 284.847115 
L 314.424565 287.846763 
L 318.071518 291.162837 
L 321.718472 294.852023 
L 325.365425 298.527626 
L 329.012379 301.942039 
L 332.659332 304.614281 
L 336.306286 305.94824 
L 339.953239 306.67903 
L 343.600193 306.807276 
L 347.247146 306.232976 
L 350.8941 305.393522 
L 354.541053 304.45935 
L 358.188007 303.922642 
L 361.83496 303.924415 
L 365.481914 304.072853 
L 369.128867 304.332722 
L 372.775821 304.833699 
L 376.422775 305.145827 
L 380.069728 305.23182 
L 383.716682 304.812691 
L 387.363635 303.98101 
L 391.010589 302.780697 
L 394.657542 301.046555 
L 398.304496 298.454399 
L 401.951449 295.504211 
L 405.598403 292.324007 
L 409.245356 289.189944 
L 412.89231 286.178503 
L 416.539263 283.629139 
L 420.186217 282.707931 
L 423.83317 282.578376 
L 427.480124 283.046229 
L 431.127077 287.859417 
L 434.774031 288.518811 
L 438.420984 289.553473 
" style="fill:none;stroke:#ff0000;stroke-linecap:square;stroke-width:1.5;"/>
   </g>
   <g id="patch_215">
    <path d="M 55.490865 312.24351 
L 55.490865 192.646365 
" style="fill:none;stroke:#000000;stroke-linecap:square;stroke-linejoin:miter;stroke-width:0.8;"/>
   </g>
   <g id="patch_216">
    <path d="M 456.655752 312.24351 
L 456.655752 192.646365 
" style="fill:none;stroke:#000000;stroke-linecap:square;stroke-linejoin:miter;stroke-width:0.8;"/>
   </g>
   <g id="patch_217">
    <path d="M 55.490865 312.24351 
L 456.655752 312.24351 
" style="fill:none;stroke:#000000;stroke-linecap:square;stroke-linejoin:miter;stroke-width:0.8;"/>
   </g>
   <g id="patch_218">
    <path d="M 55.490865 192.646365 
L 456.655752 192.646365 
" style="fill:none;stroke:#000000;stroke-linecap:square;stroke-linejoin:miter;stroke-width:0.8;"/>
   </g>
   <g id="text_36">
    <!-- r0 aproximado - PE -->
    <defs>
     <path d="M 18.109375 8.203125 
L 18.109375 -20.796875 
L 9.078125 -20.796875 
L 9.078125 54.6875 
L 18.109375 54.6875 
L 18.109375 46.390625 
Q 20.953125 51.265625 25.265625 53.625 
Q 29.59375 56 35.59375 56 
Q 45.5625 56 51.78125 48.09375 
Q 58.015625 40.1875 58.015625 27.296875 
Q 58.015625 14.40625 51.78125 6.484375 
Q 45.5625 -1.421875 35.59375 -1.421875 
Q 29.59375 -1.421875 25.265625 0.953125 
Q 20.953125 3.328125 18.109375 8.203125 
z
M 48.6875 27.296875 
Q 48.6875 37.203125 44.609375 42.84375 
Q 40.53125 48.484375 33.40625 48.484375 
Q 26.265625 48.484375 22.1875 42.84375 
Q 18.109375 37.203125 18.109375 27.296875 
Q 18.109375 17.390625 22.1875 11.75 
Q 26.265625 6.109375 33.40625 6.109375 
Q 40.53125 6.109375 44.609375 11.75 
Q 48.6875 17.390625 48.6875 27.296875 
z
" id="DejaVuSans-112"/>
     <path d="M 54.890625 54.6875 
L 35.109375 28.078125 
L 55.90625 0 
L 45.3125 0 
L 29.390625 21.484375 
L 13.484375 0 
L 2.875 0 
L 24.125 28.609375 
L 4.6875 54.6875 
L 15.28125 54.6875 
L 29.78125 35.203125 
L 44.28125 54.6875 
z
" id="DejaVuSans-120"/>
    </defs>
    <g transform="translate(198.973933 186.646365)scale(0.12 -0.12)">
     <use xlink:href="#DejaVuSans-114"/>
     <use x="41.113281" xlink:href="#DejaVuSans-48"/>
     <use x="104.736328" xlink:href="#DejaVuSans-32"/>
     <use x="136.523438" xlink:href="#DejaVuSans-97"/>
     <use x="197.802734" xlink:href="#DejaVuSans-112"/>
     <use x="261.279297" xlink:href="#DejaVuSans-114"/>
     <use x="300.142578" xlink:href="#DejaVuSans-111"/>
     <use x="358.199219" xlink:href="#DejaVuSans-120"/>
     <use x="417.378906" xlink:href="#DejaVuSans-105"/>
     <use x="445.162109" xlink:href="#DejaVuSans-109"/>
     <use x="542.574219" xlink:href="#DejaVuSans-97"/>
     <use x="603.853516" xlink:href="#DejaVuSans-100"/>
     <use x="667.330078" xlink:href="#DejaVuSans-111"/>
     <use x="728.511719" xlink:href="#DejaVuSans-32"/>
     <use x="760.298828" xlink:href="#DejaVuSans-45"/>
     <use x="796.382812" xlink:href="#DejaVuSans-32"/>
     <use x="828.169922" xlink:href="#DejaVuSans-80"/>
     <use x="888.472656" xlink:href="#DejaVuSans-69"/>
    </g>
   </g>
  </g>
 </g>
 <defs>
  <clipPath id="pf95885b9c3">
   <rect height="119.597145" width="171.642137" x="55.490865" y="18.118365"/>
  </clipPath>
  <clipPath id="pfc63616388">
   <rect height="119.597145" width="171.642137" x="285.013615" y="18.118365"/>
  </clipPath>
  <clipPath id="pa59aa4e6a5">
   <rect height="119.597145" width="401.164887" x="55.490865" y="192.646365"/>
  </clipPath>
 </defs>
</svg>
