<?xml version="1.0" encoding="utf-8" standalone="no"?>
<!DOCTYPE svg PUBLIC "-//W3C//DTD SVG 1.1//EN"
  "http://www.w3.org/Graphics/SVG/1.1/DTD/svg11.dtd">
<!-- Created with matplotlib (https://matplotlib.org/) -->
<svg height="345.6pt" version="1.1" viewBox="0 0 460.8 345.6" width="460.8pt" xmlns="http://www.w3.org/2000/svg" xmlns:xlink="http://www.w3.org/1999/xlink">
 <defs>
  <style type="text/css">
*{stroke-linecap:butt;stroke-linejoin:round;}
  </style>
 </defs>
 <g id="figure_1">
  <g id="patch_1">
   <path d="M 0 345.6 
L 460.8 345.6 
L 460.8 0 
L 0 0 
z
" style="fill:#ffffff;"/>
  </g>
  <g id="axes_1">
   <g id="patch_2">
    <path d="M 48.578156 325.921635 
L 134.16426 325.921635 
L 134.16426 18.118365 
L 48.578156 18.118365 
z
" style="fill:#ffffff;"/>
   </g>
   <g id="patch_3">
    <path clip-path="url(#p5bb6af6ebc)" d="M 52.468434 325.921635 
L 53.139171 325.921635 
L 53.139171 325.839429 
L 52.468434 325.839429 
z
" style="fill:#1f77b4;"/>
   </g>
   <g id="patch_4">
    <path clip-path="url(#p5bb6af6ebc)" d="M 53.306856 325.921635 
L 53.977593 325.921635 
L 53.977593 325.839429 
L 53.306856 325.839429 
z
" style="fill:#1f77b4;"/>
   </g>
   <g id="patch_5">
    <path clip-path="url(#p5bb6af6ebc)" d="M 54.145278 325.921635 
L 54.816015 325.921635 
L 54.816015 325.798326 
L 54.145278 325.798326 
z
" style="fill:#1f77b4;"/>
   </g>
   <g id="patch_6">
    <path clip-path="url(#p5bb6af6ebc)" d="M 54.983699 325.921635 
L 55.654437 325.921635 
L 55.654437 325.798326 
L 54.983699 325.798326 
z
" style="fill:#1f77b4;"/>
   </g>
   <g id="patch_7">
    <path clip-path="url(#p5bb6af6ebc)" d="M 55.822121 325.921635 
L 56.492859 325.921635 
L 56.492859 325.757223 
L 55.822121 325.757223 
z
" style="fill:#1f77b4;"/>
   </g>
   <g id="patch_8">
    <path clip-path="url(#p5bb6af6ebc)" d="M 56.660543 325.921635 
L 57.331281 325.921635 
L 57.331281 325.736672 
L 56.660543 325.736672 
z
" style="fill:#1f77b4;"/>
   </g>
   <g id="patch_9">
    <path clip-path="url(#p5bb6af6ebc)" d="M 57.498965 325.921635 
L 58.169703 325.921635 
L 58.169703 325.736672 
L 57.498965 325.736672 
z
" style="fill:#1f77b4;"/>
   </g>
   <g id="patch_10">
    <path clip-path="url(#p5bb6af6ebc)" d="M 58.337387 325.921635 
L 59.008124 325.921635 
L 59.008124 325.695569 
L 58.337387 325.695569 
z
" style="fill:#1f77b4;"/>
   </g>
   <g id="patch_11">
    <path clip-path="url(#p5bb6af6ebc)" d="M 59.175809 325.921635 
L 59.846546 325.921635 
L 59.846546 325.633915 
L 59.175809 325.633915 
z
" style="fill:#1f77b4;"/>
   </g>
   <g id="patch_12">
    <path clip-path="url(#p5bb6af6ebc)" d="M 60.014231 325.921635 
L 60.684968 325.921635 
L 60.684968 325.592812 
L 60.014231 325.592812 
z
" style="fill:#1f77b4;"/>
   </g>
   <g id="patch_13">
    <path clip-path="url(#p5bb6af6ebc)" d="M 60.852653 325.921635 
L 61.52339 325.921635 
L 61.52339 325.551709 
L 60.852653 325.551709 
z
" style="fill:#1f77b4;"/>
   </g>
   <g id="patch_14">
    <path clip-path="url(#p5bb6af6ebc)" d="M 61.691074 325.921635 
L 62.361812 325.921635 
L 62.361812 325.551709 
L 61.691074 325.551709 
z
" style="fill:#1f77b4;"/>
   </g>
   <g id="patch_15">
    <path clip-path="url(#p5bb6af6ebc)" d="M 62.529496 325.921635 
L 63.200234 325.921635 
L 63.200234 325.531157 
L 62.529496 325.531157 
z
" style="fill:#1f77b4;"/>
   </g>
   <g id="patch_16">
    <path clip-path="url(#p5bb6af6ebc)" d="M 63.367918 325.921635 
L 64.038656 325.921635 
L 64.038656 325.490054 
L 63.367918 325.490054 
z
" style="fill:#1f77b4;"/>
   </g>
   <g id="patch_17">
    <path clip-path="url(#p5bb6af6ebc)" d="M 64.20634 325.921635 
L 64.877077 325.921635 
L 64.877077 325.469503 
L 64.20634 325.469503 
z
" style="fill:#1f77b4;"/>
   </g>
   <g id="patch_18">
    <path clip-path="url(#p5bb6af6ebc)" d="M 65.044762 325.921635 
L 65.715499 325.921635 
L 65.715499 325.448952 
L 65.044762 325.448952 
z
" style="fill:#1f77b4;"/>
   </g>
   <g id="patch_19">
    <path clip-path="url(#p5bb6af6ebc)" d="M 65.883184 325.921635 
L 66.553921 325.921635 
L 66.553921 325.448952 
L 65.883184 325.448952 
z
" style="fill:#1f77b4;"/>
   </g>
   <g id="patch_20">
    <path clip-path="url(#p5bb6af6ebc)" d="M 66.721606 325.921635 
L 67.392343 325.921635 
L 67.392343 325.346194 
L 66.721606 325.346194 
z
" style="fill:#1f77b4;"/>
   </g>
   <g id="patch_21">
    <path clip-path="url(#p5bb6af6ebc)" d="M 67.560027 325.921635 
L 68.230765 325.921635 
L 68.230765 325.28454 
L 67.560027 325.28454 
z
" style="fill:#1f77b4;"/>
   </g>
   <g id="patch_22">
    <path clip-path="url(#p5bb6af6ebc)" d="M 68.398449 325.921635 
L 69.069187 325.921635 
L 69.069187 325.14068 
L 68.398449 325.14068 
z
" style="fill:#1f77b4;"/>
   </g>
   <g id="patch_23">
    <path clip-path="url(#p5bb6af6ebc)" d="M 69.236871 325.921635 
L 69.907609 325.921635 
L 69.907609 325.099577 
L 69.236871 325.099577 
z
" style="fill:#1f77b4;"/>
   </g>
   <g id="patch_24">
    <path clip-path="url(#p5bb6af6ebc)" d="M 70.075293 325.921635 
L 70.74603 325.921635 
L 70.74603 325.079025 
L 70.075293 325.079025 
z
" style="fill:#1f77b4;"/>
   </g>
   <g id="patch_25">
    <path clip-path="url(#p5bb6af6ebc)" d="M 70.913715 325.921635 
L 71.584452 325.921635 
L 71.584452 325.017371 
L 70.913715 325.017371 
z
" style="fill:#1f77b4;"/>
   </g>
   <g id="patch_26">
    <path clip-path="url(#p5bb6af6ebc)" d="M 71.752137 325.921635 
L 72.422874 325.921635 
L 72.422874 324.894062 
L 71.752137 324.894062 
z
" style="fill:#1f77b4;"/>
   </g>
   <g id="patch_27">
    <path clip-path="url(#p5bb6af6ebc)" d="M 72.590559 325.921635 
L 73.261296 325.921635 
L 73.261296 324.729651 
L 72.590559 324.729651 
z
" style="fill:#1f77b4;"/>
   </g>
   <g id="patch_28">
    <path clip-path="url(#p5bb6af6ebc)" d="M 73.42898 325.921635 
L 74.099718 325.921635 
L 74.099718 324.380276 
L 73.42898 324.380276 
z
" style="fill:#1f77b4;"/>
   </g>
   <g id="patch_29">
    <path clip-path="url(#p5bb6af6ebc)" d="M 74.267402 325.921635 
L 74.93814 325.921635 
L 74.93814 324.051452 
L 74.267402 324.051452 
z
" style="fill:#1f77b4;"/>
   </g>
   <g id="patch_30">
    <path clip-path="url(#p5bb6af6ebc)" d="M 75.105824 325.921635 
L 75.776562 325.921635 
L 75.776562 323.825386 
L 75.105824 323.825386 
z
" style="fill:#1f77b4;"/>
   </g>
   <g id="patch_31">
    <path clip-path="url(#p5bb6af6ebc)" d="M 75.944246 325.921635 
L 76.614983 325.921635 
L 76.614983 323.393806 
L 75.944246 323.393806 
z
" style="fill:#1f77b4;"/>
   </g>
   <g id="patch_32">
    <path clip-path="url(#p5bb6af6ebc)" d="M 76.782668 325.921635 
L 77.453405 325.921635 
L 77.453405 322.941674 
L 76.782668 322.941674 
z
" style="fill:#1f77b4;"/>
   </g>
   <g id="patch_33">
    <path clip-path="url(#p5bb6af6ebc)" d="M 77.62109 325.921635 
L 78.291827 325.921635 
L 78.291827 322.674505 
L 77.62109 322.674505 
z
" style="fill:#1f77b4;"/>
   </g>
   <g id="patch_34">
    <path clip-path="url(#p5bb6af6ebc)" d="M 78.459512 325.921635 
L 79.130249 325.921635 
L 79.130249 322.099064 
L 78.459512 322.099064 
z
" style="fill:#1f77b4;"/>
   </g>
   <g id="patch_35">
    <path clip-path="url(#p5bb6af6ebc)" d="M 79.297933 325.921635 
L 79.968671 325.921635 
L 79.968671 321.688035 
L 79.297933 321.688035 
z
" style="fill:#1f77b4;"/>
   </g>
   <g id="patch_36">
    <path clip-path="url(#p5bb6af6ebc)" d="M 80.136355 325.921635 
L 80.807093 325.921635 
L 80.807093 321.461969 
L 80.136355 321.461969 
z
" style="fill:#1f77b4;"/>
   </g>
   <g id="patch_37">
    <path clip-path="url(#p5bb6af6ebc)" d="M 80.974777 325.921635 
L 81.645515 325.921635 
L 81.645515 320.660462 
L 80.974777 320.660462 
z
" style="fill:#1f77b4;"/>
   </g>
   <g id="patch_38">
    <path clip-path="url(#p5bb6af6ebc)" d="M 81.813199 325.921635 
L 82.483937 325.921635 
L 82.483937 319.817853 
L 81.813199 319.817853 
z
" style="fill:#1f77b4;"/>
   </g>
   <g id="patch_39">
    <path clip-path="url(#p5bb6af6ebc)" d="M 82.651621 325.921635 
L 83.322358 325.921635 
L 83.322358 319.119103 
L 82.651621 319.119103 
z
" style="fill:#1f77b4;"/>
   </g>
   <g id="patch_40">
    <path clip-path="url(#p5bb6af6ebc)" d="M 83.490043 325.921635 
L 84.16078 325.921635 
L 84.16078 318.440905 
L 83.490043 318.440905 
z
" style="fill:#1f77b4;"/>
   </g>
   <g id="patch_41">
    <path clip-path="url(#p5bb6af6ebc)" d="M 84.328465 325.921635 
L 84.999202 325.921635 
L 84.999202 317.536641 
L 84.328465 317.536641 
z
" style="fill:#1f77b4;"/>
   </g>
   <g id="patch_42">
    <path clip-path="url(#p5bb6af6ebc)" d="M 85.166886 325.921635 
L 85.837624 325.921635 
L 85.837624 316.591274 
L 85.166886 316.591274 
z
" style="fill:#1f77b4;"/>
   </g>
   <g id="patch_43">
    <path clip-path="url(#p5bb6af6ebc)" d="M 86.005308 325.921635 
L 86.676046 325.921635 
L 86.676046 315.378738 
L 86.005308 315.378738 
z
" style="fill:#1f77b4;"/>
   </g>
   <g id="patch_44">
    <path clip-path="url(#p5bb6af6ebc)" d="M 86.84373 325.921635 
L 87.514468 325.921635 
L 87.514468 313.590761 
L 86.84373 313.590761 
z
" style="fill:#1f77b4;"/>
   </g>
   <g id="patch_45">
    <path clip-path="url(#p5bb6af6ebc)" d="M 87.682152 325.921635 
L 88.35289 325.921635 
L 88.35289 312.254917 
L 87.682152 312.254917 
z
" style="fill:#1f77b4;"/>
   </g>
   <g id="patch_46">
    <path clip-path="url(#p5bb6af6ebc)" d="M 88.520574 325.921635 
L 89.191311 325.921635 
L 89.191311 310.672454 
L 88.520574 310.672454 
z
" style="fill:#1f77b4;"/>
   </g>
   <g id="patch_47">
    <path clip-path="url(#p5bb6af6ebc)" d="M 89.358996 325.921635 
L 90.029733 325.921635 
L 90.029733 309.809293 
L 89.358996 309.809293 
z
" style="fill:#1f77b4;"/>
   </g>
   <g id="patch_48">
    <path clip-path="url(#p5bb6af6ebc)" d="M 90.197418 325.921635 
L 90.868155 325.921635 
L 90.868155 307.939111 
L 90.197418 307.939111 
z
" style="fill:#1f77b4;"/>
   </g>
   <g id="patch_49">
    <path clip-path="url(#p5bb6af6ebc)" d="M 91.035839 325.921635 
L 91.706577 325.921635 
L 91.706577 306.418303 
L 91.035839 306.418303 
z
" style="fill:#1f77b4;"/>
   </g>
   <g id="patch_50">
    <path clip-path="url(#p5bb6af6ebc)" d="M 91.874261 325.921635 
L 92.544999 325.921635 
L 92.544999 304.322055 
L 91.874261 304.322055 
z
" style="fill:#1f77b4;"/>
   </g>
   <g id="patch_51">
    <path clip-path="url(#p5bb6af6ebc)" d="M 92.712683 325.921635 
L 93.383421 325.921635 
L 93.383421 302.677938 
L 92.712683 302.677938 
z
" style="fill:#1f77b4;"/>
   </g>
   <g id="patch_52">
    <path clip-path="url(#p5bb6af6ebc)" d="M 93.551105 325.921635 
L 94.221843 325.921635 
L 94.221843 300.581689 
L 93.551105 300.581689 
z
" style="fill:#1f77b4;"/>
   </g>
   <g id="patch_53">
    <path clip-path="url(#p5bb6af6ebc)" d="M 94.389527 325.921635 
L 95.060264 325.921635 
L 95.060264 299.656874 
L 94.389527 299.656874 
z
" style="fill:#1f77b4;"/>
   </g>
   <g id="patch_54">
    <path clip-path="url(#p5bb6af6ebc)" d="M 95.227949 325.921635 
L 95.898686 325.921635 
L 95.898686 298.547095 
L 95.227949 298.547095 
z
" style="fill:#1f77b4;"/>
   </g>
   <g id="patch_55">
    <path clip-path="url(#p5bb6af6ebc)" d="M 96.066371 325.921635 
L 96.737108 325.921635 
L 96.737108 296.265884 
L 96.066371 296.265884 
z
" style="fill:#1f77b4;"/>
   </g>
   <g id="patch_56">
    <path clip-path="url(#p5bb6af6ebc)" d="M 96.904793 325.921635 
L 97.57553 325.921635 
L 97.57553 292.792688 
L 96.904793 292.792688 
z
" style="fill:#1f77b4;"/>
   </g>
   <g id="patch_57">
    <path clip-path="url(#p5bb6af6ebc)" d="M 97.743214 325.921635 
L 98.413952 325.921635 
L 98.413952 289.257837 
L 97.743214 289.257837 
z
" style="fill:#1f77b4;"/>
   </g>
   <g id="patch_58">
    <path clip-path="url(#p5bb6af6ebc)" d="M 98.581636 325.921635 
L 99.252374 325.921635 
L 99.252374 286.771111 
L 98.581636 286.771111 
z
" style="fill:#1f77b4;"/>
   </g>
   <g id="patch_59">
    <path clip-path="url(#p5bb6af6ebc)" d="M 99.420058 325.921635 
L 100.090796 325.921635 
L 100.090796 283.071849 
L 99.420058 283.071849 
z
" style="fill:#1f77b4;"/>
   </g>
   <g id="patch_60">
    <path clip-path="url(#p5bb6af6ebc)" d="M 100.25848 325.921635 
L 100.929217 325.921635 
L 100.929217 279.639756 
L 100.25848 279.639756 
z
" style="fill:#1f77b4;"/>
   </g>
   <g id="patch_61">
    <path clip-path="url(#p5bb6af6ebc)" d="M 101.096902 325.921635 
L 101.767639 325.921635 
L 101.767639 278.920455 
L 101.096902 278.920455 
z
" style="fill:#1f77b4;"/>
   </g>
   <g id="patch_62">
    <path clip-path="url(#p5bb6af6ebc)" d="M 101.935324 325.921635 
L 102.606061 325.921635 
L 102.606061 275.776082 
L 101.935324 275.776082 
z
" style="fill:#1f77b4;"/>
   </g>
   <g id="patch_63">
    <path clip-path="url(#p5bb6af6ebc)" d="M 102.773746 325.921635 
L 103.444483 325.921635 
L 103.444483 271.727445 
L 102.773746 271.727445 
z
" style="fill:#1f77b4;"/>
   </g>
   <g id="patch_64">
    <path clip-path="url(#p5bb6af6ebc)" d="M 103.612167 325.921635 
L 104.282905 325.921635 
L 104.282905 267.308882 
L 103.612167 267.308882 
z
" style="fill:#1f77b4;"/>
   </g>
   <g id="patch_65">
    <path clip-path="url(#p5bb6af6ebc)" d="M 104.450589 325.921635 
L 105.121327 325.921635 
L 105.121327 262.746459 
L 104.450589 262.746459 
z
" style="fill:#1f77b4;"/>
   </g>
   <g id="patch_66">
    <path clip-path="url(#p5bb6af6ebc)" d="M 105.289011 325.921635 
L 105.959749 325.921635 
L 105.959749 258.964991 
L 105.289011 258.964991 
z
" style="fill:#1f77b4;"/>
   </g>
   <g id="patch_67">
    <path clip-path="url(#p5bb6af6ebc)" d="M 106.127433 325.921635 
L 106.79817 325.921635 
L 106.79817 256.252198 
L 106.127433 256.252198 
z
" style="fill:#1f77b4;"/>
   </g>
   <g id="patch_68">
    <path clip-path="url(#p5bb6af6ebc)" d="M 106.965855 325.921635 
L 107.636592 325.921635 
L 107.636592 252.963965 
L 106.965855 252.963965 
z
" style="fill:#1f77b4;"/>
   </g>
   <g id="patch_69">
    <path clip-path="url(#p5bb6af6ebc)" d="M 107.804277 325.921635 
L 108.475014 325.921635 
L 108.475014 249.470218 
L 107.804277 249.470218 
z
" style="fill:#1f77b4;"/>
   </g>
   <g id="patch_70">
    <path clip-path="url(#p5bb6af6ebc)" d="M 108.642699 325.921635 
L 109.313436 325.921635 
L 109.313436 244.41456 
L 108.642699 244.41456 
z
" style="fill:#1f77b4;"/>
   </g>
   <g id="patch_71">
    <path clip-path="url(#p5bb6af6ebc)" d="M 109.48112 325.921635 
L 110.151858 325.921635 
L 110.151858 238.721806 
L 109.48112 238.721806 
z
" style="fill:#1f77b4;"/>
   </g>
   <g id="patch_72">
    <path clip-path="url(#p5bb6af6ebc)" d="M 110.319542 325.921635 
L 110.99028 325.921635 
L 110.99028 233.378428 
L 110.319542 233.378428 
z
" style="fill:#1f77b4;"/>
   </g>
   <g id="patch_73">
    <path clip-path="url(#p5bb6af6ebc)" d="M 111.157964 325.921635 
L 111.828702 325.921635 
L 111.828702 228.404975 
L 111.157964 228.404975 
z
" style="fill:#1f77b4;"/>
   </g>
   <g id="patch_74">
    <path clip-path="url(#p5bb6af6ebc)" d="M 111.996386 325.921635 
L 112.667123 325.921635 
L 112.667123 224.582404 
L 111.996386 224.582404 
z
" style="fill:#1f77b4;"/>
   </g>
   <g id="patch_75">
    <path clip-path="url(#p5bb6af6ebc)" d="M 112.834808 325.921635 
L 113.505545 325.921635 
L 113.505545 220.718731 
L 112.834808 220.718731 
z
" style="fill:#1f77b4;"/>
   </g>
   <g id="patch_76">
    <path clip-path="url(#p5bb6af6ebc)" d="M 113.67323 325.921635 
L 114.343967 325.921635 
L 114.343967 212.765317 
L 113.67323 212.765317 
z
" style="fill:#1f77b4;"/>
   </g>
   <g id="patch_77">
    <path clip-path="url(#p5bb6af6ebc)" d="M 114.511652 325.921635 
L 115.182389 325.921635 
L 115.182389 206.147748 
L 114.511652 206.147748 
z
" style="fill:#1f77b4;"/>
   </g>
   <g id="patch_78">
    <path clip-path="url(#p5bb6af6ebc)" d="M 115.350073 325.921635 
L 116.020811 325.921635 
L 116.020811 201.297605 
L 115.350073 201.297605 
z
" style="fill:#1f77b4;"/>
   </g>
   <g id="patch_79">
    <path clip-path="url(#p5bb6af6ebc)" d="M 116.188495 325.921635 
L 116.859233 325.921635 
L 116.859233 187.877504 
L 116.188495 187.877504 
z
" style="fill:#1f77b4;"/>
   </g>
   <g id="patch_80">
    <path clip-path="url(#p5bb6af6ebc)" d="M 117.026917 325.921635 
L 117.697655 325.921635 
L 117.697655 179.903539 
L 117.026917 179.903539 
z
" style="fill:#1f77b4;"/>
   </g>
   <g id="patch_81">
    <path clip-path="url(#p5bb6af6ebc)" d="M 117.865339 325.921635 
L 118.536077 325.921635 
L 118.536077 172.237845 
L 117.865339 172.237845 
z
" style="fill:#1f77b4;"/>
   </g>
   <g id="patch_82">
    <path clip-path="url(#p5bb6af6ebc)" d="M 118.703761 325.921635 
L 119.374498 325.921635 
L 119.374498 169.298987 
L 118.703761 169.298987 
z
" style="fill:#1f77b4;"/>
   </g>
   <g id="patch_83">
    <path clip-path="url(#p5bb6af6ebc)" d="M 119.542183 325.921635 
L 120.21292 325.921635 
L 120.21292 163.010242 
L 119.542183 163.010242 
z
" style="fill:#1f77b4;"/>
   </g>
   <g id="patch_84">
    <path clip-path="url(#p5bb6af6ebc)" d="M 120.380605 325.921635 
L 121.051342 325.921635 
L 121.051342 154.132013 
L 120.380605 154.132013 
z
" style="fill:#1f77b4;"/>
   </g>
   <g id="patch_85">
    <path clip-path="url(#p5bb6af6ebc)" d="M 121.219026 325.921635 
L 121.889764 325.921635 
L 121.889764 144.596137 
L 121.219026 144.596137 
z
" style="fill:#1f77b4;"/>
   </g>
   <g id="patch_86">
    <path clip-path="url(#p5bb6af6ebc)" d="M 122.057448 325.921635 
L 122.728186 325.921635 
L 122.728186 134.032688 
L 122.057448 134.032688 
z
" style="fill:#1f77b4;"/>
   </g>
   <g id="patch_87">
    <path clip-path="url(#p5bb6af6ebc)" d="M 122.89587 325.921635 
L 123.566608 325.921635 
L 123.566608 124.003578 
L 122.89587 124.003578 
z
" style="fill:#1f77b4;"/>
   </g>
   <g id="patch_88">
    <path clip-path="url(#p5bb6af6ebc)" d="M 123.734292 325.921635 
L 124.40503 325.921635 
L 124.40503 117.2627 
L 123.734292 117.2627 
z
" style="fill:#1f77b4;"/>
   </g>
   <g id="patch_89">
    <path clip-path="url(#p5bb6af6ebc)" d="M 124.572714 325.921635 
L 125.243451 325.921635 
L 125.243451 113.070203 
L 124.572714 113.070203 
z
" style="fill:#1f77b4;"/>
   </g>
   <g id="patch_90">
    <path clip-path="url(#p5bb6af6ebc)" d="M 125.411136 325.921635 
L 126.081873 325.921635 
L 126.081873 102.30124 
L 125.411136 102.30124 
z
" style="fill:#1f77b4;"/>
   </g>
   <g id="patch_91">
    <path clip-path="url(#p5bb6af6ebc)" d="M 126.249558 325.921635 
L 126.920295 325.921635 
L 126.920295 88.367353 
L 126.249558 88.367353 
z
" style="fill:#1f77b4;"/>
   </g>
   <g id="patch_92">
    <path clip-path="url(#p5bb6af6ebc)" d="M 127.087979 325.921635 
L 127.758717 325.921635 
L 127.758717 77.269566 
L 127.087979 77.269566 
z
" style="fill:#1f77b4;"/>
   </g>
   <g id="patch_93">
    <path clip-path="url(#p5bb6af6ebc)" d="M 127.926401 325.921635 
L 128.597139 325.921635 
L 128.597139 67.651485 
L 127.926401 67.651485 
z
" style="fill:#1f77b4;"/>
   </g>
   <g id="patch_94">
    <path clip-path="url(#p5bb6af6ebc)" d="M 128.764823 325.921635 
L 129.435561 325.921635 
L 129.435561 42.04437 
L 128.764823 42.04437 
z
" style="fill:#1f77b4;"/>
   </g>
   <g id="patch_95">
    <path clip-path="url(#p5bb6af6ebc)" d="M 129.603245 325.921635 
L 130.273983 325.921635 
L 130.273983 32.775664 
L 129.603245 32.775664 
z
" style="fill:#1f77b4;"/>
   </g>
   <g id="matplotlib.axis_1">
    <g id="xtick_1">
     <g id="line2d_1">
      <defs>
       <path d="M 0 0 
L 0 3.5 
" id="mf8ae0bddb2" style="stroke:#000000;stroke-width:0.8;"/>
      </defs>
      <g>
       <use style="stroke:#000000;stroke-width:0.8;" x="52.803803" xlink:href="#mf8ae0bddb2" y="325.921635"/>
      </g>
     </g>
     <g id="text_1">
      <!-- 0 -->
      <defs>
       <path d="M 31.78125 66.40625 
Q 24.171875 66.40625 20.328125 58.90625 
Q 16.5 51.421875 16.5 36.375 
Q 16.5 21.390625 20.328125 13.890625 
Q 24.171875 6.390625 31.78125 6.390625 
Q 39.453125 6.390625 43.28125 13.890625 
Q 47.125 21.390625 47.125 36.375 
Q 47.125 51.421875 43.28125 58.90625 
Q 39.453125 66.40625 31.78125 66.40625 
z
M 31.78125 74.21875 
Q 44.046875 74.21875 50.515625 64.515625 
Q 56.984375 54.828125 56.984375 36.375 
Q 56.984375 17.96875 50.515625 8.265625 
Q 44.046875 -1.421875 31.78125 -1.421875 
Q 19.53125 -1.421875 13.0625 8.265625 
Q 6.59375 17.96875 6.59375 36.375 
Q 6.59375 54.828125 13.0625 64.515625 
Q 19.53125 74.21875 31.78125 74.21875 
z
" id="DejaVuSans-48"/>
      </defs>
      <g transform="translate(49.622553 340.520072)scale(0.1 -0.1)">
       <use xlink:href="#DejaVuSans-48"/>
      </g>
     </g>
    </g>
    <g id="xtick_2">
     <g id="line2d_2">
      <g>
       <use style="stroke:#000000;stroke-width:0.8;" x="94.724896" xlink:href="#mf8ae0bddb2" y="325.921635"/>
      </g>
     </g>
     <g id="text_2">
      <!-- 50 -->
      <defs>
       <path d="M 10.796875 72.90625 
L 49.515625 72.90625 
L 49.515625 64.59375 
L 19.828125 64.59375 
L 19.828125 46.734375 
Q 21.96875 47.46875 24.109375 47.828125 
Q 26.265625 48.1875 28.421875 48.1875 
Q 40.625 48.1875 47.75 41.5 
Q 54.890625 34.8125 54.890625 23.390625 
Q 54.890625 11.625 47.5625 5.09375 
Q 40.234375 -1.421875 26.90625 -1.421875 
Q 22.3125 -1.421875 17.546875 -0.640625 
Q 12.796875 0.140625 7.71875 1.703125 
L 7.71875 11.625 
Q 12.109375 9.234375 16.796875 8.0625 
Q 21.484375 6.890625 26.703125 6.890625 
Q 35.15625 6.890625 40.078125 11.328125 
Q 45.015625 15.765625 45.015625 23.390625 
Q 45.015625 31 40.078125 35.4375 
Q 35.15625 39.890625 26.703125 39.890625 
Q 22.75 39.890625 18.8125 39.015625 
Q 14.890625 38.140625 10.796875 36.28125 
z
" id="DejaVuSans-53"/>
      </defs>
      <g transform="translate(88.362396 340.520072)scale(0.1 -0.1)">
       <use xlink:href="#DejaVuSans-53"/>
       <use x="63.623047" xlink:href="#DejaVuSans-48"/>
      </g>
     </g>
    </g>
   </g>
   <g id="matplotlib.axis_2">
    <g id="ytick_1">
     <g id="line2d_3">
      <defs>
       <path d="M 0 0 
L -3.5 0 
" id="md6e36bc5a6" style="stroke:#000000;stroke-width:0.8;"/>
      </defs>
      <g>
       <use style="stroke:#000000;stroke-width:0.8;" x="48.578156" xlink:href="#md6e36bc5a6" y="325.921635"/>
      </g>
     </g>
     <g id="text_3">
      <!-- 0 -->
      <g transform="translate(35.215656 329.720854)scale(0.1 -0.1)">
       <use xlink:href="#DejaVuSans-48"/>
      </g>
     </g>
    </g>
    <g id="ytick_2">
     <g id="line2d_4">
      <g>
       <use style="stroke:#000000;stroke-width:0.8;" x="48.578156" xlink:href="#md6e36bc5a6" y="284.818723"/>
      </g>
     </g>
     <g id="text_4">
      <!-- 2000 -->
      <defs>
       <path d="M 19.1875 8.296875 
L 53.609375 8.296875 
L 53.609375 0 
L 7.328125 0 
L 7.328125 8.296875 
Q 12.9375 14.109375 22.625 23.890625 
Q 32.328125 33.6875 34.8125 36.53125 
Q 39.546875 41.84375 41.421875 45.53125 
Q 43.3125 49.21875 43.3125 52.78125 
Q 43.3125 58.59375 39.234375 62.25 
Q 35.15625 65.921875 28.609375 65.921875 
Q 23.96875 65.921875 18.8125 64.3125 
Q 13.671875 62.703125 7.8125 59.421875 
L 7.8125 69.390625 
Q 13.765625 71.78125 18.9375 73 
Q 24.125 74.21875 28.421875 74.21875 
Q 39.75 74.21875 46.484375 68.546875 
Q 53.21875 62.890625 53.21875 53.421875 
Q 53.21875 48.921875 51.53125 44.890625 
Q 49.859375 40.875 45.40625 35.40625 
Q 44.1875 33.984375 37.640625 27.21875 
Q 31.109375 20.453125 19.1875 8.296875 
z
" id="DejaVuSans-50"/>
      </defs>
      <g transform="translate(16.128156 288.617941)scale(0.1 -0.1)">
       <use xlink:href="#DejaVuSans-50"/>
       <use x="63.623047" xlink:href="#DejaVuSans-48"/>
       <use x="127.246094" xlink:href="#DejaVuSans-48"/>
       <use x="190.869141" xlink:href="#DejaVuSans-48"/>
      </g>
     </g>
    </g>
    <g id="ytick_3">
     <g id="line2d_5">
      <g>
       <use style="stroke:#000000;stroke-width:0.8;" x="48.578156" xlink:href="#md6e36bc5a6" y="243.71581"/>
      </g>
     </g>
     <g id="text_5">
      <!-- 4000 -->
      <defs>
       <path d="M 37.796875 64.3125 
L 12.890625 25.390625 
L 37.796875 25.390625 
z
M 35.203125 72.90625 
L 47.609375 72.90625 
L 47.609375 25.390625 
L 58.015625 25.390625 
L 58.015625 17.1875 
L 47.609375 17.1875 
L 47.609375 0 
L 37.796875 0 
L 37.796875 17.1875 
L 4.890625 17.1875 
L 4.890625 26.703125 
z
" id="DejaVuSans-52"/>
      </defs>
      <g transform="translate(16.128156 247.515029)scale(0.1 -0.1)">
       <use xlink:href="#DejaVuSans-52"/>
       <use x="63.623047" xlink:href="#DejaVuSans-48"/>
       <use x="127.246094" xlink:href="#DejaVuSans-48"/>
       <use x="190.869141" xlink:href="#DejaVuSans-48"/>
      </g>
     </g>
    </g>
    <g id="ytick_4">
     <g id="line2d_6">
      <g>
       <use style="stroke:#000000;stroke-width:0.8;" x="48.578156" xlink:href="#md6e36bc5a6" y="202.612898"/>
      </g>
     </g>
     <g id="text_6">
      <!-- 6000 -->
      <defs>
       <path d="M 33.015625 40.375 
Q 26.375 40.375 22.484375 35.828125 
Q 18.609375 31.296875 18.609375 23.390625 
Q 18.609375 15.53125 22.484375 10.953125 
Q 26.375 6.390625 33.015625 6.390625 
Q 39.65625 6.390625 43.53125 10.953125 
Q 47.40625 15.53125 47.40625 23.390625 
Q 47.40625 31.296875 43.53125 35.828125 
Q 39.65625 40.375 33.015625 40.375 
z
M 52.59375 71.296875 
L 52.59375 62.3125 
Q 48.875 64.0625 45.09375 64.984375 
Q 41.3125 65.921875 37.59375 65.921875 
Q 27.828125 65.921875 22.671875 59.328125 
Q 17.53125 52.734375 16.796875 39.40625 
Q 19.671875 43.65625 24.015625 45.921875 
Q 28.375 48.1875 33.59375 48.1875 
Q 44.578125 48.1875 50.953125 41.515625 
Q 57.328125 34.859375 57.328125 23.390625 
Q 57.328125 12.15625 50.6875 5.359375 
Q 44.046875 -1.421875 33.015625 -1.421875 
Q 20.359375 -1.421875 13.671875 8.265625 
Q 6.984375 17.96875 6.984375 36.375 
Q 6.984375 53.65625 15.1875 63.9375 
Q 23.390625 74.21875 37.203125 74.21875 
Q 40.921875 74.21875 44.703125 73.484375 
Q 48.484375 72.75 52.59375 71.296875 
z
" id="DejaVuSans-54"/>
      </defs>
      <g transform="translate(16.128156 206.412116)scale(0.1 -0.1)">
       <use xlink:href="#DejaVuSans-54"/>
       <use x="63.623047" xlink:href="#DejaVuSans-48"/>
       <use x="127.246094" xlink:href="#DejaVuSans-48"/>
       <use x="190.869141" xlink:href="#DejaVuSans-48"/>
      </g>
     </g>
    </g>
    <g id="ytick_5">
     <g id="line2d_7">
      <g>
       <use style="stroke:#000000;stroke-width:0.8;" x="48.578156" xlink:href="#md6e36bc5a6" y="161.509985"/>
      </g>
     </g>
     <g id="text_7">
      <!-- 8000 -->
      <defs>
       <path d="M 31.78125 34.625 
Q 24.75 34.625 20.71875 30.859375 
Q 16.703125 27.09375 16.703125 20.515625 
Q 16.703125 13.921875 20.71875 10.15625 
Q 24.75 6.390625 31.78125 6.390625 
Q 38.8125 6.390625 42.859375 10.171875 
Q 46.921875 13.96875 46.921875 20.515625 
Q 46.921875 27.09375 42.890625 30.859375 
Q 38.875 34.625 31.78125 34.625 
z
M 21.921875 38.8125 
Q 15.578125 40.375 12.03125 44.71875 
Q 8.5 49.078125 8.5 55.328125 
Q 8.5 64.0625 14.71875 69.140625 
Q 20.953125 74.21875 31.78125 74.21875 
Q 42.671875 74.21875 48.875 69.140625 
Q 55.078125 64.0625 55.078125 55.328125 
Q 55.078125 49.078125 51.53125 44.71875 
Q 48 40.375 41.703125 38.8125 
Q 48.828125 37.15625 52.796875 32.3125 
Q 56.78125 27.484375 56.78125 20.515625 
Q 56.78125 9.90625 50.3125 4.234375 
Q 43.84375 -1.421875 31.78125 -1.421875 
Q 19.734375 -1.421875 13.25 4.234375 
Q 6.78125 9.90625 6.78125 20.515625 
Q 6.78125 27.484375 10.78125 32.3125 
Q 14.796875 37.15625 21.921875 38.8125 
z
M 18.3125 54.390625 
Q 18.3125 48.734375 21.84375 45.5625 
Q 25.390625 42.390625 31.78125 42.390625 
Q 38.140625 42.390625 41.71875 45.5625 
Q 45.3125 48.734375 45.3125 54.390625 
Q 45.3125 60.0625 41.71875 63.234375 
Q 38.140625 66.40625 31.78125 66.40625 
Q 25.390625 66.40625 21.84375 63.234375 
Q 18.3125 60.0625 18.3125 54.390625 
z
" id="DejaVuSans-56"/>
      </defs>
      <g transform="translate(16.128156 165.309204)scale(0.1 -0.1)">
       <use xlink:href="#DejaVuSans-56"/>
       <use x="63.623047" xlink:href="#DejaVuSans-48"/>
       <use x="127.246094" xlink:href="#DejaVuSans-48"/>
       <use x="190.869141" xlink:href="#DejaVuSans-48"/>
      </g>
     </g>
    </g>
    <g id="ytick_6">
     <g id="line2d_8">
      <g>
       <use style="stroke:#000000;stroke-width:0.8;" x="48.578156" xlink:href="#md6e36bc5a6" y="120.407073"/>
      </g>
     </g>
     <g id="text_8">
      <!-- 10000 -->
      <defs>
       <path d="M 12.40625 8.296875 
L 28.515625 8.296875 
L 28.515625 63.921875 
L 10.984375 60.40625 
L 10.984375 69.390625 
L 28.421875 72.90625 
L 38.28125 72.90625 
L 38.28125 8.296875 
L 54.390625 8.296875 
L 54.390625 0 
L 12.40625 0 
z
" id="DejaVuSans-49"/>
      </defs>
      <g transform="translate(9.765656 124.206292)scale(0.1 -0.1)">
       <use xlink:href="#DejaVuSans-49"/>
       <use x="63.623047" xlink:href="#DejaVuSans-48"/>
       <use x="127.246094" xlink:href="#DejaVuSans-48"/>
       <use x="190.869141" xlink:href="#DejaVuSans-48"/>
       <use x="254.492188" xlink:href="#DejaVuSans-48"/>
      </g>
     </g>
    </g>
    <g id="ytick_7">
     <g id="line2d_9">
      <g>
       <use style="stroke:#000000;stroke-width:0.8;" x="48.578156" xlink:href="#md6e36bc5a6" y="79.30416"/>
      </g>
     </g>
     <g id="text_9">
      <!-- 12000 -->
      <g transform="translate(9.765656 83.103379)scale(0.1 -0.1)">
       <use xlink:href="#DejaVuSans-49"/>
       <use x="63.623047" xlink:href="#DejaVuSans-50"/>
       <use x="127.246094" xlink:href="#DejaVuSans-48"/>
       <use x="190.869141" xlink:href="#DejaVuSans-48"/>
       <use x="254.492188" xlink:href="#DejaVuSans-48"/>
      </g>
     </g>
    </g>
    <g id="ytick_8">
     <g id="line2d_10">
      <g>
       <use style="stroke:#000000;stroke-width:0.8;" x="48.578156" xlink:href="#md6e36bc5a6" y="38.201248"/>
      </g>
     </g>
     <g id="text_10">
      <!-- 14000 -->
      <g transform="translate(9.765656 42.000467)scale(0.1 -0.1)">
       <use xlink:href="#DejaVuSans-49"/>
       <use x="63.623047" xlink:href="#DejaVuSans-52"/>
       <use x="127.246094" xlink:href="#DejaVuSans-48"/>
       <use x="190.869141" xlink:href="#DejaVuSans-48"/>
       <use x="254.492188" xlink:href="#DejaVuSans-48"/>
      </g>
     </g>
    </g>
   </g>
   <g id="line2d_11">
    <path clip-path="url(#p5bb6af6ebc)" d="M 52.803803 325.831263 
L 53.642225 325.816062 
L 54.480646 325.797051 
L 55.319068 325.775395 
L 56.15749 325.751446 
L 56.995912 325.725673 
L 57.834334 325.698556 
L 58.672756 325.670267 
L 59.511178 325.640968 
L 60.349599 325.610761 
L 61.188021 325.579544 
L 62.026443 325.546958 
L 62.864865 325.512386 
L 63.703287 325.474981 
L 64.541709 325.43375 
L 65.380131 325.3874 
L 66.218552 325.334202 
L 67.056974 325.271957 
L 67.895396 325.19814 
L 68.733818 325.109745 
L 69.57224 325.00353 
L 70.410662 324.87613 
L 71.249084 324.72407 
L 72.087505 324.544097 
L 72.925927 324.333498 
L 73.764349 324.089936 
L 74.602771 323.811777 
L 75.441193 323.497607 
L 76.279615 323.145519 
L 77.118037 322.753184 
L 77.956458 322.317649 
L 78.79488 321.834805 
L 79.633302 321.299697 
L 80.471724 320.706042 
L 81.310146 320.0467 
L 82.148568 319.314748 
L 82.98699 318.504126 
L 83.825411 317.609594 
L 84.663833 316.627969 
L 85.502255 315.557795 
L 86.340677 314.400143 
L 87.179099 313.157871 
L 88.017521 311.834857 
L 88.855943 310.434474 
L 89.694365 308.959425 
L 90.532786 307.408882 
L 91.371208 305.778888 
L 92.20963 304.061451 
L 93.048052 302.246238 
L 93.886474 300.321317 
L 94.724896 298.273935 
L 95.563318 296.09174 
L 96.401739 293.767405 
L 97.240161 291.296839 
L 98.078583 288.680008 
L 98.917005 285.919034 
L 99.755427 283.017342 
L 100.593849 279.98081 
L 101.432271 276.815698 
L 102.270692 273.52387 
L 103.109114 270.106362 
L 103.947536 266.561052 
L 104.785958 262.88336 
L 105.62438 259.067688 
L 106.462802 255.102789 
L 107.301224 250.972571 
L 108.139645 246.657827 
L 108.978067 242.133964 
L 109.816489 237.377197 
L 110.654911 232.364533 
L 111.493333 227.06955 
L 112.331755 221.473562 
L 113.170177 215.56706 
L 114.008598 209.35321 
L 114.84702 202.84653 
L 115.685442 196.063514 
L 116.523864 189.02182 
L 117.362286 181.747058 
L 118.200708 174.259849 
L 119.03913 166.568648 
L 119.877551 158.663202 
L 120.715973 150.515247 
L 121.554395 142.081866 
L 122.392817 133.311573 
L 123.231239 124.144297 
L 124.069661 114.510953 
L 124.908083 104.353535 
L 125.746505 93.661052 
L 126.584926 82.432587 
L 127.423348 70.691799 
L 128.26177 58.623404 
L 129.100192 46.253815 
L 129.938614 33.631001 
" style="fill:none;stroke:#ff0000;stroke-linecap:square;stroke-width:1.5;"/>
   </g>
   <g id="patch_96">
    <path d="M 48.578156 325.921635 
L 48.578156 18.118365 
" style="fill:none;stroke:#000000;stroke-linecap:square;stroke-linejoin:miter;stroke-width:0.8;"/>
   </g>
   <g id="patch_97">
    <path d="M 134.16426 325.921635 
L 134.16426 18.118365 
" style="fill:none;stroke:#000000;stroke-linecap:square;stroke-linejoin:miter;stroke-width:0.8;"/>
   </g>
   <g id="patch_98">
    <path d="M 48.578156 325.921635 
L 134.16426 325.921635 
" style="fill:none;stroke:#000000;stroke-linecap:square;stroke-linejoin:miter;stroke-width:0.8;"/>
   </g>
   <g id="patch_99">
    <path d="M 48.578156 18.118365 
L 134.16426 18.118365 
" style="fill:none;stroke:#000000;stroke-linecap:square;stroke-linejoin:miter;stroke-width:0.8;"/>
   </g>
   <g id="text_11">
    <!-- Casos acumulados - PI - (data) -->
    <defs>
     <path d="M 64.40625 67.28125 
L 64.40625 56.890625 
Q 59.421875 61.53125 53.78125 63.8125 
Q 48.140625 66.109375 41.796875 66.109375 
Q 29.296875 66.109375 22.65625 58.46875 
Q 16.015625 50.828125 16.015625 36.375 
Q 16.015625 21.96875 22.65625 14.328125 
Q 29.296875 6.6875 41.796875 6.6875 
Q 48.140625 6.6875 53.78125 8.984375 
Q 59.421875 11.28125 64.40625 15.921875 
L 64.40625 5.609375 
Q 59.234375 2.09375 53.4375 0.328125 
Q 47.65625 -1.421875 41.21875 -1.421875 
Q 24.65625 -1.421875 15.125 8.703125 
Q 5.609375 18.84375 5.609375 36.375 
Q 5.609375 53.953125 15.125 64.078125 
Q 24.65625 74.21875 41.21875 74.21875 
Q 47.75 74.21875 53.53125 72.484375 
Q 59.328125 70.75 64.40625 67.28125 
z
" id="DejaVuSans-67"/>
     <path d="M 34.28125 27.484375 
Q 23.390625 27.484375 19.1875 25 
Q 14.984375 22.515625 14.984375 16.5 
Q 14.984375 11.71875 18.140625 8.90625 
Q 21.296875 6.109375 26.703125 6.109375 
Q 34.1875 6.109375 38.703125 11.40625 
Q 43.21875 16.703125 43.21875 25.484375 
L 43.21875 27.484375 
z
M 52.203125 31.203125 
L 52.203125 0 
L 43.21875 0 
L 43.21875 8.296875 
Q 40.140625 3.328125 35.546875 0.953125 
Q 30.953125 -1.421875 24.3125 -1.421875 
Q 15.921875 -1.421875 10.953125 3.296875 
Q 6 8.015625 6 15.921875 
Q 6 25.140625 12.171875 29.828125 
Q 18.359375 34.515625 30.609375 34.515625 
L 43.21875 34.515625 
L 43.21875 35.40625 
Q 43.21875 41.609375 39.140625 45 
Q 35.0625 48.390625 27.6875 48.390625 
Q 23 48.390625 18.546875 47.265625 
Q 14.109375 46.140625 10.015625 43.890625 
L 10.015625 52.203125 
Q 14.9375 54.109375 19.578125 55.046875 
Q 24.21875 56 28.609375 56 
Q 40.484375 56 46.34375 49.84375 
Q 52.203125 43.703125 52.203125 31.203125 
z
" id="DejaVuSans-97"/>
     <path d="M 44.28125 53.078125 
L 44.28125 44.578125 
Q 40.484375 46.53125 36.375 47.5 
Q 32.28125 48.484375 27.875 48.484375 
Q 21.1875 48.484375 17.84375 46.4375 
Q 14.5 44.390625 14.5 40.28125 
Q 14.5 37.15625 16.890625 35.375 
Q 19.28125 33.59375 26.515625 31.984375 
L 29.59375 31.296875 
Q 39.15625 29.25 43.1875 25.515625 
Q 47.21875 21.78125 47.21875 15.09375 
Q 47.21875 7.46875 41.1875 3.015625 
Q 35.15625 -1.421875 24.609375 -1.421875 
Q 20.21875 -1.421875 15.453125 -0.5625 
Q 10.6875 0.296875 5.421875 2 
L 5.421875 11.28125 
Q 10.40625 8.6875 15.234375 7.390625 
Q 20.0625 6.109375 24.8125 6.109375 
Q 31.15625 6.109375 34.5625 8.28125 
Q 37.984375 10.453125 37.984375 14.40625 
Q 37.984375 18.0625 35.515625 20.015625 
Q 33.0625 21.96875 24.703125 23.78125 
L 21.578125 24.515625 
Q 13.234375 26.265625 9.515625 29.90625 
Q 5.8125 33.546875 5.8125 39.890625 
Q 5.8125 47.609375 11.28125 51.796875 
Q 16.75 56 26.8125 56 
Q 31.78125 56 36.171875 55.265625 
Q 40.578125 54.546875 44.28125 53.078125 
z
" id="DejaVuSans-115"/>
     <path d="M 30.609375 48.390625 
Q 23.390625 48.390625 19.1875 42.75 
Q 14.984375 37.109375 14.984375 27.296875 
Q 14.984375 17.484375 19.15625 11.84375 
Q 23.34375 6.203125 30.609375 6.203125 
Q 37.796875 6.203125 41.984375 11.859375 
Q 46.1875 17.53125 46.1875 27.296875 
Q 46.1875 37.015625 41.984375 42.703125 
Q 37.796875 48.390625 30.609375 48.390625 
z
M 30.609375 56 
Q 42.328125 56 49.015625 48.375 
Q 55.71875 40.765625 55.71875 27.296875 
Q 55.71875 13.875 49.015625 6.21875 
Q 42.328125 -1.421875 30.609375 -1.421875 
Q 18.84375 -1.421875 12.171875 6.21875 
Q 5.515625 13.875 5.515625 27.296875 
Q 5.515625 40.765625 12.171875 48.375 
Q 18.84375 56 30.609375 56 
z
" id="DejaVuSans-111"/>
     <path id="DejaVuSans-32"/>
     <path d="M 48.78125 52.59375 
L 48.78125 44.1875 
Q 44.96875 46.296875 41.140625 47.34375 
Q 37.3125 48.390625 33.40625 48.390625 
Q 24.65625 48.390625 19.8125 42.84375 
Q 14.984375 37.3125 14.984375 27.296875 
Q 14.984375 17.28125 19.8125 11.734375 
Q 24.65625 6.203125 33.40625 6.203125 
Q 37.3125 6.203125 41.140625 7.25 
Q 44.96875 8.296875 48.78125 10.40625 
L 48.78125 2.09375 
Q 45.015625 0.34375 40.984375 -0.53125 
Q 36.96875 -1.421875 32.421875 -1.421875 
Q 20.0625 -1.421875 12.78125 6.34375 
Q 5.515625 14.109375 5.515625 27.296875 
Q 5.515625 40.671875 12.859375 48.328125 
Q 20.21875 56 33.015625 56 
Q 37.15625 56 41.109375 55.140625 
Q 45.0625 54.296875 48.78125 52.59375 
z
" id="DejaVuSans-99"/>
     <path d="M 8.5 21.578125 
L 8.5 54.6875 
L 17.484375 54.6875 
L 17.484375 21.921875 
Q 17.484375 14.15625 20.5 10.265625 
Q 23.53125 6.390625 29.59375 6.390625 
Q 36.859375 6.390625 41.078125 11.03125 
Q 45.3125 15.671875 45.3125 23.6875 
L 45.3125 54.6875 
L 54.296875 54.6875 
L 54.296875 0 
L 45.3125 0 
L 45.3125 8.40625 
Q 42.046875 3.421875 37.71875 1 
Q 33.40625 -1.421875 27.6875 -1.421875 
Q 18.265625 -1.421875 13.375 4.4375 
Q 8.5 10.296875 8.5 21.578125 
z
M 31.109375 56 
z
" id="DejaVuSans-117"/>
     <path d="M 52 44.1875 
Q 55.375 50.25 60.0625 53.125 
Q 64.75 56 71.09375 56 
Q 79.640625 56 84.28125 50.015625 
Q 88.921875 44.046875 88.921875 33.015625 
L 88.921875 0 
L 79.890625 0 
L 79.890625 32.71875 
Q 79.890625 40.578125 77.09375 44.375 
Q 74.3125 48.1875 68.609375 48.1875 
Q 61.625 48.1875 57.5625 43.546875 
Q 53.515625 38.921875 53.515625 30.90625 
L 53.515625 0 
L 44.484375 0 
L 44.484375 32.71875 
Q 44.484375 40.625 41.703125 44.40625 
Q 38.921875 48.1875 33.109375 48.1875 
Q 26.21875 48.1875 22.15625 43.53125 
Q 18.109375 38.875 18.109375 30.90625 
L 18.109375 0 
L 9.078125 0 
L 9.078125 54.6875 
L 18.109375 54.6875 
L 18.109375 46.1875 
Q 21.1875 51.21875 25.484375 53.609375 
Q 29.78125 56 35.6875 56 
Q 41.65625 56 45.828125 52.96875 
Q 50 49.953125 52 44.1875 
z
" id="DejaVuSans-109"/>
     <path d="M 9.421875 75.984375 
L 18.40625 75.984375 
L 18.40625 0 
L 9.421875 0 
z
" id="DejaVuSans-108"/>
     <path d="M 45.40625 46.390625 
L 45.40625 75.984375 
L 54.390625 75.984375 
L 54.390625 0 
L 45.40625 0 
L 45.40625 8.203125 
Q 42.578125 3.328125 38.25 0.953125 
Q 33.9375 -1.421875 27.875 -1.421875 
Q 17.96875 -1.421875 11.734375 6.484375 
Q 5.515625 14.40625 5.515625 27.296875 
Q 5.515625 40.1875 11.734375 48.09375 
Q 17.96875 56 27.875 56 
Q 33.9375 56 38.25 53.625 
Q 42.578125 51.265625 45.40625 46.390625 
z
M 14.796875 27.296875 
Q 14.796875 17.390625 18.875 11.75 
Q 22.953125 6.109375 30.078125 6.109375 
Q 37.203125 6.109375 41.296875 11.75 
Q 45.40625 17.390625 45.40625 27.296875 
Q 45.40625 37.203125 41.296875 42.84375 
Q 37.203125 48.484375 30.078125 48.484375 
Q 22.953125 48.484375 18.875 42.84375 
Q 14.796875 37.203125 14.796875 27.296875 
z
" id="DejaVuSans-100"/>
     <path d="M 4.890625 31.390625 
L 31.203125 31.390625 
L 31.203125 23.390625 
L 4.890625 23.390625 
z
" id="DejaVuSans-45"/>
     <path d="M 19.671875 64.796875 
L 19.671875 37.40625 
L 32.078125 37.40625 
Q 38.96875 37.40625 42.71875 40.96875 
Q 46.484375 44.53125 46.484375 51.125 
Q 46.484375 57.671875 42.71875 61.234375 
Q 38.96875 64.796875 32.078125 64.796875 
z
M 9.8125 72.90625 
L 32.078125 72.90625 
Q 44.34375 72.90625 50.609375 67.359375 
Q 56.890625 61.8125 56.890625 51.125 
Q 56.890625 40.328125 50.609375 34.8125 
Q 44.34375 29.296875 32.078125 29.296875 
L 19.671875 29.296875 
L 19.671875 0 
L 9.8125 0 
z
" id="DejaVuSans-80"/>
     <path d="M 9.8125 72.90625 
L 19.671875 72.90625 
L 19.671875 0 
L 9.8125 0 
z
" id="DejaVuSans-73"/>
     <path d="M 31 75.875 
Q 24.46875 64.65625 21.28125 53.65625 
Q 18.109375 42.671875 18.109375 31.390625 
Q 18.109375 20.125 21.3125 9.0625 
Q 24.515625 -2 31 -13.1875 
L 23.1875 -13.1875 
Q 15.875 -1.703125 12.234375 9.375 
Q 8.59375 20.453125 8.59375 31.390625 
Q 8.59375 42.28125 12.203125 53.3125 
Q 15.828125 64.359375 23.1875 75.875 
z
" id="DejaVuSans-40"/>
     <path d="M 18.3125 70.21875 
L 18.3125 54.6875 
L 36.8125 54.6875 
L 36.8125 47.703125 
L 18.3125 47.703125 
L 18.3125 18.015625 
Q 18.3125 11.328125 20.140625 9.421875 
Q 21.96875 7.515625 27.59375 7.515625 
L 36.8125 7.515625 
L 36.8125 0 
L 27.59375 0 
Q 17.1875 0 13.234375 3.875 
Q 9.28125 7.765625 9.28125 18.015625 
L 9.28125 47.703125 
L 2.6875 47.703125 
L 2.6875 54.6875 
L 9.28125 54.6875 
L 9.28125 70.21875 
z
" id="DejaVuSans-116"/>
     <path d="M 8.015625 75.875 
L 15.828125 75.875 
Q 23.140625 64.359375 26.78125 53.3125 
Q 30.421875 42.28125 30.421875 31.390625 
Q 30.421875 20.453125 26.78125 9.375 
Q 23.140625 -1.703125 15.828125 -13.1875 
L 8.015625 -13.1875 
Q 14.5 -2 17.703125 9.0625 
Q 20.90625 20.125 20.90625 31.390625 
Q 20.90625 42.671875 17.703125 53.65625 
Q 14.5 64.65625 8.015625 75.875 
z
" id="DejaVuSans-41"/>
    </defs>
    <g transform="translate(-0.241292 12.118365)scale(0.12 -0.12)">
     <use xlink:href="#DejaVuSans-67"/>
     <use x="69.824219" xlink:href="#DejaVuSans-97"/>
     <use x="131.103516" xlink:href="#DejaVuSans-115"/>
     <use x="183.203125" xlink:href="#DejaVuSans-111"/>
     <use x="244.384766" xlink:href="#DejaVuSans-115"/>
     <use x="296.484375" xlink:href="#DejaVuSans-32"/>
     <use x="328.271484" xlink:href="#DejaVuSans-97"/>
     <use x="389.550781" xlink:href="#DejaVuSans-99"/>
     <use x="444.53125" xlink:href="#DejaVuSans-117"/>
     <use x="507.910156" xlink:href="#DejaVuSans-109"/>
     <use x="605.322266" xlink:href="#DejaVuSans-117"/>
     <use x="668.701172" xlink:href="#DejaVuSans-108"/>
     <use x="696.484375" xlink:href="#DejaVuSans-97"/>
     <use x="757.763672" xlink:href="#DejaVuSans-100"/>
     <use x="821.240234" xlink:href="#DejaVuSans-111"/>
     <use x="882.421875" xlink:href="#DejaVuSans-115"/>
     <use x="934.521484" xlink:href="#DejaVuSans-32"/>
     <use x="966.308594" xlink:href="#DejaVuSans-45"/>
     <use x="1002.392578" xlink:href="#DejaVuSans-32"/>
     <use x="1034.179688" xlink:href="#DejaVuSans-80"/>
     <use x="1094.482422" xlink:href="#DejaVuSans-73"/>
     <use x="1123.974609" xlink:href="#DejaVuSans-32"/>
     <use x="1155.761719" xlink:href="#DejaVuSans-45"/>
     <use x="1191.845703" xlink:href="#DejaVuSans-32"/>
     <use x="1223.632812" xlink:href="#DejaVuSans-40"/>
     <use x="1262.646484" xlink:href="#DejaVuSans-100"/>
     <use x="1326.123047" xlink:href="#DejaVuSans-97"/>
     <use x="1387.402344" xlink:href="#DejaVuSans-116"/>
     <use x="1426.611328" xlink:href="#DejaVuSans-97"/>
     <use x="1487.890625" xlink:href="#DejaVuSans-41"/>
    </g>
   </g>
  </g>
  <g id="axes_2">
   <g id="patch_100">
    <path d="M 221.264656 325.921635 
L 306.85076 325.921635 
L 306.85076 18.118365 
L 221.264656 18.118365 
z
" style="fill:#ffffff;"/>
   </g>
   <g id="patch_101">
    <path clip-path="url(#p8700a77201)" d="M 225.154934 325.921635 
L 225.825671 325.921635 
L 225.825671 325.686365 
L 225.154934 325.686365 
z
" style="fill:#1f77b4;"/>
   </g>
   <g id="patch_102">
    <path clip-path="url(#p8700a77201)" d="M 225.993356 325.921635 
L 226.664093 325.921635 
L 226.664093 325.921635 
L 225.993356 325.921635 
z
" style="fill:#1f77b4;"/>
   </g>
   <g id="patch_103">
    <path clip-path="url(#p8700a77201)" d="M 226.831778 325.921635 
L 227.502515 325.921635 
L 227.502515 325.451096 
L 226.831778 325.451096 
z
" style="fill:#1f77b4;"/>
   </g>
   <g id="patch_104">
    <path clip-path="url(#p8700a77201)" d="M 227.670199 325.921635 
L 228.340937 325.921635 
L 228.340937 325.921635 
L 227.670199 325.921635 
z
" style="fill:#1f77b4;"/>
   </g>
   <g id="patch_105">
    <path clip-path="url(#p8700a77201)" d="M 228.508621 325.921635 
L 229.179359 325.921635 
L 229.179359 325.451096 
L 228.508621 325.451096 
z
" style="fill:#1f77b4;"/>
   </g>
   <g id="patch_106">
    <path clip-path="url(#p8700a77201)" d="M 229.347043 325.921635 
L 230.017781 325.921635 
L 230.017781 325.686365 
L 229.347043 325.686365 
z
" style="fill:#1f77b4;"/>
   </g>
   <g id="patch_107">
    <path clip-path="url(#p8700a77201)" d="M 230.185465 325.921635 
L 230.856203 325.921635 
L 230.856203 325.921635 
L 230.185465 325.921635 
z
" style="fill:#1f77b4;"/>
   </g>
   <g id="patch_108">
    <path clip-path="url(#p8700a77201)" d="M 231.023887 325.921635 
L 231.694624 325.921635 
L 231.694624 325.451096 
L 231.023887 325.451096 
z
" style="fill:#1f77b4;"/>
   </g>
   <g id="patch_109">
    <path clip-path="url(#p8700a77201)" d="M 231.862309 325.921635 
L 232.533046 325.921635 
L 232.533046 325.215826 
L 231.862309 325.215826 
z
" style="fill:#1f77b4;"/>
   </g>
   <g id="patch_110">
    <path clip-path="url(#p8700a77201)" d="M 232.700731 325.921635 
L 233.371468 325.921635 
L 233.371468 325.451096 
L 232.700731 325.451096 
z
" style="fill:#1f77b4;"/>
   </g>
   <g id="patch_111">
    <path clip-path="url(#p8700a77201)" d="M 233.539153 325.921635 
L 234.20989 325.921635 
L 234.20989 325.451096 
L 233.539153 325.451096 
z
" style="fill:#1f77b4;"/>
   </g>
   <g id="patch_112">
    <path clip-path="url(#p8700a77201)" d="M 234.377574 325.921635 
L 235.048312 325.921635 
L 235.048312 325.921635 
L 234.377574 325.921635 
z
" style="fill:#1f77b4;"/>
   </g>
   <g id="patch_113">
    <path clip-path="url(#p8700a77201)" d="M 235.215996 325.921635 
L 235.886734 325.921635 
L 235.886734 325.686365 
L 235.215996 325.686365 
z
" style="fill:#1f77b4;"/>
   </g>
   <g id="patch_114">
    <path clip-path="url(#p8700a77201)" d="M 236.054418 325.921635 
L 236.725156 325.921635 
L 236.725156 325.451096 
L 236.054418 325.451096 
z
" style="fill:#1f77b4;"/>
   </g>
   <g id="patch_115">
    <path clip-path="url(#p8700a77201)" d="M 236.89284 325.921635 
L 237.563577 325.921635 
L 237.563577 325.686365 
L 236.89284 325.686365 
z
" style="fill:#1f77b4;"/>
   </g>
   <g id="patch_116">
    <path clip-path="url(#p8700a77201)" d="M 237.731262 325.921635 
L 238.401999 325.921635 
L 238.401999 325.686365 
L 237.731262 325.686365 
z
" style="fill:#1f77b4;"/>
   </g>
   <g id="patch_117">
    <path clip-path="url(#p8700a77201)" d="M 238.569684 325.921635 
L 239.240421 325.921635 
L 239.240421 325.921635 
L 238.569684 325.921635 
z
" style="fill:#1f77b4;"/>
   </g>
   <g id="patch_118">
    <path clip-path="url(#p8700a77201)" d="M 239.408106 325.921635 
L 240.078843 325.921635 
L 240.078843 324.745287 
L 239.408106 324.745287 
z
" style="fill:#1f77b4;"/>
   </g>
   <g id="patch_119">
    <path clip-path="url(#p8700a77201)" d="M 240.246527 325.921635 
L 240.917265 325.921635 
L 240.917265 325.215826 
L 240.246527 325.215826 
z
" style="fill:#1f77b4;"/>
   </g>
   <g id="patch_120">
    <path clip-path="url(#p8700a77201)" d="M 241.084949 325.921635 
L 241.755687 325.921635 
L 241.755687 324.274748 
L 241.084949 324.274748 
z
" style="fill:#1f77b4;"/>
   </g>
   <g id="patch_121">
    <path clip-path="url(#p8700a77201)" d="M 241.923371 325.921635 
L 242.594109 325.921635 
L 242.594109 325.451096 
L 241.923371 325.451096 
z
" style="fill:#1f77b4;"/>
   </g>
   <g id="patch_122">
    <path clip-path="url(#p8700a77201)" d="M 242.761793 325.921635 
L 243.43253 325.921635 
L 243.43253 325.686365 
L 242.761793 325.686365 
z
" style="fill:#1f77b4;"/>
   </g>
   <g id="patch_123">
    <path clip-path="url(#p8700a77201)" d="M 243.600215 325.921635 
L 244.270952 325.921635 
L 244.270952 325.215826 
L 243.600215 325.215826 
z
" style="fill:#1f77b4;"/>
   </g>
   <g id="patch_124">
    <path clip-path="url(#p8700a77201)" d="M 244.438637 325.921635 
L 245.109374 325.921635 
L 245.109374 324.510017 
L 244.438637 324.510017 
z
" style="fill:#1f77b4;"/>
   </g>
   <g id="patch_125">
    <path clip-path="url(#p8700a77201)" d="M 245.277059 325.921635 
L 245.947796 325.921635 
L 245.947796 324.039478 
L 245.277059 324.039478 
z
" style="fill:#1f77b4;"/>
   </g>
   <g id="patch_126">
    <path clip-path="url(#p8700a77201)" d="M 246.11548 325.921635 
L 246.786218 325.921635 
L 246.786218 321.922051 
L 246.11548 321.922051 
z
" style="fill:#1f77b4;"/>
   </g>
   <g id="patch_127">
    <path clip-path="url(#p8700a77201)" d="M 246.953902 325.921635 
L 247.62464 325.921635 
L 247.62464 322.157321 
L 246.953902 322.157321 
z
" style="fill:#1f77b4;"/>
   </g>
   <g id="patch_128">
    <path clip-path="url(#p8700a77201)" d="M 247.792324 325.921635 
L 248.463062 325.921635 
L 248.463062 323.333669 
L 247.792324 323.333669 
z
" style="fill:#1f77b4;"/>
   </g>
   <g id="patch_129">
    <path clip-path="url(#p8700a77201)" d="M 248.630746 325.921635 
L 249.301483 325.921635 
L 249.301483 320.980973 
L 248.630746 320.980973 
z
" style="fill:#1f77b4;"/>
   </g>
   <g id="patch_130">
    <path clip-path="url(#p8700a77201)" d="M 249.469168 325.921635 
L 250.139905 325.921635 
L 250.139905 320.745703 
L 249.469168 320.745703 
z
" style="fill:#1f77b4;"/>
   </g>
   <g id="patch_131">
    <path clip-path="url(#p8700a77201)" d="M 250.30759 325.921635 
L 250.978327 325.921635 
L 250.978327 322.86313 
L 250.30759 322.86313 
z
" style="fill:#1f77b4;"/>
   </g>
   <g id="patch_132">
    <path clip-path="url(#p8700a77201)" d="M 251.146012 325.921635 
L 251.816749 325.921635 
L 251.816749 319.334085 
L 251.146012 319.334085 
z
" style="fill:#1f77b4;"/>
   </g>
   <g id="patch_133">
    <path clip-path="url(#p8700a77201)" d="M 251.984433 325.921635 
L 252.655171 325.921635 
L 252.655171 321.216242 
L 251.984433 321.216242 
z
" style="fill:#1f77b4;"/>
   </g>
   <g id="patch_134">
    <path clip-path="url(#p8700a77201)" d="M 252.822855 325.921635 
L 253.493593 325.921635 
L 253.493593 323.333669 
L 252.822855 323.333669 
z
" style="fill:#1f77b4;"/>
   </g>
   <g id="patch_135">
    <path clip-path="url(#p8700a77201)" d="M 253.661277 325.921635 
L 254.332015 325.921635 
L 254.332015 316.746119 
L 253.661277 316.746119 
z
" style="fill:#1f77b4;"/>
   </g>
   <g id="patch_136">
    <path clip-path="url(#p8700a77201)" d="M 254.499699 325.921635 
L 255.170437 325.921635 
L 255.170437 316.27558 
L 254.499699 316.27558 
z
" style="fill:#1f77b4;"/>
   </g>
   <g id="patch_137">
    <path clip-path="url(#p8700a77201)" d="M 255.338121 325.921635 
L 256.008858 325.921635 
L 256.008858 317.922467 
L 255.338121 317.922467 
z
" style="fill:#1f77b4;"/>
   </g>
   <g id="patch_138">
    <path clip-path="url(#p8700a77201)" d="M 256.176543 325.921635 
L 256.84728 325.921635 
L 256.84728 318.157737 
L 256.176543 318.157737 
z
" style="fill:#1f77b4;"/>
   </g>
   <g id="patch_139">
    <path clip-path="url(#p8700a77201)" d="M 257.014965 325.921635 
L 257.685702 325.921635 
L 257.685702 315.569771 
L 257.014965 315.569771 
z
" style="fill:#1f77b4;"/>
   </g>
   <g id="patch_140">
    <path clip-path="url(#p8700a77201)" d="M 257.853386 325.921635 
L 258.524124 325.921635 
L 258.524124 315.099232 
L 257.853386 315.099232 
z
" style="fill:#1f77b4;"/>
   </g>
   <g id="patch_141">
    <path clip-path="url(#p8700a77201)" d="M 258.691808 325.921635 
L 259.362546 325.921635 
L 259.362546 312.040726 
L 258.691808 312.040726 
z
" style="fill:#1f77b4;"/>
   </g>
   <g id="patch_142">
    <path clip-path="url(#p8700a77201)" d="M 259.53023 325.921635 
L 260.200968 325.921635 
L 260.200968 305.453176 
L 259.53023 305.453176 
z
" style="fill:#1f77b4;"/>
   </g>
   <g id="patch_143">
    <path clip-path="url(#p8700a77201)" d="M 260.368652 325.921635 
L 261.03939 325.921635 
L 261.03939 310.629108 
L 260.368652 310.629108 
z
" style="fill:#1f77b4;"/>
   </g>
   <g id="patch_144">
    <path clip-path="url(#p8700a77201)" d="M 261.207074 325.921635 
L 261.877811 325.921635 
L 261.877811 307.805873 
L 261.207074 307.805873 
z
" style="fill:#1f77b4;"/>
   </g>
   <g id="patch_145">
    <path clip-path="url(#p8700a77201)" d="M 262.045496 325.921635 
L 262.716233 325.921635 
L 262.716233 316.04031 
L 262.045496 316.04031 
z
" style="fill:#1f77b4;"/>
   </g>
   <g id="patch_146">
    <path clip-path="url(#p8700a77201)" d="M 262.883918 325.921635 
L 263.554655 325.921635 
L 263.554655 304.512098 
L 262.883918 304.512098 
z
" style="fill:#1f77b4;"/>
   </g>
   <g id="patch_147">
    <path clip-path="url(#p8700a77201)" d="M 263.722339 325.921635 
L 264.393077 325.921635 
L 264.393077 308.511682 
L 263.722339 308.511682 
z
" style="fill:#1f77b4;"/>
   </g>
   <g id="patch_148">
    <path clip-path="url(#p8700a77201)" d="M 264.560761 325.921635 
L 265.231499 325.921635 
L 265.231499 301.924132 
L 264.560761 301.924132 
z
" style="fill:#1f77b4;"/>
   </g>
   <g id="patch_149">
    <path clip-path="url(#p8700a77201)" d="M 265.399183 325.921635 
L 266.069921 325.921635 
L 266.069921 307.100064 
L 265.399183 307.100064 
z
" style="fill:#1f77b4;"/>
   </g>
   <g id="patch_150">
    <path clip-path="url(#p8700a77201)" d="M 266.237605 325.921635 
L 266.908343 325.921635 
L 266.908343 301.924132 
L 266.237605 301.924132 
z
" style="fill:#1f77b4;"/>
   </g>
   <g id="patch_151">
    <path clip-path="url(#p8700a77201)" d="M 267.076027 325.921635 
L 267.746764 325.921635 
L 267.746764 315.334501 
L 267.076027 315.334501 
z
" style="fill:#1f77b4;"/>
   </g>
   <g id="patch_152">
    <path clip-path="url(#p8700a77201)" d="M 267.914449 325.921635 
L 268.585186 325.921635 
L 268.585186 313.217074 
L 267.914449 313.217074 
z
" style="fill:#1f77b4;"/>
   </g>
   <g id="patch_153">
    <path clip-path="url(#p8700a77201)" d="M 268.752871 325.921635 
L 269.423608 325.921635 
L 269.423608 299.806705 
L 268.752871 299.806705 
z
" style="fill:#1f77b4;"/>
   </g>
   <g id="patch_154">
    <path clip-path="url(#p8700a77201)" d="M 269.591293 325.921635 
L 270.26203 325.921635 
L 270.26203 286.161066 
L 269.591293 286.161066 
z
" style="fill:#1f77b4;"/>
   </g>
   <g id="patch_155">
    <path clip-path="url(#p8700a77201)" d="M 270.429714 325.921635 
L 271.100452 325.921635 
L 271.100452 285.455257 
L 270.429714 285.455257 
z
" style="fill:#1f77b4;"/>
   </g>
   <g id="patch_156">
    <path clip-path="url(#p8700a77201)" d="M 271.268136 325.921635 
L 271.938874 325.921635 
L 271.938874 297.454009 
L 271.268136 297.454009 
z
" style="fill:#1f77b4;"/>
   </g>
   <g id="patch_157">
    <path clip-path="url(#p8700a77201)" d="M 272.106558 325.921635 
L 272.777296 325.921635 
L 272.777296 283.5731 
L 272.106558 283.5731 
z
" style="fill:#1f77b4;"/>
   </g>
   <g id="patch_158">
    <path clip-path="url(#p8700a77201)" d="M 272.94498 325.921635 
L 273.615717 325.921635 
L 273.615717 286.631605 
L 272.94498 286.631605 
z
" style="fill:#1f77b4;"/>
   </g>
   <g id="patch_159">
    <path clip-path="url(#p8700a77201)" d="M 273.783402 325.921635 
L 274.454139 325.921635 
L 274.454139 317.687198 
L 273.783402 317.687198 
z
" style="fill:#1f77b4;"/>
   </g>
   <g id="patch_160">
    <path clip-path="url(#p8700a77201)" d="M 274.621824 325.921635 
L 275.292561 325.921635 
L 275.292561 289.92538 
L 274.621824 289.92538 
z
" style="fill:#1f77b4;"/>
   </g>
   <g id="patch_161">
    <path clip-path="url(#p8700a77201)" d="M 275.460246 325.921635 
L 276.130983 325.921635 
L 276.130983 279.573516 
L 275.460246 279.573516 
z
" style="fill:#1f77b4;"/>
   </g>
   <g id="patch_162">
    <path clip-path="url(#p8700a77201)" d="M 276.298667 325.921635 
L 276.969405 325.921635 
L 276.969405 275.338662 
L 276.298667 275.338662 
z
" style="fill:#1f77b4;"/>
   </g>
   <g id="patch_163">
    <path clip-path="url(#p8700a77201)" d="M 277.137089 325.921635 
L 277.807827 325.921635 
L 277.807827 273.691775 
L 277.137089 273.691775 
z
" style="fill:#1f77b4;"/>
   </g>
   <g id="patch_164">
    <path clip-path="url(#p8700a77201)" d="M 277.975511 325.921635 
L 278.646249 325.921635 
L 278.646249 282.632021 
L 277.975511 282.632021 
z
" style="fill:#1f77b4;"/>
   </g>
   <g id="patch_165">
    <path clip-path="url(#p8700a77201)" d="M 278.813933 325.921635 
L 279.48467 325.921635 
L 279.48467 294.866043 
L 278.813933 294.866043 
z
" style="fill:#1f77b4;"/>
   </g>
   <g id="patch_166">
    <path clip-path="url(#p8700a77201)" d="M 279.652355 325.921635 
L 280.323092 325.921635 
L 280.323092 288.278493 
L 279.652355 288.278493 
z
" style="fill:#1f77b4;"/>
   </g>
   <g id="patch_167">
    <path clip-path="url(#p8700a77201)" d="M 280.490777 325.921635 
L 281.161514 325.921635 
L 281.161514 285.925796 
L 280.490777 285.925796 
z
" style="fill:#1f77b4;"/>
   </g>
   <g id="patch_168">
    <path clip-path="url(#p8700a77201)" d="M 281.329199 325.921635 
L 281.999936 325.921635 
L 281.999936 268.045304 
L 281.329199 268.045304 
z
" style="fill:#1f77b4;"/>
   </g>
   <g id="patch_169">
    <path clip-path="url(#p8700a77201)" d="M 282.16762 325.921635 
L 282.838358 325.921635 
L 282.838358 260.751945 
L 282.16762 260.751945 
z
" style="fill:#1f77b4;"/>
   </g>
   <g id="patch_170">
    <path clip-path="url(#p8700a77201)" d="M 283.006042 325.921635 
L 283.67678 325.921635 
L 283.67678 264.751529 
L 283.006042 264.751529 
z
" style="fill:#1f77b4;"/>
   </g>
   <g id="patch_171">
    <path clip-path="url(#p8700a77201)" d="M 283.844464 325.921635 
L 284.515202 325.921635 
L 284.515202 268.986382 
L 283.844464 268.986382 
z
" style="fill:#1f77b4;"/>
   </g>
   <g id="patch_172">
    <path clip-path="url(#p8700a77201)" d="M 284.682886 325.921635 
L 285.353623 325.921635 
L 285.353623 282.161482 
L 284.682886 282.161482 
z
" style="fill:#1f77b4;"/>
   </g>
   <g id="patch_173">
    <path clip-path="url(#p8700a77201)" d="M 285.521308 325.921635 
L 286.192045 325.921635 
L 286.192045 281.690943 
L 285.521308 281.690943 
z
" style="fill:#1f77b4;"/>
   </g>
   <g id="patch_174">
    <path clip-path="url(#p8700a77201)" d="M 286.35973 325.921635 
L 287.030467 325.921635 
L 287.030467 234.872284 
L 286.35973 234.872284 
z
" style="fill:#1f77b4;"/>
   </g>
   <g id="patch_175">
    <path clip-path="url(#p8700a77201)" d="M 287.198152 325.921635 
L 287.868889 325.921635 
L 287.868889 250.164811 
L 287.198152 250.164811 
z
" style="fill:#1f77b4;"/>
   </g>
   <g id="patch_176">
    <path clip-path="url(#p8700a77201)" d="M 288.036573 325.921635 
L 288.707311 325.921635 
L 288.707311 270.398 
L 288.036573 270.398 
z
" style="fill:#1f77b4;"/>
   </g>
   <g id="patch_177">
    <path clip-path="url(#p8700a77201)" d="M 288.874995 325.921635 
L 289.545733 325.921635 
L 289.545733 172.29056 
L 288.874995 172.29056 
z
" style="fill:#1f77b4;"/>
   </g>
   <g id="patch_178">
    <path clip-path="url(#p8700a77201)" d="M 289.713417 325.921635 
L 290.384155 325.921635 
L 290.384155 234.637015 
L 289.713417 234.637015 
z
" style="fill:#1f77b4;"/>
   </g>
   <g id="patch_179">
    <path clip-path="url(#p8700a77201)" d="M 290.551839 325.921635 
L 291.222577 325.921635 
L 291.222577 238.166059 
L 290.551839 238.166059 
z
" style="fill:#1f77b4;"/>
   </g>
   <g id="patch_180">
    <path clip-path="url(#p8700a77201)" d="M 291.390261 325.921635 
L 292.060998 325.921635 
L 292.060998 292.278076 
L 291.390261 292.278076 
z
" style="fill:#1f77b4;"/>
   </g>
   <g id="patch_181">
    <path clip-path="url(#p8700a77201)" d="M 292.228683 325.921635 
L 292.89942 325.921635 
L 292.89942 253.929125 
L 292.228683 253.929125 
z
" style="fill:#1f77b4;"/>
   </g>
   <g id="patch_182">
    <path clip-path="url(#p8700a77201)" d="M 293.067105 325.921635 
L 293.737842 325.921635 
L 293.737842 224.285151 
L 293.067105 224.285151 
z
" style="fill:#1f77b4;"/>
   </g>
   <g id="patch_183">
    <path clip-path="url(#p8700a77201)" d="M 293.905526 325.921635 
L 294.576264 325.921635 
L 294.576264 216.756522 
L 293.905526 216.756522 
z
" style="fill:#1f77b4;"/>
   </g>
   <g id="patch_184">
    <path clip-path="url(#p8700a77201)" d="M 294.743948 325.921635 
L 295.414686 325.921635 
L 295.414686 204.99304 
L 294.743948 204.99304 
z
" style="fill:#1f77b4;"/>
   </g>
   <g id="patch_185">
    <path clip-path="url(#p8700a77201)" d="M 295.58237 325.921635 
L 296.253108 325.921635 
L 296.253108 211.110051 
L 295.58237 211.110051 
z
" style="fill:#1f77b4;"/>
   </g>
   <g id="patch_186">
    <path clip-path="url(#p8700a77201)" d="M 296.420792 325.921635 
L 297.09153 325.921635 
L 297.09153 248.753193 
L 296.420792 248.753193 
z
" style="fill:#1f77b4;"/>
   </g>
   <g id="patch_187">
    <path clip-path="url(#p8700a77201)" d="M 297.259214 325.921635 
L 297.929951 325.921635 
L 297.929951 277.926628 
L 297.259214 277.926628 
z
" style="fill:#1f77b4;"/>
   </g>
   <g id="patch_188">
    <path clip-path="url(#p8700a77201)" d="M 298.097636 325.921635 
L 298.768373 325.921635 
L 298.768373 202.640344 
L 298.097636 202.640344 
z
" style="fill:#1f77b4;"/>
   </g>
   <g id="patch_189">
    <path clip-path="url(#p8700a77201)" d="M 298.936058 325.921635 
L 299.606795 325.921635 
L 299.606795 166.408819 
L 298.936058 166.408819 
z
" style="fill:#1f77b4;"/>
   </g>
   <g id="patch_190">
    <path clip-path="url(#p8700a77201)" d="M 299.774479 325.921635 
L 300.445217 325.921635 
L 300.445217 198.876029 
L 299.774479 198.876029 
z
" style="fill:#1f77b4;"/>
   </g>
   <g id="patch_191">
    <path clip-path="url(#p8700a77201)" d="M 300.612901 325.921635 
L 301.283639 325.921635 
L 301.283639 215.815443 
L 300.612901 215.815443 
z
" style="fill:#1f77b4;"/>
   </g>
   <g id="patch_192">
    <path clip-path="url(#p8700a77201)" d="M 301.451323 325.921635 
L 302.122061 325.921635 
L 302.122061 32.775664 
L 301.451323 32.775664 
z
" style="fill:#1f77b4;"/>
   </g>
   <g id="patch_193">
    <path clip-path="url(#p8700a77201)" d="M 302.289745 325.921635 
L 302.960483 325.921635 
L 302.960483 219.815027 
L 302.289745 219.815027 
z
" style="fill:#1f77b4;"/>
   </g>
   <g id="matplotlib.axis_3">
    <g id="xtick_3">
     <g id="line2d_12">
      <g>
       <use style="stroke:#000000;stroke-width:0.8;" x="225.490303" xlink:href="#mf8ae0bddb2" y="325.921635"/>
      </g>
     </g>
     <g id="text_12">
      <!-- 0 -->
      <g transform="translate(222.309053 340.520072)scale(0.1 -0.1)">
       <use xlink:href="#DejaVuSans-48"/>
      </g>
     </g>
    </g>
    <g id="xtick_4">
     <g id="line2d_13">
      <g>
       <use style="stroke:#000000;stroke-width:0.8;" x="267.411396" xlink:href="#mf8ae0bddb2" y="325.921635"/>
      </g>
     </g>
     <g id="text_13">
      <!-- 50 -->
      <g transform="translate(261.048896 340.520072)scale(0.1 -0.1)">
       <use xlink:href="#DejaVuSans-53"/>
       <use x="63.623047" xlink:href="#DejaVuSans-48"/>
      </g>
     </g>
    </g>
   </g>
   <g id="matplotlib.axis_4">
    <g id="ytick_9">
     <g id="line2d_14">
      <g>
       <use style="stroke:#000000;stroke-width:0.8;" x="221.264656" xlink:href="#md6e36bc5a6" y="325.921635"/>
      </g>
     </g>
     <g id="text_14">
      <!-- 0 -->
      <g transform="translate(207.902156 329.720854)scale(0.1 -0.1)">
       <use xlink:href="#DejaVuSans-48"/>
      </g>
     </g>
    </g>
    <g id="ytick_10">
     <g id="line2d_15">
      <g>
       <use style="stroke:#000000;stroke-width:0.8;" x="221.264656" xlink:href="#md6e36bc5a6" y="278.867707"/>
      </g>
     </g>
     <g id="text_15">
      <!-- 200 -->
      <g transform="translate(195.177156 282.666926)scale(0.1 -0.1)">
       <use xlink:href="#DejaVuSans-50"/>
       <use x="63.623047" xlink:href="#DejaVuSans-48"/>
       <use x="127.246094" xlink:href="#DejaVuSans-48"/>
      </g>
     </g>
    </g>
    <g id="ytick_11">
     <g id="line2d_16">
      <g>
       <use style="stroke:#000000;stroke-width:0.8;" x="221.264656" xlink:href="#md6e36bc5a6" y="231.813779"/>
      </g>
     </g>
     <g id="text_16">
      <!-- 400 -->
      <g transform="translate(195.177156 235.612998)scale(0.1 -0.1)">
       <use xlink:href="#DejaVuSans-52"/>
       <use x="63.623047" xlink:href="#DejaVuSans-48"/>
       <use x="127.246094" xlink:href="#DejaVuSans-48"/>
      </g>
     </g>
    </g>
    <g id="ytick_12">
     <g id="line2d_17">
      <g>
       <use style="stroke:#000000;stroke-width:0.8;" x="221.264656" xlink:href="#md6e36bc5a6" y="184.759851"/>
      </g>
     </g>
     <g id="text_17">
      <!-- 600 -->
      <g transform="translate(195.177156 188.55907)scale(0.1 -0.1)">
       <use xlink:href="#DejaVuSans-54"/>
       <use x="63.623047" xlink:href="#DejaVuSans-48"/>
       <use x="127.246094" xlink:href="#DejaVuSans-48"/>
      </g>
     </g>
    </g>
    <g id="ytick_13">
     <g id="line2d_18">
      <g>
       <use style="stroke:#000000;stroke-width:0.8;" x="221.264656" xlink:href="#md6e36bc5a6" y="137.705923"/>
      </g>
     </g>
     <g id="text_18">
      <!-- 800 -->
      <g transform="translate(195.177156 141.505142)scale(0.1 -0.1)">
       <use xlink:href="#DejaVuSans-56"/>
       <use x="63.623047" xlink:href="#DejaVuSans-48"/>
       <use x="127.246094" xlink:href="#DejaVuSans-48"/>
      </g>
     </g>
    </g>
    <g id="ytick_14">
     <g id="line2d_19">
      <g>
       <use style="stroke:#000000;stroke-width:0.8;" x="221.264656" xlink:href="#md6e36bc5a6" y="90.651995"/>
      </g>
     </g>
     <g id="text_19">
      <!-- 1000 -->
      <g transform="translate(188.814656 94.451214)scale(0.1 -0.1)">
       <use xlink:href="#DejaVuSans-49"/>
       <use x="63.623047" xlink:href="#DejaVuSans-48"/>
       <use x="127.246094" xlink:href="#DejaVuSans-48"/>
       <use x="190.869141" xlink:href="#DejaVuSans-48"/>
      </g>
     </g>
    </g>
    <g id="ytick_15">
     <g id="line2d_20">
      <g>
       <use style="stroke:#000000;stroke-width:0.8;" x="221.264656" xlink:href="#md6e36bc5a6" y="43.598067"/>
      </g>
     </g>
     <g id="text_20">
      <!-- 1200 -->
      <g transform="translate(188.814656 47.397286)scale(0.1 -0.1)">
       <use xlink:href="#DejaVuSans-49"/>
       <use x="63.623047" xlink:href="#DejaVuSans-50"/>
       <use x="127.246094" xlink:href="#DejaVuSans-48"/>
       <use x="190.869141" xlink:href="#DejaVuSans-48"/>
      </g>
     </g>
    </g>
   </g>
   <g id="line2d_21">
    <path clip-path="url(#p8700a77201)" d="M 225.490303 325.787979 
L 226.328725 325.747608 
L 227.167146 325.704003 
L 228.005568 325.673725 
L 228.84399 325.647464 
L 229.682412 325.626593 
L 230.520834 325.611208 
L 231.359256 325.597784 
L 232.197678 325.586221 
L 233.036099 325.575835 
L 233.874521 325.564272 
L 234.712943 325.548594 
L 235.551365 325.525861 
L 236.389787 325.493427 
L 237.228209 325.449626 
L 238.066631 325.391029 
L 238.905052 325.312638 
L 239.743474 325.209065 
L 240.581896 325.076585 
L 241.420318 324.909711 
L 242.25874 324.7057 
L 243.097162 324.463179 
L 243.935584 324.180875 
L 244.774005 323.861335 
L 245.612427 323.510734 
L 246.450849 323.133381 
L 247.289271 322.737313 
L 248.127693 322.325077 
L 248.966115 321.890989 
L 249.804537 321.430248 
L 250.642958 320.935702 
L 251.48138 320.394121 
L 252.319802 319.795805 
L 253.158224 319.125566 
L 253.996646 318.373605 
L 254.835068 317.542371 
L 255.67349 316.641762 
L 256.511911 315.681183 
L 257.350333 314.684154 
L 258.188755 313.670466 
L 259.027177 312.669027 
L 259.865599 311.700315 
L 260.704021 310.775993 
L 261.542443 309.890277 
L 262.380865 309.035526 
L 263.219286 308.171271 
L 264.057708 307.261744 
L 264.89613 306.260697 
L 265.734552 305.141378 
L 266.572974 303.885463 
L 267.411396 302.483546 
L 268.249818 300.940232 
L 269.088239 299.31304 
L 269.926661 297.63901 
L 270.765083 295.964588 
L 271.603505 294.314467 
L 272.441927 292.703541 
L 273.280349 291.159933 
L 274.118771 289.687955 
L 274.957192 288.237338 
L 275.795614 286.798577 
L 276.634036 285.335515 
L 277.472458 283.82003 
L 278.31088 282.24046 
L 279.149302 280.532134 
L 279.987724 278.63959 
L 280.826145 276.527161 
L 281.664567 274.133212 
L 282.502989 271.466953 
L 283.341411 268.537498 
L 284.179833 265.305554 
L 285.018255 261.859701 
L 285.856677 258.304984 
L 286.695098 254.786522 
L 287.53352 251.434248 
L 288.371942 248.270797 
L 289.210364 245.309496 
L 290.048786 242.641376 
L 290.887208 240.209309 
L 291.72563 237.874054 
L 292.564051 235.42141 
L 293.402473 232.645209 
L 294.240895 229.377695 
L 295.079317 225.520782 
L 295.917739 220.976187 
L 296.756161 215.640731 
L 297.594583 209.641208 
L 298.433005 203.515868 
L 299.271426 197.380044 
L 300.109848 191.515059 
L 300.94827 187.764659 
L 301.786692 184.31665 
L 302.625114 181.417768 
" style="fill:none;stroke:#ff0000;stroke-linecap:square;stroke-width:1.5;"/>
   </g>
   <g id="patch_194">
    <path d="M 221.264656 325.921635 
L 221.264656 18.118365 
" style="fill:none;stroke:#000000;stroke-linecap:square;stroke-linejoin:miter;stroke-width:0.8;"/>
   </g>
   <g id="patch_195">
    <path d="M 306.85076 325.921635 
L 306.85076 18.118365 
" style="fill:none;stroke:#000000;stroke-linecap:square;stroke-linejoin:miter;stroke-width:0.8;"/>
   </g>
   <g id="patch_196">
    <path d="M 221.264656 325.921635 
L 306.85076 325.921635 
" style="fill:none;stroke:#000000;stroke-linecap:square;stroke-linejoin:miter;stroke-width:0.8;"/>
   </g>
   <g id="patch_197">
    <path d="M 221.264656 18.118365 
L 306.85076 18.118365 
" style="fill:none;stroke:#000000;stroke-linecap:square;stroke-linejoin:miter;stroke-width:0.8;"/>
   </g>
   <g id="text_21">
    <!-- Casos novos - PI - (data) -->
    <defs>
     <path d="M 54.890625 33.015625 
L 54.890625 0 
L 45.90625 0 
L 45.90625 32.71875 
Q 45.90625 40.484375 42.875 44.328125 
Q 39.84375 48.1875 33.796875 48.1875 
Q 26.515625 48.1875 22.3125 43.546875 
Q 18.109375 38.921875 18.109375 30.90625 
L 18.109375 0 
L 9.078125 0 
L 9.078125 54.6875 
L 18.109375 54.6875 
L 18.109375 46.1875 
Q 21.34375 51.125 25.703125 53.5625 
Q 30.078125 56 35.796875 56 
Q 45.21875 56 50.046875 50.171875 
Q 54.890625 44.34375 54.890625 33.015625 
z
" id="DejaVuSans-110"/>
     <path d="M 2.984375 54.6875 
L 12.5 54.6875 
L 29.59375 8.796875 
L 46.6875 54.6875 
L 56.203125 54.6875 
L 35.6875 0 
L 23.484375 0 
z
" id="DejaVuSans-118"/>
    </defs>
    <g transform="translate(190.998333 12.118365)scale(0.12 -0.12)">
     <use xlink:href="#DejaVuSans-67"/>
     <use x="69.824219" xlink:href="#DejaVuSans-97"/>
     <use x="131.103516" xlink:href="#DejaVuSans-115"/>
     <use x="183.203125" xlink:href="#DejaVuSans-111"/>
     <use x="244.384766" xlink:href="#DejaVuSans-115"/>
     <use x="296.484375" xlink:href="#DejaVuSans-32"/>
     <use x="328.271484" xlink:href="#DejaVuSans-110"/>
     <use x="391.650391" xlink:href="#DejaVuSans-111"/>
     <use x="452.832031" xlink:href="#DejaVuSans-118"/>
     <use x="512.011719" xlink:href="#DejaVuSans-111"/>
     <use x="573.193359" xlink:href="#DejaVuSans-115"/>
     <use x="625.292969" xlink:href="#DejaVuSans-32"/>
     <use x="657.080078" xlink:href="#DejaVuSans-45"/>
     <use x="693.164062" xlink:href="#DejaVuSans-32"/>
     <use x="724.951172" xlink:href="#DejaVuSans-80"/>
     <use x="785.253906" xlink:href="#DejaVuSans-73"/>
     <use x="814.746094" xlink:href="#DejaVuSans-32"/>
     <use x="846.533203" xlink:href="#DejaVuSans-45"/>
     <use x="882.617188" xlink:href="#DejaVuSans-32"/>
     <use x="914.404297" xlink:href="#DejaVuSans-40"/>
     <use x="953.417969" xlink:href="#DejaVuSans-100"/>
     <use x="1016.894531" xlink:href="#DejaVuSans-97"/>
     <use x="1078.173828" xlink:href="#DejaVuSans-116"/>
     <use x="1117.382812" xlink:href="#DejaVuSans-97"/>
     <use x="1178.662109" xlink:href="#DejaVuSans-41"/>
    </g>
   </g>
  </g>
  <g id="axes_3">
   <g id="patch_198">
    <path d="M 372.213656 325.921635 
L 457.79976 325.921635 
L 457.79976 18.118365 
L 372.213656 18.118365 
z
" style="fill:#ffffff;"/>
   </g>
   <g id="matplotlib.axis_5">
    <g id="xtick_5">
     <g id="line2d_22">
      <g>
       <use style="stroke:#000000;stroke-width:0.8;" x="376.103934" xlink:href="#mf8ae0bddb2" y="325.921635"/>
      </g>
     </g>
     <g id="text_22">
      <!-- 0 -->
      <g transform="translate(372.922684 340.520072)scale(0.1 -0.1)">
       <use xlink:href="#DejaVuSans-48"/>
      </g>
     </g>
    </g>
    <g id="xtick_6">
     <g id="line2d_23">
      <g>
       <use style="stroke:#000000;stroke-width:0.8;" x="418.389558" xlink:href="#mf8ae0bddb2" y="325.921635"/>
      </g>
     </g>
     <g id="text_23">
      <!-- 50 -->
      <g transform="translate(412.027058 340.520072)scale(0.1 -0.1)">
       <use xlink:href="#DejaVuSans-53"/>
       <use x="63.623047" xlink:href="#DejaVuSans-48"/>
      </g>
     </g>
    </g>
   </g>
   <g id="matplotlib.axis_6">
    <g id="ytick_16">
     <g id="line2d_24">
      <g>
       <use style="stroke:#000000;stroke-width:0.8;" x="372.213656" xlink:href="#md6e36bc5a6" y="306.299054"/>
      </g>
     </g>
     <g id="text_24">
      <!-- 1.25 -->
      <defs>
       <path d="M 10.6875 12.40625 
L 21 12.40625 
L 21 0 
L 10.6875 0 
z
" id="DejaVuSans-46"/>
      </defs>
      <g transform="translate(342.948031 310.098273)scale(0.1 -0.1)">
       <use xlink:href="#DejaVuSans-49"/>
       <use x="63.623047" xlink:href="#DejaVuSans-46"/>
       <use x="95.410156" xlink:href="#DejaVuSans-50"/>
       <use x="159.033203" xlink:href="#DejaVuSans-53"/>
      </g>
     </g>
    </g>
    <g id="ytick_17">
     <g id="line2d_25">
      <g>
       <use style="stroke:#000000;stroke-width:0.8;" x="372.213656" xlink:href="#md6e36bc5a6" y="266.425366"/>
      </g>
     </g>
     <g id="text_25">
      <!-- 1.50 -->
      <g transform="translate(342.948031 270.224584)scale(0.1 -0.1)">
       <use xlink:href="#DejaVuSans-49"/>
       <use x="63.623047" xlink:href="#DejaVuSans-46"/>
       <use x="95.410156" xlink:href="#DejaVuSans-53"/>
       <use x="159.033203" xlink:href="#DejaVuSans-48"/>
      </g>
     </g>
    </g>
    <g id="ytick_18">
     <g id="line2d_26">
      <g>
       <use style="stroke:#000000;stroke-width:0.8;" x="372.213656" xlink:href="#md6e36bc5a6" y="226.551677"/>
      </g>
     </g>
     <g id="text_26">
      <!-- 1.75 -->
      <defs>
       <path d="M 8.203125 72.90625 
L 55.078125 72.90625 
L 55.078125 68.703125 
L 28.609375 0 
L 18.3125 0 
L 43.21875 64.59375 
L 8.203125 64.59375 
z
" id="DejaVuSans-55"/>
      </defs>
      <g transform="translate(342.948031 230.350896)scale(0.1 -0.1)">
       <use xlink:href="#DejaVuSans-49"/>
       <use x="63.623047" xlink:href="#DejaVuSans-46"/>
       <use x="95.410156" xlink:href="#DejaVuSans-55"/>
       <use x="159.033203" xlink:href="#DejaVuSans-53"/>
      </g>
     </g>
    </g>
    <g id="ytick_19">
     <g id="line2d_27">
      <g>
       <use style="stroke:#000000;stroke-width:0.8;" x="372.213656" xlink:href="#md6e36bc5a6" y="186.677988"/>
      </g>
     </g>
     <g id="text_27">
      <!-- 2.00 -->
      <g transform="translate(342.948031 190.477207)scale(0.1 -0.1)">
       <use xlink:href="#DejaVuSans-50"/>
       <use x="63.623047" xlink:href="#DejaVuSans-46"/>
       <use x="95.410156" xlink:href="#DejaVuSans-48"/>
       <use x="159.033203" xlink:href="#DejaVuSans-48"/>
      </g>
     </g>
    </g>
    <g id="ytick_20">
     <g id="line2d_28">
      <g>
       <use style="stroke:#000000;stroke-width:0.8;" x="372.213656" xlink:href="#md6e36bc5a6" y="146.8043"/>
      </g>
     </g>
     <g id="text_28">
      <!-- 2.25 -->
      <g transform="translate(342.948031 150.603519)scale(0.1 -0.1)">
       <use xlink:href="#DejaVuSans-50"/>
       <use x="63.623047" xlink:href="#DejaVuSans-46"/>
       <use x="95.410156" xlink:href="#DejaVuSans-50"/>
       <use x="159.033203" xlink:href="#DejaVuSans-53"/>
      </g>
     </g>
    </g>
    <g id="ytick_21">
     <g id="line2d_29">
      <g>
       <use style="stroke:#000000;stroke-width:0.8;" x="372.213656" xlink:href="#md6e36bc5a6" y="106.930611"/>
      </g>
     </g>
     <g id="text_29">
      <!-- 2.50 -->
      <g transform="translate(342.948031 110.72983)scale(0.1 -0.1)">
       <use xlink:href="#DejaVuSans-50"/>
       <use x="63.623047" xlink:href="#DejaVuSans-46"/>
       <use x="95.410156" xlink:href="#DejaVuSans-53"/>
       <use x="159.033203" xlink:href="#DejaVuSans-48"/>
      </g>
     </g>
    </g>
    <g id="ytick_22">
     <g id="line2d_30">
      <g>
       <use style="stroke:#000000;stroke-width:0.8;" x="372.213656" xlink:href="#md6e36bc5a6" y="67.056923"/>
      </g>
     </g>
     <g id="text_30">
      <!-- 2.75 -->
      <g transform="translate(342.948031 70.856141)scale(0.1 -0.1)">
       <use xlink:href="#DejaVuSans-50"/>
       <use x="63.623047" xlink:href="#DejaVuSans-46"/>
       <use x="95.410156" xlink:href="#DejaVuSans-55"/>
       <use x="159.033203" xlink:href="#DejaVuSans-53"/>
      </g>
     </g>
    </g>
    <g id="ytick_23">
     <g id="line2d_31">
      <g>
       <use style="stroke:#000000;stroke-width:0.8;" x="372.213656" xlink:href="#md6e36bc5a6" y="27.183234"/>
      </g>
     </g>
     <g id="text_31">
      <!-- 3.00 -->
      <defs>
       <path d="M 40.578125 39.3125 
Q 47.65625 37.796875 51.625 33 
Q 55.609375 28.21875 55.609375 21.1875 
Q 55.609375 10.40625 48.1875 4.484375 
Q 40.765625 -1.421875 27.09375 -1.421875 
Q 22.515625 -1.421875 17.65625 -0.515625 
Q 12.796875 0.390625 7.625 2.203125 
L 7.625 11.71875 
Q 11.71875 9.328125 16.59375 8.109375 
Q 21.484375 6.890625 26.8125 6.890625 
Q 36.078125 6.890625 40.9375 10.546875 
Q 45.796875 14.203125 45.796875 21.1875 
Q 45.796875 27.640625 41.28125 31.265625 
Q 36.765625 34.90625 28.71875 34.90625 
L 20.21875 34.90625 
L 20.21875 43.015625 
L 29.109375 43.015625 
Q 36.375 43.015625 40.234375 45.921875 
Q 44.09375 48.828125 44.09375 54.296875 
Q 44.09375 59.90625 40.109375 62.90625 
Q 36.140625 65.921875 28.71875 65.921875 
Q 24.65625 65.921875 20.015625 65.03125 
Q 15.375 64.15625 9.8125 62.3125 
L 9.8125 71.09375 
Q 15.4375 72.65625 20.34375 73.4375 
Q 25.25 74.21875 29.59375 74.21875 
Q 40.828125 74.21875 47.359375 69.109375 
Q 53.90625 64.015625 53.90625 55.328125 
Q 53.90625 49.265625 50.4375 45.09375 
Q 46.96875 40.921875 40.578125 39.3125 
z
" id="DejaVuSans-51"/>
      </defs>
      <g transform="translate(342.948031 30.982453)scale(0.1 -0.1)">
       <use xlink:href="#DejaVuSans-51"/>
       <use x="63.623047" xlink:href="#DejaVuSans-46"/>
       <use x="95.410156" xlink:href="#DejaVuSans-48"/>
       <use x="159.033203" xlink:href="#DejaVuSans-48"/>
      </g>
     </g>
    </g>
   </g>
   <g id="line2d_32">
    <path clip-path="url(#p7d0af054a2)" d="M 376.103934 32.109423 
L 376.949646 81.867439 
L 377.795359 117.890224 
L 378.641071 207.011316 
L 379.486784 237.032026 
L 380.332496 265.56127 
L 381.178209 289.693715 
L 382.023921 298.927328 
L 382.869634 306.878079 
L 383.715346 311.930577 
L 384.561059 309.287211 
L 385.406771 298.264503 
L 386.252484 280.701451 
L 387.098196 259.842728 
L 387.943909 240.40839 
L 388.789621 220.305964 
L 389.635334 199.4617 
L 390.481046 180.501347 
L 391.326759 167.476421 
L 392.172471 158.190304 
L 393.018184 154.896864 
L 393.863896 156.579546 
L 394.709609 161.24225 
L 395.555321 169.28276 
L 396.401034 180.274872 
L 397.246746 191.740853 
L 398.092459 204.196814 
L 398.938171 215.290205 
L 399.783883 223.145991 
L 400.629596 228.936607 
L 401.475308 232.763915 
L 402.321021 234.093825 
L 403.166733 234.390336 
L 404.012446 233.243705 
L 404.858158 232.030819 
L 405.703871 232.436568 
L 406.549583 234.811021 
L 407.395296 238.432233 
L 408.241008 244.143299 
L 409.086721 250.885391 
L 409.932433 258.995857 
L 410.778146 267.420669 
L 411.623858 275.436587 
L 412.469571 281.958172 
L 413.315283 287.164904 
L 414.160996 289.274613 
L 415.006708 289.107018 
L 415.852421 286.498024 
L 416.698133 282.986603 
L 417.543846 279.254624 
L 418.389558 275.861756 
L 419.235271 273.437152 
L 420.080983 273.98251 
L 420.926696 276.06165 
L 421.772408 279.672884 
L 422.618121 283.735814 
L 423.463833 287.828639 
L 424.309546 292.36173 
L 425.155258 296.541065 
L 426.000971 298.81045 
L 426.846683 300.600715 
L 427.692396 301.236184 
L 428.538108 301.081123 
L 429.38382 300.663821 
L 430.229533 298.708188 
L 431.075245 295.668407 
L 431.920958 292.196391 
L 432.76667 287.854828 
L 433.612383 284.325881 
L 434.458095 281.527446 
L 435.303808 278.482141 
L 436.14952 277.51901 
L 436.995233 278.524153 
L 437.840945 281.754158 
L 438.686658 286.582197 
L 439.53237 291.193762 
L 440.378083 295.5073 
L 441.223795 300.66214 
L 442.069508 304.600399 
L 442.91522 306.381251 
L 443.760933 305.24096 
L 444.606645 301.568632 
L 445.452358 296.138438 
L 446.29807 290.053845 
L 447.143783 283.505586 
L 447.989495 276.63849 
L 448.835208 271.944861 
L 449.68092 273.020968 
L 450.526633 274.99855 
L 451.372345 279.17948 
L 452.218058 298.784189 
L 453.06377 301.512704 
L 453.909483 306.124926 
" style="fill:none;stroke:#ff0000;stroke-linecap:square;stroke-width:1.5;"/>
   </g>
   <g id="patch_199">
    <path d="M 372.213656 325.921635 
L 372.213656 18.118365 
" style="fill:none;stroke:#000000;stroke-linecap:square;stroke-linejoin:miter;stroke-width:0.8;"/>
   </g>
   <g id="patch_200">
    <path d="M 457.79976 325.921635 
L 457.79976 18.118365 
" style="fill:none;stroke:#000000;stroke-linecap:square;stroke-linejoin:miter;stroke-width:0.8;"/>
   </g>
   <g id="patch_201">
    <path d="M 372.213656 325.921635 
L 457.79976 325.921635 
" style="fill:none;stroke:#000000;stroke-linecap:square;stroke-linejoin:miter;stroke-width:0.8;"/>
   </g>
   <g id="patch_202">
    <path d="M 372.213656 18.118365 
L 457.79976 18.118365 
" style="fill:none;stroke:#000000;stroke-linecap:square;stroke-linejoin:miter;stroke-width:0.8;"/>
   </g>
   <g id="text_32">
    <!-- r0 - PI - (data) -->
    <defs>
     <path d="M 41.109375 46.296875 
Q 39.59375 47.171875 37.8125 47.578125 
Q 36.03125 48 33.890625 48 
Q 26.265625 48 22.1875 43.046875 
Q 18.109375 38.09375 18.109375 28.8125 
L 18.109375 0 
L 9.078125 0 
L 9.078125 54.6875 
L 18.109375 54.6875 
L 18.109375 46.1875 
Q 20.953125 51.171875 25.484375 53.578125 
Q 30.03125 56 36.53125 56 
Q 37.453125 56 38.578125 55.875 
Q 39.703125 55.765625 41.0625 55.515625 
z
" id="DejaVuSans-114"/>
    </defs>
    <g transform="translate(373.181083 12.118365)scale(0.12 -0.12)">
     <use xlink:href="#DejaVuSans-114"/>
     <use x="41.113281" xlink:href="#DejaVuSans-48"/>
     <use x="104.736328" xlink:href="#DejaVuSans-32"/>
     <use x="136.523438" xlink:href="#DejaVuSans-45"/>
     <use x="172.607422" xlink:href="#DejaVuSans-32"/>
     <use x="204.394531" xlink:href="#DejaVuSans-80"/>
     <use x="264.697266" xlink:href="#DejaVuSans-73"/>
     <use x="294.189453" xlink:href="#DejaVuSans-32"/>
     <use x="325.976562" xlink:href="#DejaVuSans-45"/>
     <use x="362.060547" xlink:href="#DejaVuSans-32"/>
     <use x="393.847656" xlink:href="#DejaVuSans-40"/>
     <use x="432.861328" xlink:href="#DejaVuSans-100"/>
     <use x="496.337891" xlink:href="#DejaVuSans-97"/>
     <use x="557.617188" xlink:href="#DejaVuSans-116"/>
     <use x="596.826172" xlink:href="#DejaVuSans-97"/>
     <use x="658.105469" xlink:href="#DejaVuSans-41"/>
    </g>
   </g>
  </g>
 </g>
 <defs>
  <clipPath id="p5bb6af6ebc">
   <rect height="307.80327" width="85.586104" x="48.578156" y="18.118365"/>
  </clipPath>
  <clipPath id="p8700a77201">
   <rect height="307.80327" width="85.586104" x="221.264656" y="18.118365"/>
  </clipPath>
  <clipPath id="p7d0af054a2">
   <rect height="307.80327" width="85.586104" x="372.213656" y="18.118365"/>
  </clipPath>
 </defs>
</svg>
