<?xml version="1.0" encoding="utf-8" standalone="no"?>
<!DOCTYPE svg PUBLIC "-//W3C//DTD SVG 1.1//EN"
  "http://www.w3.org/Graphics/SVG/1.1/DTD/svg11.dtd">
<!-- Created with matplotlib (https://matplotlib.org/) -->
<svg height="345.6pt" version="1.1" viewBox="0 0 460.8 345.6" width="460.8pt" xmlns="http://www.w3.org/2000/svg" xmlns:xlink="http://www.w3.org/1999/xlink">
 <defs>
  <style type="text/css">
*{stroke-linecap:butt;stroke-linejoin:round;}
  </style>
 </defs>
 <g id="figure_1">
  <g id="patch_1">
   <path d="M 0 345.6 
L 460.8 345.6 
L 460.8 0 
L 0 0 
z
" style="fill:#ffffff;"/>
  </g>
  <g id="axes_1">
   <g id="patch_2">
    <path d="M 50.85082 325.921635 
L 135.553509 325.921635 
L 135.553509 18.118365 
L 50.85082 18.118365 
z
" style="fill:#ffffff;"/>
   </g>
   <g id="patch_3">
    <path clip-path="url(#p8264bd7a84)" d="M 54.700942 325.921635 
L 55.312073 325.921635 
L 55.312073 325.800342 
L 54.700942 325.800342 
z
" style="fill:#1f77b4;"/>
   </g>
   <g id="patch_4">
    <path clip-path="url(#p8264bd7a84)" d="M 55.464855 325.921635 
L 56.075986 325.921635 
L 56.075986 325.800342 
L 55.464855 325.800342 
z
" style="fill:#1f77b4;"/>
   </g>
   <g id="patch_5">
    <path clip-path="url(#p8264bd7a84)" d="M 56.228768 325.921635 
L 56.839899 325.921635 
L 56.839899 325.800342 
L 56.228768 325.800342 
z
" style="fill:#1f77b4;"/>
   </g>
   <g id="patch_6">
    <path clip-path="url(#p8264bd7a84)" d="M 56.992682 325.921635 
L 57.603812 325.921635 
L 57.603812 325.800342 
L 56.992682 325.800342 
z
" style="fill:#1f77b4;"/>
   </g>
   <g id="patch_7">
    <path clip-path="url(#p8264bd7a84)" d="M 57.756595 325.921635 
L 58.367725 325.921635 
L 58.367725 325.800342 
L 57.756595 325.800342 
z
" style="fill:#1f77b4;"/>
   </g>
   <g id="patch_8">
    <path clip-path="url(#p8264bd7a84)" d="M 58.520508 325.921635 
L 59.131638 325.921635 
L 59.131638 325.658833 
L 58.520508 325.658833 
z
" style="fill:#1f77b4;"/>
   </g>
   <g id="patch_9">
    <path clip-path="url(#p8264bd7a84)" d="M 59.284421 325.921635 
L 59.895552 325.921635 
L 59.895552 325.456677 
L 59.284421 325.456677 
z
" style="fill:#1f77b4;"/>
   </g>
   <g id="patch_10">
    <path clip-path="url(#p8264bd7a84)" d="M 60.048334 325.921635 
L 60.659465 325.921635 
L 60.659465 325.274737 
L 60.048334 325.274737 
z
" style="fill:#1f77b4;"/>
   </g>
   <g id="patch_11">
    <path clip-path="url(#p8264bd7a84)" d="M 60.812247 325.921635 
L 61.423378 325.921635 
L 61.423378 325.052366 
L 60.812247 325.052366 
z
" style="fill:#1f77b4;"/>
   </g>
   <g id="patch_12">
    <path clip-path="url(#p8264bd7a84)" d="M 61.57616 325.921635 
L 62.187291 325.921635 
L 62.187291 324.910857 
L 61.57616 324.910857 
z
" style="fill:#1f77b4;"/>
   </g>
   <g id="patch_13">
    <path clip-path="url(#p8264bd7a84)" d="M 62.340074 325.921635 
L 62.951204 325.921635 
L 62.951204 324.789563 
L 62.340074 324.789563 
z
" style="fill:#1f77b4;"/>
   </g>
   <g id="patch_14">
    <path clip-path="url(#p8264bd7a84)" d="M 63.103987 325.921635 
L 63.715117 325.921635 
L 63.715117 324.607623 
L 63.103987 324.607623 
z
" style="fill:#1f77b4;"/>
   </g>
   <g id="patch_15">
    <path clip-path="url(#p8264bd7a84)" d="M 63.8679 325.921635 
L 64.47903 325.921635 
L 64.47903 324.284174 
L 63.8679 324.284174 
z
" style="fill:#1f77b4;"/>
   </g>
   <g id="patch_16">
    <path clip-path="url(#p8264bd7a84)" d="M 64.631813 325.921635 
L 65.242944 325.921635 
L 65.242944 323.859647 
L 64.631813 323.859647 
z
" style="fill:#1f77b4;"/>
   </g>
   <g id="patch_17">
    <path clip-path="url(#p8264bd7a84)" d="M 65.395726 325.921635 
L 66.006857 325.921635 
L 66.006857 323.515982 
L 65.395726 323.515982 
z
" style="fill:#1f77b4;"/>
   </g>
   <g id="patch_18">
    <path clip-path="url(#p8264bd7a84)" d="M 66.159639 325.921635 
L 66.77077 325.921635 
L 66.77077 323.232964 
L 66.159639 323.232964 
z
" style="fill:#1f77b4;"/>
   </g>
   <g id="patch_19">
    <path clip-path="url(#p8264bd7a84)" d="M 66.923553 325.921635 
L 67.534683 325.921635 
L 67.534683 322.929731 
L 66.923553 322.929731 
z
" style="fill:#1f77b4;"/>
   </g>
   <g id="patch_20">
    <path clip-path="url(#p8264bd7a84)" d="M 67.687466 325.921635 
L 68.298596 325.921635 
L 68.298596 322.788222 
L 67.687466 322.788222 
z
" style="fill:#1f77b4;"/>
   </g>
   <g id="patch_21">
    <path clip-path="url(#p8264bd7a84)" d="M 68.451379 325.921635 
L 69.062509 325.921635 
L 69.062509 322.303048 
L 68.451379 322.303048 
z
" style="fill:#1f77b4;"/>
   </g>
   <g id="patch_22">
    <path clip-path="url(#p8264bd7a84)" d="M 69.215292 325.921635 
L 69.826422 325.921635 
L 69.826422 321.393347 
L 69.215292 321.393347 
z
" style="fill:#1f77b4;"/>
   </g>
   <g id="patch_23">
    <path clip-path="url(#p8264bd7a84)" d="M 69.979205 325.921635 
L 70.590336 325.921635 
L 70.590336 320.827312 
L 69.979205 320.827312 
z
" style="fill:#1f77b4;"/>
   </g>
   <g id="patch_24">
    <path clip-path="url(#p8264bd7a84)" d="M 70.743118 325.921635 
L 71.354249 325.921635 
L 71.354249 319.836749 
L 70.743118 319.836749 
z
" style="fill:#1f77b4;"/>
   </g>
   <g id="patch_25">
    <path clip-path="url(#p8264bd7a84)" d="M 71.507031 325.921635 
L 72.118162 325.921635 
L 72.118162 317.936485 
L 71.507031 317.936485 
z
" style="fill:#1f77b4;"/>
   </g>
   <g id="patch_26">
    <path clip-path="url(#p8264bd7a84)" d="M 72.270945 325.921635 
L 72.882075 325.921635 
L 72.882075 317.067216 
L 72.270945 317.067216 
z
" style="fill:#1f77b4;"/>
   </g>
   <g id="patch_27">
    <path clip-path="url(#p8264bd7a84)" d="M 73.034858 325.921635 
L 73.645988 325.921635 
L 73.645988 316.662904 
L 73.034858 316.662904 
z
" style="fill:#1f77b4;"/>
   </g>
   <g id="patch_28">
    <path clip-path="url(#p8264bd7a84)" d="M 73.798771 325.921635 
L 74.409901 325.921635 
L 74.409901 315.753204 
L 73.798771 315.753204 
z
" style="fill:#1f77b4;"/>
   </g>
   <g id="patch_29">
    <path clip-path="url(#p8264bd7a84)" d="M 74.562684 325.921635 
L 75.173814 325.921635 
L 75.173814 315.025443 
L 74.562684 315.025443 
z
" style="fill:#1f77b4;"/>
   </g>
   <g id="patch_30">
    <path clip-path="url(#p8264bd7a84)" d="M 75.326597 325.921635 
L 75.937728 325.921635 
L 75.937728 313.610353 
L 75.326597 313.610353 
z
" style="fill:#1f77b4;"/>
   </g>
   <g id="patch_31">
    <path clip-path="url(#p8264bd7a84)" d="M 76.09051 325.921635 
L 76.701641 325.921635 
L 76.701641 312.923024 
L 76.09051 312.923024 
z
" style="fill:#1f77b4;"/>
   </g>
   <g id="patch_32">
    <path clip-path="url(#p8264bd7a84)" d="M 76.854423 325.921635 
L 77.465554 325.921635 
L 77.465554 312.25591 
L 76.854423 312.25591 
z
" style="fill:#1f77b4;"/>
   </g>
   <g id="patch_33">
    <path clip-path="url(#p8264bd7a84)" d="M 77.618337 325.921635 
L 78.229467 325.921635 
L 78.229467 311.002545 
L 77.618337 311.002545 
z
" style="fill:#1f77b4;"/>
   </g>
   <g id="patch_34">
    <path clip-path="url(#p8264bd7a84)" d="M 78.38225 325.921635 
L 78.99338 325.921635 
L 78.99338 310.638665 
L 78.38225 310.638665 
z
" style="fill:#1f77b4;"/>
   </g>
   <g id="patch_35">
    <path clip-path="url(#p8264bd7a84)" d="M 79.146163 325.921635 
L 79.757293 325.921635 
L 79.757293 309.93112 
L 79.146163 309.93112 
z
" style="fill:#1f77b4;"/>
   </g>
   <g id="patch_36">
    <path clip-path="url(#p8264bd7a84)" d="M 79.910076 325.921635 
L 80.521206 325.921635 
L 80.521206 309.688533 
L 79.910076 309.688533 
z
" style="fill:#1f77b4;"/>
   </g>
   <g id="patch_37">
    <path clip-path="url(#p8264bd7a84)" d="M 80.673989 325.921635 
L 81.28512 325.921635 
L 81.28512 309.102281 
L 80.673989 309.102281 
z
" style="fill:#1f77b4;"/>
   </g>
   <g id="patch_38">
    <path clip-path="url(#p8264bd7a84)" d="M 81.437902 325.921635 
L 82.049033 325.921635 
L 82.049033 308.253227 
L 81.437902 308.253227 
z
" style="fill:#1f77b4;"/>
   </g>
   <g id="patch_39">
    <path clip-path="url(#p8264bd7a84)" d="M 82.201815 325.921635 
L 82.812946 325.921635 
L 82.812946 306.817922 
L 82.201815 306.817922 
z
" style="fill:#1f77b4;"/>
   </g>
   <g id="patch_40">
    <path clip-path="url(#p8264bd7a84)" d="M 82.965729 325.921635 
L 83.576859 325.921635 
L 83.576859 305.968868 
L 82.965729 305.968868 
z
" style="fill:#1f77b4;"/>
   </g>
   <g id="patch_41">
    <path clip-path="url(#p8264bd7a84)" d="M 83.729642 325.921635 
L 84.340772 325.921635 
L 84.340772 305.564557 
L 83.729642 305.564557 
z
" style="fill:#1f77b4;"/>
   </g>
   <g id="patch_42">
    <path clip-path="url(#p8264bd7a84)" d="M 84.493555 325.921635 
L 85.104685 325.921635 
L 85.104685 305.220892 
L 84.493555 305.220892 
z
" style="fill:#1f77b4;"/>
   </g>
   <g id="patch_43">
    <path clip-path="url(#p8264bd7a84)" d="M 85.257468 325.921635 
L 85.868598 325.921635 
L 85.868598 304.432485 
L 85.257468 304.432485 
z
" style="fill:#1f77b4;"/>
   </g>
   <g id="patch_44">
    <path clip-path="url(#p8264bd7a84)" d="M 86.021381 325.921635 
L 86.632512 325.921635 
L 86.632512 304.048389 
L 86.021381 304.048389 
z
" style="fill:#1f77b4;"/>
   </g>
   <g id="patch_45">
    <path clip-path="url(#p8264bd7a84)" d="M 86.785294 325.921635 
L 87.396425 325.921635 
L 87.396425 303.300413 
L 86.785294 303.300413 
z
" style="fill:#1f77b4;"/>
   </g>
   <g id="patch_46">
    <path clip-path="url(#p8264bd7a84)" d="M 87.549207 325.921635 
L 88.160338 325.921635 
L 88.160338 302.875886 
L 87.549207 302.875886 
z
" style="fill:#1f77b4;"/>
   </g>
   <g id="patch_47">
    <path clip-path="url(#p8264bd7a84)" d="M 88.313121 325.921635 
L 88.924251 325.921635 
L 88.924251 302.552437 
L 88.313121 302.552437 
z
" style="fill:#1f77b4;"/>
   </g>
   <g id="patch_48">
    <path clip-path="url(#p8264bd7a84)" d="M 89.077034 325.921635 
L 89.688164 325.921635 
L 89.688164 301.94597 
L 89.077034 301.94597 
z
" style="fill:#1f77b4;"/>
   </g>
   <g id="patch_49">
    <path clip-path="url(#p8264bd7a84)" d="M 89.840947 325.921635 
L 90.452077 325.921635 
L 90.452077 300.227646 
L 89.840947 300.227646 
z
" style="fill:#1f77b4;"/>
   </g>
   <g id="patch_50">
    <path clip-path="url(#p8264bd7a84)" d="M 90.60486 325.921635 
L 91.21599 325.921635 
L 91.21599 298.671047 
L 90.60486 298.671047 
z
" style="fill:#1f77b4;"/>
   </g>
   <g id="patch_51">
    <path clip-path="url(#p8264bd7a84)" d="M 91.368773 325.921635 
L 91.979904 325.921635 
L 91.979904 297.478329 
L 91.368773 297.478329 
z
" style="fill:#1f77b4;"/>
   </g>
   <g id="patch_52">
    <path clip-path="url(#p8264bd7a84)" d="M 92.132686 325.921635 
L 92.743817 325.921635 
L 92.743817 296.669706 
L 92.132686 296.669706 
z
" style="fill:#1f77b4;"/>
   </g>
   <g id="patch_53">
    <path clip-path="url(#p8264bd7a84)" d="M 92.896599 325.921635 
L 93.50773 325.921635 
L 93.50773 295.760006 
L 92.896599 295.760006 
z
" style="fill:#1f77b4;"/>
   </g>
   <g id="patch_54">
    <path clip-path="url(#p8264bd7a84)" d="M 93.660513 325.921635 
L 94.271643 325.921635 
L 94.271643 295.315263 
L 93.660513 295.315263 
z
" style="fill:#1f77b4;"/>
   </g>
   <g id="patch_55">
    <path clip-path="url(#p8264bd7a84)" d="M 94.424426 325.921635 
L 95.035556 325.921635 
L 95.035556 294.344916 
L 94.424426 294.344916 
z
" style="fill:#1f77b4;"/>
   </g>
   <g id="patch_56">
    <path clip-path="url(#p8264bd7a84)" d="M 95.188339 325.921635 
L 95.799469 325.921635 
L 95.799469 293.819311 
L 95.188339 293.819311 
z
" style="fill:#1f77b4;"/>
   </g>
   <g id="patch_57">
    <path clip-path="url(#p8264bd7a84)" d="M 95.952252 325.921635 
L 96.563382 325.921635 
L 96.563382 293.030904 
L 95.952252 293.030904 
z
" style="fill:#1f77b4;"/>
   </g>
   <g id="patch_58">
    <path clip-path="url(#p8264bd7a84)" d="M 96.716165 325.921635 
L 97.327296 325.921635 
L 97.327296 292.444652 
L 96.716165 292.444652 
z
" style="fill:#1f77b4;"/>
   </g>
   <g id="patch_59">
    <path clip-path="url(#p8264bd7a84)" d="M 97.480078 325.921635 
L 98.091209 325.921635 
L 98.091209 291.332796 
L 97.480078 291.332796 
z
" style="fill:#1f77b4;"/>
   </g>
   <g id="patch_60">
    <path clip-path="url(#p8264bd7a84)" d="M 98.243991 325.921635 
L 98.855122 325.921635 
L 98.855122 289.836844 
L 98.243991 289.836844 
z
" style="fill:#1f77b4;"/>
   </g>
   <g id="patch_61">
    <path clip-path="url(#p8264bd7a84)" d="M 99.007905 325.921635 
L 99.619035 325.921635 
L 99.619035 288.826065 
L 99.007905 288.826065 
z
" style="fill:#1f77b4;"/>
   </g>
   <g id="patch_62">
    <path clip-path="url(#p8264bd7a84)" d="M 99.771818 325.921635 
L 100.382948 325.921635 
L 100.382948 288.543047 
L 99.771818 288.543047 
z
" style="fill:#1f77b4;"/>
   </g>
   <g id="patch_63">
    <path clip-path="url(#p8264bd7a84)" d="M 100.535731 325.921635 
L 101.146861 325.921635 
L 101.146861 287.39076 
L 100.535731 287.39076 
z
" style="fill:#1f77b4;"/>
   </g>
   <g id="patch_64">
    <path clip-path="url(#p8264bd7a84)" d="M 101.299644 325.921635 
L 101.910774 325.921635 
L 101.910774 285.571359 
L 101.299644 285.571359 
z
" style="fill:#1f77b4;"/>
   </g>
   <g id="patch_65">
    <path clip-path="url(#p8264bd7a84)" d="M 102.063557 325.921635 
L 102.674688 325.921635 
L 102.674688 284.216915 
L 102.063557 284.216915 
z
" style="fill:#1f77b4;"/>
   </g>
   <g id="patch_66">
    <path clip-path="url(#p8264bd7a84)" d="M 102.82747 325.921635 
L 103.438601 325.921635 
L 103.438601 282.680532 
L 102.82747 282.680532 
z
" style="fill:#1f77b4;"/>
   </g>
   <g id="patch_67">
    <path clip-path="url(#p8264bd7a84)" d="M 103.591383 325.921635 
L 104.202514 325.921635 
L 104.202514 280.598328 
L 103.591383 280.598328 
z
" style="fill:#1f77b4;"/>
   </g>
   <g id="patch_68">
    <path clip-path="url(#p8264bd7a84)" d="M 104.355297 325.921635 
L 104.966427 325.921635 
L 104.966427 279.708843 
L 104.355297 279.708843 
z
" style="fill:#1f77b4;"/>
   </g>
   <g id="patch_69">
    <path clip-path="url(#p8264bd7a84)" d="M 105.11921 325.921635 
L 105.73034 325.921635 
L 105.73034 278.212891 
L 105.11921 278.212891 
z
" style="fill:#1f77b4;"/>
   </g>
   <g id="patch_70">
    <path clip-path="url(#p8264bd7a84)" d="M 105.883123 325.921635 
L 106.494253 325.921635 
L 106.494253 275.766807 
L 105.883123 275.766807 
z
" style="fill:#1f77b4;"/>
   </g>
   <g id="patch_71">
    <path clip-path="url(#p8264bd7a84)" d="M 106.647036 325.921635 
L 107.258166 325.921635 
L 107.258166 273.037706 
L 106.647036 273.037706 
z
" style="fill:#1f77b4;"/>
   </g>
   <g id="patch_72">
    <path clip-path="url(#p8264bd7a84)" d="M 107.410949 325.921635 
L 108.02208 325.921635 
L 108.02208 269.115885 
L 107.410949 269.115885 
z
" style="fill:#1f77b4;"/>
   </g>
   <g id="patch_73">
    <path clip-path="url(#p8264bd7a84)" d="M 108.174862 325.921635 
L 108.785993 325.921635 
L 108.785993 266.508077 
L 108.174862 266.508077 
z
" style="fill:#1f77b4;"/>
   </g>
   <g id="patch_74">
    <path clip-path="url(#p8264bd7a84)" d="M 108.938775 325.921635 
L 109.549906 325.921635 
L 109.549906 263.273586 
L 108.938775 263.273586 
z
" style="fill:#1f77b4;"/>
   </g>
   <g id="patch_75">
    <path clip-path="url(#p8264bd7a84)" d="M 109.702689 325.921635 
L 110.313819 325.921635 
L 110.313819 260.989226 
L 109.702689 260.989226 
z
" style="fill:#1f77b4;"/>
   </g>
   <g id="patch_76">
    <path clip-path="url(#p8264bd7a84)" d="M 110.466602 325.921635 
L 111.077732 325.921635 
L 111.077732 258.583573 
L 110.466602 258.583573 
z
" style="fill:#1f77b4;"/>
   </g>
   <g id="patch_77">
    <path clip-path="url(#p8264bd7a84)" d="M 111.230515 325.921635 
L 111.841645 325.921635 
L 111.841645 254.924555 
L 111.230515 254.924555 
z
" style="fill:#1f77b4;"/>
   </g>
   <g id="patch_78">
    <path clip-path="url(#p8264bd7a84)" d="M 111.994428 325.921635 
L 112.605558 325.921635 
L 112.605558 250.881442 
L 111.994428 250.881442 
z
" style="fill:#1f77b4;"/>
   </g>
   <g id="patch_79">
    <path clip-path="url(#p8264bd7a84)" d="M 112.758341 325.921635 
L 113.369472 325.921635 
L 113.369472 245.382807 
L 112.758341 245.382807 
z
" style="fill:#1f77b4;"/>
   </g>
   <g id="patch_80">
    <path clip-path="url(#p8264bd7a84)" d="M 113.522254 325.921635 
L 114.133385 325.921635 
L 114.133385 240.288483 
L 113.522254 240.288483 
z
" style="fill:#1f77b4;"/>
   </g>
   <g id="patch_81">
    <path clip-path="url(#p8264bd7a84)" d="M 114.286167 325.921635 
L 114.897298 325.921635 
L 114.897298 235.497393 
L 114.286167 235.497393 
z
" style="fill:#1f77b4;"/>
   </g>
   <g id="patch_82">
    <path clip-path="url(#p8264bd7a84)" d="M 115.050081 325.921635 
L 115.661211 325.921635 
L 115.661211 231.171261 
L 115.050081 231.171261 
z
" style="fill:#1f77b4;"/>
   </g>
   <g id="patch_83">
    <path clip-path="url(#p8264bd7a84)" d="M 115.813994 325.921635 
L 116.425124 325.921635 
L 116.425124 228.179357 
L 115.813994 228.179357 
z
" style="fill:#1f77b4;"/>
   </g>
   <g id="patch_84">
    <path clip-path="url(#p8264bd7a84)" d="M 116.577907 325.921635 
L 117.189037 325.921635 
L 117.189037 221.54865 
L 116.577907 221.54865 
z
" style="fill:#1f77b4;"/>
   </g>
   <g id="patch_85">
    <path clip-path="url(#p8264bd7a84)" d="M 117.34182 325.921635 
L 117.952951 325.921635 
L 117.952951 214.857297 
L 117.34182 214.857297 
z
" style="fill:#1f77b4;"/>
   </g>
   <g id="patch_86">
    <path clip-path="url(#p8264bd7a84)" d="M 118.105733 325.921635 
L 118.716864 325.921635 
L 118.716864 208.267021 
L 118.105733 208.267021 
z
" style="fill:#1f77b4;"/>
   </g>
   <g id="patch_87">
    <path clip-path="url(#p8264bd7a84)" d="M 118.869646 325.921635 
L 119.480777 325.921635 
L 119.480777 197.593201 
L 118.869646 197.593201 
z
" style="fill:#1f77b4;"/>
   </g>
   <g id="patch_88">
    <path clip-path="url(#p8264bd7a84)" d="M 119.633559 325.921635 
L 120.24469 325.921635 
L 120.24469 192.397799 
L 119.633559 192.397799 
z
" style="fill:#1f77b4;"/>
   </g>
   <g id="patch_89">
    <path clip-path="url(#p8264bd7a84)" d="M 120.397473 325.921635 
L 121.008603 325.921635 
L 121.008603 186.494853 
L 120.397473 186.494853 
z
" style="fill:#1f77b4;"/>
   </g>
   <g id="patch_90">
    <path clip-path="url(#p8264bd7a84)" d="M 121.161386 325.921635 
L 121.772516 325.921635 
L 121.772516 183.785967 
L 121.161386 183.785967 
z
" style="fill:#1f77b4;"/>
   </g>
   <g id="patch_91">
    <path clip-path="url(#p8264bd7a84)" d="M 121.925299 325.921635 
L 122.536429 325.921635 
L 122.536429 178.064961 
L 121.925299 178.064961 
z
" style="fill:#1f77b4;"/>
   </g>
   <g id="patch_92">
    <path clip-path="url(#p8264bd7a84)" d="M 122.689212 325.921635 
L 123.300343 325.921635 
L 123.300343 167.613511 
L 122.689212 167.613511 
z
" style="fill:#1f77b4;"/>
   </g>
   <g id="patch_93">
    <path clip-path="url(#p8264bd7a84)" d="M 123.453125 325.921635 
L 124.064256 325.921635 
L 124.064256 154.958565 
L 123.453125 154.958565 
z
" style="fill:#1f77b4;"/>
   </g>
   <g id="patch_94">
    <path clip-path="url(#p8264bd7a84)" d="M 124.217038 325.921635 
L 124.828169 325.921635 
L 124.828169 149.945104 
L 124.217038 149.945104 
z
" style="fill:#1f77b4;"/>
   </g>
   <g id="patch_95">
    <path clip-path="url(#p8264bd7a84)" d="M 124.980951 325.921635 
L 125.592082 325.921635 
L 125.592082 139.271283 
L 124.980951 139.271283 
z
" style="fill:#1f77b4;"/>
   </g>
   <g id="patch_96">
    <path clip-path="url(#p8264bd7a84)" d="M 125.744865 325.921635 
L 126.355995 325.921635 
L 126.355995 132.195834 
L 125.744865 132.195834 
z
" style="fill:#1f77b4;"/>
   </g>
   <g id="patch_97">
    <path clip-path="url(#p8264bd7a84)" d="M 126.508778 325.921635 
L 127.119908 325.921635 
L 127.119908 129.507163 
L 126.508778 129.507163 
z
" style="fill:#1f77b4;"/>
   </g>
   <g id="patch_98">
    <path clip-path="url(#p8264bd7a84)" d="M 127.272691 325.921635 
L 127.883821 325.921635 
L 127.883821 112.505869 
L 127.272691 112.505869 
z
" style="fill:#1f77b4;"/>
   </g>
   <g id="patch_99">
    <path clip-path="url(#p8264bd7a84)" d="M 128.036604 325.921635 
L 128.647735 325.921635 
L 128.647735 101.832049 
L 128.036604 101.832049 
z
" style="fill:#1f77b4;"/>
   </g>
   <g id="patch_100">
    <path clip-path="url(#p8264bd7a84)" d="M 128.800517 325.921635 
L 129.411648 325.921635 
L 129.411648 84.972264 
L 128.800517 84.972264 
z
" style="fill:#1f77b4;"/>
   </g>
   <g id="patch_101">
    <path clip-path="url(#p8264bd7a84)" d="M 129.56443 325.921635 
L 130.175561 325.921635 
L 130.175561 67.465581 
L 129.56443 67.465581 
z
" style="fill:#1f77b4;"/>
   </g>
   <g id="patch_102">
    <path clip-path="url(#p8264bd7a84)" d="M 130.328343 325.921635 
L 130.939474 325.921635 
L 130.939474 49.736526 
L 130.328343 49.736526 
z
" style="fill:#1f77b4;"/>
   </g>
   <g id="patch_103">
    <path clip-path="url(#p8264bd7a84)" d="M 131.092257 325.921635 
L 131.703387 325.921635 
L 131.703387 32.775664 
L 131.092257 32.775664 
z
" style="fill:#1f77b4;"/>
   </g>
   <g id="matplotlib.axis_1">
    <g id="xtick_1">
     <g id="line2d_1">
      <defs>
       <path d="M 0 0 
L 0 3.5 
" id="md62b20a921" style="stroke:#000000;stroke-width:0.8;"/>
      </defs>
      <g>
       <use style="stroke:#000000;stroke-width:0.8;" x="55.006507" xlink:href="#md62b20a921" y="325.921635"/>
      </g>
     </g>
     <g id="text_1">
      <!-- 0 -->
      <defs>
       <path d="M 31.78125 66.40625 
Q 24.171875 66.40625 20.328125 58.90625 
Q 16.5 51.421875 16.5 36.375 
Q 16.5 21.390625 20.328125 13.890625 
Q 24.171875 6.390625 31.78125 6.390625 
Q 39.453125 6.390625 43.28125 13.890625 
Q 47.125 21.390625 47.125 36.375 
Q 47.125 51.421875 43.28125 58.90625 
Q 39.453125 66.40625 31.78125 66.40625 
z
M 31.78125 74.21875 
Q 44.046875 74.21875 50.515625 64.515625 
Q 56.984375 54.828125 56.984375 36.375 
Q 56.984375 17.96875 50.515625 8.265625 
Q 44.046875 -1.421875 31.78125 -1.421875 
Q 19.53125 -1.421875 13.0625 8.265625 
Q 6.59375 17.96875 6.59375 36.375 
Q 6.59375 54.828125 13.0625 64.515625 
Q 19.53125 74.21875 31.78125 74.21875 
z
" id="DejaVuSans-48"/>
      </defs>
      <g transform="translate(51.825257 340.520072)scale(0.1 -0.1)">
       <use xlink:href="#DejaVuSans-48"/>
      </g>
     </g>
    </g>
    <g id="xtick_2">
     <g id="line2d_2">
      <g>
       <use style="stroke:#000000;stroke-width:0.8;" x="131.397822" xlink:href="#md62b20a921" y="325.921635"/>
      </g>
     </g>
     <g id="text_2">
      <!-- 100 -->
      <defs>
       <path d="M 12.40625 8.296875 
L 28.515625 8.296875 
L 28.515625 63.921875 
L 10.984375 60.40625 
L 10.984375 69.390625 
L 28.421875 72.90625 
L 38.28125 72.90625 
L 38.28125 8.296875 
L 54.390625 8.296875 
L 54.390625 0 
L 12.40625 0 
z
" id="DejaVuSans-49"/>
      </defs>
      <g transform="translate(121.854072 340.520072)scale(0.1 -0.1)">
       <use xlink:href="#DejaVuSans-49"/>
       <use x="63.623047" xlink:href="#DejaVuSans-48"/>
       <use x="127.246094" xlink:href="#DejaVuSans-48"/>
      </g>
     </g>
    </g>
   </g>
   <g id="matplotlib.axis_2">
    <g id="ytick_1">
     <g id="line2d_3">
      <defs>
       <path d="M 0 0 
L -3.5 0 
" id="m7206281cfc" style="stroke:#000000;stroke-width:0.8;"/>
      </defs>
      <g>
       <use style="stroke:#000000;stroke-width:0.8;" x="50.85082" xlink:href="#m7206281cfc" y="325.921635"/>
      </g>
     </g>
     <g id="text_3">
      <!-- 0 -->
      <g transform="translate(37.48832 329.720854)scale(0.1 -0.1)">
       <use xlink:href="#DejaVuSans-48"/>
      </g>
     </g>
    </g>
    <g id="ytick_2">
     <g id="line2d_4">
      <g>
       <use style="stroke:#000000;stroke-width:0.8;" x="50.85082" xlink:href="#m7206281cfc" y="285.490496"/>
      </g>
     </g>
     <g id="text_4">
      <!-- 2000 -->
      <defs>
       <path d="M 19.1875 8.296875 
L 53.609375 8.296875 
L 53.609375 0 
L 7.328125 0 
L 7.328125 8.296875 
Q 12.9375 14.109375 22.625 23.890625 
Q 32.328125 33.6875 34.8125 36.53125 
Q 39.546875 41.84375 41.421875 45.53125 
Q 43.3125 49.21875 43.3125 52.78125 
Q 43.3125 58.59375 39.234375 62.25 
Q 35.15625 65.921875 28.609375 65.921875 
Q 23.96875 65.921875 18.8125 64.3125 
Q 13.671875 62.703125 7.8125 59.421875 
L 7.8125 69.390625 
Q 13.765625 71.78125 18.9375 73 
Q 24.125 74.21875 28.421875 74.21875 
Q 39.75 74.21875 46.484375 68.546875 
Q 53.21875 62.890625 53.21875 53.421875 
Q 53.21875 48.921875 51.53125 44.890625 
Q 49.859375 40.875 45.40625 35.40625 
Q 44.1875 33.984375 37.640625 27.21875 
Q 31.109375 20.453125 19.1875 8.296875 
z
" id="DejaVuSans-50"/>
      </defs>
      <g transform="translate(18.40082 289.289715)scale(0.1 -0.1)">
       <use xlink:href="#DejaVuSans-50"/>
       <use x="63.623047" xlink:href="#DejaVuSans-48"/>
       <use x="127.246094" xlink:href="#DejaVuSans-48"/>
       <use x="190.869141" xlink:href="#DejaVuSans-48"/>
      </g>
     </g>
    </g>
    <g id="ytick_3">
     <g id="line2d_5">
      <g>
       <use style="stroke:#000000;stroke-width:0.8;" x="50.85082" xlink:href="#m7206281cfc" y="245.059358"/>
      </g>
     </g>
     <g id="text_5">
      <!-- 4000 -->
      <defs>
       <path d="M 37.796875 64.3125 
L 12.890625 25.390625 
L 37.796875 25.390625 
z
M 35.203125 72.90625 
L 47.609375 72.90625 
L 47.609375 25.390625 
L 58.015625 25.390625 
L 58.015625 17.1875 
L 47.609375 17.1875 
L 47.609375 0 
L 37.796875 0 
L 37.796875 17.1875 
L 4.890625 17.1875 
L 4.890625 26.703125 
z
" id="DejaVuSans-52"/>
      </defs>
      <g transform="translate(18.40082 248.858576)scale(0.1 -0.1)">
       <use xlink:href="#DejaVuSans-52"/>
       <use x="63.623047" xlink:href="#DejaVuSans-48"/>
       <use x="127.246094" xlink:href="#DejaVuSans-48"/>
       <use x="190.869141" xlink:href="#DejaVuSans-48"/>
      </g>
     </g>
    </g>
    <g id="ytick_4">
     <g id="line2d_6">
      <g>
       <use style="stroke:#000000;stroke-width:0.8;" x="50.85082" xlink:href="#m7206281cfc" y="204.628219"/>
      </g>
     </g>
     <g id="text_6">
      <!-- 6000 -->
      <defs>
       <path d="M 33.015625 40.375 
Q 26.375 40.375 22.484375 35.828125 
Q 18.609375 31.296875 18.609375 23.390625 
Q 18.609375 15.53125 22.484375 10.953125 
Q 26.375 6.390625 33.015625 6.390625 
Q 39.65625 6.390625 43.53125 10.953125 
Q 47.40625 15.53125 47.40625 23.390625 
Q 47.40625 31.296875 43.53125 35.828125 
Q 39.65625 40.375 33.015625 40.375 
z
M 52.59375 71.296875 
L 52.59375 62.3125 
Q 48.875 64.0625 45.09375 64.984375 
Q 41.3125 65.921875 37.59375 65.921875 
Q 27.828125 65.921875 22.671875 59.328125 
Q 17.53125 52.734375 16.796875 39.40625 
Q 19.671875 43.65625 24.015625 45.921875 
Q 28.375 48.1875 33.59375 48.1875 
Q 44.578125 48.1875 50.953125 41.515625 
Q 57.328125 34.859375 57.328125 23.390625 
Q 57.328125 12.15625 50.6875 5.359375 
Q 44.046875 -1.421875 33.015625 -1.421875 
Q 20.359375 -1.421875 13.671875 8.265625 
Q 6.984375 17.96875 6.984375 36.375 
Q 6.984375 53.65625 15.1875 63.9375 
Q 23.390625 74.21875 37.203125 74.21875 
Q 40.921875 74.21875 44.703125 73.484375 
Q 48.484375 72.75 52.59375 71.296875 
z
" id="DejaVuSans-54"/>
      </defs>
      <g transform="translate(18.40082 208.427438)scale(0.1 -0.1)">
       <use xlink:href="#DejaVuSans-54"/>
       <use x="63.623047" xlink:href="#DejaVuSans-48"/>
       <use x="127.246094" xlink:href="#DejaVuSans-48"/>
       <use x="190.869141" xlink:href="#DejaVuSans-48"/>
      </g>
     </g>
    </g>
    <g id="ytick_5">
     <g id="line2d_7">
      <g>
       <use style="stroke:#000000;stroke-width:0.8;" x="50.85082" xlink:href="#m7206281cfc" y="164.19708"/>
      </g>
     </g>
     <g id="text_7">
      <!-- 8000 -->
      <defs>
       <path d="M 31.78125 34.625 
Q 24.75 34.625 20.71875 30.859375 
Q 16.703125 27.09375 16.703125 20.515625 
Q 16.703125 13.921875 20.71875 10.15625 
Q 24.75 6.390625 31.78125 6.390625 
Q 38.8125 6.390625 42.859375 10.171875 
Q 46.921875 13.96875 46.921875 20.515625 
Q 46.921875 27.09375 42.890625 30.859375 
Q 38.875 34.625 31.78125 34.625 
z
M 21.921875 38.8125 
Q 15.578125 40.375 12.03125 44.71875 
Q 8.5 49.078125 8.5 55.328125 
Q 8.5 64.0625 14.71875 69.140625 
Q 20.953125 74.21875 31.78125 74.21875 
Q 42.671875 74.21875 48.875 69.140625 
Q 55.078125 64.0625 55.078125 55.328125 
Q 55.078125 49.078125 51.53125 44.71875 
Q 48 40.375 41.703125 38.8125 
Q 48.828125 37.15625 52.796875 32.3125 
Q 56.78125 27.484375 56.78125 20.515625 
Q 56.78125 9.90625 50.3125 4.234375 
Q 43.84375 -1.421875 31.78125 -1.421875 
Q 19.734375 -1.421875 13.25 4.234375 
Q 6.78125 9.90625 6.78125 20.515625 
Q 6.78125 27.484375 10.78125 32.3125 
Q 14.796875 37.15625 21.921875 38.8125 
z
M 18.3125 54.390625 
Q 18.3125 48.734375 21.84375 45.5625 
Q 25.390625 42.390625 31.78125 42.390625 
Q 38.140625 42.390625 41.71875 45.5625 
Q 45.3125 48.734375 45.3125 54.390625 
Q 45.3125 60.0625 41.71875 63.234375 
Q 38.140625 66.40625 31.78125 66.40625 
Q 25.390625 66.40625 21.84375 63.234375 
Q 18.3125 60.0625 18.3125 54.390625 
z
" id="DejaVuSans-56"/>
      </defs>
      <g transform="translate(18.40082 167.996299)scale(0.1 -0.1)">
       <use xlink:href="#DejaVuSans-56"/>
       <use x="63.623047" xlink:href="#DejaVuSans-48"/>
       <use x="127.246094" xlink:href="#DejaVuSans-48"/>
       <use x="190.869141" xlink:href="#DejaVuSans-48"/>
      </g>
     </g>
    </g>
    <g id="ytick_6">
     <g id="line2d_8">
      <g>
       <use style="stroke:#000000;stroke-width:0.8;" x="50.85082" xlink:href="#m7206281cfc" y="123.765941"/>
      </g>
     </g>
     <g id="text_8">
      <!-- 10000 -->
      <g transform="translate(12.03832 127.56516)scale(0.1 -0.1)">
       <use xlink:href="#DejaVuSans-49"/>
       <use x="63.623047" xlink:href="#DejaVuSans-48"/>
       <use x="127.246094" xlink:href="#DejaVuSans-48"/>
       <use x="190.869141" xlink:href="#DejaVuSans-48"/>
       <use x="254.492188" xlink:href="#DejaVuSans-48"/>
      </g>
     </g>
    </g>
    <g id="ytick_7">
     <g id="line2d_9">
      <g>
       <use style="stroke:#000000;stroke-width:0.8;" x="50.85082" xlink:href="#m7206281cfc" y="83.334803"/>
      </g>
     </g>
     <g id="text_9">
      <!-- 12000 -->
      <g transform="translate(12.03832 87.134021)scale(0.1 -0.1)">
       <use xlink:href="#DejaVuSans-49"/>
       <use x="63.623047" xlink:href="#DejaVuSans-50"/>
       <use x="127.246094" xlink:href="#DejaVuSans-48"/>
       <use x="190.869141" xlink:href="#DejaVuSans-48"/>
       <use x="254.492188" xlink:href="#DejaVuSans-48"/>
      </g>
     </g>
    </g>
    <g id="ytick_8">
     <g id="line2d_10">
      <g>
       <use style="stroke:#000000;stroke-width:0.8;" x="50.85082" xlink:href="#m7206281cfc" y="42.903664"/>
      </g>
     </g>
     <g id="text_10">
      <!-- 14000 -->
      <g transform="translate(12.03832 46.702883)scale(0.1 -0.1)">
       <use xlink:href="#DejaVuSans-49"/>
       <use x="63.623047" xlink:href="#DejaVuSans-52"/>
       <use x="127.246094" xlink:href="#DejaVuSans-48"/>
       <use x="190.869141" xlink:href="#DejaVuSans-48"/>
       <use x="254.492188" xlink:href="#DejaVuSans-48"/>
      </g>
     </g>
    </g>
   </g>
   <g id="line2d_11">
    <path clip-path="url(#p8264bd7a84)" d="M 55.006507 325.775175 
L 55.770421 325.735653 
L 56.534334 325.681086 
L 57.298247 325.610613 
L 58.06216 325.522274 
L 58.826073 325.414436 
L 59.589986 325.285893 
L 60.353899 325.135476 
L 61.117813 324.962317 
L 61.881726 324.765559 
L 62.645639 324.543474 
L 63.409552 324.293309 
L 64.173465 324.011049 
L 64.937378 323.691389 
L 65.701291 323.328376 
L 66.465205 322.914988 
L 67.229118 322.443942 
L 67.993031 321.910246 
L 68.756944 321.311601 
L 69.520857 320.648773 
L 70.28477 319.925904 
L 71.048683 319.149832 
L 71.812597 318.331409 
L 72.57651 317.484316 
L 73.340423 316.62121 
L 74.104336 315.753726 
L 74.868249 314.892093 
L 75.632162 314.04463 
L 76.396075 313.217383 
L 77.159989 312.41217 
L 77.923902 311.627476 
L 78.687815 310.862046 
L 79.451728 310.114356 
L 80.215641 309.38274 
L 80.979554 308.664788 
L 81.743467 307.958245 
L 82.507381 307.261806 
L 83.271294 306.574636 
L 84.035207 305.893436 
L 84.79912 305.212397 
L 85.563033 304.523232 
L 86.326946 303.817766 
L 87.090859 303.08833 
L 87.854773 302.328929 
L 88.618686 301.535386 
L 89.382599 300.707288 
L 90.146512 299.848392 
L 90.910425 298.967124 
L 91.674338 298.072966 
L 92.438252 297.174329 
L 93.202165 296.276382 
L 93.966078 295.381138 
L 94.729991 294.486913 
L 95.493904 293.588714 
L 96.257817 292.676504 
L 97.02173 291.737511 
L 97.785644 290.758416 
L 98.549557 289.726336 
L 99.31347 288.628557 
L 100.077383 287.452257 
L 100.841296 286.183113 
L 101.605209 284.807453 
L 102.369122 283.312081 
L 103.133036 281.683267 
L 103.896949 279.908077 
L 104.660862 277.974279 
L 105.424775 275.870638 
L 106.188688 273.588207 
L 106.952601 271.119407 
L 107.716514 268.456955 
L 108.480428 265.593695 
L 109.244341 262.521223 
L 110.008254 259.229512 
L 110.772167 255.70749 
L 111.53608 251.943142 
L 112.299993 247.923729 
L 113.063906 243.638904 
L 113.82782 239.08119 
L 114.591733 234.243918 
L 115.355646 229.127898 
L 116.119559 223.738171 
L 116.883472 218.083528 
L 117.647385 212.175808 
L 118.411298 206.020853 
L 119.175212 199.620357 
L 119.939125 192.976978 
L 120.703038 186.076136 
L 121.466951 178.890052 
L 122.230864 171.373986 
L 122.994777 163.46063 
L 123.75869 155.07628 
L 124.522604 146.134894 
L 125.286517 136.53915 
L 126.05043 126.205146 
L 126.814343 115.061922 
L 127.578256 103.098835 
L 128.342169 90.33754 
L 129.106082 76.818443 
L 129.869996 62.809525 
L 130.633909 48.370691 
L 131.397822 33.568239 
" style="fill:none;stroke:#ff0000;stroke-linecap:square;stroke-width:1.5;"/>
   </g>
   <g id="patch_104">
    <path d="M 50.85082 325.921635 
L 50.85082 18.118365 
" style="fill:none;stroke:#000000;stroke-linecap:square;stroke-linejoin:miter;stroke-width:0.8;"/>
   </g>
   <g id="patch_105">
    <path d="M 135.553509 325.921635 
L 135.553509 18.118365 
" style="fill:none;stroke:#000000;stroke-linecap:square;stroke-linejoin:miter;stroke-width:0.8;"/>
   </g>
   <g id="patch_106">
    <path d="M 50.85082 325.921635 
L 135.553509 325.921635 
" style="fill:none;stroke:#000000;stroke-linecap:square;stroke-linejoin:miter;stroke-width:0.8;"/>
   </g>
   <g id="patch_107">
    <path d="M 50.85082 18.118365 
L 135.553509 18.118365 
" style="fill:none;stroke:#000000;stroke-linecap:square;stroke-linejoin:miter;stroke-width:0.8;"/>
   </g>
   <g id="text_11">
    <!-- Casos acumulados - PR - (data) -->
    <defs>
     <path d="M 64.40625 67.28125 
L 64.40625 56.890625 
Q 59.421875 61.53125 53.78125 63.8125 
Q 48.140625 66.109375 41.796875 66.109375 
Q 29.296875 66.109375 22.65625 58.46875 
Q 16.015625 50.828125 16.015625 36.375 
Q 16.015625 21.96875 22.65625 14.328125 
Q 29.296875 6.6875 41.796875 6.6875 
Q 48.140625 6.6875 53.78125 8.984375 
Q 59.421875 11.28125 64.40625 15.921875 
L 64.40625 5.609375 
Q 59.234375 2.09375 53.4375 0.328125 
Q 47.65625 -1.421875 41.21875 -1.421875 
Q 24.65625 -1.421875 15.125 8.703125 
Q 5.609375 18.84375 5.609375 36.375 
Q 5.609375 53.953125 15.125 64.078125 
Q 24.65625 74.21875 41.21875 74.21875 
Q 47.75 74.21875 53.53125 72.484375 
Q 59.328125 70.75 64.40625 67.28125 
z
" id="DejaVuSans-67"/>
     <path d="M 34.28125 27.484375 
Q 23.390625 27.484375 19.1875 25 
Q 14.984375 22.515625 14.984375 16.5 
Q 14.984375 11.71875 18.140625 8.90625 
Q 21.296875 6.109375 26.703125 6.109375 
Q 34.1875 6.109375 38.703125 11.40625 
Q 43.21875 16.703125 43.21875 25.484375 
L 43.21875 27.484375 
z
M 52.203125 31.203125 
L 52.203125 0 
L 43.21875 0 
L 43.21875 8.296875 
Q 40.140625 3.328125 35.546875 0.953125 
Q 30.953125 -1.421875 24.3125 -1.421875 
Q 15.921875 -1.421875 10.953125 3.296875 
Q 6 8.015625 6 15.921875 
Q 6 25.140625 12.171875 29.828125 
Q 18.359375 34.515625 30.609375 34.515625 
L 43.21875 34.515625 
L 43.21875 35.40625 
Q 43.21875 41.609375 39.140625 45 
Q 35.0625 48.390625 27.6875 48.390625 
Q 23 48.390625 18.546875 47.265625 
Q 14.109375 46.140625 10.015625 43.890625 
L 10.015625 52.203125 
Q 14.9375 54.109375 19.578125 55.046875 
Q 24.21875 56 28.609375 56 
Q 40.484375 56 46.34375 49.84375 
Q 52.203125 43.703125 52.203125 31.203125 
z
" id="DejaVuSans-97"/>
     <path d="M 44.28125 53.078125 
L 44.28125 44.578125 
Q 40.484375 46.53125 36.375 47.5 
Q 32.28125 48.484375 27.875 48.484375 
Q 21.1875 48.484375 17.84375 46.4375 
Q 14.5 44.390625 14.5 40.28125 
Q 14.5 37.15625 16.890625 35.375 
Q 19.28125 33.59375 26.515625 31.984375 
L 29.59375 31.296875 
Q 39.15625 29.25 43.1875 25.515625 
Q 47.21875 21.78125 47.21875 15.09375 
Q 47.21875 7.46875 41.1875 3.015625 
Q 35.15625 -1.421875 24.609375 -1.421875 
Q 20.21875 -1.421875 15.453125 -0.5625 
Q 10.6875 0.296875 5.421875 2 
L 5.421875 11.28125 
Q 10.40625 8.6875 15.234375 7.390625 
Q 20.0625 6.109375 24.8125 6.109375 
Q 31.15625 6.109375 34.5625 8.28125 
Q 37.984375 10.453125 37.984375 14.40625 
Q 37.984375 18.0625 35.515625 20.015625 
Q 33.0625 21.96875 24.703125 23.78125 
L 21.578125 24.515625 
Q 13.234375 26.265625 9.515625 29.90625 
Q 5.8125 33.546875 5.8125 39.890625 
Q 5.8125 47.609375 11.28125 51.796875 
Q 16.75 56 26.8125 56 
Q 31.78125 56 36.171875 55.265625 
Q 40.578125 54.546875 44.28125 53.078125 
z
" id="DejaVuSans-115"/>
     <path d="M 30.609375 48.390625 
Q 23.390625 48.390625 19.1875 42.75 
Q 14.984375 37.109375 14.984375 27.296875 
Q 14.984375 17.484375 19.15625 11.84375 
Q 23.34375 6.203125 30.609375 6.203125 
Q 37.796875 6.203125 41.984375 11.859375 
Q 46.1875 17.53125 46.1875 27.296875 
Q 46.1875 37.015625 41.984375 42.703125 
Q 37.796875 48.390625 30.609375 48.390625 
z
M 30.609375 56 
Q 42.328125 56 49.015625 48.375 
Q 55.71875 40.765625 55.71875 27.296875 
Q 55.71875 13.875 49.015625 6.21875 
Q 42.328125 -1.421875 30.609375 -1.421875 
Q 18.84375 -1.421875 12.171875 6.21875 
Q 5.515625 13.875 5.515625 27.296875 
Q 5.515625 40.765625 12.171875 48.375 
Q 18.84375 56 30.609375 56 
z
" id="DejaVuSans-111"/>
     <path id="DejaVuSans-32"/>
     <path d="M 48.78125 52.59375 
L 48.78125 44.1875 
Q 44.96875 46.296875 41.140625 47.34375 
Q 37.3125 48.390625 33.40625 48.390625 
Q 24.65625 48.390625 19.8125 42.84375 
Q 14.984375 37.3125 14.984375 27.296875 
Q 14.984375 17.28125 19.8125 11.734375 
Q 24.65625 6.203125 33.40625 6.203125 
Q 37.3125 6.203125 41.140625 7.25 
Q 44.96875 8.296875 48.78125 10.40625 
L 48.78125 2.09375 
Q 45.015625 0.34375 40.984375 -0.53125 
Q 36.96875 -1.421875 32.421875 -1.421875 
Q 20.0625 -1.421875 12.78125 6.34375 
Q 5.515625 14.109375 5.515625 27.296875 
Q 5.515625 40.671875 12.859375 48.328125 
Q 20.21875 56 33.015625 56 
Q 37.15625 56 41.109375 55.140625 
Q 45.0625 54.296875 48.78125 52.59375 
z
" id="DejaVuSans-99"/>
     <path d="M 8.5 21.578125 
L 8.5 54.6875 
L 17.484375 54.6875 
L 17.484375 21.921875 
Q 17.484375 14.15625 20.5 10.265625 
Q 23.53125 6.390625 29.59375 6.390625 
Q 36.859375 6.390625 41.078125 11.03125 
Q 45.3125 15.671875 45.3125 23.6875 
L 45.3125 54.6875 
L 54.296875 54.6875 
L 54.296875 0 
L 45.3125 0 
L 45.3125 8.40625 
Q 42.046875 3.421875 37.71875 1 
Q 33.40625 -1.421875 27.6875 -1.421875 
Q 18.265625 -1.421875 13.375 4.4375 
Q 8.5 10.296875 8.5 21.578125 
z
M 31.109375 56 
z
" id="DejaVuSans-117"/>
     <path d="M 52 44.1875 
Q 55.375 50.25 60.0625 53.125 
Q 64.75 56 71.09375 56 
Q 79.640625 56 84.28125 50.015625 
Q 88.921875 44.046875 88.921875 33.015625 
L 88.921875 0 
L 79.890625 0 
L 79.890625 32.71875 
Q 79.890625 40.578125 77.09375 44.375 
Q 74.3125 48.1875 68.609375 48.1875 
Q 61.625 48.1875 57.5625 43.546875 
Q 53.515625 38.921875 53.515625 30.90625 
L 53.515625 0 
L 44.484375 0 
L 44.484375 32.71875 
Q 44.484375 40.625 41.703125 44.40625 
Q 38.921875 48.1875 33.109375 48.1875 
Q 26.21875 48.1875 22.15625 43.53125 
Q 18.109375 38.875 18.109375 30.90625 
L 18.109375 0 
L 9.078125 0 
L 9.078125 54.6875 
L 18.109375 54.6875 
L 18.109375 46.1875 
Q 21.1875 51.21875 25.484375 53.609375 
Q 29.78125 56 35.6875 56 
Q 41.65625 56 45.828125 52.96875 
Q 50 49.953125 52 44.1875 
z
" id="DejaVuSans-109"/>
     <path d="M 9.421875 75.984375 
L 18.40625 75.984375 
L 18.40625 0 
L 9.421875 0 
z
" id="DejaVuSans-108"/>
     <path d="M 45.40625 46.390625 
L 45.40625 75.984375 
L 54.390625 75.984375 
L 54.390625 0 
L 45.40625 0 
L 45.40625 8.203125 
Q 42.578125 3.328125 38.25 0.953125 
Q 33.9375 -1.421875 27.875 -1.421875 
Q 17.96875 -1.421875 11.734375 6.484375 
Q 5.515625 14.40625 5.515625 27.296875 
Q 5.515625 40.1875 11.734375 48.09375 
Q 17.96875 56 27.875 56 
Q 33.9375 56 38.25 53.625 
Q 42.578125 51.265625 45.40625 46.390625 
z
M 14.796875 27.296875 
Q 14.796875 17.390625 18.875 11.75 
Q 22.953125 6.109375 30.078125 6.109375 
Q 37.203125 6.109375 41.296875 11.75 
Q 45.40625 17.390625 45.40625 27.296875 
Q 45.40625 37.203125 41.296875 42.84375 
Q 37.203125 48.484375 30.078125 48.484375 
Q 22.953125 48.484375 18.875 42.84375 
Q 14.796875 37.203125 14.796875 27.296875 
z
" id="DejaVuSans-100"/>
     <path d="M 4.890625 31.390625 
L 31.203125 31.390625 
L 31.203125 23.390625 
L 4.890625 23.390625 
z
" id="DejaVuSans-45"/>
     <path d="M 19.671875 64.796875 
L 19.671875 37.40625 
L 32.078125 37.40625 
Q 38.96875 37.40625 42.71875 40.96875 
Q 46.484375 44.53125 46.484375 51.125 
Q 46.484375 57.671875 42.71875 61.234375 
Q 38.96875 64.796875 32.078125 64.796875 
z
M 9.8125 72.90625 
L 32.078125 72.90625 
Q 44.34375 72.90625 50.609375 67.359375 
Q 56.890625 61.8125 56.890625 51.125 
Q 56.890625 40.328125 50.609375 34.8125 
Q 44.34375 29.296875 32.078125 29.296875 
L 19.671875 29.296875 
L 19.671875 0 
L 9.8125 0 
z
" id="DejaVuSans-80"/>
     <path d="M 44.390625 34.1875 
Q 47.5625 33.109375 50.5625 29.59375 
Q 53.5625 26.078125 56.59375 19.921875 
L 66.609375 0 
L 56 0 
L 46.6875 18.703125 
Q 43.0625 26.03125 39.671875 28.421875 
Q 36.28125 30.8125 30.421875 30.8125 
L 19.671875 30.8125 
L 19.671875 0 
L 9.8125 0 
L 9.8125 72.90625 
L 32.078125 72.90625 
Q 44.578125 72.90625 50.734375 67.671875 
Q 56.890625 62.453125 56.890625 51.90625 
Q 56.890625 45.015625 53.6875 40.46875 
Q 50.484375 35.9375 44.390625 34.1875 
z
M 19.671875 64.796875 
L 19.671875 38.921875 
L 32.078125 38.921875 
Q 39.203125 38.921875 42.84375 42.21875 
Q 46.484375 45.515625 46.484375 51.90625 
Q 46.484375 58.296875 42.84375 61.546875 
Q 39.203125 64.796875 32.078125 64.796875 
z
" id="DejaVuSans-82"/>
     <path d="M 31 75.875 
Q 24.46875 64.65625 21.28125 53.65625 
Q 18.109375 42.671875 18.109375 31.390625 
Q 18.109375 20.125 21.3125 9.0625 
Q 24.515625 -2 31 -13.1875 
L 23.1875 -13.1875 
Q 15.875 -1.703125 12.234375 9.375 
Q 8.59375 20.453125 8.59375 31.390625 
Q 8.59375 42.28125 12.203125 53.3125 
Q 15.828125 64.359375 23.1875 75.875 
z
" id="DejaVuSans-40"/>
     <path d="M 18.3125 70.21875 
L 18.3125 54.6875 
L 36.8125 54.6875 
L 36.8125 47.703125 
L 18.3125 47.703125 
L 18.3125 18.015625 
Q 18.3125 11.328125 20.140625 9.421875 
Q 21.96875 7.515625 27.59375 7.515625 
L 36.8125 7.515625 
L 36.8125 0 
L 27.59375 0 
Q 17.1875 0 13.234375 3.875 
Q 9.28125 7.765625 9.28125 18.015625 
L 9.28125 47.703125 
L 2.6875 47.703125 
L 2.6875 54.6875 
L 9.28125 54.6875 
L 9.28125 70.21875 
z
" id="DejaVuSans-116"/>
     <path d="M 8.015625 75.875 
L 15.828125 75.875 
Q 23.140625 64.359375 26.78125 53.3125 
Q 30.421875 42.28125 30.421875 31.390625 
Q 30.421875 20.453125 26.78125 9.375 
Q 23.140625 -1.703125 15.828125 -13.1875 
L 8.015625 -13.1875 
Q 14.5 -2 17.703125 9.0625 
Q 20.90625 20.125 20.90625 31.390625 
Q 20.90625 42.671875 17.703125 53.65625 
Q 14.5 64.65625 8.015625 75.875 
z
" id="DejaVuSans-41"/>
    </defs>
    <g transform="translate(-0.809398 12.118365)scale(0.12 -0.12)">
     <use xlink:href="#DejaVuSans-67"/>
     <use x="69.824219" xlink:href="#DejaVuSans-97"/>
     <use x="131.103516" xlink:href="#DejaVuSans-115"/>
     <use x="183.203125" xlink:href="#DejaVuSans-111"/>
     <use x="244.384766" xlink:href="#DejaVuSans-115"/>
     <use x="296.484375" xlink:href="#DejaVuSans-32"/>
     <use x="328.271484" xlink:href="#DejaVuSans-97"/>
     <use x="389.550781" xlink:href="#DejaVuSans-99"/>
     <use x="444.53125" xlink:href="#DejaVuSans-117"/>
     <use x="507.910156" xlink:href="#DejaVuSans-109"/>
     <use x="605.322266" xlink:href="#DejaVuSans-117"/>
     <use x="668.701172" xlink:href="#DejaVuSans-108"/>
     <use x="696.484375" xlink:href="#DejaVuSans-97"/>
     <use x="757.763672" xlink:href="#DejaVuSans-100"/>
     <use x="821.240234" xlink:href="#DejaVuSans-111"/>
     <use x="882.421875" xlink:href="#DejaVuSans-115"/>
     <use x="934.521484" xlink:href="#DejaVuSans-32"/>
     <use x="966.308594" xlink:href="#DejaVuSans-45"/>
     <use x="1002.392578" xlink:href="#DejaVuSans-32"/>
     <use x="1034.179688" xlink:href="#DejaVuSans-80"/>
     <use x="1094.482422" xlink:href="#DejaVuSans-82"/>
     <use x="1163.964844" xlink:href="#DejaVuSans-32"/>
     <use x="1195.751953" xlink:href="#DejaVuSans-45"/>
     <use x="1231.835938" xlink:href="#DejaVuSans-32"/>
     <use x="1263.623047" xlink:href="#DejaVuSans-40"/>
     <use x="1302.636719" xlink:href="#DejaVuSans-100"/>
     <use x="1366.113281" xlink:href="#DejaVuSans-97"/>
     <use x="1427.392578" xlink:href="#DejaVuSans-116"/>
     <use x="1466.601562" xlink:href="#DejaVuSans-97"/>
     <use x="1527.880859" xlink:href="#DejaVuSans-41"/>
    </g>
   </g>
  </g>
  <g id="axes_2">
   <g id="patch_108">
    <path d="M 221.774024 325.921635 
L 306.476714 325.921635 
L 306.476714 18.118365 
L 221.774024 18.118365 
z
" style="fill:#ffffff;"/>
   </g>
   <g id="patch_109">
    <path clip-path="url(#pfc66c27209)" d="M 225.624147 325.921635 
L 226.235277 325.921635 
L 226.235277 325.921635 
L 225.624147 325.921635 
z
" style="fill:#1f77b4;"/>
   </g>
   <g id="patch_110">
    <path clip-path="url(#pfc66c27209)" d="M 226.38806 325.921635 
L 226.99919 325.921635 
L 226.99919 325.921635 
L 226.38806 325.921635 
z
" style="fill:#1f77b4;"/>
   </g>
   <g id="patch_111">
    <path clip-path="url(#pfc66c27209)" d="M 227.151973 325.921635 
L 227.763103 325.921635 
L 227.763103 325.921635 
L 227.151973 325.921635 
z
" style="fill:#1f77b4;"/>
   </g>
   <g id="patch_112">
    <path clip-path="url(#pfc66c27209)" d="M 227.915886 325.921635 
L 228.527016 325.921635 
L 228.527016 325.921635 
L 227.915886 325.921635 
z
" style="fill:#1f77b4;"/>
   </g>
   <g id="patch_113">
    <path clip-path="url(#pfc66c27209)" d="M 228.679799 325.921635 
L 229.29093 325.921635 
L 229.29093 325.921635 
L 228.679799 325.921635 
z
" style="fill:#1f77b4;"/>
   </g>
   <g id="patch_114">
    <path clip-path="url(#pfc66c27209)" d="M 229.443712 325.921635 
L 230.054843 325.921635 
L 230.054843 323.581815 
L 229.443712 323.581815 
z
" style="fill:#1f77b4;"/>
   </g>
   <g id="patch_115">
    <path clip-path="url(#pfc66c27209)" d="M 230.207625 325.921635 
L 230.818756 325.921635 
L 230.818756 322.579036 
L 230.207625 322.579036 
z
" style="fill:#1f77b4;"/>
   </g>
   <g id="patch_116">
    <path clip-path="url(#pfc66c27209)" d="M 230.971539 325.921635 
L 231.582669 325.921635 
L 231.582669 322.913295 
L 230.971539 322.913295 
z
" style="fill:#1f77b4;"/>
   </g>
   <g id="patch_117">
    <path clip-path="url(#pfc66c27209)" d="M 231.735452 325.921635 
L 232.346582 325.921635 
L 232.346582 322.244776 
L 231.735452 322.244776 
z
" style="fill:#1f77b4;"/>
   </g>
   <g id="patch_118">
    <path clip-path="url(#pfc66c27209)" d="M 232.499365 325.921635 
L 233.110495 325.921635 
L 233.110495 323.581815 
L 232.499365 323.581815 
z
" style="fill:#1f77b4;"/>
   </g>
   <g id="patch_119">
    <path clip-path="url(#pfc66c27209)" d="M 233.263278 325.921635 
L 233.874408 325.921635 
L 233.874408 323.916075 
L 233.263278 323.916075 
z
" style="fill:#1f77b4;"/>
   </g>
   <g id="patch_120">
    <path clip-path="url(#pfc66c27209)" d="M 234.027191 325.921635 
L 234.638322 325.921635 
L 234.638322 322.913295 
L 234.027191 322.913295 
z
" style="fill:#1f77b4;"/>
   </g>
   <g id="patch_121">
    <path clip-path="url(#pfc66c27209)" d="M 234.791104 325.921635 
L 235.402235 325.921635 
L 235.402235 320.573476 
L 234.791104 320.573476 
z
" style="fill:#1f77b4;"/>
   </g>
   <g id="patch_122">
    <path clip-path="url(#pfc66c27209)" d="M 235.555017 325.921635 
L 236.166148 325.921635 
L 236.166148 318.902176 
L 235.555017 318.902176 
z
" style="fill:#1f77b4;"/>
   </g>
   <g id="patch_123">
    <path clip-path="url(#pfc66c27209)" d="M 236.318931 325.921635 
L 236.930061 325.921635 
L 236.930061 320.239216 
L 236.318931 320.239216 
z
" style="fill:#1f77b4;"/>
   </g>
   <g id="patch_124">
    <path clip-path="url(#pfc66c27209)" d="M 237.082844 325.921635 
L 237.693974 325.921635 
L 237.693974 321.241996 
L 237.082844 321.241996 
z
" style="fill:#1f77b4;"/>
   </g>
   <g id="patch_125">
    <path clip-path="url(#pfc66c27209)" d="M 237.846757 325.921635 
L 238.457887 325.921635 
L 238.457887 320.907736 
L 237.846757 320.907736 
z
" style="fill:#1f77b4;"/>
   </g>
   <g id="patch_126">
    <path clip-path="url(#pfc66c27209)" d="M 238.61067 325.921635 
L 239.2218 325.921635 
L 239.2218 323.581815 
L 238.61067 323.581815 
z
" style="fill:#1f77b4;"/>
   </g>
   <g id="patch_127">
    <path clip-path="url(#pfc66c27209)" d="M 239.374583 325.921635 
L 239.985714 325.921635 
L 239.985714 317.899396 
L 239.374583 317.899396 
z
" style="fill:#1f77b4;"/>
   </g>
   <g id="patch_128">
    <path clip-path="url(#pfc66c27209)" d="M 240.138496 325.921635 
L 240.749627 325.921635 
L 240.749627 310.879937 
L 240.138496 310.879937 
z
" style="fill:#1f77b4;"/>
   </g>
   <g id="patch_129">
    <path clip-path="url(#pfc66c27209)" d="M 240.902409 325.921635 
L 241.51354 325.921635 
L 241.51354 316.562357 
L 240.902409 316.562357 
z
" style="fill:#1f77b4;"/>
   </g>
   <g id="patch_130">
    <path clip-path="url(#pfc66c27209)" d="M 241.666323 325.921635 
L 242.277453 325.921635 
L 242.277453 309.542898 
L 241.666323 309.542898 
z
" style="fill:#1f77b4;"/>
   </g>
   <g id="patch_131">
    <path clip-path="url(#pfc66c27209)" d="M 242.430236 325.921635 
L 243.041366 325.921635 
L 243.041366 294.5012 
L 242.430236 294.5012 
z
" style="fill:#1f77b4;"/>
   </g>
   <g id="patch_132">
    <path clip-path="url(#pfc66c27209)" d="M 243.194149 325.921635 
L 243.805279 325.921635 
L 243.805279 311.548457 
L 243.194149 311.548457 
z
" style="fill:#1f77b4;"/>
   </g>
   <g id="patch_133">
    <path clip-path="url(#pfc66c27209)" d="M 243.958062 325.921635 
L 244.569192 325.921635 
L 244.569192 319.236436 
L 243.958062 319.236436 
z
" style="fill:#1f77b4;"/>
   </g>
   <g id="patch_134">
    <path clip-path="url(#pfc66c27209)" d="M 244.721975 325.921635 
L 245.333106 325.921635 
L 245.333106 310.879937 
L 244.721975 310.879937 
z
" style="fill:#1f77b4;"/>
   </g>
   <g id="patch_135">
    <path clip-path="url(#pfc66c27209)" d="M 245.485888 325.921635 
L 246.097019 325.921635 
L 246.097019 313.888277 
L 245.485888 313.888277 
z
" style="fill:#1f77b4;"/>
   </g>
   <g id="patch_136">
    <path clip-path="url(#pfc66c27209)" d="M 246.249801 325.921635 
L 246.860932 325.921635 
L 246.860932 302.523439 
L 246.249801 302.523439 
z
" style="fill:#1f77b4;"/>
   </g>
   <g id="patch_137">
    <path clip-path="url(#pfc66c27209)" d="M 247.013715 325.921635 
L 247.624845 325.921635 
L 247.624845 314.556797 
L 247.013715 314.556797 
z
" style="fill:#1f77b4;"/>
   </g>
   <g id="patch_138">
    <path clip-path="url(#pfc66c27209)" d="M 247.777628 325.921635 
L 248.388758 325.921635 
L 248.388758 314.891057 
L 247.777628 314.891057 
z
" style="fill:#1f77b4;"/>
   </g>
   <g id="patch_139">
    <path clip-path="url(#pfc66c27209)" d="M 248.541541 325.921635 
L 249.152671 325.921635 
L 249.152671 305.197518 
L 248.541541 305.197518 
z
" style="fill:#1f77b4;"/>
   </g>
   <g id="patch_140">
    <path clip-path="url(#pfc66c27209)" d="M 249.305454 325.921635 
L 249.916584 325.921635 
L 249.916584 319.904956 
L 249.305454 319.904956 
z
" style="fill:#1f77b4;"/>
   </g>
   <g id="patch_141">
    <path clip-path="url(#pfc66c27209)" d="M 250.069367 325.921635 
L 250.680498 325.921635 
L 250.680498 314.222537 
L 250.069367 314.222537 
z
" style="fill:#1f77b4;"/>
   </g>
   <g id="patch_142">
    <path clip-path="url(#pfc66c27209)" d="M 250.83328 325.921635 
L 251.444411 325.921635 
L 251.444411 321.910516 
L 250.83328 321.910516 
z
" style="fill:#1f77b4;"/>
   </g>
   <g id="patch_143">
    <path clip-path="url(#pfc66c27209)" d="M 251.597193 325.921635 
L 252.208324 325.921635 
L 252.208324 316.228097 
L 251.597193 316.228097 
z
" style="fill:#1f77b4;"/>
   </g>
   <g id="patch_144">
    <path clip-path="url(#pfc66c27209)" d="M 252.361107 325.921635 
L 252.972237 325.921635 
L 252.972237 311.882717 
L 252.361107 311.882717 
z
" style="fill:#1f77b4;"/>
   </g>
   <g id="patch_145">
    <path clip-path="url(#pfc66c27209)" d="M 253.12502 325.921635 
L 253.73615 325.921635 
L 253.73615 302.189179 
L 253.12502 302.189179 
z
" style="fill:#1f77b4;"/>
   </g>
   <g id="patch_146">
    <path clip-path="url(#pfc66c27209)" d="M 253.888933 325.921635 
L 254.500063 325.921635 
L 254.500063 311.882717 
L 253.888933 311.882717 
z
" style="fill:#1f77b4;"/>
   </g>
   <g id="patch_147">
    <path clip-path="url(#pfc66c27209)" d="M 254.652846 325.921635 
L 255.263976 325.921635 
L 255.263976 319.236436 
L 254.652846 319.236436 
z
" style="fill:#1f77b4;"/>
   </g>
   <g id="patch_148">
    <path clip-path="url(#pfc66c27209)" d="M 255.416759 325.921635 
L 256.02789 325.921635 
L 256.02789 320.239216 
L 255.416759 320.239216 
z
" style="fill:#1f77b4;"/>
   </g>
   <g id="patch_149">
    <path clip-path="url(#pfc66c27209)" d="M 256.180672 325.921635 
L 256.791803 325.921635 
L 256.791803 312.885497 
L 256.180672 312.885497 
z
" style="fill:#1f77b4;"/>
   </g>
   <g id="patch_150">
    <path clip-path="url(#pfc66c27209)" d="M 256.944585 325.921635 
L 257.555716 325.921635 
L 257.555716 319.570696 
L 256.944585 319.570696 
z
" style="fill:#1f77b4;"/>
   </g>
   <g id="patch_151">
    <path clip-path="url(#pfc66c27209)" d="M 257.708499 325.921635 
L 258.319629 325.921635 
L 258.319629 313.554017 
L 257.708499 313.554017 
z
" style="fill:#1f77b4;"/>
   </g>
   <g id="patch_152">
    <path clip-path="url(#pfc66c27209)" d="M 258.472412 325.921635 
L 259.083542 325.921635 
L 259.083542 318.902176 
L 258.472412 318.902176 
z
" style="fill:#1f77b4;"/>
   </g>
   <g id="patch_153">
    <path clip-path="url(#pfc66c27209)" d="M 259.236325 325.921635 
L 259.847455 325.921635 
L 259.847455 320.573476 
L 259.236325 320.573476 
z
" style="fill:#1f77b4;"/>
   </g>
   <g id="patch_154">
    <path clip-path="url(#pfc66c27209)" d="M 260.000238 325.921635 
L 260.611368 325.921635 
L 260.611368 315.893837 
L 260.000238 315.893837 
z
" style="fill:#1f77b4;"/>
   </g>
   <g id="patch_155">
    <path clip-path="url(#pfc66c27209)" d="M 260.764151 325.921635 
L 261.375282 325.921635 
L 261.375282 297.50954 
L 260.764151 297.50954 
z
" style="fill:#1f77b4;"/>
   </g>
   <g id="patch_156">
    <path clip-path="url(#pfc66c27209)" d="M 261.528064 325.921635 
L 262.139195 325.921635 
L 262.139195 300.183619 
L 261.528064 300.183619 
z
" style="fill:#1f77b4;"/>
   </g>
   <g id="patch_157">
    <path clip-path="url(#pfc66c27209)" d="M 262.291977 325.921635 
L 262.903108 325.921635 
L 262.903108 306.200298 
L 262.291977 306.200298 
z
" style="fill:#1f77b4;"/>
   </g>
   <g id="patch_158">
    <path clip-path="url(#pfc66c27209)" d="M 263.055891 325.921635 
L 263.667021 325.921635 
L 263.667021 312.551237 
L 263.055891 312.551237 
z
" style="fill:#1f77b4;"/>
   </g>
   <g id="patch_159">
    <path clip-path="url(#pfc66c27209)" d="M 263.819804 325.921635 
L 264.430934 325.921635 
L 264.430934 310.879937 
L 263.819804 310.879937 
z
" style="fill:#1f77b4;"/>
   </g>
   <g id="patch_160">
    <path clip-path="url(#pfc66c27209)" d="M 264.583717 325.921635 
L 265.194847 325.921635 
L 265.194847 318.567916 
L 264.583717 318.567916 
z
" style="fill:#1f77b4;"/>
   </g>
   <g id="patch_161">
    <path clip-path="url(#pfc66c27209)" d="M 265.34763 325.921635 
L 265.95876 325.921635 
L 265.95876 309.877158 
L 265.34763 309.877158 
z
" style="fill:#1f77b4;"/>
   </g>
   <g id="patch_162">
    <path clip-path="url(#pfc66c27209)" d="M 266.111543 325.921635 
L 266.722674 325.921635 
L 266.722674 317.230876 
L 266.111543 317.230876 
z
" style="fill:#1f77b4;"/>
   </g>
   <g id="patch_163">
    <path clip-path="url(#pfc66c27209)" d="M 266.875456 325.921635 
L 267.486587 325.921635 
L 267.486587 312.885497 
L 266.875456 312.885497 
z
" style="fill:#1f77b4;"/>
   </g>
   <g id="patch_164">
    <path clip-path="url(#pfc66c27209)" d="M 267.639369 325.921635 
L 268.2505 325.921635 
L 268.2505 316.228097 
L 267.639369 316.228097 
z
" style="fill:#1f77b4;"/>
   </g>
   <g id="patch_165">
    <path clip-path="url(#pfc66c27209)" d="M 268.403283 325.921635 
L 269.014413 325.921635 
L 269.014413 307.537338 
L 268.403283 307.537338 
z
" style="fill:#1f77b4;"/>
   </g>
   <g id="patch_166">
    <path clip-path="url(#pfc66c27209)" d="M 269.167196 325.921635 
L 269.778326 325.921635 
L 269.778326 301.186399 
L 269.167196 301.186399 
z
" style="fill:#1f77b4;"/>
   </g>
   <g id="patch_167">
    <path clip-path="url(#pfc66c27209)" d="M 269.931109 325.921635 
L 270.542239 325.921635 
L 270.542239 309.208638 
L 269.931109 309.208638 
z
" style="fill:#1f77b4;"/>
   </g>
   <g id="patch_168">
    <path clip-path="url(#pfc66c27209)" d="M 270.695022 325.921635 
L 271.306152 325.921635 
L 271.306152 321.241996 
L 270.695022 321.241996 
z
" style="fill:#1f77b4;"/>
   </g>
   <g id="patch_169">
    <path clip-path="url(#pfc66c27209)" d="M 271.458935 325.921635 
L 272.070066 325.921635 
L 272.070066 306.868818 
L 271.458935 306.868818 
z
" style="fill:#1f77b4;"/>
   </g>
   <g id="patch_170">
    <path clip-path="url(#pfc66c27209)" d="M 272.222848 325.921635 
L 272.833979 325.921635 
L 272.833979 295.83824 
L 272.222848 295.83824 
z
" style="fill:#1f77b4;"/>
   </g>
   <g id="patch_171">
    <path clip-path="url(#pfc66c27209)" d="M 272.986761 325.921635 
L 273.597892 325.921635 
L 273.597892 303.526219 
L 272.986761 303.526219 
z
" style="fill:#1f77b4;"/>
   </g>
   <g id="patch_172">
    <path clip-path="url(#pfc66c27209)" d="M 273.750675 325.921635 
L 274.361805 325.921635 
L 274.361805 300.517879 
L 273.750675 300.517879 
z
" style="fill:#1f77b4;"/>
   </g>
   <g id="patch_173">
    <path clip-path="url(#pfc66c27209)" d="M 274.514588 325.921635 
L 275.125718 325.921635 
L 275.125718 291.492861 
L 274.514588 291.492861 
z
" style="fill:#1f77b4;"/>
   </g>
   <g id="patch_174">
    <path clip-path="url(#pfc66c27209)" d="M 275.278501 325.921635 
L 275.889631 325.921635 
L 275.889631 311.214197 
L 275.278501 311.214197 
z
" style="fill:#1f77b4;"/>
   </g>
   <g id="patch_175">
    <path clip-path="url(#pfc66c27209)" d="M 276.042414 325.921635 
L 276.653544 325.921635 
L 276.653544 301.186399 
L 276.042414 301.186399 
z
" style="fill:#1f77b4;"/>
   </g>
   <g id="patch_176">
    <path clip-path="url(#pfc66c27209)" d="M 276.806327 325.921635 
L 277.417458 325.921635 
L 277.417458 285.476182 
L 276.806327 285.476182 
z
" style="fill:#1f77b4;"/>
   </g>
   <g id="patch_177">
    <path clip-path="url(#pfc66c27209)" d="M 277.57024 325.921635 
L 278.181371 325.921635 
L 278.181371 280.796542 
L 277.57024 280.796542 
z
" style="fill:#1f77b4;"/>
   </g>
   <g id="patch_178">
    <path clip-path="url(#pfc66c27209)" d="M 278.334153 325.921635 
L 278.945284 325.921635 
L 278.945284 261.075206 
L 278.334153 261.075206 
z
" style="fill:#1f77b4;"/>
   </g>
   <g id="patch_179">
    <path clip-path="url(#pfc66c27209)" d="M 279.098067 325.921635 
L 279.709197 325.921635 
L 279.709197 282.802102 
L 279.098067 282.802102 
z
" style="fill:#1f77b4;"/>
   </g>
   <g id="patch_180">
    <path clip-path="url(#pfc66c27209)" d="M 279.86198 325.921635 
L 280.47311 325.921635 
L 280.47311 272.440044 
L 279.86198 272.440044 
z
" style="fill:#1f77b4;"/>
   </g>
   <g id="patch_181">
    <path clip-path="url(#pfc66c27209)" d="M 280.625893 325.921635 
L 281.237023 325.921635 
L 281.237023 288.150261 
L 280.625893 288.150261 
z
" style="fill:#1f77b4;"/>
   </g>
   <g id="patch_182">
    <path clip-path="url(#pfc66c27209)" d="M 281.389806 325.921635 
L 282.000937 325.921635 
L 282.000937 286.144702 
L 281.389806 286.144702 
z
" style="fill:#1f77b4;"/>
   </g>
   <g id="patch_183">
    <path clip-path="url(#pfc66c27209)" d="M 282.153719 325.921635 
L 282.76485 325.921635 
L 282.76485 265.420585 
L 282.153719 265.420585 
z
" style="fill:#1f77b4;"/>
   </g>
   <g id="patch_184">
    <path clip-path="url(#pfc66c27209)" d="M 282.917632 325.921635 
L 283.528763 325.921635 
L 283.528763 259.069646 
L 282.917632 259.069646 
z
" style="fill:#1f77b4;"/>
   </g>
   <g id="patch_185">
    <path clip-path="url(#pfc66c27209)" d="M 283.681545 325.921635 
L 284.292676 325.921635 
L 284.292676 235.00293 
L 283.681545 235.00293 
z
" style="fill:#1f77b4;"/>
   </g>
   <g id="patch_186">
    <path clip-path="url(#pfc66c27209)" d="M 284.445459 325.921635 
L 285.056589 325.921635 
L 285.056589 241.688129 
L 284.445459 241.688129 
z
" style="fill:#1f77b4;"/>
   </g>
   <g id="patch_187">
    <path clip-path="url(#pfc66c27209)" d="M 285.209372 325.921635 
L 285.820502 325.921635 
L 285.820502 246.702028 
L 285.209372 246.702028 
z
" style="fill:#1f77b4;"/>
   </g>
   <g id="patch_188">
    <path clip-path="url(#pfc66c27209)" d="M 285.973285 325.921635 
L 286.584415 325.921635 
L 286.584415 254.390007 
L 285.973285 254.390007 
z
" style="fill:#1f77b4;"/>
   </g>
   <g id="patch_189">
    <path clip-path="url(#pfc66c27209)" d="M 286.737198 325.921635 
L 287.348329 325.921635 
L 287.348329 276.451163 
L 286.737198 276.451163 
z
" style="fill:#1f77b4;"/>
   </g>
   <g id="patch_190">
    <path clip-path="url(#pfc66c27209)" d="M 287.501111 325.921635 
L 288.112242 325.921635 
L 288.112242 216.284373 
L 287.501111 216.284373 
z
" style="fill:#1f77b4;"/>
   </g>
   <g id="patch_191">
    <path clip-path="url(#pfc66c27209)" d="M 288.265024 325.921635 
L 288.876155 325.921635 
L 288.876155 215.281593 
L 288.265024 215.281593 
z
" style="fill:#1f77b4;"/>
   </g>
   <g id="patch_192">
    <path clip-path="url(#pfc66c27209)" d="M 289.028937 325.921635 
L 289.640068 325.921635 
L 289.640068 216.952893 
L 289.028937 216.952893 
z
" style="fill:#1f77b4;"/>
   </g>
   <g id="patch_193">
    <path clip-path="url(#pfc66c27209)" d="M 289.792851 325.921635 
L 290.403981 325.921635 
L 290.403981 149.432384 
L 289.792851 149.432384 
z
" style="fill:#1f77b4;"/>
   </g>
   <g id="patch_194">
    <path clip-path="url(#pfc66c27209)" d="M 290.556764 325.921635 
L 291.167894 325.921635 
L 291.167894 240.016829 
L 290.556764 240.016829 
z
" style="fill:#1f77b4;"/>
   </g>
   <g id="patch_195">
    <path clip-path="url(#pfc66c27209)" d="M 291.320677 325.921635 
L 291.931807 325.921635 
L 291.931807 228.317731 
L 291.320677 228.317731 
z
" style="fill:#1f77b4;"/>
   </g>
   <g id="patch_196">
    <path clip-path="url(#pfc66c27209)" d="M 292.08459 325.921635 
L 292.695721 325.921635 
L 292.695721 281.130802 
L 292.08459 281.130802 
z
" style="fill:#1f77b4;"/>
   </g>
   <g id="patch_197">
    <path clip-path="url(#pfc66c27209)" d="M 292.848503 325.921635 
L 293.459634 325.921635 
L 293.459634 231.326071 
L 292.848503 231.326071 
z
" style="fill:#1f77b4;"/>
   </g>
   <g id="patch_198">
    <path clip-path="url(#pfc66c27209)" d="M 293.612416 325.921635 
L 294.223547 325.921635 
L 294.223547 153.109244 
L 293.612416 153.109244 
z
" style="fill:#1f77b4;"/>
   </g>
   <g id="patch_199">
    <path clip-path="url(#pfc66c27209)" d="M 294.376329 325.921635 
L 294.98746 325.921635 
L 294.98746 116.67491 
L 294.376329 116.67491 
z
" style="fill:#1f77b4;"/>
   </g>
   <g id="patch_200">
    <path clip-path="url(#pfc66c27209)" d="M 295.140243 325.921635 
L 295.751373 325.921635 
L 295.751373 243.025169 
L 295.140243 243.025169 
z
" style="fill:#1f77b4;"/>
   </g>
   <g id="patch_201">
    <path clip-path="url(#pfc66c27209)" d="M 295.904156 325.921635 
L 296.515286 325.921635 
L 296.515286 149.432384 
L 295.904156 149.432384 
z
" style="fill:#1f77b4;"/>
   </g>
   <g id="patch_202">
    <path clip-path="url(#pfc66c27209)" d="M 296.668069 325.921635 
L 297.279199 325.921635 
L 297.279199 208.930654 
L 296.668069 208.930654 
z
" style="fill:#1f77b4;"/>
   </g>
   <g id="patch_203">
    <path clip-path="url(#pfc66c27209)" d="M 297.431982 325.921635 
L 298.043113 325.921635 
L 298.043113 281.465062 
L 297.431982 281.465062 
z
" style="fill:#1f77b4;"/>
   </g>
   <g id="patch_204">
    <path clip-path="url(#pfc66c27209)" d="M 298.195895 325.921635 
L 298.807026 325.921635 
L 298.807026 44.809022 
L 298.195895 44.809022 
z
" style="fill:#1f77b4;"/>
   </g>
   <g id="patch_205">
    <path clip-path="url(#pfc66c27209)" d="M 298.959808 325.921635 
L 299.570939 325.921635 
L 299.570939 149.432384 
L 298.959808 149.432384 
z
" style="fill:#1f77b4;"/>
   </g>
   <g id="patch_206">
    <path clip-path="url(#pfc66c27209)" d="M 299.723721 325.921635 
L 300.334852 325.921635 
L 300.334852 47.148841 
L 299.723721 47.148841 
z
" style="fill:#1f77b4;"/>
   </g>
   <g id="patch_207">
    <path clip-path="url(#pfc66c27209)" d="M 300.487635 325.921635 
L 301.098765 325.921635 
L 301.098765 36.452523 
L 300.487635 36.452523 
z
" style="fill:#1f77b4;"/>
   </g>
   <g id="patch_208">
    <path clip-path="url(#pfc66c27209)" d="M 301.251548 325.921635 
L 301.862678 325.921635 
L 301.862678 32.775664 
L 301.251548 32.775664 
z
" style="fill:#1f77b4;"/>
   </g>
   <g id="patch_209">
    <path clip-path="url(#pfc66c27209)" d="M 302.015461 325.921635 
L 302.626591 325.921635 
L 302.626591 45.477541 
L 302.015461 45.477541 
z
" style="fill:#1f77b4;"/>
   </g>
   <g id="matplotlib.axis_3">
    <g id="xtick_3">
     <g id="line2d_12">
      <g>
       <use style="stroke:#000000;stroke-width:0.8;" x="225.929712" xlink:href="#md62b20a921" y="325.921635"/>
      </g>
     </g>
     <g id="text_12">
      <!-- 0 -->
      <g transform="translate(222.748462 340.520072)scale(0.1 -0.1)">
       <use xlink:href="#DejaVuSans-48"/>
      </g>
     </g>
    </g>
    <g id="xtick_4">
     <g id="line2d_13">
      <g>
       <use style="stroke:#000000;stroke-width:0.8;" x="302.321026" xlink:href="#md62b20a921" y="325.921635"/>
      </g>
     </g>
     <g id="text_13">
      <!-- 100 -->
      <g transform="translate(292.777276 340.520072)scale(0.1 -0.1)">
       <use xlink:href="#DejaVuSans-49"/>
       <use x="63.623047" xlink:href="#DejaVuSans-48"/>
       <use x="127.246094" xlink:href="#DejaVuSans-48"/>
      </g>
     </g>
    </g>
   </g>
   <g id="matplotlib.axis_4">
    <g id="ytick_9">
     <g id="line2d_14">
      <g>
       <use style="stroke:#000000;stroke-width:0.8;" x="221.774024" xlink:href="#m7206281cfc" y="325.921635"/>
      </g>
     </g>
     <g id="text_14">
      <!-- 0 -->
      <g transform="translate(208.411524 329.720854)scale(0.1 -0.1)">
       <use xlink:href="#DejaVuSans-48"/>
      </g>
     </g>
    </g>
    <g id="ytick_10">
     <g id="line2d_15">
      <g>
       <use style="stroke:#000000;stroke-width:0.8;" x="221.774024" xlink:href="#m7206281cfc" y="259.069646"/>
      </g>
     </g>
     <g id="text_15">
      <!-- 200 -->
      <g transform="translate(195.686524 262.868865)scale(0.1 -0.1)">
       <use xlink:href="#DejaVuSans-50"/>
       <use x="63.623047" xlink:href="#DejaVuSans-48"/>
       <use x="127.246094" xlink:href="#DejaVuSans-48"/>
      </g>
     </g>
    </g>
    <g id="ytick_11">
     <g id="line2d_16">
      <g>
       <use style="stroke:#000000;stroke-width:0.8;" x="221.774024" xlink:href="#m7206281cfc" y="192.217657"/>
      </g>
     </g>
     <g id="text_16">
      <!-- 400 -->
      <g transform="translate(195.686524 196.016876)scale(0.1 -0.1)">
       <use xlink:href="#DejaVuSans-52"/>
       <use x="63.623047" xlink:href="#DejaVuSans-48"/>
       <use x="127.246094" xlink:href="#DejaVuSans-48"/>
      </g>
     </g>
    </g>
    <g id="ytick_12">
     <g id="line2d_17">
      <g>
       <use style="stroke:#000000;stroke-width:0.8;" x="221.774024" xlink:href="#m7206281cfc" y="125.365668"/>
      </g>
     </g>
     <g id="text_17">
      <!-- 600 -->
      <g transform="translate(195.686524 129.164887)scale(0.1 -0.1)">
       <use xlink:href="#DejaVuSans-54"/>
       <use x="63.623047" xlink:href="#DejaVuSans-48"/>
       <use x="127.246094" xlink:href="#DejaVuSans-48"/>
      </g>
     </g>
    </g>
    <g id="ytick_13">
     <g id="line2d_18">
      <g>
       <use style="stroke:#000000;stroke-width:0.8;" x="221.774024" xlink:href="#m7206281cfc" y="58.513679"/>
      </g>
     </g>
     <g id="text_18">
      <!-- 800 -->
      <g transform="translate(195.686524 62.312898)scale(0.1 -0.1)">
       <use xlink:href="#DejaVuSans-56"/>
       <use x="63.623047" xlink:href="#DejaVuSans-48"/>
       <use x="127.246094" xlink:href="#DejaVuSans-48"/>
      </g>
     </g>
    </g>
   </g>
   <g id="line2d_19">
    <path clip-path="url(#pfc66c27209)" d="M 225.929712 325.468205 
L 226.693625 325.268151 
L 227.457538 325.01937 
L 228.221451 324.756389 
L 228.985364 324.460971 
L 229.749277 324.138544 
L 230.513191 323.79621 
L 231.277104 323.434524 
L 232.041017 323.058499 
L 232.80493 322.668274 
L 233.568843 322.249509 
L 234.332756 321.78522 
L 235.096669 321.254525 
L 235.860583 320.636124 
L 236.624496 319.919295 
L 237.388409 319.08636 
L 238.152322 318.133002 
L 238.916235 317.097089 
L 239.680148 316.023169 
L 240.444061 314.961918 
L 241.207975 313.969162 
L 241.971888 313.08945 
L 242.735801 312.389189 
L 243.499714 311.915155 
L 244.263627 311.650364 
L 245.02754 311.577971 
L 245.791453 311.674727 
L 246.555367 311.909029 
L 247.31928 312.243289 
L 248.083193 312.60762 
L 248.847106 312.946892 
L 249.611019 313.26542 
L 250.374932 313.55875 
L 251.138845 313.824516 
L 251.902759 314.050465 
L 252.666672 314.239104 
L 253.430585 314.406164 
L 254.194498 314.559442 
L 254.958411 314.658147 
L 255.722324 314.660792 
L 256.486238 314.526448 
L 257.250151 314.256924 
L 258.014064 313.860573 
L 258.777977 313.3651 
L 259.54189 312.800575 
L 260.305803 312.229228 
L 261.069716 311.719973 
L 261.83363 311.350073 
L 262.597543 311.136932 
L 263.361456 311.062869 
L 264.125369 311.074284 
L 264.889282 311.118973 
L 265.653195 311.135818 
L 266.417108 311.070108 
L 267.181022 310.838451 
L 267.944935 310.395602 
L 268.708848 309.732511 
L 269.472761 308.856419 
L 270.236674 307.770109 
L 271.000587 306.471771 
L 271.7645 304.936626 
L 272.528414 303.175392 
L 273.292327 301.196005 
L 274.05624 298.989555 
L 274.820153 296.569268 
L 275.584066 293.946699 
L 276.347979 291.138414 
L 277.111892 288.182142 
L 277.875806 285.100574 
L 278.639719 281.898584 
L 279.403632 278.578259 
L 280.167545 275.118996 
L 280.931458 271.493925 
L 281.695371 267.685784 
L 282.459284 263.678981 
L 283.223198 259.461542 
L 283.987111 255.073005 
L 284.751024 250.560844 
L 285.514937 245.938423 
L 286.27885 241.329367 
L 287.042763 236.803702 
L 287.806676 232.423379 
L 288.57059 228.238795 
L 289.334503 224.150828 
L 290.098416 220.090844 
L 290.862329 216.074852 
L 291.626242 211.817736 
L 292.390155 207.101343 
L 293.154068 201.645152 
L 293.917982 195.07606 
L 294.681895 187.288263 
L 295.445808 178.077807 
L 296.209721 167.258143 
L 296.973634 155.051181 
L 297.737547 141.670899 
L 298.50146 128.114647 
L 299.265374 114.91646 
L 300.029287 102.386376 
L 300.7932 94.28729 
L 301.557113 87.178732 
L 302.321026 81.166369 
" style="fill:none;stroke:#ff0000;stroke-linecap:square;stroke-width:1.5;"/>
   </g>
   <g id="patch_210">
    <path d="M 221.774024 325.921635 
L 221.774024 18.118365 
" style="fill:none;stroke:#000000;stroke-linecap:square;stroke-linejoin:miter;stroke-width:0.8;"/>
   </g>
   <g id="patch_211">
    <path d="M 306.476714 325.921635 
L 306.476714 18.118365 
" style="fill:none;stroke:#000000;stroke-linecap:square;stroke-linejoin:miter;stroke-width:0.8;"/>
   </g>
   <g id="patch_212">
    <path d="M 221.774024 325.921635 
L 306.476714 325.921635 
" style="fill:none;stroke:#000000;stroke-linecap:square;stroke-linejoin:miter;stroke-width:0.8;"/>
   </g>
   <g id="patch_213">
    <path d="M 221.774024 18.118365 
L 306.476714 18.118365 
" style="fill:none;stroke:#000000;stroke-linecap:square;stroke-linejoin:miter;stroke-width:0.8;"/>
   </g>
   <g id="text_19">
    <!-- Casos novos - PR - (data) -->
    <defs>
     <path d="M 54.890625 33.015625 
L 54.890625 0 
L 45.90625 0 
L 45.90625 32.71875 
Q 45.90625 40.484375 42.875 44.328125 
Q 39.84375 48.1875 33.796875 48.1875 
Q 26.515625 48.1875 22.3125 43.546875 
Q 18.109375 38.921875 18.109375 30.90625 
L 18.109375 0 
L 9.078125 0 
L 9.078125 54.6875 
L 18.109375 54.6875 
L 18.109375 46.1875 
Q 21.34375 51.125 25.703125 53.5625 
Q 30.078125 56 35.796875 56 
Q 45.21875 56 50.046875 50.171875 
Q 54.890625 44.34375 54.890625 33.015625 
z
" id="DejaVuSans-110"/>
     <path d="M 2.984375 54.6875 
L 12.5 54.6875 
L 29.59375 8.796875 
L 46.6875 54.6875 
L 56.203125 54.6875 
L 35.6875 0 
L 23.484375 0 
z
" id="DejaVuSans-118"/>
    </defs>
    <g transform="translate(188.666931 12.118365)scale(0.12 -0.12)">
     <use xlink:href="#DejaVuSans-67"/>
     <use x="69.824219" xlink:href="#DejaVuSans-97"/>
     <use x="131.103516" xlink:href="#DejaVuSans-115"/>
     <use x="183.203125" xlink:href="#DejaVuSans-111"/>
     <use x="244.384766" xlink:href="#DejaVuSans-115"/>
     <use x="296.484375" xlink:href="#DejaVuSans-32"/>
     <use x="328.271484" xlink:href="#DejaVuSans-110"/>
     <use x="391.650391" xlink:href="#DejaVuSans-111"/>
     <use x="452.832031" xlink:href="#DejaVuSans-118"/>
     <use x="512.011719" xlink:href="#DejaVuSans-111"/>
     <use x="573.193359" xlink:href="#DejaVuSans-115"/>
     <use x="625.292969" xlink:href="#DejaVuSans-32"/>
     <use x="657.080078" xlink:href="#DejaVuSans-45"/>
     <use x="693.164062" xlink:href="#DejaVuSans-32"/>
     <use x="724.951172" xlink:href="#DejaVuSans-80"/>
     <use x="785.253906" xlink:href="#DejaVuSans-82"/>
     <use x="854.736328" xlink:href="#DejaVuSans-32"/>
     <use x="886.523438" xlink:href="#DejaVuSans-45"/>
     <use x="922.607422" xlink:href="#DejaVuSans-32"/>
     <use x="954.394531" xlink:href="#DejaVuSans-40"/>
     <use x="993.408203" xlink:href="#DejaVuSans-100"/>
     <use x="1056.884766" xlink:href="#DejaVuSans-97"/>
     <use x="1118.164062" xlink:href="#DejaVuSans-116"/>
     <use x="1157.373047" xlink:href="#DejaVuSans-97"/>
     <use x="1218.652344" xlink:href="#DejaVuSans-41"/>
    </g>
   </g>
  </g>
  <g id="axes_3">
   <g id="patch_214">
    <path d="M 367.749774 325.921635 
L 452.452463 325.921635 
L 452.452463 18.118365 
L 367.749774 18.118365 
z
" style="fill:#ffffff;"/>
   </g>
   <g id="matplotlib.axis_5">
    <g id="xtick_5">
     <g id="line2d_20">
      <g>
       <use style="stroke:#000000;stroke-width:0.8;" x="371.599896" xlink:href="#md62b20a921" y="325.921635"/>
      </g>
     </g>
     <g id="text_20">
      <!-- 0 -->
      <g transform="translate(368.418646 340.520072)scale(0.1 -0.1)">
       <use xlink:href="#DejaVuSans-48"/>
      </g>
     </g>
    </g>
    <g id="xtick_6">
     <g id="line2d_21">
      <g>
       <use style="stroke:#000000;stroke-width:0.8;" x="448.602341" xlink:href="#md62b20a921" y="325.921635"/>
      </g>
     </g>
     <g id="text_21">
      <!-- 100 -->
      <g transform="translate(439.058591 340.520072)scale(0.1 -0.1)">
       <use xlink:href="#DejaVuSans-49"/>
       <use x="63.623047" xlink:href="#DejaVuSans-48"/>
       <use x="127.246094" xlink:href="#DejaVuSans-48"/>
      </g>
     </g>
    </g>
   </g>
   <g id="matplotlib.axis_6">
    <g id="ytick_14">
     <g id="line2d_22">
      <g>
       <use style="stroke:#000000;stroke-width:0.8;" x="367.749774" xlink:href="#m7206281cfc" y="291.437619"/>
      </g>
     </g>
     <g id="text_22">
      <!-- 1.0 -->
      <defs>
       <path d="M 10.6875 12.40625 
L 21 12.40625 
L 21 0 
L 10.6875 0 
z
" id="DejaVuSans-46"/>
      </defs>
      <g transform="translate(344.846649 295.236838)scale(0.1 -0.1)">
       <use xlink:href="#DejaVuSans-49"/>
       <use x="63.623047" xlink:href="#DejaVuSans-46"/>
       <use x="95.410156" xlink:href="#DejaVuSans-48"/>
      </g>
     </g>
    </g>
    <g id="ytick_15">
     <g id="line2d_23">
      <g>
       <use style="stroke:#000000;stroke-width:0.8;" x="367.749774" xlink:href="#m7206281cfc" y="238.743869"/>
      </g>
     </g>
     <g id="text_23">
      <!-- 1.5 -->
      <defs>
       <path d="M 10.796875 72.90625 
L 49.515625 72.90625 
L 49.515625 64.59375 
L 19.828125 64.59375 
L 19.828125 46.734375 
Q 21.96875 47.46875 24.109375 47.828125 
Q 26.265625 48.1875 28.421875 48.1875 
Q 40.625 48.1875 47.75 41.5 
Q 54.890625 34.8125 54.890625 23.390625 
Q 54.890625 11.625 47.5625 5.09375 
Q 40.234375 -1.421875 26.90625 -1.421875 
Q 22.3125 -1.421875 17.546875 -0.640625 
Q 12.796875 0.140625 7.71875 1.703125 
L 7.71875 11.625 
Q 12.109375 9.234375 16.796875 8.0625 
Q 21.484375 6.890625 26.703125 6.890625 
Q 35.15625 6.890625 40.078125 11.328125 
Q 45.015625 15.765625 45.015625 23.390625 
Q 45.015625 31 40.078125 35.4375 
Q 35.15625 39.890625 26.703125 39.890625 
Q 22.75 39.890625 18.8125 39.015625 
Q 14.890625 38.140625 10.796875 36.28125 
z
" id="DejaVuSans-53"/>
      </defs>
      <g transform="translate(344.846649 242.543088)scale(0.1 -0.1)">
       <use xlink:href="#DejaVuSans-49"/>
       <use x="63.623047" xlink:href="#DejaVuSans-46"/>
       <use x="95.410156" xlink:href="#DejaVuSans-53"/>
      </g>
     </g>
    </g>
    <g id="ytick_16">
     <g id="line2d_24">
      <g>
       <use style="stroke:#000000;stroke-width:0.8;" x="367.749774" xlink:href="#m7206281cfc" y="186.050118"/>
      </g>
     </g>
     <g id="text_24">
      <!-- 2.0 -->
      <g transform="translate(344.846649 189.849337)scale(0.1 -0.1)">
       <use xlink:href="#DejaVuSans-50"/>
       <use x="63.623047" xlink:href="#DejaVuSans-46"/>
       <use x="95.410156" xlink:href="#DejaVuSans-48"/>
      </g>
     </g>
    </g>
    <g id="ytick_17">
     <g id="line2d_25">
      <g>
       <use style="stroke:#000000;stroke-width:0.8;" x="367.749774" xlink:href="#m7206281cfc" y="133.356367"/>
      </g>
     </g>
     <g id="text_25">
      <!-- 2.5 -->
      <g transform="translate(344.846649 137.155586)scale(0.1 -0.1)">
       <use xlink:href="#DejaVuSans-50"/>
       <use x="63.623047" xlink:href="#DejaVuSans-46"/>
       <use x="95.410156" xlink:href="#DejaVuSans-53"/>
      </g>
     </g>
    </g>
    <g id="ytick_18">
     <g id="line2d_26">
      <g>
       <use style="stroke:#000000;stroke-width:0.8;" x="367.749774" xlink:href="#m7206281cfc" y="80.662617"/>
      </g>
     </g>
     <g id="text_26">
      <!-- 3.0 -->
      <defs>
       <path d="M 40.578125 39.3125 
Q 47.65625 37.796875 51.625 33 
Q 55.609375 28.21875 55.609375 21.1875 
Q 55.609375 10.40625 48.1875 4.484375 
Q 40.765625 -1.421875 27.09375 -1.421875 
Q 22.515625 -1.421875 17.65625 -0.515625 
Q 12.796875 0.390625 7.625 2.203125 
L 7.625 11.71875 
Q 11.71875 9.328125 16.59375 8.109375 
Q 21.484375 6.890625 26.8125 6.890625 
Q 36.078125 6.890625 40.9375 10.546875 
Q 45.796875 14.203125 45.796875 21.1875 
Q 45.796875 27.640625 41.28125 31.265625 
Q 36.765625 34.90625 28.71875 34.90625 
L 20.21875 34.90625 
L 20.21875 43.015625 
L 29.109375 43.015625 
Q 36.375 43.015625 40.234375 45.921875 
Q 44.09375 48.828125 44.09375 54.296875 
Q 44.09375 59.90625 40.109375 62.90625 
Q 36.140625 65.921875 28.71875 65.921875 
Q 24.65625 65.921875 20.015625 65.03125 
Q 15.375 64.15625 9.8125 62.3125 
L 9.8125 71.09375 
Q 15.4375 72.65625 20.34375 73.4375 
Q 25.25 74.21875 29.59375 74.21875 
Q 40.828125 74.21875 47.359375 69.109375 
Q 53.90625 64.015625 53.90625 55.328125 
Q 53.90625 49.265625 50.4375 45.09375 
Q 46.96875 40.921875 40.578125 39.3125 
z
" id="DejaVuSans-51"/>
      </defs>
      <g transform="translate(344.846649 84.461835)scale(0.1 -0.1)">
       <use xlink:href="#DejaVuSans-51"/>
       <use x="63.623047" xlink:href="#DejaVuSans-46"/>
       <use x="95.410156" xlink:href="#DejaVuSans-48"/>
      </g>
     </g>
    </g>
    <g id="ytick_19">
     <g id="line2d_27">
      <g>
       <use style="stroke:#000000;stroke-width:0.8;" x="367.749774" xlink:href="#m7206281cfc" y="27.968866"/>
      </g>
     </g>
     <g id="text_27">
      <!-- 3.5 -->
      <g transform="translate(344.846649 31.768085)scale(0.1 -0.1)">
       <use xlink:href="#DejaVuSans-51"/>
       <use x="63.623047" xlink:href="#DejaVuSans-46"/>
       <use x="95.410156" xlink:href="#DejaVuSans-53"/>
      </g>
     </g>
    </g>
   </g>
   <g id="line2d_28">
    <path clip-path="url(#p76c21378fd)" d="M 371.599896 32.109423 
L 372.36992 60.978452 
L 373.139945 83.864846 
L 373.909969 121.533166 
L 374.679994 139.173593 
L 375.450018 155.298735 
L 376.220043 170.169189 
L 376.990067 181.941149 
L 377.760091 192.545041 
L 378.530116 201.114174 
L 379.30014 205.556119 
L 380.070165 206.90169 
L 380.840189 205.792019 
L 381.610214 203.307531 
L 382.380238 201.472722 
L 383.150263 199.630323 
L 383.920287 199.20826 
L 384.690311 202.971773 
L 385.460336 209.659222 
L 386.23036 218.429762 
L 387.000385 228.792047 
L 387.770409 239.705946 
L 388.540434 252.358282 
L 389.310458 265.83786 
L 390.080483 277.350763 
L 390.850507 287.522294 
L 391.620532 296.437972 
L 392.390556 303.916389 
L 393.16058 309.727911 
L 393.930605 311.930577 
L 394.700629 311.010636 
L 395.470654 310.267773 
L 396.240678 309.177995 
L 397.010703 307.84971 
L 397.780727 305.632884 
L 398.550752 303.453188 
L 399.320776 302.213242 
L 400.0908 301.442421 
L 400.860825 297.874435 
L 401.630849 291.439511 
L 402.400874 282.367267 
L 403.170898 273.827521 
L 403.940923 266.462865 
L 404.710947 261.478944 
L 405.480972 258.780991 
L 406.250996 259.749716 
L 407.02102 264.16687 
L 407.791045 272.059315 
L 408.561069 280.326579 
L 409.331094 287.435753 
L 410.101118 291.770509 
L 410.871143 293.462381 
L 411.641167 292.037971 
L 412.411192 287.83286 
L 413.181216 279.573509 
L 413.951241 269.628785 
L 414.721265 260.231195 
L 415.491289 252.383591 
L 416.261314 245.944833 
L 417.031338 240.71307 
L 417.801363 235.85937 
L 418.571387 232.607997 
L 419.341412 230.600427 
L 420.111436 229.157838 
L 420.881461 228.726639 
L 421.651485 229.023116 
L 422.421509 229.956534 
L 423.191534 231.734862 
L 423.961558 233.844906 
L 424.731583 235.886271 
L 425.501607 237.809807 
L 426.271632 239.307042 
L 427.041656 240.384349 
L 427.811681 241.249313 
L 428.581705 241.964588 
L 429.351729 242.599509 
L 430.121754 243.686553 
L 430.891778 245.190399 
L 431.661803 246.702488 
L 432.431827 249.143544 
L 433.201852 251.885321 
L 433.971876 254.8034 
L 434.741901 257.781485 
L 435.511925 259.740675 
L 436.28195 261.041532 
L 437.051974 262.340006 
L 437.821998 261.691597 
L 438.592023 259.7911 
L 439.362047 256.489078 
L 440.132072 251.577555 
L 440.902096 246.90187 
L 441.672121 242.090269 
L 442.442145 237.431524 
L 443.21217 234.777761 
L 443.982194 233.690162 
L 444.752218 236.636496 
L 445.522243 241.041562 
L 446.292267 245.846449 
L 447.062292 261.929347 
L 447.832316 265.777423 
L 448.602341 269.650985 
" style="fill:none;stroke:#ff0000;stroke-linecap:square;stroke-width:1.5;"/>
   </g>
   <g id="patch_215">
    <path d="M 367.749774 325.921635 
L 367.749774 18.118365 
" style="fill:none;stroke:#000000;stroke-linecap:square;stroke-linejoin:miter;stroke-width:0.8;"/>
   </g>
   <g id="patch_216">
    <path d="M 452.452463 325.921635 
L 452.452463 18.118365 
" style="fill:none;stroke:#000000;stroke-linecap:square;stroke-linejoin:miter;stroke-width:0.8;"/>
   </g>
   <g id="patch_217">
    <path d="M 367.749774 325.921635 
L 452.452463 325.921635 
" style="fill:none;stroke:#000000;stroke-linecap:square;stroke-linejoin:miter;stroke-width:0.8;"/>
   </g>
   <g id="patch_218">
    <path d="M 367.749774 18.118365 
L 452.452463 18.118365 
" style="fill:none;stroke:#000000;stroke-linecap:square;stroke-linejoin:miter;stroke-width:0.8;"/>
   </g>
   <g id="text_28">
    <!-- r0 - PR - (data) -->
    <defs>
     <path d="M 41.109375 46.296875 
Q 39.59375 47.171875 37.8125 47.578125 
Q 36.03125 48 33.890625 48 
Q 26.265625 48 22.1875 43.046875 
Q 18.109375 38.09375 18.109375 28.8125 
L 18.109375 0 
L 9.078125 0 
L 9.078125 54.6875 
L 18.109375 54.6875 
L 18.109375 46.1875 
Q 20.953125 51.171875 25.484375 53.578125 
Q 30.03125 56 36.53125 56 
Q 37.453125 56 38.578125 55.875 
Q 39.703125 55.765625 41.0625 55.515625 
z
" id="DejaVuSans-114"/>
    </defs>
    <g transform="translate(365.876431 12.118365)scale(0.12 -0.12)">
     <use xlink:href="#DejaVuSans-114"/>
     <use x="41.113281" xlink:href="#DejaVuSans-48"/>
     <use x="104.736328" xlink:href="#DejaVuSans-32"/>
     <use x="136.523438" xlink:href="#DejaVuSans-45"/>
     <use x="172.607422" xlink:href="#DejaVuSans-32"/>
     <use x="204.394531" xlink:href="#DejaVuSans-80"/>
     <use x="264.697266" xlink:href="#DejaVuSans-82"/>
     <use x="334.179688" xlink:href="#DejaVuSans-32"/>
     <use x="365.966797" xlink:href="#DejaVuSans-45"/>
     <use x="402.050781" xlink:href="#DejaVuSans-32"/>
     <use x="433.837891" xlink:href="#DejaVuSans-40"/>
     <use x="472.851562" xlink:href="#DejaVuSans-100"/>
     <use x="536.328125" xlink:href="#DejaVuSans-97"/>
     <use x="597.607422" xlink:href="#DejaVuSans-116"/>
     <use x="636.816406" xlink:href="#DejaVuSans-97"/>
     <use x="698.095703" xlink:href="#DejaVuSans-41"/>
    </g>
   </g>
  </g>
 </g>
 <defs>
  <clipPath id="p8264bd7a84">
   <rect height="307.80327" width="84.702689" x="50.85082" y="18.118365"/>
  </clipPath>
  <clipPath id="pfc66c27209">
   <rect height="307.80327" width="84.702689" x="221.774024" y="18.118365"/>
  </clipPath>
  <clipPath id="p76c21378fd">
   <rect height="307.80327" width="84.702689" x="367.749774" y="18.118365"/>
  </clipPath>
 </defs>
</svg>
