<?xml version="1.0" encoding="utf-8" standalone="no"?>
<!DOCTYPE svg PUBLIC "-//W3C//DTD SVG 1.1//EN"
  "http://www.w3.org/Graphics/SVG/1.1/DTD/svg11.dtd">
<!-- Created with matplotlib (https://matplotlib.org/) -->
<svg height="345.6pt" version="1.1" viewBox="0 0 460.8 345.6" width="460.8pt" xmlns="http://www.w3.org/2000/svg" xmlns:xlink="http://www.w3.org/1999/xlink">
 <defs>
  <style type="text/css">
*{stroke-linecap:butt;stroke-linejoin:round;}
  </style>
 </defs>
 <g id="figure_1">
  <g id="patch_1">
   <path d="M 0 345.6 
L 460.8 345.6 
L 460.8 0 
L 0 0 
z
" style="fill:#ffffff;"/>
  </g>
  <g id="axes_1">
   <g id="patch_2">
    <path d="M 55.490865 137.71551 
L 230.470331 137.71551 
L 230.470331 18.118365 
L 55.490865 18.118365 
z
" style="fill:#ffffff;"/>
   </g>
   <g id="patch_3">
    <path clip-path="url(#p67ab3d4bc6)" d="M 63.444477 137.71551 
L 64.706955 137.71551 
L 64.706955 137.668381 
L 63.444477 137.668381 
z
" style="fill:#1f77b4;"/>
   </g>
   <g id="patch_4">
    <path clip-path="url(#p67ab3d4bc6)" d="M 65.022575 137.71551 
L 66.285053 137.71551 
L 66.285053 137.668381 
L 65.022575 137.668381 
z
" style="fill:#1f77b4;"/>
   </g>
   <g id="patch_5">
    <path clip-path="url(#p67ab3d4bc6)" d="M 66.600672 137.71551 
L 67.86315 137.71551 
L 67.86315 137.668381 
L 66.600672 137.668381 
z
" style="fill:#1f77b4;"/>
   </g>
   <g id="patch_6">
    <path clip-path="url(#p67ab3d4bc6)" d="M 68.17877 137.71551 
L 69.441248 137.71551 
L 69.441248 137.668381 
L 68.17877 137.668381 
z
" style="fill:#1f77b4;"/>
   </g>
   <g id="patch_7">
    <path clip-path="url(#p67ab3d4bc6)" d="M 69.756868 137.71551 
L 71.019346 137.71551 
L 71.019346 137.668381 
L 69.756868 137.668381 
z
" style="fill:#1f77b4;"/>
   </g>
   <g id="patch_8">
    <path clip-path="url(#p67ab3d4bc6)" d="M 71.334965 137.71551 
L 72.597443 137.71551 
L 72.597443 137.613398 
L 71.334965 137.613398 
z
" style="fill:#1f77b4;"/>
   </g>
   <g id="patch_9">
    <path clip-path="url(#p67ab3d4bc6)" d="M 72.913063 137.71551 
L 74.175541 137.71551 
L 74.175541 137.53485 
L 72.913063 137.53485 
z
" style="fill:#1f77b4;"/>
   </g>
   <g id="patch_10">
    <path clip-path="url(#p67ab3d4bc6)" d="M 74.49116 137.71551 
L 75.753639 137.71551 
L 75.753639 137.464157 
L 74.49116 137.464157 
z
" style="fill:#1f77b4;"/>
   </g>
   <g id="patch_11">
    <path clip-path="url(#p67ab3d4bc6)" d="M 76.069258 137.71551 
L 77.331736 137.71551 
L 77.331736 137.377755 
L 76.069258 137.377755 
z
" style="fill:#1f77b4;"/>
   </g>
   <g id="patch_12">
    <path clip-path="url(#p67ab3d4bc6)" d="M 77.647356 137.71551 
L 78.909834 137.71551 
L 78.909834 137.322771 
L 77.647356 137.322771 
z
" style="fill:#1f77b4;"/>
   </g>
   <g id="patch_13">
    <path clip-path="url(#p67ab3d4bc6)" d="M 79.225453 137.71551 
L 80.487932 137.71551 
L 80.487932 137.275643 
L 79.225453 137.275643 
z
" style="fill:#1f77b4;"/>
   </g>
   <g id="patch_14">
    <path clip-path="url(#p67ab3d4bc6)" d="M 80.803551 137.71551 
L 82.066029 137.71551 
L 82.066029 137.20495 
L 80.803551 137.20495 
z
" style="fill:#1f77b4;"/>
   </g>
   <g id="patch_15">
    <path clip-path="url(#p67ab3d4bc6)" d="M 82.381649 137.71551 
L 83.644127 137.71551 
L 83.644127 137.079274 
L 82.381649 137.079274 
z
" style="fill:#1f77b4;"/>
   </g>
   <g id="patch_16">
    <path clip-path="url(#p67ab3d4bc6)" d="M 83.959746 137.71551 
L 85.222224 137.71551 
L 85.222224 136.914323 
L 83.959746 136.914323 
z
" style="fill:#1f77b4;"/>
   </g>
   <g id="patch_17">
    <path clip-path="url(#p67ab3d4bc6)" d="M 85.537844 137.71551 
L 86.800322 137.71551 
L 86.800322 136.780792 
L 85.537844 136.780792 
z
" style="fill:#1f77b4;"/>
   </g>
   <g id="patch_18">
    <path clip-path="url(#p67ab3d4bc6)" d="M 87.115942 137.71551 
L 88.37842 137.71551 
L 88.37842 136.670825 
L 87.115942 136.670825 
z
" style="fill:#1f77b4;"/>
   </g>
   <g id="patch_19">
    <path clip-path="url(#p67ab3d4bc6)" d="M 88.694039 137.71551 
L 89.956517 137.71551 
L 89.956517 136.553004 
L 88.694039 136.553004 
z
" style="fill:#1f77b4;"/>
   </g>
   <g id="patch_20">
    <path clip-path="url(#p67ab3d4bc6)" d="M 90.272137 137.71551 
L 91.534615 137.71551 
L 91.534615 136.49802 
L 90.272137 136.49802 
z
" style="fill:#1f77b4;"/>
   </g>
   <g id="patch_21">
    <path clip-path="url(#p67ab3d4bc6)" d="M 91.850234 137.71551 
L 93.112713 137.71551 
L 93.112713 136.309506 
L 91.850234 136.309506 
z
" style="fill:#1f77b4;"/>
   </g>
   <g id="patch_22">
    <path clip-path="url(#p67ab3d4bc6)" d="M 93.428332 137.71551 
L 94.69081 137.71551 
L 94.69081 135.956041 
L 93.428332 135.956041 
z
" style="fill:#1f77b4;"/>
   </g>
   <g id="patch_23">
    <path clip-path="url(#p67ab3d4bc6)" d="M 95.00643 137.71551 
L 96.268908 137.71551 
L 96.268908 135.736108 
L 95.00643 135.736108 
z
" style="fill:#1f77b4;"/>
   </g>
   <g id="patch_24">
    <path clip-path="url(#p67ab3d4bc6)" d="M 96.584527 137.71551 
L 97.847005 137.71551 
L 97.847005 135.351224 
L 96.584527 135.351224 
z
" style="fill:#1f77b4;"/>
   </g>
   <g id="patch_25">
    <path clip-path="url(#p67ab3d4bc6)" d="M 98.162625 137.71551 
L 99.425103 137.71551 
L 99.425103 134.612875 
L 98.162625 134.612875 
z
" style="fill:#1f77b4;"/>
   </g>
   <g id="patch_26">
    <path clip-path="url(#p67ab3d4bc6)" d="M 99.740723 137.71551 
L 101.003201 137.71551 
L 101.003201 134.27512 
L 99.740723 134.27512 
z
" style="fill:#1f77b4;"/>
   </g>
   <g id="patch_27">
    <path clip-path="url(#p67ab3d4bc6)" d="M 101.31882 137.71551 
L 102.581298 137.71551 
L 102.581298 134.118025 
L 101.31882 134.118025 
z
" style="fill:#1f77b4;"/>
   </g>
   <g id="patch_28">
    <path clip-path="url(#p67ab3d4bc6)" d="M 102.896918 137.71551 
L 104.159396 137.71551 
L 104.159396 133.76456 
L 102.896918 133.76456 
z
" style="fill:#1f77b4;"/>
   </g>
   <g id="patch_29">
    <path clip-path="url(#p67ab3d4bc6)" d="M 104.475016 137.71551 
L 105.737494 137.71551 
L 105.737494 133.481788 
L 104.475016 133.481788 
z
" style="fill:#1f77b4;"/>
   </g>
   <g id="patch_30">
    <path clip-path="url(#p67ab3d4bc6)" d="M 106.053113 137.71551 
L 107.315591 137.71551 
L 107.315591 132.931954 
L 106.053113 132.931954 
z
" style="fill:#1f77b4;"/>
   </g>
   <g id="patch_31">
    <path clip-path="url(#p67ab3d4bc6)" d="M 107.631211 137.71551 
L 108.893689 137.71551 
L 108.893689 132.664892 
L 107.631211 132.664892 
z
" style="fill:#1f77b4;"/>
   </g>
   <g id="patch_32">
    <path clip-path="url(#p67ab3d4bc6)" d="M 109.209308 137.71551 
L 110.471787 137.71551 
L 110.471787 132.405684 
L 109.209308 132.405684 
z
" style="fill:#1f77b4;"/>
   </g>
   <g id="patch_33">
    <path clip-path="url(#p67ab3d4bc6)" d="M 110.787406 137.71551 
L 112.049884 137.71551 
L 112.049884 131.918689 
L 110.787406 131.918689 
z
" style="fill:#1f77b4;"/>
   </g>
   <g id="patch_34">
    <path clip-path="url(#p67ab3d4bc6)" d="M 112.365504 137.71551 
L 113.627982 137.71551 
L 113.627982 131.777303 
L 112.365504 131.777303 
z
" style="fill:#1f77b4;"/>
   </g>
   <g id="patch_35">
    <path clip-path="url(#p67ab3d4bc6)" d="M 113.943601 137.71551 
L 115.206079 137.71551 
L 115.206079 131.502386 
L 113.943601 131.502386 
z
" style="fill:#1f77b4;"/>
   </g>
   <g id="patch_36">
    <path clip-path="url(#p67ab3d4bc6)" d="M 115.521699 137.71551 
L 116.784177 137.71551 
L 116.784177 131.408128 
L 115.521699 131.408128 
z
" style="fill:#1f77b4;"/>
   </g>
   <g id="patch_37">
    <path clip-path="url(#p67ab3d4bc6)" d="M 117.099797 137.71551 
L 118.362275 137.71551 
L 118.362275 131.18034 
L 117.099797 131.18034 
z
" style="fill:#1f77b4;"/>
   </g>
   <g id="patch_38">
    <path clip-path="url(#p67ab3d4bc6)" d="M 118.677894 137.71551 
L 119.940372 137.71551 
L 119.940372 130.85044 
L 118.677894 130.85044 
z
" style="fill:#1f77b4;"/>
   </g>
   <g id="patch_39">
    <path clip-path="url(#p67ab3d4bc6)" d="M 120.255992 137.71551 
L 121.51847 137.71551 
L 121.51847 130.292751 
L 120.255992 130.292751 
z
" style="fill:#1f77b4;"/>
   </g>
   <g id="patch_40">
    <path clip-path="url(#p67ab3d4bc6)" d="M 121.834089 137.71551 
L 123.096568 137.71551 
L 123.096568 129.96285 
L 121.834089 129.96285 
z
" style="fill:#1f77b4;"/>
   </g>
   <g id="patch_41">
    <path clip-path="url(#p67ab3d4bc6)" d="M 123.412187 137.71551 
L 124.674665 137.71551 
L 124.674665 129.805755 
L 123.412187 129.805755 
z
" style="fill:#1f77b4;"/>
   </g>
   <g id="patch_42">
    <path clip-path="url(#p67ab3d4bc6)" d="M 124.990285 137.71551 
L 126.252763 137.71551 
L 126.252763 129.672224 
L 124.990285 129.672224 
z
" style="fill:#1f77b4;"/>
   </g>
   <g id="patch_43">
    <path clip-path="url(#p67ab3d4bc6)" d="M 126.568382 137.71551 
L 127.83086 137.71551 
L 127.83086 129.365888 
L 126.568382 129.365888 
z
" style="fill:#1f77b4;"/>
   </g>
   <g id="patch_44">
    <path clip-path="url(#p67ab3d4bc6)" d="M 128.14648 137.71551 
L 129.408958 137.71551 
L 129.408958 129.216647 
L 128.14648 129.216647 
z
" style="fill:#1f77b4;"/>
   </g>
   <g id="patch_45">
    <path clip-path="url(#p67ab3d4bc6)" d="M 129.724578 137.71551 
L 130.987056 137.71551 
L 130.987056 128.926021 
L 129.724578 128.926021 
z
" style="fill:#1f77b4;"/>
   </g>
   <g id="patch_46">
    <path clip-path="url(#p67ab3d4bc6)" d="M 131.302675 137.71551 
L 132.565153 137.71551 
L 132.565153 128.76107 
L 131.302675 128.76107 
z
" style="fill:#1f77b4;"/>
   </g>
   <g id="patch_47">
    <path clip-path="url(#p67ab3d4bc6)" d="M 132.880773 137.71551 
L 134.143251 137.71551 
L 134.143251 128.635394 
L 132.880773 128.635394 
z
" style="fill:#1f77b4;"/>
   </g>
   <g id="patch_48">
    <path clip-path="url(#p67ab3d4bc6)" d="M 134.458871 137.71551 
L 135.721349 137.71551 
L 135.721349 128.399751 
L 134.458871 128.399751 
z
" style="fill:#1f77b4;"/>
   </g>
   <g id="patch_49">
    <path clip-path="url(#p67ab3d4bc6)" d="M 136.036968 137.71551 
L 137.299446 137.71551 
L 137.299446 127.732095 
L 136.036968 127.732095 
z
" style="fill:#1f77b4;"/>
   </g>
   <g id="patch_50">
    <path clip-path="url(#p67ab3d4bc6)" d="M 137.615066 137.71551 
L 138.877544 137.71551 
L 138.877544 127.127278 
L 137.615066 127.127278 
z
" style="fill:#1f77b4;"/>
   </g>
   <g id="patch_51">
    <path clip-path="url(#p67ab3d4bc6)" d="M 139.193163 137.71551 
L 140.455642 137.71551 
L 140.455642 126.663846 
L 139.193163 126.663846 
z
" style="fill:#1f77b4;"/>
   </g>
   <g id="patch_52">
    <path clip-path="url(#p67ab3d4bc6)" d="M 140.771261 137.71551 
L 142.033739 137.71551 
L 142.033739 126.349656 
L 140.771261 126.349656 
z
" style="fill:#1f77b4;"/>
   </g>
   <g id="patch_53">
    <path clip-path="url(#p67ab3d4bc6)" d="M 142.349359 137.71551 
L 143.611837 137.71551 
L 143.611837 125.996191 
L 142.349359 125.996191 
z
" style="fill:#1f77b4;"/>
   </g>
   <g id="patch_54">
    <path clip-path="url(#p67ab3d4bc6)" d="M 143.927456 137.71551 
L 145.189934 137.71551 
L 145.189934 125.823386 
L 143.927456 125.823386 
z
" style="fill:#1f77b4;"/>
   </g>
   <g id="patch_55">
    <path clip-path="url(#p67ab3d4bc6)" d="M 145.505554 137.71551 
L 146.768032 137.71551 
L 146.768032 125.446357 
L 145.505554 125.446357 
z
" style="fill:#1f77b4;"/>
   </g>
   <g id="patch_56">
    <path clip-path="url(#p67ab3d4bc6)" d="M 147.083652 137.71551 
L 148.34613 137.71551 
L 148.34613 125.242133 
L 147.083652 125.242133 
z
" style="fill:#1f77b4;"/>
   </g>
   <g id="patch_57">
    <path clip-path="url(#p67ab3d4bc6)" d="M 148.661749 137.71551 
L 149.924227 137.71551 
L 149.924227 124.935797 
L 148.661749 124.935797 
z
" style="fill:#1f77b4;"/>
   </g>
   <g id="patch_58">
    <path clip-path="url(#p67ab3d4bc6)" d="M 150.239847 137.71551 
L 151.502325 137.71551 
L 151.502325 124.708008 
L 150.239847 124.708008 
z
" style="fill:#1f77b4;"/>
   </g>
   <g id="patch_59">
    <path clip-path="url(#p67ab3d4bc6)" d="M 151.817945 137.71551 
L 153.080423 137.71551 
L 153.080423 124.275996 
L 151.817945 124.275996 
z
" style="fill:#1f77b4;"/>
   </g>
   <g id="patch_60">
    <path clip-path="url(#p67ab3d4bc6)" d="M 153.396042 137.71551 
L 154.65852 137.71551 
L 154.65852 123.694743 
L 153.396042 123.694743 
z
" style="fill:#1f77b4;"/>
   </g>
   <g id="patch_61">
    <path clip-path="url(#p67ab3d4bc6)" d="M 154.97414 137.71551 
L 156.236618 137.71551 
L 156.236618 123.302004 
L 154.97414 123.302004 
z
" style="fill:#1f77b4;"/>
   </g>
   <g id="patch_62">
    <path clip-path="url(#p67ab3d4bc6)" d="M 156.552237 137.71551 
L 157.814716 137.71551 
L 157.814716 123.192037 
L 156.552237 123.192037 
z
" style="fill:#1f77b4;"/>
   </g>
   <g id="patch_63">
    <path clip-path="url(#p67ab3d4bc6)" d="M 158.130335 137.71551 
L 159.392813 137.71551 
L 159.392813 122.744315 
L 158.130335 122.744315 
z
" style="fill:#1f77b4;"/>
   </g>
   <g id="patch_64">
    <path clip-path="url(#p67ab3d4bc6)" d="M 159.708433 137.71551 
L 160.970911 137.71551 
L 160.970911 122.037386 
L 159.708433 122.037386 
z
" style="fill:#1f77b4;"/>
   </g>
   <g id="patch_65">
    <path clip-path="url(#p67ab3d4bc6)" d="M 161.28653 137.71551 
L 162.549008 137.71551 
L 162.549008 121.511116 
L 161.28653 121.511116 
z
" style="fill:#1f77b4;"/>
   </g>
   <g id="patch_66">
    <path clip-path="url(#p67ab3d4bc6)" d="M 162.864628 137.71551 
L 164.127106 137.71551 
L 164.127106 120.914154 
L 162.864628 120.914154 
z
" style="fill:#1f77b4;"/>
   </g>
   <g id="patch_67">
    <path clip-path="url(#p67ab3d4bc6)" d="M 164.442726 137.71551 
L 165.705204 137.71551 
L 165.705204 120.105112 
L 164.442726 120.105112 
z
" style="fill:#1f77b4;"/>
   </g>
   <g id="patch_68">
    <path clip-path="url(#p67ab3d4bc6)" d="M 166.020823 137.71551 
L 167.283301 137.71551 
L 167.283301 119.759502 
L 166.020823 119.759502 
z
" style="fill:#1f77b4;"/>
   </g>
   <g id="patch_69">
    <path clip-path="url(#p67ab3d4bc6)" d="M 167.598921 137.71551 
L 168.861399 137.71551 
L 168.861399 119.178249 
L 167.598921 119.178249 
z
" style="fill:#1f77b4;"/>
   </g>
   <g id="patch_70">
    <path clip-path="url(#p67ab3d4bc6)" d="M 169.177018 137.71551 
L 170.439497 137.71551 
L 170.439497 118.227822 
L 169.177018 118.227822 
z
" style="fill:#1f77b4;"/>
   </g>
   <g id="patch_71">
    <path clip-path="url(#p67ab3d4bc6)" d="M 170.755116 137.71551 
L 172.017594 137.71551 
L 172.017594 117.167428 
L 170.755116 117.167428 
z
" style="fill:#1f77b4;"/>
   </g>
   <g id="patch_72">
    <path clip-path="url(#p67ab3d4bc6)" d="M 172.333214 137.71551 
L 173.595692 137.71551 
L 173.595692 115.643602 
L 172.333214 115.643602 
z
" style="fill:#1f77b4;"/>
   </g>
   <g id="patch_73">
    <path clip-path="url(#p67ab3d4bc6)" d="M 173.911311 137.71551 
L 175.173789 137.71551 
L 175.173789 114.630336 
L 173.911311 114.630336 
z
" style="fill:#1f77b4;"/>
   </g>
   <g id="patch_74">
    <path clip-path="url(#p67ab3d4bc6)" d="M 175.489409 137.71551 
L 176.751887 137.71551 
L 176.751887 113.373573 
L 175.489409 113.373573 
z
" style="fill:#1f77b4;"/>
   </g>
   <g id="patch_75">
    <path clip-path="url(#p67ab3d4bc6)" d="M 177.067507 137.71551 
L 178.329985 137.71551 
L 178.329985 112.485984 
L 177.067507 112.485984 
z
" style="fill:#1f77b4;"/>
   </g>
   <g id="patch_76">
    <path clip-path="url(#p67ab3d4bc6)" d="M 178.645604 137.71551 
L 179.908082 137.71551 
L 179.908082 111.551266 
L 178.645604 111.551266 
z
" style="fill:#1f77b4;"/>
   </g>
   <g id="patch_77">
    <path clip-path="url(#p67ab3d4bc6)" d="M 180.223702 137.71551 
L 181.48618 137.71551 
L 181.48618 110.129552 
L 180.223702 110.129552 
z
" style="fill:#1f77b4;"/>
   </g>
   <g id="patch_78">
    <path clip-path="url(#p67ab3d4bc6)" d="M 181.8018 137.71551 
L 183.064278 137.71551 
L 183.064278 108.558598 
L 181.8018 108.558598 
z
" style="fill:#1f77b4;"/>
   </g>
   <g id="patch_79">
    <path clip-path="url(#p67ab3d4bc6)" d="M 183.379897 137.71551 
L 184.642375 137.71551 
L 184.642375 106.4221 
L 183.379897 106.4221 
z
" style="fill:#1f77b4;"/>
   </g>
   <g id="patch_80">
    <path clip-path="url(#p67ab3d4bc6)" d="M 184.957995 137.71551 
L 186.220473 137.71551 
L 186.220473 104.442698 
L 184.957995 104.442698 
z
" style="fill:#1f77b4;"/>
   </g>
   <g id="patch_81">
    <path clip-path="url(#p67ab3d4bc6)" d="M 186.536092 137.71551 
L 187.798571 137.71551 
L 187.798571 102.581117 
L 186.536092 102.581117 
z
" style="fill:#1f77b4;"/>
   </g>
   <g id="patch_82">
    <path clip-path="url(#p67ab3d4bc6)" d="M 188.11419 137.71551 
L 189.376668 137.71551 
L 189.376668 100.900196 
L 188.11419 100.900196 
z
" style="fill:#1f77b4;"/>
   </g>
   <g id="patch_83">
    <path clip-path="url(#p67ab3d4bc6)" d="M 189.692288 137.71551 
L 190.954766 137.71551 
L 190.954766 99.737689 
L 189.692288 99.737689 
z
" style="fill:#1f77b4;"/>
   </g>
   <g id="patch_84">
    <path clip-path="url(#p67ab3d4bc6)" d="M 191.270385 137.71551 
L 192.532863 137.71551 
L 192.532863 97.161324 
L 191.270385 97.161324 
z
" style="fill:#1f77b4;"/>
   </g>
   <g id="patch_85">
    <path clip-path="url(#p67ab3d4bc6)" d="M 192.848483 137.71551 
L 194.110961 137.71551 
L 194.110961 94.561395 
L 192.848483 94.561395 
z
" style="fill:#1f77b4;"/>
   </g>
   <g id="patch_86">
    <path clip-path="url(#p67ab3d4bc6)" d="M 194.426581 137.71551 
L 195.689059 137.71551 
L 195.689059 92.000739 
L 194.426581 92.000739 
z
" style="fill:#1f77b4;"/>
   </g>
   <g id="patch_87">
    <path clip-path="url(#p67ab3d4bc6)" d="M 196.004678 137.71551 
L 197.267156 137.71551 
L 197.267156 87.85342 
L 196.004678 87.85342 
z
" style="fill:#1f77b4;"/>
   </g>
   <g id="patch_88">
    <path clip-path="url(#p67ab3d4bc6)" d="M 197.582776 137.71551 
L 198.845254 137.71551 
L 198.845254 85.834744 
L 197.582776 85.834744 
z
" style="fill:#1f77b4;"/>
   </g>
   <g id="patch_89">
    <path clip-path="url(#p67ab3d4bc6)" d="M 199.160873 137.71551 
L 200.423352 137.71551 
L 200.423352 83.54115 
L 199.160873 83.54115 
z
" style="fill:#1f77b4;"/>
   </g>
   <g id="patch_90">
    <path clip-path="url(#p67ab3d4bc6)" d="M 200.738971 137.71551 
L 202.001449 137.71551 
L 202.001449 82.488611 
L 200.738971 82.488611 
z
" style="fill:#1f77b4;"/>
   </g>
   <g id="patch_91">
    <path clip-path="url(#p67ab3d4bc6)" d="M 202.317069 137.71551 
L 203.579547 137.71551 
L 203.579547 80.265711 
L 202.317069 80.265711 
z
" style="fill:#1f77b4;"/>
   </g>
   <g id="patch_92">
    <path clip-path="url(#p67ab3d4bc6)" d="M 203.895166 137.71551 
L 205.157644 137.71551 
L 205.157644 76.204794 
L 203.895166 76.204794 
z
" style="fill:#1f77b4;"/>
   </g>
   <g id="patch_93">
    <path clip-path="url(#p67ab3d4bc6)" d="M 205.473264 137.71551 
L 206.735742 137.71551 
L 206.735742 71.287707 
L 205.473264 71.287707 
z
" style="fill:#1f77b4;"/>
   </g>
   <g id="patch_94">
    <path clip-path="url(#p67ab3d4bc6)" d="M 207.051362 137.71551 
L 208.31384 137.71551 
L 208.31384 69.339723 
L 207.051362 69.339723 
z
" style="fill:#1f77b4;"/>
   </g>
   <g id="patch_95">
    <path clip-path="url(#p67ab3d4bc6)" d="M 208.629459 137.71551 
L 209.891937 137.71551 
L 209.891937 65.192404 
L 208.629459 65.192404 
z
" style="fill:#1f77b4;"/>
   </g>
   <g id="patch_96">
    <path clip-path="url(#p67ab3d4bc6)" d="M 210.207557 137.71551 
L 211.470035 137.71551 
L 211.470035 62.443234 
L 210.207557 62.443234 
z
" style="fill:#1f77b4;"/>
   </g>
   <g id="patch_97">
    <path clip-path="url(#p67ab3d4bc6)" d="M 211.785655 137.71551 
L 213.048133 137.71551 
L 213.048133 61.398549 
L 211.785655 61.398549 
z
" style="fill:#1f77b4;"/>
   </g>
   <g id="patch_98">
    <path clip-path="url(#p67ab3d4bc6)" d="M 213.363752 137.71551 
L 214.62623 137.71551 
L 214.62623 54.792686 
L 213.363752 54.792686 
z
" style="fill:#1f77b4;"/>
   </g>
   <g id="patch_99">
    <path clip-path="url(#p67ab3d4bc6)" d="M 214.94185 137.71551 
L 216.204328 137.71551 
L 216.204328 50.645367 
L 214.94185 50.645367 
z
" style="fill:#1f77b4;"/>
   </g>
   <g id="patch_100">
    <path clip-path="url(#p67ab3d4bc6)" d="M 216.519947 137.71551 
L 217.782426 137.71551 
L 217.782426 44.094487 
L 216.519947 44.094487 
z
" style="fill:#1f77b4;"/>
   </g>
   <g id="patch_101">
    <path clip-path="url(#p67ab3d4bc6)" d="M 218.098045 137.71551 
L 219.360523 137.71551 
L 219.360523 37.292255 
L 218.098045 37.292255 
z
" style="fill:#1f77b4;"/>
   </g>
   <g id="patch_102">
    <path clip-path="url(#p67ab3d4bc6)" d="M 219.676143 137.71551 
L 220.938621 137.71551 
L 220.938621 30.403621 
L 219.676143 30.403621 
z
" style="fill:#1f77b4;"/>
   </g>
   <g id="patch_103">
    <path clip-path="url(#p67ab3d4bc6)" d="M 221.25424 137.71551 
L 222.516718 137.71551 
L 222.516718 23.813467 
L 221.25424 23.813467 
z
" style="fill:#1f77b4;"/>
   </g>
   <g id="matplotlib.axis_1">
    <g id="xtick_1">
     <g id="line2d_1">
      <defs>
       <path d="M 0 0 
L 0 3.5 
" id="md3b0dc69d8" style="stroke:#000000;stroke-width:0.8;"/>
      </defs>
      <g>
       <use style="stroke:#000000;stroke-width:0.8;" x="64.075716" xlink:href="#md3b0dc69d8" y="137.71551"/>
      </g>
     </g>
     <g id="text_1">
      <!-- 0 -->
      <defs>
       <path d="M 31.78125 66.40625 
Q 24.171875 66.40625 20.328125 58.90625 
Q 16.5 51.421875 16.5 36.375 
Q 16.5 21.390625 20.328125 13.890625 
Q 24.171875 6.390625 31.78125 6.390625 
Q 39.453125 6.390625 43.28125 13.890625 
Q 47.125 21.390625 47.125 36.375 
Q 47.125 51.421875 43.28125 58.90625 
Q 39.453125 66.40625 31.78125 66.40625 
z
M 31.78125 74.21875 
Q 44.046875 74.21875 50.515625 64.515625 
Q 56.984375 54.828125 56.984375 36.375 
Q 56.984375 17.96875 50.515625 8.265625 
Q 44.046875 -1.421875 31.78125 -1.421875 
Q 19.53125 -1.421875 13.0625 8.265625 
Q 6.59375 17.96875 6.59375 36.375 
Q 6.59375 54.828125 13.0625 64.515625 
Q 19.53125 74.21875 31.78125 74.21875 
z
" id="DejaVuSans-48"/>
      </defs>
      <g transform="translate(60.894466 152.313947)scale(0.1 -0.1)">
       <use xlink:href="#DejaVuSans-48"/>
      </g>
     </g>
    </g>
    <g id="xtick_2">
     <g id="line2d_2">
      <g>
       <use style="stroke:#000000;stroke-width:0.8;" x="103.528157" xlink:href="#md3b0dc69d8" y="137.71551"/>
      </g>
     </g>
     <g id="text_2">
      <!-- 25 -->
      <defs>
       <path d="M 19.1875 8.296875 
L 53.609375 8.296875 
L 53.609375 0 
L 7.328125 0 
L 7.328125 8.296875 
Q 12.9375 14.109375 22.625 23.890625 
Q 32.328125 33.6875 34.8125 36.53125 
Q 39.546875 41.84375 41.421875 45.53125 
Q 43.3125 49.21875 43.3125 52.78125 
Q 43.3125 58.59375 39.234375 62.25 
Q 35.15625 65.921875 28.609375 65.921875 
Q 23.96875 65.921875 18.8125 64.3125 
Q 13.671875 62.703125 7.8125 59.421875 
L 7.8125 69.390625 
Q 13.765625 71.78125 18.9375 73 
Q 24.125 74.21875 28.421875 74.21875 
Q 39.75 74.21875 46.484375 68.546875 
Q 53.21875 62.890625 53.21875 53.421875 
Q 53.21875 48.921875 51.53125 44.890625 
Q 49.859375 40.875 45.40625 35.40625 
Q 44.1875 33.984375 37.640625 27.21875 
Q 31.109375 20.453125 19.1875 8.296875 
z
" id="DejaVuSans-50"/>
       <path d="M 10.796875 72.90625 
L 49.515625 72.90625 
L 49.515625 64.59375 
L 19.828125 64.59375 
L 19.828125 46.734375 
Q 21.96875 47.46875 24.109375 47.828125 
Q 26.265625 48.1875 28.421875 48.1875 
Q 40.625 48.1875 47.75 41.5 
Q 54.890625 34.8125 54.890625 23.390625 
Q 54.890625 11.625 47.5625 5.09375 
Q 40.234375 -1.421875 26.90625 -1.421875 
Q 22.3125 -1.421875 17.546875 -0.640625 
Q 12.796875 0.140625 7.71875 1.703125 
L 7.71875 11.625 
Q 12.109375 9.234375 16.796875 8.0625 
Q 21.484375 6.890625 26.703125 6.890625 
Q 35.15625 6.890625 40.078125 11.328125 
Q 45.015625 15.765625 45.015625 23.390625 
Q 45.015625 31 40.078125 35.4375 
Q 35.15625 39.890625 26.703125 39.890625 
Q 22.75 39.890625 18.8125 39.015625 
Q 14.890625 38.140625 10.796875 36.28125 
z
" id="DejaVuSans-53"/>
      </defs>
      <g transform="translate(97.165657 152.313947)scale(0.1 -0.1)">
       <use xlink:href="#DejaVuSans-50"/>
       <use x="63.623047" xlink:href="#DejaVuSans-53"/>
      </g>
     </g>
    </g>
    <g id="xtick_3">
     <g id="line2d_3">
      <g>
       <use style="stroke:#000000;stroke-width:0.8;" x="142.980598" xlink:href="#md3b0dc69d8" y="137.71551"/>
      </g>
     </g>
     <g id="text_3">
      <!-- 50 -->
      <g transform="translate(136.618098 152.313947)scale(0.1 -0.1)">
       <use xlink:href="#DejaVuSans-53"/>
       <use x="63.623047" xlink:href="#DejaVuSans-48"/>
      </g>
     </g>
    </g>
    <g id="xtick_4">
     <g id="line2d_4">
      <g>
       <use style="stroke:#000000;stroke-width:0.8;" x="182.433039" xlink:href="#md3b0dc69d8" y="137.71551"/>
      </g>
     </g>
     <g id="text_4">
      <!-- 75 -->
      <defs>
       <path d="M 8.203125 72.90625 
L 55.078125 72.90625 
L 55.078125 68.703125 
L 28.609375 0 
L 18.3125 0 
L 43.21875 64.59375 
L 8.203125 64.59375 
z
" id="DejaVuSans-55"/>
      </defs>
      <g transform="translate(176.070539 152.313947)scale(0.1 -0.1)">
       <use xlink:href="#DejaVuSans-55"/>
       <use x="63.623047" xlink:href="#DejaVuSans-53"/>
      </g>
     </g>
    </g>
    <g id="xtick_5">
     <g id="line2d_5">
      <g>
       <use style="stroke:#000000;stroke-width:0.8;" x="221.885479" xlink:href="#md3b0dc69d8" y="137.71551"/>
      </g>
     </g>
     <g id="text_5">
      <!-- 100 -->
      <defs>
       <path d="M 12.40625 8.296875 
L 28.515625 8.296875 
L 28.515625 63.921875 
L 10.984375 60.40625 
L 10.984375 69.390625 
L 28.421875 72.90625 
L 38.28125 72.90625 
L 38.28125 8.296875 
L 54.390625 8.296875 
L 54.390625 0 
L 12.40625 0 
z
" id="DejaVuSans-49"/>
      </defs>
      <g transform="translate(212.341729 152.313947)scale(0.1 -0.1)">
       <use xlink:href="#DejaVuSans-49"/>
       <use x="63.623047" xlink:href="#DejaVuSans-48"/>
       <use x="127.246094" xlink:href="#DejaVuSans-48"/>
      </g>
     </g>
    </g>
    <g id="text_6">
     <!-- Dias -->
     <defs>
      <path d="M 19.671875 64.796875 
L 19.671875 8.109375 
L 31.59375 8.109375 
Q 46.6875 8.109375 53.6875 14.9375 
Q 60.6875 21.78125 60.6875 36.53125 
Q 60.6875 51.171875 53.6875 57.984375 
Q 46.6875 64.796875 31.59375 64.796875 
z
M 9.8125 72.90625 
L 30.078125 72.90625 
Q 51.265625 72.90625 61.171875 64.09375 
Q 71.09375 55.28125 71.09375 36.53125 
Q 71.09375 17.671875 61.125 8.828125 
Q 51.171875 0 30.078125 0 
L 9.8125 0 
z
" id="DejaVuSans-68"/>
      <path d="M 9.421875 54.6875 
L 18.40625 54.6875 
L 18.40625 0 
L 9.421875 0 
z
M 9.421875 75.984375 
L 18.40625 75.984375 
L 18.40625 64.59375 
L 9.421875 64.59375 
z
" id="DejaVuSans-105"/>
      <path d="M 34.28125 27.484375 
Q 23.390625 27.484375 19.1875 25 
Q 14.984375 22.515625 14.984375 16.5 
Q 14.984375 11.71875 18.140625 8.90625 
Q 21.296875 6.109375 26.703125 6.109375 
Q 34.1875 6.109375 38.703125 11.40625 
Q 43.21875 16.703125 43.21875 25.484375 
L 43.21875 27.484375 
z
M 52.203125 31.203125 
L 52.203125 0 
L 43.21875 0 
L 43.21875 8.296875 
Q 40.140625 3.328125 35.546875 0.953125 
Q 30.953125 -1.421875 24.3125 -1.421875 
Q 15.921875 -1.421875 10.953125 3.296875 
Q 6 8.015625 6 15.921875 
Q 6 25.140625 12.171875 29.828125 
Q 18.359375 34.515625 30.609375 34.515625 
L 43.21875 34.515625 
L 43.21875 35.40625 
Q 43.21875 41.609375 39.140625 45 
Q 35.0625 48.390625 27.6875 48.390625 
Q 23 48.390625 18.546875 47.265625 
Q 14.109375 46.140625 10.015625 43.890625 
L 10.015625 52.203125 
Q 14.9375 54.109375 19.578125 55.046875 
Q 24.21875 56 28.609375 56 
Q 40.484375 56 46.34375 49.84375 
Q 52.203125 43.703125 52.203125 31.203125 
z
" id="DejaVuSans-97"/>
      <path d="M 44.28125 53.078125 
L 44.28125 44.578125 
Q 40.484375 46.53125 36.375 47.5 
Q 32.28125 48.484375 27.875 48.484375 
Q 21.1875 48.484375 17.84375 46.4375 
Q 14.5 44.390625 14.5 40.28125 
Q 14.5 37.15625 16.890625 35.375 
Q 19.28125 33.59375 26.515625 31.984375 
L 29.59375 31.296875 
Q 39.15625 29.25 43.1875 25.515625 
Q 47.21875 21.78125 47.21875 15.09375 
Q 47.21875 7.46875 41.1875 3.015625 
Q 35.15625 -1.421875 24.609375 -1.421875 
Q 20.21875 -1.421875 15.453125 -0.5625 
Q 10.6875 0.296875 5.421875 2 
L 5.421875 11.28125 
Q 10.40625 8.6875 15.234375 7.390625 
Q 20.0625 6.109375 24.8125 6.109375 
Q 31.15625 6.109375 34.5625 8.28125 
Q 37.984375 10.453125 37.984375 14.40625 
Q 37.984375 18.0625 35.515625 20.015625 
Q 33.0625 21.96875 24.703125 23.78125 
L 21.578125 24.515625 
Q 13.234375 26.265625 9.515625 29.90625 
Q 5.8125 33.546875 5.8125 39.890625 
Q 5.8125 47.609375 11.28125 51.796875 
Q 16.75 56 26.8125 56 
Q 31.78125 56 36.171875 55.265625 
Q 40.578125 54.546875 44.28125 53.078125 
z
" id="DejaVuSans-115"/>
     </defs>
     <g transform="translate(132.072785 165.992072)scale(0.1 -0.1)">
      <use xlink:href="#DejaVuSans-68"/>
      <use x="77.001953" xlink:href="#DejaVuSans-105"/>
      <use x="104.785156" xlink:href="#DejaVuSans-97"/>
      <use x="166.064453" xlink:href="#DejaVuSans-115"/>
     </g>
    </g>
   </g>
   <g id="matplotlib.axis_2">
    <g id="ytick_1">
     <g id="line2d_6">
      <defs>
       <path d="M 0 0 
L -3.5 0 
" id="medbc1bfe4d" style="stroke:#000000;stroke-width:0.8;"/>
      </defs>
      <g>
       <use style="stroke:#000000;stroke-width:0.8;" x="55.490865" xlink:href="#medbc1bfe4d" y="137.71551"/>
      </g>
     </g>
     <g id="text_7">
      <!-- 0 -->
      <g transform="translate(42.128365 141.514729)scale(0.1 -0.1)">
       <use xlink:href="#DejaVuSans-48"/>
      </g>
     </g>
    </g>
    <g id="ytick_2">
     <g id="line2d_7">
      <g>
       <use style="stroke:#000000;stroke-width:0.8;" x="55.490865" xlink:href="#medbc1bfe4d" y="98.441652"/>
      </g>
     </g>
     <g id="text_8">
      <!-- 5000 -->
      <g transform="translate(23.040865 102.240871)scale(0.1 -0.1)">
       <use xlink:href="#DejaVuSans-53"/>
       <use x="63.623047" xlink:href="#DejaVuSans-48"/>
       <use x="127.246094" xlink:href="#DejaVuSans-48"/>
       <use x="190.869141" xlink:href="#DejaVuSans-48"/>
      </g>
     </g>
    </g>
    <g id="ytick_3">
     <g id="line2d_8">
      <g>
       <use style="stroke:#000000;stroke-width:0.8;" x="55.490865" xlink:href="#medbc1bfe4d" y="59.167794"/>
      </g>
     </g>
     <g id="text_9">
      <!-- 10000 -->
      <g transform="translate(16.678365 62.967013)scale(0.1 -0.1)">
       <use xlink:href="#DejaVuSans-49"/>
       <use x="63.623047" xlink:href="#DejaVuSans-48"/>
       <use x="127.246094" xlink:href="#DejaVuSans-48"/>
       <use x="190.869141" xlink:href="#DejaVuSans-48"/>
       <use x="254.492188" xlink:href="#DejaVuSans-48"/>
      </g>
     </g>
    </g>
    <g id="ytick_4">
     <g id="line2d_9">
      <g>
       <use style="stroke:#000000;stroke-width:0.8;" x="55.490865" xlink:href="#medbc1bfe4d" y="19.893936"/>
      </g>
     </g>
     <g id="text_10">
      <!-- 15000 -->
      <g transform="translate(16.678365 23.693155)scale(0.1 -0.1)">
       <use xlink:href="#DejaVuSans-49"/>
       <use x="63.623047" xlink:href="#DejaVuSans-53"/>
       <use x="127.246094" xlink:href="#DejaVuSans-48"/>
       <use x="190.869141" xlink:href="#DejaVuSans-48"/>
       <use x="254.492188" xlink:href="#DejaVuSans-48"/>
      </g>
     </g>
    </g>
    <g id="text_11">
     <!-- Casos -->
     <defs>
      <path d="M 64.40625 67.28125 
L 64.40625 56.890625 
Q 59.421875 61.53125 53.78125 63.8125 
Q 48.140625 66.109375 41.796875 66.109375 
Q 29.296875 66.109375 22.65625 58.46875 
Q 16.015625 50.828125 16.015625 36.375 
Q 16.015625 21.96875 22.65625 14.328125 
Q 29.296875 6.6875 41.796875 6.6875 
Q 48.140625 6.6875 53.78125 8.984375 
Q 59.421875 11.28125 64.40625 15.921875 
L 64.40625 5.609375 
Q 59.234375 2.09375 53.4375 0.328125 
Q 47.65625 -1.421875 41.21875 -1.421875 
Q 24.65625 -1.421875 15.125 8.703125 
Q 5.609375 18.84375 5.609375 36.375 
Q 5.609375 53.953125 15.125 64.078125 
Q 24.65625 74.21875 41.21875 74.21875 
Q 47.75 74.21875 53.53125 72.484375 
Q 59.328125 70.75 64.40625 67.28125 
z
" id="DejaVuSans-67"/>
      <path d="M 30.609375 48.390625 
Q 23.390625 48.390625 19.1875 42.75 
Q 14.984375 37.109375 14.984375 27.296875 
Q 14.984375 17.484375 19.15625 11.84375 
Q 23.34375 6.203125 30.609375 6.203125 
Q 37.796875 6.203125 41.984375 11.859375 
Q 46.1875 17.53125 46.1875 27.296875 
Q 46.1875 37.015625 41.984375 42.703125 
Q 37.796875 48.390625 30.609375 48.390625 
z
M 30.609375 56 
Q 42.328125 56 49.015625 48.375 
Q 55.71875 40.765625 55.71875 27.296875 
Q 55.71875 13.875 49.015625 6.21875 
Q 42.328125 -1.421875 30.609375 -1.421875 
Q 18.84375 -1.421875 12.171875 6.21875 
Q 5.515625 13.875 5.515625 27.296875 
Q 5.515625 40.765625 12.171875 48.375 
Q 18.84375 56 30.609375 56 
z
" id="DejaVuSans-111"/>
     </defs>
     <g transform="translate(10.598678 92.741156)rotate(-90)scale(0.1 -0.1)">
      <use xlink:href="#DejaVuSans-67"/>
      <use x="69.824219" xlink:href="#DejaVuSans-97"/>
      <use x="131.103516" xlink:href="#DejaVuSans-115"/>
      <use x="183.203125" xlink:href="#DejaVuSans-111"/>
      <use x="244.384766" xlink:href="#DejaVuSans-115"/>
     </g>
    </g>
   </g>
   <g id="line2d_10">
    <path clip-path="url(#p67ab3d4bc6)" d="M 64.075716 137.658603 
L 65.653814 137.643247 
L 67.231911 137.622044 
L 68.810009 137.594662 
L 70.388107 137.560338 
L 71.966204 137.518437 
L 73.544302 137.468492 
L 75.1224 137.410047 
L 76.700497 137.342767 
L 78.278595 137.266316 
L 79.856692 137.180025 
L 81.43479 137.082823 
L 83.012888 136.973151 
L 84.590985 136.848946 
L 86.169083 136.707898 
L 87.747181 136.547275 
L 89.325278 136.36425 
L 90.903376 136.156883 
L 92.481474 135.924279 
L 94.059571 135.666736 
L 95.637669 135.385865 
L 97.215766 135.084322 
L 98.793864 134.766323 
L 100.371962 134.437185 
L 101.950059 134.101824 
L 103.528157 133.764763 
L 105.106255 133.429975 
L 106.684352 133.100693 
L 108.26245 132.779265 
L 109.840547 132.466399 
L 111.418645 132.161506 
L 112.996743 131.864098 
L 114.57484 131.573582 
L 116.152938 131.289312 
L 117.731036 131.010352 
L 119.309133 130.735824 
L 120.887231 130.465222 
L 122.465329 130.198222 
L 124.043426 129.933541 
L 125.621524 129.668923 
L 127.199621 129.401148 
L 128.777719 129.127039 
L 130.355817 128.843616 
L 131.933914 128.54855 
L 133.512012 128.240218 
L 135.09011 127.91846 
L 136.668207 127.584736 
L 138.246305 127.242319 
L 139.824402 126.894893 
L 141.4025 126.545727 
L 142.980598 126.196829 
L 144.558695 125.848982 
L 146.136793 125.50153 
L 147.714891 125.152534 
L 149.292988 124.798094 
L 150.871086 124.433248 
L 152.449184 124.05282 
L 154.027281 123.651805 
L 155.605379 123.225262 
L 157.183476 122.76821 
L 158.761574 122.275084 
L 160.339672 121.74057 
L 161.917769 121.159542 
L 163.495867 120.526666 
L 165.073965 119.836915 
L 166.652062 119.085536 
L 168.23016 118.268165 
L 169.808258 117.381325 
L 171.386355 116.422072 
L 172.964453 115.387574 
L 174.54255 114.275053 
L 176.120648 113.081242 
L 177.698746 111.802246 
L 179.276843 110.433762 
L 180.854941 108.971122 
L 182.433039 107.409377 
L 184.011136 105.744506 
L 185.589234 103.973603 
L 187.167331 102.094078 
L 188.745429 100.106245 
L 190.323527 98.012064 
L 191.901624 95.814949 
L 193.479722 93.519501 
L 195.05782 91.127989 
L 196.635917 88.641073 
L 198.214015 86.059784 
L 199.792113 83.378457 
L 201.37021 80.5863 
L 202.948308 77.665928 
L 204.526405 74.591189 
L 206.104503 71.333445 
L 207.682601 67.859264 
L 209.260698 64.130832 
L 210.838796 60.115549 
L 212.416894 55.785842 
L 213.994991 51.137577 
L 215.573089 46.179169 
L 217.151187 40.926315 
L 218.729284 35.483142 
L 220.307382 29.872925 
L 221.885479 24.121423 
" style="fill:none;stroke:#ff0000;stroke-linecap:square;stroke-width:1.5;"/>
   </g>
   <g id="patch_104">
    <path d="M 55.490865 137.71551 
L 55.490865 18.118365 
" style="fill:none;stroke:#000000;stroke-linecap:square;stroke-linejoin:miter;stroke-width:0.8;"/>
   </g>
   <g id="patch_105">
    <path d="M 230.470331 137.71551 
L 230.470331 18.118365 
" style="fill:none;stroke:#000000;stroke-linecap:square;stroke-linejoin:miter;stroke-width:0.8;"/>
   </g>
   <g id="patch_106">
    <path d="M 55.490865 137.71551 
L 230.470331 137.71551 
" style="fill:none;stroke:#000000;stroke-linecap:square;stroke-linejoin:miter;stroke-width:0.8;"/>
   </g>
   <g id="patch_107">
    <path d="M 55.490865 18.118365 
L 230.470331 18.118365 
" style="fill:none;stroke:#000000;stroke-linecap:square;stroke-linejoin:miter;stroke-width:0.8;"/>
   </g>
   <g id="text_12">
    <!-- Casos acumulados - PR -->
    <defs>
     <path id="DejaVuSans-32"/>
     <path d="M 48.78125 52.59375 
L 48.78125 44.1875 
Q 44.96875 46.296875 41.140625 47.34375 
Q 37.3125 48.390625 33.40625 48.390625 
Q 24.65625 48.390625 19.8125 42.84375 
Q 14.984375 37.3125 14.984375 27.296875 
Q 14.984375 17.28125 19.8125 11.734375 
Q 24.65625 6.203125 33.40625 6.203125 
Q 37.3125 6.203125 41.140625 7.25 
Q 44.96875 8.296875 48.78125 10.40625 
L 48.78125 2.09375 
Q 45.015625 0.34375 40.984375 -0.53125 
Q 36.96875 -1.421875 32.421875 -1.421875 
Q 20.0625 -1.421875 12.78125 6.34375 
Q 5.515625 14.109375 5.515625 27.296875 
Q 5.515625 40.671875 12.859375 48.328125 
Q 20.21875 56 33.015625 56 
Q 37.15625 56 41.109375 55.140625 
Q 45.0625 54.296875 48.78125 52.59375 
z
" id="DejaVuSans-99"/>
     <path d="M 8.5 21.578125 
L 8.5 54.6875 
L 17.484375 54.6875 
L 17.484375 21.921875 
Q 17.484375 14.15625 20.5 10.265625 
Q 23.53125 6.390625 29.59375 6.390625 
Q 36.859375 6.390625 41.078125 11.03125 
Q 45.3125 15.671875 45.3125 23.6875 
L 45.3125 54.6875 
L 54.296875 54.6875 
L 54.296875 0 
L 45.3125 0 
L 45.3125 8.40625 
Q 42.046875 3.421875 37.71875 1 
Q 33.40625 -1.421875 27.6875 -1.421875 
Q 18.265625 -1.421875 13.375 4.4375 
Q 8.5 10.296875 8.5 21.578125 
z
M 31.109375 56 
z
" id="DejaVuSans-117"/>
     <path d="M 52 44.1875 
Q 55.375 50.25 60.0625 53.125 
Q 64.75 56 71.09375 56 
Q 79.640625 56 84.28125 50.015625 
Q 88.921875 44.046875 88.921875 33.015625 
L 88.921875 0 
L 79.890625 0 
L 79.890625 32.71875 
Q 79.890625 40.578125 77.09375 44.375 
Q 74.3125 48.1875 68.609375 48.1875 
Q 61.625 48.1875 57.5625 43.546875 
Q 53.515625 38.921875 53.515625 30.90625 
L 53.515625 0 
L 44.484375 0 
L 44.484375 32.71875 
Q 44.484375 40.625 41.703125 44.40625 
Q 38.921875 48.1875 33.109375 48.1875 
Q 26.21875 48.1875 22.15625 43.53125 
Q 18.109375 38.875 18.109375 30.90625 
L 18.109375 0 
L 9.078125 0 
L 9.078125 54.6875 
L 18.109375 54.6875 
L 18.109375 46.1875 
Q 21.1875 51.21875 25.484375 53.609375 
Q 29.78125 56 35.6875 56 
Q 41.65625 56 45.828125 52.96875 
Q 50 49.953125 52 44.1875 
z
" id="DejaVuSans-109"/>
     <path d="M 9.421875 75.984375 
L 18.40625 75.984375 
L 18.40625 0 
L 9.421875 0 
z
" id="DejaVuSans-108"/>
     <path d="M 45.40625 46.390625 
L 45.40625 75.984375 
L 54.390625 75.984375 
L 54.390625 0 
L 45.40625 0 
L 45.40625 8.203125 
Q 42.578125 3.328125 38.25 0.953125 
Q 33.9375 -1.421875 27.875 -1.421875 
Q 17.96875 -1.421875 11.734375 6.484375 
Q 5.515625 14.40625 5.515625 27.296875 
Q 5.515625 40.1875 11.734375 48.09375 
Q 17.96875 56 27.875 56 
Q 33.9375 56 38.25 53.625 
Q 42.578125 51.265625 45.40625 46.390625 
z
M 14.796875 27.296875 
Q 14.796875 17.390625 18.875 11.75 
Q 22.953125 6.109375 30.078125 6.109375 
Q 37.203125 6.109375 41.296875 11.75 
Q 45.40625 17.390625 45.40625 27.296875 
Q 45.40625 37.203125 41.296875 42.84375 
Q 37.203125 48.484375 30.078125 48.484375 
Q 22.953125 48.484375 18.875 42.84375 
Q 14.796875 37.203125 14.796875 27.296875 
z
" id="DejaVuSans-100"/>
     <path d="M 4.890625 31.390625 
L 31.203125 31.390625 
L 31.203125 23.390625 
L 4.890625 23.390625 
z
" id="DejaVuSans-45"/>
     <path d="M 19.671875 64.796875 
L 19.671875 37.40625 
L 32.078125 37.40625 
Q 38.96875 37.40625 42.71875 40.96875 
Q 46.484375 44.53125 46.484375 51.125 
Q 46.484375 57.671875 42.71875 61.234375 
Q 38.96875 64.796875 32.078125 64.796875 
z
M 9.8125 72.90625 
L 32.078125 72.90625 
Q 44.34375 72.90625 50.609375 67.359375 
Q 56.890625 61.8125 56.890625 51.125 
Q 56.890625 40.328125 50.609375 34.8125 
Q 44.34375 29.296875 32.078125 29.296875 
L 19.671875 29.296875 
L 19.671875 0 
L 9.8125 0 
z
" id="DejaVuSans-80"/>
     <path d="M 44.390625 34.1875 
Q 47.5625 33.109375 50.5625 29.59375 
Q 53.5625 26.078125 56.59375 19.921875 
L 66.609375 0 
L 56 0 
L 46.6875 18.703125 
Q 43.0625 26.03125 39.671875 28.421875 
Q 36.28125 30.8125 30.421875 30.8125 
L 19.671875 30.8125 
L 19.671875 0 
L 9.8125 0 
L 9.8125 72.90625 
L 32.078125 72.90625 
Q 44.578125 72.90625 50.734375 67.671875 
Q 56.890625 62.453125 56.890625 51.90625 
Q 56.890625 45.015625 53.6875 40.46875 
Q 50.484375 35.9375 44.390625 34.1875 
z
M 19.671875 64.796875 
L 19.671875 38.921875 
L 32.078125 38.921875 
Q 39.203125 38.921875 42.84375 42.21875 
Q 46.484375 45.515625 46.484375 51.90625 
Q 46.484375 58.296875 42.84375 61.546875 
Q 39.203125 64.796875 32.078125 64.796875 
z
" id="DejaVuSans-82"/>
    </defs>
    <g transform="translate(73.144348 12.118365)scale(0.12 -0.12)">
     <use xlink:href="#DejaVuSans-67"/>
     <use x="69.824219" xlink:href="#DejaVuSans-97"/>
     <use x="131.103516" xlink:href="#DejaVuSans-115"/>
     <use x="183.203125" xlink:href="#DejaVuSans-111"/>
     <use x="244.384766" xlink:href="#DejaVuSans-115"/>
     <use x="296.484375" xlink:href="#DejaVuSans-32"/>
     <use x="328.271484" xlink:href="#DejaVuSans-97"/>
     <use x="389.550781" xlink:href="#DejaVuSans-99"/>
     <use x="444.53125" xlink:href="#DejaVuSans-117"/>
     <use x="507.910156" xlink:href="#DejaVuSans-109"/>
     <use x="605.322266" xlink:href="#DejaVuSans-117"/>
     <use x="668.701172" xlink:href="#DejaVuSans-108"/>
     <use x="696.484375" xlink:href="#DejaVuSans-97"/>
     <use x="757.763672" xlink:href="#DejaVuSans-100"/>
     <use x="821.240234" xlink:href="#DejaVuSans-111"/>
     <use x="882.421875" xlink:href="#DejaVuSans-115"/>
     <use x="934.521484" xlink:href="#DejaVuSans-32"/>
     <use x="966.308594" xlink:href="#DejaVuSans-45"/>
     <use x="1002.392578" xlink:href="#DejaVuSans-32"/>
     <use x="1034.179688" xlink:href="#DejaVuSans-80"/>
     <use x="1094.482422" xlink:href="#DejaVuSans-82"/>
    </g>
   </g>
  </g>
  <g id="axes_2">
   <g id="patch_108">
    <path d="M 281.832365 137.71551 
L 456.811831 137.71551 
L 456.811831 18.118365 
L 281.832365 18.118365 
z
" style="fill:#ffffff;"/>
   </g>
   <g id="patch_109">
    <path clip-path="url(#p27b2ba6aa0)" d="M 289.785977 137.71551 
L 291.048455 137.71551 
L 291.048455 137.71551 
L 289.785977 137.71551 
z
" style="fill:#1f77b4;"/>
   </g>
   <g id="patch_110">
    <path clip-path="url(#p27b2ba6aa0)" d="M 291.364075 137.71551 
L 292.626553 137.71551 
L 292.626553 137.71551 
L 291.364075 137.71551 
z
" style="fill:#1f77b4;"/>
   </g>
   <g id="patch_111">
    <path clip-path="url(#p27b2ba6aa0)" d="M 292.942172 137.71551 
L 294.20465 137.71551 
L 294.20465 137.71551 
L 292.942172 137.71551 
z
" style="fill:#1f77b4;"/>
   </g>
   <g id="patch_112">
    <path clip-path="url(#p27b2ba6aa0)" d="M 294.52027 137.71551 
L 295.782748 137.71551 
L 295.782748 137.71551 
L 294.52027 137.71551 
z
" style="fill:#1f77b4;"/>
   </g>
   <g id="patch_113">
    <path clip-path="url(#p27b2ba6aa0)" d="M 296.098368 137.71551 
L 297.360846 137.71551 
L 297.360846 137.71551 
L 296.098368 137.71551 
z
" style="fill:#1f77b4;"/>
   </g>
   <g id="patch_114">
    <path clip-path="url(#p27b2ba6aa0)" d="M 297.676465 137.71551 
L 298.938943 137.71551 
L 298.938943 136.806372 
L 297.676465 136.806372 
z
" style="fill:#1f77b4;"/>
   </g>
   <g id="patch_115">
    <path clip-path="url(#p27b2ba6aa0)" d="M 299.254563 137.71551 
L 300.517041 137.71551 
L 300.517041 136.416741 
L 299.254563 136.416741 
z
" style="fill:#1f77b4;"/>
   </g>
   <g id="patch_116">
    <path clip-path="url(#p27b2ba6aa0)" d="M 300.83266 137.71551 
L 302.095139 137.71551 
L 302.095139 136.546618 
L 300.83266 136.546618 
z
" style="fill:#1f77b4;"/>
   </g>
   <g id="patch_117">
    <path clip-path="url(#p27b2ba6aa0)" d="M 302.410758 137.71551 
L 303.673236 137.71551 
L 303.673236 136.286864 
L 302.410758 136.286864 
z
" style="fill:#1f77b4;"/>
   </g>
   <g id="patch_118">
    <path clip-path="url(#p27b2ba6aa0)" d="M 303.988856 137.71551 
L 305.251334 137.71551 
L 305.251334 136.806372 
L 303.988856 136.806372 
z
" style="fill:#1f77b4;"/>
   </g>
   <g id="patch_119">
    <path clip-path="url(#p27b2ba6aa0)" d="M 305.566953 137.71551 
L 306.829432 137.71551 
L 306.829432 136.936249 
L 305.566953 136.936249 
z
" style="fill:#1f77b4;"/>
   </g>
   <g id="patch_120">
    <path clip-path="url(#p27b2ba6aa0)" d="M 307.145051 137.71551 
L 308.407529 137.71551 
L 308.407529 136.546618 
L 307.145051 136.546618 
z
" style="fill:#1f77b4;"/>
   </g>
   <g id="patch_121">
    <path clip-path="url(#p27b2ba6aa0)" d="M 308.723149 137.71551 
L 309.985627 137.71551 
L 309.985627 135.63748 
L 308.723149 135.63748 
z
" style="fill:#1f77b4;"/>
   </g>
   <g id="patch_122">
    <path clip-path="url(#p27b2ba6aa0)" d="M 310.301246 137.71551 
L 311.563724 137.71551 
L 311.563724 134.988095 
L 310.301246 134.988095 
z
" style="fill:#1f77b4;"/>
   </g>
   <g id="patch_123">
    <path clip-path="url(#p27b2ba6aa0)" d="M 311.879344 137.71551 
L 313.141822 137.71551 
L 313.141822 135.507603 
L 311.879344 135.507603 
z
" style="fill:#1f77b4;"/>
   </g>
   <g id="patch_124">
    <path clip-path="url(#p27b2ba6aa0)" d="M 313.457442 137.71551 
L 314.71992 137.71551 
L 314.71992 135.897233 
L 313.457442 135.897233 
z
" style="fill:#1f77b4;"/>
   </g>
   <g id="patch_125">
    <path clip-path="url(#p27b2ba6aa0)" d="M 315.035539 137.71551 
L 316.298017 137.71551 
L 316.298017 135.767356 
L 315.035539 135.767356 
z
" style="fill:#1f77b4;"/>
   </g>
   <g id="patch_126">
    <path clip-path="url(#p27b2ba6aa0)" d="M 316.613637 137.71551 
L 317.876115 137.71551 
L 317.876115 136.806372 
L 316.613637 136.806372 
z
" style="fill:#1f77b4;"/>
   </g>
   <g id="patch_127">
    <path clip-path="url(#p27b2ba6aa0)" d="M 318.191734 137.71551 
L 319.454213 137.71551 
L 319.454213 134.598464 
L 318.191734 134.598464 
z
" style="fill:#1f77b4;"/>
   </g>
   <g id="patch_128">
    <path clip-path="url(#p27b2ba6aa0)" d="M 319.769832 137.71551 
L 321.03231 137.71551 
L 321.03231 131.871049 
L 319.769832 131.871049 
z
" style="fill:#1f77b4;"/>
   </g>
   <g id="patch_129">
    <path clip-path="url(#p27b2ba6aa0)" d="M 321.34793 137.71551 
L 322.610408 137.71551 
L 322.610408 134.078957 
L 321.34793 134.078957 
z
" style="fill:#1f77b4;"/>
   </g>
   <g id="patch_130">
    <path clip-path="url(#p27b2ba6aa0)" d="M 322.926027 137.71551 
L 324.188505 137.71551 
L 324.188505 131.351542 
L 322.926027 131.351542 
z
" style="fill:#1f77b4;"/>
   </g>
   <g id="patch_131">
    <path clip-path="url(#p27b2ba6aa0)" d="M 324.504125 137.71551 
L 325.766603 137.71551 
L 325.766603 125.507081 
L 324.504125 125.507081 
z
" style="fill:#1f77b4;"/>
   </g>
   <g id="patch_132">
    <path clip-path="url(#p27b2ba6aa0)" d="M 326.082223 137.71551 
L 327.344701 137.71551 
L 327.344701 132.130803 
L 326.082223 132.130803 
z
" style="fill:#1f77b4;"/>
   </g>
   <g id="patch_133">
    <path clip-path="url(#p27b2ba6aa0)" d="M 327.66032 137.71551 
L 328.922798 137.71551 
L 328.922798 135.117972 
L 327.66032 135.117972 
z
" style="fill:#1f77b4;"/>
   </g>
   <g id="patch_134">
    <path clip-path="url(#p27b2ba6aa0)" d="M 329.238418 137.71551 
L 330.500896 137.71551 
L 330.500896 131.871049 
L 329.238418 131.871049 
z
" style="fill:#1f77b4;"/>
   </g>
   <g id="patch_135">
    <path clip-path="url(#p27b2ba6aa0)" d="M 330.816516 137.71551 
L 332.078994 137.71551 
L 332.078994 133.039942 
L 330.816516 133.039942 
z
" style="fill:#1f77b4;"/>
   </g>
   <g id="patch_136">
    <path clip-path="url(#p27b2ba6aa0)" d="M 332.394613 137.71551 
L 333.657091 137.71551 
L 333.657091 128.624127 
L 332.394613 128.624127 
z
" style="fill:#1f77b4;"/>
   </g>
   <g id="patch_137">
    <path clip-path="url(#p27b2ba6aa0)" d="M 333.972711 137.71551 
L 335.235189 137.71551 
L 335.235189 133.299695 
L 333.972711 133.299695 
z
" style="fill:#1f77b4;"/>
   </g>
   <g id="patch_138">
    <path clip-path="url(#p27b2ba6aa0)" d="M 335.550808 137.71551 
L 336.813287 137.71551 
L 336.813287 133.429572 
L 335.550808 133.429572 
z
" style="fill:#1f77b4;"/>
   </g>
   <g id="patch_139">
    <path clip-path="url(#p27b2ba6aa0)" d="M 337.128906 137.71551 
L 338.391384 137.71551 
L 338.391384 129.663142 
L 337.128906 129.663142 
z
" style="fill:#1f77b4;"/>
   </g>
   <g id="patch_140">
    <path clip-path="url(#p27b2ba6aa0)" d="M 338.707004 137.71551 
L 339.969482 137.71551 
L 339.969482 135.377726 
L 338.707004 135.377726 
z
" style="fill:#1f77b4;"/>
   </g>
   <g id="patch_141">
    <path clip-path="url(#p27b2ba6aa0)" d="M 340.285101 137.71551 
L 341.547579 137.71551 
L 341.547579 133.169818 
L 340.285101 133.169818 
z
" style="fill:#1f77b4;"/>
   </g>
   <g id="patch_142">
    <path clip-path="url(#p27b2ba6aa0)" d="M 341.863199 137.71551 
L 343.125677 137.71551 
L 343.125677 136.156987 
L 341.863199 136.156987 
z
" style="fill:#1f77b4;"/>
   </g>
   <g id="patch_143">
    <path clip-path="url(#p27b2ba6aa0)" d="M 343.441297 137.71551 
L 344.703775 137.71551 
L 344.703775 133.94908 
L 343.441297 133.94908 
z
" style="fill:#1f77b4;"/>
   </g>
   <g id="patch_144">
    <path clip-path="url(#p27b2ba6aa0)" d="M 345.019394 137.71551 
L 346.281872 137.71551 
L 346.281872 132.26068 
L 345.019394 132.26068 
z
" style="fill:#1f77b4;"/>
   </g>
   <g id="patch_145">
    <path clip-path="url(#p27b2ba6aa0)" d="M 346.597492 137.71551 
L 347.85997 137.71551 
L 347.85997 128.49425 
L 346.597492 128.49425 
z
" style="fill:#1f77b4;"/>
   </g>
   <g id="patch_146">
    <path clip-path="url(#p27b2ba6aa0)" d="M 348.175589 137.71551 
L 349.438068 137.71551 
L 349.438068 132.26068 
L 348.175589 132.26068 
z
" style="fill:#1f77b4;"/>
   </g>
   <g id="patch_147">
    <path clip-path="url(#p27b2ba6aa0)" d="M 349.753687 137.71551 
L 351.016165 137.71551 
L 351.016165 135.117972 
L 349.753687 135.117972 
z
" style="fill:#1f77b4;"/>
   </g>
   <g id="patch_148">
    <path clip-path="url(#p27b2ba6aa0)" d="M 351.331785 137.71551 
L 352.594263 137.71551 
L 352.594263 135.507603 
L 351.331785 135.507603 
z
" style="fill:#1f77b4;"/>
   </g>
   <g id="patch_149">
    <path clip-path="url(#p27b2ba6aa0)" d="M 352.909882 137.71551 
L 354.17236 137.71551 
L 354.17236 132.650311 
L 352.909882 132.650311 
z
" style="fill:#1f77b4;"/>
   </g>
   <g id="patch_150">
    <path clip-path="url(#p27b2ba6aa0)" d="M 354.48798 137.71551 
L 355.750458 137.71551 
L 355.750458 135.247849 
L 354.48798 135.247849 
z
" style="fill:#1f77b4;"/>
   </g>
   <g id="patch_151">
    <path clip-path="url(#p27b2ba6aa0)" d="M 356.066078 137.71551 
L 357.328556 137.71551 
L 357.328556 132.910065 
L 356.066078 132.910065 
z
" style="fill:#1f77b4;"/>
   </g>
   <g id="patch_152">
    <path clip-path="url(#p27b2ba6aa0)" d="M 357.644175 137.71551 
L 358.906653 137.71551 
L 358.906653 134.988095 
L 357.644175 134.988095 
z
" style="fill:#1f77b4;"/>
   </g>
   <g id="patch_153">
    <path clip-path="url(#p27b2ba6aa0)" d="M 359.222273 137.71551 
L 360.484751 137.71551 
L 360.484751 135.63748 
L 359.222273 135.63748 
z
" style="fill:#1f77b4;"/>
   </g>
   <g id="patch_154">
    <path clip-path="url(#p27b2ba6aa0)" d="M 360.800371 137.71551 
L 362.062849 137.71551 
L 362.062849 133.819203 
L 360.800371 133.819203 
z
" style="fill:#1f77b4;"/>
   </g>
   <g id="patch_155">
    <path clip-path="url(#p27b2ba6aa0)" d="M 362.378468 137.71551 
L 363.640946 137.71551 
L 363.640946 126.675973 
L 362.378468 126.675973 
z
" style="fill:#1f77b4;"/>
   </g>
   <g id="patch_156">
    <path clip-path="url(#p27b2ba6aa0)" d="M 363.956566 137.71551 
L 365.219044 137.71551 
L 365.219044 127.714989 
L 363.956566 127.714989 
z
" style="fill:#1f77b4;"/>
   </g>
   <g id="patch_157">
    <path clip-path="url(#p27b2ba6aa0)" d="M 365.534663 137.71551 
L 366.797142 137.71551 
L 366.797142 130.052773 
L 365.534663 130.052773 
z
" style="fill:#1f77b4;"/>
   </g>
   <g id="patch_158">
    <path clip-path="url(#p27b2ba6aa0)" d="M 367.112761 137.71551 
L 368.375239 137.71551 
L 368.375239 132.520434 
L 367.112761 132.520434 
z
" style="fill:#1f77b4;"/>
   </g>
   <g id="patch_159">
    <path clip-path="url(#p27b2ba6aa0)" d="M 368.690859 137.71551 
L 369.953337 137.71551 
L 369.953337 131.871049 
L 368.690859 131.871049 
z
" style="fill:#1f77b4;"/>
   </g>
   <g id="patch_160">
    <path clip-path="url(#p27b2ba6aa0)" d="M 370.268956 137.71551 
L 371.531434 137.71551 
L 371.531434 134.858218 
L 370.268956 134.858218 
z
" style="fill:#1f77b4;"/>
   </g>
   <g id="patch_161">
    <path clip-path="url(#p27b2ba6aa0)" d="M 371.847054 137.71551 
L 373.109532 137.71551 
L 373.109532 131.481419 
L 371.847054 131.481419 
z
" style="fill:#1f77b4;"/>
   </g>
   <g id="patch_162">
    <path clip-path="url(#p27b2ba6aa0)" d="M 373.425152 137.71551 
L 374.68763 137.71551 
L 374.68763 134.338711 
L 373.425152 134.338711 
z
" style="fill:#1f77b4;"/>
   </g>
   <g id="patch_163">
    <path clip-path="url(#p27b2ba6aa0)" d="M 375.003249 137.71551 
L 376.265727 137.71551 
L 376.265727 132.650311 
L 375.003249 132.650311 
z
" style="fill:#1f77b4;"/>
   </g>
   <g id="patch_164">
    <path clip-path="url(#p27b2ba6aa0)" d="M 376.581347 137.71551 
L 377.843825 137.71551 
L 377.843825 133.94908 
L 376.581347 133.94908 
z
" style="fill:#1f77b4;"/>
   </g>
   <g id="patch_165">
    <path clip-path="url(#p27b2ba6aa0)" d="M 378.159445 137.71551 
L 379.421923 137.71551 
L 379.421923 130.57228 
L 378.159445 130.57228 
z
" style="fill:#1f77b4;"/>
   </g>
   <g id="patch_166">
    <path clip-path="url(#p27b2ba6aa0)" d="M 379.737542 137.71551 
L 381.00002 137.71551 
L 381.00002 128.104619 
L 379.737542 128.104619 
z
" style="fill:#1f77b4;"/>
   </g>
   <g id="patch_167">
    <path clip-path="url(#p27b2ba6aa0)" d="M 381.31564 137.71551 
L 382.578118 137.71551 
L 382.578118 131.221665 
L 381.31564 131.221665 
z
" style="fill:#1f77b4;"/>
   </g>
   <g id="patch_168">
    <path clip-path="url(#p27b2ba6aa0)" d="M 382.893737 137.71551 
L 384.156216 137.71551 
L 384.156216 135.897233 
L 382.893737 135.897233 
z
" style="fill:#1f77b4;"/>
   </g>
   <g id="patch_169">
    <path clip-path="url(#p27b2ba6aa0)" d="M 384.471835 137.71551 
L 385.734313 137.71551 
L 385.734313 130.312527 
L 384.471835 130.312527 
z
" style="fill:#1f77b4;"/>
   </g>
   <g id="patch_170">
    <path clip-path="url(#p27b2ba6aa0)" d="M 386.049933 137.71551 
L 387.312411 137.71551 
L 387.312411 126.026589 
L 386.049933 126.026589 
z
" style="fill:#1f77b4;"/>
   </g>
   <g id="patch_171">
    <path clip-path="url(#p27b2ba6aa0)" d="M 387.62803 137.71551 
L 388.890508 137.71551 
L 388.890508 129.013758 
L 387.62803 129.013758 
z
" style="fill:#1f77b4;"/>
   </g>
   <g id="patch_172">
    <path clip-path="url(#p27b2ba6aa0)" d="M 389.206128 137.71551 
L 390.468606 137.71551 
L 390.468606 127.844865 
L 389.206128 127.844865 
z
" style="fill:#1f77b4;"/>
   </g>
   <g id="patch_173">
    <path clip-path="url(#p27b2ba6aa0)" d="M 390.784226 137.71551 
L 392.046704 137.71551 
L 392.046704 124.338189 
L 390.784226 124.338189 
z
" style="fill:#1f77b4;"/>
   </g>
   <g id="patch_174">
    <path clip-path="url(#p27b2ba6aa0)" d="M 392.362323 137.71551 
L 393.624801 137.71551 
L 393.624801 132.000926 
L 392.362323 132.000926 
z
" style="fill:#1f77b4;"/>
   </g>
   <g id="patch_175">
    <path clip-path="url(#p27b2ba6aa0)" d="M 393.940421 137.71551 
L 395.202899 137.71551 
L 395.202899 128.104619 
L 393.940421 128.104619 
z
" style="fill:#1f77b4;"/>
   </g>
   <g id="patch_176">
    <path clip-path="url(#p27b2ba6aa0)" d="M 395.518518 137.71551 
L 396.780997 137.71551 
L 396.780997 122.000405 
L 395.518518 122.000405 
z
" style="fill:#1f77b4;"/>
   </g>
   <g id="patch_177">
    <path clip-path="url(#p27b2ba6aa0)" d="M 397.096616 137.71551 
L 398.359094 137.71551 
L 398.359094 120.182128 
L 397.096616 120.182128 
z
" style="fill:#1f77b4;"/>
   </g>
   <g id="patch_178">
    <path clip-path="url(#p27b2ba6aa0)" d="M 398.674714 137.71551 
L 399.937192 137.71551 
L 399.937192 112.519391 
L 398.674714 112.519391 
z
" style="fill:#1f77b4;"/>
   </g>
   <g id="patch_179">
    <path clip-path="url(#p27b2ba6aa0)" d="M 400.252811 137.71551 
L 401.515289 137.71551 
L 401.515289 120.96139 
L 400.252811 120.96139 
z
" style="fill:#1f77b4;"/>
   </g>
   <g id="patch_180">
    <path clip-path="url(#p27b2ba6aa0)" d="M 401.830909 137.71551 
L 403.093387 137.71551 
L 403.093387 116.935206 
L 401.830909 116.935206 
z
" style="fill:#1f77b4;"/>
   </g>
   <g id="patch_181">
    <path clip-path="url(#p27b2ba6aa0)" d="M 403.409007 137.71551 
L 404.671485 137.71551 
L 404.671485 123.03942 
L 403.409007 123.03942 
z
" style="fill:#1f77b4;"/>
   </g>
   <g id="patch_182">
    <path clip-path="url(#p27b2ba6aa0)" d="M 404.987104 137.71551 
L 406.249582 137.71551 
L 406.249582 122.260159 
L 404.987104 122.260159 
z
" style="fill:#1f77b4;"/>
   </g>
   <g id="patch_183">
    <path clip-path="url(#p27b2ba6aa0)" d="M 406.565202 137.71551 
L 407.82768 137.71551 
L 407.82768 114.207791 
L 406.565202 114.207791 
z
" style="fill:#1f77b4;"/>
   </g>
   <g id="patch_184">
    <path clip-path="url(#p27b2ba6aa0)" d="M 408.1433 137.71551 
L 409.405778 137.71551 
L 409.405778 111.74013 
L 408.1433 111.74013 
z
" style="fill:#1f77b4;"/>
   </g>
   <g id="patch_185">
    <path clip-path="url(#p27b2ba6aa0)" d="M 409.721397 137.71551 
L 410.983875 137.71551 
L 410.983875 102.388993 
L 409.721397 102.388993 
z
" style="fill:#1f77b4;"/>
   </g>
   <g id="patch_186">
    <path clip-path="url(#p27b2ba6aa0)" d="M 411.299495 137.71551 
L 412.561973 137.71551 
L 412.561973 104.986531 
L 411.299495 104.986531 
z
" style="fill:#1f77b4;"/>
   </g>
   <g id="patch_187">
    <path clip-path="url(#p27b2ba6aa0)" d="M 412.877592 137.71551 
L 414.140071 137.71551 
L 414.140071 106.934684 
L 412.877592 106.934684 
z
" style="fill:#1f77b4;"/>
   </g>
   <g id="patch_188">
    <path clip-path="url(#p27b2ba6aa0)" d="M 414.45569 137.71551 
L 415.718168 137.71551 
L 415.718168 109.921853 
L 414.45569 109.921853 
z
" style="fill:#1f77b4;"/>
   </g>
   <g id="patch_189">
    <path clip-path="url(#p27b2ba6aa0)" d="M 416.033788 137.71551 
L 417.296266 137.71551 
L 417.296266 118.493729 
L 416.033788 118.493729 
z
" style="fill:#1f77b4;"/>
   </g>
   <g id="patch_190">
    <path clip-path="url(#p27b2ba6aa0)" d="M 417.611885 137.71551 
L 418.874363 137.71551 
L 418.874363 95.115886 
L 417.611885 95.115886 
z
" style="fill:#1f77b4;"/>
   </g>
   <g id="patch_191">
    <path clip-path="url(#p27b2ba6aa0)" d="M 419.189983 137.71551 
L 420.452461 137.71551 
L 420.452461 94.726256 
L 419.189983 94.726256 
z
" style="fill:#1f77b4;"/>
   </g>
   <g id="patch_192">
    <path clip-path="url(#p27b2ba6aa0)" d="M 420.768081 137.71551 
L 422.030559 137.71551 
L 422.030559 95.37564 
L 420.768081 95.37564 
z
" style="fill:#1f77b4;"/>
   </g>
   <g id="patch_193">
    <path clip-path="url(#p27b2ba6aa0)" d="M 422.346178 137.71551 
L 423.608656 137.71551 
L 423.608656 69.140506 
L 422.346178 69.140506 
z
" style="fill:#1f77b4;"/>
   </g>
   <g id="patch_194">
    <path clip-path="url(#p27b2ba6aa0)" d="M 423.924276 137.71551 
L 425.186754 137.71551 
L 425.186754 104.337146 
L 423.924276 104.337146 
z
" style="fill:#1f77b4;"/>
   </g>
   <g id="patch_195">
    <path clip-path="url(#p27b2ba6aa0)" d="M 425.502373 137.71551 
L 426.764852 137.71551 
L 426.764852 99.791455 
L 425.502373 99.791455 
z
" style="fill:#1f77b4;"/>
   </g>
   <g id="patch_196">
    <path clip-path="url(#p27b2ba6aa0)" d="M 427.080471 137.71551 
L 428.342949 137.71551 
L 428.342949 120.312005 
L 427.080471 120.312005 
z
" style="fill:#1f77b4;"/>
   </g>
   <g id="patch_197">
    <path clip-path="url(#p27b2ba6aa0)" d="M 428.658569 137.71551 
L 429.921047 137.71551 
L 429.921047 100.960347 
L 428.658569 100.960347 
z
" style="fill:#1f77b4;"/>
   </g>
   <g id="patch_198">
    <path clip-path="url(#p27b2ba6aa0)" d="M 430.236666 137.71551 
L 431.499144 137.71551 
L 431.499144 70.569152 
L 430.236666 70.569152 
z
" style="fill:#1f77b4;"/>
   </g>
   <g id="patch_199">
    <path clip-path="url(#p27b2ba6aa0)" d="M 431.814764 137.71551 
L 433.077242 137.71551 
L 433.077242 56.412569 
L 431.814764 56.412569 
z
" style="fill:#1f77b4;"/>
   </g>
   <g id="patch_200">
    <path clip-path="url(#p27b2ba6aa0)" d="M 433.392862 137.71551 
L 434.65534 137.71551 
L 434.65534 105.506038 
L 433.392862 105.506038 
z
" style="fill:#1f77b4;"/>
   </g>
   <g id="patch_201">
    <path clip-path="url(#p27b2ba6aa0)" d="M 434.970959 137.71551 
L 436.233437 137.71551 
L 436.233437 69.140506 
L 434.970959 69.140506 
z
" style="fill:#1f77b4;"/>
   </g>
   <g id="patch_202">
    <path clip-path="url(#p27b2ba6aa0)" d="M 436.549057 137.71551 
L 437.811535 137.71551 
L 437.811535 92.258594 
L 436.549057 92.258594 
z
" style="fill:#1f77b4;"/>
   </g>
   <g id="patch_203">
    <path clip-path="url(#p27b2ba6aa0)" d="M 438.127155 137.71551 
L 439.389633 137.71551 
L 439.389633 120.441882 
L 438.127155 120.441882 
z
" style="fill:#1f77b4;"/>
   </g>
   <g id="patch_204">
    <path clip-path="url(#p27b2ba6aa0)" d="M 439.705252 137.71551 
L 440.96773 137.71551 
L 440.96773 28.489036 
L 439.705252 28.489036 
z
" style="fill:#1f77b4;"/>
   </g>
   <g id="patch_205">
    <path clip-path="url(#p27b2ba6aa0)" d="M 441.28335 137.71551 
L 442.545828 137.71551 
L 442.545828 69.140506 
L 441.28335 69.140506 
z
" style="fill:#1f77b4;"/>
   </g>
   <g id="patch_206">
    <path clip-path="url(#p27b2ba6aa0)" d="M 442.861447 137.71551 
L 444.123926 137.71551 
L 444.123926 29.398174 
L 442.861447 29.398174 
z
" style="fill:#1f77b4;"/>
   </g>
   <g id="patch_207">
    <path clip-path="url(#p27b2ba6aa0)" d="M 444.439545 137.71551 
L 445.702023 137.71551 
L 445.702023 25.242113 
L 444.439545 25.242113 
z
" style="fill:#1f77b4;"/>
   </g>
   <g id="patch_208">
    <path clip-path="url(#p27b2ba6aa0)" d="M 446.017643 137.71551 
L 447.280121 137.71551 
L 447.280121 23.813467 
L 446.017643 23.813467 
z
" style="fill:#1f77b4;"/>
   </g>
   <g id="patch_209">
    <path clip-path="url(#p27b2ba6aa0)" d="M 447.59574 137.71551 
L 448.858218 137.71551 
L 448.858218 28.748789 
L 447.59574 28.748789 
z
" style="fill:#1f77b4;"/>
   </g>
   <g id="matplotlib.axis_3">
    <g id="xtick_6">
     <g id="line2d_11">
      <g>
       <use style="stroke:#000000;stroke-width:0.8;" x="290.417216" xlink:href="#md3b0dc69d8" y="137.71551"/>
      </g>
     </g>
     <g id="text_13">
      <!-- 0 -->
      <g transform="translate(287.235966 152.313947)scale(0.1 -0.1)">
       <use xlink:href="#DejaVuSans-48"/>
      </g>
     </g>
    </g>
    <g id="xtick_7">
     <g id="line2d_12">
      <g>
       <use style="stroke:#000000;stroke-width:0.8;" x="329.869657" xlink:href="#md3b0dc69d8" y="137.71551"/>
      </g>
     </g>
     <g id="text_14">
      <!-- 25 -->
      <g transform="translate(323.507157 152.313947)scale(0.1 -0.1)">
       <use xlink:href="#DejaVuSans-50"/>
       <use x="63.623047" xlink:href="#DejaVuSans-53"/>
      </g>
     </g>
    </g>
    <g id="xtick_8">
     <g id="line2d_13">
      <g>
       <use style="stroke:#000000;stroke-width:0.8;" x="369.322098" xlink:href="#md3b0dc69d8" y="137.71551"/>
      </g>
     </g>
     <g id="text_15">
      <!-- 50 -->
      <g transform="translate(362.959598 152.313947)scale(0.1 -0.1)">
       <use xlink:href="#DejaVuSans-53"/>
       <use x="63.623047" xlink:href="#DejaVuSans-48"/>
      </g>
     </g>
    </g>
    <g id="xtick_9">
     <g id="line2d_14">
      <g>
       <use style="stroke:#000000;stroke-width:0.8;" x="408.774539" xlink:href="#md3b0dc69d8" y="137.71551"/>
      </g>
     </g>
     <g id="text_16">
      <!-- 75 -->
      <g transform="translate(402.412039 152.313947)scale(0.1 -0.1)">
       <use xlink:href="#DejaVuSans-55"/>
       <use x="63.623047" xlink:href="#DejaVuSans-53"/>
      </g>
     </g>
    </g>
    <g id="xtick_10">
     <g id="line2d_15">
      <g>
       <use style="stroke:#000000;stroke-width:0.8;" x="448.226979" xlink:href="#md3b0dc69d8" y="137.71551"/>
      </g>
     </g>
     <g id="text_17">
      <!-- 100 -->
      <g transform="translate(438.683229 152.313947)scale(0.1 -0.1)">
       <use xlink:href="#DejaVuSans-49"/>
       <use x="63.623047" xlink:href="#DejaVuSans-48"/>
       <use x="127.246094" xlink:href="#DejaVuSans-48"/>
      </g>
     </g>
    </g>
    <g id="text_18">
     <!-- Dias -->
     <g transform="translate(358.414285 165.992072)scale(0.1 -0.1)">
      <use xlink:href="#DejaVuSans-68"/>
      <use x="77.001953" xlink:href="#DejaVuSans-105"/>
      <use x="104.785156" xlink:href="#DejaVuSans-97"/>
      <use x="166.064453" xlink:href="#DejaVuSans-115"/>
     </g>
    </g>
   </g>
   <g id="matplotlib.axis_4">
    <g id="ytick_5">
     <g id="line2d_16">
      <g>
       <use style="stroke:#000000;stroke-width:0.8;" x="281.832365" xlink:href="#medbc1bfe4d" y="137.71551"/>
      </g>
     </g>
     <g id="text_19">
      <!-- 0 -->
      <g transform="translate(268.469865 141.514729)scale(0.1 -0.1)">
       <use xlink:href="#DejaVuSans-48"/>
      </g>
     </g>
    </g>
    <g id="ytick_6">
     <g id="line2d_17">
      <g>
       <use style="stroke:#000000;stroke-width:0.8;" x="281.832365" xlink:href="#medbc1bfe4d" y="111.74013"/>
      </g>
     </g>
     <g id="text_20">
      <!-- 200 -->
      <g transform="translate(255.744865 115.539348)scale(0.1 -0.1)">
       <use xlink:href="#DejaVuSans-50"/>
       <use x="63.623047" xlink:href="#DejaVuSans-48"/>
       <use x="127.246094" xlink:href="#DejaVuSans-48"/>
      </g>
     </g>
    </g>
    <g id="ytick_7">
     <g id="line2d_18">
      <g>
       <use style="stroke:#000000;stroke-width:0.8;" x="281.832365" xlink:href="#medbc1bfe4d" y="85.764749"/>
      </g>
     </g>
     <g id="text_21">
      <!-- 400 -->
      <defs>
       <path d="M 37.796875 64.3125 
L 12.890625 25.390625 
L 37.796875 25.390625 
z
M 35.203125 72.90625 
L 47.609375 72.90625 
L 47.609375 25.390625 
L 58.015625 25.390625 
L 58.015625 17.1875 
L 47.609375 17.1875 
L 47.609375 0 
L 37.796875 0 
L 37.796875 17.1875 
L 4.890625 17.1875 
L 4.890625 26.703125 
z
" id="DejaVuSans-52"/>
      </defs>
      <g transform="translate(255.744865 89.563968)scale(0.1 -0.1)">
       <use xlink:href="#DejaVuSans-52"/>
       <use x="63.623047" xlink:href="#DejaVuSans-48"/>
       <use x="127.246094" xlink:href="#DejaVuSans-48"/>
      </g>
     </g>
    </g>
    <g id="ytick_8">
     <g id="line2d_19">
      <g>
       <use style="stroke:#000000;stroke-width:0.8;" x="281.832365" xlink:href="#medbc1bfe4d" y="59.789369"/>
      </g>
     </g>
     <g id="text_22">
      <!-- 600 -->
      <defs>
       <path d="M 33.015625 40.375 
Q 26.375 40.375 22.484375 35.828125 
Q 18.609375 31.296875 18.609375 23.390625 
Q 18.609375 15.53125 22.484375 10.953125 
Q 26.375 6.390625 33.015625 6.390625 
Q 39.65625 6.390625 43.53125 10.953125 
Q 47.40625 15.53125 47.40625 23.390625 
Q 47.40625 31.296875 43.53125 35.828125 
Q 39.65625 40.375 33.015625 40.375 
z
M 52.59375 71.296875 
L 52.59375 62.3125 
Q 48.875 64.0625 45.09375 64.984375 
Q 41.3125 65.921875 37.59375 65.921875 
Q 27.828125 65.921875 22.671875 59.328125 
Q 17.53125 52.734375 16.796875 39.40625 
Q 19.671875 43.65625 24.015625 45.921875 
Q 28.375 48.1875 33.59375 48.1875 
Q 44.578125 48.1875 50.953125 41.515625 
Q 57.328125 34.859375 57.328125 23.390625 
Q 57.328125 12.15625 50.6875 5.359375 
Q 44.046875 -1.421875 33.015625 -1.421875 
Q 20.359375 -1.421875 13.671875 8.265625 
Q 6.984375 17.96875 6.984375 36.375 
Q 6.984375 53.65625 15.1875 63.9375 
Q 23.390625 74.21875 37.203125 74.21875 
Q 40.921875 74.21875 44.703125 73.484375 
Q 48.484375 72.75 52.59375 71.296875 
z
" id="DejaVuSans-54"/>
      </defs>
      <g transform="translate(255.744865 63.588588)scale(0.1 -0.1)">
       <use xlink:href="#DejaVuSans-54"/>
       <use x="63.623047" xlink:href="#DejaVuSans-48"/>
       <use x="127.246094" xlink:href="#DejaVuSans-48"/>
      </g>
     </g>
    </g>
    <g id="ytick_9">
     <g id="line2d_20">
      <g>
       <use style="stroke:#000000;stroke-width:0.8;" x="281.832365" xlink:href="#medbc1bfe4d" y="33.813989"/>
      </g>
     </g>
     <g id="text_23">
      <!-- 800 -->
      <defs>
       <path d="M 31.78125 34.625 
Q 24.75 34.625 20.71875 30.859375 
Q 16.703125 27.09375 16.703125 20.515625 
Q 16.703125 13.921875 20.71875 10.15625 
Q 24.75 6.390625 31.78125 6.390625 
Q 38.8125 6.390625 42.859375 10.171875 
Q 46.921875 13.96875 46.921875 20.515625 
Q 46.921875 27.09375 42.890625 30.859375 
Q 38.875 34.625 31.78125 34.625 
z
M 21.921875 38.8125 
Q 15.578125 40.375 12.03125 44.71875 
Q 8.5 49.078125 8.5 55.328125 
Q 8.5 64.0625 14.71875 69.140625 
Q 20.953125 74.21875 31.78125 74.21875 
Q 42.671875 74.21875 48.875 69.140625 
Q 55.078125 64.0625 55.078125 55.328125 
Q 55.078125 49.078125 51.53125 44.71875 
Q 48 40.375 41.703125 38.8125 
Q 48.828125 37.15625 52.796875 32.3125 
Q 56.78125 27.484375 56.78125 20.515625 
Q 56.78125 9.90625 50.3125 4.234375 
Q 43.84375 -1.421875 31.78125 -1.421875 
Q 19.734375 -1.421875 13.25 4.234375 
Q 6.78125 9.90625 6.78125 20.515625 
Q 6.78125 27.484375 10.78125 32.3125 
Q 14.796875 37.15625 21.921875 38.8125 
z
M 18.3125 54.390625 
Q 18.3125 48.734375 21.84375 45.5625 
Q 25.390625 42.390625 31.78125 42.390625 
Q 38.140625 42.390625 41.71875 45.5625 
Q 45.3125 48.734375 45.3125 54.390625 
Q 45.3125 60.0625 41.71875 63.234375 
Q 38.140625 66.40625 31.78125 66.40625 
Q 25.390625 66.40625 21.84375 63.234375 
Q 18.3125 60.0625 18.3125 54.390625 
z
" id="DejaVuSans-56"/>
      </defs>
      <g transform="translate(255.744865 37.613207)scale(0.1 -0.1)">
       <use xlink:href="#DejaVuSans-56"/>
       <use x="63.623047" xlink:href="#DejaVuSans-48"/>
       <use x="127.246094" xlink:href="#DejaVuSans-48"/>
      </g>
     </g>
    </g>
    <g id="text_24">
     <!-- Novos casos -->
     <defs>
      <path d="M 9.8125 72.90625 
L 23.09375 72.90625 
L 55.421875 11.921875 
L 55.421875 72.90625 
L 64.984375 72.90625 
L 64.984375 0 
L 51.703125 0 
L 19.390625 60.984375 
L 19.390625 0 
L 9.8125 0 
z
" id="DejaVuSans-78"/>
      <path d="M 2.984375 54.6875 
L 12.5 54.6875 
L 29.59375 8.796875 
L 46.6875 54.6875 
L 56.203125 54.6875 
L 35.6875 0 
L 23.484375 0 
z
" id="DejaVuSans-118"/>
     </defs>
     <g transform="translate(249.665178 109.011469)rotate(-90)scale(0.1 -0.1)">
      <use xlink:href="#DejaVuSans-78"/>
      <use x="74.804688" xlink:href="#DejaVuSans-111"/>
      <use x="135.986328" xlink:href="#DejaVuSans-118"/>
      <use x="195.166016" xlink:href="#DejaVuSans-111"/>
      <use x="256.347656" xlink:href="#DejaVuSans-115"/>
      <use x="308.447266" xlink:href="#DejaVuSans-32"/>
      <use x="340.234375" xlink:href="#DejaVuSans-99"/>
      <use x="395.214844" xlink:href="#DejaVuSans-97"/>
      <use x="456.494141" xlink:href="#DejaVuSans-115"/>
      <use x="508.59375" xlink:href="#DejaVuSans-111"/>
      <use x="569.775391" xlink:href="#DejaVuSans-115"/>
     </g>
    </g>
   </g>
   <g id="line2d_21">
    <path clip-path="url(#p27b2ba6aa0)" d="M 290.417216 137.53933 
L 291.995314 137.461598 
L 293.573411 137.364934 
L 295.151509 137.262753 
L 296.729607 137.147968 
L 298.307704 137.022689 
L 299.885802 136.889675 
L 301.4639 136.749141 
L 303.041997 136.603037 
L 304.620095 136.451414 
L 306.198192 136.288703 
L 307.77629 136.108304 
L 309.354388 135.902102 
L 310.932485 135.661821 
L 312.510583 135.383297 
L 314.088681 135.05966 
L 315.666778 134.689232 
L 317.244876 134.286727 
L 318.822974 133.869455 
L 320.401071 133.457105 
L 321.979169 133.071369 
L 323.557266 132.729557 
L 325.135364 132.45747 
L 326.713462 132.273284 
L 328.291559 132.170399 
L 329.869657 132.142271 
L 331.447755 132.179865 
L 333.025852 132.270904 
L 334.60395 132.400781 
L 336.182047 132.542342 
L 337.760145 132.674166 
L 339.338243 132.79793 
L 340.91634 132.911904 
L 342.494438 133.015167 
L 344.072536 133.10296 
L 345.650633 133.176255 
L 347.228731 133.241167 
L 348.806829 133.300723 
L 350.384926 133.339075 
L 351.963024 133.340103 
L 353.541121 133.287903 
L 355.119219 133.183179 
L 356.697317 133.029177 
L 358.275414 132.836661 
L 359.853512 132.617314 
L 361.43161 132.395317 
L 363.009707 132.197446 
L 364.587805 132.053721 
L 366.165902 131.970905 
L 367.744 131.942127 
L 369.322098 131.946563 
L 370.900195 131.963927 
L 372.478293 131.970472 
L 374.056391 131.94494 
L 375.634488 131.85493 
L 377.212586 131.68286 
L 378.790684 131.425216 
L 380.368781 131.08481 
L 381.946879 130.662724 
L 383.524976 130.158254 
L 385.103074 129.561772 
L 386.681172 128.877444 
L 388.259269 128.108352 
L 389.837367 127.251034 
L 391.415465 126.31063 
L 392.993562 125.291629 
L 394.57166 124.200469 
L 396.149758 123.051807 
L 397.727855 121.854462 
L 399.305953 120.610327 
L 400.88405 119.320213 
L 402.462148 117.976114 
L 404.040246 116.567591 
L 405.618343 115.087935 
L 407.196441 113.531089 
L 408.774539 111.892401 
L 410.352636 110.187232 
L 411.930734 108.43403 
L 413.508831 106.637985 
L 415.086929 104.847134 
L 416.665027 103.088684 
L 418.243124 101.386707 
L 419.821222 99.760784 
L 421.39932 98.172402 
L 422.977417 96.594893 
L 424.555515 95.034476 
L 426.133613 93.380372 
L 427.71171 91.547814 
L 429.289808 89.427808 
L 430.867905 86.875383 
L 432.446003 83.84943 
L 434.024101 80.270702 
L 435.602198 76.066715 
L 437.180296 71.323693 
L 438.758394 66.124776 
L 440.336491 60.857486 
L 441.914589 55.729323 
L 443.492687 50.860751 
L 445.070784 47.713846 
L 446.648882 44.951812 
L 448.226979 42.615705 
" style="fill:none;stroke:#ff0000;stroke-linecap:square;stroke-width:1.5;"/>
   </g>
   <g id="patch_210">
    <path d="M 281.832365 137.71551 
L 281.832365 18.118365 
" style="fill:none;stroke:#000000;stroke-linecap:square;stroke-linejoin:miter;stroke-width:0.8;"/>
   </g>
   <g id="patch_211">
    <path d="M 456.811831 137.71551 
L 456.811831 18.118365 
" style="fill:none;stroke:#000000;stroke-linecap:square;stroke-linejoin:miter;stroke-width:0.8;"/>
   </g>
   <g id="patch_212">
    <path d="M 281.832365 137.71551 
L 456.811831 137.71551 
" style="fill:none;stroke:#000000;stroke-linecap:square;stroke-linejoin:miter;stroke-width:0.8;"/>
   </g>
   <g id="patch_213">
    <path d="M 281.832365 18.118365 
L 456.811831 18.118365 
" style="fill:none;stroke:#000000;stroke-linecap:square;stroke-linejoin:miter;stroke-width:0.8;"/>
   </g>
   <g id="text_25">
    <!-- Casos novos - PR -->
    <defs>
     <path d="M 54.890625 33.015625 
L 54.890625 0 
L 45.90625 0 
L 45.90625 32.71875 
Q 45.90625 40.484375 42.875 44.328125 
Q 39.84375 48.1875 33.796875 48.1875 
Q 26.515625 48.1875 22.3125 43.546875 
Q 18.109375 38.921875 18.109375 30.90625 
L 18.109375 0 
L 9.078125 0 
L 9.078125 54.6875 
L 18.109375 54.6875 
L 18.109375 46.1875 
Q 21.34375 51.125 25.703125 53.5625 
Q 30.078125 56 35.796875 56 
Q 45.21875 56 50.046875 50.171875 
Q 54.890625 44.34375 54.890625 33.015625 
z
" id="DejaVuSans-110"/>
    </defs>
    <g transform="translate(318.038973 12.118365)scale(0.12 -0.12)">
     <use xlink:href="#DejaVuSans-67"/>
     <use x="69.824219" xlink:href="#DejaVuSans-97"/>
     <use x="131.103516" xlink:href="#DejaVuSans-115"/>
     <use x="183.203125" xlink:href="#DejaVuSans-111"/>
     <use x="244.384766" xlink:href="#DejaVuSans-115"/>
     <use x="296.484375" xlink:href="#DejaVuSans-32"/>
     <use x="328.271484" xlink:href="#DejaVuSans-110"/>
     <use x="391.650391" xlink:href="#DejaVuSans-111"/>
     <use x="452.832031" xlink:href="#DejaVuSans-118"/>
     <use x="512.011719" xlink:href="#DejaVuSans-111"/>
     <use x="573.193359" xlink:href="#DejaVuSans-115"/>
     <use x="625.292969" xlink:href="#DejaVuSans-32"/>
     <use x="657.080078" xlink:href="#DejaVuSans-45"/>
     <use x="693.164062" xlink:href="#DejaVuSans-32"/>
     <use x="724.951172" xlink:href="#DejaVuSans-80"/>
     <use x="785.253906" xlink:href="#DejaVuSans-82"/>
    </g>
   </g>
  </g>
  <g id="axes_3">
   <g id="patch_214">
    <path d="M 55.490865 312.24351 
L 456.811831 312.24351 
L 456.811831 192.646365 
L 55.490865 192.646365 
z
" style="fill:#ffffff;"/>
   </g>
   <g id="matplotlib.axis_5">
    <g id="xtick_11">
     <g id="line2d_22">
      <g>
       <use style="stroke:#000000;stroke-width:0.8;" x="73.732727" xlink:href="#md3b0dc69d8" y="312.24351"/>
      </g>
     </g>
     <g id="text_26">
      <!-- 0 -->
      <g transform="translate(70.551477 326.841947)scale(0.1 -0.1)">
       <use xlink:href="#DejaVuSans-48"/>
      </g>
     </g>
    </g>
    <g id="xtick_12">
     <g id="line2d_23">
      <g>
       <use style="stroke:#000000;stroke-width:0.8;" x="146.700175" xlink:href="#md3b0dc69d8" y="312.24351"/>
      </g>
     </g>
     <g id="text_27">
      <!-- 20 -->
      <g transform="translate(140.337675 326.841947)scale(0.1 -0.1)">
       <use xlink:href="#DejaVuSans-50"/>
       <use x="63.623047" xlink:href="#DejaVuSans-48"/>
      </g>
     </g>
    </g>
    <g id="xtick_13">
     <g id="line2d_24">
      <g>
       <use style="stroke:#000000;stroke-width:0.8;" x="219.667624" xlink:href="#md3b0dc69d8" y="312.24351"/>
      </g>
     </g>
     <g id="text_28">
      <!-- 40 -->
      <g transform="translate(213.305124 326.841947)scale(0.1 -0.1)">
       <use xlink:href="#DejaVuSans-52"/>
       <use x="63.623047" xlink:href="#DejaVuSans-48"/>
      </g>
     </g>
    </g>
    <g id="xtick_14">
     <g id="line2d_25">
      <g>
       <use style="stroke:#000000;stroke-width:0.8;" x="292.635072" xlink:href="#md3b0dc69d8" y="312.24351"/>
      </g>
     </g>
     <g id="text_29">
      <!-- 60 -->
      <g transform="translate(286.272572 326.841947)scale(0.1 -0.1)">
       <use xlink:href="#DejaVuSans-54"/>
       <use x="63.623047" xlink:href="#DejaVuSans-48"/>
      </g>
     </g>
    </g>
    <g id="xtick_15">
     <g id="line2d_26">
      <g>
       <use style="stroke:#000000;stroke-width:0.8;" x="365.60252" xlink:href="#md3b0dc69d8" y="312.24351"/>
      </g>
     </g>
     <g id="text_30">
      <!-- 80 -->
      <g transform="translate(359.24002 326.841947)scale(0.1 -0.1)">
       <use xlink:href="#DejaVuSans-56"/>
       <use x="63.623047" xlink:href="#DejaVuSans-48"/>
      </g>
     </g>
    </g>
    <g id="xtick_16">
     <g id="line2d_27">
      <g>
       <use style="stroke:#000000;stroke-width:0.8;" x="438.569968" xlink:href="#md3b0dc69d8" y="312.24351"/>
      </g>
     </g>
     <g id="text_31">
      <!-- 100 -->
      <g transform="translate(429.026218 326.841947)scale(0.1 -0.1)">
       <use xlink:href="#DejaVuSans-49"/>
       <use x="63.623047" xlink:href="#DejaVuSans-48"/>
       <use x="127.246094" xlink:href="#DejaVuSans-48"/>
      </g>
     </g>
    </g>
    <g id="text_32">
     <!-- Dias -->
     <g transform="translate(245.243535 340.520072)scale(0.1 -0.1)">
      <use xlink:href="#DejaVuSans-68"/>
      <use x="77.001953" xlink:href="#DejaVuSans-105"/>
      <use x="104.785156" xlink:href="#DejaVuSans-97"/>
      <use x="166.064453" xlink:href="#DejaVuSans-115"/>
     </g>
    </g>
   </g>
   <g id="matplotlib.axis_6">
    <g id="ytick_10">
     <g id="line2d_28">
      <g>
       <use style="stroke:#000000;stroke-width:0.8;" x="55.490865" xlink:href="#medbc1bfe4d" y="298.844725"/>
      </g>
     </g>
     <g id="text_33">
      <!-- 1 -->
      <g transform="translate(42.128365 302.643944)scale(0.1 -0.1)">
       <use xlink:href="#DejaVuSans-49"/>
      </g>
     </g>
    </g>
    <g id="ytick_11">
     <g id="line2d_29">
      <g>
       <use style="stroke:#000000;stroke-width:0.8;" x="55.490865" xlink:href="#medbc1bfe4d" y="257.896348"/>
      </g>
     </g>
     <g id="text_34">
      <!-- 2 -->
      <g transform="translate(42.128365 261.695567)scale(0.1 -0.1)">
       <use xlink:href="#DejaVuSans-50"/>
      </g>
     </g>
    </g>
    <g id="ytick_12">
     <g id="line2d_30">
      <g>
       <use style="stroke:#000000;stroke-width:0.8;" x="55.490865" xlink:href="#medbc1bfe4d" y="216.947971"/>
      </g>
     </g>
     <g id="text_35">
      <!-- 3 -->
      <defs>
       <path d="M 40.578125 39.3125 
Q 47.65625 37.796875 51.625 33 
Q 55.609375 28.21875 55.609375 21.1875 
Q 55.609375 10.40625 48.1875 4.484375 
Q 40.765625 -1.421875 27.09375 -1.421875 
Q 22.515625 -1.421875 17.65625 -0.515625 
Q 12.796875 0.390625 7.625 2.203125 
L 7.625 11.71875 
Q 11.71875 9.328125 16.59375 8.109375 
Q 21.484375 6.890625 26.8125 6.890625 
Q 36.078125 6.890625 40.9375 10.546875 
Q 45.796875 14.203125 45.796875 21.1875 
Q 45.796875 27.640625 41.28125 31.265625 
Q 36.765625 34.90625 28.71875 34.90625 
L 20.21875 34.90625 
L 20.21875 43.015625 
L 29.109375 43.015625 
Q 36.375 43.015625 40.234375 45.921875 
Q 44.09375 48.828125 44.09375 54.296875 
Q 44.09375 59.90625 40.109375 62.90625 
Q 36.140625 65.921875 28.71875 65.921875 
Q 24.65625 65.921875 20.015625 65.03125 
Q 15.375 64.15625 9.8125 62.3125 
L 9.8125 71.09375 
Q 15.4375 72.65625 20.34375 73.4375 
Q 25.25 74.21875 29.59375 74.21875 
Q 40.828125 74.21875 47.359375 69.109375 
Q 53.90625 64.015625 53.90625 55.328125 
Q 53.90625 49.265625 50.4375 45.09375 
Q 46.96875 40.921875 40.578125 39.3125 
z
" id="DejaVuSans-51"/>
      </defs>
      <g transform="translate(42.128365 220.74719)scale(0.1 -0.1)">
       <use xlink:href="#DejaVuSans-51"/>
      </g>
     </g>
    </g>
    <g id="text_36">
     <!-- r0 -->
     <defs>
      <path d="M 41.109375 46.296875 
Q 39.59375 47.171875 37.8125 47.578125 
Q 36.03125 48 33.890625 48 
Q 26.265625 48 22.1875 43.046875 
Q 18.109375 38.09375 18.109375 28.8125 
L 18.109375 0 
L 9.078125 0 
L 9.078125 54.6875 
L 18.109375 54.6875 
L 18.109375 46.1875 
Q 20.953125 51.171875 25.484375 53.578125 
Q 30.03125 56 36.53125 56 
Q 37.453125 56 38.578125 55.875 
Q 39.703125 55.765625 41.0625 55.515625 
z
" id="DejaVuSans-114"/>
     </defs>
     <g transform="translate(36.048678 257.681656)rotate(-90)scale(0.1 -0.1)">
      <use xlink:href="#DejaVuSans-114"/>
      <use x="41.113281" xlink:href="#DejaVuSans-48"/>
     </g>
    </g>
   </g>
   <g id="line2d_31">
    <path clip-path="url(#pb61652ba25)" d="M 73.732727 198.082599 
L 77.381099 209.299677 
L 81.029472 218.1922 
L 84.677844 232.828248 
L 88.326217 239.682446 
L 91.974589 245.94788 
L 95.622962 251.725804 
L 99.271334 256.299806 
L 102.919706 260.419954 
L 106.568079 263.749496 
L 110.216451 265.475417 
L 113.864824 265.998239 
L 117.513196 265.567076 
L 121.161568 264.601727 
L 124.809941 263.88881 
L 128.458313 263.172945 
L 132.106686 263.008952 
L 135.755058 264.471268 
L 139.403431 267.06968 
L 143.051803 270.477478 
L 146.700175 274.50375 
L 150.348548 278.744352 
L 153.99692 283.660425 
L 157.645293 288.897923 
L 161.293665 293.371269 
L 164.942037 297.323423 
L 168.59041 300.787615 
L 172.238782 303.693359 
L 175.887155 305.951429 
L 179.535527 306.807276 
L 183.183899 306.449832 
L 186.832272 306.161192 
L 190.480644 305.737758 
L 194.129017 305.221653 
L 197.777389 304.360304 
L 201.425762 303.513381 
L 205.074134 303.0316 
L 208.722506 302.732097 
L 212.370879 301.345754 
L 216.019251 298.84546 
L 219.667624 295.320434 
L 223.315996 292.002311 
L 226.964368 289.140769 
L 230.612741 287.204264 
L 234.261113 286.155973 
L 237.909486 286.532371 
L 241.557858 288.248659 
L 245.206231 291.315273 
L 248.854603 294.527524 
L 252.502975 297.289797 
L 256.151348 298.97407 
L 259.79972 299.631447 
L 263.448093 299.077992 
L 267.096465 297.444094 
L 270.744837 294.234918 
L 274.39321 290.370889 
L 278.041582 286.71945 
L 281.689955 283.670259 
L 285.338327 281.168476 
L 288.986699 279.135671 
L 292.635072 277.249763 
L 296.283444 275.98644 
L 299.931817 275.206398 
L 303.580189 274.645879 
L 307.228562 274.478336 
L 310.876934 274.593532 
L 314.525306 274.956213 
L 318.173679 275.647183 
L 321.822051 276.467042 
L 325.470424 277.260215 
L 329.118796 278.007607 
L 332.767168 278.589358 
L 336.415541 279.007946 
L 340.063913 279.344029 
L 343.712286 279.621949 
L 347.360658 279.868648 
L 351.009031 280.29102 
L 354.657403 280.87534 
L 358.305775 281.462863 
L 361.954148 282.411337 
L 365.60252 283.476656 
L 369.250893 284.610477 
L 372.899265 285.767614 
L 376.547637 286.528858 
L 380.19601 287.034307 
L 383.844382 287.53883 
L 387.492755 287.28689 
L 391.141127 286.548451 
L 394.789499 285.265448 
L 398.437872 283.357073 
L 402.086244 281.540333 
L 405.734617 279.670782 
L 409.382989 277.860624 
L 413.031362 276.829503 
L 416.679734 276.406916 
L 420.328106 277.551716 
L 423.976479 279.263307 
L 427.624851 281.130249 
L 431.273224 287.379268 
L 434.921596 288.87444 
L 438.569968 290.379515 
" style="fill:none;stroke:#ff0000;stroke-linecap:square;stroke-width:1.5;"/>
   </g>
   <g id="patch_215">
    <path d="M 55.490865 312.24351 
L 55.490865 192.646365 
" style="fill:none;stroke:#000000;stroke-linecap:square;stroke-linejoin:miter;stroke-width:0.8;"/>
   </g>
   <g id="patch_216">
    <path d="M 456.811831 312.24351 
L 456.811831 192.646365 
" style="fill:none;stroke:#000000;stroke-linecap:square;stroke-linejoin:miter;stroke-width:0.8;"/>
   </g>
   <g id="patch_217">
    <path d="M 55.490865 312.24351 
L 456.811831 312.24351 
" style="fill:none;stroke:#000000;stroke-linecap:square;stroke-linejoin:miter;stroke-width:0.8;"/>
   </g>
   <g id="patch_218">
    <path d="M 55.490865 192.646365 
L 456.811831 192.646365 
" style="fill:none;stroke:#000000;stroke-linecap:square;stroke-linejoin:miter;stroke-width:0.8;"/>
   </g>
   <g id="text_37">
    <!-- r0 aproximado - PR -->
    <defs>
     <path d="M 18.109375 8.203125 
L 18.109375 -20.796875 
L 9.078125 -20.796875 
L 9.078125 54.6875 
L 18.109375 54.6875 
L 18.109375 46.390625 
Q 20.953125 51.265625 25.265625 53.625 
Q 29.59375 56 35.59375 56 
Q 45.5625 56 51.78125 48.09375 
Q 58.015625 40.1875 58.015625 27.296875 
Q 58.015625 14.40625 51.78125 6.484375 
Q 45.5625 -1.421875 35.59375 -1.421875 
Q 29.59375 -1.421875 25.265625 0.953125 
Q 20.953125 3.328125 18.109375 8.203125 
z
M 48.6875 27.296875 
Q 48.6875 37.203125 44.609375 42.84375 
Q 40.53125 48.484375 33.40625 48.484375 
Q 26.265625 48.484375 22.1875 42.84375 
Q 18.109375 37.203125 18.109375 27.296875 
Q 18.109375 17.390625 22.1875 11.75 
Q 26.265625 6.109375 33.40625 6.109375 
Q 40.53125 6.109375 44.609375 11.75 
Q 48.6875 17.390625 48.6875 27.296875 
z
" id="DejaVuSans-112"/>
     <path d="M 54.890625 54.6875 
L 35.109375 28.078125 
L 55.90625 0 
L 45.3125 0 
L 29.390625 21.484375 
L 13.484375 0 
L 2.875 0 
L 24.125 28.609375 
L 4.6875 54.6875 
L 15.28125 54.6875 
L 29.78125 35.203125 
L 44.28125 54.6875 
z
" id="DejaVuSans-120"/>
    </defs>
    <g transform="translate(198.67416 186.646365)scale(0.12 -0.12)">
     <use xlink:href="#DejaVuSans-114"/>
     <use x="41.113281" xlink:href="#DejaVuSans-48"/>
     <use x="104.736328" xlink:href="#DejaVuSans-32"/>
     <use x="136.523438" xlink:href="#DejaVuSans-97"/>
     <use x="197.802734" xlink:href="#DejaVuSans-112"/>
     <use x="261.279297" xlink:href="#DejaVuSans-114"/>
     <use x="300.142578" xlink:href="#DejaVuSans-111"/>
     <use x="358.199219" xlink:href="#DejaVuSans-120"/>
     <use x="417.378906" xlink:href="#DejaVuSans-105"/>
     <use x="445.162109" xlink:href="#DejaVuSans-109"/>
     <use x="542.574219" xlink:href="#DejaVuSans-97"/>
     <use x="603.853516" xlink:href="#DejaVuSans-100"/>
     <use x="667.330078" xlink:href="#DejaVuSans-111"/>
     <use x="728.511719" xlink:href="#DejaVuSans-32"/>
     <use x="760.298828" xlink:href="#DejaVuSans-45"/>
     <use x="796.382812" xlink:href="#DejaVuSans-32"/>
     <use x="828.169922" xlink:href="#DejaVuSans-80"/>
     <use x="888.472656" xlink:href="#DejaVuSans-82"/>
    </g>
   </g>
  </g>
 </g>
 <defs>
  <clipPath id="p67ab3d4bc6">
   <rect height="119.597145" width="174.979466" x="55.490865" y="18.118365"/>
  </clipPath>
  <clipPath id="p27b2ba6aa0">
   <rect height="119.597145" width="174.979466" x="281.832365" y="18.118365"/>
  </clipPath>
  <clipPath id="pb61652ba25">
   <rect height="119.597145" width="401.320966" x="55.490865" y="192.646365"/>
  </clipPath>
 </defs>
</svg>
