<?xml version="1.0" encoding="utf-8" standalone="no"?>
<!DOCTYPE svg PUBLIC "-//W3C//DTD SVG 1.1//EN"
  "http://www.w3.org/Graphics/SVG/1.1/DTD/svg11.dtd">
<!-- Created with matplotlib (https://matplotlib.org/) -->
<svg height="345.6pt" version="1.1" viewBox="0 0 460.8 345.6" width="460.8pt" xmlns="http://www.w3.org/2000/svg" xmlns:xlink="http://www.w3.org/1999/xlink">
 <defs>
  <style type="text/css">
*{stroke-linecap:butt;stroke-linejoin:round;}
  </style>
 </defs>
 <g id="figure_1">
  <g id="patch_1">
   <path d="M 0 345.6 
L 460.8 345.6 
L 460.8 0 
L 0 0 
z
" style="fill:#ffffff;"/>
  </g>
  <g id="axes_1">
   <g id="patch_2">
    <path d="M 61.853365 137.71551 
L 231.45826 137.71551 
L 231.45826 18.118365 
L 61.853365 18.118365 
z
" style="fill:#ffffff;"/>
   </g>
   <g id="patch_3">
    <path clip-path="url(#p077512949d)" d="M 69.562678 137.71551 
L 70.706918 137.71551 
L 70.706918 137.714345 
L 69.562678 137.714345 
z
" style="fill:#1f77b4;"/>
   </g>
   <g id="patch_4">
    <path clip-path="url(#p077512949d)" d="M 70.992978 137.71551 
L 72.137217 137.71551 
L 72.137217 137.713179 
L 70.992978 137.713179 
z
" style="fill:#1f77b4;"/>
   </g>
   <g id="patch_5">
    <path clip-path="url(#p077512949d)" d="M 72.423277 137.71551 
L 73.567517 137.71551 
L 73.567517 137.712014 
L 72.423277 137.712014 
z
" style="fill:#1f77b4;"/>
   </g>
   <g id="patch_6">
    <path clip-path="url(#p077512949d)" d="M 73.853576 137.71551 
L 74.997816 137.71551 
L 74.997816 137.712014 
L 73.853576 137.712014 
z
" style="fill:#1f77b4;"/>
   </g>
   <g id="patch_7">
    <path clip-path="url(#p077512949d)" d="M 75.283876 137.71551 
L 76.428115 137.71551 
L 76.428115 137.706188 
L 75.283876 137.706188 
z
" style="fill:#1f77b4;"/>
   </g>
   <g id="patch_8">
    <path clip-path="url(#p077512949d)" d="M 76.714175 137.71551 
L 77.858415 137.71551 
L 77.858415 137.700361 
L 76.714175 137.700361 
z
" style="fill:#1f77b4;"/>
   </g>
   <g id="patch_9">
    <path clip-path="url(#p077512949d)" d="M 78.144474 137.71551 
L 79.288714 137.71551 
L 79.288714 137.696865 
L 78.144474 137.696865 
z
" style="fill:#1f77b4;"/>
   </g>
   <g id="patch_10">
    <path clip-path="url(#p077512949d)" d="M 79.574774 137.71551 
L 80.719013 137.71551 
L 80.719013 137.696865 
L 79.574774 137.696865 
z
" style="fill:#1f77b4;"/>
   </g>
   <g id="patch_11">
    <path clip-path="url(#p077512949d)" d="M 81.005073 137.71551 
L 82.149313 137.71551 
L 82.149313 137.689873 
L 81.005073 137.689873 
z
" style="fill:#1f77b4;"/>
   </g>
   <g id="patch_12">
    <path clip-path="url(#p077512949d)" d="M 82.435372 137.71551 
L 83.579612 137.71551 
L 83.579612 137.687543 
L 82.435372 137.687543 
z
" style="fill:#1f77b4;"/>
   </g>
   <g id="patch_13">
    <path clip-path="url(#p077512949d)" d="M 83.865672 137.71551 
L 85.009911 137.71551 
L 85.009911 137.679386 
L 83.865672 137.679386 
z
" style="fill:#1f77b4;"/>
   </g>
   <g id="patch_14">
    <path clip-path="url(#p077512949d)" d="M 85.295971 137.71551 
L 86.440211 137.71551 
L 86.440211 137.677055 
L 85.295971 137.677055 
z
" style="fill:#1f77b4;"/>
   </g>
   <g id="patch_15">
    <path clip-path="url(#p077512949d)" d="M 86.72627 137.71551 
L 87.87051 137.71551 
L 87.87051 137.663071 
L 86.72627 137.663071 
z
" style="fill:#1f77b4;"/>
   </g>
   <g id="patch_16">
    <path clip-path="url(#p077512949d)" d="M 88.15657 137.71551 
L 89.300809 137.71551 
L 89.300809 137.639765 
L 88.15657 137.639765 
z
" style="fill:#1f77b4;"/>
   </g>
   <g id="patch_17">
    <path clip-path="url(#p077512949d)" d="M 89.586869 137.71551 
L 90.731109 137.71551 
L 90.731109 137.588492 
L 89.586869 137.588492 
z
" style="fill:#1f77b4;"/>
   </g>
   <g id="patch_18">
    <path clip-path="url(#p077512949d)" d="M 91.017168 137.71551 
L 92.161408 137.71551 
L 92.161408 137.576839 
L 91.017168 137.576839 
z
" style="fill:#1f77b4;"/>
   </g>
   <g id="patch_19">
    <path clip-path="url(#p077512949d)" d="M 92.447468 137.71551 
L 93.591707 137.71551 
L 93.591707 137.498763 
L 92.447468 137.498763 
z
" style="fill:#1f77b4;"/>
   </g>
   <g id="patch_20">
    <path clip-path="url(#p077512949d)" d="M 93.877767 137.71551 
L 95.022007 137.71551 
L 95.022007 137.443994 
L 93.877767 137.443994 
z
" style="fill:#1f77b4;"/>
   </g>
   <g id="patch_21">
    <path clip-path="url(#p077512949d)" d="M 95.308066 137.71551 
L 96.452306 137.71551 
L 96.452306 137.360092 
L 95.308066 137.360092 
z
" style="fill:#1f77b4;"/>
   </g>
   <g id="patch_22">
    <path clip-path="url(#p077512949d)" d="M 96.738366 137.71551 
L 97.882605 137.71551 
L 97.882605 137.284347 
L 96.738366 137.284347 
z
" style="fill:#1f77b4;"/>
   </g>
   <g id="patch_23">
    <path clip-path="url(#p077512949d)" d="M 98.168665 137.71551 
L 99.312905 137.71551 
L 99.312905 137.224916 
L 98.168665 137.224916 
z
" style="fill:#1f77b4;"/>
   </g>
   <g id="patch_24">
    <path clip-path="url(#p077512949d)" d="M 99.598964 137.71551 
L 100.743204 137.71551 
L 100.743204 137.141014 
L 99.598964 137.141014 
z
" style="fill:#1f77b4;"/>
   </g>
   <g id="patch_25">
    <path clip-path="url(#p077512949d)" d="M 101.029264 137.71551 
L 102.173503 137.71551 
L 102.173503 137.06527 
L 101.029264 137.06527 
z
" style="fill:#1f77b4;"/>
   </g>
   <g id="patch_26">
    <path clip-path="url(#p077512949d)" d="M 102.459563 137.71551 
L 103.603803 137.71551 
L 103.603803 137.016327 
L 102.459563 137.016327 
z
" style="fill:#1f77b4;"/>
   </g>
   <g id="patch_27">
    <path clip-path="url(#p077512949d)" d="M 103.889862 137.71551 
L 105.034102 137.71551 
L 105.034102 136.949904 
L 103.889862 136.949904 
z
" style="fill:#1f77b4;"/>
   </g>
   <g id="patch_28">
    <path clip-path="url(#p077512949d)" d="M 105.320162 137.71551 
L 106.464401 137.71551 
L 106.464401 136.890474 
L 105.320162 136.890474 
z
" style="fill:#1f77b4;"/>
   </g>
   <g id="patch_29">
    <path clip-path="url(#p077512949d)" d="M 106.750461 137.71551 
L 107.894701 137.71551 
L 107.894701 136.745976 
L 106.750461 136.745976 
z
" style="fill:#1f77b4;"/>
   </g>
   <g id="patch_30">
    <path clip-path="url(#p077512949d)" d="M 108.18076 137.71551 
L 109.325 137.71551 
L 109.325 136.559527 
L 108.18076 136.559527 
z
" style="fill:#1f77b4;"/>
   </g>
   <g id="patch_31">
    <path clip-path="url(#p077512949d)" d="M 109.61106 137.71551 
L 110.755299 137.71551 
L 110.755299 136.463972 
L 109.61106 136.463972 
z
" style="fill:#1f77b4;"/>
   </g>
   <g id="patch_32">
    <path clip-path="url(#p077512949d)" d="M 111.041359 137.71551 
L 112.185599 137.71551 
L 112.185599 136.26354 
L 111.041359 136.26354 
z
" style="fill:#1f77b4;"/>
   </g>
   <g id="patch_33">
    <path clip-path="url(#p077512949d)" d="M 112.471658 137.71551 
L 113.615898 137.71551 
L 113.615898 136.091074 
L 112.471658 136.091074 
z
" style="fill:#1f77b4;"/>
   </g>
   <g id="patch_34">
    <path clip-path="url(#p077512949d)" d="M 113.901958 137.71551 
L 115.046197 137.71551 
L 115.046197 136.012999 
L 113.901958 136.012999 
z
" style="fill:#1f77b4;"/>
   </g>
   <g id="patch_35">
    <path clip-path="url(#p077512949d)" d="M 115.332257 137.71551 
L 116.476497 137.71551 
L 116.476497 135.748475 
L 115.332257 135.748475 
z
" style="fill:#1f77b4;"/>
   </g>
   <g id="patch_36">
    <path clip-path="url(#p077512949d)" d="M 116.762556 137.71551 
L 117.906796 137.71551 
L 117.906796 135.457148 
L 116.762556 135.457148 
z
" style="fill:#1f77b4;"/>
   </g>
   <g id="patch_37">
    <path clip-path="url(#p077512949d)" d="M 118.192856 137.71551 
L 119.337095 137.71551 
L 119.337095 135.133193 
L 118.192856 135.133193 
z
" style="fill:#1f77b4;"/>
   </g>
   <g id="patch_38">
    <path clip-path="url(#p077512949d)" d="M 119.623155 137.71551 
L 120.767395 137.71551 
L 120.767395 134.844198 
L 119.623155 134.844198 
z
" style="fill:#1f77b4;"/>
   </g>
   <g id="patch_39">
    <path clip-path="url(#p077512949d)" d="M 121.053454 137.71551 
L 122.197694 137.71551 
L 122.197694 134.677559 
L 121.053454 134.677559 
z
" style="fill:#1f77b4;"/>
   </g>
   <g id="patch_40">
    <path clip-path="url(#p077512949d)" d="M 122.483754 137.71551 
L 123.627993 137.71551 
L 123.627993 134.388563 
L 122.483754 134.388563 
z
" style="fill:#1f77b4;"/>
   </g>
   <g id="patch_41">
    <path clip-path="url(#p077512949d)" d="M 123.914053 137.71551 
L 125.058293 137.71551 
L 125.058293 133.950409 
L 123.914053 133.950409 
z
" style="fill:#1f77b4;"/>
   </g>
   <g id="patch_42">
    <path clip-path="url(#p077512949d)" d="M 125.344352 137.71551 
L 126.488592 137.71551 
L 126.488592 133.741819 
L 125.344352 133.741819 
z
" style="fill:#1f77b4;"/>
   </g>
   <g id="patch_43">
    <path clip-path="url(#p077512949d)" d="M 126.774652 137.71551 
L 127.918891 137.71551 
L 127.918891 133.353772 
L 126.774652 133.353772 
z
" style="fill:#1f77b4;"/>
   </g>
   <g id="patch_44">
    <path clip-path="url(#p077512949d)" d="M 128.204951 137.71551 
L 129.349191 137.71551 
L 129.349191 133.119546 
L 128.204951 133.119546 
z
" style="fill:#1f77b4;"/>
   </g>
   <g id="patch_45">
    <path clip-path="url(#p077512949d)" d="M 129.63525 137.71551 
L 130.77949 137.71551 
L 130.77949 132.647597 
L 129.63525 132.647597 
z
" style="fill:#1f77b4;"/>
   </g>
   <g id="patch_46">
    <path clip-path="url(#p077512949d)" d="M 131.06555 137.71551 
L 132.209789 137.71551 
L 132.209789 132.421528 
L 131.06555 132.421528 
z
" style="fill:#1f77b4;"/>
   </g>
   <g id="patch_47">
    <path clip-path="url(#p077512949d)" d="M 132.495849 137.71551 
L 133.640089 137.71551 
L 133.640089 132.16283 
L 132.495849 132.16283 
z
" style="fill:#1f77b4;"/>
   </g>
   <g id="patch_48">
    <path clip-path="url(#p077512949d)" d="M 133.926148 137.71551 
L 135.070388 137.71551 
L 135.070388 132.006679 
L 133.926148 132.006679 
z
" style="fill:#1f77b4;"/>
   </g>
   <g id="patch_49">
    <path clip-path="url(#p077512949d)" d="M 135.356448 137.71551 
L 136.500687 137.71551 
L 136.500687 131.5324 
L 135.356448 131.5324 
z
" style="fill:#1f77b4;"/>
   </g>
   <g id="patch_50">
    <path clip-path="url(#p077512949d)" d="M 136.786747 137.71551 
L 137.930987 137.71551 
L 137.930987 131.245735 
L 136.786747 131.245735 
z
" style="fill:#1f77b4;"/>
   </g>
   <g id="patch_51">
    <path clip-path="url(#p077512949d)" d="M 138.217046 137.71551 
L 139.361286 137.71551 
L 139.361286 130.523246 
L 138.217046 130.523246 
z
" style="fill:#1f77b4;"/>
   </g>
   <g id="patch_52">
    <path clip-path="url(#p077512949d)" d="M 139.647346 137.71551 
L 140.791585 137.71551 
L 140.791585 130.395062 
L 139.647346 130.395062 
z
" style="fill:#1f77b4;"/>
   </g>
   <g id="patch_53">
    <path clip-path="url(#p077512949d)" d="M 141.077645 137.71551 
L 142.221885 137.71551 
L 142.221885 129.758805 
L 141.077645 129.758805 
z
" style="fill:#1f77b4;"/>
   </g>
   <g id="patch_54">
    <path clip-path="url(#p077512949d)" d="M 142.507944 137.71551 
L 143.652184 137.71551 
L 143.652184 129.429024 
L 142.507944 129.429024 
z
" style="fill:#1f77b4;"/>
   </g>
   <g id="patch_55">
    <path clip-path="url(#p077512949d)" d="M 143.938244 137.71551 
L 145.082483 137.71551 
L 145.082483 128.458325 
L 143.938244 128.458325 
z
" style="fill:#1f77b4;"/>
   </g>
   <g id="patch_56">
    <path clip-path="url(#p077512949d)" d="M 145.368543 137.71551 
L 146.512783 137.71551 
L 146.512783 127.805754 
L 145.368543 127.805754 
z
" style="fill:#1f77b4;"/>
   </g>
   <g id="patch_57">
    <path clip-path="url(#p077512949d)" d="M 146.798842 137.71551 
L 147.943082 137.71551 
L 147.943082 127.380417 
L 146.798842 127.380417 
z
" style="fill:#1f77b4;"/>
   </g>
   <g id="patch_58">
    <path clip-path="url(#p077512949d)" d="M 148.229142 137.71551 
L 149.373381 137.71551 
L 149.373381 126.699879 
L 148.229142 126.699879 
z
" style="fill:#1f77b4;"/>
   </g>
   <g id="patch_59">
    <path clip-path="url(#p077512949d)" d="M 149.659441 137.71551 
L 150.803681 137.71551 
L 150.803681 125.869016 
L 149.659441 125.869016 
z
" style="fill:#1f77b4;"/>
   </g>
   <g id="patch_60">
    <path clip-path="url(#p077512949d)" d="M 151.08974 137.71551 
L 152.23398 137.71551 
L 152.23398 125.4262 
L 151.08974 125.4262 
z
" style="fill:#1f77b4;"/>
   </g>
   <g id="patch_61">
    <path clip-path="url(#p077512949d)" d="M 152.52004 137.71551 
L 153.664279 137.71551 
L 153.664279 124.735174 
L 152.52004 124.735174 
z
" style="fill:#1f77b4;"/>
   </g>
   <g id="patch_62">
    <path clip-path="url(#p077512949d)" d="M 153.950339 137.71551 
L 155.094579 137.71551 
L 155.094579 124.056966 
L 153.950339 124.056966 
z
" style="fill:#1f77b4;"/>
   </g>
   <g id="patch_63">
    <path clip-path="url(#p077512949d)" d="M 155.380638 137.71551 
L 156.524878 137.71551 
L 156.524878 123.276212 
L 155.380638 123.276212 
z
" style="fill:#1f77b4;"/>
   </g>
   <g id="patch_64">
    <path clip-path="url(#p077512949d)" d="M 156.810938 137.71551 
L 157.955177 137.71551 
L 157.955177 122.222776 
L 156.810938 122.222776 
z
" style="fill:#1f77b4;"/>
   </g>
   <g id="patch_65">
    <path clip-path="url(#p077512949d)" d="M 158.241237 137.71551 
L 159.385477 137.71551 
L 159.385477 121.219448 
L 158.241237 121.219448 
z
" style="fill:#1f77b4;"/>
   </g>
   <g id="patch_66">
    <path clip-path="url(#p077512949d)" d="M 159.671536 137.71551 
L 160.815776 137.71551 
L 160.815776 119.372439 
L 159.671536 119.372439 
z
" style="fill:#1f77b4;"/>
   </g>
   <g id="patch_67">
    <path clip-path="url(#p077512949d)" d="M 161.101836 137.71551 
L 162.246075 137.71551 
L 162.246075 117.988056 
L 161.101836 117.988056 
z
" style="fill:#1f77b4;"/>
   </g>
   <g id="patch_68">
    <path clip-path="url(#p077512949d)" d="M 162.532135 137.71551 
L 163.676375 137.71551 
L 163.676375 117.833071 
L 162.532135 117.833071 
z
" style="fill:#1f77b4;"/>
   </g>
   <g id="patch_69">
    <path clip-path="url(#p077512949d)" d="M 163.962434 137.71551 
L 165.106674 137.71551 
L 165.106674 116.811098 
L 163.962434 116.811098 
z
" style="fill:#1f77b4;"/>
   </g>
   <g id="patch_70">
    <path clip-path="url(#p077512949d)" d="M 165.392734 137.71551 
L 166.536973 137.71551 
L 166.536973 116.173676 
L 165.392734 116.173676 
z
" style="fill:#1f77b4;"/>
   </g>
   <g id="patch_71">
    <path clip-path="url(#p077512949d)" d="M 166.823033 137.71551 
L 167.967273 137.71551 
L 167.967273 115.891672 
L 166.823033 115.891672 
z
" style="fill:#1f77b4;"/>
   </g>
   <g id="patch_72">
    <path clip-path="url(#p077512949d)" d="M 168.253332 137.71551 
L 169.397572 137.71551 
L 169.397572 115.030511 
L 168.253332 115.030511 
z
" style="fill:#1f77b4;"/>
   </g>
   <g id="patch_73">
    <path clip-path="url(#p077512949d)" d="M 169.683632 137.71551 
L 170.827871 137.71551 
L 170.827871 114.424553 
L 169.683632 114.424553 
z
" style="fill:#1f77b4;"/>
   </g>
   <g id="patch_74">
    <path clip-path="url(#p077512949d)" d="M 171.113931 137.71551 
L 172.258171 137.71551 
L 172.258171 112.54375 
L 171.113931 112.54375 
z
" style="fill:#1f77b4;"/>
   </g>
   <g id="patch_75">
    <path clip-path="url(#p077512949d)" d="M 172.54423 137.71551 
L 173.68847 137.71551 
L 173.68847 111.80145 
L 172.54423 111.80145 
z
" style="fill:#1f77b4;"/>
   </g>
   <g id="patch_76">
    <path clip-path="url(#p077512949d)" d="M 173.97453 137.71551 
L 175.118769 137.71551 
L 175.118769 106.642644 
L 173.97453 106.642644 
z
" style="fill:#1f77b4;"/>
   </g>
   <g id="patch_77">
    <path clip-path="url(#p077512949d)" d="M 175.404829 137.71551 
L 176.549069 137.71551 
L 176.549069 105.314196 
L 175.404829 105.314196 
z
" style="fill:#1f77b4;"/>
   </g>
   <g id="patch_78">
    <path clip-path="url(#p077512949d)" d="M 176.835128 137.71551 
L 177.979368 137.71551 
L 177.979368 102.322857 
L 176.835128 102.322857 
z
" style="fill:#1f77b4;"/>
   </g>
   <g id="patch_79">
    <path clip-path="url(#p077512949d)" d="M 178.265428 137.71551 
L 179.409667 137.71551 
L 179.409667 100.322028 
L 178.265428 100.322028 
z
" style="fill:#1f77b4;"/>
   </g>
   <g id="patch_80">
    <path clip-path="url(#p077512949d)" d="M 179.695727 137.71551 
L 180.839967 137.71551 
L 180.839967 98.57407 
L 179.695727 98.57407 
z
" style="fill:#1f77b4;"/>
   </g>
   <g id="patch_81">
    <path clip-path="url(#p077512949d)" d="M 181.126026 137.71551 
L 182.270266 137.71551 
L 182.270266 97.474022 
L 181.126026 97.474022 
z
" style="fill:#1f77b4;"/>
   </g>
   <g id="patch_82">
    <path clip-path="url(#p077512949d)" d="M 182.556326 137.71551 
L 183.700565 137.71551 
L 183.700565 93.536455 
L 182.556326 93.536455 
z
" style="fill:#1f77b4;"/>
   </g>
   <g id="patch_83">
    <path clip-path="url(#p077512949d)" d="M 183.986625 137.71551 
L 185.130865 137.71551 
L 185.130865 91.921342 
L 183.986625 91.921342 
z
" style="fill:#1f77b4;"/>
   </g>
   <g id="patch_84">
    <path clip-path="url(#p077512949d)" d="M 185.416924 137.71551 
L 186.561164 137.71551 
L 186.561164 91.07533 
L 185.416924 91.07533 
z
" style="fill:#1f77b4;"/>
   </g>
   <g id="patch_85">
    <path clip-path="url(#p077512949d)" d="M 186.847224 137.71551 
L 187.991463 137.71551 
L 187.991463 88.308895 
L 186.847224 88.308895 
z
" style="fill:#1f77b4;"/>
   </g>
   <g id="patch_86">
    <path clip-path="url(#p077512949d)" d="M 188.277523 137.71551 
L 189.421763 137.71551 
L 189.421763 85.409616 
L 188.277523 85.409616 
z
" style="fill:#1f77b4;"/>
   </g>
   <g id="patch_87">
    <path clip-path="url(#p077512949d)" d="M 189.707822 137.71551 
L 190.852062 137.71551 
L 190.852062 81.835624 
L 189.707822 81.835624 
z
" style="fill:#1f77b4;"/>
   </g>
   <g id="patch_88">
    <path clip-path="url(#p077512949d)" d="M 191.138122 137.71551 
L 192.282361 137.71551 
L 192.282361 76.630205 
L 191.138122 76.630205 
z
" style="fill:#1f77b4;"/>
   </g>
   <g id="patch_89">
    <path clip-path="url(#p077512949d)" d="M 192.568421 137.71551 
L 193.712661 137.71551 
L 193.712661 75.50219 
L 192.568421 75.50219 
z
" style="fill:#1f77b4;"/>
   </g>
   <g id="patch_90">
    <path clip-path="url(#p077512949d)" d="M 193.99872 137.71551 
L 195.14296 137.71551 
L 195.14296 74.171411 
L 193.99872 74.171411 
z
" style="fill:#1f77b4;"/>
   </g>
   <g id="patch_91">
    <path clip-path="url(#p077512949d)" d="M 195.42902 137.71551 
L 196.573259 137.71551 
L 196.573259 71.605409 
L 195.42902 71.605409 
z
" style="fill:#1f77b4;"/>
   </g>
   <g id="patch_92">
    <path clip-path="url(#p077512949d)" d="M 196.859319 137.71551 
L 198.003559 137.71551 
L 198.003559 68.682823 
L 196.859319 68.682823 
z
" style="fill:#1f77b4;"/>
   </g>
   <g id="patch_93">
    <path clip-path="url(#p077512949d)" d="M 198.289618 137.71551 
L 199.433858 137.71551 
L 199.433858 66.711127 
L 198.289618 66.711127 
z
" style="fill:#1f77b4;"/>
   </g>
   <g id="patch_94">
    <path clip-path="url(#p077512949d)" d="M 199.719918 137.71551 
L 200.864157 137.71551 
L 200.864157 64.224365 
L 199.719918 64.224365 
z
" style="fill:#1f77b4;"/>
   </g>
   <g id="patch_95">
    <path clip-path="url(#p077512949d)" d="M 201.150217 137.71551 
L 202.294457 137.71551 
L 202.294457 62.514862 
L 201.150217 62.514862 
z
" style="fill:#1f77b4;"/>
   </g>
   <g id="patch_96">
    <path clip-path="url(#p077512949d)" d="M 202.580516 137.71551 
L 203.724756 137.71551 
L 203.724756 58.759083 
L 202.580516 58.759083 
z
" style="fill:#1f77b4;"/>
   </g>
   <g id="patch_97">
    <path clip-path="url(#p077512949d)" d="M 204.010816 137.71551 
L 205.155055 137.71551 
L 205.155055 56.727956 
L 204.010816 56.727956 
z
" style="fill:#1f77b4;"/>
   </g>
   <g id="patch_98">
    <path clip-path="url(#p077512949d)" d="M 205.441115 137.71551 
L 206.585355 137.71551 
L 206.585355 52.672693 
L 205.441115 52.672693 
z
" style="fill:#1f77b4;"/>
   </g>
   <g id="patch_99">
    <path clip-path="url(#p077512949d)" d="M 206.871414 137.71551 
L 208.015654 137.71551 
L 208.015654 51.048258 
L 206.871414 51.048258 
z
" style="fill:#1f77b4;"/>
   </g>
   <g id="patch_100">
    <path clip-path="url(#p077512949d)" d="M 208.301714 137.71551 
L 209.445953 137.71551 
L 209.445953 49.4145 
L 208.301714 49.4145 
z
" style="fill:#1f77b4;"/>
   </g>
   <g id="patch_101">
    <path clip-path="url(#p077512949d)" d="M 209.732013 137.71551 
L 210.876253 137.71551 
L 210.876253 47.073401 
L 209.732013 47.073401 
z
" style="fill:#1f77b4;"/>
   </g>
   <g id="patch_102">
    <path clip-path="url(#p077512949d)" d="M 211.162312 137.71551 
L 212.306552 137.71551 
L 212.306552 45.8475 
L 211.162312 45.8475 
z
" style="fill:#1f77b4;"/>
   </g>
   <g id="patch_103">
    <path clip-path="url(#p077512949d)" d="M 212.592612 137.71551 
L 213.736851 137.71551 
L 213.736851 44.989836 
L 212.592612 44.989836 
z
" style="fill:#1f77b4;"/>
   </g>
   <g id="patch_104">
    <path clip-path="url(#p077512949d)" d="M 214.022911 137.71551 
L 215.167151 137.71551 
L 215.167151 43.388706 
L 214.022911 43.388706 
z
" style="fill:#1f77b4;"/>
   </g>
   <g id="patch_105">
    <path clip-path="url(#p077512949d)" d="M 215.45321 137.71551 
L 216.59745 137.71551 
L 216.59745 40.595469 
L 215.45321 40.595469 
z
" style="fill:#1f77b4;"/>
   </g>
   <g id="patch_106">
    <path clip-path="url(#p077512949d)" d="M 216.88351 137.71551 
L 218.027749 137.71551 
L 218.027749 36.377064 
L 216.88351 36.377064 
z
" style="fill:#1f77b4;"/>
   </g>
   <g id="patch_107">
    <path clip-path="url(#p077512949d)" d="M 218.313809 137.71551 
L 219.458049 137.71551 
L 219.458049 35.964546 
L 218.313809 35.964546 
z
" style="fill:#1f77b4;"/>
   </g>
   <g id="patch_108">
    <path clip-path="url(#p077512949d)" d="M 219.744108 137.71551 
L 220.888348 137.71551 
L 220.888348 28.90163 
L 219.744108 28.90163 
z
" style="fill:#1f77b4;"/>
   </g>
   <g id="patch_109">
    <path clip-path="url(#p077512949d)" d="M 221.174408 137.71551 
L 222.318647 137.71551 
L 222.318647 26.385736 
L 221.174408 26.385736 
z
" style="fill:#1f77b4;"/>
   </g>
   <g id="patch_110">
    <path clip-path="url(#p077512949d)" d="M 222.604707 137.71551 
L 223.748947 137.71551 
L 223.748947 25.691214 
L 222.604707 25.691214 
z
" style="fill:#1f77b4;"/>
   </g>
   <g id="matplotlib.axis_1">
    <g id="xtick_1">
     <g id="line2d_1">
      <defs>
       <path d="M 0 0 
L 0 3.5 
" id="m7cd8b0fbb6" style="stroke:#000000;stroke-width:0.8;"/>
      </defs>
      <g>
       <use style="stroke:#000000;stroke-width:0.8;" x="70.134798" xlink:href="#m7cd8b0fbb6" y="137.71551"/>
      </g>
     </g>
     <g id="text_1">
      <!-- 0 -->
      <defs>
       <path d="M 31.78125 66.40625 
Q 24.171875 66.40625 20.328125 58.90625 
Q 16.5 51.421875 16.5 36.375 
Q 16.5 21.390625 20.328125 13.890625 
Q 24.171875 6.390625 31.78125 6.390625 
Q 39.453125 6.390625 43.28125 13.890625 
Q 47.125 21.390625 47.125 36.375 
Q 47.125 51.421875 43.28125 58.90625 
Q 39.453125 66.40625 31.78125 66.40625 
z
M 31.78125 74.21875 
Q 44.046875 74.21875 50.515625 64.515625 
Q 56.984375 54.828125 56.984375 36.375 
Q 56.984375 17.96875 50.515625 8.265625 
Q 44.046875 -1.421875 31.78125 -1.421875 
Q 19.53125 -1.421875 13.0625 8.265625 
Q 6.59375 17.96875 6.59375 36.375 
Q 6.59375 54.828125 13.0625 64.515625 
Q 19.53125 74.21875 31.78125 74.21875 
z
" id="DejaVuSans-48"/>
      </defs>
      <g transform="translate(66.953548 152.313947)scale(0.1 -0.1)">
       <use xlink:href="#DejaVuSans-48"/>
      </g>
     </g>
    </g>
    <g id="xtick_2">
     <g id="line2d_2">
      <g>
       <use style="stroke:#000000;stroke-width:0.8;" x="105.892281" xlink:href="#m7cd8b0fbb6" y="137.71551"/>
      </g>
     </g>
     <g id="text_2">
      <!-- 25 -->
      <defs>
       <path d="M 19.1875 8.296875 
L 53.609375 8.296875 
L 53.609375 0 
L 7.328125 0 
L 7.328125 8.296875 
Q 12.9375 14.109375 22.625 23.890625 
Q 32.328125 33.6875 34.8125 36.53125 
Q 39.546875 41.84375 41.421875 45.53125 
Q 43.3125 49.21875 43.3125 52.78125 
Q 43.3125 58.59375 39.234375 62.25 
Q 35.15625 65.921875 28.609375 65.921875 
Q 23.96875 65.921875 18.8125 64.3125 
Q 13.671875 62.703125 7.8125 59.421875 
L 7.8125 69.390625 
Q 13.765625 71.78125 18.9375 73 
Q 24.125 74.21875 28.421875 74.21875 
Q 39.75 74.21875 46.484375 68.546875 
Q 53.21875 62.890625 53.21875 53.421875 
Q 53.21875 48.921875 51.53125 44.890625 
Q 49.859375 40.875 45.40625 35.40625 
Q 44.1875 33.984375 37.640625 27.21875 
Q 31.109375 20.453125 19.1875 8.296875 
z
" id="DejaVuSans-50"/>
       <path d="M 10.796875 72.90625 
L 49.515625 72.90625 
L 49.515625 64.59375 
L 19.828125 64.59375 
L 19.828125 46.734375 
Q 21.96875 47.46875 24.109375 47.828125 
Q 26.265625 48.1875 28.421875 48.1875 
Q 40.625 48.1875 47.75 41.5 
Q 54.890625 34.8125 54.890625 23.390625 
Q 54.890625 11.625 47.5625 5.09375 
Q 40.234375 -1.421875 26.90625 -1.421875 
Q 22.3125 -1.421875 17.546875 -0.640625 
Q 12.796875 0.140625 7.71875 1.703125 
L 7.71875 11.625 
Q 12.109375 9.234375 16.796875 8.0625 
Q 21.484375 6.890625 26.703125 6.890625 
Q 35.15625 6.890625 40.078125 11.328125 
Q 45.015625 15.765625 45.015625 23.390625 
Q 45.015625 31 40.078125 35.4375 
Q 35.15625 39.890625 26.703125 39.890625 
Q 22.75 39.890625 18.8125 39.015625 
Q 14.890625 38.140625 10.796875 36.28125 
z
" id="DejaVuSans-53"/>
      </defs>
      <g transform="translate(99.529781 152.313947)scale(0.1 -0.1)">
       <use xlink:href="#DejaVuSans-50"/>
       <use x="63.623047" xlink:href="#DejaVuSans-53"/>
      </g>
     </g>
    </g>
    <g id="xtick_3">
     <g id="line2d_3">
      <g>
       <use style="stroke:#000000;stroke-width:0.8;" x="141.649765" xlink:href="#m7cd8b0fbb6" y="137.71551"/>
      </g>
     </g>
     <g id="text_3">
      <!-- 50 -->
      <g transform="translate(135.287265 152.313947)scale(0.1 -0.1)">
       <use xlink:href="#DejaVuSans-53"/>
       <use x="63.623047" xlink:href="#DejaVuSans-48"/>
      </g>
     </g>
    </g>
    <g id="xtick_4">
     <g id="line2d_4">
      <g>
       <use style="stroke:#000000;stroke-width:0.8;" x="177.407248" xlink:href="#m7cd8b0fbb6" y="137.71551"/>
      </g>
     </g>
     <g id="text_4">
      <!-- 75 -->
      <defs>
       <path d="M 8.203125 72.90625 
L 55.078125 72.90625 
L 55.078125 68.703125 
L 28.609375 0 
L 18.3125 0 
L 43.21875 64.59375 
L 8.203125 64.59375 
z
" id="DejaVuSans-55"/>
      </defs>
      <g transform="translate(171.044748 152.313947)scale(0.1 -0.1)">
       <use xlink:href="#DejaVuSans-55"/>
       <use x="63.623047" xlink:href="#DejaVuSans-53"/>
      </g>
     </g>
    </g>
    <g id="xtick_5">
     <g id="line2d_5">
      <g>
       <use style="stroke:#000000;stroke-width:0.8;" x="213.164732" xlink:href="#m7cd8b0fbb6" y="137.71551"/>
      </g>
     </g>
     <g id="text_5">
      <!-- 100 -->
      <defs>
       <path d="M 12.40625 8.296875 
L 28.515625 8.296875 
L 28.515625 63.921875 
L 10.984375 60.40625 
L 10.984375 69.390625 
L 28.421875 72.90625 
L 38.28125 72.90625 
L 38.28125 8.296875 
L 54.390625 8.296875 
L 54.390625 0 
L 12.40625 0 
z
" id="DejaVuSans-49"/>
      </defs>
      <g transform="translate(203.620982 152.313947)scale(0.1 -0.1)">
       <use xlink:href="#DejaVuSans-49"/>
       <use x="63.623047" xlink:href="#DejaVuSans-48"/>
       <use x="127.246094" xlink:href="#DejaVuSans-48"/>
      </g>
     </g>
    </g>
    <g id="text_6">
     <!-- Dias -->
     <defs>
      <path d="M 19.671875 64.796875 
L 19.671875 8.109375 
L 31.59375 8.109375 
Q 46.6875 8.109375 53.6875 14.9375 
Q 60.6875 21.78125 60.6875 36.53125 
Q 60.6875 51.171875 53.6875 57.984375 
Q 46.6875 64.796875 31.59375 64.796875 
z
M 9.8125 72.90625 
L 30.078125 72.90625 
Q 51.265625 72.90625 61.171875 64.09375 
Q 71.09375 55.28125 71.09375 36.53125 
Q 71.09375 17.671875 61.125 8.828125 
Q 51.171875 0 30.078125 0 
L 9.8125 0 
z
" id="DejaVuSans-68"/>
      <path d="M 9.421875 54.6875 
L 18.40625 54.6875 
L 18.40625 0 
L 9.421875 0 
z
M 9.421875 75.984375 
L 18.40625 75.984375 
L 18.40625 64.59375 
L 9.421875 64.59375 
z
" id="DejaVuSans-105"/>
      <path d="M 34.28125 27.484375 
Q 23.390625 27.484375 19.1875 25 
Q 14.984375 22.515625 14.984375 16.5 
Q 14.984375 11.71875 18.140625 8.90625 
Q 21.296875 6.109375 26.703125 6.109375 
Q 34.1875 6.109375 38.703125 11.40625 
Q 43.21875 16.703125 43.21875 25.484375 
L 43.21875 27.484375 
z
M 52.203125 31.203125 
L 52.203125 0 
L 43.21875 0 
L 43.21875 8.296875 
Q 40.140625 3.328125 35.546875 0.953125 
Q 30.953125 -1.421875 24.3125 -1.421875 
Q 15.921875 -1.421875 10.953125 3.296875 
Q 6 8.015625 6 15.921875 
Q 6 25.140625 12.171875 29.828125 
Q 18.359375 34.515625 30.609375 34.515625 
L 43.21875 34.515625 
L 43.21875 35.40625 
Q 43.21875 41.609375 39.140625 45 
Q 35.0625 48.390625 27.6875 48.390625 
Q 23 48.390625 18.546875 47.265625 
Q 14.109375 46.140625 10.015625 43.890625 
L 10.015625 52.203125 
Q 14.9375 54.109375 19.578125 55.046875 
Q 24.21875 56 28.609375 56 
Q 40.484375 56 46.34375 49.84375 
Q 52.203125 43.703125 52.203125 31.203125 
z
" id="DejaVuSans-97"/>
      <path d="M 44.28125 53.078125 
L 44.28125 44.578125 
Q 40.484375 46.53125 36.375 47.5 
Q 32.28125 48.484375 27.875 48.484375 
Q 21.1875 48.484375 17.84375 46.4375 
Q 14.5 44.390625 14.5 40.28125 
Q 14.5 37.15625 16.890625 35.375 
Q 19.28125 33.59375 26.515625 31.984375 
L 29.59375 31.296875 
Q 39.15625 29.25 43.1875 25.515625 
Q 47.21875 21.78125 47.21875 15.09375 
Q 47.21875 7.46875 41.1875 3.015625 
Q 35.15625 -1.421875 24.609375 -1.421875 
Q 20.21875 -1.421875 15.453125 -0.5625 
Q 10.6875 0.296875 5.421875 2 
L 5.421875 11.28125 
Q 10.40625 8.6875 15.234375 7.390625 
Q 20.0625 6.109375 24.8125 6.109375 
Q 31.15625 6.109375 34.5625 8.28125 
Q 37.984375 10.453125 37.984375 14.40625 
Q 37.984375 18.0625 35.515625 20.015625 
Q 33.0625 21.96875 24.703125 23.78125 
L 21.578125 24.515625 
Q 13.234375 26.265625 9.515625 29.90625 
Q 5.8125 33.546875 5.8125 39.890625 
Q 5.8125 47.609375 11.28125 51.796875 
Q 16.75 56 26.8125 56 
Q 31.78125 56 36.171875 55.265625 
Q 40.578125 54.546875 44.28125 53.078125 
z
" id="DejaVuSans-115"/>
     </defs>
     <g transform="translate(135.748 165.992072)scale(0.1 -0.1)">
      <use xlink:href="#DejaVuSans-68"/>
      <use x="77.001953" xlink:href="#DejaVuSans-105"/>
      <use x="104.785156" xlink:href="#DejaVuSans-97"/>
      <use x="166.064453" xlink:href="#DejaVuSans-115"/>
     </g>
    </g>
   </g>
   <g id="matplotlib.axis_2">
    <g id="ytick_1">
     <g id="line2d_6">
      <defs>
       <path d="M 0 0 
L -3.5 0 
" id="mc7147a91a4" style="stroke:#000000;stroke-width:0.8;"/>
      </defs>
      <g>
       <use style="stroke:#000000;stroke-width:0.8;" x="61.853365" xlink:href="#mc7147a91a4" y="137.71551"/>
      </g>
     </g>
     <g id="text_7">
      <!-- 0 -->
      <g transform="translate(48.490865 141.514729)scale(0.1 -0.1)">
       <use xlink:href="#DejaVuSans-48"/>
      </g>
     </g>
    </g>
    <g id="ytick_2">
     <g id="line2d_7">
      <g>
       <use style="stroke:#000000;stroke-width:0.8;" x="61.853365" xlink:href="#mc7147a91a4" y="108.582877"/>
      </g>
     </g>
     <g id="text_8">
      <!-- 25000 -->
      <g transform="translate(23.040865 112.382096)scale(0.1 -0.1)">
       <use xlink:href="#DejaVuSans-50"/>
       <use x="63.623047" xlink:href="#DejaVuSans-53"/>
       <use x="127.246094" xlink:href="#DejaVuSans-48"/>
       <use x="190.869141" xlink:href="#DejaVuSans-48"/>
       <use x="254.492188" xlink:href="#DejaVuSans-48"/>
      </g>
     </g>
    </g>
    <g id="ytick_3">
     <g id="line2d_8">
      <g>
       <use style="stroke:#000000;stroke-width:0.8;" x="61.853365" xlink:href="#mc7147a91a4" y="79.450244"/>
      </g>
     </g>
     <g id="text_9">
      <!-- 50000 -->
      <g transform="translate(23.040865 83.249463)scale(0.1 -0.1)">
       <use xlink:href="#DejaVuSans-53"/>
       <use x="63.623047" xlink:href="#DejaVuSans-48"/>
       <use x="127.246094" xlink:href="#DejaVuSans-48"/>
       <use x="190.869141" xlink:href="#DejaVuSans-48"/>
       <use x="254.492188" xlink:href="#DejaVuSans-48"/>
      </g>
     </g>
    </g>
    <g id="ytick_4">
     <g id="line2d_9">
      <g>
       <use style="stroke:#000000;stroke-width:0.8;" x="61.853365" xlink:href="#mc7147a91a4" y="50.317611"/>
      </g>
     </g>
     <g id="text_10">
      <!-- 75000 -->
      <g transform="translate(23.040865 54.11683)scale(0.1 -0.1)">
       <use xlink:href="#DejaVuSans-55"/>
       <use x="63.623047" xlink:href="#DejaVuSans-53"/>
       <use x="127.246094" xlink:href="#DejaVuSans-48"/>
       <use x="190.869141" xlink:href="#DejaVuSans-48"/>
       <use x="254.492188" xlink:href="#DejaVuSans-48"/>
      </g>
     </g>
    </g>
    <g id="ytick_5">
     <g id="line2d_10">
      <g>
       <use style="stroke:#000000;stroke-width:0.8;" x="61.853365" xlink:href="#mc7147a91a4" y="21.184979"/>
      </g>
     </g>
     <g id="text_11">
      <!-- 100000 -->
      <g transform="translate(16.678365 24.984197)scale(0.1 -0.1)">
       <use xlink:href="#DejaVuSans-49"/>
       <use x="63.623047" xlink:href="#DejaVuSans-48"/>
       <use x="127.246094" xlink:href="#DejaVuSans-48"/>
       <use x="190.869141" xlink:href="#DejaVuSans-48"/>
       <use x="254.492188" xlink:href="#DejaVuSans-48"/>
       <use x="318.115234" xlink:href="#DejaVuSans-48"/>
      </g>
     </g>
    </g>
    <g id="text_12">
     <!-- Casos -->
     <defs>
      <path d="M 64.40625 67.28125 
L 64.40625 56.890625 
Q 59.421875 61.53125 53.78125 63.8125 
Q 48.140625 66.109375 41.796875 66.109375 
Q 29.296875 66.109375 22.65625 58.46875 
Q 16.015625 50.828125 16.015625 36.375 
Q 16.015625 21.96875 22.65625 14.328125 
Q 29.296875 6.6875 41.796875 6.6875 
Q 48.140625 6.6875 53.78125 8.984375 
Q 59.421875 11.28125 64.40625 15.921875 
L 64.40625 5.609375 
Q 59.234375 2.09375 53.4375 0.328125 
Q 47.65625 -1.421875 41.21875 -1.421875 
Q 24.65625 -1.421875 15.125 8.703125 
Q 5.609375 18.84375 5.609375 36.375 
Q 5.609375 53.953125 15.125 64.078125 
Q 24.65625 74.21875 41.21875 74.21875 
Q 47.75 74.21875 53.53125 72.484375 
Q 59.328125 70.75 64.40625 67.28125 
z
" id="DejaVuSans-67"/>
      <path d="M 30.609375 48.390625 
Q 23.390625 48.390625 19.1875 42.75 
Q 14.984375 37.109375 14.984375 27.296875 
Q 14.984375 17.484375 19.15625 11.84375 
Q 23.34375 6.203125 30.609375 6.203125 
Q 37.796875 6.203125 41.984375 11.859375 
Q 46.1875 17.53125 46.1875 27.296875 
Q 46.1875 37.015625 41.984375 42.703125 
Q 37.796875 48.390625 30.609375 48.390625 
z
M 30.609375 56 
Q 42.328125 56 49.015625 48.375 
Q 55.71875 40.765625 55.71875 27.296875 
Q 55.71875 13.875 49.015625 6.21875 
Q 42.328125 -1.421875 30.609375 -1.421875 
Q 18.84375 -1.421875 12.171875 6.21875 
Q 5.515625 13.875 5.515625 27.296875 
Q 5.515625 40.765625 12.171875 48.375 
Q 18.84375 56 30.609375 56 
z
" id="DejaVuSans-111"/>
     </defs>
     <g transform="translate(10.598678 92.741156)rotate(-90)scale(0.1 -0.1)">
      <use xlink:href="#DejaVuSans-67"/>
      <use x="69.824219" xlink:href="#DejaVuSans-97"/>
      <use x="131.103516" xlink:href="#DejaVuSans-115"/>
      <use x="183.203125" xlink:href="#DejaVuSans-111"/>
      <use x="244.384766" xlink:href="#DejaVuSans-115"/>
     </g>
    </g>
   </g>
   <g id="line2d_11">
    <path clip-path="url(#p077512949d)" d="M 70.134798 137.710992 
L 71.565097 137.709541 
L 72.995397 137.707584 
L 74.425696 137.705089 
L 75.855995 137.701912 
L 77.286295 137.69785 
L 78.716594 137.692596 
L 80.146893 137.685705 
L 81.577193 137.67661 
L 83.007492 137.664671 
L 84.437791 137.649147 
L 85.868091 137.629303 
L 87.29839 137.604451 
L 88.728689 137.574075 
L 90.158989 137.537863 
L 91.589288 137.495685 
L 93.019587 137.447555 
L 94.449887 137.393665 
L 95.880186 137.334197 
L 97.310485 137.269279 
L 98.740785 137.198766 
L 100.171084 137.122194 
L 101.601383 137.038838 
L 103.031683 136.947634 
L 104.461982 136.847264 
L 105.892281 136.736334 
L 107.322581 136.613243 
L 108.75288 136.476526 
L 110.183179 136.324936 
L 111.613479 136.157513 
L 113.043778 135.973745 
L 114.474077 135.773375 
L 115.904377 135.556388 
L 117.334676 135.323574 
L 118.764975 135.076079 
L 120.195275 134.815413 
L 121.625574 134.543014 
L 123.055873 134.260386 
L 124.486173 133.969095 
L 125.916472 133.670606 
L 127.346771 133.365151 
L 128.777071 133.052135 
L 130.20737 132.729899 
L 131.637669 132.396511 
L 133.067969 132.048901 
L 134.498268 131.683362 
L 135.928567 131.295575 
L 137.358867 130.882253 
L 138.789166 130.440954 
L 140.219465 129.970159 
L 141.649765 129.46844 
L 143.080064 128.935416 
L 144.510363 128.370636 
L 145.940663 127.77415 
L 147.370962 127.144866 
L 148.801262 126.480656 
L 150.231561 125.779249 
L 151.66186 125.038948 
L 153.09216 124.259394 
L 154.522459 123.442953 
L 155.952758 122.593374 
L 157.383058 121.715203 
L 158.813357 120.813231 
L 160.243656 119.889674 
L 161.673956 118.9431 
L 163.104255 117.965423 
L 164.534554 116.941597 
L 165.964854 115.849834 
L 167.395153 114.667699 
L 168.825452 113.37341 
L 170.255752 111.950537 
L 171.686051 110.389369 
L 173.11635 108.689549 
L 174.54665 106.857167 
L 175.976949 104.908959 
L 177.407248 102.862976 
L 178.837548 100.736341 
L 180.267847 98.541194 
L 181.698146 96.284721 
L 183.128446 93.969945 
L 184.558745 91.603489 
L 185.989044 89.187228 
L 187.419344 86.723792 
L 188.849643 84.218982 
L 190.279942 81.683922 
L 191.710242 79.133384 
L 193.140541 76.582692 
L 194.57084 74.038097 
L 196.00114 71.506109 
L 197.431439 68.99343 
L 198.861738 66.506992 
L 200.292038 64.050965 
L 201.722337 61.628375 
L 203.152636 59.241078 
L 204.582936 56.894693 
L 206.013235 54.590597 
L 207.443534 52.322118 
L 208.873834 50.071932 
L 210.304133 47.818457 
L 211.734432 45.532778 
L 213.164732 43.184396 
L 214.595031 40.743451 
L 216.02533 38.18918 
L 217.45563 35.509416 
L 218.885929 32.704556 
L 220.316228 29.81514 
L 221.746528 26.847188 
L 223.176827 23.813467 
" style="fill:none;stroke:#ff0000;stroke-linecap:square;stroke-width:1.5;"/>
   </g>
   <g id="patch_111">
    <path d="M 61.853365 137.71551 
L 61.853365 18.118365 
" style="fill:none;stroke:#000000;stroke-linecap:square;stroke-linejoin:miter;stroke-width:0.8;"/>
   </g>
   <g id="patch_112">
    <path d="M 231.45826 137.71551 
L 231.45826 18.118365 
" style="fill:none;stroke:#000000;stroke-linecap:square;stroke-linejoin:miter;stroke-width:0.8;"/>
   </g>
   <g id="patch_113">
    <path d="M 61.853365 137.71551 
L 231.45826 137.71551 
" style="fill:none;stroke:#000000;stroke-linecap:square;stroke-linejoin:miter;stroke-width:0.8;"/>
   </g>
   <g id="patch_114">
    <path d="M 61.853365 18.118365 
L 231.45826 18.118365 
" style="fill:none;stroke:#000000;stroke-linecap:square;stroke-linejoin:miter;stroke-width:0.8;"/>
   </g>
   <g id="text_13">
    <!-- Casos acumulados - RJ -->
    <defs>
     <path id="DejaVuSans-32"/>
     <path d="M 48.78125 52.59375 
L 48.78125 44.1875 
Q 44.96875 46.296875 41.140625 47.34375 
Q 37.3125 48.390625 33.40625 48.390625 
Q 24.65625 48.390625 19.8125 42.84375 
Q 14.984375 37.3125 14.984375 27.296875 
Q 14.984375 17.28125 19.8125 11.734375 
Q 24.65625 6.203125 33.40625 6.203125 
Q 37.3125 6.203125 41.140625 7.25 
Q 44.96875 8.296875 48.78125 10.40625 
L 48.78125 2.09375 
Q 45.015625 0.34375 40.984375 -0.53125 
Q 36.96875 -1.421875 32.421875 -1.421875 
Q 20.0625 -1.421875 12.78125 6.34375 
Q 5.515625 14.109375 5.515625 27.296875 
Q 5.515625 40.671875 12.859375 48.328125 
Q 20.21875 56 33.015625 56 
Q 37.15625 56 41.109375 55.140625 
Q 45.0625 54.296875 48.78125 52.59375 
z
" id="DejaVuSans-99"/>
     <path d="M 8.5 21.578125 
L 8.5 54.6875 
L 17.484375 54.6875 
L 17.484375 21.921875 
Q 17.484375 14.15625 20.5 10.265625 
Q 23.53125 6.390625 29.59375 6.390625 
Q 36.859375 6.390625 41.078125 11.03125 
Q 45.3125 15.671875 45.3125 23.6875 
L 45.3125 54.6875 
L 54.296875 54.6875 
L 54.296875 0 
L 45.3125 0 
L 45.3125 8.40625 
Q 42.046875 3.421875 37.71875 1 
Q 33.40625 -1.421875 27.6875 -1.421875 
Q 18.265625 -1.421875 13.375 4.4375 
Q 8.5 10.296875 8.5 21.578125 
z
M 31.109375 56 
z
" id="DejaVuSans-117"/>
     <path d="M 52 44.1875 
Q 55.375 50.25 60.0625 53.125 
Q 64.75 56 71.09375 56 
Q 79.640625 56 84.28125 50.015625 
Q 88.921875 44.046875 88.921875 33.015625 
L 88.921875 0 
L 79.890625 0 
L 79.890625 32.71875 
Q 79.890625 40.578125 77.09375 44.375 
Q 74.3125 48.1875 68.609375 48.1875 
Q 61.625 48.1875 57.5625 43.546875 
Q 53.515625 38.921875 53.515625 30.90625 
L 53.515625 0 
L 44.484375 0 
L 44.484375 32.71875 
Q 44.484375 40.625 41.703125 44.40625 
Q 38.921875 48.1875 33.109375 48.1875 
Q 26.21875 48.1875 22.15625 43.53125 
Q 18.109375 38.875 18.109375 30.90625 
L 18.109375 0 
L 9.078125 0 
L 9.078125 54.6875 
L 18.109375 54.6875 
L 18.109375 46.1875 
Q 21.1875 51.21875 25.484375 53.609375 
Q 29.78125 56 35.6875 56 
Q 41.65625 56 45.828125 52.96875 
Q 50 49.953125 52 44.1875 
z
" id="DejaVuSans-109"/>
     <path d="M 9.421875 75.984375 
L 18.40625 75.984375 
L 18.40625 0 
L 9.421875 0 
z
" id="DejaVuSans-108"/>
     <path d="M 45.40625 46.390625 
L 45.40625 75.984375 
L 54.390625 75.984375 
L 54.390625 0 
L 45.40625 0 
L 45.40625 8.203125 
Q 42.578125 3.328125 38.25 0.953125 
Q 33.9375 -1.421875 27.875 -1.421875 
Q 17.96875 -1.421875 11.734375 6.484375 
Q 5.515625 14.40625 5.515625 27.296875 
Q 5.515625 40.1875 11.734375 48.09375 
Q 17.96875 56 27.875 56 
Q 33.9375 56 38.25 53.625 
Q 42.578125 51.265625 45.40625 46.390625 
z
M 14.796875 27.296875 
Q 14.796875 17.390625 18.875 11.75 
Q 22.953125 6.109375 30.078125 6.109375 
Q 37.203125 6.109375 41.296875 11.75 
Q 45.40625 17.390625 45.40625 27.296875 
Q 45.40625 37.203125 41.296875 42.84375 
Q 37.203125 48.484375 30.078125 48.484375 
Q 22.953125 48.484375 18.875 42.84375 
Q 14.796875 37.203125 14.796875 27.296875 
z
" id="DejaVuSans-100"/>
     <path d="M 4.890625 31.390625 
L 31.203125 31.390625 
L 31.203125 23.390625 
L 4.890625 23.390625 
z
" id="DejaVuSans-45"/>
     <path d="M 44.390625 34.1875 
Q 47.5625 33.109375 50.5625 29.59375 
Q 53.5625 26.078125 56.59375 19.921875 
L 66.609375 0 
L 56 0 
L 46.6875 18.703125 
Q 43.0625 26.03125 39.671875 28.421875 
Q 36.28125 30.8125 30.421875 30.8125 
L 19.671875 30.8125 
L 19.671875 0 
L 9.8125 0 
L 9.8125 72.90625 
L 32.078125 72.90625 
Q 44.578125 72.90625 50.734375 67.671875 
Q 56.890625 62.453125 56.890625 51.90625 
Q 56.890625 45.015625 53.6875 40.46875 
Q 50.484375 35.9375 44.390625 34.1875 
z
M 19.671875 64.796875 
L 19.671875 38.921875 
L 32.078125 38.921875 
Q 39.203125 38.921875 42.84375 42.21875 
Q 46.484375 45.515625 46.484375 51.90625 
Q 46.484375 58.296875 42.84375 61.546875 
Q 39.203125 64.796875 32.078125 64.796875 
z
" id="DejaVuSans-82"/>
     <path d="M 9.8125 72.90625 
L 19.671875 72.90625 
L 19.671875 5.078125 
Q 19.671875 -8.109375 14.671875 -14.0625 
Q 9.671875 -20.015625 -1.421875 -20.015625 
L -5.171875 -20.015625 
L -5.171875 -11.71875 
L -2.09375 -11.71875 
Q 4.4375 -11.71875 7.125 -8.046875 
Q 9.8125 -4.390625 9.8125 5.078125 
z
" id="DejaVuSans-74"/>
    </defs>
    <g transform="translate(78.667375 12.118365)scale(0.12 -0.12)">
     <use xlink:href="#DejaVuSans-67"/>
     <use x="69.824219" xlink:href="#DejaVuSans-97"/>
     <use x="131.103516" xlink:href="#DejaVuSans-115"/>
     <use x="183.203125" xlink:href="#DejaVuSans-111"/>
     <use x="244.384766" xlink:href="#DejaVuSans-115"/>
     <use x="296.484375" xlink:href="#DejaVuSans-32"/>
     <use x="328.271484" xlink:href="#DejaVuSans-97"/>
     <use x="389.550781" xlink:href="#DejaVuSans-99"/>
     <use x="444.53125" xlink:href="#DejaVuSans-117"/>
     <use x="507.910156" xlink:href="#DejaVuSans-109"/>
     <use x="605.322266" xlink:href="#DejaVuSans-117"/>
     <use x="668.701172" xlink:href="#DejaVuSans-108"/>
     <use x="696.484375" xlink:href="#DejaVuSans-97"/>
     <use x="757.763672" xlink:href="#DejaVuSans-100"/>
     <use x="821.240234" xlink:href="#DejaVuSans-111"/>
     <use x="882.421875" xlink:href="#DejaVuSans-115"/>
     <use x="934.521484" xlink:href="#DejaVuSans-32"/>
     <use x="966.308594" xlink:href="#DejaVuSans-45"/>
     <use x="1002.392578" xlink:href="#DejaVuSans-32"/>
     <use x="1034.179688" xlink:href="#DejaVuSans-82"/>
     <use x="1103.662109" xlink:href="#DejaVuSans-74"/>
    </g>
   </g>
  </g>
  <g id="axes_2">
   <g id="patch_115">
    <path d="M 288.194865 137.71551 
L 457.79976 137.71551 
L 457.79976 18.118365 
L 288.194865 18.118365 
z
" style="fill:#ffffff;"/>
   </g>
   <g id="patch_116">
    <path clip-path="url(#p176ff8a85e)" d="M 295.904178 137.71551 
L 297.048418 137.71551 
L 297.048418 137.71551 
L 295.904178 137.71551 
z
" style="fill:#1f77b4;"/>
   </g>
   <g id="patch_117">
    <path clip-path="url(#p176ff8a85e)" d="M 297.334478 137.71551 
L 298.478717 137.71551 
L 298.478717 137.696717 
L 297.334478 137.696717 
z
" style="fill:#1f77b4;"/>
   </g>
   <g id="patch_118">
    <path clip-path="url(#p176ff8a85e)" d="M 298.764777 137.71551 
L 299.909017 137.71551 
L 299.909017 137.696717 
L 298.764777 137.696717 
z
" style="fill:#1f77b4;"/>
   </g>
   <g id="patch_119">
    <path clip-path="url(#p176ff8a85e)" d="M 300.195076 137.71551 
L 301.339316 137.71551 
L 301.339316 137.71551 
L 300.195076 137.71551 
z
" style="fill:#1f77b4;"/>
   </g>
   <g id="patch_120">
    <path clip-path="url(#p176ff8a85e)" d="M 301.625376 137.71551 
L 302.769615 137.71551 
L 302.769615 137.621547 
L 301.625376 137.621547 
z
" style="fill:#1f77b4;"/>
   </g>
   <g id="patch_121">
    <path clip-path="url(#p176ff8a85e)" d="M 303.055675 137.71551 
L 304.199915 137.71551 
L 304.199915 137.621547 
L 303.055675 137.621547 
z
" style="fill:#1f77b4;"/>
   </g>
   <g id="patch_122">
    <path clip-path="url(#p176ff8a85e)" d="M 304.485974 137.71551 
L 305.630214 137.71551 
L 305.630214 137.659132 
L 304.485974 137.659132 
z
" style="fill:#1f77b4;"/>
   </g>
   <g id="patch_123">
    <path clip-path="url(#p176ff8a85e)" d="M 305.916274 137.71551 
L 307.060513 137.71551 
L 307.060513 137.71551 
L 305.916274 137.71551 
z
" style="fill:#1f77b4;"/>
   </g>
   <g id="patch_124">
    <path clip-path="url(#p176ff8a85e)" d="M 307.346573 137.71551 
L 308.490813 137.71551 
L 308.490813 137.602754 
L 307.346573 137.602754 
z
" style="fill:#1f77b4;"/>
   </g>
   <g id="patch_125">
    <path clip-path="url(#p176ff8a85e)" d="M 308.776872 137.71551 
L 309.921112 137.71551 
L 309.921112 137.677925 
L 308.776872 137.677925 
z
" style="fill:#1f77b4;"/>
   </g>
   <g id="patch_126">
    <path clip-path="url(#p176ff8a85e)" d="M 310.207172 137.71551 
L 311.351411 137.71551 
L 311.351411 137.583962 
L 310.207172 137.583962 
z
" style="fill:#1f77b4;"/>
   </g>
   <g id="patch_127">
    <path clip-path="url(#p176ff8a85e)" d="M 311.637471 137.71551 
L 312.781711 137.71551 
L 312.781711 137.677925 
L 311.637471 137.677925 
z
" style="fill:#1f77b4;"/>
   </g>
   <g id="patch_128">
    <path clip-path="url(#p176ff8a85e)" d="M 313.06777 137.71551 
L 314.21201 137.71551 
L 314.21201 137.489999 
L 313.06777 137.489999 
z
" style="fill:#1f77b4;"/>
   </g>
   <g id="patch_129">
    <path clip-path="url(#p176ff8a85e)" d="M 314.49807 137.71551 
L 315.642309 137.71551 
L 315.642309 137.339658 
L 314.49807 137.339658 
z
" style="fill:#1f77b4;"/>
   </g>
   <g id="patch_130">
    <path clip-path="url(#p176ff8a85e)" d="M 315.928369 137.71551 
L 317.072609 137.71551 
L 317.072609 136.888635 
L 315.928369 136.888635 
z
" style="fill:#1f77b4;"/>
   </g>
   <g id="patch_131">
    <path clip-path="url(#p176ff8a85e)" d="M 317.358668 137.71551 
L 318.502908 137.71551 
L 318.502908 137.527584 
L 317.358668 137.527584 
z
" style="fill:#1f77b4;"/>
   </g>
   <g id="patch_132">
    <path clip-path="url(#p176ff8a85e)" d="M 318.788968 137.71551 
L 319.933207 137.71551 
L 319.933207 136.456405 
L 318.788968 136.456405 
z
" style="fill:#1f77b4;"/>
   </g>
   <g id="patch_133">
    <path clip-path="url(#p176ff8a85e)" d="M 320.219267 137.71551 
L 321.363507 137.71551 
L 321.363507 136.832257 
L 320.219267 136.832257 
z
" style="fill:#1f77b4;"/>
   </g>
   <g id="patch_134">
    <path clip-path="url(#p176ff8a85e)" d="M 321.649566 137.71551 
L 322.793806 137.71551 
L 322.793806 136.362442 
L 321.649566 136.362442 
z
" style="fill:#1f77b4;"/>
   </g>
   <g id="patch_135">
    <path clip-path="url(#p176ff8a85e)" d="M 323.079866 137.71551 
L 324.224105 137.71551 
L 324.224105 136.49399 
L 323.079866 136.49399 
z
" style="fill:#1f77b4;"/>
   </g>
   <g id="patch_136">
    <path clip-path="url(#p176ff8a85e)" d="M 324.510165 137.71551 
L 325.654405 137.71551 
L 325.654405 136.757087 
L 324.510165 136.757087 
z
" style="fill:#1f77b4;"/>
   </g>
   <g id="patch_137">
    <path clip-path="url(#p176ff8a85e)" d="M 325.940464 137.71551 
L 327.084704 137.71551 
L 327.084704 136.362442 
L 325.940464 136.362442 
z
" style="fill:#1f77b4;"/>
   </g>
   <g id="patch_138">
    <path clip-path="url(#p176ff8a85e)" d="M 327.370764 137.71551 
L 328.515003 137.71551 
L 328.515003 136.49399 
L 327.370764 136.49399 
z
" style="fill:#1f77b4;"/>
   </g>
   <g id="patch_139">
    <path clip-path="url(#p176ff8a85e)" d="M 328.801063 137.71551 
L 329.945303 137.71551 
L 329.945303 136.92622 
L 328.801063 136.92622 
z
" style="fill:#1f77b4;"/>
   </g>
   <g id="patch_140">
    <path clip-path="url(#p176ff8a85e)" d="M 330.231362 137.71551 
L 331.375602 137.71551 
L 331.375602 136.644331 
L 330.231362 136.644331 
z
" style="fill:#1f77b4;"/>
   </g>
   <g id="patch_141">
    <path clip-path="url(#p176ff8a85e)" d="M 331.661662 137.71551 
L 332.805901 137.71551 
L 332.805901 136.757087 
L 331.661662 136.757087 
z
" style="fill:#1f77b4;"/>
   </g>
   <g id="patch_142">
    <path clip-path="url(#p176ff8a85e)" d="M 333.091961 137.71551 
L 334.236201 137.71551 
L 334.236201 135.385226 
L 333.091961 135.385226 
z
" style="fill:#1f77b4;"/>
   </g>
   <g id="patch_143">
    <path clip-path="url(#p176ff8a85e)" d="M 334.52226 137.71551 
L 335.6665 137.71551 
L 335.6665 134.708692 
L 334.52226 134.708692 
z
" style="fill:#1f77b4;"/>
   </g>
   <g id="patch_144">
    <path clip-path="url(#p176ff8a85e)" d="M 335.95256 137.71551 
L 337.096799 137.71551 
L 337.096799 136.174516 
L 335.95256 136.174516 
z
" style="fill:#1f77b4;"/>
   </g>
   <g id="patch_145">
    <path clip-path="url(#p176ff8a85e)" d="M 337.382859 137.71551 
L 338.527099 137.71551 
L 338.527099 134.48318 
L 337.382859 134.48318 
z
" style="fill:#1f77b4;"/>
   </g>
   <g id="patch_146">
    <path clip-path="url(#p176ff8a85e)" d="M 338.813158 137.71551 
L 339.957398 137.71551 
L 339.957398 134.934203 
L 338.813158 134.934203 
z
" style="fill:#1f77b4;"/>
   </g>
   <g id="patch_147">
    <path clip-path="url(#p176ff8a85e)" d="M 340.243458 137.71551 
L 341.387697 137.71551 
L 341.387697 136.456405 
L 340.243458 136.456405 
z
" style="fill:#1f77b4;"/>
   </g>
   <g id="patch_148">
    <path clip-path="url(#p176ff8a85e)" d="M 341.673757 137.71551 
L 342.817997 137.71551 
L 342.817997 133.449586 
L 341.673757 133.449586 
z
" style="fill:#1f77b4;"/>
   </g>
   <g id="patch_149">
    <path clip-path="url(#p176ff8a85e)" d="M 343.104056 137.71551 
L 344.248296 137.71551 
L 344.248296 133.017356 
L 343.104056 133.017356 
z
" style="fill:#1f77b4;"/>
   </g>
   <g id="patch_150">
    <path clip-path="url(#p176ff8a85e)" d="M 344.534356 137.71551 
L 345.678595 137.71551 
L 345.678595 132.491163 
L 344.534356 132.491163 
z
" style="fill:#1f77b4;"/>
   </g>
   <g id="patch_151">
    <path clip-path="url(#p176ff8a85e)" d="M 345.964655 137.71551 
L 347.108895 137.71551 
L 347.108895 133.054941 
L 345.964655 133.054941 
z
" style="fill:#1f77b4;"/>
   </g>
   <g id="patch_152">
    <path clip-path="url(#p176ff8a85e)" d="M 347.394954 137.71551 
L 348.539194 137.71551 
L 348.539194 135.028166 
L 347.394954 135.028166 
z
" style="fill:#1f77b4;"/>
   </g>
   <g id="patch_153">
    <path clip-path="url(#p176ff8a85e)" d="M 348.825254 137.71551 
L 349.969493 137.71551 
L 349.969493 133.054941 
L 348.825254 133.054941 
z
" style="fill:#1f77b4;"/>
   </g>
   <g id="patch_154">
    <path clip-path="url(#p176ff8a85e)" d="M 350.255553 137.71551 
L 351.399793 137.71551 
L 351.399793 130.649487 
L 350.255553 130.649487 
z
" style="fill:#1f77b4;"/>
   </g>
   <g id="patch_155">
    <path clip-path="url(#p176ff8a85e)" d="M 351.685852 137.71551 
L 352.830092 137.71551 
L 352.830092 134.351632 
L 351.685852 134.351632 
z
" style="fill:#1f77b4;"/>
   </g>
   <g id="patch_156">
    <path clip-path="url(#p176ff8a85e)" d="M 353.116152 137.71551 
L 354.260391 137.71551 
L 354.260391 131.457569 
L 353.116152 131.457569 
z
" style="fill:#1f77b4;"/>
   </g>
   <g id="patch_157">
    <path clip-path="url(#p176ff8a85e)" d="M 354.546451 137.71551 
L 355.690691 137.71551 
L 355.690691 133.938194 
L 354.546451 133.938194 
z
" style="fill:#1f77b4;"/>
   </g>
   <g id="patch_158">
    <path clip-path="url(#p176ff8a85e)" d="M 355.97675 137.71551 
L 357.12099 137.71551 
L 357.12099 130.104501 
L 355.97675 130.104501 
z
" style="fill:#1f77b4;"/>
   </g>
   <g id="patch_159">
    <path clip-path="url(#p176ff8a85e)" d="M 357.40705 137.71551 
L 358.551289 137.71551 
L 358.551289 134.069743 
L 357.40705 134.069743 
z
" style="fill:#1f77b4;"/>
   </g>
   <g id="patch_160">
    <path clip-path="url(#p176ff8a85e)" d="M 358.837349 137.71551 
L 359.981589 137.71551 
L 359.981589 133.543549 
L 358.837349 133.543549 
z
" style="fill:#1f77b4;"/>
   </g>
   <g id="patch_161">
    <path clip-path="url(#p176ff8a85e)" d="M 360.267648 137.71551 
L 361.411888 137.71551 
L 361.411888 135.1973 
L 360.267648 135.1973 
z
" style="fill:#1f77b4;"/>
   </g>
   <g id="patch_162">
    <path clip-path="url(#p176ff8a85e)" d="M 361.697948 137.71551 
L 362.842187 137.71551 
L 362.842187 130.066915 
L 361.697948 130.066915 
z
" style="fill:#1f77b4;"/>
   </g>
   <g id="patch_163">
    <path clip-path="url(#p176ff8a85e)" d="M 363.128247 137.71551 
L 364.272487 137.71551 
L 364.272487 133.092527 
L 363.128247 133.092527 
z
" style="fill:#1f77b4;"/>
   </g>
   <g id="patch_164">
    <path clip-path="url(#p176ff8a85e)" d="M 364.558546 137.71551 
L 365.702786 137.71551 
L 365.702786 126.064088 
L 364.558546 126.064088 
z
" style="fill:#1f77b4;"/>
   </g>
   <g id="patch_165">
    <path clip-path="url(#p176ff8a85e)" d="M 365.988846 137.71551 
L 367.133085 137.71551 
L 367.133085 135.648322 
L 365.988846 135.648322 
z
" style="fill:#1f77b4;"/>
   </g>
   <g id="patch_166">
    <path clip-path="url(#p176ff8a85e)" d="M 367.419145 137.71551 
L 368.563385 137.71551 
L 368.563385 127.454742 
L 367.419145 127.454742 
z
" style="fill:#1f77b4;"/>
   </g>
   <g id="patch_167">
    <path clip-path="url(#p176ff8a85e)" d="M 368.849444 137.71551 
L 369.993684 137.71551 
L 369.993684 132.3972 
L 368.849444 132.3972 
z
" style="fill:#1f77b4;"/>
   </g>
   <g id="patch_168">
    <path clip-path="url(#p176ff8a85e)" d="M 370.279744 137.71551 
L 371.423983 137.71551 
L 371.423983 122.061261 
L 370.279744 122.061261 
z
" style="fill:#1f77b4;"/>
   </g>
   <g id="patch_169">
    <path clip-path="url(#p176ff8a85e)" d="M 371.710043 137.71551 
L 372.854283 137.71551 
L 372.854283 127.191645 
L 371.710043 127.191645 
z
" style="fill:#1f77b4;"/>
   </g>
   <g id="patch_170">
    <path clip-path="url(#p176ff8a85e)" d="M 373.140342 137.71551 
L 374.284582 137.71551 
L 374.284582 130.856205 
L 373.140342 130.856205 
z
" style="fill:#1f77b4;"/>
   </g>
   <g id="patch_171">
    <path clip-path="url(#p176ff8a85e)" d="M 374.570642 137.71551 
L 375.714881 137.71551 
L 375.714881 126.740623 
L 374.570642 126.740623 
z
" style="fill:#1f77b4;"/>
   </g>
   <g id="patch_172">
    <path clip-path="url(#p176ff8a85e)" d="M 376.000941 137.71551 
L 377.145181 137.71551 
L 377.145181 124.316375 
L 376.000941 124.316375 
z
" style="fill:#1f77b4;"/>
   </g>
   <g id="patch_173">
    <path clip-path="url(#p176ff8a85e)" d="M 377.43124 137.71551 
L 378.57548 137.71551 
L 378.57548 130.574316 
L 377.43124 130.574316 
z
" style="fill:#1f77b4;"/>
   </g>
   <g id="patch_174">
    <path clip-path="url(#p176ff8a85e)" d="M 378.86154 137.71551 
L 380.005779 137.71551 
L 380.005779 126.571489 
L 378.86154 126.571489 
z
" style="fill:#1f77b4;"/>
   </g>
   <g id="patch_175">
    <path clip-path="url(#p176ff8a85e)" d="M 380.291839 137.71551 
L 381.436079 137.71551 
L 381.436079 126.778208 
L 380.291839 126.778208 
z
" style="fill:#1f77b4;"/>
   </g>
   <g id="patch_176">
    <path clip-path="url(#p176ff8a85e)" d="M 381.722138 137.71551 
L 382.866378 137.71551 
L 382.866378 125.124458 
L 381.722138 125.124458 
z
" style="fill:#1f77b4;"/>
   </g>
   <g id="patch_177">
    <path clip-path="url(#p176ff8a85e)" d="M 383.152438 137.71551 
L 384.296677 137.71551 
L 384.296677 120.726986 
L 383.152438 120.726986 
z
" style="fill:#1f77b4;"/>
   </g>
   <g id="patch_178">
    <path clip-path="url(#p176ff8a85e)" d="M 384.582737 137.71551 
L 385.726977 137.71551 
L 385.726977 121.535068 
L 384.582737 121.535068 
z
" style="fill:#1f77b4;"/>
   </g>
   <g id="patch_179">
    <path clip-path="url(#p176ff8a85e)" d="M 386.013036 137.71551 
L 387.157276 137.71551 
L 387.157276 107.929214 
L 386.013036 107.929214 
z
" style="fill:#1f77b4;"/>
   </g>
   <g id="patch_180">
    <path clip-path="url(#p176ff8a85e)" d="M 387.443336 137.71551 
L 388.587575 137.71551 
L 388.587575 115.389883 
L 387.443336 115.389883 
z
" style="fill:#1f77b4;"/>
   </g>
   <g id="patch_181">
    <path clip-path="url(#p176ff8a85e)" d="M 388.873635 137.71551 
L 390.017875 137.71551 
L 390.017875 135.216092 
L 388.873635 135.216092 
z
" style="fill:#1f77b4;"/>
   </g>
   <g id="patch_182">
    <path clip-path="url(#p176ff8a85e)" d="M 390.303934 137.71551 
L 391.448174 137.71551 
L 391.448174 121.234386 
L 390.303934 121.234386 
z
" style="fill:#1f77b4;"/>
   </g>
   <g id="patch_183">
    <path clip-path="url(#p176ff8a85e)" d="M 391.734234 137.71551 
L 392.878473 137.71551 
L 392.878473 127.435949 
L 391.734234 127.435949 
z
" style="fill:#1f77b4;"/>
   </g>
   <g id="patch_184">
    <path clip-path="url(#p176ff8a85e)" d="M 393.164533 137.71551 
L 394.308773 137.71551 
L 394.308773 133.167697 
L 393.164533 133.167697 
z
" style="fill:#1f77b4;"/>
   </g>
   <g id="patch_185">
    <path clip-path="url(#p176ff8a85e)" d="M 394.594832 137.71551 
L 395.739072 137.71551 
L 395.739072 123.827767 
L 394.594832 123.827767 
z
" style="fill:#1f77b4;"/>
   </g>
   <g id="patch_186">
    <path clip-path="url(#p176ff8a85e)" d="M 396.025132 137.71551 
L 397.169371 137.71551 
L 397.169371 127.94335 
L 396.025132 127.94335 
z
" style="fill:#1f77b4;"/>
   </g>
   <g id="patch_187">
    <path clip-path="url(#p176ff8a85e)" d="M 397.455431 137.71551 
L 398.599671 137.71551 
L 398.599671 107.384229 
L 397.455431 107.384229 
z
" style="fill:#1f77b4;"/>
   </g>
   <g id="patch_188">
    <path clip-path="url(#p176ff8a85e)" d="M 398.88573 137.71551 
L 400.02997 137.71551 
L 400.02997 125.744614 
L 398.88573 125.744614 
z
" style="fill:#1f77b4;"/>
   </g>
   <g id="patch_189">
    <path clip-path="url(#p176ff8a85e)" d="M 400.31603 137.71551 
L 401.460269 137.71551 
L 401.460269 54.520601 
L 400.31603 54.520601 
z
" style="fill:#1f77b4;"/>
   </g>
   <g id="patch_190">
    <path clip-path="url(#p176ff8a85e)" d="M 401.746329 137.71551 
L 402.890569 137.71551 
L 402.890569 116.291928 
L 401.746329 116.291928 
z
" style="fill:#1f77b4;"/>
   </g>
   <g id="patch_191">
    <path clip-path="url(#p176ff8a85e)" d="M 403.176628 137.71551 
L 404.320868 137.71551 
L 404.320868 89.474866 
L 403.176628 89.474866 
z
" style="fill:#1f77b4;"/>
   </g>
   <g id="patch_192">
    <path clip-path="url(#p176ff8a85e)" d="M 404.606928 137.71551 
L 405.751167 137.71551 
L 405.751167 105.448589 
L 404.606928 105.448589 
z
" style="fill:#1f77b4;"/>
   </g>
   <g id="patch_193">
    <path clip-path="url(#p176ff8a85e)" d="M 406.037227 137.71551 
L 407.181467 137.71551 
L 407.181467 109.526587 
L 406.037227 109.526587 
z
" style="fill:#1f77b4;"/>
   </g>
   <g id="patch_194">
    <path clip-path="url(#p176ff8a85e)" d="M 407.467526 137.71551 
L 408.611766 137.71551 
L 408.611766 119.975281 
L 407.467526 119.975281 
z
" style="fill:#1f77b4;"/>
   </g>
   <g id="patch_195">
    <path clip-path="url(#p176ff8a85e)" d="M 408.897826 137.71551 
L 410.042065 137.71551 
L 410.042065 74.215262 
L 408.897826 74.215262 
z
" style="fill:#1f77b4;"/>
   </g>
   <g id="patch_196">
    <path clip-path="url(#p176ff8a85e)" d="M 410.328125 137.71551 
L 411.472365 137.71551 
L 411.472365 111.668945 
L 410.328125 111.668945 
z
" style="fill:#1f77b4;"/>
   </g>
   <g id="patch_197">
    <path clip-path="url(#p176ff8a85e)" d="M 411.758424 137.71551 
L 412.902664 137.71551 
L 412.902664 124.072071 
L 411.758424 124.072071 
z
" style="fill:#1f77b4;"/>
   </g>
   <g id="patch_198">
    <path clip-path="url(#p176ff8a85e)" d="M 413.188724 137.71551 
L 414.332963 137.71551 
L 414.332963 93.101841 
L 413.188724 93.101841 
z
" style="fill:#1f77b4;"/>
   </g>
   <g id="patch_199">
    <path clip-path="url(#p176ff8a85e)" d="M 414.619023 137.71551 
L 415.763263 137.71551 
L 415.763263 90.959483 
L 414.619023 90.959483 
z
" style="fill:#1f77b4;"/>
   </g>
   <g id="patch_200">
    <path clip-path="url(#p176ff8a85e)" d="M 416.049322 137.71551 
L 417.193562 137.71551 
L 417.193562 80.078558 
L 416.049322 80.078558 
z
" style="fill:#1f77b4;"/>
   </g>
   <g id="patch_201">
    <path clip-path="url(#p176ff8a85e)" d="M 417.479622 137.71551 
L 418.623861 137.71551 
L 418.623861 53.768896 
L 417.479622 53.768896 
z
" style="fill:#1f77b4;"/>
   </g>
   <g id="patch_202">
    <path clip-path="url(#p176ff8a85e)" d="M 418.909921 137.71551 
L 420.054161 137.71551 
L 420.054161 119.524258 
L 418.909921 119.524258 
z
" style="fill:#1f77b4;"/>
   </g>
   <g id="patch_203">
    <path clip-path="url(#p176ff8a85e)" d="M 420.34022 137.71551 
L 421.48446 137.71551 
L 421.48446 116.254343 
L 420.34022 116.254343 
z
" style="fill:#1f77b4;"/>
   </g>
   <g id="patch_204">
    <path clip-path="url(#p176ff8a85e)" d="M 421.77052 137.71551 
L 422.914759 137.71551 
L 422.914759 96.334171 
L 421.77052 96.334171 
z
" style="fill:#1f77b4;"/>
   </g>
   <g id="patch_205">
    <path clip-path="url(#p176ff8a85e)" d="M 423.200819 137.71551 
L 424.345059 137.71551 
L 424.345059 90.58363 
L 423.200819 90.58363 
z
" style="fill:#1f77b4;"/>
   </g>
   <g id="patch_206">
    <path clip-path="url(#p176ff8a85e)" d="M 424.631118 137.71551 
L 425.775358 137.71551 
L 425.775358 105.918404 
L 424.631118 105.918404 
z
" style="fill:#1f77b4;"/>
   </g>
   <g id="patch_207">
    <path clip-path="url(#p176ff8a85e)" d="M 426.061418 137.71551 
L 427.205657 137.71551 
L 427.205657 97.612068 
L 426.061418 97.612068 
z
" style="fill:#1f77b4;"/>
   </g>
   <g id="patch_208">
    <path clip-path="url(#p176ff8a85e)" d="M 427.491717 137.71551 
L 428.635957 137.71551 
L 428.635957 110.146743 
L 427.491717 110.146743 
z
" style="fill:#1f77b4;"/>
   </g>
   <g id="patch_209">
    <path clip-path="url(#p176ff8a85e)" d="M 428.922016 137.71551 
L 430.066256 137.71551 
L 430.066256 77.14691 
L 428.922016 77.14691 
z
" style="fill:#1f77b4;"/>
   </g>
   <g id="patch_210">
    <path clip-path="url(#p176ff8a85e)" d="M 430.352316 137.71551 
L 431.496555 137.71551 
L 431.496555 104.959981 
L 430.352316 104.959981 
z
" style="fill:#1f77b4;"/>
   </g>
   <g id="patch_211">
    <path clip-path="url(#p176ff8a85e)" d="M 431.782615 137.71551 
L 432.926855 137.71551 
L 432.926855 72.317208 
L 431.782615 72.317208 
z
" style="fill:#1f77b4;"/>
   </g>
   <g id="patch_212">
    <path clip-path="url(#p176ff8a85e)" d="M 433.212914 137.71551 
L 434.357154 137.71551 
L 434.357154 111.518604 
L 433.212914 111.518604 
z
" style="fill:#1f77b4;"/>
   </g>
   <g id="patch_213">
    <path clip-path="url(#p176ff8a85e)" d="M 434.643214 137.71551 
L 435.787453 137.71551 
L 435.787453 111.368263 
L 434.643214 111.368263 
z
" style="fill:#1f77b4;"/>
   </g>
   <g id="patch_214">
    <path clip-path="url(#p176ff8a85e)" d="M 436.073513 137.71551 
L 437.217753 137.71551 
L 437.217753 99.961145 
L 436.073513 99.961145 
z
" style="fill:#1f77b4;"/>
   </g>
   <g id="patch_215">
    <path clip-path="url(#p176ff8a85e)" d="M 437.503812 137.71551 
L 438.648052 137.71551 
L 438.648052 117.945678 
L 437.503812 117.945678 
z
" style="fill:#1f77b4;"/>
   </g>
   <g id="patch_216">
    <path clip-path="url(#p176ff8a85e)" d="M 438.934112 137.71551 
L 440.078351 137.71551 
L 440.078351 123.884145 
L 438.934112 123.884145 
z
" style="fill:#1f77b4;"/>
   </g>
   <g id="patch_217">
    <path clip-path="url(#p176ff8a85e)" d="M 440.364411 137.71551 
L 441.508651 137.71551 
L 441.508651 111.894456 
L 440.364411 111.894456 
z
" style="fill:#1f77b4;"/>
   </g>
   <g id="patch_218">
    <path clip-path="url(#p176ff8a85e)" d="M 441.79471 137.71551 
L 442.93895 137.71551 
L 442.93895 92.669611 
L 441.79471 92.669611 
z
" style="fill:#1f77b4;"/>
   </g>
   <g id="patch_219">
    <path clip-path="url(#p176ff8a85e)" d="M 443.22501 137.71551 
L 444.369249 137.71551 
L 444.369249 69.686242 
L 443.22501 69.686242 
z
" style="fill:#1f77b4;"/>
   </g>
   <g id="patch_220">
    <path clip-path="url(#p176ff8a85e)" d="M 444.655309 137.71551 
L 445.799549 137.71551 
L 445.799549 131.062924 
L 444.655309 131.062924 
z
" style="fill:#1f77b4;"/>
   </g>
   <g id="patch_221">
    <path clip-path="url(#p176ff8a85e)" d="M 446.085608 137.71551 
L 447.229848 137.71551 
L 447.229848 23.813467 
L 446.085608 23.813467 
z
" style="fill:#1f77b4;"/>
   </g>
   <g id="patch_222">
    <path clip-path="url(#p176ff8a85e)" d="M 447.515908 137.71551 
L 448.660147 137.71551 
L 448.660147 97.142253 
L 447.515908 97.142253 
z
" style="fill:#1f77b4;"/>
   </g>
   <g id="patch_223">
    <path clip-path="url(#p176ff8a85e)" d="M 448.946207 137.71551 
L 450.090447 137.71551 
L 450.090447 126.515111 
L 448.946207 126.515111 
z
" style="fill:#1f77b4;"/>
   </g>
   <g id="matplotlib.axis_3">
    <g id="xtick_6">
     <g id="line2d_12">
      <g>
       <use style="stroke:#000000;stroke-width:0.8;" x="296.476298" xlink:href="#m7cd8b0fbb6" y="137.71551"/>
      </g>
     </g>
     <g id="text_14">
      <!-- 0 -->
      <g transform="translate(293.295048 152.313947)scale(0.1 -0.1)">
       <use xlink:href="#DejaVuSans-48"/>
      </g>
     </g>
    </g>
    <g id="xtick_7">
     <g id="line2d_13">
      <g>
       <use style="stroke:#000000;stroke-width:0.8;" x="332.233781" xlink:href="#m7cd8b0fbb6" y="137.71551"/>
      </g>
     </g>
     <g id="text_15">
      <!-- 25 -->
      <g transform="translate(325.871281 152.313947)scale(0.1 -0.1)">
       <use xlink:href="#DejaVuSans-50"/>
       <use x="63.623047" xlink:href="#DejaVuSans-53"/>
      </g>
     </g>
    </g>
    <g id="xtick_8">
     <g id="line2d_14">
      <g>
       <use style="stroke:#000000;stroke-width:0.8;" x="367.991265" xlink:href="#m7cd8b0fbb6" y="137.71551"/>
      </g>
     </g>
     <g id="text_16">
      <!-- 50 -->
      <g transform="translate(361.628765 152.313947)scale(0.1 -0.1)">
       <use xlink:href="#DejaVuSans-53"/>
       <use x="63.623047" xlink:href="#DejaVuSans-48"/>
      </g>
     </g>
    </g>
    <g id="xtick_9">
     <g id="line2d_15">
      <g>
       <use style="stroke:#000000;stroke-width:0.8;" x="403.748748" xlink:href="#m7cd8b0fbb6" y="137.71551"/>
      </g>
     </g>
     <g id="text_17">
      <!-- 75 -->
      <g transform="translate(397.386248 152.313947)scale(0.1 -0.1)">
       <use xlink:href="#DejaVuSans-55"/>
       <use x="63.623047" xlink:href="#DejaVuSans-53"/>
      </g>
     </g>
    </g>
    <g id="xtick_10">
     <g id="line2d_16">
      <g>
       <use style="stroke:#000000;stroke-width:0.8;" x="439.506232" xlink:href="#m7cd8b0fbb6" y="137.71551"/>
      </g>
     </g>
     <g id="text_18">
      <!-- 100 -->
      <g transform="translate(429.962482 152.313947)scale(0.1 -0.1)">
       <use xlink:href="#DejaVuSans-49"/>
       <use x="63.623047" xlink:href="#DejaVuSans-48"/>
       <use x="127.246094" xlink:href="#DejaVuSans-48"/>
      </g>
     </g>
    </g>
    <g id="text_19">
     <!-- Dias -->
     <g transform="translate(362.0895 165.992072)scale(0.1 -0.1)">
      <use xlink:href="#DejaVuSans-68"/>
      <use x="77.001953" xlink:href="#DejaVuSans-105"/>
      <use x="104.785156" xlink:href="#DejaVuSans-97"/>
      <use x="166.064453" xlink:href="#DejaVuSans-115"/>
     </g>
    </g>
   </g>
   <g id="matplotlib.axis_4">
    <g id="ytick_6">
     <g id="line2d_17">
      <g>
       <use style="stroke:#000000;stroke-width:0.8;" x="288.194865" xlink:href="#mc7147a91a4" y="137.71551"/>
      </g>
     </g>
     <g id="text_20">
      <!-- 0 -->
      <g transform="translate(274.832365 141.514729)scale(0.1 -0.1)">
       <use xlink:href="#DejaVuSans-48"/>
      </g>
     </g>
    </g>
    <g id="ytick_7">
     <g id="line2d_18">
      <g>
       <use style="stroke:#000000;stroke-width:0.8;" x="288.194865" xlink:href="#mc7147a91a4" y="100.130279"/>
      </g>
     </g>
     <g id="text_21">
      <!-- 2000 -->
      <g transform="translate(255.744865 103.929498)scale(0.1 -0.1)">
       <use xlink:href="#DejaVuSans-50"/>
       <use x="63.623047" xlink:href="#DejaVuSans-48"/>
       <use x="127.246094" xlink:href="#DejaVuSans-48"/>
       <use x="190.869141" xlink:href="#DejaVuSans-48"/>
      </g>
     </g>
    </g>
    <g id="ytick_8">
     <g id="line2d_19">
      <g>
       <use style="stroke:#000000;stroke-width:0.8;" x="288.194865" xlink:href="#mc7147a91a4" y="62.545048"/>
      </g>
     </g>
     <g id="text_22">
      <!-- 4000 -->
      <defs>
       <path d="M 37.796875 64.3125 
L 12.890625 25.390625 
L 37.796875 25.390625 
z
M 35.203125 72.90625 
L 47.609375 72.90625 
L 47.609375 25.390625 
L 58.015625 25.390625 
L 58.015625 17.1875 
L 47.609375 17.1875 
L 47.609375 0 
L 37.796875 0 
L 37.796875 17.1875 
L 4.890625 17.1875 
L 4.890625 26.703125 
z
" id="DejaVuSans-52"/>
      </defs>
      <g transform="translate(255.744865 66.344267)scale(0.1 -0.1)">
       <use xlink:href="#DejaVuSans-52"/>
       <use x="63.623047" xlink:href="#DejaVuSans-48"/>
       <use x="127.246094" xlink:href="#DejaVuSans-48"/>
       <use x="190.869141" xlink:href="#DejaVuSans-48"/>
      </g>
     </g>
    </g>
    <g id="ytick_9">
     <g id="line2d_20">
      <g>
       <use style="stroke:#000000;stroke-width:0.8;" x="288.194865" xlink:href="#mc7147a91a4" y="24.959817"/>
      </g>
     </g>
     <g id="text_23">
      <!-- 6000 -->
      <defs>
       <path d="M 33.015625 40.375 
Q 26.375 40.375 22.484375 35.828125 
Q 18.609375 31.296875 18.609375 23.390625 
Q 18.609375 15.53125 22.484375 10.953125 
Q 26.375 6.390625 33.015625 6.390625 
Q 39.65625 6.390625 43.53125 10.953125 
Q 47.40625 15.53125 47.40625 23.390625 
Q 47.40625 31.296875 43.53125 35.828125 
Q 39.65625 40.375 33.015625 40.375 
z
M 52.59375 71.296875 
L 52.59375 62.3125 
Q 48.875 64.0625 45.09375 64.984375 
Q 41.3125 65.921875 37.59375 65.921875 
Q 27.828125 65.921875 22.671875 59.328125 
Q 17.53125 52.734375 16.796875 39.40625 
Q 19.671875 43.65625 24.015625 45.921875 
Q 28.375 48.1875 33.59375 48.1875 
Q 44.578125 48.1875 50.953125 41.515625 
Q 57.328125 34.859375 57.328125 23.390625 
Q 57.328125 12.15625 50.6875 5.359375 
Q 44.046875 -1.421875 33.015625 -1.421875 
Q 20.359375 -1.421875 13.671875 8.265625 
Q 6.984375 17.96875 6.984375 36.375 
Q 6.984375 53.65625 15.1875 63.9375 
Q 23.390625 74.21875 37.203125 74.21875 
Q 40.921875 74.21875 44.703125 73.484375 
Q 48.484375 72.75 52.59375 71.296875 
z
" id="DejaVuSans-54"/>
      </defs>
      <g transform="translate(255.744865 28.759035)scale(0.1 -0.1)">
       <use xlink:href="#DejaVuSans-54"/>
       <use x="63.623047" xlink:href="#DejaVuSans-48"/>
       <use x="127.246094" xlink:href="#DejaVuSans-48"/>
       <use x="190.869141" xlink:href="#DejaVuSans-48"/>
      </g>
     </g>
    </g>
    <g id="text_24">
     <!-- Novos casos -->
     <defs>
      <path d="M 9.8125 72.90625 
L 23.09375 72.90625 
L 55.421875 11.921875 
L 55.421875 72.90625 
L 64.984375 72.90625 
L 64.984375 0 
L 51.703125 0 
L 19.390625 60.984375 
L 19.390625 0 
L 9.8125 0 
z
" id="DejaVuSans-78"/>
      <path d="M 2.984375 54.6875 
L 12.5 54.6875 
L 29.59375 8.796875 
L 46.6875 54.6875 
L 56.203125 54.6875 
L 35.6875 0 
L 23.484375 0 
z
" id="DejaVuSans-118"/>
     </defs>
     <g transform="translate(249.665177 109.011469)rotate(-90)scale(0.1 -0.1)">
      <use xlink:href="#DejaVuSans-78"/>
      <use x="74.804688" xlink:href="#DejaVuSans-111"/>
      <use x="135.986328" xlink:href="#DejaVuSans-118"/>
      <use x="195.166016" xlink:href="#DejaVuSans-111"/>
      <use x="256.347656" xlink:href="#DejaVuSans-115"/>
      <use x="308.447266" xlink:href="#DejaVuSans-32"/>
      <use x="340.234375" xlink:href="#DejaVuSans-99"/>
      <use x="395.214844" xlink:href="#DejaVuSans-97"/>
      <use x="456.494141" xlink:href="#DejaVuSans-115"/>
      <use x="508.59375" xlink:href="#DejaVuSans-111"/>
      <use x="569.775391" xlink:href="#DejaVuSans-115"/>
     </g>
    </g>
   </g>
   <g id="line2d_21">
    <path clip-path="url(#p176ff8a85e)" d="M 296.476298 137.698619 
L 297.906597 137.692107 
L 299.336897 137.683944 
L 300.767196 137.675271 
L 302.197495 137.664282 
L 303.627795 137.650006 
L 305.058094 137.630775 
L 306.488393 137.604382 
L 307.918693 137.56884 
L 309.348992 137.522974 
L 310.779291 137.465156 
L 312.209591 137.39548 
L 313.63989 137.314737 
L 315.070189 137.225634 
L 316.500489 137.131538 
L 317.930788 137.035305 
L 319.361087 136.939338 
L 320.791387 136.84644 
L 322.221686 136.756476 
L 323.651985 136.668587 
L 325.082285 136.578373 
L 326.512584 136.480645 
L 327.942883 136.371255 
L 329.373183 136.244677 
L 330.803482 136.096864 
L 332.233781 135.926572 
L 333.664081 135.730451 
L 335.09438 135.5107 
L 336.524679 135.270858 
L 337.954979 135.015518 
L 339.385278 134.751928 
L 340.815577 134.484174 
L 342.245877 134.216209 
L 343.676176 133.960979 
L 345.106475 133.72422 
L 346.536775 133.511803 
L 347.967074 133.322593 
L 349.397373 133.157632 
L 350.827673 133.01792 
L 352.257972 132.901853 
L 353.688271 132.789497 
L 355.118571 132.667576 
L 356.54887 132.518878 
L 357.979169 132.339045 
L 359.409469 132.109683 
L 360.839768 131.820538 
L 362.270067 131.461756 
L 363.700367 131.049963 
L 365.130666 130.598783 
L 366.560965 130.123113 
L 367.991265 129.624393 
L 369.421564 129.119552 
L 370.851863 128.607431 
L 372.282163 128.096117 
L 373.712462 127.567185 
L 375.142762 127.003946 
L 376.573061 126.404077 
L 378.00336 125.776838 
L 379.43366 125.143829 
L 380.863959 124.548946 
L 382.294258 124.014535 
L 383.724558 123.553447 
L 385.154857 123.169619 
L 386.585156 122.821521 
L 388.015456 122.450318 
L 389.445755 121.94874 
L 390.876054 121.204495 
L 392.306354 120.108888 
L 393.736653 118.651493 
L 395.166952 116.8428 
L 396.597252 114.769163 
L 398.027551 112.5389 
L 399.45785 110.302907 
L 400.88815 108.165097 
L 402.318449 106.2972 
L 403.748748 104.720405 
L 405.179048 103.419738 
L 406.609347 102.314872 
L 408.039646 101.325892 
L 409.469946 100.385635 
L 410.900245 99.552208 
L 412.330544 98.749018 
L 413.760844 97.988226 
L 415.191143 97.321014 
L 416.621442 96.833157 
L 418.051742 96.583562 
L 419.482041 96.581081 
L 420.91234 96.679404 
L 422.34264 96.88271 
L 423.772939 97.194107 
L 425.203238 97.617289 
L 426.633538 98.107713 
L 428.063837 98.646954 
L 429.494136 99.216109 
L 430.924436 99.875886 
L 432.354735 100.557868 
L 433.785034 101.132267 
L 435.215334 101.427275 
L 436.645633 101.374223 
L 438.075932 100.854886 
L 439.506232 99.843678 
L 440.936531 98.350937 
L 442.36683 96.523365 
L 443.79713 94.499562 
L 445.227429 92.48217 
L 446.657728 91.118551 
L 448.088028 89.852017 
L 449.518327 88.791374 
" style="fill:none;stroke:#ff0000;stroke-linecap:square;stroke-width:1.5;"/>
   </g>
   <g id="patch_224">
    <path d="M 288.194865 137.71551 
L 288.194865 18.118365 
" style="fill:none;stroke:#000000;stroke-linecap:square;stroke-linejoin:miter;stroke-width:0.8;"/>
   </g>
   <g id="patch_225">
    <path d="M 457.79976 137.71551 
L 457.79976 18.118365 
" style="fill:none;stroke:#000000;stroke-linecap:square;stroke-linejoin:miter;stroke-width:0.8;"/>
   </g>
   <g id="patch_226">
    <path d="M 288.194865 137.71551 
L 457.79976 137.71551 
" style="fill:none;stroke:#000000;stroke-linecap:square;stroke-linejoin:miter;stroke-width:0.8;"/>
   </g>
   <g id="patch_227">
    <path d="M 288.194865 18.118365 
L 457.79976 18.118365 
" style="fill:none;stroke:#000000;stroke-linecap:square;stroke-linejoin:miter;stroke-width:0.8;"/>
   </g>
   <g id="text_25">
    <!-- Casos novos - RJ -->
    <defs>
     <path d="M 54.890625 33.015625 
L 54.890625 0 
L 45.90625 0 
L 45.90625 32.71875 
Q 45.90625 40.484375 42.875 44.328125 
Q 39.84375 48.1875 33.796875 48.1875 
Q 26.515625 48.1875 22.3125 43.546875 
Q 18.109375 38.921875 18.109375 30.90625 
L 18.109375 0 
L 9.078125 0 
L 9.078125 54.6875 
L 18.109375 54.6875 
L 18.109375 46.1875 
Q 21.34375 51.125 25.703125 53.5625 
Q 30.078125 56 35.796875 56 
Q 45.21875 56 50.046875 50.171875 
Q 54.890625 44.34375 54.890625 33.015625 
z
" id="DejaVuSans-110"/>
    </defs>
    <g transform="translate(323.562 12.118365)scale(0.12 -0.12)">
     <use xlink:href="#DejaVuSans-67"/>
     <use x="69.824219" xlink:href="#DejaVuSans-97"/>
     <use x="131.103516" xlink:href="#DejaVuSans-115"/>
     <use x="183.203125" xlink:href="#DejaVuSans-111"/>
     <use x="244.384766" xlink:href="#DejaVuSans-115"/>
     <use x="296.484375" xlink:href="#DejaVuSans-32"/>
     <use x="328.271484" xlink:href="#DejaVuSans-110"/>
     <use x="391.650391" xlink:href="#DejaVuSans-111"/>
     <use x="452.832031" xlink:href="#DejaVuSans-118"/>
     <use x="512.011719" xlink:href="#DejaVuSans-111"/>
     <use x="573.193359" xlink:href="#DejaVuSans-115"/>
     <use x="625.292969" xlink:href="#DejaVuSans-32"/>
     <use x="657.080078" xlink:href="#DejaVuSans-45"/>
     <use x="693.164062" xlink:href="#DejaVuSans-32"/>
     <use x="724.951172" xlink:href="#DejaVuSans-82"/>
     <use x="794.433594" xlink:href="#DejaVuSans-74"/>
    </g>
   </g>
  </g>
  <g id="axes_3">
   <g id="patch_228">
    <path d="M 61.853365 312.24351 
L 457.79976 312.24351 
L 457.79976 192.646365 
L 61.853365 192.646365 
z
" style="fill:#ffffff;"/>
   </g>
   <g id="matplotlib.axis_5">
    <g id="xtick_11">
     <g id="line2d_22">
      <g>
       <use style="stroke:#000000;stroke-width:0.8;" x="79.850928" xlink:href="#m7cd8b0fbb6" y="312.24351"/>
      </g>
     </g>
     <g id="text_26">
      <!-- 0 -->
      <g transform="translate(76.669678 326.841947)scale(0.1 -0.1)">
       <use xlink:href="#DejaVuSans-48"/>
      </g>
     </g>
    </g>
    <g id="xtick_12">
     <g id="line2d_23">
      <g>
       <use style="stroke:#000000;stroke-width:0.8;" x="147.131539" xlink:href="#m7cd8b0fbb6" y="312.24351"/>
      </g>
     </g>
     <g id="text_27">
      <!-- 20 -->
      <g transform="translate(140.769039 326.841947)scale(0.1 -0.1)">
       <use xlink:href="#DejaVuSans-50"/>
       <use x="63.623047" xlink:href="#DejaVuSans-48"/>
      </g>
     </g>
    </g>
    <g id="xtick_13">
     <g id="line2d_24">
      <g>
       <use style="stroke:#000000;stroke-width:0.8;" x="214.41215" xlink:href="#m7cd8b0fbb6" y="312.24351"/>
      </g>
     </g>
     <g id="text_28">
      <!-- 40 -->
      <g transform="translate(208.04965 326.841947)scale(0.1 -0.1)">
       <use xlink:href="#DejaVuSans-52"/>
       <use x="63.623047" xlink:href="#DejaVuSans-48"/>
      </g>
     </g>
    </g>
    <g id="xtick_14">
     <g id="line2d_25">
      <g>
       <use style="stroke:#000000;stroke-width:0.8;" x="281.692761" xlink:href="#m7cd8b0fbb6" y="312.24351"/>
      </g>
     </g>
     <g id="text_29">
      <!-- 60 -->
      <g transform="translate(275.330261 326.841947)scale(0.1 -0.1)">
       <use xlink:href="#DejaVuSans-54"/>
       <use x="63.623047" xlink:href="#DejaVuSans-48"/>
      </g>
     </g>
    </g>
    <g id="xtick_15">
     <g id="line2d_26">
      <g>
       <use style="stroke:#000000;stroke-width:0.8;" x="348.973372" xlink:href="#m7cd8b0fbb6" y="312.24351"/>
      </g>
     </g>
     <g id="text_30">
      <!-- 80 -->
      <defs>
       <path d="M 31.78125 34.625 
Q 24.75 34.625 20.71875 30.859375 
Q 16.703125 27.09375 16.703125 20.515625 
Q 16.703125 13.921875 20.71875 10.15625 
Q 24.75 6.390625 31.78125 6.390625 
Q 38.8125 6.390625 42.859375 10.171875 
Q 46.921875 13.96875 46.921875 20.515625 
Q 46.921875 27.09375 42.890625 30.859375 
Q 38.875 34.625 31.78125 34.625 
z
M 21.921875 38.8125 
Q 15.578125 40.375 12.03125 44.71875 
Q 8.5 49.078125 8.5 55.328125 
Q 8.5 64.0625 14.71875 69.140625 
Q 20.953125 74.21875 31.78125 74.21875 
Q 42.671875 74.21875 48.875 69.140625 
Q 55.078125 64.0625 55.078125 55.328125 
Q 55.078125 49.078125 51.53125 44.71875 
Q 48 40.375 41.703125 38.8125 
Q 48.828125 37.15625 52.796875 32.3125 
Q 56.78125 27.484375 56.78125 20.515625 
Q 56.78125 9.90625 50.3125 4.234375 
Q 43.84375 -1.421875 31.78125 -1.421875 
Q 19.734375 -1.421875 13.25 4.234375 
Q 6.78125 9.90625 6.78125 20.515625 
Q 6.78125 27.484375 10.78125 32.3125 
Q 14.796875 37.15625 21.921875 38.8125 
z
M 18.3125 54.390625 
Q 18.3125 48.734375 21.84375 45.5625 
Q 25.390625 42.390625 31.78125 42.390625 
Q 38.140625 42.390625 41.71875 45.5625 
Q 45.3125 48.734375 45.3125 54.390625 
Q 45.3125 60.0625 41.71875 63.234375 
Q 38.140625 66.40625 31.78125 66.40625 
Q 25.390625 66.40625 21.84375 63.234375 
Q 18.3125 60.0625 18.3125 54.390625 
z
" id="DejaVuSans-56"/>
      </defs>
      <g transform="translate(342.610872 326.841947)scale(0.1 -0.1)">
       <use xlink:href="#DejaVuSans-56"/>
       <use x="63.623047" xlink:href="#DejaVuSans-48"/>
      </g>
     </g>
    </g>
    <g id="xtick_16">
     <g id="line2d_27">
      <g>
       <use style="stroke:#000000;stroke-width:0.8;" x="416.253983" xlink:href="#m7cd8b0fbb6" y="312.24351"/>
      </g>
     </g>
     <g id="text_31">
      <!-- 100 -->
      <g transform="translate(406.710233 326.841947)scale(0.1 -0.1)">
       <use xlink:href="#DejaVuSans-49"/>
       <use x="63.623047" xlink:href="#DejaVuSans-48"/>
       <use x="127.246094" xlink:href="#DejaVuSans-48"/>
      </g>
     </g>
    </g>
    <g id="text_32">
     <!-- Dias -->
     <g transform="translate(248.91875 340.520072)scale(0.1 -0.1)">
      <use xlink:href="#DejaVuSans-68"/>
      <use x="77.001953" xlink:href="#DejaVuSans-105"/>
      <use x="104.785156" xlink:href="#DejaVuSans-97"/>
      <use x="166.064453" xlink:href="#DejaVuSans-115"/>
     </g>
    </g>
   </g>
   <g id="matplotlib.axis_6">
    <g id="ytick_10">
     <g id="line2d_28">
      <g>
       <use style="stroke:#000000;stroke-width:0.8;" x="61.853365" xlink:href="#mc7147a91a4" y="303.966551"/>
      </g>
     </g>
     <g id="text_33">
      <!-- 1 -->
      <g transform="translate(48.490865 307.76577)scale(0.1 -0.1)">
       <use xlink:href="#DejaVuSans-49"/>
      </g>
     </g>
    </g>
    <g id="ytick_11">
     <g id="line2d_29">
      <g>
       <use style="stroke:#000000;stroke-width:0.8;" x="61.853365" xlink:href="#mc7147a91a4" y="257.198646"/>
      </g>
     </g>
     <g id="text_34">
      <!-- 2 -->
      <g transform="translate(48.490865 260.997865)scale(0.1 -0.1)">
       <use xlink:href="#DejaVuSans-50"/>
      </g>
     </g>
    </g>
    <g id="ytick_12">
     <g id="line2d_30">
      <g>
       <use style="stroke:#000000;stroke-width:0.8;" x="61.853365" xlink:href="#mc7147a91a4" y="210.430741"/>
      </g>
     </g>
     <g id="text_35">
      <!-- 3 -->
      <defs>
       <path d="M 40.578125 39.3125 
Q 47.65625 37.796875 51.625 33 
Q 55.609375 28.21875 55.609375 21.1875 
Q 55.609375 10.40625 48.1875 4.484375 
Q 40.765625 -1.421875 27.09375 -1.421875 
Q 22.515625 -1.421875 17.65625 -0.515625 
Q 12.796875 0.390625 7.625 2.203125 
L 7.625 11.71875 
Q 11.71875 9.328125 16.59375 8.109375 
Q 21.484375 6.890625 26.8125 6.890625 
Q 36.078125 6.890625 40.9375 10.546875 
Q 45.796875 14.203125 45.796875 21.1875 
Q 45.796875 27.640625 41.28125 31.265625 
Q 36.765625 34.90625 28.71875 34.90625 
L 20.21875 34.90625 
L 20.21875 43.015625 
L 29.109375 43.015625 
Q 36.375 43.015625 40.234375 45.921875 
Q 44.09375 48.828125 44.09375 54.296875 
Q 44.09375 59.90625 40.109375 62.90625 
Q 36.140625 65.921875 28.71875 65.921875 
Q 24.65625 65.921875 20.015625 65.03125 
Q 15.375 64.15625 9.8125 62.3125 
L 9.8125 71.09375 
Q 15.4375 72.65625 20.34375 73.4375 
Q 25.25 74.21875 29.59375 74.21875 
Q 40.828125 74.21875 47.359375 69.109375 
Q 53.90625 64.015625 53.90625 55.328125 
Q 53.90625 49.265625 50.4375 45.09375 
Q 46.96875 40.921875 40.578125 39.3125 
z
" id="DejaVuSans-51"/>
      </defs>
      <g transform="translate(48.490865 214.22996)scale(0.1 -0.1)">
       <use xlink:href="#DejaVuSans-51"/>
      </g>
     </g>
    </g>
    <g id="text_36">
     <!-- r0 -->
     <defs>
      <path d="M 41.109375 46.296875 
Q 39.59375 47.171875 37.8125 47.578125 
Q 36.03125 48 33.890625 48 
Q 26.265625 48 22.1875 43.046875 
Q 18.109375 38.09375 18.109375 28.8125 
L 18.109375 0 
L 9.078125 0 
L 9.078125 54.6875 
L 18.109375 54.6875 
L 18.109375 46.1875 
Q 20.953125 51.171875 25.484375 53.578125 
Q 30.03125 56 36.53125 56 
Q 37.453125 56 38.578125 55.875 
Q 39.703125 55.765625 41.0625 55.515625 
z
" id="DejaVuSans-114"/>
     </defs>
     <g transform="translate(42.411178 257.681656)rotate(-90)scale(0.1 -0.1)">
      <use xlink:href="#DejaVuSans-114"/>
      <use x="41.113281" xlink:href="#DejaVuSans-48"/>
     </g>
    </g>
   </g>
   <g id="line2d_31">
    <path clip-path="url(#pa2980fb27e)" d="M 79.850928 198.082599 
L 83.214959 211.010007 
L 86.578989 217.571891 
L 89.94302 231.967442 
L 93.307051 232.303259 
L 96.671081 231.155723 
L 100.035112 228.145699 
L 103.399142 224.621298 
L 106.763173 223.005147 
L 110.127203 224.37444 
L 113.491234 226.801573 
L 116.855264 231.21657 
L 120.219295 236.640103 
L 123.583325 243.176979 
L 126.947356 250.106892 
L 130.311387 256.668923 
L 133.675417 262.623231 
L 137.039448 268.214359 
L 140.403478 272.582957 
L 143.767509 275.871679 
L 147.131539 277.408636 
L 150.49557 277.466855 
L 153.8596 276.712166 
L 157.223631 275.138042 
L 160.587661 273.369472 
L 163.951692 272.063246 
L 167.315723 270.844202 
L 170.679753 270.539054 
L 174.043784 271.045595 
L 177.407814 272.213355 
L 180.771845 274.07998 
L 184.135875 276.098329 
L 187.499906 278.184915 
L 190.863936 281.04687 
L 194.227967 283.931113 
L 197.591997 286.859528 
L 200.956028 289.343854 
L 204.320059 291.634854 
L 207.684089 293.783778 
L 211.04812 295.658032 
L 214.41215 296.080802 
L 217.776181 295.614505 
L 221.140211 294.099914 
L 224.504242 292.45818 
L 227.868272 289.928933 
L 231.232303 287.171382 
L 234.596333 284.346313 
L 237.960364 282.832926 
L 241.324395 282.25556 
L 244.688425 282.471767 
L 248.052456 282.77594 
L 251.416486 283.717797 
L 254.780517 284.522343 
L 258.144547 285.518583 
L 261.508578 285.825462 
L 264.872608 285.624369 
L 268.236639 285.424505 
L 271.600669 285.541237 
L 274.9647 286.229775 
L 278.32873 287.930468 
L 281.692761 289.974905 
L 285.056792 292.115087 
L 288.420822 294.165137 
L 291.784853 295.144782 
L 295.148883 294.775728 
L 298.512914 292.169513 
L 301.876944 287.583148 
L 305.240975 281.647421 
L 308.605005 276.685559 
L 311.969036 273.06899 
L 315.333066 271.653401 
L 318.697097 272.111355 
L 322.061128 274.365983 
L 325.425158 277.387104 
L 328.789189 281.691328 
L 332.153219 285.589596 
L 335.51725 288.880801 
L 338.88128 291.089665 
L 342.245311 292.371098 
L 345.609341 292.941465 
L 348.973372 293.990744 
L 352.337402 294.296802 
L 355.701433 294.685952 
L 359.065464 295.490084 
L 362.429494 296.990127 
L 365.793525 298.954533 
L 369.157555 300.982393 
L 372.521586 301.756386 
L 375.885616 302.580934 
L 379.249647 303.455144 
L 382.613677 304.393931 
L 385.977708 304.96524 
L 389.341738 305.394061 
L 392.705769 305.668031 
L 396.0698 306.548522 
L 399.43383 306.807276 
L 402.797861 305.77507 
L 406.161891 302.953064 
L 409.525922 299.382077 
L 412.889952 294.680835 
L 416.253983 289.95221 
L 419.618013 285.693449 
L 422.982044 283.147435 
L 426.346074 282.038945 
L 429.710105 282.647486 
L 433.074136 288.119328 
L 436.438166 288.971658 
L 439.802197 290.566844 
" style="fill:none;stroke:#ff0000;stroke-linecap:square;stroke-width:1.5;"/>
   </g>
   <g id="patch_229">
    <path d="M 61.853365 312.24351 
L 61.853365 192.646365 
" style="fill:none;stroke:#000000;stroke-linecap:square;stroke-linejoin:miter;stroke-width:0.8;"/>
   </g>
   <g id="patch_230">
    <path d="M 457.79976 312.24351 
L 457.79976 192.646365 
" style="fill:none;stroke:#000000;stroke-linecap:square;stroke-linejoin:miter;stroke-width:0.8;"/>
   </g>
   <g id="patch_231">
    <path d="M 61.853365 312.24351 
L 457.79976 312.24351 
" style="fill:none;stroke:#000000;stroke-linecap:square;stroke-linejoin:miter;stroke-width:0.8;"/>
   </g>
   <g id="patch_232">
    <path d="M 61.853365 192.646365 
L 457.79976 192.646365 
" style="fill:none;stroke:#000000;stroke-linecap:square;stroke-linejoin:miter;stroke-width:0.8;"/>
   </g>
   <g id="text_37">
    <!-- r0 aproximado - RJ -->
    <defs>
     <path d="M 18.109375 8.203125 
L 18.109375 -20.796875 
L 9.078125 -20.796875 
L 9.078125 54.6875 
L 18.109375 54.6875 
L 18.109375 46.390625 
Q 20.953125 51.265625 25.265625 53.625 
Q 29.59375 56 35.59375 56 
Q 45.5625 56 51.78125 48.09375 
Q 58.015625 40.1875 58.015625 27.296875 
Q 58.015625 14.40625 51.78125 6.484375 
Q 45.5625 -1.421875 35.59375 -1.421875 
Q 29.59375 -1.421875 25.265625 0.953125 
Q 20.953125 3.328125 18.109375 8.203125 
z
M 48.6875 27.296875 
Q 48.6875 37.203125 44.609375 42.84375 
Q 40.53125 48.484375 33.40625 48.484375 
Q 26.265625 48.484375 22.1875 42.84375 
Q 18.109375 37.203125 18.109375 27.296875 
Q 18.109375 17.390625 22.1875 11.75 
Q 26.265625 6.109375 33.40625 6.109375 
Q 40.53125 6.109375 44.609375 11.75 
Q 48.6875 17.390625 48.6875 27.296875 
z
" id="DejaVuSans-112"/>
     <path d="M 54.890625 54.6875 
L 35.109375 28.078125 
L 55.90625 0 
L 45.3125 0 
L 29.390625 21.484375 
L 13.484375 0 
L 2.875 0 
L 24.125 28.609375 
L 4.6875 54.6875 
L 15.28125 54.6875 
L 29.78125 35.203125 
L 44.28125 54.6875 
z
" id="DejaVuSans-120"/>
    </defs>
    <g transform="translate(204.197188 186.646365)scale(0.12 -0.12)">
     <use xlink:href="#DejaVuSans-114"/>
     <use x="41.113281" xlink:href="#DejaVuSans-48"/>
     <use x="104.736328" xlink:href="#DejaVuSans-32"/>
     <use x="136.523438" xlink:href="#DejaVuSans-97"/>
     <use x="197.802734" xlink:href="#DejaVuSans-112"/>
     <use x="261.279297" xlink:href="#DejaVuSans-114"/>
     <use x="300.142578" xlink:href="#DejaVuSans-111"/>
     <use x="358.199219" xlink:href="#DejaVuSans-120"/>
     <use x="417.378906" xlink:href="#DejaVuSans-105"/>
     <use x="445.162109" xlink:href="#DejaVuSans-109"/>
     <use x="542.574219" xlink:href="#DejaVuSans-97"/>
     <use x="603.853516" xlink:href="#DejaVuSans-100"/>
     <use x="667.330078" xlink:href="#DejaVuSans-111"/>
     <use x="728.511719" xlink:href="#DejaVuSans-32"/>
     <use x="760.298828" xlink:href="#DejaVuSans-45"/>
     <use x="796.382812" xlink:href="#DejaVuSans-32"/>
     <use x="828.169922" xlink:href="#DejaVuSans-82"/>
     <use x="897.652344" xlink:href="#DejaVuSans-74"/>
    </g>
   </g>
  </g>
 </g>
 <defs>
  <clipPath id="p077512949d">
   <rect height="119.597145" width="169.604895" x="61.853365" y="18.118365"/>
  </clipPath>
  <clipPath id="p176ff8a85e">
   <rect height="119.597145" width="169.604895" x="288.194865" y="18.118365"/>
  </clipPath>
  <clipPath id="pa2980fb27e">
   <rect height="119.597145" width="395.946395" x="61.853365" y="192.646365"/>
  </clipPath>
 </defs>
</svg>
