<?xml version="1.0" encoding="utf-8" standalone="no"?>
<!DOCTYPE svg PUBLIC "-//W3C//DTD SVG 1.1//EN"
  "http://www.w3.org/Graphics/SVG/1.1/DTD/svg11.dtd">
<!-- Created with matplotlib (https://matplotlib.org/) -->
<svg height="345.6pt" version="1.1" viewBox="0 0 460.8 345.6" width="460.8pt" xmlns="http://www.w3.org/2000/svg" xmlns:xlink="http://www.w3.org/1999/xlink">
 <defs>
  <style type="text/css">
*{stroke-linecap:butt;stroke-linejoin:round;}
  </style>
 </defs>
 <g id="figure_1">
  <g id="patch_1">
   <path d="M 0 345.6 
L 460.8 345.6 
L 460.8 0 
L 0 0 
z
" style="fill:#ffffff;"/>
  </g>
  <g id="axes_1">
   <g id="patch_2">
    <path d="M 49.266098 325.921635 
L 136.285093 325.921635 
L 136.285093 18.118365 
L 49.266098 18.118365 
z
" style="fill:#ffffff;"/>
   </g>
   <g id="patch_3">
    <path clip-path="url(#p5807185840)" d="M 53.221507 325.921635 
L 53.80858 325.921635 
L 53.80858 325.918636 
L 53.221507 325.918636 
z
" style="fill:#1f77b4;"/>
   </g>
   <g id="patch_4">
    <path clip-path="url(#p5807185840)" d="M 53.955349 325.921635 
L 54.542422 325.921635 
L 54.542422 325.915637 
L 53.955349 325.915637 
z
" style="fill:#1f77b4;"/>
   </g>
   <g id="patch_5">
    <path clip-path="url(#p5807185840)" d="M 54.689191 325.921635 
L 55.276264 325.921635 
L 55.276264 325.912638 
L 54.689191 325.912638 
z
" style="fill:#1f77b4;"/>
   </g>
   <g id="patch_6">
    <path clip-path="url(#p5807185840)" d="M 55.423033 325.921635 
L 56.010107 325.921635 
L 56.010107 325.912638 
L 55.423033 325.912638 
z
" style="fill:#1f77b4;"/>
   </g>
   <g id="patch_7">
    <path clip-path="url(#p5807185840)" d="M 56.156875 325.921635 
L 56.743949 325.921635 
L 56.743949 325.897642 
L 56.156875 325.897642 
z
" style="fill:#1f77b4;"/>
   </g>
   <g id="patch_8">
    <path clip-path="url(#p5807185840)" d="M 56.890717 325.921635 
L 57.477791 325.921635 
L 57.477791 325.882647 
L 56.890717 325.882647 
z
" style="fill:#1f77b4;"/>
   </g>
   <g id="patch_9">
    <path clip-path="url(#p5807185840)" d="M 57.624559 325.921635 
L 58.211633 325.921635 
L 58.211633 325.873649 
L 57.624559 325.873649 
z
" style="fill:#1f77b4;"/>
   </g>
   <g id="patch_10">
    <path clip-path="url(#p5807185840)" d="M 58.358401 325.921635 
L 58.945475 325.921635 
L 58.945475 325.873649 
L 58.358401 325.873649 
z
" style="fill:#1f77b4;"/>
   </g>
   <g id="patch_11">
    <path clip-path="url(#p5807185840)" d="M 59.092243 325.921635 
L 59.679317 325.921635 
L 59.679317 325.855655 
L 59.092243 325.855655 
z
" style="fill:#1f77b4;"/>
   </g>
   <g id="patch_12">
    <path clip-path="url(#p5807185840)" d="M 59.826085 325.921635 
L 60.413159 325.921635 
L 60.413159 325.849656 
L 59.826085 325.849656 
z
" style="fill:#1f77b4;"/>
   </g>
   <g id="patch_13">
    <path clip-path="url(#p5807185840)" d="M 60.559927 325.921635 
L 61.147001 325.921635 
L 61.147001 325.828663 
L 60.559927 325.828663 
z
" style="fill:#1f77b4;"/>
   </g>
   <g id="patch_14">
    <path clip-path="url(#p5807185840)" d="M 61.29377 325.921635 
L 61.880843 325.921635 
L 61.880843 325.822664 
L 61.29377 325.822664 
z
" style="fill:#1f77b4;"/>
   </g>
   <g id="patch_15">
    <path clip-path="url(#p5807185840)" d="M 62.027612 325.921635 
L 62.614685 325.921635 
L 62.614685 325.786675 
L 62.027612 325.786675 
z
" style="fill:#1f77b4;"/>
   </g>
   <g id="patch_16">
    <path clip-path="url(#p5807185840)" d="M 62.761454 325.921635 
L 63.348527 325.921635 
L 63.348527 325.726693 
L 62.761454 325.726693 
z
" style="fill:#1f77b4;"/>
   </g>
   <g id="patch_17">
    <path clip-path="url(#p5807185840)" d="M 63.495296 325.921635 
L 64.08237 325.921635 
L 64.08237 325.594732 
L 63.495296 325.594732 
z
" style="fill:#1f77b4;"/>
   </g>
   <g id="patch_18">
    <path clip-path="url(#p5807185840)" d="M 64.229138 325.921635 
L 64.816212 325.921635 
L 64.816212 325.564741 
L 64.229138 325.564741 
z
" style="fill:#1f77b4;"/>
   </g>
   <g id="patch_19">
    <path clip-path="url(#p5807185840)" d="M 64.96298 325.921635 
L 65.550054 325.921635 
L 65.550054 325.363801 
L 64.96298 325.363801 
z
" style="fill:#1f77b4;"/>
   </g>
   <g id="patch_20">
    <path clip-path="url(#p5807185840)" d="M 65.696822 325.921635 
L 66.283896 325.921635 
L 66.283896 325.222843 
L 65.696822 325.222843 
z
" style="fill:#1f77b4;"/>
   </g>
   <g id="patch_21">
    <path clip-path="url(#p5807185840)" d="M 66.430664 325.921635 
L 67.017738 325.921635 
L 67.017738 325.006907 
L 66.430664 325.006907 
z
" style="fill:#1f77b4;"/>
   </g>
   <g id="patch_22">
    <path clip-path="url(#p5807185840)" d="M 67.164506 325.921635 
L 67.75158 325.921635 
L 67.75158 324.811965 
L 67.164506 324.811965 
z
" style="fill:#1f77b4;"/>
   </g>
   <g id="patch_23">
    <path clip-path="url(#p5807185840)" d="M 67.898348 325.921635 
L 68.485422 325.921635 
L 68.485422 324.65901 
L 67.898348 324.65901 
z
" style="fill:#1f77b4;"/>
   </g>
   <g id="patch_24">
    <path clip-path="url(#p5807185840)" d="M 68.632191 325.921635 
L 69.219264 325.921635 
L 69.219264 324.443075 
L 68.632191 324.443075 
z
" style="fill:#1f77b4;"/>
   </g>
   <g id="patch_25">
    <path clip-path="url(#p5807185840)" d="M 69.366033 325.921635 
L 69.953106 325.921635 
L 69.953106 324.248133 
L 69.366033 324.248133 
z
" style="fill:#1f77b4;"/>
   </g>
   <g id="patch_26">
    <path clip-path="url(#p5807185840)" d="M 70.099875 325.921635 
L 70.686948 325.921635 
L 70.686948 324.12217 
L 70.099875 324.12217 
z
" style="fill:#1f77b4;"/>
   </g>
   <g id="patch_27">
    <path clip-path="url(#p5807185840)" d="M 70.833717 325.921635 
L 71.420791 325.921635 
L 71.420791 323.951221 
L 70.833717 323.951221 
z
" style="fill:#1f77b4;"/>
   </g>
   <g id="patch_28">
    <path clip-path="url(#p5807185840)" d="M 71.567559 325.921635 
L 72.154633 325.921635 
L 72.154633 323.798266 
L 71.567559 323.798266 
z
" style="fill:#1f77b4;"/>
   </g>
   <g id="patch_29">
    <path clip-path="url(#p5807185840)" d="M 72.301401 325.921635 
L 72.888475 325.921635 
L 72.888475 323.426377 
L 72.301401 323.426377 
z
" style="fill:#1f77b4;"/>
   </g>
   <g id="patch_30">
    <path clip-path="url(#p5807185840)" d="M 73.035243 325.921635 
L 73.622317 325.921635 
L 73.622317 322.94652 
L 73.035243 322.94652 
z
" style="fill:#1f77b4;"/>
   </g>
   <g id="patch_31">
    <path clip-path="url(#p5807185840)" d="M 73.769085 325.921635 
L 74.356159 325.921635 
L 74.356159 322.700593 
L 73.769085 322.700593 
z
" style="fill:#1f77b4;"/>
   </g>
   <g id="patch_32">
    <path clip-path="url(#p5807185840)" d="M 74.502927 325.921635 
L 75.090001 325.921635 
L 75.090001 322.184746 
L 74.502927 322.184746 
z
" style="fill:#1f77b4;"/>
   </g>
   <g id="patch_33">
    <path clip-path="url(#p5807185840)" d="M 75.236769 325.921635 
L 75.823843 325.921635 
L 75.823843 321.740878 
L 75.236769 321.740878 
z
" style="fill:#1f77b4;"/>
   </g>
   <g id="patch_34">
    <path clip-path="url(#p5807185840)" d="M 75.970612 325.921635 
L 76.557685 325.921635 
L 76.557685 321.539938 
L 75.970612 321.539938 
z
" style="fill:#1f77b4;"/>
   </g>
   <g id="patch_35">
    <path clip-path="url(#p5807185840)" d="M 76.704454 325.921635 
L 77.291527 325.921635 
L 77.291527 320.85914 
L 76.704454 320.85914 
z
" style="fill:#1f77b4;"/>
   </g>
   <g id="patch_36">
    <path clip-path="url(#p5807185840)" d="M 77.438296 325.921635 
L 78.025369 325.921635 
L 78.025369 320.109363 
L 77.438296 320.109363 
z
" style="fill:#1f77b4;"/>
   </g>
   <g id="patch_37">
    <path clip-path="url(#p5807185840)" d="M 78.172138 325.921635 
L 78.759211 325.921635 
L 78.759211 319.275611 
L 78.172138 319.275611 
z
" style="fill:#1f77b4;"/>
   </g>
   <g id="patch_38">
    <path clip-path="url(#p5807185840)" d="M 78.90598 325.921635 
L 79.493054 325.921635 
L 79.493054 318.531832 
L 78.90598 318.531832 
z
" style="fill:#1f77b4;"/>
   </g>
   <g id="patch_39">
    <path clip-path="url(#p5807185840)" d="M 79.639822 325.921635 
L 80.226896 325.921635 
L 80.226896 318.10296 
L 79.639822 318.10296 
z
" style="fill:#1f77b4;"/>
   </g>
   <g id="patch_40">
    <path clip-path="url(#p5807185840)" d="M 80.373664 325.921635 
L 80.960738 325.921635 
L 80.960738 317.359181 
L 80.373664 317.359181 
z
" style="fill:#1f77b4;"/>
   </g>
   <g id="patch_41">
    <path clip-path="url(#p5807185840)" d="M 81.107506 325.921635 
L 81.69458 325.921635 
L 81.69458 316.231516 
L 81.107506 316.231516 
z
" style="fill:#1f77b4;"/>
   </g>
   <g id="patch_42">
    <path clip-path="url(#p5807185840)" d="M 81.841348 325.921635 
L 82.428422 325.921635 
L 82.428422 315.694676 
L 81.841348 315.694676 
z
" style="fill:#1f77b4;"/>
   </g>
   <g id="patch_43">
    <path clip-path="url(#p5807185840)" d="M 82.57519 325.921635 
L 83.162264 325.921635 
L 83.162264 314.695973 
L 82.57519 314.695973 
z
" style="fill:#1f77b4;"/>
   </g>
   <g id="patch_44">
    <path clip-path="url(#p5807185840)" d="M 83.309032 325.921635 
L 83.896106 325.921635 
L 83.896106 314.093152 
L 83.309032 314.093152 
z
" style="fill:#1f77b4;"/>
   </g>
   <g id="patch_45">
    <path clip-path="url(#p5807185840)" d="M 84.042875 325.921635 
L 84.629948 325.921635 
L 84.629948 312.878513 
L 84.042875 312.878513 
z
" style="fill:#1f77b4;"/>
   </g>
   <g id="patch_46">
    <path clip-path="url(#p5807185840)" d="M 84.776717 325.921635 
L 85.36379 325.921635 
L 85.36379 312.296686 
L 84.776717 312.296686 
z
" style="fill:#1f77b4;"/>
   </g>
   <g id="patch_47">
    <path clip-path="url(#p5807185840)" d="M 85.510559 325.921635 
L 86.097632 325.921635 
L 86.097632 311.630884 
L 85.510559 311.630884 
z
" style="fill:#1f77b4;"/>
   </g>
   <g id="patch_48">
    <path clip-path="url(#p5807185840)" d="M 86.244401 325.921635 
L 86.831475 325.921635 
L 86.831475 311.229004 
L 86.244401 311.229004 
z
" style="fill:#1f77b4;"/>
   </g>
   <g id="patch_49">
    <path clip-path="url(#p5807185840)" d="M 86.978243 325.921635 
L 87.565317 325.921635 
L 87.565317 310.008367 
L 86.978243 310.008367 
z
" style="fill:#1f77b4;"/>
   </g>
   <g id="patch_50">
    <path clip-path="url(#p5807185840)" d="M 87.712085 325.921635 
L 88.299159 325.921635 
L 88.299159 309.270586 
L 87.712085 309.270586 
z
" style="fill:#1f77b4;"/>
   </g>
   <g id="patch_51">
    <path clip-path="url(#p5807185840)" d="M 88.445927 325.921635 
L 89.033001 325.921635 
L 89.033001 307.411139 
L 88.445927 307.411139 
z
" style="fill:#1f77b4;"/>
   </g>
   <g id="patch_52">
    <path clip-path="url(#p5807185840)" d="M 89.179769 325.921635 
L 89.766843 325.921635 
L 89.766843 307.081237 
L 89.179769 307.081237 
z
" style="fill:#1f77b4;"/>
   </g>
   <g id="patch_53">
    <path clip-path="url(#p5807185840)" d="M 89.913611 325.921635 
L 90.500685 325.921635 
L 90.500685 305.443724 
L 89.913611 305.443724 
z
" style="fill:#1f77b4;"/>
   </g>
   <g id="patch_54">
    <path clip-path="url(#p5807185840)" d="M 90.647453 325.921635 
L 91.234527 325.921635 
L 91.234527 304.594976 
L 90.647453 304.594976 
z
" style="fill:#1f77b4;"/>
   </g>
   <g id="patch_55">
    <path clip-path="url(#p5807185840)" d="M 91.381296 325.921635 
L 91.968369 325.921635 
L 91.968369 302.096719 
L 91.381296 302.096719 
z
" style="fill:#1f77b4;"/>
   </g>
   <g id="patch_56">
    <path clip-path="url(#p5807185840)" d="M 92.115138 325.921635 
L 92.702211 325.921635 
L 92.702211 300.417218 
L 92.115138 300.417218 
z
" style="fill:#1f77b4;"/>
   </g>
   <g id="patch_57">
    <path clip-path="url(#p5807185840)" d="M 92.84898 325.921635 
L 93.436053 325.921635 
L 93.436053 299.322544 
L 92.84898 299.322544 
z
" style="fill:#1f77b4;"/>
   </g>
   <g id="patch_58">
    <path clip-path="url(#p5807185840)" d="M 93.582822 325.921635 
L 94.169895 325.921635 
L 94.169895 297.571065 
L 93.582822 297.571065 
z
" style="fill:#1f77b4;"/>
   </g>
   <g id="patch_59">
    <path clip-path="url(#p5807185840)" d="M 94.316664 325.921635 
L 94.903738 325.921635 
L 94.903738 295.4327 
L 94.316664 295.4327 
z
" style="fill:#1f77b4;"/>
   </g>
   <g id="patch_60">
    <path clip-path="url(#p5807185840)" d="M 95.050506 325.921635 
L 95.63758 325.921635 
L 95.63758 294.293039 
L 95.050506 294.293039 
z
" style="fill:#1f77b4;"/>
   </g>
   <g id="patch_61">
    <path clip-path="url(#p5807185840)" d="M 95.784348 325.921635 
L 96.371422 325.921635 
L 96.371422 292.514568 
L 95.784348 292.514568 
z
" style="fill:#1f77b4;"/>
   </g>
   <g id="patch_62">
    <path clip-path="url(#p5807185840)" d="M 96.51819 325.921635 
L 97.105264 325.921635 
L 97.105264 290.769087 
L 96.51819 290.769087 
z
" style="fill:#1f77b4;"/>
   </g>
   <g id="patch_63">
    <path clip-path="url(#p5807185840)" d="M 97.252032 325.921635 
L 97.839106 325.921635 
L 97.839106 288.759684 
L 97.252032 288.759684 
z
" style="fill:#1f77b4;"/>
   </g>
   <g id="patch_64">
    <path clip-path="url(#p5807185840)" d="M 97.985874 325.921635 
L 98.572948 325.921635 
L 98.572948 286.048491 
L 97.985874 286.048491 
z
" style="fill:#1f77b4;"/>
   </g>
   <g id="patch_65">
    <path clip-path="url(#p5807185840)" d="M 98.719716 325.921635 
L 99.30679 325.921635 
L 99.30679 283.466258 
L 98.719716 283.466258 
z
" style="fill:#1f77b4;"/>
   </g>
   <g id="patch_66">
    <path clip-path="url(#p5807185840)" d="M 99.453559 325.921635 
L 100.040632 325.921635 
L 100.040632 278.712672 
L 99.453559 278.712672 
z
" style="fill:#1f77b4;"/>
   </g>
   <g id="patch_67">
    <path clip-path="url(#p5807185840)" d="M 100.187401 325.921635 
L 100.774474 325.921635 
L 100.774474 275.149731 
L 100.187401 275.149731 
z
" style="fill:#1f77b4;"/>
   </g>
   <g id="patch_68">
    <path clip-path="url(#p5807185840)" d="M 100.921243 325.921635 
L 101.508316 325.921635 
L 101.508316 274.75085 
L 100.921243 274.75085 
z
" style="fill:#1f77b4;"/>
   </g>
   <g id="patch_69">
    <path clip-path="url(#p5807185840)" d="M 101.655085 325.921635 
L 102.242159 325.921635 
L 102.242159 272.120632 
L 101.655085 272.120632 
z
" style="fill:#1f77b4;"/>
   </g>
   <g id="patch_70">
    <path clip-path="url(#p5807185840)" d="M 102.388927 325.921635 
L 102.976001 325.921635 
L 102.976001 270.48012 
L 102.388927 270.48012 
z
" style="fill:#1f77b4;"/>
   </g>
   <g id="patch_71">
    <path clip-path="url(#p5807185840)" d="M 103.122769 325.921635 
L 103.709843 325.921635 
L 103.709843 269.754335 
L 103.122769 269.754335 
z
" style="fill:#1f77b4;"/>
   </g>
   <g id="patch_72">
    <path clip-path="url(#p5807185840)" d="M 103.856611 325.921635 
L 104.443685 325.921635 
L 104.443685 267.537994 
L 103.856611 267.537994 
z
" style="fill:#1f77b4;"/>
   </g>
   <g id="patch_73">
    <path clip-path="url(#p5807185840)" d="M 104.590453 325.921635 
L 105.177527 325.921635 
L 105.177527 265.978458 
L 104.590453 265.978458 
z
" style="fill:#1f77b4;"/>
   </g>
   <g id="patch_74">
    <path clip-path="url(#p5807185840)" d="M 105.324295 325.921635 
L 105.911369 325.921635 
L 105.911369 261.137897 
L 105.324295 261.137897 
z
" style="fill:#1f77b4;"/>
   </g>
   <g id="patch_75">
    <path clip-path="url(#p5807185840)" d="M 106.058137 325.921635 
L 106.645211 325.921635 
L 106.645211 259.227465 
L 106.058137 259.227465 
z
" style="fill:#1f77b4;"/>
   </g>
   <g id="patch_76">
    <path clip-path="url(#p5807185840)" d="M 106.79198 325.921635 
L 107.379053 325.921635 
L 107.379053 245.950413 
L 106.79198 245.950413 
z
" style="fill:#1f77b4;"/>
   </g>
   <g id="patch_77">
    <path clip-path="url(#p5807185840)" d="M 107.525822 325.921635 
L 108.112895 325.921635 
L 108.112895 242.53143 
L 107.525822 242.53143 
z
" style="fill:#1f77b4;"/>
   </g>
   <g id="patch_78">
    <path clip-path="url(#p5807185840)" d="M 108.259664 325.921635 
L 108.846737 325.921635 
L 108.846737 234.832719 
L 108.259664 234.832719 
z
" style="fill:#1f77b4;"/>
   </g>
   <g id="patch_79">
    <path clip-path="url(#p5807185840)" d="M 108.993506 325.921635 
L 109.580579 325.921635 
L 109.580579 229.68325 
L 108.993506 229.68325 
z
" style="fill:#1f77b4;"/>
   </g>
   <g id="patch_80">
    <path clip-path="url(#p5807185840)" d="M 109.727348 325.921635 
L 110.314422 325.921635 
L 110.314422 225.184587 
L 109.727348 225.184587 
z
" style="fill:#1f77b4;"/>
   </g>
   <g id="patch_81">
    <path clip-path="url(#p5807185840)" d="M 110.46119 325.921635 
L 111.048264 325.921635 
L 111.048264 222.353429 
L 110.46119 222.353429 
z
" style="fill:#1f77b4;"/>
   </g>
   <g id="patch_82">
    <path clip-path="url(#p5807185840)" d="M 111.195032 325.921635 
L 111.782106 325.921635 
L 111.782106 212.219442 
L 111.195032 212.219442 
z
" style="fill:#1f77b4;"/>
   </g>
   <g id="patch_83">
    <path clip-path="url(#p5807185840)" d="M 111.928874 325.921635 
L 112.515948 325.921635 
L 112.515948 208.062678 
L 111.928874 208.062678 
z
" style="fill:#1f77b4;"/>
   </g>
   <g id="patch_84">
    <path clip-path="url(#p5807185840)" d="M 112.662716 325.921635 
L 113.24979 325.921635 
L 113.24979 205.885326 
L 112.662716 205.885326 
z
" style="fill:#1f77b4;"/>
   </g>
   <g id="patch_85">
    <path clip-path="url(#p5807185840)" d="M 113.396558 325.921635 
L 113.983632 325.921635 
L 113.983632 198.765443 
L 113.396558 198.765443 
z
" style="fill:#1f77b4;"/>
   </g>
   <g id="patch_86">
    <path clip-path="url(#p5807185840)" d="M 114.1304 325.921635 
L 114.717474 325.921635 
L 114.717474 191.303661 
L 114.1304 191.303661 
z
" style="fill:#1f77b4;"/>
   </g>
   <g id="patch_87">
    <path clip-path="url(#p5807185840)" d="M 114.864243 325.921635 
L 115.451316 325.921635 
L 115.451316 182.105396 
L 114.864243 182.105396 
z
" style="fill:#1f77b4;"/>
   </g>
   <g id="patch_88">
    <path clip-path="url(#p5807185840)" d="M 115.598085 325.921635 
L 116.185158 325.921635 
L 116.185158 168.70838 
L 115.598085 168.70838 
z
" style="fill:#1f77b4;"/>
   </g>
   <g id="patch_89">
    <path clip-path="url(#p5807185840)" d="M 116.331927 325.921635 
L 116.919 325.921635 
L 116.919 165.805243 
L 116.331927 165.805243 
z
" style="fill:#1f77b4;"/>
   </g>
   <g id="patch_90">
    <path clip-path="url(#p5807185840)" d="M 117.065769 325.921635 
L 117.652843 325.921635 
L 117.652843 162.380261 
L 117.065769 162.380261 
z
" style="fill:#1f77b4;"/>
   </g>
   <g id="patch_91">
    <path clip-path="url(#p5807185840)" d="M 117.799611 325.921635 
L 118.386685 325.921635 
L 118.386685 155.776225 
L 117.799611 155.776225 
z
" style="fill:#1f77b4;"/>
   </g>
   <g id="patch_92">
    <path clip-path="url(#p5807185840)" d="M 118.533453 325.921635 
L 119.120527 325.921635 
L 119.120527 148.254461 
L 118.533453 148.254461 
z
" style="fill:#1f77b4;"/>
   </g>
   <g id="patch_93">
    <path clip-path="url(#p5807185840)" d="M 119.267295 325.921635 
L 119.854369 325.921635 
L 119.854369 143.17997 
L 119.267295 143.17997 
z
" style="fill:#1f77b4;"/>
   </g>
   <g id="patch_94">
    <path clip-path="url(#p5807185840)" d="M 120.001137 325.921635 
L 120.588211 325.921635 
L 120.588211 136.779873 
L 120.001137 136.779873 
z
" style="fill:#1f77b4;"/>
   </g>
   <g id="patch_95">
    <path clip-path="url(#p5807185840)" d="M 120.734979 325.921635 
L 121.322053 325.921635 
L 121.322053 132.380181 
L 120.734979 132.380181 
z
" style="fill:#1f77b4;"/>
   </g>
   <g id="patch_96">
    <path clip-path="url(#p5807185840)" d="M 121.468821 325.921635 
L 122.055895 325.921635 
L 122.055895 122.714055 
L 121.468821 122.714055 
z
" style="fill:#1f77b4;"/>
   </g>
   <g id="patch_97">
    <path clip-path="url(#p5807185840)" d="M 122.202664 325.921635 
L 122.789737 325.921635 
L 122.789737 117.48661 
L 122.202664 117.48661 
z
" style="fill:#1f77b4;"/>
   </g>
   <g id="patch_98">
    <path clip-path="url(#p5807185840)" d="M 122.936506 325.921635 
L 123.523579 325.921635 
L 123.523579 107.049713 
L 122.936506 107.049713 
z
" style="fill:#1f77b4;"/>
   </g>
   <g id="patch_99">
    <path clip-path="url(#p5807185840)" d="M 123.670348 325.921635 
L 124.257421 325.921635 
L 124.257421 102.868956 
L 123.670348 102.868956 
z
" style="fill:#1f77b4;"/>
   </g>
   <g id="patch_100">
    <path clip-path="url(#p5807185840)" d="M 124.40419 325.921635 
L 124.991263 325.921635 
L 124.991263 98.664206 
L 124.40419 98.664206 
z
" style="fill:#1f77b4;"/>
   </g>
   <g id="patch_101">
    <path clip-path="url(#p5807185840)" d="M 125.138032 325.921635 
L 125.725106 325.921635 
L 125.725106 92.638998 
L 125.138032 92.638998 
z
" style="fill:#1f77b4;"/>
   </g>
   <g id="patch_102">
    <path clip-path="url(#p5807185840)" d="M 125.871874 325.921635 
L 126.458948 325.921635 
L 126.458948 89.483936 
L 125.871874 89.483936 
z
" style="fill:#1f77b4;"/>
   </g>
   <g id="patch_103">
    <path clip-path="url(#p5807185840)" d="M 126.605716 325.921635 
L 127.19279 325.921635 
L 127.19279 87.276592 
L 126.605716 87.276592 
z
" style="fill:#1f77b4;"/>
   </g>
   <g id="patch_104">
    <path clip-path="url(#p5807185840)" d="M 127.339558 325.921635 
L 127.926632 325.921635 
L 127.926632 83.155817 
L 127.339558 83.155817 
z
" style="fill:#1f77b4;"/>
   </g>
   <g id="patch_105">
    <path clip-path="url(#p5807185840)" d="M 128.0734 325.921635 
L 128.660474 325.921635 
L 128.660474 75.966955 
L 128.0734 75.966955 
z
" style="fill:#1f77b4;"/>
   </g>
   <g id="patch_106">
    <path clip-path="url(#p5807185840)" d="M 128.807242 325.921635 
L 129.394316 325.921635 
L 129.394316 65.110183 
L 128.807242 65.110183 
z
" style="fill:#1f77b4;"/>
   </g>
   <g id="patch_107">
    <path clip-path="url(#p5807185840)" d="M 129.541084 325.921635 
L 130.128158 325.921635 
L 130.128158 64.048498 
L 129.541084 64.048498 
z
" style="fill:#1f77b4;"/>
   </g>
   <g id="patch_108">
    <path clip-path="url(#p5807185840)" d="M 130.274927 325.921635 
L 130.862 325.921635 
L 130.862 45.870903 
L 130.274927 45.870903 
z
" style="fill:#1f77b4;"/>
   </g>
   <g id="patch_109">
    <path clip-path="url(#p5807185840)" d="M 131.008769 325.921635 
L 131.595842 325.921635 
L 131.595842 39.395828 
L 131.008769 39.395828 
z
" style="fill:#1f77b4;"/>
   </g>
   <g id="patch_110">
    <path clip-path="url(#p5807185840)" d="M 131.742611 325.921635 
L 132.329684 325.921635 
L 132.329684 37.60836 
L 131.742611 37.60836 
z
" style="fill:#1f77b4;"/>
   </g>
   <g id="matplotlib.axis_1">
    <g id="xtick_1">
     <g id="line2d_1">
      <defs>
       <path d="M 0 0 
L 0 3.5 
" id="m6b0d997d88" style="stroke:#000000;stroke-width:0.8;"/>
      </defs>
      <g>
       <use style="stroke:#000000;stroke-width:0.8;" x="53.515043" xlink:href="#m6b0d997d88" y="325.921635"/>
      </g>
     </g>
     <g id="text_1">
      <!-- 0 -->
      <defs>
       <path d="M 31.78125 66.40625 
Q 24.171875 66.40625 20.328125 58.90625 
Q 16.5 51.421875 16.5 36.375 
Q 16.5 21.390625 20.328125 13.890625 
Q 24.171875 6.390625 31.78125 6.390625 
Q 39.453125 6.390625 43.28125 13.890625 
Q 47.125 21.390625 47.125 36.375 
Q 47.125 51.421875 43.28125 58.90625 
Q 39.453125 66.40625 31.78125 66.40625 
z
M 31.78125 74.21875 
Q 44.046875 74.21875 50.515625 64.515625 
Q 56.984375 54.828125 56.984375 36.375 
Q 56.984375 17.96875 50.515625 8.265625 
Q 44.046875 -1.421875 31.78125 -1.421875 
Q 19.53125 -1.421875 13.0625 8.265625 
Q 6.59375 17.96875 6.59375 36.375 
Q 6.59375 54.828125 13.0625 64.515625 
Q 19.53125 74.21875 31.78125 74.21875 
z
" id="DejaVuSans-48"/>
      </defs>
      <g transform="translate(50.333793 340.520072)scale(0.1 -0.1)">
       <use xlink:href="#DejaVuSans-48"/>
      </g>
     </g>
    </g>
    <g id="xtick_2">
     <g id="line2d_2">
      <g>
       <use style="stroke:#000000;stroke-width:0.8;" x="126.899253" xlink:href="#m6b0d997d88" y="325.921635"/>
      </g>
     </g>
     <g id="text_2">
      <!-- 100 -->
      <defs>
       <path d="M 12.40625 8.296875 
L 28.515625 8.296875 
L 28.515625 63.921875 
L 10.984375 60.40625 
L 10.984375 69.390625 
L 28.421875 72.90625 
L 38.28125 72.90625 
L 38.28125 8.296875 
L 54.390625 8.296875 
L 54.390625 0 
L 12.40625 0 
z
" id="DejaVuSans-49"/>
      </defs>
      <g transform="translate(117.355503 340.520072)scale(0.1 -0.1)">
       <use xlink:href="#DejaVuSans-49"/>
       <use x="63.623047" xlink:href="#DejaVuSans-48"/>
       <use x="127.246094" xlink:href="#DejaVuSans-48"/>
      </g>
     </g>
    </g>
   </g>
   <g id="matplotlib.axis_2">
    <g id="ytick_1">
     <g id="line2d_3">
      <defs>
       <path d="M 0 0 
L -3.5 0 
" id="m5383f12386" style="stroke:#000000;stroke-width:0.8;"/>
      </defs>
      <g>
       <use style="stroke:#000000;stroke-width:0.8;" x="49.266098" xlink:href="#m5383f12386" y="325.921635"/>
      </g>
     </g>
     <g id="text_3">
      <!-- 0 -->
      <g transform="translate(35.903598 329.720854)scale(0.1 -0.1)">
       <use xlink:href="#DejaVuSans-48"/>
      </g>
     </g>
    </g>
    <g id="ytick_2">
     <g id="line2d_4">
      <g>
       <use style="stroke:#000000;stroke-width:0.8;" x="49.266098" xlink:href="#m5383f12386" y="265.93947"/>
      </g>
     </g>
     <g id="text_4">
      <!-- 20000 -->
      <defs>
       <path d="M 19.1875 8.296875 
L 53.609375 8.296875 
L 53.609375 0 
L 7.328125 0 
L 7.328125 8.296875 
Q 12.9375 14.109375 22.625 23.890625 
Q 32.328125 33.6875 34.8125 36.53125 
Q 39.546875 41.84375 41.421875 45.53125 
Q 43.3125 49.21875 43.3125 52.78125 
Q 43.3125 58.59375 39.234375 62.25 
Q 35.15625 65.921875 28.609375 65.921875 
Q 23.96875 65.921875 18.8125 64.3125 
Q 13.671875 62.703125 7.8125 59.421875 
L 7.8125 69.390625 
Q 13.765625 71.78125 18.9375 73 
Q 24.125 74.21875 28.421875 74.21875 
Q 39.75 74.21875 46.484375 68.546875 
Q 53.21875 62.890625 53.21875 53.421875 
Q 53.21875 48.921875 51.53125 44.890625 
Q 49.859375 40.875 45.40625 35.40625 
Q 44.1875 33.984375 37.640625 27.21875 
Q 31.109375 20.453125 19.1875 8.296875 
z
" id="DejaVuSans-50"/>
      </defs>
      <g transform="translate(10.453598 269.738688)scale(0.1 -0.1)">
       <use xlink:href="#DejaVuSans-50"/>
       <use x="63.623047" xlink:href="#DejaVuSans-48"/>
       <use x="127.246094" xlink:href="#DejaVuSans-48"/>
       <use x="190.869141" xlink:href="#DejaVuSans-48"/>
       <use x="254.492188" xlink:href="#DejaVuSans-48"/>
      </g>
     </g>
    </g>
    <g id="ytick_3">
     <g id="line2d_5">
      <g>
       <use style="stroke:#000000;stroke-width:0.8;" x="49.266098" xlink:href="#m5383f12386" y="205.957304"/>
      </g>
     </g>
     <g id="text_5">
      <!-- 40000 -->
      <defs>
       <path d="M 37.796875 64.3125 
L 12.890625 25.390625 
L 37.796875 25.390625 
z
M 35.203125 72.90625 
L 47.609375 72.90625 
L 47.609375 25.390625 
L 58.015625 25.390625 
L 58.015625 17.1875 
L 47.609375 17.1875 
L 47.609375 0 
L 37.796875 0 
L 37.796875 17.1875 
L 4.890625 17.1875 
L 4.890625 26.703125 
z
" id="DejaVuSans-52"/>
      </defs>
      <g transform="translate(10.453598 209.756523)scale(0.1 -0.1)">
       <use xlink:href="#DejaVuSans-52"/>
       <use x="63.623047" xlink:href="#DejaVuSans-48"/>
       <use x="127.246094" xlink:href="#DejaVuSans-48"/>
       <use x="190.869141" xlink:href="#DejaVuSans-48"/>
       <use x="254.492188" xlink:href="#DejaVuSans-48"/>
      </g>
     </g>
    </g>
    <g id="ytick_4">
     <g id="line2d_6">
      <g>
       <use style="stroke:#000000;stroke-width:0.8;" x="49.266098" xlink:href="#m5383f12386" y="145.975139"/>
      </g>
     </g>
     <g id="text_6">
      <!-- 60000 -->
      <defs>
       <path d="M 33.015625 40.375 
Q 26.375 40.375 22.484375 35.828125 
Q 18.609375 31.296875 18.609375 23.390625 
Q 18.609375 15.53125 22.484375 10.953125 
Q 26.375 6.390625 33.015625 6.390625 
Q 39.65625 6.390625 43.53125 10.953125 
Q 47.40625 15.53125 47.40625 23.390625 
Q 47.40625 31.296875 43.53125 35.828125 
Q 39.65625 40.375 33.015625 40.375 
z
M 52.59375 71.296875 
L 52.59375 62.3125 
Q 48.875 64.0625 45.09375 64.984375 
Q 41.3125 65.921875 37.59375 65.921875 
Q 27.828125 65.921875 22.671875 59.328125 
Q 17.53125 52.734375 16.796875 39.40625 
Q 19.671875 43.65625 24.015625 45.921875 
Q 28.375 48.1875 33.59375 48.1875 
Q 44.578125 48.1875 50.953125 41.515625 
Q 57.328125 34.859375 57.328125 23.390625 
Q 57.328125 12.15625 50.6875 5.359375 
Q 44.046875 -1.421875 33.015625 -1.421875 
Q 20.359375 -1.421875 13.671875 8.265625 
Q 6.984375 17.96875 6.984375 36.375 
Q 6.984375 53.65625 15.1875 63.9375 
Q 23.390625 74.21875 37.203125 74.21875 
Q 40.921875 74.21875 44.703125 73.484375 
Q 48.484375 72.75 52.59375 71.296875 
z
" id="DejaVuSans-54"/>
      </defs>
      <g transform="translate(10.453598 149.774358)scale(0.1 -0.1)">
       <use xlink:href="#DejaVuSans-54"/>
       <use x="63.623047" xlink:href="#DejaVuSans-48"/>
       <use x="127.246094" xlink:href="#DejaVuSans-48"/>
       <use x="190.869141" xlink:href="#DejaVuSans-48"/>
       <use x="254.492188" xlink:href="#DejaVuSans-48"/>
      </g>
     </g>
    </g>
    <g id="ytick_5">
     <g id="line2d_7">
      <g>
       <use style="stroke:#000000;stroke-width:0.8;" x="49.266098" xlink:href="#m5383f12386" y="85.992974"/>
      </g>
     </g>
     <g id="text_7">
      <!-- 80000 -->
      <defs>
       <path d="M 31.78125 34.625 
Q 24.75 34.625 20.71875 30.859375 
Q 16.703125 27.09375 16.703125 20.515625 
Q 16.703125 13.921875 20.71875 10.15625 
Q 24.75 6.390625 31.78125 6.390625 
Q 38.8125 6.390625 42.859375 10.171875 
Q 46.921875 13.96875 46.921875 20.515625 
Q 46.921875 27.09375 42.890625 30.859375 
Q 38.875 34.625 31.78125 34.625 
z
M 21.921875 38.8125 
Q 15.578125 40.375 12.03125 44.71875 
Q 8.5 49.078125 8.5 55.328125 
Q 8.5 64.0625 14.71875 69.140625 
Q 20.953125 74.21875 31.78125 74.21875 
Q 42.671875 74.21875 48.875 69.140625 
Q 55.078125 64.0625 55.078125 55.328125 
Q 55.078125 49.078125 51.53125 44.71875 
Q 48 40.375 41.703125 38.8125 
Q 48.828125 37.15625 52.796875 32.3125 
Q 56.78125 27.484375 56.78125 20.515625 
Q 56.78125 9.90625 50.3125 4.234375 
Q 43.84375 -1.421875 31.78125 -1.421875 
Q 19.734375 -1.421875 13.25 4.234375 
Q 6.78125 9.90625 6.78125 20.515625 
Q 6.78125 27.484375 10.78125 32.3125 
Q 14.796875 37.15625 21.921875 38.8125 
z
M 18.3125 54.390625 
Q 18.3125 48.734375 21.84375 45.5625 
Q 25.390625 42.390625 31.78125 42.390625 
Q 38.140625 42.390625 41.71875 45.5625 
Q 45.3125 48.734375 45.3125 54.390625 
Q 45.3125 60.0625 41.71875 63.234375 
Q 38.140625 66.40625 31.78125 66.40625 
Q 25.390625 66.40625 21.84375 63.234375 
Q 18.3125 60.0625 18.3125 54.390625 
z
" id="DejaVuSans-56"/>
      </defs>
      <g transform="translate(10.453598 89.792192)scale(0.1 -0.1)">
       <use xlink:href="#DejaVuSans-56"/>
       <use x="63.623047" xlink:href="#DejaVuSans-48"/>
       <use x="127.246094" xlink:href="#DejaVuSans-48"/>
       <use x="190.869141" xlink:href="#DejaVuSans-48"/>
       <use x="254.492188" xlink:href="#DejaVuSans-48"/>
      </g>
     </g>
    </g>
    <g id="ytick_6">
     <g id="line2d_8">
      <g>
       <use style="stroke:#000000;stroke-width:0.8;" x="49.266098" xlink:href="#m5383f12386" y="26.010808"/>
      </g>
     </g>
     <g id="text_8">
      <!-- 100000 -->
      <g transform="translate(4.091098 29.810027)scale(0.1 -0.1)">
       <use xlink:href="#DejaVuSans-49"/>
       <use x="63.623047" xlink:href="#DejaVuSans-48"/>
       <use x="127.246094" xlink:href="#DejaVuSans-48"/>
       <use x="190.869141" xlink:href="#DejaVuSans-48"/>
       <use x="254.492188" xlink:href="#DejaVuSans-48"/>
       <use x="318.115234" xlink:href="#DejaVuSans-48"/>
      </g>
     </g>
    </g>
   </g>
   <g id="line2d_9">
    <path clip-path="url(#p5807185840)" d="M 53.515043 325.910008 
L 54.248885 325.906273 
L 54.982728 325.901236 
L 55.71657 325.894814 
L 56.450412 325.886639 
L 57.184254 325.876185 
L 57.918096 325.862662 
L 58.651938 325.844927 
L 59.38578 325.82152 
L 60.119622 325.790793 
L 60.853464 325.750839 
L 61.587306 325.699766 
L 62.321149 325.635807 
L 63.054991 325.557627 
L 63.788833 325.464431 
L 64.522675 325.355878 
L 65.256517 325.232009 
L 65.990359 325.093314 
L 66.724201 324.940262 
L 67.458043 324.773184 
L 68.191885 324.591708 
L 68.925727 324.394637 
L 69.659569 324.180107 
L 70.393412 323.945378 
L 71.127254 323.687058 
L 71.861096 323.401562 
L 72.594938 323.084767 
L 73.32878 322.732902 
L 74.062622 322.342761 
L 74.796464 321.91187 
L 75.530306 321.438912 
L 76.264148 320.923224 
L 76.99799 320.364772 
L 77.731833 319.765587 
L 78.465675 319.128619 
L 79.199517 318.45775 
L 79.933359 317.756686 
L 80.667201 317.029295 
L 81.401043 316.279608 
L 82.134885 315.511398 
L 82.868727 314.725257 
L 83.602569 313.919658 
L 84.336411 313.090329 
L 85.070253 312.232301 
L 85.804096 311.337668 
L 86.537938 310.396892 
L 87.27178 309.398857 
L 88.005622 308.335104 
L 88.739464 307.199348 
L 89.473306 305.987679 
L 90.207148 304.69642 
L 90.94099 303.324593 
L 91.674832 301.871038 
L 92.408674 300.335881 
L 93.142517 298.716313 
L 93.876359 297.006857 
L 94.610201 295.201669 
L 95.344043 293.29638 
L 96.077885 291.290069 
L 96.811727 289.188821 
L 97.545569 287.002286 
L 98.279411 284.742166 
L 99.013253 282.420791 
L 99.747095 280.043864 
L 100.480937 277.607696 
L 101.21478 275.091481 
L 101.948622 272.456493 
L 102.682464 269.646657 
L 103.416306 266.604236 
L 104.150148 263.273166 
L 104.88399 259.611165 
L 105.617832 255.593237 
L 106.351674 251.218467 
L 107.085516 246.502525 
L 107.819358 241.488486 
L 108.553201 236.222806 
L 109.287043 230.749553 
L 110.020885 225.099975 
L 110.754727 219.292566 
L 111.488569 213.335102 
L 112.222411 207.244631 
L 112.956253 201.02598 
L 113.690095 194.685913 
L 114.423937 188.239367 
L 115.157779 181.714964 
L 115.891621 175.150728 
L 116.625464 168.586096 
L 117.359306 162.037155 
L 118.093148 155.52066 
L 118.82699 149.05386 
L 119.560832 142.654596 
L 120.294674 136.333599 
L 121.028516 130.098659 
L 121.762358 123.954551 
L 122.4962 117.915736 
L 123.230042 111.985758 
L 123.963885 106.147448 
L 124.697727 100.356219 
L 125.431569 94.556523 
L 126.165411 88.673947 
L 126.899253 82.629991 
L 127.633095 76.34781 
L 128.366937 69.773967 
L 129.100779 62.877146 
L 129.834621 55.65837 
L 130.568463 48.221974 
L 131.302306 40.583453 
L 132.036148 32.775664 
" style="fill:none;stroke:#ff0000;stroke-linecap:square;stroke-width:1.5;"/>
   </g>
   <g id="patch_111">
    <path d="M 49.266098 325.921635 
L 49.266098 18.118365 
" style="fill:none;stroke:#000000;stroke-linecap:square;stroke-linejoin:miter;stroke-width:0.8;"/>
   </g>
   <g id="patch_112">
    <path d="M 136.285093 325.921635 
L 136.285093 18.118365 
" style="fill:none;stroke:#000000;stroke-linecap:square;stroke-linejoin:miter;stroke-width:0.8;"/>
   </g>
   <g id="patch_113">
    <path d="M 49.266098 325.921635 
L 136.285093 325.921635 
" style="fill:none;stroke:#000000;stroke-linecap:square;stroke-linejoin:miter;stroke-width:0.8;"/>
   </g>
   <g id="patch_114">
    <path d="M 49.266098 18.118365 
L 136.285093 18.118365 
" style="fill:none;stroke:#000000;stroke-linecap:square;stroke-linejoin:miter;stroke-width:0.8;"/>
   </g>
   <g id="text_9">
    <!-- Casos acumulados - RJ - (data) -->
    <defs>
     <path d="M 64.40625 67.28125 
L 64.40625 56.890625 
Q 59.421875 61.53125 53.78125 63.8125 
Q 48.140625 66.109375 41.796875 66.109375 
Q 29.296875 66.109375 22.65625 58.46875 
Q 16.015625 50.828125 16.015625 36.375 
Q 16.015625 21.96875 22.65625 14.328125 
Q 29.296875 6.6875 41.796875 6.6875 
Q 48.140625 6.6875 53.78125 8.984375 
Q 59.421875 11.28125 64.40625 15.921875 
L 64.40625 5.609375 
Q 59.234375 2.09375 53.4375 0.328125 
Q 47.65625 -1.421875 41.21875 -1.421875 
Q 24.65625 -1.421875 15.125 8.703125 
Q 5.609375 18.84375 5.609375 36.375 
Q 5.609375 53.953125 15.125 64.078125 
Q 24.65625 74.21875 41.21875 74.21875 
Q 47.75 74.21875 53.53125 72.484375 
Q 59.328125 70.75 64.40625 67.28125 
z
" id="DejaVuSans-67"/>
     <path d="M 34.28125 27.484375 
Q 23.390625 27.484375 19.1875 25 
Q 14.984375 22.515625 14.984375 16.5 
Q 14.984375 11.71875 18.140625 8.90625 
Q 21.296875 6.109375 26.703125 6.109375 
Q 34.1875 6.109375 38.703125 11.40625 
Q 43.21875 16.703125 43.21875 25.484375 
L 43.21875 27.484375 
z
M 52.203125 31.203125 
L 52.203125 0 
L 43.21875 0 
L 43.21875 8.296875 
Q 40.140625 3.328125 35.546875 0.953125 
Q 30.953125 -1.421875 24.3125 -1.421875 
Q 15.921875 -1.421875 10.953125 3.296875 
Q 6 8.015625 6 15.921875 
Q 6 25.140625 12.171875 29.828125 
Q 18.359375 34.515625 30.609375 34.515625 
L 43.21875 34.515625 
L 43.21875 35.40625 
Q 43.21875 41.609375 39.140625 45 
Q 35.0625 48.390625 27.6875 48.390625 
Q 23 48.390625 18.546875 47.265625 
Q 14.109375 46.140625 10.015625 43.890625 
L 10.015625 52.203125 
Q 14.9375 54.109375 19.578125 55.046875 
Q 24.21875 56 28.609375 56 
Q 40.484375 56 46.34375 49.84375 
Q 52.203125 43.703125 52.203125 31.203125 
z
" id="DejaVuSans-97"/>
     <path d="M 44.28125 53.078125 
L 44.28125 44.578125 
Q 40.484375 46.53125 36.375 47.5 
Q 32.28125 48.484375 27.875 48.484375 
Q 21.1875 48.484375 17.84375 46.4375 
Q 14.5 44.390625 14.5 40.28125 
Q 14.5 37.15625 16.890625 35.375 
Q 19.28125 33.59375 26.515625 31.984375 
L 29.59375 31.296875 
Q 39.15625 29.25 43.1875 25.515625 
Q 47.21875 21.78125 47.21875 15.09375 
Q 47.21875 7.46875 41.1875 3.015625 
Q 35.15625 -1.421875 24.609375 -1.421875 
Q 20.21875 -1.421875 15.453125 -0.5625 
Q 10.6875 0.296875 5.421875 2 
L 5.421875 11.28125 
Q 10.40625 8.6875 15.234375 7.390625 
Q 20.0625 6.109375 24.8125 6.109375 
Q 31.15625 6.109375 34.5625 8.28125 
Q 37.984375 10.453125 37.984375 14.40625 
Q 37.984375 18.0625 35.515625 20.015625 
Q 33.0625 21.96875 24.703125 23.78125 
L 21.578125 24.515625 
Q 13.234375 26.265625 9.515625 29.90625 
Q 5.8125 33.546875 5.8125 39.890625 
Q 5.8125 47.609375 11.28125 51.796875 
Q 16.75 56 26.8125 56 
Q 31.78125 56 36.171875 55.265625 
Q 40.578125 54.546875 44.28125 53.078125 
z
" id="DejaVuSans-115"/>
     <path d="M 30.609375 48.390625 
Q 23.390625 48.390625 19.1875 42.75 
Q 14.984375 37.109375 14.984375 27.296875 
Q 14.984375 17.484375 19.15625 11.84375 
Q 23.34375 6.203125 30.609375 6.203125 
Q 37.796875 6.203125 41.984375 11.859375 
Q 46.1875 17.53125 46.1875 27.296875 
Q 46.1875 37.015625 41.984375 42.703125 
Q 37.796875 48.390625 30.609375 48.390625 
z
M 30.609375 56 
Q 42.328125 56 49.015625 48.375 
Q 55.71875 40.765625 55.71875 27.296875 
Q 55.71875 13.875 49.015625 6.21875 
Q 42.328125 -1.421875 30.609375 -1.421875 
Q 18.84375 -1.421875 12.171875 6.21875 
Q 5.515625 13.875 5.515625 27.296875 
Q 5.515625 40.765625 12.171875 48.375 
Q 18.84375 56 30.609375 56 
z
" id="DejaVuSans-111"/>
     <path id="DejaVuSans-32"/>
     <path d="M 48.78125 52.59375 
L 48.78125 44.1875 
Q 44.96875 46.296875 41.140625 47.34375 
Q 37.3125 48.390625 33.40625 48.390625 
Q 24.65625 48.390625 19.8125 42.84375 
Q 14.984375 37.3125 14.984375 27.296875 
Q 14.984375 17.28125 19.8125 11.734375 
Q 24.65625 6.203125 33.40625 6.203125 
Q 37.3125 6.203125 41.140625 7.25 
Q 44.96875 8.296875 48.78125 10.40625 
L 48.78125 2.09375 
Q 45.015625 0.34375 40.984375 -0.53125 
Q 36.96875 -1.421875 32.421875 -1.421875 
Q 20.0625 -1.421875 12.78125 6.34375 
Q 5.515625 14.109375 5.515625 27.296875 
Q 5.515625 40.671875 12.859375 48.328125 
Q 20.21875 56 33.015625 56 
Q 37.15625 56 41.109375 55.140625 
Q 45.0625 54.296875 48.78125 52.59375 
z
" id="DejaVuSans-99"/>
     <path d="M 8.5 21.578125 
L 8.5 54.6875 
L 17.484375 54.6875 
L 17.484375 21.921875 
Q 17.484375 14.15625 20.5 10.265625 
Q 23.53125 6.390625 29.59375 6.390625 
Q 36.859375 6.390625 41.078125 11.03125 
Q 45.3125 15.671875 45.3125 23.6875 
L 45.3125 54.6875 
L 54.296875 54.6875 
L 54.296875 0 
L 45.3125 0 
L 45.3125 8.40625 
Q 42.046875 3.421875 37.71875 1 
Q 33.40625 -1.421875 27.6875 -1.421875 
Q 18.265625 -1.421875 13.375 4.4375 
Q 8.5 10.296875 8.5 21.578125 
z
M 31.109375 56 
z
" id="DejaVuSans-117"/>
     <path d="M 52 44.1875 
Q 55.375 50.25 60.0625 53.125 
Q 64.75 56 71.09375 56 
Q 79.640625 56 84.28125 50.015625 
Q 88.921875 44.046875 88.921875 33.015625 
L 88.921875 0 
L 79.890625 0 
L 79.890625 32.71875 
Q 79.890625 40.578125 77.09375 44.375 
Q 74.3125 48.1875 68.609375 48.1875 
Q 61.625 48.1875 57.5625 43.546875 
Q 53.515625 38.921875 53.515625 30.90625 
L 53.515625 0 
L 44.484375 0 
L 44.484375 32.71875 
Q 44.484375 40.625 41.703125 44.40625 
Q 38.921875 48.1875 33.109375 48.1875 
Q 26.21875 48.1875 22.15625 43.53125 
Q 18.109375 38.875 18.109375 30.90625 
L 18.109375 0 
L 9.078125 0 
L 9.078125 54.6875 
L 18.109375 54.6875 
L 18.109375 46.1875 
Q 21.1875 51.21875 25.484375 53.609375 
Q 29.78125 56 35.6875 56 
Q 41.65625 56 45.828125 52.96875 
Q 50 49.953125 52 44.1875 
z
" id="DejaVuSans-109"/>
     <path d="M 9.421875 75.984375 
L 18.40625 75.984375 
L 18.40625 0 
L 9.421875 0 
z
" id="DejaVuSans-108"/>
     <path d="M 45.40625 46.390625 
L 45.40625 75.984375 
L 54.390625 75.984375 
L 54.390625 0 
L 45.40625 0 
L 45.40625 8.203125 
Q 42.578125 3.328125 38.25 0.953125 
Q 33.9375 -1.421875 27.875 -1.421875 
Q 17.96875 -1.421875 11.734375 6.484375 
Q 5.515625 14.40625 5.515625 27.296875 
Q 5.515625 40.1875 11.734375 48.09375 
Q 17.96875 56 27.875 56 
Q 33.9375 56 38.25 53.625 
Q 42.578125 51.265625 45.40625 46.390625 
z
M 14.796875 27.296875 
Q 14.796875 17.390625 18.875 11.75 
Q 22.953125 6.109375 30.078125 6.109375 
Q 37.203125 6.109375 41.296875 11.75 
Q 45.40625 17.390625 45.40625 27.296875 
Q 45.40625 37.203125 41.296875 42.84375 
Q 37.203125 48.484375 30.078125 48.484375 
Q 22.953125 48.484375 18.875 42.84375 
Q 14.796875 37.203125 14.796875 27.296875 
z
" id="DejaVuSans-100"/>
     <path d="M 4.890625 31.390625 
L 31.203125 31.390625 
L 31.203125 23.390625 
L 4.890625 23.390625 
z
" id="DejaVuSans-45"/>
     <path d="M 44.390625 34.1875 
Q 47.5625 33.109375 50.5625 29.59375 
Q 53.5625 26.078125 56.59375 19.921875 
L 66.609375 0 
L 56 0 
L 46.6875 18.703125 
Q 43.0625 26.03125 39.671875 28.421875 
Q 36.28125 30.8125 30.421875 30.8125 
L 19.671875 30.8125 
L 19.671875 0 
L 9.8125 0 
L 9.8125 72.90625 
L 32.078125 72.90625 
Q 44.578125 72.90625 50.734375 67.671875 
Q 56.890625 62.453125 56.890625 51.90625 
Q 56.890625 45.015625 53.6875 40.46875 
Q 50.484375 35.9375 44.390625 34.1875 
z
M 19.671875 64.796875 
L 19.671875 38.921875 
L 32.078125 38.921875 
Q 39.203125 38.921875 42.84375 42.21875 
Q 46.484375 45.515625 46.484375 51.90625 
Q 46.484375 58.296875 42.84375 61.546875 
Q 39.203125 64.796875 32.078125 64.796875 
z
" id="DejaVuSans-82"/>
     <path d="M 9.8125 72.90625 
L 19.671875 72.90625 
L 19.671875 5.078125 
Q 19.671875 -8.109375 14.671875 -14.0625 
Q 9.671875 -20.015625 -1.421875 -20.015625 
L -5.171875 -20.015625 
L -5.171875 -11.71875 
L -2.09375 -11.71875 
Q 4.4375 -11.71875 7.125 -8.046875 
Q 9.8125 -4.390625 9.8125 5.078125 
z
" id="DejaVuSans-74"/>
     <path d="M 31 75.875 
Q 24.46875 64.65625 21.28125 53.65625 
Q 18.109375 42.671875 18.109375 31.390625 
Q 18.109375 20.125 21.3125 9.0625 
Q 24.515625 -2 31 -13.1875 
L 23.1875 -13.1875 
Q 15.875 -1.703125 12.234375 9.375 
Q 8.59375 20.453125 8.59375 31.390625 
Q 8.59375 42.28125 12.203125 53.3125 
Q 15.828125 64.359375 23.1875 75.875 
z
" id="DejaVuSans-40"/>
     <path d="M 18.3125 70.21875 
L 18.3125 54.6875 
L 36.8125 54.6875 
L 36.8125 47.703125 
L 18.3125 47.703125 
L 18.3125 18.015625 
Q 18.3125 11.328125 20.140625 9.421875 
Q 21.96875 7.515625 27.59375 7.515625 
L 36.8125 7.515625 
L 36.8125 0 
L 27.59375 0 
Q 17.1875 0 13.234375 3.875 
Q 9.28125 7.765625 9.28125 18.015625 
L 9.28125 47.703125 
L 2.6875 47.703125 
L 2.6875 54.6875 
L 9.28125 54.6875 
L 9.28125 70.21875 
z
" id="DejaVuSans-116"/>
     <path d="M 8.015625 75.875 
L 15.828125 75.875 
Q 23.140625 64.359375 26.78125 53.3125 
Q 30.421875 42.28125 30.421875 31.390625 
Q 30.421875 20.453125 26.78125 9.375 
Q 23.140625 -1.703125 15.828125 -13.1875 
L 8.015625 -13.1875 
Q 14.5 -2 17.703125 9.0625 
Q 20.90625 20.125 20.90625 31.390625 
Q 20.90625 42.671875 17.703125 53.65625 
Q 14.5 64.65625 8.015625 75.875 
z
" id="DejaVuSans-41"/>
    </defs>
    <g transform="translate(0.611845 12.118365)scale(0.12 -0.12)">
     <use xlink:href="#DejaVuSans-67"/>
     <use x="69.824219" xlink:href="#DejaVuSans-97"/>
     <use x="131.103516" xlink:href="#DejaVuSans-115"/>
     <use x="183.203125" xlink:href="#DejaVuSans-111"/>
     <use x="244.384766" xlink:href="#DejaVuSans-115"/>
     <use x="296.484375" xlink:href="#DejaVuSans-32"/>
     <use x="328.271484" xlink:href="#DejaVuSans-97"/>
     <use x="389.550781" xlink:href="#DejaVuSans-99"/>
     <use x="444.53125" xlink:href="#DejaVuSans-117"/>
     <use x="507.910156" xlink:href="#DejaVuSans-109"/>
     <use x="605.322266" xlink:href="#DejaVuSans-117"/>
     <use x="668.701172" xlink:href="#DejaVuSans-108"/>
     <use x="696.484375" xlink:href="#DejaVuSans-97"/>
     <use x="757.763672" xlink:href="#DejaVuSans-100"/>
     <use x="821.240234" xlink:href="#DejaVuSans-111"/>
     <use x="882.421875" xlink:href="#DejaVuSans-115"/>
     <use x="934.521484" xlink:href="#DejaVuSans-32"/>
     <use x="966.308594" xlink:href="#DejaVuSans-45"/>
     <use x="1002.392578" xlink:href="#DejaVuSans-32"/>
     <use x="1034.179688" xlink:href="#DejaVuSans-82"/>
     <use x="1103.662109" xlink:href="#DejaVuSans-74"/>
     <use x="1133.154297" xlink:href="#DejaVuSans-32"/>
     <use x="1164.941406" xlink:href="#DejaVuSans-45"/>
     <use x="1201.025391" xlink:href="#DejaVuSans-32"/>
     <use x="1232.8125" xlink:href="#DejaVuSans-40"/>
     <use x="1271.826172" xlink:href="#DejaVuSans-100"/>
     <use x="1335.302734" xlink:href="#DejaVuSans-97"/>
     <use x="1396.582031" xlink:href="#DejaVuSans-116"/>
     <use x="1435.791016" xlink:href="#DejaVuSans-97"/>
     <use x="1497.070312" xlink:href="#DejaVuSans-41"/>
    </g>
   </g>
  </g>
  <g id="axes_2">
   <g id="patch_115">
    <path d="M 224.073431 325.921635 
L 311.092427 325.921635 
L 311.092427 18.118365 
L 224.073431 18.118365 
z
" style="fill:#ffffff;"/>
   </g>
   <g id="patch_116">
    <path clip-path="url(#pf2016a3ed2)" d="M 228.02884 325.921635 
L 228.615914 325.921635 
L 228.615914 325.921635 
L 228.02884 325.921635 
z
" style="fill:#1f77b4;"/>
   </g>
   <g id="patch_117">
    <path clip-path="url(#pf2016a3ed2)" d="M 228.762682 325.921635 
L 229.349756 325.921635 
L 229.349756 325.873269 
L 228.762682 325.873269 
z
" style="fill:#1f77b4;"/>
   </g>
   <g id="patch_118">
    <path clip-path="url(#pf2016a3ed2)" d="M 229.496524 325.921635 
L 230.083598 325.921635 
L 230.083598 325.873269 
L 229.496524 325.873269 
z
" style="fill:#1f77b4;"/>
   </g>
   <g id="patch_119">
    <path clip-path="url(#pf2016a3ed2)" d="M 230.230366 325.921635 
L 230.81744 325.921635 
L 230.81744 325.921635 
L 230.230366 325.921635 
z
" style="fill:#1f77b4;"/>
   </g>
   <g id="patch_120">
    <path clip-path="url(#pf2016a3ed2)" d="M 230.964208 325.921635 
L 231.551282 325.921635 
L 231.551282 325.679805 
L 230.964208 325.679805 
z
" style="fill:#1f77b4;"/>
   </g>
   <g id="patch_121">
    <path clip-path="url(#pf2016a3ed2)" d="M 231.69805 325.921635 
L 232.285124 325.921635 
L 232.285124 325.679805 
L 231.69805 325.679805 
z
" style="fill:#1f77b4;"/>
   </g>
   <g id="patch_122">
    <path clip-path="url(#pf2016a3ed2)" d="M 232.431892 325.921635 
L 233.018966 325.921635 
L 233.018966 325.776537 
L 232.431892 325.776537 
z
" style="fill:#1f77b4;"/>
   </g>
   <g id="patch_123">
    <path clip-path="url(#pf2016a3ed2)" d="M 233.165735 325.921635 
L 233.752808 325.921635 
L 233.752808 325.921635 
L 233.165735 325.921635 
z
" style="fill:#1f77b4;"/>
   </g>
   <g id="patch_124">
    <path clip-path="url(#pf2016a3ed2)" d="M 233.899577 325.921635 
L 234.48665 325.921635 
L 234.48665 325.631439 
L 233.899577 325.631439 
z
" style="fill:#1f77b4;"/>
   </g>
   <g id="patch_125">
    <path clip-path="url(#pf2016a3ed2)" d="M 234.633419 325.921635 
L 235.220492 325.921635 
L 235.220492 325.824903 
L 234.633419 325.824903 
z
" style="fill:#1f77b4;"/>
   </g>
   <g id="patch_126">
    <path clip-path="url(#pf2016a3ed2)" d="M 235.367261 325.921635 
L 235.954335 325.921635 
L 235.954335 325.583073 
L 235.367261 325.583073 
z
" style="fill:#1f77b4;"/>
   </g>
   <g id="patch_127">
    <path clip-path="url(#pf2016a3ed2)" d="M 236.101103 325.921635 
L 236.688177 325.921635 
L 236.688177 325.824903 
L 236.101103 325.824903 
z
" style="fill:#1f77b4;"/>
   </g>
   <g id="patch_128">
    <path clip-path="url(#pf2016a3ed2)" d="M 236.834945 325.921635 
L 237.422019 325.921635 
L 237.422019 325.341244 
L 236.834945 325.341244 
z
" style="fill:#1f77b4;"/>
   </g>
   <g id="patch_129">
    <path clip-path="url(#pf2016a3ed2)" d="M 237.568787 325.921635 
L 238.155861 325.921635 
L 238.155861 324.954316 
L 237.568787 324.954316 
z
" style="fill:#1f77b4;"/>
   </g>
   <g id="patch_130">
    <path clip-path="url(#pf2016a3ed2)" d="M 238.302629 325.921635 
L 238.889703 325.921635 
L 238.889703 323.793534 
L 238.302629 323.793534 
z
" style="fill:#1f77b4;"/>
   </g>
   <g id="patch_131">
    <path clip-path="url(#pf2016a3ed2)" d="M 239.036471 325.921635 
L 239.623545 325.921635 
L 239.623545 325.437976 
L 239.036471 325.437976 
z
" style="fill:#1f77b4;"/>
   </g>
   <g id="patch_132">
    <path clip-path="url(#pf2016a3ed2)" d="M 239.770313 325.921635 
L 240.357387 325.921635 
L 240.357387 322.681117 
L 239.770313 322.681117 
z
" style="fill:#1f77b4;"/>
   </g>
   <g id="patch_133">
    <path clip-path="url(#pf2016a3ed2)" d="M 240.504155 325.921635 
L 241.091229 325.921635 
L 241.091229 323.648436 
L 240.504155 323.648436 
z
" style="fill:#1f77b4;"/>
   </g>
   <g id="patch_134">
    <path clip-path="url(#pf2016a3ed2)" d="M 241.237998 325.921635 
L 241.825071 325.921635 
L 241.825071 322.439287 
L 241.237998 322.439287 
z
" style="fill:#1f77b4;"/>
   </g>
   <g id="patch_135">
    <path clip-path="url(#pf2016a3ed2)" d="M 241.97184 325.921635 
L 242.558913 325.921635 
L 242.558913 322.777849 
L 241.97184 322.777849 
z
" style="fill:#1f77b4;"/>
   </g>
   <g id="patch_136">
    <path clip-path="url(#pf2016a3ed2)" d="M 242.705682 325.921635 
L 243.292755 325.921635 
L 243.292755 323.454972 
L 242.705682 323.454972 
z
" style="fill:#1f77b4;"/>
   </g>
   <g id="patch_137">
    <path clip-path="url(#pf2016a3ed2)" d="M 243.439524 325.921635 
L 244.026598 325.921635 
L 244.026598 322.439287 
L 243.439524 322.439287 
z
" style="fill:#1f77b4;"/>
   </g>
   <g id="patch_138">
    <path clip-path="url(#pf2016a3ed2)" d="M 244.173366 325.921635 
L 244.76044 325.921635 
L 244.76044 322.777849 
L 244.173366 322.777849 
z
" style="fill:#1f77b4;"/>
   </g>
   <g id="patch_139">
    <path clip-path="url(#pf2016a3ed2)" d="M 244.907208 325.921635 
L 245.494282 325.921635 
L 245.494282 323.890265 
L 244.907208 323.890265 
z
" style="fill:#1f77b4;"/>
   </g>
   <g id="patch_140">
    <path clip-path="url(#pf2016a3ed2)" d="M 245.64105 325.921635 
L 246.228124 325.921635 
L 246.228124 323.164776 
L 245.64105 323.164776 
z
" style="fill:#1f77b4;"/>
   </g>
   <g id="patch_141">
    <path clip-path="url(#pf2016a3ed2)" d="M 246.374892 325.921635 
L 246.961966 325.921635 
L 246.961966 323.454972 
L 246.374892 323.454972 
z
" style="fill:#1f77b4;"/>
   </g>
   <g id="patch_142">
    <path clip-path="url(#pf2016a3ed2)" d="M 247.108734 325.921635 
L 247.695808 325.921635 
L 247.695808 319.924258 
L 247.108734 319.924258 
z
" style="fill:#1f77b4;"/>
   </g>
   <g id="patch_143">
    <path clip-path="url(#pf2016a3ed2)" d="M 247.842576 325.921635 
L 248.42965 325.921635 
L 248.42965 318.183084 
L 247.842576 318.183084 
z
" style="fill:#1f77b4;"/>
   </g>
   <g id="patch_144">
    <path clip-path="url(#pf2016a3ed2)" d="M 248.576419 325.921635 
L 249.163492 325.921635 
L 249.163492 321.955628 
L 248.576419 321.955628 
z
" style="fill:#1f77b4;"/>
   </g>
   <g id="patch_145">
    <path clip-path="url(#pf2016a3ed2)" d="M 249.310261 325.921635 
L 249.897334 325.921635 
L 249.897334 317.602693 
L 249.310261 317.602693 
z
" style="fill:#1f77b4;"/>
   </g>
   <g id="patch_146">
    <path clip-path="url(#pf2016a3ed2)" d="M 250.044103 325.921635 
L 250.631176 325.921635 
L 250.631176 318.763476 
L 250.044103 318.763476 
z
" style="fill:#1f77b4;"/>
   </g>
   <g id="patch_147">
    <path clip-path="url(#pf2016a3ed2)" d="M 250.777945 325.921635 
L 251.365019 325.921635 
L 251.365019 322.681117 
L 250.777945 322.681117 
z
" style="fill:#1f77b4;"/>
   </g>
   <g id="patch_148">
    <path clip-path="url(#pf2016a3ed2)" d="M 251.511787 325.921635 
L 252.098861 325.921635 
L 252.098861 314.942566 
L 251.511787 314.942566 
z
" style="fill:#1f77b4;"/>
   </g>
   <g id="patch_149">
    <path clip-path="url(#pf2016a3ed2)" d="M 252.245629 325.921635 
L 252.832703 325.921635 
L 252.832703 313.83015 
L 252.245629 313.83015 
z
" style="fill:#1f77b4;"/>
   </g>
   <g id="patch_150">
    <path clip-path="url(#pf2016a3ed2)" d="M 252.979471 325.921635 
L 253.566545 325.921635 
L 253.566545 312.475903 
L 252.979471 312.475903 
z
" style="fill:#1f77b4;"/>
   </g>
   <g id="patch_151">
    <path clip-path="url(#pf2016a3ed2)" d="M 253.713313 325.921635 
L 254.300387 325.921635 
L 254.300387 313.926882 
L 253.713313 313.926882 
z
" style="fill:#1f77b4;"/>
   </g>
   <g id="patch_152">
    <path clip-path="url(#pf2016a3ed2)" d="M 254.447155 325.921635 
L 255.034229 325.921635 
L 255.034229 319.005305 
L 254.447155 319.005305 
z
" style="fill:#1f77b4;"/>
   </g>
   <g id="patch_153">
    <path clip-path="url(#pf2016a3ed2)" d="M 255.180997 325.921635 
L 255.768071 325.921635 
L 255.768071 313.926882 
L 255.180997 313.926882 
z
" style="fill:#1f77b4;"/>
   </g>
   <g id="patch_154">
    <path clip-path="url(#pf2016a3ed2)" d="M 255.91484 325.921635 
L 256.501913 325.921635 
L 256.501913 307.736041 
L 255.91484 307.736041 
z
" style="fill:#1f77b4;"/>
   </g>
   <g id="patch_155">
    <path clip-path="url(#pf2016a3ed2)" d="M 256.648682 325.921635 
L 257.235755 325.921635 
L 257.235755 317.264131 
L 256.648682 317.264131 
z
" style="fill:#1f77b4;"/>
   </g>
   <g id="patch_156">
    <path clip-path="url(#pf2016a3ed2)" d="M 257.382524 325.921635 
L 257.969597 325.921635 
L 257.969597 309.815776 
L 257.382524 309.815776 
z
" style="fill:#1f77b4;"/>
   </g>
   <g id="patch_157">
    <path clip-path="url(#pf2016a3ed2)" d="M 258.116366 325.921635 
L 258.703439 325.921635 
L 258.703439 316.200081 
L 258.116366 316.200081 
z
" style="fill:#1f77b4;"/>
   </g>
   <g id="patch_158">
    <path clip-path="url(#pf2016a3ed2)" d="M 258.850208 325.921635 
L 259.437282 325.921635 
L 259.437282 306.333429 
L 258.850208 306.333429 
z
" style="fill:#1f77b4;"/>
   </g>
   <g id="patch_159">
    <path clip-path="url(#pf2016a3ed2)" d="M 259.58405 325.921635 
L 260.171124 325.921635 
L 260.171124 316.538642 
L 259.58405 316.538642 
z
" style="fill:#1f77b4;"/>
   </g>
   <g id="patch_160">
    <path clip-path="url(#pf2016a3ed2)" d="M 260.317892 325.921635 
L 260.904966 325.921635 
L 260.904966 315.184396 
L 260.317892 315.184396 
z
" style="fill:#1f77b4;"/>
   </g>
   <g id="patch_161">
    <path clip-path="url(#pf2016a3ed2)" d="M 261.051734 325.921635 
L 261.638808 325.921635 
L 261.638808 319.440599 
L 261.051734 319.440599 
z
" style="fill:#1f77b4;"/>
   </g>
   <g id="patch_162">
    <path clip-path="url(#pf2016a3ed2)" d="M 261.785576 325.921635 
L 262.37265 325.921635 
L 262.37265 306.236697 
L 261.785576 306.236697 
z
" style="fill:#1f77b4;"/>
   </g>
   <g id="patch_163">
    <path clip-path="url(#pf2016a3ed2)" d="M 262.519418 325.921635 
L 263.106492 325.921635 
L 263.106492 314.023613 
L 262.519418 314.023613 
z
" style="fill:#1f77b4;"/>
   </g>
   <g id="patch_164">
    <path clip-path="url(#pf2016a3ed2)" d="M 263.25326 325.921635 
L 263.840334 325.921635 
L 263.840334 295.934751 
L 263.25326 295.934751 
z
" style="fill:#1f77b4;"/>
   </g>
   <g id="patch_165">
    <path clip-path="url(#pf2016a3ed2)" d="M 263.987103 325.921635 
L 264.574176 325.921635 
L 264.574176 320.601381 
L 263.987103 320.601381 
z
" style="fill:#1f77b4;"/>
   </g>
   <g id="patch_166">
    <path clip-path="url(#pf2016a3ed2)" d="M 264.720945 325.921635 
L 265.308018 325.921635 
L 265.308018 299.513831 
L 264.720945 299.513831 
z
" style="fill:#1f77b4;"/>
   </g>
   <g id="patch_167">
    <path clip-path="url(#pf2016a3ed2)" d="M 265.454787 325.921635 
L 266.04186 325.921635 
L 266.04186 312.234074 
L 265.454787 312.234074 
z
" style="fill:#1f77b4;"/>
   </g>
   <g id="patch_168">
    <path clip-path="url(#pf2016a3ed2)" d="M 266.188629 325.921635 
L 266.775703 325.921635 
L 266.775703 285.632806 
L 266.188629 285.632806 
z
" style="fill:#1f77b4;"/>
   </g>
   <g id="patch_169">
    <path clip-path="url(#pf2016a3ed2)" d="M 266.922471 325.921635 
L 267.509545 325.921635 
L 267.509545 298.836708 
L 266.922471 298.836708 
z
" style="fill:#1f77b4;"/>
   </g>
   <g id="patch_170">
    <path clip-path="url(#pf2016a3ed2)" d="M 267.656313 325.921635 
L 268.243387 325.921635 
L 268.243387 308.268066 
L 267.656313 308.268066 
z
" style="fill:#1f77b4;"/>
   </g>
   <g id="patch_171">
    <path clip-path="url(#pf2016a3ed2)" d="M 268.390155 325.921635 
L 268.977229 325.921635 
L 268.977229 297.675925 
L 268.390155 297.675925 
z
" style="fill:#1f77b4;"/>
   </g>
   <g id="patch_172">
    <path clip-path="url(#pf2016a3ed2)" d="M 269.123997 325.921635 
L 269.711071 325.921635 
L 269.711071 291.436719 
L 269.123997 291.436719 
z
" style="fill:#1f77b4;"/>
   </g>
   <g id="patch_173">
    <path clip-path="url(#pf2016a3ed2)" d="M 269.857839 325.921635 
L 270.444913 325.921635 
L 270.444913 307.542577 
L 269.857839 307.542577 
z
" style="fill:#1f77b4;"/>
   </g>
   <g id="patch_174">
    <path clip-path="url(#pf2016a3ed2)" d="M 270.591681 325.921635 
L 271.178755 325.921635 
L 271.178755 297.240632 
L 270.591681 297.240632 
z
" style="fill:#1f77b4;"/>
   </g>
   <g id="patch_175">
    <path clip-path="url(#pf2016a3ed2)" d="M 271.325524 325.921635 
L 271.912597 325.921635 
L 271.912597 297.772657 
L 271.325524 297.772657 
z
" style="fill:#1f77b4;"/>
   </g>
   <g id="patch_176">
    <path clip-path="url(#pf2016a3ed2)" d="M 272.059366 325.921635 
L 272.646439 325.921635 
L 272.646439 293.516454 
L 272.059366 293.516454 
z
" style="fill:#1f77b4;"/>
   </g>
   <g id="patch_177">
    <path clip-path="url(#pf2016a3ed2)" d="M 272.793208 325.921635 
L 273.380281 325.921635 
L 273.380281 282.198824 
L 272.793208 282.198824 
z
" style="fill:#1f77b4;"/>
   </g>
   <g id="patch_178">
    <path clip-path="url(#pf2016a3ed2)" d="M 273.52705 325.921635 
L 274.114123 325.921635 
L 274.114123 284.278559 
L 273.52705 284.278559 
z
" style="fill:#1f77b4;"/>
   </g>
   <g id="patch_179">
    <path clip-path="url(#pf2016a3ed2)" d="M 274.260892 325.921635 
L 274.847966 325.921635 
L 274.847966 249.261618 
L 274.260892 249.261618 
z
" style="fill:#1f77b4;"/>
   </g>
   <g id="patch_180">
    <path clip-path="url(#pf2016a3ed2)" d="M 274.994734 325.921635 
L 275.581808 325.921635 
L 275.581808 268.462896 
L 274.994734 268.462896 
z
" style="fill:#1f77b4;"/>
   </g>
   <g id="patch_181">
    <path clip-path="url(#pf2016a3ed2)" d="M 275.728576 325.921635 
L 276.31565 325.921635 
L 276.31565 319.488965 
L 275.728576 319.488965 
z
" style="fill:#1f77b4;"/>
   </g>
   <g id="patch_182">
    <path clip-path="url(#pf2016a3ed2)" d="M 276.462418 325.921635 
L 277.049492 325.921635 
L 277.049492 283.504704 
L 276.462418 283.504704 
z
" style="fill:#1f77b4;"/>
   </g>
   <g id="patch_183">
    <path clip-path="url(#pf2016a3ed2)" d="M 277.19626 325.921635 
L 277.783334 325.921635 
L 277.783334 299.465465 
L 277.19626 299.465465 
z
" style="fill:#1f77b4;"/>
   </g>
   <g id="patch_184">
    <path clip-path="url(#pf2016a3ed2)" d="M 277.930102 325.921635 
L 278.517176 325.921635 
L 278.517176 314.217077 
L 277.930102 314.217077 
z
" style="fill:#1f77b4;"/>
   </g>
   <g id="patch_185">
    <path clip-path="url(#pf2016a3ed2)" d="M 278.663944 325.921635 
L 279.251018 325.921635 
L 279.251018 290.179204 
L 278.663944 290.179204 
z
" style="fill:#1f77b4;"/>
   </g>
   <g id="patch_186">
    <path clip-path="url(#pf2016a3ed2)" d="M 279.397787 325.921635 
L 279.98486 325.921635 
L 279.98486 300.771345 
L 279.397787 300.771345 
z
" style="fill:#1f77b4;"/>
   </g>
   <g id="patch_187">
    <path clip-path="url(#pf2016a3ed2)" d="M 280.131629 325.921635 
L 280.718702 325.921635 
L 280.718702 247.859005 
L 280.131629 247.859005 
z
" style="fill:#1f77b4;"/>
   </g>
   <g id="patch_188">
    <path clip-path="url(#pf2016a3ed2)" d="M 280.865471 325.921635 
L 281.452544 325.921635 
L 281.452544 295.11253 
L 280.865471 295.11253 
z
" style="fill:#1f77b4;"/>
   </g>
   <g id="patch_189">
    <path clip-path="url(#pf2016a3ed2)" d="M 281.599313 325.921635 
L 282.186387 325.921635 
L 282.186387 111.805612 
L 281.599313 111.805612 
z
" style="fill:#1f77b4;"/>
   </g>
   <g id="patch_190">
    <path clip-path="url(#pf2016a3ed2)" d="M 282.333155 325.921635 
L 282.920229 325.921635 
L 282.920229 270.784462 
L 282.333155 270.784462 
z
" style="fill:#1f77b4;"/>
   </g>
   <g id="patch_191">
    <path clip-path="url(#pf2016a3ed2)" d="M 283.066997 325.921635 
L 283.654071 325.921635 
L 283.654071 201.766263 
L 283.066997 201.766263 
z
" style="fill:#1f77b4;"/>
   </g>
   <g id="patch_192">
    <path clip-path="url(#pf2016a3ed2)" d="M 283.800839 325.921635 
L 284.387913 325.921635 
L 284.387913 242.877313 
L 283.800839 242.877313 
z
" style="fill:#1f77b4;"/>
   </g>
   <g id="patch_193">
    <path clip-path="url(#pf2016a3ed2)" d="M 284.534681 325.921635 
L 285.121755 325.921635 
L 285.121755 253.372723 
L 284.534681 253.372723 
z
" style="fill:#1f77b4;"/>
   </g>
   <g id="patch_194">
    <path clip-path="url(#pf2016a3ed2)" d="M 285.268523 325.921635 
L 285.855597 325.921635 
L 285.855597 280.264186 
L 285.268523 280.264186 
z
" style="fill:#1f77b4;"/>
   </g>
   <g id="patch_195">
    <path clip-path="url(#pf2016a3ed2)" d="M 286.002365 325.921635 
L 286.589439 325.921635 
L 286.589439 162.493119 
L 286.002365 162.493119 
z
" style="fill:#1f77b4;"/>
   </g>
   <g id="patch_196">
    <path clip-path="url(#pf2016a3ed2)" d="M 286.736208 325.921635 
L 287.323281 325.921635 
L 287.323281 258.88644 
L 286.736208 258.88644 
z
" style="fill:#1f77b4;"/>
   </g>
   <g id="patch_197">
    <path clip-path="url(#pf2016a3ed2)" d="M 287.47005 325.921635 
L 288.057123 325.921635 
L 288.057123 290.807961 
L 287.47005 290.807961 
z
" style="fill:#1f77b4;"/>
   </g>
   <g id="patch_198">
    <path clip-path="url(#pf2016a3ed2)" d="M 288.203892 325.921635 
L 288.790965 325.921635 
L 288.790965 211.10089 
L 288.203892 211.10089 
z
" style="fill:#1f77b4;"/>
   </g>
   <g id="patch_199">
    <path clip-path="url(#pf2016a3ed2)" d="M 288.937734 325.921635 
L 289.524807 325.921635 
L 289.524807 205.587173 
L 288.937734 205.587173 
z
" style="fill:#1f77b4;"/>
   </g>
   <g id="patch_200">
    <path clip-path="url(#pf2016a3ed2)" d="M 289.671576 325.921635 
L 290.25865 325.921635 
L 290.25865 177.583292 
L 289.671576 177.583292 
z
" style="fill:#1f77b4;"/>
   </g>
   <g id="patch_201">
    <path clip-path="url(#pf2016a3ed2)" d="M 290.405418 325.921635 
L 290.992492 325.921635 
L 290.992492 109.870974 
L 290.405418 109.870974 
z
" style="fill:#1f77b4;"/>
   </g>
   <g id="patch_202">
    <path clip-path="url(#pf2016a3ed2)" d="M 291.13926 325.921635 
L 291.726334 325.921635 
L 291.726334 279.103404 
L 291.13926 279.103404 
z
" style="fill:#1f77b4;"/>
   </g>
   <g id="patch_203">
    <path clip-path="url(#pf2016a3ed2)" d="M 291.873102 325.921635 
L 292.460176 325.921635 
L 292.460176 270.68773 
L 291.873102 270.68773 
z
" style="fill:#1f77b4;"/>
   </g>
   <g id="patch_204">
    <path clip-path="url(#pf2016a3ed2)" d="M 292.606944 325.921635 
L 293.194018 325.921635 
L 293.194018 219.419832 
L 292.606944 219.419832 
z
" style="fill:#1f77b4;"/>
   </g>
   <g id="patch_205">
    <path clip-path="url(#pf2016a3ed2)" d="M 293.340786 325.921635 
L 293.92786 325.921635 
L 293.92786 204.619854 
L 293.340786 204.619854 
z
" style="fill:#1f77b4;"/>
   </g>
   <g id="patch_206">
    <path clip-path="url(#pf2016a3ed2)" d="M 294.074628 325.921635 
L 294.661702 325.921635 
L 294.661702 244.086462 
L 294.074628 244.086462 
z
" style="fill:#1f77b4;"/>
   </g>
   <g id="patch_207">
    <path clip-path="url(#pf2016a3ed2)" d="M 294.808471 325.921635 
L 295.395544 325.921635 
L 295.395544 222.708716 
L 294.808471 222.708716 
z
" style="fill:#1f77b4;"/>
   </g>
   <g id="patch_208">
    <path clip-path="url(#pf2016a3ed2)" d="M 295.542313 325.921635 
L 296.129386 325.921635 
L 296.129386 254.968799 
L 295.542313 254.968799 
z
" style="fill:#1f77b4;"/>
   </g>
   <g id="patch_209">
    <path clip-path="url(#pf2016a3ed2)" d="M 296.276155 325.921635 
L 296.863228 325.921635 
L 296.863228 170.038206 
L 296.276155 170.038206 
z
" style="fill:#1f77b4;"/>
   </g>
   <g id="patch_210">
    <path clip-path="url(#pf2016a3ed2)" d="M 297.009997 325.921635 
L 297.597071 325.921635 
L 297.597071 241.619799 
L 297.009997 241.619799 
z
" style="fill:#1f77b4;"/>
   </g>
   <g id="patch_211">
    <path clip-path="url(#pf2016a3ed2)" d="M 297.743839 325.921635 
L 298.330913 325.921635 
L 298.330913 157.608159 
L 297.743839 157.608159 
z
" style="fill:#1f77b4;"/>
   </g>
   <g id="patch_212">
    <path clip-path="url(#pf2016a3ed2)" d="M 298.477681 325.921635 
L 299.064755 325.921635 
L 299.064755 258.499513 
L 298.477681 258.499513 
z
" style="fill:#1f77b4;"/>
   </g>
   <g id="patch_213">
    <path clip-path="url(#pf2016a3ed2)" d="M 299.211523 325.921635 
L 299.798597 325.921635 
L 299.798597 258.112585 
L 299.211523 258.112585 
z
" style="fill:#1f77b4;"/>
   </g>
   <g id="patch_214">
    <path clip-path="url(#pf2016a3ed2)" d="M 299.945365 325.921635 
L 300.532439 325.921635 
L 300.532439 228.754459 
L 299.945365 228.754459 
z
" style="fill:#1f77b4;"/>
   </g>
   <g id="patch_215">
    <path clip-path="url(#pf2016a3ed2)" d="M 300.679207 325.921635 
L 301.266281 325.921635 
L 301.266281 275.040665 
L 300.679207 275.040665 
z
" style="fill:#1f77b4;"/>
   </g>
   <g id="patch_216">
    <path clip-path="url(#pf2016a3ed2)" d="M 301.413049 325.921635 
L 302.000123 325.921635 
L 302.000123 290.324302 
L 301.413049 290.324302 
z
" style="fill:#1f77b4;"/>
   </g>
   <g id="patch_217">
    <path clip-path="url(#pf2016a3ed2)" d="M 302.146892 325.921635 
L 302.733965 325.921635 
L 302.733965 259.466831 
L 302.146892 259.466831 
z
" style="fill:#1f77b4;"/>
   </g>
   <g id="patch_218">
    <path clip-path="url(#pf2016a3ed2)" d="M 302.880734 325.921635 
L 303.467807 325.921635 
L 303.467807 209.988473 
L 302.880734 209.988473 
z
" style="fill:#1f77b4;"/>
   </g>
   <g id="patch_219">
    <path clip-path="url(#pf2016a3ed2)" d="M 303.614576 325.921635 
L 304.201649 325.921635 
L 304.201649 150.836927 
L 303.614576 150.836927 
z
" style="fill:#1f77b4;"/>
   </g>
   <g id="patch_220">
    <path clip-path="url(#pf2016a3ed2)" d="M 304.348418 325.921635 
L 304.935491 325.921635 
L 304.935491 308.800092 
L 304.348418 308.800092 
z
" style="fill:#1f77b4;"/>
   </g>
   <g id="patch_221">
    <path clip-path="url(#pf2016a3ed2)" d="M 305.08226 325.921635 
L 305.669334 325.921635 
L 305.669334 32.775664 
L 305.08226 32.775664 
z
" style="fill:#1f77b4;"/>
   </g>
   <g id="patch_222">
    <path clip-path="url(#pf2016a3ed2)" d="M 305.816102 325.921635 
L 306.403176 325.921635 
L 306.403176 221.499567 
L 305.816102 221.499567 
z
" style="fill:#1f77b4;"/>
   </g>
   <g id="patch_223">
    <path clip-path="url(#pf2016a3ed2)" d="M 306.549944 325.921635 
L 307.137018 325.921635 
L 307.137018 297.095534 
L 306.549944 297.095534 
z
" style="fill:#1f77b4;"/>
   </g>
   <g id="matplotlib.axis_3">
    <g id="xtick_3">
     <g id="line2d_10">
      <g>
       <use style="stroke:#000000;stroke-width:0.8;" x="228.322377" xlink:href="#m6b0d997d88" y="325.921635"/>
      </g>
     </g>
     <g id="text_10">
      <!-- 0 -->
      <g transform="translate(225.141127 340.520072)scale(0.1 -0.1)">
       <use xlink:href="#DejaVuSans-48"/>
      </g>
     </g>
    </g>
    <g id="xtick_4">
     <g id="line2d_11">
      <g>
       <use style="stroke:#000000;stroke-width:0.8;" x="301.706586" xlink:href="#m6b0d997d88" y="325.921635"/>
      </g>
     </g>
     <g id="text_11">
      <!-- 100 -->
      <g transform="translate(292.162836 340.520072)scale(0.1 -0.1)">
       <use xlink:href="#DejaVuSans-49"/>
       <use x="63.623047" xlink:href="#DejaVuSans-48"/>
       <use x="127.246094" xlink:href="#DejaVuSans-48"/>
      </g>
     </g>
    </g>
   </g>
   <g id="matplotlib.axis_4">
    <g id="ytick_7">
     <g id="line2d_12">
      <g>
       <use style="stroke:#000000;stroke-width:0.8;" x="224.073431" xlink:href="#m5383f12386" y="325.921635"/>
      </g>
     </g>
     <g id="text_12">
      <!-- 0 -->
      <g transform="translate(210.710931 329.720854)scale(0.1 -0.1)">
       <use xlink:href="#DejaVuSans-48"/>
      </g>
     </g>
    </g>
    <g id="ytick_8">
     <g id="line2d_13">
      <g>
       <use style="stroke:#000000;stroke-width:0.8;" x="224.073431" xlink:href="#m5383f12386" y="277.555694"/>
      </g>
     </g>
     <g id="text_13">
      <!-- 1000 -->
      <g transform="translate(191.623431 281.354912)scale(0.1 -0.1)">
       <use xlink:href="#DejaVuSans-49"/>
       <use x="63.623047" xlink:href="#DejaVuSans-48"/>
       <use x="127.246094" xlink:href="#DejaVuSans-48"/>
       <use x="190.869141" xlink:href="#DejaVuSans-48"/>
      </g>
     </g>
    </g>
    <g id="ytick_9">
     <g id="line2d_14">
      <g>
       <use style="stroke:#000000;stroke-width:0.8;" x="224.073431" xlink:href="#m5383f12386" y="229.189752"/>
      </g>
     </g>
     <g id="text_14">
      <!-- 2000 -->
      <g transform="translate(191.623431 232.988971)scale(0.1 -0.1)">
       <use xlink:href="#DejaVuSans-50"/>
       <use x="63.623047" xlink:href="#DejaVuSans-48"/>
       <use x="127.246094" xlink:href="#DejaVuSans-48"/>
       <use x="190.869141" xlink:href="#DejaVuSans-48"/>
      </g>
     </g>
    </g>
    <g id="ytick_10">
     <g id="line2d_15">
      <g>
       <use style="stroke:#000000;stroke-width:0.8;" x="224.073431" xlink:href="#m5383f12386" y="180.823811"/>
      </g>
     </g>
     <g id="text_15">
      <!-- 3000 -->
      <defs>
       <path d="M 40.578125 39.3125 
Q 47.65625 37.796875 51.625 33 
Q 55.609375 28.21875 55.609375 21.1875 
Q 55.609375 10.40625 48.1875 4.484375 
Q 40.765625 -1.421875 27.09375 -1.421875 
Q 22.515625 -1.421875 17.65625 -0.515625 
Q 12.796875 0.390625 7.625 2.203125 
L 7.625 11.71875 
Q 11.71875 9.328125 16.59375 8.109375 
Q 21.484375 6.890625 26.8125 6.890625 
Q 36.078125 6.890625 40.9375 10.546875 
Q 45.796875 14.203125 45.796875 21.1875 
Q 45.796875 27.640625 41.28125 31.265625 
Q 36.765625 34.90625 28.71875 34.90625 
L 20.21875 34.90625 
L 20.21875 43.015625 
L 29.109375 43.015625 
Q 36.375 43.015625 40.234375 45.921875 
Q 44.09375 48.828125 44.09375 54.296875 
Q 44.09375 59.90625 40.109375 62.90625 
Q 36.140625 65.921875 28.71875 65.921875 
Q 24.65625 65.921875 20.015625 65.03125 
Q 15.375 64.15625 9.8125 62.3125 
L 9.8125 71.09375 
Q 15.4375 72.65625 20.34375 73.4375 
Q 25.25 74.21875 29.59375 74.21875 
Q 40.828125 74.21875 47.359375 69.109375 
Q 53.90625 64.015625 53.90625 55.328125 
Q 53.90625 49.265625 50.4375 45.09375 
Q 46.96875 40.921875 40.578125 39.3125 
z
" id="DejaVuSans-51"/>
      </defs>
      <g transform="translate(191.623431 184.623029)scale(0.1 -0.1)">
       <use xlink:href="#DejaVuSans-51"/>
       <use x="63.623047" xlink:href="#DejaVuSans-48"/>
       <use x="127.246094" xlink:href="#DejaVuSans-48"/>
       <use x="190.869141" xlink:href="#DejaVuSans-48"/>
      </g>
     </g>
    </g>
    <g id="ytick_11">
     <g id="line2d_16">
      <g>
       <use style="stroke:#000000;stroke-width:0.8;" x="224.073431" xlink:href="#m5383f12386" y="132.457869"/>
      </g>
     </g>
     <g id="text_16">
      <!-- 4000 -->
      <g transform="translate(191.623431 136.257088)scale(0.1 -0.1)">
       <use xlink:href="#DejaVuSans-52"/>
       <use x="63.623047" xlink:href="#DejaVuSans-48"/>
       <use x="127.246094" xlink:href="#DejaVuSans-48"/>
       <use x="190.869141" xlink:href="#DejaVuSans-48"/>
      </g>
     </g>
    </g>
    <g id="ytick_12">
     <g id="line2d_17">
      <g>
       <use style="stroke:#000000;stroke-width:0.8;" x="224.073431" xlink:href="#m5383f12386" y="84.091928"/>
      </g>
     </g>
     <g id="text_17">
      <!-- 5000 -->
      <defs>
       <path d="M 10.796875 72.90625 
L 49.515625 72.90625 
L 49.515625 64.59375 
L 19.828125 64.59375 
L 19.828125 46.734375 
Q 21.96875 47.46875 24.109375 47.828125 
Q 26.265625 48.1875 28.421875 48.1875 
Q 40.625 48.1875 47.75 41.5 
Q 54.890625 34.8125 54.890625 23.390625 
Q 54.890625 11.625 47.5625 5.09375 
Q 40.234375 -1.421875 26.90625 -1.421875 
Q 22.3125 -1.421875 17.546875 -0.640625 
Q 12.796875 0.140625 7.71875 1.703125 
L 7.71875 11.625 
Q 12.109375 9.234375 16.796875 8.0625 
Q 21.484375 6.890625 26.703125 6.890625 
Q 35.15625 6.890625 40.078125 11.328125 
Q 45.015625 15.765625 45.015625 23.390625 
Q 45.015625 31 40.078125 35.4375 
Q 35.15625 39.890625 26.703125 39.890625 
Q 22.75 39.890625 18.8125 39.015625 
Q 14.890625 38.140625 10.796875 36.28125 
z
" id="DejaVuSans-53"/>
      </defs>
      <g transform="translate(191.623431 87.891146)scale(0.1 -0.1)">
       <use xlink:href="#DejaVuSans-53"/>
       <use x="63.623047" xlink:href="#DejaVuSans-48"/>
       <use x="127.246094" xlink:href="#DejaVuSans-48"/>
       <use x="190.869141" xlink:href="#DejaVuSans-48"/>
      </g>
     </g>
    </g>
    <g id="ytick_13">
     <g id="line2d_18">
      <g>
       <use style="stroke:#000000;stroke-width:0.8;" x="224.073431" xlink:href="#m5383f12386" y="35.725986"/>
      </g>
     </g>
     <g id="text_18">
      <!-- 6000 -->
      <g transform="translate(191.623431 39.525205)scale(0.1 -0.1)">
       <use xlink:href="#DejaVuSans-54"/>
       <use x="63.623047" xlink:href="#DejaVuSans-48"/>
       <use x="127.246094" xlink:href="#DejaVuSans-48"/>
       <use x="190.869141" xlink:href="#DejaVuSans-48"/>
      </g>
     </g>
    </g>
   </g>
   <g id="line2d_19">
    <path clip-path="url(#pf2016a3ed2)" d="M 228.322377 325.878164 
L 229.056219 325.861404 
L 229.790061 325.840394 
L 230.523903 325.818074 
L 231.257745 325.789792 
L 231.991587 325.753049 
L 232.725429 325.703555 
L 233.459271 325.635629 
L 234.193113 325.544155 
L 234.926956 325.426111 
L 235.660798 325.277306 
L 236.39464 325.097984 
L 237.128482 324.890177 
L 237.862324 324.660857 
L 238.596166 324.418685 
L 239.330008 324.171014 
L 240.06385 323.924027 
L 240.797692 323.684937 
L 241.531534 323.453401 
L 242.265377 323.227203 
L 242.999219 322.995022 
L 243.733061 322.743503 
L 244.466903 322.461969 
L 245.200745 322.136199 
L 245.934587 321.755778 
L 246.668429 321.317504 
L 247.402271 320.812753 
L 248.136113 320.247188 
L 248.869955 319.629913 
L 249.603797 318.972753 
L 250.33764 318.29436 
L 251.071482 317.605251 
L 251.805324 316.915599 
L 252.539166 316.25872 
L 253.273008 315.649382 
L 254.00685 315.102692 
L 254.740692 314.615729 
L 255.474534 314.191172 
L 256.208376 313.8316 
L 256.942218 313.532883 
L 257.676061 313.243715 
L 258.409903 312.929931 
L 259.143745 312.547233 
L 259.877587 312.084403 
L 260.611429 311.494101 
L 261.345271 310.749938 
L 262.079113 309.826554 
L 262.812955 308.766733 
L 263.546797 307.605548 
L 264.280639 306.381331 
L 265.014481 305.097791 
L 265.748324 303.798497 
L 266.482166 302.48047 
L 267.216008 301.164518 
L 267.94985 299.803221 
L 268.683692 298.353633 
L 269.417534 296.80977 
L 270.151376 295.195463 
L 270.885218 293.566311 
L 271.61906 292.03528 
L 272.352902 290.659882 
L 273.086745 289.473194 
L 273.820587 288.485349 
L 274.554429 287.589461 
L 275.288271 286.634108 
L 276.022113 285.343214 
L 276.755955 283.427774 
L 277.489797 280.608046 
L 278.223639 276.857197 
L 278.957481 272.202222 
L 279.691323 266.86537 
L 280.425165 261.125415 
L 281.159008 255.370714 
L 281.89285 249.8687 
L 282.626692 245.061355 
L 283.360534 241.003209 
L 284.094376 237.655726 
L 284.828218 234.812167 
L 285.56206 232.266861 
L 286.295902 229.846953 
L 287.029744 227.701991 
L 287.763586 225.634845 
L 288.497429 223.67682 
L 289.231271 221.959638 
L 289.965113 220.704057 
L 290.698955 220.061683 
L 291.432797 220.055297 
L 292.166639 220.308347 
L 292.900481 220.83159 
L 293.634323 221.633022 
L 294.368165 222.722152 
L 295.102007 223.98434 
L 295.83585 225.372166 
L 296.569692 226.836984 
L 297.303534 228.535029 
L 298.037376 230.290223 
L 298.771218 231.768537 
L 299.50506 232.527788 
L 300.238902 232.391251 
L 300.972744 231.054651 
L 301.706586 228.452136 
L 302.440428 224.610317 
L 303.17427 219.906755 
L 303.908113 214.69816 
L 304.641955 209.506063 
L 305.375797 205.996561 
L 306.109639 202.736926 
L 306.843481 200.007181 
" style="fill:none;stroke:#ff0000;stroke-linecap:square;stroke-width:1.5;"/>
   </g>
   <g id="patch_224">
    <path d="M 224.073431 325.921635 
L 224.073431 18.118365 
" style="fill:none;stroke:#000000;stroke-linecap:square;stroke-linejoin:miter;stroke-width:0.8;"/>
   </g>
   <g id="patch_225">
    <path d="M 311.092427 325.921635 
L 311.092427 18.118365 
" style="fill:none;stroke:#000000;stroke-linecap:square;stroke-linejoin:miter;stroke-width:0.8;"/>
   </g>
   <g id="patch_226">
    <path d="M 224.073431 325.921635 
L 311.092427 325.921635 
" style="fill:none;stroke:#000000;stroke-linecap:square;stroke-linejoin:miter;stroke-width:0.8;"/>
   </g>
   <g id="patch_227">
    <path d="M 224.073431 18.118365 
L 311.092427 18.118365 
" style="fill:none;stroke:#000000;stroke-linecap:square;stroke-linejoin:miter;stroke-width:0.8;"/>
   </g>
   <g id="text_19">
    <!-- Casos novos - RJ - (data) -->
    <defs>
     <path d="M 54.890625 33.015625 
L 54.890625 0 
L 45.90625 0 
L 45.90625 32.71875 
Q 45.90625 40.484375 42.875 44.328125 
Q 39.84375 48.1875 33.796875 48.1875 
Q 26.515625 48.1875 22.3125 43.546875 
Q 18.109375 38.921875 18.109375 30.90625 
L 18.109375 0 
L 9.078125 0 
L 9.078125 54.6875 
L 18.109375 54.6875 
L 18.109375 46.1875 
Q 21.34375 51.125 25.703125 53.5625 
Q 30.078125 56 35.796875 56 
Q 45.21875 56 50.046875 50.171875 
Q 54.890625 44.34375 54.890625 33.015625 
z
" id="DejaVuSans-110"/>
     <path d="M 2.984375 54.6875 
L 12.5 54.6875 
L 29.59375 8.796875 
L 46.6875 54.6875 
L 56.203125 54.6875 
L 35.6875 0 
L 23.484375 0 
z
" id="DejaVuSans-118"/>
    </defs>
    <g transform="translate(193.972304 12.118365)scale(0.12 -0.12)">
     <use xlink:href="#DejaVuSans-67"/>
     <use x="69.824219" xlink:href="#DejaVuSans-97"/>
     <use x="131.103516" xlink:href="#DejaVuSans-115"/>
     <use x="183.203125" xlink:href="#DejaVuSans-111"/>
     <use x="244.384766" xlink:href="#DejaVuSans-115"/>
     <use x="296.484375" xlink:href="#DejaVuSans-32"/>
     <use x="328.271484" xlink:href="#DejaVuSans-110"/>
     <use x="391.650391" xlink:href="#DejaVuSans-111"/>
     <use x="452.832031" xlink:href="#DejaVuSans-118"/>
     <use x="512.011719" xlink:href="#DejaVuSans-111"/>
     <use x="573.193359" xlink:href="#DejaVuSans-115"/>
     <use x="625.292969" xlink:href="#DejaVuSans-32"/>
     <use x="657.080078" xlink:href="#DejaVuSans-45"/>
     <use x="693.164062" xlink:href="#DejaVuSans-32"/>
     <use x="724.951172" xlink:href="#DejaVuSans-82"/>
     <use x="794.433594" xlink:href="#DejaVuSans-74"/>
     <use x="823.925781" xlink:href="#DejaVuSans-32"/>
     <use x="855.712891" xlink:href="#DejaVuSans-45"/>
     <use x="891.796875" xlink:href="#DejaVuSans-32"/>
     <use x="923.583984" xlink:href="#DejaVuSans-40"/>
     <use x="962.597656" xlink:href="#DejaVuSans-100"/>
     <use x="1026.074219" xlink:href="#DejaVuSans-97"/>
     <use x="1087.353516" xlink:href="#DejaVuSans-116"/>
     <use x="1126.5625" xlink:href="#DejaVuSans-97"/>
     <use x="1187.841797" xlink:href="#DejaVuSans-41"/>
    </g>
   </g>
  </g>
  <g id="axes_3">
   <g id="patch_228">
    <path d="M 370.780764 325.921635 
L 457.79976 325.921635 
L 457.79976 18.118365 
L 370.780764 18.118365 
z
" style="fill:#ffffff;"/>
   </g>
   <g id="matplotlib.axis_5">
    <g id="xtick_5">
     <g id="line2d_20">
      <g>
       <use style="stroke:#000000;stroke-width:0.8;" x="374.736173" xlink:href="#m6b0d997d88" y="325.921635"/>
      </g>
     </g>
     <g id="text_20">
      <!-- 0 -->
      <g transform="translate(371.554923 340.520072)scale(0.1 -0.1)">
       <use xlink:href="#DejaVuSans-48"/>
      </g>
     </g>
    </g>
    <g id="xtick_6">
     <g id="line2d_21">
      <g>
       <use style="stroke:#000000;stroke-width:0.8;" x="448.66905" xlink:href="#m6b0d997d88" y="325.921635"/>
      </g>
     </g>
     <g id="text_21">
      <!-- 100 -->
      <g transform="translate(439.1253 340.520072)scale(0.1 -0.1)">
       <use xlink:href="#DejaVuSans-49"/>
       <use x="63.623047" xlink:href="#DejaVuSans-48"/>
       <use x="127.246094" xlink:href="#DejaVuSans-48"/>
      </g>
     </g>
    </g>
   </g>
   <g id="matplotlib.axis_6">
    <g id="ytick_14">
     <g id="line2d_22">
      <g>
       <use style="stroke:#000000;stroke-width:0.8;" x="370.780764" xlink:href="#m5383f12386" y="304.619496"/>
      </g>
     </g>
     <g id="text_22">
      <!-- 1.0 -->
      <defs>
       <path d="M 10.6875 12.40625 
L 21 12.40625 
L 21 0 
L 10.6875 0 
z
" id="DejaVuSans-46"/>
      </defs>
      <g transform="translate(347.877639 308.418714)scale(0.1 -0.1)">
       <use xlink:href="#DejaVuSans-49"/>
       <use x="63.623047" xlink:href="#DejaVuSans-46"/>
       <use x="95.410156" xlink:href="#DejaVuSans-48"/>
      </g>
     </g>
    </g>
    <g id="ytick_15">
     <g id="line2d_23">
      <g>
       <use style="stroke:#000000;stroke-width:0.8;" x="370.780764" xlink:href="#m5383f12386" y="244.43698"/>
      </g>
     </g>
     <g id="text_23">
      <!-- 1.5 -->
      <g transform="translate(347.877639 248.236199)scale(0.1 -0.1)">
       <use xlink:href="#DejaVuSans-49"/>
       <use x="63.623047" xlink:href="#DejaVuSans-46"/>
       <use x="95.410156" xlink:href="#DejaVuSans-53"/>
      </g>
     </g>
    </g>
    <g id="ytick_16">
     <g id="line2d_24">
      <g>
       <use style="stroke:#000000;stroke-width:0.8;" x="370.780764" xlink:href="#m5383f12386" y="184.254464"/>
      </g>
     </g>
     <g id="text_24">
      <!-- 2.0 -->
      <g transform="translate(347.877639 188.053683)scale(0.1 -0.1)">
       <use xlink:href="#DejaVuSans-50"/>
       <use x="63.623047" xlink:href="#DejaVuSans-46"/>
       <use x="95.410156" xlink:href="#DejaVuSans-48"/>
      </g>
     </g>
    </g>
    <g id="ytick_17">
     <g id="line2d_25">
      <g>
       <use style="stroke:#000000;stroke-width:0.8;" x="370.780764" xlink:href="#m5383f12386" y="124.071949"/>
      </g>
     </g>
     <g id="text_25">
      <!-- 2.5 -->
      <g transform="translate(347.877639 127.871167)scale(0.1 -0.1)">
       <use xlink:href="#DejaVuSans-50"/>
       <use x="63.623047" xlink:href="#DejaVuSans-46"/>
       <use x="95.410156" xlink:href="#DejaVuSans-53"/>
      </g>
     </g>
    </g>
    <g id="ytick_18">
     <g id="line2d_26">
      <g>
       <use style="stroke:#000000;stroke-width:0.8;" x="370.780764" xlink:href="#m5383f12386" y="63.889433"/>
      </g>
     </g>
     <g id="text_26">
      <!-- 3.0 -->
      <g transform="translate(347.877639 67.688652)scale(0.1 -0.1)">
       <use xlink:href="#DejaVuSans-51"/>
       <use x="63.623047" xlink:href="#DejaVuSans-46"/>
       <use x="95.410156" xlink:href="#DejaVuSans-48"/>
      </g>
     </g>
    </g>
   </g>
   <g id="line2d_27">
    <path clip-path="url(#p1494369a27)" d="M 374.736173 32.109423 
L 375.475502 65.380271 
L 376.214831 82.268378 
L 376.95416 119.317738 
L 377.693488 120.182019 
L 378.432817 117.228645 
L 379.172146 109.481843 
L 379.911475 100.411208 
L 380.650803 96.251771 
L 381.390132 99.775877 
L 382.129461 106.02251 
L 382.86879 117.385244 
L 383.608118 131.343614 
L 384.347447 148.167358 
L 385.086776 166.00265 
L 385.826105 182.891133 
L 386.565433 198.215542 
L 387.304762 212.605245 
L 388.044091 223.848564 
L 388.78342 232.312641 
L 389.522749 236.268256 
L 390.262077 236.418092 
L 391.001406 234.475774 
L 391.740735 230.424502 
L 392.480064 225.872792 
L 393.219392 222.511001 
L 393.958721 219.373587 
L 394.69805 218.588238 
L 395.437379 219.891906 
L 396.176707 222.897331 
L 396.916036 227.701403 
L 397.655365 232.895961 
L 398.394694 238.26614 
L 399.134022 245.63186 
L 399.873351 253.054943 
L 400.61268 260.591709 
L 401.352009 266.985536 
L 402.091338 272.88181 
L 402.830666 278.412426 
L 403.569995 283.236132 
L 404.309324 284.3242 
L 405.048653 283.124108 
L 405.787981 279.226054 
L 406.52731 275.000776 
L 407.266639 268.491336 
L 408.005968 261.394318 
L 408.745296 254.123528 
L 409.484625 250.228574 
L 410.223954 248.742627 
L 410.963283 249.299072 
L 411.702611 250.081913 
L 412.44194 252.505937 
L 413.181269 254.576573 
L 413.920598 257.140561 
L 414.659927 257.930368 
L 415.399255 257.412822 
L 416.138584 256.898437 
L 416.877913 257.198866 
L 417.617242 258.970934 
L 418.35657 263.347951 
L 419.095899 268.609653 
L 419.835228 274.117769 
L 420.574557 279.393915 
L 421.313885 281.915197 
L 422.053214 280.965373 
L 422.792543 274.257845 
L 423.531872 262.454067 
L 424.2712 247.177478 
L 425.010529 234.407297 
L 425.749858 225.099451 
L 426.489187 221.456195 
L 427.228516 222.634816 
L 427.967844 228.437479 
L 428.707173 236.21284 
L 429.446502 247.290481 
L 430.185831 257.323325 
L 430.925159 265.793793 
L 431.664488 271.478673 
L 432.403817 274.776657 
L 433.143146 276.244592 
L 433.882474 278.945088 
L 434.621803 279.732778 
L 435.361132 280.734322 
L 436.100461 282.803889 
L 436.83979 286.6645 
L 437.579118 291.720228 
L 438.318447 296.939265 
L 439.057776 298.931267 
L 439.797105 301.053379 
L 440.536433 303.303303 
L 441.275762 305.71943 
L 442.015091 307.189788 
L 442.75442 308.29343 
L 443.493748 308.998539 
L 444.233077 311.264631 
L 444.972406 311.930577 
L 445.711735 309.274023 
L 446.451063 302.011117 
L 447.190392 292.820585 
L 447.929721 280.721151 
L 448.66905 268.551244 
L 449.408379 257.590608 
L 450.147707 251.038015 
L 450.887036 248.185132 
L 451.626365 249.751313 
L 452.365694 263.834016 
L 453.105022 266.02763 
L 453.844351 270.133108 
" style="fill:none;stroke:#ff0000;stroke-linecap:square;stroke-width:1.5;"/>
   </g>
   <g id="patch_229">
    <path d="M 370.780764 325.921635 
L 370.780764 18.118365 
" style="fill:none;stroke:#000000;stroke-linecap:square;stroke-linejoin:miter;stroke-width:0.8;"/>
   </g>
   <g id="patch_230">
    <path d="M 457.79976 325.921635 
L 457.79976 18.118365 
" style="fill:none;stroke:#000000;stroke-linecap:square;stroke-linejoin:miter;stroke-width:0.8;"/>
   </g>
   <g id="patch_231">
    <path d="M 370.780764 325.921635 
L 457.79976 325.921635 
" style="fill:none;stroke:#000000;stroke-linecap:square;stroke-linejoin:miter;stroke-width:0.8;"/>
   </g>
   <g id="patch_232">
    <path d="M 370.780764 18.118365 
L 457.79976 18.118365 
" style="fill:none;stroke:#000000;stroke-linecap:square;stroke-linejoin:miter;stroke-width:0.8;"/>
   </g>
   <g id="text_27">
    <!-- r0 - RJ - (data) -->
    <defs>
     <path d="M 41.109375 46.296875 
Q 39.59375 47.171875 37.8125 47.578125 
Q 36.03125 48 33.890625 48 
Q 26.265625 48 22.1875 43.046875 
Q 18.109375 38.09375 18.109375 28.8125 
L 18.109375 0 
L 9.078125 0 
L 9.078125 54.6875 
L 18.109375 54.6875 
L 18.109375 46.1875 
Q 20.953125 51.171875 25.484375 53.578125 
Q 30.03125 56 36.53125 56 
Q 37.453125 56 38.578125 55.875 
Q 39.703125 55.765625 41.0625 55.515625 
z
" id="DejaVuSans-114"/>
    </defs>
    <g transform="translate(371.913387 12.118365)scale(0.12 -0.12)">
     <use xlink:href="#DejaVuSans-114"/>
     <use x="41.113281" xlink:href="#DejaVuSans-48"/>
     <use x="104.736328" xlink:href="#DejaVuSans-32"/>
     <use x="136.523438" xlink:href="#DejaVuSans-45"/>
     <use x="172.607422" xlink:href="#DejaVuSans-32"/>
     <use x="204.394531" xlink:href="#DejaVuSans-82"/>
     <use x="273.876953" xlink:href="#DejaVuSans-74"/>
     <use x="303.369141" xlink:href="#DejaVuSans-32"/>
     <use x="335.15625" xlink:href="#DejaVuSans-45"/>
     <use x="371.240234" xlink:href="#DejaVuSans-32"/>
     <use x="403.027344" xlink:href="#DejaVuSans-40"/>
     <use x="442.041016" xlink:href="#DejaVuSans-100"/>
     <use x="505.517578" xlink:href="#DejaVuSans-97"/>
     <use x="566.796875" xlink:href="#DejaVuSans-116"/>
     <use x="606.005859" xlink:href="#DejaVuSans-97"/>
     <use x="667.285156" xlink:href="#DejaVuSans-41"/>
    </g>
   </g>
  </g>
 </g>
 <defs>
  <clipPath id="p5807185840">
   <rect height="307.80327" width="87.018996" x="49.266098" y="18.118365"/>
  </clipPath>
  <clipPath id="pf2016a3ed2">
   <rect height="307.80327" width="87.018996" x="224.073431" y="18.118365"/>
  </clipPath>
  <clipPath id="p1494369a27">
   <rect height="307.80327" width="87.018996" x="370.780764" y="18.118365"/>
  </clipPath>
 </defs>
</svg>
