<?xml version="1.0" encoding="utf-8" standalone="no"?>
<!DOCTYPE svg PUBLIC "-//W3C//DTD SVG 1.1//EN"
  "http://www.w3.org/Graphics/SVG/1.1/DTD/svg11.dtd">
<!-- Created with matplotlib (https://matplotlib.org/) -->
<svg height="345.6pt" version="1.1" viewBox="0 0 460.8 345.6" width="460.8pt" xmlns="http://www.w3.org/2000/svg" xmlns:xlink="http://www.w3.org/1999/xlink">
 <defs>
  <style type="text/css">
*{stroke-linecap:butt;stroke-linejoin:round;}
  </style>
 </defs>
 <g id="figure_1">
  <g id="patch_1">
   <path d="M 0 345.6 
L 460.8 345.6 
L 460.8 0 
L 0 0 
z
" style="fill:#ffffff;"/>
  </g>
  <g id="axes_1">
   <g id="patch_2">
    <path d="M 53.378395 325.921635 
L 134.180012 325.921635 
L 134.180012 18.118365 
L 53.378395 18.118365 
z
" style="fill:#ffffff;"/>
   </g>
   <g id="patch_3">
    <path clip-path="url(#pe8b66a3958)" d="M 57.051196 325.921635 
L 57.640021 325.921635 
L 57.640021 325.906438 
L 57.051196 325.906438 
z
" style="fill:#1f77b4;"/>
   </g>
   <g id="patch_4">
    <path clip-path="url(#pe8b66a3958)" d="M 57.787228 325.921635 
L 58.376054 325.921635 
L 58.376054 325.906438 
L 57.787228 325.906438 
z
" style="fill:#1f77b4;"/>
   </g>
   <g id="patch_5">
    <path clip-path="url(#pe8b66a3958)" d="M 58.52326 325.921635 
L 59.112086 325.921635 
L 59.112086 325.906438 
L 58.52326 325.906438 
z
" style="fill:#1f77b4;"/>
   </g>
   <g id="patch_6">
    <path clip-path="url(#pe8b66a3958)" d="M 59.259292 325.921635 
L 59.848118 325.921635 
L 59.848118 325.906438 
L 59.259292 325.906438 
z
" style="fill:#1f77b4;"/>
   </g>
   <g id="patch_7">
    <path clip-path="url(#pe8b66a3958)" d="M 59.995324 325.921635 
L 60.58415 325.921635 
L 60.58415 325.906438 
L 59.995324 325.906438 
z
" style="fill:#1f77b4;"/>
   </g>
   <g id="patch_8">
    <path clip-path="url(#pe8b66a3958)" d="M 60.731357 325.921635 
L 61.320182 325.921635 
L 61.320182 325.906438 
L 60.731357 325.906438 
z
" style="fill:#1f77b4;"/>
   </g>
   <g id="patch_9">
    <path clip-path="url(#pe8b66a3958)" d="M 61.467389 325.921635 
L 62.056215 325.921635 
L 62.056215 325.906438 
L 61.467389 325.906438 
z
" style="fill:#1f77b4;"/>
   </g>
   <g id="patch_10">
    <path clip-path="url(#pe8b66a3958)" d="M 62.203421 325.921635 
L 62.792247 325.921635 
L 62.792247 325.830454 
L 62.203421 325.830454 
z
" style="fill:#1f77b4;"/>
   </g>
   <g id="patch_11">
    <path clip-path="url(#pe8b66a3958)" d="M 62.939453 325.921635 
L 63.528279 325.921635 
L 63.528279 325.784864 
L 62.939453 325.784864 
z
" style="fill:#1f77b4;"/>
   </g>
   <g id="patch_12">
    <path clip-path="url(#pe8b66a3958)" d="M 63.675486 325.921635 
L 64.264311 325.921635 
L 64.264311 325.724077 
L 63.675486 325.724077 
z
" style="fill:#1f77b4;"/>
   </g>
   <g id="patch_13">
    <path clip-path="url(#pe8b66a3958)" d="M 64.411518 325.921635 
L 65.000344 325.921635 
L 65.000344 325.724077 
L 64.411518 325.724077 
z
" style="fill:#1f77b4;"/>
   </g>
   <g id="patch_14">
    <path clip-path="url(#pe8b66a3958)" d="M 65.14755 325.921635 
L 65.736376 325.921635 
L 65.736376 325.70888 
L 65.14755 325.70888 
z
" style="fill:#1f77b4;"/>
   </g>
   <g id="patch_15">
    <path clip-path="url(#pe8b66a3958)" d="M 65.883582 325.921635 
L 66.472408 325.921635 
L 66.472408 325.632896 
L 65.883582 325.632896 
z
" style="fill:#1f77b4;"/>
   </g>
   <g id="patch_16">
    <path clip-path="url(#pe8b66a3958)" d="M 66.619614 325.921635 
L 67.20844 325.921635 
L 67.20844 325.496125 
L 66.619614 325.496125 
z
" style="fill:#1f77b4;"/>
   </g>
   <g id="patch_17">
    <path clip-path="url(#pe8b66a3958)" d="M 67.355647 325.921635 
L 67.944472 325.921635 
L 67.944472 325.23778 
L 67.355647 325.23778 
z
" style="fill:#1f77b4;"/>
   </g>
   <g id="patch_18">
    <path clip-path="url(#pe8b66a3958)" d="M 68.091679 325.921635 
L 68.680505 325.921635 
L 68.680505 324.888254 
L 68.091679 324.888254 
z
" style="fill:#1f77b4;"/>
   </g>
   <g id="patch_19">
    <path clip-path="url(#pe8b66a3958)" d="M 68.827711 325.921635 
L 69.416537 325.921635 
L 69.416537 324.751483 
L 68.827711 324.751483 
z
" style="fill:#1f77b4;"/>
   </g>
   <g id="patch_20">
    <path clip-path="url(#pe8b66a3958)" d="M 69.563743 325.921635 
L 70.152569 325.921635 
L 70.152569 324.675499 
L 69.563743 324.675499 
z
" style="fill:#1f77b4;"/>
   </g>
   <g id="patch_21">
    <path clip-path="url(#pe8b66a3958)" d="M 70.299776 325.921635 
L 70.888601 325.921635 
L 70.888601 324.523531 
L 70.299776 324.523531 
z
" style="fill:#1f77b4;"/>
   </g>
   <g id="patch_22">
    <path clip-path="url(#pe8b66a3958)" d="M 71.035808 325.921635 
L 71.624634 325.921635 
L 71.624634 324.325973 
L 71.035808 324.325973 
z
" style="fill:#1f77b4;"/>
   </g>
   <g id="patch_23">
    <path clip-path="url(#pe8b66a3958)" d="M 71.77184 325.921635 
L 72.360666 325.921635 
L 72.360666 323.247001 
L 71.77184 323.247001 
z
" style="fill:#1f77b4;"/>
   </g>
   <g id="patch_24">
    <path clip-path="url(#pe8b66a3958)" d="M 72.507872 325.921635 
L 73.096698 325.921635 
L 73.096698 322.699917 
L 72.507872 322.699917 
z
" style="fill:#1f77b4;"/>
   </g>
   <g id="patch_25">
    <path clip-path="url(#pe8b66a3958)" d="M 73.243904 325.921635 
L 73.83273 325.921635 
L 73.83273 322.244013 
L 73.243904 322.244013 
z
" style="fill:#1f77b4;"/>
   </g>
   <g id="patch_26">
    <path clip-path="url(#pe8b66a3958)" d="M 73.979937 325.921635 
L 74.568762 325.921635 
L 74.568762 322.183226 
L 73.979937 322.183226 
z
" style="fill:#1f77b4;"/>
   </g>
   <g id="patch_27">
    <path clip-path="url(#pe8b66a3958)" d="M 74.715969 325.921635 
L 75.304795 325.921635 
L 75.304795 322.061652 
L 74.715969 322.061652 
z
" style="fill:#1f77b4;"/>
   </g>
   <g id="patch_28">
    <path clip-path="url(#pe8b66a3958)" d="M 75.452001 325.921635 
L 76.040827 325.921635 
L 76.040827 321.955274 
L 75.452001 321.955274 
z
" style="fill:#1f77b4;"/>
   </g>
   <g id="patch_29">
    <path clip-path="url(#pe8b66a3958)" d="M 76.188033 325.921635 
L 76.776859 325.921635 
L 76.776859 321.955274 
L 76.188033 321.955274 
z
" style="fill:#1f77b4;"/>
   </g>
   <g id="patch_30">
    <path clip-path="url(#pe8b66a3958)" d="M 76.924066 325.921635 
L 77.512891 325.921635 
L 77.512891 321.924881 
L 76.924066 321.924881 
z
" style="fill:#1f77b4;"/>
   </g>
   <g id="patch_31">
    <path clip-path="url(#pe8b66a3958)" d="M 77.660098 325.921635 
L 78.248924 325.921635 
L 78.248924 321.529764 
L 77.660098 321.529764 
z
" style="fill:#1f77b4;"/>
   </g>
   <g id="patch_32">
    <path clip-path="url(#pe8b66a3958)" d="M 78.39613 325.921635 
L 78.984956 325.921635 
L 78.984956 321.332206 
L 78.39613 321.332206 
z
" style="fill:#1f77b4;"/>
   </g>
   <g id="patch_33">
    <path clip-path="url(#pe8b66a3958)" d="M 79.132162 325.921635 
L 79.720988 325.921635 
L 79.720988 320.769925 
L 79.132162 320.769925 
z
" style="fill:#1f77b4;"/>
   </g>
   <g id="patch_34">
    <path clip-path="url(#pe8b66a3958)" d="M 79.868194 325.921635 
L 80.45702 325.921635 
L 80.45702 320.207644 
L 79.868194 320.207644 
z
" style="fill:#1f77b4;"/>
   </g>
   <g id="patch_35">
    <path clip-path="url(#pe8b66a3958)" d="M 80.604227 325.921635 
L 81.193052 325.921635 
L 81.193052 319.858118 
L 80.604227 319.858118 
z
" style="fill:#1f77b4;"/>
   </g>
   <g id="patch_36">
    <path clip-path="url(#pe8b66a3958)" d="M 81.340259 325.921635 
L 81.929085 325.921635 
L 81.929085 319.842921 
L 81.340259 319.842921 
z
" style="fill:#1f77b4;"/>
   </g>
   <g id="patch_37">
    <path clip-path="url(#pe8b66a3958)" d="M 82.076291 325.921635 
L 82.665117 325.921635 
L 82.665117 318.885524 
L 82.076291 318.885524 
z
" style="fill:#1f77b4;"/>
   </g>
   <g id="patch_38">
    <path clip-path="url(#pe8b66a3958)" d="M 82.812323 325.921635 
L 83.401149 325.921635 
L 83.401149 318.080094 
L 82.812323 318.080094 
z
" style="fill:#1f77b4;"/>
   </g>
   <g id="patch_39">
    <path clip-path="url(#pe8b66a3958)" d="M 83.548356 325.921635 
L 84.137181 325.921635 
L 84.137181 317.852142 
L 83.548356 317.852142 
z
" style="fill:#1f77b4;"/>
   </g>
   <g id="patch_40">
    <path clip-path="url(#pe8b66a3958)" d="M 84.284388 325.921635 
L 84.873214 325.921635 
L 84.873214 316.879548 
L 84.284388 316.879548 
z
" style="fill:#1f77b4;"/>
   </g>
   <g id="patch_41">
    <path clip-path="url(#pe8b66a3958)" d="M 85.02042 325.921635 
L 85.609246 325.921635 
L 85.609246 316.68199 
L 85.02042 316.68199 
z
" style="fill:#1f77b4;"/>
   </g>
   <g id="patch_42">
    <path clip-path="url(#pe8b66a3958)" d="M 85.756452 325.921635 
L 86.345278 325.921635 
L 86.345278 316.104512 
L 85.756452 316.104512 
z
" style="fill:#1f77b4;"/>
   </g>
   <g id="patch_43">
    <path clip-path="url(#pe8b66a3958)" d="M 86.492484 325.921635 
L 87.08131 325.921635 
L 87.08131 315.162312 
L 86.492484 315.162312 
z
" style="fill:#1f77b4;"/>
   </g>
   <g id="patch_44">
    <path clip-path="url(#pe8b66a3958)" d="M 87.228517 325.921635 
L 87.817342 325.921635 
L 87.817342 314.46326 
L 87.228517 314.46326 
z
" style="fill:#1f77b4;"/>
   </g>
   <g id="patch_45">
    <path clip-path="url(#pe8b66a3958)" d="M 87.964549 325.921635 
L 88.553375 325.921635 
L 88.553375 314.052946 
L 87.964549 314.052946 
z
" style="fill:#1f77b4;"/>
   </g>
   <g id="patch_46">
    <path clip-path="url(#pe8b66a3958)" d="M 88.700581 325.921635 
L 89.289407 325.921635 
L 89.289407 313.384288 
L 88.700581 313.384288 
z
" style="fill:#1f77b4;"/>
   </g>
   <g id="patch_47">
    <path clip-path="url(#pe8b66a3958)" d="M 89.436613 325.921635 
L 90.025439 325.921635 
L 90.025439 313.27791 
L 89.436613 313.27791 
z
" style="fill:#1f77b4;"/>
   </g>
   <g id="patch_48">
    <path clip-path="url(#pe8b66a3958)" d="M 90.172646 325.921635 
L 90.761471 325.921635 
L 90.761471 312.897991 
L 90.172646 312.897991 
z
" style="fill:#1f77b4;"/>
   </g>
   <g id="patch_49">
    <path clip-path="url(#pe8b66a3958)" d="M 90.908678 325.921635 
L 91.497504 325.921635 
L 91.497504 309.417927 
L 90.908678 309.417927 
z
" style="fill:#1f77b4;"/>
   </g>
   <g id="patch_50">
    <path clip-path="url(#pe8b66a3958)" d="M 91.64471 325.921635 
L 92.233536 325.921635 
L 92.233536 308.03502 
L 91.64471 308.03502 
z
" style="fill:#1f77b4;"/>
   </g>
   <g id="patch_51">
    <path clip-path="url(#pe8b66a3958)" d="M 92.380742 325.921635 
L 92.969568 325.921635 
L 92.969568 306.211406 
L 92.380742 306.211406 
z
" style="fill:#1f77b4;"/>
   </g>
   <g id="patch_52">
    <path clip-path="url(#pe8b66a3958)" d="M 93.116774 325.921635 
L 93.7056 325.921635 
L 93.7056 305.162827 
L 93.116774 305.162827 
z
" style="fill:#1f77b4;"/>
   </g>
   <g id="patch_53">
    <path clip-path="url(#pe8b66a3958)" d="M 93.852807 325.921635 
L 94.441632 325.921635 
L 94.441632 304.767711 
L 93.852807 304.767711 
z
" style="fill:#1f77b4;"/>
   </g>
   <g id="patch_54">
    <path clip-path="url(#pe8b66a3958)" d="M 94.588839 325.921635 
L 95.177665 325.921635 
L 95.177665 304.327004 
L 94.588839 304.327004 
z
" style="fill:#1f77b4;"/>
   </g>
   <g id="patch_55">
    <path clip-path="url(#pe8b66a3958)" d="M 95.324871 325.921635 
L 95.913697 325.921635 
L 95.913697 302.579374 
L 95.324871 302.579374 
z
" style="fill:#1f77b4;"/>
   </g>
   <g id="patch_56">
    <path clip-path="url(#pe8b66a3958)" d="M 96.060903 325.921635 
L 96.649729 325.921635 
L 96.649729 302.001896 
L 96.060903 302.001896 
z
" style="fill:#1f77b4;"/>
   </g>
   <g id="patch_57">
    <path clip-path="url(#pe8b66a3958)" d="M 96.796936 325.921635 
L 97.385761 325.921635 
L 97.385761 299.494427 
L 96.796936 299.494427 
z
" style="fill:#1f77b4;"/>
   </g>
   <g id="patch_58">
    <path clip-path="url(#pe8b66a3958)" d="M 97.532968 325.921635 
L 98.121794 325.921635 
L 98.121794 298.248291 
L 97.532968 298.248291 
z
" style="fill:#1f77b4;"/>
   </g>
   <g id="patch_59">
    <path clip-path="url(#pe8b66a3958)" d="M 98.269 325.921635 
L 98.857826 325.921635 
L 98.857826 296.759006 
L 98.269 296.759006 
z
" style="fill:#1f77b4;"/>
   </g>
   <g id="patch_60">
    <path clip-path="url(#pe8b66a3958)" d="M 99.005032 325.921635 
L 99.593858 325.921635 
L 99.593858 296.622235 
L 99.005032 296.622235 
z
" style="fill:#1f77b4;"/>
   </g>
   <g id="patch_61">
    <path clip-path="url(#pe8b66a3958)" d="M 99.741064 325.921635 
L 100.32989 325.921635 
L 100.32989 295.695231 
L 99.741064 295.695231 
z
" style="fill:#1f77b4;"/>
   </g>
   <g id="patch_62">
    <path clip-path="url(#pe8b66a3958)" d="M 100.477097 325.921635 
L 101.065922 325.921635 
L 101.065922 295.026572 
L 100.477097 295.026572 
z
" style="fill:#1f77b4;"/>
   </g>
   <g id="patch_63">
    <path clip-path="url(#pe8b66a3958)" d="M 101.213129 325.921635 
L 101.801955 325.921635 
L 101.801955 289.950846 
L 101.213129 289.950846 
z
" style="fill:#1f77b4;"/>
   </g>
   <g id="patch_64">
    <path clip-path="url(#pe8b66a3958)" d="M 101.949161 325.921635 
L 102.537987 325.921635 
L 102.537987 287.367393 
L 101.949161 287.367393 
z
" style="fill:#1f77b4;"/>
   </g>
   <g id="patch_65">
    <path clip-path="url(#pe8b66a3958)" d="M 102.685193 325.921635 
L 103.274019 325.921635 
L 103.274019 283.583394 
L 102.685193 283.583394 
z
" style="fill:#1f77b4;"/>
   </g>
   <g id="patch_66">
    <path clip-path="url(#pe8b66a3958)" d="M 103.421226 325.921635 
L 104.010051 325.921635 
L 104.010051 280.270495 
L 103.421226 280.270495 
z
" style="fill:#1f77b4;"/>
   </g>
   <g id="patch_67">
    <path clip-path="url(#pe8b66a3958)" d="M 104.157258 325.921635 
L 104.746084 325.921635 
L 104.746084 278.249322 
L 104.157258 278.249322 
z
" style="fill:#1f77b4;"/>
   </g>
   <g id="patch_68">
    <path clip-path="url(#pe8b66a3958)" d="M 104.89329 325.921635 
L 105.482116 325.921635 
L 105.482116 277.535073 
L 104.89329 277.535073 
z
" style="fill:#1f77b4;"/>
   </g>
   <g id="patch_69">
    <path clip-path="url(#pe8b66a3958)" d="M 105.629322 325.921635 
L 106.218148 325.921635 
L 106.218148 272.991235 
L 105.629322 272.991235 
z
" style="fill:#1f77b4;"/>
   </g>
   <g id="patch_70">
    <path clip-path="url(#pe8b66a3958)" d="M 106.365354 325.921635 
L 106.95418 325.921635 
L 106.95418 268.234641 
L 106.365354 268.234641 
z
" style="fill:#1f77b4;"/>
   </g>
   <g id="patch_71">
    <path clip-path="url(#pe8b66a3958)" d="M 107.101387 325.921635 
L 107.690212 325.921635 
L 107.690212 264.22269 
L 107.101387 264.22269 
z
" style="fill:#1f77b4;"/>
   </g>
   <g id="patch_72">
    <path clip-path="url(#pe8b66a3958)" d="M 107.837419 325.921635 
L 108.426245 325.921635 
L 108.426245 261.320104 
L 107.837419 261.320104 
z
" style="fill:#1f77b4;"/>
   </g>
   <g id="patch_73">
    <path clip-path="url(#pe8b66a3958)" d="M 108.573451 325.921635 
L 109.162277 325.921635 
L 109.162277 256.031623 
L 108.573451 256.031623 
z
" style="fill:#1f77b4;"/>
   </g>
   <g id="patch_74">
    <path clip-path="url(#pe8b66a3958)" d="M 109.309483 325.921635 
L 109.898309 325.921635 
L 109.898309 254.542339 
L 109.309483 254.542339 
z
" style="fill:#1f77b4;"/>
   </g>
   <g id="patch_75">
    <path clip-path="url(#pe8b66a3958)" d="M 110.045516 325.921635 
L 110.634341 325.921635 
L 110.634341 253.600138 
L 110.045516 253.600138 
z
" style="fill:#1f77b4;"/>
   </g>
   <g id="patch_76">
    <path clip-path="url(#pe8b66a3958)" d="M 110.781548 325.921635 
L 111.370374 325.921635 
L 111.370374 242.764831 
L 110.781548 242.764831 
z
" style="fill:#1f77b4;"/>
   </g>
   <g id="patch_77">
    <path clip-path="url(#pe8b66a3958)" d="M 111.51758 325.921635 
L 112.106406 325.921635 
L 112.106406 240.363739 
L 111.51758 240.363739 
z
" style="fill:#1f77b4;"/>
   </g>
   <g id="patch_78">
    <path clip-path="url(#pe8b66a3958)" d="M 112.253612 325.921635 
L 112.842438 325.921635 
L 112.842438 240.363739 
L 112.253612 240.363739 
z
" style="fill:#1f77b4;"/>
   </g>
   <g id="patch_79">
    <path clip-path="url(#pe8b66a3958)" d="M 112.989644 325.921635 
L 113.57847 325.921635 
L 113.57847 227.704817 
L 112.989644 227.704817 
z
" style="fill:#1f77b4;"/>
   </g>
   <g id="patch_80">
    <path clip-path="url(#pe8b66a3958)" d="M 113.725677 325.921635 
L 114.314502 325.921635 
L 114.314502 213.435037 
L 113.725677 213.435037 
z
" style="fill:#1f77b4;"/>
   </g>
   <g id="patch_81">
    <path clip-path="url(#pe8b66a3958)" d="M 114.461709 325.921635 
L 115.050535 325.921635 
L 115.050535 213.435037 
L 114.461709 213.435037 
z
" style="fill:#1f77b4;"/>
   </g>
   <g id="patch_82">
    <path clip-path="url(#pe8b66a3958)" d="M 115.197741 325.921635 
L 115.786567 325.921635 
L 115.786567 204.894444 
L 115.197741 204.894444 
z
" style="fill:#1f77b4;"/>
   </g>
   <g id="patch_83">
    <path clip-path="url(#pe8b66a3958)" d="M 115.933773 325.921635 
L 116.522599 325.921635 
L 116.522599 200.806509 
L 115.933773 200.806509 
z
" style="fill:#1f77b4;"/>
   </g>
   <g id="patch_84">
    <path clip-path="url(#pe8b66a3958)" d="M 116.669806 325.921635 
L 117.258631 325.921635 
L 117.258631 186.886254 
L 116.669806 186.886254 
z
" style="fill:#1f77b4;"/>
   </g>
   <g id="patch_85">
    <path clip-path="url(#pe8b66a3958)" d="M 117.405838 325.921635 
L 117.994664 325.921635 
L 117.994664 184.865082 
L 117.405838 184.865082 
z
" style="fill:#1f77b4;"/>
   </g>
   <g id="patch_86">
    <path clip-path="url(#pe8b66a3958)" d="M 118.14187 325.921635 
L 118.730696 325.921635 
L 118.730696 182.46399 
L 118.14187 182.46399 
z
" style="fill:#1f77b4;"/>
   </g>
   <g id="patch_87">
    <path clip-path="url(#pe8b66a3958)" d="M 118.877902 325.921635 
L 119.466728 325.921635 
L 119.466728 182.327219 
L 118.877902 182.327219 
z
" style="fill:#1f77b4;"/>
   </g>
   <g id="patch_88">
    <path clip-path="url(#pe8b66a3958)" d="M 119.613934 325.921635 
L 120.20276 325.921635 
L 120.20276 182.281629 
L 119.613934 182.281629 
z
" style="fill:#1f77b4;"/>
   </g>
   <g id="patch_89">
    <path clip-path="url(#pe8b66a3958)" d="M 120.349967 325.921635 
L 120.938792 325.921635 
L 120.938792 160.459046 
L 120.349967 160.459046 
z
" style="fill:#1f77b4;"/>
   </g>
   <g id="patch_90">
    <path clip-path="url(#pe8b66a3958)" d="M 121.085999 325.921635 
L 121.674825 325.921635 
L 121.674825 158.346693 
L 121.085999 158.346693 
z
" style="fill:#1f77b4;"/>
   </g>
   <g id="patch_91">
    <path clip-path="url(#pe8b66a3958)" d="M 121.822031 325.921635 
L 122.410857 325.921635 
L 122.410857 150.125233 
L 121.822031 150.125233 
z
" style="fill:#1f77b4;"/>
   </g>
   <g id="patch_92">
    <path clip-path="url(#pe8b66a3958)" d="M 122.558063 325.921635 
L 123.146889 325.921635 
L 123.146889 124.80739 
L 122.558063 124.80739 
z
" style="fill:#1f77b4;"/>
   </g>
   <g id="patch_93">
    <path clip-path="url(#pe8b66a3958)" d="M 123.294096 325.921635 
L 123.882921 325.921635 
L 123.882921 120.749849 
L 123.294096 120.749849 
z
" style="fill:#1f77b4;"/>
   </g>
   <g id="patch_94">
    <path clip-path="url(#pe8b66a3958)" d="M 124.030128 325.921635 
L 124.618954 325.921635 
L 124.618954 116.373175 
L 124.030128 116.373175 
z
" style="fill:#1f77b4;"/>
   </g>
   <g id="patch_95">
    <path clip-path="url(#pe8b66a3958)" d="M 124.76616 325.921635 
L 125.354986 325.921635 
L 125.354986 110.568003 
L 124.76616 110.568003 
z
" style="fill:#1f77b4;"/>
   </g>
   <g id="patch_96">
    <path clip-path="url(#pe8b66a3958)" d="M 125.502192 325.921635 
L 126.091018 325.921635 
L 126.091018 109.914541 
L 125.502192 109.914541 
z
" style="fill:#1f77b4;"/>
   </g>
   <g id="patch_97">
    <path clip-path="url(#pe8b66a3958)" d="M 126.238224 325.921635 
L 126.82705 325.921635 
L 126.82705 94.74815 
L 126.238224 94.74815 
z
" style="fill:#1f77b4;"/>
   </g>
   <g id="patch_98">
    <path clip-path="url(#pe8b66a3958)" d="M 126.974257 325.921635 
L 127.563082 325.921635 
L 127.563082 94.74815 
L 126.974257 94.74815 
z
" style="fill:#1f77b4;"/>
   </g>
   <g id="patch_99">
    <path clip-path="url(#pe8b66a3958)" d="M 127.710289 325.921635 
L 128.299115 325.921635 
L 128.299115 84.459927 
L 127.710289 84.459927 
z
" style="fill:#1f77b4;"/>
   </g>
   <g id="patch_100">
    <path clip-path="url(#pe8b66a3958)" d="M 128.446321 325.921635 
L 129.035147 325.921635 
L 129.035147 82.18041 
L 128.446321 82.18041 
z
" style="fill:#1f77b4;"/>
   </g>
   <g id="patch_101">
    <path clip-path="url(#pe8b66a3958)" d="M 129.182353 325.921635 
L 129.771179 325.921635 
L 129.771179 34.052193 
L 129.182353 34.052193 
z
" style="fill:#1f77b4;"/>
   </g>
   <g id="patch_102">
    <path clip-path="url(#pe8b66a3958)" d="M 129.918386 325.921635 
L 130.507211 325.921635 
L 130.507211 32.775664 
L 129.918386 32.775664 
z
" style="fill:#1f77b4;"/>
   </g>
   <g id="matplotlib.axis_1">
    <g id="xtick_1">
     <g id="line2d_1">
      <defs>
       <path d="M 0 0 
L 0 3.5 
" id="m12cc4fa246" style="stroke:#000000;stroke-width:0.8;"/>
      </defs>
      <g>
       <use style="stroke:#000000;stroke-width:0.8;" x="57.345608" xlink:href="#m12cc4fa246" y="325.921635"/>
      </g>
     </g>
     <g id="text_1">
      <!-- 0 -->
      <defs>
       <path d="M 31.78125 66.40625 
Q 24.171875 66.40625 20.328125 58.90625 
Q 16.5 51.421875 16.5 36.375 
Q 16.5 21.390625 20.328125 13.890625 
Q 24.171875 6.390625 31.78125 6.390625 
Q 39.453125 6.390625 43.28125 13.890625 
Q 47.125 21.390625 47.125 36.375 
Q 47.125 51.421875 43.28125 58.90625 
Q 39.453125 66.40625 31.78125 66.40625 
z
M 31.78125 74.21875 
Q 44.046875 74.21875 50.515625 64.515625 
Q 56.984375 54.828125 56.984375 36.375 
Q 56.984375 17.96875 50.515625 8.265625 
Q 44.046875 -1.421875 31.78125 -1.421875 
Q 19.53125 -1.421875 13.0625 8.265625 
Q 6.59375 17.96875 6.59375 36.375 
Q 6.59375 54.828125 13.0625 64.515625 
Q 19.53125 74.21875 31.78125 74.21875 
z
" id="DejaVuSans-48"/>
      </defs>
      <g transform="translate(54.164358 340.520072)scale(0.1 -0.1)">
       <use xlink:href="#DejaVuSans-48"/>
      </g>
     </g>
    </g>
    <g id="xtick_2">
     <g id="line2d_2">
      <g>
       <use style="stroke:#000000;stroke-width:0.8;" x="130.948831" xlink:href="#m12cc4fa246" y="325.921635"/>
      </g>
     </g>
     <g id="text_2">
      <!-- 100 -->
      <defs>
       <path d="M 12.40625 8.296875 
L 28.515625 8.296875 
L 28.515625 63.921875 
L 10.984375 60.40625 
L 10.984375 69.390625 
L 28.421875 72.90625 
L 38.28125 72.90625 
L 38.28125 8.296875 
L 54.390625 8.296875 
L 54.390625 0 
L 12.40625 0 
z
" id="DejaVuSans-49"/>
      </defs>
      <g transform="translate(121.405081 340.520072)scale(0.1 -0.1)">
       <use xlink:href="#DejaVuSans-49"/>
       <use x="63.623047" xlink:href="#DejaVuSans-48"/>
       <use x="127.246094" xlink:href="#DejaVuSans-48"/>
      </g>
     </g>
    </g>
   </g>
   <g id="matplotlib.axis_2">
    <g id="ytick_1">
     <g id="line2d_3">
      <defs>
       <path d="M 0 0 
L -3.5 0 
" id="mc68921daa8" style="stroke:#000000;stroke-width:0.8;"/>
      </defs>
      <g>
       <use style="stroke:#000000;stroke-width:0.8;" x="53.378395" xlink:href="#mc68921daa8" y="325.921635"/>
      </g>
     </g>
     <g id="text_3">
      <!-- 0 -->
      <g transform="translate(40.015895 329.720854)scale(0.1 -0.1)">
       <use xlink:href="#DejaVuSans-48"/>
      </g>
     </g>
    </g>
    <g id="ytick_2">
     <g id="line2d_4">
      <g>
       <use style="stroke:#000000;stroke-width:0.8;" x="53.378395" xlink:href="#mc68921daa8" y="287.929674"/>
      </g>
     </g>
     <g id="text_4">
      <!-- 2500 -->
      <defs>
       <path d="M 19.1875 8.296875 
L 53.609375 8.296875 
L 53.609375 0 
L 7.328125 0 
L 7.328125 8.296875 
Q 12.9375 14.109375 22.625 23.890625 
Q 32.328125 33.6875 34.8125 36.53125 
Q 39.546875 41.84375 41.421875 45.53125 
Q 43.3125 49.21875 43.3125 52.78125 
Q 43.3125 58.59375 39.234375 62.25 
Q 35.15625 65.921875 28.609375 65.921875 
Q 23.96875 65.921875 18.8125 64.3125 
Q 13.671875 62.703125 7.8125 59.421875 
L 7.8125 69.390625 
Q 13.765625 71.78125 18.9375 73 
Q 24.125 74.21875 28.421875 74.21875 
Q 39.75 74.21875 46.484375 68.546875 
Q 53.21875 62.890625 53.21875 53.421875 
Q 53.21875 48.921875 51.53125 44.890625 
Q 49.859375 40.875 45.40625 35.40625 
Q 44.1875 33.984375 37.640625 27.21875 
Q 31.109375 20.453125 19.1875 8.296875 
z
" id="DejaVuSans-50"/>
       <path d="M 10.796875 72.90625 
L 49.515625 72.90625 
L 49.515625 64.59375 
L 19.828125 64.59375 
L 19.828125 46.734375 
Q 21.96875 47.46875 24.109375 47.828125 
Q 26.265625 48.1875 28.421875 48.1875 
Q 40.625 48.1875 47.75 41.5 
Q 54.890625 34.8125 54.890625 23.390625 
Q 54.890625 11.625 47.5625 5.09375 
Q 40.234375 -1.421875 26.90625 -1.421875 
Q 22.3125 -1.421875 17.546875 -0.640625 
Q 12.796875 0.140625 7.71875 1.703125 
L 7.71875 11.625 
Q 12.109375 9.234375 16.796875 8.0625 
Q 21.484375 6.890625 26.703125 6.890625 
Q 35.15625 6.890625 40.078125 11.328125 
Q 45.015625 15.765625 45.015625 23.390625 
Q 45.015625 31 40.078125 35.4375 
Q 35.15625 39.890625 26.703125 39.890625 
Q 22.75 39.890625 18.8125 39.015625 
Q 14.890625 38.140625 10.796875 36.28125 
z
" id="DejaVuSans-53"/>
      </defs>
      <g transform="translate(20.928395 291.728893)scale(0.1 -0.1)">
       <use xlink:href="#DejaVuSans-50"/>
       <use x="63.623047" xlink:href="#DejaVuSans-53"/>
       <use x="127.246094" xlink:href="#DejaVuSans-48"/>
       <use x="190.869141" xlink:href="#DejaVuSans-48"/>
      </g>
     </g>
    </g>
    <g id="ytick_3">
     <g id="line2d_5">
      <g>
       <use style="stroke:#000000;stroke-width:0.8;" x="53.378395" xlink:href="#mc68921daa8" y="249.937713"/>
      </g>
     </g>
     <g id="text_5">
      <!-- 5000 -->
      <g transform="translate(20.928395 253.736932)scale(0.1 -0.1)">
       <use xlink:href="#DejaVuSans-53"/>
       <use x="63.623047" xlink:href="#DejaVuSans-48"/>
       <use x="127.246094" xlink:href="#DejaVuSans-48"/>
       <use x="190.869141" xlink:href="#DejaVuSans-48"/>
      </g>
     </g>
    </g>
    <g id="ytick_4">
     <g id="line2d_6">
      <g>
       <use style="stroke:#000000;stroke-width:0.8;" x="53.378395" xlink:href="#mc68921daa8" y="211.945752"/>
      </g>
     </g>
     <g id="text_6">
      <!-- 7500 -->
      <defs>
       <path d="M 8.203125 72.90625 
L 55.078125 72.90625 
L 55.078125 68.703125 
L 28.609375 0 
L 18.3125 0 
L 43.21875 64.59375 
L 8.203125 64.59375 
z
" id="DejaVuSans-55"/>
      </defs>
      <g transform="translate(20.928395 215.744971)scale(0.1 -0.1)">
       <use xlink:href="#DejaVuSans-55"/>
       <use x="63.623047" xlink:href="#DejaVuSans-53"/>
       <use x="127.246094" xlink:href="#DejaVuSans-48"/>
       <use x="190.869141" xlink:href="#DejaVuSans-48"/>
      </g>
     </g>
    </g>
    <g id="ytick_5">
     <g id="line2d_7">
      <g>
       <use style="stroke:#000000;stroke-width:0.8;" x="53.378395" xlink:href="#mc68921daa8" y="173.953791"/>
      </g>
     </g>
     <g id="text_7">
      <!-- 10000 -->
      <g transform="translate(14.565895 177.75301)scale(0.1 -0.1)">
       <use xlink:href="#DejaVuSans-49"/>
       <use x="63.623047" xlink:href="#DejaVuSans-48"/>
       <use x="127.246094" xlink:href="#DejaVuSans-48"/>
       <use x="190.869141" xlink:href="#DejaVuSans-48"/>
       <use x="254.492188" xlink:href="#DejaVuSans-48"/>
      </g>
     </g>
    </g>
    <g id="ytick_6">
     <g id="line2d_8">
      <g>
       <use style="stroke:#000000;stroke-width:0.8;" x="53.378395" xlink:href="#mc68921daa8" y="135.96183"/>
      </g>
     </g>
     <g id="text_8">
      <!-- 12500 -->
      <g transform="translate(14.565895 139.761049)scale(0.1 -0.1)">
       <use xlink:href="#DejaVuSans-49"/>
       <use x="63.623047" xlink:href="#DejaVuSans-50"/>
       <use x="127.246094" xlink:href="#DejaVuSans-53"/>
       <use x="190.869141" xlink:href="#DejaVuSans-48"/>
       <use x="254.492188" xlink:href="#DejaVuSans-48"/>
      </g>
     </g>
    </g>
    <g id="ytick_7">
     <g id="line2d_9">
      <g>
       <use style="stroke:#000000;stroke-width:0.8;" x="53.378395" xlink:href="#mc68921daa8" y="97.969869"/>
      </g>
     </g>
     <g id="text_9">
      <!-- 15000 -->
      <g transform="translate(14.565895 101.769087)scale(0.1 -0.1)">
       <use xlink:href="#DejaVuSans-49"/>
       <use x="63.623047" xlink:href="#DejaVuSans-53"/>
       <use x="127.246094" xlink:href="#DejaVuSans-48"/>
       <use x="190.869141" xlink:href="#DejaVuSans-48"/>
       <use x="254.492188" xlink:href="#DejaVuSans-48"/>
      </g>
     </g>
    </g>
    <g id="ytick_8">
     <g id="line2d_10">
      <g>
       <use style="stroke:#000000;stroke-width:0.8;" x="53.378395" xlink:href="#mc68921daa8" y="59.977908"/>
      </g>
     </g>
     <g id="text_10">
      <!-- 17500 -->
      <g transform="translate(14.565895 63.777126)scale(0.1 -0.1)">
       <use xlink:href="#DejaVuSans-49"/>
       <use x="63.623047" xlink:href="#DejaVuSans-55"/>
       <use x="127.246094" xlink:href="#DejaVuSans-53"/>
       <use x="190.869141" xlink:href="#DejaVuSans-48"/>
       <use x="254.492188" xlink:href="#DejaVuSans-48"/>
      </g>
     </g>
    </g>
    <g id="ytick_9">
     <g id="line2d_11">
      <g>
       <use style="stroke:#000000;stroke-width:0.8;" x="53.378395" xlink:href="#mc68921daa8" y="21.985947"/>
      </g>
     </g>
     <g id="text_11">
      <!-- 20000 -->
      <g transform="translate(14.565895 25.785165)scale(0.1 -0.1)">
       <use xlink:href="#DejaVuSans-50"/>
       <use x="63.623047" xlink:href="#DejaVuSans-48"/>
       <use x="127.246094" xlink:href="#DejaVuSans-48"/>
       <use x="190.869141" xlink:href="#DejaVuSans-48"/>
       <use x="254.492188" xlink:href="#DejaVuSans-48"/>
      </g>
     </g>
    </g>
   </g>
   <g id="line2d_12">
    <path clip-path="url(#pe8b66a3958)" d="M 57.345608 325.904122 
L 58.081641 325.898602 
L 58.817673 325.890381 
L 59.553705 325.87864 
L 60.289737 325.862266 
L 61.02577 325.839923 
L 61.761802 325.810017 
L 62.497834 325.770711 
L 63.233866 325.719748 
L 63.969898 325.654454 
L 64.705931 325.572027 
L 65.441963 325.469586 
L 66.177995 325.344252 
L 66.914027 325.193316 
L 67.65006 325.014379 
L 68.386092 324.806789 
L 69.122124 324.571868 
L 69.858156 324.312795 
L 70.594188 324.034227 
L 71.330221 323.742083 
L 72.066253 323.443217 
L 72.802285 323.145048 
L 73.538317 322.852739 
L 74.27435 322.568557 
L 75.010382 322.291528 
L 75.746414 322.018017 
L 76.482446 321.742412 
L 77.218478 321.457439 
L 77.954511 321.154098 
L 78.690543 320.82463 
L 79.426575 320.463502 
L 80.162607 320.067632 
L 80.89864 319.636603 
L 81.634672 319.171598 
L 82.370704 318.674155 
L 83.106736 318.14704 
L 83.842768 317.59186 
L 84.578801 317.00773 
L 85.314833 316.391789 
L 86.050865 315.737675 
L 86.786897 315.035826 
L 87.52293 314.278126 
L 88.258962 313.456841 
L 88.994994 312.566972 
L 89.731026 311.60753 
L 90.467058 310.580769 
L 91.203091 309.493652 
L 91.939123 308.359627 
L 92.675155 307.189601 
L 93.411187 305.993144 
L 94.14722 304.775199 
L 94.883252 303.534911 
L 95.619284 302.265046 
L 96.355316 300.951907 
L 97.091348 299.57074 
L 97.827381 298.096323 
L 98.563413 296.501243 
L 99.299445 294.760625 
L 100.035477 292.853306 
L 100.77151 290.764612 
L 101.507542 288.485537 
L 102.243574 286.016879 
L 102.979606 283.362993 
L 103.715638 280.535619 
L 104.451671 277.545308 
L 105.187703 274.398055 
L 105.923735 271.092789 
L 106.659767 267.618966 
L 107.3958 263.961946 
L 108.131832 260.097526 
L 108.867864 255.984331 
L 109.603896 251.582434 
L 110.339928 246.86876 
L 111.075961 241.83665 
L 111.811993 236.499452 
L 112.548025 230.876667 
L 113.284057 225.013524 
L 114.02009 218.979414 
L 114.756122 212.841818 
L 115.492154 206.636492 
L 116.228186 200.366758 
L 116.964218 194.019521 
L 117.700251 187.568413 
L 118.436283 180.954723 
L 119.172315 174.118569 
L 119.908347 167.018589 
L 120.64438 159.640414 
L 121.380412 152.005077 
L 122.116444 144.128453 
L 122.852476 136.023497 
L 123.588508 127.701362 
L 124.324541 119.13861 
L 125.060573 110.254921 
L 125.796605 100.956046 
L 126.532637 91.179697 
L 127.26867 80.854353 
L 128.004702 69.92727 
L 128.740734 58.622508 
L 129.476766 46.92106 
L 130.212798 34.851566 
" style="fill:none;stroke:#ff0000;stroke-linecap:square;stroke-width:1.5;"/>
   </g>
   <g id="patch_103">
    <path d="M 53.378395 325.921635 
L 53.378395 18.118365 
" style="fill:none;stroke:#000000;stroke-linecap:square;stroke-linejoin:miter;stroke-width:0.8;"/>
   </g>
   <g id="patch_104">
    <path d="M 134.180012 325.921635 
L 134.180012 18.118365 
" style="fill:none;stroke:#000000;stroke-linecap:square;stroke-linejoin:miter;stroke-width:0.8;"/>
   </g>
   <g id="patch_105">
    <path d="M 53.378395 325.921635 
L 134.180012 325.921635 
" style="fill:none;stroke:#000000;stroke-linecap:square;stroke-linejoin:miter;stroke-width:0.8;"/>
   </g>
   <g id="patch_106">
    <path d="M 53.378395 18.118365 
L 134.180012 18.118365 
" style="fill:none;stroke:#000000;stroke-linecap:square;stroke-linejoin:miter;stroke-width:0.8;"/>
   </g>
   <g id="text_12">
    <!-- Casos acumulados - RN - (data) -->
    <defs>
     <path d="M 64.40625 67.28125 
L 64.40625 56.890625 
Q 59.421875 61.53125 53.78125 63.8125 
Q 48.140625 66.109375 41.796875 66.109375 
Q 29.296875 66.109375 22.65625 58.46875 
Q 16.015625 50.828125 16.015625 36.375 
Q 16.015625 21.96875 22.65625 14.328125 
Q 29.296875 6.6875 41.796875 6.6875 
Q 48.140625 6.6875 53.78125 8.984375 
Q 59.421875 11.28125 64.40625 15.921875 
L 64.40625 5.609375 
Q 59.234375 2.09375 53.4375 0.328125 
Q 47.65625 -1.421875 41.21875 -1.421875 
Q 24.65625 -1.421875 15.125 8.703125 
Q 5.609375 18.84375 5.609375 36.375 
Q 5.609375 53.953125 15.125 64.078125 
Q 24.65625 74.21875 41.21875 74.21875 
Q 47.75 74.21875 53.53125 72.484375 
Q 59.328125 70.75 64.40625 67.28125 
z
" id="DejaVuSans-67"/>
     <path d="M 34.28125 27.484375 
Q 23.390625 27.484375 19.1875 25 
Q 14.984375 22.515625 14.984375 16.5 
Q 14.984375 11.71875 18.140625 8.90625 
Q 21.296875 6.109375 26.703125 6.109375 
Q 34.1875 6.109375 38.703125 11.40625 
Q 43.21875 16.703125 43.21875 25.484375 
L 43.21875 27.484375 
z
M 52.203125 31.203125 
L 52.203125 0 
L 43.21875 0 
L 43.21875 8.296875 
Q 40.140625 3.328125 35.546875 0.953125 
Q 30.953125 -1.421875 24.3125 -1.421875 
Q 15.921875 -1.421875 10.953125 3.296875 
Q 6 8.015625 6 15.921875 
Q 6 25.140625 12.171875 29.828125 
Q 18.359375 34.515625 30.609375 34.515625 
L 43.21875 34.515625 
L 43.21875 35.40625 
Q 43.21875 41.609375 39.140625 45 
Q 35.0625 48.390625 27.6875 48.390625 
Q 23 48.390625 18.546875 47.265625 
Q 14.109375 46.140625 10.015625 43.890625 
L 10.015625 52.203125 
Q 14.9375 54.109375 19.578125 55.046875 
Q 24.21875 56 28.609375 56 
Q 40.484375 56 46.34375 49.84375 
Q 52.203125 43.703125 52.203125 31.203125 
z
" id="DejaVuSans-97"/>
     <path d="M 44.28125 53.078125 
L 44.28125 44.578125 
Q 40.484375 46.53125 36.375 47.5 
Q 32.28125 48.484375 27.875 48.484375 
Q 21.1875 48.484375 17.84375 46.4375 
Q 14.5 44.390625 14.5 40.28125 
Q 14.5 37.15625 16.890625 35.375 
Q 19.28125 33.59375 26.515625 31.984375 
L 29.59375 31.296875 
Q 39.15625 29.25 43.1875 25.515625 
Q 47.21875 21.78125 47.21875 15.09375 
Q 47.21875 7.46875 41.1875 3.015625 
Q 35.15625 -1.421875 24.609375 -1.421875 
Q 20.21875 -1.421875 15.453125 -0.5625 
Q 10.6875 0.296875 5.421875 2 
L 5.421875 11.28125 
Q 10.40625 8.6875 15.234375 7.390625 
Q 20.0625 6.109375 24.8125 6.109375 
Q 31.15625 6.109375 34.5625 8.28125 
Q 37.984375 10.453125 37.984375 14.40625 
Q 37.984375 18.0625 35.515625 20.015625 
Q 33.0625 21.96875 24.703125 23.78125 
L 21.578125 24.515625 
Q 13.234375 26.265625 9.515625 29.90625 
Q 5.8125 33.546875 5.8125 39.890625 
Q 5.8125 47.609375 11.28125 51.796875 
Q 16.75 56 26.8125 56 
Q 31.78125 56 36.171875 55.265625 
Q 40.578125 54.546875 44.28125 53.078125 
z
" id="DejaVuSans-115"/>
     <path d="M 30.609375 48.390625 
Q 23.390625 48.390625 19.1875 42.75 
Q 14.984375 37.109375 14.984375 27.296875 
Q 14.984375 17.484375 19.15625 11.84375 
Q 23.34375 6.203125 30.609375 6.203125 
Q 37.796875 6.203125 41.984375 11.859375 
Q 46.1875 17.53125 46.1875 27.296875 
Q 46.1875 37.015625 41.984375 42.703125 
Q 37.796875 48.390625 30.609375 48.390625 
z
M 30.609375 56 
Q 42.328125 56 49.015625 48.375 
Q 55.71875 40.765625 55.71875 27.296875 
Q 55.71875 13.875 49.015625 6.21875 
Q 42.328125 -1.421875 30.609375 -1.421875 
Q 18.84375 -1.421875 12.171875 6.21875 
Q 5.515625 13.875 5.515625 27.296875 
Q 5.515625 40.765625 12.171875 48.375 
Q 18.84375 56 30.609375 56 
z
" id="DejaVuSans-111"/>
     <path id="DejaVuSans-32"/>
     <path d="M 48.78125 52.59375 
L 48.78125 44.1875 
Q 44.96875 46.296875 41.140625 47.34375 
Q 37.3125 48.390625 33.40625 48.390625 
Q 24.65625 48.390625 19.8125 42.84375 
Q 14.984375 37.3125 14.984375 27.296875 
Q 14.984375 17.28125 19.8125 11.734375 
Q 24.65625 6.203125 33.40625 6.203125 
Q 37.3125 6.203125 41.140625 7.25 
Q 44.96875 8.296875 48.78125 10.40625 
L 48.78125 2.09375 
Q 45.015625 0.34375 40.984375 -0.53125 
Q 36.96875 -1.421875 32.421875 -1.421875 
Q 20.0625 -1.421875 12.78125 6.34375 
Q 5.515625 14.109375 5.515625 27.296875 
Q 5.515625 40.671875 12.859375 48.328125 
Q 20.21875 56 33.015625 56 
Q 37.15625 56 41.109375 55.140625 
Q 45.0625 54.296875 48.78125 52.59375 
z
" id="DejaVuSans-99"/>
     <path d="M 8.5 21.578125 
L 8.5 54.6875 
L 17.484375 54.6875 
L 17.484375 21.921875 
Q 17.484375 14.15625 20.5 10.265625 
Q 23.53125 6.390625 29.59375 6.390625 
Q 36.859375 6.390625 41.078125 11.03125 
Q 45.3125 15.671875 45.3125 23.6875 
L 45.3125 54.6875 
L 54.296875 54.6875 
L 54.296875 0 
L 45.3125 0 
L 45.3125 8.40625 
Q 42.046875 3.421875 37.71875 1 
Q 33.40625 -1.421875 27.6875 -1.421875 
Q 18.265625 -1.421875 13.375 4.4375 
Q 8.5 10.296875 8.5 21.578125 
z
M 31.109375 56 
z
" id="DejaVuSans-117"/>
     <path d="M 52 44.1875 
Q 55.375 50.25 60.0625 53.125 
Q 64.75 56 71.09375 56 
Q 79.640625 56 84.28125 50.015625 
Q 88.921875 44.046875 88.921875 33.015625 
L 88.921875 0 
L 79.890625 0 
L 79.890625 32.71875 
Q 79.890625 40.578125 77.09375 44.375 
Q 74.3125 48.1875 68.609375 48.1875 
Q 61.625 48.1875 57.5625 43.546875 
Q 53.515625 38.921875 53.515625 30.90625 
L 53.515625 0 
L 44.484375 0 
L 44.484375 32.71875 
Q 44.484375 40.625 41.703125 44.40625 
Q 38.921875 48.1875 33.109375 48.1875 
Q 26.21875 48.1875 22.15625 43.53125 
Q 18.109375 38.875 18.109375 30.90625 
L 18.109375 0 
L 9.078125 0 
L 9.078125 54.6875 
L 18.109375 54.6875 
L 18.109375 46.1875 
Q 21.1875 51.21875 25.484375 53.609375 
Q 29.78125 56 35.6875 56 
Q 41.65625 56 45.828125 52.96875 
Q 50 49.953125 52 44.1875 
z
" id="DejaVuSans-109"/>
     <path d="M 9.421875 75.984375 
L 18.40625 75.984375 
L 18.40625 0 
L 9.421875 0 
z
" id="DejaVuSans-108"/>
     <path d="M 45.40625 46.390625 
L 45.40625 75.984375 
L 54.390625 75.984375 
L 54.390625 0 
L 45.40625 0 
L 45.40625 8.203125 
Q 42.578125 3.328125 38.25 0.953125 
Q 33.9375 -1.421875 27.875 -1.421875 
Q 17.96875 -1.421875 11.734375 6.484375 
Q 5.515625 14.40625 5.515625 27.296875 
Q 5.515625 40.1875 11.734375 48.09375 
Q 17.96875 56 27.875 56 
Q 33.9375 56 38.25 53.625 
Q 42.578125 51.265625 45.40625 46.390625 
z
M 14.796875 27.296875 
Q 14.796875 17.390625 18.875 11.75 
Q 22.953125 6.109375 30.078125 6.109375 
Q 37.203125 6.109375 41.296875 11.75 
Q 45.40625 17.390625 45.40625 27.296875 
Q 45.40625 37.203125 41.296875 42.84375 
Q 37.203125 48.484375 30.078125 48.484375 
Q 22.953125 48.484375 18.875 42.84375 
Q 14.796875 37.203125 14.796875 27.296875 
z
" id="DejaVuSans-100"/>
     <path d="M 4.890625 31.390625 
L 31.203125 31.390625 
L 31.203125 23.390625 
L 4.890625 23.390625 
z
" id="DejaVuSans-45"/>
     <path d="M 44.390625 34.1875 
Q 47.5625 33.109375 50.5625 29.59375 
Q 53.5625 26.078125 56.59375 19.921875 
L 66.609375 0 
L 56 0 
L 46.6875 18.703125 
Q 43.0625 26.03125 39.671875 28.421875 
Q 36.28125 30.8125 30.421875 30.8125 
L 19.671875 30.8125 
L 19.671875 0 
L 9.8125 0 
L 9.8125 72.90625 
L 32.078125 72.90625 
Q 44.578125 72.90625 50.734375 67.671875 
Q 56.890625 62.453125 56.890625 51.90625 
Q 56.890625 45.015625 53.6875 40.46875 
Q 50.484375 35.9375 44.390625 34.1875 
z
M 19.671875 64.796875 
L 19.671875 38.921875 
L 32.078125 38.921875 
Q 39.203125 38.921875 42.84375 42.21875 
Q 46.484375 45.515625 46.484375 51.90625 
Q 46.484375 58.296875 42.84375 61.546875 
Q 39.203125 64.796875 32.078125 64.796875 
z
" id="DejaVuSans-82"/>
     <path d="M 9.8125 72.90625 
L 23.09375 72.90625 
L 55.421875 11.921875 
L 55.421875 72.90625 
L 64.984375 72.90625 
L 64.984375 0 
L 51.703125 0 
L 19.390625 60.984375 
L 19.390625 0 
L 9.8125 0 
z
" id="DejaVuSans-78"/>
     <path d="M 31 75.875 
Q 24.46875 64.65625 21.28125 53.65625 
Q 18.109375 42.671875 18.109375 31.390625 
Q 18.109375 20.125 21.3125 9.0625 
Q 24.515625 -2 31 -13.1875 
L 23.1875 -13.1875 
Q 15.875 -1.703125 12.234375 9.375 
Q 8.59375 20.453125 8.59375 31.390625 
Q 8.59375 42.28125 12.203125 53.3125 
Q 15.828125 64.359375 23.1875 75.875 
z
" id="DejaVuSans-40"/>
     <path d="M 18.3125 70.21875 
L 18.3125 54.6875 
L 36.8125 54.6875 
L 36.8125 47.703125 
L 18.3125 47.703125 
L 18.3125 18.015625 
Q 18.3125 11.328125 20.140625 9.421875 
Q 21.96875 7.515625 27.59375 7.515625 
L 36.8125 7.515625 
L 36.8125 0 
L 27.59375 0 
Q 17.1875 0 13.234375 3.875 
Q 9.28125 7.765625 9.28125 18.015625 
L 9.28125 47.703125 
L 2.6875 47.703125 
L 2.6875 54.6875 
L 9.28125 54.6875 
L 9.28125 70.21875 
z
" id="DejaVuSans-116"/>
     <path d="M 8.015625 75.875 
L 15.828125 75.875 
Q 23.140625 64.359375 26.78125 53.3125 
Q 30.421875 42.28125 30.421875 31.390625 
Q 30.421875 20.453125 26.78125 9.375 
Q 23.140625 -1.703125 15.828125 -13.1875 
L 8.015625 -13.1875 
Q 14.5 -2 17.703125 9.0625 
Q 20.90625 20.125 20.90625 31.390625 
Q 20.90625 42.671875 17.703125 53.65625 
Q 14.5 64.65625 8.015625 75.875 
z
" id="DejaVuSans-41"/>
    </defs>
    <g transform="translate(-1.103297 12.118365)scale(0.12 -0.12)">
     <use xlink:href="#DejaVuSans-67"/>
     <use x="69.824219" xlink:href="#DejaVuSans-97"/>
     <use x="131.103516" xlink:href="#DejaVuSans-115"/>
     <use x="183.203125" xlink:href="#DejaVuSans-111"/>
     <use x="244.384766" xlink:href="#DejaVuSans-115"/>
     <use x="296.484375" xlink:href="#DejaVuSans-32"/>
     <use x="328.271484" xlink:href="#DejaVuSans-97"/>
     <use x="389.550781" xlink:href="#DejaVuSans-99"/>
     <use x="444.53125" xlink:href="#DejaVuSans-117"/>
     <use x="507.910156" xlink:href="#DejaVuSans-109"/>
     <use x="605.322266" xlink:href="#DejaVuSans-117"/>
     <use x="668.701172" xlink:href="#DejaVuSans-108"/>
     <use x="696.484375" xlink:href="#DejaVuSans-97"/>
     <use x="757.763672" xlink:href="#DejaVuSans-100"/>
     <use x="821.240234" xlink:href="#DejaVuSans-111"/>
     <use x="882.421875" xlink:href="#DejaVuSans-115"/>
     <use x="934.521484" xlink:href="#DejaVuSans-32"/>
     <use x="966.308594" xlink:href="#DejaVuSans-45"/>
     <use x="1002.392578" xlink:href="#DejaVuSans-32"/>
     <use x="1034.179688" xlink:href="#DejaVuSans-82"/>
     <use x="1103.662109" xlink:href="#DejaVuSans-78"/>
     <use x="1178.466797" xlink:href="#DejaVuSans-32"/>
     <use x="1210.253906" xlink:href="#DejaVuSans-45"/>
     <use x="1246.337891" xlink:href="#DejaVuSans-32"/>
     <use x="1278.125" xlink:href="#DejaVuSans-40"/>
     <use x="1317.138672" xlink:href="#DejaVuSans-100"/>
     <use x="1380.615234" xlink:href="#DejaVuSans-97"/>
     <use x="1441.894531" xlink:href="#DejaVuSans-116"/>
     <use x="1481.103516" xlink:href="#DejaVuSans-97"/>
     <use x="1542.382812" xlink:href="#DejaVuSans-41"/>
    </g>
   </g>
  </g>
  <g id="axes_2">
   <g id="patch_107">
    <path d="M 226.080647 325.921635 
L 306.882264 325.921635 
L 306.882264 18.118365 
L 226.080647 18.118365 
z
" style="fill:#ffffff;"/>
   </g>
   <g id="patch_108">
    <path clip-path="url(#p5be6a81276)" d="M 229.753448 325.921635 
L 230.342273 325.921635 
L 230.342273 325.921635 
L 229.753448 325.921635 
z
" style="fill:#1f77b4;"/>
   </g>
   <g id="patch_109">
    <path clip-path="url(#p5be6a81276)" d="M 230.48948 325.921635 
L 231.078306 325.921635 
L 231.078306 325.921635 
L 230.48948 325.921635 
z
" style="fill:#1f77b4;"/>
   </g>
   <g id="patch_110">
    <path clip-path="url(#p5be6a81276)" d="M 231.225512 325.921635 
L 231.814338 325.921635 
L 231.814338 325.921635 
L 231.225512 325.921635 
z
" style="fill:#1f77b4;"/>
   </g>
   <g id="patch_111">
    <path clip-path="url(#p5be6a81276)" d="M 231.961544 325.921635 
L 232.55037 325.921635 
L 232.55037 325.921635 
L 231.961544 325.921635 
z
" style="fill:#1f77b4;"/>
   </g>
   <g id="patch_112">
    <path clip-path="url(#p5be6a81276)" d="M 232.697577 325.921635 
L 233.286402 325.921635 
L 233.286402 325.921635 
L 232.697577 325.921635 
z
" style="fill:#1f77b4;"/>
   </g>
   <g id="patch_113">
    <path clip-path="url(#p5be6a81276)" d="M 233.433609 325.921635 
L 234.022435 325.921635 
L 234.022435 325.921635 
L 233.433609 325.921635 
z
" style="fill:#1f77b4;"/>
   </g>
   <g id="patch_114">
    <path clip-path="url(#p5be6a81276)" d="M 234.169641 325.921635 
L 234.758467 325.921635 
L 234.758467 325.921635 
L 234.169641 325.921635 
z
" style="fill:#1f77b4;"/>
   </g>
   <g id="patch_115">
    <path clip-path="url(#p5be6a81276)" d="M 234.905673 325.921635 
L 235.494499 325.921635 
L 235.494499 325.458822 
L 234.905673 325.458822 
z
" style="fill:#1f77b4;"/>
   </g>
   <g id="patch_116">
    <path clip-path="url(#p5be6a81276)" d="M 235.641705 325.921635 
L 236.230531 325.921635 
L 236.230531 325.643947 
L 235.641705 325.643947 
z
" style="fill:#1f77b4;"/>
   </g>
   <g id="patch_117">
    <path clip-path="url(#p5be6a81276)" d="M 236.377738 325.921635 
L 236.966563 325.921635 
L 236.966563 325.551384 
L 236.377738 325.551384 
z
" style="fill:#1f77b4;"/>
   </g>
   <g id="patch_118">
    <path clip-path="url(#p5be6a81276)" d="M 237.11377 325.921635 
L 237.702596 325.921635 
L 237.702596 325.921635 
L 237.11377 325.921635 
z
" style="fill:#1f77b4;"/>
   </g>
   <g id="patch_119">
    <path clip-path="url(#p5be6a81276)" d="M 237.849802 325.921635 
L 238.438628 325.921635 
L 238.438628 325.829072 
L 237.849802 325.829072 
z
" style="fill:#1f77b4;"/>
   </g>
   <g id="patch_120">
    <path clip-path="url(#p5be6a81276)" d="M 238.585834 325.921635 
L 239.17466 325.921635 
L 239.17466 325.458822 
L 238.585834 325.458822 
z
" style="fill:#1f77b4;"/>
   </g>
   <g id="patch_121">
    <path clip-path="url(#p5be6a81276)" d="M 239.321867 325.921635 
L 239.910692 325.921635 
L 239.910692 325.088571 
L 239.321867 325.088571 
z
" style="fill:#1f77b4;"/>
   </g>
   <g id="patch_122">
    <path clip-path="url(#p5be6a81276)" d="M 240.057899 325.921635 
L 240.646725 325.921635 
L 240.646725 324.34807 
L 240.057899 324.34807 
z
" style="fill:#1f77b4;"/>
   </g>
   <g id="patch_123">
    <path clip-path="url(#p5be6a81276)" d="M 240.793931 325.921635 
L 241.382757 325.921635 
L 241.382757 323.792694 
L 240.793931 323.792694 
z
" style="fill:#1f77b4;"/>
   </g>
   <g id="patch_124">
    <path clip-path="url(#p5be6a81276)" d="M 241.529963 325.921635 
L 242.118789 325.921635 
L 242.118789 325.088571 
L 241.529963 325.088571 
z
" style="fill:#1f77b4;"/>
   </g>
   <g id="patch_125">
    <path clip-path="url(#p5be6a81276)" d="M 242.265995 325.921635 
L 242.854821 325.921635 
L 242.854821 325.458822 
L 242.265995 325.458822 
z
" style="fill:#1f77b4;"/>
   </g>
   <g id="patch_126">
    <path clip-path="url(#p5be6a81276)" d="M 243.002028 325.921635 
L 243.590853 325.921635 
L 243.590853 324.996008 
L 243.002028 324.996008 
z
" style="fill:#1f77b4;"/>
   </g>
   <g id="patch_127">
    <path clip-path="url(#p5be6a81276)" d="M 243.73806 325.921635 
L 244.326886 325.921635 
L 244.326886 324.71832 
L 243.73806 324.71832 
z
" style="fill:#1f77b4;"/>
   </g>
   <g id="patch_128">
    <path clip-path="url(#p5be6a81276)" d="M 244.474092 325.921635 
L 245.062918 325.921635 
L 245.062918 319.349686 
L 244.474092 319.349686 
z
" style="fill:#1f77b4;"/>
   </g>
   <g id="patch_129">
    <path clip-path="url(#p5be6a81276)" d="M 245.210124 325.921635 
L 245.79895 325.921635 
L 245.79895 322.589379 
L 245.210124 322.589379 
z
" style="fill:#1f77b4;"/>
   </g>
   <g id="patch_130">
    <path clip-path="url(#p5be6a81276)" d="M 245.946157 325.921635 
L 246.534982 325.921635 
L 246.534982 323.144755 
L 245.946157 323.144755 
z
" style="fill:#1f77b4;"/>
   </g>
   <g id="patch_131">
    <path clip-path="url(#p5be6a81276)" d="M 246.682189 325.921635 
L 247.271015 325.921635 
L 247.271015 325.551384 
L 246.682189 325.551384 
z
" style="fill:#1f77b4;"/>
   </g>
   <g id="patch_132">
    <path clip-path="url(#p5be6a81276)" d="M 247.418221 325.921635 
L 248.007047 325.921635 
L 248.007047 325.181134 
L 247.418221 325.181134 
z
" style="fill:#1f77b4;"/>
   </g>
   <g id="patch_133">
    <path clip-path="url(#p5be6a81276)" d="M 248.154253 325.921635 
L 248.743079 325.921635 
L 248.743079 325.273696 
L 248.154253 325.273696 
z
" style="fill:#1f77b4;"/>
   </g>
   <g id="patch_134">
    <path clip-path="url(#p5be6a81276)" d="M 248.890285 325.921635 
L 249.479111 325.921635 
L 249.479111 325.921635 
L 248.890285 325.921635 
z
" style="fill:#1f77b4;"/>
   </g>
   <g id="patch_135">
    <path clip-path="url(#p5be6a81276)" d="M 249.626318 325.921635 
L 250.215143 325.921635 
L 250.215143 325.73651 
L 249.626318 325.73651 
z
" style="fill:#1f77b4;"/>
   </g>
   <g id="patch_136">
    <path clip-path="url(#p5be6a81276)" d="M 250.36235 325.921635 
L 250.951176 325.921635 
L 250.951176 323.515006 
L 250.36235 323.515006 
z
" style="fill:#1f77b4;"/>
   </g>
   <g id="patch_137">
    <path clip-path="url(#p5be6a81276)" d="M 251.098382 325.921635 
L 251.687208 325.921635 
L 251.687208 324.71832 
L 251.098382 324.71832 
z
" style="fill:#1f77b4;"/>
   </g>
   <g id="patch_138">
    <path clip-path="url(#p5be6a81276)" d="M 251.834414 325.921635 
L 252.42324 325.921635 
L 252.42324 322.496816 
L 251.834414 322.496816 
z
" style="fill:#1f77b4;"/>
   </g>
   <g id="patch_139">
    <path clip-path="url(#p5be6a81276)" d="M 252.570447 325.921635 
L 253.159272 325.921635 
L 253.159272 322.496816 
L 252.570447 322.496816 
z
" style="fill:#1f77b4;"/>
   </g>
   <g id="patch_140">
    <path clip-path="url(#p5be6a81276)" d="M 253.306479 325.921635 
L 253.895305 325.921635 
L 253.895305 323.792694 
L 253.306479 323.792694 
z
" style="fill:#1f77b4;"/>
   </g>
   <g id="patch_141">
    <path clip-path="url(#p5be6a81276)" d="M 254.042511 325.921635 
L 254.631337 325.921635 
L 254.631337 325.829072 
L 254.042511 325.829072 
z
" style="fill:#1f77b4;"/>
   </g>
   <g id="patch_142">
    <path clip-path="url(#p5be6a81276)" d="M 254.778543 325.921635 
L 255.367369 325.921635 
L 255.367369 320.090187 
L 254.778543 320.090187 
z
" style="fill:#1f77b4;"/>
   </g>
   <g id="patch_143">
    <path clip-path="url(#p5be6a81276)" d="M 255.514575 325.921635 
L 256.103401 325.921635 
L 256.103401 321.015814 
L 255.514575 321.015814 
z
" style="fill:#1f77b4;"/>
   </g>
   <g id="patch_144">
    <path clip-path="url(#p5be6a81276)" d="M 256.250608 325.921635 
L 256.839433 325.921635 
L 256.839433 324.533195 
L 256.250608 324.533195 
z
" style="fill:#1f77b4;"/>
   </g>
   <g id="patch_145">
    <path clip-path="url(#p5be6a81276)" d="M 256.98664 325.921635 
L 257.575466 325.921635 
L 257.575466 319.997624 
L 256.98664 319.997624 
z
" style="fill:#1f77b4;"/>
   </g>
   <g id="patch_146">
    <path clip-path="url(#p5be6a81276)" d="M 257.722672 325.921635 
L 258.311498 325.921635 
L 258.311498 324.71832 
L 257.722672 324.71832 
z
" style="fill:#1f77b4;"/>
   </g>
   <g id="patch_147">
    <path clip-path="url(#p5be6a81276)" d="M 258.458704 325.921635 
L 259.04753 325.921635 
L 259.04753 322.404254 
L 258.458704 322.404254 
z
" style="fill:#1f77b4;"/>
   </g>
   <g id="patch_148">
    <path clip-path="url(#p5be6a81276)" d="M 259.194737 325.921635 
L 259.783562 325.921635 
L 259.783562 320.18275 
L 259.194737 320.18275 
z
" style="fill:#1f77b4;"/>
   </g>
   <g id="patch_149">
    <path clip-path="url(#p5be6a81276)" d="M 259.930769 325.921635 
L 260.519595 325.921635 
L 260.519595 321.663752 
L 259.930769 321.663752 
z
" style="fill:#1f77b4;"/>
   </g>
   <g id="patch_150">
    <path clip-path="url(#p5be6a81276)" d="M 260.666801 325.921635 
L 261.255627 325.921635 
L 261.255627 323.422443 
L 260.666801 323.422443 
z
" style="fill:#1f77b4;"/>
   </g>
   <g id="patch_151">
    <path clip-path="url(#p5be6a81276)" d="M 261.402833 325.921635 
L 261.991659 325.921635 
L 261.991659 321.848878 
L 261.402833 321.848878 
z
" style="fill:#1f77b4;"/>
   </g>
   <g id="patch_152">
    <path clip-path="url(#p5be6a81276)" d="M 262.138865 325.921635 
L 262.727691 325.921635 
L 262.727691 325.273696 
L 262.138865 325.273696 
z
" style="fill:#1f77b4;"/>
   </g>
   <g id="patch_153">
    <path clip-path="url(#p5be6a81276)" d="M 262.874898 325.921635 
L 263.463723 325.921635 
L 263.463723 323.607568 
L 262.874898 323.607568 
z
" style="fill:#1f77b4;"/>
   </g>
   <g id="patch_154">
    <path clip-path="url(#p5be6a81276)" d="M 263.61093 325.921635 
L 264.199756 325.921635 
L 264.199756 304.724784 
L 263.61093 304.724784 
z
" style="fill:#1f77b4;"/>
   </g>
   <g id="patch_155">
    <path clip-path="url(#p5be6a81276)" d="M 264.346962 325.921635 
L 264.935788 325.921635 
L 264.935788 317.498432 
L 264.346962 317.498432 
z
" style="fill:#1f77b4;"/>
   </g>
   <g id="patch_156">
    <path clip-path="url(#p5be6a81276)" d="M 265.082994 325.921635 
L 265.67182 325.921635 
L 265.67182 314.814115 
L 265.082994 314.814115 
z
" style="fill:#1f77b4;"/>
   </g>
   <g id="patch_157">
    <path clip-path="url(#p5be6a81276)" d="M 265.819027 325.921635 
L 266.407852 325.921635 
L 266.407852 319.534811 
L 265.819027 319.534811 
z
" style="fill:#1f77b4;"/>
   </g>
   <g id="patch_158">
    <path clip-path="url(#p5be6a81276)" d="M 266.555059 325.921635 
L 267.143885 325.921635 
L 267.143885 323.515006 
L 266.555059 323.515006 
z
" style="fill:#1f77b4;"/>
   </g>
   <g id="patch_159">
    <path clip-path="url(#p5be6a81276)" d="M 267.291091 325.921635 
L 267.879917 325.921635 
L 267.879917 323.237318 
L 267.291091 323.237318 
z
" style="fill:#1f77b4;"/>
   </g>
   <g id="patch_160">
    <path clip-path="url(#p5be6a81276)" d="M 268.027123 325.921635 
L 268.615949 325.921635 
L 268.615949 315.276928 
L 268.027123 315.276928 
z
" style="fill:#1f77b4;"/>
   </g>
   <g id="patch_161">
    <path clip-path="url(#p5be6a81276)" d="M 268.763155 325.921635 
L 269.351981 325.921635 
L 269.351981 322.404254 
L 268.763155 322.404254 
z
" style="fill:#1f77b4;"/>
   </g>
   <g id="patch_162">
    <path clip-path="url(#p5be6a81276)" d="M 269.499188 325.921635 
L 270.088013 325.921635 
L 270.088013 310.648795 
L 269.499188 310.648795 
z
" style="fill:#1f77b4;"/>
   </g>
   <g id="patch_163">
    <path clip-path="url(#p5be6a81276)" d="M 270.23522 325.921635 
L 270.824046 325.921635 
L 270.824046 318.331496 
L 270.23522 318.331496 
z
" style="fill:#1f77b4;"/>
   </g>
   <g id="patch_164">
    <path clip-path="url(#p5be6a81276)" d="M 270.971252 325.921635 
L 271.560078 325.921635 
L 271.560078 316.850493 
L 270.971252 316.850493 
z
" style="fill:#1f77b4;"/>
   </g>
   <g id="patch_165">
    <path clip-path="url(#p5be6a81276)" d="M 271.707284 325.921635 
L 272.29611 325.921635 
L 272.29611 325.088571 
L 271.707284 325.088571 
z
" style="fill:#1f77b4;"/>
   </g>
   <g id="patch_166">
    <path clip-path="url(#p5be6a81276)" d="M 272.443316 325.921635 
L 273.032142 325.921635 
L 273.032142 320.275312 
L 272.443316 320.275312 
z
" style="fill:#1f77b4;"/>
   </g>
   <g id="patch_167">
    <path clip-path="url(#p5be6a81276)" d="M 273.179349 325.921635 
L 273.768174 325.921635 
L 273.768174 321.848878 
L 273.179349 321.848878 
z
" style="fill:#1f77b4;"/>
   </g>
   <g id="patch_168">
    <path clip-path="url(#p5be6a81276)" d="M 273.915381 325.921635 
L 274.504207 325.921635 
L 274.504207 295.005704 
L 273.915381 295.005704 
z
" style="fill:#1f77b4;"/>
   </g>
   <g id="patch_169">
    <path clip-path="url(#p5be6a81276)" d="M 274.651413 325.921635 
L 275.240239 325.921635 
L 275.240239 310.185981 
L 274.651413 310.185981 
z
" style="fill:#1f77b4;"/>
   </g>
   <g id="patch_170">
    <path clip-path="url(#p5be6a81276)" d="M 275.387445 325.921635 
L 275.976271 325.921635 
L 275.976271 302.873531 
L 275.387445 302.873531 
z
" style="fill:#1f77b4;"/>
   </g>
   <g id="patch_171">
    <path clip-path="url(#p5be6a81276)" d="M 276.123478 325.921635 
L 276.712303 325.921635 
L 276.712303 305.742973 
L 276.123478 305.742973 
z
" style="fill:#1f77b4;"/>
   </g>
   <g id="patch_172">
    <path clip-path="url(#p5be6a81276)" d="M 276.85951 325.921635 
L 277.448336 325.921635 
L 277.448336 313.6108 
L 276.85951 313.6108 
z
" style="fill:#1f77b4;"/>
   </g>
   <g id="patch_173">
    <path clip-path="url(#p5be6a81276)" d="M 277.595542 325.921635 
L 278.184368 325.921635 
L 278.184368 321.57119 
L 277.595542 321.57119 
z
" style="fill:#1f77b4;"/>
   </g>
   <g id="patch_174">
    <path clip-path="url(#p5be6a81276)" d="M 278.331574 325.921635 
L 278.9204 325.921635 
L 278.9204 298.245397 
L 278.331574 298.245397 
z
" style="fill:#1f77b4;"/>
   </g>
   <g id="patch_175">
    <path clip-path="url(#p5be6a81276)" d="M 279.067606 325.921635 
L 279.656432 325.921635 
L 279.656432 296.94952 
L 279.067606 296.94952 
z
" style="fill:#1f77b4;"/>
   </g>
   <g id="patch_176">
    <path clip-path="url(#p5be6a81276)" d="M 279.803639 325.921635 
L 280.392464 325.921635 
L 280.392464 301.48509 
L 279.803639 301.48509 
z
" style="fill:#1f77b4;"/>
   </g>
   <g id="patch_177">
    <path clip-path="url(#p5be6a81276)" d="M 280.539671 325.921635 
L 281.128497 325.921635 
L 281.128497 308.242165 
L 280.539671 308.242165 
z
" style="fill:#1f77b4;"/>
   </g>
   <g id="patch_178">
    <path clip-path="url(#p5be6a81276)" d="M 281.275703 325.921635 
L 281.864529 325.921635 
L 281.864529 293.709826 
L 281.275703 293.709826 
z
" style="fill:#1f77b4;"/>
   </g>
   <g id="patch_179">
    <path clip-path="url(#p5be6a81276)" d="M 282.011735 325.921635 
L 282.600561 325.921635 
L 282.600561 316.850493 
L 282.011735 316.850493 
z
" style="fill:#1f77b4;"/>
   </g>
   <g id="patch_180">
    <path clip-path="url(#p5be6a81276)" d="M 282.747768 325.921635 
L 283.336593 325.921635 
L 283.336593 320.18275 
L 282.747768 320.18275 
z
" style="fill:#1f77b4;"/>
   </g>
   <g id="patch_181">
    <path clip-path="url(#p5be6a81276)" d="M 283.4838 325.921635 
L 284.072626 325.921635 
L 284.072626 259.924452 
L 283.4838 259.924452 
z
" style="fill:#1f77b4;"/>
   </g>
   <g id="patch_182">
    <path clip-path="url(#p5be6a81276)" d="M 284.219832 325.921635 
L 284.808658 325.921635 
L 284.808658 311.296733 
L 284.219832 311.296733 
z
" style="fill:#1f77b4;"/>
   </g>
   <g id="patch_183">
    <path clip-path="url(#p5be6a81276)" d="M 284.955864 325.921635 
L 285.54469 325.921635 
L 285.54469 325.921635 
L 284.955864 325.921635 
z
" style="fill:#1f77b4;"/>
   </g>
   <g id="patch_184">
    <path clip-path="url(#p5be6a81276)" d="M 285.691896 325.921635 
L 286.280722 325.921635 
L 286.280722 248.816932 
L 285.691896 248.816932 
z
" style="fill:#1f77b4;"/>
   </g>
   <g id="patch_185">
    <path clip-path="url(#p5be6a81276)" d="M 286.427929 325.921635 
L 287.016754 325.921635 
L 287.016754 239.005289 
L 286.427929 239.005289 
z
" style="fill:#1f77b4;"/>
   </g>
   <g id="patch_186">
    <path clip-path="url(#p5be6a81276)" d="M 287.163961 325.921635 
L 287.752787 325.921635 
L 287.752787 325.921635 
L 287.163961 325.921635 
z
" style="fill:#1f77b4;"/>
   </g>
   <g id="patch_187">
    <path clip-path="url(#p5be6a81276)" d="M 287.899993 325.921635 
L 288.488819 325.921635 
L 288.488819 273.901415 
L 287.899993 273.901415 
z
" style="fill:#1f77b4;"/>
   </g>
   <g id="patch_188">
    <path clip-path="url(#p5be6a81276)" d="M 288.636025 325.921635 
L 289.224851 325.921635 
L 289.224851 301.022277 
L 288.636025 301.022277 
z
" style="fill:#1f77b4;"/>
   </g>
   <g id="patch_189">
    <path clip-path="url(#p5be6a81276)" d="M 289.372058 325.921635 
L 289.960883 325.921635 
L 289.960883 241.134231 
L 289.372058 241.134231 
z
" style="fill:#1f77b4;"/>
   </g>
   <g id="patch_190">
    <path clip-path="url(#p5be6a81276)" d="M 290.10809 325.921635 
L 290.696916 325.921635 
L 290.696916 313.6108 
L 290.10809 313.6108 
z
" style="fill:#1f77b4;"/>
   </g>
   <g id="patch_191">
    <path clip-path="url(#p5be6a81276)" d="M 290.844122 325.921635 
L 291.432948 325.921635 
L 291.432948 311.296733 
L 290.844122 311.296733 
z
" style="fill:#1f77b4;"/>
   </g>
   <g id="patch_192">
    <path clip-path="url(#p5be6a81276)" d="M 291.580154 325.921635 
L 292.16898 325.921635 
L 292.16898 325.088571 
L 291.580154 325.088571 
z
" style="fill:#1f77b4;"/>
   </g>
   <g id="patch_193">
    <path clip-path="url(#p5be6a81276)" d="M 292.316186 325.921635 
L 292.905012 325.921635 
L 292.905012 325.643947 
L 292.316186 325.643947 
z
" style="fill:#1f77b4;"/>
   </g>
   <g id="patch_194">
    <path clip-path="url(#p5be6a81276)" d="M 293.052219 325.921635 
L 293.641044 325.921635 
L 293.641044 193.001643 
L 293.052219 193.001643 
z
" style="fill:#1f77b4;"/>
   </g>
   <g id="patch_195">
    <path clip-path="url(#p5be6a81276)" d="M 293.788251 325.921635 
L 294.377077 325.921635 
L 294.377077 313.055424 
L 293.788251 313.055424 
z
" style="fill:#1f77b4;"/>
   </g>
   <g id="patch_196">
    <path clip-path="url(#p5be6a81276)" d="M 294.524283 325.921635 
L 295.113109 325.921635 
L 295.113109 275.845231 
L 294.524283 275.845231 
z
" style="fill:#1f77b4;"/>
   </g>
   <g id="patch_197">
    <path clip-path="url(#p5be6a81276)" d="M 295.260315 325.921635 
L 295.849141 325.921635 
L 295.849141 171.712229 
L 295.260315 171.712229 
z
" style="fill:#1f77b4;"/>
   </g>
   <g id="patch_198">
    <path clip-path="url(#p5be6a81276)" d="M 295.996348 325.921635 
L 296.585173 325.921635 
L 296.585173 301.207402 
L 295.996348 301.207402 
z
" style="fill:#1f77b4;"/>
   </g>
   <g id="patch_199">
    <path clip-path="url(#p5be6a81276)" d="M 296.73238 325.921635 
L 297.321206 325.921635 
L 297.321206 299.263586 
L 296.73238 299.263586 
z
" style="fill:#1f77b4;"/>
   </g>
   <g id="patch_200">
    <path clip-path="url(#p5be6a81276)" d="M 297.468412 325.921635 
L 298.057238 325.921635 
L 298.057238 290.562696 
L 297.468412 290.562696 
z
" style="fill:#1f77b4;"/>
   </g>
   <g id="patch_201">
    <path clip-path="url(#p5be6a81276)" d="M 298.204444 325.921635 
L 298.79327 325.921635 
L 298.79327 321.94144 
L 298.204444 321.94144 
z
" style="fill:#1f77b4;"/>
   </g>
   <g id="patch_202">
    <path clip-path="url(#p5be6a81276)" d="M 298.940476 325.921635 
L 299.529302 325.921635 
L 299.529302 233.544092 
L 298.940476 233.544092 
z
" style="fill:#1f77b4;"/>
   </g>
   <g id="patch_203">
    <path clip-path="url(#p5be6a81276)" d="M 299.676509 325.921635 
L 300.265334 325.921635 
L 300.265334 325.921635 
L 299.676509 325.921635 
z
" style="fill:#1f77b4;"/>
   </g>
   <g id="patch_204">
    <path clip-path="url(#p5be6a81276)" d="M 300.412541 325.921635 
L 301.001367 325.921635 
L 301.001367 263.256708 
L 300.412541 263.256708 
z
" style="fill:#1f77b4;"/>
   </g>
   <g id="patch_205">
    <path clip-path="url(#p5be6a81276)" d="M 301.148573 325.921635 
L 301.737399 325.921635 
L 301.737399 312.037235 
L 301.148573 312.037235 
z
" style="fill:#1f77b4;"/>
   </g>
   <g id="patch_206">
    <path clip-path="url(#p5be6a81276)" d="M 301.884605 325.921635 
L 302.473431 325.921635 
L 302.473431 32.775664 
L 301.884605 32.775664 
z
" style="fill:#1f77b4;"/>
   </g>
   <g id="patch_207">
    <path clip-path="url(#p5be6a81276)" d="M 302.620638 325.921635 
L 303.209463 325.921635 
L 303.209463 318.146371 
L 302.620638 318.146371 
z
" style="fill:#1f77b4;"/>
   </g>
   <g id="matplotlib.axis_3">
    <g id="xtick_3">
     <g id="line2d_13">
      <g>
       <use style="stroke:#000000;stroke-width:0.8;" x="230.047861" xlink:href="#m12cc4fa246" y="325.921635"/>
      </g>
     </g>
     <g id="text_13">
      <!-- 0 -->
      <g transform="translate(226.866611 340.520072)scale(0.1 -0.1)">
       <use xlink:href="#DejaVuSans-48"/>
      </g>
     </g>
    </g>
    <g id="xtick_4">
     <g id="line2d_14">
      <g>
       <use style="stroke:#000000;stroke-width:0.8;" x="303.651083" xlink:href="#m12cc4fa246" y="325.921635"/>
      </g>
     </g>
     <g id="text_14">
      <!-- 100 -->
      <g transform="translate(294.107333 340.520072)scale(0.1 -0.1)">
       <use xlink:href="#DejaVuSans-49"/>
       <use x="63.623047" xlink:href="#DejaVuSans-48"/>
       <use x="127.246094" xlink:href="#DejaVuSans-48"/>
      </g>
     </g>
    </g>
   </g>
   <g id="matplotlib.axis_4">
    <g id="ytick_10">
     <g id="line2d_15">
      <g>
       <use style="stroke:#000000;stroke-width:0.8;" x="226.080647" xlink:href="#mc68921daa8" y="325.921635"/>
      </g>
     </g>
     <g id="text_15">
      <!-- 0 -->
      <g transform="translate(212.718147 329.720854)scale(0.1 -0.1)">
       <use xlink:href="#DejaVuSans-48"/>
      </g>
     </g>
    </g>
    <g id="ytick_11">
     <g id="line2d_16">
      <g>
       <use style="stroke:#000000;stroke-width:0.8;" x="226.080647" xlink:href="#mc68921daa8" y="279.640301"/>
      </g>
     </g>
     <g id="text_16">
      <!-- 500 -->
      <g transform="translate(199.993147 283.439519)scale(0.1 -0.1)">
       <use xlink:href="#DejaVuSans-53"/>
       <use x="63.623047" xlink:href="#DejaVuSans-48"/>
       <use x="127.246094" xlink:href="#DejaVuSans-48"/>
      </g>
     </g>
    </g>
    <g id="ytick_12">
     <g id="line2d_17">
      <g>
       <use style="stroke:#000000;stroke-width:0.8;" x="226.080647" xlink:href="#mc68921daa8" y="233.358966"/>
      </g>
     </g>
     <g id="text_17">
      <!-- 1000 -->
      <g transform="translate(193.630647 237.158185)scale(0.1 -0.1)">
       <use xlink:href="#DejaVuSans-49"/>
       <use x="63.623047" xlink:href="#DejaVuSans-48"/>
       <use x="127.246094" xlink:href="#DejaVuSans-48"/>
       <use x="190.869141" xlink:href="#DejaVuSans-48"/>
      </g>
     </g>
    </g>
    <g id="ytick_13">
     <g id="line2d_18">
      <g>
       <use style="stroke:#000000;stroke-width:0.8;" x="226.080647" xlink:href="#mc68921daa8" y="187.077632"/>
      </g>
     </g>
     <g id="text_18">
      <!-- 1500 -->
      <g transform="translate(193.630647 190.876851)scale(0.1 -0.1)">
       <use xlink:href="#DejaVuSans-49"/>
       <use x="63.623047" xlink:href="#DejaVuSans-53"/>
       <use x="127.246094" xlink:href="#DejaVuSans-48"/>
       <use x="190.869141" xlink:href="#DejaVuSans-48"/>
      </g>
     </g>
    </g>
    <g id="ytick_14">
     <g id="line2d_19">
      <g>
       <use style="stroke:#000000;stroke-width:0.8;" x="226.080647" xlink:href="#mc68921daa8" y="140.796298"/>
      </g>
     </g>
     <g id="text_19">
      <!-- 2000 -->
      <g transform="translate(193.630647 144.595517)scale(0.1 -0.1)">
       <use xlink:href="#DejaVuSans-50"/>
       <use x="63.623047" xlink:href="#DejaVuSans-48"/>
       <use x="127.246094" xlink:href="#DejaVuSans-48"/>
       <use x="190.869141" xlink:href="#DejaVuSans-48"/>
      </g>
     </g>
    </g>
    <g id="ytick_15">
     <g id="line2d_20">
      <g>
       <use style="stroke:#000000;stroke-width:0.8;" x="226.080647" xlink:href="#mc68921daa8" y="94.514964"/>
      </g>
     </g>
     <g id="text_20">
      <!-- 2500 -->
      <g transform="translate(193.630647 98.314182)scale(0.1 -0.1)">
       <use xlink:href="#DejaVuSans-50"/>
       <use x="63.623047" xlink:href="#DejaVuSans-53"/>
       <use x="127.246094" xlink:href="#DejaVuSans-48"/>
       <use x="190.869141" xlink:href="#DejaVuSans-48"/>
      </g>
     </g>
    </g>
    <g id="ytick_16">
     <g id="line2d_21">
      <g>
       <use style="stroke:#000000;stroke-width:0.8;" x="226.080647" xlink:href="#mc68921daa8" y="48.233629"/>
      </g>
     </g>
     <g id="text_21">
      <!-- 3000 -->
      <defs>
       <path d="M 40.578125 39.3125 
Q 47.65625 37.796875 51.625 33 
Q 55.609375 28.21875 55.609375 21.1875 
Q 55.609375 10.40625 48.1875 4.484375 
Q 40.765625 -1.421875 27.09375 -1.421875 
Q 22.515625 -1.421875 17.65625 -0.515625 
Q 12.796875 0.390625 7.625 2.203125 
L 7.625 11.71875 
Q 11.71875 9.328125 16.59375 8.109375 
Q 21.484375 6.890625 26.8125 6.890625 
Q 36.078125 6.890625 40.9375 10.546875 
Q 45.796875 14.203125 45.796875 21.1875 
Q 45.796875 27.640625 41.28125 31.265625 
Q 36.765625 34.90625 28.71875 34.90625 
L 20.21875 34.90625 
L 20.21875 43.015625 
L 29.109375 43.015625 
Q 36.375 43.015625 40.234375 45.921875 
Q 44.09375 48.828125 44.09375 54.296875 
Q 44.09375 59.90625 40.109375 62.90625 
Q 36.140625 65.921875 28.71875 65.921875 
Q 24.65625 65.921875 20.015625 65.03125 
Q 15.375 64.15625 9.8125 62.3125 
L 9.8125 71.09375 
Q 15.4375 72.65625 20.34375 73.4375 
Q 25.25 74.21875 29.59375 74.21875 
Q 40.828125 74.21875 47.359375 69.109375 
Q 53.90625 64.015625 53.90625 55.328125 
Q 53.90625 49.265625 50.4375 45.09375 
Q 46.96875 40.921875 40.578125 39.3125 
z
" id="DejaVuSans-51"/>
      </defs>
      <g transform="translate(193.630647 52.032848)scale(0.1 -0.1)">
       <use xlink:href="#DejaVuSans-51"/>
       <use x="63.623047" xlink:href="#DejaVuSans-48"/>
       <use x="127.246094" xlink:href="#DejaVuSans-48"/>
       <use x="190.869141" xlink:href="#DejaVuSans-48"/>
      </g>
     </g>
    </g>
   </g>
   <g id="line2d_22">
    <path clip-path="url(#p5be6a81276)" d="M 230.047861 325.899853 
L 230.783893 325.888018 
L 231.519925 325.871556 
L 232.255957 325.850122 
L 232.991989 325.821902 
L 233.728022 325.785547 
L 234.464054 325.739478 
L 235.200086 325.682229 
L 235.936118 325.611217 
L 236.672151 325.523936 
L 237.408183 325.419576 
L 238.144215 325.297675 
L 238.880247 325.158234 
L 239.616279 325.002292 
L 240.352312 324.831739 
L 241.088344 324.657216 
L 241.824376 324.49075 
L 242.560408 324.343636 
L 243.296441 324.224897 
L 244.032473 324.142203 
L 244.768505 324.101262 
L 245.504537 324.105502 
L 246.240569 324.141201 
L 246.976602 324.190702 
L 247.712634 324.234265 
L 248.448666 324.2557 
L 249.184698 324.242939 
L 249.920731 324.185883 
L 250.656763 324.074005 
L 251.392795 323.914864 
L 252.128827 323.722028 
L 252.864859 323.510418 
L 253.600892 323.296263 
L 254.336924 323.089318 
L 255.072956 322.89174 
L 255.808988 322.71101 
L 256.545021 322.540071 
L 257.281053 322.363736 
L 258.017085 322.169975 
L 258.753117 321.937469 
L 259.489149 321.646712 
L 260.225182 321.306532 
L 260.961214 320.919242 
L 261.697246 320.501495 
L 262.433278 320.077735 
L 263.169311 319.667699 
L 263.905343 319.300069 
L 264.641375 319.014363 
L 265.377407 318.795081 
L 266.113439 318.634089 
L 266.849472 318.503206 
L 267.585504 318.367118 
L 268.321536 318.186966 
L 269.057568 317.923388 
L 269.7936 317.509034 
L 270.529633 316.941051 
L 271.265665 316.206102 
L 272.001697 315.319643 
L 272.737729 314.304268 
L 273.473762 313.19953 
L 274.209794 312.039933 
L 274.945826 310.885194 
L 275.681858 309.756978 
L 276.41789 308.700275 
L 277.153923 307.707839 
L 277.889955 306.75191 
L 278.625987 305.789467 
L 279.362019 304.762796 
L 280.098052 303.646955 
L 280.834084 302.383692 
L 281.570116 300.868417 
L 282.306148 299.109958 
L 283.04218 297.210939 
L 283.778213 295.271364 
L 284.514245 293.413094 
L 285.250277 291.673602 
L 285.986309 290.2096 
L 286.722342 289.168242 
L 287.458374 288.537921 
L 288.194406 288.125379 
L 288.930438 287.733077 
L 289.66647 287.261011 
L 290.402503 286.628339 
L 291.138535 285.638061 
L 291.874567 284.283045 
L 292.610599 282.676094 
L 293.346632 280.981631 
L 294.082664 279.415274 
L 294.818696 277.945606 
L 295.554728 276.554853 
L 296.29076 275.232028 
L 297.026793 273.766446 
L 297.762825 271.811642 
L 298.498857 269.282766 
L 299.234889 266.374501 
L 299.970922 263.030603 
L 300.706954 259.365452 
L 301.442986 257.065033 
L 302.179018 254.648843 
L 302.91505 252.407099 
" style="fill:none;stroke:#ff0000;stroke-linecap:square;stroke-width:1.5;"/>
   </g>
   <g id="patch_208">
    <path d="M 226.080647 325.921635 
L 226.080647 18.118365 
" style="fill:none;stroke:#000000;stroke-linecap:square;stroke-linejoin:miter;stroke-width:0.8;"/>
   </g>
   <g id="patch_209">
    <path d="M 306.882264 325.921635 
L 306.882264 18.118365 
" style="fill:none;stroke:#000000;stroke-linecap:square;stroke-linejoin:miter;stroke-width:0.8;"/>
   </g>
   <g id="patch_210">
    <path d="M 226.080647 325.921635 
L 306.882264 325.921635 
" style="fill:none;stroke:#000000;stroke-linecap:square;stroke-linejoin:miter;stroke-width:0.8;"/>
   </g>
   <g id="patch_211">
    <path d="M 226.080647 18.118365 
L 306.882264 18.118365 
" style="fill:none;stroke:#000000;stroke-linecap:square;stroke-linejoin:miter;stroke-width:0.8;"/>
   </g>
   <g id="text_22">
    <!-- Casos novos - RN - (data) -->
    <defs>
     <path d="M 54.890625 33.015625 
L 54.890625 0 
L 45.90625 0 
L 45.90625 32.71875 
Q 45.90625 40.484375 42.875 44.328125 
Q 39.84375 48.1875 33.796875 48.1875 
Q 26.515625 48.1875 22.3125 43.546875 
Q 18.109375 38.921875 18.109375 30.90625 
L 18.109375 0 
L 9.078125 0 
L 9.078125 54.6875 
L 18.109375 54.6875 
L 18.109375 46.1875 
Q 21.34375 51.125 25.703125 53.5625 
Q 30.078125 56 35.796875 56 
Q 45.21875 56 50.046875 50.171875 
Q 54.890625 44.34375 54.890625 33.015625 
z
" id="DejaVuSans-110"/>
     <path d="M 2.984375 54.6875 
L 12.5 54.6875 
L 29.59375 8.796875 
L 46.6875 54.6875 
L 56.203125 54.6875 
L 35.6875 0 
L 23.484375 0 
z
" id="DejaVuSans-118"/>
    </defs>
    <g transform="translate(190.152081 12.118365)scale(0.12 -0.12)">
     <use xlink:href="#DejaVuSans-67"/>
     <use x="69.824219" xlink:href="#DejaVuSans-97"/>
     <use x="131.103516" xlink:href="#DejaVuSans-115"/>
     <use x="183.203125" xlink:href="#DejaVuSans-111"/>
     <use x="244.384766" xlink:href="#DejaVuSans-115"/>
     <use x="296.484375" xlink:href="#DejaVuSans-32"/>
     <use x="328.271484" xlink:href="#DejaVuSans-110"/>
     <use x="391.650391" xlink:href="#DejaVuSans-111"/>
     <use x="452.832031" xlink:href="#DejaVuSans-118"/>
     <use x="512.011719" xlink:href="#DejaVuSans-111"/>
     <use x="573.193359" xlink:href="#DejaVuSans-115"/>
     <use x="625.292969" xlink:href="#DejaVuSans-32"/>
     <use x="657.080078" xlink:href="#DejaVuSans-45"/>
     <use x="693.164062" xlink:href="#DejaVuSans-32"/>
     <use x="724.951172" xlink:href="#DejaVuSans-82"/>
     <use x="794.433594" xlink:href="#DejaVuSans-78"/>
     <use x="869.238281" xlink:href="#DejaVuSans-32"/>
     <use x="901.025391" xlink:href="#DejaVuSans-45"/>
     <use x="937.109375" xlink:href="#DejaVuSans-32"/>
     <use x="968.896484" xlink:href="#DejaVuSans-40"/>
     <use x="1007.910156" xlink:href="#DejaVuSans-100"/>
     <use x="1071.386719" xlink:href="#DejaVuSans-97"/>
     <use x="1132.666016" xlink:href="#DejaVuSans-116"/>
     <use x="1171.875" xlink:href="#DejaVuSans-97"/>
     <use x="1233.154297" xlink:href="#DejaVuSans-41"/>
    </g>
   </g>
  </g>
  <g id="axes_3">
   <g id="patch_212">
    <path d="M 370.682899 325.921635 
L 451.484516 325.921635 
L 451.484516 18.118365 
L 370.682899 18.118365 
z
" style="fill:#ffffff;"/>
   </g>
   <g id="matplotlib.axis_5">
    <g id="xtick_5">
     <g id="line2d_23">
      <g>
       <use style="stroke:#000000;stroke-width:0.8;" x="374.3557" xlink:href="#m12cc4fa246" y="325.921635"/>
      </g>
     </g>
     <g id="text_23">
      <!-- 0 -->
      <g transform="translate(371.17445 340.520072)scale(0.1 -0.1)">
       <use xlink:href="#DejaVuSans-48"/>
      </g>
     </g>
    </g>
    <g id="xtick_6">
     <g id="line2d_24">
      <g>
       <use style="stroke:#000000;stroke-width:0.8;" x="448.553695" xlink:href="#m12cc4fa246" y="325.921635"/>
      </g>
     </g>
     <g id="text_24">
      <!-- 100 -->
      <g transform="translate(439.009945 340.520072)scale(0.1 -0.1)">
       <use xlink:href="#DejaVuSans-49"/>
       <use x="63.623047" xlink:href="#DejaVuSans-48"/>
       <use x="127.246094" xlink:href="#DejaVuSans-48"/>
      </g>
     </g>
    </g>
   </g>
   <g id="matplotlib.axis_6">
    <g id="ytick_17">
     <g id="line2d_25">
      <g>
       <use style="stroke:#000000;stroke-width:0.8;" x="370.682899" xlink:href="#mc68921daa8" y="292.563179"/>
      </g>
     </g>
     <g id="text_25">
      <!-- 1.0 -->
      <defs>
       <path d="M 10.6875 12.40625 
L 21 12.40625 
L 21 0 
L 10.6875 0 
z
" id="DejaVuSans-46"/>
      </defs>
      <g transform="translate(347.779774 296.362398)scale(0.1 -0.1)">
       <use xlink:href="#DejaVuSans-49"/>
       <use x="63.623047" xlink:href="#DejaVuSans-46"/>
       <use x="95.410156" xlink:href="#DejaVuSans-48"/>
      </g>
     </g>
    </g>
    <g id="ytick_18">
     <g id="line2d_26">
      <g>
       <use style="stroke:#000000;stroke-width:0.8;" x="370.682899" xlink:href="#mc68921daa8" y="244.874404"/>
      </g>
     </g>
     <g id="text_26">
      <!-- 1.5 -->
      <g transform="translate(347.779774 248.673622)scale(0.1 -0.1)">
       <use xlink:href="#DejaVuSans-49"/>
       <use x="63.623047" xlink:href="#DejaVuSans-46"/>
       <use x="95.410156" xlink:href="#DejaVuSans-53"/>
      </g>
     </g>
    </g>
    <g id="ytick_19">
     <g id="line2d_27">
      <g>
       <use style="stroke:#000000;stroke-width:0.8;" x="370.682899" xlink:href="#mc68921daa8" y="197.185628"/>
      </g>
     </g>
     <g id="text_27">
      <!-- 2.0 -->
      <g transform="translate(347.779774 200.984847)scale(0.1 -0.1)">
       <use xlink:href="#DejaVuSans-50"/>
       <use x="63.623047" xlink:href="#DejaVuSans-46"/>
       <use x="95.410156" xlink:href="#DejaVuSans-48"/>
      </g>
     </g>
    </g>
    <g id="ytick_20">
     <g id="line2d_28">
      <g>
       <use style="stroke:#000000;stroke-width:0.8;" x="370.682899" xlink:href="#mc68921daa8" y="149.496853"/>
      </g>
     </g>
     <g id="text_28">
      <!-- 2.5 -->
      <g transform="translate(347.779774 153.296071)scale(0.1 -0.1)">
       <use xlink:href="#DejaVuSans-50"/>
       <use x="63.623047" xlink:href="#DejaVuSans-46"/>
       <use x="95.410156" xlink:href="#DejaVuSans-53"/>
      </g>
     </g>
    </g>
    <g id="ytick_21">
     <g id="line2d_29">
      <g>
       <use style="stroke:#000000;stroke-width:0.8;" x="370.682899" xlink:href="#mc68921daa8" y="101.808077"/>
      </g>
     </g>
     <g id="text_29">
      <!-- 3.0 -->
      <g transform="translate(347.779774 105.607296)scale(0.1 -0.1)">
       <use xlink:href="#DejaVuSans-51"/>
       <use x="63.623047" xlink:href="#DejaVuSans-46"/>
       <use x="95.410156" xlink:href="#DejaVuSans-48"/>
      </g>
     </g>
    </g>
    <g id="ytick_22">
     <g id="line2d_30">
      <g>
       <use style="stroke:#000000;stroke-width:0.8;" x="370.682899" xlink:href="#mc68921daa8" y="54.119301"/>
      </g>
     </g>
     <g id="text_30">
      <!-- 3.5 -->
      <g transform="translate(347.779774 57.91852)scale(0.1 -0.1)">
       <use xlink:href="#DejaVuSans-51"/>
       <use x="63.623047" xlink:href="#DejaVuSans-46"/>
       <use x="95.410156" xlink:href="#DejaVuSans-53"/>
      </g>
     </g>
    </g>
   </g>
   <g id="line2d_31">
    <path clip-path="url(#pcdcde2b5bb)" d="M 374.3557 32.109423 
L 375.09768 52.707121 
L 375.83966 68.61242 
L 376.58164 88.355646 
L 377.32362 99.781836 
L 378.065599 110.551157 
L 378.807579 120.239091 
L 379.549559 129.619826 
L 380.291539 136.674166 
L 381.033519 142.998136 
L 381.775499 150.890104 
L 382.517479 159.390324 
L 383.259459 168.032718 
L 384.001439 176.8971 
L 384.743419 185.830291 
L 385.485399 198.39137 
L 386.227379 213.156853 
L 386.969359 228.89517 
L 387.711339 244.731105 
L 388.453319 260.750651 
L 389.195299 277.096867 
L 389.937279 294.024232 
L 390.679259 306.104261 
L 391.421239 311.930577 
L 392.163219 310.028704 
L 392.905199 301.185664 
L 393.647179 287.210177 
L 394.389159 269.953073 
L 395.131139 251.043996 
L 395.873118 238.223036 
L 396.615098 232.485809 
L 397.357078 232.394335 
L 398.099058 236.592293 
L 398.841038 242.372975 
L 399.583018 247.711669 
L 400.324998 253.777751 
L 401.066978 257.674032 
L 401.808958 258.32074 
L 402.550938 256.863786 
L 403.292918 252.238462 
L 404.034898 245.589674 
L 404.776878 241.644057 
L 405.518858 239.050031 
L 406.260838 239.230259 
L 407.002818 242.293863 
L 407.744798 246.996015 
L 408.486778 253.825232 
L 409.228758 263.484085 
L 409.970738 270.706102 
L 410.712718 276.620036 
L 411.454698 279.632885 
L 412.196678 279.334683 
L 412.938657 275.660072 
L 413.680637 268.960785 
L 414.422617 257.678671 
L 415.164597 247.962919 
L 415.906577 239.317831 
L 416.648557 233.705601 
L 417.390537 230.953126 
L 418.132517 231.191673 
L 418.874497 233.312177 
L 419.616477 237.808646 
L 420.358457 242.490623 
L 421.100437 248.175271 
L 421.842417 252.783329 
L 422.584397 255.832431 
L 423.326377 257.098392 
L 424.068357 256.421683 
L 424.810337 255.13352 
L 425.552317 252.425821 
L 426.294297 247.417783 
L 427.036277 243.568679 
L 427.778257 242.882856 
L 428.520237 244.590223 
L 429.262217 248.59715 
L 430.004196 252.795172 
L 430.746176 259.446707 
L 431.488156 268.177779 
L 432.230136 276.111907 
L 432.972116 280.136195 
L 433.714096 280.378854 
L 434.456076 278.76646 
L 435.198056 275.733672 
L 435.940036 269.359865 
L 436.682016 263.308243 
L 437.423996 259.624761 
L 438.165976 258.86205 
L 438.907956 261.420143 
L 439.649936 263.273822 
L 440.391916 264.703973 
L 441.133896 265.85334 
L 441.875876 263.986284 
L 442.617856 257.6157 
L 443.359836 250.784682 
L 444.101816 247.089839 
L 444.843796 243.210555 
L 445.585776 241.079416 
L 446.327756 256.800982 
L 447.069735 255.813425 
L 447.811715 257.784866 
" style="fill:none;stroke:#ff0000;stroke-linecap:square;stroke-width:1.5;"/>
   </g>
   <g id="patch_213">
    <path d="M 370.682899 325.921635 
L 370.682899 18.118365 
" style="fill:none;stroke:#000000;stroke-linecap:square;stroke-linejoin:miter;stroke-width:0.8;"/>
   </g>
   <g id="patch_214">
    <path d="M 451.484516 325.921635 
L 451.484516 18.118365 
" style="fill:none;stroke:#000000;stroke-linecap:square;stroke-linejoin:miter;stroke-width:0.8;"/>
   </g>
   <g id="patch_215">
    <path d="M 370.682899 325.921635 
L 451.484516 325.921635 
" style="fill:none;stroke:#000000;stroke-linecap:square;stroke-linejoin:miter;stroke-width:0.8;"/>
   </g>
   <g id="patch_216">
    <path d="M 370.682899 18.118365 
L 451.484516 18.118365 
" style="fill:none;stroke:#000000;stroke-linecap:square;stroke-linejoin:miter;stroke-width:0.8;"/>
   </g>
   <g id="text_31">
    <!-- r0 - RN - (data) -->
    <defs>
     <path d="M 41.109375 46.296875 
Q 39.59375 47.171875 37.8125 47.578125 
Q 36.03125 48 33.890625 48 
Q 26.265625 48 22.1875 43.046875 
Q 18.109375 38.09375 18.109375 28.8125 
L 18.109375 0 
L 9.078125 0 
L 9.078125 54.6875 
L 18.109375 54.6875 
L 18.109375 46.1875 
Q 20.953125 51.171875 25.484375 53.578125 
Q 30.03125 56 36.53125 56 
Q 37.453125 56 38.578125 55.875 
Q 39.703125 55.765625 41.0625 55.515625 
z
" id="DejaVuSans-114"/>
    </defs>
    <g transform="translate(365.988083 12.118365)scale(0.12 -0.12)">
     <use xlink:href="#DejaVuSans-114"/>
     <use x="41.113281" xlink:href="#DejaVuSans-48"/>
     <use x="104.736328" xlink:href="#DejaVuSans-32"/>
     <use x="136.523438" xlink:href="#DejaVuSans-45"/>
     <use x="172.607422" xlink:href="#DejaVuSans-32"/>
     <use x="204.394531" xlink:href="#DejaVuSans-82"/>
     <use x="273.876953" xlink:href="#DejaVuSans-78"/>
     <use x="348.681641" xlink:href="#DejaVuSans-32"/>
     <use x="380.46875" xlink:href="#DejaVuSans-45"/>
     <use x="416.552734" xlink:href="#DejaVuSans-32"/>
     <use x="448.339844" xlink:href="#DejaVuSans-40"/>
     <use x="487.353516" xlink:href="#DejaVuSans-100"/>
     <use x="550.830078" xlink:href="#DejaVuSans-97"/>
     <use x="612.109375" xlink:href="#DejaVuSans-116"/>
     <use x="651.318359" xlink:href="#DejaVuSans-97"/>
     <use x="712.597656" xlink:href="#DejaVuSans-41"/>
    </g>
   </g>
  </g>
 </g>
 <defs>
  <clipPath id="pe8b66a3958">
   <rect height="307.80327" width="80.801617" x="53.378395" y="18.118365"/>
  </clipPath>
  <clipPath id="p5be6a81276">
   <rect height="307.80327" width="80.801617" x="226.080647" y="18.118365"/>
  </clipPath>
  <clipPath id="pcdcde2b5bb">
   <rect height="307.80327" width="80.801617" x="370.682899" y="18.118365"/>
  </clipPath>
 </defs>
</svg>
