<?xml version="1.0" encoding="utf-8" standalone="no"?>
<!DOCTYPE svg PUBLIC "-//W3C//DTD SVG 1.1//EN"
  "http://www.w3.org/Graphics/SVG/1.1/DTD/svg11.dtd">
<!-- Created with matplotlib (https://matplotlib.org/) -->
<svg height="345.6pt" version="1.1" viewBox="0 0 460.8 345.6" width="460.8pt" xmlns="http://www.w3.org/2000/svg" xmlns:xlink="http://www.w3.org/1999/xlink">
 <defs>
  <style type="text/css">
*{stroke-linecap:butt;stroke-linejoin:round;}
  </style>
 </defs>
 <g id="figure_1">
  <g id="patch_1">
   <path d="M 0 345.6 
L 460.8 345.6 
L 460.8 0 
L 0 0 
z
" style="fill:#ffffff;"/>
  </g>
  <g id="axes_1">
   <g id="patch_2">
    <path d="M 55.490865 137.71551 
L 225.520753 137.71551 
L 225.520753 18.118365 
L 55.490865 18.118365 
z
" style="fill:#ffffff;"/>
   </g>
   <g id="patch_3">
    <path clip-path="url(#p6eec705697)" d="M 63.219496 137.71551 
L 64.458555 137.71551 
L 64.458555 137.709605 
L 63.219496 137.709605 
z
" style="fill:#1f77b4;"/>
   </g>
   <g id="patch_4">
    <path clip-path="url(#p6eec705697)" d="M 64.76832 137.71551 
L 66.007379 137.71551 
L 66.007379 137.709605 
L 64.76832 137.709605 
z
" style="fill:#1f77b4;"/>
   </g>
   <g id="patch_5">
    <path clip-path="url(#p6eec705697)" d="M 66.317144 137.71551 
L 67.556203 137.71551 
L 67.556203 137.709605 
L 66.317144 137.709605 
z
" style="fill:#1f77b4;"/>
   </g>
   <g id="patch_6">
    <path clip-path="url(#p6eec705697)" d="M 67.865968 137.71551 
L 69.105027 137.71551 
L 69.105027 137.709605 
L 67.865968 137.709605 
z
" style="fill:#1f77b4;"/>
   </g>
   <g id="patch_7">
    <path clip-path="url(#p6eec705697)" d="M 69.414792 137.71551 
L 70.653851 137.71551 
L 70.653851 137.709605 
L 69.414792 137.709605 
z
" style="fill:#1f77b4;"/>
   </g>
   <g id="patch_8">
    <path clip-path="url(#p6eec705697)" d="M 70.963616 137.71551 
L 72.202675 137.71551 
L 72.202675 137.709605 
L 70.963616 137.709605 
z
" style="fill:#1f77b4;"/>
   </g>
   <g id="patch_9">
    <path clip-path="url(#p6eec705697)" d="M 72.51244 137.71551 
L 73.751499 137.71551 
L 73.751499 137.709605 
L 72.51244 137.709605 
z
" style="fill:#1f77b4;"/>
   </g>
   <g id="patch_10">
    <path clip-path="url(#p6eec705697)" d="M 74.061264 137.71551 
L 75.300323 137.71551 
L 75.300323 137.680082 
L 74.061264 137.680082 
z
" style="fill:#1f77b4;"/>
   </g>
   <g id="patch_11">
    <path clip-path="url(#p6eec705697)" d="M 75.610088 137.71551 
L 76.849147 137.71551 
L 76.849147 137.662368 
L 75.610088 137.662368 
z
" style="fill:#1f77b4;"/>
   </g>
   <g id="patch_12">
    <path clip-path="url(#p6eec705697)" d="M 77.158911 137.71551 
L 78.397971 137.71551 
L 78.397971 137.638749 
L 77.158911 137.638749 
z
" style="fill:#1f77b4;"/>
   </g>
   <g id="patch_13">
    <path clip-path="url(#p6eec705697)" d="M 78.707735 137.71551 
L 79.946794 137.71551 
L 79.946794 137.638749 
L 78.707735 137.638749 
z
" style="fill:#1f77b4;"/>
   </g>
   <g id="patch_14">
    <path clip-path="url(#p6eec705697)" d="M 80.256559 137.71551 
L 81.495618 137.71551 
L 81.495618 137.632844 
L 80.256559 137.632844 
z
" style="fill:#1f77b4;"/>
   </g>
   <g id="patch_15">
    <path clip-path="url(#p6eec705697)" d="M 81.805383 137.71551 
L 83.044442 137.71551 
L 83.044442 137.60332 
L 81.805383 137.60332 
z
" style="fill:#1f77b4;"/>
   </g>
   <g id="patch_16">
    <path clip-path="url(#p6eec705697)" d="M 83.354207 137.71551 
L 84.593266 137.71551 
L 84.593266 137.550178 
L 83.354207 137.550178 
z
" style="fill:#1f77b4;"/>
   </g>
   <g id="patch_17">
    <path clip-path="url(#p6eec705697)" d="M 84.903031 137.71551 
L 86.14209 137.71551 
L 86.14209 137.449798 
L 84.903031 137.449798 
z
" style="fill:#1f77b4;"/>
   </g>
   <g id="patch_18">
    <path clip-path="url(#p6eec705697)" d="M 86.451855 137.71551 
L 87.690914 137.71551 
L 87.690914 137.313989 
L 86.451855 137.313989 
z
" style="fill:#1f77b4;"/>
   </g>
   <g id="patch_19">
    <path clip-path="url(#p6eec705697)" d="M 88.000679 137.71551 
L 89.239738 137.71551 
L 89.239738 137.260847 
L 88.000679 137.260847 
z
" style="fill:#1f77b4;"/>
   </g>
   <g id="patch_20">
    <path clip-path="url(#p6eec705697)" d="M 89.549503 137.71551 
L 90.788562 137.71551 
L 90.788562 137.231323 
L 89.549503 137.231323 
z
" style="fill:#1f77b4;"/>
   </g>
   <g id="patch_21">
    <path clip-path="url(#p6eec705697)" d="M 91.098327 137.71551 
L 92.337386 137.71551 
L 92.337386 137.172276 
L 91.098327 137.172276 
z
" style="fill:#1f77b4;"/>
   </g>
   <g id="patch_22">
    <path clip-path="url(#p6eec705697)" d="M 92.64715 137.71551 
L 93.88621 137.71551 
L 93.88621 137.095514 
L 92.64715 137.095514 
z
" style="fill:#1f77b4;"/>
   </g>
   <g id="patch_23">
    <path clip-path="url(#p6eec705697)" d="M 94.195974 137.71551 
L 95.435033 137.71551 
L 95.435033 136.676279 
L 94.195974 136.676279 
z
" style="fill:#1f77b4;"/>
   </g>
   <g id="patch_24">
    <path clip-path="url(#p6eec705697)" d="M 95.744798 137.71551 
L 96.983857 137.71551 
L 96.983857 136.463709 
L 95.744798 136.463709 
z
" style="fill:#1f77b4;"/>
   </g>
   <g id="patch_25">
    <path clip-path="url(#p6eec705697)" d="M 97.293622 137.71551 
L 98.532681 137.71551 
L 98.532681 136.286568 
L 97.293622 136.286568 
z
" style="fill:#1f77b4;"/>
   </g>
   <g id="patch_26">
    <path clip-path="url(#p6eec705697)" d="M 98.842446 137.71551 
L 100.081505 137.71551 
L 100.081505 136.262949 
L 98.842446 136.262949 
z
" style="fill:#1f77b4;"/>
   </g>
   <g id="patch_27">
    <path clip-path="url(#p6eec705697)" d="M 100.39127 137.71551 
L 101.630329 137.71551 
L 101.630329 136.215711 
L 100.39127 136.215711 
z
" style="fill:#1f77b4;"/>
   </g>
   <g id="patch_28">
    <path clip-path="url(#p6eec705697)" d="M 101.940094 137.71551 
L 103.179153 137.71551 
L 103.179153 136.174378 
L 101.940094 136.174378 
z
" style="fill:#1f77b4;"/>
   </g>
   <g id="patch_29">
    <path clip-path="url(#p6eec705697)" d="M 103.488918 137.71551 
L 104.727977 137.71551 
L 104.727977 136.174378 
L 103.488918 136.174378 
z
" style="fill:#1f77b4;"/>
   </g>
   <g id="patch_30">
    <path clip-path="url(#p6eec705697)" d="M 105.037742 137.71551 
L 106.276801 137.71551 
L 106.276801 136.162569 
L 105.037742 136.162569 
z
" style="fill:#1f77b4;"/>
   </g>
   <g id="patch_31">
    <path clip-path="url(#p6eec705697)" d="M 106.586566 137.71551 
L 107.825625 137.71551 
L 107.825625 136.009046 
L 106.586566 136.009046 
z
" style="fill:#1f77b4;"/>
   </g>
   <g id="patch_32">
    <path clip-path="url(#p6eec705697)" d="M 108.135389 137.71551 
L 109.374449 137.71551 
L 109.374449 135.932285 
L 108.135389 135.932285 
z
" style="fill:#1f77b4;"/>
   </g>
   <g id="patch_33">
    <path clip-path="url(#p6eec705697)" d="M 109.684213 137.71551 
L 110.923273 137.71551 
L 110.923273 135.71381 
L 109.684213 135.71381 
z
" style="fill:#1f77b4;"/>
   </g>
   <g id="patch_34">
    <path clip-path="url(#p6eec705697)" d="M 111.233037 137.71551 
L 112.472096 137.71551 
L 112.472096 135.495335 
L 111.233037 135.495335 
z
" style="fill:#1f77b4;"/>
   </g>
   <g id="patch_35">
    <path clip-path="url(#p6eec705697)" d="M 112.781861 137.71551 
L 114.02092 137.71551 
L 114.02092 135.359527 
L 112.781861 135.359527 
z
" style="fill:#1f77b4;"/>
   </g>
   <g id="patch_36">
    <path clip-path="url(#p6eec705697)" d="M 114.330685 137.71551 
L 115.569744 137.71551 
L 115.569744 135.353622 
L 114.330685 135.353622 
z
" style="fill:#1f77b4;"/>
   </g>
   <g id="patch_37">
    <path clip-path="url(#p6eec705697)" d="M 115.879509 137.71551 
L 117.118568 137.71551 
L 117.118568 134.981625 
L 115.879509 134.981625 
z
" style="fill:#1f77b4;"/>
   </g>
   <g id="patch_38">
    <path clip-path="url(#p6eec705697)" d="M 117.428333 137.71551 
L 118.667392 137.71551 
L 118.667392 134.668675 
L 117.428333 134.668675 
z
" style="fill:#1f77b4;"/>
   </g>
   <g id="patch_39">
    <path clip-path="url(#p6eec705697)" d="M 118.977157 137.71551 
L 120.216216 137.71551 
L 120.216216 134.580104 
L 118.977157 134.580104 
z
" style="fill:#1f77b4;"/>
   </g>
   <g id="patch_40">
    <path clip-path="url(#p6eec705697)" d="M 120.525981 137.71551 
L 121.76504 137.71551 
L 121.76504 134.202202 
L 120.525981 134.202202 
z
" style="fill:#1f77b4;"/>
   </g>
   <g id="patch_41">
    <path clip-path="url(#p6eec705697)" d="M 122.074805 137.71551 
L 123.313864 137.71551 
L 123.313864 134.12544 
L 122.074805 134.12544 
z
" style="fill:#1f77b4;"/>
   </g>
   <g id="patch_42">
    <path clip-path="url(#p6eec705697)" d="M 123.623629 137.71551 
L 124.862688 137.71551 
L 124.862688 133.901061 
L 123.623629 133.901061 
z
" style="fill:#1f77b4;"/>
   </g>
   <g id="patch_43">
    <path clip-path="url(#p6eec705697)" d="M 125.172452 137.71551 
L 126.411512 137.71551 
L 126.411512 133.534968 
L 125.172452 133.534968 
z
" style="fill:#1f77b4;"/>
   </g>
   <g id="patch_44">
    <path clip-path="url(#p6eec705697)" d="M 126.721276 137.71551 
L 127.960335 137.71551 
L 127.960335 133.263351 
L 126.721276 133.263351 
z
" style="fill:#1f77b4;"/>
   </g>
   <g id="patch_45">
    <path clip-path="url(#p6eec705697)" d="M 128.2701 137.71551 
L 129.509159 137.71551 
L 129.509159 133.103924 
L 128.2701 133.103924 
z
" style="fill:#1f77b4;"/>
   </g>
   <g id="patch_46">
    <path clip-path="url(#p6eec705697)" d="M 129.818924 137.71551 
L 131.057983 137.71551 
L 131.057983 132.844116 
L 129.818924 132.844116 
z
" style="fill:#1f77b4;"/>
   </g>
   <g id="patch_47">
    <path clip-path="url(#p6eec705697)" d="M 131.367748 137.71551 
L 132.606807 137.71551 
L 132.606807 132.802783 
L 131.367748 132.802783 
z
" style="fill:#1f77b4;"/>
   </g>
   <g id="patch_48">
    <path clip-path="url(#p6eec705697)" d="M 132.916572 137.71551 
L 134.155631 137.71551 
L 134.155631 132.655165 
L 132.916572 132.655165 
z
" style="fill:#1f77b4;"/>
   </g>
   <g id="patch_49">
    <path clip-path="url(#p6eec705697)" d="M 134.465396 137.71551 
L 135.704455 137.71551 
L 135.704455 131.302984 
L 134.465396 131.302984 
z
" style="fill:#1f77b4;"/>
   </g>
   <g id="patch_50">
    <path clip-path="url(#p6eec705697)" d="M 136.01422 137.71551 
L 137.253279 137.71551 
L 137.253279 130.765655 
L 136.01422 130.765655 
z
" style="fill:#1f77b4;"/>
   </g>
   <g id="patch_51">
    <path clip-path="url(#p6eec705697)" d="M 137.563044 137.71551 
L 138.802103 137.71551 
L 138.802103 130.057089 
L 137.563044 130.057089 
z
" style="fill:#1f77b4;"/>
   </g>
   <g id="patch_52">
    <path clip-path="url(#p6eec705697)" d="M 139.111868 137.71551 
L 140.350927 137.71551 
L 140.350927 129.649663 
L 139.111868 129.649663 
z
" style="fill:#1f77b4;"/>
   </g>
   <g id="patch_53">
    <path clip-path="url(#p6eec705697)" d="M 140.660691 137.71551 
L 141.899751 137.71551 
L 141.899751 129.49614 
L 140.660691 129.49614 
z
" style="fill:#1f77b4;"/>
   </g>
   <g id="patch_54">
    <path clip-path="url(#p6eec705697)" d="M 142.209515 137.71551 
L 143.448574 137.71551 
L 143.448574 129.324903 
L 142.209515 129.324903 
z
" style="fill:#1f77b4;"/>
   </g>
   <g id="patch_55">
    <path clip-path="url(#p6eec705697)" d="M 143.758339 137.71551 
L 144.997398 137.71551 
L 144.997398 128.645861 
L 143.758339 128.645861 
z
" style="fill:#1f77b4;"/>
   </g>
   <g id="patch_56">
    <path clip-path="url(#p6eec705697)" d="M 145.307163 137.71551 
L 146.546222 137.71551 
L 146.546222 128.421481 
L 145.307163 128.421481 
z
" style="fill:#1f77b4;"/>
   </g>
   <g id="patch_57">
    <path clip-path="url(#p6eec705697)" d="M 146.855987 137.71551 
L 148.095046 137.71551 
L 148.095046 127.447202 
L 146.855987 127.447202 
z
" style="fill:#1f77b4;"/>
   </g>
   <g id="patch_58">
    <path clip-path="url(#p6eec705697)" d="M 148.404811 137.71551 
L 149.64387 137.71551 
L 149.64387 126.963015 
L 148.404811 126.963015 
z
" style="fill:#1f77b4;"/>
   </g>
   <g id="patch_59">
    <path clip-path="url(#p6eec705697)" d="M 149.953635 137.71551 
L 151.192694 137.71551 
L 151.192694 126.384353 
L 149.953635 126.384353 
z
" style="fill:#1f77b4;"/>
   </g>
   <g id="patch_60">
    <path clip-path="url(#p6eec705697)" d="M 151.502459 137.71551 
L 152.741518 137.71551 
L 152.741518 126.33121 
L 151.502459 126.33121 
z
" style="fill:#1f77b4;"/>
   </g>
   <g id="patch_61">
    <path clip-path="url(#p6eec705697)" d="M 153.051283 137.71551 
L 154.290342 137.71551 
L 154.290342 125.971023 
L 153.051283 125.971023 
z
" style="fill:#1f77b4;"/>
   </g>
   <g id="patch_62">
    <path clip-path="url(#p6eec705697)" d="M 154.600107 137.71551 
L 155.839166 137.71551 
L 155.839166 125.711215 
L 154.600107 125.711215 
z
" style="fill:#1f77b4;"/>
   </g>
   <g id="patch_63">
    <path clip-path="url(#p6eec705697)" d="M 156.14893 137.71551 
L 157.38799 137.71551 
L 157.38799 123.739038 
L 156.14893 123.739038 
z
" style="fill:#1f77b4;"/>
   </g>
   <g id="patch_64">
    <path clip-path="url(#p6eec705697)" d="M 157.697754 137.71551 
L 158.936814 137.71551 
L 158.936814 122.735236 
L 157.697754 122.735236 
z
" style="fill:#1f77b4;"/>
   </g>
   <g id="patch_65">
    <path clip-path="url(#p6eec705697)" d="M 159.246578 137.71551 
L 160.485637 137.71551 
L 160.485637 121.264961 
L 159.246578 121.264961 
z
" style="fill:#1f77b4;"/>
   </g>
   <g id="patch_66">
    <path clip-path="url(#p6eec705697)" d="M 160.795402 137.71551 
L 162.034461 137.71551 
L 162.034461 119.977732 
L 160.795402 119.977732 
z
" style="fill:#1f77b4;"/>
   </g>
   <g id="patch_67">
    <path clip-path="url(#p6eec705697)" d="M 162.344226 137.71551 
L 163.583285 137.71551 
L 163.583285 119.192404 
L 162.344226 119.192404 
z
" style="fill:#1f77b4;"/>
   </g>
   <g id="patch_68">
    <path clip-path="url(#p6eec705697)" d="M 163.89305 137.71551 
L 165.132109 137.71551 
L 165.132109 118.914883 
L 163.89305 118.914883 
z
" style="fill:#1f77b4;"/>
   </g>
   <g id="patch_69">
    <path clip-path="url(#p6eec705697)" d="M 165.441874 137.71551 
L 166.680933 137.71551 
L 166.680933 117.149371 
L 165.441874 117.149371 
z
" style="fill:#1f77b4;"/>
   </g>
   <g id="patch_70">
    <path clip-path="url(#p6eec705697)" d="M 166.990698 137.71551 
L 168.229757 137.71551 
L 168.229757 115.301194 
L 166.990698 115.301194 
z
" style="fill:#1f77b4;"/>
   </g>
   <g id="patch_71">
    <path clip-path="url(#p6eec705697)" d="M 168.539522 137.71551 
L 169.778581 137.71551 
L 169.778581 113.742348 
L 168.539522 113.742348 
z
" style="fill:#1f77b4;"/>
   </g>
   <g id="patch_72">
    <path clip-path="url(#p6eec705697)" d="M 170.088346 137.71551 
L 171.327405 137.71551 
L 171.327405 112.614547 
L 170.088346 112.614547 
z
" style="fill:#1f77b4;"/>
   </g>
   <g id="patch_73">
    <path clip-path="url(#p6eec705697)" d="M 171.63717 137.71551 
L 172.876229 137.71551 
L 172.876229 110.559704 
L 171.63717 110.559704 
z
" style="fill:#1f77b4;"/>
   </g>
   <g id="patch_74">
    <path clip-path="url(#p6eec705697)" d="M 173.185993 137.71551 
L 174.425053 137.71551 
L 174.425053 109.981042 
L 173.185993 109.981042 
z
" style="fill:#1f77b4;"/>
   </g>
   <g id="patch_75">
    <path clip-path="url(#p6eec705697)" d="M 174.734817 137.71551 
L 175.973876 137.71551 
L 175.973876 109.614949 
L 174.734817 109.614949 
z
" style="fill:#1f77b4;"/>
   </g>
   <g id="patch_76">
    <path clip-path="url(#p6eec705697)" d="M 176.283641 137.71551 
L 177.5227 137.71551 
L 177.5227 105.404884 
L 176.283641 105.404884 
z
" style="fill:#1f77b4;"/>
   </g>
   <g id="patch_77">
    <path clip-path="url(#p6eec705697)" d="M 177.832465 137.71551 
L 179.071524 137.71551 
L 179.071524 104.471938 
L 177.832465 104.471938 
z
" style="fill:#1f77b4;"/>
   </g>
   <g id="patch_78">
    <path clip-path="url(#p6eec705697)" d="M 179.381289 137.71551 
L 180.620348 137.71551 
L 180.620348 104.471938 
L 179.381289 104.471938 
z
" style="fill:#1f77b4;"/>
   </g>
   <g id="patch_79">
    <path clip-path="url(#p6eec705697)" d="M 180.930113 137.71551 
L 182.169172 137.71551 
L 182.169172 99.553307 
L 180.930113 99.553307 
z
" style="fill:#1f77b4;"/>
   </g>
   <g id="patch_80">
    <path clip-path="url(#p6eec705697)" d="M 182.478937 137.71551 
L 183.717996 137.71551 
L 183.717996 94.008775 
L 182.478937 94.008775 
z
" style="fill:#1f77b4;"/>
   </g>
   <g id="patch_81">
    <path clip-path="url(#p6eec705697)" d="M 184.027761 137.71551 
L 185.26682 137.71551 
L 185.26682 94.008775 
L 184.027761 94.008775 
z
" style="fill:#1f77b4;"/>
   </g>
   <g id="patch_82">
    <path clip-path="url(#p6eec705697)" d="M 185.576585 137.71551 
L 186.815644 137.71551 
L 186.815644 90.690322 
L 185.576585 90.690322 
z
" style="fill:#1f77b4;"/>
   </g>
   <g id="patch_83">
    <path clip-path="url(#p6eec705697)" d="M 187.125409 137.71551 
L 188.364468 137.71551 
L 188.364468 89.101953 
L 187.125409 89.101953 
z
" style="fill:#1f77b4;"/>
   </g>
   <g id="patch_84">
    <path clip-path="url(#p6eec705697)" d="M 188.674232 137.71551 
L 189.913292 137.71551 
L 189.913292 83.69323 
L 188.674232 83.69323 
z
" style="fill:#1f77b4;"/>
   </g>
   <g id="patch_85">
    <path clip-path="url(#p6eec705697)" d="M 190.223056 137.71551 
L 191.462115 137.71551 
L 191.462115 82.907902 
L 190.223056 82.907902 
z
" style="fill:#1f77b4;"/>
   </g>
   <g id="patch_86">
    <path clip-path="url(#p6eec705697)" d="M 191.77188 137.71551 
L 193.010939 137.71551 
L 193.010939 81.974956 
L 191.77188 81.974956 
z
" style="fill:#1f77b4;"/>
   </g>
   <g id="patch_87">
    <path clip-path="url(#p6eec705697)" d="M 193.320704 137.71551 
L 194.559763 137.71551 
L 194.559763 81.921814 
L 193.320704 81.921814 
z
" style="fill:#1f77b4;"/>
   </g>
   <g id="patch_88">
    <path clip-path="url(#p6eec705697)" d="M 194.869528 137.71551 
L 196.108587 137.71551 
L 196.108587 81.904099 
L 194.869528 81.904099 
z
" style="fill:#1f77b4;"/>
   </g>
   <g id="patch_89">
    <path clip-path="url(#p6eec705697)" d="M 196.418352 137.71551 
L 197.657411 137.71551 
L 197.657411 73.424922 
L 196.418352 73.424922 
z
" style="fill:#1f77b4;"/>
   </g>
   <g id="patch_90">
    <path clip-path="url(#p6eec705697)" d="M 197.967176 137.71551 
L 199.206235 137.71551 
L 199.206235 72.604166 
L 197.967176 72.604166 
z
" style="fill:#1f77b4;"/>
   </g>
   <g id="patch_91">
    <path clip-path="url(#p6eec705697)" d="M 199.516 137.71551 
L 200.755059 137.71551 
L 200.755059 69.409713 
L 199.516 69.409713 
z
" style="fill:#1f77b4;"/>
   </g>
   <g id="patch_92">
    <path clip-path="url(#p6eec705697)" d="M 201.064824 137.71551 
L 202.303883 137.71551 
L 202.303883 59.57245 
L 201.064824 59.57245 
z
" style="fill:#1f77b4;"/>
   </g>
   <g id="patch_93">
    <path clip-path="url(#p6eec705697)" d="M 202.613648 137.71551 
L 203.852707 137.71551 
L 203.852707 57.995889 
L 202.613648 57.995889 
z
" style="fill:#1f77b4;"/>
   </g>
   <g id="patch_94">
    <path clip-path="url(#p6eec705697)" d="M 204.162471 137.71551 
L 205.401531 137.71551 
L 205.401531 56.29533 
L 204.162471 56.29533 
z
" style="fill:#1f77b4;"/>
   </g>
   <g id="patch_95">
    <path clip-path="url(#p6eec705697)" d="M 205.711295 137.71551 
L 206.950355 137.71551 
L 206.950355 54.039727 
L 205.711295 54.039727 
z
" style="fill:#1f77b4;"/>
   </g>
   <g id="patch_96">
    <path clip-path="url(#p6eec705697)" d="M 207.260119 137.71551 
L 208.499178 137.71551 
L 208.499178 53.785824 
L 207.260119 53.785824 
z
" style="fill:#1f77b4;"/>
   </g>
   <g id="patch_97">
    <path clip-path="url(#p6eec705697)" d="M 208.808943 137.71551 
L 210.048002 137.71551 
L 210.048002 47.892914 
L 208.808943 47.892914 
z
" style="fill:#1f77b4;"/>
   </g>
   <g id="patch_98">
    <path clip-path="url(#p6eec705697)" d="M 210.357767 137.71551 
L 211.596826 137.71551 
L 211.596826 47.892914 
L 210.357767 47.892914 
z
" style="fill:#1f77b4;"/>
   </g>
   <g id="patch_99">
    <path clip-path="url(#p6eec705697)" d="M 211.906591 137.71551 
L 213.14565 137.71551 
L 213.14565 43.895419 
L 211.906591 43.895419 
z
" style="fill:#1f77b4;"/>
   </g>
   <g id="patch_100">
    <path clip-path="url(#p6eec705697)" d="M 213.455415 137.71551 
L 214.694474 137.71551 
L 214.694474 43.009711 
L 213.455415 43.009711 
z
" style="fill:#1f77b4;"/>
   </g>
   <g id="patch_101">
    <path clip-path="url(#p6eec705697)" d="M 215.004239 137.71551 
L 216.243298 137.71551 
L 216.243298 24.309464 
L 215.004239 24.309464 
z
" style="fill:#1f77b4;"/>
   </g>
   <g id="patch_102">
    <path clip-path="url(#p6eec705697)" d="M 216.553063 137.71551 
L 217.792122 137.71551 
L 217.792122 23.813467 
L 216.553063 23.813467 
z
" style="fill:#1f77b4;"/>
   </g>
   <g id="matplotlib.axis_1">
    <g id="xtick_1">
     <g id="line2d_1">
      <defs>
       <path d="M 0 0 
L 0 3.5 
" id="m4eb5ddc772" style="stroke:#000000;stroke-width:0.8;"/>
      </defs>
      <g>
       <use style="stroke:#000000;stroke-width:0.8;" x="63.839026" xlink:href="#m4eb5ddc772" y="137.71551"/>
      </g>
     </g>
     <g id="text_1">
      <!-- 0 -->
      <defs>
       <path d="M 31.78125 66.40625 
Q 24.171875 66.40625 20.328125 58.90625 
Q 16.5 51.421875 16.5 36.375 
Q 16.5 21.390625 20.328125 13.890625 
Q 24.171875 6.390625 31.78125 6.390625 
Q 39.453125 6.390625 43.28125 13.890625 
Q 47.125 21.390625 47.125 36.375 
Q 47.125 51.421875 43.28125 58.90625 
Q 39.453125 66.40625 31.78125 66.40625 
z
M 31.78125 74.21875 
Q 44.046875 74.21875 50.515625 64.515625 
Q 56.984375 54.828125 56.984375 36.375 
Q 56.984375 17.96875 50.515625 8.265625 
Q 44.046875 -1.421875 31.78125 -1.421875 
Q 19.53125 -1.421875 13.0625 8.265625 
Q 6.59375 17.96875 6.59375 36.375 
Q 6.59375 54.828125 13.0625 64.515625 
Q 19.53125 74.21875 31.78125 74.21875 
z
" id="DejaVuSans-48"/>
      </defs>
      <g transform="translate(60.657776 152.313947)scale(0.1 -0.1)">
       <use xlink:href="#DejaVuSans-48"/>
      </g>
     </g>
    </g>
    <g id="xtick_2">
     <g id="line2d_2">
      <g>
       <use style="stroke:#000000;stroke-width:0.8;" x="102.559623" xlink:href="#m4eb5ddc772" y="137.71551"/>
      </g>
     </g>
     <g id="text_2">
      <!-- 25 -->
      <defs>
       <path d="M 19.1875 8.296875 
L 53.609375 8.296875 
L 53.609375 0 
L 7.328125 0 
L 7.328125 8.296875 
Q 12.9375 14.109375 22.625 23.890625 
Q 32.328125 33.6875 34.8125 36.53125 
Q 39.546875 41.84375 41.421875 45.53125 
Q 43.3125 49.21875 43.3125 52.78125 
Q 43.3125 58.59375 39.234375 62.25 
Q 35.15625 65.921875 28.609375 65.921875 
Q 23.96875 65.921875 18.8125 64.3125 
Q 13.671875 62.703125 7.8125 59.421875 
L 7.8125 69.390625 
Q 13.765625 71.78125 18.9375 73 
Q 24.125 74.21875 28.421875 74.21875 
Q 39.75 74.21875 46.484375 68.546875 
Q 53.21875 62.890625 53.21875 53.421875 
Q 53.21875 48.921875 51.53125 44.890625 
Q 49.859375 40.875 45.40625 35.40625 
Q 44.1875 33.984375 37.640625 27.21875 
Q 31.109375 20.453125 19.1875 8.296875 
z
" id="DejaVuSans-50"/>
       <path d="M 10.796875 72.90625 
L 49.515625 72.90625 
L 49.515625 64.59375 
L 19.828125 64.59375 
L 19.828125 46.734375 
Q 21.96875 47.46875 24.109375 47.828125 
Q 26.265625 48.1875 28.421875 48.1875 
Q 40.625 48.1875 47.75 41.5 
Q 54.890625 34.8125 54.890625 23.390625 
Q 54.890625 11.625 47.5625 5.09375 
Q 40.234375 -1.421875 26.90625 -1.421875 
Q 22.3125 -1.421875 17.546875 -0.640625 
Q 12.796875 0.140625 7.71875 1.703125 
L 7.71875 11.625 
Q 12.109375 9.234375 16.796875 8.0625 
Q 21.484375 6.890625 26.703125 6.890625 
Q 35.15625 6.890625 40.078125 11.328125 
Q 45.015625 15.765625 45.015625 23.390625 
Q 45.015625 31 40.078125 35.4375 
Q 35.15625 39.890625 26.703125 39.890625 
Q 22.75 39.890625 18.8125 39.015625 
Q 14.890625 38.140625 10.796875 36.28125 
z
" id="DejaVuSans-53"/>
      </defs>
      <g transform="translate(96.197123 152.313947)scale(0.1 -0.1)">
       <use xlink:href="#DejaVuSans-50"/>
       <use x="63.623047" xlink:href="#DejaVuSans-53"/>
      </g>
     </g>
    </g>
    <g id="xtick_3">
     <g id="line2d_3">
      <g>
       <use style="stroke:#000000;stroke-width:0.8;" x="141.280221" xlink:href="#m4eb5ddc772" y="137.71551"/>
      </g>
     </g>
     <g id="text_3">
      <!-- 50 -->
      <g transform="translate(134.917721 152.313947)scale(0.1 -0.1)">
       <use xlink:href="#DejaVuSans-53"/>
       <use x="63.623047" xlink:href="#DejaVuSans-48"/>
      </g>
     </g>
    </g>
    <g id="xtick_4">
     <g id="line2d_4">
      <g>
       <use style="stroke:#000000;stroke-width:0.8;" x="180.000819" xlink:href="#m4eb5ddc772" y="137.71551"/>
      </g>
     </g>
     <g id="text_4">
      <!-- 75 -->
      <defs>
       <path d="M 8.203125 72.90625 
L 55.078125 72.90625 
L 55.078125 68.703125 
L 28.609375 0 
L 18.3125 0 
L 43.21875 64.59375 
L 8.203125 64.59375 
z
" id="DejaVuSans-55"/>
      </defs>
      <g transform="translate(173.638319 152.313947)scale(0.1 -0.1)">
       <use xlink:href="#DejaVuSans-55"/>
       <use x="63.623047" xlink:href="#DejaVuSans-53"/>
      </g>
     </g>
    </g>
    <g id="xtick_5">
     <g id="line2d_5">
      <g>
       <use style="stroke:#000000;stroke-width:0.8;" x="218.721416" xlink:href="#m4eb5ddc772" y="137.71551"/>
      </g>
     </g>
     <g id="text_5">
      <!-- 100 -->
      <defs>
       <path d="M 12.40625 8.296875 
L 28.515625 8.296875 
L 28.515625 63.921875 
L 10.984375 60.40625 
L 10.984375 69.390625 
L 28.421875 72.90625 
L 38.28125 72.90625 
L 38.28125 8.296875 
L 54.390625 8.296875 
L 54.390625 0 
L 12.40625 0 
z
" id="DejaVuSans-49"/>
      </defs>
      <g transform="translate(209.177666 152.313947)scale(0.1 -0.1)">
       <use xlink:href="#DejaVuSans-49"/>
       <use x="63.623047" xlink:href="#DejaVuSans-48"/>
       <use x="127.246094" xlink:href="#DejaVuSans-48"/>
      </g>
     </g>
    </g>
    <g id="text_6">
     <!-- Dias -->
     <defs>
      <path d="M 19.671875 64.796875 
L 19.671875 8.109375 
L 31.59375 8.109375 
Q 46.6875 8.109375 53.6875 14.9375 
Q 60.6875 21.78125 60.6875 36.53125 
Q 60.6875 51.171875 53.6875 57.984375 
Q 46.6875 64.796875 31.59375 64.796875 
z
M 9.8125 72.90625 
L 30.078125 72.90625 
Q 51.265625 72.90625 61.171875 64.09375 
Q 71.09375 55.28125 71.09375 36.53125 
Q 71.09375 17.671875 61.125 8.828125 
Q 51.171875 0 30.078125 0 
L 9.8125 0 
z
" id="DejaVuSans-68"/>
      <path d="M 9.421875 54.6875 
L 18.40625 54.6875 
L 18.40625 0 
L 9.421875 0 
z
M 9.421875 75.984375 
L 18.40625 75.984375 
L 18.40625 64.59375 
L 9.421875 64.59375 
z
" id="DejaVuSans-105"/>
      <path d="M 34.28125 27.484375 
Q 23.390625 27.484375 19.1875 25 
Q 14.984375 22.515625 14.984375 16.5 
Q 14.984375 11.71875 18.140625 8.90625 
Q 21.296875 6.109375 26.703125 6.109375 
Q 34.1875 6.109375 38.703125 11.40625 
Q 43.21875 16.703125 43.21875 25.484375 
L 43.21875 27.484375 
z
M 52.203125 31.203125 
L 52.203125 0 
L 43.21875 0 
L 43.21875 8.296875 
Q 40.140625 3.328125 35.546875 0.953125 
Q 30.953125 -1.421875 24.3125 -1.421875 
Q 15.921875 -1.421875 10.953125 3.296875 
Q 6 8.015625 6 15.921875 
Q 6 25.140625 12.171875 29.828125 
Q 18.359375 34.515625 30.609375 34.515625 
L 43.21875 34.515625 
L 43.21875 35.40625 
Q 43.21875 41.609375 39.140625 45 
Q 35.0625 48.390625 27.6875 48.390625 
Q 23 48.390625 18.546875 47.265625 
Q 14.109375 46.140625 10.015625 43.890625 
L 10.015625 52.203125 
Q 14.9375 54.109375 19.578125 55.046875 
Q 24.21875 56 28.609375 56 
Q 40.484375 56 46.34375 49.84375 
Q 52.203125 43.703125 52.203125 31.203125 
z
" id="DejaVuSans-97"/>
      <path d="M 44.28125 53.078125 
L 44.28125 44.578125 
Q 40.484375 46.53125 36.375 47.5 
Q 32.28125 48.484375 27.875 48.484375 
Q 21.1875 48.484375 17.84375 46.4375 
Q 14.5 44.390625 14.5 40.28125 
Q 14.5 37.15625 16.890625 35.375 
Q 19.28125 33.59375 26.515625 31.984375 
L 29.59375 31.296875 
Q 39.15625 29.25 43.1875 25.515625 
Q 47.21875 21.78125 47.21875 15.09375 
Q 47.21875 7.46875 41.1875 3.015625 
Q 35.15625 -1.421875 24.609375 -1.421875 
Q 20.21875 -1.421875 15.453125 -0.5625 
Q 10.6875 0.296875 5.421875 2 
L 5.421875 11.28125 
Q 10.40625 8.6875 15.234375 7.390625 
Q 20.0625 6.109375 24.8125 6.109375 
Q 31.15625 6.109375 34.5625 8.28125 
Q 37.984375 10.453125 37.984375 14.40625 
Q 37.984375 18.0625 35.515625 20.015625 
Q 33.0625 21.96875 24.703125 23.78125 
L 21.578125 24.515625 
Q 13.234375 26.265625 9.515625 29.90625 
Q 5.8125 33.546875 5.8125 39.890625 
Q 5.8125 47.609375 11.28125 51.796875 
Q 16.75 56 26.8125 56 
Q 31.78125 56 36.171875 55.265625 
Q 40.578125 54.546875 44.28125 53.078125 
z
" id="DejaVuSans-115"/>
     </defs>
     <g transform="translate(129.597997 165.992072)scale(0.1 -0.1)">
      <use xlink:href="#DejaVuSans-68"/>
      <use x="77.001953" xlink:href="#DejaVuSans-105"/>
      <use x="104.785156" xlink:href="#DejaVuSans-97"/>
      <use x="166.064453" xlink:href="#DejaVuSans-115"/>
     </g>
    </g>
   </g>
   <g id="matplotlib.axis_2">
    <g id="ytick_1">
     <g id="line2d_6">
      <defs>
       <path d="M 0 0 
L -3.5 0 
" id="m9c9a464d8b" style="stroke:#000000;stroke-width:0.8;"/>
      </defs>
      <g>
       <use style="stroke:#000000;stroke-width:0.8;" x="55.490865" xlink:href="#m9c9a464d8b" y="137.71551"/>
      </g>
     </g>
     <g id="text_7">
      <!-- 0 -->
      <g transform="translate(42.128365 141.514729)scale(0.1 -0.1)">
       <use xlink:href="#DejaVuSans-48"/>
      </g>
     </g>
    </g>
    <g id="ytick_2">
     <g id="line2d_7">
      <g>
       <use style="stroke:#000000;stroke-width:0.8;" x="55.490865" xlink:href="#m9c9a464d8b" y="108.191912"/>
      </g>
     </g>
     <g id="text_8">
      <!-- 5000 -->
      <g transform="translate(23.040865 111.99113)scale(0.1 -0.1)">
       <use xlink:href="#DejaVuSans-53"/>
       <use x="63.623047" xlink:href="#DejaVuSans-48"/>
       <use x="127.246094" xlink:href="#DejaVuSans-48"/>
       <use x="190.869141" xlink:href="#DejaVuSans-48"/>
      </g>
     </g>
    </g>
    <g id="ytick_3">
     <g id="line2d_8">
      <g>
       <use style="stroke:#000000;stroke-width:0.8;" x="55.490865" xlink:href="#m9c9a464d8b" y="78.668313"/>
      </g>
     </g>
     <g id="text_9">
      <!-- 10000 -->
      <g transform="translate(16.678365 82.467532)scale(0.1 -0.1)">
       <use xlink:href="#DejaVuSans-49"/>
       <use x="63.623047" xlink:href="#DejaVuSans-48"/>
       <use x="127.246094" xlink:href="#DejaVuSans-48"/>
       <use x="190.869141" xlink:href="#DejaVuSans-48"/>
       <use x="254.492188" xlink:href="#DejaVuSans-48"/>
      </g>
     </g>
    </g>
    <g id="ytick_4">
     <g id="line2d_9">
      <g>
       <use style="stroke:#000000;stroke-width:0.8;" x="55.490865" xlink:href="#m9c9a464d8b" y="49.144715"/>
      </g>
     </g>
     <g id="text_10">
      <!-- 15000 -->
      <g transform="translate(16.678365 52.943933)scale(0.1 -0.1)">
       <use xlink:href="#DejaVuSans-49"/>
       <use x="63.623047" xlink:href="#DejaVuSans-53"/>
       <use x="127.246094" xlink:href="#DejaVuSans-48"/>
       <use x="190.869141" xlink:href="#DejaVuSans-48"/>
       <use x="254.492188" xlink:href="#DejaVuSans-48"/>
      </g>
     </g>
    </g>
    <g id="ytick_5">
     <g id="line2d_10">
      <g>
       <use style="stroke:#000000;stroke-width:0.8;" x="55.490865" xlink:href="#m9c9a464d8b" y="19.621116"/>
      </g>
     </g>
     <g id="text_11">
      <!-- 20000 -->
      <g transform="translate(16.678365 23.420335)scale(0.1 -0.1)">
       <use xlink:href="#DejaVuSans-50"/>
       <use x="63.623047" xlink:href="#DejaVuSans-48"/>
       <use x="127.246094" xlink:href="#DejaVuSans-48"/>
       <use x="190.869141" xlink:href="#DejaVuSans-48"/>
       <use x="254.492188" xlink:href="#DejaVuSans-48"/>
      </g>
     </g>
    </g>
    <g id="text_12">
     <!-- Casos -->
     <defs>
      <path d="M 64.40625 67.28125 
L 64.40625 56.890625 
Q 59.421875 61.53125 53.78125 63.8125 
Q 48.140625 66.109375 41.796875 66.109375 
Q 29.296875 66.109375 22.65625 58.46875 
Q 16.015625 50.828125 16.015625 36.375 
Q 16.015625 21.96875 22.65625 14.328125 
Q 29.296875 6.6875 41.796875 6.6875 
Q 48.140625 6.6875 53.78125 8.984375 
Q 59.421875 11.28125 64.40625 15.921875 
L 64.40625 5.609375 
Q 59.234375 2.09375 53.4375 0.328125 
Q 47.65625 -1.421875 41.21875 -1.421875 
Q 24.65625 -1.421875 15.125 8.703125 
Q 5.609375 18.84375 5.609375 36.375 
Q 5.609375 53.953125 15.125 64.078125 
Q 24.65625 74.21875 41.21875 74.21875 
Q 47.75 74.21875 53.53125 72.484375 
Q 59.328125 70.75 64.40625 67.28125 
z
" id="DejaVuSans-67"/>
      <path d="M 30.609375 48.390625 
Q 23.390625 48.390625 19.1875 42.75 
Q 14.984375 37.109375 14.984375 27.296875 
Q 14.984375 17.484375 19.15625 11.84375 
Q 23.34375 6.203125 30.609375 6.203125 
Q 37.796875 6.203125 41.984375 11.859375 
Q 46.1875 17.53125 46.1875 27.296875 
Q 46.1875 37.015625 41.984375 42.703125 
Q 37.796875 48.390625 30.609375 48.390625 
z
M 30.609375 56 
Q 42.328125 56 49.015625 48.375 
Q 55.71875 40.765625 55.71875 27.296875 
Q 55.71875 13.875 49.015625 6.21875 
Q 42.328125 -1.421875 30.609375 -1.421875 
Q 18.84375 -1.421875 12.171875 6.21875 
Q 5.515625 13.875 5.515625 27.296875 
Q 5.515625 40.765625 12.171875 48.375 
Q 18.84375 56 30.609375 56 
z
" id="DejaVuSans-111"/>
     </defs>
     <g transform="translate(10.598678 92.741156)rotate(-90)scale(0.1 -0.1)">
      <use xlink:href="#DejaVuSans-67"/>
      <use x="69.824219" xlink:href="#DejaVuSans-97"/>
      <use x="131.103516" xlink:href="#DejaVuSans-115"/>
      <use x="183.203125" xlink:href="#DejaVuSans-111"/>
      <use x="244.384766" xlink:href="#DejaVuSans-115"/>
     </g>
    </g>
   </g>
   <g id="line2d_11">
    <path clip-path="url(#p6eec705697)" d="M 63.839026 137.708705 
L 65.38785 137.706561 
L 66.936674 137.703366 
L 68.485498 137.698804 
L 70.034321 137.692442 
L 71.583145 137.683761 
L 73.131969 137.672141 
L 74.680793 137.656869 
L 76.229617 137.637066 
L 77.778441 137.611697 
L 79.327265 137.579669 
L 80.876089 137.539866 
L 82.424913 137.491168 
L 83.973737 137.432521 
L 85.52256 137.362995 
L 87.071384 137.282336 
L 88.620208 137.191057 
L 90.169032 137.090394 
L 91.717856 136.982157 
L 93.26668 136.868644 
L 94.815504 136.752519 
L 96.364328 136.636665 
L 97.913152 136.523089 
L 99.461976 136.41267 
L 101.0108 136.30503 
L 102.559623 136.198757 
L 104.108447 136.09167 
L 105.657271 135.980944 
L 107.206095 135.863081 
L 108.754919 135.735066 
L 110.303743 135.594749 
L 111.852567 135.440934 
L 113.401391 135.273457 
L 114.950215 135.092779 
L 116.499039 134.899497 
L 118.047862 134.694686 
L 119.596686 134.478971 
L 121.14551 134.252007 
L 122.694334 134.012683 
L 124.243158 133.758526 
L 125.791982 133.485822 
L 127.340806 133.191418 
L 128.88963 132.872307 
L 130.438454 132.526548 
L 131.987278 132.153756 
L 133.536101 131.754807 
L 135.084925 131.332407 
L 136.633749 130.891781 
L 138.182573 130.437167 
L 139.731397 129.972283 
L 141.280221 129.49905 
L 142.829045 129.017135 
L 144.377869 128.523728 
L 145.926693 128.013507 
L 147.475517 127.476854 
L 149.024341 126.903968 
L 150.573164 126.284199 
L 152.121988 125.607881 
L 153.670812 124.866791 
L 155.219636 124.055227 
L 156.76846 123.169692 
L 158.317284 122.210493 
L 159.866108 121.179324 
L 161.414932 120.080746 
L 162.963756 118.918859 
L 164.51258 117.695992 
L 166.061403 116.411729 
L 167.610227 115.061973 
L 169.159051 113.641036 
L 170.707875 112.139513 
L 172.256699 110.541328 
L 173.805523 108.830969 
L 175.354347 106.999468 
L 176.903171 105.044239 
L 178.451995 102.970467 
L 180.000819 100.785731 
L 181.549642 98.507603 
L 183.098466 96.163046 
L 184.64729 93.778279 
L 186.196114 91.367196 
L 187.744938 88.931087 
L 189.293762 86.464865 
L 190.842586 83.958283 
L 192.39141 81.38853 
L 193.940234 78.732338 
L 195.489058 75.973636 
L 197.037882 73.106842 
L 198.586705 70.140127 
L 200.135529 67.07966 
L 201.684353 63.930475 
L 203.233177 60.696904 
L 204.782001 57.369842 
L 206.330825 53.918079 
L 207.879649 50.304996 
L 209.428473 46.506389 
L 210.977297 42.494471 
L 212.526121 38.248746 
L 214.074944 33.856274 
L 215.623768 29.309669 
L 217.172592 24.62006 
" style="fill:none;stroke:#ff0000;stroke-linecap:square;stroke-width:1.5;"/>
   </g>
   <g id="patch_103">
    <path d="M 55.490865 137.71551 
L 55.490865 18.118365 
" style="fill:none;stroke:#000000;stroke-linecap:square;stroke-linejoin:miter;stroke-width:0.8;"/>
   </g>
   <g id="patch_104">
    <path d="M 225.520753 137.71551 
L 225.520753 18.118365 
" style="fill:none;stroke:#000000;stroke-linecap:square;stroke-linejoin:miter;stroke-width:0.8;"/>
   </g>
   <g id="patch_105">
    <path d="M 55.490865 137.71551 
L 225.520753 137.71551 
" style="fill:none;stroke:#000000;stroke-linecap:square;stroke-linejoin:miter;stroke-width:0.8;"/>
   </g>
   <g id="patch_106">
    <path d="M 55.490865 18.118365 
L 225.520753 18.118365 
" style="fill:none;stroke:#000000;stroke-linecap:square;stroke-linejoin:miter;stroke-width:0.8;"/>
   </g>
   <g id="text_13">
    <!-- Casos acumulados - RN -->
    <defs>
     <path id="DejaVuSans-32"/>
     <path d="M 48.78125 52.59375 
L 48.78125 44.1875 
Q 44.96875 46.296875 41.140625 47.34375 
Q 37.3125 48.390625 33.40625 48.390625 
Q 24.65625 48.390625 19.8125 42.84375 
Q 14.984375 37.3125 14.984375 27.296875 
Q 14.984375 17.28125 19.8125 11.734375 
Q 24.65625 6.203125 33.40625 6.203125 
Q 37.3125 6.203125 41.140625 7.25 
Q 44.96875 8.296875 48.78125 10.40625 
L 48.78125 2.09375 
Q 45.015625 0.34375 40.984375 -0.53125 
Q 36.96875 -1.421875 32.421875 -1.421875 
Q 20.0625 -1.421875 12.78125 6.34375 
Q 5.515625 14.109375 5.515625 27.296875 
Q 5.515625 40.671875 12.859375 48.328125 
Q 20.21875 56 33.015625 56 
Q 37.15625 56 41.109375 55.140625 
Q 45.0625 54.296875 48.78125 52.59375 
z
" id="DejaVuSans-99"/>
     <path d="M 8.5 21.578125 
L 8.5 54.6875 
L 17.484375 54.6875 
L 17.484375 21.921875 
Q 17.484375 14.15625 20.5 10.265625 
Q 23.53125 6.390625 29.59375 6.390625 
Q 36.859375 6.390625 41.078125 11.03125 
Q 45.3125 15.671875 45.3125 23.6875 
L 45.3125 54.6875 
L 54.296875 54.6875 
L 54.296875 0 
L 45.3125 0 
L 45.3125 8.40625 
Q 42.046875 3.421875 37.71875 1 
Q 33.40625 -1.421875 27.6875 -1.421875 
Q 18.265625 -1.421875 13.375 4.4375 
Q 8.5 10.296875 8.5 21.578125 
z
M 31.109375 56 
z
" id="DejaVuSans-117"/>
     <path d="M 52 44.1875 
Q 55.375 50.25 60.0625 53.125 
Q 64.75 56 71.09375 56 
Q 79.640625 56 84.28125 50.015625 
Q 88.921875 44.046875 88.921875 33.015625 
L 88.921875 0 
L 79.890625 0 
L 79.890625 32.71875 
Q 79.890625 40.578125 77.09375 44.375 
Q 74.3125 48.1875 68.609375 48.1875 
Q 61.625 48.1875 57.5625 43.546875 
Q 53.515625 38.921875 53.515625 30.90625 
L 53.515625 0 
L 44.484375 0 
L 44.484375 32.71875 
Q 44.484375 40.625 41.703125 44.40625 
Q 38.921875 48.1875 33.109375 48.1875 
Q 26.21875 48.1875 22.15625 43.53125 
Q 18.109375 38.875 18.109375 30.90625 
L 18.109375 0 
L 9.078125 0 
L 9.078125 54.6875 
L 18.109375 54.6875 
L 18.109375 46.1875 
Q 21.1875 51.21875 25.484375 53.609375 
Q 29.78125 56 35.6875 56 
Q 41.65625 56 45.828125 52.96875 
Q 50 49.953125 52 44.1875 
z
" id="DejaVuSans-109"/>
     <path d="M 9.421875 75.984375 
L 18.40625 75.984375 
L 18.40625 0 
L 9.421875 0 
z
" id="DejaVuSans-108"/>
     <path d="M 45.40625 46.390625 
L 45.40625 75.984375 
L 54.390625 75.984375 
L 54.390625 0 
L 45.40625 0 
L 45.40625 8.203125 
Q 42.578125 3.328125 38.25 0.953125 
Q 33.9375 -1.421875 27.875 -1.421875 
Q 17.96875 -1.421875 11.734375 6.484375 
Q 5.515625 14.40625 5.515625 27.296875 
Q 5.515625 40.1875 11.734375 48.09375 
Q 17.96875 56 27.875 56 
Q 33.9375 56 38.25 53.625 
Q 42.578125 51.265625 45.40625 46.390625 
z
M 14.796875 27.296875 
Q 14.796875 17.390625 18.875 11.75 
Q 22.953125 6.109375 30.078125 6.109375 
Q 37.203125 6.109375 41.296875 11.75 
Q 45.40625 17.390625 45.40625 27.296875 
Q 45.40625 37.203125 41.296875 42.84375 
Q 37.203125 48.484375 30.078125 48.484375 
Q 22.953125 48.484375 18.875 42.84375 
Q 14.796875 37.203125 14.796875 27.296875 
z
" id="DejaVuSans-100"/>
     <path d="M 4.890625 31.390625 
L 31.203125 31.390625 
L 31.203125 23.390625 
L 4.890625 23.390625 
z
" id="DejaVuSans-45"/>
     <path d="M 44.390625 34.1875 
Q 47.5625 33.109375 50.5625 29.59375 
Q 53.5625 26.078125 56.59375 19.921875 
L 66.609375 0 
L 56 0 
L 46.6875 18.703125 
Q 43.0625 26.03125 39.671875 28.421875 
Q 36.28125 30.8125 30.421875 30.8125 
L 19.671875 30.8125 
L 19.671875 0 
L 9.8125 0 
L 9.8125 72.90625 
L 32.078125 72.90625 
Q 44.578125 72.90625 50.734375 67.671875 
Q 56.890625 62.453125 56.890625 51.90625 
Q 56.890625 45.015625 53.6875 40.46875 
Q 50.484375 35.9375 44.390625 34.1875 
z
M 19.671875 64.796875 
L 19.671875 38.921875 
L 32.078125 38.921875 
Q 39.203125 38.921875 42.84375 42.21875 
Q 46.484375 45.515625 46.484375 51.90625 
Q 46.484375 58.296875 42.84375 61.546875 
Q 39.203125 64.796875 32.078125 64.796875 
z
" id="DejaVuSans-82"/>
     <path d="M 9.8125 72.90625 
L 23.09375 72.90625 
L 55.421875 11.921875 
L 55.421875 72.90625 
L 64.984375 72.90625 
L 64.984375 0 
L 51.703125 0 
L 19.390625 60.984375 
L 19.390625 0 
L 9.8125 0 
z
" id="DejaVuSans-78"/>
    </defs>
    <g transform="translate(69.798622 12.118365)scale(0.12 -0.12)">
     <use xlink:href="#DejaVuSans-67"/>
     <use x="69.824219" xlink:href="#DejaVuSans-97"/>
     <use x="131.103516" xlink:href="#DejaVuSans-115"/>
     <use x="183.203125" xlink:href="#DejaVuSans-111"/>
     <use x="244.384766" xlink:href="#DejaVuSans-115"/>
     <use x="296.484375" xlink:href="#DejaVuSans-32"/>
     <use x="328.271484" xlink:href="#DejaVuSans-97"/>
     <use x="389.550781" xlink:href="#DejaVuSans-99"/>
     <use x="444.53125" xlink:href="#DejaVuSans-117"/>
     <use x="507.910156" xlink:href="#DejaVuSans-109"/>
     <use x="605.322266" xlink:href="#DejaVuSans-117"/>
     <use x="668.701172" xlink:href="#DejaVuSans-108"/>
     <use x="696.484375" xlink:href="#DejaVuSans-97"/>
     <use x="757.763672" xlink:href="#DejaVuSans-100"/>
     <use x="821.240234" xlink:href="#DejaVuSans-111"/>
     <use x="882.421875" xlink:href="#DejaVuSans-115"/>
     <use x="934.521484" xlink:href="#DejaVuSans-32"/>
     <use x="966.308594" xlink:href="#DejaVuSans-45"/>
     <use x="1002.392578" xlink:href="#DejaVuSans-32"/>
     <use x="1034.179688" xlink:href="#DejaVuSans-82"/>
     <use x="1103.662109" xlink:href="#DejaVuSans-78"/>
    </g>
   </g>
  </g>
  <g id="axes_2">
   <g id="patch_107">
    <path d="M 285.013615 137.71551 
L 455.043503 137.71551 
L 455.043503 18.118365 
L 285.013615 18.118365 
z
" style="fill:#ffffff;"/>
   </g>
   <g id="patch_108">
    <path clip-path="url(#p2c46a4fe82)" d="M 292.742246 137.71551 
L 293.981305 137.71551 
L 293.981305 137.71551 
L 292.742246 137.71551 
z
" style="fill:#1f77b4;"/>
   </g>
   <g id="patch_109">
    <path clip-path="url(#p2c46a4fe82)" d="M 294.29107 137.71551 
L 295.530129 137.71551 
L 295.530129 137.71551 
L 294.29107 137.71551 
z
" style="fill:#1f77b4;"/>
   </g>
   <g id="patch_110">
    <path clip-path="url(#p2c46a4fe82)" d="M 295.839894 137.71551 
L 297.078953 137.71551 
L 297.078953 137.71551 
L 295.839894 137.71551 
z
" style="fill:#1f77b4;"/>
   </g>
   <g id="patch_111">
    <path clip-path="url(#p2c46a4fe82)" d="M 297.388718 137.71551 
L 298.627777 137.71551 
L 298.627777 137.71551 
L 297.388718 137.71551 
z
" style="fill:#1f77b4;"/>
   </g>
   <g id="patch_112">
    <path clip-path="url(#p2c46a4fe82)" d="M 298.937542 137.71551 
L 300.176601 137.71551 
L 300.176601 137.71551 
L 298.937542 137.71551 
z
" style="fill:#1f77b4;"/>
   </g>
   <g id="patch_113">
    <path clip-path="url(#p2c46a4fe82)" d="M 300.486366 137.71551 
L 301.725425 137.71551 
L 301.725425 137.71551 
L 300.486366 137.71551 
z
" style="fill:#1f77b4;"/>
   </g>
   <g id="patch_114">
    <path clip-path="url(#p2c46a4fe82)" d="M 302.03519 137.71551 
L 303.274249 137.71551 
L 303.274249 137.71551 
L 302.03519 137.71551 
z
" style="fill:#1f77b4;"/>
   </g>
   <g id="patch_115">
    <path clip-path="url(#p2c46a4fe82)" d="M 303.584014 137.71551 
L 304.823073 137.71551 
L 304.823073 137.535684 
L 303.584014 137.535684 
z
" style="fill:#1f77b4;"/>
   </g>
   <g id="patch_116">
    <path clip-path="url(#p2c46a4fe82)" d="M 305.132838 137.71551 
L 306.371897 137.71551 
L 306.371897 137.607614 
L 305.132838 137.607614 
z
" style="fill:#1f77b4;"/>
   </g>
   <g id="patch_117">
    <path clip-path="url(#p2c46a4fe82)" d="M 306.681661 137.71551 
L 307.920721 137.71551 
L 307.920721 137.571649 
L 306.681661 137.571649 
z
" style="fill:#1f77b4;"/>
   </g>
   <g id="patch_118">
    <path clip-path="url(#p2c46a4fe82)" d="M 308.230485 137.71551 
L 309.469544 137.71551 
L 309.469544 137.71551 
L 308.230485 137.71551 
z
" style="fill:#1f77b4;"/>
   </g>
   <g id="patch_119">
    <path clip-path="url(#p2c46a4fe82)" d="M 309.779309 137.71551 
L 311.018368 137.71551 
L 311.018368 137.679545 
L 309.779309 137.679545 
z
" style="fill:#1f77b4;"/>
   </g>
   <g id="patch_120">
    <path clip-path="url(#p2c46a4fe82)" d="M 311.328133 137.71551 
L 312.567192 137.71551 
L 312.567192 137.535684 
L 311.328133 137.535684 
z
" style="fill:#1f77b4;"/>
   </g>
   <g id="patch_121">
    <path clip-path="url(#p2c46a4fe82)" d="M 312.876957 137.71551 
L 314.116016 137.71551 
L 314.116016 137.391822 
L 312.876957 137.391822 
z
" style="fill:#1f77b4;"/>
   </g>
   <g id="patch_122">
    <path clip-path="url(#p2c46a4fe82)" d="M 314.425781 137.71551 
L 315.66484 137.71551 
L 315.66484 137.1041 
L 314.425781 137.1041 
z
" style="fill:#1f77b4;"/>
   </g>
   <g id="patch_123">
    <path clip-path="url(#p2c46a4fe82)" d="M 315.974605 137.71551 
L 317.213664 137.71551 
L 317.213664 136.888309 
L 315.974605 136.888309 
z
" style="fill:#1f77b4;"/>
   </g>
   <g id="patch_124">
    <path clip-path="url(#p2c46a4fe82)" d="M 317.523429 137.71551 
L 318.762488 137.71551 
L 318.762488 137.391822 
L 317.523429 137.391822 
z
" style="fill:#1f77b4;"/>
   </g>
   <g id="patch_125">
    <path clip-path="url(#p2c46a4fe82)" d="M 319.072253 137.71551 
L 320.311312 137.71551 
L 320.311312 137.535684 
L 319.072253 137.535684 
z
" style="fill:#1f77b4;"/>
   </g>
   <g id="patch_126">
    <path clip-path="url(#p2c46a4fe82)" d="M 320.621077 137.71551 
L 321.860136 137.71551 
L 321.860136 137.355857 
L 320.621077 137.355857 
z
" style="fill:#1f77b4;"/>
   </g>
   <g id="patch_127">
    <path clip-path="url(#p2c46a4fe82)" d="M 322.1699 137.71551 
L 323.40896 137.71551 
L 323.40896 137.247961 
L 322.1699 137.247961 
z
" style="fill:#1f77b4;"/>
   </g>
   <g id="patch_128">
    <path clip-path="url(#p2c46a4fe82)" d="M 323.718724 137.71551 
L 324.957783 137.71551 
L 324.957783 135.161975 
L 323.718724 135.161975 
z
" style="fill:#1f77b4;"/>
   </g>
   <g id="patch_129">
    <path clip-path="url(#p2c46a4fe82)" d="M 325.267548 137.71551 
L 326.506607 137.71551 
L 326.506607 136.42076 
L 325.267548 136.42076 
z
" style="fill:#1f77b4;"/>
   </g>
   <g id="patch_130">
    <path clip-path="url(#p2c46a4fe82)" d="M 326.816372 137.71551 
L 328.055431 137.71551 
L 328.055431 136.636552 
L 326.816372 136.636552 
z
" style="fill:#1f77b4;"/>
   </g>
   <g id="patch_131">
    <path clip-path="url(#p2c46a4fe82)" d="M 328.365196 137.71551 
L 329.604255 137.71551 
L 329.604255 137.571649 
L 328.365196 137.571649 
z
" style="fill:#1f77b4;"/>
   </g>
   <g id="patch_132">
    <path clip-path="url(#p2c46a4fe82)" d="M 329.91402 137.71551 
L 331.153079 137.71551 
L 331.153079 137.427788 
L 329.91402 137.427788 
z
" style="fill:#1f77b4;"/>
   </g>
   <g id="patch_133">
    <path clip-path="url(#p2c46a4fe82)" d="M 331.462844 137.71551 
L 332.701903 137.71551 
L 332.701903 137.463753 
L 331.462844 137.463753 
z
" style="fill:#1f77b4;"/>
   </g>
   <g id="patch_134">
    <path clip-path="url(#p2c46a4fe82)" d="M 333.011668 137.71551 
L 334.250727 137.71551 
L 334.250727 137.71551 
L 333.011668 137.71551 
z
" style="fill:#1f77b4;"/>
   </g>
   <g id="patch_135">
    <path clip-path="url(#p2c46a4fe82)" d="M 334.560492 137.71551 
L 335.799551 137.71551 
L 335.799551 137.643579 
L 334.560492 137.643579 
z
" style="fill:#1f77b4;"/>
   </g>
   <g id="patch_136">
    <path clip-path="url(#p2c46a4fe82)" d="M 336.109316 137.71551 
L 337.348375 137.71551 
L 337.348375 136.780413 
L 336.109316 136.780413 
z
" style="fill:#1f77b4;"/>
   </g>
   <g id="patch_137">
    <path clip-path="url(#p2c46a4fe82)" d="M 337.658139 137.71551 
L 338.897199 137.71551 
L 338.897199 137.247961 
L 337.658139 137.247961 
z
" style="fill:#1f77b4;"/>
   </g>
   <g id="patch_138">
    <path clip-path="url(#p2c46a4fe82)" d="M 339.206963 137.71551 
L 340.446023 137.71551 
L 340.446023 136.384795 
L 339.206963 136.384795 
z
" style="fill:#1f77b4;"/>
   </g>
   <g id="patch_139">
    <path clip-path="url(#p2c46a4fe82)" d="M 340.755787 137.71551 
L 341.994846 137.71551 
L 341.994846 136.384795 
L 340.755787 136.384795 
z
" style="fill:#1f77b4;"/>
   </g>
   <g id="patch_140">
    <path clip-path="url(#p2c46a4fe82)" d="M 342.304611 137.71551 
L 343.54367 137.71551 
L 343.54367 136.888309 
L 342.304611 136.888309 
z
" style="fill:#1f77b4;"/>
   </g>
   <g id="patch_141">
    <path clip-path="url(#p2c46a4fe82)" d="M 343.853435 137.71551 
L 345.092494 137.71551 
L 345.092494 137.679545 
L 343.853435 137.679545 
z
" style="fill:#1f77b4;"/>
   </g>
   <g id="patch_142">
    <path clip-path="url(#p2c46a4fe82)" d="M 345.402259 137.71551 
L 346.641318 137.71551 
L 346.641318 135.449697 
L 345.402259 135.449697 
z
" style="fill:#1f77b4;"/>
   </g>
   <g id="patch_143">
    <path clip-path="url(#p2c46a4fe82)" d="M 346.951083 137.71551 
L 348.190142 137.71551 
L 348.190142 135.80935 
L 346.951083 135.80935 
z
" style="fill:#1f77b4;"/>
   </g>
   <g id="patch_144">
    <path clip-path="url(#p2c46a4fe82)" d="M 348.499907 137.71551 
L 349.738966 137.71551 
L 349.738966 137.176031 
L 348.499907 137.176031 
z
" style="fill:#1f77b4;"/>
   </g>
   <g id="patch_145">
    <path clip-path="url(#p2c46a4fe82)" d="M 350.048731 137.71551 
L 351.28779 137.71551 
L 351.28779 135.413732 
L 350.048731 135.413732 
z
" style="fill:#1f77b4;"/>
   </g>
   <g id="patch_146">
    <path clip-path="url(#p2c46a4fe82)" d="M 351.597555 137.71551 
L 352.836614 137.71551 
L 352.836614 137.247961 
L 351.597555 137.247961 
z
" style="fill:#1f77b4;"/>
   </g>
   <g id="patch_147">
    <path clip-path="url(#p2c46a4fe82)" d="M 353.146379 137.71551 
L 354.385438 137.71551 
L 354.385438 136.348829 
L 353.146379 136.348829 
z
" style="fill:#1f77b4;"/>
   </g>
   <g id="patch_148">
    <path clip-path="url(#p2c46a4fe82)" d="M 354.695202 137.71551 
L 355.934262 137.71551 
L 355.934262 135.485663 
L 354.695202 135.485663 
z
" style="fill:#1f77b4;"/>
   </g>
   <g id="patch_149">
    <path clip-path="url(#p2c46a4fe82)" d="M 356.244026 137.71551 
L 357.483085 137.71551 
L 357.483085 136.061107 
L 356.244026 136.061107 
z
" style="fill:#1f77b4;"/>
   </g>
   <g id="patch_150">
    <path clip-path="url(#p2c46a4fe82)" d="M 357.79285 137.71551 
L 359.031909 137.71551 
L 359.031909 136.744447 
L 357.79285 136.744447 
z
" style="fill:#1f77b4;"/>
   </g>
   <g id="patch_151">
    <path clip-path="url(#p2c46a4fe82)" d="M 359.341674 137.71551 
L 360.580733 137.71551 
L 360.580733 136.133038 
L 359.341674 136.133038 
z
" style="fill:#1f77b4;"/>
   </g>
   <g id="patch_152">
    <path clip-path="url(#p2c46a4fe82)" d="M 360.890498 137.71551 
L 362.129557 137.71551 
L 362.129557 137.463753 
L 360.890498 137.463753 
z
" style="fill:#1f77b4;"/>
   </g>
   <g id="patch_153">
    <path clip-path="url(#p2c46a4fe82)" d="M 362.439322 137.71551 
L 363.678381 137.71551 
L 363.678381 136.816378 
L 362.439322 136.816378 
z
" style="fill:#1f77b4;"/>
   </g>
   <g id="patch_154">
    <path clip-path="url(#p2c46a4fe82)" d="M 363.988146 137.71551 
L 365.227205 137.71551 
L 365.227205 129.479461 
L 363.988146 129.479461 
z
" style="fill:#1f77b4;"/>
   </g>
   <g id="patch_155">
    <path clip-path="url(#p2c46a4fe82)" d="M 365.53697 137.71551 
L 366.776029 137.71551 
L 366.776029 134.442669 
L 365.53697 134.442669 
z
" style="fill:#1f77b4;"/>
   </g>
   <g id="patch_156">
    <path clip-path="url(#p2c46a4fe82)" d="M 367.085794 137.71551 
L 368.324853 137.71551 
L 368.324853 133.399676 
L 367.085794 133.399676 
z
" style="fill:#1f77b4;"/>
   </g>
   <g id="patch_157">
    <path clip-path="url(#p2c46a4fe82)" d="M 368.634618 137.71551 
L 369.873677 137.71551 
L 369.873677 135.233906 
L 368.634618 135.233906 
z
" style="fill:#1f77b4;"/>
   </g>
   <g id="patch_158">
    <path clip-path="url(#p2c46a4fe82)" d="M 370.183441 137.71551 
L 371.422501 137.71551 
L 371.422501 136.780413 
L 370.183441 136.780413 
z
" style="fill:#1f77b4;"/>
   </g>
   <g id="patch_159">
    <path clip-path="url(#p2c46a4fe82)" d="M 371.732265 137.71551 
L 372.971324 137.71551 
L 372.971324 136.672517 
L 371.732265 136.672517 
z
" style="fill:#1f77b4;"/>
   </g>
   <g id="patch_160">
    <path clip-path="url(#p2c46a4fe82)" d="M 373.281089 137.71551 
L 374.520148 137.71551 
L 374.520148 133.579503 
L 373.281089 133.579503 
z
" style="fill:#1f77b4;"/>
   </g>
   <g id="patch_161">
    <path clip-path="url(#p2c46a4fe82)" d="M 374.829913 137.71551 
L 376.068972 137.71551 
L 376.068972 136.348829 
L 374.829913 136.348829 
z
" style="fill:#1f77b4;"/>
   </g>
   <g id="patch_162">
    <path clip-path="url(#p2c46a4fe82)" d="M 376.378737 137.71551 
L 377.617796 137.71551 
L 377.617796 131.781239 
L 376.378737 131.781239 
z
" style="fill:#1f77b4;"/>
   </g>
   <g id="patch_163">
    <path clip-path="url(#p2c46a4fe82)" d="M 377.927561 137.71551 
L 379.16662 137.71551 
L 379.16662 134.766357 
L 377.927561 134.766357 
z
" style="fill:#1f77b4;"/>
   </g>
   <g id="patch_164">
    <path clip-path="url(#p2c46a4fe82)" d="M 379.476385 137.71551 
L 380.715444 137.71551 
L 380.715444 134.190913 
L 379.476385 134.190913 
z
" style="fill:#1f77b4;"/>
   </g>
   <g id="patch_165">
    <path clip-path="url(#p2c46a4fe82)" d="M 381.025209 137.71551 
L 382.264268 137.71551 
L 382.264268 137.391822 
L 381.025209 137.391822 
z
" style="fill:#1f77b4;"/>
   </g>
   <g id="patch_166">
    <path clip-path="url(#p2c46a4fe82)" d="M 382.574033 137.71551 
L 383.813092 137.71551 
L 383.813092 135.521628 
L 382.574033 135.521628 
z
" style="fill:#1f77b4;"/>
   </g>
   <g id="patch_167">
    <path clip-path="url(#p2c46a4fe82)" d="M 384.122857 137.71551 
L 385.361916 137.71551 
L 385.361916 136.133038 
L 384.122857 136.133038 
z
" style="fill:#1f77b4;"/>
   </g>
   <g id="patch_168">
    <path clip-path="url(#p2c46a4fe82)" d="M 385.67168 137.71551 
L 386.91074 137.71551 
L 386.91074 125.703106 
L 385.67168 125.703106 
z
" style="fill:#1f77b4;"/>
   </g>
   <g id="patch_169">
    <path clip-path="url(#p2c46a4fe82)" d="M 387.220504 137.71551 
L 388.459564 137.71551 
L 388.459564 131.601412 
L 387.220504 131.601412 
z
" style="fill:#1f77b4;"/>
   </g>
   <g id="patch_170">
    <path clip-path="url(#p2c46a4fe82)" d="M 388.769328 137.71551 
L 390.008387 137.71551 
L 390.008387 128.760155 
L 388.769328 128.760155 
z
" style="fill:#1f77b4;"/>
   </g>
   <g id="patch_171">
    <path clip-path="url(#p2c46a4fe82)" d="M 390.318152 137.71551 
L 391.557211 137.71551 
L 391.557211 129.875079 
L 390.318152 129.875079 
z
" style="fill:#1f77b4;"/>
   </g>
   <g id="patch_172">
    <path clip-path="url(#p2c46a4fe82)" d="M 391.866976 137.71551 
L 393.106035 137.71551 
L 393.106035 132.932128 
L 391.866976 132.932128 
z
" style="fill:#1f77b4;"/>
   </g>
   <g id="patch_173">
    <path clip-path="url(#p2c46a4fe82)" d="M 393.4158 137.71551 
L 394.654859 137.71551 
L 394.654859 136.025142 
L 393.4158 136.025142 
z
" style="fill:#1f77b4;"/>
   </g>
   <g id="patch_174">
    <path clip-path="url(#p2c46a4fe82)" d="M 394.964624 137.71551 
L 396.203683 137.71551 
L 396.203683 126.961891 
L 394.964624 126.961891 
z
" style="fill:#1f77b4;"/>
   </g>
   <g id="patch_175">
    <path clip-path="url(#p2c46a4fe82)" d="M 396.513448 137.71551 
L 397.752507 137.71551 
L 397.752507 126.458377 
L 396.513448 126.458377 
z
" style="fill:#1f77b4;"/>
   </g>
   <g id="patch_176">
    <path clip-path="url(#p2c46a4fe82)" d="M 398.062272 137.71551 
L 399.301331 137.71551 
L 399.301331 128.220676 
L 398.062272 128.220676 
z
" style="fill:#1f77b4;"/>
   </g>
   <g id="patch_177">
    <path clip-path="url(#p2c46a4fe82)" d="M 399.611096 137.71551 
L 400.850155 137.71551 
L 400.850155 130.846141 
L 399.611096 130.846141 
z
" style="fill:#1f77b4;"/>
   </g>
   <g id="patch_178">
    <path clip-path="url(#p2c46a4fe82)" d="M 401.15992 137.71551 
L 402.398979 137.71551 
L 402.398979 125.199592 
L 401.15992 125.199592 
z
" style="fill:#1f77b4;"/>
   </g>
   <g id="patch_179">
    <path clip-path="url(#p2c46a4fe82)" d="M 402.708743 137.71551 
L 403.947803 137.71551 
L 403.947803 134.190913 
L 402.708743 134.190913 
z
" style="fill:#1f77b4;"/>
   </g>
   <g id="patch_180">
    <path clip-path="url(#p2c46a4fe82)" d="M 404.257567 137.71551 
L 405.496626 137.71551 
L 405.496626 135.485663 
L 404.257567 135.485663 
z
" style="fill:#1f77b4;"/>
   </g>
   <g id="patch_181">
    <path clip-path="url(#p2c46a4fe82)" d="M 405.806391 137.71551 
L 407.04545 137.71551 
L 407.04545 112.072265 
L 405.806391 112.072265 
z
" style="fill:#1f77b4;"/>
   </g>
   <g id="patch_182">
    <path clip-path="url(#p2c46a4fe82)" d="M 407.355215 137.71551 
L 408.594274 137.71551 
L 408.594274 132.032996 
L 407.355215 132.032996 
z
" style="fill:#1f77b4;"/>
   </g>
   <g id="patch_183">
    <path clip-path="url(#p2c46a4fe82)" d="M 408.904039 137.71551 
L 410.143098 137.71551 
L 410.143098 137.71551 
L 408.904039 137.71551 
z
" style="fill:#1f77b4;"/>
   </g>
   <g id="patch_184">
    <path clip-path="url(#p2c46a4fe82)" d="M 410.452863 137.71551 
L 411.691922 137.71551 
L 411.691922 107.756431 
L 410.452863 107.756431 
z
" style="fill:#1f77b4;"/>
   </g>
   <g id="patch_185">
    <path clip-path="url(#p2c46a4fe82)" d="M 412.001687 137.71551 
L 413.240746 137.71551 
L 413.240746 103.944112 
L 412.001687 103.944112 
z
" style="fill:#1f77b4;"/>
   </g>
   <g id="patch_186">
    <path clip-path="url(#p2c46a4fe82)" d="M 413.550511 137.71551 
L 414.78957 137.71551 
L 414.78957 137.71551 
L 413.550511 137.71551 
z
" style="fill:#1f77b4;"/>
   </g>
   <g id="patch_187">
    <path clip-path="url(#p2c46a4fe82)" d="M 415.099335 137.71551 
L 416.338394 137.71551 
L 416.338394 117.503022 
L 415.099335 117.503022 
z
" style="fill:#1f77b4;"/>
   </g>
   <g id="patch_188">
    <path clip-path="url(#p2c46a4fe82)" d="M 416.648159 137.71551 
L 417.887218 137.71551 
L 417.887218 128.04085 
L 416.648159 128.04085 
z
" style="fill:#1f77b4;"/>
   </g>
   <g id="patch_189">
    <path clip-path="url(#p2c46a4fe82)" d="M 418.196982 137.71551 
L 419.436042 137.71551 
L 419.436042 104.771313 
L 418.196982 104.771313 
z
" style="fill:#1f77b4;"/>
   </g>
   <g id="patch_190">
    <path clip-path="url(#p2c46a4fe82)" d="M 419.745806 137.71551 
L 420.984865 137.71551 
L 420.984865 132.932128 
L 419.745806 132.932128 
z
" style="fill:#1f77b4;"/>
   </g>
   <g id="patch_191">
    <path clip-path="url(#p2c46a4fe82)" d="M 421.29463 137.71551 
L 422.533689 137.71551 
L 422.533689 132.032996 
L 421.29463 132.032996 
z
" style="fill:#1f77b4;"/>
   </g>
   <g id="patch_192">
    <path clip-path="url(#p2c46a4fe82)" d="M 422.843454 137.71551 
L 424.082513 137.71551 
L 424.082513 137.391822 
L 422.843454 137.391822 
z
" style="fill:#1f77b4;"/>
   </g>
   <g id="patch_193">
    <path clip-path="url(#p2c46a4fe82)" d="M 424.392278 137.71551 
L 425.631337 137.71551 
L 425.631337 137.607614 
L 424.392278 137.607614 
z
" style="fill:#1f77b4;"/>
   </g>
   <g id="patch_194">
    <path clip-path="url(#p2c46a4fe82)" d="M 425.941102 137.71551 
L 427.180161 137.71551 
L 427.180161 86.069367 
L 425.941102 86.069367 
z
" style="fill:#1f77b4;"/>
   </g>
   <g id="patch_195">
    <path clip-path="url(#p2c46a4fe82)" d="M 427.489926 137.71551 
L 428.728985 137.71551 
L 428.728985 132.716336 
L 427.489926 132.716336 
z
" style="fill:#1f77b4;"/>
   </g>
   <g id="patch_196">
    <path clip-path="url(#p2c46a4fe82)" d="M 429.03875 137.71551 
L 430.277809 137.71551 
L 430.277809 118.258293 
L 429.03875 118.258293 
z
" style="fill:#1f77b4;"/>
   </g>
   <g id="patch_197">
    <path clip-path="url(#p2c46a4fe82)" d="M 430.587574 137.71551 
L 431.826633 137.71551 
L 431.826633 77.797353 
L 430.587574 77.797353 
z
" style="fill:#1f77b4;"/>
   </g>
   <g id="patch_198">
    <path clip-path="url(#p2c46a4fe82)" d="M 432.136398 137.71551 
L 433.375457 137.71551 
L 433.375457 128.11278 
L 432.136398 128.11278 
z
" style="fill:#1f77b4;"/>
   </g>
   <g id="patch_199">
    <path clip-path="url(#p2c46a4fe82)" d="M 433.685221 137.71551 
L 434.924281 137.71551 
L 434.924281 127.357509 
L 433.685221 127.357509 
z
" style="fill:#1f77b4;"/>
   </g>
   <g id="patch_200">
    <path clip-path="url(#p2c46a4fe82)" d="M 435.234045 137.71551 
L 436.473105 137.71551 
L 436.473105 123.976773 
L 435.234045 123.976773 
z
" style="fill:#1f77b4;"/>
   </g>
   <g id="patch_201">
    <path clip-path="url(#p2c46a4fe82)" d="M 436.782869 137.71551 
L 438.021928 137.71551 
L 438.021928 136.169003 
L 436.782869 136.169003 
z
" style="fill:#1f77b4;"/>
   </g>
   <g id="patch_202">
    <path clip-path="url(#p2c46a4fe82)" d="M 438.331693 137.71551 
L 439.570752 137.71551 
L 439.570752 101.82216 
L 438.331693 101.82216 
z
" style="fill:#1f77b4;"/>
   </g>
   <g id="patch_203">
    <path clip-path="url(#p2c46a4fe82)" d="M 439.880517 137.71551 
L 441.119576 137.71551 
L 441.119576 137.71551 
L 439.880517 137.71551 
z
" style="fill:#1f77b4;"/>
   </g>
   <g id="patch_204">
    <path clip-path="url(#p2c46a4fe82)" d="M 441.429341 137.71551 
L 442.6684 137.71551 
L 442.6684 113.367015 
L 441.429341 113.367015 
z
" style="fill:#1f77b4;"/>
   </g>
   <g id="patch_205">
    <path clip-path="url(#p2c46a4fe82)" d="M 442.978165 137.71551 
L 444.217224 137.71551 
L 444.217224 132.320718 
L 442.978165 132.320718 
z
" style="fill:#1f77b4;"/>
   </g>
   <g id="patch_206">
    <path clip-path="url(#p2c46a4fe82)" d="M 444.526989 137.71551 
L 445.766048 137.71551 
L 445.766048 23.813467 
L 444.526989 23.813467 
z
" style="fill:#1f77b4;"/>
   </g>
   <g id="patch_207">
    <path clip-path="url(#p2c46a4fe82)" d="M 446.075813 137.71551 
L 447.314872 137.71551 
L 447.314872 134.694426 
L 446.075813 134.694426 
z
" style="fill:#1f77b4;"/>
   </g>
   <g id="matplotlib.axis_3">
    <g id="xtick_6">
     <g id="line2d_12">
      <g>
       <use style="stroke:#000000;stroke-width:0.8;" x="293.361776" xlink:href="#m4eb5ddc772" y="137.71551"/>
      </g>
     </g>
     <g id="text_14">
      <!-- 0 -->
      <g transform="translate(290.180526 152.313947)scale(0.1 -0.1)">
       <use xlink:href="#DejaVuSans-48"/>
      </g>
     </g>
    </g>
    <g id="xtick_7">
     <g id="line2d_13">
      <g>
       <use style="stroke:#000000;stroke-width:0.8;" x="332.082373" xlink:href="#m4eb5ddc772" y="137.71551"/>
      </g>
     </g>
     <g id="text_15">
      <!-- 25 -->
      <g transform="translate(325.719873 152.313947)scale(0.1 -0.1)">
       <use xlink:href="#DejaVuSans-50"/>
       <use x="63.623047" xlink:href="#DejaVuSans-53"/>
      </g>
     </g>
    </g>
    <g id="xtick_8">
     <g id="line2d_14">
      <g>
       <use style="stroke:#000000;stroke-width:0.8;" x="370.802971" xlink:href="#m4eb5ddc772" y="137.71551"/>
      </g>
     </g>
     <g id="text_16">
      <!-- 50 -->
      <g transform="translate(364.440471 152.313947)scale(0.1 -0.1)">
       <use xlink:href="#DejaVuSans-53"/>
       <use x="63.623047" xlink:href="#DejaVuSans-48"/>
      </g>
     </g>
    </g>
    <g id="xtick_9">
     <g id="line2d_15">
      <g>
       <use style="stroke:#000000;stroke-width:0.8;" x="409.523569" xlink:href="#m4eb5ddc772" y="137.71551"/>
      </g>
     </g>
     <g id="text_17">
      <!-- 75 -->
      <g transform="translate(403.161069 152.313947)scale(0.1 -0.1)">
       <use xlink:href="#DejaVuSans-55"/>
       <use x="63.623047" xlink:href="#DejaVuSans-53"/>
      </g>
     </g>
    </g>
    <g id="xtick_10">
     <g id="line2d_16">
      <g>
       <use style="stroke:#000000;stroke-width:0.8;" x="448.244166" xlink:href="#m4eb5ddc772" y="137.71551"/>
      </g>
     </g>
     <g id="text_18">
      <!-- 100 -->
      <g transform="translate(438.700416 152.313947)scale(0.1 -0.1)">
       <use xlink:href="#DejaVuSans-49"/>
       <use x="63.623047" xlink:href="#DejaVuSans-48"/>
       <use x="127.246094" xlink:href="#DejaVuSans-48"/>
      </g>
     </g>
    </g>
    <g id="text_19">
     <!-- Dias -->
     <g transform="translate(359.120747 165.992072)scale(0.1 -0.1)">
      <use xlink:href="#DejaVuSans-68"/>
      <use x="77.001953" xlink:href="#DejaVuSans-105"/>
      <use x="104.785156" xlink:href="#DejaVuSans-97"/>
      <use x="166.064453" xlink:href="#DejaVuSans-115"/>
     </g>
    </g>
   </g>
   <g id="matplotlib.axis_4">
    <g id="ytick_6">
     <g id="line2d_17">
      <g>
       <use style="stroke:#000000;stroke-width:0.8;" x="285.013615" xlink:href="#m9c9a464d8b" y="137.71551"/>
      </g>
     </g>
     <g id="text_20">
      <!-- 0 -->
      <g transform="translate(271.651115 141.514729)scale(0.1 -0.1)">
       <use xlink:href="#DejaVuSans-48"/>
      </g>
     </g>
    </g>
    <g id="ytick_7">
     <g id="line2d_18">
      <g>
       <use style="stroke:#000000;stroke-width:0.8;" x="285.013615" xlink:href="#m9c9a464d8b" y="101.75023"/>
      </g>
     </g>
     <g id="text_21">
      <!-- 1000 -->
      <g transform="translate(252.563615 105.549448)scale(0.1 -0.1)">
       <use xlink:href="#DejaVuSans-49"/>
       <use x="63.623047" xlink:href="#DejaVuSans-48"/>
       <use x="127.246094" xlink:href="#DejaVuSans-48"/>
       <use x="190.869141" xlink:href="#DejaVuSans-48"/>
      </g>
     </g>
    </g>
    <g id="ytick_8">
     <g id="line2d_19">
      <g>
       <use style="stroke:#000000;stroke-width:0.8;" x="285.013615" xlink:href="#m9c9a464d8b" y="65.784949"/>
      </g>
     </g>
     <g id="text_22">
      <!-- 2000 -->
      <g transform="translate(252.563615 69.584168)scale(0.1 -0.1)">
       <use xlink:href="#DejaVuSans-50"/>
       <use x="63.623047" xlink:href="#DejaVuSans-48"/>
       <use x="127.246094" xlink:href="#DejaVuSans-48"/>
       <use x="190.869141" xlink:href="#DejaVuSans-48"/>
      </g>
     </g>
    </g>
    <g id="ytick_9">
     <g id="line2d_20">
      <g>
       <use style="stroke:#000000;stroke-width:0.8;" x="285.013615" xlink:href="#m9c9a464d8b" y="29.819669"/>
      </g>
     </g>
     <g id="text_23">
      <!-- 3000 -->
      <defs>
       <path d="M 40.578125 39.3125 
Q 47.65625 37.796875 51.625 33 
Q 55.609375 28.21875 55.609375 21.1875 
Q 55.609375 10.40625 48.1875 4.484375 
Q 40.765625 -1.421875 27.09375 -1.421875 
Q 22.515625 -1.421875 17.65625 -0.515625 
Q 12.796875 0.390625 7.625 2.203125 
L 7.625 11.71875 
Q 11.71875 9.328125 16.59375 8.109375 
Q 21.484375 6.890625 26.8125 6.890625 
Q 36.078125 6.890625 40.9375 10.546875 
Q 45.796875 14.203125 45.796875 21.1875 
Q 45.796875 27.640625 41.28125 31.265625 
Q 36.765625 34.90625 28.71875 34.90625 
L 20.21875 34.90625 
L 20.21875 43.015625 
L 29.109375 43.015625 
Q 36.375 43.015625 40.234375 45.921875 
Q 44.09375 48.828125 44.09375 54.296875 
Q 44.09375 59.90625 40.109375 62.90625 
Q 36.140625 65.921875 28.71875 65.921875 
Q 24.65625 65.921875 20.015625 65.03125 
Q 15.375 64.15625 9.8125 62.3125 
L 9.8125 71.09375 
Q 15.4375 72.65625 20.34375 73.4375 
Q 25.25 74.21875 29.59375 74.21875 
Q 40.828125 74.21875 47.359375 69.109375 
Q 53.90625 64.015625 53.90625 55.328125 
Q 53.90625 49.265625 50.4375 45.09375 
Q 46.96875 40.921875 40.578125 39.3125 
z
" id="DejaVuSans-51"/>
      </defs>
      <g transform="translate(252.563615 33.618888)scale(0.1 -0.1)">
       <use xlink:href="#DejaVuSans-51"/>
       <use x="63.623047" xlink:href="#DejaVuSans-48"/>
       <use x="127.246094" xlink:href="#DejaVuSans-48"/>
       <use x="190.869141" xlink:href="#DejaVuSans-48"/>
      </g>
     </g>
    </g>
    <g id="text_24">
     <!-- Novos casos -->
     <defs>
      <path d="M 2.984375 54.6875 
L 12.5 54.6875 
L 29.59375 8.796875 
L 46.6875 54.6875 
L 56.203125 54.6875 
L 35.6875 0 
L 23.484375 0 
z
" id="DejaVuSans-118"/>
     </defs>
     <g transform="translate(246.483927 109.011469)rotate(-90)scale(0.1 -0.1)">
      <use xlink:href="#DejaVuSans-78"/>
      <use x="74.804688" xlink:href="#DejaVuSans-111"/>
      <use x="135.986328" xlink:href="#DejaVuSans-118"/>
      <use x="195.166016" xlink:href="#DejaVuSans-111"/>
      <use x="256.347656" xlink:href="#DejaVuSans-115"/>
      <use x="308.447266" xlink:href="#DejaVuSans-32"/>
      <use x="340.234375" xlink:href="#DejaVuSans-99"/>
      <use x="395.214844" xlink:href="#DejaVuSans-97"/>
      <use x="456.494141" xlink:href="#DejaVuSans-115"/>
      <use x="508.59375" xlink:href="#DejaVuSans-111"/>
      <use x="569.775391" xlink:href="#DejaVuSans-115"/>
     </g>
    </g>
   </g>
   <g id="line2d_21">
    <path clip-path="url(#p2c46a4fe82)" d="M 293.361776 137.707047 
L 294.9106 137.702448 
L 296.459424 137.696052 
L 298.008248 137.687723 
L 299.557071 137.676759 
L 301.105895 137.662633 
L 302.654719 137.644733 
L 304.203543 137.622489 
L 305.752367 137.594897 
L 307.301191 137.560984 
L 308.850015 137.520435 
L 310.398839 137.47307 
L 311.947663 137.41889 
L 313.496487 137.358299 
L 315.04531 137.29203 
L 316.594134 137.224219 
L 318.142958 137.159539 
L 319.691782 137.102378 
L 321.240606 137.056241 
L 322.78943 137.024111 
L 324.338254 137.008203 
L 325.887078 137.009851 
L 327.435902 137.023721 
L 328.984726 137.042955 
L 330.53355 137.059881 
L 332.082373 137.06821 
L 333.631197 137.063252 
L 335.180021 137.041082 
L 336.728845 136.997612 
L 338.277669 136.935778 
L 339.826493 136.860852 
L 341.375317 136.77863 
L 342.924141 136.69542 
L 344.472965 136.615011 
L 346.021789 136.538242 
L 347.570612 136.46802 
L 349.119436 136.401601 
L 350.66826 136.333086 
L 352.217084 136.2578 
L 353.765908 136.16746 
L 355.314732 136.054486 
L 356.863556 135.922309 
L 358.41238 135.771827 
L 359.961204 135.609511 
L 361.510028 135.444859 
L 363.058851 135.285539 
L 364.607675 135.142697 
L 366.156499 135.031685 
L 367.705323 134.946483 
L 369.254147 134.883929 
L 370.802971 134.833075 
L 372.351795 134.780198 
L 373.900619 134.7102 
L 375.449443 134.607786 
L 376.998267 134.446789 
L 378.547091 134.226099 
L 380.095914 133.940534 
L 381.644738 133.5961 
L 383.193562 133.201575 
L 384.742386 132.772329 
L 386.29121 132.321766 
L 387.840034 131.873092 
L 389.388858 131.434723 
L 390.937682 131.02414 
L 392.486506 130.638528 
L 394.03533 130.267102 
L 395.584153 129.893144 
L 397.132977 129.49423 
L 398.681801 129.06067 
L 400.230625 128.569828 
L 401.779449 127.981067 
L 403.328273 127.297817 
L 404.877097 126.559952 
L 406.425921 125.806329 
L 407.974745 125.084297 
L 409.523569 124.408416 
L 411.072392 123.839578 
L 412.621216 123.434957 
L 414.17004 123.190046 
L 415.718864 123.029752 
L 417.267688 122.877323 
L 418.816512 122.693901 
L 420.365336 122.448076 
L 421.91416 122.063303 
L 423.462984 121.536811 
L 425.011808 120.912429 
L 426.560632 120.254044 
L 428.109455 119.645436 
L 429.658279 119.074395 
L 431.207103 118.534017 
L 432.755927 118.020033 
L 434.304751 117.45058 
L 435.853575 116.69104 
L 437.402399 115.708443 
L 438.951223 114.578435 
L 440.500047 113.279162 
L 442.048871 111.855065 
L 443.597694 110.961236 
L 445.146518 110.022424 
L 446.695342 109.151393 
" style="fill:none;stroke:#ff0000;stroke-linecap:square;stroke-width:1.5;"/>
   </g>
   <g id="patch_208">
    <path d="M 285.013615 137.71551 
L 285.013615 18.118365 
" style="fill:none;stroke:#000000;stroke-linecap:square;stroke-linejoin:miter;stroke-width:0.8;"/>
   </g>
   <g id="patch_209">
    <path d="M 455.043503 137.71551 
L 455.043503 18.118365 
" style="fill:none;stroke:#000000;stroke-linecap:square;stroke-linejoin:miter;stroke-width:0.8;"/>
   </g>
   <g id="patch_210">
    <path d="M 285.013615 137.71551 
L 455.043503 137.71551 
" style="fill:none;stroke:#000000;stroke-linecap:square;stroke-linejoin:miter;stroke-width:0.8;"/>
   </g>
   <g id="patch_211">
    <path d="M 285.013615 18.118365 
L 455.043503 18.118365 
" style="fill:none;stroke:#000000;stroke-linecap:square;stroke-linejoin:miter;stroke-width:0.8;"/>
   </g>
   <g id="text_25">
    <!-- Casos novos - RN -->
    <defs>
     <path d="M 54.890625 33.015625 
L 54.890625 0 
L 45.90625 0 
L 45.90625 32.71875 
Q 45.90625 40.484375 42.875 44.328125 
Q 39.84375 48.1875 33.796875 48.1875 
Q 26.515625 48.1875 22.3125 43.546875 
Q 18.109375 38.921875 18.109375 30.90625 
L 18.109375 0 
L 9.078125 0 
L 9.078125 54.6875 
L 18.109375 54.6875 
L 18.109375 46.1875 
Q 21.34375 51.125 25.703125 53.5625 
Q 30.078125 56 35.796875 56 
Q 45.21875 56 50.046875 50.171875 
Q 54.890625 44.34375 54.890625 33.015625 
z
" id="DejaVuSans-110"/>
    </defs>
    <g transform="translate(317.874497 12.118365)scale(0.12 -0.12)">
     <use xlink:href="#DejaVuSans-67"/>
     <use x="69.824219" xlink:href="#DejaVuSans-97"/>
     <use x="131.103516" xlink:href="#DejaVuSans-115"/>
     <use x="183.203125" xlink:href="#DejaVuSans-111"/>
     <use x="244.384766" xlink:href="#DejaVuSans-115"/>
     <use x="296.484375" xlink:href="#DejaVuSans-32"/>
     <use x="328.271484" xlink:href="#DejaVuSans-110"/>
     <use x="391.650391" xlink:href="#DejaVuSans-111"/>
     <use x="452.832031" xlink:href="#DejaVuSans-118"/>
     <use x="512.011719" xlink:href="#DejaVuSans-111"/>
     <use x="573.193359" xlink:href="#DejaVuSans-115"/>
     <use x="625.292969" xlink:href="#DejaVuSans-32"/>
     <use x="657.080078" xlink:href="#DejaVuSans-45"/>
     <use x="693.164062" xlink:href="#DejaVuSans-32"/>
     <use x="724.951172" xlink:href="#DejaVuSans-82"/>
     <use x="794.433594" xlink:href="#DejaVuSans-78"/>
    </g>
   </g>
  </g>
  <g id="axes_3">
   <g id="patch_212">
    <path d="M 55.490865 312.24351 
L 455.043503 312.24351 
L 455.043503 192.646365 
L 55.490865 192.646365 
z
" style="fill:#ffffff;"/>
   </g>
   <g id="matplotlib.axis_5">
    <g id="xtick_11">
     <g id="line2d_22">
      <g>
       <use style="stroke:#000000;stroke-width:0.8;" x="73.652349" xlink:href="#m4eb5ddc772" y="312.24351"/>
      </g>
     </g>
     <g id="text_26">
      <!-- 0 -->
      <g transform="translate(70.471099 326.841947)scale(0.1 -0.1)">
       <use xlink:href="#DejaVuSans-48"/>
      </g>
     </g>
    </g>
    <g id="xtick_12">
     <g id="line2d_23">
      <g>
       <use style="stroke:#000000;stroke-width:0.8;" x="147.03208" xlink:href="#m4eb5ddc772" y="312.24351"/>
      </g>
     </g>
     <g id="text_27">
      <!-- 20 -->
      <g transform="translate(140.66958 326.841947)scale(0.1 -0.1)">
       <use xlink:href="#DejaVuSans-50"/>
       <use x="63.623047" xlink:href="#DejaVuSans-48"/>
      </g>
     </g>
    </g>
    <g id="xtick_13">
     <g id="line2d_24">
      <g>
       <use style="stroke:#000000;stroke-width:0.8;" x="220.411812" xlink:href="#m4eb5ddc772" y="312.24351"/>
      </g>
     </g>
     <g id="text_28">
      <!-- 40 -->
      <defs>
       <path d="M 37.796875 64.3125 
L 12.890625 25.390625 
L 37.796875 25.390625 
z
M 35.203125 72.90625 
L 47.609375 72.90625 
L 47.609375 25.390625 
L 58.015625 25.390625 
L 58.015625 17.1875 
L 47.609375 17.1875 
L 47.609375 0 
L 37.796875 0 
L 37.796875 17.1875 
L 4.890625 17.1875 
L 4.890625 26.703125 
z
" id="DejaVuSans-52"/>
      </defs>
      <g transform="translate(214.049312 326.841947)scale(0.1 -0.1)">
       <use xlink:href="#DejaVuSans-52"/>
       <use x="63.623047" xlink:href="#DejaVuSans-48"/>
      </g>
     </g>
    </g>
    <g id="xtick_14">
     <g id="line2d_25">
      <g>
       <use style="stroke:#000000;stroke-width:0.8;" x="293.791543" xlink:href="#m4eb5ddc772" y="312.24351"/>
      </g>
     </g>
     <g id="text_29">
      <!-- 60 -->
      <defs>
       <path d="M 33.015625 40.375 
Q 26.375 40.375 22.484375 35.828125 
Q 18.609375 31.296875 18.609375 23.390625 
Q 18.609375 15.53125 22.484375 10.953125 
Q 26.375 6.390625 33.015625 6.390625 
Q 39.65625 6.390625 43.53125 10.953125 
Q 47.40625 15.53125 47.40625 23.390625 
Q 47.40625 31.296875 43.53125 35.828125 
Q 39.65625 40.375 33.015625 40.375 
z
M 52.59375 71.296875 
L 52.59375 62.3125 
Q 48.875 64.0625 45.09375 64.984375 
Q 41.3125 65.921875 37.59375 65.921875 
Q 27.828125 65.921875 22.671875 59.328125 
Q 17.53125 52.734375 16.796875 39.40625 
Q 19.671875 43.65625 24.015625 45.921875 
Q 28.375 48.1875 33.59375 48.1875 
Q 44.578125 48.1875 50.953125 41.515625 
Q 57.328125 34.859375 57.328125 23.390625 
Q 57.328125 12.15625 50.6875 5.359375 
Q 44.046875 -1.421875 33.015625 -1.421875 
Q 20.359375 -1.421875 13.671875 8.265625 
Q 6.984375 17.96875 6.984375 36.375 
Q 6.984375 53.65625 15.1875 63.9375 
Q 23.390625 74.21875 37.203125 74.21875 
Q 40.921875 74.21875 44.703125 73.484375 
Q 48.484375 72.75 52.59375 71.296875 
z
" id="DejaVuSans-54"/>
      </defs>
      <g transform="translate(287.429043 326.841947)scale(0.1 -0.1)">
       <use xlink:href="#DejaVuSans-54"/>
       <use x="63.623047" xlink:href="#DejaVuSans-48"/>
      </g>
     </g>
    </g>
    <g id="xtick_15">
     <g id="line2d_26">
      <g>
       <use style="stroke:#000000;stroke-width:0.8;" x="367.171275" xlink:href="#m4eb5ddc772" y="312.24351"/>
      </g>
     </g>
     <g id="text_30">
      <!-- 80 -->
      <defs>
       <path d="M 31.78125 34.625 
Q 24.75 34.625 20.71875 30.859375 
Q 16.703125 27.09375 16.703125 20.515625 
Q 16.703125 13.921875 20.71875 10.15625 
Q 24.75 6.390625 31.78125 6.390625 
Q 38.8125 6.390625 42.859375 10.171875 
Q 46.921875 13.96875 46.921875 20.515625 
Q 46.921875 27.09375 42.890625 30.859375 
Q 38.875 34.625 31.78125 34.625 
z
M 21.921875 38.8125 
Q 15.578125 40.375 12.03125 44.71875 
Q 8.5 49.078125 8.5 55.328125 
Q 8.5 64.0625 14.71875 69.140625 
Q 20.953125 74.21875 31.78125 74.21875 
Q 42.671875 74.21875 48.875 69.140625 
Q 55.078125 64.0625 55.078125 55.328125 
Q 55.078125 49.078125 51.53125 44.71875 
Q 48 40.375 41.703125 38.8125 
Q 48.828125 37.15625 52.796875 32.3125 
Q 56.78125 27.484375 56.78125 20.515625 
Q 56.78125 9.90625 50.3125 4.234375 
Q 43.84375 -1.421875 31.78125 -1.421875 
Q 19.734375 -1.421875 13.25 4.234375 
Q 6.78125 9.90625 6.78125 20.515625 
Q 6.78125 27.484375 10.78125 32.3125 
Q 14.796875 37.15625 21.921875 38.8125 
z
M 18.3125 54.390625 
Q 18.3125 48.734375 21.84375 45.5625 
Q 25.390625 42.390625 31.78125 42.390625 
Q 38.140625 42.390625 41.71875 45.5625 
Q 45.3125 48.734375 45.3125 54.390625 
Q 45.3125 60.0625 41.71875 63.234375 
Q 38.140625 66.40625 31.78125 66.40625 
Q 25.390625 66.40625 21.84375 63.234375 
Q 18.3125 60.0625 18.3125 54.390625 
z
" id="DejaVuSans-56"/>
      </defs>
      <g transform="translate(360.808775 326.841947)scale(0.1 -0.1)">
       <use xlink:href="#DejaVuSans-56"/>
       <use x="63.623047" xlink:href="#DejaVuSans-48"/>
      </g>
     </g>
    </g>
    <g id="xtick_16">
     <g id="line2d_27">
      <g>
       <use style="stroke:#000000;stroke-width:0.8;" x="440.551006" xlink:href="#m4eb5ddc772" y="312.24351"/>
      </g>
     </g>
     <g id="text_31">
      <!-- 100 -->
      <g transform="translate(431.007256 326.841947)scale(0.1 -0.1)">
       <use xlink:href="#DejaVuSans-49"/>
       <use x="63.623047" xlink:href="#DejaVuSans-48"/>
       <use x="127.246094" xlink:href="#DejaVuSans-48"/>
      </g>
     </g>
    </g>
    <g id="text_32">
     <!-- Dias -->
     <g transform="translate(244.359372 340.520072)scale(0.1 -0.1)">
      <use xlink:href="#DejaVuSans-68"/>
      <use x="77.001953" xlink:href="#DejaVuSans-105"/>
      <use x="104.785156" xlink:href="#DejaVuSans-97"/>
      <use x="166.064453" xlink:href="#DejaVuSans-115"/>
     </g>
    </g>
   </g>
   <g id="matplotlib.axis_6">
    <g id="ytick_10">
     <g id="line2d_28">
      <g>
       <use style="stroke:#000000;stroke-width:0.8;" x="55.490865" xlink:href="#m9c9a464d8b" y="299.282062"/>
      </g>
     </g>
     <g id="text_33">
      <!-- 1 -->
      <g transform="translate(42.128365 303.081281)scale(0.1 -0.1)">
       <use xlink:href="#DejaVuSans-49"/>
      </g>
     </g>
    </g>
    <g id="ytick_11">
     <g id="line2d_29">
      <g>
       <use style="stroke:#000000;stroke-width:0.8;" x="55.490865" xlink:href="#m9c9a464d8b" y="262.223057"/>
      </g>
     </g>
     <g id="text_34">
      <!-- 2 -->
      <g transform="translate(42.128365 266.022276)scale(0.1 -0.1)">
       <use xlink:href="#DejaVuSans-50"/>
      </g>
     </g>
    </g>
    <g id="ytick_12">
     <g id="line2d_30">
      <g>
       <use style="stroke:#000000;stroke-width:0.8;" x="55.490865" xlink:href="#m9c9a464d8b" y="225.164053"/>
      </g>
     </g>
     <g id="text_35">
      <!-- 3 -->
      <g transform="translate(42.128365 228.963271)scale(0.1 -0.1)">
       <use xlink:href="#DejaVuSans-51"/>
      </g>
     </g>
    </g>
    <g id="text_36">
     <!-- r0 -->
     <defs>
      <path d="M 41.109375 46.296875 
Q 39.59375 47.171875 37.8125 47.578125 
Q 36.03125 48 33.890625 48 
Q 26.265625 48 22.1875 43.046875 
Q 18.109375 38.09375 18.109375 28.8125 
L 18.109375 0 
L 9.078125 0 
L 9.078125 54.6875 
L 18.109375 54.6875 
L 18.109375 46.1875 
Q 20.953125 51.171875 25.484375 53.578125 
Q 30.03125 56 36.53125 56 
Q 37.453125 56 38.578125 55.875 
Q 39.703125 55.765625 41.0625 55.515625 
z
" id="DejaVuSans-114"/>
     </defs>
     <g transform="translate(36.048678 257.681656)rotate(-90)scale(0.1 -0.1)">
      <use xlink:href="#DejaVuSans-114"/>
      <use x="41.113281" xlink:href="#DejaVuSans-48"/>
     </g>
    </g>
   </g>
   <g id="line2d_31">
    <path clip-path="url(#p057b14c10a)" d="M 73.652349 198.082599 
L 77.321335 206.085847 
L 80.990322 212.26586 
L 84.659308 219.937103 
L 88.328295 224.376755 
L 91.997281 228.561182 
L 95.666268 232.325434 
L 99.335255 235.970325 
L 103.004241 238.711292 
L 106.673228 241.168475 
L 110.342214 244.234904 
L 114.011201 247.537669 
L 117.680187 250.895677 
L 121.349174 254.339938 
L 125.018161 257.810934 
L 128.687147 262.691549 
L 132.356134 268.428686 
L 136.02512 274.543819 
L 139.694107 280.696881 
L 143.363093 286.921285 
L 147.03208 293.272617 
L 150.701067 299.849755 
L 154.370053 304.543457 
L 158.03904 306.807276 
L 161.708026 306.068302 
L 165.377013 302.632334 
L 169.046 297.20215 
L 172.714986 290.496892 
L 176.383973 283.149759 
L 180.052959 278.168167 
L 183.721946 275.938964 
L 187.390932 275.903422 
L 191.059919 277.534541 
L 194.728906 279.780628 
L 198.397892 281.854981 
L 202.066879 284.211961 
L 205.735865 285.725863 
L 209.404852 285.977142 
L 213.073838 285.411041 
L 216.742825 283.613869 
L 220.411812 281.030478 
L 224.080798 279.497406 
L 227.749785 278.489496 
L 231.418771 278.559524 
L 235.087758 279.749889 
L 238.756744 281.576913 
L 242.425731 284.230409 
L 246.094718 287.983362 
L 249.763704 290.789482 
L 253.432691 293.087344 
L 257.101677 294.257989 
L 260.770664 294.142122 
L 264.43965 292.714349 
L 268.108637 290.111338 
L 271.777624 285.727666 
L 275.44661 281.952604 
L 279.115597 278.59355 
L 282.784583 276.412915 
L 286.45357 275.343439 
L 290.122557 275.436126 
L 293.791543 276.26005 
L 297.46053 278.007155 
L 301.129516 279.82634 
L 304.798503 282.035114 
L 308.467489 283.825577 
L 312.136476 285.010308 
L 315.805463 285.502198 
L 319.474449 285.239262 
L 323.143436 284.738745 
L 326.812422 283.686667 
L 330.481409 281.740791 
L 334.150395 280.24522 
L 337.819382 279.978743 
L 341.488369 280.642141 
L 345.157355 282.199035 
L 348.826342 283.830179 
L 352.495328 286.414637 
L 356.164315 289.8071 
L 359.833301 292.88991 
L 363.502288 294.45355 
L 367.171275 294.547835 
L 370.840261 293.921338 
L 374.509248 292.742947 
L 378.178234 290.2664 
L 381.847221 287.915039 
L 385.516207 286.48382 
L 389.185194 286.187468 
L 392.854181 287.181417 
L 396.523167 287.901665 
L 400.192154 288.457351 
L 403.86114 288.903938 
L 407.530127 288.178492 
L 411.199114 285.703198 
L 414.8681 283.049002 
L 418.537087 281.613368 
L 422.206073 280.10607 
L 425.87506 279.278015 
L 429.544046 285.386639 
L 433.213033 285.002923 
L 436.88202 285.768928 
" style="fill:none;stroke:#ff0000;stroke-linecap:square;stroke-width:1.5;"/>
   </g>
   <g id="patch_213">
    <path d="M 55.490865 312.24351 
L 55.490865 192.646365 
" style="fill:none;stroke:#000000;stroke-linecap:square;stroke-linejoin:miter;stroke-width:0.8;"/>
   </g>
   <g id="patch_214">
    <path d="M 455.043503 312.24351 
L 455.043503 192.646365 
" style="fill:none;stroke:#000000;stroke-linecap:square;stroke-linejoin:miter;stroke-width:0.8;"/>
   </g>
   <g id="patch_215">
    <path d="M 55.490865 312.24351 
L 455.043503 312.24351 
" style="fill:none;stroke:#000000;stroke-linecap:square;stroke-linejoin:miter;stroke-width:0.8;"/>
   </g>
   <g id="patch_216">
    <path d="M 55.490865 192.646365 
L 455.043503 192.646365 
" style="fill:none;stroke:#000000;stroke-linecap:square;stroke-linejoin:miter;stroke-width:0.8;"/>
   </g>
   <g id="text_37">
    <!-- r0 aproximado - RN -->
    <defs>
     <path d="M 18.109375 8.203125 
L 18.109375 -20.796875 
L 9.078125 -20.796875 
L 9.078125 54.6875 
L 18.109375 54.6875 
L 18.109375 46.390625 
Q 20.953125 51.265625 25.265625 53.625 
Q 29.59375 56 35.59375 56 
Q 45.5625 56 51.78125 48.09375 
Q 58.015625 40.1875 58.015625 27.296875 
Q 58.015625 14.40625 51.78125 6.484375 
Q 45.5625 -1.421875 35.59375 -1.421875 
Q 29.59375 -1.421875 25.265625 0.953125 
Q 20.953125 3.328125 18.109375 8.203125 
z
M 48.6875 27.296875 
Q 48.6875 37.203125 44.609375 42.84375 
Q 40.53125 48.484375 33.40625 48.484375 
Q 26.265625 48.484375 22.1875 42.84375 
Q 18.109375 37.203125 18.109375 27.296875 
Q 18.109375 17.390625 22.1875 11.75 
Q 26.265625 6.109375 33.40625 6.109375 
Q 40.53125 6.109375 44.609375 11.75 
Q 48.6875 17.390625 48.6875 27.296875 
z
" id="DejaVuSans-112"/>
     <path d="M 54.890625 54.6875 
L 35.109375 28.078125 
L 55.90625 0 
L 45.3125 0 
L 29.390625 21.484375 
L 13.484375 0 
L 2.875 0 
L 24.125 28.609375 
L 4.6875 54.6875 
L 15.28125 54.6875 
L 29.78125 35.203125 
L 44.28125 54.6875 
z
" id="DejaVuSans-120"/>
    </defs>
    <g transform="translate(196.919059 186.646365)scale(0.12 -0.12)">
     <use xlink:href="#DejaVuSans-114"/>
     <use x="41.113281" xlink:href="#DejaVuSans-48"/>
     <use x="104.736328" xlink:href="#DejaVuSans-32"/>
     <use x="136.523438" xlink:href="#DejaVuSans-97"/>
     <use x="197.802734" xlink:href="#DejaVuSans-112"/>
     <use x="261.279297" xlink:href="#DejaVuSans-114"/>
     <use x="300.142578" xlink:href="#DejaVuSans-111"/>
     <use x="358.199219" xlink:href="#DejaVuSans-120"/>
     <use x="417.378906" xlink:href="#DejaVuSans-105"/>
     <use x="445.162109" xlink:href="#DejaVuSans-109"/>
     <use x="542.574219" xlink:href="#DejaVuSans-97"/>
     <use x="603.853516" xlink:href="#DejaVuSans-100"/>
     <use x="667.330078" xlink:href="#DejaVuSans-111"/>
     <use x="728.511719" xlink:href="#DejaVuSans-32"/>
     <use x="760.298828" xlink:href="#DejaVuSans-45"/>
     <use x="796.382812" xlink:href="#DejaVuSans-32"/>
     <use x="828.169922" xlink:href="#DejaVuSans-82"/>
     <use x="897.652344" xlink:href="#DejaVuSans-78"/>
    </g>
   </g>
  </g>
 </g>
 <defs>
  <clipPath id="p6eec705697">
   <rect height="119.597145" width="170.029888" x="55.490865" y="18.118365"/>
  </clipPath>
  <clipPath id="p2c46a4fe82">
   <rect height="119.597145" width="170.029888" x="285.013615" y="18.118365"/>
  </clipPath>
  <clipPath id="p057b14c10a">
   <rect height="119.597145" width="399.552638" x="55.490865" y="192.646365"/>
  </clipPath>
 </defs>
</svg>
