<?xml version="1.0" encoding="utf-8" standalone="no"?>
<!DOCTYPE svg PUBLIC "-//W3C//DTD SVG 1.1//EN"
  "http://www.w3.org/Graphics/SVG/1.1/DTD/svg11.dtd">
<!-- Created with matplotlib (https://matplotlib.org/) -->
<svg height="345.6pt" version="1.1" viewBox="0 0 460.8 345.6" width="460.8pt" xmlns="http://www.w3.org/2000/svg" xmlns:xlink="http://www.w3.org/1999/xlink">
 <defs>
  <style type="text/css">
*{stroke-linecap:butt;stroke-linejoin:round;}
  </style>
 </defs>
 <g id="figure_1">
  <g id="patch_1">
   <path d="M 0 345.6 
L 460.8 345.6 
L 460.8 0 
L 0 0 
z
" style="fill:#ffffff;"/>
  </g>
  <g id="axes_1">
   <g id="patch_2">
    <path d="M 52.774302 325.921635 
L 134.573948 325.921635 
L 134.573948 18.118365 
L 52.774302 18.118365 
z
" style="fill:#ffffff;"/>
   </g>
   <g id="patch_3">
    <path clip-path="url(#p7f38c7132a)" d="M 56.492468 325.921635 
L 57.133531 325.921635 
L 57.133531 325.902471 
L 56.492468 325.902471 
z
" style="fill:#1f77b4;"/>
   </g>
   <g id="patch_4">
    <path clip-path="url(#p7f38c7132a)" d="M 57.293797 325.921635 
L 57.93486 325.921635 
L 57.93486 325.864143 
L 57.293797 325.864143 
z
" style="fill:#1f77b4;"/>
   </g>
   <g id="patch_5">
    <path clip-path="url(#p7f38c7132a)" d="M 58.095126 325.921635 
L 58.736189 325.921635 
L 58.736189 325.864143 
L 58.095126 325.864143 
z
" style="fill:#1f77b4;"/>
   </g>
   <g id="patch_6">
    <path clip-path="url(#p7f38c7132a)" d="M 58.896454 325.921635 
L 59.537517 325.921635 
L 59.537517 325.864143 
L 58.896454 325.864143 
z
" style="fill:#1f77b4;"/>
   </g>
   <g id="patch_7">
    <path clip-path="url(#p7f38c7132a)" d="M 59.697783 325.921635 
L 60.338846 325.921635 
L 60.338846 325.825814 
L 59.697783 325.825814 
z
" style="fill:#1f77b4;"/>
   </g>
   <g id="patch_8">
    <path clip-path="url(#p7f38c7132a)" d="M 60.499112 325.921635 
L 61.140175 325.921635 
L 61.140175 325.825814 
L 60.499112 325.825814 
z
" style="fill:#1f77b4;"/>
   </g>
   <g id="patch_9">
    <path clip-path="url(#p7f38c7132a)" d="M 61.300441 325.921635 
L 61.941504 325.921635 
L 61.941504 325.80665 
L 61.300441 325.80665 
z
" style="fill:#1f77b4;"/>
   </g>
   <g id="patch_10">
    <path clip-path="url(#p7f38c7132a)" d="M 62.10177 325.921635 
L 62.742833 325.921635 
L 62.742833 325.80665 
L 62.10177 325.80665 
z
" style="fill:#1f77b4;"/>
   </g>
   <g id="patch_11">
    <path clip-path="url(#p7f38c7132a)" d="M 62.903099 325.921635 
L 63.544162 325.921635 
L 63.544162 325.80665 
L 62.903099 325.80665 
z
" style="fill:#1f77b4;"/>
   </g>
   <g id="patch_12">
    <path clip-path="url(#p7f38c7132a)" d="M 63.704427 325.921635 
L 64.34549 325.921635 
L 64.34549 325.80665 
L 63.704427 325.80665 
z
" style="fill:#1f77b4;"/>
   </g>
   <g id="patch_13">
    <path clip-path="url(#p7f38c7132a)" d="M 64.505756 325.921635 
L 65.146819 325.921635 
L 65.146819 325.768322 
L 64.505756 325.768322 
z
" style="fill:#1f77b4;"/>
   </g>
   <g id="patch_14">
    <path clip-path="url(#p7f38c7132a)" d="M 65.307085 325.921635 
L 65.948148 325.921635 
L 65.948148 325.749158 
L 65.307085 325.749158 
z
" style="fill:#1f77b4;"/>
   </g>
   <g id="patch_15">
    <path clip-path="url(#p7f38c7132a)" d="M 66.108414 325.921635 
L 66.749477 325.921635 
L 66.749477 325.729994 
L 66.108414 325.729994 
z
" style="fill:#1f77b4;"/>
   </g>
   <g id="patch_16">
    <path clip-path="url(#p7f38c7132a)" d="M 66.909743 325.921635 
L 67.550806 325.921635 
L 67.550806 325.729994 
L 66.909743 325.729994 
z
" style="fill:#1f77b4;"/>
   </g>
   <g id="patch_17">
    <path clip-path="url(#p7f38c7132a)" d="M 67.711071 325.921635 
L 68.352134 325.921635 
L 68.352134 325.71083 
L 67.711071 325.71083 
z
" style="fill:#1f77b4;"/>
   </g>
   <g id="patch_18">
    <path clip-path="url(#p7f38c7132a)" d="M 68.5124 325.921635 
L 69.153463 325.921635 
L 69.153463 325.691666 
L 68.5124 325.691666 
z
" style="fill:#1f77b4;"/>
   </g>
   <g id="patch_19">
    <path clip-path="url(#p7f38c7132a)" d="M 69.313729 325.921635 
L 69.954792 325.921635 
L 69.954792 325.653337 
L 69.313729 325.653337 
z
" style="fill:#1f77b4;"/>
   </g>
   <g id="patch_20">
    <path clip-path="url(#p7f38c7132a)" d="M 70.115058 325.921635 
L 70.756121 325.921635 
L 70.756121 325.576681 
L 70.115058 325.576681 
z
" style="fill:#1f77b4;"/>
   </g>
   <g id="patch_21">
    <path clip-path="url(#p7f38c7132a)" d="M 70.916387 325.921635 
L 71.55745 325.921635 
L 71.55745 325.576681 
L 70.916387 325.576681 
z
" style="fill:#1f77b4;"/>
   </g>
   <g id="patch_22">
    <path clip-path="url(#p7f38c7132a)" d="M 71.717715 325.921635 
L 72.358779 325.921635 
L 72.358779 325.38504 
L 71.717715 325.38504 
z
" style="fill:#1f77b4;"/>
   </g>
   <g id="patch_23">
    <path clip-path="url(#p7f38c7132a)" d="M 72.519044 325.921635 
L 73.160107 325.921635 
L 73.160107 325.308383 
L 72.519044 325.308383 
z
" style="fill:#1f77b4;"/>
   </g>
   <g id="patch_24">
    <path clip-path="url(#p7f38c7132a)" d="M 73.320373 325.921635 
L 73.961436 325.921635 
L 73.961436 325.289219 
L 73.320373 325.289219 
z
" style="fill:#1f77b4;"/>
   </g>
   <g id="patch_25">
    <path clip-path="url(#p7f38c7132a)" d="M 74.121702 325.921635 
L 74.762765 325.921635 
L 74.762765 325.250891 
L 74.121702 325.250891 
z
" style="fill:#1f77b4;"/>
   </g>
   <g id="patch_26">
    <path clip-path="url(#p7f38c7132a)" d="M 74.923031 325.921635 
L 75.564094 325.921635 
L 75.564094 325.116742 
L 74.923031 325.116742 
z
" style="fill:#1f77b4;"/>
   </g>
   <g id="patch_27">
    <path clip-path="url(#p7f38c7132a)" d="M 75.72436 325.921635 
L 76.365423 325.921635 
L 76.365423 324.695131 
L 75.72436 324.695131 
z
" style="fill:#1f77b4;"/>
   </g>
   <g id="patch_28">
    <path clip-path="url(#p7f38c7132a)" d="M 76.525688 325.921635 
L 77.166751 325.921635 
L 77.166751 324.599311 
L 76.525688 324.599311 
z
" style="fill:#1f77b4;"/>
   </g>
   <g id="patch_29">
    <path clip-path="url(#p7f38c7132a)" d="M 77.327017 325.921635 
L 77.96808 325.921635 
L 77.96808 324.465162 
L 77.327017 324.465162 
z
" style="fill:#1f77b4;"/>
   </g>
   <g id="patch_30">
    <path clip-path="url(#p7f38c7132a)" d="M 78.128346 325.921635 
L 78.769409 325.921635 
L 78.769409 324.158536 
L 78.128346 324.158536 
z
" style="fill:#1f77b4;"/>
   </g>
   <g id="patch_31">
    <path clip-path="url(#p7f38c7132a)" d="M 78.929675 325.921635 
L 79.570738 325.921635 
L 79.570738 323.813582 
L 78.929675 323.813582 
z
" style="fill:#1f77b4;"/>
   </g>
   <g id="patch_32">
    <path clip-path="url(#p7f38c7132a)" d="M 79.731004 325.921635 
L 80.372067 325.921635 
L 80.372067 323.468628 
L 79.731004 323.468628 
z
" style="fill:#1f77b4;"/>
   </g>
   <g id="patch_33">
    <path clip-path="url(#p7f38c7132a)" d="M 80.532332 325.921635 
L 81.173395 325.921635 
L 81.173395 322.855376 
L 80.532332 322.855376 
z
" style="fill:#1f77b4;"/>
   </g>
   <g id="patch_34">
    <path clip-path="url(#p7f38c7132a)" d="M 81.333661 325.921635 
L 81.974724 325.921635 
L 81.974724 322.107976 
L 81.333661 322.107976 
z
" style="fill:#1f77b4;"/>
   </g>
   <g id="patch_35">
    <path clip-path="url(#p7f38c7132a)" d="M 82.13499 325.921635 
L 82.776053 325.921635 
L 82.776053 321.648037 
L 82.13499 321.648037 
z
" style="fill:#1f77b4;"/>
   </g>
   <g id="patch_36">
    <path clip-path="url(#p7f38c7132a)" d="M 82.936319 325.921635 
L 83.577382 325.921635 
L 83.577382 321.130606 
L 82.936319 321.130606 
z
" style="fill:#1f77b4;"/>
   </g>
   <g id="patch_37">
    <path clip-path="url(#p7f38c7132a)" d="M 83.737648 325.921635 
L 84.378711 325.921635 
L 84.378711 320.364041 
L 83.737648 320.364041 
z
" style="fill:#1f77b4;"/>
   </g>
   <g id="patch_38">
    <path clip-path="url(#p7f38c7132a)" d="M 84.538976 325.921635 
L 85.18004 325.921635 
L 85.18004 319.635804 
L 84.538976 319.635804 
z
" style="fill:#1f77b4;"/>
   </g>
   <g id="patch_39">
    <path clip-path="url(#p7f38c7132a)" d="M 85.340305 325.921635 
L 85.981368 325.921635 
L 85.981368 318.945896 
L 85.340305 318.945896 
z
" style="fill:#1f77b4;"/>
   </g>
   <g id="patch_40">
    <path clip-path="url(#p7f38c7132a)" d="M 86.141634 325.921635 
L 86.782697 325.921635 
L 86.782697 318.390137 
L 86.141634 318.390137 
z
" style="fill:#1f77b4;"/>
   </g>
   <g id="patch_41">
    <path clip-path="url(#p7f38c7132a)" d="M 86.942963 325.921635 
L 87.584026 325.921635 
L 87.584026 318.006854 
L 86.942963 318.006854 
z
" style="fill:#1f77b4;"/>
   </g>
   <g id="patch_42">
    <path clip-path="url(#p7f38c7132a)" d="M 87.744292 325.921635 
L 88.385355 325.921635 
L 88.385355 317.623572 
L 87.744292 317.623572 
z
" style="fill:#1f77b4;"/>
   </g>
   <g id="patch_43">
    <path clip-path="url(#p7f38c7132a)" d="M 88.545621 325.921635 
L 89.186684 325.921635 
L 89.186684 316.301248 
L 88.545621 316.301248 
z
" style="fill:#1f77b4;"/>
   </g>
   <g id="patch_44">
    <path clip-path="url(#p7f38c7132a)" d="M 89.346949 325.921635 
L 89.988012 325.921635 
L 89.988012 314.710626 
L 89.346949 314.710626 
z
" style="fill:#1f77b4;"/>
   </g>
   <g id="patch_45">
    <path clip-path="url(#p7f38c7132a)" d="M 90.148278 325.921635 
L 90.789341 325.921635 
L 90.789341 313.407466 
L 90.148278 313.407466 
z
" style="fill:#1f77b4;"/>
   </g>
   <g id="patch_46">
    <path clip-path="url(#p7f38c7132a)" d="M 90.949607 325.921635 
L 91.59067 325.921635 
L 91.59067 312.410932 
L 90.949607 312.410932 
z
" style="fill:#1f77b4;"/>
   </g>
   <g id="patch_47">
    <path clip-path="url(#p7f38c7132a)" d="M 91.750936 325.921635 
L 92.391999 325.921635 
L 92.391999 311.433562 
L 91.750936 311.433562 
z
" style="fill:#1f77b4;"/>
   </g>
   <g id="patch_48">
    <path clip-path="url(#p7f38c7132a)" d="M 92.552265 325.921635 
L 93.193328 325.921635 
L 93.193328 309.42133 
L 92.552265 309.42133 
z
" style="fill:#1f77b4;"/>
   </g>
   <g id="patch_49">
    <path clip-path="url(#p7f38c7132a)" d="M 93.353593 325.921635 
L 93.994656 325.921635 
L 93.994656 307.849872 
L 93.353593 307.849872 
z
" style="fill:#1f77b4;"/>
   </g>
   <g id="patch_50">
    <path clip-path="url(#p7f38c7132a)" d="M 94.154922 325.921635 
L 94.795985 325.921635 
L 94.795985 304.879434 
L 94.154922 304.879434 
z
" style="fill:#1f77b4;"/>
   </g>
   <g id="patch_51">
    <path clip-path="url(#p7f38c7132a)" d="M 94.956251 325.921635 
L 95.597314 325.921635 
L 95.597314 302.503083 
L 94.956251 302.503083 
z
" style="fill:#1f77b4;"/>
   </g>
   <g id="patch_52">
    <path clip-path="url(#p7f38c7132a)" d="M 95.75758 325.921635 
L 96.398643 325.921635 
L 96.398643 301.717355 
L 95.75758 301.717355 
z
" style="fill:#1f77b4;"/>
   </g>
   <g id="patch_53">
    <path clip-path="url(#p7f38c7132a)" d="M 96.558909 325.921635 
L 97.199972 325.921635 
L 97.199972 300.969954 
L 96.558909 300.969954 
z
" style="fill:#1f77b4;"/>
   </g>
   <g id="patch_54">
    <path clip-path="url(#p7f38c7132a)" d="M 97.360237 325.921635 
L 98.001301 325.921635 
L 98.001301 299.168527 
L 97.360237 299.168527 
z
" style="fill:#1f77b4;"/>
   </g>
   <g id="patch_55">
    <path clip-path="url(#p7f38c7132a)" d="M 98.161566 325.921635 
L 98.802629 325.921635 
L 98.802629 297.942023 
L 98.161566 297.942023 
z
" style="fill:#1f77b4;"/>
   </g>
   <g id="patch_56">
    <path clip-path="url(#p7f38c7132a)" d="M 98.962895 325.921635 
L 99.603958 325.921635 
L 99.603958 295.029078 
L 98.962895 295.029078 
z
" style="fill:#1f77b4;"/>
   </g>
   <g id="patch_57">
    <path clip-path="url(#p7f38c7132a)" d="M 99.764224 325.921635 
L 100.405287 325.921635 
L 100.405287 293.610933 
L 99.764224 293.610933 
z
" style="fill:#1f77b4;"/>
   </g>
   <g id="patch_58">
    <path clip-path="url(#p7f38c7132a)" d="M 100.565553 325.921635 
L 101.206616 325.921635 
L 101.206616 291.637029 
L 100.565553 291.637029 
z
" style="fill:#1f77b4;"/>
   </g>
   <g id="patch_59">
    <path clip-path="url(#p7f38c7132a)" d="M 101.366882 325.921635 
L 102.007945 325.921635 
L 102.007945 289.145693 
L 101.366882 289.145693 
z
" style="fill:#1f77b4;"/>
   </g>
   <g id="patch_60">
    <path clip-path="url(#p7f38c7132a)" d="M 102.16821 325.921635 
L 102.809273 325.921635 
L 102.809273 288.302472 
L 102.16821 288.302472 
z
" style="fill:#1f77b4;"/>
   </g>
   <g id="patch_61">
    <path clip-path="url(#p7f38c7132a)" d="M 102.969539 325.921635 
L 103.610602 325.921635 
L 103.610602 286.769343 
L 102.969539 286.769343 
z
" style="fill:#1f77b4;"/>
   </g>
   <g id="patch_62">
    <path clip-path="url(#p7f38c7132a)" d="M 103.770868 325.921635 
L 104.411931 325.921635 
L 104.411931 282.668222 
L 103.770868 282.668222 
z
" style="fill:#1f77b4;"/>
   </g>
   <g id="patch_63">
    <path clip-path="url(#p7f38c7132a)" d="M 104.572197 325.921635 
L 105.21326 325.921635 
L 105.21326 278.030505 
L 104.572197 278.030505 
z
" style="fill:#1f77b4;"/>
   </g>
   <g id="patch_64">
    <path clip-path="url(#p7f38c7132a)" d="M 105.373526 325.921635 
L 106.014589 325.921635 
L 106.014589 274.964246 
L 105.373526 274.964246 
z
" style="fill:#1f77b4;"/>
   </g>
   <g id="patch_65">
    <path clip-path="url(#p7f38c7132a)" d="M 106.174854 325.921635 
L 106.815917 325.921635 
L 106.815917 272.760373 
L 106.174854 272.760373 
z
" style="fill:#1f77b4;"/>
   </g>
   <g id="patch_66">
    <path clip-path="url(#p7f38c7132a)" d="M 106.976183 325.921635 
L 107.617246 325.921635 
L 107.617246 266.340394 
L 106.976183 266.340394 
z
" style="fill:#1f77b4;"/>
   </g>
   <g id="patch_67">
    <path clip-path="url(#p7f38c7132a)" d="M 107.777512 325.921635 
L 108.418575 325.921635 
L 108.418575 264.577295 
L 107.777512 264.577295 
z
" style="fill:#1f77b4;"/>
   </g>
   <g id="patch_68">
    <path clip-path="url(#p7f38c7132a)" d="M 108.578841 325.921635 
L 109.219904 325.921635 
L 109.219904 263.293299 
L 108.578841 263.293299 
z
" style="fill:#1f77b4;"/>
   </g>
   <g id="patch_69">
    <path clip-path="url(#p7f38c7132a)" d="M 109.38017 325.921635 
L 110.021233 325.921635 
L 110.021233 258.981372 
L 109.38017 258.981372 
z
" style="fill:#1f77b4;"/>
   </g>
   <g id="patch_70">
    <path clip-path="url(#p7f38c7132a)" d="M 110.181498 325.921635 
L 110.822562 325.921635 
L 110.822562 251.909813 
L 110.181498 251.909813 
z
" style="fill:#1f77b4;"/>
   </g>
   <g id="patch_71">
    <path clip-path="url(#p7f38c7132a)" d="M 110.982827 325.921635 
L 111.62389 325.921635 
L 111.62389 244.435807 
L 110.982827 244.435807 
z
" style="fill:#1f77b4;"/>
   </g>
   <g id="patch_72">
    <path clip-path="url(#p7f38c7132a)" d="M 111.784156 325.921635 
L 112.425219 325.921635 
L 112.425219 239.644778 
L 111.784156 239.644778 
z
" style="fill:#1f77b4;"/>
   </g>
   <g id="patch_73">
    <path clip-path="url(#p7f38c7132a)" d="M 112.585485 325.921635 
L 113.226548 325.921635 
L 113.226548 235.026225 
L 112.585485 235.026225 
z
" style="fill:#1f77b4;"/>
   </g>
   <g id="patch_74">
    <path clip-path="url(#p7f38c7132a)" d="M 113.386814 325.921635 
L 114.027877 325.921635 
L 114.027877 231.212566 
L 113.386814 231.212566 
z
" style="fill:#1f77b4;"/>
   </g>
   <g id="patch_75">
    <path clip-path="url(#p7f38c7132a)" d="M 114.188143 325.921635 
L 114.829206 325.921635 
L 114.829206 226.804819 
L 114.188143 226.804819 
z
" style="fill:#1f77b4;"/>
   </g>
   <g id="patch_76">
    <path clip-path="url(#p7f38c7132a)" d="M 114.989471 325.921635 
L 115.630534 325.921635 
L 115.630534 220.959763 
L 114.989471 220.959763 
z
" style="fill:#1f77b4;"/>
   </g>
   <g id="patch_77">
    <path clip-path="url(#p7f38c7132a)" d="M 115.7908 325.921635 
L 116.431863 325.921635 
L 116.431863 216.437031 
L 115.7908 216.437031 
z
" style="fill:#1f77b4;"/>
   </g>
   <g id="patch_78">
    <path clip-path="url(#p7f38c7132a)" d="M 116.592129 325.921635 
L 117.233192 325.921635 
L 117.233192 202.1406 
L 116.592129 202.1406 
z
" style="fill:#1f77b4;"/>
   </g>
   <g id="patch_79">
    <path clip-path="url(#p7f38c7132a)" d="M 117.393458 325.921635 
L 118.034521 325.921635 
L 118.034521 194.41746 
L 117.393458 194.41746 
z
" style="fill:#1f77b4;"/>
   </g>
   <g id="patch_80">
    <path clip-path="url(#p7f38c7132a)" d="M 118.194787 325.921635 
L 118.83585 325.921635 
L 118.83585 178.35793 
L 118.194787 178.35793 
z
" style="fill:#1f77b4;"/>
   </g>
   <g id="patch_81">
    <path clip-path="url(#p7f38c7132a)" d="M 118.996115 325.921635 
L 119.637178 325.921635 
L 119.637178 170.500642 
L 118.996115 170.500642 
z
" style="fill:#1f77b4;"/>
   </g>
   <g id="patch_82">
    <path clip-path="url(#p7f38c7132a)" d="M 119.797444 325.921635 
L 120.438507 325.921635 
L 120.438507 160.611957 
L 119.797444 160.611957 
z
" style="fill:#1f77b4;"/>
   </g>
   <g id="patch_83">
    <path clip-path="url(#p7f38c7132a)" d="M 120.598773 325.921635 
L 121.239836 325.921635 
L 121.239836 149.228471 
L 120.598773 149.228471 
z
" style="fill:#1f77b4;"/>
   </g>
   <g id="patch_84">
    <path clip-path="url(#p7f38c7132a)" d="M 121.400102 325.921635 
L 122.041165 325.921635 
L 122.041165 137.155077 
L 121.400102 137.155077 
z
" style="fill:#1f77b4;"/>
   </g>
   <g id="patch_85">
    <path clip-path="url(#p7f38c7132a)" d="M 122.201431 325.921635 
L 122.842494 325.921635 
L 122.842494 123.797687 
L 122.201431 123.797687 
z
" style="fill:#1f77b4;"/>
   </g>
   <g id="patch_86">
    <path clip-path="url(#p7f38c7132a)" d="M 123.00276 325.921635 
L 123.643823 325.921635 
L 123.643823 110.82358 
L 123.00276 110.82358 
z
" style="fill:#1f77b4;"/>
   </g>
   <g id="patch_87">
    <path clip-path="url(#p7f38c7132a)" d="M 123.804088 325.921635 
L 124.445151 325.921635 
L 124.445151 101.509818 
L 123.804088 101.509818 
z
" style="fill:#1f77b4;"/>
   </g>
   <g id="patch_88">
    <path clip-path="url(#p7f38c7132a)" d="M 124.605417 325.921635 
L 125.24648 325.921635 
L 125.24648 98.53938 
L 124.605417 98.53938 
z
" style="fill:#1f77b4;"/>
   </g>
   <g id="patch_89">
    <path clip-path="url(#p7f38c7132a)" d="M 125.406746 325.921635 
L 126.047809 325.921635 
L 126.047809 92.502683 
L 125.406746 92.502683 
z
" style="fill:#1f77b4;"/>
   </g>
   <g id="patch_90">
    <path clip-path="url(#p7f38c7132a)" d="M 126.208075 325.921635 
L 126.849138 325.921635 
L 126.849138 76.596466 
L 126.208075 76.596466 
z
" style="fill:#1f77b4;"/>
   </g>
   <g id="patch_91">
    <path clip-path="url(#p7f38c7132a)" d="M 127.009404 325.921635 
L 127.650467 325.921635 
L 127.650467 65.922052 
L 127.009404 65.922052 
z
" style="fill:#1f77b4;"/>
   </g>
   <g id="patch_92">
    <path clip-path="url(#p7f38c7132a)" d="M 127.810732 325.921635 
L 128.451795 325.921635 
L 128.451795 61.380156 
L 127.810732 61.380156 
z
" style="fill:#1f77b4;"/>
   </g>
   <g id="patch_93">
    <path clip-path="url(#p7f38c7132a)" d="M 128.612061 325.921635 
L 129.253124 325.921635 
L 129.253124 50.859056 
L 128.612061 50.859056 
z
" style="fill:#1f77b4;"/>
   </g>
   <g id="patch_94">
    <path clip-path="url(#p7f38c7132a)" d="M 129.41339 325.921635 
L 130.054453 325.921635 
L 130.054453 39.379749 
L 129.41339 39.379749 
z
" style="fill:#1f77b4;"/>
   </g>
   <g id="patch_95">
    <path clip-path="url(#p7f38c7132a)" d="M 130.214719 325.921635 
L 130.855782 325.921635 
L 130.855782 34.991166 
L 130.214719 34.991166 
z
" style="fill:#1f77b4;"/>
   </g>
   <g id="matplotlib.axis_1">
    <g id="xtick_1">
     <g id="line2d_1">
      <defs>
       <path d="M 0 0 
L 0 3.5 
" id="me74309d5c8" style="stroke:#000000;stroke-width:0.8;"/>
      </defs>
      <g>
       <use style="stroke:#000000;stroke-width:0.8;" x="56.813" xlink:href="#me74309d5c8" y="325.921635"/>
      </g>
     </g>
     <g id="text_1">
      <!-- 0 -->
      <defs>
       <path d="M 31.78125 66.40625 
Q 24.171875 66.40625 20.328125 58.90625 
Q 16.5 51.421875 16.5 36.375 
Q 16.5 21.390625 20.328125 13.890625 
Q 24.171875 6.390625 31.78125 6.390625 
Q 39.453125 6.390625 43.28125 13.890625 
Q 47.125 21.390625 47.125 36.375 
Q 47.125 51.421875 43.28125 58.90625 
Q 39.453125 66.40625 31.78125 66.40625 
z
M 31.78125 74.21875 
Q 44.046875 74.21875 50.515625 64.515625 
Q 56.984375 54.828125 56.984375 36.375 
Q 56.984375 17.96875 50.515625 8.265625 
Q 44.046875 -1.421875 31.78125 -1.421875 
Q 19.53125 -1.421875 13.0625 8.265625 
Q 6.59375 17.96875 6.59375 36.375 
Q 6.59375 54.828125 13.0625 64.515625 
Q 19.53125 74.21875 31.78125 74.21875 
z
" id="DejaVuSans-48"/>
      </defs>
      <g transform="translate(53.63175 340.520072)scale(0.1 -0.1)">
       <use xlink:href="#DejaVuSans-48"/>
      </g>
     </g>
    </g>
    <g id="xtick_2">
     <g id="line2d_2">
      <g>
       <use style="stroke:#000000;stroke-width:0.8;" x="96.87944" xlink:href="#me74309d5c8" y="325.921635"/>
      </g>
     </g>
     <g id="text_2">
      <!-- 50 -->
      <defs>
       <path d="M 10.796875 72.90625 
L 49.515625 72.90625 
L 49.515625 64.59375 
L 19.828125 64.59375 
L 19.828125 46.734375 
Q 21.96875 47.46875 24.109375 47.828125 
Q 26.265625 48.1875 28.421875 48.1875 
Q 40.625 48.1875 47.75 41.5 
Q 54.890625 34.8125 54.890625 23.390625 
Q 54.890625 11.625 47.5625 5.09375 
Q 40.234375 -1.421875 26.90625 -1.421875 
Q 22.3125 -1.421875 17.546875 -0.640625 
Q 12.796875 0.140625 7.71875 1.703125 
L 7.71875 11.625 
Q 12.109375 9.234375 16.796875 8.0625 
Q 21.484375 6.890625 26.703125 6.890625 
Q 35.15625 6.890625 40.078125 11.328125 
Q 45.015625 15.765625 45.015625 23.390625 
Q 45.015625 31 40.078125 35.4375 
Q 35.15625 39.890625 26.703125 39.890625 
Q 22.75 39.890625 18.8125 39.015625 
Q 14.890625 38.140625 10.796875 36.28125 
z
" id="DejaVuSans-53"/>
      </defs>
      <g transform="translate(90.51694 340.520072)scale(0.1 -0.1)">
       <use xlink:href="#DejaVuSans-53"/>
       <use x="63.623047" xlink:href="#DejaVuSans-48"/>
      </g>
     </g>
    </g>
   </g>
   <g id="matplotlib.axis_2">
    <g id="ytick_1">
     <g id="line2d_3">
      <defs>
       <path d="M 0 0 
L -3.5 0 
" id="m63b1df5bc6" style="stroke:#000000;stroke-width:0.8;"/>
      </defs>
      <g>
       <use style="stroke:#000000;stroke-width:0.8;" x="52.774302" xlink:href="#m63b1df5bc6" y="325.921635"/>
      </g>
     </g>
     <g id="text_3">
      <!-- 0 -->
      <g transform="translate(39.411802 329.720854)scale(0.1 -0.1)">
       <use xlink:href="#DejaVuSans-48"/>
      </g>
     </g>
    </g>
    <g id="ytick_2">
     <g id="line2d_4">
      <g>
       <use style="stroke:#000000;stroke-width:0.8;" x="52.774302" xlink:href="#m63b1df5bc6" y="287.5934"/>
      </g>
     </g>
     <g id="text_4">
      <!-- 2000 -->
      <defs>
       <path d="M 19.1875 8.296875 
L 53.609375 8.296875 
L 53.609375 0 
L 7.328125 0 
L 7.328125 8.296875 
Q 12.9375 14.109375 22.625 23.890625 
Q 32.328125 33.6875 34.8125 36.53125 
Q 39.546875 41.84375 41.421875 45.53125 
Q 43.3125 49.21875 43.3125 52.78125 
Q 43.3125 58.59375 39.234375 62.25 
Q 35.15625 65.921875 28.609375 65.921875 
Q 23.96875 65.921875 18.8125 64.3125 
Q 13.671875 62.703125 7.8125 59.421875 
L 7.8125 69.390625 
Q 13.765625 71.78125 18.9375 73 
Q 24.125 74.21875 28.421875 74.21875 
Q 39.75 74.21875 46.484375 68.546875 
Q 53.21875 62.890625 53.21875 53.421875 
Q 53.21875 48.921875 51.53125 44.890625 
Q 49.859375 40.875 45.40625 35.40625 
Q 44.1875 33.984375 37.640625 27.21875 
Q 31.109375 20.453125 19.1875 8.296875 
z
" id="DejaVuSans-50"/>
      </defs>
      <g transform="translate(20.324302 291.392619)scale(0.1 -0.1)">
       <use xlink:href="#DejaVuSans-50"/>
       <use x="63.623047" xlink:href="#DejaVuSans-48"/>
       <use x="127.246094" xlink:href="#DejaVuSans-48"/>
       <use x="190.869141" xlink:href="#DejaVuSans-48"/>
      </g>
     </g>
    </g>
    <g id="ytick_3">
     <g id="line2d_5">
      <g>
       <use style="stroke:#000000;stroke-width:0.8;" x="52.774302" xlink:href="#m63b1df5bc6" y="249.265165"/>
      </g>
     </g>
     <g id="text_5">
      <!-- 4000 -->
      <defs>
       <path d="M 37.796875 64.3125 
L 12.890625 25.390625 
L 37.796875 25.390625 
z
M 35.203125 72.90625 
L 47.609375 72.90625 
L 47.609375 25.390625 
L 58.015625 25.390625 
L 58.015625 17.1875 
L 47.609375 17.1875 
L 47.609375 0 
L 37.796875 0 
L 37.796875 17.1875 
L 4.890625 17.1875 
L 4.890625 26.703125 
z
" id="DejaVuSans-52"/>
      </defs>
      <g transform="translate(20.324302 253.064384)scale(0.1 -0.1)">
       <use xlink:href="#DejaVuSans-52"/>
       <use x="63.623047" xlink:href="#DejaVuSans-48"/>
       <use x="127.246094" xlink:href="#DejaVuSans-48"/>
       <use x="190.869141" xlink:href="#DejaVuSans-48"/>
      </g>
     </g>
    </g>
    <g id="ytick_4">
     <g id="line2d_6">
      <g>
       <use style="stroke:#000000;stroke-width:0.8;" x="52.774302" xlink:href="#m63b1df5bc6" y="210.93693"/>
      </g>
     </g>
     <g id="text_6">
      <!-- 6000 -->
      <defs>
       <path d="M 33.015625 40.375 
Q 26.375 40.375 22.484375 35.828125 
Q 18.609375 31.296875 18.609375 23.390625 
Q 18.609375 15.53125 22.484375 10.953125 
Q 26.375 6.390625 33.015625 6.390625 
Q 39.65625 6.390625 43.53125 10.953125 
Q 47.40625 15.53125 47.40625 23.390625 
Q 47.40625 31.296875 43.53125 35.828125 
Q 39.65625 40.375 33.015625 40.375 
z
M 52.59375 71.296875 
L 52.59375 62.3125 
Q 48.875 64.0625 45.09375 64.984375 
Q 41.3125 65.921875 37.59375 65.921875 
Q 27.828125 65.921875 22.671875 59.328125 
Q 17.53125 52.734375 16.796875 39.40625 
Q 19.671875 43.65625 24.015625 45.921875 
Q 28.375 48.1875 33.59375 48.1875 
Q 44.578125 48.1875 50.953125 41.515625 
Q 57.328125 34.859375 57.328125 23.390625 
Q 57.328125 12.15625 50.6875 5.359375 
Q 44.046875 -1.421875 33.015625 -1.421875 
Q 20.359375 -1.421875 13.671875 8.265625 
Q 6.984375 17.96875 6.984375 36.375 
Q 6.984375 53.65625 15.1875 63.9375 
Q 23.390625 74.21875 37.203125 74.21875 
Q 40.921875 74.21875 44.703125 73.484375 
Q 48.484375 72.75 52.59375 71.296875 
z
" id="DejaVuSans-54"/>
      </defs>
      <g transform="translate(20.324302 214.736148)scale(0.1 -0.1)">
       <use xlink:href="#DejaVuSans-54"/>
       <use x="63.623047" xlink:href="#DejaVuSans-48"/>
       <use x="127.246094" xlink:href="#DejaVuSans-48"/>
       <use x="190.869141" xlink:href="#DejaVuSans-48"/>
      </g>
     </g>
    </g>
    <g id="ytick_5">
     <g id="line2d_7">
      <g>
       <use style="stroke:#000000;stroke-width:0.8;" x="52.774302" xlink:href="#m63b1df5bc6" y="172.608695"/>
      </g>
     </g>
     <g id="text_7">
      <!-- 8000 -->
      <defs>
       <path d="M 31.78125 34.625 
Q 24.75 34.625 20.71875 30.859375 
Q 16.703125 27.09375 16.703125 20.515625 
Q 16.703125 13.921875 20.71875 10.15625 
Q 24.75 6.390625 31.78125 6.390625 
Q 38.8125 6.390625 42.859375 10.171875 
Q 46.921875 13.96875 46.921875 20.515625 
Q 46.921875 27.09375 42.890625 30.859375 
Q 38.875 34.625 31.78125 34.625 
z
M 21.921875 38.8125 
Q 15.578125 40.375 12.03125 44.71875 
Q 8.5 49.078125 8.5 55.328125 
Q 8.5 64.0625 14.71875 69.140625 
Q 20.953125 74.21875 31.78125 74.21875 
Q 42.671875 74.21875 48.875 69.140625 
Q 55.078125 64.0625 55.078125 55.328125 
Q 55.078125 49.078125 51.53125 44.71875 
Q 48 40.375 41.703125 38.8125 
Q 48.828125 37.15625 52.796875 32.3125 
Q 56.78125 27.484375 56.78125 20.515625 
Q 56.78125 9.90625 50.3125 4.234375 
Q 43.84375 -1.421875 31.78125 -1.421875 
Q 19.734375 -1.421875 13.25 4.234375 
Q 6.78125 9.90625 6.78125 20.515625 
Q 6.78125 27.484375 10.78125 32.3125 
Q 14.796875 37.15625 21.921875 38.8125 
z
M 18.3125 54.390625 
Q 18.3125 48.734375 21.84375 45.5625 
Q 25.390625 42.390625 31.78125 42.390625 
Q 38.140625 42.390625 41.71875 45.5625 
Q 45.3125 48.734375 45.3125 54.390625 
Q 45.3125 60.0625 41.71875 63.234375 
Q 38.140625 66.40625 31.78125 66.40625 
Q 25.390625 66.40625 21.84375 63.234375 
Q 18.3125 60.0625 18.3125 54.390625 
z
" id="DejaVuSans-56"/>
      </defs>
      <g transform="translate(20.324302 176.407913)scale(0.1 -0.1)">
       <use xlink:href="#DejaVuSans-56"/>
       <use x="63.623047" xlink:href="#DejaVuSans-48"/>
       <use x="127.246094" xlink:href="#DejaVuSans-48"/>
       <use x="190.869141" xlink:href="#DejaVuSans-48"/>
      </g>
     </g>
    </g>
    <g id="ytick_6">
     <g id="line2d_8">
      <g>
       <use style="stroke:#000000;stroke-width:0.8;" x="52.774302" xlink:href="#m63b1df5bc6" y="134.280459"/>
      </g>
     </g>
     <g id="text_8">
      <!-- 10000 -->
      <defs>
       <path d="M 12.40625 8.296875 
L 28.515625 8.296875 
L 28.515625 63.921875 
L 10.984375 60.40625 
L 10.984375 69.390625 
L 28.421875 72.90625 
L 38.28125 72.90625 
L 38.28125 8.296875 
L 54.390625 8.296875 
L 54.390625 0 
L 12.40625 0 
z
" id="DejaVuSans-49"/>
      </defs>
      <g transform="translate(13.961802 138.079678)scale(0.1 -0.1)">
       <use xlink:href="#DejaVuSans-49"/>
       <use x="63.623047" xlink:href="#DejaVuSans-48"/>
       <use x="127.246094" xlink:href="#DejaVuSans-48"/>
       <use x="190.869141" xlink:href="#DejaVuSans-48"/>
       <use x="254.492188" xlink:href="#DejaVuSans-48"/>
      </g>
     </g>
    </g>
    <g id="ytick_7">
     <g id="line2d_9">
      <g>
       <use style="stroke:#000000;stroke-width:0.8;" x="52.774302" xlink:href="#m63b1df5bc6" y="95.952224"/>
      </g>
     </g>
     <g id="text_9">
      <!-- 12000 -->
      <g transform="translate(13.961802 99.751443)scale(0.1 -0.1)">
       <use xlink:href="#DejaVuSans-49"/>
       <use x="63.623047" xlink:href="#DejaVuSans-50"/>
       <use x="127.246094" xlink:href="#DejaVuSans-48"/>
       <use x="190.869141" xlink:href="#DejaVuSans-48"/>
       <use x="254.492188" xlink:href="#DejaVuSans-48"/>
      </g>
     </g>
    </g>
    <g id="ytick_8">
     <g id="line2d_10">
      <g>
       <use style="stroke:#000000;stroke-width:0.8;" x="52.774302" xlink:href="#m63b1df5bc6" y="57.623989"/>
      </g>
     </g>
     <g id="text_10">
      <!-- 14000 -->
      <g transform="translate(13.961802 61.423208)scale(0.1 -0.1)">
       <use xlink:href="#DejaVuSans-49"/>
       <use x="63.623047" xlink:href="#DejaVuSans-52"/>
       <use x="127.246094" xlink:href="#DejaVuSans-48"/>
       <use x="190.869141" xlink:href="#DejaVuSans-48"/>
       <use x="254.492188" xlink:href="#DejaVuSans-48"/>
      </g>
     </g>
    </g>
    <g id="ytick_9">
     <g id="line2d_11">
      <g>
       <use style="stroke:#000000;stroke-width:0.8;" x="52.774302" xlink:href="#m63b1df5bc6" y="19.295754"/>
      </g>
     </g>
     <g id="text_11">
      <!-- 16000 -->
      <g transform="translate(13.961802 23.094973)scale(0.1 -0.1)">
       <use xlink:href="#DejaVuSans-49"/>
       <use x="63.623047" xlink:href="#DejaVuSans-54"/>
       <use x="127.246094" xlink:href="#DejaVuSans-48"/>
       <use x="190.869141" xlink:href="#DejaVuSans-48"/>
       <use x="254.492188" xlink:href="#DejaVuSans-48"/>
      </g>
     </g>
    </g>
   </g>
   <g id="line2d_12">
    <path clip-path="url(#p7f38c7132a)" d="M 56.813 325.877999 
L 57.614328 325.87044 
L 58.415657 325.861229 
L 59.216986 325.851077 
L 60.018315 325.84015 
L 60.819644 325.828608 
L 61.620972 325.816556 
L 62.422301 325.803865 
L 63.22363 325.790208 
L 64.024959 325.775083 
L 64.826288 325.757874 
L 65.627616 325.737888 
L 66.428945 325.714206 
L 67.230274 325.685663 
L 68.031603 325.651063 
L 68.832932 325.609198 
L 69.634261 325.558698 
L 70.435589 325.497877 
L 71.236918 325.424613 
L 72.038247 325.336607 
L 72.839576 325.231368 
L 73.640905 325.105775 
L 74.442233 324.95607 
L 75.243562 324.778109 
L 76.044891 324.567592 
L 76.84622 324.320573 
L 77.647549 324.033614 
L 78.448877 323.704137 
L 79.250206 323.330712 
L 80.051535 322.913036 
L 80.852864 322.451764 
L 81.654193 321.948437 
L 82.455522 321.404674 
L 83.25685 320.820779 
L 84.058179 320.194733 
L 84.859508 319.522009 
L 85.660837 318.7958 
L 86.462166 318.007605 
L 87.263494 317.147414 
L 88.064823 316.204166 
L 88.866152 315.168697 
L 89.667481 314.034917 
L 90.46881 312.801669 
L 91.270138 311.47304 
L 92.071467 310.056443 
L 92.872796 308.562033 
L 93.674125 307.003291 
L 94.475454 305.392659 
L 95.276783 303.740985 
L 96.078111 302.05317 
L 96.87944 300.32693 
L 97.680769 298.554182 
L 98.482098 296.721211 
L 99.283427 294.807593 
L 100.084755 292.791354 
L 100.886084 290.648931 
L 101.687413 288.358025 
L 102.488742 285.897635 
L 103.290071 283.251374 
L 104.0914 280.407542 
L 104.892728 277.358189 
L 105.694057 274.094821 
L 106.495386 270.610911 
L 107.296715 266.901852 
L 108.098044 262.966519 
L 108.899372 258.796053 
L 109.700701 254.373627 
L 110.50203 249.676271 
L 111.303359 244.675411 
L 112.104688 239.328215 
L 112.906016 233.581693 
L 113.707345 227.371034 
L 114.508674 220.640598 
L 115.310003 213.348823 
L 116.111332 205.472674 
L 116.912661 197.01085 
L 117.713989 187.998 
L 118.515318 178.500531 
L 119.316647 168.621608 
L 120.117976 158.476774 
L 120.919305 148.183057 
L 121.720633 137.846741 
L 122.521962 127.564582 
L 123.323291 117.414176 
L 124.12462 107.442506 
L 124.925949 97.659371 
L 125.727277 88.055914 
L 126.528606 78.611093 
L 127.329935 69.30149 
L 128.131264 60.097797 
L 128.932593 50.954677 
L 129.733922 41.851106 
L 130.53525 32.775664 
" style="fill:none;stroke:#ff0000;stroke-linecap:square;stroke-width:1.5;"/>
   </g>
   <g id="patch_96">
    <path d="M 52.774302 325.921635 
L 52.774302 18.118365 
" style="fill:none;stroke:#000000;stroke-linecap:square;stroke-linejoin:miter;stroke-width:0.8;"/>
   </g>
   <g id="patch_97">
    <path d="M 134.573948 325.921635 
L 134.573948 18.118365 
" style="fill:none;stroke:#000000;stroke-linecap:square;stroke-linejoin:miter;stroke-width:0.8;"/>
   </g>
   <g id="patch_98">
    <path d="M 52.774302 325.921635 
L 134.573948 325.921635 
" style="fill:none;stroke:#000000;stroke-linecap:square;stroke-linejoin:miter;stroke-width:0.8;"/>
   </g>
   <g id="patch_99">
    <path d="M 52.774302 18.118365 
L 134.573948 18.118365 
" style="fill:none;stroke:#000000;stroke-linecap:square;stroke-linejoin:miter;stroke-width:0.8;"/>
   </g>
   <g id="text_12">
    <!-- Casos acumulados - RO - (data) -->
    <defs>
     <path d="M 64.40625 67.28125 
L 64.40625 56.890625 
Q 59.421875 61.53125 53.78125 63.8125 
Q 48.140625 66.109375 41.796875 66.109375 
Q 29.296875 66.109375 22.65625 58.46875 
Q 16.015625 50.828125 16.015625 36.375 
Q 16.015625 21.96875 22.65625 14.328125 
Q 29.296875 6.6875 41.796875 6.6875 
Q 48.140625 6.6875 53.78125 8.984375 
Q 59.421875 11.28125 64.40625 15.921875 
L 64.40625 5.609375 
Q 59.234375 2.09375 53.4375 0.328125 
Q 47.65625 -1.421875 41.21875 -1.421875 
Q 24.65625 -1.421875 15.125 8.703125 
Q 5.609375 18.84375 5.609375 36.375 
Q 5.609375 53.953125 15.125 64.078125 
Q 24.65625 74.21875 41.21875 74.21875 
Q 47.75 74.21875 53.53125 72.484375 
Q 59.328125 70.75 64.40625 67.28125 
z
" id="DejaVuSans-67"/>
     <path d="M 34.28125 27.484375 
Q 23.390625 27.484375 19.1875 25 
Q 14.984375 22.515625 14.984375 16.5 
Q 14.984375 11.71875 18.140625 8.90625 
Q 21.296875 6.109375 26.703125 6.109375 
Q 34.1875 6.109375 38.703125 11.40625 
Q 43.21875 16.703125 43.21875 25.484375 
L 43.21875 27.484375 
z
M 52.203125 31.203125 
L 52.203125 0 
L 43.21875 0 
L 43.21875 8.296875 
Q 40.140625 3.328125 35.546875 0.953125 
Q 30.953125 -1.421875 24.3125 -1.421875 
Q 15.921875 -1.421875 10.953125 3.296875 
Q 6 8.015625 6 15.921875 
Q 6 25.140625 12.171875 29.828125 
Q 18.359375 34.515625 30.609375 34.515625 
L 43.21875 34.515625 
L 43.21875 35.40625 
Q 43.21875 41.609375 39.140625 45 
Q 35.0625 48.390625 27.6875 48.390625 
Q 23 48.390625 18.546875 47.265625 
Q 14.109375 46.140625 10.015625 43.890625 
L 10.015625 52.203125 
Q 14.9375 54.109375 19.578125 55.046875 
Q 24.21875 56 28.609375 56 
Q 40.484375 56 46.34375 49.84375 
Q 52.203125 43.703125 52.203125 31.203125 
z
" id="DejaVuSans-97"/>
     <path d="M 44.28125 53.078125 
L 44.28125 44.578125 
Q 40.484375 46.53125 36.375 47.5 
Q 32.28125 48.484375 27.875 48.484375 
Q 21.1875 48.484375 17.84375 46.4375 
Q 14.5 44.390625 14.5 40.28125 
Q 14.5 37.15625 16.890625 35.375 
Q 19.28125 33.59375 26.515625 31.984375 
L 29.59375 31.296875 
Q 39.15625 29.25 43.1875 25.515625 
Q 47.21875 21.78125 47.21875 15.09375 
Q 47.21875 7.46875 41.1875 3.015625 
Q 35.15625 -1.421875 24.609375 -1.421875 
Q 20.21875 -1.421875 15.453125 -0.5625 
Q 10.6875 0.296875 5.421875 2 
L 5.421875 11.28125 
Q 10.40625 8.6875 15.234375 7.390625 
Q 20.0625 6.109375 24.8125 6.109375 
Q 31.15625 6.109375 34.5625 8.28125 
Q 37.984375 10.453125 37.984375 14.40625 
Q 37.984375 18.0625 35.515625 20.015625 
Q 33.0625 21.96875 24.703125 23.78125 
L 21.578125 24.515625 
Q 13.234375 26.265625 9.515625 29.90625 
Q 5.8125 33.546875 5.8125 39.890625 
Q 5.8125 47.609375 11.28125 51.796875 
Q 16.75 56 26.8125 56 
Q 31.78125 56 36.171875 55.265625 
Q 40.578125 54.546875 44.28125 53.078125 
z
" id="DejaVuSans-115"/>
     <path d="M 30.609375 48.390625 
Q 23.390625 48.390625 19.1875 42.75 
Q 14.984375 37.109375 14.984375 27.296875 
Q 14.984375 17.484375 19.15625 11.84375 
Q 23.34375 6.203125 30.609375 6.203125 
Q 37.796875 6.203125 41.984375 11.859375 
Q 46.1875 17.53125 46.1875 27.296875 
Q 46.1875 37.015625 41.984375 42.703125 
Q 37.796875 48.390625 30.609375 48.390625 
z
M 30.609375 56 
Q 42.328125 56 49.015625 48.375 
Q 55.71875 40.765625 55.71875 27.296875 
Q 55.71875 13.875 49.015625 6.21875 
Q 42.328125 -1.421875 30.609375 -1.421875 
Q 18.84375 -1.421875 12.171875 6.21875 
Q 5.515625 13.875 5.515625 27.296875 
Q 5.515625 40.765625 12.171875 48.375 
Q 18.84375 56 30.609375 56 
z
" id="DejaVuSans-111"/>
     <path id="DejaVuSans-32"/>
     <path d="M 48.78125 52.59375 
L 48.78125 44.1875 
Q 44.96875 46.296875 41.140625 47.34375 
Q 37.3125 48.390625 33.40625 48.390625 
Q 24.65625 48.390625 19.8125 42.84375 
Q 14.984375 37.3125 14.984375 27.296875 
Q 14.984375 17.28125 19.8125 11.734375 
Q 24.65625 6.203125 33.40625 6.203125 
Q 37.3125 6.203125 41.140625 7.25 
Q 44.96875 8.296875 48.78125 10.40625 
L 48.78125 2.09375 
Q 45.015625 0.34375 40.984375 -0.53125 
Q 36.96875 -1.421875 32.421875 -1.421875 
Q 20.0625 -1.421875 12.78125 6.34375 
Q 5.515625 14.109375 5.515625 27.296875 
Q 5.515625 40.671875 12.859375 48.328125 
Q 20.21875 56 33.015625 56 
Q 37.15625 56 41.109375 55.140625 
Q 45.0625 54.296875 48.78125 52.59375 
z
" id="DejaVuSans-99"/>
     <path d="M 8.5 21.578125 
L 8.5 54.6875 
L 17.484375 54.6875 
L 17.484375 21.921875 
Q 17.484375 14.15625 20.5 10.265625 
Q 23.53125 6.390625 29.59375 6.390625 
Q 36.859375 6.390625 41.078125 11.03125 
Q 45.3125 15.671875 45.3125 23.6875 
L 45.3125 54.6875 
L 54.296875 54.6875 
L 54.296875 0 
L 45.3125 0 
L 45.3125 8.40625 
Q 42.046875 3.421875 37.71875 1 
Q 33.40625 -1.421875 27.6875 -1.421875 
Q 18.265625 -1.421875 13.375 4.4375 
Q 8.5 10.296875 8.5 21.578125 
z
M 31.109375 56 
z
" id="DejaVuSans-117"/>
     <path d="M 52 44.1875 
Q 55.375 50.25 60.0625 53.125 
Q 64.75 56 71.09375 56 
Q 79.640625 56 84.28125 50.015625 
Q 88.921875 44.046875 88.921875 33.015625 
L 88.921875 0 
L 79.890625 0 
L 79.890625 32.71875 
Q 79.890625 40.578125 77.09375 44.375 
Q 74.3125 48.1875 68.609375 48.1875 
Q 61.625 48.1875 57.5625 43.546875 
Q 53.515625 38.921875 53.515625 30.90625 
L 53.515625 0 
L 44.484375 0 
L 44.484375 32.71875 
Q 44.484375 40.625 41.703125 44.40625 
Q 38.921875 48.1875 33.109375 48.1875 
Q 26.21875 48.1875 22.15625 43.53125 
Q 18.109375 38.875 18.109375 30.90625 
L 18.109375 0 
L 9.078125 0 
L 9.078125 54.6875 
L 18.109375 54.6875 
L 18.109375 46.1875 
Q 21.1875 51.21875 25.484375 53.609375 
Q 29.78125 56 35.6875 56 
Q 41.65625 56 45.828125 52.96875 
Q 50 49.953125 52 44.1875 
z
" id="DejaVuSans-109"/>
     <path d="M 9.421875 75.984375 
L 18.40625 75.984375 
L 18.40625 0 
L 9.421875 0 
z
" id="DejaVuSans-108"/>
     <path d="M 45.40625 46.390625 
L 45.40625 75.984375 
L 54.390625 75.984375 
L 54.390625 0 
L 45.40625 0 
L 45.40625 8.203125 
Q 42.578125 3.328125 38.25 0.953125 
Q 33.9375 -1.421875 27.875 -1.421875 
Q 17.96875 -1.421875 11.734375 6.484375 
Q 5.515625 14.40625 5.515625 27.296875 
Q 5.515625 40.1875 11.734375 48.09375 
Q 17.96875 56 27.875 56 
Q 33.9375 56 38.25 53.625 
Q 42.578125 51.265625 45.40625 46.390625 
z
M 14.796875 27.296875 
Q 14.796875 17.390625 18.875 11.75 
Q 22.953125 6.109375 30.078125 6.109375 
Q 37.203125 6.109375 41.296875 11.75 
Q 45.40625 17.390625 45.40625 27.296875 
Q 45.40625 37.203125 41.296875 42.84375 
Q 37.203125 48.484375 30.078125 48.484375 
Q 22.953125 48.484375 18.875 42.84375 
Q 14.796875 37.203125 14.796875 27.296875 
z
" id="DejaVuSans-100"/>
     <path d="M 4.890625 31.390625 
L 31.203125 31.390625 
L 31.203125 23.390625 
L 4.890625 23.390625 
z
" id="DejaVuSans-45"/>
     <path d="M 44.390625 34.1875 
Q 47.5625 33.109375 50.5625 29.59375 
Q 53.5625 26.078125 56.59375 19.921875 
L 66.609375 0 
L 56 0 
L 46.6875 18.703125 
Q 43.0625 26.03125 39.671875 28.421875 
Q 36.28125 30.8125 30.421875 30.8125 
L 19.671875 30.8125 
L 19.671875 0 
L 9.8125 0 
L 9.8125 72.90625 
L 32.078125 72.90625 
Q 44.578125 72.90625 50.734375 67.671875 
Q 56.890625 62.453125 56.890625 51.90625 
Q 56.890625 45.015625 53.6875 40.46875 
Q 50.484375 35.9375 44.390625 34.1875 
z
M 19.671875 64.796875 
L 19.671875 38.921875 
L 32.078125 38.921875 
Q 39.203125 38.921875 42.84375 42.21875 
Q 46.484375 45.515625 46.484375 51.90625 
Q 46.484375 58.296875 42.84375 61.546875 
Q 39.203125 64.796875 32.078125 64.796875 
z
" id="DejaVuSans-82"/>
     <path d="M 39.40625 66.21875 
Q 28.65625 66.21875 22.328125 58.203125 
Q 16.015625 50.203125 16.015625 36.375 
Q 16.015625 22.609375 22.328125 14.59375 
Q 28.65625 6.59375 39.40625 6.59375 
Q 50.140625 6.59375 56.421875 14.59375 
Q 62.703125 22.609375 62.703125 36.375 
Q 62.703125 50.203125 56.421875 58.203125 
Q 50.140625 66.21875 39.40625 66.21875 
z
M 39.40625 74.21875 
Q 54.734375 74.21875 63.90625 63.9375 
Q 73.09375 53.65625 73.09375 36.375 
Q 73.09375 19.140625 63.90625 8.859375 
Q 54.734375 -1.421875 39.40625 -1.421875 
Q 24.03125 -1.421875 14.8125 8.828125 
Q 5.609375 19.09375 5.609375 36.375 
Q 5.609375 53.65625 14.8125 63.9375 
Q 24.03125 74.21875 39.40625 74.21875 
z
" id="DejaVuSans-79"/>
     <path d="M 31 75.875 
Q 24.46875 64.65625 21.28125 53.65625 
Q 18.109375 42.671875 18.109375 31.390625 
Q 18.109375 20.125 21.3125 9.0625 
Q 24.515625 -2 31 -13.1875 
L 23.1875 -13.1875 
Q 15.875 -1.703125 12.234375 9.375 
Q 8.59375 20.453125 8.59375 31.390625 
Q 8.59375 42.28125 12.203125 53.3125 
Q 15.828125 64.359375 23.1875 75.875 
z
" id="DejaVuSans-40"/>
     <path d="M 18.3125 70.21875 
L 18.3125 54.6875 
L 36.8125 54.6875 
L 36.8125 47.703125 
L 18.3125 47.703125 
L 18.3125 18.015625 
Q 18.3125 11.328125 20.140625 9.421875 
Q 21.96875 7.515625 27.59375 7.515625 
L 36.8125 7.515625 
L 36.8125 0 
L 27.59375 0 
Q 17.1875 0 13.234375 3.875 
Q 9.28125 7.765625 9.28125 18.015625 
L 9.28125 47.703125 
L 2.6875 47.703125 
L 2.6875 54.6875 
L 9.28125 54.6875 
L 9.28125 70.21875 
z
" id="DejaVuSans-116"/>
     <path d="M 8.015625 75.875 
L 15.828125 75.875 
Q 23.140625 64.359375 26.78125 53.3125 
Q 30.421875 42.28125 30.421875 31.390625 
Q 30.421875 20.453125 26.78125 9.375 
Q 23.140625 -1.703125 15.828125 -13.1875 
L 8.015625 -13.1875 
Q 14.5 -2 17.703125 9.0625 
Q 20.90625 20.125 20.90625 31.390625 
Q 20.90625 42.671875 17.703125 53.65625 
Q 14.5 64.65625 8.015625 75.875 
z
" id="DejaVuSans-41"/>
    </defs>
    <g transform="translate(-1.44275 12.118365)scale(0.12 -0.12)">
     <use xlink:href="#DejaVuSans-67"/>
     <use x="69.824219" xlink:href="#DejaVuSans-97"/>
     <use x="131.103516" xlink:href="#DejaVuSans-115"/>
     <use x="183.203125" xlink:href="#DejaVuSans-111"/>
     <use x="244.384766" xlink:href="#DejaVuSans-115"/>
     <use x="296.484375" xlink:href="#DejaVuSans-32"/>
     <use x="328.271484" xlink:href="#DejaVuSans-97"/>
     <use x="389.550781" xlink:href="#DejaVuSans-99"/>
     <use x="444.53125" xlink:href="#DejaVuSans-117"/>
     <use x="507.910156" xlink:href="#DejaVuSans-109"/>
     <use x="605.322266" xlink:href="#DejaVuSans-117"/>
     <use x="668.701172" xlink:href="#DejaVuSans-108"/>
     <use x="696.484375" xlink:href="#DejaVuSans-97"/>
     <use x="757.763672" xlink:href="#DejaVuSans-100"/>
     <use x="821.240234" xlink:href="#DejaVuSans-111"/>
     <use x="882.421875" xlink:href="#DejaVuSans-115"/>
     <use x="934.521484" xlink:href="#DejaVuSans-32"/>
     <use x="966.308594" xlink:href="#DejaVuSans-45"/>
     <use x="1002.392578" xlink:href="#DejaVuSans-32"/>
     <use x="1034.179688" xlink:href="#DejaVuSans-82"/>
     <use x="1103.662109" xlink:href="#DejaVuSans-79"/>
     <use x="1182.373047" xlink:href="#DejaVuSans-32"/>
     <use x="1214.160156" xlink:href="#DejaVuSans-45"/>
     <use x="1250.244141" xlink:href="#DejaVuSans-32"/>
     <use x="1282.03125" xlink:href="#DejaVuSans-40"/>
     <use x="1321.044922" xlink:href="#DejaVuSans-100"/>
     <use x="1384.521484" xlink:href="#DejaVuSans-97"/>
     <use x="1445.800781" xlink:href="#DejaVuSans-116"/>
     <use x="1485.009766" xlink:href="#DejaVuSans-97"/>
     <use x="1546.289062" xlink:href="#DejaVuSans-41"/>
    </g>
   </g>
  </g>
  <g id="axes_2">
   <g id="patch_100">
    <path d="M 224.641427 325.921635 
L 306.441072 325.921635 
L 306.441072 18.118365 
L 224.641427 18.118365 
z
" style="fill:#ffffff;"/>
   </g>
   <g id="patch_101">
    <path clip-path="url(#pa5440f7806)" d="M 228.359593 325.921635 
L 229.000656 325.921635 
L 229.000656 325.921635 
L 228.359593 325.921635 
z
" style="fill:#1f77b4;"/>
   </g>
   <g id="patch_102">
    <path clip-path="url(#pa5440f7806)" d="M 229.160922 325.921635 
L 229.801985 325.921635 
L 229.801985 325.222003 
L 229.160922 325.222003 
z
" style="fill:#1f77b4;"/>
   </g>
   <g id="patch_103">
    <path clip-path="url(#pa5440f7806)" d="M 229.96225 325.921635 
L 230.603314 325.921635 
L 230.603314 325.921635 
L 229.96225 325.921635 
z
" style="fill:#1f77b4;"/>
   </g>
   <g id="patch_104">
    <path clip-path="url(#pa5440f7806)" d="M 230.763579 325.921635 
L 231.404642 325.921635 
L 231.404642 325.921635 
L 230.763579 325.921635 
z
" style="fill:#1f77b4;"/>
   </g>
   <g id="patch_105">
    <path clip-path="url(#pa5440f7806)" d="M 231.564908 325.921635 
L 232.205971 325.921635 
L 232.205971 325.222003 
L 231.564908 325.222003 
z
" style="fill:#1f77b4;"/>
   </g>
   <g id="patch_106">
    <path clip-path="url(#pa5440f7806)" d="M 232.366237 325.921635 
L 233.0073 325.921635 
L 233.0073 325.921635 
L 232.366237 325.921635 
z
" style="fill:#1f77b4;"/>
   </g>
   <g id="patch_107">
    <path clip-path="url(#pa5440f7806)" d="M 233.167566 325.921635 
L 233.808629 325.921635 
L 233.808629 325.571819 
L 233.167566 325.571819 
z
" style="fill:#1f77b4;"/>
   </g>
   <g id="patch_108">
    <path clip-path="url(#pa5440f7806)" d="M 233.968895 325.921635 
L 234.609958 325.921635 
L 234.609958 325.921635 
L 233.968895 325.921635 
z
" style="fill:#1f77b4;"/>
   </g>
   <g id="patch_109">
    <path clip-path="url(#pa5440f7806)" d="M 234.770223 325.921635 
L 235.411286 325.921635 
L 235.411286 325.921635 
L 234.770223 325.921635 
z
" style="fill:#1f77b4;"/>
   </g>
   <g id="patch_110">
    <path clip-path="url(#pa5440f7806)" d="M 235.571552 325.921635 
L 236.212615 325.921635 
L 236.212615 325.921635 
L 235.571552 325.921635 
z
" style="fill:#1f77b4;"/>
   </g>
   <g id="patch_111">
    <path clip-path="url(#pa5440f7806)" d="M 236.372881 325.921635 
L 237.013944 325.921635 
L 237.013944 325.222003 
L 236.372881 325.222003 
z
" style="fill:#1f77b4;"/>
   </g>
   <g id="patch_112">
    <path clip-path="url(#pa5440f7806)" d="M 237.17421 325.921635 
L 237.815273 325.921635 
L 237.815273 325.571819 
L 237.17421 325.571819 
z
" style="fill:#1f77b4;"/>
   </g>
   <g id="patch_113">
    <path clip-path="url(#pa5440f7806)" d="M 237.975539 325.921635 
L 238.616602 325.921635 
L 238.616602 325.571819 
L 237.975539 325.571819 
z
" style="fill:#1f77b4;"/>
   </g>
   <g id="patch_114">
    <path clip-path="url(#pa5440f7806)" d="M 238.776867 325.921635 
L 239.41793 325.921635 
L 239.41793 325.921635 
L 238.776867 325.921635 
z
" style="fill:#1f77b4;"/>
   </g>
   <g id="patch_115">
    <path clip-path="url(#pa5440f7806)" d="M 239.578196 325.921635 
L 240.219259 325.921635 
L 240.219259 325.571819 
L 239.578196 325.571819 
z
" style="fill:#1f77b4;"/>
   </g>
   <g id="patch_116">
    <path clip-path="url(#pa5440f7806)" d="M 240.379525 325.921635 
L 241.020588 325.921635 
L 241.020588 325.571819 
L 240.379525 325.571819 
z
" style="fill:#1f77b4;"/>
   </g>
   <g id="patch_117">
    <path clip-path="url(#pa5440f7806)" d="M 241.180854 325.921635 
L 241.821917 325.921635 
L 241.821917 325.222003 
L 241.180854 325.222003 
z
" style="fill:#1f77b4;"/>
   </g>
   <g id="patch_118">
    <path clip-path="url(#pa5440f7806)" d="M 241.982183 325.921635 
L 242.623246 325.921635 
L 242.623246 324.52237 
L 241.982183 324.52237 
z
" style="fill:#1f77b4;"/>
   </g>
   <g id="patch_119">
    <path clip-path="url(#pa5440f7806)" d="M 242.783512 325.921635 
L 243.424575 325.921635 
L 243.424575 325.921635 
L 242.783512 325.921635 
z
" style="fill:#1f77b4;"/>
   </g>
   <g id="patch_120">
    <path clip-path="url(#pa5440f7806)" d="M 243.58484 325.921635 
L 244.225903 325.921635 
L 244.225903 322.423473 
L 243.58484 322.423473 
z
" style="fill:#1f77b4;"/>
   </g>
   <g id="patch_121">
    <path clip-path="url(#pa5440f7806)" d="M 244.386169 325.921635 
L 245.027232 325.921635 
L 245.027232 324.52237 
L 244.386169 324.52237 
z
" style="fill:#1f77b4;"/>
   </g>
   <g id="patch_122">
    <path clip-path="url(#pa5440f7806)" d="M 245.187498 325.921635 
L 245.828561 325.921635 
L 245.828561 325.571819 
L 245.187498 325.571819 
z
" style="fill:#1f77b4;"/>
   </g>
   <g id="patch_123">
    <path clip-path="url(#pa5440f7806)" d="M 245.988827 325.921635 
L 246.62989 325.921635 
L 246.62989 325.222003 
L 245.988827 325.222003 
z
" style="fill:#1f77b4;"/>
   </g>
   <g id="patch_124">
    <path clip-path="url(#pa5440f7806)" d="M 246.790156 325.921635 
L 247.431219 325.921635 
L 247.431219 323.472922 
L 246.790156 323.472922 
z
" style="fill:#1f77b4;"/>
   </g>
   <g id="patch_125">
    <path clip-path="url(#pa5440f7806)" d="M 247.591484 325.921635 
L 248.232547 325.921635 
L 248.232547 318.225679 
L 247.591484 318.225679 
z
" style="fill:#1f77b4;"/>
   </g>
   <g id="patch_126">
    <path clip-path="url(#pa5440f7806)" d="M 248.392813 325.921635 
L 249.033876 325.921635 
L 249.033876 324.172554 
L 248.392813 324.172554 
z
" style="fill:#1f77b4;"/>
   </g>
   <g id="patch_127">
    <path clip-path="url(#pa5440f7806)" d="M 249.194142 325.921635 
L 249.835205 325.921635 
L 249.835205 323.472922 
L 249.194142 323.472922 
z
" style="fill:#1f77b4;"/>
   </g>
   <g id="patch_128">
    <path clip-path="url(#pa5440f7806)" d="M 249.995471 325.921635 
L 250.636534 325.921635 
L 250.636534 320.324576 
L 249.995471 320.324576 
z
" style="fill:#1f77b4;"/>
   </g>
   <g id="patch_129">
    <path clip-path="url(#pa5440f7806)" d="M 250.7968 325.921635 
L 251.437863 325.921635 
L 251.437863 319.624943 
L 250.7968 319.624943 
z
" style="fill:#1f77b4;"/>
   </g>
   <g id="patch_130">
    <path clip-path="url(#pa5440f7806)" d="M 251.598128 325.921635 
L 252.239192 325.921635 
L 252.239192 319.624943 
L 251.598128 319.624943 
z
" style="fill:#1f77b4;"/>
   </g>
   <g id="patch_131">
    <path clip-path="url(#pa5440f7806)" d="M 252.399457 325.921635 
L 253.04052 325.921635 
L 253.04052 314.727517 
L 252.399457 314.727517 
z
" style="fill:#1f77b4;"/>
   </g>
   <g id="patch_132">
    <path clip-path="url(#pa5440f7806)" d="M 253.200786 325.921635 
L 253.841849 325.921635 
L 253.841849 312.278803 
L 253.200786 312.278803 
z
" style="fill:#1f77b4;"/>
   </g>
   <g id="patch_133">
    <path clip-path="url(#pa5440f7806)" d="M 254.002115 325.921635 
L 254.643178 325.921635 
L 254.643178 317.526046 
L 254.002115 317.526046 
z
" style="fill:#1f77b4;"/>
   </g>
   <g id="patch_134">
    <path clip-path="url(#pa5440f7806)" d="M 254.803444 325.921635 
L 255.444507 325.921635 
L 255.444507 316.476598 
L 254.803444 316.476598 
z
" style="fill:#1f77b4;"/>
   </g>
   <g id="patch_135">
    <path clip-path="url(#pa5440f7806)" d="M 255.604773 325.921635 
L 256.245836 325.921635 
L 256.245836 311.928987 
L 255.604773 311.928987 
z
" style="fill:#1f77b4;"/>
   </g>
   <g id="patch_136">
    <path clip-path="url(#pa5440f7806)" d="M 256.406101 325.921635 
L 257.047164 325.921635 
L 257.047164 312.62862 
L 256.406101 312.62862 
z
" style="fill:#1f77b4;"/>
   </g>
   <g id="patch_137">
    <path clip-path="url(#pa5440f7806)" d="M 257.20743 325.921635 
L 257.848493 325.921635 
L 257.848493 313.328252 
L 257.20743 313.328252 
z
" style="fill:#1f77b4;"/>
   </g>
   <g id="patch_138">
    <path clip-path="url(#pa5440f7806)" d="M 258.008759 325.921635 
L 258.649822 325.921635 
L 258.649822 315.776965 
L 258.008759 315.776965 
z
" style="fill:#1f77b4;"/>
   </g>
   <g id="patch_139">
    <path clip-path="url(#pa5440f7806)" d="M 258.810088 325.921635 
L 259.451151 325.921635 
L 259.451151 318.925311 
L 258.810088 318.925311 
z
" style="fill:#1f77b4;"/>
   </g>
   <g id="patch_140">
    <path clip-path="url(#pa5440f7806)" d="M 259.611417 325.921635 
L 260.25248 325.921635 
L 260.25248 318.925311 
L 259.611417 318.925311 
z
" style="fill:#1f77b4;"/>
   </g>
   <g id="patch_141">
    <path clip-path="url(#pa5440f7806)" d="M 260.412745 325.921635 
L 261.053808 325.921635 
L 261.053808 301.784318 
L 260.412745 301.784318 
z
" style="fill:#1f77b4;"/>
   </g>
   <g id="patch_142">
    <path clip-path="url(#pa5440f7806)" d="M 261.214074 325.921635 
L 261.855137 325.921635 
L 261.855137 296.886891 
L 261.214074 296.886891 
z
" style="fill:#1f77b4;"/>
   </g>
   <g id="patch_143">
    <path clip-path="url(#pa5440f7806)" d="M 262.015403 325.921635 
L 262.656466 325.921635 
L 262.656466 302.134134 
L 262.015403 302.134134 
z
" style="fill:#1f77b4;"/>
   </g>
   <g id="patch_144">
    <path clip-path="url(#pa5440f7806)" d="M 262.816732 325.921635 
L 263.457795 325.921635 
L 263.457795 307.731193 
L 262.816732 307.731193 
z
" style="fill:#1f77b4;"/>
   </g>
   <g id="patch_145">
    <path clip-path="url(#pa5440f7806)" d="M 263.618061 325.921635 
L 264.259124 325.921635 
L 264.259124 308.081009 
L 263.618061 308.081009 
z
" style="fill:#1f77b4;"/>
   </g>
   <g id="patch_146">
    <path clip-path="url(#pa5440f7806)" d="M 264.419389 325.921635 
L 265.060453 325.921635 
L 265.060453 289.190935 
L 264.419389 289.190935 
z
" style="fill:#1f77b4;"/>
   </g>
   <g id="patch_147">
    <path clip-path="url(#pa5440f7806)" d="M 265.220718 325.921635 
L 265.861781 325.921635 
L 265.861781 297.236707 
L 265.220718 297.236707 
z
" style="fill:#1f77b4;"/>
   </g>
   <g id="patch_148">
    <path clip-path="url(#pa5440f7806)" d="M 266.022047 325.921635 
L 266.66311 325.921635 
L 266.66311 271.700125 
L 266.022047 271.700125 
z
" style="fill:#1f77b4;"/>
   </g>
   <g id="patch_149">
    <path clip-path="url(#pa5440f7806)" d="M 266.823376 325.921635 
L 267.464439 325.921635 
L 267.464439 282.544427 
L 266.823376 282.544427 
z
" style="fill:#1f77b4;"/>
   </g>
   <g id="patch_150">
    <path clip-path="url(#pa5440f7806)" d="M 267.624705 325.921635 
L 268.265768 325.921635 
L 268.265768 311.579171 
L 267.624705 311.579171 
z
" style="fill:#1f77b4;"/>
   </g>
   <g id="patch_151">
    <path clip-path="url(#pa5440f7806)" d="M 268.426034 325.921635 
L 269.067097 325.921635 
L 269.067097 312.278803 
L 268.426034 312.278803 
z
" style="fill:#1f77b4;"/>
   </g>
   <g id="patch_152">
    <path clip-path="url(#pa5440f7806)" d="M 269.227362 325.921635 
L 269.868425 325.921635 
L 269.868425 293.038913 
L 269.227362 293.038913 
z
" style="fill:#1f77b4;"/>
   </g>
   <g id="patch_153">
    <path clip-path="url(#pa5440f7806)" d="M 270.028691 325.921635 
L 270.669754 325.921635 
L 270.669754 303.533399 
L 270.028691 303.533399 
z
" style="fill:#1f77b4;"/>
   </g>
   <g id="patch_154">
    <path clip-path="url(#pa5440f7806)" d="M 270.83002 325.921635 
L 271.471083 325.921635 
L 271.471083 272.749573 
L 270.83002 272.749573 
z
" style="fill:#1f77b4;"/>
   </g>
   <g id="patch_155">
    <path clip-path="url(#pa5440f7806)" d="M 271.631349 325.921635 
L 272.272412 325.921635 
L 272.272412 300.035237 
L 271.631349 300.035237 
z
" style="fill:#1f77b4;"/>
   </g>
   <g id="patch_156">
    <path clip-path="url(#pa5440f7806)" d="M 272.432678 325.921635 
L 273.073741 325.921635 
L 273.073741 289.890567 
L 272.432678 289.890567 
z
" style="fill:#1f77b4;"/>
   </g>
   <g id="patch_157">
    <path clip-path="url(#pa5440f7806)" d="M 273.234006 325.921635 
L 273.875069 325.921635 
L 273.875069 280.44553 
L 273.234006 280.44553 
z
" style="fill:#1f77b4;"/>
   </g>
   <g id="patch_158">
    <path clip-path="url(#pa5440f7806)" d="M 274.035335 325.921635 
L 274.676398 325.921635 
L 274.676398 310.529722 
L 274.035335 310.529722 
z
" style="fill:#1f77b4;"/>
   </g>
   <g id="patch_159">
    <path clip-path="url(#pa5440f7806)" d="M 274.836664 325.921635 
L 275.477727 325.921635 
L 275.477727 297.936339 
L 274.836664 297.936339 
z
" style="fill:#1f77b4;"/>
   </g>
   <g id="patch_160">
    <path clip-path="url(#pa5440f7806)" d="M 275.637993 325.921635 
L 276.279056 325.921635 
L 276.279056 251.060969 
L 275.637993 251.060969 
z
" style="fill:#1f77b4;"/>
   </g>
   <g id="patch_161">
    <path clip-path="url(#pa5440f7806)" d="M 276.439322 325.921635 
L 277.080385 325.921635 
L 277.080385 241.266116 
L 276.439322 241.266116 
z
" style="fill:#1f77b4;"/>
   </g>
   <g id="patch_162">
    <path clip-path="url(#pa5440f7806)" d="M 277.24065 325.921635 
L 277.881714 325.921635 
L 277.881714 269.951044 
L 277.24065 269.951044 
z
" style="fill:#1f77b4;"/>
   </g>
   <g id="patch_163">
    <path clip-path="url(#pa5440f7806)" d="M 278.041979 325.921635 
L 278.683042 325.921635 
L 278.683042 285.692773 
L 278.041979 285.692773 
z
" style="fill:#1f77b4;"/>
   </g>
   <g id="patch_164">
    <path clip-path="url(#pa5440f7806)" d="M 278.843308 325.921635 
L 279.484371 325.921635 
L 279.484371 208.73321 
L 278.843308 208.73321 
z
" style="fill:#1f77b4;"/>
   </g>
   <g id="patch_165">
    <path clip-path="url(#pa5440f7806)" d="M 279.644637 325.921635 
L 280.2857 325.921635 
L 280.2857 293.738545 
L 279.644637 293.738545 
z
" style="fill:#1f77b4;"/>
   </g>
   <g id="patch_166">
    <path clip-path="url(#pa5440f7806)" d="M 280.445966 325.921635 
L 281.087029 325.921635 
L 281.087029 302.48395 
L 280.445966 302.48395 
z
" style="fill:#1f77b4;"/>
   </g>
   <g id="patch_167">
    <path clip-path="url(#pa5440f7806)" d="M 281.247295 325.921635 
L 281.888358 325.921635 
L 281.888358 247.212991 
L 281.247295 247.212991 
z
" style="fill:#1f77b4;"/>
   </g>
   <g id="patch_168">
    <path clip-path="url(#pa5440f7806)" d="M 282.048623 325.921635 
L 282.689686 325.921635 
L 282.689686 196.839459 
L 282.048623 196.839459 
z
" style="fill:#1f77b4;"/>
   </g>
   <g id="patch_169">
    <path clip-path="url(#pa5440f7806)" d="M 282.849952 325.921635 
L 283.491015 325.921635 
L 283.491015 189.493319 
L 282.849952 189.493319 
z
" style="fill:#1f77b4;"/>
   </g>
   <g id="patch_170">
    <path clip-path="url(#pa5440f7806)" d="M 283.651281 325.921635 
L 284.292344 325.921635 
L 284.292344 238.467586 
L 283.651281 238.467586 
z
" style="fill:#1f77b4;"/>
   </g>
   <g id="patch_171">
    <path clip-path="url(#pa5440f7806)" d="M 284.45261 325.921635 
L 285.093673 325.921635 
L 285.093673 241.615932 
L 284.45261 241.615932 
z
" style="fill:#1f77b4;"/>
   </g>
   <g id="patch_172">
    <path clip-path="url(#pa5440f7806)" d="M 285.253939 325.921635 
L 285.895002 325.921635 
L 285.895002 256.308212 
L 285.253939 256.308212 
z
" style="fill:#1f77b4;"/>
   </g>
   <g id="patch_173">
    <path clip-path="url(#pa5440f7806)" d="M 286.055267 325.921635 
L 286.69633 325.921635 
L 286.69633 245.46391 
L 286.055267 245.46391 
z
" style="fill:#1f77b4;"/>
   </g>
   <g id="patch_174">
    <path clip-path="url(#pa5440f7806)" d="M 286.856596 325.921635 
L 287.497659 325.921635 
L 287.497659 219.227696 
L 286.856596 219.227696 
z
" style="fill:#1f77b4;"/>
   </g>
   <g id="patch_175">
    <path clip-path="url(#pa5440f7806)" d="M 287.657925 325.921635 
L 288.298988 325.921635 
L 288.298988 243.365013 
L 287.657925 243.365013 
z
" style="fill:#1f77b4;"/>
   </g>
   <g id="patch_176">
    <path clip-path="url(#pa5440f7806)" d="M 288.459254 325.921635 
L 289.100317 325.921635 
L 289.100317 64.958754 
L 288.459254 64.958754 
z
" style="fill:#1f77b4;"/>
   </g>
   <g id="patch_177">
    <path clip-path="url(#pa5440f7806)" d="M 289.260583 325.921635 
L 289.901646 325.921635 
L 289.901646 184.945708 
L 289.260583 184.945708 
z
" style="fill:#1f77b4;"/>
   </g>
   <g id="patch_178">
    <path clip-path="url(#pa5440f7806)" d="M 290.061911 325.921635 
L 290.702975 325.921635 
L 290.702975 32.775664 
L 290.061911 32.775664 
z
" style="fill:#1f77b4;"/>
   </g>
   <g id="patch_179">
    <path clip-path="url(#pa5440f7806)" d="M 290.86324 325.921635 
L 291.504303 325.921635 
L 291.504303 182.496995 
L 290.86324 182.496995 
z
" style="fill:#1f77b4;"/>
   </g>
   <g id="patch_180">
    <path clip-path="url(#pa5440f7806)" d="M 291.664569 325.921635 
L 292.305632 325.921635 
L 292.305632 145.416478 
L 291.664569 145.416478 
z
" style="fill:#1f77b4;"/>
   </g>
   <g id="patch_181">
    <path clip-path="url(#pa5440f7806)" d="M 292.465898 325.921635 
L 293.106961 325.921635 
L 293.106961 118.130815 
L 292.465898 118.130815 
z
" style="fill:#1f77b4;"/>
   </g>
   <g id="patch_182">
    <path clip-path="url(#pa5440f7806)" d="M 293.267227 325.921635 
L 293.90829 325.921635 
L 293.90829 105.537432 
L 293.267227 105.537432 
z
" style="fill:#1f77b4;"/>
   </g>
   <g id="patch_183">
    <path clip-path="url(#pa5440f7806)" d="M 294.068556 325.921635 
L 294.709619 325.921635 
L 294.709619 82.099747 
L 294.068556 82.099747 
z
" style="fill:#1f77b4;"/>
   </g>
   <g id="patch_184">
    <path clip-path="url(#pa5440f7806)" d="M 294.869884 325.921635 
L 295.510947 325.921635 
L 295.510947 89.096071 
L 294.869884 89.096071 
z
" style="fill:#1f77b4;"/>
   </g>
   <g id="patch_185">
    <path clip-path="url(#pa5440f7806)" d="M 295.671213 325.921635 
L 296.312276 325.921635 
L 296.312276 155.910964 
L 295.671213 155.910964 
z
" style="fill:#1f77b4;"/>
   </g>
   <g id="patch_186">
    <path clip-path="url(#pa5440f7806)" d="M 296.472542 325.921635 
L 297.113605 325.921635 
L 297.113605 271.700125 
L 296.472542 271.700125 
z
" style="fill:#1f77b4;"/>
   </g>
   <g id="patch_187">
    <path clip-path="url(#pa5440f7806)" d="M 297.273871 325.921635 
L 297.914934 325.921635 
L 297.914934 215.729534 
L 297.273871 215.729534 
z
" style="fill:#1f77b4;"/>
   </g>
   <g id="patch_188">
    <path clip-path="url(#pa5440f7806)" d="M 298.0752 325.921635 
L 298.716263 325.921635 
L 298.716263 35.574193 
L 298.0752 35.574193 
z
" style="fill:#1f77b4;"/>
   </g>
   <g id="patch_189">
    <path clip-path="url(#pa5440f7806)" d="M 298.876528 325.921635 
L 299.517591 325.921635 
L 299.517591 131.074014 
L 298.876528 131.074014 
z
" style="fill:#1f77b4;"/>
   </g>
   <g id="patch_190">
    <path clip-path="url(#pa5440f7806)" d="M 299.677857 325.921635 
L 300.31892 325.921635 
L 300.31892 243.015197 
L 299.677857 243.015197 
z
" style="fill:#1f77b4;"/>
   </g>
   <g id="patch_191">
    <path clip-path="url(#pa5440f7806)" d="M 300.479186 325.921635 
L 301.120249 325.921635 
L 301.120249 133.872544 
L 300.479186 133.872544 
z
" style="fill:#1f77b4;"/>
   </g>
   <g id="patch_192">
    <path clip-path="url(#pa5440f7806)" d="M 301.280515 325.921635 
L 301.921578 325.921635 
L 301.921578 116.381734 
L 301.280515 116.381734 
z
" style="fill:#1f77b4;"/>
   </g>
   <g id="patch_193">
    <path clip-path="url(#pa5440f7806)" d="M 302.081844 325.921635 
L 302.722907 325.921635 
L 302.722907 245.813726 
L 302.081844 245.813726 
z
" style="fill:#1f77b4;"/>
   </g>
   <g id="matplotlib.axis_3">
    <g id="xtick_3">
     <g id="line2d_13">
      <g>
       <use style="stroke:#000000;stroke-width:0.8;" x="228.680124" xlink:href="#me74309d5c8" y="325.921635"/>
      </g>
     </g>
     <g id="text_13">
      <!-- 0 -->
      <g transform="translate(225.498874 340.520072)scale(0.1 -0.1)">
       <use xlink:href="#DejaVuSans-48"/>
      </g>
     </g>
    </g>
    <g id="xtick_4">
     <g id="line2d_14">
      <g>
       <use style="stroke:#000000;stroke-width:0.8;" x="268.746565" xlink:href="#me74309d5c8" y="325.921635"/>
      </g>
     </g>
     <g id="text_14">
      <!-- 50 -->
      <g transform="translate(262.384065 340.520072)scale(0.1 -0.1)">
       <use xlink:href="#DejaVuSans-53"/>
       <use x="63.623047" xlink:href="#DejaVuSans-48"/>
      </g>
     </g>
    </g>
   </g>
   <g id="matplotlib.axis_4">
    <g id="ytick_10">
     <g id="line2d_15">
      <g>
       <use style="stroke:#000000;stroke-width:0.8;" x="224.641427" xlink:href="#m63b1df5bc6" y="325.921635"/>
      </g>
     </g>
     <g id="text_15">
      <!-- 0 -->
      <g transform="translate(211.278927 329.720854)scale(0.1 -0.1)">
       <use xlink:href="#DejaVuSans-48"/>
      </g>
     </g>
    </g>
    <g id="ytick_11">
     <g id="line2d_16">
      <g>
       <use style="stroke:#000000;stroke-width:0.8;" x="224.641427" xlink:href="#m63b1df5bc6" y="290.940015"/>
      </g>
     </g>
     <g id="text_16">
      <!-- 100 -->
      <g transform="translate(198.553927 294.739234)scale(0.1 -0.1)">
       <use xlink:href="#DejaVuSans-49"/>
       <use x="63.623047" xlink:href="#DejaVuSans-48"/>
       <use x="127.246094" xlink:href="#DejaVuSans-48"/>
      </g>
     </g>
    </g>
    <g id="ytick_12">
     <g id="line2d_17">
      <g>
       <use style="stroke:#000000;stroke-width:0.8;" x="224.641427" xlink:href="#m63b1df5bc6" y="255.958396"/>
      </g>
     </g>
     <g id="text_17">
      <!-- 200 -->
      <g transform="translate(198.553927 259.757615)scale(0.1 -0.1)">
       <use xlink:href="#DejaVuSans-50"/>
       <use x="63.623047" xlink:href="#DejaVuSans-48"/>
       <use x="127.246094" xlink:href="#DejaVuSans-48"/>
      </g>
     </g>
    </g>
    <g id="ytick_13">
     <g id="line2d_18">
      <g>
       <use style="stroke:#000000;stroke-width:0.8;" x="224.641427" xlink:href="#m63b1df5bc6" y="220.976776"/>
      </g>
     </g>
     <g id="text_18">
      <!-- 300 -->
      <defs>
       <path d="M 40.578125 39.3125 
Q 47.65625 37.796875 51.625 33 
Q 55.609375 28.21875 55.609375 21.1875 
Q 55.609375 10.40625 48.1875 4.484375 
Q 40.765625 -1.421875 27.09375 -1.421875 
Q 22.515625 -1.421875 17.65625 -0.515625 
Q 12.796875 0.390625 7.625 2.203125 
L 7.625 11.71875 
Q 11.71875 9.328125 16.59375 8.109375 
Q 21.484375 6.890625 26.8125 6.890625 
Q 36.078125 6.890625 40.9375 10.546875 
Q 45.796875 14.203125 45.796875 21.1875 
Q 45.796875 27.640625 41.28125 31.265625 
Q 36.765625 34.90625 28.71875 34.90625 
L 20.21875 34.90625 
L 20.21875 43.015625 
L 29.109375 43.015625 
Q 36.375 43.015625 40.234375 45.921875 
Q 44.09375 48.828125 44.09375 54.296875 
Q 44.09375 59.90625 40.109375 62.90625 
Q 36.140625 65.921875 28.71875 65.921875 
Q 24.65625 65.921875 20.015625 65.03125 
Q 15.375 64.15625 9.8125 62.3125 
L 9.8125 71.09375 
Q 15.4375 72.65625 20.34375 73.4375 
Q 25.25 74.21875 29.59375 74.21875 
Q 40.828125 74.21875 47.359375 69.109375 
Q 53.90625 64.015625 53.90625 55.328125 
Q 53.90625 49.265625 50.4375 45.09375 
Q 46.96875 40.921875 40.578125 39.3125 
z
" id="DejaVuSans-51"/>
      </defs>
      <g transform="translate(198.553927 224.775995)scale(0.1 -0.1)">
       <use xlink:href="#DejaVuSans-51"/>
       <use x="63.623047" xlink:href="#DejaVuSans-48"/>
       <use x="127.246094" xlink:href="#DejaVuSans-48"/>
      </g>
     </g>
    </g>
    <g id="ytick_14">
     <g id="line2d_19">
      <g>
       <use style="stroke:#000000;stroke-width:0.8;" x="224.641427" xlink:href="#m63b1df5bc6" y="185.995157"/>
      </g>
     </g>
     <g id="text_19">
      <!-- 400 -->
      <g transform="translate(198.553927 189.794376)scale(0.1 -0.1)">
       <use xlink:href="#DejaVuSans-52"/>
       <use x="63.623047" xlink:href="#DejaVuSans-48"/>
       <use x="127.246094" xlink:href="#DejaVuSans-48"/>
      </g>
     </g>
    </g>
    <g id="ytick_15">
     <g id="line2d_20">
      <g>
       <use style="stroke:#000000;stroke-width:0.8;" x="224.641427" xlink:href="#m63b1df5bc6" y="151.013537"/>
      </g>
     </g>
     <g id="text_20">
      <!-- 500 -->
      <g transform="translate(198.553927 154.812756)scale(0.1 -0.1)">
       <use xlink:href="#DejaVuSans-53"/>
       <use x="63.623047" xlink:href="#DejaVuSans-48"/>
       <use x="127.246094" xlink:href="#DejaVuSans-48"/>
      </g>
     </g>
    </g>
    <g id="ytick_16">
     <g id="line2d_21">
      <g>
       <use style="stroke:#000000;stroke-width:0.8;" x="224.641427" xlink:href="#m63b1df5bc6" y="116.031918"/>
      </g>
     </g>
     <g id="text_21">
      <!-- 600 -->
      <g transform="translate(198.553927 119.831137)scale(0.1 -0.1)">
       <use xlink:href="#DejaVuSans-54"/>
       <use x="63.623047" xlink:href="#DejaVuSans-48"/>
       <use x="127.246094" xlink:href="#DejaVuSans-48"/>
      </g>
     </g>
    </g>
    <g id="ytick_17">
     <g id="line2d_22">
      <g>
       <use style="stroke:#000000;stroke-width:0.8;" x="224.641427" xlink:href="#m63b1df5bc6" y="81.050298"/>
      </g>
     </g>
     <g id="text_22">
      <!-- 700 -->
      <defs>
       <path d="M 8.203125 72.90625 
L 55.078125 72.90625 
L 55.078125 68.703125 
L 28.609375 0 
L 18.3125 0 
L 43.21875 64.59375 
L 8.203125 64.59375 
z
" id="DejaVuSans-55"/>
      </defs>
      <g transform="translate(198.553927 84.849517)scale(0.1 -0.1)">
       <use xlink:href="#DejaVuSans-55"/>
       <use x="63.623047" xlink:href="#DejaVuSans-48"/>
       <use x="127.246094" xlink:href="#DejaVuSans-48"/>
      </g>
     </g>
    </g>
    <g id="ytick_18">
     <g id="line2d_23">
      <g>
       <use style="stroke:#000000;stroke-width:0.8;" x="224.641427" xlink:href="#m63b1df5bc6" y="46.068679"/>
      </g>
     </g>
     <g id="text_23">
      <!-- 800 -->
      <g transform="translate(198.553927 49.867898)scale(0.1 -0.1)">
       <use xlink:href="#DejaVuSans-56"/>
       <use x="63.623047" xlink:href="#DejaVuSans-48"/>
       <use x="127.246094" xlink:href="#DejaVuSans-48"/>
      </g>
     </g>
    </g>
   </g>
   <g id="line2d_24">
    <path clip-path="url(#pa5440f7806)" d="M 228.680124 325.813383 
L 229.481453 325.783661 
L 230.282782 325.753502 
L 231.084111 325.73631 
L 231.88544 325.722177 
L 232.686768 325.710959 
L 233.488097 325.701634 
L 234.289426 325.689978 
L 235.090755 325.672349 
L 235.892084 325.645541 
L 236.693413 325.607514 
L 237.494741 325.556812 
L 238.29607 325.489355 
L 239.097399 325.400626 
L 239.898728 325.290043 
L 240.700057 325.157459 
L 241.501385 324.999816 
L 242.302714 324.811431 
L 243.104043 324.584291 
L 243.905372 324.31519 
L 244.706701 324.000633 
L 245.508029 323.629108 
L 246.309358 323.18896 
L 247.110687 322.673196 
L 247.912016 322.078902 
L 248.713345 321.412634 
L 249.514674 320.683571 
L 250.316002 319.907448 
L 251.117331 319.105246 
L 251.91866 318.297507 
L 252.719989 317.501715 
L 253.521318 316.734043 
L 254.322646 315.995946 
L 255.123975 315.263387 
L 255.925304 314.493966 
L 256.726633 313.641936 
L 257.527962 312.665626 
L 258.32929 311.534151 
L 259.130619 310.219973 
L 259.931948 308.70386 
L 260.733277 307.020488 
L 261.534606 305.225949 
L 262.335935 303.410285 
L 263.137263 301.669218 
L 263.938592 300.063502 
L 264.739921 298.643111 
L 265.54125 297.468801 
L 266.342579 296.521631 
L 267.143907 295.772462 
L 267.945236 295.11275 
L 268.746565 294.411369 
L 269.547894 293.562399 
L 270.349223 292.463122 
L 271.150551 290.991009 
L 271.95188 289.117795 
L 272.753209 286.814486 
L 273.554538 284.104103 
L 274.355867 281.010393 
L 275.157196 277.617569 
L 275.958524 274.011155 
L 276.759853 270.259628 
L 277.561182 266.35308 
L 278.362511 262.327353 
L 279.16384 258.217559 
L 279.965168 254.087222 
L 280.766497 249.795162 
L 281.567826 245.195975 
L 282.369155 240.177475 
L 283.170484 234.637383 
L 283.971813 228.315486 
L 284.773141 221.026313 
L 285.57447 212.554088 
L 286.375799 203.066216 
L 287.177128 192.819705 
L 287.978457 182.152715 
L 288.779785 171.461977 
L 289.581114 161.403705 
L 290.382443 152.557624 
L 291.183772 145.594665 
L 291.985101 140.740801 
L 292.786429 138.023133 
L 293.587758 137.245553 
L 294.389087 138.234101 
L 295.190416 140.639105 
L 295.991745 143.901677 
L 296.793074 147.343163 
L 297.594402 150.622926 
L 298.395731 153.518635 
L 299.19706 155.986872 
L 299.998389 157.920113 
L 300.799718 159.0258 
L 301.601046 159.747724 
L 302.402375 160.261157 
" style="fill:none;stroke:#ff0000;stroke-linecap:square;stroke-width:1.5;"/>
   </g>
   <g id="patch_194">
    <path d="M 224.641427 325.921635 
L 224.641427 18.118365 
" style="fill:none;stroke:#000000;stroke-linecap:square;stroke-linejoin:miter;stroke-width:0.8;"/>
   </g>
   <g id="patch_195">
    <path d="M 306.441072 325.921635 
L 306.441072 18.118365 
" style="fill:none;stroke:#000000;stroke-linecap:square;stroke-linejoin:miter;stroke-width:0.8;"/>
   </g>
   <g id="patch_196">
    <path d="M 224.641427 325.921635 
L 306.441072 325.921635 
" style="fill:none;stroke:#000000;stroke-linecap:square;stroke-linejoin:miter;stroke-width:0.8;"/>
   </g>
   <g id="patch_197">
    <path d="M 224.641427 18.118365 
L 306.441072 18.118365 
" style="fill:none;stroke:#000000;stroke-linecap:square;stroke-linejoin:miter;stroke-width:0.8;"/>
   </g>
   <g id="text_24">
    <!-- Casos novos - RO - (data) -->
    <defs>
     <path d="M 54.890625 33.015625 
L 54.890625 0 
L 45.90625 0 
L 45.90625 32.71875 
Q 45.90625 40.484375 42.875 44.328125 
Q 39.84375 48.1875 33.796875 48.1875 
Q 26.515625 48.1875 22.3125 43.546875 
Q 18.109375 38.921875 18.109375 30.90625 
L 18.109375 0 
L 9.078125 0 
L 9.078125 54.6875 
L 18.109375 54.6875 
L 18.109375 46.1875 
Q 21.34375 51.125 25.703125 53.5625 
Q 30.078125 56 35.796875 56 
Q 45.21875 56 50.046875 50.171875 
Q 54.890625 44.34375 54.890625 33.015625 
z
" id="DejaVuSans-110"/>
     <path d="M 2.984375 54.6875 
L 12.5 54.6875 
L 29.59375 8.796875 
L 46.6875 54.6875 
L 56.203125 54.6875 
L 35.6875 0 
L 23.484375 0 
z
" id="DejaVuSans-118"/>
    </defs>
    <g transform="translate(188.9775 12.118365)scale(0.12 -0.12)">
     <use xlink:href="#DejaVuSans-67"/>
     <use x="69.824219" xlink:href="#DejaVuSans-97"/>
     <use x="131.103516" xlink:href="#DejaVuSans-115"/>
     <use x="183.203125" xlink:href="#DejaVuSans-111"/>
     <use x="244.384766" xlink:href="#DejaVuSans-115"/>
     <use x="296.484375" xlink:href="#DejaVuSans-32"/>
     <use x="328.271484" xlink:href="#DejaVuSans-110"/>
     <use x="391.650391" xlink:href="#DejaVuSans-111"/>
     <use x="452.832031" xlink:href="#DejaVuSans-118"/>
     <use x="512.011719" xlink:href="#DejaVuSans-111"/>
     <use x="573.193359" xlink:href="#DejaVuSans-115"/>
     <use x="625.292969" xlink:href="#DejaVuSans-32"/>
     <use x="657.080078" xlink:href="#DejaVuSans-45"/>
     <use x="693.164062" xlink:href="#DejaVuSans-32"/>
     <use x="724.951172" xlink:href="#DejaVuSans-82"/>
     <use x="794.433594" xlink:href="#DejaVuSans-79"/>
     <use x="873.144531" xlink:href="#DejaVuSans-32"/>
     <use x="904.931641" xlink:href="#DejaVuSans-45"/>
     <use x="941.015625" xlink:href="#DejaVuSans-32"/>
     <use x="972.802734" xlink:href="#DejaVuSans-40"/>
     <use x="1011.816406" xlink:href="#DejaVuSans-100"/>
     <use x="1075.292969" xlink:href="#DejaVuSans-97"/>
     <use x="1136.572266" xlink:href="#DejaVuSans-116"/>
     <use x="1175.78125" xlink:href="#DejaVuSans-97"/>
     <use x="1237.060547" xlink:href="#DejaVuSans-41"/>
    </g>
   </g>
  </g>
  <g id="axes_3">
   <g id="patch_198">
    <path d="M 376.000115 325.921635 
L 457.79976 325.921635 
L 457.79976 18.118365 
L 376.000115 18.118365 
z
" style="fill:#ffffff;"/>
   </g>
   <g id="matplotlib.axis_5">
    <g id="xtick_5">
     <g id="line2d_25">
      <g>
       <use style="stroke:#000000;stroke-width:0.8;" x="379.71828" xlink:href="#me74309d5c8" y="325.921635"/>
      </g>
     </g>
     <g id="text_25">
      <!-- 0 -->
      <g transform="translate(376.53703 340.520072)scale(0.1 -0.1)">
       <use xlink:href="#DejaVuSans-48"/>
      </g>
     </g>
    </g>
    <g id="xtick_6">
     <g id="line2d_26">
      <g>
       <use style="stroke:#000000;stroke-width:0.8;" x="420.133125" xlink:href="#me74309d5c8" y="325.921635"/>
      </g>
     </g>
     <g id="text_26">
      <!-- 50 -->
      <g transform="translate(413.770625 340.520072)scale(0.1 -0.1)">
       <use xlink:href="#DejaVuSans-53"/>
       <use x="63.623047" xlink:href="#DejaVuSans-48"/>
      </g>
     </g>
    </g>
   </g>
   <g id="matplotlib.axis_6">
    <g id="ytick_19">
     <g id="line2d_27">
      <g>
       <use style="stroke:#000000;stroke-width:0.8;" x="376.000115" xlink:href="#m63b1df5bc6" y="311.22231"/>
      </g>
     </g>
     <g id="text_27">
      <!-- 1.00 -->
      <defs>
       <path d="M 10.6875 12.40625 
L 21 12.40625 
L 21 0 
L 10.6875 0 
z
" id="DejaVuSans-46"/>
      </defs>
      <g transform="translate(346.73449 315.021528)scale(0.1 -0.1)">
       <use xlink:href="#DejaVuSans-49"/>
       <use x="63.623047" xlink:href="#DejaVuSans-46"/>
       <use x="95.410156" xlink:href="#DejaVuSans-48"/>
       <use x="159.033203" xlink:href="#DejaVuSans-48"/>
      </g>
     </g>
    </g>
    <g id="ytick_20">
     <g id="line2d_28">
      <g>
       <use style="stroke:#000000;stroke-width:0.8;" x="376.000115" xlink:href="#m63b1df5bc6" y="274.192157"/>
      </g>
     </g>
     <g id="text_28">
      <!-- 1.25 -->
      <g transform="translate(346.73449 277.991376)scale(0.1 -0.1)">
       <use xlink:href="#DejaVuSans-49"/>
       <use x="63.623047" xlink:href="#DejaVuSans-46"/>
       <use x="95.410156" xlink:href="#DejaVuSans-50"/>
       <use x="159.033203" xlink:href="#DejaVuSans-53"/>
      </g>
     </g>
    </g>
    <g id="ytick_21">
     <g id="line2d_29">
      <g>
       <use style="stroke:#000000;stroke-width:0.8;" x="376.000115" xlink:href="#m63b1df5bc6" y="237.162005"/>
      </g>
     </g>
     <g id="text_29">
      <!-- 1.50 -->
      <g transform="translate(346.73449 240.961224)scale(0.1 -0.1)">
       <use xlink:href="#DejaVuSans-49"/>
       <use x="63.623047" xlink:href="#DejaVuSans-46"/>
       <use x="95.410156" xlink:href="#DejaVuSans-53"/>
       <use x="159.033203" xlink:href="#DejaVuSans-48"/>
      </g>
     </g>
    </g>
    <g id="ytick_22">
     <g id="line2d_30">
      <g>
       <use style="stroke:#000000;stroke-width:0.8;" x="376.000115" xlink:href="#m63b1df5bc6" y="200.131853"/>
      </g>
     </g>
     <g id="text_30">
      <!-- 1.75 -->
      <g transform="translate(346.73449 203.931072)scale(0.1 -0.1)">
       <use xlink:href="#DejaVuSans-49"/>
       <use x="63.623047" xlink:href="#DejaVuSans-46"/>
       <use x="95.410156" xlink:href="#DejaVuSans-55"/>
       <use x="159.033203" xlink:href="#DejaVuSans-53"/>
      </g>
     </g>
    </g>
    <g id="ytick_23">
     <g id="line2d_31">
      <g>
       <use style="stroke:#000000;stroke-width:0.8;" x="376.000115" xlink:href="#m63b1df5bc6" y="163.101701"/>
      </g>
     </g>
     <g id="text_31">
      <!-- 2.00 -->
      <g transform="translate(346.73449 166.90092)scale(0.1 -0.1)">
       <use xlink:href="#DejaVuSans-50"/>
       <use x="63.623047" xlink:href="#DejaVuSans-46"/>
       <use x="95.410156" xlink:href="#DejaVuSans-48"/>
       <use x="159.033203" xlink:href="#DejaVuSans-48"/>
      </g>
     </g>
    </g>
    <g id="ytick_24">
     <g id="line2d_32">
      <g>
       <use style="stroke:#000000;stroke-width:0.8;" x="376.000115" xlink:href="#m63b1df5bc6" y="126.071549"/>
      </g>
     </g>
     <g id="text_32">
      <!-- 2.25 -->
      <g transform="translate(346.73449 129.870767)scale(0.1 -0.1)">
       <use xlink:href="#DejaVuSans-50"/>
       <use x="63.623047" xlink:href="#DejaVuSans-46"/>
       <use x="95.410156" xlink:href="#DejaVuSans-50"/>
       <use x="159.033203" xlink:href="#DejaVuSans-53"/>
      </g>
     </g>
    </g>
    <g id="ytick_25">
     <g id="line2d_33">
      <g>
       <use style="stroke:#000000;stroke-width:0.8;" x="376.000115" xlink:href="#m63b1df5bc6" y="89.041396"/>
      </g>
     </g>
     <g id="text_33">
      <!-- 2.50 -->
      <g transform="translate(346.73449 92.840615)scale(0.1 -0.1)">
       <use xlink:href="#DejaVuSans-50"/>
       <use x="63.623047" xlink:href="#DejaVuSans-46"/>
       <use x="95.410156" xlink:href="#DejaVuSans-53"/>
       <use x="159.033203" xlink:href="#DejaVuSans-48"/>
      </g>
     </g>
    </g>
    <g id="ytick_26">
     <g id="line2d_34">
      <g>
       <use style="stroke:#000000;stroke-width:0.8;" x="376.000115" xlink:href="#m63b1df5bc6" y="52.011244"/>
      </g>
     </g>
     <g id="text_34">
      <!-- 2.75 -->
      <g transform="translate(346.73449 55.810463)scale(0.1 -0.1)">
       <use xlink:href="#DejaVuSans-50"/>
       <use x="63.623047" xlink:href="#DejaVuSans-46"/>
       <use x="95.410156" xlink:href="#DejaVuSans-55"/>
       <use x="159.033203" xlink:href="#DejaVuSans-53"/>
      </g>
     </g>
    </g>
   </g>
   <g id="line2d_35">
    <path clip-path="url(#p6636b081ed)" d="M 379.71828 32.109423 
L 380.526577 83.292653 
L 381.334874 121.422852 
L 382.143171 213.058588 
L 382.951468 236.242119 
L 383.759765 254.867411 
L 384.568062 266.363494 
L 385.376359 257.970902 
L 386.184656 236.378945 
L 386.992952 208.46447 
L 387.801249 183.108056 
L 388.609546 164.140917 
L 389.417843 146.068897 
L 390.22614 130.978428 
L 391.034437 125.903996 
L 391.842734 127.57072 
L 392.651031 130.184778 
L 393.459328 131.570911 
L 394.267624 131.379013 
L 395.075921 133.818663 
L 395.884218 137.773376 
L 396.692515 139.521778 
L 397.500812 140.525431 
L 398.309109 142.90336 
L 399.117406 147.204767 
L 399.925703 154.435356 
L 400.734 163.450116 
L 401.542296 174.113937 
L 402.350593 186.075647 
L 403.15889 198.443252 
L 403.967187 210.485505 
L 404.775484 222.029079 
L 405.583781 231.704179 
L 406.392078 237.59799 
L 407.200375 238.997055 
L 408.008672 236.713152 
L 408.816968 232.066734 
L 409.625265 226.628578 
L 410.433562 221.104329 
L 411.241859 216.296849 
L 412.050156 215.039944 
L 412.858453 217.349918 
L 413.66675 223.609319 
L 414.475047 232.878326 
L 415.283344 243.044862 
L 416.09164 253.58822 
L 416.899937 264.979875 
L 417.708234 274.525398 
L 418.516531 282.278074 
L 419.324828 285.816878 
L 420.133125 284.750745 
L 420.941422 280.301974 
L 421.749719 272.983131 
L 422.558016 262.747787 
L 423.366312 253.043944 
L 424.174609 244.102171 
L 424.982906 237.361906 
L 425.791203 232.572589 
L 426.5995 230.689634 
L 427.407797 231.079235 
L 428.216094 232.87347 
L 429.024391 234.36454 
L 429.832688 236.33877 
L 430.640984 238.651383 
L 431.449281 241.616462 
L 432.257578 242.259801 
L 433.065875 240.973178 
L 433.874172 238.562176 
L 434.682469 235.406023 
L 435.490766 230.010852 
L 436.299063 223.76669 
L 437.10736 216.773782 
L 437.915657 212.724179 
L 438.723953 211.657074 
L 439.53225 213.403806 
L 440.340547 217.633089 
L 441.148844 225.475055 
L 441.957141 235.797004 
L 442.765438 248.999122 
L 443.573735 262.409624 
L 444.382032 275.268502 
L 445.190329 286.654401 
L 445.998625 297.077379 
L 446.806922 305.633745 
L 447.615219 310.944403 
L 448.423516 311.930577 
L 449.231813 310.592208 
L 450.04011 307.57715 
L 450.848407 304.088657 
L 451.656704 299.632153 
L 452.465001 292.781572 
L 453.273297 289.119082 
L 454.081594 286.720712 
" style="fill:none;stroke:#ff0000;stroke-linecap:square;stroke-width:1.5;"/>
   </g>
   <g id="patch_199">
    <path d="M 376.000115 325.921635 
L 376.000115 18.118365 
" style="fill:none;stroke:#000000;stroke-linecap:square;stroke-linejoin:miter;stroke-width:0.8;"/>
   </g>
   <g id="patch_200">
    <path d="M 457.79976 325.921635 
L 457.79976 18.118365 
" style="fill:none;stroke:#000000;stroke-linecap:square;stroke-linejoin:miter;stroke-width:0.8;"/>
   </g>
   <g id="patch_201">
    <path d="M 376.000115 325.921635 
L 457.79976 325.921635 
" style="fill:none;stroke:#000000;stroke-linecap:square;stroke-linejoin:miter;stroke-width:0.8;"/>
   </g>
   <g id="patch_202">
    <path d="M 376.000115 18.118365 
L 457.79976 18.118365 
" style="fill:none;stroke:#000000;stroke-linecap:square;stroke-linejoin:miter;stroke-width:0.8;"/>
   </g>
   <g id="text_35">
    <!-- r0 - RO - (data) -->
    <defs>
     <path d="M 41.109375 46.296875 
Q 39.59375 47.171875 37.8125 47.578125 
Q 36.03125 48 33.890625 48 
Q 26.265625 48 22.1875 43.046875 
Q 18.109375 38.09375 18.109375 28.8125 
L 18.109375 0 
L 9.078125 0 
L 9.078125 54.6875 
L 18.109375 54.6875 
L 18.109375 46.1875 
Q 20.953125 51.171875 25.484375 53.578125 
Q 30.03125 56 36.53125 56 
Q 37.453125 56 38.578125 55.875 
Q 39.703125 55.765625 41.0625 55.515625 
z
" id="DejaVuSans-114"/>
    </defs>
    <g transform="translate(371.569937 12.118365)scale(0.12 -0.12)">
     <use xlink:href="#DejaVuSans-114"/>
     <use x="41.113281" xlink:href="#DejaVuSans-48"/>
     <use x="104.736328" xlink:href="#DejaVuSans-32"/>
     <use x="136.523438" xlink:href="#DejaVuSans-45"/>
     <use x="172.607422" xlink:href="#DejaVuSans-32"/>
     <use x="204.394531" xlink:href="#DejaVuSans-82"/>
     <use x="273.876953" xlink:href="#DejaVuSans-79"/>
     <use x="352.587891" xlink:href="#DejaVuSans-32"/>
     <use x="384.375" xlink:href="#DejaVuSans-45"/>
     <use x="420.458984" xlink:href="#DejaVuSans-32"/>
     <use x="452.246094" xlink:href="#DejaVuSans-40"/>
     <use x="491.259766" xlink:href="#DejaVuSans-100"/>
     <use x="554.736328" xlink:href="#DejaVuSans-97"/>
     <use x="616.015625" xlink:href="#DejaVuSans-116"/>
     <use x="655.224609" xlink:href="#DejaVuSans-97"/>
     <use x="716.503906" xlink:href="#DejaVuSans-41"/>
    </g>
   </g>
  </g>
 </g>
 <defs>
  <clipPath id="p7f38c7132a">
   <rect height="307.80327" width="81.799645" x="52.774302" y="18.118365"/>
  </clipPath>
  <clipPath id="pa5440f7806">
   <rect height="307.80327" width="81.799645" x="224.641427" y="18.118365"/>
  </clipPath>
  <clipPath id="p6636b081ed">
   <rect height="307.80327" width="81.799645" x="376.000115" y="18.118365"/>
  </clipPath>
 </defs>
</svg>
