<?xml version="1.0" encoding="utf-8" standalone="no"?>
<!DOCTYPE svg PUBLIC "-//W3C//DTD SVG 1.1//EN"
  "http://www.w3.org/Graphics/SVG/1.1/DTD/svg11.dtd">
<!-- Created with matplotlib (https://matplotlib.org/) -->
<svg height="345.6pt" version="1.1" viewBox="0 0 460.8 345.6" width="460.8pt" xmlns="http://www.w3.org/2000/svg" xmlns:xlink="http://www.w3.org/1999/xlink">
 <defs>
  <style type="text/css">
*{stroke-linecap:butt;stroke-linejoin:round;}
  </style>
 </defs>
 <g id="figure_1">
  <g id="patch_1">
   <path d="M 0 345.6 
L 460.8 345.6 
L 460.8 0 
L 0 0 
z
" style="fill:#ffffff;"/>
  </g>
  <g id="axes_1">
   <g id="patch_2">
    <path d="M 49.128365 137.71551 
L 228.27701 137.71551 
L 228.27701 18.118365 
L 49.128365 18.118365 
z
" style="fill:#ffffff;"/>
   </g>
   <g id="patch_3">
    <path clip-path="url(#p9f5108b320)" d="M 57.271485 137.71551 
L 58.706396 137.71551 
L 58.706396 137.687526 
L 57.271485 137.687526 
z
" style="fill:#1f77b4;"/>
   </g>
   <g id="patch_4">
    <path clip-path="url(#p9f5108b320)" d="M 59.065124 137.71551 
L 60.500035 137.71551 
L 60.500035 137.687526 
L 59.065124 137.687526 
z
" style="fill:#1f77b4;"/>
   </g>
   <g id="patch_5">
    <path clip-path="url(#p9f5108b320)" d="M 60.858763 137.71551 
L 62.293674 137.71551 
L 62.293674 137.603575 
L 60.858763 137.603575 
z
" style="fill:#1f77b4;"/>
   </g>
   <g id="patch_6">
    <path clip-path="url(#p9f5108b320)" d="M 62.652402 137.71551 
L 64.087313 137.71551 
L 64.087313 137.603575 
L 62.652402 137.603575 
z
" style="fill:#1f77b4;"/>
   </g>
   <g id="patch_7">
    <path clip-path="url(#p9f5108b320)" d="M 64.44604 137.71551 
L 65.880952 137.71551 
L 65.880952 137.575592 
L 64.44604 137.575592 
z
" style="fill:#1f77b4;"/>
   </g>
   <g id="patch_8">
    <path clip-path="url(#p9f5108b320)" d="M 66.239679 137.71551 
L 67.67459 137.71551 
L 67.67459 137.547608 
L 66.239679 137.547608 
z
" style="fill:#1f77b4;"/>
   </g>
   <g id="patch_9">
    <path clip-path="url(#p9f5108b320)" d="M 68.033318 137.71551 
L 69.468229 137.71551 
L 69.468229 137.491641 
L 68.033318 137.491641 
z
" style="fill:#1f77b4;"/>
   </g>
   <g id="patch_10">
    <path clip-path="url(#p9f5108b320)" d="M 69.826957 137.71551 
L 71.261868 137.71551 
L 71.261868 137.491641 
L 69.826957 137.491641 
z
" style="fill:#1f77b4;"/>
   </g>
   <g id="patch_11">
    <path clip-path="url(#p9f5108b320)" d="M 71.620596 137.71551 
L 73.055507 137.71551 
L 73.055507 137.491641 
L 71.620596 137.491641 
z
" style="fill:#1f77b4;"/>
   </g>
   <g id="patch_12">
    <path clip-path="url(#p9f5108b320)" d="M 73.414235 137.71551 
L 74.849146 137.71551 
L 74.849146 137.407689 
L 73.414235 137.407689 
z
" style="fill:#1f77b4;"/>
   </g>
   <g id="patch_13">
    <path clip-path="url(#p9f5108b320)" d="M 75.207873 137.71551 
L 76.642784 137.71551 
L 76.642784 137.351722 
L 75.207873 137.351722 
z
" style="fill:#1f77b4;"/>
   </g>
   <g id="patch_14">
    <path clip-path="url(#p9f5108b320)" d="M 77.001512 137.71551 
L 78.436423 137.71551 
L 78.436423 137.295755 
L 77.001512 137.295755 
z
" style="fill:#1f77b4;"/>
   </g>
   <g id="patch_15">
    <path clip-path="url(#p9f5108b320)" d="M 78.795151 137.71551 
L 80.230062 137.71551 
L 80.230062 137.197812 
L 78.795151 137.197812 
z
" style="fill:#1f77b4;"/>
   </g>
   <g id="patch_16">
    <path clip-path="url(#p9f5108b320)" d="M 80.58879 137.71551 
L 82.023701 137.71551 
L 82.023701 137.127853 
L 80.58879 137.127853 
z
" style="fill:#1f77b4;"/>
   </g>
   <g id="patch_17">
    <path clip-path="url(#p9f5108b320)" d="M 82.382429 137.71551 
L 83.81734 137.71551 
L 83.81734 137.127853 
L 82.382429 137.127853 
z
" style="fill:#1f77b4;"/>
   </g>
   <g id="patch_18">
    <path clip-path="url(#p9f5108b320)" d="M 84.176067 137.71551 
L 85.610979 137.71551 
L 85.610979 137.127853 
L 84.176067 137.127853 
z
" style="fill:#1f77b4;"/>
   </g>
   <g id="patch_19">
    <path clip-path="url(#p9f5108b320)" d="M 85.969706 137.71551 
L 87.404617 137.71551 
L 87.404617 137.02991 
L 85.969706 137.02991 
z
" style="fill:#1f77b4;"/>
   </g>
   <g id="patch_20">
    <path clip-path="url(#p9f5108b320)" d="M 87.763345 137.71551 
L 89.198256 137.71551 
L 89.198256 136.987934 
L 87.763345 136.987934 
z
" style="fill:#1f77b4;"/>
   </g>
   <g id="patch_21">
    <path clip-path="url(#p9f5108b320)" d="M 89.556984 137.71551 
L 90.991895 137.71551 
L 90.991895 136.834024 
L 89.556984 136.834024 
z
" style="fill:#1f77b4;"/>
   </g>
   <g id="patch_22">
    <path clip-path="url(#p9f5108b320)" d="M 91.350623 137.71551 
L 92.785534 137.71551 
L 92.785534 136.666122 
L 91.350623 136.666122 
z
" style="fill:#1f77b4;"/>
   </g>
   <g id="patch_23">
    <path clip-path="url(#p9f5108b320)" d="M 93.144262 137.71551 
L 94.579173 137.71551 
L 94.579173 136.610154 
L 93.144262 136.610154 
z
" style="fill:#1f77b4;"/>
   </g>
   <g id="patch_24">
    <path clip-path="url(#p9f5108b320)" d="M 94.9379 137.71551 
L 96.372811 137.71551 
L 96.372811 136.554187 
L 94.9379 136.554187 
z
" style="fill:#1f77b4;"/>
   </g>
   <g id="patch_25">
    <path clip-path="url(#p9f5108b320)" d="M 96.731539 137.71551 
L 98.16645 137.71551 
L 98.16645 136.134432 
L 96.731539 136.134432 
z
" style="fill:#1f77b4;"/>
   </g>
   <g id="patch_26">
    <path clip-path="url(#p9f5108b320)" d="M 98.525178 137.71551 
L 99.960089 137.71551 
L 99.960089 136.12044 
L 98.525178 136.12044 
z
" style="fill:#1f77b4;"/>
   </g>
   <g id="patch_27">
    <path clip-path="url(#p9f5108b320)" d="M 100.318817 137.71551 
L 101.753728 137.71551 
L 101.753728 135.728668 
L 100.318817 135.728668 
z
" style="fill:#1f77b4;"/>
   </g>
   <g id="patch_28">
    <path clip-path="url(#p9f5108b320)" d="M 102.112456 137.71551 
L 103.547367 137.71551 
L 103.547367 135.420848 
L 102.112456 135.420848 
z
" style="fill:#1f77b4;"/>
   </g>
   <g id="patch_29">
    <path clip-path="url(#p9f5108b320)" d="M 103.906094 137.71551 
L 105.341006 137.71551 
L 105.341006 134.903149 
L 103.906094 134.903149 
z
" style="fill:#1f77b4;"/>
   </g>
   <g id="patch_30">
    <path clip-path="url(#p9f5108b320)" d="M 105.699733 137.71551 
L 107.134644 137.71551 
L 107.134644 134.609321 
L 105.699733 134.609321 
z
" style="fill:#1f77b4;"/>
   </g>
   <g id="patch_31">
    <path clip-path="url(#p9f5108b320)" d="M 107.493372 137.71551 
L 108.928283 137.71551 
L 108.928283 134.3015 
L 107.493372 134.3015 
z
" style="fill:#1f77b4;"/>
   </g>
   <g id="patch_32">
    <path clip-path="url(#p9f5108b320)" d="M 109.287011 137.71551 
L 110.721922 137.71551 
L 110.721922 134.259525 
L 109.287011 134.259525 
z
" style="fill:#1f77b4;"/>
   </g>
   <g id="patch_33">
    <path clip-path="url(#p9f5108b320)" d="M 111.08065 137.71551 
L 112.515561 137.71551 
L 112.515561 133.797794 
L 111.08065 133.797794 
z
" style="fill:#1f77b4;"/>
   </g>
   <g id="patch_34">
    <path clip-path="url(#p9f5108b320)" d="M 112.874289 137.71551 
L 114.3092 137.71551 
L 114.3092 133.559933 
L 112.874289 133.559933 
z
" style="fill:#1f77b4;"/>
   </g>
   <g id="patch_35">
    <path clip-path="url(#p9f5108b320)" d="M 114.667927 137.71551 
L 116.102838 137.71551 
L 116.102838 133.46199 
L 114.667927 133.46199 
z
" style="fill:#1f77b4;"/>
   </g>
   <g id="patch_36">
    <path clip-path="url(#p9f5108b320)" d="M 116.461566 137.71551 
L 117.896477 137.71551 
L 117.896477 132.888324 
L 116.461566 132.888324 
z
" style="fill:#1f77b4;"/>
   </g>
   <g id="patch_37">
    <path clip-path="url(#p9f5108b320)" d="M 118.255205 137.71551 
L 119.690116 137.71551 
L 119.690116 132.104781 
L 118.255205 132.104781 
z
" style="fill:#1f77b4;"/>
   </g>
   <g id="patch_38">
    <path clip-path="url(#p9f5108b320)" d="M 120.048844 137.71551 
L 121.483755 137.71551 
L 121.483755 132.02083 
L 120.048844 132.02083 
z
" style="fill:#1f77b4;"/>
   </g>
   <g id="patch_39">
    <path clip-path="url(#p9f5108b320)" d="M 121.842483 137.71551 
L 123.277394 137.71551 
L 123.277394 131.768977 
L 121.842483 131.768977 
z
" style="fill:#1f77b4;"/>
   </g>
   <g id="patch_40">
    <path clip-path="url(#p9f5108b320)" d="M 123.636121 137.71551 
L 125.071032 137.71551 
L 125.071032 131.391197 
L 123.636121 131.391197 
z
" style="fill:#1f77b4;"/>
   </g>
   <g id="patch_41">
    <path clip-path="url(#p9f5108b320)" d="M 125.42976 137.71551 
L 126.864671 137.71551 
L 126.864671 130.453743 
L 125.42976 130.453743 
z
" style="fill:#1f77b4;"/>
   </g>
   <g id="patch_42">
    <path clip-path="url(#p9f5108b320)" d="M 127.223399 137.71551 
L 128.65831 137.71551 
L 128.65831 129.29242 
L 127.223399 129.29242 
z
" style="fill:#1f77b4;"/>
   </g>
   <g id="patch_43">
    <path clip-path="url(#p9f5108b320)" d="M 129.017038 137.71551 
L 130.451949 137.71551 
L 130.451949 128.368959 
L 129.017038 128.368959 
z
" style="fill:#1f77b4;"/>
   </g>
   <g id="patch_44">
    <path clip-path="url(#p9f5108b320)" d="M 130.810677 137.71551 
L 132.245588 137.71551 
L 132.245588 127.361546 
L 130.810677 127.361546 
z
" style="fill:#1f77b4;"/>
   </g>
   <g id="patch_45">
    <path clip-path="url(#p9f5108b320)" d="M 132.604316 137.71551 
L 134.039227 137.71551 
L 134.039227 126.438084 
L 132.604316 126.438084 
z
" style="fill:#1f77b4;"/>
   </g>
   <g id="patch_46">
    <path clip-path="url(#p9f5108b320)" d="M 134.397954 137.71551 
L 135.832865 137.71551 
L 135.832865 125.556598 
L 134.397954 125.556598 
z
" style="fill:#1f77b4;"/>
   </g>
   <g id="patch_47">
    <path clip-path="url(#p9f5108b320)" d="M 136.191593 137.71551 
L 137.626504 137.71551 
L 137.626504 124.675112 
L 136.191593 124.675112 
z
" style="fill:#1f77b4;"/>
   </g>
   <g id="patch_48">
    <path clip-path="url(#p9f5108b320)" d="M 137.985232 137.71551 
L 139.420143 137.71551 
L 139.420143 123.44383 
L 137.985232 123.44383 
z
" style="fill:#1f77b4;"/>
   </g>
   <g id="patch_49">
    <path clip-path="url(#p9f5108b320)" d="M 139.778871 137.71551 
L 141.213782 137.71551 
L 141.213782 121.988678 
L 139.778871 121.988678 
z
" style="fill:#1f77b4;"/>
   </g>
   <g id="patch_50">
    <path clip-path="url(#p9f5108b320)" d="M 141.57251 137.71551 
L 143.007421 137.71551 
L 143.007421 120.897314 
L 141.57251 120.897314 
z
" style="fill:#1f77b4;"/>
   </g>
   <g id="patch_51">
    <path clip-path="url(#p9f5108b320)" d="M 143.366148 137.71551 
L 144.801059 137.71551 
L 144.801059 119.666032 
L 143.366148 119.666032 
z
" style="fill:#1f77b4;"/>
   </g>
   <g id="patch_52">
    <path clip-path="url(#p9f5108b320)" d="M 145.159787 137.71551 
L 146.594698 137.71551 
L 146.594698 119.596073 
L 145.159787 119.596073 
z
" style="fill:#1f77b4;"/>
   </g>
   <g id="patch_53">
    <path clip-path="url(#p9f5108b320)" d="M 146.953426 137.71551 
L 148.388337 137.71551 
L 148.388337 119.134342 
L 146.953426 119.134342 
z
" style="fill:#1f77b4;"/>
   </g>
   <g id="patch_54">
    <path clip-path="url(#p9f5108b320)" d="M 148.747065 137.71551 
L 150.181976 137.71551 
L 150.181976 117.973019 
L 148.747065 117.973019 
z
" style="fill:#1f77b4;"/>
   </g>
   <g id="patch_55">
    <path clip-path="url(#p9f5108b320)" d="M 150.540704 137.71551 
L 151.975615 137.71551 
L 151.975615 116.727745 
L 150.540704 116.727745 
z
" style="fill:#1f77b4;"/>
   </g>
   <g id="patch_56">
    <path clip-path="url(#p9f5108b320)" d="M 152.334343 137.71551 
L 153.769254 137.71551 
L 153.769254 115.482471 
L 152.334343 115.482471 
z
" style="fill:#1f77b4;"/>
   </g>
   <g id="patch_57">
    <path clip-path="url(#p9f5108b320)" d="M 154.127981 137.71551 
L 155.562892 137.71551 
L 155.562892 113.845425 
L 154.127981 113.845425 
z
" style="fill:#1f77b4;"/>
   </g>
   <g id="patch_58">
    <path clip-path="url(#p9f5108b320)" d="M 155.92162 137.71551 
L 157.356531 137.71551 
L 157.356531 112.656119 
L 155.92162 112.656119 
z
" style="fill:#1f77b4;"/>
   </g>
   <g id="patch_59">
    <path clip-path="url(#p9f5108b320)" d="M 157.715259 137.71551 
L 159.15017 137.71551 
L 159.15017 111.466812 
L 157.715259 111.466812 
z
" style="fill:#1f77b4;"/>
   </g>
   <g id="patch_60">
    <path clip-path="url(#p9f5108b320)" d="M 159.508898 137.71551 
L 160.943809 137.71551 
L 160.943809 109.941701 
L 159.508898 109.941701 
z
" style="fill:#1f77b4;"/>
   </g>
   <g id="patch_61">
    <path clip-path="url(#p9f5108b320)" d="M 161.302537 137.71551 
L 162.737448 137.71551 
L 162.737448 108.79437 
L 161.302537 108.79437 
z
" style="fill:#1f77b4;"/>
   </g>
   <g id="patch_62">
    <path clip-path="url(#p9f5108b320)" d="M 163.096175 137.71551 
L 164.531086 137.71551 
L 164.531086 107.689014 
L 163.096175 107.689014 
z
" style="fill:#1f77b4;"/>
   </g>
   <g id="patch_63">
    <path clip-path="url(#p9f5108b320)" d="M 164.889814 137.71551 
L 166.324725 137.71551 
L 166.324725 105.450319 
L 164.889814 105.450319 
z
" style="fill:#1f77b4;"/>
   </g>
   <g id="patch_64">
    <path clip-path="url(#p9f5108b320)" d="M 166.683453 137.71551 
L 168.118364 137.71551 
L 168.118364 104.498874 
L 166.683453 104.498874 
z
" style="fill:#1f77b4;"/>
   </g>
   <g id="patch_65">
    <path clip-path="url(#p9f5108b320)" d="M 168.477092 137.71551 
L 169.912003 137.71551 
L 169.912003 103.589404 
L 168.477092 103.589404 
z
" style="fill:#1f77b4;"/>
   </g>
   <g id="patch_66">
    <path clip-path="url(#p9f5108b320)" d="M 170.270731 137.71551 
L 171.705642 137.71551 
L 171.705642 102.540016 
L 170.270731 102.540016 
z
" style="fill:#1f77b4;"/>
   </g>
   <g id="patch_67">
    <path clip-path="url(#p9f5108b320)" d="M 172.064369 137.71551 
L 173.499281 137.71551 
L 173.499281 101.574579 
L 172.064369 101.574579 
z
" style="fill:#1f77b4;"/>
   </g>
   <g id="patch_68">
    <path clip-path="url(#p9f5108b320)" d="M 173.858008 137.71551 
L 175.292919 137.71551 
L 175.292919 100.189386 
L 173.858008 100.189386 
z
" style="fill:#1f77b4;"/>
   </g>
   <g id="patch_69">
    <path clip-path="url(#p9f5108b320)" d="M 175.651647 137.71551 
L 177.086558 137.71551 
L 177.086558 96.313646 
L 175.651647 96.313646 
z
" style="fill:#1f77b4;"/>
   </g>
   <g id="patch_70">
    <path clip-path="url(#p9f5108b320)" d="M 177.445286 137.71551 
L 178.880197 137.71551 
L 178.880197 94.368779 
L 177.445286 94.368779 
z
" style="fill:#1f77b4;"/>
   </g>
   <g id="patch_71">
    <path clip-path="url(#p9f5108b320)" d="M 179.238925 137.71551 
L 180.673836 137.71551 
L 180.673836 91.556419 
L 179.238925 91.556419 
z
" style="fill:#1f77b4;"/>
   </g>
   <g id="patch_72">
    <path clip-path="url(#p9f5108b320)" d="M 181.032564 137.71551 
L 182.467475 137.71551 
L 182.467475 89.107846 
L 181.032564 89.107846 
z
" style="fill:#1f77b4;"/>
   </g>
   <g id="patch_73">
    <path clip-path="url(#p9f5108b320)" d="M 182.826202 137.71551 
L 184.261113 137.71551 
L 184.261113 86.057624 
L 182.826202 86.057624 
z
" style="fill:#1f77b4;"/>
   </g>
   <g id="patch_74">
    <path clip-path="url(#p9f5108b320)" d="M 184.619841 137.71551 
L 186.054752 137.71551 
L 186.054752 83.846913 
L 184.619841 83.846913 
z
" style="fill:#1f77b4;"/>
   </g>
   <g id="patch_75">
    <path clip-path="url(#p9f5108b320)" d="M 186.41348 137.71551 
L 187.848391 137.71551 
L 187.848391 79.747303 
L 186.41348 79.747303 
z
" style="fill:#1f77b4;"/>
   </g>
   <g id="patch_76">
    <path clip-path="url(#p9f5108b320)" d="M 188.207119 137.71551 
L 189.64203 137.71551 
L 189.64203 74.990076 
L 188.207119 74.990076 
z
" style="fill:#1f77b4;"/>
   </g>
   <g id="patch_77">
    <path clip-path="url(#p9f5108b320)" d="M 190.000758 137.71551 
L 191.435669 137.71551 
L 191.435669 70.120915 
L 190.000758 70.120915 
z
" style="fill:#1f77b4;"/>
   </g>
   <g id="patch_78">
    <path clip-path="url(#p9f5108b320)" d="M 191.794396 137.71551 
L 193.229308 137.71551 
L 193.229308 64.426235 
L 191.794396 64.426235 
z
" style="fill:#1f77b4;"/>
   </g>
   <g id="patch_79">
    <path clip-path="url(#p9f5108b320)" d="M 193.588035 137.71551 
L 195.022946 137.71551 
L 195.022946 60.354608 
L 193.588035 60.354608 
z
" style="fill:#1f77b4;"/>
   </g>
   <g id="patch_80">
    <path clip-path="url(#p9f5108b320)" d="M 195.381674 137.71551 
L 196.816585 137.71551 
L 196.816585 57.010558 
L 195.381674 57.010558 
z
" style="fill:#1f77b4;"/>
   </g>
   <g id="patch_81">
    <path clip-path="url(#p9f5108b320)" d="M 197.175313 137.71551 
L 198.610224 137.71551 
L 198.610224 52.980907 
L 197.175313 52.980907 
z
" style="fill:#1f77b4;"/>
   </g>
   <g id="patch_82">
    <path clip-path="url(#p9f5108b320)" d="M 198.968952 137.71551 
L 200.403863 137.71551 
L 200.403863 48.90928 
L 198.968952 48.90928 
z
" style="fill:#1f77b4;"/>
   </g>
   <g id="patch_83">
    <path clip-path="url(#p9f5108b320)" d="M 200.762591 137.71551 
L 202.197502 137.71551 
L 202.197502 45.453295 
L 200.762591 45.453295 
z
" style="fill:#1f77b4;"/>
   </g>
   <g id="patch_84">
    <path clip-path="url(#p9f5108b320)" d="M 202.556229 137.71551 
L 203.99114 137.71551 
L 203.99114 43.802258 
L 202.556229 43.802258 
z
" style="fill:#1f77b4;"/>
   </g>
   <g id="patch_85">
    <path clip-path="url(#p9f5108b320)" d="M 204.349868 137.71551 
L 205.784779 137.71551 
L 205.784779 41.983318 
L 204.349868 41.983318 
z
" style="fill:#1f77b4;"/>
   </g>
   <g id="patch_86">
    <path clip-path="url(#p9f5108b320)" d="M 206.143507 137.71551 
L 207.578418 137.71551 
L 207.578418 41.521587 
L 206.143507 41.521587 
z
" style="fill:#1f77b4;"/>
   </g>
   <g id="patch_87">
    <path clip-path="url(#p9f5108b320)" d="M 207.937146 137.71551 
L 209.372057 137.71551 
L 209.372057 41.437636 
L 207.937146 41.437636 
z
" style="fill:#1f77b4;"/>
   </g>
   <g id="patch_88">
    <path clip-path="url(#p9f5108b320)" d="M 209.730785 137.71551 
L 211.165696 137.71551 
L 211.165696 40.682077 
L 209.730785 40.682077 
z
" style="fill:#1f77b4;"/>
   </g>
   <g id="patch_89">
    <path clip-path="url(#p9f5108b320)" d="M 211.524423 137.71551 
L 212.959335 137.71551 
L 212.959335 37.67383 
L 211.524423 37.67383 
z
" style="fill:#1f77b4;"/>
   </g>
   <g id="patch_90">
    <path clip-path="url(#p9f5108b320)" d="M 213.318062 137.71551 
L 214.752973 137.71551 
L 214.752973 33.882041 
L 213.318062 33.882041 
z
" style="fill:#1f77b4;"/>
   </g>
   <g id="patch_91">
    <path clip-path="url(#p9f5108b320)" d="M 215.111701 137.71551 
L 216.546612 137.71551 
L 216.546612 30.677909 
L 215.111701 30.677909 
z
" style="fill:#1f77b4;"/>
   </g>
   <g id="patch_92">
    <path clip-path="url(#p9f5108b320)" d="M 216.90534 137.71551 
L 218.340251 137.71551 
L 218.340251 25.263065 
L 216.90534 25.263065 
z
" style="fill:#1f77b4;"/>
   </g>
   <g id="patch_93">
    <path clip-path="url(#p9f5108b320)" d="M 218.698979 137.71551 
L 220.13389 137.71551 
L 220.13389 24.101742 
L 218.698979 24.101742 
z
" style="fill:#1f77b4;"/>
   </g>
   <g id="matplotlib.axis_1">
    <g id="xtick_1">
     <g id="line2d_1">
      <defs>
       <path d="M 0 0 
L 0 3.5 
" id="md7165bcc53" style="stroke:#000000;stroke-width:0.8;"/>
      </defs>
      <g>
       <use style="stroke:#000000;stroke-width:0.8;" x="57.988941" xlink:href="#md7165bcc53" y="137.71551"/>
      </g>
     </g>
     <g id="text_1">
      <!-- 0 -->
      <defs>
       <path d="M 31.78125 66.40625 
Q 24.171875 66.40625 20.328125 58.90625 
Q 16.5 51.421875 16.5 36.375 
Q 16.5 21.390625 20.328125 13.890625 
Q 24.171875 6.390625 31.78125 6.390625 
Q 39.453125 6.390625 43.28125 13.890625 
Q 47.125 21.390625 47.125 36.375 
Q 47.125 51.421875 43.28125 58.90625 
Q 39.453125 66.40625 31.78125 66.40625 
z
M 31.78125 74.21875 
Q 44.046875 74.21875 50.515625 64.515625 
Q 56.984375 54.828125 56.984375 36.375 
Q 56.984375 17.96875 50.515625 8.265625 
Q 44.046875 -1.421875 31.78125 -1.421875 
Q 19.53125 -1.421875 13.0625 8.265625 
Q 6.59375 17.96875 6.59375 36.375 
Q 6.59375 54.828125 13.0625 64.515625 
Q 19.53125 74.21875 31.78125 74.21875 
z
" id="DejaVuSans-48"/>
      </defs>
      <g transform="translate(54.807691 152.313947)scale(0.1 -0.1)">
       <use xlink:href="#DejaVuSans-48"/>
      </g>
     </g>
    </g>
    <g id="xtick_2">
     <g id="line2d_2">
      <g>
       <use style="stroke:#000000;stroke-width:0.8;" x="93.861717" xlink:href="#md7165bcc53" y="137.71551"/>
      </g>
     </g>
     <g id="text_2">
      <!-- 20 -->
      <defs>
       <path d="M 19.1875 8.296875 
L 53.609375 8.296875 
L 53.609375 0 
L 7.328125 0 
L 7.328125 8.296875 
Q 12.9375 14.109375 22.625 23.890625 
Q 32.328125 33.6875 34.8125 36.53125 
Q 39.546875 41.84375 41.421875 45.53125 
Q 43.3125 49.21875 43.3125 52.78125 
Q 43.3125 58.59375 39.234375 62.25 
Q 35.15625 65.921875 28.609375 65.921875 
Q 23.96875 65.921875 18.8125 64.3125 
Q 13.671875 62.703125 7.8125 59.421875 
L 7.8125 69.390625 
Q 13.765625 71.78125 18.9375 73 
Q 24.125 74.21875 28.421875 74.21875 
Q 39.75 74.21875 46.484375 68.546875 
Q 53.21875 62.890625 53.21875 53.421875 
Q 53.21875 48.921875 51.53125 44.890625 
Q 49.859375 40.875 45.40625 35.40625 
Q 44.1875 33.984375 37.640625 27.21875 
Q 31.109375 20.453125 19.1875 8.296875 
z
" id="DejaVuSans-50"/>
      </defs>
      <g transform="translate(87.499217 152.313947)scale(0.1 -0.1)">
       <use xlink:href="#DejaVuSans-50"/>
       <use x="63.623047" xlink:href="#DejaVuSans-48"/>
      </g>
     </g>
    </g>
    <g id="xtick_3">
     <g id="line2d_3">
      <g>
       <use style="stroke:#000000;stroke-width:0.8;" x="129.734493" xlink:href="#md7165bcc53" y="137.71551"/>
      </g>
     </g>
     <g id="text_3">
      <!-- 40 -->
      <defs>
       <path d="M 37.796875 64.3125 
L 12.890625 25.390625 
L 37.796875 25.390625 
z
M 35.203125 72.90625 
L 47.609375 72.90625 
L 47.609375 25.390625 
L 58.015625 25.390625 
L 58.015625 17.1875 
L 47.609375 17.1875 
L 47.609375 0 
L 37.796875 0 
L 37.796875 17.1875 
L 4.890625 17.1875 
L 4.890625 26.703125 
z
" id="DejaVuSans-52"/>
      </defs>
      <g transform="translate(123.371993 152.313947)scale(0.1 -0.1)">
       <use xlink:href="#DejaVuSans-52"/>
       <use x="63.623047" xlink:href="#DejaVuSans-48"/>
      </g>
     </g>
    </g>
    <g id="xtick_4">
     <g id="line2d_4">
      <g>
       <use style="stroke:#000000;stroke-width:0.8;" x="165.60727" xlink:href="#md7165bcc53" y="137.71551"/>
      </g>
     </g>
     <g id="text_4">
      <!-- 60 -->
      <defs>
       <path d="M 33.015625 40.375 
Q 26.375 40.375 22.484375 35.828125 
Q 18.609375 31.296875 18.609375 23.390625 
Q 18.609375 15.53125 22.484375 10.953125 
Q 26.375 6.390625 33.015625 6.390625 
Q 39.65625 6.390625 43.53125 10.953125 
Q 47.40625 15.53125 47.40625 23.390625 
Q 47.40625 31.296875 43.53125 35.828125 
Q 39.65625 40.375 33.015625 40.375 
z
M 52.59375 71.296875 
L 52.59375 62.3125 
Q 48.875 64.0625 45.09375 64.984375 
Q 41.3125 65.921875 37.59375 65.921875 
Q 27.828125 65.921875 22.671875 59.328125 
Q 17.53125 52.734375 16.796875 39.40625 
Q 19.671875 43.65625 24.015625 45.921875 
Q 28.375 48.1875 33.59375 48.1875 
Q 44.578125 48.1875 50.953125 41.515625 
Q 57.328125 34.859375 57.328125 23.390625 
Q 57.328125 12.15625 50.6875 5.359375 
Q 44.046875 -1.421875 33.015625 -1.421875 
Q 20.359375 -1.421875 13.671875 8.265625 
Q 6.984375 17.96875 6.984375 36.375 
Q 6.984375 53.65625 15.1875 63.9375 
Q 23.390625 74.21875 37.203125 74.21875 
Q 40.921875 74.21875 44.703125 73.484375 
Q 48.484375 72.75 52.59375 71.296875 
z
" id="DejaVuSans-54"/>
      </defs>
      <g transform="translate(159.24477 152.313947)scale(0.1 -0.1)">
       <use xlink:href="#DejaVuSans-54"/>
       <use x="63.623047" xlink:href="#DejaVuSans-48"/>
      </g>
     </g>
    </g>
    <g id="xtick_5">
     <g id="line2d_5">
      <g>
       <use style="stroke:#000000;stroke-width:0.8;" x="201.480046" xlink:href="#md7165bcc53" y="137.71551"/>
      </g>
     </g>
     <g id="text_5">
      <!-- 80 -->
      <defs>
       <path d="M 31.78125 34.625 
Q 24.75 34.625 20.71875 30.859375 
Q 16.703125 27.09375 16.703125 20.515625 
Q 16.703125 13.921875 20.71875 10.15625 
Q 24.75 6.390625 31.78125 6.390625 
Q 38.8125 6.390625 42.859375 10.171875 
Q 46.921875 13.96875 46.921875 20.515625 
Q 46.921875 27.09375 42.890625 30.859375 
Q 38.875 34.625 31.78125 34.625 
z
M 21.921875 38.8125 
Q 15.578125 40.375 12.03125 44.71875 
Q 8.5 49.078125 8.5 55.328125 
Q 8.5 64.0625 14.71875 69.140625 
Q 20.953125 74.21875 31.78125 74.21875 
Q 42.671875 74.21875 48.875 69.140625 
Q 55.078125 64.0625 55.078125 55.328125 
Q 55.078125 49.078125 51.53125 44.71875 
Q 48 40.375 41.703125 38.8125 
Q 48.828125 37.15625 52.796875 32.3125 
Q 56.78125 27.484375 56.78125 20.515625 
Q 56.78125 9.90625 50.3125 4.234375 
Q 43.84375 -1.421875 31.78125 -1.421875 
Q 19.734375 -1.421875 13.25 4.234375 
Q 6.78125 9.90625 6.78125 20.515625 
Q 6.78125 27.484375 10.78125 32.3125 
Q 14.796875 37.15625 21.921875 38.8125 
z
M 18.3125 54.390625 
Q 18.3125 48.734375 21.84375 45.5625 
Q 25.390625 42.390625 31.78125 42.390625 
Q 38.140625 42.390625 41.71875 45.5625 
Q 45.3125 48.734375 45.3125 54.390625 
Q 45.3125 60.0625 41.71875 63.234375 
Q 38.140625 66.40625 31.78125 66.40625 
Q 25.390625 66.40625 21.84375 63.234375 
Q 18.3125 60.0625 18.3125 54.390625 
z
" id="DejaVuSans-56"/>
      </defs>
      <g transform="translate(195.117546 152.313947)scale(0.1 -0.1)">
       <use xlink:href="#DejaVuSans-56"/>
       <use x="63.623047" xlink:href="#DejaVuSans-48"/>
      </g>
     </g>
    </g>
    <g id="text_6">
     <!-- Dias -->
     <defs>
      <path d="M 19.671875 64.796875 
L 19.671875 8.109375 
L 31.59375 8.109375 
Q 46.6875 8.109375 53.6875 14.9375 
Q 60.6875 21.78125 60.6875 36.53125 
Q 60.6875 51.171875 53.6875 57.984375 
Q 46.6875 64.796875 31.59375 64.796875 
z
M 9.8125 72.90625 
L 30.078125 72.90625 
Q 51.265625 72.90625 61.171875 64.09375 
Q 71.09375 55.28125 71.09375 36.53125 
Q 71.09375 17.671875 61.125 8.828125 
Q 51.171875 0 30.078125 0 
L 9.8125 0 
z
" id="DejaVuSans-68"/>
      <path d="M 9.421875 54.6875 
L 18.40625 54.6875 
L 18.40625 0 
L 9.421875 0 
z
M 9.421875 75.984375 
L 18.40625 75.984375 
L 18.40625 64.59375 
L 9.421875 64.59375 
z
" id="DejaVuSans-105"/>
      <path d="M 34.28125 27.484375 
Q 23.390625 27.484375 19.1875 25 
Q 14.984375 22.515625 14.984375 16.5 
Q 14.984375 11.71875 18.140625 8.90625 
Q 21.296875 6.109375 26.703125 6.109375 
Q 34.1875 6.109375 38.703125 11.40625 
Q 43.21875 16.703125 43.21875 25.484375 
L 43.21875 27.484375 
z
M 52.203125 31.203125 
L 52.203125 0 
L 43.21875 0 
L 43.21875 8.296875 
Q 40.140625 3.328125 35.546875 0.953125 
Q 30.953125 -1.421875 24.3125 -1.421875 
Q 15.921875 -1.421875 10.953125 3.296875 
Q 6 8.015625 6 15.921875 
Q 6 25.140625 12.171875 29.828125 
Q 18.359375 34.515625 30.609375 34.515625 
L 43.21875 34.515625 
L 43.21875 35.40625 
Q 43.21875 41.609375 39.140625 45 
Q 35.0625 48.390625 27.6875 48.390625 
Q 23 48.390625 18.546875 47.265625 
Q 14.109375 46.140625 10.015625 43.890625 
L 10.015625 52.203125 
Q 14.9375 54.109375 19.578125 55.046875 
Q 24.21875 56 28.609375 56 
Q 40.484375 56 46.34375 49.84375 
Q 52.203125 43.703125 52.203125 31.203125 
z
" id="DejaVuSans-97"/>
      <path d="M 44.28125 53.078125 
L 44.28125 44.578125 
Q 40.484375 46.53125 36.375 47.5 
Q 32.28125 48.484375 27.875 48.484375 
Q 21.1875 48.484375 17.84375 46.4375 
Q 14.5 44.390625 14.5 40.28125 
Q 14.5 37.15625 16.890625 35.375 
Q 19.28125 33.59375 26.515625 31.984375 
L 29.59375 31.296875 
Q 39.15625 29.25 43.1875 25.515625 
Q 47.21875 21.78125 47.21875 15.09375 
Q 47.21875 7.46875 41.1875 3.015625 
Q 35.15625 -1.421875 24.609375 -1.421875 
Q 20.21875 -1.421875 15.453125 -0.5625 
Q 10.6875 0.296875 5.421875 2 
L 5.421875 11.28125 
Q 10.40625 8.6875 15.234375 7.390625 
Q 20.0625 6.109375 24.8125 6.109375 
Q 31.15625 6.109375 34.5625 8.28125 
Q 37.984375 10.453125 37.984375 14.40625 
Q 37.984375 18.0625 35.515625 20.015625 
Q 33.0625 21.96875 24.703125 23.78125 
L 21.578125 24.515625 
Q 13.234375 26.265625 9.515625 29.90625 
Q 5.8125 33.546875 5.8125 39.890625 
Q 5.8125 47.609375 11.28125 51.796875 
Q 16.75 56 26.8125 56 
Q 31.78125 56 36.171875 55.265625 
Q 40.578125 54.546875 44.28125 53.078125 
z
" id="DejaVuSans-115"/>
     </defs>
     <g transform="translate(127.794875 165.992072)scale(0.1 -0.1)">
      <use xlink:href="#DejaVuSans-68"/>
      <use x="77.001953" xlink:href="#DejaVuSans-105"/>
      <use x="104.785156" xlink:href="#DejaVuSans-97"/>
      <use x="166.064453" xlink:href="#DejaVuSans-115"/>
     </g>
    </g>
   </g>
   <g id="matplotlib.axis_2">
    <g id="ytick_1">
     <g id="line2d_6">
      <defs>
       <path d="M 0 0 
L -3.5 0 
" id="m8ba522412a" style="stroke:#000000;stroke-width:0.8;"/>
      </defs>
      <g>
       <use style="stroke:#000000;stroke-width:0.8;" x="49.128365" xlink:href="#m8ba522412a" y="137.71551"/>
      </g>
     </g>
     <g id="text_7">
      <!-- 0 -->
      <g transform="translate(35.765865 141.514729)scale(0.1 -0.1)">
       <use xlink:href="#DejaVuSans-48"/>
      </g>
     </g>
    </g>
    <g id="ytick_2">
     <g id="line2d_7">
      <g>
       <use style="stroke:#000000;stroke-width:0.8;" x="49.128365" xlink:href="#m8ba522412a" y="109.731823"/>
      </g>
     </g>
     <g id="text_8">
      <!-- 2000 -->
      <g transform="translate(16.678365 113.531042)scale(0.1 -0.1)">
       <use xlink:href="#DejaVuSans-50"/>
       <use x="63.623047" xlink:href="#DejaVuSans-48"/>
       <use x="127.246094" xlink:href="#DejaVuSans-48"/>
       <use x="190.869141" xlink:href="#DejaVuSans-48"/>
      </g>
     </g>
    </g>
    <g id="ytick_3">
     <g id="line2d_8">
      <g>
       <use style="stroke:#000000;stroke-width:0.8;" x="49.128365" xlink:href="#m8ba522412a" y="81.748137"/>
      </g>
     </g>
     <g id="text_9">
      <!-- 4000 -->
      <g transform="translate(16.678365 85.547355)scale(0.1 -0.1)">
       <use xlink:href="#DejaVuSans-52"/>
       <use x="63.623047" xlink:href="#DejaVuSans-48"/>
       <use x="127.246094" xlink:href="#DejaVuSans-48"/>
       <use x="190.869141" xlink:href="#DejaVuSans-48"/>
      </g>
     </g>
    </g>
    <g id="ytick_4">
     <g id="line2d_9">
      <g>
       <use style="stroke:#000000;stroke-width:0.8;" x="49.128365" xlink:href="#m8ba522412a" y="53.76445"/>
      </g>
     </g>
     <g id="text_10">
      <!-- 6000 -->
      <g transform="translate(16.678365 57.563669)scale(0.1 -0.1)">
       <use xlink:href="#DejaVuSans-54"/>
       <use x="63.623047" xlink:href="#DejaVuSans-48"/>
       <use x="127.246094" xlink:href="#DejaVuSans-48"/>
       <use x="190.869141" xlink:href="#DejaVuSans-48"/>
      </g>
     </g>
    </g>
    <g id="ytick_5">
     <g id="line2d_10">
      <g>
       <use style="stroke:#000000;stroke-width:0.8;" x="49.128365" xlink:href="#m8ba522412a" y="25.780763"/>
      </g>
     </g>
     <g id="text_11">
      <!-- 8000 -->
      <g transform="translate(16.678365 29.579982)scale(0.1 -0.1)">
       <use xlink:href="#DejaVuSans-56"/>
       <use x="63.623047" xlink:href="#DejaVuSans-48"/>
       <use x="127.246094" xlink:href="#DejaVuSans-48"/>
       <use x="190.869141" xlink:href="#DejaVuSans-48"/>
      </g>
     </g>
    </g>
    <g id="text_12">
     <!-- Casos -->
     <defs>
      <path d="M 64.40625 67.28125 
L 64.40625 56.890625 
Q 59.421875 61.53125 53.78125 63.8125 
Q 48.140625 66.109375 41.796875 66.109375 
Q 29.296875 66.109375 22.65625 58.46875 
Q 16.015625 50.828125 16.015625 36.375 
Q 16.015625 21.96875 22.65625 14.328125 
Q 29.296875 6.6875 41.796875 6.6875 
Q 48.140625 6.6875 53.78125 8.984375 
Q 59.421875 11.28125 64.40625 15.921875 
L 64.40625 5.609375 
Q 59.234375 2.09375 53.4375 0.328125 
Q 47.65625 -1.421875 41.21875 -1.421875 
Q 24.65625 -1.421875 15.125 8.703125 
Q 5.609375 18.84375 5.609375 36.375 
Q 5.609375 53.953125 15.125 64.078125 
Q 24.65625 74.21875 41.21875 74.21875 
Q 47.75 74.21875 53.53125 72.484375 
Q 59.328125 70.75 64.40625 67.28125 
z
" id="DejaVuSans-67"/>
      <path d="M 30.609375 48.390625 
Q 23.390625 48.390625 19.1875 42.75 
Q 14.984375 37.109375 14.984375 27.296875 
Q 14.984375 17.484375 19.15625 11.84375 
Q 23.34375 6.203125 30.609375 6.203125 
Q 37.796875 6.203125 41.984375 11.859375 
Q 46.1875 17.53125 46.1875 27.296875 
Q 46.1875 37.015625 41.984375 42.703125 
Q 37.796875 48.390625 30.609375 48.390625 
z
M 30.609375 56 
Q 42.328125 56 49.015625 48.375 
Q 55.71875 40.765625 55.71875 27.296875 
Q 55.71875 13.875 49.015625 6.21875 
Q 42.328125 -1.421875 30.609375 -1.421875 
Q 18.84375 -1.421875 12.171875 6.21875 
Q 5.515625 13.875 5.515625 27.296875 
Q 5.515625 40.765625 12.171875 48.375 
Q 18.84375 56 30.609375 56 
z
" id="DejaVuSans-111"/>
     </defs>
     <g transform="translate(10.598677 92.741156)rotate(-90)scale(0.1 -0.1)">
      <use xlink:href="#DejaVuSans-67"/>
      <use x="69.824219" xlink:href="#DejaVuSans-97"/>
      <use x="131.103516" xlink:href="#DejaVuSans-115"/>
      <use x="183.203125" xlink:href="#DejaVuSans-111"/>
      <use x="244.384766" xlink:href="#DejaVuSans-115"/>
     </g>
    </g>
   </g>
   <g id="line2d_11">
    <path clip-path="url(#p9f5108b320)" d="M 57.988941 137.646332 
L 59.78258 137.630079 
L 61.576218 137.609391 
L 63.369857 137.585207 
L 65.163496 137.55755 
L 66.957135 137.526512 
L 68.750774 137.492229 
L 70.544412 137.454688 
L 72.338051 137.413872 
L 74.13169 137.369735 
L 75.925329 137.322025 
L 77.718968 137.270388 
L 79.512607 137.214129 
L 81.306245 137.152252 
L 83.099884 137.083325 
L 84.893523 137.005353 
L 86.687162 136.915749 
L 88.480801 136.812013 
L 90.274439 136.691425 
L 92.068078 136.551582 
L 93.861717 136.390574 
L 95.655356 136.207334 
L 97.448995 136.001757 
L 99.242634 135.775038 
L 101.036272 135.528587 
L 102.829911 135.264735 
L 104.62355 134.985807 
L 106.417189 134.693266 
L 108.210828 134.387229 
L 110.004466 134.066681 
L 111.798105 133.728557 
L 113.591744 133.368388 
L 115.385383 132.97939 
L 117.179022 132.553557 
L 118.972661 132.08319 
L 120.766299 131.561343 
L 122.559938 130.981494 
L 124.353577 130.339338 
L 126.147216 129.633324 
L 127.940855 128.865462 
L 129.734493 128.040748 
L 131.528132 127.166196 
L 133.321771 126.250415 
L 135.11541 125.303824 
L 136.909049 124.33598 
L 138.702687 123.353911 
L 140.496326 122.361808 
L 142.289965 121.361021 
L 144.083604 120.349465 
L 145.877243 119.322518 
L 147.670882 118.272903 
L 149.46452 117.193555 
L 151.258159 116.079977 
L 153.051798 114.929977 
L 154.845437 113.742447 
L 156.639076 112.519114 
L 158.432714 111.26229 
L 160.226353 109.974032 
L 162.019992 108.653379 
L 163.813631 107.29363 
L 165.60727 105.881642 
L 167.400909 104.401112 
L 169.194547 102.829655 
L 170.988186 101.141018 
L 172.781825 99.306659 
L 174.575464 97.298762 
L 176.369103 95.092183 
L 178.162741 92.667544 
L 179.95638 90.009362 
L 181.750019 87.11182 
L 183.543658 83.981377 
L 185.337297 80.638253 
L 187.130936 77.115601 
L 188.924574 73.461352 
L 190.718213 69.735332 
L 192.511852 66.007546 
L 194.305491 62.349737 
L 196.09913 58.826216 
L 197.892768 55.487679 
L 199.686407 52.366291 
L 201.480046 49.467911 
L 203.273685 46.772689 
L 205.067324 44.238656 
L 206.860963 41.80696 
L 208.654601 39.413172 
L 210.44824 37.003609 
L 212.241879 34.529308 
L 214.035518 31.957023 
L 215.829157 29.319051 
L 217.622795 26.603963 
L 219.416434 23.813467 
" style="fill:none;stroke:#ff0000;stroke-linecap:square;stroke-width:1.5;"/>
   </g>
   <g id="patch_94">
    <path d="M 49.128365 137.71551 
L 49.128365 18.118365 
" style="fill:none;stroke:#000000;stroke-linecap:square;stroke-linejoin:miter;stroke-width:0.8;"/>
   </g>
   <g id="patch_95">
    <path d="M 228.27701 137.71551 
L 228.27701 18.118365 
" style="fill:none;stroke:#000000;stroke-linecap:square;stroke-linejoin:miter;stroke-width:0.8;"/>
   </g>
   <g id="patch_96">
    <path d="M 49.128365 137.71551 
L 228.27701 137.71551 
" style="fill:none;stroke:#000000;stroke-linecap:square;stroke-linejoin:miter;stroke-width:0.8;"/>
   </g>
   <g id="patch_97">
    <path d="M 49.128365 18.118365 
L 228.27701 18.118365 
" style="fill:none;stroke:#000000;stroke-linecap:square;stroke-linejoin:miter;stroke-width:0.8;"/>
   </g>
   <g id="text_13">
    <!-- Casos acumulados - RR -->
    <defs>
     <path id="DejaVuSans-32"/>
     <path d="M 48.78125 52.59375 
L 48.78125 44.1875 
Q 44.96875 46.296875 41.140625 47.34375 
Q 37.3125 48.390625 33.40625 48.390625 
Q 24.65625 48.390625 19.8125 42.84375 
Q 14.984375 37.3125 14.984375 27.296875 
Q 14.984375 17.28125 19.8125 11.734375 
Q 24.65625 6.203125 33.40625 6.203125 
Q 37.3125 6.203125 41.140625 7.25 
Q 44.96875 8.296875 48.78125 10.40625 
L 48.78125 2.09375 
Q 45.015625 0.34375 40.984375 -0.53125 
Q 36.96875 -1.421875 32.421875 -1.421875 
Q 20.0625 -1.421875 12.78125 6.34375 
Q 5.515625 14.109375 5.515625 27.296875 
Q 5.515625 40.671875 12.859375 48.328125 
Q 20.21875 56 33.015625 56 
Q 37.15625 56 41.109375 55.140625 
Q 45.0625 54.296875 48.78125 52.59375 
z
" id="DejaVuSans-99"/>
     <path d="M 8.5 21.578125 
L 8.5 54.6875 
L 17.484375 54.6875 
L 17.484375 21.921875 
Q 17.484375 14.15625 20.5 10.265625 
Q 23.53125 6.390625 29.59375 6.390625 
Q 36.859375 6.390625 41.078125 11.03125 
Q 45.3125 15.671875 45.3125 23.6875 
L 45.3125 54.6875 
L 54.296875 54.6875 
L 54.296875 0 
L 45.3125 0 
L 45.3125 8.40625 
Q 42.046875 3.421875 37.71875 1 
Q 33.40625 -1.421875 27.6875 -1.421875 
Q 18.265625 -1.421875 13.375 4.4375 
Q 8.5 10.296875 8.5 21.578125 
z
M 31.109375 56 
z
" id="DejaVuSans-117"/>
     <path d="M 52 44.1875 
Q 55.375 50.25 60.0625 53.125 
Q 64.75 56 71.09375 56 
Q 79.640625 56 84.28125 50.015625 
Q 88.921875 44.046875 88.921875 33.015625 
L 88.921875 0 
L 79.890625 0 
L 79.890625 32.71875 
Q 79.890625 40.578125 77.09375 44.375 
Q 74.3125 48.1875 68.609375 48.1875 
Q 61.625 48.1875 57.5625 43.546875 
Q 53.515625 38.921875 53.515625 30.90625 
L 53.515625 0 
L 44.484375 0 
L 44.484375 32.71875 
Q 44.484375 40.625 41.703125 44.40625 
Q 38.921875 48.1875 33.109375 48.1875 
Q 26.21875 48.1875 22.15625 43.53125 
Q 18.109375 38.875 18.109375 30.90625 
L 18.109375 0 
L 9.078125 0 
L 9.078125 54.6875 
L 18.109375 54.6875 
L 18.109375 46.1875 
Q 21.1875 51.21875 25.484375 53.609375 
Q 29.78125 56 35.6875 56 
Q 41.65625 56 45.828125 52.96875 
Q 50 49.953125 52 44.1875 
z
" id="DejaVuSans-109"/>
     <path d="M 9.421875 75.984375 
L 18.40625 75.984375 
L 18.40625 0 
L 9.421875 0 
z
" id="DejaVuSans-108"/>
     <path d="M 45.40625 46.390625 
L 45.40625 75.984375 
L 54.390625 75.984375 
L 54.390625 0 
L 45.40625 0 
L 45.40625 8.203125 
Q 42.578125 3.328125 38.25 0.953125 
Q 33.9375 -1.421875 27.875 -1.421875 
Q 17.96875 -1.421875 11.734375 6.484375 
Q 5.515625 14.40625 5.515625 27.296875 
Q 5.515625 40.1875 11.734375 48.09375 
Q 17.96875 56 27.875 56 
Q 33.9375 56 38.25 53.625 
Q 42.578125 51.265625 45.40625 46.390625 
z
M 14.796875 27.296875 
Q 14.796875 17.390625 18.875 11.75 
Q 22.953125 6.109375 30.078125 6.109375 
Q 37.203125 6.109375 41.296875 11.75 
Q 45.40625 17.390625 45.40625 27.296875 
Q 45.40625 37.203125 41.296875 42.84375 
Q 37.203125 48.484375 30.078125 48.484375 
Q 22.953125 48.484375 18.875 42.84375 
Q 14.796875 37.203125 14.796875 27.296875 
z
" id="DejaVuSans-100"/>
     <path d="M 4.890625 31.390625 
L 31.203125 31.390625 
L 31.203125 23.390625 
L 4.890625 23.390625 
z
" id="DejaVuSans-45"/>
     <path d="M 44.390625 34.1875 
Q 47.5625 33.109375 50.5625 29.59375 
Q 53.5625 26.078125 56.59375 19.921875 
L 66.609375 0 
L 56 0 
L 46.6875 18.703125 
Q 43.0625 26.03125 39.671875 28.421875 
Q 36.28125 30.8125 30.421875 30.8125 
L 19.671875 30.8125 
L 19.671875 0 
L 9.8125 0 
L 9.8125 72.90625 
L 32.078125 72.90625 
Q 44.578125 72.90625 50.734375 67.671875 
Q 56.890625 62.453125 56.890625 51.90625 
Q 56.890625 45.015625 53.6875 40.46875 
Q 50.484375 35.9375 44.390625 34.1875 
z
M 19.671875 64.796875 
L 19.671875 38.921875 
L 32.078125 38.921875 
Q 39.203125 38.921875 42.84375 42.21875 
Q 46.484375 45.515625 46.484375 51.90625 
Q 46.484375 58.296875 42.84375 61.546875 
Q 39.203125 64.796875 32.078125 64.796875 
z
" id="DejaVuSans-82"/>
    </defs>
    <g transform="translate(68.315187 12.118365)scale(0.12 -0.12)">
     <use xlink:href="#DejaVuSans-67"/>
     <use x="69.824219" xlink:href="#DejaVuSans-97"/>
     <use x="131.103516" xlink:href="#DejaVuSans-115"/>
     <use x="183.203125" xlink:href="#DejaVuSans-111"/>
     <use x="244.384766" xlink:href="#DejaVuSans-115"/>
     <use x="296.484375" xlink:href="#DejaVuSans-32"/>
     <use x="328.271484" xlink:href="#DejaVuSans-97"/>
     <use x="389.550781" xlink:href="#DejaVuSans-99"/>
     <use x="444.53125" xlink:href="#DejaVuSans-117"/>
     <use x="507.910156" xlink:href="#DejaVuSans-109"/>
     <use x="605.322266" xlink:href="#DejaVuSans-117"/>
     <use x="668.701172" xlink:href="#DejaVuSans-108"/>
     <use x="696.484375" xlink:href="#DejaVuSans-97"/>
     <use x="757.763672" xlink:href="#DejaVuSans-100"/>
     <use x="821.240234" xlink:href="#DejaVuSans-111"/>
     <use x="882.421875" xlink:href="#DejaVuSans-115"/>
     <use x="934.521484" xlink:href="#DejaVuSans-32"/>
     <use x="966.308594" xlink:href="#DejaVuSans-45"/>
     <use x="1002.392578" xlink:href="#DejaVuSans-32"/>
     <use x="1034.179688" xlink:href="#DejaVuSans-82"/>
     <use x="1103.662109" xlink:href="#DejaVuSans-82"/>
    </g>
   </g>
  </g>
  <g id="axes_2">
   <g id="patch_98">
    <path d="M 278.651115 137.71551 
L 457.79976 137.71551 
L 457.79976 18.118365 
L 278.651115 18.118365 
z
" style="fill:#ffffff;"/>
   </g>
   <g id="patch_99">
    <path clip-path="url(#pa6b33d85ce)" d="M 286.794235 137.71551 
L 288.229146 137.71551 
L 288.229146 137.71551 
L 286.794235 137.71551 
z
" style="fill:#1f77b4;"/>
   </g>
   <g id="patch_100">
    <path clip-path="url(#pa6b33d85ce)" d="M 288.587874 137.71551 
L 290.022785 137.71551 
L 290.022785 137.71551 
L 288.587874 137.71551 
z
" style="fill:#1f77b4;"/>
   </g>
   <g id="patch_101">
    <path clip-path="url(#pa6b33d85ce)" d="M 290.381513 137.71551 
L 291.816424 137.71551 
L 291.816424 136.036364 
L 290.381513 136.036364 
z
" style="fill:#1f77b4;"/>
   </g>
   <g id="patch_102">
    <path clip-path="url(#pa6b33d85ce)" d="M 292.175152 137.71551 
L 293.610063 137.71551 
L 293.610063 137.71551 
L 292.175152 137.71551 
z
" style="fill:#1f77b4;"/>
   </g>
   <g id="patch_103">
    <path clip-path="url(#pa6b33d85ce)" d="M 293.96879 137.71551 
L 295.403702 137.71551 
L 295.403702 137.155795 
L 293.96879 137.155795 
z
" style="fill:#1f77b4;"/>
   </g>
   <g id="patch_104">
    <path clip-path="url(#pa6b33d85ce)" d="M 295.762429 137.71551 
L 297.19734 137.71551 
L 297.19734 137.155795 
L 295.762429 137.155795 
z
" style="fill:#1f77b4;"/>
   </g>
   <g id="patch_105">
    <path clip-path="url(#pa6b33d85ce)" d="M 297.556068 137.71551 
L 298.990979 137.71551 
L 298.990979 136.59608 
L 297.556068 136.59608 
z
" style="fill:#1f77b4;"/>
   </g>
   <g id="patch_106">
    <path clip-path="url(#pa6b33d85ce)" d="M 299.349707 137.71551 
L 300.784618 137.71551 
L 300.784618 137.71551 
L 299.349707 137.71551 
z
" style="fill:#1f77b4;"/>
   </g>
   <g id="patch_107">
    <path clip-path="url(#pa6b33d85ce)" d="M 301.143346 137.71551 
L 302.578257 137.71551 
L 302.578257 137.71551 
L 301.143346 137.71551 
z
" style="fill:#1f77b4;"/>
   </g>
   <g id="patch_108">
    <path clip-path="url(#pa6b33d85ce)" d="M 302.936985 137.71551 
L 304.371896 137.71551 
L 304.371896 136.036364 
L 302.936985 136.036364 
z
" style="fill:#1f77b4;"/>
   </g>
   <g id="patch_109">
    <path clip-path="url(#pa6b33d85ce)" d="M 304.730623 137.71551 
L 306.165534 137.71551 
L 306.165534 136.59608 
L 304.730623 136.59608 
z
" style="fill:#1f77b4;"/>
   </g>
   <g id="patch_110">
    <path clip-path="url(#pa6b33d85ce)" d="M 306.524262 137.71551 
L 307.959173 137.71551 
L 307.959173 136.59608 
L 306.524262 136.59608 
z
" style="fill:#1f77b4;"/>
   </g>
   <g id="patch_111">
    <path clip-path="url(#pa6b33d85ce)" d="M 308.317901 137.71551 
L 309.752812 137.71551 
L 309.752812 135.756507 
L 308.317901 135.756507 
z
" style="fill:#1f77b4;"/>
   </g>
   <g id="patch_112">
    <path clip-path="url(#pa6b33d85ce)" d="M 310.11154 137.71551 
L 311.546451 137.71551 
L 311.546451 136.316222 
L 310.11154 136.316222 
z
" style="fill:#1f77b4;"/>
   </g>
   <g id="patch_113">
    <path clip-path="url(#pa6b33d85ce)" d="M 311.905179 137.71551 
L 313.34009 137.71551 
L 313.34009 137.71551 
L 311.905179 137.71551 
z
" style="fill:#1f77b4;"/>
   </g>
   <g id="patch_114">
    <path clip-path="url(#pa6b33d85ce)" d="M 313.698817 137.71551 
L 315.133729 137.71551 
L 315.133729 137.71551 
L 313.698817 137.71551 
z
" style="fill:#1f77b4;"/>
   </g>
   <g id="patch_115">
    <path clip-path="url(#pa6b33d85ce)" d="M 315.492456 137.71551 
L 316.927367 137.71551 
L 316.927367 135.756507 
L 315.492456 135.756507 
z
" style="fill:#1f77b4;"/>
   </g>
   <g id="patch_116">
    <path clip-path="url(#pa6b33d85ce)" d="M 317.286095 137.71551 
L 318.721006 137.71551 
L 318.721006 136.875937 
L 317.286095 136.875937 
z
" style="fill:#1f77b4;"/>
   </g>
   <g id="patch_117">
    <path clip-path="url(#pa6b33d85ce)" d="M 319.079734 137.71551 
L 320.514645 137.71551 
L 320.514645 134.637076 
L 319.079734 134.637076 
z
" style="fill:#1f77b4;"/>
   </g>
   <g id="patch_118">
    <path clip-path="url(#pa6b33d85ce)" d="M 320.873373 137.71551 
L 322.308284 137.71551 
L 322.308284 134.357219 
L 320.873373 134.357219 
z
" style="fill:#1f77b4;"/>
   </g>
   <g id="patch_119">
    <path clip-path="url(#pa6b33d85ce)" d="M 322.667012 137.71551 
L 324.101923 137.71551 
L 324.101923 136.59608 
L 322.667012 136.59608 
z
" style="fill:#1f77b4;"/>
   </g>
   <g id="patch_120">
    <path clip-path="url(#pa6b33d85ce)" d="M 324.46065 137.71551 
L 325.895561 137.71551 
L 325.895561 136.59608 
L 324.46065 136.59608 
z
" style="fill:#1f77b4;"/>
   </g>
   <g id="patch_121">
    <path clip-path="url(#pa6b33d85ce)" d="M 326.254289 137.71551 
L 327.6892 137.71551 
L 327.6892 129.319782 
L 326.254289 129.319782 
z
" style="fill:#1f77b4;"/>
   </g>
   <g id="patch_122">
    <path clip-path="url(#pa6b33d85ce)" d="M 328.047928 137.71551 
L 329.482839 137.71551 
L 329.482839 137.435652 
L 328.047928 137.435652 
z
" style="fill:#1f77b4;"/>
   </g>
   <g id="patch_123">
    <path clip-path="url(#pa6b33d85ce)" d="M 329.841567 137.71551 
L 331.276478 137.71551 
L 331.276478 129.879497 
L 329.841567 129.879497 
z
" style="fill:#1f77b4;"/>
   </g>
   <g id="patch_124">
    <path clip-path="url(#pa6b33d85ce)" d="M 331.635206 137.71551 
L 333.070117 137.71551 
L 333.070117 131.558643 
L 331.635206 131.558643 
z
" style="fill:#1f77b4;"/>
   </g>
   <g id="patch_125">
    <path clip-path="url(#pa6b33d85ce)" d="M 333.428844 137.71551 
L 334.863756 137.71551 
L 334.863756 127.360779 
L 333.428844 127.360779 
z
" style="fill:#1f77b4;"/>
   </g>
   <g id="patch_126">
    <path clip-path="url(#pa6b33d85ce)" d="M 335.222483 137.71551 
L 336.657394 137.71551 
L 336.657394 131.8385 
L 335.222483 131.8385 
z
" style="fill:#1f77b4;"/>
   </g>
   <g id="patch_127">
    <path clip-path="url(#pa6b33d85ce)" d="M 337.016122 137.71551 
L 338.451033 137.71551 
L 338.451033 131.558643 
L 337.016122 131.558643 
z
" style="fill:#1f77b4;"/>
   </g>
   <g id="patch_128">
    <path clip-path="url(#pa6b33d85ce)" d="M 338.809761 137.71551 
L 340.244672 137.71551 
L 340.244672 136.875937 
L 338.809761 136.875937 
z
" style="fill:#1f77b4;"/>
   </g>
   <g id="patch_129">
    <path clip-path="url(#pa6b33d85ce)" d="M 340.6034 137.71551 
L 342.038311 137.71551 
L 342.038311 128.480209 
L 340.6034 128.480209 
z
" style="fill:#1f77b4;"/>
   </g>
   <g id="patch_130">
    <path clip-path="url(#pa6b33d85ce)" d="M 342.397039 137.71551 
L 343.83195 137.71551 
L 343.83195 132.957931 
L 342.397039 132.957931 
z
" style="fill:#1f77b4;"/>
   </g>
   <g id="patch_131">
    <path clip-path="url(#pa6b33d85ce)" d="M 344.190677 137.71551 
L 345.625588 137.71551 
L 345.625588 135.756507 
L 344.190677 135.756507 
z
" style="fill:#1f77b4;"/>
   </g>
   <g id="patch_132">
    <path clip-path="url(#pa6b33d85ce)" d="M 345.984316 137.71551 
L 347.419227 137.71551 
L 347.419227 126.241348 
L 345.984316 126.241348 
z
" style="fill:#1f77b4;"/>
   </g>
   <g id="patch_133">
    <path clip-path="url(#pa6b33d85ce)" d="M 347.777955 137.71551 
L 349.212866 137.71551 
L 349.212866 122.043484 
L 347.777955 122.043484 
z
" style="fill:#1f77b4;"/>
   </g>
   <g id="patch_134">
    <path clip-path="url(#pa6b33d85ce)" d="M 349.571594 137.71551 
L 351.006505 137.71551 
L 351.006505 136.036364 
L 349.571594 136.036364 
z
" style="fill:#1f77b4;"/>
   </g>
   <g id="patch_135">
    <path clip-path="url(#pa6b33d85ce)" d="M 351.365233 137.71551 
L 352.800144 137.71551 
L 352.800144 132.678073 
L 351.365233 132.678073 
z
" style="fill:#1f77b4;"/>
   </g>
   <g id="patch_136">
    <path clip-path="url(#pa6b33d85ce)" d="M 353.158871 137.71551 
L 354.593782 137.71551 
L 354.593782 130.159355 
L 353.158871 130.159355 
z
" style="fill:#1f77b4;"/>
   </g>
   <g id="patch_137">
    <path clip-path="url(#pa6b33d85ce)" d="M 354.95251 137.71551 
L 356.387421 137.71551 
L 356.387421 118.965051 
L 354.95251 118.965051 
z
" style="fill:#1f77b4;"/>
   </g>
   <g id="patch_138">
    <path clip-path="url(#pa6b33d85ce)" d="M 356.746149 137.71551 
L 358.18106 137.71551 
L 358.18106 114.487329 
L 356.746149 114.487329 
z
" style="fill:#1f77b4;"/>
   </g>
   <g id="patch_139">
    <path clip-path="url(#pa6b33d85ce)" d="M 358.539788 137.71551 
L 359.974699 137.71551 
L 359.974699 119.244908 
L 358.539788 119.244908 
z
" style="fill:#1f77b4;"/>
   </g>
   <g id="patch_140">
    <path clip-path="url(#pa6b33d85ce)" d="M 360.333427 137.71551 
L 361.768338 137.71551 
L 361.768338 117.565763 
L 360.333427 117.565763 
z
" style="fill:#1f77b4;"/>
   </g>
   <g id="patch_141">
    <path clip-path="url(#pa6b33d85ce)" d="M 362.127066 137.71551 
L 363.561977 137.71551 
L 363.561977 119.244908 
L 362.127066 119.244908 
z
" style="fill:#1f77b4;"/>
   </g>
   <g id="patch_142">
    <path clip-path="url(#pa6b33d85ce)" d="M 363.920704 137.71551 
L 365.355615 137.71551 
L 365.355615 120.084481 
L 363.920704 120.084481 
z
" style="fill:#1f77b4;"/>
   </g>
   <g id="patch_143">
    <path clip-path="url(#pa6b33d85ce)" d="M 365.714343 137.71551 
L 367.149254 137.71551 
L 367.149254 120.084481 
L 365.714343 120.084481 
z
" style="fill:#1f77b4;"/>
   </g>
   <g id="patch_144">
    <path clip-path="url(#pa6b33d85ce)" d="M 367.507982 137.71551 
L 368.942893 137.71551 
L 368.942893 113.088041 
L 367.507982 113.088041 
z
" style="fill:#1f77b4;"/>
   </g>
   <g id="patch_145">
    <path clip-path="url(#pa6b33d85ce)" d="M 369.301621 137.71551 
L 370.736532 137.71551 
L 370.736532 108.61032 
L 369.301621 108.61032 
z
" style="fill:#1f77b4;"/>
   </g>
   <g id="patch_146">
    <path clip-path="url(#pa6b33d85ce)" d="M 371.09526 137.71551 
L 372.530171 137.71551 
L 372.530171 115.886617 
L 371.09526 115.886617 
z
" style="fill:#1f77b4;"/>
   </g>
   <g id="patch_147">
    <path clip-path="url(#pa6b33d85ce)" d="M 372.888898 137.71551 
L 374.323809 137.71551 
L 374.323809 113.088041 
L 372.888898 113.088041 
z
" style="fill:#1f77b4;"/>
   </g>
   <g id="patch_148">
    <path clip-path="url(#pa6b33d85ce)" d="M 374.682537 137.71551 
L 376.117448 137.71551 
L 376.117448 136.316222 
L 374.682537 136.316222 
z
" style="fill:#1f77b4;"/>
   </g>
   <g id="patch_149">
    <path clip-path="url(#pa6b33d85ce)" d="M 376.476176 137.71551 
L 377.911087 137.71551 
L 377.911087 128.480209 
L 376.476176 128.480209 
z
" style="fill:#1f77b4;"/>
   </g>
   <g id="patch_150">
    <path clip-path="url(#pa6b33d85ce)" d="M 378.269815 137.71551 
L 379.704726 137.71551 
L 379.704726 114.487329 
L 378.269815 114.487329 
z
" style="fill:#1f77b4;"/>
   </g>
   <g id="patch_151">
    <path clip-path="url(#pa6b33d85ce)" d="M 380.063454 137.71551 
L 381.498365 137.71551 
L 381.498365 112.808184 
L 380.063454 112.808184 
z
" style="fill:#1f77b4;"/>
   </g>
   <g id="patch_152">
    <path clip-path="url(#pa6b33d85ce)" d="M 381.857093 137.71551 
L 383.292004 137.71551 
L 383.292004 112.808184 
L 381.857093 112.808184 
z
" style="fill:#1f77b4;"/>
   </g>
   <g id="patch_153">
    <path clip-path="url(#pa6b33d85ce)" d="M 383.650731 137.71551 
L 385.085642 137.71551 
L 385.085642 104.972171 
L 383.650731 104.972171 
z
" style="fill:#1f77b4;"/>
   </g>
   <g id="patch_154">
    <path clip-path="url(#pa6b33d85ce)" d="M 385.44437 137.71551 
L 386.879281 137.71551 
L 386.879281 113.927614 
L 385.44437 113.927614 
z
" style="fill:#1f77b4;"/>
   </g>
   <g id="patch_155">
    <path clip-path="url(#pa6b33d85ce)" d="M 387.238009 137.71551 
L 388.67292 137.71551 
L 388.67292 113.927614 
L 387.238009 113.927614 
z
" style="fill:#1f77b4;"/>
   </g>
   <g id="patch_156">
    <path clip-path="url(#pa6b33d85ce)" d="M 389.031648 137.71551 
L 390.466559 137.71551 
L 390.466559 107.211032 
L 389.031648 107.211032 
z
" style="fill:#1f77b4;"/>
   </g>
   <g id="patch_157">
    <path clip-path="url(#pa6b33d85ce)" d="M 390.825287 137.71551 
L 392.260198 137.71551 
L 392.260198 114.767187 
L 390.825287 114.767187 
z
" style="fill:#1f77b4;"/>
   </g>
   <g id="patch_158">
    <path clip-path="url(#pa6b33d85ce)" d="M 392.618925 137.71551 
L 394.053836 137.71551 
L 394.053836 115.60676 
L 392.618925 115.60676 
z
" style="fill:#1f77b4;"/>
   </g>
   <g id="patch_159">
    <path clip-path="url(#pa6b33d85ce)" d="M 394.412564 137.71551 
L 395.847475 137.71551 
L 395.847475 92.938294 
L 394.412564 92.938294 
z
" style="fill:#1f77b4;"/>
   </g>
   <g id="patch_160">
    <path clip-path="url(#pa6b33d85ce)" d="M 396.206203 137.71551 
L 397.641114 137.71551 
L 397.641114 118.685193 
L 396.206203 118.685193 
z
" style="fill:#1f77b4;"/>
   </g>
   <g id="patch_161">
    <path clip-path="url(#pa6b33d85ce)" d="M 397.999842 137.71551 
L 399.434753 137.71551 
L 399.434753 119.524766 
L 397.999842 119.524766 
z
" style="fill:#1f77b4;"/>
   </g>
   <g id="patch_162">
    <path clip-path="url(#pa6b33d85ce)" d="M 399.793481 137.71551 
L 401.228392 137.71551 
L 401.228392 116.72619 
L 399.793481 116.72619 
z
" style="fill:#1f77b4;"/>
   </g>
   <g id="patch_163">
    <path clip-path="url(#pa6b33d85ce)" d="M 401.587119 137.71551 
L 403.022031 137.71551 
L 403.022031 118.405336 
L 401.587119 118.405336 
z
" style="fill:#1f77b4;"/>
   </g>
   <g id="patch_164">
    <path clip-path="url(#pa6b33d85ce)" d="M 403.380758 137.71551 
L 404.815669 137.71551 
L 404.815669 110.009608 
L 403.380758 110.009608 
z
" style="fill:#1f77b4;"/>
   </g>
   <g id="patch_165">
    <path clip-path="url(#pa6b33d85ce)" d="M 405.174397 137.71551 
L 406.609308 137.71551 
L 406.609308 60.194955 
L 405.174397 60.194955 
z
" style="fill:#1f77b4;"/>
   </g>
   <g id="patch_166">
    <path clip-path="url(#pa6b33d85ce)" d="M 406.968036 137.71551 
L 408.402947 137.71551 
L 408.402947 98.815304 
L 406.968036 98.815304 
z
" style="fill:#1f77b4;"/>
   </g>
   <g id="patch_167">
    <path clip-path="url(#pa6b33d85ce)" d="M 408.761675 137.71551 
L 410.196586 137.71551 
L 410.196586 81.464133 
L 408.761675 81.464133 
z
" style="fill:#1f77b4;"/>
   </g>
   <g id="patch_168">
    <path clip-path="url(#pa6b33d85ce)" d="M 410.555314 137.71551 
L 411.990225 137.71551 
L 411.990225 88.74043 
L 410.555314 88.74043 
z
" style="fill:#1f77b4;"/>
   </g>
   <g id="patch_169">
    <path clip-path="url(#pa6b33d85ce)" d="M 412.348952 137.71551 
L 413.783863 137.71551 
L 413.783863 76.706553 
L 412.348952 76.706553 
z
" style="fill:#1f77b4;"/>
   </g>
   <g id="patch_170">
    <path clip-path="url(#pa6b33d85ce)" d="M 414.142591 137.71551 
L 415.577502 137.71551 
L 415.577502 93.498009 
L 414.142591 93.498009 
z
" style="fill:#1f77b4;"/>
   </g>
   <g id="patch_171">
    <path clip-path="url(#pa6b33d85ce)" d="M 415.93623 137.71551 
L 417.371141 137.71551 
L 417.371141 55.717233 
L 415.93623 55.717233 
z
" style="fill:#1f77b4;"/>
   </g>
   <g id="patch_172">
    <path clip-path="url(#pa6b33d85ce)" d="M 417.729869 137.71551 
L 419.16478 137.71551 
L 419.16478 42.563926 
L 417.729869 42.563926 
z
" style="fill:#1f77b4;"/>
   </g>
   <g id="patch_173">
    <path clip-path="url(#pa6b33d85ce)" d="M 419.523508 137.71551 
L 420.958419 137.71551 
L 420.958419 40.325065 
L 419.523508 40.325065 
z
" style="fill:#1f77b4;"/>
   </g>
   <g id="patch_174">
    <path clip-path="url(#pa6b33d85ce)" d="M 421.317146 137.71551 
L 422.752058 137.71551 
L 422.752058 23.813467 
L 421.317146 23.813467 
z
" style="fill:#1f77b4;"/>
   </g>
   <g id="patch_175">
    <path clip-path="url(#pa6b33d85ce)" d="M 423.110785 137.71551 
L 424.545696 137.71551 
L 424.545696 56.276949 
L 423.110785 56.276949 
z
" style="fill:#1f77b4;"/>
   </g>
   <g id="patch_176">
    <path clip-path="url(#pa6b33d85ce)" d="M 424.904424 137.71551 
L 426.339335 137.71551 
L 426.339335 70.829544 
L 424.904424 70.829544 
z
" style="fill:#1f77b4;"/>
   </g>
   <g id="patch_177">
    <path clip-path="url(#pa6b33d85ce)" d="M 426.698063 137.71551 
L 428.132974 137.71551 
L 428.132974 57.116521 
L 426.698063 57.116521 
z
" style="fill:#1f77b4;"/>
   </g>
   <g id="patch_178">
    <path clip-path="url(#pa6b33d85ce)" d="M 428.491702 137.71551 
L 429.926613 137.71551 
L 429.926613 56.276949 
L 428.491702 56.276949 
z
" style="fill:#1f77b4;"/>
   </g>
   <g id="patch_179">
    <path clip-path="url(#pa6b33d85ce)" d="M 430.285341 137.71551 
L 431.720252 137.71551 
L 431.720252 68.590683 
L 430.285341 68.590683 
z
" style="fill:#1f77b4;"/>
   </g>
   <g id="patch_180">
    <path clip-path="url(#pa6b33d85ce)" d="M 432.078979 137.71551 
L 433.51389 137.71551 
L 433.51389 104.692313 
L 432.078979 104.692313 
z
" style="fill:#1f77b4;"/>
   </g>
   <g id="patch_181">
    <path clip-path="url(#pa6b33d85ce)" d="M 433.872618 137.71551 
L 435.307529 137.71551 
L 435.307529 101.334022 
L 433.872618 101.334022 
z
" style="fill:#1f77b4;"/>
   </g>
   <g id="patch_182">
    <path clip-path="url(#pa6b33d85ce)" d="M 435.666257 137.71551 
L 437.101168 137.71551 
L 437.101168 128.480209 
L 435.666257 128.480209 
z
" style="fill:#1f77b4;"/>
   </g>
   <g id="patch_183">
    <path clip-path="url(#pa6b33d85ce)" d="M 437.459896 137.71551 
L 438.894807 137.71551 
L 438.894807 136.036364 
L 437.459896 136.036364 
z
" style="fill:#1f77b4;"/>
   </g>
   <g id="patch_184">
    <path clip-path="url(#pa6b33d85ce)" d="M 439.253535 137.71551 
L 440.688446 137.71551 
L 440.688446 122.6032 
L 439.253535 122.6032 
z
" style="fill:#1f77b4;"/>
   </g>
   <g id="patch_185">
    <path clip-path="url(#pa6b33d85ce)" d="M 441.047173 137.71551 
L 442.482085 137.71551 
L 442.482085 77.546126 
L 441.047173 77.546126 
z
" style="fill:#1f77b4;"/>
   </g>
   <g id="patch_186">
    <path clip-path="url(#pa6b33d85ce)" d="M 442.840812 137.71551 
L 444.275723 137.71551 
L 444.275723 61.874101 
L 442.840812 61.874101 
z
" style="fill:#1f77b4;"/>
   </g>
   <g id="patch_187">
    <path clip-path="url(#pa6b33d85ce)" d="M 444.634451 137.71551 
L 446.069362 137.71551 
L 446.069362 73.62812 
L 444.634451 73.62812 
z
" style="fill:#1f77b4;"/>
   </g>
   <g id="patch_188">
    <path clip-path="url(#pa6b33d85ce)" d="M 446.42809 137.71551 
L 447.863001 137.71551 
L 447.863001 29.410619 
L 446.42809 29.410619 
z
" style="fill:#1f77b4;"/>
   </g>
   <g id="patch_189">
    <path clip-path="url(#pa6b33d85ce)" d="M 448.221729 137.71551 
L 449.65664 137.71551 
L 449.65664 114.487329 
L 448.221729 114.487329 
z
" style="fill:#1f77b4;"/>
   </g>
   <g id="matplotlib.axis_3">
    <g id="xtick_6">
     <g id="line2d_12">
      <g>
       <use style="stroke:#000000;stroke-width:0.8;" x="287.511691" xlink:href="#md7165bcc53" y="137.71551"/>
      </g>
     </g>
     <g id="text_14">
      <!-- 0 -->
      <g transform="translate(284.330441 152.313947)scale(0.1 -0.1)">
       <use xlink:href="#DejaVuSans-48"/>
      </g>
     </g>
    </g>
    <g id="xtick_7">
     <g id="line2d_13">
      <g>
       <use style="stroke:#000000;stroke-width:0.8;" x="323.384467" xlink:href="#md7165bcc53" y="137.71551"/>
      </g>
     </g>
     <g id="text_15">
      <!-- 20 -->
      <g transform="translate(317.021967 152.313947)scale(0.1 -0.1)">
       <use xlink:href="#DejaVuSans-50"/>
       <use x="63.623047" xlink:href="#DejaVuSans-48"/>
      </g>
     </g>
    </g>
    <g id="xtick_8">
     <g id="line2d_14">
      <g>
       <use style="stroke:#000000;stroke-width:0.8;" x="359.257243" xlink:href="#md7165bcc53" y="137.71551"/>
      </g>
     </g>
     <g id="text_16">
      <!-- 40 -->
      <g transform="translate(352.894743 152.313947)scale(0.1 -0.1)">
       <use xlink:href="#DejaVuSans-52"/>
       <use x="63.623047" xlink:href="#DejaVuSans-48"/>
      </g>
     </g>
    </g>
    <g id="xtick_9">
     <g id="line2d_15">
      <g>
       <use style="stroke:#000000;stroke-width:0.8;" x="395.13002" xlink:href="#md7165bcc53" y="137.71551"/>
      </g>
     </g>
     <g id="text_17">
      <!-- 60 -->
      <g transform="translate(388.76752 152.313947)scale(0.1 -0.1)">
       <use xlink:href="#DejaVuSans-54"/>
       <use x="63.623047" xlink:href="#DejaVuSans-48"/>
      </g>
     </g>
    </g>
    <g id="xtick_10">
     <g id="line2d_16">
      <g>
       <use style="stroke:#000000;stroke-width:0.8;" x="431.002796" xlink:href="#md7165bcc53" y="137.71551"/>
      </g>
     </g>
     <g id="text_18">
      <!-- 80 -->
      <g transform="translate(424.640296 152.313947)scale(0.1 -0.1)">
       <use xlink:href="#DejaVuSans-56"/>
       <use x="63.623047" xlink:href="#DejaVuSans-48"/>
      </g>
     </g>
    </g>
    <g id="text_19">
     <!-- Dias -->
     <g transform="translate(357.317625 165.992072)scale(0.1 -0.1)">
      <use xlink:href="#DejaVuSans-68"/>
      <use x="77.001953" xlink:href="#DejaVuSans-105"/>
      <use x="104.785156" xlink:href="#DejaVuSans-97"/>
      <use x="166.064453" xlink:href="#DejaVuSans-115"/>
     </g>
    </g>
   </g>
   <g id="matplotlib.axis_4">
    <g id="ytick_6">
     <g id="line2d_17">
      <g>
       <use style="stroke:#000000;stroke-width:0.8;" x="278.651115" xlink:href="#m8ba522412a" y="137.71551"/>
      </g>
     </g>
     <g id="text_20">
      <!-- 0 -->
      <g transform="translate(265.288615 141.514729)scale(0.1 -0.1)">
       <use xlink:href="#DejaVuSans-48"/>
      </g>
     </g>
    </g>
    <g id="ytick_7">
     <g id="line2d_18">
      <g>
       <use style="stroke:#000000;stroke-width:0.8;" x="278.651115" xlink:href="#m8ba522412a" y="109.72975"/>
      </g>
     </g>
     <g id="text_21">
      <!-- 100 -->
      <defs>
       <path d="M 12.40625 8.296875 
L 28.515625 8.296875 
L 28.515625 63.921875 
L 10.984375 60.40625 
L 10.984375 69.390625 
L 28.421875 72.90625 
L 38.28125 72.90625 
L 38.28125 8.296875 
L 54.390625 8.296875 
L 54.390625 0 
L 12.40625 0 
z
" id="DejaVuSans-49"/>
      </defs>
      <g transform="translate(252.563615 113.528969)scale(0.1 -0.1)">
       <use xlink:href="#DejaVuSans-49"/>
       <use x="63.623047" xlink:href="#DejaVuSans-48"/>
       <use x="127.246094" xlink:href="#DejaVuSans-48"/>
      </g>
     </g>
    </g>
    <g id="ytick_8">
     <g id="line2d_19">
      <g>
       <use style="stroke:#000000;stroke-width:0.8;" x="278.651115" xlink:href="#m8ba522412a" y="81.74399"/>
      </g>
     </g>
     <g id="text_22">
      <!-- 200 -->
      <g transform="translate(252.563615 85.543209)scale(0.1 -0.1)">
       <use xlink:href="#DejaVuSans-50"/>
       <use x="63.623047" xlink:href="#DejaVuSans-48"/>
       <use x="127.246094" xlink:href="#DejaVuSans-48"/>
      </g>
     </g>
    </g>
    <g id="ytick_9">
     <g id="line2d_20">
      <g>
       <use style="stroke:#000000;stroke-width:0.8;" x="278.651115" xlink:href="#m8ba522412a" y="53.75823"/>
      </g>
     </g>
     <g id="text_23">
      <!-- 300 -->
      <defs>
       <path d="M 40.578125 39.3125 
Q 47.65625 37.796875 51.625 33 
Q 55.609375 28.21875 55.609375 21.1875 
Q 55.609375 10.40625 48.1875 4.484375 
Q 40.765625 -1.421875 27.09375 -1.421875 
Q 22.515625 -1.421875 17.65625 -0.515625 
Q 12.796875 0.390625 7.625 2.203125 
L 7.625 11.71875 
Q 11.71875 9.328125 16.59375 8.109375 
Q 21.484375 6.890625 26.8125 6.890625 
Q 36.078125 6.890625 40.9375 10.546875 
Q 45.796875 14.203125 45.796875 21.1875 
Q 45.796875 27.640625 41.28125 31.265625 
Q 36.765625 34.90625 28.71875 34.90625 
L 20.21875 34.90625 
L 20.21875 43.015625 
L 29.109375 43.015625 
Q 36.375 43.015625 40.234375 45.921875 
Q 44.09375 48.828125 44.09375 54.296875 
Q 44.09375 59.90625 40.109375 62.90625 
Q 36.140625 65.921875 28.71875 65.921875 
Q 24.65625 65.921875 20.015625 65.03125 
Q 15.375 64.15625 9.8125 62.3125 
L 9.8125 71.09375 
Q 15.4375 72.65625 20.34375 73.4375 
Q 25.25 74.21875 29.59375 74.21875 
Q 40.828125 74.21875 47.359375 69.109375 
Q 53.90625 64.015625 53.90625 55.328125 
Q 53.90625 49.265625 50.4375 45.09375 
Q 46.96875 40.921875 40.578125 39.3125 
z
" id="DejaVuSans-51"/>
      </defs>
      <g transform="translate(252.563615 57.557449)scale(0.1 -0.1)">
       <use xlink:href="#DejaVuSans-51"/>
       <use x="63.623047" xlink:href="#DejaVuSans-48"/>
       <use x="127.246094" xlink:href="#DejaVuSans-48"/>
      </g>
     </g>
    </g>
    <g id="ytick_10">
     <g id="line2d_21">
      <g>
       <use style="stroke:#000000;stroke-width:0.8;" x="278.651115" xlink:href="#m8ba522412a" y="25.77247"/>
      </g>
     </g>
     <g id="text_24">
      <!-- 400 -->
      <g transform="translate(252.563615 29.571689)scale(0.1 -0.1)">
       <use xlink:href="#DejaVuSans-52"/>
       <use x="63.623047" xlink:href="#DejaVuSans-48"/>
       <use x="127.246094" xlink:href="#DejaVuSans-48"/>
      </g>
     </g>
    </g>
    <g id="text_25">
     <!-- Novos casos -->
     <defs>
      <path d="M 9.8125 72.90625 
L 23.09375 72.90625 
L 55.421875 11.921875 
L 55.421875 72.90625 
L 64.984375 72.90625 
L 64.984375 0 
L 51.703125 0 
L 19.390625 60.984375 
L 19.390625 0 
L 9.8125 0 
z
" id="DejaVuSans-78"/>
      <path d="M 2.984375 54.6875 
L 12.5 54.6875 
L 29.59375 8.796875 
L 46.6875 54.6875 
L 56.203125 54.6875 
L 35.6875 0 
L 23.484375 0 
z
" id="DejaVuSans-118"/>
     </defs>
     <g transform="translate(246.483927 109.011469)rotate(-90)scale(0.1 -0.1)">
      <use xlink:href="#DejaVuSans-78"/>
      <use x="74.804688" xlink:href="#DejaVuSans-111"/>
      <use x="135.986328" xlink:href="#DejaVuSans-118"/>
      <use x="195.166016" xlink:href="#DejaVuSans-111"/>
      <use x="256.347656" xlink:href="#DejaVuSans-115"/>
      <use x="308.447266" xlink:href="#DejaVuSans-32"/>
      <use x="340.234375" xlink:href="#DejaVuSans-99"/>
      <use x="395.214844" xlink:href="#DejaVuSans-97"/>
      <use x="456.494141" xlink:href="#DejaVuSans-115"/>
      <use x="508.59375" xlink:href="#DejaVuSans-111"/>
      <use x="569.775391" xlink:href="#DejaVuSans-115"/>
     </g>
    </g>
   </g>
   <g id="line2d_22">
    <path clip-path="url(#pa6b33d85ce)" d="M 287.511691 137.470154 
L 289.30533 137.390428 
L 291.098968 137.301726 
L 292.892607 137.231791 
L 294.686246 137.162322 
L 296.479885 137.094718 
L 298.273524 137.029795 
L 300.067162 136.964638 
L 301.860801 136.899132 
L 303.65444 136.832694 
L 305.448079 136.761243 
L 307.241718 136.682683 
L 309.035357 136.590252 
L 310.828995 136.477889 
L 312.622634 136.336853 
L 314.416273 136.155954 
L 316.209912 135.923302 
L 318.003551 135.640647 
L 319.797189 135.303559 
L 321.590828 134.918449 
L 323.384467 134.495108 
L 325.178106 134.050436 
L 326.971745 133.603666 
L 328.765384 133.180791 
L 330.559022 132.786123 
L 332.352661 132.438079 
L 334.1463 132.136541 
L 335.939939 131.86426 
L 337.733578 131.59431 
L 339.527216 131.304078 
L 341.320855 130.952537 
L 343.114494 130.511595 
L 344.908133 129.934979 
L 346.701772 129.198211 
L 348.495411 128.307469 
L 350.289049 127.277789 
L 352.082688 126.11768 
L 353.876327 124.871433 
L 355.669966 123.594182 
L 357.463605 122.357144 
L 359.257243 121.219997 
L 361.050882 120.223186 
L 362.844521 119.398533 
L 364.63816 118.782287 
L 366.431799 118.357197 
L 368.225437 118.072677 
L 370.019076 117.871963 
L 371.812715 117.69829 
L 373.606354 117.48289 
L 375.399993 117.175058 
L 377.193632 116.721644 
L 378.98727 116.126961 
L 380.780909 115.442295 
L 382.574548 114.713803 
L 384.368187 113.963164 
L 386.161826 113.247027 
L 387.955464 112.577164 
L 389.749103 111.948446 
L 391.542742 111.300496 
L 393.336381 110.518503 
L 395.13002 109.47367 
L 396.923659 108.102706 
L 398.717297 106.28404 
L 400.510936 103.940276 
L 402.304575 101.025608 
L 404.098214 97.554604 
L 405.891853 93.580649 
L 407.685491 89.219137 
L 409.47913 84.547928 
L 411.272769 79.760393 
L 413.066408 75.102005 
L 414.860047 70.848077 
L 416.653686 67.257251 
L 418.447324 64.625121 
L 420.240963 63.189583 
L 422.034602 63.154266 
L 423.828241 64.553903 
L 425.62188 67.239883 
L 427.415518 70.939808 
L 429.209157 75.283138 
L 431.002796 79.743609 
L 432.796435 83.80708 
L 434.590074 87.031096 
L 436.383713 89.077984 
L 438.177351 89.836199 
L 439.97099 89.520675 
L 441.764629 88.225823 
L 443.558268 86.266004 
L 445.351907 84.952154 
L 447.145545 83.409732 
L 448.939184 81.901461 
" style="fill:none;stroke:#ff0000;stroke-linecap:square;stroke-width:1.5;"/>
   </g>
   <g id="patch_190">
    <path d="M 278.651115 137.71551 
L 278.651115 18.118365 
" style="fill:none;stroke:#000000;stroke-linecap:square;stroke-linejoin:miter;stroke-width:0.8;"/>
   </g>
   <g id="patch_191">
    <path d="M 457.79976 137.71551 
L 457.79976 18.118365 
" style="fill:none;stroke:#000000;stroke-linecap:square;stroke-linejoin:miter;stroke-width:0.8;"/>
   </g>
   <g id="patch_192">
    <path d="M 278.651115 137.71551 
L 457.79976 137.71551 
" style="fill:none;stroke:#000000;stroke-linecap:square;stroke-linejoin:miter;stroke-width:0.8;"/>
   </g>
   <g id="patch_193">
    <path d="M 278.651115 18.118365 
L 457.79976 18.118365 
" style="fill:none;stroke:#000000;stroke-linecap:square;stroke-linejoin:miter;stroke-width:0.8;"/>
   </g>
   <g id="text_26">
    <!-- Casos novos - RR -->
    <defs>
     <path d="M 54.890625 33.015625 
L 54.890625 0 
L 45.90625 0 
L 45.90625 32.71875 
Q 45.90625 40.484375 42.875 44.328125 
Q 39.84375 48.1875 33.796875 48.1875 
Q 26.515625 48.1875 22.3125 43.546875 
Q 18.109375 38.921875 18.109375 30.90625 
L 18.109375 0 
L 9.078125 0 
L 9.078125 54.6875 
L 18.109375 54.6875 
L 18.109375 46.1875 
Q 21.34375 51.125 25.703125 53.5625 
Q 30.078125 56 35.796875 56 
Q 45.21875 56 50.046875 50.171875 
Q 54.890625 44.34375 54.890625 33.015625 
z
" id="DejaVuSans-110"/>
    </defs>
    <g transform="translate(316.391062 12.118365)scale(0.12 -0.12)">
     <use xlink:href="#DejaVuSans-67"/>
     <use x="69.824219" xlink:href="#DejaVuSans-97"/>
     <use x="131.103516" xlink:href="#DejaVuSans-115"/>
     <use x="183.203125" xlink:href="#DejaVuSans-111"/>
     <use x="244.384766" xlink:href="#DejaVuSans-115"/>
     <use x="296.484375" xlink:href="#DejaVuSans-32"/>
     <use x="328.271484" xlink:href="#DejaVuSans-110"/>
     <use x="391.650391" xlink:href="#DejaVuSans-111"/>
     <use x="452.832031" xlink:href="#DejaVuSans-118"/>
     <use x="512.011719" xlink:href="#DejaVuSans-111"/>
     <use x="573.193359" xlink:href="#DejaVuSans-115"/>
     <use x="625.292969" xlink:href="#DejaVuSans-32"/>
     <use x="657.080078" xlink:href="#DejaVuSans-45"/>
     <use x="693.164062" xlink:href="#DejaVuSans-32"/>
     <use x="724.951172" xlink:href="#DejaVuSans-82"/>
     <use x="794.433594" xlink:href="#DejaVuSans-82"/>
    </g>
   </g>
  </g>
  <g id="axes_3">
   <g id="patch_194">
    <path d="M 49.128365 312.24351 
L 457.79976 312.24351 
L 457.79976 192.646365 
L 49.128365 192.646365 
z
" style="fill:#ffffff;"/>
   </g>
   <g id="matplotlib.axis_5">
    <g id="xtick_11">
     <g id="line2d_23">
      <g>
       <use style="stroke:#000000;stroke-width:0.8;" x="67.704337" xlink:href="#md7165bcc53" y="312.24351"/>
      </g>
     </g>
     <g id="text_27">
      <!-- 0 -->
      <g transform="translate(64.523087 326.841947)scale(0.1 -0.1)">
       <use xlink:href="#DejaVuSans-48"/>
      </g>
     </g>
    </g>
    <g id="xtick_12">
     <g id="line2d_24">
      <g>
       <use style="stroke:#000000;stroke-width:0.8;" x="150.264215" xlink:href="#md7165bcc53" y="312.24351"/>
      </g>
     </g>
     <g id="text_28">
      <!-- 20 -->
      <g transform="translate(143.901715 326.841947)scale(0.1 -0.1)">
       <use xlink:href="#DejaVuSans-50"/>
       <use x="63.623047" xlink:href="#DejaVuSans-48"/>
      </g>
     </g>
    </g>
    <g id="xtick_13">
     <g id="line2d_25">
      <g>
       <use style="stroke:#000000;stroke-width:0.8;" x="232.824093" xlink:href="#md7165bcc53" y="312.24351"/>
      </g>
     </g>
     <g id="text_29">
      <!-- 40 -->
      <g transform="translate(226.461593 326.841947)scale(0.1 -0.1)">
       <use xlink:href="#DejaVuSans-52"/>
       <use x="63.623047" xlink:href="#DejaVuSans-48"/>
      </g>
     </g>
    </g>
    <g id="xtick_14">
     <g id="line2d_26">
      <g>
       <use style="stroke:#000000;stroke-width:0.8;" x="315.383971" xlink:href="#md7165bcc53" y="312.24351"/>
      </g>
     </g>
     <g id="text_30">
      <!-- 60 -->
      <g transform="translate(309.021471 326.841947)scale(0.1 -0.1)">
       <use xlink:href="#DejaVuSans-54"/>
       <use x="63.623047" xlink:href="#DejaVuSans-48"/>
      </g>
     </g>
    </g>
    <g id="xtick_15">
     <g id="line2d_27">
      <g>
       <use style="stroke:#000000;stroke-width:0.8;" x="397.943849" xlink:href="#md7165bcc53" y="312.24351"/>
      </g>
     </g>
     <g id="text_31">
      <!-- 80 -->
      <g transform="translate(391.581349 326.841947)scale(0.1 -0.1)">
       <use xlink:href="#DejaVuSans-56"/>
       <use x="63.623047" xlink:href="#DejaVuSans-48"/>
      </g>
     </g>
    </g>
    <g id="text_32">
     <!-- Dias -->
     <g transform="translate(242.55625 340.520072)scale(0.1 -0.1)">
      <use xlink:href="#DejaVuSans-68"/>
      <use x="77.001953" xlink:href="#DejaVuSans-105"/>
      <use x="104.785156" xlink:href="#DejaVuSans-97"/>
      <use x="166.064453" xlink:href="#DejaVuSans-115"/>
     </g>
    </g>
   </g>
   <g id="matplotlib.axis_6">
    <g id="ytick_11">
     <g id="line2d_28">
      <g>
       <use style="stroke:#000000;stroke-width:0.8;" x="49.128365" xlink:href="#m8ba522412a" y="287.680361"/>
      </g>
     </g>
     <g id="text_33">
      <!-- 1 -->
      <g transform="translate(35.765865 291.47958)scale(0.1 -0.1)">
       <use xlink:href="#DejaVuSans-49"/>
      </g>
     </g>
    </g>
    <g id="ytick_12">
     <g id="line2d_29">
      <g>
       <use style="stroke:#000000;stroke-width:0.8;" x="49.128365" xlink:href="#m8ba522412a" y="244.054633"/>
      </g>
     </g>
     <g id="text_34">
      <!-- 2 -->
      <g transform="translate(35.765865 247.853852)scale(0.1 -0.1)">
       <use xlink:href="#DejaVuSans-50"/>
      </g>
     </g>
    </g>
    <g id="ytick_13">
     <g id="line2d_30">
      <g>
       <use style="stroke:#000000;stroke-width:0.8;" x="49.128365" xlink:href="#m8ba522412a" y="200.428905"/>
      </g>
     </g>
     <g id="text_35">
      <!-- 3 -->
      <g transform="translate(35.765865 204.228124)scale(0.1 -0.1)">
       <use xlink:href="#DejaVuSans-51"/>
      </g>
     </g>
    </g>
    <g id="text_36">
     <!-- r0 -->
     <defs>
      <path d="M 41.109375 46.296875 
Q 39.59375 47.171875 37.8125 47.578125 
Q 36.03125 48 33.890625 48 
Q 26.265625 48 22.1875 43.046875 
Q 18.109375 38.09375 18.109375 28.8125 
L 18.109375 0 
L 9.078125 0 
L 9.078125 54.6875 
L 18.109375 54.6875 
L 18.109375 46.1875 
Q 20.953125 51.171875 25.484375 53.578125 
Q 30.03125 56 36.53125 56 
Q 37.453125 56 38.578125 55.875 
Q 39.703125 55.765625 41.0625 55.515625 
z
" id="DejaVuSans-114"/>
     </defs>
     <g transform="translate(29.686177 257.681656)rotate(-90)scale(0.1 -0.1)">
      <use xlink:href="#DejaVuSans-114"/>
      <use x="41.113281" xlink:href="#DejaVuSans-48"/>
     </g>
    </g>
   </g>
   <g id="line2d_31">
    <path clip-path="url(#p9118d98f30)" d="M 67.704337 198.082599 
L 71.832331 211.214853 
L 75.960325 220.831567 
L 80.088319 242.580386 
L 84.216313 248.496154 
L 88.344307 253.68944 
L 92.472301 258.116388 
L 96.600295 260.574197 
L 100.728289 262.604499 
L 104.856282 264.150633 
L 108.984276 264.261313 
L 113.11227 263.880846 
L 117.240264 261.973015 
L 121.368258 259.261123 
L 125.496252 255.651938 
L 129.624246 251.355862 
L 133.75224 247.01428 
L 137.880234 244.97862 
L 142.008227 243.83826 
L 146.136221 244.443745 
L 150.264215 246.344699 
L 154.392209 249.465188 
L 158.520203 253.383208 
L 162.648197 258.160485 
L 166.776191 262.248535 
L 170.904185 266.633009 
L 175.032179 270.327969 
L 179.160172 272.648639 
L 183.288166 273.371999 
L 187.41616 272.960443 
L 191.544154 270.796199 
L 195.672148 267.828556 
L 199.800142 263.686089 
L 203.928136 259.683551 
L 208.05613 256.992536 
L 212.184124 255.613491 
L 216.312117 255.039205 
L 220.440111 255.843456 
L 224.568105 257.783204 
L 228.696099 260.7874 
L 232.824093 264.348502 
L 236.952087 268.035826 
L 241.080081 271.746246 
L 245.208075 275.641716 
L 249.336069 278.94958 
L 253.464062 281.265393 
L 257.592056 282.584651 
L 261.72005 282.955957 
L 265.848044 282.215603 
L 269.976038 280.693593 
L 274.104032 278.41459 
L 278.232026 276.333989 
L 282.36002 275.142407 
L 286.488014 274.684805 
L 290.616007 274.550548 
L 294.744001 275.164605 
L 298.871995 275.875255 
L 302.999989 276.46347 
L 307.127983 276.255711 
L 311.255977 274.663172 
L 315.383971 271.689812 
L 319.511965 268.315311 
L 323.639959 264.112618 
L 327.767952 259.84096 
L 331.895946 255.982423 
L 336.02394 253.076912 
L 340.151934 251.243925 
L 344.279928 250.628006 
L 348.407922 250.639972 
L 352.535916 251.737337 
L 356.66391 253.890989 
L 360.791904 257.014571 
L 364.919897 260.900998 
L 369.047891 265.754651 
L 373.175885 271.430243 
L 377.303879 278.047139 
L 381.431873 285.149476 
L 385.559867 292.168342 
L 389.687861 298.660417 
L 393.815855 304.025834 
L 397.943849 306.807276 
L 402.071842 306.126131 
L 406.199836 301.443964 
L 410.32783 292.875394 
L 414.455824 282.326605 
L 418.583818 273.147052 
L 422.711812 264.892426 
L 426.839806 259.554676 
L 430.9678 264.358739 
L 435.095794 262.378926 
L 439.223787 262.368299 
" style="fill:none;stroke:#ff0000;stroke-linecap:square;stroke-width:1.5;"/>
   </g>
   <g id="patch_195">
    <path d="M 49.128365 312.24351 
L 49.128365 192.646365 
" style="fill:none;stroke:#000000;stroke-linecap:square;stroke-linejoin:miter;stroke-width:0.8;"/>
   </g>
   <g id="patch_196">
    <path d="M 457.79976 312.24351 
L 457.79976 192.646365 
" style="fill:none;stroke:#000000;stroke-linecap:square;stroke-linejoin:miter;stroke-width:0.8;"/>
   </g>
   <g id="patch_197">
    <path d="M 49.128365 312.24351 
L 457.79976 312.24351 
" style="fill:none;stroke:#000000;stroke-linecap:square;stroke-linejoin:miter;stroke-width:0.8;"/>
   </g>
   <g id="patch_198">
    <path d="M 49.128365 192.646365 
L 457.79976 192.646365 
" style="fill:none;stroke:#000000;stroke-linecap:square;stroke-linejoin:miter;stroke-width:0.8;"/>
   </g>
   <g id="text_37">
    <!-- r0 aproximado - RR -->
    <defs>
     <path d="M 18.109375 8.203125 
L 18.109375 -20.796875 
L 9.078125 -20.796875 
L 9.078125 54.6875 
L 18.109375 54.6875 
L 18.109375 46.390625 
Q 20.953125 51.265625 25.265625 53.625 
Q 29.59375 56 35.59375 56 
Q 45.5625 56 51.78125 48.09375 
Q 58.015625 40.1875 58.015625 27.296875 
Q 58.015625 14.40625 51.78125 6.484375 
Q 45.5625 -1.421875 35.59375 -1.421875 
Q 29.59375 -1.421875 25.265625 0.953125 
Q 20.953125 3.328125 18.109375 8.203125 
z
M 48.6875 27.296875 
Q 48.6875 37.203125 44.609375 42.84375 
Q 40.53125 48.484375 33.40625 48.484375 
Q 26.265625 48.484375 22.1875 42.84375 
Q 18.109375 37.203125 18.109375 27.296875 
Q 18.109375 17.390625 22.1875 11.75 
Q 26.265625 6.109375 33.40625 6.109375 
Q 40.53125 6.109375 44.609375 11.75 
Q 48.6875 17.390625 48.6875 27.296875 
z
" id="DejaVuSans-112"/>
     <path d="M 54.890625 54.6875 
L 35.109375 28.078125 
L 55.90625 0 
L 45.3125 0 
L 29.390625 21.484375 
L 13.484375 0 
L 2.875 0 
L 24.125 28.609375 
L 4.6875 54.6875 
L 15.28125 54.6875 
L 29.78125 35.203125 
L 44.28125 54.6875 
z
" id="DejaVuSans-120"/>
    </defs>
    <g transform="translate(195.435625 186.646365)scale(0.12 -0.12)">
     <use xlink:href="#DejaVuSans-114"/>
     <use x="41.113281" xlink:href="#DejaVuSans-48"/>
     <use x="104.736328" xlink:href="#DejaVuSans-32"/>
     <use x="136.523438" xlink:href="#DejaVuSans-97"/>
     <use x="197.802734" xlink:href="#DejaVuSans-112"/>
     <use x="261.279297" xlink:href="#DejaVuSans-114"/>
     <use x="300.142578" xlink:href="#DejaVuSans-111"/>
     <use x="358.199219" xlink:href="#DejaVuSans-120"/>
     <use x="417.378906" xlink:href="#DejaVuSans-105"/>
     <use x="445.162109" xlink:href="#DejaVuSans-109"/>
     <use x="542.574219" xlink:href="#DejaVuSans-97"/>
     <use x="603.853516" xlink:href="#DejaVuSans-100"/>
     <use x="667.330078" xlink:href="#DejaVuSans-111"/>
     <use x="728.511719" xlink:href="#DejaVuSans-32"/>
     <use x="760.298828" xlink:href="#DejaVuSans-45"/>
     <use x="796.382812" xlink:href="#DejaVuSans-32"/>
     <use x="828.169922" xlink:href="#DejaVuSans-82"/>
     <use x="897.652344" xlink:href="#DejaVuSans-82"/>
    </g>
   </g>
  </g>
 </g>
 <defs>
  <clipPath id="p9f5108b320">
   <rect height="119.597145" width="179.148645" x="49.128365" y="18.118365"/>
  </clipPath>
  <clipPath id="pa6b33d85ce">
   <rect height="119.597145" width="179.148645" x="278.651115" y="18.118365"/>
  </clipPath>
  <clipPath id="p9118d98f30">
   <rect height="119.597145" width="408.671395" x="49.128365" y="192.646365"/>
  </clipPath>
 </defs>
</svg>
