<?xml version="1.0" encoding="utf-8" standalone="no"?>
<!DOCTYPE svg PUBLIC "-//W3C//DTD SVG 1.1//EN"
  "http://www.w3.org/Graphics/SVG/1.1/DTD/svg11.dtd">
<!-- Created with matplotlib (https://matplotlib.org/) -->
<svg height="345.6pt" version="1.1" viewBox="0 0 460.8 345.6" width="460.8pt" xmlns="http://www.w3.org/2000/svg" xmlns:xlink="http://www.w3.org/1999/xlink">
 <defs>
  <style type="text/css">
*{stroke-linecap:butt;stroke-linejoin:round;}
  </style>
 </defs>
 <g id="figure_1">
  <g id="patch_1">
   <path d="M 0 345.6 
L 460.8 345.6 
L 460.8 0 
L 0 0 
z
" style="fill:#ffffff;"/>
  </g>
  <g id="axes_1">
   <g id="patch_2">
    <path d="M 50.882792 325.921635 
L 137.325284 325.921635 
L 137.325284 18.118365 
L 50.882792 18.118365 
z
" style="fill:#ffffff;"/>
   </g>
   <g id="patch_3">
    <path clip-path="url(#p5855ed5b6a)" d="M 54.811996 325.921635 
L 55.504367 325.921635 
L 55.504367 325.849614 
L 54.811996 325.849614 
z
" style="fill:#1f77b4;"/>
   </g>
   <g id="patch_4">
    <path clip-path="url(#p5855ed5b6a)" d="M 55.67746 325.921635 
L 56.36983 325.921635 
L 56.36983 325.849614 
L 55.67746 325.849614 
z
" style="fill:#1f77b4;"/>
   </g>
   <g id="patch_5">
    <path clip-path="url(#p5855ed5b6a)" d="M 56.542923 325.921635 
L 57.235294 325.921635 
L 57.235294 325.633552 
L 56.542923 325.633552 
z
" style="fill:#1f77b4;"/>
   </g>
   <g id="patch_6">
    <path clip-path="url(#p5855ed5b6a)" d="M 57.408387 325.921635 
L 58.100757 325.921635 
L 58.100757 325.633552 
L 57.408387 325.633552 
z
" style="fill:#1f77b4;"/>
   </g>
   <g id="patch_7">
    <path clip-path="url(#p5855ed5b6a)" d="M 58.27385 325.921635 
L 58.966221 325.921635 
L 58.966221 325.561531 
L 58.27385 325.561531 
z
" style="fill:#1f77b4;"/>
   </g>
   <g id="patch_8">
    <path clip-path="url(#p5855ed5b6a)" d="M 59.139313 325.921635 
L 59.831684 325.921635 
L 59.831684 325.489511 
L 59.139313 325.489511 
z
" style="fill:#1f77b4;"/>
   </g>
   <g id="patch_9">
    <path clip-path="url(#p5855ed5b6a)" d="M 60.004777 325.921635 
L 60.697148 325.921635 
L 60.697148 325.345469 
L 60.004777 325.345469 
z
" style="fill:#1f77b4;"/>
   </g>
   <g id="patch_10">
    <path clip-path="url(#p5855ed5b6a)" d="M 60.87024 325.921635 
L 61.562611 325.921635 
L 61.562611 325.345469 
L 60.87024 325.345469 
z
" style="fill:#1f77b4;"/>
   </g>
   <g id="patch_11">
    <path clip-path="url(#p5855ed5b6a)" d="M 61.735704 325.921635 
L 62.428075 325.921635 
L 62.428075 325.345469 
L 61.735704 325.345469 
z
" style="fill:#1f77b4;"/>
   </g>
   <g id="patch_12">
    <path clip-path="url(#p5855ed5b6a)" d="M 62.601167 325.921635 
L 63.293538 325.921635 
L 63.293538 325.129407 
L 62.601167 325.129407 
z
" style="fill:#1f77b4;"/>
   </g>
   <g id="patch_13">
    <path clip-path="url(#p5855ed5b6a)" d="M 63.466631 325.921635 
L 64.159002 325.921635 
L 64.159002 324.985366 
L 63.466631 324.985366 
z
" style="fill:#1f77b4;"/>
   </g>
   <g id="patch_14">
    <path clip-path="url(#p5855ed5b6a)" d="M 64.332094 325.921635 
L 65.024465 325.921635 
L 65.024465 324.841324 
L 64.332094 324.841324 
z
" style="fill:#1f77b4;"/>
   </g>
   <g id="patch_15">
    <path clip-path="url(#p5855ed5b6a)" d="M 65.197558 325.921635 
L 65.889929 325.921635 
L 65.889929 324.589252 
L 65.197558 324.589252 
z
" style="fill:#1f77b4;"/>
   </g>
   <g id="patch_16">
    <path clip-path="url(#p5855ed5b6a)" d="M 66.063021 325.921635 
L 66.755392 325.921635 
L 66.755392 324.4092 
L 66.063021 324.4092 
z
" style="fill:#1f77b4;"/>
   </g>
   <g id="patch_17">
    <path clip-path="url(#p5855ed5b6a)" d="M 66.928485 325.921635 
L 67.620856 325.921635 
L 67.620856 324.4092 
L 66.928485 324.4092 
z
" style="fill:#1f77b4;"/>
   </g>
   <g id="patch_18">
    <path clip-path="url(#p5855ed5b6a)" d="M 67.793948 325.921635 
L 68.486319 325.921635 
L 68.486319 324.4092 
L 67.793948 324.4092 
z
" style="fill:#1f77b4;"/>
   </g>
   <g id="patch_19">
    <path clip-path="url(#p5855ed5b6a)" d="M 68.659412 325.921635 
L 69.351783 325.921635 
L 69.351783 324.157128 
L 68.659412 324.157128 
z
" style="fill:#1f77b4;"/>
   </g>
   <g id="patch_20">
    <path clip-path="url(#p5855ed5b6a)" d="M 69.524875 325.921635 
L 70.217246 325.921635 
L 70.217246 324.049097 
L 69.524875 324.049097 
z
" style="fill:#1f77b4;"/>
   </g>
   <g id="patch_21">
    <path clip-path="url(#p5855ed5b6a)" d="M 70.390339 325.921635 
L 71.08271 325.921635 
L 71.08271 323.652983 
L 70.390339 323.652983 
z
" style="fill:#1f77b4;"/>
   </g>
   <g id="patch_22">
    <path clip-path="url(#p5855ed5b6a)" d="M 71.255802 325.921635 
L 71.948173 325.921635 
L 71.948173 323.220859 
L 71.255802 323.220859 
z
" style="fill:#1f77b4;"/>
   </g>
   <g id="patch_23">
    <path clip-path="url(#p5855ed5b6a)" d="M 72.121266 325.921635 
L 72.813636 325.921635 
L 72.813636 323.076817 
L 72.121266 323.076817 
z
" style="fill:#1f77b4;"/>
   </g>
   <g id="patch_24">
    <path clip-path="url(#p5855ed5b6a)" d="M 72.986729 325.921635 
L 73.6791 325.921635 
L 73.6791 322.932776 
L 72.986729 322.932776 
z
" style="fill:#1f77b4;"/>
   </g>
   <g id="patch_25">
    <path clip-path="url(#p5855ed5b6a)" d="M 73.852193 325.921635 
L 74.544563 325.921635 
L 74.544563 321.852465 
L 73.852193 321.852465 
z
" style="fill:#1f77b4;"/>
   </g>
   <g id="patch_26">
    <path clip-path="url(#p5855ed5b6a)" d="M 74.717656 325.921635 
L 75.410027 325.921635 
L 75.410027 321.816455 
L 74.717656 321.816455 
z
" style="fill:#1f77b4;"/>
   </g>
   <g id="patch_27">
    <path clip-path="url(#p5855ed5b6a)" d="M 75.58312 325.921635 
L 76.27549 325.921635 
L 76.27549 320.808165 
L 75.58312 320.808165 
z
" style="fill:#1f77b4;"/>
   </g>
   <g id="patch_28">
    <path clip-path="url(#p5855ed5b6a)" d="M 76.448583 325.921635 
L 77.140954 325.921635 
L 77.140954 320.015937 
L 76.448583 320.015937 
z
" style="fill:#1f77b4;"/>
   </g>
   <g id="patch_29">
    <path clip-path="url(#p5855ed5b6a)" d="M 77.314047 325.921635 
L 78.006417 325.921635 
L 78.006417 318.683555 
L 77.314047 318.683555 
z
" style="fill:#1f77b4;"/>
   </g>
   <g id="patch_30">
    <path clip-path="url(#p5855ed5b6a)" d="M 78.17951 325.921635 
L 78.871881 325.921635 
L 78.871881 317.927337 
L 78.17951 317.927337 
z
" style="fill:#1f77b4;"/>
   </g>
   <g id="patch_31">
    <path clip-path="url(#p5855ed5b6a)" d="M 79.044974 325.921635 
L 79.737344 325.921635 
L 79.737344 317.135109 
L 79.044974 317.135109 
z
" style="fill:#1f77b4;"/>
   </g>
   <g id="patch_32">
    <path clip-path="url(#p5855ed5b6a)" d="M 79.910437 325.921635 
L 80.602808 325.921635 
L 80.602808 317.027078 
L 79.910437 317.027078 
z
" style="fill:#1f77b4;"/>
   </g>
   <g id="patch_33">
    <path clip-path="url(#p5855ed5b6a)" d="M 80.775901 325.921635 
L 81.468271 325.921635 
L 81.468271 315.838737 
L 80.775901 315.838737 
z
" style="fill:#1f77b4;"/>
   </g>
   <g id="patch_34">
    <path clip-path="url(#p5855ed5b6a)" d="M 81.641364 325.921635 
L 82.333735 325.921635 
L 82.333735 315.226561 
L 81.641364 315.226561 
z
" style="fill:#1f77b4;"/>
   </g>
   <g id="patch_35">
    <path clip-path="url(#p5855ed5b6a)" d="M 82.506827 325.921635 
L 83.199198 325.921635 
L 83.199198 314.974488 
L 82.506827 314.974488 
z
" style="fill:#1f77b4;"/>
   </g>
   <g id="patch_36">
    <path clip-path="url(#p5855ed5b6a)" d="M 83.372291 325.921635 
L 84.064662 325.921635 
L 84.064662 313.498064 
L 83.372291 313.498064 
z
" style="fill:#1f77b4;"/>
   </g>
   <g id="patch_37">
    <path clip-path="url(#p5855ed5b6a)" d="M 84.237754 325.921635 
L 84.930125 325.921635 
L 84.930125 311.481484 
L 84.237754 311.481484 
z
" style="fill:#1f77b4;"/>
   </g>
   <g id="patch_38">
    <path clip-path="url(#p5855ed5b6a)" d="M 85.103218 325.921635 
L 85.795589 325.921635 
L 85.795589 311.265422 
L 85.103218 311.265422 
z
" style="fill:#1f77b4;"/>
   </g>
   <g id="patch_39">
    <path clip-path="url(#p5855ed5b6a)" d="M 85.968681 325.921635 
L 86.661052 325.921635 
L 86.661052 310.617236 
L 85.968681 310.617236 
z
" style="fill:#1f77b4;"/>
   </g>
   <g id="patch_40">
    <path clip-path="url(#p5855ed5b6a)" d="M 86.834145 325.921635 
L 87.526516 325.921635 
L 87.526516 309.644957 
L 86.834145 309.644957 
z
" style="fill:#1f77b4;"/>
   </g>
   <g id="patch_41">
    <path clip-path="url(#p5855ed5b6a)" d="M 87.699608 325.921635 
L 88.391979 325.921635 
L 88.391979 307.232263 
L 87.699608 307.232263 
z
" style="fill:#1f77b4;"/>
   </g>
   <g id="patch_42">
    <path clip-path="url(#p5855ed5b6a)" d="M 88.565072 325.921635 
L 89.257443 325.921635 
L 89.257443 304.243404 
L 88.565072 304.243404 
z
" style="fill:#1f77b4;"/>
   </g>
   <g id="patch_43">
    <path clip-path="url(#p5855ed5b6a)" d="M 89.430535 325.921635 
L 90.122906 325.921635 
L 90.122906 301.866721 
L 89.430535 301.866721 
z
" style="fill:#1f77b4;"/>
   </g>
   <g id="patch_44">
    <path clip-path="url(#p5855ed5b6a)" d="M 90.295999 325.921635 
L 90.98837 325.921635 
L 90.98837 299.273976 
L 90.295999 299.273976 
z
" style="fill:#1f77b4;"/>
   </g>
   <g id="patch_45">
    <path clip-path="url(#p5855ed5b6a)" d="M 91.161462 325.921635 
L 91.853833 325.921635 
L 91.853833 296.897292 
L 91.161462 296.897292 
z
" style="fill:#1f77b4;"/>
   </g>
   <g id="patch_46">
    <path clip-path="url(#p5855ed5b6a)" d="M 92.026926 325.921635 
L 92.719297 325.921635 
L 92.719297 294.62864 
L 92.026926 294.62864 
z
" style="fill:#1f77b4;"/>
   </g>
   <g id="patch_47">
    <path clip-path="url(#p5855ed5b6a)" d="M 92.892389 325.921635 
L 93.58476 325.921635 
L 93.58476 292.359988 
L 92.892389 292.359988 
z
" style="fill:#1f77b4;"/>
   </g>
   <g id="patch_48">
    <path clip-path="url(#p5855ed5b6a)" d="M 93.757853 325.921635 
L 94.450224 325.921635 
L 94.450224 289.191077 
L 93.757853 289.191077 
z
" style="fill:#1f77b4;"/>
   </g>
   <g id="patch_49">
    <path clip-path="url(#p5855ed5b6a)" d="M 94.623316 325.921635 
L 95.315687 325.921635 
L 95.315687 285.446001 
L 94.623316 285.446001 
z
" style="fill:#1f77b4;"/>
   </g>
   <g id="patch_50">
    <path clip-path="url(#p5855ed5b6a)" d="M 95.48878 325.921635 
L 96.18115 325.921635 
L 96.18115 282.637194 
L 95.48878 282.637194 
z
" style="fill:#1f77b4;"/>
   </g>
   <g id="patch_51">
    <path clip-path="url(#p5855ed5b6a)" d="M 96.354243 325.921635 
L 97.046614 325.921635 
L 97.046614 279.468283 
L 96.354243 279.468283 
z
" style="fill:#1f77b4;"/>
   </g>
   <g id="patch_52">
    <path clip-path="url(#p5855ed5b6a)" d="M 97.219707 325.921635 
L 97.912077 325.921635 
L 97.912077 279.288231 
L 97.219707 279.288231 
z
" style="fill:#1f77b4;"/>
   </g>
   <g id="patch_53">
    <path clip-path="url(#p5855ed5b6a)" d="M 98.08517 325.921635 
L 98.777541 325.921635 
L 98.777541 278.099889 
L 98.08517 278.099889 
z
" style="fill:#1f77b4;"/>
   </g>
   <g id="patch_54">
    <path clip-path="url(#p5855ed5b6a)" d="M 98.950634 325.921635 
L 99.643004 325.921635 
L 99.643004 275.11103 
L 98.950634 275.11103 
z
" style="fill:#1f77b4;"/>
   </g>
   <g id="patch_55">
    <path clip-path="url(#p5855ed5b6a)" d="M 99.816097 325.921635 
L 100.508468 325.921635 
L 100.508468 271.906109 
L 99.816097 271.906109 
z
" style="fill:#1f77b4;"/>
   </g>
   <g id="patch_56">
    <path clip-path="url(#p5855ed5b6a)" d="M 100.681561 325.921635 
L 101.373931 325.921635 
L 101.373931 268.701188 
L 100.681561 268.701188 
z
" style="fill:#1f77b4;"/>
   </g>
   <g id="patch_57">
    <path clip-path="url(#p5855ed5b6a)" d="M 101.547024 325.921635 
L 102.239395 325.921635 
L 102.239395 264.487977 
L 101.547024 264.487977 
z
" style="fill:#1f77b4;"/>
   </g>
   <g id="patch_58">
    <path clip-path="url(#p5855ed5b6a)" d="M 102.412488 325.921635 
L 103.104858 325.921635 
L 103.104858 261.427097 
L 102.412488 261.427097 
z
" style="fill:#1f77b4;"/>
   </g>
   <g id="patch_59">
    <path clip-path="url(#p5855ed5b6a)" d="M 103.277951 325.921635 
L 103.970322 325.921635 
L 103.970322 258.366217 
L 103.277951 258.366217 
z
" style="fill:#1f77b4;"/>
   </g>
   <g id="patch_60">
    <path clip-path="url(#p5855ed5b6a)" d="M 104.143415 325.921635 
L 104.835785 325.921635 
L 104.835785 254.441089 
L 104.143415 254.441089 
z
" style="fill:#1f77b4;"/>
   </g>
   <g id="patch_61">
    <path clip-path="url(#p5855ed5b6a)" d="M 105.008878 325.921635 
L 105.701249 325.921635 
L 105.701249 251.48824 
L 105.008878 251.48824 
z
" style="fill:#1f77b4;"/>
   </g>
   <g id="patch_62">
    <path clip-path="url(#p5855ed5b6a)" d="M 105.874341 325.921635 
L 106.566712 325.921635 
L 106.566712 248.643423 
L 105.874341 248.643423 
z
" style="fill:#1f77b4;"/>
   </g>
   <g id="patch_63">
    <path clip-path="url(#p5855ed5b6a)" d="M 106.739805 325.921635 
L 107.432176 325.921635 
L 107.432176 242.881766 
L 106.739805 242.881766 
z
" style="fill:#1f77b4;"/>
   </g>
   <g id="patch_64">
    <path clip-path="url(#p5855ed5b6a)" d="M 107.605268 325.921635 
L 108.297639 325.921635 
L 108.297639 240.433063 
L 107.605268 240.433063 
z
" style="fill:#1f77b4;"/>
   </g>
   <g id="patch_65">
    <path clip-path="url(#p5855ed5b6a)" d="M 108.470732 325.921635 
L 109.163103 325.921635 
L 109.163103 238.09239 
L 108.470732 238.09239 
z
" style="fill:#1f77b4;"/>
   </g>
   <g id="patch_66">
    <path clip-path="url(#p5855ed5b6a)" d="M 109.336195 325.921635 
L 110.028566 325.921635 
L 110.028566 235.391613 
L 109.336195 235.391613 
z
" style="fill:#1f77b4;"/>
   </g>
   <g id="patch_67">
    <path clip-path="url(#p5855ed5b6a)" d="M 110.201659 325.921635 
L 110.89403 325.921635 
L 110.89403 232.906899 
L 110.201659 232.906899 
z
" style="fill:#1f77b4;"/>
   </g>
   <g id="patch_68">
    <path clip-path="url(#p5855ed5b6a)" d="M 111.067122 325.921635 
L 111.759493 325.921635 
L 111.759493 229.341875 
L 111.067122 229.341875 
z
" style="fill:#1f77b4;"/>
   </g>
   <g id="patch_69">
    <path clip-path="url(#p5855ed5b6a)" d="M 111.932586 325.921635 
L 112.624957 325.921635 
L 112.624957 219.367007 
L 111.932586 219.367007 
z
" style="fill:#1f77b4;"/>
   </g>
   <g id="patch_70">
    <path clip-path="url(#p5855ed5b6a)" d="M 112.798049 325.921635 
L 113.49042 325.921635 
L 113.49042 214.361569 
L 112.798049 214.361569 
z
" style="fill:#1f77b4;"/>
   </g>
   <g id="patch_71">
    <path clip-path="url(#p5855ed5b6a)" d="M 113.663513 325.921635 
L 114.355884 325.921635 
L 114.355884 207.123488 
L 113.663513 207.123488 
z
" style="fill:#1f77b4;"/>
   </g>
   <g id="patch_72">
    <path clip-path="url(#p5855ed5b6a)" d="M 114.528976 325.921635 
L 115.221347 325.921635 
L 115.221347 200.821677 
L 114.528976 200.821677 
z
" style="fill:#1f77b4;"/>
   </g>
   <g id="patch_73">
    <path clip-path="url(#p5855ed5b6a)" d="M 115.39444 325.921635 
L 116.086811 325.921635 
L 116.086811 192.97142 
L 115.39444 192.97142 
z
" style="fill:#1f77b4;"/>
   </g>
   <g id="patch_74">
    <path clip-path="url(#p5855ed5b6a)" d="M 116.259903 325.921635 
L 116.952274 325.921635 
L 116.952274 187.281785 
L 116.259903 187.281785 
z
" style="fill:#1f77b4;"/>
   </g>
   <g id="patch_75">
    <path clip-path="url(#p5855ed5b6a)" d="M 117.125367 325.921635 
L 117.817738 325.921635 
L 117.817738 176.730752 
L 117.125367 176.730752 
z
" style="fill:#1f77b4;"/>
   </g>
   <g id="patch_76">
    <path clip-path="url(#p5855ed5b6a)" d="M 117.99083 325.921635 
L 118.683201 325.921635 
L 118.683201 164.487233 
L 117.99083 164.487233 
z
" style="fill:#1f77b4;"/>
   </g>
   <g id="patch_77">
    <path clip-path="url(#p5855ed5b6a)" d="M 118.856294 325.921635 
L 119.548664 325.921635 
L 119.548664 151.955631 
L 118.856294 151.955631 
z
" style="fill:#1f77b4;"/>
   </g>
   <g id="patch_78">
    <path clip-path="url(#p5855ed5b6a)" d="M 119.721757 325.921635 
L 120.414128 325.921635 
L 120.414128 137.299418 
L 119.721757 137.299418 
z
" style="fill:#1f77b4;"/>
   </g>
   <g id="patch_79">
    <path clip-path="url(#p5855ed5b6a)" d="M 120.587221 325.921635 
L 121.279591 325.921635 
L 121.279591 126.820406 
L 120.587221 126.820406 
z
" style="fill:#1f77b4;"/>
   </g>
   <g id="patch_80">
    <path clip-path="url(#p5855ed5b6a)" d="M 121.452684 325.921635 
L 122.145055 325.921635 
L 122.145055 118.213932 
L 121.452684 118.213932 
z
" style="fill:#1f77b4;"/>
   </g>
   <g id="patch_81">
    <path clip-path="url(#p5855ed5b6a)" d="M 122.318148 325.921635 
L 123.010518 325.921635 
L 123.010518 107.842952 
L 122.318148 107.842952 
z
" style="fill:#1f77b4;"/>
   </g>
   <g id="patch_82">
    <path clip-path="url(#p5855ed5b6a)" d="M 123.183611 325.921635 
L 123.875982 325.921635 
L 123.875982 97.363939 
L 123.183611 97.363939 
z
" style="fill:#1f77b4;"/>
   </g>
   <g id="patch_83">
    <path clip-path="url(#p5855ed5b6a)" d="M 124.049075 325.921635 
L 124.741445 325.921635 
L 124.741445 88.469383 
L 124.049075 88.469383 
z
" style="fill:#1f77b4;"/>
   </g>
   <g id="patch_84">
    <path clip-path="url(#p5855ed5b6a)" d="M 124.914538 325.921635 
L 125.606909 325.921635 
L 125.606909 84.220161 
L 124.914538 84.220161 
z
" style="fill:#1f77b4;"/>
   </g>
   <g id="patch_85">
    <path clip-path="url(#p5855ed5b6a)" d="M 125.780002 325.921635 
L 126.472372 325.921635 
L 126.472372 79.538816 
L 125.780002 79.538816 
z
" style="fill:#1f77b4;"/>
   </g>
   <g id="patch_86">
    <path clip-path="url(#p5855ed5b6a)" d="M 126.645465 325.921635 
L 127.337836 325.921635 
L 127.337836 78.350474 
L 126.645465 78.350474 
z
" style="fill:#1f77b4;"/>
   </g>
   <g id="patch_87">
    <path clip-path="url(#p5855ed5b6a)" d="M 127.510928 325.921635 
L 128.203299 325.921635 
L 128.203299 78.134412 
L 127.510928 78.134412 
z
" style="fill:#1f77b4;"/>
   </g>
   <g id="patch_88">
    <path clip-path="url(#p5855ed5b6a)" d="M 128.376392 325.921635 
L 129.068763 325.921635 
L 129.068763 76.189853 
L 128.376392 76.189853 
z
" style="fill:#1f77b4;"/>
   </g>
   <g id="patch_89">
    <path clip-path="url(#p5855ed5b6a)" d="M 129.241855 325.921635 
L 129.934226 325.921635 
L 129.934226 68.447628 
L 129.241855 68.447628 
z
" style="fill:#1f77b4;"/>
   </g>
   <g id="patch_90">
    <path clip-path="url(#p5855ed5b6a)" d="M 130.107319 325.921635 
L 130.79969 325.921635 
L 130.79969 58.688823 
L 130.107319 58.688823 
z
" style="fill:#1f77b4;"/>
   </g>
   <g id="patch_91">
    <path clip-path="url(#p5855ed5b6a)" d="M 130.972782 325.921635 
L 131.665153 325.921635 
L 131.665153 50.442453 
L 130.972782 50.442453 
z
" style="fill:#1f77b4;"/>
   </g>
   <g id="patch_92">
    <path clip-path="url(#p5855ed5b6a)" d="M 131.838246 325.921635 
L 132.530617 325.921635 
L 132.530617 36.506447 
L 131.838246 36.506447 
z
" style="fill:#1f77b4;"/>
   </g>
   <g id="patch_93">
    <path clip-path="url(#p5855ed5b6a)" d="M 132.703709 325.921635 
L 133.39608 325.921635 
L 133.39608 33.517588 
L 132.703709 33.517588 
z
" style="fill:#1f77b4;"/>
   </g>
   <g id="matplotlib.axis_1">
    <g id="xtick_1">
     <g id="line2d_1">
      <defs>
       <path d="M 0 0 
L 0 3.5 
" id="m0cb72656a7" style="stroke:#000000;stroke-width:0.8;"/>
      </defs>
      <g>
       <use style="stroke:#000000;stroke-width:0.8;" x="55.158181" xlink:href="#m0cb72656a7" y="325.921635"/>
      </g>
     </g>
     <g id="text_1">
      <!-- 0 -->
      <defs>
       <path d="M 31.78125 66.40625 
Q 24.171875 66.40625 20.328125 58.90625 
Q 16.5 51.421875 16.5 36.375 
Q 16.5 21.390625 20.328125 13.890625 
Q 24.171875 6.390625 31.78125 6.390625 
Q 39.453125 6.390625 43.28125 13.890625 
Q 47.125 21.390625 47.125 36.375 
Q 47.125 51.421875 43.28125 58.90625 
Q 39.453125 66.40625 31.78125 66.40625 
z
M 31.78125 74.21875 
Q 44.046875 74.21875 50.515625 64.515625 
Q 56.984375 54.828125 56.984375 36.375 
Q 56.984375 17.96875 50.515625 8.265625 
Q 44.046875 -1.421875 31.78125 -1.421875 
Q 19.53125 -1.421875 13.0625 8.265625 
Q 6.59375 17.96875 6.59375 36.375 
Q 6.59375 54.828125 13.0625 64.515625 
Q 19.53125 74.21875 31.78125 74.21875 
z
" id="DejaVuSans-48"/>
      </defs>
      <g transform="translate(51.976931 340.520072)scale(0.1 -0.1)">
       <use xlink:href="#DejaVuSans-48"/>
      </g>
     </g>
    </g>
    <g id="xtick_2">
     <g id="line2d_2">
      <g>
       <use style="stroke:#000000;stroke-width:0.8;" x="98.431356" xlink:href="#m0cb72656a7" y="325.921635"/>
      </g>
     </g>
     <g id="text_2">
      <!-- 50 -->
      <defs>
       <path d="M 10.796875 72.90625 
L 49.515625 72.90625 
L 49.515625 64.59375 
L 19.828125 64.59375 
L 19.828125 46.734375 
Q 21.96875 47.46875 24.109375 47.828125 
Q 26.265625 48.1875 28.421875 48.1875 
Q 40.625 48.1875 47.75 41.5 
Q 54.890625 34.8125 54.890625 23.390625 
Q 54.890625 11.625 47.5625 5.09375 
Q 40.234375 -1.421875 26.90625 -1.421875 
Q 22.3125 -1.421875 17.546875 -0.640625 
Q 12.796875 0.140625 7.71875 1.703125 
L 7.71875 11.625 
Q 12.109375 9.234375 16.796875 8.0625 
Q 21.484375 6.890625 26.703125 6.890625 
Q 35.15625 6.890625 40.078125 11.328125 
Q 45.015625 15.765625 45.015625 23.390625 
Q 45.015625 31 40.078125 35.4375 
Q 35.15625 39.890625 26.703125 39.890625 
Q 22.75 39.890625 18.8125 39.015625 
Q 14.890625 38.140625 10.796875 36.28125 
z
" id="DejaVuSans-53"/>
      </defs>
      <g transform="translate(92.068856 340.520072)scale(0.1 -0.1)">
       <use xlink:href="#DejaVuSans-53"/>
       <use x="63.623047" xlink:href="#DejaVuSans-48"/>
      </g>
     </g>
    </g>
   </g>
   <g id="matplotlib.axis_2">
    <g id="ytick_1">
     <g id="line2d_3">
      <defs>
       <path d="M 0 0 
L -3.5 0 
" id="me2fb0cab65" style="stroke:#000000;stroke-width:0.8;"/>
      </defs>
      <g>
       <use style="stroke:#000000;stroke-width:0.8;" x="50.882792" xlink:href="#me2fb0cab65" y="325.921635"/>
      </g>
     </g>
     <g id="text_3">
      <!-- 0 -->
      <g transform="translate(37.520292 329.720854)scale(0.1 -0.1)">
       <use xlink:href="#DejaVuSans-48"/>
      </g>
     </g>
    </g>
    <g id="ytick_2">
     <g id="line2d_4">
      <g>
       <use style="stroke:#000000;stroke-width:0.8;" x="50.882792" xlink:href="#me2fb0cab65" y="289.911284"/>
      </g>
     </g>
     <g id="text_4">
      <!-- 1000 -->
      <defs>
       <path d="M 12.40625 8.296875 
L 28.515625 8.296875 
L 28.515625 63.921875 
L 10.984375 60.40625 
L 10.984375 69.390625 
L 28.421875 72.90625 
L 38.28125 72.90625 
L 38.28125 8.296875 
L 54.390625 8.296875 
L 54.390625 0 
L 12.40625 0 
z
" id="DejaVuSans-49"/>
      </defs>
      <g transform="translate(18.432792 293.710503)scale(0.1 -0.1)">
       <use xlink:href="#DejaVuSans-49"/>
       <use x="63.623047" xlink:href="#DejaVuSans-48"/>
       <use x="127.246094" xlink:href="#DejaVuSans-48"/>
       <use x="190.869141" xlink:href="#DejaVuSans-48"/>
      </g>
     </g>
    </g>
    <g id="ytick_3">
     <g id="line2d_5">
      <g>
       <use style="stroke:#000000;stroke-width:0.8;" x="50.882792" xlink:href="#me2fb0cab65" y="253.900934"/>
      </g>
     </g>
     <g id="text_5">
      <!-- 2000 -->
      <defs>
       <path d="M 19.1875 8.296875 
L 53.609375 8.296875 
L 53.609375 0 
L 7.328125 0 
L 7.328125 8.296875 
Q 12.9375 14.109375 22.625 23.890625 
Q 32.328125 33.6875 34.8125 36.53125 
Q 39.546875 41.84375 41.421875 45.53125 
Q 43.3125 49.21875 43.3125 52.78125 
Q 43.3125 58.59375 39.234375 62.25 
Q 35.15625 65.921875 28.609375 65.921875 
Q 23.96875 65.921875 18.8125 64.3125 
Q 13.671875 62.703125 7.8125 59.421875 
L 7.8125 69.390625 
Q 13.765625 71.78125 18.9375 73 
Q 24.125 74.21875 28.421875 74.21875 
Q 39.75 74.21875 46.484375 68.546875 
Q 53.21875 62.890625 53.21875 53.421875 
Q 53.21875 48.921875 51.53125 44.890625 
Q 49.859375 40.875 45.40625 35.40625 
Q 44.1875 33.984375 37.640625 27.21875 
Q 31.109375 20.453125 19.1875 8.296875 
z
" id="DejaVuSans-50"/>
      </defs>
      <g transform="translate(18.432792 257.700152)scale(0.1 -0.1)">
       <use xlink:href="#DejaVuSans-50"/>
       <use x="63.623047" xlink:href="#DejaVuSans-48"/>
       <use x="127.246094" xlink:href="#DejaVuSans-48"/>
       <use x="190.869141" xlink:href="#DejaVuSans-48"/>
      </g>
     </g>
    </g>
    <g id="ytick_4">
     <g id="line2d_6">
      <g>
       <use style="stroke:#000000;stroke-width:0.8;" x="50.882792" xlink:href="#me2fb0cab65" y="217.890583"/>
      </g>
     </g>
     <g id="text_6">
      <!-- 3000 -->
      <defs>
       <path d="M 40.578125 39.3125 
Q 47.65625 37.796875 51.625 33 
Q 55.609375 28.21875 55.609375 21.1875 
Q 55.609375 10.40625 48.1875 4.484375 
Q 40.765625 -1.421875 27.09375 -1.421875 
Q 22.515625 -1.421875 17.65625 -0.515625 
Q 12.796875 0.390625 7.625 2.203125 
L 7.625 11.71875 
Q 11.71875 9.328125 16.59375 8.109375 
Q 21.484375 6.890625 26.8125 6.890625 
Q 36.078125 6.890625 40.9375 10.546875 
Q 45.796875 14.203125 45.796875 21.1875 
Q 45.796875 27.640625 41.28125 31.265625 
Q 36.765625 34.90625 28.71875 34.90625 
L 20.21875 34.90625 
L 20.21875 43.015625 
L 29.109375 43.015625 
Q 36.375 43.015625 40.234375 45.921875 
Q 44.09375 48.828125 44.09375 54.296875 
Q 44.09375 59.90625 40.109375 62.90625 
Q 36.140625 65.921875 28.71875 65.921875 
Q 24.65625 65.921875 20.015625 65.03125 
Q 15.375 64.15625 9.8125 62.3125 
L 9.8125 71.09375 
Q 15.4375 72.65625 20.34375 73.4375 
Q 25.25 74.21875 29.59375 74.21875 
Q 40.828125 74.21875 47.359375 69.109375 
Q 53.90625 64.015625 53.90625 55.328125 
Q 53.90625 49.265625 50.4375 45.09375 
Q 46.96875 40.921875 40.578125 39.3125 
z
" id="DejaVuSans-51"/>
      </defs>
      <g transform="translate(18.432792 221.689802)scale(0.1 -0.1)">
       <use xlink:href="#DejaVuSans-51"/>
       <use x="63.623047" xlink:href="#DejaVuSans-48"/>
       <use x="127.246094" xlink:href="#DejaVuSans-48"/>
       <use x="190.869141" xlink:href="#DejaVuSans-48"/>
      </g>
     </g>
    </g>
    <g id="ytick_5">
     <g id="line2d_7">
      <g>
       <use style="stroke:#000000;stroke-width:0.8;" x="50.882792" xlink:href="#me2fb0cab65" y="181.880232"/>
      </g>
     </g>
     <g id="text_7">
      <!-- 4000 -->
      <defs>
       <path d="M 37.796875 64.3125 
L 12.890625 25.390625 
L 37.796875 25.390625 
z
M 35.203125 72.90625 
L 47.609375 72.90625 
L 47.609375 25.390625 
L 58.015625 25.390625 
L 58.015625 17.1875 
L 47.609375 17.1875 
L 47.609375 0 
L 37.796875 0 
L 37.796875 17.1875 
L 4.890625 17.1875 
L 4.890625 26.703125 
z
" id="DejaVuSans-52"/>
      </defs>
      <g transform="translate(18.432792 185.679451)scale(0.1 -0.1)">
       <use xlink:href="#DejaVuSans-52"/>
       <use x="63.623047" xlink:href="#DejaVuSans-48"/>
       <use x="127.246094" xlink:href="#DejaVuSans-48"/>
       <use x="190.869141" xlink:href="#DejaVuSans-48"/>
      </g>
     </g>
    </g>
    <g id="ytick_6">
     <g id="line2d_8">
      <g>
       <use style="stroke:#000000;stroke-width:0.8;" x="50.882792" xlink:href="#me2fb0cab65" y="145.869882"/>
      </g>
     </g>
     <g id="text_8">
      <!-- 5000 -->
      <g transform="translate(18.432792 149.669101)scale(0.1 -0.1)">
       <use xlink:href="#DejaVuSans-53"/>
       <use x="63.623047" xlink:href="#DejaVuSans-48"/>
       <use x="127.246094" xlink:href="#DejaVuSans-48"/>
       <use x="190.869141" xlink:href="#DejaVuSans-48"/>
      </g>
     </g>
    </g>
    <g id="ytick_7">
     <g id="line2d_9">
      <g>
       <use style="stroke:#000000;stroke-width:0.8;" x="50.882792" xlink:href="#me2fb0cab65" y="109.859531"/>
      </g>
     </g>
     <g id="text_9">
      <!-- 6000 -->
      <defs>
       <path d="M 33.015625 40.375 
Q 26.375 40.375 22.484375 35.828125 
Q 18.609375 31.296875 18.609375 23.390625 
Q 18.609375 15.53125 22.484375 10.953125 
Q 26.375 6.390625 33.015625 6.390625 
Q 39.65625 6.390625 43.53125 10.953125 
Q 47.40625 15.53125 47.40625 23.390625 
Q 47.40625 31.296875 43.53125 35.828125 
Q 39.65625 40.375 33.015625 40.375 
z
M 52.59375 71.296875 
L 52.59375 62.3125 
Q 48.875 64.0625 45.09375 64.984375 
Q 41.3125 65.921875 37.59375 65.921875 
Q 27.828125 65.921875 22.671875 59.328125 
Q 17.53125 52.734375 16.796875 39.40625 
Q 19.671875 43.65625 24.015625 45.921875 
Q 28.375 48.1875 33.59375 48.1875 
Q 44.578125 48.1875 50.953125 41.515625 
Q 57.328125 34.859375 57.328125 23.390625 
Q 57.328125 12.15625 50.6875 5.359375 
Q 44.046875 -1.421875 33.015625 -1.421875 
Q 20.359375 -1.421875 13.671875 8.265625 
Q 6.984375 17.96875 6.984375 36.375 
Q 6.984375 53.65625 15.1875 63.9375 
Q 23.390625 74.21875 37.203125 74.21875 
Q 40.921875 74.21875 44.703125 73.484375 
Q 48.484375 72.75 52.59375 71.296875 
z
" id="DejaVuSans-54"/>
      </defs>
      <g transform="translate(18.432792 113.65875)scale(0.1 -0.1)">
       <use xlink:href="#DejaVuSans-54"/>
       <use x="63.623047" xlink:href="#DejaVuSans-48"/>
       <use x="127.246094" xlink:href="#DejaVuSans-48"/>
       <use x="190.869141" xlink:href="#DejaVuSans-48"/>
      </g>
     </g>
    </g>
    <g id="ytick_8">
     <g id="line2d_10">
      <g>
       <use style="stroke:#000000;stroke-width:0.8;" x="50.882792" xlink:href="#me2fb0cab65" y="73.849181"/>
      </g>
     </g>
     <g id="text_10">
      <!-- 7000 -->
      <defs>
       <path d="M 8.203125 72.90625 
L 55.078125 72.90625 
L 55.078125 68.703125 
L 28.609375 0 
L 18.3125 0 
L 43.21875 64.59375 
L 8.203125 64.59375 
z
" id="DejaVuSans-55"/>
      </defs>
      <g transform="translate(18.432792 77.648399)scale(0.1 -0.1)">
       <use xlink:href="#DejaVuSans-55"/>
       <use x="63.623047" xlink:href="#DejaVuSans-48"/>
       <use x="127.246094" xlink:href="#DejaVuSans-48"/>
       <use x="190.869141" xlink:href="#DejaVuSans-48"/>
      </g>
     </g>
    </g>
    <g id="ytick_9">
     <g id="line2d_11">
      <g>
       <use style="stroke:#000000;stroke-width:0.8;" x="50.882792" xlink:href="#me2fb0cab65" y="37.83883"/>
      </g>
     </g>
     <g id="text_11">
      <!-- 8000 -->
      <defs>
       <path d="M 31.78125 34.625 
Q 24.75 34.625 20.71875 30.859375 
Q 16.703125 27.09375 16.703125 20.515625 
Q 16.703125 13.921875 20.71875 10.15625 
Q 24.75 6.390625 31.78125 6.390625 
Q 38.8125 6.390625 42.859375 10.171875 
Q 46.921875 13.96875 46.921875 20.515625 
Q 46.921875 27.09375 42.890625 30.859375 
Q 38.875 34.625 31.78125 34.625 
z
M 21.921875 38.8125 
Q 15.578125 40.375 12.03125 44.71875 
Q 8.5 49.078125 8.5 55.328125 
Q 8.5 64.0625 14.71875 69.140625 
Q 20.953125 74.21875 31.78125 74.21875 
Q 42.671875 74.21875 48.875 69.140625 
Q 55.078125 64.0625 55.078125 55.328125 
Q 55.078125 49.078125 51.53125 44.71875 
Q 48 40.375 41.703125 38.8125 
Q 48.828125 37.15625 52.796875 32.3125 
Q 56.78125 27.484375 56.78125 20.515625 
Q 56.78125 9.90625 50.3125 4.234375 
Q 43.84375 -1.421875 31.78125 -1.421875 
Q 19.734375 -1.421875 13.25 4.234375 
Q 6.78125 9.90625 6.78125 20.515625 
Q 6.78125 27.484375 10.78125 32.3125 
Q 14.796875 37.15625 21.921875 38.8125 
z
M 18.3125 54.390625 
Q 18.3125 48.734375 21.84375 45.5625 
Q 25.390625 42.390625 31.78125 42.390625 
Q 38.140625 42.390625 41.71875 45.5625 
Q 45.3125 48.734375 45.3125 54.390625 
Q 45.3125 60.0625 41.71875 63.234375 
Q 38.140625 66.40625 31.78125 66.40625 
Q 25.390625 66.40625 21.84375 63.234375 
Q 18.3125 60.0625 18.3125 54.390625 
z
" id="DejaVuSans-56"/>
      </defs>
      <g transform="translate(18.432792 41.638049)scale(0.1 -0.1)">
       <use xlink:href="#DejaVuSans-56"/>
       <use x="63.623047" xlink:href="#DejaVuSans-48"/>
       <use x="127.246094" xlink:href="#DejaVuSans-48"/>
       <use x="190.869141" xlink:href="#DejaVuSans-48"/>
      </g>
     </g>
    </g>
   </g>
   <g id="line2d_12">
    <path clip-path="url(#p5855ed5b6a)" d="M 55.158181 325.743593 
L 56.023645 325.701763 
L 56.889108 325.64852 
L 57.754572 325.586278 
L 58.620035 325.515097 
L 59.485499 325.435218 
L 60.350962 325.346984 
L 61.216426 325.250367 
L 62.081889 325.14532 
L 62.947353 325.031725 
L 63.812816 324.908936 
L 64.67828 324.776038 
L 65.543743 324.631247 
L 66.409207 324.471997 
L 67.27467 324.2946 
L 68.140134 324.093926 
L 69.005597 323.863316 
L 69.871061 323.596335 
L 70.736524 323.28598 
L 71.601988 322.926072 
L 72.467451 322.51169 
L 73.332915 322.040091 
L 74.198378 321.511004 
L 75.063842 320.927505 
L 75.929305 320.293222 
L 76.794769 319.614154 
L 77.660232 318.896287 
L 78.525695 318.143384 
L 79.391159 317.355746 
L 80.256622 316.530762 
L 81.122086 315.660545 
L 81.987549 314.73359 
L 82.853013 313.732439 
L 83.718476 312.636485 
L 84.58394 311.425917 
L 85.449403 310.082855 
L 86.314867 308.590518 
L 87.18033 306.937821 
L 88.045794 305.120776 
L 88.911257 303.144556 
L 89.776721 301.022015 
L 90.642184 298.77121 
L 91.507648 296.414295 
L 92.373111 293.978084 
L 93.238575 291.487176 
L 94.104038 288.959657 
L 94.969502 286.406312 
L 95.834965 283.830619 
L 96.700429 281.227211 
L 97.565892 278.584192 
L 98.431356 275.882831 
L 99.296819 273.104949 
L 100.162282 270.238969 
L 101.027746 267.279251 
L 101.893209 264.222946 
L 102.758673 261.074493 
L 103.624136 257.839845 
L 104.4896 254.524298 
L 105.355063 251.125377 
L 106.220527 247.625834 
L 107.08599 243.991848 
L 107.951454 240.181455 
L 108.816917 236.137047 
L 109.682381 231.791058 
L 110.547844 227.070028 
L 111.413308 221.90237 
L 112.278771 216.223368 
L 113.144235 209.983154 
L 114.009698 203.141877 
L 114.875162 195.68457 
L 115.740625 187.62785 
L 116.606089 179.023761 
L 117.471552 169.957627 
L 118.337016 160.552806 
L 119.202479 150.963269 
L 120.067943 141.369188 
L 120.933406 131.955203 
L 121.79887 122.886834 
L 122.664333 114.294549 
L 123.529796 106.261136 
L 124.39526 98.801669 
L 125.260723 91.865064 
L 126.126187 85.343306 
L 126.99165 79.08493 
L 127.857114 72.924115 
L 128.722577 66.722701 
L 129.588041 60.354673 
L 130.453504 53.734468 
L 131.318968 46.945204 
L 132.184431 39.957471 
L 133.049895 32.775664 
" style="fill:none;stroke:#ff0000;stroke-linecap:square;stroke-width:1.5;"/>
   </g>
   <g id="patch_94">
    <path d="M 50.882792 325.921635 
L 50.882792 18.118365 
" style="fill:none;stroke:#000000;stroke-linecap:square;stroke-linejoin:miter;stroke-width:0.8;"/>
   </g>
   <g id="patch_95">
    <path d="M 137.325284 325.921635 
L 137.325284 18.118365 
" style="fill:none;stroke:#000000;stroke-linecap:square;stroke-linejoin:miter;stroke-width:0.8;"/>
   </g>
   <g id="patch_96">
    <path d="M 50.882792 325.921635 
L 137.325284 325.921635 
" style="fill:none;stroke:#000000;stroke-linecap:square;stroke-linejoin:miter;stroke-width:0.8;"/>
   </g>
   <g id="patch_97">
    <path d="M 50.882792 18.118365 
L 137.325284 18.118365 
" style="fill:none;stroke:#000000;stroke-linecap:square;stroke-linejoin:miter;stroke-width:0.8;"/>
   </g>
   <g id="text_12">
    <!-- Casos acumulados - RR - (data) -->
    <defs>
     <path d="M 64.40625 67.28125 
L 64.40625 56.890625 
Q 59.421875 61.53125 53.78125 63.8125 
Q 48.140625 66.109375 41.796875 66.109375 
Q 29.296875 66.109375 22.65625 58.46875 
Q 16.015625 50.828125 16.015625 36.375 
Q 16.015625 21.96875 22.65625 14.328125 
Q 29.296875 6.6875 41.796875 6.6875 
Q 48.140625 6.6875 53.78125 8.984375 
Q 59.421875 11.28125 64.40625 15.921875 
L 64.40625 5.609375 
Q 59.234375 2.09375 53.4375 0.328125 
Q 47.65625 -1.421875 41.21875 -1.421875 
Q 24.65625 -1.421875 15.125 8.703125 
Q 5.609375 18.84375 5.609375 36.375 
Q 5.609375 53.953125 15.125 64.078125 
Q 24.65625 74.21875 41.21875 74.21875 
Q 47.75 74.21875 53.53125 72.484375 
Q 59.328125 70.75 64.40625 67.28125 
z
" id="DejaVuSans-67"/>
     <path d="M 34.28125 27.484375 
Q 23.390625 27.484375 19.1875 25 
Q 14.984375 22.515625 14.984375 16.5 
Q 14.984375 11.71875 18.140625 8.90625 
Q 21.296875 6.109375 26.703125 6.109375 
Q 34.1875 6.109375 38.703125 11.40625 
Q 43.21875 16.703125 43.21875 25.484375 
L 43.21875 27.484375 
z
M 52.203125 31.203125 
L 52.203125 0 
L 43.21875 0 
L 43.21875 8.296875 
Q 40.140625 3.328125 35.546875 0.953125 
Q 30.953125 -1.421875 24.3125 -1.421875 
Q 15.921875 -1.421875 10.953125 3.296875 
Q 6 8.015625 6 15.921875 
Q 6 25.140625 12.171875 29.828125 
Q 18.359375 34.515625 30.609375 34.515625 
L 43.21875 34.515625 
L 43.21875 35.40625 
Q 43.21875 41.609375 39.140625 45 
Q 35.0625 48.390625 27.6875 48.390625 
Q 23 48.390625 18.546875 47.265625 
Q 14.109375 46.140625 10.015625 43.890625 
L 10.015625 52.203125 
Q 14.9375 54.109375 19.578125 55.046875 
Q 24.21875 56 28.609375 56 
Q 40.484375 56 46.34375 49.84375 
Q 52.203125 43.703125 52.203125 31.203125 
z
" id="DejaVuSans-97"/>
     <path d="M 44.28125 53.078125 
L 44.28125 44.578125 
Q 40.484375 46.53125 36.375 47.5 
Q 32.28125 48.484375 27.875 48.484375 
Q 21.1875 48.484375 17.84375 46.4375 
Q 14.5 44.390625 14.5 40.28125 
Q 14.5 37.15625 16.890625 35.375 
Q 19.28125 33.59375 26.515625 31.984375 
L 29.59375 31.296875 
Q 39.15625 29.25 43.1875 25.515625 
Q 47.21875 21.78125 47.21875 15.09375 
Q 47.21875 7.46875 41.1875 3.015625 
Q 35.15625 -1.421875 24.609375 -1.421875 
Q 20.21875 -1.421875 15.453125 -0.5625 
Q 10.6875 0.296875 5.421875 2 
L 5.421875 11.28125 
Q 10.40625 8.6875 15.234375 7.390625 
Q 20.0625 6.109375 24.8125 6.109375 
Q 31.15625 6.109375 34.5625 8.28125 
Q 37.984375 10.453125 37.984375 14.40625 
Q 37.984375 18.0625 35.515625 20.015625 
Q 33.0625 21.96875 24.703125 23.78125 
L 21.578125 24.515625 
Q 13.234375 26.265625 9.515625 29.90625 
Q 5.8125 33.546875 5.8125 39.890625 
Q 5.8125 47.609375 11.28125 51.796875 
Q 16.75 56 26.8125 56 
Q 31.78125 56 36.171875 55.265625 
Q 40.578125 54.546875 44.28125 53.078125 
z
" id="DejaVuSans-115"/>
     <path d="M 30.609375 48.390625 
Q 23.390625 48.390625 19.1875 42.75 
Q 14.984375 37.109375 14.984375 27.296875 
Q 14.984375 17.484375 19.15625 11.84375 
Q 23.34375 6.203125 30.609375 6.203125 
Q 37.796875 6.203125 41.984375 11.859375 
Q 46.1875 17.53125 46.1875 27.296875 
Q 46.1875 37.015625 41.984375 42.703125 
Q 37.796875 48.390625 30.609375 48.390625 
z
M 30.609375 56 
Q 42.328125 56 49.015625 48.375 
Q 55.71875 40.765625 55.71875 27.296875 
Q 55.71875 13.875 49.015625 6.21875 
Q 42.328125 -1.421875 30.609375 -1.421875 
Q 18.84375 -1.421875 12.171875 6.21875 
Q 5.515625 13.875 5.515625 27.296875 
Q 5.515625 40.765625 12.171875 48.375 
Q 18.84375 56 30.609375 56 
z
" id="DejaVuSans-111"/>
     <path id="DejaVuSans-32"/>
     <path d="M 48.78125 52.59375 
L 48.78125 44.1875 
Q 44.96875 46.296875 41.140625 47.34375 
Q 37.3125 48.390625 33.40625 48.390625 
Q 24.65625 48.390625 19.8125 42.84375 
Q 14.984375 37.3125 14.984375 27.296875 
Q 14.984375 17.28125 19.8125 11.734375 
Q 24.65625 6.203125 33.40625 6.203125 
Q 37.3125 6.203125 41.140625 7.25 
Q 44.96875 8.296875 48.78125 10.40625 
L 48.78125 2.09375 
Q 45.015625 0.34375 40.984375 -0.53125 
Q 36.96875 -1.421875 32.421875 -1.421875 
Q 20.0625 -1.421875 12.78125 6.34375 
Q 5.515625 14.109375 5.515625 27.296875 
Q 5.515625 40.671875 12.859375 48.328125 
Q 20.21875 56 33.015625 56 
Q 37.15625 56 41.109375 55.140625 
Q 45.0625 54.296875 48.78125 52.59375 
z
" id="DejaVuSans-99"/>
     <path d="M 8.5 21.578125 
L 8.5 54.6875 
L 17.484375 54.6875 
L 17.484375 21.921875 
Q 17.484375 14.15625 20.5 10.265625 
Q 23.53125 6.390625 29.59375 6.390625 
Q 36.859375 6.390625 41.078125 11.03125 
Q 45.3125 15.671875 45.3125 23.6875 
L 45.3125 54.6875 
L 54.296875 54.6875 
L 54.296875 0 
L 45.3125 0 
L 45.3125 8.40625 
Q 42.046875 3.421875 37.71875 1 
Q 33.40625 -1.421875 27.6875 -1.421875 
Q 18.265625 -1.421875 13.375 4.4375 
Q 8.5 10.296875 8.5 21.578125 
z
M 31.109375 56 
z
" id="DejaVuSans-117"/>
     <path d="M 52 44.1875 
Q 55.375 50.25 60.0625 53.125 
Q 64.75 56 71.09375 56 
Q 79.640625 56 84.28125 50.015625 
Q 88.921875 44.046875 88.921875 33.015625 
L 88.921875 0 
L 79.890625 0 
L 79.890625 32.71875 
Q 79.890625 40.578125 77.09375 44.375 
Q 74.3125 48.1875 68.609375 48.1875 
Q 61.625 48.1875 57.5625 43.546875 
Q 53.515625 38.921875 53.515625 30.90625 
L 53.515625 0 
L 44.484375 0 
L 44.484375 32.71875 
Q 44.484375 40.625 41.703125 44.40625 
Q 38.921875 48.1875 33.109375 48.1875 
Q 26.21875 48.1875 22.15625 43.53125 
Q 18.109375 38.875 18.109375 30.90625 
L 18.109375 0 
L 9.078125 0 
L 9.078125 54.6875 
L 18.109375 54.6875 
L 18.109375 46.1875 
Q 21.1875 51.21875 25.484375 53.609375 
Q 29.78125 56 35.6875 56 
Q 41.65625 56 45.828125 52.96875 
Q 50 49.953125 52 44.1875 
z
" id="DejaVuSans-109"/>
     <path d="M 9.421875 75.984375 
L 18.40625 75.984375 
L 18.40625 0 
L 9.421875 0 
z
" id="DejaVuSans-108"/>
     <path d="M 45.40625 46.390625 
L 45.40625 75.984375 
L 54.390625 75.984375 
L 54.390625 0 
L 45.40625 0 
L 45.40625 8.203125 
Q 42.578125 3.328125 38.25 0.953125 
Q 33.9375 -1.421875 27.875 -1.421875 
Q 17.96875 -1.421875 11.734375 6.484375 
Q 5.515625 14.40625 5.515625 27.296875 
Q 5.515625 40.1875 11.734375 48.09375 
Q 17.96875 56 27.875 56 
Q 33.9375 56 38.25 53.625 
Q 42.578125 51.265625 45.40625 46.390625 
z
M 14.796875 27.296875 
Q 14.796875 17.390625 18.875 11.75 
Q 22.953125 6.109375 30.078125 6.109375 
Q 37.203125 6.109375 41.296875 11.75 
Q 45.40625 17.390625 45.40625 27.296875 
Q 45.40625 37.203125 41.296875 42.84375 
Q 37.203125 48.484375 30.078125 48.484375 
Q 22.953125 48.484375 18.875 42.84375 
Q 14.796875 37.203125 14.796875 27.296875 
z
" id="DejaVuSans-100"/>
     <path d="M 4.890625 31.390625 
L 31.203125 31.390625 
L 31.203125 23.390625 
L 4.890625 23.390625 
z
" id="DejaVuSans-45"/>
     <path d="M 44.390625 34.1875 
Q 47.5625 33.109375 50.5625 29.59375 
Q 53.5625 26.078125 56.59375 19.921875 
L 66.609375 0 
L 56 0 
L 46.6875 18.703125 
Q 43.0625 26.03125 39.671875 28.421875 
Q 36.28125 30.8125 30.421875 30.8125 
L 19.671875 30.8125 
L 19.671875 0 
L 9.8125 0 
L 9.8125 72.90625 
L 32.078125 72.90625 
Q 44.578125 72.90625 50.734375 67.671875 
Q 56.890625 62.453125 56.890625 51.90625 
Q 56.890625 45.015625 53.6875 40.46875 
Q 50.484375 35.9375 44.390625 34.1875 
z
M 19.671875 64.796875 
L 19.671875 38.921875 
L 32.078125 38.921875 
Q 39.203125 38.921875 42.84375 42.21875 
Q 46.484375 45.515625 46.484375 51.90625 
Q 46.484375 58.296875 42.84375 61.546875 
Q 39.203125 64.796875 32.078125 64.796875 
z
" id="DejaVuSans-82"/>
     <path d="M 31 75.875 
Q 24.46875 64.65625 21.28125 53.65625 
Q 18.109375 42.671875 18.109375 31.390625 
Q 18.109375 20.125 21.3125 9.0625 
Q 24.515625 -2 31 -13.1875 
L 23.1875 -13.1875 
Q 15.875 -1.703125 12.234375 9.375 
Q 8.59375 20.453125 8.59375 31.390625 
Q 8.59375 42.28125 12.203125 53.3125 
Q 15.828125 64.359375 23.1875 75.875 
z
" id="DejaVuSans-40"/>
     <path d="M 18.3125 70.21875 
L 18.3125 54.6875 
L 36.8125 54.6875 
L 36.8125 47.703125 
L 18.3125 47.703125 
L 18.3125 18.015625 
Q 18.3125 11.328125 20.140625 9.421875 
Q 21.96875 7.515625 27.59375 7.515625 
L 36.8125 7.515625 
L 36.8125 0 
L 27.59375 0 
Q 17.1875 0 13.234375 3.875 
Q 9.28125 7.765625 9.28125 18.015625 
L 9.28125 47.703125 
L 2.6875 47.703125 
L 2.6875 54.6875 
L 9.28125 54.6875 
L 9.28125 70.21875 
z
" id="DejaVuSans-116"/>
     <path d="M 8.015625 75.875 
L 15.828125 75.875 
Q 23.140625 64.359375 26.78125 53.3125 
Q 30.421875 42.28125 30.421875 31.390625 
Q 30.421875 20.453125 26.78125 9.375 
Q 23.140625 -1.703125 15.828125 -13.1875 
L 8.015625 -13.1875 
Q 14.5 -2 17.703125 9.0625 
Q 20.90625 20.125 20.90625 31.390625 
Q 20.90625 42.671875 17.703125 53.65625 
Q 14.5 64.65625 8.015625 75.875 
z
" id="DejaVuSans-41"/>
    </defs>
    <g transform="translate(-0.458774 12.118365)scale(0.12 -0.12)">
     <use xlink:href="#DejaVuSans-67"/>
     <use x="69.824219" xlink:href="#DejaVuSans-97"/>
     <use x="131.103516" xlink:href="#DejaVuSans-115"/>
     <use x="183.203125" xlink:href="#DejaVuSans-111"/>
     <use x="244.384766" xlink:href="#DejaVuSans-115"/>
     <use x="296.484375" xlink:href="#DejaVuSans-32"/>
     <use x="328.271484" xlink:href="#DejaVuSans-97"/>
     <use x="389.550781" xlink:href="#DejaVuSans-99"/>
     <use x="444.53125" xlink:href="#DejaVuSans-117"/>
     <use x="507.910156" xlink:href="#DejaVuSans-109"/>
     <use x="605.322266" xlink:href="#DejaVuSans-117"/>
     <use x="668.701172" xlink:href="#DejaVuSans-108"/>
     <use x="696.484375" xlink:href="#DejaVuSans-97"/>
     <use x="757.763672" xlink:href="#DejaVuSans-100"/>
     <use x="821.240234" xlink:href="#DejaVuSans-111"/>
     <use x="882.421875" xlink:href="#DejaVuSans-115"/>
     <use x="934.521484" xlink:href="#DejaVuSans-32"/>
     <use x="966.308594" xlink:href="#DejaVuSans-45"/>
     <use x="1002.392578" xlink:href="#DejaVuSans-32"/>
     <use x="1034.179688" xlink:href="#DejaVuSans-82"/>
     <use x="1103.662109" xlink:href="#DejaVuSans-82"/>
     <use x="1173.144531" xlink:href="#DejaVuSans-32"/>
     <use x="1204.931641" xlink:href="#DejaVuSans-45"/>
     <use x="1241.015625" xlink:href="#DejaVuSans-32"/>
     <use x="1272.802734" xlink:href="#DejaVuSans-40"/>
     <use x="1311.816406" xlink:href="#DejaVuSans-100"/>
     <use x="1375.292969" xlink:href="#DejaVuSans-97"/>
     <use x="1436.572266" xlink:href="#DejaVuSans-116"/>
     <use x="1475.78125" xlink:href="#DejaVuSans-97"/>
     <use x="1537.060547" xlink:href="#DejaVuSans-41"/>
    </g>
   </g>
  </g>
  <g id="axes_2">
   <g id="patch_98">
    <path d="M 223.609743 325.921635 
L 310.052236 325.921635 
L 310.052236 18.118365 
L 223.609743 18.118365 
z
" style="fill:#ffffff;"/>
   </g>
   <g id="patch_99">
    <path clip-path="url(#pee9dcab560)" d="M 227.538947 325.921635 
L 228.231318 325.921635 
L 228.231318 325.921635 
L 227.538947 325.921635 
z
" style="fill:#1f77b4;"/>
   </g>
   <g id="patch_100">
    <path clip-path="url(#pee9dcab560)" d="M 228.404411 325.921635 
L 229.096782 325.921635 
L 229.096782 325.921635 
L 228.404411 325.921635 
z
" style="fill:#1f77b4;"/>
   </g>
   <g id="patch_101">
    <path clip-path="url(#pee9dcab560)" d="M 229.269874 325.921635 
L 229.962245 325.921635 
L 229.962245 321.600073 
L 229.269874 321.600073 
z
" style="fill:#1f77b4;"/>
   </g>
   <g id="patch_102">
    <path clip-path="url(#pee9dcab560)" d="M 230.135338 325.921635 
L 230.827709 325.921635 
L 230.827709 325.921635 
L 230.135338 325.921635 
z
" style="fill:#1f77b4;"/>
   </g>
   <g id="patch_103">
    <path clip-path="url(#pee9dcab560)" d="M 231.000801 325.921635 
L 231.693172 325.921635 
L 231.693172 324.481114 
L 231.000801 324.481114 
z
" style="fill:#1f77b4;"/>
   </g>
   <g id="patch_104">
    <path clip-path="url(#pee9dcab560)" d="M 231.866265 325.921635 
L 232.558636 325.921635 
L 232.558636 324.481114 
L 231.866265 324.481114 
z
" style="fill:#1f77b4;"/>
   </g>
   <g id="patch_105">
    <path clip-path="url(#pee9dcab560)" d="M 232.731728 325.921635 
L 233.424099 325.921635 
L 233.424099 323.040594 
L 232.731728 323.040594 
z
" style="fill:#1f77b4;"/>
   </g>
   <g id="patch_106">
    <path clip-path="url(#pee9dcab560)" d="M 233.597192 325.921635 
L 234.289563 325.921635 
L 234.289563 325.921635 
L 233.597192 325.921635 
z
" style="fill:#1f77b4;"/>
   </g>
   <g id="patch_107">
    <path clip-path="url(#pee9dcab560)" d="M 234.462655 325.921635 
L 235.155026 325.921635 
L 235.155026 325.921635 
L 234.462655 325.921635 
z
" style="fill:#1f77b4;"/>
   </g>
   <g id="patch_108">
    <path clip-path="url(#pee9dcab560)" d="M 235.328119 325.921635 
L 236.020489 325.921635 
L 236.020489 321.600073 
L 235.328119 321.600073 
z
" style="fill:#1f77b4;"/>
   </g>
   <g id="patch_109">
    <path clip-path="url(#pee9dcab560)" d="M 236.193582 325.921635 
L 236.885953 325.921635 
L 236.885953 323.040594 
L 236.193582 323.040594 
z
" style="fill:#1f77b4;"/>
   </g>
   <g id="patch_110">
    <path clip-path="url(#pee9dcab560)" d="M 237.059046 325.921635 
L 237.751416 325.921635 
L 237.751416 323.040594 
L 237.059046 323.040594 
z
" style="fill:#1f77b4;"/>
   </g>
   <g id="patch_111">
    <path clip-path="url(#pee9dcab560)" d="M 237.924509 325.921635 
L 238.61688 325.921635 
L 238.61688 320.879812 
L 237.924509 320.879812 
z
" style="fill:#1f77b4;"/>
   </g>
   <g id="patch_112">
    <path clip-path="url(#pee9dcab560)" d="M 238.789973 325.921635 
L 239.482343 325.921635 
L 239.482343 322.320333 
L 238.789973 322.320333 
z
" style="fill:#1f77b4;"/>
   </g>
   <g id="patch_113">
    <path clip-path="url(#pee9dcab560)" d="M 239.655436 325.921635 
L 240.347807 325.921635 
L 240.347807 325.921635 
L 239.655436 325.921635 
z
" style="fill:#1f77b4;"/>
   </g>
   <g id="patch_114">
    <path clip-path="url(#pee9dcab560)" d="M 240.5209 325.921635 
L 241.21327 325.921635 
L 241.21327 325.921635 
L 240.5209 325.921635 
z
" style="fill:#1f77b4;"/>
   </g>
   <g id="patch_115">
    <path clip-path="url(#pee9dcab560)" d="M 241.386363 325.921635 
L 242.078734 325.921635 
L 242.078734 320.879812 
L 241.386363 320.879812 
z
" style="fill:#1f77b4;"/>
   </g>
   <g id="patch_116">
    <path clip-path="url(#pee9dcab560)" d="M 242.251827 325.921635 
L 242.944197 325.921635 
L 242.944197 323.760854 
L 242.251827 323.760854 
z
" style="fill:#1f77b4;"/>
   </g>
   <g id="patch_117">
    <path clip-path="url(#pee9dcab560)" d="M 243.11729 325.921635 
L 243.809661 325.921635 
L 243.809661 317.998771 
L 243.11729 317.998771 
z
" style="fill:#1f77b4;"/>
   </g>
   <g id="patch_118">
    <path clip-path="url(#pee9dcab560)" d="M 243.982753 325.921635 
L 244.675124 325.921635 
L 244.675124 317.278511 
L 243.982753 317.278511 
z
" style="fill:#1f77b4;"/>
   </g>
   <g id="patch_119">
    <path clip-path="url(#pee9dcab560)" d="M 244.848217 325.921635 
L 245.540588 325.921635 
L 245.540588 323.040594 
L 244.848217 323.040594 
z
" style="fill:#1f77b4;"/>
   </g>
   <g id="patch_120">
    <path clip-path="url(#pee9dcab560)" d="M 245.71368 325.921635 
L 246.406051 325.921635 
L 246.406051 323.040594 
L 245.71368 323.040594 
z
" style="fill:#1f77b4;"/>
   </g>
   <g id="patch_121">
    <path clip-path="url(#pee9dcab560)" d="M 246.579144 325.921635 
L 247.271515 325.921635 
L 247.271515 304.313824 
L 246.579144 304.313824 
z
" style="fill:#1f77b4;"/>
   </g>
   <g id="patch_122">
    <path clip-path="url(#pee9dcab560)" d="M 247.444607 325.921635 
L 248.136978 325.921635 
L 248.136978 325.201375 
L 247.444607 325.201375 
z
" style="fill:#1f77b4;"/>
   </g>
   <g id="patch_123">
    <path clip-path="url(#pee9dcab560)" d="M 248.310071 325.921635 
L 249.002442 325.921635 
L 249.002442 305.754345 
L 248.310071 305.754345 
z
" style="fill:#1f77b4;"/>
   </g>
   <g id="patch_124">
    <path clip-path="url(#pee9dcab560)" d="M 249.175534 325.921635 
L 249.867905 325.921635 
L 249.867905 310.075907 
L 249.175534 310.075907 
z
" style="fill:#1f77b4;"/>
   </g>
   <g id="patch_125">
    <path clip-path="url(#pee9dcab560)" d="M 250.040998 325.921635 
L 250.733369 325.921635 
L 250.733369 299.272001 
L 250.040998 299.272001 
z
" style="fill:#1f77b4;"/>
   </g>
   <g id="patch_126">
    <path clip-path="url(#pee9dcab560)" d="M 250.906461 325.921635 
L 251.598832 325.921635 
L 251.598832 310.796167 
L 250.906461 310.796167 
z
" style="fill:#1f77b4;"/>
   </g>
   <g id="patch_127">
    <path clip-path="url(#pee9dcab560)" d="M 251.771925 325.921635 
L 252.464296 325.921635 
L 252.464296 310.075907 
L 251.771925 310.075907 
z
" style="fill:#1f77b4;"/>
   </g>
   <g id="patch_128">
    <path clip-path="url(#pee9dcab560)" d="M 252.637388 325.921635 
L 253.329759 325.921635 
L 253.329759 323.760854 
L 252.637388 323.760854 
z
" style="fill:#1f77b4;"/>
   </g>
   <g id="patch_129">
    <path clip-path="url(#pee9dcab560)" d="M 253.502852 325.921635 
L 254.195223 325.921635 
L 254.195223 302.153043 
L 253.502852 302.153043 
z
" style="fill:#1f77b4;"/>
   </g>
   <g id="patch_130">
    <path clip-path="url(#pee9dcab560)" d="M 254.368315 325.921635 
L 255.060686 325.921635 
L 255.060686 313.677209 
L 254.368315 313.677209 
z
" style="fill:#1f77b4;"/>
   </g>
   <g id="patch_131">
    <path clip-path="url(#pee9dcab560)" d="M 255.233779 325.921635 
L 255.92615 325.921635 
L 255.92615 320.879812 
L 255.233779 320.879812 
z
" style="fill:#1f77b4;"/>
   </g>
   <g id="patch_132">
    <path clip-path="url(#pee9dcab560)" d="M 256.099242 325.921635 
L 256.791613 325.921635 
L 256.791613 296.39096 
L 256.099242 296.39096 
z
" style="fill:#1f77b4;"/>
   </g>
   <g id="patch_133">
    <path clip-path="url(#pee9dcab560)" d="M 256.964706 325.921635 
L 257.657076 325.921635 
L 257.657076 285.587054 
L 256.964706 285.587054 
z
" style="fill:#1f77b4;"/>
   </g>
   <g id="patch_134">
    <path clip-path="url(#pee9dcab560)" d="M 257.830169 325.921635 
L 258.52254 325.921635 
L 258.52254 321.600073 
L 257.830169 321.600073 
z
" style="fill:#1f77b4;"/>
   </g>
   <g id="patch_135">
    <path clip-path="url(#pee9dcab560)" d="M 258.695633 325.921635 
L 259.388003 325.921635 
L 259.388003 312.956948 
L 258.695633 312.956948 
z
" style="fill:#1f77b4;"/>
   </g>
   <g id="patch_136">
    <path clip-path="url(#pee9dcab560)" d="M 259.561096 325.921635 
L 260.253467 325.921635 
L 260.253467 306.474605 
L 259.561096 306.474605 
z
" style="fill:#1f77b4;"/>
   </g>
   <g id="patch_137">
    <path clip-path="url(#pee9dcab560)" d="M 260.42656 325.921635 
L 261.11893 325.921635 
L 261.11893 277.66419 
L 260.42656 277.66419 
z
" style="fill:#1f77b4;"/>
   </g>
   <g id="patch_138">
    <path clip-path="url(#pee9dcab560)" d="M 261.292023 325.921635 
L 261.984394 325.921635 
L 261.984394 266.140024 
L 261.292023 266.140024 
z
" style="fill:#1f77b4;"/>
   </g>
   <g id="patch_139">
    <path clip-path="url(#pee9dcab560)" d="M 262.157487 325.921635 
L 262.849857 325.921635 
L 262.849857 278.38445 
L 262.157487 278.38445 
z
" style="fill:#1f77b4;"/>
   </g>
   <g id="patch_140">
    <path clip-path="url(#pee9dcab560)" d="M 263.02295 325.921635 
L 263.715321 325.921635 
L 263.715321 274.062888 
L 263.02295 274.062888 
z
" style="fill:#1f77b4;"/>
   </g>
   <g id="patch_141">
    <path clip-path="url(#pee9dcab560)" d="M 263.888414 325.921635 
L 264.580784 325.921635 
L 264.580784 278.38445 
L 263.888414 278.38445 
z
" style="fill:#1f77b4;"/>
   </g>
   <g id="patch_142">
    <path clip-path="url(#pee9dcab560)" d="M 264.753877 325.921635 
L 265.446248 325.921635 
L 265.446248 280.545232 
L 264.753877 280.545232 
z
" style="fill:#1f77b4;"/>
   </g>
   <g id="patch_143">
    <path clip-path="url(#pee9dcab560)" d="M 265.619341 325.921635 
L 266.311711 325.921635 
L 266.311711 280.545232 
L 265.619341 280.545232 
z
" style="fill:#1f77b4;"/>
   </g>
   <g id="patch_144">
    <path clip-path="url(#pee9dcab560)" d="M 266.484804 325.921635 
L 267.177175 325.921635 
L 267.177175 262.538722 
L 266.484804 262.538722 
z
" style="fill:#1f77b4;"/>
   </g>
   <g id="patch_145">
    <path clip-path="url(#pee9dcab560)" d="M 267.350267 325.921635 
L 268.042638 325.921635 
L 268.042638 251.014556 
L 267.350267 251.014556 
z
" style="fill:#1f77b4;"/>
   </g>
   <g id="patch_146">
    <path clip-path="url(#pee9dcab560)" d="M 268.215731 325.921635 
L 268.908102 325.921635 
L 268.908102 269.741326 
L 268.215731 269.741326 
z
" style="fill:#1f77b4;"/>
   </g>
   <g id="patch_147">
    <path clip-path="url(#pee9dcab560)" d="M 269.081194 325.921635 
L 269.773565 325.921635 
L 269.773565 262.538722 
L 269.081194 262.538722 
z
" style="fill:#1f77b4;"/>
   </g>
   <g id="patch_148">
    <path clip-path="url(#pee9dcab560)" d="M 269.946658 325.921635 
L 270.639029 325.921635 
L 270.639029 322.320333 
L 269.946658 322.320333 
z
" style="fill:#1f77b4;"/>
   </g>
   <g id="patch_149">
    <path clip-path="url(#pee9dcab560)" d="M 270.812121 325.921635 
L 271.504492 325.921635 
L 271.504492 302.153043 
L 270.812121 302.153043 
z
" style="fill:#1f77b4;"/>
   </g>
   <g id="patch_150">
    <path clip-path="url(#pee9dcab560)" d="M 271.677585 325.921635 
L 272.369956 325.921635 
L 272.369956 266.140024 
L 271.677585 266.140024 
z
" style="fill:#1f77b4;"/>
   </g>
   <g id="patch_151">
    <path clip-path="url(#pee9dcab560)" d="M 272.543048 325.921635 
L 273.235419 325.921635 
L 273.235419 261.818462 
L 272.543048 261.818462 
z
" style="fill:#1f77b4;"/>
   </g>
   <g id="patch_152">
    <path clip-path="url(#pee9dcab560)" d="M 273.408512 325.921635 
L 274.100883 325.921635 
L 274.100883 261.818462 
L 273.408512 261.818462 
z
" style="fill:#1f77b4;"/>
   </g>
   <g id="patch_153">
    <path clip-path="url(#pee9dcab560)" d="M 274.273975 325.921635 
L 274.966346 325.921635 
L 274.966346 241.651171 
L 274.273975 241.651171 
z
" style="fill:#1f77b4;"/>
   </g>
   <g id="patch_154">
    <path clip-path="url(#pee9dcab560)" d="M 275.139439 325.921635 
L 275.83181 325.921635 
L 275.83181 264.699503 
L 275.139439 264.699503 
z
" style="fill:#1f77b4;"/>
   </g>
   <g id="patch_155">
    <path clip-path="url(#pee9dcab560)" d="M 276.004902 325.921635 
L 276.697273 325.921635 
L 276.697273 264.699503 
L 276.004902 264.699503 
z
" style="fill:#1f77b4;"/>
   </g>
   <g id="patch_156">
    <path clip-path="url(#pee9dcab560)" d="M 276.870366 325.921635 
L 277.562737 325.921635 
L 277.562737 247.413254 
L 276.870366 247.413254 
z
" style="fill:#1f77b4;"/>
   </g>
   <g id="patch_157">
    <path clip-path="url(#pee9dcab560)" d="M 277.735829 325.921635 
L 278.4282 325.921635 
L 278.4282 266.860284 
L 277.735829 266.860284 
z
" style="fill:#1f77b4;"/>
   </g>
   <g id="patch_158">
    <path clip-path="url(#pee9dcab560)" d="M 278.601293 325.921635 
L 279.293664 325.921635 
L 279.293664 269.021066 
L 278.601293 269.021066 
z
" style="fill:#1f77b4;"/>
   </g>
   <g id="patch_159">
    <path clip-path="url(#pee9dcab560)" d="M 279.466756 325.921635 
L 280.159127 325.921635 
L 280.159127 210.679975 
L 279.466756 210.679975 
z
" style="fill:#1f77b4;"/>
   </g>
   <g id="patch_160">
    <path clip-path="url(#pee9dcab560)" d="M 280.33222 325.921635 
L 281.02459 325.921635 
L 281.02459 276.94393 
L 280.33222 276.94393 
z
" style="fill:#1f77b4;"/>
   </g>
   <g id="patch_161">
    <path clip-path="url(#pee9dcab560)" d="M 281.197683 325.921635 
L 281.890054 325.921635 
L 281.890054 279.104711 
L 281.197683 279.104711 
z
" style="fill:#1f77b4;"/>
   </g>
   <g id="patch_162">
    <path clip-path="url(#pee9dcab560)" d="M 282.063147 325.921635 
L 282.755517 325.921635 
L 282.755517 271.902107 
L 282.063147 271.902107 
z
" style="fill:#1f77b4;"/>
   </g>
   <g id="patch_163">
    <path clip-path="url(#pee9dcab560)" d="M 282.92861 325.921635 
L 283.620981 325.921635 
L 283.620981 276.223669 
L 282.92861 276.223669 
z
" style="fill:#1f77b4;"/>
   </g>
   <g id="patch_164">
    <path clip-path="url(#pee9dcab560)" d="M 283.794074 325.921635 
L 284.486444 325.921635 
L 284.486444 254.615858 
L 283.794074 254.615858 
z
" style="fill:#1f77b4;"/>
   </g>
   <g id="patch_165">
    <path clip-path="url(#pee9dcab560)" d="M 284.659537 325.921635 
L 285.351908 325.921635 
L 285.351908 126.409512 
L 284.659537 126.409512 
z
" style="fill:#1f77b4;"/>
   </g>
   <g id="patch_166">
    <path clip-path="url(#pee9dcab560)" d="M 285.525001 325.921635 
L 286.217371 325.921635 
L 286.217371 225.805443 
L 285.525001 225.805443 
z
" style="fill:#1f77b4;"/>
   </g>
   <g id="patch_167">
    <path clip-path="url(#pee9dcab560)" d="M 286.390464 325.921635 
L 287.082835 325.921635 
L 287.082835 181.1493 
L 286.390464 181.1493 
z
" style="fill:#1f77b4;"/>
   </g>
   <g id="patch_168">
    <path clip-path="url(#pee9dcab560)" d="M 287.255928 325.921635 
L 287.948298 325.921635 
L 287.948298 199.87607 
L 287.255928 199.87607 
z
" style="fill:#1f77b4;"/>
   </g>
   <g id="patch_169">
    <path clip-path="url(#pee9dcab560)" d="M 288.121391 325.921635 
L 288.813762 325.921635 
L 288.813762 168.904874 
L 288.121391 168.904874 
z
" style="fill:#1f77b4;"/>
   </g>
   <g id="patch_170">
    <path clip-path="url(#pee9dcab560)" d="M 288.986855 325.921635 
L 289.679225 325.921635 
L 289.679225 212.120496 
L 288.986855 212.120496 
z
" style="fill:#1f77b4;"/>
   </g>
   <g id="patch_171">
    <path clip-path="url(#pee9dcab560)" d="M 289.852318 325.921635 
L 290.544689 325.921635 
L 290.544689 114.885346 
L 289.852318 114.885346 
z
" style="fill:#1f77b4;"/>
   </g>
   <g id="patch_172">
    <path clip-path="url(#pee9dcab560)" d="M 290.717781 325.921635 
L 291.410152 325.921635 
L 291.410152 81.033108 
L 290.717781 81.033108 
z
" style="fill:#1f77b4;"/>
   </g>
   <g id="patch_173">
    <path clip-path="url(#pee9dcab560)" d="M 291.583245 325.921635 
L 292.275616 325.921635 
L 292.275616 75.271026 
L 291.583245 75.271026 
z
" style="fill:#1f77b4;"/>
   </g>
   <g id="patch_174">
    <path clip-path="url(#pee9dcab560)" d="M 292.448708 325.921635 
L 293.141079 325.921635 
L 293.141079 32.775664 
L 292.448708 32.775664 
z
" style="fill:#1f77b4;"/>
   </g>
   <g id="patch_175">
    <path clip-path="url(#pee9dcab560)" d="M 293.314172 325.921635 
L 294.006543 325.921635 
L 294.006543 116.325867 
L 293.314172 116.325867 
z
" style="fill:#1f77b4;"/>
   </g>
   <g id="patch_176">
    <path clip-path="url(#pee9dcab560)" d="M 294.179635 325.921635 
L 294.872006 325.921635 
L 294.872006 153.779406 
L 294.179635 153.779406 
z
" style="fill:#1f77b4;"/>
   </g>
   <g id="patch_177">
    <path clip-path="url(#pee9dcab560)" d="M 295.045099 325.921635 
L 295.73747 325.921635 
L 295.73747 118.486648 
L 295.045099 118.486648 
z
" style="fill:#1f77b4;"/>
   </g>
   <g id="patch_178">
    <path clip-path="url(#pee9dcab560)" d="M 295.910562 325.921635 
L 296.602933 325.921635 
L 296.602933 116.325867 
L 295.910562 116.325867 
z
" style="fill:#1f77b4;"/>
   </g>
   <g id="patch_179">
    <path clip-path="url(#pee9dcab560)" d="M 296.776026 325.921635 
L 297.468397 325.921635 
L 297.468397 148.017323 
L 296.776026 148.017323 
z
" style="fill:#1f77b4;"/>
   </g>
   <g id="patch_180">
    <path clip-path="url(#pee9dcab560)" d="M 297.641489 325.921635 
L 298.33386 325.921635 
L 298.33386 240.930911 
L 297.641489 240.930911 
z
" style="fill:#1f77b4;"/>
   </g>
   <g id="patch_181">
    <path clip-path="url(#pee9dcab560)" d="M 298.506953 325.921635 
L 299.199324 325.921635 
L 299.199324 232.287787 
L 298.506953 232.287787 
z
" style="fill:#1f77b4;"/>
   </g>
   <g id="patch_182">
    <path clip-path="url(#pee9dcab560)" d="M 299.372416 325.921635 
L 300.064787 325.921635 
L 300.064787 302.153043 
L 299.372416 302.153043 
z
" style="fill:#1f77b4;"/>
   </g>
   <g id="patch_183">
    <path clip-path="url(#pee9dcab560)" d="M 300.23788 325.921635 
L 300.930251 325.921635 
L 300.930251 321.600073 
L 300.23788 321.600073 
z
" style="fill:#1f77b4;"/>
   </g>
   <g id="patch_184">
    <path clip-path="url(#pee9dcab560)" d="M 301.103343 325.921635 
L 301.795714 325.921635 
L 301.795714 287.027575 
L 301.103343 287.027575 
z
" style="fill:#1f77b4;"/>
   </g>
   <g id="patch_185">
    <path clip-path="url(#pee9dcab560)" d="M 301.968807 325.921635 
L 302.661178 325.921635 
L 302.661178 171.065655 
L 301.968807 171.065655 
z
" style="fill:#1f77b4;"/>
   </g>
   <g id="patch_186">
    <path clip-path="url(#pee9dcab560)" d="M 302.83427 325.921635 
L 303.526641 325.921635 
L 303.526641 130.731074 
L 302.83427 130.731074 
z
" style="fill:#1f77b4;"/>
   </g>
   <g id="patch_187">
    <path clip-path="url(#pee9dcab560)" d="M 303.699734 325.921635 
L 304.392104 325.921635 
L 304.392104 160.98201 
L 303.699734 160.98201 
z
" style="fill:#1f77b4;"/>
   </g>
   <g id="patch_188">
    <path clip-path="url(#pee9dcab560)" d="M 304.565197 325.921635 
L 305.257568 325.921635 
L 305.257568 47.180871 
L 304.565197 47.180871 
z
" style="fill:#1f77b4;"/>
   </g>
   <g id="patch_189">
    <path clip-path="url(#pee9dcab560)" d="M 305.430661 325.921635 
L 306.123031 325.921635 
L 306.123031 266.140024 
L 305.430661 266.140024 
z
" style="fill:#1f77b4;"/>
   </g>
   <g id="matplotlib.axis_3">
    <g id="xtick_3">
     <g id="line2d_13">
      <g>
       <use style="stroke:#000000;stroke-width:0.8;" x="227.885133" xlink:href="#m0cb72656a7" y="325.921635"/>
      </g>
     </g>
     <g id="text_13">
      <!-- 0 -->
      <g transform="translate(224.703883 340.520072)scale(0.1 -0.1)">
       <use xlink:href="#DejaVuSans-48"/>
      </g>
     </g>
    </g>
    <g id="xtick_4">
     <g id="line2d_14">
      <g>
       <use style="stroke:#000000;stroke-width:0.8;" x="271.158307" xlink:href="#m0cb72656a7" y="325.921635"/>
      </g>
     </g>
     <g id="text_14">
      <!-- 50 -->
      <g transform="translate(264.795807 340.520072)scale(0.1 -0.1)">
       <use xlink:href="#DejaVuSans-53"/>
       <use x="63.623047" xlink:href="#DejaVuSans-48"/>
      </g>
     </g>
    </g>
   </g>
   <g id="matplotlib.axis_4">
    <g id="ytick_10">
     <g id="line2d_15">
      <g>
       <use style="stroke:#000000;stroke-width:0.8;" x="223.609743" xlink:href="#me2fb0cab65" y="325.921635"/>
      </g>
     </g>
     <g id="text_15">
      <!-- 0 -->
      <g transform="translate(210.247243 329.720854)scale(0.1 -0.1)">
       <use xlink:href="#DejaVuSans-48"/>
      </g>
     </g>
    </g>
    <g id="ytick_11">
     <g id="line2d_16">
      <g>
       <use style="stroke:#000000;stroke-width:0.8;" x="223.609743" xlink:href="#me2fb0cab65" y="289.908616"/>
      </g>
     </g>
     <g id="text_16">
      <!-- 50 -->
      <g transform="translate(203.884743 293.707835)scale(0.1 -0.1)">
       <use xlink:href="#DejaVuSans-53"/>
       <use x="63.623047" xlink:href="#DejaVuSans-48"/>
      </g>
     </g>
    </g>
    <g id="ytick_12">
     <g id="line2d_17">
      <g>
       <use style="stroke:#000000;stroke-width:0.8;" x="223.609743" xlink:href="#me2fb0cab65" y="253.895598"/>
      </g>
     </g>
     <g id="text_17">
      <!-- 100 -->
      <g transform="translate(197.522243 257.694817)scale(0.1 -0.1)">
       <use xlink:href="#DejaVuSans-49"/>
       <use x="63.623047" xlink:href="#DejaVuSans-48"/>
       <use x="127.246094" xlink:href="#DejaVuSans-48"/>
      </g>
     </g>
    </g>
    <g id="ytick_13">
     <g id="line2d_18">
      <g>
       <use style="stroke:#000000;stroke-width:0.8;" x="223.609743" xlink:href="#me2fb0cab65" y="217.882579"/>
      </g>
     </g>
     <g id="text_18">
      <!-- 150 -->
      <g transform="translate(197.522243 221.681798)scale(0.1 -0.1)">
       <use xlink:href="#DejaVuSans-49"/>
       <use x="63.623047" xlink:href="#DejaVuSans-53"/>
       <use x="127.246094" xlink:href="#DejaVuSans-48"/>
      </g>
     </g>
    </g>
    <g id="ytick_14">
     <g id="line2d_19">
      <g>
       <use style="stroke:#000000;stroke-width:0.8;" x="223.609743" xlink:href="#me2fb0cab65" y="181.869561"/>
      </g>
     </g>
     <g id="text_19">
      <!-- 200 -->
      <g transform="translate(197.522243 185.668779)scale(0.1 -0.1)">
       <use xlink:href="#DejaVuSans-50"/>
       <use x="63.623047" xlink:href="#DejaVuSans-48"/>
       <use x="127.246094" xlink:href="#DejaVuSans-48"/>
      </g>
     </g>
    </g>
    <g id="ytick_15">
     <g id="line2d_20">
      <g>
       <use style="stroke:#000000;stroke-width:0.8;" x="223.609743" xlink:href="#me2fb0cab65" y="145.856542"/>
      </g>
     </g>
     <g id="text_20">
      <!-- 250 -->
      <g transform="translate(197.522243 149.655761)scale(0.1 -0.1)">
       <use xlink:href="#DejaVuSans-50"/>
       <use x="63.623047" xlink:href="#DejaVuSans-53"/>
       <use x="127.246094" xlink:href="#DejaVuSans-48"/>
      </g>
     </g>
    </g>
    <g id="ytick_16">
     <g id="line2d_21">
      <g>
       <use style="stroke:#000000;stroke-width:0.8;" x="223.609743" xlink:href="#me2fb0cab65" y="109.843523"/>
      </g>
     </g>
     <g id="text_21">
      <!-- 300 -->
      <g transform="translate(197.522243 113.642742)scale(0.1 -0.1)">
       <use xlink:href="#DejaVuSans-51"/>
       <use x="63.623047" xlink:href="#DejaVuSans-48"/>
       <use x="127.246094" xlink:href="#DejaVuSans-48"/>
      </g>
     </g>
    </g>
    <g id="ytick_17">
     <g id="line2d_22">
      <g>
       <use style="stroke:#000000;stroke-width:0.8;" x="223.609743" xlink:href="#me2fb0cab65" y="73.830505"/>
      </g>
     </g>
     <g id="text_22">
      <!-- 350 -->
      <g transform="translate(197.522243 77.629724)scale(0.1 -0.1)">
       <use xlink:href="#DejaVuSans-51"/>
       <use x="63.623047" xlink:href="#DejaVuSans-53"/>
       <use x="127.246094" xlink:href="#DejaVuSans-48"/>
      </g>
     </g>
    </g>
    <g id="ytick_18">
     <g id="line2d_23">
      <g>
       <use style="stroke:#000000;stroke-width:0.8;" x="223.609743" xlink:href="#me2fb0cab65" y="37.817486"/>
      </g>
     </g>
     <g id="text_23">
      <!-- 400 -->
      <g transform="translate(197.522243 41.616705)scale(0.1 -0.1)">
       <use xlink:href="#DejaVuSans-52"/>
       <use x="63.623047" xlink:href="#DejaVuSans-48"/>
       <use x="127.246094" xlink:href="#DejaVuSans-48"/>
      </g>
     </g>
    </g>
   </g>
   <g id="line2d_24">
    <path clip-path="url(#pee9dcab560)" d="M 227.885133 325.29017 
L 228.750596 325.084981 
L 229.61606 324.856694 
L 230.481523 324.676703 
L 231.346987 324.497913 
L 232.21245 324.323923 
L 233.077914 324.156832 
L 233.943377 323.989141 
L 234.808841 323.820551 
L 235.674304 323.64956 
L 236.539768 323.46567 
L 237.405231 323.263481 
L 238.270695 323.025594 
L 239.136158 322.73641 
L 240.001621 322.37343 
L 240.867085 321.907856 
L 241.732548 321.309089 
L 242.598012 320.581629 
L 243.463475 319.714077 
L 244.328939 318.722931 
L 245.194402 317.633391 
L 246.059866 316.488954 
L 246.925329 315.339117 
L 247.790793 314.250777 
L 248.656256 313.235033 
L 249.52172 312.339282 
L 250.387183 311.563225 
L 251.252647 310.862464 
L 252.11811 310.167702 
L 252.983574 309.420743 
L 253.849037 308.515993 
L 254.714501 307.381155 
L 255.579964 305.897137 
L 256.445428 304.000941 
L 257.310891 301.708467 
L 258.176355 299.058413 
L 259.041818 296.072677 
L 259.907282 292.865254 
L 260.772745 289.578035 
L 261.638209 286.39431 
L 262.503672 283.467671 
L 263.369135 280.902212 
L 264.234599 278.779829 
L 265.100062 277.193816 
L 265.965526 276.099776 
L 266.830989 275.367516 
L 267.696453 274.850945 
L 268.561916 274.403969 
L 269.42738 273.8496 
L 270.292843 273.057344 
L 271.158307 271.890408 
L 272.02377 270.359892 
L 272.889234 268.597789 
L 273.754697 266.722892 
L 274.620161 264.790998 
L 275.485624 262.9479 
L 276.351088 261.223895 
L 277.216551 259.605784 
L 278.082015 257.938175 
L 278.947478 255.925586 
L 279.812942 253.236534 
L 280.678405 249.708128 
L 281.543869 245.027486 
L 282.409332 238.995418 
L 283.274796 231.49403 
L 284.140259 222.560822 
L 285.005722 212.333185 
L 285.871186 201.108102 
L 286.736649 189.085964 
L 287.602113 176.764441 
L 288.467576 164.775301 
L 289.33304 153.827103 
L 290.198503 144.585512 
L 291.063967 137.811285 
L 291.92943 134.116688 
L 292.794894 134.025793 
L 293.660357 137.627995 
L 294.525821 144.540814 
L 295.391284 154.06319 
L 296.256748 165.241475 
L 297.122211 176.721244 
L 297.987675 187.179268 
L 298.853138 195.476812 
L 299.718602 200.744822 
L 300.584065 202.696215 
L 301.449529 201.884159 
L 302.314992 198.551643 
L 303.180456 193.50772 
L 304.045919 190.126306 
L 304.911383 186.156625 
L 305.776846 182.274838 
" style="fill:none;stroke:#ff0000;stroke-linecap:square;stroke-width:1.5;"/>
   </g>
   <g id="patch_190">
    <path d="M 223.609743 325.921635 
L 223.609743 18.118365 
" style="fill:none;stroke:#000000;stroke-linecap:square;stroke-linejoin:miter;stroke-width:0.8;"/>
   </g>
   <g id="patch_191">
    <path d="M 310.052236 325.921635 
L 310.052236 18.118365 
" style="fill:none;stroke:#000000;stroke-linecap:square;stroke-linejoin:miter;stroke-width:0.8;"/>
   </g>
   <g id="patch_192">
    <path d="M 223.609743 325.921635 
L 310.052236 325.921635 
" style="fill:none;stroke:#000000;stroke-linecap:square;stroke-linejoin:miter;stroke-width:0.8;"/>
   </g>
   <g id="patch_193">
    <path d="M 223.609743 18.118365 
L 310.052236 18.118365 
" style="fill:none;stroke:#000000;stroke-linecap:square;stroke-linejoin:miter;stroke-width:0.8;"/>
   </g>
   <g id="text_24">
    <!-- Casos novos - RR - (data) -->
    <defs>
     <path d="M 54.890625 33.015625 
L 54.890625 0 
L 45.90625 0 
L 45.90625 32.71875 
Q 45.90625 40.484375 42.875 44.328125 
Q 39.84375 48.1875 33.796875 48.1875 
Q 26.515625 48.1875 22.3125 43.546875 
Q 18.109375 38.921875 18.109375 30.90625 
L 18.109375 0 
L 9.078125 0 
L 9.078125 54.6875 
L 18.109375 54.6875 
L 18.109375 46.1875 
Q 21.34375 51.125 25.703125 53.5625 
Q 30.078125 56 35.796875 56 
Q 45.21875 56 50.046875 50.171875 
Q 54.890625 44.34375 54.890625 33.015625 
z
" id="DejaVuSans-110"/>
     <path d="M 2.984375 54.6875 
L 12.5 54.6875 
L 29.59375 8.796875 
L 46.6875 54.6875 
L 56.203125 54.6875 
L 35.6875 0 
L 23.484375 0 
z
" id="DejaVuSans-118"/>
    </defs>
    <g transform="translate(190.821302 12.118365)scale(0.12 -0.12)">
     <use xlink:href="#DejaVuSans-67"/>
     <use x="69.824219" xlink:href="#DejaVuSans-97"/>
     <use x="131.103516" xlink:href="#DejaVuSans-115"/>
     <use x="183.203125" xlink:href="#DejaVuSans-111"/>
     <use x="244.384766" xlink:href="#DejaVuSans-115"/>
     <use x="296.484375" xlink:href="#DejaVuSans-32"/>
     <use x="328.271484" xlink:href="#DejaVuSans-110"/>
     <use x="391.650391" xlink:href="#DejaVuSans-111"/>
     <use x="452.832031" xlink:href="#DejaVuSans-118"/>
     <use x="512.011719" xlink:href="#DejaVuSans-111"/>
     <use x="573.193359" xlink:href="#DejaVuSans-115"/>
     <use x="625.292969" xlink:href="#DejaVuSans-32"/>
     <use x="657.080078" xlink:href="#DejaVuSans-45"/>
     <use x="693.164062" xlink:href="#DejaVuSans-32"/>
     <use x="724.951172" xlink:href="#DejaVuSans-82"/>
     <use x="794.433594" xlink:href="#DejaVuSans-82"/>
     <use x="863.916016" xlink:href="#DejaVuSans-32"/>
     <use x="895.703125" xlink:href="#DejaVuSans-45"/>
     <use x="931.787109" xlink:href="#DejaVuSans-32"/>
     <use x="963.574219" xlink:href="#DejaVuSans-40"/>
     <use x="1002.587891" xlink:href="#DejaVuSans-100"/>
     <use x="1066.064453" xlink:href="#DejaVuSans-97"/>
     <use x="1127.34375" xlink:href="#DejaVuSans-116"/>
     <use x="1166.552734" xlink:href="#DejaVuSans-97"/>
     <use x="1227.832031" xlink:href="#DejaVuSans-41"/>
    </g>
   </g>
  </g>
  <g id="axes_3">
   <g id="patch_194">
    <path d="M 371.357268 325.921635 
L 457.79976 325.921635 
L 457.79976 18.118365 
L 371.357268 18.118365 
z
" style="fill:#ffffff;"/>
   </g>
   <g id="matplotlib.axis_5">
    <g id="xtick_5">
     <g id="line2d_25">
      <g>
       <use style="stroke:#000000;stroke-width:0.8;" x="375.286472" xlink:href="#m0cb72656a7" y="325.921635"/>
      </g>
     </g>
     <g id="text_25">
      <!-- 0 -->
      <g transform="translate(372.105222 340.520072)scale(0.1 -0.1)">
       <use xlink:href="#DejaVuSans-48"/>
      </g>
     </g>
    </g>
    <g id="xtick_6">
     <g id="line2d_26">
      <g>
       <use style="stroke:#000000;stroke-width:0.8;" x="418.944296" xlink:href="#m0cb72656a7" y="325.921635"/>
      </g>
     </g>
     <g id="text_26">
      <!-- 50 -->
      <g transform="translate(412.581796 340.520072)scale(0.1 -0.1)">
       <use xlink:href="#DejaVuSans-53"/>
       <use x="63.623047" xlink:href="#DejaVuSans-48"/>
      </g>
     </g>
    </g>
   </g>
   <g id="matplotlib.axis_6">
    <g id="ytick_19">
     <g id="line2d_27">
      <g>
       <use style="stroke:#000000;stroke-width:0.8;" x="371.357268" xlink:href="#me2fb0cab65" y="318.843316"/>
      </g>
     </g>
     <g id="text_27">
      <!-- 0.5 -->
      <defs>
       <path d="M 10.6875 12.40625 
L 21 12.40625 
L 21 0 
L 10.6875 0 
z
" id="DejaVuSans-46"/>
      </defs>
      <g transform="translate(348.454143 322.642534)scale(0.1 -0.1)">
       <use xlink:href="#DejaVuSans-48"/>
       <use x="63.623047" xlink:href="#DejaVuSans-46"/>
       <use x="95.410156" xlink:href="#DejaVuSans-53"/>
      </g>
     </g>
    </g>
    <g id="ytick_20">
     <g id="line2d_28">
      <g>
       <use style="stroke:#000000;stroke-width:0.8;" x="371.357268" xlink:href="#me2fb0cab65" y="262.70426"/>
      </g>
     </g>
     <g id="text_28">
      <!-- 1.0 -->
      <g transform="translate(348.454143 266.503478)scale(0.1 -0.1)">
       <use xlink:href="#DejaVuSans-49"/>
       <use x="63.623047" xlink:href="#DejaVuSans-46"/>
       <use x="95.410156" xlink:href="#DejaVuSans-48"/>
      </g>
     </g>
    </g>
    <g id="ytick_21">
     <g id="line2d_29">
      <g>
       <use style="stroke:#000000;stroke-width:0.8;" x="371.357268" xlink:href="#me2fb0cab65" y="206.565203"/>
      </g>
     </g>
     <g id="text_29">
      <!-- 1.5 -->
      <g transform="translate(348.454143 210.364422)scale(0.1 -0.1)">
       <use xlink:href="#DejaVuSans-49"/>
       <use x="63.623047" xlink:href="#DejaVuSans-46"/>
       <use x="95.410156" xlink:href="#DejaVuSans-53"/>
      </g>
     </g>
    </g>
    <g id="ytick_22">
     <g id="line2d_30">
      <g>
       <use style="stroke:#000000;stroke-width:0.8;" x="371.357268" xlink:href="#me2fb0cab65" y="150.426147"/>
      </g>
     </g>
     <g id="text_30">
      <!-- 2.0 -->
      <g transform="translate(348.454143 154.225366)scale(0.1 -0.1)">
       <use xlink:href="#DejaVuSans-50"/>
       <use x="63.623047" xlink:href="#DejaVuSans-46"/>
       <use x="95.410156" xlink:href="#DejaVuSans-48"/>
      </g>
     </g>
    </g>
    <g id="ytick_23">
     <g id="line2d_31">
      <g>
       <use style="stroke:#000000;stroke-width:0.8;" x="371.357268" xlink:href="#me2fb0cab65" y="94.287091"/>
      </g>
     </g>
     <g id="text_31">
      <!-- 2.5 -->
      <g transform="translate(348.454143 98.08631)scale(0.1 -0.1)">
       <use xlink:href="#DejaVuSans-50"/>
       <use x="63.623047" xlink:href="#DejaVuSans-46"/>
       <use x="95.410156" xlink:href="#DejaVuSans-53"/>
      </g>
     </g>
    </g>
    <g id="ytick_24">
     <g id="line2d_32">
      <g>
       <use style="stroke:#000000;stroke-width:0.8;" x="371.357268" xlink:href="#me2fb0cab65" y="38.148035"/>
      </g>
     </g>
     <g id="text_32">
      <!-- 3.0 -->
      <g transform="translate(348.454143 41.947254)scale(0.1 -0.1)">
       <use xlink:href="#DejaVuSans-51"/>
       <use x="63.623047" xlink:href="#DejaVuSans-46"/>
       <use x="95.410156" xlink:href="#DejaVuSans-48"/>
      </g>
     </g>
    </g>
   </g>
   <g id="line2d_33">
    <path clip-path="url(#p32aead6220)" d="M 375.286472 32.109423 
L 376.159628 65.907478 
L 377.032785 90.6577 
L 377.905941 146.631925 
L 378.779098 161.857144 
L 379.652254 175.222936 
L 380.525411 186.616427 
L 381.398567 192.942011 
L 382.271724 198.167332 
L 383.14488 202.146566 
L 384.018037 202.431419 
L 384.891193 201.452224 
L 385.76435 196.542101 
L 386.637506 189.562593 
L 387.510663 180.273753 
L 388.383819 169.217082 
L 389.256976 158.043293 
L 390.130132 152.804181 
L 391.003289 149.869275 
L 391.876445 151.427592 
L 392.749602 156.320014 
L 393.622758 164.351116 
L 394.495914 174.434797 
L 395.369071 186.729917 
L 396.242227 197.251199 
L 397.115384 208.535377 
L 397.98854 218.044975 
L 398.861697 224.017608 
L 399.734853 225.879296 
L 400.60801 224.820086 
L 401.481166 219.250043 
L 402.354323 211.612316 
L 403.227479 200.950985 
L 404.100636 190.649784 
L 404.973792 183.724005 
L 405.846949 180.174803 
L 406.720105 178.696781 
L 407.593262 180.766655 
L 408.466418 185.758923 
L 409.339575 193.490724 
L 410.212731 202.655816 
L 411.085888 212.145761 
L 411.959044 221.695147 
L 412.832201 231.720792 
L 413.705357 240.234133 
L 414.578514 246.194267 
L 415.45167 249.589598 
L 416.324827 250.545216 
L 417.197983 248.63979 
L 418.07114 244.722644 
L 418.944296 238.857248 
L 419.817453 233.502472 
L 420.690609 230.435737 
L 421.563766 229.258022 
L 422.436922 228.912487 
L 423.310079 230.492866 
L 424.183235 232.321843 
L 425.056392 233.835712 
L 425.929548 233.30101 
L 426.802705 229.202346 
L 427.675861 221.549906 
L 428.549018 212.865062 
L 429.422174 202.048729 
L 430.295331 191.054902 
L 431.168487 181.12431 
L 432.041644 173.646493 
L 432.9148 168.928994 
L 433.787957 167.343822 
L 434.661113 167.374619 
L 435.53427 170.198872 
L 436.407426 175.741657 
L 437.280582 183.780717 
L 438.153739 193.783087 
L 439.026895 206.274774 
L 439.900052 220.881861 
L 440.773208 237.911551 
L 441.646365 256.190605 
L 442.519521 274.254829 
L 443.392678 290.963271 
L 444.265834 304.772072 
L 445.138991 311.930577 
L 446.012147 310.177535 
L 446.885304 298.127197 
L 447.75846 276.074546 
L 448.631617 248.925472 
L 449.504773 225.300356 
L 450.37793 204.055694 
L 451.251086 190.318102 
L 452.124243 202.682162 
L 452.997399 197.586782 
L 453.870556 197.559432 
" style="fill:none;stroke:#ff0000;stroke-linecap:square;stroke-width:1.5;"/>
   </g>
   <g id="patch_195">
    <path d="M 371.357268 325.921635 
L 371.357268 18.118365 
" style="fill:none;stroke:#000000;stroke-linecap:square;stroke-linejoin:miter;stroke-width:0.8;"/>
   </g>
   <g id="patch_196">
    <path d="M 457.79976 325.921635 
L 457.79976 18.118365 
" style="fill:none;stroke:#000000;stroke-linecap:square;stroke-linejoin:miter;stroke-width:0.8;"/>
   </g>
   <g id="patch_197">
    <path d="M 371.357268 325.921635 
L 457.79976 325.921635 
" style="fill:none;stroke:#000000;stroke-linecap:square;stroke-linejoin:miter;stroke-width:0.8;"/>
   </g>
   <g id="patch_198">
    <path d="M 371.357268 18.118365 
L 457.79976 18.118365 
" style="fill:none;stroke:#000000;stroke-linecap:square;stroke-linejoin:miter;stroke-width:0.8;"/>
   </g>
   <g id="text_33">
    <!-- r0 - RR - (data) -->
    <defs>
     <path d="M 41.109375 46.296875 
Q 39.59375 47.171875 37.8125 47.578125 
Q 36.03125 48 33.890625 48 
Q 26.265625 48 22.1875 43.046875 
Q 18.109375 38.09375 18.109375 28.8125 
L 18.109375 0 
L 9.078125 0 
L 9.078125 54.6875 
L 18.109375 54.6875 
L 18.109375 46.1875 
Q 20.953125 51.171875 25.484375 53.578125 
Q 30.03125 56 36.53125 56 
Q 37.453125 56 38.578125 55.875 
Q 39.703125 55.765625 41.0625 55.515625 
z
" id="DejaVuSans-114"/>
    </defs>
    <g transform="translate(369.802576 12.118365)scale(0.12 -0.12)">
     <use xlink:href="#DejaVuSans-114"/>
     <use x="41.113281" xlink:href="#DejaVuSans-48"/>
     <use x="104.736328" xlink:href="#DejaVuSans-32"/>
     <use x="136.523438" xlink:href="#DejaVuSans-45"/>
     <use x="172.607422" xlink:href="#DejaVuSans-32"/>
     <use x="204.394531" xlink:href="#DejaVuSans-82"/>
     <use x="273.876953" xlink:href="#DejaVuSans-82"/>
     <use x="343.359375" xlink:href="#DejaVuSans-32"/>
     <use x="375.146484" xlink:href="#DejaVuSans-45"/>
     <use x="411.230469" xlink:href="#DejaVuSans-32"/>
     <use x="443.017578" xlink:href="#DejaVuSans-40"/>
     <use x="482.03125" xlink:href="#DejaVuSans-100"/>
     <use x="545.507812" xlink:href="#DejaVuSans-97"/>
     <use x="606.787109" xlink:href="#DejaVuSans-116"/>
     <use x="645.996094" xlink:href="#DejaVuSans-97"/>
     <use x="707.275391" xlink:href="#DejaVuSans-41"/>
    </g>
   </g>
  </g>
 </g>
 <defs>
  <clipPath id="p5855ed5b6a">
   <rect height="307.80327" width="86.442492" x="50.882792" y="18.118365"/>
  </clipPath>
  <clipPath id="pee9dcab560">
   <rect height="307.80327" width="86.442492" x="223.609743" y="18.118365"/>
  </clipPath>
  <clipPath id="p32aead6220">
   <rect height="307.80327" width="86.442492" x="371.357268" y="18.118365"/>
  </clipPath>
 </defs>
</svg>
