<?xml version="1.0" encoding="utf-8" standalone="no"?>
<!DOCTYPE svg PUBLIC "-//W3C//DTD SVG 1.1//EN"
  "http://www.w3.org/Graphics/SVG/1.1/DTD/svg11.dtd">
<!-- Created with matplotlib (https://matplotlib.org/) -->
<svg height="345.6pt" version="1.1" viewBox="0 0 460.8 345.6" width="460.8pt" xmlns="http://www.w3.org/2000/svg" xmlns:xlink="http://www.w3.org/1999/xlink">
 <defs>
  <style type="text/css">
*{stroke-linecap:butt;stroke-linejoin:round;}
  </style>
 </defs>
 <g id="figure_1">
  <g id="patch_1">
   <path d="M 0 345.6 
L 460.8 345.6 
L 460.8 0 
L 0 0 
z
" style="fill:#ffffff;"/>
  </g>
  <g id="axes_1">
   <g id="patch_2">
    <path d="M 55.490865 137.71551 
L 228.27701 137.71551 
L 228.27701 18.118365 
L 55.490865 18.118365 
z
" style="fill:#ffffff;"/>
   </g>
   <g id="patch_3">
    <path clip-path="url(#pf238ac4d92)" d="M 63.344781 137.71551 
L 64.56718 137.71551 
L 64.56718 137.703856 
L 63.344781 137.703856 
z
" style="fill:#1f77b4;"/>
   </g>
   <g id="patch_4">
    <path clip-path="url(#pf238ac4d92)" d="M 64.87278 137.71551 
L 66.095179 137.71551 
L 66.095179 137.692202 
L 64.87278 137.692202 
z
" style="fill:#1f77b4;"/>
   </g>
   <g id="patch_5">
    <path clip-path="url(#pf238ac4d92)" d="M 66.400779 137.71551 
L 67.623178 137.71551 
L 67.623178 137.692202 
L 66.400779 137.692202 
z
" style="fill:#1f77b4;"/>
   </g>
   <g id="patch_6">
    <path clip-path="url(#pf238ac4d92)" d="M 67.928778 137.71551 
L 69.151177 137.71551 
L 69.151177 137.680548 
L 67.928778 137.680548 
z
" style="fill:#1f77b4;"/>
   </g>
   <g id="patch_7">
    <path clip-path="url(#pf238ac4d92)" d="M 69.456777 137.71551 
L 70.679177 137.71551 
L 70.679177 137.680548 
L 69.456777 137.680548 
z
" style="fill:#1f77b4;"/>
   </g>
   <g id="patch_8">
    <path clip-path="url(#pf238ac4d92)" d="M 70.984776 137.71551 
L 72.207176 137.71551 
L 72.207176 137.680548 
L 70.984776 137.680548 
z
" style="fill:#1f77b4;"/>
   </g>
   <g id="patch_9">
    <path clip-path="url(#pf238ac4d92)" d="M 72.512776 137.71551 
L 73.735175 137.71551 
L 73.735175 137.65724 
L 72.512776 137.65724 
z
" style="fill:#1f77b4;"/>
   </g>
   <g id="patch_10">
    <path clip-path="url(#pf238ac4d92)" d="M 74.040775 137.71551 
L 75.263174 137.71551 
L 75.263174 137.604796 
L 74.040775 137.604796 
z
" style="fill:#1f77b4;"/>
   </g>
   <g id="patch_11">
    <path clip-path="url(#pf238ac4d92)" d="M 75.568774 137.71551 
L 76.791173 137.71551 
L 76.791173 137.552353 
L 75.568774 137.552353 
z
" style="fill:#1f77b4;"/>
   </g>
   <g id="patch_12">
    <path clip-path="url(#pf238ac4d92)" d="M 77.096773 137.71551 
L 78.319172 137.71551 
L 78.319172 137.499909 
L 77.096773 137.499909 
z
" style="fill:#1f77b4;"/>
   </g>
   <g id="patch_13">
    <path clip-path="url(#pf238ac4d92)" d="M 78.624772 137.71551 
L 79.847172 137.71551 
L 79.847172 137.365887 
L 78.624772 137.365887 
z
" style="fill:#1f77b4;"/>
   </g>
   <g id="patch_14">
    <path clip-path="url(#pf238ac4d92)" d="M 80.152771 137.71551 
L 81.375171 137.71551 
L 81.375171 137.295963 
L 80.152771 137.295963 
z
" style="fill:#1f77b4;"/>
   </g>
   <g id="patch_15">
    <path clip-path="url(#pf238ac4d92)" d="M 81.680771 137.71551 
L 82.90317 137.71551 
L 82.90317 137.214384 
L 81.680771 137.214384 
z
" style="fill:#1f77b4;"/>
   </g>
   <g id="patch_16">
    <path clip-path="url(#pf238ac4d92)" d="M 83.20877 137.71551 
L 84.431169 137.71551 
L 84.431169 137.144459 
L 83.20877 137.144459 
z
" style="fill:#1f77b4;"/>
   </g>
   <g id="patch_17">
    <path clip-path="url(#pf238ac4d92)" d="M 84.736769 137.71551 
L 85.959168 137.71551 
L 85.959168 136.998783 
L 84.736769 136.998783 
z
" style="fill:#1f77b4;"/>
   </g>
   <g id="patch_18">
    <path clip-path="url(#pf238ac4d92)" d="M 86.264768 137.71551 
L 87.487167 137.71551 
L 87.487167 136.736566 
L 86.264768 136.736566 
z
" style="fill:#1f77b4;"/>
   </g>
   <g id="patch_19">
    <path clip-path="url(#pf238ac4d92)" d="M 87.792767 137.71551 
L 89.015167 137.71551 
L 89.015167 136.579236 
L 87.792767 136.579236 
z
" style="fill:#1f77b4;"/>
   </g>
   <g id="patch_20">
    <path clip-path="url(#pf238ac4d92)" d="M 89.320766 137.71551 
L 90.543166 137.71551 
L 90.543166 136.567582 
L 89.320766 136.567582 
z
" style="fill:#1f77b4;"/>
   </g>
   <g id="patch_21">
    <path clip-path="url(#pf238ac4d92)" d="M 90.848766 137.71551 
L 92.071165 137.71551 
L 92.071165 136.398597 
L 90.848766 136.398597 
z
" style="fill:#1f77b4;"/>
   </g>
   <g id="patch_22">
    <path clip-path="url(#pf238ac4d92)" d="M 92.376765 137.71551 
L 93.599164 137.71551 
L 93.599164 136.311192 
L 92.376765 136.311192 
z
" style="fill:#1f77b4;"/>
   </g>
   <g id="patch_23">
    <path clip-path="url(#pf238ac4d92)" d="M 93.904764 137.71551 
L 95.127163 137.71551 
L 95.127163 136.118899 
L 93.904764 136.118899 
z
" style="fill:#1f77b4;"/>
   </g>
   <g id="patch_24">
    <path clip-path="url(#pf238ac4d92)" d="M 95.432763 137.71551 
L 96.655162 137.71551 
L 96.655162 135.932434 
L 95.432763 135.932434 
z
" style="fill:#1f77b4;"/>
   </g>
   <g id="patch_25">
    <path clip-path="url(#pf238ac4d92)" d="M 96.960762 137.71551 
L 98.183162 137.71551 
L 98.183162 135.769276 
L 96.960762 135.769276 
z
" style="fill:#1f77b4;"/>
   </g>
   <g id="patch_26">
    <path clip-path="url(#pf238ac4d92)" d="M 98.488761 137.71551 
L 99.711161 137.71551 
L 99.711161 135.407999 
L 98.488761 135.407999 
z
" style="fill:#1f77b4;"/>
   </g>
   <g id="patch_27">
    <path clip-path="url(#pf238ac4d92)" d="M 100.016761 137.71551 
L 101.23916 137.71551 
L 101.23916 135.326421 
L 100.016761 135.326421 
z
" style="fill:#1f77b4;"/>
   </g>
   <g id="patch_28">
    <path clip-path="url(#pf238ac4d92)" d="M 101.54476 137.71551 
L 102.767159 137.71551 
L 102.767159 135.279804 
L 101.54476 135.279804 
z
" style="fill:#1f77b4;"/>
   </g>
   <g id="patch_29">
    <path clip-path="url(#pf238ac4d92)" d="M 103.072759 137.71551 
L 104.295158 137.71551 
L 104.295158 134.912701 
L 103.072759 134.912701 
z
" style="fill:#1f77b4;"/>
   </g>
   <g id="patch_30">
    <path clip-path="url(#pf238ac4d92)" d="M 104.600758 137.71551 
L 105.823157 137.71551 
L 105.823157 134.75537 
L 104.600758 134.75537 
z
" style="fill:#1f77b4;"/>
   </g>
   <g id="patch_31">
    <path clip-path="url(#pf238ac4d92)" d="M 106.128757 137.71551 
L 107.351156 137.71551 
L 107.351156 134.481499 
L 106.128757 134.481499 
z
" style="fill:#1f77b4;"/>
   </g>
   <g id="patch_32">
    <path clip-path="url(#pf238ac4d92)" d="M 107.656756 137.71551 
L 108.879156 137.71551 
L 108.879156 134.114395 
L 107.656756 134.114395 
z
" style="fill:#1f77b4;"/>
   </g>
   <g id="patch_33">
    <path clip-path="url(#pf238ac4d92)" d="M 109.184755 137.71551 
L 110.407155 137.71551 
L 110.407155 134.009508 
L 109.184755 134.009508 
z
" style="fill:#1f77b4;"/>
   </g>
   <g id="patch_34">
    <path clip-path="url(#pf238ac4d92)" d="M 110.712755 137.71551 
L 111.935154 137.71551 
L 111.935154 133.9862 
L 110.712755 133.9862 
z
" style="fill:#1f77b4;"/>
   </g>
   <g id="patch_35">
    <path clip-path="url(#pf238ac4d92)" d="M 112.240754 137.71551 
L 113.463153 137.71551 
L 113.463153 133.910448 
L 112.240754 133.910448 
z
" style="fill:#1f77b4;"/>
   </g>
   <g id="patch_36">
    <path clip-path="url(#pf238ac4d92)" d="M 113.768753 137.71551 
L 114.991152 137.71551 
L 114.991152 133.846351 
L 113.768753 133.846351 
z
" style="fill:#1f77b4;"/>
   </g>
   <g id="patch_37">
    <path clip-path="url(#pf238ac4d92)" d="M 115.296752 137.71551 
L 116.519151 137.71551 
L 116.519151 133.636577 
L 115.296752 133.636577 
z
" style="fill:#1f77b4;"/>
   </g>
   <g id="patch_38">
    <path clip-path="url(#pf238ac4d92)" d="M 116.824751 137.71551 
L 118.047151 137.71551 
L 118.047151 133.362706 
L 116.824751 133.362706 
z
" style="fill:#1f77b4;"/>
   </g>
   <g id="patch_39">
    <path clip-path="url(#pf238ac4d92)" d="M 118.35275 137.71551 
L 119.57515 137.71551 
L 119.57515 133.170414 
L 118.35275 133.170414 
z
" style="fill:#1f77b4;"/>
   </g>
   <g id="patch_40">
    <path clip-path="url(#pf238ac4d92)" d="M 119.88075 137.71551 
L 121.103149 137.71551 
L 121.103149 133.042218 
L 119.88075 133.042218 
z
" style="fill:#1f77b4;"/>
   </g>
   <g id="patch_41">
    <path clip-path="url(#pf238ac4d92)" d="M 121.408749 137.71551 
L 122.631148 137.71551 
L 122.631148 132.873234 
L 121.408749 132.873234 
z
" style="fill:#1f77b4;"/>
   </g>
   <g id="patch_42">
    <path clip-path="url(#pf238ac4d92)" d="M 122.936748 137.71551 
L 124.159147 137.71551 
L 124.159147 132.739212 
L 122.936748 132.739212 
z
" style="fill:#1f77b4;"/>
   </g>
   <g id="patch_43">
    <path clip-path="url(#pf238ac4d92)" d="M 124.464747 137.71551 
L 125.687146 137.71551 
L 125.687146 132.535265 
L 124.464747 132.535265 
z
" style="fill:#1f77b4;"/>
   </g>
   <g id="patch_44">
    <path clip-path="url(#pf238ac4d92)" d="M 125.992746 137.71551 
L 127.215146 137.71551 
L 127.215146 132.44786 
L 125.992746 132.44786 
z
" style="fill:#1f77b4;"/>
   </g>
   <g id="patch_45">
    <path clip-path="url(#pf238ac4d92)" d="M 127.520745 137.71551 
L 128.743145 137.71551 
L 128.743145 132.337146 
L 127.520745 132.337146 
z
" style="fill:#1f77b4;"/>
   </g>
   <g id="patch_46">
    <path clip-path="url(#pf238ac4d92)" d="M 129.048745 137.71551 
L 130.271144 137.71551 
L 130.271144 131.923426 
L 129.048745 131.923426 
z
" style="fill:#1f77b4;"/>
   </g>
   <g id="patch_47">
    <path clip-path="url(#pf238ac4d92)" d="M 130.576744 137.71551 
L 131.799143 137.71551 
L 131.799143 131.533013 
L 130.576744 131.533013 
z
" style="fill:#1f77b4;"/>
   </g>
   <g id="patch_48">
    <path clip-path="url(#pf238ac4d92)" d="M 132.104743 137.71551 
L 133.327142 137.71551 
L 133.327142 131.329067 
L 132.104743 131.329067 
z
" style="fill:#1f77b4;"/>
   </g>
   <g id="patch_49">
    <path clip-path="url(#pf238ac4d92)" d="M 133.632742 137.71551 
L 134.855141 137.71551 
L 134.855141 130.921173 
L 133.632742 130.921173 
z
" style="fill:#1f77b4;"/>
   </g>
   <g id="patch_50">
    <path clip-path="url(#pf238ac4d92)" d="M 135.160741 137.71551 
L 136.383141 137.71551 
L 136.383141 130.559897 
L 135.160741 130.559897 
z
" style="fill:#1f77b4;"/>
   </g>
   <g id="patch_51">
    <path clip-path="url(#pf238ac4d92)" d="M 136.68874 137.71551 
L 137.91114 137.71551 
L 137.91114 130.221928 
L 136.68874 130.221928 
z
" style="fill:#1f77b4;"/>
   </g>
   <g id="patch_52">
    <path clip-path="url(#pf238ac4d92)" d="M 138.21674 137.71551 
L 139.439139 137.71551 
L 139.439139 129.74411 
L 138.21674 129.74411 
z
" style="fill:#1f77b4;"/>
   </g>
   <g id="patch_53">
    <path clip-path="url(#pf238ac4d92)" d="M 139.744739 137.71551 
L 140.967138 137.71551 
L 140.967138 129.173059 
L 139.744739 129.173059 
z
" style="fill:#1f77b4;"/>
   </g>
   <g id="patch_54">
    <path clip-path="url(#pf238ac4d92)" d="M 141.272738 137.71551 
L 142.495137 137.71551 
L 142.495137 128.805955 
L 141.272738 128.805955 
z
" style="fill:#1f77b4;"/>
   </g>
   <g id="patch_55">
    <path clip-path="url(#pf238ac4d92)" d="M 142.800737 137.71551 
L 144.023136 137.71551 
L 144.023136 128.281521 
L 142.800737 128.281521 
z
" style="fill:#1f77b4;"/>
   </g>
   <g id="patch_56">
    <path clip-path="url(#pf238ac4d92)" d="M 144.328736 137.71551 
L 145.551135 137.71551 
L 145.551135 128.00765 
L 144.328736 128.00765 
z
" style="fill:#1f77b4;"/>
   </g>
   <g id="patch_57">
    <path clip-path="url(#pf238ac4d92)" d="M 145.856735 137.71551 
L 147.079135 137.71551 
L 147.079135 127.745433 
L 145.856735 127.745433 
z
" style="fill:#1f77b4;"/>
   </g>
   <g id="patch_58">
    <path clip-path="url(#pf238ac4d92)" d="M 147.384734 137.71551 
L 148.607134 137.71551 
L 148.607134 127.13942 
L 147.384734 127.13942 
z
" style="fill:#1f77b4;"/>
   </g>
   <g id="patch_59">
    <path clip-path="url(#pf238ac4d92)" d="M 148.912734 137.71551 
L 150.135133 137.71551 
L 150.135133 125.770064 
L 148.912734 125.770064 
z
" style="fill:#1f77b4;"/>
   </g>
   <g id="patch_60">
    <path clip-path="url(#pf238ac4d92)" d="M 150.440733 137.71551 
L 151.663132 137.71551 
L 151.663132 125.309727 
L 150.440733 125.309727 
z
" style="fill:#1f77b4;"/>
   </g>
   <g id="patch_61">
    <path clip-path="url(#pf238ac4d92)" d="M 151.968732 137.71551 
L 153.191131 137.71551 
L 153.191131 123.456727 
L 151.968732 123.456727 
z
" style="fill:#1f77b4;"/>
   </g>
   <g id="patch_62">
    <path clip-path="url(#pf238ac4d92)" d="M 153.496731 137.71551 
L 154.71913 137.71551 
L 154.71913 123.188682 
L 153.496731 123.188682 
z
" style="fill:#1f77b4;"/>
   </g>
   <g id="patch_63">
    <path clip-path="url(#pf238ac4d92)" d="M 155.02473 137.71551 
L 156.24713 137.71551 
L 156.24713 122.903157 
L 155.02473 122.903157 
z
" style="fill:#1f77b4;"/>
   </g>
   <g id="patch_64">
    <path clip-path="url(#pf238ac4d92)" d="M 156.552729 137.71551 
L 157.775129 137.71551 
L 157.775129 122.705038 
L 156.552729 122.705038 
z
" style="fill:#1f77b4;"/>
   </g>
   <g id="patch_65">
    <path clip-path="url(#pf238ac4d92)" d="M 158.080729 137.71551 
L 159.303128 137.71551 
L 159.303128 120.718015 
L 158.080729 120.718015 
z
" style="fill:#1f77b4;"/>
   </g>
   <g id="patch_66">
    <path clip-path="url(#pf238ac4d92)" d="M 159.608728 137.71551 
L 160.831127 137.71551 
L 160.831127 120.718015 
L 159.608728 120.718015 
z
" style="fill:#1f77b4;"/>
   </g>
   <g id="patch_67">
    <path clip-path="url(#pf238ac4d92)" d="M 161.136727 137.71551 
L 162.359126 137.71551 
L 162.359126 120.251851 
L 161.136727 120.251851 
z
" style="fill:#1f77b4;"/>
   </g>
   <g id="patch_68">
    <path clip-path="url(#pf238ac4d92)" d="M 162.664726 137.71551 
L 163.887125 137.71551 
L 163.887125 116.755623 
L 162.664726 116.755623 
z
" style="fill:#1f77b4;"/>
   </g>
   <g id="patch_69">
    <path clip-path="url(#pf238ac4d92)" d="M 164.192725 137.71551 
L 165.415125 137.71551 
L 165.415125 116.184572 
L 164.192725 116.184572 
z
" style="fill:#1f77b4;"/>
   </g>
   <g id="patch_70">
    <path clip-path="url(#pf238ac4d92)" d="M 165.720724 137.71551 
L 166.943124 137.71551 
L 166.943124 115.95149 
L 165.720724 115.95149 
z
" style="fill:#1f77b4;"/>
   </g>
   <g id="patch_71">
    <path clip-path="url(#pf238ac4d92)" d="M 167.248724 137.71551 
L 168.471123 137.71551 
L 168.471123 115.95149 
L 167.248724 115.95149 
z
" style="fill:#1f77b4;"/>
   </g>
   <g id="patch_72">
    <path clip-path="url(#pf238ac4d92)" d="M 168.776723 137.71551 
L 169.999122 137.71551 
L 169.999122 115.864085 
L 168.776723 115.864085 
z
" style="fill:#1f77b4;"/>
   </g>
   <g id="patch_73">
    <path clip-path="url(#pf238ac4d92)" d="M 170.304722 137.71551 
L 171.527121 137.71551 
L 171.527121 108.737606 
L 170.304722 108.737606 
z
" style="fill:#1f77b4;"/>
   </g>
   <g id="patch_74">
    <path clip-path="url(#pf238ac4d92)" d="M 171.832721 137.71551 
L 173.05512 137.71551 
L 173.05512 105.824083 
L 171.832721 105.824083 
z
" style="fill:#1f77b4;"/>
   </g>
   <g id="patch_75">
    <path clip-path="url(#pf238ac4d92)" d="M 173.36072 137.71551 
L 174.58312 137.71551 
L 174.58312 103.231047 
L 173.36072 103.231047 
z
" style="fill:#1f77b4;"/>
   </g>
   <g id="patch_76">
    <path clip-path="url(#pf238ac4d92)" d="M 174.888719 137.71551 
L 176.111119 137.71551 
L 176.111119 100.795342 
L 174.888719 100.795342 
z
" style="fill:#1f77b4;"/>
   </g>
   <g id="patch_77">
    <path clip-path="url(#pf238ac4d92)" d="M 176.416719 137.71551 
L 177.639118 137.71551 
L 177.639118 100.014517 
L 176.416719 100.014517 
z
" style="fill:#1f77b4;"/>
   </g>
   <g id="patch_78">
    <path clip-path="url(#pf238ac4d92)" d="M 177.944718 137.71551 
L 179.167117 137.71551 
L 179.167117 99.49591 
L 177.944718 99.49591 
z
" style="fill:#1f77b4;"/>
   </g>
   <g id="patch_79">
    <path clip-path="url(#pf238ac4d92)" d="M 179.472717 137.71551 
L 180.695116 137.71551 
L 180.695116 98.178998 
L 179.472717 98.178998 
z
" style="fill:#1f77b4;"/>
   </g>
   <g id="patch_80">
    <path clip-path="url(#pf238ac4d92)" d="M 181.000716 137.71551 
L 182.223115 137.71551 
L 182.223115 96.646484 
L 181.000716 96.646484 
z
" style="fill:#1f77b4;"/>
   </g>
   <g id="patch_81">
    <path clip-path="url(#pf238ac4d92)" d="M 182.528715 137.71551 
L 183.751114 137.71551 
L 183.751114 89.735607 
L 182.528715 89.735607 
z
" style="fill:#1f77b4;"/>
   </g>
   <g id="patch_82">
    <path clip-path="url(#pf238ac4d92)" d="M 184.056714 137.71551 
L 185.279114 137.71551 
L 185.279114 89.735607 
L 184.056714 89.735607 
z
" style="fill:#1f77b4;"/>
   </g>
   <g id="patch_83">
    <path clip-path="url(#pf238ac4d92)" d="M 185.584713 137.71551 
L 186.807113 137.71551 
L 186.807113 83.861944 
L 185.584713 83.861944 
z
" style="fill:#1f77b4;"/>
   </g>
   <g id="patch_84">
    <path clip-path="url(#pf238ac4d92)" d="M 187.112713 137.71551 
L 188.335112 137.71551 
L 188.335112 83.33751 
L 187.112713 83.33751 
z
" style="fill:#1f77b4;"/>
   </g>
   <g id="patch_85">
    <path clip-path="url(#pf238ac4d92)" d="M 188.640712 137.71551 
L 189.863111 137.71551 
L 189.863111 83.33751 
L 188.640712 83.33751 
z
" style="fill:#1f77b4;"/>
   </g>
   <g id="patch_86">
    <path clip-path="url(#pf238ac4d92)" d="M 190.168711 137.71551 
L 191.39111 137.71551 
L 191.39111 79.917033 
L 190.168711 79.917033 
z
" style="fill:#1f77b4;"/>
   </g>
   <g id="patch_87">
    <path clip-path="url(#pf238ac4d92)" d="M 191.69671 137.71551 
L 192.919109 137.71551 
L 192.919109 77.125878 
L 191.69671 77.125878 
z
" style="fill:#1f77b4;"/>
   </g>
   <g id="patch_88">
    <path clip-path="url(#pf238ac4d92)" d="M 193.224709 137.71551 
L 194.447109 137.71551 
L 194.447109 73.559725 
L 193.224709 73.559725 
z
" style="fill:#1f77b4;"/>
   </g>
   <g id="patch_89">
    <path clip-path="url(#pf238ac4d92)" d="M 194.752708 137.71551 
L 195.975108 137.71551 
L 195.975108 70.220827 
L 194.752708 70.220827 
z
" style="fill:#1f77b4;"/>
   </g>
   <g id="patch_90">
    <path clip-path="url(#pf238ac4d92)" d="M 196.280708 137.71551 
L 197.503107 137.71551 
L 197.503107 67.575348 
L 196.280708 67.575348 
z
" style="fill:#1f77b4;"/>
   </g>
   <g id="patch_91">
    <path clip-path="url(#pf238ac4d92)" d="M 197.808707 137.71551 
L 199.031106 137.71551 
L 199.031106 67.004297 
L 197.808707 67.004297 
z
" style="fill:#1f77b4;"/>
   </g>
   <g id="patch_92">
    <path clip-path="url(#pf238ac4d92)" d="M 199.336706 137.71551 
L 200.559105 137.71551 
L 200.559105 66.334187 
L 199.336706 66.334187 
z
" style="fill:#1f77b4;"/>
   </g>
   <g id="patch_93">
    <path clip-path="url(#pf238ac4d92)" d="M 200.864705 137.71551 
L 202.087104 137.71551 
L 202.087104 63.117657 
L 200.864705 63.117657 
z
" style="fill:#1f77b4;"/>
   </g>
   <g id="patch_94">
    <path clip-path="url(#pf238ac4d92)" d="M 202.392704 137.71551 
L 203.615104 137.71551 
L 203.615104 58.35696 
L 202.392704 58.35696 
z
" style="fill:#1f77b4;"/>
   </g>
   <g id="patch_95">
    <path clip-path="url(#pf238ac4d92)" d="M 203.920703 137.71551 
L 205.143103 137.71551 
L 205.143103 55.157911 
L 203.920703 55.157911 
z
" style="fill:#1f77b4;"/>
   </g>
   <g id="patch_96">
    <path clip-path="url(#pf238ac4d92)" d="M 205.448703 137.71551 
L 206.671102 137.71551 
L 206.671102 53.899269 
L 205.448703 53.899269 
z
" style="fill:#1f77b4;"/>
   </g>
   <g id="patch_97">
    <path clip-path="url(#pf238ac4d92)" d="M 206.976702 137.71551 
L 208.199101 137.71551 
L 208.199101 52.483297 
L 206.976702 52.483297 
z
" style="fill:#1f77b4;"/>
   </g>
   <g id="patch_98">
    <path clip-path="url(#pf238ac4d92)" d="M 208.504701 137.71551 
L 209.7271 137.71551 
L 209.7271 52.285177 
L 208.504701 52.285177 
z
" style="fill:#1f77b4;"/>
   </g>
   <g id="patch_99">
    <path clip-path="url(#pf238ac4d92)" d="M 210.0327 137.71551 
L 211.255099 137.71551 
L 211.255099 47.757562 
L 210.0327 47.757562 
z
" style="fill:#1f77b4;"/>
   </g>
   <g id="patch_100">
    <path clip-path="url(#pf238ac4d92)" d="M 211.560699 137.71551 
L 212.783099 137.71551 
L 212.783099 41.738223 
L 211.560699 41.738223 
z
" style="fill:#1f77b4;"/>
   </g>
   <g id="patch_101">
    <path clip-path="url(#pf238ac4d92)" d="M 213.088698 137.71551 
L 214.311098 137.71551 
L 214.311098 37.909853 
L 213.088698 37.909853 
z
" style="fill:#1f77b4;"/>
   </g>
   <g id="patch_102">
    <path clip-path="url(#pf238ac4d92)" d="M 214.616698 137.71551 
L 215.839097 137.71551 
L 215.839097 33.865882 
L 214.616698 33.865882 
z
" style="fill:#1f77b4;"/>
   </g>
   <g id="patch_103">
    <path clip-path="url(#pf238ac4d92)" d="M 216.144697 137.71551 
L 217.367096 137.71551 
L 217.367096 29.408192 
L 216.144697 29.408192 
z
" style="fill:#1f77b4;"/>
   </g>
   <g id="patch_104">
    <path clip-path="url(#pf238ac4d92)" d="M 217.672696 137.71551 
L 218.895095 137.71551 
L 218.895095 26.197489 
L 217.672696 26.197489 
z
" style="fill:#1f77b4;"/>
   </g>
   <g id="patch_105">
    <path clip-path="url(#pf238ac4d92)" d="M 219.200695 137.71551 
L 220.423094 137.71551 
L 220.423094 24.973809 
L 219.200695 24.973809 
z
" style="fill:#1f77b4;"/>
   </g>
   <g id="matplotlib.axis_1">
    <g id="xtick_1">
     <g id="line2d_1">
      <defs>
       <path d="M 0 0 
L 0 3.5 
" id="mcc73b9cf71" style="stroke:#000000;stroke-width:0.8;"/>
      </defs>
      <g>
       <use style="stroke:#000000;stroke-width:0.8;" x="63.95598" xlink:href="#mcc73b9cf71" y="137.71551"/>
      </g>
     </g>
     <g id="text_1">
      <!-- 0 -->
      <defs>
       <path d="M 31.78125 66.40625 
Q 24.171875 66.40625 20.328125 58.90625 
Q 16.5 51.421875 16.5 36.375 
Q 16.5 21.390625 20.328125 13.890625 
Q 24.171875 6.390625 31.78125 6.390625 
Q 39.453125 6.390625 43.28125 13.890625 
Q 47.125 21.390625 47.125 36.375 
Q 47.125 51.421875 43.28125 58.90625 
Q 39.453125 66.40625 31.78125 66.40625 
z
M 31.78125 74.21875 
Q 44.046875 74.21875 50.515625 64.515625 
Q 56.984375 54.828125 56.984375 36.375 
Q 56.984375 17.96875 50.515625 8.265625 
Q 44.046875 -1.421875 31.78125 -1.421875 
Q 19.53125 -1.421875 13.0625 8.265625 
Q 6.59375 17.96875 6.59375 36.375 
Q 6.59375 54.828125 13.0625 64.515625 
Q 19.53125 74.21875 31.78125 74.21875 
z
" id="DejaVuSans-48"/>
      </defs>
      <g transform="translate(60.77473 152.313947)scale(0.1 -0.1)">
       <use xlink:href="#DejaVuSans-48"/>
      </g>
     </g>
    </g>
    <g id="xtick_2">
     <g id="line2d_2">
      <g>
       <use style="stroke:#000000;stroke-width:0.8;" x="102.155959" xlink:href="#mcc73b9cf71" y="137.71551"/>
      </g>
     </g>
     <g id="text_2">
      <!-- 25 -->
      <defs>
       <path d="M 19.1875 8.296875 
L 53.609375 8.296875 
L 53.609375 0 
L 7.328125 0 
L 7.328125 8.296875 
Q 12.9375 14.109375 22.625 23.890625 
Q 32.328125 33.6875 34.8125 36.53125 
Q 39.546875 41.84375 41.421875 45.53125 
Q 43.3125 49.21875 43.3125 52.78125 
Q 43.3125 58.59375 39.234375 62.25 
Q 35.15625 65.921875 28.609375 65.921875 
Q 23.96875 65.921875 18.8125 64.3125 
Q 13.671875 62.703125 7.8125 59.421875 
L 7.8125 69.390625 
Q 13.765625 71.78125 18.9375 73 
Q 24.125 74.21875 28.421875 74.21875 
Q 39.75 74.21875 46.484375 68.546875 
Q 53.21875 62.890625 53.21875 53.421875 
Q 53.21875 48.921875 51.53125 44.890625 
Q 49.859375 40.875 45.40625 35.40625 
Q 44.1875 33.984375 37.640625 27.21875 
Q 31.109375 20.453125 19.1875 8.296875 
z
" id="DejaVuSans-50"/>
       <path d="M 10.796875 72.90625 
L 49.515625 72.90625 
L 49.515625 64.59375 
L 19.828125 64.59375 
L 19.828125 46.734375 
Q 21.96875 47.46875 24.109375 47.828125 
Q 26.265625 48.1875 28.421875 48.1875 
Q 40.625 48.1875 47.75 41.5 
Q 54.890625 34.8125 54.890625 23.390625 
Q 54.890625 11.625 47.5625 5.09375 
Q 40.234375 -1.421875 26.90625 -1.421875 
Q 22.3125 -1.421875 17.546875 -0.640625 
Q 12.796875 0.140625 7.71875 1.703125 
L 7.71875 11.625 
Q 12.109375 9.234375 16.796875 8.0625 
Q 21.484375 6.890625 26.703125 6.890625 
Q 35.15625 6.890625 40.078125 11.328125 
Q 45.015625 15.765625 45.015625 23.390625 
Q 45.015625 31 40.078125 35.4375 
Q 35.15625 39.890625 26.703125 39.890625 
Q 22.75 39.890625 18.8125 39.015625 
Q 14.890625 38.140625 10.796875 36.28125 
z
" id="DejaVuSans-53"/>
      </defs>
      <g transform="translate(95.793459 152.313947)scale(0.1 -0.1)">
       <use xlink:href="#DejaVuSans-50"/>
       <use x="63.623047" xlink:href="#DejaVuSans-53"/>
      </g>
     </g>
    </g>
    <g id="xtick_3">
     <g id="line2d_3">
      <g>
       <use style="stroke:#000000;stroke-width:0.8;" x="140.355938" xlink:href="#mcc73b9cf71" y="137.71551"/>
      </g>
     </g>
     <g id="text_3">
      <!-- 50 -->
      <g transform="translate(133.993438 152.313947)scale(0.1 -0.1)">
       <use xlink:href="#DejaVuSans-53"/>
       <use x="63.623047" xlink:href="#DejaVuSans-48"/>
      </g>
     </g>
    </g>
    <g id="xtick_4">
     <g id="line2d_4">
      <g>
       <use style="stroke:#000000;stroke-width:0.8;" x="178.555917" xlink:href="#mcc73b9cf71" y="137.71551"/>
      </g>
     </g>
     <g id="text_4">
      <!-- 75 -->
      <defs>
       <path d="M 8.203125 72.90625 
L 55.078125 72.90625 
L 55.078125 68.703125 
L 28.609375 0 
L 18.3125 0 
L 43.21875 64.59375 
L 8.203125 64.59375 
z
" id="DejaVuSans-55"/>
      </defs>
      <g transform="translate(172.193417 152.313947)scale(0.1 -0.1)">
       <use xlink:href="#DejaVuSans-55"/>
       <use x="63.623047" xlink:href="#DejaVuSans-53"/>
      </g>
     </g>
    </g>
    <g id="xtick_5">
     <g id="line2d_5">
      <g>
       <use style="stroke:#000000;stroke-width:0.8;" x="216.755896" xlink:href="#mcc73b9cf71" y="137.71551"/>
      </g>
     </g>
     <g id="text_5">
      <!-- 100 -->
      <defs>
       <path d="M 12.40625 8.296875 
L 28.515625 8.296875 
L 28.515625 63.921875 
L 10.984375 60.40625 
L 10.984375 69.390625 
L 28.421875 72.90625 
L 38.28125 72.90625 
L 38.28125 8.296875 
L 54.390625 8.296875 
L 54.390625 0 
L 12.40625 0 
z
" id="DejaVuSans-49"/>
      </defs>
      <g transform="translate(207.212146 152.313947)scale(0.1 -0.1)">
       <use xlink:href="#DejaVuSans-49"/>
       <use x="63.623047" xlink:href="#DejaVuSans-48"/>
       <use x="127.246094" xlink:href="#DejaVuSans-48"/>
      </g>
     </g>
    </g>
    <g id="text_6">
     <!-- Dias -->
     <defs>
      <path d="M 19.671875 64.796875 
L 19.671875 8.109375 
L 31.59375 8.109375 
Q 46.6875 8.109375 53.6875 14.9375 
Q 60.6875 21.78125 60.6875 36.53125 
Q 60.6875 51.171875 53.6875 57.984375 
Q 46.6875 64.796875 31.59375 64.796875 
z
M 9.8125 72.90625 
L 30.078125 72.90625 
Q 51.265625 72.90625 61.171875 64.09375 
Q 71.09375 55.28125 71.09375 36.53125 
Q 71.09375 17.671875 61.125 8.828125 
Q 51.171875 0 30.078125 0 
L 9.8125 0 
z
" id="DejaVuSans-68"/>
      <path d="M 9.421875 54.6875 
L 18.40625 54.6875 
L 18.40625 0 
L 9.421875 0 
z
M 9.421875 75.984375 
L 18.40625 75.984375 
L 18.40625 64.59375 
L 9.421875 64.59375 
z
" id="DejaVuSans-105"/>
      <path d="M 34.28125 27.484375 
Q 23.390625 27.484375 19.1875 25 
Q 14.984375 22.515625 14.984375 16.5 
Q 14.984375 11.71875 18.140625 8.90625 
Q 21.296875 6.109375 26.703125 6.109375 
Q 34.1875 6.109375 38.703125 11.40625 
Q 43.21875 16.703125 43.21875 25.484375 
L 43.21875 27.484375 
z
M 52.203125 31.203125 
L 52.203125 0 
L 43.21875 0 
L 43.21875 8.296875 
Q 40.140625 3.328125 35.546875 0.953125 
Q 30.953125 -1.421875 24.3125 -1.421875 
Q 15.921875 -1.421875 10.953125 3.296875 
Q 6 8.015625 6 15.921875 
Q 6 25.140625 12.171875 29.828125 
Q 18.359375 34.515625 30.609375 34.515625 
L 43.21875 34.515625 
L 43.21875 35.40625 
Q 43.21875 41.609375 39.140625 45 
Q 35.0625 48.390625 27.6875 48.390625 
Q 23 48.390625 18.546875 47.265625 
Q 14.109375 46.140625 10.015625 43.890625 
L 10.015625 52.203125 
Q 14.9375 54.109375 19.578125 55.046875 
Q 24.21875 56 28.609375 56 
Q 40.484375 56 46.34375 49.84375 
Q 52.203125 43.703125 52.203125 31.203125 
z
" id="DejaVuSans-97"/>
      <path d="M 44.28125 53.078125 
L 44.28125 44.578125 
Q 40.484375 46.53125 36.375 47.5 
Q 32.28125 48.484375 27.875 48.484375 
Q 21.1875 48.484375 17.84375 46.4375 
Q 14.5 44.390625 14.5 40.28125 
Q 14.5 37.15625 16.890625 35.375 
Q 19.28125 33.59375 26.515625 31.984375 
L 29.59375 31.296875 
Q 39.15625 29.25 43.1875 25.515625 
Q 47.21875 21.78125 47.21875 15.09375 
Q 47.21875 7.46875 41.1875 3.015625 
Q 35.15625 -1.421875 24.609375 -1.421875 
Q 20.21875 -1.421875 15.453125 -0.5625 
Q 10.6875 0.296875 5.421875 2 
L 5.421875 11.28125 
Q 10.40625 8.6875 15.234375 7.390625 
Q 20.0625 6.109375 24.8125 6.109375 
Q 31.15625 6.109375 34.5625 8.28125 
Q 37.984375 10.453125 37.984375 14.40625 
Q 37.984375 18.0625 35.515625 20.015625 
Q 33.0625 21.96875 24.703125 23.78125 
L 21.578125 24.515625 
Q 13.234375 26.265625 9.515625 29.90625 
Q 5.8125 33.546875 5.8125 39.890625 
Q 5.8125 47.609375 11.28125 51.796875 
Q 16.75 56 26.8125 56 
Q 31.78125 56 36.171875 55.265625 
Q 40.578125 54.546875 44.28125 53.078125 
z
" id="DejaVuSans-115"/>
     </defs>
     <g transform="translate(130.976125 165.992072)scale(0.1 -0.1)">
      <use xlink:href="#DejaVuSans-68"/>
      <use x="77.001953" xlink:href="#DejaVuSans-105"/>
      <use x="104.785156" xlink:href="#DejaVuSans-97"/>
      <use x="166.064453" xlink:href="#DejaVuSans-115"/>
     </g>
    </g>
   </g>
   <g id="matplotlib.axis_2">
    <g id="ytick_1">
     <g id="line2d_6">
      <defs>
       <path d="M 0 0 
L -3.5 0 
" id="m80b0f7e166" style="stroke:#000000;stroke-width:0.8;"/>
      </defs>
      <g>
       <use style="stroke:#000000;stroke-width:0.8;" x="55.490865" xlink:href="#m80b0f7e166" y="137.71551"/>
      </g>
     </g>
     <g id="text_7">
      <!-- 0 -->
      <g transform="translate(42.128365 141.514729)scale(0.1 -0.1)">
       <use xlink:href="#DejaVuSans-48"/>
      </g>
     </g>
    </g>
    <g id="ytick_2">
     <g id="line2d_7">
      <g>
       <use style="stroke:#000000;stroke-width:0.8;" x="55.490865" xlink:href="#m80b0f7e166" y="108.580276"/>
      </g>
     </g>
     <g id="text_8">
      <!-- 5000 -->
      <g transform="translate(23.040865 112.379495)scale(0.1 -0.1)">
       <use xlink:href="#DejaVuSans-53"/>
       <use x="63.623047" xlink:href="#DejaVuSans-48"/>
       <use x="127.246094" xlink:href="#DejaVuSans-48"/>
       <use x="190.869141" xlink:href="#DejaVuSans-48"/>
      </g>
     </g>
    </g>
    <g id="ytick_3">
     <g id="line2d_8">
      <g>
       <use style="stroke:#000000;stroke-width:0.8;" x="55.490865" xlink:href="#m80b0f7e166" y="79.445042"/>
      </g>
     </g>
     <g id="text_9">
      <!-- 10000 -->
      <g transform="translate(16.678365 83.244261)scale(0.1 -0.1)">
       <use xlink:href="#DejaVuSans-49"/>
       <use x="63.623047" xlink:href="#DejaVuSans-48"/>
       <use x="127.246094" xlink:href="#DejaVuSans-48"/>
       <use x="190.869141" xlink:href="#DejaVuSans-48"/>
       <use x="254.492188" xlink:href="#DejaVuSans-48"/>
      </g>
     </g>
    </g>
    <g id="ytick_4">
     <g id="line2d_9">
      <g>
       <use style="stroke:#000000;stroke-width:0.8;" x="55.490865" xlink:href="#m80b0f7e166" y="50.309808"/>
      </g>
     </g>
     <g id="text_10">
      <!-- 15000 -->
      <g transform="translate(16.678365 54.109027)scale(0.1 -0.1)">
       <use xlink:href="#DejaVuSans-49"/>
       <use x="63.623047" xlink:href="#DejaVuSans-53"/>
       <use x="127.246094" xlink:href="#DejaVuSans-48"/>
       <use x="190.869141" xlink:href="#DejaVuSans-48"/>
       <use x="254.492188" xlink:href="#DejaVuSans-48"/>
      </g>
     </g>
    </g>
    <g id="ytick_5">
     <g id="line2d_10">
      <g>
       <use style="stroke:#000000;stroke-width:0.8;" x="55.490865" xlink:href="#m80b0f7e166" y="21.174575"/>
      </g>
     </g>
     <g id="text_11">
      <!-- 20000 -->
      <g transform="translate(16.678365 24.973793)scale(0.1 -0.1)">
       <use xlink:href="#DejaVuSans-50"/>
       <use x="63.623047" xlink:href="#DejaVuSans-48"/>
       <use x="127.246094" xlink:href="#DejaVuSans-48"/>
       <use x="190.869141" xlink:href="#DejaVuSans-48"/>
       <use x="254.492188" xlink:href="#DejaVuSans-48"/>
      </g>
     </g>
    </g>
    <g id="text_12">
     <!-- Casos -->
     <defs>
      <path d="M 64.40625 67.28125 
L 64.40625 56.890625 
Q 59.421875 61.53125 53.78125 63.8125 
Q 48.140625 66.109375 41.796875 66.109375 
Q 29.296875 66.109375 22.65625 58.46875 
Q 16.015625 50.828125 16.015625 36.375 
Q 16.015625 21.96875 22.65625 14.328125 
Q 29.296875 6.6875 41.796875 6.6875 
Q 48.140625 6.6875 53.78125 8.984375 
Q 59.421875 11.28125 64.40625 15.921875 
L 64.40625 5.609375 
Q 59.234375 2.09375 53.4375 0.328125 
Q 47.65625 -1.421875 41.21875 -1.421875 
Q 24.65625 -1.421875 15.125 8.703125 
Q 5.609375 18.84375 5.609375 36.375 
Q 5.609375 53.953125 15.125 64.078125 
Q 24.65625 74.21875 41.21875 74.21875 
Q 47.75 74.21875 53.53125 72.484375 
Q 59.328125 70.75 64.40625 67.28125 
z
" id="DejaVuSans-67"/>
      <path d="M 30.609375 48.390625 
Q 23.390625 48.390625 19.1875 42.75 
Q 14.984375 37.109375 14.984375 27.296875 
Q 14.984375 17.484375 19.15625 11.84375 
Q 23.34375 6.203125 30.609375 6.203125 
Q 37.796875 6.203125 41.984375 11.859375 
Q 46.1875 17.53125 46.1875 27.296875 
Q 46.1875 37.015625 41.984375 42.703125 
Q 37.796875 48.390625 30.609375 48.390625 
z
M 30.609375 56 
Q 42.328125 56 49.015625 48.375 
Q 55.71875 40.765625 55.71875 27.296875 
Q 55.71875 13.875 49.015625 6.21875 
Q 42.328125 -1.421875 30.609375 -1.421875 
Q 18.84375 -1.421875 12.171875 6.21875 
Q 5.515625 13.875 5.515625 27.296875 
Q 5.515625 40.765625 12.171875 48.375 
Q 18.84375 56 30.609375 56 
z
" id="DejaVuSans-111"/>
     </defs>
     <g transform="translate(10.598678 92.741156)rotate(-90)scale(0.1 -0.1)">
      <use xlink:href="#DejaVuSans-67"/>
      <use x="69.824219" xlink:href="#DejaVuSans-97"/>
      <use x="131.103516" xlink:href="#DejaVuSans-115"/>
      <use x="183.203125" xlink:href="#DejaVuSans-111"/>
      <use x="244.384766" xlink:href="#DejaVuSans-115"/>
     </g>
    </g>
   </g>
   <g id="line2d_11">
    <path clip-path="url(#pf238ac4d92)" d="M 63.95598 137.690052 
L 65.48398 137.681269 
L 67.011979 137.668542 
L 68.539978 137.651095 
L 70.067977 137.627743 
L 71.595976 137.597333 
L 73.123975 137.558791 
L 74.651974 137.511165 
L 76.179974 137.453652 
L 77.707973 137.385638 
L 79.235972 137.306949 
L 80.763971 137.217847 
L 82.29197 137.118693 
L 83.819969 137.010037 
L 85.347969 136.892409 
L 86.875968 136.766432 
L 88.403967 136.632742 
L 89.931966 136.491534 
L 91.459965 136.342812 
L 92.987964 136.186707 
L 94.515964 136.023218 
L 96.043963 135.852709 
L 97.571962 135.675718 
L 99.099961 135.493049 
L 100.62796 135.306309 
L 102.155959 135.117373 
L 103.683959 134.928107 
L 105.211958 134.740576 
L 106.739957 134.55626 
L 108.267956 134.376268 
L 109.795955 134.201306 
L 111.323954 134.031079 
L 112.851953 133.864611 
L 114.379953 133.700517 
L 115.907952 133.536872 
L 117.435951 133.371817 
L 118.96395 133.203221 
L 120.491949 133.028361 
L 122.019948 132.844436 
L 123.547948 132.64877 
L 125.075947 132.438514 
L 126.603946 132.210982 
L 128.131945 131.963594 
L 129.659944 131.694244 
L 131.187943 131.401598 
L 132.715943 131.084984 
L 134.243942 130.743425 
L 135.771941 130.376169 
L 137.29994 129.982189 
L 138.827939 129.559957 
L 140.355938 129.106836 
L 141.883937 128.620235 
L 143.411937 128.097369 
L 144.939936 127.536565 
L 146.467935 126.936432 
L 147.995934 126.29618 
L 149.523933 125.615809 
L 151.051932 124.898395 
L 152.579932 124.144454 
L 154.107931 123.351129 
L 155.63593 122.512755 
L 157.163929 121.620916 
L 158.691928 120.664079 
L 160.219927 119.62717 
L 161.747927 118.487076 
L 163.275926 117.225958 
L 164.803925 115.832595 
L 166.331924 114.300897 
L 167.859923 112.630321 
L 169.387922 110.82673 
L 170.915922 108.903479 
L 172.443921 106.885025 
L 173.97192 104.789936 
L 175.499919 102.634225 
L 177.027918 100.428531 
L 178.555917 98.181558 
L 180.083916 95.899025 
L 181.611916 93.582014 
L 183.139915 91.227348 
L 184.667914 88.83831 
L 186.195913 86.416634 
L 187.723912 83.970413 
L 189.251911 81.507052 
L 190.779911 79.034038 
L 192.30791 76.559026 
L 193.835909 74.086307 
L 195.363908 71.615753 
L 196.891907 69.14785 
L 198.419906 66.674512 
L 199.947906 64.182269 
L 201.475905 61.651202 
L 203.003904 59.058744 
L 204.531903 56.385479 
L 206.059902 53.613128 
L 207.587901 50.722412 
L 209.115901 47.702216 
L 210.6439 44.553099 
L 212.171899 41.284902 
L 213.699898 37.914054 
L 215.227897 34.459474 
L 216.755896 30.946605 
L 218.283895 27.392388 
L 219.811895 23.813467 
" style="fill:none;stroke:#ff0000;stroke-linecap:square;stroke-width:1.5;"/>
   </g>
   <g id="patch_106">
    <path d="M 55.490865 137.71551 
L 55.490865 18.118365 
" style="fill:none;stroke:#000000;stroke-linecap:square;stroke-linejoin:miter;stroke-width:0.8;"/>
   </g>
   <g id="patch_107">
    <path d="M 228.27701 137.71551 
L 228.27701 18.118365 
" style="fill:none;stroke:#000000;stroke-linecap:square;stroke-linejoin:miter;stroke-width:0.8;"/>
   </g>
   <g id="patch_108">
    <path d="M 55.490865 137.71551 
L 228.27701 137.71551 
" style="fill:none;stroke:#000000;stroke-linecap:square;stroke-linejoin:miter;stroke-width:0.8;"/>
   </g>
   <g id="patch_109">
    <path d="M 55.490865 18.118365 
L 228.27701 18.118365 
" style="fill:none;stroke:#000000;stroke-linecap:square;stroke-linejoin:miter;stroke-width:0.8;"/>
   </g>
   <g id="text_13">
    <!-- Casos acumulados - RS -->
    <defs>
     <path id="DejaVuSans-32"/>
     <path d="M 48.78125 52.59375 
L 48.78125 44.1875 
Q 44.96875 46.296875 41.140625 47.34375 
Q 37.3125 48.390625 33.40625 48.390625 
Q 24.65625 48.390625 19.8125 42.84375 
Q 14.984375 37.3125 14.984375 27.296875 
Q 14.984375 17.28125 19.8125 11.734375 
Q 24.65625 6.203125 33.40625 6.203125 
Q 37.3125 6.203125 41.140625 7.25 
Q 44.96875 8.296875 48.78125 10.40625 
L 48.78125 2.09375 
Q 45.015625 0.34375 40.984375 -0.53125 
Q 36.96875 -1.421875 32.421875 -1.421875 
Q 20.0625 -1.421875 12.78125 6.34375 
Q 5.515625 14.109375 5.515625 27.296875 
Q 5.515625 40.671875 12.859375 48.328125 
Q 20.21875 56 33.015625 56 
Q 37.15625 56 41.109375 55.140625 
Q 45.0625 54.296875 48.78125 52.59375 
z
" id="DejaVuSans-99"/>
     <path d="M 8.5 21.578125 
L 8.5 54.6875 
L 17.484375 54.6875 
L 17.484375 21.921875 
Q 17.484375 14.15625 20.5 10.265625 
Q 23.53125 6.390625 29.59375 6.390625 
Q 36.859375 6.390625 41.078125 11.03125 
Q 45.3125 15.671875 45.3125 23.6875 
L 45.3125 54.6875 
L 54.296875 54.6875 
L 54.296875 0 
L 45.3125 0 
L 45.3125 8.40625 
Q 42.046875 3.421875 37.71875 1 
Q 33.40625 -1.421875 27.6875 -1.421875 
Q 18.265625 -1.421875 13.375 4.4375 
Q 8.5 10.296875 8.5 21.578125 
z
M 31.109375 56 
z
" id="DejaVuSans-117"/>
     <path d="M 52 44.1875 
Q 55.375 50.25 60.0625 53.125 
Q 64.75 56 71.09375 56 
Q 79.640625 56 84.28125 50.015625 
Q 88.921875 44.046875 88.921875 33.015625 
L 88.921875 0 
L 79.890625 0 
L 79.890625 32.71875 
Q 79.890625 40.578125 77.09375 44.375 
Q 74.3125 48.1875 68.609375 48.1875 
Q 61.625 48.1875 57.5625 43.546875 
Q 53.515625 38.921875 53.515625 30.90625 
L 53.515625 0 
L 44.484375 0 
L 44.484375 32.71875 
Q 44.484375 40.625 41.703125 44.40625 
Q 38.921875 48.1875 33.109375 48.1875 
Q 26.21875 48.1875 22.15625 43.53125 
Q 18.109375 38.875 18.109375 30.90625 
L 18.109375 0 
L 9.078125 0 
L 9.078125 54.6875 
L 18.109375 54.6875 
L 18.109375 46.1875 
Q 21.1875 51.21875 25.484375 53.609375 
Q 29.78125 56 35.6875 56 
Q 41.65625 56 45.828125 52.96875 
Q 50 49.953125 52 44.1875 
z
" id="DejaVuSans-109"/>
     <path d="M 9.421875 75.984375 
L 18.40625 75.984375 
L 18.40625 0 
L 9.421875 0 
z
" id="DejaVuSans-108"/>
     <path d="M 45.40625 46.390625 
L 45.40625 75.984375 
L 54.390625 75.984375 
L 54.390625 0 
L 45.40625 0 
L 45.40625 8.203125 
Q 42.578125 3.328125 38.25 0.953125 
Q 33.9375 -1.421875 27.875 -1.421875 
Q 17.96875 -1.421875 11.734375 6.484375 
Q 5.515625 14.40625 5.515625 27.296875 
Q 5.515625 40.1875 11.734375 48.09375 
Q 17.96875 56 27.875 56 
Q 33.9375 56 38.25 53.625 
Q 42.578125 51.265625 45.40625 46.390625 
z
M 14.796875 27.296875 
Q 14.796875 17.390625 18.875 11.75 
Q 22.953125 6.109375 30.078125 6.109375 
Q 37.203125 6.109375 41.296875 11.75 
Q 45.40625 17.390625 45.40625 27.296875 
Q 45.40625 37.203125 41.296875 42.84375 
Q 37.203125 48.484375 30.078125 48.484375 
Q 22.953125 48.484375 18.875 42.84375 
Q 14.796875 37.203125 14.796875 27.296875 
z
" id="DejaVuSans-100"/>
     <path d="M 4.890625 31.390625 
L 31.203125 31.390625 
L 31.203125 23.390625 
L 4.890625 23.390625 
z
" id="DejaVuSans-45"/>
     <path d="M 44.390625 34.1875 
Q 47.5625 33.109375 50.5625 29.59375 
Q 53.5625 26.078125 56.59375 19.921875 
L 66.609375 0 
L 56 0 
L 46.6875 18.703125 
Q 43.0625 26.03125 39.671875 28.421875 
Q 36.28125 30.8125 30.421875 30.8125 
L 19.671875 30.8125 
L 19.671875 0 
L 9.8125 0 
L 9.8125 72.90625 
L 32.078125 72.90625 
Q 44.578125 72.90625 50.734375 67.671875 
Q 56.890625 62.453125 56.890625 51.90625 
Q 56.890625 45.015625 53.6875 40.46875 
Q 50.484375 35.9375 44.390625 34.1875 
z
M 19.671875 64.796875 
L 19.671875 38.921875 
L 32.078125 38.921875 
Q 39.203125 38.921875 42.84375 42.21875 
Q 46.484375 45.515625 46.484375 51.90625 
Q 46.484375 58.296875 42.84375 61.546875 
Q 39.203125 64.796875 32.078125 64.796875 
z
" id="DejaVuSans-82"/>
     <path d="M 53.515625 70.515625 
L 53.515625 60.890625 
Q 47.90625 63.578125 42.921875 64.890625 
Q 37.9375 66.21875 33.296875 66.21875 
Q 25.25 66.21875 20.875 63.09375 
Q 16.5 59.96875 16.5 54.203125 
Q 16.5 49.359375 19.40625 46.890625 
Q 22.3125 44.4375 30.421875 42.921875 
L 36.375 41.703125 
Q 47.40625 39.59375 52.65625 34.296875 
Q 57.90625 29 57.90625 20.125 
Q 57.90625 9.515625 50.796875 4.046875 
Q 43.703125 -1.421875 29.984375 -1.421875 
Q 24.8125 -1.421875 18.96875 -0.25 
Q 13.140625 0.921875 6.890625 3.21875 
L 6.890625 13.375 
Q 12.890625 10.015625 18.65625 8.296875 
Q 24.421875 6.59375 29.984375 6.59375 
Q 38.421875 6.59375 43.015625 9.90625 
Q 47.609375 13.234375 47.609375 19.390625 
Q 47.609375 24.75 44.3125 27.78125 
Q 41.015625 30.8125 33.5 32.328125 
L 27.484375 33.5 
Q 16.453125 35.6875 11.515625 40.375 
Q 6.59375 45.0625 6.59375 53.421875 
Q 6.59375 63.09375 13.40625 68.65625 
Q 20.21875 74.21875 32.171875 74.21875 
Q 37.3125 74.21875 42.625 73.28125 
Q 47.953125 72.359375 53.515625 70.515625 
z
" id="DejaVuSans-83"/>
    </defs>
    <g transform="translate(71.856437 12.118365)scale(0.12 -0.12)">
     <use xlink:href="#DejaVuSans-67"/>
     <use x="69.824219" xlink:href="#DejaVuSans-97"/>
     <use x="131.103516" xlink:href="#DejaVuSans-115"/>
     <use x="183.203125" xlink:href="#DejaVuSans-111"/>
     <use x="244.384766" xlink:href="#DejaVuSans-115"/>
     <use x="296.484375" xlink:href="#DejaVuSans-32"/>
     <use x="328.271484" xlink:href="#DejaVuSans-97"/>
     <use x="389.550781" xlink:href="#DejaVuSans-99"/>
     <use x="444.53125" xlink:href="#DejaVuSans-117"/>
     <use x="507.910156" xlink:href="#DejaVuSans-109"/>
     <use x="605.322266" xlink:href="#DejaVuSans-117"/>
     <use x="668.701172" xlink:href="#DejaVuSans-108"/>
     <use x="696.484375" xlink:href="#DejaVuSans-97"/>
     <use x="757.763672" xlink:href="#DejaVuSans-100"/>
     <use x="821.240234" xlink:href="#DejaVuSans-111"/>
     <use x="882.421875" xlink:href="#DejaVuSans-115"/>
     <use x="934.521484" xlink:href="#DejaVuSans-32"/>
     <use x="966.308594" xlink:href="#DejaVuSans-45"/>
     <use x="1002.392578" xlink:href="#DejaVuSans-32"/>
     <use x="1034.179688" xlink:href="#DejaVuSans-82"/>
     <use x="1103.662109" xlink:href="#DejaVuSans-83"/>
    </g>
   </g>
  </g>
  <g id="axes_2">
   <g id="patch_110">
    <path d="M 285.013615 137.71551 
L 457.79976 137.71551 
L 457.79976 18.118365 
L 285.013615 18.118365 
z
" style="fill:#ffffff;"/>
   </g>
   <g id="patch_111">
    <path clip-path="url(#pb749d08b3d)" d="M 292.867531 137.71551 
L 294.08993 137.71551 
L 294.08993 137.622377 
L 292.867531 137.622377 
z
" style="fill:#1f77b4;"/>
   </g>
   <g id="patch_112">
    <path clip-path="url(#pb749d08b3d)" d="M 294.39553 137.71551 
L 295.617929 137.71551 
L 295.617929 137.529243 
L 294.39553 137.529243 
z
" style="fill:#1f77b4;"/>
   </g>
   <g id="patch_113">
    <path clip-path="url(#pb749d08b3d)" d="M 295.923529 137.71551 
L 297.145928 137.71551 
L 297.145928 137.71551 
L 295.923529 137.71551 
z
" style="fill:#1f77b4;"/>
   </g>
   <g id="patch_114">
    <path clip-path="url(#pb749d08b3d)" d="M 297.451528 137.71551 
L 298.673927 137.71551 
L 298.673927 137.529243 
L 297.451528 137.529243 
z
" style="fill:#1f77b4;"/>
   </g>
   <g id="patch_115">
    <path clip-path="url(#pb749d08b3d)" d="M 298.979527 137.71551 
L 300.201927 137.71551 
L 300.201927 137.71551 
L 298.979527 137.71551 
z
" style="fill:#1f77b4;"/>
   </g>
   <g id="patch_116">
    <path clip-path="url(#pb749d08b3d)" d="M 300.507526 137.71551 
L 301.729926 137.71551 
L 301.729926 137.71551 
L 300.507526 137.71551 
z
" style="fill:#1f77b4;"/>
   </g>
   <g id="patch_117">
    <path clip-path="url(#pb749d08b3d)" d="M 302.035526 137.71551 
L 303.257925 137.71551 
L 303.257925 137.342977 
L 302.035526 137.342977 
z
" style="fill:#1f77b4;"/>
   </g>
   <g id="patch_118">
    <path clip-path="url(#pb749d08b3d)" d="M 303.563525 137.71551 
L 304.785924 137.71551 
L 304.785924 136.87731 
L 303.563525 136.87731 
z
" style="fill:#1f77b4;"/>
   </g>
   <g id="patch_119">
    <path clip-path="url(#pb749d08b3d)" d="M 305.091524 137.71551 
L 306.313923 137.71551 
L 306.313923 136.87731 
L 305.091524 136.87731 
z
" style="fill:#1f77b4;"/>
   </g>
   <g id="patch_120">
    <path clip-path="url(#pb749d08b3d)" d="M 306.619523 137.71551 
L 307.841922 137.71551 
L 307.841922 136.87731 
L 306.619523 136.87731 
z
" style="fill:#1f77b4;"/>
   </g>
   <g id="patch_121">
    <path clip-path="url(#pb749d08b3d)" d="M 308.147522 137.71551 
L 309.369922 137.71551 
L 309.369922 135.573444 
L 308.147522 135.573444 
z
" style="fill:#1f77b4;"/>
   </g>
   <g id="patch_122">
    <path clip-path="url(#pb749d08b3d)" d="M 309.675521 137.71551 
L 310.897921 137.71551 
L 310.897921 136.59791 
L 309.675521 136.59791 
z
" style="fill:#1f77b4;"/>
   </g>
   <g id="patch_123">
    <path clip-path="url(#pb749d08b3d)" d="M 311.203521 137.71551 
L 312.42592 137.71551 
L 312.42592 136.411644 
L 311.203521 136.411644 
z
" style="fill:#1f77b4;"/>
   </g>
   <g id="patch_124">
    <path clip-path="url(#pb749d08b3d)" d="M 312.73152 137.71551 
L 313.953919 137.71551 
L 313.953919 136.59791 
L 312.73152 136.59791 
z
" style="fill:#1f77b4;"/>
   </g>
   <g id="patch_125">
    <path clip-path="url(#pb749d08b3d)" d="M 314.259519 137.71551 
L 315.481918 137.71551 
L 315.481918 135.387177 
L 314.259519 135.387177 
z
" style="fill:#1f77b4;"/>
   </g>
   <g id="patch_126">
    <path clip-path="url(#pb749d08b3d)" d="M 315.787518 137.71551 
L 317.009917 137.71551 
L 317.009917 133.524511 
L 315.787518 133.524511 
z
" style="fill:#1f77b4;"/>
   </g>
   <g id="patch_127">
    <path clip-path="url(#pb749d08b3d)" d="M 317.315517 137.71551 
L 318.537917 137.71551 
L 318.537917 135.200911 
L 317.315517 135.200911 
z
" style="fill:#1f77b4;"/>
   </g>
   <g id="patch_128">
    <path clip-path="url(#pb749d08b3d)" d="M 318.843516 137.71551 
L 320.065916 137.71551 
L 320.065916 137.529243 
L 318.843516 137.529243 
z
" style="fill:#1f77b4;"/>
   </g>
   <g id="patch_129">
    <path clip-path="url(#pb749d08b3d)" d="M 320.371516 137.71551 
L 321.593915 137.71551 
L 321.593915 135.014644 
L 320.371516 135.014644 
z
" style="fill:#1f77b4;"/>
   </g>
   <g id="patch_130">
    <path clip-path="url(#pb749d08b3d)" d="M 321.899515 137.71551 
L 323.121914 137.71551 
L 323.121914 136.31851 
L 321.899515 136.31851 
z
" style="fill:#1f77b4;"/>
   </g>
   <g id="patch_131">
    <path clip-path="url(#pb749d08b3d)" d="M 323.427514 137.71551 
L 324.649913 137.71551 
L 324.649913 134.642111 
L 323.427514 134.642111 
z
" style="fill:#1f77b4;"/>
   </g>
   <g id="patch_132">
    <path clip-path="url(#pb749d08b3d)" d="M 324.955513 137.71551 
L 326.177912 137.71551 
L 326.177912 134.735244 
L 324.955513 134.735244 
z
" style="fill:#1f77b4;"/>
   </g>
   <g id="patch_133">
    <path clip-path="url(#pb749d08b3d)" d="M 326.483512 137.71551 
L 327.705912 137.71551 
L 327.705912 135.107777 
L 326.483512 135.107777 
z
" style="fill:#1f77b4;"/>
   </g>
   <g id="patch_134">
    <path clip-path="url(#pb749d08b3d)" d="M 328.011511 137.71551 
L 329.233911 137.71551 
L 329.233911 131.941245 
L 328.011511 131.941245 
z
" style="fill:#1f77b4;"/>
   </g>
   <g id="patch_135">
    <path clip-path="url(#pb749d08b3d)" d="M 329.539511 137.71551 
L 330.76191 137.71551 
L 330.76191 136.411644 
L 329.539511 136.411644 
z
" style="fill:#1f77b4;"/>
   </g>
   <g id="patch_136">
    <path clip-path="url(#pb749d08b3d)" d="M 331.06751 137.71551 
L 332.289909 137.71551 
L 332.289909 136.970443 
L 331.06751 136.970443 
z
" style="fill:#1f77b4;"/>
   </g>
   <g id="patch_137">
    <path clip-path="url(#pb749d08b3d)" d="M 332.595509 137.71551 
L 333.817908 137.71551 
L 333.817908 131.848111 
L 332.595509 131.848111 
z
" style="fill:#1f77b4;"/>
   </g>
   <g id="patch_138">
    <path clip-path="url(#pb749d08b3d)" d="M 334.123508 137.71551 
L 335.345907 137.71551 
L 335.345907 135.200911 
L 334.123508 135.200911 
z
" style="fill:#1f77b4;"/>
   </g>
   <g id="patch_139">
    <path clip-path="url(#pb749d08b3d)" d="M 335.651507 137.71551 
L 336.873906 137.71551 
L 336.873906 133.338244 
L 335.651507 133.338244 
z
" style="fill:#1f77b4;"/>
   </g>
   <g id="patch_140">
    <path clip-path="url(#pb749d08b3d)" d="M 337.179506 137.71551 
L 338.401906 137.71551 
L 338.401906 131.848111 
L 337.179506 131.848111 
z
" style="fill:#1f77b4;"/>
   </g>
   <g id="patch_141">
    <path clip-path="url(#pb749d08b3d)" d="M 338.707505 137.71551 
L 339.929905 137.71551 
L 339.929905 136.03911 
L 338.707505 136.03911 
z
" style="fill:#1f77b4;"/>
   </g>
   <g id="patch_142">
    <path clip-path="url(#pb749d08b3d)" d="M 340.235505 137.71551 
L 341.457904 137.71551 
L 341.457904 137.342977 
L 340.235505 137.342977 
z
" style="fill:#1f77b4;"/>
   </g>
   <g id="patch_143">
    <path clip-path="url(#pb749d08b3d)" d="M 341.763504 137.71551 
L 342.985903 137.71551 
L 342.985903 136.504777 
L 341.763504 136.504777 
z
" style="fill:#1f77b4;"/>
   </g>
   <g id="patch_144">
    <path clip-path="url(#pb749d08b3d)" d="M 343.291503 137.71551 
L 344.513902 137.71551 
L 344.513902 136.691044 
L 343.291503 136.691044 
z
" style="fill:#1f77b4;"/>
   </g>
   <g id="patch_145">
    <path clip-path="url(#pb749d08b3d)" d="M 344.819502 137.71551 
L 346.041901 137.71551 
L 346.041901 134.362711 
L 344.819502 134.362711 
z
" style="fill:#1f77b4;"/>
   </g>
   <g id="patch_146">
    <path clip-path="url(#pb749d08b3d)" d="M 346.347501 137.71551 
L 347.569901 137.71551 
L 347.569901 133.338244 
L 346.347501 133.338244 
z
" style="fill:#1f77b4;"/>
   </g>
   <g id="patch_147">
    <path clip-path="url(#pb749d08b3d)" d="M 347.8755 137.71551 
L 349.0979 137.71551 
L 349.0979 134.642111 
L 347.8755 134.642111 
z
" style="fill:#1f77b4;"/>
   </g>
   <g id="patch_148">
    <path clip-path="url(#pb749d08b3d)" d="M 349.4035 137.71551 
L 350.625899 137.71551 
L 350.625899 135.666577 
L 349.4035 135.666577 
z
" style="fill:#1f77b4;"/>
   </g>
   <g id="patch_149">
    <path clip-path="url(#pb749d08b3d)" d="M 350.931499 137.71551 
L 352.153898 137.71551 
L 352.153898 135.014644 
L 350.931499 135.014644 
z
" style="fill:#1f77b4;"/>
   </g>
   <g id="patch_150">
    <path clip-path="url(#pb749d08b3d)" d="M 352.459498 137.71551 
L 353.681897 137.71551 
L 353.681897 135.573444 
L 352.459498 135.573444 
z
" style="fill:#1f77b4;"/>
   </g>
   <g id="patch_151">
    <path clip-path="url(#pb749d08b3d)" d="M 353.987497 137.71551 
L 355.209896 137.71551 
L 355.209896 134.455844 
L 353.987497 134.455844 
z
" style="fill:#1f77b4;"/>
   </g>
   <g id="patch_152">
    <path clip-path="url(#pb749d08b3d)" d="M 355.515496 137.71551 
L 356.737896 137.71551 
L 356.737896 136.31851 
L 355.515496 136.31851 
z
" style="fill:#1f77b4;"/>
   </g>
   <g id="patch_153">
    <path clip-path="url(#pb749d08b3d)" d="M 357.043495 137.71551 
L 358.265895 137.71551 
L 358.265895 135.945977 
L 357.043495 135.945977 
z
" style="fill:#1f77b4;"/>
   </g>
   <g id="patch_154">
    <path clip-path="url(#pb749d08b3d)" d="M 358.571495 137.71551 
L 359.793894 137.71551 
L 359.793894 131.103045 
L 358.571495 131.103045 
z
" style="fill:#1f77b4;"/>
   </g>
   <g id="patch_155">
    <path clip-path="url(#pb749d08b3d)" d="M 360.099494 137.71551 
L 361.321893 137.71551 
L 361.321893 131.475578 
L 360.099494 131.475578 
z
" style="fill:#1f77b4;"/>
   </g>
   <g id="patch_156">
    <path clip-path="url(#pb749d08b3d)" d="M 361.627493 137.71551 
L 362.849892 137.71551 
L 362.849892 134.455844 
L 361.627493 134.455844 
z
" style="fill:#1f77b4;"/>
   </g>
   <g id="patch_157">
    <path clip-path="url(#pb749d08b3d)" d="M 363.155492 137.71551 
L 364.377891 137.71551 
L 364.377891 131.196178 
L 363.155492 131.196178 
z
" style="fill:#1f77b4;"/>
   </g>
   <g id="patch_158">
    <path clip-path="url(#pb749d08b3d)" d="M 364.683491 137.71551 
L 365.905891 137.71551 
L 365.905891 131.941245 
L 364.683491 131.941245 
z
" style="fill:#1f77b4;"/>
   </g>
   <g id="patch_159">
    <path clip-path="url(#pb749d08b3d)" d="M 366.21149 137.71551 
L 367.43389 137.71551 
L 367.43389 132.313778 
L 366.21149 132.313778 
z
" style="fill:#1f77b4;"/>
   </g>
   <g id="patch_160">
    <path clip-path="url(#pb749d08b3d)" d="M 367.73949 137.71551 
L 368.961889 137.71551 
L 368.961889 130.078578 
L 367.73949 130.078578 
z
" style="fill:#1f77b4;"/>
   </g>
   <g id="patch_161">
    <path clip-path="url(#pb749d08b3d)" d="M 369.267489 137.71551 
L 370.489888 137.71551 
L 370.489888 128.588445 
L 369.267489 128.588445 
z
" style="fill:#1f77b4;"/>
   </g>
   <g id="patch_162">
    <path clip-path="url(#pb749d08b3d)" d="M 370.795488 137.71551 
L 372.017887 137.71551 
L 372.017887 131.848111 
L 370.795488 131.848111 
z
" style="fill:#1f77b4;"/>
   </g>
   <g id="patch_163">
    <path clip-path="url(#pb749d08b3d)" d="M 372.323487 137.71551 
L 373.545886 137.71551 
L 373.545886 129.333512 
L 372.323487 129.333512 
z
" style="fill:#1f77b4;"/>
   </g>
   <g id="patch_164">
    <path clip-path="url(#pb749d08b3d)" d="M 373.851486 137.71551 
L 375.073885 137.71551 
L 375.073885 133.338244 
L 373.851486 133.338244 
z
" style="fill:#1f77b4;"/>
   </g>
   <g id="patch_165">
    <path clip-path="url(#pb749d08b3d)" d="M 375.379485 137.71551 
L 376.601885 137.71551 
L 376.601885 133.524511 
L 375.379485 133.524511 
z
" style="fill:#1f77b4;"/>
   </g>
   <g id="patch_166">
    <path clip-path="url(#pb749d08b3d)" d="M 376.907484 137.71551 
L 378.129884 137.71551 
L 378.129884 128.029645 
L 376.907484 128.029645 
z
" style="fill:#1f77b4;"/>
   </g>
   <g id="patch_167">
    <path clip-path="url(#pb749d08b3d)" d="M 378.435484 137.71551 
L 379.657883 137.71551 
L 379.657883 115.829181 
L 378.435484 115.829181 
z
" style="fill:#1f77b4;"/>
   </g>
   <g id="patch_168">
    <path clip-path="url(#pb749d08b3d)" d="M 379.963483 137.71551 
L 381.185882 137.71551 
L 381.185882 130.357978 
L 379.963483 130.357978 
z
" style="fill:#1f77b4;"/>
   </g>
   <g id="patch_169">
    <path clip-path="url(#pb749d08b3d)" d="M 381.491482 137.71551 
L 382.713881 137.71551 
L 382.713881 108.099116 
L 381.491482 108.099116 
z
" style="fill:#1f77b4;"/>
   </g>
   <g id="patch_170">
    <path clip-path="url(#pb749d08b3d)" d="M 383.019481 137.71551 
L 384.24188 137.71551 
L 384.24188 133.431378 
L 383.019481 133.431378 
z
" style="fill:#1f77b4;"/>
   </g>
   <g id="patch_171">
    <path clip-path="url(#pb749d08b3d)" d="M 384.54748 137.71551 
L 385.76988 137.71551 
L 385.76988 133.151978 
L 384.54748 133.151978 
z
" style="fill:#1f77b4;"/>
   </g>
   <g id="patch_172">
    <path clip-path="url(#pb749d08b3d)" d="M 386.075479 137.71551 
L 387.297879 137.71551 
L 387.297879 134.548977 
L 386.075479 134.548977 
z
" style="fill:#1f77b4;"/>
   </g>
   <g id="patch_173">
    <path clip-path="url(#pb749d08b3d)" d="M 387.603479 137.71551 
L 388.825878 137.71551 
L 388.825878 105.95705 
L 387.603479 105.95705 
z
" style="fill:#1f77b4;"/>
   </g>
   <g id="patch_174">
    <path clip-path="url(#pb749d08b3d)" d="M 389.131478 137.71551 
L 390.353877 137.71551 
L 390.353877 137.71551 
L 389.131478 137.71551 
z
" style="fill:#1f77b4;"/>
   </g>
   <g id="patch_175">
    <path clip-path="url(#pb749d08b3d)" d="M 390.659477 137.71551 
L 391.881876 137.71551 
L 391.881876 130.264845 
L 390.659477 130.264845 
z
" style="fill:#1f77b4;"/>
   </g>
   <g id="patch_176">
    <path clip-path="url(#pb749d08b3d)" d="M 392.187476 137.71551 
L 393.409875 137.71551 
L 393.409875 81.835522 
L 392.187476 81.835522 
z
" style="fill:#1f77b4;"/>
   </g>
   <g id="patch_177">
    <path clip-path="url(#pb749d08b3d)" d="M 393.715475 137.71551 
L 394.937875 137.71551 
L 394.937875 128.588445 
L 393.715475 128.588445 
z
" style="fill:#1f77b4;"/>
   </g>
   <g id="patch_178">
    <path clip-path="url(#pb749d08b3d)" d="M 395.243474 137.71551 
L 396.465874 137.71551 
L 396.465874 133.990177 
L 395.243474 133.990177 
z
" style="fill:#1f77b4;"/>
   </g>
   <g id="patch_179">
    <path clip-path="url(#pb749d08b3d)" d="M 396.771474 137.71551 
L 397.993873 137.71551 
L 397.993873 137.71551 
L 396.771474 137.71551 
z
" style="fill:#1f77b4;"/>
   </g>
   <g id="patch_180">
    <path clip-path="url(#pb749d08b3d)" d="M 398.299473 137.71551 
L 399.521872 137.71551 
L 399.521872 136.31851 
L 398.299473 136.31851 
z
" style="fill:#1f77b4;"/>
   </g>
   <g id="patch_181">
    <path clip-path="url(#pb749d08b3d)" d="M 399.827472 137.71551 
L 401.049871 137.71551 
L 401.049871 23.813467 
L 399.827472 23.813467 
z
" style="fill:#1f77b4;"/>
   </g>
   <g id="patch_182">
    <path clip-path="url(#pb749d08b3d)" d="M 401.355471 137.71551 
L 402.57787 137.71551 
L 402.57787 91.148853 
L 401.355471 91.148853 
z
" style="fill:#1f77b4;"/>
   </g>
   <g id="patch_183">
    <path clip-path="url(#pb749d08b3d)" d="M 402.88347 137.71551 
L 404.10587 137.71551 
L 404.10587 96.271185 
L 402.88347 96.271185 
z
" style="fill:#1f77b4;"/>
   </g>
   <g id="patch_184">
    <path clip-path="url(#pb749d08b3d)" d="M 404.411469 137.71551 
L 405.633869 137.71551 
L 405.633869 98.785785 
L 404.411469 98.785785 
z
" style="fill:#1f77b4;"/>
   </g>
   <g id="patch_185">
    <path clip-path="url(#pb749d08b3d)" d="M 405.939469 137.71551 
L 407.161868 137.71551 
L 407.161868 125.235646 
L 405.939469 125.235646 
z
" style="fill:#1f77b4;"/>
   </g>
   <g id="patch_186">
    <path clip-path="url(#pb749d08b3d)" d="M 407.467468 137.71551 
L 408.689867 137.71551 
L 408.689867 129.426645 
L 407.467468 129.426645 
z
" style="fill:#1f77b4;"/>
   </g>
   <g id="patch_187">
    <path clip-path="url(#pb749d08b3d)" d="M 408.995467 137.71551 
L 410.217866 137.71551 
L 410.217866 116.667381 
L 408.995467 116.667381 
z
" style="fill:#1f77b4;"/>
   </g>
   <g id="patch_188">
    <path clip-path="url(#pb749d08b3d)" d="M 410.523466 137.71551 
L 411.745865 137.71551 
L 411.745865 113.221448 
L 410.523466 113.221448 
z
" style="fill:#1f77b4;"/>
   </g>
   <g id="patch_189">
    <path clip-path="url(#pb749d08b3d)" d="M 412.051465 137.71551 
L 413.273864 137.71551 
L 413.273864 27.2594 
L 412.051465 27.2594 
z
" style="fill:#1f77b4;"/>
   </g>
   <g id="patch_190">
    <path clip-path="url(#pb749d08b3d)" d="M 413.579464 137.71551 
L 414.801864 137.71551 
L 414.801864 137.71551 
L 413.579464 137.71551 
z
" style="fill:#1f77b4;"/>
   </g>
   <g id="patch_191">
    <path clip-path="url(#pb749d08b3d)" d="M 415.107463 137.71551 
L 416.329863 137.71551 
L 416.329863 43.83713 
L 415.107463 43.83713 
z
" style="fill:#1f77b4;"/>
   </g>
   <g id="patch_192">
    <path clip-path="url(#pb749d08b3d)" d="M 416.635463 137.71551 
L 417.857862 137.71551 
L 417.857862 129.333512 
L 416.635463 129.333512 
z
" style="fill:#1f77b4;"/>
   </g>
   <g id="patch_193">
    <path clip-path="url(#pb749d08b3d)" d="M 418.163462 137.71551 
L 419.385861 137.71551 
L 419.385861 137.71551 
L 418.163462 137.71551 
z
" style="fill:#1f77b4;"/>
   </g>
   <g id="patch_194">
    <path clip-path="url(#pb749d08b3d)" d="M 419.691461 137.71551 
L 420.91386 137.71551 
L 420.91386 83.046255 
L 419.691461 83.046255 
z
" style="fill:#1f77b4;"/>
   </g>
   <g id="patch_195">
    <path clip-path="url(#pb749d08b3d)" d="M 421.21946 137.71551 
L 422.441859 137.71551 
L 422.441859 93.104653 
L 421.21946 93.104653 
z
" style="fill:#1f77b4;"/>
   </g>
   <g id="patch_196">
    <path clip-path="url(#pb749d08b3d)" d="M 422.747459 137.71551 
L 423.969859 137.71551 
L 423.969859 80.717922 
L 422.747459 80.717922 
z
" style="fill:#1f77b4;"/>
   </g>
   <g id="patch_197">
    <path clip-path="url(#pb749d08b3d)" d="M 424.275458 137.71551 
L 425.497858 137.71551 
L 425.497858 84.350121 
L 424.275458 84.350121 
z
" style="fill:#1f77b4;"/>
   </g>
   <g id="patch_198">
    <path clip-path="url(#pb749d08b3d)" d="M 425.803458 137.71551 
L 427.025857 137.71551 
L 427.025857 95.432986 
L 425.803458 95.432986 
z
" style="fill:#1f77b4;"/>
   </g>
   <g id="patch_199">
    <path clip-path="url(#pb749d08b3d)" d="M 427.331457 137.71551 
L 428.553856 137.71551 
L 428.553856 128.588445 
L 427.331457 128.588445 
z
" style="fill:#1f77b4;"/>
   </g>
   <g id="patch_200">
    <path clip-path="url(#pb749d08b3d)" d="M 428.859456 137.71551 
L 430.081855 137.71551 
L 430.081855 127.005179 
L 428.859456 127.005179 
z
" style="fill:#1f77b4;"/>
   </g>
   <g id="patch_201">
    <path clip-path="url(#pb749d08b3d)" d="M 430.387455 137.71551 
L 431.609854 137.71551 
L 431.609854 86.305921 
L 430.387455 86.305921 
z
" style="fill:#1f77b4;"/>
   </g>
   <g id="patch_202">
    <path clip-path="url(#pb749d08b3d)" d="M 431.915454 137.71551 
L 433.137854 137.71551 
L 433.137854 61.625593 
L 431.915454 61.625593 
z
" style="fill:#1f77b4;"/>
   </g>
   <g id="patch_203">
    <path clip-path="url(#pb749d08b3d)" d="M 433.443453 137.71551 
L 434.665853 137.71551 
L 434.665853 86.585321 
L 433.443453 86.585321 
z
" style="fill:#1f77b4;"/>
   </g>
   <g id="patch_204">
    <path clip-path="url(#pb749d08b3d)" d="M 434.971453 137.71551 
L 436.193852 137.71551 
L 436.193852 117.598714 
L 434.971453 117.598714 
z
" style="fill:#1f77b4;"/>
   </g>
   <g id="patch_205">
    <path clip-path="url(#pb749d08b3d)" d="M 436.499452 137.71551 
L 437.721851 137.71551 
L 437.721851 115.084115 
L 436.499452 115.084115 
z
" style="fill:#1f77b4;"/>
   </g>
   <g id="patch_206">
    <path clip-path="url(#pb749d08b3d)" d="M 438.027451 137.71551 
L 439.24985 137.71551 
L 439.24985 134.548977 
L 438.027451 134.548977 
z
" style="fill:#1f77b4;"/>
   </g>
   <g id="patch_207">
    <path clip-path="url(#pb749d08b3d)" d="M 439.55545 137.71551 
L 440.777849 137.71551 
L 440.777849 65.350925 
L 439.55545 65.350925 
z
" style="fill:#1f77b4;"/>
   </g>
   <g id="patch_208">
    <path clip-path="url(#pb749d08b3d)" d="M 441.083449 137.71551 
L 442.305849 137.71551 
L 442.305849 41.508797 
L 441.083449 41.508797 
z
" style="fill:#1f77b4;"/>
   </g>
   <g id="patch_209">
    <path clip-path="url(#pb749d08b3d)" d="M 442.611448 137.71551 
L 443.833848 137.71551 
L 443.833848 76.526923 
L 442.611448 76.526923 
z
" style="fill:#1f77b4;"/>
   </g>
   <g id="patch_210">
    <path clip-path="url(#pb749d08b3d)" d="M 444.139448 137.71551 
L 445.361847 137.71551 
L 445.361847 73.08099 
L 444.139448 73.08099 
z
" style="fill:#1f77b4;"/>
   </g>
   <g id="patch_211">
    <path clip-path="url(#pb749d08b3d)" d="M 445.667447 137.71551 
L 446.889846 137.71551 
L 446.889846 66.468525 
L 445.667447 66.468525 
z
" style="fill:#1f77b4;"/>
   </g>
   <g id="patch_212">
    <path clip-path="url(#pb749d08b3d)" d="M 447.195446 137.71551 
L 448.417845 137.71551 
L 448.417845 86.399054 
L 447.195446 86.399054 
z
" style="fill:#1f77b4;"/>
   </g>
   <g id="patch_213">
    <path clip-path="url(#pb749d08b3d)" d="M 448.723445 137.71551 
L 449.945844 137.71551 
L 449.945844 118.157514 
L 448.723445 118.157514 
z
" style="fill:#1f77b4;"/>
   </g>
   <g id="matplotlib.axis_3">
    <g id="xtick_6">
     <g id="line2d_12">
      <g>
       <use style="stroke:#000000;stroke-width:0.8;" x="293.47873" xlink:href="#mcc73b9cf71" y="137.71551"/>
      </g>
     </g>
     <g id="text_14">
      <!-- 0 -->
      <g transform="translate(290.29748 152.313947)scale(0.1 -0.1)">
       <use xlink:href="#DejaVuSans-48"/>
      </g>
     </g>
    </g>
    <g id="xtick_7">
     <g id="line2d_13">
      <g>
       <use style="stroke:#000000;stroke-width:0.8;" x="331.678709" xlink:href="#mcc73b9cf71" y="137.71551"/>
      </g>
     </g>
     <g id="text_15">
      <!-- 25 -->
      <g transform="translate(325.316209 152.313947)scale(0.1 -0.1)">
       <use xlink:href="#DejaVuSans-50"/>
       <use x="63.623047" xlink:href="#DejaVuSans-53"/>
      </g>
     </g>
    </g>
    <g id="xtick_8">
     <g id="line2d_14">
      <g>
       <use style="stroke:#000000;stroke-width:0.8;" x="369.878688" xlink:href="#mcc73b9cf71" y="137.71551"/>
      </g>
     </g>
     <g id="text_16">
      <!-- 50 -->
      <g transform="translate(363.516188 152.313947)scale(0.1 -0.1)">
       <use xlink:href="#DejaVuSans-53"/>
       <use x="63.623047" xlink:href="#DejaVuSans-48"/>
      </g>
     </g>
    </g>
    <g id="xtick_9">
     <g id="line2d_15">
      <g>
       <use style="stroke:#000000;stroke-width:0.8;" x="408.078667" xlink:href="#mcc73b9cf71" y="137.71551"/>
      </g>
     </g>
     <g id="text_17">
      <!-- 75 -->
      <g transform="translate(401.716167 152.313947)scale(0.1 -0.1)">
       <use xlink:href="#DejaVuSans-55"/>
       <use x="63.623047" xlink:href="#DejaVuSans-53"/>
      </g>
     </g>
    </g>
    <g id="xtick_10">
     <g id="line2d_16">
      <g>
       <use style="stroke:#000000;stroke-width:0.8;" x="446.278646" xlink:href="#mcc73b9cf71" y="137.71551"/>
      </g>
     </g>
     <g id="text_18">
      <!-- 100 -->
      <g transform="translate(436.734896 152.313947)scale(0.1 -0.1)">
       <use xlink:href="#DejaVuSans-49"/>
       <use x="63.623047" xlink:href="#DejaVuSans-48"/>
       <use x="127.246094" xlink:href="#DejaVuSans-48"/>
      </g>
     </g>
    </g>
    <g id="text_19">
     <!-- Dias -->
     <g transform="translate(360.498875 165.992072)scale(0.1 -0.1)">
      <use xlink:href="#DejaVuSans-68"/>
      <use x="77.001953" xlink:href="#DejaVuSans-105"/>
      <use x="104.785156" xlink:href="#DejaVuSans-97"/>
      <use x="166.064453" xlink:href="#DejaVuSans-115"/>
     </g>
    </g>
   </g>
   <g id="matplotlib.axis_4">
    <g id="ytick_6">
     <g id="line2d_17">
      <g>
       <use style="stroke:#000000;stroke-width:0.8;" x="285.013615" xlink:href="#m80b0f7e166" y="137.71551"/>
      </g>
     </g>
     <g id="text_20">
      <!-- 0 -->
      <g transform="translate(271.651115 141.514729)scale(0.1 -0.1)">
       <use xlink:href="#DejaVuSans-48"/>
      </g>
     </g>
    </g>
    <g id="ytick_7">
     <g id="line2d_18">
      <g>
       <use style="stroke:#000000;stroke-width:0.8;" x="285.013615" xlink:href="#m80b0f7e166" y="91.148853"/>
      </g>
     </g>
     <g id="text_21">
      <!-- 500 -->
      <g transform="translate(258.926115 94.948072)scale(0.1 -0.1)">
       <use xlink:href="#DejaVuSans-53"/>
       <use x="63.623047" xlink:href="#DejaVuSans-48"/>
       <use x="127.246094" xlink:href="#DejaVuSans-48"/>
      </g>
     </g>
    </g>
    <g id="ytick_8">
     <g id="line2d_19">
      <g>
       <use style="stroke:#000000;stroke-width:0.8;" x="285.013615" xlink:href="#m80b0f7e166" y="44.582196"/>
      </g>
     </g>
     <g id="text_22">
      <!-- 1000 -->
      <g transform="translate(252.563615 48.381415)scale(0.1 -0.1)">
       <use xlink:href="#DejaVuSans-49"/>
       <use x="63.623047" xlink:href="#DejaVuSans-48"/>
       <use x="127.246094" xlink:href="#DejaVuSans-48"/>
       <use x="190.869141" xlink:href="#DejaVuSans-48"/>
      </g>
     </g>
    </g>
    <g id="text_23">
     <!-- Novos casos -->
     <defs>
      <path d="M 9.8125 72.90625 
L 23.09375 72.90625 
L 55.421875 11.921875 
L 55.421875 72.90625 
L 64.984375 72.90625 
L 64.984375 0 
L 51.703125 0 
L 19.390625 60.984375 
L 19.390625 0 
L 9.8125 0 
z
" id="DejaVuSans-78"/>
      <path d="M 2.984375 54.6875 
L 12.5 54.6875 
L 29.59375 8.796875 
L 46.6875 54.6875 
L 56.203125 54.6875 
L 35.6875 0 
L 23.484375 0 
z
" id="DejaVuSans-118"/>
     </defs>
     <g transform="translate(246.483928 109.011469)rotate(-90)scale(0.1 -0.1)">
      <use xlink:href="#DejaVuSans-78"/>
      <use x="74.804688" xlink:href="#DejaVuSans-111"/>
      <use x="135.986328" xlink:href="#DejaVuSans-118"/>
      <use x="195.166016" xlink:href="#DejaVuSans-111"/>
      <use x="256.347656" xlink:href="#DejaVuSans-115"/>
      <use x="308.447266" xlink:href="#DejaVuSans-32"/>
      <use x="340.234375" xlink:href="#DejaVuSans-99"/>
      <use x="395.214844" xlink:href="#DejaVuSans-97"/>
      <use x="456.494141" xlink:href="#DejaVuSans-115"/>
      <use x="508.59375" xlink:href="#DejaVuSans-111"/>
      <use x="569.775391" xlink:href="#DejaVuSans-115"/>
     </g>
    </g>
   </g>
   <g id="line2d_20">
    <path clip-path="url(#pb749d08b3d)" d="M 293.47873 137.622609 
L 295.00673 137.575131 
L 296.534729 137.512098 
L 298.062728 137.436653 
L 299.590727 137.342279 
L 301.118726 137.229479 
L 302.646725 137.099496 
L 304.174724 136.954307 
L 305.702724 136.796279 
L 307.230723 136.628437 
L 308.758722 136.457842 
L 310.286721 136.291397 
L 311.81472 136.130731 
L 313.342719 135.97887 
L 314.870719 135.835466 
L 316.398718 135.702031 
L 317.926717 135.578758 
L 319.454716 135.458588 
L 320.982715 135.338496 
L 322.510714 135.220499 
L 324.038714 135.102463 
L 325.566713 134.990284 
L 327.094712 134.886678 
L 328.622711 134.795911 
L 330.15071 134.730861 
L 331.678709 134.695756 
L 333.206709 134.690481 
L 334.734708 134.718215 
L 336.262707 134.769611 
L 337.790706 134.838695 
L 339.318705 134.919106 
L 340.846704 134.994784 
L 342.374703 135.054868 
L 343.902703 135.092805 
L 345.430702 135.099981 
L 346.958701 135.077444 
L 348.4867 135.02085 
L 350.014699 134.920735 
L 351.542698 134.775856 
L 353.070698 134.588193 
L 354.598697 134.354992 
L 356.126696 134.078889 
L 357.654695 133.761514 
L 359.182694 133.410509 
L 360.710693 133.03817 
L 362.238693 132.655086 
L 363.766692 132.256408 
L 365.294691 131.845667 
L 366.82269 131.418558 
L 368.350689 130.96701 
L 369.878688 130.473299 
L 371.406687 129.938199 
L 372.934687 129.35857 
L 374.462686 128.752214 
L 375.990685 128.123632 
L 377.518684 127.482405 
L 379.046683 126.841177 
L 380.574682 126.249135 
L 382.102682 125.665316 
L 383.630681 125.035842 
L 385.15868 124.315833 
L 386.686679 123.461303 
L 388.214678 122.422446 
L 389.742677 121.142668 
L 391.270677 119.493459 
L 392.798676 117.559149 
L 394.326675 115.445477 
L 395.854674 113.234482 
L 397.382673 111.014798 
L 398.910672 108.888829 
L 400.438672 106.976319 
L 401.966671 105.454689 
L 403.49467 104.229836 
L 405.022669 103.260916 
L 406.550668 102.462049 
L 408.078667 101.80228 
L 409.606666 101.233938 
L 411.134666 100.682857 
L 412.662665 100.08104 
L 414.190664 99.531666 
L 415.718663 99.010026 
L 417.246662 98.61771 
L 418.774661 98.34378 
L 420.302661 98.189476 
L 421.83066 98.157552 
L 423.358659 98.194208 
L 424.886658 98.228808 
L 426.414657 98.271166 
L 427.942656 98.184317 
L 429.470656 97.882147 
L 430.998655 97.261633 
L 432.526654 96.280417 
L 434.054653 94.988886 
L 435.582652 93.405193 
L 437.110651 91.513396 
L 438.638651 89.443904 
L 440.16665 87.383373 
L 441.694649 85.480134 
L 443.222648 83.839459 
L 444.750647 82.501186 
L 446.278646 81.569543 
L 447.806645 80.908688 
L 449.334645 80.513851 
" style="fill:none;stroke:#ff0000;stroke-linecap:square;stroke-width:1.5;"/>
   </g>
   <g id="patch_214">
    <path d="M 285.013615 137.71551 
L 285.013615 18.118365 
" style="fill:none;stroke:#000000;stroke-linecap:square;stroke-linejoin:miter;stroke-width:0.8;"/>
   </g>
   <g id="patch_215">
    <path d="M 457.79976 137.71551 
L 457.79976 18.118365 
" style="fill:none;stroke:#000000;stroke-linecap:square;stroke-linejoin:miter;stroke-width:0.8;"/>
   </g>
   <g id="patch_216">
    <path d="M 285.013615 137.71551 
L 457.79976 137.71551 
" style="fill:none;stroke:#000000;stroke-linecap:square;stroke-linejoin:miter;stroke-width:0.8;"/>
   </g>
   <g id="patch_217">
    <path d="M 285.013615 18.118365 
L 457.79976 18.118365 
" style="fill:none;stroke:#000000;stroke-linecap:square;stroke-linejoin:miter;stroke-width:0.8;"/>
   </g>
   <g id="text_24">
    <!-- Casos novos - RS -->
    <defs>
     <path d="M 54.890625 33.015625 
L 54.890625 0 
L 45.90625 0 
L 45.90625 32.71875 
Q 45.90625 40.484375 42.875 44.328125 
Q 39.84375 48.1875 33.796875 48.1875 
Q 26.515625 48.1875 22.3125 43.546875 
Q 18.109375 38.921875 18.109375 30.90625 
L 18.109375 0 
L 9.078125 0 
L 9.078125 54.6875 
L 18.109375 54.6875 
L 18.109375 46.1875 
Q 21.34375 51.125 25.703125 53.5625 
Q 30.078125 56 35.796875 56 
Q 45.21875 56 50.046875 50.171875 
Q 54.890625 44.34375 54.890625 33.015625 
z
" id="DejaVuSans-110"/>
    </defs>
    <g transform="translate(319.932312 12.118365)scale(0.12 -0.12)">
     <use xlink:href="#DejaVuSans-67"/>
     <use x="69.824219" xlink:href="#DejaVuSans-97"/>
     <use x="131.103516" xlink:href="#DejaVuSans-115"/>
     <use x="183.203125" xlink:href="#DejaVuSans-111"/>
     <use x="244.384766" xlink:href="#DejaVuSans-115"/>
     <use x="296.484375" xlink:href="#DejaVuSans-32"/>
     <use x="328.271484" xlink:href="#DejaVuSans-110"/>
     <use x="391.650391" xlink:href="#DejaVuSans-111"/>
     <use x="452.832031" xlink:href="#DejaVuSans-118"/>
     <use x="512.011719" xlink:href="#DejaVuSans-111"/>
     <use x="573.193359" xlink:href="#DejaVuSans-115"/>
     <use x="625.292969" xlink:href="#DejaVuSans-32"/>
     <use x="657.080078" xlink:href="#DejaVuSans-45"/>
     <use x="693.164062" xlink:href="#DejaVuSans-32"/>
     <use x="724.951172" xlink:href="#DejaVuSans-82"/>
     <use x="794.433594" xlink:href="#DejaVuSans-83"/>
    </g>
   </g>
  </g>
  <g id="axes_3">
   <g id="patch_218">
    <path d="M 55.490865 312.24351 
L 457.79976 312.24351 
L 457.79976 192.646365 
L 55.490865 192.646365 
z
" style="fill:#ffffff;"/>
   </g>
   <g id="matplotlib.axis_5">
    <g id="xtick_11">
     <g id="line2d_21">
      <g>
       <use style="stroke:#000000;stroke-width:0.8;" x="73.777633" xlink:href="#mcc73b9cf71" y="312.24351"/>
      </g>
     </g>
     <g id="text_25">
      <!-- 0 -->
      <g transform="translate(70.596383 326.841947)scale(0.1 -0.1)">
       <use xlink:href="#DejaVuSans-48"/>
      </g>
     </g>
    </g>
    <g id="xtick_12">
     <g id="line2d_22">
      <g>
       <use style="stroke:#000000;stroke-width:0.8;" x="145.490448" xlink:href="#mcc73b9cf71" y="312.24351"/>
      </g>
     </g>
     <g id="text_26">
      <!-- 20 -->
      <g transform="translate(139.127948 326.841947)scale(0.1 -0.1)">
       <use xlink:href="#DejaVuSans-50"/>
       <use x="63.623047" xlink:href="#DejaVuSans-48"/>
      </g>
     </g>
    </g>
    <g id="xtick_13">
     <g id="line2d_23">
      <g>
       <use style="stroke:#000000;stroke-width:0.8;" x="217.203264" xlink:href="#mcc73b9cf71" y="312.24351"/>
      </g>
     </g>
     <g id="text_27">
      <!-- 40 -->
      <defs>
       <path d="M 37.796875 64.3125 
L 12.890625 25.390625 
L 37.796875 25.390625 
z
M 35.203125 72.90625 
L 47.609375 72.90625 
L 47.609375 25.390625 
L 58.015625 25.390625 
L 58.015625 17.1875 
L 47.609375 17.1875 
L 47.609375 0 
L 37.796875 0 
L 37.796875 17.1875 
L 4.890625 17.1875 
L 4.890625 26.703125 
z
" id="DejaVuSans-52"/>
      </defs>
      <g transform="translate(210.840764 326.841947)scale(0.1 -0.1)">
       <use xlink:href="#DejaVuSans-52"/>
       <use x="63.623047" xlink:href="#DejaVuSans-48"/>
      </g>
     </g>
    </g>
    <g id="xtick_14">
     <g id="line2d_24">
      <g>
       <use style="stroke:#000000;stroke-width:0.8;" x="288.916079" xlink:href="#mcc73b9cf71" y="312.24351"/>
      </g>
     </g>
     <g id="text_28">
      <!-- 60 -->
      <defs>
       <path d="M 33.015625 40.375 
Q 26.375 40.375 22.484375 35.828125 
Q 18.609375 31.296875 18.609375 23.390625 
Q 18.609375 15.53125 22.484375 10.953125 
Q 26.375 6.390625 33.015625 6.390625 
Q 39.65625 6.390625 43.53125 10.953125 
Q 47.40625 15.53125 47.40625 23.390625 
Q 47.40625 31.296875 43.53125 35.828125 
Q 39.65625 40.375 33.015625 40.375 
z
M 52.59375 71.296875 
L 52.59375 62.3125 
Q 48.875 64.0625 45.09375 64.984375 
Q 41.3125 65.921875 37.59375 65.921875 
Q 27.828125 65.921875 22.671875 59.328125 
Q 17.53125 52.734375 16.796875 39.40625 
Q 19.671875 43.65625 24.015625 45.921875 
Q 28.375 48.1875 33.59375 48.1875 
Q 44.578125 48.1875 50.953125 41.515625 
Q 57.328125 34.859375 57.328125 23.390625 
Q 57.328125 12.15625 50.6875 5.359375 
Q 44.046875 -1.421875 33.015625 -1.421875 
Q 20.359375 -1.421875 13.671875 8.265625 
Q 6.984375 17.96875 6.984375 36.375 
Q 6.984375 53.65625 15.1875 63.9375 
Q 23.390625 74.21875 37.203125 74.21875 
Q 40.921875 74.21875 44.703125 73.484375 
Q 48.484375 72.75 52.59375 71.296875 
z
" id="DejaVuSans-54"/>
      </defs>
      <g transform="translate(282.553579 326.841947)scale(0.1 -0.1)">
       <use xlink:href="#DejaVuSans-54"/>
       <use x="63.623047" xlink:href="#DejaVuSans-48"/>
      </g>
     </g>
    </g>
    <g id="xtick_15">
     <g id="line2d_25">
      <g>
       <use style="stroke:#000000;stroke-width:0.8;" x="360.628895" xlink:href="#mcc73b9cf71" y="312.24351"/>
      </g>
     </g>
     <g id="text_29">
      <!-- 80 -->
      <defs>
       <path d="M 31.78125 34.625 
Q 24.75 34.625 20.71875 30.859375 
Q 16.703125 27.09375 16.703125 20.515625 
Q 16.703125 13.921875 20.71875 10.15625 
Q 24.75 6.390625 31.78125 6.390625 
Q 38.8125 6.390625 42.859375 10.171875 
Q 46.921875 13.96875 46.921875 20.515625 
Q 46.921875 27.09375 42.890625 30.859375 
Q 38.875 34.625 31.78125 34.625 
z
M 21.921875 38.8125 
Q 15.578125 40.375 12.03125 44.71875 
Q 8.5 49.078125 8.5 55.328125 
Q 8.5 64.0625 14.71875 69.140625 
Q 20.953125 74.21875 31.78125 74.21875 
Q 42.671875 74.21875 48.875 69.140625 
Q 55.078125 64.0625 55.078125 55.328125 
Q 55.078125 49.078125 51.53125 44.71875 
Q 48 40.375 41.703125 38.8125 
Q 48.828125 37.15625 52.796875 32.3125 
Q 56.78125 27.484375 56.78125 20.515625 
Q 56.78125 9.90625 50.3125 4.234375 
Q 43.84375 -1.421875 31.78125 -1.421875 
Q 19.734375 -1.421875 13.25 4.234375 
Q 6.78125 9.90625 6.78125 20.515625 
Q 6.78125 27.484375 10.78125 32.3125 
Q 14.796875 37.15625 21.921875 38.8125 
z
M 18.3125 54.390625 
Q 18.3125 48.734375 21.84375 45.5625 
Q 25.390625 42.390625 31.78125 42.390625 
Q 38.140625 42.390625 41.71875 45.5625 
Q 45.3125 48.734375 45.3125 54.390625 
Q 45.3125 60.0625 41.71875 63.234375 
Q 38.140625 66.40625 31.78125 66.40625 
Q 25.390625 66.40625 21.84375 63.234375 
Q 18.3125 60.0625 18.3125 54.390625 
z
" id="DejaVuSans-56"/>
      </defs>
      <g transform="translate(354.266395 326.841947)scale(0.1 -0.1)">
       <use xlink:href="#DejaVuSans-56"/>
       <use x="63.623047" xlink:href="#DejaVuSans-48"/>
      </g>
     </g>
    </g>
    <g id="xtick_16">
     <g id="line2d_26">
      <g>
       <use style="stroke:#000000;stroke-width:0.8;" x="432.34171" xlink:href="#mcc73b9cf71" y="312.24351"/>
      </g>
     </g>
     <g id="text_30">
      <!-- 100 -->
      <g transform="translate(422.79796 326.841947)scale(0.1 -0.1)">
       <use xlink:href="#DejaVuSans-49"/>
       <use x="63.623047" xlink:href="#DejaVuSans-48"/>
       <use x="127.246094" xlink:href="#DejaVuSans-48"/>
      </g>
     </g>
    </g>
    <g id="text_31">
     <!-- Dias -->
     <g transform="translate(245.7375 340.520072)scale(0.1 -0.1)">
      <use xlink:href="#DejaVuSans-68"/>
      <use x="77.001953" xlink:href="#DejaVuSans-105"/>
      <use x="104.785156" xlink:href="#DejaVuSans-97"/>
      <use x="166.064453" xlink:href="#DejaVuSans-115"/>
     </g>
    </g>
   </g>
   <g id="matplotlib.axis_6">
    <g id="ytick_9">
     <g id="line2d_27">
      <g>
       <use style="stroke:#000000;stroke-width:0.8;" x="55.490865" xlink:href="#m80b0f7e166" y="299.053115"/>
      </g>
     </g>
     <g id="text_32">
      <!-- 1 -->
      <g transform="translate(42.128365 302.852334)scale(0.1 -0.1)">
       <use xlink:href="#DejaVuSans-49"/>
      </g>
     </g>
    </g>
    <g id="ytick_10">
     <g id="line2d_28">
      <g>
       <use style="stroke:#000000;stroke-width:0.8;" x="55.490865" xlink:href="#m80b0f7e166" y="261.141907"/>
      </g>
     </g>
     <g id="text_33">
      <!-- 2 -->
      <g transform="translate(42.128365 264.941126)scale(0.1 -0.1)">
       <use xlink:href="#DejaVuSans-50"/>
      </g>
     </g>
    </g>
    <g id="ytick_11">
     <g id="line2d_29">
      <g>
       <use style="stroke:#000000;stroke-width:0.8;" x="55.490865" xlink:href="#m80b0f7e166" y="223.2307"/>
      </g>
     </g>
     <g id="text_34">
      <!-- 3 -->
      <defs>
       <path d="M 40.578125 39.3125 
Q 47.65625 37.796875 51.625 33 
Q 55.609375 28.21875 55.609375 21.1875 
Q 55.609375 10.40625 48.1875 4.484375 
Q 40.765625 -1.421875 27.09375 -1.421875 
Q 22.515625 -1.421875 17.65625 -0.515625 
Q 12.796875 0.390625 7.625 2.203125 
L 7.625 11.71875 
Q 11.71875 9.328125 16.59375 8.109375 
Q 21.484375 6.890625 26.8125 6.890625 
Q 36.078125 6.890625 40.9375 10.546875 
Q 45.796875 14.203125 45.796875 21.1875 
Q 45.796875 27.640625 41.28125 31.265625 
Q 36.765625 34.90625 28.71875 34.90625 
L 20.21875 34.90625 
L 20.21875 43.015625 
L 29.109375 43.015625 
Q 36.375 43.015625 40.234375 45.921875 
Q 44.09375 48.828125 44.09375 54.296875 
Q 44.09375 59.90625 40.109375 62.90625 
Q 36.140625 65.921875 28.71875 65.921875 
Q 24.65625 65.921875 20.015625 65.03125 
Q 15.375 64.15625 9.8125 62.3125 
L 9.8125 71.09375 
Q 15.4375 72.65625 20.34375 73.4375 
Q 25.25 74.21875 29.59375 74.21875 
Q 40.828125 74.21875 47.359375 69.109375 
Q 53.90625 64.015625 53.90625 55.328125 
Q 53.90625 49.265625 50.4375 45.09375 
Q 46.96875 40.921875 40.578125 39.3125 
z
" id="DejaVuSans-51"/>
      </defs>
      <g transform="translate(42.128365 227.029919)scale(0.1 -0.1)">
       <use xlink:href="#DejaVuSans-51"/>
      </g>
     </g>
    </g>
    <g id="text_35">
     <!-- r0 -->
     <defs>
      <path d="M 41.109375 46.296875 
Q 39.59375 47.171875 37.8125 47.578125 
Q 36.03125 48 33.890625 48 
Q 26.265625 48 22.1875 43.046875 
Q 18.109375 38.09375 18.109375 28.8125 
L 18.109375 0 
L 9.078125 0 
L 9.078125 54.6875 
L 18.109375 54.6875 
L 18.109375 46.1875 
Q 20.953125 51.171875 25.484375 53.578125 
Q 30.03125 56 36.53125 56 
Q 37.453125 56 38.578125 55.875 
Q 39.703125 55.765625 41.0625 55.515625 
z
" id="DejaVuSans-114"/>
     </defs>
     <g transform="translate(36.048678 257.681656)rotate(-90)scale(0.1 -0.1)">
      <use xlink:href="#DejaVuSans-114"/>
      <use x="41.113281" xlink:href="#DejaVuSans-48"/>
     </g>
    </g>
   </g>
   <g id="line2d_30">
    <path clip-path="url(#p8cbdb0d8f7)" d="M 73.777633 198.082599 
L 77.363274 207.463572 
L 80.948915 215.136118 
L 84.534555 225.784346 
L 88.120196 230.574463 
L 91.705837 236.198705 
L 95.291478 241.904359 
L 98.877118 247.391895 
L 102.462759 252.487125 
L 106.0484 257.228333 
L 109.634041 262.304969 
L 113.219681 267.385794 
L 116.805322 271.580553 
L 120.390963 275.35285 
L 123.976604 278.37565 
L 127.562245 281.0839 
L 131.147885 283.40586 
L 134.733526 284.608254 
L 138.319167 285.343549 
L 141.904808 286.215996 
L 145.490448 286.788368 
L 149.076089 287.872143 
L 152.66173 289.099443 
L 156.247371 290.597407 
L 159.833012 293.114069 
L 163.418652 295.868442 
L 167.004293 298.54489 
L 170.589934 301.524215 
L 174.175575 303.743912 
L 177.761215 305.523072 
L 181.346856 306.807276 
L 184.932497 306.551644 
L 188.518138 305.132108 
L 192.103779 302.93006 
L 195.689419 299.751042 
L 199.27506 296.689424 
L 202.860701 293.309373 
L 206.446342 289.288583 
L 210.031982 285.635404 
L 213.617623 282.724026 
L 217.203264 280.174336 
L 220.788905 278.39913 
L 224.374546 277.215644 
L 227.960186 276.866036 
L 231.545827 277.383234 
L 235.131468 278.435676 
L 238.717109 279.153912 
L 242.302749 279.975855 
L 245.88839 280.551003 
L 249.474031 280.792036 
L 253.059672 280.441167 
L 256.645312 280.260413 
L 260.230953 280.099206 
L 263.816594 280.553108 
L 267.402235 281.116778 
L 270.987876 281.885205 
L 274.573516 282.877539 
L 278.159157 284.859602 
L 281.744798 285.713496 
L 285.330439 285.375773 
L 288.916079 284.249561 
L 292.50172 282.542399 
L 296.087361 280.351923 
L 299.673002 277.800493 
L 303.258643 274.155297 
L 306.844283 272.636619 
L 310.429924 272.889833 
L 314.015565 274.1074 
L 317.601206 276.030601 
L 321.186846 278.555895 
L 324.772487 281.672127 
L 328.358128 285.755831 
L 331.943769 288.623448 
L 335.52941 290.911267 
L 339.11505 292.380955 
L 342.700691 293.531301 
L 346.286332 294.272199 
L 349.871973 294.43865 
L 353.457613 294.107952 
L 357.043254 294.522743 
L 360.628895 294.747196 
L 364.214536 295.669277 
L 367.800177 296.491936 
L 371.385817 297.309641 
L 374.971458 298.14068 
L 378.557099 298.597122 
L 382.14274 298.561157 
L 385.72838 298.593939 
L 389.314021 297.667669 
L 392.899662 296.153568 
L 396.485303 293.981678 
L 400.070944 291.641505 
L 403.656584 289.793005 
L 407.242225 288.225787 
L 410.827866 286.738508 
L 414.413507 286.157234 
L 417.999147 286.646494 
L 421.584788 287.851409 
L 425.170429 289.471243 
L 428.75607 291.159416 
L 432.34171 293.251134 
L 435.927351 294.597379 
L 439.512992 295.882911 
" style="fill:none;stroke:#ff0000;stroke-linecap:square;stroke-width:1.5;"/>
   </g>
   <g id="patch_219">
    <path d="M 55.490865 312.24351 
L 55.490865 192.646365 
" style="fill:none;stroke:#000000;stroke-linecap:square;stroke-linejoin:miter;stroke-width:0.8;"/>
   </g>
   <g id="patch_220">
    <path d="M 457.79976 312.24351 
L 457.79976 192.646365 
" style="fill:none;stroke:#000000;stroke-linecap:square;stroke-linejoin:miter;stroke-width:0.8;"/>
   </g>
   <g id="patch_221">
    <path d="M 55.490865 312.24351 
L 457.79976 312.24351 
" style="fill:none;stroke:#000000;stroke-linecap:square;stroke-linejoin:miter;stroke-width:0.8;"/>
   </g>
   <g id="patch_222">
    <path d="M 55.490865 192.646365 
L 457.79976 192.646365 
" style="fill:none;stroke:#000000;stroke-linecap:square;stroke-linejoin:miter;stroke-width:0.8;"/>
   </g>
   <g id="text_36">
    <!-- r0 aproximado - RS -->
    <defs>
     <path d="M 18.109375 8.203125 
L 18.109375 -20.796875 
L 9.078125 -20.796875 
L 9.078125 54.6875 
L 18.109375 54.6875 
L 18.109375 46.390625 
Q 20.953125 51.265625 25.265625 53.625 
Q 29.59375 56 35.59375 56 
Q 45.5625 56 51.78125 48.09375 
Q 58.015625 40.1875 58.015625 27.296875 
Q 58.015625 14.40625 51.78125 6.484375 
Q 45.5625 -1.421875 35.59375 -1.421875 
Q 29.59375 -1.421875 25.265625 0.953125 
Q 20.953125 3.328125 18.109375 8.203125 
z
M 48.6875 27.296875 
Q 48.6875 37.203125 44.609375 42.84375 
Q 40.53125 48.484375 33.40625 48.484375 
Q 26.265625 48.484375 22.1875 42.84375 
Q 18.109375 37.203125 18.109375 27.296875 
Q 18.109375 17.390625 22.1875 11.75 
Q 26.265625 6.109375 33.40625 6.109375 
Q 40.53125 6.109375 44.609375 11.75 
Q 48.6875 17.390625 48.6875 27.296875 
z
" id="DejaVuSans-112"/>
     <path d="M 54.890625 54.6875 
L 35.109375 28.078125 
L 55.90625 0 
L 45.3125 0 
L 29.390625 21.484375 
L 13.484375 0 
L 2.875 0 
L 24.125 28.609375 
L 4.6875 54.6875 
L 15.28125 54.6875 
L 29.78125 35.203125 
L 44.28125 54.6875 
z
" id="DejaVuSans-120"/>
    </defs>
    <g transform="translate(198.976875 186.646365)scale(0.12 -0.12)">
     <use xlink:href="#DejaVuSans-114"/>
     <use x="41.113281" xlink:href="#DejaVuSans-48"/>
     <use x="104.736328" xlink:href="#DejaVuSans-32"/>
     <use x="136.523438" xlink:href="#DejaVuSans-97"/>
     <use x="197.802734" xlink:href="#DejaVuSans-112"/>
     <use x="261.279297" xlink:href="#DejaVuSans-114"/>
     <use x="300.142578" xlink:href="#DejaVuSans-111"/>
     <use x="358.199219" xlink:href="#DejaVuSans-120"/>
     <use x="417.378906" xlink:href="#DejaVuSans-105"/>
     <use x="445.162109" xlink:href="#DejaVuSans-109"/>
     <use x="542.574219" xlink:href="#DejaVuSans-97"/>
     <use x="603.853516" xlink:href="#DejaVuSans-100"/>
     <use x="667.330078" xlink:href="#DejaVuSans-111"/>
     <use x="728.511719" xlink:href="#DejaVuSans-32"/>
     <use x="760.298828" xlink:href="#DejaVuSans-45"/>
     <use x="796.382812" xlink:href="#DejaVuSans-32"/>
     <use x="828.169922" xlink:href="#DejaVuSans-82"/>
     <use x="897.652344" xlink:href="#DejaVuSans-83"/>
    </g>
   </g>
  </g>
 </g>
 <defs>
  <clipPath id="pf238ac4d92">
   <rect height="119.597145" width="172.786145" x="55.490865" y="18.118365"/>
  </clipPath>
  <clipPath id="pb749d08b3d">
   <rect height="119.597145" width="172.786145" x="285.013615" y="18.118365"/>
  </clipPath>
  <clipPath id="p8cbdb0d8f7">
   <rect height="119.597145" width="402.308895" x="55.490865" y="192.646365"/>
  </clipPath>
 </defs>
</svg>
