<?xml version="1.0" encoding="utf-8" standalone="no"?>
<!DOCTYPE svg PUBLIC "-//W3C//DTD SVG 1.1//EN"
  "http://www.w3.org/Graphics/SVG/1.1/DTD/svg11.dtd">
<!-- Created with matplotlib (https://matplotlib.org/) -->
<svg height="345.6pt" version="1.1" viewBox="0 0 460.8 345.6" width="460.8pt" xmlns="http://www.w3.org/2000/svg" xmlns:xlink="http://www.w3.org/1999/xlink">
 <defs>
  <style type="text/css">
*{stroke-linecap:butt;stroke-linejoin:round;}
  </style>
 </defs>
 <g id="figure_1">
  <g id="patch_1">
   <path d="M 0 345.6 
L 460.8 345.6 
L 460.8 0 
L 0 0 
z
" style="fill:#ffffff;"/>
  </g>
  <g id="axes_1">
   <g id="patch_2">
    <path d="M 51.886064 325.921635 
L 135.015612 325.921635 
L 135.015612 18.118365 
L 51.886064 18.118365 
z
" style="fill:#ffffff;"/>
   </g>
   <g id="patch_3">
    <path clip-path="url(#p189b9a37bc)" d="M 55.66468 325.921635 
L 56.252791 325.921635 
L 56.252791 325.891641 
L 55.66468 325.891641 
z
" style="fill:#1f77b4;"/>
   </g>
   <g id="patch_4">
    <path clip-path="url(#p189b9a37bc)" d="M 56.399819 325.921635 
L 56.98793 325.921635 
L 56.98793 325.861647 
L 56.399819 325.861647 
z
" style="fill:#1f77b4;"/>
   </g>
   <g id="patch_5">
    <path clip-path="url(#p189b9a37bc)" d="M 57.134958 325.921635 
L 57.72307 325.921635 
L 57.72307 325.861647 
L 57.134958 325.861647 
z
" style="fill:#1f77b4;"/>
   </g>
   <g id="patch_6">
    <path clip-path="url(#p189b9a37bc)" d="M 57.870097 325.921635 
L 58.458209 325.921635 
L 58.458209 325.831654 
L 57.870097 325.831654 
z
" style="fill:#1f77b4;"/>
   </g>
   <g id="patch_7">
    <path clip-path="url(#p189b9a37bc)" d="M 58.605237 325.921635 
L 59.193348 325.921635 
L 59.193348 325.831654 
L 58.605237 325.831654 
z
" style="fill:#1f77b4;"/>
   </g>
   <g id="patch_8">
    <path clip-path="url(#p189b9a37bc)" d="M 59.340376 325.921635 
L 59.928487 325.921635 
L 59.928487 325.831654 
L 59.340376 325.831654 
z
" style="fill:#1f77b4;"/>
   </g>
   <g id="patch_9">
    <path clip-path="url(#p189b9a37bc)" d="M 60.075515 325.921635 
L 60.663627 325.921635 
L 60.663627 325.771666 
L 60.075515 325.771666 
z
" style="fill:#1f77b4;"/>
   </g>
   <g id="patch_10">
    <path clip-path="url(#p189b9a37bc)" d="M 60.810654 325.921635 
L 61.398766 325.921635 
L 61.398766 325.636694 
L 60.810654 325.636694 
z
" style="fill:#1f77b4;"/>
   </g>
   <g id="patch_11">
    <path clip-path="url(#p189b9a37bc)" d="M 61.545794 325.921635 
L 62.133905 325.921635 
L 62.133905 325.501722 
L 61.545794 325.501722 
z
" style="fill:#1f77b4;"/>
   </g>
   <g id="patch_12">
    <path clip-path="url(#p189b9a37bc)" d="M 62.280933 325.921635 
L 62.869044 325.921635 
L 62.869044 325.36675 
L 62.280933 325.36675 
z
" style="fill:#1f77b4;"/>
   </g>
   <g id="patch_13">
    <path clip-path="url(#p189b9a37bc)" d="M 63.016072 325.921635 
L 63.604184 325.921635 
L 63.604184 325.021822 
L 63.016072 325.021822 
z
" style="fill:#1f77b4;"/>
   </g>
   <g id="patch_14">
    <path clip-path="url(#p189b9a37bc)" d="M 63.751212 325.921635 
L 64.339323 325.921635 
L 64.339323 324.84186 
L 63.751212 324.84186 
z
" style="fill:#1f77b4;"/>
   </g>
   <g id="patch_15">
    <path clip-path="url(#p189b9a37bc)" d="M 64.486351 325.921635 
L 65.074462 325.921635 
L 65.074462 324.631903 
L 64.486351 324.631903 
z
" style="fill:#1f77b4;"/>
   </g>
   <g id="patch_16">
    <path clip-path="url(#p189b9a37bc)" d="M 65.22149 325.921635 
L 65.809601 325.921635 
L 65.809601 324.451941 
L 65.22149 324.451941 
z
" style="fill:#1f77b4;"/>
   </g>
   <g id="patch_17">
    <path clip-path="url(#p189b9a37bc)" d="M 65.956629 325.921635 
L 66.544741 325.921635 
L 66.544741 324.077019 
L 65.956629 324.077019 
z
" style="fill:#1f77b4;"/>
   </g>
   <g id="patch_18">
    <path clip-path="url(#p189b9a37bc)" d="M 66.691769 325.921635 
L 67.27988 325.921635 
L 67.27988 323.402159 
L 66.691769 323.402159 
z
" style="fill:#1f77b4;"/>
   </g>
   <g id="patch_19">
    <path clip-path="url(#p189b9a37bc)" d="M 67.426908 325.921635 
L 68.015019 325.921635 
L 68.015019 322.997243 
L 67.426908 322.997243 
z
" style="fill:#1f77b4;"/>
   </g>
   <g id="patch_20">
    <path clip-path="url(#p189b9a37bc)" d="M 68.162047 325.921635 
L 68.750159 325.921635 
L 68.750159 322.96725 
L 68.162047 322.96725 
z
" style="fill:#1f77b4;"/>
   </g>
   <g id="patch_21">
    <path clip-path="url(#p189b9a37bc)" d="M 68.897186 325.921635 
L 69.485298 325.921635 
L 69.485298 322.53234 
L 68.897186 322.53234 
z
" style="fill:#1f77b4;"/>
   </g>
   <g id="patch_22">
    <path clip-path="url(#p189b9a37bc)" d="M 69.632326 325.921635 
L 70.220437 325.921635 
L 70.220437 322.307387 
L 69.632326 322.307387 
z
" style="fill:#1f77b4;"/>
   </g>
   <g id="patch_23">
    <path clip-path="url(#p189b9a37bc)" d="M 70.367465 325.921635 
L 70.955576 325.921635 
L 70.955576 321.81249 
L 70.367465 321.81249 
z
" style="fill:#1f77b4;"/>
   </g>
   <g id="patch_24">
    <path clip-path="url(#p189b9a37bc)" d="M 71.102604 325.921635 
L 71.690716 325.921635 
L 71.690716 321.33259 
L 71.102604 321.33259 
z
" style="fill:#1f77b4;"/>
   </g>
   <g id="patch_25">
    <path clip-path="url(#p189b9a37bc)" d="M 71.837743 325.921635 
L 72.425855 325.921635 
L 72.425855 320.912677 
L 71.837743 320.912677 
z
" style="fill:#1f77b4;"/>
   </g>
   <g id="patch_26">
    <path clip-path="url(#p189b9a37bc)" d="M 72.572883 325.921635 
L 73.160994 325.921635 
L 73.160994 319.98287 
L 72.572883 319.98287 
z
" style="fill:#1f77b4;"/>
   </g>
   <g id="patch_27">
    <path clip-path="url(#p189b9a37bc)" d="M 73.308022 325.921635 
L 73.896133 325.921635 
L 73.896133 319.772914 
L 73.308022 319.772914 
z
" style="fill:#1f77b4;"/>
   </g>
   <g id="patch_28">
    <path clip-path="url(#p189b9a37bc)" d="M 74.043161 325.921635 
L 74.631273 325.921635 
L 74.631273 319.652939 
L 74.043161 319.652939 
z
" style="fill:#1f77b4;"/>
   </g>
   <g id="patch_29">
    <path clip-path="url(#p189b9a37bc)" d="M 74.7783 325.921635 
L 75.366412 325.921635 
L 75.366412 318.708136 
L 74.7783 318.708136 
z
" style="fill:#1f77b4;"/>
   </g>
   <g id="patch_30">
    <path clip-path="url(#p189b9a37bc)" d="M 75.51344 325.921635 
L 76.101551 325.921635 
L 76.101551 318.30322 
L 75.51344 318.30322 
z
" style="fill:#1f77b4;"/>
   </g>
   <g id="patch_31">
    <path clip-path="url(#p189b9a37bc)" d="M 76.248579 325.921635 
L 76.83669 325.921635 
L 76.83669 317.598367 
L 76.248579 317.598367 
z
" style="fill:#1f77b4;"/>
   </g>
   <g id="patch_32">
    <path clip-path="url(#p189b9a37bc)" d="M 76.983718 325.921635 
L 77.57183 325.921635 
L 77.57183 316.653563 
L 76.983718 316.653563 
z
" style="fill:#1f77b4;"/>
   </g>
   <g id="patch_33">
    <path clip-path="url(#p189b9a37bc)" d="M 77.718858 325.921635 
L 78.306969 325.921635 
L 78.306969 316.383619 
L 77.718858 316.383619 
z
" style="fill:#1f77b4;"/>
   </g>
   <g id="patch_34">
    <path clip-path="url(#p189b9a37bc)" d="M 78.453997 325.921635 
L 79.042108 325.921635 
L 79.042108 316.323632 
L 78.453997 316.323632 
z
" style="fill:#1f77b4;"/>
   </g>
   <g id="patch_35">
    <path clip-path="url(#p189b9a37bc)" d="M 79.189136 325.921635 
L 79.777247 325.921635 
L 79.777247 316.128672 
L 79.189136 316.128672 
z
" style="fill:#1f77b4;"/>
   </g>
   <g id="patch_36">
    <path clip-path="url(#p189b9a37bc)" d="M 79.924275 325.921635 
L 80.512387 325.921635 
L 80.512387 315.963707 
L 79.924275 315.963707 
z
" style="fill:#1f77b4;"/>
   </g>
   <g id="patch_37">
    <path clip-path="url(#p189b9a37bc)" d="M 80.659415 325.921635 
L 81.247526 325.921635 
L 81.247526 315.423819 
L 80.659415 315.423819 
z
" style="fill:#1f77b4;"/>
   </g>
   <g id="patch_38">
    <path clip-path="url(#p189b9a37bc)" d="M 81.394554 325.921635 
L 81.982665 325.921635 
L 81.982665 314.718966 
L 81.394554 314.718966 
z
" style="fill:#1f77b4;"/>
   </g>
   <g id="patch_39">
    <path clip-path="url(#p189b9a37bc)" d="M 82.129693 325.921635 
L 82.717805 325.921635 
L 82.717805 314.224068 
L 82.129693 314.224068 
z
" style="fill:#1f77b4;"/>
   </g>
   <g id="patch_40">
    <path clip-path="url(#p189b9a37bc)" d="M 82.864832 325.921635 
L 83.452944 325.921635 
L 83.452944 313.894137 
L 82.864832 313.894137 
z
" style="fill:#1f77b4;"/>
   </g>
   <g id="patch_41">
    <path clip-path="url(#p189b9a37bc)" d="M 83.599972 325.921635 
L 84.188083 325.921635 
L 84.188083 313.459228 
L 83.599972 313.459228 
z
" style="fill:#1f77b4;"/>
   </g>
   <g id="patch_42">
    <path clip-path="url(#p189b9a37bc)" d="M 84.335111 325.921635 
L 84.923222 325.921635 
L 84.923222 313.114299 
L 84.335111 313.114299 
z
" style="fill:#1f77b4;"/>
   </g>
   <g id="patch_43">
    <path clip-path="url(#p189b9a37bc)" d="M 85.07025 325.921635 
L 85.658362 325.921635 
L 85.658362 312.589409 
L 85.07025 312.589409 
z
" style="fill:#1f77b4;"/>
   </g>
   <g id="patch_44">
    <path clip-path="url(#p189b9a37bc)" d="M 85.805389 325.921635 
L 86.393501 325.921635 
L 86.393501 312.364455 
L 85.805389 312.364455 
z
" style="fill:#1f77b4;"/>
   </g>
   <g id="patch_45">
    <path clip-path="url(#p189b9a37bc)" d="M 86.540529 325.921635 
L 87.12864 325.921635 
L 87.12864 312.079515 
L 86.540529 312.079515 
z
" style="fill:#1f77b4;"/>
   </g>
   <g id="patch_46">
    <path clip-path="url(#p189b9a37bc)" d="M 87.275668 325.921635 
L 87.863779 325.921635 
L 87.863779 311.014736 
L 87.275668 311.014736 
z
" style="fill:#1f77b4;"/>
   </g>
   <g id="patch_47">
    <path clip-path="url(#p189b9a37bc)" d="M 88.010807 325.921635 
L 88.598919 325.921635 
L 88.598919 310.009945 
L 88.010807 310.009945 
z
" style="fill:#1f77b4;"/>
   </g>
   <g id="patch_48">
    <path clip-path="url(#p189b9a37bc)" d="M 88.745946 325.921635 
L 89.334058 325.921635 
L 89.334058 309.485054 
L 88.745946 309.485054 
z
" style="fill:#1f77b4;"/>
   </g>
   <g id="patch_49">
    <path clip-path="url(#p189b9a37bc)" d="M 89.481086 325.921635 
L 90.069197 325.921635 
L 90.069197 308.435273 
L 89.481086 308.435273 
z
" style="fill:#1f77b4;"/>
   </g>
   <g id="patch_50">
    <path clip-path="url(#p189b9a37bc)" d="M 90.216225 325.921635 
L 90.804336 325.921635 
L 90.804336 307.505466 
L 90.216225 307.505466 
z
" style="fill:#1f77b4;"/>
   </g>
   <g id="patch_51">
    <path clip-path="url(#p189b9a37bc)" d="M 90.951364 325.921635 
L 91.539476 325.921635 
L 91.539476 306.635647 
L 90.951364 306.635647 
z
" style="fill:#1f77b4;"/>
   </g>
   <g id="patch_52">
    <path clip-path="url(#p189b9a37bc)" d="M 91.686504 325.921635 
L 92.274615 325.921635 
L 92.274615 305.405903 
L 91.686504 305.405903 
z
" style="fill:#1f77b4;"/>
   </g>
   <g id="patch_53">
    <path clip-path="url(#p189b9a37bc)" d="M 92.421643 325.921635 
L 93.009754 325.921635 
L 93.009754 303.936209 
L 92.421643 303.936209 
z
" style="fill:#1f77b4;"/>
   </g>
   <g id="patch_54">
    <path clip-path="url(#p189b9a37bc)" d="M 93.156782 325.921635 
L 93.744893 325.921635 
L 93.744893 302.991405 
L 93.156782 302.991405 
z
" style="fill:#1f77b4;"/>
   </g>
   <g id="patch_55">
    <path clip-path="url(#p189b9a37bc)" d="M 93.891921 325.921635 
L 94.480033 325.921635 
L 94.480033 301.641686 
L 93.891921 301.641686 
z
" style="fill:#1f77b4;"/>
   </g>
   <g id="patch_56">
    <path clip-path="url(#p189b9a37bc)" d="M 94.627061 325.921635 
L 95.215172 325.921635 
L 95.215172 300.936833 
L 94.627061 300.936833 
z
" style="fill:#1f77b4;"/>
   </g>
   <g id="patch_57">
    <path clip-path="url(#p189b9a37bc)" d="M 95.3622 325.921635 
L 95.950311 325.921635 
L 95.950311 300.261973 
L 95.3622 300.261973 
z
" style="fill:#1f77b4;"/>
   </g>
   <g id="patch_58">
    <path clip-path="url(#p189b9a37bc)" d="M 96.097339 325.921635 
L 96.685451 325.921635 
L 96.685451 298.702298 
L 96.097339 298.702298 
z
" style="fill:#1f77b4;"/>
   </g>
   <g id="patch_59">
    <path clip-path="url(#p189b9a37bc)" d="M 96.832478 325.921635 
L 97.42059 325.921635 
L 97.42059 295.178031 
L 96.832478 295.178031 
z
" style="fill:#1f77b4;"/>
   </g>
   <g id="patch_60">
    <path clip-path="url(#p189b9a37bc)" d="M 97.567618 325.921635 
L 98.155729 325.921635 
L 98.155729 293.993277 
L 97.567618 293.993277 
z
" style="fill:#1f77b4;"/>
   </g>
   <g id="patch_61">
    <path clip-path="url(#p189b9a37bc)" d="M 98.302757 325.921635 
L 98.890868 325.921635 
L 98.890868 289.224269 
L 98.302757 289.224269 
z
" style="fill:#1f77b4;"/>
   </g>
   <g id="patch_62">
    <path clip-path="url(#p189b9a37bc)" d="M 99.037896 325.921635 
L 99.626008 325.921635 
L 99.626008 288.534413 
L 99.037896 288.534413 
z
" style="fill:#1f77b4;"/>
   </g>
   <g id="patch_63">
    <path clip-path="url(#p189b9a37bc)" d="M 99.773035 325.921635 
L 100.361147 325.921635 
L 100.361147 287.799566 
L 99.773035 287.799566 
z
" style="fill:#1f77b4;"/>
   </g>
   <g id="patch_64">
    <path clip-path="url(#p189b9a37bc)" d="M 100.508175 325.921635 
L 101.096286 325.921635 
L 101.096286 287.289672 
L 100.508175 287.289672 
z
" style="fill:#1f77b4;"/>
   </g>
   <g id="patch_65">
    <path clip-path="url(#p189b9a37bc)" d="M 101.243314 325.921635 
L 101.831425 325.921635 
L 101.831425 282.175736 
L 101.243314 282.175736 
z
" style="fill:#1f77b4;"/>
   </g>
   <g id="patch_66">
    <path clip-path="url(#p189b9a37bc)" d="M 101.978453 325.921635 
L 102.566565 325.921635 
L 102.566565 282.175736 
L 101.978453 282.175736 
z
" style="fill:#1f77b4;"/>
   </g>
   <g id="patch_67">
    <path clip-path="url(#p189b9a37bc)" d="M 102.713592 325.921635 
L 103.301704 325.921635 
L 103.301704 280.975985 
L 102.713592 280.975985 
z
" style="fill:#1f77b4;"/>
   </g>
   <g id="patch_68">
    <path clip-path="url(#p189b9a37bc)" d="M 103.448732 325.921635 
L 104.036843 325.921635 
L 104.036843 271.977857 
L 103.448732 271.977857 
z
" style="fill:#1f77b4;"/>
   </g>
   <g id="patch_69">
    <path clip-path="url(#p189b9a37bc)" d="M 104.183871 325.921635 
L 104.771982 325.921635 
L 104.771982 270.508163 
L 104.183871 270.508163 
z
" style="fill:#1f77b4;"/>
   </g>
   <g id="patch_70">
    <path clip-path="url(#p189b9a37bc)" d="M 104.91901 325.921635 
L 105.507122 325.921635 
L 105.507122 269.908288 
L 104.91901 269.908288 
z
" style="fill:#1f77b4;"/>
   </g>
   <g id="patch_71">
    <path clip-path="url(#p189b9a37bc)" d="M 105.65415 325.921635 
L 106.242261 325.921635 
L 106.242261 269.908288 
L 105.65415 269.908288 
z
" style="fill:#1f77b4;"/>
   </g>
   <g id="patch_72">
    <path clip-path="url(#p189b9a37bc)" d="M 106.389289 325.921635 
L 106.9774 325.921635 
L 106.9774 269.683334 
L 106.389289 269.683334 
z
" style="fill:#1f77b4;"/>
   </g>
   <g id="patch_73">
    <path clip-path="url(#p189b9a37bc)" d="M 107.124428 325.921635 
L 107.712539 325.921635 
L 107.712539 251.34215 
L 107.124428 251.34215 
z
" style="fill:#1f77b4;"/>
   </g>
   <g id="patch_74">
    <path clip-path="url(#p189b9a37bc)" d="M 107.859567 325.921635 
L 108.447679 325.921635 
L 108.447679 243.84371 
L 107.859567 243.84371 
z
" style="fill:#1f77b4;"/>
   </g>
   <g id="patch_75">
    <path clip-path="url(#p189b9a37bc)" d="M 108.594707 325.921635 
L 109.182818 325.921635 
L 109.182818 237.170098 
L 108.594707 237.170098 
z
" style="fill:#1f77b4;"/>
   </g>
   <g id="patch_76">
    <path clip-path="url(#p189b9a37bc)" d="M 109.329846 325.921635 
L 109.917957 325.921635 
L 109.917957 230.901402 
L 109.329846 230.901402 
z
" style="fill:#1f77b4;"/>
   </g>
   <g id="patch_77">
    <path clip-path="url(#p189b9a37bc)" d="M 110.064985 325.921635 
L 110.653097 325.921635 
L 110.653097 228.89182 
L 110.064985 228.89182 
z
" style="fill:#1f77b4;"/>
   </g>
   <g id="patch_78">
    <path clip-path="url(#p189b9a37bc)" d="M 110.800124 325.921635 
L 111.388236 325.921635 
L 111.388236 227.557098 
L 110.800124 227.557098 
z
" style="fill:#1f77b4;"/>
   </g>
   <g id="patch_79">
    <path clip-path="url(#p189b9a37bc)" d="M 111.535264 325.921635 
L 112.123375 325.921635 
L 112.123375 224.167803 
L 111.535264 224.167803 
z
" style="fill:#1f77b4;"/>
   </g>
   <g id="patch_80">
    <path clip-path="url(#p189b9a37bc)" d="M 112.270403 325.921635 
L 112.858514 325.921635 
L 112.858514 220.223624 
L 112.270403 220.223624 
z
" style="fill:#1f77b4;"/>
   </g>
   <g id="patch_81">
    <path clip-path="url(#p189b9a37bc)" d="M 113.005542 325.921635 
L 113.593654 325.921635 
L 113.593654 202.437324 
L 113.005542 202.437324 
z
" style="fill:#1f77b4;"/>
   </g>
   <g id="patch_82">
    <path clip-path="url(#p189b9a37bc)" d="M 113.740681 325.921635 
L 114.328793 325.921635 
L 114.328793 202.437324 
L 113.740681 202.437324 
z
" style="fill:#1f77b4;"/>
   </g>
   <g id="patch_83">
    <path clip-path="url(#p189b9a37bc)" d="M 114.475821 325.921635 
L 115.063932 325.921635 
L 115.063932 187.320469 
L 114.475821 187.320469 
z
" style="fill:#1f77b4;"/>
   </g>
   <g id="patch_84">
    <path clip-path="url(#p189b9a37bc)" d="M 115.21096 325.921635 
L 115.799071 325.921635 
L 115.799071 185.970749 
L 115.21096 185.970749 
z
" style="fill:#1f77b4;"/>
   </g>
   <g id="patch_85">
    <path clip-path="url(#p189b9a37bc)" d="M 115.946099 325.921635 
L 116.534211 325.921635 
L 116.534211 185.970749 
L 115.946099 185.970749 
z
" style="fill:#1f77b4;"/>
   </g>
   <g id="patch_86">
    <path clip-path="url(#p189b9a37bc)" d="M 116.681238 325.921635 
L 117.26935 325.921635 
L 117.26935 177.167581 
L 116.681238 177.167581 
z
" style="fill:#1f77b4;"/>
   </g>
   <g id="patch_87">
    <path clip-path="url(#p189b9a37bc)" d="M 117.416378 325.921635 
L 118.004489 325.921635 
L 118.004489 169.984075 
L 117.416378 169.984075 
z
" style="fill:#1f77b4;"/>
   </g>
   <g id="patch_88">
    <path clip-path="url(#p189b9a37bc)" d="M 118.151517 325.921635 
L 118.739628 325.921635 
L 118.739628 160.805984 
L 118.151517 160.805984 
z
" style="fill:#1f77b4;"/>
   </g>
   <g id="patch_89">
    <path clip-path="url(#p189b9a37bc)" d="M 118.886656 325.921635 
L 119.474768 325.921635 
L 119.474768 152.212772 
L 118.886656 152.212772 
z
" style="fill:#1f77b4;"/>
   </g>
   <g id="patch_90">
    <path clip-path="url(#p189b9a37bc)" d="M 119.621796 325.921635 
L 120.209907 325.921635 
L 120.209907 145.404189 
L 119.621796 145.404189 
z
" style="fill:#1f77b4;"/>
   </g>
   <g id="patch_91">
    <path clip-path="url(#p189b9a37bc)" d="M 120.356935 325.921635 
L 120.945046 325.921635 
L 120.945046 143.934494 
L 120.356935 143.934494 
z
" style="fill:#1f77b4;"/>
   </g>
   <g id="patch_92">
    <path clip-path="url(#p189b9a37bc)" d="M 121.092074 325.921635 
L 121.680185 325.921635 
L 121.680185 142.209853 
L 121.092074 142.209853 
z
" style="fill:#1f77b4;"/>
   </g>
   <g id="patch_93">
    <path clip-path="url(#p189b9a37bc)" d="M 121.827213 325.921635 
L 122.415325 325.921635 
L 122.415325 133.931575 
L 121.827213 133.931575 
z
" style="fill:#1f77b4;"/>
   </g>
   <g id="patch_94">
    <path clip-path="url(#p189b9a37bc)" d="M 122.562353 325.921635 
L 123.150464 325.921635 
L 123.150464 121.679124 
L 122.562353 121.679124 
z
" style="fill:#1f77b4;"/>
   </g>
   <g id="patch_95">
    <path clip-path="url(#p189b9a37bc)" d="M 123.297492 325.921635 
L 123.885603 325.921635 
L 123.885603 113.445837 
L 123.297492 113.445837 
z
" style="fill:#1f77b4;"/>
   </g>
   <g id="patch_96">
    <path clip-path="url(#p189b9a37bc)" d="M 124.032631 325.921635 
L 124.620743 325.921635 
L 124.620743 110.206511 
L 124.032631 110.206511 
z
" style="fill:#1f77b4;"/>
   </g>
   <g id="patch_97">
    <path clip-path="url(#p189b9a37bc)" d="M 124.76777 325.921635 
L 125.355882 325.921635 
L 125.355882 106.562269 
L 124.76777 106.562269 
z
" style="fill:#1f77b4;"/>
   </g>
   <g id="patch_98">
    <path clip-path="url(#p189b9a37bc)" d="M 125.50291 325.921635 
L 126.091021 325.921635 
L 126.091021 106.052375 
L 125.50291 106.052375 
z
" style="fill:#1f77b4;"/>
   </g>
   <g id="patch_99">
    <path clip-path="url(#p189b9a37bc)" d="M 126.238049 325.921635 
L 126.82616 325.921635 
L 126.82616 94.399799 
L 126.238049 94.399799 
z
" style="fill:#1f77b4;"/>
   </g>
   <g id="patch_100">
    <path clip-path="url(#p189b9a37bc)" d="M 126.973188 325.921635 
L 127.5613 325.921635 
L 127.5613 78.908022 
L 126.973188 78.908022 
z
" style="fill:#1f77b4;"/>
   </g>
   <g id="patch_101">
    <path clip-path="url(#p189b9a37bc)" d="M 127.708327 325.921635 
L 128.296439 325.921635 
L 128.296439 69.055072 
L 127.708327 69.055072 
z
" style="fill:#1f77b4;"/>
   </g>
   <g id="patch_102">
    <path clip-path="url(#p189b9a37bc)" d="M 128.443467 325.921635 
L 129.031578 325.921635 
L 129.031578 58.647237 
L 128.443467 58.647237 
z
" style="fill:#1f77b4;"/>
   </g>
   <g id="patch_103">
    <path clip-path="url(#p189b9a37bc)" d="M 129.178606 325.921635 
L 129.766717 325.921635 
L 129.766717 47.174624 
L 129.178606 47.174624 
z
" style="fill:#1f77b4;"/>
   </g>
   <g id="patch_104">
    <path clip-path="url(#p189b9a37bc)" d="M 129.913745 325.921635 
L 130.501857 325.921635 
L 130.501857 38.911343 
L 129.913745 38.911343 
z
" style="fill:#1f77b4;"/>
   </g>
   <g id="patch_105">
    <path clip-path="url(#p189b9a37bc)" d="M 130.648884 325.921635 
L 131.236996 325.921635 
L 131.236996 35.761998 
L 130.648884 35.761998 
z
" style="fill:#1f77b4;"/>
   </g>
   <g id="matplotlib.axis_1">
    <g id="xtick_1">
     <g id="line2d_1">
      <defs>
       <path d="M 0 0 
L 0 3.5 
" id="ma03cea8b11" style="stroke:#000000;stroke-width:0.8;"/>
      </defs>
      <g>
       <use style="stroke:#000000;stroke-width:0.8;" x="55.958735" xlink:href="#ma03cea8b11" y="325.921635"/>
      </g>
     </g>
     <g id="text_1">
      <!-- 0 -->
      <defs>
       <path d="M 31.78125 66.40625 
Q 24.171875 66.40625 20.328125 58.90625 
Q 16.5 51.421875 16.5 36.375 
Q 16.5 21.390625 20.328125 13.890625 
Q 24.171875 6.390625 31.78125 6.390625 
Q 39.453125 6.390625 43.28125 13.890625 
Q 47.125 21.390625 47.125 36.375 
Q 47.125 51.421875 43.28125 58.90625 
Q 39.453125 66.40625 31.78125 66.40625 
z
M 31.78125 74.21875 
Q 44.046875 74.21875 50.515625 64.515625 
Q 56.984375 54.828125 56.984375 36.375 
Q 56.984375 17.96875 50.515625 8.265625 
Q 44.046875 -1.421875 31.78125 -1.421875 
Q 19.53125 -1.421875 13.0625 8.265625 
Q 6.59375 17.96875 6.59375 36.375 
Q 6.59375 54.828125 13.0625 64.515625 
Q 19.53125 74.21875 31.78125 74.21875 
z
" id="DejaVuSans-48"/>
      </defs>
      <g transform="translate(52.777485 340.520072)scale(0.1 -0.1)">
       <use xlink:href="#DejaVuSans-48"/>
      </g>
     </g>
    </g>
    <g id="xtick_2">
     <g id="line2d_2">
      <g>
       <use style="stroke:#000000;stroke-width:0.8;" x="129.472662" xlink:href="#ma03cea8b11" y="325.921635"/>
      </g>
     </g>
     <g id="text_2">
      <!-- 100 -->
      <defs>
       <path d="M 12.40625 8.296875 
L 28.515625 8.296875 
L 28.515625 63.921875 
L 10.984375 60.40625 
L 10.984375 69.390625 
L 28.421875 72.90625 
L 38.28125 72.90625 
L 38.28125 8.296875 
L 54.390625 8.296875 
L 54.390625 0 
L 12.40625 0 
z
" id="DejaVuSans-49"/>
      </defs>
      <g transform="translate(119.928912 340.520072)scale(0.1 -0.1)">
       <use xlink:href="#DejaVuSans-49"/>
       <use x="63.623047" xlink:href="#DejaVuSans-48"/>
       <use x="127.246094" xlink:href="#DejaVuSans-48"/>
      </g>
     </g>
    </g>
   </g>
   <g id="matplotlib.axis_2">
    <g id="ytick_1">
     <g id="line2d_3">
      <defs>
       <path d="M 0 0 
L -3.5 0 
" id="m6511000c4a" style="stroke:#000000;stroke-width:0.8;"/>
      </defs>
      <g>
       <use style="stroke:#000000;stroke-width:0.8;" x="51.886064" xlink:href="#m6511000c4a" y="325.921635"/>
      </g>
     </g>
     <g id="text_3">
      <!-- 0 -->
      <g transform="translate(38.523564 329.720854)scale(0.1 -0.1)">
       <use xlink:href="#DejaVuSans-48"/>
      </g>
     </g>
    </g>
    <g id="ytick_2">
     <g id="line2d_4">
      <g>
       <use style="stroke:#000000;stroke-width:0.8;" x="51.886064" xlink:href="#m6511000c4a" y="288.429435"/>
      </g>
     </g>
     <g id="text_4">
      <!-- 2500 -->
      <defs>
       <path d="M 19.1875 8.296875 
L 53.609375 8.296875 
L 53.609375 0 
L 7.328125 0 
L 7.328125 8.296875 
Q 12.9375 14.109375 22.625 23.890625 
Q 32.328125 33.6875 34.8125 36.53125 
Q 39.546875 41.84375 41.421875 45.53125 
Q 43.3125 49.21875 43.3125 52.78125 
Q 43.3125 58.59375 39.234375 62.25 
Q 35.15625 65.921875 28.609375 65.921875 
Q 23.96875 65.921875 18.8125 64.3125 
Q 13.671875 62.703125 7.8125 59.421875 
L 7.8125 69.390625 
Q 13.765625 71.78125 18.9375 73 
Q 24.125 74.21875 28.421875 74.21875 
Q 39.75 74.21875 46.484375 68.546875 
Q 53.21875 62.890625 53.21875 53.421875 
Q 53.21875 48.921875 51.53125 44.890625 
Q 49.859375 40.875 45.40625 35.40625 
Q 44.1875 33.984375 37.640625 27.21875 
Q 31.109375 20.453125 19.1875 8.296875 
z
" id="DejaVuSans-50"/>
       <path d="M 10.796875 72.90625 
L 49.515625 72.90625 
L 49.515625 64.59375 
L 19.828125 64.59375 
L 19.828125 46.734375 
Q 21.96875 47.46875 24.109375 47.828125 
Q 26.265625 48.1875 28.421875 48.1875 
Q 40.625 48.1875 47.75 41.5 
Q 54.890625 34.8125 54.890625 23.390625 
Q 54.890625 11.625 47.5625 5.09375 
Q 40.234375 -1.421875 26.90625 -1.421875 
Q 22.3125 -1.421875 17.546875 -0.640625 
Q 12.796875 0.140625 7.71875 1.703125 
L 7.71875 11.625 
Q 12.109375 9.234375 16.796875 8.0625 
Q 21.484375 6.890625 26.703125 6.890625 
Q 35.15625 6.890625 40.078125 11.328125 
Q 45.015625 15.765625 45.015625 23.390625 
Q 45.015625 31 40.078125 35.4375 
Q 35.15625 39.890625 26.703125 39.890625 
Q 22.75 39.890625 18.8125 39.015625 
Q 14.890625 38.140625 10.796875 36.28125 
z
" id="DejaVuSans-53"/>
      </defs>
      <g transform="translate(19.436064 292.228653)scale(0.1 -0.1)">
       <use xlink:href="#DejaVuSans-50"/>
       <use x="63.623047" xlink:href="#DejaVuSans-53"/>
       <use x="127.246094" xlink:href="#DejaVuSans-48"/>
       <use x="190.869141" xlink:href="#DejaVuSans-48"/>
      </g>
     </g>
    </g>
    <g id="ytick_3">
     <g id="line2d_5">
      <g>
       <use style="stroke:#000000;stroke-width:0.8;" x="51.886064" xlink:href="#m6511000c4a" y="250.937234"/>
      </g>
     </g>
     <g id="text_5">
      <!-- 5000 -->
      <g transform="translate(19.436064 254.736453)scale(0.1 -0.1)">
       <use xlink:href="#DejaVuSans-53"/>
       <use x="63.623047" xlink:href="#DejaVuSans-48"/>
       <use x="127.246094" xlink:href="#DejaVuSans-48"/>
       <use x="190.869141" xlink:href="#DejaVuSans-48"/>
      </g>
     </g>
    </g>
    <g id="ytick_4">
     <g id="line2d_6">
      <g>
       <use style="stroke:#000000;stroke-width:0.8;" x="51.886064" xlink:href="#m6511000c4a" y="213.445034"/>
      </g>
     </g>
     <g id="text_6">
      <!-- 7500 -->
      <defs>
       <path d="M 8.203125 72.90625 
L 55.078125 72.90625 
L 55.078125 68.703125 
L 28.609375 0 
L 18.3125 0 
L 43.21875 64.59375 
L 8.203125 64.59375 
z
" id="DejaVuSans-55"/>
      </defs>
      <g transform="translate(19.436064 217.244253)scale(0.1 -0.1)">
       <use xlink:href="#DejaVuSans-55"/>
       <use x="63.623047" xlink:href="#DejaVuSans-53"/>
       <use x="127.246094" xlink:href="#DejaVuSans-48"/>
       <use x="190.869141" xlink:href="#DejaVuSans-48"/>
      </g>
     </g>
    </g>
    <g id="ytick_5">
     <g id="line2d_7">
      <g>
       <use style="stroke:#000000;stroke-width:0.8;" x="51.886064" xlink:href="#m6511000c4a" y="175.952833"/>
      </g>
     </g>
     <g id="text_7">
      <!-- 10000 -->
      <g transform="translate(13.073564 179.752052)scale(0.1 -0.1)">
       <use xlink:href="#DejaVuSans-49"/>
       <use x="63.623047" xlink:href="#DejaVuSans-48"/>
       <use x="127.246094" xlink:href="#DejaVuSans-48"/>
       <use x="190.869141" xlink:href="#DejaVuSans-48"/>
       <use x="254.492188" xlink:href="#DejaVuSans-48"/>
      </g>
     </g>
    </g>
    <g id="ytick_6">
     <g id="line2d_8">
      <g>
       <use style="stroke:#000000;stroke-width:0.8;" x="51.886064" xlink:href="#m6511000c4a" y="138.460633"/>
      </g>
     </g>
     <g id="text_8">
      <!-- 12500 -->
      <g transform="translate(13.073564 142.259852)scale(0.1 -0.1)">
       <use xlink:href="#DejaVuSans-49"/>
       <use x="63.623047" xlink:href="#DejaVuSans-50"/>
       <use x="127.246094" xlink:href="#DejaVuSans-53"/>
       <use x="190.869141" xlink:href="#DejaVuSans-48"/>
       <use x="254.492188" xlink:href="#DejaVuSans-48"/>
      </g>
     </g>
    </g>
    <g id="ytick_7">
     <g id="line2d_9">
      <g>
       <use style="stroke:#000000;stroke-width:0.8;" x="51.886064" xlink:href="#m6511000c4a" y="100.968433"/>
      </g>
     </g>
     <g id="text_9">
      <!-- 15000 -->
      <g transform="translate(13.073564 104.767651)scale(0.1 -0.1)">
       <use xlink:href="#DejaVuSans-49"/>
       <use x="63.623047" xlink:href="#DejaVuSans-53"/>
       <use x="127.246094" xlink:href="#DejaVuSans-48"/>
       <use x="190.869141" xlink:href="#DejaVuSans-48"/>
       <use x="254.492188" xlink:href="#DejaVuSans-48"/>
      </g>
     </g>
    </g>
    <g id="ytick_8">
     <g id="line2d_10">
      <g>
       <use style="stroke:#000000;stroke-width:0.8;" x="51.886064" xlink:href="#m6511000c4a" y="63.476232"/>
      </g>
     </g>
     <g id="text_10">
      <!-- 17500 -->
      <g transform="translate(13.073564 67.275451)scale(0.1 -0.1)">
       <use xlink:href="#DejaVuSans-49"/>
       <use x="63.623047" xlink:href="#DejaVuSans-55"/>
       <use x="127.246094" xlink:href="#DejaVuSans-53"/>
       <use x="190.869141" xlink:href="#DejaVuSans-48"/>
       <use x="254.492188" xlink:href="#DejaVuSans-48"/>
      </g>
     </g>
    </g>
    <g id="ytick_9">
     <g id="line2d_11">
      <g>
       <use style="stroke:#000000;stroke-width:0.8;" x="51.886064" xlink:href="#m6511000c4a" y="25.984032"/>
      </g>
     </g>
     <g id="text_11">
      <!-- 20000 -->
      <g transform="translate(13.073564 29.783251)scale(0.1 -0.1)">
       <use xlink:href="#DejaVuSans-50"/>
       <use x="63.623047" xlink:href="#DejaVuSans-48"/>
       <use x="127.246094" xlink:href="#DejaVuSans-48"/>
       <use x="190.869141" xlink:href="#DejaVuSans-48"/>
       <use x="254.492188" xlink:href="#DejaVuSans-48"/>
      </g>
     </g>
    </g>
   </g>
   <g id="line2d_12">
    <path clip-path="url(#p189b9a37bc)" d="M 55.958735 325.856113 
L 56.693875 325.833509 
L 57.429014 325.800754 
L 58.164153 325.755851 
L 58.899292 325.695751 
L 59.634432 325.617488 
L 60.369571 325.518293 
L 61.10471 325.39572 
L 61.839849 325.2477 
L 62.574989 325.072653 
L 63.310128 324.870136 
L 64.045267 324.640816 
L 64.780406 324.385626 
L 65.515546 324.105982 
L 66.250685 323.803246 
L 66.985824 323.479024 
L 67.720964 323.134951 
L 68.456103 322.771528 
L 69.191242 322.388767 
L 69.926381 321.987006 
L 70.661521 321.566237 
L 71.39666 321.127405 
L 72.131799 320.67189 
L 72.866938 320.201759 
L 73.602078 319.721153 
L 74.337217 319.234894 
L 75.072356 318.747786 
L 75.807495 318.265144 
L 76.542635 317.790778 
L 77.277774 317.327536 
L 78.012913 316.877242 
L 78.748052 316.439135 
L 79.483192 316.010702 
L 80.218331 315.588379 
L 80.95347 315.16721 
L 81.68861 314.742413 
L 82.423749 314.308503 
L 83.158888 313.858472 
L 83.894027 313.385111 
L 84.629167 312.881532 
L 85.364306 312.340402 
L 86.099445 311.754811 
L 86.834584 311.118115 
L 87.569724 310.424898 
L 88.304863 309.671725 
L 89.040002 308.856866 
L 89.775141 307.977809 
L 90.510281 307.032612 
L 91.24542 306.018639 
L 91.980559 304.931955 
L 92.715699 303.765771 
L 93.450838 302.513423 
L 94.185977 301.167738 
L 94.921116 299.724415 
L 95.656256 298.179874 
L 96.391395 296.532078 
L 97.126534 294.781029 
L 97.861673 292.934645 
L 98.596813 290.994251 
L 99.331952 288.952495 
L 100.067091 286.7948 
L 100.80223 284.499502 
L 101.53737 282.036922 
L 102.272509 279.368265 
L 103.007648 276.434042 
L 103.742787 273.188345 
L 104.477927 269.602291 
L 105.213066 265.660211 
L 105.948205 261.360703 
L 106.683345 256.718859 
L 107.418484 251.769052 
L 108.153623 246.574223 
L 108.888762 241.18216 
L 109.623902 235.634077 
L 110.359041 229.957355 
L 111.09418 224.174393 
L 111.829319 218.299913 
L 112.564459 212.336695 
L 113.299598 206.276569 
L 114.034737 200.127979 
L 114.769876 193.895392 
L 115.505016 187.599632 
L 116.240155 181.259761 
L 116.975294 174.895044 
L 117.710433 168.525187 
L 118.445573 162.161231 
L 119.180712 155.802848 
L 119.915851 149.451285 
L 120.650991 143.085737 
L 121.38613 136.671532 
L 122.121269 130.157408 
L 122.856408 123.485283 
L 123.591548 116.605188 
L 124.326687 109.470077 
L 125.061826 102.030338 
L 125.796965 94.257357 
L 126.532105 86.152577 
L 127.267244 77.741326 
L 128.002383 69.065884 
L 128.737522 60.174945 
L 129.472662 51.133987 
L 130.207801 41.986615 
L 130.94294 32.775664 
" style="fill:none;stroke:#ff0000;stroke-linecap:square;stroke-width:1.5;"/>
   </g>
   <g id="patch_106">
    <path d="M 51.886064 325.921635 
L 51.886064 18.118365 
" style="fill:none;stroke:#000000;stroke-linecap:square;stroke-linejoin:miter;stroke-width:0.8;"/>
   </g>
   <g id="patch_107">
    <path d="M 135.015612 325.921635 
L 135.015612 18.118365 
" style="fill:none;stroke:#000000;stroke-linecap:square;stroke-linejoin:miter;stroke-width:0.8;"/>
   </g>
   <g id="patch_108">
    <path d="M 51.886064 325.921635 
L 135.015612 325.921635 
" style="fill:none;stroke:#000000;stroke-linecap:square;stroke-linejoin:miter;stroke-width:0.8;"/>
   </g>
   <g id="patch_109">
    <path d="M 51.886064 18.118365 
L 135.015612 18.118365 
" style="fill:none;stroke:#000000;stroke-linecap:square;stroke-linejoin:miter;stroke-width:0.8;"/>
   </g>
   <g id="text_12">
    <!-- Casos acumulados - RS - (data) -->
    <defs>
     <path d="M 64.40625 67.28125 
L 64.40625 56.890625 
Q 59.421875 61.53125 53.78125 63.8125 
Q 48.140625 66.109375 41.796875 66.109375 
Q 29.296875 66.109375 22.65625 58.46875 
Q 16.015625 50.828125 16.015625 36.375 
Q 16.015625 21.96875 22.65625 14.328125 
Q 29.296875 6.6875 41.796875 6.6875 
Q 48.140625 6.6875 53.78125 8.984375 
Q 59.421875 11.28125 64.40625 15.921875 
L 64.40625 5.609375 
Q 59.234375 2.09375 53.4375 0.328125 
Q 47.65625 -1.421875 41.21875 -1.421875 
Q 24.65625 -1.421875 15.125 8.703125 
Q 5.609375 18.84375 5.609375 36.375 
Q 5.609375 53.953125 15.125 64.078125 
Q 24.65625 74.21875 41.21875 74.21875 
Q 47.75 74.21875 53.53125 72.484375 
Q 59.328125 70.75 64.40625 67.28125 
z
" id="DejaVuSans-67"/>
     <path d="M 34.28125 27.484375 
Q 23.390625 27.484375 19.1875 25 
Q 14.984375 22.515625 14.984375 16.5 
Q 14.984375 11.71875 18.140625 8.90625 
Q 21.296875 6.109375 26.703125 6.109375 
Q 34.1875 6.109375 38.703125 11.40625 
Q 43.21875 16.703125 43.21875 25.484375 
L 43.21875 27.484375 
z
M 52.203125 31.203125 
L 52.203125 0 
L 43.21875 0 
L 43.21875 8.296875 
Q 40.140625 3.328125 35.546875 0.953125 
Q 30.953125 -1.421875 24.3125 -1.421875 
Q 15.921875 -1.421875 10.953125 3.296875 
Q 6 8.015625 6 15.921875 
Q 6 25.140625 12.171875 29.828125 
Q 18.359375 34.515625 30.609375 34.515625 
L 43.21875 34.515625 
L 43.21875 35.40625 
Q 43.21875 41.609375 39.140625 45 
Q 35.0625 48.390625 27.6875 48.390625 
Q 23 48.390625 18.546875 47.265625 
Q 14.109375 46.140625 10.015625 43.890625 
L 10.015625 52.203125 
Q 14.9375 54.109375 19.578125 55.046875 
Q 24.21875 56 28.609375 56 
Q 40.484375 56 46.34375 49.84375 
Q 52.203125 43.703125 52.203125 31.203125 
z
" id="DejaVuSans-97"/>
     <path d="M 44.28125 53.078125 
L 44.28125 44.578125 
Q 40.484375 46.53125 36.375 47.5 
Q 32.28125 48.484375 27.875 48.484375 
Q 21.1875 48.484375 17.84375 46.4375 
Q 14.5 44.390625 14.5 40.28125 
Q 14.5 37.15625 16.890625 35.375 
Q 19.28125 33.59375 26.515625 31.984375 
L 29.59375 31.296875 
Q 39.15625 29.25 43.1875 25.515625 
Q 47.21875 21.78125 47.21875 15.09375 
Q 47.21875 7.46875 41.1875 3.015625 
Q 35.15625 -1.421875 24.609375 -1.421875 
Q 20.21875 -1.421875 15.453125 -0.5625 
Q 10.6875 0.296875 5.421875 2 
L 5.421875 11.28125 
Q 10.40625 8.6875 15.234375 7.390625 
Q 20.0625 6.109375 24.8125 6.109375 
Q 31.15625 6.109375 34.5625 8.28125 
Q 37.984375 10.453125 37.984375 14.40625 
Q 37.984375 18.0625 35.515625 20.015625 
Q 33.0625 21.96875 24.703125 23.78125 
L 21.578125 24.515625 
Q 13.234375 26.265625 9.515625 29.90625 
Q 5.8125 33.546875 5.8125 39.890625 
Q 5.8125 47.609375 11.28125 51.796875 
Q 16.75 56 26.8125 56 
Q 31.78125 56 36.171875 55.265625 
Q 40.578125 54.546875 44.28125 53.078125 
z
" id="DejaVuSans-115"/>
     <path d="M 30.609375 48.390625 
Q 23.390625 48.390625 19.1875 42.75 
Q 14.984375 37.109375 14.984375 27.296875 
Q 14.984375 17.484375 19.15625 11.84375 
Q 23.34375 6.203125 30.609375 6.203125 
Q 37.796875 6.203125 41.984375 11.859375 
Q 46.1875 17.53125 46.1875 27.296875 
Q 46.1875 37.015625 41.984375 42.703125 
Q 37.796875 48.390625 30.609375 48.390625 
z
M 30.609375 56 
Q 42.328125 56 49.015625 48.375 
Q 55.71875 40.765625 55.71875 27.296875 
Q 55.71875 13.875 49.015625 6.21875 
Q 42.328125 -1.421875 30.609375 -1.421875 
Q 18.84375 -1.421875 12.171875 6.21875 
Q 5.515625 13.875 5.515625 27.296875 
Q 5.515625 40.765625 12.171875 48.375 
Q 18.84375 56 30.609375 56 
z
" id="DejaVuSans-111"/>
     <path id="DejaVuSans-32"/>
     <path d="M 48.78125 52.59375 
L 48.78125 44.1875 
Q 44.96875 46.296875 41.140625 47.34375 
Q 37.3125 48.390625 33.40625 48.390625 
Q 24.65625 48.390625 19.8125 42.84375 
Q 14.984375 37.3125 14.984375 27.296875 
Q 14.984375 17.28125 19.8125 11.734375 
Q 24.65625 6.203125 33.40625 6.203125 
Q 37.3125 6.203125 41.140625 7.25 
Q 44.96875 8.296875 48.78125 10.40625 
L 48.78125 2.09375 
Q 45.015625 0.34375 40.984375 -0.53125 
Q 36.96875 -1.421875 32.421875 -1.421875 
Q 20.0625 -1.421875 12.78125 6.34375 
Q 5.515625 14.109375 5.515625 27.296875 
Q 5.515625 40.671875 12.859375 48.328125 
Q 20.21875 56 33.015625 56 
Q 37.15625 56 41.109375 55.140625 
Q 45.0625 54.296875 48.78125 52.59375 
z
" id="DejaVuSans-99"/>
     <path d="M 8.5 21.578125 
L 8.5 54.6875 
L 17.484375 54.6875 
L 17.484375 21.921875 
Q 17.484375 14.15625 20.5 10.265625 
Q 23.53125 6.390625 29.59375 6.390625 
Q 36.859375 6.390625 41.078125 11.03125 
Q 45.3125 15.671875 45.3125 23.6875 
L 45.3125 54.6875 
L 54.296875 54.6875 
L 54.296875 0 
L 45.3125 0 
L 45.3125 8.40625 
Q 42.046875 3.421875 37.71875 1 
Q 33.40625 -1.421875 27.6875 -1.421875 
Q 18.265625 -1.421875 13.375 4.4375 
Q 8.5 10.296875 8.5 21.578125 
z
M 31.109375 56 
z
" id="DejaVuSans-117"/>
     <path d="M 52 44.1875 
Q 55.375 50.25 60.0625 53.125 
Q 64.75 56 71.09375 56 
Q 79.640625 56 84.28125 50.015625 
Q 88.921875 44.046875 88.921875 33.015625 
L 88.921875 0 
L 79.890625 0 
L 79.890625 32.71875 
Q 79.890625 40.578125 77.09375 44.375 
Q 74.3125 48.1875 68.609375 48.1875 
Q 61.625 48.1875 57.5625 43.546875 
Q 53.515625 38.921875 53.515625 30.90625 
L 53.515625 0 
L 44.484375 0 
L 44.484375 32.71875 
Q 44.484375 40.625 41.703125 44.40625 
Q 38.921875 48.1875 33.109375 48.1875 
Q 26.21875 48.1875 22.15625 43.53125 
Q 18.109375 38.875 18.109375 30.90625 
L 18.109375 0 
L 9.078125 0 
L 9.078125 54.6875 
L 18.109375 54.6875 
L 18.109375 46.1875 
Q 21.1875 51.21875 25.484375 53.609375 
Q 29.78125 56 35.6875 56 
Q 41.65625 56 45.828125 52.96875 
Q 50 49.953125 52 44.1875 
z
" id="DejaVuSans-109"/>
     <path d="M 9.421875 75.984375 
L 18.40625 75.984375 
L 18.40625 0 
L 9.421875 0 
z
" id="DejaVuSans-108"/>
     <path d="M 45.40625 46.390625 
L 45.40625 75.984375 
L 54.390625 75.984375 
L 54.390625 0 
L 45.40625 0 
L 45.40625 8.203125 
Q 42.578125 3.328125 38.25 0.953125 
Q 33.9375 -1.421875 27.875 -1.421875 
Q 17.96875 -1.421875 11.734375 6.484375 
Q 5.515625 14.40625 5.515625 27.296875 
Q 5.515625 40.1875 11.734375 48.09375 
Q 17.96875 56 27.875 56 
Q 33.9375 56 38.25 53.625 
Q 42.578125 51.265625 45.40625 46.390625 
z
M 14.796875 27.296875 
Q 14.796875 17.390625 18.875 11.75 
Q 22.953125 6.109375 30.078125 6.109375 
Q 37.203125 6.109375 41.296875 11.75 
Q 45.40625 17.390625 45.40625 27.296875 
Q 45.40625 37.203125 41.296875 42.84375 
Q 37.203125 48.484375 30.078125 48.484375 
Q 22.953125 48.484375 18.875 42.84375 
Q 14.796875 37.203125 14.796875 27.296875 
z
" id="DejaVuSans-100"/>
     <path d="M 4.890625 31.390625 
L 31.203125 31.390625 
L 31.203125 23.390625 
L 4.890625 23.390625 
z
" id="DejaVuSans-45"/>
     <path d="M 44.390625 34.1875 
Q 47.5625 33.109375 50.5625 29.59375 
Q 53.5625 26.078125 56.59375 19.921875 
L 66.609375 0 
L 56 0 
L 46.6875 18.703125 
Q 43.0625 26.03125 39.671875 28.421875 
Q 36.28125 30.8125 30.421875 30.8125 
L 19.671875 30.8125 
L 19.671875 0 
L 9.8125 0 
L 9.8125 72.90625 
L 32.078125 72.90625 
Q 44.578125 72.90625 50.734375 67.671875 
Q 56.890625 62.453125 56.890625 51.90625 
Q 56.890625 45.015625 53.6875 40.46875 
Q 50.484375 35.9375 44.390625 34.1875 
z
M 19.671875 64.796875 
L 19.671875 38.921875 
L 32.078125 38.921875 
Q 39.203125 38.921875 42.84375 42.21875 
Q 46.484375 45.515625 46.484375 51.90625 
Q 46.484375 58.296875 42.84375 61.546875 
Q 39.203125 64.796875 32.078125 64.796875 
z
" id="DejaVuSans-82"/>
     <path d="M 53.515625 70.515625 
L 53.515625 60.890625 
Q 47.90625 63.578125 42.921875 64.890625 
Q 37.9375 66.21875 33.296875 66.21875 
Q 25.25 66.21875 20.875 63.09375 
Q 16.5 59.96875 16.5 54.203125 
Q 16.5 49.359375 19.40625 46.890625 
Q 22.3125 44.4375 30.421875 42.921875 
L 36.375 41.703125 
Q 47.40625 39.59375 52.65625 34.296875 
Q 57.90625 29 57.90625 20.125 
Q 57.90625 9.515625 50.796875 4.046875 
Q 43.703125 -1.421875 29.984375 -1.421875 
Q 24.8125 -1.421875 18.96875 -0.25 
Q 13.140625 0.921875 6.890625 3.21875 
L 6.890625 13.375 
Q 12.890625 10.015625 18.65625 8.296875 
Q 24.421875 6.59375 29.984375 6.59375 
Q 38.421875 6.59375 43.015625 9.90625 
Q 47.609375 13.234375 47.609375 19.390625 
Q 47.609375 24.75 44.3125 27.78125 
Q 41.015625 30.8125 33.5 32.328125 
L 27.484375 33.5 
Q 16.453125 35.6875 11.515625 40.375 
Q 6.59375 45.0625 6.59375 53.421875 
Q 6.59375 63.09375 13.40625 68.65625 
Q 20.21875 74.21875 32.171875 74.21875 
Q 37.3125 74.21875 42.625 73.28125 
Q 47.953125 72.359375 53.515625 70.515625 
z
" id="DejaVuSans-83"/>
     <path d="M 31 75.875 
Q 24.46875 64.65625 21.28125 53.65625 
Q 18.109375 42.671875 18.109375 31.390625 
Q 18.109375 20.125 21.3125 9.0625 
Q 24.515625 -2 31 -13.1875 
L 23.1875 -13.1875 
Q 15.875 -1.703125 12.234375 9.375 
Q 8.59375 20.453125 8.59375 31.390625 
Q 8.59375 42.28125 12.203125 53.3125 
Q 15.828125 64.359375 23.1875 75.875 
z
" id="DejaVuSans-40"/>
     <path d="M 18.3125 70.21875 
L 18.3125 54.6875 
L 36.8125 54.6875 
L 36.8125 47.703125 
L 18.3125 47.703125 
L 18.3125 18.015625 
Q 18.3125 11.328125 20.140625 9.421875 
Q 21.96875 7.515625 27.59375 7.515625 
L 36.8125 7.515625 
L 36.8125 0 
L 27.59375 0 
Q 17.1875 0 13.234375 3.875 
Q 9.28125 7.765625 9.28125 18.015625 
L 9.28125 47.703125 
L 2.6875 47.703125 
L 2.6875 54.6875 
L 9.28125 54.6875 
L 9.28125 70.21875 
z
" id="DejaVuSans-116"/>
     <path d="M 8.015625 75.875 
L 15.828125 75.875 
Q 23.140625 64.359375 26.78125 53.3125 
Q 30.421875 42.28125 30.421875 31.390625 
Q 30.421875 20.453125 26.78125 9.375 
Q 23.140625 -1.703125 15.828125 -13.1875 
L 8.015625 -13.1875 
Q 14.5 -2 17.703125 9.0625 
Q 20.90625 20.125 20.90625 31.390625 
Q 20.90625 42.671875 17.703125 53.65625 
Q 14.5 64.65625 8.015625 75.875 
z
" id="DejaVuSans-41"/>
    </defs>
    <g transform="translate(-0.751975 12.118365)scale(0.12 -0.12)">
     <use xlink:href="#DejaVuSans-67"/>
     <use x="69.824219" xlink:href="#DejaVuSans-97"/>
     <use x="131.103516" xlink:href="#DejaVuSans-115"/>
     <use x="183.203125" xlink:href="#DejaVuSans-111"/>
     <use x="244.384766" xlink:href="#DejaVuSans-115"/>
     <use x="296.484375" xlink:href="#DejaVuSans-32"/>
     <use x="328.271484" xlink:href="#DejaVuSans-97"/>
     <use x="389.550781" xlink:href="#DejaVuSans-99"/>
     <use x="444.53125" xlink:href="#DejaVuSans-117"/>
     <use x="507.910156" xlink:href="#DejaVuSans-109"/>
     <use x="605.322266" xlink:href="#DejaVuSans-117"/>
     <use x="668.701172" xlink:href="#DejaVuSans-108"/>
     <use x="696.484375" xlink:href="#DejaVuSans-97"/>
     <use x="757.763672" xlink:href="#DejaVuSans-100"/>
     <use x="821.240234" xlink:href="#DejaVuSans-111"/>
     <use x="882.421875" xlink:href="#DejaVuSans-115"/>
     <use x="934.521484" xlink:href="#DejaVuSans-32"/>
     <use x="966.308594" xlink:href="#DejaVuSans-45"/>
     <use x="1002.392578" xlink:href="#DejaVuSans-32"/>
     <use x="1034.179688" xlink:href="#DejaVuSans-82"/>
     <use x="1103.662109" xlink:href="#DejaVuSans-83"/>
     <use x="1167.138672" xlink:href="#DejaVuSans-32"/>
     <use x="1198.925781" xlink:href="#DejaVuSans-45"/>
     <use x="1235.009766" xlink:href="#DejaVuSans-32"/>
     <use x="1266.796875" xlink:href="#DejaVuSans-40"/>
     <use x="1305.810547" xlink:href="#DejaVuSans-100"/>
     <use x="1369.287109" xlink:href="#DejaVuSans-97"/>
     <use x="1430.566406" xlink:href="#DejaVuSans-116"/>
     <use x="1469.775391" xlink:href="#DejaVuSans-97"/>
     <use x="1531.054688" xlink:href="#DejaVuSans-41"/>
    </g>
   </g>
  </g>
  <g id="axes_2">
   <g id="patch_110">
    <path d="M 225.423916 325.921635 
L 308.553463 325.921635 
L 308.553463 18.118365 
L 225.423916 18.118365 
z
" style="fill:#ffffff;"/>
   </g>
   <g id="patch_111">
    <path clip-path="url(#pe3dee3e87c)" d="M 229.202531 325.921635 
L 229.790643 325.921635 
L 229.790643 325.681941 
L 229.202531 325.681941 
z
" style="fill:#1f77b4;"/>
   </g>
   <g id="patch_112">
    <path clip-path="url(#pe3dee3e87c)" d="M 229.937671 325.921635 
L 230.525782 325.921635 
L 230.525782 325.442247 
L 229.937671 325.442247 
z
" style="fill:#1f77b4;"/>
   </g>
   <g id="patch_113">
    <path clip-path="url(#pe3dee3e87c)" d="M 230.67281 325.921635 
L 231.260921 325.921635 
L 231.260921 325.921635 
L 230.67281 325.921635 
z
" style="fill:#1f77b4;"/>
   </g>
   <g id="patch_114">
    <path clip-path="url(#pe3dee3e87c)" d="M 231.407949 325.921635 
L 231.996061 325.921635 
L 231.996061 325.442247 
L 231.407949 325.442247 
z
" style="fill:#1f77b4;"/>
   </g>
   <g id="patch_115">
    <path clip-path="url(#pe3dee3e87c)" d="M 232.143088 325.921635 
L 232.7312 325.921635 
L 232.7312 325.921635 
L 232.143088 325.921635 
z
" style="fill:#1f77b4;"/>
   </g>
   <g id="patch_116">
    <path clip-path="url(#pe3dee3e87c)" d="M 232.878228 325.921635 
L 233.466339 325.921635 
L 233.466339 325.921635 
L 232.878228 325.921635 
z
" style="fill:#1f77b4;"/>
   </g>
   <g id="patch_117">
    <path clip-path="url(#pe3dee3e87c)" d="M 233.613367 325.921635 
L 234.201478 325.921635 
L 234.201478 324.962858 
L 233.613367 324.962858 
z
" style="fill:#1f77b4;"/>
   </g>
   <g id="patch_118">
    <path clip-path="url(#pe3dee3e87c)" d="M 234.348506 325.921635 
L 234.936618 325.921635 
L 234.936618 323.764387 
L 234.348506 323.764387 
z
" style="fill:#1f77b4;"/>
   </g>
   <g id="patch_119">
    <path clip-path="url(#pe3dee3e87c)" d="M 235.083645 325.921635 
L 235.671757 325.921635 
L 235.671757 323.764387 
L 235.083645 323.764387 
z
" style="fill:#1f77b4;"/>
   </g>
   <g id="patch_120">
    <path clip-path="url(#pe3dee3e87c)" d="M 235.818785 325.921635 
L 236.406896 325.921635 
L 236.406896 323.764387 
L 235.818785 323.764387 
z
" style="fill:#1f77b4;"/>
   </g>
   <g id="patch_121">
    <path clip-path="url(#pe3dee3e87c)" d="M 236.553924 325.921635 
L 237.142035 325.921635 
L 237.142035 320.408669 
L 236.553924 320.408669 
z
" style="fill:#1f77b4;"/>
   </g>
   <g id="patch_122">
    <path clip-path="url(#pe3dee3e87c)" d="M 237.289063 325.921635 
L 237.877175 325.921635 
L 237.877175 323.045305 
L 237.289063 323.045305 
z
" style="fill:#1f77b4;"/>
   </g>
   <g id="patch_123">
    <path clip-path="url(#pe3dee3e87c)" d="M 238.024203 325.921635 
L 238.612314 325.921635 
L 238.612314 322.565917 
L 238.024203 322.565917 
z
" style="fill:#1f77b4;"/>
   </g>
   <g id="patch_124">
    <path clip-path="url(#pe3dee3e87c)" d="M 238.759342 325.921635 
L 239.347453 325.921635 
L 239.347453 323.045305 
L 238.759342 323.045305 
z
" style="fill:#1f77b4;"/>
   </g>
   <g id="patch_125">
    <path clip-path="url(#pe3dee3e87c)" d="M 239.494481 325.921635 
L 240.082592 325.921635 
L 240.082592 319.929281 
L 239.494481 319.929281 
z
" style="fill:#1f77b4;"/>
   </g>
   <g id="patch_126">
    <path clip-path="url(#pe3dee3e87c)" d="M 240.22962 325.921635 
L 240.817732 325.921635 
L 240.817732 315.135397 
L 240.22962 315.135397 
z
" style="fill:#1f77b4;"/>
   </g>
   <g id="patch_127">
    <path clip-path="url(#pe3dee3e87c)" d="M 240.96476 325.921635 
L 241.552871 325.921635 
L 241.552871 319.449892 
L 240.96476 319.449892 
z
" style="fill:#1f77b4;"/>
   </g>
   <g id="patch_128">
    <path clip-path="url(#pe3dee3e87c)" d="M 241.699899 325.921635 
L 242.28801 325.921635 
L 242.28801 325.442247 
L 241.699899 325.442247 
z
" style="fill:#1f77b4;"/>
   </g>
   <g id="patch_129">
    <path clip-path="url(#pe3dee3e87c)" d="M 242.435038 325.921635 
L 243.02315 325.921635 
L 243.02315 318.970504 
L 242.435038 318.970504 
z
" style="fill:#1f77b4;"/>
   </g>
   <g id="patch_130">
    <path clip-path="url(#pe3dee3e87c)" d="M 243.170177 325.921635 
L 243.758289 325.921635 
L 243.758289 322.326222 
L 243.170177 322.326222 
z
" style="fill:#1f77b4;"/>
   </g>
   <g id="patch_131">
    <path clip-path="url(#pe3dee3e87c)" d="M 243.905317 325.921635 
L 244.493428 325.921635 
L 244.493428 318.011727 
L 243.905317 318.011727 
z
" style="fill:#1f77b4;"/>
   </g>
   <g id="patch_132">
    <path clip-path="url(#pe3dee3e87c)" d="M 244.640456 325.921635 
L 245.228567 325.921635 
L 245.228567 318.251422 
L 244.640456 318.251422 
z
" style="fill:#1f77b4;"/>
   </g>
   <g id="patch_133">
    <path clip-path="url(#pe3dee3e87c)" d="M 245.375595 325.921635 
L 245.963707 325.921635 
L 245.963707 319.210198 
L 245.375595 319.210198 
z
" style="fill:#1f77b4;"/>
   </g>
   <g id="patch_134">
    <path clip-path="url(#pe3dee3e87c)" d="M 246.110734 325.921635 
L 246.698846 325.921635 
L 246.698846 311.060596 
L 246.110734 311.060596 
z
" style="fill:#1f77b4;"/>
   </g>
   <g id="patch_135">
    <path clip-path="url(#pe3dee3e87c)" d="M 246.845874 325.921635 
L 247.433985 325.921635 
L 247.433985 322.565917 
L 246.845874 322.565917 
z
" style="fill:#1f77b4;"/>
   </g>
   <g id="patch_136">
    <path clip-path="url(#pe3dee3e87c)" d="M 247.581013 325.921635 
L 248.169124 325.921635 
L 248.169124 324.004082 
L 247.581013 324.004082 
z
" style="fill:#1f77b4;"/>
   </g>
   <g id="patch_137">
    <path clip-path="url(#pe3dee3e87c)" d="M 248.316152 325.921635 
L 248.904264 325.921635 
L 248.904264 310.820902 
L 248.316152 310.820902 
z
" style="fill:#1f77b4;"/>
   </g>
   <g id="patch_138">
    <path clip-path="url(#pe3dee3e87c)" d="M 249.051291 325.921635 
L 249.639403 325.921635 
L 249.639403 319.449892 
L 249.051291 319.449892 
z
" style="fill:#1f77b4;"/>
   </g>
   <g id="patch_139">
    <path clip-path="url(#pe3dee3e87c)" d="M 249.786431 325.921635 
L 250.374542 325.921635 
L 250.374542 314.656009 
L 249.786431 314.656009 
z
" style="fill:#1f77b4;"/>
   </g>
   <g id="patch_140">
    <path clip-path="url(#pe3dee3e87c)" d="M 250.52157 325.921635 
L 251.109681 325.921635 
L 251.109681 310.820902 
L 250.52157 310.820902 
z
" style="fill:#1f77b4;"/>
   </g>
   <g id="patch_141">
    <path clip-path="url(#pe3dee3e87c)" d="M 251.256709 325.921635 
L 251.844821 325.921635 
L 251.844821 321.60714 
L 251.256709 321.60714 
z
" style="fill:#1f77b4;"/>
   </g>
   <g id="patch_142">
    <path clip-path="url(#pe3dee3e87c)" d="M 251.991849 325.921635 
L 252.57996 325.921635 
L 252.57996 324.962858 
L 251.991849 324.962858 
z
" style="fill:#1f77b4;"/>
   </g>
   <g id="patch_143">
    <path clip-path="url(#pe3dee3e87c)" d="M 252.726988 325.921635 
L 253.315099 325.921635 
L 253.315099 322.805611 
L 252.726988 322.805611 
z
" style="fill:#1f77b4;"/>
   </g>
   <g id="patch_144">
    <path clip-path="url(#pe3dee3e87c)" d="M 253.462127 325.921635 
L 254.050238 325.921635 
L 254.050238 323.284999 
L 253.462127 323.284999 
z
" style="fill:#1f77b4;"/>
   </g>
   <g id="patch_145">
    <path clip-path="url(#pe3dee3e87c)" d="M 254.197266 325.921635 
L 254.785378 325.921635 
L 254.785378 317.292645 
L 254.197266 317.292645 
z
" style="fill:#1f77b4;"/>
   </g>
   <g id="patch_146">
    <path clip-path="url(#pe3dee3e87c)" d="M 254.932406 325.921635 
L 255.520517 325.921635 
L 255.520517 314.656009 
L 254.932406 314.656009 
z
" style="fill:#1f77b4;"/>
   </g>
   <g id="patch_147">
    <path clip-path="url(#pe3dee3e87c)" d="M 255.667545 325.921635 
L 256.255656 325.921635 
L 256.255656 318.011727 
L 255.667545 318.011727 
z
" style="fill:#1f77b4;"/>
   </g>
   <g id="patch_148">
    <path clip-path="url(#pe3dee3e87c)" d="M 256.402684 325.921635 
L 256.990796 325.921635 
L 256.990796 320.648363 
L 256.402684 320.648363 
z
" style="fill:#1f77b4;"/>
   </g>
   <g id="patch_149">
    <path clip-path="url(#pe3dee3e87c)" d="M 257.137823 325.921635 
L 257.725935 325.921635 
L 257.725935 318.970504 
L 257.137823 318.970504 
z
" style="fill:#1f77b4;"/>
   </g>
   <g id="patch_150">
    <path clip-path="url(#pe3dee3e87c)" d="M 257.872963 325.921635 
L 258.461074 325.921635 
L 258.461074 320.408669 
L 257.872963 320.408669 
z
" style="fill:#1f77b4;"/>
   </g>
   <g id="patch_151">
    <path clip-path="url(#pe3dee3e87c)" d="M 258.608102 325.921635 
L 259.196213 325.921635 
L 259.196213 317.532339 
L 258.608102 317.532339 
z
" style="fill:#1f77b4;"/>
   </g>
   <g id="patch_152">
    <path clip-path="url(#pe3dee3e87c)" d="M 259.343241 325.921635 
L 259.931353 325.921635 
L 259.931353 322.326222 
L 259.343241 322.326222 
z
" style="fill:#1f77b4;"/>
   </g>
   <g id="patch_153">
    <path clip-path="url(#pe3dee3e87c)" d="M 260.07838 325.921635 
L 260.666492 325.921635 
L 260.666492 321.367446 
L 260.07838 321.367446 
z
" style="fill:#1f77b4;"/>
   </g>
   <g id="patch_154">
    <path clip-path="url(#pe3dee3e87c)" d="M 260.81352 325.921635 
L 261.401631 325.921635 
L 261.401631 308.903349 
L 260.81352 308.903349 
z
" style="fill:#1f77b4;"/>
   </g>
   <g id="patch_155">
    <path clip-path="url(#pe3dee3e87c)" d="M 261.548659 325.921635 
L 262.13677 325.921635 
L 262.13677 309.862126 
L 261.548659 309.862126 
z
" style="fill:#1f77b4;"/>
   </g>
   <g id="patch_156">
    <path clip-path="url(#pe3dee3e87c)" d="M 262.283798 325.921635 
L 262.87191 325.921635 
L 262.87191 317.532339 
L 262.283798 317.532339 
z
" style="fill:#1f77b4;"/>
   </g>
   <g id="patch_157">
    <path clip-path="url(#pe3dee3e87c)" d="M 263.018937 325.921635 
L 263.607049 325.921635 
L 263.607049 309.143043 
L 263.018937 309.143043 
z
" style="fill:#1f77b4;"/>
   </g>
   <g id="patch_158">
    <path clip-path="url(#pe3dee3e87c)" d="M 263.754077 325.921635 
L 264.342188 325.921635 
L 264.342188 311.060596 
L 263.754077 311.060596 
z
" style="fill:#1f77b4;"/>
   </g>
   <g id="patch_159">
    <path clip-path="url(#pe3dee3e87c)" d="M 264.489216 325.921635 
L 265.077327 325.921635 
L 265.077327 312.019373 
L 264.489216 312.019373 
z
" style="fill:#1f77b4;"/>
   </g>
   <g id="patch_160">
    <path clip-path="url(#pe3dee3e87c)" d="M 265.224355 325.921635 
L 265.812467 325.921635 
L 265.812467 306.266713 
L 265.224355 306.266713 
z
" style="fill:#1f77b4;"/>
   </g>
   <g id="patch_161">
    <path clip-path="url(#pe3dee3e87c)" d="M 265.959495 325.921635 
L 266.547606 325.921635 
L 266.547606 302.431606 
L 265.959495 302.431606 
z
" style="fill:#1f77b4;"/>
   </g>
   <g id="patch_162">
    <path clip-path="url(#pe3dee3e87c)" d="M 266.694634 325.921635 
L 267.282745 325.921635 
L 267.282745 310.820902 
L 266.694634 310.820902 
z
" style="fill:#1f77b4;"/>
   </g>
   <g id="patch_163">
    <path clip-path="url(#pe3dee3e87c)" d="M 267.429773 325.921635 
L 268.017884 325.921635 
L 268.017884 304.34916 
L 267.429773 304.34916 
z
" style="fill:#1f77b4;"/>
   </g>
   <g id="patch_164">
    <path clip-path="url(#pe3dee3e87c)" d="M 268.164912 325.921635 
L 268.753024 325.921635 
L 268.753024 314.656009 
L 268.164912 314.656009 
z
" style="fill:#1f77b4;"/>
   </g>
   <g id="patch_165">
    <path clip-path="url(#pe3dee3e87c)" d="M 268.900052 325.921635 
L 269.488163 325.921635 
L 269.488163 315.135397 
L 268.900052 315.135397 
z
" style="fill:#1f77b4;"/>
   </g>
   <g id="patch_166">
    <path clip-path="url(#pe3dee3e87c)" d="M 269.635191 325.921635 
L 270.223302 325.921635 
L 270.223302 300.993441 
L 269.635191 300.993441 
z
" style="fill:#1f77b4;"/>
   </g>
   <g id="patch_167">
    <path clip-path="url(#pe3dee3e87c)" d="M 270.37033 325.921635 
L 270.958442 325.921635 
L 270.958442 269.593505 
L 270.37033 269.593505 
z
" style="fill:#1f77b4;"/>
   </g>
   <g id="patch_168">
    <path clip-path="url(#pe3dee3e87c)" d="M 271.105469 325.921635 
L 271.693581 325.921635 
L 271.693581 306.985795 
L 271.105469 306.985795 
z
" style="fill:#1f77b4;"/>
   </g>
   <g id="patch_169">
    <path clip-path="url(#pe3dee3e87c)" d="M 271.840609 325.921635 
L 272.42872 325.921635 
L 272.42872 249.698889 
L 271.840609 249.698889 
z
" style="fill:#1f77b4;"/>
   </g>
   <g id="patch_170">
    <path clip-path="url(#pe3dee3e87c)" d="M 272.575748 325.921635 
L 273.163859 325.921635 
L 273.163859 314.895703 
L 272.575748 314.895703 
z
" style="fill:#1f77b4;"/>
   </g>
   <g id="patch_171">
    <path clip-path="url(#pe3dee3e87c)" d="M 273.310887 325.921635 
L 273.898999 325.921635 
L 273.898999 314.176621 
L 273.310887 314.176621 
z
" style="fill:#1f77b4;"/>
   </g>
   <g id="patch_172">
    <path clip-path="url(#pe3dee3e87c)" d="M 274.046026 325.921635 
L 274.634138 325.921635 
L 274.634138 317.772033 
L 274.046026 317.772033 
z
" style="fill:#1f77b4;"/>
   </g>
   <g id="patch_173">
    <path clip-path="url(#pe3dee3e87c)" d="M 274.781166 325.921635 
L 275.369277 325.921635 
L 275.369277 244.185923 
L 274.781166 244.185923 
z
" style="fill:#1f77b4;"/>
   </g>
   <g id="patch_174">
    <path clip-path="url(#pe3dee3e87c)" d="M 275.516305 325.921635 
L 276.104416 325.921635 
L 276.104416 325.921635 
L 275.516305 325.921635 
z
" style="fill:#1f77b4;"/>
   </g>
   <g id="patch_175">
    <path clip-path="url(#pe3dee3e87c)" d="M 276.251444 325.921635 
L 276.839556 325.921635 
L 276.839556 306.746101 
L 276.251444 306.746101 
z
" style="fill:#1f77b4;"/>
   </g>
   <g id="patch_176">
    <path clip-path="url(#pe3dee3e87c)" d="M 276.986583 325.921635 
L 277.574695 325.921635 
L 277.574695 182.105132 
L 276.986583 182.105132 
z
" style="fill:#1f77b4;"/>
   </g>
   <g id="patch_177">
    <path clip-path="url(#pe3dee3e87c)" d="M 277.721723 325.921635 
L 278.309834 325.921635 
L 278.309834 302.431606 
L 277.721723 302.431606 
z
" style="fill:#1f77b4;"/>
   </g>
   <g id="patch_178">
    <path clip-path="url(#pe3dee3e87c)" d="M 278.456862 325.921635 
L 279.044973 325.921635 
L 279.044973 316.333868 
L 278.456862 316.333868 
z
" style="fill:#1f77b4;"/>
   </g>
   <g id="patch_179">
    <path clip-path="url(#pe3dee3e87c)" d="M 279.192001 325.921635 
L 279.780113 325.921635 
L 279.780113 325.921635 
L 279.192001 325.921635 
z
" style="fill:#1f77b4;"/>
   </g>
   <g id="patch_180">
    <path clip-path="url(#pe3dee3e87c)" d="M 279.927141 325.921635 
L 280.515252 325.921635 
L 280.515252 322.326222 
L 279.927141 322.326222 
z
" style="fill:#1f77b4;"/>
   </g>
   <g id="patch_181">
    <path clip-path="url(#pe3dee3e87c)" d="M 280.66228 325.921635 
L 281.250391 325.921635 
L 281.250391 32.775664 
L 280.66228 32.775664 
z
" style="fill:#1f77b4;"/>
   </g>
   <g id="patch_182">
    <path clip-path="url(#pe3dee3e87c)" d="M 281.397419 325.921635 
L 281.98553 325.921635 
L 281.98553 206.074549 
L 281.397419 206.074549 
z
" style="fill:#1f77b4;"/>
   </g>
   <g id="patch_183">
    <path clip-path="url(#pe3dee3e87c)" d="M 282.132558 325.921635 
L 282.72067 325.921635 
L 282.72067 219.257729 
L 282.132558 219.257729 
z
" style="fill:#1f77b4;"/>
   </g>
   <g id="patch_184">
    <path clip-path="url(#pe3dee3e87c)" d="M 282.867698 325.921635 
L 283.455809 325.921635 
L 283.455809 225.729471 
L 282.867698 225.729471 
z
" style="fill:#1f77b4;"/>
   </g>
   <g id="patch_185">
    <path clip-path="url(#pe3dee3e87c)" d="M 283.602837 325.921635 
L 284.190948 325.921635 
L 284.190948 293.802616 
L 283.602837 293.802616 
z
" style="fill:#1f77b4;"/>
   </g>
   <g id="patch_186">
    <path clip-path="url(#pe3dee3e87c)" d="M 284.337976 325.921635 
L 284.926088 325.921635 
L 284.926088 304.588854 
L 284.337976 304.588854 
z
" style="fill:#1f77b4;"/>
   </g>
   <g id="patch_187">
    <path clip-path="url(#pe3dee3e87c)" d="M 285.073115 325.921635 
L 285.661227 325.921635 
L 285.661227 271.750752 
L 285.073115 271.750752 
z
" style="fill:#1f77b4;"/>
   </g>
   <g id="patch_188">
    <path clip-path="url(#pe3dee3e87c)" d="M 285.808255 325.921635 
L 286.396366 325.921635 
L 286.396366 262.882068 
L 285.808255 262.882068 
z
" style="fill:#1f77b4;"/>
   </g>
   <g id="patch_189">
    <path clip-path="url(#pe3dee3e87c)" d="M 286.543394 325.921635 
L 287.131505 325.921635 
L 287.131505 41.644348 
L 286.543394 41.644348 
z
" style="fill:#1f77b4;"/>
   </g>
   <g id="patch_190">
    <path clip-path="url(#pe3dee3e87c)" d="M 287.278533 325.921635 
L 287.866645 325.921635 
L 287.866645 325.921635 
L 287.278533 325.921635 
z
" style="fill:#1f77b4;"/>
   </g>
   <g id="patch_191">
    <path clip-path="url(#pe3dee3e87c)" d="M 288.013672 325.921635 
L 288.601784 325.921635 
L 288.601784 84.30991 
L 288.013672 84.30991 
z
" style="fill:#1f77b4;"/>
   </g>
   <g id="patch_192">
    <path clip-path="url(#pe3dee3e87c)" d="M 288.748812 325.921635 
L 289.336923 325.921635 
L 289.336923 304.34916 
L 288.748812 304.34916 
z
" style="fill:#1f77b4;"/>
   </g>
   <g id="patch_193">
    <path clip-path="url(#pe3dee3e87c)" d="M 289.483951 325.921635 
L 290.072062 325.921635 
L 290.072062 325.921635 
L 289.483951 325.921635 
z
" style="fill:#1f77b4;"/>
   </g>
   <g id="patch_194">
    <path clip-path="url(#pe3dee3e87c)" d="M 290.21909 325.921635 
L 290.807202 325.921635 
L 290.807202 185.221156 
L 290.21909 185.221156 
z
" style="fill:#1f77b4;"/>
   </g>
   <g id="patch_195">
    <path clip-path="url(#pe3dee3e87c)" d="M 290.954229 325.921635 
L 291.542341 325.921635 
L 291.542341 211.108127 
L 290.954229 211.108127 
z
" style="fill:#1f77b4;"/>
   </g>
   <g id="patch_196">
    <path clip-path="url(#pe3dee3e87c)" d="M 291.689369 325.921635 
L 292.27748 325.921635 
L 292.27748 179.228802 
L 291.689369 179.228802 
z
" style="fill:#1f77b4;"/>
   </g>
   <g id="patch_197">
    <path clip-path="url(#pe3dee3e87c)" d="M 292.424508 325.921635 
L 293.012619 325.921635 
L 293.012619 188.576875 
L 292.424508 188.576875 
z
" style="fill:#1f77b4;"/>
   </g>
   <g id="patch_198">
    <path clip-path="url(#pe3dee3e87c)" d="M 293.159647 325.921635 
L 293.747759 325.921635 
L 293.747759 217.100481 
L 293.159647 217.100481 
z
" style="fill:#1f77b4;"/>
   </g>
   <g id="patch_199">
    <path clip-path="url(#pe3dee3e87c)" d="M 293.894787 325.921635 
L 294.482898 325.921635 
L 294.482898 302.431606 
L 293.894787 302.431606 
z
" style="fill:#1f77b4;"/>
   </g>
   <g id="patch_200">
    <path clip-path="url(#pe3dee3e87c)" d="M 294.629926 325.921635 
L 295.218037 325.921635 
L 295.218037 298.356805 
L 294.629926 298.356805 
z
" style="fill:#1f77b4;"/>
   </g>
   <g id="patch_201">
    <path clip-path="url(#pe3dee3e87c)" d="M 295.365065 325.921635 
L 295.953176 325.921635 
L 295.953176 193.610452 
L 295.365065 193.610452 
z
" style="fill:#1f77b4;"/>
   </g>
   <g id="patch_202">
    <path clip-path="url(#pe3dee3e87c)" d="M 296.100204 325.921635 
L 296.688316 325.921635 
L 296.688316 130.091497 
L 296.100204 130.091497 
z
" style="fill:#1f77b4;"/>
   </g>
   <g id="patch_203">
    <path clip-path="url(#pe3dee3e87c)" d="M 296.835344 325.921635 
L 297.423455 325.921635 
L 297.423455 194.329535 
L 296.835344 194.329535 
z
" style="fill:#1f77b4;"/>
   </g>
   <g id="patch_204">
    <path clip-path="url(#pe3dee3e87c)" d="M 297.570483 325.921635 
L 298.158594 325.921635 
L 298.158594 274.147694 
L 297.570483 274.147694 
z
" style="fill:#1f77b4;"/>
   </g>
   <g id="patch_205">
    <path clip-path="url(#pe3dee3e87c)" d="M 298.305622 325.921635 
L 298.893734 325.921635 
L 298.893734 267.675951 
L 298.305622 267.675951 
z
" style="fill:#1f77b4;"/>
   </g>
   <g id="patch_206">
    <path clip-path="url(#pe3dee3e87c)" d="M 299.040761 325.921635 
L 299.628873 325.921635 
L 299.628873 317.772033 
L 299.040761 317.772033 
z
" style="fill:#1f77b4;"/>
   </g>
   <g id="patch_207">
    <path clip-path="url(#pe3dee3e87c)" d="M 299.775901 325.921635 
L 300.364012 325.921635 
L 300.364012 139.679264 
L 299.775901 139.679264 
z
" style="fill:#1f77b4;"/>
   </g>
   <g id="patch_208">
    <path clip-path="url(#pe3dee3e87c)" d="M 300.51104 325.921635 
L 301.099151 325.921635 
L 301.099151 78.317556 
L 300.51104 78.317556 
z
" style="fill:#1f77b4;"/>
   </g>
   <g id="patch_209">
    <path clip-path="url(#pe3dee3e87c)" d="M 301.246179 325.921635 
L 301.834291 325.921635 
L 301.834291 168.442564 
L 301.246179 168.442564 
z
" style="fill:#1f77b4;"/>
   </g>
   <g id="patch_210">
    <path clip-path="url(#pe3dee3e87c)" d="M 301.981318 325.921635 
L 302.56943 325.921635 
L 302.56943 159.57388 
L 301.981318 159.57388 
z
" style="fill:#1f77b4;"/>
   </g>
   <g id="patch_211">
    <path clip-path="url(#pe3dee3e87c)" d="M 302.716458 325.921635 
L 303.304569 325.921635 
L 303.304569 142.555594 
L 302.716458 142.555594 
z
" style="fill:#1f77b4;"/>
   </g>
   <g id="patch_212">
    <path clip-path="url(#pe3dee3e87c)" d="M 303.451597 325.921635 
L 304.039708 325.921635 
L 304.039708 193.850147 
L 303.451597 193.850147 
z
" style="fill:#1f77b4;"/>
   </g>
   <g id="patch_213">
    <path clip-path="url(#pe3dee3e87c)" d="M 304.186736 325.921635 
L 304.774848 325.921635 
L 304.774848 275.585859 
L 304.186736 275.585859 
z
" style="fill:#1f77b4;"/>
   </g>
   <g id="matplotlib.axis_3">
    <g id="xtick_3">
     <g id="line2d_13">
      <g>
       <use style="stroke:#000000;stroke-width:0.8;" x="229.496587" xlink:href="#ma03cea8b11" y="325.921635"/>
      </g>
     </g>
     <g id="text_13">
      <!-- 0 -->
      <g transform="translate(226.315337 340.520072)scale(0.1 -0.1)">
       <use xlink:href="#DejaVuSans-48"/>
      </g>
     </g>
    </g>
    <g id="xtick_4">
     <g id="line2d_14">
      <g>
       <use style="stroke:#000000;stroke-width:0.8;" x="303.010513" xlink:href="#ma03cea8b11" y="325.921635"/>
      </g>
     </g>
     <g id="text_14">
      <!-- 100 -->
      <g transform="translate(293.466763 340.520072)scale(0.1 -0.1)">
       <use xlink:href="#DejaVuSans-49"/>
       <use x="63.623047" xlink:href="#DejaVuSans-48"/>
       <use x="127.246094" xlink:href="#DejaVuSans-48"/>
      </g>
     </g>
    </g>
   </g>
   <g id="matplotlib.axis_4">
    <g id="ytick_10">
     <g id="line2d_15">
      <g>
       <use style="stroke:#000000;stroke-width:0.8;" x="225.423916" xlink:href="#m6511000c4a" y="325.921635"/>
      </g>
     </g>
     <g id="text_15">
      <!-- 0 -->
      <g transform="translate(212.061416 329.720854)scale(0.1 -0.1)">
       <use xlink:href="#DejaVuSans-48"/>
      </g>
     </g>
    </g>
    <g id="ytick_11">
     <g id="line2d_16">
      <g>
       <use style="stroke:#000000;stroke-width:0.8;" x="225.423916" xlink:href="#m6511000c4a" y="277.982801"/>
      </g>
     </g>
     <g id="text_16">
      <!-- 200 -->
      <g transform="translate(199.336416 281.78202)scale(0.1 -0.1)">
       <use xlink:href="#DejaVuSans-50"/>
       <use x="63.623047" xlink:href="#DejaVuSans-48"/>
       <use x="127.246094" xlink:href="#DejaVuSans-48"/>
      </g>
     </g>
    </g>
    <g id="ytick_12">
     <g id="line2d_17">
      <g>
       <use style="stroke:#000000;stroke-width:0.8;" x="225.423916" xlink:href="#m6511000c4a" y="230.043967"/>
      </g>
     </g>
     <g id="text_17">
      <!-- 400 -->
      <defs>
       <path d="M 37.796875 64.3125 
L 12.890625 25.390625 
L 37.796875 25.390625 
z
M 35.203125 72.90625 
L 47.609375 72.90625 
L 47.609375 25.390625 
L 58.015625 25.390625 
L 58.015625 17.1875 
L 47.609375 17.1875 
L 47.609375 0 
L 37.796875 0 
L 37.796875 17.1875 
L 4.890625 17.1875 
L 4.890625 26.703125 
z
" id="DejaVuSans-52"/>
      </defs>
      <g transform="translate(199.336416 233.843185)scale(0.1 -0.1)">
       <use xlink:href="#DejaVuSans-52"/>
       <use x="63.623047" xlink:href="#DejaVuSans-48"/>
       <use x="127.246094" xlink:href="#DejaVuSans-48"/>
      </g>
     </g>
    </g>
    <g id="ytick_13">
     <g id="line2d_18">
      <g>
       <use style="stroke:#000000;stroke-width:0.8;" x="225.423916" xlink:href="#m6511000c4a" y="182.105132"/>
      </g>
     </g>
     <g id="text_18">
      <!-- 600 -->
      <defs>
       <path d="M 33.015625 40.375 
Q 26.375 40.375 22.484375 35.828125 
Q 18.609375 31.296875 18.609375 23.390625 
Q 18.609375 15.53125 22.484375 10.953125 
Q 26.375 6.390625 33.015625 6.390625 
Q 39.65625 6.390625 43.53125 10.953125 
Q 47.40625 15.53125 47.40625 23.390625 
Q 47.40625 31.296875 43.53125 35.828125 
Q 39.65625 40.375 33.015625 40.375 
z
M 52.59375 71.296875 
L 52.59375 62.3125 
Q 48.875 64.0625 45.09375 64.984375 
Q 41.3125 65.921875 37.59375 65.921875 
Q 27.828125 65.921875 22.671875 59.328125 
Q 17.53125 52.734375 16.796875 39.40625 
Q 19.671875 43.65625 24.015625 45.921875 
Q 28.375 48.1875 33.59375 48.1875 
Q 44.578125 48.1875 50.953125 41.515625 
Q 57.328125 34.859375 57.328125 23.390625 
Q 57.328125 12.15625 50.6875 5.359375 
Q 44.046875 -1.421875 33.015625 -1.421875 
Q 20.359375 -1.421875 13.671875 8.265625 
Q 6.984375 17.96875 6.984375 36.375 
Q 6.984375 53.65625 15.1875 63.9375 
Q 23.390625 74.21875 37.203125 74.21875 
Q 40.921875 74.21875 44.703125 73.484375 
Q 48.484375 72.75 52.59375 71.296875 
z
" id="DejaVuSans-54"/>
      </defs>
      <g transform="translate(199.336416 185.904351)scale(0.1 -0.1)">
       <use xlink:href="#DejaVuSans-54"/>
       <use x="63.623047" xlink:href="#DejaVuSans-48"/>
       <use x="127.246094" xlink:href="#DejaVuSans-48"/>
      </g>
     </g>
    </g>
    <g id="ytick_14">
     <g id="line2d_19">
      <g>
       <use style="stroke:#000000;stroke-width:0.8;" x="225.423916" xlink:href="#m6511000c4a" y="134.166298"/>
      </g>
     </g>
     <g id="text_19">
      <!-- 800 -->
      <defs>
       <path d="M 31.78125 34.625 
Q 24.75 34.625 20.71875 30.859375 
Q 16.703125 27.09375 16.703125 20.515625 
Q 16.703125 13.921875 20.71875 10.15625 
Q 24.75 6.390625 31.78125 6.390625 
Q 38.8125 6.390625 42.859375 10.171875 
Q 46.921875 13.96875 46.921875 20.515625 
Q 46.921875 27.09375 42.890625 30.859375 
Q 38.875 34.625 31.78125 34.625 
z
M 21.921875 38.8125 
Q 15.578125 40.375 12.03125 44.71875 
Q 8.5 49.078125 8.5 55.328125 
Q 8.5 64.0625 14.71875 69.140625 
Q 20.953125 74.21875 31.78125 74.21875 
Q 42.671875 74.21875 48.875 69.140625 
Q 55.078125 64.0625 55.078125 55.328125 
Q 55.078125 49.078125 51.53125 44.71875 
Q 48 40.375 41.703125 38.8125 
Q 48.828125 37.15625 52.796875 32.3125 
Q 56.78125 27.484375 56.78125 20.515625 
Q 56.78125 9.90625 50.3125 4.234375 
Q 43.84375 -1.421875 31.78125 -1.421875 
Q 19.734375 -1.421875 13.25 4.234375 
Q 6.78125 9.90625 6.78125 20.515625 
Q 6.78125 27.484375 10.78125 32.3125 
Q 14.796875 37.15625 21.921875 38.8125 
z
M 18.3125 54.390625 
Q 18.3125 48.734375 21.84375 45.5625 
Q 25.390625 42.390625 31.78125 42.390625 
Q 38.140625 42.390625 41.71875 45.5625 
Q 45.3125 48.734375 45.3125 54.390625 
Q 45.3125 60.0625 41.71875 63.234375 
Q 38.140625 66.40625 31.78125 66.40625 
Q 25.390625 66.40625 21.84375 63.234375 
Q 18.3125 60.0625 18.3125 54.390625 
z
" id="DejaVuSans-56"/>
      </defs>
      <g transform="translate(199.336416 137.965517)scale(0.1 -0.1)">
       <use xlink:href="#DejaVuSans-56"/>
       <use x="63.623047" xlink:href="#DejaVuSans-48"/>
       <use x="127.246094" xlink:href="#DejaVuSans-48"/>
      </g>
     </g>
    </g>
    <g id="ytick_15">
     <g id="line2d_20">
      <g>
       <use style="stroke:#000000;stroke-width:0.8;" x="225.423916" xlink:href="#m6511000c4a" y="86.227464"/>
      </g>
     </g>
     <g id="text_20">
      <!-- 1000 -->
      <g transform="translate(192.973916 90.026683)scale(0.1 -0.1)">
       <use xlink:href="#DejaVuSans-49"/>
       <use x="63.623047" xlink:href="#DejaVuSans-48"/>
       <use x="127.246094" xlink:href="#DejaVuSans-48"/>
       <use x="190.869141" xlink:href="#DejaVuSans-48"/>
      </g>
     </g>
    </g>
    <g id="ytick_16">
     <g id="line2d_21">
      <g>
       <use style="stroke:#000000;stroke-width:0.8;" x="225.423916" xlink:href="#m6511000c4a" y="38.28863"/>
      </g>
     </g>
     <g id="text_21">
      <!-- 1200 -->
      <g transform="translate(192.973916 42.087848)scale(0.1 -0.1)">
       <use xlink:href="#DejaVuSans-49"/>
       <use x="63.623047" xlink:href="#DejaVuSans-50"/>
       <use x="127.246094" xlink:href="#DejaVuSans-48"/>
       <use x="190.869141" xlink:href="#DejaVuSans-48"/>
      </g>
     </g>
    </g>
   </g>
   <g id="line2d_22">
    <path clip-path="url(#pe3dee3e87c)" d="M 229.496587 325.68254 
L 230.231726 325.560347 
L 230.966866 325.398121 
L 231.702005 325.20395 
L 232.437144 324.961061 
L 233.172283 324.670753 
L 233.907423 324.336219 
L 234.642562 323.962552 
L 235.377701 323.555841 
L 236.11284 323.123872 
L 236.84798 322.684815 
L 237.583119 322.256441 
L 238.318258 321.842941 
L 239.053397 321.452102 
L 239.788537 321.083027 
L 240.523676 320.739609 
L 241.258815 320.422346 
L 241.993955 320.11307 
L 242.729094 319.803993 
L 243.464233 319.500307 
L 244.199372 319.196521 
L 244.934512 318.90781 
L 245.669651 318.641162 
L 246.40479 318.407557 
L 247.139929 318.240141 
L 247.875069 318.149794 
L 248.610208 318.136217 
L 249.345347 318.207596 
L 250.080486 318.339872 
L 250.815626 318.517671 
L 251.550765 318.72462 
L 252.285904 318.919391 
L 253.021043 319.074029 
L 253.756183 319.171663 
L 254.491322 319.190132 
L 255.226461 319.13213 
L 255.961601 318.986477 
L 256.69674 318.728813 
L 257.431879 318.355945 
L 258.167018 317.872962 
L 258.902158 317.272778 
L 259.637297 316.562182 
L 260.372436 315.745365 
L 261.107575 314.841994 
L 261.842715 313.883717 
L 262.577854 312.897786 
L 263.312993 311.871723 
L 264.048132 310.814613 
L 264.783272 309.715374 
L 265.518411 308.553242 
L 266.25355 307.282593 
L 266.988689 305.905425 
L 267.723829 304.41365 
L 268.458968 302.853093 
L 269.194107 301.235332 
L 269.929247 299.585026 
L 270.664386 297.93472 
L 271.399525 296.411 
L 272.134664 294.908444 
L 272.869804 293.288387 
L 273.604943 291.435324 
L 274.340082 289.236048 
L 275.075221 286.562375 
L 275.810361 283.268651 
L 276.5455 279.024138 
L 277.280639 274.045866 
L 278.015778 268.605977 
L 278.750918 262.915611 
L 279.486057 257.202883 
L 280.221196 251.731347 
L 280.956335 246.809181 
L 281.691475 242.893012 
L 282.426614 239.740649 
L 283.161753 237.246971 
L 283.896893 235.190952 
L 284.632032 233.492927 
L 285.367171 232.030204 
L 286.10231 230.611905 
L 286.83745 229.063027 
L 287.572589 227.649121 
L 288.307728 226.306594 
L 289.042867 225.296904 
L 289.778007 224.591897 
L 290.513146 224.19477 
L 291.248285 224.112609 
L 291.983424 224.206949 
L 292.718564 224.295998 
L 293.453703 224.405014 
L 294.188842 224.181492 
L 294.923981 223.403809 
L 295.659121 221.806813 
L 296.39426 219.281489 
L 297.129399 215.957516 
L 297.864539 211.881617 
L 298.599678 207.012761 
L 299.334817 201.686579 
L 300.069956 196.383457 
L 300.805096 191.485151 
L 301.540235 187.2626 
L 302.275374 183.818332 
L 303.010513 181.420591 
L 303.745653 179.719771 
L 304.480792 178.703591 
" style="fill:none;stroke:#ff0000;stroke-linecap:square;stroke-width:1.5;"/>
   </g>
   <g id="patch_214">
    <path d="M 225.423916 325.921635 
L 225.423916 18.118365 
" style="fill:none;stroke:#000000;stroke-linecap:square;stroke-linejoin:miter;stroke-width:0.8;"/>
   </g>
   <g id="patch_215">
    <path d="M 308.553463 325.921635 
L 308.553463 18.118365 
" style="fill:none;stroke:#000000;stroke-linecap:square;stroke-linejoin:miter;stroke-width:0.8;"/>
   </g>
   <g id="patch_216">
    <path d="M 225.423916 325.921635 
L 308.553463 325.921635 
" style="fill:none;stroke:#000000;stroke-linecap:square;stroke-linejoin:miter;stroke-width:0.8;"/>
   </g>
   <g id="patch_217">
    <path d="M 225.423916 18.118365 
L 308.553463 18.118365 
" style="fill:none;stroke:#000000;stroke-linecap:square;stroke-linejoin:miter;stroke-width:0.8;"/>
   </g>
   <g id="text_22">
    <!-- Casos novos - RS - (data) -->
    <defs>
     <path d="M 54.890625 33.015625 
L 54.890625 0 
L 45.90625 0 
L 45.90625 32.71875 
Q 45.90625 40.484375 42.875 44.328125 
Q 39.84375 48.1875 33.796875 48.1875 
Q 26.515625 48.1875 22.3125 43.546875 
Q 18.109375 38.921875 18.109375 30.90625 
L 18.109375 0 
L 9.078125 0 
L 9.078125 54.6875 
L 18.109375 54.6875 
L 18.109375 46.1875 
Q 21.34375 51.125 25.703125 53.5625 
Q 30.078125 56 35.796875 56 
Q 45.21875 56 50.046875 50.171875 
Q 54.890625 44.34375 54.890625 33.015625 
z
" id="DejaVuSans-110"/>
     <path d="M 2.984375 54.6875 
L 12.5 54.6875 
L 29.59375 8.796875 
L 46.6875 54.6875 
L 56.203125 54.6875 
L 35.6875 0 
L 23.484375 0 
z
" id="DejaVuSans-118"/>
    </defs>
    <g transform="translate(191.339002 12.118365)scale(0.12 -0.12)">
     <use xlink:href="#DejaVuSans-67"/>
     <use x="69.824219" xlink:href="#DejaVuSans-97"/>
     <use x="131.103516" xlink:href="#DejaVuSans-115"/>
     <use x="183.203125" xlink:href="#DejaVuSans-111"/>
     <use x="244.384766" xlink:href="#DejaVuSans-115"/>
     <use x="296.484375" xlink:href="#DejaVuSans-32"/>
     <use x="328.271484" xlink:href="#DejaVuSans-110"/>
     <use x="391.650391" xlink:href="#DejaVuSans-111"/>
     <use x="452.832031" xlink:href="#DejaVuSans-118"/>
     <use x="512.011719" xlink:href="#DejaVuSans-111"/>
     <use x="573.193359" xlink:href="#DejaVuSans-115"/>
     <use x="625.292969" xlink:href="#DejaVuSans-32"/>
     <use x="657.080078" xlink:href="#DejaVuSans-45"/>
     <use x="693.164062" xlink:href="#DejaVuSans-32"/>
     <use x="724.951172" xlink:href="#DejaVuSans-82"/>
     <use x="794.433594" xlink:href="#DejaVuSans-83"/>
     <use x="857.910156" xlink:href="#DejaVuSans-32"/>
     <use x="889.697266" xlink:href="#DejaVuSans-45"/>
     <use x="925.78125" xlink:href="#DejaVuSans-32"/>
     <use x="957.568359" xlink:href="#DejaVuSans-40"/>
     <use x="996.582031" xlink:href="#DejaVuSans-100"/>
     <use x="1060.058594" xlink:href="#DejaVuSans-97"/>
     <use x="1121.337891" xlink:href="#DejaVuSans-116"/>
     <use x="1160.546875" xlink:href="#DejaVuSans-97"/>
     <use x="1221.826172" xlink:href="#DejaVuSans-41"/>
    </g>
   </g>
  </g>
  <g id="axes_3">
   <g id="patch_218">
    <path d="M 370.861767 325.921635 
L 453.991315 325.921635 
L 453.991315 18.118365 
L 370.861767 18.118365 
z
" style="fill:#ffffff;"/>
   </g>
   <g id="matplotlib.axis_5">
    <g id="xtick_5">
     <g id="line2d_23">
      <g>
       <use style="stroke:#000000;stroke-width:0.8;" x="374.640383" xlink:href="#ma03cea8b11" y="325.921635"/>
      </g>
     </g>
     <g id="text_23">
      <!-- 0 -->
      <g transform="translate(371.459133 340.520072)scale(0.1 -0.1)">
       <use xlink:href="#DejaVuSans-48"/>
      </g>
     </g>
    </g>
    <g id="xtick_6">
     <g id="line2d_24">
      <g>
       <use style="stroke:#000000;stroke-width:0.8;" x="448.730889" xlink:href="#ma03cea8b11" y="325.921635"/>
      </g>
     </g>
     <g id="text_24">
      <!-- 100 -->
      <g transform="translate(439.187139 340.520072)scale(0.1 -0.1)">
       <use xlink:href="#DejaVuSans-49"/>
       <use x="63.623047" xlink:href="#DejaVuSans-48"/>
       <use x="127.246094" xlink:href="#DejaVuSans-48"/>
      </g>
     </g>
    </g>
   </g>
   <g id="matplotlib.axis_6">
    <g id="ytick_17">
     <g id="line2d_25">
      <g>
       <use style="stroke:#000000;stroke-width:0.8;" x="370.861767" xlink:href="#m6511000c4a" y="291.973946"/>
      </g>
     </g>
     <g id="text_25">
      <!-- 1.0 -->
      <defs>
       <path d="M 10.6875 12.40625 
L 21 12.40625 
L 21 0 
L 10.6875 0 
z
" id="DejaVuSans-46"/>
      </defs>
      <g transform="translate(347.958642 295.773165)scale(0.1 -0.1)">
       <use xlink:href="#DejaVuSans-49"/>
       <use x="63.623047" xlink:href="#DejaVuSans-46"/>
       <use x="95.410156" xlink:href="#DejaVuSans-48"/>
      </g>
     </g>
    </g>
    <g id="ytick_18">
     <g id="line2d_26">
      <g>
       <use style="stroke:#000000;stroke-width:0.8;" x="370.861767" xlink:href="#m6511000c4a" y="243.188527"/>
      </g>
     </g>
     <g id="text_26">
      <!-- 1.5 -->
      <g transform="translate(347.958642 246.987746)scale(0.1 -0.1)">
       <use xlink:href="#DejaVuSans-49"/>
       <use x="63.623047" xlink:href="#DejaVuSans-46"/>
       <use x="95.410156" xlink:href="#DejaVuSans-53"/>
      </g>
     </g>
    </g>
    <g id="ytick_19">
     <g id="line2d_27">
      <g>
       <use style="stroke:#000000;stroke-width:0.8;" x="370.861767" xlink:href="#m6511000c4a" y="194.403108"/>
      </g>
     </g>
     <g id="text_27">
      <!-- 2.0 -->
      <g transform="translate(347.958642 198.202327)scale(0.1 -0.1)">
       <use xlink:href="#DejaVuSans-50"/>
       <use x="63.623047" xlink:href="#DejaVuSans-46"/>
       <use x="95.410156" xlink:href="#DejaVuSans-48"/>
      </g>
     </g>
    </g>
    <g id="ytick_20">
     <g id="line2d_28">
      <g>
       <use style="stroke:#000000;stroke-width:0.8;" x="370.861767" xlink:href="#m6511000c4a" y="145.617689"/>
      </g>
     </g>
     <g id="text_28">
      <!-- 2.5 -->
      <g transform="translate(347.958642 149.416907)scale(0.1 -0.1)">
       <use xlink:href="#DejaVuSans-50"/>
       <use x="63.623047" xlink:href="#DejaVuSans-46"/>
       <use x="95.410156" xlink:href="#DejaVuSans-53"/>
      </g>
     </g>
    </g>
    <g id="ytick_21">
     <g id="line2d_29">
      <g>
       <use style="stroke:#000000;stroke-width:0.8;" x="370.861767" xlink:href="#m6511000c4a" y="96.83227"/>
      </g>
     </g>
     <g id="text_29">
      <!-- 3.0 -->
      <defs>
       <path d="M 40.578125 39.3125 
Q 47.65625 37.796875 51.625 33 
Q 55.609375 28.21875 55.609375 21.1875 
Q 55.609375 10.40625 48.1875 4.484375 
Q 40.765625 -1.421875 27.09375 -1.421875 
Q 22.515625 -1.421875 17.65625 -0.515625 
Q 12.796875 0.390625 7.625 2.203125 
L 7.625 11.71875 
Q 11.71875 9.328125 16.59375 8.109375 
Q 21.484375 6.890625 26.8125 6.890625 
Q 36.078125 6.890625 40.9375 10.546875 
Q 45.796875 14.203125 45.796875 21.1875 
Q 45.796875 27.640625 41.28125 31.265625 
Q 36.765625 34.90625 28.71875 34.90625 
L 20.21875 34.90625 
L 20.21875 43.015625 
L 29.109375 43.015625 
Q 36.375 43.015625 40.234375 45.921875 
Q 44.09375 48.828125 44.09375 54.296875 
Q 44.09375 59.90625 40.109375 62.90625 
Q 36.140625 65.921875 28.71875 65.921875 
Q 24.65625 65.921875 20.015625 65.03125 
Q 15.375 64.15625 9.8125 62.3125 
L 9.8125 71.09375 
Q 15.4375 72.65625 20.34375 73.4375 
Q 25.25 74.21875 29.59375 74.21875 
Q 40.828125 74.21875 47.359375 69.109375 
Q 53.90625 64.015625 53.90625 55.328125 
Q 53.90625 49.265625 50.4375 45.09375 
Q 46.96875 40.921875 40.578125 39.3125 
z
" id="DejaVuSans-51"/>
      </defs>
      <g transform="translate(347.958642 100.631488)scale(0.1 -0.1)">
       <use xlink:href="#DejaVuSans-51"/>
       <use x="63.623047" xlink:href="#DejaVuSans-46"/>
       <use x="95.410156" xlink:href="#DejaVuSans-48"/>
      </g>
     </g>
    </g>
    <g id="ytick_22">
     <g id="line2d_30">
      <g>
       <use style="stroke:#000000;stroke-width:0.8;" x="370.861767" xlink:href="#m6511000c4a" y="48.046851"/>
      </g>
     </g>
     <g id="text_30">
      <!-- 3.5 -->
      <g transform="translate(347.958642 51.846069)scale(0.1 -0.1)">
       <use xlink:href="#DejaVuSans-51"/>
       <use x="63.623047" xlink:href="#DejaVuSans-46"/>
       <use x="95.410156" xlink:href="#DejaVuSans-53"/>
      </g>
     </g>
    </g>
   </g>
   <g id="line2d_31">
    <path clip-path="url(#p6c53c4ac5e)" d="M 374.640383 32.109423 
L 375.381288 56.252928 
L 376.122193 75.999509 
L 376.863098 103.404507 
L 377.604003 115.732673 
L 378.344908 130.207603 
L 379.085813 144.892056 
L 379.826719 159.015149 
L 380.567624 172.128576 
L 381.308529 184.330868 
L 382.049434 197.396442 
L 382.790339 210.472795 
L 383.531244 221.26871 
L 384.272149 230.977348 
L 385.013054 238.757028 
L 385.753959 245.727163 
L 386.494864 251.703115 
L 387.235769 254.797679 
L 387.976674 256.690084 
L 388.717579 258.935472 
L 389.458484 260.408567 
L 390.199389 263.197843 
L 390.940294 266.356504 
L 391.681199 270.211766 
L 392.422105 276.688818 
L 393.16301 283.777657 
L 393.903915 290.665945 
L 394.64482 298.333736 
L 395.385725 304.046496 
L 396.12663 308.625462 
L 396.867535 311.930577 
L 397.60844 311.272665 
L 398.349345 307.619251 
L 399.09025 301.951913 
L 399.831155 293.770178 
L 400.57206 285.890591 
L 401.312965 277.191464 
L 402.05387 266.843289 
L 402.794775 257.441221 
L 403.53568 249.948303 
L 404.276586 243.386248 
L 405.017491 238.817458 
L 405.758396 235.771559 
L 406.499301 234.871785 
L 407.240206 236.20288 
L 407.981111 238.911516 
L 408.722016 240.760017 
L 409.462921 242.875425 
L 410.203826 244.355663 
L 410.944731 244.976003 
L 411.685636 244.072982 
L 412.426541 243.607782 
L 413.167446 243.192889 
L 413.908351 244.361081 
L 414.649256 245.811782 
L 415.390161 247.789457 
L 416.131067 250.343393 
L 416.871972 255.444565 
L 417.612877 257.642204 
L 418.353782 256.773017 
L 419.094687 253.874522 
L 419.835592 249.480854 
L 420.576497 243.843299 
L 421.317402 237.276765 
L 422.058307 227.895244 
L 422.799212 223.986672 
L 423.540117 224.638361 
L 424.281022 227.771974 
L 425.021927 232.721653 
L 425.762832 239.220919 
L 426.503737 247.241065 
L 427.244642 257.751159 
L 427.985548 265.131453 
L 428.726453 271.019536 
L 429.467358 274.802024 
L 430.208263 277.762633 
L 430.949168 279.669459 
L 431.690073 280.097849 
L 432.430978 279.246741 
L 433.171883 280.314274 
L 433.912788 280.891943 
L 434.653693 283.265073 
L 435.394598 285.382322 
L 436.135503 287.486824 
L 436.876408 289.625643 
L 437.617313 290.800372 
L 438.358218 290.70781 
L 439.099123 290.792181 
L 439.840028 288.408269 
L 440.580934 284.511475 
L 441.321839 278.921753 
L 442.062744 272.898928 
L 442.803649 268.141502 
L 443.544554 264.108006 
L 444.285459 260.280244 
L 445.026364 258.784237 
L 445.767269 260.043429 
L 446.508174 263.14448 
L 447.249079 267.313395 
L 447.989984 271.658191 
L 448.730889 277.041576 
L 449.471794 280.506363 
L 450.212699 283.814896 
" style="fill:none;stroke:#ff0000;stroke-linecap:square;stroke-width:1.5;"/>
   </g>
   <g id="patch_219">
    <path d="M 370.861767 325.921635 
L 370.861767 18.118365 
" style="fill:none;stroke:#000000;stroke-linecap:square;stroke-linejoin:miter;stroke-width:0.8;"/>
   </g>
   <g id="patch_220">
    <path d="M 453.991315 325.921635 
L 453.991315 18.118365 
" style="fill:none;stroke:#000000;stroke-linecap:square;stroke-linejoin:miter;stroke-width:0.8;"/>
   </g>
   <g id="patch_221">
    <path d="M 370.861767 325.921635 
L 453.991315 325.921635 
" style="fill:none;stroke:#000000;stroke-linecap:square;stroke-linejoin:miter;stroke-width:0.8;"/>
   </g>
   <g id="patch_222">
    <path d="M 370.861767 18.118365 
L 453.991315 18.118365 
" style="fill:none;stroke:#000000;stroke-linecap:square;stroke-linejoin:miter;stroke-width:0.8;"/>
   </g>
   <g id="text_31">
    <!-- r0 - RS - (data) -->
    <defs>
     <path d="M 41.109375 46.296875 
Q 39.59375 47.171875 37.8125 47.578125 
Q 36.03125 48 33.890625 48 
Q 26.265625 48 22.1875 43.046875 
Q 18.109375 38.09375 18.109375 28.8125 
L 18.109375 0 
L 9.078125 0 
L 9.078125 54.6875 
L 18.109375 54.6875 
L 18.109375 46.1875 
Q 20.953125 51.171875 25.484375 53.578125 
Q 30.03125 56 36.53125 56 
Q 37.453125 56 38.578125 55.875 
Q 39.703125 55.765625 41.0625 55.515625 
z
" id="DejaVuSans-114"/>
    </defs>
    <g transform="translate(368.010604 12.118365)scale(0.12 -0.12)">
     <use xlink:href="#DejaVuSans-114"/>
     <use x="41.113281" xlink:href="#DejaVuSans-48"/>
     <use x="104.736328" xlink:href="#DejaVuSans-32"/>
     <use x="136.523438" xlink:href="#DejaVuSans-45"/>
     <use x="172.607422" xlink:href="#DejaVuSans-32"/>
     <use x="204.394531" xlink:href="#DejaVuSans-82"/>
     <use x="273.876953" xlink:href="#DejaVuSans-83"/>
     <use x="337.353516" xlink:href="#DejaVuSans-32"/>
     <use x="369.140625" xlink:href="#DejaVuSans-45"/>
     <use x="405.224609" xlink:href="#DejaVuSans-32"/>
     <use x="437.011719" xlink:href="#DejaVuSans-40"/>
     <use x="476.025391" xlink:href="#DejaVuSans-100"/>
     <use x="539.501953" xlink:href="#DejaVuSans-97"/>
     <use x="600.78125" xlink:href="#DejaVuSans-116"/>
     <use x="639.990234" xlink:href="#DejaVuSans-97"/>
     <use x="701.269531" xlink:href="#DejaVuSans-41"/>
    </g>
   </g>
  </g>
 </g>
 <defs>
  <clipPath id="p189b9a37bc">
   <rect height="307.80327" width="83.129548" x="51.886064" y="18.118365"/>
  </clipPath>
  <clipPath id="pe3dee3e87c">
   <rect height="307.80327" width="83.129548" x="225.423916" y="18.118365"/>
  </clipPath>
  <clipPath id="p6c53c4ac5e">
   <rect height="307.80327" width="83.129548" x="370.861767" y="18.118365"/>
  </clipPath>
 </defs>
</svg>
