<?xml version="1.0" encoding="utf-8" standalone="no"?>
<!DOCTYPE svg PUBLIC "-//W3C//DTD SVG 1.1//EN"
  "http://www.w3.org/Graphics/SVG/1.1/DTD/svg11.dtd">
<!-- Created with matplotlib (https://matplotlib.org/) -->
<svg height="345.6pt" version="1.1" viewBox="0 0 460.8 345.6" width="460.8pt" xmlns="http://www.w3.org/2000/svg" xmlns:xlink="http://www.w3.org/1999/xlink">
 <defs>
  <style type="text/css">
*{stroke-linecap:butt;stroke-linejoin:round;}
  </style>
 </defs>
 <g id="figure_1">
  <g id="patch_1">
   <path d="M 0 345.6 
L 460.8 345.6 
L 460.8 0 
L 0 0 
z
" style="fill:#ffffff;"/>
  </g>
  <g id="axes_1">
   <g id="patch_2">
    <path d="M 51.329384 325.921635 
L 135.10495 325.921635 
L 135.10495 18.118365 
L 51.329384 18.118365 
z
" style="fill:#ffffff;"/>
   </g>
   <g id="patch_3">
    <path clip-path="url(#p44fb3ab187)" d="M 55.137365 325.921635 
L 55.747862 325.921635 
L 55.747862 325.855112 
L 55.137365 325.855112 
z
" style="fill:#1f77b4;"/>
   </g>
   <g id="patch_4">
    <path clip-path="url(#p44fb3ab187)" d="M 55.900487 325.921635 
L 56.510985 325.921635 
L 56.510985 325.821851 
L 55.900487 325.821851 
z
" style="fill:#1f77b4;"/>
   </g>
   <g id="patch_5">
    <path clip-path="url(#p44fb3ab187)" d="M 56.663609 325.921635 
L 57.274107 325.921635 
L 57.274107 325.80522 
L 56.663609 325.80522 
z
" style="fill:#1f77b4;"/>
   </g>
   <g id="patch_6">
    <path clip-path="url(#p44fb3ab187)" d="M 57.426731 325.921635 
L 58.037229 325.921635 
L 58.037229 325.80522 
L 57.426731 325.80522 
z
" style="fill:#1f77b4;"/>
   </g>
   <g id="patch_7">
    <path clip-path="url(#p44fb3ab187)" d="M 58.189854 325.921635 
L 58.800352 325.921635 
L 58.800352 325.755328 
L 58.189854 325.755328 
z
" style="fill:#1f77b4;"/>
   </g>
   <g id="patch_8">
    <path clip-path="url(#p44fb3ab187)" d="M 58.952976 325.921635 
L 59.563474 325.921635 
L 59.563474 325.589022 
L 58.952976 325.589022 
z
" style="fill:#1f77b4;"/>
   </g>
   <g id="patch_9">
    <path clip-path="url(#p44fb3ab187)" d="M 59.716098 325.921635 
L 60.326596 325.921635 
L 60.326596 325.572391 
L 59.716098 325.572391 
z
" style="fill:#1f77b4;"/>
   </g>
   <g id="patch_10">
    <path clip-path="url(#p44fb3ab187)" d="M 60.479221 325.921635 
L 61.089718 325.921635 
L 61.089718 325.073471 
L 60.479221 325.073471 
z
" style="fill:#1f77b4;"/>
   </g>
   <g id="patch_11">
    <path clip-path="url(#p44fb3ab187)" d="M 61.242343 325.921635 
L 61.852841 325.921635 
L 61.852841 324.973687 
L 61.242343 324.973687 
z
" style="fill:#1f77b4;"/>
   </g>
   <g id="patch_12">
    <path clip-path="url(#p44fb3ab187)" d="M 62.005465 325.921635 
L 62.615963 325.921635 
L 62.615963 324.79075 
L 62.005465 324.79075 
z
" style="fill:#1f77b4;"/>
   </g>
   <g id="patch_13">
    <path clip-path="url(#p44fb3ab187)" d="M 62.768588 325.921635 
L 63.379085 325.921635 
L 63.379085 324.142154 
L 62.768588 324.142154 
z
" style="fill:#1f77b4;"/>
   </g>
   <g id="patch_14">
    <path clip-path="url(#p44fb3ab187)" d="M 63.53171 325.921635 
L 64.142208 325.921635 
L 64.142208 324.108893 
L 63.53171 324.108893 
z
" style="fill:#1f77b4;"/>
   </g>
   <g id="patch_15">
    <path clip-path="url(#p44fb3ab187)" d="M 64.294832 325.921635 
L 64.90533 325.921635 
L 64.90533 323.892694 
L 64.294832 323.892694 
z
" style="fill:#1f77b4;"/>
   </g>
   <g id="patch_16">
    <path clip-path="url(#p44fb3ab187)" d="M 65.057954 325.921635 
L 65.668452 325.921635 
L 65.668452 323.443667 
L 65.057954 323.443667 
z
" style="fill:#1f77b4;"/>
   </g>
   <g id="patch_17">
    <path clip-path="url(#p44fb3ab187)" d="M 65.821077 325.921635 
L 66.431575 325.921635 
L 66.431575 322.861593 
L 65.821077 322.861593 
z
" style="fill:#1f77b4;"/>
   </g>
   <g id="patch_18">
    <path clip-path="url(#p44fb3ab187)" d="M 66.584199 325.921635 
L 67.194697 325.921635 
L 67.194697 322.695287 
L 66.584199 322.695287 
z
" style="fill:#1f77b4;"/>
   </g>
   <g id="patch_19">
    <path clip-path="url(#p44fb3ab187)" d="M 67.347321 325.921635 
L 67.957819 325.921635 
L 67.957819 322.645395 
L 67.347321 322.645395 
z
" style="fill:#1f77b4;"/>
   </g>
   <g id="patch_20">
    <path clip-path="url(#p44fb3ab187)" d="M 68.110444 325.921635 
L 68.720941 325.921635 
L 68.720941 322.27952 
L 68.110444 322.27952 
z
" style="fill:#1f77b4;"/>
   </g>
   <g id="patch_21">
    <path clip-path="url(#p44fb3ab187)" d="M 68.873566 325.921635 
L 69.484064 325.921635 
L 69.484064 322.01343 
L 68.873566 322.01343 
z
" style="fill:#1f77b4;"/>
   </g>
   <g id="patch_22">
    <path clip-path="url(#p44fb3ab187)" d="M 69.636688 325.921635 
L 70.247186 325.921635 
L 70.247186 321.813862 
L 69.636688 321.813862 
z
" style="fill:#1f77b4;"/>
   </g>
   <g id="patch_23">
    <path clip-path="url(#p44fb3ab187)" d="M 70.39981 325.921635 
L 71.010308 325.921635 
L 71.010308 321.248419 
L 70.39981 321.248419 
z
" style="fill:#1f77b4;"/>
   </g>
   <g id="patch_24">
    <path clip-path="url(#p44fb3ab187)" d="M 71.162933 325.921635 
L 71.773431 325.921635 
L 71.773431 320.366994 
L 71.162933 320.366994 
z
" style="fill:#1f77b4;"/>
   </g>
   <g id="patch_25">
    <path clip-path="url(#p44fb3ab187)" d="M 71.926055 325.921635 
L 72.536553 325.921635 
L 72.536553 319.984489 
L 71.926055 319.984489 
z
" style="fill:#1f77b4;"/>
   </g>
   <g id="patch_26">
    <path clip-path="url(#p44fb3ab187)" d="M 72.689177 325.921635 
L 73.299675 325.921635 
L 73.299675 319.618615 
L 72.689177 319.618615 
z
" style="fill:#1f77b4;"/>
   </g>
   <g id="patch_27">
    <path clip-path="url(#p44fb3ab187)" d="M 73.4523 325.921635 
L 74.062797 325.921635 
L 74.062797 318.98665 
L 73.4523 318.98665 
z
" style="fill:#1f77b4;"/>
   </g>
   <g id="patch_28">
    <path clip-path="url(#p44fb3ab187)" d="M 74.215422 325.921635 
L 74.82592 325.921635 
L 74.82592 318.321423 
L 74.215422 318.321423 
z
" style="fill:#1f77b4;"/>
   </g>
   <g id="patch_29">
    <path clip-path="url(#p44fb3ab187)" d="M 74.978544 325.921635 
L 75.589042 325.921635 
L 75.589042 317.589674 
L 74.978544 317.589674 
z
" style="fill:#1f77b4;"/>
   </g>
   <g id="patch_30">
    <path clip-path="url(#p44fb3ab187)" d="M 75.741666 325.921635 
L 76.352164 325.921635 
L 76.352164 314.396587 
L 75.741666 314.396587 
z
" style="fill:#1f77b4;"/>
   </g>
   <g id="patch_31">
    <path clip-path="url(#p44fb3ab187)" d="M 76.504789 325.921635 
L 77.115287 325.921635 
L 77.115287 313.747992 
L 76.504789 313.747992 
z
" style="fill:#1f77b4;"/>
   </g>
   <g id="patch_32">
    <path clip-path="url(#p44fb3ab187)" d="M 77.267911 325.921635 
L 77.878409 325.921635 
L 77.878409 313.149288 
L 77.267911 313.149288 
z
" style="fill:#1f77b4;"/>
   </g>
   <g id="patch_33">
    <path clip-path="url(#p44fb3ab187)" d="M 78.031033 325.921635 
L 78.641531 325.921635 
L 78.641531 312.999612 
L 78.031033 312.999612 
z
" style="fill:#1f77b4;"/>
   </g>
   <g id="patch_34">
    <path clip-path="url(#p44fb3ab187)" d="M 78.794156 325.921635 
L 79.404653 325.921635 
L 79.404653 312.184709 
L 78.794156 312.184709 
z
" style="fill:#1f77b4;"/>
   </g>
   <g id="patch_35">
    <path clip-path="url(#p44fb3ab187)" d="M 79.557278 325.921635 
L 80.167776 325.921635 
L 80.167776 311.735682 
L 79.557278 311.735682 
z
" style="fill:#1f77b4;"/>
   </g>
   <g id="patch_36">
    <path clip-path="url(#p44fb3ab187)" d="M 80.3204 325.921635 
L 80.930898 325.921635 
L 80.930898 311.220131 
L 80.3204 311.220131 
z
" style="fill:#1f77b4;"/>
   </g>
   <g id="patch_37">
    <path clip-path="url(#p44fb3ab187)" d="M 81.083523 325.921635 
L 81.69402 325.921635 
L 81.69402 310.521643 
L 81.083523 310.521643 
z
" style="fill:#1f77b4;"/>
   </g>
   <g id="patch_38">
    <path clip-path="url(#p44fb3ab187)" d="M 81.846645 325.921635 
L 82.457143 325.921635 
L 82.457143 309.92294 
L 81.846645 309.92294 
z
" style="fill:#1f77b4;"/>
   </g>
   <g id="patch_39">
    <path clip-path="url(#p44fb3ab187)" d="M 82.609767 325.921635 
L 83.220265 325.921635 
L 83.220265 309.706741 
L 82.609767 309.706741 
z
" style="fill:#1f77b4;"/>
   </g>
   <g id="patch_40">
    <path clip-path="url(#p44fb3ab187)" d="M 83.372889 325.921635 
L 83.983387 325.921635 
L 83.983387 308.875208 
L 83.372889 308.875208 
z
" style="fill:#1f77b4;"/>
   </g>
   <g id="patch_41">
    <path clip-path="url(#p44fb3ab187)" d="M 84.136012 325.921635 
L 84.74651 325.921635 
L 84.74651 308.243243 
L 84.136012 308.243243 
z
" style="fill:#1f77b4;"/>
   </g>
   <g id="patch_42">
    <path clip-path="url(#p44fb3ab187)" d="M 84.899134 325.921635 
L 85.509632 325.921635 
L 85.509632 307.777584 
L 84.899134 307.777584 
z
" style="fill:#1f77b4;"/>
   </g>
   <g id="patch_43">
    <path clip-path="url(#p44fb3ab187)" d="M 85.662256 325.921635 
L 86.272754 325.921635 
L 86.272754 307.378449 
L 85.662256 307.378449 
z
" style="fill:#1f77b4;"/>
   </g>
   <g id="patch_44">
    <path clip-path="url(#p44fb3ab187)" d="M 86.425379 325.921635 
L 87.035876 325.921635 
L 87.035876 306.463762 
L 86.425379 306.463762 
z
" style="fill:#1f77b4;"/>
   </g>
   <g id="patch_45">
    <path clip-path="url(#p44fb3ab187)" d="M 87.188501 325.921635 
L 87.798999 325.921635 
L 87.798999 305.815166 
L 87.188501 305.815166 
z
" style="fill:#1f77b4;"/>
   </g>
   <g id="patch_46">
    <path clip-path="url(#p44fb3ab187)" d="M 87.951623 325.921635 
L 88.562121 325.921635 
L 88.562121 305.382769 
L 87.951623 305.382769 
z
" style="fill:#1f77b4;"/>
   </g>
   <g id="patch_47">
    <path clip-path="url(#p44fb3ab187)" d="M 88.714745 325.921635 
L 89.325243 325.921635 
L 89.325243 303.686442 
L 88.714745 303.686442 
z
" style="fill:#1f77b4;"/>
   </g>
   <g id="patch_48">
    <path clip-path="url(#p44fb3ab187)" d="M 89.477868 325.921635 
L 90.088366 325.921635 
L 90.088366 301.37478 
L 89.477868 301.37478 
z
" style="fill:#1f77b4;"/>
   </g>
   <g id="patch_49">
    <path clip-path="url(#p44fb3ab187)" d="M 90.24099 325.921635 
L 90.851488 325.921635 
L 90.851488 292.743467 
L 90.24099 292.743467 
z
" style="fill:#1f77b4;"/>
   </g>
   <g id="patch_50">
    <path clip-path="url(#p44fb3ab187)" d="M 91.004112 325.921635 
L 91.61461 325.921635 
L 91.61461 291.246708 
L 91.004112 291.246708 
z
" style="fill:#1f77b4;"/>
   </g>
   <g id="patch_51">
    <path clip-path="url(#p44fb3ab187)" d="M 91.767235 325.921635 
L 92.377732 325.921635 
L 92.377732 290.930725 
L 91.767235 290.930725 
z
" style="fill:#1f77b4;"/>
   </g>
   <g id="patch_52">
    <path clip-path="url(#p44fb3ab187)" d="M 92.530357 325.921635 
L 93.140855 325.921635 
L 93.140855 286.906106 
L 92.530357 286.906106 
z
" style="fill:#1f77b4;"/>
   </g>
   <g id="patch_53">
    <path clip-path="url(#p44fb3ab187)" d="M 93.293479 325.921635 
L 93.903977 325.921635 
L 93.903977 286.906106 
L 93.293479 286.906106 
z
" style="fill:#1f77b4;"/>
   </g>
   <g id="patch_54">
    <path clip-path="url(#p44fb3ab187)" d="M 94.056601 325.921635 
L 94.667099 325.921635 
L 94.667099 284.029001 
L 94.056601 284.029001 
z
" style="fill:#1f77b4;"/>
   </g>
   <g id="patch_55">
    <path clip-path="url(#p44fb3ab187)" d="M 94.819724 325.921635 
L 95.430222 325.921635 
L 95.430222 282.299413 
L 94.819724 282.299413 
z
" style="fill:#1f77b4;"/>
   </g>
   <g id="patch_56">
    <path clip-path="url(#p44fb3ab187)" d="M 95.582846 325.921635 
L 96.193344 325.921635 
L 96.193344 277.409998 
L 95.582846 277.409998 
z
" style="fill:#1f77b4;"/>
   </g>
   <g id="patch_57">
    <path clip-path="url(#p44fb3ab187)" d="M 96.345968 325.921635 
L 96.956466 325.921635 
L 96.956466 274.665939 
L 96.345968 274.665939 
z
" style="fill:#1f77b4;"/>
   </g>
   <g id="patch_58">
    <path clip-path="url(#p44fb3ab187)" d="M 97.109091 325.921635 
L 97.719588 325.921635 
L 97.719588 272.620368 
L 97.109091 272.620368 
z
" style="fill:#1f77b4;"/>
   </g>
   <g id="patch_59">
    <path clip-path="url(#p44fb3ab187)" d="M 97.872213 325.921635 
L 98.482711 325.921635 
L 98.482711 269.843048 
L 97.872213 269.843048 
z
" style="fill:#1f77b4;"/>
   </g>
   <g id="patch_60">
    <path clip-path="url(#p44fb3ab187)" d="M 98.635335 325.921635 
L 99.245833 325.921635 
L 99.245833 268.8951 
L 98.635335 268.8951 
z
" style="fill:#1f77b4;"/>
   </g>
   <g id="patch_61">
    <path clip-path="url(#p44fb3ab187)" d="M 99.398458 325.921635 
L 100.008955 325.921635 
L 100.008955 267.232034 
L 99.398458 267.232034 
z
" style="fill:#1f77b4;"/>
   </g>
   <g id="patch_62">
    <path clip-path="url(#p44fb3ab187)" d="M 100.16158 325.921635 
L 100.772078 325.921635 
L 100.772078 263.839379 
L 100.16158 263.839379 
z
" style="fill:#1f77b4;"/>
   </g>
   <g id="patch_63">
    <path clip-path="url(#p44fb3ab187)" d="M 100.924702 325.921635 
L 101.5352 325.921635 
L 101.5352 262.259467 
L 100.924702 262.259467 
z
" style="fill:#1f77b4;"/>
   </g>
   <g id="patch_64">
    <path clip-path="url(#p44fb3ab187)" d="M 101.687824 325.921635 
L 102.298322 325.921635 
L 102.298322 253.877614 
L 101.687824 253.877614 
z
" style="fill:#1f77b4;"/>
   </g>
   <g id="patch_65">
    <path clip-path="url(#p44fb3ab187)" d="M 102.450947 325.921635 
L 103.061445 325.921635 
L 103.061445 250.052562 
L 102.450947 250.052562 
z
" style="fill:#1f77b4;"/>
   </g>
   <g id="patch_66">
    <path clip-path="url(#p44fb3ab187)" d="M 103.214069 325.921635 
L 103.824567 325.921635 
L 103.824567 248.123405 
L 103.214069 248.123405 
z
" style="fill:#1f77b4;"/>
   </g>
   <g id="patch_67">
    <path clip-path="url(#p44fb3ab187)" d="M 103.977191 325.921635 
L 104.587689 325.921635 
L 104.587689 246.493601 
L 103.977191 246.493601 
z
" style="fill:#1f77b4;"/>
   </g>
   <g id="patch_68">
    <path clip-path="url(#p44fb3ab187)" d="M 104.740314 325.921635 
L 105.350811 325.921635 
L 105.350811 239.857967 
L 104.740314 239.857967 
z
" style="fill:#1f77b4;"/>
   </g>
   <g id="patch_69">
    <path clip-path="url(#p44fb3ab187)" d="M 105.503436 325.921635 
L 106.113934 325.921635 
L 106.113934 235.89987 
L 105.503436 235.89987 
z
" style="fill:#1f77b4;"/>
   </g>
   <g id="patch_70">
    <path clip-path="url(#p44fb3ab187)" d="M 106.266558 325.921635 
L 106.877056 325.921635 
L 106.877056 234.469633 
L 106.266558 234.469633 
z
" style="fill:#1f77b4;"/>
   </g>
   <g id="patch_71">
    <path clip-path="url(#p44fb3ab187)" d="M 107.02968 325.921635 
L 107.640178 325.921635 
L 107.640178 232.62363 
L 107.02968 232.62363 
z
" style="fill:#1f77b4;"/>
   </g>
   <g id="patch_72">
    <path clip-path="url(#p44fb3ab187)" d="M 107.792803 325.921635 
L 108.403301 325.921635 
L 108.403301 218.52083 
L 107.792803 218.52083 
z
" style="fill:#1f77b4;"/>
   </g>
   <g id="patch_73">
    <path clip-path="url(#p44fb3ab187)" d="M 108.555925 325.921635 
L 109.166423 325.921635 
L 109.166423 216.042861 
L 108.555925 216.042861 
z
" style="fill:#1f77b4;"/>
   </g>
   <g id="patch_74">
    <path clip-path="url(#p44fb3ab187)" d="M 109.319047 325.921635 
L 109.929545 325.921635 
L 109.929545 214.562733 
L 109.319047 214.562733 
z
" style="fill:#1f77b4;"/>
   </g>
   <g id="patch_75">
    <path clip-path="url(#p44fb3ab187)" d="M 110.08217 325.921635 
L 110.692667 325.921635 
L 110.692667 211.585844 
L 110.08217 211.585844 
z
" style="fill:#1f77b4;"/>
   </g>
   <g id="patch_76">
    <path clip-path="url(#p44fb3ab187)" d="M 110.845292 325.921635 
L 111.45579 325.921635 
L 111.45579 209.240921 
L 110.845292 209.240921 
z
" style="fill:#1f77b4;"/>
   </g>
   <g id="patch_77">
    <path clip-path="url(#p44fb3ab187)" d="M 111.608414 325.921635 
L 112.218912 325.921635 
L 112.218912 203.320406 
L 111.608414 203.320406 
z
" style="fill:#1f77b4;"/>
   </g>
   <g id="patch_78">
    <path clip-path="url(#p44fb3ab187)" d="M 112.371536 325.921635 
L 112.982034 325.921635 
L 112.982034 192.876351 
L 112.371536 192.876351 
z
" style="fill:#1f77b4;"/>
   </g>
   <g id="patch_79">
    <path clip-path="url(#p44fb3ab187)" d="M 113.134659 325.921635 
L 113.745157 325.921635 
L 113.745157 184.062101 
L 113.134659 184.062101 
z
" style="fill:#1f77b4;"/>
   </g>
   <g id="patch_80">
    <path clip-path="url(#p44fb3ab187)" d="M 113.897781 325.921635 
L 114.508279 325.921635 
L 114.508279 179.937697 
L 113.897781 179.937697 
z
" style="fill:#1f77b4;"/>
   </g>
   <g id="patch_81">
    <path clip-path="url(#p44fb3ab187)" d="M 114.660903 325.921635 
L 115.271401 325.921635 
L 115.271401 175.630356 
L 114.660903 175.630356 
z
" style="fill:#1f77b4;"/>
   </g>
   <g id="patch_82">
    <path clip-path="url(#p44fb3ab187)" d="M 115.424026 325.921635 
L 116.034523 325.921635 
L 116.034523 167.963622 
L 115.424026 167.963622 
z
" style="fill:#1f77b4;"/>
   </g>
   <g id="patch_83">
    <path clip-path="url(#p44fb3ab187)" d="M 116.187148 325.921635 
L 116.797646 325.921635 
L 116.797646 165.269455 
L 116.187148 165.269455 
z
" style="fill:#1f77b4;"/>
   </g>
   <g id="patch_84">
    <path clip-path="url(#p44fb3ab187)" d="M 116.95027 325.921635 
L 117.560768 325.921635 
L 117.560768 159.049588 
L 116.95027 159.049588 
z
" style="fill:#1f77b4;"/>
   </g>
   <g id="patch_85">
    <path clip-path="url(#p44fb3ab187)" d="M 117.713393 325.921635 
L 118.32389 325.921635 
L 118.32389 150.767519 
L 117.713393 150.767519 
z
" style="fill:#1f77b4;"/>
   </g>
   <g id="patch_86">
    <path clip-path="url(#p44fb3ab187)" d="M 118.476515 325.921635 
L 119.087013 325.921635 
L 119.087013 145.545492 
L 118.476515 145.545492 
z
" style="fill:#1f77b4;"/>
   </g>
   <g id="patch_87">
    <path clip-path="url(#p44fb3ab187)" d="M 119.239637 325.921635 
L 119.850135 325.921635 
L 119.850135 138.244632 
L 119.239637 138.244632 
z
" style="fill:#1f77b4;"/>
   </g>
   <g id="patch_88">
    <path clip-path="url(#p44fb3ab187)" d="M 120.002759 325.921635 
L 120.613257 325.921635 
L 120.613257 133.588047 
L 120.002759 133.588047 
z
" style="fill:#1f77b4;"/>
   </g>
   <g id="patch_89">
    <path clip-path="url(#p44fb3ab187)" d="M 120.765882 325.921635 
L 121.37638 325.921635 
L 121.37638 133.588047 
L 120.765882 133.588047 
z
" style="fill:#1f77b4;"/>
   </g>
   <g id="patch_90">
    <path clip-path="url(#p44fb3ab187)" d="M 121.529004 325.921635 
L 122.139502 325.921635 
L 122.139502 123.160623 
L 121.529004 123.160623 
z
" style="fill:#1f77b4;"/>
   </g>
   <g id="patch_91">
    <path clip-path="url(#p44fb3ab187)" d="M 122.292126 325.921635 
L 122.902624 325.921635 
L 122.902624 116.475097 
L 122.292126 116.475097 
z
" style="fill:#1f77b4;"/>
   </g>
   <g id="patch_92">
    <path clip-path="url(#p44fb3ab187)" d="M 123.055249 325.921635 
L 123.665746 325.921635 
L 123.665746 110.50469 
L 123.055249 110.50469 
z
" style="fill:#1f77b4;"/>
   </g>
   <g id="patch_93">
    <path clip-path="url(#p44fb3ab187)" d="M 123.818371 325.921635 
L 124.428869 325.921635 
L 124.428869 106.97899 
L 123.818371 106.97899 
z
" style="fill:#1f77b4;"/>
   </g>
   <g id="patch_94">
    <path clip-path="url(#p44fb3ab187)" d="M 124.581493 325.921635 
L 125.191991 325.921635 
L 125.191991 104.800373 
L 124.581493 104.800373 
z
" style="fill:#1f77b4;"/>
   </g>
   <g id="patch_95">
    <path clip-path="url(#p44fb3ab187)" d="M 125.344615 325.921635 
L 125.955113 325.921635 
L 125.955113 103.736011 
L 125.344615 103.736011 
z
" style="fill:#1f77b4;"/>
   </g>
   <g id="patch_96">
    <path clip-path="url(#p44fb3ab187)" d="M 126.107738 325.921635 
L 126.718236 325.921635 
L 126.718236 93.757615 
L 126.107738 93.757615 
z
" style="fill:#1f77b4;"/>
   </g>
   <g id="patch_97">
    <path clip-path="url(#p44fb3ab187)" d="M 126.87086 325.921635 
L 127.481358 325.921635 
L 127.481358 86.406863 
L 126.87086 86.406863 
z
" style="fill:#1f77b4;"/>
   </g>
   <g id="patch_98">
    <path clip-path="url(#p44fb3ab187)" d="M 127.633982 325.921635 
L 128.24448 325.921635 
L 128.24448 76.212268 
L 127.633982 76.212268 
z
" style="fill:#1f77b4;"/>
   </g>
   <g id="patch_99">
    <path clip-path="url(#p44fb3ab187)" d="M 128.397105 325.921635 
L 129.007602 325.921635 
L 129.007602 66.93236 
L 128.397105 66.93236 
z
" style="fill:#1f77b4;"/>
   </g>
   <g id="patch_100">
    <path clip-path="url(#p44fb3ab187)" d="M 129.160227 325.921635 
L 129.770725 325.921635 
L 129.770725 54.475995 
L 129.160227 54.475995 
z
" style="fill:#1f77b4;"/>
   </g>
   <g id="patch_101">
    <path clip-path="url(#p44fb3ab187)" d="M 129.923349 325.921635 
L 130.533847 325.921635 
L 130.533847 41.404296 
L 129.923349 41.404296 
z
" style="fill:#1f77b4;"/>
   </g>
   <g id="patch_102">
    <path clip-path="url(#p44fb3ab187)" d="M 130.686471 325.921635 
L 131.296969 325.921635 
L 131.296969 33.521363 
L 130.686471 33.521363 
z
" style="fill:#1f77b4;"/>
   </g>
   <g id="matplotlib.axis_1">
    <g id="xtick_1">
     <g id="line2d_1">
      <defs>
       <path d="M 0 0 
L 0 3.5 
" id="m7eb2a74014" style="stroke:#000000;stroke-width:0.8;"/>
      </defs>
      <g>
       <use style="stroke:#000000;stroke-width:0.8;" x="55.442614" xlink:href="#m7eb2a74014" y="325.921635"/>
      </g>
     </g>
     <g id="text_1">
      <!-- 0 -->
      <defs>
       <path d="M 31.78125 66.40625 
Q 24.171875 66.40625 20.328125 58.90625 
Q 16.5 51.421875 16.5 36.375 
Q 16.5 21.390625 20.328125 13.890625 
Q 24.171875 6.390625 31.78125 6.390625 
Q 39.453125 6.390625 43.28125 13.890625 
Q 47.125 21.390625 47.125 36.375 
Q 47.125 51.421875 43.28125 58.90625 
Q 39.453125 66.40625 31.78125 66.40625 
z
M 31.78125 74.21875 
Q 44.046875 74.21875 50.515625 64.515625 
Q 56.984375 54.828125 56.984375 36.375 
Q 56.984375 17.96875 50.515625 8.265625 
Q 44.046875 -1.421875 31.78125 -1.421875 
Q 19.53125 -1.421875 13.0625 8.265625 
Q 6.59375 17.96875 6.59375 36.375 
Q 6.59375 54.828125 13.0625 64.515625 
Q 19.53125 74.21875 31.78125 74.21875 
z
" id="DejaVuSans-48"/>
      </defs>
      <g transform="translate(52.261364 340.520072)scale(0.1 -0.1)">
       <use xlink:href="#DejaVuSans-48"/>
      </g>
     </g>
    </g>
    <g id="xtick_2">
     <g id="line2d_2">
      <g>
       <use style="stroke:#000000;stroke-width:0.8;" x="131.754843" xlink:href="#m7eb2a74014" y="325.921635"/>
      </g>
     </g>
     <g id="text_2">
      <!-- 100 -->
      <defs>
       <path d="M 12.40625 8.296875 
L 28.515625 8.296875 
L 28.515625 63.921875 
L 10.984375 60.40625 
L 10.984375 69.390625 
L 28.421875 72.90625 
L 38.28125 72.90625 
L 38.28125 8.296875 
L 54.390625 8.296875 
L 54.390625 0 
L 12.40625 0 
z
" id="DejaVuSans-49"/>
      </defs>
      <g transform="translate(122.211093 340.520072)scale(0.1 -0.1)">
       <use xlink:href="#DejaVuSans-49"/>
       <use x="63.623047" xlink:href="#DejaVuSans-48"/>
       <use x="127.246094" xlink:href="#DejaVuSans-48"/>
      </g>
     </g>
    </g>
   </g>
   <g id="matplotlib.axis_2">
    <g id="ytick_1">
     <g id="line2d_3">
      <defs>
       <path d="M 0 0 
L -3.5 0 
" id="m69a4f4d708" style="stroke:#000000;stroke-width:0.8;"/>
      </defs>
      <g>
       <use style="stroke:#000000;stroke-width:0.8;" x="51.329384" xlink:href="#m69a4f4d708" y="325.921635"/>
      </g>
     </g>
     <g id="text_3">
      <!-- 0 -->
      <g transform="translate(37.966884 329.720854)scale(0.1 -0.1)">
       <use xlink:href="#DejaVuSans-48"/>
      </g>
     </g>
    </g>
    <g id="ytick_2">
     <g id="line2d_4">
      <g>
       <use style="stroke:#000000;stroke-width:0.8;" x="51.329384" xlink:href="#m69a4f4d708" y="284.344984"/>
      </g>
     </g>
     <g id="text_4">
      <!-- 2500 -->
      <defs>
       <path d="M 19.1875 8.296875 
L 53.609375 8.296875 
L 53.609375 0 
L 7.328125 0 
L 7.328125 8.296875 
Q 12.9375 14.109375 22.625 23.890625 
Q 32.328125 33.6875 34.8125 36.53125 
Q 39.546875 41.84375 41.421875 45.53125 
Q 43.3125 49.21875 43.3125 52.78125 
Q 43.3125 58.59375 39.234375 62.25 
Q 35.15625 65.921875 28.609375 65.921875 
Q 23.96875 65.921875 18.8125 64.3125 
Q 13.671875 62.703125 7.8125 59.421875 
L 7.8125 69.390625 
Q 13.765625 71.78125 18.9375 73 
Q 24.125 74.21875 28.421875 74.21875 
Q 39.75 74.21875 46.484375 68.546875 
Q 53.21875 62.890625 53.21875 53.421875 
Q 53.21875 48.921875 51.53125 44.890625 
Q 49.859375 40.875 45.40625 35.40625 
Q 44.1875 33.984375 37.640625 27.21875 
Q 31.109375 20.453125 19.1875 8.296875 
z
" id="DejaVuSans-50"/>
       <path d="M 10.796875 72.90625 
L 49.515625 72.90625 
L 49.515625 64.59375 
L 19.828125 64.59375 
L 19.828125 46.734375 
Q 21.96875 47.46875 24.109375 47.828125 
Q 26.265625 48.1875 28.421875 48.1875 
Q 40.625 48.1875 47.75 41.5 
Q 54.890625 34.8125 54.890625 23.390625 
Q 54.890625 11.625 47.5625 5.09375 
Q 40.234375 -1.421875 26.90625 -1.421875 
Q 22.3125 -1.421875 17.546875 -0.640625 
Q 12.796875 0.140625 7.71875 1.703125 
L 7.71875 11.625 
Q 12.109375 9.234375 16.796875 8.0625 
Q 21.484375 6.890625 26.703125 6.890625 
Q 35.15625 6.890625 40.078125 11.328125 
Q 45.015625 15.765625 45.015625 23.390625 
Q 45.015625 31 40.078125 35.4375 
Q 35.15625 39.890625 26.703125 39.890625 
Q 22.75 39.890625 18.8125 39.015625 
Q 14.890625 38.140625 10.796875 36.28125 
z
" id="DejaVuSans-53"/>
      </defs>
      <g transform="translate(18.879384 288.144203)scale(0.1 -0.1)">
       <use xlink:href="#DejaVuSans-50"/>
       <use x="63.623047" xlink:href="#DejaVuSans-53"/>
       <use x="127.246094" xlink:href="#DejaVuSans-48"/>
       <use x="190.869141" xlink:href="#DejaVuSans-48"/>
      </g>
     </g>
    </g>
    <g id="ytick_3">
     <g id="line2d_5">
      <g>
       <use style="stroke:#000000;stroke-width:0.8;" x="51.329384" xlink:href="#m69a4f4d708" y="242.768333"/>
      </g>
     </g>
     <g id="text_5">
      <!-- 5000 -->
      <g transform="translate(18.879384 246.567551)scale(0.1 -0.1)">
       <use xlink:href="#DejaVuSans-53"/>
       <use x="63.623047" xlink:href="#DejaVuSans-48"/>
       <use x="127.246094" xlink:href="#DejaVuSans-48"/>
       <use x="190.869141" xlink:href="#DejaVuSans-48"/>
      </g>
     </g>
    </g>
    <g id="ytick_4">
     <g id="line2d_6">
      <g>
       <use style="stroke:#000000;stroke-width:0.8;" x="51.329384" xlink:href="#m69a4f4d708" y="201.191682"/>
      </g>
     </g>
     <g id="text_6">
      <!-- 7500 -->
      <defs>
       <path d="M 8.203125 72.90625 
L 55.078125 72.90625 
L 55.078125 68.703125 
L 28.609375 0 
L 18.3125 0 
L 43.21875 64.59375 
L 8.203125 64.59375 
z
" id="DejaVuSans-55"/>
      </defs>
      <g transform="translate(18.879384 204.9909)scale(0.1 -0.1)">
       <use xlink:href="#DejaVuSans-55"/>
       <use x="63.623047" xlink:href="#DejaVuSans-53"/>
       <use x="127.246094" xlink:href="#DejaVuSans-48"/>
       <use x="190.869141" xlink:href="#DejaVuSans-48"/>
      </g>
     </g>
    </g>
    <g id="ytick_5">
     <g id="line2d_7">
      <g>
       <use style="stroke:#000000;stroke-width:0.8;" x="51.329384" xlink:href="#m69a4f4d708" y="159.61503"/>
      </g>
     </g>
     <g id="text_7">
      <!-- 10000 -->
      <g transform="translate(12.516884 163.414249)scale(0.1 -0.1)">
       <use xlink:href="#DejaVuSans-49"/>
       <use x="63.623047" xlink:href="#DejaVuSans-48"/>
       <use x="127.246094" xlink:href="#DejaVuSans-48"/>
       <use x="190.869141" xlink:href="#DejaVuSans-48"/>
       <use x="254.492188" xlink:href="#DejaVuSans-48"/>
      </g>
     </g>
    </g>
    <g id="ytick_6">
     <g id="line2d_8">
      <g>
       <use style="stroke:#000000;stroke-width:0.8;" x="51.329384" xlink:href="#m69a4f4d708" y="118.038379"/>
      </g>
     </g>
     <g id="text_8">
      <!-- 12500 -->
      <g transform="translate(12.516884 121.837598)scale(0.1 -0.1)">
       <use xlink:href="#DejaVuSans-49"/>
       <use x="63.623047" xlink:href="#DejaVuSans-50"/>
       <use x="127.246094" xlink:href="#DejaVuSans-53"/>
       <use x="190.869141" xlink:href="#DejaVuSans-48"/>
       <use x="254.492188" xlink:href="#DejaVuSans-48"/>
      </g>
     </g>
    </g>
    <g id="ytick_7">
     <g id="line2d_9">
      <g>
       <use style="stroke:#000000;stroke-width:0.8;" x="51.329384" xlink:href="#m69a4f4d708" y="76.461728"/>
      </g>
     </g>
     <g id="text_9">
      <!-- 15000 -->
      <g transform="translate(12.516884 80.260947)scale(0.1 -0.1)">
       <use xlink:href="#DejaVuSans-49"/>
       <use x="63.623047" xlink:href="#DejaVuSans-53"/>
       <use x="127.246094" xlink:href="#DejaVuSans-48"/>
       <use x="190.869141" xlink:href="#DejaVuSans-48"/>
       <use x="254.492188" xlink:href="#DejaVuSans-48"/>
      </g>
     </g>
    </g>
    <g id="ytick_8">
     <g id="line2d_10">
      <g>
       <use style="stroke:#000000;stroke-width:0.8;" x="51.329384" xlink:href="#m69a4f4d708" y="34.885077"/>
      </g>
     </g>
     <g id="text_10">
      <!-- 17500 -->
      <g transform="translate(12.516884 38.684296)scale(0.1 -0.1)">
       <use xlink:href="#DejaVuSans-49"/>
       <use x="63.623047" xlink:href="#DejaVuSans-55"/>
       <use x="127.246094" xlink:href="#DejaVuSans-53"/>
       <use x="190.869141" xlink:href="#DejaVuSans-48"/>
       <use x="254.492188" xlink:href="#DejaVuSans-48"/>
      </g>
     </g>
    </g>
   </g>
   <g id="line2d_11">
    <path clip-path="url(#p44fb3ab187)" d="M 55.442614 325.781781 
L 56.205736 325.73218 
L 56.968858 325.663032 
L 57.73198 325.572807 
L 58.495103 325.458747 
L 59.258225 325.319302 
L 60.021347 325.153965 
L 60.78447 324.962903 
L 61.547592 324.747632 
L 62.310714 324.510419 
L 63.073836 324.254184 
L 63.836959 323.982054 
L 64.600081 323.696077 
L 65.363203 323.397397 
L 66.126326 323.086014 
L 66.889448 322.759288 
L 67.65257 322.412503 
L 68.415692 322.038989 
L 69.178815 321.630841 
L 69.941937 321.179805 
L 70.705059 320.67756 
L 71.468182 320.116523 
L 72.231304 319.4942 
L 72.994426 318.812578 
L 73.757549 318.078315 
L 74.520671 317.30173 
L 75.283793 316.496664 
L 76.046915 315.679794 
L 76.810038 314.869747 
L 77.57316 314.080653 
L 78.336282 313.322479 
L 79.099405 312.600282 
L 79.862527 311.9151 
L 80.625649 311.26291 
L 81.388771 310.631679 
L 82.151894 310.001258 
L 82.915016 309.348112 
L 83.678138 308.643937 
L 84.441261 307.856686 
L 85.204383 306.950207 
L 85.967505 305.886898 
L 86.730627 304.639349 
L 87.49375 303.191256 
L 88.256872 301.534638 
L 89.019994 299.674498 
L 89.783117 297.627451 
L 90.546239 295.422915 
L 91.309361 293.099513 
L 92.072484 290.691579 
L 92.835606 288.226951 
L 93.598728 285.729228 
L 94.36185 283.212367 
L 95.124973 280.682214 
L 95.888095 278.131801 
L 96.651217 275.544615 
L 97.41434 272.898601 
L 98.177462 270.17483 
L 98.940584 267.353027 
L 99.703706 264.413252 
L 100.466829 261.335443 
L 101.229951 258.109171 
L 101.993073 254.73269 
L 102.756196 251.21346 
L 103.519318 247.549873 
L 104.28244 243.744797 
L 105.045562 239.806115 
L 105.808685 235.744902 
L 106.571807 231.562184 
L 107.334929 227.246759 
L 108.098052 222.779498 
L 108.861174 218.155495 
L 109.624296 213.366863 
L 110.387419 208.40242 
L 111.150541 203.251556 
L 111.913663 197.919923 
L 112.676785 192.428903 
L 113.439908 186.810115 
L 114.20303 181.090214 
L 114.966152 175.297993 
L 115.729275 169.468659 
L 116.492397 163.642171 
L 117.255519 157.842123 
L 118.018641 152.085573 
L 118.781764 146.383667 
L 119.544886 140.74365 
L 120.308008 135.165314 
L 121.071131 129.626777 
L 121.834253 124.077899 
L 122.597375 118.463247 
L 123.360497 112.706351 
L 124.12362 106.714596 
L 124.886742 100.386765 
L 125.649864 93.622436 
L 126.412987 86.344282 
L 127.176109 78.529755 
L 127.939231 70.170621 
L 128.702354 61.290285 
L 129.465476 52.069515 
L 130.228598 42.546298 
L 130.99172 32.775664 
" style="fill:none;stroke:#ff0000;stroke-linecap:square;stroke-width:1.5;"/>
   </g>
   <g id="patch_103">
    <path d="M 51.329384 325.921635 
L 51.329384 18.118365 
" style="fill:none;stroke:#000000;stroke-linecap:square;stroke-linejoin:miter;stroke-width:0.8;"/>
   </g>
   <g id="patch_104">
    <path d="M 135.10495 325.921635 
L 135.10495 18.118365 
" style="fill:none;stroke:#000000;stroke-linecap:square;stroke-linejoin:miter;stroke-width:0.8;"/>
   </g>
   <g id="patch_105">
    <path d="M 51.329384 325.921635 
L 135.10495 325.921635 
" style="fill:none;stroke:#000000;stroke-linecap:square;stroke-linejoin:miter;stroke-width:0.8;"/>
   </g>
   <g id="patch_106">
    <path d="M 51.329384 18.118365 
L 135.10495 18.118365 
" style="fill:none;stroke:#000000;stroke-linecap:square;stroke-linejoin:miter;stroke-width:0.8;"/>
   </g>
   <g id="text_11">
    <!-- Casos acumulados - SC - (data) -->
    <defs>
     <path d="M 64.40625 67.28125 
L 64.40625 56.890625 
Q 59.421875 61.53125 53.78125 63.8125 
Q 48.140625 66.109375 41.796875 66.109375 
Q 29.296875 66.109375 22.65625 58.46875 
Q 16.015625 50.828125 16.015625 36.375 
Q 16.015625 21.96875 22.65625 14.328125 
Q 29.296875 6.6875 41.796875 6.6875 
Q 48.140625 6.6875 53.78125 8.984375 
Q 59.421875 11.28125 64.40625 15.921875 
L 64.40625 5.609375 
Q 59.234375 2.09375 53.4375 0.328125 
Q 47.65625 -1.421875 41.21875 -1.421875 
Q 24.65625 -1.421875 15.125 8.703125 
Q 5.609375 18.84375 5.609375 36.375 
Q 5.609375 53.953125 15.125 64.078125 
Q 24.65625 74.21875 41.21875 74.21875 
Q 47.75 74.21875 53.53125 72.484375 
Q 59.328125 70.75 64.40625 67.28125 
z
" id="DejaVuSans-67"/>
     <path d="M 34.28125 27.484375 
Q 23.390625 27.484375 19.1875 25 
Q 14.984375 22.515625 14.984375 16.5 
Q 14.984375 11.71875 18.140625 8.90625 
Q 21.296875 6.109375 26.703125 6.109375 
Q 34.1875 6.109375 38.703125 11.40625 
Q 43.21875 16.703125 43.21875 25.484375 
L 43.21875 27.484375 
z
M 52.203125 31.203125 
L 52.203125 0 
L 43.21875 0 
L 43.21875 8.296875 
Q 40.140625 3.328125 35.546875 0.953125 
Q 30.953125 -1.421875 24.3125 -1.421875 
Q 15.921875 -1.421875 10.953125 3.296875 
Q 6 8.015625 6 15.921875 
Q 6 25.140625 12.171875 29.828125 
Q 18.359375 34.515625 30.609375 34.515625 
L 43.21875 34.515625 
L 43.21875 35.40625 
Q 43.21875 41.609375 39.140625 45 
Q 35.0625 48.390625 27.6875 48.390625 
Q 23 48.390625 18.546875 47.265625 
Q 14.109375 46.140625 10.015625 43.890625 
L 10.015625 52.203125 
Q 14.9375 54.109375 19.578125 55.046875 
Q 24.21875 56 28.609375 56 
Q 40.484375 56 46.34375 49.84375 
Q 52.203125 43.703125 52.203125 31.203125 
z
" id="DejaVuSans-97"/>
     <path d="M 44.28125 53.078125 
L 44.28125 44.578125 
Q 40.484375 46.53125 36.375 47.5 
Q 32.28125 48.484375 27.875 48.484375 
Q 21.1875 48.484375 17.84375 46.4375 
Q 14.5 44.390625 14.5 40.28125 
Q 14.5 37.15625 16.890625 35.375 
Q 19.28125 33.59375 26.515625 31.984375 
L 29.59375 31.296875 
Q 39.15625 29.25 43.1875 25.515625 
Q 47.21875 21.78125 47.21875 15.09375 
Q 47.21875 7.46875 41.1875 3.015625 
Q 35.15625 -1.421875 24.609375 -1.421875 
Q 20.21875 -1.421875 15.453125 -0.5625 
Q 10.6875 0.296875 5.421875 2 
L 5.421875 11.28125 
Q 10.40625 8.6875 15.234375 7.390625 
Q 20.0625 6.109375 24.8125 6.109375 
Q 31.15625 6.109375 34.5625 8.28125 
Q 37.984375 10.453125 37.984375 14.40625 
Q 37.984375 18.0625 35.515625 20.015625 
Q 33.0625 21.96875 24.703125 23.78125 
L 21.578125 24.515625 
Q 13.234375 26.265625 9.515625 29.90625 
Q 5.8125 33.546875 5.8125 39.890625 
Q 5.8125 47.609375 11.28125 51.796875 
Q 16.75 56 26.8125 56 
Q 31.78125 56 36.171875 55.265625 
Q 40.578125 54.546875 44.28125 53.078125 
z
" id="DejaVuSans-115"/>
     <path d="M 30.609375 48.390625 
Q 23.390625 48.390625 19.1875 42.75 
Q 14.984375 37.109375 14.984375 27.296875 
Q 14.984375 17.484375 19.15625 11.84375 
Q 23.34375 6.203125 30.609375 6.203125 
Q 37.796875 6.203125 41.984375 11.859375 
Q 46.1875 17.53125 46.1875 27.296875 
Q 46.1875 37.015625 41.984375 42.703125 
Q 37.796875 48.390625 30.609375 48.390625 
z
M 30.609375 56 
Q 42.328125 56 49.015625 48.375 
Q 55.71875 40.765625 55.71875 27.296875 
Q 55.71875 13.875 49.015625 6.21875 
Q 42.328125 -1.421875 30.609375 -1.421875 
Q 18.84375 -1.421875 12.171875 6.21875 
Q 5.515625 13.875 5.515625 27.296875 
Q 5.515625 40.765625 12.171875 48.375 
Q 18.84375 56 30.609375 56 
z
" id="DejaVuSans-111"/>
     <path id="DejaVuSans-32"/>
     <path d="M 48.78125 52.59375 
L 48.78125 44.1875 
Q 44.96875 46.296875 41.140625 47.34375 
Q 37.3125 48.390625 33.40625 48.390625 
Q 24.65625 48.390625 19.8125 42.84375 
Q 14.984375 37.3125 14.984375 27.296875 
Q 14.984375 17.28125 19.8125 11.734375 
Q 24.65625 6.203125 33.40625 6.203125 
Q 37.3125 6.203125 41.140625 7.25 
Q 44.96875 8.296875 48.78125 10.40625 
L 48.78125 2.09375 
Q 45.015625 0.34375 40.984375 -0.53125 
Q 36.96875 -1.421875 32.421875 -1.421875 
Q 20.0625 -1.421875 12.78125 6.34375 
Q 5.515625 14.109375 5.515625 27.296875 
Q 5.515625 40.671875 12.859375 48.328125 
Q 20.21875 56 33.015625 56 
Q 37.15625 56 41.109375 55.140625 
Q 45.0625 54.296875 48.78125 52.59375 
z
" id="DejaVuSans-99"/>
     <path d="M 8.5 21.578125 
L 8.5 54.6875 
L 17.484375 54.6875 
L 17.484375 21.921875 
Q 17.484375 14.15625 20.5 10.265625 
Q 23.53125 6.390625 29.59375 6.390625 
Q 36.859375 6.390625 41.078125 11.03125 
Q 45.3125 15.671875 45.3125 23.6875 
L 45.3125 54.6875 
L 54.296875 54.6875 
L 54.296875 0 
L 45.3125 0 
L 45.3125 8.40625 
Q 42.046875 3.421875 37.71875 1 
Q 33.40625 -1.421875 27.6875 -1.421875 
Q 18.265625 -1.421875 13.375 4.4375 
Q 8.5 10.296875 8.5 21.578125 
z
M 31.109375 56 
z
" id="DejaVuSans-117"/>
     <path d="M 52 44.1875 
Q 55.375 50.25 60.0625 53.125 
Q 64.75 56 71.09375 56 
Q 79.640625 56 84.28125 50.015625 
Q 88.921875 44.046875 88.921875 33.015625 
L 88.921875 0 
L 79.890625 0 
L 79.890625 32.71875 
Q 79.890625 40.578125 77.09375 44.375 
Q 74.3125 48.1875 68.609375 48.1875 
Q 61.625 48.1875 57.5625 43.546875 
Q 53.515625 38.921875 53.515625 30.90625 
L 53.515625 0 
L 44.484375 0 
L 44.484375 32.71875 
Q 44.484375 40.625 41.703125 44.40625 
Q 38.921875 48.1875 33.109375 48.1875 
Q 26.21875 48.1875 22.15625 43.53125 
Q 18.109375 38.875 18.109375 30.90625 
L 18.109375 0 
L 9.078125 0 
L 9.078125 54.6875 
L 18.109375 54.6875 
L 18.109375 46.1875 
Q 21.1875 51.21875 25.484375 53.609375 
Q 29.78125 56 35.6875 56 
Q 41.65625 56 45.828125 52.96875 
Q 50 49.953125 52 44.1875 
z
" id="DejaVuSans-109"/>
     <path d="M 9.421875 75.984375 
L 18.40625 75.984375 
L 18.40625 0 
L 9.421875 0 
z
" id="DejaVuSans-108"/>
     <path d="M 45.40625 46.390625 
L 45.40625 75.984375 
L 54.390625 75.984375 
L 54.390625 0 
L 45.40625 0 
L 45.40625 8.203125 
Q 42.578125 3.328125 38.25 0.953125 
Q 33.9375 -1.421875 27.875 -1.421875 
Q 17.96875 -1.421875 11.734375 6.484375 
Q 5.515625 14.40625 5.515625 27.296875 
Q 5.515625 40.1875 11.734375 48.09375 
Q 17.96875 56 27.875 56 
Q 33.9375 56 38.25 53.625 
Q 42.578125 51.265625 45.40625 46.390625 
z
M 14.796875 27.296875 
Q 14.796875 17.390625 18.875 11.75 
Q 22.953125 6.109375 30.078125 6.109375 
Q 37.203125 6.109375 41.296875 11.75 
Q 45.40625 17.390625 45.40625 27.296875 
Q 45.40625 37.203125 41.296875 42.84375 
Q 37.203125 48.484375 30.078125 48.484375 
Q 22.953125 48.484375 18.875 42.84375 
Q 14.796875 37.203125 14.796875 27.296875 
z
" id="DejaVuSans-100"/>
     <path d="M 4.890625 31.390625 
L 31.203125 31.390625 
L 31.203125 23.390625 
L 4.890625 23.390625 
z
" id="DejaVuSans-45"/>
     <path d="M 53.515625 70.515625 
L 53.515625 60.890625 
Q 47.90625 63.578125 42.921875 64.890625 
Q 37.9375 66.21875 33.296875 66.21875 
Q 25.25 66.21875 20.875 63.09375 
Q 16.5 59.96875 16.5 54.203125 
Q 16.5 49.359375 19.40625 46.890625 
Q 22.3125 44.4375 30.421875 42.921875 
L 36.375 41.703125 
Q 47.40625 39.59375 52.65625 34.296875 
Q 57.90625 29 57.90625 20.125 
Q 57.90625 9.515625 50.796875 4.046875 
Q 43.703125 -1.421875 29.984375 -1.421875 
Q 24.8125 -1.421875 18.96875 -0.25 
Q 13.140625 0.921875 6.890625 3.21875 
L 6.890625 13.375 
Q 12.890625 10.015625 18.65625 8.296875 
Q 24.421875 6.59375 29.984375 6.59375 
Q 38.421875 6.59375 43.015625 9.90625 
Q 47.609375 13.234375 47.609375 19.390625 
Q 47.609375 24.75 44.3125 27.78125 
Q 41.015625 30.8125 33.5 32.328125 
L 27.484375 33.5 
Q 16.453125 35.6875 11.515625 40.375 
Q 6.59375 45.0625 6.59375 53.421875 
Q 6.59375 63.09375 13.40625 68.65625 
Q 20.21875 74.21875 32.171875 74.21875 
Q 37.3125 74.21875 42.625 73.28125 
Q 47.953125 72.359375 53.515625 70.515625 
z
" id="DejaVuSans-83"/>
     <path d="M 31 75.875 
Q 24.46875 64.65625 21.28125 53.65625 
Q 18.109375 42.671875 18.109375 31.390625 
Q 18.109375 20.125 21.3125 9.0625 
Q 24.515625 -2 31 -13.1875 
L 23.1875 -13.1875 
Q 15.875 -1.703125 12.234375 9.375 
Q 8.59375 20.453125 8.59375 31.390625 
Q 8.59375 42.28125 12.203125 53.3125 
Q 15.828125 64.359375 23.1875 75.875 
z
" id="DejaVuSans-40"/>
     <path d="M 18.3125 70.21875 
L 18.3125 54.6875 
L 36.8125 54.6875 
L 36.8125 47.703125 
L 18.3125 47.703125 
L 18.3125 18.015625 
Q 18.3125 11.328125 20.140625 9.421875 
Q 21.96875 7.515625 27.59375 7.515625 
L 36.8125 7.515625 
L 36.8125 0 
L 27.59375 0 
Q 17.1875 0 13.234375 3.875 
Q 9.28125 7.765625 9.28125 18.015625 
L 9.28125 47.703125 
L 2.6875 47.703125 
L 2.6875 54.6875 
L 9.28125 54.6875 
L 9.28125 70.21875 
z
" id="DejaVuSans-116"/>
     <path d="M 8.015625 75.875 
L 15.828125 75.875 
Q 23.140625 64.359375 26.78125 53.3125 
Q 30.421875 42.28125 30.421875 31.390625 
Q 30.421875 20.453125 26.78125 9.375 
Q 23.140625 -1.703125 15.828125 -13.1875 
L 8.015625 -13.1875 
Q 14.5 -2 17.703125 9.0625 
Q 20.90625 20.125 20.90625 31.390625 
Q 20.90625 42.671875 17.703125 53.65625 
Q 14.5 64.65625 8.015625 75.875 
z
" id="DejaVuSans-41"/>
    </defs>
    <g transform="translate(-1.006271 12.118365)scale(0.12 -0.12)">
     <use xlink:href="#DejaVuSans-67"/>
     <use x="69.824219" xlink:href="#DejaVuSans-97"/>
     <use x="131.103516" xlink:href="#DejaVuSans-115"/>
     <use x="183.203125" xlink:href="#DejaVuSans-111"/>
     <use x="244.384766" xlink:href="#DejaVuSans-115"/>
     <use x="296.484375" xlink:href="#DejaVuSans-32"/>
     <use x="328.271484" xlink:href="#DejaVuSans-97"/>
     <use x="389.550781" xlink:href="#DejaVuSans-99"/>
     <use x="444.53125" xlink:href="#DejaVuSans-117"/>
     <use x="507.910156" xlink:href="#DejaVuSans-109"/>
     <use x="605.322266" xlink:href="#DejaVuSans-117"/>
     <use x="668.701172" xlink:href="#DejaVuSans-108"/>
     <use x="696.484375" xlink:href="#DejaVuSans-97"/>
     <use x="757.763672" xlink:href="#DejaVuSans-100"/>
     <use x="821.240234" xlink:href="#DejaVuSans-111"/>
     <use x="882.421875" xlink:href="#DejaVuSans-115"/>
     <use x="934.521484" xlink:href="#DejaVuSans-32"/>
     <use x="966.308594" xlink:href="#DejaVuSans-45"/>
     <use x="1002.392578" xlink:href="#DejaVuSans-32"/>
     <use x="1034.179688" xlink:href="#DejaVuSans-83"/>
     <use x="1097.65625" xlink:href="#DejaVuSans-67"/>
     <use x="1167.480469" xlink:href="#DejaVuSans-32"/>
     <use x="1199.267578" xlink:href="#DejaVuSans-45"/>
     <use x="1235.351562" xlink:href="#DejaVuSans-32"/>
     <use x="1267.138672" xlink:href="#DejaVuSans-40"/>
     <use x="1306.152344" xlink:href="#DejaVuSans-100"/>
     <use x="1369.628906" xlink:href="#DejaVuSans-97"/>
     <use x="1430.908203" xlink:href="#DejaVuSans-116"/>
     <use x="1470.117188" xlink:href="#DejaVuSans-97"/>
     <use x="1531.396484" xlink:href="#DejaVuSans-41"/>
    </g>
   </g>
  </g>
  <g id="axes_2">
   <g id="patch_107">
    <path d="M 222.282593 325.921635 
L 306.058159 325.921635 
L 306.058159 18.118365 
L 222.282593 18.118365 
z
" style="fill:#ffffff;"/>
   </g>
   <g id="patch_108">
    <path clip-path="url(#pb5aa30e2bd)" d="M 226.090574 325.921635 
L 226.701071 325.921635 
L 226.701071 325.230253 
L 226.090574 325.230253 
z
" style="fill:#1f77b4;"/>
   </g>
   <g id="patch_109">
    <path clip-path="url(#pb5aa30e2bd)" d="M 226.853696 325.921635 
L 227.464194 325.921635 
L 227.464194 325.230253 
L 226.853696 325.230253 
z
" style="fill:#1f77b4;"/>
   </g>
   <g id="patch_110">
    <path clip-path="url(#pb5aa30e2bd)" d="M 227.616818 325.921635 
L 228.227316 325.921635 
L 228.227316 325.575944 
L 227.616818 325.575944 
z
" style="fill:#1f77b4;"/>
   </g>
   <g id="patch_111">
    <path clip-path="url(#pb5aa30e2bd)" d="M 228.37994 325.921635 
L 228.990438 325.921635 
L 228.990438 325.921635 
L 228.37994 325.921635 
z
" style="fill:#1f77b4;"/>
   </g>
   <g id="patch_112">
    <path clip-path="url(#pb5aa30e2bd)" d="M 229.143063 325.921635 
L 229.753561 325.921635 
L 229.753561 324.884562 
L 229.143063 324.884562 
z
" style="fill:#1f77b4;"/>
   </g>
   <g id="patch_113">
    <path clip-path="url(#pb5aa30e2bd)" d="M 229.906185 325.921635 
L 230.516683 325.921635 
L 230.516683 322.464725 
L 229.906185 322.464725 
z
" style="fill:#1f77b4;"/>
   </g>
   <g id="patch_114">
    <path clip-path="url(#pb5aa30e2bd)" d="M 230.669307 325.921635 
L 231.279805 325.921635 
L 231.279805 325.575944 
L 230.669307 325.575944 
z
" style="fill:#1f77b4;"/>
   </g>
   <g id="patch_115">
    <path clip-path="url(#pb5aa30e2bd)" d="M 231.43243 325.921635 
L 232.042927 325.921635 
L 232.042927 315.550905 
L 231.43243 315.550905 
z
" style="fill:#1f77b4;"/>
   </g>
   <g id="patch_116">
    <path clip-path="url(#pb5aa30e2bd)" d="M 232.195552 325.921635 
L 232.80605 325.921635 
L 232.80605 323.847489 
L 232.195552 323.847489 
z
" style="fill:#1f77b4;"/>
   </g>
   <g id="patch_117">
    <path clip-path="url(#pb5aa30e2bd)" d="M 232.958674 325.921635 
L 233.569172 325.921635 
L 233.569172 322.119034 
L 232.958674 322.119034 
z
" style="fill:#1f77b4;"/>
   </g>
   <g id="patch_118">
    <path clip-path="url(#pb5aa30e2bd)" d="M 233.721796 325.921635 
L 234.332294 325.921635 
L 234.332294 312.439686 
L 233.721796 312.439686 
z
" style="fill:#1f77b4;"/>
   </g>
   <g id="patch_119">
    <path clip-path="url(#pb5aa30e2bd)" d="M 234.484919 325.921635 
L 235.095417 325.921635 
L 235.095417 325.230253 
L 234.484919 325.230253 
z
" style="fill:#1f77b4;"/>
   </g>
   <g id="patch_120">
    <path clip-path="url(#pb5aa30e2bd)" d="M 235.248041 325.921635 
L 235.858539 325.921635 
L 235.858539 321.427652 
L 235.248041 321.427652 
z
" style="fill:#1f77b4;"/>
   </g>
   <g id="patch_121">
    <path clip-path="url(#pb5aa30e2bd)" d="M 236.011163 325.921635 
L 236.621661 325.921635 
L 236.621661 316.587978 
L 236.011163 316.587978 
z
" style="fill:#1f77b4;"/>
   </g>
   <g id="patch_122">
    <path clip-path="url(#pb5aa30e2bd)" d="M 236.774286 325.921635 
L 237.384783 325.921635 
L 237.384783 313.82245 
L 236.774286 313.82245 
z
" style="fill:#1f77b4;"/>
   </g>
   <g id="patch_123">
    <path clip-path="url(#pb5aa30e2bd)" d="M 237.537408 325.921635 
L 238.147906 325.921635 
L 238.147906 322.464725 
L 237.537408 322.464725 
z
" style="fill:#1f77b4;"/>
   </g>
   <g id="patch_124">
    <path clip-path="url(#pb5aa30e2bd)" d="M 238.30053 325.921635 
L 238.911028 325.921635 
L 238.911028 324.884562 
L 238.30053 324.884562 
z
" style="fill:#1f77b4;"/>
   </g>
   <g id="patch_125">
    <path clip-path="url(#pb5aa30e2bd)" d="M 239.063652 325.921635 
L 239.67415 325.921635 
L 239.67415 318.316433 
L 239.063652 318.316433 
z
" style="fill:#1f77b4;"/>
   </g>
   <g id="patch_126">
    <path clip-path="url(#pb5aa30e2bd)" d="M 239.826775 325.921635 
L 240.437273 325.921635 
L 240.437273 320.390579 
L 239.826775 320.390579 
z
" style="fill:#1f77b4;"/>
   </g>
   <g id="patch_127">
    <path clip-path="url(#pb5aa30e2bd)" d="M 240.589897 325.921635 
L 241.200395 325.921635 
L 241.200395 321.773343 
L 240.589897 321.773343 
z
" style="fill:#1f77b4;"/>
   </g>
   <g id="patch_128">
    <path clip-path="url(#pb5aa30e2bd)" d="M 241.353019 325.921635 
L 241.963517 325.921635 
L 241.963517 314.168141 
L 241.353019 314.168141 
z
" style="fill:#1f77b4;"/>
   </g>
   <g id="patch_129">
    <path clip-path="url(#pb5aa30e2bd)" d="M 242.116142 325.921635 
L 242.726639 325.921635 
L 242.726639 307.600012 
L 242.116142 307.600012 
z
" style="fill:#1f77b4;"/>
   </g>
   <g id="patch_130">
    <path clip-path="url(#pb5aa30e2bd)" d="M 242.879264 325.921635 
L 243.489762 325.921635 
L 243.489762 317.970742 
L 242.879264 317.970742 
z
" style="fill:#1f77b4;"/>
   </g>
   <g id="patch_131">
    <path clip-path="url(#pb5aa30e2bd)" d="M 243.642386 325.921635 
L 244.252884 325.921635 
L 244.252884 318.316433 
L 243.642386 318.316433 
z
" style="fill:#1f77b4;"/>
   </g>
   <g id="patch_132">
    <path clip-path="url(#pb5aa30e2bd)" d="M 244.405509 325.921635 
L 245.016006 325.921635 
L 245.016006 312.785377 
L 244.405509 312.785377 
z
" style="fill:#1f77b4;"/>
   </g>
   <g id="patch_133">
    <path clip-path="url(#pb5aa30e2bd)" d="M 245.168631 325.921635 
L 245.779129 325.921635 
L 245.779129 312.093995 
L 245.168631 312.093995 
z
" style="fill:#1f77b4;"/>
   </g>
   <g id="patch_134">
    <path clip-path="url(#pb5aa30e2bd)" d="M 245.931753 325.921635 
L 246.542251 325.921635 
L 246.542251 310.711231 
L 245.931753 310.711231 
z
" style="fill:#1f77b4;"/>
   </g>
   <g id="patch_135">
    <path clip-path="url(#pb5aa30e2bd)" d="M 246.694875 325.921635 
L 247.305373 325.921635 
L 247.305373 259.548962 
L 246.694875 259.548962 
z
" style="fill:#1f77b4;"/>
   </g>
   <g id="patch_136">
    <path clip-path="url(#pb5aa30e2bd)" d="M 247.457998 325.921635 
L 248.068496 325.921635 
L 248.068496 312.439686 
L 247.457998 312.439686 
z
" style="fill:#1f77b4;"/>
   </g>
   <g id="patch_137">
    <path clip-path="url(#pb5aa30e2bd)" d="M 248.22112 325.921635 
L 248.831618 325.921635 
L 248.831618 313.476759 
L 248.22112 313.476759 
z
" style="fill:#1f77b4;"/>
   </g>
   <g id="patch_138">
    <path clip-path="url(#pb5aa30e2bd)" d="M 248.984242 325.921635 
L 249.59474 325.921635 
L 249.59474 322.810416 
L 248.984242 322.810416 
z
" style="fill:#1f77b4;"/>
   </g>
   <g id="patch_139">
    <path clip-path="url(#pb5aa30e2bd)" d="M 249.747365 325.921635 
L 250.357862 325.921635 
L 250.357862 308.982776 
L 249.747365 308.982776 
z
" style="fill:#1f77b4;"/>
   </g>
   <g id="patch_140">
    <path clip-path="url(#pb5aa30e2bd)" d="M 250.510487 325.921635 
L 251.120985 325.921635 
L 251.120985 316.587978 
L 250.510487 316.587978 
z
" style="fill:#1f77b4;"/>
   </g>
   <g id="patch_141">
    <path clip-path="url(#pb5aa30e2bd)" d="M 251.273609 325.921635 
L 251.884107 325.921635 
L 251.884107 315.205214 
L 251.273609 315.205214 
z
" style="fill:#1f77b4;"/>
   </g>
   <g id="patch_142">
    <path clip-path="url(#pb5aa30e2bd)" d="M 252.036731 325.921635 
L 252.647229 325.921635 
L 252.647229 311.402613 
L 252.036731 311.402613 
z
" style="fill:#1f77b4;"/>
   </g>
   <g id="patch_143">
    <path clip-path="url(#pb5aa30e2bd)" d="M 252.799854 325.921635 
L 253.410352 325.921635 
L 253.410352 313.476759 
L 252.799854 313.476759 
z
" style="fill:#1f77b4;"/>
   </g>
   <g id="patch_144">
    <path clip-path="url(#pb5aa30e2bd)" d="M 253.562976 325.921635 
L 254.173474 325.921635 
L 254.173474 321.427652 
L 253.562976 321.427652 
z
" style="fill:#1f77b4;"/>
   </g>
   <g id="patch_145">
    <path clip-path="url(#pb5aa30e2bd)" d="M 254.326098 325.921635 
L 254.936596 325.921635 
L 254.936596 308.637085 
L 254.326098 308.637085 
z
" style="fill:#1f77b4;"/>
   </g>
   <g id="patch_146">
    <path clip-path="url(#pb5aa30e2bd)" d="M 255.089221 325.921635 
L 255.699718 325.921635 
L 255.699718 312.785377 
L 255.089221 312.785377 
z
" style="fill:#1f77b4;"/>
   </g>
   <g id="patch_147">
    <path clip-path="url(#pb5aa30e2bd)" d="M 255.852343 325.921635 
L 256.462841 325.921635 
L 256.462841 316.242287 
L 255.852343 316.242287 
z
" style="fill:#1f77b4;"/>
   </g>
   <g id="patch_148">
    <path clip-path="url(#pb5aa30e2bd)" d="M 256.615465 325.921635 
L 257.225963 325.921635 
L 257.225963 317.625051 
L 256.615465 317.625051 
z
" style="fill:#1f77b4;"/>
   </g>
   <g id="patch_149">
    <path clip-path="url(#pb5aa30e2bd)" d="M 257.378588 325.921635 
L 257.989085 325.921635 
L 257.989085 306.90863 
L 257.378588 306.90863 
z
" style="fill:#1f77b4;"/>
   </g>
   <g id="patch_150">
    <path clip-path="url(#pb5aa30e2bd)" d="M 258.14171 325.921635 
L 258.752208 325.921635 
L 258.752208 312.439686 
L 258.14171 312.439686 
z
" style="fill:#1f77b4;"/>
   </g>
   <g id="patch_151">
    <path clip-path="url(#pb5aa30e2bd)" d="M 258.904832 325.921635 
L 259.51533 325.921635 
L 259.51533 316.933669 
L 258.904832 316.933669 
z
" style="fill:#1f77b4;"/>
   </g>
   <g id="patch_152">
    <path clip-path="url(#pb5aa30e2bd)" d="M 259.667954 325.921635 
L 260.278452 325.921635 
L 260.278452 290.661153 
L 259.667954 290.661153 
z
" style="fill:#1f77b4;"/>
   </g>
   <g id="patch_153">
    <path clip-path="url(#pb5aa30e2bd)" d="M 260.431077 325.921635 
L 261.041575 325.921635 
L 261.041575 277.870585 
L 260.431077 277.870585 
z
" style="fill:#1f77b4;"/>
   </g>
   <g id="patch_154">
    <path clip-path="url(#pb5aa30e2bd)" d="M 261.194199 325.921635 
L 261.804697 325.921635 
L 261.804697 146.508004 
L 261.194199 146.508004 
z
" style="fill:#1f77b4;"/>
   </g>
   <g id="patch_155">
    <path clip-path="url(#pb5aa30e2bd)" d="M 261.957321 325.921635 
L 262.567819 325.921635 
L 262.567819 294.809445 
L 261.957321 294.809445 
z
" style="fill:#1f77b4;"/>
   </g>
   <g id="patch_156">
    <path clip-path="url(#pb5aa30e2bd)" d="M 262.720444 325.921635 
L 263.330941 325.921635 
L 263.330941 319.353506 
L 262.720444 319.353506 
z
" style="fill:#1f77b4;"/>
   </g>
   <g id="patch_157">
    <path clip-path="url(#pb5aa30e2bd)" d="M 263.483566 325.921635 
L 264.094064 325.921635 
L 264.094064 242.264412 
L 263.483566 242.264412 
z
" style="fill:#1f77b4;"/>
   </g>
   <g id="patch_158">
    <path clip-path="url(#pb5aa30e2bd)" d="M 264.246688 325.921635 
L 264.857186 325.921635 
L 264.857186 325.921635 
L 264.246688 325.921635 
z
" style="fill:#1f77b4;"/>
   </g>
   <g id="patch_159">
    <path clip-path="url(#pb5aa30e2bd)" d="M 265.00981 325.921635 
L 265.620308 325.921635 
L 265.620308 266.117091 
L 265.00981 266.117091 
z
" style="fill:#1f77b4;"/>
   </g>
   <g id="patch_160">
    <path clip-path="url(#pb5aa30e2bd)" d="M 265.772933 325.921635 
L 266.383431 325.921635 
L 266.383431 289.969771 
L 265.772933 289.969771 
z
" style="fill:#1f77b4;"/>
   </g>
   <g id="patch_161">
    <path clip-path="url(#pb5aa30e2bd)" d="M 266.536055 325.921635 
L 267.146553 325.921635 
L 267.146553 224.28848 
L 266.536055 224.28848 
z
" style="fill:#1f77b4;"/>
   </g>
   <g id="patch_162">
    <path clip-path="url(#pb5aa30e2bd)" d="M 267.299177 325.921635 
L 267.909675 325.921635 
L 267.909675 268.882619 
L 267.299177 268.882619 
z
" style="fill:#1f77b4;"/>
   </g>
   <g id="patch_163">
    <path clip-path="url(#pb5aa30e2bd)" d="M 268.0623 325.921635 
L 268.672797 325.921635 
L 268.672797 283.401642 
L 268.0623 283.401642 
z
" style="fill:#1f77b4;"/>
   </g>
   <g id="patch_164">
    <path clip-path="url(#pb5aa30e2bd)" d="M 268.825422 325.921635 
L 269.43592 325.921635 
L 269.43592 268.191237 
L 268.825422 268.191237 
z
" style="fill:#1f77b4;"/>
   </g>
   <g id="patch_165">
    <path clip-path="url(#pb5aa30e2bd)" d="M 269.588544 325.921635 
L 270.199042 325.921635 
L 270.199042 306.217248 
L 269.588544 306.217248 
z
" style="fill:#1f77b4;"/>
   </g>
   <g id="patch_166">
    <path clip-path="url(#pb5aa30e2bd)" d="M 270.351666 325.921635 
L 270.962164 325.921635 
L 270.962164 291.352535 
L 270.351666 291.352535 
z
" style="fill:#1f77b4;"/>
   </g>
   <g id="patch_167">
    <path clip-path="url(#pb5aa30e2bd)" d="M 271.114789 325.921635 
L 271.725287 325.921635 
L 271.725287 255.40067 
L 271.114789 255.40067 
z
" style="fill:#1f77b4;"/>
   </g>
   <g id="patch_168">
    <path clip-path="url(#pb5aa30e2bd)" d="M 271.877911 325.921635 
L 272.488409 325.921635 
L 272.488409 293.08099 
L 271.877911 293.08099 
z
" style="fill:#1f77b4;"/>
   </g>
   <g id="patch_169">
    <path clip-path="url(#pb5aa30e2bd)" d="M 272.641033 325.921635 
L 273.251531 325.921635 
L 273.251531 151.693369 
L 272.641033 151.693369 
z
" style="fill:#1f77b4;"/>
   </g>
   <g id="patch_170">
    <path clip-path="url(#pb5aa30e2bd)" d="M 273.404156 325.921635 
L 274.014653 325.921635 
L 274.014653 246.412704 
L 273.404156 246.412704 
z
" style="fill:#1f77b4;"/>
   </g>
   <g id="patch_171">
    <path clip-path="url(#pb5aa30e2bd)" d="M 274.167278 325.921635 
L 274.777776 325.921635 
L 274.777776 285.821479 
L 274.167278 285.821479 
z
" style="fill:#1f77b4;"/>
   </g>
   <g id="patch_172">
    <path clip-path="url(#pb5aa30e2bd)" d="M 274.9304 325.921635 
L 275.540898 325.921635 
L 275.540898 292.043917 
L 274.9304 292.043917 
z
" style="fill:#1f77b4;"/>
   </g>
   <g id="patch_173">
    <path clip-path="url(#pb5aa30e2bd)" d="M 275.693523 325.921635 
L 276.30402 325.921635 
L 276.30402 187.990924 
L 275.693523 187.990924 
z
" style="fill:#1f77b4;"/>
   </g>
   <g id="patch_174">
    <path clip-path="url(#pb5aa30e2bd)" d="M 276.456645 325.921635 
L 277.067143 325.921635 
L 277.067143 243.647176 
L 276.456645 243.647176 
z
" style="fill:#1f77b4;"/>
   </g>
   <g id="patch_175">
    <path clip-path="url(#pb5aa30e2bd)" d="M 277.219767 325.921635 
L 277.830265 325.921635 
L 277.830265 296.192209 
L 277.219767 296.192209 
z
" style="fill:#1f77b4;"/>
   </g>
   <g id="patch_176">
    <path clip-path="url(#pb5aa30e2bd)" d="M 277.982889 325.921635 
L 278.593387 325.921635 
L 278.593387 287.549934 
L 277.982889 287.549934 
z
" style="fill:#1f77b4;"/>
   </g>
   <g id="patch_177">
    <path clip-path="url(#pb5aa30e2bd)" d="M 278.746012 325.921635 
L 279.35651 325.921635 
L 279.35651 32.775664 
L 278.746012 32.775664 
z
" style="fill:#1f77b4;"/>
   </g>
   <g id="patch_178">
    <path clip-path="url(#pb5aa30e2bd)" d="M 279.509134 325.921635 
L 280.119632 325.921635 
L 280.119632 274.413675 
L 279.509134 274.413675 
z
" style="fill:#1f77b4;"/>
   </g>
   <g id="patch_179">
    <path clip-path="url(#pb5aa30e2bd)" d="M 280.272256 325.921635 
L 280.882754 325.921635 
L 280.882754 295.155136 
L 280.272256 295.155136 
z
" style="fill:#1f77b4;"/>
   </g>
   <g id="patch_180">
    <path clip-path="url(#pb5aa30e2bd)" d="M 281.035379 325.921635 
L 281.645876 325.921635 
L 281.645876 264.042945 
L 281.035379 264.042945 
z
" style="fill:#1f77b4;"/>
   </g>
   <g id="patch_181">
    <path clip-path="url(#pb5aa30e2bd)" d="M 281.798501 325.921635 
L 282.408999 325.921635 
L 282.408999 277.179203 
L 281.798501 277.179203 
z
" style="fill:#1f77b4;"/>
   </g>
   <g id="patch_182">
    <path clip-path="url(#pb5aa30e2bd)" d="M 282.561623 325.921635 
L 283.172121 325.921635 
L 283.172121 202.855638 
L 282.561623 202.855638 
z
" style="fill:#1f77b4;"/>
   </g>
   <g id="patch_183">
    <path clip-path="url(#pb5aa30e2bd)" d="M 283.324745 325.921635 
L 283.935243 325.921635 
L 283.935243 108.827684 
L 283.324745 108.827684 
z
" style="fill:#1f77b4;"/>
   </g>
   <g id="patch_184">
    <path clip-path="url(#pb5aa30e2bd)" d="M 284.087868 325.921635 
L 284.698366 325.921635 
L 284.698366 142.705403 
L 284.087868 142.705403 
z
" style="fill:#1f77b4;"/>
   </g>
   <g id="patch_185">
    <path clip-path="url(#pb5aa30e2bd)" d="M 284.85099 325.921635 
L 285.461488 325.921635 
L 285.461488 240.190266 
L 284.85099 240.190266 
z
" style="fill:#1f77b4;"/>
   </g>
   <g id="patch_186">
    <path clip-path="url(#pb5aa30e2bd)" d="M 285.614112 325.921635 
L 286.22461 325.921635 
L 286.22461 236.387665 
L 285.614112 236.387665 
z
" style="fill:#1f77b4;"/>
   </g>
   <g id="patch_187">
    <path clip-path="url(#pb5aa30e2bd)" d="M 286.377235 325.921635 
L 286.987732 325.921635 
L 286.987732 166.558082 
L 286.377235 166.558082 
z
" style="fill:#1f77b4;"/>
   </g>
   <g id="patch_188">
    <path clip-path="url(#pb5aa30e2bd)" d="M 287.140357 325.921635 
L 287.750855 325.921635 
L 287.750855 269.919692 
L 287.140357 269.919692 
z
" style="fill:#1f77b4;"/>
   </g>
   <g id="patch_189">
    <path clip-path="url(#pb5aa30e2bd)" d="M 287.903479 325.921635 
L 288.513977 325.921635 
L 288.513977 196.633199 
L 287.903479 196.633199 
z
" style="fill:#1f77b4;"/>
   </g>
   <g id="patch_190">
    <path clip-path="url(#pb5aa30e2bd)" d="M 288.666601 325.921635 
L 289.277099 325.921635 
L 289.277099 153.767515 
L 288.666601 153.767515 
z
" style="fill:#1f77b4;"/>
   </g>
   <g id="patch_191">
    <path clip-path="url(#pb5aa30e2bd)" d="M 289.429724 325.921635 
L 290.040222 325.921635 
L 290.040222 217.37466 
L 289.429724 217.37466 
z
" style="fill:#1f77b4;"/>
   </g>
   <g id="patch_192">
    <path clip-path="url(#pb5aa30e2bd)" d="M 290.192846 325.921635 
L 290.803344 325.921635 
L 290.803344 174.163284 
L 290.192846 174.163284 
z
" style="fill:#1f77b4;"/>
   </g>
   <g id="patch_193">
    <path clip-path="url(#pb5aa30e2bd)" d="M 290.955968 325.921635 
L 291.566466 325.921635 
L 291.566466 229.128154 
L 290.955968 229.128154 
z
" style="fill:#1f77b4;"/>
   </g>
   <g id="patch_194">
    <path clip-path="url(#pb5aa30e2bd)" d="M 291.719091 325.921635 
L 292.329588 325.921635 
L 292.329588 325.921635 
L 291.719091 325.921635 
z
" style="fill:#1f77b4;"/>
   </g>
   <g id="patch_195">
    <path clip-path="url(#pb5aa30e2bd)" d="M 292.482213 325.921635 
L 293.092711 325.921635 
L 293.092711 109.173375 
L 292.482213 109.173375 
z
" style="fill:#1f77b4;"/>
   </g>
   <g id="patch_196">
    <path clip-path="url(#pb5aa30e2bd)" d="M 293.245335 325.921635 
L 293.855833 325.921635 
L 293.855833 186.953851 
L 293.245335 186.953851 
z
" style="fill:#1f77b4;"/>
   </g>
   <g id="patch_197">
    <path clip-path="url(#pb5aa30e2bd)" d="M 294.008458 325.921635 
L 294.618955 325.921635 
L 294.618955 201.818565 
L 294.008458 201.818565 
z
" style="fill:#1f77b4;"/>
   </g>
   <g id="patch_198">
    <path clip-path="url(#pb5aa30e2bd)" d="M 294.77158 325.921635 
L 295.382078 325.921635 
L 295.382078 252.635142 
L 294.77158 252.635142 
z
" style="fill:#1f77b4;"/>
   </g>
   <g id="patch_199">
    <path clip-path="url(#pb5aa30e2bd)" d="M 295.534702 325.921635 
L 296.1452 325.921635 
L 296.1452 280.636113 
L 295.534702 280.636113 
z
" style="fill:#1f77b4;"/>
   </g>
   <g id="patch_200">
    <path clip-path="url(#pb5aa30e2bd)" d="M 296.297824 325.921635 
L 296.908322 325.921635 
L 296.908322 303.797411 
L 296.297824 303.797411 
z
" style="fill:#1f77b4;"/>
   </g>
   <g id="patch_201">
    <path clip-path="url(#pb5aa30e2bd)" d="M 297.060947 325.921635 
L 297.671445 325.921635 
L 297.671445 118.507033 
L 297.060947 118.507033 
z
" style="fill:#1f77b4;"/>
   </g>
   <g id="patch_202">
    <path clip-path="url(#pb5aa30e2bd)" d="M 297.824069 325.921635 
L 298.434567 325.921635 
L 298.434567 173.126211 
L 297.824069 173.126211 
z
" style="fill:#1f77b4;"/>
   </g>
   <g id="patch_203">
    <path clip-path="url(#pb5aa30e2bd)" d="M 298.587191 325.921635 
L 299.197689 325.921635 
L 299.197689 114.01305 
L 298.587191 114.01305 
z
" style="fill:#1f77b4;"/>
   </g>
   <g id="patch_204">
    <path clip-path="url(#pb5aa30e2bd)" d="M 299.350314 325.921635 
L 299.960811 325.921635 
L 299.960811 133.026055 
L 299.350314 133.026055 
z
" style="fill:#1f77b4;"/>
   </g>
   <g id="patch_205">
    <path clip-path="url(#pb5aa30e2bd)" d="M 300.113436 325.921635 
L 300.723934 325.921635 
L 300.723934 66.999073 
L 300.113436 66.999073 
z
" style="fill:#1f77b4;"/>
   </g>
   <g id="patch_206">
    <path clip-path="url(#pb5aa30e2bd)" d="M 300.876558 325.921635 
L 301.487056 325.921635 
L 301.487056 54.208506 
L 300.876558 54.208506 
z
" style="fill:#1f77b4;"/>
   </g>
   <g id="patch_207">
    <path clip-path="url(#pb5aa30e2bd)" d="M 301.63968 325.921635 
L 302.250178 325.921635 
L 302.250178 162.064099 
L 301.63968 162.064099 
z
" style="fill:#1f77b4;"/>
   </g>
   <g id="matplotlib.axis_3">
    <g id="xtick_3">
     <g id="line2d_12">
      <g>
       <use style="stroke:#000000;stroke-width:0.8;" x="226.395822" xlink:href="#m7eb2a74014" y="325.921635"/>
      </g>
     </g>
     <g id="text_12">
      <!-- 0 -->
      <g transform="translate(223.214572 340.520072)scale(0.1 -0.1)">
       <use xlink:href="#DejaVuSans-48"/>
      </g>
     </g>
    </g>
    <g id="xtick_4">
     <g id="line2d_13">
      <g>
       <use style="stroke:#000000;stroke-width:0.8;" x="302.708052" xlink:href="#m7eb2a74014" y="325.921635"/>
      </g>
     </g>
     <g id="text_13">
      <!-- 100 -->
      <g transform="translate(293.164302 340.520072)scale(0.1 -0.1)">
       <use xlink:href="#DejaVuSans-49"/>
       <use x="63.623047" xlink:href="#DejaVuSans-48"/>
       <use x="127.246094" xlink:href="#DejaVuSans-48"/>
      </g>
     </g>
    </g>
   </g>
   <g id="matplotlib.axis_4">
    <g id="ytick_9">
     <g id="line2d_14">
      <g>
       <use style="stroke:#000000;stroke-width:0.8;" x="222.282593" xlink:href="#m69a4f4d708" y="325.921635"/>
      </g>
     </g>
     <g id="text_14">
      <!-- 0 -->
      <g transform="translate(208.920093 329.720854)scale(0.1 -0.1)">
       <use xlink:href="#DejaVuSans-48"/>
      </g>
     </g>
    </g>
    <g id="ytick_10">
     <g id="line2d_15">
      <g>
       <use style="stroke:#000000;stroke-width:0.8;" x="222.282593" xlink:href="#m69a4f4d708" y="291.352535"/>
      </g>
     </g>
     <g id="text_15">
      <!-- 100 -->
      <g transform="translate(196.195093 295.151753)scale(0.1 -0.1)">
       <use xlink:href="#DejaVuSans-49"/>
       <use x="63.623047" xlink:href="#DejaVuSans-48"/>
       <use x="127.246094" xlink:href="#DejaVuSans-48"/>
      </g>
     </g>
    </g>
    <g id="ytick_11">
     <g id="line2d_16">
      <g>
       <use style="stroke:#000000;stroke-width:0.8;" x="222.282593" xlink:href="#m69a4f4d708" y="256.783434"/>
      </g>
     </g>
     <g id="text_16">
      <!-- 200 -->
      <g transform="translate(196.195093 260.582653)scale(0.1 -0.1)">
       <use xlink:href="#DejaVuSans-50"/>
       <use x="63.623047" xlink:href="#DejaVuSans-48"/>
       <use x="127.246094" xlink:href="#DejaVuSans-48"/>
      </g>
     </g>
    </g>
    <g id="ytick_12">
     <g id="line2d_17">
      <g>
       <use style="stroke:#000000;stroke-width:0.8;" x="222.282593" xlink:href="#m69a4f4d708" y="222.214334"/>
      </g>
     </g>
     <g id="text_17">
      <!-- 300 -->
      <defs>
       <path d="M 40.578125 39.3125 
Q 47.65625 37.796875 51.625 33 
Q 55.609375 28.21875 55.609375 21.1875 
Q 55.609375 10.40625 48.1875 4.484375 
Q 40.765625 -1.421875 27.09375 -1.421875 
Q 22.515625 -1.421875 17.65625 -0.515625 
Q 12.796875 0.390625 7.625 2.203125 
L 7.625 11.71875 
Q 11.71875 9.328125 16.59375 8.109375 
Q 21.484375 6.890625 26.8125 6.890625 
Q 36.078125 6.890625 40.9375 10.546875 
Q 45.796875 14.203125 45.796875 21.1875 
Q 45.796875 27.640625 41.28125 31.265625 
Q 36.765625 34.90625 28.71875 34.90625 
L 20.21875 34.90625 
L 20.21875 43.015625 
L 29.109375 43.015625 
Q 36.375 43.015625 40.234375 45.921875 
Q 44.09375 48.828125 44.09375 54.296875 
Q 44.09375 59.90625 40.109375 62.90625 
Q 36.140625 65.921875 28.71875 65.921875 
Q 24.65625 65.921875 20.015625 65.03125 
Q 15.375 64.15625 9.8125 62.3125 
L 9.8125 71.09375 
Q 15.4375 72.65625 20.34375 73.4375 
Q 25.25 74.21875 29.59375 74.21875 
Q 40.828125 74.21875 47.359375 69.109375 
Q 53.90625 64.015625 53.90625 55.328125 
Q 53.90625 49.265625 50.4375 45.09375 
Q 46.96875 40.921875 40.578125 39.3125 
z
" id="DejaVuSans-51"/>
      </defs>
      <g transform="translate(196.195093 226.013553)scale(0.1 -0.1)">
       <use xlink:href="#DejaVuSans-51"/>
       <use x="63.623047" xlink:href="#DejaVuSans-48"/>
       <use x="127.246094" xlink:href="#DejaVuSans-48"/>
      </g>
     </g>
    </g>
    <g id="ytick_13">
     <g id="line2d_18">
      <g>
       <use style="stroke:#000000;stroke-width:0.8;" x="222.282593" xlink:href="#m69a4f4d708" y="187.645233"/>
      </g>
     </g>
     <g id="text_18">
      <!-- 400 -->
      <defs>
       <path d="M 37.796875 64.3125 
L 12.890625 25.390625 
L 37.796875 25.390625 
z
M 35.203125 72.90625 
L 47.609375 72.90625 
L 47.609375 25.390625 
L 58.015625 25.390625 
L 58.015625 17.1875 
L 47.609375 17.1875 
L 47.609375 0 
L 37.796875 0 
L 37.796875 17.1875 
L 4.890625 17.1875 
L 4.890625 26.703125 
z
" id="DejaVuSans-52"/>
      </defs>
      <g transform="translate(196.195093 191.444452)scale(0.1 -0.1)">
       <use xlink:href="#DejaVuSans-52"/>
       <use x="63.623047" xlink:href="#DejaVuSans-48"/>
       <use x="127.246094" xlink:href="#DejaVuSans-48"/>
      </g>
     </g>
    </g>
    <g id="ytick_14">
     <g id="line2d_19">
      <g>
       <use style="stroke:#000000;stroke-width:0.8;" x="222.282593" xlink:href="#m69a4f4d708" y="153.076133"/>
      </g>
     </g>
     <g id="text_19">
      <!-- 500 -->
      <g transform="translate(196.195093 156.875352)scale(0.1 -0.1)">
       <use xlink:href="#DejaVuSans-53"/>
       <use x="63.623047" xlink:href="#DejaVuSans-48"/>
       <use x="127.246094" xlink:href="#DejaVuSans-48"/>
      </g>
     </g>
    </g>
    <g id="ytick_15">
     <g id="line2d_20">
      <g>
       <use style="stroke:#000000;stroke-width:0.8;" x="222.282593" xlink:href="#m69a4f4d708" y="118.507033"/>
      </g>
     </g>
     <g id="text_20">
      <!-- 600 -->
      <defs>
       <path d="M 33.015625 40.375 
Q 26.375 40.375 22.484375 35.828125 
Q 18.609375 31.296875 18.609375 23.390625 
Q 18.609375 15.53125 22.484375 10.953125 
Q 26.375 6.390625 33.015625 6.390625 
Q 39.65625 6.390625 43.53125 10.953125 
Q 47.40625 15.53125 47.40625 23.390625 
Q 47.40625 31.296875 43.53125 35.828125 
Q 39.65625 40.375 33.015625 40.375 
z
M 52.59375 71.296875 
L 52.59375 62.3125 
Q 48.875 64.0625 45.09375 64.984375 
Q 41.3125 65.921875 37.59375 65.921875 
Q 27.828125 65.921875 22.671875 59.328125 
Q 17.53125 52.734375 16.796875 39.40625 
Q 19.671875 43.65625 24.015625 45.921875 
Q 28.375 48.1875 33.59375 48.1875 
Q 44.578125 48.1875 50.953125 41.515625 
Q 57.328125 34.859375 57.328125 23.390625 
Q 57.328125 12.15625 50.6875 5.359375 
Q 44.046875 -1.421875 33.015625 -1.421875 
Q 20.359375 -1.421875 13.671875 8.265625 
Q 6.984375 17.96875 6.984375 36.375 
Q 6.984375 53.65625 15.1875 63.9375 
Q 23.390625 74.21875 37.203125 74.21875 
Q 40.921875 74.21875 44.703125 73.484375 
Q 48.484375 72.75 52.59375 71.296875 
z
" id="DejaVuSans-54"/>
      </defs>
      <g transform="translate(196.195093 122.306251)scale(0.1 -0.1)">
       <use xlink:href="#DejaVuSans-54"/>
       <use x="63.623047" xlink:href="#DejaVuSans-48"/>
       <use x="127.246094" xlink:href="#DejaVuSans-48"/>
      </g>
     </g>
    </g>
    <g id="ytick_16">
     <g id="line2d_21">
      <g>
       <use style="stroke:#000000;stroke-width:0.8;" x="222.282593" xlink:href="#m69a4f4d708" y="83.937932"/>
      </g>
     </g>
     <g id="text_21">
      <!-- 700 -->
      <g transform="translate(196.195093 87.737151)scale(0.1 -0.1)">
       <use xlink:href="#DejaVuSans-55"/>
       <use x="63.623047" xlink:href="#DejaVuSans-48"/>
       <use x="127.246094" xlink:href="#DejaVuSans-48"/>
      </g>
     </g>
    </g>
    <g id="ytick_17">
     <g id="line2d_22">
      <g>
       <use style="stroke:#000000;stroke-width:0.8;" x="222.282593" xlink:href="#m69a4f4d708" y="49.368832"/>
      </g>
     </g>
     <g id="text_22">
      <!-- 800 -->
      <defs>
       <path d="M 31.78125 34.625 
Q 24.75 34.625 20.71875 30.859375 
Q 16.703125 27.09375 16.703125 20.515625 
Q 16.703125 13.921875 20.71875 10.15625 
Q 24.75 6.390625 31.78125 6.390625 
Q 38.8125 6.390625 42.859375 10.171875 
Q 46.921875 13.96875 46.921875 20.515625 
Q 46.921875 27.09375 42.890625 30.859375 
Q 38.875 34.625 31.78125 34.625 
z
M 21.921875 38.8125 
Q 15.578125 40.375 12.03125 44.71875 
Q 8.5 49.078125 8.5 55.328125 
Q 8.5 64.0625 14.71875 69.140625 
Q 20.953125 74.21875 31.78125 74.21875 
Q 42.671875 74.21875 48.875 69.140625 
Q 55.078125 64.0625 55.078125 55.328125 
Q 55.078125 49.078125 51.53125 44.71875 
Q 48 40.375 41.703125 38.8125 
Q 48.828125 37.15625 52.796875 32.3125 
Q 56.78125 27.484375 56.78125 20.515625 
Q 56.78125 9.90625 50.3125 4.234375 
Q 43.84375 -1.421875 31.78125 -1.421875 
Q 19.734375 -1.421875 13.25 4.234375 
Q 6.78125 9.90625 6.78125 20.515625 
Q 6.78125 27.484375 10.78125 32.3125 
Q 14.796875 37.15625 21.921875 38.8125 
z
M 18.3125 54.390625 
Q 18.3125 48.734375 21.84375 45.5625 
Q 25.390625 42.390625 31.78125 42.390625 
Q 38.140625 42.390625 41.71875 45.5625 
Q 45.3125 48.734375 45.3125 54.390625 
Q 45.3125 60.0625 41.71875 63.234375 
Q 38.140625 66.40625 31.78125 66.40625 
Q 25.390625 66.40625 21.84375 63.234375 
Q 18.3125 60.0625 18.3125 54.390625 
z
" id="DejaVuSans-56"/>
      </defs>
      <g transform="translate(196.195093 53.168051)scale(0.1 -0.1)">
       <use xlink:href="#DejaVuSans-56"/>
       <use x="63.623047" xlink:href="#DejaVuSans-48"/>
       <use x="127.246094" xlink:href="#DejaVuSans-48"/>
      </g>
     </g>
    </g>
   </g>
   <g id="line2d_23">
    <path clip-path="url(#pb5aa30e2bd)" d="M 226.395822 325.215711 
L 227.158945 324.890609 
L 227.922067 324.484303 
L 228.685189 324.046179 
L 229.448312 323.55075 
L 230.211434 323.023071 
L 230.974556 322.484882 
L 231.737678 321.950148 
L 232.500801 321.446945 
L 233.263923 320.990823 
L 234.027045 320.59546 
L 234.790168 320.26503 
L 235.55329 319.977218 
L 236.316412 319.713163 
L 237.079535 319.449107 
L 237.842657 319.130196 
L 238.605779 318.713236 
L 239.368901 318.157625 
L 240.132024 317.437736 
L 240.895146 316.546224 
L 241.658268 315.481795 
L 242.421391 314.259711 
L 243.184513 312.985794 
L 243.947635 311.753199 
L 244.710757 310.658967 
L 245.47388 309.779262 
L 246.237002 309.187224 
L 247.000124 308.941886 
L 247.763247 309.083704 
L 248.526369 309.519238 
L 249.289491 310.161955 
L 250.052614 310.909776 
L 250.815736 311.679194 
L 251.578858 312.364961 
L 252.34198 312.800639 
L 253.105103 312.817484 
L 253.868225 312.345092 
L 254.631347 311.284407 
L 255.39447 309.557536 
L 256.157592 307.079244 
L 256.920714 303.819295 
L 257.683836 299.989626 
L 258.446959 295.821034 
L 259.210081 291.486578 
L 259.973203 287.256075 
L 260.736326 283.370974 
L 261.499448 280.097348 
L 262.26257 277.626543 
L 263.025692 275.869436 
L 263.788815 274.690977 
L 264.551937 274.00305 
L 265.315059 273.605239 
L 266.078182 273.328946 
L 266.841304 272.90781 
L 267.604426 272.143431 
L 268.367549 270.920627 
L 269.130671 269.304331 
L 269.893793 267.266611 
L 270.656915 264.814379 
L 271.420038 261.945187 
L 272.18316 258.859164 
L 272.946282 255.736859 
L 273.709405 252.769618 
L 274.472527 249.768974 
L 275.235649 246.827936 
L 275.998771 244.050746 
L 276.761894 241.503777 
L 277.525016 238.978116 
L 278.288138 236.219643 
L 279.051261 233.063503 
L 279.814383 229.805426 
L 280.577505 226.383359 
L 281.340627 222.728911 
L 282.10375 218.853889 
L 282.866872 215.096353 
L 283.629994 211.783277 
L 284.393117 209.12746 
L 285.156239 207.02567 
L 285.919361 205.522397 
L 286.682484 204.750963 
L 287.445606 204.810138 
L 288.208728 205.359702 
L 288.97185 206.263883 
L 289.734973 207.399725 
L 290.498095 208.686168 
L 291.261217 209.968291 
L 292.02434 210.795588 
L 292.787462 210.580629 
L 293.550584 209.213415 
L 294.313706 206.256684 
L 295.076829 201.374825 
L 295.839951 194.389016 
L 296.603073 185.315814 
L 297.366196 174.635244 
L 298.129318 163.486025 
L 298.89244 152.165617 
L 299.655562 141.331709 
L 300.418685 134.255338 
L 301.181807 127.968542 
L 301.944929 122.825651 
" style="fill:none;stroke:#ff0000;stroke-linecap:square;stroke-width:1.5;"/>
   </g>
   <g id="patch_208">
    <path d="M 222.282593 325.921635 
L 222.282593 18.118365 
" style="fill:none;stroke:#000000;stroke-linecap:square;stroke-linejoin:miter;stroke-width:0.8;"/>
   </g>
   <g id="patch_209">
    <path d="M 306.058159 325.921635 
L 306.058159 18.118365 
" style="fill:none;stroke:#000000;stroke-linecap:square;stroke-linejoin:miter;stroke-width:0.8;"/>
   </g>
   <g id="patch_210">
    <path d="M 222.282593 325.921635 
L 306.058159 325.921635 
" style="fill:none;stroke:#000000;stroke-linecap:square;stroke-linejoin:miter;stroke-width:0.8;"/>
   </g>
   <g id="patch_211">
    <path d="M 222.282593 18.118365 
L 306.058159 18.118365 
" style="fill:none;stroke:#000000;stroke-linecap:square;stroke-linejoin:miter;stroke-width:0.8;"/>
   </g>
   <g id="text_23">
    <!-- Casos novos - SC - (data) -->
    <defs>
     <path d="M 54.890625 33.015625 
L 54.890625 0 
L 45.90625 0 
L 45.90625 32.71875 
Q 45.90625 40.484375 42.875 44.328125 
Q 39.84375 48.1875 33.796875 48.1875 
Q 26.515625 48.1875 22.3125 43.546875 
Q 18.109375 38.921875 18.109375 30.90625 
L 18.109375 0 
L 9.078125 0 
L 9.078125 54.6875 
L 18.109375 54.6875 
L 18.109375 46.1875 
Q 21.34375 51.125 25.703125 53.5625 
Q 30.078125 56 35.796875 56 
Q 45.21875 56 50.046875 50.171875 
Q 54.890625 44.34375 54.890625 33.015625 
z
" id="DejaVuSans-110"/>
     <path d="M 2.984375 54.6875 
L 12.5 54.6875 
L 29.59375 8.796875 
L 46.6875 54.6875 
L 56.203125 54.6875 
L 35.6875 0 
L 23.484375 0 
z
" id="DejaVuSans-118"/>
    </defs>
    <g transform="translate(188.500063 12.118365)scale(0.12 -0.12)">
     <use xlink:href="#DejaVuSans-67"/>
     <use x="69.824219" xlink:href="#DejaVuSans-97"/>
     <use x="131.103516" xlink:href="#DejaVuSans-115"/>
     <use x="183.203125" xlink:href="#DejaVuSans-111"/>
     <use x="244.384766" xlink:href="#DejaVuSans-115"/>
     <use x="296.484375" xlink:href="#DejaVuSans-32"/>
     <use x="328.271484" xlink:href="#DejaVuSans-110"/>
     <use x="391.650391" xlink:href="#DejaVuSans-111"/>
     <use x="452.832031" xlink:href="#DejaVuSans-118"/>
     <use x="512.011719" xlink:href="#DejaVuSans-111"/>
     <use x="573.193359" xlink:href="#DejaVuSans-115"/>
     <use x="625.292969" xlink:href="#DejaVuSans-32"/>
     <use x="657.080078" xlink:href="#DejaVuSans-45"/>
     <use x="693.164062" xlink:href="#DejaVuSans-32"/>
     <use x="724.951172" xlink:href="#DejaVuSans-83"/>
     <use x="788.427734" xlink:href="#DejaVuSans-67"/>
     <use x="858.251953" xlink:href="#DejaVuSans-32"/>
     <use x="890.039062" xlink:href="#DejaVuSans-45"/>
     <use x="926.123047" xlink:href="#DejaVuSans-32"/>
     <use x="957.910156" xlink:href="#DejaVuSans-40"/>
     <use x="996.923828" xlink:href="#DejaVuSans-100"/>
     <use x="1060.400391" xlink:href="#DejaVuSans-97"/>
     <use x="1121.679688" xlink:href="#DejaVuSans-116"/>
     <use x="1160.888672" xlink:href="#DejaVuSans-97"/>
     <use x="1222.167969" xlink:href="#DejaVuSans-41"/>
    </g>
   </g>
  </g>
  <g id="axes_3">
   <g id="patch_212">
    <path d="M 367.809783 325.921635 
L 451.585348 325.921635 
L 451.585348 18.118365 
L 367.809783 18.118365 
z
" style="fill:#ffffff;"/>
   </g>
   <g id="matplotlib.axis_5">
    <g id="xtick_5">
     <g id="line2d_24">
      <g>
       <use style="stroke:#000000;stroke-width:0.8;" x="371.617763" xlink:href="#m7eb2a74014" y="325.921635"/>
      </g>
     </g>
     <g id="text_24">
      <!-- 0 -->
      <g transform="translate(368.436513 340.520072)scale(0.1 -0.1)">
       <use xlink:href="#DejaVuSans-48"/>
      </g>
     </g>
    </g>
    <g id="xtick_6">
     <g id="line2d_25">
      <g>
       <use style="stroke:#000000;stroke-width:0.8;" x="448.546657" xlink:href="#m7eb2a74014" y="325.921635"/>
      </g>
     </g>
     <g id="text_25">
      <!-- 100 -->
      <g transform="translate(439.002907 340.520072)scale(0.1 -0.1)">
       <use xlink:href="#DejaVuSans-49"/>
       <use x="63.623047" xlink:href="#DejaVuSans-48"/>
       <use x="127.246094" xlink:href="#DejaVuSans-48"/>
      </g>
     </g>
    </g>
   </g>
   <g id="matplotlib.axis_6">
    <g id="ytick_18">
     <g id="line2d_26">
      <g>
       <use style="stroke:#000000;stroke-width:0.8;" x="367.809783" xlink:href="#m69a4f4d708" y="323.048029"/>
      </g>
     </g>
     <g id="text_26">
      <!-- 0.5 -->
      <defs>
       <path d="M 10.6875 12.40625 
L 21 12.40625 
L 21 0 
L 10.6875 0 
z
" id="DejaVuSans-46"/>
      </defs>
      <g transform="translate(344.906658 326.847248)scale(0.1 -0.1)">
       <use xlink:href="#DejaVuSans-48"/>
       <use x="63.623047" xlink:href="#DejaVuSans-46"/>
       <use x="95.410156" xlink:href="#DejaVuSans-53"/>
      </g>
     </g>
    </g>
    <g id="ytick_19">
     <g id="line2d_27">
      <g>
       <use style="stroke:#000000;stroke-width:0.8;" x="367.809783" xlink:href="#m69a4f4d708" y="274.956826"/>
      </g>
     </g>
     <g id="text_27">
      <!-- 1.0 -->
      <g transform="translate(344.906658 278.756045)scale(0.1 -0.1)">
       <use xlink:href="#DejaVuSans-49"/>
       <use x="63.623047" xlink:href="#DejaVuSans-46"/>
       <use x="95.410156" xlink:href="#DejaVuSans-48"/>
      </g>
     </g>
    </g>
    <g id="ytick_20">
     <g id="line2d_28">
      <g>
       <use style="stroke:#000000;stroke-width:0.8;" x="367.809783" xlink:href="#m69a4f4d708" y="226.865623"/>
      </g>
     </g>
     <g id="text_28">
      <!-- 1.5 -->
      <g transform="translate(344.906658 230.664841)scale(0.1 -0.1)">
       <use xlink:href="#DejaVuSans-49"/>
       <use x="63.623047" xlink:href="#DejaVuSans-46"/>
       <use x="95.410156" xlink:href="#DejaVuSans-53"/>
      </g>
     </g>
    </g>
    <g id="ytick_21">
     <g id="line2d_29">
      <g>
       <use style="stroke:#000000;stroke-width:0.8;" x="367.809783" xlink:href="#m69a4f4d708" y="178.774419"/>
      </g>
     </g>
     <g id="text_29">
      <!-- 2.0 -->
      <g transform="translate(344.906658 182.573638)scale(0.1 -0.1)">
       <use xlink:href="#DejaVuSans-50"/>
       <use x="63.623047" xlink:href="#DejaVuSans-46"/>
       <use x="95.410156" xlink:href="#DejaVuSans-48"/>
      </g>
     </g>
    </g>
    <g id="ytick_22">
     <g id="line2d_30">
      <g>
       <use style="stroke:#000000;stroke-width:0.8;" x="367.809783" xlink:href="#m69a4f4d708" y="130.683216"/>
      </g>
     </g>
     <g id="text_30">
      <!-- 2.5 -->
      <g transform="translate(344.906658 134.482435)scale(0.1 -0.1)">
       <use xlink:href="#DejaVuSans-50"/>
       <use x="63.623047" xlink:href="#DejaVuSans-46"/>
       <use x="95.410156" xlink:href="#DejaVuSans-53"/>
      </g>
     </g>
    </g>
    <g id="ytick_23">
     <g id="line2d_31">
      <g>
       <use style="stroke:#000000;stroke-width:0.8;" x="367.809783" xlink:href="#m69a4f4d708" y="82.592013"/>
      </g>
     </g>
     <g id="text_31">
      <!-- 3.0 -->
      <g transform="translate(344.906658 86.391231)scale(0.1 -0.1)">
       <use xlink:href="#DejaVuSans-51"/>
       <use x="63.623047" xlink:href="#DejaVuSans-46"/>
       <use x="95.410156" xlink:href="#DejaVuSans-48"/>
      </g>
     </g>
    </g>
    <g id="ytick_24">
     <g id="line2d_32">
      <g>
       <use style="stroke:#000000;stroke-width:0.8;" x="367.809783" xlink:href="#m69a4f4d708" y="34.500809"/>
      </g>
     </g>
     <g id="text_32">
      <!-- 3.5 -->
      <g transform="translate(344.906658 38.300028)scale(0.1 -0.1)">
       <use xlink:href="#DejaVuSans-51"/>
       <use x="63.623047" xlink:href="#DejaVuSans-46"/>
       <use x="95.410156" xlink:href="#DejaVuSans-53"/>
      </g>
     </g>
    </g>
   </g>
   <g id="line2d_33">
    <path clip-path="url(#pd49a25a37f)" d="M 371.617763 32.109423 
L 372.387052 58.305777 
L 373.156341 80.722912 
L 373.92563 114.430844 
L 374.694919 131.356825 
L 375.464208 149.841862 
L 376.233497 167.321143 
L 377.002786 182.399377 
L 377.772075 197.638835 
L 378.541364 211.342201 
L 379.310652 223.894525 
L 380.079941 234.758191 
L 380.84923 241.623798 
L 381.618519 245.663391 
L 382.387808 246.849858 
L 383.157097 242.607066 
L 383.926386 235.114733 
L 384.695675 225.67229 
L 385.464964 216.520648 
L 386.234253 209.466008 
L 387.003542 204.724649 
L 387.772831 202.754404 
L 388.54212 207.075043 
L 389.311409 214.953644 
L 390.080698 225.46218 
L 390.849987 237.277917 
L 391.619275 250.420566 
L 392.388564 264.814965 
L 393.157853 280.551199 
L 393.927142 293.027308 
L 394.696431 302.820058 
L 395.46572 309.036333 
L 396.235009 311.930577 
L 397.004298 309.559931 
L 397.773587 297.58557 
L 398.542876 275.59427 
L 399.312165 250.730245 
L 400.081454 224.760999 
L 400.850743 201.952566 
L 401.620032 183.995495 
L 402.389321 172.936697 
L 403.15861 172.742926 
L 403.927898 179.012412 
L 404.697187 187.642583 
L 405.466476 198.930901 
L 406.235765 211.364816 
L 407.005054 225.026056 
L 407.774343 238.985922 
L 408.543632 250.038883 
L 409.312921 258.367703 
L 410.08221 265.078307 
L 410.851499 268.951439 
L 411.620788 270.545147 
L 412.390077 268.646802 
L 413.159366 264.264573 
L 413.928655 258.663378 
L 414.697944 254.236147 
L 415.467232 249.886342 
L 416.236521 246.086478 
L 417.00581 242.744771 
L 417.775099 241.861726 
L 418.544388 242.852301 
L 419.313677 245.508263 
L 420.082966 246.240151 
L 420.852255 247.708801 
L 421.621544 249.905661 
L 422.390833 252.444964 
L 423.160122 253.150809 
L 423.929411 251.88227 
L 424.6987 249.534524 
L 425.467989 249.508706 
L 426.237278 249.07778 
L 427.006567 248.255263 
L 427.775855 247.606687 
L 428.545144 249.105978 
L 429.314433 252.427438 
L 430.083722 256.746701 
L 430.853011 260.212165 
L 431.6223 263.776845 
L 432.391589 268.003734 
L 433.160878 272.759924 
L 433.930167 275.560078 
L 434.699456 277.609483 
L 435.468745 278.977172 
L 436.238034 279.897469 
L 437.007323 279.895779 
L 437.776612 277.091885 
L 438.545901 270.609821 
L 439.31519 263.543364 
L 440.084478 254.224664 
L 440.853767 243.812299 
L 441.623056 233.768586 
L 442.392345 225.456787 
L 443.161634 220.917469 
L 443.930923 222.087093 
L 444.700212 224.340391 
L 445.469501 228.724925 
L 446.23879 244.133553 
L 447.008079 247.646905 
L 447.777368 252.0918 
" style="fill:none;stroke:#ff0000;stroke-linecap:square;stroke-width:1.5;"/>
   </g>
   <g id="patch_213">
    <path d="M 367.809783 325.921635 
L 367.809783 18.118365 
" style="fill:none;stroke:#000000;stroke-linecap:square;stroke-linejoin:miter;stroke-width:0.8;"/>
   </g>
   <g id="patch_214">
    <path d="M 451.585348 325.921635 
L 451.585348 18.118365 
" style="fill:none;stroke:#000000;stroke-linecap:square;stroke-linejoin:miter;stroke-width:0.8;"/>
   </g>
   <g id="patch_215">
    <path d="M 367.809783 325.921635 
L 451.585348 325.921635 
" style="fill:none;stroke:#000000;stroke-linecap:square;stroke-linejoin:miter;stroke-width:0.8;"/>
   </g>
   <g id="patch_216">
    <path d="M 367.809783 18.118365 
L 451.585348 18.118365 
" style="fill:none;stroke:#000000;stroke-linecap:square;stroke-linejoin:miter;stroke-width:0.8;"/>
   </g>
   <g id="text_33">
    <!-- r0 - SC - (data) -->
    <defs>
     <path d="M 41.109375 46.296875 
Q 39.59375 47.171875 37.8125 47.578125 
Q 36.03125 48 33.890625 48 
Q 26.265625 48 22.1875 43.046875 
Q 18.109375 38.09375 18.109375 28.8125 
L 18.109375 0 
L 9.078125 0 
L 9.078125 54.6875 
L 18.109375 54.6875 
L 18.109375 46.1875 
Q 20.953125 51.171875 25.484375 53.578125 
Q 30.03125 56 36.53125 56 
Q 37.453125 56 38.578125 55.875 
Q 39.703125 55.765625 41.0625 55.515625 
z
" id="DejaVuSans-114"/>
    </defs>
    <g transform="translate(365.261003 12.118365)scale(0.12 -0.12)">
     <use xlink:href="#DejaVuSans-114"/>
     <use x="41.113281" xlink:href="#DejaVuSans-48"/>
     <use x="104.736328" xlink:href="#DejaVuSans-32"/>
     <use x="136.523438" xlink:href="#DejaVuSans-45"/>
     <use x="172.607422" xlink:href="#DejaVuSans-32"/>
     <use x="204.394531" xlink:href="#DejaVuSans-83"/>
     <use x="267.871094" xlink:href="#DejaVuSans-67"/>
     <use x="337.695312" xlink:href="#DejaVuSans-32"/>
     <use x="369.482422" xlink:href="#DejaVuSans-45"/>
     <use x="405.566406" xlink:href="#DejaVuSans-32"/>
     <use x="437.353516" xlink:href="#DejaVuSans-40"/>
     <use x="476.367188" xlink:href="#DejaVuSans-100"/>
     <use x="539.84375" xlink:href="#DejaVuSans-97"/>
     <use x="601.123047" xlink:href="#DejaVuSans-116"/>
     <use x="640.332031" xlink:href="#DejaVuSans-97"/>
     <use x="701.611328" xlink:href="#DejaVuSans-41"/>
    </g>
   </g>
  </g>
 </g>
 <defs>
  <clipPath id="p44fb3ab187">
   <rect height="307.80327" width="83.775565" x="51.329384" y="18.118365"/>
  </clipPath>
  <clipPath id="pb5aa30e2bd">
   <rect height="307.80327" width="83.775565" x="222.282593" y="18.118365"/>
  </clipPath>
  <clipPath id="pd49a25a37f">
   <rect height="307.80327" width="83.775565" x="367.809783" y="18.118365"/>
  </clipPath>
 </defs>
</svg>
