<?xml version="1.0" encoding="utf-8" standalone="no"?>
<!DOCTYPE svg PUBLIC "-//W3C//DTD SVG 1.1//EN"
  "http://www.w3.org/Graphics/SVG/1.1/DTD/svg11.dtd">
<!-- Created with matplotlib (https://matplotlib.org/) -->
<svg height="345.6pt" version="1.1" viewBox="0 0 460.8 345.6" width="460.8pt" xmlns="http://www.w3.org/2000/svg" xmlns:xlink="http://www.w3.org/1999/xlink">
 <defs>
  <style type="text/css">
*{stroke-linecap:butt;stroke-linejoin:round;}
  </style>
 </defs>
 <g id="figure_1">
  <g id="patch_1">
   <path d="M 0 345.6 
L 460.8 345.6 
L 460.8 0 
L 0 0 
z
" style="fill:#ffffff;"/>
  </g>
  <g id="axes_1">
   <g id="patch_2">
    <path d="M 55.490865 137.71551 
L 222.28167 137.71551 
L 222.28167 18.118365 
L 55.490865 18.118365 
z
" style="fill:#ffffff;"/>
   </g>
   <g id="patch_3">
    <path clip-path="url(#p6c04625bee)" d="M 63.072265 137.71551 
L 64.312576 137.71551 
L 64.312576 137.709517 
L 63.072265 137.709517 
z
" style="fill:#1f77b4;"/>
   </g>
   <g id="patch_4">
    <path clip-path="url(#p6c04625bee)" d="M 64.622654 137.71551 
L 65.862965 137.71551 
L 65.862965 137.691537 
L 64.622654 137.691537 
z
" style="fill:#1f77b4;"/>
   </g>
   <g id="patch_5">
    <path clip-path="url(#p6c04625bee)" d="M 66.173042 137.71551 
L 67.413353 137.71551 
L 67.413353 137.685543 
L 66.173042 137.685543 
z
" style="fill:#1f77b4;"/>
   </g>
   <g id="patch_6">
    <path clip-path="url(#p6c04625bee)" d="M 67.723431 137.71551 
L 68.963742 137.71551 
L 68.963742 137.67955 
L 67.723431 137.67955 
z
" style="fill:#1f77b4;"/>
   </g>
   <g id="patch_7">
    <path clip-path="url(#p6c04625bee)" d="M 69.27382 137.71551 
L 70.51413 137.71551 
L 70.51413 137.67955 
L 69.27382 137.67955 
z
" style="fill:#1f77b4;"/>
   </g>
   <g id="patch_8">
    <path clip-path="url(#p6c04625bee)" d="M 70.824208 137.71551 
L 72.064519 137.71551 
L 72.064519 137.655577 
L 70.824208 137.655577 
z
" style="fill:#1f77b4;"/>
   </g>
   <g id="patch_9">
    <path clip-path="url(#p6c04625bee)" d="M 72.374597 137.71551 
L 73.614908 137.71551 
L 73.614908 137.655577 
L 72.374597 137.655577 
z
" style="fill:#1f77b4;"/>
   </g>
   <g id="patch_10">
    <path clip-path="url(#p6c04625bee)" d="M 73.924985 137.71551 
L 75.165296 137.71551 
L 75.165296 137.655577 
L 73.924985 137.655577 
z
" style="fill:#1f77b4;"/>
   </g>
   <g id="patch_11">
    <path clip-path="url(#p6c04625bee)" d="M 75.475374 137.71551 
L 76.715685 137.71551 
L 76.715685 137.62561 
L 75.475374 137.62561 
z
" style="fill:#1f77b4;"/>
   </g>
   <g id="patch_12">
    <path clip-path="url(#p6c04625bee)" d="M 77.025763 137.71551 
L 78.266073 137.71551 
L 78.266073 137.619617 
L 77.025763 137.619617 
z
" style="fill:#1f77b4;"/>
   </g>
   <g id="patch_13">
    <path clip-path="url(#p6c04625bee)" d="M 78.576151 137.71551 
L 79.816462 137.71551 
L 79.816462 137.619617 
L 78.576151 137.619617 
z
" style="fill:#1f77b4;"/>
   </g>
   <g id="patch_14">
    <path clip-path="url(#p6c04625bee)" d="M 80.12654 137.71551 
L 81.366851 137.71551 
L 81.366851 137.619617 
L 80.12654 137.619617 
z
" style="fill:#1f77b4;"/>
   </g>
   <g id="patch_15">
    <path clip-path="url(#p6c04625bee)" d="M 81.676928 137.71551 
L 82.917239 137.71551 
L 82.917239 137.619617 
L 81.676928 137.619617 
z
" style="fill:#1f77b4;"/>
   </g>
   <g id="patch_16">
    <path clip-path="url(#p6c04625bee)" d="M 83.227317 137.71551 
L 84.467628 137.71551 
L 84.467628 137.619617 
L 83.227317 137.619617 
z
" style="fill:#1f77b4;"/>
   </g>
   <g id="patch_17">
    <path clip-path="url(#p6c04625bee)" d="M 84.777705 137.71551 
L 86.018016 137.71551 
L 86.018016 137.619617 
L 84.777705 137.619617 
z
" style="fill:#1f77b4;"/>
   </g>
   <g id="patch_18">
    <path clip-path="url(#p6c04625bee)" d="M 86.328094 137.71551 
L 87.568405 137.71551 
L 87.568405 137.601637 
L 86.328094 137.601637 
z
" style="fill:#1f77b4;"/>
   </g>
   <g id="patch_19">
    <path clip-path="url(#p6c04625bee)" d="M 87.878483 137.71551 
L 89.118794 137.71551 
L 89.118794 137.595643 
L 87.878483 137.595643 
z
" style="fill:#1f77b4;"/>
   </g>
   <g id="patch_20">
    <path clip-path="url(#p6c04625bee)" d="M 89.428871 137.71551 
L 90.669182 137.71551 
L 90.669182 137.577663 
L 89.428871 137.577663 
z
" style="fill:#1f77b4;"/>
   </g>
   <g id="patch_21">
    <path clip-path="url(#p6c04625bee)" d="M 90.97926 137.71551 
L 92.219571 137.71551 
L 92.219571 137.565677 
L 90.97926 137.565677 
z
" style="fill:#1f77b4;"/>
   </g>
   <g id="patch_22">
    <path clip-path="url(#p6c04625bee)" d="M 92.529648 137.71551 
L 93.769959 137.71551 
L 93.769959 137.55369 
L 92.529648 137.55369 
z
" style="fill:#1f77b4;"/>
   </g>
   <g id="patch_23">
    <path clip-path="url(#p6c04625bee)" d="M 94.080037 137.71551 
L 95.320348 137.71551 
L 95.320348 137.523723 
L 94.080037 137.523723 
z
" style="fill:#1f77b4;"/>
   </g>
   <g id="patch_24">
    <path clip-path="url(#p6c04625bee)" d="M 95.630426 137.71551 
L 96.870736 137.71551 
L 96.870736 137.523723 
L 95.630426 137.523723 
z
" style="fill:#1f77b4;"/>
   </g>
   <g id="patch_25">
    <path clip-path="url(#p6c04625bee)" d="M 97.180814 137.71551 
L 98.421125 137.71551 
L 98.421125 137.49975 
L 97.180814 137.49975 
z
" style="fill:#1f77b4;"/>
   </g>
   <g id="patch_26">
    <path clip-path="url(#p6c04625bee)" d="M 98.731203 137.71551 
L 99.971514 137.71551 
L 99.971514 137.49975 
L 98.731203 137.49975 
z
" style="fill:#1f77b4;"/>
   </g>
   <g id="patch_27">
    <path clip-path="url(#p6c04625bee)" d="M 100.281591 137.71551 
L 101.521902 137.71551 
L 101.521902 137.48177 
L 100.281591 137.48177 
z
" style="fill:#1f77b4;"/>
   </g>
   <g id="patch_28">
    <path clip-path="url(#p6c04625bee)" d="M 101.83198 137.71551 
L 103.072291 137.71551 
L 103.072291 137.46379 
L 101.83198 137.46379 
z
" style="fill:#1f77b4;"/>
   </g>
   <g id="patch_29">
    <path clip-path="url(#p6c04625bee)" d="M 103.382369 137.71551 
L 104.622679 137.71551 
L 104.622679 137.46379 
L 103.382369 137.46379 
z
" style="fill:#1f77b4;"/>
   </g>
   <g id="patch_30">
    <path clip-path="url(#p6c04625bee)" d="M 104.932757 137.71551 
L 106.173068 137.71551 
L 106.173068 137.451803 
L 104.932757 137.451803 
z
" style="fill:#1f77b4;"/>
   </g>
   <g id="patch_31">
    <path clip-path="url(#p6c04625bee)" d="M 106.483146 137.71551 
L 107.723457 137.71551 
L 107.723457 137.451803 
L 106.483146 137.451803 
z
" style="fill:#1f77b4;"/>
   </g>
   <g id="patch_32">
    <path clip-path="url(#p6c04625bee)" d="M 108.033534 137.71551 
L 109.273845 137.71551 
L 109.273845 137.44581 
L 108.033534 137.44581 
z
" style="fill:#1f77b4;"/>
   </g>
   <g id="patch_33">
    <path clip-path="url(#p6c04625bee)" d="M 109.583923 137.71551 
L 110.824234 137.71551 
L 110.824234 137.439817 
L 109.583923 137.439817 
z
" style="fill:#1f77b4;"/>
   </g>
   <g id="patch_34">
    <path clip-path="url(#p6c04625bee)" d="M 111.134312 137.71551 
L 112.374622 137.71551 
L 112.374622 137.42783 
L 111.134312 137.42783 
z
" style="fill:#1f77b4;"/>
   </g>
   <g id="patch_35">
    <path clip-path="url(#p6c04625bee)" d="M 112.6847 137.71551 
L 113.925011 137.71551 
L 113.925011 137.397863 
L 112.6847 137.397863 
z
" style="fill:#1f77b4;"/>
   </g>
   <g id="patch_36">
    <path clip-path="url(#p6c04625bee)" d="M 114.235089 137.71551 
L 115.4754 137.71551 
L 115.4754 137.289983 
L 114.235089 137.289983 
z
" style="fill:#1f77b4;"/>
   </g>
   <g id="patch_37">
    <path clip-path="url(#p6c04625bee)" d="M 115.785477 137.71551 
L 117.025788 137.71551 
L 117.025788 137.218063 
L 115.785477 137.218063 
z
" style="fill:#1f77b4;"/>
   </g>
   <g id="patch_38">
    <path clip-path="url(#p6c04625bee)" d="M 117.335866 137.71551 
L 118.576177 137.71551 
L 118.576177 137.200083 
L 117.335866 137.200083 
z
" style="fill:#1f77b4;"/>
   </g>
   <g id="patch_39">
    <path clip-path="url(#p6c04625bee)" d="M 118.886254 137.71551 
L 120.126565 137.71551 
L 120.126565 137.164123 
L 118.886254 137.164123 
z
" style="fill:#1f77b4;"/>
   </g>
   <g id="patch_40">
    <path clip-path="url(#p6c04625bee)" d="M 120.436643 137.71551 
L 121.676954 137.71551 
L 121.676954 137.01429 
L 120.436643 137.01429 
z
" style="fill:#1f77b4;"/>
   </g>
   <g id="patch_41">
    <path clip-path="url(#p6c04625bee)" d="M 121.987032 137.71551 
L 123.227343 137.71551 
L 123.227343 136.972336 
L 121.987032 136.972336 
z
" style="fill:#1f77b4;"/>
   </g>
   <g id="patch_42">
    <path clip-path="url(#p6c04625bee)" d="M 123.53742 137.71551 
L 124.777731 137.71551 
L 124.777731 136.85247 
L 123.53742 136.85247 
z
" style="fill:#1f77b4;"/>
   </g>
   <g id="patch_43">
    <path clip-path="url(#p6c04625bee)" d="M 125.087809 137.71551 
L 126.32812 137.71551 
L 126.32812 136.79853 
L 125.087809 136.79853 
z
" style="fill:#1f77b4;"/>
   </g>
   <g id="patch_44">
    <path clip-path="url(#p6c04625bee)" d="M 126.638197 137.71551 
L 127.878508 137.71551 
L 127.878508 136.76257 
L 126.638197 136.76257 
z
" style="fill:#1f77b4;"/>
   </g>
   <g id="patch_45">
    <path clip-path="url(#p6c04625bee)" d="M 128.188586 137.71551 
L 129.428897 137.71551 
L 129.428897 136.534823 
L 128.188586 136.534823 
z
" style="fill:#1f77b4;"/>
   </g>
   <g id="patch_46">
    <path clip-path="url(#p6c04625bee)" d="M 129.738975 137.71551 
L 130.979285 137.71551 
L 130.979285 136.037376 
L 129.738975 136.037376 
z
" style="fill:#1f77b4;"/>
   </g>
   <g id="patch_47">
    <path clip-path="url(#p6c04625bee)" d="M 131.289363 137.71551 
L 132.529674 137.71551 
L 132.529674 135.695756 
L 131.289363 135.695756 
z
" style="fill:#1f77b4;"/>
   </g>
   <g id="patch_48">
    <path clip-path="url(#p6c04625bee)" d="M 132.839752 137.71551 
L 134.080063 137.71551 
L 134.080063 135.036489 
L 132.839752 135.036489 
z
" style="fill:#1f77b4;"/>
   </g>
   <g id="patch_49">
    <path clip-path="url(#p6c04625bee)" d="M 134.39014 137.71551 
L 135.630451 137.71551 
L 135.630451 134.616955 
L 134.39014 134.616955 
z
" style="fill:#1f77b4;"/>
   </g>
   <g id="patch_50">
    <path clip-path="url(#p6c04625bee)" d="M 135.940529 137.71551 
L 137.18084 137.71551 
L 137.18084 134.113515 
L 135.940529 134.113515 
z
" style="fill:#1f77b4;"/>
   </g>
   <g id="patch_51">
    <path clip-path="url(#p6c04625bee)" d="M 137.490918 137.71551 
L 138.731228 137.71551 
L 138.731228 133.340375 
L 137.490918 133.340375 
z
" style="fill:#1f77b4;"/>
   </g>
   <g id="patch_52">
    <path clip-path="url(#p6c04625bee)" d="M 139.041306 137.71551 
L 140.281617 137.71551 
L 140.281617 133.088655 
L 139.041306 133.088655 
z
" style="fill:#1f77b4;"/>
   </g>
   <g id="patch_53">
    <path clip-path="url(#p6c04625bee)" d="M 140.591695 137.71551 
L 141.832006 137.71551 
L 141.832006 132.333494 
L 140.591695 132.333494 
z
" style="fill:#1f77b4;"/>
   </g>
   <g id="patch_54">
    <path clip-path="url(#p6c04625bee)" d="M 142.142083 137.71551 
L 143.382394 137.71551 
L 143.382394 131.734161 
L 142.142083 131.734161 
z
" style="fill:#1f77b4;"/>
   </g>
   <g id="patch_55">
    <path clip-path="url(#p6c04625bee)" d="M 143.692472 137.71551 
L 144.932783 137.71551 
L 144.932783 130.4396 
L 143.692472 130.4396 
z
" style="fill:#1f77b4;"/>
   </g>
   <g id="patch_56">
    <path clip-path="url(#p6c04625bee)" d="M 145.24286 137.71551 
L 146.483171 137.71551 
L 146.483171 129.097093 
L 145.24286 129.097093 
z
" style="fill:#1f77b4;"/>
   </g>
   <g id="patch_57">
    <path clip-path="url(#p6c04625bee)" d="M 146.793249 137.71551 
L 148.03356 137.71551 
L 148.03356 128.198093 
L 146.793249 128.198093 
z
" style="fill:#1f77b4;"/>
   </g>
   <g id="patch_58">
    <path clip-path="url(#p6c04625bee)" d="M 148.343638 137.71551 
L 149.583949 137.71551 
L 149.583949 127.101312 
L 148.343638 127.101312 
z
" style="fill:#1f77b4;"/>
   </g>
   <g id="patch_59">
    <path clip-path="url(#p6c04625bee)" d="M 149.894026 137.71551 
L 151.134337 137.71551 
L 151.134337 126.927506 
L 149.894026 126.927506 
z
" style="fill:#1f77b4;"/>
   </g>
   <g id="patch_60">
    <path clip-path="url(#p6c04625bee)" d="M 151.444415 137.71551 
L 152.684726 137.71551 
L 152.684726 125.537052 
L 151.444415 125.537052 
z
" style="fill:#1f77b4;"/>
   </g>
   <g id="patch_61">
    <path clip-path="url(#p6c04625bee)" d="M 152.994803 137.71551 
L 154.235114 137.71551 
L 154.235114 124.122625 
L 152.994803 124.122625 
z
" style="fill:#1f77b4;"/>
   </g>
   <g id="patch_62">
    <path clip-path="url(#p6c04625bee)" d="M 154.545192 137.71551 
L 155.785503 137.71551 
L 155.785503 122.768131 
L 154.545192 122.768131 
z
" style="fill:#1f77b4;"/>
   </g>
   <g id="patch_63">
    <path clip-path="url(#p6c04625bee)" d="M 156.095581 137.71551 
L 157.335891 137.71551 
L 157.335891 120.526623 
L 156.095581 120.526623 
z
" style="fill:#1f77b4;"/>
   </g>
   <g id="patch_64">
    <path clip-path="url(#p6c04625bee)" d="M 157.645969 137.71551 
L 158.88628 137.71551 
L 158.88628 118.926402 
L 157.645969 118.926402 
z
" style="fill:#1f77b4;"/>
   </g>
   <g id="patch_65">
    <path clip-path="url(#p6c04625bee)" d="M 159.196358 137.71551 
L 160.436669 137.71551 
L 160.436669 117.679789 
L 159.196358 117.679789 
z
" style="fill:#1f77b4;"/>
   </g>
   <g id="patch_66">
    <path clip-path="url(#p6c04625bee)" d="M 160.746746 137.71551 
L 161.987057 137.71551 
L 161.987057 116.343275 
L 160.746746 116.343275 
z
" style="fill:#1f77b4;"/>
   </g>
   <g id="patch_67">
    <path clip-path="url(#p6c04625bee)" d="M 162.297135 137.71551 
L 163.537446 137.71551 
L 163.537446 113.939947 
L 162.297135 113.939947 
z
" style="fill:#1f77b4;"/>
   </g>
   <g id="patch_68">
    <path clip-path="url(#p6c04625bee)" d="M 163.847524 137.71551 
L 165.087834 137.71551 
L 165.087834 112.082013 
L 163.847524 112.082013 
z
" style="fill:#1f77b4;"/>
   </g>
   <g id="patch_69">
    <path clip-path="url(#p6c04625bee)" d="M 165.397912 137.71551 
L 166.638223 137.71551 
L 166.638223 109.343059 
L 165.397912 109.343059 
z
" style="fill:#1f77b4;"/>
   </g>
   <g id="patch_70">
    <path clip-path="url(#p6c04625bee)" d="M 166.948301 137.71551 
L 168.188612 137.71551 
L 168.188612 108.216311 
L 166.948301 108.216311 
z
" style="fill:#1f77b4;"/>
   </g>
   <g id="patch_71">
    <path clip-path="url(#p6c04625bee)" d="M 168.498689 137.71551 
L 169.739 137.71551 
L 169.739 106.963704 
L 168.498689 106.963704 
z
" style="fill:#1f77b4;"/>
   </g>
   <g id="patch_72">
    <path clip-path="url(#p6c04625bee)" d="M 170.049078 137.71551 
L 171.289389 137.71551 
L 171.289389 105.866924 
L 170.049078 105.866924 
z
" style="fill:#1f77b4;"/>
   </g>
   <g id="patch_73">
    <path clip-path="url(#p6c04625bee)" d="M 171.599467 137.71551 
L 172.839777 137.71551 
L 172.839777 105.063817 
L 171.599467 105.063817 
z
" style="fill:#1f77b4;"/>
   </g>
   <g id="patch_74">
    <path clip-path="url(#p6c04625bee)" d="M 173.149855 137.71551 
L 174.390166 137.71551 
L 174.390166 103.343729 
L 173.149855 103.343729 
z
" style="fill:#1f77b4;"/>
   </g>
   <g id="patch_75">
    <path clip-path="url(#p6c04625bee)" d="M 174.700244 137.71551 
L 175.940555 137.71551 
L 175.940555 102.282909 
L 174.700244 102.282909 
z
" style="fill:#1f77b4;"/>
   </g>
   <g id="patch_76">
    <path clip-path="url(#p6c04625bee)" d="M 176.250632 137.71551 
L 177.490943 137.71551 
L 177.490943 100.820535 
L 176.250632 100.820535 
z
" style="fill:#1f77b4;"/>
   </g>
   <g id="patch_77">
    <path clip-path="url(#p6c04625bee)" d="M 177.801021 137.71551 
L 179.041332 137.71551 
L 179.041332 98.986574 
L 177.801021 98.986574 
z
" style="fill:#1f77b4;"/>
   </g>
   <g id="patch_78">
    <path clip-path="url(#p6c04625bee)" d="M 179.351409 137.71551 
L 180.59172 137.71551 
L 180.59172 96.93086 
L 179.351409 96.93086 
z
" style="fill:#1f77b4;"/>
   </g>
   <g id="patch_79">
    <path clip-path="url(#p6c04625bee)" d="M 180.901798 137.71551 
L 182.142109 137.71551 
L 182.142109 95.768153 
L 180.901798 95.768153 
z
" style="fill:#1f77b4;"/>
   </g>
   <g id="patch_80">
    <path clip-path="url(#p6c04625bee)" d="M 182.452187 137.71551 
L 183.692498 137.71551 
L 183.692498 94.365713 
L 182.452187 94.365713 
z
" style="fill:#1f77b4;"/>
   </g>
   <g id="patch_81">
    <path clip-path="url(#p6c04625bee)" d="M 184.002575 137.71551 
L 185.242886 137.71551 
L 185.242886 92.435858 
L 184.002575 92.435858 
z
" style="fill:#1f77b4;"/>
   </g>
   <g id="patch_82">
    <path clip-path="url(#p6c04625bee)" d="M 185.552964 137.71551 
L 186.793275 137.71551 
L 186.793275 89.834751 
L 185.552964 89.834751 
z
" style="fill:#1f77b4;"/>
   </g>
   <g id="patch_83">
    <path clip-path="url(#p6c04625bee)" d="M 187.103352 137.71551 
L 188.343663 137.71551 
L 188.343663 88.570157 
L 187.103352 88.570157 
z
" style="fill:#1f77b4;"/>
   </g>
   <g id="patch_84">
    <path clip-path="url(#p6c04625bee)" d="M 188.653741 137.71551 
L 189.894052 137.71551 
L 189.894052 86.310669 
L 188.653741 86.310669 
z
" style="fill:#1f77b4;"/>
   </g>
   <g id="patch_85">
    <path clip-path="url(#p6c04625bee)" d="M 190.20413 137.71551 
L 191.44444 137.71551 
L 191.44444 83.943302 
L 190.20413 83.943302 
z
" style="fill:#1f77b4;"/>
   </g>
   <g id="patch_86">
    <path clip-path="url(#p6c04625bee)" d="M 191.754518 137.71551 
L 192.994829 137.71551 
L 192.994829 82.037421 
L 191.754518 82.037421 
z
" style="fill:#1f77b4;"/>
   </g>
   <g id="patch_87">
    <path clip-path="url(#p6c04625bee)" d="M 193.304907 137.71551 
L 194.545218 137.71551 
L 194.545218 79.418333 
L 193.304907 79.418333 
z
" style="fill:#1f77b4;"/>
   </g>
   <g id="patch_88">
    <path clip-path="url(#p6c04625bee)" d="M 194.855295 137.71551 
L 196.095606 137.71551 
L 196.095606 77.026992 
L 194.855295 77.026992 
z
" style="fill:#1f77b4;"/>
   </g>
   <g id="patch_89">
    <path clip-path="url(#p6c04625bee)" d="M 196.405684 137.71551 
L 197.645995 137.71551 
L 197.645995 74.096251 
L 196.405684 74.096251 
z
" style="fill:#1f77b4;"/>
   </g>
   <g id="patch_90">
    <path clip-path="url(#p6c04625bee)" d="M 197.956073 137.71551 
L 199.196383 137.71551 
L 199.196383 71.45319 
L 197.956073 71.45319 
z
" style="fill:#1f77b4;"/>
   </g>
   <g id="patch_91">
    <path clip-path="url(#p6c04625bee)" d="M 199.506461 137.71551 
L 200.746772 137.71551 
L 200.746772 68.588375 
L 199.506461 68.588375 
z
" style="fill:#1f77b4;"/>
   </g>
   <g id="patch_92">
    <path clip-path="url(#p6c04625bee)" d="M 201.05685 137.71551 
L 202.297161 137.71551 
L 202.297161 60.605252 
L 201.05685 60.605252 
z
" style="fill:#1f77b4;"/>
   </g>
   <g id="patch_93">
    <path clip-path="url(#p6c04625bee)" d="M 202.607238 137.71551 
L 203.847549 137.71551 
L 203.847549 54.000596 
L 202.607238 54.000596 
z
" style="fill:#1f77b4;"/>
   </g>
   <g id="patch_94">
    <path clip-path="url(#p6c04625bee)" d="M 204.157627 137.71551 
L 205.397938 137.71551 
L 205.397938 43.769972 
L 204.157627 43.769972 
z
" style="fill:#1f77b4;"/>
   </g>
   <g id="patch_95">
    <path clip-path="url(#p6c04625bee)" d="M 205.708016 137.71551 
L 206.948326 137.71551 
L 206.948326 39.964204 
L 205.708016 39.964204 
z
" style="fill:#1f77b4;"/>
   </g>
   <g id="patch_96">
    <path clip-path="url(#p6c04625bee)" d="M 207.258404 137.71551 
L 208.498715 137.71551 
L 208.498715 36.985516 
L 207.258404 36.985516 
z
" style="fill:#1f77b4;"/>
   </g>
   <g id="patch_97">
    <path clip-path="url(#p6c04625bee)" d="M 208.808793 137.71551 
L 210.049104 137.71551 
L 210.049104 33.803055 
L 208.808793 33.803055 
z
" style="fill:#1f77b4;"/>
   </g>
   <g id="patch_98">
    <path clip-path="url(#p6c04625bee)" d="M 210.359181 137.71551 
L 211.599492 137.71551 
L 211.599492 30.986187 
L 210.359181 30.986187 
z
" style="fill:#1f77b4;"/>
   </g>
   <g id="patch_99">
    <path clip-path="url(#p6c04625bee)" d="M 211.90957 137.71551 
L 213.149881 137.71551 
L 213.149881 27.144459 
L 211.90957 27.144459 
z
" style="fill:#1f77b4;"/>
   </g>
   <g id="patch_100">
    <path clip-path="url(#p6c04625bee)" d="M 213.459958 137.71551 
L 214.700269 137.71551 
L 214.700269 23.932031 
L 213.459958 23.932031 
z
" style="fill:#1f77b4;"/>
   </g>
   <g id="matplotlib.axis_1">
    <g id="xtick_1">
     <g id="line2d_1">
      <defs>
       <path d="M 0 0 
L 0 3.5 
" id="m8eb039ed75" style="stroke:#000000;stroke-width:0.8;"/>
      </defs>
      <g>
       <use style="stroke:#000000;stroke-width:0.8;" x="63.692421" xlink:href="#m8eb039ed75" y="137.71551"/>
      </g>
     </g>
     <g id="text_1">
      <!-- 0 -->
      <defs>
       <path d="M 31.78125 66.40625 
Q 24.171875 66.40625 20.328125 58.90625 
Q 16.5 51.421875 16.5 36.375 
Q 16.5 21.390625 20.328125 13.890625 
Q 24.171875 6.390625 31.78125 6.390625 
Q 39.453125 6.390625 43.28125 13.890625 
Q 47.125 21.390625 47.125 36.375 
Q 47.125 51.421875 43.28125 58.90625 
Q 39.453125 66.40625 31.78125 66.40625 
z
M 31.78125 74.21875 
Q 44.046875 74.21875 50.515625 64.515625 
Q 56.984375 54.828125 56.984375 36.375 
Q 56.984375 17.96875 50.515625 8.265625 
Q 44.046875 -1.421875 31.78125 -1.421875 
Q 19.53125 -1.421875 13.0625 8.265625 
Q 6.59375 17.96875 6.59375 36.375 
Q 6.59375 54.828125 13.0625 64.515625 
Q 19.53125 74.21875 31.78125 74.21875 
z
" id="DejaVuSans-48"/>
      </defs>
      <g transform="translate(60.511171 152.313947)scale(0.1 -0.1)">
       <use xlink:href="#DejaVuSans-48"/>
      </g>
     </g>
    </g>
    <g id="xtick_2">
     <g id="line2d_2">
      <g>
       <use style="stroke:#000000;stroke-width:0.8;" x="102.452135" xlink:href="#m8eb039ed75" y="137.71551"/>
      </g>
     </g>
     <g id="text_2">
      <!-- 25 -->
      <defs>
       <path d="M 19.1875 8.296875 
L 53.609375 8.296875 
L 53.609375 0 
L 7.328125 0 
L 7.328125 8.296875 
Q 12.9375 14.109375 22.625 23.890625 
Q 32.328125 33.6875 34.8125 36.53125 
Q 39.546875 41.84375 41.421875 45.53125 
Q 43.3125 49.21875 43.3125 52.78125 
Q 43.3125 58.59375 39.234375 62.25 
Q 35.15625 65.921875 28.609375 65.921875 
Q 23.96875 65.921875 18.8125 64.3125 
Q 13.671875 62.703125 7.8125 59.421875 
L 7.8125 69.390625 
Q 13.765625 71.78125 18.9375 73 
Q 24.125 74.21875 28.421875 74.21875 
Q 39.75 74.21875 46.484375 68.546875 
Q 53.21875 62.890625 53.21875 53.421875 
Q 53.21875 48.921875 51.53125 44.890625 
Q 49.859375 40.875 45.40625 35.40625 
Q 44.1875 33.984375 37.640625 27.21875 
Q 31.109375 20.453125 19.1875 8.296875 
z
" id="DejaVuSans-50"/>
       <path d="M 10.796875 72.90625 
L 49.515625 72.90625 
L 49.515625 64.59375 
L 19.828125 64.59375 
L 19.828125 46.734375 
Q 21.96875 47.46875 24.109375 47.828125 
Q 26.265625 48.1875 28.421875 48.1875 
Q 40.625 48.1875 47.75 41.5 
Q 54.890625 34.8125 54.890625 23.390625 
Q 54.890625 11.625 47.5625 5.09375 
Q 40.234375 -1.421875 26.90625 -1.421875 
Q 22.3125 -1.421875 17.546875 -0.640625 
Q 12.796875 0.140625 7.71875 1.703125 
L 7.71875 11.625 
Q 12.109375 9.234375 16.796875 8.0625 
Q 21.484375 6.890625 26.703125 6.890625 
Q 35.15625 6.890625 40.078125 11.328125 
Q 45.015625 15.765625 45.015625 23.390625 
Q 45.015625 31 40.078125 35.4375 
Q 35.15625 39.890625 26.703125 39.890625 
Q 22.75 39.890625 18.8125 39.015625 
Q 14.890625 38.140625 10.796875 36.28125 
z
" id="DejaVuSans-53"/>
      </defs>
      <g transform="translate(96.089635 152.313947)scale(0.1 -0.1)">
       <use xlink:href="#DejaVuSans-50"/>
       <use x="63.623047" xlink:href="#DejaVuSans-53"/>
      </g>
     </g>
    </g>
    <g id="xtick_3">
     <g id="line2d_3">
      <g>
       <use style="stroke:#000000;stroke-width:0.8;" x="141.21185" xlink:href="#m8eb039ed75" y="137.71551"/>
      </g>
     </g>
     <g id="text_3">
      <!-- 50 -->
      <g transform="translate(134.84935 152.313947)scale(0.1 -0.1)">
       <use xlink:href="#DejaVuSans-53"/>
       <use x="63.623047" xlink:href="#DejaVuSans-48"/>
      </g>
     </g>
    </g>
    <g id="xtick_4">
     <g id="line2d_4">
      <g>
       <use style="stroke:#000000;stroke-width:0.8;" x="179.971565" xlink:href="#m8eb039ed75" y="137.71551"/>
      </g>
     </g>
     <g id="text_4">
      <!-- 75 -->
      <defs>
       <path d="M 8.203125 72.90625 
L 55.078125 72.90625 
L 55.078125 68.703125 
L 28.609375 0 
L 18.3125 0 
L 43.21875 64.59375 
L 8.203125 64.59375 
z
" id="DejaVuSans-55"/>
      </defs>
      <g transform="translate(173.609065 152.313947)scale(0.1 -0.1)">
       <use xlink:href="#DejaVuSans-55"/>
       <use x="63.623047" xlink:href="#DejaVuSans-53"/>
      </g>
     </g>
    </g>
    <g id="xtick_5">
     <g id="line2d_5">
      <g>
       <use style="stroke:#000000;stroke-width:0.8;" x="218.73128" xlink:href="#m8eb039ed75" y="137.71551"/>
      </g>
     </g>
     <g id="text_5">
      <!-- 100 -->
      <defs>
       <path d="M 12.40625 8.296875 
L 28.515625 8.296875 
L 28.515625 63.921875 
L 10.984375 60.40625 
L 10.984375 69.390625 
L 28.421875 72.90625 
L 38.28125 72.90625 
L 38.28125 8.296875 
L 54.390625 8.296875 
L 54.390625 0 
L 12.40625 0 
z
" id="DejaVuSans-49"/>
      </defs>
      <g transform="translate(209.18753 152.313947)scale(0.1 -0.1)">
       <use xlink:href="#DejaVuSans-49"/>
       <use x="63.623047" xlink:href="#DejaVuSans-48"/>
       <use x="127.246094" xlink:href="#DejaVuSans-48"/>
      </g>
     </g>
    </g>
    <g id="text_6">
     <!-- Dias -->
     <defs>
      <path d="M 19.671875 64.796875 
L 19.671875 8.109375 
L 31.59375 8.109375 
Q 46.6875 8.109375 53.6875 14.9375 
Q 60.6875 21.78125 60.6875 36.53125 
Q 60.6875 51.171875 53.6875 57.984375 
Q 46.6875 64.796875 31.59375 64.796875 
z
M 9.8125 72.90625 
L 30.078125 72.90625 
Q 51.265625 72.90625 61.171875 64.09375 
Q 71.09375 55.28125 71.09375 36.53125 
Q 71.09375 17.671875 61.125 8.828125 
Q 51.171875 0 30.078125 0 
L 9.8125 0 
z
" id="DejaVuSans-68"/>
      <path d="M 9.421875 54.6875 
L 18.40625 54.6875 
L 18.40625 0 
L 9.421875 0 
z
M 9.421875 75.984375 
L 18.40625 75.984375 
L 18.40625 64.59375 
L 9.421875 64.59375 
z
" id="DejaVuSans-105"/>
      <path d="M 34.28125 27.484375 
Q 23.390625 27.484375 19.1875 25 
Q 14.984375 22.515625 14.984375 16.5 
Q 14.984375 11.71875 18.140625 8.90625 
Q 21.296875 6.109375 26.703125 6.109375 
Q 34.1875 6.109375 38.703125 11.40625 
Q 43.21875 16.703125 43.21875 25.484375 
L 43.21875 27.484375 
z
M 52.203125 31.203125 
L 52.203125 0 
L 43.21875 0 
L 43.21875 8.296875 
Q 40.140625 3.328125 35.546875 0.953125 
Q 30.953125 -1.421875 24.3125 -1.421875 
Q 15.921875 -1.421875 10.953125 3.296875 
Q 6 8.015625 6 15.921875 
Q 6 25.140625 12.171875 29.828125 
Q 18.359375 34.515625 30.609375 34.515625 
L 43.21875 34.515625 
L 43.21875 35.40625 
Q 43.21875 41.609375 39.140625 45 
Q 35.0625 48.390625 27.6875 48.390625 
Q 23 48.390625 18.546875 47.265625 
Q 14.109375 46.140625 10.015625 43.890625 
L 10.015625 52.203125 
Q 14.9375 54.109375 19.578125 55.046875 
Q 24.21875 56 28.609375 56 
Q 40.484375 56 46.34375 49.84375 
Q 52.203125 43.703125 52.203125 31.203125 
z
" id="DejaVuSans-97"/>
      <path d="M 44.28125 53.078125 
L 44.28125 44.578125 
Q 40.484375 46.53125 36.375 47.5 
Q 32.28125 48.484375 27.875 48.484375 
Q 21.1875 48.484375 17.84375 46.4375 
Q 14.5 44.390625 14.5 40.28125 
Q 14.5 37.15625 16.890625 35.375 
Q 19.28125 33.59375 26.515625 31.984375 
L 29.59375 31.296875 
Q 39.15625 29.25 43.1875 25.515625 
Q 47.21875 21.78125 47.21875 15.09375 
Q 47.21875 7.46875 41.1875 3.015625 
Q 35.15625 -1.421875 24.609375 -1.421875 
Q 20.21875 -1.421875 15.453125 -0.5625 
Q 10.6875 0.296875 5.421875 2 
L 5.421875 11.28125 
Q 10.40625 8.6875 15.234375 7.390625 
Q 20.0625 6.109375 24.8125 6.109375 
Q 31.15625 6.109375 34.5625 8.28125 
Q 37.984375 10.453125 37.984375 14.40625 
Q 37.984375 18.0625 35.515625 20.015625 
Q 33.0625 21.96875 24.703125 23.78125 
L 21.578125 24.515625 
Q 13.234375 26.265625 9.515625 29.90625 
Q 5.8125 33.546875 5.8125 39.890625 
Q 5.8125 47.609375 11.28125 51.796875 
Q 16.75 56 26.8125 56 
Q 31.78125 56 36.171875 55.265625 
Q 40.578125 54.546875 44.28125 53.078125 
z
" id="DejaVuSans-115"/>
     </defs>
     <g transform="translate(127.978455 165.992072)scale(0.1 -0.1)">
      <use xlink:href="#DejaVuSans-68"/>
      <use x="77.001953" xlink:href="#DejaVuSans-105"/>
      <use x="104.785156" xlink:href="#DejaVuSans-97"/>
      <use x="166.064453" xlink:href="#DejaVuSans-115"/>
     </g>
    </g>
   </g>
   <g id="matplotlib.axis_2">
    <g id="ytick_1">
     <g id="line2d_6">
      <defs>
       <path d="M 0 0 
L -3.5 0 
" id="m454f17ae51" style="stroke:#000000;stroke-width:0.8;"/>
      </defs>
      <g>
       <use style="stroke:#000000;stroke-width:0.8;" x="55.490865" xlink:href="#m454f17ae51" y="137.71551"/>
      </g>
     </g>
     <g id="text_7">
      <!-- 0 -->
      <g transform="translate(42.128365 141.514729)scale(0.1 -0.1)">
       <use xlink:href="#DejaVuSans-48"/>
      </g>
     </g>
    </g>
    <g id="ytick_2">
     <g id="line2d_7">
      <g>
       <use style="stroke:#000000;stroke-width:0.8;" x="55.490865" xlink:href="#m454f17ae51" y="107.748831"/>
      </g>
     </g>
     <g id="text_8">
      <!-- 5000 -->
      <g transform="translate(23.040865 111.54805)scale(0.1 -0.1)">
       <use xlink:href="#DejaVuSans-53"/>
       <use x="63.623047" xlink:href="#DejaVuSans-48"/>
       <use x="127.246094" xlink:href="#DejaVuSans-48"/>
       <use x="190.869141" xlink:href="#DejaVuSans-48"/>
      </g>
     </g>
    </g>
    <g id="ytick_3">
     <g id="line2d_8">
      <g>
       <use style="stroke:#000000;stroke-width:0.8;" x="55.490865" xlink:href="#m454f17ae51" y="77.782153"/>
      </g>
     </g>
     <g id="text_9">
      <!-- 10000 -->
      <g transform="translate(16.678365 81.581371)scale(0.1 -0.1)">
       <use xlink:href="#DejaVuSans-49"/>
       <use x="63.623047" xlink:href="#DejaVuSans-48"/>
       <use x="127.246094" xlink:href="#DejaVuSans-48"/>
       <use x="190.869141" xlink:href="#DejaVuSans-48"/>
       <use x="254.492188" xlink:href="#DejaVuSans-48"/>
      </g>
     </g>
    </g>
    <g id="ytick_4">
     <g id="line2d_9">
      <g>
       <use style="stroke:#000000;stroke-width:0.8;" x="55.490865" xlink:href="#m454f17ae51" y="47.815474"/>
      </g>
     </g>
     <g id="text_10">
      <!-- 15000 -->
      <g transform="translate(16.678365 51.614693)scale(0.1 -0.1)">
       <use xlink:href="#DejaVuSans-49"/>
       <use x="63.623047" xlink:href="#DejaVuSans-53"/>
       <use x="127.246094" xlink:href="#DejaVuSans-48"/>
       <use x="190.869141" xlink:href="#DejaVuSans-48"/>
       <use x="254.492188" xlink:href="#DejaVuSans-48"/>
      </g>
     </g>
    </g>
    <g id="text_11">
     <!-- Casos -->
     <defs>
      <path d="M 64.40625 67.28125 
L 64.40625 56.890625 
Q 59.421875 61.53125 53.78125 63.8125 
Q 48.140625 66.109375 41.796875 66.109375 
Q 29.296875 66.109375 22.65625 58.46875 
Q 16.015625 50.828125 16.015625 36.375 
Q 16.015625 21.96875 22.65625 14.328125 
Q 29.296875 6.6875 41.796875 6.6875 
Q 48.140625 6.6875 53.78125 8.984375 
Q 59.421875 11.28125 64.40625 15.921875 
L 64.40625 5.609375 
Q 59.234375 2.09375 53.4375 0.328125 
Q 47.65625 -1.421875 41.21875 -1.421875 
Q 24.65625 -1.421875 15.125 8.703125 
Q 5.609375 18.84375 5.609375 36.375 
Q 5.609375 53.953125 15.125 64.078125 
Q 24.65625 74.21875 41.21875 74.21875 
Q 47.75 74.21875 53.53125 72.484375 
Q 59.328125 70.75 64.40625 67.28125 
z
" id="DejaVuSans-67"/>
      <path d="M 30.609375 48.390625 
Q 23.390625 48.390625 19.1875 42.75 
Q 14.984375 37.109375 14.984375 27.296875 
Q 14.984375 17.484375 19.15625 11.84375 
Q 23.34375 6.203125 30.609375 6.203125 
Q 37.796875 6.203125 41.984375 11.859375 
Q 46.1875 17.53125 46.1875 27.296875 
Q 46.1875 37.015625 41.984375 42.703125 
Q 37.796875 48.390625 30.609375 48.390625 
z
M 30.609375 56 
Q 42.328125 56 49.015625 48.375 
Q 55.71875 40.765625 55.71875 27.296875 
Q 55.71875 13.875 49.015625 6.21875 
Q 42.328125 -1.421875 30.609375 -1.421875 
Q 18.84375 -1.421875 12.171875 6.21875 
Q 5.515625 13.875 5.515625 27.296875 
Q 5.515625 40.765625 12.171875 48.375 
Q 18.84375 56 30.609375 56 
z
" id="DejaVuSans-111"/>
     </defs>
     <g transform="translate(10.598678 92.741156)rotate(-90)scale(0.1 -0.1)">
      <use xlink:href="#DejaVuSans-67"/>
      <use x="69.824219" xlink:href="#DejaVuSans-97"/>
      <use x="131.103516" xlink:href="#DejaVuSans-115"/>
      <use x="183.203125" xlink:href="#DejaVuSans-111"/>
      <use x="244.384766" xlink:href="#DejaVuSans-115"/>
     </g>
    </g>
   </g>
   <g id="line2d_10">
    <path clip-path="url(#p6c04625bee)" d="M 63.692421 137.693579 
L 65.242809 137.688903 
L 66.793198 137.683122 
L 68.343586 137.676652 
L 69.893975 137.669688 
L 71.444364 137.662451 
L 72.994752 137.655187 
L 74.545141 137.648041 
L 76.095529 137.641094 
L 77.645918 137.634367 
L 79.196307 137.627784 
L 80.746695 137.621192 
L 82.297084 137.614387 
L 83.847472 137.607133 
L 85.397861 137.599218 
L 86.948249 137.590496 
L 88.498638 137.580891 
L 90.049027 137.570427 
L 91.599415 137.559221 
L 93.149804 137.547462 
L 94.700192 137.535393 
L 96.250581 137.523232 
L 97.80097 137.511083 
L 99.351358 137.498931 
L 100.901747 137.486595 
L 102.452135 137.47368 
L 104.002524 137.459566 
L 105.552913 137.443386 
L 107.103301 137.424198 
L 108.65369 137.401113 
L 110.204078 137.373231 
L 111.754467 137.339507 
L 113.304856 137.298847 
L 114.855244 137.249889 
L 116.405633 137.190985 
L 117.956021 137.119798 
L 119.50641 137.032879 
L 121.056798 136.925885 
L 122.607187 136.794012 
L 124.157576 136.631944 
L 125.707964 136.434327 
L 127.258353 136.195641 
L 128.808741 135.910722 
L 130.35913 135.575607 
L 131.909519 135.187348 
L 133.459907 134.743504 
L 135.010296 134.241944 
L 136.560684 133.680854 
L 138.111073 133.059185 
L 139.661462 132.376264 
L 141.21185 131.631206 
L 142.762239 130.822385 
L 144.312627 129.94768 
L 145.863016 129.005064 
L 147.413405 127.991566 
L 148.963793 126.903832 
L 150.514182 125.738836 
L 152.06457 124.494034 
L 153.614959 123.169147 
L 155.165347 121.767024 
L 156.715736 120.293614 
L 158.266125 118.760424 
L 159.816513 117.182085 
L 161.366902 115.574877 
L 162.91729 113.956462 
L 164.467679 112.343478 
L 166.018068 110.749603 
L 167.568456 109.183697 
L 169.118845 107.64659 
L 170.669233 106.133551 
L 172.219622 104.635891 
L 173.770011 103.140985 
L 175.320399 101.633662 
L 176.870788 100.097556 
L 178.421176 98.518068 
L 179.971565 96.883722 
L 181.521953 95.185092 
L 183.072342 93.411706 
L 184.622731 91.550874 
L 186.173119 89.585065 
L 187.723508 87.491349 
L 189.273896 85.239532 
L 190.824285 82.79337 
L 192.374674 80.111106 
L 193.925062 77.15416 
L 195.475451 73.893509 
L 197.025839 70.321014 
L 198.576228 66.450687 
L 200.126617 62.31888 
L 201.677005 57.983266 
L 203.227394 53.52219 
L 204.777782 49.022503 
L 206.328171 44.556192 
L 207.87856 40.182011 
L 209.428948 35.942109 
L 210.979337 31.793972 
L 212.529725 27.75174 
L 214.080114 23.813467 
" style="fill:none;stroke:#ff0000;stroke-linecap:square;stroke-width:1.5;"/>
   </g>
   <g id="patch_101">
    <path d="M 55.490865 137.71551 
L 55.490865 18.118365 
" style="fill:none;stroke:#000000;stroke-linecap:square;stroke-linejoin:miter;stroke-width:0.8;"/>
   </g>
   <g id="patch_102">
    <path d="M 222.28167 137.71551 
L 222.28167 18.118365 
" style="fill:none;stroke:#000000;stroke-linecap:square;stroke-linejoin:miter;stroke-width:0.8;"/>
   </g>
   <g id="patch_103">
    <path d="M 55.490865 137.71551 
L 222.28167 137.71551 
" style="fill:none;stroke:#000000;stroke-linecap:square;stroke-linejoin:miter;stroke-width:0.8;"/>
   </g>
   <g id="patch_104">
    <path d="M 55.490865 18.118365 
L 222.28167 18.118365 
" style="fill:none;stroke:#000000;stroke-linecap:square;stroke-linejoin:miter;stroke-width:0.8;"/>
   </g>
   <g id="text_12">
    <!-- Casos acumulados - SE -->
    <defs>
     <path id="DejaVuSans-32"/>
     <path d="M 48.78125 52.59375 
L 48.78125 44.1875 
Q 44.96875 46.296875 41.140625 47.34375 
Q 37.3125 48.390625 33.40625 48.390625 
Q 24.65625 48.390625 19.8125 42.84375 
Q 14.984375 37.3125 14.984375 27.296875 
Q 14.984375 17.28125 19.8125 11.734375 
Q 24.65625 6.203125 33.40625 6.203125 
Q 37.3125 6.203125 41.140625 7.25 
Q 44.96875 8.296875 48.78125 10.40625 
L 48.78125 2.09375 
Q 45.015625 0.34375 40.984375 -0.53125 
Q 36.96875 -1.421875 32.421875 -1.421875 
Q 20.0625 -1.421875 12.78125 6.34375 
Q 5.515625 14.109375 5.515625 27.296875 
Q 5.515625 40.671875 12.859375 48.328125 
Q 20.21875 56 33.015625 56 
Q 37.15625 56 41.109375 55.140625 
Q 45.0625 54.296875 48.78125 52.59375 
z
" id="DejaVuSans-99"/>
     <path d="M 8.5 21.578125 
L 8.5 54.6875 
L 17.484375 54.6875 
L 17.484375 21.921875 
Q 17.484375 14.15625 20.5 10.265625 
Q 23.53125 6.390625 29.59375 6.390625 
Q 36.859375 6.390625 41.078125 11.03125 
Q 45.3125 15.671875 45.3125 23.6875 
L 45.3125 54.6875 
L 54.296875 54.6875 
L 54.296875 0 
L 45.3125 0 
L 45.3125 8.40625 
Q 42.046875 3.421875 37.71875 1 
Q 33.40625 -1.421875 27.6875 -1.421875 
Q 18.265625 -1.421875 13.375 4.4375 
Q 8.5 10.296875 8.5 21.578125 
z
M 31.109375 56 
z
" id="DejaVuSans-117"/>
     <path d="M 52 44.1875 
Q 55.375 50.25 60.0625 53.125 
Q 64.75 56 71.09375 56 
Q 79.640625 56 84.28125 50.015625 
Q 88.921875 44.046875 88.921875 33.015625 
L 88.921875 0 
L 79.890625 0 
L 79.890625 32.71875 
Q 79.890625 40.578125 77.09375 44.375 
Q 74.3125 48.1875 68.609375 48.1875 
Q 61.625 48.1875 57.5625 43.546875 
Q 53.515625 38.921875 53.515625 30.90625 
L 53.515625 0 
L 44.484375 0 
L 44.484375 32.71875 
Q 44.484375 40.625 41.703125 44.40625 
Q 38.921875 48.1875 33.109375 48.1875 
Q 26.21875 48.1875 22.15625 43.53125 
Q 18.109375 38.875 18.109375 30.90625 
L 18.109375 0 
L 9.078125 0 
L 9.078125 54.6875 
L 18.109375 54.6875 
L 18.109375 46.1875 
Q 21.1875 51.21875 25.484375 53.609375 
Q 29.78125 56 35.6875 56 
Q 41.65625 56 45.828125 52.96875 
Q 50 49.953125 52 44.1875 
z
" id="DejaVuSans-109"/>
     <path d="M 9.421875 75.984375 
L 18.40625 75.984375 
L 18.40625 0 
L 9.421875 0 
z
" id="DejaVuSans-108"/>
     <path d="M 45.40625 46.390625 
L 45.40625 75.984375 
L 54.390625 75.984375 
L 54.390625 0 
L 45.40625 0 
L 45.40625 8.203125 
Q 42.578125 3.328125 38.25 0.953125 
Q 33.9375 -1.421875 27.875 -1.421875 
Q 17.96875 -1.421875 11.734375 6.484375 
Q 5.515625 14.40625 5.515625 27.296875 
Q 5.515625 40.1875 11.734375 48.09375 
Q 17.96875 56 27.875 56 
Q 33.9375 56 38.25 53.625 
Q 42.578125 51.265625 45.40625 46.390625 
z
M 14.796875 27.296875 
Q 14.796875 17.390625 18.875 11.75 
Q 22.953125 6.109375 30.078125 6.109375 
Q 37.203125 6.109375 41.296875 11.75 
Q 45.40625 17.390625 45.40625 27.296875 
Q 45.40625 37.203125 41.296875 42.84375 
Q 37.203125 48.484375 30.078125 48.484375 
Q 22.953125 48.484375 18.875 42.84375 
Q 14.796875 37.203125 14.796875 27.296875 
z
" id="DejaVuSans-100"/>
     <path d="M 4.890625 31.390625 
L 31.203125 31.390625 
L 31.203125 23.390625 
L 4.890625 23.390625 
z
" id="DejaVuSans-45"/>
     <path d="M 53.515625 70.515625 
L 53.515625 60.890625 
Q 47.90625 63.578125 42.921875 64.890625 
Q 37.9375 66.21875 33.296875 66.21875 
Q 25.25 66.21875 20.875 63.09375 
Q 16.5 59.96875 16.5 54.203125 
Q 16.5 49.359375 19.40625 46.890625 
Q 22.3125 44.4375 30.421875 42.921875 
L 36.375 41.703125 
Q 47.40625 39.59375 52.65625 34.296875 
Q 57.90625 29 57.90625 20.125 
Q 57.90625 9.515625 50.796875 4.046875 
Q 43.703125 -1.421875 29.984375 -1.421875 
Q 24.8125 -1.421875 18.96875 -0.25 
Q 13.140625 0.921875 6.890625 3.21875 
L 6.890625 13.375 
Q 12.890625 10.015625 18.65625 8.296875 
Q 24.421875 6.59375 29.984375 6.59375 
Q 38.421875 6.59375 43.015625 9.90625 
Q 47.609375 13.234375 47.609375 19.390625 
Q 47.609375 24.75 44.3125 27.78125 
Q 41.015625 30.8125 33.5 32.328125 
L 27.484375 33.5 
Q 16.453125 35.6875 11.515625 40.375 
Q 6.59375 45.0625 6.59375 53.421875 
Q 6.59375 63.09375 13.40625 68.65625 
Q 20.21875 74.21875 32.171875 74.21875 
Q 37.3125 74.21875 42.625 73.28125 
Q 47.953125 72.359375 53.515625 70.515625 
z
" id="DejaVuSans-83"/>
     <path d="M 9.8125 72.90625 
L 55.90625 72.90625 
L 55.90625 64.59375 
L 19.671875 64.59375 
L 19.671875 43.015625 
L 54.390625 43.015625 
L 54.390625 34.71875 
L 19.671875 34.71875 
L 19.671875 8.296875 
L 56.78125 8.296875 
L 56.78125 0 
L 9.8125 0 
z
" id="DejaVuSans-69"/>
    </defs>
    <g transform="translate(69.23658 12.118365)scale(0.12 -0.12)">
     <use xlink:href="#DejaVuSans-67"/>
     <use x="69.824219" xlink:href="#DejaVuSans-97"/>
     <use x="131.103516" xlink:href="#DejaVuSans-115"/>
     <use x="183.203125" xlink:href="#DejaVuSans-111"/>
     <use x="244.384766" xlink:href="#DejaVuSans-115"/>
     <use x="296.484375" xlink:href="#DejaVuSans-32"/>
     <use x="328.271484" xlink:href="#DejaVuSans-97"/>
     <use x="389.550781" xlink:href="#DejaVuSans-99"/>
     <use x="444.53125" xlink:href="#DejaVuSans-117"/>
     <use x="507.910156" xlink:href="#DejaVuSans-109"/>
     <use x="605.322266" xlink:href="#DejaVuSans-117"/>
     <use x="668.701172" xlink:href="#DejaVuSans-108"/>
     <use x="696.484375" xlink:href="#DejaVuSans-97"/>
     <use x="757.763672" xlink:href="#DejaVuSans-100"/>
     <use x="821.240234" xlink:href="#DejaVuSans-111"/>
     <use x="882.421875" xlink:href="#DejaVuSans-115"/>
     <use x="934.521484" xlink:href="#DejaVuSans-32"/>
     <use x="966.308594" xlink:href="#DejaVuSans-45"/>
     <use x="1002.392578" xlink:href="#DejaVuSans-32"/>
     <use x="1034.179688" xlink:href="#DejaVuSans-83"/>
     <use x="1097.65625" xlink:href="#DejaVuSans-69"/>
    </g>
   </g>
  </g>
  <g id="axes_2">
   <g id="patch_105">
    <path d="M 285.013615 137.71551 
L 451.80442 137.71551 
L 451.80442 18.118365 
L 285.013615 18.118365 
z
" style="fill:#ffffff;"/>
   </g>
   <g id="patch_106">
    <path clip-path="url(#p328a9091a9)" d="M 292.595015 137.71551 
L 293.835326 137.71551 
L 293.835326 137.71551 
L 292.595015 137.71551 
z
" style="fill:#1f77b4;"/>
   </g>
   <g id="patch_107">
    <path clip-path="url(#p328a9091a9)" d="M 294.145404 137.71551 
L 295.385715 137.71551 
L 295.385715 137.515331 
L 294.145404 137.515331 
z
" style="fill:#1f77b4;"/>
   </g>
   <g id="patch_108">
    <path clip-path="url(#p328a9091a9)" d="M 295.695792 137.71551 
L 296.936103 137.71551 
L 296.936103 137.648784 
L 295.695792 137.648784 
z
" style="fill:#1f77b4;"/>
   </g>
   <g id="patch_109">
    <path clip-path="url(#p328a9091a9)" d="M 297.246181 137.71551 
L 298.486492 137.71551 
L 298.486492 137.648784 
L 297.246181 137.648784 
z
" style="fill:#1f77b4;"/>
   </g>
   <g id="patch_110">
    <path clip-path="url(#p328a9091a9)" d="M 298.79657 137.71551 
L 300.03688 137.71551 
L 300.03688 137.71551 
L 298.79657 137.71551 
z
" style="fill:#1f77b4;"/>
   </g>
   <g id="patch_111">
    <path clip-path="url(#p328a9091a9)" d="M 300.346958 137.71551 
L 301.587269 137.71551 
L 301.587269 137.448604 
L 300.346958 137.448604 
z
" style="fill:#1f77b4;"/>
   </g>
   <g id="patch_112">
    <path clip-path="url(#p328a9091a9)" d="M 301.897347 137.71551 
L 303.137658 137.71551 
L 303.137658 137.71551 
L 301.897347 137.71551 
z
" style="fill:#1f77b4;"/>
   </g>
   <g id="patch_113">
    <path clip-path="url(#p328a9091a9)" d="M 303.447735 137.71551 
L 304.688046 137.71551 
L 304.688046 137.71551 
L 303.447735 137.71551 
z
" style="fill:#1f77b4;"/>
   </g>
   <g id="patch_114">
    <path clip-path="url(#p328a9091a9)" d="M 304.998124 137.71551 
L 306.238435 137.71551 
L 306.238435 137.381878 
L 304.998124 137.381878 
z
" style="fill:#1f77b4;"/>
   </g>
   <g id="patch_115">
    <path clip-path="url(#p328a9091a9)" d="M 306.548513 137.71551 
L 307.788823 137.71551 
L 307.788823 137.648784 
L 306.548513 137.648784 
z
" style="fill:#1f77b4;"/>
   </g>
   <g id="patch_116">
    <path clip-path="url(#p328a9091a9)" d="M 308.098901 137.71551 
L 309.339212 137.71551 
L 309.339212 137.71551 
L 308.098901 137.71551 
z
" style="fill:#1f77b4;"/>
   </g>
   <g id="patch_117">
    <path clip-path="url(#p328a9091a9)" d="M 309.64929 137.71551 
L 310.889601 137.71551 
L 310.889601 137.71551 
L 309.64929 137.71551 
z
" style="fill:#1f77b4;"/>
   </g>
   <g id="patch_118">
    <path clip-path="url(#p328a9091a9)" d="M 311.199678 137.71551 
L 312.439989 137.71551 
L 312.439989 137.71551 
L 311.199678 137.71551 
z
" style="fill:#1f77b4;"/>
   </g>
   <g id="patch_119">
    <path clip-path="url(#p328a9091a9)" d="M 312.750067 137.71551 
L 313.990378 137.71551 
L 313.990378 137.71551 
L 312.750067 137.71551 
z
" style="fill:#1f77b4;"/>
   </g>
   <g id="patch_120">
    <path clip-path="url(#p328a9091a9)" d="M 314.300455 137.71551 
L 315.540766 137.71551 
L 315.540766 137.71551 
L 314.300455 137.71551 
z
" style="fill:#1f77b4;"/>
   </g>
   <g id="patch_121">
    <path clip-path="url(#p328a9091a9)" d="M 315.850844 137.71551 
L 317.091155 137.71551 
L 317.091155 137.515331 
L 315.850844 137.515331 
z
" style="fill:#1f77b4;"/>
   </g>
   <g id="patch_122">
    <path clip-path="url(#p328a9091a9)" d="M 317.401233 137.71551 
L 318.641544 137.71551 
L 318.641544 137.648784 
L 317.401233 137.648784 
z
" style="fill:#1f77b4;"/>
   </g>
   <g id="patch_123">
    <path clip-path="url(#p328a9091a9)" d="M 318.951621 137.71551 
L 320.191932 137.71551 
L 320.191932 137.515331 
L 318.951621 137.515331 
z
" style="fill:#1f77b4;"/>
   </g>
   <g id="patch_124">
    <path clip-path="url(#p328a9091a9)" d="M 320.50201 137.71551 
L 321.742321 137.71551 
L 321.742321 137.582057 
L 320.50201 137.582057 
z
" style="fill:#1f77b4;"/>
   </g>
   <g id="patch_125">
    <path clip-path="url(#p328a9091a9)" d="M 322.052398 137.71551 
L 323.292709 137.71551 
L 323.292709 137.582057 
L 322.052398 137.582057 
z
" style="fill:#1f77b4;"/>
   </g>
   <g id="patch_126">
    <path clip-path="url(#p328a9091a9)" d="M 323.602787 137.71551 
L 324.843098 137.71551 
L 324.843098 137.381878 
L 323.602787 137.381878 
z
" style="fill:#1f77b4;"/>
   </g>
   <g id="patch_127">
    <path clip-path="url(#p328a9091a9)" d="M 325.153176 137.71551 
L 326.393486 137.71551 
L 326.393486 137.71551 
L 325.153176 137.71551 
z
" style="fill:#1f77b4;"/>
   </g>
   <g id="patch_128">
    <path clip-path="url(#p328a9091a9)" d="M 326.703564 137.71551 
L 327.943875 137.71551 
L 327.943875 137.448604 
L 326.703564 137.448604 
z
" style="fill:#1f77b4;"/>
   </g>
   <g id="patch_129">
    <path clip-path="url(#p328a9091a9)" d="M 328.253953 137.71551 
L 329.494264 137.71551 
L 329.494264 137.71551 
L 328.253953 137.71551 
z
" style="fill:#1f77b4;"/>
   </g>
   <g id="patch_130">
    <path clip-path="url(#p328a9091a9)" d="M 329.804341 137.71551 
L 331.044652 137.71551 
L 331.044652 137.515331 
L 329.804341 137.515331 
z
" style="fill:#1f77b4;"/>
   </g>
   <g id="patch_131">
    <path clip-path="url(#p328a9091a9)" d="M 331.35473 137.71551 
L 332.595041 137.71551 
L 332.595041 137.515331 
L 331.35473 137.515331 
z
" style="fill:#1f77b4;"/>
   </g>
   <g id="patch_132">
    <path clip-path="url(#p328a9091a9)" d="M 332.905119 137.71551 
L 334.145429 137.71551 
L 334.145429 137.71551 
L 332.905119 137.71551 
z
" style="fill:#1f77b4;"/>
   </g>
   <g id="patch_133">
    <path clip-path="url(#p328a9091a9)" d="M 334.455507 137.71551 
L 335.695818 137.71551 
L 335.695818 137.582057 
L 334.455507 137.582057 
z
" style="fill:#1f77b4;"/>
   </g>
   <g id="patch_134">
    <path clip-path="url(#p328a9091a9)" d="M 336.005896 137.71551 
L 337.246207 137.71551 
L 337.246207 137.71551 
L 336.005896 137.71551 
z
" style="fill:#1f77b4;"/>
   </g>
   <g id="patch_135">
    <path clip-path="url(#p328a9091a9)" d="M 337.556284 137.71551 
L 338.796595 137.71551 
L 338.796595 137.648784 
L 337.556284 137.648784 
z
" style="fill:#1f77b4;"/>
   </g>
   <g id="patch_136">
    <path clip-path="url(#p328a9091a9)" d="M 339.106673 137.71551 
L 340.346984 137.71551 
L 340.346984 137.648784 
L 339.106673 137.648784 
z
" style="fill:#1f77b4;"/>
   </g>
   <g id="patch_137">
    <path clip-path="url(#p328a9091a9)" d="M 340.657062 137.71551 
L 341.897372 137.71551 
L 341.897372 137.582057 
L 340.657062 137.582057 
z
" style="fill:#1f77b4;"/>
   </g>
   <g id="patch_138">
    <path clip-path="url(#p328a9091a9)" d="M 342.20745 137.71551 
L 343.447761 137.71551 
L 343.447761 137.381878 
L 342.20745 137.381878 
z
" style="fill:#1f77b4;"/>
   </g>
   <g id="patch_139">
    <path clip-path="url(#p328a9091a9)" d="M 343.757839 137.71551 
L 344.99815 137.71551 
L 344.99815 136.514434 
L 343.757839 136.514434 
z
" style="fill:#1f77b4;"/>
   </g>
   <g id="patch_140">
    <path clip-path="url(#p328a9091a9)" d="M 345.308227 137.71551 
L 346.548538 137.71551 
L 346.548538 136.914793 
L 345.308227 136.914793 
z
" style="fill:#1f77b4;"/>
   </g>
   <g id="patch_141">
    <path clip-path="url(#p328a9091a9)" d="M 346.858616 137.71551 
L 348.098927 137.71551 
L 348.098927 137.515331 
L 346.858616 137.515331 
z
" style="fill:#1f77b4;"/>
   </g>
   <g id="patch_142">
    <path clip-path="url(#p328a9091a9)" d="M 348.409004 137.71551 
L 349.649315 137.71551 
L 349.649315 137.315151 
L 348.409004 137.315151 
z
" style="fill:#1f77b4;"/>
   </g>
   <g id="patch_143">
    <path clip-path="url(#p328a9091a9)" d="M 349.959393 137.71551 
L 351.199704 137.71551 
L 351.199704 136.047349 
L 349.959393 136.047349 
z
" style="fill:#1f77b4;"/>
   </g>
   <g id="patch_144">
    <path clip-path="url(#p328a9091a9)" d="M 351.509782 137.71551 
L 352.750093 137.71551 
L 352.750093 137.248425 
L 351.509782 137.248425 
z
" style="fill:#1f77b4;"/>
   </g>
   <g id="patch_145">
    <path clip-path="url(#p328a9091a9)" d="M 353.06017 137.71551 
L 354.300481 137.71551 
L 354.300481 136.380981 
L 353.06017 136.380981 
z
" style="fill:#1f77b4;"/>
   </g>
   <g id="patch_146">
    <path clip-path="url(#p328a9091a9)" d="M 354.610559 137.71551 
L 355.85087 137.71551 
L 355.85087 137.114972 
L 354.610559 137.114972 
z
" style="fill:#1f77b4;"/>
   </g>
   <g id="patch_147">
    <path clip-path="url(#p328a9091a9)" d="M 356.160947 137.71551 
L 357.401258 137.71551 
L 357.401258 137.315151 
L 356.160947 137.315151 
z
" style="fill:#1f77b4;"/>
   </g>
   <g id="patch_148">
    <path clip-path="url(#p328a9091a9)" d="M 357.711336 137.71551 
L 358.951647 137.71551 
L 358.951647 135.179905 
L 357.711336 135.179905 
z
" style="fill:#1f77b4;"/>
   </g>
   <g id="patch_149">
    <path clip-path="url(#p328a9091a9)" d="M 359.261725 137.71551 
L 360.502035 137.71551 
L 360.502035 132.177215 
L 359.261725 132.177215 
z
" style="fill:#1f77b4;"/>
   </g>
   <g id="patch_150">
    <path clip-path="url(#p328a9091a9)" d="M 360.812113 137.71551 
L 362.052424 137.71551 
L 362.052424 133.912103 
L 360.812113 133.912103 
z
" style="fill:#1f77b4;"/>
   </g>
   <g id="patch_151">
    <path clip-path="url(#p328a9091a9)" d="M 362.362502 137.71551 
L 363.602813 137.71551 
L 363.602813 130.375601 
L 362.362502 130.375601 
z
" style="fill:#1f77b4;"/>
   </g>
   <g id="patch_152">
    <path clip-path="url(#p328a9091a9)" d="M 363.91289 137.71551 
L 365.153201 137.71551 
L 365.153201 133.044659 
L 363.91289 133.044659 
z
" style="fill:#1f77b4;"/>
   </g>
   <g id="patch_153">
    <path clip-path="url(#p328a9091a9)" d="M 365.463279 137.71551 
L 366.70359 137.71551 
L 366.70359 132.110489 
L 365.463279 132.110489 
z
" style="fill:#1f77b4;"/>
   </g>
   <g id="patch_154">
    <path clip-path="url(#p328a9091a9)" d="M 367.013668 137.71551 
L 368.253978 137.71551 
L 368.253978 129.107799 
L 367.013668 129.107799 
z
" style="fill:#1f77b4;"/>
   </g>
   <g id="patch_155">
    <path clip-path="url(#p328a9091a9)" d="M 368.564056 137.71551 
L 369.804367 137.71551 
L 369.804367 134.912999 
L 368.564056 134.912999 
z
" style="fill:#1f77b4;"/>
   </g>
   <g id="patch_156">
    <path clip-path="url(#p328a9091a9)" d="M 370.114445 137.71551 
L 371.354756 137.71551 
L 371.354756 129.307978 
L 370.114445 129.307978 
z
" style="fill:#1f77b4;"/>
   </g>
   <g id="patch_157">
    <path clip-path="url(#p328a9091a9)" d="M 371.664833 137.71551 
L 372.905144 137.71551 
L 372.905144 131.042865 
L 371.664833 131.042865 
z
" style="fill:#1f77b4;"/>
   </g>
   <g id="patch_158">
    <path clip-path="url(#p328a9091a9)" d="M 373.215222 137.71551 
L 374.455533 137.71551 
L 374.455533 123.302598 
L 373.215222 123.302598 
z
" style="fill:#1f77b4;"/>
   </g>
   <g id="patch_159">
    <path clip-path="url(#p328a9091a9)" d="M 374.76561 137.71551 
L 376.005921 137.71551 
L 376.005921 122.768786 
L 374.76561 122.768786 
z
" style="fill:#1f77b4;"/>
   </g>
   <g id="patch_160">
    <path clip-path="url(#p328a9091a9)" d="M 376.315999 137.71551 
L 377.55631 137.71551 
L 377.55631 127.706543 
L 376.315999 127.706543 
z
" style="fill:#1f77b4;"/>
   </g>
   <g id="patch_161">
    <path clip-path="url(#p328a9091a9)" d="M 377.866388 137.71551 
L 379.106699 137.71551 
L 379.106699 125.50457 
L 377.866388 125.50457 
z
" style="fill:#1f77b4;"/>
   </g>
   <g id="patch_162">
    <path clip-path="url(#p328a9091a9)" d="M 379.416776 137.71551 
L 380.657087 137.71551 
L 380.657087 135.780443 
L 379.416776 135.780443 
z
" style="fill:#1f77b4;"/>
   </g>
   <g id="patch_163">
    <path clip-path="url(#p328a9091a9)" d="M 380.967165 137.71551 
L 382.207476 137.71551 
L 382.207476 122.234975 
L 380.967165 122.234975 
z
" style="fill:#1f77b4;"/>
   </g>
   <g id="patch_164">
    <path clip-path="url(#p328a9091a9)" d="M 382.517553 137.71551 
L 383.757864 137.71551 
L 383.757864 121.968069 
L 382.517553 121.968069 
z
" style="fill:#1f77b4;"/>
   </g>
   <g id="patch_165">
    <path clip-path="url(#p328a9091a9)" d="M 384.067942 137.71551 
L 385.308253 137.71551 
L 385.308253 122.635333 
L 384.067942 122.635333 
z
" style="fill:#1f77b4;"/>
   </g>
   <g id="patch_166">
    <path clip-path="url(#p328a9091a9)" d="M 385.618331 137.71551 
L 386.858641 137.71551 
L 386.858641 112.759819 
L 385.618331 112.759819 
z
" style="fill:#1f77b4;"/>
   </g>
   <g id="patch_167">
    <path clip-path="url(#p328a9091a9)" d="M 387.168719 137.71551 
L 388.40903 137.71551 
L 388.40903 119.899549 
L 387.168719 119.899549 
z
" style="fill:#1f77b4;"/>
   </g>
   <g id="patch_168">
    <path clip-path="url(#p328a9091a9)" d="M 388.719108 137.71551 
L 389.959419 137.71551 
L 389.959419 123.836409 
L 388.719108 123.836409 
z
" style="fill:#1f77b4;"/>
   </g>
   <g id="patch_169">
    <path clip-path="url(#p328a9091a9)" d="M 390.269496 137.71551 
L 391.509807 137.71551 
L 391.509807 122.835513 
L 390.269496 122.835513 
z
" style="fill:#1f77b4;"/>
   </g>
   <g id="patch_170">
    <path clip-path="url(#p328a9091a9)" d="M 391.819885 137.71551 
L 393.060196 137.71551 
L 393.060196 110.958205 
L 391.819885 110.958205 
z
" style="fill:#1f77b4;"/>
   </g>
   <g id="patch_171">
    <path clip-path="url(#p328a9091a9)" d="M 393.370274 137.71551 
L 394.610584 137.71551 
L 394.610584 117.030312 
L 393.370274 117.030312 
z
" style="fill:#1f77b4;"/>
   </g>
   <g id="patch_172">
    <path clip-path="url(#p328a9091a9)" d="M 394.920662 137.71551 
L 396.160973 137.71551 
L 396.160973 107.221524 
L 394.920662 107.221524 
z
" style="fill:#1f77b4;"/>
   </g>
   <g id="patch_173">
    <path clip-path="url(#p328a9091a9)" d="M 396.471051 137.71551 
L 397.711362 137.71551 
L 397.711362 125.170938 
L 396.471051 125.170938 
z
" style="fill:#1f77b4;"/>
   </g>
   <g id="patch_174">
    <path clip-path="url(#p328a9091a9)" d="M 398.021439 137.71551 
L 399.26175 137.71551 
L 399.26175 123.769683 
L 398.021439 123.769683 
z
" style="fill:#1f77b4;"/>
   </g>
   <g id="patch_175">
    <path clip-path="url(#p328a9091a9)" d="M 399.571828 137.71551 
L 400.812139 137.71551 
L 400.812139 125.50457 
L 399.571828 125.50457 
z
" style="fill:#1f77b4;"/>
   </g>
   <g id="patch_176">
    <path clip-path="url(#p328a9091a9)" d="M 401.122217 137.71551 
L 402.362527 137.71551 
L 402.362527 128.774166 
L 401.122217 128.774166 
z
" style="fill:#1f77b4;"/>
   </g>
   <g id="patch_177">
    <path clip-path="url(#p328a9091a9)" d="M 402.672605 137.71551 
L 403.912916 137.71551 
L 403.912916 118.56502 
L 402.672605 118.56502 
z
" style="fill:#1f77b4;"/>
   </g>
   <g id="patch_178">
    <path clip-path="url(#p328a9091a9)" d="M 404.222994 137.71551 
L 405.463305 137.71551 
L 405.463305 125.904929 
L 404.222994 125.904929 
z
" style="fill:#1f77b4;"/>
   </g>
   <g id="patch_179">
    <path clip-path="url(#p328a9091a9)" d="M 405.773382 137.71551 
L 407.013693 137.71551 
L 407.013693 121.434257 
L 405.773382 121.434257 
z
" style="fill:#1f77b4;"/>
   </g>
   <g id="patch_180">
    <path clip-path="url(#p328a9091a9)" d="M 407.323771 137.71551 
L 408.564082 137.71551 
L 408.564082 117.297218 
L 407.323771 117.297218 
z
" style="fill:#1f77b4;"/>
   </g>
   <g id="patch_181">
    <path clip-path="url(#p328a9091a9)" d="M 408.874159 137.71551 
L 410.11447 137.71551 
L 410.11447 114.828339 
L 408.874159 114.828339 
z
" style="fill:#1f77b4;"/>
   </g>
   <g id="patch_182">
    <path clip-path="url(#p328a9091a9)" d="M 410.424548 137.71551 
L 411.664859 137.71551 
L 411.664859 124.77058 
L 410.424548 124.77058 
z
" style="fill:#1f77b4;"/>
   </g>
   <g id="patch_183">
    <path clip-path="url(#p328a9091a9)" d="M 411.974937 137.71551 
L 413.215248 137.71551 
L 413.215248 122.101522 
L 411.974937 122.101522 
z
" style="fill:#1f77b4;"/>
   </g>
   <g id="patch_184">
    <path clip-path="url(#p328a9091a9)" d="M 413.525325 137.71551 
L 414.765636 137.71551 
L 414.765636 116.229594 
L 413.525325 116.229594 
z
" style="fill:#1f77b4;"/>
   </g>
   <g id="patch_185">
    <path clip-path="url(#p328a9091a9)" d="M 415.075714 137.71551 
L 416.316025 137.71551 
L 416.316025 108.756233 
L 415.075714 108.756233 
z
" style="fill:#1f77b4;"/>
   </g>
   <g id="patch_186">
    <path clip-path="url(#p328a9091a9)" d="M 416.626102 137.71551 
L 417.866413 137.71551 
L 417.866413 123.63623 
L 416.626102 123.63623 
z
" style="fill:#1f77b4;"/>
   </g>
   <g id="patch_187">
    <path clip-path="url(#p328a9091a9)" d="M 418.176491 137.71551 
L 419.416802 137.71551 
L 419.416802 112.55964 
L 418.176491 112.55964 
z
" style="fill:#1f77b4;"/>
   </g>
   <g id="patch_188">
    <path clip-path="url(#p328a9091a9)" d="M 419.72688 137.71551 
L 420.96719 137.71551 
L 420.96719 111.358564 
L 419.72688 111.358564 
z
" style="fill:#1f77b4;"/>
   </g>
   <g id="patch_189">
    <path clip-path="url(#p328a9091a9)" d="M 421.277268 137.71551 
L 422.517579 137.71551 
L 422.517579 116.4965 
L 421.277268 116.4965 
z
" style="fill:#1f77b4;"/>
   </g>
   <g id="patch_190">
    <path clip-path="url(#p328a9091a9)" d="M 422.827657 137.71551 
L 424.067968 137.71551 
L 424.067968 108.556053 
L 422.827657 108.556053 
z
" style="fill:#1f77b4;"/>
   </g>
   <g id="patch_191">
    <path clip-path="url(#p328a9091a9)" d="M 424.378045 137.71551 
L 425.618356 137.71551 
L 425.618356 111.091658 
L 424.378045 111.091658 
z
" style="fill:#1f77b4;"/>
   </g>
   <g id="patch_192">
    <path clip-path="url(#p328a9091a9)" d="M 425.928434 137.71551 
L 427.168745 137.71551 
L 427.168745 105.086278 
L 425.928434 105.086278 
z
" style="fill:#1f77b4;"/>
   </g>
   <g id="patch_193">
    <path clip-path="url(#p328a9091a9)" d="M 427.478823 137.71551 
L 428.719133 137.71551 
L 428.719133 108.289147 
L 427.478823 108.289147 
z
" style="fill:#1f77b4;"/>
   </g>
   <g id="patch_194">
    <path clip-path="url(#p328a9091a9)" d="M 429.029211 137.71551 
L 430.269522 137.71551 
L 430.269522 105.820269 
L 429.029211 105.820269 
z
" style="fill:#1f77b4;"/>
   </g>
   <g id="patch_195">
    <path clip-path="url(#p328a9091a9)" d="M 430.5796 137.71551 
L 431.819911 137.71551 
L 431.819911 48.835884 
L 430.5796 48.835884 
z
" style="fill:#1f77b4;"/>
   </g>
   <g id="patch_196">
    <path clip-path="url(#p328a9091a9)" d="M 432.129988 137.71551 
L 433.370299 137.71551 
L 433.370299 64.182967 
L 432.129988 64.182967 
z
" style="fill:#1f77b4;"/>
   </g>
   <g id="patch_197">
    <path clip-path="url(#p328a9091a9)" d="M 433.680377 137.71551 
L 434.920688 137.71551 
L 434.920688 23.813467 
L 433.680377 23.813467 
z
" style="fill:#1f77b4;"/>
   </g>
   <g id="patch_198">
    <path clip-path="url(#p328a9091a9)" d="M 435.230766 137.71551 
L 436.471076 137.71551 
L 436.471076 95.344217 
L 435.230766 95.344217 
z
" style="fill:#1f77b4;"/>
   </g>
   <g id="patch_199">
    <path clip-path="url(#p328a9091a9)" d="M 436.781154 137.71551 
L 438.021465 137.71551 
L 438.021465 104.552466 
L 436.781154 104.552466 
z
" style="fill:#1f77b4;"/>
   </g>
   <g id="patch_200">
    <path clip-path="url(#p328a9091a9)" d="M 438.331543 137.71551 
L 439.571854 137.71551 
L 439.571854 102.283767 
L 438.331543 102.283767 
z
" style="fill:#1f77b4;"/>
   </g>
   <g id="patch_201">
    <path clip-path="url(#p328a9091a9)" d="M 439.881931 137.71551 
L 441.122242 137.71551 
L 441.122242 106.354081 
L 439.881931 106.354081 
z
" style="fill:#1f77b4;"/>
   </g>
   <g id="patch_202">
    <path clip-path="url(#p328a9091a9)" d="M 441.43232 137.71551 
L 442.672631 137.71551 
L 442.672631 94.943858 
L 441.43232 94.943858 
z
" style="fill:#1f77b4;"/>
   </g>
   <g id="patch_203">
    <path clip-path="url(#p328a9091a9)" d="M 442.982708 137.71551 
L 444.223019 137.71551 
L 444.223019 101.950135 
L 442.982708 101.950135 
z
" style="fill:#1f77b4;"/>
   </g>
   <g id="matplotlib.axis_3">
    <g id="xtick_6">
     <g id="line2d_11">
      <g>
       <use style="stroke:#000000;stroke-width:0.8;" x="293.215171" xlink:href="#m8eb039ed75" y="137.71551"/>
      </g>
     </g>
     <g id="text_13">
      <!-- 0 -->
      <g transform="translate(290.033921 152.313947)scale(0.1 -0.1)">
       <use xlink:href="#DejaVuSans-48"/>
      </g>
     </g>
    </g>
    <g id="xtick_7">
     <g id="line2d_12">
      <g>
       <use style="stroke:#000000;stroke-width:0.8;" x="331.974885" xlink:href="#m8eb039ed75" y="137.71551"/>
      </g>
     </g>
     <g id="text_14">
      <!-- 25 -->
      <g transform="translate(325.612385 152.313947)scale(0.1 -0.1)">
       <use xlink:href="#DejaVuSans-50"/>
       <use x="63.623047" xlink:href="#DejaVuSans-53"/>
      </g>
     </g>
    </g>
    <g id="xtick_8">
     <g id="line2d_13">
      <g>
       <use style="stroke:#000000;stroke-width:0.8;" x="370.7346" xlink:href="#m8eb039ed75" y="137.71551"/>
      </g>
     </g>
     <g id="text_15">
      <!-- 50 -->
      <g transform="translate(364.3721 152.313947)scale(0.1 -0.1)">
       <use xlink:href="#DejaVuSans-53"/>
       <use x="63.623047" xlink:href="#DejaVuSans-48"/>
      </g>
     </g>
    </g>
    <g id="xtick_9">
     <g id="line2d_14">
      <g>
       <use style="stroke:#000000;stroke-width:0.8;" x="409.494315" xlink:href="#m8eb039ed75" y="137.71551"/>
      </g>
     </g>
     <g id="text_16">
      <!-- 75 -->
      <g transform="translate(403.131815 152.313947)scale(0.1 -0.1)">
       <use xlink:href="#DejaVuSans-55"/>
       <use x="63.623047" xlink:href="#DejaVuSans-53"/>
      </g>
     </g>
    </g>
    <g id="xtick_10">
     <g id="line2d_15">
      <g>
       <use style="stroke:#000000;stroke-width:0.8;" x="448.25403" xlink:href="#m8eb039ed75" y="137.71551"/>
      </g>
     </g>
     <g id="text_17">
      <!-- 100 -->
      <g transform="translate(438.71028 152.313947)scale(0.1 -0.1)">
       <use xlink:href="#DejaVuSans-49"/>
       <use x="63.623047" xlink:href="#DejaVuSans-48"/>
       <use x="127.246094" xlink:href="#DejaVuSans-48"/>
      </g>
     </g>
    </g>
    <g id="text_18">
     <!-- Dias -->
     <g transform="translate(357.501205 165.992072)scale(0.1 -0.1)">
      <use xlink:href="#DejaVuSans-68"/>
      <use x="77.001953" xlink:href="#DejaVuSans-105"/>
      <use x="104.785156" xlink:href="#DejaVuSans-97"/>
      <use x="166.064453" xlink:href="#DejaVuSans-115"/>
     </g>
    </g>
   </g>
   <g id="matplotlib.axis_4">
    <g id="ytick_5">
     <g id="line2d_16">
      <g>
       <use style="stroke:#000000;stroke-width:0.8;" x="285.013615" xlink:href="#m454f17ae51" y="137.71551"/>
      </g>
     </g>
     <g id="text_19">
      <!-- 0 -->
      <g transform="translate(271.651115 141.514729)scale(0.1 -0.1)">
       <use xlink:href="#DejaVuSans-48"/>
      </g>
     </g>
    </g>
    <g id="ytick_6">
     <g id="line2d_17">
      <g>
       <use style="stroke:#000000;stroke-width:0.8;" x="285.013615" xlink:href="#m454f17ae51" y="104.352287"/>
      </g>
     </g>
     <g id="text_20">
      <!-- 500 -->
      <g transform="translate(258.926115 108.151506)scale(0.1 -0.1)">
       <use xlink:href="#DejaVuSans-53"/>
       <use x="63.623047" xlink:href="#DejaVuSans-48"/>
       <use x="127.246094" xlink:href="#DejaVuSans-48"/>
      </g>
     </g>
    </g>
    <g id="ytick_7">
     <g id="line2d_18">
      <g>
       <use style="stroke:#000000;stroke-width:0.8;" x="285.013615" xlink:href="#m454f17ae51" y="70.989064"/>
      </g>
     </g>
     <g id="text_21">
      <!-- 1000 -->
      <g transform="translate(252.563615 74.788283)scale(0.1 -0.1)">
       <use xlink:href="#DejaVuSans-49"/>
       <use x="63.623047" xlink:href="#DejaVuSans-48"/>
       <use x="127.246094" xlink:href="#DejaVuSans-48"/>
       <use x="190.869141" xlink:href="#DejaVuSans-48"/>
      </g>
     </g>
    </g>
    <g id="ytick_8">
     <g id="line2d_19">
      <g>
       <use style="stroke:#000000;stroke-width:0.8;" x="285.013615" xlink:href="#m454f17ae51" y="37.625841"/>
      </g>
     </g>
     <g id="text_22">
      <!-- 1500 -->
      <g transform="translate(252.563615 41.42506)scale(0.1 -0.1)">
       <use xlink:href="#DejaVuSans-49"/>
       <use x="63.623047" xlink:href="#DejaVuSans-53"/>
       <use x="127.246094" xlink:href="#DejaVuSans-48"/>
       <use x="190.869141" xlink:href="#DejaVuSans-48"/>
      </g>
     </g>
    </g>
    <g id="text_23">
     <!-- Novos casos -->
     <defs>
      <path d="M 9.8125 72.90625 
L 23.09375 72.90625 
L 55.421875 11.921875 
L 55.421875 72.90625 
L 64.984375 72.90625 
L 64.984375 0 
L 51.703125 0 
L 19.390625 60.984375 
L 19.390625 0 
L 9.8125 0 
z
" id="DejaVuSans-78"/>
      <path d="M 2.984375 54.6875 
L 12.5 54.6875 
L 29.59375 8.796875 
L 46.6875 54.6875 
L 56.203125 54.6875 
L 35.6875 0 
L 23.484375 0 
z
" id="DejaVuSans-118"/>
     </defs>
     <g transform="translate(246.483927 109.011469)rotate(-90)scale(0.1 -0.1)">
      <use xlink:href="#DejaVuSans-78"/>
      <use x="74.804688" xlink:href="#DejaVuSans-111"/>
      <use x="135.986328" xlink:href="#DejaVuSans-118"/>
      <use x="195.166016" xlink:href="#DejaVuSans-111"/>
      <use x="256.347656" xlink:href="#DejaVuSans-115"/>
      <use x="308.447266" xlink:href="#DejaVuSans-32"/>
      <use x="340.234375" xlink:href="#DejaVuSans-99"/>
      <use x="395.214844" xlink:href="#DejaVuSans-97"/>
      <use x="456.494141" xlink:href="#DejaVuSans-115"/>
      <use x="508.59375" xlink:href="#DejaVuSans-111"/>
      <use x="569.775391" xlink:href="#DejaVuSans-115"/>
     </g>
    </g>
   </g>
   <g id="line2d_20">
    <path clip-path="url(#p328a9091a9)" d="M 293.215171 137.675352 
L 294.765559 137.663457 
L 296.315948 137.651146 
L 297.866336 137.643475 
L 299.416725 137.637973 
L 300.967114 137.634944 
L 302.517502 137.634638 
L 304.067891 137.635944 
L 305.618279 137.638167 
L 307.168668 137.640613 
L 308.719057 137.642225 
L 310.269445 137.642114 
L 311.819834 137.639751 
L 313.370222 137.634749 
L 314.920611 137.627384 
L 316.470999 137.618408 
L 318.021388 137.60857 
L 319.571777 137.59901 
L 321.122165 137.590756 
L 322.672554 137.584586 
L 324.222942 137.58114 
L 325.773331 137.580112 
L 327.32372 137.580251 
L 328.874108 137.580223 
L 330.424497 137.578166 
L 331.974885 137.571719 
L 333.525274 137.558379 
L 335.075663 137.535368 
L 336.626051 137.50188 
L 338.17644 137.458498 
L 339.726828 137.405083 
L 341.277217 137.340052 
L 342.827606 137.262821 
L 344.377994 137.170443 
L 345.928383 137.059695 
L 347.478771 136.922963 
L 349.02916 136.747796 
L 350.579548 136.5243 
L 352.129937 136.247306 
L 353.680326 135.911145 
L 355.230714 135.515344 
L 356.781103 135.058124 
L 358.331491 134.543378 
L 359.88188 133.984526 
L 361.432269 133.392854 
L 362.982657 132.774001 
L 364.533046 132.131415 
L 366.083434 131.468653 
L 367.633823 130.794191 
L 369.184212 130.112252 
L 370.7346 129.420448 
L 372.284989 128.710552 
L 373.835377 127.977034 
L 375.385766 127.220949 
L 376.936155 126.431793 
L 378.486543 125.605285 
L 380.036932 124.745095 
L 381.58732 123.856586 
L 383.137709 122.964964 
L 384.688097 122.105051 
L 386.238486 121.311393 
L 387.788875 120.645824 
L 389.339263 120.143166 
L 390.889652 119.821762 
L 392.44004 119.69698 
L 393.990429 119.757453 
L 395.540818 119.970194 
L 397.091206 120.281593 
L 398.641595 120.602219 
L 400.191983 120.870181 
L 401.742372 121.041402 
L 403.292761 121.072056 
L 404.843149 120.933823 
L 406.393538 120.613364 
L 407.943926 120.130382 
L 409.494315 119.519617 
L 411.044703 118.803912 
L 412.595092 117.971624 
L 414.145481 116.998046 
L 415.695869 115.829291 
L 417.246258 114.405247 
L 418.796646 112.645042 
L 420.347035 110.48131 
L 421.897424 107.852688 
L 423.447812 104.794527 
L 424.998201 101.413239 
L 426.548589 97.941351 
L 428.098978 94.625456 
L 429.649367 91.714282 
L 431.199755 89.445221 
L 432.750144 88.048385 
L 434.300532 87.618512 
L 435.850921 87.990107 
L 437.40131 89.015821 
L 438.951698 90.510816 
L 440.502087 91.532472 
L 442.052475 92.711565 
L 443.602864 93.868982 
" style="fill:none;stroke:#ff0000;stroke-linecap:square;stroke-width:1.5;"/>
   </g>
   <g id="patch_204">
    <path d="M 285.013615 137.71551 
L 285.013615 18.118365 
" style="fill:none;stroke:#000000;stroke-linecap:square;stroke-linejoin:miter;stroke-width:0.8;"/>
   </g>
   <g id="patch_205">
    <path d="M 451.80442 137.71551 
L 451.80442 18.118365 
" style="fill:none;stroke:#000000;stroke-linecap:square;stroke-linejoin:miter;stroke-width:0.8;"/>
   </g>
   <g id="patch_206">
    <path d="M 285.013615 137.71551 
L 451.80442 137.71551 
" style="fill:none;stroke:#000000;stroke-linecap:square;stroke-linejoin:miter;stroke-width:0.8;"/>
   </g>
   <g id="patch_207">
    <path d="M 285.013615 18.118365 
L 451.80442 18.118365 
" style="fill:none;stroke:#000000;stroke-linecap:square;stroke-linejoin:miter;stroke-width:0.8;"/>
   </g>
   <g id="text_24">
    <!-- Casos novos - SE -->
    <defs>
     <path d="M 54.890625 33.015625 
L 54.890625 0 
L 45.90625 0 
L 45.90625 32.71875 
Q 45.90625 40.484375 42.875 44.328125 
Q 39.84375 48.1875 33.796875 48.1875 
Q 26.515625 48.1875 22.3125 43.546875 
Q 18.109375 38.921875 18.109375 30.90625 
L 18.109375 0 
L 9.078125 0 
L 9.078125 54.6875 
L 18.109375 54.6875 
L 18.109375 46.1875 
Q 21.34375 51.125 25.703125 53.5625 
Q 30.078125 56 35.796875 56 
Q 45.21875 56 50.046875 50.171875 
Q 54.890625 44.34375 54.890625 33.015625 
z
" id="DejaVuSans-110"/>
    </defs>
    <g transform="translate(317.312455 12.118365)scale(0.12 -0.12)">
     <use xlink:href="#DejaVuSans-67"/>
     <use x="69.824219" xlink:href="#DejaVuSans-97"/>
     <use x="131.103516" xlink:href="#DejaVuSans-115"/>
     <use x="183.203125" xlink:href="#DejaVuSans-111"/>
     <use x="244.384766" xlink:href="#DejaVuSans-115"/>
     <use x="296.484375" xlink:href="#DejaVuSans-32"/>
     <use x="328.271484" xlink:href="#DejaVuSans-110"/>
     <use x="391.650391" xlink:href="#DejaVuSans-111"/>
     <use x="452.832031" xlink:href="#DejaVuSans-118"/>
     <use x="512.011719" xlink:href="#DejaVuSans-111"/>
     <use x="573.193359" xlink:href="#DejaVuSans-115"/>
     <use x="625.292969" xlink:href="#DejaVuSans-32"/>
     <use x="657.080078" xlink:href="#DejaVuSans-45"/>
     <use x="693.164062" xlink:href="#DejaVuSans-32"/>
     <use x="724.951172" xlink:href="#DejaVuSans-83"/>
     <use x="788.427734" xlink:href="#DejaVuSans-69"/>
    </g>
   </g>
  </g>
  <g id="axes_3">
   <g id="patch_208">
    <path d="M 55.490865 312.24351 
L 451.80442 312.24351 
L 451.80442 192.646365 
L 55.490865 192.646365 
z
" style="fill:#ffffff;"/>
   </g>
   <g id="matplotlib.axis_5">
    <g id="xtick_11">
     <g id="line2d_21">
      <g>
       <use style="stroke:#000000;stroke-width:0.8;" x="73.505117" xlink:href="#m8eb039ed75" y="312.24351"/>
      </g>
     </g>
     <g id="text_25">
      <!-- 0 -->
      <g transform="translate(70.323867 326.841947)scale(0.1 -0.1)">
       <use xlink:href="#DejaVuSans-48"/>
      </g>
     </g>
    </g>
    <g id="xtick_12">
     <g id="line2d_22">
      <g>
       <use style="stroke:#000000;stroke-width:0.8;" x="147.790695" xlink:href="#m8eb039ed75" y="312.24351"/>
      </g>
     </g>
     <g id="text_26">
      <!-- 20 -->
      <g transform="translate(141.428195 326.841947)scale(0.1 -0.1)">
       <use xlink:href="#DejaVuSans-50"/>
       <use x="63.623047" xlink:href="#DejaVuSans-48"/>
      </g>
     </g>
    </g>
    <g id="xtick_13">
     <g id="line2d_23">
      <g>
       <use style="stroke:#000000;stroke-width:0.8;" x="222.076272" xlink:href="#m8eb039ed75" y="312.24351"/>
      </g>
     </g>
     <g id="text_27">
      <!-- 40 -->
      <defs>
       <path d="M 37.796875 64.3125 
L 12.890625 25.390625 
L 37.796875 25.390625 
z
M 35.203125 72.90625 
L 47.609375 72.90625 
L 47.609375 25.390625 
L 58.015625 25.390625 
L 58.015625 17.1875 
L 47.609375 17.1875 
L 47.609375 0 
L 37.796875 0 
L 37.796875 17.1875 
L 4.890625 17.1875 
L 4.890625 26.703125 
z
" id="DejaVuSans-52"/>
      </defs>
      <g transform="translate(215.713772 326.841947)scale(0.1 -0.1)">
       <use xlink:href="#DejaVuSans-52"/>
       <use x="63.623047" xlink:href="#DejaVuSans-48"/>
      </g>
     </g>
    </g>
    <g id="xtick_14">
     <g id="line2d_24">
      <g>
       <use style="stroke:#000000;stroke-width:0.8;" x="296.361849" xlink:href="#m8eb039ed75" y="312.24351"/>
      </g>
     </g>
     <g id="text_28">
      <!-- 60 -->
      <defs>
       <path d="M 33.015625 40.375 
Q 26.375 40.375 22.484375 35.828125 
Q 18.609375 31.296875 18.609375 23.390625 
Q 18.609375 15.53125 22.484375 10.953125 
Q 26.375 6.390625 33.015625 6.390625 
Q 39.65625 6.390625 43.53125 10.953125 
Q 47.40625 15.53125 47.40625 23.390625 
Q 47.40625 31.296875 43.53125 35.828125 
Q 39.65625 40.375 33.015625 40.375 
z
M 52.59375 71.296875 
L 52.59375 62.3125 
Q 48.875 64.0625 45.09375 64.984375 
Q 41.3125 65.921875 37.59375 65.921875 
Q 27.828125 65.921875 22.671875 59.328125 
Q 17.53125 52.734375 16.796875 39.40625 
Q 19.671875 43.65625 24.015625 45.921875 
Q 28.375 48.1875 33.59375 48.1875 
Q 44.578125 48.1875 50.953125 41.515625 
Q 57.328125 34.859375 57.328125 23.390625 
Q 57.328125 12.15625 50.6875 5.359375 
Q 44.046875 -1.421875 33.015625 -1.421875 
Q 20.359375 -1.421875 13.671875 8.265625 
Q 6.984375 17.96875 6.984375 36.375 
Q 6.984375 53.65625 15.1875 63.9375 
Q 23.390625 74.21875 37.203125 74.21875 
Q 40.921875 74.21875 44.703125 73.484375 
Q 48.484375 72.75 52.59375 71.296875 
z
" id="DejaVuSans-54"/>
      </defs>
      <g transform="translate(289.999349 326.841947)scale(0.1 -0.1)">
       <use xlink:href="#DejaVuSans-54"/>
       <use x="63.623047" xlink:href="#DejaVuSans-48"/>
      </g>
     </g>
    </g>
    <g id="xtick_15">
     <g id="line2d_25">
      <g>
       <use style="stroke:#000000;stroke-width:0.8;" x="370.647426" xlink:href="#m8eb039ed75" y="312.24351"/>
      </g>
     </g>
     <g id="text_29">
      <!-- 80 -->
      <defs>
       <path d="M 31.78125 34.625 
Q 24.75 34.625 20.71875 30.859375 
Q 16.703125 27.09375 16.703125 20.515625 
Q 16.703125 13.921875 20.71875 10.15625 
Q 24.75 6.390625 31.78125 6.390625 
Q 38.8125 6.390625 42.859375 10.171875 
Q 46.921875 13.96875 46.921875 20.515625 
Q 46.921875 27.09375 42.890625 30.859375 
Q 38.875 34.625 31.78125 34.625 
z
M 21.921875 38.8125 
Q 15.578125 40.375 12.03125 44.71875 
Q 8.5 49.078125 8.5 55.328125 
Q 8.5 64.0625 14.71875 69.140625 
Q 20.953125 74.21875 31.78125 74.21875 
Q 42.671875 74.21875 48.875 69.140625 
Q 55.078125 64.0625 55.078125 55.328125 
Q 55.078125 49.078125 51.53125 44.71875 
Q 48 40.375 41.703125 38.8125 
Q 48.828125 37.15625 52.796875 32.3125 
Q 56.78125 27.484375 56.78125 20.515625 
Q 56.78125 9.90625 50.3125 4.234375 
Q 43.84375 -1.421875 31.78125 -1.421875 
Q 19.734375 -1.421875 13.25 4.234375 
Q 6.78125 9.90625 6.78125 20.515625 
Q 6.78125 27.484375 10.78125 32.3125 
Q 14.796875 37.15625 21.921875 38.8125 
z
M 18.3125 54.390625 
Q 18.3125 48.734375 21.84375 45.5625 
Q 25.390625 42.390625 31.78125 42.390625 
Q 38.140625 42.390625 41.71875 45.5625 
Q 45.3125 48.734375 45.3125 54.390625 
Q 45.3125 60.0625 41.71875 63.234375 
Q 38.140625 66.40625 31.78125 66.40625 
Q 25.390625 66.40625 21.84375 63.234375 
Q 18.3125 60.0625 18.3125 54.390625 
z
" id="DejaVuSans-56"/>
      </defs>
      <g transform="translate(364.284926 326.841947)scale(0.1 -0.1)">
       <use xlink:href="#DejaVuSans-56"/>
       <use x="63.623047" xlink:href="#DejaVuSans-48"/>
      </g>
     </g>
    </g>
    <g id="xtick_16">
     <g id="line2d_26">
      <g>
       <use style="stroke:#000000;stroke-width:0.8;" x="444.933004" xlink:href="#m8eb039ed75" y="312.24351"/>
      </g>
     </g>
     <g id="text_30">
      <!-- 100 -->
      <g transform="translate(435.389254 326.841947)scale(0.1 -0.1)">
       <use xlink:href="#DejaVuSans-49"/>
       <use x="63.623047" xlink:href="#DejaVuSans-48"/>
       <use x="127.246094" xlink:href="#DejaVuSans-48"/>
      </g>
     </g>
    </g>
    <g id="text_31">
     <!-- Dias -->
     <g transform="translate(242.73983 340.520072)scale(0.1 -0.1)">
      <use xlink:href="#DejaVuSans-68"/>
      <use x="77.001953" xlink:href="#DejaVuSans-105"/>
      <use x="104.785156" xlink:href="#DejaVuSans-97"/>
      <use x="166.064453" xlink:href="#DejaVuSans-115"/>
     </g>
    </g>
   </g>
   <g id="matplotlib.axis_6">
    <g id="ytick_9">
     <g id="line2d_27">
      <g>
       <use style="stroke:#000000;stroke-width:0.8;" x="55.490865" xlink:href="#m454f17ae51" y="295.366547"/>
      </g>
     </g>
     <g id="text_32">
      <!-- 1.0 -->
      <defs>
       <path d="M 10.6875 12.40625 
L 21 12.40625 
L 21 0 
L 10.6875 0 
z
" id="DejaVuSans-46"/>
      </defs>
      <g transform="translate(32.58774 299.165765)scale(0.1 -0.1)">
       <use xlink:href="#DejaVuSans-49"/>
       <use x="63.623047" xlink:href="#DejaVuSans-46"/>
       <use x="95.410156" xlink:href="#DejaVuSans-48"/>
      </g>
     </g>
    </g>
    <g id="ytick_10">
     <g id="line2d_28">
      <g>
       <use style="stroke:#000000;stroke-width:0.8;" x="55.490865" xlink:href="#m454f17ae51" y="270.829134"/>
      </g>
     </g>
     <g id="text_33">
      <!-- 1.5 -->
      <g transform="translate(32.58774 274.628353)scale(0.1 -0.1)">
       <use xlink:href="#DejaVuSans-49"/>
       <use x="63.623047" xlink:href="#DejaVuSans-46"/>
       <use x="95.410156" xlink:href="#DejaVuSans-53"/>
      </g>
     </g>
    </g>
    <g id="ytick_11">
     <g id="line2d_29">
      <g>
       <use style="stroke:#000000;stroke-width:0.8;" x="55.490865" xlink:href="#m454f17ae51" y="246.291721"/>
      </g>
     </g>
     <g id="text_34">
      <!-- 2.0 -->
      <g transform="translate(32.58774 250.09094)scale(0.1 -0.1)">
       <use xlink:href="#DejaVuSans-50"/>
       <use x="63.623047" xlink:href="#DejaVuSans-46"/>
       <use x="95.410156" xlink:href="#DejaVuSans-48"/>
      </g>
     </g>
    </g>
    <g id="ytick_12">
     <g id="line2d_30">
      <g>
       <use style="stroke:#000000;stroke-width:0.8;" x="55.490865" xlink:href="#m454f17ae51" y="221.754308"/>
      </g>
     </g>
     <g id="text_35">
      <!-- 2.5 -->
      <g transform="translate(32.58774 225.553527)scale(0.1 -0.1)">
       <use xlink:href="#DejaVuSans-50"/>
       <use x="63.623047" xlink:href="#DejaVuSans-46"/>
       <use x="95.410156" xlink:href="#DejaVuSans-53"/>
      </g>
     </g>
    </g>
    <g id="ytick_13">
     <g id="line2d_31">
      <g>
       <use style="stroke:#000000;stroke-width:0.8;" x="55.490865" xlink:href="#m454f17ae51" y="197.216895"/>
      </g>
     </g>
     <g id="text_36">
      <!-- 3.0 -->
      <defs>
       <path d="M 40.578125 39.3125 
Q 47.65625 37.796875 51.625 33 
Q 55.609375 28.21875 55.609375 21.1875 
Q 55.609375 10.40625 48.1875 4.484375 
Q 40.765625 -1.421875 27.09375 -1.421875 
Q 22.515625 -1.421875 17.65625 -0.515625 
Q 12.796875 0.390625 7.625 2.203125 
L 7.625 11.71875 
Q 11.71875 9.328125 16.59375 8.109375 
Q 21.484375 6.890625 26.8125 6.890625 
Q 36.078125 6.890625 40.9375 10.546875 
Q 45.796875 14.203125 45.796875 21.1875 
Q 45.796875 27.640625 41.28125 31.265625 
Q 36.765625 34.90625 28.71875 34.90625 
L 20.21875 34.90625 
L 20.21875 43.015625 
L 29.109375 43.015625 
Q 36.375 43.015625 40.234375 45.921875 
Q 44.09375 48.828125 44.09375 54.296875 
Q 44.09375 59.90625 40.109375 62.90625 
Q 36.140625 65.921875 28.71875 65.921875 
Q 24.65625 65.921875 20.015625 65.03125 
Q 15.375 64.15625 9.8125 62.3125 
L 9.8125 71.09375 
Q 15.4375 72.65625 20.34375 73.4375 
Q 25.25 74.21875 29.59375 74.21875 
Q 40.828125 74.21875 47.359375 69.109375 
Q 53.90625 64.015625 53.90625 55.328125 
Q 53.90625 49.265625 50.4375 45.09375 
Q 46.96875 40.921875 40.578125 39.3125 
z
" id="DejaVuSans-51"/>
      </defs>
      <g transform="translate(32.58774 201.016114)scale(0.1 -0.1)">
       <use xlink:href="#DejaVuSans-51"/>
       <use x="63.623047" xlink:href="#DejaVuSans-46"/>
       <use x="95.410156" xlink:href="#DejaVuSans-48"/>
      </g>
     </g>
    </g>
    <g id="text_37">
     <!-- r0 -->
     <defs>
      <path d="M 41.109375 46.296875 
Q 39.59375 47.171875 37.8125 47.578125 
Q 36.03125 48 33.890625 48 
Q 26.265625 48 22.1875 43.046875 
Q 18.109375 38.09375 18.109375 28.8125 
L 18.109375 0 
L 9.078125 0 
L 9.078125 54.6875 
L 18.109375 54.6875 
L 18.109375 46.1875 
Q 20.953125 51.171875 25.484375 53.578125 
Q 30.03125 56 36.53125 56 
Q 37.453125 56 38.578125 55.875 
Q 39.703125 55.765625 41.0625 55.515625 
z
" id="DejaVuSans-114"/>
     </defs>
     <g transform="translate(26.508053 257.681656)rotate(-90)scale(0.1 -0.1)">
      <use xlink:href="#DejaVuSans-114"/>
      <use x="41.113281" xlink:href="#DejaVuSans-48"/>
     </g>
    </g>
   </g>
   <g id="line2d_32">
    <path clip-path="url(#pd3170ba04b)" d="M 73.505117 198.082599 
L 77.219396 215.257332 
L 80.933675 228.307675 
L 84.647954 258.033113 
L 88.362233 270.482211 
L 92.076512 282.17964 
L 95.790791 294.035344 
L 99.50507 301.115451 
L 103.219348 305.437728 
L 106.933627 306.807276 
L 110.647906 303.070374 
L 114.362185 294.827996 
L 118.076464 284.426671 
L 121.790743 273.641808 
L 125.505022 266.057683 
L 129.2193 262.945051 
L 132.933579 263.100834 
L 136.647858 266.582678 
L 140.362137 272.15598 
L 144.076416 278.830041 
L 147.790695 286.359782 
L 151.504974 292.688712 
L 155.219252 295.711209 
L 158.933531 295.278299 
L 162.64781 290.098992 
L 166.362089 279.62515 
L 170.076368 265.577061 
L 173.790647 250.550216 
L 177.504926 240.368865 
L 181.219204 236.142175 
L 184.933483 234.986239 
L 188.647762 234.578417 
L 192.362041 235.479394 
L 196.07632 235.86177 
L 199.790599 236.060147 
L 203.504878 234.759544 
L 207.219156 231.755841 
L 210.933435 229.404251 
L 214.647714 228.999831 
L 218.361993 229.780562 
L 222.076272 231.976995 
L 225.790551 234.669401 
L 229.50483 238.039717 
L 233.219109 242.357008 
L 236.933387 246.822577 
L 240.647666 250.840749 
L 244.361945 254.33619 
L 248.076224 257.413677 
L 251.790503 260.374424 
L 255.504782 263.020127 
L 259.219061 265.146016 
L 262.933339 266.657827 
L 266.647618 267.79201 
L 270.361897 268.838509 
L 274.076176 269.463319 
L 277.790455 269.932167 
L 281.504734 270.480656 
L 285.219013 271.123378 
L 288.933291 272.286015 
L 292.64757 274.061131 
L 296.361849 276.327349 
L 300.076128 279.578826 
L 303.790407 283.210542 
L 307.504686 286.957185 
L 311.218965 290.869779 
L 314.933243 294.532878 
L 318.647522 297.603751 
L 322.361801 299.682457 
L 326.07608 299.934516 
L 329.790359 298.825967 
L 333.504638 296.676766 
L 337.218917 293.487183 
L 340.933196 289.668628 
L 344.647474 285.669687 
L 348.361753 282.301654 
L 352.076032 279.885103 
L 355.790311 278.126045 
L 359.50459 276.334401 
L 363.218869 274.319601 
L 366.933148 271.682613 
L 370.647426 268.518411 
L 374.361705 264.753617 
L 378.075984 260.866747 
L 381.790263 257.140985 
L 385.504542 254.73994 
L 389.218821 254.043072 
L 392.9331 255.676526 
L 396.647378 259.07552 
L 400.361657 263.845181 
L 404.075936 269.749154 
L 407.790215 276.826915 
L 411.504494 284.315241 
L 415.218773 290.514524 
L 418.933052 295.806869 
L 422.64733 299.951966 
L 426.361609 295.804903 
L 430.075888 297.280411 
L 433.790167 297.159135 
" style="fill:none;stroke:#ff0000;stroke-linecap:square;stroke-width:1.5;"/>
   </g>
   <g id="patch_209">
    <path d="M 55.490865 312.24351 
L 55.490865 192.646365 
" style="fill:none;stroke:#000000;stroke-linecap:square;stroke-linejoin:miter;stroke-width:0.8;"/>
   </g>
   <g id="patch_210">
    <path d="M 451.80442 312.24351 
L 451.80442 192.646365 
" style="fill:none;stroke:#000000;stroke-linecap:square;stroke-linejoin:miter;stroke-width:0.8;"/>
   </g>
   <g id="patch_211">
    <path d="M 55.490865 312.24351 
L 451.80442 312.24351 
" style="fill:none;stroke:#000000;stroke-linecap:square;stroke-linejoin:miter;stroke-width:0.8;"/>
   </g>
   <g id="patch_212">
    <path d="M 55.490865 192.646365 
L 451.80442 192.646365 
" style="fill:none;stroke:#000000;stroke-linecap:square;stroke-linejoin:miter;stroke-width:0.8;"/>
   </g>
   <g id="text_38">
    <!-- r0 aproximado - SE -->
    <defs>
     <path d="M 18.109375 8.203125 
L 18.109375 -20.796875 
L 9.078125 -20.796875 
L 9.078125 54.6875 
L 18.109375 54.6875 
L 18.109375 46.390625 
Q 20.953125 51.265625 25.265625 53.625 
Q 29.59375 56 35.59375 56 
Q 45.5625 56 51.78125 48.09375 
Q 58.015625 40.1875 58.015625 27.296875 
Q 58.015625 14.40625 51.78125 6.484375 
Q 45.5625 -1.421875 35.59375 -1.421875 
Q 29.59375 -1.421875 25.265625 0.953125 
Q 20.953125 3.328125 18.109375 8.203125 
z
M 48.6875 27.296875 
Q 48.6875 37.203125 44.609375 42.84375 
Q 40.53125 48.484375 33.40625 48.484375 
Q 26.265625 48.484375 22.1875 42.84375 
Q 18.109375 37.203125 18.109375 27.296875 
Q 18.109375 17.390625 22.1875 11.75 
Q 26.265625 6.109375 33.40625 6.109375 
Q 40.53125 6.109375 44.609375 11.75 
Q 48.6875 17.390625 48.6875 27.296875 
z
" id="DejaVuSans-112"/>
     <path d="M 54.890625 54.6875 
L 35.109375 28.078125 
L 55.90625 0 
L 45.3125 0 
L 29.390625 21.484375 
L 13.484375 0 
L 2.875 0 
L 24.125 28.609375 
L 4.6875 54.6875 
L 15.28125 54.6875 
L 29.78125 35.203125 
L 44.28125 54.6875 
z
" id="DejaVuSans-120"/>
    </defs>
    <g transform="translate(196.357017 186.646365)scale(0.12 -0.12)">
     <use xlink:href="#DejaVuSans-114"/>
     <use x="41.113281" xlink:href="#DejaVuSans-48"/>
     <use x="104.736328" xlink:href="#DejaVuSans-32"/>
     <use x="136.523438" xlink:href="#DejaVuSans-97"/>
     <use x="197.802734" xlink:href="#DejaVuSans-112"/>
     <use x="261.279297" xlink:href="#DejaVuSans-114"/>
     <use x="300.142578" xlink:href="#DejaVuSans-111"/>
     <use x="358.199219" xlink:href="#DejaVuSans-120"/>
     <use x="417.378906" xlink:href="#DejaVuSans-105"/>
     <use x="445.162109" xlink:href="#DejaVuSans-109"/>
     <use x="542.574219" xlink:href="#DejaVuSans-97"/>
     <use x="603.853516" xlink:href="#DejaVuSans-100"/>
     <use x="667.330078" xlink:href="#DejaVuSans-111"/>
     <use x="728.511719" xlink:href="#DejaVuSans-32"/>
     <use x="760.298828" xlink:href="#DejaVuSans-45"/>
     <use x="796.382812" xlink:href="#DejaVuSans-32"/>
     <use x="828.169922" xlink:href="#DejaVuSans-83"/>
     <use x="891.646484" xlink:href="#DejaVuSans-69"/>
    </g>
   </g>
  </g>
 </g>
 <defs>
  <clipPath id="p6c04625bee">
   <rect height="119.597145" width="166.790805" x="55.490865" y="18.118365"/>
  </clipPath>
  <clipPath id="p328a9091a9">
   <rect height="119.597145" width="166.790805" x="285.013615" y="18.118365"/>
  </clipPath>
  <clipPath id="pd3170ba04b">
   <rect height="119.597145" width="396.313555" x="55.490865" y="192.646365"/>
  </clipPath>
 </defs>
</svg>
