<?xml version="1.0" encoding="utf-8" standalone="no"?>
<!DOCTYPE svg PUBLIC "-//W3C//DTD SVG 1.1//EN"
  "http://www.w3.org/Graphics/SVG/1.1/DTD/svg11.dtd">
<!-- Created with matplotlib (https://matplotlib.org/) -->
<svg height="345.6pt" version="1.1" viewBox="0 0 460.8 345.6" width="460.8pt" xmlns="http://www.w3.org/2000/svg" xmlns:xlink="http://www.w3.org/1999/xlink">
 <defs>
  <style type="text/css">
*{stroke-linecap:butt;stroke-linejoin:round;}
  </style>
 </defs>
 <g id="figure_1">
  <g id="patch_1">
   <path d="M 0 345.6 
L 460.8 345.6 
L 460.8 0 
L 0 0 
z
" style="fill:#ffffff;"/>
  </g>
  <g id="axes_1">
   <g id="patch_2">
    <path d="M 52.123592 325.921635 
L 133.620545 325.921635 
L 133.620545 18.118365 
L 52.123592 18.118365 
z
" style="fill:#ffffff;"/>
   </g>
   <g id="patch_3">
    <path clip-path="url(#pce2c075b22)" d="M 55.827999 325.921635 
L 56.434037 325.921635 
L 56.434037 325.90621 
L 55.827999 325.90621 
z
" style="fill:#1f77b4;"/>
   </g>
   <g id="patch_4">
    <path clip-path="url(#pce2c075b22)" d="M 56.585546 325.921635 
L 57.191584 325.921635 
L 57.191584 325.859936 
L 56.585546 325.859936 
z
" style="fill:#1f77b4;"/>
   </g>
   <g id="patch_5">
    <path clip-path="url(#pce2c075b22)" d="M 57.343094 325.921635 
L 57.949132 325.921635 
L 57.949132 325.844511 
L 57.343094 325.844511 
z
" style="fill:#1f77b4;"/>
   </g>
   <g id="patch_6">
    <path clip-path="url(#pce2c075b22)" d="M 58.100641 325.921635 
L 58.706679 325.921635 
L 58.706679 325.829086 
L 58.100641 325.829086 
z
" style="fill:#1f77b4;"/>
   </g>
   <g id="patch_7">
    <path clip-path="url(#pce2c075b22)" d="M 58.858189 325.921635 
L 59.464227 325.921635 
L 59.464227 325.829086 
L 58.858189 325.829086 
z
" style="fill:#1f77b4;"/>
   </g>
   <g id="patch_8">
    <path clip-path="url(#pce2c075b22)" d="M 59.615736 325.921635 
L 60.221774 325.921635 
L 60.221774 325.767386 
L 59.615736 325.767386 
z
" style="fill:#1f77b4;"/>
   </g>
   <g id="patch_9">
    <path clip-path="url(#pce2c075b22)" d="M 60.373284 325.921635 
L 60.979321 325.921635 
L 60.979321 325.767386 
L 60.373284 325.767386 
z
" style="fill:#1f77b4;"/>
   </g>
   <g id="patch_10">
    <path clip-path="url(#pce2c075b22)" d="M 61.130831 325.921635 
L 61.736869 325.921635 
L 61.736869 325.767386 
L 61.130831 325.767386 
z
" style="fill:#1f77b4;"/>
   </g>
   <g id="patch_11">
    <path clip-path="url(#pce2c075b22)" d="M 61.888378 325.921635 
L 62.494416 325.921635 
L 62.494416 325.690262 
L 61.888378 325.690262 
z
" style="fill:#1f77b4;"/>
   </g>
   <g id="patch_12">
    <path clip-path="url(#pce2c075b22)" d="M 62.645926 325.921635 
L 63.251964 325.921635 
L 63.251964 325.674837 
L 62.645926 325.674837 
z
" style="fill:#1f77b4;"/>
   </g>
   <g id="patch_13">
    <path clip-path="url(#pce2c075b22)" d="M 63.403473 325.921635 
L 64.009511 325.921635 
L 64.009511 325.674837 
L 63.403473 325.674837 
z
" style="fill:#1f77b4;"/>
   </g>
   <g id="patch_14">
    <path clip-path="url(#pce2c075b22)" d="M 64.161021 325.921635 
L 64.767059 325.921635 
L 64.767059 325.674837 
L 64.161021 325.674837 
z
" style="fill:#1f77b4;"/>
   </g>
   <g id="patch_15">
    <path clip-path="url(#pce2c075b22)" d="M 64.918568 325.921635 
L 65.524606 325.921635 
L 65.524606 325.674837 
L 64.918568 325.674837 
z
" style="fill:#1f77b4;"/>
   </g>
   <g id="patch_16">
    <path clip-path="url(#pce2c075b22)" d="M 65.676116 325.921635 
L 66.282153 325.921635 
L 66.282153 325.674837 
L 65.676116 325.674837 
z
" style="fill:#1f77b4;"/>
   </g>
   <g id="patch_17">
    <path clip-path="url(#pce2c075b22)" d="M 66.433663 325.921635 
L 67.039701 325.921635 
L 67.039701 325.674837 
L 66.433663 325.674837 
z
" style="fill:#1f77b4;"/>
   </g>
   <g id="patch_18">
    <path clip-path="url(#pce2c075b22)" d="M 67.19121 325.921635 
L 67.797248 325.921635 
L 67.797248 325.628563 
L 67.19121 325.628563 
z
" style="fill:#1f77b4;"/>
   </g>
   <g id="patch_19">
    <path clip-path="url(#pce2c075b22)" d="M 67.948758 325.921635 
L 68.554796 325.921635 
L 68.554796 325.613138 
L 67.948758 325.613138 
z
" style="fill:#1f77b4;"/>
   </g>
   <g id="patch_20">
    <path clip-path="url(#pce2c075b22)" d="M 68.706305 325.921635 
L 69.312343 325.921635 
L 69.312343 325.566863 
L 68.706305 325.566863 
z
" style="fill:#1f77b4;"/>
   </g>
   <g id="patch_21">
    <path clip-path="url(#pce2c075b22)" d="M 69.463853 325.921635 
L 70.069891 325.921635 
L 70.069891 325.536014 
L 69.463853 325.536014 
z
" style="fill:#1f77b4;"/>
   </g>
   <g id="patch_22">
    <path clip-path="url(#pce2c075b22)" d="M 70.2214 325.921635 
L 70.827438 325.921635 
L 70.827438 325.505164 
L 70.2214 325.505164 
z
" style="fill:#1f77b4;"/>
   </g>
   <g id="patch_23">
    <path clip-path="url(#pce2c075b22)" d="M 70.978948 325.921635 
L 71.584986 325.921635 
L 71.584986 325.42804 
L 70.978948 325.42804 
z
" style="fill:#1f77b4;"/>
   </g>
   <g id="patch_24">
    <path clip-path="url(#pce2c075b22)" d="M 71.736495 325.921635 
L 72.342533 325.921635 
L 72.342533 325.42804 
L 71.736495 325.42804 
z
" style="fill:#1f77b4;"/>
   </g>
   <g id="patch_25">
    <path clip-path="url(#pce2c075b22)" d="M 72.494042 325.921635 
L 73.10008 325.921635 
L 73.10008 325.36634 
L 72.494042 325.36634 
z
" style="fill:#1f77b4;"/>
   </g>
   <g id="patch_26">
    <path clip-path="url(#pce2c075b22)" d="M 73.25159 325.921635 
L 73.857628 325.921635 
L 73.857628 325.36634 
L 73.25159 325.36634 
z
" style="fill:#1f77b4;"/>
   </g>
   <g id="patch_27">
    <path clip-path="url(#pce2c075b22)" d="M 74.009137 325.921635 
L 74.615175 325.921635 
L 74.615175 325.320066 
L 74.009137 325.320066 
z
" style="fill:#1f77b4;"/>
   </g>
   <g id="patch_28">
    <path clip-path="url(#pce2c075b22)" d="M 74.766685 325.921635 
L 75.372723 325.921635 
L 75.372723 325.273791 
L 74.766685 325.273791 
z
" style="fill:#1f77b4;"/>
   </g>
   <g id="patch_29">
    <path clip-path="url(#pce2c075b22)" d="M 75.524232 325.921635 
L 76.13027 325.921635 
L 76.13027 325.273791 
L 75.524232 325.273791 
z
" style="fill:#1f77b4;"/>
   </g>
   <g id="patch_30">
    <path clip-path="url(#pce2c075b22)" d="M 76.28178 325.921635 
L 76.887818 325.921635 
L 76.887818 325.242941 
L 76.28178 325.242941 
z
" style="fill:#1f77b4;"/>
   </g>
   <g id="patch_31">
    <path clip-path="url(#pce2c075b22)" d="M 77.039327 325.921635 
L 77.645365 325.921635 
L 77.645365 325.242941 
L 77.039327 325.242941 
z
" style="fill:#1f77b4;"/>
   </g>
   <g id="patch_32">
    <path clip-path="url(#pce2c075b22)" d="M 77.796874 325.921635 
L 78.402912 325.921635 
L 78.402912 325.227517 
L 77.796874 325.227517 
z
" style="fill:#1f77b4;"/>
   </g>
   <g id="patch_33">
    <path clip-path="url(#pce2c075b22)" d="M 78.554422 325.921635 
L 79.16046 325.921635 
L 79.16046 325.212092 
L 78.554422 325.212092 
z
" style="fill:#1f77b4;"/>
   </g>
   <g id="patch_34">
    <path clip-path="url(#pce2c075b22)" d="M 79.311969 325.921635 
L 79.918007 325.921635 
L 79.918007 325.181242 
L 79.311969 325.181242 
z
" style="fill:#1f77b4;"/>
   </g>
   <g id="patch_35">
    <path clip-path="url(#pce2c075b22)" d="M 80.069517 325.921635 
L 80.675555 325.921635 
L 80.675555 325.104118 
L 80.069517 325.104118 
z
" style="fill:#1f77b4;"/>
   </g>
   <g id="patch_36">
    <path clip-path="url(#pce2c075b22)" d="M 80.827064 325.921635 
L 81.433102 325.921635 
L 81.433102 324.82647 
L 80.827064 324.82647 
z
" style="fill:#1f77b4;"/>
   </g>
   <g id="patch_37">
    <path clip-path="url(#pce2c075b22)" d="M 81.584612 325.921635 
L 82.19065 325.921635 
L 82.19065 324.641372 
L 81.584612 324.641372 
z
" style="fill:#1f77b4;"/>
   </g>
   <g id="patch_38">
    <path clip-path="url(#pce2c075b22)" d="M 82.342159 325.921635 
L 82.948197 325.921635 
L 82.948197 324.595098 
L 82.342159 324.595098 
z
" style="fill:#1f77b4;"/>
   </g>
   <g id="patch_39">
    <path clip-path="url(#pce2c075b22)" d="M 83.099706 325.921635 
L 83.705744 325.921635 
L 83.705744 324.502549 
L 83.099706 324.502549 
z
" style="fill:#1f77b4;"/>
   </g>
   <g id="patch_40">
    <path clip-path="url(#pce2c075b22)" d="M 83.857254 325.921635 
L 84.463292 325.921635 
L 84.463292 324.116927 
L 83.857254 324.116927 
z
" style="fill:#1f77b4;"/>
   </g>
   <g id="patch_41">
    <path clip-path="url(#pce2c075b22)" d="M 84.614801 325.921635 
L 85.220839 325.921635 
L 85.220839 324.008953 
L 84.614801 324.008953 
z
" style="fill:#1f77b4;"/>
   </g>
   <g id="patch_42">
    <path clip-path="url(#pce2c075b22)" d="M 85.372349 325.921635 
L 85.978387 325.921635 
L 85.978387 323.700456 
L 85.372349 323.700456 
z
" style="fill:#1f77b4;"/>
   </g>
   <g id="patch_43">
    <path clip-path="url(#pce2c075b22)" d="M 86.129896 325.921635 
L 86.735934 325.921635 
L 86.735934 323.561633 
L 86.129896 323.561633 
z
" style="fill:#1f77b4;"/>
   </g>
   <g id="patch_44">
    <path clip-path="url(#pce2c075b22)" d="M 86.887444 325.921635 
L 87.493482 325.921635 
L 87.493482 323.469083 
L 86.887444 323.469083 
z
" style="fill:#1f77b4;"/>
   </g>
   <g id="patch_45">
    <path clip-path="url(#pce2c075b22)" d="M 87.644991 325.921635 
L 88.251029 325.921635 
L 88.251029 322.882939 
L 87.644991 322.882939 
z
" style="fill:#1f77b4;"/>
   </g>
   <g id="patch_46">
    <path clip-path="url(#pce2c075b22)" d="M 88.402538 325.921635 
L 89.008576 325.921635 
L 89.008576 321.602676 
L 88.402538 321.602676 
z
" style="fill:#1f77b4;"/>
   </g>
   <g id="patch_47">
    <path clip-path="url(#pce2c075b22)" d="M 89.160086 325.921635 
L 89.766124 325.921635 
L 89.766124 320.72346 
L 89.160086 320.72346 
z
" style="fill:#1f77b4;"/>
   </g>
   <g id="patch_48">
    <path clip-path="url(#pce2c075b22)" d="M 89.917633 325.921635 
L 90.523671 325.921635 
L 90.523671 319.026726 
L 89.917633 319.026726 
z
" style="fill:#1f77b4;"/>
   </g>
   <g id="patch_49">
    <path clip-path="url(#pce2c075b22)" d="M 90.675181 325.921635 
L 91.281219 325.921635 
L 91.281219 317.946986 
L 90.675181 317.946986 
z
" style="fill:#1f77b4;"/>
   </g>
   <g id="patch_50">
    <path clip-path="url(#pce2c075b22)" d="M 91.432728 325.921635 
L 92.038766 325.921635 
L 92.038766 316.651299 
L 91.432728 316.651299 
z
" style="fill:#1f77b4;"/>
   </g>
   <g id="patch_51">
    <path clip-path="url(#pce2c075b22)" d="M 92.190276 325.921635 
L 92.796314 325.921635 
L 92.796314 314.661493 
L 92.190276 314.661493 
z
" style="fill:#1f77b4;"/>
   </g>
   <g id="patch_52">
    <path clip-path="url(#pce2c075b22)" d="M 92.947823 325.921635 
L 93.553861 325.921635 
L 93.553861 314.013649 
L 92.947823 314.013649 
z
" style="fill:#1f77b4;"/>
   </g>
   <g id="patch_53">
    <path clip-path="url(#pce2c075b22)" d="M 93.705371 325.921635 
L 94.311408 325.921635 
L 94.311408 312.070117 
L 93.705371 312.070117 
z
" style="fill:#1f77b4;"/>
   </g>
   <g id="patch_54">
    <path clip-path="url(#pce2c075b22)" d="M 94.462918 325.921635 
L 95.068956 325.921635 
L 95.068956 310.527632 
L 94.462918 310.527632 
z
" style="fill:#1f77b4;"/>
   </g>
   <g id="patch_55">
    <path clip-path="url(#pce2c075b22)" d="M 95.220465 325.921635 
L 95.826503 325.921635 
L 95.826503 307.195864 
L 95.220465 307.195864 
z
" style="fill:#1f77b4;"/>
   </g>
   <g id="patch_56">
    <path clip-path="url(#pce2c075b22)" d="M 95.978013 325.921635 
L 96.584051 325.921635 
L 96.584051 303.740697 
L 95.978013 303.740697 
z
" style="fill:#1f77b4;"/>
   </g>
   <g id="patch_57">
    <path clip-path="url(#pce2c075b22)" d="M 96.73556 325.921635 
L 97.341598 325.921635 
L 97.341598 301.426969 
L 96.73556 301.426969 
z
" style="fill:#1f77b4;"/>
   </g>
   <g id="patch_58">
    <path clip-path="url(#pce2c075b22)" d="M 97.493108 325.921635 
L 98.099146 325.921635 
L 98.099146 298.604221 
L 97.493108 298.604221 
z
" style="fill:#1f77b4;"/>
   </g>
   <g id="patch_59">
    <path clip-path="url(#pce2c075b22)" d="M 98.250655 325.921635 
L 98.856693 325.921635 
L 98.856693 298.1569 
L 98.250655 298.1569 
z
" style="fill:#1f77b4;"/>
   </g>
   <g id="patch_60">
    <path clip-path="url(#pce2c075b22)" d="M 99.008203 325.921635 
L 99.61424 325.921635 
L 99.61424 294.578334 
L 99.008203 294.578334 
z
" style="fill:#1f77b4;"/>
   </g>
   <g id="patch_61">
    <path clip-path="url(#pce2c075b22)" d="M 99.76575 325.921635 
L 100.371788 325.921635 
L 100.371788 290.938069 
L 99.76575 290.938069 
z
" style="fill:#1f77b4;"/>
   </g>
   <g id="patch_62">
    <path clip-path="url(#pce2c075b22)" d="M 100.523297 325.921635 
L 101.129335 325.921635 
L 101.129335 287.452052 
L 100.523297 287.452052 
z
" style="fill:#1f77b4;"/>
   </g>
   <g id="patch_63">
    <path clip-path="url(#pce2c075b22)" d="M 101.280845 325.921635 
L 101.886883 325.921635 
L 101.886883 281.683158 
L 101.280845 281.683158 
z
" style="fill:#1f77b4;"/>
   </g>
   <g id="patch_64">
    <path clip-path="url(#pce2c075b22)" d="M 102.038392 325.921635 
L 102.64443 325.921635 
L 102.64443 277.564722 
L 102.038392 277.564722 
z
" style="fill:#1f77b4;"/>
   </g>
   <g id="patch_65">
    <path clip-path="url(#pce2c075b22)" d="M 102.79594 325.921635 
L 103.401978 325.921635 
L 103.401978 274.356353 
L 102.79594 274.356353 
z
" style="fill:#1f77b4;"/>
   </g>
   <g id="patch_66">
    <path clip-path="url(#pce2c075b22)" d="M 103.553487 325.921635 
L 104.159525 325.921635 
L 104.159525 270.91661 
L 103.553487 270.91661 
z
" style="fill:#1f77b4;"/>
   </g>
   <g id="patch_67">
    <path clip-path="url(#pce2c075b22)" d="M 104.311035 325.921635 
L 104.917072 325.921635 
L 104.917072 264.731244 
L 104.311035 264.731244 
z
" style="fill:#1f77b4;"/>
   </g>
   <g id="patch_68">
    <path clip-path="url(#pce2c075b22)" d="M 105.068582 325.921635 
L 105.67462 325.921635 
L 105.67462 259.94954 
L 105.068582 259.94954 
z
" style="fill:#1f77b4;"/>
   </g>
   <g id="patch_69">
    <path clip-path="url(#pce2c075b22)" d="M 105.826129 325.921635 
L 106.432167 325.921635 
L 106.432167 252.900382 
L 105.826129 252.900382 
z
" style="fill:#1f77b4;"/>
   </g>
   <g id="patch_70">
    <path clip-path="url(#pce2c075b22)" d="M 106.583677 325.921635 
L 107.189715 325.921635 
L 107.189715 250.00051 
L 106.583677 250.00051 
z
" style="fill:#1f77b4;"/>
   </g>
   <g id="patch_71">
    <path clip-path="url(#pce2c075b22)" d="M 107.341224 325.921635 
L 107.947262 325.921635 
L 107.947262 246.776716 
L 107.341224 246.776716 
z
" style="fill:#1f77b4;"/>
   </g>
   <g id="patch_72">
    <path clip-path="url(#pce2c075b22)" d="M 108.098772 325.921635 
L 108.70481 325.921635 
L 108.70481 243.953968 
L 108.098772 243.953968 
z
" style="fill:#1f77b4;"/>
   </g>
   <g id="patch_73">
    <path clip-path="url(#pce2c075b22)" d="M 108.856319 325.921635 
L 109.462357 325.921635 
L 109.462357 241.887038 
L 108.856319 241.887038 
z
" style="fill:#1f77b4;"/>
   </g>
   <g id="patch_74">
    <path clip-path="url(#pce2c075b22)" d="M 109.613867 325.921635 
L 110.219905 325.921635 
L 110.219905 237.460105 
L 109.613867 237.460105 
z
" style="fill:#1f77b4;"/>
   </g>
   <g id="patch_75">
    <path clip-path="url(#pce2c075b22)" d="M 110.371414 325.921635 
L 110.977452 325.921635 
L 110.977452 234.729906 
L 110.371414 234.729906 
z
" style="fill:#1f77b4;"/>
   </g>
   <g id="patch_76">
    <path clip-path="url(#pce2c075b22)" d="M 111.128961 325.921635 
L 111.734999 325.921635 
L 111.734999 230.966242 
L 111.128961 230.966242 
z
" style="fill:#1f77b4;"/>
   </g>
   <g id="patch_77">
    <path clip-path="url(#pce2c075b22)" d="M 111.886509 325.921635 
L 112.492547 325.921635 
L 112.492547 226.246237 
L 111.886509 226.246237 
z
" style="fill:#1f77b4;"/>
   </g>
   <g id="patch_78">
    <path clip-path="url(#pce2c075b22)" d="M 112.644056 325.921635 
L 113.250094 325.921635 
L 113.250094 220.955513 
L 112.644056 220.955513 
z
" style="fill:#1f77b4;"/>
   </g>
   <g id="patch_79">
    <path clip-path="url(#pce2c075b22)" d="M 113.401604 325.921635 
L 114.007642 325.921635 
L 114.007642 217.963091 
L 113.401604 217.963091 
z
" style="fill:#1f77b4;"/>
   </g>
   <g id="patch_80">
    <path clip-path="url(#pce2c075b22)" d="M 114.159151 325.921635 
L 114.765189 325.921635 
L 114.765189 214.353676 
L 114.159151 214.353676 
z
" style="fill:#1f77b4;"/>
   </g>
   <g id="patch_81">
    <path clip-path="url(#pce2c075b22)" d="M 114.916699 325.921635 
L 115.522737 325.921635 
L 115.522737 209.386873 
L 114.916699 209.386873 
z
" style="fill:#1f77b4;"/>
   </g>
   <g id="patch_82">
    <path clip-path="url(#pce2c075b22)" d="M 115.674246 325.921635 
L 116.280284 325.921635 
L 116.280284 202.692487 
L 115.674246 202.692487 
z
" style="fill:#1f77b4;"/>
   </g>
   <g id="patch_83">
    <path clip-path="url(#pce2c075b22)" d="M 116.431793 325.921635 
L 117.037831 325.921635 
L 117.037831 199.437843 
L 116.431793 199.437843 
z
" style="fill:#1f77b4;"/>
   </g>
   <g id="patch_84">
    <path clip-path="url(#pce2c075b22)" d="M 117.189341 325.921635 
L 117.795379 325.921635 
L 117.795379 193.622674 
L 117.189341 193.622674 
z
" style="fill:#1f77b4;"/>
   </g>
   <g id="patch_85">
    <path clip-path="url(#pce2c075b22)" d="M 117.946888 325.921635 
L 118.552926 325.921635 
L 118.552926 187.529857 
L 117.946888 187.529857 
z
" style="fill:#1f77b4;"/>
   </g>
   <g id="patch_86">
    <path clip-path="url(#pce2c075b22)" d="M 118.704436 325.921635 
L 119.310474 325.921635 
L 119.310474 182.624754 
L 118.704436 182.624754 
z
" style="fill:#1f77b4;"/>
   </g>
   <g id="patch_87">
    <path clip-path="url(#pce2c075b22)" d="M 119.461983 325.921635 
L 120.068021 325.921635 
L 120.068021 175.884093 
L 119.461983 175.884093 
z
" style="fill:#1f77b4;"/>
   </g>
   <g id="patch_88">
    <path clip-path="url(#pce2c075b22)" d="M 120.219531 325.921635 
L 120.825569 325.921635 
L 120.825569 169.729577 
L 120.219531 169.729577 
z
" style="fill:#1f77b4;"/>
   </g>
   <g id="patch_89">
    <path clip-path="url(#pce2c075b22)" d="M 120.977078 325.921635 
L 121.583116 325.921635 
L 121.583116 162.186824 
L 120.977078 162.186824 
z
" style="fill:#1f77b4;"/>
   </g>
   <g id="patch_90">
    <path clip-path="url(#pce2c075b22)" d="M 121.734625 325.921635 
L 122.340663 325.921635 
L 122.340663 155.384464 
L 121.734625 155.384464 
z
" style="fill:#1f77b4;"/>
   </g>
   <g id="patch_91">
    <path clip-path="url(#pce2c075b22)" d="M 122.492173 325.921635 
L 123.098211 325.921635 
L 123.098211 148.011384 
L 122.492173 148.011384 
z
" style="fill:#1f77b4;"/>
   </g>
   <g id="patch_92">
    <path clip-path="url(#pce2c075b22)" d="M 123.24972 325.921635 
L 123.855758 325.921635 
L 123.855758 127.465481 
L 123.24972 127.465481 
z
" style="fill:#1f77b4;"/>
   </g>
   <g id="patch_93">
    <path clip-path="url(#pce2c075b22)" d="M 124.007268 325.921635 
L 124.613306 325.921635 
L 124.613306 110.467293 
L 124.007268 110.467293 
z
" style="fill:#1f77b4;"/>
   </g>
   <g id="patch_94">
    <path clip-path="url(#pce2c075b22)" d="M 124.764815 325.921635 
L 125.370853 325.921635 
L 125.370853 84.137069 
L 124.764815 84.137069 
z
" style="fill:#1f77b4;"/>
   </g>
   <g id="patch_95">
    <path clip-path="url(#pce2c075b22)" d="M 125.522363 325.921635 
L 126.128401 325.921635 
L 126.128401 74.342288 
L 125.522363 74.342288 
z
" style="fill:#1f77b4;"/>
   </g>
   <g id="patch_96">
    <path clip-path="url(#pce2c075b22)" d="M 126.27991 325.921635 
L 126.885948 325.921635 
L 126.885948 66.676136 
L 126.27991 66.676136 
z
" style="fill:#1f77b4;"/>
   </g>
   <g id="patch_97">
    <path clip-path="url(#pce2c075b22)" d="M 127.037457 325.921635 
L 127.643495 325.921635 
L 127.643495 58.485539 
L 127.037457 58.485539 
z
" style="fill:#1f77b4;"/>
   </g>
   <g id="patch_98">
    <path clip-path="url(#pce2c075b22)" d="M 127.795005 325.921635 
L 128.401043 325.921635 
L 128.401043 51.235859 
L 127.795005 51.235859 
z
" style="fill:#1f77b4;"/>
   </g>
   <g id="patch_99">
    <path clip-path="url(#pce2c075b22)" d="M 128.552552 325.921635 
L 129.15859 325.921635 
L 129.15859 41.348528 
L 128.552552 41.348528 
z
" style="fill:#1f77b4;"/>
   </g>
   <g id="patch_100">
    <path clip-path="url(#pce2c075b22)" d="M 129.3101 325.921635 
L 129.916138 325.921635 
L 129.916138 33.080807 
L 129.3101 33.080807 
z
" style="fill:#1f77b4;"/>
   </g>
   <g id="matplotlib.axis_1">
    <g id="xtick_1">
     <g id="line2d_1">
      <defs>
       <path d="M 0 0 
L 0 3.5 
" id="m60da508770" style="stroke:#000000;stroke-width:0.8;"/>
      </defs>
      <g>
       <use style="stroke:#000000;stroke-width:0.8;" x="56.131018" xlink:href="#m60da508770" y="325.921635"/>
      </g>
     </g>
     <g id="text_1">
      <!-- 0 -->
      <defs>
       <path d="M 31.78125 66.40625 
Q 24.171875 66.40625 20.328125 58.90625 
Q 16.5 51.421875 16.5 36.375 
Q 16.5 21.390625 20.328125 13.890625 
Q 24.171875 6.390625 31.78125 6.390625 
Q 39.453125 6.390625 43.28125 13.890625 
Q 47.125 21.390625 47.125 36.375 
Q 47.125 51.421875 43.28125 58.90625 
Q 39.453125 66.40625 31.78125 66.40625 
z
M 31.78125 74.21875 
Q 44.046875 74.21875 50.515625 64.515625 
Q 56.984375 54.828125 56.984375 36.375 
Q 56.984375 17.96875 50.515625 8.265625 
Q 44.046875 -1.421875 31.78125 -1.421875 
Q 19.53125 -1.421875 13.0625 8.265625 
Q 6.59375 17.96875 6.59375 36.375 
Q 6.59375 54.828125 13.0625 64.515625 
Q 19.53125 74.21875 31.78125 74.21875 
z
" id="DejaVuSans-48"/>
      </defs>
      <g transform="translate(52.949768 340.520072)scale(0.1 -0.1)">
       <use xlink:href="#DejaVuSans-48"/>
      </g>
     </g>
    </g>
    <g id="xtick_2">
     <g id="line2d_2">
      <g>
       <use style="stroke:#000000;stroke-width:0.8;" x="131.885761" xlink:href="#m60da508770" y="325.921635"/>
      </g>
     </g>
     <g id="text_2">
      <!-- 100 -->
      <defs>
       <path d="M 12.40625 8.296875 
L 28.515625 8.296875 
L 28.515625 63.921875 
L 10.984375 60.40625 
L 10.984375 69.390625 
L 28.421875 72.90625 
L 38.28125 72.90625 
L 38.28125 8.296875 
L 54.390625 8.296875 
L 54.390625 0 
L 12.40625 0 
z
" id="DejaVuSans-49"/>
      </defs>
      <g transform="translate(122.342011 340.520072)scale(0.1 -0.1)">
       <use xlink:href="#DejaVuSans-49"/>
       <use x="63.623047" xlink:href="#DejaVuSans-48"/>
       <use x="127.246094" xlink:href="#DejaVuSans-48"/>
      </g>
     </g>
    </g>
   </g>
   <g id="matplotlib.axis_2">
    <g id="ytick_1">
     <g id="line2d_3">
      <defs>
       <path d="M 0 0 
L -3.5 0 
" id="m5b5c297bd4" style="stroke:#000000;stroke-width:0.8;"/>
      </defs>
      <g>
       <use style="stroke:#000000;stroke-width:0.8;" x="52.123592" xlink:href="#m5b5c297bd4" y="325.921635"/>
      </g>
     </g>
     <g id="text_3">
      <!-- 0 -->
      <g transform="translate(38.761092 329.720854)scale(0.1 -0.1)">
       <use xlink:href="#DejaVuSans-48"/>
      </g>
     </g>
    </g>
    <g id="ytick_2">
     <g id="line2d_4">
      <g>
       <use style="stroke:#000000;stroke-width:0.8;" x="52.123592" xlink:href="#m5b5c297bd4" y="287.359503"/>
      </g>
     </g>
     <g id="text_4">
      <!-- 2500 -->
      <defs>
       <path d="M 19.1875 8.296875 
L 53.609375 8.296875 
L 53.609375 0 
L 7.328125 0 
L 7.328125 8.296875 
Q 12.9375 14.109375 22.625 23.890625 
Q 32.328125 33.6875 34.8125 36.53125 
Q 39.546875 41.84375 41.421875 45.53125 
Q 43.3125 49.21875 43.3125 52.78125 
Q 43.3125 58.59375 39.234375 62.25 
Q 35.15625 65.921875 28.609375 65.921875 
Q 23.96875 65.921875 18.8125 64.3125 
Q 13.671875 62.703125 7.8125 59.421875 
L 7.8125 69.390625 
Q 13.765625 71.78125 18.9375 73 
Q 24.125 74.21875 28.421875 74.21875 
Q 39.75 74.21875 46.484375 68.546875 
Q 53.21875 62.890625 53.21875 53.421875 
Q 53.21875 48.921875 51.53125 44.890625 
Q 49.859375 40.875 45.40625 35.40625 
Q 44.1875 33.984375 37.640625 27.21875 
Q 31.109375 20.453125 19.1875 8.296875 
z
" id="DejaVuSans-50"/>
       <path d="M 10.796875 72.90625 
L 49.515625 72.90625 
L 49.515625 64.59375 
L 19.828125 64.59375 
L 19.828125 46.734375 
Q 21.96875 47.46875 24.109375 47.828125 
Q 26.265625 48.1875 28.421875 48.1875 
Q 40.625 48.1875 47.75 41.5 
Q 54.890625 34.8125 54.890625 23.390625 
Q 54.890625 11.625 47.5625 5.09375 
Q 40.234375 -1.421875 26.90625 -1.421875 
Q 22.3125 -1.421875 17.546875 -0.640625 
Q 12.796875 0.140625 7.71875 1.703125 
L 7.71875 11.625 
Q 12.109375 9.234375 16.796875 8.0625 
Q 21.484375 6.890625 26.703125 6.890625 
Q 35.15625 6.890625 40.078125 11.328125 
Q 45.015625 15.765625 45.015625 23.390625 
Q 45.015625 31 40.078125 35.4375 
Q 35.15625 39.890625 26.703125 39.890625 
Q 22.75 39.890625 18.8125 39.015625 
Q 14.890625 38.140625 10.796875 36.28125 
z
" id="DejaVuSans-53"/>
      </defs>
      <g transform="translate(19.673592 291.158722)scale(0.1 -0.1)">
       <use xlink:href="#DejaVuSans-50"/>
       <use x="63.623047" xlink:href="#DejaVuSans-53"/>
       <use x="127.246094" xlink:href="#DejaVuSans-48"/>
       <use x="190.869141" xlink:href="#DejaVuSans-48"/>
      </g>
     </g>
    </g>
    <g id="ytick_3">
     <g id="line2d_5">
      <g>
       <use style="stroke:#000000;stroke-width:0.8;" x="52.123592" xlink:href="#m5b5c297bd4" y="248.797372"/>
      </g>
     </g>
     <g id="text_5">
      <!-- 5000 -->
      <g transform="translate(19.673592 252.59659)scale(0.1 -0.1)">
       <use xlink:href="#DejaVuSans-53"/>
       <use x="63.623047" xlink:href="#DejaVuSans-48"/>
       <use x="127.246094" xlink:href="#DejaVuSans-48"/>
       <use x="190.869141" xlink:href="#DejaVuSans-48"/>
      </g>
     </g>
    </g>
    <g id="ytick_4">
     <g id="line2d_6">
      <g>
       <use style="stroke:#000000;stroke-width:0.8;" x="52.123592" xlink:href="#m5b5c297bd4" y="210.23524"/>
      </g>
     </g>
     <g id="text_6">
      <!-- 7500 -->
      <defs>
       <path d="M 8.203125 72.90625 
L 55.078125 72.90625 
L 55.078125 68.703125 
L 28.609375 0 
L 18.3125 0 
L 43.21875 64.59375 
L 8.203125 64.59375 
z
" id="DejaVuSans-55"/>
      </defs>
      <g transform="translate(19.673592 214.034459)scale(0.1 -0.1)">
       <use xlink:href="#DejaVuSans-55"/>
       <use x="63.623047" xlink:href="#DejaVuSans-53"/>
       <use x="127.246094" xlink:href="#DejaVuSans-48"/>
       <use x="190.869141" xlink:href="#DejaVuSans-48"/>
      </g>
     </g>
    </g>
    <g id="ytick_5">
     <g id="line2d_7">
      <g>
       <use style="stroke:#000000;stroke-width:0.8;" x="52.123592" xlink:href="#m5b5c297bd4" y="171.673108"/>
      </g>
     </g>
     <g id="text_7">
      <!-- 10000 -->
      <g transform="translate(13.311092 175.472327)scale(0.1 -0.1)">
       <use xlink:href="#DejaVuSans-49"/>
       <use x="63.623047" xlink:href="#DejaVuSans-48"/>
       <use x="127.246094" xlink:href="#DejaVuSans-48"/>
       <use x="190.869141" xlink:href="#DejaVuSans-48"/>
       <use x="254.492188" xlink:href="#DejaVuSans-48"/>
      </g>
     </g>
    </g>
    <g id="ytick_6">
     <g id="line2d_8">
      <g>
       <use style="stroke:#000000;stroke-width:0.8;" x="52.123592" xlink:href="#m5b5c297bd4" y="133.110977"/>
      </g>
     </g>
     <g id="text_8">
      <!-- 12500 -->
      <g transform="translate(13.311092 136.910195)scale(0.1 -0.1)">
       <use xlink:href="#DejaVuSans-49"/>
       <use x="63.623047" xlink:href="#DejaVuSans-50"/>
       <use x="127.246094" xlink:href="#DejaVuSans-53"/>
       <use x="190.869141" xlink:href="#DejaVuSans-48"/>
       <use x="254.492188" xlink:href="#DejaVuSans-48"/>
      </g>
     </g>
    </g>
    <g id="ytick_7">
     <g id="line2d_9">
      <g>
       <use style="stroke:#000000;stroke-width:0.8;" x="52.123592" xlink:href="#m5b5c297bd4" y="94.548845"/>
      </g>
     </g>
     <g id="text_9">
      <!-- 15000 -->
      <g transform="translate(13.311092 98.348064)scale(0.1 -0.1)">
       <use xlink:href="#DejaVuSans-49"/>
       <use x="63.623047" xlink:href="#DejaVuSans-53"/>
       <use x="127.246094" xlink:href="#DejaVuSans-48"/>
       <use x="190.869141" xlink:href="#DejaVuSans-48"/>
       <use x="254.492188" xlink:href="#DejaVuSans-48"/>
      </g>
     </g>
    </g>
    <g id="ytick_8">
     <g id="line2d_10">
      <g>
       <use style="stroke:#000000;stroke-width:0.8;" x="52.123592" xlink:href="#m5b5c297bd4" y="55.986713"/>
      </g>
     </g>
     <g id="text_10">
      <!-- 17500 -->
      <g transform="translate(13.311092 59.785932)scale(0.1 -0.1)">
       <use xlink:href="#DejaVuSans-49"/>
       <use x="63.623047" xlink:href="#DejaVuSans-55"/>
       <use x="127.246094" xlink:href="#DejaVuSans-53"/>
       <use x="190.869141" xlink:href="#DejaVuSans-48"/>
       <use x="254.492188" xlink:href="#DejaVuSans-48"/>
      </g>
     </g>
    </g>
   </g>
   <g id="line2d_11">
    <path clip-path="url(#pce2c075b22)" d="M 56.131018 325.865191 
L 56.888565 325.853158 
L 57.646113 325.838279 
L 58.40366 325.821627 
L 59.161208 325.803703 
L 59.918755 325.785079 
L 60.676303 325.766384 
L 61.43385 325.747991 
L 62.191397 325.730112 
L 62.948945 325.712799 
L 63.706492 325.695858 
L 64.46404 325.678891 
L 65.221587 325.661378 
L 65.979135 325.642709 
L 66.736682 325.622338 
L 67.494229 325.599891 
L 68.251777 325.57517 
L 69.009324 325.548239 
L 69.766872 325.5194 
L 70.524419 325.489135 
L 71.281967 325.458074 
L 72.039514 325.426774 
L 72.797061 325.395507 
L 73.554609 325.364233 
L 74.312156 325.332484 
L 75.069704 325.299244 
L 75.827251 325.262921 
L 76.584799 325.221279 
L 77.342346 325.171895 
L 78.099893 325.112482 
L 78.857441 325.040722 
L 79.614988 324.953929 
L 80.372536 324.849283 
L 81.130083 324.723283 
L 81.887631 324.571681 
L 82.645178 324.388471 
L 83.402725 324.164769 
L 84.160273 323.889403 
L 84.91782 323.550004 
L 85.675368 323.132897 
L 86.432915 322.624295 
L 87.190463 322.009999 
L 87.94801 321.276711 
L 88.705557 320.414237 
L 89.463105 319.414988 
L 90.220652 318.272681 
L 90.9782 316.981831 
L 91.735747 315.537773 
L 92.493295 313.937803 
L 93.250842 312.180192 
L 94.008389 310.26266 
L 94.765937 308.181024 
L 95.523484 305.929825 
L 96.281032 303.503844 
L 97.038579 300.895438 
L 97.796127 298.095972 
L 98.553674 295.097659 
L 99.311222 291.893954 
L 100.068769 288.484136 
L 100.826316 284.875537 
L 101.583864 281.083471 
L 102.341411 277.137548 
L 103.098959 273.075428 
L 103.856506 268.939011 
L 104.614054 264.773748 
L 105.371601 260.622465 
L 106.129148 256.52036 
L 106.886696 252.490239 
L 107.644243 248.534237 
L 108.401791 244.640178 
L 109.159338 240.785699 
L 109.916886 236.938307 
L 110.674433 233.05896 
L 111.43198 229.105533 
L 112.189528 225.040458 
L 112.947075 220.834195 
L 113.704623 216.462486 
L 114.46217 211.898381 
L 115.219718 207.109218 
L 115.977265 202.049879 
L 116.734812 196.66135 
L 117.49236 190.865923 
L 118.249907 184.570315 
L 119.007455 177.667061 
L 119.765002 170.056865 
L 120.52255 161.665032 
L 121.280097 152.470619 
L 122.037644 142.509684 
L 122.795192 131.875787 
L 123.552739 120.717361 
L 124.310287 109.236035 
L 125.067834 97.655337 
L 125.825382 86.160539 
L 126.582929 74.902851 
L 127.340476 63.990754 
L 128.098024 53.314828 
L 128.855571 42.911469 
L 129.613119 32.775664 
" style="fill:none;stroke:#ff0000;stroke-linecap:square;stroke-width:1.5;"/>
   </g>
   <g id="patch_101">
    <path d="M 52.123592 325.921635 
L 52.123592 18.118365 
" style="fill:none;stroke:#000000;stroke-linecap:square;stroke-linejoin:miter;stroke-width:0.8;"/>
   </g>
   <g id="patch_102">
    <path d="M 133.620545 325.921635 
L 133.620545 18.118365 
" style="fill:none;stroke:#000000;stroke-linecap:square;stroke-linejoin:miter;stroke-width:0.8;"/>
   </g>
   <g id="patch_103">
    <path d="M 52.123592 325.921635 
L 133.620545 325.921635 
" style="fill:none;stroke:#000000;stroke-linecap:square;stroke-linejoin:miter;stroke-width:0.8;"/>
   </g>
   <g id="patch_104">
    <path d="M 52.123592 18.118365 
L 133.620545 18.118365 
" style="fill:none;stroke:#000000;stroke-linecap:square;stroke-linejoin:miter;stroke-width:0.8;"/>
   </g>
   <g id="text_11">
    <!-- Casos acumulados - SE - (data) -->
    <defs>
     <path d="M 64.40625 67.28125 
L 64.40625 56.890625 
Q 59.421875 61.53125 53.78125 63.8125 
Q 48.140625 66.109375 41.796875 66.109375 
Q 29.296875 66.109375 22.65625 58.46875 
Q 16.015625 50.828125 16.015625 36.375 
Q 16.015625 21.96875 22.65625 14.328125 
Q 29.296875 6.6875 41.796875 6.6875 
Q 48.140625 6.6875 53.78125 8.984375 
Q 59.421875 11.28125 64.40625 15.921875 
L 64.40625 5.609375 
Q 59.234375 2.09375 53.4375 0.328125 
Q 47.65625 -1.421875 41.21875 -1.421875 
Q 24.65625 -1.421875 15.125 8.703125 
Q 5.609375 18.84375 5.609375 36.375 
Q 5.609375 53.953125 15.125 64.078125 
Q 24.65625 74.21875 41.21875 74.21875 
Q 47.75 74.21875 53.53125 72.484375 
Q 59.328125 70.75 64.40625 67.28125 
z
" id="DejaVuSans-67"/>
     <path d="M 34.28125 27.484375 
Q 23.390625 27.484375 19.1875 25 
Q 14.984375 22.515625 14.984375 16.5 
Q 14.984375 11.71875 18.140625 8.90625 
Q 21.296875 6.109375 26.703125 6.109375 
Q 34.1875 6.109375 38.703125 11.40625 
Q 43.21875 16.703125 43.21875 25.484375 
L 43.21875 27.484375 
z
M 52.203125 31.203125 
L 52.203125 0 
L 43.21875 0 
L 43.21875 8.296875 
Q 40.140625 3.328125 35.546875 0.953125 
Q 30.953125 -1.421875 24.3125 -1.421875 
Q 15.921875 -1.421875 10.953125 3.296875 
Q 6 8.015625 6 15.921875 
Q 6 25.140625 12.171875 29.828125 
Q 18.359375 34.515625 30.609375 34.515625 
L 43.21875 34.515625 
L 43.21875 35.40625 
Q 43.21875 41.609375 39.140625 45 
Q 35.0625 48.390625 27.6875 48.390625 
Q 23 48.390625 18.546875 47.265625 
Q 14.109375 46.140625 10.015625 43.890625 
L 10.015625 52.203125 
Q 14.9375 54.109375 19.578125 55.046875 
Q 24.21875 56 28.609375 56 
Q 40.484375 56 46.34375 49.84375 
Q 52.203125 43.703125 52.203125 31.203125 
z
" id="DejaVuSans-97"/>
     <path d="M 44.28125 53.078125 
L 44.28125 44.578125 
Q 40.484375 46.53125 36.375 47.5 
Q 32.28125 48.484375 27.875 48.484375 
Q 21.1875 48.484375 17.84375 46.4375 
Q 14.5 44.390625 14.5 40.28125 
Q 14.5 37.15625 16.890625 35.375 
Q 19.28125 33.59375 26.515625 31.984375 
L 29.59375 31.296875 
Q 39.15625 29.25 43.1875 25.515625 
Q 47.21875 21.78125 47.21875 15.09375 
Q 47.21875 7.46875 41.1875 3.015625 
Q 35.15625 -1.421875 24.609375 -1.421875 
Q 20.21875 -1.421875 15.453125 -0.5625 
Q 10.6875 0.296875 5.421875 2 
L 5.421875 11.28125 
Q 10.40625 8.6875 15.234375 7.390625 
Q 20.0625 6.109375 24.8125 6.109375 
Q 31.15625 6.109375 34.5625 8.28125 
Q 37.984375 10.453125 37.984375 14.40625 
Q 37.984375 18.0625 35.515625 20.015625 
Q 33.0625 21.96875 24.703125 23.78125 
L 21.578125 24.515625 
Q 13.234375 26.265625 9.515625 29.90625 
Q 5.8125 33.546875 5.8125 39.890625 
Q 5.8125 47.609375 11.28125 51.796875 
Q 16.75 56 26.8125 56 
Q 31.78125 56 36.171875 55.265625 
Q 40.578125 54.546875 44.28125 53.078125 
z
" id="DejaVuSans-115"/>
     <path d="M 30.609375 48.390625 
Q 23.390625 48.390625 19.1875 42.75 
Q 14.984375 37.109375 14.984375 27.296875 
Q 14.984375 17.484375 19.15625 11.84375 
Q 23.34375 6.203125 30.609375 6.203125 
Q 37.796875 6.203125 41.984375 11.859375 
Q 46.1875 17.53125 46.1875 27.296875 
Q 46.1875 37.015625 41.984375 42.703125 
Q 37.796875 48.390625 30.609375 48.390625 
z
M 30.609375 56 
Q 42.328125 56 49.015625 48.375 
Q 55.71875 40.765625 55.71875 27.296875 
Q 55.71875 13.875 49.015625 6.21875 
Q 42.328125 -1.421875 30.609375 -1.421875 
Q 18.84375 -1.421875 12.171875 6.21875 
Q 5.515625 13.875 5.515625 27.296875 
Q 5.515625 40.765625 12.171875 48.375 
Q 18.84375 56 30.609375 56 
z
" id="DejaVuSans-111"/>
     <path id="DejaVuSans-32"/>
     <path d="M 48.78125 52.59375 
L 48.78125 44.1875 
Q 44.96875 46.296875 41.140625 47.34375 
Q 37.3125 48.390625 33.40625 48.390625 
Q 24.65625 48.390625 19.8125 42.84375 
Q 14.984375 37.3125 14.984375 27.296875 
Q 14.984375 17.28125 19.8125 11.734375 
Q 24.65625 6.203125 33.40625 6.203125 
Q 37.3125 6.203125 41.140625 7.25 
Q 44.96875 8.296875 48.78125 10.40625 
L 48.78125 2.09375 
Q 45.015625 0.34375 40.984375 -0.53125 
Q 36.96875 -1.421875 32.421875 -1.421875 
Q 20.0625 -1.421875 12.78125 6.34375 
Q 5.515625 14.109375 5.515625 27.296875 
Q 5.515625 40.671875 12.859375 48.328125 
Q 20.21875 56 33.015625 56 
Q 37.15625 56 41.109375 55.140625 
Q 45.0625 54.296875 48.78125 52.59375 
z
" id="DejaVuSans-99"/>
     <path d="M 8.5 21.578125 
L 8.5 54.6875 
L 17.484375 54.6875 
L 17.484375 21.921875 
Q 17.484375 14.15625 20.5 10.265625 
Q 23.53125 6.390625 29.59375 6.390625 
Q 36.859375 6.390625 41.078125 11.03125 
Q 45.3125 15.671875 45.3125 23.6875 
L 45.3125 54.6875 
L 54.296875 54.6875 
L 54.296875 0 
L 45.3125 0 
L 45.3125 8.40625 
Q 42.046875 3.421875 37.71875 1 
Q 33.40625 -1.421875 27.6875 -1.421875 
Q 18.265625 -1.421875 13.375 4.4375 
Q 8.5 10.296875 8.5 21.578125 
z
M 31.109375 56 
z
" id="DejaVuSans-117"/>
     <path d="M 52 44.1875 
Q 55.375 50.25 60.0625 53.125 
Q 64.75 56 71.09375 56 
Q 79.640625 56 84.28125 50.015625 
Q 88.921875 44.046875 88.921875 33.015625 
L 88.921875 0 
L 79.890625 0 
L 79.890625 32.71875 
Q 79.890625 40.578125 77.09375 44.375 
Q 74.3125 48.1875 68.609375 48.1875 
Q 61.625 48.1875 57.5625 43.546875 
Q 53.515625 38.921875 53.515625 30.90625 
L 53.515625 0 
L 44.484375 0 
L 44.484375 32.71875 
Q 44.484375 40.625 41.703125 44.40625 
Q 38.921875 48.1875 33.109375 48.1875 
Q 26.21875 48.1875 22.15625 43.53125 
Q 18.109375 38.875 18.109375 30.90625 
L 18.109375 0 
L 9.078125 0 
L 9.078125 54.6875 
L 18.109375 54.6875 
L 18.109375 46.1875 
Q 21.1875 51.21875 25.484375 53.609375 
Q 29.78125 56 35.6875 56 
Q 41.65625 56 45.828125 52.96875 
Q 50 49.953125 52 44.1875 
z
" id="DejaVuSans-109"/>
     <path d="M 9.421875 75.984375 
L 18.40625 75.984375 
L 18.40625 0 
L 9.421875 0 
z
" id="DejaVuSans-108"/>
     <path d="M 45.40625 46.390625 
L 45.40625 75.984375 
L 54.390625 75.984375 
L 54.390625 0 
L 45.40625 0 
L 45.40625 8.203125 
Q 42.578125 3.328125 38.25 0.953125 
Q 33.9375 -1.421875 27.875 -1.421875 
Q 17.96875 -1.421875 11.734375 6.484375 
Q 5.515625 14.40625 5.515625 27.296875 
Q 5.515625 40.1875 11.734375 48.09375 
Q 17.96875 56 27.875 56 
Q 33.9375 56 38.25 53.625 
Q 42.578125 51.265625 45.40625 46.390625 
z
M 14.796875 27.296875 
Q 14.796875 17.390625 18.875 11.75 
Q 22.953125 6.109375 30.078125 6.109375 
Q 37.203125 6.109375 41.296875 11.75 
Q 45.40625 17.390625 45.40625 27.296875 
Q 45.40625 37.203125 41.296875 42.84375 
Q 37.203125 48.484375 30.078125 48.484375 
Q 22.953125 48.484375 18.875 42.84375 
Q 14.796875 37.203125 14.796875 27.296875 
z
" id="DejaVuSans-100"/>
     <path d="M 4.890625 31.390625 
L 31.203125 31.390625 
L 31.203125 23.390625 
L 4.890625 23.390625 
z
" id="DejaVuSans-45"/>
     <path d="M 53.515625 70.515625 
L 53.515625 60.890625 
Q 47.90625 63.578125 42.921875 64.890625 
Q 37.9375 66.21875 33.296875 66.21875 
Q 25.25 66.21875 20.875 63.09375 
Q 16.5 59.96875 16.5 54.203125 
Q 16.5 49.359375 19.40625 46.890625 
Q 22.3125 44.4375 30.421875 42.921875 
L 36.375 41.703125 
Q 47.40625 39.59375 52.65625 34.296875 
Q 57.90625 29 57.90625 20.125 
Q 57.90625 9.515625 50.796875 4.046875 
Q 43.703125 -1.421875 29.984375 -1.421875 
Q 24.8125 -1.421875 18.96875 -0.25 
Q 13.140625 0.921875 6.890625 3.21875 
L 6.890625 13.375 
Q 12.890625 10.015625 18.65625 8.296875 
Q 24.421875 6.59375 29.984375 6.59375 
Q 38.421875 6.59375 43.015625 9.90625 
Q 47.609375 13.234375 47.609375 19.390625 
Q 47.609375 24.75 44.3125 27.78125 
Q 41.015625 30.8125 33.5 32.328125 
L 27.484375 33.5 
Q 16.453125 35.6875 11.515625 40.375 
Q 6.59375 45.0625 6.59375 53.421875 
Q 6.59375 63.09375 13.40625 68.65625 
Q 20.21875 74.21875 32.171875 74.21875 
Q 37.3125 74.21875 42.625 73.28125 
Q 47.953125 72.359375 53.515625 70.515625 
z
" id="DejaVuSans-83"/>
     <path d="M 9.8125 72.90625 
L 55.90625 72.90625 
L 55.90625 64.59375 
L 19.671875 64.59375 
L 19.671875 43.015625 
L 54.390625 43.015625 
L 54.390625 34.71875 
L 19.671875 34.71875 
L 19.671875 8.296875 
L 56.78125 8.296875 
L 56.78125 0 
L 9.8125 0 
z
" id="DejaVuSans-69"/>
     <path d="M 31 75.875 
Q 24.46875 64.65625 21.28125 53.65625 
Q 18.109375 42.671875 18.109375 31.390625 
Q 18.109375 20.125 21.3125 9.0625 
Q 24.515625 -2 31 -13.1875 
L 23.1875 -13.1875 
Q 15.875 -1.703125 12.234375 9.375 
Q 8.59375 20.453125 8.59375 31.390625 
Q 8.59375 42.28125 12.203125 53.3125 
Q 15.828125 64.359375 23.1875 75.875 
z
" id="DejaVuSans-40"/>
     <path d="M 18.3125 70.21875 
L 18.3125 54.6875 
L 36.8125 54.6875 
L 36.8125 47.703125 
L 18.3125 47.703125 
L 18.3125 18.015625 
Q 18.3125 11.328125 20.140625 9.421875 
Q 21.96875 7.515625 27.59375 7.515625 
L 36.8125 7.515625 
L 36.8125 0 
L 27.59375 0 
Q 17.1875 0 13.234375 3.875 
Q 9.28125 7.765625 9.28125 18.015625 
L 9.28125 47.703125 
L 2.6875 47.703125 
L 2.6875 54.6875 
L 9.28125 54.6875 
L 9.28125 70.21875 
z
" id="DejaVuSans-116"/>
     <path d="M 8.015625 75.875 
L 15.828125 75.875 
Q 23.140625 64.359375 26.78125 53.3125 
Q 30.421875 42.28125 30.421875 31.390625 
Q 30.421875 20.453125 26.78125 9.375 
Q 23.140625 -1.703125 15.828125 -13.1875 
L 8.015625 -13.1875 
Q 14.5 -2 17.703125 9.0625 
Q 20.90625 20.125 20.90625 31.390625 
Q 20.90625 42.671875 17.703125 53.65625 
Q 14.5 64.65625 8.015625 75.875 
z
" id="DejaVuSans-41"/>
    </defs>
    <g transform="translate(-0.952932 12.118365)scale(0.12 -0.12)">
     <use xlink:href="#DejaVuSans-67"/>
     <use x="69.824219" xlink:href="#DejaVuSans-97"/>
     <use x="131.103516" xlink:href="#DejaVuSans-115"/>
     <use x="183.203125" xlink:href="#DejaVuSans-111"/>
     <use x="244.384766" xlink:href="#DejaVuSans-115"/>
     <use x="296.484375" xlink:href="#DejaVuSans-32"/>
     <use x="328.271484" xlink:href="#DejaVuSans-97"/>
     <use x="389.550781" xlink:href="#DejaVuSans-99"/>
     <use x="444.53125" xlink:href="#DejaVuSans-117"/>
     <use x="507.910156" xlink:href="#DejaVuSans-109"/>
     <use x="605.322266" xlink:href="#DejaVuSans-117"/>
     <use x="668.701172" xlink:href="#DejaVuSans-108"/>
     <use x="696.484375" xlink:href="#DejaVuSans-97"/>
     <use x="757.763672" xlink:href="#DejaVuSans-100"/>
     <use x="821.240234" xlink:href="#DejaVuSans-111"/>
     <use x="882.421875" xlink:href="#DejaVuSans-115"/>
     <use x="934.521484" xlink:href="#DejaVuSans-32"/>
     <use x="966.308594" xlink:href="#DejaVuSans-45"/>
     <use x="1002.392578" xlink:href="#DejaVuSans-32"/>
     <use x="1034.179688" xlink:href="#DejaVuSans-83"/>
     <use x="1097.65625" xlink:href="#DejaVuSans-69"/>
     <use x="1160.839844" xlink:href="#DejaVuSans-32"/>
     <use x="1192.626953" xlink:href="#DejaVuSans-45"/>
     <use x="1228.710938" xlink:href="#DejaVuSans-32"/>
     <use x="1260.498047" xlink:href="#DejaVuSans-40"/>
     <use x="1299.511719" xlink:href="#DejaVuSans-100"/>
     <use x="1362.988281" xlink:href="#DejaVuSans-97"/>
     <use x="1424.267578" xlink:href="#DejaVuSans-116"/>
     <use x="1463.476562" xlink:href="#DejaVuSans-97"/>
     <use x="1524.755859" xlink:href="#DejaVuSans-41"/>
    </g>
   </g>
  </g>
  <g id="axes_2">
   <g id="patch_105">
    <path d="M 224.266377 325.921635 
L 305.763329 325.921635 
L 305.763329 18.118365 
L 224.266377 18.118365 
z
" style="fill:#ffffff;"/>
   </g>
   <g id="patch_106">
    <path clip-path="url(#pfe1d9d10f1)" d="M 227.970784 325.921635 
L 228.576822 325.921635 
L 228.576822 325.921635 
L 227.970784 325.921635 
z
" style="fill:#1f77b4;"/>
   </g>
   <g id="patch_107">
    <path clip-path="url(#pfe1d9d10f1)" d="M 228.728331 325.921635 
L 229.334369 325.921635 
L 229.334369 325.40644 
L 228.728331 325.40644 
z
" style="fill:#1f77b4;"/>
   </g>
   <g id="patch_108">
    <path clip-path="url(#pfe1d9d10f1)" d="M 229.485878 325.921635 
L 230.091916 325.921635 
L 230.091916 325.749903 
L 229.485878 325.749903 
z
" style="fill:#1f77b4;"/>
   </g>
   <g id="patch_109">
    <path clip-path="url(#pfe1d9d10f1)" d="M 230.243426 325.921635 
L 230.849464 325.921635 
L 230.849464 325.749903 
L 230.243426 325.749903 
z
" style="fill:#1f77b4;"/>
   </g>
   <g id="patch_110">
    <path clip-path="url(#pfe1d9d10f1)" d="M 231.000973 325.921635 
L 231.607011 325.921635 
L 231.607011 325.921635 
L 231.000973 325.921635 
z
" style="fill:#1f77b4;"/>
   </g>
   <g id="patch_111">
    <path clip-path="url(#pfe1d9d10f1)" d="M 231.758521 325.921635 
L 232.364559 325.921635 
L 232.364559 325.234708 
L 231.758521 325.234708 
z
" style="fill:#1f77b4;"/>
   </g>
   <g id="patch_112">
    <path clip-path="url(#pfe1d9d10f1)" d="M 232.516068 325.921635 
L 233.122106 325.921635 
L 233.122106 325.921635 
L 232.516068 325.921635 
z
" style="fill:#1f77b4;"/>
   </g>
   <g id="patch_113">
    <path clip-path="url(#pfe1d9d10f1)" d="M 233.273616 325.921635 
L 233.879654 325.921635 
L 233.879654 325.921635 
L 233.273616 325.921635 
z
" style="fill:#1f77b4;"/>
   </g>
   <g id="patch_114">
    <path clip-path="url(#pfe1d9d10f1)" d="M 234.031163 325.921635 
L 234.637201 325.921635 
L 234.637201 325.062977 
L 234.031163 325.062977 
z
" style="fill:#1f77b4;"/>
   </g>
   <g id="patch_115">
    <path clip-path="url(#pfe1d9d10f1)" d="M 234.78871 325.921635 
L 235.394748 325.921635 
L 235.394748 325.749903 
L 234.78871 325.749903 
z
" style="fill:#1f77b4;"/>
   </g>
   <g id="patch_116">
    <path clip-path="url(#pfe1d9d10f1)" d="M 235.546258 325.921635 
L 236.152296 325.921635 
L 236.152296 325.921635 
L 235.546258 325.921635 
z
" style="fill:#1f77b4;"/>
   </g>
   <g id="patch_117">
    <path clip-path="url(#pfe1d9d10f1)" d="M 236.303805 325.921635 
L 236.909843 325.921635 
L 236.909843 325.921635 
L 236.303805 325.921635 
z
" style="fill:#1f77b4;"/>
   </g>
   <g id="patch_118">
    <path clip-path="url(#pfe1d9d10f1)" d="M 237.061353 325.921635 
L 237.667391 325.921635 
L 237.667391 325.921635 
L 237.061353 325.921635 
z
" style="fill:#1f77b4;"/>
   </g>
   <g id="patch_119">
    <path clip-path="url(#pfe1d9d10f1)" d="M 237.8189 325.921635 
L 238.424938 325.921635 
L 238.424938 325.921635 
L 237.8189 325.921635 
z
" style="fill:#1f77b4;"/>
   </g>
   <g id="patch_120">
    <path clip-path="url(#pfe1d9d10f1)" d="M 238.576448 325.921635 
L 239.182486 325.921635 
L 239.182486 325.921635 
L 238.576448 325.921635 
z
" style="fill:#1f77b4;"/>
   </g>
   <g id="patch_121">
    <path clip-path="url(#pfe1d9d10f1)" d="M 239.333995 325.921635 
L 239.940033 325.921635 
L 239.940033 325.40644 
L 239.333995 325.40644 
z
" style="fill:#1f77b4;"/>
   </g>
   <g id="patch_122">
    <path clip-path="url(#pfe1d9d10f1)" d="M 240.091543 325.921635 
L 240.69758 325.921635 
L 240.69758 325.749903 
L 240.091543 325.749903 
z
" style="fill:#1f77b4;"/>
   </g>
   <g id="patch_123">
    <path clip-path="url(#pfe1d9d10f1)" d="M 240.84909 325.921635 
L 241.455128 325.921635 
L 241.455128 325.40644 
L 240.84909 325.40644 
z
" style="fill:#1f77b4;"/>
   </g>
   <g id="patch_124">
    <path clip-path="url(#pfe1d9d10f1)" d="M 241.606637 325.921635 
L 242.212675 325.921635 
L 242.212675 325.578172 
L 241.606637 325.578172 
z
" style="fill:#1f77b4;"/>
   </g>
   <g id="patch_125">
    <path clip-path="url(#pfe1d9d10f1)" d="M 242.364185 325.921635 
L 242.970223 325.921635 
L 242.970223 325.578172 
L 242.364185 325.578172 
z
" style="fill:#1f77b4;"/>
   </g>
   <g id="patch_126">
    <path clip-path="url(#pfe1d9d10f1)" d="M 243.121732 325.921635 
L 243.72777 325.921635 
L 243.72777 325.062977 
L 243.121732 325.062977 
z
" style="fill:#1f77b4;"/>
   </g>
   <g id="patch_127">
    <path clip-path="url(#pfe1d9d10f1)" d="M 243.87928 325.921635 
L 244.485318 325.921635 
L 244.485318 325.921635 
L 243.87928 325.921635 
z
" style="fill:#1f77b4;"/>
   </g>
   <g id="patch_128">
    <path clip-path="url(#pfe1d9d10f1)" d="M 244.636827 325.921635 
L 245.242865 325.921635 
L 245.242865 325.234708 
L 244.636827 325.234708 
z
" style="fill:#1f77b4;"/>
   </g>
   <g id="patch_129">
    <path clip-path="url(#pfe1d9d10f1)" d="M 245.394375 325.921635 
L 246.000412 325.921635 
L 246.000412 325.921635 
L 245.394375 325.921635 
z
" style="fill:#1f77b4;"/>
   </g>
   <g id="patch_130">
    <path clip-path="url(#pfe1d9d10f1)" d="M 246.151922 325.921635 
L 246.75796 325.921635 
L 246.75796 325.40644 
L 246.151922 325.40644 
z
" style="fill:#1f77b4;"/>
   </g>
   <g id="patch_131">
    <path clip-path="url(#pfe1d9d10f1)" d="M 246.909469 325.921635 
L 247.515507 325.921635 
L 247.515507 325.40644 
L 246.909469 325.40644 
z
" style="fill:#1f77b4;"/>
   </g>
   <g id="patch_132">
    <path clip-path="url(#pfe1d9d10f1)" d="M 247.667017 325.921635 
L 248.273055 325.921635 
L 248.273055 325.921635 
L 247.667017 325.921635 
z
" style="fill:#1f77b4;"/>
   </g>
   <g id="patch_133">
    <path clip-path="url(#pfe1d9d10f1)" d="M 248.424564 325.921635 
L 249.030602 325.921635 
L 249.030602 325.578172 
L 248.424564 325.578172 
z
" style="fill:#1f77b4;"/>
   </g>
   <g id="patch_134">
    <path clip-path="url(#pfe1d9d10f1)" d="M 249.182112 325.921635 
L 249.78815 325.921635 
L 249.78815 325.921635 
L 249.182112 325.921635 
z
" style="fill:#1f77b4;"/>
   </g>
   <g id="patch_135">
    <path clip-path="url(#pfe1d9d10f1)" d="M 249.939659 325.921635 
L 250.545697 325.921635 
L 250.545697 325.749903 
L 249.939659 325.749903 
z
" style="fill:#1f77b4;"/>
   </g>
   <g id="patch_136">
    <path clip-path="url(#pfe1d9d10f1)" d="M 250.697207 325.921635 
L 251.303245 325.921635 
L 251.303245 325.749903 
L 250.697207 325.749903 
z
" style="fill:#1f77b4;"/>
   </g>
   <g id="patch_137">
    <path clip-path="url(#pfe1d9d10f1)" d="M 251.454754 325.921635 
L 252.060792 325.921635 
L 252.060792 325.578172 
L 251.454754 325.578172 
z
" style="fill:#1f77b4;"/>
   </g>
   <g id="patch_138">
    <path clip-path="url(#pfe1d9d10f1)" d="M 252.212301 325.921635 
L 252.818339 325.921635 
L 252.818339 325.062977 
L 252.212301 325.062977 
z
" style="fill:#1f77b4;"/>
   </g>
   <g id="patch_139">
    <path clip-path="url(#pfe1d9d10f1)" d="M 252.969849 325.921635 
L 253.575887 325.921635 
L 253.575887 322.830465 
L 252.969849 322.830465 
z
" style="fill:#1f77b4;"/>
   </g>
   <g id="patch_140">
    <path clip-path="url(#pfe1d9d10f1)" d="M 253.727396 325.921635 
L 254.333434 325.921635 
L 254.333434 323.860855 
L 253.727396 323.860855 
z
" style="fill:#1f77b4;"/>
   </g>
   <g id="patch_141">
    <path clip-path="url(#pfe1d9d10f1)" d="M 254.484944 325.921635 
L 255.090982 325.921635 
L 255.090982 325.40644 
L 254.484944 325.40644 
z
" style="fill:#1f77b4;"/>
   </g>
   <g id="patch_142">
    <path clip-path="url(#pfe1d9d10f1)" d="M 255.242491 325.921635 
L 255.848529 325.921635 
L 255.848529 324.891245 
L 255.242491 324.891245 
z
" style="fill:#1f77b4;"/>
   </g>
   <g id="patch_143">
    <path clip-path="url(#pfe1d9d10f1)" d="M 256.000039 325.921635 
L 256.606077 325.921635 
L 256.606077 321.628343 
L 256.000039 321.628343 
z
" style="fill:#1f77b4;"/>
   </g>
   <g id="patch_144">
    <path clip-path="url(#pfe1d9d10f1)" d="M 256.757586 325.921635 
L 257.363624 325.921635 
L 257.363624 324.719513 
L 256.757586 324.719513 
z
" style="fill:#1f77b4;"/>
   </g>
   <g id="patch_145">
    <path clip-path="url(#pfe1d9d10f1)" d="M 257.515133 325.921635 
L 258.121171 325.921635 
L 258.121171 322.487001 
L 257.515133 322.487001 
z
" style="fill:#1f77b4;"/>
   </g>
   <g id="patch_146">
    <path clip-path="url(#pfe1d9d10f1)" d="M 258.272681 325.921635 
L 258.878719 325.921635 
L 258.878719 324.37605 
L 258.272681 324.37605 
z
" style="fill:#1f77b4;"/>
   </g>
   <g id="patch_147">
    <path clip-path="url(#pfe1d9d10f1)" d="M 259.030228 325.921635 
L 259.636266 325.921635 
L 259.636266 324.891245 
L 259.030228 324.891245 
z
" style="fill:#1f77b4;"/>
   </g>
   <g id="patch_148">
    <path clip-path="url(#pfe1d9d10f1)" d="M 259.787776 325.921635 
L 260.393814 325.921635 
L 260.393814 319.395831 
L 259.787776 319.395831 
z
" style="fill:#1f77b4;"/>
   </g>
   <g id="patch_149">
    <path clip-path="url(#pfe1d9d10f1)" d="M 260.545323 325.921635 
L 261.151361 325.921635 
L 261.151361 311.667906 
L 260.545323 311.667906 
z
" style="fill:#1f77b4;"/>
   </g>
   <g id="patch_150">
    <path clip-path="url(#pfe1d9d10f1)" d="M 261.302871 325.921635 
L 261.908909 325.921635 
L 261.908909 316.132929 
L 261.302871 316.132929 
z
" style="fill:#1f77b4;"/>
   </g>
   <g id="patch_151">
    <path clip-path="url(#pfe1d9d10f1)" d="M 262.060418 325.921635 
L 262.666456 325.921635 
L 262.666456 307.031151 
L 262.060418 307.031151 
z
" style="fill:#1f77b4;"/>
   </g>
   <g id="patch_152">
    <path clip-path="url(#pfe1d9d10f1)" d="M 262.817965 325.921635 
L 263.424003 325.921635 
L 263.424003 313.900418 
L 262.817965 313.900418 
z
" style="fill:#1f77b4;"/>
   </g>
   <g id="patch_153">
    <path clip-path="url(#pfe1d9d10f1)" d="M 263.575513 325.921635 
L 264.181551 325.921635 
L 264.181551 311.496174 
L 263.575513 311.496174 
z
" style="fill:#1f77b4;"/>
   </g>
   <g id="patch_154">
    <path clip-path="url(#pfe1d9d10f1)" d="M 264.33306 325.921635 
L 264.939098 325.921635 
L 264.939098 303.768249 
L 264.33306 303.768249 
z
" style="fill:#1f77b4;"/>
   </g>
   <g id="patch_155">
    <path clip-path="url(#pfe1d9d10f1)" d="M 265.090608 325.921635 
L 265.696646 325.921635 
L 265.696646 318.708905 
L 265.090608 318.708905 
z
" style="fill:#1f77b4;"/>
   </g>
   <g id="patch_156">
    <path clip-path="url(#pfe1d9d10f1)" d="M 265.848155 325.921635 
L 266.454193 325.921635 
L 266.454193 304.283444 
L 265.848155 304.283444 
z
" style="fill:#1f77b4;"/>
   </g>
   <g id="patch_157">
    <path clip-path="url(#pfe1d9d10f1)" d="M 266.605703 325.921635 
L 267.211741 325.921635 
L 267.211741 308.748467 
L 266.605703 308.748467 
z
" style="fill:#1f77b4;"/>
   </g>
   <g id="patch_158">
    <path clip-path="url(#pfe1d9d10f1)" d="M 267.36325 325.921635 
L 267.969288 325.921635 
L 267.969288 288.827593 
L 267.36325 288.827593 
z
" style="fill:#1f77b4;"/>
   </g>
   <g id="patch_159">
    <path clip-path="url(#pfe1d9d10f1)" d="M 268.120797 325.921635 
L 268.726835 325.921635 
L 268.726835 287.45374 
L 268.120797 287.45374 
z
" style="fill:#1f77b4;"/>
   </g>
   <g id="patch_160">
    <path clip-path="url(#pfe1d9d10f1)" d="M 268.878345 325.921635 
L 269.484383 325.921635 
L 269.484383 300.161884 
L 268.878345 300.161884 
z
" style="fill:#1f77b4;"/>
   </g>
   <g id="patch_161">
    <path clip-path="url(#pfe1d9d10f1)" d="M 269.635892 325.921635 
L 270.24193 325.921635 
L 270.24193 294.494738 
L 269.635892 294.494738 
z
" style="fill:#1f77b4;"/>
   </g>
   <g id="patch_162">
    <path clip-path="url(#pfe1d9d10f1)" d="M 270.39344 325.921635 
L 270.999478 325.921635 
L 270.999478 320.941416 
L 270.39344 320.941416 
z
" style="fill:#1f77b4;"/>
   </g>
   <g id="patch_163">
    <path clip-path="url(#pfe1d9d10f1)" d="M 271.150987 325.921635 
L 271.757025 325.921635 
L 271.757025 286.079886 
L 271.150987 286.079886 
z
" style="fill:#1f77b4;"/>
   </g>
   <g id="patch_164">
    <path clip-path="url(#pfe1d9d10f1)" d="M 271.908535 325.921635 
L 272.514573 325.921635 
L 272.514573 285.392959 
L 271.908535 285.392959 
z
" style="fill:#1f77b4;"/>
   </g>
   <g id="patch_165">
    <path clip-path="url(#pfe1d9d10f1)" d="M 272.666082 325.921635 
L 273.27212 325.921635 
L 273.27212 287.110276 
L 272.666082 287.110276 
z
" style="fill:#1f77b4;"/>
   </g>
   <g id="patch_166">
    <path clip-path="url(#pfe1d9d10f1)" d="M 273.423629 325.921635 
L 274.029667 325.921635 
L 274.029667 261.693988 
L 273.423629 261.693988 
z
" style="fill:#1f77b4;"/>
   </g>
   <g id="patch_167">
    <path clip-path="url(#pfe1d9d10f1)" d="M 274.181177 325.921635 
L 274.787215 325.921635 
L 274.787215 280.069277 
L 274.181177 280.069277 
z
" style="fill:#1f77b4;"/>
   </g>
   <g id="patch_168">
    <path clip-path="url(#pfe1d9d10f1)" d="M 274.938724 325.921635 
L 275.544762 325.921635 
L 275.544762 290.201446 
L 274.938724 290.201446 
z
" style="fill:#1f77b4;"/>
   </g>
   <g id="patch_169">
    <path clip-path="url(#pfe1d9d10f1)" d="M 275.696272 325.921635 
L 276.30231 325.921635 
L 276.30231 287.625471 
L 275.696272 287.625471 
z
" style="fill:#1f77b4;"/>
   </g>
   <g id="patch_170">
    <path clip-path="url(#pfe1d9d10f1)" d="M 276.453819 325.921635 
L 277.059857 325.921635 
L 277.059857 257.057233 
L 276.453819 257.057233 
z
" style="fill:#1f77b4;"/>
   </g>
   <g id="patch_171">
    <path clip-path="url(#pfe1d9d10f1)" d="M 277.211367 325.921635 
L 277.817405 325.921635 
L 277.817405 272.684815 
L 277.211367 272.684815 
z
" style="fill:#1f77b4;"/>
   </g>
   <g id="patch_172">
    <path clip-path="url(#pfe1d9d10f1)" d="M 277.968914 325.921635 
L 278.574952 325.921635 
L 278.574952 247.440259 
L 277.968914 247.440259 
z
" style="fill:#1f77b4;"/>
   </g>
   <g id="patch_173">
    <path clip-path="url(#pfe1d9d10f1)" d="M 278.726462 325.921635 
L 279.332499 325.921635 
L 279.332499 293.63608 
L 278.726462 293.63608 
z
" style="fill:#1f77b4;"/>
   </g>
   <g id="patch_174">
    <path clip-path="url(#pfe1d9d10f1)" d="M 279.484009 325.921635 
L 280.090047 325.921635 
L 280.090047 290.029715 
L 279.484009 290.029715 
z
" style="fill:#1f77b4;"/>
   </g>
   <g id="patch_175">
    <path clip-path="url(#pfe1d9d10f1)" d="M 280.241556 325.921635 
L 280.847594 325.921635 
L 280.847594 294.494738 
L 280.241556 294.494738 
z
" style="fill:#1f77b4;"/>
   </g>
   <g id="patch_176">
    <path clip-path="url(#pfe1d9d10f1)" d="M 280.999104 325.921635 
L 281.605142 325.921635 
L 281.605142 302.90959 
L 280.999104 302.90959 
z
" style="fill:#1f77b4;"/>
   </g>
   <g id="patch_177">
    <path clip-path="url(#pfe1d9d10f1)" d="M 281.756651 325.921635 
L 282.362689 325.921635 
L 282.362689 276.634644 
L 281.756651 276.634644 
z
" style="fill:#1f77b4;"/>
   </g>
   <g id="patch_178">
    <path clip-path="url(#pfe1d9d10f1)" d="M 282.514199 325.921635 
L 283.120237 325.921635 
L 283.120237 295.525128 
L 282.514199 295.525128 
z
" style="fill:#1f77b4;"/>
   </g>
   <g id="patch_179">
    <path clip-path="url(#pfe1d9d10f1)" d="M 283.271746 325.921635 
L 283.877784 325.921635 
L 283.877784 284.019106 
L 283.271746 284.019106 
z
" style="fill:#1f77b4;"/>
   </g>
   <g id="patch_180">
    <path clip-path="url(#pfe1d9d10f1)" d="M 284.029294 325.921635 
L 284.635331 325.921635 
L 284.635331 273.371742 
L 284.029294 273.371742 
z
" style="fill:#1f77b4;"/>
   </g>
   <g id="patch_181">
    <path clip-path="url(#pfe1d9d10f1)" d="M 284.786841 325.921635 
L 285.392879 325.921635 
L 285.392879 267.01767 
L 284.786841 267.01767 
z
" style="fill:#1f77b4;"/>
   </g>
   <g id="patch_182">
    <path clip-path="url(#pfe1d9d10f1)" d="M 285.544388 325.921635 
L 286.150426 325.921635 
L 286.150426 292.60569 
L 285.544388 292.60569 
z
" style="fill:#1f77b4;"/>
   </g>
   <g id="patch_183">
    <path clip-path="url(#pfe1d9d10f1)" d="M 286.301936 325.921635 
L 286.907974 325.921635 
L 286.907974 285.736423 
L 286.301936 285.736423 
z
" style="fill:#1f77b4;"/>
   </g>
   <g id="patch_184">
    <path clip-path="url(#pfe1d9d10f1)" d="M 287.059483 325.921635 
L 287.665521 325.921635 
L 287.665521 270.624035 
L 287.059483 270.624035 
z
" style="fill:#1f77b4;"/>
   </g>
   <g id="patch_185">
    <path clip-path="url(#pfe1d9d10f1)" d="M 287.817031 325.921635 
L 288.423069 325.921635 
L 288.423069 251.390087 
L 287.817031 251.390087 
z
" style="fill:#1f77b4;"/>
   </g>
   <g id="patch_186">
    <path clip-path="url(#pfe1d9d10f1)" d="M 288.574578 325.921635 
L 289.180616 325.921635 
L 289.180616 289.686251 
L 288.574578 289.686251 
z
" style="fill:#1f77b4;"/>
   </g>
   <g id="patch_187">
    <path clip-path="url(#pfe1d9d10f1)" d="M 289.332126 325.921635 
L 289.938163 325.921635 
L 289.938163 261.178793 
L 289.332126 261.178793 
z
" style="fill:#1f77b4;"/>
   </g>
   <g id="patch_188">
    <path clip-path="url(#pfe1d9d10f1)" d="M 290.089673 325.921635 
L 290.695711 325.921635 
L 290.695711 258.087623 
L 290.089673 258.087623 
z
" style="fill:#1f77b4;"/>
   </g>
   <g id="patch_189">
    <path clip-path="url(#pfe1d9d10f1)" d="M 290.84722 325.921635 
L 291.453258 325.921635 
L 291.453258 271.310962 
L 290.84722 271.310962 
z
" style="fill:#1f77b4;"/>
   </g>
   <g id="patch_190">
    <path clip-path="url(#pfe1d9d10f1)" d="M 291.604768 325.921635 
L 292.210806 325.921635 
L 292.210806 250.874892 
L 291.604768 250.874892 
z
" style="fill:#1f77b4;"/>
   </g>
   <g id="patch_191">
    <path clip-path="url(#pfe1d9d10f1)" d="M 292.362315 325.921635 
L 292.968353 325.921635 
L 292.968353 257.400696 
L 292.362315 257.400696 
z
" style="fill:#1f77b4;"/>
   </g>
   <g id="patch_192">
    <path clip-path="url(#pfe1d9d10f1)" d="M 293.119863 325.921635 
L 293.725901 325.921635 
L 293.725901 241.944845 
L 293.119863 241.944845 
z
" style="fill:#1f77b4;"/>
   </g>
   <g id="patch_193">
    <path clip-path="url(#pfe1d9d10f1)" d="M 293.87741 325.921635 
L 294.483448 325.921635 
L 294.483448 250.187966 
L 293.87741 250.187966 
z
" style="fill:#1f77b4;"/>
   </g>
   <g id="patch_194">
    <path clip-path="url(#pfe1d9d10f1)" d="M 294.634958 325.921635 
L 295.240996 325.921635 
L 295.240996 243.833894 
L 294.634958 243.833894 
z
" style="fill:#1f77b4;"/>
   </g>
   <g id="patch_195">
    <path clip-path="url(#pfe1d9d10f1)" d="M 295.392505 325.921635 
L 295.998543 325.921635 
L 295.998543 97.175042 
L 295.392505 97.175042 
z
" style="fill:#1f77b4;"/>
   </g>
   <g id="patch_196">
    <path clip-path="url(#pfe1d9d10f1)" d="M 296.150052 325.921635 
L 296.75609 325.921635 
L 296.75609 136.673328 
L 296.150052 136.673328 
z
" style="fill:#1f77b4;"/>
   </g>
   <g id="patch_197">
    <path clip-path="url(#pfe1d9d10f1)" d="M 296.9076 325.921635 
L 297.513638 325.921635 
L 297.513638 32.775664 
L 296.9076 32.775664 
z
" style="fill:#1f77b4;"/>
   </g>
   <g id="patch_198">
    <path clip-path="url(#pfe1d9d10f1)" d="M 297.665147 325.921635 
L 298.271185 325.921635 
L 298.271185 216.872021 
L 297.665147 216.872021 
z
" style="fill:#1f77b4;"/>
   </g>
   <g id="patch_199">
    <path clip-path="url(#pfe1d9d10f1)" d="M 298.422695 325.921635 
L 299.028733 325.921635 
L 299.028733 240.570992 
L 298.422695 240.570992 
z
" style="fill:#1f77b4;"/>
   </g>
   <g id="patch_200">
    <path clip-path="url(#pfe1d9d10f1)" d="M 299.180242 325.921635 
L 299.78628 325.921635 
L 299.78628 234.732115 
L 299.180242 234.732115 
z
" style="fill:#1f77b4;"/>
   </g>
   <g id="patch_201">
    <path clip-path="url(#pfe1d9d10f1)" d="M 299.93779 325.921635 
L 300.543828 325.921635 
L 300.543828 245.207747 
L 299.93779 245.207747 
z
" style="fill:#1f77b4;"/>
   </g>
   <g id="patch_202">
    <path clip-path="url(#pfe1d9d10f1)" d="M 300.695337 325.921635 
L 301.301375 325.921635 
L 301.301375 215.84163 
L 300.695337 215.84163 
z
" style="fill:#1f77b4;"/>
   </g>
   <g id="patch_203">
    <path clip-path="url(#pfe1d9d10f1)" d="M 301.452884 325.921635 
L 302.058922 325.921635 
L 302.058922 233.873457 
L 301.452884 233.873457 
z
" style="fill:#1f77b4;"/>
   </g>
   <g id="matplotlib.axis_3">
    <g id="xtick_3">
     <g id="line2d_12">
      <g>
       <use style="stroke:#000000;stroke-width:0.8;" x="228.273803" xlink:href="#m60da508770" y="325.921635"/>
      </g>
     </g>
     <g id="text_12">
      <!-- 0 -->
      <g transform="translate(225.092553 340.520072)scale(0.1 -0.1)">
       <use xlink:href="#DejaVuSans-48"/>
      </g>
     </g>
    </g>
    <g id="xtick_4">
     <g id="line2d_13">
      <g>
       <use style="stroke:#000000;stroke-width:0.8;" x="304.028546" xlink:href="#m60da508770" y="325.921635"/>
      </g>
     </g>
     <g id="text_13">
      <!-- 100 -->
      <g transform="translate(294.484796 340.520072)scale(0.1 -0.1)">
       <use xlink:href="#DejaVuSans-49"/>
       <use x="63.623047" xlink:href="#DejaVuSans-48"/>
       <use x="127.246094" xlink:href="#DejaVuSans-48"/>
      </g>
     </g>
    </g>
   </g>
   <g id="matplotlib.axis_4">
    <g id="ytick_9">
     <g id="line2d_14">
      <g>
       <use style="stroke:#000000;stroke-width:0.8;" x="224.266377" xlink:href="#m5b5c297bd4" y="325.921635"/>
      </g>
     </g>
     <g id="text_14">
      <!-- 0 -->
      <g transform="translate(210.903877 329.720854)scale(0.1 -0.1)">
       <use xlink:href="#DejaVuSans-48"/>
      </g>
     </g>
    </g>
    <g id="ytick_10">
     <g id="line2d_15">
      <g>
       <use style="stroke:#000000;stroke-width:0.8;" x="224.266377" xlink:href="#m5b5c297bd4" y="291.5753"/>
      </g>
     </g>
     <g id="text_15">
      <!-- 200 -->
      <g transform="translate(198.178877 295.374518)scale(0.1 -0.1)">
       <use xlink:href="#DejaVuSans-50"/>
       <use x="63.623047" xlink:href="#DejaVuSans-48"/>
       <use x="127.246094" xlink:href="#DejaVuSans-48"/>
      </g>
     </g>
    </g>
    <g id="ytick_11">
     <g id="line2d_16">
      <g>
       <use style="stroke:#000000;stroke-width:0.8;" x="224.266377" xlink:href="#m5b5c297bd4" y="257.228964"/>
      </g>
     </g>
     <g id="text_16">
      <!-- 400 -->
      <defs>
       <path d="M 37.796875 64.3125 
L 12.890625 25.390625 
L 37.796875 25.390625 
z
M 35.203125 72.90625 
L 47.609375 72.90625 
L 47.609375 25.390625 
L 58.015625 25.390625 
L 58.015625 17.1875 
L 47.609375 17.1875 
L 47.609375 0 
L 37.796875 0 
L 37.796875 17.1875 
L 4.890625 17.1875 
L 4.890625 26.703125 
z
" id="DejaVuSans-52"/>
      </defs>
      <g transform="translate(198.178877 261.028183)scale(0.1 -0.1)">
       <use xlink:href="#DejaVuSans-52"/>
       <use x="63.623047" xlink:href="#DejaVuSans-48"/>
       <use x="127.246094" xlink:href="#DejaVuSans-48"/>
      </g>
     </g>
    </g>
    <g id="ytick_12">
     <g id="line2d_17">
      <g>
       <use style="stroke:#000000;stroke-width:0.8;" x="224.266377" xlink:href="#m5b5c297bd4" y="222.882629"/>
      </g>
     </g>
     <g id="text_17">
      <!-- 600 -->
      <defs>
       <path d="M 33.015625 40.375 
Q 26.375 40.375 22.484375 35.828125 
Q 18.609375 31.296875 18.609375 23.390625 
Q 18.609375 15.53125 22.484375 10.953125 
Q 26.375 6.390625 33.015625 6.390625 
Q 39.65625 6.390625 43.53125 10.953125 
Q 47.40625 15.53125 47.40625 23.390625 
Q 47.40625 31.296875 43.53125 35.828125 
Q 39.65625 40.375 33.015625 40.375 
z
M 52.59375 71.296875 
L 52.59375 62.3125 
Q 48.875 64.0625 45.09375 64.984375 
Q 41.3125 65.921875 37.59375 65.921875 
Q 27.828125 65.921875 22.671875 59.328125 
Q 17.53125 52.734375 16.796875 39.40625 
Q 19.671875 43.65625 24.015625 45.921875 
Q 28.375 48.1875 33.59375 48.1875 
Q 44.578125 48.1875 50.953125 41.515625 
Q 57.328125 34.859375 57.328125 23.390625 
Q 57.328125 12.15625 50.6875 5.359375 
Q 44.046875 -1.421875 33.015625 -1.421875 
Q 20.359375 -1.421875 13.671875 8.265625 
Q 6.984375 17.96875 6.984375 36.375 
Q 6.984375 53.65625 15.1875 63.9375 
Q 23.390625 74.21875 37.203125 74.21875 
Q 40.921875 74.21875 44.703125 73.484375 
Q 48.484375 72.75 52.59375 71.296875 
z
" id="DejaVuSans-54"/>
      </defs>
      <g transform="translate(198.178877 226.681848)scale(0.1 -0.1)">
       <use xlink:href="#DejaVuSans-54"/>
       <use x="63.623047" xlink:href="#DejaVuSans-48"/>
       <use x="127.246094" xlink:href="#DejaVuSans-48"/>
      </g>
     </g>
    </g>
    <g id="ytick_13">
     <g id="line2d_18">
      <g>
       <use style="stroke:#000000;stroke-width:0.8;" x="224.266377" xlink:href="#m5b5c297bd4" y="188.536294"/>
      </g>
     </g>
     <g id="text_18">
      <!-- 800 -->
      <defs>
       <path d="M 31.78125 34.625 
Q 24.75 34.625 20.71875 30.859375 
Q 16.703125 27.09375 16.703125 20.515625 
Q 16.703125 13.921875 20.71875 10.15625 
Q 24.75 6.390625 31.78125 6.390625 
Q 38.8125 6.390625 42.859375 10.171875 
Q 46.921875 13.96875 46.921875 20.515625 
Q 46.921875 27.09375 42.890625 30.859375 
Q 38.875 34.625 31.78125 34.625 
z
M 21.921875 38.8125 
Q 15.578125 40.375 12.03125 44.71875 
Q 8.5 49.078125 8.5 55.328125 
Q 8.5 64.0625 14.71875 69.140625 
Q 20.953125 74.21875 31.78125 74.21875 
Q 42.671875 74.21875 48.875 69.140625 
Q 55.078125 64.0625 55.078125 55.328125 
Q 55.078125 49.078125 51.53125 44.71875 
Q 48 40.375 41.703125 38.8125 
Q 48.828125 37.15625 52.796875 32.3125 
Q 56.78125 27.484375 56.78125 20.515625 
Q 56.78125 9.90625 50.3125 4.234375 
Q 43.84375 -1.421875 31.78125 -1.421875 
Q 19.734375 -1.421875 13.25 4.234375 
Q 6.78125 9.90625 6.78125 20.515625 
Q 6.78125 27.484375 10.78125 32.3125 
Q 14.796875 37.15625 21.921875 38.8125 
z
M 18.3125 54.390625 
Q 18.3125 48.734375 21.84375 45.5625 
Q 25.390625 42.390625 31.78125 42.390625 
Q 38.140625 42.390625 41.71875 45.5625 
Q 45.3125 48.734375 45.3125 54.390625 
Q 45.3125 60.0625 41.71875 63.234375 
Q 38.140625 66.40625 31.78125 66.40625 
Q 25.390625 66.40625 21.84375 63.234375 
Q 18.3125 60.0625 18.3125 54.390625 
z
" id="DejaVuSans-56"/>
      </defs>
      <g transform="translate(198.178877 192.335513)scale(0.1 -0.1)">
       <use xlink:href="#DejaVuSans-56"/>
       <use x="63.623047" xlink:href="#DejaVuSans-48"/>
       <use x="127.246094" xlink:href="#DejaVuSans-48"/>
      </g>
     </g>
    </g>
    <g id="ytick_14">
     <g id="line2d_19">
      <g>
       <use style="stroke:#000000;stroke-width:0.8;" x="224.266377" xlink:href="#m5b5c297bd4" y="154.189959"/>
      </g>
     </g>
     <g id="text_19">
      <!-- 1000 -->
      <g transform="translate(191.816377 157.989177)scale(0.1 -0.1)">
       <use xlink:href="#DejaVuSans-49"/>
       <use x="63.623047" xlink:href="#DejaVuSans-48"/>
       <use x="127.246094" xlink:href="#DejaVuSans-48"/>
       <use x="190.869141" xlink:href="#DejaVuSans-48"/>
      </g>
     </g>
    </g>
    <g id="ytick_15">
     <g id="line2d_20">
      <g>
       <use style="stroke:#000000;stroke-width:0.8;" x="224.266377" xlink:href="#m5b5c297bd4" y="119.843623"/>
      </g>
     </g>
     <g id="text_20">
      <!-- 1200 -->
      <g transform="translate(191.816377 123.642842)scale(0.1 -0.1)">
       <use xlink:href="#DejaVuSans-49"/>
       <use x="63.623047" xlink:href="#DejaVuSans-50"/>
       <use x="127.246094" xlink:href="#DejaVuSans-48"/>
       <use x="190.869141" xlink:href="#DejaVuSans-48"/>
      </g>
     </g>
    </g>
    <g id="ytick_16">
     <g id="line2d_21">
      <g>
       <use style="stroke:#000000;stroke-width:0.8;" x="224.266377" xlink:href="#m5b5c297bd4" y="85.497288"/>
      </g>
     </g>
     <g id="text_21">
      <!-- 1400 -->
      <g transform="translate(191.816377 89.296507)scale(0.1 -0.1)">
       <use xlink:href="#DejaVuSans-49"/>
       <use x="63.623047" xlink:href="#DejaVuSans-52"/>
       <use x="127.246094" xlink:href="#DejaVuSans-48"/>
       <use x="190.869141" xlink:href="#DejaVuSans-48"/>
      </g>
     </g>
    </g>
    <g id="ytick_17">
     <g id="line2d_22">
      <g>
       <use style="stroke:#000000;stroke-width:0.8;" x="224.266377" xlink:href="#m5b5c297bd4" y="51.150953"/>
      </g>
     </g>
     <g id="text_22">
      <!-- 1600 -->
      <g transform="translate(191.816377 54.950172)scale(0.1 -0.1)">
       <use xlink:href="#DejaVuSans-49"/>
       <use x="63.623047" xlink:href="#DejaVuSans-54"/>
       <use x="127.246094" xlink:href="#DejaVuSans-48"/>
       <use x="190.869141" xlink:href="#DejaVuSans-48"/>
      </g>
     </g>
    </g>
   </g>
   <g id="line2d_23">
    <path clip-path="url(#pfe1d9d10f1)" d="M 228.273803 325.818281 
L 229.03135 325.787669 
L 229.788897 325.755983 
L 230.546445 325.736242 
L 231.303992 325.72208 
L 232.06154 325.714284 
L 232.819087 325.713497 
L 233.576635 325.716859 
L 234.334182 325.722581 
L 235.091729 325.728875 
L 235.849277 325.733023 
L 236.606824 325.732737 
L 237.364372 325.726658 
L 238.121919 325.713783 
L 238.879467 325.694829 
L 239.637014 325.671726 
L 240.394561 325.646407 
L 241.152109 325.621802 
L 241.909656 325.600559 
L 242.667204 325.58468 
L 243.424751 325.575811 
L 244.182299 325.573165 
L 244.939846 325.573523 
L 245.697394 325.573451 
L 246.454941 325.568158 
L 247.212488 325.551564 
L 247.970036 325.517232 
L 248.727583 325.45801 
L 249.485131 325.371822 
L 250.242678 325.260171 
L 251.000226 325.1227 
L 251.757773 324.955331 
L 252.51532 324.756563 
L 253.272868 324.518814 
L 254.030415 324.233787 
L 254.787963 323.881883 
L 255.54551 323.431061 
L 256.303058 322.855856 
L 257.060605 322.142966 
L 257.818152 321.277799 
L 258.5757 320.259139 
L 259.333247 319.082408 
L 260.090795 317.757621 
L 260.848342 316.319324 
L 261.60589 314.796555 
L 262.363437 313.203835 
L 263.120984 311.550033 
L 263.878532 309.844303 
L 264.636079 308.108461 
L 265.393627 306.353379 
L 266.151174 304.572906 
L 266.908722 302.74587 
L 267.666269 300.858037 
L 268.423816 298.912126 
L 269.181364 296.8811 
L 269.938911 294.753945 
L 270.696459 292.540101 
L 271.454006 290.253374 
L 272.211554 287.958635 
L 272.969101 285.745506 
L 273.726648 283.702894 
L 274.484196 281.98994 
L 275.241743 280.696266 
L 275.999291 279.869079 
L 276.756838 279.547931 
L 277.514386 279.70357 
L 278.271933 280.251094 
L 279.02948 281.052532 
L 279.787028 281.877717 
L 280.544575 282.567362 
L 281.302123 283.008028 
L 282.05967 283.08692 
L 282.817218 282.731154 
L 283.574765 281.906399 
L 284.332313 280.663365 
L 285.08986 279.091458 
L 285.847407 277.249473 
L 286.604955 275.107441 
L 287.362502 272.601775 
L 288.12005 269.593788 
L 288.877597 265.928772 
L 289.635145 261.39859 
L 290.392692 255.829863 
L 291.150239 249.064665 
L 291.907787 241.193975 
L 292.665334 232.491664 
L 293.422882 223.556181 
L 294.180429 215.022168 
L 294.937977 207.529774 
L 295.695524 201.689968 
L 296.453071 198.094975 
L 297.210619 196.988625 
L 297.968166 197.944987 
L 298.725714 200.584834 
L 299.483261 204.432453 
L 300.240809 207.061857 
L 300.998356 210.096451 
L 301.755903 213.075256 
" style="fill:none;stroke:#ff0000;stroke-linecap:square;stroke-width:1.5;"/>
   </g>
   <g id="patch_204">
    <path d="M 224.266377 325.921635 
L 224.266377 18.118365 
" style="fill:none;stroke:#000000;stroke-linecap:square;stroke-linejoin:miter;stroke-width:0.8;"/>
   </g>
   <g id="patch_205">
    <path d="M 305.763329 325.921635 
L 305.763329 18.118365 
" style="fill:none;stroke:#000000;stroke-linecap:square;stroke-linejoin:miter;stroke-width:0.8;"/>
   </g>
   <g id="patch_206">
    <path d="M 224.266377 325.921635 
L 305.763329 325.921635 
" style="fill:none;stroke:#000000;stroke-linecap:square;stroke-linejoin:miter;stroke-width:0.8;"/>
   </g>
   <g id="patch_207">
    <path d="M 224.266377 18.118365 
L 305.763329 18.118365 
" style="fill:none;stroke:#000000;stroke-linecap:square;stroke-linejoin:miter;stroke-width:0.8;"/>
   </g>
   <g id="text_23">
    <!-- Casos novos - SE - (data) -->
    <defs>
     <path d="M 54.890625 33.015625 
L 54.890625 0 
L 45.90625 0 
L 45.90625 32.71875 
Q 45.90625 40.484375 42.875 44.328125 
Q 39.84375 48.1875 33.796875 48.1875 
Q 26.515625 48.1875 22.3125 43.546875 
Q 18.109375 38.921875 18.109375 30.90625 
L 18.109375 0 
L 9.078125 0 
L 9.078125 54.6875 
L 18.109375 54.6875 
L 18.109375 46.1875 
Q 21.34375 51.125 25.703125 53.5625 
Q 30.078125 56 35.796875 56 
Q 45.21875 56 50.046875 50.171875 
Q 54.890625 44.34375 54.890625 33.015625 
z
" id="DejaVuSans-110"/>
     <path d="M 2.984375 54.6875 
L 12.5 54.6875 
L 29.59375 8.796875 
L 46.6875 54.6875 
L 56.203125 54.6875 
L 35.6875 0 
L 23.484375 0 
z
" id="DejaVuSans-118"/>
    </defs>
    <g transform="translate(189.742978 12.118365)scale(0.12 -0.12)">
     <use xlink:href="#DejaVuSans-67"/>
     <use x="69.824219" xlink:href="#DejaVuSans-97"/>
     <use x="131.103516" xlink:href="#DejaVuSans-115"/>
     <use x="183.203125" xlink:href="#DejaVuSans-111"/>
     <use x="244.384766" xlink:href="#DejaVuSans-115"/>
     <use x="296.484375" xlink:href="#DejaVuSans-32"/>
     <use x="328.271484" xlink:href="#DejaVuSans-110"/>
     <use x="391.650391" xlink:href="#DejaVuSans-111"/>
     <use x="452.832031" xlink:href="#DejaVuSans-118"/>
     <use x="512.011719" xlink:href="#DejaVuSans-111"/>
     <use x="573.193359" xlink:href="#DejaVuSans-115"/>
     <use x="625.292969" xlink:href="#DejaVuSans-32"/>
     <use x="657.080078" xlink:href="#DejaVuSans-45"/>
     <use x="693.164062" xlink:href="#DejaVuSans-32"/>
     <use x="724.951172" xlink:href="#DejaVuSans-83"/>
     <use x="788.427734" xlink:href="#DejaVuSans-69"/>
     <use x="851.611328" xlink:href="#DejaVuSans-32"/>
     <use x="883.398438" xlink:href="#DejaVuSans-45"/>
     <use x="919.482422" xlink:href="#DejaVuSans-32"/>
     <use x="951.269531" xlink:href="#DejaVuSans-40"/>
     <use x="990.283203" xlink:href="#DejaVuSans-100"/>
     <use x="1053.759766" xlink:href="#DejaVuSans-97"/>
     <use x="1115.039062" xlink:href="#DejaVuSans-116"/>
     <use x="1154.248047" xlink:href="#DejaVuSans-97"/>
     <use x="1215.527344" xlink:href="#DejaVuSans-41"/>
    </g>
   </g>
  </g>
  <g id="axes_3">
   <g id="patch_208">
    <path d="M 368.309161 325.921635 
L 449.806114 325.921635 
L 449.806114 18.118365 
L 368.309161 18.118365 
z
" style="fill:#ffffff;"/>
   </g>
   <g id="matplotlib.axis_5">
    <g id="xtick_5">
     <g id="line2d_24">
      <g>
       <use style="stroke:#000000;stroke-width:0.8;" x="372.013568" xlink:href="#m60da508770" y="325.921635"/>
      </g>
     </g>
     <g id="text_24">
      <!-- 0 -->
      <g transform="translate(368.832318 340.520072)scale(0.1 -0.1)">
       <use xlink:href="#DejaVuSans-48"/>
      </g>
     </g>
    </g>
    <g id="xtick_6">
     <g id="line2d_25">
      <g>
       <use style="stroke:#000000;stroke-width:0.8;" x="448.393093" xlink:href="#m60da508770" y="325.921635"/>
      </g>
     </g>
     <g id="text_25">
      <!-- 100 -->
      <g transform="translate(438.849343 340.520072)scale(0.1 -0.1)">
       <use xlink:href="#DejaVuSans-49"/>
       <use x="63.623047" xlink:href="#DejaVuSans-48"/>
       <use x="127.246094" xlink:href="#DejaVuSans-48"/>
      </g>
     </g>
    </g>
   </g>
   <g id="matplotlib.axis_6">
    <g id="ytick_18">
     <g id="line2d_26">
      <g>
       <use style="stroke:#000000;stroke-width:0.8;" x="368.309161" xlink:href="#m5b5c297bd4" y="282.485945"/>
      </g>
     </g>
     <g id="text_26">
      <!-- 1.0 -->
      <defs>
       <path d="M 10.6875 12.40625 
L 21 12.40625 
L 21 0 
L 10.6875 0 
z
" id="DejaVuSans-46"/>
      </defs>
      <g transform="translate(345.406036 286.285164)scale(0.1 -0.1)">
       <use xlink:href="#DejaVuSans-49"/>
       <use x="63.623047" xlink:href="#DejaVuSans-46"/>
       <use x="95.410156" xlink:href="#DejaVuSans-48"/>
      </g>
     </g>
    </g>
    <g id="ytick_19">
     <g id="line2d_27">
      <g>
       <use style="stroke:#000000;stroke-width:0.8;" x="368.309161" xlink:href="#m5b5c297bd4" y="219.334806"/>
      </g>
     </g>
     <g id="text_27">
      <!-- 1.5 -->
      <g transform="translate(345.406036 223.134025)scale(0.1 -0.1)">
       <use xlink:href="#DejaVuSans-49"/>
       <use x="63.623047" xlink:href="#DejaVuSans-46"/>
       <use x="95.410156" xlink:href="#DejaVuSans-53"/>
      </g>
     </g>
    </g>
    <g id="ytick_20">
     <g id="line2d_28">
      <g>
       <use style="stroke:#000000;stroke-width:0.8;" x="368.309161" xlink:href="#m5b5c297bd4" y="156.183668"/>
      </g>
     </g>
     <g id="text_28">
      <!-- 2.0 -->
      <g transform="translate(345.406036 159.982886)scale(0.1 -0.1)">
       <use xlink:href="#DejaVuSans-50"/>
       <use x="63.623047" xlink:href="#DejaVuSans-46"/>
       <use x="95.410156" xlink:href="#DejaVuSans-48"/>
      </g>
     </g>
    </g>
    <g id="ytick_21">
     <g id="line2d_29">
      <g>
       <use style="stroke:#000000;stroke-width:0.8;" x="368.309161" xlink:href="#m5b5c297bd4" y="93.032529"/>
      </g>
     </g>
     <g id="text_29">
      <!-- 2.5 -->
      <g transform="translate(345.406036 96.831748)scale(0.1 -0.1)">
       <use xlink:href="#DejaVuSans-50"/>
       <use x="63.623047" xlink:href="#DejaVuSans-46"/>
       <use x="95.410156" xlink:href="#DejaVuSans-53"/>
      </g>
     </g>
    </g>
    <g id="ytick_22">
     <g id="line2d_30">
      <g>
       <use style="stroke:#000000;stroke-width:0.8;" x="368.309161" xlink:href="#m5b5c297bd4" y="29.88139"/>
      </g>
     </g>
     <g id="text_30">
      <!-- 3.0 -->
      <defs>
       <path d="M 40.578125 39.3125 
Q 47.65625 37.796875 51.625 33 
Q 55.609375 28.21875 55.609375 21.1875 
Q 55.609375 10.40625 48.1875 4.484375 
Q 40.765625 -1.421875 27.09375 -1.421875 
Q 22.515625 -1.421875 17.65625 -0.515625 
Q 12.796875 0.390625 7.625 2.203125 
L 7.625 11.71875 
Q 11.71875 9.328125 16.59375 8.109375 
Q 21.484375 6.890625 26.8125 6.890625 
Q 36.078125 6.890625 40.9375 10.546875 
Q 45.796875 14.203125 45.796875 21.1875 
Q 45.796875 27.640625 41.28125 31.265625 
Q 36.765625 34.90625 28.71875 34.90625 
L 20.21875 34.90625 
L 20.21875 43.015625 
L 29.109375 43.015625 
Q 36.375 43.015625 40.234375 45.921875 
Q 44.09375 48.828125 44.09375 54.296875 
Q 44.09375 59.90625 40.109375 62.90625 
Q 36.140625 65.921875 28.71875 65.921875 
Q 24.65625 65.921875 20.015625 65.03125 
Q 15.375 64.15625 9.8125 62.3125 
L 9.8125 71.09375 
Q 15.4375 72.65625 20.34375 73.4375 
Q 25.25 74.21875 29.59375 74.21875 
Q 40.828125 74.21875 47.359375 69.109375 
Q 53.90625 64.015625 53.90625 55.328125 
Q 53.90625 49.265625 50.4375 45.09375 
Q 46.96875 40.921875 40.578125 39.3125 
z
" id="DejaVuSans-51"/>
      </defs>
      <g transform="translate(345.406036 33.680609)scale(0.1 -0.1)">
       <use xlink:href="#DejaVuSans-51"/>
       <use x="63.623047" xlink:href="#DejaVuSans-46"/>
       <use x="95.410156" xlink:href="#DejaVuSans-48"/>
      </g>
     </g>
    </g>
   </g>
   <g id="line2d_31">
    <path clip-path="url(#pe2c1bef6b9)" d="M 372.013568 32.109423 
L 372.777364 76.311472 
L 373.541159 109.898715 
L 374.304954 186.402106 
L 375.068749 218.441943 
L 375.832545 248.547233 
L 376.59634 279.059872 
L 377.360135 297.281713 
L 378.12393 308.405816 
L 378.887725 311.930577 
L 379.651521 302.313035 
L 380.415316 281.099895 
L 381.179111 254.330344 
L 381.942906 226.573695 
L 382.706702 207.054679 
L 383.470497 199.043799 
L 384.234292 199.444734 
L 384.998087 208.405842 
L 385.761883 222.749667 
L 386.525678 239.92648 
L 387.289473 259.305528 
L 388.053268 275.594089 
L 388.817064 283.372992 
L 389.580859 282.258825 
L 390.344654 268.929011 
L 391.108449 241.972826 
L 391.872245 205.817718 
L 392.63604 167.143618 
L 393.399835 140.940206 
L 394.16363 130.062113 
L 394.927426 127.087117 
L 395.691221 126.037519 
L 396.455016 128.356333 
L 397.218811 129.340442 
L 397.982607 129.850999 
L 398.746402 126.503679 
L 399.510197 118.773148 
L 400.273992 112.720937 
L 401.037788 111.680093 
L 401.801583 113.689437 
L 402.565378 119.342325 
L 403.329173 126.271683 
L 404.092969 134.945753 
L 404.856764 146.057024 
L 405.620559 157.549915 
L 406.384354 167.891352 
L 407.14815 176.887455 
L 407.911945 184.807882 
L 408.67574 192.42786 
L 409.439535 199.237019 
L 410.203331 204.708352 
L 410.967126 208.599249 
L 411.730921 211.518259 
L 412.494716 214.2116 
L 413.258512 215.819652 
L 414.022307 217.026311 
L 414.786102 218.43794 
L 415.549897 220.092094 
L 416.313693 223.084335 
L 417.077488 227.652891 
L 417.841283 233.485383 
L 418.605078 241.853602 
L 419.368873 251.200432 
L 420.132669 260.843045 
L 420.896464 270.912761 
L 421.660259 280.340358 
L 422.424054 288.243764 
L 423.18785 293.593662 
L 423.951645 294.242378 
L 424.71544 291.389343 
L 425.479235 285.858015 
L 426.243031 277.649087 
L 427.006826 267.821398 
L 427.770621 257.529454 
L 428.534416 248.861257 
L 429.298212 242.64186 
L 430.062007 238.114629 
L 430.825802 233.503533 
L 431.589597 228.318108 
L 432.353393 221.531377 
L 433.117188 213.387773 
L 433.880983 203.698446 
L 434.644778 193.694937 
L 435.408574 184.106063 
L 436.172369 177.926573 
L 436.936164 176.133065 
L 437.699959 180.337033 
L 438.463755 189.084913 
L 439.22755 201.360434 
L 439.991345 216.555299 
L 440.75514 234.771099 
L 441.518936 254.043561 
L 442.282731 269.998453 
L 443.046526 283.619189 
L 443.810321 294.287289 
L 444.574117 283.614127 
L 445.337912 287.411597 
L 446.101707 287.099471 
" style="fill:none;stroke:#ff0000;stroke-linecap:square;stroke-width:1.5;"/>
   </g>
   <g id="patch_209">
    <path d="M 368.309161 325.921635 
L 368.309161 18.118365 
" style="fill:none;stroke:#000000;stroke-linecap:square;stroke-linejoin:miter;stroke-width:0.8;"/>
   </g>
   <g id="patch_210">
    <path d="M 449.806114 325.921635 
L 449.806114 18.118365 
" style="fill:none;stroke:#000000;stroke-linecap:square;stroke-linejoin:miter;stroke-width:0.8;"/>
   </g>
   <g id="patch_211">
    <path d="M 368.309161 325.921635 
L 449.806114 325.921635 
" style="fill:none;stroke:#000000;stroke-linecap:square;stroke-linejoin:miter;stroke-width:0.8;"/>
   </g>
   <g id="patch_212">
    <path d="M 368.309161 18.118365 
L 449.806114 18.118365 
" style="fill:none;stroke:#000000;stroke-linecap:square;stroke-linejoin:miter;stroke-width:0.8;"/>
   </g>
   <g id="text_31">
    <!-- r0 - SE - (data) -->
    <defs>
     <path d="M 41.109375 46.296875 
Q 39.59375 47.171875 37.8125 47.578125 
Q 36.03125 48 33.890625 48 
Q 26.265625 48 22.1875 43.046875 
Q 18.109375 38.09375 18.109375 28.8125 
L 18.109375 0 
L 9.078125 0 
L 9.078125 54.6875 
L 18.109375 54.6875 
L 18.109375 46.1875 
Q 20.953125 51.171875 25.484375 53.578125 
Q 30.03125 56 36.53125 56 
Q 37.453125 56 38.578125 55.875 
Q 39.703125 55.765625 41.0625 55.515625 
z
" id="DejaVuSans-114"/>
    </defs>
    <g transform="translate(365.019513 12.118365)scale(0.12 -0.12)">
     <use xlink:href="#DejaVuSans-114"/>
     <use x="41.113281" xlink:href="#DejaVuSans-48"/>
     <use x="104.736328" xlink:href="#DejaVuSans-32"/>
     <use x="136.523438" xlink:href="#DejaVuSans-45"/>
     <use x="172.607422" xlink:href="#DejaVuSans-32"/>
     <use x="204.394531" xlink:href="#DejaVuSans-83"/>
     <use x="267.871094" xlink:href="#DejaVuSans-69"/>
     <use x="331.054688" xlink:href="#DejaVuSans-32"/>
     <use x="362.841797" xlink:href="#DejaVuSans-45"/>
     <use x="398.925781" xlink:href="#DejaVuSans-32"/>
     <use x="430.712891" xlink:href="#DejaVuSans-40"/>
     <use x="469.726562" xlink:href="#DejaVuSans-100"/>
     <use x="533.203125" xlink:href="#DejaVuSans-97"/>
     <use x="594.482422" xlink:href="#DejaVuSans-116"/>
     <use x="633.691406" xlink:href="#DejaVuSans-97"/>
     <use x="694.970703" xlink:href="#DejaVuSans-41"/>
    </g>
   </g>
  </g>
 </g>
 <defs>
  <clipPath id="pce2c075b22">
   <rect height="307.80327" width="81.496953" x="52.123592" y="18.118365"/>
  </clipPath>
  <clipPath id="pfe1d9d10f1">
   <rect height="307.80327" width="81.496953" x="224.266377" y="18.118365"/>
  </clipPath>
  <clipPath id="pe2c1bef6b9">
   <rect height="307.80327" width="81.496953" x="368.309161" y="18.118365"/>
  </clipPath>
 </defs>
</svg>
