<?xml version="1.0" encoding="utf-8" standalone="no"?>
<!DOCTYPE svg PUBLIC "-//W3C//DTD SVG 1.1//EN"
  "http://www.w3.org/Graphics/SVG/1.1/DTD/svg11.dtd">
<!-- Created with matplotlib (https://matplotlib.org/) -->
<svg height="345.6pt" version="1.1" viewBox="0 0 460.8 345.6" width="460.8pt" xmlns="http://www.w3.org/2000/svg" xmlns:xlink="http://www.w3.org/1999/xlink">
 <defs>
  <style type="text/css">
*{stroke-linecap:butt;stroke-linejoin:round;}
  </style>
 </defs>
 <g id="figure_1">
  <g id="patch_1">
   <path d="M 0 345.6 
L 460.8 345.6 
L 460.8 0 
L 0 0 
z
" style="fill:#ffffff;"/>
  </g>
  <g id="axes_1">
   <g id="patch_2">
    <path d="M 52.310264 325.921635 
L 134.16426 325.921635 
L 134.16426 18.118365 
L 52.310264 18.118365 
z
" style="fill:#ffffff;"/>
   </g>
   <g id="patch_3">
    <path clip-path="url(#p890ca11a20)" d="M 56.0309 325.921635 
L 56.544978 325.921635 
L 56.544978 325.920324 
L 56.0309 325.920324 
z
" style="fill:#1f77b4;"/>
   </g>
   <g id="patch_4">
    <path clip-path="url(#p890ca11a20)" d="M 56.673497 325.921635 
L 57.187575 325.921635 
L 57.187575 325.920324 
L 56.673497 325.920324 
z
" style="fill:#1f77b4;"/>
   </g>
   <g id="patch_5">
    <path clip-path="url(#p890ca11a20)" d="M 57.316094 325.921635 
L 57.830172 325.921635 
L 57.830172 325.919012 
L 57.316094 325.919012 
z
" style="fill:#1f77b4;"/>
   </g>
   <g id="patch_6">
    <path clip-path="url(#p890ca11a20)" d="M 57.958691 325.921635 
L 58.472769 325.921635 
L 58.472769 325.919012 
L 57.958691 325.919012 
z
" style="fill:#1f77b4;"/>
   </g>
   <g id="patch_7">
    <path clip-path="url(#p890ca11a20)" d="M 58.601288 325.921635 
L 59.115366 325.921635 
L 59.115366 325.919012 
L 58.601288 325.919012 
z
" style="fill:#1f77b4;"/>
   </g>
   <g id="patch_8">
    <path clip-path="url(#p890ca11a20)" d="M 59.243885 325.921635 
L 59.757963 325.921635 
L 59.757963 325.919012 
L 59.243885 325.919012 
z
" style="fill:#1f77b4;"/>
   </g>
   <g id="patch_9">
    <path clip-path="url(#p890ca11a20)" d="M 59.886482 325.921635 
L 60.40056 325.921635 
L 60.40056 325.917701 
L 59.886482 325.917701 
z
" style="fill:#1f77b4;"/>
   </g>
   <g id="patch_10">
    <path clip-path="url(#p890ca11a20)" d="M 60.529079 325.921635 
L 61.043156 325.921635 
L 61.043156 325.913766 
L 60.529079 325.913766 
z
" style="fill:#1f77b4;"/>
   </g>
   <g id="patch_11">
    <path clip-path="url(#p890ca11a20)" d="M 61.171676 325.921635 
L 61.685753 325.921635 
L 61.685753 325.908521 
L 61.171676 325.908521 
z
" style="fill:#1f77b4;"/>
   </g>
   <g id="patch_12">
    <path clip-path="url(#p890ca11a20)" d="M 61.814273 325.921635 
L 62.32835 325.921635 
L 62.32835 325.904586 
L 61.814273 325.904586 
z
" style="fill:#1f77b4;"/>
   </g>
   <g id="patch_13">
    <path clip-path="url(#p890ca11a20)" d="M 62.45687 325.921635 
L 62.970947 325.921635 
L 62.970947 325.900652 
L 62.45687 325.900652 
z
" style="fill:#1f77b4;"/>
   </g>
   <g id="patch_14">
    <path clip-path="url(#p890ca11a20)" d="M 63.099467 325.921635 
L 63.613544 325.921635 
L 63.613544 325.900652 
L 63.099467 325.900652 
z
" style="fill:#1f77b4;"/>
   </g>
   <g id="patch_15">
    <path clip-path="url(#p890ca11a20)" d="M 63.742064 325.921635 
L 64.256141 325.921635 
L 64.256141 325.896718 
L 63.742064 325.896718 
z
" style="fill:#1f77b4;"/>
   </g>
   <g id="patch_16">
    <path clip-path="url(#p890ca11a20)" d="M 64.38466 325.921635 
L 64.898738 325.921635 
L 64.898738 325.882292 
L 64.38466 325.882292 
z
" style="fill:#1f77b4;"/>
   </g>
   <g id="patch_17">
    <path clip-path="url(#p890ca11a20)" d="M 65.027257 325.921635 
L 65.541335 325.921635 
L 65.541335 325.866555 
L 65.027257 325.866555 
z
" style="fill:#1f77b4;"/>
   </g>
   <g id="patch_18">
    <path clip-path="url(#p890ca11a20)" d="M 65.669854 325.921635 
L 66.183932 325.921635 
L 66.183932 325.848195 
L 65.669854 325.848195 
z
" style="fill:#1f77b4;"/>
   </g>
   <g id="patch_19">
    <path clip-path="url(#p890ca11a20)" d="M 66.312451 325.921635 
L 66.826529 325.921635 
L 66.826529 325.836392 
L 66.312451 325.836392 
z
" style="fill:#1f77b4;"/>
   </g>
   <g id="patch_20">
    <path clip-path="url(#p890ca11a20)" d="M 66.955048 325.921635 
L 67.469126 325.921635 
L 67.469126 325.743281 
L 66.955048 325.743281 
z
" style="fill:#1f77b4;"/>
   </g>
   <g id="patch_21">
    <path clip-path="url(#p890ca11a20)" d="M 67.597645 325.921635 
L 68.111723 325.921635 
L 68.111723 325.722299 
L 67.597645 325.722299 
z
" style="fill:#1f77b4;"/>
   </g>
   <g id="patch_22">
    <path clip-path="url(#p890ca11a20)" d="M 68.240242 325.921635 
L 68.754319 325.921635 
L 68.754319 325.706562 
L 68.240242 325.706562 
z
" style="fill:#1f77b4;"/>
   </g>
   <g id="patch_23">
    <path clip-path="url(#p890ca11a20)" d="M 68.882839 325.921635 
L 69.396916 325.921635 
L 69.396916 325.606893 
L 68.882839 325.606893 
z
" style="fill:#1f77b4;"/>
   </g>
   <g id="patch_24">
    <path clip-path="url(#p890ca11a20)" d="M 69.525436 325.921635 
L 70.039513 325.921635 
L 70.039513 325.546568 
L 69.525436 325.546568 
z
" style="fill:#1f77b4;"/>
   </g>
   <g id="patch_25">
    <path clip-path="url(#p890ca11a20)" d="M 70.168033 325.921635 
L 70.68211 325.921635 
L 70.68211 325.402311 
L 70.168033 325.402311 
z
" style="fill:#1f77b4;"/>
   </g>
   <g id="patch_26">
    <path clip-path="url(#p890ca11a20)" d="M 70.81063 325.921635 
L 71.324707 325.921635 
L 71.324707 325.319692 
L 70.81063 325.319692 
z
" style="fill:#1f77b4;"/>
   </g>
   <g id="patch_27">
    <path clip-path="url(#p890ca11a20)" d="M 71.453227 325.921635 
L 71.967304 325.921635 
L 71.967304 325.094127 
L 71.453227 325.094127 
z
" style="fill:#1f77b4;"/>
   </g>
   <g id="patch_28">
    <path clip-path="url(#p890ca11a20)" d="M 72.095823 325.921635 
L 72.609901 325.921635 
L 72.609901 324.944624 
L 72.095823 324.944624 
z
" style="fill:#1f77b4;"/>
   </g>
   <g id="patch_29">
    <path clip-path="url(#p890ca11a20)" d="M 72.73842 325.921635 
L 73.252498 325.921635 
L 73.252498 324.859382 
L 72.73842 324.859382 
z
" style="fill:#1f77b4;"/>
   </g>
   <g id="patch_30">
    <path clip-path="url(#p890ca11a20)" d="M 73.381017 325.921635 
L 73.895095 325.921635 
L 73.895095 324.791188 
L 73.381017 324.791188 
z
" style="fill:#1f77b4;"/>
   </g>
   <g id="patch_31">
    <path clip-path="url(#p890ca11a20)" d="M 74.023614 325.921635 
L 74.537692 325.921635 
L 74.537692 324.542017 
L 74.023614 324.542017 
z
" style="fill:#1f77b4;"/>
   </g>
   <g id="patch_32">
    <path clip-path="url(#p890ca11a20)" d="M 74.666211 325.921635 
L 75.180289 325.921635 
L 75.180289 324.317764 
L 74.666211 324.317764 
z
" style="fill:#1f77b4;"/>
   </g>
   <g id="patch_33">
    <path clip-path="url(#p890ca11a20)" d="M 75.308808 325.921635 
L 75.822886 325.921635 
L 75.822886 324.077773 
L 75.308808 324.077773 
z
" style="fill:#1f77b4;"/>
   </g>
   <g id="patch_34">
    <path clip-path="url(#p890ca11a20)" d="M 75.951405 325.921635 
L 76.465483 325.921635 
L 76.465483 324.018759 
L 75.951405 324.018759 
z
" style="fill:#1f77b4;"/>
   </g>
   <g id="patch_35">
    <path clip-path="url(#p890ca11a20)" d="M 76.594002 325.921635 
L 77.108079 325.921635 
L 77.108079 323.932205 
L 76.594002 323.932205 
z
" style="fill:#1f77b4;"/>
   </g>
   <g id="patch_36">
    <path clip-path="url(#p890ca11a20)" d="M 77.236599 325.921635 
L 77.750676 325.921635 
L 77.750676 322.854215 
L 77.236599 322.854215 
z
" style="fill:#1f77b4;"/>
   </g>
   <g id="patch_37">
    <path clip-path="url(#p890ca11a20)" d="M 77.879196 325.921635 
L 78.393273 325.921635 
L 78.393273 322.012281 
L 77.879196 322.012281 
z
" style="fill:#1f77b4;"/>
   </g>
   <g id="patch_38">
    <path clip-path="url(#p890ca11a20)" d="M 78.521793 325.921635 
L 79.03587 325.921635 
L 79.03587 321.323784 
L 78.521793 321.323784 
z
" style="fill:#1f77b4;"/>
   </g>
   <g id="patch_39">
    <path clip-path="url(#p890ca11a20)" d="M 79.16439 325.921635 
L 79.678467 325.921635 
L 79.678467 320.612992 
L 79.16439 320.612992 
z
" style="fill:#1f77b4;"/>
   </g>
   <g id="patch_40">
    <path clip-path="url(#p890ca11a20)" d="M 79.806987 325.921635 
L 80.321064 325.921635 
L 80.321064 320.064817 
L 79.806987 320.064817 
z
" style="fill:#1f77b4;"/>
   </g>
   <g id="patch_41">
    <path clip-path="url(#p890ca11a20)" d="M 80.449583 325.921635 
L 80.963661 325.921635 
L 80.963661 319.862858 
L 80.449583 319.862858 
z
" style="fill:#1f77b4;"/>
   </g>
   <g id="patch_42">
    <path clip-path="url(#p890ca11a20)" d="M 81.09218 325.921635 
L 81.606258 325.921635 
L 81.606258 319.540248 
L 81.09218 319.540248 
z
" style="fill:#1f77b4;"/>
   </g>
   <g id="patch_43">
    <path clip-path="url(#p890ca11a20)" d="M 81.734777 325.921635 
L 82.248855 325.921635 
L 82.248855 318.470126 
L 81.734777 318.470126 
z
" style="fill:#1f77b4;"/>
   </g>
   <g id="patch_44">
    <path clip-path="url(#p890ca11a20)" d="M 82.377374 325.921635 
L 82.891452 325.921635 
L 82.891452 317.124605 
L 82.377374 317.124605 
z
" style="fill:#1f77b4;"/>
   </g>
   <g id="patch_45">
    <path clip-path="url(#p890ca11a20)" d="M 83.019971 325.921635 
L 83.534049 325.921635 
L 83.534049 316.112186 
L 83.019971 316.112186 
z
" style="fill:#1f77b4;"/>
   </g>
   <g id="patch_46">
    <path clip-path="url(#p890ca11a20)" d="M 83.662568 325.921635 
L 84.176646 325.921635 
L 84.176646 315.146978 
L 83.662568 315.146978 
z
" style="fill:#1f77b4;"/>
   </g>
   <g id="patch_47">
    <path clip-path="url(#p890ca11a20)" d="M 84.305165 325.921635 
L 84.819243 325.921635 
L 84.819243 314.880759 
L 84.305165 314.880759 
z
" style="fill:#1f77b4;"/>
   </g>
   <g id="patch_48">
    <path clip-path="url(#p890ca11a20)" d="M 84.947762 325.921635 
L 85.461839 325.921635 
L 85.461839 314.440121 
L 84.947762 314.440121 
z
" style="fill:#1f77b4;"/>
   </g>
   <g id="patch_49">
    <path clip-path="url(#p890ca11a20)" d="M 85.590359 325.921635 
L 86.104436 325.921635 
L 86.104436 314.256522 
L 85.590359 314.256522 
z
" style="fill:#1f77b4;"/>
   </g>
   <g id="patch_50">
    <path clip-path="url(#p890ca11a20)" d="M 86.232956 325.921635 
L 86.747033 325.921635 
L 86.747033 313.632284 
L 86.232956 313.632284 
z
" style="fill:#1f77b4;"/>
   </g>
   <g id="patch_51">
    <path clip-path="url(#p890ca11a20)" d="M 86.875553 325.921635 
L 87.38963 325.921635 
L 87.38963 311.439584 
L 86.875553 311.439584 
z
" style="fill:#1f77b4;"/>
   </g>
   <g id="patch_52">
    <path clip-path="url(#p890ca11a20)" d="M 87.51815 325.921635 
L 88.032227 325.921635 
L 88.032227 310.751086 
L 87.51815 310.751086 
z
" style="fill:#1f77b4;"/>
   </g>
   <g id="patch_53">
    <path clip-path="url(#p890ca11a20)" d="M 88.160746 325.921635 
L 88.674824 325.921635 
L 88.674824 309.081644 
L 88.160746 309.081644 
z
" style="fill:#1f77b4;"/>
   </g>
   <g id="patch_54">
    <path clip-path="url(#p890ca11a20)" d="M 88.803343 325.921635 
L 89.317421 325.921635 
L 89.317421 307.700715 
L 88.803343 307.700715 
z
" style="fill:#1f77b4;"/>
   </g>
   <g id="patch_55">
    <path clip-path="url(#p890ca11a20)" d="M 89.44594 325.921635 
L 89.960018 325.921635 
L 89.960018 307.211554 
L 89.44594 307.211554 
z
" style="fill:#1f77b4;"/>
   </g>
   <g id="patch_56">
    <path clip-path="url(#p890ca11a20)" d="M 90.088537 325.921635 
L 90.602615 325.921635 
L 90.602615 306.801078 
L 90.088537 306.801078 
z
" style="fill:#1f77b4;"/>
   </g>
   <g id="patch_57">
    <path clip-path="url(#p890ca11a20)" d="M 90.731134 325.921635 
L 91.245212 325.921635 
L 91.245212 305.745382 
L 90.731134 305.745382 
z
" style="fill:#1f77b4;"/>
   </g>
   <g id="patch_58">
    <path clip-path="url(#p890ca11a20)" d="M 91.373731 325.921635 
L 91.887809 325.921635 
L 91.887809 305.051639 
L 91.373731 305.051639 
z
" style="fill:#1f77b4;"/>
   </g>
   <g id="patch_59">
    <path clip-path="url(#p890ca11a20)" d="M 92.016328 325.921635 
L 92.530406 325.921635 
L 92.530406 303.968403 
L 92.016328 303.968403 
z
" style="fill:#1f77b4;"/>
   </g>
   <g id="patch_60">
    <path clip-path="url(#p890ca11a20)" d="M 92.658925 325.921635 
L 93.173002 325.921635 
L 93.173002 302.544197 
L 92.658925 302.544197 
z
" style="fill:#1f77b4;"/>
   </g>
   <g id="patch_61">
    <path clip-path="url(#p890ca11a20)" d="M 93.301522 325.921635 
L 93.815599 325.921635 
L 93.815599 299.687916 
L 93.301522 299.687916 
z
" style="fill:#1f77b4;"/>
   </g>
   <g id="patch_62">
    <path clip-path="url(#p890ca11a20)" d="M 93.944119 325.921635 
L 94.458196 325.921635 
L 94.458196 298.755494 
L 93.944119 298.755494 
z
" style="fill:#1f77b4;"/>
   </g>
   <g id="patch_63">
    <path clip-path="url(#p890ca11a20)" d="M 94.586716 325.921635 
L 95.100793 325.921635 
L 95.100793 297.468988 
L 94.586716 297.468988 
z
" style="fill:#1f77b4;"/>
   </g>
   <g id="patch_64">
    <path clip-path="url(#p890ca11a20)" d="M 95.229313 325.921635 
L 95.74339 325.921635 
L 95.74339 294.393699 
L 95.229313 294.393699 
z
" style="fill:#1f77b4;"/>
   </g>
   <g id="patch_65">
    <path clip-path="url(#p890ca11a20)" d="M 95.87191 325.921635 
L 96.385987 325.921635 
L 96.385987 291.617415 
L 95.87191 291.617415 
z
" style="fill:#1f77b4;"/>
   </g>
   <g id="patch_66">
    <path clip-path="url(#p890ca11a20)" d="M 96.514506 325.921635 
L 97.028584 325.921635 
L 97.028584 288.286399 
L 96.514506 288.286399 
z
" style="fill:#1f77b4;"/>
   </g>
   <g id="patch_67">
    <path clip-path="url(#p890ca11a20)" d="M 97.157103 325.921635 
L 97.671181 325.921635 
L 97.671181 286.088453 
L 97.157103 286.088453 
z
" style="fill:#1f77b4;"/>
   </g>
   <g id="patch_68">
    <path clip-path="url(#p890ca11a20)" d="M 97.7997 325.921635 
L 98.313778 325.921635 
L 98.313778 285.039314 
L 97.7997 285.039314 
z
" style="fill:#1f77b4;"/>
   </g>
   <g id="patch_69">
    <path clip-path="url(#p890ca11a20)" d="M 98.442297 325.921635 
L 98.956375 325.921635 
L 98.956375 284.255083 
L 98.442297 284.255083 
z
" style="fill:#1f77b4;"/>
   </g>
   <g id="patch_70">
    <path clip-path="url(#p890ca11a20)" d="M 99.084894 325.921635 
L 99.598972 325.921635 
L 99.598972 283.710842 
L 99.084894 283.710842 
z
" style="fill:#1f77b4;"/>
   </g>
   <g id="patch_71">
    <path clip-path="url(#p890ca11a20)" d="M 99.727491 325.921635 
L 100.241569 325.921635 
L 100.241569 281.263726 
L 99.727491 281.263726 
z
" style="fill:#1f77b4;"/>
   </g>
   <g id="patch_72">
    <path clip-path="url(#p890ca11a20)" d="M 100.370088 325.921635 
L 100.884166 325.921635 
L 100.884166 276.280316 
L 100.370088 276.280316 
z
" style="fill:#1f77b4;"/>
   </g>
   <g id="patch_73">
    <path clip-path="url(#p890ca11a20)" d="M 101.012685 325.921635 
L 101.526762 325.921635 
L 101.526762 273.559112 
L 101.012685 273.559112 
z
" style="fill:#1f77b4;"/>
   </g>
   <g id="patch_74">
    <path clip-path="url(#p890ca11a20)" d="M 101.655282 325.921635 
L 102.169359 325.921635 
L 102.169359 271.064784 
L 101.655282 271.064784 
z
" style="fill:#1f77b4;"/>
   </g>
   <g id="patch_75">
    <path clip-path="url(#p890ca11a20)" d="M 102.297879 325.921635 
L 102.811956 325.921635 
L 102.811956 267.679999 
L 102.297879 267.679999 
z
" style="fill:#1f77b4;"/>
   </g>
   <g id="patch_76">
    <path clip-path="url(#p890ca11a20)" d="M 102.940476 325.921635 
L 103.454553 325.921635 
L 103.454553 266.325299 
L 102.940476 266.325299 
z
" style="fill:#1f77b4;"/>
   </g>
   <g id="patch_77">
    <path clip-path="url(#p890ca11a20)" d="M 103.583073 325.921635 
L 104.09715 325.921635 
L 104.09715 265.424351 
L 103.583073 265.424351 
z
" style="fill:#1f77b4;"/>
   </g>
   <g id="patch_78">
    <path clip-path="url(#p890ca11a20)" d="M 104.225669 325.921635 
L 104.739747 325.921635 
L 104.739747 263.34181 
L 104.225669 263.34181 
z
" style="fill:#1f77b4;"/>
   </g>
   <g id="patch_79">
    <path clip-path="url(#p890ca11a20)" d="M 104.868266 325.921635 
L 105.382344 325.921635 
L 105.382344 258.911821 
L 104.868266 258.911821 
z
" style="fill:#1f77b4;"/>
   </g>
   <g id="patch_80">
    <path clip-path="url(#p890ca11a20)" d="M 105.510863 325.921635 
L 106.024941 325.921635 
L 106.024941 254.729691 
L 105.510863 254.729691 
z
" style="fill:#1f77b4;"/>
   </g>
   <g id="patch_81">
    <path clip-path="url(#p890ca11a20)" d="M 106.15346 325.921635 
L 106.667538 325.921635 
L 106.667538 249.363345 
L 106.15346 249.363345 
z
" style="fill:#1f77b4;"/>
   </g>
   <g id="patch_82">
    <path clip-path="url(#p890ca11a20)" d="M 106.796057 325.921635 
L 107.310135 325.921635 
L 107.310135 245.684802 
L 106.796057 245.684802 
z
" style="fill:#1f77b4;"/>
   </g>
   <g id="patch_83">
    <path clip-path="url(#p890ca11a20)" d="M 107.438654 325.921635 
L 107.952732 325.921635 
L 107.952732 244.160928 
L 107.438654 244.160928 
z
" style="fill:#1f77b4;"/>
   </g>
   <g id="patch_84">
    <path clip-path="url(#p890ca11a20)" d="M 108.081251 325.921635 
L 108.595329 325.921635 
L 108.595329 243.215391 
L 108.081251 243.215391 
z
" style="fill:#1f77b4;"/>
   </g>
   <g id="patch_85">
    <path clip-path="url(#p890ca11a20)" d="M 108.723848 325.921635 
L 109.237925 325.921635 
L 109.237925 239.374231 
L 108.723848 239.374231 
z
" style="fill:#1f77b4;"/>
   </g>
   <g id="patch_86">
    <path clip-path="url(#p890ca11a20)" d="M 109.366445 325.921635 
L 109.880522 325.921635 
L 109.880522 234.30689 
L 109.366445 234.30689 
z
" style="fill:#1f77b4;"/>
   </g>
   <g id="patch_87">
    <path clip-path="url(#p890ca11a20)" d="M 110.009042 325.921635 
L 110.523119 325.921635 
L 110.523119 229.218567 
L 110.009042 229.218567 
z
" style="fill:#1f77b4;"/>
   </g>
   <g id="patch_88">
    <path clip-path="url(#p890ca11a20)" d="M 110.651639 325.921635 
L 111.165716 325.921635 
L 111.165716 225.111188 
L 110.651639 225.111188 
z
" style="fill:#1f77b4;"/>
   </g>
   <g id="patch_89">
    <path clip-path="url(#p890ca11a20)" d="M 111.294236 325.921635 
L 111.808313 325.921635 
L 111.808313 220.275969 
L 111.294236 220.275969 
z
" style="fill:#1f77b4;"/>
   </g>
   <g id="patch_90">
    <path clip-path="url(#p890ca11a20)" d="M 111.936833 325.921635 
L 112.45091 325.921635 
L 112.45091 218.173757 
L 111.936833 218.173757 
z
" style="fill:#1f77b4;"/>
   </g>
   <g id="patch_91">
    <path clip-path="url(#p890ca11a20)" d="M 112.579429 325.921635 
L 113.093507 325.921635 
L 113.093507 216.253833 
L 112.579429 216.253833 
z
" style="fill:#1f77b4;"/>
   </g>
   <g id="patch_92">
    <path clip-path="url(#p890ca11a20)" d="M 113.222026 325.921635 
L 113.736104 325.921635 
L 113.736104 213.116907 
L 113.222026 213.116907 
z
" style="fill:#1f77b4;"/>
   </g>
   <g id="patch_93">
    <path clip-path="url(#p890ca11a20)" d="M 113.864623 325.921635 
L 114.378701 325.921635 
L 114.378701 208.571513 
L 113.864623 208.571513 
z
" style="fill:#1f77b4;"/>
   </g>
   <g id="patch_94">
    <path clip-path="url(#p890ca11a20)" d="M 114.50722 325.921635 
L 115.021298 325.921635 
L 115.021298 200.202007 
L 114.50722 200.202007 
z
" style="fill:#1f77b4;"/>
   </g>
   <g id="patch_95">
    <path clip-path="url(#p890ca11a20)" d="M 115.149817 325.921635 
L 115.663895 325.921635 
L 115.663895 192.738695 
L 115.149817 192.738695 
z
" style="fill:#1f77b4;"/>
   </g>
   <g id="patch_96">
    <path clip-path="url(#p890ca11a20)" d="M 115.792414 325.921635 
L 116.306492 325.921635 
L 116.306492 185.413083 
L 115.792414 185.413083 
z
" style="fill:#1f77b4;"/>
   </g>
   <g id="patch_97">
    <path clip-path="url(#p890ca11a20)" d="M 116.435011 325.921635 
L 116.949089 325.921635 
L 116.949089 182.061084 
L 116.435011 182.061084 
z
" style="fill:#1f77b4;"/>
   </g>
   <g id="patch_98">
    <path clip-path="url(#p890ca11a20)" d="M 117.077608 325.921635 
L 117.591685 325.921635 
L 117.591685 179.965429 
L 117.077608 179.965429 
z
" style="fill:#1f77b4;"/>
   </g>
   <g id="patch_99">
    <path clip-path="url(#p890ca11a20)" d="M 117.720205 325.921635 
L 118.234282 325.921635 
L 118.234282 170.786775 
L 117.720205 170.786775 
z
" style="fill:#1f77b4;"/>
   </g>
   <g id="patch_100">
    <path clip-path="url(#p890ca11a20)" d="M 118.362802 325.921635 
L 118.876879 325.921635 
L 118.876879 163.983109 
L 118.362802 163.983109 
z
" style="fill:#1f77b4;"/>
   </g>
   <g id="patch_101">
    <path clip-path="url(#p890ca11a20)" d="M 119.005399 325.921635 
L 119.519476 325.921635 
L 119.519476 156.4857 
L 119.005399 156.4857 
z
" style="fill:#1f77b4;"/>
   </g>
   <g id="patch_102">
    <path clip-path="url(#p890ca11a20)" d="M 119.647996 325.921635 
L 120.162073 325.921635 
L 120.162073 149.449912 
L 119.647996 149.449912 
z
" style="fill:#1f77b4;"/>
   </g>
   <g id="patch_103">
    <path clip-path="url(#p890ca11a20)" d="M 120.290592 325.921635 
L 120.80467 325.921635 
L 120.80467 141.602353 
L 120.290592 141.602353 
z
" style="fill:#1f77b4;"/>
   </g>
   <g id="patch_104">
    <path clip-path="url(#p890ca11a20)" d="M 120.933189 325.921635 
L 121.447267 325.921635 
L 121.447267 138.29232 
L 120.933189 138.29232 
z
" style="fill:#1f77b4;"/>
   </g>
   <g id="patch_105">
    <path clip-path="url(#p890ca11a20)" d="M 121.575786 325.921635 
L 122.089864 325.921635 
L 122.089864 136.298956 
L 121.575786 136.298956 
z
" style="fill:#1f77b4;"/>
   </g>
   <g id="patch_106">
    <path clip-path="url(#p890ca11a20)" d="M 122.218383 325.921635 
L 122.732461 325.921635 
L 122.732461 129.027112 
L 122.218383 129.027112 
z
" style="fill:#1f77b4;"/>
   </g>
   <g id="patch_107">
    <path clip-path="url(#p890ca11a20)" d="M 122.86098 325.921635 
L 123.375058 325.921635 
L 123.375058 120.925136 
L 122.86098 120.925136 
z
" style="fill:#1f77b4;"/>
   </g>
   <g id="patch_108">
    <path clip-path="url(#p890ca11a20)" d="M 123.503577 325.921635 
L 124.017655 325.921635 
L 124.017655 112.789064 
L 123.503577 112.789064 
z
" style="fill:#1f77b4;"/>
   </g>
   <g id="patch_109">
    <path clip-path="url(#p890ca11a20)" d="M 124.146174 325.921635 
L 124.660252 325.921635 
L 124.660252 105.733605 
L 124.146174 105.733605 
z
" style="fill:#1f77b4;"/>
   </g>
   <g id="patch_110">
    <path clip-path="url(#p890ca11a20)" d="M 124.788771 325.921635 
L 125.302848 325.921635 
L 125.302848 99.209272 
L 124.788771 99.209272 
z
" style="fill:#1f77b4;"/>
   </g>
   <g id="patch_111">
    <path clip-path="url(#p890ca11a20)" d="M 125.431368 325.921635 
L 125.945445 325.921635 
L 125.945445 92.223318 
L 125.431368 92.223318 
z
" style="fill:#1f77b4;"/>
   </g>
   <g id="patch_112">
    <path clip-path="url(#p890ca11a20)" d="M 126.073965 325.921635 
L 126.588042 325.921635 
L 126.588042 87.9507 
L 126.073965 87.9507 
z
" style="fill:#1f77b4;"/>
   </g>
   <g id="patch_113">
    <path clip-path="url(#p890ca11a20)" d="M 126.716562 325.921635 
L 127.230639 325.921635 
L 127.230639 76.377386 
L 126.716562 76.377386 
z
" style="fill:#1f77b4;"/>
   </g>
   <g id="patch_114">
    <path clip-path="url(#p890ca11a20)" d="M 127.359159 325.921635 
L 127.873236 325.921635 
L 127.873236 74.761713 
L 127.359159 74.761713 
z
" style="fill:#1f77b4;"/>
   </g>
   <g id="patch_115">
    <path clip-path="url(#p890ca11a20)" d="M 128.001756 325.921635 
L 128.515833 325.921635 
L 128.515833 73.304721 
L 128.001756 73.304721 
z
" style="fill:#1f77b4;"/>
   </g>
   <g id="patch_116">
    <path clip-path="url(#p890ca11a20)" d="M 128.644352 325.921635 
L 129.15843 325.921635 
L 129.15843 48.348329 
L 128.644352 48.348329 
z
" style="fill:#1f77b4;"/>
   </g>
   <g id="patch_117">
    <path clip-path="url(#p890ca11a20)" d="M 129.286949 325.921635 
L 129.801027 325.921635 
L 129.801027 42.925592 
L 129.286949 42.925592 
z
" style="fill:#1f77b4;"/>
   </g>
   <g id="patch_118">
    <path clip-path="url(#p890ca11a20)" d="M 129.929546 325.921635 
L 130.443624 325.921635 
L 130.443624 38.477243 
L 129.929546 38.477243 
z
" style="fill:#1f77b4;"/>
   </g>
   <g id="matplotlib.axis_1">
    <g id="xtick_1">
     <g id="line2d_1">
      <defs>
       <path d="M 0 0 
L 0 3.5 
" id="mf1579491ba" style="stroke:#000000;stroke-width:0.8;"/>
      </defs>
      <g>
       <use style="stroke:#000000;stroke-width:0.8;" x="56.287939" xlink:href="#mf1579491ba" y="325.921635"/>
      </g>
     </g>
     <g id="text_1">
      <!-- 0 -->
      <defs>
       <path d="M 31.78125 66.40625 
Q 24.171875 66.40625 20.328125 58.90625 
Q 16.5 51.421875 16.5 36.375 
Q 16.5 21.390625 20.328125 13.890625 
Q 24.171875 6.390625 31.78125 6.390625 
Q 39.453125 6.390625 43.28125 13.890625 
Q 47.125 21.390625 47.125 36.375 
Q 47.125 51.421875 43.28125 58.90625 
Q 39.453125 66.40625 31.78125 66.40625 
z
M 31.78125 74.21875 
Q 44.046875 74.21875 50.515625 64.515625 
Q 56.984375 54.828125 56.984375 36.375 
Q 56.984375 17.96875 50.515625 8.265625 
Q 44.046875 -1.421875 31.78125 -1.421875 
Q 19.53125 -1.421875 13.0625 8.265625 
Q 6.59375 17.96875 6.59375 36.375 
Q 6.59375 54.828125 13.0625 64.515625 
Q 19.53125 74.21875 31.78125 74.21875 
z
" id="DejaVuSans-48"/>
      </defs>
      <g transform="translate(53.106689 340.520072)scale(0.1 -0.1)">
       <use xlink:href="#DejaVuSans-48"/>
      </g>
     </g>
    </g>
    <g id="xtick_2">
     <g id="line2d_2">
      <g>
       <use style="stroke:#000000;stroke-width:0.8;" x="120.547631" xlink:href="#mf1579491ba" y="325.921635"/>
      </g>
     </g>
     <g id="text_2">
      <!-- 100 -->
      <defs>
       <path d="M 12.40625 8.296875 
L 28.515625 8.296875 
L 28.515625 63.921875 
L 10.984375 60.40625 
L 10.984375 69.390625 
L 28.421875 72.90625 
L 38.28125 72.90625 
L 38.28125 8.296875 
L 54.390625 8.296875 
L 54.390625 0 
L 12.40625 0 
z
" id="DejaVuSans-49"/>
      </defs>
      <g transform="translate(111.003881 340.520072)scale(0.1 -0.1)">
       <use xlink:href="#DejaVuSans-49"/>
       <use x="63.623047" xlink:href="#DejaVuSans-48"/>
       <use x="127.246094" xlink:href="#DejaVuSans-48"/>
      </g>
     </g>
    </g>
   </g>
   <g id="matplotlib.axis_2">
    <g id="ytick_1">
     <g id="line2d_3">
      <defs>
       <path d="M 0 0 
L -3.5 0 
" id="m484bb2bc01" style="stroke:#000000;stroke-width:0.8;"/>
      </defs>
      <g>
       <use style="stroke:#000000;stroke-width:0.8;" x="52.310264" xlink:href="#m484bb2bc01" y="325.921635"/>
      </g>
     </g>
     <g id="text_3">
      <!-- 0 -->
      <g transform="translate(38.947764 329.720854)scale(0.1 -0.1)">
       <use xlink:href="#DejaVuSans-48"/>
      </g>
     </g>
    </g>
    <g id="ytick_2">
     <g id="line2d_4">
      <g>
       <use style="stroke:#000000;stroke-width:0.8;" x="52.310264" xlink:href="#m484bb2bc01" y="260.350453"/>
      </g>
     </g>
     <g id="text_4">
      <!-- 50000 -->
      <defs>
       <path d="M 10.796875 72.90625 
L 49.515625 72.90625 
L 49.515625 64.59375 
L 19.828125 64.59375 
L 19.828125 46.734375 
Q 21.96875 47.46875 24.109375 47.828125 
Q 26.265625 48.1875 28.421875 48.1875 
Q 40.625 48.1875 47.75 41.5 
Q 54.890625 34.8125 54.890625 23.390625 
Q 54.890625 11.625 47.5625 5.09375 
Q 40.234375 -1.421875 26.90625 -1.421875 
Q 22.3125 -1.421875 17.546875 -0.640625 
Q 12.796875 0.140625 7.71875 1.703125 
L 7.71875 11.625 
Q 12.109375 9.234375 16.796875 8.0625 
Q 21.484375 6.890625 26.703125 6.890625 
Q 35.15625 6.890625 40.078125 11.328125 
Q 45.015625 15.765625 45.015625 23.390625 
Q 45.015625 31 40.078125 35.4375 
Q 35.15625 39.890625 26.703125 39.890625 
Q 22.75 39.890625 18.8125 39.015625 
Q 14.890625 38.140625 10.796875 36.28125 
z
" id="DejaVuSans-53"/>
      </defs>
      <g transform="translate(13.497764 264.149671)scale(0.1 -0.1)">
       <use xlink:href="#DejaVuSans-53"/>
       <use x="63.623047" xlink:href="#DejaVuSans-48"/>
       <use x="127.246094" xlink:href="#DejaVuSans-48"/>
       <use x="190.869141" xlink:href="#DejaVuSans-48"/>
       <use x="254.492188" xlink:href="#DejaVuSans-48"/>
      </g>
     </g>
    </g>
    <g id="ytick_3">
     <g id="line2d_5">
      <g>
       <use style="stroke:#000000;stroke-width:0.8;" x="52.310264" xlink:href="#m484bb2bc01" y="194.77927"/>
      </g>
     </g>
     <g id="text_5">
      <!-- 100000 -->
      <g transform="translate(7.135264 198.578489)scale(0.1 -0.1)">
       <use xlink:href="#DejaVuSans-49"/>
       <use x="63.623047" xlink:href="#DejaVuSans-48"/>
       <use x="127.246094" xlink:href="#DejaVuSans-48"/>
       <use x="190.869141" xlink:href="#DejaVuSans-48"/>
       <use x="254.492188" xlink:href="#DejaVuSans-48"/>
       <use x="318.115234" xlink:href="#DejaVuSans-48"/>
      </g>
     </g>
    </g>
    <g id="ytick_4">
     <g id="line2d_6">
      <g>
       <use style="stroke:#000000;stroke-width:0.8;" x="52.310264" xlink:href="#m484bb2bc01" y="129.208088"/>
      </g>
     </g>
     <g id="text_6">
      <!-- 150000 -->
      <g transform="translate(7.135264 133.007307)scale(0.1 -0.1)">
       <use xlink:href="#DejaVuSans-49"/>
       <use x="63.623047" xlink:href="#DejaVuSans-53"/>
       <use x="127.246094" xlink:href="#DejaVuSans-48"/>
       <use x="190.869141" xlink:href="#DejaVuSans-48"/>
       <use x="254.492188" xlink:href="#DejaVuSans-48"/>
       <use x="318.115234" xlink:href="#DejaVuSans-48"/>
      </g>
     </g>
    </g>
    <g id="ytick_5">
     <g id="line2d_7">
      <g>
       <use style="stroke:#000000;stroke-width:0.8;" x="52.310264" xlink:href="#m484bb2bc01" y="63.636906"/>
      </g>
     </g>
     <g id="text_7">
      <!-- 200000 -->
      <defs>
       <path d="M 19.1875 8.296875 
L 53.609375 8.296875 
L 53.609375 0 
L 7.328125 0 
L 7.328125 8.296875 
Q 12.9375 14.109375 22.625 23.890625 
Q 32.328125 33.6875 34.8125 36.53125 
Q 39.546875 41.84375 41.421875 45.53125 
Q 43.3125 49.21875 43.3125 52.78125 
Q 43.3125 58.59375 39.234375 62.25 
Q 35.15625 65.921875 28.609375 65.921875 
Q 23.96875 65.921875 18.8125 64.3125 
Q 13.671875 62.703125 7.8125 59.421875 
L 7.8125 69.390625 
Q 13.765625 71.78125 18.9375 73 
Q 24.125 74.21875 28.421875 74.21875 
Q 39.75 74.21875 46.484375 68.546875 
Q 53.21875 62.890625 53.21875 53.421875 
Q 53.21875 48.921875 51.53125 44.890625 
Q 49.859375 40.875 45.40625 35.40625 
Q 44.1875 33.984375 37.640625 27.21875 
Q 31.109375 20.453125 19.1875 8.296875 
z
" id="DejaVuSans-50"/>
      </defs>
      <g transform="translate(7.135264 67.436125)scale(0.1 -0.1)">
       <use xlink:href="#DejaVuSans-50"/>
       <use x="63.623047" xlink:href="#DejaVuSans-48"/>
       <use x="127.246094" xlink:href="#DejaVuSans-48"/>
       <use x="190.869141" xlink:href="#DejaVuSans-48"/>
       <use x="254.492188" xlink:href="#DejaVuSans-48"/>
       <use x="318.115234" xlink:href="#DejaVuSans-48"/>
      </g>
     </g>
    </g>
   </g>
   <g id="line2d_8">
    <path clip-path="url(#p890ca11a20)" d="M 56.287939 325.919603 
L 56.930536 325.919017 
L 57.573133 325.918182 
L 58.21573 325.917052 
L 58.858327 325.91555 
L 59.500924 325.913556 
L 60.143521 325.910895 
L 60.786118 325.907333 
L 61.428715 325.902564 
L 62.071312 325.896201 
L 62.713908 325.887728 
L 63.356505 325.876484 
L 63.999102 325.861714 
L 64.641699 325.842537 
L 65.284296 325.817933 
L 65.926893 325.786841 
L 66.56949 325.748127 
L 67.212087 325.700689 
L 67.854684 325.643478 
L 68.497281 325.575617 
L 69.139878 325.496563 
L 69.782475 325.405771 
L 70.425071 325.302225 
L 71.067668 325.184447 
L 71.710265 325.050236 
L 72.352862 324.896656 
L 72.995459 324.719638 
L 73.638056 324.513652 
L 74.280653 324.272866 
L 74.92325 323.991982 
L 75.565847 323.66643 
L 76.208444 323.292823 
L 76.851041 322.869292 
L 77.493638 322.39583 
L 78.136235 321.874775 
L 78.778831 321.309775 
L 79.421428 320.705087 
L 80.064025 320.065641 
L 80.706622 319.396495 
L 81.349219 318.701698 
L 81.991816 317.984317 
L 82.634413 317.245851 
L 83.27701 316.485916 
L 83.919607 315.703622 
L 84.562204 314.896779 
L 85.204801 314.062768 
L 85.847398 313.199798 
L 86.489994 312.306542 
L 87.132591 311.38233 
L 87.775188 310.4274 
L 88.417785 309.439308 
L 89.060382 308.413026 
L 89.702979 307.339538 
L 90.345576 306.206927 
L 90.988173 305.00103 
L 91.63077 303.706497 
L 92.273367 302.308855 
L 92.915964 300.798416 
L 93.558561 299.172708 
L 94.201158 297.437924 
L 94.843754 295.604305 
L 95.486351 293.68519 
L 96.128948 291.694937 
L 96.771545 289.645945 
L 97.414142 287.548418 
L 98.056739 285.40635 
L 98.699336 283.21563 
L 99.341933 280.969711 
L 99.98453 278.660618 
L 100.627127 276.280677 
L 101.269724 273.822941 
L 101.912321 271.278353 
L 102.554917 268.638884 
L 103.197514 265.901606 
L 103.840111 263.064899 
L 104.482708 260.127649 
L 105.125305 257.088146 
L 105.767902 253.946767 
L 106.410499 250.708597 
L 107.053096 247.381121 
L 107.695693 243.967784 
L 108.33829 240.469006 
L 108.980887 236.882413 
L 109.623484 233.204068 
L 110.266081 229.422731 
L 110.908677 225.517238 
L 111.551274 221.460438 
L 112.193871 217.226337 
L 112.836468 212.791667 
L 113.479065 208.136813 
L 114.121662 203.244878 
L 114.764259 198.111636 
L 115.406856 192.748733 
L 116.049453 187.178606 
L 116.69205 181.429228 
L 117.334647 175.532677 
L 117.977244 169.522231 
L 118.619841 163.431482 
L 119.262437 157.282317 
L 119.905034 151.086202 
L 120.547631 144.850217 
L 121.190228 138.571561 
L 121.832825 132.236738 
L 122.475422 125.827785 
L 123.118019 119.316699 
L 123.760616 112.67828 
L 124.403213 105.880158 
L 125.04581 98.871911 
L 125.688407 91.609786 
L 126.331004 84.056016 
L 126.9736 76.188982 
L 127.616197 68.002306 
L 128.258794 59.491916 
L 128.901391 50.770149 
L 129.543988 41.858005 
L 130.186585 32.775664 
" style="fill:none;stroke:#ff0000;stroke-linecap:square;stroke-width:1.5;"/>
   </g>
   <g id="patch_119">
    <path d="M 52.310264 325.921635 
L 52.310264 18.118365 
" style="fill:none;stroke:#000000;stroke-linecap:square;stroke-linejoin:miter;stroke-width:0.8;"/>
   </g>
   <g id="patch_120">
    <path d="M 134.16426 325.921635 
L 134.16426 18.118365 
" style="fill:none;stroke:#000000;stroke-linecap:square;stroke-linejoin:miter;stroke-width:0.8;"/>
   </g>
   <g id="patch_121">
    <path d="M 52.310264 325.921635 
L 134.16426 325.921635 
" style="fill:none;stroke:#000000;stroke-linecap:square;stroke-linejoin:miter;stroke-width:0.8;"/>
   </g>
   <g id="patch_122">
    <path d="M 52.310264 18.118365 
L 134.16426 18.118365 
" style="fill:none;stroke:#000000;stroke-linecap:square;stroke-linejoin:miter;stroke-width:0.8;"/>
   </g>
   <g id="text_8">
    <!-- Casos acumulados - SP - (data) -->
    <defs>
     <path d="M 64.40625 67.28125 
L 64.40625 56.890625 
Q 59.421875 61.53125 53.78125 63.8125 
Q 48.140625 66.109375 41.796875 66.109375 
Q 29.296875 66.109375 22.65625 58.46875 
Q 16.015625 50.828125 16.015625 36.375 
Q 16.015625 21.96875 22.65625 14.328125 
Q 29.296875 6.6875 41.796875 6.6875 
Q 48.140625 6.6875 53.78125 8.984375 
Q 59.421875 11.28125 64.40625 15.921875 
L 64.40625 5.609375 
Q 59.234375 2.09375 53.4375 0.328125 
Q 47.65625 -1.421875 41.21875 -1.421875 
Q 24.65625 -1.421875 15.125 8.703125 
Q 5.609375 18.84375 5.609375 36.375 
Q 5.609375 53.953125 15.125 64.078125 
Q 24.65625 74.21875 41.21875 74.21875 
Q 47.75 74.21875 53.53125 72.484375 
Q 59.328125 70.75 64.40625 67.28125 
z
" id="DejaVuSans-67"/>
     <path d="M 34.28125 27.484375 
Q 23.390625 27.484375 19.1875 25 
Q 14.984375 22.515625 14.984375 16.5 
Q 14.984375 11.71875 18.140625 8.90625 
Q 21.296875 6.109375 26.703125 6.109375 
Q 34.1875 6.109375 38.703125 11.40625 
Q 43.21875 16.703125 43.21875 25.484375 
L 43.21875 27.484375 
z
M 52.203125 31.203125 
L 52.203125 0 
L 43.21875 0 
L 43.21875 8.296875 
Q 40.140625 3.328125 35.546875 0.953125 
Q 30.953125 -1.421875 24.3125 -1.421875 
Q 15.921875 -1.421875 10.953125 3.296875 
Q 6 8.015625 6 15.921875 
Q 6 25.140625 12.171875 29.828125 
Q 18.359375 34.515625 30.609375 34.515625 
L 43.21875 34.515625 
L 43.21875 35.40625 
Q 43.21875 41.609375 39.140625 45 
Q 35.0625 48.390625 27.6875 48.390625 
Q 23 48.390625 18.546875 47.265625 
Q 14.109375 46.140625 10.015625 43.890625 
L 10.015625 52.203125 
Q 14.9375 54.109375 19.578125 55.046875 
Q 24.21875 56 28.609375 56 
Q 40.484375 56 46.34375 49.84375 
Q 52.203125 43.703125 52.203125 31.203125 
z
" id="DejaVuSans-97"/>
     <path d="M 44.28125 53.078125 
L 44.28125 44.578125 
Q 40.484375 46.53125 36.375 47.5 
Q 32.28125 48.484375 27.875 48.484375 
Q 21.1875 48.484375 17.84375 46.4375 
Q 14.5 44.390625 14.5 40.28125 
Q 14.5 37.15625 16.890625 35.375 
Q 19.28125 33.59375 26.515625 31.984375 
L 29.59375 31.296875 
Q 39.15625 29.25 43.1875 25.515625 
Q 47.21875 21.78125 47.21875 15.09375 
Q 47.21875 7.46875 41.1875 3.015625 
Q 35.15625 -1.421875 24.609375 -1.421875 
Q 20.21875 -1.421875 15.453125 -0.5625 
Q 10.6875 0.296875 5.421875 2 
L 5.421875 11.28125 
Q 10.40625 8.6875 15.234375 7.390625 
Q 20.0625 6.109375 24.8125 6.109375 
Q 31.15625 6.109375 34.5625 8.28125 
Q 37.984375 10.453125 37.984375 14.40625 
Q 37.984375 18.0625 35.515625 20.015625 
Q 33.0625 21.96875 24.703125 23.78125 
L 21.578125 24.515625 
Q 13.234375 26.265625 9.515625 29.90625 
Q 5.8125 33.546875 5.8125 39.890625 
Q 5.8125 47.609375 11.28125 51.796875 
Q 16.75 56 26.8125 56 
Q 31.78125 56 36.171875 55.265625 
Q 40.578125 54.546875 44.28125 53.078125 
z
" id="DejaVuSans-115"/>
     <path d="M 30.609375 48.390625 
Q 23.390625 48.390625 19.1875 42.75 
Q 14.984375 37.109375 14.984375 27.296875 
Q 14.984375 17.484375 19.15625 11.84375 
Q 23.34375 6.203125 30.609375 6.203125 
Q 37.796875 6.203125 41.984375 11.859375 
Q 46.1875 17.53125 46.1875 27.296875 
Q 46.1875 37.015625 41.984375 42.703125 
Q 37.796875 48.390625 30.609375 48.390625 
z
M 30.609375 56 
Q 42.328125 56 49.015625 48.375 
Q 55.71875 40.765625 55.71875 27.296875 
Q 55.71875 13.875 49.015625 6.21875 
Q 42.328125 -1.421875 30.609375 -1.421875 
Q 18.84375 -1.421875 12.171875 6.21875 
Q 5.515625 13.875 5.515625 27.296875 
Q 5.515625 40.765625 12.171875 48.375 
Q 18.84375 56 30.609375 56 
z
" id="DejaVuSans-111"/>
     <path id="DejaVuSans-32"/>
     <path d="M 48.78125 52.59375 
L 48.78125 44.1875 
Q 44.96875 46.296875 41.140625 47.34375 
Q 37.3125 48.390625 33.40625 48.390625 
Q 24.65625 48.390625 19.8125 42.84375 
Q 14.984375 37.3125 14.984375 27.296875 
Q 14.984375 17.28125 19.8125 11.734375 
Q 24.65625 6.203125 33.40625 6.203125 
Q 37.3125 6.203125 41.140625 7.25 
Q 44.96875 8.296875 48.78125 10.40625 
L 48.78125 2.09375 
Q 45.015625 0.34375 40.984375 -0.53125 
Q 36.96875 -1.421875 32.421875 -1.421875 
Q 20.0625 -1.421875 12.78125 6.34375 
Q 5.515625 14.109375 5.515625 27.296875 
Q 5.515625 40.671875 12.859375 48.328125 
Q 20.21875 56 33.015625 56 
Q 37.15625 56 41.109375 55.140625 
Q 45.0625 54.296875 48.78125 52.59375 
z
" id="DejaVuSans-99"/>
     <path d="M 8.5 21.578125 
L 8.5 54.6875 
L 17.484375 54.6875 
L 17.484375 21.921875 
Q 17.484375 14.15625 20.5 10.265625 
Q 23.53125 6.390625 29.59375 6.390625 
Q 36.859375 6.390625 41.078125 11.03125 
Q 45.3125 15.671875 45.3125 23.6875 
L 45.3125 54.6875 
L 54.296875 54.6875 
L 54.296875 0 
L 45.3125 0 
L 45.3125 8.40625 
Q 42.046875 3.421875 37.71875 1 
Q 33.40625 -1.421875 27.6875 -1.421875 
Q 18.265625 -1.421875 13.375 4.4375 
Q 8.5 10.296875 8.5 21.578125 
z
M 31.109375 56 
z
" id="DejaVuSans-117"/>
     <path d="M 52 44.1875 
Q 55.375 50.25 60.0625 53.125 
Q 64.75 56 71.09375 56 
Q 79.640625 56 84.28125 50.015625 
Q 88.921875 44.046875 88.921875 33.015625 
L 88.921875 0 
L 79.890625 0 
L 79.890625 32.71875 
Q 79.890625 40.578125 77.09375 44.375 
Q 74.3125 48.1875 68.609375 48.1875 
Q 61.625 48.1875 57.5625 43.546875 
Q 53.515625 38.921875 53.515625 30.90625 
L 53.515625 0 
L 44.484375 0 
L 44.484375 32.71875 
Q 44.484375 40.625 41.703125 44.40625 
Q 38.921875 48.1875 33.109375 48.1875 
Q 26.21875 48.1875 22.15625 43.53125 
Q 18.109375 38.875 18.109375 30.90625 
L 18.109375 0 
L 9.078125 0 
L 9.078125 54.6875 
L 18.109375 54.6875 
L 18.109375 46.1875 
Q 21.1875 51.21875 25.484375 53.609375 
Q 29.78125 56 35.6875 56 
Q 41.65625 56 45.828125 52.96875 
Q 50 49.953125 52 44.1875 
z
" id="DejaVuSans-109"/>
     <path d="M 9.421875 75.984375 
L 18.40625 75.984375 
L 18.40625 0 
L 9.421875 0 
z
" id="DejaVuSans-108"/>
     <path d="M 45.40625 46.390625 
L 45.40625 75.984375 
L 54.390625 75.984375 
L 54.390625 0 
L 45.40625 0 
L 45.40625 8.203125 
Q 42.578125 3.328125 38.25 0.953125 
Q 33.9375 -1.421875 27.875 -1.421875 
Q 17.96875 -1.421875 11.734375 6.484375 
Q 5.515625 14.40625 5.515625 27.296875 
Q 5.515625 40.1875 11.734375 48.09375 
Q 17.96875 56 27.875 56 
Q 33.9375 56 38.25 53.625 
Q 42.578125 51.265625 45.40625 46.390625 
z
M 14.796875 27.296875 
Q 14.796875 17.390625 18.875 11.75 
Q 22.953125 6.109375 30.078125 6.109375 
Q 37.203125 6.109375 41.296875 11.75 
Q 45.40625 17.390625 45.40625 27.296875 
Q 45.40625 37.203125 41.296875 42.84375 
Q 37.203125 48.484375 30.078125 48.484375 
Q 22.953125 48.484375 18.875 42.84375 
Q 14.796875 37.203125 14.796875 27.296875 
z
" id="DejaVuSans-100"/>
     <path d="M 4.890625 31.390625 
L 31.203125 31.390625 
L 31.203125 23.390625 
L 4.890625 23.390625 
z
" id="DejaVuSans-45"/>
     <path d="M 53.515625 70.515625 
L 53.515625 60.890625 
Q 47.90625 63.578125 42.921875 64.890625 
Q 37.9375 66.21875 33.296875 66.21875 
Q 25.25 66.21875 20.875 63.09375 
Q 16.5 59.96875 16.5 54.203125 
Q 16.5 49.359375 19.40625 46.890625 
Q 22.3125 44.4375 30.421875 42.921875 
L 36.375 41.703125 
Q 47.40625 39.59375 52.65625 34.296875 
Q 57.90625 29 57.90625 20.125 
Q 57.90625 9.515625 50.796875 4.046875 
Q 43.703125 -1.421875 29.984375 -1.421875 
Q 24.8125 -1.421875 18.96875 -0.25 
Q 13.140625 0.921875 6.890625 3.21875 
L 6.890625 13.375 
Q 12.890625 10.015625 18.65625 8.296875 
Q 24.421875 6.59375 29.984375 6.59375 
Q 38.421875 6.59375 43.015625 9.90625 
Q 47.609375 13.234375 47.609375 19.390625 
Q 47.609375 24.75 44.3125 27.78125 
Q 41.015625 30.8125 33.5 32.328125 
L 27.484375 33.5 
Q 16.453125 35.6875 11.515625 40.375 
Q 6.59375 45.0625 6.59375 53.421875 
Q 6.59375 63.09375 13.40625 68.65625 
Q 20.21875 74.21875 32.171875 74.21875 
Q 37.3125 74.21875 42.625 73.28125 
Q 47.953125 72.359375 53.515625 70.515625 
z
" id="DejaVuSans-83"/>
     <path d="M 19.671875 64.796875 
L 19.671875 37.40625 
L 32.078125 37.40625 
Q 38.96875 37.40625 42.71875 40.96875 
Q 46.484375 44.53125 46.484375 51.125 
Q 46.484375 57.671875 42.71875 61.234375 
Q 38.96875 64.796875 32.078125 64.796875 
z
M 9.8125 72.90625 
L 32.078125 72.90625 
Q 44.34375 72.90625 50.609375 67.359375 
Q 56.890625 61.8125 56.890625 51.125 
Q 56.890625 40.328125 50.609375 34.8125 
Q 44.34375 29.296875 32.078125 29.296875 
L 19.671875 29.296875 
L 19.671875 0 
L 9.8125 0 
z
" id="DejaVuSans-80"/>
     <path d="M 31 75.875 
Q 24.46875 64.65625 21.28125 53.65625 
Q 18.109375 42.671875 18.109375 31.390625 
Q 18.109375 20.125 21.3125 9.0625 
Q 24.515625 -2 31 -13.1875 
L 23.1875 -13.1875 
Q 15.875 -1.703125 12.234375 9.375 
Q 8.59375 20.453125 8.59375 31.390625 
Q 8.59375 42.28125 12.203125 53.3125 
Q 15.828125 64.359375 23.1875 75.875 
z
" id="DejaVuSans-40"/>
     <path d="M 18.3125 70.21875 
L 18.3125 54.6875 
L 36.8125 54.6875 
L 36.8125 47.703125 
L 18.3125 47.703125 
L 18.3125 18.015625 
Q 18.3125 11.328125 20.140625 9.421875 
Q 21.96875 7.515625 27.59375 7.515625 
L 36.8125 7.515625 
L 36.8125 0 
L 27.59375 0 
Q 17.1875 0 13.234375 3.875 
Q 9.28125 7.765625 9.28125 18.015625 
L 9.28125 47.703125 
L 2.6875 47.703125 
L 2.6875 54.6875 
L 9.28125 54.6875 
L 9.28125 70.21875 
z
" id="DejaVuSans-116"/>
     <path d="M 8.015625 75.875 
L 15.828125 75.875 
Q 23.140625 64.359375 26.78125 53.3125 
Q 30.421875 42.28125 30.421875 31.390625 
Q 30.421875 20.453125 26.78125 9.375 
Q 23.140625 -1.703125 15.828125 -13.1875 
L 8.015625 -13.1875 
Q 14.5 -2 17.703125 9.0625 
Q 20.90625 20.125 20.90625 31.390625 
Q 20.90625 42.671875 17.703125 53.65625 
Q 14.5 64.65625 8.015625 75.875 
z
" id="DejaVuSans-41"/>
    </defs>
    <g transform="translate(-0.4143 12.118365)scale(0.12 -0.12)">
     <use xlink:href="#DejaVuSans-67"/>
     <use x="69.824219" xlink:href="#DejaVuSans-97"/>
     <use x="131.103516" xlink:href="#DejaVuSans-115"/>
     <use x="183.203125" xlink:href="#DejaVuSans-111"/>
     <use x="244.384766" xlink:href="#DejaVuSans-115"/>
     <use x="296.484375" xlink:href="#DejaVuSans-32"/>
     <use x="328.271484" xlink:href="#DejaVuSans-97"/>
     <use x="389.550781" xlink:href="#DejaVuSans-99"/>
     <use x="444.53125" xlink:href="#DejaVuSans-117"/>
     <use x="507.910156" xlink:href="#DejaVuSans-109"/>
     <use x="605.322266" xlink:href="#DejaVuSans-117"/>
     <use x="668.701172" xlink:href="#DejaVuSans-108"/>
     <use x="696.484375" xlink:href="#DejaVuSans-97"/>
     <use x="757.763672" xlink:href="#DejaVuSans-100"/>
     <use x="821.240234" xlink:href="#DejaVuSans-111"/>
     <use x="882.421875" xlink:href="#DejaVuSans-115"/>
     <use x="934.521484" xlink:href="#DejaVuSans-32"/>
     <use x="966.308594" xlink:href="#DejaVuSans-45"/>
     <use x="1002.392578" xlink:href="#DejaVuSans-32"/>
     <use x="1034.179688" xlink:href="#DejaVuSans-83"/>
     <use x="1097.65625" xlink:href="#DejaVuSans-80"/>
     <use x="1157.958984" xlink:href="#DejaVuSans-32"/>
     <use x="1189.746094" xlink:href="#DejaVuSans-45"/>
     <use x="1225.830078" xlink:href="#DejaVuSans-32"/>
     <use x="1257.617188" xlink:href="#DejaVuSans-40"/>
     <use x="1296.630859" xlink:href="#DejaVuSans-100"/>
     <use x="1360.107422" xlink:href="#DejaVuSans-97"/>
     <use x="1421.386719" xlink:href="#DejaVuSans-116"/>
     <use x="1460.595703" xlink:href="#DejaVuSans-97"/>
     <use x="1521.875" xlink:href="#DejaVuSans-41"/>
    </g>
   </g>
  </g>
  <g id="axes_2">
   <g id="patch_123">
    <path d="M 231.359264 325.921635 
L 313.21326 325.921635 
L 313.21326 18.118365 
L 231.359264 18.118365 
z
" style="fill:#ffffff;"/>
   </g>
   <g id="patch_124">
    <path clip-path="url(#pa85f60b3ff)" d="M 235.0799 325.921635 
L 235.593978 325.921635 
L 235.593978 325.921635 
L 235.0799 325.921635 
z
" style="fill:#1f77b4;"/>
   </g>
   <g id="patch_125">
    <path clip-path="url(#pa85f60b3ff)" d="M 235.722497 325.921635 
L 236.236575 325.921635 
L 236.236575 325.921635 
L 235.722497 325.921635 
z
" style="fill:#1f77b4;"/>
   </g>
   <g id="patch_126">
    <path clip-path="url(#pa85f60b3ff)" d="M 236.365094 325.921635 
L 236.879172 325.921635 
L 236.879172 325.906231 
L 236.365094 325.906231 
z
" style="fill:#1f77b4;"/>
   </g>
   <g id="patch_127">
    <path clip-path="url(#pa85f60b3ff)" d="M 237.007691 325.921635 
L 237.521769 325.921635 
L 237.521769 325.921635 
L 237.007691 325.921635 
z
" style="fill:#1f77b4;"/>
   </g>
   <g id="patch_128">
    <path clip-path="url(#pa85f60b3ff)" d="M 237.650288 325.921635 
L 238.164366 325.921635 
L 238.164366 325.921635 
L 237.650288 325.921635 
z
" style="fill:#1f77b4;"/>
   </g>
   <g id="patch_129">
    <path clip-path="url(#pa85f60b3ff)" d="M 238.292885 325.921635 
L 238.806963 325.921635 
L 238.806963 325.921635 
L 238.292885 325.921635 
z
" style="fill:#1f77b4;"/>
   </g>
   <g id="patch_130">
    <path clip-path="url(#pa85f60b3ff)" d="M 238.935482 325.921635 
L 239.44956 325.921635 
L 239.44956 325.906231 
L 238.935482 325.906231 
z
" style="fill:#1f77b4;"/>
   </g>
   <g id="patch_131">
    <path clip-path="url(#pa85f60b3ff)" d="M 239.578079 325.921635 
L 240.092156 325.921635 
L 240.092156 325.875422 
L 239.578079 325.875422 
z
" style="fill:#1f77b4;"/>
   </g>
   <g id="patch_132">
    <path clip-path="url(#pa85f60b3ff)" d="M 240.220676 325.921635 
L 240.734753 325.921635 
L 240.734753 325.860017 
L 240.220676 325.860017 
z
" style="fill:#1f77b4;"/>
   </g>
   <g id="patch_133">
    <path clip-path="url(#pa85f60b3ff)" d="M 240.863273 325.921635 
L 241.37735 325.921635 
L 241.37735 325.875422 
L 240.863273 325.875422 
z
" style="fill:#1f77b4;"/>
   </g>
   <g id="patch_134">
    <path clip-path="url(#pa85f60b3ff)" d="M 241.50587 325.921635 
L 242.019947 325.921635 
L 242.019947 325.875422 
L 241.50587 325.875422 
z
" style="fill:#1f77b4;"/>
   </g>
   <g id="patch_135">
    <path clip-path="url(#pa85f60b3ff)" d="M 242.148467 325.921635 
L 242.662544 325.921635 
L 242.662544 325.921635 
L 242.148467 325.921635 
z
" style="fill:#1f77b4;"/>
   </g>
   <g id="patch_136">
    <path clip-path="url(#pa85f60b3ff)" d="M 242.791064 325.921635 
L 243.305141 325.921635 
L 243.305141 325.875422 
L 242.791064 325.875422 
z
" style="fill:#1f77b4;"/>
   </g>
   <g id="patch_137">
    <path clip-path="url(#pa85f60b3ff)" d="M 243.43366 325.921635 
L 243.947738 325.921635 
L 243.947738 325.752186 
L 243.43366 325.752186 
z
" style="fill:#1f77b4;"/>
   </g>
   <g id="patch_138">
    <path clip-path="url(#pa85f60b3ff)" d="M 244.076257 325.921635 
L 244.590335 325.921635 
L 244.590335 325.736782 
L 244.076257 325.736782 
z
" style="fill:#1f77b4;"/>
   </g>
   <g id="patch_139">
    <path clip-path="url(#pa85f60b3ff)" d="M 244.718854 325.921635 
L 245.232932 325.921635 
L 245.232932 325.705973 
L 244.718854 325.705973 
z
" style="fill:#1f77b4;"/>
   </g>
   <g id="patch_140">
    <path clip-path="url(#pa85f60b3ff)" d="M 245.361451 325.921635 
L 245.875529 325.921635 
L 245.875529 325.782995 
L 245.361451 325.782995 
z
" style="fill:#1f77b4;"/>
   </g>
   <g id="patch_141">
    <path clip-path="url(#pa85f60b3ff)" d="M 246.004048 325.921635 
L 246.518126 325.921635 
L 246.518126 324.827922 
L 246.004048 324.827922 
z
" style="fill:#1f77b4;"/>
   </g>
   <g id="patch_142">
    <path clip-path="url(#pa85f60b3ff)" d="M 246.646645 325.921635 
L 247.160723 325.921635 
L 247.160723 325.675164 
L 246.646645 325.675164 
z
" style="fill:#1f77b4;"/>
   </g>
   <g id="patch_143">
    <path clip-path="url(#pa85f60b3ff)" d="M 247.289242 325.921635 
L 247.803319 325.921635 
L 247.803319 325.736782 
L 247.289242 325.736782 
z
" style="fill:#1f77b4;"/>
   </g>
   <g id="patch_144">
    <path clip-path="url(#pa85f60b3ff)" d="M 247.931839 325.921635 
L 248.445916 325.921635 
L 248.445916 324.7509 
L 247.931839 324.7509 
z
" style="fill:#1f77b4;"/>
   </g>
   <g id="patch_145">
    <path clip-path="url(#pa85f60b3ff)" d="M 248.574436 325.921635 
L 249.088513 325.921635 
L 249.088513 325.213032 
L 248.574436 325.213032 
z
" style="fill:#1f77b4;"/>
   </g>
   <g id="patch_146">
    <path clip-path="url(#pa85f60b3ff)" d="M 249.217033 325.921635 
L 249.73111 325.921635 
L 249.73111 324.22715 
L 249.217033 324.22715 
z
" style="fill:#1f77b4;"/>
   </g>
   <g id="patch_147">
    <path clip-path="url(#pa85f60b3ff)" d="M 249.85963 325.921635 
L 250.373707 325.921635 
L 250.373707 324.951157 
L 249.85963 324.951157 
z
" style="fill:#1f77b4;"/>
   </g>
   <g id="patch_148">
    <path clip-path="url(#pa85f60b3ff)" d="M 250.502227 325.921635 
L 251.016304 325.921635 
L 251.016304 323.272076 
L 250.502227 323.272076 
z
" style="fill:#1f77b4;"/>
   </g>
   <g id="patch_149">
    <path clip-path="url(#pa85f60b3ff)" d="M 251.144823 325.921635 
L 251.658901 325.921635 
L 251.658901 324.165532 
L 251.144823 324.165532 
z
" style="fill:#1f77b4;"/>
   </g>
   <g id="patch_150">
    <path clip-path="url(#pa85f60b3ff)" d="M 251.78742 325.921635 
L 252.301498 325.921635 
L 252.301498 324.920348 
L 251.78742 324.920348 
z
" style="fill:#1f77b4;"/>
   </g>
   <g id="patch_151">
    <path clip-path="url(#pa85f60b3ff)" d="M 252.430017 325.921635 
L 252.944095 325.921635 
L 252.944095 325.120606 
L 252.430017 325.120606 
z
" style="fill:#1f77b4;"/>
   </g>
   <g id="patch_152">
    <path clip-path="url(#pa85f60b3ff)" d="M 253.072614 325.921635 
L 253.586692 325.921635 
L 253.586692 322.994797 
L 253.072614 322.994797 
z
" style="fill:#1f77b4;"/>
   </g>
   <g id="patch_153">
    <path clip-path="url(#pa85f60b3ff)" d="M 253.715211 325.921635 
L 254.229289 325.921635 
L 254.229289 323.28748 
L 253.715211 323.28748 
z
" style="fill:#1f77b4;"/>
   </g>
   <g id="patch_154">
    <path clip-path="url(#pa85f60b3ff)" d="M 254.357808 325.921635 
L 254.871886 325.921635 
L 254.871886 323.102627 
L 254.357808 323.102627 
z
" style="fill:#1f77b4;"/>
   </g>
   <g id="patch_155">
    <path clip-path="url(#pa85f60b3ff)" d="M 255.000405 325.921635 
L 255.514483 325.921635 
L 255.514483 325.228436 
L 255.000405 325.228436 
z
" style="fill:#1f77b4;"/>
   </g>
   <g id="patch_156">
    <path clip-path="url(#pa85f60b3ff)" d="M 255.643002 325.921635 
L 256.157079 325.921635 
L 256.157079 324.904944 
L 255.643002 324.904944 
z
" style="fill:#1f77b4;"/>
   </g>
   <g id="patch_157">
    <path clip-path="url(#pa85f60b3ff)" d="M 256.285599 325.921635 
L 256.799676 325.921635 
L 256.799676 313.259208 
L 256.285599 313.259208 
z
" style="fill:#1f77b4;"/>
   </g>
   <g id="patch_158">
    <path clip-path="url(#pa85f60b3ff)" d="M 256.928196 325.921635 
L 257.442273 325.921635 
L 257.442273 316.032002 
L 256.928196 316.032002 
z
" style="fill:#1f77b4;"/>
   </g>
   <g id="patch_159">
    <path clip-path="url(#pa85f60b3ff)" d="M 257.570793 325.921635 
L 258.08487 325.921635 
L 258.08487 317.834318 
L 257.570793 317.834318 
z
" style="fill:#1f77b4;"/>
   </g>
   <g id="patch_160">
    <path clip-path="url(#pa85f60b3ff)" d="M 258.21339 325.921635 
L 258.727467 325.921635 
L 258.727467 317.572443 
L 258.21339 317.572443 
z
" style="fill:#1f77b4;"/>
   </g>
   <g id="patch_161">
    <path clip-path="url(#pa85f60b3ff)" d="M 258.855987 325.921635 
L 259.370064 325.921635 
L 259.370064 319.482591 
L 258.855987 319.482591 
z
" style="fill:#1f77b4;"/>
   </g>
   <g id="patch_162">
    <path clip-path="url(#pa85f60b3ff)" d="M 259.498583 325.921635 
L 260.012661 325.921635 
L 260.012661 323.549355 
L 259.498583 323.549355 
z
" style="fill:#1f77b4;"/>
   </g>
   <g id="patch_163">
    <path clip-path="url(#pa85f60b3ff)" d="M 260.14118 325.921635 
L 260.655258 325.921635 
L 260.655258 322.13215 
L 260.14118 322.13215 
z
" style="fill:#1f77b4;"/>
   </g>
   <g id="patch_164">
    <path clip-path="url(#pa85f60b3ff)" d="M 260.783777 325.921635 
L 261.297855 325.921635 
L 261.297855 313.351634 
L 260.783777 313.351634 
z
" style="fill:#1f77b4;"/>
   </g>
   <g id="patch_165">
    <path clip-path="url(#pa85f60b3ff)" d="M 261.426374 325.921635 
L 261.940452 325.921635 
L 261.940452 310.116708 
L 261.426374 310.116708 
z
" style="fill:#1f77b4;"/>
   </g>
   <g id="patch_166">
    <path clip-path="url(#pa85f60b3ff)" d="M 262.068971 325.921635 
L 262.583049 325.921635 
L 262.583049 314.029428 
L 262.068971 314.029428 
z
" style="fill:#1f77b4;"/>
   </g>
   <g id="patch_167">
    <path clip-path="url(#pa85f60b3ff)" d="M 262.711568 325.921635 
L 263.225646 325.921635 
L 263.225646 314.583987 
L 262.711568 314.583987 
z
" style="fill:#1f77b4;"/>
   </g>
   <g id="patch_168">
    <path clip-path="url(#pa85f60b3ff)" d="M 263.354165 325.921635 
L 263.868243 325.921635 
L 263.868243 322.794539 
L 263.354165 322.794539 
z
" style="fill:#1f77b4;"/>
   </g>
   <g id="patch_169">
    <path clip-path="url(#pa85f60b3ff)" d="M 263.996762 325.921635 
L 264.510839 325.921635 
L 264.510839 320.745752 
L 263.996762 320.745752 
z
" style="fill:#1f77b4;"/>
   </g>
   <g id="patch_170">
    <path clip-path="url(#pa85f60b3ff)" d="M 264.639359 325.921635 
L 265.153436 325.921635 
L 265.153436 323.765017 
L 264.639359 323.765017 
z
" style="fill:#1f77b4;"/>
   </g>
   <g id="patch_171">
    <path clip-path="url(#pa85f60b3ff)" d="M 265.281956 325.921635 
L 265.796033 325.921635 
L 265.796033 318.589135 
L 265.281956 318.589135 
z
" style="fill:#1f77b4;"/>
   </g>
   <g id="patch_172">
    <path clip-path="url(#pa85f60b3ff)" d="M 265.924553 325.921635 
L 266.43863 325.921635 
L 266.43863 300.165457 
L 265.924553 300.165457 
z
" style="fill:#1f77b4;"/>
   </g>
   <g id="patch_173">
    <path clip-path="url(#pa85f60b3ff)" d="M 266.56715 325.921635 
L 267.081227 325.921635 
L 267.081227 317.834318 
L 266.56715 317.834318 
z
" style="fill:#1f77b4;"/>
   </g>
   <g id="patch_174">
    <path clip-path="url(#pa85f60b3ff)" d="M 267.209746 325.921635 
L 267.723824 325.921635 
L 267.723824 306.311818 
L 267.209746 306.311818 
z
" style="fill:#1f77b4;"/>
   </g>
   <g id="patch_175">
    <path clip-path="url(#pa85f60b3ff)" d="M 267.852343 325.921635 
L 268.366421 325.921635 
L 268.366421 309.700789 
L 267.852343 309.700789 
z
" style="fill:#1f77b4;"/>
   </g>
   <g id="patch_176">
    <path clip-path="url(#pa85f60b3ff)" d="M 268.49494 325.921635 
L 269.009018 325.921635 
L 269.009018 320.175789 
L 268.49494 320.175789 
z
" style="fill:#1f77b4;"/>
   </g>
   <g id="patch_177">
    <path clip-path="url(#pa85f60b3ff)" d="M 269.137537 325.921635 
L 269.651615 325.921635 
L 269.651615 321.100054 
L 269.137537 321.100054 
z
" style="fill:#1f77b4;"/>
   </g>
   <g id="patch_178">
    <path clip-path="url(#pa85f60b3ff)" d="M 269.780134 325.921635 
L 270.294212 325.921635 
L 270.294212 313.521083 
L 269.780134 313.521083 
z
" style="fill:#1f77b4;"/>
   </g>
   <g id="patch_179">
    <path clip-path="url(#pa85f60b3ff)" d="M 270.422731 325.921635 
L 270.936809 325.921635 
L 270.936809 317.772701 
L 270.422731 317.772701 
z
" style="fill:#1f77b4;"/>
   </g>
   <g id="patch_180">
    <path clip-path="url(#pa85f60b3ff)" d="M 271.065328 325.921635 
L 271.579406 325.921635 
L 271.579406 313.19759 
L 271.065328 313.19759 
z
" style="fill:#1f77b4;"/>
   </g>
   <g id="patch_181">
    <path clip-path="url(#pa85f60b3ff)" d="M 271.707925 325.921635 
L 272.222002 325.921635 
L 272.222002 309.192443 
L 271.707925 309.192443 
z
" style="fill:#1f77b4;"/>
   </g>
   <g id="patch_182">
    <path clip-path="url(#pa85f60b3ff)" d="M 272.350522 325.921635 
L 272.864599 325.921635 
L 272.864599 292.370824 
L 272.350522 292.370824 
z
" style="fill:#1f77b4;"/>
   </g>
   <g id="patch_183">
    <path clip-path="url(#pa85f60b3ff)" d="M 272.993119 325.921635 
L 273.507196 325.921635 
L 273.507196 314.969098 
L 272.993119 314.969098 
z
" style="fill:#1f77b4;"/>
   </g>
   <g id="patch_184">
    <path clip-path="url(#pa85f60b3ff)" d="M 273.635716 325.921635 
L 274.149793 325.921635 
L 274.149793 310.809906 
L 273.635716 310.809906 
z
" style="fill:#1f77b4;"/>
   </g>
   <g id="patch_185">
    <path clip-path="url(#pa85f60b3ff)" d="M 274.278313 325.921635 
L 274.79239 325.921635 
L 274.79239 289.798287 
L 274.278313 289.798287 
z
" style="fill:#1f77b4;"/>
   </g>
   <g id="patch_186">
    <path clip-path="url(#pa85f60b3ff)" d="M 274.92091 325.921635 
L 275.434987 325.921635 
L 275.434987 293.310494 
L 274.92091 293.310494 
z
" style="fill:#1f77b4;"/>
   </g>
   <g id="patch_187">
    <path clip-path="url(#pa85f60b3ff)" d="M 275.563506 325.921635 
L 276.077584 325.921635 
L 276.077584 286.794427 
L 275.563506 286.794427 
z
" style="fill:#1f77b4;"/>
   </g>
   <g id="patch_188">
    <path clip-path="url(#pa85f60b3ff)" d="M 276.206103 325.921635 
L 276.720181 325.921635 
L 276.720181 300.10384 
L 276.206103 300.10384 
z
" style="fill:#1f77b4;"/>
   </g>
   <g id="patch_189">
    <path clip-path="url(#pa85f60b3ff)" d="M 276.8487 325.921635 
L 277.362778 325.921635 
L 277.362778 313.598105 
L 276.8487 313.598105 
z
" style="fill:#1f77b4;"/>
   </g>
   <g id="patch_190">
    <path clip-path="url(#pa85f60b3ff)" d="M 277.491297 325.921635 
L 278.005375 325.921635 
L 278.005375 316.709796 
L 277.491297 316.709796 
z
" style="fill:#1f77b4;"/>
   </g>
   <g id="patch_191">
    <path clip-path="url(#pa85f60b3ff)" d="M 278.133894 325.921635 
L 278.647972 325.921635 
L 278.647972 319.528804 
L 278.133894 319.528804 
z
" style="fill:#1f77b4;"/>
   </g>
   <g id="patch_192">
    <path clip-path="url(#pa85f60b3ff)" d="M 278.776491 325.921635 
L 279.290569 325.921635 
L 279.290569 297.177001 
L 278.776491 297.177001 
z
" style="fill:#1f77b4;"/>
   </g>
   <g id="patch_193">
    <path clip-path="url(#pa85f60b3ff)" d="M 279.419088 325.921635 
L 279.933166 325.921635 
L 279.933166 267.384867 
L 279.419088 267.384867 
z
" style="fill:#1f77b4;"/>
   </g>
   <g id="patch_194">
    <path clip-path="url(#pa85f60b3ff)" d="M 280.061685 325.921635 
L 280.575762 325.921635 
L 280.575762 293.957479 
L 280.061685 293.957479 
z
" style="fill:#1f77b4;"/>
   </g>
   <g id="patch_195">
    <path clip-path="url(#pa85f60b3ff)" d="M 280.704282 325.921635 
L 281.218359 325.921635 
L 281.218359 296.622442 
L 280.704282 296.622442 
z
" style="fill:#1f77b4;"/>
   </g>
   <g id="patch_196">
    <path clip-path="url(#pa85f60b3ff)" d="M 281.346879 325.921635 
L 281.860956 325.921635 
L 281.860956 286.162846 
L 281.346879 286.162846 
z
" style="fill:#1f77b4;"/>
   </g>
   <g id="patch_197">
    <path clip-path="url(#pa85f60b3ff)" d="M 281.989476 325.921635 
L 282.503553 325.921635 
L 282.503553 310.008877 
L 281.989476 310.008877 
z
" style="fill:#1f77b4;"/>
   </g>
   <g id="patch_198">
    <path clip-path="url(#pa85f60b3ff)" d="M 282.632073 325.921635 
L 283.14615 325.921635 
L 283.14615 315.338804 
L 282.632073 315.338804 
z
" style="fill:#1f77b4;"/>
   </g>
   <g id="patch_199">
    <path clip-path="url(#pa85f60b3ff)" d="M 283.274669 325.921635 
L 283.788747 325.921635 
L 283.788747 301.459428 
L 283.274669 301.459428 
z
" style="fill:#1f77b4;"/>
   </g>
   <g id="patch_200">
    <path clip-path="url(#pa85f60b3ff)" d="M 283.917266 325.921635 
L 284.431344 325.921635 
L 284.431344 273.885529 
L 283.917266 273.885529 
z
" style="fill:#1f77b4;"/>
   </g>
   <g id="patch_201">
    <path clip-path="url(#pa85f60b3ff)" d="M 284.559863 325.921635 
L 285.073941 325.921635 
L 285.073941 276.796963 
L 284.559863 276.796963 
z
" style="fill:#1f77b4;"/>
   </g>
   <g id="patch_202">
    <path clip-path="url(#pa85f60b3ff)" d="M 285.20246 325.921635 
L 285.716538 325.921635 
L 285.716538 262.886779 
L 285.20246 262.886779 
z
" style="fill:#1f77b4;"/>
   </g>
   <g id="patch_203">
    <path clip-path="url(#pa85f60b3ff)" d="M 285.845057 325.921635 
L 286.359135 325.921635 
L 286.359135 282.712258 
L 285.845057 282.712258 
z
" style="fill:#1f77b4;"/>
   </g>
   <g id="patch_204">
    <path clip-path="url(#pa85f60b3ff)" d="M 286.487654 325.921635 
L 287.001732 325.921635 
L 287.001732 308.021708 
L 286.487654 308.021708 
z
" style="fill:#1f77b4;"/>
   </g>
   <g id="patch_205">
    <path clip-path="url(#pa85f60b3ff)" d="M 287.130251 325.921635 
L 287.644329 325.921635 
L 287.644329 314.815054 
L 287.130251 314.815054 
z
" style="fill:#1f77b4;"/>
   </g>
   <g id="patch_206">
    <path clip-path="url(#pa85f60b3ff)" d="M 287.772848 325.921635 
L 288.286925 325.921635 
L 288.286925 280.802111 
L 287.772848 280.802111 
z
" style="fill:#1f77b4;"/>
   </g>
   <g id="patch_207">
    <path clip-path="url(#pa85f60b3ff)" d="M 288.415445 325.921635 
L 288.929522 325.921635 
L 288.929522 266.398985 
L 288.415445 266.398985 
z
" style="fill:#1f77b4;"/>
   </g>
   <g id="patch_208">
    <path clip-path="url(#pa85f60b3ff)" d="M 289.058042 325.921635 
L 289.572119 325.921635 
L 289.572119 266.152514 
L 289.058042 266.152514 
z
" style="fill:#1f77b4;"/>
   </g>
   <g id="patch_209">
    <path clip-path="url(#pa85f60b3ff)" d="M 289.700639 325.921635 
L 290.214716 325.921635 
L 290.214716 277.675015 
L 289.700639 277.675015 
z
" style="fill:#1f77b4;"/>
   </g>
   <g id="patch_210">
    <path clip-path="url(#pa85f60b3ff)" d="M 290.343236 325.921635 
L 290.857313 325.921635 
L 290.857313 269.125566 
L 290.343236 269.125566 
z
" style="fill:#1f77b4;"/>
   </g>
   <g id="patch_211">
    <path clip-path="url(#pa85f60b3ff)" d="M 290.985833 325.921635 
L 291.49991 325.921635 
L 291.49991 301.228362 
L 290.985833 301.228362 
z
" style="fill:#1f77b4;"/>
   </g>
   <g id="patch_212">
    <path clip-path="url(#pa85f60b3ff)" d="M 291.628429 325.921635 
L 292.142507 325.921635 
L 292.142507 303.369575 
L 291.628429 303.369575 
z
" style="fill:#1f77b4;"/>
   </g>
   <g id="patch_213">
    <path clip-path="url(#pa85f60b3ff)" d="M 292.271026 325.921635 
L 292.785104 325.921635 
L 292.785104 289.07428 
L 292.271026 289.07428 
z
" style="fill:#1f77b4;"/>
   </g>
   <g id="patch_214">
    <path clip-path="url(#pa85f60b3ff)" d="M 292.913623 325.921635 
L 293.427701 325.921635 
L 293.427701 272.529941 
L 292.913623 272.529941 
z
" style="fill:#1f77b4;"/>
   </g>
   <g id="patch_215">
    <path clip-path="url(#pa85f60b3ff)" d="M 293.55622 325.921635 
L 294.070298 325.921635 
L 294.070298 227.610674 
L 293.55622 227.610674 
z
" style="fill:#1f77b4;"/>
   </g>
   <g id="patch_216">
    <path clip-path="url(#pa85f60b3ff)" d="M 294.198817 325.921635 
L 294.712895 325.921635 
L 294.712895 238.255123 
L 294.198817 238.255123 
z
" style="fill:#1f77b4;"/>
   </g>
   <g id="patch_217">
    <path clip-path="url(#pa85f60b3ff)" d="M 294.841414 325.921635 
L 295.355492 325.921635 
L 295.355492 239.872586 
L 294.841414 239.872586 
z
" style="fill:#1f77b4;"/>
   </g>
   <g id="patch_218">
    <path clip-path="url(#pa85f60b3ff)" d="M 295.484011 325.921635 
L 295.998089 325.921635 
L 295.998089 286.547956 
L 295.484011 286.547956 
z
" style="fill:#1f77b4;"/>
   </g>
   <g id="patch_219">
    <path clip-path="url(#pa85f60b3ff)" d="M 296.126608 325.921635 
L 296.640685 325.921635 
L 296.640685 301.305384 
L 296.126608 301.305384 
z
" style="fill:#1f77b4;"/>
   </g>
   <g id="patch_220">
    <path clip-path="url(#pa85f60b3ff)" d="M 296.769205 325.921635 
L 297.283282 325.921635 
L 297.283282 218.106151 
L 296.769205 218.106151 
z
" style="fill:#1f77b4;"/>
   </g>
   <g id="patch_221">
    <path clip-path="url(#pa85f60b3ff)" d="M 297.411802 325.921635 
L 297.925879 325.921635 
L 297.925879 246.003543 
L 297.411802 246.003543 
z
" style="fill:#1f77b4;"/>
   </g>
   <g id="patch_222">
    <path clip-path="url(#pa85f60b3ff)" d="M 298.054399 325.921635 
L 298.568476 325.921635 
L 298.568476 237.854608 
L 298.054399 237.854608 
z
" style="fill:#1f77b4;"/>
   </g>
   <g id="patch_223">
    <path clip-path="url(#pa85f60b3ff)" d="M 298.696996 325.921635 
L 299.211073 325.921635 
L 299.211073 243.276961 
L 298.696996 243.276961 
z
" style="fill:#1f77b4;"/>
   </g>
   <g id="patch_224">
    <path clip-path="url(#pa85f60b3ff)" d="M 299.339592 325.921635 
L 299.85367 325.921635 
L 299.85367 233.74163 
L 299.339592 233.74163 
z
" style="fill:#1f77b4;"/>
   </g>
   <g id="patch_225">
    <path clip-path="url(#pa85f60b3ff)" d="M 299.982189 325.921635 
L 300.496267 325.921635 
L 300.496267 287.040898 
L 299.982189 287.040898 
z
" style="fill:#1f77b4;"/>
   </g>
   <g id="patch_226">
    <path clip-path="url(#pa85f60b3ff)" d="M 300.624786 325.921635 
L 301.138864 325.921635 
L 301.138864 302.506928 
L 300.624786 302.506928 
z
" style="fill:#1f77b4;"/>
   </g>
   <g id="patch_227">
    <path clip-path="url(#pa85f60b3ff)" d="M 301.267383 325.921635 
L 301.781461 325.921635 
L 301.781461 240.504167 
L 301.267383 240.504167 
z
" style="fill:#1f77b4;"/>
   </g>
   <g id="patch_228">
    <path clip-path="url(#pa85f60b3ff)" d="M 301.90998 325.921635 
L 302.424058 325.921635 
L 302.424058 230.753174 
L 301.90998 230.753174 
z
" style="fill:#1f77b4;"/>
   </g>
   <g id="patch_229">
    <path clip-path="url(#pa85f60b3ff)" d="M 302.552577 325.921635 
L 303.066655 325.921635 
L 303.066655 230.352659 
L 302.552577 230.352659 
z
" style="fill:#1f77b4;"/>
   </g>
   <g id="patch_230">
    <path clip-path="url(#pa85f60b3ff)" d="M 303.195174 325.921635 
L 303.709252 325.921635 
L 303.709252 243.045895 
L 303.195174 243.045895 
z
" style="fill:#1f77b4;"/>
   </g>
   <g id="patch_231">
    <path clip-path="url(#pa85f60b3ff)" d="M 303.837771 325.921635 
L 304.351848 325.921635 
L 304.351848 249.284682 
L 303.837771 249.284682 
z
" style="fill:#1f77b4;"/>
   </g>
   <g id="patch_232">
    <path clip-path="url(#pa85f60b3ff)" d="M 304.480368 325.921635 
L 304.994445 325.921635 
L 304.994445 243.862329 
L 304.480368 243.862329 
z
" style="fill:#1f77b4;"/>
   </g>
   <g id="patch_233">
    <path clip-path="url(#pa85f60b3ff)" d="M 305.122965 325.921635 
L 305.637042 325.921635 
L 305.637042 275.734059 
L 305.122965 275.734059 
z
" style="fill:#1f77b4;"/>
   </g>
   <g id="patch_234">
    <path clip-path="url(#pa85f60b3ff)" d="M 305.765562 325.921635 
L 306.279639 325.921635 
L 306.279639 189.977694 
L 305.765562 189.977694 
z
" style="fill:#1f77b4;"/>
   </g>
   <g id="patch_235">
    <path clip-path="url(#pa85f60b3ff)" d="M 306.408159 325.921635 
L 306.922236 325.921635 
L 306.922236 306.943399 
L 306.408159 306.943399 
z
" style="fill:#1f77b4;"/>
   </g>
   <g id="patch_236">
    <path clip-path="url(#pa85f60b3ff)" d="M 307.050756 325.921635 
L 307.564833 325.921635 
L 307.564833 308.807333 
L 307.050756 308.807333 
z
" style="fill:#1f77b4;"/>
   </g>
   <g id="patch_237">
    <path clip-path="url(#pa85f60b3ff)" d="M 307.693352 325.921635 
L 308.20743 325.921635 
L 308.20743 32.775664 
L 307.693352 32.775664 
z
" style="fill:#1f77b4;"/>
   </g>
   <g id="patch_238">
    <path clip-path="url(#pa85f60b3ff)" d="M 308.335949 325.921635 
L 308.850027 325.921635 
L 308.850027 262.224389 
L 308.335949 262.224389 
z
" style="fill:#1f77b4;"/>
   </g>
   <g id="patch_239">
    <path clip-path="url(#pa85f60b3ff)" d="M 308.978546 325.921635 
L 309.492624 325.921635 
L 309.492624 273.669868 
L 308.978546 273.669868 
z
" style="fill:#1f77b4;"/>
   </g>
   <g id="matplotlib.axis_3">
    <g id="xtick_3">
     <g id="line2d_9">
      <g>
       <use style="stroke:#000000;stroke-width:0.8;" x="235.336939" xlink:href="#mf1579491ba" y="325.921635"/>
      </g>
     </g>
     <g id="text_9">
      <!-- 0 -->
      <g transform="translate(232.155689 340.520072)scale(0.1 -0.1)">
       <use xlink:href="#DejaVuSans-48"/>
      </g>
     </g>
    </g>
    <g id="xtick_4">
     <g id="line2d_10">
      <g>
       <use style="stroke:#000000;stroke-width:0.8;" x="299.596631" xlink:href="#mf1579491ba" y="325.921635"/>
      </g>
     </g>
     <g id="text_10">
      <!-- 100 -->
      <g transform="translate(290.052881 340.520072)scale(0.1 -0.1)">
       <use xlink:href="#DejaVuSans-49"/>
       <use x="63.623047" xlink:href="#DejaVuSans-48"/>
       <use x="127.246094" xlink:href="#DejaVuSans-48"/>
      </g>
     </g>
    </g>
   </g>
   <g id="matplotlib.axis_4">
    <g id="ytick_6">
     <g id="line2d_11">
      <g>
       <use style="stroke:#000000;stroke-width:0.8;" x="231.359264" xlink:href="#m484bb2bc01" y="325.921635"/>
      </g>
     </g>
     <g id="text_11">
      <!-- 0 -->
      <g transform="translate(217.996764 329.720854)scale(0.1 -0.1)">
       <use xlink:href="#DejaVuSans-48"/>
      </g>
     </g>
    </g>
    <g id="ytick_7">
     <g id="line2d_12">
      <g>
       <use style="stroke:#000000;stroke-width:0.8;" x="231.359264" xlink:href="#m484bb2bc01" y="287.410604"/>
      </g>
     </g>
     <g id="text_12">
      <!-- 2500 -->
      <g transform="translate(198.909264 291.209822)scale(0.1 -0.1)">
       <use xlink:href="#DejaVuSans-50"/>
       <use x="63.623047" xlink:href="#DejaVuSans-53"/>
       <use x="127.246094" xlink:href="#DejaVuSans-48"/>
       <use x="190.869141" xlink:href="#DejaVuSans-48"/>
      </g>
     </g>
    </g>
    <g id="ytick_8">
     <g id="line2d_13">
      <g>
       <use style="stroke:#000000;stroke-width:0.8;" x="231.359264" xlink:href="#m484bb2bc01" y="248.899572"/>
      </g>
     </g>
     <g id="text_13">
      <!-- 5000 -->
      <g transform="translate(198.909264 252.698791)scale(0.1 -0.1)">
       <use xlink:href="#DejaVuSans-53"/>
       <use x="63.623047" xlink:href="#DejaVuSans-48"/>
       <use x="127.246094" xlink:href="#DejaVuSans-48"/>
       <use x="190.869141" xlink:href="#DejaVuSans-48"/>
      </g>
     </g>
    </g>
    <g id="ytick_9">
     <g id="line2d_14">
      <g>
       <use style="stroke:#000000;stroke-width:0.8;" x="231.359264" xlink:href="#m484bb2bc01" y="210.388541"/>
      </g>
     </g>
     <g id="text_14">
      <!-- 7500 -->
      <defs>
       <path d="M 8.203125 72.90625 
L 55.078125 72.90625 
L 55.078125 68.703125 
L 28.609375 0 
L 18.3125 0 
L 43.21875 64.59375 
L 8.203125 64.59375 
z
" id="DejaVuSans-55"/>
      </defs>
      <g transform="translate(198.909264 214.187759)scale(0.1 -0.1)">
       <use xlink:href="#DejaVuSans-55"/>
       <use x="63.623047" xlink:href="#DejaVuSans-53"/>
       <use x="127.246094" xlink:href="#DejaVuSans-48"/>
       <use x="190.869141" xlink:href="#DejaVuSans-48"/>
      </g>
     </g>
    </g>
    <g id="ytick_10">
     <g id="line2d_15">
      <g>
       <use style="stroke:#000000;stroke-width:0.8;" x="231.359264" xlink:href="#m484bb2bc01" y="171.877509"/>
      </g>
     </g>
     <g id="text_15">
      <!-- 10000 -->
      <g transform="translate(192.546764 175.676728)scale(0.1 -0.1)">
       <use xlink:href="#DejaVuSans-49"/>
       <use x="63.623047" xlink:href="#DejaVuSans-48"/>
       <use x="127.246094" xlink:href="#DejaVuSans-48"/>
       <use x="190.869141" xlink:href="#DejaVuSans-48"/>
       <use x="254.492188" xlink:href="#DejaVuSans-48"/>
      </g>
     </g>
    </g>
    <g id="ytick_11">
     <g id="line2d_16">
      <g>
       <use style="stroke:#000000;stroke-width:0.8;" x="231.359264" xlink:href="#m484bb2bc01" y="133.366478"/>
      </g>
     </g>
     <g id="text_16">
      <!-- 12500 -->
      <g transform="translate(192.546764 137.165696)scale(0.1 -0.1)">
       <use xlink:href="#DejaVuSans-49"/>
       <use x="63.623047" xlink:href="#DejaVuSans-50"/>
       <use x="127.246094" xlink:href="#DejaVuSans-53"/>
       <use x="190.869141" xlink:href="#DejaVuSans-48"/>
       <use x="254.492188" xlink:href="#DejaVuSans-48"/>
      </g>
     </g>
    </g>
    <g id="ytick_12">
     <g id="line2d_17">
      <g>
       <use style="stroke:#000000;stroke-width:0.8;" x="231.359264" xlink:href="#m484bb2bc01" y="94.855446"/>
      </g>
     </g>
     <g id="text_17">
      <!-- 15000 -->
      <g transform="translate(192.546764 98.654665)scale(0.1 -0.1)">
       <use xlink:href="#DejaVuSans-49"/>
       <use x="63.623047" xlink:href="#DejaVuSans-53"/>
       <use x="127.246094" xlink:href="#DejaVuSans-48"/>
       <use x="190.869141" xlink:href="#DejaVuSans-48"/>
       <use x="254.492188" xlink:href="#DejaVuSans-48"/>
      </g>
     </g>
    </g>
    <g id="ytick_13">
     <g id="line2d_18">
      <g>
       <use style="stroke:#000000;stroke-width:0.8;" x="231.359264" xlink:href="#m484bb2bc01" y="56.344415"/>
      </g>
     </g>
     <g id="text_18">
      <!-- 17500 -->
      <g transform="translate(192.546764 60.143634)scale(0.1 -0.1)">
       <use xlink:href="#DejaVuSans-49"/>
       <use x="63.623047" xlink:href="#DejaVuSans-55"/>
       <use x="127.246094" xlink:href="#DejaVuSans-53"/>
       <use x="190.869141" xlink:href="#DejaVuSans-48"/>
       <use x="254.492188" xlink:href="#DejaVuSans-48"/>
      </g>
     </g>
    </g>
   </g>
   <g id="line2d_19">
    <path clip-path="url(#pa85f60b3ff)" d="M 235.336939 325.916951 
L 235.979536 325.914751 
L 236.622133 325.911825 
L 237.26473 325.908361 
L 237.907327 325.903998 
L 238.549924 325.898211 
L 239.192521 325.890371 
L 239.835118 325.879797 
L 240.477715 325.865625 
L 241.120312 325.846884 
L 241.762908 325.822106 
L 242.405505 325.789565 
L 243.048102 325.748138 
L 243.690699 325.696382 
L 244.333296 325.632627 
L 244.975893 325.55642 
L 245.61849 325.466881 
L 246.261087 325.36442 
L 246.903684 325.249615 
L 247.546281 325.124513 
L 248.188878 324.993046 
L 248.831475 324.855157 
L 249.474071 324.705354 
L 250.116668 324.53817 
L 250.759265 324.34515 
L 251.401862 324.117638 
L 252.044459 323.842328 
L 252.687056 323.502052 
L 253.329653 323.093286 
L 253.97225 322.622281 
L 254.614847 322.097594 
L 255.257444 321.533123 
L 255.900041 320.946703 
L 256.542638 320.360193 
L 257.185235 319.801149 
L 257.827831 319.284964 
L 258.470428 318.818764 
L 259.113025 318.410492 
L 259.755622 318.061631 
L 260.398219 317.760318 
L 261.040816 317.495043 
L 261.683413 317.247372 
L 262.32601 316.995192 
L 262.968607 316.732547 
L 263.611204 316.444194 
L 264.253801 316.12507 
L 264.896398 315.784903 
L 265.538994 315.429158 
L 266.181591 315.06554 
L 266.824188 314.704714 
L 267.466785 314.315183 
L 268.109382 313.866588 
L 268.751979 313.312094 
L 269.394576 312.617618 
L 270.037173 311.756768 
L 270.67977 310.715626 
L 271.322367 309.504477 
L 271.964964 308.179518 
L 272.607561 306.82554 
L 273.250158 305.544285 
L 273.892754 304.383347 
L 274.535351 303.379083 
L 275.177948 302.543466 
L 275.820545 301.853501 
L 276.463142 301.283397 
L 277.105739 300.760205 
L 277.748336 300.188721 
L 278.390933 299.540324 
L 279.03353 298.798282 
L 279.676127 297.966059 
L 280.318724 297.052265 
L 280.961321 296.032064 
L 281.603917 294.917576 
L 282.246514 293.768667 
L 282.889111 292.600736 
L 283.531708 291.419735 
L 284.174305 290.21864 
L 284.816902 289.021959 
L 285.459499 287.885029 
L 286.102096 286.836008 
L 286.744693 285.827459 
L 287.38729 284.823849 
L 288.029887 283.792331 
L 288.672484 282.714587 
L 289.315081 281.504811 
L 289.957677 280.046428 
L 290.600274 278.269134 
L 291.242871 276.186497 
L 291.885468 273.830546 
L 292.528065 271.244195 
L 293.170662 268.459359 
L 293.813259 265.624889 
L 294.455856 262.927211 
L 295.098453 260.493102 
L 295.74105 258.387555 
L 296.383647 256.658802 
L 297.026244 255.320967 
L 297.668841 254.377705 
L 298.311437 253.691525 
L 298.954034 253.140026 
L 299.596631 252.671709 
L 300.239228 252.170479 
L 300.881825 251.510732 
L 301.524422 250.639963 
L 302.167019 249.440286 
L 302.809616 247.944582 
L 303.452213 246.06867 
L 304.09481 243.600467 
L 304.737407 240.618331 
L 305.380004 237.192565 
L 306.0226 233.512874 
L 306.665197 229.758252 
L 307.307794 225.955806 
L 307.950391 223.472892 
L 308.592988 221.236667 
L 309.235585 219.237474 
" style="fill:none;stroke:#ff0000;stroke-linecap:square;stroke-width:1.5;"/>
   </g>
   <g id="patch_240">
    <path d="M 231.359264 325.921635 
L 231.359264 18.118365 
" style="fill:none;stroke:#000000;stroke-linecap:square;stroke-linejoin:miter;stroke-width:0.8;"/>
   </g>
   <g id="patch_241">
    <path d="M 313.21326 325.921635 
L 313.21326 18.118365 
" style="fill:none;stroke:#000000;stroke-linecap:square;stroke-linejoin:miter;stroke-width:0.8;"/>
   </g>
   <g id="patch_242">
    <path d="M 231.359264 325.921635 
L 313.21326 325.921635 
" style="fill:none;stroke:#000000;stroke-linecap:square;stroke-linejoin:miter;stroke-width:0.8;"/>
   </g>
   <g id="patch_243">
    <path d="M 231.359264 18.118365 
L 313.21326 18.118365 
" style="fill:none;stroke:#000000;stroke-linecap:square;stroke-linejoin:miter;stroke-width:0.8;"/>
   </g>
   <g id="text_19">
    <!-- Casos novos - SP - (data) -->
    <defs>
     <path d="M 54.890625 33.015625 
L 54.890625 0 
L 45.90625 0 
L 45.90625 32.71875 
Q 45.90625 40.484375 42.875 44.328125 
Q 39.84375 48.1875 33.796875 48.1875 
Q 26.515625 48.1875 22.3125 43.546875 
Q 18.109375 38.921875 18.109375 30.90625 
L 18.109375 0 
L 9.078125 0 
L 9.078125 54.6875 
L 18.109375 54.6875 
L 18.109375 46.1875 
Q 21.34375 51.125 25.703125 53.5625 
Q 30.078125 56 35.796875 56 
Q 45.21875 56 50.046875 50.171875 
Q 54.890625 44.34375 54.890625 33.015625 
z
" id="DejaVuSans-110"/>
     <path d="M 2.984375 54.6875 
L 12.5 54.6875 
L 29.59375 8.796875 
L 46.6875 54.6875 
L 56.203125 54.6875 
L 35.6875 0 
L 23.484375 0 
z
" id="DejaVuSans-118"/>
    </defs>
    <g transform="translate(197.187825 12.118365)scale(0.12 -0.12)">
     <use xlink:href="#DejaVuSans-67"/>
     <use x="69.824219" xlink:href="#DejaVuSans-97"/>
     <use x="131.103516" xlink:href="#DejaVuSans-115"/>
     <use x="183.203125" xlink:href="#DejaVuSans-111"/>
     <use x="244.384766" xlink:href="#DejaVuSans-115"/>
     <use x="296.484375" xlink:href="#DejaVuSans-32"/>
     <use x="328.271484" xlink:href="#DejaVuSans-110"/>
     <use x="391.650391" xlink:href="#DejaVuSans-111"/>
     <use x="452.832031" xlink:href="#DejaVuSans-118"/>
     <use x="512.011719" xlink:href="#DejaVuSans-111"/>
     <use x="573.193359" xlink:href="#DejaVuSans-115"/>
     <use x="625.292969" xlink:href="#DejaVuSans-32"/>
     <use x="657.080078" xlink:href="#DejaVuSans-45"/>
     <use x="693.164062" xlink:href="#DejaVuSans-32"/>
     <use x="724.951172" xlink:href="#DejaVuSans-83"/>
     <use x="788.427734" xlink:href="#DejaVuSans-80"/>
     <use x="848.730469" xlink:href="#DejaVuSans-32"/>
     <use x="880.517578" xlink:href="#DejaVuSans-45"/>
     <use x="916.601562" xlink:href="#DejaVuSans-32"/>
     <use x="948.388672" xlink:href="#DejaVuSans-40"/>
     <use x="987.402344" xlink:href="#DejaVuSans-100"/>
     <use x="1050.878906" xlink:href="#DejaVuSans-97"/>
     <use x="1112.158203" xlink:href="#DejaVuSans-116"/>
     <use x="1151.367188" xlink:href="#DejaVuSans-97"/>
     <use x="1212.646484" xlink:href="#DejaVuSans-41"/>
    </g>
   </g>
  </g>
  <g id="axes_3">
   <g id="patch_244">
    <path d="M 375.945764 325.921635 
L 457.79976 325.921635 
L 457.79976 18.118365 
L 375.945764 18.118365 
z
" style="fill:#ffffff;"/>
   </g>
   <g id="matplotlib.axis_5">
    <g id="xtick_5">
     <g id="line2d_20">
      <g>
       <use style="stroke:#000000;stroke-width:0.8;" x="379.6664" xlink:href="#mf1579491ba" y="325.921635"/>
      </g>
     </g>
     <g id="text_20">
      <!-- 0 -->
      <g transform="translate(376.48515 340.520072)scale(0.1 -0.1)">
       <use xlink:href="#DejaVuSans-48"/>
      </g>
     </g>
    </g>
    <g id="xtick_6">
     <g id="line2d_21">
      <g>
       <use style="stroke:#000000;stroke-width:0.8;" x="444.373116" xlink:href="#mf1579491ba" y="325.921635"/>
      </g>
     </g>
     <g id="text_21">
      <!-- 100 -->
      <g transform="translate(434.829366 340.520072)scale(0.1 -0.1)">
       <use xlink:href="#DejaVuSans-49"/>
       <use x="63.623047" xlink:href="#DejaVuSans-48"/>
       <use x="127.246094" xlink:href="#DejaVuSans-48"/>
      </g>
     </g>
    </g>
   </g>
   <g id="matplotlib.axis_6">
    <g id="ytick_14">
     <g id="line2d_22">
      <g>
       <use style="stroke:#000000;stroke-width:0.8;" x="375.945764" xlink:href="#m484bb2bc01" y="324.583678"/>
      </g>
     </g>
     <g id="text_22">
      <!-- 1.0 -->
      <defs>
       <path d="M 10.6875 12.40625 
L 21 12.40625 
L 21 0 
L 10.6875 0 
z
" id="DejaVuSans-46"/>
      </defs>
      <g transform="translate(353.042639 328.382897)scale(0.1 -0.1)">
       <use xlink:href="#DejaVuSans-49"/>
       <use x="63.623047" xlink:href="#DejaVuSans-46"/>
       <use x="95.410156" xlink:href="#DejaVuSans-48"/>
      </g>
     </g>
    </g>
    <g id="ytick_15">
     <g id="line2d_23">
      <g>
       <use style="stroke:#000000;stroke-width:0.8;" x="375.945764" xlink:href="#m484bb2bc01" y="266.203174"/>
      </g>
     </g>
     <g id="text_23">
      <!-- 1.5 -->
      <g transform="translate(353.042639 270.002393)scale(0.1 -0.1)">
       <use xlink:href="#DejaVuSans-49"/>
       <use x="63.623047" xlink:href="#DejaVuSans-46"/>
       <use x="95.410156" xlink:href="#DejaVuSans-53"/>
      </g>
     </g>
    </g>
    <g id="ytick_16">
     <g id="line2d_24">
      <g>
       <use style="stroke:#000000;stroke-width:0.8;" x="375.945764" xlink:href="#m484bb2bc01" y="207.82267"/>
      </g>
     </g>
     <g id="text_24">
      <!-- 2.0 -->
      <g transform="translate(353.042639 211.621889)scale(0.1 -0.1)">
       <use xlink:href="#DejaVuSans-50"/>
       <use x="63.623047" xlink:href="#DejaVuSans-46"/>
       <use x="95.410156" xlink:href="#DejaVuSans-48"/>
      </g>
     </g>
    </g>
    <g id="ytick_17">
     <g id="line2d_25">
      <g>
       <use style="stroke:#000000;stroke-width:0.8;" x="375.945764" xlink:href="#m484bb2bc01" y="149.442166"/>
      </g>
     </g>
     <g id="text_25">
      <!-- 2.5 -->
      <g transform="translate(353.042639 153.241385)scale(0.1 -0.1)">
       <use xlink:href="#DejaVuSans-50"/>
       <use x="63.623047" xlink:href="#DejaVuSans-46"/>
       <use x="95.410156" xlink:href="#DejaVuSans-53"/>
      </g>
     </g>
    </g>
    <g id="ytick_18">
     <g id="line2d_26">
      <g>
       <use style="stroke:#000000;stroke-width:0.8;" x="375.945764" xlink:href="#m484bb2bc01" y="91.061662"/>
      </g>
     </g>
     <g id="text_26">
      <!-- 3.0 -->
      <defs>
       <path d="M 40.578125 39.3125 
Q 47.65625 37.796875 51.625 33 
Q 55.609375 28.21875 55.609375 21.1875 
Q 55.609375 10.40625 48.1875 4.484375 
Q 40.765625 -1.421875 27.09375 -1.421875 
Q 22.515625 -1.421875 17.65625 -0.515625 
Q 12.796875 0.390625 7.625 2.203125 
L 7.625 11.71875 
Q 11.71875 9.328125 16.59375 8.109375 
Q 21.484375 6.890625 26.8125 6.890625 
Q 36.078125 6.890625 40.9375 10.546875 
Q 45.796875 14.203125 45.796875 21.1875 
Q 45.796875 27.640625 41.28125 31.265625 
Q 36.765625 34.90625 28.71875 34.90625 
L 20.21875 34.90625 
L 20.21875 43.015625 
L 29.109375 43.015625 
Q 36.375 43.015625 40.234375 45.921875 
Q 44.09375 48.828125 44.09375 54.296875 
Q 44.09375 59.90625 40.109375 62.90625 
Q 36.140625 65.921875 28.71875 65.921875 
Q 24.65625 65.921875 20.015625 65.03125 
Q 15.375 64.15625 9.8125 62.3125 
L 9.8125 71.09375 
Q 15.4375 72.65625 20.34375 73.4375 
Q 25.25 74.21875 29.59375 74.21875 
Q 40.828125 74.21875 47.359375 69.109375 
Q 53.90625 64.015625 53.90625 55.328125 
Q 53.90625 49.265625 50.4375 45.09375 
Q 46.96875 40.921875 40.578125 39.3125 
z
" id="DejaVuSans-51"/>
      </defs>
      <g transform="translate(353.042639 94.860881)scale(0.1 -0.1)">
       <use xlink:href="#DejaVuSans-51"/>
       <use x="63.623047" xlink:href="#DejaVuSans-46"/>
       <use x="95.410156" xlink:href="#DejaVuSans-48"/>
      </g>
     </g>
    </g>
    <g id="ytick_19">
     <g id="line2d_27">
      <g>
       <use style="stroke:#000000;stroke-width:0.8;" x="375.945764" xlink:href="#m484bb2bc01" y="32.681158"/>
      </g>
     </g>
     <g id="text_27">
      <!-- 3.5 -->
      <g transform="translate(353.042639 36.480377)scale(0.1 -0.1)">
       <use xlink:href="#DejaVuSans-51"/>
       <use x="63.623047" xlink:href="#DejaVuSans-46"/>
       <use x="95.410156" xlink:href="#DejaVuSans-53"/>
      </g>
     </g>
    </g>
   </g>
   <g id="line2d_28">
    <path clip-path="url(#p827e746df1)" d="M 379.6664 32.109423 
L 380.313468 57.98054 
L 380.960535 75.853401 
L 381.607602 106.910372 
L 382.254669 118.280071 
L 382.901736 118.535733 
L 383.548803 115.437655 
L 384.195871 113.808489 
L 384.842938 113.545903 
L 385.490005 115.485569 
L 386.137072 116.947877 
L 386.784139 119.080067 
L 387.431206 125.429159 
L 388.078274 132.937124 
L 388.725341 140.583487 
L 389.372408 150.530394 
L 390.019475 160.33936 
L 390.666542 171.188553 
L 391.313609 182.061232 
L 391.960677 193.641292 
L 392.607744 206.449561 
L 393.254811 216.686513 
L 393.901878 221.788876 
L 394.548945 223.713163 
L 395.196012 222.370429 
L 395.843079 219.285153 
L 396.490147 214.017637 
L 397.137214 207.125644 
L 397.784281 203.849972 
L 398.431348 205.291977 
L 399.078415 209.8876 
L 399.725482 217.013656 
L 400.37255 225.948993 
L 401.019617 236.276362 
L 401.666684 248.031523 
L 402.313751 259.324255 
L 402.960818 269.434819 
L 403.607885 278.828776 
L 404.254953 287.13246 
L 404.90202 293.343129 
L 405.549087 297.861522 
L 406.196154 300.280455 
L 406.843221 300.500485 
L 407.490288 300.189887 
L 408.137356 298.611685 
L 408.784423 296.773967 
L 409.43149 295.911634 
L 410.078557 295.580447 
L 410.725624 295.882745 
L 411.372691 296.952199 
L 412.019758 295.738747 
L 412.666826 292.627648 
L 413.313893 286.898269 
L 413.96096 279.929339 
L 414.608027 272.656013 
L 415.255094 266.105425 
L 415.902161 261.550174 
L 416.549229 260.68337 
L 417.196296 263.750948 
L 417.843363 270.401854 
L 418.49043 277.859641 
L 419.137497 285.64475 
L 419.784564 292.980678 
L 420.431632 298.865639 
L 421.078699 303.450175 
L 421.725766 305.348088 
L 422.372833 304.063102 
L 423.0199 301.964307 
L 423.666967 299.510411 
L 424.314034 297.361179 
L 424.961102 295.652351 
L 425.608169 293.428598 
L 426.255236 291.761128 
L 426.902303 291.811964 
L 427.54937 292.2569 
L 428.196437 292.817361 
L 428.843505 293.176294 
L 429.490572 294.063334 
L 430.137639 296.086656 
L 430.784706 298.550194 
L 431.431773 299.845427 
L 432.07884 300.325504 
L 432.725908 300.116712 
L 433.372975 299.563863 
L 434.020042 297.424659 
L 434.667109 293.322508 
L 435.314176 288.373845 
L 435.961243 284.199833 
L 436.608311 281.058066 
L 437.255378 278.999393 
L 437.902445 277.71093 
L 438.549512 278.682326 
L 439.196579 282.029412 
L 439.843646 286.641262 
L 440.490713 291.623879 
L 441.137781 296.797385 
L 441.784848 301.81158 
L 442.431915 306.634098 
L 443.078982 309.644232 
L 443.726049 311.111102 
L 444.373116 311.930577 
L 445.020184 311.345383 
L 445.667251 309.273559 
L 446.314318 306.626349 
L 446.961385 302.694616 
L 447.608452 299.29198 
L 448.255519 295.130685 
L 448.902587 288.973967 
L 449.549654 284.124332 
L 450.196721 280.420614 
L 450.843788 278.879993 
L 451.490855 279.113423 
L 452.137922 279.542161 
L 452.78499 291.660969 
L 453.432057 293.859173 
L 454.079124 295.837579 
" style="fill:none;stroke:#ff0000;stroke-linecap:square;stroke-width:1.5;"/>
   </g>
   <g id="patch_245">
    <path d="M 375.945764 325.921635 
L 375.945764 18.118365 
" style="fill:none;stroke:#000000;stroke-linecap:square;stroke-linejoin:miter;stroke-width:0.8;"/>
   </g>
   <g id="patch_246">
    <path d="M 457.79976 325.921635 
L 457.79976 18.118365 
" style="fill:none;stroke:#000000;stroke-linecap:square;stroke-linejoin:miter;stroke-width:0.8;"/>
   </g>
   <g id="patch_247">
    <path d="M 375.945764 325.921635 
L 457.79976 325.921635 
" style="fill:none;stroke:#000000;stroke-linecap:square;stroke-linejoin:miter;stroke-width:0.8;"/>
   </g>
   <g id="patch_248">
    <path d="M 375.945764 18.118365 
L 457.79976 18.118365 
" style="fill:none;stroke:#000000;stroke-linecap:square;stroke-linejoin:miter;stroke-width:0.8;"/>
   </g>
   <g id="text_28">
    <!-- r0 - SP - (data) -->
    <defs>
     <path d="M 41.109375 46.296875 
Q 39.59375 47.171875 37.8125 47.578125 
Q 36.03125 48 33.890625 48 
Q 26.265625 48 22.1875 43.046875 
Q 18.109375 38.09375 18.109375 28.8125 
L 18.109375 0 
L 9.078125 0 
L 9.078125 54.6875 
L 18.109375 54.6875 
L 18.109375 46.1875 
Q 20.953125 51.171875 25.484375 53.578125 
Q 30.03125 56 36.53125 56 
Q 37.453125 56 38.578125 55.875 
Q 39.703125 55.765625 41.0625 55.515625 
z
" id="DejaVuSans-114"/>
    </defs>
    <g transform="translate(373.008075 12.118365)scale(0.12 -0.12)">
     <use xlink:href="#DejaVuSans-114"/>
     <use x="41.113281" xlink:href="#DejaVuSans-48"/>
     <use x="104.736328" xlink:href="#DejaVuSans-32"/>
     <use x="136.523438" xlink:href="#DejaVuSans-45"/>
     <use x="172.607422" xlink:href="#DejaVuSans-32"/>
     <use x="204.394531" xlink:href="#DejaVuSans-83"/>
     <use x="267.871094" xlink:href="#DejaVuSans-80"/>
     <use x="328.173828" xlink:href="#DejaVuSans-32"/>
     <use x="359.960938" xlink:href="#DejaVuSans-45"/>
     <use x="396.044922" xlink:href="#DejaVuSans-32"/>
     <use x="427.832031" xlink:href="#DejaVuSans-40"/>
     <use x="466.845703" xlink:href="#DejaVuSans-100"/>
     <use x="530.322266" xlink:href="#DejaVuSans-97"/>
     <use x="591.601562" xlink:href="#DejaVuSans-116"/>
     <use x="630.810547" xlink:href="#DejaVuSans-97"/>
     <use x="692.089844" xlink:href="#DejaVuSans-41"/>
    </g>
   </g>
  </g>
 </g>
 <defs>
  <clipPath id="p890ca11a20">
   <rect height="307.80327" width="81.853996" x="52.310264" y="18.118365"/>
  </clipPath>
  <clipPath id="pa85f60b3ff">
   <rect height="307.80327" width="81.853996" x="231.359264" y="18.118365"/>
  </clipPath>
  <clipPath id="p827e746df1">
   <rect height="307.80327" width="81.853996" x="375.945764" y="18.118365"/>
  </clipPath>
 </defs>
</svg>
