<?xml version="1.0" encoding="utf-8" standalone="no"?>
<!DOCTYPE svg PUBLIC "-//W3C//DTD SVG 1.1//EN"
  "http://www.w3.org/Graphics/SVG/1.1/DTD/svg11.dtd">
<!-- Created with matplotlib (https://matplotlib.org/) -->
<svg height="345.6pt" version="1.1" viewBox="0 0 460.8 345.6" width="460.8pt" xmlns="http://www.w3.org/2000/svg" xmlns:xlink="http://www.w3.org/1999/xlink">
 <defs>
  <style type="text/css">
*{stroke-linecap:butt;stroke-linejoin:round;}
  </style>
 </defs>
 <g id="figure_1">
  <g id="patch_1">
   <path d="M 0 345.6 
L 460.8 345.6 
L 460.8 0 
L 0 0 
z
" style="fill:#ffffff;"/>
  </g>
  <g id="axes_1">
   <g id="patch_2">
    <path d="M 61.853365 137.71551 
L 224.656874 137.71551 
L 224.656874 18.118365 
L 61.853365 18.118365 
z
" style="fill:#ffffff;"/>
   </g>
   <g id="patch_3">
    <path clip-path="url(#p0e5f32a081)" d="M 69.253525 137.71551 
L 70.275999 137.71551 
L 70.275999 137.715 
L 69.253525 137.715 
z
" style="fill:#1f77b4;"/>
   </g>
   <g id="patch_4">
    <path clip-path="url(#p0e5f32a081)" d="M 70.531618 137.71551 
L 71.554092 137.71551 
L 71.554092 137.715 
L 70.531618 137.715 
z
" style="fill:#1f77b4;"/>
   </g>
   <g id="patch_5">
    <path clip-path="url(#p0e5f32a081)" d="M 71.809711 137.71551 
L 72.832185 137.71551 
L 72.832185 137.714491 
L 71.809711 137.714491 
z
" style="fill:#1f77b4;"/>
   </g>
   <g id="patch_6">
    <path clip-path="url(#p0e5f32a081)" d="M 73.087804 137.71551 
L 74.110279 137.71551 
L 74.110279 137.714491 
L 73.087804 137.714491 
z
" style="fill:#1f77b4;"/>
   </g>
   <g id="patch_7">
    <path clip-path="url(#p0e5f32a081)" d="M 74.365897 137.71551 
L 75.388372 137.71551 
L 75.388372 137.714491 
L 74.365897 137.714491 
z
" style="fill:#1f77b4;"/>
   </g>
   <g id="patch_8">
    <path clip-path="url(#p0e5f32a081)" d="M 75.64399 137.71551 
L 76.666465 137.71551 
L 76.666465 137.714491 
L 75.64399 137.714491 
z
" style="fill:#1f77b4;"/>
   </g>
   <g id="patch_9">
    <path clip-path="url(#p0e5f32a081)" d="M 76.922084 137.71551 
L 77.944558 137.71551 
L 77.944558 137.713981 
L 76.922084 137.713981 
z
" style="fill:#1f77b4;"/>
   </g>
   <g id="patch_10">
    <path clip-path="url(#p0e5f32a081)" d="M 78.200177 137.71551 
L 79.222651 137.71551 
L 79.222651 137.712453 
L 78.200177 137.712453 
z
" style="fill:#1f77b4;"/>
   </g>
   <g id="patch_11">
    <path clip-path="url(#p0e5f32a081)" d="M 79.47827 137.71551 
L 80.500744 137.71551 
L 80.500744 137.710414 
L 79.47827 137.710414 
z
" style="fill:#1f77b4;"/>
   </g>
   <g id="patch_12">
    <path clip-path="url(#p0e5f32a081)" d="M 80.756363 137.71551 
L 81.778838 137.71551 
L 81.778838 137.708886 
L 80.756363 137.708886 
z
" style="fill:#1f77b4;"/>
   </g>
   <g id="patch_13">
    <path clip-path="url(#p0e5f32a081)" d="M 82.034456 137.71551 
L 83.056931 137.71551 
L 83.056931 137.707357 
L 82.034456 137.707357 
z
" style="fill:#1f77b4;"/>
   </g>
   <g id="patch_14">
    <path clip-path="url(#p0e5f32a081)" d="M 83.312549 137.71551 
L 84.335024 137.71551 
L 84.335024 137.707357 
L 83.312549 137.707357 
z
" style="fill:#1f77b4;"/>
   </g>
   <g id="patch_15">
    <path clip-path="url(#p0e5f32a081)" d="M 84.590643 137.71551 
L 85.613117 137.71551 
L 85.613117 137.705828 
L 84.590643 137.705828 
z
" style="fill:#1f77b4;"/>
   </g>
   <g id="patch_16">
    <path clip-path="url(#p0e5f32a081)" d="M 85.868736 137.71551 
L 86.89121 137.71551 
L 86.89121 137.700223 
L 85.868736 137.700223 
z
" style="fill:#1f77b4;"/>
   </g>
   <g id="patch_17">
    <path clip-path="url(#p0e5f32a081)" d="M 87.146829 137.71551 
L 88.169304 137.71551 
L 88.169304 137.694109 
L 87.146829 137.694109 
z
" style="fill:#1f77b4;"/>
   </g>
   <g id="patch_18">
    <path clip-path="url(#p0e5f32a081)" d="M 88.424922 137.71551 
L 89.447397 137.71551 
L 89.447397 137.686975 
L 88.424922 137.686975 
z
" style="fill:#1f77b4;"/>
   </g>
   <g id="patch_19">
    <path clip-path="url(#p0e5f32a081)" d="M 89.703015 137.71551 
L 90.72549 137.71551 
L 90.72549 137.682389 
L 89.703015 137.682389 
z
" style="fill:#1f77b4;"/>
   </g>
   <g id="patch_20">
    <path clip-path="url(#p0e5f32a081)" d="M 90.981109 137.71551 
L 92.003583 137.71551 
L 92.003583 137.646211 
L 90.981109 137.646211 
z
" style="fill:#1f77b4;"/>
   </g>
   <g id="patch_21">
    <path clip-path="url(#p0e5f32a081)" d="M 92.259202 137.71551 
L 93.281676 137.71551 
L 93.281676 137.638058 
L 92.259202 137.638058 
z
" style="fill:#1f77b4;"/>
   </g>
   <g id="patch_22">
    <path clip-path="url(#p0e5f32a081)" d="M 93.537295 137.71551 
L 94.559769 137.71551 
L 94.559769 137.631943 
L 93.537295 137.631943 
z
" style="fill:#1f77b4;"/>
   </g>
   <g id="patch_23">
    <path clip-path="url(#p0e5f32a081)" d="M 94.815388 137.71551 
L 95.837863 137.71551 
L 95.837863 137.593217 
L 94.815388 137.593217 
z
" style="fill:#1f77b4;"/>
   </g>
   <g id="patch_24">
    <path clip-path="url(#p0e5f32a081)" d="M 96.093481 137.71551 
L 97.115956 137.71551 
L 97.115956 137.569777 
L 96.093481 137.569777 
z
" style="fill:#1f77b4;"/>
   </g>
   <g id="patch_25">
    <path clip-path="url(#p0e5f32a081)" d="M 97.371574 137.71551 
L 98.394049 137.71551 
L 98.394049 137.513726 
L 97.371574 137.513726 
z
" style="fill:#1f77b4;"/>
   </g>
   <g id="patch_26">
    <path clip-path="url(#p0e5f32a081)" d="M 98.649668 137.71551 
L 99.672142 137.71551 
L 99.672142 137.481625 
L 98.649668 137.481625 
z
" style="fill:#1f77b4;"/>
   </g>
   <g id="patch_27">
    <path clip-path="url(#p0e5f32a081)" d="M 99.927761 137.71551 
L 100.950235 137.71551 
L 100.950235 137.393981 
L 99.927761 137.393981 
z
" style="fill:#1f77b4;"/>
   </g>
   <g id="patch_28">
    <path clip-path="url(#p0e5f32a081)" d="M 101.205854 137.71551 
L 102.228328 137.71551 
L 102.228328 137.335892 
L 101.205854 137.335892 
z
" style="fill:#1f77b4;"/>
   </g>
   <g id="patch_29">
    <path clip-path="url(#p0e5f32a081)" d="M 102.483947 137.71551 
L 103.506422 137.71551 
L 103.506422 137.302771 
L 102.483947 137.302771 
z
" style="fill:#1f77b4;"/>
   </g>
   <g id="patch_30">
    <path clip-path="url(#p0e5f32a081)" d="M 103.76204 137.71551 
L 104.784515 137.71551 
L 104.784515 137.276274 
L 103.76204 137.276274 
z
" style="fill:#1f77b4;"/>
   </g>
   <g id="patch_31">
    <path clip-path="url(#p0e5f32a081)" d="M 105.040133 137.71551 
L 106.062608 137.71551 
L 106.062608 137.179459 
L 105.040133 137.179459 
z
" style="fill:#1f77b4;"/>
   </g>
   <g id="patch_32">
    <path clip-path="url(#p0e5f32a081)" d="M 106.318227 137.71551 
L 107.340701 137.71551 
L 107.340701 137.092325 
L 106.318227 137.092325 
z
" style="fill:#1f77b4;"/>
   </g>
   <g id="patch_33">
    <path clip-path="url(#p0e5f32a081)" d="M 107.59632 137.71551 
L 108.618794 137.71551 
L 108.618794 136.999076 
L 107.59632 136.999076 
z
" style="fill:#1f77b4;"/>
   </g>
   <g id="patch_34">
    <path clip-path="url(#p0e5f32a081)" d="M 108.874413 137.71551 
L 109.896888 137.71551 
L 109.896888 136.976147 
L 108.874413 136.976147 
z
" style="fill:#1f77b4;"/>
   </g>
   <g id="patch_35">
    <path clip-path="url(#p0e5f32a081)" d="M 110.152506 137.71551 
L 111.174981 137.71551 
L 111.174981 136.942516 
L 110.152506 136.942516 
z
" style="fill:#1f77b4;"/>
   </g>
   <g id="patch_36">
    <path clip-path="url(#p0e5f32a081)" d="M 111.430599 137.71551 
L 112.453074 137.71551 
L 112.453074 136.523662 
L 111.430599 136.523662 
z
" style="fill:#1f77b4;"/>
   </g>
   <g id="patch_37">
    <path clip-path="url(#p0e5f32a081)" d="M 112.708693 137.71551 
L 113.731167 137.71551 
L 113.731167 136.196528 
L 112.708693 136.196528 
z
" style="fill:#1f77b4;"/>
   </g>
   <g id="patch_38">
    <path clip-path="url(#p0e5f32a081)" d="M 113.986786 137.71551 
L 115.00926 137.71551 
L 115.00926 135.929012 
L 113.986786 135.929012 
z
" style="fill:#1f77b4;"/>
   </g>
   <g id="patch_39">
    <path clip-path="url(#p0e5f32a081)" d="M 115.264879 137.71551 
L 116.287353 137.71551 
L 116.287353 135.652834 
L 115.264879 135.652834 
z
" style="fill:#1f77b4;"/>
   </g>
   <g id="patch_40">
    <path clip-path="url(#p0e5f32a081)" d="M 116.542972 137.71551 
L 117.565447 137.71551 
L 117.565447 135.43984 
L 116.542972 135.43984 
z
" style="fill:#1f77b4;"/>
   </g>
   <g id="patch_41">
    <path clip-path="url(#p0e5f32a081)" d="M 117.821065 137.71551 
L 118.84354 137.71551 
L 118.84354 135.361368 
L 117.821065 135.361368 
z
" style="fill:#1f77b4;"/>
   </g>
   <g id="patch_42">
    <path clip-path="url(#p0e5f32a081)" d="M 119.099158 137.71551 
L 120.121633 137.71551 
L 120.121633 135.236018 
L 119.099158 135.236018 
z
" style="fill:#1f77b4;"/>
   </g>
   <g id="patch_43">
    <path clip-path="url(#p0e5f32a081)" d="M 120.377252 137.71551 
L 121.399726 137.71551 
L 121.399726 134.820222 
L 120.377252 134.820222 
z
" style="fill:#1f77b4;"/>
   </g>
   <g id="patch_44">
    <path clip-path="url(#p0e5f32a081)" d="M 121.655345 137.71551 
L 122.677819 137.71551 
L 122.677819 134.297419 
L 121.655345 134.297419 
z
" style="fill:#1f77b4;"/>
   </g>
   <g id="patch_45">
    <path clip-path="url(#p0e5f32a081)" d="M 122.933438 137.71551 
L 123.955913 137.71551 
L 123.955913 133.904043 
L 122.933438 133.904043 
z
" style="fill:#1f77b4;"/>
   </g>
   <g id="patch_46">
    <path clip-path="url(#p0e5f32a081)" d="M 124.211531 137.71551 
L 125.234006 137.71551 
L 125.234006 133.529011 
L 124.211531 133.529011 
z
" style="fill:#1f77b4;"/>
   </g>
   <g id="patch_47">
    <path clip-path="url(#p0e5f32a081)" d="M 125.489624 137.71551 
L 126.512099 137.71551 
L 126.512099 133.425571 
L 125.489624 133.425571 
z
" style="fill:#1f77b4;"/>
   </g>
   <g id="patch_48">
    <path clip-path="url(#p0e5f32a081)" d="M 126.767718 137.71551 
L 127.790192 137.71551 
L 127.790192 133.254361 
L 126.767718 133.254361 
z
" style="fill:#1f77b4;"/>
   </g>
   <g id="patch_49">
    <path clip-path="url(#p0e5f32a081)" d="M 128.045811 137.71551 
L 129.068285 137.71551 
L 129.068285 133.183023 
L 128.045811 133.183023 
z
" style="fill:#1f77b4;"/>
   </g>
   <g id="patch_50">
    <path clip-path="url(#p0e5f32a081)" d="M 129.323904 137.71551 
L 130.346378 137.71551 
L 130.346378 132.940475 
L 129.323904 132.940475 
z
" style="fill:#1f77b4;"/>
   </g>
   <g id="patch_51">
    <path clip-path="url(#p0e5f32a081)" d="M 130.601997 137.71551 
L 131.624472 137.71551 
L 131.624472 132.0885 
L 130.601997 132.0885 
z
" style="fill:#1f77b4;"/>
   </g>
   <g id="patch_52">
    <path clip-path="url(#p0e5f32a081)" d="M 131.88009 137.71551 
L 132.902565 137.71551 
L 132.902565 131.820984 
L 131.88009 131.820984 
z
" style="fill:#1f77b4;"/>
   </g>
   <g id="patch_53">
    <path clip-path="url(#p0e5f32a081)" d="M 133.158183 137.71551 
L 134.180658 137.71551 
L 134.180658 131.172321 
L 133.158183 131.172321 
z
" style="fill:#1f77b4;"/>
   </g>
   <g id="patch_54">
    <path clip-path="url(#p0e5f32a081)" d="M 134.436277 137.71551 
L 135.458751 137.71551 
L 135.458751 130.635761 
L 134.436277 130.635761 
z
" style="fill:#1f77b4;"/>
   </g>
   <g id="patch_55">
    <path clip-path="url(#p0e5f32a081)" d="M 135.71437 137.71551 
L 136.736844 137.71551 
L 136.736844 130.445697 
L 135.71437 130.445697 
z
" style="fill:#1f77b4;"/>
   </g>
   <g id="patch_56">
    <path clip-path="url(#p0e5f32a081)" d="M 136.992463 137.71551 
L 138.014937 137.71551 
L 138.014937 130.286206 
L 136.992463 130.286206 
z
" style="fill:#1f77b4;"/>
   </g>
   <g id="patch_57">
    <path clip-path="url(#p0e5f32a081)" d="M 138.270556 137.71551 
L 139.293031 137.71551 
L 139.293031 129.876015 
L 138.270556 129.876015 
z
" style="fill:#1f77b4;"/>
   </g>
   <g id="patch_58">
    <path clip-path="url(#p0e5f32a081)" d="M 139.548649 137.71551 
L 140.571124 137.71551 
L 140.571124 129.606461 
L 139.548649 129.606461 
z
" style="fill:#1f77b4;"/>
   </g>
   <g id="patch_59">
    <path clip-path="url(#p0e5f32a081)" d="M 140.826742 137.71551 
L 141.849217 137.71551 
L 141.849217 129.185569 
L 140.826742 129.185569 
z
" style="fill:#1f77b4;"/>
   </g>
   <g id="patch_60">
    <path clip-path="url(#p0e5f32a081)" d="M 142.104836 137.71551 
L 143.12731 137.71551 
L 143.12731 128.632192 
L 142.104836 128.632192 
z
" style="fill:#1f77b4;"/>
   </g>
   <g id="patch_61">
    <path clip-path="url(#p0e5f32a081)" d="M 143.382929 137.71551 
L 144.405403 137.71551 
L 144.405403 127.522383 
L 143.382929 127.522383 
z
" style="fill:#1f77b4;"/>
   </g>
   <g id="patch_62">
    <path clip-path="url(#p0e5f32a081)" d="M 144.661022 137.71551 
L 145.683497 137.71551 
L 145.683497 127.16009 
L 144.661022 127.16009 
z
" style="fill:#1f77b4;"/>
   </g>
   <g id="patch_63">
    <path clip-path="url(#p0e5f32a081)" d="M 145.939115 137.71551 
L 146.96159 137.71551 
L 146.96159 126.660217 
L 145.939115 126.660217 
z
" style="fill:#1f77b4;"/>
   </g>
   <g id="patch_64">
    <path clip-path="url(#p0e5f32a081)" d="M 147.217208 137.71551 
L 148.239683 137.71551 
L 148.239683 125.465312 
L 147.217208 125.465312 
z
" style="fill:#1f77b4;"/>
   </g>
   <g id="patch_65">
    <path clip-path="url(#p0e5f32a081)" d="M 148.495302 137.71551 
L 149.517776 137.71551 
L 149.517776 124.386585 
L 148.495302 124.386585 
z
" style="fill:#1f77b4;"/>
   </g>
   <g id="patch_66">
    <path clip-path="url(#p0e5f32a081)" d="M 149.773395 137.71551 
L 150.795869 137.71551 
L 150.795869 123.092317 
L 149.773395 123.092317 
z
" style="fill:#1f77b4;"/>
   </g>
   <g id="patch_67">
    <path clip-path="url(#p0e5f32a081)" d="M 151.051488 137.71551 
L 152.073962 137.71551 
L 152.073962 122.238303 
L 151.051488 122.238303 
z
" style="fill:#1f77b4;"/>
   </g>
   <g id="patch_68">
    <path clip-path="url(#p0e5f32a081)" d="M 152.329581 137.71551 
L 153.352056 137.71551 
L 153.352056 121.83066 
L 152.329581 121.83066 
z
" style="fill:#1f77b4;"/>
   </g>
   <g id="patch_69">
    <path clip-path="url(#p0e5f32a081)" d="M 153.607674 137.71551 
L 154.630149 137.71551 
L 154.630149 121.525946 
L 153.607674 121.525946 
z
" style="fill:#1f77b4;"/>
   </g>
   <g id="patch_70">
    <path clip-path="url(#p0e5f32a081)" d="M 154.885767 137.71551 
L 155.908242 137.71551 
L 155.908242 121.314481 
L 154.885767 121.314481 
z
" style="fill:#1f77b4;"/>
   </g>
   <g id="patch_71">
    <path clip-path="url(#p0e5f32a081)" d="M 156.163861 137.71551 
L 157.186335 137.71551 
L 157.186335 120.363653 
L 156.163861 120.363653 
z
" style="fill:#1f77b4;"/>
   </g>
   <g id="patch_72">
    <path clip-path="url(#p0e5f32a081)" d="M 157.441954 137.71551 
L 158.464428 137.71551 
L 158.464428 118.427346 
L 157.441954 118.427346 
z
" style="fill:#1f77b4;"/>
   </g>
   <g id="patch_73">
    <path clip-path="url(#p0e5f32a081)" d="M 158.720047 137.71551 
L 159.742521 137.71551 
L 159.742521 117.37002 
L 158.720047 117.37002 
z
" style="fill:#1f77b4;"/>
   </g>
   <g id="patch_74">
    <path clip-path="url(#p0e5f32a081)" d="M 159.99814 137.71551 
L 161.020615 137.71551 
L 161.020615 116.400848 
L 159.99814 116.400848 
z
" style="fill:#1f77b4;"/>
   </g>
   <g id="patch_75">
    <path clip-path="url(#p0e5f32a081)" d="M 161.276233 137.71551 
L 162.298708 137.71551 
L 162.298708 115.085688 
L 161.276233 115.085688 
z
" style="fill:#1f77b4;"/>
   </g>
   <g id="patch_76">
    <path clip-path="url(#p0e5f32a081)" d="M 162.554326 137.71551 
L 163.576801 137.71551 
L 163.576801 114.559318 
L 162.554326 114.559318 
z
" style="fill:#1f77b4;"/>
   </g>
   <g id="patch_77">
    <path clip-path="url(#p0e5f32a081)" d="M 163.83242 137.71551 
L 164.854894 137.71551 
L 164.854894 114.209254 
L 163.83242 114.209254 
z
" style="fill:#1f77b4;"/>
   </g>
   <g id="patch_78">
    <path clip-path="url(#p0e5f32a081)" d="M 165.110513 137.71551 
L 166.132987 137.71551 
L 166.132987 113.400082 
L 165.110513 113.400082 
z
" style="fill:#1f77b4;"/>
   </g>
   <g id="patch_79">
    <path clip-path="url(#p0e5f32a081)" d="M 166.388606 137.71551 
L 167.411081 137.71551 
L 167.411081 111.678807 
L 166.388606 111.678807 
z
" style="fill:#1f77b4;"/>
   </g>
   <g id="patch_80">
    <path clip-path="url(#p0e5f32a081)" d="M 167.666699 137.71551 
L 168.689174 137.71551 
L 168.689174 110.053837 
L 167.666699 110.053837 
z
" style="fill:#1f77b4;"/>
   </g>
   <g id="patch_81">
    <path clip-path="url(#p0e5f32a081)" d="M 168.944792 137.71551 
L 169.967267 137.71551 
L 169.967267 107.968741 
L 168.944792 107.968741 
z
" style="fill:#1f77b4;"/>
   </g>
   <g id="patch_82">
    <path clip-path="url(#p0e5f32a081)" d="M 170.222886 137.71551 
L 171.24536 137.71551 
L 171.24536 106.53944 
L 170.222886 106.53944 
z
" style="fill:#1f77b4;"/>
   </g>
   <g id="patch_83">
    <path clip-path="url(#p0e5f32a081)" d="M 171.500979 137.71551 
L 172.523453 137.71551 
L 172.523453 105.947338 
L 171.500979 105.947338 
z
" style="fill:#1f77b4;"/>
   </g>
   <g id="patch_84">
    <path clip-path="url(#p0e5f32a081)" d="M 172.779072 137.71551 
L 173.801546 137.71551 
L 173.801546 105.579949 
L 172.779072 105.579949 
z
" style="fill:#1f77b4;"/>
   </g>
   <g id="patch_85">
    <path clip-path="url(#p0e5f32a081)" d="M 174.057165 137.71551 
L 175.07964 137.71551 
L 175.07964 104.087464 
L 174.057165 104.087464 
z
" style="fill:#1f77b4;"/>
   </g>
   <g id="patch_86">
    <path clip-path="url(#p0e5f32a081)" d="M 175.335258 137.71551 
L 176.357733 137.71551 
L 176.357733 102.118546 
L 175.335258 102.118546 
z
" style="fill:#1f77b4;"/>
   </g>
   <g id="patch_87">
    <path clip-path="url(#p0e5f32a081)" d="M 176.613351 137.71551 
L 177.635826 137.71551 
L 177.635826 100.141475 
L 176.613351 100.141475 
z
" style="fill:#1f77b4;"/>
   </g>
   <g id="patch_88">
    <path clip-path="url(#p0e5f32a081)" d="M 177.891445 137.71551 
L 178.913919 137.71551 
L 178.913919 98.54555 
L 177.891445 98.54555 
z
" style="fill:#1f77b4;"/>
   </g>
   <g id="patch_89">
    <path clip-path="url(#p0e5f32a081)" d="M 179.169538 137.71551 
L 180.192012 137.71551 
L 180.192012 96.666823 
L 179.169538 96.666823 
z
" style="fill:#1f77b4;"/>
   </g>
   <g id="patch_90">
    <path clip-path="url(#p0e5f32a081)" d="M 180.447631 137.71551 
L 181.470106 137.71551 
L 181.470106 95.850007 
L 180.447631 95.850007 
z
" style="fill:#1f77b4;"/>
   </g>
   <g id="patch_91">
    <path clip-path="url(#p0e5f32a081)" d="M 181.725724 137.71551 
L 182.748199 137.71551 
L 182.748199 95.10402 
L 181.725724 95.10402 
z
" style="fill:#1f77b4;"/>
   </g>
   <g id="patch_92">
    <path clip-path="url(#p0e5f32a081)" d="M 183.003817 137.71551 
L 184.026292 137.71551 
L 184.026292 93.885165 
L 183.003817 93.885165 
z
" style="fill:#1f77b4;"/>
   </g>
   <g id="patch_93">
    <path clip-path="url(#p0e5f32a081)" d="M 184.281911 137.71551 
L 185.304385 137.71551 
L 185.304385 92.11905 
L 184.281911 92.11905 
z
" style="fill:#1f77b4;"/>
   </g>
   <g id="patch_94">
    <path clip-path="url(#p0e5f32a081)" d="M 185.560004 137.71551 
L 186.582478 137.71551 
L 186.582478 88.867073 
L 185.560004 88.867073 
z
" style="fill:#1f77b4;"/>
   </g>
   <g id="patch_95">
    <path clip-path="url(#p0e5f32a081)" d="M 186.838097 137.71551 
L 187.860571 137.71551 
L 187.860571 85.967199 
L 186.838097 85.967199 
z
" style="fill:#1f77b4;"/>
   </g>
   <g id="patch_96">
    <path clip-path="url(#p0e5f32a081)" d="M 188.11619 137.71551 
L 189.138665 137.71551 
L 189.138665 83.120828 
L 188.11619 83.120828 
z
" style="fill:#1f77b4;"/>
   </g>
   <g id="patch_97">
    <path clip-path="url(#p0e5f32a081)" d="M 189.394283 137.71551 
L 190.416758 137.71551 
L 190.416758 81.818407 
L 189.394283 81.818407 
z
" style="fill:#1f77b4;"/>
   </g>
   <g id="patch_98">
    <path clip-path="url(#p0e5f32a081)" d="M 190.672376 137.71551 
L 191.694851 137.71551 
L 191.694851 81.004139 
L 190.672376 81.004139 
z
" style="fill:#1f77b4;"/>
   </g>
   <g id="patch_99">
    <path clip-path="url(#p0e5f32a081)" d="M 191.95047 137.71551 
L 192.972944 137.71551 
L 192.972944 77.437767 
L 191.95047 77.437767 
z
" style="fill:#1f77b4;"/>
   </g>
   <g id="patch_100">
    <path clip-path="url(#p0e5f32a081)" d="M 193.228563 137.71551 
L 194.251037 137.71551 
L 194.251037 74.794199 
L 193.228563 74.794199 
z
" style="fill:#1f77b4;"/>
   </g>
   <g id="patch_101">
    <path clip-path="url(#p0e5f32a081)" d="M 194.506656 137.71551 
L 195.52913 137.71551 
L 195.52913 71.881076 
L 194.506656 71.881076 
z
" style="fill:#1f77b4;"/>
   </g>
   <g id="patch_102">
    <path clip-path="url(#p0e5f32a081)" d="M 195.784749 137.71551 
L 196.807224 137.71551 
L 196.807224 69.147316 
L 195.784749 69.147316 
z
" style="fill:#1f77b4;"/>
   </g>
   <g id="patch_103">
    <path clip-path="url(#p0e5f32a081)" d="M 197.062842 137.71551 
L 198.085317 137.71551 
L 198.085317 66.098143 
L 197.062842 66.098143 
z
" style="fill:#1f77b4;"/>
   </g>
   <g id="patch_104">
    <path clip-path="url(#p0e5f32a081)" d="M 198.340935 137.71551 
L 199.36341 137.71551 
L 199.36341 64.812027 
L 198.340935 64.812027 
z
" style="fill:#1f77b4;"/>
   </g>
   <g id="patch_105">
    <path clip-path="url(#p0e5f32a081)" d="M 199.619029 137.71551 
L 200.641503 137.71551 
L 200.641503 64.037504 
L 199.619029 64.037504 
z
" style="fill:#1f77b4;"/>
   </g>
   <g id="patch_106">
    <path clip-path="url(#p0e5f32a081)" d="M 200.897122 137.71551 
L 201.919596 137.71551 
L 201.919596 61.212025 
L 200.897122 61.212025 
z
" style="fill:#1f77b4;"/>
   </g>
   <g id="patch_107">
    <path clip-path="url(#p0e5f32a081)" d="M 202.175215 137.71551 
L 203.19769 137.71551 
L 203.19769 58.063998 
L 202.175215 58.063998 
z
" style="fill:#1f77b4;"/>
   </g>
   <g id="patch_108">
    <path clip-path="url(#p0e5f32a081)" d="M 203.453308 137.71551 
L 204.475783 137.71551 
L 204.475783 54.902722 
L 203.453308 54.902722 
z
" style="fill:#1f77b4;"/>
   </g>
   <g id="patch_109">
    <path clip-path="url(#p0e5f32a081)" d="M 204.731401 137.71551 
L 205.753876 137.71551 
L 205.753876 52.161319 
L 204.731401 52.161319 
z
" style="fill:#1f77b4;"/>
   </g>
   <g id="patch_110">
    <path clip-path="url(#p0e5f32a081)" d="M 206.009495 137.71551 
L 207.031969 137.71551 
L 207.031969 49.626286 
L 206.009495 49.626286 
z
" style="fill:#1f77b4;"/>
   </g>
   <g id="patch_111">
    <path clip-path="url(#p0e5f32a081)" d="M 207.287588 137.71551 
L 208.310062 137.71551 
L 208.310062 46.911889 
L 207.287588 46.911889 
z
" style="fill:#1f77b4;"/>
   </g>
   <g id="patch_112">
    <path clip-path="url(#p0e5f32a081)" d="M 208.565681 137.71551 
L 209.588155 137.71551 
L 209.588155 45.251761 
L 208.565681 45.251761 
z
" style="fill:#1f77b4;"/>
   </g>
   <g id="patch_113">
    <path clip-path="url(#p0e5f32a081)" d="M 209.843774 137.71551 
L 210.866249 137.71551 
L 210.866249 40.754943 
L 209.843774 40.754943 
z
" style="fill:#1f77b4;"/>
   </g>
   <g id="patch_114">
    <path clip-path="url(#p0e5f32a081)" d="M 211.121867 137.71551 
L 212.144342 137.71551 
L 212.144342 40.127172 
L 211.121867 40.127172 
z
" style="fill:#1f77b4;"/>
   </g>
   <g id="patch_115">
    <path clip-path="url(#p0e5f32a081)" d="M 212.39996 137.71551 
L 213.422435 137.71551 
L 213.422435 39.561057 
L 212.39996 39.561057 
z
" style="fill:#1f77b4;"/>
   </g>
   <g id="patch_116">
    <path clip-path="url(#p0e5f32a081)" d="M 213.678054 137.71551 
L 214.700528 137.71551 
L 214.700528 29.864236 
L 213.678054 29.864236 
z
" style="fill:#1f77b4;"/>
   </g>
   <g id="patch_117">
    <path clip-path="url(#p0e5f32a081)" d="M 214.956147 137.71551 
L 215.978621 137.71551 
L 215.978621 27.757228 
L 214.956147 27.757228 
z
" style="fill:#1f77b4;"/>
   </g>
   <g id="patch_118">
    <path clip-path="url(#p0e5f32a081)" d="M 216.23424 137.71551 
L 217.256715 137.71551 
L 217.256715 26.028819 
L 216.23424 26.028819 
z
" style="fill:#1f77b4;"/>
   </g>
   <g id="matplotlib.axis_1">
    <g id="xtick_1">
     <g id="line2d_1">
      <defs>
       <path d="M 0 0 
L 0 3.5 
" id="m96d1628a3d" style="stroke:#000000;stroke-width:0.8;"/>
      </defs>
      <g>
       <use style="stroke:#000000;stroke-width:0.8;" x="69.764762" xlink:href="#m96d1628a3d" y="137.71551"/>
      </g>
     </g>
     <g id="text_1">
      <!-- 0 -->
      <defs>
       <path d="M 31.78125 66.40625 
Q 24.171875 66.40625 20.328125 58.90625 
Q 16.5 51.421875 16.5 36.375 
Q 16.5 21.390625 20.328125 13.890625 
Q 24.171875 6.390625 31.78125 6.390625 
Q 39.453125 6.390625 43.28125 13.890625 
Q 47.125 21.390625 47.125 36.375 
Q 47.125 51.421875 43.28125 58.90625 
Q 39.453125 66.40625 31.78125 66.40625 
z
M 31.78125 74.21875 
Q 44.046875 74.21875 50.515625 64.515625 
Q 56.984375 54.828125 56.984375 36.375 
Q 56.984375 17.96875 50.515625 8.265625 
Q 44.046875 -1.421875 31.78125 -1.421875 
Q 19.53125 -1.421875 13.0625 8.265625 
Q 6.59375 17.96875 6.59375 36.375 
Q 6.59375 54.828125 13.0625 64.515625 
Q 19.53125 74.21875 31.78125 74.21875 
z
" id="DejaVuSans-48"/>
      </defs>
      <g transform="translate(66.583512 152.313947)scale(0.1 -0.1)">
       <use xlink:href="#DejaVuSans-48"/>
      </g>
     </g>
    </g>
    <g id="xtick_2">
     <g id="line2d_2">
      <g>
       <use style="stroke:#000000;stroke-width:0.8;" x="133.669421" xlink:href="#m96d1628a3d" y="137.71551"/>
      </g>
     </g>
     <g id="text_2">
      <!-- 50 -->
      <defs>
       <path d="M 10.796875 72.90625 
L 49.515625 72.90625 
L 49.515625 64.59375 
L 19.828125 64.59375 
L 19.828125 46.734375 
Q 21.96875 47.46875 24.109375 47.828125 
Q 26.265625 48.1875 28.421875 48.1875 
Q 40.625 48.1875 47.75 41.5 
Q 54.890625 34.8125 54.890625 23.390625 
Q 54.890625 11.625 47.5625 5.09375 
Q 40.234375 -1.421875 26.90625 -1.421875 
Q 22.3125 -1.421875 17.546875 -0.640625 
Q 12.796875 0.140625 7.71875 1.703125 
L 7.71875 11.625 
Q 12.109375 9.234375 16.796875 8.0625 
Q 21.484375 6.890625 26.703125 6.890625 
Q 35.15625 6.890625 40.078125 11.328125 
Q 45.015625 15.765625 45.015625 23.390625 
Q 45.015625 31 40.078125 35.4375 
Q 35.15625 39.890625 26.703125 39.890625 
Q 22.75 39.890625 18.8125 39.015625 
Q 14.890625 38.140625 10.796875 36.28125 
z
" id="DejaVuSans-53"/>
      </defs>
      <g transform="translate(127.306921 152.313947)scale(0.1 -0.1)">
       <use xlink:href="#DejaVuSans-53"/>
       <use x="63.623047" xlink:href="#DejaVuSans-48"/>
      </g>
     </g>
    </g>
    <g id="xtick_3">
     <g id="line2d_3">
      <g>
       <use style="stroke:#000000;stroke-width:0.8;" x="197.57408" xlink:href="#m96d1628a3d" y="137.71551"/>
      </g>
     </g>
     <g id="text_3">
      <!-- 100 -->
      <defs>
       <path d="M 12.40625 8.296875 
L 28.515625 8.296875 
L 28.515625 63.921875 
L 10.984375 60.40625 
L 10.984375 69.390625 
L 28.421875 72.90625 
L 38.28125 72.90625 
L 38.28125 8.296875 
L 54.390625 8.296875 
L 54.390625 0 
L 12.40625 0 
z
" id="DejaVuSans-49"/>
      </defs>
      <g transform="translate(188.03033 152.313947)scale(0.1 -0.1)">
       <use xlink:href="#DejaVuSans-49"/>
       <use x="63.623047" xlink:href="#DejaVuSans-48"/>
       <use x="127.246094" xlink:href="#DejaVuSans-48"/>
      </g>
     </g>
    </g>
    <g id="text_4">
     <!-- Dias -->
     <defs>
      <path d="M 19.671875 64.796875 
L 19.671875 8.109375 
L 31.59375 8.109375 
Q 46.6875 8.109375 53.6875 14.9375 
Q 60.6875 21.78125 60.6875 36.53125 
Q 60.6875 51.171875 53.6875 57.984375 
Q 46.6875 64.796875 31.59375 64.796875 
z
M 9.8125 72.90625 
L 30.078125 72.90625 
Q 51.265625 72.90625 61.171875 64.09375 
Q 71.09375 55.28125 71.09375 36.53125 
Q 71.09375 17.671875 61.125 8.828125 
Q 51.171875 0 30.078125 0 
L 9.8125 0 
z
" id="DejaVuSans-68"/>
      <path d="M 9.421875 54.6875 
L 18.40625 54.6875 
L 18.40625 0 
L 9.421875 0 
z
M 9.421875 75.984375 
L 18.40625 75.984375 
L 18.40625 64.59375 
L 9.421875 64.59375 
z
" id="DejaVuSans-105"/>
      <path d="M 34.28125 27.484375 
Q 23.390625 27.484375 19.1875 25 
Q 14.984375 22.515625 14.984375 16.5 
Q 14.984375 11.71875 18.140625 8.90625 
Q 21.296875 6.109375 26.703125 6.109375 
Q 34.1875 6.109375 38.703125 11.40625 
Q 43.21875 16.703125 43.21875 25.484375 
L 43.21875 27.484375 
z
M 52.203125 31.203125 
L 52.203125 0 
L 43.21875 0 
L 43.21875 8.296875 
Q 40.140625 3.328125 35.546875 0.953125 
Q 30.953125 -1.421875 24.3125 -1.421875 
Q 15.921875 -1.421875 10.953125 3.296875 
Q 6 8.015625 6 15.921875 
Q 6 25.140625 12.171875 29.828125 
Q 18.359375 34.515625 30.609375 34.515625 
L 43.21875 34.515625 
L 43.21875 35.40625 
Q 43.21875 41.609375 39.140625 45 
Q 35.0625 48.390625 27.6875 48.390625 
Q 23 48.390625 18.546875 47.265625 
Q 14.109375 46.140625 10.015625 43.890625 
L 10.015625 52.203125 
Q 14.9375 54.109375 19.578125 55.046875 
Q 24.21875 56 28.609375 56 
Q 40.484375 56 46.34375 49.84375 
Q 52.203125 43.703125 52.203125 31.203125 
z
" id="DejaVuSans-97"/>
      <path d="M 44.28125 53.078125 
L 44.28125 44.578125 
Q 40.484375 46.53125 36.375 47.5 
Q 32.28125 48.484375 27.875 48.484375 
Q 21.1875 48.484375 17.84375 46.4375 
Q 14.5 44.390625 14.5 40.28125 
Q 14.5 37.15625 16.890625 35.375 
Q 19.28125 33.59375 26.515625 31.984375 
L 29.59375 31.296875 
Q 39.15625 29.25 43.1875 25.515625 
Q 47.21875 21.78125 47.21875 15.09375 
Q 47.21875 7.46875 41.1875 3.015625 
Q 35.15625 -1.421875 24.609375 -1.421875 
Q 20.21875 -1.421875 15.453125 -0.5625 
Q 10.6875 0.296875 5.421875 2 
L 5.421875 11.28125 
Q 10.40625 8.6875 15.234375 7.390625 
Q 20.0625 6.109375 24.8125 6.109375 
Q 31.15625 6.109375 34.5625 8.28125 
Q 37.984375 10.453125 37.984375 14.40625 
Q 37.984375 18.0625 35.515625 20.015625 
Q 33.0625 21.96875 24.703125 23.78125 
L 21.578125 24.515625 
Q 13.234375 26.265625 9.515625 29.90625 
Q 5.8125 33.546875 5.8125 39.890625 
Q 5.8125 47.609375 11.28125 51.796875 
Q 16.75 56 26.8125 56 
Q 31.78125 56 36.171875 55.265625 
Q 40.578125 54.546875 44.28125 53.078125 
z
" id="DejaVuSans-115"/>
     </defs>
     <g transform="translate(132.347307 165.992072)scale(0.1 -0.1)">
      <use xlink:href="#DejaVuSans-68"/>
      <use x="77.001953" xlink:href="#DejaVuSans-105"/>
      <use x="104.785156" xlink:href="#DejaVuSans-97"/>
      <use x="166.064453" xlink:href="#DejaVuSans-115"/>
     </g>
    </g>
   </g>
   <g id="matplotlib.axis_2">
    <g id="ytick_1">
     <g id="line2d_4">
      <defs>
       <path d="M 0 0 
L -3.5 0 
" id="mbc11c6d80f" style="stroke:#000000;stroke-width:0.8;"/>
      </defs>
      <g>
       <use style="stroke:#000000;stroke-width:0.8;" x="61.853365" xlink:href="#mbc11c6d80f" y="137.71551"/>
      </g>
     </g>
     <g id="text_5">
      <!-- 0 -->
      <g transform="translate(48.490865 141.514729)scale(0.1 -0.1)">
       <use xlink:href="#DejaVuSans-48"/>
      </g>
     </g>
    </g>
    <g id="ytick_2">
     <g id="line2d_5">
      <g>
       <use style="stroke:#000000;stroke-width:0.8;" x="61.853365" xlink:href="#mbc11c6d80f" y="112.237788"/>
      </g>
     </g>
     <g id="text_6">
      <!-- 50000 -->
      <g transform="translate(23.040865 116.037007)scale(0.1 -0.1)">
       <use xlink:href="#DejaVuSans-53"/>
       <use x="63.623047" xlink:href="#DejaVuSans-48"/>
       <use x="127.246094" xlink:href="#DejaVuSans-48"/>
       <use x="190.869141" xlink:href="#DejaVuSans-48"/>
       <use x="254.492188" xlink:href="#DejaVuSans-48"/>
      </g>
     </g>
    </g>
    <g id="ytick_3">
     <g id="line2d_6">
      <g>
       <use style="stroke:#000000;stroke-width:0.8;" x="61.853365" xlink:href="#mbc11c6d80f" y="86.760066"/>
      </g>
     </g>
     <g id="text_7">
      <!-- 100000 -->
      <g transform="translate(16.678365 90.559284)scale(0.1 -0.1)">
       <use xlink:href="#DejaVuSans-49"/>
       <use x="63.623047" xlink:href="#DejaVuSans-48"/>
       <use x="127.246094" xlink:href="#DejaVuSans-48"/>
       <use x="190.869141" xlink:href="#DejaVuSans-48"/>
       <use x="254.492188" xlink:href="#DejaVuSans-48"/>
       <use x="318.115234" xlink:href="#DejaVuSans-48"/>
      </g>
     </g>
    </g>
    <g id="ytick_4">
     <g id="line2d_7">
      <g>
       <use style="stroke:#000000;stroke-width:0.8;" x="61.853365" xlink:href="#mbc11c6d80f" y="61.282343"/>
      </g>
     </g>
     <g id="text_8">
      <!-- 150000 -->
      <g transform="translate(16.678365 65.081562)scale(0.1 -0.1)">
       <use xlink:href="#DejaVuSans-49"/>
       <use x="63.623047" xlink:href="#DejaVuSans-53"/>
       <use x="127.246094" xlink:href="#DejaVuSans-48"/>
       <use x="190.869141" xlink:href="#DejaVuSans-48"/>
       <use x="254.492188" xlink:href="#DejaVuSans-48"/>
       <use x="318.115234" xlink:href="#DejaVuSans-48"/>
      </g>
     </g>
    </g>
    <g id="ytick_5">
     <g id="line2d_8">
      <g>
       <use style="stroke:#000000;stroke-width:0.8;" x="61.853365" xlink:href="#mbc11c6d80f" y="35.804621"/>
      </g>
     </g>
     <g id="text_9">
      <!-- 200000 -->
      <defs>
       <path d="M 19.1875 8.296875 
L 53.609375 8.296875 
L 53.609375 0 
L 7.328125 0 
L 7.328125 8.296875 
Q 12.9375 14.109375 22.625 23.890625 
Q 32.328125 33.6875 34.8125 36.53125 
Q 39.546875 41.84375 41.421875 45.53125 
Q 43.3125 49.21875 43.3125 52.78125 
Q 43.3125 58.59375 39.234375 62.25 
Q 35.15625 65.921875 28.609375 65.921875 
Q 23.96875 65.921875 18.8125 64.3125 
Q 13.671875 62.703125 7.8125 59.421875 
L 7.8125 69.390625 
Q 13.765625 71.78125 18.9375 73 
Q 24.125 74.21875 28.421875 74.21875 
Q 39.75 74.21875 46.484375 68.546875 
Q 53.21875 62.890625 53.21875 53.421875 
Q 53.21875 48.921875 51.53125 44.890625 
Q 49.859375 40.875 45.40625 35.40625 
Q 44.1875 33.984375 37.640625 27.21875 
Q 31.109375 20.453125 19.1875 8.296875 
z
" id="DejaVuSans-50"/>
      </defs>
      <g transform="translate(16.678365 39.60384)scale(0.1 -0.1)">
       <use xlink:href="#DejaVuSans-50"/>
       <use x="63.623047" xlink:href="#DejaVuSans-48"/>
       <use x="127.246094" xlink:href="#DejaVuSans-48"/>
       <use x="190.869141" xlink:href="#DejaVuSans-48"/>
       <use x="254.492188" xlink:href="#DejaVuSans-48"/>
       <use x="318.115234" xlink:href="#DejaVuSans-48"/>
      </g>
     </g>
    </g>
    <g id="text_10">
     <!-- Casos -->
     <defs>
      <path d="M 64.40625 67.28125 
L 64.40625 56.890625 
Q 59.421875 61.53125 53.78125 63.8125 
Q 48.140625 66.109375 41.796875 66.109375 
Q 29.296875 66.109375 22.65625 58.46875 
Q 16.015625 50.828125 16.015625 36.375 
Q 16.015625 21.96875 22.65625 14.328125 
Q 29.296875 6.6875 41.796875 6.6875 
Q 48.140625 6.6875 53.78125 8.984375 
Q 59.421875 11.28125 64.40625 15.921875 
L 64.40625 5.609375 
Q 59.234375 2.09375 53.4375 0.328125 
Q 47.65625 -1.421875 41.21875 -1.421875 
Q 24.65625 -1.421875 15.125 8.703125 
Q 5.609375 18.84375 5.609375 36.375 
Q 5.609375 53.953125 15.125 64.078125 
Q 24.65625 74.21875 41.21875 74.21875 
Q 47.75 74.21875 53.53125 72.484375 
Q 59.328125 70.75 64.40625 67.28125 
z
" id="DejaVuSans-67"/>
      <path d="M 30.609375 48.390625 
Q 23.390625 48.390625 19.1875 42.75 
Q 14.984375 37.109375 14.984375 27.296875 
Q 14.984375 17.484375 19.15625 11.84375 
Q 23.34375 6.203125 30.609375 6.203125 
Q 37.796875 6.203125 41.984375 11.859375 
Q 46.1875 17.53125 46.1875 27.296875 
Q 46.1875 37.015625 41.984375 42.703125 
Q 37.796875 48.390625 30.609375 48.390625 
z
M 30.609375 56 
Q 42.328125 56 49.015625 48.375 
Q 55.71875 40.765625 55.71875 27.296875 
Q 55.71875 13.875 49.015625 6.21875 
Q 42.328125 -1.421875 30.609375 -1.421875 
Q 18.84375 -1.421875 12.171875 6.21875 
Q 5.515625 13.875 5.515625 27.296875 
Q 5.515625 40.765625 12.171875 48.375 
Q 18.84375 56 30.609375 56 
z
" id="DejaVuSans-111"/>
     </defs>
     <g transform="translate(10.598678 92.741156)rotate(-90)scale(0.1 -0.1)">
      <use xlink:href="#DejaVuSans-67"/>
      <use x="69.824219" xlink:href="#DejaVuSans-97"/>
      <use x="131.103516" xlink:href="#DejaVuSans-115"/>
      <use x="183.203125" xlink:href="#DejaVuSans-111"/>
      <use x="244.384766" xlink:href="#DejaVuSans-115"/>
     </g>
    </g>
   </g>
   <g id="line2d_9">
    <path clip-path="url(#p0e5f32a081)" d="M 69.764762 137.714721 
L 71.042855 137.714493 
L 72.320948 137.714168 
L 73.599041 137.713729 
L 74.877134 137.713146 
L 76.155228 137.712371 
L 77.433321 137.711337 
L 78.711414 137.709953 
L 79.989507 137.7081 
L 81.2676 137.705627 
L 82.545694 137.702335 
L 83.823787 137.697967 
L 85.10188 137.692228 
L 86.379973 137.684777 
L 87.658066 137.675217 
L 88.936159 137.663136 
L 90.214253 137.648093 
L 91.492346 137.629661 
L 92.770439 137.607432 
L 94.048532 137.581064 
L 95.326625 137.550348 
L 96.604719 137.515071 
L 97.882812 137.474838 
L 99.160905 137.429075 
L 100.438998 137.376927 
L 101.717091 137.317254 
L 102.995184 137.248474 
L 104.273278 137.168437 
L 105.551371 137.07488 
L 106.829464 136.965742 
L 108.107557 136.839249 
L 109.38565 136.694084 
L 110.663743 136.52952 
L 111.941837 136.345556 
L 113.21993 136.1431 
L 114.498023 135.923569 
L 115.776116 135.688617 
L 117.054209 135.44016 
L 118.332303 135.180163 
L 119.610396 134.910199 
L 120.888489 134.63146 
L 122.166582 134.344529 
L 123.444675 134.049256 
L 124.722768 133.745295 
L 126.000862 133.431796 
L 127.278955 133.10774 
L 128.557048 132.772432 
L 129.835141 132.425357 
L 131.113234 132.066254 
L 132.391327 131.695216 
L 133.669421 131.311292 
L 134.947514 130.912529 
L 136.225607 130.495425 
L 137.5037 130.055349 
L 138.781793 129.586796 
L 140.059887 129.083805 
L 141.33798 128.54075 
L 142.616073 127.953868 
L 143.894166 127.322198 
L 145.172259 126.648147 
L 146.450352 125.935693 
L 147.728446 125.19002 
L 149.006539 124.416706 
L 150.284632 123.620569 
L 151.562725 122.805573 
L 152.840818 121.973272 
L 154.118912 121.122066 
L 155.397005 120.249413 
L 156.675098 119.352214 
L 157.953191 118.427486 
L 159.231284 117.472531 
L 160.509377 116.48383 
L 161.787471 115.458263 
L 163.065564 114.394692 
L 164.343657 113.292487 
L 165.62175 112.151217 
L 166.899843 110.970217 
L 168.177936 109.749632 
L 169.45603 108.491439 
L 170.734123 107.198546 
L 172.012216 105.872292 
L 173.290309 104.51284 
L 174.568402 103.119267 
L 175.846496 101.690044 
L 177.124589 100.220803 
L 178.402682 98.703321 
L 179.680775 97.127049 
L 180.958868 95.481887 
L 182.236961 93.758793 
L 183.515055 91.950147 
L 184.793148 90.049383 
L 186.071241 88.054858 
L 187.349334 85.971099 
L 188.627427 83.806823 
L 189.90552 81.572899 
L 191.183614 79.28179 
L 192.461707 76.946428 
L 193.7398 74.579864 
L 195.017893 72.190602 
L 196.295986 69.783098 
L 197.57408 67.360102 
L 198.852173 64.920526 
L 200.130266 62.459127 
L 201.408359 59.968925 
L 202.686452 57.439038 
L 203.964545 54.859676 
L 205.242639 52.218262 
L 206.520732 49.495204 
L 207.798825 46.673501 
L 209.076918 43.738479 
L 210.355011 40.681738 
L 211.633105 37.5008 
L 212.911198 34.194083 
L 214.189291 30.805235 
L 215.467384 27.342416 
L 216.745477 23.813467 
" style="fill:none;stroke:#ff0000;stroke-linecap:square;stroke-width:1.5;"/>
   </g>
   <g id="patch_119">
    <path d="M 61.853365 137.71551 
L 61.853365 18.118365 
" style="fill:none;stroke:#000000;stroke-linecap:square;stroke-linejoin:miter;stroke-width:0.8;"/>
   </g>
   <g id="patch_120">
    <path d="M 224.656874 137.71551 
L 224.656874 18.118365 
" style="fill:none;stroke:#000000;stroke-linecap:square;stroke-linejoin:miter;stroke-width:0.8;"/>
   </g>
   <g id="patch_121">
    <path d="M 61.853365 137.71551 
L 224.656874 137.71551 
" style="fill:none;stroke:#000000;stroke-linecap:square;stroke-linejoin:miter;stroke-width:0.8;"/>
   </g>
   <g id="patch_122">
    <path d="M 61.853365 18.118365 
L 224.656874 18.118365 
" style="fill:none;stroke:#000000;stroke-linecap:square;stroke-linejoin:miter;stroke-width:0.8;"/>
   </g>
   <g id="text_11">
    <!-- Casos acumulados - SP -->
    <defs>
     <path id="DejaVuSans-32"/>
     <path d="M 48.78125 52.59375 
L 48.78125 44.1875 
Q 44.96875 46.296875 41.140625 47.34375 
Q 37.3125 48.390625 33.40625 48.390625 
Q 24.65625 48.390625 19.8125 42.84375 
Q 14.984375 37.3125 14.984375 27.296875 
Q 14.984375 17.28125 19.8125 11.734375 
Q 24.65625 6.203125 33.40625 6.203125 
Q 37.3125 6.203125 41.140625 7.25 
Q 44.96875 8.296875 48.78125 10.40625 
L 48.78125 2.09375 
Q 45.015625 0.34375 40.984375 -0.53125 
Q 36.96875 -1.421875 32.421875 -1.421875 
Q 20.0625 -1.421875 12.78125 6.34375 
Q 5.515625 14.109375 5.515625 27.296875 
Q 5.515625 40.671875 12.859375 48.328125 
Q 20.21875 56 33.015625 56 
Q 37.15625 56 41.109375 55.140625 
Q 45.0625 54.296875 48.78125 52.59375 
z
" id="DejaVuSans-99"/>
     <path d="M 8.5 21.578125 
L 8.5 54.6875 
L 17.484375 54.6875 
L 17.484375 21.921875 
Q 17.484375 14.15625 20.5 10.265625 
Q 23.53125 6.390625 29.59375 6.390625 
Q 36.859375 6.390625 41.078125 11.03125 
Q 45.3125 15.671875 45.3125 23.6875 
L 45.3125 54.6875 
L 54.296875 54.6875 
L 54.296875 0 
L 45.3125 0 
L 45.3125 8.40625 
Q 42.046875 3.421875 37.71875 1 
Q 33.40625 -1.421875 27.6875 -1.421875 
Q 18.265625 -1.421875 13.375 4.4375 
Q 8.5 10.296875 8.5 21.578125 
z
M 31.109375 56 
z
" id="DejaVuSans-117"/>
     <path d="M 52 44.1875 
Q 55.375 50.25 60.0625 53.125 
Q 64.75 56 71.09375 56 
Q 79.640625 56 84.28125 50.015625 
Q 88.921875 44.046875 88.921875 33.015625 
L 88.921875 0 
L 79.890625 0 
L 79.890625 32.71875 
Q 79.890625 40.578125 77.09375 44.375 
Q 74.3125 48.1875 68.609375 48.1875 
Q 61.625 48.1875 57.5625 43.546875 
Q 53.515625 38.921875 53.515625 30.90625 
L 53.515625 0 
L 44.484375 0 
L 44.484375 32.71875 
Q 44.484375 40.625 41.703125 44.40625 
Q 38.921875 48.1875 33.109375 48.1875 
Q 26.21875 48.1875 22.15625 43.53125 
Q 18.109375 38.875 18.109375 30.90625 
L 18.109375 0 
L 9.078125 0 
L 9.078125 54.6875 
L 18.109375 54.6875 
L 18.109375 46.1875 
Q 21.1875 51.21875 25.484375 53.609375 
Q 29.78125 56 35.6875 56 
Q 41.65625 56 45.828125 52.96875 
Q 50 49.953125 52 44.1875 
z
" id="DejaVuSans-109"/>
     <path d="M 9.421875 75.984375 
L 18.40625 75.984375 
L 18.40625 0 
L 9.421875 0 
z
" id="DejaVuSans-108"/>
     <path d="M 45.40625 46.390625 
L 45.40625 75.984375 
L 54.390625 75.984375 
L 54.390625 0 
L 45.40625 0 
L 45.40625 8.203125 
Q 42.578125 3.328125 38.25 0.953125 
Q 33.9375 -1.421875 27.875 -1.421875 
Q 17.96875 -1.421875 11.734375 6.484375 
Q 5.515625 14.40625 5.515625 27.296875 
Q 5.515625 40.1875 11.734375 48.09375 
Q 17.96875 56 27.875 56 
Q 33.9375 56 38.25 53.625 
Q 42.578125 51.265625 45.40625 46.390625 
z
M 14.796875 27.296875 
Q 14.796875 17.390625 18.875 11.75 
Q 22.953125 6.109375 30.078125 6.109375 
Q 37.203125 6.109375 41.296875 11.75 
Q 45.40625 17.390625 45.40625 27.296875 
Q 45.40625 37.203125 41.296875 42.84375 
Q 37.203125 48.484375 30.078125 48.484375 
Q 22.953125 48.484375 18.875 42.84375 
Q 14.796875 37.203125 14.796875 27.296875 
z
" id="DejaVuSans-100"/>
     <path d="M 4.890625 31.390625 
L 31.203125 31.390625 
L 31.203125 23.390625 
L 4.890625 23.390625 
z
" id="DejaVuSans-45"/>
     <path d="M 53.515625 70.515625 
L 53.515625 60.890625 
Q 47.90625 63.578125 42.921875 64.890625 
Q 37.9375 66.21875 33.296875 66.21875 
Q 25.25 66.21875 20.875 63.09375 
Q 16.5 59.96875 16.5 54.203125 
Q 16.5 49.359375 19.40625 46.890625 
Q 22.3125 44.4375 30.421875 42.921875 
L 36.375 41.703125 
Q 47.40625 39.59375 52.65625 34.296875 
Q 57.90625 29 57.90625 20.125 
Q 57.90625 9.515625 50.796875 4.046875 
Q 43.703125 -1.421875 29.984375 -1.421875 
Q 24.8125 -1.421875 18.96875 -0.25 
Q 13.140625 0.921875 6.890625 3.21875 
L 6.890625 13.375 
Q 12.890625 10.015625 18.65625 8.296875 
Q 24.421875 6.59375 29.984375 6.59375 
Q 38.421875 6.59375 43.015625 9.90625 
Q 47.609375 13.234375 47.609375 19.390625 
Q 47.609375 24.75 44.3125 27.78125 
Q 41.015625 30.8125 33.5 32.328125 
L 27.484375 33.5 
Q 16.453125 35.6875 11.515625 40.375 
Q 6.59375 45.0625 6.59375 53.421875 
Q 6.59375 63.09375 13.40625 68.65625 
Q 20.21875 74.21875 32.171875 74.21875 
Q 37.3125 74.21875 42.625 73.28125 
Q 47.953125 72.359375 53.515625 70.515625 
z
" id="DejaVuSans-83"/>
     <path d="M 19.671875 64.796875 
L 19.671875 37.40625 
L 32.078125 37.40625 
Q 38.96875 37.40625 42.71875 40.96875 
Q 46.484375 44.53125 46.484375 51.125 
Q 46.484375 57.671875 42.71875 61.234375 
Q 38.96875 64.796875 32.078125 64.796875 
z
M 9.8125 72.90625 
L 32.078125 72.90625 
Q 44.34375 72.90625 50.609375 67.359375 
Q 56.890625 61.8125 56.890625 51.125 
Q 56.890625 40.328125 50.609375 34.8125 
Q 44.34375 29.296875 32.078125 29.296875 
L 19.671875 29.296875 
L 19.671875 0 
L 9.8125 0 
z
" id="DejaVuSans-80"/>
    </defs>
    <g transform="translate(73.77887 12.118365)scale(0.12 -0.12)">
     <use xlink:href="#DejaVuSans-67"/>
     <use x="69.824219" xlink:href="#DejaVuSans-97"/>
     <use x="131.103516" xlink:href="#DejaVuSans-115"/>
     <use x="183.203125" xlink:href="#DejaVuSans-111"/>
     <use x="244.384766" xlink:href="#DejaVuSans-115"/>
     <use x="296.484375" xlink:href="#DejaVuSans-32"/>
     <use x="328.271484" xlink:href="#DejaVuSans-97"/>
     <use x="389.550781" xlink:href="#DejaVuSans-99"/>
     <use x="444.53125" xlink:href="#DejaVuSans-117"/>
     <use x="507.910156" xlink:href="#DejaVuSans-109"/>
     <use x="605.322266" xlink:href="#DejaVuSans-117"/>
     <use x="668.701172" xlink:href="#DejaVuSans-108"/>
     <use x="696.484375" xlink:href="#DejaVuSans-97"/>
     <use x="757.763672" xlink:href="#DejaVuSans-100"/>
     <use x="821.240234" xlink:href="#DejaVuSans-111"/>
     <use x="882.421875" xlink:href="#DejaVuSans-115"/>
     <use x="934.521484" xlink:href="#DejaVuSans-32"/>
     <use x="966.308594" xlink:href="#DejaVuSans-45"/>
     <use x="1002.392578" xlink:href="#DejaVuSans-32"/>
     <use x="1034.179688" xlink:href="#DejaVuSans-83"/>
     <use x="1097.65625" xlink:href="#DejaVuSans-80"/>
    </g>
   </g>
  </g>
  <g id="axes_2">
   <g id="patch_123">
    <path d="M 287.755979 137.71551 
L 450.559488 137.71551 
L 450.559488 18.118365 
L 287.755979 18.118365 
z
" style="fill:#ffffff;"/>
   </g>
   <g id="patch_124">
    <path clip-path="url(#p544d5854ad)" d="M 295.156139 137.71551 
L 296.178613 137.71551 
L 296.178613 137.71551 
L 295.156139 137.71551 
z
" style="fill:#1f77b4;"/>
   </g>
   <g id="patch_125">
    <path clip-path="url(#p544d5854ad)" d="M 296.434232 137.71551 
L 297.456706 137.71551 
L 297.456706 137.71551 
L 296.434232 137.71551 
z
" style="fill:#1f77b4;"/>
   </g>
   <g id="patch_126">
    <path clip-path="url(#p544d5854ad)" d="M 297.712325 137.71551 
L 298.734799 137.71551 
L 298.734799 137.709525 
L 297.712325 137.709525 
z
" style="fill:#1f77b4;"/>
   </g>
   <g id="patch_127">
    <path clip-path="url(#p544d5854ad)" d="M 298.990418 137.71551 
L 300.012893 137.71551 
L 300.012893 137.71551 
L 298.990418 137.71551 
z
" style="fill:#1f77b4;"/>
   </g>
   <g id="patch_128">
    <path clip-path="url(#p544d5854ad)" d="M 300.268511 137.71551 
L 301.290986 137.71551 
L 301.290986 137.71551 
L 300.268511 137.71551 
z
" style="fill:#1f77b4;"/>
   </g>
   <g id="patch_129">
    <path clip-path="url(#p544d5854ad)" d="M 301.546604 137.71551 
L 302.569079 137.71551 
L 302.569079 137.71551 
L 301.546604 137.71551 
z
" style="fill:#1f77b4;"/>
   </g>
   <g id="patch_130">
    <path clip-path="url(#p544d5854ad)" d="M 302.824698 137.71551 
L 303.847172 137.71551 
L 303.847172 137.709525 
L 302.824698 137.709525 
z
" style="fill:#1f77b4;"/>
   </g>
   <g id="patch_131">
    <path clip-path="url(#p544d5854ad)" d="M 304.102791 137.71551 
L 305.125265 137.71551 
L 305.125265 137.697554 
L 304.102791 137.697554 
z
" style="fill:#1f77b4;"/>
   </g>
   <g id="patch_132">
    <path clip-path="url(#p544d5854ad)" d="M 305.380884 137.71551 
L 306.403358 137.71551 
L 306.403358 137.691568 
L 305.380884 137.691568 
z
" style="fill:#1f77b4;"/>
   </g>
   <g id="patch_133">
    <path clip-path="url(#p544d5854ad)" d="M 306.658977 137.71551 
L 307.681452 137.71551 
L 307.681452 137.697554 
L 306.658977 137.697554 
z
" style="fill:#1f77b4;"/>
   </g>
   <g id="patch_134">
    <path clip-path="url(#p544d5854ad)" d="M 307.93707 137.71551 
L 308.959545 137.71551 
L 308.959545 137.697554 
L 307.93707 137.697554 
z
" style="fill:#1f77b4;"/>
   </g>
   <g id="patch_135">
    <path clip-path="url(#p544d5854ad)" d="M 309.215163 137.71551 
L 310.237638 137.71551 
L 310.237638 137.71551 
L 309.215163 137.71551 
z
" style="fill:#1f77b4;"/>
   </g>
   <g id="patch_136">
    <path clip-path="url(#p544d5854ad)" d="M 310.493257 137.71551 
L 311.515731 137.71551 
L 311.515731 137.697554 
L 310.493257 137.697554 
z
" style="fill:#1f77b4;"/>
   </g>
   <g id="patch_137">
    <path clip-path="url(#p544d5854ad)" d="M 311.77135 137.71551 
L 312.793824 137.71551 
L 312.793824 137.649671 
L 311.77135 137.649671 
z
" style="fill:#1f77b4;"/>
   </g>
   <g id="patch_138">
    <path clip-path="url(#p544d5854ad)" d="M 313.049443 137.71551 
L 314.071918 137.71551 
L 314.071918 137.643685 
L 313.049443 137.643685 
z
" style="fill:#1f77b4;"/>
   </g>
   <g id="patch_139">
    <path clip-path="url(#p544d5854ad)" d="M 314.327536 137.71551 
L 315.350011 137.71551 
L 315.350011 137.631714 
L 314.327536 137.631714 
z
" style="fill:#1f77b4;"/>
   </g>
   <g id="patch_140">
    <path clip-path="url(#p544d5854ad)" d="M 315.605629 137.71551 
L 316.628104 137.71551 
L 316.628104 137.661641 
L 315.605629 137.661641 
z
" style="fill:#1f77b4;"/>
   </g>
   <g id="patch_141">
    <path clip-path="url(#p544d5854ad)" d="M 316.883723 137.71551 
L 317.906197 137.71551 
L 317.906197 137.290547 
L 316.883723 137.290547 
z
" style="fill:#1f77b4;"/>
   </g>
   <g id="patch_142">
    <path clip-path="url(#p544d5854ad)" d="M 318.161816 137.71551 
L 319.18429 137.71551 
L 319.18429 137.619744 
L 318.161816 137.619744 
z
" style="fill:#1f77b4;"/>
   </g>
   <g id="patch_143">
    <path clip-path="url(#p544d5854ad)" d="M 319.439909 137.71551 
L 320.462383 137.71551 
L 320.462383 137.643685 
L 319.439909 137.643685 
z
" style="fill:#1f77b4;"/>
   </g>
   <g id="patch_144">
    <path clip-path="url(#p544d5854ad)" d="M 320.718002 137.71551 
L 321.740477 137.71551 
L 321.740477 137.26062 
L 320.718002 137.26062 
z
" style="fill:#1f77b4;"/>
   </g>
   <g id="patch_145">
    <path clip-path="url(#p544d5854ad)" d="M 321.996095 137.71551 
L 323.01857 137.71551 
L 323.01857 137.440182 
L 321.996095 137.440182 
z
" style="fill:#1f77b4;"/>
   </g>
   <g id="patch_146">
    <path clip-path="url(#p544d5854ad)" d="M 323.274188 137.71551 
L 324.296663 137.71551 
L 324.296663 137.057117 
L 323.274188 137.057117 
z
" style="fill:#1f77b4;"/>
   </g>
   <g id="patch_147">
    <path clip-path="url(#p544d5854ad)" d="M 324.552282 137.71551 
L 325.574756 137.71551 
L 325.574756 137.33843 
L 324.552282 137.33843 
z
" style="fill:#1f77b4;"/>
   </g>
   <g id="patch_148">
    <path clip-path="url(#p544d5854ad)" d="M 325.830375 137.71551 
L 326.852849 137.71551 
L 326.852849 136.686022 
L 325.830375 136.686022 
z
" style="fill:#1f77b4;"/>
   </g>
   <g id="patch_149">
    <path clip-path="url(#p544d5854ad)" d="M 327.108468 137.71551 
L 328.130942 137.71551 
L 328.130942 137.033175 
L 327.108468 137.033175 
z
" style="fill:#1f77b4;"/>
   </g>
   <g id="patch_150">
    <path clip-path="url(#p544d5854ad)" d="M 328.386561 137.71551 
L 329.409036 137.71551 
L 329.409036 137.326459 
L 328.386561 137.326459 
z
" style="fill:#1f77b4;"/>
   </g>
   <g id="patch_151">
    <path clip-path="url(#p544d5854ad)" d="M 329.664654 137.71551 
L 330.687129 137.71551 
L 330.687129 137.40427 
L 329.664654 137.40427 
z
" style="fill:#1f77b4;"/>
   </g>
   <g id="patch_152">
    <path clip-path="url(#p544d5854ad)" d="M 330.942747 137.71551 
L 331.965222 137.71551 
L 331.965222 136.578285 
L 330.942747 136.578285 
z
" style="fill:#1f77b4;"/>
   </g>
   <g id="patch_153">
    <path clip-path="url(#p544d5854ad)" d="M 332.220841 137.71551 
L 333.243315 137.71551 
L 333.243315 136.692008 
L 332.220841 136.692008 
z
" style="fill:#1f77b4;"/>
   </g>
   <g id="patch_154">
    <path clip-path="url(#p544d5854ad)" d="M 333.498934 137.71551 
L 334.521408 137.71551 
L 334.521408 136.620183 
L 333.498934 136.620183 
z
" style="fill:#1f77b4;"/>
   </g>
   <g id="patch_155">
    <path clip-path="url(#p544d5854ad)" d="M 334.777027 137.71551 
L 335.799502 137.71551 
L 335.799502 137.446167 
L 334.777027 137.446167 
z
" style="fill:#1f77b4;"/>
   </g>
   <g id="patch_156">
    <path clip-path="url(#p544d5854ad)" d="M 336.05512 137.71551 
L 337.077595 137.71551 
L 337.077595 137.320474 
L 336.05512 137.320474 
z
" style="fill:#1f77b4;"/>
   </g>
   <g id="patch_157">
    <path clip-path="url(#p544d5854ad)" d="M 337.333213 137.71551 
L 338.355688 137.71551 
L 338.355688 132.795516 
L 337.333213 132.795516 
z
" style="fill:#1f77b4;"/>
   </g>
   <g id="patch_158">
    <path clip-path="url(#p544d5854ad)" d="M 338.611307 137.71551 
L 339.633781 137.71551 
L 339.633781 133.872887 
L 338.611307 133.872887 
z
" style="fill:#1f77b4;"/>
   </g>
   <g id="patch_159">
    <path clip-path="url(#p544d5854ad)" d="M 339.8894 137.71551 
L 340.911874 137.71551 
L 340.911874 134.573178 
L 339.8894 134.573178 
z
" style="fill:#1f77b4;"/>
   </g>
   <g id="patch_160">
    <path clip-path="url(#p544d5854ad)" d="M 341.167493 137.71551 
L 342.189967 137.71551 
L 342.189967 134.471427 
L 341.167493 134.471427 
z
" style="fill:#1f77b4;"/>
   </g>
   <g id="patch_161">
    <path clip-path="url(#p544d5854ad)" d="M 342.445586 137.71551 
L 343.468061 137.71551 
L 343.468061 135.213615 
L 342.445586 135.213615 
z
" style="fill:#1f77b4;"/>
   </g>
   <g id="patch_162">
    <path clip-path="url(#p544d5854ad)" d="M 343.723679 137.71551 
L 344.746154 137.71551 
L 344.746154 136.793759 
L 343.723679 136.793759 
z
" style="fill:#1f77b4;"/>
   </g>
   <g id="patch_163">
    <path clip-path="url(#p544d5854ad)" d="M 345.001772 137.71551 
L 346.024247 137.71551 
L 346.024247 136.243103 
L 345.001772 136.243103 
z
" style="fill:#1f77b4;"/>
   </g>
   <g id="patch_164">
    <path clip-path="url(#p544d5854ad)" d="M 346.279866 137.71551 
L 347.30234 137.71551 
L 347.30234 132.831429 
L 346.279866 132.831429 
z
" style="fill:#1f77b4;"/>
   </g>
   <g id="patch_165">
    <path clip-path="url(#p544d5854ad)" d="M 347.557959 137.71551 
L 348.580433 137.71551 
L 348.580433 131.574496 
L 347.557959 131.574496 
z
" style="fill:#1f77b4;"/>
   </g>
   <g id="patch_166">
    <path clip-path="url(#p544d5854ad)" d="M 348.836052 137.71551 
L 349.858527 137.71551 
L 349.858527 133.094786 
L 348.836052 133.094786 
z
" style="fill:#1f77b4;"/>
   </g>
   <g id="patch_167">
    <path clip-path="url(#p544d5854ad)" d="M 350.114145 137.71551 
L 351.13662 137.71551 
L 351.13662 133.31026 
L 350.114145 133.31026 
z
" style="fill:#1f77b4;"/>
   </g>
   <g id="patch_168">
    <path clip-path="url(#p544d5854ad)" d="M 351.392238 137.71551 
L 352.414713 137.71551 
L 352.414713 136.500475 
L 351.392238 136.500475 
z
" style="fill:#1f77b4;"/>
   </g>
   <g id="patch_169">
    <path clip-path="url(#p544d5854ad)" d="M 352.670332 137.71551 
L 353.692806 137.71551 
L 353.692806 135.704418 
L 352.670332 135.704418 
z
" style="fill:#1f77b4;"/>
   </g>
   <g id="patch_170">
    <path clip-path="url(#p544d5854ad)" d="M 353.948425 137.71551 
L 354.970899 137.71551 
L 354.970899 136.877555 
L 353.948425 136.877555 
z
" style="fill:#1f77b4;"/>
   </g>
   <g id="patch_171">
    <path clip-path="url(#p544d5854ad)" d="M 355.226518 137.71551 
L 356.248992 137.71551 
L 356.248992 134.866463 
L 355.226518 134.866463 
z
" style="fill:#1f77b4;"/>
   </g>
   <g id="patch_172">
    <path clip-path="url(#p544d5854ad)" d="M 356.504611 137.71551 
L 357.527086 137.71551 
L 357.527086 127.707932 
L 356.504611 127.707932 
z
" style="fill:#1f77b4;"/>
   </g>
   <g id="patch_173">
    <path clip-path="url(#p544d5854ad)" d="M 357.782704 137.71551 
L 358.805179 137.71551 
L 358.805179 134.573178 
L 357.782704 134.573178 
z
" style="fill:#1f77b4;"/>
   </g>
   <g id="patch_174">
    <path clip-path="url(#p544d5854ad)" d="M 359.060797 137.71551 
L 360.083272 137.71551 
L 360.083272 130.096104 
L 359.060797 130.096104 
z
" style="fill:#1f77b4;"/>
   </g>
   <g id="patch_175">
    <path clip-path="url(#p544d5854ad)" d="M 360.338891 137.71551 
L 361.361365 137.71551 
L 361.361365 131.41289 
L 360.338891 131.41289 
z
" style="fill:#1f77b4;"/>
   </g>
   <g id="patch_176">
    <path clip-path="url(#p544d5854ad)" d="M 361.616984 137.71551 
L 362.639458 137.71551 
L 362.639458 135.482958 
L 361.616984 135.482958 
z
" style="fill:#1f77b4;"/>
   </g>
   <g id="patch_177">
    <path clip-path="url(#p544d5854ad)" d="M 362.895077 137.71551 
L 363.917551 137.71551 
L 363.917551 135.842082 
L 362.895077 135.842082 
z
" style="fill:#1f77b4;"/>
   </g>
   <g id="patch_178">
    <path clip-path="url(#p544d5854ad)" d="M 364.17317 137.71551 
L 365.195645 137.71551 
L 365.195645 132.897268 
L 364.17317 132.897268 
z
" style="fill:#1f77b4;"/>
   </g>
   <g id="patch_179">
    <path clip-path="url(#p544d5854ad)" d="M 365.451263 137.71551 
L 366.473738 137.71551 
L 366.473738 134.549237 
L 365.451263 134.549237 
z
" style="fill:#1f77b4;"/>
   </g>
   <g id="patch_180">
    <path clip-path="url(#p544d5854ad)" d="M 366.729356 137.71551 
L 367.751831 137.71551 
L 367.751831 132.771575 
L 366.729356 132.771575 
z
" style="fill:#1f77b4;"/>
   </g>
   <g id="patch_181">
    <path clip-path="url(#p544d5854ad)" d="M 368.00745 137.71551 
L 369.029924 137.71551 
L 369.029924 131.215372 
L 368.00745 131.215372 
z
" style="fill:#1f77b4;"/>
   </g>
   <g id="patch_182">
    <path clip-path="url(#p544d5854ad)" d="M 369.285543 137.71551 
L 370.308017 137.71551 
L 370.308017 124.679322 
L 369.285543 124.679322 
z
" style="fill:#1f77b4;"/>
   </g>
   <g id="patch_183">
    <path clip-path="url(#p544d5854ad)" d="M 370.563636 137.71551 
L 371.586111 137.71551 
L 371.586111 133.459895 
L 370.563636 133.459895 
z
" style="fill:#1f77b4;"/>
   </g>
   <g id="patch_184">
    <path clip-path="url(#p544d5854ad)" d="M 371.841729 137.71551 
L 372.864204 137.71551 
L 372.864204 131.843839 
L 371.841729 131.843839 
z
" style="fill:#1f77b4;"/>
   </g>
   <g id="patch_185">
    <path clip-path="url(#p544d5854ad)" d="M 373.119822 137.71551 
L 374.142297 137.71551 
L 374.142297 123.679762 
L 373.119822 123.679762 
z
" style="fill:#1f77b4;"/>
   </g>
   <g id="patch_186">
    <path clip-path="url(#p544d5854ad)" d="M 374.397916 137.71551 
L 375.42039 137.71551 
L 375.42039 125.044431 
L 374.397916 125.044431 
z
" style="fill:#1f77b4;"/>
   </g>
   <g id="patch_187">
    <path clip-path="url(#p544d5854ad)" d="M 375.676009 137.71551 
L 376.698483 137.71551 
L 376.698483 122.51261 
L 375.676009 122.51261 
z
" style="fill:#1f77b4;"/>
   </g>
   <g id="patch_188">
    <path clip-path="url(#p544d5854ad)" d="M 376.954102 137.71551 
L 377.976576 137.71551 
L 377.976576 127.68399 
L 376.954102 127.68399 
z
" style="fill:#1f77b4;"/>
   </g>
   <g id="patch_189">
    <path clip-path="url(#p544d5854ad)" d="M 378.232195 137.71551 
L 379.25467 137.71551 
L 379.25467 132.927195 
L 378.232195 132.927195 
z
" style="fill:#1f77b4;"/>
   </g>
   <g id="patch_190">
    <path clip-path="url(#p544d5854ad)" d="M 379.510288 137.71551 
L 380.532763 137.71551 
L 380.532763 134.136245 
L 379.510288 134.136245 
z
" style="fill:#1f77b4;"/>
   </g>
   <g id="patch_191">
    <path clip-path="url(#p544d5854ad)" d="M 380.788381 137.71551 
L 381.810856 137.71551 
L 381.810856 135.231572 
L 380.788381 135.231572 
z
" style="fill:#1f77b4;"/>
   </g>
   <g id="patch_192">
    <path clip-path="url(#p544d5854ad)" d="M 382.066475 137.71551 
L 383.088949 137.71551 
L 383.088949 126.546765 
L 382.066475 126.546765 
z
" style="fill:#1f77b4;"/>
   </g>
   <g id="patch_193">
    <path clip-path="url(#p544d5854ad)" d="M 383.344568 137.71551 
L 384.367042 137.71551 
L 384.367042 114.971014 
L 383.344568 114.971014 
z
" style="fill:#1f77b4;"/>
   </g>
   <g id="patch_194">
    <path clip-path="url(#p544d5854ad)" d="M 384.622661 137.71551 
L 385.645136 137.71551 
L 385.645136 125.295818 
L 384.622661 125.295818 
z
" style="fill:#1f77b4;"/>
   </g>
   <g id="patch_195">
    <path clip-path="url(#p544d5854ad)" d="M 385.900754 137.71551 
L 386.923229 137.71551 
L 386.923229 126.331291 
L 385.900754 126.331291 
z
" style="fill:#1f77b4;"/>
   </g>
   <g id="patch_196">
    <path clip-path="url(#p544d5854ad)" d="M 387.178847 137.71551 
L 388.201322 137.71551 
L 388.201322 122.267209 
L 387.178847 122.267209 
z
" style="fill:#1f77b4;"/>
   </g>
   <g id="patch_197">
    <path clip-path="url(#p544d5854ad)" d="M 388.45694 137.71551 
L 389.479415 137.71551 
L 389.479415 131.532598 
L 388.45694 131.532598 
z
" style="fill:#1f77b4;"/>
   </g>
   <g id="patch_198">
    <path clip-path="url(#p544d5854ad)" d="M 389.735034 137.71551 
L 390.757508 137.71551 
L 390.757508 133.603545 
L 389.735034 133.603545 
z
" style="fill:#1f77b4;"/>
   </g>
   <g id="patch_199">
    <path clip-path="url(#p544d5854ad)" d="M 391.013127 137.71551 
L 392.035601 137.71551 
L 392.035601 128.210705 
L 391.013127 128.210705 
z
" style="fill:#1f77b4;"/>
   </g>
   <g id="patch_200">
    <path clip-path="url(#p544d5854ad)" d="M 392.29122 137.71551 
L 393.313695 137.71551 
L 393.313695 117.49685 
L 392.29122 117.49685 
z
" style="fill:#1f77b4;"/>
   </g>
   <g id="patch_201">
    <path clip-path="url(#p544d5854ad)" d="M 393.569313 137.71551 
L 394.591788 137.71551 
L 394.591788 118.628089 
L 393.569313 118.628089 
z
" style="fill:#1f77b4;"/>
   </g>
   <g id="patch_202">
    <path clip-path="url(#p544d5854ad)" d="M 394.847406 137.71551 
L 395.869881 137.71551 
L 395.869881 113.223279 
L 394.847406 113.223279 
z
" style="fill:#1f77b4;"/>
   </g>
   <g id="patch_203">
    <path clip-path="url(#p544d5854ad)" d="M 396.1255 137.71551 
L 397.147974 137.71551 
L 397.147974 120.926481 
L 396.1255 120.926481 
z
" style="fill:#1f77b4;"/>
   </g>
   <g id="patch_204">
    <path clip-path="url(#p544d5854ad)" d="M 397.403593 137.71551 
L 398.426067 137.71551 
L 398.426067 130.760482 
L 397.403593 130.760482 
z
" style="fill:#1f77b4;"/>
   </g>
   <g id="patch_205">
    <path clip-path="url(#p544d5854ad)" d="M 398.681686 137.71551 
L 399.70416 137.71551 
L 399.70416 133.400041 
L 398.681686 133.400041 
z
" style="fill:#1f77b4;"/>
   </g>
   <g id="patch_206">
    <path clip-path="url(#p544d5854ad)" d="M 399.959779 137.71551 
L 400.982254 137.71551 
L 400.982254 120.184292 
L 399.959779 120.184292 
z
" style="fill:#1f77b4;"/>
   </g>
   <g id="patch_207">
    <path clip-path="url(#p544d5854ad)" d="M 401.237872 137.71551 
L 402.260347 137.71551 
L 402.260347 114.587949 
L 401.237872 114.587949 
z
" style="fill:#1f77b4;"/>
   </g>
   <g id="patch_208">
    <path clip-path="url(#p544d5854ad)" d="M 402.515965 137.71551 
L 403.53844 137.71551 
L 403.53844 114.492182 
L 402.515965 114.492182 
z
" style="fill:#1f77b4;"/>
   </g>
   <g id="patch_209">
    <path clip-path="url(#p544d5854ad)" d="M 403.794059 137.71551 
L 404.816533 137.71551 
L 404.816533 118.969257 
L 403.794059 118.969257 
z
" style="fill:#1f77b4;"/>
   </g>
   <g id="patch_210">
    <path clip-path="url(#p544d5854ad)" d="M 405.072152 137.71551 
L 406.094626 137.71551 
L 406.094626 115.647363 
L 405.072152 115.647363 
z
" style="fill:#1f77b4;"/>
   </g>
   <g id="patch_211">
    <path clip-path="url(#p544d5854ad)" d="M 406.350245 137.71551 
L 407.37272 137.71551 
L 407.37272 128.120924 
L 406.350245 128.120924 
z
" style="fill:#1f77b4;"/>
   </g>
   <g id="patch_212">
    <path clip-path="url(#p544d5854ad)" d="M 407.628338 137.71551 
L 408.650813 137.71551 
L 408.650813 128.952894 
L 407.628338 128.952894 
z
" style="fill:#1f77b4;"/>
   </g>
   <g id="patch_213">
    <path clip-path="url(#p544d5854ad)" d="M 408.906431 137.71551 
L 409.928906 137.71551 
L 409.928906 123.398448 
L 408.906431 123.398448 
z
" style="fill:#1f77b4;"/>
   </g>
   <g id="patch_214">
    <path clip-path="url(#p544d5854ad)" d="M 410.184525 137.71551 
L 411.206999 137.71551 
L 411.206999 116.970135 
L 410.184525 116.970135 
z
" style="fill:#1f77b4;"/>
   </g>
   <g id="patch_215">
    <path clip-path="url(#p544d5854ad)" d="M 411.462618 137.71551 
L 412.485092 137.71551 
L 412.485092 99.516727 
L 411.462618 99.516727 
z
" style="fill:#1f77b4;"/>
   </g>
   <g id="patch_216">
    <path clip-path="url(#p544d5854ad)" d="M 412.740711 137.71551 
L 413.763185 137.71551 
L 413.763185 103.652634 
L 412.740711 103.652634 
z
" style="fill:#1f77b4;"/>
   </g>
   <g id="patch_217">
    <path clip-path="url(#p544d5854ad)" d="M 414.018804 137.71551 
L 415.041279 137.71551 
L 415.041279 104.281101 
L 414.018804 104.281101 
z
" style="fill:#1f77b4;"/>
   </g>
   <g id="patch_218">
    <path clip-path="url(#p544d5854ad)" d="M 415.296897 137.71551 
L 416.319372 137.71551 
L 416.319372 122.416844 
L 415.296897 122.416844 
z
" style="fill:#1f77b4;"/>
   </g>
   <g id="patch_219">
    <path clip-path="url(#p544d5854ad)" d="M 416.57499 137.71551 
L 417.597465 137.71551 
L 417.597465 128.150851 
L 416.57499 128.150851 
z
" style="fill:#1f77b4;"/>
   </g>
   <g id="patch_220">
    <path clip-path="url(#p544d5854ad)" d="M 417.853084 137.71551 
L 418.875558 137.71551 
L 418.875558 95.823739 
L 417.853084 95.823739 
z
" style="fill:#1f77b4;"/>
   </g>
   <g id="patch_221">
    <path clip-path="url(#p544d5854ad)" d="M 419.131177 137.71551 
L 420.153651 137.71551 
L 420.153651 106.663287 
L 419.131177 106.663287 
z
" style="fill:#1f77b4;"/>
   </g>
   <g id="patch_222">
    <path clip-path="url(#p544d5854ad)" d="M 420.40927 137.71551 
L 421.431744 137.71551 
L 421.431744 103.497014 
L 420.40927 103.497014 
z
" style="fill:#1f77b4;"/>
   </g>
   <g id="patch_223">
    <path clip-path="url(#p544d5854ad)" d="M 421.687363 137.71551 
L 422.709838 137.71551 
L 422.709838 105.603873 
L 421.687363 105.603873 
z
" style="fill:#1f77b4;"/>
   </g>
   <g id="patch_224">
    <path clip-path="url(#p544d5854ad)" d="M 422.965456 137.71551 
L 423.987931 137.71551 
L 423.987931 101.898914 
L 422.965456 101.898914 
z
" style="fill:#1f77b4;"/>
   </g>
   <g id="patch_225">
    <path clip-path="url(#p544d5854ad)" d="M 424.243549 137.71551 
L 425.266024 137.71551 
L 425.266024 122.608376 
L 424.243549 122.608376 
z
" style="fill:#1f77b4;"/>
   </g>
   <g id="patch_226">
    <path clip-path="url(#p544d5854ad)" d="M 425.521643 137.71551 
L 426.544117 137.71551 
L 426.544117 128.617712 
L 425.521643 128.617712 
z
" style="fill:#1f77b4;"/>
   </g>
   <g id="patch_227">
    <path clip-path="url(#p544d5854ad)" d="M 426.799736 137.71551 
L 427.82221 137.71551 
L 427.82221 104.526502 
L 426.799736 104.526502 
z
" style="fill:#1f77b4;"/>
   </g>
   <g id="patch_228">
    <path clip-path="url(#p544d5854ad)" d="M 428.077829 137.71551 
L 429.100304 137.71551 
L 429.100304 100.737747 
L 428.077829 100.737747 
z
" style="fill:#1f77b4;"/>
   </g>
   <g id="patch_229">
    <path clip-path="url(#p544d5854ad)" d="M 429.355922 137.71551 
L 430.378397 137.71551 
L 430.378397 100.582127 
L 429.355922 100.582127 
z
" style="fill:#1f77b4;"/>
   </g>
   <g id="patch_230">
    <path clip-path="url(#p544d5854ad)" d="M 430.634015 137.71551 
L 431.65649 137.71551 
L 431.65649 105.514092 
L 430.634015 105.514092 
z
" style="fill:#1f77b4;"/>
   </g>
   <g id="patch_231">
    <path clip-path="url(#p544d5854ad)" d="M 431.912109 137.71551 
L 432.934583 137.71551 
L 432.934583 107.938176 
L 431.912109 107.938176 
z
" style="fill:#1f77b4;"/>
   </g>
   <g id="patch_232">
    <path clip-path="url(#p544d5854ad)" d="M 433.190202 137.71551 
L 434.212676 137.71551 
L 434.212676 105.831318 
L 433.190202 105.831318 
z
" style="fill:#1f77b4;"/>
   </g>
   <g id="patch_233">
    <path clip-path="url(#p544d5854ad)" d="M 434.468295 137.71551 
L 435.490769 137.71551 
L 435.490769 118.215097 
L 434.468295 118.215097 
z
" style="fill:#1f77b4;"/>
   </g>
   <g id="patch_234">
    <path clip-path="url(#p544d5854ad)" d="M 435.746388 137.71551 
L 436.768863 137.71551 
L 436.768863 84.89441 
L 435.746388 84.89441 
z
" style="fill:#1f77b4;"/>
   </g>
   <g id="patch_235">
    <path clip-path="url(#p544d5854ad)" d="M 437.024481 137.71551 
L 438.046956 137.71551 
L 438.046956 130.341505 
L 437.024481 130.341505 
z
" style="fill:#1f77b4;"/>
   </g>
   <g id="patch_236">
    <path clip-path="url(#p544d5854ad)" d="M 438.302574 137.71551 
L 439.325049 137.71551 
L 439.325049 131.065738 
L 438.302574 131.065738 
z
" style="fill:#1f77b4;"/>
   </g>
   <g id="patch_237">
    <path clip-path="url(#p544d5854ad)" d="M 439.580668 137.71551 
L 440.603142 137.71551 
L 440.603142 23.813467 
L 439.580668 23.813467 
z
" style="fill:#1f77b4;"/>
   </g>
   <g id="patch_238">
    <path clip-path="url(#p544d5854ad)" d="M 440.858761 137.71551 
L 441.881235 137.71551 
L 441.881235 112.965907 
L 440.858761 112.965907 
z
" style="fill:#1f77b4;"/>
   </g>
   <g id="patch_239">
    <path clip-path="url(#p544d5854ad)" d="M 442.136854 137.71551 
L 443.159329 137.71551 
L 443.159329 117.413054 
L 442.136854 117.413054 
z
" style="fill:#1f77b4;"/>
   </g>
   <g id="matplotlib.axis_3">
    <g id="xtick_4">
     <g id="line2d_10">
      <g>
       <use style="stroke:#000000;stroke-width:0.8;" x="295.667376" xlink:href="#m96d1628a3d" y="137.71551"/>
      </g>
     </g>
     <g id="text_12">
      <!-- 0 -->
      <g transform="translate(292.486126 152.313947)scale(0.1 -0.1)">
       <use xlink:href="#DejaVuSans-48"/>
      </g>
     </g>
    </g>
    <g id="xtick_5">
     <g id="line2d_11">
      <g>
       <use style="stroke:#000000;stroke-width:0.8;" x="359.572035" xlink:href="#m96d1628a3d" y="137.71551"/>
      </g>
     </g>
     <g id="text_13">
      <!-- 50 -->
      <g transform="translate(353.209535 152.313947)scale(0.1 -0.1)">
       <use xlink:href="#DejaVuSans-53"/>
       <use x="63.623047" xlink:href="#DejaVuSans-48"/>
      </g>
     </g>
    </g>
    <g id="xtick_6">
     <g id="line2d_12">
      <g>
       <use style="stroke:#000000;stroke-width:0.8;" x="423.476694" xlink:href="#m96d1628a3d" y="137.71551"/>
      </g>
     </g>
     <g id="text_14">
      <!-- 100 -->
      <g transform="translate(413.932944 152.313947)scale(0.1 -0.1)">
       <use xlink:href="#DejaVuSans-49"/>
       <use x="63.623047" xlink:href="#DejaVuSans-48"/>
       <use x="127.246094" xlink:href="#DejaVuSans-48"/>
      </g>
     </g>
    </g>
    <g id="text_15">
     <!-- Dias -->
     <g transform="translate(358.249921 165.992072)scale(0.1 -0.1)">
      <use xlink:href="#DejaVuSans-68"/>
      <use x="77.001953" xlink:href="#DejaVuSans-105"/>
      <use x="104.785156" xlink:href="#DejaVuSans-97"/>
      <use x="166.064453" xlink:href="#DejaVuSans-115"/>
     </g>
    </g>
   </g>
   <g id="matplotlib.axis_4">
    <g id="ytick_6">
     <g id="line2d_13">
      <g>
       <use style="stroke:#000000;stroke-width:0.8;" x="287.755979" xlink:href="#mbc11c6d80f" y="137.71551"/>
      </g>
     </g>
     <g id="text_16">
      <!-- 0 -->
      <g transform="translate(274.393479 141.514729)scale(0.1 -0.1)">
       <use xlink:href="#DejaVuSans-48"/>
      </g>
     </g>
    </g>
    <g id="ytick_7">
     <g id="line2d_14">
      <g>
       <use style="stroke:#000000;stroke-width:0.8;" x="287.755979" xlink:href="#mbc11c6d80f" y="107.788541"/>
      </g>
     </g>
     <g id="text_17">
      <!-- 5000 -->
      <g transform="translate(255.305979 111.58776)scale(0.1 -0.1)">
       <use xlink:href="#DejaVuSans-53"/>
       <use x="63.623047" xlink:href="#DejaVuSans-48"/>
       <use x="127.246094" xlink:href="#DejaVuSans-48"/>
       <use x="190.869141" xlink:href="#DejaVuSans-48"/>
      </g>
     </g>
    </g>
    <g id="ytick_8">
     <g id="line2d_15">
      <g>
       <use style="stroke:#000000;stroke-width:0.8;" x="287.755979" xlink:href="#mbc11c6d80f" y="77.861573"/>
      </g>
     </g>
     <g id="text_18">
      <!-- 10000 -->
      <g transform="translate(248.943479 81.660791)scale(0.1 -0.1)">
       <use xlink:href="#DejaVuSans-49"/>
       <use x="63.623047" xlink:href="#DejaVuSans-48"/>
       <use x="127.246094" xlink:href="#DejaVuSans-48"/>
       <use x="190.869141" xlink:href="#DejaVuSans-48"/>
       <use x="254.492188" xlink:href="#DejaVuSans-48"/>
      </g>
     </g>
    </g>
    <g id="ytick_9">
     <g id="line2d_16">
      <g>
       <use style="stroke:#000000;stroke-width:0.8;" x="287.755979" xlink:href="#mbc11c6d80f" y="47.934604"/>
      </g>
     </g>
     <g id="text_19">
      <!-- 15000 -->
      <g transform="translate(248.943479 51.733823)scale(0.1 -0.1)">
       <use xlink:href="#DejaVuSans-49"/>
       <use x="63.623047" xlink:href="#DejaVuSans-53"/>
       <use x="127.246094" xlink:href="#DejaVuSans-48"/>
       <use x="190.869141" xlink:href="#DejaVuSans-48"/>
       <use x="254.492188" xlink:href="#DejaVuSans-48"/>
      </g>
     </g>
    </g>
    <g id="text_20">
     <!-- Novos casos -->
     <defs>
      <path d="M 9.8125 72.90625 
L 23.09375 72.90625 
L 55.421875 11.921875 
L 55.421875 72.90625 
L 64.984375 72.90625 
L 64.984375 0 
L 51.703125 0 
L 19.390625 60.984375 
L 19.390625 0 
L 9.8125 0 
z
" id="DejaVuSans-78"/>
      <path d="M 2.984375 54.6875 
L 12.5 54.6875 
L 29.59375 8.796875 
L 46.6875 54.6875 
L 56.203125 54.6875 
L 35.6875 0 
L 23.484375 0 
z
" id="DejaVuSans-118"/>
     </defs>
     <g transform="translate(242.863792 109.011469)rotate(-90)scale(0.1 -0.1)">
      <use xlink:href="#DejaVuSans-78"/>
      <use x="74.804688" xlink:href="#DejaVuSans-111"/>
      <use x="135.986328" xlink:href="#DejaVuSans-118"/>
      <use x="195.166016" xlink:href="#DejaVuSans-111"/>
      <use x="256.347656" xlink:href="#DejaVuSans-115"/>
      <use x="308.447266" xlink:href="#DejaVuSans-32"/>
      <use x="340.234375" xlink:href="#DejaVuSans-99"/>
      <use x="395.214844" xlink:href="#DejaVuSans-97"/>
      <use x="456.494141" xlink:href="#DejaVuSans-115"/>
      <use x="508.59375" xlink:href="#DejaVuSans-111"/>
      <use x="569.775391" xlink:href="#DejaVuSans-115"/>
     </g>
    </g>
   </g>
   <g id="line2d_17">
    <path clip-path="url(#p544d5854ad)" d="M 295.667376 137.71369 
L 296.945469 137.712835 
L 298.223562 137.711698 
L 299.501655 137.710352 
L 300.779748 137.708657 
L 302.057842 137.706409 
L 303.335935 137.703362 
L 304.614028 137.699254 
L 305.892121 137.693747 
L 307.170214 137.686466 
L 308.448308 137.676838 
L 309.726401 137.664194 
L 311.004494 137.648098 
L 312.282587 137.627988 
L 313.56068 137.603216 
L 314.838773 137.573606 
L 316.116867 137.538815 
L 317.39496 137.499004 
L 318.673053 137.454396 
L 319.951146 137.405788 
L 321.229239 137.354706 
L 322.507333 137.301129 
L 323.785426 137.242923 
L 325.063519 137.177964 
L 326.341612 137.102966 
L 327.619705 137.014566 
L 328.897798 136.907594 
L 330.175892 136.775379 
L 331.453985 136.616553 
L 332.732078 136.433544 
L 334.010171 136.229677 
L 335.288264 136.010351 
L 336.566357 135.782497 
L 337.844451 135.554608 
L 339.122544 135.337392 
L 340.400637 135.136827 
L 341.67873 134.955685 
L 342.956823 134.797051 
L 344.234917 134.661501 
L 345.51301 134.544425 
L 346.791103 134.441353 
L 348.069196 134.34512 
L 349.347289 134.247135 
L 350.625382 134.145084 
L 351.903476 134.033044 
L 353.181569 133.909049 
L 354.459662 133.776877 
L 355.737755 133.638652 
L 357.015848 133.497368 
L 358.293941 133.357169 
L 359.572035 133.205816 
L 360.850128 133.031514 
L 362.128221 132.816065 
L 363.406314 132.546226 
L 364.684407 132.211742 
L 365.962501 131.807206 
L 367.240594 131.336613 
L 368.518687 130.8218 
L 369.79678 130.295711 
L 371.074873 129.797879 
L 372.352966 129.346795 
L 373.63106 128.956588 
L 374.909153 128.631908 
L 376.187246 128.363822 
L 377.465339 128.142308 
L 378.743432 127.939021 
L 380.021526 127.716971 
L 381.299619 127.465036 
L 382.577712 127.176715 
L 383.855805 126.853354 
L 385.133898 126.498299 
L 386.411991 126.101899 
L 387.690085 125.668864 
L 388.968178 125.222455 
L 390.246271 124.768655 
L 391.524364 124.309776 
L 392.802457 123.84309 
L 394.08055 123.378119 
L 395.358644 122.936364 
L 396.636737 122.528766 
L 397.91483 122.136894 
L 399.192923 121.746941 
L 400.471016 121.346144 
L 401.74911 120.927385 
L 403.027203 120.457326 
L 404.305296 119.890671 
L 405.583389 119.200102 
L 406.861482 118.390892 
L 408.139575 117.475486 
L 409.417669 116.470558 
L 410.695762 115.388508 
L 411.973855 114.287173 
L 413.251948 113.238989 
L 414.530041 112.293214 
L 415.808134 111.475103 
L 417.086228 110.803395 
L 418.364321 110.283578 
L 419.642414 109.917073 
L 420.920507 109.650457 
L 422.1986 109.436172 
L 423.476694 109.254207 
L 424.754787 109.059454 
L 426.03288 108.803109 
L 427.310973 108.464771 
L 428.589066 107.998636 
L 429.867159 107.417479 
L 431.145253 106.688592 
L 432.423346 105.729571 
L 433.701439 104.57086 
L 434.979532 103.239777 
L 436.257625 101.81003 
L 437.535719 100.35117 
L 438.813812 98.873727 
L 440.091905 97.90899 
L 441.369998 97.040103 
L 442.648091 96.263315 
" style="fill:none;stroke:#ff0000;stroke-linecap:square;stroke-width:1.5;"/>
   </g>
   <g id="patch_240">
    <path d="M 287.755979 137.71551 
L 287.755979 18.118365 
" style="fill:none;stroke:#000000;stroke-linecap:square;stroke-linejoin:miter;stroke-width:0.8;"/>
   </g>
   <g id="patch_241">
    <path d="M 450.559488 137.71551 
L 450.559488 18.118365 
" style="fill:none;stroke:#000000;stroke-linecap:square;stroke-linejoin:miter;stroke-width:0.8;"/>
   </g>
   <g id="patch_242">
    <path d="M 287.755979 137.71551 
L 450.559488 137.71551 
" style="fill:none;stroke:#000000;stroke-linecap:square;stroke-linejoin:miter;stroke-width:0.8;"/>
   </g>
   <g id="patch_243">
    <path d="M 287.755979 18.118365 
L 450.559488 18.118365 
" style="fill:none;stroke:#000000;stroke-linecap:square;stroke-linejoin:miter;stroke-width:0.8;"/>
   </g>
   <g id="text_21">
    <!-- Casos novos - SP -->
    <defs>
     <path d="M 54.890625 33.015625 
L 54.890625 0 
L 45.90625 0 
L 45.90625 32.71875 
Q 45.90625 40.484375 42.875 44.328125 
Q 39.84375 48.1875 33.796875 48.1875 
Q 26.515625 48.1875 22.3125 43.546875 
Q 18.109375 38.921875 18.109375 30.90625 
L 18.109375 0 
L 9.078125 0 
L 9.078125 54.6875 
L 18.109375 54.6875 
L 18.109375 46.1875 
Q 21.34375 51.125 25.703125 53.5625 
Q 30.078125 56 35.796875 56 
Q 45.21875 56 50.046875 50.171875 
Q 54.890625 44.34375 54.890625 33.015625 
z
" id="DejaVuSans-110"/>
    </defs>
    <g transform="translate(318.234609 12.118365)scale(0.12 -0.12)">
     <use xlink:href="#DejaVuSans-67"/>
     <use x="69.824219" xlink:href="#DejaVuSans-97"/>
     <use x="131.103516" xlink:href="#DejaVuSans-115"/>
     <use x="183.203125" xlink:href="#DejaVuSans-111"/>
     <use x="244.384766" xlink:href="#DejaVuSans-115"/>
     <use x="296.484375" xlink:href="#DejaVuSans-32"/>
     <use x="328.271484" xlink:href="#DejaVuSans-110"/>
     <use x="391.650391" xlink:href="#DejaVuSans-111"/>
     <use x="452.832031" xlink:href="#DejaVuSans-118"/>
     <use x="512.011719" xlink:href="#DejaVuSans-111"/>
     <use x="573.193359" xlink:href="#DejaVuSans-115"/>
     <use x="625.292969" xlink:href="#DejaVuSans-32"/>
     <use x="657.080078" xlink:href="#DejaVuSans-45"/>
     <use x="693.164062" xlink:href="#DejaVuSans-32"/>
     <use x="724.951172" xlink:href="#DejaVuSans-83"/>
     <use x="788.427734" xlink:href="#DejaVuSans-80"/>
    </g>
   </g>
  </g>
  <g id="axes_3">
   <g id="patch_244">
    <path d="M 61.853365 312.24351 
L 450.559488 312.24351 
L 450.559488 192.646365 
L 61.853365 192.646365 
z
" style="fill:#ffffff;"/>
   </g>
   <g id="matplotlib.axis_5">
    <g id="xtick_7">
     <g id="line2d_18">
      <g>
       <use style="stroke:#000000;stroke-width:0.8;" x="79.521825" xlink:href="#m96d1628a3d" y="312.24351"/>
      </g>
     </g>
     <g id="text_22">
      <!-- 0 -->
      <g transform="translate(76.340575 326.841947)scale(0.1 -0.1)">
       <use xlink:href="#DejaVuSans-48"/>
      </g>
     </g>
    </g>
    <g id="xtick_8">
     <g id="line2d_19">
      <g>
       <use style="stroke:#000000;stroke-width:0.8;" x="140.977339" xlink:href="#m96d1628a3d" y="312.24351"/>
      </g>
     </g>
     <g id="text_23">
      <!-- 20 -->
      <g transform="translate(134.614839 326.841947)scale(0.1 -0.1)">
       <use xlink:href="#DejaVuSans-50"/>
       <use x="63.623047" xlink:href="#DejaVuSans-48"/>
      </g>
     </g>
    </g>
    <g id="xtick_9">
     <g id="line2d_20">
      <g>
       <use style="stroke:#000000;stroke-width:0.8;" x="202.432852" xlink:href="#m96d1628a3d" y="312.24351"/>
      </g>
     </g>
     <g id="text_24">
      <!-- 40 -->
      <defs>
       <path d="M 37.796875 64.3125 
L 12.890625 25.390625 
L 37.796875 25.390625 
z
M 35.203125 72.90625 
L 47.609375 72.90625 
L 47.609375 25.390625 
L 58.015625 25.390625 
L 58.015625 17.1875 
L 47.609375 17.1875 
L 47.609375 0 
L 37.796875 0 
L 37.796875 17.1875 
L 4.890625 17.1875 
L 4.890625 26.703125 
z
" id="DejaVuSans-52"/>
      </defs>
      <g transform="translate(196.070352 326.841947)scale(0.1 -0.1)">
       <use xlink:href="#DejaVuSans-52"/>
       <use x="63.623047" xlink:href="#DejaVuSans-48"/>
      </g>
     </g>
    </g>
    <g id="xtick_10">
     <g id="line2d_21">
      <g>
       <use style="stroke:#000000;stroke-width:0.8;" x="263.888366" xlink:href="#m96d1628a3d" y="312.24351"/>
      </g>
     </g>
     <g id="text_25">
      <!-- 60 -->
      <defs>
       <path d="M 33.015625 40.375 
Q 26.375 40.375 22.484375 35.828125 
Q 18.609375 31.296875 18.609375 23.390625 
Q 18.609375 15.53125 22.484375 10.953125 
Q 26.375 6.390625 33.015625 6.390625 
Q 39.65625 6.390625 43.53125 10.953125 
Q 47.40625 15.53125 47.40625 23.390625 
Q 47.40625 31.296875 43.53125 35.828125 
Q 39.65625 40.375 33.015625 40.375 
z
M 52.59375 71.296875 
L 52.59375 62.3125 
Q 48.875 64.0625 45.09375 64.984375 
Q 41.3125 65.921875 37.59375 65.921875 
Q 27.828125 65.921875 22.671875 59.328125 
Q 17.53125 52.734375 16.796875 39.40625 
Q 19.671875 43.65625 24.015625 45.921875 
Q 28.375 48.1875 33.59375 48.1875 
Q 44.578125 48.1875 50.953125 41.515625 
Q 57.328125 34.859375 57.328125 23.390625 
Q 57.328125 12.15625 50.6875 5.359375 
Q 44.046875 -1.421875 33.015625 -1.421875 
Q 20.359375 -1.421875 13.671875 8.265625 
Q 6.984375 17.96875 6.984375 36.375 
Q 6.984375 53.65625 15.1875 63.9375 
Q 23.390625 74.21875 37.203125 74.21875 
Q 40.921875 74.21875 44.703125 73.484375 
Q 48.484375 72.75 52.59375 71.296875 
z
" id="DejaVuSans-54"/>
      </defs>
      <g transform="translate(257.525866 326.841947)scale(0.1 -0.1)">
       <use xlink:href="#DejaVuSans-54"/>
       <use x="63.623047" xlink:href="#DejaVuSans-48"/>
      </g>
     </g>
    </g>
    <g id="xtick_11">
     <g id="line2d_22">
      <g>
       <use style="stroke:#000000;stroke-width:0.8;" x="325.343879" xlink:href="#m96d1628a3d" y="312.24351"/>
      </g>
     </g>
     <g id="text_26">
      <!-- 80 -->
      <defs>
       <path d="M 31.78125 34.625 
Q 24.75 34.625 20.71875 30.859375 
Q 16.703125 27.09375 16.703125 20.515625 
Q 16.703125 13.921875 20.71875 10.15625 
Q 24.75 6.390625 31.78125 6.390625 
Q 38.8125 6.390625 42.859375 10.171875 
Q 46.921875 13.96875 46.921875 20.515625 
Q 46.921875 27.09375 42.890625 30.859375 
Q 38.875 34.625 31.78125 34.625 
z
M 21.921875 38.8125 
Q 15.578125 40.375 12.03125 44.71875 
Q 8.5 49.078125 8.5 55.328125 
Q 8.5 64.0625 14.71875 69.140625 
Q 20.953125 74.21875 31.78125 74.21875 
Q 42.671875 74.21875 48.875 69.140625 
Q 55.078125 64.0625 55.078125 55.328125 
Q 55.078125 49.078125 51.53125 44.71875 
Q 48 40.375 41.703125 38.8125 
Q 48.828125 37.15625 52.796875 32.3125 
Q 56.78125 27.484375 56.78125 20.515625 
Q 56.78125 9.90625 50.3125 4.234375 
Q 43.84375 -1.421875 31.78125 -1.421875 
Q 19.734375 -1.421875 13.25 4.234375 
Q 6.78125 9.90625 6.78125 20.515625 
Q 6.78125 27.484375 10.78125 32.3125 
Q 14.796875 37.15625 21.921875 38.8125 
z
M 18.3125 54.390625 
Q 18.3125 48.734375 21.84375 45.5625 
Q 25.390625 42.390625 31.78125 42.390625 
Q 38.140625 42.390625 41.71875 45.5625 
Q 45.3125 48.734375 45.3125 54.390625 
Q 45.3125 60.0625 41.71875 63.234375 
Q 38.140625 66.40625 31.78125 66.40625 
Q 25.390625 66.40625 21.84375 63.234375 
Q 18.3125 60.0625 18.3125 54.390625 
z
" id="DejaVuSans-56"/>
      </defs>
      <g transform="translate(318.981379 326.841947)scale(0.1 -0.1)">
       <use xlink:href="#DejaVuSans-56"/>
       <use x="63.623047" xlink:href="#DejaVuSans-48"/>
      </g>
     </g>
    </g>
    <g id="xtick_12">
     <g id="line2d_23">
      <g>
       <use style="stroke:#000000;stroke-width:0.8;" x="386.799393" xlink:href="#m96d1628a3d" y="312.24351"/>
      </g>
     </g>
     <g id="text_27">
      <!-- 100 -->
      <g transform="translate(377.255643 326.841947)scale(0.1 -0.1)">
       <use xlink:href="#DejaVuSans-49"/>
       <use x="63.623047" xlink:href="#DejaVuSans-48"/>
       <use x="127.246094" xlink:href="#DejaVuSans-48"/>
      </g>
     </g>
    </g>
    <g id="xtick_13">
     <g id="line2d_24">
      <g>
       <use style="stroke:#000000;stroke-width:0.8;" x="448.254906" xlink:href="#m96d1628a3d" y="312.24351"/>
      </g>
     </g>
     <g id="text_28">
      <!-- 120 -->
      <g transform="translate(438.711156 326.841947)scale(0.1 -0.1)">
       <use xlink:href="#DejaVuSans-49"/>
       <use x="63.623047" xlink:href="#DejaVuSans-50"/>
       <use x="127.246094" xlink:href="#DejaVuSans-48"/>
      </g>
     </g>
    </g>
    <g id="text_29">
     <!-- Dias -->
     <g transform="translate(245.298614 340.520072)scale(0.1 -0.1)">
      <use xlink:href="#DejaVuSans-68"/>
      <use x="77.001953" xlink:href="#DejaVuSans-105"/>
      <use x="104.785156" xlink:href="#DejaVuSans-97"/>
      <use x="166.064453" xlink:href="#DejaVuSans-115"/>
     </g>
    </g>
   </g>
   <g id="matplotlib.axis_6">
    <g id="ytick_10">
     <g id="line2d_25">
      <g>
       <use style="stroke:#000000;stroke-width:0.8;" x="61.853365" xlink:href="#mbc11c6d80f" y="311.723646"/>
      </g>
     </g>
     <g id="text_30">
      <!-- 1 -->
      <g transform="translate(48.490865 315.522865)scale(0.1 -0.1)">
       <use xlink:href="#DejaVuSans-49"/>
      </g>
     </g>
    </g>
    <g id="ytick_11">
     <g id="line2d_26">
      <g>
       <use style="stroke:#000000;stroke-width:0.8;" x="61.853365" xlink:href="#mbc11c6d80f" y="266.356086"/>
      </g>
     </g>
     <g id="text_31">
      <!-- 2 -->
      <g transform="translate(48.490865 270.155305)scale(0.1 -0.1)">
       <use xlink:href="#DejaVuSans-50"/>
      </g>
     </g>
    </g>
    <g id="ytick_12">
     <g id="line2d_27">
      <g>
       <use style="stroke:#000000;stroke-width:0.8;" x="61.853365" xlink:href="#mbc11c6d80f" y="220.988527"/>
      </g>
     </g>
     <g id="text_32">
      <!-- 3 -->
      <defs>
       <path d="M 40.578125 39.3125 
Q 47.65625 37.796875 51.625 33 
Q 55.609375 28.21875 55.609375 21.1875 
Q 55.609375 10.40625 48.1875 4.484375 
Q 40.765625 -1.421875 27.09375 -1.421875 
Q 22.515625 -1.421875 17.65625 -0.515625 
Q 12.796875 0.390625 7.625 2.203125 
L 7.625 11.71875 
Q 11.71875 9.328125 16.59375 8.109375 
Q 21.484375 6.890625 26.8125 6.890625 
Q 36.078125 6.890625 40.9375 10.546875 
Q 45.796875 14.203125 45.796875 21.1875 
Q 45.796875 27.640625 41.28125 31.265625 
Q 36.765625 34.90625 28.71875 34.90625 
L 20.21875 34.90625 
L 20.21875 43.015625 
L 29.109375 43.015625 
Q 36.375 43.015625 40.234375 45.921875 
Q 44.09375 48.828125 44.09375 54.296875 
Q 44.09375 59.90625 40.109375 62.90625 
Q 36.140625 65.921875 28.71875 65.921875 
Q 24.65625 65.921875 20.015625 65.03125 
Q 15.375 64.15625 9.8125 62.3125 
L 9.8125 71.09375 
Q 15.4375 72.65625 20.34375 73.4375 
Q 25.25 74.21875 29.59375 74.21875 
Q 40.828125 74.21875 47.359375 69.109375 
Q 53.90625 64.015625 53.90625 55.328125 
Q 53.90625 49.265625 50.4375 45.09375 
Q 46.96875 40.921875 40.578125 39.3125 
z
" id="DejaVuSans-51"/>
      </defs>
      <g transform="translate(48.490865 224.787746)scale(0.1 -0.1)">
       <use xlink:href="#DejaVuSans-51"/>
      </g>
     </g>
    </g>
    <g id="text_33">
     <!-- r0 -->
     <defs>
      <path d="M 41.109375 46.296875 
Q 39.59375 47.171875 37.8125 47.578125 
Q 36.03125 48 33.890625 48 
Q 26.265625 48 22.1875 43.046875 
Q 18.109375 38.09375 18.109375 28.8125 
L 18.109375 0 
L 9.078125 0 
L 9.078125 54.6875 
L 18.109375 54.6875 
L 18.109375 46.1875 
Q 20.953125 51.171875 25.484375 53.578125 
Q 30.03125 56 36.53125 56 
Q 37.453125 56 38.578125 55.875 
Q 39.703125 55.765625 41.0625 55.515625 
z
" id="DejaVuSans-114"/>
     </defs>
     <g transform="translate(42.411178 257.681656)rotate(-90)scale(0.1 -0.1)">
      <use xlink:href="#DejaVuSans-114"/>
      <use x="41.113281" xlink:href="#DejaVuSans-48"/>
     </g>
    </g>
   </g>
   <g id="line2d_28">
    <path clip-path="url(#pc661b53a2c)" d="M 79.521825 198.082599 
L 82.594601 208.134837 
L 85.667376 215.079348 
L 88.740152 227.146553 
L 91.812928 231.564256 
L 94.885704 231.663593 
L 97.958479 230.459834 
L 101.031255 229.82682 
L 104.104031 229.724792 
L 107.176806 230.47845 
L 110.249582 231.046631 
L 113.322358 231.875095 
L 116.395133 234.342038 
L 119.467909 237.259263 
L 122.540685 240.230262 
L 125.61346 244.095138 
L 128.686236 247.906418 
L 131.759012 252.121878 
L 134.831787 256.346464 
L 137.904563 260.845903 
L 140.977339 265.822564 
L 144.050114 269.800138 
L 147.12289 271.782664 
L 150.195666 272.530347 
L 153.268441 272.008627 
L 156.341217 270.809841 
L 159.413993 268.763144 
L 162.486768 266.085257 
L 165.559544 264.812492 
L 168.63232 265.372784 
L 171.705095 267.158416 
L 174.777871 269.927249 
L 177.850647 273.39908 
L 180.923422 277.411785 
L 183.996198 281.97926 
L 187.068974 286.367058 
L 190.141749 290.295524 
L 193.214525 293.945551 
L 196.287301 297.171953 
L 199.360076 299.585112 
L 202.432852 301.340736 
L 205.505628 302.280614 
L 208.578404 302.366107 
L 211.651179 302.245424 
L 214.723955 301.632213 
L 217.796731 300.918166 
L 220.869506 300.583106 
L 223.942282 300.454423 
L 227.015058 300.571881 
L 230.087833 300.987418 
L 233.160609 300.515931 
L 236.233385 299.307112 
L 239.30616 297.080958 
L 242.378936 294.373176 
L 245.451712 291.547121 
L 248.524487 289.001886 
L 251.597263 287.23194 
L 254.670039 286.895143 
L 257.742814 288.087052 
L 260.81559 290.671266 
L 263.888366 293.568993 
L 266.961141 296.593902 
L 270.033917 299.444281 
L 273.106693 301.730886 
L 276.179468 303.512211 
L 279.252244 304.249646 
L 282.32502 303.750364 
L 285.397795 302.934876 
L 288.470571 301.981413 
L 291.543347 301.146328 
L 294.616122 300.482361 
L 297.688898 299.618321 
L 300.761674 298.970425 
L 303.834449 298.990177 
L 306.907225 299.163057 
L 309.980001 299.380824 
L 313.052777 299.520288 
L 316.125552 299.864948 
L 319.198328 300.651111 
L 322.271104 301.60832 
L 325.343879 302.111584 
L 328.416655 302.298118 
L 331.489431 302.216992 
L 334.562206 302.002182 
L 337.634982 301.170993 
L 340.707758 299.5771 
L 343.780533 297.654294 
L 346.853309 296.032479 
L 349.926085 294.811743 
L 352.99886 294.011845 
L 356.071636 293.511212 
L 359.144412 293.888648 
L 362.217187 295.189161 
L 365.289963 296.981097 
L 368.362739 298.917096 
L 371.435514 300.927265 
L 374.50829 302.875534 
L 377.581066 304.749326 
L 380.653841 305.918915 
L 383.726617 306.488868 
L 386.799393 306.807276 
L 389.872168 306.579899 
L 392.944944 305.77489 
L 396.01772 304.746315 
L 399.090495 303.218638 
L 402.163271 301.896541 
L 405.236047 300.279668 
L 408.308822 297.887471 
L 411.381598 296.003143 
L 414.454374 294.564061 
L 417.527149 293.965452 
L 420.599925 294.056151 
L 423.672701 294.222737 
L 426.745477 298.931508 
L 429.818252 299.785621 
L 432.891028 300.554332 
" style="fill:none;stroke:#ff0000;stroke-linecap:square;stroke-width:1.5;"/>
   </g>
   <g id="patch_245">
    <path d="M 61.853365 312.24351 
L 61.853365 192.646365 
" style="fill:none;stroke:#000000;stroke-linecap:square;stroke-linejoin:miter;stroke-width:0.8;"/>
   </g>
   <g id="patch_246">
    <path d="M 450.559488 312.24351 
L 450.559488 192.646365 
" style="fill:none;stroke:#000000;stroke-linecap:square;stroke-linejoin:miter;stroke-width:0.8;"/>
   </g>
   <g id="patch_247">
    <path d="M 61.853365 312.24351 
L 450.559488 312.24351 
" style="fill:none;stroke:#000000;stroke-linecap:square;stroke-linejoin:miter;stroke-width:0.8;"/>
   </g>
   <g id="patch_248">
    <path d="M 61.853365 192.646365 
L 450.559488 192.646365 
" style="fill:none;stroke:#000000;stroke-linecap:square;stroke-linejoin:miter;stroke-width:0.8;"/>
   </g>
   <g id="text_34">
    <!-- r0 aproximado - SP -->
    <defs>
     <path d="M 18.109375 8.203125 
L 18.109375 -20.796875 
L 9.078125 -20.796875 
L 9.078125 54.6875 
L 18.109375 54.6875 
L 18.109375 46.390625 
Q 20.953125 51.265625 25.265625 53.625 
Q 29.59375 56 35.59375 56 
Q 45.5625 56 51.78125 48.09375 
Q 58.015625 40.1875 58.015625 27.296875 
Q 58.015625 14.40625 51.78125 6.484375 
Q 45.5625 -1.421875 35.59375 -1.421875 
Q 29.59375 -1.421875 25.265625 0.953125 
Q 20.953125 3.328125 18.109375 8.203125 
z
M 48.6875 27.296875 
Q 48.6875 37.203125 44.609375 42.84375 
Q 40.53125 48.484375 33.40625 48.484375 
Q 26.265625 48.484375 22.1875 42.84375 
Q 18.109375 37.203125 18.109375 27.296875 
Q 18.109375 17.390625 22.1875 11.75 
Q 26.265625 6.109375 33.40625 6.109375 
Q 40.53125 6.109375 44.609375 11.75 
Q 48.6875 17.390625 48.6875 27.296875 
z
" id="DejaVuSans-112"/>
     <path d="M 54.890625 54.6875 
L 35.109375 28.078125 
L 55.90625 0 
L 45.3125 0 
L 29.390625 21.484375 
L 13.484375 0 
L 2.875 0 
L 24.125 28.609375 
L 4.6875 54.6875 
L 15.28125 54.6875 
L 29.78125 35.203125 
L 44.28125 54.6875 
z
" id="DejaVuSans-120"/>
    </defs>
    <g transform="translate(199.089239 186.646365)scale(0.12 -0.12)">
     <use xlink:href="#DejaVuSans-114"/>
     <use x="41.113281" xlink:href="#DejaVuSans-48"/>
     <use x="104.736328" xlink:href="#DejaVuSans-32"/>
     <use x="136.523438" xlink:href="#DejaVuSans-97"/>
     <use x="197.802734" xlink:href="#DejaVuSans-112"/>
     <use x="261.279297" xlink:href="#DejaVuSans-114"/>
     <use x="300.142578" xlink:href="#DejaVuSans-111"/>
     <use x="358.199219" xlink:href="#DejaVuSans-120"/>
     <use x="417.378906" xlink:href="#DejaVuSans-105"/>
     <use x="445.162109" xlink:href="#DejaVuSans-109"/>
     <use x="542.574219" xlink:href="#DejaVuSans-97"/>
     <use x="603.853516" xlink:href="#DejaVuSans-100"/>
     <use x="667.330078" xlink:href="#DejaVuSans-111"/>
     <use x="728.511719" xlink:href="#DejaVuSans-32"/>
     <use x="760.298828" xlink:href="#DejaVuSans-45"/>
     <use x="796.382812" xlink:href="#DejaVuSans-32"/>
     <use x="828.169922" xlink:href="#DejaVuSans-83"/>
     <use x="891.646484" xlink:href="#DejaVuSans-80"/>
    </g>
   </g>
  </g>
 </g>
 <defs>
  <clipPath id="p0e5f32a081">
   <rect height="119.597145" width="162.803509" x="61.853365" y="18.118365"/>
  </clipPath>
  <clipPath id="p544d5854ad">
   <rect height="119.597145" width="162.803509" x="287.755979" y="18.118365"/>
  </clipPath>
  <clipPath id="pc661b53a2c">
   <rect height="119.597145" width="388.706123" x="61.853365" y="192.646365"/>
  </clipPath>
 </defs>
</svg>
