<?xml version="1.0" encoding="utf-8" standalone="no"?>
<!DOCTYPE svg PUBLIC "-//W3C//DTD SVG 1.1//EN"
  "http://www.w3.org/Graphics/SVG/1.1/DTD/svg11.dtd">
<!-- Created with matplotlib (https://matplotlib.org/) -->
<svg height="345.6pt" version="1.1" viewBox="0 0 460.8 345.6" width="460.8pt" xmlns="http://www.w3.org/2000/svg" xmlns:xlink="http://www.w3.org/1999/xlink">
 <defs>
  <style type="text/css">
*{stroke-linecap:butt;stroke-linejoin:round;}
  </style>
 </defs>
 <g id="figure_1">
  <g id="patch_1">
   <path d="M 0 345.6 
L 460.8 345.6 
L 460.8 0 
L 0 0 
z
" style="fill:#ffffff;"/>
  </g>
  <g id="axes_1">
   <g id="patch_2">
    <path d="M 50.957323 325.921635 
L 137.300441 325.921635 
L 137.300441 18.118365 
L 50.957323 18.118365 
z
" style="fill:#ffffff;"/>
   </g>
   <g id="patch_3">
    <path clip-path="url(#p3cf90941de)" d="M 54.88201 325.921635 
L 55.551467 325.921635 
L 55.551467 325.886575 
L 54.88201 325.886575 
z
" style="fill:#1f77b4;"/>
   </g>
   <g id="patch_4">
    <path clip-path="url(#p3cf90941de)" d="M 55.718831 325.921635 
L 56.388287 325.921635 
L 56.388287 325.851516 
L 55.718831 325.851516 
z
" style="fill:#1f77b4;"/>
   </g>
   <g id="patch_5">
    <path clip-path="url(#p3cf90941de)" d="M 56.555651 325.921635 
L 57.225107 325.921635 
L 57.225107 325.851516 
L 56.555651 325.851516 
z
" style="fill:#1f77b4;"/>
   </g>
   <g id="patch_6">
    <path clip-path="url(#p3cf90941de)" d="M 57.392471 325.921635 
L 58.061927 325.921635 
L 58.061927 325.746337 
L 57.392471 325.746337 
z
" style="fill:#1f77b4;"/>
   </g>
   <g id="patch_7">
    <path clip-path="url(#p3cf90941de)" d="M 58.229291 325.921635 
L 58.898748 325.921635 
L 58.898748 325.676217 
L 58.229291 325.676217 
z
" style="fill:#1f77b4;"/>
   </g>
   <g id="patch_8">
    <path clip-path="url(#p3cf90941de)" d="M 59.066112 325.921635 
L 59.735568 325.921635 
L 59.735568 325.676217 
L 59.066112 325.676217 
z
" style="fill:#1f77b4;"/>
   </g>
   <g id="patch_9">
    <path clip-path="url(#p3cf90941de)" d="M 59.902932 325.921635 
L 60.572388 325.921635 
L 60.572388 325.676217 
L 59.902932 325.676217 
z
" style="fill:#1f77b4;"/>
   </g>
   <g id="patch_10">
    <path clip-path="url(#p3cf90941de)" d="M 60.739752 325.921635 
L 61.409209 325.921635 
L 61.409209 325.641157 
L 60.739752 325.641157 
z
" style="fill:#1f77b4;"/>
   </g>
   <g id="patch_11">
    <path clip-path="url(#p3cf90941de)" d="M 61.576573 325.921635 
L 62.246029 325.921635 
L 62.246029 325.606098 
L 61.576573 325.606098 
z
" style="fill:#1f77b4;"/>
   </g>
   <g id="patch_12">
    <path clip-path="url(#p3cf90941de)" d="M 62.413393 325.921635 
L 63.082849 325.921635 
L 63.082849 325.606098 
L 62.413393 325.606098 
z
" style="fill:#1f77b4;"/>
   </g>
   <g id="patch_13">
    <path clip-path="url(#p3cf90941de)" d="M 63.250213 325.921635 
L 63.919669 325.921635 
L 63.919669 325.571038 
L 63.250213 325.571038 
z
" style="fill:#1f77b4;"/>
   </g>
   <g id="patch_14">
    <path clip-path="url(#p3cf90941de)" d="M 64.087033 325.921635 
L 64.75649 325.921635 
L 64.75649 325.535978 
L 64.087033 325.535978 
z
" style="fill:#1f77b4;"/>
   </g>
   <g id="patch_15">
    <path clip-path="url(#p3cf90941de)" d="M 64.923854 325.921635 
L 65.59331 325.921635 
L 65.59331 325.500919 
L 64.923854 325.500919 
z
" style="fill:#1f77b4;"/>
   </g>
   <g id="patch_16">
    <path clip-path="url(#p3cf90941de)" d="M 65.760674 325.921635 
L 66.43013 325.921635 
L 66.43013 325.500919 
L 65.760674 325.500919 
z
" style="fill:#1f77b4;"/>
   </g>
   <g id="patch_17">
    <path clip-path="url(#p3cf90941de)" d="M 66.597494 325.921635 
L 67.266951 325.921635 
L 67.266951 325.500919 
L 66.597494 325.500919 
z
" style="fill:#1f77b4;"/>
   </g>
   <g id="patch_18">
    <path clip-path="url(#p3cf90941de)" d="M 67.434315 325.921635 
L 68.103771 325.921635 
L 68.103771 325.430799 
L 67.434315 325.430799 
z
" style="fill:#1f77b4;"/>
   </g>
   <g id="patch_19">
    <path clip-path="url(#p3cf90941de)" d="M 68.271135 325.921635 
L 68.940591 325.921635 
L 68.940591 325.32562 
L 68.271135 325.32562 
z
" style="fill:#1f77b4;"/>
   </g>
   <g id="patch_20">
    <path clip-path="url(#p3cf90941de)" d="M 69.107955 325.921635 
L 69.777411 325.921635 
L 69.777411 325.32562 
L 69.107955 325.32562 
z
" style="fill:#1f77b4;"/>
   </g>
   <g id="patch_21">
    <path clip-path="url(#p3cf90941de)" d="M 69.944776 325.921635 
L 70.614232 325.921635 
L 70.614232 325.255501 
L 69.944776 325.255501 
z
" style="fill:#1f77b4;"/>
   </g>
   <g id="patch_22">
    <path clip-path="url(#p3cf90941de)" d="M 70.781596 325.921635 
L 71.451052 325.921635 
L 71.451052 325.115262 
L 70.781596 325.115262 
z
" style="fill:#1f77b4;"/>
   </g>
   <g id="patch_23">
    <path clip-path="url(#p3cf90941de)" d="M 71.618416 325.921635 
L 72.287872 325.921635 
L 72.287872 325.115262 
L 71.618416 325.115262 
z
" style="fill:#1f77b4;"/>
   </g>
   <g id="patch_24">
    <path clip-path="url(#p3cf90941de)" d="M 72.455236 325.921635 
L 73.124693 325.921635 
L 73.124693 325.115262 
L 72.455236 325.115262 
z
" style="fill:#1f77b4;"/>
   </g>
   <g id="patch_25">
    <path clip-path="url(#p3cf90941de)" d="M 73.292057 325.921635 
L 73.961513 325.921635 
L 73.961513 325.115262 
L 73.292057 325.115262 
z
" style="fill:#1f77b4;"/>
   </g>
   <g id="patch_26">
    <path clip-path="url(#p3cf90941de)" d="M 74.128877 325.921635 
L 74.798333 325.921635 
L 74.798333 325.045143 
L 74.128877 325.045143 
z
" style="fill:#1f77b4;"/>
   </g>
   <g id="patch_27">
    <path clip-path="url(#p3cf90941de)" d="M 74.965697 325.921635 
L 75.635153 325.921635 
L 75.635153 325.010083 
L 74.965697 325.010083 
z
" style="fill:#1f77b4;"/>
   </g>
   <g id="patch_28">
    <path clip-path="url(#p3cf90941de)" d="M 75.802518 325.921635 
L 76.471974 325.921635 
L 76.471974 325.010083 
L 75.802518 325.010083 
z
" style="fill:#1f77b4;"/>
   </g>
   <g id="patch_29">
    <path clip-path="url(#p3cf90941de)" d="M 76.639338 325.921635 
L 77.308794 325.921635 
L 77.308794 325.010083 
L 76.639338 325.010083 
z
" style="fill:#1f77b4;"/>
   </g>
   <g id="patch_30">
    <path clip-path="url(#p3cf90941de)" d="M 77.476158 325.921635 
L 78.145614 325.921635 
L 78.145614 324.904904 
L 77.476158 324.904904 
z
" style="fill:#1f77b4;"/>
   </g>
   <g id="patch_31">
    <path clip-path="url(#p3cf90941de)" d="M 78.312978 325.921635 
L 78.982435 325.921635 
L 78.982435 324.834784 
L 78.312978 324.834784 
z
" style="fill:#1f77b4;"/>
   </g>
   <g id="patch_32">
    <path clip-path="url(#p3cf90941de)" d="M 79.149799 325.921635 
L 79.819255 325.921635 
L 79.819255 324.764665 
L 79.149799 324.764665 
z
" style="fill:#1f77b4;"/>
   </g>
   <g id="patch_33">
    <path clip-path="url(#p3cf90941de)" d="M 79.986619 325.921635 
L 80.656075 325.921635 
L 80.656075 324.764665 
L 79.986619 324.764665 
z
" style="fill:#1f77b4;"/>
   </g>
   <g id="patch_34">
    <path clip-path="url(#p3cf90941de)" d="M 80.823439 325.921635 
L 81.492896 325.921635 
L 81.492896 324.729605 
L 80.823439 324.729605 
z
" style="fill:#1f77b4;"/>
   </g>
   <g id="patch_35">
    <path clip-path="url(#p3cf90941de)" d="M 81.66026 325.921635 
L 82.329716 325.921635 
L 82.329716 324.624426 
L 81.66026 324.624426 
z
" style="fill:#1f77b4;"/>
   </g>
   <g id="patch_36">
    <path clip-path="url(#p3cf90941de)" d="M 82.49708 325.921635 
L 83.166536 325.921635 
L 83.166536 324.624426 
L 82.49708 324.624426 
z
" style="fill:#1f77b4;"/>
   </g>
   <g id="patch_37">
    <path clip-path="url(#p3cf90941de)" d="M 83.3339 325.921635 
L 84.003356 325.921635 
L 84.003356 324.624426 
L 83.3339 324.624426 
z
" style="fill:#1f77b4;"/>
   </g>
   <g id="patch_38">
    <path clip-path="url(#p3cf90941de)" d="M 84.17072 325.921635 
L 84.840177 325.921635 
L 84.840177 324.414068 
L 84.17072 324.414068 
z
" style="fill:#1f77b4;"/>
   </g>
   <g id="patch_39">
    <path clip-path="url(#p3cf90941de)" d="M 85.007541 325.921635 
L 85.676997 325.921635 
L 85.676997 324.16865 
L 85.007541 324.16865 
z
" style="fill:#1f77b4;"/>
   </g>
   <g id="patch_40">
    <path clip-path="url(#p3cf90941de)" d="M 85.844361 325.921635 
L 86.513817 325.921635 
L 86.513817 323.888173 
L 85.844361 323.888173 
z
" style="fill:#1f77b4;"/>
   </g>
   <g id="patch_41">
    <path clip-path="url(#p3cf90941de)" d="M 86.681181 325.921635 
L 87.350638 325.921635 
L 87.350638 323.572636 
L 86.681181 323.572636 
z
" style="fill:#1f77b4;"/>
   </g>
   <g id="patch_42">
    <path clip-path="url(#p3cf90941de)" d="M 87.518002 325.921635 
L 88.187458 325.921635 
L 88.187458 323.151919 
L 87.518002 323.151919 
z
" style="fill:#1f77b4;"/>
   </g>
   <g id="patch_43">
    <path clip-path="url(#p3cf90941de)" d="M 88.354822 325.921635 
L 89.024278 325.921635 
L 89.024278 321.854711 
L 88.354822 321.854711 
z
" style="fill:#1f77b4;"/>
   </g>
   <g id="patch_44">
    <path clip-path="url(#p3cf90941de)" d="M 89.191642 325.921635 
L 89.861098 325.921635 
L 89.861098 321.118457 
L 89.191642 321.118457 
z
" style="fill:#1f77b4;"/>
   </g>
   <g id="patch_45">
    <path clip-path="url(#p3cf90941de)" d="M 90.028462 325.921635 
L 90.697919 325.921635 
L 90.697919 320.171845 
L 90.028462 320.171845 
z
" style="fill:#1f77b4;"/>
   </g>
   <g id="patch_46">
    <path clip-path="url(#p3cf90941de)" d="M 90.865283 325.921635 
L 91.534739 325.921635 
L 91.534739 319.225233 
L 90.865283 319.225233 
z
" style="fill:#1f77b4;"/>
   </g>
   <g id="patch_47">
    <path clip-path="url(#p3cf90941de)" d="M 91.702103 325.921635 
L 92.371559 325.921635 
L 92.371559 317.29695 
L 91.702103 317.29695 
z
" style="fill:#1f77b4;"/>
   </g>
   <g id="patch_48">
    <path clip-path="url(#p3cf90941de)" d="M 92.538923 325.921635 
L 93.20838 325.921635 
L 93.20838 316.560697 
L 92.538923 316.560697 
z
" style="fill:#1f77b4;"/>
   </g>
   <g id="patch_49">
    <path clip-path="url(#p3cf90941de)" d="M 93.375744 325.921635 
L 94.0452 325.921635 
L 94.0452 315.298548 
L 93.375744 315.298548 
z
" style="fill:#1f77b4;"/>
   </g>
   <g id="patch_50">
    <path clip-path="url(#p3cf90941de)" d="M 94.212564 325.921635 
L 94.88202 325.921635 
L 94.88202 313.615682 
L 94.212564 313.615682 
z
" style="fill:#1f77b4;"/>
   </g>
   <g id="patch_51">
    <path clip-path="url(#p3cf90941de)" d="M 95.049384 325.921635 
L 95.71884 325.921635 
L 95.71884 311.091385 
L 95.049384 311.091385 
z
" style="fill:#1f77b4;"/>
   </g>
   <g id="patch_52">
    <path clip-path="url(#p3cf90941de)" d="M 95.886204 325.921635 
L 96.555661 325.921635 
L 96.555661 308.602146 
L 95.886204 308.602146 
z
" style="fill:#1f77b4;"/>
   </g>
   <g id="patch_53">
    <path clip-path="url(#p3cf90941de)" d="M 96.723025 325.921635 
L 97.392481 325.921635 
L 97.392481 305.86749 
L 96.723025 305.86749 
z
" style="fill:#1f77b4;"/>
   </g>
   <g id="patch_54">
    <path clip-path="url(#p3cf90941de)" d="M 97.559845 325.921635 
L 98.229301 325.921635 
L 98.229301 301.800566 
L 97.559845 301.800566 
z
" style="fill:#1f77b4;"/>
   </g>
   <g id="patch_55">
    <path clip-path="url(#p3cf90941de)" d="M 98.396665 325.921635 
L 99.066122 325.921635 
L 99.066122 299.732044 
L 98.396665 299.732044 
z
" style="fill:#1f77b4;"/>
   </g>
   <g id="patch_56">
    <path clip-path="url(#p3cf90941de)" d="M 99.233486 325.921635 
L 99.902942 325.921635 
L 99.902942 296.892209 
L 99.233486 296.892209 
z
" style="fill:#1f77b4;"/>
   </g>
   <g id="patch_57">
    <path clip-path="url(#p3cf90941de)" d="M 100.070306 325.921635 
L 100.739762 325.921635 
L 100.739762 293.246 
L 100.070306 293.246 
z
" style="fill:#1f77b4;"/>
   </g>
   <g id="patch_58">
    <path clip-path="url(#p3cf90941de)" d="M 100.907126 325.921635 
L 101.576582 325.921635 
L 101.576582 289.84521 
L 100.907126 289.84521 
z
" style="fill:#1f77b4;"/>
   </g>
   <g id="patch_59">
    <path clip-path="url(#p3cf90941de)" d="M 101.743947 325.921635 
L 102.413403 325.921635 
L 102.413403 284.586256 
L 101.743947 284.586256 
z
" style="fill:#1f77b4;"/>
   </g>
   <g id="patch_60">
    <path clip-path="url(#p3cf90941de)" d="M 102.580767 325.921635 
L 103.250223 325.921635 
L 103.250223 281.080287 
L 102.580767 281.080287 
z
" style="fill:#1f77b4;"/>
   </g>
   <g id="patch_61">
    <path clip-path="url(#p3cf90941de)" d="M 103.417587 325.921635 
L 104.087043 325.921635 
L 104.087043 277.469138 
L 103.417587 277.469138 
z
" style="fill:#1f77b4;"/>
   </g>
   <g id="patch_62">
    <path clip-path="url(#p3cf90941de)" d="M 104.254407 325.921635 
L 104.923864 325.921635 
L 104.923864 273.472333 
L 104.254407 273.472333 
z
" style="fill:#1f77b4;"/>
   </g>
   <g id="patch_63">
    <path clip-path="url(#p3cf90941de)" d="M 105.091228 325.921635 
L 105.760684 325.921635 
L 105.760684 268.213379 
L 105.091228 268.213379 
z
" style="fill:#1f77b4;"/>
   </g>
   <g id="patch_64">
    <path clip-path="url(#p3cf90941de)" d="M 105.928048 325.921635 
L 106.597504 325.921635 
L 106.597504 262.498649 
L 105.928048 262.498649 
z
" style="fill:#1f77b4;"/>
   </g>
   <g id="patch_65">
    <path clip-path="url(#p3cf90941de)" d="M 106.764868 325.921635 
L 107.434324 325.921635 
L 107.434324 256.64368 
L 106.764868 256.64368 
z
" style="fill:#1f77b4;"/>
   </g>
   <g id="patch_66">
    <path clip-path="url(#p3cf90941de)" d="M 107.601689 325.921635 
L 108.271145 325.921635 
L 108.271145 248.61501 
L 107.601689 248.61501 
z
" style="fill:#1f77b4;"/>
   </g>
   <g id="patch_67">
    <path clip-path="url(#p3cf90941de)" d="M 108.438509 325.921635 
L 109.107965 325.921635 
L 109.107965 240.726579 
L 108.438509 240.726579 
z
" style="fill:#1f77b4;"/>
   </g>
   <g id="patch_68">
    <path clip-path="url(#p3cf90941de)" d="M 109.275329 325.921635 
L 109.944785 325.921635 
L 109.944785 235.081968 
L 109.275329 235.081968 
z
" style="fill:#1f77b4;"/>
   </g>
   <g id="patch_69">
    <path clip-path="url(#p3cf90941de)" d="M 110.112149 325.921635 
L 110.781606 325.921635 
L 110.781606 231.400701 
L 110.112149 231.400701 
z
" style="fill:#1f77b4;"/>
   </g>
   <g id="patch_70">
    <path clip-path="url(#p3cf90941de)" d="M 110.94897 325.921635 
L 111.618426 325.921635 
L 111.618426 225.72103 
L 110.94897 225.72103 
z
" style="fill:#1f77b4;"/>
   </g>
   <g id="patch_71">
    <path clip-path="url(#p3cf90941de)" d="M 111.78579 325.921635 
L 112.455246 325.921635 
L 112.455246 219.936181 
L 111.78579 219.936181 
z
" style="fill:#1f77b4;"/>
   </g>
   <g id="patch_72">
    <path clip-path="url(#p3cf90941de)" d="M 112.62261 325.921635 
L 113.292067 325.921635 
L 113.292067 211.031018 
L 112.62261 211.031018 
z
" style="fill:#1f77b4;"/>
   </g>
   <g id="patch_73">
    <path clip-path="url(#p3cf90941de)" d="M 113.459431 325.921635 
L 114.128887 325.921635 
L 114.128887 199.321081 
L 113.459431 199.321081 
z
" style="fill:#1f77b4;"/>
   </g>
   <g id="patch_74">
    <path clip-path="url(#p3cf90941de)" d="M 114.296251 325.921635 
L 114.965707 325.921635 
L 114.965707 186.348994 
L 114.296251 186.348994 
z
" style="fill:#1f77b4;"/>
   </g>
   <g id="patch_75">
    <path clip-path="url(#p3cf90941de)" d="M 115.133071 325.921635 
L 115.802527 325.921635 
L 115.802527 179.512354 
L 115.133071 179.512354 
z
" style="fill:#1f77b4;"/>
   </g>
   <g id="patch_76">
    <path clip-path="url(#p3cf90941de)" d="M 115.969891 325.921635 
L 116.639348 325.921635 
L 116.639348 173.587265 
L 115.969891 173.587265 
z
" style="fill:#1f77b4;"/>
   </g>
   <g id="patch_77">
    <path clip-path="url(#p3cf90941de)" d="M 116.806712 325.921635 
L 117.476168 325.921635 
L 117.476168 168.749028 
L 116.806712 168.749028 
z
" style="fill:#1f77b4;"/>
   </g>
   <g id="patch_78">
    <path clip-path="url(#p3cf90941de)" d="M 117.643532 325.921635 
L 118.312988 325.921635 
L 118.312988 161.211194 
L 117.643532 161.211194 
z
" style="fill:#1f77b4;"/>
   </g>
   <g id="patch_79">
    <path clip-path="url(#p3cf90941de)" d="M 118.480352 325.921635 
L 119.149809 325.921635 
L 119.149809 154.79527 
L 118.480352 154.79527 
z
" style="fill:#1f77b4;"/>
   </g>
   <g id="patch_80">
    <path clip-path="url(#p3cf90941de)" d="M 119.317173 325.921635 
L 119.986629 325.921635 
L 119.986629 144.242302 
L 119.317173 144.242302 
z
" style="fill:#1f77b4;"/>
   </g>
   <g id="patch_81">
    <path clip-path="url(#p3cf90941de)" d="M 120.153993 325.921635 
L 120.823449 325.921635 
L 120.823449 132.918021 
L 120.153993 132.918021 
z
" style="fill:#1f77b4;"/>
   </g>
   <g id="patch_82">
    <path clip-path="url(#p3cf90941de)" d="M 120.990813 325.921635 
L 121.660269 325.921635 
L 121.660269 128.044723 
L 120.990813 128.044723 
z
" style="fill:#1f77b4;"/>
   </g>
   <g id="patch_83">
    <path clip-path="url(#p3cf90941de)" d="M 121.827633 325.921635 
L 122.49709 325.921635 
L 122.49709 122.329993 
L 121.827633 122.329993 
z
" style="fill:#1f77b4;"/>
   </g>
   <g id="patch_84">
    <path clip-path="url(#p3cf90941de)" d="M 122.664454 325.921635 
L 123.33391 325.921635 
L 123.33391 113.740368 
L 122.664454 113.740368 
z
" style="fill:#1f77b4;"/>
   </g>
   <g id="patch_85">
    <path clip-path="url(#p3cf90941de)" d="M 123.501274 325.921635 
L 124.17073 325.921635 
L 124.17073 106.553131 
L 123.501274 106.553131 
z
" style="fill:#1f77b4;"/>
   </g>
   <g id="patch_86">
    <path clip-path="url(#p3cf90941de)" d="M 124.338094 325.921635 
L 125.007551 325.921635 
L 125.007551 97.016894 
L 124.338094 97.016894 
z
" style="fill:#1f77b4;"/>
   </g>
   <g id="patch_87">
    <path clip-path="url(#p3cf90941de)" d="M 125.174915 325.921635 
L 125.844371 325.921635 
L 125.844371 89.47906 
L 125.174915 89.47906 
z
" style="fill:#1f77b4;"/>
   </g>
   <g id="patch_88">
    <path clip-path="url(#p3cf90941de)" d="M 126.011735 325.921635 
L 126.681191 325.921635 
L 126.681191 82.922897 
L 126.011735 82.922897 
z
" style="fill:#1f77b4;"/>
   </g>
   <g id="patch_89">
    <path clip-path="url(#p3cf90941de)" d="M 126.848555 325.921635 
L 127.518011 325.921635 
L 127.518011 81.48545 
L 126.848555 81.48545 
z
" style="fill:#1f77b4;"/>
   </g>
   <g id="patch_90">
    <path clip-path="url(#p3cf90941de)" d="M 127.685375 325.921635 
L 128.354832 325.921635 
L 128.354832 75.7006 
L 127.685375 75.7006 
z
" style="fill:#1f77b4;"/>
   </g>
   <g id="patch_91">
    <path clip-path="url(#p3cf90941de)" d="M 128.522196 325.921635 
L 129.191652 325.921635 
L 129.191652 69.670333 
L 128.522196 69.670333 
z
" style="fill:#1f77b4;"/>
   </g>
   <g id="patch_92">
    <path clip-path="url(#p3cf90941de)" d="M 129.359016 325.921635 
L 130.028472 325.921635 
L 130.028472 60.414574 
L 129.359016 60.414574 
z
" style="fill:#1f77b4;"/>
   </g>
   <g id="patch_93">
    <path clip-path="url(#p3cf90941de)" d="M 130.195836 325.921635 
L 130.865293 325.921635 
L 130.865293 53.367575 
L 130.195836 53.367575 
z
" style="fill:#1f77b4;"/>
   </g>
   <g id="patch_94">
    <path clip-path="url(#p3cf90941de)" d="M 131.032657 325.921635 
L 131.702113 325.921635 
L 131.702113 46.986711 
L 131.032657 46.986711 
z
" style="fill:#1f77b4;"/>
   </g>
   <g id="patch_95">
    <path clip-path="url(#p3cf90941de)" d="M 131.869477 325.921635 
L 132.538933 325.921635 
L 132.538933 38.326967 
L 131.869477 38.326967 
z
" style="fill:#1f77b4;"/>
   </g>
   <g id="patch_96">
    <path clip-path="url(#p3cf90941de)" d="M 132.706297 325.921635 
L 133.375753 325.921635 
L 133.375753 33.032953 
L 132.706297 33.032953 
z
" style="fill:#1f77b4;"/>
   </g>
   <g id="matplotlib.axis_1">
    <g id="xtick_1">
     <g id="line2d_1">
      <defs>
       <path d="M 0 0 
L 0 3.5 
" id="md0e56ad59b" style="stroke:#000000;stroke-width:0.8;"/>
      </defs>
      <g>
       <use style="stroke:#000000;stroke-width:0.8;" x="55.216738" xlink:href="#md0e56ad59b" y="325.921635"/>
      </g>
     </g>
     <g id="text_1">
      <!-- 0 -->
      <defs>
       <path d="M 31.78125 66.40625 
Q 24.171875 66.40625 20.328125 58.90625 
Q 16.5 51.421875 16.5 36.375 
Q 16.5 21.390625 20.328125 13.890625 
Q 24.171875 6.390625 31.78125 6.390625 
Q 39.453125 6.390625 43.28125 13.890625 
Q 47.125 21.390625 47.125 36.375 
Q 47.125 51.421875 43.28125 58.90625 
Q 39.453125 66.40625 31.78125 66.40625 
z
M 31.78125 74.21875 
Q 44.046875 74.21875 50.515625 64.515625 
Q 56.984375 54.828125 56.984375 36.375 
Q 56.984375 17.96875 50.515625 8.265625 
Q 44.046875 -1.421875 31.78125 -1.421875 
Q 19.53125 -1.421875 13.0625 8.265625 
Q 6.59375 17.96875 6.59375 36.375 
Q 6.59375 54.828125 13.0625 64.515625 
Q 19.53125 74.21875 31.78125 74.21875 
z
" id="DejaVuSans-48"/>
      </defs>
      <g transform="translate(52.035488 340.520072)scale(0.1 -0.1)">
       <use xlink:href="#DejaVuSans-48"/>
      </g>
     </g>
    </g>
    <g id="xtick_2">
     <g id="line2d_2">
      <g>
       <use style="stroke:#000000;stroke-width:0.8;" x="97.057753" xlink:href="#md0e56ad59b" y="325.921635"/>
      </g>
     </g>
     <g id="text_2">
      <!-- 50 -->
      <defs>
       <path d="M 10.796875 72.90625 
L 49.515625 72.90625 
L 49.515625 64.59375 
L 19.828125 64.59375 
L 19.828125 46.734375 
Q 21.96875 47.46875 24.109375 47.828125 
Q 26.265625 48.1875 28.421875 48.1875 
Q 40.625 48.1875 47.75 41.5 
Q 54.890625 34.8125 54.890625 23.390625 
Q 54.890625 11.625 47.5625 5.09375 
Q 40.234375 -1.421875 26.90625 -1.421875 
Q 22.3125 -1.421875 17.546875 -0.640625 
Q 12.796875 0.140625 7.71875 1.703125 
L 7.71875 11.625 
Q 12.109375 9.234375 16.796875 8.0625 
Q 21.484375 6.890625 26.703125 6.890625 
Q 35.15625 6.890625 40.078125 11.328125 
Q 45.015625 15.765625 45.015625 23.390625 
Q 45.015625 31 40.078125 35.4375 
Q 35.15625 39.890625 26.703125 39.890625 
Q 22.75 39.890625 18.8125 39.015625 
Q 14.890625 38.140625 10.796875 36.28125 
z
" id="DejaVuSans-53"/>
      </defs>
      <g transform="translate(90.695253 340.520072)scale(0.1 -0.1)">
       <use xlink:href="#DejaVuSans-53"/>
       <use x="63.623047" xlink:href="#DejaVuSans-48"/>
      </g>
     </g>
    </g>
   </g>
   <g id="matplotlib.axis_2">
    <g id="ytick_1">
     <g id="line2d_3">
      <defs>
       <path d="M 0 0 
L -3.5 0 
" id="m81d54d16e7" style="stroke:#000000;stroke-width:0.8;"/>
      </defs>
      <g>
       <use style="stroke:#000000;stroke-width:0.8;" x="50.957323" xlink:href="#m81d54d16e7" y="325.921635"/>
      </g>
     </g>
     <g id="text_3">
      <!-- 0 -->
      <g transform="translate(37.594823 329.720854)scale(0.1 -0.1)">
       <use xlink:href="#DejaVuSans-48"/>
      </g>
     </g>
    </g>
    <g id="ytick_2">
     <g id="line2d_4">
      <g>
       <use style="stroke:#000000;stroke-width:0.8;" x="50.957323" xlink:href="#m81d54d16e7" y="290.861941"/>
      </g>
     </g>
     <g id="text_4">
      <!-- 1000 -->
      <defs>
       <path d="M 12.40625 8.296875 
L 28.515625 8.296875 
L 28.515625 63.921875 
L 10.984375 60.40625 
L 10.984375 69.390625 
L 28.421875 72.90625 
L 38.28125 72.90625 
L 38.28125 8.296875 
L 54.390625 8.296875 
L 54.390625 0 
L 12.40625 0 
z
" id="DejaVuSans-49"/>
      </defs>
      <g transform="translate(18.507323 294.66116)scale(0.1 -0.1)">
       <use xlink:href="#DejaVuSans-49"/>
       <use x="63.623047" xlink:href="#DejaVuSans-48"/>
       <use x="127.246094" xlink:href="#DejaVuSans-48"/>
       <use x="190.869141" xlink:href="#DejaVuSans-48"/>
      </g>
     </g>
    </g>
    <g id="ytick_3">
     <g id="line2d_5">
      <g>
       <use style="stroke:#000000;stroke-width:0.8;" x="50.957323" xlink:href="#m81d54d16e7" y="255.802247"/>
      </g>
     </g>
     <g id="text_5">
      <!-- 2000 -->
      <defs>
       <path d="M 19.1875 8.296875 
L 53.609375 8.296875 
L 53.609375 0 
L 7.328125 0 
L 7.328125 8.296875 
Q 12.9375 14.109375 22.625 23.890625 
Q 32.328125 33.6875 34.8125 36.53125 
Q 39.546875 41.84375 41.421875 45.53125 
Q 43.3125 49.21875 43.3125 52.78125 
Q 43.3125 58.59375 39.234375 62.25 
Q 35.15625 65.921875 28.609375 65.921875 
Q 23.96875 65.921875 18.8125 64.3125 
Q 13.671875 62.703125 7.8125 59.421875 
L 7.8125 69.390625 
Q 13.765625 71.78125 18.9375 73 
Q 24.125 74.21875 28.421875 74.21875 
Q 39.75 74.21875 46.484375 68.546875 
Q 53.21875 62.890625 53.21875 53.421875 
Q 53.21875 48.921875 51.53125 44.890625 
Q 49.859375 40.875 45.40625 35.40625 
Q 44.1875 33.984375 37.640625 27.21875 
Q 31.109375 20.453125 19.1875 8.296875 
z
" id="DejaVuSans-50"/>
      </defs>
      <g transform="translate(18.507323 259.601466)scale(0.1 -0.1)">
       <use xlink:href="#DejaVuSans-50"/>
       <use x="63.623047" xlink:href="#DejaVuSans-48"/>
       <use x="127.246094" xlink:href="#DejaVuSans-48"/>
       <use x="190.869141" xlink:href="#DejaVuSans-48"/>
      </g>
     </g>
    </g>
    <g id="ytick_4">
     <g id="line2d_6">
      <g>
       <use style="stroke:#000000;stroke-width:0.8;" x="50.957323" xlink:href="#m81d54d16e7" y="220.742554"/>
      </g>
     </g>
     <g id="text_6">
      <!-- 3000 -->
      <defs>
       <path d="M 40.578125 39.3125 
Q 47.65625 37.796875 51.625 33 
Q 55.609375 28.21875 55.609375 21.1875 
Q 55.609375 10.40625 48.1875 4.484375 
Q 40.765625 -1.421875 27.09375 -1.421875 
Q 22.515625 -1.421875 17.65625 -0.515625 
Q 12.796875 0.390625 7.625 2.203125 
L 7.625 11.71875 
Q 11.71875 9.328125 16.59375 8.109375 
Q 21.484375 6.890625 26.8125 6.890625 
Q 36.078125 6.890625 40.9375 10.546875 
Q 45.796875 14.203125 45.796875 21.1875 
Q 45.796875 27.640625 41.28125 31.265625 
Q 36.765625 34.90625 28.71875 34.90625 
L 20.21875 34.90625 
L 20.21875 43.015625 
L 29.109375 43.015625 
Q 36.375 43.015625 40.234375 45.921875 
Q 44.09375 48.828125 44.09375 54.296875 
Q 44.09375 59.90625 40.109375 62.90625 
Q 36.140625 65.921875 28.71875 65.921875 
Q 24.65625 65.921875 20.015625 65.03125 
Q 15.375 64.15625 9.8125 62.3125 
L 9.8125 71.09375 
Q 15.4375 72.65625 20.34375 73.4375 
Q 25.25 74.21875 29.59375 74.21875 
Q 40.828125 74.21875 47.359375 69.109375 
Q 53.90625 64.015625 53.90625 55.328125 
Q 53.90625 49.265625 50.4375 45.09375 
Q 46.96875 40.921875 40.578125 39.3125 
z
" id="DejaVuSans-51"/>
      </defs>
      <g transform="translate(18.507323 224.541772)scale(0.1 -0.1)">
       <use xlink:href="#DejaVuSans-51"/>
       <use x="63.623047" xlink:href="#DejaVuSans-48"/>
       <use x="127.246094" xlink:href="#DejaVuSans-48"/>
       <use x="190.869141" xlink:href="#DejaVuSans-48"/>
      </g>
     </g>
    </g>
    <g id="ytick_5">
     <g id="line2d_7">
      <g>
       <use style="stroke:#000000;stroke-width:0.8;" x="50.957323" xlink:href="#m81d54d16e7" y="185.68286"/>
      </g>
     </g>
     <g id="text_7">
      <!-- 4000 -->
      <defs>
       <path d="M 37.796875 64.3125 
L 12.890625 25.390625 
L 37.796875 25.390625 
z
M 35.203125 72.90625 
L 47.609375 72.90625 
L 47.609375 25.390625 
L 58.015625 25.390625 
L 58.015625 17.1875 
L 47.609375 17.1875 
L 47.609375 0 
L 37.796875 0 
L 37.796875 17.1875 
L 4.890625 17.1875 
L 4.890625 26.703125 
z
" id="DejaVuSans-52"/>
      </defs>
      <g transform="translate(18.507323 189.482079)scale(0.1 -0.1)">
       <use xlink:href="#DejaVuSans-52"/>
       <use x="63.623047" xlink:href="#DejaVuSans-48"/>
       <use x="127.246094" xlink:href="#DejaVuSans-48"/>
       <use x="190.869141" xlink:href="#DejaVuSans-48"/>
      </g>
     </g>
    </g>
    <g id="ytick_6">
     <g id="line2d_8">
      <g>
       <use style="stroke:#000000;stroke-width:0.8;" x="50.957323" xlink:href="#m81d54d16e7" y="150.623166"/>
      </g>
     </g>
     <g id="text_8">
      <!-- 5000 -->
      <g transform="translate(18.507323 154.422385)scale(0.1 -0.1)">
       <use xlink:href="#DejaVuSans-53"/>
       <use x="63.623047" xlink:href="#DejaVuSans-48"/>
       <use x="127.246094" xlink:href="#DejaVuSans-48"/>
       <use x="190.869141" xlink:href="#DejaVuSans-48"/>
      </g>
     </g>
    </g>
    <g id="ytick_7">
     <g id="line2d_9">
      <g>
       <use style="stroke:#000000;stroke-width:0.8;" x="50.957323" xlink:href="#m81d54d16e7" y="115.563472"/>
      </g>
     </g>
     <g id="text_9">
      <!-- 6000 -->
      <defs>
       <path d="M 33.015625 40.375 
Q 26.375 40.375 22.484375 35.828125 
Q 18.609375 31.296875 18.609375 23.390625 
Q 18.609375 15.53125 22.484375 10.953125 
Q 26.375 6.390625 33.015625 6.390625 
Q 39.65625 6.390625 43.53125 10.953125 
Q 47.40625 15.53125 47.40625 23.390625 
Q 47.40625 31.296875 43.53125 35.828125 
Q 39.65625 40.375 33.015625 40.375 
z
M 52.59375 71.296875 
L 52.59375 62.3125 
Q 48.875 64.0625 45.09375 64.984375 
Q 41.3125 65.921875 37.59375 65.921875 
Q 27.828125 65.921875 22.671875 59.328125 
Q 17.53125 52.734375 16.796875 39.40625 
Q 19.671875 43.65625 24.015625 45.921875 
Q 28.375 48.1875 33.59375 48.1875 
Q 44.578125 48.1875 50.953125 41.515625 
Q 57.328125 34.859375 57.328125 23.390625 
Q 57.328125 12.15625 50.6875 5.359375 
Q 44.046875 -1.421875 33.015625 -1.421875 
Q 20.359375 -1.421875 13.671875 8.265625 
Q 6.984375 17.96875 6.984375 36.375 
Q 6.984375 53.65625 15.1875 63.9375 
Q 23.390625 74.21875 37.203125 74.21875 
Q 40.921875 74.21875 44.703125 73.484375 
Q 48.484375 72.75 52.59375 71.296875 
z
" id="DejaVuSans-54"/>
      </defs>
      <g transform="translate(18.507323 119.362691)scale(0.1 -0.1)">
       <use xlink:href="#DejaVuSans-54"/>
       <use x="63.623047" xlink:href="#DejaVuSans-48"/>
       <use x="127.246094" xlink:href="#DejaVuSans-48"/>
       <use x="190.869141" xlink:href="#DejaVuSans-48"/>
      </g>
     </g>
    </g>
    <g id="ytick_8">
     <g id="line2d_10">
      <g>
       <use style="stroke:#000000;stroke-width:0.8;" x="50.957323" xlink:href="#m81d54d16e7" y="80.503778"/>
      </g>
     </g>
     <g id="text_10">
      <!-- 7000 -->
      <defs>
       <path d="M 8.203125 72.90625 
L 55.078125 72.90625 
L 55.078125 68.703125 
L 28.609375 0 
L 18.3125 0 
L 43.21875 64.59375 
L 8.203125 64.59375 
z
" id="DejaVuSans-55"/>
      </defs>
      <g transform="translate(18.507323 84.302997)scale(0.1 -0.1)">
       <use xlink:href="#DejaVuSans-55"/>
       <use x="63.623047" xlink:href="#DejaVuSans-48"/>
       <use x="127.246094" xlink:href="#DejaVuSans-48"/>
       <use x="190.869141" xlink:href="#DejaVuSans-48"/>
      </g>
     </g>
    </g>
    <g id="ytick_9">
     <g id="line2d_11">
      <g>
       <use style="stroke:#000000;stroke-width:0.8;" x="50.957323" xlink:href="#m81d54d16e7" y="45.444085"/>
      </g>
     </g>
     <g id="text_11">
      <!-- 8000 -->
      <defs>
       <path d="M 31.78125 34.625 
Q 24.75 34.625 20.71875 30.859375 
Q 16.703125 27.09375 16.703125 20.515625 
Q 16.703125 13.921875 20.71875 10.15625 
Q 24.75 6.390625 31.78125 6.390625 
Q 38.8125 6.390625 42.859375 10.171875 
Q 46.921875 13.96875 46.921875 20.515625 
Q 46.921875 27.09375 42.890625 30.859375 
Q 38.875 34.625 31.78125 34.625 
z
M 21.921875 38.8125 
Q 15.578125 40.375 12.03125 44.71875 
Q 8.5 49.078125 8.5 55.328125 
Q 8.5 64.0625 14.71875 69.140625 
Q 20.953125 74.21875 31.78125 74.21875 
Q 42.671875 74.21875 48.875 69.140625 
Q 55.078125 64.0625 55.078125 55.328125 
Q 55.078125 49.078125 51.53125 44.71875 
Q 48 40.375 41.703125 38.8125 
Q 48.828125 37.15625 52.796875 32.3125 
Q 56.78125 27.484375 56.78125 20.515625 
Q 56.78125 9.90625 50.3125 4.234375 
Q 43.84375 -1.421875 31.78125 -1.421875 
Q 19.734375 -1.421875 13.25 4.234375 
Q 6.78125 9.90625 6.78125 20.515625 
Q 6.78125 27.484375 10.78125 32.3125 
Q 14.796875 37.15625 21.921875 38.8125 
z
M 18.3125 54.390625 
Q 18.3125 48.734375 21.84375 45.5625 
Q 25.390625 42.390625 31.78125 42.390625 
Q 38.140625 42.390625 41.71875 45.5625 
Q 45.3125 48.734375 45.3125 54.390625 
Q 45.3125 60.0625 41.71875 63.234375 
Q 38.140625 66.40625 31.78125 66.40625 
Q 25.390625 66.40625 21.84375 63.234375 
Q 18.3125 60.0625 18.3125 54.390625 
z
" id="DejaVuSans-56"/>
      </defs>
      <g transform="translate(18.507323 49.243303)scale(0.1 -0.1)">
       <use xlink:href="#DejaVuSans-56"/>
       <use x="63.623047" xlink:href="#DejaVuSans-48"/>
       <use x="127.246094" xlink:href="#DejaVuSans-48"/>
       <use x="190.869141" xlink:href="#DejaVuSans-48"/>
      </g>
     </g>
    </g>
   </g>
   <g id="line2d_12">
    <path clip-path="url(#p3cf90941de)" d="M 55.216738 325.829846 
L 56.053559 325.810367 
L 56.890379 325.786595 
L 57.727199 325.760413 
L 58.56402 325.73264 
L 59.40084 325.704063 
L 60.23766 325.675326 
L 61.07448 325.646619 
L 61.911301 325.617925 
L 62.748121 325.58894 
L 63.584941 325.559137 
L 64.421762 325.527947 
L 65.258582 325.49483 
L 66.095402 325.459419 
L 66.932222 325.421673 
L 67.769043 325.381809 
L 68.605863 325.340339 
L 69.442683 325.297905 
L 70.279504 325.255136 
L 71.116324 325.212702 
L 71.953144 325.17113 
L 72.789964 325.130507 
L 73.626785 325.090657 
L 74.463605 325.051159 
L 75.300425 325.011456 
L 76.137246 324.970745 
L 76.974066 324.9278 
L 77.810886 324.881073 
L 78.647707 324.828374 
L 79.484527 324.766301 
L 80.321347 324.690019 
L 81.158167 324.593076 
L 81.994988 324.467132 
L 82.831808 324.302158 
L 83.668628 324.086309 
L 84.505449 323.807335 
L 85.342269 323.452927 
L 86.179089 323.010848 
L 87.015909 322.468876 
L 87.85273 321.815591 
L 88.68955 321.04 
L 89.52637 320.131573 
L 90.363191 319.078292 
L 91.200011 317.867557 
L 92.036831 316.486095 
L 92.873651 314.921068 
L 93.710472 313.161002 
L 94.547292 311.196228 
L 95.384112 309.018935 
L 96.220933 306.624815 
L 97.057753 304.01121 
L 97.894573 301.1778 
L 98.731393 298.123795 
L 99.568214 294.844538 
L 100.405034 291.332553 
L 101.241854 287.578771 
L 102.078675 283.572796 
L 102.915495 279.304347 
L 103.752315 274.762372 
L 104.589135 269.938182 
L 105.425956 264.828958 
L 106.262776 259.434569 
L 107.099596 253.756081 
L 107.936417 247.793349 
L 108.773237 241.54716 
L 109.610057 235.022012 
L 110.446878 228.227995 
L 111.283698 221.180369 
L 112.120518 213.90365 
L 112.957338 206.429481 
L 113.794159 198.799741 
L 114.630979 191.059346 
L 115.467799 183.252614 
L 116.30462 175.418664 
L 117.14144 167.589751 
L 117.97826 159.788042 
L 118.81508 152.032592 
L 119.651901 144.335887 
L 120.488721 136.713156 
L 121.325541 129.182068 
L 122.162362 121.760072 
L 122.999182 114.46145 
L 123.836002 107.29835 
L 124.672822 100.271459 
L 125.509643 93.375402 
L 126.346463 86.590147 
L 127.183283 79.881743 
L 128.020104 73.211873 
L 128.856924 66.550969 
L 129.693744 59.869579 
L 130.530564 53.147843 
L 131.367385 46.39607 
L 132.204205 39.604871 
L 133.041025 32.775664 
" style="fill:none;stroke:#ff0000;stroke-linecap:square;stroke-width:1.5;"/>
   </g>
   <g id="patch_97">
    <path d="M 50.957323 325.921635 
L 50.957323 18.118365 
" style="fill:none;stroke:#000000;stroke-linecap:square;stroke-linejoin:miter;stroke-width:0.8;"/>
   </g>
   <g id="patch_98">
    <path d="M 137.300441 325.921635 
L 137.300441 18.118365 
" style="fill:none;stroke:#000000;stroke-linecap:square;stroke-linejoin:miter;stroke-width:0.8;"/>
   </g>
   <g id="patch_99">
    <path d="M 50.957323 325.921635 
L 137.300441 325.921635 
" style="fill:none;stroke:#000000;stroke-linecap:square;stroke-linejoin:miter;stroke-width:0.8;"/>
   </g>
   <g id="patch_100">
    <path d="M 50.957323 18.118365 
L 137.300441 18.118365 
" style="fill:none;stroke:#000000;stroke-linecap:square;stroke-linejoin:miter;stroke-width:0.8;"/>
   </g>
   <g id="text_12">
    <!-- Casos acumulados - TO - (data) -->
    <defs>
     <path d="M 64.40625 67.28125 
L 64.40625 56.890625 
Q 59.421875 61.53125 53.78125 63.8125 
Q 48.140625 66.109375 41.796875 66.109375 
Q 29.296875 66.109375 22.65625 58.46875 
Q 16.015625 50.828125 16.015625 36.375 
Q 16.015625 21.96875 22.65625 14.328125 
Q 29.296875 6.6875 41.796875 6.6875 
Q 48.140625 6.6875 53.78125 8.984375 
Q 59.421875 11.28125 64.40625 15.921875 
L 64.40625 5.609375 
Q 59.234375 2.09375 53.4375 0.328125 
Q 47.65625 -1.421875 41.21875 -1.421875 
Q 24.65625 -1.421875 15.125 8.703125 
Q 5.609375 18.84375 5.609375 36.375 
Q 5.609375 53.953125 15.125 64.078125 
Q 24.65625 74.21875 41.21875 74.21875 
Q 47.75 74.21875 53.53125 72.484375 
Q 59.328125 70.75 64.40625 67.28125 
z
" id="DejaVuSans-67"/>
     <path d="M 34.28125 27.484375 
Q 23.390625 27.484375 19.1875 25 
Q 14.984375 22.515625 14.984375 16.5 
Q 14.984375 11.71875 18.140625 8.90625 
Q 21.296875 6.109375 26.703125 6.109375 
Q 34.1875 6.109375 38.703125 11.40625 
Q 43.21875 16.703125 43.21875 25.484375 
L 43.21875 27.484375 
z
M 52.203125 31.203125 
L 52.203125 0 
L 43.21875 0 
L 43.21875 8.296875 
Q 40.140625 3.328125 35.546875 0.953125 
Q 30.953125 -1.421875 24.3125 -1.421875 
Q 15.921875 -1.421875 10.953125 3.296875 
Q 6 8.015625 6 15.921875 
Q 6 25.140625 12.171875 29.828125 
Q 18.359375 34.515625 30.609375 34.515625 
L 43.21875 34.515625 
L 43.21875 35.40625 
Q 43.21875 41.609375 39.140625 45 
Q 35.0625 48.390625 27.6875 48.390625 
Q 23 48.390625 18.546875 47.265625 
Q 14.109375 46.140625 10.015625 43.890625 
L 10.015625 52.203125 
Q 14.9375 54.109375 19.578125 55.046875 
Q 24.21875 56 28.609375 56 
Q 40.484375 56 46.34375 49.84375 
Q 52.203125 43.703125 52.203125 31.203125 
z
" id="DejaVuSans-97"/>
     <path d="M 44.28125 53.078125 
L 44.28125 44.578125 
Q 40.484375 46.53125 36.375 47.5 
Q 32.28125 48.484375 27.875 48.484375 
Q 21.1875 48.484375 17.84375 46.4375 
Q 14.5 44.390625 14.5 40.28125 
Q 14.5 37.15625 16.890625 35.375 
Q 19.28125 33.59375 26.515625 31.984375 
L 29.59375 31.296875 
Q 39.15625 29.25 43.1875 25.515625 
Q 47.21875 21.78125 47.21875 15.09375 
Q 47.21875 7.46875 41.1875 3.015625 
Q 35.15625 -1.421875 24.609375 -1.421875 
Q 20.21875 -1.421875 15.453125 -0.5625 
Q 10.6875 0.296875 5.421875 2 
L 5.421875 11.28125 
Q 10.40625 8.6875 15.234375 7.390625 
Q 20.0625 6.109375 24.8125 6.109375 
Q 31.15625 6.109375 34.5625 8.28125 
Q 37.984375 10.453125 37.984375 14.40625 
Q 37.984375 18.0625 35.515625 20.015625 
Q 33.0625 21.96875 24.703125 23.78125 
L 21.578125 24.515625 
Q 13.234375 26.265625 9.515625 29.90625 
Q 5.8125 33.546875 5.8125 39.890625 
Q 5.8125 47.609375 11.28125 51.796875 
Q 16.75 56 26.8125 56 
Q 31.78125 56 36.171875 55.265625 
Q 40.578125 54.546875 44.28125 53.078125 
z
" id="DejaVuSans-115"/>
     <path d="M 30.609375 48.390625 
Q 23.390625 48.390625 19.1875 42.75 
Q 14.984375 37.109375 14.984375 27.296875 
Q 14.984375 17.484375 19.15625 11.84375 
Q 23.34375 6.203125 30.609375 6.203125 
Q 37.796875 6.203125 41.984375 11.859375 
Q 46.1875 17.53125 46.1875 27.296875 
Q 46.1875 37.015625 41.984375 42.703125 
Q 37.796875 48.390625 30.609375 48.390625 
z
M 30.609375 56 
Q 42.328125 56 49.015625 48.375 
Q 55.71875 40.765625 55.71875 27.296875 
Q 55.71875 13.875 49.015625 6.21875 
Q 42.328125 -1.421875 30.609375 -1.421875 
Q 18.84375 -1.421875 12.171875 6.21875 
Q 5.515625 13.875 5.515625 27.296875 
Q 5.515625 40.765625 12.171875 48.375 
Q 18.84375 56 30.609375 56 
z
" id="DejaVuSans-111"/>
     <path id="DejaVuSans-32"/>
     <path d="M 48.78125 52.59375 
L 48.78125 44.1875 
Q 44.96875 46.296875 41.140625 47.34375 
Q 37.3125 48.390625 33.40625 48.390625 
Q 24.65625 48.390625 19.8125 42.84375 
Q 14.984375 37.3125 14.984375 27.296875 
Q 14.984375 17.28125 19.8125 11.734375 
Q 24.65625 6.203125 33.40625 6.203125 
Q 37.3125 6.203125 41.140625 7.25 
Q 44.96875 8.296875 48.78125 10.40625 
L 48.78125 2.09375 
Q 45.015625 0.34375 40.984375 -0.53125 
Q 36.96875 -1.421875 32.421875 -1.421875 
Q 20.0625 -1.421875 12.78125 6.34375 
Q 5.515625 14.109375 5.515625 27.296875 
Q 5.515625 40.671875 12.859375 48.328125 
Q 20.21875 56 33.015625 56 
Q 37.15625 56 41.109375 55.140625 
Q 45.0625 54.296875 48.78125 52.59375 
z
" id="DejaVuSans-99"/>
     <path d="M 8.5 21.578125 
L 8.5 54.6875 
L 17.484375 54.6875 
L 17.484375 21.921875 
Q 17.484375 14.15625 20.5 10.265625 
Q 23.53125 6.390625 29.59375 6.390625 
Q 36.859375 6.390625 41.078125 11.03125 
Q 45.3125 15.671875 45.3125 23.6875 
L 45.3125 54.6875 
L 54.296875 54.6875 
L 54.296875 0 
L 45.3125 0 
L 45.3125 8.40625 
Q 42.046875 3.421875 37.71875 1 
Q 33.40625 -1.421875 27.6875 -1.421875 
Q 18.265625 -1.421875 13.375 4.4375 
Q 8.5 10.296875 8.5 21.578125 
z
M 31.109375 56 
z
" id="DejaVuSans-117"/>
     <path d="M 52 44.1875 
Q 55.375 50.25 60.0625 53.125 
Q 64.75 56 71.09375 56 
Q 79.640625 56 84.28125 50.015625 
Q 88.921875 44.046875 88.921875 33.015625 
L 88.921875 0 
L 79.890625 0 
L 79.890625 32.71875 
Q 79.890625 40.578125 77.09375 44.375 
Q 74.3125 48.1875 68.609375 48.1875 
Q 61.625 48.1875 57.5625 43.546875 
Q 53.515625 38.921875 53.515625 30.90625 
L 53.515625 0 
L 44.484375 0 
L 44.484375 32.71875 
Q 44.484375 40.625 41.703125 44.40625 
Q 38.921875 48.1875 33.109375 48.1875 
Q 26.21875 48.1875 22.15625 43.53125 
Q 18.109375 38.875 18.109375 30.90625 
L 18.109375 0 
L 9.078125 0 
L 9.078125 54.6875 
L 18.109375 54.6875 
L 18.109375 46.1875 
Q 21.1875 51.21875 25.484375 53.609375 
Q 29.78125 56 35.6875 56 
Q 41.65625 56 45.828125 52.96875 
Q 50 49.953125 52 44.1875 
z
" id="DejaVuSans-109"/>
     <path d="M 9.421875 75.984375 
L 18.40625 75.984375 
L 18.40625 0 
L 9.421875 0 
z
" id="DejaVuSans-108"/>
     <path d="M 45.40625 46.390625 
L 45.40625 75.984375 
L 54.390625 75.984375 
L 54.390625 0 
L 45.40625 0 
L 45.40625 8.203125 
Q 42.578125 3.328125 38.25 0.953125 
Q 33.9375 -1.421875 27.875 -1.421875 
Q 17.96875 -1.421875 11.734375 6.484375 
Q 5.515625 14.40625 5.515625 27.296875 
Q 5.515625 40.1875 11.734375 48.09375 
Q 17.96875 56 27.875 56 
Q 33.9375 56 38.25 53.625 
Q 42.578125 51.265625 45.40625 46.390625 
z
M 14.796875 27.296875 
Q 14.796875 17.390625 18.875 11.75 
Q 22.953125 6.109375 30.078125 6.109375 
Q 37.203125 6.109375 41.296875 11.75 
Q 45.40625 17.390625 45.40625 27.296875 
Q 45.40625 37.203125 41.296875 42.84375 
Q 37.203125 48.484375 30.078125 48.484375 
Q 22.953125 48.484375 18.875 42.84375 
Q 14.796875 37.203125 14.796875 27.296875 
z
" id="DejaVuSans-100"/>
     <path d="M 4.890625 31.390625 
L 31.203125 31.390625 
L 31.203125 23.390625 
L 4.890625 23.390625 
z
" id="DejaVuSans-45"/>
     <path d="M -0.296875 72.90625 
L 61.375 72.90625 
L 61.375 64.59375 
L 35.5 64.59375 
L 35.5 0 
L 25.59375 0 
L 25.59375 64.59375 
L -0.296875 64.59375 
z
" id="DejaVuSans-84"/>
     <path d="M 39.40625 66.21875 
Q 28.65625 66.21875 22.328125 58.203125 
Q 16.015625 50.203125 16.015625 36.375 
Q 16.015625 22.609375 22.328125 14.59375 
Q 28.65625 6.59375 39.40625 6.59375 
Q 50.140625 6.59375 56.421875 14.59375 
Q 62.703125 22.609375 62.703125 36.375 
Q 62.703125 50.203125 56.421875 58.203125 
Q 50.140625 66.21875 39.40625 66.21875 
z
M 39.40625 74.21875 
Q 54.734375 74.21875 63.90625 63.9375 
Q 73.09375 53.65625 73.09375 36.375 
Q 73.09375 19.140625 63.90625 8.859375 
Q 54.734375 -1.421875 39.40625 -1.421875 
Q 24.03125 -1.421875 14.8125 8.828125 
Q 5.609375 19.09375 5.609375 36.375 
Q 5.609375 53.65625 14.8125 63.9375 
Q 24.03125 74.21875 39.40625 74.21875 
z
" id="DejaVuSans-79"/>
     <path d="M 31 75.875 
Q 24.46875 64.65625 21.28125 53.65625 
Q 18.109375 42.671875 18.109375 31.390625 
Q 18.109375 20.125 21.3125 9.0625 
Q 24.515625 -2 31 -13.1875 
L 23.1875 -13.1875 
Q 15.875 -1.703125 12.234375 9.375 
Q 8.59375 20.453125 8.59375 31.390625 
Q 8.59375 42.28125 12.203125 53.3125 
Q 15.828125 64.359375 23.1875 75.875 
z
" id="DejaVuSans-40"/>
     <path d="M 18.3125 70.21875 
L 18.3125 54.6875 
L 36.8125 54.6875 
L 36.8125 47.703125 
L 18.3125 47.703125 
L 18.3125 18.015625 
Q 18.3125 11.328125 20.140625 9.421875 
Q 21.96875 7.515625 27.59375 7.515625 
L 36.8125 7.515625 
L 36.8125 0 
L 27.59375 0 
Q 17.1875 0 13.234375 3.875 
Q 9.28125 7.765625 9.28125 18.015625 
L 9.28125 47.703125 
L 2.6875 47.703125 
L 2.6875 54.6875 
L 9.28125 54.6875 
L 9.28125 70.21875 
z
" id="DejaVuSans-116"/>
     <path d="M 8.015625 75.875 
L 15.828125 75.875 
Q 23.140625 64.359375 26.78125 53.3125 
Q 30.421875 42.28125 30.421875 31.390625 
Q 30.421875 20.453125 26.78125 9.375 
Q 23.140625 -1.703125 15.828125 -13.1875 
L 8.015625 -13.1875 
Q 14.5 -2 17.703125 9.0625 
Q 20.90625 20.125 20.90625 31.390625 
Q 20.90625 42.671875 17.703125 53.65625 
Q 14.5 64.65625 8.015625 75.875 
z
" id="DejaVuSans-41"/>
    </defs>
    <g transform="translate(-0.483618 12.118365)scale(0.12 -0.12)">
     <use xlink:href="#DejaVuSans-67"/>
     <use x="69.824219" xlink:href="#DejaVuSans-97"/>
     <use x="131.103516" xlink:href="#DejaVuSans-115"/>
     <use x="183.203125" xlink:href="#DejaVuSans-111"/>
     <use x="244.384766" xlink:href="#DejaVuSans-115"/>
     <use x="296.484375" xlink:href="#DejaVuSans-32"/>
     <use x="328.271484" xlink:href="#DejaVuSans-97"/>
     <use x="389.550781" xlink:href="#DejaVuSans-99"/>
     <use x="444.53125" xlink:href="#DejaVuSans-117"/>
     <use x="507.910156" xlink:href="#DejaVuSans-109"/>
     <use x="605.322266" xlink:href="#DejaVuSans-117"/>
     <use x="668.701172" xlink:href="#DejaVuSans-108"/>
     <use x="696.484375" xlink:href="#DejaVuSans-97"/>
     <use x="757.763672" xlink:href="#DejaVuSans-100"/>
     <use x="821.240234" xlink:href="#DejaVuSans-111"/>
     <use x="882.421875" xlink:href="#DejaVuSans-115"/>
     <use x="934.521484" xlink:href="#DejaVuSans-32"/>
     <use x="966.308594" xlink:href="#DejaVuSans-45"/>
     <use x="1002.392578" xlink:href="#DejaVuSans-32"/>
     <use x="1034.179688" xlink:href="#DejaVuSans-84"/>
     <use x="1095.263672" xlink:href="#DejaVuSans-79"/>
     <use x="1173.974609" xlink:href="#DejaVuSans-32"/>
     <use x="1205.761719" xlink:href="#DejaVuSans-45"/>
     <use x="1241.845703" xlink:href="#DejaVuSans-32"/>
     <use x="1273.632812" xlink:href="#DejaVuSans-40"/>
     <use x="1312.646484" xlink:href="#DejaVuSans-100"/>
     <use x="1376.123047" xlink:href="#DejaVuSans-97"/>
     <use x="1437.402344" xlink:href="#DejaVuSans-116"/>
     <use x="1476.611328" xlink:href="#DejaVuSans-97"/>
     <use x="1537.890625" xlink:href="#DejaVuSans-41"/>
    </g>
   </g>
  </g>
  <g id="axes_2">
   <g id="patch_101">
    <path d="M 223.733962 325.921635 
L 310.077079 325.921635 
L 310.077079 18.118365 
L 223.733962 18.118365 
z
" style="fill:#ffffff;"/>
   </g>
   <g id="patch_102">
    <path clip-path="url(#p6d966c5c99)" d="M 227.658649 325.921635 
L 228.328105 325.921635 
L 228.328105 325.921635 
L 227.658649 325.921635 
z
" style="fill:#1f77b4;"/>
   </g>
   <g id="patch_103">
    <path clip-path="url(#p6d966c5c99)" d="M 228.495469 325.921635 
L 229.164926 325.921635 
L 229.164926 325.129349 
L 228.495469 325.129349 
z
" style="fill:#1f77b4;"/>
   </g>
   <g id="patch_104">
    <path clip-path="url(#p6d966c5c99)" d="M 229.33229 325.921635 
L 230.001746 325.921635 
L 230.001746 325.921635 
L 229.33229 325.921635 
z
" style="fill:#1f77b4;"/>
   </g>
   <g id="patch_105">
    <path clip-path="url(#p6d966c5c99)" d="M 230.16911 325.921635 
L 230.838566 325.921635 
L 230.838566 323.544776 
L 230.16911 323.544776 
z
" style="fill:#1f77b4;"/>
   </g>
   <g id="patch_106">
    <path clip-path="url(#p6d966c5c99)" d="M 231.00593 325.921635 
L 231.675386 325.921635 
L 231.675386 324.337062 
L 231.00593 324.337062 
z
" style="fill:#1f77b4;"/>
   </g>
   <g id="patch_107">
    <path clip-path="url(#p6d966c5c99)" d="M 231.842751 325.921635 
L 232.512207 325.921635 
L 232.512207 325.921635 
L 231.842751 325.921635 
z
" style="fill:#1f77b4;"/>
   </g>
   <g id="patch_108">
    <path clip-path="url(#p6d966c5c99)" d="M 232.679571 325.921635 
L 233.349027 325.921635 
L 233.349027 325.921635 
L 232.679571 325.921635 
z
" style="fill:#1f77b4;"/>
   </g>
   <g id="patch_109">
    <path clip-path="url(#p6d966c5c99)" d="M 233.516391 325.921635 
L 234.185847 325.921635 
L 234.185847 325.129349 
L 233.516391 325.129349 
z
" style="fill:#1f77b4;"/>
   </g>
   <g id="patch_110">
    <path clip-path="url(#p6d966c5c99)" d="M 234.353211 325.921635 
L 235.022668 325.921635 
L 235.022668 325.129349 
L 234.353211 325.129349 
z
" style="fill:#1f77b4;"/>
   </g>
   <g id="patch_111">
    <path clip-path="url(#p6d966c5c99)" d="M 235.190032 325.921635 
L 235.859488 325.921635 
L 235.859488 325.921635 
L 235.190032 325.921635 
z
" style="fill:#1f77b4;"/>
   </g>
   <g id="patch_112">
    <path clip-path="url(#p6d966c5c99)" d="M 236.026852 325.921635 
L 236.696308 325.921635 
L 236.696308 325.129349 
L 236.026852 325.129349 
z
" style="fill:#1f77b4;"/>
   </g>
   <g id="patch_113">
    <path clip-path="url(#p6d966c5c99)" d="M 236.863672 325.921635 
L 237.533128 325.921635 
L 237.533128 325.129349 
L 236.863672 325.129349 
z
" style="fill:#1f77b4;"/>
   </g>
   <g id="patch_114">
    <path clip-path="url(#p6d966c5c99)" d="M 237.700493 325.921635 
L 238.369949 325.921635 
L 238.369949 325.129349 
L 237.700493 325.129349 
z
" style="fill:#1f77b4;"/>
   </g>
   <g id="patch_115">
    <path clip-path="url(#p6d966c5c99)" d="M 238.537313 325.921635 
L 239.206769 325.921635 
L 239.206769 325.921635 
L 238.537313 325.921635 
z
" style="fill:#1f77b4;"/>
   </g>
   <g id="patch_116">
    <path clip-path="url(#p6d966c5c99)" d="M 239.374133 325.921635 
L 240.043589 325.921635 
L 240.043589 325.921635 
L 239.374133 325.921635 
z
" style="fill:#1f77b4;"/>
   </g>
   <g id="patch_117">
    <path clip-path="url(#p6d966c5c99)" d="M 240.210953 325.921635 
L 240.88041 325.921635 
L 240.88041 324.337062 
L 240.210953 324.337062 
z
" style="fill:#1f77b4;"/>
   </g>
   <g id="patch_118">
    <path clip-path="url(#p6d966c5c99)" d="M 241.047774 325.921635 
L 241.71723 325.921635 
L 241.71723 323.544776 
L 241.047774 323.544776 
z
" style="fill:#1f77b4;"/>
   </g>
   <g id="patch_119">
    <path clip-path="url(#p6d966c5c99)" d="M 241.884594 325.921635 
L 242.55405 325.921635 
L 242.55405 325.921635 
L 241.884594 325.921635 
z
" style="fill:#1f77b4;"/>
   </g>
   <g id="patch_120">
    <path clip-path="url(#p6d966c5c99)" d="M 242.721414 325.921635 
L 243.39087 325.921635 
L 243.39087 324.337062 
L 242.721414 324.337062 
z
" style="fill:#1f77b4;"/>
   </g>
   <g id="patch_121">
    <path clip-path="url(#p6d966c5c99)" d="M 243.558235 325.921635 
L 244.227691 325.921635 
L 244.227691 322.752489 
L 243.558235 322.752489 
z
" style="fill:#1f77b4;"/>
   </g>
   <g id="patch_122">
    <path clip-path="url(#p6d966c5c99)" d="M 244.395055 325.921635 
L 245.064511 325.921635 
L 245.064511 325.921635 
L 244.395055 325.921635 
z
" style="fill:#1f77b4;"/>
   </g>
   <g id="patch_123">
    <path clip-path="url(#p6d966c5c99)" d="M 245.231875 325.921635 
L 245.901331 325.921635 
L 245.901331 325.921635 
L 245.231875 325.921635 
z
" style="fill:#1f77b4;"/>
   </g>
   <g id="patch_124">
    <path clip-path="url(#p6d966c5c99)" d="M 246.068695 325.921635 
L 246.738152 325.921635 
L 246.738152 325.921635 
L 246.068695 325.921635 
z
" style="fill:#1f77b4;"/>
   </g>
   <g id="patch_125">
    <path clip-path="url(#p6d966c5c99)" d="M 246.905516 325.921635 
L 247.574972 325.921635 
L 247.574972 324.337062 
L 246.905516 324.337062 
z
" style="fill:#1f77b4;"/>
   </g>
   <g id="patch_126">
    <path clip-path="url(#p6d966c5c99)" d="M 247.742336 325.921635 
L 248.411792 325.921635 
L 248.411792 325.129349 
L 247.742336 325.129349 
z
" style="fill:#1f77b4;"/>
   </g>
   <g id="patch_127">
    <path clip-path="url(#p6d966c5c99)" d="M 248.579156 325.921635 
L 249.248613 325.921635 
L 249.248613 325.921635 
L 248.579156 325.921635 
z
" style="fill:#1f77b4;"/>
   </g>
   <g id="patch_128">
    <path clip-path="url(#p6d966c5c99)" d="M 249.415977 325.921635 
L 250.085433 325.921635 
L 250.085433 325.921635 
L 249.415977 325.921635 
z
" style="fill:#1f77b4;"/>
   </g>
   <g id="patch_129">
    <path clip-path="url(#p6d966c5c99)" d="M 250.252797 325.921635 
L 250.922253 325.921635 
L 250.922253 323.544776 
L 250.252797 323.544776 
z
" style="fill:#1f77b4;"/>
   </g>
   <g id="patch_130">
    <path clip-path="url(#p6d966c5c99)" d="M 251.089617 325.921635 
L 251.759073 325.921635 
L 251.759073 324.337062 
L 251.089617 324.337062 
z
" style="fill:#1f77b4;"/>
   </g>
   <g id="patch_131">
    <path clip-path="url(#p6d966c5c99)" d="M 251.926437 325.921635 
L 252.595894 325.921635 
L 252.595894 324.337062 
L 251.926437 324.337062 
z
" style="fill:#1f77b4;"/>
   </g>
   <g id="patch_132">
    <path clip-path="url(#p6d966c5c99)" d="M 252.763258 325.921635 
L 253.432714 325.921635 
L 253.432714 325.921635 
L 252.763258 325.921635 
z
" style="fill:#1f77b4;"/>
   </g>
   <g id="patch_133">
    <path clip-path="url(#p6d966c5c99)" d="M 253.600078 325.921635 
L 254.269534 325.921635 
L 254.269534 325.129349 
L 253.600078 325.129349 
z
" style="fill:#1f77b4;"/>
   </g>
   <g id="patch_134">
    <path clip-path="url(#p6d966c5c99)" d="M 254.436898 325.921635 
L 255.106355 325.921635 
L 255.106355 323.544776 
L 254.436898 323.544776 
z
" style="fill:#1f77b4;"/>
   </g>
   <g id="patch_135">
    <path clip-path="url(#p6d966c5c99)" d="M 255.273719 325.921635 
L 255.943175 325.921635 
L 255.943175 325.921635 
L 255.273719 325.921635 
z
" style="fill:#1f77b4;"/>
   </g>
   <g id="patch_136">
    <path clip-path="url(#p6d966c5c99)" d="M 256.110539 325.921635 
L 256.779995 325.921635 
L 256.779995 325.921635 
L 256.110539 325.921635 
z
" style="fill:#1f77b4;"/>
   </g>
   <g id="patch_137">
    <path clip-path="url(#p6d966c5c99)" d="M 256.947359 325.921635 
L 257.616815 325.921635 
L 257.616815 321.167917 
L 256.947359 321.167917 
z
" style="fill:#1f77b4;"/>
   </g>
   <g id="patch_138">
    <path clip-path="url(#p6d966c5c99)" d="M 257.784179 325.921635 
L 258.453636 325.921635 
L 258.453636 320.37563 
L 257.784179 320.37563 
z
" style="fill:#1f77b4;"/>
   </g>
   <g id="patch_139">
    <path clip-path="url(#p6d966c5c99)" d="M 258.621 325.921635 
L 259.290456 325.921635 
L 259.290456 319.583344 
L 258.621 319.583344 
z
" style="fill:#1f77b4;"/>
   </g>
   <g id="patch_140">
    <path clip-path="url(#p6d966c5c99)" d="M 259.45782 325.921635 
L 260.127276 325.921635 
L 260.127276 318.791057 
L 259.45782 318.791057 
z
" style="fill:#1f77b4;"/>
   </g>
   <g id="patch_141">
    <path clip-path="url(#p6d966c5c99)" d="M 260.29464 325.921635 
L 260.964097 325.921635 
L 260.964097 316.414198 
L 260.29464 316.414198 
z
" style="fill:#1f77b4;"/>
   </g>
   <g id="patch_142">
    <path clip-path="url(#p6d966c5c99)" d="M 261.131461 325.921635 
L 261.800917 325.921635 
L 261.800917 296.607038 
L 261.131461 296.607038 
z
" style="fill:#1f77b4;"/>
   </g>
   <g id="patch_143">
    <path clip-path="url(#p6d966c5c99)" d="M 261.968281 325.921635 
L 262.637737 325.921635 
L 262.637737 309.28362 
L 261.968281 309.28362 
z
" style="fill:#1f77b4;"/>
   </g>
   <g id="patch_144">
    <path clip-path="url(#p6d966c5c99)" d="M 262.805101 325.921635 
L 263.474557 325.921635 
L 263.474557 304.529902 
L 262.805101 304.529902 
z
" style="fill:#1f77b4;"/>
   </g>
   <g id="patch_145">
    <path clip-path="url(#p6d966c5c99)" d="M 263.641922 325.921635 
L 264.311378 325.921635 
L 264.311378 304.529902 
L 263.641922 304.529902 
z
" style="fill:#1f77b4;"/>
   </g>
   <g id="patch_146">
    <path clip-path="url(#p6d966c5c99)" d="M 264.478742 325.921635 
L 265.148198 325.921635 
L 265.148198 282.345882 
L 264.478742 282.345882 
z
" style="fill:#1f77b4;"/>
   </g>
   <g id="patch_147">
    <path clip-path="url(#p6d966c5c99)" d="M 265.315562 325.921635 
L 265.985018 325.921635 
L 265.985018 309.28362 
L 265.315562 309.28362 
z
" style="fill:#1f77b4;"/>
   </g>
   <g id="patch_148">
    <path clip-path="url(#p6d966c5c99)" d="M 266.152382 325.921635 
L 266.821839 325.921635 
L 266.821839 297.399324 
L 266.152382 297.399324 
z
" style="fill:#1f77b4;"/>
   </g>
   <g id="patch_149">
    <path clip-path="url(#p6d966c5c99)" d="M 266.989203 325.921635 
L 267.658659 325.921635 
L 267.658659 287.891887 
L 266.989203 287.891887 
z
" style="fill:#1f77b4;"/>
   </g>
   <g id="patch_150">
    <path clip-path="url(#p6d966c5c99)" d="M 267.826023 325.921635 
L 268.495479 325.921635 
L 268.495479 268.877014 
L 267.826023 268.877014 
z
" style="fill:#1f77b4;"/>
   </g>
   <g id="patch_151">
    <path clip-path="url(#p6d966c5c99)" d="M 268.662843 325.921635 
L 269.332299 325.921635 
L 269.332299 269.6693 
L 268.662843 269.6693 
z
" style="fill:#1f77b4;"/>
   </g>
   <g id="patch_152">
    <path clip-path="url(#p6d966c5c99)" d="M 269.499664 325.921635 
L 270.16912 325.921635 
L 270.16912 264.123295 
L 269.499664 264.123295 
z
" style="fill:#1f77b4;"/>
   </g>
   <g id="patch_153">
    <path clip-path="url(#p6d966c5c99)" d="M 270.336484 325.921635 
L 271.00594 325.921635 
L 271.00594 234.016412 
L 270.336484 234.016412 
z
" style="fill:#1f77b4;"/>
   </g>
   <g id="patch_154">
    <path clip-path="url(#p6d966c5c99)" d="M 271.173304 325.921635 
L 271.84276 325.921635 
L 271.84276 279.176737 
L 271.173304 279.176737 
z
" style="fill:#1f77b4;"/>
   </g>
   <g id="patch_155">
    <path clip-path="url(#p6d966c5c99)" d="M 272.010124 325.921635 
L 272.679581 325.921635 
L 272.679581 261.746436 
L 272.010124 261.746436 
z
" style="fill:#1f77b4;"/>
   </g>
   <g id="patch_156">
    <path clip-path="url(#p6d966c5c99)" d="M 272.846945 325.921635 
L 273.516401 325.921635 
L 273.516401 243.523848 
L 272.846945 243.523848 
z
" style="fill:#1f77b4;"/>
   </g>
   <g id="patch_157">
    <path clip-path="url(#p6d966c5c99)" d="M 273.683765 325.921635 
L 274.353221 325.921635 
L 274.353221 249.069853 
L 273.683765 249.069853 
z
" style="fill:#1f77b4;"/>
   </g>
   <g id="patch_158">
    <path clip-path="url(#p6d966c5c99)" d="M 274.520585 325.921635 
L 275.190042 325.921635 
L 275.190042 207.078674 
L 274.520585 207.078674 
z
" style="fill:#1f77b4;"/>
   </g>
   <g id="patch_159">
    <path clip-path="url(#p6d966c5c99)" d="M 275.357406 325.921635 
L 276.026862 325.921635 
L 276.026862 246.692994 
L 275.357406 246.692994 
z
" style="fill:#1f77b4;"/>
   </g>
   <g id="patch_160">
    <path clip-path="url(#p6d966c5c99)" d="M 276.194226 325.921635 
L 276.863682 325.921635 
L 276.863682 244.316135 
L 276.194226 244.316135 
z
" style="fill:#1f77b4;"/>
   </g>
   <g id="patch_161">
    <path clip-path="url(#p6d966c5c99)" d="M 277.031046 325.921635 
L 277.700502 325.921635 
L 277.700502 235.600984 
L 277.031046 235.600984 
z
" style="fill:#1f77b4;"/>
   </g>
   <g id="patch_162">
    <path clip-path="url(#p6d966c5c99)" d="M 277.867866 325.921635 
L 278.537323 325.921635 
L 278.537323 207.078674 
L 277.867866 207.078674 
z
" style="fill:#1f77b4;"/>
   </g>
   <g id="patch_163">
    <path clip-path="url(#p6d966c5c99)" d="M 278.704687 325.921635 
L 279.374143 325.921635 
L 279.374143 196.77895 
L 278.704687 196.77895 
z
" style="fill:#1f77b4;"/>
   </g>
   <g id="patch_164">
    <path clip-path="url(#p6d966c5c99)" d="M 279.541507 325.921635 
L 280.210963 325.921635 
L 280.210963 193.609805 
L 279.541507 193.609805 
z
" style="fill:#1f77b4;"/>
   </g>
   <g id="patch_165">
    <path clip-path="url(#p6d966c5c99)" d="M 280.378327 325.921635 
L 281.047784 325.921635 
L 281.047784 144.488047 
L 280.378327 144.488047 
z
" style="fill:#1f77b4;"/>
   </g>
   <g id="patch_166">
    <path clip-path="url(#p6d966c5c99)" d="M 281.215148 325.921635 
L 281.884604 325.921635 
L 281.884604 147.657193 
L 281.215148 147.657193 
z
" style="fill:#1f77b4;"/>
   </g>
   <g id="patch_167">
    <path clip-path="url(#p6d966c5c99)" d="M 282.051968 325.921635 
L 282.721424 325.921635 
L 282.721424 198.363523 
L 282.051968 198.363523 
z
" style="fill:#1f77b4;"/>
   </g>
   <g id="patch_168">
    <path clip-path="url(#p6d966c5c99)" d="M 282.888788 325.921635 
L 283.558244 325.921635 
L 283.558244 242.731562 
L 282.888788 242.731562 
z
" style="fill:#1f77b4;"/>
   </g>
   <g id="patch_169">
    <path clip-path="url(#p6d966c5c99)" d="M 283.725608 325.921635 
L 284.395065 325.921635 
L 284.395065 197.571237 
L 283.725608 197.571237 
z
" style="fill:#1f77b4;"/>
   </g>
   <g id="patch_170">
    <path clip-path="url(#p6d966c5c99)" d="M 284.562429 325.921635 
L 285.231885 325.921635 
L 285.231885 195.194377 
L 284.562429 195.194377 
z
" style="fill:#1f77b4;"/>
   </g>
   <g id="patch_171">
    <path clip-path="url(#p6d966c5c99)" d="M 285.399249 325.921635 
L 286.068705 325.921635 
L 286.068705 124.680887 
L 285.399249 124.680887 
z
" style="fill:#1f77b4;"/>
   </g>
   <g id="patch_172">
    <path clip-path="url(#p6d966c5c99)" d="M 286.236069 325.921635 
L 286.905526 325.921635 
L 286.905526 61.297974 
L 286.236069 61.297974 
z
" style="fill:#1f77b4;"/>
   </g>
   <g id="patch_173">
    <path clip-path="url(#p6d966c5c99)" d="M 287.07289 325.921635 
L 287.742346 325.921635 
L 287.742346 32.775664 
L 287.07289 32.775664 
z
" style="fill:#1f77b4;"/>
   </g>
   <g id="patch_174">
    <path clip-path="url(#p6d966c5c99)" d="M 287.90971 325.921635 
L 288.579166 325.921635 
L 288.579166 171.425785 
L 287.90971 171.425785 
z
" style="fill:#1f77b4;"/>
   </g>
   <g id="patch_175">
    <path clip-path="url(#p6d966c5c99)" d="M 288.74653 325.921635 
L 289.415986 325.921635 
L 289.415986 192.025232 
L 288.74653 192.025232 
z
" style="fill:#1f77b4;"/>
   </g>
   <g id="patch_176">
    <path clip-path="url(#p6d966c5c99)" d="M 289.58335 325.921635 
L 290.252807 325.921635 
L 290.252807 216.586111 
L 289.58335 216.586111 
z
" style="fill:#1f77b4;"/>
   </g>
   <g id="patch_177">
    <path clip-path="url(#p6d966c5c99)" d="M 290.420171 325.921635 
L 291.089627 325.921635 
L 291.089627 155.580057 
L 290.420171 155.580057 
z
" style="fill:#1f77b4;"/>
   </g>
   <g id="patch_178">
    <path clip-path="url(#p6d966c5c99)" d="M 291.256991 325.921635 
L 291.926447 325.921635 
L 291.926447 180.933222 
L 291.256991 180.933222 
z
" style="fill:#1f77b4;"/>
   </g>
   <g id="patch_179">
    <path clip-path="url(#p6d966c5c99)" d="M 292.093811 325.921635 
L 292.763268 325.921635 
L 292.763268 87.443426 
L 292.093811 87.443426 
z
" style="fill:#1f77b4;"/>
   </g>
   <g id="patch_180">
    <path clip-path="url(#p6d966c5c99)" d="M 292.930632 325.921635 
L 293.600088 325.921635 
L 293.600088 70.013125 
L 292.930632 70.013125 
z
" style="fill:#1f77b4;"/>
   </g>
   <g id="patch_181">
    <path clip-path="url(#p6d966c5c99)" d="M 293.767452 325.921635 
L 294.436908 325.921635 
L 294.436908 215.793824 
L 293.767452 215.793824 
z
" style="fill:#1f77b4;"/>
   </g>
   <g id="patch_182">
    <path clip-path="url(#p6d966c5c99)" d="M 294.604272 325.921635 
L 295.273728 325.921635 
L 295.273728 196.77895 
L 294.604272 196.77895 
z
" style="fill:#1f77b4;"/>
   </g>
   <g id="patch_183">
    <path clip-path="url(#p6d966c5c99)" d="M 295.441093 325.921635 
L 296.110549 325.921635 
L 296.110549 131.811465 
L 295.441093 131.811465 
z
" style="fill:#1f77b4;"/>
   </g>
   <g id="patch_184">
    <path clip-path="url(#p6d966c5c99)" d="M 296.277913 325.921635 
L 296.947369 325.921635 
L 296.947369 163.502921 
L 296.277913 163.502921 
z
" style="fill:#1f77b4;"/>
   </g>
   <g id="patch_185">
    <path clip-path="url(#p6d966c5c99)" d="M 297.114733 325.921635 
L 297.784189 325.921635 
L 297.784189 110.419732 
L 297.114733 110.419732 
z
" style="fill:#1f77b4;"/>
   </g>
   <g id="patch_186">
    <path clip-path="url(#p6d966c5c99)" d="M 297.951553 325.921635 
L 298.62101 325.921635 
L 298.62101 155.580057 
L 297.951553 155.580057 
z
" style="fill:#1f77b4;"/>
   </g>
   <g id="patch_187">
    <path clip-path="url(#p6d966c5c99)" d="M 298.788374 325.921635 
L 299.45783 325.921635 
L 299.45783 177.764076 
L 298.788374 177.764076 
z
" style="fill:#1f77b4;"/>
   </g>
   <g id="patch_188">
    <path clip-path="url(#p6d966c5c99)" d="M 299.625194 325.921635 
L 300.29465 325.921635 
L 300.29465 293.437892 
L 299.625194 293.437892 
z
" style="fill:#1f77b4;"/>
   </g>
   <g id="patch_189">
    <path clip-path="url(#p6d966c5c99)" d="M 300.462014 325.921635 
L 301.13147 325.921635 
L 301.13147 195.194377 
L 300.462014 195.194377 
z
" style="fill:#1f77b4;"/>
   </g>
   <g id="patch_190">
    <path clip-path="url(#p6d966c5c99)" d="M 301.298835 325.921635 
L 301.968291 325.921635 
L 301.968291 189.648373 
L 301.298835 189.648373 
z
" style="fill:#1f77b4;"/>
   </g>
   <g id="patch_191">
    <path clip-path="url(#p6d966c5c99)" d="M 302.135655 325.921635 
L 302.805111 325.921635 
L 302.805111 116.758023 
L 302.135655 116.758023 
z
" style="fill:#1f77b4;"/>
   </g>
   <g id="patch_192">
    <path clip-path="url(#p6d966c5c99)" d="M 302.972475 325.921635 
L 303.641931 325.921635 
L 303.641931 166.672067 
L 302.972475 166.672067 
z
" style="fill:#1f77b4;"/>
   </g>
   <g id="patch_193">
    <path clip-path="url(#p6d966c5c99)" d="M 303.809295 325.921635 
L 304.478752 325.921635 
L 304.478752 181.725509 
L 303.809295 181.725509 
z
" style="fill:#1f77b4;"/>
   </g>
   <g id="patch_194">
    <path clip-path="url(#p6d966c5c99)" d="M 304.646116 325.921635 
L 305.315572 325.921635 
L 305.315572 130.226892 
L 304.646116 130.226892 
z
" style="fill:#1f77b4;"/>
   </g>
   <g id="patch_195">
    <path clip-path="url(#p6d966c5c99)" d="M 305.482936 325.921635 
L 306.152392 325.921635 
L 306.152392 206.286387 
L 305.482936 206.286387 
z
" style="fill:#1f77b4;"/>
   </g>
   <g id="matplotlib.axis_3">
    <g id="xtick_3">
     <g id="line2d_13">
      <g>
       <use style="stroke:#000000;stroke-width:0.8;" x="227.993377" xlink:href="#md0e56ad59b" y="325.921635"/>
      </g>
     </g>
     <g id="text_13">
      <!-- 0 -->
      <g transform="translate(224.812127 340.520072)scale(0.1 -0.1)">
       <use xlink:href="#DejaVuSans-48"/>
      </g>
     </g>
    </g>
    <g id="xtick_4">
     <g id="line2d_14">
      <g>
       <use style="stroke:#000000;stroke-width:0.8;" x="269.834392" xlink:href="#md0e56ad59b" y="325.921635"/>
      </g>
     </g>
     <g id="text_14">
      <!-- 50 -->
      <g transform="translate(263.471892 340.520072)scale(0.1 -0.1)">
       <use xlink:href="#DejaVuSans-53"/>
       <use x="63.623047" xlink:href="#DejaVuSans-48"/>
      </g>
     </g>
    </g>
   </g>
   <g id="matplotlib.axis_4">
    <g id="ytick_10">
     <g id="line2d_15">
      <g>
       <use style="stroke:#000000;stroke-width:0.8;" x="223.733962" xlink:href="#m81d54d16e7" y="325.921635"/>
      </g>
     </g>
     <g id="text_15">
      <!-- 0 -->
      <g transform="translate(210.371462 329.720854)scale(0.1 -0.1)">
       <use xlink:href="#DejaVuSans-48"/>
      </g>
     </g>
    </g>
    <g id="ytick_11">
     <g id="line2d_16">
      <g>
       <use style="stroke:#000000;stroke-width:0.8;" x="223.733962" xlink:href="#m81d54d16e7" y="286.307315"/>
      </g>
     </g>
     <g id="text_16">
      <!-- 50 -->
      <g transform="translate(204.008962 290.106533)scale(0.1 -0.1)">
       <use xlink:href="#DejaVuSans-53"/>
       <use x="63.623047" xlink:href="#DejaVuSans-48"/>
      </g>
     </g>
    </g>
    <g id="ytick_12">
     <g id="line2d_17">
      <g>
       <use style="stroke:#000000;stroke-width:0.8;" x="223.733962" xlink:href="#m81d54d16e7" y="246.692994"/>
      </g>
     </g>
     <g id="text_17">
      <!-- 100 -->
      <g transform="translate(197.646462 250.492213)scale(0.1 -0.1)">
       <use xlink:href="#DejaVuSans-49"/>
       <use x="63.623047" xlink:href="#DejaVuSans-48"/>
       <use x="127.246094" xlink:href="#DejaVuSans-48"/>
      </g>
     </g>
    </g>
    <g id="ytick_13">
     <g id="line2d_18">
      <g>
       <use style="stroke:#000000;stroke-width:0.8;" x="223.733962" xlink:href="#m81d54d16e7" y="207.078674"/>
      </g>
     </g>
     <g id="text_18">
      <!-- 150 -->
      <g transform="translate(197.646462 210.877892)scale(0.1 -0.1)">
       <use xlink:href="#DejaVuSans-49"/>
       <use x="63.623047" xlink:href="#DejaVuSans-53"/>
       <use x="127.246094" xlink:href="#DejaVuSans-48"/>
      </g>
     </g>
    </g>
    <g id="ytick_14">
     <g id="line2d_19">
      <g>
       <use style="stroke:#000000;stroke-width:0.8;" x="223.733962" xlink:href="#m81d54d16e7" y="167.464353"/>
      </g>
     </g>
     <g id="text_19">
      <!-- 200 -->
      <g transform="translate(197.646462 171.263572)scale(0.1 -0.1)">
       <use xlink:href="#DejaVuSans-50"/>
       <use x="63.623047" xlink:href="#DejaVuSans-48"/>
       <use x="127.246094" xlink:href="#DejaVuSans-48"/>
      </g>
     </g>
    </g>
    <g id="ytick_15">
     <g id="line2d_20">
      <g>
       <use style="stroke:#000000;stroke-width:0.8;" x="223.733962" xlink:href="#m81d54d16e7" y="127.850033"/>
      </g>
     </g>
     <g id="text_20">
      <!-- 250 -->
      <g transform="translate(197.646462 131.649251)scale(0.1 -0.1)">
       <use xlink:href="#DejaVuSans-50"/>
       <use x="63.623047" xlink:href="#DejaVuSans-53"/>
       <use x="127.246094" xlink:href="#DejaVuSans-48"/>
      </g>
     </g>
    </g>
    <g id="ytick_16">
     <g id="line2d_21">
      <g>
       <use style="stroke:#000000;stroke-width:0.8;" x="223.733962" xlink:href="#m81d54d16e7" y="88.235712"/>
      </g>
     </g>
     <g id="text_21">
      <!-- 300 -->
      <g transform="translate(197.646462 92.034931)scale(0.1 -0.1)">
       <use xlink:href="#DejaVuSans-51"/>
       <use x="63.623047" xlink:href="#DejaVuSans-48"/>
       <use x="127.246094" xlink:href="#DejaVuSans-48"/>
      </g>
     </g>
    </g>
    <g id="ytick_17">
     <g id="line2d_22">
      <g>
       <use style="stroke:#000000;stroke-width:0.8;" x="223.733962" xlink:href="#m81d54d16e7" y="48.621392"/>
      </g>
     </g>
     <g id="text_22">
      <!-- 350 -->
      <g transform="translate(197.646462 52.420611)scale(0.1 -0.1)">
       <use xlink:href="#DejaVuSans-51"/>
       <use x="63.623047" xlink:href="#DejaVuSans-53"/>
       <use x="127.246094" xlink:href="#DejaVuSans-48"/>
      </g>
     </g>
    </g>
   </g>
   <g id="line2d_23">
    <path clip-path="url(#p6d966c5c99)" d="M 227.993377 325.577464 
L 228.830197 325.481439 
L 229.667018 325.384425 
L 230.503838 325.329978 
L 231.340658 325.29401 
L 232.177479 325.275861 
L 233.014299 325.272231 
L 233.851119 325.272891 
L 234.687939 325.273221 
L 235.52476 325.266621 
L 236.36158 325.248142 
L 237.1984 325.216794 
L 238.035221 325.173236 
L 238.872041 325.121429 
L 239.708861 325.068632 
L 240.545682 325.020785 
L 241.382502 324.984487 
L 242.219322 324.962708 
L 243.056142 324.955118 
L 243.892963 324.962708 
L 244.729783 324.982177 
L 245.566603 325.003626 
L 246.403424 325.021115 
L 247.240244 325.029034 
L 248.077064 325.024414 
L 248.913884 325.001646 
L 249.750705 324.951158 
L 250.587525 324.865693 
L 251.424345 324.730731 
L 252.261166 324.518882 
L 253.097986 324.19781 
L 253.934806 323.730886 
L 254.771626 323.075542 
L 255.608447 322.1935 
L 256.445267 321.043843 
L 257.282087 319.617332 
L 258.118908 317.912646 
L 258.955728 315.931435 
L 259.792548 313.674029 
L 260.629368 311.158577 
L 261.466189 308.394649 
L 262.303009 305.392804 
L 263.139829 302.119385 
L 263.97665 298.56119 
L 264.81347 294.703043 
L 265.65029 290.554841 
L 266.48711 286.147273 
L 267.323931 281.521258 
L 268.160751 276.718702 
L 268.997571 271.818802 
L 269.834392 266.858845 
L 270.671212 261.891628 
L 271.508032 256.906592 
L 272.344853 251.816292 
L 273.181673 246.557042 
L 274.018493 241.092872 
L 274.855313 235.393756 
L 275.692134 229.462332 
L 276.528954 223.281112 
L 277.365774 216.903553 
L 278.202595 210.462307 
L 279.039415 204.018092 
L 279.876235 197.597965 
L 280.713055 191.174539 
L 281.549876 184.768931 
L 282.386696 178.464958 
L 283.223516 172.389002 
L 284.060337 166.657878 
L 284.897157 161.480792 
L 285.733977 157.018778 
L 286.570797 153.503151 
L 287.407618 151.002549 
L 288.244438 149.503441 
L 289.081258 148.888355 
L 289.918079 149.002199 
L 290.754899 149.616955 
L 291.591719 150.662338 
L 292.428539 151.989855 
L 293.26536 153.661543 
L 294.10218 155.732509 
L 294.939 158.197803 
L 295.775821 160.98582 
L 296.612641 164.048381 
L 297.449461 167.126452 
L 298.286281 170.083089 
L 299.123102 172.586991 
L 299.959922 174.323686 
L 300.796742 175.194508 
L 301.633563 175.397117 
L 302.470383 174.934152 
L 303.307203 174.022412 
L 304.144024 173.34364 
L 304.980844 172.452689 
L 305.817664 171.593746 
" style="fill:none;stroke:#ff0000;stroke-linecap:square;stroke-width:1.5;"/>
   </g>
   <g id="patch_196">
    <path d="M 223.733962 325.921635 
L 223.733962 18.118365 
" style="fill:none;stroke:#000000;stroke-linecap:square;stroke-linejoin:miter;stroke-width:0.8;"/>
   </g>
   <g id="patch_197">
    <path d="M 310.077079 325.921635 
L 310.077079 18.118365 
" style="fill:none;stroke:#000000;stroke-linecap:square;stroke-linejoin:miter;stroke-width:0.8;"/>
   </g>
   <g id="patch_198">
    <path d="M 223.733962 325.921635 
L 310.077079 325.921635 
" style="fill:none;stroke:#000000;stroke-linecap:square;stroke-linejoin:miter;stroke-width:0.8;"/>
   </g>
   <g id="patch_199">
    <path d="M 223.733962 18.118365 
L 310.077079 18.118365 
" style="fill:none;stroke:#000000;stroke-linecap:square;stroke-linejoin:miter;stroke-width:0.8;"/>
   </g>
   <g id="text_23">
    <!-- Casos novos - TO - (data) -->
    <defs>
     <path d="M 54.890625 33.015625 
L 54.890625 0 
L 45.90625 0 
L 45.90625 32.71875 
Q 45.90625 40.484375 42.875 44.328125 
Q 39.84375 48.1875 33.796875 48.1875 
Q 26.515625 48.1875 22.3125 43.546875 
Q 18.109375 38.921875 18.109375 30.90625 
L 18.109375 0 
L 9.078125 0 
L 9.078125 54.6875 
L 18.109375 54.6875 
L 18.109375 46.1875 
Q 21.34375 51.125 25.703125 53.5625 
Q 30.078125 56 35.796875 56 
Q 45.21875 56 50.046875 50.171875 
Q 54.890625 44.34375 54.890625 33.015625 
z
" id="DejaVuSans-110"/>
     <path d="M 2.984375 54.6875 
L 12.5 54.6875 
L 29.59375 8.796875 
L 46.6875 54.6875 
L 56.203125 54.6875 
L 35.6875 0 
L 23.484375 0 
z
" id="DejaVuSans-118"/>
    </defs>
    <g transform="translate(190.846146 12.118365)scale(0.12 -0.12)">
     <use xlink:href="#DejaVuSans-67"/>
     <use x="69.824219" xlink:href="#DejaVuSans-97"/>
     <use x="131.103516" xlink:href="#DejaVuSans-115"/>
     <use x="183.203125" xlink:href="#DejaVuSans-111"/>
     <use x="244.384766" xlink:href="#DejaVuSans-115"/>
     <use x="296.484375" xlink:href="#DejaVuSans-32"/>
     <use x="328.271484" xlink:href="#DejaVuSans-110"/>
     <use x="391.650391" xlink:href="#DejaVuSans-111"/>
     <use x="452.832031" xlink:href="#DejaVuSans-118"/>
     <use x="512.011719" xlink:href="#DejaVuSans-111"/>
     <use x="573.193359" xlink:href="#DejaVuSans-115"/>
     <use x="625.292969" xlink:href="#DejaVuSans-32"/>
     <use x="657.080078" xlink:href="#DejaVuSans-45"/>
     <use x="693.164062" xlink:href="#DejaVuSans-32"/>
     <use x="724.951172" xlink:href="#DejaVuSans-84"/>
     <use x="786.035156" xlink:href="#DejaVuSans-79"/>
     <use x="864.746094" xlink:href="#DejaVuSans-32"/>
     <use x="896.533203" xlink:href="#DejaVuSans-45"/>
     <use x="932.617188" xlink:href="#DejaVuSans-32"/>
     <use x="964.404297" xlink:href="#DejaVuSans-40"/>
     <use x="1003.417969" xlink:href="#DejaVuSans-100"/>
     <use x="1066.894531" xlink:href="#DejaVuSans-97"/>
     <use x="1128.173828" xlink:href="#DejaVuSans-116"/>
     <use x="1167.382812" xlink:href="#DejaVuSans-97"/>
     <use x="1228.662109" xlink:href="#DejaVuSans-41"/>
    </g>
   </g>
  </g>
  <g id="axes_3">
   <g id="patch_200">
    <path d="M 371.456643 325.921635 
L 457.79976 325.921635 
L 457.79976 18.118365 
L 371.456643 18.118365 
z
" style="fill:#ffffff;"/>
   </g>
   <g id="matplotlib.axis_5">
    <g id="xtick_5">
     <g id="line2d_24">
      <g>
       <use style="stroke:#000000;stroke-width:0.8;" x="375.38133" xlink:href="#md0e56ad59b" y="325.921635"/>
      </g>
     </g>
     <g id="text_24">
      <!-- 0 -->
      <g transform="translate(372.20008 340.520072)scale(0.1 -0.1)">
       <use xlink:href="#DejaVuSans-48"/>
      </g>
     </g>
    </g>
    <g id="xtick_6">
     <g id="line2d_25">
      <g>
       <use style="stroke:#000000;stroke-width:0.8;" x="417.582267" xlink:href="#md0e56ad59b" y="325.921635"/>
      </g>
     </g>
     <g id="text_25">
      <!-- 50 -->
      <g transform="translate(411.219767 340.520072)scale(0.1 -0.1)">
       <use xlink:href="#DejaVuSans-53"/>
       <use x="63.623047" xlink:href="#DejaVuSans-48"/>
      </g>
     </g>
    </g>
   </g>
   <g id="matplotlib.axis_6">
    <g id="ytick_18">
     <g id="line2d_26">
      <g>
       <use style="stroke:#000000;stroke-width:0.8;" x="371.456643" xlink:href="#m81d54d16e7" y="289.410834"/>
      </g>
     </g>
     <g id="text_26">
      <!-- 1.0 -->
      <defs>
       <path d="M 10.6875 12.40625 
L 21 12.40625 
L 21 0 
L 10.6875 0 
z
" id="DejaVuSans-46"/>
      </defs>
      <g transform="translate(348.553518 293.210053)scale(0.1 -0.1)">
       <use xlink:href="#DejaVuSans-49"/>
       <use x="63.623047" xlink:href="#DejaVuSans-46"/>
       <use x="95.410156" xlink:href="#DejaVuSans-48"/>
      </g>
     </g>
    </g>
    <g id="ytick_19">
     <g id="line2d_27">
      <g>
       <use style="stroke:#000000;stroke-width:0.8;" x="371.456643" xlink:href="#m81d54d16e7" y="221.842443"/>
      </g>
     </g>
     <g id="text_27">
      <!-- 1.5 -->
      <g transform="translate(348.553518 225.641662)scale(0.1 -0.1)">
       <use xlink:href="#DejaVuSans-49"/>
       <use x="63.623047" xlink:href="#DejaVuSans-46"/>
       <use x="95.410156" xlink:href="#DejaVuSans-53"/>
      </g>
     </g>
    </g>
    <g id="ytick_20">
     <g id="line2d_28">
      <g>
       <use style="stroke:#000000;stroke-width:0.8;" x="371.456643" xlink:href="#m81d54d16e7" y="154.274051"/>
      </g>
     </g>
     <g id="text_28">
      <!-- 2.0 -->
      <g transform="translate(348.553518 158.07327)scale(0.1 -0.1)">
       <use xlink:href="#DejaVuSans-50"/>
       <use x="63.623047" xlink:href="#DejaVuSans-46"/>
       <use x="95.410156" xlink:href="#DejaVuSans-48"/>
      </g>
     </g>
    </g>
    <g id="ytick_21">
     <g id="line2d_29">
      <g>
       <use style="stroke:#000000;stroke-width:0.8;" x="371.456643" xlink:href="#m81d54d16e7" y="86.70566"/>
      </g>
     </g>
     <g id="text_29">
      <!-- 2.5 -->
      <g transform="translate(348.553518 90.504879)scale(0.1 -0.1)">
       <use xlink:href="#DejaVuSans-50"/>
       <use x="63.623047" xlink:href="#DejaVuSans-46"/>
       <use x="95.410156" xlink:href="#DejaVuSans-53"/>
      </g>
     </g>
    </g>
    <g id="ytick_22">
     <g id="line2d_30">
      <g>
       <use style="stroke:#000000;stroke-width:0.8;" x="371.456643" xlink:href="#m81d54d16e7" y="19.137268"/>
      </g>
     </g>
     <g id="text_30">
      <!-- 3.0 -->
      <g transform="translate(348.553518 22.936487)scale(0.1 -0.1)">
       <use xlink:href="#DejaVuSans-51"/>
       <use x="63.623047" xlink:href="#DejaVuSans-46"/>
       <use x="95.410156" xlink:href="#DejaVuSans-48"/>
      </g>
     </g>
    </g>
   </g>
   <g id="line2d_31">
    <path clip-path="url(#p29c0dfe67b)" d="M 375.38133 32.109423 
L 376.225348 78.823975 
L 377.069367 115.068683 
L 377.913386 200.561758 
L 378.757405 234.073393 
L 379.601423 262.264243 
L 380.445442 283.998301 
L 381.289461 290.375269 
L 382.13348 289.883429 
L 382.977498 279.663994 
L 383.821517 262.901109 
L 384.665536 246.450276 
L 385.509555 233.196993 
L 386.353573 226.879082 
L 387.197592 229.62456 
L 388.041611 238.100481 
L 388.88563 251.982706 
L 389.729648 267.448536 
L 390.573667 281.793355 
L 391.417686 297.015451 
L 392.261705 309.381709 
L 393.105723 311.930577 
L 393.949742 308.121902 
L 394.793761 297.93539 
L 395.63778 284.395231 
L 396.481798 265.467888 
L 397.325817 239.129255 
L 398.169836 211.205123 
L 399.013854 179.921941 
L 399.857873 143.511461 
L 400.701892 109.472845 
L 401.545911 83.492532 
L 402.389929 66.919575 
L 403.233948 60.76191 
L 404.077967 61.572604 
L 404.921986 70.599731 
L 405.766004 83.493991 
L 406.610023 97.444275 
L 407.454042 110.87431 
L 408.298061 124.224581 
L 409.142079 136.376009 
L 409.986098 147.338283 
L 410.830117 155.610999 
L 411.674136 162.689244 
L 412.518154 168.775123 
L 413.362173 174.685881 
L 414.206192 180.764778 
L 415.050211 186.981303 
L 415.894229 193.149493 
L 416.738248 199.762436 
L 417.582267 205.934231 
L 418.426286 211.924022 
L 419.270304 216.88205 
L 420.114323 220.070471 
L 420.958342 222.154462 
L 421.802361 223.666898 
L 422.646379 224.778871 
L 423.490398 225.878619 
L 424.334417 226.771523 
L 425.178436 228.096417 
L 426.022454 230.39124 
L 426.866473 232.891082 
L 427.710492 235.294552 
L 428.554511 237.222049 
L 429.398529 239.072458 
L 430.242548 241.25921 
L 431.086567 243.996803 
L 431.930586 247.155974 
L 432.774604 251.250829 
L 433.618623 255.938462 
L 434.462642 261.634125 
L 435.30666 267.436019 
L 436.150679 272.975399 
L 436.994698 277.75897 
L 437.838717 281.646447 
L 438.682735 284.249313 
L 439.526754 286.494574 
L 440.370773 287.919117 
L 441.214792 289.775277 
L 442.05881 292.054141 
L 442.902829 294.419533 
L 443.746848 296.464804 
L 444.590867 298.328901 
L 445.434885 298.584844 
L 446.278904 297.928776 
L 447.122923 294.930401 
L 447.966942 289.571864 
L 448.81096 283.336647 
L 449.654979 278.382615 
L 450.498998 273.418228 
L 451.343017 269.987112 
L 452.187035 271.306109 
L 453.031054 269.531453 
L 453.875073 269.448543 
" style="fill:none;stroke:#ff0000;stroke-linecap:square;stroke-width:1.5;"/>
   </g>
   <g id="patch_201">
    <path d="M 371.456643 325.921635 
L 371.456643 18.118365 
" style="fill:none;stroke:#000000;stroke-linecap:square;stroke-linejoin:miter;stroke-width:0.8;"/>
   </g>
   <g id="patch_202">
    <path d="M 457.79976 325.921635 
L 457.79976 18.118365 
" style="fill:none;stroke:#000000;stroke-linecap:square;stroke-linejoin:miter;stroke-width:0.8;"/>
   </g>
   <g id="patch_203">
    <path d="M 371.456643 325.921635 
L 457.79976 325.921635 
" style="fill:none;stroke:#000000;stroke-linecap:square;stroke-linejoin:miter;stroke-width:0.8;"/>
   </g>
   <g id="patch_204">
    <path d="M 371.456643 18.118365 
L 457.79976 18.118365 
" style="fill:none;stroke:#000000;stroke-linecap:square;stroke-linejoin:miter;stroke-width:0.8;"/>
   </g>
   <g id="text_31">
    <!-- r0 - TO - (data) -->
    <defs>
     <path d="M 41.109375 46.296875 
Q 39.59375 47.171875 37.8125 47.578125 
Q 36.03125 48 33.890625 48 
Q 26.265625 48 22.1875 43.046875 
Q 18.109375 38.09375 18.109375 28.8125 
L 18.109375 0 
L 9.078125 0 
L 9.078125 54.6875 
L 18.109375 54.6875 
L 18.109375 46.1875 
Q 20.953125 51.171875 25.484375 53.578125 
Q 30.03125 56 36.53125 56 
Q 37.453125 56 38.578125 55.875 
Q 39.703125 55.765625 41.0625 55.515625 
z
" id="DejaVuSans-114"/>
    </defs>
    <g transform="translate(369.802576 12.118365)scale(0.12 -0.12)">
     <use xlink:href="#DejaVuSans-114"/>
     <use x="41.113281" xlink:href="#DejaVuSans-48"/>
     <use x="104.736328" xlink:href="#DejaVuSans-32"/>
     <use x="136.523438" xlink:href="#DejaVuSans-45"/>
     <use x="172.607422" xlink:href="#DejaVuSans-32"/>
     <use x="204.394531" xlink:href="#DejaVuSans-84"/>
     <use x="265.478516" xlink:href="#DejaVuSans-79"/>
     <use x="344.189453" xlink:href="#DejaVuSans-32"/>
     <use x="375.976562" xlink:href="#DejaVuSans-45"/>
     <use x="412.060547" xlink:href="#DejaVuSans-32"/>
     <use x="443.847656" xlink:href="#DejaVuSans-40"/>
     <use x="482.861328" xlink:href="#DejaVuSans-100"/>
     <use x="546.337891" xlink:href="#DejaVuSans-97"/>
     <use x="607.617188" xlink:href="#DejaVuSans-116"/>
     <use x="646.826172" xlink:href="#DejaVuSans-97"/>
     <use x="708.105469" xlink:href="#DejaVuSans-41"/>
    </g>
   </g>
  </g>
 </g>
 <defs>
  <clipPath id="p3cf90941de">
   <rect height="307.80327" width="86.343117" x="50.957323" y="18.118365"/>
  </clipPath>
  <clipPath id="p6d966c5c99">
   <rect height="307.80327" width="86.343117" x="223.733962" y="18.118365"/>
  </clipPath>
  <clipPath id="p29c0dfe67b">
   <rect height="307.80327" width="86.343117" x="371.456643" y="18.118365"/>
  </clipPath>
 </defs>
</svg>
